{
  "header": {
    "keySignatures": [
      {
        "key": "C",
        "scale": "major",
        "ticks": 0
      }
    ],
    "meta": {
      "title": "Big in Japan",
      "artist": "Alphaville",
      "creator": "iDiOt"
    },
    "name": "",
    "ppq": 192,
    "tempos": [
      {
        "bpm": 105.000105000105,
        "ticks": 0
      }
    ],
    "timeSignatures": [
      {
        "ticks": 0,
        "timeSignature": [
          4,
          4
        ],
        "measures": 0
      }
    ]
  },
  "tracks": [
    {
      "channel": 1,
      "controlChanges": {
        "1": [
          {
            "number": 1,
            "ticks": 80784,
            "time": 240.42833100000001,
            "value": 0
          }
        ],
        "7": [
          {
            "number": 7,
            "ticks": 0,
            "time": 0,
            "value": 0.7874015748031497
          },
          {
            "number": 7,
            "ticks": 80832,
            "time": 240.571188,
            "value": 0.7874015748031497
          }
        ],
        "10": [
          {
            "number": 10,
            "ticks": 0,
            "time": 0,
            "value": 0.7559055118110236
          },
          {
            "number": 10,
            "ticks": 80736,
            "time": 240.28547400000002,
            "value": 0.5039370078740157
          }
        ],
        "64": [
          {
            "number": 64,
            "ticks": 81024,
            "time": 241.14261600000003,
            "value": 0
          }
        ],
        "91": [
          {
            "number": 91,
            "ticks": 132,
            "time": 0.39285675000000003,
            "value": 1
          },
          {
            "number": 91,
            "ticks": 80688,
            "time": 240.14261700000003,
            "value": 0.31496062992125984
          }
        ],
        "93": [
          {
            "number": 93,
            "ticks": 288,
            "time": 0.8571420000000001,
            "value": 1
          },
          {
            "number": 93,
            "ticks": 80976,
            "time": 240.999759,
            "value": 0
          }
        ]
      },
      "pitchBends": [
        {
          "ticks": 81072,
          "time": 241.28547300000002,
          "value": 0
        }
      ],
      "instrument": {
        "family": "synth lead",
        "number": 81,
        "name": "lead 2 (sawtooth)"
      },
      "name": "lead                ",
      "notes": [
        {
          "duration": 0.2857139999999987,
          "durationTicks": 96,
          "midi": 65,
          "name": "F4",
          "ticks": 7104,
          "time": 21.142836000000003,
          "velocity": 0.7559055118110236
        },
        {
          "duration": 0.2857139999999987,
          "durationTicks": 96,
          "midi": 65,
          "name": "F4",
          "ticks": 7200,
          "time": 21.42855,
          "velocity": 0.7559055118110236
        },
        {
          "duration": 0.1428570000000029,
          "durationTicks": 48,
          "midi": 64,
          "name": "E4",
          "ticks": 7296,
          "time": 21.714264,
          "velocity": 0.7559055118110236
        },
        {
          "duration": 0.2857139999999987,
          "durationTicks": 96,
          "midi": 65,
          "name": "F4",
          "ticks": 7344,
          "time": 21.857121000000003,
          "velocity": 0.7559055118110236
        },
        {
          "duration": 0.4285710000000016,
          "durationTicks": 144,
          "midi": 64,
          "name": "E4",
          "ticks": 7440,
          "time": 22.142835,
          "velocity": 0.7559055118110236
        },
        {
          "duration": 0.8571419999999996,
          "durationTicks": 288,
          "midi": 62,
          "name": "D4",
          "ticks": 7584,
          "time": 22.571406000000003,
          "velocity": 0.7559055118110236
        },
        {
          "duration": 0.2857139999999987,
          "durationTicks": 96,
          "midi": 65,
          "name": "F4",
          "ticks": 7872,
          "time": 23.428548000000003,
          "velocity": 0.7559055118110236
        },
        {
          "duration": 0.28571400000000224,
          "durationTicks": 96,
          "midi": 65,
          "name": "F4",
          "ticks": 7968,
          "time": 23.714262,
          "velocity": 0.7559055118110236
        },
        {
          "duration": 0.2857139999999987,
          "durationTicks": 96,
          "midi": 67,
          "name": "G4",
          "ticks": 8064,
          "time": 23.999976000000004,
          "velocity": 0.7559055118110236
        },
        {
          "duration": 0.2857139999999987,
          "durationTicks": 96,
          "midi": 65,
          "name": "F4",
          "ticks": 8160,
          "time": 24.285690000000002,
          "velocity": 0.7559055118110236
        },
        {
          "duration": 0.14285699999999935,
          "durationTicks": 48,
          "midi": 64,
          "name": "E4",
          "ticks": 8256,
          "time": 24.571404,
          "velocity": 0.7559055118110236
        },
        {
          "duration": 0.28571400000000224,
          "durationTicks": 96,
          "midi": 65,
          "name": "F4",
          "ticks": 8304,
          "time": 24.714261,
          "velocity": 0.7559055118110236
        },
        {
          "duration": 0.42857099999999804,
          "durationTicks": 144,
          "midi": 65,
          "name": "F4",
          "ticks": 8400,
          "time": 24.999975000000003,
          "velocity": 0.7559055118110236
        },
        {
          "duration": 0.28571400000000224,
          "durationTicks": 96,
          "midi": 64,
          "name": "E4",
          "ticks": 8544,
          "time": 25.428546,
          "velocity": 0.7559055118110236
        },
        {
          "duration": 0.14285699999999935,
          "durationTicks": 48,
          "midi": 64,
          "name": "E4",
          "ticks": 8640,
          "time": 25.714260000000003,
          "velocity": 0.7559055118110236
        },
        {
          "duration": 0.2857139999999987,
          "durationTicks": 96,
          "midi": 62,
          "name": "D4",
          "ticks": 8688,
          "time": 25.857117000000002,
          "velocity": 0.7559055118110236
        },
        {
          "duration": 0.4285710000000016,
          "durationTicks": 144,
          "midi": 62,
          "name": "D4",
          "ticks": 8784,
          "time": 26.142831,
          "velocity": 0.7559055118110236
        },
        {
          "duration": 0.2857139999999987,
          "durationTicks": 96,
          "midi": 60,
          "name": "C4",
          "ticks": 8928,
          "time": 26.571402000000003,
          "velocity": 0.7559055118110236
        },
        {
          "duration": 0.28571400000000224,
          "durationTicks": 96,
          "midi": 60,
          "name": "C4",
          "ticks": 9024,
          "time": 26.857116,
          "velocity": 0.7559055118110236
        },
        {
          "duration": 0.2857139999999987,
          "durationTicks": 96,
          "midi": 58,
          "name": "A#3",
          "ticks": 9120,
          "time": 27.142830000000004,
          "velocity": 0.7559055118110236
        },
        {
          "duration": 2.857140000000001,
          "durationTicks": 960,
          "midi": 57,
          "name": "A3",
          "ticks": 9216,
          "time": 27.428544000000002,
          "velocity": 0.7559055118110236
        },
        {
          "duration": 0.2857139999999987,
          "durationTicks": 96,
          "midi": 65,
          "name": "F4",
          "ticks": 10176,
          "time": 30.285684000000003,
          "velocity": 0.7559055118110236
        },
        {
          "duration": 0.2857139999999987,
          "durationTicks": 96,
          "midi": 65,
          "name": "F4",
          "ticks": 10272,
          "time": 30.571398000000002,
          "velocity": 0.7559055118110236
        },
        {
          "duration": 0.28571400000000224,
          "durationTicks": 96,
          "midi": 64,
          "name": "E4",
          "ticks": 10368,
          "time": 30.857112,
          "velocity": 0.7559055118110236
        },
        {
          "duration": 0.14285699999999935,
          "durationTicks": 48,
          "midi": 65,
          "name": "F4",
          "ticks": 10464,
          "time": 31.142826000000003,
          "velocity": 0.7559055118110236
        },
        {
          "duration": 0.4285710000000016,
          "durationTicks": 144,
          "midi": 64,
          "name": "E4",
          "ticks": 10512,
          "time": 31.285683000000002,
          "velocity": 0.7559055118110236
        },
        {
          "duration": 0.8571419999999961,
          "durationTicks": 288,
          "midi": 62,
          "name": "D4",
          "ticks": 10656,
          "time": 31.714254000000004,
          "velocity": 0.7559055118110236
        },
        {
          "duration": 0.2857140000000058,
          "durationTicks": 96,
          "midi": 65,
          "name": "F4",
          "ticks": 10944,
          "time": 32.571396,
          "velocity": 0.7559055118110236
        },
        {
          "duration": 0.2857139999999987,
          "durationTicks": 96,
          "midi": 65,
          "name": "F4",
          "ticks": 11040,
          "time": 32.857110000000006,
          "velocity": 0.7559055118110236
        },
        {
          "duration": 0.2857139999999987,
          "durationTicks": 96,
          "midi": 67,
          "name": "G4",
          "ticks": 11136,
          "time": 33.142824000000005,
          "velocity": 0.7559055118110236
        },
        {
          "duration": 0.2857139999999987,
          "durationTicks": 96,
          "midi": 65,
          "name": "F4",
          "ticks": 11232,
          "time": 33.428538,
          "velocity": 0.7559055118110236
        },
        {
          "duration": 0.2857139999999987,
          "durationTicks": 96,
          "midi": 64,
          "name": "E4",
          "ticks": 11328,
          "time": 33.714252,
          "velocity": 0.7559055118110236
        },
        {
          "duration": 0.2857139999999987,
          "durationTicks": 96,
          "midi": 65,
          "name": "F4",
          "ticks": 11424,
          "time": 33.999966,
          "velocity": 0.7559055118110236
        },
        {
          "duration": 0.002976187500003391,
          "durationTicks": 1,
          "midi": 65,
          "name": "F4",
          "ticks": 11520,
          "time": 34.28568,
          "velocity": 0.7559055118110236
        },
        {
          "duration": 0.2857139999999987,
          "durationTicks": 96,
          "midi": 64,
          "name": "E4",
          "ticks": 11616,
          "time": 34.571394000000005,
          "velocity": 0.7559055118110236
        },
        {
          "duration": 0.14285699999999935,
          "durationTicks": 48,
          "midi": 64,
          "name": "E4",
          "ticks": 11712,
          "time": 34.857108000000004,
          "velocity": 0.7559055118110236
        },
        {
          "duration": 0.2857139999999987,
          "durationTicks": 96,
          "midi": 62,
          "name": "D4",
          "ticks": 11760,
          "time": 34.999965,
          "velocity": 0.7559055118110236
        },
        {
          "duration": 0.42857099999999804,
          "durationTicks": 144,
          "midi": 62,
          "name": "D4",
          "ticks": 11856,
          "time": 35.285679,
          "velocity": 0.7559055118110236
        },
        {
          "duration": 0.2857140000000058,
          "durationTicks": 96,
          "midi": 60,
          "name": "C4",
          "ticks": 12000,
          "time": 35.71425,
          "velocity": 0.7559055118110236
        },
        {
          "duration": 0.2857139999999987,
          "durationTicks": 96,
          "midi": 60,
          "name": "C4",
          "ticks": 12096,
          "time": 35.999964000000006,
          "velocity": 0.7559055118110236
        },
        {
          "duration": 0.5714279999999974,
          "durationTicks": 192,
          "midi": 62,
          "name": "D4",
          "ticks": 12192,
          "time": 36.285678000000004,
          "velocity": 0.7559055118110236
        },
        {
          "duration": 2.5714260000000024,
          "durationTicks": 864,
          "midi": 61,
          "name": "C#4",
          "ticks": 12384,
          "time": 36.857106,
          "velocity": 0.7559055118110236
        },
        {
          "duration": 0.2857139999999987,
          "durationTicks": 96,
          "midi": 65,
          "name": "F4",
          "ticks": 13248,
          "time": 39.428532000000004,
          "velocity": 0.7559055118110236
        },
        {
          "duration": 0.2857139999999987,
          "durationTicks": 96,
          "midi": 65,
          "name": "F4",
          "ticks": 13344,
          "time": 39.714246,
          "velocity": 0.7559055118110236
        },
        {
          "duration": 0.14285699999999935,
          "durationTicks": 48,
          "midi": 64,
          "name": "E4",
          "ticks": 13440,
          "time": 39.99996,
          "velocity": 0.7559055118110236
        },
        {
          "duration": 0.2857140000000058,
          "durationTicks": 96,
          "midi": 62,
          "name": "D4",
          "ticks": 13488,
          "time": 40.142817,
          "velocity": 0.7559055118110236
        },
        {
          "duration": 0.42857099999999804,
          "durationTicks": 144,
          "midi": 60,
          "name": "C4",
          "ticks": 13584,
          "time": 40.42853100000001,
          "velocity": 0.7559055118110236
        },
        {
          "duration": 0.2857139999999987,
          "durationTicks": 96,
          "midi": 62,
          "name": "D4",
          "ticks": 13728,
          "time": 40.857102000000005,
          "velocity": 0.7559055118110236
        },
        {
          "duration": 0.5714279999999974,
          "durationTicks": 192,
          "midi": 60,
          "name": "C4",
          "ticks": 13824,
          "time": 41.142816,
          "velocity": 0.7559055118110236
        },
        {
          "duration": 0.2857140000000058,
          "durationTicks": 96,
          "midi": 64,
          "name": "E4",
          "ticks": 14016,
          "time": 41.714244,
          "velocity": 0.7559055118110236
        },
        {
          "duration": 0.2857139999999987,
          "durationTicks": 96,
          "midi": 65,
          "name": "F4",
          "ticks": 14112,
          "time": 41.99995800000001,
          "velocity": 0.7559055118110236
        },
        {
          "duration": 0.2857139999999987,
          "durationTicks": 96,
          "midi": 64,
          "name": "E4",
          "ticks": 14208,
          "time": 42.285672000000005,
          "velocity": 0.7559055118110236
        },
        {
          "duration": 0.14285699999999935,
          "durationTicks": 48,
          "midi": 65,
          "name": "F4",
          "ticks": 14304,
          "time": 42.571386000000004,
          "velocity": 0.7559055118110236
        },
        {
          "duration": 0.42857099999999804,
          "durationTicks": 144,
          "midi": 64,
          "name": "E4",
          "ticks": 14352,
          "time": 42.714243,
          "velocity": 0.7559055118110236
        },
        {
          "duration": 0.2857139999999987,
          "durationTicks": 96,
          "midi": 65,
          "name": "F4",
          "ticks": 14496,
          "time": 43.142814,
          "velocity": 0.7559055118110236
        },
        {
          "duration": 0.5714280000000045,
          "durationTicks": 192,
          "midi": 58,
          "name": "A#3",
          "ticks": 14592,
          "time": 43.428528,
          "velocity": 0.7559055118110236
        },
        {
          "duration": 0.2857139999999987,
          "durationTicks": 96,
          "midi": 58,
          "name": "A#3",
          "ticks": 14784,
          "time": 43.999956000000005,
          "velocity": 0.7559055118110236
        },
        {
          "duration": 0.2857139999999987,
          "durationTicks": 96,
          "midi": 60,
          "name": "C4",
          "ticks": 14880,
          "time": 44.28567,
          "velocity": 0.7559055118110236
        },
        {
          "duration": 0.14285699999999935,
          "durationTicks": 48,
          "midi": 62,
          "name": "D4",
          "ticks": 14976,
          "time": 44.571384,
          "velocity": 0.7559055118110236
        },
        {
          "duration": 0.42857100000000514,
          "durationTicks": 144,
          "midi": 62,
          "name": "D4",
          "ticks": 15024,
          "time": 44.714241,
          "velocity": 0.7559055118110236
        },
        {
          "duration": 0.2857139999999987,
          "durationTicks": 96,
          "midi": 64,
          "name": "E4",
          "ticks": 15168,
          "time": 45.142812000000006,
          "velocity": 0.7559055118110236
        },
        {
          "duration": 0.2857139999999987,
          "durationTicks": 96,
          "midi": 65,
          "name": "F4",
          "ticks": 15264,
          "time": 45.428526000000005,
          "velocity": 0.7559055118110236
        },
        {
          "duration": 0.0029761874999962856,
          "durationTicks": 1,
          "midi": 65,
          "name": "F4",
          "ticks": 15360,
          "time": 45.714240000000004,
          "velocity": 0.7559055118110236
        },
        {
          "duration": 0.14285699999999935,
          "durationTicks": 48,
          "midi": 64,
          "name": "E4",
          "ticks": 15504,
          "time": 46.142811,
          "velocity": 0.7559055118110236
        },
        {
          "duration": 2.2857120000000037,
          "durationTicks": 768,
          "midi": 64,
          "name": "E4",
          "ticks": 15552,
          "time": 46.285668,
          "velocity": 0.7559055118110236
        },
        {
          "duration": 0.2857139999999987,
          "durationTicks": 96,
          "midi": 65,
          "name": "F4",
          "ticks": 16320,
          "time": 48.571380000000005,
          "velocity": 0.7559055118110236
        },
        {
          "duration": 0.2857139999999987,
          "durationTicks": 96,
          "midi": 65,
          "name": "F4",
          "ticks": 16416,
          "time": 48.857094000000004,
          "velocity": 0.7559055118110236
        },
        {
          "duration": 0.14285699999999935,
          "durationTicks": 48,
          "midi": 64,
          "name": "E4",
          "ticks": 16512,
          "time": 49.142808,
          "velocity": 0.7559055118110236
        },
        {
          "duration": 0.2857140000000058,
          "durationTicks": 96,
          "midi": 62,
          "name": "D4",
          "ticks": 16560,
          "time": 49.285665,
          "velocity": 0.7559055118110236
        },
        {
          "duration": 0.42857099999999804,
          "durationTicks": 144,
          "midi": 60,
          "name": "C4",
          "ticks": 16656,
          "time": 49.57137900000001,
          "velocity": 0.7559055118110236
        },
        {
          "duration": 0.2857139999999987,
          "durationTicks": 96,
          "midi": 62,
          "name": "D4",
          "ticks": 16800,
          "time": 49.999950000000005,
          "velocity": 0.7559055118110236
        },
        {
          "duration": 0.5714279999999974,
          "durationTicks": 192,
          "midi": 60,
          "name": "C4",
          "ticks": 16896,
          "time": 50.285664000000004,
          "velocity": 0.7559055118110236
        },
        {
          "duration": 0.14285699999999935,
          "durationTicks": 48,
          "midi": 64,
          "name": "E4",
          "ticks": 17088,
          "time": 50.857092,
          "velocity": 0.7559055118110236
        },
        {
          "duration": 0.2857140000000058,
          "durationTicks": 96,
          "midi": 65,
          "name": "F4",
          "ticks": 17136,
          "time": 50.999949,
          "velocity": 0.7559055118110236
        },
        {
          "duration": 0.42857099999999804,
          "durationTicks": 144,
          "midi": 64,
          "name": "E4",
          "ticks": 17232,
          "time": 51.28566300000001,
          "velocity": 0.7559055118110236
        },
        {
          "duration": 0.2857139999999987,
          "durationTicks": 96,
          "midi": 65,
          "name": "F4",
          "ticks": 17376,
          "time": 51.714234000000005,
          "velocity": 0.7559055118110236
        },
        {
          "duration": 0.2857139999999987,
          "durationTicks": 96,
          "midi": 64,
          "name": "E4",
          "ticks": 17472,
          "time": 51.999948,
          "velocity": 0.7559055118110236
        },
        {
          "duration": 0.2857139999999987,
          "durationTicks": 96,
          "midi": 65,
          "name": "F4",
          "ticks": 17568,
          "time": 52.285662,
          "velocity": 0.7559055118110236
        },
        {
          "duration": 0.2857140000000058,
          "durationTicks": 96,
          "midi": 64,
          "name": "E4",
          "ticks": 17664,
          "time": 52.571376,
          "velocity": 0.7559055118110236
        },
        {
          "duration": 0.14285699999999935,
          "durationTicks": 48,
          "midi": 62,
          "name": "D4",
          "ticks": 17760,
          "time": 52.85709000000001,
          "velocity": 0.7559055118110236
        },
        {
          "duration": 0.5714279999999974,
          "durationTicks": 192,
          "midi": 62,
          "name": "D4",
          "ticks": 17808,
          "time": 52.999947000000006,
          "velocity": 0.7559055118110236
        },
        {
          "duration": 0.14285699999999935,
          "durationTicks": 48,
          "midi": 62,
          "name": "D4",
          "ticks": 18000,
          "time": 53.571375,
          "velocity": 0.7559055118110236
        },
        {
          "duration": 0.2857139999999987,
          "durationTicks": 96,
          "midi": 67,
          "name": "G4",
          "ticks": 18048,
          "time": 53.714232,
          "velocity": 0.7559055118110236
        },
        {
          "duration": 0.2857140000000058,
          "durationTicks": 96,
          "midi": 65,
          "name": "F4",
          "ticks": 18144,
          "time": 53.999946,
          "velocity": 0.7559055118110236
        },
        {
          "duration": 0.2857139999999987,
          "durationTicks": 96,
          "midi": 64,
          "name": "E4",
          "ticks": 18240,
          "time": 54.28566000000001,
          "velocity": 0.7559055118110236
        },
        {
          "duration": 0.2857139999999987,
          "durationTicks": 96,
          "midi": 62,
          "name": "D4",
          "ticks": 18336,
          "time": 54.571374000000006,
          "velocity": 0.7559055118110236
        },
        {
          "duration": 0.14285699999999935,
          "durationTicks": 48,
          "midi": 65,
          "name": "F4",
          "ticks": 18432,
          "time": 54.857088000000005,
          "velocity": 0.7559055118110236
        },
        {
          "duration": 0.14285699999999935,
          "durationTicks": 48,
          "midi": 64,
          "name": "E4",
          "ticks": 18480,
          "time": 54.999945000000004,
          "velocity": 0.7559055118110236
        },
        {
          "duration": 0.14285699999999935,
          "durationTicks": 48,
          "midi": 62,
          "name": "D4",
          "ticks": 18528,
          "time": 55.142802,
          "velocity": 0.7559055118110236
        },
        {
          "duration": 0.8571420000000032,
          "durationTicks": 288,
          "midi": 64,
          "name": "E4",
          "ticks": 18576,
          "time": 55.285659,
          "velocity": 0.7559055118110236
        },
        {
          "duration": 0.14285699999999935,
          "durationTicks": 48,
          "midi": 64,
          "name": "E4",
          "ticks": 18864,
          "time": 56.142801000000006,
          "velocity": 0.7559055118110236
        },
        {
          "duration": 0.14285699999999935,
          "durationTicks": 48,
          "midi": 64,
          "name": "E4",
          "ticks": 18912,
          "time": 56.285658000000005,
          "velocity": 0.7559055118110236
        },
        {
          "duration": 0.14285699999999935,
          "durationTicks": 48,
          "midi": 64,
          "name": "E4",
          "ticks": 18960,
          "time": 56.428515000000004,
          "velocity": 0.7559055118110236
        },
        {
          "duration": 0.14285699999999935,
          "durationTicks": 48,
          "midi": 65,
          "name": "F4",
          "ticks": 19008,
          "time": 56.571372000000004,
          "velocity": 0.7559055118110236
        },
        {
          "duration": 0.14285699999999935,
          "durationTicks": 48,
          "midi": 64,
          "name": "E4",
          "ticks": 19056,
          "time": 56.714229,
          "velocity": 0.7559055118110236
        },
        {
          "duration": 0.14285699999999935,
          "durationTicks": 48,
          "midi": 60,
          "name": "C4",
          "ticks": 19104,
          "time": 56.857086,
          "velocity": 0.7559055118110236
        },
        {
          "duration": 0.14285700000000645,
          "durationTicks": 48,
          "midi": 62,
          "name": "D4",
          "ticks": 19152,
          "time": 56.999943,
          "velocity": 0.7559055118110236
        },
        {
          "duration": 0.2857139999999987,
          "durationTicks": 96,
          "midi": 65,
          "name": "F4",
          "ticks": 19488,
          "time": 57.999942000000004,
          "velocity": 0.7559055118110236
        },
        {
          "duration": 0.14285699999999935,
          "durationTicks": 48,
          "midi": 65,
          "name": "F4",
          "ticks": 19584,
          "time": 58.285656,
          "velocity": 0.7559055118110236
        },
        {
          "duration": 0.42857100000000514,
          "durationTicks": 144,
          "midi": 58,
          "name": "A#3",
          "ticks": 19632,
          "time": 58.428513,
          "velocity": 0.7559055118110236
        },
        {
          "duration": 0.14285699999999935,
          "durationTicks": 48,
          "midi": 65,
          "name": "F4",
          "ticks": 19776,
          "time": 58.85708400000001,
          "velocity": 0.7559055118110236
        },
        {
          "duration": 0.14285699999999935,
          "durationTicks": 48,
          "midi": 64,
          "name": "E4",
          "ticks": 19824,
          "time": 58.99994100000001,
          "velocity": 0.7559055118110236
        },
        {
          "duration": 0.14285699999999935,
          "durationTicks": 48,
          "midi": 62,
          "name": "D4",
          "ticks": 19872,
          "time": 59.142798000000006,
          "velocity": 0.7559055118110236
        },
        {
          "duration": 0.14285699999999935,
          "durationTicks": 48,
          "midi": 64,
          "name": "E4",
          "ticks": 19920,
          "time": 59.285655000000006,
          "velocity": 0.7559055118110236
        },
        {
          "duration": 0.2857139999999987,
          "durationTicks": 96,
          "midi": 64,
          "name": "E4",
          "ticks": 20256,
          "time": 60.28565400000001,
          "velocity": 0.7559055118110236
        },
        {
          "duration": 0.14285699999999935,
          "durationTicks": 48,
          "midi": 64,
          "name": "E4",
          "ticks": 20352,
          "time": 60.57136800000001,
          "velocity": 0.7559055118110236
        },
        {
          "duration": 0.42857099999999804,
          "durationTicks": 144,
          "midi": 57,
          "name": "A3",
          "ticks": 20400,
          "time": 60.714225000000006,
          "velocity": 0.7559055118110236
        },
        {
          "duration": 0.14285699999999935,
          "durationTicks": 48,
          "midi": 57,
          "name": "A3",
          "ticks": 20544,
          "time": 61.142796000000004,
          "velocity": 0.7559055118110236
        },
        {
          "duration": 0.14285699999999935,
          "durationTicks": 48,
          "midi": 57,
          "name": "A3",
          "ticks": 20592,
          "time": 61.285653,
          "velocity": 0.7559055118110236
        },
        {
          "duration": 0.14285699999999935,
          "durationTicks": 48,
          "midi": 57,
          "name": "A3",
          "ticks": 20640,
          "time": 61.42851,
          "velocity": 0.7559055118110236
        },
        {
          "duration": 0.14285699999999935,
          "durationTicks": 48,
          "midi": 58,
          "name": "A#3",
          "ticks": 20688,
          "time": 61.571367,
          "velocity": 0.7559055118110236
        },
        {
          "duration": 0.42857099999999804,
          "durationTicks": 144,
          "midi": 65,
          "name": "F4",
          "ticks": 20928,
          "time": 62.285652000000006,
          "velocity": 0.7559055118110236
        },
        {
          "duration": 0.14285699999999935,
          "durationTicks": 48,
          "midi": 64,
          "name": "E4",
          "ticks": 21072,
          "time": 62.714223000000004,
          "velocity": 0.7559055118110236
        },
        {
          "duration": 0.2857139999999987,
          "durationTicks": 96,
          "midi": 62,
          "name": "D4",
          "ticks": 21120,
          "time": 62.85708,
          "velocity": 0.7559055118110236
        },
        {
          "duration": 0.2857140000000058,
          "durationTicks": 96,
          "midi": 64,
          "name": "E4",
          "ticks": 21216,
          "time": 63.142794,
          "velocity": 0.7559055118110236
        },
        {
          "duration": 0.2857139999999987,
          "durationTicks": 96,
          "midi": 65,
          "name": "F4",
          "ticks": 21312,
          "time": 63.42850800000001,
          "velocity": 0.7559055118110236
        },
        {
          "duration": 0.14285699999999935,
          "durationTicks": 48,
          "midi": 62,
          "name": "D4",
          "ticks": 21408,
          "time": 63.71422200000001,
          "velocity": 0.7559055118110236
        },
        {
          "duration": 0.14285699999999935,
          "durationTicks": 48,
          "midi": 64,
          "name": "E4",
          "ticks": 21456,
          "time": 63.857079000000006,
          "velocity": 0.7559055118110236
        },
        {
          "duration": 0.14285699999999224,
          "durationTicks": 48,
          "midi": 65,
          "name": "F4",
          "ticks": 22080,
          "time": 65.71422000000001,
          "velocity": 0.7559055118110236
        },
        {
          "duration": 0.14285700000000645,
          "durationTicks": 48,
          "midi": 64,
          "name": "E4",
          "ticks": 22128,
          "time": 65.857077,
          "velocity": 0.7559055118110236
        },
        {
          "duration": 0.14285699999999224,
          "durationTicks": 48,
          "midi": 60,
          "name": "C4",
          "ticks": 22176,
          "time": 65.99993400000001,
          "velocity": 0.7559055118110236
        },
        {
          "duration": 0.14285700000000645,
          "durationTicks": 48,
          "midi": 62,
          "name": "D4",
          "ticks": 22224,
          "time": 66.142791,
          "velocity": 0.7559055118110236
        },
        {
          "duration": 0.2857139999999987,
          "durationTicks": 96,
          "midi": 69,
          "name": "A4",
          "ticks": 22560,
          "time": 67.14279,
          "velocity": 0.7559055118110236
        },
        {
          "duration": 0.14285700000000645,
          "durationTicks": 48,
          "midi": 70,
          "name": "A#4",
          "ticks": 22656,
          "time": 67.428504,
          "velocity": 0.7559055118110236
        },
        {
          "duration": 0.42857099999999093,
          "durationTicks": 144,
          "midi": 62,
          "name": "D4",
          "ticks": 22704,
          "time": 67.57136100000001,
          "velocity": 0.7559055118110236
        },
        {
          "duration": 0.2857139999999987,
          "durationTicks": 96,
          "midi": 65,
          "name": "F4",
          "ticks": 22848,
          "time": 67.999932,
          "velocity": 0.7559055118110236
        },
        {
          "duration": 0.14285700000000645,
          "durationTicks": 48,
          "midi": 64,
          "name": "E4",
          "ticks": 22944,
          "time": 68.285646,
          "velocity": 0.7559055118110236
        },
        {
          "duration": 0.42857100000000514,
          "durationTicks": 144,
          "midi": 60,
          "name": "C4",
          "ticks": 22992,
          "time": 68.428503,
          "velocity": 0.7559055118110236
        },
        {
          "duration": 0.2857139999999987,
          "durationTicks": 96,
          "midi": 64,
          "name": "E4",
          "ticks": 23136,
          "time": 68.85707400000001,
          "velocity": 0.7559055118110236
        },
        {
          "duration": 0.2857139999999987,
          "durationTicks": 96,
          "midi": 65,
          "name": "F4",
          "ticks": 23232,
          "time": 69.14278800000001,
          "velocity": 0.7559055118110236
        },
        {
          "duration": 0.2857139999999987,
          "durationTicks": 96,
          "midi": 67,
          "name": "G4",
          "ticks": 23328,
          "time": 69.42850200000001,
          "velocity": 0.7559055118110236
        },
        {
          "duration": 0.5714279999999974,
          "durationTicks": 192,
          "midi": 60,
          "name": "C4",
          "ticks": 23424,
          "time": 69.71421600000001,
          "velocity": 0.7559055118110236
        },
        {
          "duration": 0.2857139999999987,
          "durationTicks": 96,
          "midi": 60,
          "name": "C4",
          "ticks": 23616,
          "time": 70.285644,
          "velocity": 0.7559055118110236
        },
        {
          "duration": 0.14285700000000645,
          "durationTicks": 48,
          "midi": 64,
          "name": "E4",
          "ticks": 23712,
          "time": 70.571358,
          "velocity": 0.7559055118110236
        },
        {
          "duration": 0.42857099999999093,
          "durationTicks": 144,
          "midi": 65,
          "name": "F4",
          "ticks": 23760,
          "time": 70.71421500000001,
          "velocity": 0.7559055118110236
        },
        {
          "duration": 0.2857139999999987,
          "durationTicks": 96,
          "midi": 62,
          "name": "D4",
          "ticks": 23904,
          "time": 71.142786,
          "velocity": 0.7559055118110236
        },
        {
          "duration": 0.2857140000000129,
          "durationTicks": 96,
          "midi": 62,
          "name": "D4",
          "ticks": 24000,
          "time": 71.4285,
          "velocity": 0.7559055118110236
        },
        {
          "duration": 0.2857139999999987,
          "durationTicks": 96,
          "midi": 64,
          "name": "E4",
          "ticks": 24096,
          "time": 71.71421400000001,
          "velocity": 0.7559055118110236
        },
        {
          "duration": 0.42857099999999093,
          "durationTicks": 144,
          "midi": 65,
          "name": "F4",
          "ticks": 24192,
          "time": 71.99992800000001,
          "velocity": 0.7559055118110236
        },
        {
          "duration": 0.42857100000000514,
          "durationTicks": 144,
          "midi": 64,
          "name": "E4",
          "ticks": 24336,
          "time": 72.428499,
          "velocity": 0.7559055118110236
        },
        {
          "duration": 0.2857139999999987,
          "durationTicks": 96,
          "midi": 62,
          "name": "D4",
          "ticks": 24480,
          "time": 72.85707000000001,
          "velocity": 0.7559055118110236
        },
        {
          "duration": 1.2857130000000012,
          "durationTicks": 432,
          "midi": 64,
          "name": "E4",
          "ticks": 24576,
          "time": 73.142784,
          "velocity": 0.7559055118110236
        },
        {
          "duration": 0.14285699999999224,
          "durationTicks": 48,
          "midi": 64,
          "name": "E4",
          "ticks": 25008,
          "time": 74.42849700000001,
          "velocity": 0.7559055118110236
        },
        {
          "duration": 0.14285700000000645,
          "durationTicks": 48,
          "midi": 64,
          "name": "E4",
          "ticks": 25056,
          "time": 74.571354,
          "velocity": 0.7559055118110236
        },
        {
          "duration": 0.14285700000000645,
          "durationTicks": 48,
          "midi": 64,
          "name": "E4",
          "ticks": 25104,
          "time": 74.714211,
          "velocity": 0.7559055118110236
        },
        {
          "duration": 0.14285699999999224,
          "durationTicks": 48,
          "midi": 65,
          "name": "F4",
          "ticks": 25152,
          "time": 74.85706800000001,
          "velocity": 0.7559055118110236
        },
        {
          "duration": 0.14285700000000645,
          "durationTicks": 48,
          "midi": 64,
          "name": "E4",
          "ticks": 25200,
          "time": 74.999925,
          "velocity": 0.7559055118110236
        },
        {
          "duration": 0.14285699999999224,
          "durationTicks": 48,
          "midi": 60,
          "name": "C4",
          "ticks": 25248,
          "time": 75.14278200000001,
          "velocity": 0.7559055118110236
        },
        {
          "duration": 0.14285700000000645,
          "durationTicks": 48,
          "midi": 62,
          "name": "D4",
          "ticks": 25296,
          "time": 75.285639,
          "velocity": 0.7559055118110236
        },
        {
          "duration": 0.2857139999999987,
          "durationTicks": 96,
          "midi": 65,
          "name": "F4",
          "ticks": 25632,
          "time": 76.285638,
          "velocity": 0.7559055118110236
        },
        {
          "duration": 0.14285700000000645,
          "durationTicks": 48,
          "midi": 65,
          "name": "F4",
          "ticks": 25728,
          "time": 76.571352,
          "velocity": 0.7559055118110236
        },
        {
          "duration": 0.42857099999999093,
          "durationTicks": 144,
          "midi": 58,
          "name": "A#3",
          "ticks": 25776,
          "time": 76.71420900000001,
          "velocity": 0.7559055118110236
        },
        {
          "duration": 0.14285700000000645,
          "durationTicks": 48,
          "midi": 65,
          "name": "F4",
          "ticks": 25920,
          "time": 77.14278,
          "velocity": 0.7559055118110236
        },
        {
          "duration": 0.14285699999999224,
          "durationTicks": 48,
          "midi": 64,
          "name": "E4",
          "ticks": 25968,
          "time": 77.28563700000001,
          "velocity": 0.7559055118110236
        },
        {
          "duration": 0.14285700000000645,
          "durationTicks": 48,
          "midi": 62,
          "name": "D4",
          "ticks": 26016,
          "time": 77.428494,
          "velocity": 0.7559055118110236
        },
        {
          "duration": 0.14285700000000645,
          "durationTicks": 48,
          "midi": 64,
          "name": "E4",
          "ticks": 26064,
          "time": 77.571351,
          "velocity": 0.7559055118110236
        },
        {
          "duration": 0.2857139999999987,
          "durationTicks": 96,
          "midi": 64,
          "name": "E4",
          "ticks": 26400,
          "time": 78.57135000000001,
          "velocity": 0.7559055118110236
        },
        {
          "duration": 0.14285699999999224,
          "durationTicks": 48,
          "midi": 64,
          "name": "E4",
          "ticks": 26496,
          "time": 78.85706400000001,
          "velocity": 0.7559055118110236
        },
        {
          "duration": 0.42857100000000514,
          "durationTicks": 144,
          "midi": 57,
          "name": "A3",
          "ticks": 26544,
          "time": 78.999921,
          "velocity": 0.7559055118110236
        },
        {
          "duration": 0.14285700000000645,
          "durationTicks": 48,
          "midi": 57,
          "name": "A3",
          "ticks": 26688,
          "time": 79.428492,
          "velocity": 0.7559055118110236
        },
        {
          "duration": 0.14285699999999224,
          "durationTicks": 48,
          "midi": 57,
          "name": "A3",
          "ticks": 26736,
          "time": 79.57134900000001,
          "velocity": 0.7559055118110236
        },
        {
          "duration": 0.14285700000000645,
          "durationTicks": 48,
          "midi": 57,
          "name": "A3",
          "ticks": 26784,
          "time": 79.714206,
          "velocity": 0.7559055118110236
        },
        {
          "duration": 0.14285699999999224,
          "durationTicks": 48,
          "midi": 58,
          "name": "A#3",
          "ticks": 26832,
          "time": 79.85706300000001,
          "velocity": 0.7559055118110236
        },
        {
          "duration": 0.42857100000000514,
          "durationTicks": 144,
          "midi": 65,
          "name": "F4",
          "ticks": 27072,
          "time": 80.571348,
          "velocity": 0.7559055118110236
        },
        {
          "duration": 0.14285700000000645,
          "durationTicks": 48,
          "midi": 64,
          "name": "E4",
          "ticks": 27216,
          "time": 80.999919,
          "velocity": 0.7559055118110236
        },
        {
          "duration": 0.2857139999999987,
          "durationTicks": 96,
          "midi": 62,
          "name": "D4",
          "ticks": 27264,
          "time": 81.14277600000001,
          "velocity": 0.7559055118110236
        },
        {
          "duration": 0.2857139999999987,
          "durationTicks": 96,
          "midi": 64,
          "name": "E4",
          "ticks": 27360,
          "time": 81.42849000000001,
          "velocity": 0.7559055118110236
        },
        {
          "duration": 0.2857139999999987,
          "durationTicks": 96,
          "midi": 65,
          "name": "F4",
          "ticks": 27456,
          "time": 81.71420400000001,
          "velocity": 0.7559055118110236
        },
        {
          "duration": 0.14285699999999224,
          "durationTicks": 48,
          "midi": 62,
          "name": "D4",
          "ticks": 27552,
          "time": 81.99991800000001,
          "velocity": 0.7559055118110236
        },
        {
          "duration": 0.14285700000000645,
          "durationTicks": 48,
          "midi": 64,
          "name": "E4",
          "ticks": 27600,
          "time": 82.142775,
          "velocity": 0.7559055118110236
        },
        {
          "duration": 0.14285699999999224,
          "durationTicks": 48,
          "midi": 65,
          "name": "F4",
          "ticks": 28224,
          "time": 83.99991600000001,
          "velocity": 0.7559055118110236
        },
        {
          "duration": 0.14285700000000645,
          "durationTicks": 48,
          "midi": 64,
          "name": "E4",
          "ticks": 28272,
          "time": 84.142773,
          "velocity": 0.7559055118110236
        },
        {
          "duration": 0.14285699999999224,
          "durationTicks": 48,
          "midi": 60,
          "name": "C4",
          "ticks": 28320,
          "time": 84.28563000000001,
          "velocity": 0.7559055118110236
        },
        {
          "duration": 0.14285700000000645,
          "durationTicks": 48,
          "midi": 62,
          "name": "D4",
          "ticks": 28368,
          "time": 84.428487,
          "velocity": 0.7559055118110236
        },
        {
          "duration": 0.2857139999999987,
          "durationTicks": 96,
          "midi": 69,
          "name": "A4",
          "ticks": 28704,
          "time": 85.428486,
          "velocity": 0.7559055118110236
        },
        {
          "duration": 0.14285700000000645,
          "durationTicks": 48,
          "midi": 70,
          "name": "A#4",
          "ticks": 28800,
          "time": 85.7142,
          "velocity": 0.7559055118110236
        },
        {
          "duration": 0.42857099999999093,
          "durationTicks": 144,
          "midi": 62,
          "name": "D4",
          "ticks": 28848,
          "time": 85.85705700000001,
          "velocity": 0.7559055118110236
        },
        {
          "duration": 0.2857139999999987,
          "durationTicks": 96,
          "midi": 65,
          "name": "F4",
          "ticks": 28992,
          "time": 86.285628,
          "velocity": 0.7559055118110236
        },
        {
          "duration": 0.14285700000000645,
          "durationTicks": 48,
          "midi": 64,
          "name": "E4",
          "ticks": 29088,
          "time": 86.571342,
          "velocity": 0.7559055118110236
        },
        {
          "duration": 0.42857100000000514,
          "durationTicks": 144,
          "midi": 60,
          "name": "C4",
          "ticks": 29136,
          "time": 86.71419900000001,
          "velocity": 0.7559055118110236
        },
        {
          "duration": 0.2857139999999987,
          "durationTicks": 96,
          "midi": 64,
          "name": "E4",
          "ticks": 29280,
          "time": 87.14277000000001,
          "velocity": 0.7559055118110236
        },
        {
          "duration": 0.2857139999999987,
          "durationTicks": 96,
          "midi": 65,
          "name": "F4",
          "ticks": 29376,
          "time": 87.42848400000001,
          "velocity": 0.7559055118110236
        },
        {
          "duration": 0.2857139999999987,
          "durationTicks": 96,
          "midi": 67,
          "name": "G4",
          "ticks": 29472,
          "time": 87.71419800000001,
          "velocity": 0.7559055118110236
        },
        {
          "duration": 0.5714279999999974,
          "durationTicks": 192,
          "midi": 60,
          "name": "C4",
          "ticks": 29568,
          "time": 87.99991200000001,
          "velocity": 0.7559055118110236
        },
        {
          "duration": 0.2857139999999987,
          "durationTicks": 96,
          "midi": 60,
          "name": "C4",
          "ticks": 29760,
          "time": 88.57134,
          "velocity": 0.7559055118110236
        },
        {
          "duration": 0.14285700000000645,
          "durationTicks": 48,
          "midi": 64,
          "name": "E4",
          "ticks": 29856,
          "time": 88.857054,
          "velocity": 0.7559055118110236
        },
        {
          "duration": 0.42857099999999093,
          "durationTicks": 144,
          "midi": 65,
          "name": "F4",
          "ticks": 29904,
          "time": 88.99991100000001,
          "velocity": 0.7559055118110236
        },
        {
          "duration": 0.2857139999999987,
          "durationTicks": 96,
          "midi": 62,
          "name": "D4",
          "ticks": 30048,
          "time": 89.428482,
          "velocity": 0.7559055118110236
        },
        {
          "duration": 0.2857140000000129,
          "durationTicks": 96,
          "midi": 62,
          "name": "D4",
          "ticks": 30144,
          "time": 89.714196,
          "velocity": 0.7559055118110236
        },
        {
          "duration": 0.2857139999999987,
          "durationTicks": 96,
          "midi": 64,
          "name": "E4",
          "ticks": 30240,
          "time": 89.99991000000001,
          "velocity": 0.7559055118110236
        },
        {
          "duration": 0.42857099999999093,
          "durationTicks": 144,
          "midi": 65,
          "name": "F4",
          "ticks": 30336,
          "time": 90.28562400000001,
          "velocity": 0.7559055118110236
        },
        {
          "duration": 0.42857100000000514,
          "durationTicks": 144,
          "midi": 64,
          "name": "E4",
          "ticks": 30480,
          "time": 90.714195,
          "velocity": 0.7559055118110236
        },
        {
          "duration": 0.2857139999999987,
          "durationTicks": 96,
          "midi": 62,
          "name": "D4",
          "ticks": 30624,
          "time": 91.14276600000001,
          "velocity": 0.7559055118110236
        },
        {
          "duration": 1.7142840000000064,
          "durationTicks": 576,
          "midi": 64,
          "name": "E4",
          "ticks": 30720,
          "time": 91.42848000000001,
          "velocity": 0.7559055118110236
        },
        {
          "duration": 0.2857139999999987,
          "durationTicks": 96,
          "midi": 65,
          "name": "F4",
          "ticks": 37824,
          "time": 112.57131600000001,
          "velocity": 0.7559055118110236
        },
        {
          "duration": 0.2857139999999987,
          "durationTicks": 96,
          "midi": 65,
          "name": "F4",
          "ticks": 37920,
          "time": 112.85703000000001,
          "velocity": 0.7559055118110236
        },
        {
          "duration": 0.2857139999999987,
          "durationTicks": 96,
          "midi": 67,
          "name": "G4",
          "ticks": 38016,
          "time": 113.14274400000001,
          "velocity": 0.7559055118110236
        },
        {
          "duration": 0.2857139999999987,
          "durationTicks": 96,
          "midi": 65,
          "name": "F4",
          "ticks": 38112,
          "time": 113.428458,
          "velocity": 0.7559055118110236
        },
        {
          "duration": 0.14285700000000645,
          "durationTicks": 48,
          "midi": 64,
          "name": "E4",
          "ticks": 38208,
          "time": 113.714172,
          "velocity": 0.7559055118110236
        },
        {
          "duration": 0.2857139999999987,
          "durationTicks": 96,
          "midi": 62,
          "name": "D4",
          "ticks": 38256,
          "time": 113.85702900000001,
          "velocity": 0.7559055118110236
        },
        {
          "duration": 0.7142850000000038,
          "durationTicks": 240,
          "midi": 62,
          "name": "D4",
          "ticks": 38352,
          "time": 114.14274300000001,
          "velocity": 0.7559055118110236
        },
        {
          "duration": 0.2857139999999987,
          "durationTicks": 96,
          "midi": 65,
          "name": "F4",
          "ticks": 38592,
          "time": 114.85702800000001,
          "velocity": 0.7559055118110236
        },
        {
          "duration": 0.2857139999999987,
          "durationTicks": 96,
          "midi": 65,
          "name": "F4",
          "ticks": 38688,
          "time": 115.14274200000001,
          "velocity": 0.7559055118110236
        },
        {
          "duration": 0.14285699999999224,
          "durationTicks": 48,
          "midi": 67,
          "name": "G4",
          "ticks": 38784,
          "time": 115.42845600000001,
          "velocity": 0.7559055118110236
        },
        {
          "duration": 0.2857140000000129,
          "durationTicks": 96,
          "midi": 65,
          "name": "F4",
          "ticks": 38832,
          "time": 115.571313,
          "velocity": 0.7559055118110236
        },
        {
          "duration": 0.42857099999999093,
          "durationTicks": 144,
          "midi": 64,
          "name": "E4",
          "ticks": 38928,
          "time": 115.85702700000002,
          "velocity": 0.7559055118110236
        },
        {
          "duration": 0.2857139999999987,
          "durationTicks": 96,
          "midi": 65,
          "name": "F4",
          "ticks": 39072,
          "time": 116.28559800000001,
          "velocity": 0.7559055118110236
        },
        {
          "duration": 0.0029761875000104965,
          "durationTicks": 1,
          "midi": 65,
          "name": "F4",
          "ticks": 39168,
          "time": 116.571312,
          "velocity": 0.7559055118110236
        },
        {
          "duration": 0.2857139999999987,
          "durationTicks": 96,
          "midi": 64,
          "name": "E4",
          "ticks": 39264,
          "time": 116.857026,
          "velocity": 0.7559055118110236
        },
        {
          "duration": 0.14285700000000645,
          "durationTicks": 48,
          "midi": 64,
          "name": "E4",
          "ticks": 39360,
          "time": 117.14274,
          "velocity": 0.7559055118110236
        },
        {
          "duration": 0.2857139999999987,
          "durationTicks": 96,
          "midi": 62,
          "name": "D4",
          "ticks": 39408,
          "time": 117.28559700000001,
          "velocity": 0.7559055118110236
        },
        {
          "duration": 0.42857100000000514,
          "durationTicks": 144,
          "midi": 62,
          "name": "D4",
          "ticks": 39504,
          "time": 117.57131100000001,
          "velocity": 0.7559055118110236
        },
        {
          "duration": 0.2857139999999987,
          "durationTicks": 96,
          "midi": 60,
          "name": "C4",
          "ticks": 39648,
          "time": 117.99988200000001,
          "velocity": 0.7559055118110236
        },
        {
          "duration": 0.14285699999999224,
          "durationTicks": 48,
          "midi": 60,
          "name": "C4",
          "ticks": 39744,
          "time": 118.28559600000001,
          "velocity": 0.7559055118110236
        },
        {
          "duration": 0.42857100000000514,
          "durationTicks": 144,
          "midi": 58,
          "name": "A#3",
          "ticks": 39792,
          "time": 118.428453,
          "velocity": 0.7559055118110236
        },
        {
          "duration": 2.857140000000001,
          "durationTicks": 960,
          "midi": 57,
          "name": "A3",
          "ticks": 39936,
          "time": 118.85702400000001,
          "velocity": 0.7559055118110236
        },
        {
          "duration": 0.14285699999999224,
          "durationTicks": 48,
          "midi": 65,
          "name": "F4",
          "ticks": 40896,
          "time": 121.71416400000001,
          "velocity": 0.7559055118110236
        },
        {
          "duration": 0.2857140000000129,
          "durationTicks": 96,
          "midi": 65,
          "name": "F4",
          "ticks": 40944,
          "time": 121.857021,
          "velocity": 0.7559055118110236
        },
        {
          "duration": 0.42857099999999093,
          "durationTicks": 144,
          "midi": 67,
          "name": "G4",
          "ticks": 41040,
          "time": 122.14273500000002,
          "velocity": 0.7559055118110236
        },
        {
          "duration": 0.2857139999999987,
          "durationTicks": 96,
          "midi": 65,
          "name": "F4",
          "ticks": 41184,
          "time": 122.571306,
          "velocity": 0.7559055118110236
        },
        {
          "duration": 0.2857139999999987,
          "durationTicks": 96,
          "midi": 64,
          "name": "E4",
          "ticks": 41280,
          "time": 122.85702,
          "velocity": 0.7559055118110236
        },
        {
          "duration": 0.2857139999999987,
          "durationTicks": 96,
          "midi": 62,
          "name": "D4",
          "ticks": 41376,
          "time": 123.142734,
          "velocity": 0.7559055118110236
        },
        {
          "duration": 0.0029761875000104965,
          "durationTicks": 1,
          "midi": 62,
          "name": "D4",
          "ticks": 41472,
          "time": 123.428448,
          "velocity": 0.7559055118110236
        },
        {
          "duration": 0.0029761875000104965,
          "durationTicks": 1,
          "midi": 62,
          "name": "D4",
          "ticks": 41616,
          "time": 123.85701900000001,
          "velocity": 0.7559055118110236
        },
        {
          "duration": 0.14285699999999224,
          "durationTicks": 48,
          "midi": 65,
          "name": "F4",
          "ticks": 41664,
          "time": 123.99987600000001,
          "velocity": 0.7559055118110236
        },
        {
          "duration": 0.2857139999999987,
          "durationTicks": 96,
          "midi": 65,
          "name": "F4",
          "ticks": 41712,
          "time": 124.142733,
          "velocity": 0.7559055118110236
        },
        {
          "duration": 0.42857100000000514,
          "durationTicks": 144,
          "midi": 67,
          "name": "G4",
          "ticks": 41808,
          "time": 124.428447,
          "velocity": 0.7559055118110236
        },
        {
          "duration": 0.2857139999999987,
          "durationTicks": 96,
          "midi": 65,
          "name": "F4",
          "ticks": 41952,
          "time": 124.85701800000001,
          "velocity": 0.7559055118110236
        },
        {
          "duration": 0.2857139999999987,
          "durationTicks": 96,
          "midi": 64,
          "name": "E4",
          "ticks": 42048,
          "time": 125.14273200000001,
          "velocity": 0.7559055118110236
        },
        {
          "duration": 0.2857139999999987,
          "durationTicks": 96,
          "midi": 65,
          "name": "F4",
          "ticks": 42144,
          "time": 125.42844600000001,
          "velocity": 0.7559055118110236
        },
        {
          "duration": 0.0029761875000104965,
          "durationTicks": 1,
          "midi": 65,
          "name": "F4",
          "ticks": 42240,
          "time": 125.71416,
          "velocity": 0.7559055118110236
        },
        {
          "duration": 0.2857139999999987,
          "durationTicks": 96,
          "midi": 64,
          "name": "E4",
          "ticks": 42288,
          "time": 125.85701700000001,
          "velocity": 0.7559055118110236
        },
        {
          "duration": 0.42857100000000514,
          "durationTicks": 144,
          "midi": 64,
          "name": "E4",
          "ticks": 42384,
          "time": 126.14273100000001,
          "velocity": 0.7559055118110236
        },
        {
          "duration": 0.2857139999999987,
          "durationTicks": 96,
          "midi": 62,
          "name": "D4",
          "ticks": 42528,
          "time": 126.57130200000002,
          "velocity": 0.7559055118110236
        },
        {
          "duration": 0.14285699999999224,
          "durationTicks": 48,
          "midi": 62,
          "name": "D4",
          "ticks": 42624,
          "time": 126.85701600000002,
          "velocity": 0.7559055118110236
        },
        {
          "duration": 0.2857139999999987,
          "durationTicks": 96,
          "midi": 60,
          "name": "C4",
          "ticks": 42672,
          "time": 126.99987300000001,
          "velocity": 0.7559055118110236
        },
        {
          "duration": 0.42857100000000514,
          "durationTicks": 144,
          "midi": 60,
          "name": "C4",
          "ticks": 42768,
          "time": 127.285587,
          "velocity": 0.7559055118110236
        },
        {
          "duration": 0.5714280000000116,
          "durationTicks": 192,
          "midi": 58,
          "name": "A#3",
          "ticks": 42912,
          "time": 127.71415800000001,
          "velocity": 0.7559055118110236
        },
        {
          "duration": 2.571425999999974,
          "durationTicks": 864,
          "midi": 57,
          "name": "A3",
          "ticks": 43104,
          "time": 128.28558600000002,
          "velocity": 0.7559055118110236
        },
        {
          "duration": 0.2857140000000129,
          "durationTicks": 96,
          "midi": 65,
          "name": "F4",
          "ticks": 43968,
          "time": 130.857012,
          "velocity": 0.7559055118110236
        },
        {
          "duration": 0.2857140000000129,
          "durationTicks": 96,
          "midi": 65,
          "name": "F4",
          "ticks": 44064,
          "time": 131.142726,
          "velocity": 0.7559055118110236
        },
        {
          "duration": 0.14285699999999224,
          "durationTicks": 48,
          "midi": 64,
          "name": "E4",
          "ticks": 44160,
          "time": 131.42844000000002,
          "velocity": 0.7559055118110236
        },
        {
          "duration": 0.2857139999999845,
          "durationTicks": 96,
          "midi": 62,
          "name": "D4",
          "ticks": 44208,
          "time": 131.57129700000002,
          "velocity": 0.7559055118110236
        },
        {
          "duration": 0.42857100000000514,
          "durationTicks": 144,
          "midi": 60,
          "name": "C4",
          "ticks": 44304,
          "time": 131.857011,
          "velocity": 0.7559055118110236
        },
        {
          "duration": 0.2857140000000129,
          "durationTicks": 96,
          "midi": 62,
          "name": "D4",
          "ticks": 44448,
          "time": 132.285582,
          "velocity": 0.7559055118110236
        },
        {
          "duration": 0.5714279999999974,
          "durationTicks": 192,
          "midi": 60,
          "name": "C4",
          "ticks": 44544,
          "time": 132.57129600000002,
          "velocity": 0.7559055118110236
        },
        {
          "duration": 0.2857139999999845,
          "durationTicks": 96,
          "midi": 64,
          "name": "E4",
          "ticks": 44736,
          "time": 133.14272400000002,
          "velocity": 0.7559055118110236
        },
        {
          "duration": 0.2857140000000129,
          "durationTicks": 96,
          "midi": 65,
          "name": "F4",
          "ticks": 44832,
          "time": 133.428438,
          "velocity": 0.7559055118110236
        },
        {
          "duration": 0.2857139999999845,
          "durationTicks": 96,
          "midi": 64,
          "name": "E4",
          "ticks": 44928,
          "time": 133.714152,
          "velocity": 0.7559055118110236
        },
        {
          "duration": 0.14285700000002066,
          "durationTicks": 48,
          "midi": 65,
          "name": "F4",
          "ticks": 45024,
          "time": 133.999866,
          "velocity": 0.7559055118110236
        },
        {
          "duration": 0.42857100000000514,
          "durationTicks": 144,
          "midi": 64,
          "name": "E4",
          "ticks": 45072,
          "time": 134.14272300000002,
          "velocity": 0.7559055118110236
        },
        {
          "duration": 0.2857139999999845,
          "durationTicks": 96,
          "midi": 65,
          "name": "F4",
          "ticks": 45216,
          "time": 134.57129400000002,
          "velocity": 0.7559055118110236
        },
        {
          "duration": 0.5714279999999974,
          "durationTicks": 192,
          "midi": 58,
          "name": "A#3",
          "ticks": 45312,
          "time": 134.857008,
          "velocity": 0.7559055118110236
        },
        {
          "duration": 0.2857140000000129,
          "durationTicks": 96,
          "midi": 58,
          "name": "A#3",
          "ticks": 45504,
          "time": 135.428436,
          "velocity": 0.7559055118110236
        },
        {
          "duration": 0.2857139999999845,
          "durationTicks": 96,
          "midi": 60,
          "name": "C4",
          "ticks": 45600,
          "time": 135.71415000000002,
          "velocity": 0.7559055118110236
        },
        {
          "duration": 0.14285700000002066,
          "durationTicks": 48,
          "midi": 62,
          "name": "D4",
          "ticks": 45696,
          "time": 135.999864,
          "velocity": 0.7559055118110236
        },
        {
          "duration": 0.4285709999999767,
          "durationTicks": 144,
          "midi": 62,
          "name": "D4",
          "ticks": 45744,
          "time": 136.14272100000002,
          "velocity": 0.7559055118110236
        },
        {
          "duration": 0.2857140000000129,
          "durationTicks": 96,
          "midi": 64,
          "name": "E4",
          "ticks": 45888,
          "time": 136.571292,
          "velocity": 0.7559055118110236
        },
        {
          "duration": 0.2857139999999845,
          "durationTicks": 96,
          "midi": 65,
          "name": "F4",
          "ticks": 45984,
          "time": 136.857006,
          "velocity": 0.7559055118110236
        },
        {
          "duration": 0.0029761875000247073,
          "durationTicks": 1,
          "midi": 65,
          "name": "F4",
          "ticks": 46080,
          "time": 137.14272,
          "velocity": 0.7559055118110236
        },
        {
          "duration": 0.14285700000002066,
          "durationTicks": 48,
          "midi": 64,
          "name": "E4",
          "ticks": 46224,
          "time": 137.571291,
          "velocity": 0.7559055118110236
        },
        {
          "duration": 2.2857119999999895,
          "durationTicks": 768,
          "midi": 64,
          "name": "E4",
          "ticks": 46272,
          "time": 137.71414800000002,
          "velocity": 0.7559055118110236
        },
        {
          "duration": 0.2857140000000129,
          "durationTicks": 96,
          "midi": 65,
          "name": "F4",
          "ticks": 47040,
          "time": 139.99986,
          "velocity": 0.7559055118110236
        },
        {
          "duration": 0.2857139999999845,
          "durationTicks": 96,
          "midi": 65,
          "name": "F4",
          "ticks": 47136,
          "time": 140.28557400000003,
          "velocity": 0.7559055118110236
        },
        {
          "duration": 0.14285699999999224,
          "durationTicks": 48,
          "midi": 64,
          "name": "E4",
          "ticks": 47232,
          "time": 140.571288,
          "velocity": 0.7559055118110236
        },
        {
          "duration": 0.2857140000000129,
          "durationTicks": 96,
          "midi": 62,
          "name": "D4",
          "ticks": 47280,
          "time": 140.714145,
          "velocity": 0.7559055118110236
        },
        {
          "duration": 0.42857100000000514,
          "durationTicks": 144,
          "midi": 60,
          "name": "C4",
          "ticks": 47376,
          "time": 140.99985900000001,
          "velocity": 0.7559055118110236
        },
        {
          "duration": 0.2857139999999845,
          "durationTicks": 96,
          "midi": 62,
          "name": "D4",
          "ticks": 47520,
          "time": 141.42843000000002,
          "velocity": 0.7559055118110236
        },
        {
          "duration": 0.5714279999999974,
          "durationTicks": 192,
          "midi": 60,
          "name": "C4",
          "ticks": 47616,
          "time": 141.714144,
          "velocity": 0.7559055118110236
        },
        {
          "duration": 0.14285700000002066,
          "durationTicks": 48,
          "midi": 64,
          "name": "E4",
          "ticks": 47808,
          "time": 142.285572,
          "velocity": 0.7559055118110236
        },
        {
          "duration": 0.2857139999999845,
          "durationTicks": 96,
          "midi": 65,
          "name": "F4",
          "ticks": 47856,
          "time": 142.42842900000002,
          "velocity": 0.7559055118110236
        },
        {
          "duration": 0.42857100000000514,
          "durationTicks": 144,
          "midi": 64,
          "name": "E4",
          "ticks": 47952,
          "time": 142.714143,
          "velocity": 0.7559055118110236
        },
        {
          "duration": 0.2857140000000129,
          "durationTicks": 96,
          "midi": 65,
          "name": "F4",
          "ticks": 48096,
          "time": 143.142714,
          "velocity": 0.7559055118110236
        },
        {
          "duration": 0.2857139999999845,
          "durationTicks": 96,
          "midi": 64,
          "name": "E4",
          "ticks": 48192,
          "time": 143.42842800000003,
          "velocity": 0.7559055118110236
        },
        {
          "duration": 0.2857140000000129,
          "durationTicks": 96,
          "midi": 65,
          "name": "F4",
          "ticks": 48288,
          "time": 143.714142,
          "velocity": 0.7559055118110236
        },
        {
          "duration": 0.2857139999999845,
          "durationTicks": 96,
          "midi": 64,
          "name": "E4",
          "ticks": 48384,
          "time": 143.99985600000002,
          "velocity": 0.7559055118110236
        },
        {
          "duration": 0.14285699999999224,
          "durationTicks": 48,
          "midi": 62,
          "name": "D4",
          "ticks": 48480,
          "time": 144.28557,
          "velocity": 0.7559055118110236
        },
        {
          "duration": 0.5714280000000258,
          "durationTicks": 192,
          "midi": 62,
          "name": "D4",
          "ticks": 48528,
          "time": 144.428427,
          "velocity": 0.7559055118110236
        },
        {
          "duration": 0.14285699999999224,
          "durationTicks": 48,
          "midi": 62,
          "name": "D4",
          "ticks": 48720,
          "time": 144.99985500000003,
          "velocity": 0.7559055118110236
        },
        {
          "duration": 0.2857139999999845,
          "durationTicks": 96,
          "midi": 67,
          "name": "G4",
          "ticks": 48768,
          "time": 145.14271200000002,
          "velocity": 0.7559055118110236
        },
        {
          "duration": 0.2857140000000129,
          "durationTicks": 96,
          "midi": 65,
          "name": "F4",
          "ticks": 48864,
          "time": 145.428426,
          "velocity": 0.7559055118110236
        },
        {
          "duration": 0.2857139999999845,
          "durationTicks": 96,
          "midi": 64,
          "name": "E4",
          "ticks": 48960,
          "time": 145.71414000000001,
          "velocity": 0.7559055118110236
        },
        {
          "duration": 0.2857140000000129,
          "durationTicks": 96,
          "midi": 62,
          "name": "D4",
          "ticks": 49056,
          "time": 145.999854,
          "velocity": 0.7559055118110236
        },
        {
          "duration": 0.14285699999999224,
          "durationTicks": 48,
          "midi": 65,
          "name": "F4",
          "ticks": 49152,
          "time": 146.285568,
          "velocity": 0.7559055118110236
        },
        {
          "duration": 0.14285700000002066,
          "durationTicks": 48,
          "midi": 64,
          "name": "E4",
          "ticks": 49200,
          "time": 146.428425,
          "velocity": 0.7559055118110236
        },
        {
          "duration": 0.14285699999999224,
          "durationTicks": 48,
          "midi": 62,
          "name": "D4",
          "ticks": 49248,
          "time": 146.57128200000002,
          "velocity": 0.7559055118110236
        },
        {
          "duration": 0.8571419999999819,
          "durationTicks": 288,
          "midi": 64,
          "name": "E4",
          "ticks": 49296,
          "time": 146.71413900000002,
          "velocity": 0.7559055118110236
        },
        {
          "duration": 0.14285700000002066,
          "durationTicks": 48,
          "midi": 64,
          "name": "E4",
          "ticks": 49584,
          "time": 147.571281,
          "velocity": 0.7559055118110236
        },
        {
          "duration": 0.14285699999999224,
          "durationTicks": 48,
          "midi": 64,
          "name": "E4",
          "ticks": 49632,
          "time": 147.71413800000002,
          "velocity": 0.7559055118110236
        },
        {
          "duration": 0.14285699999999224,
          "durationTicks": 48,
          "midi": 64,
          "name": "E4",
          "ticks": 49680,
          "time": 147.856995,
          "velocity": 0.7559055118110236
        },
        {
          "duration": 0.14285700000002066,
          "durationTicks": 48,
          "midi": 65,
          "name": "F4",
          "ticks": 49728,
          "time": 147.999852,
          "velocity": 0.7559055118110236
        },
        {
          "duration": 0.14285699999999224,
          "durationTicks": 48,
          "midi": 64,
          "name": "E4",
          "ticks": 49776,
          "time": 148.14270900000002,
          "velocity": 0.7559055118110236
        },
        {
          "duration": 0.14285699999999224,
          "durationTicks": 48,
          "midi": 60,
          "name": "C4",
          "ticks": 49824,
          "time": 148.28556600000002,
          "velocity": 0.7559055118110236
        },
        {
          "duration": 0.14285699999999224,
          "durationTicks": 48,
          "midi": 62,
          "name": "D4",
          "ticks": 49872,
          "time": 148.428423,
          "velocity": 0.7559055118110236
        },
        {
          "duration": 0.2857140000000129,
          "durationTicks": 96,
          "midi": 65,
          "name": "F4",
          "ticks": 50208,
          "time": 149.428422,
          "velocity": 0.7559055118110236
        },
        {
          "duration": 0.14285699999999224,
          "durationTicks": 48,
          "midi": 65,
          "name": "F4",
          "ticks": 50304,
          "time": 149.71413600000002,
          "velocity": 0.7559055118110236
        },
        {
          "duration": 0.42857100000000514,
          "durationTicks": 144,
          "midi": 58,
          "name": "A#3",
          "ticks": 50352,
          "time": 149.85699300000002,
          "velocity": 0.7559055118110236
        },
        {
          "duration": 0.14285699999999224,
          "durationTicks": 48,
          "midi": 65,
          "name": "F4",
          "ticks": 50496,
          "time": 150.28556400000002,
          "velocity": 0.7559055118110236
        },
        {
          "duration": 0.14285699999999224,
          "durationTicks": 48,
          "midi": 64,
          "name": "E4",
          "ticks": 50544,
          "time": 150.42842100000001,
          "velocity": 0.7559055118110236
        },
        {
          "duration": 0.14285699999999224,
          "durationTicks": 48,
          "midi": 62,
          "name": "D4",
          "ticks": 50592,
          "time": 150.571278,
          "velocity": 0.7559055118110236
        },
        {
          "duration": 0.14285700000002066,
          "durationTicks": 48,
          "midi": 64,
          "name": "E4",
          "ticks": 50640,
          "time": 150.714135,
          "velocity": 0.7559055118110236
        },
        {
          "duration": 0.2857140000000129,
          "durationTicks": 96,
          "midi": 64,
          "name": "E4",
          "ticks": 50976,
          "time": 151.714134,
          "velocity": 0.7559055118110236
        },
        {
          "duration": 0.14285699999999224,
          "durationTicks": 48,
          "midi": 64,
          "name": "E4",
          "ticks": 51072,
          "time": 151.99984800000001,
          "velocity": 0.7559055118110236
        },
        {
          "duration": 0.42857100000000514,
          "durationTicks": 144,
          "midi": 57,
          "name": "A3",
          "ticks": 51120,
          "time": 152.142705,
          "velocity": 0.7559055118110236
        },
        {
          "duration": 0.14285699999999224,
          "durationTicks": 48,
          "midi": 57,
          "name": "A3",
          "ticks": 51264,
          "time": 152.571276,
          "velocity": 0.7559055118110236
        },
        {
          "duration": 0.14285700000002066,
          "durationTicks": 48,
          "midi": 57,
          "name": "A3",
          "ticks": 51312,
          "time": 152.714133,
          "velocity": 0.7559055118110236
        },
        {
          "duration": 0.14285699999999224,
          "durationTicks": 48,
          "midi": 57,
          "name": "A3",
          "ticks": 51360,
          "time": 152.85699000000002,
          "velocity": 0.7559055118110236
        },
        {
          "duration": 0.14285699999999224,
          "durationTicks": 48,
          "midi": 58,
          "name": "A#3",
          "ticks": 51408,
          "time": 152.99984700000002,
          "velocity": 0.7559055118110236
        },
        {
          "duration": 0.42857100000000514,
          "durationTicks": 144,
          "midi": 65,
          "name": "F4",
          "ticks": 51648,
          "time": 153.714132,
          "velocity": 0.7559055118110236
        },
        {
          "duration": 0.14285699999999224,
          "durationTicks": 48,
          "midi": 64,
          "name": "E4",
          "ticks": 51792,
          "time": 154.142703,
          "velocity": 0.7559055118110236
        },
        {
          "duration": 0.2857140000000129,
          "durationTicks": 96,
          "midi": 62,
          "name": "D4",
          "ticks": 51840,
          "time": 154.28556,
          "velocity": 0.7559055118110236
        },
        {
          "duration": 0.2857139999999845,
          "durationTicks": 96,
          "midi": 64,
          "name": "E4",
          "ticks": 51936,
          "time": 154.57127400000002,
          "velocity": 0.7559055118110236
        },
        {
          "duration": 0.2857140000000129,
          "durationTicks": 96,
          "midi": 65,
          "name": "F4",
          "ticks": 52032,
          "time": 154.856988,
          "velocity": 0.7559055118110236
        },
        {
          "duration": 0.14285699999999224,
          "durationTicks": 48,
          "midi": 62,
          "name": "D4",
          "ticks": 52128,
          "time": 155.142702,
          "velocity": 0.7559055118110236
        },
        {
          "duration": 0.14285700000002066,
          "durationTicks": 48,
          "midi": 64,
          "name": "E4",
          "ticks": 52176,
          "time": 155.285559,
          "velocity": 0.7559055118110236
        },
        {
          "duration": 0.14285699999999224,
          "durationTicks": 48,
          "midi": 65,
          "name": "F4",
          "ticks": 52800,
          "time": 157.14270000000002,
          "velocity": 0.7559055118110236
        },
        {
          "duration": 0.14285699999999224,
          "durationTicks": 48,
          "midi": 64,
          "name": "E4",
          "ticks": 52848,
          "time": 157.285557,
          "velocity": 0.7559055118110236
        },
        {
          "duration": 0.14285700000002066,
          "durationTicks": 48,
          "midi": 60,
          "name": "C4",
          "ticks": 52896,
          "time": 157.428414,
          "velocity": 0.7559055118110236
        },
        {
          "duration": 0.14285699999999224,
          "durationTicks": 48,
          "midi": 62,
          "name": "D4",
          "ticks": 52944,
          "time": 157.57127100000002,
          "velocity": 0.7559055118110236
        },
        {
          "duration": 0.2857139999999845,
          "durationTicks": 96,
          "midi": 69,
          "name": "A4",
          "ticks": 53280,
          "time": 158.57127000000003,
          "velocity": 0.7559055118110236
        },
        {
          "duration": 0.14285699999999224,
          "durationTicks": 48,
          "midi": 70,
          "name": "A#4",
          "ticks": 53376,
          "time": 158.856984,
          "velocity": 0.7559055118110236
        },
        {
          "duration": 0.42857100000000514,
          "durationTicks": 144,
          "midi": 62,
          "name": "D4",
          "ticks": 53424,
          "time": 158.999841,
          "velocity": 0.7559055118110236
        },
        {
          "duration": 0.2857140000000129,
          "durationTicks": 96,
          "midi": 65,
          "name": "F4",
          "ticks": 53568,
          "time": 159.428412,
          "velocity": 0.7559055118110236
        },
        {
          "duration": 0.14285699999999224,
          "durationTicks": 48,
          "midi": 64,
          "name": "E4",
          "ticks": 53664,
          "time": 159.71412600000002,
          "velocity": 0.7559055118110236
        },
        {
          "duration": 0.42857100000000514,
          "durationTicks": 144,
          "midi": 60,
          "name": "C4",
          "ticks": 53712,
          "time": 159.856983,
          "velocity": 0.7559055118110236
        },
        {
          "duration": 0.2857139999999845,
          "durationTicks": 96,
          "midi": 64,
          "name": "E4",
          "ticks": 53856,
          "time": 160.28555400000002,
          "velocity": 0.7559055118110236
        },
        {
          "duration": 0.2857140000000129,
          "durationTicks": 96,
          "midi": 65,
          "name": "F4",
          "ticks": 53952,
          "time": 160.571268,
          "velocity": 0.7559055118110236
        },
        {
          "duration": 0.2857139999999845,
          "durationTicks": 96,
          "midi": 67,
          "name": "G4",
          "ticks": 54048,
          "time": 160.85698200000002,
          "velocity": 0.7559055118110236
        },
        {
          "duration": 0.5714280000000258,
          "durationTicks": 192,
          "midi": 60,
          "name": "C4",
          "ticks": 54144,
          "time": 161.142696,
          "velocity": 0.7559055118110236
        },
        {
          "duration": 0.2857139999999845,
          "durationTicks": 96,
          "midi": 60,
          "name": "C4",
          "ticks": 54336,
          "time": 161.71412400000003,
          "velocity": 0.7559055118110236
        },
        {
          "duration": 0.14285699999999224,
          "durationTicks": 48,
          "midi": 64,
          "name": "E4",
          "ticks": 54432,
          "time": 161.999838,
          "velocity": 0.7559055118110236
        },
        {
          "duration": 0.42857100000000514,
          "durationTicks": 144,
          "midi": 65,
          "name": "F4",
          "ticks": 54480,
          "time": 162.142695,
          "velocity": 0.7559055118110236
        },
        {
          "duration": 0.2857140000000129,
          "durationTicks": 96,
          "midi": 62,
          "name": "D4",
          "ticks": 54624,
          "time": 162.571266,
          "velocity": 0.7559055118110236
        },
        {
          "duration": 0.2857139999999845,
          "durationTicks": 96,
          "midi": 62,
          "name": "D4",
          "ticks": 54720,
          "time": 162.85698000000002,
          "velocity": 0.7559055118110236
        },
        {
          "duration": 0.2857140000000129,
          "durationTicks": 96,
          "midi": 64,
          "name": "E4",
          "ticks": 54816,
          "time": 163.142694,
          "velocity": 0.7559055118110236
        },
        {
          "duration": 0.42857100000000514,
          "durationTicks": 144,
          "midi": 65,
          "name": "F4",
          "ticks": 54912,
          "time": 163.42840800000002,
          "velocity": 0.7559055118110236
        },
        {
          "duration": 0.4285709999999767,
          "durationTicks": 144,
          "midi": 64,
          "name": "E4",
          "ticks": 55056,
          "time": 163.85697900000002,
          "velocity": 0.7559055118110236
        },
        {
          "duration": 0.2857140000000129,
          "durationTicks": 96,
          "midi": 62,
          "name": "D4",
          "ticks": 55200,
          "time": 164.28555,
          "velocity": 0.7559055118110236
        },
        {
          "duration": 1.285712999999987,
          "durationTicks": 432,
          "midi": 64,
          "name": "E4",
          "ticks": 55296,
          "time": 164.571264,
          "velocity": 0.7559055118110236
        },
        {
          "duration": 0.14285700000002066,
          "durationTicks": 48,
          "midi": 64,
          "name": "E4",
          "ticks": 55728,
          "time": 165.856977,
          "velocity": 0.7559055118110236
        },
        {
          "duration": 0.14285699999999224,
          "durationTicks": 48,
          "midi": 64,
          "name": "E4",
          "ticks": 55776,
          "time": 165.99983400000002,
          "velocity": 0.7559055118110236
        },
        {
          "duration": 0.14285699999999224,
          "durationTicks": 48,
          "midi": 64,
          "name": "E4",
          "ticks": 55824,
          "time": 166.142691,
          "velocity": 0.7559055118110236
        },
        {
          "duration": 0.14285700000002066,
          "durationTicks": 48,
          "midi": 65,
          "name": "F4",
          "ticks": 55872,
          "time": 166.285548,
          "velocity": 0.7559055118110236
        },
        {
          "duration": 0.14285699999999224,
          "durationTicks": 48,
          "midi": 64,
          "name": "E4",
          "ticks": 55920,
          "time": 166.42840500000003,
          "velocity": 0.7559055118110236
        },
        {
          "duration": 0.14285699999999224,
          "durationTicks": 48,
          "midi": 60,
          "name": "C4",
          "ticks": 55968,
          "time": 166.57126200000002,
          "velocity": 0.7559055118110236
        },
        {
          "duration": 0.14285699999999224,
          "durationTicks": 48,
          "midi": 62,
          "name": "D4",
          "ticks": 56016,
          "time": 166.714119,
          "velocity": 0.7559055118110236
        },
        {
          "duration": 0.2857140000000129,
          "durationTicks": 96,
          "midi": 65,
          "name": "F4",
          "ticks": 56352,
          "time": 167.714118,
          "velocity": 0.7559055118110236
        },
        {
          "duration": 0.14285699999999224,
          "durationTicks": 48,
          "midi": 65,
          "name": "F4",
          "ticks": 56448,
          "time": 167.99983200000003,
          "velocity": 0.7559055118110236
        },
        {
          "duration": 0.42857100000000514,
          "durationTicks": 144,
          "midi": 58,
          "name": "A#3",
          "ticks": 56496,
          "time": 168.14268900000002,
          "velocity": 0.7559055118110236
        },
        {
          "duration": 0.14285699999999224,
          "durationTicks": 48,
          "midi": 65,
          "name": "F4",
          "ticks": 56640,
          "time": 168.57126000000002,
          "velocity": 0.7559055118110236
        },
        {
          "duration": 0.14285699999999224,
          "durationTicks": 48,
          "midi": 64,
          "name": "E4",
          "ticks": 56688,
          "time": 168.71411700000002,
          "velocity": 0.7559055118110236
        },
        {
          "duration": 0.14285699999999224,
          "durationTicks": 48,
          "midi": 62,
          "name": "D4",
          "ticks": 56736,
          "time": 168.856974,
          "velocity": 0.7559055118110236
        },
        {
          "duration": 0.14285700000002066,
          "durationTicks": 48,
          "midi": 64,
          "name": "E4",
          "ticks": 56784,
          "time": 168.999831,
          "velocity": 0.7559055118110236
        },
        {
          "duration": 0.2857140000000129,
          "durationTicks": 96,
          "midi": 64,
          "name": "E4",
          "ticks": 57120,
          "time": 169.99983,
          "velocity": 0.7559055118110236
        },
        {
          "duration": 0.14285699999999224,
          "durationTicks": 48,
          "midi": 64,
          "name": "E4",
          "ticks": 57216,
          "time": 170.28554400000002,
          "velocity": 0.7559055118110236
        },
        {
          "duration": 0.42857100000000514,
          "durationTicks": 144,
          "midi": 57,
          "name": "A3",
          "ticks": 57264,
          "time": 170.428401,
          "velocity": 0.7559055118110236
        },
        {
          "duration": 0.14285699999999224,
          "durationTicks": 48,
          "midi": 57,
          "name": "A3",
          "ticks": 57408,
          "time": 170.856972,
          "velocity": 0.7559055118110236
        },
        {
          "duration": 0.14285700000002066,
          "durationTicks": 48,
          "midi": 57,
          "name": "A3",
          "ticks": 57456,
          "time": 170.999829,
          "velocity": 0.7559055118110236
        },
        {
          "duration": 0.14285699999999224,
          "durationTicks": 48,
          "midi": 57,
          "name": "A3",
          "ticks": 57504,
          "time": 171.14268600000003,
          "velocity": 0.7559055118110236
        },
        {
          "duration": 0.14285699999999224,
          "durationTicks": 48,
          "midi": 58,
          "name": "A#3",
          "ticks": 57552,
          "time": 171.28554300000002,
          "velocity": 0.7559055118110236
        },
        {
          "duration": 0.42857100000000514,
          "durationTicks": 144,
          "midi": 65,
          "name": "F4",
          "ticks": 57792,
          "time": 171.999828,
          "velocity": 0.7559055118110236
        },
        {
          "duration": 0.14285699999999224,
          "durationTicks": 48,
          "midi": 64,
          "name": "E4",
          "ticks": 57936,
          "time": 172.428399,
          "velocity": 0.7559055118110236
        },
        {
          "duration": 0.2857140000000129,
          "durationTicks": 96,
          "midi": 62,
          "name": "D4",
          "ticks": 57984,
          "time": 172.571256,
          "velocity": 0.7559055118110236
        },
        {
          "duration": 0.2857139999999845,
          "durationTicks": 96,
          "midi": 64,
          "name": "E4",
          "ticks": 58080,
          "time": 172.85697000000002,
          "velocity": 0.7559055118110236
        },
        {
          "duration": 0.2857140000000129,
          "durationTicks": 96,
          "midi": 65,
          "name": "F4",
          "ticks": 58176,
          "time": 173.142684,
          "velocity": 0.7559055118110236
        },
        {
          "duration": 0.14285699999999224,
          "durationTicks": 48,
          "midi": 62,
          "name": "D4",
          "ticks": 58272,
          "time": 173.42839800000002,
          "velocity": 0.7559055118110236
        },
        {
          "duration": 0.14285699999999224,
          "durationTicks": 48,
          "midi": 64,
          "name": "E4",
          "ticks": 58320,
          "time": 173.571255,
          "velocity": 0.7559055118110236
        },
        {
          "duration": 0.14285699999999224,
          "durationTicks": 48,
          "midi": 65,
          "name": "F4",
          "ticks": 58944,
          "time": 175.42839600000002,
          "velocity": 0.7559055118110236
        },
        {
          "duration": 0.14285699999999224,
          "durationTicks": 48,
          "midi": 64,
          "name": "E4",
          "ticks": 58992,
          "time": 175.571253,
          "velocity": 0.7559055118110236
        },
        {
          "duration": 0.14285700000002066,
          "durationTicks": 48,
          "midi": 60,
          "name": "C4",
          "ticks": 59040,
          "time": 175.71411,
          "velocity": 0.7559055118110236
        },
        {
          "duration": 0.14285699999999224,
          "durationTicks": 48,
          "midi": 62,
          "name": "D4",
          "ticks": 59088,
          "time": 175.85696700000003,
          "velocity": 0.7559055118110236
        },
        {
          "duration": 0.2857139999999845,
          "durationTicks": 96,
          "midi": 69,
          "name": "A4",
          "ticks": 59424,
          "time": 176.85696600000003,
          "velocity": 0.7559055118110236
        },
        {
          "duration": 0.14285699999999224,
          "durationTicks": 48,
          "midi": 70,
          "name": "A#4",
          "ticks": 59520,
          "time": 177.14268,
          "velocity": 0.7559055118110236
        },
        {
          "duration": 0.42857100000000514,
          "durationTicks": 144,
          "midi": 62,
          "name": "D4",
          "ticks": 59568,
          "time": 177.285537,
          "velocity": 0.7559055118110236
        },
        {
          "duration": 0.2857140000000129,
          "durationTicks": 96,
          "midi": 65,
          "name": "F4",
          "ticks": 59712,
          "time": 177.714108,
          "velocity": 0.7559055118110236
        },
        {
          "duration": 0.14285699999999224,
          "durationTicks": 48,
          "midi": 64,
          "name": "E4",
          "ticks": 59808,
          "time": 177.99982200000002,
          "velocity": 0.7559055118110236
        },
        {
          "duration": 0.42857100000000514,
          "durationTicks": 144,
          "midi": 60,
          "name": "C4",
          "ticks": 59856,
          "time": 178.14267900000002,
          "velocity": 0.7559055118110236
        },
        {
          "duration": 0.2857139999999845,
          "durationTicks": 96,
          "midi": 64,
          "name": "E4",
          "ticks": 60000,
          "time": 178.57125000000002,
          "velocity": 0.7559055118110236
        },
        {
          "duration": 0.2857140000000129,
          "durationTicks": 96,
          "midi": 65,
          "name": "F4",
          "ticks": 60096,
          "time": 178.856964,
          "velocity": 0.7559055118110236
        },
        {
          "duration": 0.2857139999999845,
          "durationTicks": 96,
          "midi": 67,
          "name": "G4",
          "ticks": 60192,
          "time": 179.14267800000002,
          "velocity": 0.7559055118110236
        },
        {
          "duration": 0.5714280000000258,
          "durationTicks": 192,
          "midi": 60,
          "name": "C4",
          "ticks": 60288,
          "time": 179.428392,
          "velocity": 0.7559055118110236
        },
        {
          "duration": 0.2857139999999845,
          "durationTicks": 96,
          "midi": 60,
          "name": "C4",
          "ticks": 60480,
          "time": 179.99982000000003,
          "velocity": 0.7559055118110236
        },
        {
          "duration": 0.14285699999999224,
          "durationTicks": 48,
          "midi": 64,
          "name": "E4",
          "ticks": 60576,
          "time": 180.285534,
          "velocity": 0.7559055118110236
        },
        {
          "duration": 0.42857100000000514,
          "durationTicks": 144,
          "midi": 65,
          "name": "F4",
          "ticks": 60624,
          "time": 180.428391,
          "velocity": 0.7559055118110236
        },
        {
          "duration": 0.2857140000000129,
          "durationTicks": 96,
          "midi": 62,
          "name": "D4",
          "ticks": 60768,
          "time": 180.856962,
          "velocity": 0.7559055118110236
        },
        {
          "duration": 0.2857139999999845,
          "durationTicks": 96,
          "midi": 62,
          "name": "D4",
          "ticks": 60864,
          "time": 181.14267600000002,
          "velocity": 0.7559055118110236
        },
        {
          "duration": 0.2857140000000129,
          "durationTicks": 96,
          "midi": 64,
          "name": "E4",
          "ticks": 60960,
          "time": 181.42839,
          "velocity": 0.7559055118110236
        },
        {
          "duration": 0.42857100000000514,
          "durationTicks": 144,
          "midi": 65,
          "name": "F4",
          "ticks": 61056,
          "time": 181.71410400000002,
          "velocity": 0.7559055118110236
        },
        {
          "duration": 0.4285709999999767,
          "durationTicks": 144,
          "midi": 64,
          "name": "E4",
          "ticks": 61200,
          "time": 182.14267500000003,
          "velocity": 0.7559055118110236
        },
        {
          "duration": 0.2857140000000129,
          "durationTicks": 96,
          "midi": 62,
          "name": "D4",
          "ticks": 61344,
          "time": 182.571246,
          "velocity": 0.7559055118110236
        },
        {
          "duration": 1.285712999999987,
          "durationTicks": 432,
          "midi": 64,
          "name": "E4",
          "ticks": 61440,
          "time": 182.85696000000002,
          "velocity": 0.7559055118110236
        },
        {
          "duration": 0.14285700000002066,
          "durationTicks": 48,
          "midi": 64,
          "name": "E4",
          "ticks": 61872,
          "time": 184.142673,
          "velocity": 0.7559055118110236
        },
        {
          "duration": 0.14285699999999224,
          "durationTicks": 48,
          "midi": 64,
          "name": "E4",
          "ticks": 61920,
          "time": 184.28553000000002,
          "velocity": 0.7559055118110236
        },
        {
          "duration": 0.14285699999999224,
          "durationTicks": 48,
          "midi": 64,
          "name": "E4",
          "ticks": 61968,
          "time": 184.42838700000001,
          "velocity": 0.7559055118110236
        },
        {
          "duration": 0.14285700000002066,
          "durationTicks": 48,
          "midi": 65,
          "name": "F4",
          "ticks": 62016,
          "time": 184.571244,
          "velocity": 0.7559055118110236
        },
        {
          "duration": 0.14285699999999224,
          "durationTicks": 48,
          "midi": 64,
          "name": "E4",
          "ticks": 62064,
          "time": 184.71410100000003,
          "velocity": 0.7559055118110236
        },
        {
          "duration": 0.14285699999999224,
          "durationTicks": 48,
          "midi": 60,
          "name": "C4",
          "ticks": 62112,
          "time": 184.85695800000002,
          "velocity": 0.7559055118110236
        },
        {
          "duration": 0.14285699999999224,
          "durationTicks": 48,
          "midi": 62,
          "name": "D4",
          "ticks": 62160,
          "time": 184.999815,
          "velocity": 0.7559055118110236
        },
        {
          "duration": 0.14285700000002066,
          "durationTicks": 48,
          "midi": 64,
          "name": "E4",
          "ticks": 68016,
          "time": 202.428369,
          "velocity": 0.7559055118110236
        },
        {
          "duration": 0.14285699999999224,
          "durationTicks": 48,
          "midi": 64,
          "name": "E4",
          "ticks": 68064,
          "time": 202.57122600000002,
          "velocity": 0.7559055118110236
        },
        {
          "duration": 0.14285699999999224,
          "durationTicks": 48,
          "midi": 64,
          "name": "E4",
          "ticks": 68112,
          "time": 202.71408300000002,
          "velocity": 0.7559055118110236
        },
        {
          "duration": 0.14285700000002066,
          "durationTicks": 48,
          "midi": 65,
          "name": "F4",
          "ticks": 68160,
          "time": 202.85694,
          "velocity": 0.7559055118110236
        },
        {
          "duration": 0.14285699999999224,
          "durationTicks": 48,
          "midi": 64,
          "name": "E4",
          "ticks": 68208,
          "time": 202.99979700000003,
          "velocity": 0.7559055118110236
        },
        {
          "duration": 0.14285699999999224,
          "durationTicks": 48,
          "midi": 60,
          "name": "C4",
          "ticks": 68256,
          "time": 203.14265400000002,
          "velocity": 0.7559055118110236
        },
        {
          "duration": 0.14285699999999224,
          "durationTicks": 48,
          "midi": 62,
          "name": "D4",
          "ticks": 68304,
          "time": 203.285511,
          "velocity": 0.7559055118110236
        },
        {
          "duration": 0.2857140000000129,
          "durationTicks": 96,
          "midi": 65,
          "name": "F4",
          "ticks": 68640,
          "time": 204.28551000000002,
          "velocity": 0.7559055118110236
        },
        {
          "duration": 0.14285699999999224,
          "durationTicks": 48,
          "midi": 65,
          "name": "F4",
          "ticks": 68736,
          "time": 204.57122400000003,
          "velocity": 0.7559055118110236
        },
        {
          "duration": 0.42857100000000514,
          "durationTicks": 144,
          "midi": 58,
          "name": "A#3",
          "ticks": 68784,
          "time": 204.71408100000002,
          "velocity": 0.7559055118110236
        },
        {
          "duration": 0.14285699999999224,
          "durationTicks": 48,
          "midi": 65,
          "name": "F4",
          "ticks": 68928,
          "time": 205.14265200000003,
          "velocity": 0.7559055118110236
        },
        {
          "duration": 0.14285699999999224,
          "durationTicks": 48,
          "midi": 64,
          "name": "E4",
          "ticks": 68976,
          "time": 205.28550900000002,
          "velocity": 0.7559055118110236
        },
        {
          "duration": 0.14285699999999224,
          "durationTicks": 48,
          "midi": 62,
          "name": "D4",
          "ticks": 69024,
          "time": 205.428366,
          "velocity": 0.7559055118110236
        },
        {
          "duration": 0.14285700000002066,
          "durationTicks": 48,
          "midi": 64,
          "name": "E4",
          "ticks": 69072,
          "time": 205.571223,
          "velocity": 0.7559055118110236
        },
        {
          "duration": 0.2857140000000129,
          "durationTicks": 96,
          "midi": 64,
          "name": "E4",
          "ticks": 69408,
          "time": 206.571222,
          "velocity": 0.7559055118110236
        },
        {
          "duration": 0.14285699999999224,
          "durationTicks": 48,
          "midi": 64,
          "name": "E4",
          "ticks": 69504,
          "time": 206.85693600000002,
          "velocity": 0.7559055118110236
        },
        {
          "duration": 0.42857100000000514,
          "durationTicks": 144,
          "midi": 57,
          "name": "A3",
          "ticks": 69552,
          "time": 206.999793,
          "velocity": 0.7559055118110236
        },
        {
          "duration": 0.14285699999999224,
          "durationTicks": 48,
          "midi": 57,
          "name": "A3",
          "ticks": 69696,
          "time": 207.42836400000002,
          "velocity": 0.7559055118110236
        },
        {
          "duration": 0.14285700000002066,
          "durationTicks": 48,
          "midi": 57,
          "name": "A3",
          "ticks": 69744,
          "time": 207.571221,
          "velocity": 0.7559055118110236
        },
        {
          "duration": 0.14285699999999224,
          "durationTicks": 48,
          "midi": 57,
          "name": "A3",
          "ticks": 69792,
          "time": 207.71407800000003,
          "velocity": 0.7559055118110236
        },
        {
          "duration": 0.14285699999999224,
          "durationTicks": 48,
          "midi": 58,
          "name": "A#3",
          "ticks": 69840,
          "time": 207.85693500000002,
          "velocity": 0.7559055118110236
        },
        {
          "duration": 0.42857100000000514,
          "durationTicks": 144,
          "midi": 65,
          "name": "F4",
          "ticks": 70080,
          "time": 208.57122,
          "velocity": 0.7559055118110236
        },
        {
          "duration": 0.14285699999999224,
          "durationTicks": 48,
          "midi": 64,
          "name": "E4",
          "ticks": 70224,
          "time": 208.99979100000002,
          "velocity": 0.7559055118110236
        },
        {
          "duration": 0.2857140000000129,
          "durationTicks": 96,
          "midi": 62,
          "name": "D4",
          "ticks": 70272,
          "time": 209.142648,
          "velocity": 0.7559055118110236
        },
        {
          "duration": 0.2857139999999845,
          "durationTicks": 96,
          "midi": 64,
          "name": "E4",
          "ticks": 70368,
          "time": 209.42836200000002,
          "velocity": 0.7559055118110236
        },
        {
          "duration": 0.2857140000000129,
          "durationTicks": 96,
          "midi": 65,
          "name": "F4",
          "ticks": 70464,
          "time": 209.714076,
          "velocity": 0.7559055118110236
        },
        {
          "duration": 0.14285699999999224,
          "durationTicks": 48,
          "midi": 62,
          "name": "D4",
          "ticks": 70560,
          "time": 209.99979000000002,
          "velocity": 0.7559055118110236
        },
        {
          "duration": 0.14285699999999224,
          "durationTicks": 48,
          "midi": 64,
          "name": "E4",
          "ticks": 70608,
          "time": 210.142647,
          "velocity": 0.7559055118110236
        },
        {
          "duration": 0.14285699999999224,
          "durationTicks": 48,
          "midi": 65,
          "name": "F4",
          "ticks": 71232,
          "time": 211.99978800000002,
          "velocity": 0.7559055118110236
        },
        {
          "duration": 0.14285699999999224,
          "durationTicks": 48,
          "midi": 64,
          "name": "E4",
          "ticks": 71280,
          "time": 212.14264500000002,
          "velocity": 0.7559055118110236
        },
        {
          "duration": 0.14285700000002066,
          "durationTicks": 48,
          "midi": 60,
          "name": "C4",
          "ticks": 71328,
          "time": 212.285502,
          "velocity": 0.7559055118110236
        },
        {
          "duration": 0.14285699999999224,
          "durationTicks": 48,
          "midi": 62,
          "name": "D4",
          "ticks": 71376,
          "time": 212.42835900000003,
          "velocity": 0.7559055118110236
        },
        {
          "duration": 0.2857139999999845,
          "durationTicks": 96,
          "midi": 69,
          "name": "A4",
          "ticks": 71712,
          "time": 213.42835800000003,
          "velocity": 0.7559055118110236
        },
        {
          "duration": 0.14285699999999224,
          "durationTicks": 48,
          "midi": 70,
          "name": "A#4",
          "ticks": 71808,
          "time": 213.71407200000002,
          "velocity": 0.7559055118110236
        },
        {
          "duration": 0.42857100000000514,
          "durationTicks": 144,
          "midi": 62,
          "name": "D4",
          "ticks": 71856,
          "time": 213.856929,
          "velocity": 0.7559055118110236
        },
        {
          "duration": 0.2857140000000129,
          "durationTicks": 96,
          "midi": 65,
          "name": "F4",
          "ticks": 72000,
          "time": 214.2855,
          "velocity": 0.7559055118110236
        },
        {
          "duration": 0.14285699999999224,
          "durationTicks": 48,
          "midi": 64,
          "name": "E4",
          "ticks": 72096,
          "time": 214.57121400000003,
          "velocity": 0.7559055118110236
        },
        {
          "duration": 0.42857100000000514,
          "durationTicks": 144,
          "midi": 60,
          "name": "C4",
          "ticks": 72144,
          "time": 214.71407100000002,
          "velocity": 0.7559055118110236
        },
        {
          "duration": 0.2857139999999845,
          "durationTicks": 96,
          "midi": 64,
          "name": "E4",
          "ticks": 72288,
          "time": 215.14264200000002,
          "velocity": 0.7559055118110236
        },
        {
          "duration": 0.2857140000000129,
          "durationTicks": 96,
          "midi": 65,
          "name": "F4",
          "ticks": 72384,
          "time": 215.428356,
          "velocity": 0.7559055118110236
        },
        {
          "duration": 0.2857139999999845,
          "durationTicks": 96,
          "midi": 67,
          "name": "G4",
          "ticks": 72480,
          "time": 215.71407000000002,
          "velocity": 0.7559055118110236
        },
        {
          "duration": 0.5714280000000258,
          "durationTicks": 192,
          "midi": 60,
          "name": "C4",
          "ticks": 72576,
          "time": 215.999784,
          "velocity": 0.7559055118110236
        },
        {
          "duration": 0.2857139999999845,
          "durationTicks": 96,
          "midi": 60,
          "name": "C4",
          "ticks": 72768,
          "time": 216.57121200000003,
          "velocity": 0.7559055118110236
        },
        {
          "duration": 0.14285699999999224,
          "durationTicks": 48,
          "midi": 64,
          "name": "E4",
          "ticks": 72864,
          "time": 216.85692600000002,
          "velocity": 0.7559055118110236
        },
        {
          "duration": 0.42857100000000514,
          "durationTicks": 144,
          "midi": 65,
          "name": "F4",
          "ticks": 72912,
          "time": 216.999783,
          "velocity": 0.7559055118110236
        },
        {
          "duration": 0.2857140000000129,
          "durationTicks": 96,
          "midi": 62,
          "name": "D4",
          "ticks": 73056,
          "time": 217.428354,
          "velocity": 0.7559055118110236
        },
        {
          "duration": 0.2857139999999845,
          "durationTicks": 96,
          "midi": 62,
          "name": "D4",
          "ticks": 73152,
          "time": 217.71406800000003,
          "velocity": 0.7559055118110236
        },
        {
          "duration": 0.2857140000000129,
          "durationTicks": 96,
          "midi": 64,
          "name": "E4",
          "ticks": 73248,
          "time": 217.999782,
          "velocity": 0.7559055118110236
        },
        {
          "duration": 0.42857100000000514,
          "durationTicks": 144,
          "midi": 65,
          "name": "F4",
          "ticks": 73344,
          "time": 218.28549600000002,
          "velocity": 0.7559055118110236
        },
        {
          "duration": 0.4285709999999767,
          "durationTicks": 144,
          "midi": 64,
          "name": "E4",
          "ticks": 73488,
          "time": 218.71406700000003,
          "velocity": 0.7559055118110236
        },
        {
          "duration": 0.2857140000000129,
          "durationTicks": 96,
          "midi": 62,
          "name": "D4",
          "ticks": 73632,
          "time": 219.142638,
          "velocity": 0.7559055118110236
        },
        {
          "duration": 1.285712999999987,
          "durationTicks": 432,
          "midi": 64,
          "name": "E4",
          "ticks": 73728,
          "time": 219.42835200000002,
          "velocity": 0.7559055118110236
        },
        {
          "duration": 0.14285700000002066,
          "durationTicks": 48,
          "midi": 64,
          "name": "E4",
          "ticks": 74160,
          "time": 220.714065,
          "velocity": 0.7559055118110236
        },
        {
          "duration": 0.14285699999999224,
          "durationTicks": 48,
          "midi": 64,
          "name": "E4",
          "ticks": 74208,
          "time": 220.85692200000003,
          "velocity": 0.7559055118110236
        },
        {
          "duration": 0.14285699999999224,
          "durationTicks": 48,
          "midi": 64,
          "name": "E4",
          "ticks": 74256,
          "time": 220.99977900000002,
          "velocity": 0.7559055118110236
        },
        {
          "duration": 0.14285700000002066,
          "durationTicks": 48,
          "midi": 65,
          "name": "F4",
          "ticks": 74304,
          "time": 221.142636,
          "velocity": 0.7559055118110236
        },
        {
          "duration": 0.14285699999999224,
          "durationTicks": 48,
          "midi": 64,
          "name": "E4",
          "ticks": 74352,
          "time": 221.28549300000003,
          "velocity": 0.7559055118110236
        },
        {
          "duration": 0.14285699999999224,
          "durationTicks": 48,
          "midi": 60,
          "name": "C4",
          "ticks": 74400,
          "time": 221.42835000000002,
          "velocity": 0.7559055118110236
        },
        {
          "duration": 0.14285699999999224,
          "durationTicks": 48,
          "midi": 62,
          "name": "D4",
          "ticks": 74448,
          "time": 221.57120700000002,
          "velocity": 0.7559055118110236
        },
        {
          "duration": 0.2857140000000129,
          "durationTicks": 96,
          "midi": 65,
          "name": "F4",
          "ticks": 74784,
          "time": 222.57120600000002,
          "velocity": 0.7559055118110236
        },
        {
          "duration": 0.14285699999999224,
          "durationTicks": 48,
          "midi": 65,
          "name": "F4",
          "ticks": 74880,
          "time": 222.85692000000003,
          "velocity": 0.7559055118110236
        },
        {
          "duration": 0.42857100000000514,
          "durationTicks": 144,
          "midi": 58,
          "name": "A#3",
          "ticks": 74928,
          "time": 222.99977700000002,
          "velocity": 0.7559055118110236
        },
        {
          "duration": 0.14285699999999224,
          "durationTicks": 48,
          "midi": 65,
          "name": "F4",
          "ticks": 75072,
          "time": 223.42834800000003,
          "velocity": 0.7559055118110236
        },
        {
          "duration": 0.14285699999999224,
          "durationTicks": 48,
          "midi": 64,
          "name": "E4",
          "ticks": 75120,
          "time": 223.57120500000002,
          "velocity": 0.7559055118110236
        },
        {
          "duration": 0.14285699999999224,
          "durationTicks": 48,
          "midi": 62,
          "name": "D4",
          "ticks": 75168,
          "time": 223.714062,
          "velocity": 0.7559055118110236
        },
        {
          "duration": 0.14285700000002066,
          "durationTicks": 48,
          "midi": 64,
          "name": "E4",
          "ticks": 75216,
          "time": 223.856919,
          "velocity": 0.7559055118110236
        },
        {
          "duration": 0.2857140000000129,
          "durationTicks": 96,
          "midi": 64,
          "name": "E4",
          "ticks": 75552,
          "time": 224.856918,
          "velocity": 0.7559055118110236
        },
        {
          "duration": 0.14285699999999224,
          "durationTicks": 48,
          "midi": 64,
          "name": "E4",
          "ticks": 75648,
          "time": 225.14263200000002,
          "velocity": 0.7559055118110236
        },
        {
          "duration": 0.42857100000000514,
          "durationTicks": 144,
          "midi": 57,
          "name": "A3",
          "ticks": 75696,
          "time": 225.285489,
          "velocity": 0.7559055118110236
        },
        {
          "duration": 0.14285699999999224,
          "durationTicks": 48,
          "midi": 57,
          "name": "A3",
          "ticks": 75840,
          "time": 225.71406000000002,
          "velocity": 0.7559055118110236
        },
        {
          "duration": 0.14285700000002066,
          "durationTicks": 48,
          "midi": 57,
          "name": "A3",
          "ticks": 75888,
          "time": 225.856917,
          "velocity": 0.7559055118110236
        },
        {
          "duration": 0.14285699999999224,
          "durationTicks": 48,
          "midi": 57,
          "name": "A3",
          "ticks": 75936,
          "time": 225.99977400000003,
          "velocity": 0.7559055118110236
        },
        {
          "duration": 0.14285699999999224,
          "durationTicks": 48,
          "midi": 58,
          "name": "A#3",
          "ticks": 75984,
          "time": 226.14263100000002,
          "velocity": 0.7559055118110236
        },
        {
          "duration": 0.42857100000000514,
          "durationTicks": 144,
          "midi": 65,
          "name": "F4",
          "ticks": 76224,
          "time": 226.856916,
          "velocity": 0.7559055118110236
        },
        {
          "duration": 0.14285699999999224,
          "durationTicks": 48,
          "midi": 64,
          "name": "E4",
          "ticks": 76368,
          "time": 227.28548700000002,
          "velocity": 0.7559055118110236
        },
        {
          "duration": 0.2857140000000129,
          "durationTicks": 96,
          "midi": 62,
          "name": "D4",
          "ticks": 76416,
          "time": 227.428344,
          "velocity": 0.7559055118110236
        },
        {
          "duration": 0.2857139999999845,
          "durationTicks": 96,
          "midi": 64,
          "name": "E4",
          "ticks": 76512,
          "time": 227.71405800000002,
          "velocity": 0.7559055118110236
        },
        {
          "duration": 0.2857140000000129,
          "durationTicks": 96,
          "midi": 65,
          "name": "F4",
          "ticks": 76608,
          "time": 227.999772,
          "velocity": 0.7559055118110236
        },
        {
          "duration": 0.14285699999999224,
          "durationTicks": 48,
          "midi": 62,
          "name": "D4",
          "ticks": 76704,
          "time": 228.28548600000002,
          "velocity": 0.7559055118110236
        },
        {
          "duration": 0.14285700000002066,
          "durationTicks": 48,
          "midi": 64,
          "name": "E4",
          "ticks": 76752,
          "time": 228.428343,
          "velocity": 0.7559055118110236
        },
        {
          "duration": 0.14285699999999224,
          "durationTicks": 48,
          "midi": 65,
          "name": "F4",
          "ticks": 77376,
          "time": 230.28548400000003,
          "velocity": 0.7559055118110236
        },
        {
          "duration": 0.14285699999999224,
          "durationTicks": 48,
          "midi": 64,
          "name": "E4",
          "ticks": 77424,
          "time": 230.42834100000002,
          "velocity": 0.7559055118110236
        },
        {
          "duration": 0.14285700000002066,
          "durationTicks": 48,
          "midi": 60,
          "name": "C4",
          "ticks": 77472,
          "time": 230.571198,
          "velocity": 0.7559055118110236
        },
        {
          "duration": 0.14285699999999224,
          "durationTicks": 48,
          "midi": 62,
          "name": "D4",
          "ticks": 77520,
          "time": 230.71405500000003,
          "velocity": 0.7559055118110236
        },
        {
          "duration": 0.2857139999999845,
          "durationTicks": 96,
          "midi": 69,
          "name": "A4",
          "ticks": 77856,
          "time": 231.71405400000003,
          "velocity": 0.7559055118110236
        },
        {
          "duration": 0.14285699999999224,
          "durationTicks": 48,
          "midi": 70,
          "name": "A#4",
          "ticks": 77952,
          "time": 231.99976800000002,
          "velocity": 0.7559055118110236
        },
        {
          "duration": 0.42857100000000514,
          "durationTicks": 144,
          "midi": 62,
          "name": "D4",
          "ticks": 78000,
          "time": 232.142625,
          "velocity": 0.7559055118110236
        },
        {
          "duration": 0.2857140000000129,
          "durationTicks": 96,
          "midi": 65,
          "name": "F4",
          "ticks": 78144,
          "time": 232.57119600000001,
          "velocity": 0.7559055118110236
        },
        {
          "duration": 0.14285699999999224,
          "durationTicks": 48,
          "midi": 64,
          "name": "E4",
          "ticks": 78240,
          "time": 232.85691000000003,
          "velocity": 0.7559055118110236
        },
        {
          "duration": 0.42857100000000514,
          "durationTicks": 144,
          "midi": 60,
          "name": "C4",
          "ticks": 78288,
          "time": 232.99976700000002,
          "velocity": 0.7559055118110236
        },
        {
          "duration": 0.2857139999999845,
          "durationTicks": 96,
          "midi": 64,
          "name": "E4",
          "ticks": 78432,
          "time": 233.42833800000002,
          "velocity": 0.7559055118110236
        },
        {
          "duration": 0.2857140000000129,
          "durationTicks": 96,
          "midi": 65,
          "name": "F4",
          "ticks": 78528,
          "time": 233.714052,
          "velocity": 0.7559055118110236
        },
        {
          "duration": 0.2857139999999845,
          "durationTicks": 96,
          "midi": 67,
          "name": "G4",
          "ticks": 78624,
          "time": 233.99976600000002,
          "velocity": 0.7559055118110236
        },
        {
          "duration": 0.5714280000000258,
          "durationTicks": 192,
          "midi": 60,
          "name": "C4",
          "ticks": 78720,
          "time": 234.28548,
          "velocity": 0.7559055118110236
        },
        {
          "duration": 0.2857139999999845,
          "durationTicks": 96,
          "midi": 60,
          "name": "C4",
          "ticks": 78912,
          "time": 234.85690800000003,
          "velocity": 0.7559055118110236
        },
        {
          "duration": 0.14285699999999224,
          "durationTicks": 48,
          "midi": 64,
          "name": "E4",
          "ticks": 79008,
          "time": 235.14262200000002,
          "velocity": 0.7559055118110236
        },
        {
          "duration": 0.42857100000000514,
          "durationTicks": 144,
          "midi": 65,
          "name": "F4",
          "ticks": 79056,
          "time": 235.285479,
          "velocity": 0.7559055118110236
        },
        {
          "duration": 0.2857140000000129,
          "durationTicks": 96,
          "midi": 62,
          "name": "D4",
          "ticks": 79200,
          "time": 235.71405000000001,
          "velocity": 0.7559055118110236
        },
        {
          "duration": 0.2857139999999845,
          "durationTicks": 96,
          "midi": 62,
          "name": "D4",
          "ticks": 79296,
          "time": 235.99976400000003,
          "velocity": 0.7559055118110236
        },
        {
          "duration": 0.2857140000000129,
          "durationTicks": 96,
          "midi": 64,
          "name": "E4",
          "ticks": 79392,
          "time": 236.285478,
          "velocity": 0.7559055118110236
        },
        {
          "duration": 0.42857100000000514,
          "durationTicks": 144,
          "midi": 65,
          "name": "F4",
          "ticks": 79488,
          "time": 236.57119200000002,
          "velocity": 0.7559055118110236
        },
        {
          "duration": 0.4285709999999767,
          "durationTicks": 144,
          "midi": 64,
          "name": "E4",
          "ticks": 79632,
          "time": 236.99976300000003,
          "velocity": 0.7559055118110236
        },
        {
          "duration": 0.2857140000000129,
          "durationTicks": 96,
          "midi": 62,
          "name": "D4",
          "ticks": 79776,
          "time": 237.428334,
          "velocity": 0.7559055118110236
        },
        {
          "duration": 1.285712999999987,
          "durationTicks": 432,
          "midi": 64,
          "name": "E4",
          "ticks": 79872,
          "time": 237.71404800000002,
          "velocity": 0.7559055118110236
        },
        {
          "duration": 0.14285700000002066,
          "durationTicks": 48,
          "midi": 64,
          "name": "E4",
          "ticks": 80304,
          "time": 238.999761,
          "velocity": 0.7559055118110236
        },
        {
          "duration": 0.14285699999999224,
          "durationTicks": 48,
          "midi": 64,
          "name": "E4",
          "ticks": 80352,
          "time": 239.14261800000003,
          "velocity": 0.7559055118110236
        },
        {
          "duration": 0.14285699999999224,
          "durationTicks": 48,
          "midi": 64,
          "name": "E4",
          "ticks": 80400,
          "time": 239.28547500000002,
          "velocity": 0.7559055118110236
        },
        {
          "duration": 0.14285700000002066,
          "durationTicks": 48,
          "midi": 65,
          "name": "F4",
          "ticks": 80448,
          "time": 239.428332,
          "velocity": 0.7559055118110236
        },
        {
          "duration": 0.14285699999999224,
          "durationTicks": 48,
          "midi": 64,
          "name": "E4",
          "ticks": 80496,
          "time": 239.57118900000003,
          "velocity": 0.7559055118110236
        },
        {
          "duration": 0.14285699999999224,
          "durationTicks": 48,
          "midi": 60,
          "name": "C4",
          "ticks": 80544,
          "time": 239.71404600000002,
          "velocity": 0.7559055118110236
        },
        {
          "duration": 0.14285699999999224,
          "durationTicks": 48,
          "midi": 62,
          "name": "D4",
          "ticks": 80592,
          "time": 239.85690300000002,
          "velocity": 0.7559055118110236
        }
      ],
      "endOfTrackTicks": 81120
    },
    {
      "channel": 0,
      "controlChanges": {},
      "pitchBends": [],
      "instrument": {
        "family": "piano",
        "number": 0,
        "name": "acoustic grand piano"
      },
      "name": "",
      "notes": []
    },
    {
      "channel": 2,
      "controlChanges": {
        "1": [
          {
            "number": 1,
            "ticks": 96144,
            "time": 286.14257100000003,
            "value": 0
          }
        ],
        "7": [
          {
            "number": 7,
            "ticks": 0,
            "time": 0,
            "value": 0.7874015748031497
          },
          {
            "number": 7,
            "ticks": 90624,
            "time": 269.714016,
            "value": 0.7795275590551181
          },
          {
            "number": 7,
            "ticks": 90696,
            "time": 269.92830150000003,
            "value": 0.7716535433070866
          },
          {
            "number": 7,
            "ticks": 90744,
            "time": 270.0711585,
            "value": 0.7637795275590551
          },
          {
            "number": 7,
            "ticks": 90792,
            "time": 270.2140155,
            "value": 0.7559055118110236
          },
          {
            "number": 7,
            "ticks": 90840,
            "time": 270.3568725,
            "value": 0.7480314960629921
          },
          {
            "number": 7,
            "ticks": 90912,
            "time": 270.571158,
            "value": 0.7401574803149606
          },
          {
            "number": 7,
            "ticks": 90960,
            "time": 270.714015,
            "value": 0.7322834645669292
          },
          {
            "number": 7,
            "ticks": 91008,
            "time": 270.856872,
            "value": 0.7244094488188977
          },
          {
            "number": 7,
            "ticks": 91056,
            "time": 270.999729,
            "value": 0.7165354330708661
          },
          {
            "number": 7,
            "ticks": 91128,
            "time": 271.2140145,
            "value": 0.7086614173228346
          },
          {
            "number": 7,
            "ticks": 91176,
            "time": 271.3568715,
            "value": 0.7007874015748031
          },
          {
            "number": 7,
            "ticks": 91224,
            "time": 271.4997285,
            "value": 0.6929133858267716
          },
          {
            "number": 7,
            "ticks": 91272,
            "time": 271.6425855,
            "value": 0.6850393700787402
          },
          {
            "number": 7,
            "ticks": 91344,
            "time": 271.856871,
            "value": 0.6771653543307087
          },
          {
            "number": 7,
            "ticks": 91392,
            "time": 271.999728,
            "value": 0.6692913385826772
          },
          {
            "number": 7,
            "ticks": 91440,
            "time": 272.142585,
            "value": 0.6614173228346457
          },
          {
            "number": 7,
            "ticks": 91488,
            "time": 272.28544200000005,
            "value": 0.6535433070866141
          },
          {
            "number": 7,
            "ticks": 91560,
            "time": 272.4997275,
            "value": 0.6456692913385826
          },
          {
            "number": 7,
            "ticks": 91608,
            "time": 272.6425845,
            "value": 0.6377952755905512
          },
          {
            "number": 7,
            "ticks": 91656,
            "time": 272.78544150000005,
            "value": 0.6299212598425197
          },
          {
            "number": 7,
            "ticks": 91704,
            "time": 272.92829850000004,
            "value": 0.6220472440944882
          },
          {
            "number": 7,
            "ticks": 91776,
            "time": 273.142584,
            "value": 0.6141732283464567
          },
          {
            "number": 7,
            "ticks": 91824,
            "time": 273.28544100000005,
            "value": 0.6062992125984252
          },
          {
            "number": 7,
            "ticks": 91872,
            "time": 273.42829800000004,
            "value": 0.5984251968503937
          },
          {
            "number": 7,
            "ticks": 91920,
            "time": 273.57115500000003,
            "value": 0.5905511811023622
          },
          {
            "number": 7,
            "ticks": 91968,
            "time": 273.714012,
            "value": 0.5826771653543307
          },
          {
            "number": 7,
            "ticks": 92040,
            "time": 273.92829750000004,
            "value": 0.5748031496062992
          },
          {
            "number": 7,
            "ticks": 92088,
            "time": 274.07115450000003,
            "value": 0.5669291338582677
          },
          {
            "number": 7,
            "ticks": 92136,
            "time": 274.2140115,
            "value": 0.5590551181102362
          },
          {
            "number": 7,
            "ticks": 92184,
            "time": 274.3568685,
            "value": 0.5511811023622047
          },
          {
            "number": 7,
            "ticks": 92256,
            "time": 274.57115400000004,
            "value": 0.5433070866141733
          },
          {
            "number": 7,
            "ticks": 92304,
            "time": 274.714011,
            "value": 0.5354330708661418
          },
          {
            "number": 7,
            "ticks": 92352,
            "time": 274.856868,
            "value": 0.5275590551181102
          },
          {
            "number": 7,
            "ticks": 92400,
            "time": 274.999725,
            "value": 0.5196850393700787
          },
          {
            "number": 7,
            "ticks": 92472,
            "time": 275.21401050000003,
            "value": 0.5118110236220472
          },
          {
            "number": 7,
            "ticks": 92520,
            "time": 275.3568675,
            "value": 0.5039370078740157
          },
          {
            "number": 7,
            "ticks": 92568,
            "time": 275.4997245,
            "value": 0.49606299212598426
          },
          {
            "number": 7,
            "ticks": 92616,
            "time": 275.6425815,
            "value": 0.4881889763779528
          },
          {
            "number": 7,
            "ticks": 92688,
            "time": 275.856867,
            "value": 0.48031496062992124
          },
          {
            "number": 7,
            "ticks": 92736,
            "time": 275.999724,
            "value": 0.47244094488188976
          },
          {
            "number": 7,
            "ticks": 92784,
            "time": 276.142581,
            "value": 0.4645669291338583
          },
          {
            "number": 7,
            "ticks": 92832,
            "time": 276.285438,
            "value": 0.4566929133858268
          },
          {
            "number": 7,
            "ticks": 92904,
            "time": 276.4997235,
            "value": 0.44881889763779526
          },
          {
            "number": 7,
            "ticks": 92952,
            "time": 276.6425805,
            "value": 0.4409448818897638
          },
          {
            "number": 7,
            "ticks": 93000,
            "time": 276.7854375,
            "value": 0.4330708661417323
          },
          {
            "number": 7,
            "ticks": 93048,
            "time": 276.92829450000005,
            "value": 0.4251968503937008
          },
          {
            "number": 7,
            "ticks": 93120,
            "time": 277.14258,
            "value": 0.41732283464566927
          },
          {
            "number": 7,
            "ticks": 93168,
            "time": 277.285437,
            "value": 0.4094488188976378
          },
          {
            "number": 7,
            "ticks": 93216,
            "time": 277.42829400000005,
            "value": 0.4015748031496063
          },
          {
            "number": 7,
            "ticks": 93264,
            "time": 277.57115100000004,
            "value": 0.3937007874015748
          },
          {
            "number": 7,
            "ticks": 93312,
            "time": 277.71400800000004,
            "value": 0.3858267716535433
          },
          {
            "number": 7,
            "ticks": 93384,
            "time": 277.9282935,
            "value": 0.3779527559055118
          },
          {
            "number": 7,
            "ticks": 93432,
            "time": 278.07115050000004,
            "value": 0.3700787401574803
          },
          {
            "number": 7,
            "ticks": 93480,
            "time": 278.21400750000004,
            "value": 0.36220472440944884
          },
          {
            "number": 7,
            "ticks": 93528,
            "time": 278.35686450000003,
            "value": 0.3543307086614173
          },
          {
            "number": 7,
            "ticks": 93600,
            "time": 278.57115000000005,
            "value": 0.3464566929133858
          },
          {
            "number": 7,
            "ticks": 93648,
            "time": 278.71400700000004,
            "value": 0.33858267716535434
          },
          {
            "number": 7,
            "ticks": 93696,
            "time": 278.85686400000003,
            "value": 0.33070866141732286
          },
          {
            "number": 7,
            "ticks": 93744,
            "time": 278.999721,
            "value": 0.3228346456692913
          },
          {
            "number": 7,
            "ticks": 93816,
            "time": 279.21400650000004,
            "value": 0.31496062992125984
          },
          {
            "number": 7,
            "ticks": 93864,
            "time": 279.35686350000003,
            "value": 0.30708661417322836
          },
          {
            "number": 7,
            "ticks": 93912,
            "time": 279.4997205,
            "value": 0.2992125984251969
          },
          {
            "number": 7,
            "ticks": 93960,
            "time": 279.6425775,
            "value": 0.29133858267716534
          },
          {
            "number": 7,
            "ticks": 94032,
            "time": 279.85686300000003,
            "value": 0.28346456692913385
          },
          {
            "number": 7,
            "ticks": 94080,
            "time": 279.99972,
            "value": 0.2755905511811024
          },
          {
            "number": 7,
            "ticks": 94128,
            "time": 280.142577,
            "value": 0.2677165354330709
          },
          {
            "number": 7,
            "ticks": 94176,
            "time": 280.285434,
            "value": 0.25984251968503935
          },
          {
            "number": 7,
            "ticks": 94248,
            "time": 280.4997195,
            "value": 0.25196850393700787
          },
          {
            "number": 7,
            "ticks": 94296,
            "time": 280.6425765,
            "value": 0.2440944881889764
          },
          {
            "number": 7,
            "ticks": 94344,
            "time": 280.7854335,
            "value": 0.23622047244094488
          },
          {
            "number": 7,
            "ticks": 94392,
            "time": 280.9282905,
            "value": 0.2283464566929134
          },
          {
            "number": 7,
            "ticks": 94464,
            "time": 281.142576,
            "value": 0.2204724409448819
          },
          {
            "number": 7,
            "ticks": 94512,
            "time": 281.285433,
            "value": 0.2125984251968504
          },
          {
            "number": 7,
            "ticks": 94560,
            "time": 281.42829,
            "value": 0.2047244094488189
          },
          {
            "number": 7,
            "ticks": 94608,
            "time": 281.571147,
            "value": 0.1968503937007874
          },
          {
            "number": 7,
            "ticks": 94656,
            "time": 281.71400400000005,
            "value": 0.1889763779527559
          },
          {
            "number": 7,
            "ticks": 94728,
            "time": 281.9282895,
            "value": 0.18110236220472442
          },
          {
            "number": 7,
            "ticks": 94776,
            "time": 282.0711465,
            "value": 0.1732283464566929
          },
          {
            "number": 7,
            "ticks": 94824,
            "time": 282.21400350000005,
            "value": 0.16535433070866143
          },
          {
            "number": 7,
            "ticks": 94872,
            "time": 282.35686050000004,
            "value": 0.15748031496062992
          },
          {
            "number": 7,
            "ticks": 94944,
            "time": 282.571146,
            "value": 0.14960629921259844
          },
          {
            "number": 7,
            "ticks": 94992,
            "time": 282.71400300000005,
            "value": 0.14173228346456693
          },
          {
            "number": 7,
            "ticks": 95040,
            "time": 282.85686000000004,
            "value": 0.13385826771653545
          },
          {
            "number": 7,
            "ticks": 95088,
            "time": 282.99971700000003,
            "value": 0.12598425196850394
          },
          {
            "number": 7,
            "ticks": 95160,
            "time": 283.21400250000005,
            "value": 0.11811023622047244
          },
          {
            "number": 7,
            "ticks": 95208,
            "time": 283.35685950000004,
            "value": 0.11023622047244094
          },
          {
            "number": 7,
            "ticks": 95256,
            "time": 283.49971650000003,
            "value": 0.10236220472440945
          },
          {
            "number": 7,
            "ticks": 95304,
            "time": 283.6425735,
            "value": 0.09448818897637795
          },
          {
            "number": 7,
            "ticks": 95376,
            "time": 283.85685900000004,
            "value": 0.08661417322834646
          },
          {
            "number": 7,
            "ticks": 95424,
            "time": 283.99971600000003,
            "value": 0.07874015748031496
          },
          {
            "number": 7,
            "ticks": 95472,
            "time": 284.142573,
            "value": 0.07086614173228346
          },
          {
            "number": 7,
            "ticks": 95520,
            "time": 284.28543,
            "value": 0.06299212598425197
          },
          {
            "number": 7,
            "ticks": 95592,
            "time": 284.49971550000004,
            "value": 0.05511811023622047
          },
          {
            "number": 7,
            "ticks": 95640,
            "time": 284.6425725,
            "value": 0.047244094488188976
          },
          {
            "number": 7,
            "ticks": 95688,
            "time": 284.7854295,
            "value": 0.03937007874015748
          },
          {
            "number": 7,
            "ticks": 95736,
            "time": 284.9282865,
            "value": 0.031496062992125984
          },
          {
            "number": 7,
            "ticks": 95784,
            "time": 285.0711435,
            "value": 0.023622047244094488
          },
          {
            "number": 7,
            "ticks": 95856,
            "time": 285.285429,
            "value": 0.015748031496062992
          },
          {
            "number": 7,
            "ticks": 95904,
            "time": 285.428286,
            "value": 0.007874015748031496
          },
          {
            "number": 7,
            "ticks": 95952,
            "time": 285.571143,
            "value": 0
          },
          {
            "number": 7,
            "ticks": 96192,
            "time": 286.285428,
            "value": 0.7874015748031497
          }
        ],
        "10": [
          {
            "number": 10,
            "ticks": 0,
            "time": 0,
            "value": 0.5039370078740157
          },
          {
            "number": 10,
            "ticks": 96096,
            "time": 285.99971400000004,
            "value": 0.5039370078740157
          }
        ],
        "64": [
          {
            "number": 64,
            "ticks": 96384,
            "time": 286.85685600000005,
            "value": 0
          }
        ],
        "91": [
          {
            "number": 91,
            "ticks": 192,
            "time": 0.571428,
            "value": 0
          },
          {
            "number": 91,
            "ticks": 96048,
            "time": 285.85685700000005,
            "value": 0.31496062992125984
          }
        ],
        "93": [
          {
            "number": 93,
            "ticks": 48,
            "time": 0.142857,
            "value": 0.7559055118110236
          },
          {
            "number": 93,
            "ticks": 96336,
            "time": 286.713999,
            "value": 0
          }
        ]
      },
      "pitchBends": [
        {
          "ticks": 96432,
          "time": 286.99971300000004,
          "value": 0
        }
      ],
      "instrument": {
        "family": "bass",
        "number": 38,
        "name": "synth bass 1"
      },
      "name": "Bass Synth          ",
      "notes": [
        {
          "duration": 0.14285700000000023,
          "durationTicks": 48,
          "midi": 50,
          "name": "D3",
          "ticks": 768,
          "time": 2.285712,
          "velocity": 0.7559055118110236
        },
        {
          "duration": 0.2857139999999996,
          "durationTicks": 96,
          "midi": 50,
          "name": "D3",
          "ticks": 816,
          "time": 2.4285690000000004,
          "velocity": 0.7559055118110236
        },
        {
          "duration": 0.14285700000000023,
          "durationTicks": 48,
          "midi": 50,
          "name": "D3",
          "ticks": 912,
          "time": 2.714283,
          "velocity": 0.7559055118110236
        },
        {
          "duration": 0.285714,
          "durationTicks": 96,
          "midi": 50,
          "name": "D3",
          "ticks": 960,
          "time": 2.8571400000000002,
          "velocity": 0.7559055118110236
        },
        {
          "duration": 0.1428569999999998,
          "durationTicks": 48,
          "midi": 50,
          "name": "D3",
          "ticks": 1056,
          "time": 3.1428540000000003,
          "velocity": 0.7559055118110236
        },
        {
          "duration": 0.14285700000000023,
          "durationTicks": 48,
          "midi": 50,
          "name": "D3",
          "ticks": 1104,
          "time": 3.285711,
          "velocity": 0.7559055118110236
        },
        {
          "duration": 0.14285700000000023,
          "durationTicks": 48,
          "midi": 50,
          "name": "D3",
          "ticks": 1152,
          "time": 3.4285680000000003,
          "velocity": 0.7559055118110236
        },
        {
          "duration": 0.2857139999999996,
          "durationTicks": 96,
          "midi": 50,
          "name": "D3",
          "ticks": 1200,
          "time": 3.5714250000000005,
          "velocity": 0.7559055118110236
        },
        {
          "duration": 0.14285700000000023,
          "durationTicks": 48,
          "midi": 50,
          "name": "D3",
          "ticks": 1296,
          "time": 3.857139,
          "velocity": 0.7559055118110236
        },
        {
          "duration": 0.2857139999999996,
          "durationTicks": 96,
          "midi": 50,
          "name": "D3",
          "ticks": 1344,
          "time": 3.9999960000000003,
          "velocity": 0.7559055118110236
        },
        {
          "duration": 0.14285700000000023,
          "durationTicks": 48,
          "midi": 50,
          "name": "D3",
          "ticks": 1440,
          "time": 4.28571,
          "velocity": 0.7559055118110236
        },
        {
          "duration": 0.14285700000000023,
          "durationTicks": 48,
          "midi": 50,
          "name": "D3",
          "ticks": 1488,
          "time": 4.428567,
          "velocity": 0.7559055118110236
        },
        {
          "duration": 0.14285700000000023,
          "durationTicks": 48,
          "midi": 46,
          "name": "A#2",
          "ticks": 1536,
          "time": 4.571424,
          "velocity": 0.7559055118110236
        },
        {
          "duration": 0.2857139999999996,
          "durationTicks": 96,
          "midi": 46,
          "name": "A#2",
          "ticks": 1584,
          "time": 4.714281000000001,
          "velocity": 0.7559055118110236
        },
        {
          "duration": 0.14285700000000023,
          "durationTicks": 48,
          "midi": 46,
          "name": "A#2",
          "ticks": 1680,
          "time": 4.999995,
          "velocity": 0.7559055118110236
        },
        {
          "duration": 0.2857139999999996,
          "durationTicks": 96,
          "midi": 46,
          "name": "A#2",
          "ticks": 1728,
          "time": 5.142852,
          "velocity": 0.7559055118110236
        },
        {
          "duration": 0.14285700000000023,
          "durationTicks": 48,
          "midi": 46,
          "name": "A#2",
          "ticks": 1824,
          "time": 5.428566,
          "velocity": 0.7559055118110236
        },
        {
          "duration": 0.14285700000000023,
          "durationTicks": 48,
          "midi": 46,
          "name": "A#2",
          "ticks": 1872,
          "time": 5.571423,
          "velocity": 0.7559055118110236
        },
        {
          "duration": 0.14285700000000023,
          "durationTicks": 48,
          "midi": 46,
          "name": "A#2",
          "ticks": 1920,
          "time": 5.7142800000000005,
          "velocity": 0.7559055118110236
        },
        {
          "duration": 0.2857139999999996,
          "durationTicks": 96,
          "midi": 46,
          "name": "A#2",
          "ticks": 1968,
          "time": 5.857137000000001,
          "velocity": 0.7559055118110236
        },
        {
          "duration": 0.14285700000000023,
          "durationTicks": 48,
          "midi": 46,
          "name": "A#2",
          "ticks": 2064,
          "time": 6.142851,
          "velocity": 0.7559055118110236
        },
        {
          "duration": 0.2857139999999996,
          "durationTicks": 96,
          "midi": 46,
          "name": "A#2",
          "ticks": 2112,
          "time": 6.2857080000000005,
          "velocity": 0.7559055118110236
        },
        {
          "duration": 0.14285700000000023,
          "durationTicks": 48,
          "midi": 46,
          "name": "A#2",
          "ticks": 2208,
          "time": 6.571422,
          "velocity": 0.7559055118110236
        },
        {
          "duration": 0.14285700000000023,
          "durationTicks": 48,
          "midi": 46,
          "name": "A#2",
          "ticks": 2256,
          "time": 6.714279,
          "velocity": 0.7559055118110236
        },
        {
          "duration": 0.14285700000000023,
          "durationTicks": 48,
          "midi": 48,
          "name": "C3",
          "ticks": 2304,
          "time": 6.857136000000001,
          "velocity": 0.7559055118110236
        },
        {
          "duration": 0.2857139999999996,
          "durationTicks": 96,
          "midi": 48,
          "name": "C3",
          "ticks": 2352,
          "time": 6.999993000000001,
          "velocity": 0.7559055118110236
        },
        {
          "duration": 0.14285700000000023,
          "durationTicks": 48,
          "midi": 48,
          "name": "C3",
          "ticks": 2448,
          "time": 7.285707,
          "velocity": 0.7559055118110236
        },
        {
          "duration": 0.2857139999999996,
          "durationTicks": 96,
          "midi": 48,
          "name": "C3",
          "ticks": 2496,
          "time": 7.428564000000001,
          "velocity": 0.7559055118110236
        },
        {
          "duration": 0.14285700000000023,
          "durationTicks": 48,
          "midi": 48,
          "name": "C3",
          "ticks": 2592,
          "time": 7.714278,
          "velocity": 0.7559055118110236
        },
        {
          "duration": 0.14285700000000023,
          "durationTicks": 48,
          "midi": 48,
          "name": "C3",
          "ticks": 2640,
          "time": 7.857135,
          "velocity": 0.7559055118110236
        },
        {
          "duration": 0.14285699999999935,
          "durationTicks": 48,
          "midi": 48,
          "name": "C3",
          "ticks": 2688,
          "time": 7.999992000000001,
          "velocity": 0.7559055118110236
        },
        {
          "duration": 0.28571400000000047,
          "durationTicks": 96,
          "midi": 48,
          "name": "C3",
          "ticks": 2736,
          "time": 8.142849,
          "velocity": 0.7559055118110236
        },
        {
          "duration": 0.14285699999999935,
          "durationTicks": 48,
          "midi": 48,
          "name": "C3",
          "ticks": 2832,
          "time": 8.428563,
          "velocity": 0.7559055118110236
        },
        {
          "duration": 0.28571400000000047,
          "durationTicks": 96,
          "midi": 48,
          "name": "C3",
          "ticks": 2880,
          "time": 8.57142,
          "velocity": 0.7559055118110236
        },
        {
          "duration": 0.14285700000000112,
          "durationTicks": 48,
          "midi": 48,
          "name": "C3",
          "ticks": 2976,
          "time": 8.857134,
          "velocity": 0.7559055118110236
        },
        {
          "duration": 0.14285699999999935,
          "durationTicks": 48,
          "midi": 48,
          "name": "C3",
          "ticks": 3024,
          "time": 8.999991000000001,
          "velocity": 0.7559055118110236
        },
        {
          "duration": 0.14285699999999935,
          "durationTicks": 48,
          "midi": 45,
          "name": "A2",
          "ticks": 3072,
          "time": 9.142848,
          "velocity": 0.7559055118110236
        },
        {
          "duration": 0.28571400000000047,
          "durationTicks": 96,
          "midi": 45,
          "name": "A2",
          "ticks": 3120,
          "time": 9.285705,
          "velocity": 0.7559055118110236
        },
        {
          "duration": 0.14285700000000112,
          "durationTicks": 48,
          "midi": 45,
          "name": "A2",
          "ticks": 3216,
          "time": 9.571419,
          "velocity": 0.7559055118110236
        },
        {
          "duration": 0.2857139999999987,
          "durationTicks": 96,
          "midi": 45,
          "name": "A2",
          "ticks": 3264,
          "time": 9.714276000000002,
          "velocity": 0.7559055118110236
        },
        {
          "duration": 0.14285700000000112,
          "durationTicks": 48,
          "midi": 45,
          "name": "A2",
          "ticks": 3360,
          "time": 9.99999,
          "velocity": 0.7559055118110236
        },
        {
          "duration": 0.14285699999999935,
          "durationTicks": 48,
          "midi": 45,
          "name": "A2",
          "ticks": 3408,
          "time": 10.142847000000002,
          "velocity": 0.7559055118110236
        },
        {
          "duration": 0.14285699999999935,
          "durationTicks": 48,
          "midi": 45,
          "name": "A2",
          "ticks": 3456,
          "time": 10.285704,
          "velocity": 0.7559055118110236
        },
        {
          "duration": 0.28571400000000047,
          "durationTicks": 96,
          "midi": 45,
          "name": "A2",
          "ticks": 3504,
          "time": 10.428561,
          "velocity": 0.7559055118110236
        },
        {
          "duration": 0.14285699999999935,
          "durationTicks": 48,
          "midi": 45,
          "name": "A2",
          "ticks": 3600,
          "time": 10.714275,
          "velocity": 0.7559055118110236
        },
        {
          "duration": 0.28571400000000047,
          "durationTicks": 96,
          "midi": 45,
          "name": "A2",
          "ticks": 3648,
          "time": 10.857132,
          "velocity": 0.7559055118110236
        },
        {
          "duration": 0.14285700000000112,
          "durationTicks": 48,
          "midi": 45,
          "name": "A2",
          "ticks": 3744,
          "time": 11.142846,
          "velocity": 0.7559055118110236
        },
        {
          "duration": 0.14285699999999935,
          "durationTicks": 48,
          "midi": 45,
          "name": "A2",
          "ticks": 3792,
          "time": 11.285703000000002,
          "velocity": 0.7559055118110236
        },
        {
          "duration": 0.14285699999999935,
          "durationTicks": 48,
          "midi": 50,
          "name": "D3",
          "ticks": 3840,
          "time": 11.428560000000001,
          "velocity": 0.7559055118110236
        },
        {
          "duration": 0.28571400000000047,
          "durationTicks": 96,
          "midi": 50,
          "name": "D3",
          "ticks": 3888,
          "time": 11.571417,
          "velocity": 0.7559055118110236
        },
        {
          "duration": 0.14285700000000112,
          "durationTicks": 48,
          "midi": 50,
          "name": "D3",
          "ticks": 3984,
          "time": 11.857131,
          "velocity": 0.7559055118110236
        },
        {
          "duration": 0.2857139999999987,
          "durationTicks": 96,
          "midi": 50,
          "name": "D3",
          "ticks": 4032,
          "time": 11.999988000000002,
          "velocity": 0.7559055118110236
        },
        {
          "duration": 0.14285700000000112,
          "durationTicks": 48,
          "midi": 50,
          "name": "D3",
          "ticks": 4128,
          "time": 12.285702,
          "velocity": 0.7559055118110236
        },
        {
          "duration": 0.14285699999999935,
          "durationTicks": 48,
          "midi": 50,
          "name": "D3",
          "ticks": 4176,
          "time": 12.428559000000002,
          "velocity": 0.7559055118110236
        },
        {
          "duration": 0.14285699999999935,
          "durationTicks": 48,
          "midi": 50,
          "name": "D3",
          "ticks": 4224,
          "time": 12.571416000000001,
          "velocity": 0.7559055118110236
        },
        {
          "duration": 0.28571400000000047,
          "durationTicks": 96,
          "midi": 50,
          "name": "D3",
          "ticks": 4272,
          "time": 12.714273,
          "velocity": 0.7559055118110236
        },
        {
          "duration": 0.14285699999999935,
          "durationTicks": 48,
          "midi": 50,
          "name": "D3",
          "ticks": 4368,
          "time": 12.999987,
          "velocity": 0.7559055118110236
        },
        {
          "duration": 0.28571400000000047,
          "durationTicks": 96,
          "midi": 50,
          "name": "D3",
          "ticks": 4416,
          "time": 13.142844,
          "velocity": 0.7559055118110236
        },
        {
          "duration": 0.14285700000000112,
          "durationTicks": 48,
          "midi": 50,
          "name": "D3",
          "ticks": 4512,
          "time": 13.428558,
          "velocity": 0.7559055118110236
        },
        {
          "duration": 0.14285699999999935,
          "durationTicks": 48,
          "midi": 50,
          "name": "D3",
          "ticks": 4560,
          "time": 13.571415000000002,
          "velocity": 0.7559055118110236
        },
        {
          "duration": 0.14285699999999935,
          "durationTicks": 48,
          "midi": 46,
          "name": "A#2",
          "ticks": 4608,
          "time": 13.714272000000001,
          "velocity": 0.7559055118110236
        },
        {
          "duration": 0.28571400000000047,
          "durationTicks": 96,
          "midi": 46,
          "name": "A#2",
          "ticks": 4656,
          "time": 13.857129,
          "velocity": 0.7559055118110236
        },
        {
          "duration": 0.14285700000000112,
          "durationTicks": 48,
          "midi": 46,
          "name": "A#2",
          "ticks": 4752,
          "time": 14.142843000000001,
          "velocity": 0.7559055118110236
        },
        {
          "duration": 0.2857139999999987,
          "durationTicks": 96,
          "midi": 46,
          "name": "A#2",
          "ticks": 4800,
          "time": 14.285700000000002,
          "velocity": 0.7559055118110236
        },
        {
          "duration": 0.14285700000000112,
          "durationTicks": 48,
          "midi": 46,
          "name": "A#2",
          "ticks": 4896,
          "time": 14.571414,
          "velocity": 0.7559055118110236
        },
        {
          "duration": 0.14285699999999935,
          "durationTicks": 48,
          "midi": 46,
          "name": "A#2",
          "ticks": 4944,
          "time": 14.714271000000002,
          "velocity": 0.7559055118110236
        },
        {
          "duration": 0.14285699999999935,
          "durationTicks": 48,
          "midi": 46,
          "name": "A#2",
          "ticks": 4992,
          "time": 14.857128000000001,
          "velocity": 0.7559055118110236
        },
        {
          "duration": 0.28571400000000047,
          "durationTicks": 96,
          "midi": 46,
          "name": "A#2",
          "ticks": 5040,
          "time": 14.999985,
          "velocity": 0.7559055118110236
        },
        {
          "duration": 0.14285699999999935,
          "durationTicks": 48,
          "midi": 46,
          "name": "A#2",
          "ticks": 5136,
          "time": 15.285699000000001,
          "velocity": 0.7559055118110236
        },
        {
          "duration": 0.28571400000000047,
          "durationTicks": 96,
          "midi": 46,
          "name": "A#2",
          "ticks": 5184,
          "time": 15.428556,
          "velocity": 0.7559055118110236
        },
        {
          "duration": 0.14285700000000112,
          "durationTicks": 48,
          "midi": 46,
          "name": "A#2",
          "ticks": 5280,
          "time": 15.71427,
          "velocity": 0.7559055118110236
        },
        {
          "duration": 0.14285699999999935,
          "durationTicks": 48,
          "midi": 46,
          "name": "A#2",
          "ticks": 5328,
          "time": 15.857127000000002,
          "velocity": 0.7559055118110236
        },
        {
          "duration": 0.14285699999999935,
          "durationTicks": 48,
          "midi": 48,
          "name": "C3",
          "ticks": 5376,
          "time": 15.999984000000001,
          "velocity": 0.7559055118110236
        },
        {
          "duration": 0.28571400000000224,
          "durationTicks": 96,
          "midi": 48,
          "name": "C3",
          "ticks": 5424,
          "time": 16.142841,
          "velocity": 0.7559055118110236
        },
        {
          "duration": 0.14285699999999935,
          "durationTicks": 48,
          "midi": 48,
          "name": "C3",
          "ticks": 5520,
          "time": 16.428555000000003,
          "velocity": 0.7559055118110236
        },
        {
          "duration": 0.2857139999999987,
          "durationTicks": 96,
          "midi": 48,
          "name": "C3",
          "ticks": 5568,
          "time": 16.571412000000002,
          "velocity": 0.7559055118110236
        },
        {
          "duration": 0.14285699999999935,
          "durationTicks": 48,
          "midi": 48,
          "name": "C3",
          "ticks": 5664,
          "time": 16.857126,
          "velocity": 0.7559055118110236
        },
        {
          "duration": 0.14285699999999935,
          "durationTicks": 48,
          "midi": 48,
          "name": "C3",
          "ticks": 5712,
          "time": 16.999983,
          "velocity": 0.7559055118110236
        },
        {
          "duration": 0.1428570000000029,
          "durationTicks": 48,
          "midi": 48,
          "name": "C3",
          "ticks": 5760,
          "time": 17.14284,
          "velocity": 0.7559055118110236
        },
        {
          "duration": 0.2857139999999987,
          "durationTicks": 96,
          "midi": 48,
          "name": "C3",
          "ticks": 5808,
          "time": 17.285697000000003,
          "velocity": 0.7559055118110236
        },
        {
          "duration": 0.14285699999999935,
          "durationTicks": 48,
          "midi": 48,
          "name": "C3",
          "ticks": 5904,
          "time": 17.571411,
          "velocity": 0.7559055118110236
        },
        {
          "duration": 0.28571400000000224,
          "durationTicks": 96,
          "midi": 48,
          "name": "C3",
          "ticks": 5952,
          "time": 17.714268,
          "velocity": 0.7559055118110236
        },
        {
          "duration": 0.14285699999999935,
          "durationTicks": 48,
          "midi": 48,
          "name": "C3",
          "ticks": 6048,
          "time": 17.999982000000003,
          "velocity": 0.7559055118110236
        },
        {
          "duration": 0.14285699999999935,
          "durationTicks": 48,
          "midi": 48,
          "name": "C3",
          "ticks": 6096,
          "time": 18.142839000000002,
          "velocity": 0.7559055118110236
        },
        {
          "duration": 0.14285699999999935,
          "durationTicks": 48,
          "midi": 45,
          "name": "A2",
          "ticks": 6144,
          "time": 18.285696,
          "velocity": 0.7559055118110236
        },
        {
          "duration": 0.28571400000000224,
          "durationTicks": 96,
          "midi": 45,
          "name": "A2",
          "ticks": 6192,
          "time": 18.428553,
          "velocity": 0.7559055118110236
        },
        {
          "duration": 0.14285699999999935,
          "durationTicks": 48,
          "midi": 45,
          "name": "A2",
          "ticks": 6288,
          "time": 18.714267000000003,
          "velocity": 0.7559055118110236
        },
        {
          "duration": 0.2857139999999987,
          "durationTicks": 96,
          "midi": 45,
          "name": "A2",
          "ticks": 6336,
          "time": 18.857124000000002,
          "velocity": 0.7559055118110236
        },
        {
          "duration": 0.14285699999999935,
          "durationTicks": 48,
          "midi": 45,
          "name": "A2",
          "ticks": 6432,
          "time": 19.142838,
          "velocity": 0.7559055118110236
        },
        {
          "duration": 0.1428570000000029,
          "durationTicks": 48,
          "midi": 45,
          "name": "A2",
          "ticks": 6480,
          "time": 19.285695,
          "velocity": 0.7559055118110236
        },
        {
          "duration": 0.14285699999999935,
          "durationTicks": 48,
          "midi": 45,
          "name": "A2",
          "ticks": 6528,
          "time": 19.428552000000003,
          "velocity": 0.7559055118110236
        },
        {
          "duration": 0.2857139999999987,
          "durationTicks": 96,
          "midi": 45,
          "name": "A2",
          "ticks": 6576,
          "time": 19.571409000000003,
          "velocity": 0.7559055118110236
        },
        {
          "duration": 0.14285699999999935,
          "durationTicks": 48,
          "midi": 45,
          "name": "A2",
          "ticks": 6672,
          "time": 19.857123,
          "velocity": 0.7559055118110236
        },
        {
          "duration": 0.28571400000000224,
          "durationTicks": 96,
          "midi": 45,
          "name": "A2",
          "ticks": 6720,
          "time": 19.99998,
          "velocity": 0.7559055118110236
        },
        {
          "duration": 0.14285699999999935,
          "durationTicks": 48,
          "midi": 45,
          "name": "A2",
          "ticks": 6816,
          "time": 20.285694000000003,
          "velocity": 0.7559055118110236
        },
        {
          "duration": 0.14285699999999935,
          "durationTicks": 48,
          "midi": 45,
          "name": "A2",
          "ticks": 6864,
          "time": 20.428551000000002,
          "velocity": 0.7559055118110236
        },
        {
          "duration": 0.14285699999999935,
          "durationTicks": 48,
          "midi": 50,
          "name": "D3",
          "ticks": 6912,
          "time": 20.571408,
          "velocity": 0.7559055118110236
        },
        {
          "duration": 0.28571400000000224,
          "durationTicks": 96,
          "midi": 50,
          "name": "D3",
          "ticks": 6960,
          "time": 20.714265,
          "velocity": 0.7559055118110236
        },
        {
          "duration": 0.14285699999999935,
          "durationTicks": 48,
          "midi": 50,
          "name": "D3",
          "ticks": 7056,
          "time": 20.999979000000003,
          "velocity": 0.7559055118110236
        },
        {
          "duration": 0.2857139999999987,
          "durationTicks": 96,
          "midi": 50,
          "name": "D3",
          "ticks": 7104,
          "time": 21.142836000000003,
          "velocity": 0.7559055118110236
        },
        {
          "duration": 0.14285699999999935,
          "durationTicks": 48,
          "midi": 50,
          "name": "D3",
          "ticks": 7200,
          "time": 21.42855,
          "velocity": 0.7559055118110236
        },
        {
          "duration": 0.14285699999999935,
          "durationTicks": 48,
          "midi": 50,
          "name": "D3",
          "ticks": 7248,
          "time": 21.571407,
          "velocity": 0.7559055118110236
        },
        {
          "duration": 0.1428570000000029,
          "durationTicks": 48,
          "midi": 50,
          "name": "D3",
          "ticks": 7296,
          "time": 21.714264,
          "velocity": 0.7559055118110236
        },
        {
          "duration": 0.2857139999999987,
          "durationTicks": 96,
          "midi": 50,
          "name": "D3",
          "ticks": 7344,
          "time": 21.857121000000003,
          "velocity": 0.7559055118110236
        },
        {
          "duration": 0.14285699999999935,
          "durationTicks": 48,
          "midi": 50,
          "name": "D3",
          "ticks": 7440,
          "time": 22.142835,
          "velocity": 0.7559055118110236
        },
        {
          "duration": 0.28571400000000224,
          "durationTicks": 96,
          "midi": 50,
          "name": "D3",
          "ticks": 7488,
          "time": 22.285692,
          "velocity": 0.7559055118110236
        },
        {
          "duration": 0.14285699999999935,
          "durationTicks": 48,
          "midi": 50,
          "name": "D3",
          "ticks": 7584,
          "time": 22.571406000000003,
          "velocity": 0.7559055118110236
        },
        {
          "duration": 0.14285699999999935,
          "durationTicks": 48,
          "midi": 50,
          "name": "D3",
          "ticks": 7632,
          "time": 22.714263000000003,
          "velocity": 0.7559055118110236
        },
        {
          "duration": 0.14285699999999935,
          "durationTicks": 48,
          "midi": 46,
          "name": "A#2",
          "ticks": 7680,
          "time": 22.857120000000002,
          "velocity": 0.7559055118110236
        },
        {
          "duration": 0.28571400000000224,
          "durationTicks": 96,
          "midi": 46,
          "name": "A#2",
          "ticks": 7728,
          "time": 22.999977,
          "velocity": 0.7559055118110236
        },
        {
          "duration": 0.14285699999999935,
          "durationTicks": 48,
          "midi": 46,
          "name": "A#2",
          "ticks": 7824,
          "time": 23.285691000000003,
          "velocity": 0.7559055118110236
        },
        {
          "duration": 0.2857139999999987,
          "durationTicks": 96,
          "midi": 46,
          "name": "A#2",
          "ticks": 7872,
          "time": 23.428548000000003,
          "velocity": 0.7559055118110236
        },
        {
          "duration": 0.14285699999999935,
          "durationTicks": 48,
          "midi": 46,
          "name": "A#2",
          "ticks": 7968,
          "time": 23.714262,
          "velocity": 0.7559055118110236
        },
        {
          "duration": 0.1428570000000029,
          "durationTicks": 48,
          "midi": 46,
          "name": "A#2",
          "ticks": 8016,
          "time": 23.857119,
          "velocity": 0.7559055118110236
        },
        {
          "duration": 0.14285699999999935,
          "durationTicks": 48,
          "midi": 46,
          "name": "A#2",
          "ticks": 8064,
          "time": 23.999976000000004,
          "velocity": 0.7559055118110236
        },
        {
          "duration": 0.2857139999999987,
          "durationTicks": 96,
          "midi": 46,
          "name": "A#2",
          "ticks": 8112,
          "time": 24.142833000000003,
          "velocity": 0.7559055118110236
        },
        {
          "duration": 0.14285699999999935,
          "durationTicks": 48,
          "midi": 46,
          "name": "A#2",
          "ticks": 8208,
          "time": 24.428547000000002,
          "velocity": 0.7559055118110236
        },
        {
          "duration": 0.28571400000000224,
          "durationTicks": 96,
          "midi": 46,
          "name": "A#2",
          "ticks": 8256,
          "time": 24.571404,
          "velocity": 0.7559055118110236
        },
        {
          "duration": 0.14285699999999935,
          "durationTicks": 48,
          "midi": 46,
          "name": "A#2",
          "ticks": 8352,
          "time": 24.857118000000003,
          "velocity": 0.7559055118110236
        },
        {
          "duration": 0.14285699999999935,
          "durationTicks": 48,
          "midi": 46,
          "name": "A#2",
          "ticks": 8400,
          "time": 24.999975000000003,
          "velocity": 0.7559055118110236
        },
        {
          "duration": 0.14285699999999935,
          "durationTicks": 48,
          "midi": 48,
          "name": "C3",
          "ticks": 8448,
          "time": 25.142832000000002,
          "velocity": 0.7559055118110236
        },
        {
          "duration": 0.28571400000000224,
          "durationTicks": 96,
          "midi": 48,
          "name": "C3",
          "ticks": 8496,
          "time": 25.285689,
          "velocity": 0.7559055118110236
        },
        {
          "duration": 0.14285699999999935,
          "durationTicks": 48,
          "midi": 48,
          "name": "C3",
          "ticks": 8592,
          "time": 25.571403000000004,
          "velocity": 0.7559055118110236
        },
        {
          "duration": 0.2857139999999987,
          "durationTicks": 96,
          "midi": 48,
          "name": "C3",
          "ticks": 8640,
          "time": 25.714260000000003,
          "velocity": 0.7559055118110236
        },
        {
          "duration": 0.14285699999999935,
          "durationTicks": 48,
          "midi": 48,
          "name": "C3",
          "ticks": 8736,
          "time": 25.999974,
          "velocity": 0.7559055118110236
        },
        {
          "duration": 0.14285699999999935,
          "durationTicks": 48,
          "midi": 48,
          "name": "C3",
          "ticks": 8784,
          "time": 26.142831,
          "velocity": 0.7559055118110236
        },
        {
          "duration": 0.1428570000000029,
          "durationTicks": 48,
          "midi": 48,
          "name": "C3",
          "ticks": 8832,
          "time": 26.285688,
          "velocity": 0.7559055118110236
        },
        {
          "duration": 0.2857139999999987,
          "durationTicks": 96,
          "midi": 48,
          "name": "C3",
          "ticks": 8880,
          "time": 26.428545000000003,
          "velocity": 0.7559055118110236
        },
        {
          "duration": 0.14285699999999935,
          "durationTicks": 48,
          "midi": 48,
          "name": "C3",
          "ticks": 8976,
          "time": 26.714259000000002,
          "velocity": 0.7559055118110236
        },
        {
          "duration": 0.28571400000000224,
          "durationTicks": 96,
          "midi": 48,
          "name": "C3",
          "ticks": 9024,
          "time": 26.857116,
          "velocity": 0.7559055118110236
        },
        {
          "duration": 0.14285699999999935,
          "durationTicks": 48,
          "midi": 48,
          "name": "C3",
          "ticks": 9120,
          "time": 27.142830000000004,
          "velocity": 0.7559055118110236
        },
        {
          "duration": 0.14285699999999935,
          "durationTicks": 48,
          "midi": 48,
          "name": "C3",
          "ticks": 9168,
          "time": 27.285687000000003,
          "velocity": 0.7559055118110236
        },
        {
          "duration": 0.14285699999999935,
          "durationTicks": 48,
          "midi": 45,
          "name": "A2",
          "ticks": 9216,
          "time": 27.428544000000002,
          "velocity": 0.7559055118110236
        },
        {
          "duration": 0.28571400000000224,
          "durationTicks": 96,
          "midi": 45,
          "name": "A2",
          "ticks": 9264,
          "time": 27.571401,
          "velocity": 0.7559055118110236
        },
        {
          "duration": 0.14285699999999935,
          "durationTicks": 48,
          "midi": 45,
          "name": "A2",
          "ticks": 9360,
          "time": 27.857115000000004,
          "velocity": 0.7559055118110236
        },
        {
          "duration": 0.2857139999999987,
          "durationTicks": 96,
          "midi": 45,
          "name": "A2",
          "ticks": 9408,
          "time": 27.999972000000003,
          "velocity": 0.7559055118110236
        },
        {
          "duration": 0.14285699999999935,
          "durationTicks": 48,
          "midi": 45,
          "name": "A2",
          "ticks": 9504,
          "time": 28.285686000000002,
          "velocity": 0.7559055118110236
        },
        {
          "duration": 0.1428570000000029,
          "durationTicks": 48,
          "midi": 45,
          "name": "A2",
          "ticks": 9552,
          "time": 28.428543,
          "velocity": 0.7559055118110236
        },
        {
          "duration": 0.14285699999999935,
          "durationTicks": 48,
          "midi": 45,
          "name": "A2",
          "ticks": 9600,
          "time": 28.571400000000004,
          "velocity": 0.7559055118110236
        },
        {
          "duration": 0.2857139999999987,
          "durationTicks": 96,
          "midi": 45,
          "name": "A2",
          "ticks": 9648,
          "time": 28.714257000000003,
          "velocity": 0.7559055118110236
        },
        {
          "duration": 0.14285699999999935,
          "durationTicks": 48,
          "midi": 45,
          "name": "A2",
          "ticks": 9744,
          "time": 28.999971000000002,
          "velocity": 0.7559055118110236
        },
        {
          "duration": 0.28571400000000224,
          "durationTicks": 96,
          "midi": 45,
          "name": "A2",
          "ticks": 9792,
          "time": 29.142828,
          "velocity": 0.7559055118110236
        },
        {
          "duration": 0.14285699999999935,
          "durationTicks": 48,
          "midi": 45,
          "name": "A2",
          "ticks": 9888,
          "time": 29.428542000000004,
          "velocity": 0.7559055118110236
        },
        {
          "duration": 0.14285699999999935,
          "durationTicks": 48,
          "midi": 45,
          "name": "A2",
          "ticks": 9936,
          "time": 29.571399000000003,
          "velocity": 0.7559055118110236
        },
        {
          "duration": 0.14285699999999935,
          "durationTicks": 48,
          "midi": 50,
          "name": "D3",
          "ticks": 9984,
          "time": 29.714256000000002,
          "velocity": 0.7559055118110236
        },
        {
          "duration": 0.28571400000000224,
          "durationTicks": 96,
          "midi": 50,
          "name": "D3",
          "ticks": 10032,
          "time": 29.857113000000002,
          "velocity": 0.7559055118110236
        },
        {
          "duration": 0.14285699999999935,
          "durationTicks": 48,
          "midi": 50,
          "name": "D3",
          "ticks": 10128,
          "time": 30.142827000000004,
          "velocity": 0.7559055118110236
        },
        {
          "duration": 0.2857139999999987,
          "durationTicks": 96,
          "midi": 50,
          "name": "D3",
          "ticks": 10176,
          "time": 30.285684000000003,
          "velocity": 0.7559055118110236
        },
        {
          "duration": 0.14285699999999935,
          "durationTicks": 48,
          "midi": 50,
          "name": "D3",
          "ticks": 10272,
          "time": 30.571398000000002,
          "velocity": 0.7559055118110236
        },
        {
          "duration": 0.14285699999999935,
          "durationTicks": 48,
          "midi": 50,
          "name": "D3",
          "ticks": 10320,
          "time": 30.714255,
          "velocity": 0.7559055118110236
        },
        {
          "duration": 0.1428570000000029,
          "durationTicks": 48,
          "midi": 50,
          "name": "D3",
          "ticks": 10368,
          "time": 30.857112,
          "velocity": 0.7559055118110236
        },
        {
          "duration": 0.2857139999999987,
          "durationTicks": 96,
          "midi": 50,
          "name": "D3",
          "ticks": 10416,
          "time": 30.999969000000004,
          "velocity": 0.7559055118110236
        },
        {
          "duration": 0.14285699999999935,
          "durationTicks": 48,
          "midi": 50,
          "name": "D3",
          "ticks": 10512,
          "time": 31.285683000000002,
          "velocity": 0.7559055118110236
        },
        {
          "duration": 0.28571400000000224,
          "durationTicks": 96,
          "midi": 50,
          "name": "D3",
          "ticks": 10560,
          "time": 31.42854,
          "velocity": 0.7559055118110236
        },
        {
          "duration": 0.14285699999999935,
          "durationTicks": 48,
          "midi": 50,
          "name": "D3",
          "ticks": 10656,
          "time": 31.714254000000004,
          "velocity": 0.7559055118110236
        },
        {
          "duration": 0.14285699999999935,
          "durationTicks": 48,
          "midi": 50,
          "name": "D3",
          "ticks": 10704,
          "time": 31.857111000000003,
          "velocity": 0.7559055118110236
        },
        {
          "duration": 0.14285699999999935,
          "durationTicks": 48,
          "midi": 46,
          "name": "A#2",
          "ticks": 10752,
          "time": 31.999968000000003,
          "velocity": 0.7559055118110236
        },
        {
          "duration": 0.2857139999999987,
          "durationTicks": 96,
          "midi": 46,
          "name": "A#2",
          "ticks": 10800,
          "time": 32.142825,
          "velocity": 0.7559055118110236
        },
        {
          "duration": 0.14285699999999935,
          "durationTicks": 48,
          "midi": 46,
          "name": "A#2",
          "ticks": 10896,
          "time": 32.428539,
          "velocity": 0.7559055118110236
        },
        {
          "duration": 0.2857140000000058,
          "durationTicks": 96,
          "midi": 46,
          "name": "A#2",
          "ticks": 10944,
          "time": 32.571396,
          "velocity": 0.7559055118110236
        },
        {
          "duration": 0.14285699999999935,
          "durationTicks": 48,
          "midi": 46,
          "name": "A#2",
          "ticks": 11040,
          "time": 32.857110000000006,
          "velocity": 0.7559055118110236
        },
        {
          "duration": 0.14285699999999935,
          "durationTicks": 48,
          "midi": 46,
          "name": "A#2",
          "ticks": 11088,
          "time": 32.999967000000005,
          "velocity": 0.7559055118110236
        },
        {
          "duration": 0.14285699999999935,
          "durationTicks": 48,
          "midi": 46,
          "name": "A#2",
          "ticks": 11136,
          "time": 33.142824000000005,
          "velocity": 0.7559055118110236
        },
        {
          "duration": 0.2857139999999987,
          "durationTicks": 96,
          "midi": 46,
          "name": "A#2",
          "ticks": 11184,
          "time": 33.285681000000004,
          "velocity": 0.7559055118110236
        },
        {
          "duration": 0.14285699999999935,
          "durationTicks": 48,
          "midi": 46,
          "name": "A#2",
          "ticks": 11280,
          "time": 33.571395,
          "velocity": 0.7559055118110236
        },
        {
          "duration": 0.2857139999999987,
          "durationTicks": 96,
          "midi": 46,
          "name": "A#2",
          "ticks": 11328,
          "time": 33.714252,
          "velocity": 0.7559055118110236
        },
        {
          "duration": 0.14285699999999935,
          "durationTicks": 48,
          "midi": 46,
          "name": "A#2",
          "ticks": 11424,
          "time": 33.999966,
          "velocity": 0.7559055118110236
        },
        {
          "duration": 0.14285699999999935,
          "durationTicks": 48,
          "midi": 46,
          "name": "A#2",
          "ticks": 11472,
          "time": 34.142823,
          "velocity": 0.7559055118110236
        },
        {
          "duration": 0.14285700000000645,
          "durationTicks": 48,
          "midi": 48,
          "name": "C3",
          "ticks": 11520,
          "time": 34.28568,
          "velocity": 0.7559055118110236
        },
        {
          "duration": 0.2857139999999987,
          "durationTicks": 96,
          "midi": 48,
          "name": "C3",
          "ticks": 11568,
          "time": 34.428537000000006,
          "velocity": 0.7559055118110236
        },
        {
          "duration": 0.14285699999999935,
          "durationTicks": 48,
          "midi": 48,
          "name": "C3",
          "ticks": 11664,
          "time": 34.714251000000004,
          "velocity": 0.7559055118110236
        },
        {
          "duration": 0.2857139999999987,
          "durationTicks": 96,
          "midi": 48,
          "name": "C3",
          "ticks": 11712,
          "time": 34.857108000000004,
          "velocity": 0.7559055118110236
        },
        {
          "duration": 0.14285699999999935,
          "durationTicks": 48,
          "midi": 48,
          "name": "C3",
          "ticks": 11808,
          "time": 35.142822,
          "velocity": 0.7559055118110236
        },
        {
          "duration": 0.14285699999999935,
          "durationTicks": 48,
          "midi": 48,
          "name": "C3",
          "ticks": 11856,
          "time": 35.285679,
          "velocity": 0.7559055118110236
        },
        {
          "duration": 0.14285699999999935,
          "durationTicks": 48,
          "midi": 48,
          "name": "C3",
          "ticks": 11904,
          "time": 35.428536,
          "velocity": 0.7559055118110236
        },
        {
          "duration": 0.2857140000000058,
          "durationTicks": 96,
          "midi": 48,
          "name": "C3",
          "ticks": 11952,
          "time": 35.571393,
          "velocity": 0.7559055118110236
        },
        {
          "duration": 0.14285699999999935,
          "durationTicks": 48,
          "midi": 48,
          "name": "C3",
          "ticks": 12048,
          "time": 35.857107000000006,
          "velocity": 0.7559055118110236
        },
        {
          "duration": 0.2857139999999987,
          "durationTicks": 96,
          "midi": 48,
          "name": "C3",
          "ticks": 12096,
          "time": 35.999964000000006,
          "velocity": 0.7559055118110236
        },
        {
          "duration": 0.14285699999999935,
          "durationTicks": 48,
          "midi": 48,
          "name": "C3",
          "ticks": 12192,
          "time": 36.285678000000004,
          "velocity": 0.7559055118110236
        },
        {
          "duration": 0.14285699999999935,
          "durationTicks": 48,
          "midi": 48,
          "name": "C3",
          "ticks": 12240,
          "time": 36.428535000000004,
          "velocity": 0.7559055118110236
        },
        {
          "duration": 0.14285699999999935,
          "durationTicks": 48,
          "midi": 45,
          "name": "A2",
          "ticks": 12288,
          "time": 36.571392,
          "velocity": 0.7559055118110236
        },
        {
          "duration": 0.2857139999999987,
          "durationTicks": 96,
          "midi": 45,
          "name": "A2",
          "ticks": 12336,
          "time": 36.714249,
          "velocity": 0.7559055118110236
        },
        {
          "duration": 0.14285699999999935,
          "durationTicks": 48,
          "midi": 45,
          "name": "A2",
          "ticks": 12432,
          "time": 36.999963,
          "velocity": 0.7559055118110236
        },
        {
          "duration": 0.2857140000000058,
          "durationTicks": 96,
          "midi": 45,
          "name": "A2",
          "ticks": 12480,
          "time": 37.14282,
          "velocity": 0.7559055118110236
        },
        {
          "duration": 0.14285699999999935,
          "durationTicks": 48,
          "midi": 45,
          "name": "A2",
          "ticks": 12576,
          "time": 37.428534000000006,
          "velocity": 0.7559055118110236
        },
        {
          "duration": 0.14285699999999935,
          "durationTicks": 48,
          "midi": 45,
          "name": "A2",
          "ticks": 12624,
          "time": 37.571391000000006,
          "velocity": 0.7559055118110236
        },
        {
          "duration": 0.14285699999999935,
          "durationTicks": 48,
          "midi": 45,
          "name": "A2",
          "ticks": 12672,
          "time": 37.714248000000005,
          "velocity": 0.7559055118110236
        },
        {
          "duration": 0.2857139999999987,
          "durationTicks": 96,
          "midi": 45,
          "name": "A2",
          "ticks": 12720,
          "time": 37.857105000000004,
          "velocity": 0.7559055118110236
        },
        {
          "duration": 0.14285699999999935,
          "durationTicks": 48,
          "midi": 45,
          "name": "A2",
          "ticks": 12816,
          "time": 38.142819,
          "velocity": 0.7559055118110236
        },
        {
          "duration": 0.2857139999999987,
          "durationTicks": 96,
          "midi": 45,
          "name": "A2",
          "ticks": 12864,
          "time": 38.285676,
          "velocity": 0.7559055118110236
        },
        {
          "duration": 0.14285699999999935,
          "durationTicks": 48,
          "midi": 45,
          "name": "A2",
          "ticks": 12960,
          "time": 38.57139,
          "velocity": 0.7559055118110236
        },
        {
          "duration": 0.14285700000000645,
          "durationTicks": 48,
          "midi": 45,
          "name": "A2",
          "ticks": 13008,
          "time": 38.714247,
          "velocity": 0.7559055118110236
        },
        {
          "duration": 0.14285699999999935,
          "durationTicks": 48,
          "midi": 50,
          "name": "D3",
          "ticks": 13056,
          "time": 38.85710400000001,
          "velocity": 0.7559055118110236
        },
        {
          "duration": 0.2857139999999987,
          "durationTicks": 96,
          "midi": 50,
          "name": "D3",
          "ticks": 13104,
          "time": 38.999961000000006,
          "velocity": 0.7559055118110236
        },
        {
          "duration": 0.14285699999999935,
          "durationTicks": 48,
          "midi": 50,
          "name": "D3",
          "ticks": 13200,
          "time": 39.285675000000005,
          "velocity": 0.7559055118110236
        },
        {
          "duration": 0.2857139999999987,
          "durationTicks": 96,
          "midi": 50,
          "name": "D3",
          "ticks": 13248,
          "time": 39.428532000000004,
          "velocity": 0.7559055118110236
        },
        {
          "duration": 0.14285699999999935,
          "durationTicks": 48,
          "midi": 50,
          "name": "D3",
          "ticks": 13344,
          "time": 39.714246,
          "velocity": 0.7559055118110236
        },
        {
          "duration": 0.14285699999999935,
          "durationTicks": 48,
          "midi": 50,
          "name": "D3",
          "ticks": 13392,
          "time": 39.857103,
          "velocity": 0.7559055118110236
        },
        {
          "duration": 0.14285699999999935,
          "durationTicks": 48,
          "midi": 46,
          "name": "A#2",
          "ticks": 13440,
          "time": 39.99996,
          "velocity": 0.7559055118110236
        },
        {
          "duration": 0.2857140000000058,
          "durationTicks": 96,
          "midi": 46,
          "name": "A#2",
          "ticks": 13488,
          "time": 40.142817,
          "velocity": 0.7559055118110236
        },
        {
          "duration": 0.14285699999999935,
          "durationTicks": 48,
          "midi": 46,
          "name": "A#2",
          "ticks": 13584,
          "time": 40.42853100000001,
          "velocity": 0.7559055118110236
        },
        {
          "duration": 0.2857139999999987,
          "durationTicks": 96,
          "midi": 46,
          "name": "A#2",
          "ticks": 13632,
          "time": 40.571388000000006,
          "velocity": 0.7559055118110236
        },
        {
          "duration": 0.14285699999999935,
          "durationTicks": 48,
          "midi": 46,
          "name": "A#2",
          "ticks": 13728,
          "time": 40.857102000000005,
          "velocity": 0.7559055118110236
        },
        {
          "duration": 0.14285699999999935,
          "durationTicks": 48,
          "midi": 46,
          "name": "A#2",
          "ticks": 13776,
          "time": 40.999959000000004,
          "velocity": 0.7559055118110236
        },
        {
          "duration": 0.14285699999999935,
          "durationTicks": 48,
          "midi": 48,
          "name": "C3",
          "ticks": 13824,
          "time": 41.142816,
          "velocity": 0.7559055118110236
        },
        {
          "duration": 0.2857139999999987,
          "durationTicks": 96,
          "midi": 48,
          "name": "C3",
          "ticks": 13872,
          "time": 41.285673,
          "velocity": 0.7559055118110236
        },
        {
          "duration": 0.14285699999999935,
          "durationTicks": 48,
          "midi": 48,
          "name": "C3",
          "ticks": 13968,
          "time": 41.571387,
          "velocity": 0.7559055118110236
        },
        {
          "duration": 0.2857140000000058,
          "durationTicks": 96,
          "midi": 48,
          "name": "C3",
          "ticks": 14016,
          "time": 41.714244,
          "velocity": 0.7559055118110236
        },
        {
          "duration": 0.14285699999999935,
          "durationTicks": 48,
          "midi": 48,
          "name": "C3",
          "ticks": 14112,
          "time": 41.99995800000001,
          "velocity": 0.7559055118110236
        },
        {
          "duration": 0.14285699999999935,
          "durationTicks": 48,
          "midi": 48,
          "name": "C3",
          "ticks": 14160,
          "time": 42.142815000000006,
          "velocity": 0.7559055118110236
        },
        {
          "duration": 0.14285699999999935,
          "durationTicks": 48,
          "midi": 45,
          "name": "A2",
          "ticks": 14208,
          "time": 42.285672000000005,
          "velocity": 0.7559055118110236
        },
        {
          "duration": 0.2857139999999987,
          "durationTicks": 96,
          "midi": 45,
          "name": "A2",
          "ticks": 14256,
          "time": 42.428529000000005,
          "velocity": 0.7559055118110236
        },
        {
          "duration": 0.14285699999999935,
          "durationTicks": 48,
          "midi": 45,
          "name": "A2",
          "ticks": 14352,
          "time": 42.714243,
          "velocity": 0.7559055118110236
        },
        {
          "duration": 0.2857139999999987,
          "durationTicks": 96,
          "midi": 45,
          "name": "A2",
          "ticks": 14400,
          "time": 42.8571,
          "velocity": 0.7559055118110236
        },
        {
          "duration": 0.14285699999999935,
          "durationTicks": 48,
          "midi": 45,
          "name": "A2",
          "ticks": 14496,
          "time": 43.142814,
          "velocity": 0.7559055118110236
        },
        {
          "duration": 0.14285699999999935,
          "durationTicks": 48,
          "midi": 45,
          "name": "A2",
          "ticks": 14544,
          "time": 43.285671,
          "velocity": 0.7559055118110236
        },
        {
          "duration": 0.14285700000000645,
          "durationTicks": 48,
          "midi": 46,
          "name": "A#2",
          "ticks": 14592,
          "time": 43.428528,
          "velocity": 0.7559055118110236
        },
        {
          "duration": 0.2857139999999987,
          "durationTicks": 96,
          "midi": 46,
          "name": "A#2",
          "ticks": 14640,
          "time": 43.57138500000001,
          "velocity": 0.7559055118110236
        },
        {
          "duration": 0.14285699999999935,
          "durationTicks": 48,
          "midi": 46,
          "name": "A#2",
          "ticks": 14736,
          "time": 43.857099000000005,
          "velocity": 0.7559055118110236
        },
        {
          "duration": 0.2857139999999987,
          "durationTicks": 96,
          "midi": 46,
          "name": "A#2",
          "ticks": 14784,
          "time": 43.999956000000005,
          "velocity": 0.7559055118110236
        },
        {
          "duration": 0.14285699999999935,
          "durationTicks": 48,
          "midi": 46,
          "name": "A#2",
          "ticks": 14880,
          "time": 44.28567,
          "velocity": 0.7559055118110236
        },
        {
          "duration": 0.14285699999999935,
          "durationTicks": 48,
          "midi": 46,
          "name": "A#2",
          "ticks": 14928,
          "time": 44.428527,
          "velocity": 0.7559055118110236
        },
        {
          "duration": 0.14285699999999935,
          "durationTicks": 48,
          "midi": 43,
          "name": "G2",
          "ticks": 14976,
          "time": 44.571384,
          "velocity": 0.7559055118110236
        },
        {
          "duration": 0.2857140000000058,
          "durationTicks": 96,
          "midi": 43,
          "name": "G2",
          "ticks": 15024,
          "time": 44.714241,
          "velocity": 0.7559055118110236
        },
        {
          "duration": 0.14285699999999935,
          "durationTicks": 48,
          "midi": 43,
          "name": "G2",
          "ticks": 15120,
          "time": 44.99995500000001,
          "velocity": 0.7559055118110236
        },
        {
          "duration": 0.2857139999999987,
          "durationTicks": 96,
          "midi": 43,
          "name": "G2",
          "ticks": 15168,
          "time": 45.142812000000006,
          "velocity": 0.7559055118110236
        },
        {
          "duration": 0.14285699999999935,
          "durationTicks": 48,
          "midi": 43,
          "name": "G2",
          "ticks": 15264,
          "time": 45.428526000000005,
          "velocity": 0.7559055118110236
        },
        {
          "duration": 0.14285699999999935,
          "durationTicks": 48,
          "midi": 43,
          "name": "G2",
          "ticks": 15312,
          "time": 45.571383000000004,
          "velocity": 0.7559055118110236
        },
        {
          "duration": 0.14285699999999935,
          "durationTicks": 48,
          "midi": 45,
          "name": "A2",
          "ticks": 15360,
          "time": 45.714240000000004,
          "velocity": 0.7559055118110236
        },
        {
          "duration": 0.2857139999999987,
          "durationTicks": 96,
          "midi": 45,
          "name": "A2",
          "ticks": 15408,
          "time": 45.857097,
          "velocity": 0.7559055118110236
        },
        {
          "duration": 0.14285699999999935,
          "durationTicks": 48,
          "midi": 45,
          "name": "A2",
          "ticks": 15504,
          "time": 46.142811,
          "velocity": 0.7559055118110236
        },
        {
          "duration": 0.2857140000000058,
          "durationTicks": 96,
          "midi": 45,
          "name": "A2",
          "ticks": 15552,
          "time": 46.285668,
          "velocity": 0.7559055118110236
        },
        {
          "duration": 0.14285699999999935,
          "durationTicks": 48,
          "midi": 45,
          "name": "A2",
          "ticks": 15648,
          "time": 46.57138200000001,
          "velocity": 0.7559055118110236
        },
        {
          "duration": 0.14285699999999935,
          "durationTicks": 48,
          "midi": 45,
          "name": "A2",
          "ticks": 15696,
          "time": 46.714239000000006,
          "velocity": 0.7559055118110236
        },
        {
          "duration": 0.14285699999999935,
          "durationTicks": 48,
          "midi": 45,
          "name": "A2",
          "ticks": 15744,
          "time": 46.857096000000006,
          "velocity": 0.7559055118110236
        },
        {
          "duration": 0.2857139999999987,
          "durationTicks": 96,
          "midi": 45,
          "name": "A2",
          "ticks": 15792,
          "time": 46.999953000000005,
          "velocity": 0.7559055118110236
        },
        {
          "duration": 0.14285699999999935,
          "durationTicks": 48,
          "midi": 45,
          "name": "A2",
          "ticks": 15888,
          "time": 47.285667000000004,
          "velocity": 0.7559055118110236
        },
        {
          "duration": 0.2857139999999987,
          "durationTicks": 96,
          "midi": 45,
          "name": "A2",
          "ticks": 15936,
          "time": 47.428524,
          "velocity": 0.7559055118110236
        },
        {
          "duration": 0.14285699999999935,
          "durationTicks": 48,
          "midi": 45,
          "name": "A2",
          "ticks": 16032,
          "time": 47.714238,
          "velocity": 0.7559055118110236
        },
        {
          "duration": 0.14285700000000645,
          "durationTicks": 48,
          "midi": 45,
          "name": "A2",
          "ticks": 16080,
          "time": 47.857095,
          "velocity": 0.7559055118110236
        },
        {
          "duration": 0.14285699999999935,
          "durationTicks": 48,
          "midi": 50,
          "name": "D3",
          "ticks": 16128,
          "time": 47.99995200000001,
          "velocity": 0.7559055118110236
        },
        {
          "duration": 0.2857139999999987,
          "durationTicks": 96,
          "midi": 50,
          "name": "D3",
          "ticks": 16176,
          "time": 48.14280900000001,
          "velocity": 0.7559055118110236
        },
        {
          "duration": 0.14285699999999935,
          "durationTicks": 48,
          "midi": 50,
          "name": "D3",
          "ticks": 16272,
          "time": 48.428523000000006,
          "velocity": 0.7559055118110236
        },
        {
          "duration": 0.2857139999999987,
          "durationTicks": 96,
          "midi": 50,
          "name": "D3",
          "ticks": 16320,
          "time": 48.571380000000005,
          "velocity": 0.7559055118110236
        },
        {
          "duration": 0.14285699999999935,
          "durationTicks": 48,
          "midi": 50,
          "name": "D3",
          "ticks": 16416,
          "time": 48.857094000000004,
          "velocity": 0.7559055118110236
        },
        {
          "duration": 0.14285699999999935,
          "durationTicks": 48,
          "midi": 50,
          "name": "D3",
          "ticks": 16464,
          "time": 48.999951,
          "velocity": 0.7559055118110236
        },
        {
          "duration": 0.14285699999999935,
          "durationTicks": 48,
          "midi": 46,
          "name": "A#2",
          "ticks": 16512,
          "time": 49.142808,
          "velocity": 0.7559055118110236
        },
        {
          "duration": 0.2857140000000058,
          "durationTicks": 96,
          "midi": 46,
          "name": "A#2",
          "ticks": 16560,
          "time": 49.285665,
          "velocity": 0.7559055118110236
        },
        {
          "duration": 0.14285699999999935,
          "durationTicks": 48,
          "midi": 46,
          "name": "A#2",
          "ticks": 16656,
          "time": 49.57137900000001,
          "velocity": 0.7559055118110236
        },
        {
          "duration": 0.2857139999999987,
          "durationTicks": 96,
          "midi": 46,
          "name": "A#2",
          "ticks": 16704,
          "time": 49.71423600000001,
          "velocity": 0.7559055118110236
        },
        {
          "duration": 0.14285699999999935,
          "durationTicks": 48,
          "midi": 46,
          "name": "A#2",
          "ticks": 16800,
          "time": 49.999950000000005,
          "velocity": 0.7559055118110236
        },
        {
          "duration": 0.14285699999999935,
          "durationTicks": 48,
          "midi": 46,
          "name": "A#2",
          "ticks": 16848,
          "time": 50.142807000000005,
          "velocity": 0.7559055118110236
        },
        {
          "duration": 0.14285699999999935,
          "durationTicks": 48,
          "midi": 48,
          "name": "C3",
          "ticks": 16896,
          "time": 50.285664000000004,
          "velocity": 0.7559055118110236
        },
        {
          "duration": 0.2857139999999987,
          "durationTicks": 96,
          "midi": 48,
          "name": "C3",
          "ticks": 16944,
          "time": 50.428521,
          "velocity": 0.7559055118110236
        },
        {
          "duration": 0.14285699999999935,
          "durationTicks": 48,
          "midi": 48,
          "name": "C3",
          "ticks": 17040,
          "time": 50.714235,
          "velocity": 0.7559055118110236
        },
        {
          "duration": 0.2857140000000058,
          "durationTicks": 96,
          "midi": 48,
          "name": "C3",
          "ticks": 17088,
          "time": 50.857092,
          "velocity": 0.7559055118110236
        },
        {
          "duration": 0.14285699999999935,
          "durationTicks": 48,
          "midi": 48,
          "name": "C3",
          "ticks": 17184,
          "time": 51.14280600000001,
          "velocity": 0.7559055118110236
        },
        {
          "duration": 0.14285699999999935,
          "durationTicks": 48,
          "midi": 48,
          "name": "C3",
          "ticks": 17232,
          "time": 51.28566300000001,
          "velocity": 0.7559055118110236
        },
        {
          "duration": 0.14285699999999935,
          "durationTicks": 48,
          "midi": 45,
          "name": "A2",
          "ticks": 17280,
          "time": 51.428520000000006,
          "velocity": 0.7559055118110236
        },
        {
          "duration": 0.2857139999999987,
          "durationTicks": 96,
          "midi": 45,
          "name": "A2",
          "ticks": 17328,
          "time": 51.571377000000005,
          "velocity": 0.7559055118110236
        },
        {
          "duration": 0.14285699999999935,
          "durationTicks": 48,
          "midi": 45,
          "name": "A2",
          "ticks": 17424,
          "time": 51.857091000000004,
          "velocity": 0.7559055118110236
        },
        {
          "duration": 0.2857139999999987,
          "durationTicks": 96,
          "midi": 45,
          "name": "A2",
          "ticks": 17472,
          "time": 51.999948,
          "velocity": 0.7559055118110236
        },
        {
          "duration": 0.14285699999999935,
          "durationTicks": 48,
          "midi": 45,
          "name": "A2",
          "ticks": 17568,
          "time": 52.285662,
          "velocity": 0.7559055118110236
        },
        {
          "duration": 0.14285699999999935,
          "durationTicks": 48,
          "midi": 45,
          "name": "A2",
          "ticks": 17616,
          "time": 52.428519,
          "velocity": 0.7559055118110236
        },
        {
          "duration": 0.14285700000000645,
          "durationTicks": 48,
          "midi": 46,
          "name": "A#2",
          "ticks": 17664,
          "time": 52.571376,
          "velocity": 0.7559055118110236
        },
        {
          "duration": 0.2857139999999987,
          "durationTicks": 96,
          "midi": 46,
          "name": "A#2",
          "ticks": 17712,
          "time": 52.71423300000001,
          "velocity": 0.7559055118110236
        },
        {
          "duration": 0.14285699999999935,
          "durationTicks": 48,
          "midi": 46,
          "name": "A#2",
          "ticks": 17808,
          "time": 52.999947000000006,
          "velocity": 0.7559055118110236
        },
        {
          "duration": 0.2857139999999987,
          "durationTicks": 96,
          "midi": 46,
          "name": "A#2",
          "ticks": 17856,
          "time": 53.142804000000005,
          "velocity": 0.7559055118110236
        },
        {
          "duration": 0.14285699999999935,
          "durationTicks": 48,
          "midi": 46,
          "name": "A#2",
          "ticks": 17952,
          "time": 53.428518000000004,
          "velocity": 0.7559055118110236
        },
        {
          "duration": 0.14285699999999935,
          "durationTicks": 48,
          "midi": 46,
          "name": "A#2",
          "ticks": 18000,
          "time": 53.571375,
          "velocity": 0.7559055118110236
        },
        {
          "duration": 0.14285699999999935,
          "durationTicks": 48,
          "midi": 43,
          "name": "G2",
          "ticks": 18048,
          "time": 53.714232,
          "velocity": 0.7559055118110236
        },
        {
          "duration": 0.2857140000000058,
          "durationTicks": 96,
          "midi": 43,
          "name": "G2",
          "ticks": 18096,
          "time": 53.857089,
          "velocity": 0.7559055118110236
        },
        {
          "duration": 0.14285699999999935,
          "durationTicks": 48,
          "midi": 43,
          "name": "G2",
          "ticks": 18192,
          "time": 54.14280300000001,
          "velocity": 0.7559055118110236
        },
        {
          "duration": 0.2857139999999987,
          "durationTicks": 96,
          "midi": 43,
          "name": "G2",
          "ticks": 18240,
          "time": 54.28566000000001,
          "velocity": 0.7559055118110236
        },
        {
          "duration": 0.14285699999999935,
          "durationTicks": 48,
          "midi": 43,
          "name": "G2",
          "ticks": 18336,
          "time": 54.571374000000006,
          "velocity": 0.7559055118110236
        },
        {
          "duration": 0.14285699999999935,
          "durationTicks": 48,
          "midi": 43,
          "name": "G2",
          "ticks": 18384,
          "time": 54.714231000000005,
          "velocity": 0.7559055118110236
        },
        {
          "duration": 0.14285699999999935,
          "durationTicks": 48,
          "midi": 45,
          "name": "A2",
          "ticks": 18432,
          "time": 54.857088000000005,
          "velocity": 0.7559055118110236
        },
        {
          "duration": 0.2857139999999987,
          "durationTicks": 96,
          "midi": 45,
          "name": "A2",
          "ticks": 18480,
          "time": 54.999945000000004,
          "velocity": 0.7559055118110236
        },
        {
          "duration": 0.14285699999999935,
          "durationTicks": 48,
          "midi": 45,
          "name": "A2",
          "ticks": 18576,
          "time": 55.285659,
          "velocity": 0.7559055118110236
        },
        {
          "duration": 0.2857140000000058,
          "durationTicks": 96,
          "midi": 45,
          "name": "A2",
          "ticks": 18624,
          "time": 55.428516,
          "velocity": 0.7559055118110236
        },
        {
          "duration": 0.14285699999999935,
          "durationTicks": 48,
          "midi": 45,
          "name": "A2",
          "ticks": 18720,
          "time": 55.71423000000001,
          "velocity": 0.7559055118110236
        },
        {
          "duration": 0.14285699999999935,
          "durationTicks": 48,
          "midi": 45,
          "name": "A2",
          "ticks": 18768,
          "time": 55.85708700000001,
          "velocity": 0.7559055118110236
        },
        {
          "duration": 0.14285699999999935,
          "durationTicks": 48,
          "midi": 45,
          "name": "A2",
          "ticks": 18816,
          "time": 55.999944000000006,
          "velocity": 0.7559055118110236
        },
        {
          "duration": 0.2857139999999987,
          "durationTicks": 96,
          "midi": 45,
          "name": "A2",
          "ticks": 18864,
          "time": 56.142801000000006,
          "velocity": 0.7559055118110236
        },
        {
          "duration": 0.14285699999999935,
          "durationTicks": 48,
          "midi": 45,
          "name": "A2",
          "ticks": 18960,
          "time": 56.428515000000004,
          "velocity": 0.7559055118110236
        },
        {
          "duration": 0.2857139999999987,
          "durationTicks": 96,
          "midi": 45,
          "name": "A2",
          "ticks": 19008,
          "time": 56.571372000000004,
          "velocity": 0.7559055118110236
        },
        {
          "duration": 0.14285699999999935,
          "durationTicks": 48,
          "midi": 45,
          "name": "A2",
          "ticks": 19104,
          "time": 56.857086,
          "velocity": 0.7559055118110236
        },
        {
          "duration": 0.14285700000000645,
          "durationTicks": 48,
          "midi": 45,
          "name": "A2",
          "ticks": 19152,
          "time": 56.999943,
          "velocity": 0.7559055118110236
        },
        {
          "duration": 0.14285699999999935,
          "durationTicks": 48,
          "midi": 50,
          "name": "D3",
          "ticks": 19200,
          "time": 57.14280000000001,
          "velocity": 0.7559055118110236
        },
        {
          "duration": 0.2857139999999987,
          "durationTicks": 96,
          "midi": 50,
          "name": "D3",
          "ticks": 19248,
          "time": 57.28565700000001,
          "velocity": 0.7559055118110236
        },
        {
          "duration": 0.14285699999999935,
          "durationTicks": 48,
          "midi": 50,
          "name": "D3",
          "ticks": 19344,
          "time": 57.571371000000006,
          "velocity": 0.7559055118110236
        },
        {
          "duration": 0.2857139999999987,
          "durationTicks": 96,
          "midi": 50,
          "name": "D3",
          "ticks": 19392,
          "time": 57.714228000000006,
          "velocity": 0.7559055118110236
        },
        {
          "duration": 0.14285699999999935,
          "durationTicks": 48,
          "midi": 50,
          "name": "D3",
          "ticks": 19488,
          "time": 57.999942000000004,
          "velocity": 0.7559055118110236
        },
        {
          "duration": 0.14285699999999935,
          "durationTicks": 48,
          "midi": 50,
          "name": "D3",
          "ticks": 19536,
          "time": 58.142799000000004,
          "velocity": 0.7559055118110236
        },
        {
          "duration": 0.14285699999999935,
          "durationTicks": 48,
          "midi": 46,
          "name": "A#2",
          "ticks": 19584,
          "time": 58.285656,
          "velocity": 0.7559055118110236
        },
        {
          "duration": 0.2857140000000058,
          "durationTicks": 96,
          "midi": 46,
          "name": "A#2",
          "ticks": 19632,
          "time": 58.428513,
          "velocity": 0.7559055118110236
        },
        {
          "duration": 0.14285699999999935,
          "durationTicks": 48,
          "midi": 46,
          "name": "A#2",
          "ticks": 19728,
          "time": 58.71422700000001,
          "velocity": 0.7559055118110236
        },
        {
          "duration": 0.2857139999999987,
          "durationTicks": 96,
          "midi": 46,
          "name": "A#2",
          "ticks": 19776,
          "time": 58.85708400000001,
          "velocity": 0.7559055118110236
        },
        {
          "duration": 0.14285699999999935,
          "durationTicks": 48,
          "midi": 46,
          "name": "A#2",
          "ticks": 19872,
          "time": 59.142798000000006,
          "velocity": 0.7559055118110236
        },
        {
          "duration": 0.14285699999999935,
          "durationTicks": 48,
          "midi": 46,
          "name": "A#2",
          "ticks": 19920,
          "time": 59.285655000000006,
          "velocity": 0.7559055118110236
        },
        {
          "duration": 0.14285699999999935,
          "durationTicks": 48,
          "midi": 48,
          "name": "C3",
          "ticks": 19968,
          "time": 59.428512000000005,
          "velocity": 0.7559055118110236
        },
        {
          "duration": 0.2857139999999987,
          "durationTicks": 96,
          "midi": 48,
          "name": "C3",
          "ticks": 20016,
          "time": 59.571369000000004,
          "velocity": 0.7559055118110236
        },
        {
          "duration": 0.14285699999999935,
          "durationTicks": 48,
          "midi": 48,
          "name": "C3",
          "ticks": 20112,
          "time": 59.857083,
          "velocity": 0.7559055118110236
        },
        {
          "duration": 0.2857140000000058,
          "durationTicks": 96,
          "midi": 48,
          "name": "C3",
          "ticks": 20160,
          "time": 59.99994,
          "velocity": 0.7559055118110236
        },
        {
          "duration": 0.14285699999999935,
          "durationTicks": 48,
          "midi": 48,
          "name": "C3",
          "ticks": 20256,
          "time": 60.28565400000001,
          "velocity": 0.7559055118110236
        },
        {
          "duration": 0.14285699999999935,
          "durationTicks": 48,
          "midi": 48,
          "name": "C3",
          "ticks": 20304,
          "time": 60.42851100000001,
          "velocity": 0.7559055118110236
        },
        {
          "duration": 0.14285699999999935,
          "durationTicks": 48,
          "midi": 45,
          "name": "A2",
          "ticks": 20352,
          "time": 60.57136800000001,
          "velocity": 0.7559055118110236
        },
        {
          "duration": 0.2857139999999987,
          "durationTicks": 96,
          "midi": 45,
          "name": "A2",
          "ticks": 20400,
          "time": 60.714225000000006,
          "velocity": 0.7559055118110236
        },
        {
          "duration": 0.14285699999999935,
          "durationTicks": 48,
          "midi": 45,
          "name": "A2",
          "ticks": 20496,
          "time": 60.999939000000005,
          "velocity": 0.7559055118110236
        },
        {
          "duration": 0.2857139999999987,
          "durationTicks": 96,
          "midi": 45,
          "name": "A2",
          "ticks": 20544,
          "time": 61.142796000000004,
          "velocity": 0.7559055118110236
        },
        {
          "duration": 0.14285699999999935,
          "durationTicks": 48,
          "midi": 45,
          "name": "A2",
          "ticks": 20640,
          "time": 61.42851,
          "velocity": 0.7559055118110236
        },
        {
          "duration": 0.14285699999999935,
          "durationTicks": 48,
          "midi": 45,
          "name": "A2",
          "ticks": 20688,
          "time": 61.571367,
          "velocity": 0.7559055118110236
        },
        {
          "duration": 0.14285700000000645,
          "durationTicks": 48,
          "midi": 46,
          "name": "A#2",
          "ticks": 20736,
          "time": 61.714224,
          "velocity": 0.7559055118110236
        },
        {
          "duration": 0.2857139999999987,
          "durationTicks": 96,
          "midi": 46,
          "name": "A#2",
          "ticks": 20784,
          "time": 61.85708100000001,
          "velocity": 0.7559055118110236
        },
        {
          "duration": 0.14285699999999935,
          "durationTicks": 48,
          "midi": 46,
          "name": "A#2",
          "ticks": 20880,
          "time": 62.14279500000001,
          "velocity": 0.7559055118110236
        },
        {
          "duration": 0.2857139999999987,
          "durationTicks": 96,
          "midi": 46,
          "name": "A#2",
          "ticks": 20928,
          "time": 62.285652000000006,
          "velocity": 0.7559055118110236
        },
        {
          "duration": 0.14285699999999935,
          "durationTicks": 48,
          "midi": 46,
          "name": "A#2",
          "ticks": 21024,
          "time": 62.571366000000005,
          "velocity": 0.7559055118110236
        },
        {
          "duration": 0.14285699999999935,
          "durationTicks": 48,
          "midi": 46,
          "name": "A#2",
          "ticks": 21072,
          "time": 62.714223000000004,
          "velocity": 0.7559055118110236
        },
        {
          "duration": 0.14285699999999935,
          "durationTicks": 48,
          "midi": 43,
          "name": "G2",
          "ticks": 21120,
          "time": 62.85708,
          "velocity": 0.7559055118110236
        },
        {
          "duration": 0.2857140000000058,
          "durationTicks": 96,
          "midi": 43,
          "name": "G2",
          "ticks": 21168,
          "time": 62.999937,
          "velocity": 0.7559055118110236
        },
        {
          "duration": 0.14285699999999935,
          "durationTicks": 48,
          "midi": 43,
          "name": "G2",
          "ticks": 21264,
          "time": 63.28565100000001,
          "velocity": 0.7559055118110236
        },
        {
          "duration": 0.2857139999999987,
          "durationTicks": 96,
          "midi": 43,
          "name": "G2",
          "ticks": 21312,
          "time": 63.42850800000001,
          "velocity": 0.7559055118110236
        },
        {
          "duration": 0.14285699999999935,
          "durationTicks": 48,
          "midi": 43,
          "name": "G2",
          "ticks": 21408,
          "time": 63.71422200000001,
          "velocity": 0.7559055118110236
        },
        {
          "duration": 0.14285699999999935,
          "durationTicks": 48,
          "midi": 43,
          "name": "G2",
          "ticks": 21456,
          "time": 63.857079000000006,
          "velocity": 0.7559055118110236
        },
        {
          "duration": 0.14285700000000645,
          "durationTicks": 48,
          "midi": 45,
          "name": "A2",
          "ticks": 21504,
          "time": 63.999936000000005,
          "velocity": 0.7559055118110236
        },
        {
          "duration": 0.2857139999999987,
          "durationTicks": 96,
          "midi": 45,
          "name": "A2",
          "ticks": 21552,
          "time": 64.14279300000001,
          "velocity": 0.7559055118110236
        },
        {
          "duration": 0.14285699999999224,
          "durationTicks": 48,
          "midi": 45,
          "name": "A2",
          "ticks": 21648,
          "time": 64.42850700000001,
          "velocity": 0.7559055118110236
        },
        {
          "duration": 0.2857139999999987,
          "durationTicks": 96,
          "midi": 45,
          "name": "A2",
          "ticks": 21696,
          "time": 64.571364,
          "velocity": 0.7559055118110236
        },
        {
          "duration": 0.14285700000000645,
          "durationTicks": 48,
          "midi": 45,
          "name": "A2",
          "ticks": 21792,
          "time": 64.857078,
          "velocity": 0.7559055118110236
        },
        {
          "duration": 0.14285699999999224,
          "durationTicks": 48,
          "midi": 45,
          "name": "A2",
          "ticks": 21840,
          "time": 64.99993500000001,
          "velocity": 0.7559055118110236
        },
        {
          "duration": 0.14285700000000645,
          "durationTicks": 48,
          "midi": 45,
          "name": "A2",
          "ticks": 21888,
          "time": 65.142792,
          "velocity": 0.7559055118110236
        },
        {
          "duration": 0.2857139999999987,
          "durationTicks": 96,
          "midi": 45,
          "name": "A2",
          "ticks": 21936,
          "time": 65.285649,
          "velocity": 0.7559055118110236
        },
        {
          "duration": 0.14285700000000645,
          "durationTicks": 48,
          "midi": 45,
          "name": "A2",
          "ticks": 22032,
          "time": 65.571363,
          "velocity": 0.7559055118110236
        },
        {
          "duration": 0.2857139999999987,
          "durationTicks": 96,
          "midi": 45,
          "name": "A2",
          "ticks": 22080,
          "time": 65.71422000000001,
          "velocity": 0.7559055118110236
        },
        {
          "duration": 0.14285699999999224,
          "durationTicks": 48,
          "midi": 45,
          "name": "A2",
          "ticks": 22176,
          "time": 65.99993400000001,
          "velocity": 0.7559055118110236
        },
        {
          "duration": 0.14285700000000645,
          "durationTicks": 48,
          "midi": 45,
          "name": "A2",
          "ticks": 22224,
          "time": 66.142791,
          "velocity": 0.7559055118110236
        },
        {
          "duration": 0.14285699999999224,
          "durationTicks": 48,
          "midi": 50,
          "name": "D3",
          "ticks": 22272,
          "time": 66.28564800000001,
          "velocity": 0.7559055118110236
        },
        {
          "duration": 0.2857139999999987,
          "durationTicks": 96,
          "midi": 50,
          "name": "D3",
          "ticks": 22320,
          "time": 66.428505,
          "velocity": 0.7559055118110236
        },
        {
          "duration": 0.14285700000000645,
          "durationTicks": 48,
          "midi": 50,
          "name": "D3",
          "ticks": 22416,
          "time": 66.714219,
          "velocity": 0.7559055118110236
        },
        {
          "duration": 0.2857139999999987,
          "durationTicks": 96,
          "midi": 50,
          "name": "D3",
          "ticks": 22464,
          "time": 66.857076,
          "velocity": 0.7559055118110236
        },
        {
          "duration": 0.14285700000000645,
          "durationTicks": 48,
          "midi": 50,
          "name": "D3",
          "ticks": 22560,
          "time": 67.14279,
          "velocity": 0.7559055118110236
        },
        {
          "duration": 0.14285699999999224,
          "durationTicks": 48,
          "midi": 50,
          "name": "D3",
          "ticks": 22608,
          "time": 67.28564700000001,
          "velocity": 0.7559055118110236
        },
        {
          "duration": 0.14285700000000645,
          "durationTicks": 48,
          "midi": 46,
          "name": "A#2",
          "ticks": 22656,
          "time": 67.428504,
          "velocity": 0.7559055118110236
        },
        {
          "duration": 0.2857139999999987,
          "durationTicks": 96,
          "midi": 46,
          "name": "A#2",
          "ticks": 22704,
          "time": 67.57136100000001,
          "velocity": 0.7559055118110236
        },
        {
          "duration": 0.14285699999999224,
          "durationTicks": 48,
          "midi": 46,
          "name": "A#2",
          "ticks": 22800,
          "time": 67.85707500000001,
          "velocity": 0.7559055118110236
        },
        {
          "duration": 0.2857139999999987,
          "durationTicks": 96,
          "midi": 46,
          "name": "A#2",
          "ticks": 22848,
          "time": 67.999932,
          "velocity": 0.7559055118110236
        },
        {
          "duration": 0.14285700000000645,
          "durationTicks": 48,
          "midi": 46,
          "name": "A#2",
          "ticks": 22944,
          "time": 68.285646,
          "velocity": 0.7559055118110236
        },
        {
          "duration": 0.14285699999999224,
          "durationTicks": 48,
          "midi": 46,
          "name": "A#2",
          "ticks": 22992,
          "time": 68.428503,
          "velocity": 0.7559055118110236
        },
        {
          "duration": 0.14285700000000645,
          "durationTicks": 48,
          "midi": 48,
          "name": "C3",
          "ticks": 23040,
          "time": 68.57136,
          "velocity": 0.7559055118110236
        },
        {
          "duration": 0.2857139999999987,
          "durationTicks": 96,
          "midi": 48,
          "name": "C3",
          "ticks": 23088,
          "time": 68.714217,
          "velocity": 0.7559055118110236
        },
        {
          "duration": 0.14285700000000645,
          "durationTicks": 48,
          "midi": 48,
          "name": "C3",
          "ticks": 23184,
          "time": 68.999931,
          "velocity": 0.7559055118110236
        },
        {
          "duration": 0.2857139999999987,
          "durationTicks": 96,
          "midi": 48,
          "name": "C3",
          "ticks": 23232,
          "time": 69.14278800000001,
          "velocity": 0.7559055118110236
        },
        {
          "duration": 0.14285699999999224,
          "durationTicks": 48,
          "midi": 48,
          "name": "C3",
          "ticks": 23328,
          "time": 69.42850200000001,
          "velocity": 0.7559055118110236
        },
        {
          "duration": 0.14285700000000645,
          "durationTicks": 48,
          "midi": 48,
          "name": "C3",
          "ticks": 23376,
          "time": 69.571359,
          "velocity": 0.7559055118110236
        },
        {
          "duration": 0.14285699999999224,
          "durationTicks": 48,
          "midi": 45,
          "name": "A2",
          "ticks": 23424,
          "time": 69.71421600000001,
          "velocity": 0.7559055118110236
        },
        {
          "duration": 0.2857140000000129,
          "durationTicks": 96,
          "midi": 45,
          "name": "A2",
          "ticks": 23472,
          "time": 69.857073,
          "velocity": 0.7559055118110236
        },
        {
          "duration": 0.14285699999999224,
          "durationTicks": 48,
          "midi": 45,
          "name": "A2",
          "ticks": 23568,
          "time": 70.14278700000001,
          "velocity": 0.7559055118110236
        },
        {
          "duration": 0.2857139999999987,
          "durationTicks": 96,
          "midi": 45,
          "name": "A2",
          "ticks": 23616,
          "time": 70.285644,
          "velocity": 0.7559055118110236
        },
        {
          "duration": 0.14285700000000645,
          "durationTicks": 48,
          "midi": 45,
          "name": "A2",
          "ticks": 23712,
          "time": 70.571358,
          "velocity": 0.7559055118110236
        },
        {
          "duration": 0.14285699999999224,
          "durationTicks": 48,
          "midi": 45,
          "name": "A2",
          "ticks": 23760,
          "time": 70.71421500000001,
          "velocity": 0.7559055118110236
        },
        {
          "duration": 0.14285700000000645,
          "durationTicks": 48,
          "midi": 46,
          "name": "A#2",
          "ticks": 23808,
          "time": 70.857072,
          "velocity": 0.7559055118110236
        },
        {
          "duration": 0.2857139999999987,
          "durationTicks": 96,
          "midi": 46,
          "name": "A#2",
          "ticks": 23856,
          "time": 70.99992900000001,
          "velocity": 0.7559055118110236
        },
        {
          "duration": 0.14285699999999224,
          "durationTicks": 48,
          "midi": 46,
          "name": "A#2",
          "ticks": 23952,
          "time": 71.28564300000001,
          "velocity": 0.7559055118110236
        },
        {
          "duration": 0.2857140000000129,
          "durationTicks": 96,
          "midi": 46,
          "name": "A#2",
          "ticks": 24000,
          "time": 71.4285,
          "velocity": 0.7559055118110236
        },
        {
          "duration": 0.14285699999999224,
          "durationTicks": 48,
          "midi": 46,
          "name": "A#2",
          "ticks": 24096,
          "time": 71.71421400000001,
          "velocity": 0.7559055118110236
        },
        {
          "duration": 0.14285700000000645,
          "durationTicks": 48,
          "midi": 46,
          "name": "A#2",
          "ticks": 24144,
          "time": 71.857071,
          "velocity": 0.7559055118110236
        },
        {
          "duration": 0.14285699999999224,
          "durationTicks": 48,
          "midi": 43,
          "name": "G2",
          "ticks": 24192,
          "time": 71.99992800000001,
          "velocity": 0.7559055118110236
        },
        {
          "duration": 0.2857139999999987,
          "durationTicks": 96,
          "midi": 43,
          "name": "G2",
          "ticks": 24240,
          "time": 72.142785,
          "velocity": 0.7559055118110236
        },
        {
          "duration": 0.14285700000000645,
          "durationTicks": 48,
          "midi": 43,
          "name": "G2",
          "ticks": 24336,
          "time": 72.428499,
          "velocity": 0.7559055118110236
        },
        {
          "duration": 0.2857139999999987,
          "durationTicks": 96,
          "midi": 43,
          "name": "G2",
          "ticks": 24384,
          "time": 72.57135600000001,
          "velocity": 0.7559055118110236
        },
        {
          "duration": 0.14285699999999224,
          "durationTicks": 48,
          "midi": 43,
          "name": "G2",
          "ticks": 24480,
          "time": 72.85707000000001,
          "velocity": 0.7559055118110236
        },
        {
          "duration": 0.14285700000000645,
          "durationTicks": 48,
          "midi": 43,
          "name": "G2",
          "ticks": 24528,
          "time": 72.999927,
          "velocity": 0.7559055118110236
        },
        {
          "duration": 0.14285700000000645,
          "durationTicks": 48,
          "midi": 45,
          "name": "A2",
          "ticks": 24576,
          "time": 73.142784,
          "velocity": 0.7559055118110236
        },
        {
          "duration": 0.2857139999999987,
          "durationTicks": 96,
          "midi": 45,
          "name": "A2",
          "ticks": 24624,
          "time": 73.28564100000001,
          "velocity": 0.7559055118110236
        },
        {
          "duration": 0.14285699999999224,
          "durationTicks": 48,
          "midi": 45,
          "name": "A2",
          "ticks": 24720,
          "time": 73.57135500000001,
          "velocity": 0.7559055118110236
        },
        {
          "duration": 0.2857139999999987,
          "durationTicks": 96,
          "midi": 45,
          "name": "A2",
          "ticks": 24768,
          "time": 73.714212,
          "velocity": 0.7559055118110236
        },
        {
          "duration": 0.14285700000000645,
          "durationTicks": 48,
          "midi": 45,
          "name": "A2",
          "ticks": 24864,
          "time": 73.999926,
          "velocity": 0.7559055118110236
        },
        {
          "duration": 0.14285699999999224,
          "durationTicks": 48,
          "midi": 45,
          "name": "A2",
          "ticks": 24912,
          "time": 74.14278300000001,
          "velocity": 0.7559055118110236
        },
        {
          "duration": 0.14285700000000645,
          "durationTicks": 48,
          "midi": 45,
          "name": "A2",
          "ticks": 24960,
          "time": 74.28564,
          "velocity": 0.7559055118110236
        },
        {
          "duration": 0.2857139999999987,
          "durationTicks": 96,
          "midi": 45,
          "name": "A2",
          "ticks": 25008,
          "time": 74.42849700000001,
          "velocity": 0.7559055118110236
        },
        {
          "duration": 0.14285700000000645,
          "durationTicks": 48,
          "midi": 45,
          "name": "A2",
          "ticks": 25104,
          "time": 74.714211,
          "velocity": 0.7559055118110236
        },
        {
          "duration": 0.2857139999999987,
          "durationTicks": 96,
          "midi": 45,
          "name": "A2",
          "ticks": 25152,
          "time": 74.85706800000001,
          "velocity": 0.7559055118110236
        },
        {
          "duration": 0.14285699999999224,
          "durationTicks": 48,
          "midi": 45,
          "name": "A2",
          "ticks": 25248,
          "time": 75.14278200000001,
          "velocity": 0.7559055118110236
        },
        {
          "duration": 0.14285700000000645,
          "durationTicks": 48,
          "midi": 45,
          "name": "A2",
          "ticks": 25296,
          "time": 75.285639,
          "velocity": 0.7559055118110236
        },
        {
          "duration": 0.14285699999999224,
          "durationTicks": 48,
          "midi": 50,
          "name": "D3",
          "ticks": 25344,
          "time": 75.42849600000001,
          "velocity": 0.7559055118110236
        },
        {
          "duration": 0.2857139999999987,
          "durationTicks": 96,
          "midi": 50,
          "name": "D3",
          "ticks": 25392,
          "time": 75.571353,
          "velocity": 0.7559055118110236
        },
        {
          "duration": 0.14285700000000645,
          "durationTicks": 48,
          "midi": 50,
          "name": "D3",
          "ticks": 25488,
          "time": 75.857067,
          "velocity": 0.7559055118110236
        },
        {
          "duration": 0.2857139999999987,
          "durationTicks": 96,
          "midi": 50,
          "name": "D3",
          "ticks": 25536,
          "time": 75.99992400000001,
          "velocity": 0.7559055118110236
        },
        {
          "duration": 0.14285700000000645,
          "durationTicks": 48,
          "midi": 50,
          "name": "D3",
          "ticks": 25632,
          "time": 76.285638,
          "velocity": 0.7559055118110236
        },
        {
          "duration": 0.14285699999999224,
          "durationTicks": 48,
          "midi": 50,
          "name": "D3",
          "ticks": 25680,
          "time": 76.42849500000001,
          "velocity": 0.7559055118110236
        },
        {
          "duration": 0.14285700000000645,
          "durationTicks": 48,
          "midi": 46,
          "name": "A#2",
          "ticks": 25728,
          "time": 76.571352,
          "velocity": 0.7559055118110236
        },
        {
          "duration": 0.2857139999999987,
          "durationTicks": 96,
          "midi": 46,
          "name": "A#2",
          "ticks": 25776,
          "time": 76.71420900000001,
          "velocity": 0.7559055118110236
        },
        {
          "duration": 0.14285699999999224,
          "durationTicks": 48,
          "midi": 46,
          "name": "A#2",
          "ticks": 25872,
          "time": 76.99992300000001,
          "velocity": 0.7559055118110236
        },
        {
          "duration": 0.2857139999999987,
          "durationTicks": 96,
          "midi": 46,
          "name": "A#2",
          "ticks": 25920,
          "time": 77.14278,
          "velocity": 0.7559055118110236
        },
        {
          "duration": 0.14285700000000645,
          "durationTicks": 48,
          "midi": 46,
          "name": "A#2",
          "ticks": 26016,
          "time": 77.428494,
          "velocity": 0.7559055118110236
        },
        {
          "duration": 0.14285700000000645,
          "durationTicks": 48,
          "midi": 46,
          "name": "A#2",
          "ticks": 26064,
          "time": 77.571351,
          "velocity": 0.7559055118110236
        },
        {
          "duration": 0.14285699999999224,
          "durationTicks": 48,
          "midi": 48,
          "name": "C3",
          "ticks": 26112,
          "time": 77.71420800000001,
          "velocity": 0.7559055118110236
        },
        {
          "duration": 0.2857139999999987,
          "durationTicks": 96,
          "midi": 48,
          "name": "C3",
          "ticks": 26160,
          "time": 77.857065,
          "velocity": 0.7559055118110236
        },
        {
          "duration": 0.14285700000000645,
          "durationTicks": 48,
          "midi": 48,
          "name": "C3",
          "ticks": 26256,
          "time": 78.142779,
          "velocity": 0.7559055118110236
        },
        {
          "duration": 0.2857139999999987,
          "durationTicks": 96,
          "midi": 48,
          "name": "C3",
          "ticks": 26304,
          "time": 78.28563600000001,
          "velocity": 0.7559055118110236
        },
        {
          "duration": 0.14285699999999224,
          "durationTicks": 48,
          "midi": 48,
          "name": "C3",
          "ticks": 26400,
          "time": 78.57135000000001,
          "velocity": 0.7559055118110236
        },
        {
          "duration": 0.14285700000000645,
          "durationTicks": 48,
          "midi": 48,
          "name": "C3",
          "ticks": 26448,
          "time": 78.714207,
          "velocity": 0.7559055118110236
        },
        {
          "duration": 0.14285699999999224,
          "durationTicks": 48,
          "midi": 45,
          "name": "A2",
          "ticks": 26496,
          "time": 78.85706400000001,
          "velocity": 0.7559055118110236
        },
        {
          "duration": 0.2857140000000129,
          "durationTicks": 96,
          "midi": 45,
          "name": "A2",
          "ticks": 26544,
          "time": 78.999921,
          "velocity": 0.7559055118110236
        },
        {
          "duration": 0.14285699999999224,
          "durationTicks": 48,
          "midi": 45,
          "name": "A2",
          "ticks": 26640,
          "time": 79.28563500000001,
          "velocity": 0.7559055118110236
        },
        {
          "duration": 0.2857139999999987,
          "durationTicks": 96,
          "midi": 45,
          "name": "A2",
          "ticks": 26688,
          "time": 79.428492,
          "velocity": 0.7559055118110236
        },
        {
          "duration": 0.14285700000000645,
          "durationTicks": 48,
          "midi": 45,
          "name": "A2",
          "ticks": 26784,
          "time": 79.714206,
          "velocity": 0.7559055118110236
        },
        {
          "duration": 0.14285699999999224,
          "durationTicks": 48,
          "midi": 45,
          "name": "A2",
          "ticks": 26832,
          "time": 79.85706300000001,
          "velocity": 0.7559055118110236
        },
        {
          "duration": 0.14285700000000645,
          "durationTicks": 48,
          "midi": 46,
          "name": "A#2",
          "ticks": 26880,
          "time": 79.99992,
          "velocity": 0.7559055118110236
        },
        {
          "duration": 0.2857139999999987,
          "durationTicks": 96,
          "midi": 46,
          "name": "A#2",
          "ticks": 26928,
          "time": 80.14277700000001,
          "velocity": 0.7559055118110236
        },
        {
          "duration": 0.14285699999999224,
          "durationTicks": 48,
          "midi": 46,
          "name": "A#2",
          "ticks": 27024,
          "time": 80.42849100000001,
          "velocity": 0.7559055118110236
        },
        {
          "duration": 0.2857140000000129,
          "durationTicks": 96,
          "midi": 46,
          "name": "A#2",
          "ticks": 27072,
          "time": 80.571348,
          "velocity": 0.7559055118110236
        },
        {
          "duration": 0.14285699999999224,
          "durationTicks": 48,
          "midi": 46,
          "name": "A#2",
          "ticks": 27168,
          "time": 80.85706200000001,
          "velocity": 0.7559055118110236
        },
        {
          "duration": 0.14285700000000645,
          "durationTicks": 48,
          "midi": 46,
          "name": "A#2",
          "ticks": 27216,
          "time": 80.999919,
          "velocity": 0.7559055118110236
        },
        {
          "duration": 0.14285699999999224,
          "durationTicks": 48,
          "midi": 43,
          "name": "G2",
          "ticks": 27264,
          "time": 81.14277600000001,
          "velocity": 0.7559055118110236
        },
        {
          "duration": 0.2857139999999987,
          "durationTicks": 96,
          "midi": 43,
          "name": "G2",
          "ticks": 27312,
          "time": 81.285633,
          "velocity": 0.7559055118110236
        },
        {
          "duration": 0.14285700000000645,
          "durationTicks": 48,
          "midi": 43,
          "name": "G2",
          "ticks": 27408,
          "time": 81.571347,
          "velocity": 0.7559055118110236
        },
        {
          "duration": 0.2857139999999987,
          "durationTicks": 96,
          "midi": 43,
          "name": "G2",
          "ticks": 27456,
          "time": 81.71420400000001,
          "velocity": 0.7559055118110236
        },
        {
          "duration": 0.14285699999999224,
          "durationTicks": 48,
          "midi": 43,
          "name": "G2",
          "ticks": 27552,
          "time": 81.99991800000001,
          "velocity": 0.7559055118110236
        },
        {
          "duration": 0.14285700000000645,
          "durationTicks": 48,
          "midi": 43,
          "name": "G2",
          "ticks": 27600,
          "time": 82.142775,
          "velocity": 0.7559055118110236
        },
        {
          "duration": 0.14285700000000645,
          "durationTicks": 48,
          "midi": 45,
          "name": "A2",
          "ticks": 27648,
          "time": 82.285632,
          "velocity": 0.7559055118110236
        },
        {
          "duration": 0.2857139999999987,
          "durationTicks": 96,
          "midi": 45,
          "name": "A2",
          "ticks": 27696,
          "time": 82.42848900000001,
          "velocity": 0.7559055118110236
        },
        {
          "duration": 0.14285699999999224,
          "durationTicks": 48,
          "midi": 45,
          "name": "A2",
          "ticks": 27792,
          "time": 82.71420300000001,
          "velocity": 0.7559055118110236
        },
        {
          "duration": 0.2857139999999987,
          "durationTicks": 96,
          "midi": 45,
          "name": "A2",
          "ticks": 27840,
          "time": 82.85706,
          "velocity": 0.7559055118110236
        },
        {
          "duration": 0.14285700000000645,
          "durationTicks": 48,
          "midi": 45,
          "name": "A2",
          "ticks": 27936,
          "time": 83.142774,
          "velocity": 0.7559055118110236
        },
        {
          "duration": 0.14285699999999224,
          "durationTicks": 48,
          "midi": 45,
          "name": "A2",
          "ticks": 27984,
          "time": 83.28563100000001,
          "velocity": 0.7559055118110236
        },
        {
          "duration": 0.14285700000000645,
          "durationTicks": 48,
          "midi": 45,
          "name": "A2",
          "ticks": 28032,
          "time": 83.428488,
          "velocity": 0.7559055118110236
        },
        {
          "duration": 0.2857139999999987,
          "durationTicks": 96,
          "midi": 45,
          "name": "A2",
          "ticks": 28080,
          "time": 83.57134500000001,
          "velocity": 0.7559055118110236
        },
        {
          "duration": 0.14285700000000645,
          "durationTicks": 48,
          "midi": 45,
          "name": "A2",
          "ticks": 28176,
          "time": 83.857059,
          "velocity": 0.7559055118110236
        },
        {
          "duration": 0.2857139999999987,
          "durationTicks": 96,
          "midi": 45,
          "name": "A2",
          "ticks": 28224,
          "time": 83.99991600000001,
          "velocity": 0.7559055118110236
        },
        {
          "duration": 0.14285699999999224,
          "durationTicks": 48,
          "midi": 45,
          "name": "A2",
          "ticks": 28320,
          "time": 84.28563000000001,
          "velocity": 0.7559055118110236
        },
        {
          "duration": 0.14285700000000645,
          "durationTicks": 48,
          "midi": 45,
          "name": "A2",
          "ticks": 28368,
          "time": 84.428487,
          "velocity": 0.7559055118110236
        },
        {
          "duration": 0.14285699999999224,
          "durationTicks": 48,
          "midi": 50,
          "name": "D3",
          "ticks": 28416,
          "time": 84.57134400000001,
          "velocity": 0.7559055118110236
        },
        {
          "duration": 0.2857139999999987,
          "durationTicks": 96,
          "midi": 50,
          "name": "D3",
          "ticks": 28464,
          "time": 84.714201,
          "velocity": 0.7559055118110236
        },
        {
          "duration": 0.14285700000000645,
          "durationTicks": 48,
          "midi": 50,
          "name": "D3",
          "ticks": 28560,
          "time": 84.999915,
          "velocity": 0.7559055118110236
        },
        {
          "duration": 0.2857139999999987,
          "durationTicks": 96,
          "midi": 50,
          "name": "D3",
          "ticks": 28608,
          "time": 85.14277200000001,
          "velocity": 0.7559055118110236
        },
        {
          "duration": 0.14285700000000645,
          "durationTicks": 48,
          "midi": 50,
          "name": "D3",
          "ticks": 28704,
          "time": 85.428486,
          "velocity": 0.7559055118110236
        },
        {
          "duration": 0.14285699999999224,
          "durationTicks": 48,
          "midi": 50,
          "name": "D3",
          "ticks": 28752,
          "time": 85.57134300000001,
          "velocity": 0.7559055118110236
        },
        {
          "duration": 0.14285700000000645,
          "durationTicks": 48,
          "midi": 46,
          "name": "A#2",
          "ticks": 28800,
          "time": 85.7142,
          "velocity": 0.7559055118110236
        },
        {
          "duration": 0.2857139999999987,
          "durationTicks": 96,
          "midi": 46,
          "name": "A#2",
          "ticks": 28848,
          "time": 85.85705700000001,
          "velocity": 0.7559055118110236
        },
        {
          "duration": 0.14285699999999224,
          "durationTicks": 48,
          "midi": 46,
          "name": "A#2",
          "ticks": 28944,
          "time": 86.14277100000001,
          "velocity": 0.7559055118110236
        },
        {
          "duration": 0.2857139999999987,
          "durationTicks": 96,
          "midi": 46,
          "name": "A#2",
          "ticks": 28992,
          "time": 86.285628,
          "velocity": 0.7559055118110236
        },
        {
          "duration": 0.14285700000000645,
          "durationTicks": 48,
          "midi": 46,
          "name": "A#2",
          "ticks": 29088,
          "time": 86.571342,
          "velocity": 0.7559055118110236
        },
        {
          "duration": 0.14285699999999224,
          "durationTicks": 48,
          "midi": 46,
          "name": "A#2",
          "ticks": 29136,
          "time": 86.71419900000001,
          "velocity": 0.7559055118110236
        },
        {
          "duration": 0.14285700000000645,
          "durationTicks": 48,
          "midi": 48,
          "name": "C3",
          "ticks": 29184,
          "time": 86.857056,
          "velocity": 0.7559055118110236
        },
        {
          "duration": 0.2857139999999987,
          "durationTicks": 96,
          "midi": 48,
          "name": "C3",
          "ticks": 29232,
          "time": 86.999913,
          "velocity": 0.7559055118110236
        },
        {
          "duration": 0.14285700000000645,
          "durationTicks": 48,
          "midi": 48,
          "name": "C3",
          "ticks": 29328,
          "time": 87.285627,
          "velocity": 0.7559055118110236
        },
        {
          "duration": 0.2857139999999987,
          "durationTicks": 96,
          "midi": 48,
          "name": "C3",
          "ticks": 29376,
          "time": 87.42848400000001,
          "velocity": 0.7559055118110236
        },
        {
          "duration": 0.14285699999999224,
          "durationTicks": 48,
          "midi": 48,
          "name": "C3",
          "ticks": 29472,
          "time": 87.71419800000001,
          "velocity": 0.7559055118110236
        },
        {
          "duration": 0.14285700000000645,
          "durationTicks": 48,
          "midi": 48,
          "name": "C3",
          "ticks": 29520,
          "time": 87.857055,
          "velocity": 0.7559055118110236
        },
        {
          "duration": 0.14285699999999224,
          "durationTicks": 48,
          "midi": 45,
          "name": "A2",
          "ticks": 29568,
          "time": 87.99991200000001,
          "velocity": 0.7559055118110236
        },
        {
          "duration": 0.2857140000000129,
          "durationTicks": 96,
          "midi": 45,
          "name": "A2",
          "ticks": 29616,
          "time": 88.142769,
          "velocity": 0.7559055118110236
        },
        {
          "duration": 0.14285699999999224,
          "durationTicks": 48,
          "midi": 45,
          "name": "A2",
          "ticks": 29712,
          "time": 88.42848300000001,
          "velocity": 0.7559055118110236
        },
        {
          "duration": 0.2857139999999987,
          "durationTicks": 96,
          "midi": 45,
          "name": "A2",
          "ticks": 29760,
          "time": 88.57134,
          "velocity": 0.7559055118110236
        },
        {
          "duration": 0.14285700000000645,
          "durationTicks": 48,
          "midi": 45,
          "name": "A2",
          "ticks": 29856,
          "time": 88.857054,
          "velocity": 0.7559055118110236
        },
        {
          "duration": 0.14285699999999224,
          "durationTicks": 48,
          "midi": 45,
          "name": "A2",
          "ticks": 29904,
          "time": 88.99991100000001,
          "velocity": 0.7559055118110236
        },
        {
          "duration": 0.14285700000000645,
          "durationTicks": 48,
          "midi": 46,
          "name": "A#2",
          "ticks": 29952,
          "time": 89.142768,
          "velocity": 0.7559055118110236
        },
        {
          "duration": 0.2857139999999987,
          "durationTicks": 96,
          "midi": 46,
          "name": "A#2",
          "ticks": 30000,
          "time": 89.28562500000001,
          "velocity": 0.7559055118110236
        },
        {
          "duration": 0.14285699999999224,
          "durationTicks": 48,
          "midi": 46,
          "name": "A#2",
          "ticks": 30096,
          "time": 89.57133900000001,
          "velocity": 0.7559055118110236
        },
        {
          "duration": 0.2857140000000129,
          "durationTicks": 96,
          "midi": 46,
          "name": "A#2",
          "ticks": 30144,
          "time": 89.714196,
          "velocity": 0.7559055118110236
        },
        {
          "duration": 0.14285699999999224,
          "durationTicks": 48,
          "midi": 46,
          "name": "A#2",
          "ticks": 30240,
          "time": 89.99991000000001,
          "velocity": 0.7559055118110236
        },
        {
          "duration": 0.14285700000000645,
          "durationTicks": 48,
          "midi": 46,
          "name": "A#2",
          "ticks": 30288,
          "time": 90.142767,
          "velocity": 0.7559055118110236
        },
        {
          "duration": 0.14285699999999224,
          "durationTicks": 48,
          "midi": 43,
          "name": "G2",
          "ticks": 30336,
          "time": 90.28562400000001,
          "velocity": 0.7559055118110236
        },
        {
          "duration": 0.2857139999999987,
          "durationTicks": 96,
          "midi": 43,
          "name": "G2",
          "ticks": 30384,
          "time": 90.428481,
          "velocity": 0.7559055118110236
        },
        {
          "duration": 0.14285700000000645,
          "durationTicks": 48,
          "midi": 43,
          "name": "G2",
          "ticks": 30480,
          "time": 90.714195,
          "velocity": 0.7559055118110236
        },
        {
          "duration": 0.2857139999999987,
          "durationTicks": 96,
          "midi": 43,
          "name": "G2",
          "ticks": 30528,
          "time": 90.85705200000001,
          "velocity": 0.7559055118110236
        },
        {
          "duration": 0.14285699999999224,
          "durationTicks": 48,
          "midi": 43,
          "name": "G2",
          "ticks": 30624,
          "time": 91.14276600000001,
          "velocity": 0.7559055118110236
        },
        {
          "duration": 0.14285700000000645,
          "durationTicks": 48,
          "midi": 43,
          "name": "G2",
          "ticks": 30672,
          "time": 91.285623,
          "velocity": 0.7559055118110236
        },
        {
          "duration": 0.14285700000000645,
          "durationTicks": 48,
          "midi": 45,
          "name": "A2",
          "ticks": 30720,
          "time": 91.42848000000001,
          "velocity": 0.7559055118110236
        },
        {
          "duration": 0.2857139999999987,
          "durationTicks": 96,
          "midi": 45,
          "name": "A2",
          "ticks": 30768,
          "time": 91.57133700000001,
          "velocity": 0.7559055118110236
        },
        {
          "duration": 0.14285699999999224,
          "durationTicks": 48,
          "midi": 45,
          "name": "A2",
          "ticks": 30864,
          "time": 91.85705100000001,
          "velocity": 0.7559055118110236
        },
        {
          "duration": 0.2857139999999987,
          "durationTicks": 96,
          "midi": 45,
          "name": "A2",
          "ticks": 30912,
          "time": 91.999908,
          "velocity": 0.7559055118110236
        },
        {
          "duration": 0.14285700000000645,
          "durationTicks": 48,
          "midi": 45,
          "name": "A2",
          "ticks": 31008,
          "time": 92.285622,
          "velocity": 0.7559055118110236
        },
        {
          "duration": 0.14285699999999224,
          "durationTicks": 48,
          "midi": 45,
          "name": "A2",
          "ticks": 31056,
          "time": 92.42847900000001,
          "velocity": 0.7559055118110236
        },
        {
          "duration": 0.14285700000000645,
          "durationTicks": 48,
          "midi": 45,
          "name": "A2",
          "ticks": 31104,
          "time": 92.571336,
          "velocity": 0.7559055118110236
        },
        {
          "duration": 0.2857139999999987,
          "durationTicks": 96,
          "midi": 45,
          "name": "A2",
          "ticks": 31152,
          "time": 92.71419300000001,
          "velocity": 0.7559055118110236
        },
        {
          "duration": 0.14285700000000645,
          "durationTicks": 48,
          "midi": 45,
          "name": "A2",
          "ticks": 31248,
          "time": 92.99990700000001,
          "velocity": 0.7559055118110236
        },
        {
          "duration": 0.2857139999999987,
          "durationTicks": 96,
          "midi": 45,
          "name": "A2",
          "ticks": 31296,
          "time": 93.14276400000001,
          "velocity": 0.7559055118110236
        },
        {
          "duration": 0.14285699999999224,
          "durationTicks": 48,
          "midi": 45,
          "name": "A2",
          "ticks": 31392,
          "time": 93.42847800000001,
          "velocity": 0.7559055118110236
        },
        {
          "duration": 0.14285700000000645,
          "durationTicks": 48,
          "midi": 45,
          "name": "A2",
          "ticks": 31440,
          "time": 93.571335,
          "velocity": 0.7559055118110236
        },
        {
          "duration": 0.14285699999999224,
          "durationTicks": 48,
          "midi": 50,
          "name": "D3",
          "ticks": 31488,
          "time": 93.71419200000001,
          "velocity": 0.7559055118110236
        },
        {
          "duration": 0.2857139999999987,
          "durationTicks": 96,
          "midi": 50,
          "name": "D3",
          "ticks": 31536,
          "time": 93.857049,
          "velocity": 0.7559055118110236
        },
        {
          "duration": 0.14285700000000645,
          "durationTicks": 48,
          "midi": 50,
          "name": "D3",
          "ticks": 31632,
          "time": 94.142763,
          "velocity": 0.7559055118110236
        },
        {
          "duration": 0.2857139999999987,
          "durationTicks": 96,
          "midi": 50,
          "name": "D3",
          "ticks": 31680,
          "time": 94.28562000000001,
          "velocity": 0.7559055118110236
        },
        {
          "duration": 0.14285700000000645,
          "durationTicks": 48,
          "midi": 50,
          "name": "D3",
          "ticks": 31776,
          "time": 94.57133400000001,
          "velocity": 0.7559055118110236
        },
        {
          "duration": 0.14285699999999224,
          "durationTicks": 48,
          "midi": 50,
          "name": "D3",
          "ticks": 31824,
          "time": 94.71419100000001,
          "velocity": 0.7559055118110236
        },
        {
          "duration": 0.14285700000000645,
          "durationTicks": 48,
          "midi": 46,
          "name": "A#2",
          "ticks": 31872,
          "time": 94.857048,
          "velocity": 0.7559055118110236
        },
        {
          "duration": 0.2857139999999987,
          "durationTicks": 96,
          "midi": 46,
          "name": "A#2",
          "ticks": 31920,
          "time": 94.99990500000001,
          "velocity": 0.7559055118110236
        },
        {
          "duration": 0.14285699999999224,
          "durationTicks": 48,
          "midi": 46,
          "name": "A#2",
          "ticks": 32016,
          "time": 95.28561900000001,
          "velocity": 0.7559055118110236
        },
        {
          "duration": 0.2857139999999987,
          "durationTicks": 96,
          "midi": 46,
          "name": "A#2",
          "ticks": 32064,
          "time": 95.428476,
          "velocity": 0.7559055118110236
        },
        {
          "duration": 0.14285700000000645,
          "durationTicks": 48,
          "midi": 46,
          "name": "A#2",
          "ticks": 32160,
          "time": 95.71419,
          "velocity": 0.7559055118110236
        },
        {
          "duration": 0.14285700000000645,
          "durationTicks": 48,
          "midi": 46,
          "name": "A#2",
          "ticks": 32208,
          "time": 95.85704700000001,
          "velocity": 0.7559055118110236
        },
        {
          "duration": 0.14285699999999224,
          "durationTicks": 48,
          "midi": 48,
          "name": "C3",
          "ticks": 32256,
          "time": 95.99990400000002,
          "velocity": 0.7559055118110236
        },
        {
          "duration": 0.2857139999999987,
          "durationTicks": 96,
          "midi": 48,
          "name": "C3",
          "ticks": 32304,
          "time": 96.14276100000001,
          "velocity": 0.7559055118110236
        },
        {
          "duration": 0.14285700000000645,
          "durationTicks": 48,
          "midi": 48,
          "name": "C3",
          "ticks": 32400,
          "time": 96.428475,
          "velocity": 0.7559055118110236
        },
        {
          "duration": 0.2857139999999987,
          "durationTicks": 96,
          "midi": 48,
          "name": "C3",
          "ticks": 32448,
          "time": 96.57133200000001,
          "velocity": 0.7559055118110236
        },
        {
          "duration": 0.14285699999999224,
          "durationTicks": 48,
          "midi": 48,
          "name": "C3",
          "ticks": 32544,
          "time": 96.85704600000001,
          "velocity": 0.7559055118110236
        },
        {
          "duration": 0.14285700000000645,
          "durationTicks": 48,
          "midi": 48,
          "name": "C3",
          "ticks": 32592,
          "time": 96.999903,
          "velocity": 0.7559055118110236
        },
        {
          "duration": 0.14285699999999224,
          "durationTicks": 48,
          "midi": 45,
          "name": "A2",
          "ticks": 32640,
          "time": 97.14276000000001,
          "velocity": 0.7559055118110236
        },
        {
          "duration": 0.2857140000000129,
          "durationTicks": 96,
          "midi": 45,
          "name": "A2",
          "ticks": 32688,
          "time": 97.285617,
          "velocity": 0.7559055118110236
        },
        {
          "duration": 0.14285699999999224,
          "durationTicks": 48,
          "midi": 45,
          "name": "A2",
          "ticks": 32784,
          "time": 97.57133100000001,
          "velocity": 0.7559055118110236
        },
        {
          "duration": 0.2857139999999987,
          "durationTicks": 96,
          "midi": 45,
          "name": "A2",
          "ticks": 32832,
          "time": 97.71418800000001,
          "velocity": 0.7559055118110236
        },
        {
          "duration": 0.14285700000000645,
          "durationTicks": 48,
          "midi": 45,
          "name": "A2",
          "ticks": 32928,
          "time": 97.999902,
          "velocity": 0.7559055118110236
        },
        {
          "duration": 0.14285699999999224,
          "durationTicks": 48,
          "midi": 45,
          "name": "A2",
          "ticks": 32976,
          "time": 98.14275900000001,
          "velocity": 0.7559055118110236
        },
        {
          "duration": 0.14285700000000645,
          "durationTicks": 48,
          "midi": 46,
          "name": "A#2",
          "ticks": 33024,
          "time": 98.285616,
          "velocity": 0.7559055118110236
        },
        {
          "duration": 0.2857139999999987,
          "durationTicks": 96,
          "midi": 46,
          "name": "A#2",
          "ticks": 33072,
          "time": 98.42847300000001,
          "velocity": 0.7559055118110236
        },
        {
          "duration": 0.14285699999999224,
          "durationTicks": 48,
          "midi": 46,
          "name": "A#2",
          "ticks": 33168,
          "time": 98.71418700000001,
          "velocity": 0.7559055118110236
        },
        {
          "duration": 0.2857140000000129,
          "durationTicks": 96,
          "midi": 46,
          "name": "A#2",
          "ticks": 33216,
          "time": 98.857044,
          "velocity": 0.7559055118110236
        },
        {
          "duration": 0.14285699999999224,
          "durationTicks": 48,
          "midi": 46,
          "name": "A#2",
          "ticks": 33312,
          "time": 99.14275800000001,
          "velocity": 0.7559055118110236
        },
        {
          "duration": 0.14285700000000645,
          "durationTicks": 48,
          "midi": 46,
          "name": "A#2",
          "ticks": 33360,
          "time": 99.285615,
          "velocity": 0.7559055118110236
        },
        {
          "duration": 0.14285699999999224,
          "durationTicks": 48,
          "midi": 43,
          "name": "G2",
          "ticks": 33408,
          "time": 99.42847200000001,
          "velocity": 0.7559055118110236
        },
        {
          "duration": 0.2857139999999987,
          "durationTicks": 96,
          "midi": 43,
          "name": "G2",
          "ticks": 33456,
          "time": 99.571329,
          "velocity": 0.7559055118110236
        },
        {
          "duration": 0.14285700000000645,
          "durationTicks": 48,
          "midi": 43,
          "name": "G2",
          "ticks": 33552,
          "time": 99.857043,
          "velocity": 0.7559055118110236
        },
        {
          "duration": 0.2857139999999987,
          "durationTicks": 96,
          "midi": 43,
          "name": "G2",
          "ticks": 33600,
          "time": 99.99990000000001,
          "velocity": 0.7559055118110236
        },
        {
          "duration": 0.14285699999999224,
          "durationTicks": 48,
          "midi": 43,
          "name": "G2",
          "ticks": 33696,
          "time": 100.28561400000001,
          "velocity": 0.7559055118110236
        },
        {
          "duration": 0.14285700000000645,
          "durationTicks": 48,
          "midi": 43,
          "name": "G2",
          "ticks": 33744,
          "time": 100.428471,
          "velocity": 0.7559055118110236
        },
        {
          "duration": 0.14285700000000645,
          "durationTicks": 48,
          "midi": 45,
          "name": "A2",
          "ticks": 33792,
          "time": 100.57132800000001,
          "velocity": 0.7559055118110236
        },
        {
          "duration": 0.2857139999999987,
          "durationTicks": 96,
          "midi": 45,
          "name": "A2",
          "ticks": 33840,
          "time": 100.71418500000001,
          "velocity": 0.7559055118110236
        },
        {
          "duration": 0.14285699999999224,
          "durationTicks": 48,
          "midi": 45,
          "name": "A2",
          "ticks": 33936,
          "time": 100.99989900000001,
          "velocity": 0.7559055118110236
        },
        {
          "duration": 0.2857139999999987,
          "durationTicks": 96,
          "midi": 45,
          "name": "A2",
          "ticks": 33984,
          "time": 101.142756,
          "velocity": 0.7559055118110236
        },
        {
          "duration": 0.14285700000000645,
          "durationTicks": 48,
          "midi": 45,
          "name": "A2",
          "ticks": 34080,
          "time": 101.42847,
          "velocity": 0.7559055118110236
        },
        {
          "duration": 0.14285699999999224,
          "durationTicks": 48,
          "midi": 45,
          "name": "A2",
          "ticks": 34128,
          "time": 101.57132700000001,
          "velocity": 0.7559055118110236
        },
        {
          "duration": 0.14285700000000645,
          "durationTicks": 48,
          "midi": 45,
          "name": "A2",
          "ticks": 34176,
          "time": 101.714184,
          "velocity": 0.7559055118110236
        },
        {
          "duration": 0.2857139999999987,
          "durationTicks": 96,
          "midi": 45,
          "name": "A2",
          "ticks": 34224,
          "time": 101.85704100000001,
          "velocity": 0.7559055118110236
        },
        {
          "duration": 0.14285700000000645,
          "durationTicks": 48,
          "midi": 45,
          "name": "A2",
          "ticks": 34320,
          "time": 102.14275500000001,
          "velocity": 0.7559055118110236
        },
        {
          "duration": 0.2857139999999987,
          "durationTicks": 96,
          "midi": 45,
          "name": "A2",
          "ticks": 34368,
          "time": 102.28561200000001,
          "velocity": 0.7559055118110236
        },
        {
          "duration": 0.14285699999999224,
          "durationTicks": 48,
          "midi": 45,
          "name": "A2",
          "ticks": 34464,
          "time": 102.57132600000001,
          "velocity": 0.7559055118110236
        },
        {
          "duration": 0.14285700000000645,
          "durationTicks": 48,
          "midi": 45,
          "name": "A2",
          "ticks": 34512,
          "time": 102.714183,
          "velocity": 0.7559055118110236
        },
        {
          "duration": 0.14285699999999224,
          "durationTicks": 48,
          "midi": 50,
          "name": "D3",
          "ticks": 34560,
          "time": 102.85704000000001,
          "velocity": 0.7559055118110236
        },
        {
          "duration": 0.2857139999999987,
          "durationTicks": 96,
          "midi": 50,
          "name": "D3",
          "ticks": 34608,
          "time": 102.999897,
          "velocity": 0.7559055118110236
        },
        {
          "duration": 0.14285700000000645,
          "durationTicks": 48,
          "midi": 50,
          "name": "D3",
          "ticks": 34704,
          "time": 103.285611,
          "velocity": 0.7559055118110236
        },
        {
          "duration": 0.2857139999999987,
          "durationTicks": 96,
          "midi": 50,
          "name": "D3",
          "ticks": 34752,
          "time": 103.42846800000001,
          "velocity": 0.7559055118110236
        },
        {
          "duration": 0.14285700000000645,
          "durationTicks": 48,
          "midi": 50,
          "name": "D3",
          "ticks": 34848,
          "time": 103.71418200000001,
          "velocity": 0.7559055118110236
        },
        {
          "duration": 0.14285699999999224,
          "durationTicks": 48,
          "midi": 50,
          "name": "D3",
          "ticks": 34896,
          "time": 103.85703900000001,
          "velocity": 0.7559055118110236
        },
        {
          "duration": 0.14285700000000645,
          "durationTicks": 48,
          "midi": 46,
          "name": "A#2",
          "ticks": 34944,
          "time": 103.999896,
          "velocity": 0.7559055118110236
        },
        {
          "duration": 0.2857139999999987,
          "durationTicks": 96,
          "midi": 46,
          "name": "A#2",
          "ticks": 34992,
          "time": 104.14275300000001,
          "velocity": 0.7559055118110236
        },
        {
          "duration": 0.14285699999999224,
          "durationTicks": 48,
          "midi": 46,
          "name": "A#2",
          "ticks": 35088,
          "time": 104.42846700000001,
          "velocity": 0.7559055118110236
        },
        {
          "duration": 0.2857139999999987,
          "durationTicks": 96,
          "midi": 46,
          "name": "A#2",
          "ticks": 35136,
          "time": 104.571324,
          "velocity": 0.7559055118110236
        },
        {
          "duration": 0.14285700000000645,
          "durationTicks": 48,
          "midi": 46,
          "name": "A#2",
          "ticks": 35232,
          "time": 104.857038,
          "velocity": 0.7559055118110236
        },
        {
          "duration": 0.14285699999999224,
          "durationTicks": 48,
          "midi": 46,
          "name": "A#2",
          "ticks": 35280,
          "time": 104.99989500000001,
          "velocity": 0.7559055118110236
        },
        {
          "duration": 0.14285700000000645,
          "durationTicks": 48,
          "midi": 48,
          "name": "C3",
          "ticks": 35328,
          "time": 105.142752,
          "velocity": 0.7559055118110236
        },
        {
          "duration": 0.2857139999999987,
          "durationTicks": 96,
          "midi": 48,
          "name": "C3",
          "ticks": 35376,
          "time": 105.28560900000001,
          "velocity": 0.7559055118110236
        },
        {
          "duration": 0.14285700000000645,
          "durationTicks": 48,
          "midi": 48,
          "name": "C3",
          "ticks": 35472,
          "time": 105.571323,
          "velocity": 0.7559055118110236
        },
        {
          "duration": 0.2857139999999987,
          "durationTicks": 96,
          "midi": 48,
          "name": "C3",
          "ticks": 35520,
          "time": 105.71418000000001,
          "velocity": 0.7559055118110236
        },
        {
          "duration": 0.14285699999999224,
          "durationTicks": 48,
          "midi": 48,
          "name": "C3",
          "ticks": 35616,
          "time": 105.99989400000001,
          "velocity": 0.7559055118110236
        },
        {
          "duration": 0.14285700000000645,
          "durationTicks": 48,
          "midi": 48,
          "name": "C3",
          "ticks": 35664,
          "time": 106.142751,
          "velocity": 0.7559055118110236
        },
        {
          "duration": 0.14285699999999224,
          "durationTicks": 48,
          "midi": 45,
          "name": "A2",
          "ticks": 35712,
          "time": 106.28560800000001,
          "velocity": 0.7559055118110236
        },
        {
          "duration": 0.2857140000000129,
          "durationTicks": 96,
          "midi": 45,
          "name": "A2",
          "ticks": 35760,
          "time": 106.428465,
          "velocity": 0.7559055118110236
        },
        {
          "duration": 0.14285699999999224,
          "durationTicks": 48,
          "midi": 45,
          "name": "A2",
          "ticks": 35856,
          "time": 106.71417900000002,
          "velocity": 0.7559055118110236
        },
        {
          "duration": 0.2857139999999987,
          "durationTicks": 96,
          "midi": 45,
          "name": "A2",
          "ticks": 35904,
          "time": 106.85703600000001,
          "velocity": 0.7559055118110236
        },
        {
          "duration": 0.14285700000000645,
          "durationTicks": 48,
          "midi": 45,
          "name": "A2",
          "ticks": 36000,
          "time": 107.14275,
          "velocity": 0.7559055118110236
        },
        {
          "duration": 0.14285699999999224,
          "durationTicks": 48,
          "midi": 45,
          "name": "A2",
          "ticks": 36048,
          "time": 107.28560700000001,
          "velocity": 0.7559055118110236
        },
        {
          "duration": 0.14285700000000645,
          "durationTicks": 48,
          "midi": 46,
          "name": "A#2",
          "ticks": 36096,
          "time": 107.428464,
          "velocity": 0.7559055118110236
        },
        {
          "duration": 0.2857139999999987,
          "durationTicks": 96,
          "midi": 46,
          "name": "A#2",
          "ticks": 36144,
          "time": 107.57132100000001,
          "velocity": 0.7559055118110236
        },
        {
          "duration": 0.14285699999999224,
          "durationTicks": 48,
          "midi": 46,
          "name": "A#2",
          "ticks": 36240,
          "time": 107.85703500000001,
          "velocity": 0.7559055118110236
        },
        {
          "duration": 0.2857140000000129,
          "durationTicks": 96,
          "midi": 46,
          "name": "A#2",
          "ticks": 36288,
          "time": 107.999892,
          "velocity": 0.7559055118110236
        },
        {
          "duration": 0.14285699999999224,
          "durationTicks": 48,
          "midi": 46,
          "name": "A#2",
          "ticks": 36384,
          "time": 108.28560600000002,
          "velocity": 0.7559055118110236
        },
        {
          "duration": 0.14285700000000645,
          "durationTicks": 48,
          "midi": 46,
          "name": "A#2",
          "ticks": 36432,
          "time": 108.42846300000001,
          "velocity": 0.7559055118110236
        },
        {
          "duration": 0.14285699999999224,
          "durationTicks": 48,
          "midi": 43,
          "name": "G2",
          "ticks": 36480,
          "time": 108.57132000000001,
          "velocity": 0.7559055118110236
        },
        {
          "duration": 0.2857139999999987,
          "durationTicks": 96,
          "midi": 43,
          "name": "G2",
          "ticks": 36528,
          "time": 108.714177,
          "velocity": 0.7559055118110236
        },
        {
          "duration": 0.14285700000000645,
          "durationTicks": 48,
          "midi": 43,
          "name": "G2",
          "ticks": 36624,
          "time": 108.999891,
          "velocity": 0.7559055118110236
        },
        {
          "duration": 0.2857139999999987,
          "durationTicks": 96,
          "midi": 43,
          "name": "G2",
          "ticks": 36672,
          "time": 109.14274800000001,
          "velocity": 0.7559055118110236
        },
        {
          "duration": 0.14285699999999224,
          "durationTicks": 48,
          "midi": 43,
          "name": "G2",
          "ticks": 36768,
          "time": 109.42846200000001,
          "velocity": 0.7559055118110236
        },
        {
          "duration": 0.14285700000000645,
          "durationTicks": 48,
          "midi": 43,
          "name": "G2",
          "ticks": 36816,
          "time": 109.571319,
          "velocity": 0.7559055118110236
        },
        {
          "duration": 0.14285700000000645,
          "durationTicks": 48,
          "midi": 45,
          "name": "A2",
          "ticks": 36864,
          "time": 109.71417600000001,
          "velocity": 0.7559055118110236
        },
        {
          "duration": 0.2857139999999987,
          "durationTicks": 96,
          "midi": 45,
          "name": "A2",
          "ticks": 36912,
          "time": 109.85703300000002,
          "velocity": 0.7559055118110236
        },
        {
          "duration": 0.14285699999999224,
          "durationTicks": 48,
          "midi": 45,
          "name": "A2",
          "ticks": 37008,
          "time": 110.14274700000001,
          "velocity": 0.7559055118110236
        },
        {
          "duration": 0.2857139999999987,
          "durationTicks": 96,
          "midi": 45,
          "name": "A2",
          "ticks": 37056,
          "time": 110.285604,
          "velocity": 0.7559055118110236
        },
        {
          "duration": 0.14285700000000645,
          "durationTicks": 48,
          "midi": 45,
          "name": "A2",
          "ticks": 37152,
          "time": 110.571318,
          "velocity": 0.7559055118110236
        },
        {
          "duration": 0.14285699999999224,
          "durationTicks": 48,
          "midi": 45,
          "name": "A2",
          "ticks": 37200,
          "time": 110.71417500000001,
          "velocity": 0.7559055118110236
        },
        {
          "duration": 0.14285700000000645,
          "durationTicks": 48,
          "midi": 45,
          "name": "A2",
          "ticks": 37248,
          "time": 110.857032,
          "velocity": 0.7559055118110236
        },
        {
          "duration": 0.2857139999999987,
          "durationTicks": 96,
          "midi": 45,
          "name": "A2",
          "ticks": 37296,
          "time": 110.99988900000001,
          "velocity": 0.7559055118110236
        },
        {
          "duration": 0.14285700000000645,
          "durationTicks": 48,
          "midi": 45,
          "name": "A2",
          "ticks": 37392,
          "time": 111.28560300000001,
          "velocity": 0.7559055118110236
        },
        {
          "duration": 0.2857139999999987,
          "durationTicks": 96,
          "midi": 45,
          "name": "A2",
          "ticks": 37440,
          "time": 111.42846000000002,
          "velocity": 0.7559055118110236
        },
        {
          "duration": 0.14285699999999224,
          "durationTicks": 48,
          "midi": 45,
          "name": "A2",
          "ticks": 37536,
          "time": 111.71417400000001,
          "velocity": 0.7559055118110236
        },
        {
          "duration": 0.14285700000000645,
          "durationTicks": 48,
          "midi": 45,
          "name": "A2",
          "ticks": 37584,
          "time": 111.857031,
          "velocity": 0.7559055118110236
        },
        {
          "duration": 0.14285699999999224,
          "durationTicks": 48,
          "midi": 50,
          "name": "D3",
          "ticks": 37632,
          "time": 111.99988800000001,
          "velocity": 0.7559055118110236
        },
        {
          "duration": 0.2857139999999987,
          "durationTicks": 96,
          "midi": 50,
          "name": "D3",
          "ticks": 37680,
          "time": 112.142745,
          "velocity": 0.7559055118110236
        },
        {
          "duration": 0.14285700000000645,
          "durationTicks": 48,
          "midi": 50,
          "name": "D3",
          "ticks": 37776,
          "time": 112.428459,
          "velocity": 0.7559055118110236
        },
        {
          "duration": 0.2857139999999987,
          "durationTicks": 96,
          "midi": 50,
          "name": "D3",
          "ticks": 37824,
          "time": 112.57131600000001,
          "velocity": 0.7559055118110236
        },
        {
          "duration": 0.14285700000000645,
          "durationTicks": 48,
          "midi": 50,
          "name": "D3",
          "ticks": 37920,
          "time": 112.85703000000001,
          "velocity": 0.7559055118110236
        },
        {
          "duration": 0.14285699999999224,
          "durationTicks": 48,
          "midi": 50,
          "name": "D3",
          "ticks": 37968,
          "time": 112.99988700000002,
          "velocity": 0.7559055118110236
        },
        {
          "duration": 0.14285700000000645,
          "durationTicks": 48,
          "midi": 50,
          "name": "D3",
          "ticks": 38016,
          "time": 113.14274400000001,
          "velocity": 0.7559055118110236
        },
        {
          "duration": 0.2857139999999987,
          "durationTicks": 96,
          "midi": 50,
          "name": "D3",
          "ticks": 38064,
          "time": 113.28560100000001,
          "velocity": 0.7559055118110236
        },
        {
          "duration": 0.14285699999999224,
          "durationTicks": 48,
          "midi": 50,
          "name": "D3",
          "ticks": 38160,
          "time": 113.57131500000001,
          "velocity": 0.7559055118110236
        },
        {
          "duration": 0.2857139999999987,
          "durationTicks": 96,
          "midi": 50,
          "name": "D3",
          "ticks": 38208,
          "time": 113.714172,
          "velocity": 0.7559055118110236
        },
        {
          "duration": 0.14285700000000645,
          "durationTicks": 48,
          "midi": 50,
          "name": "D3",
          "ticks": 38304,
          "time": 113.999886,
          "velocity": 0.7559055118110236
        },
        {
          "duration": 0.14285700000000645,
          "durationTicks": 48,
          "midi": 50,
          "name": "D3",
          "ticks": 38352,
          "time": 114.14274300000001,
          "velocity": 0.7559055118110236
        },
        {
          "duration": 0.14285699999999224,
          "durationTicks": 48,
          "midi": 46,
          "name": "A#2",
          "ticks": 38400,
          "time": 114.28560000000002,
          "velocity": 0.7559055118110236
        },
        {
          "duration": 0.2857139999999987,
          "durationTicks": 96,
          "midi": 46,
          "name": "A#2",
          "ticks": 38448,
          "time": 114.42845700000001,
          "velocity": 0.7559055118110236
        },
        {
          "duration": 0.14285700000000645,
          "durationTicks": 48,
          "midi": 46,
          "name": "A#2",
          "ticks": 38544,
          "time": 114.71417100000001,
          "velocity": 0.7559055118110236
        },
        {
          "duration": 0.2857139999999987,
          "durationTicks": 96,
          "midi": 46,
          "name": "A#2",
          "ticks": 38592,
          "time": 114.85702800000001,
          "velocity": 0.7559055118110236
        },
        {
          "duration": 0.14285699999999224,
          "durationTicks": 48,
          "midi": 46,
          "name": "A#2",
          "ticks": 38688,
          "time": 115.14274200000001,
          "velocity": 0.7559055118110236
        },
        {
          "duration": 0.14285700000000645,
          "durationTicks": 48,
          "midi": 46,
          "name": "A#2",
          "ticks": 38736,
          "time": 115.285599,
          "velocity": 0.7559055118110236
        },
        {
          "duration": 0.14285699999999224,
          "durationTicks": 48,
          "midi": 46,
          "name": "A#2",
          "ticks": 38784,
          "time": 115.42845600000001,
          "velocity": 0.7559055118110236
        },
        {
          "duration": 0.2857140000000129,
          "durationTicks": 96,
          "midi": 46,
          "name": "A#2",
          "ticks": 38832,
          "time": 115.571313,
          "velocity": 0.7559055118110236
        },
        {
          "duration": 0.14285699999999224,
          "durationTicks": 48,
          "midi": 46,
          "name": "A#2",
          "ticks": 38928,
          "time": 115.85702700000002,
          "velocity": 0.7559055118110236
        },
        {
          "duration": 0.2857139999999987,
          "durationTicks": 96,
          "midi": 46,
          "name": "A#2",
          "ticks": 38976,
          "time": 115.99988400000001,
          "velocity": 0.7559055118110236
        },
        {
          "duration": 0.14285700000000645,
          "durationTicks": 48,
          "midi": 46,
          "name": "A#2",
          "ticks": 39072,
          "time": 116.28559800000001,
          "velocity": 0.7559055118110236
        },
        {
          "duration": 0.14285699999999224,
          "durationTicks": 48,
          "midi": 46,
          "name": "A#2",
          "ticks": 39120,
          "time": 116.42845500000001,
          "velocity": 0.7559055118110236
        },
        {
          "duration": 0.14285700000000645,
          "durationTicks": 48,
          "midi": 48,
          "name": "C3",
          "ticks": 39168,
          "time": 116.571312,
          "velocity": 0.7559055118110236
        },
        {
          "duration": 0.2857139999999987,
          "durationTicks": 96,
          "midi": 48,
          "name": "C3",
          "ticks": 39216,
          "time": 116.71416900000001,
          "velocity": 0.7559055118110236
        },
        {
          "duration": 0.14285699999999224,
          "durationTicks": 48,
          "midi": 48,
          "name": "C3",
          "ticks": 39312,
          "time": 116.99988300000001,
          "velocity": 0.7559055118110236
        },
        {
          "duration": 0.2857140000000129,
          "durationTicks": 96,
          "midi": 48,
          "name": "C3",
          "ticks": 39360,
          "time": 117.14274,
          "velocity": 0.7559055118110236
        },
        {
          "duration": 0.14285699999999224,
          "durationTicks": 48,
          "midi": 48,
          "name": "C3",
          "ticks": 39456,
          "time": 117.42845400000002,
          "velocity": 0.7559055118110236
        },
        {
          "duration": 0.14285700000000645,
          "durationTicks": 48,
          "midi": 48,
          "name": "C3",
          "ticks": 39504,
          "time": 117.57131100000001,
          "velocity": 0.7559055118110236
        },
        {
          "duration": 0.14285699999999224,
          "durationTicks": 48,
          "midi": 48,
          "name": "C3",
          "ticks": 39552,
          "time": 117.71416800000002,
          "velocity": 0.7559055118110236
        },
        {
          "duration": 0.2857139999999987,
          "durationTicks": 96,
          "midi": 48,
          "name": "C3",
          "ticks": 39600,
          "time": 117.85702500000001,
          "velocity": 0.7559055118110236
        },
        {
          "duration": 0.14285700000000645,
          "durationTicks": 48,
          "midi": 48,
          "name": "C3",
          "ticks": 39696,
          "time": 118.142739,
          "velocity": 0.7559055118110236
        },
        {
          "duration": 0.2857139999999987,
          "durationTicks": 96,
          "midi": 48,
          "name": "C3",
          "ticks": 39744,
          "time": 118.28559600000001,
          "velocity": 0.7559055118110236
        },
        {
          "duration": 0.14285699999999224,
          "durationTicks": 48,
          "midi": 48,
          "name": "C3",
          "ticks": 39840,
          "time": 118.57131000000001,
          "velocity": 0.7559055118110236
        },
        {
          "duration": 0.14285700000000645,
          "durationTicks": 48,
          "midi": 48,
          "name": "C3",
          "ticks": 39888,
          "time": 118.714167,
          "velocity": 0.7559055118110236
        },
        {
          "duration": 0.14285700000000645,
          "durationTicks": 48,
          "midi": 45,
          "name": "A2",
          "ticks": 39936,
          "time": 118.85702400000001,
          "velocity": 0.7559055118110236
        },
        {
          "duration": 0.2857139999999987,
          "durationTicks": 96,
          "midi": 45,
          "name": "A2",
          "ticks": 39984,
          "time": 118.99988100000002,
          "velocity": 0.7559055118110236
        },
        {
          "duration": 0.14285699999999224,
          "durationTicks": 48,
          "midi": 45,
          "name": "A2",
          "ticks": 40080,
          "time": 119.28559500000001,
          "velocity": 0.7559055118110236
        },
        {
          "duration": 0.2857139999999987,
          "durationTicks": 96,
          "midi": 45,
          "name": "A2",
          "ticks": 40128,
          "time": 119.42845200000001,
          "velocity": 0.7559055118110236
        },
        {
          "duration": 0.14285700000000645,
          "durationTicks": 48,
          "midi": 45,
          "name": "A2",
          "ticks": 40224,
          "time": 119.714166,
          "velocity": 0.7559055118110236
        },
        {
          "duration": 0.14285699999999224,
          "durationTicks": 48,
          "midi": 45,
          "name": "A2",
          "ticks": 40272,
          "time": 119.85702300000001,
          "velocity": 0.7559055118110236
        },
        {
          "duration": 0.14285700000000645,
          "durationTicks": 48,
          "midi": 45,
          "name": "A2",
          "ticks": 40320,
          "time": 119.99988,
          "velocity": 0.7559055118110236
        },
        {
          "duration": 0.2857139999999987,
          "durationTicks": 96,
          "midi": 45,
          "name": "A2",
          "ticks": 40368,
          "time": 120.14273700000001,
          "velocity": 0.7559055118110236
        },
        {
          "duration": 0.14285700000000645,
          "durationTicks": 48,
          "midi": 45,
          "name": "A2",
          "ticks": 40464,
          "time": 120.42845100000001,
          "velocity": 0.7559055118110236
        },
        {
          "duration": 0.2857139999999987,
          "durationTicks": 96,
          "midi": 45,
          "name": "A2",
          "ticks": 40512,
          "time": 120.57130800000002,
          "velocity": 0.7559055118110236
        },
        {
          "duration": 0.14285699999999224,
          "durationTicks": 48,
          "midi": 45,
          "name": "A2",
          "ticks": 40608,
          "time": 120.85702200000001,
          "velocity": 0.7559055118110236
        },
        {
          "duration": 0.14285700000000645,
          "durationTicks": 48,
          "midi": 45,
          "name": "A2",
          "ticks": 40656,
          "time": 120.999879,
          "velocity": 0.7559055118110236
        },
        {
          "duration": 0.14285699999999224,
          "durationTicks": 48,
          "midi": 50,
          "name": "D3",
          "ticks": 40704,
          "time": 121.14273600000001,
          "velocity": 0.7559055118110236
        },
        {
          "duration": 0.2857139999999987,
          "durationTicks": 96,
          "midi": 50,
          "name": "D3",
          "ticks": 40752,
          "time": 121.285593,
          "velocity": 0.7559055118110236
        },
        {
          "duration": 0.14285700000000645,
          "durationTicks": 48,
          "midi": 50,
          "name": "D3",
          "ticks": 40848,
          "time": 121.571307,
          "velocity": 0.7559055118110236
        },
        {
          "duration": 0.2857139999999987,
          "durationTicks": 96,
          "midi": 50,
          "name": "D3",
          "ticks": 40896,
          "time": 121.71416400000001,
          "velocity": 0.7559055118110236
        },
        {
          "duration": 0.14285700000000645,
          "durationTicks": 48,
          "midi": 50,
          "name": "D3",
          "ticks": 40992,
          "time": 121.99987800000001,
          "velocity": 0.7559055118110236
        },
        {
          "duration": 0.14285699999999224,
          "durationTicks": 48,
          "midi": 50,
          "name": "D3",
          "ticks": 41040,
          "time": 122.14273500000002,
          "velocity": 0.7559055118110236
        },
        {
          "duration": 0.14285700000000645,
          "durationTicks": 48,
          "midi": 50,
          "name": "D3",
          "ticks": 41088,
          "time": 122.28559200000001,
          "velocity": 0.7559055118110236
        },
        {
          "duration": 0.2857139999999987,
          "durationTicks": 96,
          "midi": 50,
          "name": "D3",
          "ticks": 41136,
          "time": 122.42844900000001,
          "velocity": 0.7559055118110236
        },
        {
          "duration": 0.14285699999999224,
          "durationTicks": 48,
          "midi": 50,
          "name": "D3",
          "ticks": 41232,
          "time": 122.71416300000001,
          "velocity": 0.7559055118110236
        },
        {
          "duration": 0.2857139999999987,
          "durationTicks": 96,
          "midi": 50,
          "name": "D3",
          "ticks": 41280,
          "time": 122.85702,
          "velocity": 0.7559055118110236
        },
        {
          "duration": 0.14285700000000645,
          "durationTicks": 48,
          "midi": 50,
          "name": "D3",
          "ticks": 41376,
          "time": 123.142734,
          "velocity": 0.7559055118110236
        },
        {
          "duration": 0.14285699999999224,
          "durationTicks": 48,
          "midi": 50,
          "name": "D3",
          "ticks": 41424,
          "time": 123.28559100000001,
          "velocity": 0.7559055118110236
        },
        {
          "duration": 0.14285700000000645,
          "durationTicks": 48,
          "midi": 46,
          "name": "A#2",
          "ticks": 41472,
          "time": 123.428448,
          "velocity": 0.7559055118110236
        },
        {
          "duration": 0.2857139999999987,
          "durationTicks": 96,
          "midi": 46,
          "name": "A#2",
          "ticks": 41520,
          "time": 123.57130500000001,
          "velocity": 0.7559055118110236
        },
        {
          "duration": 0.14285700000000645,
          "durationTicks": 48,
          "midi": 46,
          "name": "A#2",
          "ticks": 41616,
          "time": 123.85701900000001,
          "velocity": 0.7559055118110236
        },
        {
          "duration": 0.2857139999999987,
          "durationTicks": 96,
          "midi": 46,
          "name": "A#2",
          "ticks": 41664,
          "time": 123.99987600000001,
          "velocity": 0.7559055118110236
        },
        {
          "duration": 0.14285699999999224,
          "durationTicks": 48,
          "midi": 46,
          "name": "A#2",
          "ticks": 41760,
          "time": 124.28559000000001,
          "velocity": 0.7559055118110236
        },
        {
          "duration": 0.14285700000000645,
          "durationTicks": 48,
          "midi": 46,
          "name": "A#2",
          "ticks": 41808,
          "time": 124.428447,
          "velocity": 0.7559055118110236
        },
        {
          "duration": 0.14285699999999224,
          "durationTicks": 48,
          "midi": 46,
          "name": "A#2",
          "ticks": 41856,
          "time": 124.57130400000001,
          "velocity": 0.7559055118110236
        },
        {
          "duration": 0.2857140000000129,
          "durationTicks": 96,
          "midi": 46,
          "name": "A#2",
          "ticks": 41904,
          "time": 124.714161,
          "velocity": 0.7559055118110236
        },
        {
          "duration": 0.14285699999999224,
          "durationTicks": 48,
          "midi": 46,
          "name": "A#2",
          "ticks": 42000,
          "time": 124.99987500000002,
          "velocity": 0.7559055118110236
        },
        {
          "duration": 0.2857139999999987,
          "durationTicks": 96,
          "midi": 46,
          "name": "A#2",
          "ticks": 42048,
          "time": 125.14273200000001,
          "velocity": 0.7559055118110236
        },
        {
          "duration": 0.14285700000000645,
          "durationTicks": 48,
          "midi": 46,
          "name": "A#2",
          "ticks": 42144,
          "time": 125.42844600000001,
          "velocity": 0.7559055118110236
        },
        {
          "duration": 0.14285699999999224,
          "durationTicks": 48,
          "midi": 46,
          "name": "A#2",
          "ticks": 42192,
          "time": 125.57130300000001,
          "velocity": 0.7559055118110236
        },
        {
          "duration": 0.14285700000000645,
          "durationTicks": 48,
          "midi": 48,
          "name": "C3",
          "ticks": 42240,
          "time": 125.71416,
          "velocity": 0.7559055118110236
        },
        {
          "duration": 0.2857139999999987,
          "durationTicks": 96,
          "midi": 48,
          "name": "C3",
          "ticks": 42288,
          "time": 125.85701700000001,
          "velocity": 0.7559055118110236
        },
        {
          "duration": 0.14285699999999224,
          "durationTicks": 48,
          "midi": 48,
          "name": "C3",
          "ticks": 42384,
          "time": 126.14273100000001,
          "velocity": 0.7559055118110236
        },
        {
          "duration": 0.2857140000000129,
          "durationTicks": 96,
          "midi": 48,
          "name": "C3",
          "ticks": 42432,
          "time": 126.285588,
          "velocity": 0.7559055118110236
        },
        {
          "duration": 0.14285699999999224,
          "durationTicks": 48,
          "midi": 48,
          "name": "C3",
          "ticks": 42528,
          "time": 126.57130200000002,
          "velocity": 0.7559055118110236
        },
        {
          "duration": 0.14285700000000645,
          "durationTicks": 48,
          "midi": 48,
          "name": "C3",
          "ticks": 42576,
          "time": 126.71415900000001,
          "velocity": 0.7559055118110236
        },
        {
          "duration": 0.14285699999999224,
          "durationTicks": 48,
          "midi": 48,
          "name": "C3",
          "ticks": 42624,
          "time": 126.85701600000002,
          "velocity": 0.7559055118110236
        },
        {
          "duration": 0.2857139999999987,
          "durationTicks": 96,
          "midi": 48,
          "name": "C3",
          "ticks": 42672,
          "time": 126.99987300000001,
          "velocity": 0.7559055118110236
        },
        {
          "duration": 0.14285700000000645,
          "durationTicks": 48,
          "midi": 48,
          "name": "C3",
          "ticks": 42768,
          "time": 127.285587,
          "velocity": 0.7559055118110236
        },
        {
          "duration": 0.2857139999999987,
          "durationTicks": 96,
          "midi": 48,
          "name": "C3",
          "ticks": 42816,
          "time": 127.42844400000001,
          "velocity": 0.7559055118110236
        },
        {
          "duration": 0.14285699999999224,
          "durationTicks": 48,
          "midi": 48,
          "name": "C3",
          "ticks": 42912,
          "time": 127.71415800000001,
          "velocity": 0.7559055118110236
        },
        {
          "duration": 0.14285700000000645,
          "durationTicks": 48,
          "midi": 48,
          "name": "C3",
          "ticks": 42960,
          "time": 127.857015,
          "velocity": 0.7559055118110236
        },
        {
          "duration": 0.14285699999999224,
          "durationTicks": 48,
          "midi": 45,
          "name": "A2",
          "ticks": 43008,
          "time": 127.99987200000001,
          "velocity": 0.7559055118110236
        },
        {
          "duration": 0.2857140000000129,
          "durationTicks": 96,
          "midi": 45,
          "name": "A2",
          "ticks": 43056,
          "time": 128.142729,
          "velocity": 0.7559055118110236
        },
        {
          "duration": 0.14285699999999224,
          "durationTicks": 48,
          "midi": 45,
          "name": "A2",
          "ticks": 43152,
          "time": 128.42844300000002,
          "velocity": 0.7559055118110236
        },
        {
          "duration": 0.2857140000000129,
          "durationTicks": 96,
          "midi": 45,
          "name": "A2",
          "ticks": 43200,
          "time": 128.5713,
          "velocity": 0.7559055118110236
        },
        {
          "duration": 0.14285699999999224,
          "durationTicks": 48,
          "midi": 45,
          "name": "A2",
          "ticks": 43296,
          "time": 128.85701400000002,
          "velocity": 0.7559055118110236
        },
        {
          "duration": 0.14285699999999224,
          "durationTicks": 48,
          "midi": 45,
          "name": "A2",
          "ticks": 43344,
          "time": 128.999871,
          "velocity": 0.7559055118110236
        },
        {
          "duration": 0.14285699999999224,
          "durationTicks": 48,
          "midi": 45,
          "name": "A2",
          "ticks": 43392,
          "time": 129.142728,
          "velocity": 0.7559055118110236
        },
        {
          "duration": 0.2857140000000129,
          "durationTicks": 96,
          "midi": 45,
          "name": "A2",
          "ticks": 43440,
          "time": 129.285585,
          "velocity": 0.7559055118110236
        },
        {
          "duration": 0.14285699999999224,
          "durationTicks": 48,
          "midi": 45,
          "name": "A2",
          "ticks": 43536,
          "time": 129.571299,
          "velocity": 0.7559055118110236
        },
        {
          "duration": 0.2857140000000129,
          "durationTicks": 96,
          "midi": 45,
          "name": "A2",
          "ticks": 43584,
          "time": 129.714156,
          "velocity": 0.7559055118110236
        },
        {
          "duration": 0.14285699999999224,
          "durationTicks": 48,
          "midi": 45,
          "name": "A2",
          "ticks": 43680,
          "time": 129.99987000000002,
          "velocity": 0.7559055118110236
        },
        {
          "duration": 0.14285699999999224,
          "durationTicks": 48,
          "midi": 45,
          "name": "A2",
          "ticks": 43728,
          "time": 130.142727,
          "velocity": 0.7559055118110236
        },
        {
          "duration": 0.14285700000002066,
          "durationTicks": 48,
          "midi": 50,
          "name": "D3",
          "ticks": 43776,
          "time": 130.285584,
          "velocity": 0.7559055118110236
        },
        {
          "duration": 0.2857139999999845,
          "durationTicks": 96,
          "midi": 50,
          "name": "D3",
          "ticks": 43824,
          "time": 130.42844100000002,
          "velocity": 0.7559055118110236
        },
        {
          "duration": 0.14285699999999224,
          "durationTicks": 48,
          "midi": 50,
          "name": "D3",
          "ticks": 43920,
          "time": 130.714155,
          "velocity": 0.7559055118110236
        },
        {
          "duration": 0.2857140000000129,
          "durationTicks": 96,
          "midi": 50,
          "name": "D3",
          "ticks": 43968,
          "time": 130.857012,
          "velocity": 0.7559055118110236
        },
        {
          "duration": 0.14285699999999224,
          "durationTicks": 48,
          "midi": 50,
          "name": "D3",
          "ticks": 44064,
          "time": 131.142726,
          "velocity": 0.7559055118110236
        },
        {
          "duration": 0.14285700000002066,
          "durationTicks": 48,
          "midi": 50,
          "name": "D3",
          "ticks": 44112,
          "time": 131.285583,
          "velocity": 0.7559055118110236
        },
        {
          "duration": 0.14285699999999224,
          "durationTicks": 48,
          "midi": 46,
          "name": "A#2",
          "ticks": 44160,
          "time": 131.42844000000002,
          "velocity": 0.7559055118110236
        },
        {
          "duration": 0.2857139999999845,
          "durationTicks": 96,
          "midi": 46,
          "name": "A#2",
          "ticks": 44208,
          "time": 131.57129700000002,
          "velocity": 0.7559055118110236
        },
        {
          "duration": 0.14285700000002066,
          "durationTicks": 48,
          "midi": 46,
          "name": "A#2",
          "ticks": 44304,
          "time": 131.857011,
          "velocity": 0.7559055118110236
        },
        {
          "duration": 0.2857139999999845,
          "durationTicks": 96,
          "midi": 46,
          "name": "A#2",
          "ticks": 44352,
          "time": 131.99986800000002,
          "velocity": 0.7559055118110236
        },
        {
          "duration": 0.14285699999999224,
          "durationTicks": 48,
          "midi": 46,
          "name": "A#2",
          "ticks": 44448,
          "time": 132.285582,
          "velocity": 0.7559055118110236
        },
        {
          "duration": 0.14285700000002066,
          "durationTicks": 48,
          "midi": 46,
          "name": "A#2",
          "ticks": 44496,
          "time": 132.428439,
          "velocity": 0.7559055118110236
        },
        {
          "duration": 0.14285699999999224,
          "durationTicks": 48,
          "midi": 48,
          "name": "C3",
          "ticks": 44544,
          "time": 132.57129600000002,
          "velocity": 0.7559055118110236
        },
        {
          "duration": 0.2857140000000129,
          "durationTicks": 96,
          "midi": 48,
          "name": "C3",
          "ticks": 44592,
          "time": 132.714153,
          "velocity": 0.7559055118110236
        },
        {
          "duration": 0.14285699999999224,
          "durationTicks": 48,
          "midi": 48,
          "name": "C3",
          "ticks": 44688,
          "time": 132.99986700000002,
          "velocity": 0.7559055118110236
        },
        {
          "duration": 0.2857139999999845,
          "durationTicks": 96,
          "midi": 48,
          "name": "C3",
          "ticks": 44736,
          "time": 133.14272400000002,
          "velocity": 0.7559055118110236
        },
        {
          "duration": 0.14285700000002066,
          "durationTicks": 48,
          "midi": 48,
          "name": "C3",
          "ticks": 44832,
          "time": 133.428438,
          "velocity": 0.7559055118110236
        },
        {
          "duration": 0.14285699999999224,
          "durationTicks": 48,
          "midi": 48,
          "name": "C3",
          "ticks": 44880,
          "time": 133.57129500000002,
          "velocity": 0.7559055118110236
        },
        {
          "duration": 0.14285699999999224,
          "durationTicks": 48,
          "midi": 45,
          "name": "A2",
          "ticks": 44928,
          "time": 133.714152,
          "velocity": 0.7559055118110236
        },
        {
          "duration": 0.2857140000000129,
          "durationTicks": 96,
          "midi": 45,
          "name": "A2",
          "ticks": 44976,
          "time": 133.857009,
          "velocity": 0.7559055118110236
        },
        {
          "duration": 0.14285699999999224,
          "durationTicks": 48,
          "midi": 45,
          "name": "A2",
          "ticks": 45072,
          "time": 134.14272300000002,
          "velocity": 0.7559055118110236
        },
        {
          "duration": 0.2857140000000129,
          "durationTicks": 96,
          "midi": 45,
          "name": "A2",
          "ticks": 45120,
          "time": 134.28558,
          "velocity": 0.7559055118110236
        },
        {
          "duration": 0.14285699999999224,
          "durationTicks": 48,
          "midi": 45,
          "name": "A2",
          "ticks": 45216,
          "time": 134.57129400000002,
          "velocity": 0.7559055118110236
        },
        {
          "duration": 0.14285699999999224,
          "durationTicks": 48,
          "midi": 45,
          "name": "A2",
          "ticks": 45264,
          "time": 134.71415100000002,
          "velocity": 0.7559055118110236
        },
        {
          "duration": 0.14285699999999224,
          "durationTicks": 48,
          "midi": 46,
          "name": "A#2",
          "ticks": 45312,
          "time": 134.857008,
          "velocity": 0.7559055118110236
        },
        {
          "duration": 0.2857140000000129,
          "durationTicks": 96,
          "midi": 46,
          "name": "A#2",
          "ticks": 45360,
          "time": 134.999865,
          "velocity": 0.7559055118110236
        },
        {
          "duration": 0.14285699999999224,
          "durationTicks": 48,
          "midi": 46,
          "name": "A#2",
          "ticks": 45456,
          "time": 135.285579,
          "velocity": 0.7559055118110236
        },
        {
          "duration": 0.2857140000000129,
          "durationTicks": 96,
          "midi": 46,
          "name": "A#2",
          "ticks": 45504,
          "time": 135.428436,
          "velocity": 0.7559055118110236
        },
        {
          "duration": 0.14285699999999224,
          "durationTicks": 48,
          "midi": 46,
          "name": "A#2",
          "ticks": 45600,
          "time": 135.71415000000002,
          "velocity": 0.7559055118110236
        },
        {
          "duration": 0.14285699999999224,
          "durationTicks": 48,
          "midi": 46,
          "name": "A#2",
          "ticks": 45648,
          "time": 135.857007,
          "velocity": 0.7559055118110236
        },
        {
          "duration": 0.14285700000002066,
          "durationTicks": 48,
          "midi": 43,
          "name": "G2",
          "ticks": 45696,
          "time": 135.999864,
          "velocity": 0.7559055118110236
        },
        {
          "duration": 0.2857139999999845,
          "durationTicks": 96,
          "midi": 43,
          "name": "G2",
          "ticks": 45744,
          "time": 136.14272100000002,
          "velocity": 0.7559055118110236
        },
        {
          "duration": 0.14285699999999224,
          "durationTicks": 48,
          "midi": 43,
          "name": "G2",
          "ticks": 45840,
          "time": 136.428435,
          "velocity": 0.7559055118110236
        },
        {
          "duration": 0.2857140000000129,
          "durationTicks": 96,
          "midi": 43,
          "name": "G2",
          "ticks": 45888,
          "time": 136.571292,
          "velocity": 0.7559055118110236
        },
        {
          "duration": 0.14285699999999224,
          "durationTicks": 48,
          "midi": 43,
          "name": "G2",
          "ticks": 45984,
          "time": 136.857006,
          "velocity": 0.7559055118110236
        },
        {
          "duration": 0.14285699999999224,
          "durationTicks": 48,
          "midi": 43,
          "name": "G2",
          "ticks": 46032,
          "time": 136.999863,
          "velocity": 0.7559055118110236
        },
        {
          "duration": 0.14285700000002066,
          "durationTicks": 48,
          "midi": 45,
          "name": "A2",
          "ticks": 46080,
          "time": 137.14272,
          "velocity": 0.7559055118110236
        },
        {
          "duration": 0.2857139999999845,
          "durationTicks": 96,
          "midi": 45,
          "name": "A2",
          "ticks": 46128,
          "time": 137.28557700000002,
          "velocity": 0.7559055118110236
        },
        {
          "duration": 0.14285700000002066,
          "durationTicks": 48,
          "midi": 45,
          "name": "A2",
          "ticks": 46224,
          "time": 137.571291,
          "velocity": 0.7559055118110236
        },
        {
          "duration": 0.2857139999999845,
          "durationTicks": 96,
          "midi": 45,
          "name": "A2",
          "ticks": 46272,
          "time": 137.71414800000002,
          "velocity": 0.7559055118110236
        },
        {
          "duration": 0.14285699999999224,
          "durationTicks": 48,
          "midi": 45,
          "name": "A2",
          "ticks": 46368,
          "time": 137.999862,
          "velocity": 0.7559055118110236
        },
        {
          "duration": 0.14285700000002066,
          "durationTicks": 48,
          "midi": 45,
          "name": "A2",
          "ticks": 46416,
          "time": 138.142719,
          "velocity": 0.7559055118110236
        },
        {
          "duration": 0.14285699999999224,
          "durationTicks": 48,
          "midi": 45,
          "name": "A2",
          "ticks": 46464,
          "time": 138.28557600000002,
          "velocity": 0.7559055118110236
        },
        {
          "duration": 0.2857140000000129,
          "durationTicks": 96,
          "midi": 45,
          "name": "A2",
          "ticks": 46512,
          "time": 138.428433,
          "velocity": 0.7559055118110236
        },
        {
          "duration": 0.14285699999999224,
          "durationTicks": 48,
          "midi": 45,
          "name": "A2",
          "ticks": 46608,
          "time": 138.71414700000003,
          "velocity": 0.7559055118110236
        },
        {
          "duration": 0.2857139999999845,
          "durationTicks": 96,
          "midi": 45,
          "name": "A2",
          "ticks": 46656,
          "time": 138.85700400000002,
          "velocity": 0.7559055118110236
        },
        {
          "duration": 0.14285700000002066,
          "durationTicks": 48,
          "midi": 45,
          "name": "A2",
          "ticks": 46752,
          "time": 139.142718,
          "velocity": 0.7559055118110236
        },
        {
          "duration": 0.14285699999999224,
          "durationTicks": 48,
          "midi": 45,
          "name": "A2",
          "ticks": 46800,
          "time": 139.28557500000002,
          "velocity": 0.7559055118110236
        },
        {
          "duration": 0.14285699999999224,
          "durationTicks": 48,
          "midi": 50,
          "name": "D3",
          "ticks": 46848,
          "time": 139.42843200000002,
          "velocity": 0.7559055118110236
        },
        {
          "duration": 0.2857140000000129,
          "durationTicks": 96,
          "midi": 50,
          "name": "D3",
          "ticks": 46896,
          "time": 139.571289,
          "velocity": 0.7559055118110236
        },
        {
          "duration": 0.14285699999999224,
          "durationTicks": 48,
          "midi": 50,
          "name": "D3",
          "ticks": 46992,
          "time": 139.85700300000002,
          "velocity": 0.7559055118110236
        },
        {
          "duration": 0.2857140000000129,
          "durationTicks": 96,
          "midi": 50,
          "name": "D3",
          "ticks": 47040,
          "time": 139.99986,
          "velocity": 0.7559055118110236
        },
        {
          "duration": 0.14285699999999224,
          "durationTicks": 48,
          "midi": 50,
          "name": "D3",
          "ticks": 47136,
          "time": 140.28557400000003,
          "velocity": 0.7559055118110236
        },
        {
          "duration": 0.14285699999999224,
          "durationTicks": 48,
          "midi": 50,
          "name": "D3",
          "ticks": 47184,
          "time": 140.42843100000002,
          "velocity": 0.7559055118110236
        },
        {
          "duration": 0.14285699999999224,
          "durationTicks": 48,
          "midi": 46,
          "name": "A#2",
          "ticks": 47232,
          "time": 140.571288,
          "velocity": 0.7559055118110236
        },
        {
          "duration": 0.2857140000000129,
          "durationTicks": 96,
          "midi": 46,
          "name": "A#2",
          "ticks": 47280,
          "time": 140.714145,
          "velocity": 0.7559055118110236
        },
        {
          "duration": 0.14285699999999224,
          "durationTicks": 48,
          "midi": 46,
          "name": "A#2",
          "ticks": 47376,
          "time": 140.99985900000001,
          "velocity": 0.7559055118110236
        },
        {
          "duration": 0.2857140000000129,
          "durationTicks": 96,
          "midi": 46,
          "name": "A#2",
          "ticks": 47424,
          "time": 141.142716,
          "velocity": 0.7559055118110236
        },
        {
          "duration": 0.14285699999999224,
          "durationTicks": 48,
          "midi": 46,
          "name": "A#2",
          "ticks": 47520,
          "time": 141.42843000000002,
          "velocity": 0.7559055118110236
        },
        {
          "duration": 0.14285699999999224,
          "durationTicks": 48,
          "midi": 46,
          "name": "A#2",
          "ticks": 47568,
          "time": 141.571287,
          "velocity": 0.7559055118110236
        },
        {
          "duration": 0.14285700000002066,
          "durationTicks": 48,
          "midi": 48,
          "name": "C3",
          "ticks": 47616,
          "time": 141.714144,
          "velocity": 0.7559055118110236
        },
        {
          "duration": 0.2857139999999845,
          "durationTicks": 96,
          "midi": 48,
          "name": "C3",
          "ticks": 47664,
          "time": 141.85700100000003,
          "velocity": 0.7559055118110236
        },
        {
          "duration": 0.14285699999999224,
          "durationTicks": 48,
          "midi": 48,
          "name": "C3",
          "ticks": 47760,
          "time": 142.142715,
          "velocity": 0.7559055118110236
        },
        {
          "duration": 0.2857140000000129,
          "durationTicks": 96,
          "midi": 48,
          "name": "C3",
          "ticks": 47808,
          "time": 142.285572,
          "velocity": 0.7559055118110236
        },
        {
          "duration": 0.14285699999999224,
          "durationTicks": 48,
          "midi": 48,
          "name": "C3",
          "ticks": 47904,
          "time": 142.57128600000001,
          "velocity": 0.7559055118110236
        },
        {
          "duration": 0.14285699999999224,
          "durationTicks": 48,
          "midi": 48,
          "name": "C3",
          "ticks": 47952,
          "time": 142.714143,
          "velocity": 0.7559055118110236
        },
        {
          "duration": 0.14285700000002066,
          "durationTicks": 48,
          "midi": 45,
          "name": "A2",
          "ticks": 48000,
          "time": 142.857,
          "velocity": 0.7559055118110236
        },
        {
          "duration": 0.2857139999999845,
          "durationTicks": 96,
          "midi": 45,
          "name": "A2",
          "ticks": 48048,
          "time": 142.99985700000002,
          "velocity": 0.7559055118110236
        },
        {
          "duration": 0.14285700000002066,
          "durationTicks": 48,
          "midi": 45,
          "name": "A2",
          "ticks": 48144,
          "time": 143.285571,
          "velocity": 0.7559055118110236
        },
        {
          "duration": 0.2857139999999845,
          "durationTicks": 96,
          "midi": 45,
          "name": "A2",
          "ticks": 48192,
          "time": 143.42842800000003,
          "velocity": 0.7559055118110236
        },
        {
          "duration": 0.14285699999999224,
          "durationTicks": 48,
          "midi": 45,
          "name": "A2",
          "ticks": 48288,
          "time": 143.714142,
          "velocity": 0.7559055118110236
        },
        {
          "duration": 0.14285700000002066,
          "durationTicks": 48,
          "midi": 45,
          "name": "A2",
          "ticks": 48336,
          "time": 143.856999,
          "velocity": 0.7559055118110236
        },
        {
          "duration": 0.14285699999999224,
          "durationTicks": 48,
          "midi": 46,
          "name": "A#2",
          "ticks": 48384,
          "time": 143.99985600000002,
          "velocity": 0.7559055118110236
        },
        {
          "duration": 0.2857139999999845,
          "durationTicks": 96,
          "midi": 46,
          "name": "A#2",
          "ticks": 48432,
          "time": 144.14271300000001,
          "velocity": 0.7559055118110236
        },
        {
          "duration": 0.14285700000002066,
          "durationTicks": 48,
          "midi": 46,
          "name": "A#2",
          "ticks": 48528,
          "time": 144.428427,
          "velocity": 0.7559055118110236
        },
        {
          "duration": 0.2857139999999845,
          "durationTicks": 96,
          "midi": 46,
          "name": "A#2",
          "ticks": 48576,
          "time": 144.57128400000002,
          "velocity": 0.7559055118110236
        },
        {
          "duration": 0.14285700000002066,
          "durationTicks": 48,
          "midi": 46,
          "name": "A#2",
          "ticks": 48672,
          "time": 144.856998,
          "velocity": 0.7559055118110236
        },
        {
          "duration": 0.14285699999999224,
          "durationTicks": 48,
          "midi": 46,
          "name": "A#2",
          "ticks": 48720,
          "time": 144.99985500000003,
          "velocity": 0.7559055118110236
        },
        {
          "duration": 0.14285699999999224,
          "durationTicks": 48,
          "midi": 43,
          "name": "G2",
          "ticks": 48768,
          "time": 145.14271200000002,
          "velocity": 0.7559055118110236
        },
        {
          "duration": 0.2857140000000129,
          "durationTicks": 96,
          "midi": 43,
          "name": "G2",
          "ticks": 48816,
          "time": 145.285569,
          "velocity": 0.7559055118110236
        },
        {
          "duration": 0.14285699999999224,
          "durationTicks": 48,
          "midi": 43,
          "name": "G2",
          "ticks": 48912,
          "time": 145.57128300000002,
          "velocity": 0.7559055118110236
        },
        {
          "duration": 0.2857139999999845,
          "durationTicks": 96,
          "midi": 43,
          "name": "G2",
          "ticks": 48960,
          "time": 145.71414000000001,
          "velocity": 0.7559055118110236
        },
        {
          "duration": 0.14285700000002066,
          "durationTicks": 48,
          "midi": 43,
          "name": "G2",
          "ticks": 49056,
          "time": 145.999854,
          "velocity": 0.7559055118110236
        },
        {
          "duration": 0.14285699999999224,
          "durationTicks": 48,
          "midi": 43,
          "name": "G2",
          "ticks": 49104,
          "time": 146.14271100000002,
          "velocity": 0.7559055118110236
        },
        {
          "duration": 0.14285699999999224,
          "durationTicks": 48,
          "midi": 45,
          "name": "A2",
          "ticks": 49152,
          "time": 146.285568,
          "velocity": 0.7559055118110236
        },
        {
          "duration": 0.2857140000000129,
          "durationTicks": 96,
          "midi": 45,
          "name": "A2",
          "ticks": 49200,
          "time": 146.428425,
          "velocity": 0.7559055118110236
        },
        {
          "duration": 0.14285699999999224,
          "durationTicks": 48,
          "midi": 45,
          "name": "A2",
          "ticks": 49296,
          "time": 146.71413900000002,
          "velocity": 0.7559055118110236
        },
        {
          "duration": 0.2857140000000129,
          "durationTicks": 96,
          "midi": 45,
          "name": "A2",
          "ticks": 49344,
          "time": 146.856996,
          "velocity": 0.7559055118110236
        },
        {
          "duration": 0.14285699999999224,
          "durationTicks": 48,
          "midi": 45,
          "name": "A2",
          "ticks": 49440,
          "time": 147.14271000000002,
          "velocity": 0.7559055118110236
        },
        {
          "duration": 0.14285699999999224,
          "durationTicks": 48,
          "midi": 45,
          "name": "A2",
          "ticks": 49488,
          "time": 147.28556700000001,
          "velocity": 0.7559055118110236
        },
        {
          "duration": 0.14285699999999224,
          "durationTicks": 48,
          "midi": 45,
          "name": "A2",
          "ticks": 49536,
          "time": 147.428424,
          "velocity": 0.7559055118110236
        },
        {
          "duration": 0.2857140000000129,
          "durationTicks": 96,
          "midi": 45,
          "name": "A2",
          "ticks": 49584,
          "time": 147.571281,
          "velocity": 0.7559055118110236
        },
        {
          "duration": 0.14285699999999224,
          "durationTicks": 48,
          "midi": 45,
          "name": "A2",
          "ticks": 49680,
          "time": 147.856995,
          "velocity": 0.7559055118110236
        },
        {
          "duration": 0.2857140000000129,
          "durationTicks": 96,
          "midi": 45,
          "name": "A2",
          "ticks": 49728,
          "time": 147.999852,
          "velocity": 0.7559055118110236
        },
        {
          "duration": 0.14285699999999224,
          "durationTicks": 48,
          "midi": 45,
          "name": "A2",
          "ticks": 49824,
          "time": 148.28556600000002,
          "velocity": 0.7559055118110236
        },
        {
          "duration": 0.14285699999999224,
          "durationTicks": 48,
          "midi": 45,
          "name": "A2",
          "ticks": 49872,
          "time": 148.428423,
          "velocity": 0.7559055118110236
        },
        {
          "duration": 0.14285700000002066,
          "durationTicks": 48,
          "midi": 50,
          "name": "D3",
          "ticks": 49920,
          "time": 148.57128,
          "velocity": 0.7559055118110236
        },
        {
          "duration": 0.2857139999999845,
          "durationTicks": 96,
          "midi": 50,
          "name": "D3",
          "ticks": 49968,
          "time": 148.71413700000002,
          "velocity": 0.7559055118110236
        },
        {
          "duration": 0.14285699999999224,
          "durationTicks": 48,
          "midi": 50,
          "name": "D3",
          "ticks": 50064,
          "time": 148.999851,
          "velocity": 0.7559055118110236
        },
        {
          "duration": 0.2857140000000129,
          "durationTicks": 96,
          "midi": 50,
          "name": "D3",
          "ticks": 50112,
          "time": 149.142708,
          "velocity": 0.7559055118110236
        },
        {
          "duration": 0.14285699999999224,
          "durationTicks": 48,
          "midi": 50,
          "name": "D3",
          "ticks": 50208,
          "time": 149.428422,
          "velocity": 0.7559055118110236
        },
        {
          "duration": 0.14285700000002066,
          "durationTicks": 48,
          "midi": 50,
          "name": "D3",
          "ticks": 50256,
          "time": 149.571279,
          "velocity": 0.7559055118110236
        },
        {
          "duration": 0.14285699999999224,
          "durationTicks": 48,
          "midi": 46,
          "name": "A#2",
          "ticks": 50304,
          "time": 149.71413600000002,
          "velocity": 0.7559055118110236
        },
        {
          "duration": 0.2857139999999845,
          "durationTicks": 96,
          "midi": 46,
          "name": "A#2",
          "ticks": 50352,
          "time": 149.85699300000002,
          "velocity": 0.7559055118110236
        },
        {
          "duration": 0.14285700000002066,
          "durationTicks": 48,
          "midi": 46,
          "name": "A#2",
          "ticks": 50448,
          "time": 150.142707,
          "velocity": 0.7559055118110236
        },
        {
          "duration": 0.2857139999999845,
          "durationTicks": 96,
          "midi": 46,
          "name": "A#2",
          "ticks": 50496,
          "time": 150.28556400000002,
          "velocity": 0.7559055118110236
        },
        {
          "duration": 0.14285699999999224,
          "durationTicks": 48,
          "midi": 46,
          "name": "A#2",
          "ticks": 50592,
          "time": 150.571278,
          "velocity": 0.7559055118110236
        },
        {
          "duration": 0.14285700000002066,
          "durationTicks": 48,
          "midi": 46,
          "name": "A#2",
          "ticks": 50640,
          "time": 150.714135,
          "velocity": 0.7559055118110236
        },
        {
          "duration": 0.14285699999999224,
          "durationTicks": 48,
          "midi": 48,
          "name": "C3",
          "ticks": 50688,
          "time": 150.85699200000002,
          "velocity": 0.7559055118110236
        },
        {
          "duration": 0.2857140000000129,
          "durationTicks": 96,
          "midi": 48,
          "name": "C3",
          "ticks": 50736,
          "time": 150.999849,
          "velocity": 0.7559055118110236
        },
        {
          "duration": 0.14285699999999224,
          "durationTicks": 48,
          "midi": 48,
          "name": "C3",
          "ticks": 50832,
          "time": 151.28556300000002,
          "velocity": 0.7559055118110236
        },
        {
          "duration": 0.2857139999999845,
          "durationTicks": 96,
          "midi": 48,
          "name": "C3",
          "ticks": 50880,
          "time": 151.42842000000002,
          "velocity": 0.7559055118110236
        },
        {
          "duration": 0.14285700000002066,
          "durationTicks": 48,
          "midi": 48,
          "name": "C3",
          "ticks": 50976,
          "time": 151.714134,
          "velocity": 0.7559055118110236
        },
        {
          "duration": 0.14285699999999224,
          "durationTicks": 48,
          "midi": 48,
          "name": "C3",
          "ticks": 51024,
          "time": 151.85699100000002,
          "velocity": 0.7559055118110236
        },
        {
          "duration": 0.14285699999999224,
          "durationTicks": 48,
          "midi": 45,
          "name": "A2",
          "ticks": 51072,
          "time": 151.99984800000001,
          "velocity": 0.7559055118110236
        },
        {
          "duration": 0.2857140000000129,
          "durationTicks": 96,
          "midi": 45,
          "name": "A2",
          "ticks": 51120,
          "time": 152.142705,
          "velocity": 0.7559055118110236
        },
        {
          "duration": 0.14285699999999224,
          "durationTicks": 48,
          "midi": 45,
          "name": "A2",
          "ticks": 51216,
          "time": 152.42841900000002,
          "velocity": 0.7559055118110236
        },
        {
          "duration": 0.2857140000000129,
          "durationTicks": 96,
          "midi": 45,
          "name": "A2",
          "ticks": 51264,
          "time": 152.571276,
          "velocity": 0.7559055118110236
        },
        {
          "duration": 0.14285699999999224,
          "durationTicks": 48,
          "midi": 45,
          "name": "A2",
          "ticks": 51360,
          "time": 152.85699000000002,
          "velocity": 0.7559055118110236
        },
        {
          "duration": 0.14285699999999224,
          "durationTicks": 48,
          "midi": 45,
          "name": "A2",
          "ticks": 51408,
          "time": 152.99984700000002,
          "velocity": 0.7559055118110236
        },
        {
          "duration": 0.14285699999999224,
          "durationTicks": 48,
          "midi": 46,
          "name": "A#2",
          "ticks": 51456,
          "time": 153.142704,
          "velocity": 0.7559055118110236
        },
        {
          "duration": 0.2857140000000129,
          "durationTicks": 96,
          "midi": 46,
          "name": "A#2",
          "ticks": 51504,
          "time": 153.285561,
          "velocity": 0.7559055118110236
        },
        {
          "duration": 0.14285699999999224,
          "durationTicks": 48,
          "midi": 46,
          "name": "A#2",
          "ticks": 51600,
          "time": 153.571275,
          "velocity": 0.7559055118110236
        },
        {
          "duration": 0.2857140000000129,
          "durationTicks": 96,
          "midi": 46,
          "name": "A#2",
          "ticks": 51648,
          "time": 153.714132,
          "velocity": 0.7559055118110236
        },
        {
          "duration": 0.14285699999999224,
          "durationTicks": 48,
          "midi": 46,
          "name": "A#2",
          "ticks": 51744,
          "time": 153.99984600000002,
          "velocity": 0.7559055118110236
        },
        {
          "duration": 0.14285699999999224,
          "durationTicks": 48,
          "midi": 46,
          "name": "A#2",
          "ticks": 51792,
          "time": 154.142703,
          "velocity": 0.7559055118110236
        },
        {
          "duration": 0.14285700000002066,
          "durationTicks": 48,
          "midi": 43,
          "name": "G2",
          "ticks": 51840,
          "time": 154.28556,
          "velocity": 0.7559055118110236
        },
        {
          "duration": 0.2857139999999845,
          "durationTicks": 96,
          "midi": 43,
          "name": "G2",
          "ticks": 51888,
          "time": 154.42841700000002,
          "velocity": 0.7559055118110236
        },
        {
          "duration": 0.14285699999999224,
          "durationTicks": 48,
          "midi": 43,
          "name": "G2",
          "ticks": 51984,
          "time": 154.714131,
          "velocity": 0.7559055118110236
        },
        {
          "duration": 0.2857140000000129,
          "durationTicks": 96,
          "midi": 43,
          "name": "G2",
          "ticks": 52032,
          "time": 154.856988,
          "velocity": 0.7559055118110236
        },
        {
          "duration": 0.14285699999999224,
          "durationTicks": 48,
          "midi": 43,
          "name": "G2",
          "ticks": 52128,
          "time": 155.142702,
          "velocity": 0.7559055118110236
        },
        {
          "duration": 0.14285700000002066,
          "durationTicks": 48,
          "midi": 43,
          "name": "G2",
          "ticks": 52176,
          "time": 155.285559,
          "velocity": 0.7559055118110236
        },
        {
          "duration": 0.14285699999999224,
          "durationTicks": 48,
          "midi": 45,
          "name": "A2",
          "ticks": 52224,
          "time": 155.42841600000003,
          "velocity": 0.7559055118110236
        },
        {
          "duration": 0.2857139999999845,
          "durationTicks": 96,
          "midi": 45,
          "name": "A2",
          "ticks": 52272,
          "time": 155.57127300000002,
          "velocity": 0.7559055118110236
        },
        {
          "duration": 0.14285700000002066,
          "durationTicks": 48,
          "midi": 45,
          "name": "A2",
          "ticks": 52368,
          "time": 155.856987,
          "velocity": 0.7559055118110236
        },
        {
          "duration": 0.2857139999999845,
          "durationTicks": 96,
          "midi": 45,
          "name": "A2",
          "ticks": 52416,
          "time": 155.99984400000002,
          "velocity": 0.7559055118110236
        },
        {
          "duration": 0.14285699999999224,
          "durationTicks": 48,
          "midi": 45,
          "name": "A2",
          "ticks": 52512,
          "time": 156.285558,
          "velocity": 0.7559055118110236
        },
        {
          "duration": 0.14285700000002066,
          "durationTicks": 48,
          "midi": 45,
          "name": "A2",
          "ticks": 52560,
          "time": 156.428415,
          "velocity": 0.7559055118110236
        },
        {
          "duration": 0.14285699999999224,
          "durationTicks": 48,
          "midi": 45,
          "name": "A2",
          "ticks": 52608,
          "time": 156.57127200000002,
          "velocity": 0.7559055118110236
        },
        {
          "duration": 0.2857140000000129,
          "durationTicks": 96,
          "midi": 45,
          "name": "A2",
          "ticks": 52656,
          "time": 156.714129,
          "velocity": 0.7559055118110236
        },
        {
          "duration": 0.14285699999999224,
          "durationTicks": 48,
          "midi": 45,
          "name": "A2",
          "ticks": 52752,
          "time": 156.99984300000003,
          "velocity": 0.7559055118110236
        },
        {
          "duration": 0.2857139999999845,
          "durationTicks": 96,
          "midi": 45,
          "name": "A2",
          "ticks": 52800,
          "time": 157.14270000000002,
          "velocity": 0.7559055118110236
        },
        {
          "duration": 0.14285700000002066,
          "durationTicks": 48,
          "midi": 45,
          "name": "A2",
          "ticks": 52896,
          "time": 157.428414,
          "velocity": 0.7559055118110236
        },
        {
          "duration": 0.14285699999999224,
          "durationTicks": 48,
          "midi": 45,
          "name": "A2",
          "ticks": 52944,
          "time": 157.57127100000002,
          "velocity": 0.7559055118110236
        },
        {
          "duration": 0.14285699999999224,
          "durationTicks": 48,
          "midi": 50,
          "name": "D3",
          "ticks": 52992,
          "time": 157.71412800000002,
          "velocity": 0.7559055118110236
        },
        {
          "duration": 0.2857140000000129,
          "durationTicks": 96,
          "midi": 50,
          "name": "D3",
          "ticks": 53040,
          "time": 157.856985,
          "velocity": 0.7559055118110236
        },
        {
          "duration": 0.14285699999999224,
          "durationTicks": 48,
          "midi": 50,
          "name": "D3",
          "ticks": 53136,
          "time": 158.14269900000002,
          "velocity": 0.7559055118110236
        },
        {
          "duration": 0.2857140000000129,
          "durationTicks": 96,
          "midi": 50,
          "name": "D3",
          "ticks": 53184,
          "time": 158.285556,
          "velocity": 0.7559055118110236
        },
        {
          "duration": 0.14285699999999224,
          "durationTicks": 48,
          "midi": 50,
          "name": "D3",
          "ticks": 53280,
          "time": 158.57127000000003,
          "velocity": 0.7559055118110236
        },
        {
          "duration": 0.14285699999999224,
          "durationTicks": 48,
          "midi": 50,
          "name": "D3",
          "ticks": 53328,
          "time": 158.71412700000002,
          "velocity": 0.7559055118110236
        },
        {
          "duration": 0.14285699999999224,
          "durationTicks": 48,
          "midi": 46,
          "name": "A#2",
          "ticks": 53376,
          "time": 158.856984,
          "velocity": 0.7559055118110236
        },
        {
          "duration": 0.2857140000000129,
          "durationTicks": 96,
          "midi": 46,
          "name": "A#2",
          "ticks": 53424,
          "time": 158.999841,
          "velocity": 0.7559055118110236
        },
        {
          "duration": 0.14285699999999224,
          "durationTicks": 48,
          "midi": 46,
          "name": "A#2",
          "ticks": 53520,
          "time": 159.28555500000002,
          "velocity": 0.7559055118110236
        },
        {
          "duration": 0.2857140000000129,
          "durationTicks": 96,
          "midi": 46,
          "name": "A#2",
          "ticks": 53568,
          "time": 159.428412,
          "velocity": 0.7559055118110236
        },
        {
          "duration": 0.14285699999999224,
          "durationTicks": 48,
          "midi": 46,
          "name": "A#2",
          "ticks": 53664,
          "time": 159.71412600000002,
          "velocity": 0.7559055118110236
        },
        {
          "duration": 0.14285699999999224,
          "durationTicks": 48,
          "midi": 46,
          "name": "A#2",
          "ticks": 53712,
          "time": 159.856983,
          "velocity": 0.7559055118110236
        },
        {
          "duration": 0.14285700000002066,
          "durationTicks": 48,
          "midi": 48,
          "name": "C3",
          "ticks": 53760,
          "time": 159.99984,
          "velocity": 0.7559055118110236
        },
        {
          "duration": 0.2857139999999845,
          "durationTicks": 96,
          "midi": 48,
          "name": "C3",
          "ticks": 53808,
          "time": 160.14269700000003,
          "velocity": 0.7559055118110236
        },
        {
          "duration": 0.14285699999999224,
          "durationTicks": 48,
          "midi": 48,
          "name": "C3",
          "ticks": 53904,
          "time": 160.428411,
          "velocity": 0.7559055118110236
        },
        {
          "duration": 0.2857140000000129,
          "durationTicks": 96,
          "midi": 48,
          "name": "C3",
          "ticks": 53952,
          "time": 160.571268,
          "velocity": 0.7559055118110236
        },
        {
          "duration": 0.14285699999999224,
          "durationTicks": 48,
          "midi": 48,
          "name": "C3",
          "ticks": 54048,
          "time": 160.85698200000002,
          "velocity": 0.7559055118110236
        },
        {
          "duration": 0.14285699999999224,
          "durationTicks": 48,
          "midi": 48,
          "name": "C3",
          "ticks": 54096,
          "time": 160.999839,
          "velocity": 0.7559055118110236
        },
        {
          "duration": 0.14285700000002066,
          "durationTicks": 48,
          "midi": 45,
          "name": "A2",
          "ticks": 54144,
          "time": 161.142696,
          "velocity": 0.7559055118110236
        },
        {
          "duration": 0.2857139999999845,
          "durationTicks": 96,
          "midi": 45,
          "name": "A2",
          "ticks": 54192,
          "time": 161.28555300000002,
          "velocity": 0.7559055118110236
        },
        {
          "duration": 0.14285700000002066,
          "durationTicks": 48,
          "midi": 45,
          "name": "A2",
          "ticks": 54288,
          "time": 161.571267,
          "velocity": 0.7559055118110236
        },
        {
          "duration": 0.2857139999999845,
          "durationTicks": 96,
          "midi": 45,
          "name": "A2",
          "ticks": 54336,
          "time": 161.71412400000003,
          "velocity": 0.7559055118110236
        },
        {
          "duration": 0.14285699999999224,
          "durationTicks": 48,
          "midi": 45,
          "name": "A2",
          "ticks": 54432,
          "time": 161.999838,
          "velocity": 0.7559055118110236
        },
        {
          "duration": 0.14285700000002066,
          "durationTicks": 48,
          "midi": 45,
          "name": "A2",
          "ticks": 54480,
          "time": 162.142695,
          "velocity": 0.7559055118110236
        },
        {
          "duration": 0.14285699999999224,
          "durationTicks": 48,
          "midi": 46,
          "name": "A#2",
          "ticks": 54528,
          "time": 162.28555200000002,
          "velocity": 0.7559055118110236
        },
        {
          "duration": 0.2857139999999845,
          "durationTicks": 96,
          "midi": 46,
          "name": "A#2",
          "ticks": 54576,
          "time": 162.42840900000002,
          "velocity": 0.7559055118110236
        },
        {
          "duration": 0.14285700000002066,
          "durationTicks": 48,
          "midi": 46,
          "name": "A#2",
          "ticks": 54672,
          "time": 162.714123,
          "velocity": 0.7559055118110236
        },
        {
          "duration": 0.2857139999999845,
          "durationTicks": 96,
          "midi": 46,
          "name": "A#2",
          "ticks": 54720,
          "time": 162.85698000000002,
          "velocity": 0.7559055118110236
        },
        {
          "duration": 0.14285700000002066,
          "durationTicks": 48,
          "midi": 46,
          "name": "A#2",
          "ticks": 54816,
          "time": 163.142694,
          "velocity": 0.7559055118110236
        },
        {
          "duration": 0.14285699999999224,
          "durationTicks": 48,
          "midi": 46,
          "name": "A#2",
          "ticks": 54864,
          "time": 163.28555100000003,
          "velocity": 0.7559055118110236
        },
        {
          "duration": 0.14285699999999224,
          "durationTicks": 48,
          "midi": 43,
          "name": "G2",
          "ticks": 54912,
          "time": 163.42840800000002,
          "velocity": 0.7559055118110236
        },
        {
          "duration": 0.2857140000000129,
          "durationTicks": 96,
          "midi": 43,
          "name": "G2",
          "ticks": 54960,
          "time": 163.571265,
          "velocity": 0.7559055118110236
        },
        {
          "duration": 0.14285699999999224,
          "durationTicks": 48,
          "midi": 43,
          "name": "G2",
          "ticks": 55056,
          "time": 163.85697900000002,
          "velocity": 0.7559055118110236
        },
        {
          "duration": 0.2857139999999845,
          "durationTicks": 96,
          "midi": 43,
          "name": "G2",
          "ticks": 55104,
          "time": 163.99983600000002,
          "velocity": 0.7559055118110236
        },
        {
          "duration": 0.14285700000002066,
          "durationTicks": 48,
          "midi": 43,
          "name": "G2",
          "ticks": 55200,
          "time": 164.28555,
          "velocity": 0.7559055118110236
        },
        {
          "duration": 0.14285699999999224,
          "durationTicks": 48,
          "midi": 43,
          "name": "G2",
          "ticks": 55248,
          "time": 164.42840700000002,
          "velocity": 0.7559055118110236
        },
        {
          "duration": 0.14285699999999224,
          "durationTicks": 48,
          "midi": 45,
          "name": "A2",
          "ticks": 55296,
          "time": 164.571264,
          "velocity": 0.7559055118110236
        },
        {
          "duration": 0.2857140000000129,
          "durationTicks": 96,
          "midi": 45,
          "name": "A2",
          "ticks": 55344,
          "time": 164.714121,
          "velocity": 0.7559055118110236
        },
        {
          "duration": 0.14285699999999224,
          "durationTicks": 48,
          "midi": 45,
          "name": "A2",
          "ticks": 55440,
          "time": 164.99983500000002,
          "velocity": 0.7559055118110236
        },
        {
          "duration": 0.2857140000000129,
          "durationTicks": 96,
          "midi": 45,
          "name": "A2",
          "ticks": 55488,
          "time": 165.142692,
          "velocity": 0.7559055118110236
        },
        {
          "duration": 0.14285699999999224,
          "durationTicks": 48,
          "midi": 45,
          "name": "A2",
          "ticks": 55584,
          "time": 165.42840600000002,
          "velocity": 0.7559055118110236
        },
        {
          "duration": 0.14285699999999224,
          "durationTicks": 48,
          "midi": 45,
          "name": "A2",
          "ticks": 55632,
          "time": 165.57126300000002,
          "velocity": 0.7559055118110236
        },
        {
          "duration": 0.14285699999999224,
          "durationTicks": 48,
          "midi": 45,
          "name": "A2",
          "ticks": 55680,
          "time": 165.71412,
          "velocity": 0.7559055118110236
        },
        {
          "duration": 0.2857140000000129,
          "durationTicks": 96,
          "midi": 45,
          "name": "A2",
          "ticks": 55728,
          "time": 165.856977,
          "velocity": 0.7559055118110236
        },
        {
          "duration": 0.14285699999999224,
          "durationTicks": 48,
          "midi": 45,
          "name": "A2",
          "ticks": 55824,
          "time": 166.142691,
          "velocity": 0.7559055118110236
        },
        {
          "duration": 0.2857140000000129,
          "durationTicks": 96,
          "midi": 45,
          "name": "A2",
          "ticks": 55872,
          "time": 166.285548,
          "velocity": 0.7559055118110236
        },
        {
          "duration": 0.14285699999999224,
          "durationTicks": 48,
          "midi": 45,
          "name": "A2",
          "ticks": 55968,
          "time": 166.57126200000002,
          "velocity": 0.7559055118110236
        },
        {
          "duration": 0.14285699999999224,
          "durationTicks": 48,
          "midi": 45,
          "name": "A2",
          "ticks": 56016,
          "time": 166.714119,
          "velocity": 0.7559055118110236
        },
        {
          "duration": 0.14285700000002066,
          "durationTicks": 48,
          "midi": 50,
          "name": "D3",
          "ticks": 56064,
          "time": 166.856976,
          "velocity": 0.7559055118110236
        },
        {
          "duration": 0.2857139999999845,
          "durationTicks": 96,
          "midi": 50,
          "name": "D3",
          "ticks": 56112,
          "time": 166.99983300000002,
          "velocity": 0.7559055118110236
        },
        {
          "duration": 0.14285699999999224,
          "durationTicks": 48,
          "midi": 50,
          "name": "D3",
          "ticks": 56208,
          "time": 167.285547,
          "velocity": 0.7559055118110236
        },
        {
          "duration": 0.2857140000000129,
          "durationTicks": 96,
          "midi": 50,
          "name": "D3",
          "ticks": 56256,
          "time": 167.428404,
          "velocity": 0.7559055118110236
        },
        {
          "duration": 0.14285699999999224,
          "durationTicks": 48,
          "midi": 50,
          "name": "D3",
          "ticks": 56352,
          "time": 167.714118,
          "velocity": 0.7559055118110236
        },
        {
          "duration": 0.14285700000002066,
          "durationTicks": 48,
          "midi": 50,
          "name": "D3",
          "ticks": 56400,
          "time": 167.856975,
          "velocity": 0.7559055118110236
        },
        {
          "duration": 0.14285699999999224,
          "durationTicks": 48,
          "midi": 46,
          "name": "A#2",
          "ticks": 56448,
          "time": 167.99983200000003,
          "velocity": 0.7559055118110236
        },
        {
          "duration": 0.2857139999999845,
          "durationTicks": 96,
          "midi": 46,
          "name": "A#2",
          "ticks": 56496,
          "time": 168.14268900000002,
          "velocity": 0.7559055118110236
        },
        {
          "duration": 0.14285700000002066,
          "durationTicks": 48,
          "midi": 46,
          "name": "A#2",
          "ticks": 56592,
          "time": 168.428403,
          "velocity": 0.7559055118110236
        },
        {
          "duration": 0.2857139999999845,
          "durationTicks": 96,
          "midi": 46,
          "name": "A#2",
          "ticks": 56640,
          "time": 168.57126000000002,
          "velocity": 0.7559055118110236
        },
        {
          "duration": 0.14285699999999224,
          "durationTicks": 48,
          "midi": 46,
          "name": "A#2",
          "ticks": 56736,
          "time": 168.856974,
          "velocity": 0.7559055118110236
        },
        {
          "duration": 0.14285700000002066,
          "durationTicks": 48,
          "midi": 46,
          "name": "A#2",
          "ticks": 56784,
          "time": 168.999831,
          "velocity": 0.7559055118110236
        },
        {
          "duration": 0.14285699999999224,
          "durationTicks": 48,
          "midi": 48,
          "name": "C3",
          "ticks": 56832,
          "time": 169.14268800000002,
          "velocity": 0.7559055118110236
        },
        {
          "duration": 0.2857140000000129,
          "durationTicks": 96,
          "midi": 48,
          "name": "C3",
          "ticks": 56880,
          "time": 169.285545,
          "velocity": 0.7559055118110236
        },
        {
          "duration": 0.14285699999999224,
          "durationTicks": 48,
          "midi": 48,
          "name": "C3",
          "ticks": 56976,
          "time": 169.57125900000003,
          "velocity": 0.7559055118110236
        },
        {
          "duration": 0.2857139999999845,
          "durationTicks": 96,
          "midi": 48,
          "name": "C3",
          "ticks": 57024,
          "time": 169.71411600000002,
          "velocity": 0.7559055118110236
        },
        {
          "duration": 0.14285700000002066,
          "durationTicks": 48,
          "midi": 48,
          "name": "C3",
          "ticks": 57120,
          "time": 169.99983,
          "velocity": 0.7559055118110236
        },
        {
          "duration": 0.14285699999999224,
          "durationTicks": 48,
          "midi": 48,
          "name": "C3",
          "ticks": 57168,
          "time": 170.14268700000002,
          "velocity": 0.7559055118110236
        },
        {
          "duration": 0.14285699999999224,
          "durationTicks": 48,
          "midi": 45,
          "name": "A2",
          "ticks": 57216,
          "time": 170.28554400000002,
          "velocity": 0.7559055118110236
        },
        {
          "duration": 0.2857140000000129,
          "durationTicks": 96,
          "midi": 45,
          "name": "A2",
          "ticks": 57264,
          "time": 170.428401,
          "velocity": 0.7559055118110236
        },
        {
          "duration": 0.14285699999999224,
          "durationTicks": 48,
          "midi": 45,
          "name": "A2",
          "ticks": 57360,
          "time": 170.71411500000002,
          "velocity": 0.7559055118110236
        },
        {
          "duration": 0.2857140000000129,
          "durationTicks": 96,
          "midi": 45,
          "name": "A2",
          "ticks": 57408,
          "time": 170.856972,
          "velocity": 0.7559055118110236
        },
        {
          "duration": 0.14285699999999224,
          "durationTicks": 48,
          "midi": 45,
          "name": "A2",
          "ticks": 57504,
          "time": 171.14268600000003,
          "velocity": 0.7559055118110236
        },
        {
          "duration": 0.14285699999999224,
          "durationTicks": 48,
          "midi": 45,
          "name": "A2",
          "ticks": 57552,
          "time": 171.28554300000002,
          "velocity": 0.7559055118110236
        },
        {
          "duration": 0.14285699999999224,
          "durationTicks": 48,
          "midi": 46,
          "name": "A#2",
          "ticks": 57600,
          "time": 171.4284,
          "velocity": 0.7559055118110236
        },
        {
          "duration": 0.2857140000000129,
          "durationTicks": 96,
          "midi": 46,
          "name": "A#2",
          "ticks": 57648,
          "time": 171.571257,
          "velocity": 0.7559055118110236
        },
        {
          "duration": 0.14285699999999224,
          "durationTicks": 48,
          "midi": 46,
          "name": "A#2",
          "ticks": 57744,
          "time": 171.85697100000002,
          "velocity": 0.7559055118110236
        },
        {
          "duration": 0.2857140000000129,
          "durationTicks": 96,
          "midi": 46,
          "name": "A#2",
          "ticks": 57792,
          "time": 171.999828,
          "velocity": 0.7559055118110236
        },
        {
          "duration": 0.14285699999999224,
          "durationTicks": 48,
          "midi": 46,
          "name": "A#2",
          "ticks": 57888,
          "time": 172.28554200000002,
          "velocity": 0.7559055118110236
        },
        {
          "duration": 0.14285699999999224,
          "durationTicks": 48,
          "midi": 46,
          "name": "A#2",
          "ticks": 57936,
          "time": 172.428399,
          "velocity": 0.7559055118110236
        },
        {
          "duration": 0.14285700000002066,
          "durationTicks": 48,
          "midi": 43,
          "name": "G2",
          "ticks": 57984,
          "time": 172.571256,
          "velocity": 0.7559055118110236
        },
        {
          "duration": 0.2857139999999845,
          "durationTicks": 96,
          "midi": 43,
          "name": "G2",
          "ticks": 58032,
          "time": 172.71411300000003,
          "velocity": 0.7559055118110236
        },
        {
          "duration": 0.14285699999999224,
          "durationTicks": 48,
          "midi": 43,
          "name": "G2",
          "ticks": 58128,
          "time": 172.999827,
          "velocity": 0.7559055118110236
        },
        {
          "duration": 0.2857140000000129,
          "durationTicks": 96,
          "midi": 43,
          "name": "G2",
          "ticks": 58176,
          "time": 173.142684,
          "velocity": 0.7559055118110236
        },
        {
          "duration": 0.14285699999999224,
          "durationTicks": 48,
          "midi": 43,
          "name": "G2",
          "ticks": 58272,
          "time": 173.42839800000002,
          "velocity": 0.7559055118110236
        },
        {
          "duration": 0.14285699999999224,
          "durationTicks": 48,
          "midi": 43,
          "name": "G2",
          "ticks": 58320,
          "time": 173.571255,
          "velocity": 0.7559055118110236
        },
        {
          "duration": 0.14285700000002066,
          "durationTicks": 48,
          "midi": 45,
          "name": "A2",
          "ticks": 58368,
          "time": 173.714112,
          "velocity": 0.7559055118110236
        },
        {
          "duration": 0.2857139999999845,
          "durationTicks": 96,
          "midi": 45,
          "name": "A2",
          "ticks": 58416,
          "time": 173.85696900000002,
          "velocity": 0.7559055118110236
        },
        {
          "duration": 0.14285700000002066,
          "durationTicks": 48,
          "midi": 45,
          "name": "A2",
          "ticks": 58512,
          "time": 174.142683,
          "velocity": 0.7559055118110236
        },
        {
          "duration": 0.2857139999999845,
          "durationTicks": 96,
          "midi": 45,
          "name": "A2",
          "ticks": 58560,
          "time": 174.28554000000003,
          "velocity": 0.7559055118110236
        },
        {
          "duration": 0.14285699999999224,
          "durationTicks": 48,
          "midi": 45,
          "name": "A2",
          "ticks": 58656,
          "time": 174.571254,
          "velocity": 0.7559055118110236
        },
        {
          "duration": 0.14285700000002066,
          "durationTicks": 48,
          "midi": 45,
          "name": "A2",
          "ticks": 58704,
          "time": 174.714111,
          "velocity": 0.7559055118110236
        },
        {
          "duration": 0.14285699999999224,
          "durationTicks": 48,
          "midi": 45,
          "name": "A2",
          "ticks": 58752,
          "time": 174.85696800000002,
          "velocity": 0.7559055118110236
        },
        {
          "duration": 0.2857140000000129,
          "durationTicks": 96,
          "midi": 45,
          "name": "A2",
          "ticks": 58800,
          "time": 174.99982500000002,
          "velocity": 0.7559055118110236
        },
        {
          "duration": 0.14285699999999224,
          "durationTicks": 48,
          "midi": 45,
          "name": "A2",
          "ticks": 58896,
          "time": 175.28553900000003,
          "velocity": 0.7559055118110236
        },
        {
          "duration": 0.2857139999999845,
          "durationTicks": 96,
          "midi": 45,
          "name": "A2",
          "ticks": 58944,
          "time": 175.42839600000002,
          "velocity": 0.7559055118110236
        },
        {
          "duration": 0.14285700000002066,
          "durationTicks": 48,
          "midi": 45,
          "name": "A2",
          "ticks": 59040,
          "time": 175.71411,
          "velocity": 0.7559055118110236
        },
        {
          "duration": 0.14285699999999224,
          "durationTicks": 48,
          "midi": 45,
          "name": "A2",
          "ticks": 59088,
          "time": 175.85696700000003,
          "velocity": 0.7559055118110236
        },
        {
          "duration": 0.14285699999999224,
          "durationTicks": 48,
          "midi": 50,
          "name": "D3",
          "ticks": 59136,
          "time": 175.99982400000002,
          "velocity": 0.7559055118110236
        },
        {
          "duration": 0.2857140000000129,
          "durationTicks": 96,
          "midi": 50,
          "name": "D3",
          "ticks": 59184,
          "time": 176.142681,
          "velocity": 0.7559055118110236
        },
        {
          "duration": 0.14285699999999224,
          "durationTicks": 48,
          "midi": 50,
          "name": "D3",
          "ticks": 59280,
          "time": 176.42839500000002,
          "velocity": 0.7559055118110236
        },
        {
          "duration": 0.2857140000000129,
          "durationTicks": 96,
          "midi": 50,
          "name": "D3",
          "ticks": 59328,
          "time": 176.57125200000002,
          "velocity": 0.7559055118110236
        },
        {
          "duration": 0.14285699999999224,
          "durationTicks": 48,
          "midi": 50,
          "name": "D3",
          "ticks": 59424,
          "time": 176.85696600000003,
          "velocity": 0.7559055118110236
        },
        {
          "duration": 0.14285699999999224,
          "durationTicks": 48,
          "midi": 50,
          "name": "D3",
          "ticks": 59472,
          "time": 176.99982300000002,
          "velocity": 0.7559055118110236
        },
        {
          "duration": 0.14285699999999224,
          "durationTicks": 48,
          "midi": 46,
          "name": "A#2",
          "ticks": 59520,
          "time": 177.14268,
          "velocity": 0.7559055118110236
        },
        {
          "duration": 0.2857140000000129,
          "durationTicks": 96,
          "midi": 46,
          "name": "A#2",
          "ticks": 59568,
          "time": 177.285537,
          "velocity": 0.7559055118110236
        },
        {
          "duration": 0.14285699999999224,
          "durationTicks": 48,
          "midi": 46,
          "name": "A#2",
          "ticks": 59664,
          "time": 177.57125100000002,
          "velocity": 0.7559055118110236
        },
        {
          "duration": 0.2857140000000129,
          "durationTicks": 96,
          "midi": 46,
          "name": "A#2",
          "ticks": 59712,
          "time": 177.714108,
          "velocity": 0.7559055118110236
        },
        {
          "duration": 0.14285699999999224,
          "durationTicks": 48,
          "midi": 46,
          "name": "A#2",
          "ticks": 59808,
          "time": 177.99982200000002,
          "velocity": 0.7559055118110236
        },
        {
          "duration": 0.14285699999999224,
          "durationTicks": 48,
          "midi": 46,
          "name": "A#2",
          "ticks": 59856,
          "time": 178.14267900000002,
          "velocity": 0.7559055118110236
        },
        {
          "duration": 0.14285700000002066,
          "durationTicks": 48,
          "midi": 48,
          "name": "C3",
          "ticks": 59904,
          "time": 178.285536,
          "velocity": 0.7559055118110236
        },
        {
          "duration": 0.2857139999999845,
          "durationTicks": 96,
          "midi": 48,
          "name": "C3",
          "ticks": 59952,
          "time": 178.42839300000003,
          "velocity": 0.7559055118110236
        },
        {
          "duration": 0.14285699999999224,
          "durationTicks": 48,
          "midi": 48,
          "name": "C3",
          "ticks": 60048,
          "time": 178.714107,
          "velocity": 0.7559055118110236
        },
        {
          "duration": 0.2857140000000129,
          "durationTicks": 96,
          "midi": 48,
          "name": "C3",
          "ticks": 60096,
          "time": 178.856964,
          "velocity": 0.7559055118110236
        },
        {
          "duration": 0.14285699999999224,
          "durationTicks": 48,
          "midi": 48,
          "name": "C3",
          "ticks": 60192,
          "time": 179.14267800000002,
          "velocity": 0.7559055118110236
        },
        {
          "duration": 0.14285699999999224,
          "durationTicks": 48,
          "midi": 48,
          "name": "C3",
          "ticks": 60240,
          "time": 179.285535,
          "velocity": 0.7559055118110236
        },
        {
          "duration": 0.14285700000002066,
          "durationTicks": 48,
          "midi": 45,
          "name": "A2",
          "ticks": 60288,
          "time": 179.428392,
          "velocity": 0.7559055118110236
        },
        {
          "duration": 0.2857139999999845,
          "durationTicks": 96,
          "midi": 45,
          "name": "A2",
          "ticks": 60336,
          "time": 179.57124900000002,
          "velocity": 0.7559055118110236
        },
        {
          "duration": 0.14285700000002066,
          "durationTicks": 48,
          "midi": 45,
          "name": "A2",
          "ticks": 60432,
          "time": 179.856963,
          "velocity": 0.7559055118110236
        },
        {
          "duration": 0.2857139999999845,
          "durationTicks": 96,
          "midi": 45,
          "name": "A2",
          "ticks": 60480,
          "time": 179.99982000000003,
          "velocity": 0.7559055118110236
        },
        {
          "duration": 0.14285699999999224,
          "durationTicks": 48,
          "midi": 45,
          "name": "A2",
          "ticks": 60576,
          "time": 180.285534,
          "velocity": 0.7559055118110236
        },
        {
          "duration": 0.14285700000002066,
          "durationTicks": 48,
          "midi": 45,
          "name": "A2",
          "ticks": 60624,
          "time": 180.428391,
          "velocity": 0.7559055118110236
        },
        {
          "duration": 0.14285699999999224,
          "durationTicks": 48,
          "midi": 46,
          "name": "A#2",
          "ticks": 60672,
          "time": 180.57124800000003,
          "velocity": 0.7559055118110236
        },
        {
          "duration": 0.2857139999999845,
          "durationTicks": 96,
          "midi": 46,
          "name": "A#2",
          "ticks": 60720,
          "time": 180.71410500000002,
          "velocity": 0.7559055118110236
        },
        {
          "duration": 0.14285700000002066,
          "durationTicks": 48,
          "midi": 46,
          "name": "A#2",
          "ticks": 60816,
          "time": 180.999819,
          "velocity": 0.7559055118110236
        },
        {
          "duration": 0.2857139999999845,
          "durationTicks": 96,
          "midi": 46,
          "name": "A#2",
          "ticks": 60864,
          "time": 181.14267600000002,
          "velocity": 0.7559055118110236
        },
        {
          "duration": 0.14285700000002066,
          "durationTicks": 48,
          "midi": 46,
          "name": "A#2",
          "ticks": 60960,
          "time": 181.42839,
          "velocity": 0.7559055118110236
        },
        {
          "duration": 0.14285699999999224,
          "durationTicks": 48,
          "midi": 46,
          "name": "A#2",
          "ticks": 61008,
          "time": 181.57124700000003,
          "velocity": 0.7559055118110236
        },
        {
          "duration": 0.14285699999999224,
          "durationTicks": 48,
          "midi": 43,
          "name": "G2",
          "ticks": 61056,
          "time": 181.71410400000002,
          "velocity": 0.7559055118110236
        },
        {
          "duration": 0.2857140000000129,
          "durationTicks": 96,
          "midi": 43,
          "name": "G2",
          "ticks": 61104,
          "time": 181.856961,
          "velocity": 0.7559055118110236
        },
        {
          "duration": 0.14285699999999224,
          "durationTicks": 48,
          "midi": 43,
          "name": "G2",
          "ticks": 61200,
          "time": 182.14267500000003,
          "velocity": 0.7559055118110236
        },
        {
          "duration": 0.2857139999999845,
          "durationTicks": 96,
          "midi": 43,
          "name": "G2",
          "ticks": 61248,
          "time": 182.28553200000002,
          "velocity": 0.7559055118110236
        },
        {
          "duration": 0.14285700000002066,
          "durationTicks": 48,
          "midi": 43,
          "name": "G2",
          "ticks": 61344,
          "time": 182.571246,
          "velocity": 0.7559055118110236
        },
        {
          "duration": 0.14285699999999224,
          "durationTicks": 48,
          "midi": 43,
          "name": "G2",
          "ticks": 61392,
          "time": 182.71410300000002,
          "velocity": 0.7559055118110236
        },
        {
          "duration": 0.14285699999999224,
          "durationTicks": 48,
          "midi": 45,
          "name": "A2",
          "ticks": 61440,
          "time": 182.85696000000002,
          "velocity": 0.7559055118110236
        },
        {
          "duration": 0.2857140000000129,
          "durationTicks": 96,
          "midi": 45,
          "name": "A2",
          "ticks": 61488,
          "time": 182.999817,
          "velocity": 0.7559055118110236
        },
        {
          "duration": 0.14285699999999224,
          "durationTicks": 48,
          "midi": 45,
          "name": "A2",
          "ticks": 61584,
          "time": 183.28553100000002,
          "velocity": 0.7559055118110236
        },
        {
          "duration": 0.2857140000000129,
          "durationTicks": 96,
          "midi": 45,
          "name": "A2",
          "ticks": 61632,
          "time": 183.428388,
          "velocity": 0.7559055118110236
        },
        {
          "duration": 0.14285699999999224,
          "durationTicks": 48,
          "midi": 45,
          "name": "A2",
          "ticks": 61728,
          "time": 183.71410200000003,
          "velocity": 0.7559055118110236
        },
        {
          "duration": 0.14285699999999224,
          "durationTicks": 48,
          "midi": 45,
          "name": "A2",
          "ticks": 61776,
          "time": 183.85695900000002,
          "velocity": 0.7559055118110236
        },
        {
          "duration": 0.14285699999999224,
          "durationTicks": 48,
          "midi": 45,
          "name": "A2",
          "ticks": 61824,
          "time": 183.999816,
          "velocity": 0.7559055118110236
        },
        {
          "duration": 0.2857140000000129,
          "durationTicks": 96,
          "midi": 45,
          "name": "A2",
          "ticks": 61872,
          "time": 184.142673,
          "velocity": 0.7559055118110236
        },
        {
          "duration": 0.14285699999999224,
          "durationTicks": 48,
          "midi": 45,
          "name": "A2",
          "ticks": 61968,
          "time": 184.42838700000001,
          "velocity": 0.7559055118110236
        },
        {
          "duration": 0.2857140000000129,
          "durationTicks": 96,
          "midi": 45,
          "name": "A2",
          "ticks": 62016,
          "time": 184.571244,
          "velocity": 0.7559055118110236
        },
        {
          "duration": 0.14285699999999224,
          "durationTicks": 48,
          "midi": 45,
          "name": "A2",
          "ticks": 62112,
          "time": 184.85695800000002,
          "velocity": 0.7559055118110236
        },
        {
          "duration": 0.14285699999999224,
          "durationTicks": 48,
          "midi": 45,
          "name": "A2",
          "ticks": 62160,
          "time": 184.999815,
          "velocity": 0.7559055118110236
        },
        {
          "duration": 0.14285700000002066,
          "durationTicks": 48,
          "midi": 50,
          "name": "D3",
          "ticks": 62208,
          "time": 185.142672,
          "velocity": 0.7559055118110236
        },
        {
          "duration": 0.2857139999999845,
          "durationTicks": 96,
          "midi": 50,
          "name": "D3",
          "ticks": 62256,
          "time": 185.28552900000003,
          "velocity": 0.7559055118110236
        },
        {
          "duration": 0.14285699999999224,
          "durationTicks": 48,
          "midi": 50,
          "name": "D3",
          "ticks": 62352,
          "time": 185.571243,
          "velocity": 0.7559055118110236
        },
        {
          "duration": 0.2857140000000129,
          "durationTicks": 96,
          "midi": 50,
          "name": "D3",
          "ticks": 62400,
          "time": 185.7141,
          "velocity": 0.7559055118110236
        },
        {
          "duration": 0.14285699999999224,
          "durationTicks": 48,
          "midi": 50,
          "name": "D3",
          "ticks": 62496,
          "time": 185.99981400000001,
          "velocity": 0.7559055118110236
        },
        {
          "duration": 0.14285700000002066,
          "durationTicks": 48,
          "midi": 50,
          "name": "D3",
          "ticks": 62544,
          "time": 186.142671,
          "velocity": 0.7559055118110236
        },
        {
          "duration": 0.14285699999999224,
          "durationTicks": 48,
          "midi": 50,
          "name": "D3",
          "ticks": 62592,
          "time": 186.28552800000003,
          "velocity": 0.7559055118110236
        },
        {
          "duration": 0.2857139999999845,
          "durationTicks": 96,
          "midi": 50,
          "name": "D3",
          "ticks": 62640,
          "time": 186.42838500000002,
          "velocity": 0.7559055118110236
        },
        {
          "duration": 0.14285700000002066,
          "durationTicks": 48,
          "midi": 50,
          "name": "D3",
          "ticks": 62736,
          "time": 186.714099,
          "velocity": 0.7559055118110236
        },
        {
          "duration": 0.2857139999999845,
          "durationTicks": 96,
          "midi": 50,
          "name": "D3",
          "ticks": 62784,
          "time": 186.85695600000003,
          "velocity": 0.7559055118110236
        },
        {
          "duration": 0.14285699999999224,
          "durationTicks": 48,
          "midi": 50,
          "name": "D3",
          "ticks": 62880,
          "time": 187.14267,
          "velocity": 0.7559055118110236
        },
        {
          "duration": 0.14285700000002066,
          "durationTicks": 48,
          "midi": 50,
          "name": "D3",
          "ticks": 62928,
          "time": 187.285527,
          "velocity": 0.7559055118110236
        },
        {
          "duration": 0.14285699999999224,
          "durationTicks": 48,
          "midi": 46,
          "name": "A#2",
          "ticks": 62976,
          "time": 187.42838400000002,
          "velocity": 0.7559055118110236
        },
        {
          "duration": 0.2857140000000129,
          "durationTicks": 96,
          "midi": 46,
          "name": "A#2",
          "ticks": 63024,
          "time": 187.57124100000001,
          "velocity": 0.7559055118110236
        },
        {
          "duration": 0.14285699999999224,
          "durationTicks": 48,
          "midi": 46,
          "name": "A#2",
          "ticks": 63120,
          "time": 187.85695500000003,
          "velocity": 0.7559055118110236
        },
        {
          "duration": 0.2857139999999845,
          "durationTicks": 96,
          "midi": 46,
          "name": "A#2",
          "ticks": 63168,
          "time": 187.99981200000002,
          "velocity": 0.7559055118110236
        },
        {
          "duration": 0.14285700000002066,
          "durationTicks": 48,
          "midi": 46,
          "name": "A#2",
          "ticks": 63264,
          "time": 188.285526,
          "velocity": 0.7559055118110236
        },
        {
          "duration": 0.14285699999999224,
          "durationTicks": 48,
          "midi": 46,
          "name": "A#2",
          "ticks": 63312,
          "time": 188.42838300000003,
          "velocity": 0.7559055118110236
        },
        {
          "duration": 0.14285699999999224,
          "durationTicks": 48,
          "midi": 46,
          "name": "A#2",
          "ticks": 63360,
          "time": 188.57124000000002,
          "velocity": 0.7559055118110236
        },
        {
          "duration": 0.2857140000000129,
          "durationTicks": 96,
          "midi": 46,
          "name": "A#2",
          "ticks": 63408,
          "time": 188.714097,
          "velocity": 0.7559055118110236
        },
        {
          "duration": 0.14285699999999224,
          "durationTicks": 48,
          "midi": 46,
          "name": "A#2",
          "ticks": 63504,
          "time": 188.99981100000002,
          "velocity": 0.7559055118110236
        },
        {
          "duration": 0.2857140000000129,
          "durationTicks": 96,
          "midi": 46,
          "name": "A#2",
          "ticks": 63552,
          "time": 189.14266800000001,
          "velocity": 0.7559055118110236
        },
        {
          "duration": 0.14285699999999224,
          "durationTicks": 48,
          "midi": 46,
          "name": "A#2",
          "ticks": 63648,
          "time": 189.42838200000003,
          "velocity": 0.7559055118110236
        },
        {
          "duration": 0.14285699999999224,
          "durationTicks": 48,
          "midi": 46,
          "name": "A#2",
          "ticks": 63696,
          "time": 189.57123900000002,
          "velocity": 0.7559055118110236
        },
        {
          "duration": 0.14285699999999224,
          "durationTicks": 48,
          "midi": 48,
          "name": "C3",
          "ticks": 63744,
          "time": 189.714096,
          "velocity": 0.7559055118110236
        },
        {
          "duration": 0.2857140000000129,
          "durationTicks": 96,
          "midi": 48,
          "name": "C3",
          "ticks": 63792,
          "time": 189.856953,
          "velocity": 0.7559055118110236
        },
        {
          "duration": 0.14285699999999224,
          "durationTicks": 48,
          "midi": 48,
          "name": "C3",
          "ticks": 63888,
          "time": 190.14266700000002,
          "velocity": 0.7559055118110236
        },
        {
          "duration": 0.2857140000000129,
          "durationTicks": 96,
          "midi": 48,
          "name": "C3",
          "ticks": 63936,
          "time": 190.285524,
          "velocity": 0.7559055118110236
        },
        {
          "duration": 0.14285699999999224,
          "durationTicks": 48,
          "midi": 48,
          "name": "C3",
          "ticks": 64032,
          "time": 190.57123800000002,
          "velocity": 0.7559055118110236
        },
        {
          "duration": 0.14285699999999224,
          "durationTicks": 48,
          "midi": 48,
          "name": "C3",
          "ticks": 64080,
          "time": 190.71409500000001,
          "velocity": 0.7559055118110236
        },
        {
          "duration": 0.14285700000002066,
          "durationTicks": 48,
          "midi": 48,
          "name": "C3",
          "ticks": 64128,
          "time": 190.856952,
          "velocity": 0.7559055118110236
        },
        {
          "duration": 0.2857139999999845,
          "durationTicks": 96,
          "midi": 48,
          "name": "C3",
          "ticks": 64176,
          "time": 190.99980900000003,
          "velocity": 0.7559055118110236
        },
        {
          "duration": 0.14285699999999224,
          "durationTicks": 48,
          "midi": 48,
          "name": "C3",
          "ticks": 64272,
          "time": 191.285523,
          "velocity": 0.7559055118110236
        },
        {
          "duration": 0.2857140000000129,
          "durationTicks": 96,
          "midi": 48,
          "name": "C3",
          "ticks": 64320,
          "time": 191.42838,
          "velocity": 0.7559055118110236
        },
        {
          "duration": 0.14285699999999224,
          "durationTicks": 48,
          "midi": 48,
          "name": "C3",
          "ticks": 64416,
          "time": 191.71409400000002,
          "velocity": 0.7559055118110236
        },
        {
          "duration": 0.14285700000002066,
          "durationTicks": 48,
          "midi": 48,
          "name": "C3",
          "ticks": 64464,
          "time": 191.856951,
          "velocity": 0.7559055118110236
        },
        {
          "duration": 0.14285699999999224,
          "durationTicks": 48,
          "midi": 45,
          "name": "A2",
          "ticks": 64512,
          "time": 191.99980800000003,
          "velocity": 0.7559055118110236
        },
        {
          "duration": 0.2857139999999845,
          "durationTicks": 96,
          "midi": 45,
          "name": "A2",
          "ticks": 64560,
          "time": 192.14266500000002,
          "velocity": 0.7559055118110236
        },
        {
          "duration": 0.14285700000002066,
          "durationTicks": 48,
          "midi": 45,
          "name": "A2",
          "ticks": 64656,
          "time": 192.428379,
          "velocity": 0.7559055118110236
        },
        {
          "duration": 0.2857139999999845,
          "durationTicks": 96,
          "midi": 45,
          "name": "A2",
          "ticks": 64704,
          "time": 192.57123600000003,
          "velocity": 0.7559055118110236
        },
        {
          "duration": 0.14285699999999224,
          "durationTicks": 48,
          "midi": 45,
          "name": "A2",
          "ticks": 64800,
          "time": 192.85695,
          "velocity": 0.7559055118110236
        },
        {
          "duration": 0.14285700000002066,
          "durationTicks": 48,
          "midi": 45,
          "name": "A2",
          "ticks": 64848,
          "time": 192.999807,
          "velocity": 0.7559055118110236
        },
        {
          "duration": 0.14285699999999224,
          "durationTicks": 48,
          "midi": 45,
          "name": "A2",
          "ticks": 64896,
          "time": 193.14266400000002,
          "velocity": 0.7559055118110236
        },
        {
          "duration": 0.2857140000000129,
          "durationTicks": 96,
          "midi": 45,
          "name": "A2",
          "ticks": 64944,
          "time": 193.28552100000002,
          "velocity": 0.7559055118110236
        },
        {
          "duration": 0.14285699999999224,
          "durationTicks": 48,
          "midi": 45,
          "name": "A2",
          "ticks": 65040,
          "time": 193.57123500000003,
          "velocity": 0.7559055118110236
        },
        {
          "duration": 0.2857139999999845,
          "durationTicks": 96,
          "midi": 45,
          "name": "A2",
          "ticks": 65088,
          "time": 193.71409200000002,
          "velocity": 0.7559055118110236
        },
        {
          "duration": 0.14285700000002066,
          "durationTicks": 48,
          "midi": 45,
          "name": "A2",
          "ticks": 65184,
          "time": 193.999806,
          "velocity": 0.7559055118110236
        },
        {
          "duration": 0.14285699999999224,
          "durationTicks": 48,
          "midi": 45,
          "name": "A2",
          "ticks": 65232,
          "time": 194.14266300000003,
          "velocity": 0.7559055118110236
        },
        {
          "duration": 0.14285699999999224,
          "durationTicks": 48,
          "midi": 50,
          "name": "D3",
          "ticks": 65280,
          "time": 194.28552000000002,
          "velocity": 0.7559055118110236
        },
        {
          "duration": 0.2857140000000129,
          "durationTicks": 96,
          "midi": 50,
          "name": "D3",
          "ticks": 65328,
          "time": 194.428377,
          "velocity": 0.7559055118110236
        },
        {
          "duration": 0.14285699999999224,
          "durationTicks": 48,
          "midi": 50,
          "name": "D3",
          "ticks": 65424,
          "time": 194.71409100000002,
          "velocity": 0.7559055118110236
        },
        {
          "duration": 0.2857140000000129,
          "durationTicks": 96,
          "midi": 50,
          "name": "D3",
          "ticks": 65472,
          "time": 194.85694800000002,
          "velocity": 0.7559055118110236
        },
        {
          "duration": 0.14285699999999224,
          "durationTicks": 48,
          "midi": 50,
          "name": "D3",
          "ticks": 65568,
          "time": 195.14266200000003,
          "velocity": 0.7559055118110236
        },
        {
          "duration": 0.14285699999999224,
          "durationTicks": 48,
          "midi": 50,
          "name": "D3",
          "ticks": 65616,
          "time": 195.28551900000002,
          "velocity": 0.7559055118110236
        },
        {
          "duration": 0.14285699999999224,
          "durationTicks": 48,
          "midi": 50,
          "name": "D3",
          "ticks": 65664,
          "time": 195.42837600000001,
          "velocity": 0.7559055118110236
        },
        {
          "duration": 0.2857140000000129,
          "durationTicks": 96,
          "midi": 50,
          "name": "D3",
          "ticks": 65712,
          "time": 195.571233,
          "velocity": 0.7559055118110236
        },
        {
          "duration": 0.14285699999999224,
          "durationTicks": 48,
          "midi": 50,
          "name": "D3",
          "ticks": 65808,
          "time": 195.85694700000002,
          "velocity": 0.7559055118110236
        },
        {
          "duration": 0.2857140000000129,
          "durationTicks": 96,
          "midi": 50,
          "name": "D3",
          "ticks": 65856,
          "time": 195.999804,
          "velocity": 0.7559055118110236
        },
        {
          "duration": 0.14285699999999224,
          "durationTicks": 48,
          "midi": 50,
          "name": "D3",
          "ticks": 65952,
          "time": 196.28551800000002,
          "velocity": 0.7559055118110236
        },
        {
          "duration": 0.14285699999999224,
          "durationTicks": 48,
          "midi": 50,
          "name": "D3",
          "ticks": 66000,
          "time": 196.42837500000002,
          "velocity": 0.7559055118110236
        },
        {
          "duration": 0.14285700000002066,
          "durationTicks": 48,
          "midi": 46,
          "name": "A#2",
          "ticks": 66048,
          "time": 196.571232,
          "velocity": 0.7559055118110236
        },
        {
          "duration": 0.2857139999999845,
          "durationTicks": 96,
          "midi": 46,
          "name": "A#2",
          "ticks": 66096,
          "time": 196.71408900000003,
          "velocity": 0.7559055118110236
        },
        {
          "duration": 0.14285699999999224,
          "durationTicks": 48,
          "midi": 46,
          "name": "A#2",
          "ticks": 66192,
          "time": 196.999803,
          "velocity": 0.7559055118110236
        },
        {
          "duration": 0.2857140000000129,
          "durationTicks": 96,
          "midi": 46,
          "name": "A#2",
          "ticks": 66240,
          "time": 197.14266,
          "velocity": 0.7559055118110236
        },
        {
          "duration": 0.14285699999999224,
          "durationTicks": 48,
          "midi": 46,
          "name": "A#2",
          "ticks": 66336,
          "time": 197.42837400000002,
          "velocity": 0.7559055118110236
        },
        {
          "duration": 0.14285699999999224,
          "durationTicks": 48,
          "midi": 46,
          "name": "A#2",
          "ticks": 66384,
          "time": 197.571231,
          "velocity": 0.7559055118110236
        },
        {
          "duration": 0.14285700000002066,
          "durationTicks": 48,
          "midi": 46,
          "name": "A#2",
          "ticks": 66432,
          "time": 197.714088,
          "velocity": 0.7559055118110236
        },
        {
          "duration": 0.2857139999999845,
          "durationTicks": 96,
          "midi": 46,
          "name": "A#2",
          "ticks": 66480,
          "time": 197.85694500000002,
          "velocity": 0.7559055118110236
        },
        {
          "duration": 0.14285700000002066,
          "durationTicks": 48,
          "midi": 46,
          "name": "A#2",
          "ticks": 66576,
          "time": 198.142659,
          "velocity": 0.7559055118110236
        },
        {
          "duration": 0.2857139999999845,
          "durationTicks": 96,
          "midi": 46,
          "name": "A#2",
          "ticks": 66624,
          "time": 198.28551600000003,
          "velocity": 0.7559055118110236
        },
        {
          "duration": 0.14285699999999224,
          "durationTicks": 48,
          "midi": 46,
          "name": "A#2",
          "ticks": 66720,
          "time": 198.57123,
          "velocity": 0.7559055118110236
        },
        {
          "duration": 0.14285700000002066,
          "durationTicks": 48,
          "midi": 46,
          "name": "A#2",
          "ticks": 66768,
          "time": 198.714087,
          "velocity": 0.7559055118110236
        },
        {
          "duration": 0.14285699999999224,
          "durationTicks": 48,
          "midi": 48,
          "name": "C3",
          "ticks": 66816,
          "time": 198.85694400000003,
          "velocity": 0.7559055118110236
        },
        {
          "duration": 0.2857139999999845,
          "durationTicks": 96,
          "midi": 48,
          "name": "C3",
          "ticks": 66864,
          "time": 198.99980100000002,
          "velocity": 0.7559055118110236
        },
        {
          "duration": 0.14285700000002066,
          "durationTicks": 48,
          "midi": 48,
          "name": "C3",
          "ticks": 66960,
          "time": 199.285515,
          "velocity": 0.7559055118110236
        },
        {
          "duration": 0.2857139999999845,
          "durationTicks": 96,
          "midi": 48,
          "name": "C3",
          "ticks": 67008,
          "time": 199.42837200000002,
          "velocity": 0.7559055118110236
        },
        {
          "duration": 0.14285700000002066,
          "durationTicks": 48,
          "midi": 48,
          "name": "C3",
          "ticks": 67104,
          "time": 199.714086,
          "velocity": 0.7559055118110236
        },
        {
          "duration": 0.14285699999999224,
          "durationTicks": 48,
          "midi": 48,
          "name": "C3",
          "ticks": 67152,
          "time": 199.85694300000003,
          "velocity": 0.7559055118110236
        },
        {
          "duration": 0.14285699999999224,
          "durationTicks": 48,
          "midi": 48,
          "name": "C3",
          "ticks": 67200,
          "time": 199.99980000000002,
          "velocity": 0.7559055118110236
        },
        {
          "duration": 0.2857140000000129,
          "durationTicks": 96,
          "midi": 48,
          "name": "C3",
          "ticks": 67248,
          "time": 200.142657,
          "velocity": 0.7559055118110236
        },
        {
          "duration": 0.14285699999999224,
          "durationTicks": 48,
          "midi": 48,
          "name": "C3",
          "ticks": 67344,
          "time": 200.42837100000003,
          "velocity": 0.7559055118110236
        },
        {
          "duration": 0.2857139999999845,
          "durationTicks": 96,
          "midi": 48,
          "name": "C3",
          "ticks": 67392,
          "time": 200.57122800000002,
          "velocity": 0.7559055118110236
        },
        {
          "duration": 0.14285700000002066,
          "durationTicks": 48,
          "midi": 48,
          "name": "C3",
          "ticks": 67488,
          "time": 200.856942,
          "velocity": 0.7559055118110236
        },
        {
          "duration": 0.14285699999999224,
          "durationTicks": 48,
          "midi": 48,
          "name": "C3",
          "ticks": 67536,
          "time": 200.99979900000002,
          "velocity": 0.7559055118110236
        },
        {
          "duration": 0.14285699999999224,
          "durationTicks": 48,
          "midi": 45,
          "name": "A2",
          "ticks": 67584,
          "time": 201.14265600000002,
          "velocity": 0.7559055118110236
        },
        {
          "duration": 0.2857140000000129,
          "durationTicks": 96,
          "midi": 45,
          "name": "A2",
          "ticks": 67632,
          "time": 201.285513,
          "velocity": 0.7559055118110236
        },
        {
          "duration": 0.14285699999999224,
          "durationTicks": 48,
          "midi": 45,
          "name": "A2",
          "ticks": 67728,
          "time": 201.57122700000002,
          "velocity": 0.7559055118110236
        },
        {
          "duration": 0.2857140000000129,
          "durationTicks": 96,
          "midi": 45,
          "name": "A2",
          "ticks": 67776,
          "time": 201.714084,
          "velocity": 0.7559055118110236
        },
        {
          "duration": 0.14285699999999224,
          "durationTicks": 48,
          "midi": 45,
          "name": "A2",
          "ticks": 67872,
          "time": 201.99979800000003,
          "velocity": 0.7559055118110236
        },
        {
          "duration": 0.14285699999999224,
          "durationTicks": 48,
          "midi": 45,
          "name": "A2",
          "ticks": 67920,
          "time": 202.14265500000002,
          "velocity": 0.7559055118110236
        },
        {
          "duration": 0.14285699999999224,
          "durationTicks": 48,
          "midi": 45,
          "name": "A2",
          "ticks": 67968,
          "time": 202.285512,
          "velocity": 0.7559055118110236
        },
        {
          "duration": 0.2857140000000129,
          "durationTicks": 96,
          "midi": 45,
          "name": "A2",
          "ticks": 68016,
          "time": 202.428369,
          "velocity": 0.7559055118110236
        },
        {
          "duration": 0.14285699999999224,
          "durationTicks": 48,
          "midi": 45,
          "name": "A2",
          "ticks": 68112,
          "time": 202.71408300000002,
          "velocity": 0.7559055118110236
        },
        {
          "duration": 0.2857140000000129,
          "durationTicks": 96,
          "midi": 45,
          "name": "A2",
          "ticks": 68160,
          "time": 202.85694,
          "velocity": 0.7559055118110236
        },
        {
          "duration": 0.14285699999999224,
          "durationTicks": 48,
          "midi": 45,
          "name": "A2",
          "ticks": 68256,
          "time": 203.14265400000002,
          "velocity": 0.7559055118110236
        },
        {
          "duration": 0.14285699999999224,
          "durationTicks": 48,
          "midi": 45,
          "name": "A2",
          "ticks": 68304,
          "time": 203.285511,
          "velocity": 0.7559055118110236
        },
        {
          "duration": 0.14285700000002066,
          "durationTicks": 48,
          "midi": 50,
          "name": "D3",
          "ticks": 68352,
          "time": 203.428368,
          "velocity": 0.7559055118110236
        },
        {
          "duration": 0.2857139999999845,
          "durationTicks": 96,
          "midi": 50,
          "name": "D3",
          "ticks": 68400,
          "time": 203.57122500000003,
          "velocity": 0.7559055118110236
        },
        {
          "duration": 0.14285699999999224,
          "durationTicks": 48,
          "midi": 50,
          "name": "D3",
          "ticks": 68496,
          "time": 203.856939,
          "velocity": 0.7559055118110236
        },
        {
          "duration": 0.2857140000000129,
          "durationTicks": 96,
          "midi": 50,
          "name": "D3",
          "ticks": 68544,
          "time": 203.999796,
          "velocity": 0.7559055118110236
        },
        {
          "duration": 0.14285699999999224,
          "durationTicks": 48,
          "midi": 50,
          "name": "D3",
          "ticks": 68640,
          "time": 204.28551000000002,
          "velocity": 0.7559055118110236
        },
        {
          "duration": 0.14285700000002066,
          "durationTicks": 48,
          "midi": 50,
          "name": "D3",
          "ticks": 68688,
          "time": 204.428367,
          "velocity": 0.7559055118110236
        },
        {
          "duration": 0.14285699999999224,
          "durationTicks": 48,
          "midi": 46,
          "name": "A#2",
          "ticks": 68736,
          "time": 204.57122400000003,
          "velocity": 0.7559055118110236
        },
        {
          "duration": 0.2857139999999845,
          "durationTicks": 96,
          "midi": 46,
          "name": "A#2",
          "ticks": 68784,
          "time": 204.71408100000002,
          "velocity": 0.7559055118110236
        },
        {
          "duration": 0.14285700000002066,
          "durationTicks": 48,
          "midi": 46,
          "name": "A#2",
          "ticks": 68880,
          "time": 204.999795,
          "velocity": 0.7559055118110236
        },
        {
          "duration": 0.2857139999999845,
          "durationTicks": 96,
          "midi": 46,
          "name": "A#2",
          "ticks": 68928,
          "time": 205.14265200000003,
          "velocity": 0.7559055118110236
        },
        {
          "duration": 0.14285699999999224,
          "durationTicks": 48,
          "midi": 46,
          "name": "A#2",
          "ticks": 69024,
          "time": 205.428366,
          "velocity": 0.7559055118110236
        },
        {
          "duration": 0.14285700000002066,
          "durationTicks": 48,
          "midi": 46,
          "name": "A#2",
          "ticks": 69072,
          "time": 205.571223,
          "velocity": 0.7559055118110236
        },
        {
          "duration": 0.14285699999999224,
          "durationTicks": 48,
          "midi": 48,
          "name": "C3",
          "ticks": 69120,
          "time": 205.71408000000002,
          "velocity": 0.7559055118110236
        },
        {
          "duration": 0.2857140000000129,
          "durationTicks": 96,
          "midi": 48,
          "name": "C3",
          "ticks": 69168,
          "time": 205.85693700000002,
          "velocity": 0.7559055118110236
        },
        {
          "duration": 0.14285699999999224,
          "durationTicks": 48,
          "midi": 48,
          "name": "C3",
          "ticks": 69264,
          "time": 206.14265100000003,
          "velocity": 0.7559055118110236
        },
        {
          "duration": 0.2857139999999845,
          "durationTicks": 96,
          "midi": 48,
          "name": "C3",
          "ticks": 69312,
          "time": 206.28550800000002,
          "velocity": 0.7559055118110236
        },
        {
          "duration": 0.14285700000002066,
          "durationTicks": 48,
          "midi": 48,
          "name": "C3",
          "ticks": 69408,
          "time": 206.571222,
          "velocity": 0.7559055118110236
        },
        {
          "duration": 0.14285699999999224,
          "durationTicks": 48,
          "midi": 48,
          "name": "C3",
          "ticks": 69456,
          "time": 206.71407900000003,
          "velocity": 0.7559055118110236
        },
        {
          "duration": 0.14285699999999224,
          "durationTicks": 48,
          "midi": 45,
          "name": "A2",
          "ticks": 69504,
          "time": 206.85693600000002,
          "velocity": 0.7559055118110236
        },
        {
          "duration": 0.2857140000000129,
          "durationTicks": 96,
          "midi": 45,
          "name": "A2",
          "ticks": 69552,
          "time": 206.999793,
          "velocity": 0.7559055118110236
        },
        {
          "duration": 0.14285699999999224,
          "durationTicks": 48,
          "midi": 45,
          "name": "A2",
          "ticks": 69648,
          "time": 207.28550700000002,
          "velocity": 0.7559055118110236
        },
        {
          "duration": 0.2857140000000129,
          "durationTicks": 96,
          "midi": 45,
          "name": "A2",
          "ticks": 69696,
          "time": 207.42836400000002,
          "velocity": 0.7559055118110236
        },
        {
          "duration": 0.14285699999999224,
          "durationTicks": 48,
          "midi": 45,
          "name": "A2",
          "ticks": 69792,
          "time": 207.71407800000003,
          "velocity": 0.7559055118110236
        },
        {
          "duration": 0.14285699999999224,
          "durationTicks": 48,
          "midi": 45,
          "name": "A2",
          "ticks": 69840,
          "time": 207.85693500000002,
          "velocity": 0.7559055118110236
        },
        {
          "duration": 0.14285699999999224,
          "durationTicks": 48,
          "midi": 46,
          "name": "A#2",
          "ticks": 69888,
          "time": 207.999792,
          "velocity": 0.7559055118110236
        },
        {
          "duration": 0.2857140000000129,
          "durationTicks": 96,
          "midi": 46,
          "name": "A#2",
          "ticks": 69936,
          "time": 208.142649,
          "velocity": 0.7559055118110236
        },
        {
          "duration": 0.14285699999999224,
          "durationTicks": 48,
          "midi": 46,
          "name": "A#2",
          "ticks": 70032,
          "time": 208.42836300000002,
          "velocity": 0.7559055118110236
        },
        {
          "duration": 0.2857140000000129,
          "durationTicks": 96,
          "midi": 46,
          "name": "A#2",
          "ticks": 70080,
          "time": 208.57122,
          "velocity": 0.7559055118110236
        },
        {
          "duration": 0.14285699999999224,
          "durationTicks": 48,
          "midi": 46,
          "name": "A#2",
          "ticks": 70176,
          "time": 208.85693400000002,
          "velocity": 0.7559055118110236
        },
        {
          "duration": 0.14285699999999224,
          "durationTicks": 48,
          "midi": 46,
          "name": "A#2",
          "ticks": 70224,
          "time": 208.99979100000002,
          "velocity": 0.7559055118110236
        },
        {
          "duration": 0.14285700000002066,
          "durationTicks": 48,
          "midi": 43,
          "name": "G2",
          "ticks": 70272,
          "time": 209.142648,
          "velocity": 0.7559055118110236
        },
        {
          "duration": 0.2857139999999845,
          "durationTicks": 96,
          "midi": 43,
          "name": "G2",
          "ticks": 70320,
          "time": 209.28550500000003,
          "velocity": 0.7559055118110236
        },
        {
          "duration": 0.14285699999999224,
          "durationTicks": 48,
          "midi": 43,
          "name": "G2",
          "ticks": 70416,
          "time": 209.571219,
          "velocity": 0.7559055118110236
        },
        {
          "duration": 0.2857140000000129,
          "durationTicks": 96,
          "midi": 43,
          "name": "G2",
          "ticks": 70464,
          "time": 209.714076,
          "velocity": 0.7559055118110236
        },
        {
          "duration": 0.14285699999999224,
          "durationTicks": 48,
          "midi": 43,
          "name": "G2",
          "ticks": 70560,
          "time": 209.99979000000002,
          "velocity": 0.7559055118110236
        },
        {
          "duration": 0.14285699999999224,
          "durationTicks": 48,
          "midi": 43,
          "name": "G2",
          "ticks": 70608,
          "time": 210.142647,
          "velocity": 0.7559055118110236
        },
        {
          "duration": 0.14285700000002066,
          "durationTicks": 48,
          "midi": 45,
          "name": "A2",
          "ticks": 70656,
          "time": 210.285504,
          "velocity": 0.7559055118110236
        },
        {
          "duration": 0.2857139999999845,
          "durationTicks": 96,
          "midi": 45,
          "name": "A2",
          "ticks": 70704,
          "time": 210.42836100000002,
          "velocity": 0.7559055118110236
        },
        {
          "duration": 0.14285700000002066,
          "durationTicks": 48,
          "midi": 45,
          "name": "A2",
          "ticks": 70800,
          "time": 210.714075,
          "velocity": 0.7559055118110236
        },
        {
          "duration": 0.2857139999999845,
          "durationTicks": 96,
          "midi": 45,
          "name": "A2",
          "ticks": 70848,
          "time": 210.85693200000003,
          "velocity": 0.7559055118110236
        },
        {
          "duration": 0.14285699999999224,
          "durationTicks": 48,
          "midi": 45,
          "name": "A2",
          "ticks": 70944,
          "time": 211.142646,
          "velocity": 0.7559055118110236
        },
        {
          "duration": 0.14285700000002066,
          "durationTicks": 48,
          "midi": 45,
          "name": "A2",
          "ticks": 70992,
          "time": 211.285503,
          "velocity": 0.7559055118110236
        },
        {
          "duration": 0.14285699999999224,
          "durationTicks": 48,
          "midi": 45,
          "name": "A2",
          "ticks": 71040,
          "time": 211.42836000000003,
          "velocity": 0.7559055118110236
        },
        {
          "duration": 0.2857140000000129,
          "durationTicks": 96,
          "midi": 45,
          "name": "A2",
          "ticks": 71088,
          "time": 211.57121700000002,
          "velocity": 0.7559055118110236
        },
        {
          "duration": 0.14285699999999224,
          "durationTicks": 48,
          "midi": 45,
          "name": "A2",
          "ticks": 71184,
          "time": 211.85693100000003,
          "velocity": 0.7559055118110236
        },
        {
          "duration": 0.2857139999999845,
          "durationTicks": 96,
          "midi": 45,
          "name": "A2",
          "ticks": 71232,
          "time": 211.99978800000002,
          "velocity": 0.7559055118110236
        },
        {
          "duration": 0.14285700000002066,
          "durationTicks": 48,
          "midi": 45,
          "name": "A2",
          "ticks": 71328,
          "time": 212.285502,
          "velocity": 0.7559055118110236
        },
        {
          "duration": 0.14285699999999224,
          "durationTicks": 48,
          "midi": 45,
          "name": "A2",
          "ticks": 71376,
          "time": 212.42835900000003,
          "velocity": 0.7559055118110236
        },
        {
          "duration": 0.14285699999999224,
          "durationTicks": 48,
          "midi": 50,
          "name": "D3",
          "ticks": 71424,
          "time": 212.57121600000002,
          "velocity": 0.7559055118110236
        },
        {
          "duration": 0.2857140000000129,
          "durationTicks": 96,
          "midi": 50,
          "name": "D3",
          "ticks": 71472,
          "time": 212.714073,
          "velocity": 0.7559055118110236
        },
        {
          "duration": 0.14285699999999224,
          "durationTicks": 48,
          "midi": 50,
          "name": "D3",
          "ticks": 71568,
          "time": 212.99978700000003,
          "velocity": 0.7559055118110236
        },
        {
          "duration": 0.2857140000000129,
          "durationTicks": 96,
          "midi": 50,
          "name": "D3",
          "ticks": 71616,
          "time": 213.14264400000002,
          "velocity": 0.7559055118110236
        },
        {
          "duration": 0.14285699999999224,
          "durationTicks": 48,
          "midi": 50,
          "name": "D3",
          "ticks": 71712,
          "time": 213.42835800000003,
          "velocity": 0.7559055118110236
        },
        {
          "duration": 0.14285699999999224,
          "durationTicks": 48,
          "midi": 50,
          "name": "D3",
          "ticks": 71760,
          "time": 213.57121500000002,
          "velocity": 0.7559055118110236
        },
        {
          "duration": 0.14285699999999224,
          "durationTicks": 48,
          "midi": 46,
          "name": "A#2",
          "ticks": 71808,
          "time": 213.71407200000002,
          "velocity": 0.7559055118110236
        },
        {
          "duration": 0.2857140000000129,
          "durationTicks": 96,
          "midi": 46,
          "name": "A#2",
          "ticks": 71856,
          "time": 213.856929,
          "velocity": 0.7559055118110236
        },
        {
          "duration": 0.14285699999999224,
          "durationTicks": 48,
          "midi": 46,
          "name": "A#2",
          "ticks": 71952,
          "time": 214.14264300000002,
          "velocity": 0.7559055118110236
        },
        {
          "duration": 0.2857140000000129,
          "durationTicks": 96,
          "midi": 46,
          "name": "A#2",
          "ticks": 72000,
          "time": 214.2855,
          "velocity": 0.7559055118110236
        },
        {
          "duration": 0.14285699999999224,
          "durationTicks": 48,
          "midi": 46,
          "name": "A#2",
          "ticks": 72096,
          "time": 214.57121400000003,
          "velocity": 0.7559055118110236
        },
        {
          "duration": 0.14285699999999224,
          "durationTicks": 48,
          "midi": 46,
          "name": "A#2",
          "ticks": 72144,
          "time": 214.71407100000002,
          "velocity": 0.7559055118110236
        },
        {
          "duration": 0.14285700000002066,
          "durationTicks": 48,
          "midi": 48,
          "name": "C3",
          "ticks": 72192,
          "time": 214.856928,
          "velocity": 0.7559055118110236
        },
        {
          "duration": 0.2857139999999845,
          "durationTicks": 96,
          "midi": 48,
          "name": "C3",
          "ticks": 72240,
          "time": 214.99978500000003,
          "velocity": 0.7559055118110236
        },
        {
          "duration": 0.14285699999999224,
          "durationTicks": 48,
          "midi": 48,
          "name": "C3",
          "ticks": 72336,
          "time": 215.28549900000002,
          "velocity": 0.7559055118110236
        },
        {
          "duration": 0.2857140000000129,
          "durationTicks": 96,
          "midi": 48,
          "name": "C3",
          "ticks": 72384,
          "time": 215.428356,
          "velocity": 0.7559055118110236
        },
        {
          "duration": 0.14285699999999224,
          "durationTicks": 48,
          "midi": 48,
          "name": "C3",
          "ticks": 72480,
          "time": 215.71407000000002,
          "velocity": 0.7559055118110236
        },
        {
          "duration": 0.14285699999999224,
          "durationTicks": 48,
          "midi": 48,
          "name": "C3",
          "ticks": 72528,
          "time": 215.856927,
          "velocity": 0.7559055118110236
        },
        {
          "duration": 0.14285700000002066,
          "durationTicks": 48,
          "midi": 45,
          "name": "A2",
          "ticks": 72576,
          "time": 215.999784,
          "velocity": 0.7559055118110236
        },
        {
          "duration": 0.2857139999999845,
          "durationTicks": 96,
          "midi": 45,
          "name": "A2",
          "ticks": 72624,
          "time": 216.14264100000003,
          "velocity": 0.7559055118110236
        },
        {
          "duration": 0.14285700000002066,
          "durationTicks": 48,
          "midi": 45,
          "name": "A2",
          "ticks": 72720,
          "time": 216.428355,
          "velocity": 0.7559055118110236
        },
        {
          "duration": 0.2857139999999845,
          "durationTicks": 96,
          "midi": 45,
          "name": "A2",
          "ticks": 72768,
          "time": 216.57121200000003,
          "velocity": 0.7559055118110236
        },
        {
          "duration": 0.14285699999999224,
          "durationTicks": 48,
          "midi": 45,
          "name": "A2",
          "ticks": 72864,
          "time": 216.85692600000002,
          "velocity": 0.7559055118110236
        },
        {
          "duration": 0.14285700000002066,
          "durationTicks": 48,
          "midi": 45,
          "name": "A2",
          "ticks": 72912,
          "time": 216.999783,
          "velocity": 0.7559055118110236
        },
        {
          "duration": 0.14285699999999224,
          "durationTicks": 48,
          "midi": 46,
          "name": "A#2",
          "ticks": 72960,
          "time": 217.14264000000003,
          "velocity": 0.7559055118110236
        },
        {
          "duration": 0.2857139999999845,
          "durationTicks": 96,
          "midi": 46,
          "name": "A#2",
          "ticks": 73008,
          "time": 217.28549700000002,
          "velocity": 0.7559055118110236
        },
        {
          "duration": 0.14285700000002066,
          "durationTicks": 48,
          "midi": 46,
          "name": "A#2",
          "ticks": 73104,
          "time": 217.571211,
          "velocity": 0.7559055118110236
        },
        {
          "duration": 0.2857139999999845,
          "durationTicks": 96,
          "midi": 46,
          "name": "A#2",
          "ticks": 73152,
          "time": 217.71406800000003,
          "velocity": 0.7559055118110236
        },
        {
          "duration": 0.14285700000002066,
          "durationTicks": 48,
          "midi": 46,
          "name": "A#2",
          "ticks": 73248,
          "time": 217.999782,
          "velocity": 0.7559055118110236
        },
        {
          "duration": 0.14285699999999224,
          "durationTicks": 48,
          "midi": 46,
          "name": "A#2",
          "ticks": 73296,
          "time": 218.14263900000003,
          "velocity": 0.7559055118110236
        },
        {
          "duration": 0.14285699999999224,
          "durationTicks": 48,
          "midi": 43,
          "name": "G2",
          "ticks": 73344,
          "time": 218.28549600000002,
          "velocity": 0.7559055118110236
        },
        {
          "duration": 0.2857140000000129,
          "durationTicks": 96,
          "midi": 43,
          "name": "G2",
          "ticks": 73392,
          "time": 218.42835300000002,
          "velocity": 0.7559055118110236
        },
        {
          "duration": 0.14285699999999224,
          "durationTicks": 48,
          "midi": 43,
          "name": "G2",
          "ticks": 73488,
          "time": 218.71406700000003,
          "velocity": 0.7559055118110236
        },
        {
          "duration": 0.2857139999999845,
          "durationTicks": 96,
          "midi": 43,
          "name": "G2",
          "ticks": 73536,
          "time": 218.85692400000002,
          "velocity": 0.7559055118110236
        },
        {
          "duration": 0.14285700000002066,
          "durationTicks": 48,
          "midi": 43,
          "name": "G2",
          "ticks": 73632,
          "time": 219.142638,
          "velocity": 0.7559055118110236
        },
        {
          "duration": 0.14285699999999224,
          "durationTicks": 48,
          "midi": 43,
          "name": "G2",
          "ticks": 73680,
          "time": 219.28549500000003,
          "velocity": 0.7559055118110236
        },
        {
          "duration": 0.14285699999999224,
          "durationTicks": 48,
          "midi": 45,
          "name": "A2",
          "ticks": 73728,
          "time": 219.42835200000002,
          "velocity": 0.7559055118110236
        },
        {
          "duration": 0.2857140000000129,
          "durationTicks": 96,
          "midi": 45,
          "name": "A2",
          "ticks": 73776,
          "time": 219.571209,
          "velocity": 0.7559055118110236
        },
        {
          "duration": 0.14285699999999224,
          "durationTicks": 48,
          "midi": 45,
          "name": "A2",
          "ticks": 73872,
          "time": 219.85692300000002,
          "velocity": 0.7559055118110236
        },
        {
          "duration": 0.2857140000000129,
          "durationTicks": 96,
          "midi": 45,
          "name": "A2",
          "ticks": 73920,
          "time": 219.99978000000002,
          "velocity": 0.7559055118110236
        },
        {
          "duration": 0.14285699999999224,
          "durationTicks": 48,
          "midi": 45,
          "name": "A2",
          "ticks": 74016,
          "time": 220.28549400000003,
          "velocity": 0.7559055118110236
        },
        {
          "duration": 0.14285699999999224,
          "durationTicks": 48,
          "midi": 45,
          "name": "A2",
          "ticks": 74064,
          "time": 220.42835100000002,
          "velocity": 0.7559055118110236
        },
        {
          "duration": 0.14285699999999224,
          "durationTicks": 48,
          "midi": 45,
          "name": "A2",
          "ticks": 74112,
          "time": 220.571208,
          "velocity": 0.7559055118110236
        },
        {
          "duration": 0.2857140000000129,
          "durationTicks": 96,
          "midi": 45,
          "name": "A2",
          "ticks": 74160,
          "time": 220.714065,
          "velocity": 0.7559055118110236
        },
        {
          "duration": 0.14285699999999224,
          "durationTicks": 48,
          "midi": 45,
          "name": "A2",
          "ticks": 74256,
          "time": 220.99977900000002,
          "velocity": 0.7559055118110236
        },
        {
          "duration": 0.2857140000000129,
          "durationTicks": 96,
          "midi": 45,
          "name": "A2",
          "ticks": 74304,
          "time": 221.142636,
          "velocity": 0.7559055118110236
        },
        {
          "duration": 0.14285699999999224,
          "durationTicks": 48,
          "midi": 45,
          "name": "A2",
          "ticks": 74400,
          "time": 221.42835000000002,
          "velocity": 0.7559055118110236
        },
        {
          "duration": 0.14285699999999224,
          "durationTicks": 48,
          "midi": 45,
          "name": "A2",
          "ticks": 74448,
          "time": 221.57120700000002,
          "velocity": 0.7559055118110236
        },
        {
          "duration": 0.14285700000002066,
          "durationTicks": 48,
          "midi": 50,
          "name": "D3",
          "ticks": 74496,
          "time": 221.714064,
          "velocity": 0.7559055118110236
        },
        {
          "duration": 0.2857139999999845,
          "durationTicks": 96,
          "midi": 50,
          "name": "D3",
          "ticks": 74544,
          "time": 221.85692100000003,
          "velocity": 0.7559055118110236
        },
        {
          "duration": 0.14285699999999224,
          "durationTicks": 48,
          "midi": 50,
          "name": "D3",
          "ticks": 74640,
          "time": 222.142635,
          "velocity": 0.7559055118110236
        },
        {
          "duration": 0.2857140000000129,
          "durationTicks": 96,
          "midi": 50,
          "name": "D3",
          "ticks": 74688,
          "time": 222.285492,
          "velocity": 0.7559055118110236
        },
        {
          "duration": 0.14285699999999224,
          "durationTicks": 48,
          "midi": 50,
          "name": "D3",
          "ticks": 74784,
          "time": 222.57120600000002,
          "velocity": 0.7559055118110236
        },
        {
          "duration": 0.14285700000002066,
          "durationTicks": 48,
          "midi": 50,
          "name": "D3",
          "ticks": 74832,
          "time": 222.714063,
          "velocity": 0.7559055118110236
        },
        {
          "duration": 0.14285699999999224,
          "durationTicks": 48,
          "midi": 46,
          "name": "A#2",
          "ticks": 74880,
          "time": 222.85692000000003,
          "velocity": 0.7559055118110236
        },
        {
          "duration": 0.2857139999999845,
          "durationTicks": 96,
          "midi": 46,
          "name": "A#2",
          "ticks": 74928,
          "time": 222.99977700000002,
          "velocity": 0.7559055118110236
        },
        {
          "duration": 0.14285700000002066,
          "durationTicks": 48,
          "midi": 46,
          "name": "A#2",
          "ticks": 75024,
          "time": 223.285491,
          "velocity": 0.7559055118110236
        },
        {
          "duration": 0.2857139999999845,
          "durationTicks": 96,
          "midi": 46,
          "name": "A#2",
          "ticks": 75072,
          "time": 223.42834800000003,
          "velocity": 0.7559055118110236
        },
        {
          "duration": 0.14285699999999224,
          "durationTicks": 48,
          "midi": 46,
          "name": "A#2",
          "ticks": 75168,
          "time": 223.714062,
          "velocity": 0.7559055118110236
        },
        {
          "duration": 0.14285700000002066,
          "durationTicks": 48,
          "midi": 46,
          "name": "A#2",
          "ticks": 75216,
          "time": 223.856919,
          "velocity": 0.7559055118110236
        },
        {
          "duration": 0.14285699999999224,
          "durationTicks": 48,
          "midi": 48,
          "name": "C3",
          "ticks": 75264,
          "time": 223.99977600000003,
          "velocity": 0.7559055118110236
        },
        {
          "duration": 0.2857140000000129,
          "durationTicks": 96,
          "midi": 48,
          "name": "C3",
          "ticks": 75312,
          "time": 224.14263300000002,
          "velocity": 0.7559055118110236
        },
        {
          "duration": 0.14285699999999224,
          "durationTicks": 48,
          "midi": 48,
          "name": "C3",
          "ticks": 75408,
          "time": 224.42834700000003,
          "velocity": 0.7559055118110236
        },
        {
          "duration": 0.2857139999999845,
          "durationTicks": 96,
          "midi": 48,
          "name": "C3",
          "ticks": 75456,
          "time": 224.57120400000002,
          "velocity": 0.7559055118110236
        },
        {
          "duration": 0.14285700000002066,
          "durationTicks": 48,
          "midi": 48,
          "name": "C3",
          "ticks": 75552,
          "time": 224.856918,
          "velocity": 0.7559055118110236
        },
        {
          "duration": 0.14285699999999224,
          "durationTicks": 48,
          "midi": 48,
          "name": "C3",
          "ticks": 75600,
          "time": 224.99977500000003,
          "velocity": 0.7559055118110236
        },
        {
          "duration": 0.14285699999999224,
          "durationTicks": 48,
          "midi": 45,
          "name": "A2",
          "ticks": 75648,
          "time": 225.14263200000002,
          "velocity": 0.7559055118110236
        },
        {
          "duration": 0.2857140000000129,
          "durationTicks": 96,
          "midi": 45,
          "name": "A2",
          "ticks": 75696,
          "time": 225.285489,
          "velocity": 0.7559055118110236
        },
        {
          "duration": 0.14285699999999224,
          "durationTicks": 48,
          "midi": 45,
          "name": "A2",
          "ticks": 75792,
          "time": 225.57120300000003,
          "velocity": 0.7559055118110236
        },
        {
          "duration": 0.2857140000000129,
          "durationTicks": 96,
          "midi": 45,
          "name": "A2",
          "ticks": 75840,
          "time": 225.71406000000002,
          "velocity": 0.7559055118110236
        },
        {
          "duration": 0.14285699999999224,
          "durationTicks": 48,
          "midi": 45,
          "name": "A2",
          "ticks": 75936,
          "time": 225.99977400000003,
          "velocity": 0.7559055118110236
        },
        {
          "duration": 0.14285699999999224,
          "durationTicks": 48,
          "midi": 45,
          "name": "A2",
          "ticks": 75984,
          "time": 226.14263100000002,
          "velocity": 0.7559055118110236
        },
        {
          "duration": 0.14285699999999224,
          "durationTicks": 48,
          "midi": 46,
          "name": "A#2",
          "ticks": 76032,
          "time": 226.28548800000002,
          "velocity": 0.7559055118110236
        },
        {
          "duration": 0.2857140000000129,
          "durationTicks": 96,
          "midi": 46,
          "name": "A#2",
          "ticks": 76080,
          "time": 226.428345,
          "velocity": 0.7559055118110236
        },
        {
          "duration": 0.14285699999999224,
          "durationTicks": 48,
          "midi": 46,
          "name": "A#2",
          "ticks": 76176,
          "time": 226.71405900000002,
          "velocity": 0.7559055118110236
        },
        {
          "duration": 0.2857140000000129,
          "durationTicks": 96,
          "midi": 46,
          "name": "A#2",
          "ticks": 76224,
          "time": 226.856916,
          "velocity": 0.7559055118110236
        },
        {
          "duration": 0.14285699999999224,
          "durationTicks": 48,
          "midi": 46,
          "name": "A#2",
          "ticks": 76320,
          "time": 227.14263000000003,
          "velocity": 0.7559055118110236
        },
        {
          "duration": 0.14285699999999224,
          "durationTicks": 48,
          "midi": 46,
          "name": "A#2",
          "ticks": 76368,
          "time": 227.28548700000002,
          "velocity": 0.7559055118110236
        },
        {
          "duration": 0.14285700000002066,
          "durationTicks": 48,
          "midi": 43,
          "name": "G2",
          "ticks": 76416,
          "time": 227.428344,
          "velocity": 0.7559055118110236
        },
        {
          "duration": 0.2857139999999845,
          "durationTicks": 96,
          "midi": 43,
          "name": "G2",
          "ticks": 76464,
          "time": 227.57120100000003,
          "velocity": 0.7559055118110236
        },
        {
          "duration": 0.14285699999999224,
          "durationTicks": 48,
          "midi": 43,
          "name": "G2",
          "ticks": 76560,
          "time": 227.85691500000001,
          "velocity": 0.7559055118110236
        },
        {
          "duration": 0.2857140000000129,
          "durationTicks": 96,
          "midi": 43,
          "name": "G2",
          "ticks": 76608,
          "time": 227.999772,
          "velocity": 0.7559055118110236
        },
        {
          "duration": 0.14285699999999224,
          "durationTicks": 48,
          "midi": 43,
          "name": "G2",
          "ticks": 76704,
          "time": 228.28548600000002,
          "velocity": 0.7559055118110236
        },
        {
          "duration": 0.14285700000002066,
          "durationTicks": 48,
          "midi": 43,
          "name": "G2",
          "ticks": 76752,
          "time": 228.428343,
          "velocity": 0.7559055118110236
        },
        {
          "duration": 0.14285699999999224,
          "durationTicks": 48,
          "midi": 45,
          "name": "A2",
          "ticks": 76800,
          "time": 228.57120000000003,
          "velocity": 0.7559055118110236
        },
        {
          "duration": 0.2857139999999845,
          "durationTicks": 96,
          "midi": 45,
          "name": "A2",
          "ticks": 76848,
          "time": 228.71405700000003,
          "velocity": 0.7559055118110236
        },
        {
          "duration": 0.14285700000002066,
          "durationTicks": 48,
          "midi": 45,
          "name": "A2",
          "ticks": 76944,
          "time": 228.999771,
          "velocity": 0.7559055118110236
        },
        {
          "duration": 0.2857139999999845,
          "durationTicks": 96,
          "midi": 45,
          "name": "A2",
          "ticks": 76992,
          "time": 229.14262800000003,
          "velocity": 0.7559055118110236
        },
        {
          "duration": 0.14285699999999224,
          "durationTicks": 48,
          "midi": 45,
          "name": "A2",
          "ticks": 77088,
          "time": 229.42834200000001,
          "velocity": 0.7559055118110236
        },
        {
          "duration": 0.14285700000002066,
          "durationTicks": 48,
          "midi": 45,
          "name": "A2",
          "ticks": 77136,
          "time": 229.571199,
          "velocity": 0.7559055118110236
        },
        {
          "duration": 0.14285699999999224,
          "durationTicks": 48,
          "midi": 45,
          "name": "A2",
          "ticks": 77184,
          "time": 229.71405600000003,
          "velocity": 0.7559055118110236
        },
        {
          "duration": 0.2857140000000129,
          "durationTicks": 96,
          "midi": 45,
          "name": "A2",
          "ticks": 77232,
          "time": 229.85691300000002,
          "velocity": 0.7559055118110236
        },
        {
          "duration": 0.14285699999999224,
          "durationTicks": 48,
          "midi": 45,
          "name": "A2",
          "ticks": 77328,
          "time": 230.14262700000003,
          "velocity": 0.7559055118110236
        },
        {
          "duration": 0.2857139999999845,
          "durationTicks": 96,
          "midi": 45,
          "name": "A2",
          "ticks": 77376,
          "time": 230.28548400000003,
          "velocity": 0.7559055118110236
        },
        {
          "duration": 0.14285700000002066,
          "durationTicks": 48,
          "midi": 45,
          "name": "A2",
          "ticks": 77472,
          "time": 230.571198,
          "velocity": 0.7559055118110236
        },
        {
          "duration": 0.14285699999999224,
          "durationTicks": 48,
          "midi": 45,
          "name": "A2",
          "ticks": 77520,
          "time": 230.71405500000003,
          "velocity": 0.7559055118110236
        },
        {
          "duration": 0.14285699999999224,
          "durationTicks": 48,
          "midi": 50,
          "name": "D3",
          "ticks": 77568,
          "time": 230.85691200000002,
          "velocity": 0.7559055118110236
        },
        {
          "duration": 0.2857140000000129,
          "durationTicks": 96,
          "midi": 50,
          "name": "D3",
          "ticks": 77616,
          "time": 230.99976900000001,
          "velocity": 0.7559055118110236
        },
        {
          "duration": 0.14285699999999224,
          "durationTicks": 48,
          "midi": 50,
          "name": "D3",
          "ticks": 77712,
          "time": 231.28548300000003,
          "velocity": 0.7559055118110236
        },
        {
          "duration": 0.2857140000000129,
          "durationTicks": 96,
          "midi": 50,
          "name": "D3",
          "ticks": 77760,
          "time": 231.42834000000002,
          "velocity": 0.7559055118110236
        },
        {
          "duration": 0.14285699999999224,
          "durationTicks": 48,
          "midi": 50,
          "name": "D3",
          "ticks": 77856,
          "time": 231.71405400000003,
          "velocity": 0.7559055118110236
        },
        {
          "duration": 0.14285699999999224,
          "durationTicks": 48,
          "midi": 50,
          "name": "D3",
          "ticks": 77904,
          "time": 231.85691100000003,
          "velocity": 0.7559055118110236
        },
        {
          "duration": 0.14285699999999224,
          "durationTicks": 48,
          "midi": 46,
          "name": "A#2",
          "ticks": 77952,
          "time": 231.99976800000002,
          "velocity": 0.7559055118110236
        },
        {
          "duration": 0.2857140000000129,
          "durationTicks": 96,
          "midi": 46,
          "name": "A#2",
          "ticks": 78000,
          "time": 232.142625,
          "velocity": 0.7559055118110236
        },
        {
          "duration": 0.14285699999999224,
          "durationTicks": 48,
          "midi": 46,
          "name": "A#2",
          "ticks": 78096,
          "time": 232.42833900000002,
          "velocity": 0.7559055118110236
        },
        {
          "duration": 0.2857140000000129,
          "durationTicks": 96,
          "midi": 46,
          "name": "A#2",
          "ticks": 78144,
          "time": 232.57119600000001,
          "velocity": 0.7559055118110236
        },
        {
          "duration": 0.14285699999999224,
          "durationTicks": 48,
          "midi": 46,
          "name": "A#2",
          "ticks": 78240,
          "time": 232.85691000000003,
          "velocity": 0.7559055118110236
        },
        {
          "duration": 0.14285699999999224,
          "durationTicks": 48,
          "midi": 46,
          "name": "A#2",
          "ticks": 78288,
          "time": 232.99976700000002,
          "velocity": 0.7559055118110236
        },
        {
          "duration": 0.14285700000002066,
          "durationTicks": 48,
          "midi": 48,
          "name": "C3",
          "ticks": 78336,
          "time": 233.142624,
          "velocity": 0.7559055118110236
        },
        {
          "duration": 0.2857139999999845,
          "durationTicks": 96,
          "midi": 48,
          "name": "C3",
          "ticks": 78384,
          "time": 233.28548100000003,
          "velocity": 0.7559055118110236
        },
        {
          "duration": 0.14285699999999224,
          "durationTicks": 48,
          "midi": 48,
          "name": "C3",
          "ticks": 78480,
          "time": 233.57119500000002,
          "velocity": 0.7559055118110236
        },
        {
          "duration": 0.2857140000000129,
          "durationTicks": 96,
          "midi": 48,
          "name": "C3",
          "ticks": 78528,
          "time": 233.714052,
          "velocity": 0.7559055118110236
        },
        {
          "duration": 0.14285699999999224,
          "durationTicks": 48,
          "midi": 48,
          "name": "C3",
          "ticks": 78624,
          "time": 233.99976600000002,
          "velocity": 0.7559055118110236
        },
        {
          "duration": 0.14285699999999224,
          "durationTicks": 48,
          "midi": 48,
          "name": "C3",
          "ticks": 78672,
          "time": 234.14262300000001,
          "velocity": 0.7559055118110236
        },
        {
          "duration": 0.14285700000002066,
          "durationTicks": 48,
          "midi": 45,
          "name": "A2",
          "ticks": 78720,
          "time": 234.28548,
          "velocity": 0.7559055118110236
        },
        {
          "duration": 0.2857139999999845,
          "durationTicks": 96,
          "midi": 45,
          "name": "A2",
          "ticks": 78768,
          "time": 234.42833700000003,
          "velocity": 0.7559055118110236
        },
        {
          "duration": 0.14285700000002066,
          "durationTicks": 48,
          "midi": 45,
          "name": "A2",
          "ticks": 78864,
          "time": 234.714051,
          "velocity": 0.7559055118110236
        },
        {
          "duration": 0.2857139999999845,
          "durationTicks": 96,
          "midi": 45,
          "name": "A2",
          "ticks": 78912,
          "time": 234.85690800000003,
          "velocity": 0.7559055118110236
        },
        {
          "duration": 0.14285699999999224,
          "durationTicks": 48,
          "midi": 45,
          "name": "A2",
          "ticks": 79008,
          "time": 235.14262200000002,
          "velocity": 0.7559055118110236
        },
        {
          "duration": 0.14285700000002066,
          "durationTicks": 48,
          "midi": 45,
          "name": "A2",
          "ticks": 79056,
          "time": 235.285479,
          "velocity": 0.7559055118110236
        },
        {
          "duration": 0.14285699999999224,
          "durationTicks": 48,
          "midi": 46,
          "name": "A#2",
          "ticks": 79104,
          "time": 235.42833600000003,
          "velocity": 0.7559055118110236
        },
        {
          "duration": 0.2857139999999845,
          "durationTicks": 96,
          "midi": 46,
          "name": "A#2",
          "ticks": 79152,
          "time": 235.57119300000002,
          "velocity": 0.7559055118110236
        },
        {
          "duration": 0.14285700000002066,
          "durationTicks": 48,
          "midi": 46,
          "name": "A#2",
          "ticks": 79248,
          "time": 235.856907,
          "velocity": 0.7559055118110236
        },
        {
          "duration": 0.2857139999999845,
          "durationTicks": 96,
          "midi": 46,
          "name": "A#2",
          "ticks": 79296,
          "time": 235.99976400000003,
          "velocity": 0.7559055118110236
        },
        {
          "duration": 0.14285700000002066,
          "durationTicks": 48,
          "midi": 46,
          "name": "A#2",
          "ticks": 79392,
          "time": 236.285478,
          "velocity": 0.7559055118110236
        },
        {
          "duration": 0.14285699999999224,
          "durationTicks": 48,
          "midi": 46,
          "name": "A#2",
          "ticks": 79440,
          "time": 236.42833500000003,
          "velocity": 0.7559055118110236
        },
        {
          "duration": 0.14285699999999224,
          "durationTicks": 48,
          "midi": 43,
          "name": "G2",
          "ticks": 79488,
          "time": 236.57119200000002,
          "velocity": 0.7559055118110236
        },
        {
          "duration": 0.2857140000000129,
          "durationTicks": 96,
          "midi": 43,
          "name": "G2",
          "ticks": 79536,
          "time": 236.71404900000002,
          "velocity": 0.7559055118110236
        },
        {
          "duration": 0.14285699999999224,
          "durationTicks": 48,
          "midi": 43,
          "name": "G2",
          "ticks": 79632,
          "time": 236.99976300000003,
          "velocity": 0.7559055118110236
        },
        {
          "duration": 0.2857139999999845,
          "durationTicks": 96,
          "midi": 43,
          "name": "G2",
          "ticks": 79680,
          "time": 237.14262000000002,
          "velocity": 0.7559055118110236
        },
        {
          "duration": 0.14285700000002066,
          "durationTicks": 48,
          "midi": 43,
          "name": "G2",
          "ticks": 79776,
          "time": 237.428334,
          "velocity": 0.7559055118110236
        },
        {
          "duration": 0.14285699999999224,
          "durationTicks": 48,
          "midi": 43,
          "name": "G2",
          "ticks": 79824,
          "time": 237.57119100000003,
          "velocity": 0.7559055118110236
        },
        {
          "duration": 0.14285699999999224,
          "durationTicks": 48,
          "midi": 45,
          "name": "A2",
          "ticks": 79872,
          "time": 237.71404800000002,
          "velocity": 0.7559055118110236
        },
        {
          "duration": 0.2857140000000129,
          "durationTicks": 96,
          "midi": 45,
          "name": "A2",
          "ticks": 79920,
          "time": 237.856905,
          "velocity": 0.7559055118110236
        },
        {
          "duration": 0.14285699999999224,
          "durationTicks": 48,
          "midi": 45,
          "name": "A2",
          "ticks": 80016,
          "time": 238.14261900000002,
          "velocity": 0.7559055118110236
        },
        {
          "duration": 0.2857140000000129,
          "durationTicks": 96,
          "midi": 45,
          "name": "A2",
          "ticks": 80064,
          "time": 238.28547600000002,
          "velocity": 0.7559055118110236
        },
        {
          "duration": 0.14285699999999224,
          "durationTicks": 48,
          "midi": 45,
          "name": "A2",
          "ticks": 80160,
          "time": 238.57119000000003,
          "velocity": 0.7559055118110236
        },
        {
          "duration": 0.14285699999999224,
          "durationTicks": 48,
          "midi": 45,
          "name": "A2",
          "ticks": 80208,
          "time": 238.71404700000002,
          "velocity": 0.7559055118110236
        },
        {
          "duration": 0.14285699999999224,
          "durationTicks": 48,
          "midi": 45,
          "name": "A2",
          "ticks": 80256,
          "time": 238.85690400000001,
          "velocity": 0.7559055118110236
        },
        {
          "duration": 0.2857140000000129,
          "durationTicks": 96,
          "midi": 45,
          "name": "A2",
          "ticks": 80304,
          "time": 238.999761,
          "velocity": 0.7559055118110236
        },
        {
          "duration": 0.14285699999999224,
          "durationTicks": 48,
          "midi": 45,
          "name": "A2",
          "ticks": 80400,
          "time": 239.28547500000002,
          "velocity": 0.7559055118110236
        },
        {
          "duration": 0.2857140000000129,
          "durationTicks": 96,
          "midi": 45,
          "name": "A2",
          "ticks": 80448,
          "time": 239.428332,
          "velocity": 0.7559055118110236
        },
        {
          "duration": 0.14285699999999224,
          "durationTicks": 48,
          "midi": 45,
          "name": "A2",
          "ticks": 80544,
          "time": 239.71404600000002,
          "velocity": 0.7559055118110236
        },
        {
          "duration": 0.14285699999999224,
          "durationTicks": 48,
          "midi": 45,
          "name": "A2",
          "ticks": 80592,
          "time": 239.85690300000002,
          "velocity": 0.7559055118110236
        },
        {
          "duration": 0.14285700000002066,
          "durationTicks": 48,
          "midi": 50,
          "name": "D3",
          "ticks": 80640,
          "time": 239.99976,
          "velocity": 0.7559055118110236
        },
        {
          "duration": 0.2857139999999845,
          "durationTicks": 96,
          "midi": 50,
          "name": "D3",
          "ticks": 80688,
          "time": 240.14261700000003,
          "velocity": 0.7559055118110236
        },
        {
          "duration": 0.14285699999999224,
          "durationTicks": 48,
          "midi": 50,
          "name": "D3",
          "ticks": 80784,
          "time": 240.42833100000001,
          "velocity": 0.7559055118110236
        },
        {
          "duration": 0.2857140000000129,
          "durationTicks": 96,
          "midi": 50,
          "name": "D3",
          "ticks": 80832,
          "time": 240.571188,
          "velocity": 0.7559055118110236
        },
        {
          "duration": 0.14285699999999224,
          "durationTicks": 48,
          "midi": 50,
          "name": "D3",
          "ticks": 80928,
          "time": 240.85690200000002,
          "velocity": 0.7559055118110236
        },
        {
          "duration": 0.14285700000002066,
          "durationTicks": 48,
          "midi": 50,
          "name": "D3",
          "ticks": 80976,
          "time": 240.999759,
          "velocity": 0.7559055118110236
        },
        {
          "duration": 0.14285699999999224,
          "durationTicks": 48,
          "midi": 46,
          "name": "A#2",
          "ticks": 81024,
          "time": 241.14261600000003,
          "velocity": 0.7559055118110236
        },
        {
          "duration": 0.2857139999999845,
          "durationTicks": 96,
          "midi": 46,
          "name": "A#2",
          "ticks": 81072,
          "time": 241.28547300000002,
          "velocity": 0.7559055118110236
        },
        {
          "duration": 0.14285700000002066,
          "durationTicks": 48,
          "midi": 46,
          "name": "A#2",
          "ticks": 81168,
          "time": 241.571187,
          "velocity": 0.7559055118110236
        },
        {
          "duration": 0.2857139999999845,
          "durationTicks": 96,
          "midi": 46,
          "name": "A#2",
          "ticks": 81216,
          "time": 241.71404400000003,
          "velocity": 0.7559055118110236
        },
        {
          "duration": 0.14285699999999224,
          "durationTicks": 48,
          "midi": 46,
          "name": "A#2",
          "ticks": 81312,
          "time": 241.999758,
          "velocity": 0.7559055118110236
        },
        {
          "duration": 0.14285700000002066,
          "durationTicks": 48,
          "midi": 46,
          "name": "A#2",
          "ticks": 81360,
          "time": 242.142615,
          "velocity": 0.7559055118110236
        },
        {
          "duration": 0.14285699999999224,
          "durationTicks": 48,
          "midi": 48,
          "name": "C3",
          "ticks": 81408,
          "time": 242.28547200000003,
          "velocity": 0.7559055118110236
        },
        {
          "duration": 0.2857140000000129,
          "durationTicks": 96,
          "midi": 48,
          "name": "C3",
          "ticks": 81456,
          "time": 242.42832900000002,
          "velocity": 0.7559055118110236
        },
        {
          "duration": 0.14285699999999224,
          "durationTicks": 48,
          "midi": 48,
          "name": "C3",
          "ticks": 81552,
          "time": 242.71404300000003,
          "velocity": 0.7559055118110236
        },
        {
          "duration": 0.2857139999999845,
          "durationTicks": 96,
          "midi": 48,
          "name": "C3",
          "ticks": 81600,
          "time": 242.85690000000002,
          "velocity": 0.7559055118110236
        },
        {
          "duration": 0.14285700000002066,
          "durationTicks": 48,
          "midi": 48,
          "name": "C3",
          "ticks": 81696,
          "time": 243.142614,
          "velocity": 0.7559055118110236
        },
        {
          "duration": 0.14285699999999224,
          "durationTicks": 48,
          "midi": 48,
          "name": "C3",
          "ticks": 81744,
          "time": 243.28547100000003,
          "velocity": 0.7559055118110236
        },
        {
          "duration": 0.14285699999999224,
          "durationTicks": 48,
          "midi": 45,
          "name": "A2",
          "ticks": 81792,
          "time": 243.42832800000002,
          "velocity": 0.7559055118110236
        },
        {
          "duration": 0.2857140000000129,
          "durationTicks": 96,
          "midi": 45,
          "name": "A2",
          "ticks": 81840,
          "time": 243.571185,
          "velocity": 0.7559055118110236
        },
        {
          "duration": 0.14285699999999224,
          "durationTicks": 48,
          "midi": 45,
          "name": "A2",
          "ticks": 81936,
          "time": 243.85689900000003,
          "velocity": 0.7559055118110236
        },
        {
          "duration": 0.2857140000000129,
          "durationTicks": 96,
          "midi": 45,
          "name": "A2",
          "ticks": 81984,
          "time": 243.99975600000002,
          "velocity": 0.7559055118110236
        },
        {
          "duration": 0.14285699999999224,
          "durationTicks": 48,
          "midi": 45,
          "name": "A2",
          "ticks": 82080,
          "time": 244.28547000000003,
          "velocity": 0.7559055118110236
        },
        {
          "duration": 0.14285699999999224,
          "durationTicks": 48,
          "midi": 45,
          "name": "A2",
          "ticks": 82128,
          "time": 244.42832700000002,
          "velocity": 0.7559055118110236
        },
        {
          "duration": 0.14285699999999224,
          "durationTicks": 48,
          "midi": 46,
          "name": "A#2",
          "ticks": 82176,
          "time": 244.57118400000002,
          "velocity": 0.7559055118110236
        },
        {
          "duration": 0.2857140000000129,
          "durationTicks": 96,
          "midi": 46,
          "name": "A#2",
          "ticks": 82224,
          "time": 244.714041,
          "velocity": 0.7559055118110236
        },
        {
          "duration": 0.14285699999999224,
          "durationTicks": 48,
          "midi": 46,
          "name": "A#2",
          "ticks": 82320,
          "time": 244.99975500000002,
          "velocity": 0.7559055118110236
        },
        {
          "duration": 0.2857140000000129,
          "durationTicks": 96,
          "midi": 46,
          "name": "A#2",
          "ticks": 82368,
          "time": 245.142612,
          "velocity": 0.7559055118110236
        },
        {
          "duration": 0.14285699999999224,
          "durationTicks": 48,
          "midi": 46,
          "name": "A#2",
          "ticks": 82464,
          "time": 245.42832600000003,
          "velocity": 0.7559055118110236
        },
        {
          "duration": 0.14285699999999224,
          "durationTicks": 48,
          "midi": 46,
          "name": "A#2",
          "ticks": 82512,
          "time": 245.57118300000002,
          "velocity": 0.7559055118110236
        },
        {
          "duration": 0.14285700000002066,
          "durationTicks": 48,
          "midi": 43,
          "name": "G2",
          "ticks": 82560,
          "time": 245.71404,
          "velocity": 0.7559055118110236
        },
        {
          "duration": 0.2857139999999845,
          "durationTicks": 96,
          "midi": 43,
          "name": "G2",
          "ticks": 82608,
          "time": 245.85689700000003,
          "velocity": 0.7559055118110236
        },
        {
          "duration": 0.14285699999999224,
          "durationTicks": 48,
          "midi": 43,
          "name": "G2",
          "ticks": 82704,
          "time": 246.14261100000002,
          "velocity": 0.7559055118110236
        },
        {
          "duration": 0.2857140000000129,
          "durationTicks": 96,
          "midi": 43,
          "name": "G2",
          "ticks": 82752,
          "time": 246.285468,
          "velocity": 0.7559055118110236
        },
        {
          "duration": 0.14285699999999224,
          "durationTicks": 48,
          "midi": 43,
          "name": "G2",
          "ticks": 82848,
          "time": 246.57118200000002,
          "velocity": 0.7559055118110236
        },
        {
          "duration": 0.14285699999999224,
          "durationTicks": 48,
          "midi": 43,
          "name": "G2",
          "ticks": 82896,
          "time": 246.714039,
          "velocity": 0.7559055118110236
        },
        {
          "duration": 0.14285700000002066,
          "durationTicks": 48,
          "midi": 45,
          "name": "A2",
          "ticks": 82944,
          "time": 246.856896,
          "velocity": 0.7559055118110236
        },
        {
          "duration": 0.2857139999999845,
          "durationTicks": 96,
          "midi": 45,
          "name": "A2",
          "ticks": 82992,
          "time": 246.99975300000003,
          "velocity": 0.7559055118110236
        },
        {
          "duration": 0.14285700000002066,
          "durationTicks": 48,
          "midi": 45,
          "name": "A2",
          "ticks": 83088,
          "time": 247.285467,
          "velocity": 0.7559055118110236
        },
        {
          "duration": 0.2857139999999845,
          "durationTicks": 96,
          "midi": 45,
          "name": "A2",
          "ticks": 83136,
          "time": 247.42832400000003,
          "velocity": 0.7559055118110236
        },
        {
          "duration": 0.14285699999999224,
          "durationTicks": 48,
          "midi": 45,
          "name": "A2",
          "ticks": 83232,
          "time": 247.71403800000002,
          "velocity": 0.7559055118110236
        },
        {
          "duration": 0.14285700000002066,
          "durationTicks": 48,
          "midi": 45,
          "name": "A2",
          "ticks": 83280,
          "time": 247.856895,
          "velocity": 0.7559055118110236
        },
        {
          "duration": 0.14285699999999224,
          "durationTicks": 48,
          "midi": 45,
          "name": "A2",
          "ticks": 83328,
          "time": 247.99975200000003,
          "velocity": 0.7559055118110236
        },
        {
          "duration": 0.2857140000000129,
          "durationTicks": 96,
          "midi": 45,
          "name": "A2",
          "ticks": 83376,
          "time": 248.14260900000002,
          "velocity": 0.7559055118110236
        },
        {
          "duration": 0.14285699999999224,
          "durationTicks": 48,
          "midi": 45,
          "name": "A2",
          "ticks": 83472,
          "time": 248.42832300000003,
          "velocity": 0.7559055118110236
        },
        {
          "duration": 0.2857139999999845,
          "durationTicks": 96,
          "midi": 45,
          "name": "A2",
          "ticks": 83520,
          "time": 248.57118000000003,
          "velocity": 0.7559055118110236
        },
        {
          "duration": 0.14285700000002066,
          "durationTicks": 48,
          "midi": 45,
          "name": "A2",
          "ticks": 83616,
          "time": 248.856894,
          "velocity": 0.7559055118110236
        },
        {
          "duration": 0.14285699999999224,
          "durationTicks": 48,
          "midi": 45,
          "name": "A2",
          "ticks": 83664,
          "time": 248.99975100000003,
          "velocity": 0.7559055118110236
        },
        {
          "duration": 0.14285699999999224,
          "durationTicks": 48,
          "midi": 50,
          "name": "D3",
          "ticks": 83712,
          "time": 249.14260800000002,
          "velocity": 0.7559055118110236
        },
        {
          "duration": 0.2857140000000129,
          "durationTicks": 96,
          "midi": 50,
          "name": "D3",
          "ticks": 83760,
          "time": 249.28546500000002,
          "velocity": 0.7559055118110236
        },
        {
          "duration": 0.14285699999999224,
          "durationTicks": 48,
          "midi": 50,
          "name": "D3",
          "ticks": 83856,
          "time": 249.57117900000003,
          "velocity": 0.7559055118110236
        },
        {
          "duration": 0.2857140000000129,
          "durationTicks": 96,
          "midi": 50,
          "name": "D3",
          "ticks": 83904,
          "time": 249.71403600000002,
          "velocity": 0.7559055118110236
        },
        {
          "duration": 0.14285699999999224,
          "durationTicks": 48,
          "midi": 50,
          "name": "D3",
          "ticks": 84000,
          "time": 249.99975000000003,
          "velocity": 0.7559055118110236
        },
        {
          "duration": 0.14285699999999224,
          "durationTicks": 48,
          "midi": 50,
          "name": "D3",
          "ticks": 84048,
          "time": 250.14260700000003,
          "velocity": 0.7559055118110236
        },
        {
          "duration": 0.14285699999999224,
          "durationTicks": 48,
          "midi": 50,
          "name": "D3",
          "ticks": 84096,
          "time": 250.28546400000002,
          "velocity": 0.7559055118110236
        },
        {
          "duration": 0.2857140000000129,
          "durationTicks": 96,
          "midi": 50,
          "name": "D3",
          "ticks": 84144,
          "time": 250.428321,
          "velocity": 0.7559055118110236
        },
        {
          "duration": 0.14285699999999224,
          "durationTicks": 48,
          "midi": 50,
          "name": "D3",
          "ticks": 84240,
          "time": 250.71403500000002,
          "velocity": 0.7559055118110236
        },
        {
          "duration": 0.2857140000000129,
          "durationTicks": 96,
          "midi": 50,
          "name": "D3",
          "ticks": 84288,
          "time": 250.85689200000002,
          "velocity": 0.7559055118110236
        },
        {
          "duration": 0.14285699999999224,
          "durationTicks": 48,
          "midi": 50,
          "name": "D3",
          "ticks": 84384,
          "time": 251.14260600000003,
          "velocity": 0.7559055118110236
        },
        {
          "duration": 0.14285699999999224,
          "durationTicks": 48,
          "midi": 50,
          "name": "D3",
          "ticks": 84432,
          "time": 251.28546300000002,
          "velocity": 0.7559055118110236
        },
        {
          "duration": 0.14285700000002066,
          "durationTicks": 48,
          "midi": 46,
          "name": "A#2",
          "ticks": 84480,
          "time": 251.42832,
          "velocity": 0.7559055118110236
        },
        {
          "duration": 0.2857139999999845,
          "durationTicks": 96,
          "midi": 46,
          "name": "A#2",
          "ticks": 84528,
          "time": 251.57117700000003,
          "velocity": 0.7559055118110236
        },
        {
          "duration": 0.14285699999999224,
          "durationTicks": 48,
          "midi": 46,
          "name": "A#2",
          "ticks": 84624,
          "time": 251.85689100000002,
          "velocity": 0.7559055118110236
        },
        {
          "duration": 0.2857140000000129,
          "durationTicks": 96,
          "midi": 46,
          "name": "A#2",
          "ticks": 84672,
          "time": 251.999748,
          "velocity": 0.7559055118110236
        },
        {
          "duration": 0.14285699999999224,
          "durationTicks": 48,
          "midi": 46,
          "name": "A#2",
          "ticks": 84768,
          "time": 252.28546200000002,
          "velocity": 0.7559055118110236
        },
        {
          "duration": 0.14285699999999224,
          "durationTicks": 48,
          "midi": 46,
          "name": "A#2",
          "ticks": 84816,
          "time": 252.42831900000002,
          "velocity": 0.7559055118110236
        },
        {
          "duration": 0.14285700000002066,
          "durationTicks": 48,
          "midi": 46,
          "name": "A#2",
          "ticks": 84864,
          "time": 252.571176,
          "velocity": 0.7559055118110236
        },
        {
          "duration": 0.2857139999999845,
          "durationTicks": 96,
          "midi": 46,
          "name": "A#2",
          "ticks": 84912,
          "time": 252.71403300000003,
          "velocity": 0.7559055118110236
        },
        {
          "duration": 0.14285700000002066,
          "durationTicks": 48,
          "midi": 46,
          "name": "A#2",
          "ticks": 85008,
          "time": 252.999747,
          "velocity": 0.7559055118110236
        },
        {
          "duration": 0.2857139999999845,
          "durationTicks": 96,
          "midi": 46,
          "name": "A#2",
          "ticks": 85056,
          "time": 253.14260400000003,
          "velocity": 0.7559055118110236
        },
        {
          "duration": 0.14285699999999224,
          "durationTicks": 48,
          "midi": 46,
          "name": "A#2",
          "ticks": 85152,
          "time": 253.42831800000002,
          "velocity": 0.7559055118110236
        },
        {
          "duration": 0.14285700000002066,
          "durationTicks": 48,
          "midi": 46,
          "name": "A#2",
          "ticks": 85200,
          "time": 253.571175,
          "velocity": 0.7559055118110236
        },
        {
          "duration": 0.14285699999999224,
          "durationTicks": 48,
          "midi": 48,
          "name": "C3",
          "ticks": 85248,
          "time": 253.71403200000003,
          "velocity": 0.7559055118110236
        },
        {
          "duration": 0.2857139999999845,
          "durationTicks": 96,
          "midi": 48,
          "name": "C3",
          "ticks": 85296,
          "time": 253.85688900000002,
          "velocity": 0.7559055118110236
        },
        {
          "duration": 0.14285700000002066,
          "durationTicks": 48,
          "midi": 48,
          "name": "C3",
          "ticks": 85392,
          "time": 254.142603,
          "velocity": 0.7559055118110236
        },
        {
          "duration": 0.2857139999999845,
          "durationTicks": 96,
          "midi": 48,
          "name": "C3",
          "ticks": 85440,
          "time": 254.28546000000003,
          "velocity": 0.7559055118110236
        },
        {
          "duration": 0.14285700000002066,
          "durationTicks": 48,
          "midi": 48,
          "name": "C3",
          "ticks": 85536,
          "time": 254.571174,
          "velocity": 0.7559055118110236
        },
        {
          "duration": 0.14285699999999224,
          "durationTicks": 48,
          "midi": 48,
          "name": "C3",
          "ticks": 85584,
          "time": 254.71403100000003,
          "velocity": 0.7559055118110236
        },
        {
          "duration": 0.14285699999999224,
          "durationTicks": 48,
          "midi": 48,
          "name": "C3",
          "ticks": 85632,
          "time": 254.85688800000003,
          "velocity": 0.7559055118110236
        },
        {
          "duration": 0.2857140000000129,
          "durationTicks": 96,
          "midi": 48,
          "name": "C3",
          "ticks": 85680,
          "time": 254.99974500000002,
          "velocity": 0.7559055118110236
        },
        {
          "duration": 0.14285699999999224,
          "durationTicks": 48,
          "midi": 48,
          "name": "C3",
          "ticks": 85776,
          "time": 255.28545900000003,
          "velocity": 0.7559055118110236
        },
        {
          "duration": 0.2857139999999845,
          "durationTicks": 96,
          "midi": 48,
          "name": "C3",
          "ticks": 85824,
          "time": 255.42831600000002,
          "velocity": 0.7559055118110236
        },
        {
          "duration": 0.14285700000002066,
          "durationTicks": 48,
          "midi": 48,
          "name": "C3",
          "ticks": 85920,
          "time": 255.71403,
          "velocity": 0.7559055118110236
        },
        {
          "duration": 0.14285699999999224,
          "durationTicks": 48,
          "midi": 48,
          "name": "C3",
          "ticks": 85968,
          "time": 255.85688700000003,
          "velocity": 0.7559055118110236
        },
        {
          "duration": 0.14285699999999224,
          "durationTicks": 48,
          "midi": 45,
          "name": "A2",
          "ticks": 86016,
          "time": 255.99974400000002,
          "velocity": 0.7559055118110236
        },
        {
          "duration": 0.2857139999999845,
          "durationTicks": 96,
          "midi": 45,
          "name": "A2",
          "ticks": 86064,
          "time": 256.142601,
          "velocity": 0.7559055118110236
        },
        {
          "duration": 0.14285700000004908,
          "durationTicks": 48,
          "midi": 45,
          "name": "A2",
          "ticks": 86160,
          "time": 256.428315,
          "velocity": 0.7559055118110236
        },
        {
          "duration": 0.2857139999999845,
          "durationTicks": 96,
          "midi": 45,
          "name": "A2",
          "ticks": 86208,
          "time": 256.57117200000005,
          "velocity": 0.7559055118110236
        },
        {
          "duration": 0.14285699999999224,
          "durationTicks": 48,
          "midi": 45,
          "name": "A2",
          "ticks": 86304,
          "time": 256.85688600000003,
          "velocity": 0.7559055118110236
        },
        {
          "duration": 0.14285699999999224,
          "durationTicks": 48,
          "midi": 45,
          "name": "A2",
          "ticks": 86352,
          "time": 256.999743,
          "velocity": 0.7559055118110236
        },
        {
          "duration": 0.14285699999999224,
          "durationTicks": 48,
          "midi": 45,
          "name": "A2",
          "ticks": 86400,
          "time": 257.1426,
          "velocity": 0.7559055118110236
        },
        {
          "duration": 0.2857140000000413,
          "durationTicks": 96,
          "midi": 45,
          "name": "A2",
          "ticks": 86448,
          "time": 257.285457,
          "velocity": 0.7559055118110236
        },
        {
          "duration": 0.14285699999999224,
          "durationTicks": 48,
          "midi": 45,
          "name": "A2",
          "ticks": 86544,
          "time": 257.57117100000005,
          "velocity": 0.7559055118110236
        },
        {
          "duration": 0.2857139999999845,
          "durationTicks": 96,
          "midi": 45,
          "name": "A2",
          "ticks": 86592,
          "time": 257.71402800000004,
          "velocity": 0.7559055118110236
        },
        {
          "duration": 0.14285699999999224,
          "durationTicks": 48,
          "midi": 45,
          "name": "A2",
          "ticks": 86688,
          "time": 257.999742,
          "velocity": 0.7559055118110236
        },
        {
          "duration": 0.14285699999999224,
          "durationTicks": 48,
          "midi": 45,
          "name": "A2",
          "ticks": 86736,
          "time": 258.142599,
          "velocity": 0.7559055118110236
        },
        {
          "duration": 0.14285699999999224,
          "durationTicks": 48,
          "midi": 50,
          "name": "D3",
          "ticks": 86784,
          "time": 258.285456,
          "velocity": 0.7559055118110236
        },
        {
          "duration": 0.2857140000000413,
          "durationTicks": 96,
          "midi": 50,
          "name": "D3",
          "ticks": 86832,
          "time": 258.428313,
          "velocity": 0.7559055118110236
        },
        {
          "duration": 0.14285699999999224,
          "durationTicks": 48,
          "midi": 50,
          "name": "D3",
          "ticks": 86928,
          "time": 258.71402700000004,
          "velocity": 0.7559055118110236
        },
        {
          "duration": 0.2857139999999845,
          "durationTicks": 96,
          "midi": 50,
          "name": "D3",
          "ticks": 86976,
          "time": 258.85688400000004,
          "velocity": 0.7559055118110236
        },
        {
          "duration": 0.14285699999999224,
          "durationTicks": 48,
          "midi": 50,
          "name": "D3",
          "ticks": 87072,
          "time": 259.142598,
          "velocity": 0.7559055118110236
        },
        {
          "duration": 0.14285699999999224,
          "durationTicks": 48,
          "midi": 50,
          "name": "D3",
          "ticks": 87120,
          "time": 259.285455,
          "velocity": 0.7559055118110236
        },
        {
          "duration": 0.14285699999999224,
          "durationTicks": 48,
          "midi": 50,
          "name": "D3",
          "ticks": 87168,
          "time": 259.428312,
          "velocity": 0.7559055118110236
        },
        {
          "duration": 0.2857140000000413,
          "durationTicks": 96,
          "midi": 50,
          "name": "D3",
          "ticks": 87216,
          "time": 259.571169,
          "velocity": 0.7559055118110236
        },
        {
          "duration": 0.14285699999999224,
          "durationTicks": 48,
          "midi": 50,
          "name": "D3",
          "ticks": 87312,
          "time": 259.85688300000004,
          "velocity": 0.7559055118110236
        },
        {
          "duration": 0.2857139999999845,
          "durationTicks": 96,
          "midi": 50,
          "name": "D3",
          "ticks": 87360,
          "time": 259.99974000000003,
          "velocity": 0.7559055118110236
        },
        {
          "duration": 0.14285699999999224,
          "durationTicks": 48,
          "midi": 50,
          "name": "D3",
          "ticks": 87456,
          "time": 260.285454,
          "velocity": 0.7559055118110236
        },
        {
          "duration": 0.14285699999999224,
          "durationTicks": 48,
          "midi": 50,
          "name": "D3",
          "ticks": 87504,
          "time": 260.428311,
          "velocity": 0.7559055118110236
        },
        {
          "duration": 0.14285700000004908,
          "durationTicks": 48,
          "midi": 46,
          "name": "A#2",
          "ticks": 87552,
          "time": 260.571168,
          "velocity": 0.7559055118110236
        },
        {
          "duration": 0.2857139999999845,
          "durationTicks": 96,
          "midi": 46,
          "name": "A#2",
          "ticks": 87600,
          "time": 260.71402500000005,
          "velocity": 0.7559055118110236
        },
        {
          "duration": 0.14285699999999224,
          "durationTicks": 48,
          "midi": 46,
          "name": "A#2",
          "ticks": 87696,
          "time": 260.99973900000003,
          "velocity": 0.7559055118110236
        },
        {
          "duration": 0.2857139999999845,
          "durationTicks": 96,
          "midi": 46,
          "name": "A#2",
          "ticks": 87744,
          "time": 261.142596,
          "velocity": 0.7559055118110236
        },
        {
          "duration": 0.14285699999999224,
          "durationTicks": 48,
          "midi": 46,
          "name": "A#2",
          "ticks": 87840,
          "time": 261.42831,
          "velocity": 0.7559055118110236
        },
        {
          "duration": 0.14285699999999224,
          "durationTicks": 48,
          "midi": 46,
          "name": "A#2",
          "ticks": 87888,
          "time": 261.571167,
          "velocity": 0.7559055118110236
        },
        {
          "duration": 0.14285700000004908,
          "durationTicks": 48,
          "midi": 46,
          "name": "A#2",
          "ticks": 87936,
          "time": 261.714024,
          "velocity": 0.7559055118110236
        },
        {
          "duration": 0.2857139999999845,
          "durationTicks": 96,
          "midi": 46,
          "name": "A#2",
          "ticks": 87984,
          "time": 261.85688100000004,
          "velocity": 0.7559055118110236
        },
        {
          "duration": 0.14285699999999224,
          "durationTicks": 48,
          "midi": 46,
          "name": "A#2",
          "ticks": 88080,
          "time": 262.14259500000003,
          "velocity": 0.7559055118110236
        },
        {
          "duration": 0.2857139999999845,
          "durationTicks": 96,
          "midi": 46,
          "name": "A#2",
          "ticks": 88128,
          "time": 262.285452,
          "velocity": 0.7559055118110236
        },
        {
          "duration": 0.14285699999999224,
          "durationTicks": 48,
          "midi": 46,
          "name": "A#2",
          "ticks": 88224,
          "time": 262.571166,
          "velocity": 0.7559055118110236
        },
        {
          "duration": 0.14285700000004908,
          "durationTicks": 48,
          "midi": 46,
          "name": "A#2",
          "ticks": 88272,
          "time": 262.714023,
          "velocity": 0.7559055118110236
        },
        {
          "duration": 0.14285699999999224,
          "durationTicks": 48,
          "midi": 48,
          "name": "C3",
          "ticks": 88320,
          "time": 262.85688000000005,
          "velocity": 0.7559055118110236
        },
        {
          "duration": 0.2857139999999845,
          "durationTicks": 96,
          "midi": 48,
          "name": "C3",
          "ticks": 88368,
          "time": 262.99973700000004,
          "velocity": 0.7559055118110236
        },
        {
          "duration": 0.14285699999999224,
          "durationTicks": 48,
          "midi": 48,
          "name": "C3",
          "ticks": 88464,
          "time": 263.285451,
          "velocity": 0.7559055118110236
        },
        {
          "duration": 0.2857139999999845,
          "durationTicks": 96,
          "midi": 48,
          "name": "C3",
          "ticks": 88512,
          "time": 263.428308,
          "velocity": 0.7559055118110236
        },
        {
          "duration": 0.14285700000004908,
          "durationTicks": 48,
          "midi": 48,
          "name": "C3",
          "ticks": 88608,
          "time": 263.714022,
          "velocity": 0.7559055118110236
        },
        {
          "duration": 0.14285699999999224,
          "durationTicks": 48,
          "midi": 48,
          "name": "C3",
          "ticks": 88656,
          "time": 263.85687900000005,
          "velocity": 0.7559055118110236
        },
        {
          "duration": 0.14285699999999224,
          "durationTicks": 48,
          "midi": 48,
          "name": "C3",
          "ticks": 88704,
          "time": 263.99973600000004,
          "velocity": 0.7559055118110236
        },
        {
          "duration": 0.2857139999999845,
          "durationTicks": 96,
          "midi": 48,
          "name": "C3",
          "ticks": 88752,
          "time": 264.14259300000003,
          "velocity": 0.7559055118110236
        },
        {
          "duration": 0.14285699999999224,
          "durationTicks": 48,
          "midi": 48,
          "name": "C3",
          "ticks": 88848,
          "time": 264.428307,
          "velocity": 0.7559055118110236
        },
        {
          "duration": 0.2857139999999845,
          "durationTicks": 96,
          "midi": 48,
          "name": "C3",
          "ticks": 88896,
          "time": 264.571164,
          "velocity": 0.7559055118110236
        },
        {
          "duration": 0.14285700000004908,
          "durationTicks": 48,
          "midi": 48,
          "name": "C3",
          "ticks": 88992,
          "time": 264.856878,
          "velocity": 0.7559055118110236
        },
        {
          "duration": 0.14285699999999224,
          "durationTicks": 48,
          "midi": 48,
          "name": "C3",
          "ticks": 89040,
          "time": 264.99973500000004,
          "velocity": 0.7559055118110236
        },
        {
          "duration": 0.14285699999999224,
          "durationTicks": 48,
          "midi": 45,
          "name": "A2",
          "ticks": 89088,
          "time": 265.14259200000004,
          "velocity": 0.7559055118110236
        },
        {
          "duration": 0.2857139999999845,
          "durationTicks": 96,
          "midi": 45,
          "name": "A2",
          "ticks": 89136,
          "time": 265.285449,
          "velocity": 0.7559055118110236
        },
        {
          "duration": 0.14285699999999224,
          "durationTicks": 48,
          "midi": 45,
          "name": "A2",
          "ticks": 89232,
          "time": 265.571163,
          "velocity": 0.7559055118110236
        },
        {
          "duration": 0.2857140000000413,
          "durationTicks": 96,
          "midi": 45,
          "name": "A2",
          "ticks": 89280,
          "time": 265.71402,
          "velocity": 0.7559055118110236
        },
        {
          "duration": 0.14285699999999224,
          "durationTicks": 48,
          "midi": 45,
          "name": "A2",
          "ticks": 89376,
          "time": 265.99973400000005,
          "velocity": 0.7559055118110236
        },
        {
          "duration": 0.14285699999999224,
          "durationTicks": 48,
          "midi": 45,
          "name": "A2",
          "ticks": 89424,
          "time": 266.14259100000004,
          "velocity": 0.7559055118110236
        },
        {
          "duration": 0.14285699999999224,
          "durationTicks": 48,
          "midi": 45,
          "name": "A2",
          "ticks": 89472,
          "time": 266.28544800000003,
          "velocity": 0.7559055118110236
        },
        {
          "duration": 0.2857139999999845,
          "durationTicks": 96,
          "midi": 45,
          "name": "A2",
          "ticks": 89520,
          "time": 266.428305,
          "velocity": 0.7559055118110236
        },
        {
          "duration": 0.14285699999999224,
          "durationTicks": 48,
          "midi": 45,
          "name": "A2",
          "ticks": 89616,
          "time": 266.714019,
          "velocity": 0.7559055118110236
        },
        {
          "duration": 0.2857140000000413,
          "durationTicks": 96,
          "midi": 45,
          "name": "A2",
          "ticks": 89664,
          "time": 266.856876,
          "velocity": 0.7559055118110236
        },
        {
          "duration": 0.14285699999999224,
          "durationTicks": 48,
          "midi": 45,
          "name": "A2",
          "ticks": 89760,
          "time": 267.14259000000004,
          "velocity": 0.7559055118110236
        },
        {
          "duration": 0.14285699999999224,
          "durationTicks": 48,
          "midi": 45,
          "name": "A2",
          "ticks": 89808,
          "time": 267.28544700000003,
          "velocity": 0.7559055118110236
        },
        {
          "duration": 0.14285699999999224,
          "durationTicks": 48,
          "midi": 50,
          "name": "D3",
          "ticks": 89856,
          "time": 267.428304,
          "velocity": 0.7559055118110236
        },
        {
          "duration": 0.2857139999999845,
          "durationTicks": 96,
          "midi": 50,
          "name": "D3",
          "ticks": 89904,
          "time": 267.571161,
          "velocity": 0.7559055118110236
        },
        {
          "duration": 0.14285699999999224,
          "durationTicks": 48,
          "midi": 50,
          "name": "D3",
          "ticks": 90000,
          "time": 267.856875,
          "velocity": 0.7559055118110236
        },
        {
          "duration": 0.2857140000000413,
          "durationTicks": 96,
          "midi": 50,
          "name": "D3",
          "ticks": 90048,
          "time": 267.999732,
          "velocity": 0.7559055118110236
        },
        {
          "duration": 0.14285699999999224,
          "durationTicks": 48,
          "midi": 50,
          "name": "D3",
          "ticks": 90144,
          "time": 268.28544600000004,
          "velocity": 0.7559055118110236
        },
        {
          "duration": 0.14285699999999224,
          "durationTicks": 48,
          "midi": 50,
          "name": "D3",
          "ticks": 90192,
          "time": 268.428303,
          "velocity": 0.7559055118110236
        },
        {
          "duration": 0.14285699999999224,
          "durationTicks": 48,
          "midi": 50,
          "name": "D3",
          "ticks": 90240,
          "time": 268.57116,
          "velocity": 0.7559055118110236
        },
        {
          "duration": 0.2857139999999845,
          "durationTicks": 96,
          "midi": 50,
          "name": "D3",
          "ticks": 90288,
          "time": 268.714017,
          "velocity": 0.7559055118110236
        },
        {
          "duration": 0.14285700000004908,
          "durationTicks": 48,
          "midi": 50,
          "name": "D3",
          "ticks": 90384,
          "time": 268.999731,
          "velocity": 0.7559055118110236
        },
        {
          "duration": 0.2857139999999845,
          "durationTicks": 96,
          "midi": 50,
          "name": "D3",
          "ticks": 90432,
          "time": 269.14258800000005,
          "velocity": 0.7559055118110236
        },
        {
          "duration": 0.14285699999999224,
          "durationTicks": 48,
          "midi": 50,
          "name": "D3",
          "ticks": 90528,
          "time": 269.42830200000003,
          "velocity": 0.7559055118110236
        },
        {
          "duration": 0.14285699999999224,
          "durationTicks": 48,
          "midi": 50,
          "name": "D3",
          "ticks": 90576,
          "time": 269.571159,
          "velocity": 0.7559055118110236
        },
        {
          "duration": 0.14285699999999224,
          "durationTicks": 48,
          "midi": 46,
          "name": "A#2",
          "ticks": 90624,
          "time": 269.714016,
          "velocity": 0.7559055118110236
        },
        {
          "duration": 0.2857140000000413,
          "durationTicks": 96,
          "midi": 46,
          "name": "A#2",
          "ticks": 90672,
          "time": 269.856873,
          "velocity": 0.7559055118110236
        },
        {
          "duration": 0.14285699999999224,
          "durationTicks": 48,
          "midi": 46,
          "name": "A#2",
          "ticks": 90768,
          "time": 270.14258700000005,
          "velocity": 0.7559055118110236
        },
        {
          "duration": 0.2857139999999845,
          "durationTicks": 96,
          "midi": 46,
          "name": "A#2",
          "ticks": 90816,
          "time": 270.28544400000004,
          "velocity": 0.7559055118110236
        },
        {
          "duration": 0.14285699999999224,
          "durationTicks": 48,
          "midi": 46,
          "name": "A#2",
          "ticks": 90912,
          "time": 270.571158,
          "velocity": 0.7559055118110236
        },
        {
          "duration": 0.14285699999999224,
          "durationTicks": 48,
          "midi": 46,
          "name": "A#2",
          "ticks": 90960,
          "time": 270.714015,
          "velocity": 0.7559055118110236
        },
        {
          "duration": 0.14285699999999224,
          "durationTicks": 48,
          "midi": 46,
          "name": "A#2",
          "ticks": 91008,
          "time": 270.856872,
          "velocity": 0.7559055118110236
        },
        {
          "duration": 0.2857140000000413,
          "durationTicks": 96,
          "midi": 46,
          "name": "A#2",
          "ticks": 91056,
          "time": 270.999729,
          "velocity": 0.7559055118110236
        },
        {
          "duration": 0.14285699999999224,
          "durationTicks": 48,
          "midi": 46,
          "name": "A#2",
          "ticks": 91152,
          "time": 271.28544300000004,
          "velocity": 0.7559055118110236
        },
        {
          "duration": 0.2857139999999845,
          "durationTicks": 96,
          "midi": 46,
          "name": "A#2",
          "ticks": 91200,
          "time": 271.42830000000004,
          "velocity": 0.7559055118110236
        },
        {
          "duration": 0.14285699999999224,
          "durationTicks": 48,
          "midi": 46,
          "name": "A#2",
          "ticks": 91296,
          "time": 271.714014,
          "velocity": 0.7559055118110236
        },
        {
          "duration": 0.14285699999999224,
          "durationTicks": 48,
          "midi": 46,
          "name": "A#2",
          "ticks": 91344,
          "time": 271.856871,
          "velocity": 0.7559055118110236
        },
        {
          "duration": 0.14285699999999224,
          "durationTicks": 48,
          "midi": 48,
          "name": "C3",
          "ticks": 91392,
          "time": 271.999728,
          "velocity": 0.7559055118110236
        },
        {
          "duration": 0.2857140000000413,
          "durationTicks": 96,
          "midi": 48,
          "name": "C3",
          "ticks": 91440,
          "time": 272.142585,
          "velocity": 0.7559055118110236
        },
        {
          "duration": 0.14285699999999224,
          "durationTicks": 48,
          "midi": 48,
          "name": "C3",
          "ticks": 91536,
          "time": 272.42829900000004,
          "velocity": 0.7559055118110236
        },
        {
          "duration": 0.2857139999999845,
          "durationTicks": 96,
          "midi": 48,
          "name": "C3",
          "ticks": 91584,
          "time": 272.57115600000003,
          "velocity": 0.7559055118110236
        },
        {
          "duration": 0.14285699999999224,
          "durationTicks": 48,
          "midi": 48,
          "name": "C3",
          "ticks": 91680,
          "time": 272.85687,
          "velocity": 0.7559055118110236
        },
        {
          "duration": 0.14285699999999224,
          "durationTicks": 48,
          "midi": 48,
          "name": "C3",
          "ticks": 91728,
          "time": 272.999727,
          "velocity": 0.7559055118110236
        },
        {
          "duration": 0.14285700000004908,
          "durationTicks": 48,
          "midi": 48,
          "name": "C3",
          "ticks": 91776,
          "time": 273.142584,
          "velocity": 0.7559055118110236
        },
        {
          "duration": 0.2857139999999845,
          "durationTicks": 96,
          "midi": 48,
          "name": "C3",
          "ticks": 91824,
          "time": 273.28544100000005,
          "velocity": 0.7559055118110236
        },
        {
          "duration": 0.14285699999999224,
          "durationTicks": 48,
          "midi": 48,
          "name": "C3",
          "ticks": 91920,
          "time": 273.57115500000003,
          "velocity": 0.7559055118110236
        },
        {
          "duration": 0.2857139999999845,
          "durationTicks": 96,
          "midi": 48,
          "name": "C3",
          "ticks": 91968,
          "time": 273.714012,
          "velocity": 0.7559055118110236
        },
        {
          "duration": 0.14285699999999224,
          "durationTicks": 48,
          "midi": 48,
          "name": "C3",
          "ticks": 92064,
          "time": 273.999726,
          "velocity": 0.7559055118110236
        },
        {
          "duration": 0.14285699999999224,
          "durationTicks": 48,
          "midi": 48,
          "name": "C3",
          "ticks": 92112,
          "time": 274.142583,
          "velocity": 0.7559055118110236
        },
        {
          "duration": 0.14285700000004908,
          "durationTicks": 48,
          "midi": 45,
          "name": "A2",
          "ticks": 92160,
          "time": 274.28544,
          "velocity": 0.7559055118110236
        },
        {
          "duration": 0.2857139999999845,
          "durationTicks": 96,
          "midi": 45,
          "name": "A2",
          "ticks": 92208,
          "time": 274.42829700000004,
          "velocity": 0.7559055118110236
        },
        {
          "duration": 0.14285699999999224,
          "durationTicks": 48,
          "midi": 45,
          "name": "A2",
          "ticks": 92304,
          "time": 274.714011,
          "velocity": 0.7559055118110236
        },
        {
          "duration": 0.2857139999999845,
          "durationTicks": 96,
          "midi": 45,
          "name": "A2",
          "ticks": 92352,
          "time": 274.856868,
          "velocity": 0.7559055118110236
        },
        {
          "duration": 0.14285699999999224,
          "durationTicks": 48,
          "midi": 45,
          "name": "A2",
          "ticks": 92448,
          "time": 275.142582,
          "velocity": 0.7559055118110236
        },
        {
          "duration": 0.14285700000004908,
          "durationTicks": 48,
          "midi": 45,
          "name": "A2",
          "ticks": 92496,
          "time": 275.285439,
          "velocity": 0.7559055118110236
        },
        {
          "duration": 0.14285699999999224,
          "durationTicks": 48,
          "midi": 45,
          "name": "A2",
          "ticks": 92544,
          "time": 275.42829600000005,
          "velocity": 0.7559055118110236
        },
        {
          "duration": 0.2857139999999845,
          "durationTicks": 96,
          "midi": 45,
          "name": "A2",
          "ticks": 92592,
          "time": 275.57115300000004,
          "velocity": 0.7559055118110236
        },
        {
          "duration": 0.14285699999999224,
          "durationTicks": 48,
          "midi": 45,
          "name": "A2",
          "ticks": 92688,
          "time": 275.856867,
          "velocity": 0.7559055118110236
        },
        {
          "duration": 0.2857139999999845,
          "durationTicks": 96,
          "midi": 45,
          "name": "A2",
          "ticks": 92736,
          "time": 275.999724,
          "velocity": 0.7559055118110236
        },
        {
          "duration": 0.14285700000004908,
          "durationTicks": 48,
          "midi": 45,
          "name": "A2",
          "ticks": 92832,
          "time": 276.285438,
          "velocity": 0.7559055118110236
        },
        {
          "duration": 0.14285699999999224,
          "durationTicks": 48,
          "midi": 45,
          "name": "A2",
          "ticks": 92880,
          "time": 276.42829500000005,
          "velocity": 0.7559055118110236
        },
        {
          "duration": 0.14285699999999224,
          "durationTicks": 48,
          "midi": 50,
          "name": "D3",
          "ticks": 92928,
          "time": 276.57115200000004,
          "velocity": 0.7559055118110236
        },
        {
          "duration": 0.2857139999999845,
          "durationTicks": 96,
          "midi": 50,
          "name": "D3",
          "ticks": 92976,
          "time": 276.71400900000003,
          "velocity": 0.7559055118110236
        },
        {
          "duration": 0.14285699999999224,
          "durationTicks": 48,
          "midi": 50,
          "name": "D3",
          "ticks": 93072,
          "time": 276.999723,
          "velocity": 0.7559055118110236
        },
        {
          "duration": 0.2857140000000413,
          "durationTicks": 96,
          "midi": 50,
          "name": "D3",
          "ticks": 93120,
          "time": 277.14258,
          "velocity": 0.7559055118110236
        },
        {
          "duration": 0.14285699999999224,
          "durationTicks": 48,
          "midi": 50,
          "name": "D3",
          "ticks": 93216,
          "time": 277.42829400000005,
          "velocity": 0.7559055118110236
        },
        {
          "duration": 0.14285699999999224,
          "durationTicks": 48,
          "midi": 50,
          "name": "D3",
          "ticks": 93264,
          "time": 277.57115100000004,
          "velocity": 0.7559055118110236
        },
        {
          "duration": 0.14285699999999224,
          "durationTicks": 48,
          "midi": 50,
          "name": "D3",
          "ticks": 93312,
          "time": 277.71400800000004,
          "velocity": 0.7559055118110236
        },
        {
          "duration": 0.2857139999999845,
          "durationTicks": 96,
          "midi": 50,
          "name": "D3",
          "ticks": 93360,
          "time": 277.856865,
          "velocity": 0.7559055118110236
        },
        {
          "duration": 0.14285699999999224,
          "durationTicks": 48,
          "midi": 50,
          "name": "D3",
          "ticks": 93456,
          "time": 278.142579,
          "velocity": 0.7559055118110236
        },
        {
          "duration": 0.2857140000000413,
          "durationTicks": 96,
          "midi": 50,
          "name": "D3",
          "ticks": 93504,
          "time": 278.285436,
          "velocity": 0.7559055118110236
        },
        {
          "duration": 0.14285699999999224,
          "durationTicks": 48,
          "midi": 50,
          "name": "D3",
          "ticks": 93600,
          "time": 278.57115000000005,
          "velocity": 0.7559055118110236
        },
        {
          "duration": 0.14285699999999224,
          "durationTicks": 48,
          "midi": 50,
          "name": "D3",
          "ticks": 93648,
          "time": 278.71400700000004,
          "velocity": 0.7559055118110236
        },
        {
          "duration": 0.14285699999999224,
          "durationTicks": 48,
          "midi": 46,
          "name": "A#2",
          "ticks": 93696,
          "time": 278.85686400000003,
          "velocity": 0.7559055118110236
        },
        {
          "duration": 0.2857139999999845,
          "durationTicks": 96,
          "midi": 46,
          "name": "A#2",
          "ticks": 93744,
          "time": 278.999721,
          "velocity": 0.7559055118110236
        },
        {
          "duration": 0.14285699999999224,
          "durationTicks": 48,
          "midi": 46,
          "name": "A#2",
          "ticks": 93840,
          "time": 279.285435,
          "velocity": 0.7559055118110236
        },
        {
          "duration": 0.2857140000000413,
          "durationTicks": 96,
          "midi": 46,
          "name": "A#2",
          "ticks": 93888,
          "time": 279.428292,
          "velocity": 0.7559055118110236
        },
        {
          "duration": 0.14285699999999224,
          "durationTicks": 48,
          "midi": 46,
          "name": "A#2",
          "ticks": 93984,
          "time": 279.71400600000004,
          "velocity": 0.7559055118110236
        },
        {
          "duration": 0.14285699999999224,
          "durationTicks": 48,
          "midi": 46,
          "name": "A#2",
          "ticks": 94032,
          "time": 279.85686300000003,
          "velocity": 0.7559055118110236
        },
        {
          "duration": 0.14285699999999224,
          "durationTicks": 48,
          "midi": 46,
          "name": "A#2",
          "ticks": 94080,
          "time": 279.99972,
          "velocity": 0.7559055118110236
        },
        {
          "duration": 0.2857139999999845,
          "durationTicks": 96,
          "midi": 46,
          "name": "A#2",
          "ticks": 94128,
          "time": 280.142577,
          "velocity": 0.7559055118110236
        },
        {
          "duration": 0.14285700000004908,
          "durationTicks": 48,
          "midi": 46,
          "name": "A#2",
          "ticks": 94224,
          "time": 280.428291,
          "velocity": 0.7559055118110236
        },
        {
          "duration": 0.2857139999999845,
          "durationTicks": 96,
          "midi": 46,
          "name": "A#2",
          "ticks": 94272,
          "time": 280.57114800000005,
          "velocity": 0.7559055118110236
        },
        {
          "duration": 0.14285699999999224,
          "durationTicks": 48,
          "midi": 46,
          "name": "A#2",
          "ticks": 94368,
          "time": 280.85686200000004,
          "velocity": 0.7559055118110236
        },
        {
          "duration": 0.14285699999999224,
          "durationTicks": 48,
          "midi": 46,
          "name": "A#2",
          "ticks": 94416,
          "time": 280.999719,
          "velocity": 0.7559055118110236
        },
        {
          "duration": 0.14285699999999224,
          "durationTicks": 48,
          "midi": 48,
          "name": "C3",
          "ticks": 94464,
          "time": 281.142576,
          "velocity": 0.7559055118110236
        },
        {
          "duration": 0.2857139999999845,
          "durationTicks": 96,
          "midi": 48,
          "name": "C3",
          "ticks": 94512,
          "time": 281.285433,
          "velocity": 0.7559055118110236
        },
        {
          "duration": 0.14285700000004908,
          "durationTicks": 48,
          "midi": 48,
          "name": "C3",
          "ticks": 94608,
          "time": 281.571147,
          "velocity": 0.7559055118110236
        },
        {
          "duration": 0.2857139999999845,
          "durationTicks": 96,
          "midi": 48,
          "name": "C3",
          "ticks": 94656,
          "time": 281.71400400000005,
          "velocity": 0.7559055118110236
        },
        {
          "duration": 0.14285699999999224,
          "durationTicks": 48,
          "midi": 48,
          "name": "C3",
          "ticks": 94752,
          "time": 281.99971800000003,
          "velocity": 0.7559055118110236
        },
        {
          "duration": 0.14285699999999224,
          "durationTicks": 48,
          "midi": 48,
          "name": "C3",
          "ticks": 94800,
          "time": 282.142575,
          "velocity": 0.7559055118110236
        },
        {
          "duration": 0.14285699999999224,
          "durationTicks": 48,
          "midi": 48,
          "name": "C3",
          "ticks": 94848,
          "time": 282.285432,
          "velocity": 0.7559055118110236
        },
        {
          "duration": 0.2857140000000413,
          "durationTicks": 96,
          "midi": 48,
          "name": "C3",
          "ticks": 94896,
          "time": 282.428289,
          "velocity": 0.7559055118110236
        },
        {
          "duration": 0.14285699999999224,
          "durationTicks": 48,
          "midi": 48,
          "name": "C3",
          "ticks": 94992,
          "time": 282.71400300000005,
          "velocity": 0.7559055118110236
        },
        {
          "duration": 0.2857139999999845,
          "durationTicks": 96,
          "midi": 48,
          "name": "C3",
          "ticks": 95040,
          "time": 282.85686000000004,
          "velocity": 0.7559055118110236
        },
        {
          "duration": 0.14285699999999224,
          "durationTicks": 48,
          "midi": 48,
          "name": "C3",
          "ticks": 95136,
          "time": 283.142574,
          "velocity": 0.7559055118110236
        },
        {
          "duration": 0.14285699999999224,
          "durationTicks": 48,
          "midi": 48,
          "name": "C3",
          "ticks": 95184,
          "time": 283.285431,
          "velocity": 0.7559055118110236
        },
        {
          "duration": 0.14285699999999224,
          "durationTicks": 48,
          "midi": 45,
          "name": "A2",
          "ticks": 95232,
          "time": 283.428288,
          "velocity": 0.7559055118110236
        },
        {
          "duration": 0.2857140000000413,
          "durationTicks": 96,
          "midi": 45,
          "name": "A2",
          "ticks": 95280,
          "time": 283.571145,
          "velocity": 0.7559055118110236
        },
        {
          "duration": 0.14285699999999224,
          "durationTicks": 48,
          "midi": 45,
          "name": "A2",
          "ticks": 95376,
          "time": 283.85685900000004,
          "velocity": 0.7559055118110236
        },
        {
          "duration": 0.2857139999999845,
          "durationTicks": 96,
          "midi": 45,
          "name": "A2",
          "ticks": 95424,
          "time": 283.99971600000003,
          "velocity": 0.7559055118110236
        },
        {
          "duration": 0.14285699999999224,
          "durationTicks": 48,
          "midi": 45,
          "name": "A2",
          "ticks": 95520,
          "time": 284.28543,
          "velocity": 0.7559055118110236
        },
        {
          "duration": 0.14285699999999224,
          "durationTicks": 48,
          "midi": 45,
          "name": "A2",
          "ticks": 95568,
          "time": 284.428287,
          "velocity": 0.7559055118110236
        },
        {
          "duration": 0.14285699999999224,
          "durationTicks": 48,
          "midi": 45,
          "name": "A2",
          "ticks": 95616,
          "time": 284.571144,
          "velocity": 0.7559055118110236
        },
        {
          "duration": 0.2857140000000413,
          "durationTicks": 96,
          "midi": 45,
          "name": "A2",
          "ticks": 95664,
          "time": 284.714001,
          "velocity": 0.7559055118110236
        },
        {
          "duration": 0.14285699999999224,
          "durationTicks": 48,
          "midi": 45,
          "name": "A2",
          "ticks": 95760,
          "time": 284.99971500000004,
          "velocity": 0.7559055118110236
        },
        {
          "duration": 0.2857139999999845,
          "durationTicks": 96,
          "midi": 45,
          "name": "A2",
          "ticks": 95808,
          "time": 285.14257200000003,
          "velocity": 0.7559055118110236
        },
        {
          "duration": 0.14285699999999224,
          "durationTicks": 48,
          "midi": 45,
          "name": "A2",
          "ticks": 95904,
          "time": 285.428286,
          "velocity": 0.7559055118110236
        },
        {
          "duration": 0.14285699999999224,
          "durationTicks": 48,
          "midi": 45,
          "name": "A2",
          "ticks": 95952,
          "time": 285.571143,
          "velocity": 0.7559055118110236
        }
      ],
      "endOfTrackTicks": 96480
    },
    {
      "channel": 0,
      "controlChanges": {},
      "pitchBends": [],
      "instrument": {
        "family": "piano",
        "number": 0,
        "name": "acoustic grand piano"
      },
      "name": "",
      "notes": []
    },
    {
      "channel": 3,
      "controlChanges": {
        "1": [
          {
            "number": 1,
            "ticks": 90768,
            "time": 270.14258700000005,
            "value": 0
          }
        ],
        "7": [
          {
            "number": 7,
            "ticks": 0,
            "time": 0,
            "value": 1
          },
          {
            "number": 7,
            "ticks": 90816,
            "time": 270.28544400000004,
            "value": 0.7874015748031497
          }
        ],
        "10": [
          {
            "number": 10,
            "ticks": 0,
            "time": 0,
            "value": 0.25196850393700787
          },
          {
            "number": 10,
            "ticks": 90720,
            "time": 269.99973,
            "value": 0.5039370078740157
          }
        ],
        "64": [
          {
            "number": 64,
            "ticks": 91008,
            "time": 270.856872,
            "value": 0
          }
        ],
        "91": [
          {
            "number": 91,
            "ticks": 48,
            "time": 0.142857,
            "value": 0.5039370078740157
          },
          {
            "number": 91,
            "ticks": 90672,
            "time": 269.856873,
            "value": 0.31496062992125984
          }
        ],
        "93": [
          {
            "number": 93,
            "ticks": 240,
            "time": 0.7142850000000001,
            "value": 0
          },
          {
            "number": 93,
            "ticks": 90960,
            "time": 270.714015,
            "value": 0
          }
        ]
      },
      "pitchBends": [
        {
          "ticks": 91056,
          "time": 270.999729,
          "value": 0
        }
      ],
      "instrument": {
        "family": "guitar",
        "number": 28,
        "name": "electric guitar (muted)"
      },
      "name": "Guitar              ",
      "notes": [
        {
          "duration": 0.14285700000000023,
          "durationTicks": 48,
          "midi": 65,
          "name": "F4",
          "ticks": 768,
          "time": 2.285712,
          "velocity": 1
        },
        {
          "duration": 0.2857139999999996,
          "durationTicks": 96,
          "midi": 65,
          "name": "F4",
          "ticks": 816,
          "time": 2.4285690000000004,
          "velocity": 0.4330708661417323
        },
        {
          "duration": 0.1428569999999998,
          "durationTicks": 48,
          "midi": 62,
          "name": "D4",
          "ticks": 864,
          "time": 2.571426,
          "velocity": 1
        },
        {
          "duration": 0.28571400000000047,
          "durationTicks": 96,
          "midi": 62,
          "name": "D4",
          "ticks": 912,
          "time": 2.714283,
          "velocity": 0.4330708661417323
        },
        {
          "duration": 0.14285700000000023,
          "durationTicks": 48,
          "midi": 60,
          "name": "C4",
          "ticks": 960,
          "time": 2.8571400000000002,
          "velocity": 1
        },
        {
          "duration": 0.0029761874999993942,
          "durationTicks": 1,
          "midi": 60,
          "name": "C4",
          "ticks": 1008,
          "time": 2.9999970000000005,
          "velocity": 1
        },
        {
          "duration": 0.1428569999999998,
          "durationTicks": 48,
          "midi": 62,
          "name": "D4",
          "ticks": 1056,
          "time": 3.1428540000000003,
          "velocity": 1
        },
        {
          "duration": 0.1428569999999998,
          "durationTicks": 48,
          "midi": 60,
          "name": "C4",
          "ticks": 1056,
          "time": 3.1428540000000003,
          "velocity": 0.4330708661417323
        },
        {
          "duration": 0.14285700000000023,
          "durationTicks": 48,
          "midi": 65,
          "name": "F4",
          "ticks": 1104,
          "time": 3.285711,
          "velocity": 1
        },
        {
          "duration": 0.14285700000000023,
          "durationTicks": 48,
          "midi": 62,
          "name": "D4",
          "ticks": 1104,
          "time": 3.285711,
          "velocity": 0.4330708661417323
        },
        {
          "duration": 1.142856,
          "durationTicks": 384,
          "midi": 65,
          "name": "F4",
          "ticks": 1152,
          "time": 3.4285680000000003,
          "velocity": 0.4330708661417323
        },
        {
          "duration": 0.14285700000000023,
          "durationTicks": 48,
          "midi": 65,
          "name": "F4",
          "ticks": 1584,
          "time": 4.714281000000001,
          "velocity": 0.4330708661417323
        },
        {
          "duration": 0.14285699999999935,
          "durationTicks": 48,
          "midi": 62,
          "name": "D4",
          "ticks": 1632,
          "time": 4.857138000000001,
          "velocity": 1
        },
        {
          "duration": 0.28571400000000047,
          "durationTicks": 96,
          "midi": 62,
          "name": "D4",
          "ticks": 1680,
          "time": 4.999995,
          "velocity": 0.4330708661417323
        },
        {
          "duration": 0.14285700000000023,
          "durationTicks": 48,
          "midi": 60,
          "name": "C4",
          "ticks": 1728,
          "time": 5.142852,
          "velocity": 1
        },
        {
          "duration": 0.0029761874999998383,
          "durationTicks": 1,
          "midi": 60,
          "name": "C4",
          "ticks": 1776,
          "time": 5.285709000000001,
          "velocity": 1
        },
        {
          "duration": 0.14285700000000023,
          "durationTicks": 48,
          "midi": 62,
          "name": "D4",
          "ticks": 1824,
          "time": 5.428566,
          "velocity": 1
        },
        {
          "duration": 0.14285700000000023,
          "durationTicks": 48,
          "midi": 60,
          "name": "C4",
          "ticks": 1824,
          "time": 5.428566,
          "velocity": 0.4330708661417323
        },
        {
          "duration": 0.14285700000000023,
          "durationTicks": 48,
          "midi": 67,
          "name": "G4",
          "ticks": 1872,
          "time": 5.571423,
          "velocity": 1
        },
        {
          "duration": 0.14285700000000023,
          "durationTicks": 48,
          "midi": 62,
          "name": "D4",
          "ticks": 1872,
          "time": 5.571423,
          "velocity": 0.4330708661417323
        },
        {
          "duration": 0.7142850000000003,
          "durationTicks": 240,
          "midi": 67,
          "name": "G4",
          "ticks": 1920,
          "time": 5.7142800000000005,
          "velocity": 0.4330708661417323
        },
        {
          "duration": 0.14285700000000023,
          "durationTicks": 48,
          "midi": 65,
          "name": "F4",
          "ticks": 2112,
          "time": 6.2857080000000005,
          "velocity": 1
        },
        {
          "duration": 0.4285709999999998,
          "durationTicks": 144,
          "midi": 65,
          "name": "F4",
          "ticks": 2160,
          "time": 6.428565000000001,
          "velocity": 0.4330708661417323
        },
        {
          "duration": 0.14285700000000023,
          "durationTicks": 48,
          "midi": 65,
          "name": "F4",
          "ticks": 2352,
          "time": 6.999993000000001,
          "velocity": 0.4330708661417323
        },
        {
          "duration": 0.14285699999999935,
          "durationTicks": 48,
          "midi": 62,
          "name": "D4",
          "ticks": 2400,
          "time": 7.142850000000001,
          "velocity": 1
        },
        {
          "duration": 0.28571400000000047,
          "durationTicks": 96,
          "midi": 62,
          "name": "D4",
          "ticks": 2448,
          "time": 7.285707,
          "velocity": 0.4330708661417323
        },
        {
          "duration": 0.14285700000000023,
          "durationTicks": 48,
          "midi": 60,
          "name": "C4",
          "ticks": 2496,
          "time": 7.428564000000001,
          "velocity": 1
        },
        {
          "duration": 0.0029761874999998383,
          "durationTicks": 1,
          "midi": 60,
          "name": "C4",
          "ticks": 2544,
          "time": 7.571421000000001,
          "velocity": 1
        },
        {
          "duration": 0.14285700000000023,
          "durationTicks": 48,
          "midi": 62,
          "name": "D4",
          "ticks": 2592,
          "time": 7.714278,
          "velocity": 1
        },
        {
          "duration": 0.14285700000000023,
          "durationTicks": 48,
          "midi": 60,
          "name": "C4",
          "ticks": 2592,
          "time": 7.714278,
          "velocity": 0.4330708661417323
        },
        {
          "duration": 0.14285700000000023,
          "durationTicks": 48,
          "midi": 65,
          "name": "F4",
          "ticks": 2640,
          "time": 7.857135,
          "velocity": 1
        },
        {
          "duration": 0.14285700000000023,
          "durationTicks": 48,
          "midi": 62,
          "name": "D4",
          "ticks": 2640,
          "time": 7.857135,
          "velocity": 0.4330708661417323
        },
        {
          "duration": 0.14285699999999935,
          "durationTicks": 48,
          "midi": 65,
          "name": "F4",
          "ticks": 2688,
          "time": 7.999992000000001,
          "velocity": 0.4330708661417323
        },
        {
          "duration": 0.14285700000000112,
          "durationTicks": 48,
          "midi": 65,
          "name": "F4",
          "ticks": 2736,
          "time": 8.142849,
          "velocity": 1
        },
        {
          "duration": 0.14285699999999935,
          "durationTicks": 48,
          "midi": 62,
          "name": "D4",
          "ticks": 2784,
          "time": 8.285706000000001,
          "velocity": 1
        },
        {
          "duration": 0.14285699999999935,
          "durationTicks": 48,
          "midi": 65,
          "name": "F4",
          "ticks": 2784,
          "time": 8.285706000000001,
          "velocity": 0.4330708661417323
        },
        {
          "duration": 0.28571400000000047,
          "durationTicks": 96,
          "midi": 62,
          "name": "D4",
          "ticks": 2832,
          "time": 8.428563,
          "velocity": 0.4330708661417323
        },
        {
          "duration": 0.14285700000000112,
          "durationTicks": 48,
          "midi": 60,
          "name": "C4",
          "ticks": 2880,
          "time": 8.57142,
          "velocity": 1
        },
        {
          "duration": 0.28571400000000047,
          "durationTicks": 96,
          "midi": 60,
          "name": "C4",
          "ticks": 2928,
          "time": 8.714277000000001,
          "velocity": 0.4330708661417323
        },
        {
          "duration": 0.14285700000000112,
          "durationTicks": 48,
          "midi": 62,
          "name": "D4",
          "ticks": 2976,
          "time": 8.857134,
          "velocity": 1
        },
        {
          "duration": 0.14583318749999918,
          "durationTicks": 49,
          "midi": 62,
          "name": "D4",
          "ticks": 3024,
          "time": 8.999991000000001,
          "velocity": 0.4330708661417323
        },
        {
          "duration": 0.14285699999999935,
          "durationTicks": 48,
          "midi": 69,
          "name": "A4",
          "ticks": 3072,
          "time": 9.142848,
          "velocity": 1
        },
        {
          "duration": 0.28571400000000047,
          "durationTicks": 96,
          "midi": 69,
          "name": "A4",
          "ticks": 3120,
          "time": 9.285705,
          "velocity": 0.4330708661417323
        },
        {
          "duration": 0.14285700000000112,
          "durationTicks": 48,
          "midi": 69,
          "name": "A4",
          "ticks": 3216,
          "time": 9.571419,
          "velocity": 1
        },
        {
          "duration": 0.2857139999999987,
          "durationTicks": 96,
          "midi": 69,
          "name": "A4",
          "ticks": 3264,
          "time": 9.714276000000002,
          "velocity": 0.4330708661417323
        },
        {
          "duration": 0.14285700000000112,
          "durationTicks": 48,
          "midi": 69,
          "name": "A4",
          "ticks": 3360,
          "time": 9.99999,
          "velocity": 1
        },
        {
          "duration": 0.2857139999999987,
          "durationTicks": 96,
          "midi": 69,
          "name": "A4",
          "ticks": 3408,
          "time": 10.142847000000002,
          "velocity": 0.4330708661417323
        },
        {
          "duration": 0.14285699999999935,
          "durationTicks": 48,
          "midi": 72,
          "name": "C5",
          "ticks": 3456,
          "time": 10.285704,
          "velocity": 1
        },
        {
          "duration": 0.28571400000000047,
          "durationTicks": 96,
          "midi": 72,
          "name": "C5",
          "ticks": 3504,
          "time": 10.428561,
          "velocity": 0.4330708661417323
        },
        {
          "duration": 0.14285699999999935,
          "durationTicks": 48,
          "midi": 72,
          "name": "C5",
          "ticks": 3600,
          "time": 10.714275,
          "velocity": 1
        },
        {
          "duration": 0.28571400000000047,
          "durationTicks": 96,
          "midi": 72,
          "name": "C5",
          "ticks": 3648,
          "time": 10.857132,
          "velocity": 0.4330708661417323
        },
        {
          "duration": 0.14285700000000112,
          "durationTicks": 48,
          "midi": 72,
          "name": "C5",
          "ticks": 3744,
          "time": 11.142846,
          "velocity": 1
        },
        {
          "duration": 0.14583318749999918,
          "durationTicks": 49,
          "midi": 72,
          "name": "C5",
          "ticks": 3792,
          "time": 11.285703000000002,
          "velocity": 0.4330708661417323
        },
        {
          "duration": 0.14285699999999935,
          "durationTicks": 48,
          "midi": 65,
          "name": "F4",
          "ticks": 3840,
          "time": 11.428560000000001,
          "velocity": 1
        },
        {
          "duration": 0.28571400000000047,
          "durationTicks": 96,
          "midi": 65,
          "name": "F4",
          "ticks": 3888,
          "time": 11.571417,
          "velocity": 0.4330708661417323
        },
        {
          "duration": 0.14285699999999935,
          "durationTicks": 48,
          "midi": 62,
          "name": "D4",
          "ticks": 3936,
          "time": 11.714274000000001,
          "velocity": 1
        },
        {
          "duration": 0.28571400000000047,
          "durationTicks": 96,
          "midi": 62,
          "name": "D4",
          "ticks": 3984,
          "time": 11.857131,
          "velocity": 0.4330708661417323
        },
        {
          "duration": 0.14285699999999935,
          "durationTicks": 48,
          "midi": 60,
          "name": "C4",
          "ticks": 4032,
          "time": 11.999988000000002,
          "velocity": 1
        },
        {
          "duration": 0.0029761874999998383,
          "durationTicks": 1,
          "midi": 60,
          "name": "C4",
          "ticks": 4080,
          "time": 12.142845000000001,
          "velocity": 1
        },
        {
          "duration": 0.14285700000000112,
          "durationTicks": 48,
          "midi": 62,
          "name": "D4",
          "ticks": 4128,
          "time": 12.285702,
          "velocity": 1
        },
        {
          "duration": 0.14285700000000112,
          "durationTicks": 48,
          "midi": 60,
          "name": "C4",
          "ticks": 4128,
          "time": 12.285702,
          "velocity": 0.4330708661417323
        },
        {
          "duration": 0.14285699999999935,
          "durationTicks": 48,
          "midi": 65,
          "name": "F4",
          "ticks": 4176,
          "time": 12.428559000000002,
          "velocity": 1
        },
        {
          "duration": 0.14285699999999935,
          "durationTicks": 48,
          "midi": 62,
          "name": "D4",
          "ticks": 4176,
          "time": 12.428559000000002,
          "velocity": 0.4330708661417323
        },
        {
          "duration": 0.14285699999999935,
          "durationTicks": 48,
          "midi": 65,
          "name": "F4",
          "ticks": 4224,
          "time": 12.571416000000001,
          "velocity": 0.4330708661417323
        },
        {
          "duration": 0.14285700000000112,
          "durationTicks": 48,
          "midi": 65,
          "name": "F4",
          "ticks": 4272,
          "time": 12.714273,
          "velocity": 1
        },
        {
          "duration": 0.14285699999999935,
          "durationTicks": 48,
          "midi": 62,
          "name": "D4",
          "ticks": 4320,
          "time": 12.857130000000002,
          "velocity": 1
        },
        {
          "duration": 0.14285699999999935,
          "durationTicks": 48,
          "midi": 65,
          "name": "F4",
          "ticks": 4320,
          "time": 12.857130000000002,
          "velocity": 0.4330708661417323
        },
        {
          "duration": 0.28571400000000047,
          "durationTicks": 96,
          "midi": 62,
          "name": "D4",
          "ticks": 4368,
          "time": 12.999987,
          "velocity": 0.4330708661417323
        },
        {
          "duration": 0.14285700000000112,
          "durationTicks": 48,
          "midi": 60,
          "name": "C4",
          "ticks": 4416,
          "time": 13.142844,
          "velocity": 1
        },
        {
          "duration": 0.28571400000000047,
          "durationTicks": 96,
          "midi": 60,
          "name": "C4",
          "ticks": 4464,
          "time": 13.285701000000001,
          "velocity": 0.4330708661417323
        },
        {
          "duration": 0.14285700000000112,
          "durationTicks": 48,
          "midi": 62,
          "name": "D4",
          "ticks": 4512,
          "time": 13.428558,
          "velocity": 1
        },
        {
          "duration": 0.14583318749999918,
          "durationTicks": 49,
          "midi": 62,
          "name": "D4",
          "ticks": 4560,
          "time": 13.571415000000002,
          "velocity": 0.4330708661417323
        },
        {
          "duration": 0.14285699999999935,
          "durationTicks": 48,
          "midi": 65,
          "name": "F4",
          "ticks": 4608,
          "time": 13.714272000000001,
          "velocity": 1
        },
        {
          "duration": 0.28571400000000047,
          "durationTicks": 96,
          "midi": 65,
          "name": "F4",
          "ticks": 4656,
          "time": 13.857129,
          "velocity": 0.4330708661417323
        },
        {
          "duration": 0.14285699999999935,
          "durationTicks": 48,
          "midi": 62,
          "name": "D4",
          "ticks": 4704,
          "time": 13.999986000000002,
          "velocity": 1
        },
        {
          "duration": 0.28571400000000047,
          "durationTicks": 96,
          "midi": 62,
          "name": "D4",
          "ticks": 4752,
          "time": 14.142843000000001,
          "velocity": 0.4330708661417323
        },
        {
          "duration": 0.14285699999999935,
          "durationTicks": 48,
          "midi": 60,
          "name": "C4",
          "ticks": 4800,
          "time": 14.285700000000002,
          "velocity": 1
        },
        {
          "duration": 0.0029761874999998383,
          "durationTicks": 1,
          "midi": 60,
          "name": "C4",
          "ticks": 4848,
          "time": 14.428557000000001,
          "velocity": 1
        },
        {
          "duration": 0.14285700000000112,
          "durationTicks": 48,
          "midi": 62,
          "name": "D4",
          "ticks": 4896,
          "time": 14.571414,
          "velocity": 1
        },
        {
          "duration": 0.14285700000000112,
          "durationTicks": 48,
          "midi": 60,
          "name": "C4",
          "ticks": 4896,
          "time": 14.571414,
          "velocity": 0.4330708661417323
        },
        {
          "duration": 0.14285699999999935,
          "durationTicks": 48,
          "midi": 67,
          "name": "G4",
          "ticks": 4944,
          "time": 14.714271000000002,
          "velocity": 1
        },
        {
          "duration": 0.14285699999999935,
          "durationTicks": 48,
          "midi": 62,
          "name": "D4",
          "ticks": 4944,
          "time": 14.714271000000002,
          "velocity": 0.4330708661417323
        },
        {
          "duration": 0.14285699999999935,
          "durationTicks": 48,
          "midi": 67,
          "name": "G4",
          "ticks": 4992,
          "time": 14.857128000000001,
          "velocity": 0.4330708661417323
        },
        {
          "duration": 0.14285700000000112,
          "durationTicks": 48,
          "midi": 67,
          "name": "G4",
          "ticks": 5040,
          "time": 14.999985,
          "velocity": 1
        },
        {
          "duration": 0.14285699999999935,
          "durationTicks": 48,
          "midi": 67,
          "name": "G4",
          "ticks": 5088,
          "time": 15.142842000000002,
          "velocity": 0.4330708661417323
        },
        {
          "duration": 0.14285699999999935,
          "durationTicks": 48,
          "midi": 67,
          "name": "G4",
          "ticks": 5136,
          "time": 15.285699000000001,
          "velocity": 1
        },
        {
          "duration": 0.14285700000000112,
          "durationTicks": 48,
          "midi": 65,
          "name": "F4",
          "ticks": 5184,
          "time": 15.428556,
          "velocity": 1
        },
        {
          "duration": 0.14285700000000112,
          "durationTicks": 48,
          "midi": 67,
          "name": "G4",
          "ticks": 5184,
          "time": 15.428556,
          "velocity": 0.4330708661417323
        },
        {
          "duration": 0.14285699999999935,
          "durationTicks": 48,
          "midi": 65,
          "name": "F4",
          "ticks": 5232,
          "time": 15.571413000000002,
          "velocity": 0.4330708661417323
        },
        {
          "duration": 0.14285700000000112,
          "durationTicks": 48,
          "midi": 65,
          "name": "F4",
          "ticks": 5280,
          "time": 15.71427,
          "velocity": 1
        },
        {
          "duration": 0.14285699999999935,
          "durationTicks": 48,
          "midi": 65,
          "name": "F4",
          "ticks": 5328,
          "time": 15.857127000000002,
          "velocity": 0.4330708661417323
        },
        {
          "duration": 0.14285699999999935,
          "durationTicks": 48,
          "midi": 65,
          "name": "F4",
          "ticks": 5424,
          "time": 16.142841,
          "velocity": 0.4330708661417323
        },
        {
          "duration": 0.1428570000000029,
          "durationTicks": 48,
          "midi": 62,
          "name": "D4",
          "ticks": 5472,
          "time": 16.285698,
          "velocity": 1
        },
        {
          "duration": 0.2857139999999987,
          "durationTicks": 96,
          "midi": 62,
          "name": "D4",
          "ticks": 5520,
          "time": 16.428555000000003,
          "velocity": 0.4330708661417323
        },
        {
          "duration": 0.14285699999999935,
          "durationTicks": 48,
          "midi": 60,
          "name": "C4",
          "ticks": 5568,
          "time": 16.571412000000002,
          "velocity": 1
        },
        {
          "duration": 0.0029761874999998383,
          "durationTicks": 1,
          "midi": 60,
          "name": "C4",
          "ticks": 5616,
          "time": 16.714269,
          "velocity": 1
        },
        {
          "duration": 0.14285699999999935,
          "durationTicks": 48,
          "midi": 62,
          "name": "D4",
          "ticks": 5664,
          "time": 16.857126,
          "velocity": 1
        },
        {
          "duration": 0.14285699999999935,
          "durationTicks": 48,
          "midi": 60,
          "name": "C4",
          "ticks": 5664,
          "time": 16.857126,
          "velocity": 0.4330708661417323
        },
        {
          "duration": 0.14285699999999935,
          "durationTicks": 48,
          "midi": 65,
          "name": "F4",
          "ticks": 5712,
          "time": 16.999983,
          "velocity": 1
        },
        {
          "duration": 0.14285699999999935,
          "durationTicks": 48,
          "midi": 62,
          "name": "D4",
          "ticks": 5712,
          "time": 16.999983,
          "velocity": 0.4330708661417323
        },
        {
          "duration": 0.1428570000000029,
          "durationTicks": 48,
          "midi": 65,
          "name": "F4",
          "ticks": 5760,
          "time": 17.14284,
          "velocity": 0.4330708661417323
        },
        {
          "duration": 0.14285699999999935,
          "durationTicks": 48,
          "midi": 65,
          "name": "F4",
          "ticks": 5808,
          "time": 17.285697000000003,
          "velocity": 1
        },
        {
          "duration": 0.14285699999999935,
          "durationTicks": 48,
          "midi": 62,
          "name": "D4",
          "ticks": 5856,
          "time": 17.428554000000002,
          "velocity": 1
        },
        {
          "duration": 0.14285699999999935,
          "durationTicks": 48,
          "midi": 65,
          "name": "F4",
          "ticks": 5856,
          "time": 17.428554000000002,
          "velocity": 0.4330708661417323
        },
        {
          "duration": 0.2857139999999987,
          "durationTicks": 96,
          "midi": 62,
          "name": "D4",
          "ticks": 5904,
          "time": 17.571411,
          "velocity": 0.4330708661417323
        },
        {
          "duration": 0.14285699999999935,
          "durationTicks": 48,
          "midi": 60,
          "name": "C4",
          "ticks": 5952,
          "time": 17.714268,
          "velocity": 1
        },
        {
          "duration": 0.28571400000000224,
          "durationTicks": 96,
          "midi": 60,
          "name": "C4",
          "ticks": 6000,
          "time": 17.857125,
          "velocity": 0.4330708661417323
        },
        {
          "duration": 0.14285699999999935,
          "durationTicks": 48,
          "midi": 62,
          "name": "D4",
          "ticks": 6048,
          "time": 17.999982000000003,
          "velocity": 1
        },
        {
          "duration": 0.14583318749999918,
          "durationTicks": 49,
          "midi": 62,
          "name": "D4",
          "ticks": 6096,
          "time": 18.142839000000002,
          "velocity": 0.4330708661417323
        },
        {
          "duration": 0.14285699999999935,
          "durationTicks": 48,
          "midi": 69,
          "name": "A4",
          "ticks": 6144,
          "time": 18.285696,
          "velocity": 1
        },
        {
          "duration": 0.28571400000000224,
          "durationTicks": 96,
          "midi": 69,
          "name": "A4",
          "ticks": 6192,
          "time": 18.428553,
          "velocity": 0.4330708661417323
        },
        {
          "duration": 0.14285699999999935,
          "durationTicks": 48,
          "midi": 69,
          "name": "A4",
          "ticks": 6288,
          "time": 18.714267000000003,
          "velocity": 1
        },
        {
          "duration": 0.2857139999999987,
          "durationTicks": 96,
          "midi": 69,
          "name": "A4",
          "ticks": 6336,
          "time": 18.857124000000002,
          "velocity": 0.4330708661417323
        },
        {
          "duration": 0.14285699999999935,
          "durationTicks": 48,
          "midi": 69,
          "name": "A4",
          "ticks": 6432,
          "time": 19.142838,
          "velocity": 1
        },
        {
          "duration": 0.1428570000000029,
          "durationTicks": 48,
          "midi": 69,
          "name": "A4",
          "ticks": 6480,
          "time": 19.285695,
          "velocity": 0.4330708661417323
        },
        {
          "duration": 0.14285699999999935,
          "durationTicks": 48,
          "midi": 69,
          "name": "A4",
          "ticks": 6528,
          "time": 19.428552000000003,
          "velocity": 1
        },
        {
          "duration": 0.2857139999999987,
          "durationTicks": 96,
          "midi": 69,
          "name": "A4",
          "ticks": 6576,
          "time": 19.571409000000003,
          "velocity": 0.4330708661417323
        },
        {
          "duration": 0.14285699999999935,
          "durationTicks": 48,
          "midi": 67,
          "name": "G4",
          "ticks": 6624,
          "time": 19.714266000000002,
          "velocity": 1
        },
        {
          "duration": 0.14285699999999935,
          "durationTicks": 48,
          "midi": 72,
          "name": "C5",
          "ticks": 6672,
          "time": 19.857123,
          "velocity": 1
        },
        {
          "duration": 0.14285699999999935,
          "durationTicks": 48,
          "midi": 67,
          "name": "G4",
          "ticks": 6672,
          "time": 19.857123,
          "velocity": 0.4330708661417323
        },
        {
          "duration": 0.28571400000000224,
          "durationTicks": 96,
          "midi": 72,
          "name": "C5",
          "ticks": 6720,
          "time": 19.99998,
          "velocity": 0.4330708661417323
        },
        {
          "duration": 0.1428570000000029,
          "durationTicks": 48,
          "midi": 67,
          "name": "G4",
          "ticks": 6768,
          "time": 20.142837,
          "velocity": 1
        },
        {
          "duration": 0.14285699999999935,
          "durationTicks": 48,
          "midi": 69,
          "name": "A4",
          "ticks": 6816,
          "time": 20.285694000000003,
          "velocity": 1
        },
        {
          "duration": 0.14285699999999935,
          "durationTicks": 48,
          "midi": 67,
          "name": "G4",
          "ticks": 6816,
          "time": 20.285694000000003,
          "velocity": 0.4330708661417323
        },
        {
          "duration": 0.7142850000000003,
          "durationTicks": 240,
          "midi": 69,
          "name": "A4",
          "ticks": 6864,
          "time": 20.428551000000002,
          "velocity": 0.4330708661417323
        },
        {
          "duration": 0.14285700000002066,
          "durationTicks": 48,
          "midi": 65,
          "name": "F4",
          "ticks": 62208,
          "time": 185.142672,
          "velocity": 1
        },
        {
          "duration": 0.2857139999999845,
          "durationTicks": 96,
          "midi": 65,
          "name": "F4",
          "ticks": 62256,
          "time": 185.28552900000003,
          "velocity": 0.4330708661417323
        },
        {
          "duration": 0.14285699999999224,
          "durationTicks": 48,
          "midi": 62,
          "name": "D4",
          "ticks": 62304,
          "time": 185.42838600000002,
          "velocity": 1
        },
        {
          "duration": 0.2857140000000129,
          "durationTicks": 96,
          "midi": 62,
          "name": "D4",
          "ticks": 62352,
          "time": 185.571243,
          "velocity": 0.4330708661417323
        },
        {
          "duration": 0.14285700000002066,
          "durationTicks": 48,
          "midi": 60,
          "name": "C4",
          "ticks": 62400,
          "time": 185.7141,
          "velocity": 1
        },
        {
          "duration": 0.002976187499967864,
          "durationTicks": 1,
          "midi": 60,
          "name": "C4",
          "ticks": 62448,
          "time": 185.85695700000002,
          "velocity": 1
        },
        {
          "duration": 0.14285699999999224,
          "durationTicks": 48,
          "midi": 62,
          "name": "D4",
          "ticks": 62496,
          "time": 185.99981400000001,
          "velocity": 1
        },
        {
          "duration": 0.14285699999999224,
          "durationTicks": 48,
          "midi": 60,
          "name": "C4",
          "ticks": 62496,
          "time": 185.99981400000001,
          "velocity": 0.4330708661417323
        },
        {
          "duration": 0.14285700000002066,
          "durationTicks": 48,
          "midi": 65,
          "name": "F4",
          "ticks": 62544,
          "time": 186.142671,
          "velocity": 1
        },
        {
          "duration": 0.14285700000002066,
          "durationTicks": 48,
          "midi": 62,
          "name": "D4",
          "ticks": 62544,
          "time": 186.142671,
          "velocity": 0.4330708661417323
        },
        {
          "duration": 0.14285699999999224,
          "durationTicks": 48,
          "midi": 65,
          "name": "F4",
          "ticks": 62592,
          "time": 186.28552800000003,
          "velocity": 0.4330708661417323
        },
        {
          "duration": 0.14285699999999224,
          "durationTicks": 48,
          "midi": 65,
          "name": "F4",
          "ticks": 62640,
          "time": 186.42838500000002,
          "velocity": 1
        },
        {
          "duration": 0.14285699999999224,
          "durationTicks": 48,
          "midi": 62,
          "name": "D4",
          "ticks": 62688,
          "time": 186.571242,
          "velocity": 1
        },
        {
          "duration": 0.14285699999999224,
          "durationTicks": 48,
          "midi": 65,
          "name": "F4",
          "ticks": 62688,
          "time": 186.571242,
          "velocity": 0.4330708661417323
        },
        {
          "duration": 0.2857140000000129,
          "durationTicks": 96,
          "midi": 62,
          "name": "D4",
          "ticks": 62736,
          "time": 186.714099,
          "velocity": 0.4330708661417323
        },
        {
          "duration": 0.14285699999999224,
          "durationTicks": 48,
          "midi": 60,
          "name": "C4",
          "ticks": 62784,
          "time": 186.85695600000003,
          "velocity": 1
        },
        {
          "duration": 0.2857139999999845,
          "durationTicks": 96,
          "midi": 60,
          "name": "C4",
          "ticks": 62832,
          "time": 186.99981300000002,
          "velocity": 0.4330708661417323
        },
        {
          "duration": 0.14285699999999224,
          "durationTicks": 48,
          "midi": 62,
          "name": "D4",
          "ticks": 62880,
          "time": 187.14267,
          "velocity": 1
        },
        {
          "duration": 0.14583318749998853,
          "durationTicks": 49,
          "midi": 62,
          "name": "D4",
          "ticks": 62928,
          "time": 187.285527,
          "velocity": 0.4330708661417323
        },
        {
          "duration": 0.14285699999999224,
          "durationTicks": 48,
          "midi": 65,
          "name": "F4",
          "ticks": 62976,
          "time": 187.42838400000002,
          "velocity": 1
        },
        {
          "duration": 0.2857140000000129,
          "durationTicks": 96,
          "midi": 65,
          "name": "F4",
          "ticks": 63024,
          "time": 187.57124100000001,
          "velocity": 0.4330708661417323
        },
        {
          "duration": 0.14285700000002066,
          "durationTicks": 48,
          "midi": 62,
          "name": "D4",
          "ticks": 63072,
          "time": 187.714098,
          "velocity": 1
        },
        {
          "duration": 0.2857139999999845,
          "durationTicks": 96,
          "midi": 62,
          "name": "D4",
          "ticks": 63120,
          "time": 187.85695500000003,
          "velocity": 0.4330708661417323
        },
        {
          "duration": 0.14285699999999224,
          "durationTicks": 48,
          "midi": 60,
          "name": "C4",
          "ticks": 63168,
          "time": 187.99981200000002,
          "velocity": 1
        },
        {
          "duration": 0.0029761874999962856,
          "durationTicks": 1,
          "midi": 60,
          "name": "C4",
          "ticks": 63216,
          "time": 188.142669,
          "velocity": 1
        },
        {
          "duration": 0.14285700000002066,
          "durationTicks": 48,
          "midi": 62,
          "name": "D4",
          "ticks": 63264,
          "time": 188.285526,
          "velocity": 1
        },
        {
          "duration": 0.14285700000002066,
          "durationTicks": 48,
          "midi": 60,
          "name": "C4",
          "ticks": 63264,
          "time": 188.285526,
          "velocity": 0.4330708661417323
        },
        {
          "duration": 0.14285699999999224,
          "durationTicks": 48,
          "midi": 67,
          "name": "G4",
          "ticks": 63312,
          "time": 188.42838300000003,
          "velocity": 1
        },
        {
          "duration": 0.14285699999999224,
          "durationTicks": 48,
          "midi": 62,
          "name": "D4",
          "ticks": 63312,
          "time": 188.42838300000003,
          "velocity": 0.4330708661417323
        },
        {
          "duration": 0.14285699999999224,
          "durationTicks": 48,
          "midi": 67,
          "name": "G4",
          "ticks": 63360,
          "time": 188.57124000000002,
          "velocity": 0.4330708661417323
        },
        {
          "duration": 0.14285699999999224,
          "durationTicks": 48,
          "midi": 67,
          "name": "G4",
          "ticks": 63408,
          "time": 188.714097,
          "velocity": 1
        },
        {
          "duration": 0.14285700000002066,
          "durationTicks": 48,
          "midi": 67,
          "name": "G4",
          "ticks": 63456,
          "time": 188.856954,
          "velocity": 0.4330708661417323
        },
        {
          "duration": 0.14285699999999224,
          "durationTicks": 48,
          "midi": 67,
          "name": "G4",
          "ticks": 63504,
          "time": 188.99981100000002,
          "velocity": 1
        },
        {
          "duration": 0.14285699999999224,
          "durationTicks": 48,
          "midi": 65,
          "name": "F4",
          "ticks": 63552,
          "time": 189.14266800000001,
          "velocity": 1
        },
        {
          "duration": 0.14285699999999224,
          "durationTicks": 48,
          "midi": 67,
          "name": "G4",
          "ticks": 63552,
          "time": 189.14266800000001,
          "velocity": 0.4330708661417323
        },
        {
          "duration": 0.14285700000002066,
          "durationTicks": 48,
          "midi": 65,
          "name": "F4",
          "ticks": 63600,
          "time": 189.285525,
          "velocity": 0.4330708661417323
        },
        {
          "duration": 0.14285699999999224,
          "durationTicks": 48,
          "midi": 65,
          "name": "F4",
          "ticks": 63648,
          "time": 189.42838200000003,
          "velocity": 1
        },
        {
          "duration": 0.14285699999999224,
          "durationTicks": 48,
          "midi": 65,
          "name": "F4",
          "ticks": 63696,
          "time": 189.57123900000002,
          "velocity": 0.4330708661417323
        },
        {
          "duration": 0.14285700000002066,
          "durationTicks": 48,
          "midi": 65,
          "name": "F4",
          "ticks": 63792,
          "time": 189.856953,
          "velocity": 0.4330708661417323
        },
        {
          "duration": 0.14285699999999224,
          "durationTicks": 48,
          "midi": 62,
          "name": "D4",
          "ticks": 63840,
          "time": 189.99981000000002,
          "velocity": 1
        },
        {
          "duration": 0.2857139999999845,
          "durationTicks": 96,
          "midi": 62,
          "name": "D4",
          "ticks": 63888,
          "time": 190.14266700000002,
          "velocity": 0.4330708661417323
        },
        {
          "duration": 0.14285699999999224,
          "durationTicks": 48,
          "midi": 60,
          "name": "C4",
          "ticks": 63936,
          "time": 190.285524,
          "velocity": 1
        },
        {
          "duration": 0.0029761874999962856,
          "durationTicks": 1,
          "midi": 60,
          "name": "C4",
          "ticks": 63984,
          "time": 190.428381,
          "velocity": 1
        },
        {
          "duration": 0.14285699999999224,
          "durationTicks": 48,
          "midi": 62,
          "name": "D4",
          "ticks": 64032,
          "time": 190.57123800000002,
          "velocity": 1
        },
        {
          "duration": 0.14285699999999224,
          "durationTicks": 48,
          "midi": 60,
          "name": "C4",
          "ticks": 64032,
          "time": 190.57123800000002,
          "velocity": 0.4330708661417323
        },
        {
          "duration": 0.14285699999999224,
          "durationTicks": 48,
          "midi": 65,
          "name": "F4",
          "ticks": 64080,
          "time": 190.71409500000001,
          "velocity": 1
        },
        {
          "duration": 0.14285699999999224,
          "durationTicks": 48,
          "midi": 62,
          "name": "D4",
          "ticks": 64080,
          "time": 190.71409500000001,
          "velocity": 0.4330708661417323
        },
        {
          "duration": 0.14285700000002066,
          "durationTicks": 48,
          "midi": 65,
          "name": "F4",
          "ticks": 64128,
          "time": 190.856952,
          "velocity": 0.4330708661417323
        },
        {
          "duration": 0.14285699999999224,
          "durationTicks": 48,
          "midi": 65,
          "name": "F4",
          "ticks": 64176,
          "time": 190.99980900000003,
          "velocity": 1
        },
        {
          "duration": 0.14285699999999224,
          "durationTicks": 48,
          "midi": 62,
          "name": "D4",
          "ticks": 64224,
          "time": 191.14266600000002,
          "velocity": 1
        },
        {
          "duration": 0.14285699999999224,
          "durationTicks": 48,
          "midi": 65,
          "name": "F4",
          "ticks": 64224,
          "time": 191.14266600000002,
          "velocity": 0.4330708661417323
        },
        {
          "duration": 0.2857140000000129,
          "durationTicks": 96,
          "midi": 62,
          "name": "D4",
          "ticks": 64272,
          "time": 191.285523,
          "velocity": 0.4330708661417323
        },
        {
          "duration": 0.14285700000002066,
          "durationTicks": 48,
          "midi": 60,
          "name": "C4",
          "ticks": 64320,
          "time": 191.42838,
          "velocity": 1
        },
        {
          "duration": 0.2857139999999845,
          "durationTicks": 96,
          "midi": 60,
          "name": "C4",
          "ticks": 64368,
          "time": 191.57123700000002,
          "velocity": 0.4330708661417323
        },
        {
          "duration": 0.14285699999999224,
          "durationTicks": 48,
          "midi": 62,
          "name": "D4",
          "ticks": 64416,
          "time": 191.71409400000002,
          "velocity": 1
        },
        {
          "duration": 0.14583318749998853,
          "durationTicks": 49,
          "midi": 62,
          "name": "D4",
          "ticks": 64464,
          "time": 191.856951,
          "velocity": 0.4330708661417323
        },
        {
          "duration": 0.14285699999999224,
          "durationTicks": 48,
          "midi": 69,
          "name": "A4",
          "ticks": 64512,
          "time": 191.99980800000003,
          "velocity": 1
        },
        {
          "duration": 0.2857139999999845,
          "durationTicks": 96,
          "midi": 69,
          "name": "A4",
          "ticks": 64560,
          "time": 192.14266500000002,
          "velocity": 0.4330708661417323
        },
        {
          "duration": 0.14285700000002066,
          "durationTicks": 48,
          "midi": 69,
          "name": "A4",
          "ticks": 64656,
          "time": 192.428379,
          "velocity": 1
        },
        {
          "duration": 0.2857139999999845,
          "durationTicks": 96,
          "midi": 69,
          "name": "A4",
          "ticks": 64704,
          "time": 192.57123600000003,
          "velocity": 0.4330708661417323
        },
        {
          "duration": 0.14285699999999224,
          "durationTicks": 48,
          "midi": 69,
          "name": "A4",
          "ticks": 64800,
          "time": 192.85695,
          "velocity": 1
        },
        {
          "duration": 0.14285700000002066,
          "durationTicks": 48,
          "midi": 69,
          "name": "A4",
          "ticks": 64848,
          "time": 192.999807,
          "velocity": 0.4330708661417323
        },
        {
          "duration": 0.14285699999999224,
          "durationTicks": 48,
          "midi": 69,
          "name": "A4",
          "ticks": 64896,
          "time": 193.14266400000002,
          "velocity": 1
        },
        {
          "duration": 0.2857140000000129,
          "durationTicks": 96,
          "midi": 69,
          "name": "A4",
          "ticks": 64944,
          "time": 193.28552100000002,
          "velocity": 0.4330708661417323
        },
        {
          "duration": 0.14285700000002066,
          "durationTicks": 48,
          "midi": 67,
          "name": "G4",
          "ticks": 64992,
          "time": 193.428378,
          "velocity": 1
        },
        {
          "duration": 0.14285699999999224,
          "durationTicks": 48,
          "midi": 72,
          "name": "C5",
          "ticks": 65040,
          "time": 193.57123500000003,
          "velocity": 1
        },
        {
          "duration": 0.14285699999999224,
          "durationTicks": 48,
          "midi": 67,
          "name": "G4",
          "ticks": 65040,
          "time": 193.57123500000003,
          "velocity": 0.4330708661417323
        },
        {
          "duration": 0.2857139999999845,
          "durationTicks": 96,
          "midi": 72,
          "name": "C5",
          "ticks": 65088,
          "time": 193.71409200000002,
          "velocity": 0.4330708661417323
        },
        {
          "duration": 0.14285699999999224,
          "durationTicks": 48,
          "midi": 67,
          "name": "G4",
          "ticks": 65136,
          "time": 193.85694900000001,
          "velocity": 1
        },
        {
          "duration": 0.14285700000002066,
          "durationTicks": 48,
          "midi": 69,
          "name": "A4",
          "ticks": 65184,
          "time": 193.999806,
          "velocity": 1
        },
        {
          "duration": 0.14285700000002066,
          "durationTicks": 48,
          "midi": 67,
          "name": "G4",
          "ticks": 65184,
          "time": 193.999806,
          "velocity": 0.4330708661417323
        },
        {
          "duration": 0.14583318749998853,
          "durationTicks": 49,
          "midi": 69,
          "name": "A4",
          "ticks": 65232,
          "time": 194.14266300000003,
          "velocity": 0.4330708661417323
        },
        {
          "duration": 0.14285699999999224,
          "durationTicks": 48,
          "midi": 65,
          "name": "F4",
          "ticks": 65280,
          "time": 194.28552000000002,
          "velocity": 1
        },
        {
          "duration": 0.2857140000000129,
          "durationTicks": 96,
          "midi": 65,
          "name": "F4",
          "ticks": 65328,
          "time": 194.428377,
          "velocity": 0.4330708661417323
        },
        {
          "duration": 0.14285700000002066,
          "durationTicks": 48,
          "midi": 62,
          "name": "D4",
          "ticks": 65376,
          "time": 194.571234,
          "velocity": 1
        },
        {
          "duration": 0.2857139999999845,
          "durationTicks": 96,
          "midi": 62,
          "name": "D4",
          "ticks": 65424,
          "time": 194.71409100000002,
          "velocity": 0.4330708661417323
        },
        {
          "duration": 0.14285699999999224,
          "durationTicks": 48,
          "midi": 60,
          "name": "C4",
          "ticks": 65472,
          "time": 194.85694800000002,
          "velocity": 1
        },
        {
          "duration": 0.0029761874999962856,
          "durationTicks": 1,
          "midi": 60,
          "name": "C4",
          "ticks": 65520,
          "time": 194.999805,
          "velocity": 1
        },
        {
          "duration": 0.14285699999999224,
          "durationTicks": 48,
          "midi": 62,
          "name": "D4",
          "ticks": 65568,
          "time": 195.14266200000003,
          "velocity": 1
        },
        {
          "duration": 0.14285699999999224,
          "durationTicks": 48,
          "midi": 60,
          "name": "C4",
          "ticks": 65568,
          "time": 195.14266200000003,
          "velocity": 0.4330708661417323
        },
        {
          "duration": 0.14285699999999224,
          "durationTicks": 48,
          "midi": 65,
          "name": "F4",
          "ticks": 65616,
          "time": 195.28551900000002,
          "velocity": 1
        },
        {
          "duration": 0.14285699999999224,
          "durationTicks": 48,
          "midi": 62,
          "name": "D4",
          "ticks": 65616,
          "time": 195.28551900000002,
          "velocity": 0.4330708661417323
        },
        {
          "duration": 0.14285699999999224,
          "durationTicks": 48,
          "midi": 65,
          "name": "F4",
          "ticks": 65664,
          "time": 195.42837600000001,
          "velocity": 0.4330708661417323
        },
        {
          "duration": 0.14285700000002066,
          "durationTicks": 48,
          "midi": 65,
          "name": "F4",
          "ticks": 65712,
          "time": 195.571233,
          "velocity": 1
        },
        {
          "duration": 0.14285699999999224,
          "durationTicks": 48,
          "midi": 62,
          "name": "D4",
          "ticks": 65760,
          "time": 195.71409000000003,
          "velocity": 1
        },
        {
          "duration": 0.14285699999999224,
          "durationTicks": 48,
          "midi": 65,
          "name": "F4",
          "ticks": 65760,
          "time": 195.71409000000003,
          "velocity": 0.4330708661417323
        },
        {
          "duration": 0.2857139999999845,
          "durationTicks": 96,
          "midi": 62,
          "name": "D4",
          "ticks": 65808,
          "time": 195.85694700000002,
          "velocity": 0.4330708661417323
        },
        {
          "duration": 0.14285699999999224,
          "durationTicks": 48,
          "midi": 60,
          "name": "C4",
          "ticks": 65856,
          "time": 195.999804,
          "velocity": 1
        },
        {
          "duration": 0.2857140000000129,
          "durationTicks": 96,
          "midi": 60,
          "name": "C4",
          "ticks": 65904,
          "time": 196.142661,
          "velocity": 0.4330708661417323
        },
        {
          "duration": 0.14285699999999224,
          "durationTicks": 48,
          "midi": 62,
          "name": "D4",
          "ticks": 65952,
          "time": 196.28551800000002,
          "velocity": 1
        },
        {
          "duration": 0.14583318749998853,
          "durationTicks": 49,
          "midi": 62,
          "name": "D4",
          "ticks": 66000,
          "time": 196.42837500000002,
          "velocity": 0.4330708661417323
        },
        {
          "duration": 0.14285700000002066,
          "durationTicks": 48,
          "midi": 65,
          "name": "F4",
          "ticks": 66048,
          "time": 196.571232,
          "velocity": 1
        },
        {
          "duration": 0.2857139999999845,
          "durationTicks": 96,
          "midi": 65,
          "name": "F4",
          "ticks": 66096,
          "time": 196.71408900000003,
          "velocity": 0.4330708661417323
        },
        {
          "duration": 0.14285699999999224,
          "durationTicks": 48,
          "midi": 62,
          "name": "D4",
          "ticks": 66144,
          "time": 196.85694600000002,
          "velocity": 1
        },
        {
          "duration": 0.2857140000000129,
          "durationTicks": 96,
          "midi": 62,
          "name": "D4",
          "ticks": 66192,
          "time": 196.999803,
          "velocity": 0.4330708661417323
        },
        {
          "duration": 0.14285700000002066,
          "durationTicks": 48,
          "midi": 60,
          "name": "C4",
          "ticks": 66240,
          "time": 197.14266,
          "velocity": 1
        },
        {
          "duration": 0.002976187499967864,
          "durationTicks": 1,
          "midi": 60,
          "name": "C4",
          "ticks": 66288,
          "time": 197.28551700000003,
          "velocity": 1
        },
        {
          "duration": 0.14285699999999224,
          "durationTicks": 48,
          "midi": 62,
          "name": "D4",
          "ticks": 66336,
          "time": 197.42837400000002,
          "velocity": 1
        },
        {
          "duration": 0.14285699999999224,
          "durationTicks": 48,
          "midi": 60,
          "name": "C4",
          "ticks": 66336,
          "time": 197.42837400000002,
          "velocity": 0.4330708661417323
        },
        {
          "duration": 0.14285699999999224,
          "durationTicks": 48,
          "midi": 67,
          "name": "G4",
          "ticks": 66384,
          "time": 197.571231,
          "velocity": 1
        },
        {
          "duration": 0.14285699999999224,
          "durationTicks": 48,
          "midi": 62,
          "name": "D4",
          "ticks": 66384,
          "time": 197.571231,
          "velocity": 0.4330708661417323
        },
        {
          "duration": 0.14285700000002066,
          "durationTicks": 48,
          "midi": 67,
          "name": "G4",
          "ticks": 66432,
          "time": 197.714088,
          "velocity": 0.4330708661417323
        },
        {
          "duration": 0.14285699999999224,
          "durationTicks": 48,
          "midi": 67,
          "name": "G4",
          "ticks": 66480,
          "time": 197.85694500000002,
          "velocity": 1
        },
        {
          "duration": 0.14285699999999224,
          "durationTicks": 48,
          "midi": 67,
          "name": "G4",
          "ticks": 66528,
          "time": 197.99980200000002,
          "velocity": 0.4330708661417323
        },
        {
          "duration": 0.14285700000002066,
          "durationTicks": 48,
          "midi": 67,
          "name": "G4",
          "ticks": 66576,
          "time": 198.142659,
          "velocity": 1
        },
        {
          "duration": 0.14285699999999224,
          "durationTicks": 48,
          "midi": 65,
          "name": "F4",
          "ticks": 66624,
          "time": 198.28551600000003,
          "velocity": 1
        },
        {
          "duration": 0.14285699999999224,
          "durationTicks": 48,
          "midi": 67,
          "name": "G4",
          "ticks": 66624,
          "time": 198.28551600000003,
          "velocity": 0.4330708661417323
        },
        {
          "duration": 0.14285699999999224,
          "durationTicks": 48,
          "midi": 65,
          "name": "F4",
          "ticks": 66672,
          "time": 198.42837300000002,
          "velocity": 0.4330708661417323
        },
        {
          "duration": 0.14285699999999224,
          "durationTicks": 48,
          "midi": 65,
          "name": "F4",
          "ticks": 66720,
          "time": 198.57123,
          "velocity": 1
        },
        {
          "duration": 0.14285700000002066,
          "durationTicks": 48,
          "midi": 65,
          "name": "F4",
          "ticks": 66768,
          "time": 198.714087,
          "velocity": 0.4330708661417323
        },
        {
          "duration": 0.14285699999999224,
          "durationTicks": 48,
          "midi": 65,
          "name": "F4",
          "ticks": 66864,
          "time": 198.99980100000002,
          "velocity": 0.4330708661417323
        },
        {
          "duration": 0.14285699999999224,
          "durationTicks": 48,
          "midi": 62,
          "name": "D4",
          "ticks": 66912,
          "time": 199.142658,
          "velocity": 1
        },
        {
          "duration": 0.2857140000000129,
          "durationTicks": 96,
          "midi": 62,
          "name": "D4",
          "ticks": 66960,
          "time": 199.285515,
          "velocity": 0.4330708661417323
        },
        {
          "duration": 0.14285699999999224,
          "durationTicks": 48,
          "midi": 60,
          "name": "C4",
          "ticks": 67008,
          "time": 199.42837200000002,
          "velocity": 1
        },
        {
          "duration": 0.0029761874999962856,
          "durationTicks": 1,
          "midi": 60,
          "name": "C4",
          "ticks": 67056,
          "time": 199.57122900000002,
          "velocity": 1
        },
        {
          "duration": 0.14285700000002066,
          "durationTicks": 48,
          "midi": 62,
          "name": "D4",
          "ticks": 67104,
          "time": 199.714086,
          "velocity": 1
        },
        {
          "duration": 0.14285700000002066,
          "durationTicks": 48,
          "midi": 60,
          "name": "C4",
          "ticks": 67104,
          "time": 199.714086,
          "velocity": 0.4330708661417323
        },
        {
          "duration": 0.14285699999999224,
          "durationTicks": 48,
          "midi": 65,
          "name": "F4",
          "ticks": 67152,
          "time": 199.85694300000003,
          "velocity": 1
        },
        {
          "duration": 0.14285699999999224,
          "durationTicks": 48,
          "midi": 62,
          "name": "D4",
          "ticks": 67152,
          "time": 199.85694300000003,
          "velocity": 0.4330708661417323
        },
        {
          "duration": 0.14285699999999224,
          "durationTicks": 48,
          "midi": 65,
          "name": "F4",
          "ticks": 67200,
          "time": 199.99980000000002,
          "velocity": 0.4330708661417323
        },
        {
          "duration": 0.14285699999999224,
          "durationTicks": 48,
          "midi": 65,
          "name": "F4",
          "ticks": 67248,
          "time": 200.142657,
          "velocity": 1
        },
        {
          "duration": 0.14285700000002066,
          "durationTicks": 48,
          "midi": 62,
          "name": "D4",
          "ticks": 67296,
          "time": 200.285514,
          "velocity": 1
        },
        {
          "duration": 0.14285700000002066,
          "durationTicks": 48,
          "midi": 65,
          "name": "F4",
          "ticks": 67296,
          "time": 200.285514,
          "velocity": 0.4330708661417323
        },
        {
          "duration": 0.2857139999999845,
          "durationTicks": 96,
          "midi": 62,
          "name": "D4",
          "ticks": 67344,
          "time": 200.42837100000003,
          "velocity": 0.4330708661417323
        },
        {
          "duration": 0.14285699999999224,
          "durationTicks": 48,
          "midi": 60,
          "name": "C4",
          "ticks": 67392,
          "time": 200.57122800000002,
          "velocity": 1
        },
        {
          "duration": 0.2857140000000129,
          "durationTicks": 96,
          "midi": 60,
          "name": "C4",
          "ticks": 67440,
          "time": 200.714085,
          "velocity": 0.4330708661417323
        },
        {
          "duration": 0.14285700000002066,
          "durationTicks": 48,
          "midi": 62,
          "name": "D4",
          "ticks": 67488,
          "time": 200.856942,
          "velocity": 1
        },
        {
          "duration": 0.14583318749998853,
          "durationTicks": 49,
          "midi": 62,
          "name": "D4",
          "ticks": 67536,
          "time": 200.99979900000002,
          "velocity": 0.4330708661417323
        },
        {
          "duration": 0.14285699999999224,
          "durationTicks": 48,
          "midi": 69,
          "name": "A4",
          "ticks": 67584,
          "time": 201.14265600000002,
          "velocity": 1
        },
        {
          "duration": 0.2857140000000129,
          "durationTicks": 96,
          "midi": 69,
          "name": "A4",
          "ticks": 67632,
          "time": 201.285513,
          "velocity": 0.4330708661417323
        },
        {
          "duration": 0.14285699999999224,
          "durationTicks": 48,
          "midi": 69,
          "name": "A4",
          "ticks": 67728,
          "time": 201.57122700000002,
          "velocity": 1
        },
        {
          "duration": 0.2857140000000129,
          "durationTicks": 96,
          "midi": 69,
          "name": "A4",
          "ticks": 67776,
          "time": 201.714084,
          "velocity": 0.4330708661417323
        },
        {
          "duration": 0.14285699999999224,
          "durationTicks": 48,
          "midi": 69,
          "name": "A4",
          "ticks": 67872,
          "time": 201.99979800000003,
          "velocity": 1
        },
        {
          "duration": 0.14285699999999224,
          "durationTicks": 48,
          "midi": 69,
          "name": "A4",
          "ticks": 67920,
          "time": 202.14265500000002,
          "velocity": 0.4330708661417323
        },
        {
          "duration": 0.2857140000000129,
          "durationTicks": 96,
          "midi": 69,
          "name": "A4",
          "ticks": 67968,
          "time": 202.285512,
          "velocity": 1
        },
        {
          "duration": 0.14285699999999224,
          "durationTicks": 48,
          "midi": 67,
          "name": "G4",
          "ticks": 68064,
          "time": 202.57122600000002,
          "velocity": 1
        },
        {
          "duration": 0.2857140000000129,
          "durationTicks": 96,
          "midi": 72,
          "name": "C5",
          "ticks": 68112,
          "time": 202.71408300000002,
          "velocity": 1
        },
        {
          "duration": 0.14285699999999224,
          "durationTicks": 48,
          "midi": 67,
          "name": "G4",
          "ticks": 68208,
          "time": 202.99979700000003,
          "velocity": 1
        },
        {
          "duration": 0.2857139999999845,
          "durationTicks": 96,
          "midi": 69,
          "name": "A4",
          "ticks": 68256,
          "time": 203.14265400000002,
          "velocity": 1
        },
        {
          "duration": 0.14285699999999224,
          "durationTicks": 48,
          "midi": 65,
          "name": "F4",
          "ticks": 83712,
          "time": 249.14260800000002,
          "velocity": 1
        },
        {
          "duration": 0.2857140000000129,
          "durationTicks": 96,
          "midi": 65,
          "name": "F4",
          "ticks": 83760,
          "time": 249.28546500000002,
          "velocity": 0.4330708661417323
        },
        {
          "duration": 0.14285700000002066,
          "durationTicks": 48,
          "midi": 62,
          "name": "D4",
          "ticks": 83808,
          "time": 249.428322,
          "velocity": 1
        },
        {
          "duration": 0.2857139999999845,
          "durationTicks": 96,
          "midi": 62,
          "name": "D4",
          "ticks": 83856,
          "time": 249.57117900000003,
          "velocity": 0.4330708661417323
        },
        {
          "duration": 0.14285699999999224,
          "durationTicks": 48,
          "midi": 60,
          "name": "C4",
          "ticks": 83904,
          "time": 249.71403600000002,
          "velocity": 1
        },
        {
          "duration": 0.0029761874999962856,
          "durationTicks": 1,
          "midi": 60,
          "name": "C4",
          "ticks": 83952,
          "time": 249.856893,
          "velocity": 1
        },
        {
          "duration": 0.14285699999999224,
          "durationTicks": 48,
          "midi": 62,
          "name": "D4",
          "ticks": 84000,
          "time": 249.99975000000003,
          "velocity": 1
        },
        {
          "duration": 0.14285699999999224,
          "durationTicks": 48,
          "midi": 60,
          "name": "C4",
          "ticks": 84000,
          "time": 249.99975000000003,
          "velocity": 0.4330708661417323
        },
        {
          "duration": 0.14285699999999224,
          "durationTicks": 48,
          "midi": 65,
          "name": "F4",
          "ticks": 84048,
          "time": 250.14260700000003,
          "velocity": 1
        },
        {
          "duration": 0.14285699999999224,
          "durationTicks": 48,
          "midi": 62,
          "name": "D4",
          "ticks": 84048,
          "time": 250.14260700000003,
          "velocity": 0.4330708661417323
        },
        {
          "duration": 1.1428559999999948,
          "durationTicks": 384,
          "midi": 65,
          "name": "F4",
          "ticks": 84096,
          "time": 250.28546400000002,
          "velocity": 0.4330708661417323
        },
        {
          "duration": 0.14285699999999224,
          "durationTicks": 48,
          "midi": 65,
          "name": "F4",
          "ticks": 84528,
          "time": 251.57117700000003,
          "velocity": 0.4330708661417323
        },
        {
          "duration": 0.14285699999999224,
          "durationTicks": 48,
          "midi": 62,
          "name": "D4",
          "ticks": 84576,
          "time": 251.71403400000003,
          "velocity": 1
        },
        {
          "duration": 0.2857140000000129,
          "durationTicks": 96,
          "midi": 62,
          "name": "D4",
          "ticks": 84624,
          "time": 251.85689100000002,
          "velocity": 0.4330708661417323
        },
        {
          "duration": 0.14285700000002066,
          "durationTicks": 48,
          "midi": 60,
          "name": "C4",
          "ticks": 84672,
          "time": 251.999748,
          "velocity": 1
        },
        {
          "duration": 0.002976187499967864,
          "durationTicks": 1,
          "midi": 60,
          "name": "C4",
          "ticks": 84720,
          "time": 252.14260500000003,
          "velocity": 1
        },
        {
          "duration": 0.14285699999999224,
          "durationTicks": 48,
          "midi": 62,
          "name": "D4",
          "ticks": 84768,
          "time": 252.28546200000002,
          "velocity": 1
        },
        {
          "duration": 0.14285699999999224,
          "durationTicks": 48,
          "midi": 60,
          "name": "C4",
          "ticks": 84768,
          "time": 252.28546200000002,
          "velocity": 0.4330708661417323
        },
        {
          "duration": 0.14285699999999224,
          "durationTicks": 48,
          "midi": 67,
          "name": "G4",
          "ticks": 84816,
          "time": 252.42831900000002,
          "velocity": 1
        },
        {
          "duration": 0.14285699999999224,
          "durationTicks": 48,
          "midi": 62,
          "name": "D4",
          "ticks": 84816,
          "time": 252.42831900000002,
          "velocity": 0.4330708661417323
        },
        {
          "duration": 0.714285000000018,
          "durationTicks": 240,
          "midi": 67,
          "name": "G4",
          "ticks": 84864,
          "time": 252.571176,
          "velocity": 0.4330708661417323
        },
        {
          "duration": 0.14285699999999224,
          "durationTicks": 48,
          "midi": 65,
          "name": "F4",
          "ticks": 85056,
          "time": 253.14260400000003,
          "velocity": 1
        },
        {
          "duration": 0.42857100000000514,
          "durationTicks": 144,
          "midi": 65,
          "name": "F4",
          "ticks": 85104,
          "time": 253.28546100000003,
          "velocity": 0.4330708661417323
        },
        {
          "duration": 0.14285699999999224,
          "durationTicks": 48,
          "midi": 65,
          "name": "F4",
          "ticks": 85296,
          "time": 253.85688900000002,
          "velocity": 0.4330708661417323
        },
        {
          "duration": 0.14285699999999224,
          "durationTicks": 48,
          "midi": 62,
          "name": "D4",
          "ticks": 85344,
          "time": 253.99974600000002,
          "velocity": 1
        },
        {
          "duration": 0.2857140000000129,
          "durationTicks": 96,
          "midi": 62,
          "name": "D4",
          "ticks": 85392,
          "time": 254.142603,
          "velocity": 0.4330708661417323
        },
        {
          "duration": 0.14285699999999224,
          "durationTicks": 48,
          "midi": 60,
          "name": "C4",
          "ticks": 85440,
          "time": 254.28546000000003,
          "velocity": 1
        },
        {
          "duration": 0.0029761874999962856,
          "durationTicks": 1,
          "midi": 60,
          "name": "C4",
          "ticks": 85488,
          "time": 254.42831700000002,
          "velocity": 1
        },
        {
          "duration": 0.14285700000002066,
          "durationTicks": 48,
          "midi": 62,
          "name": "D4",
          "ticks": 85536,
          "time": 254.571174,
          "velocity": 1
        },
        {
          "duration": 0.14285700000002066,
          "durationTicks": 48,
          "midi": 60,
          "name": "C4",
          "ticks": 85536,
          "time": 254.571174,
          "velocity": 0.4330708661417323
        },
        {
          "duration": 0.14285699999999224,
          "durationTicks": 48,
          "midi": 65,
          "name": "F4",
          "ticks": 85584,
          "time": 254.71403100000003,
          "velocity": 1
        },
        {
          "duration": 0.14285699999999224,
          "durationTicks": 48,
          "midi": 62,
          "name": "D4",
          "ticks": 85584,
          "time": 254.71403100000003,
          "velocity": 0.4330708661417323
        },
        {
          "duration": 0.14285699999999224,
          "durationTicks": 48,
          "midi": 65,
          "name": "F4",
          "ticks": 85632,
          "time": 254.85688800000003,
          "velocity": 0.4330708661417323
        },
        {
          "duration": 0.14285699999999224,
          "durationTicks": 48,
          "midi": 65,
          "name": "F4",
          "ticks": 85680,
          "time": 254.99974500000002,
          "velocity": 1
        },
        {
          "duration": 0.14285700000002066,
          "durationTicks": 48,
          "midi": 62,
          "name": "D4",
          "ticks": 85728,
          "time": 255.142602,
          "velocity": 1
        },
        {
          "duration": 0.14285700000002066,
          "durationTicks": 48,
          "midi": 65,
          "name": "F4",
          "ticks": 85728,
          "time": 255.142602,
          "velocity": 0.4330708661417323
        },
        {
          "duration": 0.2857139999999845,
          "durationTicks": 96,
          "midi": 62,
          "name": "D4",
          "ticks": 85776,
          "time": 255.28545900000003,
          "velocity": 0.4330708661417323
        },
        {
          "duration": 0.14285699999999224,
          "durationTicks": 48,
          "midi": 60,
          "name": "C4",
          "ticks": 85824,
          "time": 255.42831600000002,
          "velocity": 1
        },
        {
          "duration": 0.2857140000000129,
          "durationTicks": 96,
          "midi": 60,
          "name": "C4",
          "ticks": 85872,
          "time": 255.57117300000002,
          "velocity": 0.4330708661417323
        },
        {
          "duration": 0.14285700000002066,
          "durationTicks": 48,
          "midi": 62,
          "name": "D4",
          "ticks": 85920,
          "time": 255.71403,
          "velocity": 1
        },
        {
          "duration": 0.14583318749998853,
          "durationTicks": 49,
          "midi": 62,
          "name": "D4",
          "ticks": 85968,
          "time": 255.85688700000003,
          "velocity": 0.4330708661417323
        },
        {
          "duration": 0.14285699999999224,
          "durationTicks": 48,
          "midi": 69,
          "name": "A4",
          "ticks": 86016,
          "time": 255.99974400000002,
          "velocity": 1
        },
        {
          "duration": 0.2857139999999845,
          "durationTicks": 96,
          "midi": 69,
          "name": "A4",
          "ticks": 86064,
          "time": 256.142601,
          "velocity": 0.4330708661417323
        },
        {
          "duration": 0.14285700000004908,
          "durationTicks": 48,
          "midi": 69,
          "name": "A4",
          "ticks": 86160,
          "time": 256.428315,
          "velocity": 1
        },
        {
          "duration": 0.2857139999999845,
          "durationTicks": 96,
          "midi": 69,
          "name": "A4",
          "ticks": 86208,
          "time": 256.57117200000005,
          "velocity": 0.4330708661417323
        },
        {
          "duration": 0.14285699999999224,
          "durationTicks": 48,
          "midi": 69,
          "name": "A4",
          "ticks": 86304,
          "time": 256.85688600000003,
          "velocity": 1
        },
        {
          "duration": 0.2857139999999845,
          "durationTicks": 96,
          "midi": 69,
          "name": "A4",
          "ticks": 86352,
          "time": 256.999743,
          "velocity": 0.4330708661417323
        },
        {
          "duration": 0.14285699999999224,
          "durationTicks": 48,
          "midi": 72,
          "name": "C5",
          "ticks": 86400,
          "time": 257.1426,
          "velocity": 1
        },
        {
          "duration": 0.2857140000000413,
          "durationTicks": 96,
          "midi": 72,
          "name": "C5",
          "ticks": 86448,
          "time": 257.285457,
          "velocity": 0.4330708661417323
        },
        {
          "duration": 0.14285699999999224,
          "durationTicks": 48,
          "midi": 72,
          "name": "C5",
          "ticks": 86544,
          "time": 257.57117100000005,
          "velocity": 1
        },
        {
          "duration": 0.2857139999999845,
          "durationTicks": 96,
          "midi": 72,
          "name": "C5",
          "ticks": 86592,
          "time": 257.71402800000004,
          "velocity": 0.4330708661417323
        },
        {
          "duration": 0.14285699999999224,
          "durationTicks": 48,
          "midi": 72,
          "name": "C5",
          "ticks": 86688,
          "time": 257.999742,
          "velocity": 1
        },
        {
          "duration": 0.14583318749998853,
          "durationTicks": 49,
          "midi": 72,
          "name": "C5",
          "ticks": 86736,
          "time": 258.142599,
          "velocity": 0.4330708661417323
        },
        {
          "duration": 0.14285699999999224,
          "durationTicks": 48,
          "midi": 65,
          "name": "F4",
          "ticks": 86784,
          "time": 258.285456,
          "velocity": 1
        },
        {
          "duration": 0.2857140000000413,
          "durationTicks": 96,
          "midi": 65,
          "name": "F4",
          "ticks": 86832,
          "time": 258.428313,
          "velocity": 0.4330708661417323
        },
        {
          "duration": 0.14285700000004908,
          "durationTicks": 48,
          "midi": 62,
          "name": "D4",
          "ticks": 86880,
          "time": 258.57117,
          "velocity": 1
        },
        {
          "duration": 0.2857139999999845,
          "durationTicks": 96,
          "midi": 62,
          "name": "D4",
          "ticks": 86928,
          "time": 258.71402700000004,
          "velocity": 0.4330708661417323
        },
        {
          "duration": 0.14285699999999224,
          "durationTicks": 48,
          "midi": 60,
          "name": "C4",
          "ticks": 86976,
          "time": 258.85688400000004,
          "velocity": 1
        },
        {
          "duration": 0.0029761874999962856,
          "durationTicks": 1,
          "midi": 60,
          "name": "C4",
          "ticks": 87024,
          "time": 258.99974100000003,
          "velocity": 1
        },
        {
          "duration": 0.14285699999999224,
          "durationTicks": 48,
          "midi": 62,
          "name": "D4",
          "ticks": 87072,
          "time": 259.142598,
          "velocity": 1
        },
        {
          "duration": 0.14285699999999224,
          "durationTicks": 48,
          "midi": 60,
          "name": "C4",
          "ticks": 87072,
          "time": 259.142598,
          "velocity": 0.4330708661417323
        },
        {
          "duration": 0.14285699999999224,
          "durationTicks": 48,
          "midi": 65,
          "name": "F4",
          "ticks": 87120,
          "time": 259.285455,
          "velocity": 1
        },
        {
          "duration": 0.14285699999999224,
          "durationTicks": 48,
          "midi": 62,
          "name": "D4",
          "ticks": 87120,
          "time": 259.285455,
          "velocity": 0.4330708661417323
        },
        {
          "duration": 0.14285699999999224,
          "durationTicks": 48,
          "midi": 65,
          "name": "F4",
          "ticks": 87168,
          "time": 259.428312,
          "velocity": 0.4330708661417323
        },
        {
          "duration": 0.14285700000004908,
          "durationTicks": 48,
          "midi": 65,
          "name": "F4",
          "ticks": 87216,
          "time": 259.571169,
          "velocity": 1
        },
        {
          "duration": 0.14285699999999224,
          "durationTicks": 48,
          "midi": 62,
          "name": "D4",
          "ticks": 87264,
          "time": 259.71402600000005,
          "velocity": 1
        },
        {
          "duration": 0.14285699999999224,
          "durationTicks": 48,
          "midi": 65,
          "name": "F4",
          "ticks": 87264,
          "time": 259.71402600000005,
          "velocity": 0.4330708661417323
        },
        {
          "duration": 0.2857139999999845,
          "durationTicks": 96,
          "midi": 62,
          "name": "D4",
          "ticks": 87312,
          "time": 259.85688300000004,
          "velocity": 0.4330708661417323
        },
        {
          "duration": 0.14285699999999224,
          "durationTicks": 48,
          "midi": 60,
          "name": "C4",
          "ticks": 87360,
          "time": 259.99974000000003,
          "velocity": 1
        },
        {
          "duration": 0.2857139999999845,
          "durationTicks": 96,
          "midi": 60,
          "name": "C4",
          "ticks": 87408,
          "time": 260.142597,
          "velocity": 0.4330708661417323
        },
        {
          "duration": 0.14285699999999224,
          "durationTicks": 48,
          "midi": 62,
          "name": "D4",
          "ticks": 87456,
          "time": 260.285454,
          "velocity": 1
        },
        {
          "duration": 0.14583318749998853,
          "durationTicks": 49,
          "midi": 62,
          "name": "D4",
          "ticks": 87504,
          "time": 260.428311,
          "velocity": 0.4330708661417323
        },
        {
          "duration": 0.14285700000004908,
          "durationTicks": 48,
          "midi": 65,
          "name": "F4",
          "ticks": 87552,
          "time": 260.571168,
          "velocity": 1
        },
        {
          "duration": 0.2857139999999845,
          "durationTicks": 96,
          "midi": 65,
          "name": "F4",
          "ticks": 87600,
          "time": 260.71402500000005,
          "velocity": 0.4330708661417323
        },
        {
          "duration": 0.14285699999999224,
          "durationTicks": 48,
          "midi": 62,
          "name": "D4",
          "ticks": 87648,
          "time": 260.85688200000004,
          "velocity": 1
        },
        {
          "duration": 0.2857139999999845,
          "durationTicks": 96,
          "midi": 62,
          "name": "D4",
          "ticks": 87696,
          "time": 260.99973900000003,
          "velocity": 0.4330708661417323
        },
        {
          "duration": 0.14285699999999224,
          "durationTicks": 48,
          "midi": 60,
          "name": "C4",
          "ticks": 87744,
          "time": 261.142596,
          "velocity": 1
        },
        {
          "duration": 0.0029761874999962856,
          "durationTicks": 1,
          "midi": 60,
          "name": "C4",
          "ticks": 87792,
          "time": 261.285453,
          "velocity": 1
        },
        {
          "duration": 0.14285699999999224,
          "durationTicks": 48,
          "midi": 62,
          "name": "D4",
          "ticks": 87840,
          "time": 261.42831,
          "velocity": 1
        },
        {
          "duration": 0.14285699999999224,
          "durationTicks": 48,
          "midi": 60,
          "name": "C4",
          "ticks": 87840,
          "time": 261.42831,
          "velocity": 0.4330708661417323
        },
        {
          "duration": 0.14285699999999224,
          "durationTicks": 48,
          "midi": 67,
          "name": "G4",
          "ticks": 87888,
          "time": 261.571167,
          "velocity": 1
        },
        {
          "duration": 0.14285699999999224,
          "durationTicks": 48,
          "midi": 62,
          "name": "D4",
          "ticks": 87888,
          "time": 261.571167,
          "velocity": 0.4330708661417323
        },
        {
          "duration": 0.14285700000004908,
          "durationTicks": 48,
          "midi": 67,
          "name": "G4",
          "ticks": 87936,
          "time": 261.714024,
          "velocity": 0.4330708661417323
        },
        {
          "duration": 0.14285699999999224,
          "durationTicks": 48,
          "midi": 67,
          "name": "G4",
          "ticks": 87984,
          "time": 261.85688100000004,
          "velocity": 1
        },
        {
          "duration": 0.14285699999999224,
          "durationTicks": 48,
          "midi": 67,
          "name": "G4",
          "ticks": 88032,
          "time": 261.99973800000004,
          "velocity": 0.4330708661417323
        },
        {
          "duration": 0.14285699999999224,
          "durationTicks": 48,
          "midi": 67,
          "name": "G4",
          "ticks": 88080,
          "time": 262.14259500000003,
          "velocity": 1
        },
        {
          "duration": 0.14285699999999224,
          "durationTicks": 48,
          "midi": 65,
          "name": "F4",
          "ticks": 88128,
          "time": 262.285452,
          "velocity": 1
        },
        {
          "duration": 0.14285699999999224,
          "durationTicks": 48,
          "midi": 67,
          "name": "G4",
          "ticks": 88128,
          "time": 262.285452,
          "velocity": 0.4330708661417323
        },
        {
          "duration": 0.14285699999999224,
          "durationTicks": 48,
          "midi": 65,
          "name": "F4",
          "ticks": 88176,
          "time": 262.428309,
          "velocity": 0.4330708661417323
        },
        {
          "duration": 0.14285699999999224,
          "durationTicks": 48,
          "midi": 65,
          "name": "F4",
          "ticks": 88224,
          "time": 262.571166,
          "velocity": 1
        },
        {
          "duration": 0.14285700000004908,
          "durationTicks": 48,
          "midi": 65,
          "name": "F4",
          "ticks": 88272,
          "time": 262.714023,
          "velocity": 0.4330708661417323
        },
        {
          "duration": 0.14285699999999224,
          "durationTicks": 48,
          "midi": 65,
          "name": "F4",
          "ticks": 88368,
          "time": 262.99973700000004,
          "velocity": 0.4330708661417323
        },
        {
          "duration": 0.14285699999999224,
          "durationTicks": 48,
          "midi": 62,
          "name": "D4",
          "ticks": 88416,
          "time": 263.14259400000003,
          "velocity": 1
        },
        {
          "duration": 0.2857139999999845,
          "durationTicks": 96,
          "midi": 62,
          "name": "D4",
          "ticks": 88464,
          "time": 263.285451,
          "velocity": 0.4330708661417323
        },
        {
          "duration": 0.14285699999999224,
          "durationTicks": 48,
          "midi": 60,
          "name": "C4",
          "ticks": 88512,
          "time": 263.428308,
          "velocity": 1
        },
        {
          "duration": 0.0029761874999962856,
          "durationTicks": 1,
          "midi": 60,
          "name": "C4",
          "ticks": 88560,
          "time": 263.571165,
          "velocity": 1
        },
        {
          "duration": 0.14285700000004908,
          "durationTicks": 48,
          "midi": 62,
          "name": "D4",
          "ticks": 88608,
          "time": 263.714022,
          "velocity": 1
        },
        {
          "duration": 0.14285700000004908,
          "durationTicks": 48,
          "midi": 60,
          "name": "C4",
          "ticks": 88608,
          "time": 263.714022,
          "velocity": 0.4330708661417323
        },
        {
          "duration": 0.14285699999999224,
          "durationTicks": 48,
          "midi": 65,
          "name": "F4",
          "ticks": 88656,
          "time": 263.85687900000005,
          "velocity": 1
        },
        {
          "duration": 0.14285699999999224,
          "durationTicks": 48,
          "midi": 62,
          "name": "D4",
          "ticks": 88656,
          "time": 263.85687900000005,
          "velocity": 0.4330708661417323
        },
        {
          "duration": 0.14285699999999224,
          "durationTicks": 48,
          "midi": 65,
          "name": "F4",
          "ticks": 88704,
          "time": 263.99973600000004,
          "velocity": 0.4330708661417323
        },
        {
          "duration": 0.14285699999999224,
          "durationTicks": 48,
          "midi": 65,
          "name": "F4",
          "ticks": 88752,
          "time": 264.14259300000003,
          "velocity": 1
        },
        {
          "duration": 0.14285699999999224,
          "durationTicks": 48,
          "midi": 62,
          "name": "D4",
          "ticks": 88800,
          "time": 264.28545,
          "velocity": 1
        },
        {
          "duration": 0.14285699999999224,
          "durationTicks": 48,
          "midi": 65,
          "name": "F4",
          "ticks": 88800,
          "time": 264.28545,
          "velocity": 0.4330708661417323
        },
        {
          "duration": 0.2857139999999845,
          "durationTicks": 96,
          "midi": 62,
          "name": "D4",
          "ticks": 88848,
          "time": 264.428307,
          "velocity": 0.4330708661417323
        },
        {
          "duration": 0.14285699999999224,
          "durationTicks": 48,
          "midi": 60,
          "name": "C4",
          "ticks": 88896,
          "time": 264.571164,
          "velocity": 1
        },
        {
          "duration": 0.2857140000000413,
          "durationTicks": 96,
          "midi": 60,
          "name": "C4",
          "ticks": 88944,
          "time": 264.714021,
          "velocity": 0.4330708661417323
        },
        {
          "duration": 0.14285700000004908,
          "durationTicks": 48,
          "midi": 62,
          "name": "D4",
          "ticks": 88992,
          "time": 264.856878,
          "velocity": 1
        },
        {
          "duration": 0.14583318749998853,
          "durationTicks": 49,
          "midi": 62,
          "name": "D4",
          "ticks": 89040,
          "time": 264.99973500000004,
          "velocity": 0.4330708661417323
        },
        {
          "duration": 0.14285699999999224,
          "durationTicks": 48,
          "midi": 69,
          "name": "A4",
          "ticks": 89088,
          "time": 265.14259200000004,
          "velocity": 1
        },
        {
          "duration": 0.2857139999999845,
          "durationTicks": 96,
          "midi": 69,
          "name": "A4",
          "ticks": 89136,
          "time": 265.285449,
          "velocity": 0.4330708661417323
        },
        {
          "duration": 0.14285699999999224,
          "durationTicks": 48,
          "midi": 69,
          "name": "A4",
          "ticks": 89232,
          "time": 265.571163,
          "velocity": 1
        },
        {
          "duration": 0.2857140000000413,
          "durationTicks": 96,
          "midi": 69,
          "name": "A4",
          "ticks": 89280,
          "time": 265.71402,
          "velocity": 0.4330708661417323
        },
        {
          "duration": 0.14285699999999224,
          "durationTicks": 48,
          "midi": 69,
          "name": "A4",
          "ticks": 89376,
          "time": 265.99973400000005,
          "velocity": 1
        },
        {
          "duration": 0.14285699999999224,
          "durationTicks": 48,
          "midi": 69,
          "name": "A4",
          "ticks": 89424,
          "time": 266.14259100000004,
          "velocity": 0.4330708661417323
        },
        {
          "duration": 0.14285699999999224,
          "durationTicks": 48,
          "midi": 69,
          "name": "A4",
          "ticks": 89472,
          "time": 266.28544800000003,
          "velocity": 1
        },
        {
          "duration": 0.2857139999999845,
          "durationTicks": 96,
          "midi": 69,
          "name": "A4",
          "ticks": 89520,
          "time": 266.428305,
          "velocity": 0.4330708661417323
        },
        {
          "duration": 0.14285699999999224,
          "durationTicks": 48,
          "midi": 67,
          "name": "G4",
          "ticks": 89568,
          "time": 266.571162,
          "velocity": 1
        },
        {
          "duration": 0.14285699999999224,
          "durationTicks": 48,
          "midi": 72,
          "name": "C5",
          "ticks": 89616,
          "time": 266.714019,
          "velocity": 1
        },
        {
          "duration": 0.14285699999999224,
          "durationTicks": 48,
          "midi": 67,
          "name": "G4",
          "ticks": 89616,
          "time": 266.714019,
          "velocity": 0.4330708661417323
        },
        {
          "duration": 0.2857140000000413,
          "durationTicks": 96,
          "midi": 72,
          "name": "C5",
          "ticks": 89664,
          "time": 266.856876,
          "velocity": 0.4330708661417323
        },
        {
          "duration": 0.14285699999999224,
          "durationTicks": 48,
          "midi": 67,
          "name": "G4",
          "ticks": 89712,
          "time": 266.99973300000005,
          "velocity": 1
        },
        {
          "duration": 0.14285699999999224,
          "durationTicks": 48,
          "midi": 69,
          "name": "A4",
          "ticks": 89760,
          "time": 267.14259000000004,
          "velocity": 1
        },
        {
          "duration": 0.14285699999999224,
          "durationTicks": 48,
          "midi": 67,
          "name": "G4",
          "ticks": 89760,
          "time": 267.14259000000004,
          "velocity": 0.4330708661417323
        },
        {
          "duration": 0.7142849999999612,
          "durationTicks": 240,
          "midi": 69,
          "name": "A4",
          "ticks": 89808,
          "time": 267.28544700000003,
          "velocity": 0.4330708661417323
        }
      ],
      "endOfTrackTicks": 91104
    },
    {
      "channel": 0,
      "controlChanges": {},
      "pitchBends": [],
      "instrument": {
        "family": "piano",
        "number": 0,
        "name": "acoustic grand piano"
      },
      "name": "",
      "notes": []
    },
    {
      "channel": 4,
      "controlChanges": {
        "1": [
          {
            "number": 1,
            "ticks": 78480,
            "time": 233.57119500000002,
            "value": 0
          }
        ],
        "7": [
          {
            "number": 7,
            "ticks": 0,
            "time": 0,
            "value": 0.7874015748031497
          },
          {
            "number": 7,
            "ticks": 78528,
            "time": 233.714052,
            "value": 0.7874015748031497
          }
        ],
        "10": [
          {
            "number": 10,
            "ticks": 0,
            "time": 0,
            "value": 0.25196850393700787
          },
          {
            "number": 10,
            "ticks": 78432,
            "time": 233.42833800000002,
            "value": 0.5039370078740157
          }
        ],
        "64": [
          {
            "number": 64,
            "ticks": 78720,
            "time": 234.28548,
            "value": 0
          }
        ],
        "91": [
          {
            "number": 91,
            "ticks": 132,
            "time": 0.39285675000000003,
            "value": 1
          },
          {
            "number": 91,
            "ticks": 78384,
            "time": 233.28548100000003,
            "value": 0.31496062992125984
          }
        ],
        "93": [
          {
            "number": 93,
            "ticks": 288,
            "time": 0.8571420000000001,
            "value": 1
          },
          {
            "number": 93,
            "ticks": 78672,
            "time": 234.14262300000001,
            "value": 0
          }
        ]
      },
      "pitchBends": [
        {
          "ticks": 78768,
          "time": 234.42833700000003,
          "value": 0
        }
      ],
      "instrument": {
        "family": "guitar",
        "number": 29,
        "name": "overdriven guitar"
      },
      "name": "OD guitar           ",
      "notes": [
        {
          "duration": 0.14285699999999935,
          "durationTicks": 48,
          "midi": 62,
          "name": "D4",
          "ticks": 19200,
          "time": 57.14280000000001,
          "velocity": 0.7716535433070866
        },
        {
          "duration": 0.14285699999999935,
          "durationTicks": 48,
          "midi": 62,
          "name": "D4",
          "ticks": 19248,
          "time": 57.28565700000001,
          "velocity": 0.7716535433070866
        },
        {
          "duration": 0.14285699999999935,
          "durationTicks": 48,
          "midi": 64,
          "name": "E4",
          "ticks": 19296,
          "time": 57.42851400000001,
          "velocity": 0.7716535433070866
        },
        {
          "duration": 0.42857099999999804,
          "durationTicks": 144,
          "midi": 65,
          "name": "F4",
          "ticks": 19344,
          "time": 57.571371000000006,
          "velocity": 0.7716535433070866
        },
        {
          "duration": 0.14285699999999935,
          "durationTicks": 48,
          "midi": 60,
          "name": "C4",
          "ticks": 19968,
          "time": 59.428512000000005,
          "velocity": 0.7716535433070866
        },
        {
          "duration": 0.14285699999999935,
          "durationTicks": 48,
          "midi": 60,
          "name": "C4",
          "ticks": 20016,
          "time": 59.571369000000004,
          "velocity": 0.7716535433070866
        },
        {
          "duration": 0.14285699999999935,
          "durationTicks": 48,
          "midi": 62,
          "name": "D4",
          "ticks": 20064,
          "time": 59.714226000000004,
          "velocity": 0.7716535433070866
        },
        {
          "duration": 0.42857100000000514,
          "durationTicks": 144,
          "midi": 64,
          "name": "E4",
          "ticks": 20112,
          "time": 59.857083,
          "velocity": 0.7716535433070866
        },
        {
          "duration": 0.14285700000000645,
          "durationTicks": 48,
          "midi": 58,
          "name": "A#3",
          "ticks": 20736,
          "time": 61.714224,
          "velocity": 0.7716535433070866
        },
        {
          "duration": 0.14285699999999935,
          "durationTicks": 48,
          "midi": 58,
          "name": "A#3",
          "ticks": 20784,
          "time": 61.85708100000001,
          "velocity": 0.7716535433070866
        },
        {
          "duration": 0.14285699999999935,
          "durationTicks": 48,
          "midi": 60,
          "name": "C4",
          "ticks": 20832,
          "time": 61.99993800000001,
          "velocity": 0.7716535433070866
        },
        {
          "duration": 0.14285699999999935,
          "durationTicks": 48,
          "midi": 62,
          "name": "D4",
          "ticks": 20880,
          "time": 62.14279500000001,
          "velocity": 0.7716535433070866
        },
        {
          "duration": 0.14285700000000645,
          "durationTicks": 48,
          "midi": 57,
          "name": "A3",
          "ticks": 21504,
          "time": 63.999936000000005,
          "velocity": 0.7716535433070866
        },
        {
          "duration": 0.14285699999999224,
          "durationTicks": 48,
          "midi": 57,
          "name": "A3",
          "ticks": 21552,
          "time": 64.14279300000001,
          "velocity": 0.7716535433070866
        },
        {
          "duration": 0.14285700000000645,
          "durationTicks": 48,
          "midi": 58,
          "name": "A#3",
          "ticks": 21600,
          "time": 64.28565,
          "velocity": 0.7716535433070866
        },
        {
          "duration": 0.7142849999999896,
          "durationTicks": 240,
          "midi": 61,
          "name": "C#4",
          "ticks": 21648,
          "time": 64.42850700000001,
          "velocity": 0.7716535433070866
        },
        {
          "duration": 0.14285700000000645,
          "durationTicks": 48,
          "midi": 57,
          "name": "A3",
          "ticks": 21888,
          "time": 65.142792,
          "velocity": 0.7716535433070866
        },
        {
          "duration": 0.14285699999999224,
          "durationTicks": 48,
          "midi": 58,
          "name": "A#3",
          "ticks": 21936,
          "time": 65.285649,
          "velocity": 0.7716535433070866
        },
        {
          "duration": 0.14285700000000645,
          "durationTicks": 48,
          "midi": 61,
          "name": "C#4",
          "ticks": 21984,
          "time": 65.428506,
          "velocity": 0.7716535433070866
        },
        {
          "duration": 0.14285700000000645,
          "durationTicks": 48,
          "midi": 64,
          "name": "E4",
          "ticks": 22032,
          "time": 65.571363,
          "velocity": 0.7716535433070866
        },
        {
          "duration": 0.14285699999999224,
          "durationTicks": 48,
          "midi": 62,
          "name": "D4",
          "ticks": 22272,
          "time": 66.28564800000001,
          "velocity": 0.7716535433070866
        },
        {
          "duration": 0.14285700000000645,
          "durationTicks": 48,
          "midi": 62,
          "name": "D4",
          "ticks": 22320,
          "time": 66.428505,
          "velocity": 0.7716535433070866
        },
        {
          "duration": 0.14285699999999224,
          "durationTicks": 48,
          "midi": 64,
          "name": "E4",
          "ticks": 22368,
          "time": 66.57136200000001,
          "velocity": 0.7716535433070866
        },
        {
          "duration": 0.42857100000000514,
          "durationTicks": 144,
          "midi": 65,
          "name": "F4",
          "ticks": 22416,
          "time": 66.714219,
          "velocity": 0.7716535433070866
        },
        {
          "duration": 0.14285699999999224,
          "durationTicks": 48,
          "midi": 62,
          "name": "D4",
          "ticks": 25344,
          "time": 75.42849600000001,
          "velocity": 0.7716535433070866
        },
        {
          "duration": 0.14285700000000645,
          "durationTicks": 48,
          "midi": 62,
          "name": "D4",
          "ticks": 25392,
          "time": 75.571353,
          "velocity": 0.7716535433070866
        },
        {
          "duration": 0.14285699999999224,
          "durationTicks": 48,
          "midi": 64,
          "name": "E4",
          "ticks": 25440,
          "time": 75.71421000000001,
          "velocity": 0.7716535433070866
        },
        {
          "duration": 0.42857100000000514,
          "durationTicks": 144,
          "midi": 65,
          "name": "F4",
          "ticks": 25488,
          "time": 75.857067,
          "velocity": 0.7716535433070866
        },
        {
          "duration": 0.14285699999999224,
          "durationTicks": 48,
          "midi": 60,
          "name": "C4",
          "ticks": 26112,
          "time": 77.71420800000001,
          "velocity": 0.7716535433070866
        },
        {
          "duration": 0.14285700000000645,
          "durationTicks": 48,
          "midi": 60,
          "name": "C4",
          "ticks": 26160,
          "time": 77.857065,
          "velocity": 0.7716535433070866
        },
        {
          "duration": 0.14285699999999224,
          "durationTicks": 48,
          "midi": 62,
          "name": "D4",
          "ticks": 26208,
          "time": 77.99992200000001,
          "velocity": 0.7716535433070866
        },
        {
          "duration": 0.42857100000000514,
          "durationTicks": 144,
          "midi": 64,
          "name": "E4",
          "ticks": 26256,
          "time": 78.142779,
          "velocity": 0.7716535433070866
        },
        {
          "duration": 0.14285700000000645,
          "durationTicks": 48,
          "midi": 58,
          "name": "A#3",
          "ticks": 26880,
          "time": 79.99992,
          "velocity": 0.7716535433070866
        },
        {
          "duration": 0.14285699999999224,
          "durationTicks": 48,
          "midi": 58,
          "name": "A#3",
          "ticks": 26928,
          "time": 80.14277700000001,
          "velocity": 0.7716535433070866
        },
        {
          "duration": 0.14285700000000645,
          "durationTicks": 48,
          "midi": 60,
          "name": "C4",
          "ticks": 26976,
          "time": 80.285634,
          "velocity": 0.7716535433070866
        },
        {
          "duration": 0.14285699999999224,
          "durationTicks": 48,
          "midi": 62,
          "name": "D4",
          "ticks": 27024,
          "time": 80.42849100000001,
          "velocity": 0.7716535433070866
        },
        {
          "duration": 0.14285700000000645,
          "durationTicks": 48,
          "midi": 57,
          "name": "A3",
          "ticks": 27648,
          "time": 82.285632,
          "velocity": 0.7716535433070866
        },
        {
          "duration": 0.14285699999999224,
          "durationTicks": 48,
          "midi": 57,
          "name": "A3",
          "ticks": 27696,
          "time": 82.42848900000001,
          "velocity": 0.7716535433070866
        },
        {
          "duration": 0.14285700000000645,
          "durationTicks": 48,
          "midi": 58,
          "name": "A#3",
          "ticks": 27744,
          "time": 82.571346,
          "velocity": 0.7716535433070866
        },
        {
          "duration": 0.7142849999999896,
          "durationTicks": 240,
          "midi": 61,
          "name": "C#4",
          "ticks": 27792,
          "time": 82.71420300000001,
          "velocity": 0.7716535433070866
        },
        {
          "duration": 0.14285700000000645,
          "durationTicks": 48,
          "midi": 57,
          "name": "A3",
          "ticks": 28032,
          "time": 83.428488,
          "velocity": 0.7716535433070866
        },
        {
          "duration": 0.14285699999999224,
          "durationTicks": 48,
          "midi": 58,
          "name": "A#3",
          "ticks": 28080,
          "time": 83.57134500000001,
          "velocity": 0.7716535433070866
        },
        {
          "duration": 0.14285700000000645,
          "durationTicks": 48,
          "midi": 61,
          "name": "C#4",
          "ticks": 28128,
          "time": 83.714202,
          "velocity": 0.7716535433070866
        },
        {
          "duration": 0.14285700000000645,
          "durationTicks": 48,
          "midi": 64,
          "name": "E4",
          "ticks": 28176,
          "time": 83.857059,
          "velocity": 0.7716535433070866
        },
        {
          "duration": 0.14285699999999224,
          "durationTicks": 48,
          "midi": 62,
          "name": "D4",
          "ticks": 28416,
          "time": 84.57134400000001,
          "velocity": 0.7716535433070866
        },
        {
          "duration": 0.14285700000000645,
          "durationTicks": 48,
          "midi": 62,
          "name": "D4",
          "ticks": 28464,
          "time": 84.714201,
          "velocity": 0.7716535433070866
        },
        {
          "duration": 0.14285699999999224,
          "durationTicks": 48,
          "midi": 64,
          "name": "E4",
          "ticks": 28512,
          "time": 84.85705800000001,
          "velocity": 0.7716535433070866
        },
        {
          "duration": 0.42857100000000514,
          "durationTicks": 144,
          "midi": 65,
          "name": "F4",
          "ticks": 28560,
          "time": 84.999915,
          "velocity": 0.7716535433070866
        },
        {
          "duration": 0.14285700000002066,
          "durationTicks": 48,
          "midi": 62,
          "name": "D4",
          "ticks": 49920,
          "time": 148.57128,
          "velocity": 0.7716535433070866
        },
        {
          "duration": 0.14285699999999224,
          "durationTicks": 48,
          "midi": 62,
          "name": "D4",
          "ticks": 49968,
          "time": 148.71413700000002,
          "velocity": 0.7716535433070866
        },
        {
          "duration": 0.14285699999999224,
          "durationTicks": 48,
          "midi": 64,
          "name": "E4",
          "ticks": 50016,
          "time": 148.85699400000001,
          "velocity": 0.7716535433070866
        },
        {
          "duration": 0.42857100000000514,
          "durationTicks": 144,
          "midi": 65,
          "name": "F4",
          "ticks": 50064,
          "time": 148.999851,
          "velocity": 0.7716535433070866
        },
        {
          "duration": 0.14285699999999224,
          "durationTicks": 48,
          "midi": 60,
          "name": "C4",
          "ticks": 50688,
          "time": 150.85699200000002,
          "velocity": 0.7716535433070866
        },
        {
          "duration": 0.14285699999999224,
          "durationTicks": 48,
          "midi": 60,
          "name": "C4",
          "ticks": 50736,
          "time": 150.999849,
          "velocity": 0.7716535433070866
        },
        {
          "duration": 0.14285700000002066,
          "durationTicks": 48,
          "midi": 62,
          "name": "D4",
          "ticks": 50784,
          "time": 151.142706,
          "velocity": 0.7716535433070866
        },
        {
          "duration": 0.4285709999999767,
          "durationTicks": 144,
          "midi": 64,
          "name": "E4",
          "ticks": 50832,
          "time": 151.28556300000002,
          "velocity": 0.7716535433070866
        },
        {
          "duration": 0.14285699999999224,
          "durationTicks": 48,
          "midi": 58,
          "name": "A#3",
          "ticks": 51456,
          "time": 153.142704,
          "velocity": 0.7716535433070866
        },
        {
          "duration": 0.14285700000002066,
          "durationTicks": 48,
          "midi": 58,
          "name": "A#3",
          "ticks": 51504,
          "time": 153.285561,
          "velocity": 0.7716535433070866
        },
        {
          "duration": 0.14285699999999224,
          "durationTicks": 48,
          "midi": 60,
          "name": "C4",
          "ticks": 51552,
          "time": 153.42841800000002,
          "velocity": 0.7716535433070866
        },
        {
          "duration": 0.14285699999999224,
          "durationTicks": 48,
          "midi": 62,
          "name": "D4",
          "ticks": 51600,
          "time": 153.571275,
          "velocity": 0.7716535433070866
        },
        {
          "duration": 0.14285699999999224,
          "durationTicks": 48,
          "midi": 57,
          "name": "A3",
          "ticks": 52224,
          "time": 155.42841600000003,
          "velocity": 0.7716535433070866
        },
        {
          "duration": 0.14285699999999224,
          "durationTicks": 48,
          "midi": 57,
          "name": "A3",
          "ticks": 52272,
          "time": 155.57127300000002,
          "velocity": 0.7716535433070866
        },
        {
          "duration": 0.14285699999999224,
          "durationTicks": 48,
          "midi": 58,
          "name": "A#3",
          "ticks": 52320,
          "time": 155.71413,
          "velocity": 0.7716535433070866
        },
        {
          "duration": 0.714285000000018,
          "durationTicks": 240,
          "midi": 61,
          "name": "C#4",
          "ticks": 52368,
          "time": 155.856987,
          "velocity": 0.7716535433070866
        },
        {
          "duration": 0.14285699999999224,
          "durationTicks": 48,
          "midi": 57,
          "name": "A3",
          "ticks": 52608,
          "time": 156.57127200000002,
          "velocity": 0.7716535433070866
        },
        {
          "duration": 0.14285699999999224,
          "durationTicks": 48,
          "midi": 58,
          "name": "A#3",
          "ticks": 52656,
          "time": 156.714129,
          "velocity": 0.7716535433070866
        },
        {
          "duration": 0.14285700000002066,
          "durationTicks": 48,
          "midi": 61,
          "name": "C#4",
          "ticks": 52704,
          "time": 156.856986,
          "velocity": 0.7716535433070866
        },
        {
          "duration": 0.14285699999999224,
          "durationTicks": 48,
          "midi": 64,
          "name": "E4",
          "ticks": 52752,
          "time": 156.99984300000003,
          "velocity": 0.7716535433070866
        },
        {
          "duration": 0.14285699999999224,
          "durationTicks": 48,
          "midi": 62,
          "name": "D4",
          "ticks": 52992,
          "time": 157.71412800000002,
          "velocity": 0.7716535433070866
        },
        {
          "duration": 0.14285699999999224,
          "durationTicks": 48,
          "midi": 62,
          "name": "D4",
          "ticks": 53040,
          "time": 157.856985,
          "velocity": 0.7716535433070866
        },
        {
          "duration": 0.14285700000002066,
          "durationTicks": 48,
          "midi": 64,
          "name": "E4",
          "ticks": 53088,
          "time": 157.999842,
          "velocity": 0.7716535433070866
        },
        {
          "duration": 0.42857100000000514,
          "durationTicks": 144,
          "midi": 65,
          "name": "F4",
          "ticks": 53136,
          "time": 158.14269900000002,
          "velocity": 0.7716535433070866
        },
        {
          "duration": 0.14285700000002066,
          "durationTicks": 48,
          "midi": 62,
          "name": "D4",
          "ticks": 56064,
          "time": 166.856976,
          "velocity": 0.7874015748031497
        },
        {
          "duration": 0.14285699999999224,
          "durationTicks": 48,
          "midi": 62,
          "name": "D4",
          "ticks": 56112,
          "time": 166.99983300000002,
          "velocity": 0.7874015748031497
        },
        {
          "duration": 0.14285699999999224,
          "durationTicks": 48,
          "midi": 64,
          "name": "E4",
          "ticks": 56160,
          "time": 167.14269000000002,
          "velocity": 0.7874015748031497
        },
        {
          "duration": 0.42857100000000514,
          "durationTicks": 144,
          "midi": 65,
          "name": "F4",
          "ticks": 56208,
          "time": 167.285547,
          "velocity": 0.7874015748031497
        },
        {
          "duration": 0.14285699999999224,
          "durationTicks": 48,
          "midi": 60,
          "name": "C4",
          "ticks": 56832,
          "time": 169.14268800000002,
          "velocity": 0.7874015748031497
        },
        {
          "duration": 0.14285699999999224,
          "durationTicks": 48,
          "midi": 60,
          "name": "C4",
          "ticks": 56880,
          "time": 169.285545,
          "velocity": 0.7874015748031497
        },
        {
          "duration": 0.14285700000002066,
          "durationTicks": 48,
          "midi": 62,
          "name": "D4",
          "ticks": 56928,
          "time": 169.428402,
          "velocity": 0.7874015748031497
        },
        {
          "duration": 0.4285709999999767,
          "durationTicks": 144,
          "midi": 64,
          "name": "E4",
          "ticks": 56976,
          "time": 169.57125900000003,
          "velocity": 0.7874015748031497
        },
        {
          "duration": 0.14285699999999224,
          "durationTicks": 48,
          "midi": 58,
          "name": "A#3",
          "ticks": 57600,
          "time": 171.4284,
          "velocity": 0.7874015748031497
        },
        {
          "duration": 0.14285700000002066,
          "durationTicks": 48,
          "midi": 58,
          "name": "A#3",
          "ticks": 57648,
          "time": 171.571257,
          "velocity": 0.7874015748031497
        },
        {
          "duration": 0.14285699999999224,
          "durationTicks": 48,
          "midi": 60,
          "name": "C4",
          "ticks": 57696,
          "time": 171.71411400000002,
          "velocity": 0.7874015748031497
        },
        {
          "duration": 0.14285699999999224,
          "durationTicks": 48,
          "midi": 62,
          "name": "D4",
          "ticks": 57744,
          "time": 171.85697100000002,
          "velocity": 0.7874015748031497
        },
        {
          "duration": 0.14285700000002066,
          "durationTicks": 48,
          "midi": 57,
          "name": "A3",
          "ticks": 58368,
          "time": 173.714112,
          "velocity": 0.7874015748031497
        },
        {
          "duration": 0.14285699999999224,
          "durationTicks": 48,
          "midi": 57,
          "name": "A3",
          "ticks": 58416,
          "time": 173.85696900000002,
          "velocity": 0.7874015748031497
        },
        {
          "duration": 0.14285699999999224,
          "durationTicks": 48,
          "midi": 58,
          "name": "A#3",
          "ticks": 58464,
          "time": 173.999826,
          "velocity": 0.7874015748031497
        },
        {
          "duration": 0.714285000000018,
          "durationTicks": 240,
          "midi": 61,
          "name": "C#4",
          "ticks": 58512,
          "time": 174.142683,
          "velocity": 0.7874015748031497
        },
        {
          "duration": 0.14285699999999224,
          "durationTicks": 48,
          "midi": 57,
          "name": "A3",
          "ticks": 58752,
          "time": 174.85696800000002,
          "velocity": 0.7874015748031497
        },
        {
          "duration": 0.14285699999999224,
          "durationTicks": 48,
          "midi": 58,
          "name": "A#3",
          "ticks": 58800,
          "time": 174.99982500000002,
          "velocity": 0.7874015748031497
        },
        {
          "duration": 0.14285700000002066,
          "durationTicks": 48,
          "midi": 61,
          "name": "C#4",
          "ticks": 58848,
          "time": 175.142682,
          "velocity": 0.7874015748031497
        },
        {
          "duration": 0.14285699999999224,
          "durationTicks": 48,
          "midi": 64,
          "name": "E4",
          "ticks": 58896,
          "time": 175.28553900000003,
          "velocity": 0.7874015748031497
        },
        {
          "duration": 0.14285699999999224,
          "durationTicks": 48,
          "midi": 62,
          "name": "D4",
          "ticks": 59136,
          "time": 175.99982400000002,
          "velocity": 0.7874015748031497
        },
        {
          "duration": 0.14285699999999224,
          "durationTicks": 48,
          "midi": 62,
          "name": "D4",
          "ticks": 59184,
          "time": 176.142681,
          "velocity": 0.7874015748031497
        },
        {
          "duration": 0.14285700000002066,
          "durationTicks": 48,
          "midi": 64,
          "name": "E4",
          "ticks": 59232,
          "time": 176.285538,
          "velocity": 0.7874015748031497
        },
        {
          "duration": 0.42857100000000514,
          "durationTicks": 144,
          "midi": 65,
          "name": "F4",
          "ticks": 59280,
          "time": 176.42839500000002,
          "velocity": 0.7874015748031497
        },
        {
          "duration": 0.14285700000002066,
          "durationTicks": 48,
          "midi": 62,
          "name": "D4",
          "ticks": 68352,
          "time": 203.428368,
          "velocity": 0.7795275590551181
        },
        {
          "duration": 0.14285699999999224,
          "durationTicks": 48,
          "midi": 62,
          "name": "D4",
          "ticks": 68400,
          "time": 203.57122500000003,
          "velocity": 0.7795275590551181
        },
        {
          "duration": 0.14285699999999224,
          "durationTicks": 48,
          "midi": 64,
          "name": "E4",
          "ticks": 68448,
          "time": 203.71408200000002,
          "velocity": 0.7795275590551181
        },
        {
          "duration": 0.42857100000000514,
          "durationTicks": 144,
          "midi": 65,
          "name": "F4",
          "ticks": 68496,
          "time": 203.856939,
          "velocity": 0.7795275590551181
        },
        {
          "duration": 0.14285699999999224,
          "durationTicks": 48,
          "midi": 60,
          "name": "C4",
          "ticks": 69120,
          "time": 205.71408000000002,
          "velocity": 0.7795275590551181
        },
        {
          "duration": 0.14285699999999224,
          "durationTicks": 48,
          "midi": 60,
          "name": "C4",
          "ticks": 69168,
          "time": 205.85693700000002,
          "velocity": 0.7795275590551181
        },
        {
          "duration": 0.14285700000002066,
          "durationTicks": 48,
          "midi": 62,
          "name": "D4",
          "ticks": 69216,
          "time": 205.999794,
          "velocity": 0.7795275590551181
        },
        {
          "duration": 0.4285709999999767,
          "durationTicks": 144,
          "midi": 64,
          "name": "E4",
          "ticks": 69264,
          "time": 206.14265100000003,
          "velocity": 0.7795275590551181
        },
        {
          "duration": 0.14285699999999224,
          "durationTicks": 48,
          "midi": 58,
          "name": "A#3",
          "ticks": 69888,
          "time": 207.999792,
          "velocity": 0.7795275590551181
        },
        {
          "duration": 0.14285700000002066,
          "durationTicks": 48,
          "midi": 58,
          "name": "A#3",
          "ticks": 69936,
          "time": 208.142649,
          "velocity": 0.7795275590551181
        },
        {
          "duration": 0.14285699999999224,
          "durationTicks": 48,
          "midi": 60,
          "name": "C4",
          "ticks": 69984,
          "time": 208.28550600000003,
          "velocity": 0.7795275590551181
        },
        {
          "duration": 0.14285699999999224,
          "durationTicks": 48,
          "midi": 62,
          "name": "D4",
          "ticks": 70032,
          "time": 208.42836300000002,
          "velocity": 0.7795275590551181
        },
        {
          "duration": 0.14285700000002066,
          "durationTicks": 48,
          "midi": 57,
          "name": "A3",
          "ticks": 70656,
          "time": 210.285504,
          "velocity": 0.7795275590551181
        },
        {
          "duration": 0.14285699999999224,
          "durationTicks": 48,
          "midi": 57,
          "name": "A3",
          "ticks": 70704,
          "time": 210.42836100000002,
          "velocity": 0.7795275590551181
        },
        {
          "duration": 0.14285699999999224,
          "durationTicks": 48,
          "midi": 58,
          "name": "A#3",
          "ticks": 70752,
          "time": 210.57121800000002,
          "velocity": 0.7795275590551181
        },
        {
          "duration": 0.714285000000018,
          "durationTicks": 240,
          "midi": 61,
          "name": "C#4",
          "ticks": 70800,
          "time": 210.714075,
          "velocity": 0.7795275590551181
        },
        {
          "duration": 0.14285699999999224,
          "durationTicks": 48,
          "midi": 57,
          "name": "A3",
          "ticks": 71040,
          "time": 211.42836000000003,
          "velocity": 0.7795275590551181
        },
        {
          "duration": 0.14285699999999224,
          "durationTicks": 48,
          "midi": 58,
          "name": "A#3",
          "ticks": 71088,
          "time": 211.57121700000002,
          "velocity": 0.7795275590551181
        },
        {
          "duration": 0.14285700000002066,
          "durationTicks": 48,
          "midi": 61,
          "name": "C#4",
          "ticks": 71136,
          "time": 211.714074,
          "velocity": 0.7795275590551181
        },
        {
          "duration": 0.14285699999999224,
          "durationTicks": 48,
          "midi": 64,
          "name": "E4",
          "ticks": 71184,
          "time": 211.85693100000003,
          "velocity": 0.7795275590551181
        },
        {
          "duration": 0.14285699999999224,
          "durationTicks": 48,
          "midi": 62,
          "name": "D4",
          "ticks": 71424,
          "time": 212.57121600000002,
          "velocity": 0.7795275590551181
        },
        {
          "duration": 0.14285699999999224,
          "durationTicks": 48,
          "midi": 62,
          "name": "D4",
          "ticks": 71472,
          "time": 212.714073,
          "velocity": 0.7795275590551181
        },
        {
          "duration": 0.14285700000002066,
          "durationTicks": 48,
          "midi": 64,
          "name": "E4",
          "ticks": 71520,
          "time": 212.85693,
          "velocity": 0.7795275590551181
        },
        {
          "duration": 0.42857100000000514,
          "durationTicks": 144,
          "midi": 65,
          "name": "F4",
          "ticks": 71568,
          "time": 212.99978700000003,
          "velocity": 0.7795275590551181
        },
        {
          "duration": 0.14285700000002066,
          "durationTicks": 48,
          "midi": 62,
          "name": "D4",
          "ticks": 74496,
          "time": 221.714064,
          "velocity": 0.7716535433070866
        },
        {
          "duration": 0.14285699999999224,
          "durationTicks": 48,
          "midi": 62,
          "name": "D4",
          "ticks": 74544,
          "time": 221.85692100000003,
          "velocity": 0.7716535433070866
        },
        {
          "duration": 0.14285699999999224,
          "durationTicks": 48,
          "midi": 64,
          "name": "E4",
          "ticks": 74592,
          "time": 221.99977800000002,
          "velocity": 0.7716535433070866
        },
        {
          "duration": 0.42857100000000514,
          "durationTicks": 144,
          "midi": 65,
          "name": "F4",
          "ticks": 74640,
          "time": 222.142635,
          "velocity": 0.7716535433070866
        },
        {
          "duration": 0.14285699999999224,
          "durationTicks": 48,
          "midi": 60,
          "name": "C4",
          "ticks": 75264,
          "time": 223.99977600000003,
          "velocity": 0.7716535433070866
        },
        {
          "duration": 0.14285699999999224,
          "durationTicks": 48,
          "midi": 60,
          "name": "C4",
          "ticks": 75312,
          "time": 224.14263300000002,
          "velocity": 0.7716535433070866
        },
        {
          "duration": 0.14285700000002066,
          "durationTicks": 48,
          "midi": 62,
          "name": "D4",
          "ticks": 75360,
          "time": 224.28549,
          "velocity": 0.7716535433070866
        },
        {
          "duration": 0.4285709999999767,
          "durationTicks": 144,
          "midi": 64,
          "name": "E4",
          "ticks": 75408,
          "time": 224.42834700000003,
          "velocity": 0.7716535433070866
        },
        {
          "duration": 0.14285699999999224,
          "durationTicks": 48,
          "midi": 58,
          "name": "A#3",
          "ticks": 76032,
          "time": 226.28548800000002,
          "velocity": 0.7716535433070866
        },
        {
          "duration": 0.14285700000002066,
          "durationTicks": 48,
          "midi": 58,
          "name": "A#3",
          "ticks": 76080,
          "time": 226.428345,
          "velocity": 0.7716535433070866
        },
        {
          "duration": 0.14285699999999224,
          "durationTicks": 48,
          "midi": 60,
          "name": "C4",
          "ticks": 76128,
          "time": 226.57120200000003,
          "velocity": 0.7716535433070866
        },
        {
          "duration": 0.14285699999999224,
          "durationTicks": 48,
          "midi": 62,
          "name": "D4",
          "ticks": 76176,
          "time": 226.71405900000002,
          "velocity": 0.7716535433070866
        },
        {
          "duration": 0.14285699999999224,
          "durationTicks": 48,
          "midi": 57,
          "name": "A3",
          "ticks": 76800,
          "time": 228.57120000000003,
          "velocity": 0.7716535433070866
        },
        {
          "duration": 0.14285699999999224,
          "durationTicks": 48,
          "midi": 57,
          "name": "A3",
          "ticks": 76848,
          "time": 228.71405700000003,
          "velocity": 0.7716535433070866
        },
        {
          "duration": 0.14285699999999224,
          "durationTicks": 48,
          "midi": 58,
          "name": "A#3",
          "ticks": 76896,
          "time": 228.85691400000002,
          "velocity": 0.7716535433070866
        },
        {
          "duration": 0.714285000000018,
          "durationTicks": 240,
          "midi": 61,
          "name": "C#4",
          "ticks": 76944,
          "time": 228.999771,
          "velocity": 0.7716535433070866
        },
        {
          "duration": 0.14285699999999224,
          "durationTicks": 48,
          "midi": 57,
          "name": "A3",
          "ticks": 77184,
          "time": 229.71405600000003,
          "velocity": 0.7716535433070866
        },
        {
          "duration": 0.14285699999999224,
          "durationTicks": 48,
          "midi": 58,
          "name": "A#3",
          "ticks": 77232,
          "time": 229.85691300000002,
          "velocity": 0.7716535433070866
        },
        {
          "duration": 0.14285700000002066,
          "durationTicks": 48,
          "midi": 61,
          "name": "C#4",
          "ticks": 77280,
          "time": 229.99977,
          "velocity": 0.7716535433070866
        },
        {
          "duration": 0.14285699999999224,
          "durationTicks": 48,
          "midi": 64,
          "name": "E4",
          "ticks": 77328,
          "time": 230.14262700000003,
          "velocity": 0.7716535433070866
        },
        {
          "duration": 0.14285699999999224,
          "durationTicks": 48,
          "midi": 62,
          "name": "D4",
          "ticks": 77568,
          "time": 230.85691200000002,
          "velocity": 0.7716535433070866
        },
        {
          "duration": 0.14285699999999224,
          "durationTicks": 48,
          "midi": 62,
          "name": "D4",
          "ticks": 77616,
          "time": 230.99976900000001,
          "velocity": 0.7716535433070866
        },
        {
          "duration": 0.14285700000002066,
          "durationTicks": 48,
          "midi": 64,
          "name": "E4",
          "ticks": 77664,
          "time": 231.142626,
          "velocity": 0.7716535433070866
        },
        {
          "duration": 0.42857100000000514,
          "durationTicks": 144,
          "midi": 65,
          "name": "F4",
          "ticks": 77712,
          "time": 231.28548300000003,
          "velocity": 0.7716535433070866
        }
      ],
      "endOfTrackTicks": 78816
    },
    {
      "channel": 0,
      "controlChanges": {},
      "pitchBends": [],
      "instrument": {
        "family": "piano",
        "number": 0,
        "name": "acoustic grand piano"
      },
      "name": "",
      "notes": []
    },
    {
      "channel": 5,
      "controlChanges": {
        "1": [
          {
            "number": 1,
            "ticks": 38544,
            "time": 114.71417100000001,
            "value": 0
          }
        ],
        "7": [
          {
            "number": 7,
            "ticks": 0,
            "time": 0,
            "value": 0.7874015748031497
          },
          {
            "number": 7,
            "ticks": 38592,
            "time": 114.85702800000001,
            "value": 0.7874015748031497
          }
        ],
        "10": [
          {
            "number": 10,
            "ticks": 0,
            "time": 0,
            "value": 0.12598425196850394
          },
          {
            "number": 10,
            "ticks": 38496,
            "time": 114.57131400000002,
            "value": 0.5039370078740157
          }
        ],
        "64": [
          {
            "number": 64,
            "ticks": 38784,
            "time": 115.42845600000001,
            "value": 0
          }
        ],
        "91": [
          {
            "number": 91,
            "ticks": 132,
            "time": 0.39285675000000003,
            "value": 1
          },
          {
            "number": 91,
            "ticks": 38448,
            "time": 114.42845700000001,
            "value": 0.31496062992125984
          }
        ],
        "93": [
          {
            "number": 93,
            "ticks": 288,
            "time": 0.8571420000000001,
            "value": 1
          },
          {
            "number": 93,
            "ticks": 38736,
            "time": 115.285599,
            "value": 0
          }
        ]
      },
      "pitchBends": [
        {
          "ticks": 38832,
          "time": 115.571313,
          "value": 0
        }
      ],
      "instrument": {
        "family": "synth lead",
        "number": 82,
        "name": "lead 3 (calliope)"
      },
      "name": "synth calliope      ",
      "notes": [
        {
          "duration": 0.2857139999999987,
          "durationTicks": 96,
          "midi": 69,
          "name": "A4",
          "ticks": 31296,
          "time": 93.14276400000001,
          "velocity": 0.7559055118110236
        },
        {
          "duration": 0.2857139999999987,
          "durationTicks": 96,
          "midi": 69,
          "name": "A4",
          "ticks": 31392,
          "time": 93.42847800000001,
          "velocity": 0.7559055118110236
        },
        {
          "duration": 0.0029761874999962856,
          "durationTicks": 1,
          "midi": 69,
          "name": "A4",
          "ticks": 31488,
          "time": 93.71419200000001,
          "velocity": 0.7559055118110236
        },
        {
          "duration": 0.9999990000000025,
          "durationTicks": 336,
          "midi": 62,
          "name": "D4",
          "ticks": 31536,
          "time": 93.857049,
          "velocity": 0.7559055118110236
        },
        {
          "duration": 0.14285700000000645,
          "durationTicks": 48,
          "midi": 70,
          "name": "A#4",
          "ticks": 31872,
          "time": 94.857048,
          "velocity": 0.7559055118110236
        },
        {
          "duration": 0.9999990000000025,
          "durationTicks": 336,
          "midi": 72,
          "name": "C5",
          "ticks": 31920,
          "time": 94.99990500000001,
          "velocity": 0.7559055118110236
        },
        {
          "duration": 0.0029761874999962856,
          "durationTicks": 1,
          "midi": 72,
          "name": "C5",
          "ticks": 32256,
          "time": 95.99990400000002,
          "velocity": 0.7559055118110236
        },
        {
          "duration": 0.9999990000000025,
          "durationTicks": 336,
          "midi": 74,
          "name": "D5",
          "ticks": 32304,
          "time": 96.14276100000001,
          "velocity": 0.7559055118110236
        },
        {
          "duration": 1.1428559999999948,
          "durationTicks": 384,
          "midi": 69,
          "name": "A4",
          "ticks": 32640,
          "time": 97.14276000000001,
          "velocity": 0.7559055118110236
        },
        {
          "duration": 0.0029761875000104965,
          "durationTicks": 1,
          "midi": 69,
          "name": "A4",
          "ticks": 33024,
          "time": 98.285616,
          "velocity": 0.7559055118110236
        },
        {
          "duration": 0.42857100000000514,
          "durationTicks": 144,
          "midi": 67,
          "name": "G4",
          "ticks": 33168,
          "time": 98.71418700000001,
          "velocity": 0.7559055118110236
        },
        {
          "duration": 0.5714279999999974,
          "durationTicks": 192,
          "midi": 74,
          "name": "D5",
          "ticks": 33312,
          "time": 99.14275800000001,
          "velocity": 0.7559055118110236
        },
        {
          "duration": 0.5714279999999974,
          "durationTicks": 192,
          "midi": 72,
          "name": "C5",
          "ticks": 33504,
          "time": 99.71418600000001,
          "velocity": 0.7559055118110236
        },
        {
          "duration": 0.2857139999999987,
          "durationTicks": 96,
          "midi": 67,
          "name": "G4",
          "ticks": 33696,
          "time": 100.28561400000001,
          "velocity": 0.7559055118110236
        },
        {
          "duration": 1.7142840000000064,
          "durationTicks": 576,
          "midi": 69,
          "name": "A4",
          "ticks": 33792,
          "time": 100.57132800000001,
          "velocity": 0.7559055118110236
        },
        {
          "duration": 0.2857139999999987,
          "durationTicks": 96,
          "midi": 69,
          "name": "A4",
          "ticks": 34368,
          "time": 102.28561200000001,
          "velocity": 0.7559055118110236
        },
        {
          "duration": 0.2857139999999987,
          "durationTicks": 96,
          "midi": 69,
          "name": "A4",
          "ticks": 34464,
          "time": 102.57132600000001,
          "velocity": 0.7559055118110236
        },
        {
          "duration": 0.0029761874999962856,
          "durationTicks": 1,
          "midi": 69,
          "name": "A4",
          "ticks": 34560,
          "time": 102.85704000000001,
          "velocity": 0.7559055118110236
        },
        {
          "duration": 0.9999990000000025,
          "durationTicks": 336,
          "midi": 62,
          "name": "D4",
          "ticks": 34608,
          "time": 102.999897,
          "velocity": 0.7559055118110236
        },
        {
          "duration": 0.14285700000000645,
          "durationTicks": 48,
          "midi": 74,
          "name": "D5",
          "ticks": 34944,
          "time": 103.999896,
          "velocity": 0.7559055118110236
        },
        {
          "duration": 0.9999989999999883,
          "durationTicks": 336,
          "midi": 70,
          "name": "A#4",
          "ticks": 34992,
          "time": 104.14275300000001,
          "velocity": 0.7559055118110236
        },
        {
          "duration": 0.14285700000000645,
          "durationTicks": 48,
          "midi": 72,
          "name": "C5",
          "ticks": 35328,
          "time": 105.142752,
          "velocity": 0.7559055118110236
        },
        {
          "duration": 0.9999990000000025,
          "durationTicks": 336,
          "midi": 74,
          "name": "D5",
          "ticks": 35376,
          "time": 105.28560900000001,
          "velocity": 0.7559055118110236
        },
        {
          "duration": 0.5714279999999974,
          "durationTicks": 192,
          "midi": 69,
          "name": "A4",
          "ticks": 35712,
          "time": 106.28560800000001,
          "velocity": 0.7559055118110236
        },
        {
          "duration": 0.2857139999999987,
          "durationTicks": 96,
          "midi": 69,
          "name": "A4",
          "ticks": 35904,
          "time": 106.85703600000001,
          "velocity": 0.7559055118110236
        },
        {
          "duration": 0.2857139999999987,
          "durationTicks": 96,
          "midi": 69,
          "name": "A4",
          "ticks": 36000,
          "time": 107.14275,
          "velocity": 0.7559055118110236
        },
        {
          "duration": 0.0029761875000104965,
          "durationTicks": 1,
          "midi": 69,
          "name": "A4",
          "ticks": 36096,
          "time": 107.428464,
          "velocity": 0.7559055118110236
        },
        {
          "duration": 0.42857100000000514,
          "durationTicks": 144,
          "midi": 67,
          "name": "G4",
          "ticks": 36240,
          "time": 107.85703500000001,
          "velocity": 0.7559055118110236
        },
        {
          "duration": 0.5714279999999974,
          "durationTicks": 192,
          "midi": 74,
          "name": "D5",
          "ticks": 36384,
          "time": 108.28560600000002,
          "velocity": 0.7559055118110236
        },
        {
          "duration": 0.5714279999999974,
          "durationTicks": 192,
          "midi": 72,
          "name": "C5",
          "ticks": 36576,
          "time": 108.85703400000001,
          "velocity": 0.7559055118110236
        },
        {
          "duration": 0.2857139999999987,
          "durationTicks": 96,
          "midi": 67,
          "name": "G4",
          "ticks": 36768,
          "time": 109.42846200000001,
          "velocity": 0.7559055118110236
        },
        {
          "duration": 0.42857100000000514,
          "durationTicks": 144,
          "midi": 69,
          "name": "A4",
          "ticks": 36864,
          "time": 109.71417600000001,
          "velocity": 0.7559055118110236
        },
        {
          "duration": 0.42857099999999093,
          "durationTicks": 144,
          "midi": 72,
          "name": "C5",
          "ticks": 37008,
          "time": 110.14274700000001,
          "velocity": 0.7559055118110236
        },
        {
          "duration": 0.5714279999999974,
          "durationTicks": 192,
          "midi": 74,
          "name": "D5",
          "ticks": 37152,
          "time": 110.571318,
          "velocity": 0.7559055118110236
        },
        {
          "duration": 0.2857140000000129,
          "durationTicks": 96,
          "midi": 77,
          "name": "F5",
          "ticks": 37344,
          "time": 111.142746,
          "velocity": 0.7559055118110236
        },
        {
          "duration": 0.2857139999999987,
          "durationTicks": 96,
          "midi": 69,
          "name": "A4",
          "ticks": 37440,
          "time": 111.42846000000002,
          "velocity": 0.7559055118110236
        },
        {
          "duration": 0.2857139999999987,
          "durationTicks": 96,
          "midi": 69,
          "name": "A4",
          "ticks": 37536,
          "time": 111.71417400000001,
          "velocity": 0.7559055118110236
        },
        {
          "duration": 0.0029761874999962856,
          "durationTicks": 1,
          "midi": 69,
          "name": "A4",
          "ticks": 37632,
          "time": 111.99988800000001,
          "velocity": 0.7559055118110236
        },
        {
          "duration": 0.42857100000000514,
          "durationTicks": 144,
          "midi": 62,
          "name": "D4",
          "ticks": 37680,
          "time": 112.142745,
          "velocity": 0.7559055118110236
        }
      ],
      "endOfTrackTicks": 38880
    },
    {
      "channel": 0,
      "controlChanges": {},
      "pitchBends": [],
      "instrument": {
        "family": "piano",
        "number": 0,
        "name": "acoustic grand piano"
      },
      "name": "",
      "notes": []
    },
    {
      "channel": 6,
      "controlChanges": {
        "1": [
          {
            "number": 1,
            "ticks": 83856,
            "time": 249.57117900000003,
            "value": 0
          }
        ],
        "7": [
          {
            "number": 7,
            "ticks": 0,
            "time": 0,
            "value": 0.7874015748031497
          },
          {
            "number": 7,
            "ticks": 83904,
            "time": 249.71403600000002,
            "value": 0.7874015748031497
          }
        ],
        "10": [
          {
            "number": 10,
            "ticks": 0,
            "time": 0,
            "value": 0.31496062992125984
          },
          {
            "number": 10,
            "ticks": 83808,
            "time": 249.428322,
            "value": 0.5039370078740157
          }
        ],
        "64": [
          {
            "number": 64,
            "ticks": 84096,
            "time": 250.28546400000002,
            "value": 0
          }
        ],
        "91": [
          {
            "number": 91,
            "ticks": 132,
            "time": 0.39285675000000003,
            "value": 1
          },
          {
            "number": 91,
            "ticks": 83760,
            "time": 249.28546500000002,
            "value": 0.31496062992125984
          }
        ],
        "93": [
          {
            "number": 93,
            "ticks": 288,
            "time": 0.8571420000000001,
            "value": 1
          },
          {
            "number": 93,
            "ticks": 84048,
            "time": 250.14260700000003,
            "value": 0
          }
        ]
      },
      "pitchBends": [
        {
          "ticks": 84144,
          "time": 250.428321,
          "value": 0
        }
      ],
      "instrument": {
        "family": "synth lead",
        "number": 87,
        "name": "lead 8 (bass + lead)"
      },
      "name": "bass & lead         ",
      "notes": [
        {
          "duration": 0.14285700000002066,
          "durationTicks": 48,
          "midi": 62,
          "name": "D4",
          "ticks": 80640,
          "time": 239.99976,
          "velocity": 0.7874015748031497
        },
        {
          "duration": 0.14285699999999224,
          "durationTicks": 48,
          "midi": 62,
          "name": "D4",
          "ticks": 80688,
          "time": 240.14261700000003,
          "velocity": 0.7874015748031497
        },
        {
          "duration": 0.14285699999999224,
          "durationTicks": 48,
          "midi": 62,
          "name": "D4",
          "ticks": 80784,
          "time": 240.42833100000001,
          "velocity": 0.7874015748031497
        },
        {
          "duration": 0.14285700000002066,
          "durationTicks": 48,
          "midi": 62,
          "name": "D4",
          "ticks": 80832,
          "time": 240.571188,
          "velocity": 0.7874015748031497
        },
        {
          "duration": 0.14285699999999224,
          "durationTicks": 48,
          "midi": 62,
          "name": "D4",
          "ticks": 80928,
          "time": 240.85690200000002,
          "velocity": 0.7874015748031497
        },
        {
          "duration": 0.14285700000002066,
          "durationTicks": 48,
          "midi": 62,
          "name": "D4",
          "ticks": 80976,
          "time": 240.999759,
          "velocity": 0.7874015748031497
        },
        {
          "duration": 0.14285699999999224,
          "durationTicks": 48,
          "midi": 58,
          "name": "A#3",
          "ticks": 81024,
          "time": 241.14261600000003,
          "velocity": 0.7874015748031497
        },
        {
          "duration": 0.14285699999999224,
          "durationTicks": 48,
          "midi": 58,
          "name": "A#3",
          "ticks": 81072,
          "time": 241.28547300000002,
          "velocity": 0.7874015748031497
        },
        {
          "duration": 0.14285700000002066,
          "durationTicks": 48,
          "midi": 58,
          "name": "A#3",
          "ticks": 81168,
          "time": 241.571187,
          "velocity": 0.7874015748031497
        },
        {
          "duration": 0.14285699999999224,
          "durationTicks": 48,
          "midi": 58,
          "name": "A#3",
          "ticks": 81216,
          "time": 241.71404400000003,
          "velocity": 0.7874015748031497
        },
        {
          "duration": 0.14285699999999224,
          "durationTicks": 48,
          "midi": 58,
          "name": "A#3",
          "ticks": 81312,
          "time": 241.999758,
          "velocity": 0.7874015748031497
        },
        {
          "duration": 0.14285700000002066,
          "durationTicks": 48,
          "midi": 58,
          "name": "A#3",
          "ticks": 81360,
          "time": 242.142615,
          "velocity": 0.7874015748031497
        },
        {
          "duration": 0.14285699999999224,
          "durationTicks": 48,
          "midi": 60,
          "name": "C4",
          "ticks": 81408,
          "time": 242.28547200000003,
          "velocity": 0.7874015748031497
        },
        {
          "duration": 0.14285699999999224,
          "durationTicks": 48,
          "midi": 60,
          "name": "C4",
          "ticks": 81456,
          "time": 242.42832900000002,
          "velocity": 0.7874015748031497
        },
        {
          "duration": 0.14285699999999224,
          "durationTicks": 48,
          "midi": 60,
          "name": "C4",
          "ticks": 81552,
          "time": 242.71404300000003,
          "velocity": 0.7874015748031497
        },
        {
          "duration": 0.14285699999999224,
          "durationTicks": 48,
          "midi": 60,
          "name": "C4",
          "ticks": 81600,
          "time": 242.85690000000002,
          "velocity": 0.7874015748031497
        },
        {
          "duration": 0.14285700000002066,
          "durationTicks": 48,
          "midi": 60,
          "name": "C4",
          "ticks": 81696,
          "time": 243.142614,
          "velocity": 0.7874015748031497
        },
        {
          "duration": 0.14285699999999224,
          "durationTicks": 48,
          "midi": 60,
          "name": "C4",
          "ticks": 81744,
          "time": 243.28547100000003,
          "velocity": 0.7874015748031497
        },
        {
          "duration": 0.14285699999999224,
          "durationTicks": 48,
          "midi": 57,
          "name": "A3",
          "ticks": 81792,
          "time": 243.42832800000002,
          "velocity": 0.7874015748031497
        },
        {
          "duration": 0.14285699999999224,
          "durationTicks": 48,
          "midi": 57,
          "name": "A3",
          "ticks": 81840,
          "time": 243.571185,
          "velocity": 0.7874015748031497
        },
        {
          "duration": 0.14285699999999224,
          "durationTicks": 48,
          "midi": 57,
          "name": "A3",
          "ticks": 81936,
          "time": 243.85689900000003,
          "velocity": 0.7874015748031497
        },
        {
          "duration": 0.14285699999999224,
          "durationTicks": 48,
          "midi": 57,
          "name": "A3",
          "ticks": 81984,
          "time": 243.99975600000002,
          "velocity": 0.7874015748031497
        },
        {
          "duration": 0.14285699999999224,
          "durationTicks": 48,
          "midi": 57,
          "name": "A3",
          "ticks": 82080,
          "time": 244.28547000000003,
          "velocity": 0.7874015748031497
        },
        {
          "duration": 0.14285699999999224,
          "durationTicks": 48,
          "midi": 57,
          "name": "A3",
          "ticks": 82128,
          "time": 244.42832700000002,
          "velocity": 0.7874015748031497
        },
        {
          "duration": 0.14285699999999224,
          "durationTicks": 48,
          "midi": 58,
          "name": "A#3",
          "ticks": 82176,
          "time": 244.57118400000002,
          "velocity": 0.7874015748031497
        },
        {
          "duration": 0.14285700000002066,
          "durationTicks": 48,
          "midi": 58,
          "name": "A#3",
          "ticks": 82224,
          "time": 244.714041,
          "velocity": 0.7874015748031497
        },
        {
          "duration": 0.14285699999999224,
          "durationTicks": 48,
          "midi": 58,
          "name": "A#3",
          "ticks": 82320,
          "time": 244.99975500000002,
          "velocity": 0.7874015748031497
        },
        {
          "duration": 0.14285699999999224,
          "durationTicks": 48,
          "midi": 58,
          "name": "A#3",
          "ticks": 82368,
          "time": 245.142612,
          "velocity": 0.7874015748031497
        },
        {
          "duration": 0.14285699999999224,
          "durationTicks": 48,
          "midi": 58,
          "name": "A#3",
          "ticks": 82464,
          "time": 245.42832600000003,
          "velocity": 0.7874015748031497
        },
        {
          "duration": 0.14285699999999224,
          "durationTicks": 48,
          "midi": 58,
          "name": "A#3",
          "ticks": 82512,
          "time": 245.57118300000002,
          "velocity": 0.7874015748031497
        },
        {
          "duration": 0.14285700000002066,
          "durationTicks": 48,
          "midi": 55,
          "name": "G3",
          "ticks": 82560,
          "time": 245.71404,
          "velocity": 0.7874015748031497
        },
        {
          "duration": 0.14285699999999224,
          "durationTicks": 48,
          "midi": 55,
          "name": "G3",
          "ticks": 82608,
          "time": 245.85689700000003,
          "velocity": 0.7874015748031497
        },
        {
          "duration": 0.14285699999999224,
          "durationTicks": 48,
          "midi": 55,
          "name": "G3",
          "ticks": 82704,
          "time": 246.14261100000002,
          "velocity": 0.7874015748031497
        },
        {
          "duration": 0.14285700000002066,
          "durationTicks": 48,
          "midi": 55,
          "name": "G3",
          "ticks": 82752,
          "time": 246.285468,
          "velocity": 0.7874015748031497
        },
        {
          "duration": 0.14285699999999224,
          "durationTicks": 48,
          "midi": 55,
          "name": "G3",
          "ticks": 82848,
          "time": 246.57118200000002,
          "velocity": 0.7874015748031497
        },
        {
          "duration": 0.14285699999999224,
          "durationTicks": 48,
          "midi": 55,
          "name": "G3",
          "ticks": 82896,
          "time": 246.714039,
          "velocity": 0.7874015748031497
        },
        {
          "duration": 0.14285700000002066,
          "durationTicks": 48,
          "midi": 57,
          "name": "A3",
          "ticks": 82944,
          "time": 246.856896,
          "velocity": 0.7874015748031497
        },
        {
          "duration": 0.14285699999999224,
          "durationTicks": 48,
          "midi": 57,
          "name": "A3",
          "ticks": 82992,
          "time": 246.99975300000003,
          "velocity": 0.7874015748031497
        },
        {
          "duration": 0.14285700000002066,
          "durationTicks": 48,
          "midi": 57,
          "name": "A3",
          "ticks": 83088,
          "time": 247.285467,
          "velocity": 0.7874015748031497
        },
        {
          "duration": 0.14285699999999224,
          "durationTicks": 48,
          "midi": 57,
          "name": "A3",
          "ticks": 83136,
          "time": 247.42832400000003,
          "velocity": 0.7874015748031497
        },
        {
          "duration": 0.14285699999999224,
          "durationTicks": 48,
          "midi": 57,
          "name": "A3",
          "ticks": 83232,
          "time": 247.71403800000002,
          "velocity": 0.7874015748031497
        },
        {
          "duration": 0.14285700000002066,
          "durationTicks": 48,
          "midi": 57,
          "name": "A3",
          "ticks": 83280,
          "time": 247.856895,
          "velocity": 0.7874015748031497
        },
        {
          "duration": 0.14285699999999224,
          "durationTicks": 48,
          "midi": 57,
          "name": "A3",
          "ticks": 83328,
          "time": 247.99975200000003,
          "velocity": 0.7874015748031497
        },
        {
          "duration": 0.14285699999999224,
          "durationTicks": 48,
          "midi": 57,
          "name": "A3",
          "ticks": 83376,
          "time": 248.14260900000002,
          "velocity": 0.7874015748031497
        },
        {
          "duration": 0.14285699999999224,
          "durationTicks": 48,
          "midi": 57,
          "name": "A3",
          "ticks": 83472,
          "time": 248.42832300000003,
          "velocity": 0.7874015748031497
        },
        {
          "duration": 0.14285699999999224,
          "durationTicks": 48,
          "midi": 57,
          "name": "A3",
          "ticks": 83520,
          "time": 248.57118000000003,
          "velocity": 0.7874015748031497
        },
        {
          "duration": 0.14285700000002066,
          "durationTicks": 48,
          "midi": 57,
          "name": "A3",
          "ticks": 83616,
          "time": 248.856894,
          "velocity": 0.7874015748031497
        },
        {
          "duration": 0.14285699999999224,
          "durationTicks": 48,
          "midi": 57,
          "name": "A3",
          "ticks": 83664,
          "time": 248.99975100000003,
          "velocity": 0.7874015748031497
        }
      ],
      "endOfTrackTicks": 84192
    },
    {
      "channel": 0,
      "controlChanges": {},
      "pitchBends": [],
      "instrument": {
        "family": "piano",
        "number": 0,
        "name": "acoustic grand piano"
      },
      "name": "",
      "notes": []
    },
    {
      "channel": 9,
      "controlChanges": {
        "1": [
          {
            "number": 1,
            "ticks": 96144,
            "time": 286.14257100000003,
            "value": 0
          }
        ],
        "7": [
          {
            "number": 7,
            "ticks": 0,
            "time": 0,
            "value": 0.7874015748031497
          },
          {
            "number": 7,
            "ticks": 90624,
            "time": 269.714016,
            "value": 0.7795275590551181
          },
          {
            "number": 7,
            "ticks": 90696,
            "time": 269.92830150000003,
            "value": 0.7716535433070866
          },
          {
            "number": 7,
            "ticks": 90744,
            "time": 270.0711585,
            "value": 0.7637795275590551
          },
          {
            "number": 7,
            "ticks": 90792,
            "time": 270.2140155,
            "value": 0.7559055118110236
          },
          {
            "number": 7,
            "ticks": 90840,
            "time": 270.3568725,
            "value": 0.7480314960629921
          },
          {
            "number": 7,
            "ticks": 90912,
            "time": 270.571158,
            "value": 0.7401574803149606
          },
          {
            "number": 7,
            "ticks": 90960,
            "time": 270.714015,
            "value": 0.7322834645669292
          },
          {
            "number": 7,
            "ticks": 91008,
            "time": 270.856872,
            "value": 0.7244094488188977
          },
          {
            "number": 7,
            "ticks": 91056,
            "time": 270.999729,
            "value": 0.7165354330708661
          },
          {
            "number": 7,
            "ticks": 91128,
            "time": 271.2140145,
            "value": 0.7086614173228346
          },
          {
            "number": 7,
            "ticks": 91176,
            "time": 271.3568715,
            "value": 0.7007874015748031
          },
          {
            "number": 7,
            "ticks": 91224,
            "time": 271.4997285,
            "value": 0.6929133858267716
          },
          {
            "number": 7,
            "ticks": 91272,
            "time": 271.6425855,
            "value": 0.6850393700787402
          },
          {
            "number": 7,
            "ticks": 91344,
            "time": 271.856871,
            "value": 0.6771653543307087
          },
          {
            "number": 7,
            "ticks": 91392,
            "time": 271.999728,
            "value": 0.6692913385826772
          },
          {
            "number": 7,
            "ticks": 91440,
            "time": 272.142585,
            "value": 0.6614173228346457
          },
          {
            "number": 7,
            "ticks": 91488,
            "time": 272.28544200000005,
            "value": 0.6535433070866141
          },
          {
            "number": 7,
            "ticks": 91560,
            "time": 272.4997275,
            "value": 0.6456692913385826
          },
          {
            "number": 7,
            "ticks": 91608,
            "time": 272.6425845,
            "value": 0.6377952755905512
          },
          {
            "number": 7,
            "ticks": 91656,
            "time": 272.78544150000005,
            "value": 0.6299212598425197
          },
          {
            "number": 7,
            "ticks": 91704,
            "time": 272.92829850000004,
            "value": 0.6220472440944882
          },
          {
            "number": 7,
            "ticks": 91776,
            "time": 273.142584,
            "value": 0.6141732283464567
          },
          {
            "number": 7,
            "ticks": 91824,
            "time": 273.28544100000005,
            "value": 0.6062992125984252
          },
          {
            "number": 7,
            "ticks": 91872,
            "time": 273.42829800000004,
            "value": 0.5984251968503937
          },
          {
            "number": 7,
            "ticks": 91920,
            "time": 273.57115500000003,
            "value": 0.5905511811023622
          },
          {
            "number": 7,
            "ticks": 91968,
            "time": 273.714012,
            "value": 0.5826771653543307
          },
          {
            "number": 7,
            "ticks": 92040,
            "time": 273.92829750000004,
            "value": 0.5748031496062992
          },
          {
            "number": 7,
            "ticks": 92088,
            "time": 274.07115450000003,
            "value": 0.5669291338582677
          },
          {
            "number": 7,
            "ticks": 92136,
            "time": 274.2140115,
            "value": 0.5590551181102362
          },
          {
            "number": 7,
            "ticks": 92184,
            "time": 274.3568685,
            "value": 0.5511811023622047
          },
          {
            "number": 7,
            "ticks": 92256,
            "time": 274.57115400000004,
            "value": 0.5433070866141733
          },
          {
            "number": 7,
            "ticks": 92304,
            "time": 274.714011,
            "value": 0.5354330708661418
          },
          {
            "number": 7,
            "ticks": 92352,
            "time": 274.856868,
            "value": 0.5275590551181102
          },
          {
            "number": 7,
            "ticks": 92400,
            "time": 274.999725,
            "value": 0.5196850393700787
          },
          {
            "number": 7,
            "ticks": 92472,
            "time": 275.21401050000003,
            "value": 0.5118110236220472
          },
          {
            "number": 7,
            "ticks": 92520,
            "time": 275.3568675,
            "value": 0.5039370078740157
          },
          {
            "number": 7,
            "ticks": 92568,
            "time": 275.4997245,
            "value": 0.49606299212598426
          },
          {
            "number": 7,
            "ticks": 92616,
            "time": 275.6425815,
            "value": 0.4881889763779528
          },
          {
            "number": 7,
            "ticks": 92688,
            "time": 275.856867,
            "value": 0.48031496062992124
          },
          {
            "number": 7,
            "ticks": 92736,
            "time": 275.999724,
            "value": 0.47244094488188976
          },
          {
            "number": 7,
            "ticks": 92784,
            "time": 276.142581,
            "value": 0.4645669291338583
          },
          {
            "number": 7,
            "ticks": 92832,
            "time": 276.285438,
            "value": 0.4566929133858268
          },
          {
            "number": 7,
            "ticks": 92904,
            "time": 276.4997235,
            "value": 0.44881889763779526
          },
          {
            "number": 7,
            "ticks": 92952,
            "time": 276.6425805,
            "value": 0.4409448818897638
          },
          {
            "number": 7,
            "ticks": 93000,
            "time": 276.7854375,
            "value": 0.4330708661417323
          },
          {
            "number": 7,
            "ticks": 93048,
            "time": 276.92829450000005,
            "value": 0.4251968503937008
          },
          {
            "number": 7,
            "ticks": 93120,
            "time": 277.14258,
            "value": 0.41732283464566927
          },
          {
            "number": 7,
            "ticks": 93168,
            "time": 277.285437,
            "value": 0.4094488188976378
          },
          {
            "number": 7,
            "ticks": 93216,
            "time": 277.42829400000005,
            "value": 0.4015748031496063
          },
          {
            "number": 7,
            "ticks": 93264,
            "time": 277.57115100000004,
            "value": 0.3937007874015748
          },
          {
            "number": 7,
            "ticks": 93312,
            "time": 277.71400800000004,
            "value": 0.3858267716535433
          },
          {
            "number": 7,
            "ticks": 93384,
            "time": 277.9282935,
            "value": 0.3779527559055118
          },
          {
            "number": 7,
            "ticks": 93432,
            "time": 278.07115050000004,
            "value": 0.3700787401574803
          },
          {
            "number": 7,
            "ticks": 93480,
            "time": 278.21400750000004,
            "value": 0.36220472440944884
          },
          {
            "number": 7,
            "ticks": 93528,
            "time": 278.35686450000003,
            "value": 0.3543307086614173
          },
          {
            "number": 7,
            "ticks": 93600,
            "time": 278.57115000000005,
            "value": 0.3464566929133858
          },
          {
            "number": 7,
            "ticks": 93648,
            "time": 278.71400700000004,
            "value": 0.33858267716535434
          },
          {
            "number": 7,
            "ticks": 93696,
            "time": 278.85686400000003,
            "value": 0.33070866141732286
          },
          {
            "number": 7,
            "ticks": 93744,
            "time": 278.999721,
            "value": 0.3228346456692913
          },
          {
            "number": 7,
            "ticks": 93816,
            "time": 279.21400650000004,
            "value": 0.31496062992125984
          },
          {
            "number": 7,
            "ticks": 93864,
            "time": 279.35686350000003,
            "value": 0.30708661417322836
          },
          {
            "number": 7,
            "ticks": 93912,
            "time": 279.4997205,
            "value": 0.2992125984251969
          },
          {
            "number": 7,
            "ticks": 93960,
            "time": 279.6425775,
            "value": 0.29133858267716534
          },
          {
            "number": 7,
            "ticks": 94032,
            "time": 279.85686300000003,
            "value": 0.28346456692913385
          },
          {
            "number": 7,
            "ticks": 94080,
            "time": 279.99972,
            "value": 0.2755905511811024
          },
          {
            "number": 7,
            "ticks": 94128,
            "time": 280.142577,
            "value": 0.2677165354330709
          },
          {
            "number": 7,
            "ticks": 94176,
            "time": 280.285434,
            "value": 0.25984251968503935
          },
          {
            "number": 7,
            "ticks": 94248,
            "time": 280.4997195,
            "value": 0.25196850393700787
          },
          {
            "number": 7,
            "ticks": 94296,
            "time": 280.6425765,
            "value": 0.2440944881889764
          },
          {
            "number": 7,
            "ticks": 94344,
            "time": 280.7854335,
            "value": 0.23622047244094488
          },
          {
            "number": 7,
            "ticks": 94392,
            "time": 280.9282905,
            "value": 0.2283464566929134
          },
          {
            "number": 7,
            "ticks": 94464,
            "time": 281.142576,
            "value": 0.2204724409448819
          },
          {
            "number": 7,
            "ticks": 94512,
            "time": 281.285433,
            "value": 0.2125984251968504
          },
          {
            "number": 7,
            "ticks": 94560,
            "time": 281.42829,
            "value": 0.2047244094488189
          },
          {
            "number": 7,
            "ticks": 94608,
            "time": 281.571147,
            "value": 0.1968503937007874
          },
          {
            "number": 7,
            "ticks": 94656,
            "time": 281.71400400000005,
            "value": 0.1889763779527559
          },
          {
            "number": 7,
            "ticks": 94728,
            "time": 281.9282895,
            "value": 0.18110236220472442
          },
          {
            "number": 7,
            "ticks": 94776,
            "time": 282.0711465,
            "value": 0.1732283464566929
          },
          {
            "number": 7,
            "ticks": 94824,
            "time": 282.21400350000005,
            "value": 0.16535433070866143
          },
          {
            "number": 7,
            "ticks": 94872,
            "time": 282.35686050000004,
            "value": 0.15748031496062992
          },
          {
            "number": 7,
            "ticks": 94944,
            "time": 282.571146,
            "value": 0.14960629921259844
          },
          {
            "number": 7,
            "ticks": 94992,
            "time": 282.71400300000005,
            "value": 0.14173228346456693
          },
          {
            "number": 7,
            "ticks": 95040,
            "time": 282.85686000000004,
            "value": 0.13385826771653545
          },
          {
            "number": 7,
            "ticks": 95088,
            "time": 282.99971700000003,
            "value": 0.12598425196850394
          },
          {
            "number": 7,
            "ticks": 95160,
            "time": 283.21400250000005,
            "value": 0.11811023622047244
          },
          {
            "number": 7,
            "ticks": 95208,
            "time": 283.35685950000004,
            "value": 0.11023622047244094
          },
          {
            "number": 7,
            "ticks": 95256,
            "time": 283.49971650000003,
            "value": 0.10236220472440945
          },
          {
            "number": 7,
            "ticks": 95304,
            "time": 283.6425735,
            "value": 0.09448818897637795
          },
          {
            "number": 7,
            "ticks": 95376,
            "time": 283.85685900000004,
            "value": 0.08661417322834646
          },
          {
            "number": 7,
            "ticks": 95424,
            "time": 283.99971600000003,
            "value": 0.07874015748031496
          },
          {
            "number": 7,
            "ticks": 95472,
            "time": 284.142573,
            "value": 0.07086614173228346
          },
          {
            "number": 7,
            "ticks": 95520,
            "time": 284.28543,
            "value": 0.06299212598425197
          },
          {
            "number": 7,
            "ticks": 95592,
            "time": 284.49971550000004,
            "value": 0.05511811023622047
          },
          {
            "number": 7,
            "ticks": 95640,
            "time": 284.6425725,
            "value": 0.047244094488188976
          },
          {
            "number": 7,
            "ticks": 95688,
            "time": 284.7854295,
            "value": 0.03937007874015748
          },
          {
            "number": 7,
            "ticks": 95736,
            "time": 284.9282865,
            "value": 0.031496062992125984
          },
          {
            "number": 7,
            "ticks": 95784,
            "time": 285.0711435,
            "value": 0.023622047244094488
          },
          {
            "number": 7,
            "ticks": 95856,
            "time": 285.285429,
            "value": 0.015748031496062992
          },
          {
            "number": 7,
            "ticks": 95904,
            "time": 285.428286,
            "value": 0.007874015748031496
          },
          {
            "number": 7,
            "ticks": 95952,
            "time": 285.571143,
            "value": 0
          },
          {
            "number": 7,
            "ticks": 96192,
            "time": 286.285428,
            "value": 0.7874015748031497
          }
        ],
        "10": [
          {
            "number": 10,
            "ticks": 0,
            "time": 0,
            "value": 0.5039370078740157
          },
          {
            "number": 10,
            "ticks": 96096,
            "time": 285.99971400000004,
            "value": 0.5039370078740157
          }
        ],
        "64": [
          {
            "number": 64,
            "ticks": 96384,
            "time": 286.85685600000005,
            "value": 0
          }
        ],
        "91": [
          {
            "number": 91,
            "ticks": 240,
            "time": 0.7142850000000001,
            "value": 0.5039370078740157
          },
          {
            "number": 91,
            "ticks": 96048,
            "time": 285.85685700000005,
            "value": 0.31496062992125984
          }
        ],
        "93": [
          {
            "number": 93,
            "ticks": 96,
            "time": 0.285714,
            "value": 0
          },
          {
            "number": 93,
            "ticks": 96336,
            "time": 286.713999,
            "value": 0
          }
        ]
      },
      "pitchBends": [
        {
          "ticks": 96432,
          "time": 286.99971300000004,
          "value": 0
        }
      ],
      "instrument": {
        "family": "drums",
        "number": 16,
        "name": "power kit"
      },
      "name": "bass drum           ",
      "notes": [
        {
          "duration": 0.4285709999999998,
          "durationTicks": 144,
          "midi": 36,
          "name": "C2",
          "ticks": 768,
          "time": 2.285712,
          "velocity": 0.7559055118110236
        },
        {
          "duration": 0.14285700000000023,
          "durationTicks": 48,
          "midi": 36,
          "name": "C2",
          "ticks": 912,
          "time": 2.714283,
          "velocity": 0.7559055118110236
        },
        {
          "duration": 0.4285709999999998,
          "durationTicks": 144,
          "midi": 36,
          "name": "C2",
          "ticks": 1152,
          "time": 3.4285680000000003,
          "velocity": 0.7559055118110236
        },
        {
          "duration": 0.14285700000000023,
          "durationTicks": 48,
          "midi": 36,
          "name": "C2",
          "ticks": 1296,
          "time": 3.857139,
          "velocity": 0.7559055118110236
        },
        {
          "duration": 0.4285709999999998,
          "durationTicks": 144,
          "midi": 36,
          "name": "C2",
          "ticks": 1536,
          "time": 4.571424,
          "velocity": 0.7559055118110236
        },
        {
          "duration": 0.14285700000000023,
          "durationTicks": 48,
          "midi": 36,
          "name": "C2",
          "ticks": 1680,
          "time": 4.999995,
          "velocity": 0.7559055118110236
        },
        {
          "duration": 0.4285709999999998,
          "durationTicks": 144,
          "midi": 36,
          "name": "C2",
          "ticks": 1920,
          "time": 5.7142800000000005,
          "velocity": 0.7559055118110236
        },
        {
          "duration": 0.14285700000000023,
          "durationTicks": 48,
          "midi": 36,
          "name": "C2",
          "ticks": 2064,
          "time": 6.142851,
          "velocity": 0.7559055118110236
        },
        {
          "duration": 0.4285709999999998,
          "durationTicks": 144,
          "midi": 36,
          "name": "C2",
          "ticks": 2304,
          "time": 6.857136000000001,
          "velocity": 0.7559055118110236
        },
        {
          "duration": 0.14285700000000023,
          "durationTicks": 48,
          "midi": 36,
          "name": "C2",
          "ticks": 2448,
          "time": 7.285707,
          "velocity": 0.7559055118110236
        },
        {
          "duration": 0.4285709999999998,
          "durationTicks": 144,
          "midi": 36,
          "name": "C2",
          "ticks": 2688,
          "time": 7.999992000000001,
          "velocity": 0.7559055118110236
        },
        {
          "duration": 0.14285699999999935,
          "durationTicks": 48,
          "midi": 36,
          "name": "C2",
          "ticks": 2832,
          "time": 8.428563,
          "velocity": 0.7559055118110236
        },
        {
          "duration": 0.4285709999999998,
          "durationTicks": 144,
          "midi": 36,
          "name": "C2",
          "ticks": 3072,
          "time": 9.142848,
          "velocity": 0.7559055118110236
        },
        {
          "duration": 0.14285700000000112,
          "durationTicks": 48,
          "midi": 36,
          "name": "C2",
          "ticks": 3216,
          "time": 9.571419,
          "velocity": 0.7559055118110236
        },
        {
          "duration": 0.4285709999999998,
          "durationTicks": 144,
          "midi": 36,
          "name": "C2",
          "ticks": 3456,
          "time": 10.285704,
          "velocity": 0.7559055118110236
        },
        {
          "duration": 0.14285699999999935,
          "durationTicks": 48,
          "midi": 36,
          "name": "C2",
          "ticks": 3600,
          "time": 10.714275,
          "velocity": 0.7559055118110236
        },
        {
          "duration": 0.4285709999999998,
          "durationTicks": 144,
          "midi": 36,
          "name": "C2",
          "ticks": 3840,
          "time": 11.428560000000001,
          "velocity": 0.7559055118110236
        },
        {
          "duration": 0.14285700000000112,
          "durationTicks": 48,
          "midi": 36,
          "name": "C2",
          "ticks": 3984,
          "time": 11.857131,
          "velocity": 0.7559055118110236
        },
        {
          "duration": 0.4285709999999998,
          "durationTicks": 144,
          "midi": 36,
          "name": "C2",
          "ticks": 4224,
          "time": 12.571416000000001,
          "velocity": 0.7559055118110236
        },
        {
          "duration": 0.14285699999999935,
          "durationTicks": 48,
          "midi": 36,
          "name": "C2",
          "ticks": 4368,
          "time": 12.999987,
          "velocity": 0.7559055118110236
        },
        {
          "duration": 0.4285709999999998,
          "durationTicks": 144,
          "midi": 36,
          "name": "C2",
          "ticks": 4608,
          "time": 13.714272000000001,
          "velocity": 0.7559055118110236
        },
        {
          "duration": 0.14285700000000112,
          "durationTicks": 48,
          "midi": 36,
          "name": "C2",
          "ticks": 4752,
          "time": 14.142843000000001,
          "velocity": 0.7559055118110236
        },
        {
          "duration": 0.4285709999999998,
          "durationTicks": 144,
          "midi": 36,
          "name": "C2",
          "ticks": 4992,
          "time": 14.857128000000001,
          "velocity": 0.7559055118110236
        },
        {
          "duration": 0.14285699999999935,
          "durationTicks": 48,
          "midi": 36,
          "name": "C2",
          "ticks": 5136,
          "time": 15.285699000000001,
          "velocity": 0.7559055118110236
        },
        {
          "duration": 0.4285710000000016,
          "durationTicks": 144,
          "midi": 36,
          "name": "C2",
          "ticks": 5376,
          "time": 15.999984000000001,
          "velocity": 0.7559055118110236
        },
        {
          "duration": 0.14285699999999935,
          "durationTicks": 48,
          "midi": 36,
          "name": "C2",
          "ticks": 5520,
          "time": 16.428555000000003,
          "velocity": 0.7559055118110236
        },
        {
          "duration": 0.4285710000000016,
          "durationTicks": 144,
          "midi": 36,
          "name": "C2",
          "ticks": 5760,
          "time": 17.14284,
          "velocity": 0.7559055118110236
        },
        {
          "duration": 0.14285699999999935,
          "durationTicks": 48,
          "midi": 36,
          "name": "C2",
          "ticks": 5904,
          "time": 17.571411,
          "velocity": 0.7559055118110236
        },
        {
          "duration": 0.4285710000000016,
          "durationTicks": 144,
          "midi": 36,
          "name": "C2",
          "ticks": 6144,
          "time": 18.285696,
          "velocity": 0.7559055118110236
        },
        {
          "duration": 0.14285699999999935,
          "durationTicks": 48,
          "midi": 36,
          "name": "C2",
          "ticks": 6288,
          "time": 18.714267000000003,
          "velocity": 0.7559055118110236
        },
        {
          "duration": 0.42857099999999804,
          "durationTicks": 144,
          "midi": 36,
          "name": "C2",
          "ticks": 6528,
          "time": 19.428552000000003,
          "velocity": 0.7559055118110236
        },
        {
          "duration": 0.14285699999999935,
          "durationTicks": 48,
          "midi": 36,
          "name": "C2",
          "ticks": 6672,
          "time": 19.857123,
          "velocity": 0.7559055118110236
        },
        {
          "duration": 0.5714280000000009,
          "durationTicks": 192,
          "midi": 36,
          "name": "C2",
          "ticks": 6912,
          "time": 20.571408,
          "velocity": 0.7559055118110236
        },
        {
          "duration": 0.5714280000000009,
          "durationTicks": 192,
          "midi": 36,
          "name": "C2",
          "ticks": 7296,
          "time": 21.714264,
          "velocity": 0.7559055118110236
        },
        {
          "duration": 0.5714280000000009,
          "durationTicks": 192,
          "midi": 36,
          "name": "C2",
          "ticks": 7680,
          "time": 22.857120000000002,
          "velocity": 0.7559055118110236
        },
        {
          "duration": 0.5714279999999974,
          "durationTicks": 192,
          "midi": 36,
          "name": "C2",
          "ticks": 8064,
          "time": 23.999976000000004,
          "velocity": 0.7559055118110236
        },
        {
          "duration": 0.5714280000000009,
          "durationTicks": 192,
          "midi": 36,
          "name": "C2",
          "ticks": 8448,
          "time": 25.142832000000002,
          "velocity": 0.7559055118110236
        },
        {
          "duration": 0.5714280000000009,
          "durationTicks": 192,
          "midi": 36,
          "name": "C2",
          "ticks": 8832,
          "time": 26.285688,
          "velocity": 0.7559055118110236
        },
        {
          "duration": 0.5714280000000009,
          "durationTicks": 192,
          "midi": 36,
          "name": "C2",
          "ticks": 9216,
          "time": 27.428544000000002,
          "velocity": 0.7559055118110236
        },
        {
          "duration": 0.5714279999999974,
          "durationTicks": 192,
          "midi": 36,
          "name": "C2",
          "ticks": 9600,
          "time": 28.571400000000004,
          "velocity": 0.7559055118110236
        },
        {
          "duration": 0.5714280000000009,
          "durationTicks": 192,
          "midi": 36,
          "name": "C2",
          "ticks": 9984,
          "time": 29.714256000000002,
          "velocity": 0.7559055118110236
        },
        {
          "duration": 0.5714280000000009,
          "durationTicks": 192,
          "midi": 36,
          "name": "C2",
          "ticks": 10368,
          "time": 30.857112,
          "velocity": 0.7559055118110236
        },
        {
          "duration": 0.5714279999999974,
          "durationTicks": 192,
          "midi": 36,
          "name": "C2",
          "ticks": 10752,
          "time": 31.999968000000003,
          "velocity": 0.7559055118110236
        },
        {
          "duration": 0.5714279999999974,
          "durationTicks": 192,
          "midi": 36,
          "name": "C2",
          "ticks": 11136,
          "time": 33.142824000000005,
          "velocity": 0.7559055118110236
        },
        {
          "duration": 0.5714280000000045,
          "durationTicks": 192,
          "midi": 36,
          "name": "C2",
          "ticks": 11520,
          "time": 34.28568,
          "velocity": 0.7559055118110236
        },
        {
          "duration": 0.5714280000000045,
          "durationTicks": 192,
          "midi": 36,
          "name": "C2",
          "ticks": 11904,
          "time": 35.428536,
          "velocity": 0.7559055118110236
        },
        {
          "duration": 0.5714279999999974,
          "durationTicks": 192,
          "midi": 36,
          "name": "C2",
          "ticks": 12288,
          "time": 36.571392,
          "velocity": 0.7559055118110236
        },
        {
          "duration": 0.5714279999999974,
          "durationTicks": 192,
          "midi": 36,
          "name": "C2",
          "ticks": 12672,
          "time": 37.714248000000005,
          "velocity": 0.7559055118110236
        },
        {
          "duration": 0.5714279999999974,
          "durationTicks": 192,
          "midi": 36,
          "name": "C2",
          "ticks": 13056,
          "time": 38.85710400000001,
          "velocity": 0.7559055118110236
        },
        {
          "duration": 0.5714280000000045,
          "durationTicks": 192,
          "midi": 36,
          "name": "C2",
          "ticks": 13440,
          "time": 39.99996,
          "velocity": 0.7559055118110236
        },
        {
          "duration": 0.5714279999999974,
          "durationTicks": 192,
          "midi": 36,
          "name": "C2",
          "ticks": 13824,
          "time": 41.142816,
          "velocity": 0.7559055118110236
        },
        {
          "duration": 0.5714279999999974,
          "durationTicks": 192,
          "midi": 36,
          "name": "C2",
          "ticks": 14208,
          "time": 42.285672000000005,
          "velocity": 0.7559055118110236
        },
        {
          "duration": 0.5714280000000045,
          "durationTicks": 192,
          "midi": 36,
          "name": "C2",
          "ticks": 14592,
          "time": 43.428528,
          "velocity": 0.7559055118110236
        },
        {
          "duration": 0.5714280000000045,
          "durationTicks": 192,
          "midi": 36,
          "name": "C2",
          "ticks": 14976,
          "time": 44.571384,
          "velocity": 0.7559055118110236
        },
        {
          "duration": 0.5714279999999974,
          "durationTicks": 192,
          "midi": 36,
          "name": "C2",
          "ticks": 15360,
          "time": 45.714240000000004,
          "velocity": 0.7559055118110236
        },
        {
          "duration": 0.5714279999999974,
          "durationTicks": 192,
          "midi": 36,
          "name": "C2",
          "ticks": 15744,
          "time": 46.857096000000006,
          "velocity": 0.7559055118110236
        },
        {
          "duration": 0.5714279999999974,
          "durationTicks": 192,
          "midi": 36,
          "name": "C2",
          "ticks": 16128,
          "time": 47.99995200000001,
          "velocity": 0.7559055118110236
        },
        {
          "duration": 0.5714280000000045,
          "durationTicks": 192,
          "midi": 36,
          "name": "C2",
          "ticks": 16512,
          "time": 49.142808,
          "velocity": 0.7559055118110236
        },
        {
          "duration": 0.5714279999999974,
          "durationTicks": 192,
          "midi": 36,
          "name": "C2",
          "ticks": 16896,
          "time": 50.285664000000004,
          "velocity": 0.7559055118110236
        },
        {
          "duration": 0.5714279999999974,
          "durationTicks": 192,
          "midi": 36,
          "name": "C2",
          "ticks": 17280,
          "time": 51.428520000000006,
          "velocity": 0.7559055118110236
        },
        {
          "duration": 0.5714280000000045,
          "durationTicks": 192,
          "midi": 36,
          "name": "C2",
          "ticks": 17664,
          "time": 52.571376,
          "velocity": 0.7559055118110236
        },
        {
          "duration": 0.5714280000000045,
          "durationTicks": 192,
          "midi": 36,
          "name": "C2",
          "ticks": 18048,
          "time": 53.714232,
          "velocity": 0.7559055118110236
        },
        {
          "duration": 0.5714279999999974,
          "durationTicks": 192,
          "midi": 36,
          "name": "C2",
          "ticks": 18432,
          "time": 54.857088000000005,
          "velocity": 0.7559055118110236
        },
        {
          "duration": 0.42857099999999804,
          "durationTicks": 144,
          "midi": 36,
          "name": "C2",
          "ticks": 18816,
          "time": 55.999944000000006,
          "velocity": 0.7559055118110236
        },
        {
          "duration": 0.5714279999999974,
          "durationTicks": 192,
          "midi": 36,
          "name": "C2",
          "ticks": 19200,
          "time": 57.14280000000001,
          "velocity": 0.7559055118110236
        },
        {
          "duration": 0.5714280000000045,
          "durationTicks": 192,
          "midi": 36,
          "name": "C2",
          "ticks": 19584,
          "time": 58.285656,
          "velocity": 0.7559055118110236
        },
        {
          "duration": 0.5714279999999974,
          "durationTicks": 192,
          "midi": 36,
          "name": "C2",
          "ticks": 19968,
          "time": 59.428512000000005,
          "velocity": 0.7559055118110236
        },
        {
          "duration": 0.5714279999999974,
          "durationTicks": 192,
          "midi": 36,
          "name": "C2",
          "ticks": 20352,
          "time": 60.57136800000001,
          "velocity": 0.7559055118110236
        },
        {
          "duration": 0.5714280000000045,
          "durationTicks": 192,
          "midi": 36,
          "name": "C2",
          "ticks": 20736,
          "time": 61.714224,
          "velocity": 0.7559055118110236
        },
        {
          "duration": 0.5714280000000045,
          "durationTicks": 192,
          "midi": 36,
          "name": "C2",
          "ticks": 21120,
          "time": 62.85708,
          "velocity": 0.7559055118110236
        },
        {
          "duration": 0.5714279999999974,
          "durationTicks": 192,
          "midi": 36,
          "name": "C2",
          "ticks": 21504,
          "time": 63.999936000000005,
          "velocity": 0.7559055118110236
        },
        {
          "duration": 0.42857100000000514,
          "durationTicks": 144,
          "midi": 36,
          "name": "C2",
          "ticks": 21888,
          "time": 65.142792,
          "velocity": 0.7559055118110236
        },
        {
          "duration": 0.5714279999999974,
          "durationTicks": 192,
          "midi": 36,
          "name": "C2",
          "ticks": 22272,
          "time": 66.28564800000001,
          "velocity": 0.7559055118110236
        },
        {
          "duration": 0.5714279999999974,
          "durationTicks": 192,
          "midi": 36,
          "name": "C2",
          "ticks": 22656,
          "time": 67.428504,
          "velocity": 0.7559055118110236
        },
        {
          "duration": 0.5714280000000116,
          "durationTicks": 192,
          "midi": 36,
          "name": "C2",
          "ticks": 23040,
          "time": 68.57136,
          "velocity": 0.7559055118110236
        },
        {
          "duration": 0.5714279999999974,
          "durationTicks": 192,
          "midi": 36,
          "name": "C2",
          "ticks": 23424,
          "time": 69.71421600000001,
          "velocity": 0.7559055118110236
        },
        {
          "duration": 0.5714279999999974,
          "durationTicks": 192,
          "midi": 36,
          "name": "C2",
          "ticks": 23808,
          "time": 70.857072,
          "velocity": 0.7559055118110236
        },
        {
          "duration": 0.5714279999999974,
          "durationTicks": 192,
          "midi": 36,
          "name": "C2",
          "ticks": 24192,
          "time": 71.99992800000001,
          "velocity": 0.7559055118110236
        },
        {
          "duration": 0.5714279999999974,
          "durationTicks": 192,
          "midi": 36,
          "name": "C2",
          "ticks": 24576,
          "time": 73.142784,
          "velocity": 0.7559055118110236
        },
        {
          "duration": 0.14285700000000645,
          "durationTicks": 48,
          "midi": 36,
          "name": "C2",
          "ticks": 24960,
          "time": 74.28564,
          "velocity": 0.7559055118110236
        },
        {
          "duration": 0.5714279999999974,
          "durationTicks": 192,
          "midi": 36,
          "name": "C2",
          "ticks": 25344,
          "time": 75.42849600000001,
          "velocity": 0.7559055118110236
        },
        {
          "duration": 0.5714279999999974,
          "durationTicks": 192,
          "midi": 36,
          "name": "C2",
          "ticks": 25728,
          "time": 76.571352,
          "velocity": 0.7559055118110236
        },
        {
          "duration": 0.5714279999999974,
          "durationTicks": 192,
          "midi": 36,
          "name": "C2",
          "ticks": 26112,
          "time": 77.71420800000001,
          "velocity": 0.7559055118110236
        },
        {
          "duration": 0.5714279999999974,
          "durationTicks": 192,
          "midi": 36,
          "name": "C2",
          "ticks": 26496,
          "time": 78.85706400000001,
          "velocity": 0.7559055118110236
        },
        {
          "duration": 0.5714279999999974,
          "durationTicks": 192,
          "midi": 36,
          "name": "C2",
          "ticks": 26880,
          "time": 79.99992,
          "velocity": 0.7559055118110236
        },
        {
          "duration": 0.5714279999999974,
          "durationTicks": 192,
          "midi": 36,
          "name": "C2",
          "ticks": 27264,
          "time": 81.14277600000001,
          "velocity": 0.7559055118110236
        },
        {
          "duration": 0.5714279999999974,
          "durationTicks": 192,
          "midi": 36,
          "name": "C2",
          "ticks": 27648,
          "time": 82.285632,
          "velocity": 0.7559055118110236
        },
        {
          "duration": 0.42857100000000514,
          "durationTicks": 144,
          "midi": 36,
          "name": "C2",
          "ticks": 28032,
          "time": 83.428488,
          "velocity": 0.7559055118110236
        },
        {
          "duration": 0.5714279999999974,
          "durationTicks": 192,
          "midi": 36,
          "name": "C2",
          "ticks": 28416,
          "time": 84.57134400000001,
          "velocity": 0.7559055118110236
        },
        {
          "duration": 0.5714279999999974,
          "durationTicks": 192,
          "midi": 36,
          "name": "C2",
          "ticks": 28800,
          "time": 85.7142,
          "velocity": 0.7559055118110236
        },
        {
          "duration": 0.5714280000000116,
          "durationTicks": 192,
          "midi": 36,
          "name": "C2",
          "ticks": 29184,
          "time": 86.857056,
          "velocity": 0.7559055118110236
        },
        {
          "duration": 0.5714279999999974,
          "durationTicks": 192,
          "midi": 36,
          "name": "C2",
          "ticks": 29568,
          "time": 87.99991200000001,
          "velocity": 0.7559055118110236
        },
        {
          "duration": 0.5714279999999974,
          "durationTicks": 192,
          "midi": 36,
          "name": "C2",
          "ticks": 29952,
          "time": 89.142768,
          "velocity": 0.7559055118110236
        },
        {
          "duration": 0.5714279999999974,
          "durationTicks": 192,
          "midi": 36,
          "name": "C2",
          "ticks": 30336,
          "time": 90.28562400000001,
          "velocity": 0.7559055118110236
        },
        {
          "duration": 0.5714279999999974,
          "durationTicks": 192,
          "midi": 36,
          "name": "C2",
          "ticks": 30720,
          "time": 91.42848000000001,
          "velocity": 0.7559055118110236
        },
        {
          "duration": 0.14285700000000645,
          "durationTicks": 48,
          "midi": 36,
          "name": "C2",
          "ticks": 31104,
          "time": 92.571336,
          "velocity": 0.7559055118110236
        },
        {
          "duration": 0.42857099999999093,
          "durationTicks": 144,
          "midi": 36,
          "name": "C2",
          "ticks": 31488,
          "time": 93.71419200000001,
          "velocity": 0.7559055118110236
        },
        {
          "duration": 0.14285700000000645,
          "durationTicks": 48,
          "midi": 36,
          "name": "C2",
          "ticks": 31632,
          "time": 94.142763,
          "velocity": 0.7559055118110236
        },
        {
          "duration": 0.42857100000000514,
          "durationTicks": 144,
          "midi": 36,
          "name": "C2",
          "ticks": 31872,
          "time": 94.857048,
          "velocity": 0.7559055118110236
        },
        {
          "duration": 0.14285699999999224,
          "durationTicks": 48,
          "midi": 36,
          "name": "C2",
          "ticks": 32016,
          "time": 95.28561900000001,
          "velocity": 0.7559055118110236
        },
        {
          "duration": 0.42857099999999093,
          "durationTicks": 144,
          "midi": 36,
          "name": "C2",
          "ticks": 32256,
          "time": 95.99990400000002,
          "velocity": 0.7559055118110236
        },
        {
          "duration": 0.14285700000000645,
          "durationTicks": 48,
          "midi": 36,
          "name": "C2",
          "ticks": 32400,
          "time": 96.428475,
          "velocity": 0.7559055118110236
        },
        {
          "duration": 0.42857100000000514,
          "durationTicks": 144,
          "midi": 36,
          "name": "C2",
          "ticks": 32640,
          "time": 97.14276000000001,
          "velocity": 0.7559055118110236
        },
        {
          "duration": 0.14285699999999224,
          "durationTicks": 48,
          "midi": 36,
          "name": "C2",
          "ticks": 32784,
          "time": 97.57133100000001,
          "velocity": 0.7559055118110236
        },
        {
          "duration": 0.42857100000000514,
          "durationTicks": 144,
          "midi": 36,
          "name": "C2",
          "ticks": 33024,
          "time": 98.285616,
          "velocity": 0.7559055118110236
        },
        {
          "duration": 0.14285699999999224,
          "durationTicks": 48,
          "midi": 36,
          "name": "C2",
          "ticks": 33168,
          "time": 98.71418700000001,
          "velocity": 0.7559055118110236
        },
        {
          "duration": 0.42857099999999093,
          "durationTicks": 144,
          "midi": 36,
          "name": "C2",
          "ticks": 33408,
          "time": 99.42847200000001,
          "velocity": 0.7559055118110236
        },
        {
          "duration": 0.14285700000000645,
          "durationTicks": 48,
          "midi": 36,
          "name": "C2",
          "ticks": 33552,
          "time": 99.857043,
          "velocity": 0.7559055118110236
        },
        {
          "duration": 0.42857100000000514,
          "durationTicks": 144,
          "midi": 36,
          "name": "C2",
          "ticks": 33792,
          "time": 100.57132800000001,
          "velocity": 0.7559055118110236
        },
        {
          "duration": 0.14285699999999224,
          "durationTicks": 48,
          "midi": 36,
          "name": "C2",
          "ticks": 33936,
          "time": 100.99989900000001,
          "velocity": 0.7559055118110236
        },
        {
          "duration": 0.42857100000000514,
          "durationTicks": 144,
          "midi": 36,
          "name": "C2",
          "ticks": 34176,
          "time": 101.714184,
          "velocity": 0.7559055118110236
        },
        {
          "duration": 0.14285700000000645,
          "durationTicks": 48,
          "midi": 36,
          "name": "C2",
          "ticks": 34320,
          "time": 102.14275500000001,
          "velocity": 0.7559055118110236
        },
        {
          "duration": 0.42857099999999093,
          "durationTicks": 144,
          "midi": 36,
          "name": "C2",
          "ticks": 34560,
          "time": 102.85704000000001,
          "velocity": 0.7559055118110236
        },
        {
          "duration": 0.14285700000000645,
          "durationTicks": 48,
          "midi": 36,
          "name": "C2",
          "ticks": 34704,
          "time": 103.285611,
          "velocity": 0.7559055118110236
        },
        {
          "duration": 0.42857100000000514,
          "durationTicks": 144,
          "midi": 36,
          "name": "C2",
          "ticks": 34944,
          "time": 103.999896,
          "velocity": 0.7559055118110236
        },
        {
          "duration": 0.14285699999999224,
          "durationTicks": 48,
          "midi": 36,
          "name": "C2",
          "ticks": 35088,
          "time": 104.42846700000001,
          "velocity": 0.7559055118110236
        },
        {
          "duration": 0.42857100000000514,
          "durationTicks": 144,
          "midi": 36,
          "name": "C2",
          "ticks": 35328,
          "time": 105.142752,
          "velocity": 0.7559055118110236
        },
        {
          "duration": 0.14285700000000645,
          "durationTicks": 48,
          "midi": 36,
          "name": "C2",
          "ticks": 35472,
          "time": 105.571323,
          "velocity": 0.7559055118110236
        },
        {
          "duration": 0.42857100000000514,
          "durationTicks": 144,
          "midi": 36,
          "name": "C2",
          "ticks": 35712,
          "time": 106.28560800000001,
          "velocity": 0.7559055118110236
        },
        {
          "duration": 0.14285699999999224,
          "durationTicks": 48,
          "midi": 36,
          "name": "C2",
          "ticks": 35856,
          "time": 106.71417900000002,
          "velocity": 0.7559055118110236
        },
        {
          "duration": 0.42857100000000514,
          "durationTicks": 144,
          "midi": 36,
          "name": "C2",
          "ticks": 36096,
          "time": 107.428464,
          "velocity": 0.7559055118110236
        },
        {
          "duration": 0.14285699999999224,
          "durationTicks": 48,
          "midi": 36,
          "name": "C2",
          "ticks": 36240,
          "time": 107.85703500000001,
          "velocity": 0.7559055118110236
        },
        {
          "duration": 0.42857099999999093,
          "durationTicks": 144,
          "midi": 36,
          "name": "C2",
          "ticks": 36480,
          "time": 108.57132000000001,
          "velocity": 0.7559055118110236
        },
        {
          "duration": 0.14285700000000645,
          "durationTicks": 48,
          "midi": 36,
          "name": "C2",
          "ticks": 36624,
          "time": 108.999891,
          "velocity": 0.7559055118110236
        },
        {
          "duration": 0.42857100000000514,
          "durationTicks": 144,
          "midi": 36,
          "name": "C2",
          "ticks": 36864,
          "time": 109.71417600000001,
          "velocity": 0.7559055118110236
        },
        {
          "duration": 0.14285699999999224,
          "durationTicks": 48,
          "midi": 36,
          "name": "C2",
          "ticks": 37008,
          "time": 110.14274700000001,
          "velocity": 0.7559055118110236
        },
        {
          "duration": 0.2857139999999987,
          "durationTicks": 96,
          "midi": 36,
          "name": "C2",
          "ticks": 37248,
          "time": 110.857032,
          "velocity": 0.7559055118110236
        },
        {
          "duration": 0.5714279999999974,
          "durationTicks": 192,
          "midi": 36,
          "name": "C2",
          "ticks": 37632,
          "time": 111.99988800000001,
          "velocity": 0.7559055118110236
        },
        {
          "duration": 0.5714279999999974,
          "durationTicks": 192,
          "midi": 36,
          "name": "C2",
          "ticks": 38016,
          "time": 113.14274400000001,
          "velocity": 0.7559055118110236
        },
        {
          "duration": 0.5714279999999974,
          "durationTicks": 192,
          "midi": 36,
          "name": "C2",
          "ticks": 38400,
          "time": 114.28560000000002,
          "velocity": 0.7559055118110236
        },
        {
          "duration": 0.5714279999999974,
          "durationTicks": 192,
          "midi": 36,
          "name": "C2",
          "ticks": 38784,
          "time": 115.42845600000001,
          "velocity": 0.7559055118110236
        },
        {
          "duration": 0.5714279999999974,
          "durationTicks": 192,
          "midi": 36,
          "name": "C2",
          "ticks": 39168,
          "time": 116.571312,
          "velocity": 0.7559055118110236
        },
        {
          "duration": 0.5714279999999974,
          "durationTicks": 192,
          "midi": 36,
          "name": "C2",
          "ticks": 39552,
          "time": 117.71416800000002,
          "velocity": 0.7559055118110236
        },
        {
          "duration": 0.5714279999999974,
          "durationTicks": 192,
          "midi": 36,
          "name": "C2",
          "ticks": 39936,
          "time": 118.85702400000001,
          "velocity": 0.7559055118110236
        },
        {
          "duration": 0.5714279999999974,
          "durationTicks": 192,
          "midi": 36,
          "name": "C2",
          "ticks": 40704,
          "time": 121.14273600000001,
          "velocity": 0.7559055118110236
        },
        {
          "duration": 0.5714279999999974,
          "durationTicks": 192,
          "midi": 36,
          "name": "C2",
          "ticks": 41088,
          "time": 122.28559200000001,
          "velocity": 0.7559055118110236
        },
        {
          "duration": 0.5714280000000116,
          "durationTicks": 192,
          "midi": 36,
          "name": "C2",
          "ticks": 41472,
          "time": 123.428448,
          "velocity": 0.7559055118110236
        },
        {
          "duration": 0.5714279999999974,
          "durationTicks": 192,
          "midi": 36,
          "name": "C2",
          "ticks": 41856,
          "time": 124.57130400000001,
          "velocity": 0.7559055118110236
        },
        {
          "duration": 0.5714279999999974,
          "durationTicks": 192,
          "midi": 36,
          "name": "C2",
          "ticks": 42240,
          "time": 125.71416,
          "velocity": 0.7559055118110236
        },
        {
          "duration": 0.5714279999999974,
          "durationTicks": 192,
          "midi": 36,
          "name": "C2",
          "ticks": 42624,
          "time": 126.85701600000002,
          "velocity": 0.7559055118110236
        },
        {
          "duration": 0.5714279999999974,
          "durationTicks": 192,
          "midi": 36,
          "name": "C2",
          "ticks": 43008,
          "time": 127.99987200000001,
          "velocity": 0.7559055118110236
        },
        {
          "duration": 0.5714279999999974,
          "durationTicks": 192,
          "midi": 36,
          "name": "C2",
          "ticks": 43776,
          "time": 130.285584,
          "velocity": 0.7559055118110236
        },
        {
          "duration": 0.5714279999999974,
          "durationTicks": 192,
          "midi": 36,
          "name": "C2",
          "ticks": 44160,
          "time": 131.42844000000002,
          "velocity": 0.7559055118110236
        },
        {
          "duration": 0.5714279999999974,
          "durationTicks": 192,
          "midi": 36,
          "name": "C2",
          "ticks": 44544,
          "time": 132.57129600000002,
          "velocity": 0.7559055118110236
        },
        {
          "duration": 0.5714279999999974,
          "durationTicks": 192,
          "midi": 36,
          "name": "C2",
          "ticks": 44928,
          "time": 133.714152,
          "velocity": 0.7559055118110236
        },
        {
          "duration": 0.5714279999999974,
          "durationTicks": 192,
          "midi": 36,
          "name": "C2",
          "ticks": 45312,
          "time": 134.857008,
          "velocity": 0.7559055118110236
        },
        {
          "duration": 0.5714279999999974,
          "durationTicks": 192,
          "midi": 36,
          "name": "C2",
          "ticks": 45696,
          "time": 135.999864,
          "velocity": 0.7559055118110236
        },
        {
          "duration": 0.5714280000000258,
          "durationTicks": 192,
          "midi": 36,
          "name": "C2",
          "ticks": 46080,
          "time": 137.14272,
          "velocity": 0.7559055118110236
        },
        {
          "duration": 0.5714279999999974,
          "durationTicks": 192,
          "midi": 36,
          "name": "C2",
          "ticks": 46464,
          "time": 138.28557600000002,
          "velocity": 0.7559055118110236
        },
        {
          "duration": 0.5714279999999974,
          "durationTicks": 192,
          "midi": 36,
          "name": "C2",
          "ticks": 46848,
          "time": 139.42843200000002,
          "velocity": 0.7559055118110236
        },
        {
          "duration": 0.5714279999999974,
          "durationTicks": 192,
          "midi": 36,
          "name": "C2",
          "ticks": 47232,
          "time": 140.571288,
          "velocity": 0.7559055118110236
        },
        {
          "duration": 0.5714279999999974,
          "durationTicks": 192,
          "midi": 36,
          "name": "C2",
          "ticks": 47616,
          "time": 141.714144,
          "velocity": 0.7559055118110236
        },
        {
          "duration": 0.5714280000000258,
          "durationTicks": 192,
          "midi": 36,
          "name": "C2",
          "ticks": 48000,
          "time": 142.857,
          "velocity": 0.7559055118110236
        },
        {
          "duration": 0.5714279999999974,
          "durationTicks": 192,
          "midi": 36,
          "name": "C2",
          "ticks": 48384,
          "time": 143.99985600000002,
          "velocity": 0.7559055118110236
        },
        {
          "duration": 0.5714279999999974,
          "durationTicks": 192,
          "midi": 36,
          "name": "C2",
          "ticks": 48768,
          "time": 145.14271200000002,
          "velocity": 0.7559055118110236
        },
        {
          "duration": 0.5714279999999974,
          "durationTicks": 192,
          "midi": 36,
          "name": "C2",
          "ticks": 49152,
          "time": 146.285568,
          "velocity": 0.7559055118110236
        },
        {
          "duration": 0.42857100000000514,
          "durationTicks": 144,
          "midi": 36,
          "name": "C2",
          "ticks": 49536,
          "time": 147.428424,
          "velocity": 0.7559055118110236
        },
        {
          "duration": 0.5714279999999974,
          "durationTicks": 192,
          "midi": 36,
          "name": "C2",
          "ticks": 49920,
          "time": 148.57128,
          "velocity": 0.7559055118110236
        },
        {
          "duration": 0.5714279999999974,
          "durationTicks": 192,
          "midi": 36,
          "name": "C2",
          "ticks": 50304,
          "time": 149.71413600000002,
          "velocity": 0.7559055118110236
        },
        {
          "duration": 0.5714279999999974,
          "durationTicks": 192,
          "midi": 36,
          "name": "C2",
          "ticks": 50688,
          "time": 150.85699200000002,
          "velocity": 0.7559055118110236
        },
        {
          "duration": 0.5714279999999974,
          "durationTicks": 192,
          "midi": 36,
          "name": "C2",
          "ticks": 51072,
          "time": 151.99984800000001,
          "velocity": 0.7559055118110236
        },
        {
          "duration": 0.5714279999999974,
          "durationTicks": 192,
          "midi": 36,
          "name": "C2",
          "ticks": 51456,
          "time": 153.142704,
          "velocity": 0.7559055118110236
        },
        {
          "duration": 0.5714279999999974,
          "durationTicks": 192,
          "midi": 36,
          "name": "C2",
          "ticks": 51840,
          "time": 154.28556,
          "velocity": 0.7559055118110236
        },
        {
          "duration": 0.5714279999999974,
          "durationTicks": 192,
          "midi": 36,
          "name": "C2",
          "ticks": 52224,
          "time": 155.42841600000003,
          "velocity": 0.7559055118110236
        },
        {
          "duration": 0.42857100000000514,
          "durationTicks": 144,
          "midi": 36,
          "name": "C2",
          "ticks": 52608,
          "time": 156.57127200000002,
          "velocity": 0.7559055118110236
        },
        {
          "duration": 0.5714279999999974,
          "durationTicks": 192,
          "midi": 36,
          "name": "C2",
          "ticks": 52992,
          "time": 157.71412800000002,
          "velocity": 0.7559055118110236
        },
        {
          "duration": 0.5714279999999974,
          "durationTicks": 192,
          "midi": 36,
          "name": "C2",
          "ticks": 53376,
          "time": 158.856984,
          "velocity": 0.7559055118110236
        },
        {
          "duration": 0.5714279999999974,
          "durationTicks": 192,
          "midi": 36,
          "name": "C2",
          "ticks": 53760,
          "time": 159.99984,
          "velocity": 0.7559055118110236
        },
        {
          "duration": 0.5714280000000258,
          "durationTicks": 192,
          "midi": 36,
          "name": "C2",
          "ticks": 54144,
          "time": 161.142696,
          "velocity": 0.7559055118110236
        },
        {
          "duration": 0.5714279999999974,
          "durationTicks": 192,
          "midi": 36,
          "name": "C2",
          "ticks": 54528,
          "time": 162.28555200000002,
          "velocity": 0.7559055118110236
        },
        {
          "duration": 0.5714279999999974,
          "durationTicks": 192,
          "midi": 36,
          "name": "C2",
          "ticks": 54912,
          "time": 163.42840800000002,
          "velocity": 0.7559055118110236
        },
        {
          "duration": 0.5714279999999974,
          "durationTicks": 192,
          "midi": 36,
          "name": "C2",
          "ticks": 55296,
          "time": 164.571264,
          "velocity": 0.7559055118110236
        },
        {
          "duration": 0.14285699999999224,
          "durationTicks": 48,
          "midi": 36,
          "name": "C2",
          "ticks": 55680,
          "time": 165.71412,
          "velocity": 0.7559055118110236
        },
        {
          "duration": 0.5714279999999974,
          "durationTicks": 192,
          "midi": 36,
          "name": "C2",
          "ticks": 56064,
          "time": 166.856976,
          "velocity": 0.7559055118110236
        },
        {
          "duration": 0.5714279999999974,
          "durationTicks": 192,
          "midi": 36,
          "name": "C2",
          "ticks": 56448,
          "time": 167.99983200000003,
          "velocity": 0.7559055118110236
        },
        {
          "duration": 0.5714279999999974,
          "durationTicks": 192,
          "midi": 36,
          "name": "C2",
          "ticks": 56832,
          "time": 169.14268800000002,
          "velocity": 0.7559055118110236
        },
        {
          "duration": 0.5714279999999974,
          "durationTicks": 192,
          "midi": 36,
          "name": "C2",
          "ticks": 57216,
          "time": 170.28554400000002,
          "velocity": 0.7559055118110236
        },
        {
          "duration": 0.5714279999999974,
          "durationTicks": 192,
          "midi": 36,
          "name": "C2",
          "ticks": 57600,
          "time": 171.4284,
          "velocity": 0.7559055118110236
        },
        {
          "duration": 0.5714279999999974,
          "durationTicks": 192,
          "midi": 36,
          "name": "C2",
          "ticks": 57984,
          "time": 172.571256,
          "velocity": 0.7559055118110236
        },
        {
          "duration": 0.5714280000000258,
          "durationTicks": 192,
          "midi": 36,
          "name": "C2",
          "ticks": 58368,
          "time": 173.714112,
          "velocity": 0.7559055118110236
        },
        {
          "duration": 0.42857100000000514,
          "durationTicks": 144,
          "midi": 36,
          "name": "C2",
          "ticks": 58752,
          "time": 174.85696800000002,
          "velocity": 0.7559055118110236
        },
        {
          "duration": 0.5714279999999974,
          "durationTicks": 192,
          "midi": 36,
          "name": "C2",
          "ticks": 59136,
          "time": 175.99982400000002,
          "velocity": 0.7559055118110236
        },
        {
          "duration": 0.5714279999999974,
          "durationTicks": 192,
          "midi": 36,
          "name": "C2",
          "ticks": 59520,
          "time": 177.14268,
          "velocity": 0.7559055118110236
        },
        {
          "duration": 0.5714279999999974,
          "durationTicks": 192,
          "midi": 36,
          "name": "C2",
          "ticks": 59904,
          "time": 178.285536,
          "velocity": 0.7559055118110236
        },
        {
          "duration": 0.5714280000000258,
          "durationTicks": 192,
          "midi": 36,
          "name": "C2",
          "ticks": 60288,
          "time": 179.428392,
          "velocity": 0.7559055118110236
        },
        {
          "duration": 0.5714279999999974,
          "durationTicks": 192,
          "midi": 36,
          "name": "C2",
          "ticks": 60672,
          "time": 180.57124800000003,
          "velocity": 0.7559055118110236
        },
        {
          "duration": 0.5714279999999974,
          "durationTicks": 192,
          "midi": 36,
          "name": "C2",
          "ticks": 61056,
          "time": 181.71410400000002,
          "velocity": 0.7559055118110236
        },
        {
          "duration": 0.5714279999999974,
          "durationTicks": 192,
          "midi": 36,
          "name": "C2",
          "ticks": 61440,
          "time": 182.85696000000002,
          "velocity": 0.7559055118110236
        },
        {
          "duration": 0.14285699999999224,
          "durationTicks": 48,
          "midi": 36,
          "name": "C2",
          "ticks": 61824,
          "time": 183.999816,
          "velocity": 0.7559055118110236
        },
        {
          "duration": 0.42857100000000514,
          "durationTicks": 144,
          "midi": 36,
          "name": "C2",
          "ticks": 62208,
          "time": 185.142672,
          "velocity": 0.7559055118110236
        },
        {
          "duration": 0.14285699999999224,
          "durationTicks": 48,
          "midi": 36,
          "name": "C2",
          "ticks": 62352,
          "time": 185.571243,
          "velocity": 0.7559055118110236
        },
        {
          "duration": 0.4285709999999767,
          "durationTicks": 144,
          "midi": 36,
          "name": "C2",
          "ticks": 62592,
          "time": 186.28552800000003,
          "velocity": 0.7559055118110236
        },
        {
          "duration": 0.14285700000002066,
          "durationTicks": 48,
          "midi": 36,
          "name": "C2",
          "ticks": 62736,
          "time": 186.714099,
          "velocity": 0.7559055118110236
        },
        {
          "duration": 0.42857100000000514,
          "durationTicks": 144,
          "midi": 36,
          "name": "C2",
          "ticks": 62976,
          "time": 187.42838400000002,
          "velocity": 0.7559055118110236
        },
        {
          "duration": 0.14285699999999224,
          "durationTicks": 48,
          "midi": 36,
          "name": "C2",
          "ticks": 63120,
          "time": 187.85695500000003,
          "velocity": 0.7559055118110236
        },
        {
          "duration": 0.42857100000000514,
          "durationTicks": 144,
          "midi": 36,
          "name": "C2",
          "ticks": 63360,
          "time": 188.57124000000002,
          "velocity": 0.7559055118110236
        },
        {
          "duration": 0.14285699999999224,
          "durationTicks": 48,
          "midi": 36,
          "name": "C2",
          "ticks": 63504,
          "time": 188.99981100000002,
          "velocity": 0.7559055118110236
        },
        {
          "duration": 0.42857100000000514,
          "durationTicks": 144,
          "midi": 36,
          "name": "C2",
          "ticks": 63744,
          "time": 189.714096,
          "velocity": 0.7559055118110236
        },
        {
          "duration": 0.14285699999999224,
          "durationTicks": 48,
          "midi": 36,
          "name": "C2",
          "ticks": 63888,
          "time": 190.14266700000002,
          "velocity": 0.7559055118110236
        },
        {
          "duration": 0.42857100000000514,
          "durationTicks": 144,
          "midi": 36,
          "name": "C2",
          "ticks": 64128,
          "time": 190.856952,
          "velocity": 0.7559055118110236
        },
        {
          "duration": 0.14285699999999224,
          "durationTicks": 48,
          "midi": 36,
          "name": "C2",
          "ticks": 64272,
          "time": 191.285523,
          "velocity": 0.7559055118110236
        },
        {
          "duration": 0.4285709999999767,
          "durationTicks": 144,
          "midi": 36,
          "name": "C2",
          "ticks": 64512,
          "time": 191.99980800000003,
          "velocity": 0.7559055118110236
        },
        {
          "duration": 0.14285700000002066,
          "durationTicks": 48,
          "midi": 36,
          "name": "C2",
          "ticks": 64656,
          "time": 192.428379,
          "velocity": 0.7559055118110236
        },
        {
          "duration": 0.42857100000000514,
          "durationTicks": 144,
          "midi": 36,
          "name": "C2",
          "ticks": 64896,
          "time": 193.14266400000002,
          "velocity": 0.7559055118110236
        },
        {
          "duration": 0.14285699999999224,
          "durationTicks": 48,
          "midi": 36,
          "name": "C2",
          "ticks": 65040,
          "time": 193.57123500000003,
          "velocity": 0.7559055118110236
        },
        {
          "duration": 0.42857100000000514,
          "durationTicks": 144,
          "midi": 36,
          "name": "C2",
          "ticks": 65280,
          "time": 194.28552000000002,
          "velocity": 0.7559055118110236
        },
        {
          "duration": 0.14285699999999224,
          "durationTicks": 48,
          "midi": 36,
          "name": "C2",
          "ticks": 65424,
          "time": 194.71409100000002,
          "velocity": 0.7559055118110236
        },
        {
          "duration": 0.42857100000000514,
          "durationTicks": 144,
          "midi": 36,
          "name": "C2",
          "ticks": 65664,
          "time": 195.42837600000001,
          "velocity": 0.7559055118110236
        },
        {
          "duration": 0.14285699999999224,
          "durationTicks": 48,
          "midi": 36,
          "name": "C2",
          "ticks": 65808,
          "time": 195.85694700000002,
          "velocity": 0.7559055118110236
        },
        {
          "duration": 0.42857100000000514,
          "durationTicks": 144,
          "midi": 36,
          "name": "C2",
          "ticks": 66048,
          "time": 196.571232,
          "velocity": 0.7559055118110236
        },
        {
          "duration": 0.14285699999999224,
          "durationTicks": 48,
          "midi": 36,
          "name": "C2",
          "ticks": 66192,
          "time": 196.999803,
          "velocity": 0.7559055118110236
        },
        {
          "duration": 0.42857100000000514,
          "durationTicks": 144,
          "midi": 36,
          "name": "C2",
          "ticks": 66432,
          "time": 197.714088,
          "velocity": 0.7559055118110236
        },
        {
          "duration": 0.14285700000002066,
          "durationTicks": 48,
          "midi": 36,
          "name": "C2",
          "ticks": 66576,
          "time": 198.142659,
          "velocity": 0.7559055118110236
        },
        {
          "duration": 0.4285709999999767,
          "durationTicks": 144,
          "midi": 36,
          "name": "C2",
          "ticks": 66816,
          "time": 198.85694400000003,
          "velocity": 0.7559055118110236
        },
        {
          "duration": 0.14285700000002066,
          "durationTicks": 48,
          "midi": 36,
          "name": "C2",
          "ticks": 66960,
          "time": 199.285515,
          "velocity": 0.7559055118110236
        },
        {
          "duration": 0.42857100000000514,
          "durationTicks": 144,
          "midi": 36,
          "name": "C2",
          "ticks": 67200,
          "time": 199.99980000000002,
          "velocity": 0.7559055118110236
        },
        {
          "duration": 0.14285699999999224,
          "durationTicks": 48,
          "midi": 36,
          "name": "C2",
          "ticks": 67344,
          "time": 200.42837100000003,
          "velocity": 0.7559055118110236
        },
        {
          "duration": 0.42857100000000514,
          "durationTicks": 144,
          "midi": 36,
          "name": "C2",
          "ticks": 67584,
          "time": 201.14265600000002,
          "velocity": 0.7559055118110236
        },
        {
          "duration": 0.14285699999999224,
          "durationTicks": 48,
          "midi": 36,
          "name": "C2",
          "ticks": 67728,
          "time": 201.57122700000002,
          "velocity": 0.7559055118110236
        },
        {
          "duration": 0.42857100000000514,
          "durationTicks": 144,
          "midi": 36,
          "name": "C2",
          "ticks": 67968,
          "time": 202.285512,
          "velocity": 0.7559055118110236
        },
        {
          "duration": 0.14285699999999224,
          "durationTicks": 48,
          "midi": 36,
          "name": "C2",
          "ticks": 68112,
          "time": 202.71408300000002,
          "velocity": 0.7559055118110236
        },
        {
          "duration": 0.5714279999999974,
          "durationTicks": 192,
          "midi": 36,
          "name": "C2",
          "ticks": 68352,
          "time": 203.428368,
          "velocity": 0.7559055118110236
        },
        {
          "duration": 0.5714279999999974,
          "durationTicks": 192,
          "midi": 36,
          "name": "C2",
          "ticks": 68736,
          "time": 204.57122400000003,
          "velocity": 0.7559055118110236
        },
        {
          "duration": 0.5714279999999974,
          "durationTicks": 192,
          "midi": 36,
          "name": "C2",
          "ticks": 69120,
          "time": 205.71408000000002,
          "velocity": 0.7559055118110236
        },
        {
          "duration": 0.5714279999999974,
          "durationTicks": 192,
          "midi": 36,
          "name": "C2",
          "ticks": 69504,
          "time": 206.85693600000002,
          "velocity": 0.7559055118110236
        },
        {
          "duration": 0.5714279999999974,
          "durationTicks": 192,
          "midi": 36,
          "name": "C2",
          "ticks": 69888,
          "time": 207.999792,
          "velocity": 0.7559055118110236
        },
        {
          "duration": 0.5714279999999974,
          "durationTicks": 192,
          "midi": 36,
          "name": "C2",
          "ticks": 70272,
          "time": 209.142648,
          "velocity": 0.7559055118110236
        },
        {
          "duration": 0.5714280000000258,
          "durationTicks": 192,
          "midi": 36,
          "name": "C2",
          "ticks": 70656,
          "time": 210.285504,
          "velocity": 0.7559055118110236
        },
        {
          "duration": 0.42857100000000514,
          "durationTicks": 144,
          "midi": 36,
          "name": "C2",
          "ticks": 71040,
          "time": 211.42836000000003,
          "velocity": 0.7559055118110236
        },
        {
          "duration": 0.5714279999999974,
          "durationTicks": 192,
          "midi": 36,
          "name": "C2",
          "ticks": 71424,
          "time": 212.57121600000002,
          "velocity": 0.7559055118110236
        },
        {
          "duration": 0.5714279999999974,
          "durationTicks": 192,
          "midi": 36,
          "name": "C2",
          "ticks": 71808,
          "time": 213.71407200000002,
          "velocity": 0.7559055118110236
        },
        {
          "duration": 0.5714279999999974,
          "durationTicks": 192,
          "midi": 36,
          "name": "C2",
          "ticks": 72192,
          "time": 214.856928,
          "velocity": 0.7559055118110236
        },
        {
          "duration": 0.5714280000000258,
          "durationTicks": 192,
          "midi": 36,
          "name": "C2",
          "ticks": 72576,
          "time": 215.999784,
          "velocity": 0.7559055118110236
        },
        {
          "duration": 0.5714279999999974,
          "durationTicks": 192,
          "midi": 36,
          "name": "C2",
          "ticks": 72960,
          "time": 217.14264000000003,
          "velocity": 0.7559055118110236
        },
        {
          "duration": 0.5714279999999974,
          "durationTicks": 192,
          "midi": 36,
          "name": "C2",
          "ticks": 73344,
          "time": 218.28549600000002,
          "velocity": 0.7559055118110236
        },
        {
          "duration": 0.5714279999999974,
          "durationTicks": 192,
          "midi": 36,
          "name": "C2",
          "ticks": 73728,
          "time": 219.42835200000002,
          "velocity": 0.7559055118110236
        },
        {
          "duration": 0.14285699999999224,
          "durationTicks": 48,
          "midi": 36,
          "name": "C2",
          "ticks": 74112,
          "time": 220.571208,
          "velocity": 0.7559055118110236
        },
        {
          "duration": 0.5714279999999974,
          "durationTicks": 192,
          "midi": 36,
          "name": "C2",
          "ticks": 74496,
          "time": 221.714064,
          "velocity": 0.7559055118110236
        },
        {
          "duration": 0.5714279999999974,
          "durationTicks": 192,
          "midi": 36,
          "name": "C2",
          "ticks": 74880,
          "time": 222.85692000000003,
          "velocity": 0.7559055118110236
        },
        {
          "duration": 0.5714279999999974,
          "durationTicks": 192,
          "midi": 36,
          "name": "C2",
          "ticks": 75264,
          "time": 223.99977600000003,
          "velocity": 0.7559055118110236
        },
        {
          "duration": 0.5714279999999974,
          "durationTicks": 192,
          "midi": 36,
          "name": "C2",
          "ticks": 75648,
          "time": 225.14263200000002,
          "velocity": 0.7559055118110236
        },
        {
          "duration": 0.5714279999999974,
          "durationTicks": 192,
          "midi": 36,
          "name": "C2",
          "ticks": 76032,
          "time": 226.28548800000002,
          "velocity": 0.7559055118110236
        },
        {
          "duration": 0.5714279999999974,
          "durationTicks": 192,
          "midi": 36,
          "name": "C2",
          "ticks": 76416,
          "time": 227.428344,
          "velocity": 0.7559055118110236
        },
        {
          "duration": 0.5714279999999974,
          "durationTicks": 192,
          "midi": 36,
          "name": "C2",
          "ticks": 76800,
          "time": 228.57120000000003,
          "velocity": 0.7559055118110236
        },
        {
          "duration": 0.42857100000000514,
          "durationTicks": 144,
          "midi": 36,
          "name": "C2",
          "ticks": 77184,
          "time": 229.71405600000003,
          "velocity": 0.7559055118110236
        },
        {
          "duration": 0.5714279999999974,
          "durationTicks": 192,
          "midi": 36,
          "name": "C2",
          "ticks": 77568,
          "time": 230.85691200000002,
          "velocity": 0.7559055118110236
        },
        {
          "duration": 0.5714279999999974,
          "durationTicks": 192,
          "midi": 36,
          "name": "C2",
          "ticks": 77952,
          "time": 231.99976800000002,
          "velocity": 0.7559055118110236
        },
        {
          "duration": 0.5714279999999974,
          "durationTicks": 192,
          "midi": 36,
          "name": "C2",
          "ticks": 78336,
          "time": 233.142624,
          "velocity": 0.7559055118110236
        },
        {
          "duration": 0.5714280000000258,
          "durationTicks": 192,
          "midi": 36,
          "name": "C2",
          "ticks": 78720,
          "time": 234.28548,
          "velocity": 0.7559055118110236
        },
        {
          "duration": 0.5714279999999974,
          "durationTicks": 192,
          "midi": 36,
          "name": "C2",
          "ticks": 79104,
          "time": 235.42833600000003,
          "velocity": 0.7559055118110236
        },
        {
          "duration": 0.5714279999999974,
          "durationTicks": 192,
          "midi": 36,
          "name": "C2",
          "ticks": 79488,
          "time": 236.57119200000002,
          "velocity": 0.7559055118110236
        },
        {
          "duration": 0.5714279999999974,
          "durationTicks": 192,
          "midi": 36,
          "name": "C2",
          "ticks": 79872,
          "time": 237.71404800000002,
          "velocity": 0.7559055118110236
        },
        {
          "duration": 0.14285699999999224,
          "durationTicks": 48,
          "midi": 36,
          "name": "C2",
          "ticks": 80256,
          "time": 238.85690400000001,
          "velocity": 0.7559055118110236
        },
        {
          "duration": 0.5714279999999974,
          "durationTicks": 192,
          "midi": 36,
          "name": "C2",
          "ticks": 80640,
          "time": 239.99976,
          "velocity": 0.7559055118110236
        },
        {
          "duration": 0.5714279999999974,
          "durationTicks": 192,
          "midi": 36,
          "name": "C2",
          "ticks": 81024,
          "time": 241.14261600000003,
          "velocity": 0.7559055118110236
        },
        {
          "duration": 0.5714279999999974,
          "durationTicks": 192,
          "midi": 36,
          "name": "C2",
          "ticks": 81408,
          "time": 242.28547200000003,
          "velocity": 0.7559055118110236
        },
        {
          "duration": 0.5714279999999974,
          "durationTicks": 192,
          "midi": 36,
          "name": "C2",
          "ticks": 81792,
          "time": 243.42832800000002,
          "velocity": 0.7559055118110236
        },
        {
          "duration": 0.5714279999999974,
          "durationTicks": 192,
          "midi": 36,
          "name": "C2",
          "ticks": 82176,
          "time": 244.57118400000002,
          "velocity": 0.7559055118110236
        },
        {
          "duration": 0.5714279999999974,
          "durationTicks": 192,
          "midi": 36,
          "name": "C2",
          "ticks": 82560,
          "time": 245.71404,
          "velocity": 0.7559055118110236
        },
        {
          "duration": 0.5714280000000258,
          "durationTicks": 192,
          "midi": 36,
          "name": "C2",
          "ticks": 82944,
          "time": 246.856896,
          "velocity": 0.7559055118110236
        },
        {
          "duration": 0.42857100000000514,
          "durationTicks": 144,
          "midi": 36,
          "name": "C2",
          "ticks": 83328,
          "time": 247.99975200000003,
          "velocity": 0.7559055118110236
        },
        {
          "duration": 0.42857100000000514,
          "durationTicks": 144,
          "midi": 36,
          "name": "C2",
          "ticks": 83712,
          "time": 249.14260800000002,
          "velocity": 0.7559055118110236
        },
        {
          "duration": 0.14285699999999224,
          "durationTicks": 48,
          "midi": 36,
          "name": "C2",
          "ticks": 83856,
          "time": 249.57117900000003,
          "velocity": 0.7559055118110236
        },
        {
          "duration": 0.42857100000000514,
          "durationTicks": 144,
          "midi": 36,
          "name": "C2",
          "ticks": 84096,
          "time": 250.28546400000002,
          "velocity": 0.7559055118110236
        },
        {
          "duration": 0.14285699999999224,
          "durationTicks": 48,
          "midi": 36,
          "name": "C2",
          "ticks": 84240,
          "time": 250.71403500000002,
          "velocity": 0.7559055118110236
        },
        {
          "duration": 0.42857100000000514,
          "durationTicks": 144,
          "midi": 36,
          "name": "C2",
          "ticks": 84480,
          "time": 251.42832,
          "velocity": 0.7559055118110236
        },
        {
          "duration": 0.14285699999999224,
          "durationTicks": 48,
          "midi": 36,
          "name": "C2",
          "ticks": 84624,
          "time": 251.85689100000002,
          "velocity": 0.7559055118110236
        },
        {
          "duration": 0.42857100000000514,
          "durationTicks": 144,
          "midi": 36,
          "name": "C2",
          "ticks": 84864,
          "time": 252.571176,
          "velocity": 0.7559055118110236
        },
        {
          "duration": 0.14285700000002066,
          "durationTicks": 48,
          "midi": 36,
          "name": "C2",
          "ticks": 85008,
          "time": 252.999747,
          "velocity": 0.7559055118110236
        },
        {
          "duration": 0.4285709999999767,
          "durationTicks": 144,
          "midi": 36,
          "name": "C2",
          "ticks": 85248,
          "time": 253.71403200000003,
          "velocity": 0.7559055118110236
        },
        {
          "duration": 0.14285700000002066,
          "durationTicks": 48,
          "midi": 36,
          "name": "C2",
          "ticks": 85392,
          "time": 254.142603,
          "velocity": 0.7559055118110236
        },
        {
          "duration": 0.42857100000000514,
          "durationTicks": 144,
          "midi": 36,
          "name": "C2",
          "ticks": 85632,
          "time": 254.85688800000003,
          "velocity": 0.7559055118110236
        },
        {
          "duration": 0.14285699999999224,
          "durationTicks": 48,
          "midi": 36,
          "name": "C2",
          "ticks": 85776,
          "time": 255.28545900000003,
          "velocity": 0.7559055118110236
        },
        {
          "duration": 0.4285709999999767,
          "durationTicks": 144,
          "midi": 36,
          "name": "C2",
          "ticks": 86016,
          "time": 255.99974400000002,
          "velocity": 0.7559055118110236
        },
        {
          "duration": 0.14285700000004908,
          "durationTicks": 48,
          "midi": 36,
          "name": "C2",
          "ticks": 86160,
          "time": 256.428315,
          "velocity": 0.7559055118110236
        },
        {
          "duration": 0.42857100000003356,
          "durationTicks": 144,
          "midi": 36,
          "name": "C2",
          "ticks": 86400,
          "time": 257.1426,
          "velocity": 0.7559055118110236
        },
        {
          "duration": 0.14285699999999224,
          "durationTicks": 48,
          "midi": 36,
          "name": "C2",
          "ticks": 86544,
          "time": 257.57117100000005,
          "velocity": 0.7559055118110236
        },
        {
          "duration": 0.42857100000003356,
          "durationTicks": 144,
          "midi": 36,
          "name": "C2",
          "ticks": 86784,
          "time": 258.285456,
          "velocity": 0.7559055118110236
        },
        {
          "duration": 0.14285699999999224,
          "durationTicks": 48,
          "midi": 36,
          "name": "C2",
          "ticks": 86928,
          "time": 258.71402700000004,
          "velocity": 0.7559055118110236
        },
        {
          "duration": 0.42857100000003356,
          "durationTicks": 144,
          "midi": 36,
          "name": "C2",
          "ticks": 87168,
          "time": 259.428312,
          "velocity": 0.7559055118110236
        },
        {
          "duration": 0.14285699999999224,
          "durationTicks": 48,
          "midi": 36,
          "name": "C2",
          "ticks": 87312,
          "time": 259.85688300000004,
          "velocity": 0.7559055118110236
        },
        {
          "duration": 0.42857100000003356,
          "durationTicks": 144,
          "midi": 36,
          "name": "C2",
          "ticks": 87552,
          "time": 260.571168,
          "velocity": 0.7559055118110236
        },
        {
          "duration": 0.14285699999999224,
          "durationTicks": 48,
          "midi": 36,
          "name": "C2",
          "ticks": 87696,
          "time": 260.99973900000003,
          "velocity": 0.7559055118110236
        },
        {
          "duration": 0.42857100000003356,
          "durationTicks": 144,
          "midi": 36,
          "name": "C2",
          "ticks": 87936,
          "time": 261.714024,
          "velocity": 0.7559055118110236
        },
        {
          "duration": 0.14285699999999224,
          "durationTicks": 48,
          "midi": 36,
          "name": "C2",
          "ticks": 88080,
          "time": 262.14259500000003,
          "velocity": 0.7559055118110236
        },
        {
          "duration": 0.4285709999999767,
          "durationTicks": 144,
          "midi": 36,
          "name": "C2",
          "ticks": 88320,
          "time": 262.85688000000005,
          "velocity": 0.7559055118110236
        },
        {
          "duration": 0.14285699999999224,
          "durationTicks": 48,
          "midi": 36,
          "name": "C2",
          "ticks": 88464,
          "time": 263.285451,
          "velocity": 0.7559055118110236
        },
        {
          "duration": 0.4285709999999767,
          "durationTicks": 144,
          "midi": 36,
          "name": "C2",
          "ticks": 88704,
          "time": 263.99973600000004,
          "velocity": 0.7559055118110236
        },
        {
          "duration": 0.14285699999999224,
          "durationTicks": 48,
          "midi": 36,
          "name": "C2",
          "ticks": 88848,
          "time": 264.428307,
          "velocity": 0.7559055118110236
        },
        {
          "duration": 0.4285709999999767,
          "durationTicks": 144,
          "midi": 36,
          "name": "C2",
          "ticks": 89088,
          "time": 265.14259200000004,
          "velocity": 0.7559055118110236
        },
        {
          "duration": 0.14285699999999224,
          "durationTicks": 48,
          "midi": 36,
          "name": "C2",
          "ticks": 89232,
          "time": 265.571163,
          "velocity": 0.7559055118110236
        },
        {
          "duration": 0.4285709999999767,
          "durationTicks": 144,
          "midi": 36,
          "name": "C2",
          "ticks": 89472,
          "time": 266.28544800000003,
          "velocity": 0.7559055118110236
        },
        {
          "duration": 0.14285699999999224,
          "durationTicks": 48,
          "midi": 36,
          "name": "C2",
          "ticks": 89616,
          "time": 266.714019,
          "velocity": 0.7559055118110236
        },
        {
          "duration": 0.571427999999969,
          "durationTicks": 192,
          "midi": 36,
          "name": "C2",
          "ticks": 89856,
          "time": 267.428304,
          "velocity": 0.7559055118110236
        },
        {
          "duration": 0.5714280000000258,
          "durationTicks": 192,
          "midi": 36,
          "name": "C2",
          "ticks": 90240,
          "time": 268.57116,
          "velocity": 0.7559055118110236
        },
        {
          "duration": 0.5714280000000258,
          "durationTicks": 192,
          "midi": 36,
          "name": "C2",
          "ticks": 90624,
          "time": 269.714016,
          "velocity": 0.7559055118110236
        },
        {
          "duration": 0.5714280000000258,
          "durationTicks": 192,
          "midi": 36,
          "name": "C2",
          "ticks": 91008,
          "time": 270.856872,
          "velocity": 0.7559055118110236
        },
        {
          "duration": 0.5714280000000258,
          "durationTicks": 192,
          "midi": 36,
          "name": "C2",
          "ticks": 91392,
          "time": 271.999728,
          "velocity": 0.7559055118110236
        },
        {
          "duration": 0.5714280000000258,
          "durationTicks": 192,
          "midi": 36,
          "name": "C2",
          "ticks": 91776,
          "time": 273.142584,
          "velocity": 0.7559055118110236
        },
        {
          "duration": 0.5714280000000258,
          "durationTicks": 192,
          "midi": 36,
          "name": "C2",
          "ticks": 92160,
          "time": 274.28544,
          "velocity": 0.7559055118110236
        },
        {
          "duration": 0.571427999999969,
          "durationTicks": 192,
          "midi": 36,
          "name": "C2",
          "ticks": 92544,
          "time": 275.42829600000005,
          "velocity": 0.7559055118110236
        },
        {
          "duration": 0.571427999999969,
          "durationTicks": 192,
          "midi": 36,
          "name": "C2",
          "ticks": 92928,
          "time": 276.57115200000004,
          "velocity": 0.7559055118110236
        },
        {
          "duration": 0.571427999999969,
          "durationTicks": 192,
          "midi": 36,
          "name": "C2",
          "ticks": 93312,
          "time": 277.71400800000004,
          "velocity": 0.7559055118110236
        },
        {
          "duration": 0.571427999999969,
          "durationTicks": 192,
          "midi": 36,
          "name": "C2",
          "ticks": 93696,
          "time": 278.85686400000003,
          "velocity": 0.7559055118110236
        },
        {
          "duration": 0.5714280000000258,
          "durationTicks": 192,
          "midi": 36,
          "name": "C2",
          "ticks": 94080,
          "time": 279.99972,
          "velocity": 0.7559055118110236
        },
        {
          "duration": 0.5714280000000258,
          "durationTicks": 192,
          "midi": 36,
          "name": "C2",
          "ticks": 94464,
          "time": 281.142576,
          "velocity": 0.7559055118110236
        },
        {
          "duration": 0.5714280000000258,
          "durationTicks": 192,
          "midi": 36,
          "name": "C2",
          "ticks": 94848,
          "time": 282.285432,
          "velocity": 0.7559055118110236
        },
        {
          "duration": 0.5714280000000258,
          "durationTicks": 192,
          "midi": 36,
          "name": "C2",
          "ticks": 95232,
          "time": 283.428288,
          "velocity": 0.7559055118110236
        },
        {
          "duration": 0.5714280000000258,
          "durationTicks": 192,
          "midi": 36,
          "name": "C2",
          "ticks": 95616,
          "time": 284.571144,
          "velocity": 0.7559055118110236
        }
      ],
      "endOfTrackTicks": 96480
    },
    {
      "channel": 0,
      "controlChanges": {},
      "pitchBends": [],
      "instrument": {
        "family": "piano",
        "number": 0,
        "name": "acoustic grand piano"
      },
      "name": "",
      "notes": []
    },
    {
      "channel": 9,
      "controlChanges": {
        "7": [
          {
            "number": 7,
            "ticks": 0,
            "time": 0,
            "value": 0.7874015748031497
          }
        ],
        "10": [
          {
            "number": 10,
            "ticks": 0,
            "time": 0,
            "value": 0.5039370078740157
          }
        ]
      },
      "pitchBends": [],
      "instrument": {
        "family": "drums",
        "number": 16,
        "name": "power kit"
      },
      "name": "snare               ",
      "notes": [
        {
          "duration": 0.571428,
          "durationTicks": 192,
          "midi": 38,
          "name": "D2",
          "ticks": 960,
          "time": 2.8571400000000002,
          "velocity": 0.7559055118110236
        },
        {
          "duration": 0.571428,
          "durationTicks": 192,
          "midi": 38,
          "name": "D2",
          "ticks": 1344,
          "time": 3.9999960000000003,
          "velocity": 0.7559055118110236
        },
        {
          "duration": 0.571428,
          "durationTicks": 192,
          "midi": 38,
          "name": "D2",
          "ticks": 1728,
          "time": 5.142852,
          "velocity": 0.7559055118110236
        },
        {
          "duration": 0.571428,
          "durationTicks": 192,
          "midi": 38,
          "name": "D2",
          "ticks": 2112,
          "time": 6.2857080000000005,
          "velocity": 0.7559055118110236
        },
        {
          "duration": 0.571428,
          "durationTicks": 192,
          "midi": 38,
          "name": "D2",
          "ticks": 2496,
          "time": 7.428564000000001,
          "velocity": 0.7559055118110236
        },
        {
          "duration": 0.5714280000000009,
          "durationTicks": 192,
          "midi": 38,
          "name": "D2",
          "ticks": 2880,
          "time": 8.57142,
          "velocity": 0.7559055118110236
        },
        {
          "duration": 0.5714279999999992,
          "durationTicks": 192,
          "midi": 38,
          "name": "D2",
          "ticks": 3264,
          "time": 9.714276000000002,
          "velocity": 0.7559055118110236
        },
        {
          "duration": 0.28571400000000047,
          "durationTicks": 96,
          "midi": 38,
          "name": "D2",
          "ticks": 3648,
          "time": 10.857132,
          "velocity": 0.7559055118110236
        },
        {
          "duration": 0.28571400000000047,
          "durationTicks": 96,
          "midi": 38,
          "name": "D2",
          "ticks": 3744,
          "time": 11.142846,
          "velocity": 0.7559055118110236
        },
        {
          "duration": 0.5714279999999992,
          "durationTicks": 192,
          "midi": 38,
          "name": "D2",
          "ticks": 4032,
          "time": 11.999988000000002,
          "velocity": 0.7559055118110236
        },
        {
          "duration": 0.5714280000000009,
          "durationTicks": 192,
          "midi": 38,
          "name": "D2",
          "ticks": 4416,
          "time": 13.142844,
          "velocity": 0.7559055118110236
        },
        {
          "duration": 0.5714279999999992,
          "durationTicks": 192,
          "midi": 38,
          "name": "D2",
          "ticks": 4800,
          "time": 14.285700000000002,
          "velocity": 0.7559055118110236
        },
        {
          "duration": 0.5714280000000009,
          "durationTicks": 192,
          "midi": 38,
          "name": "D2",
          "ticks": 5184,
          "time": 15.428556,
          "velocity": 0.7559055118110236
        },
        {
          "duration": 0.5714279999999974,
          "durationTicks": 192,
          "midi": 38,
          "name": "D2",
          "ticks": 5568,
          "time": 16.571412000000002,
          "velocity": 0.7559055118110236
        },
        {
          "duration": 0.5714280000000009,
          "durationTicks": 192,
          "midi": 38,
          "name": "D2",
          "ticks": 5952,
          "time": 17.714268,
          "velocity": 0.7559055118110236
        },
        {
          "duration": 0.5714280000000009,
          "durationTicks": 192,
          "midi": 38,
          "name": "D2",
          "ticks": 6336,
          "time": 18.857124000000002,
          "velocity": 0.7559055118110236
        },
        {
          "duration": 0.28571400000000224,
          "durationTicks": 96,
          "midi": 38,
          "name": "D2",
          "ticks": 6720,
          "time": 19.99998,
          "velocity": 0.7559055118110236
        },
        {
          "duration": 0.2857139999999987,
          "durationTicks": 96,
          "midi": 38,
          "name": "D2",
          "ticks": 6816,
          "time": 20.285694000000003,
          "velocity": 0.7559055118110236
        },
        {
          "duration": 0.5714279999999974,
          "durationTicks": 192,
          "midi": 38,
          "name": "D2",
          "ticks": 7104,
          "time": 21.142836000000003,
          "velocity": 0.7559055118110236
        },
        {
          "duration": 0.5714280000000009,
          "durationTicks": 192,
          "midi": 38,
          "name": "D2",
          "ticks": 7488,
          "time": 22.285692,
          "velocity": 0.7559055118110236
        },
        {
          "duration": 0.5714280000000009,
          "durationTicks": 192,
          "midi": 38,
          "name": "D2",
          "ticks": 7872,
          "time": 23.428548000000003,
          "velocity": 0.7559055118110236
        },
        {
          "duration": 0.5714280000000009,
          "durationTicks": 192,
          "midi": 38,
          "name": "D2",
          "ticks": 8256,
          "time": 24.571404,
          "velocity": 0.7559055118110236
        },
        {
          "duration": 0.5714279999999974,
          "durationTicks": 192,
          "midi": 38,
          "name": "D2",
          "ticks": 8640,
          "time": 25.714260000000003,
          "velocity": 0.7559055118110236
        },
        {
          "duration": 0.5714280000000009,
          "durationTicks": 192,
          "midi": 38,
          "name": "D2",
          "ticks": 9024,
          "time": 26.857116,
          "velocity": 0.7559055118110236
        },
        {
          "duration": 0.5714280000000009,
          "durationTicks": 192,
          "midi": 38,
          "name": "D2",
          "ticks": 9408,
          "time": 27.999972000000003,
          "velocity": 0.7559055118110236
        },
        {
          "duration": 0.5714280000000009,
          "durationTicks": 192,
          "midi": 38,
          "name": "D2",
          "ticks": 9792,
          "time": 29.142828,
          "velocity": 0.7559055118110236
        },
        {
          "duration": 0.5714279999999974,
          "durationTicks": 192,
          "midi": 38,
          "name": "D2",
          "ticks": 10176,
          "time": 30.285684000000003,
          "velocity": 0.7559055118110236
        },
        {
          "duration": 0.5714280000000009,
          "durationTicks": 192,
          "midi": 38,
          "name": "D2",
          "ticks": 10560,
          "time": 31.42854,
          "velocity": 0.7559055118110236
        },
        {
          "duration": 0.5714280000000045,
          "durationTicks": 192,
          "midi": 38,
          "name": "D2",
          "ticks": 10944,
          "time": 32.571396,
          "velocity": 0.7559055118110236
        },
        {
          "duration": 0.5714279999999974,
          "durationTicks": 192,
          "midi": 38,
          "name": "D2",
          "ticks": 11328,
          "time": 33.714252,
          "velocity": 0.7559055118110236
        },
        {
          "duration": 0.5714279999999974,
          "durationTicks": 192,
          "midi": 38,
          "name": "D2",
          "ticks": 11712,
          "time": 34.857108000000004,
          "velocity": 0.7559055118110236
        },
        {
          "duration": 0.5714279999999974,
          "durationTicks": 192,
          "midi": 38,
          "name": "D2",
          "ticks": 12096,
          "time": 35.999964000000006,
          "velocity": 0.7559055118110236
        },
        {
          "duration": 0.5714280000000045,
          "durationTicks": 192,
          "midi": 38,
          "name": "D2",
          "ticks": 12480,
          "time": 37.14282,
          "velocity": 0.7559055118110236
        },
        {
          "duration": 0.5714280000000045,
          "durationTicks": 192,
          "midi": 38,
          "name": "D2",
          "ticks": 12864,
          "time": 38.285676,
          "velocity": 0.7559055118110236
        },
        {
          "duration": 0.5714279999999974,
          "durationTicks": 192,
          "midi": 38,
          "name": "D2",
          "ticks": 13248,
          "time": 39.428532000000004,
          "velocity": 0.7559055118110236
        },
        {
          "duration": 0.5714279999999974,
          "durationTicks": 192,
          "midi": 38,
          "name": "D2",
          "ticks": 13632,
          "time": 40.571388000000006,
          "velocity": 0.7559055118110236
        },
        {
          "duration": 0.5714280000000045,
          "durationTicks": 192,
          "midi": 38,
          "name": "D2",
          "ticks": 14016,
          "time": 41.714244,
          "velocity": 0.7559055118110236
        },
        {
          "duration": 0.5714279999999974,
          "durationTicks": 192,
          "midi": 38,
          "name": "D2",
          "ticks": 14400,
          "time": 42.8571,
          "velocity": 0.7559055118110236
        },
        {
          "duration": 0.5714279999999974,
          "durationTicks": 192,
          "midi": 38,
          "name": "D2",
          "ticks": 14784,
          "time": 43.999956000000005,
          "velocity": 0.7559055118110236
        },
        {
          "duration": 0.5714279999999974,
          "durationTicks": 192,
          "midi": 38,
          "name": "D2",
          "ticks": 15168,
          "time": 45.142812000000006,
          "velocity": 0.7559055118110236
        },
        {
          "duration": 0.5714280000000045,
          "durationTicks": 192,
          "midi": 38,
          "name": "D2",
          "ticks": 15552,
          "time": 46.285668,
          "velocity": 0.7559055118110236
        },
        {
          "duration": 0.5714280000000045,
          "durationTicks": 192,
          "midi": 38,
          "name": "D2",
          "ticks": 15936,
          "time": 47.428524,
          "velocity": 0.7559055118110236
        },
        {
          "duration": 0.5714279999999974,
          "durationTicks": 192,
          "midi": 38,
          "name": "D2",
          "ticks": 16320,
          "time": 48.571380000000005,
          "velocity": 0.7559055118110236
        },
        {
          "duration": 0.5714279999999974,
          "durationTicks": 192,
          "midi": 38,
          "name": "D2",
          "ticks": 16704,
          "time": 49.71423600000001,
          "velocity": 0.7559055118110236
        },
        {
          "duration": 0.5714280000000045,
          "durationTicks": 192,
          "midi": 38,
          "name": "D2",
          "ticks": 17088,
          "time": 50.857092,
          "velocity": 0.7559055118110236
        },
        {
          "duration": 0.5714279999999974,
          "durationTicks": 192,
          "midi": 38,
          "name": "D2",
          "ticks": 17472,
          "time": 51.999948,
          "velocity": 0.7559055118110236
        },
        {
          "duration": 0.5714279999999974,
          "durationTicks": 192,
          "midi": 38,
          "name": "D2",
          "ticks": 17856,
          "time": 53.142804000000005,
          "velocity": 0.7559055118110236
        },
        {
          "duration": 0.5714279999999974,
          "durationTicks": 192,
          "midi": 38,
          "name": "D2",
          "ticks": 18240,
          "time": 54.28566000000001,
          "velocity": 0.7559055118110236
        },
        {
          "duration": 0.5714280000000045,
          "durationTicks": 192,
          "midi": 38,
          "name": "D2",
          "ticks": 18624,
          "time": 55.428516,
          "velocity": 0.7559055118110236
        },
        {
          "duration": 0.5714279999999974,
          "durationTicks": 192,
          "midi": 38,
          "name": "D2",
          "ticks": 19392,
          "time": 57.714228000000006,
          "velocity": 0.7559055118110236
        },
        {
          "duration": 0.5714279999999974,
          "durationTicks": 192,
          "midi": 38,
          "name": "D2",
          "ticks": 19776,
          "time": 58.85708400000001,
          "velocity": 0.7559055118110236
        },
        {
          "duration": 0.5714280000000045,
          "durationTicks": 192,
          "midi": 38,
          "name": "D2",
          "ticks": 20160,
          "time": 59.99994,
          "velocity": 0.7559055118110236
        },
        {
          "duration": 0.5714279999999974,
          "durationTicks": 192,
          "midi": 38,
          "name": "D2",
          "ticks": 20544,
          "time": 61.142796000000004,
          "velocity": 0.7559055118110236
        },
        {
          "duration": 0.5714279999999974,
          "durationTicks": 192,
          "midi": 38,
          "name": "D2",
          "ticks": 20928,
          "time": 62.285652000000006,
          "velocity": 0.7559055118110236
        },
        {
          "duration": 0.5714279999999974,
          "durationTicks": 192,
          "midi": 38,
          "name": "D2",
          "ticks": 21312,
          "time": 63.42850800000001,
          "velocity": 0.7559055118110236
        },
        {
          "duration": 0.5714279999999974,
          "durationTicks": 192,
          "midi": 38,
          "name": "D2",
          "ticks": 21696,
          "time": 64.571364,
          "velocity": 0.7559055118110236
        },
        {
          "duration": 0.42857100000000514,
          "durationTicks": 144,
          "midi": 38,
          "name": "D2",
          "ticks": 22032,
          "time": 65.571363,
          "velocity": 0.7559055118110236
        },
        {
          "duration": 0.2857139999999987,
          "durationTicks": 96,
          "midi": 38,
          "name": "D2",
          "ticks": 22176,
          "time": 65.99993400000001,
          "velocity": 0.7559055118110236
        },
        {
          "duration": 0.5714279999999974,
          "durationTicks": 192,
          "midi": 38,
          "name": "D2",
          "ticks": 22464,
          "time": 66.857076,
          "velocity": 0.7559055118110236
        },
        {
          "duration": 0.5714279999999974,
          "durationTicks": 192,
          "midi": 38,
          "name": "D2",
          "ticks": 22848,
          "time": 67.999932,
          "velocity": 0.7559055118110236
        },
        {
          "duration": 0.5714279999999974,
          "durationTicks": 192,
          "midi": 38,
          "name": "D2",
          "ticks": 23232,
          "time": 69.14278800000001,
          "velocity": 0.7559055118110236
        },
        {
          "duration": 0.5714279999999974,
          "durationTicks": 192,
          "midi": 38,
          "name": "D2",
          "ticks": 23616,
          "time": 70.285644,
          "velocity": 0.7559055118110236
        },
        {
          "duration": 0.5714280000000116,
          "durationTicks": 192,
          "midi": 38,
          "name": "D2",
          "ticks": 24000,
          "time": 71.4285,
          "velocity": 0.7559055118110236
        },
        {
          "duration": 0.5714279999999974,
          "durationTicks": 192,
          "midi": 38,
          "name": "D2",
          "ticks": 24384,
          "time": 72.57135600000001,
          "velocity": 0.7559055118110236
        },
        {
          "duration": 0.5714279999999974,
          "durationTicks": 192,
          "midi": 38,
          "name": "D2",
          "ticks": 24768,
          "time": 73.714212,
          "velocity": 0.7559055118110236
        },
        {
          "duration": 0.2857139999999987,
          "durationTicks": 96,
          "midi": 38,
          "name": "D2",
          "ticks": 25008,
          "time": 74.42849700000001,
          "velocity": 0.7559055118110236
        },
        {
          "duration": 0.2857139999999987,
          "durationTicks": 96,
          "midi": 38,
          "name": "D2",
          "ticks": 25104,
          "time": 74.714211,
          "velocity": 0.7559055118110236
        },
        {
          "duration": 0.14285700000000645,
          "durationTicks": 48,
          "midi": 38,
          "name": "D2",
          "ticks": 25200,
          "time": 74.999925,
          "velocity": 0.7559055118110236
        },
        {
          "duration": 0.2857139999999987,
          "durationTicks": 96,
          "midi": 38,
          "name": "D2",
          "ticks": 25248,
          "time": 75.14278200000001,
          "velocity": 0.7559055118110236
        },
        {
          "duration": 0.5714279999999974,
          "durationTicks": 192,
          "midi": 38,
          "name": "D2",
          "ticks": 25536,
          "time": 75.99992400000001,
          "velocity": 0.7559055118110236
        },
        {
          "duration": 0.5714280000000116,
          "durationTicks": 192,
          "midi": 38,
          "name": "D2",
          "ticks": 25920,
          "time": 77.14278,
          "velocity": 0.7559055118110236
        },
        {
          "duration": 0.5714279999999974,
          "durationTicks": 192,
          "midi": 38,
          "name": "D2",
          "ticks": 26304,
          "time": 78.28563600000001,
          "velocity": 0.7559055118110236
        },
        {
          "duration": 0.5714279999999974,
          "durationTicks": 192,
          "midi": 38,
          "name": "D2",
          "ticks": 26688,
          "time": 79.428492,
          "velocity": 0.7559055118110236
        },
        {
          "duration": 0.5714280000000116,
          "durationTicks": 192,
          "midi": 38,
          "name": "D2",
          "ticks": 27072,
          "time": 80.571348,
          "velocity": 0.7559055118110236
        },
        {
          "duration": 0.5714279999999974,
          "durationTicks": 192,
          "midi": 38,
          "name": "D2",
          "ticks": 27456,
          "time": 81.71420400000001,
          "velocity": 0.7559055118110236
        },
        {
          "duration": 0.5714279999999974,
          "durationTicks": 192,
          "midi": 38,
          "name": "D2",
          "ticks": 27840,
          "time": 82.85706,
          "velocity": 0.7559055118110236
        },
        {
          "duration": 0.42857100000000514,
          "durationTicks": 144,
          "midi": 38,
          "name": "D2",
          "ticks": 28176,
          "time": 83.857059,
          "velocity": 0.7559055118110236
        },
        {
          "duration": 0.2857139999999987,
          "durationTicks": 96,
          "midi": 38,
          "name": "D2",
          "ticks": 28320,
          "time": 84.28563000000001,
          "velocity": 0.7559055118110236
        },
        {
          "duration": 0.5714279999999974,
          "durationTicks": 192,
          "midi": 38,
          "name": "D2",
          "ticks": 28608,
          "time": 85.14277200000001,
          "velocity": 0.7559055118110236
        },
        {
          "duration": 0.5714279999999974,
          "durationTicks": 192,
          "midi": 38,
          "name": "D2",
          "ticks": 28992,
          "time": 86.285628,
          "velocity": 0.7559055118110236
        },
        {
          "duration": 0.5714279999999974,
          "durationTicks": 192,
          "midi": 38,
          "name": "D2",
          "ticks": 29376,
          "time": 87.42848400000001,
          "velocity": 0.7559055118110236
        },
        {
          "duration": 0.5714279999999974,
          "durationTicks": 192,
          "midi": 38,
          "name": "D2",
          "ticks": 29760,
          "time": 88.57134,
          "velocity": 0.7559055118110236
        },
        {
          "duration": 0.5714280000000116,
          "durationTicks": 192,
          "midi": 38,
          "name": "D2",
          "ticks": 30144,
          "time": 89.714196,
          "velocity": 0.7559055118110236
        },
        {
          "duration": 0.5714279999999974,
          "durationTicks": 192,
          "midi": 38,
          "name": "D2",
          "ticks": 30528,
          "time": 90.85705200000001,
          "velocity": 0.7559055118110236
        },
        {
          "duration": 0.5714279999999974,
          "durationTicks": 192,
          "midi": 38,
          "name": "D2",
          "ticks": 30912,
          "time": 91.999908,
          "velocity": 0.7559055118110236
        },
        {
          "duration": 0.2857139999999987,
          "durationTicks": 96,
          "midi": 38,
          "name": "D2",
          "ticks": 31152,
          "time": 92.71419300000001,
          "velocity": 0.7559055118110236
        },
        {
          "duration": 0.2857139999999987,
          "durationTicks": 96,
          "midi": 38,
          "name": "D2",
          "ticks": 31248,
          "time": 92.99990700000001,
          "velocity": 0.7559055118110236
        },
        {
          "duration": 0.14285700000000645,
          "durationTicks": 48,
          "midi": 38,
          "name": "D2",
          "ticks": 31344,
          "time": 93.285621,
          "velocity": 0.7559055118110236
        },
        {
          "duration": 0.2857139999999987,
          "durationTicks": 96,
          "midi": 38,
          "name": "D2",
          "ticks": 31392,
          "time": 93.42847800000001,
          "velocity": 0.3779527559055118
        },
        {
          "duration": 0.5714279999999974,
          "durationTicks": 192,
          "midi": 38,
          "name": "D2",
          "ticks": 31680,
          "time": 94.28562000000001,
          "velocity": 0.7559055118110236
        },
        {
          "duration": 0.5714280000000116,
          "durationTicks": 192,
          "midi": 38,
          "name": "D2",
          "ticks": 32064,
          "time": 95.428476,
          "velocity": 0.7559055118110236
        },
        {
          "duration": 0.5714279999999974,
          "durationTicks": 192,
          "midi": 38,
          "name": "D2",
          "ticks": 32448,
          "time": 96.57133200000001,
          "velocity": 0.7559055118110236
        },
        {
          "duration": 0.5714279999999974,
          "durationTicks": 192,
          "midi": 38,
          "name": "D2",
          "ticks": 32832,
          "time": 97.71418800000001,
          "velocity": 0.7559055118110236
        },
        {
          "duration": 0.5714280000000116,
          "durationTicks": 192,
          "midi": 38,
          "name": "D2",
          "ticks": 33216,
          "time": 98.857044,
          "velocity": 0.7559055118110236
        },
        {
          "duration": 0.5714279999999974,
          "durationTicks": 192,
          "midi": 38,
          "name": "D2",
          "ticks": 33600,
          "time": 99.99990000000001,
          "velocity": 0.7559055118110236
        },
        {
          "duration": 0.5714279999999974,
          "durationTicks": 192,
          "midi": 38,
          "name": "D2",
          "ticks": 33984,
          "time": 101.142756,
          "velocity": 0.7559055118110236
        },
        {
          "duration": 0.2857139999999987,
          "durationTicks": 96,
          "midi": 38,
          "name": "D2",
          "ticks": 34368,
          "time": 102.28561200000001,
          "velocity": 0.7559055118110236
        },
        {
          "duration": 0.2857139999999987,
          "durationTicks": 96,
          "midi": 38,
          "name": "D2",
          "ticks": 34464,
          "time": 102.57132600000001,
          "velocity": 0.7559055118110236
        },
        {
          "duration": 0.5714279999999974,
          "durationTicks": 192,
          "midi": 38,
          "name": "D2",
          "ticks": 34752,
          "time": 103.42846800000001,
          "velocity": 0.7559055118110236
        },
        {
          "duration": 0.5714279999999974,
          "durationTicks": 192,
          "midi": 38,
          "name": "D2",
          "ticks": 35136,
          "time": 104.571324,
          "velocity": 0.7559055118110236
        },
        {
          "duration": 0.5714279999999974,
          "durationTicks": 192,
          "midi": 38,
          "name": "D2",
          "ticks": 35520,
          "time": 105.71418000000001,
          "velocity": 0.7559055118110236
        },
        {
          "duration": 0.5714279999999974,
          "durationTicks": 192,
          "midi": 38,
          "name": "D2",
          "ticks": 35904,
          "time": 106.85703600000001,
          "velocity": 0.7559055118110236
        },
        {
          "duration": 0.5714280000000116,
          "durationTicks": 192,
          "midi": 38,
          "name": "D2",
          "ticks": 36288,
          "time": 107.999892,
          "velocity": 0.7559055118110236
        },
        {
          "duration": 0.5714279999999974,
          "durationTicks": 192,
          "midi": 38,
          "name": "D2",
          "ticks": 36672,
          "time": 109.14274800000001,
          "velocity": 0.7559055118110236
        },
        {
          "duration": 0.5714279999999974,
          "durationTicks": 192,
          "midi": 38,
          "name": "D2",
          "ticks": 37056,
          "time": 110.285604,
          "velocity": 0.7559055118110236
        },
        {
          "duration": 0.2857140000000129,
          "durationTicks": 96,
          "midi": 38,
          "name": "D2",
          "ticks": 37344,
          "time": 111.142746,
          "velocity": 0.7559055118110236
        },
        {
          "duration": 0.2857139999999987,
          "durationTicks": 96,
          "midi": 38,
          "name": "D2",
          "ticks": 37440,
          "time": 111.42846000000002,
          "velocity": 0.7559055118110236
        },
        {
          "duration": 0.14285699999999224,
          "durationTicks": 48,
          "midi": 38,
          "name": "D2",
          "ticks": 37536,
          "time": 111.71417400000001,
          "velocity": 0.7559055118110236
        },
        {
          "duration": 0.14285700000000645,
          "durationTicks": 48,
          "midi": 38,
          "name": "D2",
          "ticks": 37584,
          "time": 111.857031,
          "velocity": 0.7559055118110236
        },
        {
          "duration": 0.5714279999999974,
          "durationTicks": 192,
          "midi": 38,
          "name": "D2",
          "ticks": 37824,
          "time": 112.57131600000001,
          "velocity": 0.7559055118110236
        },
        {
          "duration": 0.5714280000000116,
          "durationTicks": 192,
          "midi": 38,
          "name": "D2",
          "ticks": 38208,
          "time": 113.714172,
          "velocity": 0.7559055118110236
        },
        {
          "duration": 0.5714279999999974,
          "durationTicks": 192,
          "midi": 38,
          "name": "D2",
          "ticks": 38592,
          "time": 114.85702800000001,
          "velocity": 0.7559055118110236
        },
        {
          "duration": 0.5714279999999974,
          "durationTicks": 192,
          "midi": 38,
          "name": "D2",
          "ticks": 38976,
          "time": 115.99988400000001,
          "velocity": 0.7559055118110236
        },
        {
          "duration": 0.5714280000000116,
          "durationTicks": 192,
          "midi": 38,
          "name": "D2",
          "ticks": 39360,
          "time": 117.14274,
          "velocity": 0.7559055118110236
        },
        {
          "duration": 0.5714279999999974,
          "durationTicks": 192,
          "midi": 38,
          "name": "D2",
          "ticks": 39744,
          "time": 118.28559600000001,
          "velocity": 0.7559055118110236
        },
        {
          "duration": 0.2857139999999987,
          "durationTicks": 96,
          "midi": 38,
          "name": "D2",
          "ticks": 40128,
          "time": 119.42845200000001,
          "velocity": 0.7559055118110236
        },
        {
          "duration": 0.14285700000000645,
          "durationTicks": 48,
          "midi": 38,
          "name": "D2",
          "ticks": 40224,
          "time": 119.714166,
          "velocity": 0.7559055118110236
        },
        {
          "duration": 0.2857139999999987,
          "durationTicks": 96,
          "midi": 38,
          "name": "D2",
          "ticks": 40272,
          "time": 119.85702300000001,
          "velocity": 0.7559055118110236
        },
        {
          "duration": 0.2857139999999987,
          "durationTicks": 96,
          "midi": 38,
          "name": "D2",
          "ticks": 40512,
          "time": 120.57130800000002,
          "velocity": 0.7559055118110236
        },
        {
          "duration": 0.2857139999999987,
          "durationTicks": 96,
          "midi": 38,
          "name": "D2",
          "ticks": 40608,
          "time": 120.85702200000001,
          "velocity": 0.3779527559055118
        },
        {
          "duration": 0.5714279999999974,
          "durationTicks": 192,
          "midi": 38,
          "name": "D2",
          "ticks": 40896,
          "time": 121.71416400000001,
          "velocity": 0.7559055118110236
        },
        {
          "duration": 0.5714279999999974,
          "durationTicks": 192,
          "midi": 38,
          "name": "D2",
          "ticks": 41280,
          "time": 122.85702,
          "velocity": 0.7559055118110236
        },
        {
          "duration": 0.5714279999999974,
          "durationTicks": 192,
          "midi": 38,
          "name": "D2",
          "ticks": 41664,
          "time": 123.99987600000001,
          "velocity": 0.7559055118110236
        },
        {
          "duration": 0.5714279999999974,
          "durationTicks": 192,
          "midi": 38,
          "name": "D2",
          "ticks": 42048,
          "time": 125.14273200000001,
          "velocity": 0.7559055118110236
        },
        {
          "duration": 0.5714280000000116,
          "durationTicks": 192,
          "midi": 38,
          "name": "D2",
          "ticks": 42432,
          "time": 126.285588,
          "velocity": 0.7559055118110236
        },
        {
          "duration": 0.5714279999999974,
          "durationTicks": 192,
          "midi": 38,
          "name": "D2",
          "ticks": 42816,
          "time": 127.42844400000001,
          "velocity": 0.7559055118110236
        },
        {
          "duration": 0.2857140000000129,
          "durationTicks": 96,
          "midi": 38,
          "name": "D2",
          "ticks": 43200,
          "time": 128.5713,
          "velocity": 0.7559055118110236
        },
        {
          "duration": 0.14285699999999224,
          "durationTicks": 48,
          "midi": 38,
          "name": "D2",
          "ticks": 43296,
          "time": 128.85701400000002,
          "velocity": 0.7559055118110236
        },
        {
          "duration": 0.2857139999999845,
          "durationTicks": 96,
          "midi": 38,
          "name": "D2",
          "ticks": 43344,
          "time": 128.999871,
          "velocity": 0.7559055118110236
        },
        {
          "duration": 0.14285700000002066,
          "durationTicks": 48,
          "midi": 38,
          "name": "D2",
          "ticks": 43440,
          "time": 129.285585,
          "velocity": 0.7559055118110236
        },
        {
          "duration": 0.42857100000000514,
          "durationTicks": 144,
          "midi": 38,
          "name": "D2",
          "ticks": 43488,
          "time": 129.42844200000002,
          "velocity": 0.7559055118110236
        },
        {
          "duration": 0.14285699999999224,
          "durationTicks": 48,
          "midi": 38,
          "name": "D2",
          "ticks": 43632,
          "time": 129.85701300000002,
          "velocity": 0.7559055118110236
        },
        {
          "duration": 0.2857139999999845,
          "durationTicks": 96,
          "midi": 38,
          "name": "D2",
          "ticks": 43680,
          "time": 129.99987000000002,
          "velocity": 0.7559055118110236
        },
        {
          "duration": 0.5714280000000258,
          "durationTicks": 192,
          "midi": 38,
          "name": "D2",
          "ticks": 43968,
          "time": 130.857012,
          "velocity": 0.7559055118110236
        },
        {
          "duration": 0.5714279999999974,
          "durationTicks": 192,
          "midi": 38,
          "name": "D2",
          "ticks": 44352,
          "time": 131.99986800000002,
          "velocity": 0.7559055118110236
        },
        {
          "duration": 0.5714279999999974,
          "durationTicks": 192,
          "midi": 38,
          "name": "D2",
          "ticks": 44736,
          "time": 133.14272400000002,
          "velocity": 0.7559055118110236
        },
        {
          "duration": 0.5714279999999974,
          "durationTicks": 192,
          "midi": 38,
          "name": "D2",
          "ticks": 45120,
          "time": 134.28558,
          "velocity": 0.7559055118110236
        },
        {
          "duration": 0.5714279999999974,
          "durationTicks": 192,
          "midi": 38,
          "name": "D2",
          "ticks": 45504,
          "time": 135.428436,
          "velocity": 0.7559055118110236
        },
        {
          "duration": 0.5714279999999974,
          "durationTicks": 192,
          "midi": 38,
          "name": "D2",
          "ticks": 45888,
          "time": 136.571292,
          "velocity": 0.7559055118110236
        },
        {
          "duration": 0.5714279999999974,
          "durationTicks": 192,
          "midi": 38,
          "name": "D2",
          "ticks": 46272,
          "time": 137.71414800000002,
          "velocity": 0.7559055118110236
        },
        {
          "duration": 0.5714279999999974,
          "durationTicks": 192,
          "midi": 38,
          "name": "D2",
          "ticks": 46656,
          "time": 138.85700400000002,
          "velocity": 0.7559055118110236
        },
        {
          "duration": 0.5714279999999974,
          "durationTicks": 192,
          "midi": 38,
          "name": "D2",
          "ticks": 47040,
          "time": 139.99986,
          "velocity": 0.7559055118110236
        },
        {
          "duration": 0.5714279999999974,
          "durationTicks": 192,
          "midi": 38,
          "name": "D2",
          "ticks": 47424,
          "time": 141.142716,
          "velocity": 0.7559055118110236
        },
        {
          "duration": 0.5714279999999974,
          "durationTicks": 192,
          "midi": 38,
          "name": "D2",
          "ticks": 47808,
          "time": 142.285572,
          "velocity": 0.7559055118110236
        },
        {
          "duration": 0.5714279999999974,
          "durationTicks": 192,
          "midi": 38,
          "name": "D2",
          "ticks": 48192,
          "time": 143.42842800000003,
          "velocity": 0.7559055118110236
        },
        {
          "duration": 0.5714279999999974,
          "durationTicks": 192,
          "midi": 38,
          "name": "D2",
          "ticks": 48576,
          "time": 144.57128400000002,
          "velocity": 0.7559055118110236
        },
        {
          "duration": 0.5714279999999974,
          "durationTicks": 192,
          "midi": 38,
          "name": "D2",
          "ticks": 48960,
          "time": 145.71414000000001,
          "velocity": 0.7559055118110236
        },
        {
          "duration": 0.5714279999999974,
          "durationTicks": 192,
          "midi": 38,
          "name": "D2",
          "ticks": 49344,
          "time": 146.856996,
          "velocity": 0.7559055118110236
        },
        {
          "duration": 0.5714280000000258,
          "durationTicks": 192,
          "midi": 38,
          "name": "D2",
          "ticks": 50112,
          "time": 149.142708,
          "velocity": 0.7559055118110236
        },
        {
          "duration": 0.5714279999999974,
          "durationTicks": 192,
          "midi": 38,
          "name": "D2",
          "ticks": 50496,
          "time": 150.28556400000002,
          "velocity": 0.7559055118110236
        },
        {
          "duration": 0.5714279999999974,
          "durationTicks": 192,
          "midi": 38,
          "name": "D2",
          "ticks": 50880,
          "time": 151.42842000000002,
          "velocity": 0.7559055118110236
        },
        {
          "duration": 0.5714279999999974,
          "durationTicks": 192,
          "midi": 38,
          "name": "D2",
          "ticks": 51264,
          "time": 152.571276,
          "velocity": 0.7559055118110236
        },
        {
          "duration": 0.5714279999999974,
          "durationTicks": 192,
          "midi": 38,
          "name": "D2",
          "ticks": 51648,
          "time": 153.714132,
          "velocity": 0.7559055118110236
        },
        {
          "duration": 0.5714280000000258,
          "durationTicks": 192,
          "midi": 38,
          "name": "D2",
          "ticks": 52032,
          "time": 154.856988,
          "velocity": 0.7559055118110236
        },
        {
          "duration": 0.5714279999999974,
          "durationTicks": 192,
          "midi": 38,
          "name": "D2",
          "ticks": 52416,
          "time": 155.99984400000002,
          "velocity": 0.7559055118110236
        },
        {
          "duration": 0.4285709999999767,
          "durationTicks": 144,
          "midi": 38,
          "name": "D2",
          "ticks": 52752,
          "time": 156.99984300000003,
          "velocity": 0.7559055118110236
        },
        {
          "duration": 0.2857140000000129,
          "durationTicks": 96,
          "midi": 38,
          "name": "D2",
          "ticks": 52896,
          "time": 157.428414,
          "velocity": 0.7559055118110236
        },
        {
          "duration": 0.5714279999999974,
          "durationTicks": 192,
          "midi": 38,
          "name": "D2",
          "ticks": 53184,
          "time": 158.285556,
          "velocity": 0.7559055118110236
        },
        {
          "duration": 0.5714279999999974,
          "durationTicks": 192,
          "midi": 38,
          "name": "D2",
          "ticks": 53568,
          "time": 159.428412,
          "velocity": 0.7559055118110236
        },
        {
          "duration": 0.5714279999999974,
          "durationTicks": 192,
          "midi": 38,
          "name": "D2",
          "ticks": 53952,
          "time": 160.571268,
          "velocity": 0.7559055118110236
        },
        {
          "duration": 0.5714279999999974,
          "durationTicks": 192,
          "midi": 38,
          "name": "D2",
          "ticks": 54336,
          "time": 161.71412400000003,
          "velocity": 0.7559055118110236
        },
        {
          "duration": 0.5714279999999974,
          "durationTicks": 192,
          "midi": 38,
          "name": "D2",
          "ticks": 54720,
          "time": 162.85698000000002,
          "velocity": 0.7559055118110236
        },
        {
          "duration": 0.5714279999999974,
          "durationTicks": 192,
          "midi": 38,
          "name": "D2",
          "ticks": 55104,
          "time": 163.99983600000002,
          "velocity": 0.7559055118110236
        },
        {
          "duration": 0.5714279999999974,
          "durationTicks": 192,
          "midi": 38,
          "name": "D2",
          "ticks": 55488,
          "time": 165.142692,
          "velocity": 0.7559055118110236
        },
        {
          "duration": 0.2857140000000129,
          "durationTicks": 96,
          "midi": 38,
          "name": "D2",
          "ticks": 55728,
          "time": 165.856977,
          "velocity": 0.7559055118110236
        },
        {
          "duration": 0.2857140000000129,
          "durationTicks": 96,
          "midi": 38,
          "name": "D2",
          "ticks": 55824,
          "time": 166.142691,
          "velocity": 0.7559055118110236
        },
        {
          "duration": 0.14285699999999224,
          "durationTicks": 48,
          "midi": 38,
          "name": "D2",
          "ticks": 55920,
          "time": 166.42840500000003,
          "velocity": 0.7559055118110236
        },
        {
          "duration": 0.2857139999999845,
          "durationTicks": 96,
          "midi": 38,
          "name": "D2",
          "ticks": 55968,
          "time": 166.57126200000002,
          "velocity": 0.7559055118110236
        },
        {
          "duration": 0.5714280000000258,
          "durationTicks": 192,
          "midi": 38,
          "name": "D2",
          "ticks": 56256,
          "time": 167.428404,
          "velocity": 0.7559055118110236
        },
        {
          "duration": 0.5714279999999974,
          "durationTicks": 192,
          "midi": 38,
          "name": "D2",
          "ticks": 56640,
          "time": 168.57126000000002,
          "velocity": 0.7559055118110236
        },
        {
          "duration": 0.5714279999999974,
          "durationTicks": 192,
          "midi": 38,
          "name": "D2",
          "ticks": 57024,
          "time": 169.71411600000002,
          "velocity": 0.7559055118110236
        },
        {
          "duration": 0.5714279999999974,
          "durationTicks": 192,
          "midi": 38,
          "name": "D2",
          "ticks": 57408,
          "time": 170.856972,
          "velocity": 0.7559055118110236
        },
        {
          "duration": 0.5714279999999974,
          "durationTicks": 192,
          "midi": 38,
          "name": "D2",
          "ticks": 57792,
          "time": 171.999828,
          "velocity": 0.7559055118110236
        },
        {
          "duration": 0.5714279999999974,
          "durationTicks": 192,
          "midi": 38,
          "name": "D2",
          "ticks": 58176,
          "time": 173.142684,
          "velocity": 0.7559055118110236
        },
        {
          "duration": 0.5714279999999974,
          "durationTicks": 192,
          "midi": 38,
          "name": "D2",
          "ticks": 58560,
          "time": 174.28554000000003,
          "velocity": 0.7559055118110236
        },
        {
          "duration": 0.4285709999999767,
          "durationTicks": 144,
          "midi": 38,
          "name": "D2",
          "ticks": 58896,
          "time": 175.28553900000003,
          "velocity": 0.7559055118110236
        },
        {
          "duration": 0.2857140000000129,
          "durationTicks": 96,
          "midi": 38,
          "name": "D2",
          "ticks": 59040,
          "time": 175.71411,
          "velocity": 0.7559055118110236
        },
        {
          "duration": 0.5714279999999974,
          "durationTicks": 192,
          "midi": 38,
          "name": "D2",
          "ticks": 59328,
          "time": 176.57125200000002,
          "velocity": 0.7559055118110236
        },
        {
          "duration": 0.5714279999999974,
          "durationTicks": 192,
          "midi": 38,
          "name": "D2",
          "ticks": 59712,
          "time": 177.714108,
          "velocity": 0.7559055118110236
        },
        {
          "duration": 0.5714279999999974,
          "durationTicks": 192,
          "midi": 38,
          "name": "D2",
          "ticks": 60096,
          "time": 178.856964,
          "velocity": 0.7559055118110236
        },
        {
          "duration": 0.5714279999999974,
          "durationTicks": 192,
          "midi": 38,
          "name": "D2",
          "ticks": 60480,
          "time": 179.99982000000003,
          "velocity": 0.7559055118110236
        },
        {
          "duration": 0.5714279999999974,
          "durationTicks": 192,
          "midi": 38,
          "name": "D2",
          "ticks": 60864,
          "time": 181.14267600000002,
          "velocity": 0.7559055118110236
        },
        {
          "duration": 0.5714279999999974,
          "durationTicks": 192,
          "midi": 38,
          "name": "D2",
          "ticks": 61248,
          "time": 182.28553200000002,
          "velocity": 0.7559055118110236
        },
        {
          "duration": 0.5714279999999974,
          "durationTicks": 192,
          "midi": 38,
          "name": "D2",
          "ticks": 61632,
          "time": 183.428388,
          "velocity": 0.7559055118110236
        },
        {
          "duration": 0.2857140000000129,
          "durationTicks": 96,
          "midi": 38,
          "name": "D2",
          "ticks": 61872,
          "time": 184.142673,
          "velocity": 0.7559055118110236
        },
        {
          "duration": 0.2857140000000129,
          "durationTicks": 96,
          "midi": 38,
          "name": "D2",
          "ticks": 61968,
          "time": 184.42838700000001,
          "velocity": 0.7559055118110236
        },
        {
          "duration": 0.14285699999999224,
          "durationTicks": 48,
          "midi": 38,
          "name": "D2",
          "ticks": 62064,
          "time": 184.71410100000003,
          "velocity": 0.7559055118110236
        },
        {
          "duration": 0.2857139999999845,
          "durationTicks": 96,
          "midi": 38,
          "name": "D2",
          "ticks": 62112,
          "time": 184.85695800000002,
          "velocity": 0.7559055118110236
        },
        {
          "duration": 0.5714280000000258,
          "durationTicks": 192,
          "midi": 38,
          "name": "D2",
          "ticks": 62400,
          "time": 185.7141,
          "velocity": 0.7559055118110236
        },
        {
          "duration": 0.5714279999999974,
          "durationTicks": 192,
          "midi": 38,
          "name": "D2",
          "ticks": 62784,
          "time": 186.85695600000003,
          "velocity": 0.7559055118110236
        },
        {
          "duration": 0.5714279999999974,
          "durationTicks": 192,
          "midi": 38,
          "name": "D2",
          "ticks": 63168,
          "time": 187.99981200000002,
          "velocity": 0.7559055118110236
        },
        {
          "duration": 0.5714279999999974,
          "durationTicks": 192,
          "midi": 38,
          "name": "D2",
          "ticks": 63552,
          "time": 189.14266800000001,
          "velocity": 0.7559055118110236
        },
        {
          "duration": 0.5714279999999974,
          "durationTicks": 192,
          "midi": 38,
          "name": "D2",
          "ticks": 63936,
          "time": 190.285524,
          "velocity": 0.7559055118110236
        },
        {
          "duration": 0.5714280000000258,
          "durationTicks": 192,
          "midi": 38,
          "name": "D2",
          "ticks": 64320,
          "time": 191.42838,
          "velocity": 0.7559055118110236
        },
        {
          "duration": 0.5714279999999974,
          "durationTicks": 192,
          "midi": 38,
          "name": "D2",
          "ticks": 64704,
          "time": 192.57123600000003,
          "velocity": 0.7559055118110236
        },
        {
          "duration": 0.2857139999999845,
          "durationTicks": 96,
          "midi": 38,
          "name": "D2",
          "ticks": 65088,
          "time": 193.71409200000002,
          "velocity": 0.7559055118110236
        },
        {
          "duration": 0.2857140000000129,
          "durationTicks": 96,
          "midi": 38,
          "name": "D2",
          "ticks": 65184,
          "time": 193.999806,
          "velocity": 0.7559055118110236
        },
        {
          "duration": 0.5714279999999974,
          "durationTicks": 192,
          "midi": 38,
          "name": "D2",
          "ticks": 65472,
          "time": 194.85694800000002,
          "velocity": 0.7559055118110236
        },
        {
          "duration": 0.5714279999999974,
          "durationTicks": 192,
          "midi": 38,
          "name": "D2",
          "ticks": 65856,
          "time": 195.999804,
          "velocity": 0.7559055118110236
        },
        {
          "duration": 0.5714279999999974,
          "durationTicks": 192,
          "midi": 38,
          "name": "D2",
          "ticks": 66240,
          "time": 197.14266,
          "velocity": 0.7559055118110236
        },
        {
          "duration": 0.5714279999999974,
          "durationTicks": 192,
          "midi": 38,
          "name": "D2",
          "ticks": 66624,
          "time": 198.28551600000003,
          "velocity": 0.7559055118110236
        },
        {
          "duration": 0.5714279999999974,
          "durationTicks": 192,
          "midi": 38,
          "name": "D2",
          "ticks": 67008,
          "time": 199.42837200000002,
          "velocity": 0.7559055118110236
        },
        {
          "duration": 0.5714279999999974,
          "durationTicks": 192,
          "midi": 38,
          "name": "D2",
          "ticks": 67392,
          "time": 200.57122800000002,
          "velocity": 0.7559055118110236
        },
        {
          "duration": 0.5714279999999974,
          "durationTicks": 192,
          "midi": 38,
          "name": "D2",
          "ticks": 67776,
          "time": 201.714084,
          "velocity": 0.7559055118110236
        },
        {
          "duration": 0.2857140000000129,
          "durationTicks": 96,
          "midi": 38,
          "name": "D2",
          "ticks": 68160,
          "time": 202.85694,
          "velocity": 0.7559055118110236
        },
        {
          "duration": 0.2857139999999845,
          "durationTicks": 96,
          "midi": 38,
          "name": "D2",
          "ticks": 68256,
          "time": 203.14265400000002,
          "velocity": 0.7559055118110236
        },
        {
          "duration": 0.5714280000000258,
          "durationTicks": 192,
          "midi": 38,
          "name": "D2",
          "ticks": 68544,
          "time": 203.999796,
          "velocity": 0.7559055118110236
        },
        {
          "duration": 0.5714279999999974,
          "durationTicks": 192,
          "midi": 38,
          "name": "D2",
          "ticks": 68928,
          "time": 205.14265200000003,
          "velocity": 0.7559055118110236
        },
        {
          "duration": 0.5714279999999974,
          "durationTicks": 192,
          "midi": 38,
          "name": "D2",
          "ticks": 69312,
          "time": 206.28550800000002,
          "velocity": 0.7559055118110236
        },
        {
          "duration": 0.5714279999999974,
          "durationTicks": 192,
          "midi": 38,
          "name": "D2",
          "ticks": 69696,
          "time": 207.42836400000002,
          "velocity": 0.7559055118110236
        },
        {
          "duration": 0.5714279999999974,
          "durationTicks": 192,
          "midi": 38,
          "name": "D2",
          "ticks": 70080,
          "time": 208.57122,
          "velocity": 0.7559055118110236
        },
        {
          "duration": 0.5714279999999974,
          "durationTicks": 192,
          "midi": 38,
          "name": "D2",
          "ticks": 70464,
          "time": 209.714076,
          "velocity": 0.7559055118110236
        },
        {
          "duration": 0.5714279999999974,
          "durationTicks": 192,
          "midi": 38,
          "name": "D2",
          "ticks": 70848,
          "time": 210.85693200000003,
          "velocity": 0.7559055118110236
        },
        {
          "duration": 0.4285709999999767,
          "durationTicks": 144,
          "midi": 38,
          "name": "D2",
          "ticks": 71184,
          "time": 211.85693100000003,
          "velocity": 0.7559055118110236
        },
        {
          "duration": 0.2857140000000129,
          "durationTicks": 96,
          "midi": 38,
          "name": "D2",
          "ticks": 71328,
          "time": 212.285502,
          "velocity": 0.7559055118110236
        },
        {
          "duration": 0.5714279999999974,
          "durationTicks": 192,
          "midi": 38,
          "name": "D2",
          "ticks": 71616,
          "time": 213.14264400000002,
          "velocity": 0.7559055118110236
        },
        {
          "duration": 0.5714279999999974,
          "durationTicks": 192,
          "midi": 38,
          "name": "D2",
          "ticks": 72000,
          "time": 214.2855,
          "velocity": 0.7559055118110236
        },
        {
          "duration": 0.5714279999999974,
          "durationTicks": 192,
          "midi": 38,
          "name": "D2",
          "ticks": 72384,
          "time": 215.428356,
          "velocity": 0.7559055118110236
        },
        {
          "duration": 0.5714279999999974,
          "durationTicks": 192,
          "midi": 38,
          "name": "D2",
          "ticks": 72768,
          "time": 216.57121200000003,
          "velocity": 0.7559055118110236
        },
        {
          "duration": 0.5714279999999974,
          "durationTicks": 192,
          "midi": 38,
          "name": "D2",
          "ticks": 73152,
          "time": 217.71406800000003,
          "velocity": 0.7559055118110236
        },
        {
          "duration": 0.5714279999999974,
          "durationTicks": 192,
          "midi": 38,
          "name": "D2",
          "ticks": 73536,
          "time": 218.85692400000002,
          "velocity": 0.7559055118110236
        },
        {
          "duration": 0.5714279999999974,
          "durationTicks": 192,
          "midi": 38,
          "name": "D2",
          "ticks": 73920,
          "time": 219.99978000000002,
          "velocity": 0.7559055118110236
        },
        {
          "duration": 0.2857140000000129,
          "durationTicks": 96,
          "midi": 38,
          "name": "D2",
          "ticks": 74160,
          "time": 220.714065,
          "velocity": 0.7559055118110236
        },
        {
          "duration": 0.2857140000000129,
          "durationTicks": 96,
          "midi": 38,
          "name": "D2",
          "ticks": 74256,
          "time": 220.99977900000002,
          "velocity": 0.7559055118110236
        },
        {
          "duration": 0.14285699999999224,
          "durationTicks": 48,
          "midi": 38,
          "name": "D2",
          "ticks": 74352,
          "time": 221.28549300000003,
          "velocity": 0.7559055118110236
        },
        {
          "duration": 0.2857139999999845,
          "durationTicks": 96,
          "midi": 38,
          "name": "D2",
          "ticks": 74400,
          "time": 221.42835000000002,
          "velocity": 0.7559055118110236
        },
        {
          "duration": 0.5714280000000258,
          "durationTicks": 192,
          "midi": 38,
          "name": "D2",
          "ticks": 74688,
          "time": 222.285492,
          "velocity": 0.7559055118110236
        },
        {
          "duration": 0.5714279999999974,
          "durationTicks": 192,
          "midi": 38,
          "name": "D2",
          "ticks": 75072,
          "time": 223.42834800000003,
          "velocity": 0.7559055118110236
        },
        {
          "duration": 0.5714279999999974,
          "durationTicks": 192,
          "midi": 38,
          "name": "D2",
          "ticks": 75456,
          "time": 224.57120400000002,
          "velocity": 0.7559055118110236
        },
        {
          "duration": 0.5714279999999974,
          "durationTicks": 192,
          "midi": 38,
          "name": "D2",
          "ticks": 75840,
          "time": 225.71406000000002,
          "velocity": 0.7559055118110236
        },
        {
          "duration": 0.5714279999999974,
          "durationTicks": 192,
          "midi": 38,
          "name": "D2",
          "ticks": 76224,
          "time": 226.856916,
          "velocity": 0.7559055118110236
        },
        {
          "duration": 0.5714280000000258,
          "durationTicks": 192,
          "midi": 38,
          "name": "D2",
          "ticks": 76608,
          "time": 227.999772,
          "velocity": 0.7559055118110236
        },
        {
          "duration": 0.5714279999999974,
          "durationTicks": 192,
          "midi": 38,
          "name": "D2",
          "ticks": 76992,
          "time": 229.14262800000003,
          "velocity": 0.7559055118110236
        },
        {
          "duration": 0.4285709999999767,
          "durationTicks": 144,
          "midi": 38,
          "name": "D2",
          "ticks": 77328,
          "time": 230.14262700000003,
          "velocity": 0.7559055118110236
        },
        {
          "duration": 0.2857140000000129,
          "durationTicks": 96,
          "midi": 38,
          "name": "D2",
          "ticks": 77472,
          "time": 230.571198,
          "velocity": 0.7559055118110236
        },
        {
          "duration": 0.5714279999999974,
          "durationTicks": 192,
          "midi": 38,
          "name": "D2",
          "ticks": 77760,
          "time": 231.42834000000002,
          "velocity": 0.7559055118110236
        },
        {
          "duration": 0.5714279999999974,
          "durationTicks": 192,
          "midi": 38,
          "name": "D2",
          "ticks": 78144,
          "time": 232.57119600000001,
          "velocity": 0.7559055118110236
        },
        {
          "duration": 0.5714279999999974,
          "durationTicks": 192,
          "midi": 38,
          "name": "D2",
          "ticks": 78528,
          "time": 233.714052,
          "velocity": 0.7559055118110236
        },
        {
          "duration": 0.5714279999999974,
          "durationTicks": 192,
          "midi": 38,
          "name": "D2",
          "ticks": 78912,
          "time": 234.85690800000003,
          "velocity": 0.7559055118110236
        },
        {
          "duration": 0.5714279999999974,
          "durationTicks": 192,
          "midi": 38,
          "name": "D2",
          "ticks": 79296,
          "time": 235.99976400000003,
          "velocity": 0.7559055118110236
        },
        {
          "duration": 0.5714279999999974,
          "durationTicks": 192,
          "midi": 38,
          "name": "D2",
          "ticks": 79680,
          "time": 237.14262000000002,
          "velocity": 0.7559055118110236
        },
        {
          "duration": 0.5714279999999974,
          "durationTicks": 192,
          "midi": 38,
          "name": "D2",
          "ticks": 80064,
          "time": 238.28547600000002,
          "velocity": 0.7559055118110236
        },
        {
          "duration": 0.2857140000000129,
          "durationTicks": 96,
          "midi": 38,
          "name": "D2",
          "ticks": 80304,
          "time": 238.999761,
          "velocity": 0.7559055118110236
        },
        {
          "duration": 0.2857140000000129,
          "durationTicks": 96,
          "midi": 38,
          "name": "D2",
          "ticks": 80400,
          "time": 239.28547500000002,
          "velocity": 0.7559055118110236
        },
        {
          "duration": 0.14285699999999224,
          "durationTicks": 48,
          "midi": 38,
          "name": "D2",
          "ticks": 80496,
          "time": 239.57118900000003,
          "velocity": 0.7559055118110236
        },
        {
          "duration": 0.2857139999999845,
          "durationTicks": 96,
          "midi": 38,
          "name": "D2",
          "ticks": 80544,
          "time": 239.71404600000002,
          "velocity": 0.7559055118110236
        },
        {
          "duration": 0.5714280000000258,
          "durationTicks": 192,
          "midi": 38,
          "name": "D2",
          "ticks": 80832,
          "time": 240.571188,
          "velocity": 0.7559055118110236
        },
        {
          "duration": 0.5714279999999974,
          "durationTicks": 192,
          "midi": 38,
          "name": "D2",
          "ticks": 81216,
          "time": 241.71404400000003,
          "velocity": 0.7559055118110236
        },
        {
          "duration": 0.5714279999999974,
          "durationTicks": 192,
          "midi": 38,
          "name": "D2",
          "ticks": 81600,
          "time": 242.85690000000002,
          "velocity": 0.7559055118110236
        },
        {
          "duration": 0.5714279999999974,
          "durationTicks": 192,
          "midi": 38,
          "name": "D2",
          "ticks": 81984,
          "time": 243.99975600000002,
          "velocity": 0.7559055118110236
        },
        {
          "duration": 0.5714279999999974,
          "durationTicks": 192,
          "midi": 38,
          "name": "D2",
          "ticks": 82368,
          "time": 245.142612,
          "velocity": 0.7559055118110236
        },
        {
          "duration": 0.5714279999999974,
          "durationTicks": 192,
          "midi": 38,
          "name": "D2",
          "ticks": 82752,
          "time": 246.285468,
          "velocity": 0.7559055118110236
        },
        {
          "duration": 0.5714279999999974,
          "durationTicks": 192,
          "midi": 38,
          "name": "D2",
          "ticks": 83136,
          "time": 247.42832400000003,
          "velocity": 0.7559055118110236
        },
        {
          "duration": 0.5714279999999974,
          "durationTicks": 192,
          "midi": 38,
          "name": "D2",
          "ticks": 83904,
          "time": 249.71403600000002,
          "velocity": 0.7559055118110236
        },
        {
          "duration": 0.5714279999999974,
          "durationTicks": 192,
          "midi": 38,
          "name": "D2",
          "ticks": 84288,
          "time": 250.85689200000002,
          "velocity": 0.7559055118110236
        },
        {
          "duration": 0.5714279999999974,
          "durationTicks": 192,
          "midi": 38,
          "name": "D2",
          "ticks": 84672,
          "time": 251.999748,
          "velocity": 0.7559055118110236
        },
        {
          "duration": 0.5714279999999974,
          "durationTicks": 192,
          "midi": 38,
          "name": "D2",
          "ticks": 85056,
          "time": 253.14260400000003,
          "velocity": 0.7559055118110236
        },
        {
          "duration": 0.5714279999999974,
          "durationTicks": 192,
          "midi": 38,
          "name": "D2",
          "ticks": 85440,
          "time": 254.28546000000003,
          "velocity": 0.7559055118110236
        },
        {
          "duration": 0.5714279999999974,
          "durationTicks": 192,
          "midi": 38,
          "name": "D2",
          "ticks": 85824,
          "time": 255.42831600000002,
          "velocity": 0.7559055118110236
        },
        {
          "duration": 0.571427999999969,
          "durationTicks": 192,
          "midi": 38,
          "name": "D2",
          "ticks": 86208,
          "time": 256.57117200000005,
          "velocity": 0.7559055118110236
        },
        {
          "duration": 0.2857139999999845,
          "durationTicks": 96,
          "midi": 38,
          "name": "D2",
          "ticks": 86592,
          "time": 257.71402800000004,
          "velocity": 0.7559055118110236
        },
        {
          "duration": 0.2857139999999845,
          "durationTicks": 96,
          "midi": 38,
          "name": "D2",
          "ticks": 86688,
          "time": 257.999742,
          "velocity": 0.7559055118110236
        },
        {
          "duration": 0.571427999999969,
          "durationTicks": 192,
          "midi": 38,
          "name": "D2",
          "ticks": 86976,
          "time": 258.85688400000004,
          "velocity": 0.7559055118110236
        },
        {
          "duration": 0.571427999999969,
          "durationTicks": 192,
          "midi": 38,
          "name": "D2",
          "ticks": 87360,
          "time": 259.99974000000003,
          "velocity": 0.7559055118110236
        },
        {
          "duration": 0.571427999999969,
          "durationTicks": 192,
          "midi": 38,
          "name": "D2",
          "ticks": 87744,
          "time": 261.142596,
          "velocity": 0.7559055118110236
        },
        {
          "duration": 0.5714280000000258,
          "durationTicks": 192,
          "midi": 38,
          "name": "D2",
          "ticks": 88128,
          "time": 262.285452,
          "velocity": 0.7559055118110236
        },
        {
          "duration": 0.5714280000000258,
          "durationTicks": 192,
          "midi": 38,
          "name": "D2",
          "ticks": 88512,
          "time": 263.428308,
          "velocity": 0.7559055118110236
        },
        {
          "duration": 0.5714280000000258,
          "durationTicks": 192,
          "midi": 38,
          "name": "D2",
          "ticks": 88896,
          "time": 264.571164,
          "velocity": 0.7559055118110236
        },
        {
          "duration": 0.5714280000000258,
          "durationTicks": 192,
          "midi": 38,
          "name": "D2",
          "ticks": 89280,
          "time": 265.71402,
          "velocity": 0.7559055118110236
        },
        {
          "duration": 0.2857140000000413,
          "durationTicks": 96,
          "midi": 38,
          "name": "D2",
          "ticks": 89664,
          "time": 266.856876,
          "velocity": 0.7559055118110236
        },
        {
          "duration": 0.2857139999999845,
          "durationTicks": 96,
          "midi": 38,
          "name": "D2",
          "ticks": 89760,
          "time": 267.14259000000004,
          "velocity": 0.7559055118110236
        },
        {
          "duration": 0.5714280000000258,
          "durationTicks": 192,
          "midi": 38,
          "name": "D2",
          "ticks": 90048,
          "time": 267.999732,
          "velocity": 0.7559055118110236
        },
        {
          "duration": 0.571427999999969,
          "durationTicks": 192,
          "midi": 38,
          "name": "D2",
          "ticks": 90432,
          "time": 269.14258800000005,
          "velocity": 0.7559055118110236
        },
        {
          "duration": 0.571427999999969,
          "durationTicks": 192,
          "midi": 38,
          "name": "D2",
          "ticks": 90816,
          "time": 270.28544400000004,
          "velocity": 0.7559055118110236
        },
        {
          "duration": 0.571427999999969,
          "durationTicks": 192,
          "midi": 38,
          "name": "D2",
          "ticks": 91200,
          "time": 271.42830000000004,
          "velocity": 0.7559055118110236
        },
        {
          "duration": 0.571427999999969,
          "durationTicks": 192,
          "midi": 38,
          "name": "D2",
          "ticks": 91584,
          "time": 272.57115600000003,
          "velocity": 0.7559055118110236
        },
        {
          "duration": 0.571427999999969,
          "durationTicks": 192,
          "midi": 38,
          "name": "D2",
          "ticks": 91968,
          "time": 273.714012,
          "velocity": 0.7559055118110236
        },
        {
          "duration": 0.5714280000000258,
          "durationTicks": 192,
          "midi": 38,
          "name": "D2",
          "ticks": 92352,
          "time": 274.856868,
          "velocity": 0.7559055118110236
        },
        {
          "duration": 0.5714280000000258,
          "durationTicks": 192,
          "midi": 38,
          "name": "D2",
          "ticks": 92736,
          "time": 275.999724,
          "velocity": 0.7559055118110236
        },
        {
          "duration": 0.5714280000000258,
          "durationTicks": 192,
          "midi": 38,
          "name": "D2",
          "ticks": 93120,
          "time": 277.14258,
          "velocity": 0.7559055118110236
        },
        {
          "duration": 0.5714280000000258,
          "durationTicks": 192,
          "midi": 38,
          "name": "D2",
          "ticks": 93504,
          "time": 278.285436,
          "velocity": 0.7559055118110236
        },
        {
          "duration": 0.5714280000000258,
          "durationTicks": 192,
          "midi": 38,
          "name": "D2",
          "ticks": 93888,
          "time": 279.428292,
          "velocity": 0.7559055118110236
        },
        {
          "duration": 0.571427999999969,
          "durationTicks": 192,
          "midi": 38,
          "name": "D2",
          "ticks": 94272,
          "time": 280.57114800000005,
          "velocity": 0.7559055118110236
        },
        {
          "duration": 0.571427999999969,
          "durationTicks": 192,
          "midi": 38,
          "name": "D2",
          "ticks": 94656,
          "time": 281.71400400000005,
          "velocity": 0.7559055118110236
        },
        {
          "duration": 0.571427999999969,
          "durationTicks": 192,
          "midi": 38,
          "name": "D2",
          "ticks": 95040,
          "time": 282.85686000000004,
          "velocity": 0.7559055118110236
        },
        {
          "duration": 0.571427999999969,
          "durationTicks": 192,
          "midi": 38,
          "name": "D2",
          "ticks": 95424,
          "time": 283.99971600000003,
          "velocity": 0.7559055118110236
        },
        {
          "duration": 0.571427999999969,
          "durationTicks": 192,
          "midi": 38,
          "name": "D2",
          "ticks": 95808,
          "time": 285.14257200000003,
          "velocity": 0.7559055118110236
        }
      ],
      "endOfTrackTicks": 96000
    },
    {
      "channel": 9,
      "controlChanges": {
        "7": [
          {
            "number": 7,
            "ticks": 0,
            "time": 0,
            "value": 0.7874015748031497
          }
        ],
        "10": [
          {
            "number": 10,
            "ticks": 0,
            "time": 0,
            "value": 0.5039370078740157
          }
        ]
      },
      "pitchBends": [],
      "instrument": {
        "family": "drums",
        "number": 16,
        "name": "power kit"
      },
      "name": "Tamborine           ",
      "notes": [
        {
          "duration": 0.14285699999999935,
          "durationTicks": 48,
          "midi": 54,
          "name": "F#3",
          "ticks": 7488,
          "time": 22.285692,
          "velocity": 0.7559055118110236
        },
        {
          "duration": 0.14285699999999935,
          "durationTicks": 48,
          "midi": 54,
          "name": "F#3",
          "ticks": 7584,
          "time": 22.571406000000003,
          "velocity": 0.7559055118110236
        },
        {
          "duration": 0.14285699999999935,
          "durationTicks": 48,
          "midi": 54,
          "name": "F#3",
          "ticks": 8256,
          "time": 24.571404,
          "velocity": 0.7559055118110236
        },
        {
          "duration": 0.14285699999999935,
          "durationTicks": 48,
          "midi": 54,
          "name": "F#3",
          "ticks": 8352,
          "time": 24.857118000000003,
          "velocity": 0.7559055118110236
        },
        {
          "duration": 0.14285699999999935,
          "durationTicks": 48,
          "midi": 54,
          "name": "F#3",
          "ticks": 9024,
          "time": 26.857116,
          "velocity": 0.7559055118110236
        },
        {
          "duration": 0.14285699999999935,
          "durationTicks": 48,
          "midi": 54,
          "name": "F#3",
          "ticks": 9120,
          "time": 27.142830000000004,
          "velocity": 0.7559055118110236
        },
        {
          "duration": 0.14285699999999935,
          "durationTicks": 48,
          "midi": 54,
          "name": "F#3",
          "ticks": 9792,
          "time": 29.142828,
          "velocity": 0.7559055118110236
        },
        {
          "duration": 0.14285699999999935,
          "durationTicks": 48,
          "midi": 54,
          "name": "F#3",
          "ticks": 9888,
          "time": 29.428542000000004,
          "velocity": 0.7559055118110236
        },
        {
          "duration": 0.14285699999999935,
          "durationTicks": 48,
          "midi": 54,
          "name": "F#3",
          "ticks": 10560,
          "time": 31.42854,
          "velocity": 0.7559055118110236
        },
        {
          "duration": 0.14285699999999935,
          "durationTicks": 48,
          "midi": 54,
          "name": "F#3",
          "ticks": 10656,
          "time": 31.714254000000004,
          "velocity": 0.7559055118110236
        },
        {
          "duration": 0.14285699999999935,
          "durationTicks": 48,
          "midi": 54,
          "name": "F#3",
          "ticks": 11328,
          "time": 33.714252,
          "velocity": 0.7559055118110236
        },
        {
          "duration": 0.14285699999999935,
          "durationTicks": 48,
          "midi": 54,
          "name": "F#3",
          "ticks": 11424,
          "time": 33.999966,
          "velocity": 0.7559055118110236
        },
        {
          "duration": 0.14285699999999935,
          "durationTicks": 48,
          "midi": 54,
          "name": "F#3",
          "ticks": 12096,
          "time": 35.999964000000006,
          "velocity": 0.7559055118110236
        },
        {
          "duration": 0.14285699999999935,
          "durationTicks": 48,
          "midi": 54,
          "name": "F#3",
          "ticks": 12192,
          "time": 36.285678000000004,
          "velocity": 0.7559055118110236
        },
        {
          "duration": 0.14285699999999935,
          "durationTicks": 48,
          "midi": 54,
          "name": "F#3",
          "ticks": 12864,
          "time": 38.285676,
          "velocity": 0.7559055118110236
        },
        {
          "duration": 0.14285699999999935,
          "durationTicks": 48,
          "midi": 54,
          "name": "F#3",
          "ticks": 12960,
          "time": 38.57139,
          "velocity": 0.7559055118110236
        },
        {
          "duration": 0.14285699999999935,
          "durationTicks": 48,
          "midi": 54,
          "name": "F#3",
          "ticks": 13632,
          "time": 40.571388000000006,
          "velocity": 0.7559055118110236
        },
        {
          "duration": 0.14285699999999935,
          "durationTicks": 48,
          "midi": 54,
          "name": "F#3",
          "ticks": 13728,
          "time": 40.857102000000005,
          "velocity": 0.7559055118110236
        },
        {
          "duration": 0.14285699999999935,
          "durationTicks": 48,
          "midi": 54,
          "name": "F#3",
          "ticks": 14400,
          "time": 42.8571,
          "velocity": 0.7559055118110236
        },
        {
          "duration": 0.14285699999999935,
          "durationTicks": 48,
          "midi": 54,
          "name": "F#3",
          "ticks": 14496,
          "time": 43.142814,
          "velocity": 0.7559055118110236
        },
        {
          "duration": 0.14285699999999935,
          "durationTicks": 48,
          "midi": 54,
          "name": "F#3",
          "ticks": 15168,
          "time": 45.142812000000006,
          "velocity": 0.7559055118110236
        },
        {
          "duration": 0.14285699999999935,
          "durationTicks": 48,
          "midi": 54,
          "name": "F#3",
          "ticks": 15264,
          "time": 45.428526000000005,
          "velocity": 0.7559055118110236
        },
        {
          "duration": 0.14285699999999935,
          "durationTicks": 48,
          "midi": 54,
          "name": "F#3",
          "ticks": 15936,
          "time": 47.428524,
          "velocity": 0.7559055118110236
        },
        {
          "duration": 0.14285699999999935,
          "durationTicks": 48,
          "midi": 54,
          "name": "F#3",
          "ticks": 16032,
          "time": 47.714238,
          "velocity": 0.7559055118110236
        },
        {
          "duration": 0.14285699999999935,
          "durationTicks": 48,
          "midi": 54,
          "name": "F#3",
          "ticks": 16704,
          "time": 49.71423600000001,
          "velocity": 0.7559055118110236
        },
        {
          "duration": 0.14285699999999935,
          "durationTicks": 48,
          "midi": 54,
          "name": "F#3",
          "ticks": 16800,
          "time": 49.999950000000005,
          "velocity": 0.7559055118110236
        },
        {
          "duration": 0.14285699999999935,
          "durationTicks": 48,
          "midi": 54,
          "name": "F#3",
          "ticks": 17472,
          "time": 51.999948,
          "velocity": 0.7559055118110236
        },
        {
          "duration": 0.14285699999999935,
          "durationTicks": 48,
          "midi": 54,
          "name": "F#3",
          "ticks": 17568,
          "time": 52.285662,
          "velocity": 0.7559055118110236
        },
        {
          "duration": 0.14285699999999935,
          "durationTicks": 48,
          "midi": 54,
          "name": "F#3",
          "ticks": 18240,
          "time": 54.28566000000001,
          "velocity": 0.7559055118110236
        },
        {
          "duration": 0.14285699999999935,
          "durationTicks": 48,
          "midi": 54,
          "name": "F#3",
          "ticks": 18336,
          "time": 54.571374000000006,
          "velocity": 0.7559055118110236
        },
        {
          "duration": 0.14285699999999935,
          "durationTicks": 48,
          "midi": 54,
          "name": "F#3",
          "ticks": 19008,
          "time": 56.571372000000004,
          "velocity": 0.7559055118110236
        },
        {
          "duration": 0.14285699999999935,
          "durationTicks": 48,
          "midi": 54,
          "name": "F#3",
          "ticks": 19104,
          "time": 56.857086,
          "velocity": 0.7559055118110236
        },
        {
          "duration": 0.14285699999999935,
          "durationTicks": 48,
          "midi": 54,
          "name": "F#3",
          "ticks": 19776,
          "time": 58.85708400000001,
          "velocity": 0.7559055118110236
        },
        {
          "duration": 0.14285699999999935,
          "durationTicks": 48,
          "midi": 54,
          "name": "F#3",
          "ticks": 19872,
          "time": 59.142798000000006,
          "velocity": 0.7559055118110236
        },
        {
          "duration": 0.14285699999999935,
          "durationTicks": 48,
          "midi": 54,
          "name": "F#3",
          "ticks": 20544,
          "time": 61.142796000000004,
          "velocity": 0.7559055118110236
        },
        {
          "duration": 0.14285699999999935,
          "durationTicks": 48,
          "midi": 54,
          "name": "F#3",
          "ticks": 20640,
          "time": 61.42851,
          "velocity": 0.7559055118110236
        },
        {
          "duration": 0.14285699999999935,
          "durationTicks": 48,
          "midi": 54,
          "name": "F#3",
          "ticks": 21312,
          "time": 63.42850800000001,
          "velocity": 0.7559055118110236
        },
        {
          "duration": 0.14285699999999935,
          "durationTicks": 48,
          "midi": 54,
          "name": "F#3",
          "ticks": 21408,
          "time": 63.71422200000001,
          "velocity": 0.7559055118110236
        },
        {
          "duration": 0.14285699999999224,
          "durationTicks": 48,
          "midi": 54,
          "name": "F#3",
          "ticks": 22080,
          "time": 65.71422000000001,
          "velocity": 0.7559055118110236
        },
        {
          "duration": 0.14285699999999224,
          "durationTicks": 48,
          "midi": 54,
          "name": "F#3",
          "ticks": 22176,
          "time": 65.99993400000001,
          "velocity": 0.7559055118110236
        },
        {
          "duration": 0.14285700000000645,
          "durationTicks": 48,
          "midi": 54,
          "name": "F#3",
          "ticks": 22848,
          "time": 67.999932,
          "velocity": 0.7559055118110236
        },
        {
          "duration": 0.14285700000000645,
          "durationTicks": 48,
          "midi": 54,
          "name": "F#3",
          "ticks": 22944,
          "time": 68.285646,
          "velocity": 0.7559055118110236
        },
        {
          "duration": 0.14285700000000645,
          "durationTicks": 48,
          "midi": 54,
          "name": "F#3",
          "ticks": 23616,
          "time": 70.285644,
          "velocity": 0.7559055118110236
        },
        {
          "duration": 0.14285700000000645,
          "durationTicks": 48,
          "midi": 54,
          "name": "F#3",
          "ticks": 23712,
          "time": 70.571358,
          "velocity": 0.7559055118110236
        },
        {
          "duration": 0.14285699999999224,
          "durationTicks": 48,
          "midi": 54,
          "name": "F#3",
          "ticks": 24384,
          "time": 72.57135600000001,
          "velocity": 0.7559055118110236
        },
        {
          "duration": 0.14285699999999224,
          "durationTicks": 48,
          "midi": 54,
          "name": "F#3",
          "ticks": 24480,
          "time": 72.85707000000001,
          "velocity": 0.7559055118110236
        },
        {
          "duration": 0.14285699999999224,
          "durationTicks": 48,
          "midi": 54,
          "name": "F#3",
          "ticks": 25152,
          "time": 74.85706800000001,
          "velocity": 0.7559055118110236
        },
        {
          "duration": 0.14285699999999224,
          "durationTicks": 48,
          "midi": 54,
          "name": "F#3",
          "ticks": 25248,
          "time": 75.14278200000001,
          "velocity": 0.7559055118110236
        },
        {
          "duration": 0.14285700000000645,
          "durationTicks": 48,
          "midi": 54,
          "name": "F#3",
          "ticks": 25920,
          "time": 77.14278,
          "velocity": 0.7559055118110236
        },
        {
          "duration": 0.14285700000000645,
          "durationTicks": 48,
          "midi": 54,
          "name": "F#3",
          "ticks": 26016,
          "time": 77.428494,
          "velocity": 0.7559055118110236
        },
        {
          "duration": 0.14285700000000645,
          "durationTicks": 48,
          "midi": 54,
          "name": "F#3",
          "ticks": 26688,
          "time": 79.428492,
          "velocity": 0.7559055118110236
        },
        {
          "duration": 0.14285700000000645,
          "durationTicks": 48,
          "midi": 54,
          "name": "F#3",
          "ticks": 26784,
          "time": 79.714206,
          "velocity": 0.7559055118110236
        },
        {
          "duration": 0.14285699999999224,
          "durationTicks": 48,
          "midi": 54,
          "name": "F#3",
          "ticks": 27456,
          "time": 81.71420400000001,
          "velocity": 0.7559055118110236
        },
        {
          "duration": 0.14285699999999224,
          "durationTicks": 48,
          "midi": 54,
          "name": "F#3",
          "ticks": 27552,
          "time": 81.99991800000001,
          "velocity": 0.7559055118110236
        },
        {
          "duration": 0.14285699999999224,
          "durationTicks": 48,
          "midi": 54,
          "name": "F#3",
          "ticks": 28224,
          "time": 83.99991600000001,
          "velocity": 0.7559055118110236
        },
        {
          "duration": 0.14285699999999224,
          "durationTicks": 48,
          "midi": 54,
          "name": "F#3",
          "ticks": 28320,
          "time": 84.28563000000001,
          "velocity": 0.7559055118110236
        },
        {
          "duration": 0.14285700000000645,
          "durationTicks": 48,
          "midi": 54,
          "name": "F#3",
          "ticks": 28992,
          "time": 86.285628,
          "velocity": 0.7559055118110236
        },
        {
          "duration": 0.14285700000000645,
          "durationTicks": 48,
          "midi": 54,
          "name": "F#3",
          "ticks": 29088,
          "time": 86.571342,
          "velocity": 0.7559055118110236
        },
        {
          "duration": 0.14285700000000645,
          "durationTicks": 48,
          "midi": 54,
          "name": "F#3",
          "ticks": 29760,
          "time": 88.57134,
          "velocity": 0.7559055118110236
        },
        {
          "duration": 0.14285700000000645,
          "durationTicks": 48,
          "midi": 54,
          "name": "F#3",
          "ticks": 29856,
          "time": 88.857054,
          "velocity": 0.7559055118110236
        },
        {
          "duration": 0.14285699999999224,
          "durationTicks": 48,
          "midi": 54,
          "name": "F#3",
          "ticks": 30528,
          "time": 90.85705200000001,
          "velocity": 0.7559055118110236
        },
        {
          "duration": 0.14285699999999224,
          "durationTicks": 48,
          "midi": 54,
          "name": "F#3",
          "ticks": 30624,
          "time": 91.14276600000001,
          "velocity": 0.7559055118110236
        },
        {
          "duration": 0.14285699999999224,
          "durationTicks": 48,
          "midi": 54,
          "name": "F#3",
          "ticks": 31296,
          "time": 93.14276400000001,
          "velocity": 0.7559055118110236
        },
        {
          "duration": 0.14285699999999224,
          "durationTicks": 48,
          "midi": 54,
          "name": "F#3",
          "ticks": 31392,
          "time": 93.42847800000001,
          "velocity": 0.7559055118110236
        },
        {
          "duration": 0.14285700000000645,
          "durationTicks": 48,
          "midi": 54,
          "name": "F#3",
          "ticks": 38208,
          "time": 113.714172,
          "velocity": 0.7559055118110236
        },
        {
          "duration": 0.14285700000000645,
          "durationTicks": 48,
          "midi": 54,
          "name": "F#3",
          "ticks": 38304,
          "time": 113.999886,
          "velocity": 0.7559055118110236
        },
        {
          "duration": 0.14285700000000645,
          "durationTicks": 48,
          "midi": 54,
          "name": "F#3",
          "ticks": 38976,
          "time": 115.99988400000001,
          "velocity": 0.7559055118110236
        },
        {
          "duration": 0.14285700000000645,
          "durationTicks": 48,
          "midi": 54,
          "name": "F#3",
          "ticks": 39072,
          "time": 116.28559800000001,
          "velocity": 0.7559055118110236
        },
        {
          "duration": 0.14285699999999224,
          "durationTicks": 48,
          "midi": 54,
          "name": "F#3",
          "ticks": 39744,
          "time": 118.28559600000001,
          "velocity": 0.7559055118110236
        },
        {
          "duration": 0.14285699999999224,
          "durationTicks": 48,
          "midi": 54,
          "name": "F#3",
          "ticks": 39840,
          "time": 118.57131000000001,
          "velocity": 0.7559055118110236
        },
        {
          "duration": 0.2857139999999987,
          "durationTicks": 96,
          "midi": 54,
          "name": "F#3",
          "ticks": 40368,
          "time": 120.14273700000001,
          "velocity": 0.7559055118110236
        },
        {
          "duration": 0.14285700000000645,
          "durationTicks": 48,
          "midi": 54,
          "name": "F#3",
          "ticks": 40464,
          "time": 120.42845100000001,
          "velocity": 0.7559055118110236
        },
        {
          "duration": 0.14285699999999224,
          "durationTicks": 48,
          "midi": 54,
          "name": "F#3",
          "ticks": 40512,
          "time": 120.57130800000002,
          "velocity": 0.7559055118110236
        },
        {
          "duration": 0.14285699999999224,
          "durationTicks": 48,
          "midi": 54,
          "name": "F#3",
          "ticks": 40608,
          "time": 120.85702200000001,
          "velocity": 0.7559055118110236
        },
        {
          "duration": 0.14285700000000645,
          "durationTicks": 48,
          "midi": 54,
          "name": "F#3",
          "ticks": 41280,
          "time": 122.85702,
          "velocity": 0.7559055118110236
        },
        {
          "duration": 0.14285700000000645,
          "durationTicks": 48,
          "midi": 54,
          "name": "F#3",
          "ticks": 41376,
          "time": 123.142734,
          "velocity": 0.7559055118110236
        },
        {
          "duration": 0.14285700000000645,
          "durationTicks": 48,
          "midi": 54,
          "name": "F#3",
          "ticks": 42048,
          "time": 125.14273200000001,
          "velocity": 0.7559055118110236
        },
        {
          "duration": 0.14285700000000645,
          "durationTicks": 48,
          "midi": 54,
          "name": "F#3",
          "ticks": 42144,
          "time": 125.42844600000001,
          "velocity": 0.7559055118110236
        },
        {
          "duration": 0.14285699999999224,
          "durationTicks": 48,
          "midi": 54,
          "name": "F#3",
          "ticks": 42816,
          "time": 127.42844400000001,
          "velocity": 0.7559055118110236
        },
        {
          "duration": 0.14285699999999224,
          "durationTicks": 48,
          "midi": 54,
          "name": "F#3",
          "ticks": 42912,
          "time": 127.71415800000001,
          "velocity": 0.7559055118110236
        },
        {
          "duration": 0.14285700000002066,
          "durationTicks": 48,
          "midi": 54,
          "name": "F#3",
          "ticks": 43584,
          "time": 129.714156,
          "velocity": 0.7559055118110236
        },
        {
          "duration": 0.14285699999999224,
          "durationTicks": 48,
          "midi": 54,
          "name": "F#3",
          "ticks": 43680,
          "time": 129.99987000000002,
          "velocity": 0.7559055118110236
        },
        {
          "duration": 0.14285699999999224,
          "durationTicks": 48,
          "midi": 54,
          "name": "F#3",
          "ticks": 44352,
          "time": 131.99986800000002,
          "velocity": 0.7559055118110236
        },
        {
          "duration": 0.14285699999999224,
          "durationTicks": 48,
          "midi": 54,
          "name": "F#3",
          "ticks": 44448,
          "time": 132.285582,
          "velocity": 0.7559055118110236
        },
        {
          "duration": 0.14285699999999224,
          "durationTicks": 48,
          "midi": 54,
          "name": "F#3",
          "ticks": 45120,
          "time": 134.28558,
          "velocity": 0.7559055118110236
        },
        {
          "duration": 0.14285699999999224,
          "durationTicks": 48,
          "midi": 54,
          "name": "F#3",
          "ticks": 45216,
          "time": 134.57129400000002,
          "velocity": 0.7559055118110236
        },
        {
          "duration": 0.14285700000002066,
          "durationTicks": 48,
          "midi": 54,
          "name": "F#3",
          "ticks": 45888,
          "time": 136.571292,
          "velocity": 0.7559055118110236
        },
        {
          "duration": 0.14285699999999224,
          "durationTicks": 48,
          "midi": 54,
          "name": "F#3",
          "ticks": 45984,
          "time": 136.857006,
          "velocity": 0.7559055118110236
        },
        {
          "duration": 0.14285699999999224,
          "durationTicks": 48,
          "midi": 54,
          "name": "F#3",
          "ticks": 46656,
          "time": 138.85700400000002,
          "velocity": 0.7559055118110236
        },
        {
          "duration": 0.14285700000002066,
          "durationTicks": 48,
          "midi": 54,
          "name": "F#3",
          "ticks": 46752,
          "time": 139.142718,
          "velocity": 0.7559055118110236
        },
        {
          "duration": 0.14285699999999224,
          "durationTicks": 48,
          "midi": 54,
          "name": "F#3",
          "ticks": 47424,
          "time": 141.142716,
          "velocity": 0.7559055118110236
        },
        {
          "duration": 0.14285699999999224,
          "durationTicks": 48,
          "midi": 54,
          "name": "F#3",
          "ticks": 47520,
          "time": 141.42843000000002,
          "velocity": 0.7559055118110236
        },
        {
          "duration": 0.14285699999999224,
          "durationTicks": 48,
          "midi": 54,
          "name": "F#3",
          "ticks": 48192,
          "time": 143.42842800000003,
          "velocity": 0.7559055118110236
        },
        {
          "duration": 0.14285699999999224,
          "durationTicks": 48,
          "midi": 54,
          "name": "F#3",
          "ticks": 48288,
          "time": 143.714142,
          "velocity": 0.7559055118110236
        },
        {
          "duration": 0.14285699999999224,
          "durationTicks": 48,
          "midi": 54,
          "name": "F#3",
          "ticks": 48960,
          "time": 145.71414000000001,
          "velocity": 0.7559055118110236
        },
        {
          "duration": 0.14285700000002066,
          "durationTicks": 48,
          "midi": 54,
          "name": "F#3",
          "ticks": 49056,
          "time": 145.999854,
          "velocity": 0.7559055118110236
        },
        {
          "duration": 0.14285700000002066,
          "durationTicks": 48,
          "midi": 54,
          "name": "F#3",
          "ticks": 49728,
          "time": 147.999852,
          "velocity": 0.7559055118110236
        },
        {
          "duration": 0.14285699999999224,
          "durationTicks": 48,
          "midi": 54,
          "name": "F#3",
          "ticks": 49824,
          "time": 148.28556600000002,
          "velocity": 0.7559055118110236
        },
        {
          "duration": 0.14285699999999224,
          "durationTicks": 48,
          "midi": 54,
          "name": "F#3",
          "ticks": 50496,
          "time": 150.28556400000002,
          "velocity": 0.7559055118110236
        },
        {
          "duration": 0.14285699999999224,
          "durationTicks": 48,
          "midi": 54,
          "name": "F#3",
          "ticks": 50592,
          "time": 150.571278,
          "velocity": 0.7559055118110236
        },
        {
          "duration": 0.14285699999999224,
          "durationTicks": 48,
          "midi": 54,
          "name": "F#3",
          "ticks": 51264,
          "time": 152.571276,
          "velocity": 0.7559055118110236
        },
        {
          "duration": 0.14285699999999224,
          "durationTicks": 48,
          "midi": 54,
          "name": "F#3",
          "ticks": 51360,
          "time": 152.85699000000002,
          "velocity": 0.7559055118110236
        },
        {
          "duration": 0.14285700000002066,
          "durationTicks": 48,
          "midi": 54,
          "name": "F#3",
          "ticks": 52032,
          "time": 154.856988,
          "velocity": 0.7559055118110236
        },
        {
          "duration": 0.14285699999999224,
          "durationTicks": 48,
          "midi": 54,
          "name": "F#3",
          "ticks": 52128,
          "time": 155.142702,
          "velocity": 0.7559055118110236
        },
        {
          "duration": 0.14285699999999224,
          "durationTicks": 48,
          "midi": 54,
          "name": "F#3",
          "ticks": 52800,
          "time": 157.14270000000002,
          "velocity": 0.7559055118110236
        },
        {
          "duration": 0.14285700000002066,
          "durationTicks": 48,
          "midi": 54,
          "name": "F#3",
          "ticks": 52896,
          "time": 157.428414,
          "velocity": 0.7559055118110236
        },
        {
          "duration": 0.14285699999999224,
          "durationTicks": 48,
          "midi": 54,
          "name": "F#3",
          "ticks": 53568,
          "time": 159.428412,
          "velocity": 0.7559055118110236
        },
        {
          "duration": 0.14285699999999224,
          "durationTicks": 48,
          "midi": 54,
          "name": "F#3",
          "ticks": 53664,
          "time": 159.71412600000002,
          "velocity": 0.7559055118110236
        },
        {
          "duration": 0.14285699999999224,
          "durationTicks": 48,
          "midi": 54,
          "name": "F#3",
          "ticks": 54336,
          "time": 161.71412400000003,
          "velocity": 0.7559055118110236
        },
        {
          "duration": 0.14285699999999224,
          "durationTicks": 48,
          "midi": 54,
          "name": "F#3",
          "ticks": 54432,
          "time": 161.999838,
          "velocity": 0.7559055118110236
        },
        {
          "duration": 0.14285699999999224,
          "durationTicks": 48,
          "midi": 54,
          "name": "F#3",
          "ticks": 55104,
          "time": 163.99983600000002,
          "velocity": 0.7559055118110236
        },
        {
          "duration": 0.14285700000002066,
          "durationTicks": 48,
          "midi": 54,
          "name": "F#3",
          "ticks": 55200,
          "time": 164.28555,
          "velocity": 0.7559055118110236
        },
        {
          "duration": 0.14285700000002066,
          "durationTicks": 48,
          "midi": 54,
          "name": "F#3",
          "ticks": 55872,
          "time": 166.285548,
          "velocity": 0.7559055118110236
        },
        {
          "duration": 0.14285699999999224,
          "durationTicks": 48,
          "midi": 54,
          "name": "F#3",
          "ticks": 55968,
          "time": 166.57126200000002,
          "velocity": 0.7559055118110236
        },
        {
          "duration": 0.14285699999999224,
          "durationTicks": 48,
          "midi": 54,
          "name": "F#3",
          "ticks": 56640,
          "time": 168.57126000000002,
          "velocity": 0.7559055118110236
        },
        {
          "duration": 0.14285699999999224,
          "durationTicks": 48,
          "midi": 54,
          "name": "F#3",
          "ticks": 56736,
          "time": 168.856974,
          "velocity": 0.7559055118110236
        },
        {
          "duration": 0.14285699999999224,
          "durationTicks": 48,
          "midi": 54,
          "name": "F#3",
          "ticks": 57408,
          "time": 170.856972,
          "velocity": 0.7559055118110236
        },
        {
          "duration": 0.14285699999999224,
          "durationTicks": 48,
          "midi": 54,
          "name": "F#3",
          "ticks": 57504,
          "time": 171.14268600000003,
          "velocity": 0.7559055118110236
        },
        {
          "duration": 0.14285700000002066,
          "durationTicks": 48,
          "midi": 54,
          "name": "F#3",
          "ticks": 58176,
          "time": 173.142684,
          "velocity": 0.7559055118110236
        },
        {
          "duration": 0.14285699999999224,
          "durationTicks": 48,
          "midi": 54,
          "name": "F#3",
          "ticks": 58272,
          "time": 173.42839800000002,
          "velocity": 0.7559055118110236
        },
        {
          "duration": 0.14285699999999224,
          "durationTicks": 48,
          "midi": 54,
          "name": "F#3",
          "ticks": 58944,
          "time": 175.42839600000002,
          "velocity": 0.7559055118110236
        },
        {
          "duration": 0.14285700000002066,
          "durationTicks": 48,
          "midi": 54,
          "name": "F#3",
          "ticks": 59040,
          "time": 175.71411,
          "velocity": 0.7559055118110236
        },
        {
          "duration": 0.14285699999999224,
          "durationTicks": 48,
          "midi": 54,
          "name": "F#3",
          "ticks": 59712,
          "time": 177.714108,
          "velocity": 0.7559055118110236
        },
        {
          "duration": 0.14285699999999224,
          "durationTicks": 48,
          "midi": 54,
          "name": "F#3",
          "ticks": 59808,
          "time": 177.99982200000002,
          "velocity": 0.7559055118110236
        },
        {
          "duration": 0.14285699999999224,
          "durationTicks": 48,
          "midi": 54,
          "name": "F#3",
          "ticks": 60480,
          "time": 179.99982000000003,
          "velocity": 0.7559055118110236
        },
        {
          "duration": 0.14285699999999224,
          "durationTicks": 48,
          "midi": 54,
          "name": "F#3",
          "ticks": 60576,
          "time": 180.285534,
          "velocity": 0.7559055118110236
        },
        {
          "duration": 0.14285699999999224,
          "durationTicks": 48,
          "midi": 54,
          "name": "F#3",
          "ticks": 61248,
          "time": 182.28553200000002,
          "velocity": 0.7559055118110236
        },
        {
          "duration": 0.14285700000002066,
          "durationTicks": 48,
          "midi": 54,
          "name": "F#3",
          "ticks": 61344,
          "time": 182.571246,
          "velocity": 0.7559055118110236
        },
        {
          "duration": 0.14285700000002066,
          "durationTicks": 48,
          "midi": 54,
          "name": "F#3",
          "ticks": 62016,
          "time": 184.571244,
          "velocity": 0.7559055118110236
        },
        {
          "duration": 0.14285699999999224,
          "durationTicks": 48,
          "midi": 54,
          "name": "F#3",
          "ticks": 62112,
          "time": 184.85695800000002,
          "velocity": 0.7559055118110236
        },
        {
          "duration": 0.14285699999999224,
          "durationTicks": 48,
          "midi": 54,
          "name": "F#3",
          "ticks": 68928,
          "time": 205.14265200000003,
          "velocity": 0.7559055118110236
        },
        {
          "duration": 0.14285699999999224,
          "durationTicks": 48,
          "midi": 54,
          "name": "F#3",
          "ticks": 69024,
          "time": 205.428366,
          "velocity": 0.7559055118110236
        },
        {
          "duration": 0.14285699999999224,
          "durationTicks": 48,
          "midi": 54,
          "name": "F#3",
          "ticks": 69696,
          "time": 207.42836400000002,
          "velocity": 0.7559055118110236
        },
        {
          "duration": 0.14285699999999224,
          "durationTicks": 48,
          "midi": 54,
          "name": "F#3",
          "ticks": 69792,
          "time": 207.71407800000003,
          "velocity": 0.7559055118110236
        },
        {
          "duration": 0.14285700000002066,
          "durationTicks": 48,
          "midi": 54,
          "name": "F#3",
          "ticks": 70464,
          "time": 209.714076,
          "velocity": 0.7559055118110236
        },
        {
          "duration": 0.14285699999999224,
          "durationTicks": 48,
          "midi": 54,
          "name": "F#3",
          "ticks": 70560,
          "time": 209.99979000000002,
          "velocity": 0.7559055118110236
        },
        {
          "duration": 0.14285699999999224,
          "durationTicks": 48,
          "midi": 54,
          "name": "F#3",
          "ticks": 71232,
          "time": 211.99978800000002,
          "velocity": 0.7559055118110236
        },
        {
          "duration": 0.14285700000002066,
          "durationTicks": 48,
          "midi": 54,
          "name": "F#3",
          "ticks": 71328,
          "time": 212.285502,
          "velocity": 0.7559055118110236
        },
        {
          "duration": 0.14285699999999224,
          "durationTicks": 48,
          "midi": 54,
          "name": "F#3",
          "ticks": 72000,
          "time": 214.2855,
          "velocity": 0.7559055118110236
        },
        {
          "duration": 0.14285699999999224,
          "durationTicks": 48,
          "midi": 54,
          "name": "F#3",
          "ticks": 72096,
          "time": 214.57121400000003,
          "velocity": 0.7559055118110236
        },
        {
          "duration": 0.14285699999999224,
          "durationTicks": 48,
          "midi": 54,
          "name": "F#3",
          "ticks": 72768,
          "time": 216.57121200000003,
          "velocity": 0.7559055118110236
        },
        {
          "duration": 0.14285699999999224,
          "durationTicks": 48,
          "midi": 54,
          "name": "F#3",
          "ticks": 72864,
          "time": 216.85692600000002,
          "velocity": 0.7559055118110236
        },
        {
          "duration": 0.14285699999999224,
          "durationTicks": 48,
          "midi": 54,
          "name": "F#3",
          "ticks": 73536,
          "time": 218.85692400000002,
          "velocity": 0.7559055118110236
        },
        {
          "duration": 0.14285700000002066,
          "durationTicks": 48,
          "midi": 54,
          "name": "F#3",
          "ticks": 73632,
          "time": 219.142638,
          "velocity": 0.7559055118110236
        },
        {
          "duration": 0.14285700000002066,
          "durationTicks": 48,
          "midi": 54,
          "name": "F#3",
          "ticks": 74304,
          "time": 221.142636,
          "velocity": 0.7559055118110236
        },
        {
          "duration": 0.14285699999999224,
          "durationTicks": 48,
          "midi": 54,
          "name": "F#3",
          "ticks": 74400,
          "time": 221.42835000000002,
          "velocity": 0.7559055118110236
        },
        {
          "duration": 0.14285699999999224,
          "durationTicks": 48,
          "midi": 54,
          "name": "F#3",
          "ticks": 75072,
          "time": 223.42834800000003,
          "velocity": 0.7559055118110236
        },
        {
          "duration": 0.14285699999999224,
          "durationTicks": 48,
          "midi": 54,
          "name": "F#3",
          "ticks": 75168,
          "time": 223.714062,
          "velocity": 0.7559055118110236
        },
        {
          "duration": 0.14285699999999224,
          "durationTicks": 48,
          "midi": 54,
          "name": "F#3",
          "ticks": 75840,
          "time": 225.71406000000002,
          "velocity": 0.7559055118110236
        },
        {
          "duration": 0.14285699999999224,
          "durationTicks": 48,
          "midi": 54,
          "name": "F#3",
          "ticks": 75936,
          "time": 225.99977400000003,
          "velocity": 0.7559055118110236
        },
        {
          "duration": 0.14285700000002066,
          "durationTicks": 48,
          "midi": 54,
          "name": "F#3",
          "ticks": 76608,
          "time": 227.999772,
          "velocity": 0.7559055118110236
        },
        {
          "duration": 0.14285699999999224,
          "durationTicks": 48,
          "midi": 54,
          "name": "F#3",
          "ticks": 76704,
          "time": 228.28548600000002,
          "velocity": 0.7559055118110236
        },
        {
          "duration": 0.14285699999999224,
          "durationTicks": 48,
          "midi": 54,
          "name": "F#3",
          "ticks": 77376,
          "time": 230.28548400000003,
          "velocity": 0.7559055118110236
        },
        {
          "duration": 0.14285700000002066,
          "durationTicks": 48,
          "midi": 54,
          "name": "F#3",
          "ticks": 77472,
          "time": 230.571198,
          "velocity": 0.7559055118110236
        },
        {
          "duration": 0.14285699999999224,
          "durationTicks": 48,
          "midi": 54,
          "name": "F#3",
          "ticks": 78144,
          "time": 232.57119600000001,
          "velocity": 0.7559055118110236
        },
        {
          "duration": 0.14285699999999224,
          "durationTicks": 48,
          "midi": 54,
          "name": "F#3",
          "ticks": 78240,
          "time": 232.85691000000003,
          "velocity": 0.7559055118110236
        },
        {
          "duration": 0.14285699999999224,
          "durationTicks": 48,
          "midi": 54,
          "name": "F#3",
          "ticks": 78912,
          "time": 234.85690800000003,
          "velocity": 0.7559055118110236
        },
        {
          "duration": 0.14285699999999224,
          "durationTicks": 48,
          "midi": 54,
          "name": "F#3",
          "ticks": 79008,
          "time": 235.14262200000002,
          "velocity": 0.7559055118110236
        },
        {
          "duration": 0.14285699999999224,
          "durationTicks": 48,
          "midi": 54,
          "name": "F#3",
          "ticks": 79680,
          "time": 237.14262000000002,
          "velocity": 0.7559055118110236
        },
        {
          "duration": 0.14285700000002066,
          "durationTicks": 48,
          "midi": 54,
          "name": "F#3",
          "ticks": 79776,
          "time": 237.428334,
          "velocity": 0.7559055118110236
        },
        {
          "duration": 0.14285700000002066,
          "durationTicks": 48,
          "midi": 54,
          "name": "F#3",
          "ticks": 80448,
          "time": 239.428332,
          "velocity": 0.7559055118110236
        },
        {
          "duration": 0.14285699999999224,
          "durationTicks": 48,
          "midi": 54,
          "name": "F#3",
          "ticks": 80544,
          "time": 239.71404600000002,
          "velocity": 0.7559055118110236
        },
        {
          "duration": 0.14285699999999224,
          "durationTicks": 48,
          "midi": 54,
          "name": "F#3",
          "ticks": 81216,
          "time": 241.71404400000003,
          "velocity": 0.7559055118110236
        },
        {
          "duration": 0.14285699999999224,
          "durationTicks": 48,
          "midi": 54,
          "name": "F#3",
          "ticks": 81312,
          "time": 241.999758,
          "velocity": 0.7559055118110236
        },
        {
          "duration": 0.14285699999999224,
          "durationTicks": 48,
          "midi": 54,
          "name": "F#3",
          "ticks": 81984,
          "time": 243.99975600000002,
          "velocity": 0.7559055118110236
        },
        {
          "duration": 0.14285699999999224,
          "durationTicks": 48,
          "midi": 54,
          "name": "F#3",
          "ticks": 82080,
          "time": 244.28547000000003,
          "velocity": 0.7559055118110236
        },
        {
          "duration": 0.14285700000002066,
          "durationTicks": 48,
          "midi": 54,
          "name": "F#3",
          "ticks": 82752,
          "time": 246.285468,
          "velocity": 0.7559055118110236
        },
        {
          "duration": 0.14285699999999224,
          "durationTicks": 48,
          "midi": 54,
          "name": "F#3",
          "ticks": 82848,
          "time": 246.57118200000002,
          "velocity": 0.7559055118110236
        },
        {
          "duration": 0.14285699999999224,
          "durationTicks": 48,
          "midi": 54,
          "name": "F#3",
          "ticks": 83520,
          "time": 248.57118000000003,
          "velocity": 0.7559055118110236
        },
        {
          "duration": 0.14285700000002066,
          "durationTicks": 48,
          "midi": 54,
          "name": "F#3",
          "ticks": 83616,
          "time": 248.856894,
          "velocity": 0.7559055118110236
        },
        {
          "duration": 0.14285699999999224,
          "durationTicks": 48,
          "midi": 54,
          "name": "F#3",
          "ticks": 90432,
          "time": 269.14258800000005,
          "velocity": 0.7559055118110236
        },
        {
          "duration": 0.14285699999999224,
          "durationTicks": 48,
          "midi": 54,
          "name": "F#3",
          "ticks": 90528,
          "time": 269.42830200000003,
          "velocity": 0.7559055118110236
        },
        {
          "duration": 0.14285699999999224,
          "durationTicks": 48,
          "midi": 54,
          "name": "F#3",
          "ticks": 91200,
          "time": 271.42830000000004,
          "velocity": 0.7559055118110236
        },
        {
          "duration": 0.14285699999999224,
          "durationTicks": 48,
          "midi": 54,
          "name": "F#3",
          "ticks": 91296,
          "time": 271.714014,
          "velocity": 0.7559055118110236
        },
        {
          "duration": 0.14285699999999224,
          "durationTicks": 48,
          "midi": 54,
          "name": "F#3",
          "ticks": 91968,
          "time": 273.714012,
          "velocity": 0.7559055118110236
        },
        {
          "duration": 0.14285699999999224,
          "durationTicks": 48,
          "midi": 54,
          "name": "F#3",
          "ticks": 92064,
          "time": 273.999726,
          "velocity": 0.7559055118110236
        },
        {
          "duration": 0.14285699999999224,
          "durationTicks": 48,
          "midi": 54,
          "name": "F#3",
          "ticks": 92736,
          "time": 275.999724,
          "velocity": 0.7559055118110236
        },
        {
          "duration": 0.14285700000004908,
          "durationTicks": 48,
          "midi": 54,
          "name": "F#3",
          "ticks": 92832,
          "time": 276.285438,
          "velocity": 0.7559055118110236
        },
        {
          "duration": 0.14285699999999224,
          "durationTicks": 48,
          "midi": 54,
          "name": "F#3",
          "ticks": 93504,
          "time": 278.285436,
          "velocity": 0.7559055118110236
        },
        {
          "duration": 0.14285699999999224,
          "durationTicks": 48,
          "midi": 54,
          "name": "F#3",
          "ticks": 93600,
          "time": 278.57115000000005,
          "velocity": 0.7559055118110236
        },
        {
          "duration": 0.14285699999999224,
          "durationTicks": 48,
          "midi": 54,
          "name": "F#3",
          "ticks": 94272,
          "time": 280.57114800000005,
          "velocity": 0.7559055118110236
        },
        {
          "duration": 0.14285699999999224,
          "durationTicks": 48,
          "midi": 54,
          "name": "F#3",
          "ticks": 94368,
          "time": 280.85686200000004,
          "velocity": 0.7559055118110236
        },
        {
          "duration": 0.14285699999999224,
          "durationTicks": 48,
          "midi": 54,
          "name": "F#3",
          "ticks": 95040,
          "time": 282.85686000000004,
          "velocity": 0.7559055118110236
        },
        {
          "duration": 0.14285699999999224,
          "durationTicks": 48,
          "midi": 54,
          "name": "F#3",
          "ticks": 95136,
          "time": 283.142574,
          "velocity": 0.7559055118110236
        },
        {
          "duration": 0.14285699999999224,
          "durationTicks": 48,
          "midi": 54,
          "name": "F#3",
          "ticks": 95808,
          "time": 285.14257200000003,
          "velocity": 0.7559055118110236
        },
        {
          "duration": 0.14285699999999224,
          "durationTicks": 48,
          "midi": 54,
          "name": "F#3",
          "ticks": 95904,
          "time": 285.428286,
          "velocity": 0.7559055118110236
        }
      ],
      "endOfTrackTicks": 95952
    },
    {
      "channel": 9,
      "controlChanges": {
        "7": [
          {
            "number": 7,
            "ticks": 0,
            "time": 0,
            "value": 0.7874015748031497
          }
        ],
        "10": [
          {
            "number": 10,
            "ticks": 0,
            "time": 0,
            "value": 0.5039370078740157
          }
        ]
      },
      "pitchBends": [],
      "instrument": {
        "family": "drums",
        "number": 16,
        "name": "power kit"
      },
      "name": "shakers             ",
      "notes": [
        {
          "duration": 0.14285699999999935,
          "durationTicks": 48,
          "midi": 69,
          "name": "A4",
          "ticks": 6912,
          "time": 20.571408,
          "velocity": 0.47244094488188976
        },
        {
          "duration": 0.14285699999999935,
          "durationTicks": 48,
          "midi": 70,
          "name": "A#4",
          "ticks": 6960,
          "time": 20.714265,
          "velocity": 0.47244094488188976
        },
        {
          "duration": 0.1428570000000029,
          "durationTicks": 48,
          "midi": 69,
          "name": "A4",
          "ticks": 7008,
          "time": 20.857122,
          "velocity": 0.47244094488188976
        },
        {
          "duration": 0.14285699999999935,
          "durationTicks": 48,
          "midi": 70,
          "name": "A#4",
          "ticks": 7056,
          "time": 20.999979000000003,
          "velocity": 0.47244094488188976
        },
        {
          "duration": 0.14285699999999935,
          "durationTicks": 48,
          "midi": 69,
          "name": "A4",
          "ticks": 7104,
          "time": 21.142836000000003,
          "velocity": 0.47244094488188976
        },
        {
          "duration": 0.14285699999999935,
          "durationTicks": 48,
          "midi": 70,
          "name": "A#4",
          "ticks": 7152,
          "time": 21.285693000000002,
          "velocity": 0.47244094488188976
        },
        {
          "duration": 0.14285699999999935,
          "durationTicks": 48,
          "midi": 69,
          "name": "A4",
          "ticks": 7200,
          "time": 21.42855,
          "velocity": 0.47244094488188976
        },
        {
          "duration": 0.14285699999999935,
          "durationTicks": 48,
          "midi": 70,
          "name": "A#4",
          "ticks": 7248,
          "time": 21.571407,
          "velocity": 0.47244094488188976
        },
        {
          "duration": 0.1428570000000029,
          "durationTicks": 48,
          "midi": 69,
          "name": "A4",
          "ticks": 7296,
          "time": 21.714264,
          "velocity": 0.47244094488188976
        },
        {
          "duration": 0.14285699999999935,
          "durationTicks": 48,
          "midi": 70,
          "name": "A#4",
          "ticks": 7344,
          "time": 21.857121000000003,
          "velocity": 0.47244094488188976
        },
        {
          "duration": 0.14285699999999935,
          "durationTicks": 48,
          "midi": 69,
          "name": "A4",
          "ticks": 7392,
          "time": 21.999978000000002,
          "velocity": 0.47244094488188976
        },
        {
          "duration": 0.14285699999999935,
          "durationTicks": 48,
          "midi": 70,
          "name": "A#4",
          "ticks": 7440,
          "time": 22.142835,
          "velocity": 0.47244094488188976
        },
        {
          "duration": 0.1428570000000029,
          "durationTicks": 48,
          "midi": 70,
          "name": "A#4",
          "ticks": 7536,
          "time": 22.428549,
          "velocity": 0.47244094488188976
        },
        {
          "duration": 0.14285699999999935,
          "durationTicks": 48,
          "midi": 70,
          "name": "A#4",
          "ticks": 7632,
          "time": 22.714263000000003,
          "velocity": 0.47244094488188976
        },
        {
          "duration": 0.14285699999999935,
          "durationTicks": 48,
          "midi": 69,
          "name": "A4",
          "ticks": 7680,
          "time": 22.857120000000002,
          "velocity": 0.47244094488188976
        },
        {
          "duration": 0.14285699999999935,
          "durationTicks": 48,
          "midi": 70,
          "name": "A#4",
          "ticks": 7728,
          "time": 22.999977,
          "velocity": 0.47244094488188976
        },
        {
          "duration": 0.1428570000000029,
          "durationTicks": 48,
          "midi": 69,
          "name": "A4",
          "ticks": 7776,
          "time": 23.142834,
          "velocity": 0.47244094488188976
        },
        {
          "duration": 0.14285699999999935,
          "durationTicks": 48,
          "midi": 70,
          "name": "A#4",
          "ticks": 7824,
          "time": 23.285691000000003,
          "velocity": 0.47244094488188976
        },
        {
          "duration": 0.14285699999999935,
          "durationTicks": 48,
          "midi": 69,
          "name": "A4",
          "ticks": 7872,
          "time": 23.428548000000003,
          "velocity": 0.47244094488188976
        },
        {
          "duration": 0.14285699999999935,
          "durationTicks": 48,
          "midi": 70,
          "name": "A#4",
          "ticks": 7920,
          "time": 23.571405000000002,
          "velocity": 0.47244094488188976
        },
        {
          "duration": 0.14285699999999935,
          "durationTicks": 48,
          "midi": 69,
          "name": "A4",
          "ticks": 7968,
          "time": 23.714262,
          "velocity": 0.47244094488188976
        },
        {
          "duration": 0.1428570000000029,
          "durationTicks": 48,
          "midi": 70,
          "name": "A#4",
          "ticks": 8016,
          "time": 23.857119,
          "velocity": 0.47244094488188976
        },
        {
          "duration": 0.14285699999999935,
          "durationTicks": 48,
          "midi": 69,
          "name": "A4",
          "ticks": 8064,
          "time": 23.999976000000004,
          "velocity": 0.47244094488188976
        },
        {
          "duration": 0.14285699999999935,
          "durationTicks": 48,
          "midi": 70,
          "name": "A#4",
          "ticks": 8112,
          "time": 24.142833000000003,
          "velocity": 0.47244094488188976
        },
        {
          "duration": 0.14285699999999935,
          "durationTicks": 48,
          "midi": 69,
          "name": "A4",
          "ticks": 8160,
          "time": 24.285690000000002,
          "velocity": 0.47244094488188976
        },
        {
          "duration": 0.14285699999999935,
          "durationTicks": 48,
          "midi": 70,
          "name": "A#4",
          "ticks": 8208,
          "time": 24.428547000000002,
          "velocity": 0.47244094488188976
        },
        {
          "duration": 0.1428570000000029,
          "durationTicks": 48,
          "midi": 70,
          "name": "A#4",
          "ticks": 8304,
          "time": 24.714261,
          "velocity": 0.47244094488188976
        },
        {
          "duration": 0.14285699999999935,
          "durationTicks": 48,
          "midi": 70,
          "name": "A#4",
          "ticks": 8400,
          "time": 24.999975000000003,
          "velocity": 0.47244094488188976
        },
        {
          "duration": 0.14285699999999935,
          "durationTicks": 48,
          "midi": 69,
          "name": "A4",
          "ticks": 8448,
          "time": 25.142832000000002,
          "velocity": 0.47244094488188976
        },
        {
          "duration": 0.14285699999999935,
          "durationTicks": 48,
          "midi": 70,
          "name": "A#4",
          "ticks": 8496,
          "time": 25.285689,
          "velocity": 0.47244094488188976
        },
        {
          "duration": 0.1428570000000029,
          "durationTicks": 48,
          "midi": 69,
          "name": "A4",
          "ticks": 8544,
          "time": 25.428546,
          "velocity": 0.47244094488188976
        },
        {
          "duration": 0.14285699999999935,
          "durationTicks": 48,
          "midi": 70,
          "name": "A#4",
          "ticks": 8592,
          "time": 25.571403000000004,
          "velocity": 0.47244094488188976
        },
        {
          "duration": 0.14285699999999935,
          "durationTicks": 48,
          "midi": 69,
          "name": "A4",
          "ticks": 8640,
          "time": 25.714260000000003,
          "velocity": 0.47244094488188976
        },
        {
          "duration": 0.14285699999999935,
          "durationTicks": 48,
          "midi": 70,
          "name": "A#4",
          "ticks": 8688,
          "time": 25.857117000000002,
          "velocity": 0.47244094488188976
        },
        {
          "duration": 0.14285699999999935,
          "durationTicks": 48,
          "midi": 69,
          "name": "A4",
          "ticks": 8736,
          "time": 25.999974,
          "velocity": 0.47244094488188976
        },
        {
          "duration": 0.14285699999999935,
          "durationTicks": 48,
          "midi": 70,
          "name": "A#4",
          "ticks": 8784,
          "time": 26.142831,
          "velocity": 0.47244094488188976
        },
        {
          "duration": 0.1428570000000029,
          "durationTicks": 48,
          "midi": 69,
          "name": "A4",
          "ticks": 8832,
          "time": 26.285688,
          "velocity": 0.47244094488188976
        },
        {
          "duration": 0.14285699999999935,
          "durationTicks": 48,
          "midi": 70,
          "name": "A#4",
          "ticks": 8880,
          "time": 26.428545000000003,
          "velocity": 0.47244094488188976
        },
        {
          "duration": 0.14285699999999935,
          "durationTicks": 48,
          "midi": 69,
          "name": "A4",
          "ticks": 8928,
          "time": 26.571402000000003,
          "velocity": 0.47244094488188976
        },
        {
          "duration": 0.14285699999999935,
          "durationTicks": 48,
          "midi": 70,
          "name": "A#4",
          "ticks": 8976,
          "time": 26.714259000000002,
          "velocity": 0.47244094488188976
        },
        {
          "duration": 0.1428570000000029,
          "durationTicks": 48,
          "midi": 70,
          "name": "A#4",
          "ticks": 9072,
          "time": 26.999973,
          "velocity": 0.47244094488188976
        },
        {
          "duration": 0.14285699999999935,
          "durationTicks": 48,
          "midi": 70,
          "name": "A#4",
          "ticks": 9168,
          "time": 27.285687000000003,
          "velocity": 0.47244094488188976
        },
        {
          "duration": 0.14285699999999935,
          "durationTicks": 48,
          "midi": 69,
          "name": "A4",
          "ticks": 9216,
          "time": 27.428544000000002,
          "velocity": 0.47244094488188976
        },
        {
          "duration": 0.14285699999999935,
          "durationTicks": 48,
          "midi": 70,
          "name": "A#4",
          "ticks": 9264,
          "time": 27.571401,
          "velocity": 0.47244094488188976
        },
        {
          "duration": 0.1428570000000029,
          "durationTicks": 48,
          "midi": 69,
          "name": "A4",
          "ticks": 9312,
          "time": 27.714258,
          "velocity": 0.47244094488188976
        },
        {
          "duration": 0.14285699999999935,
          "durationTicks": 48,
          "midi": 70,
          "name": "A#4",
          "ticks": 9360,
          "time": 27.857115000000004,
          "velocity": 0.47244094488188976
        },
        {
          "duration": 0.14285699999999935,
          "durationTicks": 48,
          "midi": 69,
          "name": "A4",
          "ticks": 9408,
          "time": 27.999972000000003,
          "velocity": 0.47244094488188976
        },
        {
          "duration": 0.14285699999999935,
          "durationTicks": 48,
          "midi": 70,
          "name": "A#4",
          "ticks": 9456,
          "time": 28.142829000000003,
          "velocity": 0.47244094488188976
        },
        {
          "duration": 0.14285699999999935,
          "durationTicks": 48,
          "midi": 69,
          "name": "A4",
          "ticks": 9504,
          "time": 28.285686000000002,
          "velocity": 0.47244094488188976
        },
        {
          "duration": 0.1428570000000029,
          "durationTicks": 48,
          "midi": 70,
          "name": "A#4",
          "ticks": 9552,
          "time": 28.428543,
          "velocity": 0.47244094488188976
        },
        {
          "duration": 0.14285699999999935,
          "durationTicks": 48,
          "midi": 69,
          "name": "A4",
          "ticks": 9600,
          "time": 28.571400000000004,
          "velocity": 0.47244094488188976
        },
        {
          "duration": 0.14285699999999935,
          "durationTicks": 48,
          "midi": 70,
          "name": "A#4",
          "ticks": 9648,
          "time": 28.714257000000003,
          "velocity": 0.47244094488188976
        },
        {
          "duration": 0.14285699999999935,
          "durationTicks": 48,
          "midi": 69,
          "name": "A4",
          "ticks": 9696,
          "time": 28.857114000000003,
          "velocity": 0.47244094488188976
        },
        {
          "duration": 0.14285699999999935,
          "durationTicks": 48,
          "midi": 70,
          "name": "A#4",
          "ticks": 9744,
          "time": 28.999971000000002,
          "velocity": 0.47244094488188976
        },
        {
          "duration": 0.1428570000000029,
          "durationTicks": 48,
          "midi": 70,
          "name": "A#4",
          "ticks": 9840,
          "time": 29.285685,
          "velocity": 0.47244094488188976
        },
        {
          "duration": 0.14285699999999935,
          "durationTicks": 48,
          "midi": 70,
          "name": "A#4",
          "ticks": 9936,
          "time": 29.571399000000003,
          "velocity": 0.47244094488188976
        },
        {
          "duration": 0.14285699999999935,
          "durationTicks": 48,
          "midi": 69,
          "name": "A4",
          "ticks": 9984,
          "time": 29.714256000000002,
          "velocity": 0.47244094488188976
        },
        {
          "duration": 0.14285699999999935,
          "durationTicks": 48,
          "midi": 70,
          "name": "A#4",
          "ticks": 10032,
          "time": 29.857113000000002,
          "velocity": 0.47244094488188976
        },
        {
          "duration": 0.1428570000000029,
          "durationTicks": 48,
          "midi": 69,
          "name": "A4",
          "ticks": 10080,
          "time": 29.99997,
          "velocity": 0.47244094488188976
        },
        {
          "duration": 0.14285699999999935,
          "durationTicks": 48,
          "midi": 70,
          "name": "A#4",
          "ticks": 10128,
          "time": 30.142827000000004,
          "velocity": 0.47244094488188976
        },
        {
          "duration": 0.14285699999999935,
          "durationTicks": 48,
          "midi": 69,
          "name": "A4",
          "ticks": 10176,
          "time": 30.285684000000003,
          "velocity": 0.47244094488188976
        },
        {
          "duration": 0.14285699999999935,
          "durationTicks": 48,
          "midi": 70,
          "name": "A#4",
          "ticks": 10224,
          "time": 30.428541000000003,
          "velocity": 0.47244094488188976
        },
        {
          "duration": 0.14285699999999935,
          "durationTicks": 48,
          "midi": 69,
          "name": "A4",
          "ticks": 10272,
          "time": 30.571398000000002,
          "velocity": 0.47244094488188976
        },
        {
          "duration": 0.14285699999999935,
          "durationTicks": 48,
          "midi": 70,
          "name": "A#4",
          "ticks": 10320,
          "time": 30.714255,
          "velocity": 0.47244094488188976
        },
        {
          "duration": 0.1428570000000029,
          "durationTicks": 48,
          "midi": 69,
          "name": "A4",
          "ticks": 10368,
          "time": 30.857112,
          "velocity": 0.47244094488188976
        },
        {
          "duration": 0.14285699999999935,
          "durationTicks": 48,
          "midi": 70,
          "name": "A#4",
          "ticks": 10416,
          "time": 30.999969000000004,
          "velocity": 0.47244094488188976
        },
        {
          "duration": 0.14285699999999935,
          "durationTicks": 48,
          "midi": 69,
          "name": "A4",
          "ticks": 10464,
          "time": 31.142826000000003,
          "velocity": 0.47244094488188976
        },
        {
          "duration": 0.14285699999999935,
          "durationTicks": 48,
          "midi": 70,
          "name": "A#4",
          "ticks": 10512,
          "time": 31.285683000000002,
          "velocity": 0.47244094488188976
        },
        {
          "duration": 0.1428570000000029,
          "durationTicks": 48,
          "midi": 70,
          "name": "A#4",
          "ticks": 10608,
          "time": 31.571397,
          "velocity": 0.47244094488188976
        },
        {
          "duration": 0.14285699999999935,
          "durationTicks": 48,
          "midi": 70,
          "name": "A#4",
          "ticks": 10704,
          "time": 31.857111000000003,
          "velocity": 0.47244094488188976
        },
        {
          "duration": 0.14285699999999935,
          "durationTicks": 48,
          "midi": 69,
          "name": "A4",
          "ticks": 10752,
          "time": 31.999968000000003,
          "velocity": 0.47244094488188976
        },
        {
          "duration": 0.14285699999999935,
          "durationTicks": 48,
          "midi": 70,
          "name": "A#4",
          "ticks": 10800,
          "time": 32.142825,
          "velocity": 0.47244094488188976
        },
        {
          "duration": 0.14285699999999935,
          "durationTicks": 48,
          "midi": 69,
          "name": "A4",
          "ticks": 10848,
          "time": 32.285682,
          "velocity": 0.47244094488188976
        },
        {
          "duration": 0.14285699999999935,
          "durationTicks": 48,
          "midi": 70,
          "name": "A#4",
          "ticks": 10896,
          "time": 32.428539,
          "velocity": 0.47244094488188976
        },
        {
          "duration": 0.14285699999999935,
          "durationTicks": 48,
          "midi": 69,
          "name": "A4",
          "ticks": 10944,
          "time": 32.571396,
          "velocity": 0.47244094488188976
        },
        {
          "duration": 0.14285700000000645,
          "durationTicks": 48,
          "midi": 70,
          "name": "A#4",
          "ticks": 10992,
          "time": 32.714253,
          "velocity": 0.47244094488188976
        },
        {
          "duration": 0.14285699999999935,
          "durationTicks": 48,
          "midi": 69,
          "name": "A4",
          "ticks": 11040,
          "time": 32.857110000000006,
          "velocity": 0.47244094488188976
        },
        {
          "duration": 0.14285699999999935,
          "durationTicks": 48,
          "midi": 70,
          "name": "A#4",
          "ticks": 11088,
          "time": 32.999967000000005,
          "velocity": 0.47244094488188976
        },
        {
          "duration": 0.14285699999999935,
          "durationTicks": 48,
          "midi": 69,
          "name": "A4",
          "ticks": 11136,
          "time": 33.142824000000005,
          "velocity": 0.47244094488188976
        },
        {
          "duration": 0.14285699999999935,
          "durationTicks": 48,
          "midi": 70,
          "name": "A#4",
          "ticks": 11184,
          "time": 33.285681000000004,
          "velocity": 0.47244094488188976
        },
        {
          "duration": 0.14285699999999935,
          "durationTicks": 48,
          "midi": 69,
          "name": "A4",
          "ticks": 11232,
          "time": 33.428538,
          "velocity": 0.47244094488188976
        },
        {
          "duration": 0.14285699999999935,
          "durationTicks": 48,
          "midi": 70,
          "name": "A#4",
          "ticks": 11280,
          "time": 33.571395,
          "velocity": 0.47244094488188976
        },
        {
          "duration": 0.14285699999999935,
          "durationTicks": 48,
          "midi": 70,
          "name": "A#4",
          "ticks": 11376,
          "time": 33.857109,
          "velocity": 0.47244094488188976
        },
        {
          "duration": 0.14285699999999935,
          "durationTicks": 48,
          "midi": 70,
          "name": "A#4",
          "ticks": 11472,
          "time": 34.142823,
          "velocity": 0.47244094488188976
        },
        {
          "duration": 0.14285700000000645,
          "durationTicks": 48,
          "midi": 69,
          "name": "A4",
          "ticks": 11520,
          "time": 34.28568,
          "velocity": 0.47244094488188976
        },
        {
          "duration": 0.14285699999999935,
          "durationTicks": 48,
          "midi": 70,
          "name": "A#4",
          "ticks": 11568,
          "time": 34.428537000000006,
          "velocity": 0.47244094488188976
        },
        {
          "duration": 0.14285699999999935,
          "durationTicks": 48,
          "midi": 69,
          "name": "A4",
          "ticks": 11616,
          "time": 34.571394000000005,
          "velocity": 0.47244094488188976
        },
        {
          "duration": 0.14285699999999935,
          "durationTicks": 48,
          "midi": 70,
          "name": "A#4",
          "ticks": 11664,
          "time": 34.714251000000004,
          "velocity": 0.47244094488188976
        },
        {
          "duration": 0.14285699999999935,
          "durationTicks": 48,
          "midi": 69,
          "name": "A4",
          "ticks": 11712,
          "time": 34.857108000000004,
          "velocity": 0.47244094488188976
        },
        {
          "duration": 0.14285699999999935,
          "durationTicks": 48,
          "midi": 70,
          "name": "A#4",
          "ticks": 11760,
          "time": 34.999965,
          "velocity": 0.47244094488188976
        },
        {
          "duration": 0.14285699999999935,
          "durationTicks": 48,
          "midi": 69,
          "name": "A4",
          "ticks": 11808,
          "time": 35.142822,
          "velocity": 0.47244094488188976
        },
        {
          "duration": 0.14285699999999935,
          "durationTicks": 48,
          "midi": 70,
          "name": "A#4",
          "ticks": 11856,
          "time": 35.285679,
          "velocity": 0.47244094488188976
        },
        {
          "duration": 0.14285699999999935,
          "durationTicks": 48,
          "midi": 69,
          "name": "A4",
          "ticks": 11904,
          "time": 35.428536,
          "velocity": 0.47244094488188976
        },
        {
          "duration": 0.14285699999999935,
          "durationTicks": 48,
          "midi": 70,
          "name": "A#4",
          "ticks": 11952,
          "time": 35.571393,
          "velocity": 0.47244094488188976
        },
        {
          "duration": 0.14285700000000645,
          "durationTicks": 48,
          "midi": 69,
          "name": "A4",
          "ticks": 12000,
          "time": 35.71425,
          "velocity": 0.47244094488188976
        },
        {
          "duration": 0.14285699999999935,
          "durationTicks": 48,
          "midi": 70,
          "name": "A#4",
          "ticks": 12048,
          "time": 35.857107000000006,
          "velocity": 0.47244094488188976
        },
        {
          "duration": 0.14285699999999935,
          "durationTicks": 48,
          "midi": 70,
          "name": "A#4",
          "ticks": 12144,
          "time": 36.142821000000005,
          "velocity": 0.47244094488188976
        },
        {
          "duration": 0.14285699999999935,
          "durationTicks": 48,
          "midi": 70,
          "name": "A#4",
          "ticks": 12240,
          "time": 36.428535000000004,
          "velocity": 0.47244094488188976
        },
        {
          "duration": 0.14285699999999935,
          "durationTicks": 48,
          "midi": 69,
          "name": "A4",
          "ticks": 12288,
          "time": 36.571392,
          "velocity": 0.47244094488188976
        },
        {
          "duration": 0.14285699999999935,
          "durationTicks": 48,
          "midi": 70,
          "name": "A#4",
          "ticks": 12336,
          "time": 36.714249,
          "velocity": 0.47244094488188976
        },
        {
          "duration": 0.14285699999999935,
          "durationTicks": 48,
          "midi": 69,
          "name": "A4",
          "ticks": 12384,
          "time": 36.857106,
          "velocity": 0.47244094488188976
        },
        {
          "duration": 0.14285699999999935,
          "durationTicks": 48,
          "midi": 70,
          "name": "A#4",
          "ticks": 12432,
          "time": 36.999963,
          "velocity": 0.47244094488188976
        },
        {
          "duration": 0.14285699999999935,
          "durationTicks": 48,
          "midi": 69,
          "name": "A4",
          "ticks": 12480,
          "time": 37.14282,
          "velocity": 0.47244094488188976
        },
        {
          "duration": 0.14285700000000645,
          "durationTicks": 48,
          "midi": 70,
          "name": "A#4",
          "ticks": 12528,
          "time": 37.285677,
          "velocity": 0.47244094488188976
        },
        {
          "duration": 0.14285699999999935,
          "durationTicks": 48,
          "midi": 69,
          "name": "A4",
          "ticks": 12576,
          "time": 37.428534000000006,
          "velocity": 0.47244094488188976
        },
        {
          "duration": 0.14285699999999935,
          "durationTicks": 48,
          "midi": 70,
          "name": "A#4",
          "ticks": 12624,
          "time": 37.571391000000006,
          "velocity": 0.47244094488188976
        },
        {
          "duration": 0.14285699999999935,
          "durationTicks": 48,
          "midi": 69,
          "name": "A4",
          "ticks": 12672,
          "time": 37.714248000000005,
          "velocity": 0.47244094488188976
        },
        {
          "duration": 0.14285699999999935,
          "durationTicks": 48,
          "midi": 70,
          "name": "A#4",
          "ticks": 12720,
          "time": 37.857105000000004,
          "velocity": 0.47244094488188976
        },
        {
          "duration": 0.14285699999999935,
          "durationTicks": 48,
          "midi": 69,
          "name": "A4",
          "ticks": 12768,
          "time": 37.999962000000004,
          "velocity": 0.47244094488188976
        },
        {
          "duration": 0.14285699999999935,
          "durationTicks": 48,
          "midi": 70,
          "name": "A#4",
          "ticks": 12816,
          "time": 38.142819,
          "velocity": 0.47244094488188976
        },
        {
          "duration": 0.14285699999999935,
          "durationTicks": 48,
          "midi": 70,
          "name": "A#4",
          "ticks": 12912,
          "time": 38.428533,
          "velocity": 0.47244094488188976
        },
        {
          "duration": 0.14285700000000645,
          "durationTicks": 48,
          "midi": 70,
          "name": "A#4",
          "ticks": 13008,
          "time": 38.714247,
          "velocity": 0.47244094488188976
        },
        {
          "duration": 0.14285699999999935,
          "durationTicks": 48,
          "midi": 69,
          "name": "A4",
          "ticks": 13056,
          "time": 38.85710400000001,
          "velocity": 0.47244094488188976
        },
        {
          "duration": 0.14285699999999935,
          "durationTicks": 48,
          "midi": 70,
          "name": "A#4",
          "ticks": 13104,
          "time": 38.999961000000006,
          "velocity": 0.47244094488188976
        },
        {
          "duration": 0.14285699999999935,
          "durationTicks": 48,
          "midi": 69,
          "name": "A4",
          "ticks": 13152,
          "time": 39.142818000000005,
          "velocity": 0.47244094488188976
        },
        {
          "duration": 0.14285699999999935,
          "durationTicks": 48,
          "midi": 70,
          "name": "A#4",
          "ticks": 13200,
          "time": 39.285675000000005,
          "velocity": 0.47244094488188976
        },
        {
          "duration": 0.14285699999999935,
          "durationTicks": 48,
          "midi": 69,
          "name": "A4",
          "ticks": 13248,
          "time": 39.428532000000004,
          "velocity": 0.47244094488188976
        },
        {
          "duration": 0.14285699999999935,
          "durationTicks": 48,
          "midi": 70,
          "name": "A#4",
          "ticks": 13296,
          "time": 39.571389,
          "velocity": 0.47244094488188976
        },
        {
          "duration": 0.14285699999999935,
          "durationTicks": 48,
          "midi": 69,
          "name": "A4",
          "ticks": 13344,
          "time": 39.714246,
          "velocity": 0.47244094488188976
        },
        {
          "duration": 0.14285699999999935,
          "durationTicks": 48,
          "midi": 70,
          "name": "A#4",
          "ticks": 13392,
          "time": 39.857103,
          "velocity": 0.47244094488188976
        },
        {
          "duration": 0.14285699999999935,
          "durationTicks": 48,
          "midi": 69,
          "name": "A4",
          "ticks": 13440,
          "time": 39.99996,
          "velocity": 0.47244094488188976
        },
        {
          "duration": 0.14285699999999935,
          "durationTicks": 48,
          "midi": 70,
          "name": "A#4",
          "ticks": 13488,
          "time": 40.142817,
          "velocity": 0.47244094488188976
        },
        {
          "duration": 0.14285700000000645,
          "durationTicks": 48,
          "midi": 69,
          "name": "A4",
          "ticks": 13536,
          "time": 40.285674,
          "velocity": 0.47244094488188976
        },
        {
          "duration": 0.14285699999999935,
          "durationTicks": 48,
          "midi": 70,
          "name": "A#4",
          "ticks": 13584,
          "time": 40.42853100000001,
          "velocity": 0.47244094488188976
        },
        {
          "duration": 0.14285699999999935,
          "durationTicks": 48,
          "midi": 70,
          "name": "A#4",
          "ticks": 13680,
          "time": 40.714245000000005,
          "velocity": 0.47244094488188976
        },
        {
          "duration": 0.14285699999999935,
          "durationTicks": 48,
          "midi": 70,
          "name": "A#4",
          "ticks": 13776,
          "time": 40.999959000000004,
          "velocity": 0.47244094488188976
        },
        {
          "duration": 0.14285699999999935,
          "durationTicks": 48,
          "midi": 69,
          "name": "A4",
          "ticks": 13824,
          "time": 41.142816,
          "velocity": 0.47244094488188976
        },
        {
          "duration": 0.14285699999999935,
          "durationTicks": 48,
          "midi": 70,
          "name": "A#4",
          "ticks": 13872,
          "time": 41.285673,
          "velocity": 0.47244094488188976
        },
        {
          "duration": 0.14285699999999935,
          "durationTicks": 48,
          "midi": 69,
          "name": "A4",
          "ticks": 13920,
          "time": 41.42853,
          "velocity": 0.47244094488188976
        },
        {
          "duration": 0.14285699999999935,
          "durationTicks": 48,
          "midi": 70,
          "name": "A#4",
          "ticks": 13968,
          "time": 41.571387,
          "velocity": 0.47244094488188976
        },
        {
          "duration": 0.14285699999999935,
          "durationTicks": 48,
          "midi": 69,
          "name": "A4",
          "ticks": 14016,
          "time": 41.714244,
          "velocity": 0.47244094488188976
        },
        {
          "duration": 0.14285700000000645,
          "durationTicks": 48,
          "midi": 70,
          "name": "A#4",
          "ticks": 14064,
          "time": 41.857101,
          "velocity": 0.47244094488188976
        },
        {
          "duration": 0.14285699999999935,
          "durationTicks": 48,
          "midi": 69,
          "name": "A4",
          "ticks": 14112,
          "time": 41.99995800000001,
          "velocity": 0.47244094488188976
        },
        {
          "duration": 0.14285699999999935,
          "durationTicks": 48,
          "midi": 70,
          "name": "A#4",
          "ticks": 14160,
          "time": 42.142815000000006,
          "velocity": 0.47244094488188976
        },
        {
          "duration": 0.14285699999999935,
          "durationTicks": 48,
          "midi": 69,
          "name": "A4",
          "ticks": 14208,
          "time": 42.285672000000005,
          "velocity": 0.47244094488188976
        },
        {
          "duration": 0.14285699999999935,
          "durationTicks": 48,
          "midi": 70,
          "name": "A#4",
          "ticks": 14256,
          "time": 42.428529000000005,
          "velocity": 0.47244094488188976
        },
        {
          "duration": 0.14285699999999935,
          "durationTicks": 48,
          "midi": 69,
          "name": "A4",
          "ticks": 14304,
          "time": 42.571386000000004,
          "velocity": 0.47244094488188976
        },
        {
          "duration": 0.14285699999999935,
          "durationTicks": 48,
          "midi": 70,
          "name": "A#4",
          "ticks": 14352,
          "time": 42.714243,
          "velocity": 0.47244094488188976
        },
        {
          "duration": 0.14285699999999935,
          "durationTicks": 48,
          "midi": 70,
          "name": "A#4",
          "ticks": 14448,
          "time": 42.999957,
          "velocity": 0.47244094488188976
        },
        {
          "duration": 0.14285699999999935,
          "durationTicks": 48,
          "midi": 70,
          "name": "A#4",
          "ticks": 14544,
          "time": 43.285671,
          "velocity": 0.47244094488188976
        },
        {
          "duration": 0.14285700000000645,
          "durationTicks": 48,
          "midi": 69,
          "name": "A4",
          "ticks": 14592,
          "time": 43.428528,
          "velocity": 0.47244094488188976
        },
        {
          "duration": 0.14285699999999935,
          "durationTicks": 48,
          "midi": 70,
          "name": "A#4",
          "ticks": 14640,
          "time": 43.57138500000001,
          "velocity": 0.47244094488188976
        },
        {
          "duration": 0.14285699999999935,
          "durationTicks": 48,
          "midi": 69,
          "name": "A4",
          "ticks": 14688,
          "time": 43.714242000000006,
          "velocity": 0.47244094488188976
        },
        {
          "duration": 0.14285699999999935,
          "durationTicks": 48,
          "midi": 70,
          "name": "A#4",
          "ticks": 14736,
          "time": 43.857099000000005,
          "velocity": 0.47244094488188976
        },
        {
          "duration": 0.14285699999999935,
          "durationTicks": 48,
          "midi": 69,
          "name": "A4",
          "ticks": 14784,
          "time": 43.999956000000005,
          "velocity": 0.47244094488188976
        },
        {
          "duration": 0.14285699999999935,
          "durationTicks": 48,
          "midi": 70,
          "name": "A#4",
          "ticks": 14832,
          "time": 44.142813000000004,
          "velocity": 0.47244094488188976
        },
        {
          "duration": 0.14285699999999935,
          "durationTicks": 48,
          "midi": 69,
          "name": "A4",
          "ticks": 14880,
          "time": 44.28567,
          "velocity": 0.47244094488188976
        },
        {
          "duration": 0.14285699999999935,
          "durationTicks": 48,
          "midi": 70,
          "name": "A#4",
          "ticks": 14928,
          "time": 44.428527,
          "velocity": 0.47244094488188976
        },
        {
          "duration": 0.14285699999999935,
          "durationTicks": 48,
          "midi": 69,
          "name": "A4",
          "ticks": 14976,
          "time": 44.571384,
          "velocity": 0.47244094488188976
        },
        {
          "duration": 0.14285699999999935,
          "durationTicks": 48,
          "midi": 70,
          "name": "A#4",
          "ticks": 15024,
          "time": 44.714241,
          "velocity": 0.47244094488188976
        },
        {
          "duration": 0.14285700000000645,
          "durationTicks": 48,
          "midi": 69,
          "name": "A4",
          "ticks": 15072,
          "time": 44.857098,
          "velocity": 0.47244094488188976
        },
        {
          "duration": 0.14285699999999935,
          "durationTicks": 48,
          "midi": 70,
          "name": "A#4",
          "ticks": 15120,
          "time": 44.99995500000001,
          "velocity": 0.47244094488188976
        },
        {
          "duration": 0.14285699999999935,
          "durationTicks": 48,
          "midi": 70,
          "name": "A#4",
          "ticks": 15216,
          "time": 45.285669000000006,
          "velocity": 0.47244094488188976
        },
        {
          "duration": 0.14285699999999935,
          "durationTicks": 48,
          "midi": 70,
          "name": "A#4",
          "ticks": 15312,
          "time": 45.571383000000004,
          "velocity": 0.47244094488188976
        },
        {
          "duration": 0.14285699999999935,
          "durationTicks": 48,
          "midi": 69,
          "name": "A4",
          "ticks": 15360,
          "time": 45.714240000000004,
          "velocity": 0.47244094488188976
        },
        {
          "duration": 0.14285699999999935,
          "durationTicks": 48,
          "midi": 70,
          "name": "A#4",
          "ticks": 15408,
          "time": 45.857097,
          "velocity": 0.47244094488188976
        },
        {
          "duration": 0.14285699999999935,
          "durationTicks": 48,
          "midi": 69,
          "name": "A4",
          "ticks": 15456,
          "time": 45.999954,
          "velocity": 0.47244094488188976
        },
        {
          "duration": 0.14285699999999935,
          "durationTicks": 48,
          "midi": 70,
          "name": "A#4",
          "ticks": 15504,
          "time": 46.142811,
          "velocity": 0.47244094488188976
        },
        {
          "duration": 0.14285699999999935,
          "durationTicks": 48,
          "midi": 69,
          "name": "A4",
          "ticks": 15552,
          "time": 46.285668,
          "velocity": 0.47244094488188976
        },
        {
          "duration": 0.14285700000000645,
          "durationTicks": 48,
          "midi": 70,
          "name": "A#4",
          "ticks": 15600,
          "time": 46.428525,
          "velocity": 0.47244094488188976
        },
        {
          "duration": 0.14285699999999935,
          "durationTicks": 48,
          "midi": 69,
          "name": "A4",
          "ticks": 15648,
          "time": 46.57138200000001,
          "velocity": 0.47244094488188976
        },
        {
          "duration": 0.14285699999999935,
          "durationTicks": 48,
          "midi": 70,
          "name": "A#4",
          "ticks": 15696,
          "time": 46.714239000000006,
          "velocity": 0.47244094488188976
        },
        {
          "duration": 0.14285699999999935,
          "durationTicks": 48,
          "midi": 69,
          "name": "A4",
          "ticks": 15744,
          "time": 46.857096000000006,
          "velocity": 0.47244094488188976
        },
        {
          "duration": 0.14285699999999935,
          "durationTicks": 48,
          "midi": 70,
          "name": "A#4",
          "ticks": 15792,
          "time": 46.999953000000005,
          "velocity": 0.47244094488188976
        },
        {
          "duration": 0.14285699999999935,
          "durationTicks": 48,
          "midi": 69,
          "name": "A4",
          "ticks": 15840,
          "time": 47.142810000000004,
          "velocity": 0.47244094488188976
        },
        {
          "duration": 0.14285699999999935,
          "durationTicks": 48,
          "midi": 70,
          "name": "A#4",
          "ticks": 15888,
          "time": 47.285667000000004,
          "velocity": 0.47244094488188976
        },
        {
          "duration": 0.14285699999999935,
          "durationTicks": 48,
          "midi": 70,
          "name": "A#4",
          "ticks": 15984,
          "time": 47.571381,
          "velocity": 0.47244094488188976
        },
        {
          "duration": 0.14285700000000645,
          "durationTicks": 48,
          "midi": 70,
          "name": "A#4",
          "ticks": 16080,
          "time": 47.857095,
          "velocity": 0.47244094488188976
        },
        {
          "duration": 0.14285699999999935,
          "durationTicks": 48,
          "midi": 69,
          "name": "A4",
          "ticks": 16128,
          "time": 47.99995200000001,
          "velocity": 0.47244094488188976
        },
        {
          "duration": 0.14285699999999935,
          "durationTicks": 48,
          "midi": 70,
          "name": "A#4",
          "ticks": 16176,
          "time": 48.14280900000001,
          "velocity": 0.47244094488188976
        },
        {
          "duration": 0.14285699999999935,
          "durationTicks": 48,
          "midi": 69,
          "name": "A4",
          "ticks": 16224,
          "time": 48.285666000000006,
          "velocity": 0.47244094488188976
        },
        {
          "duration": 0.14285699999999935,
          "durationTicks": 48,
          "midi": 70,
          "name": "A#4",
          "ticks": 16272,
          "time": 48.428523000000006,
          "velocity": 0.47244094488188976
        },
        {
          "duration": 0.14285699999999935,
          "durationTicks": 48,
          "midi": 69,
          "name": "A4",
          "ticks": 16320,
          "time": 48.571380000000005,
          "velocity": 0.47244094488188976
        },
        {
          "duration": 0.14285699999999935,
          "durationTicks": 48,
          "midi": 70,
          "name": "A#4",
          "ticks": 16368,
          "time": 48.714237000000004,
          "velocity": 0.47244094488188976
        },
        {
          "duration": 0.14285699999999935,
          "durationTicks": 48,
          "midi": 69,
          "name": "A4",
          "ticks": 16416,
          "time": 48.857094000000004,
          "velocity": 0.47244094488188976
        },
        {
          "duration": 0.14285699999999935,
          "durationTicks": 48,
          "midi": 70,
          "name": "A#4",
          "ticks": 16464,
          "time": 48.999951,
          "velocity": 0.47244094488188976
        },
        {
          "duration": 0.14285699999999935,
          "durationTicks": 48,
          "midi": 69,
          "name": "A4",
          "ticks": 16512,
          "time": 49.142808,
          "velocity": 0.47244094488188976
        },
        {
          "duration": 0.14285699999999935,
          "durationTicks": 48,
          "midi": 70,
          "name": "A#4",
          "ticks": 16560,
          "time": 49.285665,
          "velocity": 0.47244094488188976
        },
        {
          "duration": 0.14285700000000645,
          "durationTicks": 48,
          "midi": 69,
          "name": "A4",
          "ticks": 16608,
          "time": 49.428522,
          "velocity": 0.47244094488188976
        },
        {
          "duration": 0.14285699999999935,
          "durationTicks": 48,
          "midi": 70,
          "name": "A#4",
          "ticks": 16656,
          "time": 49.57137900000001,
          "velocity": 0.47244094488188976
        },
        {
          "duration": 0.14285699999999935,
          "durationTicks": 48,
          "midi": 70,
          "name": "A#4",
          "ticks": 16752,
          "time": 49.857093000000006,
          "velocity": 0.47244094488188976
        },
        {
          "duration": 0.14285699999999935,
          "durationTicks": 48,
          "midi": 70,
          "name": "A#4",
          "ticks": 16848,
          "time": 50.142807000000005,
          "velocity": 0.47244094488188976
        },
        {
          "duration": 0.14285699999999935,
          "durationTicks": 48,
          "midi": 69,
          "name": "A4",
          "ticks": 16896,
          "time": 50.285664000000004,
          "velocity": 0.47244094488188976
        },
        {
          "duration": 0.14285699999999935,
          "durationTicks": 48,
          "midi": 70,
          "name": "A#4",
          "ticks": 16944,
          "time": 50.428521,
          "velocity": 0.47244094488188976
        },
        {
          "duration": 0.14285699999999935,
          "durationTicks": 48,
          "midi": 69,
          "name": "A4",
          "ticks": 16992,
          "time": 50.571378,
          "velocity": 0.47244094488188976
        },
        {
          "duration": 0.14285699999999935,
          "durationTicks": 48,
          "midi": 70,
          "name": "A#4",
          "ticks": 17040,
          "time": 50.714235,
          "velocity": 0.47244094488188976
        },
        {
          "duration": 0.14285699999999935,
          "durationTicks": 48,
          "midi": 69,
          "name": "A4",
          "ticks": 17088,
          "time": 50.857092,
          "velocity": 0.47244094488188976
        },
        {
          "duration": 0.14285700000000645,
          "durationTicks": 48,
          "midi": 70,
          "name": "A#4",
          "ticks": 17136,
          "time": 50.999949,
          "velocity": 0.47244094488188976
        },
        {
          "duration": 0.14285699999999935,
          "durationTicks": 48,
          "midi": 69,
          "name": "A4",
          "ticks": 17184,
          "time": 51.14280600000001,
          "velocity": 0.47244094488188976
        },
        {
          "duration": 0.14285699999999935,
          "durationTicks": 48,
          "midi": 70,
          "name": "A#4",
          "ticks": 17232,
          "time": 51.28566300000001,
          "velocity": 0.47244094488188976
        },
        {
          "duration": 0.14285699999999935,
          "durationTicks": 48,
          "midi": 69,
          "name": "A4",
          "ticks": 17280,
          "time": 51.428520000000006,
          "velocity": 0.47244094488188976
        },
        {
          "duration": 0.14285699999999935,
          "durationTicks": 48,
          "midi": 70,
          "name": "A#4",
          "ticks": 17328,
          "time": 51.571377000000005,
          "velocity": 0.47244094488188976
        },
        {
          "duration": 0.14285699999999935,
          "durationTicks": 48,
          "midi": 69,
          "name": "A4",
          "ticks": 17376,
          "time": 51.714234000000005,
          "velocity": 0.47244094488188976
        },
        {
          "duration": 0.14285699999999935,
          "durationTicks": 48,
          "midi": 70,
          "name": "A#4",
          "ticks": 17424,
          "time": 51.857091000000004,
          "velocity": 0.47244094488188976
        },
        {
          "duration": 0.14285699999999935,
          "durationTicks": 48,
          "midi": 70,
          "name": "A#4",
          "ticks": 17520,
          "time": 52.142805,
          "velocity": 0.47244094488188976
        },
        {
          "duration": 0.14285699999999935,
          "durationTicks": 48,
          "midi": 70,
          "name": "A#4",
          "ticks": 17616,
          "time": 52.428519,
          "velocity": 0.47244094488188976
        },
        {
          "duration": 0.14285700000000645,
          "durationTicks": 48,
          "midi": 69,
          "name": "A4",
          "ticks": 17664,
          "time": 52.571376,
          "velocity": 0.47244094488188976
        },
        {
          "duration": 0.14285699999999935,
          "durationTicks": 48,
          "midi": 70,
          "name": "A#4",
          "ticks": 17712,
          "time": 52.71423300000001,
          "velocity": 0.47244094488188976
        },
        {
          "duration": 0.14285699999999935,
          "durationTicks": 48,
          "midi": 69,
          "name": "A4",
          "ticks": 17760,
          "time": 52.85709000000001,
          "velocity": 0.47244094488188976
        },
        {
          "duration": 0.14285699999999935,
          "durationTicks": 48,
          "midi": 70,
          "name": "A#4",
          "ticks": 17808,
          "time": 52.999947000000006,
          "velocity": 0.47244094488188976
        },
        {
          "duration": 0.14285699999999935,
          "durationTicks": 48,
          "midi": 69,
          "name": "A4",
          "ticks": 17856,
          "time": 53.142804000000005,
          "velocity": 0.47244094488188976
        },
        {
          "duration": 0.14285699999999935,
          "durationTicks": 48,
          "midi": 70,
          "name": "A#4",
          "ticks": 17904,
          "time": 53.285661000000005,
          "velocity": 0.47244094488188976
        },
        {
          "duration": 0.14285699999999935,
          "durationTicks": 48,
          "midi": 69,
          "name": "A4",
          "ticks": 17952,
          "time": 53.428518000000004,
          "velocity": 0.47244094488188976
        },
        {
          "duration": 0.14285699999999935,
          "durationTicks": 48,
          "midi": 70,
          "name": "A#4",
          "ticks": 18000,
          "time": 53.571375,
          "velocity": 0.47244094488188976
        },
        {
          "duration": 0.14285699999999935,
          "durationTicks": 48,
          "midi": 69,
          "name": "A4",
          "ticks": 18048,
          "time": 53.714232,
          "velocity": 0.47244094488188976
        },
        {
          "duration": 0.14285699999999935,
          "durationTicks": 48,
          "midi": 70,
          "name": "A#4",
          "ticks": 18096,
          "time": 53.857089,
          "velocity": 0.47244094488188976
        },
        {
          "duration": 0.14285700000000645,
          "durationTicks": 48,
          "midi": 69,
          "name": "A4",
          "ticks": 18144,
          "time": 53.999946,
          "velocity": 0.47244094488188976
        },
        {
          "duration": 0.14285699999999935,
          "durationTicks": 48,
          "midi": 70,
          "name": "A#4",
          "ticks": 18192,
          "time": 54.14280300000001,
          "velocity": 0.47244094488188976
        },
        {
          "duration": 0.14285699999999935,
          "durationTicks": 48,
          "midi": 70,
          "name": "A#4",
          "ticks": 18288,
          "time": 54.42851700000001,
          "velocity": 0.47244094488188976
        },
        {
          "duration": 0.14285699999999935,
          "durationTicks": 48,
          "midi": 70,
          "name": "A#4",
          "ticks": 18384,
          "time": 54.714231000000005,
          "velocity": 0.47244094488188976
        },
        {
          "duration": 0.14285699999999935,
          "durationTicks": 48,
          "midi": 69,
          "name": "A4",
          "ticks": 18432,
          "time": 54.857088000000005,
          "velocity": 0.47244094488188976
        },
        {
          "duration": 0.14285699999999935,
          "durationTicks": 48,
          "midi": 70,
          "name": "A#4",
          "ticks": 18480,
          "time": 54.999945000000004,
          "velocity": 0.47244094488188976
        },
        {
          "duration": 0.14285699999999935,
          "durationTicks": 48,
          "midi": 69,
          "name": "A4",
          "ticks": 18528,
          "time": 55.142802,
          "velocity": 0.47244094488188976
        },
        {
          "duration": 0.14285699999999935,
          "durationTicks": 48,
          "midi": 70,
          "name": "A#4",
          "ticks": 18576,
          "time": 55.285659,
          "velocity": 0.47244094488188976
        },
        {
          "duration": 0.14285699999999935,
          "durationTicks": 48,
          "midi": 69,
          "name": "A4",
          "ticks": 18624,
          "time": 55.428516,
          "velocity": 0.47244094488188976
        },
        {
          "duration": 0.14285700000000645,
          "durationTicks": 48,
          "midi": 70,
          "name": "A#4",
          "ticks": 18672,
          "time": 55.571373,
          "velocity": 0.47244094488188976
        },
        {
          "duration": 0.14285699999999935,
          "durationTicks": 48,
          "midi": 69,
          "name": "A4",
          "ticks": 18720,
          "time": 55.71423000000001,
          "velocity": 0.47244094488188976
        },
        {
          "duration": 0.14285699999999935,
          "durationTicks": 48,
          "midi": 70,
          "name": "A#4",
          "ticks": 18768,
          "time": 55.85708700000001,
          "velocity": 0.47244094488188976
        },
        {
          "duration": 0.14285699999999935,
          "durationTicks": 48,
          "midi": 69,
          "name": "A4",
          "ticks": 18816,
          "time": 55.999944000000006,
          "velocity": 0.47244094488188976
        },
        {
          "duration": 0.14285699999999935,
          "durationTicks": 48,
          "midi": 70,
          "name": "A#4",
          "ticks": 18864,
          "time": 56.142801000000006,
          "velocity": 0.47244094488188976
        },
        {
          "duration": 0.14285699999999935,
          "durationTicks": 48,
          "midi": 69,
          "name": "A4",
          "ticks": 18912,
          "time": 56.285658000000005,
          "velocity": 0.47244094488188976
        },
        {
          "duration": 0.14285699999999935,
          "durationTicks": 48,
          "midi": 70,
          "name": "A#4",
          "ticks": 18960,
          "time": 56.428515000000004,
          "velocity": 0.47244094488188976
        },
        {
          "duration": 0.14285699999999935,
          "durationTicks": 48,
          "midi": 70,
          "name": "A#4",
          "ticks": 19056,
          "time": 56.714229,
          "velocity": 0.47244094488188976
        },
        {
          "duration": 0.14285700000000645,
          "durationTicks": 48,
          "midi": 70,
          "name": "A#4",
          "ticks": 19152,
          "time": 56.999943,
          "velocity": 0.47244094488188976
        },
        {
          "duration": 0.14285699999999935,
          "durationTicks": 48,
          "midi": 69,
          "name": "A4",
          "ticks": 19200,
          "time": 57.14280000000001,
          "velocity": 0.47244094488188976
        },
        {
          "duration": 0.14285699999999935,
          "durationTicks": 48,
          "midi": 70,
          "name": "A#4",
          "ticks": 19248,
          "time": 57.28565700000001,
          "velocity": 0.47244094488188976
        },
        {
          "duration": 0.14285699999999935,
          "durationTicks": 48,
          "midi": 69,
          "name": "A4",
          "ticks": 19296,
          "time": 57.42851400000001,
          "velocity": 0.47244094488188976
        },
        {
          "duration": 0.14285699999999935,
          "durationTicks": 48,
          "midi": 70,
          "name": "A#4",
          "ticks": 19344,
          "time": 57.571371000000006,
          "velocity": 0.47244094488188976
        },
        {
          "duration": 0.14285699999999935,
          "durationTicks": 48,
          "midi": 69,
          "name": "A4",
          "ticks": 19392,
          "time": 57.714228000000006,
          "velocity": 0.47244094488188976
        },
        {
          "duration": 0.14285699999999935,
          "durationTicks": 48,
          "midi": 70,
          "name": "A#4",
          "ticks": 19440,
          "time": 57.857085000000005,
          "velocity": 0.47244094488188976
        },
        {
          "duration": 0.14285699999999935,
          "durationTicks": 48,
          "midi": 69,
          "name": "A4",
          "ticks": 19488,
          "time": 57.999942000000004,
          "velocity": 0.47244094488188976
        },
        {
          "duration": 0.14285699999999935,
          "durationTicks": 48,
          "midi": 70,
          "name": "A#4",
          "ticks": 19536,
          "time": 58.142799000000004,
          "velocity": 0.47244094488188976
        },
        {
          "duration": 0.14285699999999935,
          "durationTicks": 48,
          "midi": 69,
          "name": "A4",
          "ticks": 19584,
          "time": 58.285656,
          "velocity": 0.47244094488188976
        },
        {
          "duration": 0.14285699999999935,
          "durationTicks": 48,
          "midi": 70,
          "name": "A#4",
          "ticks": 19632,
          "time": 58.428513,
          "velocity": 0.47244094488188976
        },
        {
          "duration": 0.14285700000000645,
          "durationTicks": 48,
          "midi": 69,
          "name": "A4",
          "ticks": 19680,
          "time": 58.57137,
          "velocity": 0.47244094488188976
        },
        {
          "duration": 0.14285699999999935,
          "durationTicks": 48,
          "midi": 70,
          "name": "A#4",
          "ticks": 19728,
          "time": 58.71422700000001,
          "velocity": 0.47244094488188976
        },
        {
          "duration": 0.14285699999999935,
          "durationTicks": 48,
          "midi": 70,
          "name": "A#4",
          "ticks": 19824,
          "time": 58.99994100000001,
          "velocity": 0.47244094488188976
        },
        {
          "duration": 0.14285699999999935,
          "durationTicks": 48,
          "midi": 70,
          "name": "A#4",
          "ticks": 19920,
          "time": 59.285655000000006,
          "velocity": 0.47244094488188976
        },
        {
          "duration": 0.14285699999999935,
          "durationTicks": 48,
          "midi": 69,
          "name": "A4",
          "ticks": 19968,
          "time": 59.428512000000005,
          "velocity": 0.47244094488188976
        },
        {
          "duration": 0.14285699999999935,
          "durationTicks": 48,
          "midi": 70,
          "name": "A#4",
          "ticks": 20016,
          "time": 59.571369000000004,
          "velocity": 0.47244094488188976
        },
        {
          "duration": 0.14285699999999935,
          "durationTicks": 48,
          "midi": 69,
          "name": "A4",
          "ticks": 20064,
          "time": 59.714226000000004,
          "velocity": 0.47244094488188976
        },
        {
          "duration": 0.14285699999999935,
          "durationTicks": 48,
          "midi": 70,
          "name": "A#4",
          "ticks": 20112,
          "time": 59.857083,
          "velocity": 0.47244094488188976
        },
        {
          "duration": 0.14285699999999935,
          "durationTicks": 48,
          "midi": 69,
          "name": "A4",
          "ticks": 20160,
          "time": 59.99994,
          "velocity": 0.47244094488188976
        },
        {
          "duration": 0.14285700000000645,
          "durationTicks": 48,
          "midi": 70,
          "name": "A#4",
          "ticks": 20208,
          "time": 60.142797,
          "velocity": 0.47244094488188976
        },
        {
          "duration": 0.14285699999999935,
          "durationTicks": 48,
          "midi": 69,
          "name": "A4",
          "ticks": 20256,
          "time": 60.28565400000001,
          "velocity": 0.47244094488188976
        },
        {
          "duration": 0.14285699999999935,
          "durationTicks": 48,
          "midi": 70,
          "name": "A#4",
          "ticks": 20304,
          "time": 60.42851100000001,
          "velocity": 0.47244094488188976
        },
        {
          "duration": 0.14285699999999935,
          "durationTicks": 48,
          "midi": 69,
          "name": "A4",
          "ticks": 20352,
          "time": 60.57136800000001,
          "velocity": 0.47244094488188976
        },
        {
          "duration": 0.14285699999999935,
          "durationTicks": 48,
          "midi": 70,
          "name": "A#4",
          "ticks": 20400,
          "time": 60.714225000000006,
          "velocity": 0.47244094488188976
        },
        {
          "duration": 0.14285699999999935,
          "durationTicks": 48,
          "midi": 69,
          "name": "A4",
          "ticks": 20448,
          "time": 60.857082000000005,
          "velocity": 0.47244094488188976
        },
        {
          "duration": 0.14285699999999935,
          "durationTicks": 48,
          "midi": 70,
          "name": "A#4",
          "ticks": 20496,
          "time": 60.999939000000005,
          "velocity": 0.47244094488188976
        },
        {
          "duration": 0.14285699999999935,
          "durationTicks": 48,
          "midi": 70,
          "name": "A#4",
          "ticks": 20592,
          "time": 61.285653,
          "velocity": 0.47244094488188976
        },
        {
          "duration": 0.14285699999999935,
          "durationTicks": 48,
          "midi": 70,
          "name": "A#4",
          "ticks": 20688,
          "time": 61.571367,
          "velocity": 0.47244094488188976
        },
        {
          "duration": 0.14285700000000645,
          "durationTicks": 48,
          "midi": 69,
          "name": "A4",
          "ticks": 20736,
          "time": 61.714224,
          "velocity": 0.47244094488188976
        },
        {
          "duration": 0.14285699999999935,
          "durationTicks": 48,
          "midi": 70,
          "name": "A#4",
          "ticks": 20784,
          "time": 61.85708100000001,
          "velocity": 0.47244094488188976
        },
        {
          "duration": 0.14285699999999935,
          "durationTicks": 48,
          "midi": 69,
          "name": "A4",
          "ticks": 20832,
          "time": 61.99993800000001,
          "velocity": 0.47244094488188976
        },
        {
          "duration": 0.14285699999999935,
          "durationTicks": 48,
          "midi": 70,
          "name": "A#4",
          "ticks": 20880,
          "time": 62.14279500000001,
          "velocity": 0.47244094488188976
        },
        {
          "duration": 0.14285699999999935,
          "durationTicks": 48,
          "midi": 69,
          "name": "A4",
          "ticks": 20928,
          "time": 62.285652000000006,
          "velocity": 0.47244094488188976
        },
        {
          "duration": 0.14285699999999935,
          "durationTicks": 48,
          "midi": 70,
          "name": "A#4",
          "ticks": 20976,
          "time": 62.428509000000005,
          "velocity": 0.47244094488188976
        },
        {
          "duration": 0.14285699999999935,
          "durationTicks": 48,
          "midi": 69,
          "name": "A4",
          "ticks": 21024,
          "time": 62.571366000000005,
          "velocity": 0.47244094488188976
        },
        {
          "duration": 0.14285699999999935,
          "durationTicks": 48,
          "midi": 70,
          "name": "A#4",
          "ticks": 21072,
          "time": 62.714223000000004,
          "velocity": 0.47244094488188976
        },
        {
          "duration": 0.14285699999999935,
          "durationTicks": 48,
          "midi": 69,
          "name": "A4",
          "ticks": 21120,
          "time": 62.85708,
          "velocity": 0.47244094488188976
        },
        {
          "duration": 0.14285699999999935,
          "durationTicks": 48,
          "midi": 70,
          "name": "A#4",
          "ticks": 21168,
          "time": 62.999937,
          "velocity": 0.47244094488188976
        },
        {
          "duration": 0.14285700000000645,
          "durationTicks": 48,
          "midi": 69,
          "name": "A4",
          "ticks": 21216,
          "time": 63.142794,
          "velocity": 0.47244094488188976
        },
        {
          "duration": 0.14285699999999935,
          "durationTicks": 48,
          "midi": 70,
          "name": "A#4",
          "ticks": 21264,
          "time": 63.28565100000001,
          "velocity": 0.47244094488188976
        },
        {
          "duration": 0.14285699999999935,
          "durationTicks": 48,
          "midi": 70,
          "name": "A#4",
          "ticks": 21360,
          "time": 63.57136500000001,
          "velocity": 0.47244094488188976
        },
        {
          "duration": 0.14285699999999935,
          "durationTicks": 48,
          "midi": 70,
          "name": "A#4",
          "ticks": 21456,
          "time": 63.857079000000006,
          "velocity": 0.47244094488188976
        },
        {
          "duration": 0.14285700000000645,
          "durationTicks": 48,
          "midi": 69,
          "name": "A4",
          "ticks": 21504,
          "time": 63.999936000000005,
          "velocity": 0.47244094488188976
        },
        {
          "duration": 0.14285699999999224,
          "durationTicks": 48,
          "midi": 70,
          "name": "A#4",
          "ticks": 21552,
          "time": 64.14279300000001,
          "velocity": 0.47244094488188976
        },
        {
          "duration": 0.14285700000000645,
          "durationTicks": 48,
          "midi": 69,
          "name": "A4",
          "ticks": 21600,
          "time": 64.28565,
          "velocity": 0.47244094488188976
        },
        {
          "duration": 0.14285699999999224,
          "durationTicks": 48,
          "midi": 70,
          "name": "A#4",
          "ticks": 21648,
          "time": 64.42850700000001,
          "velocity": 0.47244094488188976
        },
        {
          "duration": 0.14285700000000645,
          "durationTicks": 48,
          "midi": 69,
          "name": "A4",
          "ticks": 21696,
          "time": 64.571364,
          "velocity": 0.47244094488188976
        },
        {
          "duration": 0.14285699999999224,
          "durationTicks": 48,
          "midi": 70,
          "name": "A#4",
          "ticks": 21744,
          "time": 64.71422100000001,
          "velocity": 0.47244094488188976
        },
        {
          "duration": 0.14285700000000645,
          "durationTicks": 48,
          "midi": 69,
          "name": "A4",
          "ticks": 21792,
          "time": 64.857078,
          "velocity": 0.47244094488188976
        },
        {
          "duration": 0.14285699999999224,
          "durationTicks": 48,
          "midi": 70,
          "name": "A#4",
          "ticks": 21840,
          "time": 64.99993500000001,
          "velocity": 0.47244094488188976
        },
        {
          "duration": 0.14285700000000645,
          "durationTicks": 48,
          "midi": 69,
          "name": "A4",
          "ticks": 21888,
          "time": 65.142792,
          "velocity": 0.47244094488188976
        },
        {
          "duration": 0.14285699999999224,
          "durationTicks": 48,
          "midi": 70,
          "name": "A#4",
          "ticks": 21936,
          "time": 65.285649,
          "velocity": 0.47244094488188976
        },
        {
          "duration": 0.14285700000000645,
          "durationTicks": 48,
          "midi": 69,
          "name": "A4",
          "ticks": 21984,
          "time": 65.428506,
          "velocity": 0.47244094488188976
        },
        {
          "duration": 0.14285700000000645,
          "durationTicks": 48,
          "midi": 70,
          "name": "A#4",
          "ticks": 22032,
          "time": 65.571363,
          "velocity": 0.47244094488188976
        },
        {
          "duration": 0.14285700000000645,
          "durationTicks": 48,
          "midi": 70,
          "name": "A#4",
          "ticks": 22128,
          "time": 65.857077,
          "velocity": 0.47244094488188976
        },
        {
          "duration": 0.14285700000000645,
          "durationTicks": 48,
          "midi": 70,
          "name": "A#4",
          "ticks": 22224,
          "time": 66.142791,
          "velocity": 0.47244094488188976
        },
        {
          "duration": 0.14285699999999224,
          "durationTicks": 48,
          "midi": 69,
          "name": "A4",
          "ticks": 22272,
          "time": 66.28564800000001,
          "velocity": 0.47244094488188976
        },
        {
          "duration": 0.14285700000000645,
          "durationTicks": 48,
          "midi": 70,
          "name": "A#4",
          "ticks": 22320,
          "time": 66.428505,
          "velocity": 0.47244094488188976
        },
        {
          "duration": 0.14285699999999224,
          "durationTicks": 48,
          "midi": 69,
          "name": "A4",
          "ticks": 22368,
          "time": 66.57136200000001,
          "velocity": 0.47244094488188976
        },
        {
          "duration": 0.14285700000000645,
          "durationTicks": 48,
          "midi": 70,
          "name": "A#4",
          "ticks": 22416,
          "time": 66.714219,
          "velocity": 0.47244094488188976
        },
        {
          "duration": 0.14285699999999224,
          "durationTicks": 48,
          "midi": 69,
          "name": "A4",
          "ticks": 22464,
          "time": 66.857076,
          "velocity": 0.47244094488188976
        },
        {
          "duration": 0.14285700000000645,
          "durationTicks": 48,
          "midi": 70,
          "name": "A#4",
          "ticks": 22512,
          "time": 66.999933,
          "velocity": 0.47244094488188976
        },
        {
          "duration": 0.14285700000000645,
          "durationTicks": 48,
          "midi": 69,
          "name": "A4",
          "ticks": 22560,
          "time": 67.14279,
          "velocity": 0.47244094488188976
        },
        {
          "duration": 0.14285699999999224,
          "durationTicks": 48,
          "midi": 70,
          "name": "A#4",
          "ticks": 22608,
          "time": 67.28564700000001,
          "velocity": 0.47244094488188976
        },
        {
          "duration": 0.14285700000000645,
          "durationTicks": 48,
          "midi": 69,
          "name": "A4",
          "ticks": 22656,
          "time": 67.428504,
          "velocity": 0.47244094488188976
        },
        {
          "duration": 0.14285699999999224,
          "durationTicks": 48,
          "midi": 70,
          "name": "A#4",
          "ticks": 22704,
          "time": 67.57136100000001,
          "velocity": 0.47244094488188976
        },
        {
          "duration": 0.14285700000000645,
          "durationTicks": 48,
          "midi": 69,
          "name": "A4",
          "ticks": 22752,
          "time": 67.714218,
          "velocity": 0.47244094488188976
        },
        {
          "duration": 0.14285699999999224,
          "durationTicks": 48,
          "midi": 70,
          "name": "A#4",
          "ticks": 22800,
          "time": 67.85707500000001,
          "velocity": 0.47244094488188976
        },
        {
          "duration": 0.14285699999999224,
          "durationTicks": 48,
          "midi": 70,
          "name": "A#4",
          "ticks": 22896,
          "time": 68.14278900000001,
          "velocity": 0.47244094488188976
        },
        {
          "duration": 0.14285699999999224,
          "durationTicks": 48,
          "midi": 70,
          "name": "A#4",
          "ticks": 22992,
          "time": 68.428503,
          "velocity": 0.47244094488188976
        },
        {
          "duration": 0.14285700000000645,
          "durationTicks": 48,
          "midi": 69,
          "name": "A4",
          "ticks": 23040,
          "time": 68.57136,
          "velocity": 0.47244094488188976
        },
        {
          "duration": 0.14285700000000645,
          "durationTicks": 48,
          "midi": 70,
          "name": "A#4",
          "ticks": 23088,
          "time": 68.714217,
          "velocity": 0.47244094488188976
        },
        {
          "duration": 0.14285699999999224,
          "durationTicks": 48,
          "midi": 69,
          "name": "A4",
          "ticks": 23136,
          "time": 68.85707400000001,
          "velocity": 0.47244094488188976
        },
        {
          "duration": 0.14285700000000645,
          "durationTicks": 48,
          "midi": 70,
          "name": "A#4",
          "ticks": 23184,
          "time": 68.999931,
          "velocity": 0.47244094488188976
        },
        {
          "duration": 0.14285699999999224,
          "durationTicks": 48,
          "midi": 69,
          "name": "A4",
          "ticks": 23232,
          "time": 69.14278800000001,
          "velocity": 0.47244094488188976
        },
        {
          "duration": 0.14285700000000645,
          "durationTicks": 48,
          "midi": 70,
          "name": "A#4",
          "ticks": 23280,
          "time": 69.285645,
          "velocity": 0.47244094488188976
        },
        {
          "duration": 0.14285699999999224,
          "durationTicks": 48,
          "midi": 69,
          "name": "A4",
          "ticks": 23328,
          "time": 69.42850200000001,
          "velocity": 0.47244094488188976
        },
        {
          "duration": 0.14285700000000645,
          "durationTicks": 48,
          "midi": 70,
          "name": "A#4",
          "ticks": 23376,
          "time": 69.571359,
          "velocity": 0.47244094488188976
        },
        {
          "duration": 0.14285699999999224,
          "durationTicks": 48,
          "midi": 69,
          "name": "A4",
          "ticks": 23424,
          "time": 69.71421600000001,
          "velocity": 0.47244094488188976
        },
        {
          "duration": 0.14285700000000645,
          "durationTicks": 48,
          "midi": 70,
          "name": "A#4",
          "ticks": 23472,
          "time": 69.857073,
          "velocity": 0.47244094488188976
        },
        {
          "duration": 0.14285700000000645,
          "durationTicks": 48,
          "midi": 69,
          "name": "A4",
          "ticks": 23520,
          "time": 69.99993,
          "velocity": 0.47244094488188976
        },
        {
          "duration": 0.14285699999999224,
          "durationTicks": 48,
          "midi": 70,
          "name": "A#4",
          "ticks": 23568,
          "time": 70.14278700000001,
          "velocity": 0.47244094488188976
        },
        {
          "duration": 0.14285699999999224,
          "durationTicks": 48,
          "midi": 70,
          "name": "A#4",
          "ticks": 23664,
          "time": 70.42850100000001,
          "velocity": 0.47244094488188976
        },
        {
          "duration": 0.14285699999999224,
          "durationTicks": 48,
          "midi": 70,
          "name": "A#4",
          "ticks": 23760,
          "time": 70.71421500000001,
          "velocity": 0.47244094488188976
        },
        {
          "duration": 0.14285700000000645,
          "durationTicks": 48,
          "midi": 69,
          "name": "A4",
          "ticks": 23808,
          "time": 70.857072,
          "velocity": 0.47244094488188976
        },
        {
          "duration": 0.14285699999999224,
          "durationTicks": 48,
          "midi": 70,
          "name": "A#4",
          "ticks": 23856,
          "time": 70.99992900000001,
          "velocity": 0.47244094488188976
        },
        {
          "duration": 0.14285700000000645,
          "durationTicks": 48,
          "midi": 69,
          "name": "A4",
          "ticks": 23904,
          "time": 71.142786,
          "velocity": 0.47244094488188976
        },
        {
          "duration": 0.14285699999999224,
          "durationTicks": 48,
          "midi": 70,
          "name": "A#4",
          "ticks": 23952,
          "time": 71.28564300000001,
          "velocity": 0.47244094488188976
        },
        {
          "duration": 0.14285700000000645,
          "durationTicks": 48,
          "midi": 69,
          "name": "A4",
          "ticks": 24000,
          "time": 71.4285,
          "velocity": 0.47244094488188976
        },
        {
          "duration": 0.14285700000000645,
          "durationTicks": 48,
          "midi": 70,
          "name": "A#4",
          "ticks": 24048,
          "time": 71.571357,
          "velocity": 0.47244094488188976
        },
        {
          "duration": 0.14285699999999224,
          "durationTicks": 48,
          "midi": 69,
          "name": "A4",
          "ticks": 24096,
          "time": 71.71421400000001,
          "velocity": 0.47244094488188976
        },
        {
          "duration": 0.14285700000000645,
          "durationTicks": 48,
          "midi": 70,
          "name": "A#4",
          "ticks": 24144,
          "time": 71.857071,
          "velocity": 0.47244094488188976
        },
        {
          "duration": 0.14285699999999224,
          "durationTicks": 48,
          "midi": 69,
          "name": "A4",
          "ticks": 24192,
          "time": 71.99992800000001,
          "velocity": 0.47244094488188976
        },
        {
          "duration": 0.14285700000000645,
          "durationTicks": 48,
          "midi": 70,
          "name": "A#4",
          "ticks": 24240,
          "time": 72.142785,
          "velocity": 0.47244094488188976
        },
        {
          "duration": 0.14285699999999224,
          "durationTicks": 48,
          "midi": 69,
          "name": "A4",
          "ticks": 24288,
          "time": 72.28564200000001,
          "velocity": 0.47244094488188976
        },
        {
          "duration": 0.14285700000000645,
          "durationTicks": 48,
          "midi": 70,
          "name": "A#4",
          "ticks": 24336,
          "time": 72.428499,
          "velocity": 0.47244094488188976
        },
        {
          "duration": 0.14285700000000645,
          "durationTicks": 48,
          "midi": 70,
          "name": "A#4",
          "ticks": 24432,
          "time": 72.714213,
          "velocity": 0.47244094488188976
        },
        {
          "duration": 0.14285700000000645,
          "durationTicks": 48,
          "midi": 70,
          "name": "A#4",
          "ticks": 24528,
          "time": 72.999927,
          "velocity": 0.47244094488188976
        },
        {
          "duration": 0.14285700000000645,
          "durationTicks": 48,
          "midi": 69,
          "name": "A4",
          "ticks": 24576,
          "time": 73.142784,
          "velocity": 0.47244094488188976
        },
        {
          "duration": 0.14285699999999224,
          "durationTicks": 48,
          "midi": 70,
          "name": "A#4",
          "ticks": 24624,
          "time": 73.28564100000001,
          "velocity": 0.47244094488188976
        },
        {
          "duration": 0.14285700000000645,
          "durationTicks": 48,
          "midi": 69,
          "name": "A4",
          "ticks": 24672,
          "time": 73.428498,
          "velocity": 0.47244094488188976
        },
        {
          "duration": 0.14285699999999224,
          "durationTicks": 48,
          "midi": 70,
          "name": "A#4",
          "ticks": 24720,
          "time": 73.57135500000001,
          "velocity": 0.47244094488188976
        },
        {
          "duration": 0.14285700000000645,
          "durationTicks": 48,
          "midi": 69,
          "name": "A4",
          "ticks": 24768,
          "time": 73.714212,
          "velocity": 0.47244094488188976
        },
        {
          "duration": 0.14285699999999224,
          "durationTicks": 48,
          "midi": 70,
          "name": "A#4",
          "ticks": 24816,
          "time": 73.85706900000001,
          "velocity": 0.47244094488188976
        },
        {
          "duration": 0.14285700000000645,
          "durationTicks": 48,
          "midi": 69,
          "name": "A4",
          "ticks": 24864,
          "time": 73.999926,
          "velocity": 0.47244094488188976
        },
        {
          "duration": 0.14285699999999224,
          "durationTicks": 48,
          "midi": 70,
          "name": "A#4",
          "ticks": 24912,
          "time": 74.14278300000001,
          "velocity": 0.47244094488188976
        },
        {
          "duration": 0.14285700000000645,
          "durationTicks": 48,
          "midi": 69,
          "name": "A4",
          "ticks": 24960,
          "time": 74.28564,
          "velocity": 0.47244094488188976
        },
        {
          "duration": 0.14285699999999224,
          "durationTicks": 48,
          "midi": 70,
          "name": "A#4",
          "ticks": 25008,
          "time": 74.42849700000001,
          "velocity": 0.47244094488188976
        },
        {
          "duration": 0.14285700000000645,
          "durationTicks": 48,
          "midi": 69,
          "name": "A4",
          "ticks": 25056,
          "time": 74.571354,
          "velocity": 0.47244094488188976
        },
        {
          "duration": 0.14285700000000645,
          "durationTicks": 48,
          "midi": 70,
          "name": "A#4",
          "ticks": 25104,
          "time": 74.714211,
          "velocity": 0.47244094488188976
        },
        {
          "duration": 0.14285700000000645,
          "durationTicks": 48,
          "midi": 70,
          "name": "A#4",
          "ticks": 25200,
          "time": 74.999925,
          "velocity": 0.47244094488188976
        },
        {
          "duration": 0.14285700000000645,
          "durationTicks": 48,
          "midi": 70,
          "name": "A#4",
          "ticks": 25296,
          "time": 75.285639,
          "velocity": 0.47244094488188976
        },
        {
          "duration": 0.14285699999999224,
          "durationTicks": 48,
          "midi": 69,
          "name": "A4",
          "ticks": 25344,
          "time": 75.42849600000001,
          "velocity": 0.47244094488188976
        },
        {
          "duration": 0.14285700000000645,
          "durationTicks": 48,
          "midi": 70,
          "name": "A#4",
          "ticks": 25392,
          "time": 75.571353,
          "velocity": 0.47244094488188976
        },
        {
          "duration": 0.14285699999999224,
          "durationTicks": 48,
          "midi": 69,
          "name": "A4",
          "ticks": 25440,
          "time": 75.71421000000001,
          "velocity": 0.47244094488188976
        },
        {
          "duration": 0.14285700000000645,
          "durationTicks": 48,
          "midi": 70,
          "name": "A#4",
          "ticks": 25488,
          "time": 75.857067,
          "velocity": 0.47244094488188976
        },
        {
          "duration": 0.14285699999999224,
          "durationTicks": 48,
          "midi": 69,
          "name": "A4",
          "ticks": 25536,
          "time": 75.99992400000001,
          "velocity": 0.47244094488188976
        },
        {
          "duration": 0.14285700000000645,
          "durationTicks": 48,
          "midi": 70,
          "name": "A#4",
          "ticks": 25584,
          "time": 76.142781,
          "velocity": 0.47244094488188976
        },
        {
          "duration": 0.14285700000000645,
          "durationTicks": 48,
          "midi": 69,
          "name": "A4",
          "ticks": 25632,
          "time": 76.285638,
          "velocity": 0.47244094488188976
        },
        {
          "duration": 0.14285699999999224,
          "durationTicks": 48,
          "midi": 70,
          "name": "A#4",
          "ticks": 25680,
          "time": 76.42849500000001,
          "velocity": 0.47244094488188976
        },
        {
          "duration": 0.14285700000000645,
          "durationTicks": 48,
          "midi": 69,
          "name": "A4",
          "ticks": 25728,
          "time": 76.571352,
          "velocity": 0.47244094488188976
        },
        {
          "duration": 0.14285699999999224,
          "durationTicks": 48,
          "midi": 70,
          "name": "A#4",
          "ticks": 25776,
          "time": 76.71420900000001,
          "velocity": 0.47244094488188976
        },
        {
          "duration": 0.14285700000000645,
          "durationTicks": 48,
          "midi": 69,
          "name": "A4",
          "ticks": 25824,
          "time": 76.857066,
          "velocity": 0.47244094488188976
        },
        {
          "duration": 0.14285699999999224,
          "durationTicks": 48,
          "midi": 70,
          "name": "A#4",
          "ticks": 25872,
          "time": 76.99992300000001,
          "velocity": 0.47244094488188976
        },
        {
          "duration": 0.14285699999999224,
          "durationTicks": 48,
          "midi": 70,
          "name": "A#4",
          "ticks": 25968,
          "time": 77.28563700000001,
          "velocity": 0.47244094488188976
        },
        {
          "duration": 0.14285700000000645,
          "durationTicks": 48,
          "midi": 70,
          "name": "A#4",
          "ticks": 26064,
          "time": 77.571351,
          "velocity": 0.47244094488188976
        },
        {
          "duration": 0.14285699999999224,
          "durationTicks": 48,
          "midi": 69,
          "name": "A4",
          "ticks": 26112,
          "time": 77.71420800000001,
          "velocity": 0.47244094488188976
        },
        {
          "duration": 0.14285700000000645,
          "durationTicks": 48,
          "midi": 70,
          "name": "A#4",
          "ticks": 26160,
          "time": 77.857065,
          "velocity": 0.47244094488188976
        },
        {
          "duration": 0.14285699999999224,
          "durationTicks": 48,
          "midi": 69,
          "name": "A4",
          "ticks": 26208,
          "time": 77.99992200000001,
          "velocity": 0.47244094488188976
        },
        {
          "duration": 0.14285700000000645,
          "durationTicks": 48,
          "midi": 70,
          "name": "A#4",
          "ticks": 26256,
          "time": 78.142779,
          "velocity": 0.47244094488188976
        },
        {
          "duration": 0.14285699999999224,
          "durationTicks": 48,
          "midi": 69,
          "name": "A4",
          "ticks": 26304,
          "time": 78.28563600000001,
          "velocity": 0.47244094488188976
        },
        {
          "duration": 0.14285700000000645,
          "durationTicks": 48,
          "midi": 70,
          "name": "A#4",
          "ticks": 26352,
          "time": 78.428493,
          "velocity": 0.47244094488188976
        },
        {
          "duration": 0.14285699999999224,
          "durationTicks": 48,
          "midi": 69,
          "name": "A4",
          "ticks": 26400,
          "time": 78.57135000000001,
          "velocity": 0.47244094488188976
        },
        {
          "duration": 0.14285700000000645,
          "durationTicks": 48,
          "midi": 70,
          "name": "A#4",
          "ticks": 26448,
          "time": 78.714207,
          "velocity": 0.47244094488188976
        },
        {
          "duration": 0.14285699999999224,
          "durationTicks": 48,
          "midi": 69,
          "name": "A4",
          "ticks": 26496,
          "time": 78.85706400000001,
          "velocity": 0.47244094488188976
        },
        {
          "duration": 0.14285700000000645,
          "durationTicks": 48,
          "midi": 70,
          "name": "A#4",
          "ticks": 26544,
          "time": 78.999921,
          "velocity": 0.47244094488188976
        },
        {
          "duration": 0.14285700000000645,
          "durationTicks": 48,
          "midi": 69,
          "name": "A4",
          "ticks": 26592,
          "time": 79.142778,
          "velocity": 0.47244094488188976
        },
        {
          "duration": 0.14285699999999224,
          "durationTicks": 48,
          "midi": 70,
          "name": "A#4",
          "ticks": 26640,
          "time": 79.28563500000001,
          "velocity": 0.47244094488188976
        },
        {
          "duration": 0.14285699999999224,
          "durationTicks": 48,
          "midi": 70,
          "name": "A#4",
          "ticks": 26736,
          "time": 79.57134900000001,
          "velocity": 0.47244094488188976
        },
        {
          "duration": 0.14285699999999224,
          "durationTicks": 48,
          "midi": 70,
          "name": "A#4",
          "ticks": 26832,
          "time": 79.85706300000001,
          "velocity": 0.47244094488188976
        },
        {
          "duration": 0.14285700000000645,
          "durationTicks": 48,
          "midi": 69,
          "name": "A4",
          "ticks": 26880,
          "time": 79.99992,
          "velocity": 0.47244094488188976
        },
        {
          "duration": 0.14285699999999224,
          "durationTicks": 48,
          "midi": 70,
          "name": "A#4",
          "ticks": 26928,
          "time": 80.14277700000001,
          "velocity": 0.47244094488188976
        },
        {
          "duration": 0.14285700000000645,
          "durationTicks": 48,
          "midi": 69,
          "name": "A4",
          "ticks": 26976,
          "time": 80.285634,
          "velocity": 0.47244094488188976
        },
        {
          "duration": 0.14285699999999224,
          "durationTicks": 48,
          "midi": 70,
          "name": "A#4",
          "ticks": 27024,
          "time": 80.42849100000001,
          "velocity": 0.47244094488188976
        },
        {
          "duration": 0.14285700000000645,
          "durationTicks": 48,
          "midi": 69,
          "name": "A4",
          "ticks": 27072,
          "time": 80.571348,
          "velocity": 0.47244094488188976
        },
        {
          "duration": 0.14285700000000645,
          "durationTicks": 48,
          "midi": 70,
          "name": "A#4",
          "ticks": 27120,
          "time": 80.714205,
          "velocity": 0.47244094488188976
        },
        {
          "duration": 0.14285699999999224,
          "durationTicks": 48,
          "midi": 69,
          "name": "A4",
          "ticks": 27168,
          "time": 80.85706200000001,
          "velocity": 0.47244094488188976
        },
        {
          "duration": 0.14285700000000645,
          "durationTicks": 48,
          "midi": 70,
          "name": "A#4",
          "ticks": 27216,
          "time": 80.999919,
          "velocity": 0.47244094488188976
        },
        {
          "duration": 0.14285699999999224,
          "durationTicks": 48,
          "midi": 69,
          "name": "A4",
          "ticks": 27264,
          "time": 81.14277600000001,
          "velocity": 0.47244094488188976
        },
        {
          "duration": 0.14285700000000645,
          "durationTicks": 48,
          "midi": 70,
          "name": "A#4",
          "ticks": 27312,
          "time": 81.285633,
          "velocity": 0.47244094488188976
        },
        {
          "duration": 0.14285699999999224,
          "durationTicks": 48,
          "midi": 69,
          "name": "A4",
          "ticks": 27360,
          "time": 81.42849000000001,
          "velocity": 0.47244094488188976
        },
        {
          "duration": 0.14285700000000645,
          "durationTicks": 48,
          "midi": 70,
          "name": "A#4",
          "ticks": 27408,
          "time": 81.571347,
          "velocity": 0.47244094488188976
        },
        {
          "duration": 0.14285700000000645,
          "durationTicks": 48,
          "midi": 70,
          "name": "A#4",
          "ticks": 27504,
          "time": 81.857061,
          "velocity": 0.47244094488188976
        },
        {
          "duration": 0.14285700000000645,
          "durationTicks": 48,
          "midi": 70,
          "name": "A#4",
          "ticks": 27600,
          "time": 82.142775,
          "velocity": 0.47244094488188976
        },
        {
          "duration": 0.14285700000000645,
          "durationTicks": 48,
          "midi": 69,
          "name": "A4",
          "ticks": 27648,
          "time": 82.285632,
          "velocity": 0.47244094488188976
        },
        {
          "duration": 0.14285699999999224,
          "durationTicks": 48,
          "midi": 70,
          "name": "A#4",
          "ticks": 27696,
          "time": 82.42848900000001,
          "velocity": 0.47244094488188976
        },
        {
          "duration": 0.14285700000000645,
          "durationTicks": 48,
          "midi": 69,
          "name": "A4",
          "ticks": 27744,
          "time": 82.571346,
          "velocity": 0.47244094488188976
        },
        {
          "duration": 0.14285699999999224,
          "durationTicks": 48,
          "midi": 70,
          "name": "A#4",
          "ticks": 27792,
          "time": 82.71420300000001,
          "velocity": 0.47244094488188976
        },
        {
          "duration": 0.14285700000000645,
          "durationTicks": 48,
          "midi": 69,
          "name": "A4",
          "ticks": 27840,
          "time": 82.85706,
          "velocity": 0.47244094488188976
        },
        {
          "duration": 0.14285699999999224,
          "durationTicks": 48,
          "midi": 70,
          "name": "A#4",
          "ticks": 27888,
          "time": 82.99991700000001,
          "velocity": 0.47244094488188976
        },
        {
          "duration": 0.14285700000000645,
          "durationTicks": 48,
          "midi": 69,
          "name": "A4",
          "ticks": 27936,
          "time": 83.142774,
          "velocity": 0.47244094488188976
        },
        {
          "duration": 0.14285699999999224,
          "durationTicks": 48,
          "midi": 70,
          "name": "A#4",
          "ticks": 27984,
          "time": 83.28563100000001,
          "velocity": 0.47244094488188976
        },
        {
          "duration": 0.14285700000000645,
          "durationTicks": 48,
          "midi": 69,
          "name": "A4",
          "ticks": 28032,
          "time": 83.428488,
          "velocity": 0.47244094488188976
        },
        {
          "duration": 0.14285699999999224,
          "durationTicks": 48,
          "midi": 70,
          "name": "A#4",
          "ticks": 28080,
          "time": 83.57134500000001,
          "velocity": 0.47244094488188976
        },
        {
          "duration": 0.14285700000000645,
          "durationTicks": 48,
          "midi": 69,
          "name": "A4",
          "ticks": 28128,
          "time": 83.714202,
          "velocity": 0.47244094488188976
        },
        {
          "duration": 0.14285700000000645,
          "durationTicks": 48,
          "midi": 70,
          "name": "A#4",
          "ticks": 28176,
          "time": 83.857059,
          "velocity": 0.47244094488188976
        },
        {
          "duration": 0.14285700000000645,
          "durationTicks": 48,
          "midi": 70,
          "name": "A#4",
          "ticks": 28272,
          "time": 84.142773,
          "velocity": 0.47244094488188976
        },
        {
          "duration": 0.14285700000000645,
          "durationTicks": 48,
          "midi": 70,
          "name": "A#4",
          "ticks": 28368,
          "time": 84.428487,
          "velocity": 0.47244094488188976
        },
        {
          "duration": 0.14285699999999224,
          "durationTicks": 48,
          "midi": 69,
          "name": "A4",
          "ticks": 28416,
          "time": 84.57134400000001,
          "velocity": 0.47244094488188976
        },
        {
          "duration": 0.14285700000000645,
          "durationTicks": 48,
          "midi": 70,
          "name": "A#4",
          "ticks": 28464,
          "time": 84.714201,
          "velocity": 0.47244094488188976
        },
        {
          "duration": 0.14285699999999224,
          "durationTicks": 48,
          "midi": 69,
          "name": "A4",
          "ticks": 28512,
          "time": 84.85705800000001,
          "velocity": 0.47244094488188976
        },
        {
          "duration": 0.14285700000000645,
          "durationTicks": 48,
          "midi": 70,
          "name": "A#4",
          "ticks": 28560,
          "time": 84.999915,
          "velocity": 0.47244094488188976
        },
        {
          "duration": 0.14285699999999224,
          "durationTicks": 48,
          "midi": 69,
          "name": "A4",
          "ticks": 28608,
          "time": 85.14277200000001,
          "velocity": 0.47244094488188976
        },
        {
          "duration": 0.14285700000000645,
          "durationTicks": 48,
          "midi": 70,
          "name": "A#4",
          "ticks": 28656,
          "time": 85.285629,
          "velocity": 0.47244094488188976
        },
        {
          "duration": 0.14285700000000645,
          "durationTicks": 48,
          "midi": 69,
          "name": "A4",
          "ticks": 28704,
          "time": 85.428486,
          "velocity": 0.47244094488188976
        },
        {
          "duration": 0.14285699999999224,
          "durationTicks": 48,
          "midi": 70,
          "name": "A#4",
          "ticks": 28752,
          "time": 85.57134300000001,
          "velocity": 0.47244094488188976
        },
        {
          "duration": 0.14285700000000645,
          "durationTicks": 48,
          "midi": 69,
          "name": "A4",
          "ticks": 28800,
          "time": 85.7142,
          "velocity": 0.47244094488188976
        },
        {
          "duration": 0.14285699999999224,
          "durationTicks": 48,
          "midi": 70,
          "name": "A#4",
          "ticks": 28848,
          "time": 85.85705700000001,
          "velocity": 0.47244094488188976
        },
        {
          "duration": 0.14285700000000645,
          "durationTicks": 48,
          "midi": 69,
          "name": "A4",
          "ticks": 28896,
          "time": 85.999914,
          "velocity": 0.47244094488188976
        },
        {
          "duration": 0.14285699999999224,
          "durationTicks": 48,
          "midi": 70,
          "name": "A#4",
          "ticks": 28944,
          "time": 86.14277100000001,
          "velocity": 0.47244094488188976
        },
        {
          "duration": 0.14285699999999224,
          "durationTicks": 48,
          "midi": 70,
          "name": "A#4",
          "ticks": 29040,
          "time": 86.42848500000001,
          "velocity": 0.47244094488188976
        },
        {
          "duration": 0.14285699999999224,
          "durationTicks": 48,
          "midi": 70,
          "name": "A#4",
          "ticks": 29136,
          "time": 86.71419900000001,
          "velocity": 0.47244094488188976
        },
        {
          "duration": 0.14285700000000645,
          "durationTicks": 48,
          "midi": 69,
          "name": "A4",
          "ticks": 29184,
          "time": 86.857056,
          "velocity": 0.47244094488188976
        },
        {
          "duration": 0.14285700000000645,
          "durationTicks": 48,
          "midi": 70,
          "name": "A#4",
          "ticks": 29232,
          "time": 86.999913,
          "velocity": 0.47244094488188976
        },
        {
          "duration": 0.14285699999999224,
          "durationTicks": 48,
          "midi": 69,
          "name": "A4",
          "ticks": 29280,
          "time": 87.14277000000001,
          "velocity": 0.47244094488188976
        },
        {
          "duration": 0.14285700000000645,
          "durationTicks": 48,
          "midi": 70,
          "name": "A#4",
          "ticks": 29328,
          "time": 87.285627,
          "velocity": 0.47244094488188976
        },
        {
          "duration": 0.14285699999999224,
          "durationTicks": 48,
          "midi": 69,
          "name": "A4",
          "ticks": 29376,
          "time": 87.42848400000001,
          "velocity": 0.47244094488188976
        },
        {
          "duration": 0.14285700000000645,
          "durationTicks": 48,
          "midi": 70,
          "name": "A#4",
          "ticks": 29424,
          "time": 87.571341,
          "velocity": 0.47244094488188976
        },
        {
          "duration": 0.14285699999999224,
          "durationTicks": 48,
          "midi": 69,
          "name": "A4",
          "ticks": 29472,
          "time": 87.71419800000001,
          "velocity": 0.47244094488188976
        },
        {
          "duration": 0.14285700000000645,
          "durationTicks": 48,
          "midi": 70,
          "name": "A#4",
          "ticks": 29520,
          "time": 87.857055,
          "velocity": 0.47244094488188976
        },
        {
          "duration": 0.14285699999999224,
          "durationTicks": 48,
          "midi": 69,
          "name": "A4",
          "ticks": 29568,
          "time": 87.99991200000001,
          "velocity": 0.47244094488188976
        },
        {
          "duration": 0.14285700000000645,
          "durationTicks": 48,
          "midi": 70,
          "name": "A#4",
          "ticks": 29616,
          "time": 88.142769,
          "velocity": 0.47244094488188976
        },
        {
          "duration": 0.14285700000000645,
          "durationTicks": 48,
          "midi": 69,
          "name": "A4",
          "ticks": 29664,
          "time": 88.28562600000001,
          "velocity": 0.47244094488188976
        },
        {
          "duration": 0.14285699999999224,
          "durationTicks": 48,
          "midi": 70,
          "name": "A#4",
          "ticks": 29712,
          "time": 88.42848300000001,
          "velocity": 0.47244094488188976
        },
        {
          "duration": 0.14285699999999224,
          "durationTicks": 48,
          "midi": 70,
          "name": "A#4",
          "ticks": 29808,
          "time": 88.71419700000001,
          "velocity": 0.47244094488188976
        },
        {
          "duration": 0.14285699999999224,
          "durationTicks": 48,
          "midi": 70,
          "name": "A#4",
          "ticks": 29904,
          "time": 88.99991100000001,
          "velocity": 0.47244094488188976
        },
        {
          "duration": 0.14285700000000645,
          "durationTicks": 48,
          "midi": 69,
          "name": "A4",
          "ticks": 29952,
          "time": 89.142768,
          "velocity": 0.47244094488188976
        },
        {
          "duration": 0.14285699999999224,
          "durationTicks": 48,
          "midi": 70,
          "name": "A#4",
          "ticks": 30000,
          "time": 89.28562500000001,
          "velocity": 0.47244094488188976
        },
        {
          "duration": 0.14285700000000645,
          "durationTicks": 48,
          "midi": 69,
          "name": "A4",
          "ticks": 30048,
          "time": 89.428482,
          "velocity": 0.47244094488188976
        },
        {
          "duration": 0.14285699999999224,
          "durationTicks": 48,
          "midi": 70,
          "name": "A#4",
          "ticks": 30096,
          "time": 89.57133900000001,
          "velocity": 0.47244094488188976
        },
        {
          "duration": 0.14285700000000645,
          "durationTicks": 48,
          "midi": 69,
          "name": "A4",
          "ticks": 30144,
          "time": 89.714196,
          "velocity": 0.47244094488188976
        },
        {
          "duration": 0.14285700000000645,
          "durationTicks": 48,
          "midi": 70,
          "name": "A#4",
          "ticks": 30192,
          "time": 89.85705300000001,
          "velocity": 0.47244094488188976
        },
        {
          "duration": 0.14285699999999224,
          "durationTicks": 48,
          "midi": 69,
          "name": "A4",
          "ticks": 30240,
          "time": 89.99991000000001,
          "velocity": 0.47244094488188976
        },
        {
          "duration": 0.14285700000000645,
          "durationTicks": 48,
          "midi": 70,
          "name": "A#4",
          "ticks": 30288,
          "time": 90.142767,
          "velocity": 0.47244094488188976
        },
        {
          "duration": 0.14285699999999224,
          "durationTicks": 48,
          "midi": 69,
          "name": "A4",
          "ticks": 30336,
          "time": 90.28562400000001,
          "velocity": 0.47244094488188976
        },
        {
          "duration": 0.14285700000000645,
          "durationTicks": 48,
          "midi": 70,
          "name": "A#4",
          "ticks": 30384,
          "time": 90.428481,
          "velocity": 0.47244094488188976
        },
        {
          "duration": 0.14285699999999224,
          "durationTicks": 48,
          "midi": 69,
          "name": "A4",
          "ticks": 30432,
          "time": 90.57133800000001,
          "velocity": 0.47244094488188976
        },
        {
          "duration": 0.14285700000000645,
          "durationTicks": 48,
          "midi": 70,
          "name": "A#4",
          "ticks": 30480,
          "time": 90.714195,
          "velocity": 0.47244094488188976
        },
        {
          "duration": 0.14285700000000645,
          "durationTicks": 48,
          "midi": 70,
          "name": "A#4",
          "ticks": 30576,
          "time": 90.999909,
          "velocity": 0.47244094488188976
        },
        {
          "duration": 0.14285700000000645,
          "durationTicks": 48,
          "midi": 70,
          "name": "A#4",
          "ticks": 30672,
          "time": 91.285623,
          "velocity": 0.47244094488188976
        },
        {
          "duration": 0.14285700000000645,
          "durationTicks": 48,
          "midi": 69,
          "name": "A4",
          "ticks": 30720,
          "time": 91.42848000000001,
          "velocity": 0.47244094488188976
        },
        {
          "duration": 0.14285699999999224,
          "durationTicks": 48,
          "midi": 70,
          "name": "A#4",
          "ticks": 30768,
          "time": 91.57133700000001,
          "velocity": 0.47244094488188976
        },
        {
          "duration": 0.14285700000000645,
          "durationTicks": 48,
          "midi": 69,
          "name": "A4",
          "ticks": 30816,
          "time": 91.714194,
          "velocity": 0.47244094488188976
        },
        {
          "duration": 0.14285699999999224,
          "durationTicks": 48,
          "midi": 70,
          "name": "A#4",
          "ticks": 30864,
          "time": 91.85705100000001,
          "velocity": 0.47244094488188976
        },
        {
          "duration": 0.14285700000000645,
          "durationTicks": 48,
          "midi": 69,
          "name": "A4",
          "ticks": 30912,
          "time": 91.999908,
          "velocity": 0.47244094488188976
        },
        {
          "duration": 0.14285699999999224,
          "durationTicks": 48,
          "midi": 70,
          "name": "A#4",
          "ticks": 30960,
          "time": 92.14276500000001,
          "velocity": 0.47244094488188976
        },
        {
          "duration": 0.14285700000000645,
          "durationTicks": 48,
          "midi": 69,
          "name": "A4",
          "ticks": 31008,
          "time": 92.285622,
          "velocity": 0.47244094488188976
        },
        {
          "duration": 0.14285699999999224,
          "durationTicks": 48,
          "midi": 70,
          "name": "A#4",
          "ticks": 31056,
          "time": 92.42847900000001,
          "velocity": 0.47244094488188976
        },
        {
          "duration": 0.14285700000000645,
          "durationTicks": 48,
          "midi": 69,
          "name": "A4",
          "ticks": 31104,
          "time": 92.571336,
          "velocity": 0.47244094488188976
        },
        {
          "duration": 0.14285699999999224,
          "durationTicks": 48,
          "midi": 70,
          "name": "A#4",
          "ticks": 31152,
          "time": 92.71419300000001,
          "velocity": 0.47244094488188976
        },
        {
          "duration": 0.14285700000000645,
          "durationTicks": 48,
          "midi": 69,
          "name": "A4",
          "ticks": 31200,
          "time": 92.85705,
          "velocity": 0.47244094488188976
        },
        {
          "duration": 0.14285700000000645,
          "durationTicks": 48,
          "midi": 70,
          "name": "A#4",
          "ticks": 31248,
          "time": 92.99990700000001,
          "velocity": 0.47244094488188976
        },
        {
          "duration": 0.14285700000000645,
          "durationTicks": 48,
          "midi": 70,
          "name": "A#4",
          "ticks": 31344,
          "time": 93.285621,
          "velocity": 0.47244094488188976
        },
        {
          "duration": 0.14285700000000645,
          "durationTicks": 48,
          "midi": 70,
          "name": "A#4",
          "ticks": 31440,
          "time": 93.571335,
          "velocity": 0.47244094488188976
        },
        {
          "duration": 0.14285699999999224,
          "durationTicks": 48,
          "midi": 69,
          "name": "A4",
          "ticks": 31488,
          "time": 93.71419200000001,
          "velocity": 0.47244094488188976
        },
        {
          "duration": 0.14285700000000645,
          "durationTicks": 48,
          "midi": 70,
          "name": "A#4",
          "ticks": 31536,
          "time": 93.857049,
          "velocity": 0.47244094488188976
        },
        {
          "duration": 0.14285699999999224,
          "durationTicks": 48,
          "midi": 69,
          "name": "A4",
          "ticks": 31584,
          "time": 93.99990600000001,
          "velocity": 0.47244094488188976
        },
        {
          "duration": 0.14285700000000645,
          "durationTicks": 48,
          "midi": 70,
          "name": "A#4",
          "ticks": 31632,
          "time": 94.142763,
          "velocity": 0.47244094488188976
        },
        {
          "duration": 0.14285699999999224,
          "durationTicks": 48,
          "midi": 69,
          "name": "A4",
          "ticks": 31680,
          "time": 94.28562000000001,
          "velocity": 0.47244094488188976
        },
        {
          "duration": 0.14285700000000645,
          "durationTicks": 48,
          "midi": 70,
          "name": "A#4",
          "ticks": 31728,
          "time": 94.428477,
          "velocity": 0.47244094488188976
        },
        {
          "duration": 0.14285700000000645,
          "durationTicks": 48,
          "midi": 69,
          "name": "A4",
          "ticks": 31776,
          "time": 94.57133400000001,
          "velocity": 0.47244094488188976
        },
        {
          "duration": 0.14285699999999224,
          "durationTicks": 48,
          "midi": 70,
          "name": "A#4",
          "ticks": 31824,
          "time": 94.71419100000001,
          "velocity": 0.47244094488188976
        },
        {
          "duration": 0.14285700000000645,
          "durationTicks": 48,
          "midi": 69,
          "name": "A4",
          "ticks": 31872,
          "time": 94.857048,
          "velocity": 0.47244094488188976
        },
        {
          "duration": 0.14285699999999224,
          "durationTicks": 48,
          "midi": 70,
          "name": "A#4",
          "ticks": 31920,
          "time": 94.99990500000001,
          "velocity": 0.47244094488188976
        },
        {
          "duration": 0.14285700000000645,
          "durationTicks": 48,
          "midi": 69,
          "name": "A4",
          "ticks": 31968,
          "time": 95.142762,
          "velocity": 0.47244094488188976
        },
        {
          "duration": 0.14285699999999224,
          "durationTicks": 48,
          "midi": 70,
          "name": "A#4",
          "ticks": 32016,
          "time": 95.28561900000001,
          "velocity": 0.47244094488188976
        },
        {
          "duration": 0.14285700000000645,
          "durationTicks": 48,
          "midi": 69,
          "name": "A4",
          "ticks": 32064,
          "time": 95.428476,
          "velocity": 0.47244094488188976
        },
        {
          "duration": 0.14285699999999224,
          "durationTicks": 48,
          "midi": 70,
          "name": "A#4",
          "ticks": 32112,
          "time": 95.57133300000001,
          "velocity": 0.47244094488188976
        },
        {
          "duration": 0.14285700000000645,
          "durationTicks": 48,
          "midi": 69,
          "name": "A4",
          "ticks": 32160,
          "time": 95.71419,
          "velocity": 0.47244094488188976
        },
        {
          "duration": 0.14285700000000645,
          "durationTicks": 48,
          "midi": 70,
          "name": "A#4",
          "ticks": 32208,
          "time": 95.85704700000001,
          "velocity": 0.47244094488188976
        },
        {
          "duration": 0.14285699999999224,
          "durationTicks": 48,
          "midi": 69,
          "name": "A4",
          "ticks": 32256,
          "time": 95.99990400000002,
          "velocity": 0.47244094488188976
        },
        {
          "duration": 0.14285700000000645,
          "durationTicks": 48,
          "midi": 70,
          "name": "A#4",
          "ticks": 32304,
          "time": 96.14276100000001,
          "velocity": 0.47244094488188976
        },
        {
          "duration": 0.14285699999999224,
          "durationTicks": 48,
          "midi": 69,
          "name": "A4",
          "ticks": 32352,
          "time": 96.28561800000001,
          "velocity": 0.47244094488188976
        },
        {
          "duration": 0.14285700000000645,
          "durationTicks": 48,
          "midi": 70,
          "name": "A#4",
          "ticks": 32400,
          "time": 96.428475,
          "velocity": 0.47244094488188976
        },
        {
          "duration": 0.14285699999999224,
          "durationTicks": 48,
          "midi": 69,
          "name": "A4",
          "ticks": 32448,
          "time": 96.57133200000001,
          "velocity": 0.47244094488188976
        },
        {
          "duration": 0.14285700000000645,
          "durationTicks": 48,
          "midi": 70,
          "name": "A#4",
          "ticks": 32496,
          "time": 96.714189,
          "velocity": 0.47244094488188976
        },
        {
          "duration": 0.14285699999999224,
          "durationTicks": 48,
          "midi": 69,
          "name": "A4",
          "ticks": 32544,
          "time": 96.85704600000001,
          "velocity": 0.47244094488188976
        },
        {
          "duration": 0.14285700000000645,
          "durationTicks": 48,
          "midi": 70,
          "name": "A#4",
          "ticks": 32592,
          "time": 96.999903,
          "velocity": 0.47244094488188976
        },
        {
          "duration": 0.14285699999999224,
          "durationTicks": 48,
          "midi": 69,
          "name": "A4",
          "ticks": 32640,
          "time": 97.14276000000001,
          "velocity": 0.47244094488188976
        },
        {
          "duration": 0.14285700000000645,
          "durationTicks": 48,
          "midi": 70,
          "name": "A#4",
          "ticks": 32688,
          "time": 97.285617,
          "velocity": 0.47244094488188976
        },
        {
          "duration": 0.14285700000000645,
          "durationTicks": 48,
          "midi": 69,
          "name": "A4",
          "ticks": 32736,
          "time": 97.42847400000001,
          "velocity": 0.47244094488188976
        },
        {
          "duration": 0.14285699999999224,
          "durationTicks": 48,
          "midi": 70,
          "name": "A#4",
          "ticks": 32784,
          "time": 97.57133100000001,
          "velocity": 0.47244094488188976
        },
        {
          "duration": 0.14285700000000645,
          "durationTicks": 48,
          "midi": 69,
          "name": "A4",
          "ticks": 32832,
          "time": 97.71418800000001,
          "velocity": 0.47244094488188976
        },
        {
          "duration": 0.14285699999999224,
          "durationTicks": 48,
          "midi": 70,
          "name": "A#4",
          "ticks": 32880,
          "time": 97.85704500000001,
          "velocity": 0.47244094488188976
        },
        {
          "duration": 0.14285700000000645,
          "durationTicks": 48,
          "midi": 69,
          "name": "A4",
          "ticks": 32928,
          "time": 97.999902,
          "velocity": 0.47244094488188976
        },
        {
          "duration": 0.14285699999999224,
          "durationTicks": 48,
          "midi": 70,
          "name": "A#4",
          "ticks": 32976,
          "time": 98.14275900000001,
          "velocity": 0.47244094488188976
        },
        {
          "duration": 0.14285700000000645,
          "durationTicks": 48,
          "midi": 69,
          "name": "A4",
          "ticks": 33024,
          "time": 98.285616,
          "velocity": 0.47244094488188976
        },
        {
          "duration": 0.14285699999999224,
          "durationTicks": 48,
          "midi": 70,
          "name": "A#4",
          "ticks": 33072,
          "time": 98.42847300000001,
          "velocity": 0.47244094488188976
        },
        {
          "duration": 0.14285700000000645,
          "durationTicks": 48,
          "midi": 69,
          "name": "A4",
          "ticks": 33120,
          "time": 98.57133,
          "velocity": 0.47244094488188976
        },
        {
          "duration": 0.14285699999999224,
          "durationTicks": 48,
          "midi": 70,
          "name": "A#4",
          "ticks": 33168,
          "time": 98.71418700000001,
          "velocity": 0.47244094488188976
        },
        {
          "duration": 0.14285700000000645,
          "durationTicks": 48,
          "midi": 69,
          "name": "A4",
          "ticks": 33216,
          "time": 98.857044,
          "velocity": 0.47244094488188976
        },
        {
          "duration": 0.14285700000000645,
          "durationTicks": 48,
          "midi": 70,
          "name": "A#4",
          "ticks": 33264,
          "time": 98.99990100000001,
          "velocity": 0.47244094488188976
        },
        {
          "duration": 0.14285699999999224,
          "durationTicks": 48,
          "midi": 69,
          "name": "A4",
          "ticks": 33312,
          "time": 99.14275800000001,
          "velocity": 0.47244094488188976
        },
        {
          "duration": 0.14285700000000645,
          "durationTicks": 48,
          "midi": 70,
          "name": "A#4",
          "ticks": 33360,
          "time": 99.285615,
          "velocity": 0.47244094488188976
        },
        {
          "duration": 0.14285699999999224,
          "durationTicks": 48,
          "midi": 69,
          "name": "A4",
          "ticks": 33408,
          "time": 99.42847200000001,
          "velocity": 0.47244094488188976
        },
        {
          "duration": 0.14285700000000645,
          "durationTicks": 48,
          "midi": 70,
          "name": "A#4",
          "ticks": 33456,
          "time": 99.571329,
          "velocity": 0.47244094488188976
        },
        {
          "duration": 0.14285699999999224,
          "durationTicks": 48,
          "midi": 69,
          "name": "A4",
          "ticks": 33504,
          "time": 99.71418600000001,
          "velocity": 0.47244094488188976
        },
        {
          "duration": 0.14285700000000645,
          "durationTicks": 48,
          "midi": 70,
          "name": "A#4",
          "ticks": 33552,
          "time": 99.857043,
          "velocity": 0.47244094488188976
        },
        {
          "duration": 0.14285699999999224,
          "durationTicks": 48,
          "midi": 69,
          "name": "A4",
          "ticks": 33600,
          "time": 99.99990000000001,
          "velocity": 0.47244094488188976
        },
        {
          "duration": 0.14285700000000645,
          "durationTicks": 48,
          "midi": 70,
          "name": "A#4",
          "ticks": 33648,
          "time": 100.142757,
          "velocity": 0.47244094488188976
        },
        {
          "duration": 0.14285699999999224,
          "durationTicks": 48,
          "midi": 69,
          "name": "A4",
          "ticks": 33696,
          "time": 100.28561400000001,
          "velocity": 0.47244094488188976
        },
        {
          "duration": 0.14285700000000645,
          "durationTicks": 48,
          "midi": 70,
          "name": "A#4",
          "ticks": 33744,
          "time": 100.428471,
          "velocity": 0.47244094488188976
        },
        {
          "duration": 0.14285700000000645,
          "durationTicks": 48,
          "midi": 69,
          "name": "A4",
          "ticks": 33792,
          "time": 100.57132800000001,
          "velocity": 0.47244094488188976
        },
        {
          "duration": 0.14285699999999224,
          "durationTicks": 48,
          "midi": 70,
          "name": "A#4",
          "ticks": 33840,
          "time": 100.71418500000001,
          "velocity": 0.47244094488188976
        },
        {
          "duration": 0.14285700000000645,
          "durationTicks": 48,
          "midi": 69,
          "name": "A4",
          "ticks": 33888,
          "time": 100.857042,
          "velocity": 0.47244094488188976
        },
        {
          "duration": 0.14285699999999224,
          "durationTicks": 48,
          "midi": 70,
          "name": "A#4",
          "ticks": 33936,
          "time": 100.99989900000001,
          "velocity": 0.47244094488188976
        },
        {
          "duration": 0.14285700000000645,
          "durationTicks": 48,
          "midi": 69,
          "name": "A4",
          "ticks": 33984,
          "time": 101.142756,
          "velocity": 0.47244094488188976
        },
        {
          "duration": 0.14285699999999224,
          "durationTicks": 48,
          "midi": 70,
          "name": "A#4",
          "ticks": 34032,
          "time": 101.28561300000001,
          "velocity": 0.47244094488188976
        },
        {
          "duration": 0.14285700000000645,
          "durationTicks": 48,
          "midi": 69,
          "name": "A4",
          "ticks": 34080,
          "time": 101.42847,
          "velocity": 0.47244094488188976
        },
        {
          "duration": 0.14285699999999224,
          "durationTicks": 48,
          "midi": 70,
          "name": "A#4",
          "ticks": 34128,
          "time": 101.57132700000001,
          "velocity": 0.47244094488188976
        },
        {
          "duration": 0.14285700000000645,
          "durationTicks": 48,
          "midi": 69,
          "name": "A4",
          "ticks": 34176,
          "time": 101.714184,
          "velocity": 0.47244094488188976
        },
        {
          "duration": 0.14285699999999224,
          "durationTicks": 48,
          "midi": 70,
          "name": "A#4",
          "ticks": 34224,
          "time": 101.85704100000001,
          "velocity": 0.47244094488188976
        },
        {
          "duration": 0.14285700000000645,
          "durationTicks": 48,
          "midi": 69,
          "name": "A4",
          "ticks": 34272,
          "time": 101.999898,
          "velocity": 0.47244094488188976
        },
        {
          "duration": 0.14285700000000645,
          "durationTicks": 48,
          "midi": 70,
          "name": "A#4",
          "ticks": 34320,
          "time": 102.14275500000001,
          "velocity": 0.47244094488188976
        },
        {
          "duration": 0.14285699999999224,
          "durationTicks": 48,
          "midi": 69,
          "name": "A4",
          "ticks": 34368,
          "time": 102.28561200000001,
          "velocity": 0.47244094488188976
        },
        {
          "duration": 0.14285700000000645,
          "durationTicks": 48,
          "midi": 70,
          "name": "A#4",
          "ticks": 34416,
          "time": 102.428469,
          "velocity": 0.47244094488188976
        },
        {
          "duration": 0.14285699999999224,
          "durationTicks": 48,
          "midi": 69,
          "name": "A4",
          "ticks": 34464,
          "time": 102.57132600000001,
          "velocity": 0.47244094488188976
        },
        {
          "duration": 0.14285700000000645,
          "durationTicks": 48,
          "midi": 70,
          "name": "A#4",
          "ticks": 34512,
          "time": 102.714183,
          "velocity": 0.47244094488188976
        },
        {
          "duration": 0.14285699999999224,
          "durationTicks": 48,
          "midi": 69,
          "name": "A4",
          "ticks": 34560,
          "time": 102.85704000000001,
          "velocity": 0.47244094488188976
        },
        {
          "duration": 0.14285700000000645,
          "durationTicks": 48,
          "midi": 70,
          "name": "A#4",
          "ticks": 34608,
          "time": 102.999897,
          "velocity": 0.47244094488188976
        },
        {
          "duration": 0.14285699999999224,
          "durationTicks": 48,
          "midi": 69,
          "name": "A4",
          "ticks": 34656,
          "time": 103.14275400000001,
          "velocity": 0.47244094488188976
        },
        {
          "duration": 0.14285700000000645,
          "durationTicks": 48,
          "midi": 70,
          "name": "A#4",
          "ticks": 34704,
          "time": 103.285611,
          "velocity": 0.47244094488188976
        },
        {
          "duration": 0.14285699999999224,
          "durationTicks": 48,
          "midi": 69,
          "name": "A4",
          "ticks": 34752,
          "time": 103.42846800000001,
          "velocity": 0.47244094488188976
        },
        {
          "duration": 0.14285700000000645,
          "durationTicks": 48,
          "midi": 70,
          "name": "A#4",
          "ticks": 34800,
          "time": 103.571325,
          "velocity": 0.47244094488188976
        },
        {
          "duration": 0.14285700000000645,
          "durationTicks": 48,
          "midi": 69,
          "name": "A4",
          "ticks": 34848,
          "time": 103.71418200000001,
          "velocity": 0.47244094488188976
        },
        {
          "duration": 0.14285699999999224,
          "durationTicks": 48,
          "midi": 70,
          "name": "A#4",
          "ticks": 34896,
          "time": 103.85703900000001,
          "velocity": 0.47244094488188976
        },
        {
          "duration": 0.14285700000000645,
          "durationTicks": 48,
          "midi": 69,
          "name": "A4",
          "ticks": 34944,
          "time": 103.999896,
          "velocity": 0.47244094488188976
        },
        {
          "duration": 0.14285699999999224,
          "durationTicks": 48,
          "midi": 70,
          "name": "A#4",
          "ticks": 34992,
          "time": 104.14275300000001,
          "velocity": 0.47244094488188976
        },
        {
          "duration": 0.14285700000000645,
          "durationTicks": 48,
          "midi": 69,
          "name": "A4",
          "ticks": 35040,
          "time": 104.28561,
          "velocity": 0.47244094488188976
        },
        {
          "duration": 0.14285699999999224,
          "durationTicks": 48,
          "midi": 70,
          "name": "A#4",
          "ticks": 35088,
          "time": 104.42846700000001,
          "velocity": 0.47244094488188976
        },
        {
          "duration": 0.14285700000000645,
          "durationTicks": 48,
          "midi": 69,
          "name": "A4",
          "ticks": 35136,
          "time": 104.571324,
          "velocity": 0.47244094488188976
        },
        {
          "duration": 0.14285699999999224,
          "durationTicks": 48,
          "midi": 70,
          "name": "A#4",
          "ticks": 35184,
          "time": 104.71418100000001,
          "velocity": 0.47244094488188976
        },
        {
          "duration": 0.14285700000000645,
          "durationTicks": 48,
          "midi": 69,
          "name": "A4",
          "ticks": 35232,
          "time": 104.857038,
          "velocity": 0.47244094488188976
        },
        {
          "duration": 0.14285699999999224,
          "durationTicks": 48,
          "midi": 70,
          "name": "A#4",
          "ticks": 35280,
          "time": 104.99989500000001,
          "velocity": 0.47244094488188976
        },
        {
          "duration": 0.14285700000000645,
          "durationTicks": 48,
          "midi": 69,
          "name": "A4",
          "ticks": 35328,
          "time": 105.142752,
          "velocity": 0.47244094488188976
        },
        {
          "duration": 0.14285700000000645,
          "durationTicks": 48,
          "midi": 70,
          "name": "A#4",
          "ticks": 35376,
          "time": 105.28560900000001,
          "velocity": 0.47244094488188976
        },
        {
          "duration": 0.14285699999999224,
          "durationTicks": 48,
          "midi": 69,
          "name": "A4",
          "ticks": 35424,
          "time": 105.42846600000001,
          "velocity": 0.47244094488188976
        },
        {
          "duration": 0.14285700000000645,
          "durationTicks": 48,
          "midi": 70,
          "name": "A#4",
          "ticks": 35472,
          "time": 105.571323,
          "velocity": 0.47244094488188976
        },
        {
          "duration": 0.14285699999999224,
          "durationTicks": 48,
          "midi": 69,
          "name": "A4",
          "ticks": 35520,
          "time": 105.71418000000001,
          "velocity": 0.47244094488188976
        },
        {
          "duration": 0.14285700000000645,
          "durationTicks": 48,
          "midi": 70,
          "name": "A#4",
          "ticks": 35568,
          "time": 105.857037,
          "velocity": 0.47244094488188976
        },
        {
          "duration": 0.14285699999999224,
          "durationTicks": 48,
          "midi": 69,
          "name": "A4",
          "ticks": 35616,
          "time": 105.99989400000001,
          "velocity": 0.47244094488188976
        },
        {
          "duration": 0.14285700000000645,
          "durationTicks": 48,
          "midi": 70,
          "name": "A#4",
          "ticks": 35664,
          "time": 106.142751,
          "velocity": 0.47244094488188976
        },
        {
          "duration": 0.14285699999999224,
          "durationTicks": 48,
          "midi": 69,
          "name": "A4",
          "ticks": 35712,
          "time": 106.28560800000001,
          "velocity": 0.47244094488188976
        },
        {
          "duration": 0.14285700000000645,
          "durationTicks": 48,
          "midi": 70,
          "name": "A#4",
          "ticks": 35760,
          "time": 106.428465,
          "velocity": 0.47244094488188976
        },
        {
          "duration": 0.14285700000000645,
          "durationTicks": 48,
          "midi": 69,
          "name": "A4",
          "ticks": 35808,
          "time": 106.57132200000001,
          "velocity": 0.47244094488188976
        },
        {
          "duration": 0.14285699999999224,
          "durationTicks": 48,
          "midi": 70,
          "name": "A#4",
          "ticks": 35856,
          "time": 106.71417900000002,
          "velocity": 0.47244094488188976
        },
        {
          "duration": 0.14285700000000645,
          "durationTicks": 48,
          "midi": 69,
          "name": "A4",
          "ticks": 35904,
          "time": 106.85703600000001,
          "velocity": 0.47244094488188976
        },
        {
          "duration": 0.14285699999999224,
          "durationTicks": 48,
          "midi": 70,
          "name": "A#4",
          "ticks": 35952,
          "time": 106.99989300000001,
          "velocity": 0.47244094488188976
        },
        {
          "duration": 0.14285700000000645,
          "durationTicks": 48,
          "midi": 69,
          "name": "A4",
          "ticks": 36000,
          "time": 107.14275,
          "velocity": 0.47244094488188976
        },
        {
          "duration": 0.14285699999999224,
          "durationTicks": 48,
          "midi": 70,
          "name": "A#4",
          "ticks": 36048,
          "time": 107.28560700000001,
          "velocity": 0.47244094488188976
        },
        {
          "duration": 0.14285700000000645,
          "durationTicks": 48,
          "midi": 69,
          "name": "A4",
          "ticks": 36096,
          "time": 107.428464,
          "velocity": 0.47244094488188976
        },
        {
          "duration": 0.14285699999999224,
          "durationTicks": 48,
          "midi": 70,
          "name": "A#4",
          "ticks": 36144,
          "time": 107.57132100000001,
          "velocity": 0.47244094488188976
        },
        {
          "duration": 0.14285700000000645,
          "durationTicks": 48,
          "midi": 69,
          "name": "A4",
          "ticks": 36192,
          "time": 107.714178,
          "velocity": 0.47244094488188976
        },
        {
          "duration": 0.14285699999999224,
          "durationTicks": 48,
          "midi": 70,
          "name": "A#4",
          "ticks": 36240,
          "time": 107.85703500000001,
          "velocity": 0.47244094488188976
        },
        {
          "duration": 0.14285700000000645,
          "durationTicks": 48,
          "midi": 69,
          "name": "A4",
          "ticks": 36288,
          "time": 107.999892,
          "velocity": 0.47244094488188976
        },
        {
          "duration": 0.14285700000000645,
          "durationTicks": 48,
          "midi": 70,
          "name": "A#4",
          "ticks": 36336,
          "time": 108.14274900000001,
          "velocity": 0.47244094488188976
        },
        {
          "duration": 0.14285699999999224,
          "durationTicks": 48,
          "midi": 69,
          "name": "A4",
          "ticks": 36384,
          "time": 108.28560600000002,
          "velocity": 0.47244094488188976
        },
        {
          "duration": 0.14285700000000645,
          "durationTicks": 48,
          "midi": 70,
          "name": "A#4",
          "ticks": 36432,
          "time": 108.42846300000001,
          "velocity": 0.47244094488188976
        },
        {
          "duration": 0.14285699999999224,
          "durationTicks": 48,
          "midi": 69,
          "name": "A4",
          "ticks": 36480,
          "time": 108.57132000000001,
          "velocity": 0.47244094488188976
        },
        {
          "duration": 0.14285700000000645,
          "durationTicks": 48,
          "midi": 70,
          "name": "A#4",
          "ticks": 36528,
          "time": 108.714177,
          "velocity": 0.47244094488188976
        },
        {
          "duration": 0.14285699999999224,
          "durationTicks": 48,
          "midi": 69,
          "name": "A4",
          "ticks": 36576,
          "time": 108.85703400000001,
          "velocity": 0.47244094488188976
        },
        {
          "duration": 0.14285700000000645,
          "durationTicks": 48,
          "midi": 70,
          "name": "A#4",
          "ticks": 36624,
          "time": 108.999891,
          "velocity": 0.47244094488188976
        },
        {
          "duration": 0.14285699999999224,
          "durationTicks": 48,
          "midi": 69,
          "name": "A4",
          "ticks": 36672,
          "time": 109.14274800000001,
          "velocity": 0.47244094488188976
        },
        {
          "duration": 0.14285700000000645,
          "durationTicks": 48,
          "midi": 70,
          "name": "A#4",
          "ticks": 36720,
          "time": 109.285605,
          "velocity": 0.47244094488188976
        },
        {
          "duration": 0.14285699999999224,
          "durationTicks": 48,
          "midi": 69,
          "name": "A4",
          "ticks": 36768,
          "time": 109.42846200000001,
          "velocity": 0.47244094488188976
        },
        {
          "duration": 0.14285700000000645,
          "durationTicks": 48,
          "midi": 70,
          "name": "A#4",
          "ticks": 36816,
          "time": 109.571319,
          "velocity": 0.47244094488188976
        },
        {
          "duration": 0.14285700000000645,
          "durationTicks": 48,
          "midi": 69,
          "name": "A4",
          "ticks": 36864,
          "time": 109.71417600000001,
          "velocity": 0.47244094488188976
        },
        {
          "duration": 0.14285699999999224,
          "durationTicks": 48,
          "midi": 70,
          "name": "A#4",
          "ticks": 36912,
          "time": 109.85703300000002,
          "velocity": 0.47244094488188976
        },
        {
          "duration": 0.14285700000000645,
          "durationTicks": 48,
          "midi": 69,
          "name": "A4",
          "ticks": 36960,
          "time": 109.99989000000001,
          "velocity": 0.47244094488188976
        },
        {
          "duration": 0.14285699999999224,
          "durationTicks": 48,
          "midi": 70,
          "name": "A#4",
          "ticks": 37008,
          "time": 110.14274700000001,
          "velocity": 0.47244094488188976
        },
        {
          "duration": 0.14285700000000645,
          "durationTicks": 48,
          "midi": 69,
          "name": "A4",
          "ticks": 37056,
          "time": 110.285604,
          "velocity": 0.47244094488188976
        },
        {
          "duration": 0.14285699999999224,
          "durationTicks": 48,
          "midi": 70,
          "name": "A#4",
          "ticks": 37104,
          "time": 110.42846100000001,
          "velocity": 0.47244094488188976
        },
        {
          "duration": 0.14285700000000645,
          "durationTicks": 48,
          "midi": 69,
          "name": "A4",
          "ticks": 37152,
          "time": 110.571318,
          "velocity": 0.47244094488188976
        },
        {
          "duration": 0.14285699999999224,
          "durationTicks": 48,
          "midi": 70,
          "name": "A#4",
          "ticks": 37200,
          "time": 110.71417500000001,
          "velocity": 0.47244094488188976
        },
        {
          "duration": 0.14285700000000645,
          "durationTicks": 48,
          "midi": 69,
          "name": "A4",
          "ticks": 37248,
          "time": 110.857032,
          "velocity": 0.47244094488188976
        },
        {
          "duration": 0.14285699999999224,
          "durationTicks": 48,
          "midi": 70,
          "name": "A#4",
          "ticks": 37296,
          "time": 110.99988900000001,
          "velocity": 0.47244094488188976
        },
        {
          "duration": 0.14285700000000645,
          "durationTicks": 48,
          "midi": 69,
          "name": "A4",
          "ticks": 37344,
          "time": 111.142746,
          "velocity": 0.47244094488188976
        },
        {
          "duration": 0.14285700000000645,
          "durationTicks": 48,
          "midi": 70,
          "name": "A#4",
          "ticks": 37392,
          "time": 111.28560300000001,
          "velocity": 0.47244094488188976
        },
        {
          "duration": 0.14285699999999224,
          "durationTicks": 48,
          "midi": 69,
          "name": "A4",
          "ticks": 37440,
          "time": 111.42846000000002,
          "velocity": 0.47244094488188976
        },
        {
          "duration": 0.14285700000000645,
          "durationTicks": 48,
          "midi": 70,
          "name": "A#4",
          "ticks": 37488,
          "time": 111.57131700000001,
          "velocity": 0.47244094488188976
        },
        {
          "duration": 0.14285699999999224,
          "durationTicks": 48,
          "midi": 69,
          "name": "A4",
          "ticks": 37536,
          "time": 111.71417400000001,
          "velocity": 0.47244094488188976
        },
        {
          "duration": 0.14285700000000645,
          "durationTicks": 48,
          "midi": 70,
          "name": "A#4",
          "ticks": 37584,
          "time": 111.857031,
          "velocity": 0.47244094488188976
        },
        {
          "duration": 0.14285699999999224,
          "durationTicks": 48,
          "midi": 69,
          "name": "A4",
          "ticks": 37632,
          "time": 111.99988800000001,
          "velocity": 0.47244094488188976
        },
        {
          "duration": 0.14285700000000645,
          "durationTicks": 48,
          "midi": 70,
          "name": "A#4",
          "ticks": 37680,
          "time": 112.142745,
          "velocity": 0.47244094488188976
        },
        {
          "duration": 0.14285699999999224,
          "durationTicks": 48,
          "midi": 69,
          "name": "A4",
          "ticks": 37728,
          "time": 112.28560200000001,
          "velocity": 0.47244094488188976
        },
        {
          "duration": 0.14285700000000645,
          "durationTicks": 48,
          "midi": 70,
          "name": "A#4",
          "ticks": 37776,
          "time": 112.428459,
          "velocity": 0.47244094488188976
        },
        {
          "duration": 0.14285699999999224,
          "durationTicks": 48,
          "midi": 69,
          "name": "A4",
          "ticks": 37824,
          "time": 112.57131600000001,
          "velocity": 0.47244094488188976
        },
        {
          "duration": 0.14285700000000645,
          "durationTicks": 48,
          "midi": 70,
          "name": "A#4",
          "ticks": 37872,
          "time": 112.714173,
          "velocity": 0.47244094488188976
        },
        {
          "duration": 0.14285700000000645,
          "durationTicks": 48,
          "midi": 69,
          "name": "A4",
          "ticks": 37920,
          "time": 112.85703000000001,
          "velocity": 0.47244094488188976
        },
        {
          "duration": 0.14285699999999224,
          "durationTicks": 48,
          "midi": 70,
          "name": "A#4",
          "ticks": 37968,
          "time": 112.99988700000002,
          "velocity": 0.47244094488188976
        },
        {
          "duration": 0.14285700000000645,
          "durationTicks": 48,
          "midi": 69,
          "name": "A4",
          "ticks": 38016,
          "time": 113.14274400000001,
          "velocity": 0.47244094488188976
        },
        {
          "duration": 0.14285699999999224,
          "durationTicks": 48,
          "midi": 70,
          "name": "A#4",
          "ticks": 38064,
          "time": 113.28560100000001,
          "velocity": 0.47244094488188976
        },
        {
          "duration": 0.14285700000000645,
          "durationTicks": 48,
          "midi": 69,
          "name": "A4",
          "ticks": 38112,
          "time": 113.428458,
          "velocity": 0.47244094488188976
        },
        {
          "duration": 0.14285699999999224,
          "durationTicks": 48,
          "midi": 70,
          "name": "A#4",
          "ticks": 38160,
          "time": 113.57131500000001,
          "velocity": 0.47244094488188976
        },
        {
          "duration": 0.14285699999999224,
          "durationTicks": 48,
          "midi": 70,
          "name": "A#4",
          "ticks": 38256,
          "time": 113.85702900000001,
          "velocity": 0.47244094488188976
        },
        {
          "duration": 0.14285700000000645,
          "durationTicks": 48,
          "midi": 70,
          "name": "A#4",
          "ticks": 38352,
          "time": 114.14274300000001,
          "velocity": 0.47244094488188976
        },
        {
          "duration": 0.14285699999999224,
          "durationTicks": 48,
          "midi": 69,
          "name": "A4",
          "ticks": 38400,
          "time": 114.28560000000002,
          "velocity": 0.47244094488188976
        },
        {
          "duration": 0.14285700000000645,
          "durationTicks": 48,
          "midi": 70,
          "name": "A#4",
          "ticks": 38448,
          "time": 114.42845700000001,
          "velocity": 0.47244094488188976
        },
        {
          "duration": 0.14285699999999224,
          "durationTicks": 48,
          "midi": 69,
          "name": "A4",
          "ticks": 38496,
          "time": 114.57131400000002,
          "velocity": 0.47244094488188976
        },
        {
          "duration": 0.14285700000000645,
          "durationTicks": 48,
          "midi": 70,
          "name": "A#4",
          "ticks": 38544,
          "time": 114.71417100000001,
          "velocity": 0.47244094488188976
        },
        {
          "duration": 0.14285699999999224,
          "durationTicks": 48,
          "midi": 69,
          "name": "A4",
          "ticks": 38592,
          "time": 114.85702800000001,
          "velocity": 0.47244094488188976
        },
        {
          "duration": 0.14285700000000645,
          "durationTicks": 48,
          "midi": 70,
          "name": "A#4",
          "ticks": 38640,
          "time": 114.999885,
          "velocity": 0.47244094488188976
        },
        {
          "duration": 0.14285699999999224,
          "durationTicks": 48,
          "midi": 69,
          "name": "A4",
          "ticks": 38688,
          "time": 115.14274200000001,
          "velocity": 0.47244094488188976
        },
        {
          "duration": 0.14285700000000645,
          "durationTicks": 48,
          "midi": 70,
          "name": "A#4",
          "ticks": 38736,
          "time": 115.285599,
          "velocity": 0.47244094488188976
        },
        {
          "duration": 0.14285699999999224,
          "durationTicks": 48,
          "midi": 69,
          "name": "A4",
          "ticks": 38784,
          "time": 115.42845600000001,
          "velocity": 0.47244094488188976
        },
        {
          "duration": 0.14285700000000645,
          "durationTicks": 48,
          "midi": 70,
          "name": "A#4",
          "ticks": 38832,
          "time": 115.571313,
          "velocity": 0.47244094488188976
        },
        {
          "duration": 0.14285700000000645,
          "durationTicks": 48,
          "midi": 69,
          "name": "A4",
          "ticks": 38880,
          "time": 115.71417000000001,
          "velocity": 0.47244094488188976
        },
        {
          "duration": 0.14285699999999224,
          "durationTicks": 48,
          "midi": 70,
          "name": "A#4",
          "ticks": 38928,
          "time": 115.85702700000002,
          "velocity": 0.47244094488188976
        },
        {
          "duration": 0.14285699999999224,
          "durationTicks": 48,
          "midi": 70,
          "name": "A#4",
          "ticks": 39024,
          "time": 116.14274100000002,
          "velocity": 0.47244094488188976
        },
        {
          "duration": 0.14285699999999224,
          "durationTicks": 48,
          "midi": 70,
          "name": "A#4",
          "ticks": 39120,
          "time": 116.42845500000001,
          "velocity": 0.47244094488188976
        },
        {
          "duration": 0.14285700000000645,
          "durationTicks": 48,
          "midi": 69,
          "name": "A4",
          "ticks": 39168,
          "time": 116.571312,
          "velocity": 0.47244094488188976
        },
        {
          "duration": 0.14285699999999224,
          "durationTicks": 48,
          "midi": 70,
          "name": "A#4",
          "ticks": 39216,
          "time": 116.71416900000001,
          "velocity": 0.47244094488188976
        },
        {
          "duration": 0.14285700000000645,
          "durationTicks": 48,
          "midi": 69,
          "name": "A4",
          "ticks": 39264,
          "time": 116.857026,
          "velocity": 0.47244094488188976
        },
        {
          "duration": 0.14285699999999224,
          "durationTicks": 48,
          "midi": 70,
          "name": "A#4",
          "ticks": 39312,
          "time": 116.99988300000001,
          "velocity": 0.47244094488188976
        },
        {
          "duration": 0.14285700000000645,
          "durationTicks": 48,
          "midi": 69,
          "name": "A4",
          "ticks": 39360,
          "time": 117.14274,
          "velocity": 0.47244094488188976
        },
        {
          "duration": 0.14285700000000645,
          "durationTicks": 48,
          "midi": 70,
          "name": "A#4",
          "ticks": 39408,
          "time": 117.28559700000001,
          "velocity": 0.47244094488188976
        },
        {
          "duration": 0.14285699999999224,
          "durationTicks": 48,
          "midi": 69,
          "name": "A4",
          "ticks": 39456,
          "time": 117.42845400000002,
          "velocity": 0.47244094488188976
        },
        {
          "duration": 0.14285700000000645,
          "durationTicks": 48,
          "midi": 70,
          "name": "A#4",
          "ticks": 39504,
          "time": 117.57131100000001,
          "velocity": 0.47244094488188976
        },
        {
          "duration": 0.14285699999999224,
          "durationTicks": 48,
          "midi": 69,
          "name": "A4",
          "ticks": 39552,
          "time": 117.71416800000002,
          "velocity": 0.47244094488188976
        },
        {
          "duration": 0.14285700000000645,
          "durationTicks": 48,
          "midi": 70,
          "name": "A#4",
          "ticks": 39600,
          "time": 117.85702500000001,
          "velocity": 0.47244094488188976
        },
        {
          "duration": 0.14285699999999224,
          "durationTicks": 48,
          "midi": 69,
          "name": "A4",
          "ticks": 39648,
          "time": 117.99988200000001,
          "velocity": 0.47244094488188976
        },
        {
          "duration": 0.14285700000000645,
          "durationTicks": 48,
          "midi": 70,
          "name": "A#4",
          "ticks": 39696,
          "time": 118.142739,
          "velocity": 0.47244094488188976
        },
        {
          "duration": 0.14285700000000645,
          "durationTicks": 48,
          "midi": 70,
          "name": "A#4",
          "ticks": 39792,
          "time": 118.428453,
          "velocity": 0.47244094488188976
        },
        {
          "duration": 0.14285700000000645,
          "durationTicks": 48,
          "midi": 70,
          "name": "A#4",
          "ticks": 39888,
          "time": 118.714167,
          "velocity": 0.47244094488188976
        },
        {
          "duration": 0.14285700000000645,
          "durationTicks": 48,
          "midi": 69,
          "name": "A4",
          "ticks": 39936,
          "time": 118.85702400000001,
          "velocity": 0.47244094488188976
        },
        {
          "duration": 0.14285699999999224,
          "durationTicks": 48,
          "midi": 70,
          "name": "A#4",
          "ticks": 39984,
          "time": 118.99988100000002,
          "velocity": 0.47244094488188976
        },
        {
          "duration": 0.14285700000000645,
          "durationTicks": 48,
          "midi": 69,
          "name": "A4",
          "ticks": 40032,
          "time": 119.14273800000001,
          "velocity": 0.47244094488188976
        },
        {
          "duration": 0.14285699999999224,
          "durationTicks": 48,
          "midi": 70,
          "name": "A#4",
          "ticks": 40080,
          "time": 119.28559500000001,
          "velocity": 0.47244094488188976
        },
        {
          "duration": 0.14285700000000645,
          "durationTicks": 48,
          "midi": 69,
          "name": "A4",
          "ticks": 40128,
          "time": 119.42845200000001,
          "velocity": 0.47244094488188976
        },
        {
          "duration": 0.14285699999999224,
          "durationTicks": 48,
          "midi": 70,
          "name": "A#4",
          "ticks": 40176,
          "time": 119.57130900000001,
          "velocity": 0.47244094488188976
        },
        {
          "duration": 0.14285700000000645,
          "durationTicks": 48,
          "midi": 69,
          "name": "A4",
          "ticks": 40224,
          "time": 119.714166,
          "velocity": 0.47244094488188976
        },
        {
          "duration": 0.14285699999999224,
          "durationTicks": 48,
          "midi": 70,
          "name": "A#4",
          "ticks": 40272,
          "time": 119.85702300000001,
          "velocity": 0.47244094488188976
        },
        {
          "duration": 0.14285700000000645,
          "durationTicks": 48,
          "midi": 69,
          "name": "A4",
          "ticks": 40320,
          "time": 119.99988,
          "velocity": 0.47244094488188976
        },
        {
          "duration": 0.14285699999999224,
          "durationTicks": 48,
          "midi": 70,
          "name": "A#4",
          "ticks": 40368,
          "time": 120.14273700000001,
          "velocity": 0.47244094488188976
        },
        {
          "duration": 0.14285700000000645,
          "durationTicks": 48,
          "midi": 69,
          "name": "A4",
          "ticks": 40416,
          "time": 120.285594,
          "velocity": 0.47244094488188976
        },
        {
          "duration": 0.14285700000000645,
          "durationTicks": 48,
          "midi": 70,
          "name": "A#4",
          "ticks": 40464,
          "time": 120.42845100000001,
          "velocity": 0.47244094488188976
        },
        {
          "duration": 0.14285700000000645,
          "durationTicks": 48,
          "midi": 70,
          "name": "A#4",
          "ticks": 40560,
          "time": 120.71416500000001,
          "velocity": 0.47244094488188976
        },
        {
          "duration": 0.14285700000000645,
          "durationTicks": 48,
          "midi": 70,
          "name": "A#4",
          "ticks": 40656,
          "time": 120.999879,
          "velocity": 0.47244094488188976
        },
        {
          "duration": 0.14285699999999224,
          "durationTicks": 48,
          "midi": 69,
          "name": "A4",
          "ticks": 40704,
          "time": 121.14273600000001,
          "velocity": 0.47244094488188976
        },
        {
          "duration": 0.14285700000000645,
          "durationTicks": 48,
          "midi": 70,
          "name": "A#4",
          "ticks": 40752,
          "time": 121.285593,
          "velocity": 0.47244094488188976
        },
        {
          "duration": 0.14285699999999224,
          "durationTicks": 48,
          "midi": 69,
          "name": "A4",
          "ticks": 40800,
          "time": 121.42845000000001,
          "velocity": 0.47244094488188976
        },
        {
          "duration": 0.14285700000000645,
          "durationTicks": 48,
          "midi": 70,
          "name": "A#4",
          "ticks": 40848,
          "time": 121.571307,
          "velocity": 0.47244094488188976
        },
        {
          "duration": 0.14285699999999224,
          "durationTicks": 48,
          "midi": 69,
          "name": "A4",
          "ticks": 40896,
          "time": 121.71416400000001,
          "velocity": 0.47244094488188976
        },
        {
          "duration": 0.14285700000000645,
          "durationTicks": 48,
          "midi": 70,
          "name": "A#4",
          "ticks": 40944,
          "time": 121.857021,
          "velocity": 0.47244094488188976
        },
        {
          "duration": 0.14285700000000645,
          "durationTicks": 48,
          "midi": 69,
          "name": "A4",
          "ticks": 40992,
          "time": 121.99987800000001,
          "velocity": 0.47244094488188976
        },
        {
          "duration": 0.14285699999999224,
          "durationTicks": 48,
          "midi": 70,
          "name": "A#4",
          "ticks": 41040,
          "time": 122.14273500000002,
          "velocity": 0.47244094488188976
        },
        {
          "duration": 0.14285700000000645,
          "durationTicks": 48,
          "midi": 69,
          "name": "A4",
          "ticks": 41088,
          "time": 122.28559200000001,
          "velocity": 0.47244094488188976
        },
        {
          "duration": 0.14285699999999224,
          "durationTicks": 48,
          "midi": 70,
          "name": "A#4",
          "ticks": 41136,
          "time": 122.42844900000001,
          "velocity": 0.47244094488188976
        },
        {
          "duration": 0.14285700000000645,
          "durationTicks": 48,
          "midi": 69,
          "name": "A4",
          "ticks": 41184,
          "time": 122.571306,
          "velocity": 0.47244094488188976
        },
        {
          "duration": 0.14285699999999224,
          "durationTicks": 48,
          "midi": 70,
          "name": "A#4",
          "ticks": 41232,
          "time": 122.71416300000001,
          "velocity": 0.47244094488188976
        },
        {
          "duration": 0.14285699999999224,
          "durationTicks": 48,
          "midi": 70,
          "name": "A#4",
          "ticks": 41328,
          "time": 122.99987700000001,
          "velocity": 0.47244094488188976
        },
        {
          "duration": 0.14285699999999224,
          "durationTicks": 48,
          "midi": 70,
          "name": "A#4",
          "ticks": 41424,
          "time": 123.28559100000001,
          "velocity": 0.47244094488188976
        },
        {
          "duration": 0.14285700000000645,
          "durationTicks": 48,
          "midi": 69,
          "name": "A4",
          "ticks": 41472,
          "time": 123.428448,
          "velocity": 0.47244094488188976
        },
        {
          "duration": 0.14285700000000645,
          "durationTicks": 48,
          "midi": 70,
          "name": "A#4",
          "ticks": 41520,
          "time": 123.57130500000001,
          "velocity": 0.47244094488188976
        },
        {
          "duration": 0.14285699999999224,
          "durationTicks": 48,
          "midi": 69,
          "name": "A4",
          "ticks": 41568,
          "time": 123.71416200000002,
          "velocity": 0.47244094488188976
        },
        {
          "duration": 0.14285700000000645,
          "durationTicks": 48,
          "midi": 70,
          "name": "A#4",
          "ticks": 41616,
          "time": 123.85701900000001,
          "velocity": 0.47244094488188976
        },
        {
          "duration": 0.14285699999999224,
          "durationTicks": 48,
          "midi": 69,
          "name": "A4",
          "ticks": 41664,
          "time": 123.99987600000001,
          "velocity": 0.47244094488188976
        },
        {
          "duration": 0.14285700000000645,
          "durationTicks": 48,
          "midi": 70,
          "name": "A#4",
          "ticks": 41712,
          "time": 124.142733,
          "velocity": 0.47244094488188976
        },
        {
          "duration": 0.14285699999999224,
          "durationTicks": 48,
          "midi": 69,
          "name": "A4",
          "ticks": 41760,
          "time": 124.28559000000001,
          "velocity": 0.47244094488188976
        },
        {
          "duration": 0.14285700000000645,
          "durationTicks": 48,
          "midi": 70,
          "name": "A#4",
          "ticks": 41808,
          "time": 124.428447,
          "velocity": 0.47244094488188976
        },
        {
          "duration": 0.14285699999999224,
          "durationTicks": 48,
          "midi": 69,
          "name": "A4",
          "ticks": 41856,
          "time": 124.57130400000001,
          "velocity": 0.47244094488188976
        },
        {
          "duration": 0.14285700000000645,
          "durationTicks": 48,
          "midi": 70,
          "name": "A#4",
          "ticks": 41904,
          "time": 124.714161,
          "velocity": 0.47244094488188976
        },
        {
          "duration": 0.14285700000000645,
          "durationTicks": 48,
          "midi": 69,
          "name": "A4",
          "ticks": 41952,
          "time": 124.85701800000001,
          "velocity": 0.47244094488188976
        },
        {
          "duration": 0.14285699999999224,
          "durationTicks": 48,
          "midi": 70,
          "name": "A#4",
          "ticks": 42000,
          "time": 124.99987500000002,
          "velocity": 0.47244094488188976
        },
        {
          "duration": 0.14285699999999224,
          "durationTicks": 48,
          "midi": 70,
          "name": "A#4",
          "ticks": 42096,
          "time": 125.28558900000002,
          "velocity": 0.47244094488188976
        },
        {
          "duration": 0.14285699999999224,
          "durationTicks": 48,
          "midi": 70,
          "name": "A#4",
          "ticks": 42192,
          "time": 125.57130300000001,
          "velocity": 0.47244094488188976
        },
        {
          "duration": 0.14285700000000645,
          "durationTicks": 48,
          "midi": 69,
          "name": "A4",
          "ticks": 42240,
          "time": 125.71416,
          "velocity": 0.47244094488188976
        },
        {
          "duration": 0.14285699999999224,
          "durationTicks": 48,
          "midi": 70,
          "name": "A#4",
          "ticks": 42288,
          "time": 125.85701700000001,
          "velocity": 0.47244094488188976
        },
        {
          "duration": 0.14285700000000645,
          "durationTicks": 48,
          "midi": 69,
          "name": "A4",
          "ticks": 42336,
          "time": 125.999874,
          "velocity": 0.47244094488188976
        },
        {
          "duration": 0.14285699999999224,
          "durationTicks": 48,
          "midi": 70,
          "name": "A#4",
          "ticks": 42384,
          "time": 126.14273100000001,
          "velocity": 0.47244094488188976
        },
        {
          "duration": 0.14285700000000645,
          "durationTicks": 48,
          "midi": 69,
          "name": "A4",
          "ticks": 42432,
          "time": 126.285588,
          "velocity": 0.47244094488188976
        },
        {
          "duration": 0.14285700000000645,
          "durationTicks": 48,
          "midi": 70,
          "name": "A#4",
          "ticks": 42480,
          "time": 126.42844500000001,
          "velocity": 0.47244094488188976
        },
        {
          "duration": 0.14285699999999224,
          "durationTicks": 48,
          "midi": 69,
          "name": "A4",
          "ticks": 42528,
          "time": 126.57130200000002,
          "velocity": 0.47244094488188976
        },
        {
          "duration": 0.14285700000000645,
          "durationTicks": 48,
          "midi": 70,
          "name": "A#4",
          "ticks": 42576,
          "time": 126.71415900000001,
          "velocity": 0.47244094488188976
        },
        {
          "duration": 0.14285699999999224,
          "durationTicks": 48,
          "midi": 69,
          "name": "A4",
          "ticks": 42624,
          "time": 126.85701600000002,
          "velocity": 0.47244094488188976
        },
        {
          "duration": 0.14285700000000645,
          "durationTicks": 48,
          "midi": 70,
          "name": "A#4",
          "ticks": 42672,
          "time": 126.99987300000001,
          "velocity": 0.47244094488188976
        },
        {
          "duration": 0.14285699999999224,
          "durationTicks": 48,
          "midi": 69,
          "name": "A4",
          "ticks": 42720,
          "time": 127.14273000000001,
          "velocity": 0.47244094488188976
        },
        {
          "duration": 0.14285700000000645,
          "durationTicks": 48,
          "midi": 70,
          "name": "A#4",
          "ticks": 42768,
          "time": 127.285587,
          "velocity": 0.47244094488188976
        },
        {
          "duration": 0.14285700000000645,
          "durationTicks": 48,
          "midi": 70,
          "name": "A#4",
          "ticks": 42864,
          "time": 127.571301,
          "velocity": 0.47244094488188976
        },
        {
          "duration": 0.14285700000000645,
          "durationTicks": 48,
          "midi": 70,
          "name": "A#4",
          "ticks": 42960,
          "time": 127.857015,
          "velocity": 0.47244094488188976
        },
        {
          "duration": 0.14285699999999224,
          "durationTicks": 48,
          "midi": 69,
          "name": "A4",
          "ticks": 43008,
          "time": 127.99987200000001,
          "velocity": 0.47244094488188976
        },
        {
          "duration": 0.14285700000002066,
          "durationTicks": 48,
          "midi": 70,
          "name": "A#4",
          "ticks": 43056,
          "time": 128.142729,
          "velocity": 0.47244094488188976
        },
        {
          "duration": 0.14285699999999224,
          "durationTicks": 48,
          "midi": 69,
          "name": "A4",
          "ticks": 43104,
          "time": 128.28558600000002,
          "velocity": 0.47244094488188976
        },
        {
          "duration": 0.14285699999999224,
          "durationTicks": 48,
          "midi": 70,
          "name": "A#4",
          "ticks": 43152,
          "time": 128.42844300000002,
          "velocity": 0.47244094488188976
        },
        {
          "duration": 0.14285699999999224,
          "durationTicks": 48,
          "midi": 69,
          "name": "A4",
          "ticks": 43200,
          "time": 128.5713,
          "velocity": 0.47244094488188976
        },
        {
          "duration": 0.14285700000002066,
          "durationTicks": 48,
          "midi": 70,
          "name": "A#4",
          "ticks": 43248,
          "time": 128.714157,
          "velocity": 0.47244094488188976
        },
        {
          "duration": 0.14285699999999224,
          "durationTicks": 48,
          "midi": 69,
          "name": "A4",
          "ticks": 43296,
          "time": 128.85701400000002,
          "velocity": 0.47244094488188976
        },
        {
          "duration": 0.14285699999999224,
          "durationTicks": 48,
          "midi": 70,
          "name": "A#4",
          "ticks": 43344,
          "time": 128.999871,
          "velocity": 0.47244094488188976
        },
        {
          "duration": 0.14285699999999224,
          "durationTicks": 48,
          "midi": 69,
          "name": "A4",
          "ticks": 43392,
          "time": 129.142728,
          "velocity": 0.47244094488188976
        },
        {
          "duration": 0.14285700000002066,
          "durationTicks": 48,
          "midi": 70,
          "name": "A#4",
          "ticks": 43440,
          "time": 129.285585,
          "velocity": 0.47244094488188976
        },
        {
          "duration": 0.14285699999999224,
          "durationTicks": 48,
          "midi": 69,
          "name": "A4",
          "ticks": 43488,
          "time": 129.42844200000002,
          "velocity": 0.47244094488188976
        },
        {
          "duration": 0.14285699999999224,
          "durationTicks": 48,
          "midi": 70,
          "name": "A#4",
          "ticks": 43536,
          "time": 129.571299,
          "velocity": 0.47244094488188976
        },
        {
          "duration": 0.14285699999999224,
          "durationTicks": 48,
          "midi": 70,
          "name": "A#4",
          "ticks": 43632,
          "time": 129.85701300000002,
          "velocity": 0.47244094488188976
        },
        {
          "duration": 0.14285699999999224,
          "durationTicks": 48,
          "midi": 70,
          "name": "A#4",
          "ticks": 43728,
          "time": 130.142727,
          "velocity": 0.47244094488188976
        },
        {
          "duration": 0.14285700000002066,
          "durationTicks": 48,
          "midi": 69,
          "name": "A4",
          "ticks": 43776,
          "time": 130.285584,
          "velocity": 0.47244094488188976
        },
        {
          "duration": 0.14285699999999224,
          "durationTicks": 48,
          "midi": 70,
          "name": "A#4",
          "ticks": 43824,
          "time": 130.42844100000002,
          "velocity": 0.47244094488188976
        },
        {
          "duration": 0.14285699999999224,
          "durationTicks": 48,
          "midi": 69,
          "name": "A4",
          "ticks": 43872,
          "time": 130.571298,
          "velocity": 0.47244094488188976
        },
        {
          "duration": 0.14285699999999224,
          "durationTicks": 48,
          "midi": 70,
          "name": "A#4",
          "ticks": 43920,
          "time": 130.714155,
          "velocity": 0.47244094488188976
        },
        {
          "duration": 0.14285700000002066,
          "durationTicks": 48,
          "midi": 69,
          "name": "A4",
          "ticks": 43968,
          "time": 130.857012,
          "velocity": 0.47244094488188976
        },
        {
          "duration": 0.14285699999999224,
          "durationTicks": 48,
          "midi": 70,
          "name": "A#4",
          "ticks": 44016,
          "time": 130.99986900000002,
          "velocity": 0.47244094488188976
        },
        {
          "duration": 0.14285699999999224,
          "durationTicks": 48,
          "midi": 69,
          "name": "A4",
          "ticks": 44064,
          "time": 131.142726,
          "velocity": 0.47244094488188976
        },
        {
          "duration": 0.14285700000002066,
          "durationTicks": 48,
          "midi": 70,
          "name": "A#4",
          "ticks": 44112,
          "time": 131.285583,
          "velocity": 0.47244094488188976
        },
        {
          "duration": 0.14285699999999224,
          "durationTicks": 48,
          "midi": 69,
          "name": "A4",
          "ticks": 44160,
          "time": 131.42844000000002,
          "velocity": 0.47244094488188976
        },
        {
          "duration": 0.14285699999999224,
          "durationTicks": 48,
          "midi": 70,
          "name": "A#4",
          "ticks": 44208,
          "time": 131.57129700000002,
          "velocity": 0.47244094488188976
        },
        {
          "duration": 0.14285699999999224,
          "durationTicks": 48,
          "midi": 69,
          "name": "A4",
          "ticks": 44256,
          "time": 131.714154,
          "velocity": 0.47244094488188976
        },
        {
          "duration": 0.14285700000002066,
          "durationTicks": 48,
          "midi": 70,
          "name": "A#4",
          "ticks": 44304,
          "time": 131.857011,
          "velocity": 0.47244094488188976
        },
        {
          "duration": 0.14285699999999224,
          "durationTicks": 48,
          "midi": 70,
          "name": "A#4",
          "ticks": 44400,
          "time": 132.142725,
          "velocity": 0.47244094488188976
        },
        {
          "duration": 0.14285700000002066,
          "durationTicks": 48,
          "midi": 70,
          "name": "A#4",
          "ticks": 44496,
          "time": 132.428439,
          "velocity": 0.47244094488188976
        },
        {
          "duration": 0.14285699999999224,
          "durationTicks": 48,
          "midi": 69,
          "name": "A4",
          "ticks": 44544,
          "time": 132.57129600000002,
          "velocity": 0.47244094488188976
        },
        {
          "duration": 0.14285699999999224,
          "durationTicks": 48,
          "midi": 70,
          "name": "A#4",
          "ticks": 44592,
          "time": 132.714153,
          "velocity": 0.47244094488188976
        },
        {
          "duration": 0.14285700000002066,
          "durationTicks": 48,
          "midi": 69,
          "name": "A4",
          "ticks": 44640,
          "time": 132.85701,
          "velocity": 0.47244094488188976
        },
        {
          "duration": 0.14285699999999224,
          "durationTicks": 48,
          "midi": 70,
          "name": "A#4",
          "ticks": 44688,
          "time": 132.99986700000002,
          "velocity": 0.47244094488188976
        },
        {
          "duration": 0.14285699999999224,
          "durationTicks": 48,
          "midi": 69,
          "name": "A4",
          "ticks": 44736,
          "time": 133.14272400000002,
          "velocity": 0.47244094488188976
        },
        {
          "duration": 0.14285699999999224,
          "durationTicks": 48,
          "midi": 70,
          "name": "A#4",
          "ticks": 44784,
          "time": 133.285581,
          "velocity": 0.47244094488188976
        },
        {
          "duration": 0.14285700000002066,
          "durationTicks": 48,
          "midi": 69,
          "name": "A4",
          "ticks": 44832,
          "time": 133.428438,
          "velocity": 0.47244094488188976
        },
        {
          "duration": 0.14285699999999224,
          "durationTicks": 48,
          "midi": 70,
          "name": "A#4",
          "ticks": 44880,
          "time": 133.57129500000002,
          "velocity": 0.47244094488188976
        },
        {
          "duration": 0.14285699999999224,
          "durationTicks": 48,
          "midi": 69,
          "name": "A4",
          "ticks": 44928,
          "time": 133.714152,
          "velocity": 0.47244094488188976
        },
        {
          "duration": 0.14285699999999224,
          "durationTicks": 48,
          "midi": 70,
          "name": "A#4",
          "ticks": 44976,
          "time": 133.857009,
          "velocity": 0.47244094488188976
        },
        {
          "duration": 0.14285700000002066,
          "durationTicks": 48,
          "midi": 69,
          "name": "A4",
          "ticks": 45024,
          "time": 133.999866,
          "velocity": 0.47244094488188976
        },
        {
          "duration": 0.14285699999999224,
          "durationTicks": 48,
          "midi": 70,
          "name": "A#4",
          "ticks": 45072,
          "time": 134.14272300000002,
          "velocity": 0.47244094488188976
        },
        {
          "duration": 0.14285700000002066,
          "durationTicks": 48,
          "midi": 70,
          "name": "A#4",
          "ticks": 45168,
          "time": 134.428437,
          "velocity": 0.47244094488188976
        },
        {
          "duration": 0.14285699999999224,
          "durationTicks": 48,
          "midi": 70,
          "name": "A#4",
          "ticks": 45264,
          "time": 134.71415100000002,
          "velocity": 0.47244094488188976
        },
        {
          "duration": 0.14285699999999224,
          "durationTicks": 48,
          "midi": 69,
          "name": "A4",
          "ticks": 45312,
          "time": 134.857008,
          "velocity": 0.47244094488188976
        },
        {
          "duration": 0.14285700000002066,
          "durationTicks": 48,
          "midi": 70,
          "name": "A#4",
          "ticks": 45360,
          "time": 134.999865,
          "velocity": 0.47244094488188976
        },
        {
          "duration": 0.14285699999999224,
          "durationTicks": 48,
          "midi": 69,
          "name": "A4",
          "ticks": 45408,
          "time": 135.14272200000002,
          "velocity": 0.47244094488188976
        },
        {
          "duration": 0.14285699999999224,
          "durationTicks": 48,
          "midi": 70,
          "name": "A#4",
          "ticks": 45456,
          "time": 135.285579,
          "velocity": 0.47244094488188976
        },
        {
          "duration": 0.14285699999999224,
          "durationTicks": 48,
          "midi": 69,
          "name": "A4",
          "ticks": 45504,
          "time": 135.428436,
          "velocity": 0.47244094488188976
        },
        {
          "duration": 0.14285700000002066,
          "durationTicks": 48,
          "midi": 70,
          "name": "A#4",
          "ticks": 45552,
          "time": 135.571293,
          "velocity": 0.47244094488188976
        },
        {
          "duration": 0.14285699999999224,
          "durationTicks": 48,
          "midi": 69,
          "name": "A4",
          "ticks": 45600,
          "time": 135.71415000000002,
          "velocity": 0.47244094488188976
        },
        {
          "duration": 0.14285699999999224,
          "durationTicks": 48,
          "midi": 70,
          "name": "A#4",
          "ticks": 45648,
          "time": 135.857007,
          "velocity": 0.47244094488188976
        },
        {
          "duration": 0.14285700000002066,
          "durationTicks": 48,
          "midi": 69,
          "name": "A4",
          "ticks": 45696,
          "time": 135.999864,
          "velocity": 0.47244094488188976
        },
        {
          "duration": 0.14285699999999224,
          "durationTicks": 48,
          "midi": 70,
          "name": "A#4",
          "ticks": 45744,
          "time": 136.14272100000002,
          "velocity": 0.47244094488188976
        },
        {
          "duration": 0.14285699999999224,
          "durationTicks": 48,
          "midi": 69,
          "name": "A4",
          "ticks": 45792,
          "time": 136.28557800000002,
          "velocity": 0.47244094488188976
        },
        {
          "duration": 0.14285699999999224,
          "durationTicks": 48,
          "midi": 70,
          "name": "A#4",
          "ticks": 45840,
          "time": 136.428435,
          "velocity": 0.47244094488188976
        },
        {
          "duration": 0.14285699999999224,
          "durationTicks": 48,
          "midi": 70,
          "name": "A#4",
          "ticks": 45936,
          "time": 136.71414900000002,
          "velocity": 0.47244094488188976
        },
        {
          "duration": 0.14285699999999224,
          "durationTicks": 48,
          "midi": 70,
          "name": "A#4",
          "ticks": 46032,
          "time": 136.999863,
          "velocity": 0.47244094488188976
        },
        {
          "duration": 0.14285700000002066,
          "durationTicks": 48,
          "midi": 69,
          "name": "A4",
          "ticks": 46080,
          "time": 137.14272,
          "velocity": 0.47244094488188976
        },
        {
          "duration": 0.14285699999999224,
          "durationTicks": 48,
          "midi": 70,
          "name": "A#4",
          "ticks": 46128,
          "time": 137.28557700000002,
          "velocity": 0.47244094488188976
        },
        {
          "duration": 0.14285699999999224,
          "durationTicks": 48,
          "midi": 69,
          "name": "A4",
          "ticks": 46176,
          "time": 137.428434,
          "velocity": 0.47244094488188976
        },
        {
          "duration": 0.14285700000002066,
          "durationTicks": 48,
          "midi": 70,
          "name": "A#4",
          "ticks": 46224,
          "time": 137.571291,
          "velocity": 0.47244094488188976
        },
        {
          "duration": 0.14285699999999224,
          "durationTicks": 48,
          "midi": 69,
          "name": "A4",
          "ticks": 46272,
          "time": 137.71414800000002,
          "velocity": 0.47244094488188976
        },
        {
          "duration": 0.14285699999999224,
          "durationTicks": 48,
          "midi": 70,
          "name": "A#4",
          "ticks": 46320,
          "time": 137.85700500000002,
          "velocity": 0.47244094488188976
        },
        {
          "duration": 0.14285699999999224,
          "durationTicks": 48,
          "midi": 69,
          "name": "A4",
          "ticks": 46368,
          "time": 137.999862,
          "velocity": 0.47244094488188976
        },
        {
          "duration": 0.14285700000002066,
          "durationTicks": 48,
          "midi": 70,
          "name": "A#4",
          "ticks": 46416,
          "time": 138.142719,
          "velocity": 0.47244094488188976
        },
        {
          "duration": 0.14285699999999224,
          "durationTicks": 48,
          "midi": 69,
          "name": "A4",
          "ticks": 46464,
          "time": 138.28557600000002,
          "velocity": 0.47244094488188976
        },
        {
          "duration": 0.14285699999999224,
          "durationTicks": 48,
          "midi": 70,
          "name": "A#4",
          "ticks": 46512,
          "time": 138.428433,
          "velocity": 0.47244094488188976
        },
        {
          "duration": 0.14285700000002066,
          "durationTicks": 48,
          "midi": 69,
          "name": "A4",
          "ticks": 46560,
          "time": 138.57129,
          "velocity": 0.47244094488188976
        },
        {
          "duration": 0.14285699999999224,
          "durationTicks": 48,
          "midi": 70,
          "name": "A#4",
          "ticks": 46608,
          "time": 138.71414700000003,
          "velocity": 0.47244094488188976
        },
        {
          "duration": 0.14285699999999224,
          "durationTicks": 48,
          "midi": 70,
          "name": "A#4",
          "ticks": 46704,
          "time": 138.999861,
          "velocity": 0.47244094488188976
        },
        {
          "duration": 0.14285699999999224,
          "durationTicks": 48,
          "midi": 70,
          "name": "A#4",
          "ticks": 46800,
          "time": 139.28557500000002,
          "velocity": 0.47244094488188976
        },
        {
          "duration": 0.14285699999999224,
          "durationTicks": 48,
          "midi": 69,
          "name": "A4",
          "ticks": 46848,
          "time": 139.42843200000002,
          "velocity": 0.47244094488188976
        },
        {
          "duration": 0.14285699999999224,
          "durationTicks": 48,
          "midi": 70,
          "name": "A#4",
          "ticks": 46896,
          "time": 139.571289,
          "velocity": 0.47244094488188976
        },
        {
          "duration": 0.14285700000002066,
          "durationTicks": 48,
          "midi": 69,
          "name": "A4",
          "ticks": 46944,
          "time": 139.714146,
          "velocity": 0.47244094488188976
        },
        {
          "duration": 0.14285699999999224,
          "durationTicks": 48,
          "midi": 70,
          "name": "A#4",
          "ticks": 46992,
          "time": 139.85700300000002,
          "velocity": 0.47244094488188976
        },
        {
          "duration": 0.14285699999999224,
          "durationTicks": 48,
          "midi": 69,
          "name": "A4",
          "ticks": 47040,
          "time": 139.99986,
          "velocity": 0.47244094488188976
        },
        {
          "duration": 0.14285700000002066,
          "durationTicks": 48,
          "midi": 70,
          "name": "A#4",
          "ticks": 47088,
          "time": 140.142717,
          "velocity": 0.47244094488188976
        },
        {
          "duration": 0.14285699999999224,
          "durationTicks": 48,
          "midi": 69,
          "name": "A4",
          "ticks": 47136,
          "time": 140.28557400000003,
          "velocity": 0.47244094488188976
        },
        {
          "duration": 0.14285699999999224,
          "durationTicks": 48,
          "midi": 70,
          "name": "A#4",
          "ticks": 47184,
          "time": 140.42843100000002,
          "velocity": 0.47244094488188976
        },
        {
          "duration": 0.14285699999999224,
          "durationTicks": 48,
          "midi": 69,
          "name": "A4",
          "ticks": 47232,
          "time": 140.571288,
          "velocity": 0.47244094488188976
        },
        {
          "duration": 0.14285700000002066,
          "durationTicks": 48,
          "midi": 70,
          "name": "A#4",
          "ticks": 47280,
          "time": 140.714145,
          "velocity": 0.47244094488188976
        },
        {
          "duration": 0.14285699999999224,
          "durationTicks": 48,
          "midi": 69,
          "name": "A4",
          "ticks": 47328,
          "time": 140.85700200000002,
          "velocity": 0.47244094488188976
        },
        {
          "duration": 0.14285699999999224,
          "durationTicks": 48,
          "midi": 70,
          "name": "A#4",
          "ticks": 47376,
          "time": 140.99985900000001,
          "velocity": 0.47244094488188976
        },
        {
          "duration": 0.14285700000002066,
          "durationTicks": 48,
          "midi": 70,
          "name": "A#4",
          "ticks": 47472,
          "time": 141.285573,
          "velocity": 0.47244094488188976
        },
        {
          "duration": 0.14285699999999224,
          "durationTicks": 48,
          "midi": 70,
          "name": "A#4",
          "ticks": 47568,
          "time": 141.571287,
          "velocity": 0.47244094488188976
        },
        {
          "duration": 0.14285700000002066,
          "durationTicks": 48,
          "midi": 69,
          "name": "A4",
          "ticks": 47616,
          "time": 141.714144,
          "velocity": 0.47244094488188976
        },
        {
          "duration": 0.14285699999999224,
          "durationTicks": 48,
          "midi": 70,
          "name": "A#4",
          "ticks": 47664,
          "time": 141.85700100000003,
          "velocity": 0.47244094488188976
        },
        {
          "duration": 0.14285699999999224,
          "durationTicks": 48,
          "midi": 69,
          "name": "A4",
          "ticks": 47712,
          "time": 141.99985800000002,
          "velocity": 0.47244094488188976
        },
        {
          "duration": 0.14285699999999224,
          "durationTicks": 48,
          "midi": 70,
          "name": "A#4",
          "ticks": 47760,
          "time": 142.142715,
          "velocity": 0.47244094488188976
        },
        {
          "duration": 0.14285700000002066,
          "durationTicks": 48,
          "midi": 69,
          "name": "A4",
          "ticks": 47808,
          "time": 142.285572,
          "velocity": 0.47244094488188976
        },
        {
          "duration": 0.14285699999999224,
          "durationTicks": 48,
          "midi": 70,
          "name": "A#4",
          "ticks": 47856,
          "time": 142.42842900000002,
          "velocity": 0.47244094488188976
        },
        {
          "duration": 0.14285699999999224,
          "durationTicks": 48,
          "midi": 69,
          "name": "A4",
          "ticks": 47904,
          "time": 142.57128600000001,
          "velocity": 0.47244094488188976
        },
        {
          "duration": 0.14285699999999224,
          "durationTicks": 48,
          "midi": 70,
          "name": "A#4",
          "ticks": 47952,
          "time": 142.714143,
          "velocity": 0.47244094488188976
        },
        {
          "duration": 0.14285700000002066,
          "durationTicks": 48,
          "midi": 69,
          "name": "A4",
          "ticks": 48000,
          "time": 142.857,
          "velocity": 0.47244094488188976
        },
        {
          "duration": 0.14285699999999224,
          "durationTicks": 48,
          "midi": 70,
          "name": "A#4",
          "ticks": 48048,
          "time": 142.99985700000002,
          "velocity": 0.47244094488188976
        },
        {
          "duration": 0.14285699999999224,
          "durationTicks": 48,
          "midi": 69,
          "name": "A4",
          "ticks": 48096,
          "time": 143.142714,
          "velocity": 0.47244094488188976
        },
        {
          "duration": 0.14285700000002066,
          "durationTicks": 48,
          "midi": 70,
          "name": "A#4",
          "ticks": 48144,
          "time": 143.285571,
          "velocity": 0.47244094488188976
        },
        {
          "duration": 0.14285699999999224,
          "durationTicks": 48,
          "midi": 70,
          "name": "A#4",
          "ticks": 48240,
          "time": 143.57128500000002,
          "velocity": 0.47244094488188976
        },
        {
          "duration": 0.14285700000002066,
          "durationTicks": 48,
          "midi": 70,
          "name": "A#4",
          "ticks": 48336,
          "time": 143.856999,
          "velocity": 0.47244094488188976
        },
        {
          "duration": 0.14285699999999224,
          "durationTicks": 48,
          "midi": 69,
          "name": "A4",
          "ticks": 48384,
          "time": 143.99985600000002,
          "velocity": 0.47244094488188976
        },
        {
          "duration": 0.14285699999999224,
          "durationTicks": 48,
          "midi": 70,
          "name": "A#4",
          "ticks": 48432,
          "time": 144.14271300000001,
          "velocity": 0.47244094488188976
        },
        {
          "duration": 0.14285699999999224,
          "durationTicks": 48,
          "midi": 69,
          "name": "A4",
          "ticks": 48480,
          "time": 144.28557,
          "velocity": 0.47244094488188976
        },
        {
          "duration": 0.14285700000002066,
          "durationTicks": 48,
          "midi": 70,
          "name": "A#4",
          "ticks": 48528,
          "time": 144.428427,
          "velocity": 0.47244094488188976
        },
        {
          "duration": 0.14285699999999224,
          "durationTicks": 48,
          "midi": 69,
          "name": "A4",
          "ticks": 48576,
          "time": 144.57128400000002,
          "velocity": 0.47244094488188976
        },
        {
          "duration": 0.14285699999999224,
          "durationTicks": 48,
          "midi": 70,
          "name": "A#4",
          "ticks": 48624,
          "time": 144.714141,
          "velocity": 0.47244094488188976
        },
        {
          "duration": 0.14285700000002066,
          "durationTicks": 48,
          "midi": 69,
          "name": "A4",
          "ticks": 48672,
          "time": 144.856998,
          "velocity": 0.47244094488188976
        },
        {
          "duration": 0.14285699999999224,
          "durationTicks": 48,
          "midi": 70,
          "name": "A#4",
          "ticks": 48720,
          "time": 144.99985500000003,
          "velocity": 0.47244094488188976
        },
        {
          "duration": 0.14285699999999224,
          "durationTicks": 48,
          "midi": 69,
          "name": "A4",
          "ticks": 48768,
          "time": 145.14271200000002,
          "velocity": 0.47244094488188976
        },
        {
          "duration": 0.14285699999999224,
          "durationTicks": 48,
          "midi": 70,
          "name": "A#4",
          "ticks": 48816,
          "time": 145.285569,
          "velocity": 0.47244094488188976
        },
        {
          "duration": 0.14285700000002066,
          "durationTicks": 48,
          "midi": 69,
          "name": "A4",
          "ticks": 48864,
          "time": 145.428426,
          "velocity": 0.47244094488188976
        },
        {
          "duration": 0.14285699999999224,
          "durationTicks": 48,
          "midi": 70,
          "name": "A#4",
          "ticks": 48912,
          "time": 145.57128300000002,
          "velocity": 0.47244094488188976
        },
        {
          "duration": 0.14285699999999224,
          "durationTicks": 48,
          "midi": 70,
          "name": "A#4",
          "ticks": 49008,
          "time": 145.856997,
          "velocity": 0.47244094488188976
        },
        {
          "duration": 0.14285699999999224,
          "durationTicks": 48,
          "midi": 70,
          "name": "A#4",
          "ticks": 49104,
          "time": 146.14271100000002,
          "velocity": 0.47244094488188976
        },
        {
          "duration": 0.14285699999999224,
          "durationTicks": 48,
          "midi": 69,
          "name": "A4",
          "ticks": 49152,
          "time": 146.285568,
          "velocity": 0.47244094488188976
        },
        {
          "duration": 0.14285700000002066,
          "durationTicks": 48,
          "midi": 70,
          "name": "A#4",
          "ticks": 49200,
          "time": 146.428425,
          "velocity": 0.47244094488188976
        },
        {
          "duration": 0.14285699999999224,
          "durationTicks": 48,
          "midi": 69,
          "name": "A4",
          "ticks": 49248,
          "time": 146.57128200000002,
          "velocity": 0.47244094488188976
        },
        {
          "duration": 0.14285699999999224,
          "durationTicks": 48,
          "midi": 70,
          "name": "A#4",
          "ticks": 49296,
          "time": 146.71413900000002,
          "velocity": 0.47244094488188976
        },
        {
          "duration": 0.14285699999999224,
          "durationTicks": 48,
          "midi": 69,
          "name": "A4",
          "ticks": 49344,
          "time": 146.856996,
          "velocity": 0.47244094488188976
        },
        {
          "duration": 0.14285700000002066,
          "durationTicks": 48,
          "midi": 70,
          "name": "A#4",
          "ticks": 49392,
          "time": 146.999853,
          "velocity": 0.47244094488188976
        },
        {
          "duration": 0.14285699999999224,
          "durationTicks": 48,
          "midi": 69,
          "name": "A4",
          "ticks": 49440,
          "time": 147.14271000000002,
          "velocity": 0.47244094488188976
        },
        {
          "duration": 0.14285699999999224,
          "durationTicks": 48,
          "midi": 70,
          "name": "A#4",
          "ticks": 49488,
          "time": 147.28556700000001,
          "velocity": 0.47244094488188976
        },
        {
          "duration": 0.14285699999999224,
          "durationTicks": 48,
          "midi": 69,
          "name": "A4",
          "ticks": 49536,
          "time": 147.428424,
          "velocity": 0.47244094488188976
        },
        {
          "duration": 0.14285700000002066,
          "durationTicks": 48,
          "midi": 70,
          "name": "A#4",
          "ticks": 49584,
          "time": 147.571281,
          "velocity": 0.47244094488188976
        },
        {
          "duration": 0.14285699999999224,
          "durationTicks": 48,
          "midi": 69,
          "name": "A4",
          "ticks": 49632,
          "time": 147.71413800000002,
          "velocity": 0.47244094488188976
        },
        {
          "duration": 0.14285699999999224,
          "durationTicks": 48,
          "midi": 70,
          "name": "A#4",
          "ticks": 49680,
          "time": 147.856995,
          "velocity": 0.47244094488188976
        },
        {
          "duration": 0.14285699999999224,
          "durationTicks": 48,
          "midi": 70,
          "name": "A#4",
          "ticks": 49776,
          "time": 148.14270900000002,
          "velocity": 0.47244094488188976
        },
        {
          "duration": 0.14285699999999224,
          "durationTicks": 48,
          "midi": 70,
          "name": "A#4",
          "ticks": 49872,
          "time": 148.428423,
          "velocity": 0.47244094488188976
        },
        {
          "duration": 0.14285700000002066,
          "durationTicks": 48,
          "midi": 69,
          "name": "A4",
          "ticks": 49920,
          "time": 148.57128,
          "velocity": 0.47244094488188976
        },
        {
          "duration": 0.14285699999999224,
          "durationTicks": 48,
          "midi": 70,
          "name": "A#4",
          "ticks": 49968,
          "time": 148.71413700000002,
          "velocity": 0.47244094488188976
        },
        {
          "duration": 0.14285699999999224,
          "durationTicks": 48,
          "midi": 69,
          "name": "A4",
          "ticks": 50016,
          "time": 148.85699400000001,
          "velocity": 0.47244094488188976
        },
        {
          "duration": 0.14285699999999224,
          "durationTicks": 48,
          "midi": 70,
          "name": "A#4",
          "ticks": 50064,
          "time": 148.999851,
          "velocity": 0.47244094488188976
        },
        {
          "duration": 0.14285700000002066,
          "durationTicks": 48,
          "midi": 69,
          "name": "A4",
          "ticks": 50112,
          "time": 149.142708,
          "velocity": 0.47244094488188976
        },
        {
          "duration": 0.14285699999999224,
          "durationTicks": 48,
          "midi": 70,
          "name": "A#4",
          "ticks": 50160,
          "time": 149.28556500000002,
          "velocity": 0.47244094488188976
        },
        {
          "duration": 0.14285699999999224,
          "durationTicks": 48,
          "midi": 69,
          "name": "A4",
          "ticks": 50208,
          "time": 149.428422,
          "velocity": 0.47244094488188976
        },
        {
          "duration": 0.14285700000002066,
          "durationTicks": 48,
          "midi": 70,
          "name": "A#4",
          "ticks": 50256,
          "time": 149.571279,
          "velocity": 0.47244094488188976
        },
        {
          "duration": 0.14285699999999224,
          "durationTicks": 48,
          "midi": 69,
          "name": "A4",
          "ticks": 50304,
          "time": 149.71413600000002,
          "velocity": 0.47244094488188976
        },
        {
          "duration": 0.14285699999999224,
          "durationTicks": 48,
          "midi": 70,
          "name": "A#4",
          "ticks": 50352,
          "time": 149.85699300000002,
          "velocity": 0.47244094488188976
        },
        {
          "duration": 0.14285699999999224,
          "durationTicks": 48,
          "midi": 69,
          "name": "A4",
          "ticks": 50400,
          "time": 149.99985,
          "velocity": 0.47244094488188976
        },
        {
          "duration": 0.14285700000002066,
          "durationTicks": 48,
          "midi": 70,
          "name": "A#4",
          "ticks": 50448,
          "time": 150.142707,
          "velocity": 0.47244094488188976
        },
        {
          "duration": 0.14285699999999224,
          "durationTicks": 48,
          "midi": 70,
          "name": "A#4",
          "ticks": 50544,
          "time": 150.42842100000001,
          "velocity": 0.47244094488188976
        },
        {
          "duration": 0.14285700000002066,
          "durationTicks": 48,
          "midi": 70,
          "name": "A#4",
          "ticks": 50640,
          "time": 150.714135,
          "velocity": 0.47244094488188976
        },
        {
          "duration": 0.14285699999999224,
          "durationTicks": 48,
          "midi": 69,
          "name": "A4",
          "ticks": 50688,
          "time": 150.85699200000002,
          "velocity": 0.47244094488188976
        },
        {
          "duration": 0.14285699999999224,
          "durationTicks": 48,
          "midi": 70,
          "name": "A#4",
          "ticks": 50736,
          "time": 150.999849,
          "velocity": 0.47244094488188976
        },
        {
          "duration": 0.14285700000002066,
          "durationTicks": 48,
          "midi": 69,
          "name": "A4",
          "ticks": 50784,
          "time": 151.142706,
          "velocity": 0.47244094488188976
        },
        {
          "duration": 0.14285699999999224,
          "durationTicks": 48,
          "midi": 70,
          "name": "A#4",
          "ticks": 50832,
          "time": 151.28556300000002,
          "velocity": 0.47244094488188976
        },
        {
          "duration": 0.14285699999999224,
          "durationTicks": 48,
          "midi": 69,
          "name": "A4",
          "ticks": 50880,
          "time": 151.42842000000002,
          "velocity": 0.47244094488188976
        },
        {
          "duration": 0.14285699999999224,
          "durationTicks": 48,
          "midi": 70,
          "name": "A#4",
          "ticks": 50928,
          "time": 151.571277,
          "velocity": 0.47244094488188976
        },
        {
          "duration": 0.14285700000002066,
          "durationTicks": 48,
          "midi": 69,
          "name": "A4",
          "ticks": 50976,
          "time": 151.714134,
          "velocity": 0.47244094488188976
        },
        {
          "duration": 0.14285699999999224,
          "durationTicks": 48,
          "midi": 70,
          "name": "A#4",
          "ticks": 51024,
          "time": 151.85699100000002,
          "velocity": 0.47244094488188976
        },
        {
          "duration": 0.14285699999999224,
          "durationTicks": 48,
          "midi": 69,
          "name": "A4",
          "ticks": 51072,
          "time": 151.99984800000001,
          "velocity": 0.47244094488188976
        },
        {
          "duration": 0.14285699999999224,
          "durationTicks": 48,
          "midi": 70,
          "name": "A#4",
          "ticks": 51120,
          "time": 152.142705,
          "velocity": 0.47244094488188976
        },
        {
          "duration": 0.14285700000002066,
          "durationTicks": 48,
          "midi": 69,
          "name": "A4",
          "ticks": 51168,
          "time": 152.285562,
          "velocity": 0.47244094488188976
        },
        {
          "duration": 0.14285699999999224,
          "durationTicks": 48,
          "midi": 70,
          "name": "A#4",
          "ticks": 51216,
          "time": 152.42841900000002,
          "velocity": 0.47244094488188976
        },
        {
          "duration": 0.14285700000002066,
          "durationTicks": 48,
          "midi": 70,
          "name": "A#4",
          "ticks": 51312,
          "time": 152.714133,
          "velocity": 0.47244094488188976
        },
        {
          "duration": 0.14285699999999224,
          "durationTicks": 48,
          "midi": 70,
          "name": "A#4",
          "ticks": 51408,
          "time": 152.99984700000002,
          "velocity": 0.47244094488188976
        },
        {
          "duration": 0.14285699999999224,
          "durationTicks": 48,
          "midi": 69,
          "name": "A4",
          "ticks": 51456,
          "time": 153.142704,
          "velocity": 0.47244094488188976
        },
        {
          "duration": 0.14285700000002066,
          "durationTicks": 48,
          "midi": 70,
          "name": "A#4",
          "ticks": 51504,
          "time": 153.285561,
          "velocity": 0.47244094488188976
        },
        {
          "duration": 0.14285699999999224,
          "durationTicks": 48,
          "midi": 69,
          "name": "A4",
          "ticks": 51552,
          "time": 153.42841800000002,
          "velocity": 0.47244094488188976
        },
        {
          "duration": 0.14285699999999224,
          "durationTicks": 48,
          "midi": 70,
          "name": "A#4",
          "ticks": 51600,
          "time": 153.571275,
          "velocity": 0.47244094488188976
        },
        {
          "duration": 0.14285699999999224,
          "durationTicks": 48,
          "midi": 69,
          "name": "A4",
          "ticks": 51648,
          "time": 153.714132,
          "velocity": 0.47244094488188976
        },
        {
          "duration": 0.14285700000002066,
          "durationTicks": 48,
          "midi": 70,
          "name": "A#4",
          "ticks": 51696,
          "time": 153.856989,
          "velocity": 0.47244094488188976
        },
        {
          "duration": 0.14285699999999224,
          "durationTicks": 48,
          "midi": 69,
          "name": "A4",
          "ticks": 51744,
          "time": 153.99984600000002,
          "velocity": 0.47244094488188976
        },
        {
          "duration": 0.14285699999999224,
          "durationTicks": 48,
          "midi": 70,
          "name": "A#4",
          "ticks": 51792,
          "time": 154.142703,
          "velocity": 0.47244094488188976
        },
        {
          "duration": 0.14285700000002066,
          "durationTicks": 48,
          "midi": 69,
          "name": "A4",
          "ticks": 51840,
          "time": 154.28556,
          "velocity": 0.47244094488188976
        },
        {
          "duration": 0.14285699999999224,
          "durationTicks": 48,
          "midi": 70,
          "name": "A#4",
          "ticks": 51888,
          "time": 154.42841700000002,
          "velocity": 0.47244094488188976
        },
        {
          "duration": 0.14285699999999224,
          "durationTicks": 48,
          "midi": 69,
          "name": "A4",
          "ticks": 51936,
          "time": 154.57127400000002,
          "velocity": 0.47244094488188976
        },
        {
          "duration": 0.14285699999999224,
          "durationTicks": 48,
          "midi": 70,
          "name": "A#4",
          "ticks": 51984,
          "time": 154.714131,
          "velocity": 0.47244094488188976
        },
        {
          "duration": 0.14285699999999224,
          "durationTicks": 48,
          "midi": 70,
          "name": "A#4",
          "ticks": 52080,
          "time": 154.99984500000002,
          "velocity": 0.47244094488188976
        },
        {
          "duration": 0.14285700000002066,
          "durationTicks": 48,
          "midi": 70,
          "name": "A#4",
          "ticks": 52176,
          "time": 155.285559,
          "velocity": 0.47244094488188976
        },
        {
          "duration": 0.14285699999999224,
          "durationTicks": 48,
          "midi": 69,
          "name": "A4",
          "ticks": 52224,
          "time": 155.42841600000003,
          "velocity": 0.47244094488188976
        },
        {
          "duration": 0.14285699999999224,
          "durationTicks": 48,
          "midi": 70,
          "name": "A#4",
          "ticks": 52272,
          "time": 155.57127300000002,
          "velocity": 0.47244094488188976
        },
        {
          "duration": 0.14285699999999224,
          "durationTicks": 48,
          "midi": 69,
          "name": "A4",
          "ticks": 52320,
          "time": 155.71413,
          "velocity": 0.47244094488188976
        },
        {
          "duration": 0.14285700000002066,
          "durationTicks": 48,
          "midi": 70,
          "name": "A#4",
          "ticks": 52368,
          "time": 155.856987,
          "velocity": 0.47244094488188976
        },
        {
          "duration": 0.14285699999999224,
          "durationTicks": 48,
          "midi": 69,
          "name": "A4",
          "ticks": 52416,
          "time": 155.99984400000002,
          "velocity": 0.47244094488188976
        },
        {
          "duration": 0.14285699999999224,
          "durationTicks": 48,
          "midi": 70,
          "name": "A#4",
          "ticks": 52464,
          "time": 156.14270100000002,
          "velocity": 0.47244094488188976
        },
        {
          "duration": 0.14285699999999224,
          "durationTicks": 48,
          "midi": 69,
          "name": "A4",
          "ticks": 52512,
          "time": 156.285558,
          "velocity": 0.47244094488188976
        },
        {
          "duration": 0.14285700000002066,
          "durationTicks": 48,
          "midi": 70,
          "name": "A#4",
          "ticks": 52560,
          "time": 156.428415,
          "velocity": 0.47244094488188976
        },
        {
          "duration": 0.14285699999999224,
          "durationTicks": 48,
          "midi": 69,
          "name": "A4",
          "ticks": 52608,
          "time": 156.57127200000002,
          "velocity": 0.47244094488188976
        },
        {
          "duration": 0.14285699999999224,
          "durationTicks": 48,
          "midi": 70,
          "name": "A#4",
          "ticks": 52656,
          "time": 156.714129,
          "velocity": 0.47244094488188976
        },
        {
          "duration": 0.14285700000002066,
          "durationTicks": 48,
          "midi": 69,
          "name": "A4",
          "ticks": 52704,
          "time": 156.856986,
          "velocity": 0.47244094488188976
        },
        {
          "duration": 0.14285699999999224,
          "durationTicks": 48,
          "midi": 70,
          "name": "A#4",
          "ticks": 52752,
          "time": 156.99984300000003,
          "velocity": 0.47244094488188976
        },
        {
          "duration": 0.14285699999999224,
          "durationTicks": 48,
          "midi": 70,
          "name": "A#4",
          "ticks": 52848,
          "time": 157.285557,
          "velocity": 0.47244094488188976
        },
        {
          "duration": 0.14285699999999224,
          "durationTicks": 48,
          "midi": 70,
          "name": "A#4",
          "ticks": 52944,
          "time": 157.57127100000002,
          "velocity": 0.47244094488188976
        },
        {
          "duration": 0.14285699999999224,
          "durationTicks": 48,
          "midi": 69,
          "name": "A4",
          "ticks": 52992,
          "time": 157.71412800000002,
          "velocity": 0.47244094488188976
        },
        {
          "duration": 0.14285699999999224,
          "durationTicks": 48,
          "midi": 70,
          "name": "A#4",
          "ticks": 53040,
          "time": 157.856985,
          "velocity": 0.47244094488188976
        },
        {
          "duration": 0.14285700000002066,
          "durationTicks": 48,
          "midi": 69,
          "name": "A4",
          "ticks": 53088,
          "time": 157.999842,
          "velocity": 0.47244094488188976
        },
        {
          "duration": 0.14285699999999224,
          "durationTicks": 48,
          "midi": 70,
          "name": "A#4",
          "ticks": 53136,
          "time": 158.14269900000002,
          "velocity": 0.47244094488188976
        },
        {
          "duration": 0.14285699999999224,
          "durationTicks": 48,
          "midi": 69,
          "name": "A4",
          "ticks": 53184,
          "time": 158.285556,
          "velocity": 0.47244094488188976
        },
        {
          "duration": 0.14285700000002066,
          "durationTicks": 48,
          "midi": 70,
          "name": "A#4",
          "ticks": 53232,
          "time": 158.428413,
          "velocity": 0.47244094488188976
        },
        {
          "duration": 0.14285699999999224,
          "durationTicks": 48,
          "midi": 69,
          "name": "A4",
          "ticks": 53280,
          "time": 158.57127000000003,
          "velocity": 0.47244094488188976
        },
        {
          "duration": 0.14285699999999224,
          "durationTicks": 48,
          "midi": 70,
          "name": "A#4",
          "ticks": 53328,
          "time": 158.71412700000002,
          "velocity": 0.47244094488188976
        },
        {
          "duration": 0.14285699999999224,
          "durationTicks": 48,
          "midi": 69,
          "name": "A4",
          "ticks": 53376,
          "time": 158.856984,
          "velocity": 0.47244094488188976
        },
        {
          "duration": 0.14285700000002066,
          "durationTicks": 48,
          "midi": 70,
          "name": "A#4",
          "ticks": 53424,
          "time": 158.999841,
          "velocity": 0.47244094488188976
        },
        {
          "duration": 0.14285699999999224,
          "durationTicks": 48,
          "midi": 69,
          "name": "A4",
          "ticks": 53472,
          "time": 159.14269800000002,
          "velocity": 0.47244094488188976
        },
        {
          "duration": 0.14285699999999224,
          "durationTicks": 48,
          "midi": 70,
          "name": "A#4",
          "ticks": 53520,
          "time": 159.28555500000002,
          "velocity": 0.47244094488188976
        },
        {
          "duration": 0.14285700000002066,
          "durationTicks": 48,
          "midi": 70,
          "name": "A#4",
          "ticks": 53616,
          "time": 159.571269,
          "velocity": 0.47244094488188976
        },
        {
          "duration": 0.14285699999999224,
          "durationTicks": 48,
          "midi": 70,
          "name": "A#4",
          "ticks": 53712,
          "time": 159.856983,
          "velocity": 0.47244094488188976
        },
        {
          "duration": 0.14285700000002066,
          "durationTicks": 48,
          "midi": 69,
          "name": "A4",
          "ticks": 53760,
          "time": 159.99984,
          "velocity": 0.47244094488188976
        },
        {
          "duration": 0.14285699999999224,
          "durationTicks": 48,
          "midi": 70,
          "name": "A#4",
          "ticks": 53808,
          "time": 160.14269700000003,
          "velocity": 0.47244094488188976
        },
        {
          "duration": 0.14285699999999224,
          "durationTicks": 48,
          "midi": 69,
          "name": "A4",
          "ticks": 53856,
          "time": 160.28555400000002,
          "velocity": 0.47244094488188976
        },
        {
          "duration": 0.14285699999999224,
          "durationTicks": 48,
          "midi": 70,
          "name": "A#4",
          "ticks": 53904,
          "time": 160.428411,
          "velocity": 0.47244094488188976
        },
        {
          "duration": 0.14285700000002066,
          "durationTicks": 48,
          "midi": 69,
          "name": "A4",
          "ticks": 53952,
          "time": 160.571268,
          "velocity": 0.47244094488188976
        },
        {
          "duration": 0.14285699999999224,
          "durationTicks": 48,
          "midi": 70,
          "name": "A#4",
          "ticks": 54000,
          "time": 160.71412500000002,
          "velocity": 0.47244094488188976
        },
        {
          "duration": 0.14285699999999224,
          "durationTicks": 48,
          "midi": 69,
          "name": "A4",
          "ticks": 54048,
          "time": 160.85698200000002,
          "velocity": 0.47244094488188976
        },
        {
          "duration": 0.14285699999999224,
          "durationTicks": 48,
          "midi": 70,
          "name": "A#4",
          "ticks": 54096,
          "time": 160.999839,
          "velocity": 0.47244094488188976
        },
        {
          "duration": 0.14285700000002066,
          "durationTicks": 48,
          "midi": 69,
          "name": "A4",
          "ticks": 54144,
          "time": 161.142696,
          "velocity": 0.47244094488188976
        },
        {
          "duration": 0.14285699999999224,
          "durationTicks": 48,
          "midi": 70,
          "name": "A#4",
          "ticks": 54192,
          "time": 161.28555300000002,
          "velocity": 0.47244094488188976
        },
        {
          "duration": 0.14285699999999224,
          "durationTicks": 48,
          "midi": 69,
          "name": "A4",
          "ticks": 54240,
          "time": 161.42841,
          "velocity": 0.47244094488188976
        },
        {
          "duration": 0.14285700000002066,
          "durationTicks": 48,
          "midi": 70,
          "name": "A#4",
          "ticks": 54288,
          "time": 161.571267,
          "velocity": 0.47244094488188976
        },
        {
          "duration": 0.14285699999999224,
          "durationTicks": 48,
          "midi": 70,
          "name": "A#4",
          "ticks": 54384,
          "time": 161.85698100000002,
          "velocity": 0.47244094488188976
        },
        {
          "duration": 0.14285700000002066,
          "durationTicks": 48,
          "midi": 70,
          "name": "A#4",
          "ticks": 54480,
          "time": 162.142695,
          "velocity": 0.47244094488188976
        },
        {
          "duration": 0.14285699999999224,
          "durationTicks": 48,
          "midi": 69,
          "name": "A4",
          "ticks": 54528,
          "time": 162.28555200000002,
          "velocity": 0.47244094488188976
        },
        {
          "duration": 0.14285699999999224,
          "durationTicks": 48,
          "midi": 70,
          "name": "A#4",
          "ticks": 54576,
          "time": 162.42840900000002,
          "velocity": 0.47244094488188976
        },
        {
          "duration": 0.14285699999999224,
          "durationTicks": 48,
          "midi": 69,
          "name": "A4",
          "ticks": 54624,
          "time": 162.571266,
          "velocity": 0.47244094488188976
        },
        {
          "duration": 0.14285700000002066,
          "durationTicks": 48,
          "midi": 70,
          "name": "A#4",
          "ticks": 54672,
          "time": 162.714123,
          "velocity": 0.47244094488188976
        },
        {
          "duration": 0.14285699999999224,
          "durationTicks": 48,
          "midi": 69,
          "name": "A4",
          "ticks": 54720,
          "time": 162.85698000000002,
          "velocity": 0.47244094488188976
        },
        {
          "duration": 0.14285699999999224,
          "durationTicks": 48,
          "midi": 70,
          "name": "A#4",
          "ticks": 54768,
          "time": 162.999837,
          "velocity": 0.47244094488188976
        },
        {
          "duration": 0.14285700000002066,
          "durationTicks": 48,
          "midi": 69,
          "name": "A4",
          "ticks": 54816,
          "time": 163.142694,
          "velocity": 0.47244094488188976
        },
        {
          "duration": 0.14285699999999224,
          "durationTicks": 48,
          "midi": 70,
          "name": "A#4",
          "ticks": 54864,
          "time": 163.28555100000003,
          "velocity": 0.47244094488188976
        },
        {
          "duration": 0.14285699999999224,
          "durationTicks": 48,
          "midi": 69,
          "name": "A4",
          "ticks": 54912,
          "time": 163.42840800000002,
          "velocity": 0.47244094488188976
        },
        {
          "duration": 0.14285699999999224,
          "durationTicks": 48,
          "midi": 70,
          "name": "A#4",
          "ticks": 54960,
          "time": 163.571265,
          "velocity": 0.47244094488188976
        },
        {
          "duration": 0.14285700000002066,
          "durationTicks": 48,
          "midi": 69,
          "name": "A4",
          "ticks": 55008,
          "time": 163.714122,
          "velocity": 0.47244094488188976
        },
        {
          "duration": 0.14285699999999224,
          "durationTicks": 48,
          "midi": 70,
          "name": "A#4",
          "ticks": 55056,
          "time": 163.85697900000002,
          "velocity": 0.47244094488188976
        },
        {
          "duration": 0.14285699999999224,
          "durationTicks": 48,
          "midi": 70,
          "name": "A#4",
          "ticks": 55152,
          "time": 164.142693,
          "velocity": 0.47244094488188976
        },
        {
          "duration": 0.14285699999999224,
          "durationTicks": 48,
          "midi": 70,
          "name": "A#4",
          "ticks": 55248,
          "time": 164.42840700000002,
          "velocity": 0.47244094488188976
        },
        {
          "duration": 0.14285699999999224,
          "durationTicks": 48,
          "midi": 69,
          "name": "A4",
          "ticks": 55296,
          "time": 164.571264,
          "velocity": 0.47244094488188976
        },
        {
          "duration": 0.14285700000002066,
          "durationTicks": 48,
          "midi": 70,
          "name": "A#4",
          "ticks": 55344,
          "time": 164.714121,
          "velocity": 0.47244094488188976
        },
        {
          "duration": 0.14285699999999224,
          "durationTicks": 48,
          "midi": 69,
          "name": "A4",
          "ticks": 55392,
          "time": 164.85697800000003,
          "velocity": 0.47244094488188976
        },
        {
          "duration": 0.14285699999999224,
          "durationTicks": 48,
          "midi": 70,
          "name": "A#4",
          "ticks": 55440,
          "time": 164.99983500000002,
          "velocity": 0.47244094488188976
        },
        {
          "duration": 0.14285699999999224,
          "durationTicks": 48,
          "midi": 69,
          "name": "A4",
          "ticks": 55488,
          "time": 165.142692,
          "velocity": 0.47244094488188976
        },
        {
          "duration": 0.14285700000002066,
          "durationTicks": 48,
          "midi": 70,
          "name": "A#4",
          "ticks": 55536,
          "time": 165.285549,
          "velocity": 0.47244094488188976
        },
        {
          "duration": 0.14285699999999224,
          "durationTicks": 48,
          "midi": 69,
          "name": "A4",
          "ticks": 55584,
          "time": 165.42840600000002,
          "velocity": 0.47244094488188976
        },
        {
          "duration": 0.14285699999999224,
          "durationTicks": 48,
          "midi": 70,
          "name": "A#4",
          "ticks": 55632,
          "time": 165.57126300000002,
          "velocity": 0.47244094488188976
        },
        {
          "duration": 0.14285699999999224,
          "durationTicks": 48,
          "midi": 69,
          "name": "A4",
          "ticks": 55680,
          "time": 165.71412,
          "velocity": 0.47244094488188976
        },
        {
          "duration": 0.14285700000002066,
          "durationTicks": 48,
          "midi": 70,
          "name": "A#4",
          "ticks": 55728,
          "time": 165.856977,
          "velocity": 0.47244094488188976
        },
        {
          "duration": 0.14285699999999224,
          "durationTicks": 48,
          "midi": 69,
          "name": "A4",
          "ticks": 55776,
          "time": 165.99983400000002,
          "velocity": 0.47244094488188976
        },
        {
          "duration": 0.14285699999999224,
          "durationTicks": 48,
          "midi": 70,
          "name": "A#4",
          "ticks": 55824,
          "time": 166.142691,
          "velocity": 0.47244094488188976
        },
        {
          "duration": 0.14285699999999224,
          "durationTicks": 48,
          "midi": 70,
          "name": "A#4",
          "ticks": 55920,
          "time": 166.42840500000003,
          "velocity": 0.47244094488188976
        },
        {
          "duration": 0.14285699999999224,
          "durationTicks": 48,
          "midi": 70,
          "name": "A#4",
          "ticks": 56016,
          "time": 166.714119,
          "velocity": 0.47244094488188976
        },
        {
          "duration": 0.14285700000002066,
          "durationTicks": 48,
          "midi": 69,
          "name": "A4",
          "ticks": 56064,
          "time": 166.856976,
          "velocity": 0.47244094488188976
        },
        {
          "duration": 0.14285699999999224,
          "durationTicks": 48,
          "midi": 70,
          "name": "A#4",
          "ticks": 56112,
          "time": 166.99983300000002,
          "velocity": 0.47244094488188976
        },
        {
          "duration": 0.14285699999999224,
          "durationTicks": 48,
          "midi": 69,
          "name": "A4",
          "ticks": 56160,
          "time": 167.14269000000002,
          "velocity": 0.47244094488188976
        },
        {
          "duration": 0.14285699999999224,
          "durationTicks": 48,
          "midi": 70,
          "name": "A#4",
          "ticks": 56208,
          "time": 167.285547,
          "velocity": 0.47244094488188976
        },
        {
          "duration": 0.14285700000002066,
          "durationTicks": 48,
          "midi": 69,
          "name": "A4",
          "ticks": 56256,
          "time": 167.428404,
          "velocity": 0.47244094488188976
        },
        {
          "duration": 0.14285699999999224,
          "durationTicks": 48,
          "midi": 70,
          "name": "A#4",
          "ticks": 56304,
          "time": 167.57126100000002,
          "velocity": 0.47244094488188976
        },
        {
          "duration": 0.14285699999999224,
          "durationTicks": 48,
          "midi": 69,
          "name": "A4",
          "ticks": 56352,
          "time": 167.714118,
          "velocity": 0.47244094488188976
        },
        {
          "duration": 0.14285700000002066,
          "durationTicks": 48,
          "midi": 70,
          "name": "A#4",
          "ticks": 56400,
          "time": 167.856975,
          "velocity": 0.47244094488188976
        },
        {
          "duration": 0.14285699999999224,
          "durationTicks": 48,
          "midi": 69,
          "name": "A4",
          "ticks": 56448,
          "time": 167.99983200000003,
          "velocity": 0.47244094488188976
        },
        {
          "duration": 0.14285699999999224,
          "durationTicks": 48,
          "midi": 70,
          "name": "A#4",
          "ticks": 56496,
          "time": 168.14268900000002,
          "velocity": 0.47244094488188976
        },
        {
          "duration": 0.14285699999999224,
          "durationTicks": 48,
          "midi": 69,
          "name": "A4",
          "ticks": 56544,
          "time": 168.285546,
          "velocity": 0.47244094488188976
        },
        {
          "duration": 0.14285700000002066,
          "durationTicks": 48,
          "midi": 70,
          "name": "A#4",
          "ticks": 56592,
          "time": 168.428403,
          "velocity": 0.47244094488188976
        },
        {
          "duration": 0.14285699999999224,
          "durationTicks": 48,
          "midi": 70,
          "name": "A#4",
          "ticks": 56688,
          "time": 168.71411700000002,
          "velocity": 0.47244094488188976
        },
        {
          "duration": 0.14285700000002066,
          "durationTicks": 48,
          "midi": 70,
          "name": "A#4",
          "ticks": 56784,
          "time": 168.999831,
          "velocity": 0.47244094488188976
        },
        {
          "duration": 0.14285699999999224,
          "durationTicks": 48,
          "midi": 69,
          "name": "A4",
          "ticks": 56832,
          "time": 169.14268800000002,
          "velocity": 0.47244094488188976
        },
        {
          "duration": 0.14285699999999224,
          "durationTicks": 48,
          "midi": 70,
          "name": "A#4",
          "ticks": 56880,
          "time": 169.285545,
          "velocity": 0.47244094488188976
        },
        {
          "duration": 0.14285700000002066,
          "durationTicks": 48,
          "midi": 69,
          "name": "A4",
          "ticks": 56928,
          "time": 169.428402,
          "velocity": 0.47244094488188976
        },
        {
          "duration": 0.14285699999999224,
          "durationTicks": 48,
          "midi": 70,
          "name": "A#4",
          "ticks": 56976,
          "time": 169.57125900000003,
          "velocity": 0.47244094488188976
        },
        {
          "duration": 0.14285699999999224,
          "durationTicks": 48,
          "midi": 69,
          "name": "A4",
          "ticks": 57024,
          "time": 169.71411600000002,
          "velocity": 0.47244094488188976
        },
        {
          "duration": 0.14285699999999224,
          "durationTicks": 48,
          "midi": 70,
          "name": "A#4",
          "ticks": 57072,
          "time": 169.856973,
          "velocity": 0.47244094488188976
        },
        {
          "duration": 0.14285700000002066,
          "durationTicks": 48,
          "midi": 69,
          "name": "A4",
          "ticks": 57120,
          "time": 169.99983,
          "velocity": 0.47244094488188976
        },
        {
          "duration": 0.14285699999999224,
          "durationTicks": 48,
          "midi": 70,
          "name": "A#4",
          "ticks": 57168,
          "time": 170.14268700000002,
          "velocity": 0.47244094488188976
        },
        {
          "duration": 0.14285699999999224,
          "durationTicks": 48,
          "midi": 69,
          "name": "A4",
          "ticks": 57216,
          "time": 170.28554400000002,
          "velocity": 0.47244094488188976
        },
        {
          "duration": 0.14285699999999224,
          "durationTicks": 48,
          "midi": 70,
          "name": "A#4",
          "ticks": 57264,
          "time": 170.428401,
          "velocity": 0.47244094488188976
        },
        {
          "duration": 0.14285700000002066,
          "durationTicks": 48,
          "midi": 69,
          "name": "A4",
          "ticks": 57312,
          "time": 170.571258,
          "velocity": 0.47244094488188976
        },
        {
          "duration": 0.14285699999999224,
          "durationTicks": 48,
          "midi": 70,
          "name": "A#4",
          "ticks": 57360,
          "time": 170.71411500000002,
          "velocity": 0.47244094488188976
        },
        {
          "duration": 0.14285700000002066,
          "durationTicks": 48,
          "midi": 70,
          "name": "A#4",
          "ticks": 57456,
          "time": 170.999829,
          "velocity": 0.47244094488188976
        },
        {
          "duration": 0.14285699999999224,
          "durationTicks": 48,
          "midi": 70,
          "name": "A#4",
          "ticks": 57552,
          "time": 171.28554300000002,
          "velocity": 0.47244094488188976
        },
        {
          "duration": 0.14285699999999224,
          "durationTicks": 48,
          "midi": 69,
          "name": "A4",
          "ticks": 57600,
          "time": 171.4284,
          "velocity": 0.47244094488188976
        },
        {
          "duration": 0.14285700000002066,
          "durationTicks": 48,
          "midi": 70,
          "name": "A#4",
          "ticks": 57648,
          "time": 171.571257,
          "velocity": 0.47244094488188976
        },
        {
          "duration": 0.14285699999999224,
          "durationTicks": 48,
          "midi": 69,
          "name": "A4",
          "ticks": 57696,
          "time": 171.71411400000002,
          "velocity": 0.47244094488188976
        },
        {
          "duration": 0.14285699999999224,
          "durationTicks": 48,
          "midi": 70,
          "name": "A#4",
          "ticks": 57744,
          "time": 171.85697100000002,
          "velocity": 0.47244094488188976
        },
        {
          "duration": 0.14285699999999224,
          "durationTicks": 48,
          "midi": 69,
          "name": "A4",
          "ticks": 57792,
          "time": 171.999828,
          "velocity": 0.47244094488188976
        },
        {
          "duration": 0.14285700000002066,
          "durationTicks": 48,
          "midi": 70,
          "name": "A#4",
          "ticks": 57840,
          "time": 172.142685,
          "velocity": 0.47244094488188976
        },
        {
          "duration": 0.14285699999999224,
          "durationTicks": 48,
          "midi": 69,
          "name": "A4",
          "ticks": 57888,
          "time": 172.28554200000002,
          "velocity": 0.47244094488188976
        },
        {
          "duration": 0.14285699999999224,
          "durationTicks": 48,
          "midi": 70,
          "name": "A#4",
          "ticks": 57936,
          "time": 172.428399,
          "velocity": 0.47244094488188976
        },
        {
          "duration": 0.14285700000002066,
          "durationTicks": 48,
          "midi": 69,
          "name": "A4",
          "ticks": 57984,
          "time": 172.571256,
          "velocity": 0.47244094488188976
        },
        {
          "duration": 0.14285699999999224,
          "durationTicks": 48,
          "midi": 70,
          "name": "A#4",
          "ticks": 58032,
          "time": 172.71411300000003,
          "velocity": 0.47244094488188976
        },
        {
          "duration": 0.14285699999999224,
          "durationTicks": 48,
          "midi": 69,
          "name": "A4",
          "ticks": 58080,
          "time": 172.85697000000002,
          "velocity": 0.47244094488188976
        },
        {
          "duration": 0.14285699999999224,
          "durationTicks": 48,
          "midi": 70,
          "name": "A#4",
          "ticks": 58128,
          "time": 172.999827,
          "velocity": 0.47244094488188976
        },
        {
          "duration": 0.14285699999999224,
          "durationTicks": 48,
          "midi": 70,
          "name": "A#4",
          "ticks": 58224,
          "time": 173.28554100000002,
          "velocity": 0.47244094488188976
        },
        {
          "duration": 0.14285699999999224,
          "durationTicks": 48,
          "midi": 70,
          "name": "A#4",
          "ticks": 58320,
          "time": 173.571255,
          "velocity": 0.47244094488188976
        },
        {
          "duration": 0.14285700000002066,
          "durationTicks": 48,
          "midi": 69,
          "name": "A4",
          "ticks": 58368,
          "time": 173.714112,
          "velocity": 0.47244094488188976
        },
        {
          "duration": 0.14285699999999224,
          "durationTicks": 48,
          "midi": 70,
          "name": "A#4",
          "ticks": 58416,
          "time": 173.85696900000002,
          "velocity": 0.47244094488188976
        },
        {
          "duration": 0.14285699999999224,
          "durationTicks": 48,
          "midi": 69,
          "name": "A4",
          "ticks": 58464,
          "time": 173.999826,
          "velocity": 0.47244094488188976
        },
        {
          "duration": 0.14285700000002066,
          "durationTicks": 48,
          "midi": 70,
          "name": "A#4",
          "ticks": 58512,
          "time": 174.142683,
          "velocity": 0.47244094488188976
        },
        {
          "duration": 0.14285699999999224,
          "durationTicks": 48,
          "midi": 69,
          "name": "A4",
          "ticks": 58560,
          "time": 174.28554000000003,
          "velocity": 0.47244094488188976
        },
        {
          "duration": 0.14285699999999224,
          "durationTicks": 48,
          "midi": 70,
          "name": "A#4",
          "ticks": 58608,
          "time": 174.42839700000002,
          "velocity": 0.47244094488188976
        },
        {
          "duration": 0.14285699999999224,
          "durationTicks": 48,
          "midi": 69,
          "name": "A4",
          "ticks": 58656,
          "time": 174.571254,
          "velocity": 0.47244094488188976
        },
        {
          "duration": 0.14285700000002066,
          "durationTicks": 48,
          "midi": 70,
          "name": "A#4",
          "ticks": 58704,
          "time": 174.714111,
          "velocity": 0.47244094488188976
        },
        {
          "duration": 0.14285699999999224,
          "durationTicks": 48,
          "midi": 69,
          "name": "A4",
          "ticks": 58752,
          "time": 174.85696800000002,
          "velocity": 0.47244094488188976
        },
        {
          "duration": 0.14285699999999224,
          "durationTicks": 48,
          "midi": 70,
          "name": "A#4",
          "ticks": 58800,
          "time": 174.99982500000002,
          "velocity": 0.47244094488188976
        },
        {
          "duration": 0.14285700000002066,
          "durationTicks": 48,
          "midi": 69,
          "name": "A4",
          "ticks": 58848,
          "time": 175.142682,
          "velocity": 0.47244094488188976
        },
        {
          "duration": 0.14285699999999224,
          "durationTicks": 48,
          "midi": 70,
          "name": "A#4",
          "ticks": 58896,
          "time": 175.28553900000003,
          "velocity": 0.47244094488188976
        },
        {
          "duration": 0.14285699999999224,
          "durationTicks": 48,
          "midi": 70,
          "name": "A#4",
          "ticks": 58992,
          "time": 175.571253,
          "velocity": 0.47244094488188976
        },
        {
          "duration": 0.14285699999999224,
          "durationTicks": 48,
          "midi": 70,
          "name": "A#4",
          "ticks": 59088,
          "time": 175.85696700000003,
          "velocity": 0.47244094488188976
        },
        {
          "duration": 0.14285699999999224,
          "durationTicks": 48,
          "midi": 69,
          "name": "A4",
          "ticks": 59136,
          "time": 175.99982400000002,
          "velocity": 0.47244094488188976
        },
        {
          "duration": 0.14285699999999224,
          "durationTicks": 48,
          "midi": 70,
          "name": "A#4",
          "ticks": 59184,
          "time": 176.142681,
          "velocity": 0.47244094488188976
        },
        {
          "duration": 0.14285700000002066,
          "durationTicks": 48,
          "midi": 69,
          "name": "A4",
          "ticks": 59232,
          "time": 176.285538,
          "velocity": 0.47244094488188976
        },
        {
          "duration": 0.14285699999999224,
          "durationTicks": 48,
          "midi": 70,
          "name": "A#4",
          "ticks": 59280,
          "time": 176.42839500000002,
          "velocity": 0.47244094488188976
        },
        {
          "duration": 0.14285699999999224,
          "durationTicks": 48,
          "midi": 69,
          "name": "A4",
          "ticks": 59328,
          "time": 176.57125200000002,
          "velocity": 0.47244094488188976
        },
        {
          "duration": 0.14285700000002066,
          "durationTicks": 48,
          "midi": 70,
          "name": "A#4",
          "ticks": 59376,
          "time": 176.714109,
          "velocity": 0.47244094488188976
        },
        {
          "duration": 0.14285699999999224,
          "durationTicks": 48,
          "midi": 69,
          "name": "A4",
          "ticks": 59424,
          "time": 176.85696600000003,
          "velocity": 0.47244094488188976
        },
        {
          "duration": 0.14285699999999224,
          "durationTicks": 48,
          "midi": 70,
          "name": "A#4",
          "ticks": 59472,
          "time": 176.99982300000002,
          "velocity": 0.47244094488188976
        },
        {
          "duration": 0.14285699999999224,
          "durationTicks": 48,
          "midi": 69,
          "name": "A4",
          "ticks": 59520,
          "time": 177.14268,
          "velocity": 0.47244094488188976
        },
        {
          "duration": 0.14285700000002066,
          "durationTicks": 48,
          "midi": 70,
          "name": "A#4",
          "ticks": 59568,
          "time": 177.285537,
          "velocity": 0.47244094488188976
        },
        {
          "duration": 0.14285699999999224,
          "durationTicks": 48,
          "midi": 69,
          "name": "A4",
          "ticks": 59616,
          "time": 177.42839400000003,
          "velocity": 0.47244094488188976
        },
        {
          "duration": 0.14285699999999224,
          "durationTicks": 48,
          "midi": 70,
          "name": "A#4",
          "ticks": 59664,
          "time": 177.57125100000002,
          "velocity": 0.47244094488188976
        },
        {
          "duration": 0.14285700000002066,
          "durationTicks": 48,
          "midi": 70,
          "name": "A#4",
          "ticks": 59760,
          "time": 177.856965,
          "velocity": 0.47244094488188976
        },
        {
          "duration": 0.14285699999999224,
          "durationTicks": 48,
          "midi": 70,
          "name": "A#4",
          "ticks": 59856,
          "time": 178.14267900000002,
          "velocity": 0.47244094488188976
        },
        {
          "duration": 0.14285700000002066,
          "durationTicks": 48,
          "midi": 69,
          "name": "A4",
          "ticks": 59904,
          "time": 178.285536,
          "velocity": 0.47244094488188976
        },
        {
          "duration": 0.14285699999999224,
          "durationTicks": 48,
          "midi": 70,
          "name": "A#4",
          "ticks": 59952,
          "time": 178.42839300000003,
          "velocity": 0.47244094488188976
        },
        {
          "duration": 0.14285699999999224,
          "durationTicks": 48,
          "midi": 69,
          "name": "A4",
          "ticks": 60000,
          "time": 178.57125000000002,
          "velocity": 0.47244094488188976
        },
        {
          "duration": 0.14285699999999224,
          "durationTicks": 48,
          "midi": 70,
          "name": "A#4",
          "ticks": 60048,
          "time": 178.714107,
          "velocity": 0.47244094488188976
        },
        {
          "duration": 0.14285700000002066,
          "durationTicks": 48,
          "midi": 69,
          "name": "A4",
          "ticks": 60096,
          "time": 178.856964,
          "velocity": 0.47244094488188976
        },
        {
          "duration": 0.14285699999999224,
          "durationTicks": 48,
          "midi": 70,
          "name": "A#4",
          "ticks": 60144,
          "time": 178.99982100000003,
          "velocity": 0.47244094488188976
        },
        {
          "duration": 0.14285699999999224,
          "durationTicks": 48,
          "midi": 69,
          "name": "A4",
          "ticks": 60192,
          "time": 179.14267800000002,
          "velocity": 0.47244094488188976
        },
        {
          "duration": 0.14285699999999224,
          "durationTicks": 48,
          "midi": 70,
          "name": "A#4",
          "ticks": 60240,
          "time": 179.285535,
          "velocity": 0.47244094488188976
        },
        {
          "duration": 0.14285700000002066,
          "durationTicks": 48,
          "midi": 69,
          "name": "A4",
          "ticks": 60288,
          "time": 179.428392,
          "velocity": 0.47244094488188976
        },
        {
          "duration": 0.14285699999999224,
          "durationTicks": 48,
          "midi": 70,
          "name": "A#4",
          "ticks": 60336,
          "time": 179.57124900000002,
          "velocity": 0.47244094488188976
        },
        {
          "duration": 0.14285699999999224,
          "durationTicks": 48,
          "midi": 69,
          "name": "A4",
          "ticks": 60384,
          "time": 179.71410600000002,
          "velocity": 0.47244094488188976
        },
        {
          "duration": 0.14285700000002066,
          "durationTicks": 48,
          "midi": 70,
          "name": "A#4",
          "ticks": 60432,
          "time": 179.856963,
          "velocity": 0.47244094488188976
        },
        {
          "duration": 0.14285699999999224,
          "durationTicks": 48,
          "midi": 70,
          "name": "A#4",
          "ticks": 60528,
          "time": 180.14267700000002,
          "velocity": 0.47244094488188976
        },
        {
          "duration": 0.14285700000002066,
          "durationTicks": 48,
          "midi": 70,
          "name": "A#4",
          "ticks": 60624,
          "time": 180.428391,
          "velocity": 0.47244094488188976
        },
        {
          "duration": 0.14285699999999224,
          "durationTicks": 48,
          "midi": 69,
          "name": "A4",
          "ticks": 60672,
          "time": 180.57124800000003,
          "velocity": 0.47244094488188976
        },
        {
          "duration": 0.14285699999999224,
          "durationTicks": 48,
          "midi": 70,
          "name": "A#4",
          "ticks": 60720,
          "time": 180.71410500000002,
          "velocity": 0.47244094488188976
        },
        {
          "duration": 0.14285699999999224,
          "durationTicks": 48,
          "midi": 69,
          "name": "A4",
          "ticks": 60768,
          "time": 180.856962,
          "velocity": 0.47244094488188976
        },
        {
          "duration": 0.14285700000002066,
          "durationTicks": 48,
          "midi": 70,
          "name": "A#4",
          "ticks": 60816,
          "time": 180.999819,
          "velocity": 0.47244094488188976
        },
        {
          "duration": 0.14285699999999224,
          "durationTicks": 48,
          "midi": 69,
          "name": "A4",
          "ticks": 60864,
          "time": 181.14267600000002,
          "velocity": 0.47244094488188976
        },
        {
          "duration": 0.14285699999999224,
          "durationTicks": 48,
          "midi": 70,
          "name": "A#4",
          "ticks": 60912,
          "time": 181.28553300000002,
          "velocity": 0.47244094488188976
        },
        {
          "duration": 0.14285700000002066,
          "durationTicks": 48,
          "midi": 69,
          "name": "A4",
          "ticks": 60960,
          "time": 181.42839,
          "velocity": 0.47244094488188976
        },
        {
          "duration": 0.14285699999999224,
          "durationTicks": 48,
          "midi": 70,
          "name": "A#4",
          "ticks": 61008,
          "time": 181.57124700000003,
          "velocity": 0.47244094488188976
        },
        {
          "duration": 0.14285699999999224,
          "durationTicks": 48,
          "midi": 69,
          "name": "A4",
          "ticks": 61056,
          "time": 181.71410400000002,
          "velocity": 0.47244094488188976
        },
        {
          "duration": 0.14285699999999224,
          "durationTicks": 48,
          "midi": 70,
          "name": "A#4",
          "ticks": 61104,
          "time": 181.856961,
          "velocity": 0.47244094488188976
        },
        {
          "duration": 0.14285700000002066,
          "durationTicks": 48,
          "midi": 69,
          "name": "A4",
          "ticks": 61152,
          "time": 181.999818,
          "velocity": 0.47244094488188976
        },
        {
          "duration": 0.14285699999999224,
          "durationTicks": 48,
          "midi": 70,
          "name": "A#4",
          "ticks": 61200,
          "time": 182.14267500000003,
          "velocity": 0.47244094488188976
        },
        {
          "duration": 0.14285699999999224,
          "durationTicks": 48,
          "midi": 70,
          "name": "A#4",
          "ticks": 61296,
          "time": 182.428389,
          "velocity": 0.47244094488188976
        },
        {
          "duration": 0.14285699999999224,
          "durationTicks": 48,
          "midi": 70,
          "name": "A#4",
          "ticks": 61392,
          "time": 182.71410300000002,
          "velocity": 0.47244094488188976
        },
        {
          "duration": 0.14285699999999224,
          "durationTicks": 48,
          "midi": 69,
          "name": "A4",
          "ticks": 61440,
          "time": 182.85696000000002,
          "velocity": 0.47244094488188976
        },
        {
          "duration": 0.14285700000002066,
          "durationTicks": 48,
          "midi": 70,
          "name": "A#4",
          "ticks": 61488,
          "time": 182.999817,
          "velocity": 0.47244094488188976
        },
        {
          "duration": 0.14285699999999224,
          "durationTicks": 48,
          "midi": 69,
          "name": "A4",
          "ticks": 61536,
          "time": 183.14267400000003,
          "velocity": 0.47244094488188976
        },
        {
          "duration": 0.14285699999999224,
          "durationTicks": 48,
          "midi": 70,
          "name": "A#4",
          "ticks": 61584,
          "time": 183.28553100000002,
          "velocity": 0.47244094488188976
        },
        {
          "duration": 0.14285699999999224,
          "durationTicks": 48,
          "midi": 69,
          "name": "A4",
          "ticks": 61632,
          "time": 183.428388,
          "velocity": 0.47244094488188976
        },
        {
          "duration": 0.14285700000002066,
          "durationTicks": 48,
          "midi": 70,
          "name": "A#4",
          "ticks": 61680,
          "time": 183.571245,
          "velocity": 0.47244094488188976
        },
        {
          "duration": 0.14285699999999224,
          "durationTicks": 48,
          "midi": 69,
          "name": "A4",
          "ticks": 61728,
          "time": 183.71410200000003,
          "velocity": 0.47244094488188976
        },
        {
          "duration": 0.14285699999999224,
          "durationTicks": 48,
          "midi": 70,
          "name": "A#4",
          "ticks": 61776,
          "time": 183.85695900000002,
          "velocity": 0.47244094488188976
        },
        {
          "duration": 0.14285699999999224,
          "durationTicks": 48,
          "midi": 69,
          "name": "A4",
          "ticks": 61824,
          "time": 183.999816,
          "velocity": 0.47244094488188976
        },
        {
          "duration": 0.14285700000002066,
          "durationTicks": 48,
          "midi": 70,
          "name": "A#4",
          "ticks": 61872,
          "time": 184.142673,
          "velocity": 0.47244094488188976
        },
        {
          "duration": 0.14285699999999224,
          "durationTicks": 48,
          "midi": 69,
          "name": "A4",
          "ticks": 61920,
          "time": 184.28553000000002,
          "velocity": 0.47244094488188976
        },
        {
          "duration": 0.14285699999999224,
          "durationTicks": 48,
          "midi": 70,
          "name": "A#4",
          "ticks": 61968,
          "time": 184.42838700000001,
          "velocity": 0.47244094488188976
        },
        {
          "duration": 0.14285699999999224,
          "durationTicks": 48,
          "midi": 70,
          "name": "A#4",
          "ticks": 62064,
          "time": 184.71410100000003,
          "velocity": 0.47244094488188976
        },
        {
          "duration": 0.2857140000000129,
          "durationTicks": 96,
          "midi": 70,
          "name": "A#4",
          "ticks": 62160,
          "time": 184.999815,
          "velocity": 0.47244094488188976
        },
        {
          "duration": 0.14285700000002066,
          "durationTicks": 48,
          "midi": 69,
          "name": "A4",
          "ticks": 68352,
          "time": 203.428368,
          "velocity": 0.47244094488188976
        },
        {
          "duration": 0.14285699999999224,
          "durationTicks": 48,
          "midi": 70,
          "name": "A#4",
          "ticks": 68400,
          "time": 203.57122500000003,
          "velocity": 0.47244094488188976
        },
        {
          "duration": 0.14285699999999224,
          "durationTicks": 48,
          "midi": 69,
          "name": "A4",
          "ticks": 68448,
          "time": 203.71408200000002,
          "velocity": 0.47244094488188976
        },
        {
          "duration": 0.14285699999999224,
          "durationTicks": 48,
          "midi": 70,
          "name": "A#4",
          "ticks": 68496,
          "time": 203.856939,
          "velocity": 0.47244094488188976
        },
        {
          "duration": 0.14285700000002066,
          "durationTicks": 48,
          "midi": 69,
          "name": "A4",
          "ticks": 68544,
          "time": 203.999796,
          "velocity": 0.47244094488188976
        },
        {
          "duration": 0.14285699999999224,
          "durationTicks": 48,
          "midi": 70,
          "name": "A#4",
          "ticks": 68592,
          "time": 204.14265300000002,
          "velocity": 0.47244094488188976
        },
        {
          "duration": 0.14285699999999224,
          "durationTicks": 48,
          "midi": 69,
          "name": "A4",
          "ticks": 68640,
          "time": 204.28551000000002,
          "velocity": 0.47244094488188976
        },
        {
          "duration": 0.14285700000002066,
          "durationTicks": 48,
          "midi": 70,
          "name": "A#4",
          "ticks": 68688,
          "time": 204.428367,
          "velocity": 0.47244094488188976
        },
        {
          "duration": 0.14285699999999224,
          "durationTicks": 48,
          "midi": 69,
          "name": "A4",
          "ticks": 68736,
          "time": 204.57122400000003,
          "velocity": 0.47244094488188976
        },
        {
          "duration": 0.14285699999999224,
          "durationTicks": 48,
          "midi": 70,
          "name": "A#4",
          "ticks": 68784,
          "time": 204.71408100000002,
          "velocity": 0.47244094488188976
        },
        {
          "duration": 0.14285699999999224,
          "durationTicks": 48,
          "midi": 69,
          "name": "A4",
          "ticks": 68832,
          "time": 204.856938,
          "velocity": 0.47244094488188976
        },
        {
          "duration": 0.14285700000002066,
          "durationTicks": 48,
          "midi": 70,
          "name": "A#4",
          "ticks": 68880,
          "time": 204.999795,
          "velocity": 0.47244094488188976
        },
        {
          "duration": 0.14285699999999224,
          "durationTicks": 48,
          "midi": 70,
          "name": "A#4",
          "ticks": 68976,
          "time": 205.28550900000002,
          "velocity": 0.47244094488188976
        },
        {
          "duration": 0.14285700000002066,
          "durationTicks": 48,
          "midi": 70,
          "name": "A#4",
          "ticks": 69072,
          "time": 205.571223,
          "velocity": 0.47244094488188976
        },
        {
          "duration": 0.14285699999999224,
          "durationTicks": 48,
          "midi": 69,
          "name": "A4",
          "ticks": 69120,
          "time": 205.71408000000002,
          "velocity": 0.47244094488188976
        },
        {
          "duration": 0.14285699999999224,
          "durationTicks": 48,
          "midi": 70,
          "name": "A#4",
          "ticks": 69168,
          "time": 205.85693700000002,
          "velocity": 0.47244094488188976
        },
        {
          "duration": 0.14285700000002066,
          "durationTicks": 48,
          "midi": 69,
          "name": "A4",
          "ticks": 69216,
          "time": 205.999794,
          "velocity": 0.47244094488188976
        },
        {
          "duration": 0.14285699999999224,
          "durationTicks": 48,
          "midi": 70,
          "name": "A#4",
          "ticks": 69264,
          "time": 206.14265100000003,
          "velocity": 0.47244094488188976
        },
        {
          "duration": 0.14285699999999224,
          "durationTicks": 48,
          "midi": 69,
          "name": "A4",
          "ticks": 69312,
          "time": 206.28550800000002,
          "velocity": 0.47244094488188976
        },
        {
          "duration": 0.14285699999999224,
          "durationTicks": 48,
          "midi": 70,
          "name": "A#4",
          "ticks": 69360,
          "time": 206.428365,
          "velocity": 0.47244094488188976
        },
        {
          "duration": 0.14285700000002066,
          "durationTicks": 48,
          "midi": 69,
          "name": "A4",
          "ticks": 69408,
          "time": 206.571222,
          "velocity": 0.47244094488188976
        },
        {
          "duration": 0.14285699999999224,
          "durationTicks": 48,
          "midi": 70,
          "name": "A#4",
          "ticks": 69456,
          "time": 206.71407900000003,
          "velocity": 0.47244094488188976
        },
        {
          "duration": 0.14285699999999224,
          "durationTicks": 48,
          "midi": 69,
          "name": "A4",
          "ticks": 69504,
          "time": 206.85693600000002,
          "velocity": 0.47244094488188976
        },
        {
          "duration": 0.14285699999999224,
          "durationTicks": 48,
          "midi": 70,
          "name": "A#4",
          "ticks": 69552,
          "time": 206.999793,
          "velocity": 0.47244094488188976
        },
        {
          "duration": 0.14285700000002066,
          "durationTicks": 48,
          "midi": 69,
          "name": "A4",
          "ticks": 69600,
          "time": 207.14265,
          "velocity": 0.47244094488188976
        },
        {
          "duration": 0.14285699999999224,
          "durationTicks": 48,
          "midi": 70,
          "name": "A#4",
          "ticks": 69648,
          "time": 207.28550700000002,
          "velocity": 0.47244094488188976
        },
        {
          "duration": 0.14285700000002066,
          "durationTicks": 48,
          "midi": 70,
          "name": "A#4",
          "ticks": 69744,
          "time": 207.571221,
          "velocity": 0.47244094488188976
        },
        {
          "duration": 0.14285699999999224,
          "durationTicks": 48,
          "midi": 70,
          "name": "A#4",
          "ticks": 69840,
          "time": 207.85693500000002,
          "velocity": 0.47244094488188976
        },
        {
          "duration": 0.14285699999999224,
          "durationTicks": 48,
          "midi": 69,
          "name": "A4",
          "ticks": 69888,
          "time": 207.999792,
          "velocity": 0.47244094488188976
        },
        {
          "duration": 0.14285700000002066,
          "durationTicks": 48,
          "midi": 70,
          "name": "A#4",
          "ticks": 69936,
          "time": 208.142649,
          "velocity": 0.47244094488188976
        },
        {
          "duration": 0.14285699999999224,
          "durationTicks": 48,
          "midi": 69,
          "name": "A4",
          "ticks": 69984,
          "time": 208.28550600000003,
          "velocity": 0.47244094488188976
        },
        {
          "duration": 0.14285699999999224,
          "durationTicks": 48,
          "midi": 70,
          "name": "A#4",
          "ticks": 70032,
          "time": 208.42836300000002,
          "velocity": 0.47244094488188976
        },
        {
          "duration": 0.14285699999999224,
          "durationTicks": 48,
          "midi": 69,
          "name": "A4",
          "ticks": 70080,
          "time": 208.57122,
          "velocity": 0.47244094488188976
        },
        {
          "duration": 0.14285700000002066,
          "durationTicks": 48,
          "midi": 70,
          "name": "A#4",
          "ticks": 70128,
          "time": 208.714077,
          "velocity": 0.47244094488188976
        },
        {
          "duration": 0.14285699999999224,
          "durationTicks": 48,
          "midi": 69,
          "name": "A4",
          "ticks": 70176,
          "time": 208.85693400000002,
          "velocity": 0.47244094488188976
        },
        {
          "duration": 0.14285699999999224,
          "durationTicks": 48,
          "midi": 70,
          "name": "A#4",
          "ticks": 70224,
          "time": 208.99979100000002,
          "velocity": 0.47244094488188976
        },
        {
          "duration": 0.14285700000002066,
          "durationTicks": 48,
          "midi": 69,
          "name": "A4",
          "ticks": 70272,
          "time": 209.142648,
          "velocity": 0.47244094488188976
        },
        {
          "duration": 0.14285699999999224,
          "durationTicks": 48,
          "midi": 70,
          "name": "A#4",
          "ticks": 70320,
          "time": 209.28550500000003,
          "velocity": 0.47244094488188976
        },
        {
          "duration": 0.14285699999999224,
          "durationTicks": 48,
          "midi": 69,
          "name": "A4",
          "ticks": 70368,
          "time": 209.42836200000002,
          "velocity": 0.47244094488188976
        },
        {
          "duration": 0.14285699999999224,
          "durationTicks": 48,
          "midi": 70,
          "name": "A#4",
          "ticks": 70416,
          "time": 209.571219,
          "velocity": 0.47244094488188976
        },
        {
          "duration": 0.14285699999999224,
          "durationTicks": 48,
          "midi": 70,
          "name": "A#4",
          "ticks": 70512,
          "time": 209.85693300000003,
          "velocity": 0.47244094488188976
        },
        {
          "duration": 0.14285699999999224,
          "durationTicks": 48,
          "midi": 70,
          "name": "A#4",
          "ticks": 70608,
          "time": 210.142647,
          "velocity": 0.47244094488188976
        },
        {
          "duration": 0.14285700000002066,
          "durationTicks": 48,
          "midi": 69,
          "name": "A4",
          "ticks": 70656,
          "time": 210.285504,
          "velocity": 0.47244094488188976
        },
        {
          "duration": 0.14285699999999224,
          "durationTicks": 48,
          "midi": 70,
          "name": "A#4",
          "ticks": 70704,
          "time": 210.42836100000002,
          "velocity": 0.47244094488188976
        },
        {
          "duration": 0.14285699999999224,
          "durationTicks": 48,
          "midi": 69,
          "name": "A4",
          "ticks": 70752,
          "time": 210.57121800000002,
          "velocity": 0.47244094488188976
        },
        {
          "duration": 0.14285700000002066,
          "durationTicks": 48,
          "midi": 70,
          "name": "A#4",
          "ticks": 70800,
          "time": 210.714075,
          "velocity": 0.47244094488188976
        },
        {
          "duration": 0.14285699999999224,
          "durationTicks": 48,
          "midi": 69,
          "name": "A4",
          "ticks": 70848,
          "time": 210.85693200000003,
          "velocity": 0.47244094488188976
        },
        {
          "duration": 0.14285699999999224,
          "durationTicks": 48,
          "midi": 70,
          "name": "A#4",
          "ticks": 70896,
          "time": 210.99978900000002,
          "velocity": 0.47244094488188976
        },
        {
          "duration": 0.14285699999999224,
          "durationTicks": 48,
          "midi": 69,
          "name": "A4",
          "ticks": 70944,
          "time": 211.142646,
          "velocity": 0.47244094488188976
        },
        {
          "duration": 0.14285700000002066,
          "durationTicks": 48,
          "midi": 70,
          "name": "A#4",
          "ticks": 70992,
          "time": 211.285503,
          "velocity": 0.47244094488188976
        },
        {
          "duration": 0.14285699999999224,
          "durationTicks": 48,
          "midi": 69,
          "name": "A4",
          "ticks": 71040,
          "time": 211.42836000000003,
          "velocity": 0.47244094488188976
        },
        {
          "duration": 0.14285699999999224,
          "durationTicks": 48,
          "midi": 70,
          "name": "A#4",
          "ticks": 71088,
          "time": 211.57121700000002,
          "velocity": 0.47244094488188976
        },
        {
          "duration": 0.14285700000002066,
          "durationTicks": 48,
          "midi": 69,
          "name": "A4",
          "ticks": 71136,
          "time": 211.714074,
          "velocity": 0.47244094488188976
        },
        {
          "duration": 0.14285699999999224,
          "durationTicks": 48,
          "midi": 70,
          "name": "A#4",
          "ticks": 71184,
          "time": 211.85693100000003,
          "velocity": 0.47244094488188976
        },
        {
          "duration": 0.14285699999999224,
          "durationTicks": 48,
          "midi": 70,
          "name": "A#4",
          "ticks": 71280,
          "time": 212.14264500000002,
          "velocity": 0.47244094488188976
        },
        {
          "duration": 0.14285699999999224,
          "durationTicks": 48,
          "midi": 70,
          "name": "A#4",
          "ticks": 71376,
          "time": 212.42835900000003,
          "velocity": 0.47244094488188976
        },
        {
          "duration": 0.14285699999999224,
          "durationTicks": 48,
          "midi": 69,
          "name": "A4",
          "ticks": 71424,
          "time": 212.57121600000002,
          "velocity": 0.47244094488188976
        },
        {
          "duration": 0.14285699999999224,
          "durationTicks": 48,
          "midi": 70,
          "name": "A#4",
          "ticks": 71472,
          "time": 212.714073,
          "velocity": 0.47244094488188976
        },
        {
          "duration": 0.14285700000002066,
          "durationTicks": 48,
          "midi": 69,
          "name": "A4",
          "ticks": 71520,
          "time": 212.85693,
          "velocity": 0.47244094488188976
        },
        {
          "duration": 0.14285699999999224,
          "durationTicks": 48,
          "midi": 70,
          "name": "A#4",
          "ticks": 71568,
          "time": 212.99978700000003,
          "velocity": 0.47244094488188976
        },
        {
          "duration": 0.14285699999999224,
          "durationTicks": 48,
          "midi": 69,
          "name": "A4",
          "ticks": 71616,
          "time": 213.14264400000002,
          "velocity": 0.47244094488188976
        },
        {
          "duration": 0.14285700000002066,
          "durationTicks": 48,
          "midi": 70,
          "name": "A#4",
          "ticks": 71664,
          "time": 213.285501,
          "velocity": 0.47244094488188976
        },
        {
          "duration": 0.14285699999999224,
          "durationTicks": 48,
          "midi": 69,
          "name": "A4",
          "ticks": 71712,
          "time": 213.42835800000003,
          "velocity": 0.47244094488188976
        },
        {
          "duration": 0.14285699999999224,
          "durationTicks": 48,
          "midi": 70,
          "name": "A#4",
          "ticks": 71760,
          "time": 213.57121500000002,
          "velocity": 0.47244094488188976
        },
        {
          "duration": 0.14285699999999224,
          "durationTicks": 48,
          "midi": 69,
          "name": "A4",
          "ticks": 71808,
          "time": 213.71407200000002,
          "velocity": 0.47244094488188976
        },
        {
          "duration": 0.14285700000002066,
          "durationTicks": 48,
          "midi": 70,
          "name": "A#4",
          "ticks": 71856,
          "time": 213.856929,
          "velocity": 0.47244094488188976
        },
        {
          "duration": 0.14285699999999224,
          "durationTicks": 48,
          "midi": 69,
          "name": "A4",
          "ticks": 71904,
          "time": 213.99978600000003,
          "velocity": 0.47244094488188976
        },
        {
          "duration": 0.14285699999999224,
          "durationTicks": 48,
          "midi": 70,
          "name": "A#4",
          "ticks": 71952,
          "time": 214.14264300000002,
          "velocity": 0.47244094488188976
        },
        {
          "duration": 0.14285700000002066,
          "durationTicks": 48,
          "midi": 70,
          "name": "A#4",
          "ticks": 72048,
          "time": 214.428357,
          "velocity": 0.47244094488188976
        },
        {
          "duration": 0.14285699999999224,
          "durationTicks": 48,
          "midi": 70,
          "name": "A#4",
          "ticks": 72144,
          "time": 214.71407100000002,
          "velocity": 0.47244094488188976
        },
        {
          "duration": 0.14285700000002066,
          "durationTicks": 48,
          "midi": 69,
          "name": "A4",
          "ticks": 72192,
          "time": 214.856928,
          "velocity": 0.47244094488188976
        },
        {
          "duration": 0.14285699999999224,
          "durationTicks": 48,
          "midi": 70,
          "name": "A#4",
          "ticks": 72240,
          "time": 214.99978500000003,
          "velocity": 0.47244094488188976
        },
        {
          "duration": 0.14285699999999224,
          "durationTicks": 48,
          "midi": 69,
          "name": "A4",
          "ticks": 72288,
          "time": 215.14264200000002,
          "velocity": 0.47244094488188976
        },
        {
          "duration": 0.14285699999999224,
          "durationTicks": 48,
          "midi": 70,
          "name": "A#4",
          "ticks": 72336,
          "time": 215.28549900000002,
          "velocity": 0.47244094488188976
        },
        {
          "duration": 0.14285700000002066,
          "durationTicks": 48,
          "midi": 69,
          "name": "A4",
          "ticks": 72384,
          "time": 215.428356,
          "velocity": 0.47244094488188976
        },
        {
          "duration": 0.14285699999999224,
          "durationTicks": 48,
          "midi": 70,
          "name": "A#4",
          "ticks": 72432,
          "time": 215.57121300000003,
          "velocity": 0.47244094488188976
        },
        {
          "duration": 0.14285699999999224,
          "durationTicks": 48,
          "midi": 69,
          "name": "A4",
          "ticks": 72480,
          "time": 215.71407000000002,
          "velocity": 0.47244094488188976
        },
        {
          "duration": 0.14285699999999224,
          "durationTicks": 48,
          "midi": 70,
          "name": "A#4",
          "ticks": 72528,
          "time": 215.856927,
          "velocity": 0.47244094488188976
        },
        {
          "duration": 0.14285700000002066,
          "durationTicks": 48,
          "midi": 69,
          "name": "A4",
          "ticks": 72576,
          "time": 215.999784,
          "velocity": 0.47244094488188976
        },
        {
          "duration": 0.14285699999999224,
          "durationTicks": 48,
          "midi": 70,
          "name": "A#4",
          "ticks": 72624,
          "time": 216.14264100000003,
          "velocity": 0.47244094488188976
        },
        {
          "duration": 0.14285699999999224,
          "durationTicks": 48,
          "midi": 69,
          "name": "A4",
          "ticks": 72672,
          "time": 216.28549800000002,
          "velocity": 0.47244094488188976
        },
        {
          "duration": 0.14285700000002066,
          "durationTicks": 48,
          "midi": 70,
          "name": "A#4",
          "ticks": 72720,
          "time": 216.428355,
          "velocity": 0.47244094488188976
        },
        {
          "duration": 0.14285699999999224,
          "durationTicks": 48,
          "midi": 70,
          "name": "A#4",
          "ticks": 72816,
          "time": 216.71406900000002,
          "velocity": 0.47244094488188976
        },
        {
          "duration": 0.14285700000002066,
          "durationTicks": 48,
          "midi": 70,
          "name": "A#4",
          "ticks": 72912,
          "time": 216.999783,
          "velocity": 0.47244094488188976
        },
        {
          "duration": 0.14285699999999224,
          "durationTicks": 48,
          "midi": 69,
          "name": "A4",
          "ticks": 72960,
          "time": 217.14264000000003,
          "velocity": 0.47244094488188976
        },
        {
          "duration": 0.14285699999999224,
          "durationTicks": 48,
          "midi": 70,
          "name": "A#4",
          "ticks": 73008,
          "time": 217.28549700000002,
          "velocity": 0.47244094488188976
        },
        {
          "duration": 0.14285699999999224,
          "durationTicks": 48,
          "midi": 69,
          "name": "A4",
          "ticks": 73056,
          "time": 217.428354,
          "velocity": 0.47244094488188976
        },
        {
          "duration": 0.14285700000002066,
          "durationTicks": 48,
          "midi": 70,
          "name": "A#4",
          "ticks": 73104,
          "time": 217.571211,
          "velocity": 0.47244094488188976
        },
        {
          "duration": 0.14285699999999224,
          "durationTicks": 48,
          "midi": 69,
          "name": "A4",
          "ticks": 73152,
          "time": 217.71406800000003,
          "velocity": 0.47244094488188976
        },
        {
          "duration": 0.14285699999999224,
          "durationTicks": 48,
          "midi": 70,
          "name": "A#4",
          "ticks": 73200,
          "time": 217.85692500000002,
          "velocity": 0.47244094488188976
        },
        {
          "duration": 0.14285700000002066,
          "durationTicks": 48,
          "midi": 69,
          "name": "A4",
          "ticks": 73248,
          "time": 217.999782,
          "velocity": 0.47244094488188976
        },
        {
          "duration": 0.14285699999999224,
          "durationTicks": 48,
          "midi": 70,
          "name": "A#4",
          "ticks": 73296,
          "time": 218.14263900000003,
          "velocity": 0.47244094488188976
        },
        {
          "duration": 0.14285699999999224,
          "durationTicks": 48,
          "midi": 69,
          "name": "A4",
          "ticks": 73344,
          "time": 218.28549600000002,
          "velocity": 0.47244094488188976
        },
        {
          "duration": 0.14285699999999224,
          "durationTicks": 48,
          "midi": 70,
          "name": "A#4",
          "ticks": 73392,
          "time": 218.42835300000002,
          "velocity": 0.47244094488188976
        },
        {
          "duration": 0.14285700000002066,
          "durationTicks": 48,
          "midi": 69,
          "name": "A4",
          "ticks": 73440,
          "time": 218.57121,
          "velocity": 0.47244094488188976
        },
        {
          "duration": 0.14285699999999224,
          "durationTicks": 48,
          "midi": 70,
          "name": "A#4",
          "ticks": 73488,
          "time": 218.71406700000003,
          "velocity": 0.47244094488188976
        },
        {
          "duration": 0.14285699999999224,
          "durationTicks": 48,
          "midi": 70,
          "name": "A#4",
          "ticks": 73584,
          "time": 218.999781,
          "velocity": 0.47244094488188976
        },
        {
          "duration": 0.14285699999999224,
          "durationTicks": 48,
          "midi": 70,
          "name": "A#4",
          "ticks": 73680,
          "time": 219.28549500000003,
          "velocity": 0.47244094488188976
        },
        {
          "duration": 0.14285699999999224,
          "durationTicks": 48,
          "midi": 69,
          "name": "A4",
          "ticks": 73728,
          "time": 219.42835200000002,
          "velocity": 0.47244094488188976
        },
        {
          "duration": 0.14285700000002066,
          "durationTicks": 48,
          "midi": 70,
          "name": "A#4",
          "ticks": 73776,
          "time": 219.571209,
          "velocity": 0.47244094488188976
        },
        {
          "duration": 0.14285699999999224,
          "durationTicks": 48,
          "midi": 69,
          "name": "A4",
          "ticks": 73824,
          "time": 219.71406600000003,
          "velocity": 0.47244094488188976
        },
        {
          "duration": 0.14285699999999224,
          "durationTicks": 48,
          "midi": 70,
          "name": "A#4",
          "ticks": 73872,
          "time": 219.85692300000002,
          "velocity": 0.47244094488188976
        },
        {
          "duration": 0.14285699999999224,
          "durationTicks": 48,
          "midi": 69,
          "name": "A4",
          "ticks": 73920,
          "time": 219.99978000000002,
          "velocity": 0.47244094488188976
        },
        {
          "duration": 0.14285700000002066,
          "durationTicks": 48,
          "midi": 70,
          "name": "A#4",
          "ticks": 73968,
          "time": 220.142637,
          "velocity": 0.47244094488188976
        },
        {
          "duration": 0.14285699999999224,
          "durationTicks": 48,
          "midi": 69,
          "name": "A4",
          "ticks": 74016,
          "time": 220.28549400000003,
          "velocity": 0.47244094488188976
        },
        {
          "duration": 0.14285699999999224,
          "durationTicks": 48,
          "midi": 70,
          "name": "A#4",
          "ticks": 74064,
          "time": 220.42835100000002,
          "velocity": 0.47244094488188976
        },
        {
          "duration": 0.14285699999999224,
          "durationTicks": 48,
          "midi": 69,
          "name": "A4",
          "ticks": 74112,
          "time": 220.571208,
          "velocity": 0.47244094488188976
        },
        {
          "duration": 0.14285700000002066,
          "durationTicks": 48,
          "midi": 70,
          "name": "A#4",
          "ticks": 74160,
          "time": 220.714065,
          "velocity": 0.47244094488188976
        },
        {
          "duration": 0.14285699999999224,
          "durationTicks": 48,
          "midi": 69,
          "name": "A4",
          "ticks": 74208,
          "time": 220.85692200000003,
          "velocity": 0.47244094488188976
        },
        {
          "duration": 0.14285699999999224,
          "durationTicks": 48,
          "midi": 70,
          "name": "A#4",
          "ticks": 74256,
          "time": 220.99977900000002,
          "velocity": 0.47244094488188976
        },
        {
          "duration": 0.14285699999999224,
          "durationTicks": 48,
          "midi": 70,
          "name": "A#4",
          "ticks": 74352,
          "time": 221.28549300000003,
          "velocity": 0.47244094488188976
        },
        {
          "duration": 0.14285699999999224,
          "durationTicks": 48,
          "midi": 70,
          "name": "A#4",
          "ticks": 74448,
          "time": 221.57120700000002,
          "velocity": 0.47244094488188976
        },
        {
          "duration": 0.14285700000002066,
          "durationTicks": 48,
          "midi": 69,
          "name": "A4",
          "ticks": 74496,
          "time": 221.714064,
          "velocity": 0.47244094488188976
        },
        {
          "duration": 0.14285699999999224,
          "durationTicks": 48,
          "midi": 70,
          "name": "A#4",
          "ticks": 74544,
          "time": 221.85692100000003,
          "velocity": 0.47244094488188976
        },
        {
          "duration": 0.14285699999999224,
          "durationTicks": 48,
          "midi": 69,
          "name": "A4",
          "ticks": 74592,
          "time": 221.99977800000002,
          "velocity": 0.47244094488188976
        },
        {
          "duration": 0.14285699999999224,
          "durationTicks": 48,
          "midi": 70,
          "name": "A#4",
          "ticks": 74640,
          "time": 222.142635,
          "velocity": 0.47244094488188976
        },
        {
          "duration": 0.14285700000002066,
          "durationTicks": 48,
          "midi": 69,
          "name": "A4",
          "ticks": 74688,
          "time": 222.285492,
          "velocity": 0.47244094488188976
        },
        {
          "duration": 0.14285699999999224,
          "durationTicks": 48,
          "midi": 70,
          "name": "A#4",
          "ticks": 74736,
          "time": 222.42834900000003,
          "velocity": 0.47244094488188976
        },
        {
          "duration": 0.14285699999999224,
          "durationTicks": 48,
          "midi": 69,
          "name": "A4",
          "ticks": 74784,
          "time": 222.57120600000002,
          "velocity": 0.47244094488188976
        },
        {
          "duration": 0.14285700000002066,
          "durationTicks": 48,
          "midi": 70,
          "name": "A#4",
          "ticks": 74832,
          "time": 222.714063,
          "velocity": 0.47244094488188976
        },
        {
          "duration": 0.14285699999999224,
          "durationTicks": 48,
          "midi": 69,
          "name": "A4",
          "ticks": 74880,
          "time": 222.85692000000003,
          "velocity": 0.47244094488188976
        },
        {
          "duration": 0.14285699999999224,
          "durationTicks": 48,
          "midi": 70,
          "name": "A#4",
          "ticks": 74928,
          "time": 222.99977700000002,
          "velocity": 0.47244094488188976
        },
        {
          "duration": 0.14285699999999224,
          "durationTicks": 48,
          "midi": 69,
          "name": "A4",
          "ticks": 74976,
          "time": 223.14263400000002,
          "velocity": 0.47244094488188976
        },
        {
          "duration": 0.14285700000002066,
          "durationTicks": 48,
          "midi": 70,
          "name": "A#4",
          "ticks": 75024,
          "time": 223.285491,
          "velocity": 0.47244094488188976
        },
        {
          "duration": 0.14285699999999224,
          "durationTicks": 48,
          "midi": 70,
          "name": "A#4",
          "ticks": 75120,
          "time": 223.57120500000002,
          "velocity": 0.47244094488188976
        },
        {
          "duration": 0.14285700000002066,
          "durationTicks": 48,
          "midi": 70,
          "name": "A#4",
          "ticks": 75216,
          "time": 223.856919,
          "velocity": 0.47244094488188976
        },
        {
          "duration": 0.14285699999999224,
          "durationTicks": 48,
          "midi": 69,
          "name": "A4",
          "ticks": 75264,
          "time": 223.99977600000003,
          "velocity": 0.47244094488188976
        },
        {
          "duration": 0.14285699999999224,
          "durationTicks": 48,
          "midi": 70,
          "name": "A#4",
          "ticks": 75312,
          "time": 224.14263300000002,
          "velocity": 0.47244094488188976
        },
        {
          "duration": 0.14285700000002066,
          "durationTicks": 48,
          "midi": 69,
          "name": "A4",
          "ticks": 75360,
          "time": 224.28549,
          "velocity": 0.47244094488188976
        },
        {
          "duration": 0.14285699999999224,
          "durationTicks": 48,
          "midi": 70,
          "name": "A#4",
          "ticks": 75408,
          "time": 224.42834700000003,
          "velocity": 0.47244094488188976
        },
        {
          "duration": 0.14285699999999224,
          "durationTicks": 48,
          "midi": 69,
          "name": "A4",
          "ticks": 75456,
          "time": 224.57120400000002,
          "velocity": 0.47244094488188976
        },
        {
          "duration": 0.14285699999999224,
          "durationTicks": 48,
          "midi": 70,
          "name": "A#4",
          "ticks": 75504,
          "time": 224.71406100000002,
          "velocity": 0.47244094488188976
        },
        {
          "duration": 0.14285700000002066,
          "durationTicks": 48,
          "midi": 69,
          "name": "A4",
          "ticks": 75552,
          "time": 224.856918,
          "velocity": 0.47244094488188976
        },
        {
          "duration": 0.14285699999999224,
          "durationTicks": 48,
          "midi": 70,
          "name": "A#4",
          "ticks": 75600,
          "time": 224.99977500000003,
          "velocity": 0.47244094488188976
        },
        {
          "duration": 0.14285699999999224,
          "durationTicks": 48,
          "midi": 69,
          "name": "A4",
          "ticks": 75648,
          "time": 225.14263200000002,
          "velocity": 0.47244094488188976
        },
        {
          "duration": 0.14285699999999224,
          "durationTicks": 48,
          "midi": 70,
          "name": "A#4",
          "ticks": 75696,
          "time": 225.285489,
          "velocity": 0.47244094488188976
        },
        {
          "duration": 0.14285700000002066,
          "durationTicks": 48,
          "midi": 69,
          "name": "A4",
          "ticks": 75744,
          "time": 225.428346,
          "velocity": 0.47244094488188976
        },
        {
          "duration": 0.14285699999999224,
          "durationTicks": 48,
          "midi": 70,
          "name": "A#4",
          "ticks": 75792,
          "time": 225.57120300000003,
          "velocity": 0.47244094488188976
        },
        {
          "duration": 0.14285700000002066,
          "durationTicks": 48,
          "midi": 70,
          "name": "A#4",
          "ticks": 75888,
          "time": 225.856917,
          "velocity": 0.47244094488188976
        },
        {
          "duration": 0.14285699999999224,
          "durationTicks": 48,
          "midi": 70,
          "name": "A#4",
          "ticks": 75984,
          "time": 226.14263100000002,
          "velocity": 0.47244094488188976
        },
        {
          "duration": 0.14285699999999224,
          "durationTicks": 48,
          "midi": 69,
          "name": "A4",
          "ticks": 76032,
          "time": 226.28548800000002,
          "velocity": 0.47244094488188976
        },
        {
          "duration": 0.14285700000002066,
          "durationTicks": 48,
          "midi": 70,
          "name": "A#4",
          "ticks": 76080,
          "time": 226.428345,
          "velocity": 0.47244094488188976
        },
        {
          "duration": 0.14285699999999224,
          "durationTicks": 48,
          "midi": 69,
          "name": "A4",
          "ticks": 76128,
          "time": 226.57120200000003,
          "velocity": 0.47244094488188976
        },
        {
          "duration": 0.14285699999999224,
          "durationTicks": 48,
          "midi": 70,
          "name": "A#4",
          "ticks": 76176,
          "time": 226.71405900000002,
          "velocity": 0.47244094488188976
        },
        {
          "duration": 0.14285699999999224,
          "durationTicks": 48,
          "midi": 69,
          "name": "A4",
          "ticks": 76224,
          "time": 226.856916,
          "velocity": 0.47244094488188976
        },
        {
          "duration": 0.14285700000002066,
          "durationTicks": 48,
          "midi": 70,
          "name": "A#4",
          "ticks": 76272,
          "time": 226.999773,
          "velocity": 0.47244094488188976
        },
        {
          "duration": 0.14285699999999224,
          "durationTicks": 48,
          "midi": 69,
          "name": "A4",
          "ticks": 76320,
          "time": 227.14263000000003,
          "velocity": 0.47244094488188976
        },
        {
          "duration": 0.14285699999999224,
          "durationTicks": 48,
          "midi": 70,
          "name": "A#4",
          "ticks": 76368,
          "time": 227.28548700000002,
          "velocity": 0.47244094488188976
        },
        {
          "duration": 0.14285700000002066,
          "durationTicks": 48,
          "midi": 69,
          "name": "A4",
          "ticks": 76416,
          "time": 227.428344,
          "velocity": 0.47244094488188976
        },
        {
          "duration": 0.14285699999999224,
          "durationTicks": 48,
          "midi": 70,
          "name": "A#4",
          "ticks": 76464,
          "time": 227.57120100000003,
          "velocity": 0.47244094488188976
        },
        {
          "duration": 0.14285699999999224,
          "durationTicks": 48,
          "midi": 69,
          "name": "A4",
          "ticks": 76512,
          "time": 227.71405800000002,
          "velocity": 0.47244094488188976
        },
        {
          "duration": 0.14285699999999224,
          "durationTicks": 48,
          "midi": 70,
          "name": "A#4",
          "ticks": 76560,
          "time": 227.85691500000001,
          "velocity": 0.47244094488188976
        },
        {
          "duration": 0.14285699999999224,
          "durationTicks": 48,
          "midi": 70,
          "name": "A#4",
          "ticks": 76656,
          "time": 228.14262900000003,
          "velocity": 0.47244094488188976
        },
        {
          "duration": 0.14285700000002066,
          "durationTicks": 48,
          "midi": 70,
          "name": "A#4",
          "ticks": 76752,
          "time": 228.428343,
          "velocity": 0.47244094488188976
        },
        {
          "duration": 0.14285699999999224,
          "durationTicks": 48,
          "midi": 69,
          "name": "A4",
          "ticks": 76800,
          "time": 228.57120000000003,
          "velocity": 0.47244094488188976
        },
        {
          "duration": 0.14285699999999224,
          "durationTicks": 48,
          "midi": 70,
          "name": "A#4",
          "ticks": 76848,
          "time": 228.71405700000003,
          "velocity": 0.47244094488188976
        },
        {
          "duration": 0.14285699999999224,
          "durationTicks": 48,
          "midi": 69,
          "name": "A4",
          "ticks": 76896,
          "time": 228.85691400000002,
          "velocity": 0.47244094488188976
        },
        {
          "duration": 0.14285700000002066,
          "durationTicks": 48,
          "midi": 70,
          "name": "A#4",
          "ticks": 76944,
          "time": 228.999771,
          "velocity": 0.47244094488188976
        },
        {
          "duration": 0.14285699999999224,
          "durationTicks": 48,
          "midi": 69,
          "name": "A4",
          "ticks": 76992,
          "time": 229.14262800000003,
          "velocity": 0.47244094488188976
        },
        {
          "duration": 0.14285699999999224,
          "durationTicks": 48,
          "midi": 70,
          "name": "A#4",
          "ticks": 77040,
          "time": 229.28548500000002,
          "velocity": 0.47244094488188976
        },
        {
          "duration": 0.14285699999999224,
          "durationTicks": 48,
          "midi": 69,
          "name": "A4",
          "ticks": 77088,
          "time": 229.42834200000001,
          "velocity": 0.47244094488188976
        },
        {
          "duration": 0.14285700000002066,
          "durationTicks": 48,
          "midi": 70,
          "name": "A#4",
          "ticks": 77136,
          "time": 229.571199,
          "velocity": 0.47244094488188976
        },
        {
          "duration": 0.14285699999999224,
          "durationTicks": 48,
          "midi": 69,
          "name": "A4",
          "ticks": 77184,
          "time": 229.71405600000003,
          "velocity": 0.47244094488188976
        },
        {
          "duration": 0.14285699999999224,
          "durationTicks": 48,
          "midi": 70,
          "name": "A#4",
          "ticks": 77232,
          "time": 229.85691300000002,
          "velocity": 0.47244094488188976
        },
        {
          "duration": 0.14285700000002066,
          "durationTicks": 48,
          "midi": 69,
          "name": "A4",
          "ticks": 77280,
          "time": 229.99977,
          "velocity": 0.47244094488188976
        },
        {
          "duration": 0.14285699999999224,
          "durationTicks": 48,
          "midi": 70,
          "name": "A#4",
          "ticks": 77328,
          "time": 230.14262700000003,
          "velocity": 0.47244094488188976
        },
        {
          "duration": 0.14285699999999224,
          "durationTicks": 48,
          "midi": 70,
          "name": "A#4",
          "ticks": 77424,
          "time": 230.42834100000002,
          "velocity": 0.47244094488188976
        },
        {
          "duration": 0.14285699999999224,
          "durationTicks": 48,
          "midi": 70,
          "name": "A#4",
          "ticks": 77520,
          "time": 230.71405500000003,
          "velocity": 0.47244094488188976
        },
        {
          "duration": 0.14285699999999224,
          "durationTicks": 48,
          "midi": 69,
          "name": "A4",
          "ticks": 77568,
          "time": 230.85691200000002,
          "velocity": 0.47244094488188976
        },
        {
          "duration": 0.14285699999999224,
          "durationTicks": 48,
          "midi": 70,
          "name": "A#4",
          "ticks": 77616,
          "time": 230.99976900000001,
          "velocity": 0.47244094488188976
        },
        {
          "duration": 0.14285700000002066,
          "durationTicks": 48,
          "midi": 69,
          "name": "A4",
          "ticks": 77664,
          "time": 231.142626,
          "velocity": 0.47244094488188976
        },
        {
          "duration": 0.14285699999999224,
          "durationTicks": 48,
          "midi": 70,
          "name": "A#4",
          "ticks": 77712,
          "time": 231.28548300000003,
          "velocity": 0.47244094488188976
        },
        {
          "duration": 0.14285699999999224,
          "durationTicks": 48,
          "midi": 69,
          "name": "A4",
          "ticks": 77760,
          "time": 231.42834000000002,
          "velocity": 0.47244094488188976
        },
        {
          "duration": 0.14285700000002066,
          "durationTicks": 48,
          "midi": 70,
          "name": "A#4",
          "ticks": 77808,
          "time": 231.571197,
          "velocity": 0.47244094488188976
        },
        {
          "duration": 0.14285699999999224,
          "durationTicks": 48,
          "midi": 69,
          "name": "A4",
          "ticks": 77856,
          "time": 231.71405400000003,
          "velocity": 0.47244094488188976
        },
        {
          "duration": 0.14285699999999224,
          "durationTicks": 48,
          "midi": 70,
          "name": "A#4",
          "ticks": 77904,
          "time": 231.85691100000003,
          "velocity": 0.47244094488188976
        },
        {
          "duration": 0.14285699999999224,
          "durationTicks": 48,
          "midi": 69,
          "name": "A4",
          "ticks": 77952,
          "time": 231.99976800000002,
          "velocity": 0.47244094488188976
        },
        {
          "duration": 0.14285700000002066,
          "durationTicks": 48,
          "midi": 70,
          "name": "A#4",
          "ticks": 78000,
          "time": 232.142625,
          "velocity": 0.47244094488188976
        },
        {
          "duration": 0.14285699999999224,
          "durationTicks": 48,
          "midi": 69,
          "name": "A4",
          "ticks": 78048,
          "time": 232.28548200000003,
          "velocity": 0.47244094488188976
        },
        {
          "duration": 0.14285699999999224,
          "durationTicks": 48,
          "midi": 70,
          "name": "A#4",
          "ticks": 78096,
          "time": 232.42833900000002,
          "velocity": 0.47244094488188976
        },
        {
          "duration": 0.14285700000002066,
          "durationTicks": 48,
          "midi": 70,
          "name": "A#4",
          "ticks": 78192,
          "time": 232.714053,
          "velocity": 0.47244094488188976
        },
        {
          "duration": 0.14285699999999224,
          "durationTicks": 48,
          "midi": 70,
          "name": "A#4",
          "ticks": 78288,
          "time": 232.99976700000002,
          "velocity": 0.47244094488188976
        },
        {
          "duration": 0.14285700000002066,
          "durationTicks": 48,
          "midi": 69,
          "name": "A4",
          "ticks": 78336,
          "time": 233.142624,
          "velocity": 0.47244094488188976
        },
        {
          "duration": 0.14285699999999224,
          "durationTicks": 48,
          "midi": 70,
          "name": "A#4",
          "ticks": 78384,
          "time": 233.28548100000003,
          "velocity": 0.47244094488188976
        },
        {
          "duration": 0.14285699999999224,
          "durationTicks": 48,
          "midi": 69,
          "name": "A4",
          "ticks": 78432,
          "time": 233.42833800000002,
          "velocity": 0.47244094488188976
        },
        {
          "duration": 0.14285699999999224,
          "durationTicks": 48,
          "midi": 70,
          "name": "A#4",
          "ticks": 78480,
          "time": 233.57119500000002,
          "velocity": 0.47244094488188976
        },
        {
          "duration": 0.14285700000002066,
          "durationTicks": 48,
          "midi": 69,
          "name": "A4",
          "ticks": 78528,
          "time": 233.714052,
          "velocity": 0.47244094488188976
        },
        {
          "duration": 0.14285699999999224,
          "durationTicks": 48,
          "midi": 70,
          "name": "A#4",
          "ticks": 78576,
          "time": 233.85690900000003,
          "velocity": 0.47244094488188976
        },
        {
          "duration": 0.14285699999999224,
          "durationTicks": 48,
          "midi": 69,
          "name": "A4",
          "ticks": 78624,
          "time": 233.99976600000002,
          "velocity": 0.47244094488188976
        },
        {
          "duration": 0.14285699999999224,
          "durationTicks": 48,
          "midi": 70,
          "name": "A#4",
          "ticks": 78672,
          "time": 234.14262300000001,
          "velocity": 0.47244094488188976
        },
        {
          "duration": 0.14285700000002066,
          "durationTicks": 48,
          "midi": 69,
          "name": "A4",
          "ticks": 78720,
          "time": 234.28548,
          "velocity": 0.47244094488188976
        },
        {
          "duration": 0.14285699999999224,
          "durationTicks": 48,
          "midi": 70,
          "name": "A#4",
          "ticks": 78768,
          "time": 234.42833700000003,
          "velocity": 0.47244094488188976
        },
        {
          "duration": 0.14285699999999224,
          "durationTicks": 48,
          "midi": 69,
          "name": "A4",
          "ticks": 78816,
          "time": 234.57119400000002,
          "velocity": 0.47244094488188976
        },
        {
          "duration": 0.14285700000002066,
          "durationTicks": 48,
          "midi": 70,
          "name": "A#4",
          "ticks": 78864,
          "time": 234.714051,
          "velocity": 0.47244094488188976
        },
        {
          "duration": 0.14285699999999224,
          "durationTicks": 48,
          "midi": 70,
          "name": "A#4",
          "ticks": 78960,
          "time": 234.99976500000002,
          "velocity": 0.47244094488188976
        },
        {
          "duration": 0.14285700000002066,
          "durationTicks": 48,
          "midi": 70,
          "name": "A#4",
          "ticks": 79056,
          "time": 235.285479,
          "velocity": 0.47244094488188976
        },
        {
          "duration": 0.14285699999999224,
          "durationTicks": 48,
          "midi": 69,
          "name": "A4",
          "ticks": 79104,
          "time": 235.42833600000003,
          "velocity": 0.47244094488188976
        },
        {
          "duration": 0.14285699999999224,
          "durationTicks": 48,
          "midi": 70,
          "name": "A#4",
          "ticks": 79152,
          "time": 235.57119300000002,
          "velocity": 0.47244094488188976
        },
        {
          "duration": 0.14285699999999224,
          "durationTicks": 48,
          "midi": 69,
          "name": "A4",
          "ticks": 79200,
          "time": 235.71405000000001,
          "velocity": 0.47244094488188976
        },
        {
          "duration": 0.14285700000002066,
          "durationTicks": 48,
          "midi": 70,
          "name": "A#4",
          "ticks": 79248,
          "time": 235.856907,
          "velocity": 0.47244094488188976
        },
        {
          "duration": 0.14285699999999224,
          "durationTicks": 48,
          "midi": 69,
          "name": "A4",
          "ticks": 79296,
          "time": 235.99976400000003,
          "velocity": 0.47244094488188976
        },
        {
          "duration": 0.14285699999999224,
          "durationTicks": 48,
          "midi": 70,
          "name": "A#4",
          "ticks": 79344,
          "time": 236.14262100000002,
          "velocity": 0.47244094488188976
        },
        {
          "duration": 0.14285700000002066,
          "durationTicks": 48,
          "midi": 69,
          "name": "A4",
          "ticks": 79392,
          "time": 236.285478,
          "velocity": 0.47244094488188976
        },
        {
          "duration": 0.14285699999999224,
          "durationTicks": 48,
          "midi": 70,
          "name": "A#4",
          "ticks": 79440,
          "time": 236.42833500000003,
          "velocity": 0.47244094488188976
        },
        {
          "duration": 0.14285699999999224,
          "durationTicks": 48,
          "midi": 69,
          "name": "A4",
          "ticks": 79488,
          "time": 236.57119200000002,
          "velocity": 0.47244094488188976
        },
        {
          "duration": 0.14285699999999224,
          "durationTicks": 48,
          "midi": 70,
          "name": "A#4",
          "ticks": 79536,
          "time": 236.71404900000002,
          "velocity": 0.47244094488188976
        },
        {
          "duration": 0.14285700000002066,
          "durationTicks": 48,
          "midi": 69,
          "name": "A4",
          "ticks": 79584,
          "time": 236.856906,
          "velocity": 0.47244094488188976
        },
        {
          "duration": 0.14285699999999224,
          "durationTicks": 48,
          "midi": 70,
          "name": "A#4",
          "ticks": 79632,
          "time": 236.99976300000003,
          "velocity": 0.47244094488188976
        },
        {
          "duration": 0.14285699999999224,
          "durationTicks": 48,
          "midi": 70,
          "name": "A#4",
          "ticks": 79728,
          "time": 237.28547700000001,
          "velocity": 0.47244094488188976
        },
        {
          "duration": 0.14285699999999224,
          "durationTicks": 48,
          "midi": 70,
          "name": "A#4",
          "ticks": 79824,
          "time": 237.57119100000003,
          "velocity": 0.47244094488188976
        },
        {
          "duration": 0.14285699999999224,
          "durationTicks": 48,
          "midi": 69,
          "name": "A4",
          "ticks": 79872,
          "time": 237.71404800000002,
          "velocity": 0.47244094488188976
        },
        {
          "duration": 0.14285700000002066,
          "durationTicks": 48,
          "midi": 70,
          "name": "A#4",
          "ticks": 79920,
          "time": 237.856905,
          "velocity": 0.47244094488188976
        },
        {
          "duration": 0.14285699999999224,
          "durationTicks": 48,
          "midi": 69,
          "name": "A4",
          "ticks": 79968,
          "time": 237.99976200000003,
          "velocity": 0.47244094488188976
        },
        {
          "duration": 0.14285699999999224,
          "durationTicks": 48,
          "midi": 70,
          "name": "A#4",
          "ticks": 80016,
          "time": 238.14261900000002,
          "velocity": 0.47244094488188976
        },
        {
          "duration": 0.14285699999999224,
          "durationTicks": 48,
          "midi": 69,
          "name": "A4",
          "ticks": 80064,
          "time": 238.28547600000002,
          "velocity": 0.47244094488188976
        },
        {
          "duration": 0.14285700000002066,
          "durationTicks": 48,
          "midi": 70,
          "name": "A#4",
          "ticks": 80112,
          "time": 238.428333,
          "velocity": 0.47244094488188976
        },
        {
          "duration": 0.14285699999999224,
          "durationTicks": 48,
          "midi": 69,
          "name": "A4",
          "ticks": 80160,
          "time": 238.57119000000003,
          "velocity": 0.47244094488188976
        },
        {
          "duration": 0.14285699999999224,
          "durationTicks": 48,
          "midi": 70,
          "name": "A#4",
          "ticks": 80208,
          "time": 238.71404700000002,
          "velocity": 0.47244094488188976
        },
        {
          "duration": 0.14285699999999224,
          "durationTicks": 48,
          "midi": 69,
          "name": "A4",
          "ticks": 80256,
          "time": 238.85690400000001,
          "velocity": 0.47244094488188976
        },
        {
          "duration": 0.14285700000002066,
          "durationTicks": 48,
          "midi": 70,
          "name": "A#4",
          "ticks": 80304,
          "time": 238.999761,
          "velocity": 0.47244094488188976
        },
        {
          "duration": 0.14285699999999224,
          "durationTicks": 48,
          "midi": 69,
          "name": "A4",
          "ticks": 80352,
          "time": 239.14261800000003,
          "velocity": 0.47244094488188976
        },
        {
          "duration": 0.14285699999999224,
          "durationTicks": 48,
          "midi": 70,
          "name": "A#4",
          "ticks": 80400,
          "time": 239.28547500000002,
          "velocity": 0.47244094488188976
        },
        {
          "duration": 0.14285699999999224,
          "durationTicks": 48,
          "midi": 70,
          "name": "A#4",
          "ticks": 80496,
          "time": 239.57118900000003,
          "velocity": 0.47244094488188976
        },
        {
          "duration": 0.14285699999999224,
          "durationTicks": 48,
          "midi": 70,
          "name": "A#4",
          "ticks": 80592,
          "time": 239.85690300000002,
          "velocity": 0.47244094488188976
        },
        {
          "duration": 0.14285700000002066,
          "durationTicks": 48,
          "midi": 69,
          "name": "A4",
          "ticks": 80640,
          "time": 239.99976,
          "velocity": 0.47244094488188976
        },
        {
          "duration": 0.14285699999999224,
          "durationTicks": 48,
          "midi": 70,
          "name": "A#4",
          "ticks": 80688,
          "time": 240.14261700000003,
          "velocity": 0.47244094488188976
        },
        {
          "duration": 0.14285699999999224,
          "durationTicks": 48,
          "midi": 69,
          "name": "A4",
          "ticks": 80736,
          "time": 240.28547400000002,
          "velocity": 0.47244094488188976
        },
        {
          "duration": 0.14285699999999224,
          "durationTicks": 48,
          "midi": 70,
          "name": "A#4",
          "ticks": 80784,
          "time": 240.42833100000001,
          "velocity": 0.47244094488188976
        },
        {
          "duration": 0.14285700000002066,
          "durationTicks": 48,
          "midi": 69,
          "name": "A4",
          "ticks": 80832,
          "time": 240.571188,
          "velocity": 0.47244094488188976
        },
        {
          "duration": 0.14285699999999224,
          "durationTicks": 48,
          "midi": 70,
          "name": "A#4",
          "ticks": 80880,
          "time": 240.71404500000003,
          "velocity": 0.47244094488188976
        },
        {
          "duration": 0.14285699999999224,
          "durationTicks": 48,
          "midi": 69,
          "name": "A4",
          "ticks": 80928,
          "time": 240.85690200000002,
          "velocity": 0.47244094488188976
        },
        {
          "duration": 0.14285700000002066,
          "durationTicks": 48,
          "midi": 70,
          "name": "A#4",
          "ticks": 80976,
          "time": 240.999759,
          "velocity": 0.47244094488188976
        },
        {
          "duration": 0.14285699999999224,
          "durationTicks": 48,
          "midi": 69,
          "name": "A4",
          "ticks": 81024,
          "time": 241.14261600000003,
          "velocity": 0.47244094488188976
        },
        {
          "duration": 0.14285699999999224,
          "durationTicks": 48,
          "midi": 70,
          "name": "A#4",
          "ticks": 81072,
          "time": 241.28547300000002,
          "velocity": 0.47244094488188976
        },
        {
          "duration": 0.14285699999999224,
          "durationTicks": 48,
          "midi": 69,
          "name": "A4",
          "ticks": 81120,
          "time": 241.42833000000002,
          "velocity": 0.47244094488188976
        },
        {
          "duration": 0.14285700000002066,
          "durationTicks": 48,
          "midi": 70,
          "name": "A#4",
          "ticks": 81168,
          "time": 241.571187,
          "velocity": 0.47244094488188976
        },
        {
          "duration": 0.14285699999999224,
          "durationTicks": 48,
          "midi": 70,
          "name": "A#4",
          "ticks": 81264,
          "time": 241.85690100000002,
          "velocity": 0.47244094488188976
        },
        {
          "duration": 0.14285700000002066,
          "durationTicks": 48,
          "midi": 70,
          "name": "A#4",
          "ticks": 81360,
          "time": 242.142615,
          "velocity": 0.47244094488188976
        },
        {
          "duration": 0.14285699999999224,
          "durationTicks": 48,
          "midi": 69,
          "name": "A4",
          "ticks": 81408,
          "time": 242.28547200000003,
          "velocity": 0.47244094488188976
        },
        {
          "duration": 0.14285699999999224,
          "durationTicks": 48,
          "midi": 70,
          "name": "A#4",
          "ticks": 81456,
          "time": 242.42832900000002,
          "velocity": 0.47244094488188976
        },
        {
          "duration": 0.14285700000002066,
          "durationTicks": 48,
          "midi": 69,
          "name": "A4",
          "ticks": 81504,
          "time": 242.571186,
          "velocity": 0.47244094488188976
        },
        {
          "duration": 0.14285699999999224,
          "durationTicks": 48,
          "midi": 70,
          "name": "A#4",
          "ticks": 81552,
          "time": 242.71404300000003,
          "velocity": 0.47244094488188976
        },
        {
          "duration": 0.14285699999999224,
          "durationTicks": 48,
          "midi": 69,
          "name": "A4",
          "ticks": 81600,
          "time": 242.85690000000002,
          "velocity": 0.47244094488188976
        },
        {
          "duration": 0.14285699999999224,
          "durationTicks": 48,
          "midi": 70,
          "name": "A#4",
          "ticks": 81648,
          "time": 242.99975700000002,
          "velocity": 0.47244094488188976
        },
        {
          "duration": 0.14285700000002066,
          "durationTicks": 48,
          "midi": 69,
          "name": "A4",
          "ticks": 81696,
          "time": 243.142614,
          "velocity": 0.47244094488188976
        },
        {
          "duration": 0.14285699999999224,
          "durationTicks": 48,
          "midi": 70,
          "name": "A#4",
          "ticks": 81744,
          "time": 243.28547100000003,
          "velocity": 0.47244094488188976
        },
        {
          "duration": 0.14285699999999224,
          "durationTicks": 48,
          "midi": 69,
          "name": "A4",
          "ticks": 81792,
          "time": 243.42832800000002,
          "velocity": 0.47244094488188976
        },
        {
          "duration": 0.14285699999999224,
          "durationTicks": 48,
          "midi": 70,
          "name": "A#4",
          "ticks": 81840,
          "time": 243.571185,
          "velocity": 0.47244094488188976
        },
        {
          "duration": 0.14285700000002066,
          "durationTicks": 48,
          "midi": 69,
          "name": "A4",
          "ticks": 81888,
          "time": 243.714042,
          "velocity": 0.47244094488188976
        },
        {
          "duration": 0.14285699999999224,
          "durationTicks": 48,
          "midi": 70,
          "name": "A#4",
          "ticks": 81936,
          "time": 243.85689900000003,
          "velocity": 0.47244094488188976
        },
        {
          "duration": 0.14285700000002066,
          "durationTicks": 48,
          "midi": 70,
          "name": "A#4",
          "ticks": 82032,
          "time": 244.142613,
          "velocity": 0.47244094488188976
        },
        {
          "duration": 0.14285699999999224,
          "durationTicks": 48,
          "midi": 70,
          "name": "A#4",
          "ticks": 82128,
          "time": 244.42832700000002,
          "velocity": 0.47244094488188976
        },
        {
          "duration": 0.14285699999999224,
          "durationTicks": 48,
          "midi": 69,
          "name": "A4",
          "ticks": 82176,
          "time": 244.57118400000002,
          "velocity": 0.47244094488188976
        },
        {
          "duration": 0.14285700000002066,
          "durationTicks": 48,
          "midi": 70,
          "name": "A#4",
          "ticks": 82224,
          "time": 244.714041,
          "velocity": 0.47244094488188976
        },
        {
          "duration": 0.14285699999999224,
          "durationTicks": 48,
          "midi": 69,
          "name": "A4",
          "ticks": 82272,
          "time": 244.85689800000003,
          "velocity": 0.47244094488188976
        },
        {
          "duration": 0.14285699999999224,
          "durationTicks": 48,
          "midi": 70,
          "name": "A#4",
          "ticks": 82320,
          "time": 244.99975500000002,
          "velocity": 0.47244094488188976
        },
        {
          "duration": 0.14285699999999224,
          "durationTicks": 48,
          "midi": 69,
          "name": "A4",
          "ticks": 82368,
          "time": 245.142612,
          "velocity": 0.47244094488188976
        },
        {
          "duration": 0.14285700000002066,
          "durationTicks": 48,
          "midi": 70,
          "name": "A#4",
          "ticks": 82416,
          "time": 245.285469,
          "velocity": 0.47244094488188976
        },
        {
          "duration": 0.14285699999999224,
          "durationTicks": 48,
          "midi": 69,
          "name": "A4",
          "ticks": 82464,
          "time": 245.42832600000003,
          "velocity": 0.47244094488188976
        },
        {
          "duration": 0.14285699999999224,
          "durationTicks": 48,
          "midi": 70,
          "name": "A#4",
          "ticks": 82512,
          "time": 245.57118300000002,
          "velocity": 0.47244094488188976
        },
        {
          "duration": 0.14285700000002066,
          "durationTicks": 48,
          "midi": 69,
          "name": "A4",
          "ticks": 82560,
          "time": 245.71404,
          "velocity": 0.47244094488188976
        },
        {
          "duration": 0.14285699999999224,
          "durationTicks": 48,
          "midi": 70,
          "name": "A#4",
          "ticks": 82608,
          "time": 245.85689700000003,
          "velocity": 0.47244094488188976
        },
        {
          "duration": 0.14285699999999224,
          "durationTicks": 48,
          "midi": 69,
          "name": "A4",
          "ticks": 82656,
          "time": 245.99975400000002,
          "velocity": 0.47244094488188976
        },
        {
          "duration": 0.14285699999999224,
          "durationTicks": 48,
          "midi": 70,
          "name": "A#4",
          "ticks": 82704,
          "time": 246.14261100000002,
          "velocity": 0.47244094488188976
        },
        {
          "duration": 0.14285699999999224,
          "durationTicks": 48,
          "midi": 70,
          "name": "A#4",
          "ticks": 82800,
          "time": 246.42832500000003,
          "velocity": 0.47244094488188976
        },
        {
          "duration": 0.14285699999999224,
          "durationTicks": 48,
          "midi": 70,
          "name": "A#4",
          "ticks": 82896,
          "time": 246.714039,
          "velocity": 0.47244094488188976
        },
        {
          "duration": 0.14285700000002066,
          "durationTicks": 48,
          "midi": 69,
          "name": "A4",
          "ticks": 82944,
          "time": 246.856896,
          "velocity": 0.47244094488188976
        },
        {
          "duration": 0.14285699999999224,
          "durationTicks": 48,
          "midi": 70,
          "name": "A#4",
          "ticks": 82992,
          "time": 246.99975300000003,
          "velocity": 0.47244094488188976
        },
        {
          "duration": 0.14285699999999224,
          "durationTicks": 48,
          "midi": 69,
          "name": "A4",
          "ticks": 83040,
          "time": 247.14261000000002,
          "velocity": 0.47244094488188976
        },
        {
          "duration": 0.14285700000002066,
          "durationTicks": 48,
          "midi": 70,
          "name": "A#4",
          "ticks": 83088,
          "time": 247.285467,
          "velocity": 0.47244094488188976
        },
        {
          "duration": 0.14285699999999224,
          "durationTicks": 48,
          "midi": 69,
          "name": "A4",
          "ticks": 83136,
          "time": 247.42832400000003,
          "velocity": 0.47244094488188976
        },
        {
          "duration": 0.14285699999999224,
          "durationTicks": 48,
          "midi": 70,
          "name": "A#4",
          "ticks": 83184,
          "time": 247.57118100000002,
          "velocity": 0.47244094488188976
        },
        {
          "duration": 0.14285699999999224,
          "durationTicks": 48,
          "midi": 69,
          "name": "A4",
          "ticks": 83232,
          "time": 247.71403800000002,
          "velocity": 0.47244094488188976
        },
        {
          "duration": 0.14285700000002066,
          "durationTicks": 48,
          "midi": 70,
          "name": "A#4",
          "ticks": 83280,
          "time": 247.856895,
          "velocity": 0.47244094488188976
        },
        {
          "duration": 0.14285699999999224,
          "durationTicks": 48,
          "midi": 69,
          "name": "A4",
          "ticks": 83328,
          "time": 247.99975200000003,
          "velocity": 0.47244094488188976
        },
        {
          "duration": 0.14285699999999224,
          "durationTicks": 48,
          "midi": 70,
          "name": "A#4",
          "ticks": 83376,
          "time": 248.14260900000002,
          "velocity": 0.47244094488188976
        },
        {
          "duration": 0.14285700000002066,
          "durationTicks": 48,
          "midi": 69,
          "name": "A4",
          "ticks": 83424,
          "time": 248.285466,
          "velocity": 0.47244094488188976
        },
        {
          "duration": 0.14285699999999224,
          "durationTicks": 48,
          "midi": 70,
          "name": "A#4",
          "ticks": 83472,
          "time": 248.42832300000003,
          "velocity": 0.47244094488188976
        },
        {
          "duration": 0.14285699999999224,
          "durationTicks": 48,
          "midi": 70,
          "name": "A#4",
          "ticks": 83568,
          "time": 248.71403700000002,
          "velocity": 0.47244094488188976
        },
        {
          "duration": 0.14285699999999224,
          "durationTicks": 48,
          "midi": 70,
          "name": "A#4",
          "ticks": 83664,
          "time": 248.99975100000003,
          "velocity": 0.47244094488188976
        },
        {
          "duration": 0.14285699999999224,
          "durationTicks": 48,
          "midi": 69,
          "name": "A4",
          "ticks": 89856,
          "time": 267.428304,
          "velocity": 0.47244094488188976
        },
        {
          "duration": 0.14285699999999224,
          "durationTicks": 48,
          "midi": 70,
          "name": "A#4",
          "ticks": 89904,
          "time": 267.571161,
          "velocity": 0.47244094488188976
        },
        {
          "duration": 0.14285699999999224,
          "durationTicks": 48,
          "midi": 69,
          "name": "A4",
          "ticks": 89952,
          "time": 267.714018,
          "velocity": 0.47244094488188976
        },
        {
          "duration": 0.14285699999999224,
          "durationTicks": 48,
          "midi": 70,
          "name": "A#4",
          "ticks": 90000,
          "time": 267.856875,
          "velocity": 0.47244094488188976
        },
        {
          "duration": 0.14285700000004908,
          "durationTicks": 48,
          "midi": 69,
          "name": "A4",
          "ticks": 90048,
          "time": 267.999732,
          "velocity": 0.47244094488188976
        },
        {
          "duration": 0.14285699999999224,
          "durationTicks": 48,
          "midi": 70,
          "name": "A#4",
          "ticks": 90096,
          "time": 268.14258900000004,
          "velocity": 0.47244094488188976
        },
        {
          "duration": 0.14285699999999224,
          "durationTicks": 48,
          "midi": 69,
          "name": "A4",
          "ticks": 90144,
          "time": 268.28544600000004,
          "velocity": 0.47244094488188976
        },
        {
          "duration": 0.14285699999999224,
          "durationTicks": 48,
          "midi": 70,
          "name": "A#4",
          "ticks": 90192,
          "time": 268.428303,
          "velocity": 0.47244094488188976
        },
        {
          "duration": 0.14285699999999224,
          "durationTicks": 48,
          "midi": 69,
          "name": "A4",
          "ticks": 90240,
          "time": 268.57116,
          "velocity": 0.47244094488188976
        },
        {
          "duration": 0.14285699999999224,
          "durationTicks": 48,
          "midi": 70,
          "name": "A#4",
          "ticks": 90288,
          "time": 268.714017,
          "velocity": 0.47244094488188976
        },
        {
          "duration": 0.14285699999999224,
          "durationTicks": 48,
          "midi": 69,
          "name": "A4",
          "ticks": 90336,
          "time": 268.856874,
          "velocity": 0.47244094488188976
        },
        {
          "duration": 0.14285700000004908,
          "durationTicks": 48,
          "midi": 70,
          "name": "A#4",
          "ticks": 90384,
          "time": 268.999731,
          "velocity": 0.47244094488188976
        },
        {
          "duration": 0.14285699999999224,
          "durationTicks": 48,
          "midi": 70,
          "name": "A#4",
          "ticks": 90480,
          "time": 269.28544500000004,
          "velocity": 0.47244094488188976
        },
        {
          "duration": 0.14285699999999224,
          "durationTicks": 48,
          "midi": 70,
          "name": "A#4",
          "ticks": 90576,
          "time": 269.571159,
          "velocity": 0.47244094488188976
        },
        {
          "duration": 0.14285699999999224,
          "durationTicks": 48,
          "midi": 69,
          "name": "A4",
          "ticks": 90624,
          "time": 269.714016,
          "velocity": 0.47244094488188976
        },
        {
          "duration": 0.14285699999999224,
          "durationTicks": 48,
          "midi": 70,
          "name": "A#4",
          "ticks": 90672,
          "time": 269.856873,
          "velocity": 0.47244094488188976
        },
        {
          "duration": 0.14285700000004908,
          "durationTicks": 48,
          "midi": 69,
          "name": "A4",
          "ticks": 90720,
          "time": 269.99973,
          "velocity": 0.47244094488188976
        },
        {
          "duration": 0.14285699999999224,
          "durationTicks": 48,
          "midi": 70,
          "name": "A#4",
          "ticks": 90768,
          "time": 270.14258700000005,
          "velocity": 0.47244094488188976
        },
        {
          "duration": 0.14285699999999224,
          "durationTicks": 48,
          "midi": 69,
          "name": "A4",
          "ticks": 90816,
          "time": 270.28544400000004,
          "velocity": 0.47244094488188976
        },
        {
          "duration": 0.14285699999999224,
          "durationTicks": 48,
          "midi": 70,
          "name": "A#4",
          "ticks": 90864,
          "time": 270.42830100000003,
          "velocity": 0.47244094488188976
        },
        {
          "duration": 0.14285699999999224,
          "durationTicks": 48,
          "midi": 69,
          "name": "A4",
          "ticks": 90912,
          "time": 270.571158,
          "velocity": 0.47244094488188976
        },
        {
          "duration": 0.14285699999999224,
          "durationTicks": 48,
          "midi": 70,
          "name": "A#4",
          "ticks": 90960,
          "time": 270.714015,
          "velocity": 0.47244094488188976
        },
        {
          "duration": 0.14285699999999224,
          "durationTicks": 48,
          "midi": 69,
          "name": "A4",
          "ticks": 91008,
          "time": 270.856872,
          "velocity": 0.47244094488188976
        },
        {
          "duration": 0.14285699999999224,
          "durationTicks": 48,
          "midi": 70,
          "name": "A#4",
          "ticks": 91056,
          "time": 270.999729,
          "velocity": 0.47244094488188976
        },
        {
          "duration": 0.14285700000004908,
          "durationTicks": 48,
          "midi": 69,
          "name": "A4",
          "ticks": 91104,
          "time": 271.142586,
          "velocity": 0.47244094488188976
        },
        {
          "duration": 0.14285699999999224,
          "durationTicks": 48,
          "midi": 70,
          "name": "A#4",
          "ticks": 91152,
          "time": 271.28544300000004,
          "velocity": 0.47244094488188976
        },
        {
          "duration": 0.14285699999999224,
          "durationTicks": 48,
          "midi": 70,
          "name": "A#4",
          "ticks": 91248,
          "time": 271.571157,
          "velocity": 0.47244094488188976
        },
        {
          "duration": 0.14285699999999224,
          "durationTicks": 48,
          "midi": 70,
          "name": "A#4",
          "ticks": 91344,
          "time": 271.856871,
          "velocity": 0.47244094488188976
        },
        {
          "duration": 0.14285699999999224,
          "durationTicks": 48,
          "midi": 69,
          "name": "A4",
          "ticks": 91392,
          "time": 271.999728,
          "velocity": 0.47244094488188976
        },
        {
          "duration": 0.14285700000004908,
          "durationTicks": 48,
          "midi": 70,
          "name": "A#4",
          "ticks": 91440,
          "time": 272.142585,
          "velocity": 0.47244094488188976
        },
        {
          "duration": 0.14285699999999224,
          "durationTicks": 48,
          "midi": 69,
          "name": "A4",
          "ticks": 91488,
          "time": 272.28544200000005,
          "velocity": 0.47244094488188976
        },
        {
          "duration": 0.14285699999999224,
          "durationTicks": 48,
          "midi": 70,
          "name": "A#4",
          "ticks": 91536,
          "time": 272.42829900000004,
          "velocity": 0.47244094488188976
        },
        {
          "duration": 0.14285699999999224,
          "durationTicks": 48,
          "midi": 69,
          "name": "A4",
          "ticks": 91584,
          "time": 272.57115600000003,
          "velocity": 0.47244094488188976
        },
        {
          "duration": 0.14285699999999224,
          "durationTicks": 48,
          "midi": 70,
          "name": "A#4",
          "ticks": 91632,
          "time": 272.714013,
          "velocity": 0.47244094488188976
        },
        {
          "duration": 0.14285699999999224,
          "durationTicks": 48,
          "midi": 69,
          "name": "A4",
          "ticks": 91680,
          "time": 272.85687,
          "velocity": 0.47244094488188976
        },
        {
          "duration": 0.14285699999999224,
          "durationTicks": 48,
          "midi": 70,
          "name": "A#4",
          "ticks": 91728,
          "time": 272.999727,
          "velocity": 0.47244094488188976
        },
        {
          "duration": 0.14285700000004908,
          "durationTicks": 48,
          "midi": 69,
          "name": "A4",
          "ticks": 91776,
          "time": 273.142584,
          "velocity": 0.47244094488188976
        },
        {
          "duration": 0.14285699999999224,
          "durationTicks": 48,
          "midi": 70,
          "name": "A#4",
          "ticks": 91824,
          "time": 273.28544100000005,
          "velocity": 0.47244094488188976
        },
        {
          "duration": 0.14285699999999224,
          "durationTicks": 48,
          "midi": 69,
          "name": "A4",
          "ticks": 91872,
          "time": 273.42829800000004,
          "velocity": 0.47244094488188976
        },
        {
          "duration": 0.14285699999999224,
          "durationTicks": 48,
          "midi": 70,
          "name": "A#4",
          "ticks": 91920,
          "time": 273.57115500000003,
          "velocity": 0.47244094488188976
        },
        {
          "duration": 0.14285699999999224,
          "durationTicks": 48,
          "midi": 70,
          "name": "A#4",
          "ticks": 92016,
          "time": 273.856869,
          "velocity": 0.47244094488188976
        },
        {
          "duration": 0.14285699999999224,
          "durationTicks": 48,
          "midi": 70,
          "name": "A#4",
          "ticks": 92112,
          "time": 274.142583,
          "velocity": 0.47244094488188976
        },
        {
          "duration": 0.14285700000004908,
          "durationTicks": 48,
          "midi": 69,
          "name": "A4",
          "ticks": 92160,
          "time": 274.28544,
          "velocity": 0.47244094488188976
        },
        {
          "duration": 0.14285699999999224,
          "durationTicks": 48,
          "midi": 70,
          "name": "A#4",
          "ticks": 92208,
          "time": 274.42829700000004,
          "velocity": 0.47244094488188976
        },
        {
          "duration": 0.14285699999999224,
          "durationTicks": 48,
          "midi": 69,
          "name": "A4",
          "ticks": 92256,
          "time": 274.57115400000004,
          "velocity": 0.47244094488188976
        },
        {
          "duration": 0.14285699999999224,
          "durationTicks": 48,
          "midi": 70,
          "name": "A#4",
          "ticks": 92304,
          "time": 274.714011,
          "velocity": 0.47244094488188976
        },
        {
          "duration": 0.14285699999999224,
          "durationTicks": 48,
          "midi": 69,
          "name": "A4",
          "ticks": 92352,
          "time": 274.856868,
          "velocity": 0.47244094488188976
        },
        {
          "duration": 0.14285699999999224,
          "durationTicks": 48,
          "midi": 70,
          "name": "A#4",
          "ticks": 92400,
          "time": 274.999725,
          "velocity": 0.47244094488188976
        },
        {
          "duration": 0.14285699999999224,
          "durationTicks": 48,
          "midi": 69,
          "name": "A4",
          "ticks": 92448,
          "time": 275.142582,
          "velocity": 0.47244094488188976
        },
        {
          "duration": 0.14285700000004908,
          "durationTicks": 48,
          "midi": 70,
          "name": "A#4",
          "ticks": 92496,
          "time": 275.285439,
          "velocity": 0.47244094488188976
        },
        {
          "duration": 0.14285699999999224,
          "durationTicks": 48,
          "midi": 69,
          "name": "A4",
          "ticks": 92544,
          "time": 275.42829600000005,
          "velocity": 0.47244094488188976
        },
        {
          "duration": 0.14285699999999224,
          "durationTicks": 48,
          "midi": 70,
          "name": "A#4",
          "ticks": 92592,
          "time": 275.57115300000004,
          "velocity": 0.47244094488188976
        },
        {
          "duration": 0.14285699999999224,
          "durationTicks": 48,
          "midi": 69,
          "name": "A4",
          "ticks": 92640,
          "time": 275.71401000000003,
          "velocity": 0.47244094488188976
        },
        {
          "duration": 0.14285699999999224,
          "durationTicks": 48,
          "midi": 70,
          "name": "A#4",
          "ticks": 92688,
          "time": 275.856867,
          "velocity": 0.47244094488188976
        },
        {
          "duration": 0.14285699999999224,
          "durationTicks": 48,
          "midi": 70,
          "name": "A#4",
          "ticks": 92784,
          "time": 276.142581,
          "velocity": 0.47244094488188976
        },
        {
          "duration": 0.14285699999999224,
          "durationTicks": 48,
          "midi": 70,
          "name": "A#4",
          "ticks": 92880,
          "time": 276.42829500000005,
          "velocity": 0.47244094488188976
        },
        {
          "duration": 0.14285699999999224,
          "durationTicks": 48,
          "midi": 69,
          "name": "A4",
          "ticks": 92928,
          "time": 276.57115200000004,
          "velocity": 0.47244094488188976
        },
        {
          "duration": 0.14285699999999224,
          "durationTicks": 48,
          "midi": 70,
          "name": "A#4",
          "ticks": 92976,
          "time": 276.71400900000003,
          "velocity": 0.47244094488188976
        },
        {
          "duration": 0.14285699999999224,
          "durationTicks": 48,
          "midi": 69,
          "name": "A4",
          "ticks": 93024,
          "time": 276.856866,
          "velocity": 0.47244094488188976
        },
        {
          "duration": 0.14285699999999224,
          "durationTicks": 48,
          "midi": 70,
          "name": "A#4",
          "ticks": 93072,
          "time": 276.999723,
          "velocity": 0.47244094488188976
        },
        {
          "duration": 0.14285699999999224,
          "durationTicks": 48,
          "midi": 69,
          "name": "A4",
          "ticks": 93120,
          "time": 277.14258,
          "velocity": 0.47244094488188976
        },
        {
          "duration": 0.14285700000004908,
          "durationTicks": 48,
          "midi": 70,
          "name": "A#4",
          "ticks": 93168,
          "time": 277.285437,
          "velocity": 0.47244094488188976
        },
        {
          "duration": 0.14285699999999224,
          "durationTicks": 48,
          "midi": 69,
          "name": "A4",
          "ticks": 93216,
          "time": 277.42829400000005,
          "velocity": 0.47244094488188976
        },
        {
          "duration": 0.14285699999999224,
          "durationTicks": 48,
          "midi": 70,
          "name": "A#4",
          "ticks": 93264,
          "time": 277.57115100000004,
          "velocity": 0.47244094488188976
        },
        {
          "duration": 0.14285699999999224,
          "durationTicks": 48,
          "midi": 69,
          "name": "A4",
          "ticks": 93312,
          "time": 277.71400800000004,
          "velocity": 0.47244094488188976
        },
        {
          "duration": 0.14285699999999224,
          "durationTicks": 48,
          "midi": 70,
          "name": "A#4",
          "ticks": 93360,
          "time": 277.856865,
          "velocity": 0.47244094488188976
        },
        {
          "duration": 0.14285699999999224,
          "durationTicks": 48,
          "midi": 69,
          "name": "A4",
          "ticks": 93408,
          "time": 277.999722,
          "velocity": 0.47244094488188976
        },
        {
          "duration": 0.14285699999999224,
          "durationTicks": 48,
          "midi": 70,
          "name": "A#4",
          "ticks": 93456,
          "time": 278.142579,
          "velocity": 0.47244094488188976
        },
        {
          "duration": 0.14285700000004908,
          "durationTicks": 48,
          "midi": 70,
          "name": "A#4",
          "ticks": 93552,
          "time": 278.428293,
          "velocity": 0.47244094488188976
        },
        {
          "duration": 0.14285699999999224,
          "durationTicks": 48,
          "midi": 70,
          "name": "A#4",
          "ticks": 93648,
          "time": 278.71400700000004,
          "velocity": 0.47244094488188976
        },
        {
          "duration": 0.14285699999999224,
          "durationTicks": 48,
          "midi": 69,
          "name": "A4",
          "ticks": 93696,
          "time": 278.85686400000003,
          "velocity": 0.47244094488188976
        },
        {
          "duration": 0.14285699999999224,
          "durationTicks": 48,
          "midi": 70,
          "name": "A#4",
          "ticks": 93744,
          "time": 278.999721,
          "velocity": 0.47244094488188976
        },
        {
          "duration": 0.14285699999999224,
          "durationTicks": 48,
          "midi": 69,
          "name": "A4",
          "ticks": 93792,
          "time": 279.142578,
          "velocity": 0.47244094488188976
        },
        {
          "duration": 0.14285699999999224,
          "durationTicks": 48,
          "midi": 70,
          "name": "A#4",
          "ticks": 93840,
          "time": 279.285435,
          "velocity": 0.47244094488188976
        },
        {
          "duration": 0.14285700000004908,
          "durationTicks": 48,
          "midi": 69,
          "name": "A4",
          "ticks": 93888,
          "time": 279.428292,
          "velocity": 0.47244094488188976
        },
        {
          "duration": 0.14285699999999224,
          "durationTicks": 48,
          "midi": 70,
          "name": "A#4",
          "ticks": 93936,
          "time": 279.57114900000005,
          "velocity": 0.47244094488188976
        },
        {
          "duration": 0.14285699999999224,
          "durationTicks": 48,
          "midi": 69,
          "name": "A4",
          "ticks": 93984,
          "time": 279.71400600000004,
          "velocity": 0.47244094488188976
        },
        {
          "duration": 0.14285699999999224,
          "durationTicks": 48,
          "midi": 70,
          "name": "A#4",
          "ticks": 94032,
          "time": 279.85686300000003,
          "velocity": 0.47244094488188976
        },
        {
          "duration": 0.14285699999999224,
          "durationTicks": 48,
          "midi": 69,
          "name": "A4",
          "ticks": 94080,
          "time": 279.99972,
          "velocity": 0.47244094488188976
        },
        {
          "duration": 0.14285699999999224,
          "durationTicks": 48,
          "midi": 70,
          "name": "A#4",
          "ticks": 94128,
          "time": 280.142577,
          "velocity": 0.47244094488188976
        },
        {
          "duration": 0.14285699999999224,
          "durationTicks": 48,
          "midi": 69,
          "name": "A4",
          "ticks": 94176,
          "time": 280.285434,
          "velocity": 0.47244094488188976
        },
        {
          "duration": 0.14285700000004908,
          "durationTicks": 48,
          "midi": 70,
          "name": "A#4",
          "ticks": 94224,
          "time": 280.428291,
          "velocity": 0.47244094488188976
        },
        {
          "duration": 0.14285699999999224,
          "durationTicks": 48,
          "midi": 70,
          "name": "A#4",
          "ticks": 94320,
          "time": 280.71400500000004,
          "velocity": 0.47244094488188976
        },
        {
          "duration": 0.14285699999999224,
          "durationTicks": 48,
          "midi": 70,
          "name": "A#4",
          "ticks": 94416,
          "time": 280.999719,
          "velocity": 0.47244094488188976
        },
        {
          "duration": 0.14285699999999224,
          "durationTicks": 48,
          "midi": 69,
          "name": "A4",
          "ticks": 94464,
          "time": 281.142576,
          "velocity": 0.47244094488188976
        },
        {
          "duration": 0.14285699999999224,
          "durationTicks": 48,
          "midi": 70,
          "name": "A#4",
          "ticks": 94512,
          "time": 281.285433,
          "velocity": 0.47244094488188976
        },
        {
          "duration": 0.14285699999999224,
          "durationTicks": 48,
          "midi": 69,
          "name": "A4",
          "ticks": 94560,
          "time": 281.42829,
          "velocity": 0.47244094488188976
        },
        {
          "duration": 0.14285700000004908,
          "durationTicks": 48,
          "midi": 70,
          "name": "A#4",
          "ticks": 94608,
          "time": 281.571147,
          "velocity": 0.47244094488188976
        },
        {
          "duration": 0.14285699999999224,
          "durationTicks": 48,
          "midi": 69,
          "name": "A4",
          "ticks": 94656,
          "time": 281.71400400000005,
          "velocity": 0.47244094488188976
        },
        {
          "duration": 0.14285699999999224,
          "durationTicks": 48,
          "midi": 70,
          "name": "A#4",
          "ticks": 94704,
          "time": 281.85686100000004,
          "velocity": 0.47244094488188976
        },
        {
          "duration": 0.14285699999999224,
          "durationTicks": 48,
          "midi": 69,
          "name": "A4",
          "ticks": 94752,
          "time": 281.99971800000003,
          "velocity": 0.47244094488188976
        },
        {
          "duration": 0.14285699999999224,
          "durationTicks": 48,
          "midi": 70,
          "name": "A#4",
          "ticks": 94800,
          "time": 282.142575,
          "velocity": 0.47244094488188976
        },
        {
          "duration": 0.14285699999999224,
          "durationTicks": 48,
          "midi": 69,
          "name": "A4",
          "ticks": 94848,
          "time": 282.285432,
          "velocity": 0.47244094488188976
        },
        {
          "duration": 0.14285699999999224,
          "durationTicks": 48,
          "midi": 70,
          "name": "A#4",
          "ticks": 94896,
          "time": 282.428289,
          "velocity": 0.47244094488188976
        },
        {
          "duration": 0.14285700000004908,
          "durationTicks": 48,
          "midi": 69,
          "name": "A4",
          "ticks": 94944,
          "time": 282.571146,
          "velocity": 0.47244094488188976
        },
        {
          "duration": 0.14285699999999224,
          "durationTicks": 48,
          "midi": 70,
          "name": "A#4",
          "ticks": 94992,
          "time": 282.71400300000005,
          "velocity": 0.47244094488188976
        },
        {
          "duration": 0.14285699999999224,
          "durationTicks": 48,
          "midi": 70,
          "name": "A#4",
          "ticks": 95088,
          "time": 282.99971700000003,
          "velocity": 0.47244094488188976
        },
        {
          "duration": 0.14285699999999224,
          "durationTicks": 48,
          "midi": 70,
          "name": "A#4",
          "ticks": 95184,
          "time": 283.285431,
          "velocity": 0.47244094488188976
        },
        {
          "duration": 0.14285699999999224,
          "durationTicks": 48,
          "midi": 69,
          "name": "A4",
          "ticks": 95232,
          "time": 283.428288,
          "velocity": 0.47244094488188976
        },
        {
          "duration": 0.14285700000004908,
          "durationTicks": 48,
          "midi": 70,
          "name": "A#4",
          "ticks": 95280,
          "time": 283.571145,
          "velocity": 0.47244094488188976
        },
        {
          "duration": 0.14285699999999224,
          "durationTicks": 48,
          "midi": 69,
          "name": "A4",
          "ticks": 95328,
          "time": 283.71400200000005,
          "velocity": 0.47244094488188976
        },
        {
          "duration": 0.14285699999999224,
          "durationTicks": 48,
          "midi": 70,
          "name": "A#4",
          "ticks": 95376,
          "time": 283.85685900000004,
          "velocity": 0.47244094488188976
        },
        {
          "duration": 0.14285699999999224,
          "durationTicks": 48,
          "midi": 69,
          "name": "A4",
          "ticks": 95424,
          "time": 283.99971600000003,
          "velocity": 0.47244094488188976
        },
        {
          "duration": 0.14285699999999224,
          "durationTicks": 48,
          "midi": 70,
          "name": "A#4",
          "ticks": 95472,
          "time": 284.142573,
          "velocity": 0.47244094488188976
        },
        {
          "duration": 0.14285699999999224,
          "durationTicks": 48,
          "midi": 69,
          "name": "A4",
          "ticks": 95520,
          "time": 284.28543,
          "velocity": 0.47244094488188976
        },
        {
          "duration": 0.14285699999999224,
          "durationTicks": 48,
          "midi": 70,
          "name": "A#4",
          "ticks": 95568,
          "time": 284.428287,
          "velocity": 0.47244094488188976
        },
        {
          "duration": 0.14285699999999224,
          "durationTicks": 48,
          "midi": 69,
          "name": "A4",
          "ticks": 95616,
          "time": 284.571144,
          "velocity": 0.47244094488188976
        },
        {
          "duration": 0.14285700000004908,
          "durationTicks": 48,
          "midi": 70,
          "name": "A#4",
          "ticks": 95664,
          "time": 284.714001,
          "velocity": 0.47244094488188976
        },
        {
          "duration": 0.14285699999999224,
          "durationTicks": 48,
          "midi": 69,
          "name": "A4",
          "ticks": 95712,
          "time": 284.85685800000005,
          "velocity": 0.47244094488188976
        },
        {
          "duration": 0.14285699999999224,
          "durationTicks": 48,
          "midi": 70,
          "name": "A#4",
          "ticks": 95760,
          "time": 284.99971500000004,
          "velocity": 0.47244094488188976
        },
        {
          "duration": 0.14285699999999224,
          "durationTicks": 48,
          "midi": 70,
          "name": "A#4",
          "ticks": 95856,
          "time": 285.285429,
          "velocity": 0.47244094488188976
        },
        {
          "duration": 0.14285699999999224,
          "durationTicks": 48,
          "midi": 70,
          "name": "A#4",
          "ticks": 95952,
          "time": 285.571143,
          "velocity": 0.47244094488188976
        }
      ],
      "endOfTrackTicks": 96000
    },
    {
      "channel": 9,
      "controlChanges": {
        "7": [
          {
            "number": 7,
            "ticks": 0,
            "time": 0,
            "value": 0.7874015748031497
          }
        ],
        "10": [
          {
            "number": 10,
            "ticks": 0,
            "time": 0,
            "value": 0.5039370078740157
          }
        ]
      },
      "pitchBends": [],
      "instrument": {
        "family": "drums",
        "number": 16,
        "name": "power kit"
      },
      "name": "toms                ",
      "notes": [
        {
          "duration": 0.14285699999999935,
          "durationTicks": 48,
          "midi": 45,
          "name": "A2",
          "ticks": 18960,
          "time": 56.428515000000004,
          "velocity": 0.7559055118110236
        },
        {
          "duration": 0.5714280000000045,
          "durationTicks": 192,
          "midi": 41,
          "name": "F2",
          "ticks": 19008,
          "time": 56.571372000000004,
          "velocity": 0.7559055118110236
        },
        {
          "duration": 0.14285699999999224,
          "durationTicks": 48,
          "midi": 43,
          "name": "G2",
          "ticks": 49680,
          "time": 147.856995,
          "velocity": 0.7559055118110236
        },
        {
          "duration": 0.5714279999999974,
          "durationTicks": 192,
          "midi": 41,
          "name": "F2",
          "ticks": 49728,
          "time": 147.999852,
          "velocity": 0.7559055118110236
        },
        {
          "duration": 0.14285699999999224,
          "durationTicks": 48,
          "midi": 43,
          "name": "G2",
          "ticks": 83472,
          "time": 248.42832300000003,
          "velocity": 0.7559055118110236
        },
        {
          "duration": 0.5714279999999974,
          "durationTicks": 192,
          "midi": 41,
          "name": "F2",
          "ticks": 83520,
          "time": 248.57118000000003,
          "velocity": 0.7559055118110236
        }
      ],
      "endOfTrackTicks": 83712
    },
    {
      "channel": 0,
      "controlChanges": {},
      "pitchBends": [],
      "instrument": {
        "family": "piano",
        "number": 0,
        "name": "acoustic grand piano"
      },
      "name": "====================",
      "notes": [],
      "endOfTrackTicks": 0
    },
    {
      "channel": 0,
      "controlChanges": {},
      "pitchBends": [],
      "instrument": {
        "family": "piano",
        "number": 0,
        "name": "acoustic grand piano"
      },
      "name": "techno-tune         ",
      "notes": [],
      "endOfTrackTicks": 0
    },
    {
      "channel": 0,
      "controlChanges": {},
      "pitchBends": [],
      "instrument": {
        "family": "piano",
        "number": 0,
        "name": "acoustic grand piano"
      },
      "name": "converted from MOD  ",
      "notes": [],
      "endOfTrackTicks": 0
    },
    {
      "channel": 0,
      "controlChanges": {},
      "pitchBends": [],
      "instrument": {
        "family": "piano",
        "number": 0,
        "name": "acoustic grand piano"
      },
      "name": "to MID and arranged ",
      "notes": [],
      "endOfTrackTicks": 0
    },
    {
      "channel": 0,
      "controlChanges": {},
      "pitchBends": [],
      "instrument": {
        "family": "piano",
        "number": 0,
        "name": "acoustic grand piano"
      },
      "name": "by -.\\\\ike Doyle    ",
      "notes": [],
      "endOfTrackTicks": 0
    },
    {
      "channel": 0,
      "controlChanges": {},
      "pitchBends": [],
      "instrument": {
        "family": "piano",
        "number": 0,
        "name": "acoustic grand piano"
      },
      "name": "for the Roland Sound",
      "notes": [],
      "endOfTrackTicks": 0
    },
    {
      "channel": 0,
      "controlChanges": {},
      "pitchBends": [],
      "instrument": {
        "family": "piano",
        "number": 0,
        "name": "acoustic grand piano"
      },
      "name": "Canvas & other      ",
      "notes": [],
      "endOfTrackTicks": 0
    },
    {
      "channel": 0,
      "controlChanges": {},
      "pitchBends": [],
      "instrument": {
        "family": "piano",
        "number": 0,
        "name": "acoustic grand piano"
      },
      "name": "General MIDI synths.",
      "notes": [],
      "endOfTrackTicks": 0
    },
    {
      "channel": 0,
      "controlChanges": {},
      "pitchBends": [],
      "instrument": {
        "family": "piano",
        "number": 0,
        "name": "acoustic grand piano"
      },
      "name": "Want more? Call:    ",
      "notes": [],
      "endOfTrackTicks": 0
    },
    {
      "channel": 0,
      "controlChanges": {},
      "pitchBends": [],
      "instrument": {
        "family": "piano",
        "number": 0,
        "name": "acoustic grand piano"
      },
      "name": "Power Windows BBS   ",
      "notes": [],
      "endOfTrackTicks": 0
    },
    {
      "channel": 0,
      "controlChanges": {},
      "pitchBends": [],
      "instrument": {
        "family": "piano",
        "number": 0,
        "name": "acoustic grand piano"
      },
      "name": "205-881-8619        ",
      "notes": [],
      "endOfTrackTicks": 0
    },
    {
      "channel": 0,
      "controlChanges": {},
      "pitchBends": [],
      "instrument": {
        "family": "piano",
        "number": 0,
        "name": "acoustic grand piano"
      },
      "name": "-.\\\\.               ",
      "notes": [],
      "endOfTrackTicks": 0
    },
    {
      "channel": 0,
      "controlChanges": {},
      "pitchBends": [],
      "instrument": {
        "family": "piano",
        "number": 0,
        "name": "acoustic grand piano"
      },
      "name": "====================",
      "notes": [],
      "endOfTrackTicks": 0
    }
  ]
}