{
  "header": {
    "keySignatures": [
      {
        "key": "C",
        "scale": "major",
        "ticks": 0
      }
    ],
    "meta": {
      "title": "Axel F",
      "artist": "Harold Faltermeyer",
      "creator": "unknown"
    },
    "originalMeta": [
      {
        "text": "Fat Synth Bass\n",
        "ticks": 0,
        "type": "text"
      },
      {
        "text": "Proteus Drums\n",
        "ticks": 0,
        "type": "text"
      },
      {
        "text": "Spacey Synth\n",
        "ticks": 0,
        "type": "text"
      },
      {
        "text": "Breathy Vocals\n",
        "ticks": 0,
        "type": "text"
      },
      {
        "text": "Harmonic Synth",
        "ticks": 0,
        "type": "text"
      },
      {
        "text": "Flute",
        "ticks": 1,
        "type": "text"
      },
      {
        "text": "Breathy Vocals",
        "ticks": 1,
        "type": "text"
      },
      {
        "text": "Harmonic Synth",
        "ticks": 1,
        "type": "text"
      },
      {
        "text": "Modern Harp",
        "ticks": 1,
        "type": "text"
      },
      {
        "text": "LA Synth",
        "ticks": 1,
        "type": "text"
      },
      {
        "text": "Light Mallet/Glockenspiel",
        "ticks": 1,
        "type": "text"
      },
      {
        "text": "Vibes",
        "ticks": 1,
        "type": "text"
      },
      {
        "text": "Trumpets",
        "ticks": 1,
        "type": "text"
      },
      {
        "text": "Electric Guitar",
        "ticks": 1,
        "type": "text"
      },
      {
        "text": "Light Mallet/Glockenspiel",
        "ticks": 1,
        "type": "text"
      },
      {
        "text": "Metallic Bell Sound",
        "ticks": 1,
        "type": "text"
      },
      {
        "text": "Trumpets",
        "ticks": 1,
        "type": "text"
      },
      {
        "text": "Space Clavier",
        "ticks": 1,
        "type": "text"
      },
      {
        "text": "Talking Drums - Toms",
        "ticks": 1,
        "type": "text"
      },
      {
        "text": "Sandpaper",
        "ticks": 1,
        "type": "text"
      },
      {
        "text": "Soft Horn",
        "ticks": 1,
        "type": "text"
      },
      {
        "text": "Modern Harp",
        "ticks": 16,
        "type": "text"
      }
    ],
    "name": "untitled",
    "ppq": 480,
    "tempos": [
      {
        "bpm": 120,
        "ticks": 0
      }
    ],
    "timeSignatures": [
      {
        "ticks": 0,
        "timeSignature": [
          4,
          4
        ],
        "measures": 0
      }
    ]
  },
  "tracks": [
    {
      "channel": 0,
      "controlChanges": {
        "7": [
          {
            "number": 7,
            "ticks": 0,
            "time": 0,
            "value": 0.8346456692913385
          }
        ]
      },
      "pitchBends": [],
      "instrument": {
        "family": "bass",
        "number": 38,
        "name": "synth bass 1"
      },
      "name": "untitled",
      "notes": [
        {
          "duration": 0.1281250000000007,
          "durationTicks": 123,
          "midi": 29,
          "name": "F1",
          "ticks": 15360,
          "time": 16,
          "velocity": 0.5039370078740157
        },
        {
          "duration": 0.12291666666666501,
          "durationTicks": 118,
          "midi": 41,
          "name": "F2",
          "ticks": 15840,
          "time": 16.5,
          "velocity": 0.5039370078740157
        },
        {
          "duration": 0.11458333333333215,
          "durationTicks": 110,
          "midi": 27,
          "name": "D#1",
          "ticks": 16200,
          "time": 16.875,
          "velocity": 0.5039370078740157
        },
        {
          "duration": 0.07604166666666501,
          "durationTicks": 73,
          "midi": 39,
          "name": "D#2",
          "ticks": 16440,
          "time": 17.125,
          "velocity": 0.5039370078740157
        },
        {
          "duration": 0.06770833333333215,
          "durationTicks": 65,
          "midi": 24,
          "name": "C1",
          "ticks": 16560,
          "time": 17.25,
          "velocity": 0.5039370078740157
        },
        {
          "duration": 0.08854166666666785,
          "durationTicks": 85,
          "midi": 36,
          "name": "C2",
          "ticks": 16800,
          "time": 17.5,
          "velocity": 0.5039370078740157
        },
        {
          "duration": 0.06041666666666501,
          "durationTicks": 58,
          "midi": 39,
          "name": "D#2",
          "ticks": 17040,
          "time": 17.75,
          "velocity": 0.5039370078740157
        },
        {
          "duration": 0.09166666666666501,
          "durationTicks": 88,
          "midi": 29,
          "name": "F1",
          "ticks": 17280,
          "time": 18,
          "velocity": 0.5039370078740157
        },
        {
          "duration": 0.12291666666666501,
          "durationTicks": 118,
          "midi": 41,
          "name": "F2",
          "ticks": 17760,
          "time": 18.5,
          "velocity": 0.5039370078740157
        },
        {
          "duration": 0.08333333333333215,
          "durationTicks": 80,
          "midi": 24,
          "name": "C1",
          "ticks": 18360,
          "time": 19.125,
          "velocity": 0.5039370078740157
        },
        {
          "duration": 0.07291666666666785,
          "durationTicks": 70,
          "midi": 36,
          "name": "C2",
          "ticks": 18480,
          "time": 19.25,
          "velocity": 0.5039370078740157
        },
        {
          "duration": 0.08333333333333215,
          "durationTicks": 80,
          "midi": 39,
          "name": "D#2",
          "ticks": 18720,
          "time": 19.5,
          "velocity": 0.5039370078740157
        },
        {
          "duration": 0.07604166666666501,
          "durationTicks": 73,
          "midi": 41,
          "name": "F2",
          "ticks": 18960,
          "time": 19.75,
          "velocity": 0.5039370078740157
        },
        {
          "duration": 0.08645833333333286,
          "durationTicks": 83,
          "midi": 25,
          "name": "C#1",
          "ticks": 19200,
          "time": 20,
          "velocity": 0.5039370078740157
        },
        {
          "duration": 0.11250000000000071,
          "durationTicks": 108,
          "midi": 37,
          "name": "C#2",
          "ticks": 19680,
          "time": 20.5,
          "velocity": 0.5039370078740157
        },
        {
          "duration": 0.09166666666666501,
          "durationTicks": 88,
          "midi": 27,
          "name": "D#1",
          "ticks": 20040,
          "time": 20.875,
          "velocity": 0.5039370078740157
        },
        {
          "duration": 0.0625,
          "durationTicks": 60,
          "midi": 39,
          "name": "D#2",
          "ticks": 20280,
          "time": 21.125,
          "velocity": 0.5039370078740157
        },
        {
          "duration": 0.06562500000000071,
          "durationTicks": 63,
          "midi": 24,
          "name": "C1",
          "ticks": 20400,
          "time": 21.25,
          "velocity": 0.5039370078740157
        },
        {
          "duration": 0.07604166666666501,
          "durationTicks": 73,
          "midi": 27,
          "name": "D#1",
          "ticks": 20640,
          "time": 21.5,
          "velocity": 0.5039370078740157
        },
        {
          "duration": 0.07604166666666501,
          "durationTicks": 73,
          "midi": 29,
          "name": "F1",
          "ticks": 20880,
          "time": 21.75,
          "velocity": 0.5039370078740157
        },
        {
          "duration": 0.0625,
          "durationTicks": 60,
          "midi": 41,
          "name": "F2",
          "ticks": 21120,
          "time": 22,
          "velocity": 0.5039370078740157
        },
        {
          "duration": 0.06562500000000071,
          "durationTicks": 63,
          "midi": 39,
          "name": "D#2",
          "ticks": 22200,
          "time": 23.125,
          "velocity": 0.5039370078740157
        },
        {
          "duration": 0.078125,
          "durationTicks": 75,
          "midi": 36,
          "name": "C2",
          "ticks": 22320,
          "time": 23.25,
          "velocity": 0.5039370078740157
        },
        {
          "duration": 0.07604166666666501,
          "durationTicks": 73,
          "midi": 34,
          "name": "A#1",
          "ticks": 22560,
          "time": 23.5,
          "velocity": 0.5039370078740157
        },
        {
          "duration": 0.08125000000000071,
          "durationTicks": 78,
          "midi": 32,
          "name": "G#1",
          "ticks": 22800,
          "time": 23.75,
          "velocity": 0.5039370078740157
        },
        {
          "duration": 0.1281250000000007,
          "durationTicks": 123,
          "midi": 29,
          "name": "F1",
          "ticks": 23040,
          "time": 24,
          "velocity": 0.5039370078740157
        },
        {
          "duration": 0.12291666666666501,
          "durationTicks": 118,
          "midi": 41,
          "name": "F2",
          "ticks": 23520,
          "time": 24.5,
          "velocity": 0.5039370078740157
        },
        {
          "duration": 0.11458333333333215,
          "durationTicks": 110,
          "midi": 27,
          "name": "D#1",
          "ticks": 23880,
          "time": 24.875,
          "velocity": 0.5039370078740157
        },
        {
          "duration": 0.07604166666666501,
          "durationTicks": 73,
          "midi": 39,
          "name": "D#2",
          "ticks": 24120,
          "time": 25.125,
          "velocity": 0.5039370078740157
        },
        {
          "duration": 0.06770833333333215,
          "durationTicks": 65,
          "midi": 24,
          "name": "C1",
          "ticks": 24240,
          "time": 25.25,
          "velocity": 0.5039370078740157
        },
        {
          "duration": 0.08854166666666785,
          "durationTicks": 85,
          "midi": 36,
          "name": "C2",
          "ticks": 24480,
          "time": 25.5,
          "velocity": 0.5039370078740157
        },
        {
          "duration": 0.06041666666666501,
          "durationTicks": 58,
          "midi": 39,
          "name": "D#2",
          "ticks": 24720,
          "time": 25.75,
          "velocity": 0.5039370078740157
        },
        {
          "duration": 0.09166666666666501,
          "durationTicks": 88,
          "midi": 29,
          "name": "F1",
          "ticks": 24960,
          "time": 26,
          "velocity": 0.5039370078740157
        },
        {
          "duration": 0.12291666666666501,
          "durationTicks": 118,
          "midi": 41,
          "name": "F2",
          "ticks": 25440,
          "time": 26.5,
          "velocity": 0.5039370078740157
        },
        {
          "duration": 0.08333333333333215,
          "durationTicks": 80,
          "midi": 24,
          "name": "C1",
          "ticks": 26040,
          "time": 27.125,
          "velocity": 0.5039370078740157
        },
        {
          "duration": 0.07291666666666785,
          "durationTicks": 70,
          "midi": 36,
          "name": "C2",
          "ticks": 26160,
          "time": 27.25,
          "velocity": 0.5039370078740157
        },
        {
          "duration": 0.08333333333333215,
          "durationTicks": 80,
          "midi": 39,
          "name": "D#2",
          "ticks": 26400,
          "time": 27.5,
          "velocity": 0.5039370078740157
        },
        {
          "duration": 0.07604166666666501,
          "durationTicks": 73,
          "midi": 41,
          "name": "F2",
          "ticks": 26640,
          "time": 27.75,
          "velocity": 0.5039370078740157
        },
        {
          "duration": 0.08645833333333286,
          "durationTicks": 83,
          "midi": 25,
          "name": "C#1",
          "ticks": 26880,
          "time": 28,
          "velocity": 0.5039370078740157
        },
        {
          "duration": 0.11250000000000071,
          "durationTicks": 108,
          "midi": 37,
          "name": "C#2",
          "ticks": 27360,
          "time": 28.5,
          "velocity": 0.5039370078740157
        },
        {
          "duration": 0.09166666666666501,
          "durationTicks": 88,
          "midi": 27,
          "name": "D#1",
          "ticks": 27720,
          "time": 28.875,
          "velocity": 0.5039370078740157
        },
        {
          "duration": 0.0625,
          "durationTicks": 60,
          "midi": 39,
          "name": "D#2",
          "ticks": 27960,
          "time": 29.125,
          "velocity": 0.5039370078740157
        },
        {
          "duration": 0.06562500000000071,
          "durationTicks": 63,
          "midi": 24,
          "name": "C1",
          "ticks": 28080,
          "time": 29.25,
          "velocity": 0.5039370078740157
        },
        {
          "duration": 0.07604166666666501,
          "durationTicks": 73,
          "midi": 27,
          "name": "D#1",
          "ticks": 28320,
          "time": 29.5,
          "velocity": 0.5039370078740157
        },
        {
          "duration": 0.07604166666666501,
          "durationTicks": 73,
          "midi": 29,
          "name": "F1",
          "ticks": 28560,
          "time": 29.75,
          "velocity": 0.5039370078740157
        },
        {
          "duration": 0.0625,
          "durationTicks": 60,
          "midi": 41,
          "name": "F2",
          "ticks": 28800,
          "time": 30,
          "velocity": 0.5039370078740157
        },
        {
          "duration": 0.06562500000000071,
          "durationTicks": 63,
          "midi": 39,
          "name": "D#2",
          "ticks": 29880,
          "time": 31.125,
          "velocity": 0.5039370078740157
        },
        {
          "duration": 0.078125,
          "durationTicks": 75,
          "midi": 36,
          "name": "C2",
          "ticks": 30000,
          "time": 31.25,
          "velocity": 0.5039370078740157
        },
        {
          "duration": 0.07604166666666501,
          "durationTicks": 73,
          "midi": 34,
          "name": "A#1",
          "ticks": 30240,
          "time": 31.5,
          "velocity": 0.5039370078740157
        },
        {
          "duration": 0.08125000000000071,
          "durationTicks": 78,
          "midi": 32,
          "name": "G#1",
          "ticks": 30480,
          "time": 31.75,
          "velocity": 0.5039370078740157
        },
        {
          "duration": 0.12812499999999716,
          "durationTicks": 123,
          "midi": 29,
          "name": "F1",
          "ticks": 30720,
          "time": 32,
          "velocity": 0.5039370078740157
        },
        {
          "duration": 0.12291666666666856,
          "durationTicks": 118,
          "midi": 41,
          "name": "F2",
          "ticks": 31200,
          "time": 32.5,
          "velocity": 0.5039370078740157
        },
        {
          "duration": 0.1145833333333357,
          "durationTicks": 110,
          "midi": 27,
          "name": "D#1",
          "ticks": 31560,
          "time": 32.875,
          "velocity": 0.5039370078740157
        },
        {
          "duration": 0.07604166666666856,
          "durationTicks": 73,
          "midi": 39,
          "name": "D#2",
          "ticks": 31800,
          "time": 33.125,
          "velocity": 0.5039370078740157
        },
        {
          "duration": 0.0677083333333357,
          "durationTicks": 65,
          "midi": 24,
          "name": "C1",
          "ticks": 31920,
          "time": 33.25,
          "velocity": 0.5039370078740157
        },
        {
          "duration": 0.0885416666666643,
          "durationTicks": 85,
          "midi": 36,
          "name": "C2",
          "ticks": 32160,
          "time": 33.5,
          "velocity": 0.5039370078740157
        },
        {
          "duration": 0.06041666666666856,
          "durationTicks": 58,
          "midi": 39,
          "name": "D#2",
          "ticks": 32400,
          "time": 33.75,
          "velocity": 0.5039370078740157
        },
        {
          "duration": 0.09166666666666856,
          "durationTicks": 88,
          "midi": 29,
          "name": "F1",
          "ticks": 32640,
          "time": 34,
          "velocity": 0.5039370078740157
        },
        {
          "duration": 0.12291666666666856,
          "durationTicks": 118,
          "midi": 41,
          "name": "F2",
          "ticks": 33120,
          "time": 34.5,
          "velocity": 0.5039370078740157
        },
        {
          "duration": 0.0833333333333357,
          "durationTicks": 80,
          "midi": 24,
          "name": "C1",
          "ticks": 33720,
          "time": 35.125,
          "velocity": 0.5039370078740157
        },
        {
          "duration": 0.0729166666666643,
          "durationTicks": 70,
          "midi": 36,
          "name": "C2",
          "ticks": 33840,
          "time": 35.25,
          "velocity": 0.5039370078740157
        },
        {
          "duration": 0.0833333333333357,
          "durationTicks": 80,
          "midi": 39,
          "name": "D#2",
          "ticks": 34080,
          "time": 35.5,
          "velocity": 0.5039370078740157
        },
        {
          "duration": 0.07604166666666856,
          "durationTicks": 73,
          "midi": 41,
          "name": "F2",
          "ticks": 34320,
          "time": 35.75,
          "velocity": 0.5039370078740157
        },
        {
          "duration": 0.08645833333333286,
          "durationTicks": 83,
          "midi": 25,
          "name": "C#1",
          "ticks": 34560,
          "time": 36,
          "velocity": 0.5039370078740157
        },
        {
          "duration": 0.11249999999999716,
          "durationTicks": 108,
          "midi": 37,
          "name": "C#2",
          "ticks": 35040,
          "time": 36.5,
          "velocity": 0.5039370078740157
        },
        {
          "duration": 0.09166666666666856,
          "durationTicks": 88,
          "midi": 27,
          "name": "D#1",
          "ticks": 35400,
          "time": 36.875,
          "velocity": 0.5039370078740157
        },
        {
          "duration": 0.0625,
          "durationTicks": 60,
          "midi": 39,
          "name": "D#2",
          "ticks": 35640,
          "time": 37.125,
          "velocity": 0.5039370078740157
        },
        {
          "duration": 0.06562499999999716,
          "durationTicks": 63,
          "midi": 24,
          "name": "C1",
          "ticks": 35760,
          "time": 37.25,
          "velocity": 0.5039370078740157
        },
        {
          "duration": 0.07604166666666856,
          "durationTicks": 73,
          "midi": 27,
          "name": "D#1",
          "ticks": 36000,
          "time": 37.5,
          "velocity": 0.5039370078740157
        },
        {
          "duration": 0.07604166666666856,
          "durationTicks": 73,
          "midi": 29,
          "name": "F1",
          "ticks": 36240,
          "time": 37.75,
          "velocity": 0.5039370078740157
        },
        {
          "duration": 0.0625,
          "durationTicks": 60,
          "midi": 41,
          "name": "F2",
          "ticks": 36480,
          "time": 38,
          "velocity": 0.5039370078740157
        },
        {
          "duration": 0.06562499999999716,
          "durationTicks": 63,
          "midi": 39,
          "name": "D#2",
          "ticks": 37560,
          "time": 39.125,
          "velocity": 0.5039370078740157
        },
        {
          "duration": 0.078125,
          "durationTicks": 75,
          "midi": 36,
          "name": "C2",
          "ticks": 37680,
          "time": 39.25,
          "velocity": 0.5039370078740157
        },
        {
          "duration": 0.07604166666666856,
          "durationTicks": 73,
          "midi": 34,
          "name": "A#1",
          "ticks": 37920,
          "time": 39.5,
          "velocity": 0.5039370078740157
        },
        {
          "duration": 0.08124999999999716,
          "durationTicks": 78,
          "midi": 32,
          "name": "G#1",
          "ticks": 38160,
          "time": 39.75,
          "velocity": 0.5039370078740157
        },
        {
          "duration": 0.12812499999999716,
          "durationTicks": 123,
          "midi": 29,
          "name": "F1",
          "ticks": 38400,
          "time": 40,
          "velocity": 0.5039370078740157
        },
        {
          "duration": 0.12291666666666856,
          "durationTicks": 118,
          "midi": 41,
          "name": "F2",
          "ticks": 38880,
          "time": 40.5,
          "velocity": 0.5039370078740157
        },
        {
          "duration": 0.1145833333333357,
          "durationTicks": 110,
          "midi": 27,
          "name": "D#1",
          "ticks": 39240,
          "time": 40.875,
          "velocity": 0.5039370078740157
        },
        {
          "duration": 0.07604166666666856,
          "durationTicks": 73,
          "midi": 39,
          "name": "D#2",
          "ticks": 39480,
          "time": 41.125,
          "velocity": 0.5039370078740157
        },
        {
          "duration": 0.0677083333333357,
          "durationTicks": 65,
          "midi": 24,
          "name": "C1",
          "ticks": 39600,
          "time": 41.25,
          "velocity": 0.5039370078740157
        },
        {
          "duration": 0.0885416666666643,
          "durationTicks": 85,
          "midi": 36,
          "name": "C2",
          "ticks": 39840,
          "time": 41.5,
          "velocity": 0.5039370078740157
        },
        {
          "duration": 0.06041666666666856,
          "durationTicks": 58,
          "midi": 39,
          "name": "D#2",
          "ticks": 40080,
          "time": 41.75,
          "velocity": 0.5039370078740157
        },
        {
          "duration": 0.09166666666666856,
          "durationTicks": 88,
          "midi": 29,
          "name": "F1",
          "ticks": 40320,
          "time": 42,
          "velocity": 0.5039370078740157
        },
        {
          "duration": 0.12291666666666856,
          "durationTicks": 118,
          "midi": 41,
          "name": "F2",
          "ticks": 40800,
          "time": 42.5,
          "velocity": 0.5039370078740157
        },
        {
          "duration": 0.0833333333333357,
          "durationTicks": 80,
          "midi": 24,
          "name": "C1",
          "ticks": 41400,
          "time": 43.125,
          "velocity": 0.5039370078740157
        },
        {
          "duration": 0.0729166666666643,
          "durationTicks": 70,
          "midi": 36,
          "name": "C2",
          "ticks": 41520,
          "time": 43.25,
          "velocity": 0.5039370078740157
        },
        {
          "duration": 0.0833333333333357,
          "durationTicks": 80,
          "midi": 39,
          "name": "D#2",
          "ticks": 41760,
          "time": 43.5,
          "velocity": 0.5039370078740157
        },
        {
          "duration": 0.07604166666666856,
          "durationTicks": 73,
          "midi": 41,
          "name": "F2",
          "ticks": 42000,
          "time": 43.75,
          "velocity": 0.5039370078740157
        },
        {
          "duration": 0.08645833333333286,
          "durationTicks": 83,
          "midi": 25,
          "name": "C#1",
          "ticks": 42240,
          "time": 44,
          "velocity": 0.5039370078740157
        },
        {
          "duration": 0.11249999999999716,
          "durationTicks": 108,
          "midi": 37,
          "name": "C#2",
          "ticks": 42720,
          "time": 44.5,
          "velocity": 0.5039370078740157
        },
        {
          "duration": 0.09166666666666856,
          "durationTicks": 88,
          "midi": 27,
          "name": "D#1",
          "ticks": 43080,
          "time": 44.875,
          "velocity": 0.5039370078740157
        },
        {
          "duration": 0.0625,
          "durationTicks": 60,
          "midi": 39,
          "name": "D#2",
          "ticks": 43320,
          "time": 45.125,
          "velocity": 0.5039370078740157
        },
        {
          "duration": 0.06562499999999716,
          "durationTicks": 63,
          "midi": 24,
          "name": "C1",
          "ticks": 43440,
          "time": 45.25,
          "velocity": 0.5039370078740157
        },
        {
          "duration": 0.07604166666666856,
          "durationTicks": 73,
          "midi": 27,
          "name": "D#1",
          "ticks": 43680,
          "time": 45.5,
          "velocity": 0.5039370078740157
        },
        {
          "duration": 0.07604166666666856,
          "durationTicks": 73,
          "midi": 29,
          "name": "F1",
          "ticks": 43920,
          "time": 45.75,
          "velocity": 0.5039370078740157
        },
        {
          "duration": 0.0625,
          "durationTicks": 60,
          "midi": 41,
          "name": "F2",
          "ticks": 44160,
          "time": 46,
          "velocity": 0.5039370078740157
        },
        {
          "duration": 0.06562499999999716,
          "durationTicks": 63,
          "midi": 39,
          "name": "D#2",
          "ticks": 45240,
          "time": 47.125,
          "velocity": 0.5039370078740157
        },
        {
          "duration": 0.078125,
          "durationTicks": 75,
          "midi": 36,
          "name": "C2",
          "ticks": 45360,
          "time": 47.25,
          "velocity": 0.5039370078740157
        },
        {
          "duration": 0.07604166666666856,
          "durationTicks": 73,
          "midi": 34,
          "name": "A#1",
          "ticks": 45600,
          "time": 47.5,
          "velocity": 0.5039370078740157
        },
        {
          "duration": 0.08124999999999716,
          "durationTicks": 78,
          "midi": 32,
          "name": "G#1",
          "ticks": 45840,
          "time": 47.75,
          "velocity": 0.5039370078740157
        },
        {
          "duration": 0.12812499999999716,
          "durationTicks": 123,
          "midi": 29,
          "name": "F1",
          "ticks": 46080,
          "time": 48,
          "velocity": 0.5039370078740157
        },
        {
          "duration": 0.12291666666666856,
          "durationTicks": 118,
          "midi": 41,
          "name": "F2",
          "ticks": 46560,
          "time": 48.5,
          "velocity": 0.5039370078740157
        },
        {
          "duration": 0.1145833333333357,
          "durationTicks": 110,
          "midi": 27,
          "name": "D#1",
          "ticks": 46920,
          "time": 48.875,
          "velocity": 0.5039370078740157
        },
        {
          "duration": 0.07604166666666856,
          "durationTicks": 73,
          "midi": 39,
          "name": "D#2",
          "ticks": 47160,
          "time": 49.125,
          "velocity": 0.5039370078740157
        },
        {
          "duration": 0.0677083333333357,
          "durationTicks": 65,
          "midi": 24,
          "name": "C1",
          "ticks": 47280,
          "time": 49.25,
          "velocity": 0.5039370078740157
        },
        {
          "duration": 0.0885416666666643,
          "durationTicks": 85,
          "midi": 36,
          "name": "C2",
          "ticks": 47520,
          "time": 49.5,
          "velocity": 0.5039370078740157
        },
        {
          "duration": 0.06041666666666856,
          "durationTicks": 58,
          "midi": 39,
          "name": "D#2",
          "ticks": 47760,
          "time": 49.75,
          "velocity": 0.5039370078740157
        },
        {
          "duration": 0.09166666666666856,
          "durationTicks": 88,
          "midi": 29,
          "name": "F1",
          "ticks": 48000,
          "time": 50,
          "velocity": 0.5039370078740157
        },
        {
          "duration": 0.12291666666666856,
          "durationTicks": 118,
          "midi": 41,
          "name": "F2",
          "ticks": 48480,
          "time": 50.5,
          "velocity": 0.5039370078740157
        },
        {
          "duration": 0.0833333333333357,
          "durationTicks": 80,
          "midi": 24,
          "name": "C1",
          "ticks": 49080,
          "time": 51.125,
          "velocity": 0.5039370078740157
        },
        {
          "duration": 0.0729166666666643,
          "durationTicks": 70,
          "midi": 36,
          "name": "C2",
          "ticks": 49200,
          "time": 51.25,
          "velocity": 0.5039370078740157
        },
        {
          "duration": 0.0833333333333357,
          "durationTicks": 80,
          "midi": 39,
          "name": "D#2",
          "ticks": 49440,
          "time": 51.5,
          "velocity": 0.5039370078740157
        },
        {
          "duration": 0.07604166666666856,
          "durationTicks": 73,
          "midi": 41,
          "name": "F2",
          "ticks": 49680,
          "time": 51.75,
          "velocity": 0.5039370078740157
        },
        {
          "duration": 0.08645833333333286,
          "durationTicks": 83,
          "midi": 25,
          "name": "C#1",
          "ticks": 49920,
          "time": 52,
          "velocity": 0.5039370078740157
        },
        {
          "duration": 0.11249999999999716,
          "durationTicks": 108,
          "midi": 37,
          "name": "C#2",
          "ticks": 50400,
          "time": 52.5,
          "velocity": 0.5039370078740157
        },
        {
          "duration": 0.09166666666666856,
          "durationTicks": 88,
          "midi": 27,
          "name": "D#1",
          "ticks": 50760,
          "time": 52.875,
          "velocity": 0.5039370078740157
        },
        {
          "duration": 0.0625,
          "durationTicks": 60,
          "midi": 39,
          "name": "D#2",
          "ticks": 51000,
          "time": 53.125,
          "velocity": 0.5039370078740157
        },
        {
          "duration": 0.06562499999999716,
          "durationTicks": 63,
          "midi": 24,
          "name": "C1",
          "ticks": 51120,
          "time": 53.25,
          "velocity": 0.5039370078740157
        },
        {
          "duration": 0.07604166666666856,
          "durationTicks": 73,
          "midi": 27,
          "name": "D#1",
          "ticks": 51360,
          "time": 53.5,
          "velocity": 0.5039370078740157
        },
        {
          "duration": 0.07604166666666856,
          "durationTicks": 73,
          "midi": 29,
          "name": "F1",
          "ticks": 51600,
          "time": 53.75,
          "velocity": 0.5039370078740157
        },
        {
          "duration": 0.0625,
          "durationTicks": 60,
          "midi": 41,
          "name": "F2",
          "ticks": 51840,
          "time": 54,
          "velocity": 0.5039370078740157
        },
        {
          "duration": 0.06562499999999716,
          "durationTicks": 63,
          "midi": 39,
          "name": "D#2",
          "ticks": 52920,
          "time": 55.125,
          "velocity": 0.5039370078740157
        },
        {
          "duration": 0.078125,
          "durationTicks": 75,
          "midi": 36,
          "name": "C2",
          "ticks": 53040,
          "time": 55.25,
          "velocity": 0.5039370078740157
        },
        {
          "duration": 0.07604166666666856,
          "durationTicks": 73,
          "midi": 34,
          "name": "A#1",
          "ticks": 53280,
          "time": 55.5,
          "velocity": 0.5039370078740157
        },
        {
          "duration": 0.08124999999999716,
          "durationTicks": 78,
          "midi": 32,
          "name": "G#1",
          "ticks": 53520,
          "time": 55.75,
          "velocity": 0.5039370078740157
        },
        {
          "duration": 0.12812499999999716,
          "durationTicks": 123,
          "midi": 29,
          "name": "F1",
          "ticks": 53760,
          "time": 56,
          "velocity": 0.5039370078740157
        },
        {
          "duration": 0.12291666666666856,
          "durationTicks": 118,
          "midi": 41,
          "name": "F2",
          "ticks": 54240,
          "time": 56.5,
          "velocity": 0.5039370078740157
        },
        {
          "duration": 0.1145833333333357,
          "durationTicks": 110,
          "midi": 27,
          "name": "D#1",
          "ticks": 54600,
          "time": 56.875,
          "velocity": 0.5039370078740157
        },
        {
          "duration": 0.07604166666666856,
          "durationTicks": 73,
          "midi": 39,
          "name": "D#2",
          "ticks": 54840,
          "time": 57.125,
          "velocity": 0.5039370078740157
        },
        {
          "duration": 0.0677083333333357,
          "durationTicks": 65,
          "midi": 24,
          "name": "C1",
          "ticks": 54960,
          "time": 57.25,
          "velocity": 0.5039370078740157
        },
        {
          "duration": 0.0885416666666643,
          "durationTicks": 85,
          "midi": 36,
          "name": "C2",
          "ticks": 55200,
          "time": 57.5,
          "velocity": 0.5039370078740157
        },
        {
          "duration": 0.06041666666666856,
          "durationTicks": 58,
          "midi": 39,
          "name": "D#2",
          "ticks": 55440,
          "time": 57.75,
          "velocity": 0.5039370078740157
        },
        {
          "duration": 0.09166666666666856,
          "durationTicks": 88,
          "midi": 29,
          "name": "F1",
          "ticks": 55680,
          "time": 58,
          "velocity": 0.5039370078740157
        },
        {
          "duration": 0.12291666666666856,
          "durationTicks": 118,
          "midi": 41,
          "name": "F2",
          "ticks": 56160,
          "time": 58.5,
          "velocity": 0.5039370078740157
        },
        {
          "duration": 0.0833333333333357,
          "durationTicks": 80,
          "midi": 24,
          "name": "C1",
          "ticks": 56760,
          "time": 59.125,
          "velocity": 0.5039370078740157
        },
        {
          "duration": 0.0729166666666643,
          "durationTicks": 70,
          "midi": 36,
          "name": "C2",
          "ticks": 56880,
          "time": 59.25,
          "velocity": 0.5039370078740157
        },
        {
          "duration": 0.0833333333333357,
          "durationTicks": 80,
          "midi": 39,
          "name": "D#2",
          "ticks": 57120,
          "time": 59.5,
          "velocity": 0.5039370078740157
        },
        {
          "duration": 0.07604166666666856,
          "durationTicks": 73,
          "midi": 41,
          "name": "F2",
          "ticks": 57360,
          "time": 59.75,
          "velocity": 0.5039370078740157
        },
        {
          "duration": 0.08645833333333286,
          "durationTicks": 83,
          "midi": 25,
          "name": "C#1",
          "ticks": 57600,
          "time": 60,
          "velocity": 0.5039370078740157
        },
        {
          "duration": 0.11249999999999716,
          "durationTicks": 108,
          "midi": 37,
          "name": "C#2",
          "ticks": 58080,
          "time": 60.5,
          "velocity": 0.5039370078740157
        },
        {
          "duration": 0.09166666666666856,
          "durationTicks": 88,
          "midi": 27,
          "name": "D#1",
          "ticks": 58440,
          "time": 60.875,
          "velocity": 0.5039370078740157
        },
        {
          "duration": 0.0625,
          "durationTicks": 60,
          "midi": 39,
          "name": "D#2",
          "ticks": 58680,
          "time": 61.125,
          "velocity": 0.5039370078740157
        },
        {
          "duration": 0.06562499999999716,
          "durationTicks": 63,
          "midi": 24,
          "name": "C1",
          "ticks": 58800,
          "time": 61.25,
          "velocity": 0.5039370078740157
        },
        {
          "duration": 0.07604166666666856,
          "durationTicks": 73,
          "midi": 27,
          "name": "D#1",
          "ticks": 59040,
          "time": 61.5,
          "velocity": 0.5039370078740157
        },
        {
          "duration": 0.07604166666666856,
          "durationTicks": 73,
          "midi": 29,
          "name": "F1",
          "ticks": 59280,
          "time": 61.75,
          "velocity": 0.5039370078740157
        },
        {
          "duration": 0.0625,
          "durationTicks": 60,
          "midi": 41,
          "name": "F2",
          "ticks": 59520,
          "time": 62,
          "velocity": 0.5039370078740157
        },
        {
          "duration": 0.06562499999999716,
          "durationTicks": 63,
          "midi": 39,
          "name": "D#2",
          "ticks": 60600,
          "time": 63.125,
          "velocity": 0.5039370078740157
        },
        {
          "duration": 0.078125,
          "durationTicks": 75,
          "midi": 36,
          "name": "C2",
          "ticks": 60720,
          "time": 63.25,
          "velocity": 0.5039370078740157
        },
        {
          "duration": 0.07604166666666856,
          "durationTicks": 73,
          "midi": 34,
          "name": "A#1",
          "ticks": 60960,
          "time": 63.5,
          "velocity": 0.5039370078740157
        },
        {
          "duration": 0.08124999999999716,
          "durationTicks": 78,
          "midi": 32,
          "name": "G#1",
          "ticks": 61200,
          "time": 63.75,
          "velocity": 0.5039370078740157
        },
        {
          "duration": 0.12812499999999716,
          "durationTicks": 123,
          "midi": 29,
          "name": "F1",
          "ticks": 61440,
          "time": 64,
          "velocity": 0.5039370078740157
        },
        {
          "duration": 0.12291666666666856,
          "durationTicks": 118,
          "midi": 41,
          "name": "F2",
          "ticks": 61920,
          "time": 64.5,
          "velocity": 0.5039370078740157
        },
        {
          "duration": 0.1145833333333286,
          "durationTicks": 110,
          "midi": 27,
          "name": "D#1",
          "ticks": 62280,
          "time": 64.875,
          "velocity": 0.5039370078740157
        },
        {
          "duration": 0.07604166666666856,
          "durationTicks": 73,
          "midi": 39,
          "name": "D#2",
          "ticks": 62520,
          "time": 65.125,
          "velocity": 0.5039370078740157
        },
        {
          "duration": 0.0677083333333286,
          "durationTicks": 65,
          "midi": 24,
          "name": "C1",
          "ticks": 62640,
          "time": 65.25,
          "velocity": 0.5039370078740157
        },
        {
          "duration": 0.0885416666666714,
          "durationTicks": 85,
          "midi": 36,
          "name": "C2",
          "ticks": 62880,
          "time": 65.5,
          "velocity": 0.5039370078740157
        },
        {
          "duration": 0.06041666666666856,
          "durationTicks": 58,
          "midi": 39,
          "name": "D#2",
          "ticks": 63120,
          "time": 65.75,
          "velocity": 0.5039370078740157
        },
        {
          "duration": 0.12812499999999716,
          "durationTicks": 123,
          "midi": 29,
          "name": "F1",
          "ticks": 63360,
          "time": 66,
          "velocity": 0.5039370078740157
        },
        {
          "duration": 0.12291666666666856,
          "durationTicks": 118,
          "midi": 41,
          "name": "F2",
          "ticks": 63840,
          "time": 66.5,
          "velocity": 0.5039370078740157
        },
        {
          "duration": 0.1145833333333286,
          "durationTicks": 110,
          "midi": 27,
          "name": "D#1",
          "ticks": 64200,
          "time": 66.875,
          "velocity": 0.5039370078740157
        },
        {
          "duration": 0.07604166666666856,
          "durationTicks": 73,
          "midi": 39,
          "name": "D#2",
          "ticks": 64440,
          "time": 67.125,
          "velocity": 0.5039370078740157
        },
        {
          "duration": 0.0677083333333286,
          "durationTicks": 65,
          "midi": 24,
          "name": "C1",
          "ticks": 64560,
          "time": 67.25,
          "velocity": 0.5039370078740157
        },
        {
          "duration": 0.0885416666666714,
          "durationTicks": 85,
          "midi": 36,
          "name": "C2",
          "ticks": 64800,
          "time": 67.5,
          "velocity": 0.5039370078740157
        },
        {
          "duration": 0.06041666666666856,
          "durationTicks": 58,
          "midi": 39,
          "name": "D#2",
          "ticks": 65040,
          "time": 67.75,
          "velocity": 0.5039370078740157
        },
        {
          "duration": 0.12812499999999716,
          "durationTicks": 123,
          "midi": 29,
          "name": "F1",
          "ticks": 67200,
          "time": 70,
          "velocity": 0.5039370078740157
        },
        {
          "duration": 0.12291666666666856,
          "durationTicks": 118,
          "midi": 41,
          "name": "F2",
          "ticks": 67680,
          "time": 70.5,
          "velocity": 0.5039370078740157
        },
        {
          "duration": 0.1145833333333286,
          "durationTicks": 110,
          "midi": 27,
          "name": "D#1",
          "ticks": 68040,
          "time": 70.875,
          "velocity": 0.5039370078740157
        },
        {
          "duration": 0.07604166666666856,
          "durationTicks": 73,
          "midi": 39,
          "name": "D#2",
          "ticks": 68280,
          "time": 71.125,
          "velocity": 0.5039370078740157
        },
        {
          "duration": 0.0677083333333286,
          "durationTicks": 65,
          "midi": 24,
          "name": "C1",
          "ticks": 68400,
          "time": 71.25,
          "velocity": 0.5039370078740157
        },
        {
          "duration": 0.0885416666666714,
          "durationTicks": 85,
          "midi": 36,
          "name": "C2",
          "ticks": 68640,
          "time": 71.5,
          "velocity": 0.5039370078740157
        },
        {
          "duration": 0.06041666666666856,
          "durationTicks": 58,
          "midi": 39,
          "name": "D#2",
          "ticks": 68880,
          "time": 71.75,
          "velocity": 0.5039370078740157
        },
        {
          "duration": 0.09166666666666856,
          "durationTicks": 88,
          "midi": 29,
          "name": "F1",
          "ticks": 69120,
          "time": 72,
          "velocity": 0.5039370078740157
        },
        {
          "duration": 0.12291666666666856,
          "durationTicks": 118,
          "midi": 41,
          "name": "F2",
          "ticks": 69600,
          "time": 72.5,
          "velocity": 0.5039370078740157
        },
        {
          "duration": 0.0833333333333286,
          "durationTicks": 80,
          "midi": 24,
          "name": "C1",
          "ticks": 70200,
          "time": 73.125,
          "velocity": 0.5039370078740157
        },
        {
          "duration": 0.0729166666666714,
          "durationTicks": 70,
          "midi": 36,
          "name": "C2",
          "ticks": 70320,
          "time": 73.25,
          "velocity": 0.5039370078740157
        },
        {
          "duration": 0.0833333333333286,
          "durationTicks": 80,
          "midi": 39,
          "name": "D#2",
          "ticks": 70560,
          "time": 73.5,
          "velocity": 0.5039370078740157
        },
        {
          "duration": 0.07604166666666856,
          "durationTicks": 73,
          "midi": 41,
          "name": "F2",
          "ticks": 70800,
          "time": 73.75,
          "velocity": 0.5039370078740157
        },
        {
          "duration": 0.08645833333333997,
          "durationTicks": 83,
          "midi": 25,
          "name": "C#1",
          "ticks": 71040,
          "time": 74,
          "velocity": 0.5039370078740157
        },
        {
          "duration": 0.11249999999999716,
          "durationTicks": 108,
          "midi": 37,
          "name": "C#2",
          "ticks": 71520,
          "time": 74.5,
          "velocity": 0.5039370078740157
        },
        {
          "duration": 0.09166666666666856,
          "durationTicks": 88,
          "midi": 27,
          "name": "D#1",
          "ticks": 71880,
          "time": 74.875,
          "velocity": 0.5039370078740157
        },
        {
          "duration": 0.0625,
          "durationTicks": 60,
          "midi": 39,
          "name": "D#2",
          "ticks": 72120,
          "time": 75.125,
          "velocity": 0.5039370078740157
        },
        {
          "duration": 0.06562499999999716,
          "durationTicks": 63,
          "midi": 24,
          "name": "C1",
          "ticks": 72240,
          "time": 75.25,
          "velocity": 0.5039370078740157
        },
        {
          "duration": 0.07604166666666856,
          "durationTicks": 73,
          "midi": 27,
          "name": "D#1",
          "ticks": 72480,
          "time": 75.5,
          "velocity": 0.5039370078740157
        },
        {
          "duration": 0.07604166666666856,
          "durationTicks": 73,
          "midi": 29,
          "name": "F1",
          "ticks": 72720,
          "time": 75.75,
          "velocity": 0.5039370078740157
        },
        {
          "duration": 0.0625,
          "durationTicks": 60,
          "midi": 41,
          "name": "F2",
          "ticks": 72960,
          "time": 76,
          "velocity": 0.5039370078740157
        },
        {
          "duration": 0.06562499999999716,
          "durationTicks": 63,
          "midi": 39,
          "name": "D#2",
          "ticks": 74040,
          "time": 77.125,
          "velocity": 0.5039370078740157
        },
        {
          "duration": 0.078125,
          "durationTicks": 75,
          "midi": 36,
          "name": "C2",
          "ticks": 74160,
          "time": 77.25,
          "velocity": 0.5039370078740157
        },
        {
          "duration": 0.07604166666666856,
          "durationTicks": 73,
          "midi": 34,
          "name": "A#1",
          "ticks": 74400,
          "time": 77.5,
          "velocity": 0.5039370078740157
        },
        {
          "duration": 0.08124999999999716,
          "durationTicks": 78,
          "midi": 32,
          "name": "G#1",
          "ticks": 74640,
          "time": 77.75,
          "velocity": 0.5039370078740157
        },
        {
          "duration": 0.12812499999999716,
          "durationTicks": 123,
          "midi": 29,
          "name": "F1",
          "ticks": 74880,
          "time": 78,
          "velocity": 0.5039370078740157
        },
        {
          "duration": 0.12291666666666856,
          "durationTicks": 118,
          "midi": 41,
          "name": "F2",
          "ticks": 75360,
          "time": 78.5,
          "velocity": 0.5039370078740157
        },
        {
          "duration": 0.1145833333333286,
          "durationTicks": 110,
          "midi": 27,
          "name": "D#1",
          "ticks": 75720,
          "time": 78.875,
          "velocity": 0.5039370078740157
        },
        {
          "duration": 0.07604166666666856,
          "durationTicks": 73,
          "midi": 39,
          "name": "D#2",
          "ticks": 75960,
          "time": 79.125,
          "velocity": 0.5039370078740157
        },
        {
          "duration": 0.0677083333333286,
          "durationTicks": 65,
          "midi": 24,
          "name": "C1",
          "ticks": 76080,
          "time": 79.25,
          "velocity": 0.5039370078740157
        },
        {
          "duration": 0.0885416666666714,
          "durationTicks": 85,
          "midi": 36,
          "name": "C2",
          "ticks": 76320,
          "time": 79.5,
          "velocity": 0.5039370078740157
        },
        {
          "duration": 0.06041666666666856,
          "durationTicks": 58,
          "midi": 39,
          "name": "D#2",
          "ticks": 76560,
          "time": 79.75,
          "velocity": 0.5039370078740157
        },
        {
          "duration": 0.09166666666666856,
          "durationTicks": 88,
          "midi": 29,
          "name": "F1",
          "ticks": 76800,
          "time": 80,
          "velocity": 0.5039370078740157
        },
        {
          "duration": 0.12291666666666856,
          "durationTicks": 118,
          "midi": 41,
          "name": "F2",
          "ticks": 77280,
          "time": 80.5,
          "velocity": 0.5039370078740157
        },
        {
          "duration": 0.0833333333333286,
          "durationTicks": 80,
          "midi": 24,
          "name": "C1",
          "ticks": 77880,
          "time": 81.125,
          "velocity": 0.5039370078740157
        },
        {
          "duration": 0.0729166666666714,
          "durationTicks": 70,
          "midi": 36,
          "name": "C2",
          "ticks": 78000,
          "time": 81.25,
          "velocity": 0.5039370078740157
        },
        {
          "duration": 0.0833333333333286,
          "durationTicks": 80,
          "midi": 39,
          "name": "D#2",
          "ticks": 78240,
          "time": 81.5,
          "velocity": 0.5039370078740157
        },
        {
          "duration": 0.07604166666666856,
          "durationTicks": 73,
          "midi": 41,
          "name": "F2",
          "ticks": 78480,
          "time": 81.75,
          "velocity": 0.5039370078740157
        },
        {
          "duration": 0.08645833333333997,
          "durationTicks": 83,
          "midi": 25,
          "name": "C#1",
          "ticks": 78720,
          "time": 82,
          "velocity": 0.5039370078740157
        },
        {
          "duration": 0.11249999999999716,
          "durationTicks": 108,
          "midi": 37,
          "name": "C#2",
          "ticks": 79200,
          "time": 82.5,
          "velocity": 0.5039370078740157
        },
        {
          "duration": 0.09166666666666856,
          "durationTicks": 88,
          "midi": 27,
          "name": "D#1",
          "ticks": 79560,
          "time": 82.875,
          "velocity": 0.5039370078740157
        },
        {
          "duration": 0.0625,
          "durationTicks": 60,
          "midi": 39,
          "name": "D#2",
          "ticks": 79800,
          "time": 83.125,
          "velocity": 0.5039370078740157
        },
        {
          "duration": 0.06562499999999716,
          "durationTicks": 63,
          "midi": 24,
          "name": "C1",
          "ticks": 79920,
          "time": 83.25,
          "velocity": 0.5039370078740157
        },
        {
          "duration": 0.07604166666666856,
          "durationTicks": 73,
          "midi": 27,
          "name": "D#1",
          "ticks": 80160,
          "time": 83.5,
          "velocity": 0.5039370078740157
        },
        {
          "duration": 0.07604166666666856,
          "durationTicks": 73,
          "midi": 29,
          "name": "F1",
          "ticks": 80400,
          "time": 83.75,
          "velocity": 0.5039370078740157
        },
        {
          "duration": 0.0625,
          "durationTicks": 60,
          "midi": 41,
          "name": "F2",
          "ticks": 80640,
          "time": 84,
          "velocity": 0.5039370078740157
        },
        {
          "duration": 0.06562499999999716,
          "durationTicks": 63,
          "midi": 39,
          "name": "D#2",
          "ticks": 81720,
          "time": 85.125,
          "velocity": 0.5039370078740157
        },
        {
          "duration": 0.078125,
          "durationTicks": 75,
          "midi": 36,
          "name": "C2",
          "ticks": 81840,
          "time": 85.25,
          "velocity": 0.5039370078740157
        },
        {
          "duration": 0.07604166666666856,
          "durationTicks": 73,
          "midi": 34,
          "name": "A#1",
          "ticks": 82080,
          "time": 85.5,
          "velocity": 0.5039370078740157
        },
        {
          "duration": 0.08124999999999716,
          "durationTicks": 78,
          "midi": 32,
          "name": "G#1",
          "ticks": 82320,
          "time": 85.75,
          "velocity": 0.5039370078740157
        },
        {
          "duration": 0.12812499999999716,
          "durationTicks": 123,
          "midi": 29,
          "name": "F1",
          "ticks": 82560,
          "time": 86,
          "velocity": 0.5039370078740157
        },
        {
          "duration": 0.12291666666666856,
          "durationTicks": 118,
          "midi": 41,
          "name": "F2",
          "ticks": 83040,
          "time": 86.5,
          "velocity": 0.5039370078740157
        },
        {
          "duration": 0.1145833333333286,
          "durationTicks": 110,
          "midi": 27,
          "name": "D#1",
          "ticks": 83400,
          "time": 86.875,
          "velocity": 0.5039370078740157
        },
        {
          "duration": 0.07604166666666856,
          "durationTicks": 73,
          "midi": 39,
          "name": "D#2",
          "ticks": 83640,
          "time": 87.125,
          "velocity": 0.5039370078740157
        },
        {
          "duration": 0.0677083333333286,
          "durationTicks": 65,
          "midi": 24,
          "name": "C1",
          "ticks": 83760,
          "time": 87.25,
          "velocity": 0.5039370078740157
        },
        {
          "duration": 0.0885416666666714,
          "durationTicks": 85,
          "midi": 36,
          "name": "C2",
          "ticks": 84000,
          "time": 87.5,
          "velocity": 0.5039370078740157
        },
        {
          "duration": 0.06041666666666856,
          "durationTicks": 58,
          "midi": 39,
          "name": "D#2",
          "ticks": 84240,
          "time": 87.75,
          "velocity": 0.5039370078740157
        },
        {
          "duration": 0.09166666666666856,
          "durationTicks": 88,
          "midi": 29,
          "name": "F1",
          "ticks": 84480,
          "time": 88,
          "velocity": 0.5039370078740157
        },
        {
          "duration": 0.12291666666666856,
          "durationTicks": 118,
          "midi": 41,
          "name": "F2",
          "ticks": 84960,
          "time": 88.5,
          "velocity": 0.5039370078740157
        },
        {
          "duration": 0.0833333333333286,
          "durationTicks": 80,
          "midi": 24,
          "name": "C1",
          "ticks": 85560,
          "time": 89.125,
          "velocity": 0.5039370078740157
        },
        {
          "duration": 0.0729166666666714,
          "durationTicks": 70,
          "midi": 36,
          "name": "C2",
          "ticks": 85680,
          "time": 89.25,
          "velocity": 0.5039370078740157
        },
        {
          "duration": 0.0833333333333286,
          "durationTicks": 80,
          "midi": 39,
          "name": "D#2",
          "ticks": 85920,
          "time": 89.5,
          "velocity": 0.5039370078740157
        },
        {
          "duration": 0.07604166666666856,
          "durationTicks": 73,
          "midi": 41,
          "name": "F2",
          "ticks": 86160,
          "time": 89.75,
          "velocity": 0.5039370078740157
        },
        {
          "duration": 0.08645833333333997,
          "durationTicks": 83,
          "midi": 25,
          "name": "C#1",
          "ticks": 86400,
          "time": 90,
          "velocity": 0.5039370078740157
        },
        {
          "duration": 0.11249999999999716,
          "durationTicks": 108,
          "midi": 37,
          "name": "C#2",
          "ticks": 86880,
          "time": 90.5,
          "velocity": 0.5039370078740157
        },
        {
          "duration": 0.09166666666666856,
          "durationTicks": 88,
          "midi": 27,
          "name": "D#1",
          "ticks": 87240,
          "time": 90.875,
          "velocity": 0.5039370078740157
        },
        {
          "duration": 0.0625,
          "durationTicks": 60,
          "midi": 39,
          "name": "D#2",
          "ticks": 87480,
          "time": 91.125,
          "velocity": 0.5039370078740157
        },
        {
          "duration": 0.06562499999999716,
          "durationTicks": 63,
          "midi": 24,
          "name": "C1",
          "ticks": 87600,
          "time": 91.25,
          "velocity": 0.5039370078740157
        },
        {
          "duration": 0.07604166666666856,
          "durationTicks": 73,
          "midi": 27,
          "name": "D#1",
          "ticks": 87840,
          "time": 91.5,
          "velocity": 0.5039370078740157
        },
        {
          "duration": 0.07604166666666856,
          "durationTicks": 73,
          "midi": 29,
          "name": "F1",
          "ticks": 88080,
          "time": 91.75,
          "velocity": 0.5039370078740157
        },
        {
          "duration": 0.0625,
          "durationTicks": 60,
          "midi": 41,
          "name": "F2",
          "ticks": 88320,
          "time": 92,
          "velocity": 0.5039370078740157
        },
        {
          "duration": 0.06562499999999716,
          "durationTicks": 63,
          "midi": 39,
          "name": "D#2",
          "ticks": 89400,
          "time": 93.125,
          "velocity": 0.5039370078740157
        },
        {
          "duration": 0.078125,
          "durationTicks": 75,
          "midi": 36,
          "name": "C2",
          "ticks": 89520,
          "time": 93.25,
          "velocity": 0.5039370078740157
        },
        {
          "duration": 0.07604166666666856,
          "durationTicks": 73,
          "midi": 34,
          "name": "A#1",
          "ticks": 89760,
          "time": 93.5,
          "velocity": 0.5039370078740157
        },
        {
          "duration": 0.08124999999999716,
          "durationTicks": 78,
          "midi": 32,
          "name": "G#1",
          "ticks": 90000,
          "time": 93.75,
          "velocity": 0.5039370078740157
        },
        {
          "duration": 0.12812499999999716,
          "durationTicks": 123,
          "midi": 29,
          "name": "F1",
          "ticks": 90240,
          "time": 94,
          "velocity": 0.5039370078740157
        },
        {
          "duration": 0.12291666666666856,
          "durationTicks": 118,
          "midi": 41,
          "name": "F2",
          "ticks": 90720,
          "time": 94.5,
          "velocity": 0.5039370078740157
        },
        {
          "duration": 0.1145833333333286,
          "durationTicks": 110,
          "midi": 27,
          "name": "D#1",
          "ticks": 91080,
          "time": 94.875,
          "velocity": 0.5039370078740157
        },
        {
          "duration": 0.07604166666666856,
          "durationTicks": 73,
          "midi": 39,
          "name": "D#2",
          "ticks": 91320,
          "time": 95.125,
          "velocity": 0.5039370078740157
        },
        {
          "duration": 0.0677083333333286,
          "durationTicks": 65,
          "midi": 24,
          "name": "C1",
          "ticks": 91440,
          "time": 95.25,
          "velocity": 0.5039370078740157
        },
        {
          "duration": 0.0885416666666714,
          "durationTicks": 85,
          "midi": 36,
          "name": "C2",
          "ticks": 91680,
          "time": 95.5,
          "velocity": 0.5039370078740157
        },
        {
          "duration": 0.06041666666666856,
          "durationTicks": 58,
          "midi": 39,
          "name": "D#2",
          "ticks": 91920,
          "time": 95.75,
          "velocity": 0.5039370078740157
        },
        {
          "duration": 0.09166666666666856,
          "durationTicks": 88,
          "midi": 29,
          "name": "F1",
          "ticks": 92160,
          "time": 96,
          "velocity": 0.5039370078740157
        },
        {
          "duration": 0.12291666666666856,
          "durationTicks": 118,
          "midi": 41,
          "name": "F2",
          "ticks": 92640,
          "time": 96.5,
          "velocity": 0.5039370078740157
        },
        {
          "duration": 0.0833333333333286,
          "durationTicks": 80,
          "midi": 24,
          "name": "C1",
          "ticks": 93240,
          "time": 97.125,
          "velocity": 0.5039370078740157
        },
        {
          "duration": 0.0729166666666714,
          "durationTicks": 70,
          "midi": 36,
          "name": "C2",
          "ticks": 93360,
          "time": 97.25,
          "velocity": 0.5039370078740157
        },
        {
          "duration": 0.0833333333333286,
          "durationTicks": 80,
          "midi": 39,
          "name": "D#2",
          "ticks": 93600,
          "time": 97.5,
          "velocity": 0.5039370078740157
        },
        {
          "duration": 0.07604166666666856,
          "durationTicks": 73,
          "midi": 41,
          "name": "F2",
          "ticks": 93840,
          "time": 97.75,
          "velocity": 0.5039370078740157
        },
        {
          "duration": 0.08645833333333997,
          "durationTicks": 83,
          "midi": 25,
          "name": "C#1",
          "ticks": 94080,
          "time": 98,
          "velocity": 0.5039370078740157
        },
        {
          "duration": 0.11249999999999716,
          "durationTicks": 108,
          "midi": 37,
          "name": "C#2",
          "ticks": 94560,
          "time": 98.5,
          "velocity": 0.5039370078740157
        },
        {
          "duration": 0.09166666666666856,
          "durationTicks": 88,
          "midi": 27,
          "name": "D#1",
          "ticks": 94920,
          "time": 98.875,
          "velocity": 0.5039370078740157
        },
        {
          "duration": 0.0625,
          "durationTicks": 60,
          "midi": 39,
          "name": "D#2",
          "ticks": 95160,
          "time": 99.125,
          "velocity": 0.5039370078740157
        },
        {
          "duration": 0.06562499999999716,
          "durationTicks": 63,
          "midi": 24,
          "name": "C1",
          "ticks": 95280,
          "time": 99.25,
          "velocity": 0.5039370078740157
        },
        {
          "duration": 0.07604166666666856,
          "durationTicks": 73,
          "midi": 27,
          "name": "D#1",
          "ticks": 95520,
          "time": 99.5,
          "velocity": 0.5039370078740157
        },
        {
          "duration": 0.07604166666666856,
          "durationTicks": 73,
          "midi": 29,
          "name": "F1",
          "ticks": 95760,
          "time": 99.75,
          "velocity": 0.5039370078740157
        },
        {
          "duration": 0.0625,
          "durationTicks": 60,
          "midi": 41,
          "name": "F2",
          "ticks": 96000,
          "time": 100,
          "velocity": 0.5039370078740157
        },
        {
          "duration": 0.06562499999999716,
          "durationTicks": 63,
          "midi": 39,
          "name": "D#2",
          "ticks": 97080,
          "time": 101.125,
          "velocity": 0.5039370078740157
        },
        {
          "duration": 0.0833333333333286,
          "durationTicks": 80,
          "midi": 39,
          "name": "D#2",
          "ticks": 97320,
          "time": 101.375,
          "velocity": 0.5039370078740157
        },
        {
          "duration": 0.15625,
          "durationTicks": 150,
          "midi": 41,
          "name": "F2",
          "ticks": 97440,
          "time": 101.5,
          "velocity": 0.5039370078740157
        },
        {
          "duration": 0.15625,
          "durationTicks": 150,
          "midi": 43,
          "name": "G2",
          "ticks": 97680,
          "time": 101.75,
          "velocity": 0.5039370078740157
        },
        {
          "duration": 0.08645833333333997,
          "durationTicks": 83,
          "midi": 32,
          "name": "G#1",
          "ticks": 97920,
          "time": 102,
          "velocity": 0.5039370078740157
        },
        {
          "duration": 0.07604166666666856,
          "durationTicks": 73,
          "midi": 32,
          "name": "G#1",
          "ticks": 98400,
          "time": 102.5,
          "velocity": 0.5039370078740157
        },
        {
          "duration": 0.07083333333333997,
          "durationTicks": 68,
          "midi": 32,
          "name": "G#1",
          "ticks": 98640,
          "time": 102.75,
          "velocity": 0.5039370078740157
        },
        {
          "duration": 0.055208333333339965,
          "durationTicks": 53,
          "midi": 32,
          "name": "G#1",
          "ticks": 99000,
          "time": 103.125,
          "velocity": 0.5039370078740157
        },
        {
          "duration": 0.06562499999999716,
          "durationTicks": 63,
          "midi": 32,
          "name": "G#1",
          "ticks": 99120,
          "time": 103.25,
          "velocity": 0.5039370078740157
        },
        {
          "duration": 0.06562499999999716,
          "durationTicks": 63,
          "midi": 32,
          "name": "G#1",
          "ticks": 99360,
          "time": 103.5,
          "velocity": 0.5039370078740157
        },
        {
          "duration": 0.08124999999999716,
          "durationTicks": 78,
          "midi": 27,
          "name": "D#1",
          "ticks": 99600,
          "time": 103.75,
          "velocity": 0.5039370078740157
        },
        {
          "duration": 0.0833333333333286,
          "durationTicks": 80,
          "midi": 29,
          "name": "F1",
          "ticks": 99840,
          "time": 104,
          "velocity": 0.5039370078740157
        },
        {
          "duration": 0.0729166666666714,
          "durationTicks": 70,
          "midi": 29,
          "name": "F1",
          "ticks": 100200,
          "time": 104.375,
          "velocity": 0.5039370078740157
        },
        {
          "duration": 0.078125,
          "durationTicks": 75,
          "midi": 30,
          "name": "F#1",
          "ticks": 101760,
          "time": 106,
          "velocity": 0.5039370078740157
        },
        {
          "duration": 0.0729166666666714,
          "durationTicks": 70,
          "midi": 30,
          "name": "F#1",
          "ticks": 102120,
          "time": 106.375,
          "velocity": 0.5039370078740157
        },
        {
          "duration": 0.0729166666666714,
          "durationTicks": 70,
          "midi": 30,
          "name": "F#1",
          "ticks": 102480,
          "time": 106.75,
          "velocity": 0.5039370078740157
        },
        {
          "duration": 0.04999999999999716,
          "durationTicks": 48,
          "midi": 30,
          "name": "F#1",
          "ticks": 102840,
          "time": 107.125,
          "velocity": 0.5039370078740157
        },
        {
          "duration": 0.0677083333333286,
          "durationTicks": 65,
          "midi": 30,
          "name": "F#1",
          "ticks": 102960,
          "time": 107.25,
          "velocity": 0.5039370078740157
        },
        {
          "duration": 0.06562499999999716,
          "durationTicks": 63,
          "midi": 30,
          "name": "F#1",
          "ticks": 103200,
          "time": 107.5,
          "velocity": 0.5039370078740157
        },
        {
          "duration": 0.08124999999999716,
          "durationTicks": 78,
          "midi": 25,
          "name": "C#1",
          "ticks": 103440,
          "time": 107.75,
          "velocity": 0.5039370078740157
        },
        {
          "duration": 0.0729166666666714,
          "durationTicks": 70,
          "midi": 27,
          "name": "D#1",
          "ticks": 103680,
          "time": 108,
          "velocity": 0.5039370078740157
        },
        {
          "duration": 0.06562499999999716,
          "durationTicks": 63,
          "midi": 27,
          "name": "D#1",
          "ticks": 104040,
          "time": 108.375,
          "velocity": 0.5039370078740157
        },
        {
          "duration": 0.052083333333328596,
          "durationTicks": 50,
          "midi": 27,
          "name": "D#1",
          "ticks": 104760,
          "time": 109.125,
          "velocity": 0.5039370078740157
        },
        {
          "duration": 0.0677083333333286,
          "durationTicks": 65,
          "midi": 27,
          "name": "D#1",
          "ticks": 104880,
          "time": 109.25,
          "velocity": 0.5039370078740157
        },
        {
          "duration": 0.0677083333333286,
          "durationTicks": 65,
          "midi": 30,
          "name": "F#1",
          "ticks": 105120,
          "time": 109.5,
          "velocity": 0.5039370078740157
        },
        {
          "duration": 0.07604166666666856,
          "durationTicks": 73,
          "midi": 27,
          "name": "D#1",
          "ticks": 105360,
          "time": 109.75,
          "velocity": 0.5039370078740157
        },
        {
          "duration": 0.08645833333333997,
          "durationTicks": 83,
          "midi": 32,
          "name": "G#1",
          "ticks": 105600,
          "time": 110,
          "velocity": 0.5039370078740157
        },
        {
          "duration": 0.07604166666666856,
          "durationTicks": 73,
          "midi": 32,
          "name": "G#1",
          "ticks": 106080,
          "time": 110.5,
          "velocity": 0.5039370078740157
        },
        {
          "duration": 0.07083333333333997,
          "durationTicks": 68,
          "midi": 32,
          "name": "G#1",
          "ticks": 106320,
          "time": 110.75,
          "velocity": 0.5039370078740157
        },
        {
          "duration": 0.055208333333339965,
          "durationTicks": 53,
          "midi": 32,
          "name": "G#1",
          "ticks": 106680,
          "time": 111.125,
          "velocity": 0.5039370078740157
        },
        {
          "duration": 0.06562499999999716,
          "durationTicks": 63,
          "midi": 32,
          "name": "G#1",
          "ticks": 106800,
          "time": 111.25,
          "velocity": 0.5039370078740157
        },
        {
          "duration": 0.06562499999999716,
          "durationTicks": 63,
          "midi": 32,
          "name": "G#1",
          "ticks": 107040,
          "time": 111.5,
          "velocity": 0.5039370078740157
        },
        {
          "duration": 0.08124999999999716,
          "durationTicks": 78,
          "midi": 27,
          "name": "D#1",
          "ticks": 107280,
          "time": 111.75,
          "velocity": 0.5039370078740157
        },
        {
          "duration": 0.0833333333333286,
          "durationTicks": 80,
          "midi": 29,
          "name": "F1",
          "ticks": 107520,
          "time": 112,
          "velocity": 0.5039370078740157
        },
        {
          "duration": 0.0729166666666714,
          "durationTicks": 70,
          "midi": 29,
          "name": "F1",
          "ticks": 107880,
          "time": 112.375,
          "velocity": 0.5039370078740157
        },
        {
          "duration": 0.078125,
          "durationTicks": 75,
          "midi": 30,
          "name": "F#1",
          "ticks": 109440,
          "time": 114,
          "velocity": 0.5039370078740157
        },
        {
          "duration": 0.0729166666666714,
          "durationTicks": 70,
          "midi": 30,
          "name": "F#1",
          "ticks": 109800,
          "time": 114.375,
          "velocity": 0.5039370078740157
        },
        {
          "duration": 0.0729166666666714,
          "durationTicks": 70,
          "midi": 30,
          "name": "F#1",
          "ticks": 110160,
          "time": 114.75,
          "velocity": 0.5039370078740157
        },
        {
          "duration": 0.04999999999999716,
          "durationTicks": 48,
          "midi": 30,
          "name": "F#1",
          "ticks": 110520,
          "time": 115.125,
          "velocity": 0.5039370078740157
        },
        {
          "duration": 0.0677083333333286,
          "durationTicks": 65,
          "midi": 30,
          "name": "F#1",
          "ticks": 110640,
          "time": 115.25,
          "velocity": 0.5039370078740157
        },
        {
          "duration": 0.06562499999999716,
          "durationTicks": 63,
          "midi": 30,
          "name": "F#1",
          "ticks": 110880,
          "time": 115.5,
          "velocity": 0.5039370078740157
        },
        {
          "duration": 0.08124999999999716,
          "durationTicks": 78,
          "midi": 25,
          "name": "C#1",
          "ticks": 111120,
          "time": 115.75,
          "velocity": 0.5039370078740157
        },
        {
          "duration": 0.0729166666666714,
          "durationTicks": 70,
          "midi": 27,
          "name": "D#1",
          "ticks": 111360,
          "time": 116,
          "velocity": 0.5039370078740157
        },
        {
          "duration": 0.06562499999999716,
          "durationTicks": 63,
          "midi": 27,
          "name": "D#1",
          "ticks": 111720,
          "time": 116.375,
          "velocity": 0.5039370078740157
        },
        {
          "duration": 0.052083333333328596,
          "durationTicks": 50,
          "midi": 27,
          "name": "D#1",
          "ticks": 112440,
          "time": 117.125,
          "velocity": 0.5039370078740157
        },
        {
          "duration": 0.0677083333333286,
          "durationTicks": 65,
          "midi": 27,
          "name": "D#1",
          "ticks": 112560,
          "time": 117.25,
          "velocity": 0.5039370078740157
        },
        {
          "duration": 0.0677083333333286,
          "durationTicks": 65,
          "midi": 30,
          "name": "F#1",
          "ticks": 112800,
          "time": 117.5,
          "velocity": 0.5039370078740157
        },
        {
          "duration": 0.07604166666666856,
          "durationTicks": 73,
          "midi": 27,
          "name": "D#1",
          "ticks": 113040,
          "time": 117.75,
          "velocity": 0.5039370078740157
        },
        {
          "duration": 0.08645833333333997,
          "durationTicks": 83,
          "midi": 32,
          "name": "G#1",
          "ticks": 113280,
          "time": 118,
          "velocity": 0.5039370078740157
        },
        {
          "duration": 0.07604166666666856,
          "durationTicks": 73,
          "midi": 32,
          "name": "G#1",
          "ticks": 113760,
          "time": 118.5,
          "velocity": 0.5039370078740157
        },
        {
          "duration": 0.07083333333333997,
          "durationTicks": 68,
          "midi": 32,
          "name": "G#1",
          "ticks": 114000,
          "time": 118.75,
          "velocity": 0.5039370078740157
        },
        {
          "duration": 0.055208333333339965,
          "durationTicks": 53,
          "midi": 32,
          "name": "G#1",
          "ticks": 114360,
          "time": 119.125,
          "velocity": 0.5039370078740157
        },
        {
          "duration": 0.06562499999999716,
          "durationTicks": 63,
          "midi": 32,
          "name": "G#1",
          "ticks": 114480,
          "time": 119.25,
          "velocity": 0.5039370078740157
        },
        {
          "duration": 0.06562499999999716,
          "durationTicks": 63,
          "midi": 32,
          "name": "G#1",
          "ticks": 114720,
          "time": 119.5,
          "velocity": 0.5039370078740157
        },
        {
          "duration": 0.08124999999999716,
          "durationTicks": 78,
          "midi": 27,
          "name": "D#1",
          "ticks": 114960,
          "time": 119.75,
          "velocity": 0.5039370078740157
        },
        {
          "duration": 0.0833333333333286,
          "durationTicks": 80,
          "midi": 29,
          "name": "F1",
          "ticks": 115200,
          "time": 120,
          "velocity": 0.5039370078740157
        },
        {
          "duration": 0.0729166666666714,
          "durationTicks": 70,
          "midi": 29,
          "name": "F1",
          "ticks": 115560,
          "time": 120.375,
          "velocity": 0.5039370078740157
        },
        {
          "duration": 0.078125,
          "durationTicks": 75,
          "midi": 30,
          "name": "F#1",
          "ticks": 117120,
          "time": 122,
          "velocity": 0.5039370078740157
        },
        {
          "duration": 0.0729166666666714,
          "durationTicks": 70,
          "midi": 30,
          "name": "F#1",
          "ticks": 117480,
          "time": 122.375,
          "velocity": 0.5039370078740157
        },
        {
          "duration": 0.0729166666666714,
          "durationTicks": 70,
          "midi": 30,
          "name": "F#1",
          "ticks": 117840,
          "time": 122.75,
          "velocity": 0.5039370078740157
        },
        {
          "duration": 0.04999999999999716,
          "durationTicks": 48,
          "midi": 30,
          "name": "F#1",
          "ticks": 118200,
          "time": 123.125,
          "velocity": 0.5039370078740157
        },
        {
          "duration": 0.0677083333333286,
          "durationTicks": 65,
          "midi": 30,
          "name": "F#1",
          "ticks": 118320,
          "time": 123.25,
          "velocity": 0.5039370078740157
        },
        {
          "duration": 0.06562499999999716,
          "durationTicks": 63,
          "midi": 30,
          "name": "F#1",
          "ticks": 118560,
          "time": 123.5,
          "velocity": 0.5039370078740157
        },
        {
          "duration": 0.08124999999999716,
          "durationTicks": 78,
          "midi": 25,
          "name": "C#1",
          "ticks": 118800,
          "time": 123.75,
          "velocity": 0.5039370078740157
        },
        {
          "duration": 0.0729166666666714,
          "durationTicks": 70,
          "midi": 27,
          "name": "D#1",
          "ticks": 119040,
          "time": 124,
          "velocity": 0.5039370078740157
        },
        {
          "duration": 0.06562499999999716,
          "durationTicks": 63,
          "midi": 27,
          "name": "D#1",
          "ticks": 119400,
          "time": 124.375,
          "velocity": 0.5039370078740157
        },
        {
          "duration": 0.052083333333328596,
          "durationTicks": 50,
          "midi": 27,
          "name": "D#1",
          "ticks": 120120,
          "time": 125.125,
          "velocity": 0.5039370078740157
        },
        {
          "duration": 0.0677083333333286,
          "durationTicks": 65,
          "midi": 27,
          "name": "D#1",
          "ticks": 120240,
          "time": 125.25,
          "velocity": 0.5039370078740157
        },
        {
          "duration": 0.0677083333333286,
          "durationTicks": 65,
          "midi": 30,
          "name": "F#1",
          "ticks": 120480,
          "time": 125.5,
          "velocity": 0.5039370078740157
        },
        {
          "duration": 0.07604166666666856,
          "durationTicks": 73,
          "midi": 27,
          "name": "D#1",
          "ticks": 120720,
          "time": 125.75,
          "velocity": 0.5039370078740157
        },
        {
          "duration": 0.08645833333333997,
          "durationTicks": 83,
          "midi": 32,
          "name": "G#1",
          "ticks": 120960,
          "time": 126,
          "velocity": 0.5039370078740157
        },
        {
          "duration": 0.07604166666666856,
          "durationTicks": 73,
          "midi": 32,
          "name": "G#1",
          "ticks": 121440,
          "time": 126.5,
          "velocity": 0.5039370078740157
        },
        {
          "duration": 0.07083333333333997,
          "durationTicks": 68,
          "midi": 32,
          "name": "G#1",
          "ticks": 121680,
          "time": 126.75,
          "velocity": 0.5039370078740157
        },
        {
          "duration": 0.055208333333339965,
          "durationTicks": 53,
          "midi": 32,
          "name": "G#1",
          "ticks": 122040,
          "time": 127.125,
          "velocity": 0.5039370078740157
        },
        {
          "duration": 0.06562499999999716,
          "durationTicks": 63,
          "midi": 32,
          "name": "G#1",
          "ticks": 122160,
          "time": 127.25,
          "velocity": 0.5039370078740157
        },
        {
          "duration": 0.06562499999999716,
          "durationTicks": 63,
          "midi": 32,
          "name": "G#1",
          "ticks": 122400,
          "time": 127.5,
          "velocity": 0.5039370078740157
        },
        {
          "duration": 0.08124999999999716,
          "durationTicks": 78,
          "midi": 27,
          "name": "D#1",
          "ticks": 122640,
          "time": 127.75,
          "velocity": 0.5039370078740157
        },
        {
          "duration": 0.08333333333334281,
          "durationTicks": 80,
          "midi": 29,
          "name": "F1",
          "ticks": 122880,
          "time": 128,
          "velocity": 0.5039370078740157
        },
        {
          "duration": 0.07291666666665719,
          "durationTicks": 70,
          "midi": 29,
          "name": "F1",
          "ticks": 123240,
          "time": 128.375,
          "velocity": 0.5039370078740157
        },
        {
          "duration": 0.078125,
          "durationTicks": 75,
          "midi": 30,
          "name": "F#1",
          "ticks": 124800,
          "time": 130,
          "velocity": 0.5039370078740157
        },
        {
          "duration": 0.07291666666665719,
          "durationTicks": 70,
          "midi": 30,
          "name": "F#1",
          "ticks": 125160,
          "time": 130.375,
          "velocity": 0.5039370078740157
        },
        {
          "duration": 0.07291666666665719,
          "durationTicks": 70,
          "midi": 30,
          "name": "F#1",
          "ticks": 125520,
          "time": 130.75,
          "velocity": 0.5039370078740157
        },
        {
          "duration": 0.05000000000001137,
          "durationTicks": 48,
          "midi": 30,
          "name": "F#1",
          "ticks": 125880,
          "time": 131.125,
          "velocity": 0.5039370078740157
        },
        {
          "duration": 0.06770833333334281,
          "durationTicks": 65,
          "midi": 30,
          "name": "F#1",
          "ticks": 126000,
          "time": 131.25,
          "velocity": 0.5039370078740157
        },
        {
          "duration": 0.06562500000001137,
          "durationTicks": 63,
          "midi": 30,
          "name": "F#1",
          "ticks": 126240,
          "time": 131.5,
          "velocity": 0.5039370078740157
        },
        {
          "duration": 0.08125000000001137,
          "durationTicks": 78,
          "midi": 25,
          "name": "C#1",
          "ticks": 126480,
          "time": 131.75,
          "velocity": 0.5039370078740157
        },
        {
          "duration": 0.07291666666665719,
          "durationTicks": 70,
          "midi": 27,
          "name": "D#1",
          "ticks": 126720,
          "time": 132,
          "velocity": 0.5039370078740157
        },
        {
          "duration": 0.06562500000001137,
          "durationTicks": 63,
          "midi": 27,
          "name": "D#1",
          "ticks": 127080,
          "time": 132.375,
          "velocity": 0.5039370078740157
        },
        {
          "duration": 0.05208333333334281,
          "durationTicks": 50,
          "midi": 27,
          "name": "D#1",
          "ticks": 127800,
          "time": 133.125,
          "velocity": 0.5039370078740157
        },
        {
          "duration": 0.06770833333334281,
          "durationTicks": 65,
          "midi": 27,
          "name": "D#1",
          "ticks": 127920,
          "time": 133.25,
          "velocity": 0.5039370078740157
        },
        {
          "duration": 0.06770833333334281,
          "durationTicks": 65,
          "midi": 30,
          "name": "F#1",
          "ticks": 128160,
          "time": 133.5,
          "velocity": 0.5039370078740157
        },
        {
          "duration": 0.07604166666666856,
          "durationTicks": 73,
          "midi": 27,
          "name": "D#1",
          "ticks": 128400,
          "time": 133.75,
          "velocity": 0.5039370078740157
        },
        {
          "duration": 0.08645833333332575,
          "durationTicks": 83,
          "midi": 32,
          "name": "G#1",
          "ticks": 128640,
          "time": 134,
          "velocity": 0.5039370078740157
        },
        {
          "duration": 0.07604166666666856,
          "durationTicks": 73,
          "midi": 32,
          "name": "G#1",
          "ticks": 129120,
          "time": 134.5,
          "velocity": 0.5039370078740157
        },
        {
          "duration": 0.07083333333332575,
          "durationTicks": 68,
          "midi": 32,
          "name": "G#1",
          "ticks": 129360,
          "time": 134.75,
          "velocity": 0.5039370078740157
        },
        {
          "duration": 0.055208333333325754,
          "durationTicks": 53,
          "midi": 32,
          "name": "G#1",
          "ticks": 129720,
          "time": 135.125,
          "velocity": 0.5039370078740157
        },
        {
          "duration": 0.06562500000001137,
          "durationTicks": 63,
          "midi": 32,
          "name": "G#1",
          "ticks": 129840,
          "time": 135.25,
          "velocity": 0.5039370078740157
        },
        {
          "duration": 0.06562500000001137,
          "durationTicks": 63,
          "midi": 32,
          "name": "G#1",
          "ticks": 130080,
          "time": 135.5,
          "velocity": 0.5039370078740157
        },
        {
          "duration": 0.08125000000001137,
          "durationTicks": 78,
          "midi": 27,
          "name": "D#1",
          "ticks": 130320,
          "time": 135.75,
          "velocity": 0.5039370078740157
        },
        {
          "duration": 0.08333333333334281,
          "durationTicks": 80,
          "midi": 29,
          "name": "F1",
          "ticks": 130560,
          "time": 136,
          "velocity": 0.5039370078740157
        },
        {
          "duration": 0.07291666666665719,
          "durationTicks": 70,
          "midi": 29,
          "name": "F1",
          "ticks": 130920,
          "time": 136.375,
          "velocity": 0.5039370078740157
        },
        {
          "duration": 0.12812500000001137,
          "durationTicks": 123,
          "midi": 29,
          "name": "F1",
          "ticks": 132480,
          "time": 138,
          "velocity": 0.5039370078740157
        },
        {
          "duration": 0.12291666666666856,
          "durationTicks": 118,
          "midi": 41,
          "name": "F2",
          "ticks": 132960,
          "time": 138.5,
          "velocity": 0.5039370078740157
        },
        {
          "duration": 0.11458333333334281,
          "durationTicks": 110,
          "midi": 27,
          "name": "D#1",
          "ticks": 133320,
          "time": 138.875,
          "velocity": 0.5039370078740157
        },
        {
          "duration": 0.07604166666666856,
          "durationTicks": 73,
          "midi": 39,
          "name": "D#2",
          "ticks": 133560,
          "time": 139.125,
          "velocity": 0.5039370078740157
        },
        {
          "duration": 0.06770833333334281,
          "durationTicks": 65,
          "midi": 24,
          "name": "C1",
          "ticks": 133680,
          "time": 139.25,
          "velocity": 0.5039370078740157
        },
        {
          "duration": 0.08854166666665719,
          "durationTicks": 85,
          "midi": 36,
          "name": "C2",
          "ticks": 133920,
          "time": 139.5,
          "velocity": 0.5039370078740157
        },
        {
          "duration": 0.06041666666666856,
          "durationTicks": 58,
          "midi": 39,
          "name": "D#2",
          "ticks": 134160,
          "time": 139.75,
          "velocity": 0.5039370078740157
        },
        {
          "duration": 0.09166666666666856,
          "durationTicks": 88,
          "midi": 29,
          "name": "F1",
          "ticks": 134400,
          "time": 140,
          "velocity": 0.5039370078740157
        },
        {
          "duration": 0.12291666666666856,
          "durationTicks": 118,
          "midi": 41,
          "name": "F2",
          "ticks": 134880,
          "time": 140.5,
          "velocity": 0.5039370078740157
        },
        {
          "duration": 0.08333333333334281,
          "durationTicks": 80,
          "midi": 24,
          "name": "C1",
          "ticks": 135480,
          "time": 141.125,
          "velocity": 0.5039370078740157
        },
        {
          "duration": 0.07291666666665719,
          "durationTicks": 70,
          "midi": 36,
          "name": "C2",
          "ticks": 135600,
          "time": 141.25,
          "velocity": 0.5039370078740157
        },
        {
          "duration": 0.08333333333334281,
          "durationTicks": 80,
          "midi": 39,
          "name": "D#2",
          "ticks": 135840,
          "time": 141.5,
          "velocity": 0.5039370078740157
        },
        {
          "duration": 0.07604166666666856,
          "durationTicks": 73,
          "midi": 41,
          "name": "F2",
          "ticks": 136080,
          "time": 141.75,
          "velocity": 0.5039370078740157
        },
        {
          "duration": 0.08645833333332575,
          "durationTicks": 83,
          "midi": 25,
          "name": "C#1",
          "ticks": 136320,
          "time": 142,
          "velocity": 0.5039370078740157
        },
        {
          "duration": 0.11250000000001137,
          "durationTicks": 108,
          "midi": 37,
          "name": "C#2",
          "ticks": 136800,
          "time": 142.5,
          "velocity": 0.5039370078740157
        },
        {
          "duration": 0.09166666666666856,
          "durationTicks": 88,
          "midi": 27,
          "name": "D#1",
          "ticks": 137160,
          "time": 142.875,
          "velocity": 0.5039370078740157
        },
        {
          "duration": 0.0625,
          "durationTicks": 60,
          "midi": 39,
          "name": "D#2",
          "ticks": 137400,
          "time": 143.125,
          "velocity": 0.5039370078740157
        },
        {
          "duration": 0.06562500000001137,
          "durationTicks": 63,
          "midi": 24,
          "name": "C1",
          "ticks": 137520,
          "time": 143.25,
          "velocity": 0.5039370078740157
        },
        {
          "duration": 0.07604166666666856,
          "durationTicks": 73,
          "midi": 27,
          "name": "D#1",
          "ticks": 137760,
          "time": 143.5,
          "velocity": 0.5039370078740157
        },
        {
          "duration": 0.07604166666666856,
          "durationTicks": 73,
          "midi": 29,
          "name": "F1",
          "ticks": 138000,
          "time": 143.75,
          "velocity": 0.5039370078740157
        },
        {
          "duration": 0.0625,
          "durationTicks": 60,
          "midi": 41,
          "name": "F2",
          "ticks": 138240,
          "time": 144,
          "velocity": 0.5039370078740157
        },
        {
          "duration": 0.06562500000001137,
          "durationTicks": 63,
          "midi": 39,
          "name": "D#2",
          "ticks": 139320,
          "time": 145.125,
          "velocity": 0.5039370078740157
        },
        {
          "duration": 0.078125,
          "durationTicks": 75,
          "midi": 36,
          "name": "C2",
          "ticks": 139440,
          "time": 145.25,
          "velocity": 0.5039370078740157
        },
        {
          "duration": 0.07604166666666856,
          "durationTicks": 73,
          "midi": 34,
          "name": "A#1",
          "ticks": 139680,
          "time": 145.5,
          "velocity": 0.5039370078740157
        },
        {
          "duration": 0.08125000000001137,
          "durationTicks": 78,
          "midi": 32,
          "name": "G#1",
          "ticks": 139920,
          "time": 145.75,
          "velocity": 0.5039370078740157
        },
        {
          "duration": 0.12812500000001137,
          "durationTicks": 123,
          "midi": 29,
          "name": "F1",
          "ticks": 140160,
          "time": 146,
          "velocity": 0.5039370078740157
        },
        {
          "duration": 0.12291666666666856,
          "durationTicks": 118,
          "midi": 41,
          "name": "F2",
          "ticks": 140640,
          "time": 146.5,
          "velocity": 0.5039370078740157
        },
        {
          "duration": 0.11458333333334281,
          "durationTicks": 110,
          "midi": 27,
          "name": "D#1",
          "ticks": 141000,
          "time": 146.875,
          "velocity": 0.5039370078740157
        },
        {
          "duration": 0.07604166666666856,
          "durationTicks": 73,
          "midi": 39,
          "name": "D#2",
          "ticks": 141240,
          "time": 147.125,
          "velocity": 0.5039370078740157
        },
        {
          "duration": 0.06770833333334281,
          "durationTicks": 65,
          "midi": 24,
          "name": "C1",
          "ticks": 141360,
          "time": 147.25,
          "velocity": 0.5039370078740157
        },
        {
          "duration": 0.08854166666665719,
          "durationTicks": 85,
          "midi": 36,
          "name": "C2",
          "ticks": 141600,
          "time": 147.5,
          "velocity": 0.5039370078740157
        },
        {
          "duration": 0.06041666666666856,
          "durationTicks": 58,
          "midi": 39,
          "name": "D#2",
          "ticks": 141840,
          "time": 147.75,
          "velocity": 0.5039370078740157
        },
        {
          "duration": 0.09166666666666856,
          "durationTicks": 88,
          "midi": 29,
          "name": "F1",
          "ticks": 142080,
          "time": 148,
          "velocity": 0.5039370078740157
        },
        {
          "duration": 0.12291666666666856,
          "durationTicks": 118,
          "midi": 41,
          "name": "F2",
          "ticks": 142560,
          "time": 148.5,
          "velocity": 0.5039370078740157
        },
        {
          "duration": 0.08333333333334281,
          "durationTicks": 80,
          "midi": 24,
          "name": "C1",
          "ticks": 143160,
          "time": 149.125,
          "velocity": 0.5039370078740157
        },
        {
          "duration": 0.07291666666665719,
          "durationTicks": 70,
          "midi": 36,
          "name": "C2",
          "ticks": 143280,
          "time": 149.25,
          "velocity": 0.5039370078740157
        },
        {
          "duration": 0.08333333333334281,
          "durationTicks": 80,
          "midi": 39,
          "name": "D#2",
          "ticks": 143520,
          "time": 149.5,
          "velocity": 0.5039370078740157
        },
        {
          "duration": 0.07604166666666856,
          "durationTicks": 73,
          "midi": 41,
          "name": "F2",
          "ticks": 143760,
          "time": 149.75,
          "velocity": 0.5039370078740157
        },
        {
          "duration": 0.08645833333332575,
          "durationTicks": 83,
          "midi": 25,
          "name": "C#1",
          "ticks": 144000,
          "time": 150,
          "velocity": 0.5039370078740157
        },
        {
          "duration": 0.11250000000001137,
          "durationTicks": 108,
          "midi": 37,
          "name": "C#2",
          "ticks": 144480,
          "time": 150.5,
          "velocity": 0.5039370078740157
        },
        {
          "duration": 0.09166666666666856,
          "durationTicks": 88,
          "midi": 27,
          "name": "D#1",
          "ticks": 144840,
          "time": 150.875,
          "velocity": 0.5039370078740157
        },
        {
          "duration": 0.0625,
          "durationTicks": 60,
          "midi": 39,
          "name": "D#2",
          "ticks": 145080,
          "time": 151.125,
          "velocity": 0.5039370078740157
        },
        {
          "duration": 0.06562500000001137,
          "durationTicks": 63,
          "midi": 24,
          "name": "C1",
          "ticks": 145200,
          "time": 151.25,
          "velocity": 0.5039370078740157
        },
        {
          "duration": 0.07604166666666856,
          "durationTicks": 73,
          "midi": 27,
          "name": "D#1",
          "ticks": 145440,
          "time": 151.5,
          "velocity": 0.5039370078740157
        },
        {
          "duration": 0.07604166666666856,
          "durationTicks": 73,
          "midi": 29,
          "name": "F1",
          "ticks": 145680,
          "time": 151.75,
          "velocity": 0.5039370078740157
        },
        {
          "duration": 0.0625,
          "durationTicks": 60,
          "midi": 41,
          "name": "F2",
          "ticks": 145920,
          "time": 152,
          "velocity": 0.5039370078740157
        },
        {
          "duration": 0.06562500000001137,
          "durationTicks": 63,
          "midi": 39,
          "name": "D#2",
          "ticks": 147000,
          "time": 153.125,
          "velocity": 0.5039370078740157
        },
        {
          "duration": 0.078125,
          "durationTicks": 75,
          "midi": 36,
          "name": "C2",
          "ticks": 147120,
          "time": 153.25,
          "velocity": 0.5039370078740157
        },
        {
          "duration": 0.07604166666666856,
          "durationTicks": 73,
          "midi": 34,
          "name": "A#1",
          "ticks": 147360,
          "time": 153.5,
          "velocity": 0.5039370078740157
        },
        {
          "duration": 0.08125000000001137,
          "durationTicks": 78,
          "midi": 32,
          "name": "G#1",
          "ticks": 147600,
          "time": 153.75,
          "velocity": 0.5039370078740157
        },
        {
          "duration": 0.08645833333332575,
          "durationTicks": 83,
          "midi": 25,
          "name": "C#1",
          "ticks": 147840,
          "time": 154,
          "velocity": 0.5039370078740157
        },
        {
          "duration": 0.11250000000001137,
          "durationTicks": 108,
          "midi": 37,
          "name": "C#2",
          "ticks": 148320,
          "time": 154.5,
          "velocity": 0.5039370078740157
        },
        {
          "duration": 0.09166666666666856,
          "durationTicks": 88,
          "midi": 27,
          "name": "D#1",
          "ticks": 148680,
          "time": 154.875,
          "velocity": 0.5039370078740157
        },
        {
          "duration": 0.0625,
          "durationTicks": 60,
          "midi": 39,
          "name": "D#2",
          "ticks": 148920,
          "time": 155.125,
          "velocity": 0.5039370078740157
        },
        {
          "duration": 0.06562500000001137,
          "durationTicks": 63,
          "midi": 24,
          "name": "C1",
          "ticks": 149040,
          "time": 155.25,
          "velocity": 0.5039370078740157
        },
        {
          "duration": 0.07604166666666856,
          "durationTicks": 73,
          "midi": 27,
          "name": "D#1",
          "ticks": 149280,
          "time": 155.5,
          "velocity": 0.5039370078740157
        },
        {
          "duration": 0.07604166666666856,
          "durationTicks": 73,
          "midi": 29,
          "name": "F1",
          "ticks": 149520,
          "time": 155.75,
          "velocity": 0.5039370078740157
        },
        {
          "duration": 0.0625,
          "durationTicks": 60,
          "midi": 41,
          "name": "F2",
          "ticks": 149760,
          "time": 156,
          "velocity": 0.5039370078740157
        },
        {
          "duration": 0.06562500000001137,
          "durationTicks": 63,
          "midi": 39,
          "name": "D#2",
          "ticks": 150840,
          "time": 157.125,
          "velocity": 0.5039370078740157
        },
        {
          "duration": 0.078125,
          "durationTicks": 75,
          "midi": 36,
          "name": "C2",
          "ticks": 150960,
          "time": 157.25,
          "velocity": 0.5039370078740157
        },
        {
          "duration": 0.07604166666666856,
          "durationTicks": 73,
          "midi": 34,
          "name": "A#1",
          "ticks": 151200,
          "time": 157.5,
          "velocity": 0.5039370078740157
        },
        {
          "duration": 0.08125000000001137,
          "durationTicks": 78,
          "midi": 32,
          "name": "G#1",
          "ticks": 151440,
          "time": 157.75,
          "velocity": 0.5039370078740157
        },
        {
          "duration": 0.12812500000001137,
          "durationTicks": 123,
          "midi": 29,
          "name": "F1",
          "ticks": 151680,
          "time": 158,
          "velocity": 0.5039370078740157
        },
        {
          "duration": 0.12291666666666856,
          "durationTicks": 118,
          "midi": 41,
          "name": "F2",
          "ticks": 152160,
          "time": 158.5,
          "velocity": 0.5039370078740157
        },
        {
          "duration": 0.11458333333334281,
          "durationTicks": 110,
          "midi": 27,
          "name": "D#1",
          "ticks": 152520,
          "time": 158.875,
          "velocity": 0.5039370078740157
        },
        {
          "duration": 0.07604166666666856,
          "durationTicks": 73,
          "midi": 39,
          "name": "D#2",
          "ticks": 152760,
          "time": 159.125,
          "velocity": 0.5039370078740157
        },
        {
          "duration": 0.06770833333334281,
          "durationTicks": 65,
          "midi": 24,
          "name": "C1",
          "ticks": 152880,
          "time": 159.25,
          "velocity": 0.5039370078740157
        },
        {
          "duration": 0.08854166666665719,
          "durationTicks": 85,
          "midi": 36,
          "name": "C2",
          "ticks": 153120,
          "time": 159.5,
          "velocity": 0.5039370078740157
        },
        {
          "duration": 0.06041666666666856,
          "durationTicks": 58,
          "midi": 39,
          "name": "D#2",
          "ticks": 153360,
          "time": 159.75,
          "velocity": 0.5039370078740157
        },
        {
          "duration": 0.09166666666666856,
          "durationTicks": 88,
          "midi": 29,
          "name": "F1",
          "ticks": 153600,
          "time": 160,
          "velocity": 0.5039370078740157
        },
        {
          "duration": 0.12291666666666856,
          "durationTicks": 118,
          "midi": 41,
          "name": "F2",
          "ticks": 154080,
          "time": 160.5,
          "velocity": 0.5039370078740157
        },
        {
          "duration": 0.08333333333334281,
          "durationTicks": 80,
          "midi": 24,
          "name": "C1",
          "ticks": 154680,
          "time": 161.125,
          "velocity": 0.5039370078740157
        },
        {
          "duration": 0.07291666666665719,
          "durationTicks": 70,
          "midi": 36,
          "name": "C2",
          "ticks": 154800,
          "time": 161.25,
          "velocity": 0.5039370078740157
        },
        {
          "duration": 0.08333333333334281,
          "durationTicks": 80,
          "midi": 39,
          "name": "D#2",
          "ticks": 155040,
          "time": 161.5,
          "velocity": 0.5039370078740157
        },
        {
          "duration": 0.07604166666666856,
          "durationTicks": 73,
          "midi": 41,
          "name": "F2",
          "ticks": 155280,
          "time": 161.75,
          "velocity": 0.5039370078740157
        },
        {
          "duration": 0.08645833333332575,
          "durationTicks": 83,
          "midi": 25,
          "name": "C#1",
          "ticks": 155520,
          "time": 162,
          "velocity": 0.5039370078740157
        },
        {
          "duration": 0.11250000000001137,
          "durationTicks": 108,
          "midi": 37,
          "name": "C#2",
          "ticks": 156000,
          "time": 162.5,
          "velocity": 0.5039370078740157
        },
        {
          "duration": 0.09166666666666856,
          "durationTicks": 88,
          "midi": 27,
          "name": "D#1",
          "ticks": 156360,
          "time": 162.875,
          "velocity": 0.5039370078740157
        },
        {
          "duration": 0.0625,
          "durationTicks": 60,
          "midi": 39,
          "name": "D#2",
          "ticks": 156600,
          "time": 163.125,
          "velocity": 0.5039370078740157
        },
        {
          "duration": 0.06562500000001137,
          "durationTicks": 63,
          "midi": 24,
          "name": "C1",
          "ticks": 156720,
          "time": 163.25,
          "velocity": 0.5039370078740157
        },
        {
          "duration": 0.07604166666666856,
          "durationTicks": 73,
          "midi": 27,
          "name": "D#1",
          "ticks": 156960,
          "time": 163.5,
          "velocity": 0.5039370078740157
        },
        {
          "duration": 0.07604166666666856,
          "durationTicks": 73,
          "midi": 29,
          "name": "F1",
          "ticks": 157200,
          "time": 163.75,
          "velocity": 0.5039370078740157
        },
        {
          "duration": 0.0625,
          "durationTicks": 60,
          "midi": 41,
          "name": "F2",
          "ticks": 157440,
          "time": 164,
          "velocity": 0.5039370078740157
        },
        {
          "duration": 0.06562500000001137,
          "durationTicks": 63,
          "midi": 39,
          "name": "D#2",
          "ticks": 158520,
          "time": 165.125,
          "velocity": 0.5039370078740157
        },
        {
          "duration": 0.078125,
          "durationTicks": 75,
          "midi": 36,
          "name": "C2",
          "ticks": 158640,
          "time": 165.25,
          "velocity": 0.5039370078740157
        },
        {
          "duration": 0.07604166666666856,
          "durationTicks": 73,
          "midi": 34,
          "name": "A#1",
          "ticks": 158880,
          "time": 165.5,
          "velocity": 0.5039370078740157
        },
        {
          "duration": 0.08125000000001137,
          "durationTicks": 78,
          "midi": 32,
          "name": "G#1",
          "ticks": 159120,
          "time": 165.75,
          "velocity": 0.5039370078740157
        },
        {
          "duration": 0.12812500000001137,
          "durationTicks": 123,
          "midi": 29,
          "name": "F1",
          "ticks": 159360,
          "time": 166,
          "velocity": 0.5039370078740157
        },
        {
          "duration": 0.12291666666666856,
          "durationTicks": 118,
          "midi": 41,
          "name": "F2",
          "ticks": 159840,
          "time": 166.5,
          "velocity": 0.5039370078740157
        },
        {
          "duration": 0.11458333333334281,
          "durationTicks": 110,
          "midi": 27,
          "name": "D#1",
          "ticks": 160200,
          "time": 166.875,
          "velocity": 0.5039370078740157
        },
        {
          "duration": 0.07604166666666856,
          "durationTicks": 73,
          "midi": 39,
          "name": "D#2",
          "ticks": 160440,
          "time": 167.125,
          "velocity": 0.5039370078740157
        },
        {
          "duration": 0.06770833333334281,
          "durationTicks": 65,
          "midi": 24,
          "name": "C1",
          "ticks": 160560,
          "time": 167.25,
          "velocity": 0.5039370078740157
        },
        {
          "duration": 0.08854166666665719,
          "durationTicks": 85,
          "midi": 36,
          "name": "C2",
          "ticks": 160800,
          "time": 167.5,
          "velocity": 0.5039370078740157
        },
        {
          "duration": 0.06041666666666856,
          "durationTicks": 58,
          "midi": 39,
          "name": "D#2",
          "ticks": 161040,
          "time": 167.75,
          "velocity": 0.5039370078740157
        },
        {
          "duration": 0.09166666666666856,
          "durationTicks": 88,
          "midi": 29,
          "name": "F1",
          "ticks": 161280,
          "time": 168,
          "velocity": 0.5039370078740157
        },
        {
          "duration": 0.12291666666666856,
          "durationTicks": 118,
          "midi": 41,
          "name": "F2",
          "ticks": 161760,
          "time": 168.5,
          "velocity": 0.5039370078740157
        },
        {
          "duration": 0.08333333333334281,
          "durationTicks": 80,
          "midi": 24,
          "name": "C1",
          "ticks": 162360,
          "time": 169.125,
          "velocity": 0.5039370078740157
        },
        {
          "duration": 0.07291666666665719,
          "durationTicks": 70,
          "midi": 36,
          "name": "C2",
          "ticks": 162480,
          "time": 169.25,
          "velocity": 0.5039370078740157
        },
        {
          "duration": 0.08333333333334281,
          "durationTicks": 80,
          "midi": 39,
          "name": "D#2",
          "ticks": 162720,
          "time": 169.5,
          "velocity": 0.5039370078740157
        },
        {
          "duration": 0.07604166666666856,
          "durationTicks": 73,
          "midi": 41,
          "name": "F2",
          "ticks": 162960,
          "time": 169.75,
          "velocity": 0.5039370078740157
        },
        {
          "duration": 0.08645833333332575,
          "durationTicks": 83,
          "midi": 25,
          "name": "C#1",
          "ticks": 163200,
          "time": 170,
          "velocity": 0.5039370078740157
        },
        {
          "duration": 0.11250000000001137,
          "durationTicks": 108,
          "midi": 37,
          "name": "C#2",
          "ticks": 163680,
          "time": 170.5,
          "velocity": 0.5039370078740157
        },
        {
          "duration": 0.09166666666666856,
          "durationTicks": 88,
          "midi": 27,
          "name": "D#1",
          "ticks": 164040,
          "time": 170.875,
          "velocity": 0.5039370078740157
        },
        {
          "duration": 0.0625,
          "durationTicks": 60,
          "midi": 39,
          "name": "D#2",
          "ticks": 164280,
          "time": 171.125,
          "velocity": 0.5039370078740157
        },
        {
          "duration": 0.06562500000001137,
          "durationTicks": 63,
          "midi": 24,
          "name": "C1",
          "ticks": 164400,
          "time": 171.25,
          "velocity": 0.5039370078740157
        },
        {
          "duration": 0.07604166666666856,
          "durationTicks": 73,
          "midi": 27,
          "name": "D#1",
          "ticks": 164640,
          "time": 171.5,
          "velocity": 0.5039370078740157
        },
        {
          "duration": 0.07604166666666856,
          "durationTicks": 73,
          "midi": 29,
          "name": "F1",
          "ticks": 164880,
          "time": 171.75,
          "velocity": 0.5039370078740157
        },
        {
          "duration": 0.0625,
          "durationTicks": 60,
          "midi": 41,
          "name": "F2",
          "ticks": 165120,
          "time": 172,
          "velocity": 0.5039370078740157
        },
        {
          "duration": 0.06562500000001137,
          "durationTicks": 63,
          "midi": 39,
          "name": "D#2",
          "ticks": 166200,
          "time": 173.125,
          "velocity": 0.5039370078740157
        },
        {
          "duration": 0.078125,
          "durationTicks": 75,
          "midi": 36,
          "name": "C2",
          "ticks": 166320,
          "time": 173.25,
          "velocity": 0.5039370078740157
        },
        {
          "duration": 0.07604166666666856,
          "durationTicks": 73,
          "midi": 34,
          "name": "A#1",
          "ticks": 166560,
          "time": 173.5,
          "velocity": 0.5039370078740157
        },
        {
          "duration": 0.08125000000001137,
          "durationTicks": 78,
          "midi": 32,
          "name": "G#1",
          "ticks": 166800,
          "time": 173.75,
          "velocity": 0.5039370078740157
        }
      ],
      "endOfTrackTicks": 167360
    },
    {
      "channel": 0,
      "controlChanges": {
        "7": [
          {
            "number": 7,
            "ticks": 0,
            "time": 0,
            "value": 0.6299212598425197
          }
        ]
      },
      "pitchBends": [],
      "instrument": {
        "family": "brass",
        "number": 61,
        "name": "brass section"
      },
      "name": "",
      "notes": []
    },
    {
      "channel": 5,
      "controlChanges": {
        "7": [
          {
            "number": 7,
            "ticks": 0,
            "time": 0,
            "value": 0.44881889763779526
          }
        ]
      },
      "pitchBends": [],
      "instrument": {
        "family": "ensemble",
        "number": 51,
        "name": "synthstrings 2"
      },
      "name": "",
      "notes": [
        {
          "duration": 0.1125,
          "durationTicks": 108,
          "midi": 65,
          "name": "F4",
          "ticks": 0,
          "time": 0,
          "velocity": 0.5039370078740157
        },
        {
          "duration": 0.09687500000000004,
          "durationTicks": 93,
          "midi": 68,
          "name": "G#4",
          "ticks": 465,
          "time": 0.484375,
          "velocity": 0.5039370078740157
        },
        {
          "duration": 0.08333333333333337,
          "durationTicks": 80,
          "midi": 65,
          "name": "F4",
          "ticks": 825,
          "time": 0.859375,
          "velocity": 0.5039370078740157
        },
        {
          "duration": 0.09895833333333326,
          "durationTicks": 95,
          "midi": 65,
          "name": "F4",
          "ticks": 1065,
          "time": 1.109375,
          "velocity": 0.5039370078740157
        },
        {
          "duration": 0.08125000000000004,
          "durationTicks": 78,
          "midi": 70,
          "name": "A#4",
          "ticks": 1185,
          "time": 1.234375,
          "velocity": 0.5039370078740157
        },
        {
          "duration": 0.09375,
          "durationTicks": 90,
          "midi": 65,
          "name": "F4",
          "ticks": 1425,
          "time": 1.484375,
          "velocity": 0.5039370078740157
        },
        {
          "duration": 0.09895833333333326,
          "durationTicks": 95,
          "midi": 63,
          "name": "D#4",
          "ticks": 1665,
          "time": 1.734375,
          "velocity": 0.5039370078740157
        },
        {
          "duration": 0.1020833333333333,
          "durationTicks": 98,
          "midi": 65,
          "name": "F4",
          "ticks": 1905,
          "time": 1.984375,
          "velocity": 0.5039370078740157
        },
        {
          "duration": 0.08854166666666652,
          "durationTicks": 85,
          "midi": 72,
          "name": "C5",
          "ticks": 2385,
          "time": 2.484375,
          "velocity": 0.5039370078740157
        },
        {
          "duration": 0.0864583333333333,
          "durationTicks": 83,
          "midi": 65,
          "name": "F4",
          "ticks": 2745,
          "time": 2.859375,
          "velocity": 0.5039370078740157
        },
        {
          "duration": 0.09166666666666679,
          "durationTicks": 88,
          "midi": 65,
          "name": "F4",
          "ticks": 2985,
          "time": 3.109375,
          "velocity": 0.5039370078740157
        },
        {
          "duration": 0.06562499999999982,
          "durationTicks": 63,
          "midi": 73,
          "name": "C#5",
          "ticks": 3105,
          "time": 3.234375,
          "velocity": 0.5039370078740157
        },
        {
          "duration": 0.06770833333333348,
          "durationTicks": 65,
          "midi": 72,
          "name": "C5",
          "ticks": 3345,
          "time": 3.484375,
          "velocity": 0.5039370078740157
        },
        {
          "duration": 0.05208333333333348,
          "durationTicks": 50,
          "midi": 68,
          "name": "G#4",
          "ticks": 3585,
          "time": 3.734375,
          "velocity": 0.5039370078740157
        },
        {
          "duration": 0.05208333333333304,
          "durationTicks": 50,
          "midi": 65,
          "name": "F4",
          "ticks": 3825,
          "time": 3.984375,
          "velocity": 0.5039370078740157
        },
        {
          "duration": 0.04999999999999982,
          "durationTicks": 48,
          "midi": 72,
          "name": "C5",
          "ticks": 4065,
          "time": 4.234375,
          "velocity": 0.5039370078740157
        },
        {
          "duration": 0.07291666666666696,
          "durationTicks": 70,
          "midi": 77,
          "name": "F5",
          "ticks": 4305,
          "time": 4.484375,
          "velocity": 0.5039370078740157
        },
        {
          "duration": 0.05729166666666696,
          "durationTicks": 55,
          "midi": 65,
          "name": "F4",
          "ticks": 4545,
          "time": 4.734375,
          "velocity": 0.5039370078740157
        },
        {
          "duration": 0.08333333333333304,
          "durationTicks": 80,
          "midi": 63,
          "name": "D#4",
          "ticks": 4665,
          "time": 4.859375,
          "velocity": 0.5039370078740157
        },
        {
          "duration": 0.08124999999999982,
          "durationTicks": 78,
          "midi": 63,
          "name": "D#4",
          "ticks": 4905,
          "time": 5.109375,
          "velocity": 0.5039370078740157
        },
        {
          "duration": 0.0625,
          "durationTicks": 60,
          "midi": 60,
          "name": "C4",
          "ticks": 5025,
          "time": 5.234375,
          "velocity": 0.5039370078740157
        },
        {
          "duration": 0.08645833333333375,
          "durationTicks": 83,
          "midi": 67,
          "name": "G4",
          "ticks": 5265,
          "time": 5.484375,
          "velocity": 0.5039370078740157
        },
        {
          "duration": 1.2427083333333337,
          "durationTicks": 1193,
          "midi": 65,
          "name": "F4",
          "ticks": 5505,
          "time": 5.734375,
          "velocity": 0.5039370078740157
        },
        {
          "duration": 0.13854166666666679,
          "durationTicks": 133,
          "midi": 65,
          "name": "F4",
          "ticks": 7665,
          "time": 7.984375,
          "velocity": 0.5039370078740157
        },
        {
          "duration": 0.09687500000000071,
          "durationTicks": 93,
          "midi": 68,
          "name": "G#4",
          "ticks": 8145,
          "time": 8.484375,
          "velocity": 0.5039370078740157
        },
        {
          "duration": 0.07291666666666607,
          "durationTicks": 70,
          "midi": 65,
          "name": "F4",
          "ticks": 8505,
          "time": 8.859375,
          "velocity": 0.5039370078740157
        },
        {
          "duration": 0.08645833333333286,
          "durationTicks": 83,
          "midi": 65,
          "name": "F4",
          "ticks": 8745,
          "time": 9.109375,
          "velocity": 0.5039370078740157
        },
        {
          "duration": 0.08333333333333393,
          "durationTicks": 80,
          "midi": 70,
          "name": "A#4",
          "ticks": 8865,
          "time": 9.234375,
          "velocity": 0.5039370078740157
        },
        {
          "duration": 0.10416666666666607,
          "durationTicks": 100,
          "midi": 65,
          "name": "F4",
          "ticks": 9105,
          "time": 9.484375,
          "velocity": 0.5039370078740157
        },
        {
          "duration": 0.078125,
          "durationTicks": 75,
          "midi": 63,
          "name": "D#4",
          "ticks": 9345,
          "time": 9.734375,
          "velocity": 0.5039370078740157
        },
        {
          "duration": 0.10208333333333286,
          "durationTicks": 98,
          "midi": 65,
          "name": "F4",
          "ticks": 9585,
          "time": 9.984375,
          "velocity": 0.5039370078740157
        },
        {
          "duration": 0.09895833333333393,
          "durationTicks": 95,
          "midi": 72,
          "name": "C5",
          "ticks": 10065,
          "time": 10.484375,
          "velocity": 0.5039370078740157
        },
        {
          "duration": 0.09895833333333393,
          "durationTicks": 95,
          "midi": 65,
          "name": "F4",
          "ticks": 10425,
          "time": 10.859375,
          "velocity": 0.5039370078740157
        },
        {
          "duration": 0.09375,
          "durationTicks": 90,
          "midi": 65,
          "name": "F4",
          "ticks": 10665,
          "time": 11.109375,
          "velocity": 0.5039370078740157
        },
        {
          "duration": 0.07604166666666679,
          "durationTicks": 73,
          "midi": 73,
          "name": "C#5",
          "ticks": 10785,
          "time": 11.234375,
          "velocity": 0.5039370078740157
        },
        {
          "duration": 0.078125,
          "durationTicks": 75,
          "midi": 72,
          "name": "C5",
          "ticks": 11025,
          "time": 11.484375,
          "velocity": 0.5039370078740157
        },
        {
          "duration": 0.060416666666666785,
          "durationTicks": 58,
          "midi": 68,
          "name": "G#4",
          "ticks": 11265,
          "time": 11.734375,
          "velocity": 0.5039370078740157
        },
        {
          "duration": 0.05520833333333286,
          "durationTicks": 53,
          "midi": 65,
          "name": "F4",
          "ticks": 11505,
          "time": 11.984375,
          "velocity": 0.5039370078740157
        },
        {
          "duration": 0.057291666666666075,
          "durationTicks": 55,
          "midi": 72,
          "name": "C5",
          "ticks": 11745,
          "time": 12.234375,
          "velocity": 0.5039370078740157
        },
        {
          "duration": 0.07604166666666679,
          "durationTicks": 73,
          "midi": 77,
          "name": "F5",
          "ticks": 11985,
          "time": 12.484375,
          "velocity": 0.5039370078740157
        },
        {
          "duration": 0.060416666666666785,
          "durationTicks": 58,
          "midi": 65,
          "name": "F4",
          "ticks": 12225,
          "time": 12.734375,
          "velocity": 0.5039370078740157
        },
        {
          "duration": 0.08333333333333393,
          "durationTicks": 80,
          "midi": 63,
          "name": "D#4",
          "ticks": 12345,
          "time": 12.859375,
          "velocity": 0.5039370078740157
        },
        {
          "duration": 0.08333333333333393,
          "durationTicks": 80,
          "midi": 63,
          "name": "D#4",
          "ticks": 12585,
          "time": 13.109375,
          "velocity": 0.5039370078740157
        },
        {
          "duration": 0.0625,
          "durationTicks": 60,
          "midi": 60,
          "name": "C4",
          "ticks": 12705,
          "time": 13.234375,
          "velocity": 0.5039370078740157
        },
        {
          "duration": 0.1875,
          "durationTicks": 180,
          "midi": 67,
          "name": "G4",
          "ticks": 12945,
          "time": 13.484375,
          "velocity": 0.5039370078740157
        },
        {
          "duration": 1.395833333333334,
          "durationTicks": 1340,
          "midi": 65,
          "name": "F4",
          "ticks": 13185,
          "time": 13.734375,
          "velocity": 0.5039370078740157
        },
        {
          "duration": 0.11249999999999716,
          "durationTicks": 108,
          "midi": 65,
          "name": "F4",
          "ticks": 30705,
          "time": 31.984375,
          "velocity": 0.5039370078740157
        },
        {
          "duration": 0.09687499999999716,
          "durationTicks": 93,
          "midi": 68,
          "name": "G#4",
          "ticks": 31185,
          "time": 32.484375,
          "velocity": 0.5039370078740157
        },
        {
          "duration": 0.0833333333333357,
          "durationTicks": 80,
          "midi": 65,
          "name": "F4",
          "ticks": 31545,
          "time": 32.859375,
          "velocity": 0.5039370078740157
        },
        {
          "duration": 0.0989583333333357,
          "durationTicks": 95,
          "midi": 65,
          "name": "F4",
          "ticks": 31785,
          "time": 33.109375,
          "velocity": 0.5039370078740157
        },
        {
          "duration": 0.08124999999999716,
          "durationTicks": 78,
          "midi": 70,
          "name": "A#4",
          "ticks": 31905,
          "time": 33.234375,
          "velocity": 0.5039370078740157
        },
        {
          "duration": 0.09375,
          "durationTicks": 90,
          "midi": 65,
          "name": "F4",
          "ticks": 32145,
          "time": 33.484375,
          "velocity": 0.5039370078740157
        },
        {
          "duration": 0.0989583333333357,
          "durationTicks": 95,
          "midi": 63,
          "name": "D#4",
          "ticks": 32385,
          "time": 33.734375,
          "velocity": 0.5039370078740157
        },
        {
          "duration": 0.10208333333333286,
          "durationTicks": 98,
          "midi": 65,
          "name": "F4",
          "ticks": 32625,
          "time": 33.984375,
          "velocity": 0.5039370078740157
        },
        {
          "duration": 0.0885416666666643,
          "durationTicks": 85,
          "midi": 72,
          "name": "C5",
          "ticks": 33105,
          "time": 34.484375,
          "velocity": 0.5039370078740157
        },
        {
          "duration": 0.08645833333333286,
          "durationTicks": 83,
          "midi": 65,
          "name": "F4",
          "ticks": 33465,
          "time": 34.859375,
          "velocity": 0.5039370078740157
        },
        {
          "duration": 0.09166666666666856,
          "durationTicks": 88,
          "midi": 65,
          "name": "F4",
          "ticks": 33705,
          "time": 35.109375,
          "velocity": 0.5039370078740157
        },
        {
          "duration": 0.06562499999999716,
          "durationTicks": 63,
          "midi": 73,
          "name": "C#5",
          "ticks": 33825,
          "time": 35.234375,
          "velocity": 0.5039370078740157
        },
        {
          "duration": 0.0677083333333357,
          "durationTicks": 65,
          "midi": 72,
          "name": "C5",
          "ticks": 34065,
          "time": 35.484375,
          "velocity": 0.5039370078740157
        },
        {
          "duration": 0.0520833333333357,
          "durationTicks": 50,
          "midi": 68,
          "name": "G#4",
          "ticks": 34305,
          "time": 35.734375,
          "velocity": 0.5039370078740157
        },
        {
          "duration": 0.0520833333333357,
          "durationTicks": 50,
          "midi": 65,
          "name": "F4",
          "ticks": 34545,
          "time": 35.984375,
          "velocity": 0.5039370078740157
        },
        {
          "duration": 0.04999999999999716,
          "durationTicks": 48,
          "midi": 72,
          "name": "C5",
          "ticks": 34785,
          "time": 36.234375,
          "velocity": 0.5039370078740157
        },
        {
          "duration": 0.0729166666666643,
          "durationTicks": 70,
          "midi": 77,
          "name": "F5",
          "ticks": 35025,
          "time": 36.484375,
          "velocity": 0.5039370078740157
        },
        {
          "duration": 0.0572916666666643,
          "durationTicks": 55,
          "midi": 65,
          "name": "F4",
          "ticks": 35265,
          "time": 36.734375,
          "velocity": 0.5039370078740157
        },
        {
          "duration": 0.0833333333333357,
          "durationTicks": 80,
          "midi": 63,
          "name": "D#4",
          "ticks": 35385,
          "time": 36.859375,
          "velocity": 0.5039370078740157
        },
        {
          "duration": 0.08124999999999716,
          "durationTicks": 78,
          "midi": 63,
          "name": "D#4",
          "ticks": 35625,
          "time": 37.109375,
          "velocity": 0.5039370078740157
        },
        {
          "duration": 0.0625,
          "durationTicks": 60,
          "midi": 60,
          "name": "C4",
          "ticks": 35745,
          "time": 37.234375,
          "velocity": 0.5039370078740157
        },
        {
          "duration": 0.08645833333333286,
          "durationTicks": 83,
          "midi": 67,
          "name": "G4",
          "ticks": 35985,
          "time": 37.484375,
          "velocity": 0.5039370078740157
        },
        {
          "duration": 1.2427083333333329,
          "durationTicks": 1193,
          "midi": 65,
          "name": "F4",
          "ticks": 36225,
          "time": 37.734375,
          "velocity": 0.5039370078740157
        },
        {
          "duration": 0.13854166666666856,
          "durationTicks": 133,
          "midi": 65,
          "name": "F4",
          "ticks": 38385,
          "time": 39.984375,
          "velocity": 0.5039370078740157
        },
        {
          "duration": 0.09687499999999716,
          "durationTicks": 93,
          "midi": 68,
          "name": "G#4",
          "ticks": 38865,
          "time": 40.484375,
          "velocity": 0.5039370078740157
        },
        {
          "duration": 0.0729166666666643,
          "durationTicks": 70,
          "midi": 65,
          "name": "F4",
          "ticks": 39225,
          "time": 40.859375,
          "velocity": 0.5039370078740157
        },
        {
          "duration": 0.08645833333333286,
          "durationTicks": 83,
          "midi": 65,
          "name": "F4",
          "ticks": 39465,
          "time": 41.109375,
          "velocity": 0.5039370078740157
        },
        {
          "duration": 0.0833333333333357,
          "durationTicks": 80,
          "midi": 70,
          "name": "A#4",
          "ticks": 39585,
          "time": 41.234375,
          "velocity": 0.5039370078740157
        },
        {
          "duration": 0.1041666666666643,
          "durationTicks": 100,
          "midi": 65,
          "name": "F4",
          "ticks": 39825,
          "time": 41.484375,
          "velocity": 0.5039370078740157
        },
        {
          "duration": 0.078125,
          "durationTicks": 75,
          "midi": 63,
          "name": "D#4",
          "ticks": 40065,
          "time": 41.734375,
          "velocity": 0.5039370078740157
        },
        {
          "duration": 0.10208333333333286,
          "durationTicks": 98,
          "midi": 65,
          "name": "F4",
          "ticks": 40305,
          "time": 41.984375,
          "velocity": 0.5039370078740157
        },
        {
          "duration": 0.0989583333333357,
          "durationTicks": 95,
          "midi": 72,
          "name": "C5",
          "ticks": 40785,
          "time": 42.484375,
          "velocity": 0.5039370078740157
        },
        {
          "duration": 0.0989583333333357,
          "durationTicks": 95,
          "midi": 65,
          "name": "F4",
          "ticks": 41145,
          "time": 42.859375,
          "velocity": 0.5039370078740157
        },
        {
          "duration": 0.09375,
          "durationTicks": 90,
          "midi": 65,
          "name": "F4",
          "ticks": 41385,
          "time": 43.109375,
          "velocity": 0.5039370078740157
        },
        {
          "duration": 0.07604166666666856,
          "durationTicks": 73,
          "midi": 73,
          "name": "C#5",
          "ticks": 41505,
          "time": 43.234375,
          "velocity": 0.5039370078740157
        },
        {
          "duration": 0.078125,
          "durationTicks": 75,
          "midi": 72,
          "name": "C5",
          "ticks": 41745,
          "time": 43.484375,
          "velocity": 0.5039370078740157
        },
        {
          "duration": 0.06041666666666856,
          "durationTicks": 58,
          "midi": 68,
          "name": "G#4",
          "ticks": 41985,
          "time": 43.734375,
          "velocity": 0.5039370078740157
        },
        {
          "duration": 0.05520833333333286,
          "durationTicks": 53,
          "midi": 65,
          "name": "F4",
          "ticks": 42225,
          "time": 43.984375,
          "velocity": 0.5039370078740157
        },
        {
          "duration": 0.0572916666666643,
          "durationTicks": 55,
          "midi": 72,
          "name": "C5",
          "ticks": 42465,
          "time": 44.234375,
          "velocity": 0.5039370078740157
        },
        {
          "duration": 0.07604166666666856,
          "durationTicks": 73,
          "midi": 77,
          "name": "F5",
          "ticks": 42705,
          "time": 44.484375,
          "velocity": 0.5039370078740157
        },
        {
          "duration": 0.06041666666666856,
          "durationTicks": 58,
          "midi": 65,
          "name": "F4",
          "ticks": 42945,
          "time": 44.734375,
          "velocity": 0.5039370078740157
        },
        {
          "duration": 0.0833333333333357,
          "durationTicks": 80,
          "midi": 63,
          "name": "D#4",
          "ticks": 43065,
          "time": 44.859375,
          "velocity": 0.5039370078740157
        },
        {
          "duration": 0.0833333333333357,
          "durationTicks": 80,
          "midi": 63,
          "name": "D#4",
          "ticks": 43305,
          "time": 45.109375,
          "velocity": 0.5039370078740157
        },
        {
          "duration": 0.0625,
          "durationTicks": 60,
          "midi": 60,
          "name": "C4",
          "ticks": 43425,
          "time": 45.234375,
          "velocity": 0.5039370078740157
        },
        {
          "duration": 0.1875,
          "durationTicks": 180,
          "midi": 67,
          "name": "G4",
          "ticks": 43665,
          "time": 45.484375,
          "velocity": 0.5039370078740157
        },
        {
          "duration": 1.3958333333333357,
          "durationTicks": 1340,
          "midi": 65,
          "name": "F4",
          "ticks": 43905,
          "time": 45.734375,
          "velocity": 0.5039370078740157
        },
        {
          "duration": 0.11249999999999716,
          "durationTicks": 108,
          "midi": 65,
          "name": "F4",
          "ticks": 82545,
          "time": 85.984375,
          "velocity": 0.5039370078740157
        },
        {
          "duration": 0.09687499999999716,
          "durationTicks": 93,
          "midi": 68,
          "name": "G#4",
          "ticks": 83025,
          "time": 86.484375,
          "velocity": 0.5039370078740157
        },
        {
          "duration": 0.0833333333333286,
          "durationTicks": 80,
          "midi": 65,
          "name": "F4",
          "ticks": 83385,
          "time": 86.859375,
          "velocity": 0.5039370078740157
        },
        {
          "duration": 0.0989583333333286,
          "durationTicks": 95,
          "midi": 65,
          "name": "F4",
          "ticks": 83625,
          "time": 87.109375,
          "velocity": 0.5039370078740157
        },
        {
          "duration": 0.08124999999999716,
          "durationTicks": 78,
          "midi": 70,
          "name": "A#4",
          "ticks": 83745,
          "time": 87.234375,
          "velocity": 0.5039370078740157
        },
        {
          "duration": 0.09375,
          "durationTicks": 90,
          "midi": 65,
          "name": "F4",
          "ticks": 83985,
          "time": 87.484375,
          "velocity": 0.5039370078740157
        },
        {
          "duration": 0.0989583333333286,
          "durationTicks": 95,
          "midi": 63,
          "name": "D#4",
          "ticks": 84225,
          "time": 87.734375,
          "velocity": 0.5039370078740157
        },
        {
          "duration": 0.10208333333333997,
          "durationTicks": 98,
          "midi": 65,
          "name": "F4",
          "ticks": 84465,
          "time": 87.984375,
          "velocity": 0.5039370078740157
        },
        {
          "duration": 0.0885416666666714,
          "durationTicks": 85,
          "midi": 72,
          "name": "C5",
          "ticks": 84945,
          "time": 88.484375,
          "velocity": 0.5039370078740157
        },
        {
          "duration": 0.08645833333333997,
          "durationTicks": 83,
          "midi": 65,
          "name": "F4",
          "ticks": 85305,
          "time": 88.859375,
          "velocity": 0.5039370078740157
        },
        {
          "duration": 0.09166666666666856,
          "durationTicks": 88,
          "midi": 65,
          "name": "F4",
          "ticks": 85545,
          "time": 89.109375,
          "velocity": 0.5039370078740157
        },
        {
          "duration": 0.06562499999999716,
          "durationTicks": 63,
          "midi": 73,
          "name": "C#5",
          "ticks": 85665,
          "time": 89.234375,
          "velocity": 0.5039370078740157
        },
        {
          "duration": 0.0677083333333286,
          "durationTicks": 65,
          "midi": 72,
          "name": "C5",
          "ticks": 85905,
          "time": 89.484375,
          "velocity": 0.5039370078740157
        },
        {
          "duration": 0.052083333333328596,
          "durationTicks": 50,
          "midi": 68,
          "name": "G#4",
          "ticks": 86145,
          "time": 89.734375,
          "velocity": 0.5039370078740157
        },
        {
          "duration": 0.052083333333328596,
          "durationTicks": 50,
          "midi": 65,
          "name": "F4",
          "ticks": 86385,
          "time": 89.984375,
          "velocity": 0.5039370078740157
        },
        {
          "duration": 0.04999999999999716,
          "durationTicks": 48,
          "midi": 72,
          "name": "C5",
          "ticks": 86625,
          "time": 90.234375,
          "velocity": 0.5039370078740157
        },
        {
          "duration": 0.0729166666666714,
          "durationTicks": 70,
          "midi": 77,
          "name": "F5",
          "ticks": 86865,
          "time": 90.484375,
          "velocity": 0.5039370078740157
        },
        {
          "duration": 0.057291666666671404,
          "durationTicks": 55,
          "midi": 65,
          "name": "F4",
          "ticks": 87105,
          "time": 90.734375,
          "velocity": 0.5039370078740157
        },
        {
          "duration": 0.0833333333333286,
          "durationTicks": 80,
          "midi": 63,
          "name": "D#4",
          "ticks": 87225,
          "time": 90.859375,
          "velocity": 0.5039370078740157
        },
        {
          "duration": 0.08124999999999716,
          "durationTicks": 78,
          "midi": 63,
          "name": "D#4",
          "ticks": 87465,
          "time": 91.109375,
          "velocity": 0.5039370078740157
        },
        {
          "duration": 0.0625,
          "durationTicks": 60,
          "midi": 60,
          "name": "C4",
          "ticks": 87585,
          "time": 91.234375,
          "velocity": 0.5039370078740157
        },
        {
          "duration": 0.08645833333333997,
          "durationTicks": 83,
          "midi": 67,
          "name": "G4",
          "ticks": 87825,
          "time": 91.484375,
          "velocity": 0.5039370078740157
        },
        {
          "duration": 1.24270833333334,
          "durationTicks": 1193,
          "midi": 65,
          "name": "F4",
          "ticks": 88065,
          "time": 91.734375,
          "velocity": 0.5039370078740157
        },
        {
          "duration": 0.13854166666666856,
          "durationTicks": 133,
          "midi": 65,
          "name": "F4",
          "ticks": 90225,
          "time": 93.984375,
          "velocity": 0.5039370078740157
        },
        {
          "duration": 0.09687499999999716,
          "durationTicks": 93,
          "midi": 68,
          "name": "G#4",
          "ticks": 90705,
          "time": 94.484375,
          "velocity": 0.5039370078740157
        },
        {
          "duration": 0.0729166666666714,
          "durationTicks": 70,
          "midi": 65,
          "name": "F4",
          "ticks": 91065,
          "time": 94.859375,
          "velocity": 0.5039370078740157
        },
        {
          "duration": 0.08645833333333997,
          "durationTicks": 83,
          "midi": 65,
          "name": "F4",
          "ticks": 91305,
          "time": 95.109375,
          "velocity": 0.5039370078740157
        },
        {
          "duration": 0.0833333333333286,
          "durationTicks": 80,
          "midi": 70,
          "name": "A#4",
          "ticks": 91425,
          "time": 95.234375,
          "velocity": 0.5039370078740157
        },
        {
          "duration": 0.1041666666666714,
          "durationTicks": 100,
          "midi": 65,
          "name": "F4",
          "ticks": 91665,
          "time": 95.484375,
          "velocity": 0.5039370078740157
        },
        {
          "duration": 0.078125,
          "durationTicks": 75,
          "midi": 63,
          "name": "D#4",
          "ticks": 91905,
          "time": 95.734375,
          "velocity": 0.5039370078740157
        },
        {
          "duration": 0.10208333333333997,
          "durationTicks": 98,
          "midi": 65,
          "name": "F4",
          "ticks": 92145,
          "time": 95.984375,
          "velocity": 0.5039370078740157
        },
        {
          "duration": 0.0989583333333286,
          "durationTicks": 95,
          "midi": 72,
          "name": "C5",
          "ticks": 92625,
          "time": 96.484375,
          "velocity": 0.5039370078740157
        },
        {
          "duration": 0.0989583333333286,
          "durationTicks": 95,
          "midi": 65,
          "name": "F4",
          "ticks": 92985,
          "time": 96.859375,
          "velocity": 0.5039370078740157
        },
        {
          "duration": 0.09375,
          "durationTicks": 90,
          "midi": 65,
          "name": "F4",
          "ticks": 93225,
          "time": 97.109375,
          "velocity": 0.5039370078740157
        },
        {
          "duration": 0.07604166666666856,
          "durationTicks": 73,
          "midi": 73,
          "name": "C#5",
          "ticks": 93345,
          "time": 97.234375,
          "velocity": 0.5039370078740157
        },
        {
          "duration": 0.078125,
          "durationTicks": 75,
          "midi": 72,
          "name": "C5",
          "ticks": 93585,
          "time": 97.484375,
          "velocity": 0.5039370078740157
        },
        {
          "duration": 0.06041666666666856,
          "durationTicks": 58,
          "midi": 68,
          "name": "G#4",
          "ticks": 93825,
          "time": 97.734375,
          "velocity": 0.5039370078740157
        },
        {
          "duration": 0.055208333333339965,
          "durationTicks": 53,
          "midi": 65,
          "name": "F4",
          "ticks": 94065,
          "time": 97.984375,
          "velocity": 0.5039370078740157
        },
        {
          "duration": 0.057291666666671404,
          "durationTicks": 55,
          "midi": 72,
          "name": "C5",
          "ticks": 94305,
          "time": 98.234375,
          "velocity": 0.5039370078740157
        },
        {
          "duration": 0.07604166666666856,
          "durationTicks": 73,
          "midi": 77,
          "name": "F5",
          "ticks": 94545,
          "time": 98.484375,
          "velocity": 0.5039370078740157
        },
        {
          "duration": 0.06041666666666856,
          "durationTicks": 58,
          "midi": 65,
          "name": "F4",
          "ticks": 94785,
          "time": 98.734375,
          "velocity": 0.5039370078740157
        },
        {
          "duration": 0.0833333333333286,
          "durationTicks": 80,
          "midi": 63,
          "name": "D#4",
          "ticks": 94905,
          "time": 98.859375,
          "velocity": 0.5039370078740157
        },
        {
          "duration": 0.0833333333333286,
          "durationTicks": 80,
          "midi": 63,
          "name": "D#4",
          "ticks": 95145,
          "time": 99.109375,
          "velocity": 0.5039370078740157
        },
        {
          "duration": 0.0625,
          "durationTicks": 60,
          "midi": 60,
          "name": "C4",
          "ticks": 95265,
          "time": 99.234375,
          "velocity": 0.5039370078740157
        },
        {
          "duration": 0.1875,
          "durationTicks": 180,
          "midi": 67,
          "name": "G4",
          "ticks": 95505,
          "time": 99.484375,
          "velocity": 0.5039370078740157
        },
        {
          "duration": 1.3958333333333286,
          "durationTicks": 1340,
          "midi": 65,
          "name": "F4",
          "ticks": 95745,
          "time": 99.734375,
          "velocity": 0.5039370078740157
        },
        {
          "duration": 0.11250000000001137,
          "durationTicks": 108,
          "midi": 65,
          "name": "F4",
          "ticks": 151680,
          "time": 158,
          "velocity": 0.5039370078740157
        },
        {
          "duration": 0.09687500000001137,
          "durationTicks": 93,
          "midi": 68,
          "name": "G#4",
          "ticks": 152160,
          "time": 158.5,
          "velocity": 0.5039370078740157
        },
        {
          "duration": 0.08333333333334281,
          "durationTicks": 80,
          "midi": 65,
          "name": "F4",
          "ticks": 152520,
          "time": 158.875,
          "velocity": 0.5039370078740157
        },
        {
          "duration": 0.09895833333334281,
          "durationTicks": 95,
          "midi": 65,
          "name": "F4",
          "ticks": 152760,
          "time": 159.125,
          "velocity": 0.5039370078740157
        },
        {
          "duration": 0.08125000000001137,
          "durationTicks": 78,
          "midi": 70,
          "name": "A#4",
          "ticks": 152880,
          "time": 159.25,
          "velocity": 0.5039370078740157
        },
        {
          "duration": 0.09375,
          "durationTicks": 90,
          "midi": 65,
          "name": "F4",
          "ticks": 153120,
          "time": 159.5,
          "velocity": 0.5039370078740157
        },
        {
          "duration": 0.09895833333334281,
          "durationTicks": 95,
          "midi": 63,
          "name": "D#4",
          "ticks": 153360,
          "time": 159.75,
          "velocity": 0.5039370078740157
        },
        {
          "duration": 0.10208333333332575,
          "durationTicks": 98,
          "midi": 65,
          "name": "F4",
          "ticks": 153600,
          "time": 160,
          "velocity": 0.5039370078740157
        },
        {
          "duration": 0.08854166666665719,
          "durationTicks": 85,
          "midi": 72,
          "name": "C5",
          "ticks": 154080,
          "time": 160.5,
          "velocity": 0.5039370078740157
        },
        {
          "duration": 0.08645833333332575,
          "durationTicks": 83,
          "midi": 65,
          "name": "F4",
          "ticks": 154440,
          "time": 160.875,
          "velocity": 0.5039370078740157
        },
        {
          "duration": 0.09166666666666856,
          "durationTicks": 88,
          "midi": 65,
          "name": "F4",
          "ticks": 154680,
          "time": 161.125,
          "velocity": 0.5039370078740157
        },
        {
          "duration": 0.06562500000001137,
          "durationTicks": 63,
          "midi": 73,
          "name": "C#5",
          "ticks": 154800,
          "time": 161.25,
          "velocity": 0.5039370078740157
        },
        {
          "duration": 0.06770833333334281,
          "durationTicks": 65,
          "midi": 72,
          "name": "C5",
          "ticks": 155040,
          "time": 161.5,
          "velocity": 0.5039370078740157
        },
        {
          "duration": 0.05208333333334281,
          "durationTicks": 50,
          "midi": 68,
          "name": "G#4",
          "ticks": 155280,
          "time": 161.75,
          "velocity": 0.5039370078740157
        },
        {
          "duration": 0.05208333333334281,
          "durationTicks": 50,
          "midi": 65,
          "name": "F4",
          "ticks": 155520,
          "time": 162,
          "velocity": 0.5039370078740157
        },
        {
          "duration": 0.05000000000001137,
          "durationTicks": 48,
          "midi": 72,
          "name": "C5",
          "ticks": 155760,
          "time": 162.25,
          "velocity": 0.5039370078740157
        },
        {
          "duration": 0.07291666666665719,
          "durationTicks": 70,
          "midi": 77,
          "name": "F5",
          "ticks": 156000,
          "time": 162.5,
          "velocity": 0.5039370078740157
        },
        {
          "duration": 0.05729166666665719,
          "durationTicks": 55,
          "midi": 65,
          "name": "F4",
          "ticks": 156240,
          "time": 162.75,
          "velocity": 0.5039370078740157
        },
        {
          "duration": 0.08333333333334281,
          "durationTicks": 80,
          "midi": 63,
          "name": "D#4",
          "ticks": 156360,
          "time": 162.875,
          "velocity": 0.5039370078740157
        },
        {
          "duration": 0.08125000000001137,
          "durationTicks": 78,
          "midi": 63,
          "name": "D#4",
          "ticks": 156600,
          "time": 163.125,
          "velocity": 0.5039370078740157
        },
        {
          "duration": 0.0625,
          "durationTicks": 60,
          "midi": 60,
          "name": "C4",
          "ticks": 156720,
          "time": 163.25,
          "velocity": 0.5039370078740157
        },
        {
          "duration": 0.08645833333332575,
          "durationTicks": 83,
          "midi": 67,
          "name": "G4",
          "ticks": 156960,
          "time": 163.5,
          "velocity": 0.5039370078740157
        },
        {
          "duration": 1.2427083333333258,
          "durationTicks": 1193,
          "midi": 65,
          "name": "F4",
          "ticks": 157200,
          "time": 163.75,
          "velocity": 0.5039370078740157
        },
        {
          "duration": 0.13854166666666856,
          "durationTicks": 133,
          "midi": 65,
          "name": "F4",
          "ticks": 159360,
          "time": 166,
          "velocity": 0.5039370078740157
        },
        {
          "duration": 0.09687500000001137,
          "durationTicks": 93,
          "midi": 68,
          "name": "G#4",
          "ticks": 159840,
          "time": 166.5,
          "velocity": 0.5039370078740157
        },
        {
          "duration": 0.07291666666665719,
          "durationTicks": 70,
          "midi": 65,
          "name": "F4",
          "ticks": 160200,
          "time": 166.875,
          "velocity": 0.5039370078740157
        },
        {
          "duration": 0.08645833333332575,
          "durationTicks": 83,
          "midi": 65,
          "name": "F4",
          "ticks": 160440,
          "time": 167.125,
          "velocity": 0.5039370078740157
        },
        {
          "duration": 0.08333333333334281,
          "durationTicks": 80,
          "midi": 70,
          "name": "A#4",
          "ticks": 160560,
          "time": 167.25,
          "velocity": 0.5039370078740157
        },
        {
          "duration": 0.10416666666665719,
          "durationTicks": 100,
          "midi": 65,
          "name": "F4",
          "ticks": 160800,
          "time": 167.5,
          "velocity": 0.5039370078740157
        },
        {
          "duration": 0.078125,
          "durationTicks": 75,
          "midi": 63,
          "name": "D#4",
          "ticks": 161040,
          "time": 167.75,
          "velocity": 0.5039370078740157
        },
        {
          "duration": 0.10208333333332575,
          "durationTicks": 98,
          "midi": 65,
          "name": "F4",
          "ticks": 161280,
          "time": 168,
          "velocity": 0.5039370078740157
        },
        {
          "duration": 0.09895833333334281,
          "durationTicks": 95,
          "midi": 72,
          "name": "C5",
          "ticks": 161760,
          "time": 168.5,
          "velocity": 0.5039370078740157
        },
        {
          "duration": 0.09895833333334281,
          "durationTicks": 95,
          "midi": 65,
          "name": "F4",
          "ticks": 162120,
          "time": 168.875,
          "velocity": 0.5039370078740157
        },
        {
          "duration": 0.09375,
          "durationTicks": 90,
          "midi": 65,
          "name": "F4",
          "ticks": 162360,
          "time": 169.125,
          "velocity": 0.5039370078740157
        },
        {
          "duration": 0.07604166666666856,
          "durationTicks": 73,
          "midi": 73,
          "name": "C#5",
          "ticks": 162480,
          "time": 169.25,
          "velocity": 0.5039370078740157
        },
        {
          "duration": 0.078125,
          "durationTicks": 75,
          "midi": 72,
          "name": "C5",
          "ticks": 162720,
          "time": 169.5,
          "velocity": 0.5039370078740157
        },
        {
          "duration": 0.06041666666666856,
          "durationTicks": 58,
          "midi": 68,
          "name": "G#4",
          "ticks": 162960,
          "time": 169.75,
          "velocity": 0.5039370078740157
        },
        {
          "duration": 0.055208333333325754,
          "durationTicks": 53,
          "midi": 65,
          "name": "F4",
          "ticks": 163200,
          "time": 170,
          "velocity": 0.5039370078740157
        },
        {
          "duration": 0.05729166666665719,
          "durationTicks": 55,
          "midi": 72,
          "name": "C5",
          "ticks": 163440,
          "time": 170.25,
          "velocity": 0.5039370078740157
        },
        {
          "duration": 0.07604166666666856,
          "durationTicks": 73,
          "midi": 77,
          "name": "F5",
          "ticks": 163680,
          "time": 170.5,
          "velocity": 0.5039370078740157
        },
        {
          "duration": 0.06041666666666856,
          "durationTicks": 58,
          "midi": 65,
          "name": "F4",
          "ticks": 163920,
          "time": 170.75,
          "velocity": 0.5039370078740157
        },
        {
          "duration": 0.08333333333334281,
          "durationTicks": 80,
          "midi": 63,
          "name": "D#4",
          "ticks": 164040,
          "time": 170.875,
          "velocity": 0.5039370078740157
        },
        {
          "duration": 0.08333333333334281,
          "durationTicks": 80,
          "midi": 63,
          "name": "D#4",
          "ticks": 164280,
          "time": 171.125,
          "velocity": 0.5039370078740157
        },
        {
          "duration": 0.0625,
          "durationTicks": 60,
          "midi": 60,
          "name": "C4",
          "ticks": 164400,
          "time": 171.25,
          "velocity": 0.5039370078740157
        },
        {
          "duration": 0.1875,
          "durationTicks": 180,
          "midi": 67,
          "name": "G4",
          "ticks": 164640,
          "time": 171.5,
          "velocity": 0.5039370078740157
        },
        {
          "duration": 1.3958333333333428,
          "durationTicks": 1340,
          "midi": 65,
          "name": "F4",
          "ticks": 164880,
          "time": 171.75,
          "velocity": 0.5039370078740157
        }
      ]
    },
    {
      "channel": 6,
      "controlChanges": {},
      "pitchBends": [],
      "instrument": {
        "family": "piano",
        "number": 0,
        "name": "acoustic grand piano"
      },
      "name": "",
      "notes": [
        {
          "duration": 0.1125,
          "durationTicks": 108,
          "midi": 65,
          "name": "F4",
          "ticks": 0,
          "time": 0,
          "velocity": 0.5039370078740157
        },
        {
          "duration": 0.09687499999999993,
          "durationTicks": 93,
          "midi": 68,
          "name": "G#4",
          "ticks": 481,
          "time": 0.5010416666666667,
          "velocity": 0.5039370078740157
        },
        {
          "duration": 0.08333333333333326,
          "durationTicks": 80,
          "midi": 65,
          "name": "F4",
          "ticks": 841,
          "time": 0.8760416666666667,
          "velocity": 0.5039370078740157
        },
        {
          "duration": 0.09895833333333348,
          "durationTicks": 95,
          "midi": 65,
          "name": "F4",
          "ticks": 1081,
          "time": 1.1260416666666666,
          "velocity": 0.5039370078740157
        },
        {
          "duration": 0.08125000000000004,
          "durationTicks": 78,
          "midi": 70,
          "name": "A#4",
          "ticks": 1201,
          "time": 1.2510416666666666,
          "velocity": 0.5039370078740157
        },
        {
          "duration": 0.09375,
          "durationTicks": 90,
          "midi": 65,
          "name": "F4",
          "ticks": 1441,
          "time": 1.5010416666666666,
          "velocity": 0.5039370078740157
        },
        {
          "duration": 0.09895833333333348,
          "durationTicks": 95,
          "midi": 63,
          "name": "D#4",
          "ticks": 1681,
          "time": 1.7510416666666666,
          "velocity": 0.5039370078740157
        },
        {
          "duration": 0.1020833333333333,
          "durationTicks": 98,
          "midi": 65,
          "name": "F4",
          "ticks": 1921,
          "time": 2.0010416666666666,
          "velocity": 0.5039370078740157
        },
        {
          "duration": 0.08854166666666652,
          "durationTicks": 85,
          "midi": 72,
          "name": "C5",
          "ticks": 2401,
          "time": 2.5010416666666666,
          "velocity": 0.5039370078740157
        },
        {
          "duration": 0.0864583333333333,
          "durationTicks": 83,
          "midi": 65,
          "name": "F4",
          "ticks": 2761,
          "time": 2.8760416666666666,
          "velocity": 0.5039370078740157
        },
        {
          "duration": 0.09166666666666679,
          "durationTicks": 88,
          "midi": 65,
          "name": "F4",
          "ticks": 3001,
          "time": 3.1260416666666666,
          "velocity": 0.5039370078740157
        },
        {
          "duration": 0.06562500000000027,
          "durationTicks": 63,
          "midi": 73,
          "name": "C#5",
          "ticks": 3121,
          "time": 3.2510416666666666,
          "velocity": 0.5039370078740157
        },
        {
          "duration": 0.06770833333333348,
          "durationTicks": 65,
          "midi": 72,
          "name": "C5",
          "ticks": 3361,
          "time": 3.5010416666666666,
          "velocity": 0.5039370078740157
        },
        {
          "duration": 0.05208333333333348,
          "durationTicks": 50,
          "midi": 68,
          "name": "G#4",
          "ticks": 3601,
          "time": 3.7510416666666666,
          "velocity": 0.5039370078740157
        },
        {
          "duration": 0.05208333333333304,
          "durationTicks": 50,
          "midi": 65,
          "name": "F4",
          "ticks": 3841,
          "time": 4.001041666666667,
          "velocity": 0.5039370078740157
        },
        {
          "duration": 0.04999999999999982,
          "durationTicks": 48,
          "midi": 72,
          "name": "C5",
          "ticks": 4081,
          "time": 4.251041666666667,
          "velocity": 0.5039370078740157
        },
        {
          "duration": 0.07291666666666696,
          "durationTicks": 70,
          "midi": 77,
          "name": "F5",
          "ticks": 4321,
          "time": 4.501041666666667,
          "velocity": 0.5039370078740157
        },
        {
          "duration": 0.05729166666666696,
          "durationTicks": 55,
          "midi": 65,
          "name": "F4",
          "ticks": 4561,
          "time": 4.751041666666667,
          "velocity": 0.5039370078740157
        },
        {
          "duration": 0.08333333333333304,
          "durationTicks": 80,
          "midi": 63,
          "name": "D#4",
          "ticks": 4681,
          "time": 4.876041666666667,
          "velocity": 0.5039370078740157
        },
        {
          "duration": 0.08124999999999982,
          "durationTicks": 78,
          "midi": 63,
          "name": "D#4",
          "ticks": 4921,
          "time": 5.126041666666667,
          "velocity": 0.5039370078740157
        },
        {
          "duration": 0.0625,
          "durationTicks": 60,
          "midi": 60,
          "name": "C4",
          "ticks": 5041,
          "time": 5.251041666666667,
          "velocity": 0.5039370078740157
        },
        {
          "duration": 0.08645833333333375,
          "durationTicks": 83,
          "midi": 67,
          "name": "G4",
          "ticks": 5281,
          "time": 5.501041666666667,
          "velocity": 0.5039370078740157
        },
        {
          "duration": 1.2427083333333337,
          "durationTicks": 1193,
          "midi": 65,
          "name": "F4",
          "ticks": 5521,
          "time": 5.751041666666667,
          "velocity": 0.5039370078740157
        },
        {
          "duration": 0.138541666666665,
          "durationTicks": 133,
          "midi": 65,
          "name": "F4",
          "ticks": 7681,
          "time": 8.001041666666667,
          "velocity": 0.5039370078740157
        },
        {
          "duration": 0.09687499999999893,
          "durationTicks": 93,
          "midi": 68,
          "name": "G#4",
          "ticks": 8161,
          "time": 8.501041666666667,
          "velocity": 0.5039370078740157
        },
        {
          "duration": 0.07291666666666607,
          "durationTicks": 70,
          "midi": 65,
          "name": "F4",
          "ticks": 8521,
          "time": 8.876041666666667,
          "velocity": 0.5039370078740157
        },
        {
          "duration": 0.08645833333333286,
          "durationTicks": 83,
          "midi": 65,
          "name": "F4",
          "ticks": 8761,
          "time": 9.126041666666667,
          "velocity": 0.5039370078740157
        },
        {
          "duration": 0.08333333333333215,
          "durationTicks": 80,
          "midi": 70,
          "name": "A#4",
          "ticks": 8881,
          "time": 9.251041666666667,
          "velocity": 0.5039370078740157
        },
        {
          "duration": 0.10416666666666607,
          "durationTicks": 100,
          "midi": 65,
          "name": "F4",
          "ticks": 9121,
          "time": 9.501041666666667,
          "velocity": 0.5039370078740157
        },
        {
          "duration": 0.078125,
          "durationTicks": 75,
          "midi": 63,
          "name": "D#4",
          "ticks": 9361,
          "time": 9.751041666666667,
          "velocity": 0.5039370078740157
        },
        {
          "duration": 0.10208333333333286,
          "durationTicks": 98,
          "midi": 65,
          "name": "F4",
          "ticks": 9601,
          "time": 10.001041666666667,
          "velocity": 0.5039370078740157
        },
        {
          "duration": 0.09895833333333215,
          "durationTicks": 95,
          "midi": 72,
          "name": "C5",
          "ticks": 10081,
          "time": 10.501041666666667,
          "velocity": 0.5039370078740157
        },
        {
          "duration": 0.09895833333333215,
          "durationTicks": 95,
          "midi": 65,
          "name": "F4",
          "ticks": 10441,
          "time": 10.876041666666667,
          "velocity": 0.5039370078740157
        },
        {
          "duration": 0.09375,
          "durationTicks": 90,
          "midi": 65,
          "name": "F4",
          "ticks": 10681,
          "time": 11.126041666666667,
          "velocity": 0.5039370078740157
        },
        {
          "duration": 0.07604166666666501,
          "durationTicks": 73,
          "midi": 73,
          "name": "C#5",
          "ticks": 10801,
          "time": 11.251041666666667,
          "velocity": 0.5039370078740157
        },
        {
          "duration": 0.078125,
          "durationTicks": 75,
          "midi": 72,
          "name": "C5",
          "ticks": 11041,
          "time": 11.501041666666667,
          "velocity": 0.5039370078740157
        },
        {
          "duration": 0.06041666666666501,
          "durationTicks": 58,
          "midi": 68,
          "name": "G#4",
          "ticks": 11281,
          "time": 11.751041666666667,
          "velocity": 0.5039370078740157
        },
        {
          "duration": 0.05520833333333286,
          "durationTicks": 53,
          "midi": 65,
          "name": "F4",
          "ticks": 11521,
          "time": 12.001041666666667,
          "velocity": 0.5039370078740157
        },
        {
          "duration": 0.057291666666666075,
          "durationTicks": 55,
          "midi": 72,
          "name": "C5",
          "ticks": 11761,
          "time": 12.251041666666667,
          "velocity": 0.5039370078740157
        },
        {
          "duration": 0.07604166666666501,
          "durationTicks": 73,
          "midi": 77,
          "name": "F5",
          "ticks": 12001,
          "time": 12.501041666666667,
          "velocity": 0.5039370078740157
        },
        {
          "duration": 0.06041666666666501,
          "durationTicks": 58,
          "midi": 65,
          "name": "F4",
          "ticks": 12241,
          "time": 12.751041666666667,
          "velocity": 0.5039370078740157
        },
        {
          "duration": 0.08333333333333215,
          "durationTicks": 80,
          "midi": 63,
          "name": "D#4",
          "ticks": 12361,
          "time": 12.876041666666667,
          "velocity": 0.5039370078740157
        },
        {
          "duration": 0.08333333333333215,
          "durationTicks": 80,
          "midi": 63,
          "name": "D#4",
          "ticks": 12601,
          "time": 13.126041666666667,
          "velocity": 0.5039370078740157
        },
        {
          "duration": 0.0625,
          "durationTicks": 60,
          "midi": 60,
          "name": "C4",
          "ticks": 12721,
          "time": 13.251041666666667,
          "velocity": 0.5039370078740157
        },
        {
          "duration": 0.1875,
          "durationTicks": 180,
          "midi": 67,
          "name": "G4",
          "ticks": 12961,
          "time": 13.501041666666667,
          "velocity": 0.5039370078740157
        },
        {
          "duration": 1.3958333333333321,
          "durationTicks": 1340,
          "midi": 65,
          "name": "F4",
          "ticks": 13201,
          "time": 13.751041666666667,
          "velocity": 0.5039370078740157
        },
        {
          "duration": 0.11250000000000426,
          "durationTicks": 108,
          "midi": 65,
          "name": "F4",
          "ticks": 30721,
          "time": 32.001041666666666,
          "velocity": 0.5039370078740157
        },
        {
          "duration": 0.09687500000000426,
          "durationTicks": 93,
          "midi": 68,
          "name": "G#4",
          "ticks": 31201,
          "time": 32.501041666666666,
          "velocity": 0.5039370078740157
        },
        {
          "duration": 0.0833333333333357,
          "durationTicks": 80,
          "midi": 65,
          "name": "F4",
          "ticks": 31561,
          "time": 32.876041666666666,
          "velocity": 0.5039370078740157
        },
        {
          "duration": 0.0989583333333357,
          "durationTicks": 95,
          "midi": 65,
          "name": "F4",
          "ticks": 31801,
          "time": 33.126041666666666,
          "velocity": 0.5039370078740157
        },
        {
          "duration": 0.08125000000000426,
          "durationTicks": 78,
          "midi": 70,
          "name": "A#4",
          "ticks": 31921,
          "time": 33.251041666666666,
          "velocity": 0.5039370078740157
        },
        {
          "duration": 0.09375,
          "durationTicks": 90,
          "midi": 65,
          "name": "F4",
          "ticks": 32161,
          "time": 33.501041666666666,
          "velocity": 0.5039370078740157
        },
        {
          "duration": 0.0989583333333357,
          "durationTicks": 95,
          "midi": 63,
          "name": "D#4",
          "ticks": 32401,
          "time": 33.751041666666666,
          "velocity": 0.5039370078740157
        },
        {
          "duration": 0.10208333333333286,
          "durationTicks": 98,
          "midi": 65,
          "name": "F4",
          "ticks": 32641,
          "time": 34.001041666666666,
          "velocity": 0.5039370078740157
        },
        {
          "duration": 0.0885416666666643,
          "durationTicks": 85,
          "midi": 72,
          "name": "C5",
          "ticks": 33121,
          "time": 34.501041666666666,
          "velocity": 0.5039370078740157
        },
        {
          "duration": 0.08645833333333286,
          "durationTicks": 83,
          "midi": 65,
          "name": "F4",
          "ticks": 33481,
          "time": 34.876041666666666,
          "velocity": 0.5039370078740157
        },
        {
          "duration": 0.09166666666666856,
          "durationTicks": 88,
          "midi": 65,
          "name": "F4",
          "ticks": 33721,
          "time": 35.126041666666666,
          "velocity": 0.5039370078740157
        },
        {
          "duration": 0.06562500000000426,
          "durationTicks": 63,
          "midi": 73,
          "name": "C#5",
          "ticks": 33841,
          "time": 35.251041666666666,
          "velocity": 0.5039370078740157
        },
        {
          "duration": 0.0677083333333357,
          "durationTicks": 65,
          "midi": 72,
          "name": "C5",
          "ticks": 34081,
          "time": 35.501041666666666,
          "velocity": 0.5039370078740157
        },
        {
          "duration": 0.0520833333333357,
          "durationTicks": 50,
          "midi": 68,
          "name": "G#4",
          "ticks": 34321,
          "time": 35.751041666666666,
          "velocity": 0.5039370078740157
        },
        {
          "duration": 0.0520833333333357,
          "durationTicks": 50,
          "midi": 65,
          "name": "F4",
          "ticks": 34561,
          "time": 36.001041666666666,
          "velocity": 0.5039370078740157
        },
        {
          "duration": 0.05000000000000426,
          "durationTicks": 48,
          "midi": 72,
          "name": "C5",
          "ticks": 34801,
          "time": 36.251041666666666,
          "velocity": 0.5039370078740157
        },
        {
          "duration": 0.0729166666666643,
          "durationTicks": 70,
          "midi": 77,
          "name": "F5",
          "ticks": 35041,
          "time": 36.501041666666666,
          "velocity": 0.5039370078740157
        },
        {
          "duration": 0.0572916666666643,
          "durationTicks": 55,
          "midi": 65,
          "name": "F4",
          "ticks": 35281,
          "time": 36.751041666666666,
          "velocity": 0.5039370078740157
        },
        {
          "duration": 0.0833333333333357,
          "durationTicks": 80,
          "midi": 63,
          "name": "D#4",
          "ticks": 35401,
          "time": 36.876041666666666,
          "velocity": 0.5039370078740157
        },
        {
          "duration": 0.08125000000000426,
          "durationTicks": 78,
          "midi": 63,
          "name": "D#4",
          "ticks": 35641,
          "time": 37.126041666666666,
          "velocity": 0.5039370078740157
        },
        {
          "duration": 0.0625,
          "durationTicks": 60,
          "midi": 60,
          "name": "C4",
          "ticks": 35761,
          "time": 37.251041666666666,
          "velocity": 0.5039370078740157
        },
        {
          "duration": 0.08645833333333286,
          "durationTicks": 83,
          "midi": 67,
          "name": "G4",
          "ticks": 36001,
          "time": 37.501041666666666,
          "velocity": 0.5039370078740157
        },
        {
          "duration": 1.2427083333333329,
          "durationTicks": 1193,
          "midi": 65,
          "name": "F4",
          "ticks": 36241,
          "time": 37.751041666666666,
          "velocity": 0.5039370078740157
        },
        {
          "duration": 0.13854166666666856,
          "durationTicks": 133,
          "midi": 65,
          "name": "F4",
          "ticks": 38401,
          "time": 40.001041666666666,
          "velocity": 0.5039370078740157
        },
        {
          "duration": 0.09687500000000426,
          "durationTicks": 93,
          "midi": 68,
          "name": "G#4",
          "ticks": 38881,
          "time": 40.501041666666666,
          "velocity": 0.5039370078740157
        },
        {
          "duration": 0.0729166666666643,
          "durationTicks": 70,
          "midi": 65,
          "name": "F4",
          "ticks": 39241,
          "time": 40.876041666666666,
          "velocity": 0.5039370078740157
        },
        {
          "duration": 0.08645833333333286,
          "durationTicks": 83,
          "midi": 65,
          "name": "F4",
          "ticks": 39481,
          "time": 41.126041666666666,
          "velocity": 0.5039370078740157
        },
        {
          "duration": 0.0833333333333357,
          "durationTicks": 80,
          "midi": 70,
          "name": "A#4",
          "ticks": 39601,
          "time": 41.251041666666666,
          "velocity": 0.5039370078740157
        },
        {
          "duration": 0.1041666666666643,
          "durationTicks": 100,
          "midi": 65,
          "name": "F4",
          "ticks": 39841,
          "time": 41.501041666666666,
          "velocity": 0.5039370078740157
        },
        {
          "duration": 0.078125,
          "durationTicks": 75,
          "midi": 63,
          "name": "D#4",
          "ticks": 40081,
          "time": 41.751041666666666,
          "velocity": 0.5039370078740157
        },
        {
          "duration": 0.10208333333333286,
          "durationTicks": 98,
          "midi": 65,
          "name": "F4",
          "ticks": 40321,
          "time": 42.001041666666666,
          "velocity": 0.5039370078740157
        },
        {
          "duration": 0.0989583333333357,
          "durationTicks": 95,
          "midi": 72,
          "name": "C5",
          "ticks": 40801,
          "time": 42.501041666666666,
          "velocity": 0.5039370078740157
        },
        {
          "duration": 0.0989583333333357,
          "durationTicks": 95,
          "midi": 65,
          "name": "F4",
          "ticks": 41161,
          "time": 42.876041666666666,
          "velocity": 0.5039370078740157
        },
        {
          "duration": 0.09375,
          "durationTicks": 90,
          "midi": 65,
          "name": "F4",
          "ticks": 41401,
          "time": 43.126041666666666,
          "velocity": 0.5039370078740157
        },
        {
          "duration": 0.07604166666666856,
          "durationTicks": 73,
          "midi": 73,
          "name": "C#5",
          "ticks": 41521,
          "time": 43.251041666666666,
          "velocity": 0.5039370078740157
        },
        {
          "duration": 0.078125,
          "durationTicks": 75,
          "midi": 72,
          "name": "C5",
          "ticks": 41761,
          "time": 43.501041666666666,
          "velocity": 0.5039370078740157
        },
        {
          "duration": 0.06041666666666856,
          "durationTicks": 58,
          "midi": 68,
          "name": "G#4",
          "ticks": 42001,
          "time": 43.751041666666666,
          "velocity": 0.5039370078740157
        },
        {
          "duration": 0.05520833333333286,
          "durationTicks": 53,
          "midi": 65,
          "name": "F4",
          "ticks": 42241,
          "time": 44.001041666666666,
          "velocity": 0.5039370078740157
        },
        {
          "duration": 0.0572916666666643,
          "durationTicks": 55,
          "midi": 72,
          "name": "C5",
          "ticks": 42481,
          "time": 44.251041666666666,
          "velocity": 0.5039370078740157
        },
        {
          "duration": 0.07604166666666856,
          "durationTicks": 73,
          "midi": 77,
          "name": "F5",
          "ticks": 42721,
          "time": 44.501041666666666,
          "velocity": 0.5039370078740157
        },
        {
          "duration": 0.06041666666666856,
          "durationTicks": 58,
          "midi": 65,
          "name": "F4",
          "ticks": 42961,
          "time": 44.751041666666666,
          "velocity": 0.5039370078740157
        },
        {
          "duration": 0.0833333333333357,
          "durationTicks": 80,
          "midi": 63,
          "name": "D#4",
          "ticks": 43081,
          "time": 44.876041666666666,
          "velocity": 0.5039370078740157
        },
        {
          "duration": 0.0833333333333357,
          "durationTicks": 80,
          "midi": 63,
          "name": "D#4",
          "ticks": 43321,
          "time": 45.126041666666666,
          "velocity": 0.5039370078740157
        },
        {
          "duration": 0.0625,
          "durationTicks": 60,
          "midi": 60,
          "name": "C4",
          "ticks": 43441,
          "time": 45.251041666666666,
          "velocity": 0.5039370078740157
        },
        {
          "duration": 0.1875,
          "durationTicks": 180,
          "midi": 67,
          "name": "G4",
          "ticks": 43681,
          "time": 45.501041666666666,
          "velocity": 0.5039370078740157
        },
        {
          "duration": 1.3958333333333357,
          "durationTicks": 1340,
          "midi": 65,
          "name": "F4",
          "ticks": 43921,
          "time": 45.751041666666666,
          "velocity": 0.5039370078740157
        },
        {
          "duration": 0.11249999999999716,
          "durationTicks": 108,
          "midi": 65,
          "name": "F4",
          "ticks": 82561,
          "time": 86.00104166666667,
          "velocity": 0.5039370078740157
        },
        {
          "duration": 0.09687499999999716,
          "durationTicks": 93,
          "midi": 68,
          "name": "G#4",
          "ticks": 83041,
          "time": 86.50104166666667,
          "velocity": 0.5039370078740157
        },
        {
          "duration": 0.0833333333333286,
          "durationTicks": 80,
          "midi": 65,
          "name": "F4",
          "ticks": 83401,
          "time": 86.87604166666667,
          "velocity": 0.5039370078740157
        },
        {
          "duration": 0.0989583333333286,
          "durationTicks": 95,
          "midi": 65,
          "name": "F4",
          "ticks": 83641,
          "time": 87.12604166666667,
          "velocity": 0.5039370078740157
        },
        {
          "duration": 0.08124999999999716,
          "durationTicks": 78,
          "midi": 70,
          "name": "A#4",
          "ticks": 83761,
          "time": 87.25104166666667,
          "velocity": 0.5039370078740157
        },
        {
          "duration": 0.09375,
          "durationTicks": 90,
          "midi": 65,
          "name": "F4",
          "ticks": 84001,
          "time": 87.50104166666667,
          "velocity": 0.5039370078740157
        },
        {
          "duration": 0.0989583333333286,
          "durationTicks": 95,
          "midi": 63,
          "name": "D#4",
          "ticks": 84241,
          "time": 87.75104166666667,
          "velocity": 0.5039370078740157
        },
        {
          "duration": 0.10208333333333997,
          "durationTicks": 98,
          "midi": 65,
          "name": "F4",
          "ticks": 84481,
          "time": 88.00104166666667,
          "velocity": 0.5039370078740157
        },
        {
          "duration": 0.0885416666666714,
          "durationTicks": 85,
          "midi": 72,
          "name": "C5",
          "ticks": 84961,
          "time": 88.50104166666667,
          "velocity": 0.5039370078740157
        },
        {
          "duration": 0.08645833333333997,
          "durationTicks": 83,
          "midi": 65,
          "name": "F4",
          "ticks": 85321,
          "time": 88.87604166666667,
          "velocity": 0.5039370078740157
        },
        {
          "duration": 0.09166666666666856,
          "durationTicks": 88,
          "midi": 65,
          "name": "F4",
          "ticks": 85561,
          "time": 89.12604166666667,
          "velocity": 0.5039370078740157
        },
        {
          "duration": 0.06562499999999716,
          "durationTicks": 63,
          "midi": 73,
          "name": "C#5",
          "ticks": 85681,
          "time": 89.25104166666667,
          "velocity": 0.5039370078740157
        },
        {
          "duration": 0.0677083333333286,
          "durationTicks": 65,
          "midi": 72,
          "name": "C5",
          "ticks": 85921,
          "time": 89.50104166666667,
          "velocity": 0.5039370078740157
        },
        {
          "duration": 0.052083333333328596,
          "durationTicks": 50,
          "midi": 68,
          "name": "G#4",
          "ticks": 86161,
          "time": 89.75104166666667,
          "velocity": 0.5039370078740157
        },
        {
          "duration": 0.052083333333328596,
          "durationTicks": 50,
          "midi": 65,
          "name": "F4",
          "ticks": 86401,
          "time": 90.00104166666667,
          "velocity": 0.5039370078740157
        },
        {
          "duration": 0.04999999999999716,
          "durationTicks": 48,
          "midi": 72,
          "name": "C5",
          "ticks": 86641,
          "time": 90.25104166666667,
          "velocity": 0.5039370078740157
        },
        {
          "duration": 0.0729166666666714,
          "durationTicks": 70,
          "midi": 77,
          "name": "F5",
          "ticks": 86881,
          "time": 90.50104166666667,
          "velocity": 0.5039370078740157
        },
        {
          "duration": 0.057291666666671404,
          "durationTicks": 55,
          "midi": 65,
          "name": "F4",
          "ticks": 87121,
          "time": 90.75104166666667,
          "velocity": 0.5039370078740157
        },
        {
          "duration": 0.0833333333333286,
          "durationTicks": 80,
          "midi": 63,
          "name": "D#4",
          "ticks": 87241,
          "time": 90.87604166666667,
          "velocity": 0.5039370078740157
        },
        {
          "duration": 0.08124999999999716,
          "durationTicks": 78,
          "midi": 63,
          "name": "D#4",
          "ticks": 87481,
          "time": 91.12604166666667,
          "velocity": 0.5039370078740157
        },
        {
          "duration": 0.0625,
          "durationTicks": 60,
          "midi": 60,
          "name": "C4",
          "ticks": 87601,
          "time": 91.25104166666667,
          "velocity": 0.5039370078740157
        },
        {
          "duration": 0.08645833333333997,
          "durationTicks": 83,
          "midi": 67,
          "name": "G4",
          "ticks": 87841,
          "time": 91.50104166666667,
          "velocity": 0.5039370078740157
        },
        {
          "duration": 1.24270833333334,
          "durationTicks": 1193,
          "midi": 65,
          "name": "F4",
          "ticks": 88081,
          "time": 91.75104166666667,
          "velocity": 0.5039370078740157
        },
        {
          "duration": 0.13854166666666856,
          "durationTicks": 133,
          "midi": 65,
          "name": "F4",
          "ticks": 90241,
          "time": 94.00104166666667,
          "velocity": 0.5039370078740157
        },
        {
          "duration": 0.09687499999999716,
          "durationTicks": 93,
          "midi": 68,
          "name": "G#4",
          "ticks": 90721,
          "time": 94.50104166666667,
          "velocity": 0.5039370078740157
        },
        {
          "duration": 0.0729166666666714,
          "durationTicks": 70,
          "midi": 65,
          "name": "F4",
          "ticks": 91081,
          "time": 94.87604166666667,
          "velocity": 0.5039370078740157
        },
        {
          "duration": 0.08645833333333997,
          "durationTicks": 83,
          "midi": 65,
          "name": "F4",
          "ticks": 91321,
          "time": 95.12604166666667,
          "velocity": 0.5039370078740157
        },
        {
          "duration": 0.0833333333333286,
          "durationTicks": 80,
          "midi": 70,
          "name": "A#4",
          "ticks": 91441,
          "time": 95.25104166666667,
          "velocity": 0.5039370078740157
        },
        {
          "duration": 0.1041666666666714,
          "durationTicks": 100,
          "midi": 65,
          "name": "F4",
          "ticks": 91681,
          "time": 95.50104166666667,
          "velocity": 0.5039370078740157
        },
        {
          "duration": 0.078125,
          "durationTicks": 75,
          "midi": 63,
          "name": "D#4",
          "ticks": 91921,
          "time": 95.75104166666667,
          "velocity": 0.5039370078740157
        },
        {
          "duration": 0.10208333333333997,
          "durationTicks": 98,
          "midi": 65,
          "name": "F4",
          "ticks": 92161,
          "time": 96.00104166666667,
          "velocity": 0.5039370078740157
        },
        {
          "duration": 0.0989583333333286,
          "durationTicks": 95,
          "midi": 72,
          "name": "C5",
          "ticks": 92641,
          "time": 96.50104166666667,
          "velocity": 0.5039370078740157
        },
        {
          "duration": 0.0989583333333286,
          "durationTicks": 95,
          "midi": 65,
          "name": "F4",
          "ticks": 93001,
          "time": 96.87604166666667,
          "velocity": 0.5039370078740157
        },
        {
          "duration": 0.09375,
          "durationTicks": 90,
          "midi": 65,
          "name": "F4",
          "ticks": 93241,
          "time": 97.12604166666667,
          "velocity": 0.5039370078740157
        },
        {
          "duration": 0.07604166666666856,
          "durationTicks": 73,
          "midi": 73,
          "name": "C#5",
          "ticks": 93361,
          "time": 97.25104166666667,
          "velocity": 0.5039370078740157
        },
        {
          "duration": 0.078125,
          "durationTicks": 75,
          "midi": 72,
          "name": "C5",
          "ticks": 93601,
          "time": 97.50104166666667,
          "velocity": 0.5039370078740157
        },
        {
          "duration": 0.06041666666666856,
          "durationTicks": 58,
          "midi": 68,
          "name": "G#4",
          "ticks": 93841,
          "time": 97.75104166666667,
          "velocity": 0.5039370078740157
        },
        {
          "duration": 0.055208333333339965,
          "durationTicks": 53,
          "midi": 65,
          "name": "F4",
          "ticks": 94081,
          "time": 98.00104166666667,
          "velocity": 0.5039370078740157
        },
        {
          "duration": 0.057291666666671404,
          "durationTicks": 55,
          "midi": 72,
          "name": "C5",
          "ticks": 94321,
          "time": 98.25104166666667,
          "velocity": 0.5039370078740157
        },
        {
          "duration": 0.07604166666666856,
          "durationTicks": 73,
          "midi": 77,
          "name": "F5",
          "ticks": 94561,
          "time": 98.50104166666667,
          "velocity": 0.5039370078740157
        },
        {
          "duration": 0.06041666666666856,
          "durationTicks": 58,
          "midi": 65,
          "name": "F4",
          "ticks": 94801,
          "time": 98.75104166666667,
          "velocity": 0.5039370078740157
        },
        {
          "duration": 0.0833333333333286,
          "durationTicks": 80,
          "midi": 63,
          "name": "D#4",
          "ticks": 94921,
          "time": 98.87604166666667,
          "velocity": 0.5039370078740157
        },
        {
          "duration": 0.0833333333333286,
          "durationTicks": 80,
          "midi": 63,
          "name": "D#4",
          "ticks": 95161,
          "time": 99.12604166666667,
          "velocity": 0.5039370078740157
        },
        {
          "duration": 0.0625,
          "durationTicks": 60,
          "midi": 60,
          "name": "C4",
          "ticks": 95281,
          "time": 99.25104166666667,
          "velocity": 0.5039370078740157
        },
        {
          "duration": 0.1875,
          "durationTicks": 180,
          "midi": 67,
          "name": "G4",
          "ticks": 95521,
          "time": 99.50104166666667,
          "velocity": 0.5039370078740157
        },
        {
          "duration": 1.3958333333333286,
          "durationTicks": 1340,
          "midi": 65,
          "name": "F4",
          "ticks": 95761,
          "time": 99.75104166666667,
          "velocity": 0.5039370078740157
        },
        {
          "duration": 0.11250000000001137,
          "durationTicks": 108,
          "midi": 65,
          "name": "F4",
          "ticks": 151680,
          "time": 158,
          "velocity": 0.5039370078740157
        },
        {
          "duration": 0.09687500000001137,
          "durationTicks": 93,
          "midi": 68,
          "name": "G#4",
          "ticks": 152160,
          "time": 158.5,
          "velocity": 0.5039370078740157
        },
        {
          "duration": 0.08333333333334281,
          "durationTicks": 80,
          "midi": 65,
          "name": "F4",
          "ticks": 152520,
          "time": 158.875,
          "velocity": 0.5039370078740157
        },
        {
          "duration": 0.09895833333334281,
          "durationTicks": 95,
          "midi": 65,
          "name": "F4",
          "ticks": 152760,
          "time": 159.125,
          "velocity": 0.5039370078740157
        },
        {
          "duration": 0.08125000000001137,
          "durationTicks": 78,
          "midi": 70,
          "name": "A#4",
          "ticks": 152880,
          "time": 159.25,
          "velocity": 0.5039370078740157
        },
        {
          "duration": 0.09375,
          "durationTicks": 90,
          "midi": 65,
          "name": "F4",
          "ticks": 153120,
          "time": 159.5,
          "velocity": 0.5039370078740157
        },
        {
          "duration": 0.09895833333334281,
          "durationTicks": 95,
          "midi": 63,
          "name": "D#4",
          "ticks": 153360,
          "time": 159.75,
          "velocity": 0.5039370078740157
        },
        {
          "duration": 0.10208333333332575,
          "durationTicks": 98,
          "midi": 65,
          "name": "F4",
          "ticks": 153600,
          "time": 160,
          "velocity": 0.5039370078740157
        },
        {
          "duration": 0.08854166666665719,
          "durationTicks": 85,
          "midi": 72,
          "name": "C5",
          "ticks": 154080,
          "time": 160.5,
          "velocity": 0.5039370078740157
        },
        {
          "duration": 0.08645833333332575,
          "durationTicks": 83,
          "midi": 65,
          "name": "F4",
          "ticks": 154440,
          "time": 160.875,
          "velocity": 0.5039370078740157
        },
        {
          "duration": 0.09166666666666856,
          "durationTicks": 88,
          "midi": 65,
          "name": "F4",
          "ticks": 154680,
          "time": 161.125,
          "velocity": 0.5039370078740157
        },
        {
          "duration": 0.06562500000001137,
          "durationTicks": 63,
          "midi": 73,
          "name": "C#5",
          "ticks": 154800,
          "time": 161.25,
          "velocity": 0.5039370078740157
        },
        {
          "duration": 0.06770833333334281,
          "durationTicks": 65,
          "midi": 72,
          "name": "C5",
          "ticks": 155040,
          "time": 161.5,
          "velocity": 0.5039370078740157
        },
        {
          "duration": 0.05208333333334281,
          "durationTicks": 50,
          "midi": 68,
          "name": "G#4",
          "ticks": 155280,
          "time": 161.75,
          "velocity": 0.5039370078740157
        },
        {
          "duration": 0.05208333333334281,
          "durationTicks": 50,
          "midi": 65,
          "name": "F4",
          "ticks": 155520,
          "time": 162,
          "velocity": 0.5039370078740157
        },
        {
          "duration": 0.05000000000001137,
          "durationTicks": 48,
          "midi": 72,
          "name": "C5",
          "ticks": 155760,
          "time": 162.25,
          "velocity": 0.5039370078740157
        },
        {
          "duration": 0.07291666666665719,
          "durationTicks": 70,
          "midi": 77,
          "name": "F5",
          "ticks": 156000,
          "time": 162.5,
          "velocity": 0.5039370078740157
        },
        {
          "duration": 0.05729166666665719,
          "durationTicks": 55,
          "midi": 65,
          "name": "F4",
          "ticks": 156240,
          "time": 162.75,
          "velocity": 0.5039370078740157
        },
        {
          "duration": 0.08333333333334281,
          "durationTicks": 80,
          "midi": 63,
          "name": "D#4",
          "ticks": 156360,
          "time": 162.875,
          "velocity": 0.5039370078740157
        },
        {
          "duration": 0.08125000000001137,
          "durationTicks": 78,
          "midi": 63,
          "name": "D#4",
          "ticks": 156600,
          "time": 163.125,
          "velocity": 0.5039370078740157
        },
        {
          "duration": 0.0625,
          "durationTicks": 60,
          "midi": 60,
          "name": "C4",
          "ticks": 156720,
          "time": 163.25,
          "velocity": 0.5039370078740157
        },
        {
          "duration": 0.08645833333332575,
          "durationTicks": 83,
          "midi": 67,
          "name": "G4",
          "ticks": 156960,
          "time": 163.5,
          "velocity": 0.5039370078740157
        },
        {
          "duration": 1.2427083333333258,
          "durationTicks": 1193,
          "midi": 65,
          "name": "F4",
          "ticks": 157200,
          "time": 163.75,
          "velocity": 0.5039370078740157
        },
        {
          "duration": 0.13854166666666856,
          "durationTicks": 133,
          "midi": 65,
          "name": "F4",
          "ticks": 159360,
          "time": 166,
          "velocity": 0.5039370078740157
        },
        {
          "duration": 0.09687500000001137,
          "durationTicks": 93,
          "midi": 68,
          "name": "G#4",
          "ticks": 159840,
          "time": 166.5,
          "velocity": 0.5039370078740157
        },
        {
          "duration": 0.07291666666665719,
          "durationTicks": 70,
          "midi": 65,
          "name": "F4",
          "ticks": 160200,
          "time": 166.875,
          "velocity": 0.5039370078740157
        },
        {
          "duration": 0.08645833333332575,
          "durationTicks": 83,
          "midi": 65,
          "name": "F4",
          "ticks": 160440,
          "time": 167.125,
          "velocity": 0.5039370078740157
        },
        {
          "duration": 0.08333333333334281,
          "durationTicks": 80,
          "midi": 70,
          "name": "A#4",
          "ticks": 160560,
          "time": 167.25,
          "velocity": 0.5039370078740157
        },
        {
          "duration": 0.10416666666665719,
          "durationTicks": 100,
          "midi": 65,
          "name": "F4",
          "ticks": 160800,
          "time": 167.5,
          "velocity": 0.5039370078740157
        },
        {
          "duration": 0.078125,
          "durationTicks": 75,
          "midi": 63,
          "name": "D#4",
          "ticks": 161040,
          "time": 167.75,
          "velocity": 0.5039370078740157
        },
        {
          "duration": 0.10208333333332575,
          "durationTicks": 98,
          "midi": 65,
          "name": "F4",
          "ticks": 161280,
          "time": 168,
          "velocity": 0.5039370078740157
        },
        {
          "duration": 0.09895833333334281,
          "durationTicks": 95,
          "midi": 72,
          "name": "C5",
          "ticks": 161760,
          "time": 168.5,
          "velocity": 0.5039370078740157
        },
        {
          "duration": 0.09895833333334281,
          "durationTicks": 95,
          "midi": 65,
          "name": "F4",
          "ticks": 162120,
          "time": 168.875,
          "velocity": 0.5039370078740157
        },
        {
          "duration": 0.09375,
          "durationTicks": 90,
          "midi": 65,
          "name": "F4",
          "ticks": 162360,
          "time": 169.125,
          "velocity": 0.5039370078740157
        },
        {
          "duration": 0.07604166666666856,
          "durationTicks": 73,
          "midi": 73,
          "name": "C#5",
          "ticks": 162480,
          "time": 169.25,
          "velocity": 0.5039370078740157
        },
        {
          "duration": 0.078125,
          "durationTicks": 75,
          "midi": 72,
          "name": "C5",
          "ticks": 162720,
          "time": 169.5,
          "velocity": 0.5039370078740157
        },
        {
          "duration": 0.06041666666666856,
          "durationTicks": 58,
          "midi": 68,
          "name": "G#4",
          "ticks": 162960,
          "time": 169.75,
          "velocity": 0.5039370078740157
        },
        {
          "duration": 0.055208333333325754,
          "durationTicks": 53,
          "midi": 65,
          "name": "F4",
          "ticks": 163200,
          "time": 170,
          "velocity": 0.5039370078740157
        },
        {
          "duration": 0.05729166666665719,
          "durationTicks": 55,
          "midi": 72,
          "name": "C5",
          "ticks": 163440,
          "time": 170.25,
          "velocity": 0.5039370078740157
        },
        {
          "duration": 0.07604166666666856,
          "durationTicks": 73,
          "midi": 77,
          "name": "F5",
          "ticks": 163680,
          "time": 170.5,
          "velocity": 0.5039370078740157
        },
        {
          "duration": 0.06041666666666856,
          "durationTicks": 58,
          "midi": 65,
          "name": "F4",
          "ticks": 163920,
          "time": 170.75,
          "velocity": 0.5039370078740157
        },
        {
          "duration": 0.08333333333334281,
          "durationTicks": 80,
          "midi": 63,
          "name": "D#4",
          "ticks": 164040,
          "time": 170.875,
          "velocity": 0.5039370078740157
        },
        {
          "duration": 0.08333333333334281,
          "durationTicks": 80,
          "midi": 63,
          "name": "D#4",
          "ticks": 164280,
          "time": 171.125,
          "velocity": 0.5039370078740157
        },
        {
          "duration": 0.0625,
          "durationTicks": 60,
          "midi": 60,
          "name": "C4",
          "ticks": 164400,
          "time": 171.25,
          "velocity": 0.5039370078740157
        },
        {
          "duration": 0.1875,
          "durationTicks": 180,
          "midi": 67,
          "name": "G4",
          "ticks": 164640,
          "time": 171.5,
          "velocity": 0.5039370078740157
        },
        {
          "duration": 1.3958333333333428,
          "durationTicks": 1340,
          "midi": 65,
          "name": "F4",
          "ticks": 164880,
          "time": 171.75,
          "velocity": 0.5039370078740157
        }
      ]
    },
    {
      "channel": 8,
      "controlChanges": {},
      "pitchBends": [],
      "instrument": {
        "family": "synth pad",
        "number": 90,
        "name": "pad 3 (polysynth)"
      },
      "name": "",
      "notes": [
        {
          "duration": 0.06562499999999716,
          "durationTicks": 63,
          "midi": 65,
          "name": "F4",
          "ticks": 46320,
          "time": 48.25,
          "velocity": 0.5039370078740157
        },
        {
          "duration": 0.046875,
          "durationTicks": 45,
          "midi": 69,
          "name": "A4",
          "ticks": 46320,
          "time": 48.25,
          "velocity": 0.5039370078740157
        },
        {
          "duration": 0.0520833333333357,
          "durationTicks": 50,
          "midi": 72,
          "name": "C5",
          "ticks": 46320,
          "time": 48.25,
          "velocity": 0.5039370078740157
        },
        {
          "duration": 0.06041666666666856,
          "durationTicks": 58,
          "midi": 65,
          "name": "F4",
          "ticks": 46560,
          "time": 48.5,
          "velocity": 0.5039370078740157
        },
        {
          "duration": 0.06041666666666856,
          "durationTicks": 58,
          "midi": 72,
          "name": "C5",
          "ticks": 46560,
          "time": 48.5,
          "velocity": 0.5039370078740157
        },
        {
          "duration": 0.03958333333333286,
          "durationTicks": 38,
          "midi": 69,
          "name": "A4",
          "ticks": 46560,
          "time": 48.5,
          "velocity": 0.5039370078740157
        },
        {
          "duration": 0.04999999999999716,
          "durationTicks": 48,
          "midi": 72,
          "name": "C5",
          "ticks": 46800,
          "time": 48.75,
          "velocity": 0.5039370078740157
        },
        {
          "duration": 0.04479166666666856,
          "durationTicks": 43,
          "midi": 65,
          "name": "F4",
          "ticks": 46800,
          "time": 48.75,
          "velocity": 0.5039370078740157
        },
        {
          "duration": 0.02395833333333286,
          "durationTicks": 23,
          "midi": 69,
          "name": "A4",
          "ticks": 46800,
          "time": 48.75,
          "velocity": 0.5039370078740157
        },
        {
          "duration": 0.04999999999999716,
          "durationTicks": 48,
          "midi": 75,
          "name": "D#5",
          "ticks": 46920,
          "time": 48.875,
          "velocity": 0.5039370078740157
        },
        {
          "duration": 0.0416666666666643,
          "durationTicks": 40,
          "midi": 67,
          "name": "G4",
          "ticks": 46920,
          "time": 48.875,
          "velocity": 0.5039370078740157
        },
        {
          "duration": 0.0416666666666643,
          "durationTicks": 40,
          "midi": 70,
          "name": "A#4",
          "ticks": 46920,
          "time": 48.875,
          "velocity": 0.5039370078740157
        },
        {
          "duration": 0.0625,
          "durationTicks": 60,
          "midi": 75,
          "name": "D#5",
          "ticks": 47160,
          "time": 49.125,
          "velocity": 0.5039370078740157
        },
        {
          "duration": 0.0625,
          "durationTicks": 60,
          "midi": 67,
          "name": "G4",
          "ticks": 47160,
          "time": 49.125,
          "velocity": 0.5039370078740157
        },
        {
          "duration": 0.046875,
          "durationTicks": 45,
          "midi": 70,
          "name": "A#4",
          "ticks": 47160,
          "time": 49.125,
          "velocity": 0.5039370078740157
        },
        {
          "duration": 0.0364583333333357,
          "durationTicks": 35,
          "midi": 75,
          "name": "D#5",
          "ticks": 47400,
          "time": 49.375,
          "velocity": 0.5039370078740157
        },
        {
          "duration": 0.0364583333333357,
          "durationTicks": 35,
          "midi": 67,
          "name": "G4",
          "ticks": 47400,
          "time": 49.375,
          "velocity": 0.5039370078740157
        },
        {
          "duration": 0.02395833333333286,
          "durationTicks": 23,
          "midi": 70,
          "name": "A#4",
          "ticks": 47400,
          "time": 49.375,
          "velocity": 0.5039370078740157
        },
        {
          "duration": 0.04479166666666856,
          "durationTicks": 43,
          "midi": 70,
          "name": "A#4",
          "ticks": 47520,
          "time": 49.5,
          "velocity": 0.5039370078740157
        },
        {
          "duration": 0.04479166666666856,
          "durationTicks": 43,
          "midi": 74,
          "name": "D5",
          "ticks": 47520,
          "time": 49.5,
          "velocity": 0.5039370078740157
        },
        {
          "duration": 0.04479166666666856,
          "durationTicks": 43,
          "midi": 65,
          "name": "F4",
          "ticks": 47520,
          "time": 49.5,
          "velocity": 0.5039370078740157
        },
        {
          "duration": 0.06041666666666856,
          "durationTicks": 58,
          "midi": 74,
          "name": "D5",
          "ticks": 47760,
          "time": 49.75,
          "velocity": 0.5039370078740157
        },
        {
          "duration": 0.06041666666666856,
          "durationTicks": 58,
          "midi": 65,
          "name": "F4",
          "ticks": 47760,
          "time": 49.75,
          "velocity": 0.5039370078740157
        },
        {
          "duration": 0.0520833333333357,
          "durationTicks": 50,
          "midi": 70,
          "name": "A#4",
          "ticks": 47760,
          "time": 49.75,
          "velocity": 0.5039370078740157
        },
        {
          "duration": 0.06562499999999716,
          "durationTicks": 63,
          "midi": 65,
          "name": "F4",
          "ticks": 48240,
          "time": 50.25,
          "velocity": 0.5039370078740157
        },
        {
          "duration": 0.0520833333333357,
          "durationTicks": 50,
          "midi": 69,
          "name": "A4",
          "ticks": 48240,
          "time": 50.25,
          "velocity": 0.5039370078740157
        },
        {
          "duration": 0.0520833333333357,
          "durationTicks": 50,
          "midi": 72,
          "name": "C5",
          "ticks": 48240,
          "time": 50.25,
          "velocity": 0.5039370078740157
        },
        {
          "duration": 0.06562499999999716,
          "durationTicks": 63,
          "midi": 65,
          "name": "F4",
          "ticks": 48480,
          "time": 50.5,
          "velocity": 0.5039370078740157
        },
        {
          "duration": 0.05520833333333286,
          "durationTicks": 53,
          "midi": 72,
          "name": "C5",
          "ticks": 48480,
          "time": 50.5,
          "velocity": 0.5039370078740157
        },
        {
          "duration": 0.046875,
          "durationTicks": 45,
          "midi": 69,
          "name": "A4",
          "ticks": 48480,
          "time": 50.5,
          "velocity": 0.5039370078740157
        },
        {
          "duration": 0.018749999999997158,
          "durationTicks": 18,
          "midi": 72,
          "name": "C5",
          "ticks": 48720,
          "time": 50.75,
          "velocity": 0.5039370078740157
        },
        {
          "duration": 0.020833333333335702,
          "durationTicks": 20,
          "midi": 65,
          "name": "F4",
          "ticks": 48720,
          "time": 50.75,
          "velocity": 0.5039370078740157
        },
        {
          "duration": 0.04999999999999716,
          "durationTicks": 48,
          "midi": 67,
          "name": "G4",
          "ticks": 48840,
          "time": 50.875,
          "velocity": 0.5039370078740157
        },
        {
          "duration": 0.04479166666666856,
          "durationTicks": 43,
          "midi": 75,
          "name": "D#5",
          "ticks": 48840,
          "time": 50.875,
          "velocity": 0.5039370078740157
        },
        {
          "duration": 0.03958333333333286,
          "durationTicks": 38,
          "midi": 70,
          "name": "A#4",
          "ticks": 48840,
          "time": 50.875,
          "velocity": 0.5039370078740157
        },
        {
          "duration": 0.04479166666666856,
          "durationTicks": 43,
          "midi": 67,
          "name": "G4",
          "ticks": 49080,
          "time": 51.125,
          "velocity": 0.5039370078740157
        },
        {
          "duration": 0.046875,
          "durationTicks": 45,
          "midi": 75,
          "name": "D#5",
          "ticks": 49080,
          "time": 51.125,
          "velocity": 0.5039370078740157
        },
        {
          "duration": 0.0364583333333357,
          "durationTicks": 35,
          "midi": 70,
          "name": "A#4",
          "ticks": 49080,
          "time": 51.125,
          "velocity": 0.5039370078740157
        },
        {
          "duration": 0.03958333333333286,
          "durationTicks": 38,
          "midi": 74,
          "name": "D5",
          "ticks": 49200,
          "time": 51.25,
          "velocity": 0.5039370078740157
        },
        {
          "duration": 0.03125,
          "durationTicks": 30,
          "midi": 70,
          "name": "A#4",
          "ticks": 49200,
          "time": 51.25,
          "velocity": 0.5039370078740157
        },
        {
          "duration": 0.0364583333333357,
          "durationTicks": 35,
          "midi": 65,
          "name": "F4",
          "ticks": 49200,
          "time": 51.25,
          "velocity": 0.5039370078740157
        },
        {
          "duration": 0.06041666666666856,
          "durationTicks": 58,
          "midi": 65,
          "name": "F4",
          "ticks": 49440,
          "time": 51.5,
          "velocity": 0.5039370078740157
        },
        {
          "duration": 0.0520833333333357,
          "durationTicks": 50,
          "midi": 72,
          "name": "C5",
          "ticks": 49440,
          "time": 51.5,
          "velocity": 0.5039370078740157
        },
        {
          "duration": 0.04479166666666856,
          "durationTicks": 43,
          "midi": 69,
          "name": "A4",
          "ticks": 49440,
          "time": 51.5,
          "velocity": 0.5039370078740157
        },
        {
          "duration": 0.0572916666666643,
          "durationTicks": 55,
          "midi": 61,
          "name": "C#4",
          "ticks": 50160,
          "time": 52.25,
          "velocity": 0.5039370078740157
        },
        {
          "duration": 0.05520833333333286,
          "durationTicks": 53,
          "midi": 65,
          "name": "F4",
          "ticks": 50160,
          "time": 52.25,
          "velocity": 0.5039370078740157
        },
        {
          "duration": 0.05520833333333286,
          "durationTicks": 53,
          "midi": 68,
          "name": "G#4",
          "ticks": 50160,
          "time": 52.25,
          "velocity": 0.5039370078740157
        },
        {
          "duration": 0.04479166666666856,
          "durationTicks": 43,
          "midi": 65,
          "name": "F4",
          "ticks": 50400,
          "time": 52.5,
          "velocity": 0.5039370078740157
        },
        {
          "duration": 0.03125,
          "durationTicks": 30,
          "midi": 61,
          "name": "C#4",
          "ticks": 50400,
          "time": 52.5,
          "velocity": 0.5039370078740157
        },
        {
          "duration": 0.03958333333333286,
          "durationTicks": 38,
          "midi": 68,
          "name": "G#4",
          "ticks": 50400,
          "time": 52.5,
          "velocity": 0.5039370078740157
        },
        {
          "duration": 0.0520833333333357,
          "durationTicks": 50,
          "midi": 61,
          "name": "C#4",
          "ticks": 50640,
          "time": 52.75,
          "velocity": 0.5039370078740157
        },
        {
          "duration": 0.04999999999999716,
          "durationTicks": 48,
          "midi": 68,
          "name": "G#4",
          "ticks": 50640,
          "time": 52.75,
          "velocity": 0.5039370078740157
        },
        {
          "duration": 0.04479166666666856,
          "durationTicks": 43,
          "midi": 65,
          "name": "F4",
          "ticks": 50640,
          "time": 52.75,
          "velocity": 0.5039370078740157
        },
        {
          "duration": 0.0416666666666643,
          "durationTicks": 40,
          "midi": 61,
          "name": "C#4",
          "ticks": 50880,
          "time": 53,
          "velocity": 0.5039370078740157
        },
        {
          "duration": 0.0416666666666643,
          "durationTicks": 40,
          "midi": 65,
          "name": "F4",
          "ticks": 50880,
          "time": 53,
          "velocity": 0.5039370078740157
        },
        {
          "duration": 0.0416666666666643,
          "durationTicks": 40,
          "midi": 68,
          "name": "G#4",
          "ticks": 50880,
          "time": 53,
          "velocity": 0.5039370078740157
        },
        {
          "duration": 0.04479166666666856,
          "durationTicks": 43,
          "midi": 70,
          "name": "A#4",
          "ticks": 51000,
          "time": 53.125,
          "velocity": 0.5039370078740157
        },
        {
          "duration": 0.03125,
          "durationTicks": 30,
          "midi": 63,
          "name": "D#4",
          "ticks": 51000,
          "time": 53.125,
          "velocity": 0.5039370078740157
        },
        {
          "duration": 0.03437499999999716,
          "durationTicks": 33,
          "midi": 67,
          "name": "G4",
          "ticks": 51120,
          "time": 53.25,
          "velocity": 0.5039370078740157
        },
        {
          "duration": 0.0520833333333357,
          "durationTicks": 50,
          "midi": 63,
          "name": "D#4",
          "ticks": 51240,
          "time": 53.375,
          "velocity": 0.5039370078740157
        },
        {
          "duration": 0.04999999999999716,
          "durationTicks": 48,
          "midi": 70,
          "name": "A#4",
          "ticks": 51240,
          "time": 53.375,
          "velocity": 0.5039370078740157
        },
        {
          "duration": 0.0416666666666643,
          "durationTicks": 40,
          "midi": 67,
          "name": "G4",
          "ticks": 51240,
          "time": 53.375,
          "velocity": 0.5039370078740157
        },
        {
          "duration": 0.0572916666666643,
          "durationTicks": 55,
          "midi": 63,
          "name": "D#4",
          "ticks": 51480,
          "time": 53.625,
          "velocity": 0.5039370078740157
        },
        {
          "duration": 0.04999999999999716,
          "durationTicks": 48,
          "midi": 70,
          "name": "A#4",
          "ticks": 51480,
          "time": 53.625,
          "velocity": 0.5039370078740157
        },
        {
          "duration": 0.0520833333333357,
          "durationTicks": 50,
          "midi": 67,
          "name": "G4",
          "ticks": 51480,
          "time": 53.625,
          "velocity": 0.5039370078740157
        },
        {
          "duration": 0.0416666666666643,
          "durationTicks": 40,
          "midi": 70,
          "name": "A#4",
          "ticks": 51720,
          "time": 53.875,
          "velocity": 0.5039370078740157
        },
        {
          "duration": 0.020833333333335702,
          "durationTicks": 20,
          "midi": 67,
          "name": "G4",
          "ticks": 51720,
          "time": 53.875,
          "velocity": 0.5039370078740157
        },
        {
          "duration": 0.15625,
          "durationTicks": 150,
          "midi": 63,
          "name": "D#4",
          "ticks": 51720,
          "time": 53.875,
          "velocity": 0.5039370078740157
        },
        {
          "duration": 0.0364583333333357,
          "durationTicks": 35,
          "midi": 70,
          "name": "A#4",
          "ticks": 51840,
          "time": 54,
          "velocity": 0.5039370078740157
        },
        {
          "duration": 0.03437499999999716,
          "durationTicks": 33,
          "midi": 67,
          "name": "G4",
          "ticks": 51840,
          "time": 54,
          "velocity": 0.5039370078740157
        },
        {
          "duration": 0.06041666666666856,
          "durationTicks": 58,
          "midi": 69,
          "name": "A4",
          "ticks": 52080,
          "time": 54.25,
          "velocity": 0.5039370078740157
        },
        {
          "duration": 0.0520833333333357,
          "durationTicks": 50,
          "midi": 65,
          "name": "F4",
          "ticks": 52080,
          "time": 54.25,
          "velocity": 0.5039370078740157
        },
        {
          "duration": 0.04479166666666856,
          "durationTicks": 43,
          "midi": 72,
          "name": "C5",
          "ticks": 52080,
          "time": 54.25,
          "velocity": 0.5039370078740157
        },
        {
          "duration": 0.0625,
          "durationTicks": 60,
          "midi": 65,
          "name": "F4",
          "ticks": 52320,
          "time": 54.5,
          "velocity": 0.5039370078740157
        },
        {
          "duration": 0.0520833333333357,
          "durationTicks": 50,
          "midi": 69,
          "name": "A4",
          "ticks": 52320,
          "time": 54.5,
          "velocity": 0.5039370078740157
        },
        {
          "duration": 0.0520833333333357,
          "durationTicks": 50,
          "midi": 72,
          "name": "C5",
          "ticks": 52320,
          "time": 54.5,
          "velocity": 0.5039370078740157
        },
        {
          "duration": 0.046875,
          "durationTicks": 45,
          "midi": 69,
          "name": "A4",
          "ticks": 52560,
          "time": 54.75,
          "velocity": 0.5039370078740157
        },
        {
          "duration": 0.04999999999999716,
          "durationTicks": 48,
          "midi": 65,
          "name": "F4",
          "ticks": 52560,
          "time": 54.75,
          "velocity": 0.5039370078740157
        },
        {
          "duration": 0.04479166666666856,
          "durationTicks": 43,
          "midi": 72,
          "name": "C5",
          "ticks": 52560,
          "time": 54.75,
          "velocity": 0.5039370078740157
        },
        {
          "duration": 0.0520833333333357,
          "durationTicks": 50,
          "midi": 70,
          "name": "A#4",
          "ticks": 52800,
          "time": 55,
          "velocity": 0.5039370078740157
        },
        {
          "duration": 0.04479166666666856,
          "durationTicks": 43,
          "midi": 63,
          "name": "D#4",
          "ticks": 52800,
          "time": 55,
          "velocity": 0.5039370078740157
        },
        {
          "duration": 0.03437499999999716,
          "durationTicks": 33,
          "midi": 67,
          "name": "G4",
          "ticks": 52800,
          "time": 55,
          "velocity": 0.5039370078740157
        },
        {
          "duration": 0.0625,
          "durationTicks": 60,
          "midi": 72,
          "name": "C5",
          "ticks": 52920,
          "time": 55.125,
          "velocity": 0.5039370078740157
        },
        {
          "duration": 0.0625,
          "durationTicks": 60,
          "midi": 69,
          "name": "A4",
          "ticks": 52920,
          "time": 55.125,
          "velocity": 0.5039370078740157
        },
        {
          "duration": 0.0625,
          "durationTicks": 60,
          "midi": 65,
          "name": "F4",
          "ticks": 52920,
          "time": 55.125,
          "velocity": 0.5039370078740157
        },
        {
          "duration": 0.0625,
          "durationTicks": 60,
          "midi": 72,
          "name": "C5",
          "ticks": 53160,
          "time": 55.375,
          "velocity": 0.5039370078740157
        },
        {
          "duration": 0.0625,
          "durationTicks": 60,
          "midi": 69,
          "name": "A4",
          "ticks": 53160,
          "time": 55.375,
          "velocity": 0.5039370078740157
        },
        {
          "duration": 0.0625,
          "durationTicks": 60,
          "midi": 65,
          "name": "F4",
          "ticks": 53160,
          "time": 55.375,
          "velocity": 0.5039370078740157
        },
        {
          "duration": 0.05520833333333286,
          "durationTicks": 53,
          "midi": 65,
          "name": "F4",
          "ticks": 54000,
          "time": 56.25,
          "velocity": 0.5039370078740157
        },
        {
          "duration": 0.04999999999999716,
          "durationTicks": 48,
          "midi": 69,
          "name": "A4",
          "ticks": 54000,
          "time": 56.25,
          "velocity": 0.5039370078740157
        },
        {
          "duration": 0.04999999999999716,
          "durationTicks": 48,
          "midi": 72,
          "name": "C5",
          "ticks": 54000,
          "time": 56.25,
          "velocity": 0.5039370078740157
        },
        {
          "duration": 0.0572916666666643,
          "durationTicks": 55,
          "midi": 72,
          "name": "C5",
          "ticks": 54240,
          "time": 56.5,
          "velocity": 0.5039370078740157
        },
        {
          "duration": 0.0572916666666643,
          "durationTicks": 55,
          "midi": 65,
          "name": "F4",
          "ticks": 54240,
          "time": 56.5,
          "velocity": 0.5039370078740157
        },
        {
          "duration": 0.0364583333333357,
          "durationTicks": 35,
          "midi": 69,
          "name": "A4",
          "ticks": 54240,
          "time": 56.5,
          "velocity": 0.5039370078740157
        },
        {
          "duration": 0.03437499999999716,
          "durationTicks": 33,
          "midi": 72,
          "name": "C5",
          "ticks": 54480,
          "time": 56.75,
          "velocity": 0.5039370078740157
        },
        {
          "duration": 0.026041666666664298,
          "durationTicks": 25,
          "midi": 65,
          "name": "F4",
          "ticks": 54480,
          "time": 56.75,
          "velocity": 0.5039370078740157
        },
        {
          "duration": 0.018749999999997158,
          "durationTicks": 18,
          "midi": 69,
          "name": "A4",
          "ticks": 54480,
          "time": 56.75,
          "velocity": 0.5039370078740157
        },
        {
          "duration": 0.0572916666666643,
          "durationTicks": 55,
          "midi": 70,
          "name": "A#4",
          "ticks": 54600,
          "time": 56.875,
          "velocity": 0.5039370078740157
        },
        {
          "duration": 0.03958333333333286,
          "durationTicks": 38,
          "midi": 67,
          "name": "G4",
          "ticks": 54600,
          "time": 56.875,
          "velocity": 0.5039370078740157
        },
        {
          "duration": 0.04479166666666856,
          "durationTicks": 43,
          "midi": 75,
          "name": "D#5",
          "ticks": 54600,
          "time": 56.875,
          "velocity": 0.5039370078740157
        },
        {
          "duration": 0.06562499999999716,
          "durationTicks": 63,
          "midi": 75,
          "name": "D#5",
          "ticks": 54840,
          "time": 57.125,
          "velocity": 0.5039370078740157
        },
        {
          "duration": 0.05520833333333286,
          "durationTicks": 53,
          "midi": 67,
          "name": "G4",
          "ticks": 54840,
          "time": 57.125,
          "velocity": 0.5039370078740157
        },
        {
          "duration": 0.04479166666666856,
          "durationTicks": 43,
          "midi": 70,
          "name": "A#4",
          "ticks": 54840,
          "time": 57.125,
          "velocity": 0.5039370078740157
        },
        {
          "duration": 0.03958333333333286,
          "durationTicks": 38,
          "midi": 75,
          "name": "D#5",
          "ticks": 55080,
          "time": 57.375,
          "velocity": 0.5039370078740157
        },
        {
          "duration": 0.03958333333333286,
          "durationTicks": 38,
          "midi": 67,
          "name": "G4",
          "ticks": 55080,
          "time": 57.375,
          "velocity": 0.5039370078740157
        },
        {
          "duration": 0.02395833333333286,
          "durationTicks": 23,
          "midi": 70,
          "name": "A#4",
          "ticks": 55080,
          "time": 57.375,
          "velocity": 0.5039370078740157
        },
        {
          "duration": 0.0416666666666643,
          "durationTicks": 40,
          "midi": 70,
          "name": "A#4",
          "ticks": 55200,
          "time": 57.5,
          "velocity": 0.5039370078740157
        },
        {
          "duration": 0.0416666666666643,
          "durationTicks": 40,
          "midi": 74,
          "name": "D5",
          "ticks": 55200,
          "time": 57.5,
          "velocity": 0.5039370078740157
        },
        {
          "duration": 0.0364583333333357,
          "durationTicks": 35,
          "midi": 65,
          "name": "F4",
          "ticks": 55200,
          "time": 57.5,
          "velocity": 0.5039370078740157
        },
        {
          "duration": 0.0572916666666643,
          "durationTicks": 55,
          "midi": 65,
          "name": "F4",
          "ticks": 55440,
          "time": 57.75,
          "velocity": 0.5039370078740157
        },
        {
          "duration": 0.04999999999999716,
          "durationTicks": 48,
          "midi": 74,
          "name": "D5",
          "ticks": 55440,
          "time": 57.75,
          "velocity": 0.5039370078740157
        },
        {
          "duration": 0.046875,
          "durationTicks": 45,
          "midi": 70,
          "name": "A#4",
          "ticks": 55440,
          "time": 57.75,
          "velocity": 0.5039370078740157
        },
        {
          "duration": 0.05520833333333286,
          "durationTicks": 53,
          "midi": 65,
          "name": "F4",
          "ticks": 55920,
          "time": 58.25,
          "velocity": 0.5039370078740157
        },
        {
          "duration": 0.04479166666666856,
          "durationTicks": 43,
          "midi": 69,
          "name": "A4",
          "ticks": 55920,
          "time": 58.25,
          "velocity": 0.5039370078740157
        },
        {
          "duration": 0.046875,
          "durationTicks": 45,
          "midi": 72,
          "name": "C5",
          "ticks": 55920,
          "time": 58.25,
          "velocity": 0.5039370078740157
        },
        {
          "duration": 0.04999999999999716,
          "durationTicks": 48,
          "midi": 65,
          "name": "F4",
          "ticks": 56160,
          "time": 58.5,
          "velocity": 0.5039370078740157
        },
        {
          "duration": 0.0364583333333357,
          "durationTicks": 35,
          "midi": 69,
          "name": "A4",
          "ticks": 56160,
          "time": 58.5,
          "velocity": 0.5039370078740157
        },
        {
          "duration": 0.04479166666666856,
          "durationTicks": 43,
          "midi": 72,
          "name": "C5",
          "ticks": 56160,
          "time": 58.5,
          "velocity": 0.5039370078740157
        },
        {
          "duration": 0.03958333333333286,
          "durationTicks": 38,
          "midi": 72,
          "name": "C5",
          "ticks": 56400,
          "time": 58.75,
          "velocity": 0.5039370078740157
        },
        {
          "duration": 0.0416666666666643,
          "durationTicks": 40,
          "midi": 65,
          "name": "F4",
          "ticks": 56400,
          "time": 58.75,
          "velocity": 0.5039370078740157
        },
        {
          "duration": 0.026041666666664298,
          "durationTicks": 25,
          "midi": 69,
          "name": "A4",
          "ticks": 56400,
          "time": 58.75,
          "velocity": 0.5039370078740157
        },
        {
          "duration": 0.0520833333333357,
          "durationTicks": 50,
          "midi": 75,
          "name": "D#5",
          "ticks": 56520,
          "time": 58.875,
          "velocity": 0.5039370078740157
        },
        {
          "duration": 0.0416666666666643,
          "durationTicks": 40,
          "midi": 67,
          "name": "G4",
          "ticks": 56520,
          "time": 58.875,
          "velocity": 0.5039370078740157
        },
        {
          "duration": 0.0364583333333357,
          "durationTicks": 35,
          "midi": 70,
          "name": "A#4",
          "ticks": 56520,
          "time": 58.875,
          "velocity": 0.5039370078740157
        },
        {
          "duration": 0.046875,
          "durationTicks": 45,
          "midi": 75,
          "name": "D#5",
          "ticks": 56760,
          "time": 59.125,
          "velocity": 0.5039370078740157
        },
        {
          "duration": 0.03437499999999716,
          "durationTicks": 33,
          "midi": 70,
          "name": "A#4",
          "ticks": 56760,
          "time": 59.125,
          "velocity": 0.5039370078740157
        },
        {
          "duration": 0.03958333333333286,
          "durationTicks": 38,
          "midi": 67,
          "name": "G4",
          "ticks": 56760,
          "time": 59.125,
          "velocity": 0.5039370078740157
        },
        {
          "duration": 0.04999999999999716,
          "durationTicks": 48,
          "midi": 70,
          "name": "A#4",
          "ticks": 56880,
          "time": 59.25,
          "velocity": 0.5039370078740157
        },
        {
          "duration": 0.046875,
          "durationTicks": 45,
          "midi": 74,
          "name": "D5",
          "ticks": 56880,
          "time": 59.25,
          "velocity": 0.5039370078740157
        },
        {
          "duration": 0.046875,
          "durationTicks": 45,
          "midi": 65,
          "name": "F4",
          "ticks": 56880,
          "time": 59.25,
          "velocity": 0.5039370078740157
        },
        {
          "duration": 0.06041666666666856,
          "durationTicks": 58,
          "midi": 65,
          "name": "F4",
          "ticks": 57120,
          "time": 59.5,
          "velocity": 0.5039370078740157
        },
        {
          "duration": 0.0520833333333357,
          "durationTicks": 50,
          "midi": 69,
          "name": "A4",
          "ticks": 57120,
          "time": 59.5,
          "velocity": 0.5039370078740157
        },
        {
          "duration": 0.04999999999999716,
          "durationTicks": 48,
          "midi": 72,
          "name": "C5",
          "ticks": 57120,
          "time": 59.5,
          "velocity": 0.5039370078740157
        },
        {
          "duration": 0.05520833333333286,
          "durationTicks": 53,
          "midi": 61,
          "name": "C#4",
          "ticks": 57840,
          "time": 60.25,
          "velocity": 0.5039370078740157
        },
        {
          "duration": 0.05520833333333286,
          "durationTicks": 53,
          "midi": 68,
          "name": "G#4",
          "ticks": 57840,
          "time": 60.25,
          "velocity": 0.5039370078740157
        },
        {
          "duration": 0.04479166666666856,
          "durationTicks": 43,
          "midi": 65,
          "name": "F4",
          "ticks": 57840,
          "time": 60.25,
          "velocity": 0.5039370078740157
        },
        {
          "duration": 0.05520833333333286,
          "durationTicks": 53,
          "midi": 68,
          "name": "G#4",
          "ticks": 58080,
          "time": 60.5,
          "velocity": 0.5039370078740157
        },
        {
          "duration": 0.04479166666666856,
          "durationTicks": 43,
          "midi": 61,
          "name": "C#4",
          "ticks": 58080,
          "time": 60.5,
          "velocity": 0.5039370078740157
        },
        {
          "duration": 0.04479166666666856,
          "durationTicks": 43,
          "midi": 65,
          "name": "F4",
          "ticks": 58080,
          "time": 60.5,
          "velocity": 0.5039370078740157
        },
        {
          "duration": 0.04999999999999716,
          "durationTicks": 48,
          "midi": 68,
          "name": "G#4",
          "ticks": 58320,
          "time": 60.75,
          "velocity": 0.5039370078740157
        },
        {
          "duration": 0.0364583333333357,
          "durationTicks": 35,
          "midi": 61,
          "name": "C#4",
          "ticks": 58320,
          "time": 60.75,
          "velocity": 0.5039370078740157
        },
        {
          "duration": 0.0364583333333357,
          "durationTicks": 35,
          "midi": 65,
          "name": "F4",
          "ticks": 58320,
          "time": 60.75,
          "velocity": 0.5039370078740157
        },
        {
          "duration": 0.04999999999999716,
          "durationTicks": 48,
          "midi": 68,
          "name": "G#4",
          "ticks": 58560,
          "time": 61,
          "velocity": 0.5039370078740157
        },
        {
          "duration": 0.0416666666666643,
          "durationTicks": 40,
          "midi": 65,
          "name": "F4",
          "ticks": 58560,
          "time": 61,
          "velocity": 0.5039370078740157
        },
        {
          "duration": 0.0416666666666643,
          "durationTicks": 40,
          "midi": 61,
          "name": "C#4",
          "ticks": 58560,
          "time": 61,
          "velocity": 0.5039370078740157
        },
        {
          "duration": 0.0520833333333357,
          "durationTicks": 50,
          "midi": 70,
          "name": "A#4",
          "ticks": 58680,
          "time": 61.125,
          "velocity": 0.5039370078740157
        },
        {
          "duration": 0.0364583333333357,
          "durationTicks": 35,
          "midi": 67,
          "name": "G4",
          "ticks": 58680,
          "time": 61.125,
          "velocity": 0.5039370078740157
        },
        {
          "duration": 0.02916666666666856,
          "durationTicks": 28,
          "midi": 63,
          "name": "D#4",
          "ticks": 58680,
          "time": 61.125,
          "velocity": 0.5039370078740157
        },
        {
          "duration": 0.046875,
          "durationTicks": 45,
          "midi": 70,
          "name": "A#4",
          "ticks": 58920,
          "time": 61.375,
          "velocity": 0.5039370078740157
        },
        {
          "duration": 0.0416666666666643,
          "durationTicks": 40,
          "midi": 63,
          "name": "D#4",
          "ticks": 58920,
          "time": 61.375,
          "velocity": 0.5039370078740157
        },
        {
          "duration": 0.0364583333333357,
          "durationTicks": 35,
          "midi": 67,
          "name": "G4",
          "ticks": 58920,
          "time": 61.375,
          "velocity": 0.5039370078740157
        },
        {
          "duration": 0.04999999999999716,
          "durationTicks": 48,
          "midi": 70,
          "name": "A#4",
          "ticks": 59160,
          "time": 61.625,
          "velocity": 0.5039370078740157
        },
        {
          "duration": 0.03958333333333286,
          "durationTicks": 38,
          "midi": 67,
          "name": "G4",
          "ticks": 59160,
          "time": 61.625,
          "velocity": 0.5039370078740157
        },
        {
          "duration": 0.03125,
          "durationTicks": 30,
          "midi": 63,
          "name": "D#4",
          "ticks": 59160,
          "time": 61.625,
          "velocity": 0.5039370078740157
        },
        {
          "duration": 0.02916666666666856,
          "durationTicks": 28,
          "midi": 70,
          "name": "A#4",
          "ticks": 59400,
          "time": 61.875,
          "velocity": 0.5039370078740157
        },
        {
          "duration": 0.020833333333335702,
          "durationTicks": 20,
          "midi": 67,
          "name": "G4",
          "ticks": 59400,
          "time": 61.875,
          "velocity": 0.5039370078740157
        },
        {
          "duration": 0.015625,
          "durationTicks": 15,
          "midi": 63,
          "name": "D#4",
          "ticks": 59400,
          "time": 61.875,
          "velocity": 0.5039370078740157
        },
        {
          "duration": 0.018749999999997158,
          "durationTicks": 18,
          "midi": 63,
          "name": "D#4",
          "ticks": 59520,
          "time": 62,
          "velocity": 0.5039370078740157
        },
        {
          "duration": 0.013541666666668561,
          "durationTicks": 13,
          "midi": 70,
          "name": "A#4",
          "ticks": 59520,
          "time": 62,
          "velocity": 0.5039370078740157
        },
        {
          "duration": 0.010416666666664298,
          "durationTicks": 10,
          "midi": 67,
          "name": "G4",
          "ticks": 59520,
          "time": 62,
          "velocity": 0.5039370078740157
        },
        {
          "duration": 0.0416666666666643,
          "durationTicks": 40,
          "midi": 65,
          "name": "F4",
          "ticks": 59760,
          "time": 62.25,
          "velocity": 0.5039370078740157
        },
        {
          "duration": 0.04479166666666856,
          "durationTicks": 43,
          "midi": 69,
          "name": "A4",
          "ticks": 59760,
          "time": 62.25,
          "velocity": 0.5039370078740157
        },
        {
          "duration": 0.0416666666666643,
          "durationTicks": 40,
          "midi": 72,
          "name": "C5",
          "ticks": 59760,
          "time": 62.25,
          "velocity": 0.5039370078740157
        },
        {
          "duration": 0.0416666666666643,
          "durationTicks": 40,
          "midi": 69,
          "name": "A4",
          "ticks": 60000,
          "time": 62.5,
          "velocity": 0.5039370078740157
        },
        {
          "duration": 0.04479166666666856,
          "durationTicks": 43,
          "midi": 65,
          "name": "F4",
          "ticks": 60000,
          "time": 62.5,
          "velocity": 0.5039370078740157
        },
        {
          "duration": 0.03958333333333286,
          "durationTicks": 38,
          "midi": 72,
          "name": "C5",
          "ticks": 60000,
          "time": 62.5,
          "velocity": 0.5039370078740157
        },
        {
          "duration": 0.03958333333333286,
          "durationTicks": 38,
          "midi": 65,
          "name": "F4",
          "ticks": 60240,
          "time": 62.75,
          "velocity": 0.5039370078740157
        },
        {
          "duration": 0.03958333333333286,
          "durationTicks": 38,
          "midi": 69,
          "name": "A4",
          "ticks": 60240,
          "time": 62.75,
          "velocity": 0.5039370078740157
        },
        {
          "duration": 0.03958333333333286,
          "durationTicks": 38,
          "midi": 72,
          "name": "C5",
          "ticks": 60240,
          "time": 62.75,
          "velocity": 0.5039370078740157
        },
        {
          "duration": 0.05520833333333286,
          "durationTicks": 53,
          "midi": 70,
          "name": "A#4",
          "ticks": 60480,
          "time": 63,
          "velocity": 0.5039370078740157
        },
        {
          "duration": 0.0416666666666643,
          "durationTicks": 40,
          "midi": 63,
          "name": "D#4",
          "ticks": 60480,
          "time": 63,
          "velocity": 0.5039370078740157
        },
        {
          "duration": 0.02916666666666856,
          "durationTicks": 28,
          "midi": 67,
          "name": "G4",
          "ticks": 60480,
          "time": 63,
          "velocity": 0.5039370078740157
        },
        {
          "duration": 0.04999999999999716,
          "durationTicks": 48,
          "midi": 69,
          "name": "A4",
          "ticks": 60600,
          "time": 63.125,
          "velocity": 0.5039370078740157
        },
        {
          "duration": 0.0416666666666643,
          "durationTicks": 40,
          "midi": 65,
          "name": "F4",
          "ticks": 60600,
          "time": 63.125,
          "velocity": 0.5039370078740157
        },
        {
          "duration": 0.04479166666666856,
          "durationTicks": 43,
          "midi": 72,
          "name": "C5",
          "ticks": 60600,
          "time": 63.125,
          "velocity": 0.5039370078740157
        },
        {
          "duration": 0.046875,
          "durationTicks": 45,
          "midi": 72,
          "name": "C5",
          "ticks": 60840,
          "time": 63.375,
          "velocity": 0.5039370078740157
        },
        {
          "duration": 0.046875,
          "durationTicks": 45,
          "midi": 65,
          "name": "F4",
          "ticks": 60840,
          "time": 63.375,
          "velocity": 0.5039370078740157
        },
        {
          "duration": 0.03958333333333286,
          "durationTicks": 38,
          "midi": 69,
          "name": "A4",
          "ticks": 60840,
          "time": 63.375,
          "velocity": 0.5039370078740157
        },
        {
          "duration": 0.04479166666666856,
          "durationTicks": 43,
          "midi": 72,
          "name": "C5",
          "ticks": 61200,
          "time": 63.75,
          "velocity": 0.5039370078740157
        },
        {
          "duration": 0.03437499999999716,
          "durationTicks": 33,
          "midi": 65,
          "name": "F4",
          "ticks": 61200,
          "time": 63.75,
          "velocity": 0.5039370078740157
        },
        {
          "duration": 0.03437499999999716,
          "durationTicks": 33,
          "midi": 69,
          "name": "A4",
          "ticks": 61200,
          "time": 63.75,
          "velocity": 0.5039370078740157
        },
        {
          "duration": 0.11249999999999716,
          "durationTicks": 108,
          "midi": 65,
          "name": "F4",
          "ticks": 82560,
          "time": 86,
          "velocity": 0.5039370078740157
        },
        {
          "duration": 0.09687499999999716,
          "durationTicks": 93,
          "midi": 68,
          "name": "G#4",
          "ticks": 83040,
          "time": 86.5,
          "velocity": 0.5039370078740157
        },
        {
          "duration": 0.0833333333333286,
          "durationTicks": 80,
          "midi": 65,
          "name": "F4",
          "ticks": 83400,
          "time": 86.875,
          "velocity": 0.5039370078740157
        },
        {
          "duration": 0.0989583333333286,
          "durationTicks": 95,
          "midi": 65,
          "name": "F4",
          "ticks": 83640,
          "time": 87.125,
          "velocity": 0.5039370078740157
        },
        {
          "duration": 0.08124999999999716,
          "durationTicks": 78,
          "midi": 70,
          "name": "A#4",
          "ticks": 83760,
          "time": 87.25,
          "velocity": 0.5039370078740157
        },
        {
          "duration": 0.09375,
          "durationTicks": 90,
          "midi": 65,
          "name": "F4",
          "ticks": 84000,
          "time": 87.5,
          "velocity": 0.5039370078740157
        },
        {
          "duration": 0.0989583333333286,
          "durationTicks": 95,
          "midi": 63,
          "name": "D#4",
          "ticks": 84240,
          "time": 87.75,
          "velocity": 0.5039370078740157
        },
        {
          "duration": 0.10208333333333997,
          "durationTicks": 98,
          "midi": 65,
          "name": "F4",
          "ticks": 84480,
          "time": 88,
          "velocity": 0.5039370078740157
        },
        {
          "duration": 0.0885416666666714,
          "durationTicks": 85,
          "midi": 72,
          "name": "C5",
          "ticks": 84960,
          "time": 88.5,
          "velocity": 0.5039370078740157
        },
        {
          "duration": 0.08645833333333997,
          "durationTicks": 83,
          "midi": 65,
          "name": "F4",
          "ticks": 85320,
          "time": 88.875,
          "velocity": 0.5039370078740157
        },
        {
          "duration": 0.09166666666666856,
          "durationTicks": 88,
          "midi": 65,
          "name": "F4",
          "ticks": 85560,
          "time": 89.125,
          "velocity": 0.5039370078740157
        },
        {
          "duration": 0.06562499999999716,
          "durationTicks": 63,
          "midi": 73,
          "name": "C#5",
          "ticks": 85680,
          "time": 89.25,
          "velocity": 0.5039370078740157
        },
        {
          "duration": 0.0677083333333286,
          "durationTicks": 65,
          "midi": 72,
          "name": "C5",
          "ticks": 85920,
          "time": 89.5,
          "velocity": 0.5039370078740157
        },
        {
          "duration": 0.052083333333328596,
          "durationTicks": 50,
          "midi": 68,
          "name": "G#4",
          "ticks": 86160,
          "time": 89.75,
          "velocity": 0.5039370078740157
        },
        {
          "duration": 0.052083333333328596,
          "durationTicks": 50,
          "midi": 65,
          "name": "F4",
          "ticks": 86400,
          "time": 90,
          "velocity": 0.5039370078740157
        },
        {
          "duration": 0.04999999999999716,
          "durationTicks": 48,
          "midi": 72,
          "name": "C5",
          "ticks": 86640,
          "time": 90.25,
          "velocity": 0.5039370078740157
        },
        {
          "duration": 0.0729166666666714,
          "durationTicks": 70,
          "midi": 77,
          "name": "F5",
          "ticks": 86880,
          "time": 90.5,
          "velocity": 0.5039370078740157
        },
        {
          "duration": 0.057291666666671404,
          "durationTicks": 55,
          "midi": 65,
          "name": "F4",
          "ticks": 87120,
          "time": 90.75,
          "velocity": 0.5039370078740157
        },
        {
          "duration": 0.0833333333333286,
          "durationTicks": 80,
          "midi": 63,
          "name": "D#4",
          "ticks": 87240,
          "time": 90.875,
          "velocity": 0.5039370078740157
        },
        {
          "duration": 0.08124999999999716,
          "durationTicks": 78,
          "midi": 63,
          "name": "D#4",
          "ticks": 87480,
          "time": 91.125,
          "velocity": 0.5039370078740157
        },
        {
          "duration": 0.0625,
          "durationTicks": 60,
          "midi": 60,
          "name": "C4",
          "ticks": 87600,
          "time": 91.25,
          "velocity": 0.5039370078740157
        },
        {
          "duration": 0.08645833333333997,
          "durationTicks": 83,
          "midi": 67,
          "name": "G4",
          "ticks": 87840,
          "time": 91.5,
          "velocity": 0.5039370078740157
        },
        {
          "duration": 1.24270833333334,
          "durationTicks": 1193,
          "midi": 65,
          "name": "F4",
          "ticks": 88080,
          "time": 91.75,
          "velocity": 0.5039370078740157
        },
        {
          "duration": 0.13854166666666856,
          "durationTicks": 133,
          "midi": 65,
          "name": "F4",
          "ticks": 90240,
          "time": 94,
          "velocity": 0.5039370078740157
        },
        {
          "duration": 0.09687499999999716,
          "durationTicks": 93,
          "midi": 68,
          "name": "G#4",
          "ticks": 90720,
          "time": 94.5,
          "velocity": 0.5039370078740157
        },
        {
          "duration": 0.0729166666666714,
          "durationTicks": 70,
          "midi": 65,
          "name": "F4",
          "ticks": 91080,
          "time": 94.875,
          "velocity": 0.5039370078740157
        },
        {
          "duration": 0.08645833333333997,
          "durationTicks": 83,
          "midi": 65,
          "name": "F4",
          "ticks": 91320,
          "time": 95.125,
          "velocity": 0.5039370078740157
        },
        {
          "duration": 0.0833333333333286,
          "durationTicks": 80,
          "midi": 70,
          "name": "A#4",
          "ticks": 91440,
          "time": 95.25,
          "velocity": 0.5039370078740157
        },
        {
          "duration": 0.1041666666666714,
          "durationTicks": 100,
          "midi": 65,
          "name": "F4",
          "ticks": 91680,
          "time": 95.5,
          "velocity": 0.5039370078740157
        },
        {
          "duration": 0.078125,
          "durationTicks": 75,
          "midi": 63,
          "name": "D#4",
          "ticks": 91920,
          "time": 95.75,
          "velocity": 0.5039370078740157
        },
        {
          "duration": 0.10208333333333997,
          "durationTicks": 98,
          "midi": 65,
          "name": "F4",
          "ticks": 92160,
          "time": 96,
          "velocity": 0.5039370078740157
        },
        {
          "duration": 0.0989583333333286,
          "durationTicks": 95,
          "midi": 72,
          "name": "C5",
          "ticks": 92640,
          "time": 96.5,
          "velocity": 0.5039370078740157
        },
        {
          "duration": 0.0989583333333286,
          "durationTicks": 95,
          "midi": 65,
          "name": "F4",
          "ticks": 93000,
          "time": 96.875,
          "velocity": 0.5039370078740157
        },
        {
          "duration": 0.09375,
          "durationTicks": 90,
          "midi": 65,
          "name": "F4",
          "ticks": 93240,
          "time": 97.125,
          "velocity": 0.5039370078740157
        },
        {
          "duration": 0.07604166666666856,
          "durationTicks": 73,
          "midi": 73,
          "name": "C#5",
          "ticks": 93360,
          "time": 97.25,
          "velocity": 0.5039370078740157
        },
        {
          "duration": 0.078125,
          "durationTicks": 75,
          "midi": 72,
          "name": "C5",
          "ticks": 93600,
          "time": 97.5,
          "velocity": 0.5039370078740157
        },
        {
          "duration": 0.06041666666666856,
          "durationTicks": 58,
          "midi": 68,
          "name": "G#4",
          "ticks": 93840,
          "time": 97.75,
          "velocity": 0.5039370078740157
        },
        {
          "duration": 0.055208333333339965,
          "durationTicks": 53,
          "midi": 65,
          "name": "F4",
          "ticks": 94080,
          "time": 98,
          "velocity": 0.5039370078740157
        },
        {
          "duration": 0.057291666666671404,
          "durationTicks": 55,
          "midi": 72,
          "name": "C5",
          "ticks": 94320,
          "time": 98.25,
          "velocity": 0.5039370078740157
        },
        {
          "duration": 0.07604166666666856,
          "durationTicks": 73,
          "midi": 77,
          "name": "F5",
          "ticks": 94560,
          "time": 98.5,
          "velocity": 0.5039370078740157
        },
        {
          "duration": 0.06041666666666856,
          "durationTicks": 58,
          "midi": 65,
          "name": "F4",
          "ticks": 94800,
          "time": 98.75,
          "velocity": 0.5039370078740157
        },
        {
          "duration": 0.0833333333333286,
          "durationTicks": 80,
          "midi": 63,
          "name": "D#4",
          "ticks": 94920,
          "time": 98.875,
          "velocity": 0.5039370078740157
        },
        {
          "duration": 0.0833333333333286,
          "durationTicks": 80,
          "midi": 63,
          "name": "D#4",
          "ticks": 95160,
          "time": 99.125,
          "velocity": 0.5039370078740157
        },
        {
          "duration": 0.0625,
          "durationTicks": 60,
          "midi": 60,
          "name": "C4",
          "ticks": 95280,
          "time": 99.25,
          "velocity": 0.5039370078740157
        },
        {
          "duration": 0.1875,
          "durationTicks": 180,
          "midi": 67,
          "name": "G4",
          "ticks": 95520,
          "time": 99.5,
          "velocity": 0.5039370078740157
        },
        {
          "duration": 1.3958333333333286,
          "durationTicks": 1340,
          "midi": 65,
          "name": "F4",
          "ticks": 95760,
          "time": 99.75,
          "velocity": 0.5039370078740157
        }
      ]
    },
    {
      "channel": 13,
      "controlChanges": {},
      "pitchBends": [],
      "instrument": {
        "family": "bass",
        "number": 38,
        "name": "synth bass 1"
      },
      "name": "",
      "notes": [
        {
          "duration": 0.06562499999999716,
          "durationTicks": 63,
          "midi": 65,
          "name": "F4",
          "ticks": 46320,
          "time": 48.25,
          "velocity": 0.5039370078740157
        },
        {
          "duration": 0.046875,
          "durationTicks": 45,
          "midi": 69,
          "name": "A4",
          "ticks": 46320,
          "time": 48.25,
          "velocity": 0.5039370078740157
        },
        {
          "duration": 0.0520833333333357,
          "durationTicks": 50,
          "midi": 72,
          "name": "C5",
          "ticks": 46320,
          "time": 48.25,
          "velocity": 0.5039370078740157
        },
        {
          "duration": 0.06041666666666856,
          "durationTicks": 58,
          "midi": 65,
          "name": "F4",
          "ticks": 46560,
          "time": 48.5,
          "velocity": 0.5039370078740157
        },
        {
          "duration": 0.06041666666666856,
          "durationTicks": 58,
          "midi": 72,
          "name": "C5",
          "ticks": 46560,
          "time": 48.5,
          "velocity": 0.5039370078740157
        },
        {
          "duration": 0.03958333333333286,
          "durationTicks": 38,
          "midi": 69,
          "name": "A4",
          "ticks": 46560,
          "time": 48.5,
          "velocity": 0.5039370078740157
        },
        {
          "duration": 0.04999999999999716,
          "durationTicks": 48,
          "midi": 72,
          "name": "C5",
          "ticks": 46800,
          "time": 48.75,
          "velocity": 0.5039370078740157
        },
        {
          "duration": 0.04479166666666856,
          "durationTicks": 43,
          "midi": 65,
          "name": "F4",
          "ticks": 46800,
          "time": 48.75,
          "velocity": 0.5039370078740157
        },
        {
          "duration": 0.02395833333333286,
          "durationTicks": 23,
          "midi": 69,
          "name": "A4",
          "ticks": 46800,
          "time": 48.75,
          "velocity": 0.5039370078740157
        },
        {
          "duration": 0.04999999999999716,
          "durationTicks": 48,
          "midi": 75,
          "name": "D#5",
          "ticks": 46920,
          "time": 48.875,
          "velocity": 0.5039370078740157
        },
        {
          "duration": 0.0416666666666643,
          "durationTicks": 40,
          "midi": 67,
          "name": "G4",
          "ticks": 46920,
          "time": 48.875,
          "velocity": 0.5039370078740157
        },
        {
          "duration": 0.0416666666666643,
          "durationTicks": 40,
          "midi": 70,
          "name": "A#4",
          "ticks": 46920,
          "time": 48.875,
          "velocity": 0.5039370078740157
        },
        {
          "duration": 0.0625,
          "durationTicks": 60,
          "midi": 75,
          "name": "D#5",
          "ticks": 47160,
          "time": 49.125,
          "velocity": 0.5039370078740157
        },
        {
          "duration": 0.0625,
          "durationTicks": 60,
          "midi": 67,
          "name": "G4",
          "ticks": 47160,
          "time": 49.125,
          "velocity": 0.5039370078740157
        },
        {
          "duration": 0.046875,
          "durationTicks": 45,
          "midi": 70,
          "name": "A#4",
          "ticks": 47160,
          "time": 49.125,
          "velocity": 0.5039370078740157
        },
        {
          "duration": 0.0364583333333357,
          "durationTicks": 35,
          "midi": 75,
          "name": "D#5",
          "ticks": 47400,
          "time": 49.375,
          "velocity": 0.5039370078740157
        },
        {
          "duration": 0.0364583333333357,
          "durationTicks": 35,
          "midi": 67,
          "name": "G4",
          "ticks": 47400,
          "time": 49.375,
          "velocity": 0.5039370078740157
        },
        {
          "duration": 0.02395833333333286,
          "durationTicks": 23,
          "midi": 70,
          "name": "A#4",
          "ticks": 47400,
          "time": 49.375,
          "velocity": 0.5039370078740157
        },
        {
          "duration": 0.04479166666666856,
          "durationTicks": 43,
          "midi": 70,
          "name": "A#4",
          "ticks": 47520,
          "time": 49.5,
          "velocity": 0.5039370078740157
        },
        {
          "duration": 0.04479166666666856,
          "durationTicks": 43,
          "midi": 74,
          "name": "D5",
          "ticks": 47520,
          "time": 49.5,
          "velocity": 0.5039370078740157
        },
        {
          "duration": 0.04479166666666856,
          "durationTicks": 43,
          "midi": 65,
          "name": "F4",
          "ticks": 47520,
          "time": 49.5,
          "velocity": 0.5039370078740157
        },
        {
          "duration": 0.06041666666666856,
          "durationTicks": 58,
          "midi": 74,
          "name": "D5",
          "ticks": 47760,
          "time": 49.75,
          "velocity": 0.5039370078740157
        },
        {
          "duration": 0.06041666666666856,
          "durationTicks": 58,
          "midi": 65,
          "name": "F4",
          "ticks": 47760,
          "time": 49.75,
          "velocity": 0.5039370078740157
        },
        {
          "duration": 0.0520833333333357,
          "durationTicks": 50,
          "midi": 70,
          "name": "A#4",
          "ticks": 47760,
          "time": 49.75,
          "velocity": 0.5039370078740157
        },
        {
          "duration": 0.06562499999999716,
          "durationTicks": 63,
          "midi": 65,
          "name": "F4",
          "ticks": 48240,
          "time": 50.25,
          "velocity": 0.5039370078740157
        },
        {
          "duration": 0.0520833333333357,
          "durationTicks": 50,
          "midi": 69,
          "name": "A4",
          "ticks": 48240,
          "time": 50.25,
          "velocity": 0.5039370078740157
        },
        {
          "duration": 0.0520833333333357,
          "durationTicks": 50,
          "midi": 72,
          "name": "C5",
          "ticks": 48240,
          "time": 50.25,
          "velocity": 0.5039370078740157
        },
        {
          "duration": 0.06562499999999716,
          "durationTicks": 63,
          "midi": 65,
          "name": "F4",
          "ticks": 48480,
          "time": 50.5,
          "velocity": 0.5039370078740157
        },
        {
          "duration": 0.05520833333333286,
          "durationTicks": 53,
          "midi": 72,
          "name": "C5",
          "ticks": 48480,
          "time": 50.5,
          "velocity": 0.5039370078740157
        },
        {
          "duration": 0.046875,
          "durationTicks": 45,
          "midi": 69,
          "name": "A4",
          "ticks": 48480,
          "time": 50.5,
          "velocity": 0.5039370078740157
        },
        {
          "duration": 0.018749999999997158,
          "durationTicks": 18,
          "midi": 72,
          "name": "C5",
          "ticks": 48720,
          "time": 50.75,
          "velocity": 0.5039370078740157
        },
        {
          "duration": 0.020833333333335702,
          "durationTicks": 20,
          "midi": 65,
          "name": "F4",
          "ticks": 48720,
          "time": 50.75,
          "velocity": 0.5039370078740157
        },
        {
          "duration": 0.04999999999999716,
          "durationTicks": 48,
          "midi": 67,
          "name": "G4",
          "ticks": 48840,
          "time": 50.875,
          "velocity": 0.5039370078740157
        },
        {
          "duration": 0.04479166666666856,
          "durationTicks": 43,
          "midi": 75,
          "name": "D#5",
          "ticks": 48840,
          "time": 50.875,
          "velocity": 0.5039370078740157
        },
        {
          "duration": 0.03958333333333286,
          "durationTicks": 38,
          "midi": 70,
          "name": "A#4",
          "ticks": 48840,
          "time": 50.875,
          "velocity": 0.5039370078740157
        },
        {
          "duration": 0.04479166666666856,
          "durationTicks": 43,
          "midi": 67,
          "name": "G4",
          "ticks": 49080,
          "time": 51.125,
          "velocity": 0.5039370078740157
        },
        {
          "duration": 0.046875,
          "durationTicks": 45,
          "midi": 75,
          "name": "D#5",
          "ticks": 49080,
          "time": 51.125,
          "velocity": 0.5039370078740157
        },
        {
          "duration": 0.0364583333333357,
          "durationTicks": 35,
          "midi": 70,
          "name": "A#4",
          "ticks": 49080,
          "time": 51.125,
          "velocity": 0.5039370078740157
        },
        {
          "duration": 0.03958333333333286,
          "durationTicks": 38,
          "midi": 74,
          "name": "D5",
          "ticks": 49200,
          "time": 51.25,
          "velocity": 0.5039370078740157
        },
        {
          "duration": 0.03125,
          "durationTicks": 30,
          "midi": 70,
          "name": "A#4",
          "ticks": 49200,
          "time": 51.25,
          "velocity": 0.5039370078740157
        },
        {
          "duration": 0.0364583333333357,
          "durationTicks": 35,
          "midi": 65,
          "name": "F4",
          "ticks": 49200,
          "time": 51.25,
          "velocity": 0.5039370078740157
        },
        {
          "duration": 0.06041666666666856,
          "durationTicks": 58,
          "midi": 65,
          "name": "F4",
          "ticks": 49440,
          "time": 51.5,
          "velocity": 0.5039370078740157
        },
        {
          "duration": 0.0520833333333357,
          "durationTicks": 50,
          "midi": 72,
          "name": "C5",
          "ticks": 49440,
          "time": 51.5,
          "velocity": 0.5039370078740157
        },
        {
          "duration": 0.04479166666666856,
          "durationTicks": 43,
          "midi": 69,
          "name": "A4",
          "ticks": 49440,
          "time": 51.5,
          "velocity": 0.5039370078740157
        },
        {
          "duration": 0.0572916666666643,
          "durationTicks": 55,
          "midi": 61,
          "name": "C#4",
          "ticks": 50160,
          "time": 52.25,
          "velocity": 0.5039370078740157
        },
        {
          "duration": 0.05520833333333286,
          "durationTicks": 53,
          "midi": 65,
          "name": "F4",
          "ticks": 50160,
          "time": 52.25,
          "velocity": 0.5039370078740157
        },
        {
          "duration": 0.05520833333333286,
          "durationTicks": 53,
          "midi": 68,
          "name": "G#4",
          "ticks": 50160,
          "time": 52.25,
          "velocity": 0.5039370078740157
        },
        {
          "duration": 0.04479166666666856,
          "durationTicks": 43,
          "midi": 65,
          "name": "F4",
          "ticks": 50400,
          "time": 52.5,
          "velocity": 0.5039370078740157
        },
        {
          "duration": 0.03125,
          "durationTicks": 30,
          "midi": 61,
          "name": "C#4",
          "ticks": 50400,
          "time": 52.5,
          "velocity": 0.5039370078740157
        },
        {
          "duration": 0.03958333333333286,
          "durationTicks": 38,
          "midi": 68,
          "name": "G#4",
          "ticks": 50400,
          "time": 52.5,
          "velocity": 0.5039370078740157
        },
        {
          "duration": 0.0520833333333357,
          "durationTicks": 50,
          "midi": 61,
          "name": "C#4",
          "ticks": 50640,
          "time": 52.75,
          "velocity": 0.5039370078740157
        },
        {
          "duration": 0.04999999999999716,
          "durationTicks": 48,
          "midi": 68,
          "name": "G#4",
          "ticks": 50640,
          "time": 52.75,
          "velocity": 0.5039370078740157
        },
        {
          "duration": 0.04479166666666856,
          "durationTicks": 43,
          "midi": 65,
          "name": "F4",
          "ticks": 50640,
          "time": 52.75,
          "velocity": 0.5039370078740157
        },
        {
          "duration": 0.0416666666666643,
          "durationTicks": 40,
          "midi": 61,
          "name": "C#4",
          "ticks": 50880,
          "time": 53,
          "velocity": 0.5039370078740157
        },
        {
          "duration": 0.0416666666666643,
          "durationTicks": 40,
          "midi": 65,
          "name": "F4",
          "ticks": 50880,
          "time": 53,
          "velocity": 0.5039370078740157
        },
        {
          "duration": 0.0416666666666643,
          "durationTicks": 40,
          "midi": 68,
          "name": "G#4",
          "ticks": 50880,
          "time": 53,
          "velocity": 0.5039370078740157
        },
        {
          "duration": 0.04479166666666856,
          "durationTicks": 43,
          "midi": 70,
          "name": "A#4",
          "ticks": 51000,
          "time": 53.125,
          "velocity": 0.5039370078740157
        },
        {
          "duration": 0.03125,
          "durationTicks": 30,
          "midi": 63,
          "name": "D#4",
          "ticks": 51000,
          "time": 53.125,
          "velocity": 0.5039370078740157
        },
        {
          "duration": 0.03437499999999716,
          "durationTicks": 33,
          "midi": 67,
          "name": "G4",
          "ticks": 51120,
          "time": 53.25,
          "velocity": 0.5039370078740157
        },
        {
          "duration": 0.0520833333333357,
          "durationTicks": 50,
          "midi": 63,
          "name": "D#4",
          "ticks": 51240,
          "time": 53.375,
          "velocity": 0.5039370078740157
        },
        {
          "duration": 0.04999999999999716,
          "durationTicks": 48,
          "midi": 70,
          "name": "A#4",
          "ticks": 51240,
          "time": 53.375,
          "velocity": 0.5039370078740157
        },
        {
          "duration": 0.0416666666666643,
          "durationTicks": 40,
          "midi": 67,
          "name": "G4",
          "ticks": 51240,
          "time": 53.375,
          "velocity": 0.5039370078740157
        },
        {
          "duration": 0.0572916666666643,
          "durationTicks": 55,
          "midi": 63,
          "name": "D#4",
          "ticks": 51480,
          "time": 53.625,
          "velocity": 0.5039370078740157
        },
        {
          "duration": 0.04999999999999716,
          "durationTicks": 48,
          "midi": 70,
          "name": "A#4",
          "ticks": 51480,
          "time": 53.625,
          "velocity": 0.5039370078740157
        },
        {
          "duration": 0.0520833333333357,
          "durationTicks": 50,
          "midi": 67,
          "name": "G4",
          "ticks": 51480,
          "time": 53.625,
          "velocity": 0.5039370078740157
        },
        {
          "duration": 0.0416666666666643,
          "durationTicks": 40,
          "midi": 70,
          "name": "A#4",
          "ticks": 51720,
          "time": 53.875,
          "velocity": 0.5039370078740157
        },
        {
          "duration": 0.020833333333335702,
          "durationTicks": 20,
          "midi": 67,
          "name": "G4",
          "ticks": 51720,
          "time": 53.875,
          "velocity": 0.5039370078740157
        },
        {
          "duration": 0.15625,
          "durationTicks": 150,
          "midi": 63,
          "name": "D#4",
          "ticks": 51720,
          "time": 53.875,
          "velocity": 0.5039370078740157
        },
        {
          "duration": 0.0364583333333357,
          "durationTicks": 35,
          "midi": 70,
          "name": "A#4",
          "ticks": 51840,
          "time": 54,
          "velocity": 0.5039370078740157
        },
        {
          "duration": 0.03437499999999716,
          "durationTicks": 33,
          "midi": 67,
          "name": "G4",
          "ticks": 51840,
          "time": 54,
          "velocity": 0.5039370078740157
        },
        {
          "duration": 0.06041666666666856,
          "durationTicks": 58,
          "midi": 69,
          "name": "A4",
          "ticks": 52080,
          "time": 54.25,
          "velocity": 0.5039370078740157
        },
        {
          "duration": 0.0520833333333357,
          "durationTicks": 50,
          "midi": 65,
          "name": "F4",
          "ticks": 52080,
          "time": 54.25,
          "velocity": 0.5039370078740157
        },
        {
          "duration": 0.04479166666666856,
          "durationTicks": 43,
          "midi": 72,
          "name": "C5",
          "ticks": 52080,
          "time": 54.25,
          "velocity": 0.5039370078740157
        },
        {
          "duration": 0.0625,
          "durationTicks": 60,
          "midi": 65,
          "name": "F4",
          "ticks": 52320,
          "time": 54.5,
          "velocity": 0.5039370078740157
        },
        {
          "duration": 0.0520833333333357,
          "durationTicks": 50,
          "midi": 69,
          "name": "A4",
          "ticks": 52320,
          "time": 54.5,
          "velocity": 0.5039370078740157
        },
        {
          "duration": 0.0520833333333357,
          "durationTicks": 50,
          "midi": 72,
          "name": "C5",
          "ticks": 52320,
          "time": 54.5,
          "velocity": 0.5039370078740157
        },
        {
          "duration": 0.046875,
          "durationTicks": 45,
          "midi": 69,
          "name": "A4",
          "ticks": 52560,
          "time": 54.75,
          "velocity": 0.5039370078740157
        },
        {
          "duration": 0.04999999999999716,
          "durationTicks": 48,
          "midi": 65,
          "name": "F4",
          "ticks": 52560,
          "time": 54.75,
          "velocity": 0.5039370078740157
        },
        {
          "duration": 0.04479166666666856,
          "durationTicks": 43,
          "midi": 72,
          "name": "C5",
          "ticks": 52560,
          "time": 54.75,
          "velocity": 0.5039370078740157
        },
        {
          "duration": 0.0520833333333357,
          "durationTicks": 50,
          "midi": 70,
          "name": "A#4",
          "ticks": 52800,
          "time": 55,
          "velocity": 0.5039370078740157
        },
        {
          "duration": 0.04479166666666856,
          "durationTicks": 43,
          "midi": 63,
          "name": "D#4",
          "ticks": 52800,
          "time": 55,
          "velocity": 0.5039370078740157
        },
        {
          "duration": 0.03437499999999716,
          "durationTicks": 33,
          "midi": 67,
          "name": "G4",
          "ticks": 52800,
          "time": 55,
          "velocity": 0.5039370078740157
        },
        {
          "duration": 0.0625,
          "durationTicks": 60,
          "midi": 72,
          "name": "C5",
          "ticks": 52920,
          "time": 55.125,
          "velocity": 0.5039370078740157
        },
        {
          "duration": 0.0625,
          "durationTicks": 60,
          "midi": 69,
          "name": "A4",
          "ticks": 52920,
          "time": 55.125,
          "velocity": 0.5039370078740157
        },
        {
          "duration": 0.0625,
          "durationTicks": 60,
          "midi": 65,
          "name": "F4",
          "ticks": 52920,
          "time": 55.125,
          "velocity": 0.5039370078740157
        },
        {
          "duration": 0.0625,
          "durationTicks": 60,
          "midi": 72,
          "name": "C5",
          "ticks": 53160,
          "time": 55.375,
          "velocity": 0.5039370078740157
        },
        {
          "duration": 0.0625,
          "durationTicks": 60,
          "midi": 69,
          "name": "A4",
          "ticks": 53160,
          "time": 55.375,
          "velocity": 0.5039370078740157
        },
        {
          "duration": 0.0625,
          "durationTicks": 60,
          "midi": 65,
          "name": "F4",
          "ticks": 53160,
          "time": 55.375,
          "velocity": 0.5039370078740157
        },
        {
          "duration": 0.05520833333333286,
          "durationTicks": 53,
          "midi": 65,
          "name": "F4",
          "ticks": 54000,
          "time": 56.25,
          "velocity": 0.5039370078740157
        },
        {
          "duration": 0.04999999999999716,
          "durationTicks": 48,
          "midi": 69,
          "name": "A4",
          "ticks": 54000,
          "time": 56.25,
          "velocity": 0.5039370078740157
        },
        {
          "duration": 0.04999999999999716,
          "durationTicks": 48,
          "midi": 72,
          "name": "C5",
          "ticks": 54000,
          "time": 56.25,
          "velocity": 0.5039370078740157
        },
        {
          "duration": 0.0572916666666643,
          "durationTicks": 55,
          "midi": 72,
          "name": "C5",
          "ticks": 54240,
          "time": 56.5,
          "velocity": 0.5039370078740157
        },
        {
          "duration": 0.0572916666666643,
          "durationTicks": 55,
          "midi": 65,
          "name": "F4",
          "ticks": 54240,
          "time": 56.5,
          "velocity": 0.5039370078740157
        },
        {
          "duration": 0.0364583333333357,
          "durationTicks": 35,
          "midi": 69,
          "name": "A4",
          "ticks": 54240,
          "time": 56.5,
          "velocity": 0.5039370078740157
        },
        {
          "duration": 0.03437499999999716,
          "durationTicks": 33,
          "midi": 72,
          "name": "C5",
          "ticks": 54480,
          "time": 56.75,
          "velocity": 0.5039370078740157
        },
        {
          "duration": 0.026041666666664298,
          "durationTicks": 25,
          "midi": 65,
          "name": "F4",
          "ticks": 54480,
          "time": 56.75,
          "velocity": 0.5039370078740157
        },
        {
          "duration": 0.018749999999997158,
          "durationTicks": 18,
          "midi": 69,
          "name": "A4",
          "ticks": 54480,
          "time": 56.75,
          "velocity": 0.5039370078740157
        },
        {
          "duration": 0.0572916666666643,
          "durationTicks": 55,
          "midi": 70,
          "name": "A#4",
          "ticks": 54600,
          "time": 56.875,
          "velocity": 0.5039370078740157
        },
        {
          "duration": 0.03958333333333286,
          "durationTicks": 38,
          "midi": 67,
          "name": "G4",
          "ticks": 54600,
          "time": 56.875,
          "velocity": 0.5039370078740157
        },
        {
          "duration": 0.04479166666666856,
          "durationTicks": 43,
          "midi": 75,
          "name": "D#5",
          "ticks": 54600,
          "time": 56.875,
          "velocity": 0.5039370078740157
        },
        {
          "duration": 0.06562499999999716,
          "durationTicks": 63,
          "midi": 75,
          "name": "D#5",
          "ticks": 54840,
          "time": 57.125,
          "velocity": 0.5039370078740157
        },
        {
          "duration": 0.05520833333333286,
          "durationTicks": 53,
          "midi": 67,
          "name": "G4",
          "ticks": 54840,
          "time": 57.125,
          "velocity": 0.5039370078740157
        },
        {
          "duration": 0.04479166666666856,
          "durationTicks": 43,
          "midi": 70,
          "name": "A#4",
          "ticks": 54840,
          "time": 57.125,
          "velocity": 0.5039370078740157
        },
        {
          "duration": 0.03958333333333286,
          "durationTicks": 38,
          "midi": 75,
          "name": "D#5",
          "ticks": 55080,
          "time": 57.375,
          "velocity": 0.5039370078740157
        },
        {
          "duration": 0.03958333333333286,
          "durationTicks": 38,
          "midi": 67,
          "name": "G4",
          "ticks": 55080,
          "time": 57.375,
          "velocity": 0.5039370078740157
        },
        {
          "duration": 0.02395833333333286,
          "durationTicks": 23,
          "midi": 70,
          "name": "A#4",
          "ticks": 55080,
          "time": 57.375,
          "velocity": 0.5039370078740157
        },
        {
          "duration": 0.0416666666666643,
          "durationTicks": 40,
          "midi": 70,
          "name": "A#4",
          "ticks": 55200,
          "time": 57.5,
          "velocity": 0.5039370078740157
        },
        {
          "duration": 0.0416666666666643,
          "durationTicks": 40,
          "midi": 74,
          "name": "D5",
          "ticks": 55200,
          "time": 57.5,
          "velocity": 0.5039370078740157
        },
        {
          "duration": 0.0364583333333357,
          "durationTicks": 35,
          "midi": 65,
          "name": "F4",
          "ticks": 55200,
          "time": 57.5,
          "velocity": 0.5039370078740157
        },
        {
          "duration": 0.0572916666666643,
          "durationTicks": 55,
          "midi": 65,
          "name": "F4",
          "ticks": 55440,
          "time": 57.75,
          "velocity": 0.5039370078740157
        },
        {
          "duration": 0.04999999999999716,
          "durationTicks": 48,
          "midi": 74,
          "name": "D5",
          "ticks": 55440,
          "time": 57.75,
          "velocity": 0.5039370078740157
        },
        {
          "duration": 0.046875,
          "durationTicks": 45,
          "midi": 70,
          "name": "A#4",
          "ticks": 55440,
          "time": 57.75,
          "velocity": 0.5039370078740157
        },
        {
          "duration": 0.05520833333333286,
          "durationTicks": 53,
          "midi": 65,
          "name": "F4",
          "ticks": 55920,
          "time": 58.25,
          "velocity": 0.5039370078740157
        },
        {
          "duration": 0.04479166666666856,
          "durationTicks": 43,
          "midi": 69,
          "name": "A4",
          "ticks": 55920,
          "time": 58.25,
          "velocity": 0.5039370078740157
        },
        {
          "duration": 0.046875,
          "durationTicks": 45,
          "midi": 72,
          "name": "C5",
          "ticks": 55920,
          "time": 58.25,
          "velocity": 0.5039370078740157
        },
        {
          "duration": 0.04999999999999716,
          "durationTicks": 48,
          "midi": 65,
          "name": "F4",
          "ticks": 56160,
          "time": 58.5,
          "velocity": 0.5039370078740157
        },
        {
          "duration": 0.0364583333333357,
          "durationTicks": 35,
          "midi": 69,
          "name": "A4",
          "ticks": 56160,
          "time": 58.5,
          "velocity": 0.5039370078740157
        },
        {
          "duration": 0.04479166666666856,
          "durationTicks": 43,
          "midi": 72,
          "name": "C5",
          "ticks": 56160,
          "time": 58.5,
          "velocity": 0.5039370078740157
        },
        {
          "duration": 0.03958333333333286,
          "durationTicks": 38,
          "midi": 72,
          "name": "C5",
          "ticks": 56400,
          "time": 58.75,
          "velocity": 0.5039370078740157
        },
        {
          "duration": 0.0416666666666643,
          "durationTicks": 40,
          "midi": 65,
          "name": "F4",
          "ticks": 56400,
          "time": 58.75,
          "velocity": 0.5039370078740157
        },
        {
          "duration": 0.026041666666664298,
          "durationTicks": 25,
          "midi": 69,
          "name": "A4",
          "ticks": 56400,
          "time": 58.75,
          "velocity": 0.5039370078740157
        },
        {
          "duration": 0.0520833333333357,
          "durationTicks": 50,
          "midi": 75,
          "name": "D#5",
          "ticks": 56520,
          "time": 58.875,
          "velocity": 0.5039370078740157
        },
        {
          "duration": 0.0416666666666643,
          "durationTicks": 40,
          "midi": 67,
          "name": "G4",
          "ticks": 56520,
          "time": 58.875,
          "velocity": 0.5039370078740157
        },
        {
          "duration": 0.0364583333333357,
          "durationTicks": 35,
          "midi": 70,
          "name": "A#4",
          "ticks": 56520,
          "time": 58.875,
          "velocity": 0.5039370078740157
        },
        {
          "duration": 0.046875,
          "durationTicks": 45,
          "midi": 75,
          "name": "D#5",
          "ticks": 56760,
          "time": 59.125,
          "velocity": 0.5039370078740157
        },
        {
          "duration": 0.03437499999999716,
          "durationTicks": 33,
          "midi": 70,
          "name": "A#4",
          "ticks": 56760,
          "time": 59.125,
          "velocity": 0.5039370078740157
        },
        {
          "duration": 0.03958333333333286,
          "durationTicks": 38,
          "midi": 67,
          "name": "G4",
          "ticks": 56760,
          "time": 59.125,
          "velocity": 0.5039370078740157
        },
        {
          "duration": 0.04999999999999716,
          "durationTicks": 48,
          "midi": 70,
          "name": "A#4",
          "ticks": 56880,
          "time": 59.25,
          "velocity": 0.5039370078740157
        },
        {
          "duration": 0.046875,
          "durationTicks": 45,
          "midi": 74,
          "name": "D5",
          "ticks": 56880,
          "time": 59.25,
          "velocity": 0.5039370078740157
        },
        {
          "duration": 0.046875,
          "durationTicks": 45,
          "midi": 65,
          "name": "F4",
          "ticks": 56880,
          "time": 59.25,
          "velocity": 0.5039370078740157
        },
        {
          "duration": 0.06041666666666856,
          "durationTicks": 58,
          "midi": 65,
          "name": "F4",
          "ticks": 57120,
          "time": 59.5,
          "velocity": 0.5039370078740157
        },
        {
          "duration": 0.0520833333333357,
          "durationTicks": 50,
          "midi": 69,
          "name": "A4",
          "ticks": 57120,
          "time": 59.5,
          "velocity": 0.5039370078740157
        },
        {
          "duration": 0.04999999999999716,
          "durationTicks": 48,
          "midi": 72,
          "name": "C5",
          "ticks": 57120,
          "time": 59.5,
          "velocity": 0.5039370078740157
        },
        {
          "duration": 0.05520833333333286,
          "durationTicks": 53,
          "midi": 61,
          "name": "C#4",
          "ticks": 57840,
          "time": 60.25,
          "velocity": 0.5039370078740157
        },
        {
          "duration": 0.05520833333333286,
          "durationTicks": 53,
          "midi": 68,
          "name": "G#4",
          "ticks": 57840,
          "time": 60.25,
          "velocity": 0.5039370078740157
        },
        {
          "duration": 0.04479166666666856,
          "durationTicks": 43,
          "midi": 65,
          "name": "F4",
          "ticks": 57840,
          "time": 60.25,
          "velocity": 0.5039370078740157
        },
        {
          "duration": 0.05520833333333286,
          "durationTicks": 53,
          "midi": 68,
          "name": "G#4",
          "ticks": 58080,
          "time": 60.5,
          "velocity": 0.5039370078740157
        },
        {
          "duration": 0.04479166666666856,
          "durationTicks": 43,
          "midi": 61,
          "name": "C#4",
          "ticks": 58080,
          "time": 60.5,
          "velocity": 0.5039370078740157
        },
        {
          "duration": 0.04479166666666856,
          "durationTicks": 43,
          "midi": 65,
          "name": "F4",
          "ticks": 58080,
          "time": 60.5,
          "velocity": 0.5039370078740157
        },
        {
          "duration": 0.04999999999999716,
          "durationTicks": 48,
          "midi": 68,
          "name": "G#4",
          "ticks": 58320,
          "time": 60.75,
          "velocity": 0.5039370078740157
        },
        {
          "duration": 0.0364583333333357,
          "durationTicks": 35,
          "midi": 61,
          "name": "C#4",
          "ticks": 58320,
          "time": 60.75,
          "velocity": 0.5039370078740157
        },
        {
          "duration": 0.0364583333333357,
          "durationTicks": 35,
          "midi": 65,
          "name": "F4",
          "ticks": 58320,
          "time": 60.75,
          "velocity": 0.5039370078740157
        },
        {
          "duration": 0.04999999999999716,
          "durationTicks": 48,
          "midi": 68,
          "name": "G#4",
          "ticks": 58560,
          "time": 61,
          "velocity": 0.5039370078740157
        },
        {
          "duration": 0.0416666666666643,
          "durationTicks": 40,
          "midi": 65,
          "name": "F4",
          "ticks": 58560,
          "time": 61,
          "velocity": 0.5039370078740157
        },
        {
          "duration": 0.0416666666666643,
          "durationTicks": 40,
          "midi": 61,
          "name": "C#4",
          "ticks": 58560,
          "time": 61,
          "velocity": 0.5039370078740157
        },
        {
          "duration": 0.0520833333333357,
          "durationTicks": 50,
          "midi": 70,
          "name": "A#4",
          "ticks": 58680,
          "time": 61.125,
          "velocity": 0.5039370078740157
        },
        {
          "duration": 0.0364583333333357,
          "durationTicks": 35,
          "midi": 67,
          "name": "G4",
          "ticks": 58680,
          "time": 61.125,
          "velocity": 0.5039370078740157
        },
        {
          "duration": 0.02916666666666856,
          "durationTicks": 28,
          "midi": 63,
          "name": "D#4",
          "ticks": 58680,
          "time": 61.125,
          "velocity": 0.5039370078740157
        },
        {
          "duration": 0.046875,
          "durationTicks": 45,
          "midi": 70,
          "name": "A#4",
          "ticks": 58920,
          "time": 61.375,
          "velocity": 0.5039370078740157
        },
        {
          "duration": 0.0416666666666643,
          "durationTicks": 40,
          "midi": 63,
          "name": "D#4",
          "ticks": 58920,
          "time": 61.375,
          "velocity": 0.5039370078740157
        },
        {
          "duration": 0.0364583333333357,
          "durationTicks": 35,
          "midi": 67,
          "name": "G4",
          "ticks": 58920,
          "time": 61.375,
          "velocity": 0.5039370078740157
        },
        {
          "duration": 0.04999999999999716,
          "durationTicks": 48,
          "midi": 70,
          "name": "A#4",
          "ticks": 59160,
          "time": 61.625,
          "velocity": 0.5039370078740157
        },
        {
          "duration": 0.03958333333333286,
          "durationTicks": 38,
          "midi": 67,
          "name": "G4",
          "ticks": 59160,
          "time": 61.625,
          "velocity": 0.5039370078740157
        },
        {
          "duration": 0.03125,
          "durationTicks": 30,
          "midi": 63,
          "name": "D#4",
          "ticks": 59160,
          "time": 61.625,
          "velocity": 0.5039370078740157
        },
        {
          "duration": 0.02916666666666856,
          "durationTicks": 28,
          "midi": 70,
          "name": "A#4",
          "ticks": 59400,
          "time": 61.875,
          "velocity": 0.5039370078740157
        },
        {
          "duration": 0.020833333333335702,
          "durationTicks": 20,
          "midi": 67,
          "name": "G4",
          "ticks": 59400,
          "time": 61.875,
          "velocity": 0.5039370078740157
        },
        {
          "duration": 0.015625,
          "durationTicks": 15,
          "midi": 63,
          "name": "D#4",
          "ticks": 59400,
          "time": 61.875,
          "velocity": 0.5039370078740157
        },
        {
          "duration": 0.018749999999997158,
          "durationTicks": 18,
          "midi": 63,
          "name": "D#4",
          "ticks": 59520,
          "time": 62,
          "velocity": 0.5039370078740157
        },
        {
          "duration": 0.013541666666668561,
          "durationTicks": 13,
          "midi": 70,
          "name": "A#4",
          "ticks": 59520,
          "time": 62,
          "velocity": 0.5039370078740157
        },
        {
          "duration": 0.010416666666664298,
          "durationTicks": 10,
          "midi": 67,
          "name": "G4",
          "ticks": 59520,
          "time": 62,
          "velocity": 0.5039370078740157
        },
        {
          "duration": 0.0416666666666643,
          "durationTicks": 40,
          "midi": 65,
          "name": "F4",
          "ticks": 59760,
          "time": 62.25,
          "velocity": 0.5039370078740157
        },
        {
          "duration": 0.04479166666666856,
          "durationTicks": 43,
          "midi": 69,
          "name": "A4",
          "ticks": 59760,
          "time": 62.25,
          "velocity": 0.5039370078740157
        },
        {
          "duration": 0.0416666666666643,
          "durationTicks": 40,
          "midi": 72,
          "name": "C5",
          "ticks": 59760,
          "time": 62.25,
          "velocity": 0.5039370078740157
        },
        {
          "duration": 0.0416666666666643,
          "durationTicks": 40,
          "midi": 69,
          "name": "A4",
          "ticks": 60000,
          "time": 62.5,
          "velocity": 0.5039370078740157
        },
        {
          "duration": 0.04479166666666856,
          "durationTicks": 43,
          "midi": 65,
          "name": "F4",
          "ticks": 60000,
          "time": 62.5,
          "velocity": 0.5039370078740157
        },
        {
          "duration": 0.03958333333333286,
          "durationTicks": 38,
          "midi": 72,
          "name": "C5",
          "ticks": 60000,
          "time": 62.5,
          "velocity": 0.5039370078740157
        },
        {
          "duration": 0.03958333333333286,
          "durationTicks": 38,
          "midi": 65,
          "name": "F4",
          "ticks": 60240,
          "time": 62.75,
          "velocity": 0.5039370078740157
        },
        {
          "duration": 0.03958333333333286,
          "durationTicks": 38,
          "midi": 69,
          "name": "A4",
          "ticks": 60240,
          "time": 62.75,
          "velocity": 0.5039370078740157
        },
        {
          "duration": 0.03958333333333286,
          "durationTicks": 38,
          "midi": 72,
          "name": "C5",
          "ticks": 60240,
          "time": 62.75,
          "velocity": 0.5039370078740157
        },
        {
          "duration": 0.05520833333333286,
          "durationTicks": 53,
          "midi": 70,
          "name": "A#4",
          "ticks": 60480,
          "time": 63,
          "velocity": 0.5039370078740157
        },
        {
          "duration": 0.0416666666666643,
          "durationTicks": 40,
          "midi": 63,
          "name": "D#4",
          "ticks": 60480,
          "time": 63,
          "velocity": 0.5039370078740157
        },
        {
          "duration": 0.02916666666666856,
          "durationTicks": 28,
          "midi": 67,
          "name": "G4",
          "ticks": 60480,
          "time": 63,
          "velocity": 0.5039370078740157
        },
        {
          "duration": 0.04999999999999716,
          "durationTicks": 48,
          "midi": 69,
          "name": "A4",
          "ticks": 60600,
          "time": 63.125,
          "velocity": 0.5039370078740157
        },
        {
          "duration": 0.0416666666666643,
          "durationTicks": 40,
          "midi": 65,
          "name": "F4",
          "ticks": 60600,
          "time": 63.125,
          "velocity": 0.5039370078740157
        },
        {
          "duration": 0.04479166666666856,
          "durationTicks": 43,
          "midi": 72,
          "name": "C5",
          "ticks": 60600,
          "time": 63.125,
          "velocity": 0.5039370078740157
        },
        {
          "duration": 0.046875,
          "durationTicks": 45,
          "midi": 72,
          "name": "C5",
          "ticks": 60840,
          "time": 63.375,
          "velocity": 0.5039370078740157
        },
        {
          "duration": 0.046875,
          "durationTicks": 45,
          "midi": 65,
          "name": "F4",
          "ticks": 60840,
          "time": 63.375,
          "velocity": 0.5039370078740157
        },
        {
          "duration": 0.03958333333333286,
          "durationTicks": 38,
          "midi": 69,
          "name": "A4",
          "ticks": 60840,
          "time": 63.375,
          "velocity": 0.5039370078740157
        },
        {
          "duration": 0.04479166666666856,
          "durationTicks": 43,
          "midi": 72,
          "name": "C5",
          "ticks": 61200,
          "time": 63.75,
          "velocity": 0.5039370078740157
        },
        {
          "duration": 0.03437499999999716,
          "durationTicks": 33,
          "midi": 65,
          "name": "F4",
          "ticks": 61200,
          "time": 63.75,
          "velocity": 0.5039370078740157
        },
        {
          "duration": 0.03437499999999716,
          "durationTicks": 33,
          "midi": 69,
          "name": "A4",
          "ticks": 61200,
          "time": 63.75,
          "velocity": 0.5039370078740157
        },
        {
          "duration": 0.06562500000001137,
          "durationTicks": 63,
          "midi": 65,
          "name": "F4",
          "ticks": 132720,
          "time": 138.25,
          "velocity": 0.5039370078740157
        },
        {
          "duration": 0.046875,
          "durationTicks": 45,
          "midi": 69,
          "name": "A4",
          "ticks": 132720,
          "time": 138.25,
          "velocity": 0.5039370078740157
        },
        {
          "duration": 0.05208333333334281,
          "durationTicks": 50,
          "midi": 72,
          "name": "C5",
          "ticks": 132720,
          "time": 138.25,
          "velocity": 0.5039370078740157
        },
        {
          "duration": 0.06041666666666856,
          "durationTicks": 58,
          "midi": 65,
          "name": "F4",
          "ticks": 132960,
          "time": 138.5,
          "velocity": 0.5039370078740157
        },
        {
          "duration": 0.06041666666666856,
          "durationTicks": 58,
          "midi": 72,
          "name": "C5",
          "ticks": 132960,
          "time": 138.5,
          "velocity": 0.5039370078740157
        },
        {
          "duration": 0.039583333333325754,
          "durationTicks": 38,
          "midi": 69,
          "name": "A4",
          "ticks": 132960,
          "time": 138.5,
          "velocity": 0.5039370078740157
        },
        {
          "duration": 0.05000000000001137,
          "durationTicks": 48,
          "midi": 72,
          "name": "C5",
          "ticks": 133200,
          "time": 138.75,
          "velocity": 0.5039370078740157
        },
        {
          "duration": 0.04479166666666856,
          "durationTicks": 43,
          "midi": 65,
          "name": "F4",
          "ticks": 133200,
          "time": 138.75,
          "velocity": 0.5039370078740157
        },
        {
          "duration": 0.023958333333325754,
          "durationTicks": 23,
          "midi": 69,
          "name": "A4",
          "ticks": 133200,
          "time": 138.75,
          "velocity": 0.5039370078740157
        },
        {
          "duration": 0.05000000000001137,
          "durationTicks": 48,
          "midi": 75,
          "name": "D#5",
          "ticks": 133320,
          "time": 138.875,
          "velocity": 0.5039370078740157
        },
        {
          "duration": 0.04166666666665719,
          "durationTicks": 40,
          "midi": 67,
          "name": "G4",
          "ticks": 133320,
          "time": 138.875,
          "velocity": 0.5039370078740157
        },
        {
          "duration": 0.04166666666665719,
          "durationTicks": 40,
          "midi": 70,
          "name": "A#4",
          "ticks": 133320,
          "time": 138.875,
          "velocity": 0.5039370078740157
        },
        {
          "duration": 0.0625,
          "durationTicks": 60,
          "midi": 75,
          "name": "D#5",
          "ticks": 133560,
          "time": 139.125,
          "velocity": 0.5039370078740157
        },
        {
          "duration": 0.0625,
          "durationTicks": 60,
          "midi": 67,
          "name": "G4",
          "ticks": 133560,
          "time": 139.125,
          "velocity": 0.5039370078740157
        },
        {
          "duration": 0.046875,
          "durationTicks": 45,
          "midi": 70,
          "name": "A#4",
          "ticks": 133560,
          "time": 139.125,
          "velocity": 0.5039370078740157
        },
        {
          "duration": 0.03645833333334281,
          "durationTicks": 35,
          "midi": 75,
          "name": "D#5",
          "ticks": 133800,
          "time": 139.375,
          "velocity": 0.5039370078740157
        },
        {
          "duration": 0.03645833333334281,
          "durationTicks": 35,
          "midi": 67,
          "name": "G4",
          "ticks": 133800,
          "time": 139.375,
          "velocity": 0.5039370078740157
        },
        {
          "duration": 0.023958333333325754,
          "durationTicks": 23,
          "midi": 70,
          "name": "A#4",
          "ticks": 133800,
          "time": 139.375,
          "velocity": 0.5039370078740157
        },
        {
          "duration": 0.04479166666666856,
          "durationTicks": 43,
          "midi": 70,
          "name": "A#4",
          "ticks": 133920,
          "time": 139.5,
          "velocity": 0.5039370078740157
        },
        {
          "duration": 0.04479166666666856,
          "durationTicks": 43,
          "midi": 74,
          "name": "D5",
          "ticks": 133920,
          "time": 139.5,
          "velocity": 0.5039370078740157
        },
        {
          "duration": 0.04479166666666856,
          "durationTicks": 43,
          "midi": 65,
          "name": "F4",
          "ticks": 133920,
          "time": 139.5,
          "velocity": 0.5039370078740157
        },
        {
          "duration": 0.06041666666666856,
          "durationTicks": 58,
          "midi": 74,
          "name": "D5",
          "ticks": 134160,
          "time": 139.75,
          "velocity": 0.5039370078740157
        },
        {
          "duration": 0.06041666666666856,
          "durationTicks": 58,
          "midi": 65,
          "name": "F4",
          "ticks": 134160,
          "time": 139.75,
          "velocity": 0.5039370078740157
        },
        {
          "duration": 0.05208333333334281,
          "durationTicks": 50,
          "midi": 70,
          "name": "A#4",
          "ticks": 134160,
          "time": 139.75,
          "velocity": 0.5039370078740157
        },
        {
          "duration": 0.06562500000001137,
          "durationTicks": 63,
          "midi": 65,
          "name": "F4",
          "ticks": 134640,
          "time": 140.25,
          "velocity": 0.5039370078740157
        },
        {
          "duration": 0.05208333333334281,
          "durationTicks": 50,
          "midi": 69,
          "name": "A4",
          "ticks": 134640,
          "time": 140.25,
          "velocity": 0.5039370078740157
        },
        {
          "duration": 0.05208333333334281,
          "durationTicks": 50,
          "midi": 72,
          "name": "C5",
          "ticks": 134640,
          "time": 140.25,
          "velocity": 0.5039370078740157
        },
        {
          "duration": 0.06562500000001137,
          "durationTicks": 63,
          "midi": 65,
          "name": "F4",
          "ticks": 134880,
          "time": 140.5,
          "velocity": 0.5039370078740157
        },
        {
          "duration": 0.055208333333325754,
          "durationTicks": 53,
          "midi": 72,
          "name": "C5",
          "ticks": 134880,
          "time": 140.5,
          "velocity": 0.5039370078740157
        },
        {
          "duration": 0.046875,
          "durationTicks": 45,
          "midi": 69,
          "name": "A4",
          "ticks": 134880,
          "time": 140.5,
          "velocity": 0.5039370078740157
        },
        {
          "duration": 0.01875000000001137,
          "durationTicks": 18,
          "midi": 72,
          "name": "C5",
          "ticks": 135120,
          "time": 140.75,
          "velocity": 0.5039370078740157
        },
        {
          "duration": 0.020833333333342807,
          "durationTicks": 20,
          "midi": 65,
          "name": "F4",
          "ticks": 135120,
          "time": 140.75,
          "velocity": 0.5039370078740157
        },
        {
          "duration": 0.05000000000001137,
          "durationTicks": 48,
          "midi": 67,
          "name": "G4",
          "ticks": 135240,
          "time": 140.875,
          "velocity": 0.5039370078740157
        },
        {
          "duration": 0.04479166666666856,
          "durationTicks": 43,
          "midi": 75,
          "name": "D#5",
          "ticks": 135240,
          "time": 140.875,
          "velocity": 0.5039370078740157
        },
        {
          "duration": 0.039583333333325754,
          "durationTicks": 38,
          "midi": 70,
          "name": "A#4",
          "ticks": 135240,
          "time": 140.875,
          "velocity": 0.5039370078740157
        },
        {
          "duration": 0.04479166666666856,
          "durationTicks": 43,
          "midi": 67,
          "name": "G4",
          "ticks": 135480,
          "time": 141.125,
          "velocity": 0.5039370078740157
        },
        {
          "duration": 0.046875,
          "durationTicks": 45,
          "midi": 75,
          "name": "D#5",
          "ticks": 135480,
          "time": 141.125,
          "velocity": 0.5039370078740157
        },
        {
          "duration": 0.03645833333334281,
          "durationTicks": 35,
          "midi": 70,
          "name": "A#4",
          "ticks": 135480,
          "time": 141.125,
          "velocity": 0.5039370078740157
        },
        {
          "duration": 0.039583333333325754,
          "durationTicks": 38,
          "midi": 74,
          "name": "D5",
          "ticks": 135600,
          "time": 141.25,
          "velocity": 0.5039370078740157
        },
        {
          "duration": 0.03125,
          "durationTicks": 30,
          "midi": 70,
          "name": "A#4",
          "ticks": 135600,
          "time": 141.25,
          "velocity": 0.5039370078740157
        },
        {
          "duration": 0.03645833333334281,
          "durationTicks": 35,
          "midi": 65,
          "name": "F4",
          "ticks": 135600,
          "time": 141.25,
          "velocity": 0.5039370078740157
        },
        {
          "duration": 0.06041666666666856,
          "durationTicks": 58,
          "midi": 65,
          "name": "F4",
          "ticks": 135840,
          "time": 141.5,
          "velocity": 0.5039370078740157
        },
        {
          "duration": 0.05208333333334281,
          "durationTicks": 50,
          "midi": 72,
          "name": "C5",
          "ticks": 135840,
          "time": 141.5,
          "velocity": 0.5039370078740157
        },
        {
          "duration": 0.04479166666666856,
          "durationTicks": 43,
          "midi": 69,
          "name": "A4",
          "ticks": 135840,
          "time": 141.5,
          "velocity": 0.5039370078740157
        },
        {
          "duration": 0.05729166666665719,
          "durationTicks": 55,
          "midi": 61,
          "name": "C#4",
          "ticks": 136560,
          "time": 142.25,
          "velocity": 0.5039370078740157
        },
        {
          "duration": 0.055208333333325754,
          "durationTicks": 53,
          "midi": 65,
          "name": "F4",
          "ticks": 136560,
          "time": 142.25,
          "velocity": 0.5039370078740157
        },
        {
          "duration": 0.055208333333325754,
          "durationTicks": 53,
          "midi": 68,
          "name": "G#4",
          "ticks": 136560,
          "time": 142.25,
          "velocity": 0.5039370078740157
        },
        {
          "duration": 0.04479166666666856,
          "durationTicks": 43,
          "midi": 65,
          "name": "F4",
          "ticks": 136800,
          "time": 142.5,
          "velocity": 0.5039370078740157
        },
        {
          "duration": 0.03125,
          "durationTicks": 30,
          "midi": 61,
          "name": "C#4",
          "ticks": 136800,
          "time": 142.5,
          "velocity": 0.5039370078740157
        },
        {
          "duration": 0.039583333333325754,
          "durationTicks": 38,
          "midi": 68,
          "name": "G#4",
          "ticks": 136800,
          "time": 142.5,
          "velocity": 0.5039370078740157
        },
        {
          "duration": 0.05208333333334281,
          "durationTicks": 50,
          "midi": 61,
          "name": "C#4",
          "ticks": 137040,
          "time": 142.75,
          "velocity": 0.5039370078740157
        },
        {
          "duration": 0.05000000000001137,
          "durationTicks": 48,
          "midi": 68,
          "name": "G#4",
          "ticks": 137040,
          "time": 142.75,
          "velocity": 0.5039370078740157
        },
        {
          "duration": 0.04479166666666856,
          "durationTicks": 43,
          "midi": 65,
          "name": "F4",
          "ticks": 137040,
          "time": 142.75,
          "velocity": 0.5039370078740157
        },
        {
          "duration": 0.04166666666665719,
          "durationTicks": 40,
          "midi": 61,
          "name": "C#4",
          "ticks": 137280,
          "time": 143,
          "velocity": 0.5039370078740157
        },
        {
          "duration": 0.04166666666665719,
          "durationTicks": 40,
          "midi": 65,
          "name": "F4",
          "ticks": 137280,
          "time": 143,
          "velocity": 0.5039370078740157
        },
        {
          "duration": 0.04166666666665719,
          "durationTicks": 40,
          "midi": 68,
          "name": "G#4",
          "ticks": 137280,
          "time": 143,
          "velocity": 0.5039370078740157
        },
        {
          "duration": 0.04479166666666856,
          "durationTicks": 43,
          "midi": 70,
          "name": "A#4",
          "ticks": 137400,
          "time": 143.125,
          "velocity": 0.5039370078740157
        },
        {
          "duration": 0.03125,
          "durationTicks": 30,
          "midi": 63,
          "name": "D#4",
          "ticks": 137400,
          "time": 143.125,
          "velocity": 0.5039370078740157
        },
        {
          "duration": 0.03437500000001137,
          "durationTicks": 33,
          "midi": 67,
          "name": "G4",
          "ticks": 137520,
          "time": 143.25,
          "velocity": 0.5039370078740157
        },
        {
          "duration": 0.05208333333334281,
          "durationTicks": 50,
          "midi": 63,
          "name": "D#4",
          "ticks": 137640,
          "time": 143.375,
          "velocity": 0.5039370078740157
        },
        {
          "duration": 0.05000000000001137,
          "durationTicks": 48,
          "midi": 70,
          "name": "A#4",
          "ticks": 137640,
          "time": 143.375,
          "velocity": 0.5039370078740157
        },
        {
          "duration": 0.04166666666665719,
          "durationTicks": 40,
          "midi": 67,
          "name": "G4",
          "ticks": 137640,
          "time": 143.375,
          "velocity": 0.5039370078740157
        },
        {
          "duration": 0.05729166666665719,
          "durationTicks": 55,
          "midi": 63,
          "name": "D#4",
          "ticks": 137880,
          "time": 143.625,
          "velocity": 0.5039370078740157
        },
        {
          "duration": 0.05000000000001137,
          "durationTicks": 48,
          "midi": 70,
          "name": "A#4",
          "ticks": 137880,
          "time": 143.625,
          "velocity": 0.5039370078740157
        },
        {
          "duration": 0.05208333333334281,
          "durationTicks": 50,
          "midi": 67,
          "name": "G4",
          "ticks": 137880,
          "time": 143.625,
          "velocity": 0.5039370078740157
        },
        {
          "duration": 0.04166666666665719,
          "durationTicks": 40,
          "midi": 70,
          "name": "A#4",
          "ticks": 138120,
          "time": 143.875,
          "velocity": 0.5039370078740157
        },
        {
          "duration": 0.020833333333342807,
          "durationTicks": 20,
          "midi": 67,
          "name": "G4",
          "ticks": 138120,
          "time": 143.875,
          "velocity": 0.5039370078740157
        },
        {
          "duration": 0.15625,
          "durationTicks": 150,
          "midi": 63,
          "name": "D#4",
          "ticks": 138120,
          "time": 143.875,
          "velocity": 0.5039370078740157
        },
        {
          "duration": 0.03645833333334281,
          "durationTicks": 35,
          "midi": 70,
          "name": "A#4",
          "ticks": 138240,
          "time": 144,
          "velocity": 0.5039370078740157
        },
        {
          "duration": 0.03437500000001137,
          "durationTicks": 33,
          "midi": 67,
          "name": "G4",
          "ticks": 138240,
          "time": 144,
          "velocity": 0.5039370078740157
        },
        {
          "duration": 0.06041666666666856,
          "durationTicks": 58,
          "midi": 69,
          "name": "A4",
          "ticks": 138480,
          "time": 144.25,
          "velocity": 0.5039370078740157
        },
        {
          "duration": 0.05208333333334281,
          "durationTicks": 50,
          "midi": 65,
          "name": "F4",
          "ticks": 138480,
          "time": 144.25,
          "velocity": 0.5039370078740157
        },
        {
          "duration": 0.04479166666666856,
          "durationTicks": 43,
          "midi": 72,
          "name": "C5",
          "ticks": 138480,
          "time": 144.25,
          "velocity": 0.5039370078740157
        },
        {
          "duration": 0.0625,
          "durationTicks": 60,
          "midi": 65,
          "name": "F4",
          "ticks": 138720,
          "time": 144.5,
          "velocity": 0.5039370078740157
        },
        {
          "duration": 0.05208333333334281,
          "durationTicks": 50,
          "midi": 69,
          "name": "A4",
          "ticks": 138720,
          "time": 144.5,
          "velocity": 0.5039370078740157
        },
        {
          "duration": 0.05208333333334281,
          "durationTicks": 50,
          "midi": 72,
          "name": "C5",
          "ticks": 138720,
          "time": 144.5,
          "velocity": 0.5039370078740157
        },
        {
          "duration": 0.046875,
          "durationTicks": 45,
          "midi": 69,
          "name": "A4",
          "ticks": 138960,
          "time": 144.75,
          "velocity": 0.5039370078740157
        },
        {
          "duration": 0.05000000000001137,
          "durationTicks": 48,
          "midi": 65,
          "name": "F4",
          "ticks": 138960,
          "time": 144.75,
          "velocity": 0.5039370078740157
        },
        {
          "duration": 0.04479166666666856,
          "durationTicks": 43,
          "midi": 72,
          "name": "C5",
          "ticks": 138960,
          "time": 144.75,
          "velocity": 0.5039370078740157
        },
        {
          "duration": 0.05208333333334281,
          "durationTicks": 50,
          "midi": 70,
          "name": "A#4",
          "ticks": 139200,
          "time": 145,
          "velocity": 0.5039370078740157
        },
        {
          "duration": 0.04479166666666856,
          "durationTicks": 43,
          "midi": 63,
          "name": "D#4",
          "ticks": 139200,
          "time": 145,
          "velocity": 0.5039370078740157
        },
        {
          "duration": 0.03437500000001137,
          "durationTicks": 33,
          "midi": 67,
          "name": "G4",
          "ticks": 139200,
          "time": 145,
          "velocity": 0.5039370078740157
        },
        {
          "duration": 0.0625,
          "durationTicks": 60,
          "midi": 72,
          "name": "C5",
          "ticks": 139320,
          "time": 145.125,
          "velocity": 0.5039370078740157
        },
        {
          "duration": 0.0625,
          "durationTicks": 60,
          "midi": 69,
          "name": "A4",
          "ticks": 139320,
          "time": 145.125,
          "velocity": 0.5039370078740157
        },
        {
          "duration": 0.0625,
          "durationTicks": 60,
          "midi": 65,
          "name": "F4",
          "ticks": 139320,
          "time": 145.125,
          "velocity": 0.5039370078740157
        },
        {
          "duration": 0.0625,
          "durationTicks": 60,
          "midi": 72,
          "name": "C5",
          "ticks": 139560,
          "time": 145.375,
          "velocity": 0.5039370078740157
        },
        {
          "duration": 0.0625,
          "durationTicks": 60,
          "midi": 69,
          "name": "A4",
          "ticks": 139560,
          "time": 145.375,
          "velocity": 0.5039370078740157
        },
        {
          "duration": 0.0625,
          "durationTicks": 60,
          "midi": 65,
          "name": "F4",
          "ticks": 139560,
          "time": 145.375,
          "velocity": 0.5039370078740157
        },
        {
          "duration": 0.055208333333325754,
          "durationTicks": 53,
          "midi": 65,
          "name": "F4",
          "ticks": 140400,
          "time": 146.25,
          "velocity": 0.5039370078740157
        },
        {
          "duration": 0.05000000000001137,
          "durationTicks": 48,
          "midi": 69,
          "name": "A4",
          "ticks": 140400,
          "time": 146.25,
          "velocity": 0.5039370078740157
        },
        {
          "duration": 0.05000000000001137,
          "durationTicks": 48,
          "midi": 72,
          "name": "C5",
          "ticks": 140400,
          "time": 146.25,
          "velocity": 0.5039370078740157
        },
        {
          "duration": 0.05729166666665719,
          "durationTicks": 55,
          "midi": 72,
          "name": "C5",
          "ticks": 140640,
          "time": 146.5,
          "velocity": 0.5039370078740157
        },
        {
          "duration": 0.05729166666665719,
          "durationTicks": 55,
          "midi": 65,
          "name": "F4",
          "ticks": 140640,
          "time": 146.5,
          "velocity": 0.5039370078740157
        },
        {
          "duration": 0.03645833333334281,
          "durationTicks": 35,
          "midi": 69,
          "name": "A4",
          "ticks": 140640,
          "time": 146.5,
          "velocity": 0.5039370078740157
        },
        {
          "duration": 0.03437500000001137,
          "durationTicks": 33,
          "midi": 72,
          "name": "C5",
          "ticks": 140880,
          "time": 146.75,
          "velocity": 0.5039370078740157
        },
        {
          "duration": 0.026041666666657193,
          "durationTicks": 25,
          "midi": 65,
          "name": "F4",
          "ticks": 140880,
          "time": 146.75,
          "velocity": 0.5039370078740157
        },
        {
          "duration": 0.01875000000001137,
          "durationTicks": 18,
          "midi": 69,
          "name": "A4",
          "ticks": 140880,
          "time": 146.75,
          "velocity": 0.5039370078740157
        },
        {
          "duration": 0.05729166666665719,
          "durationTicks": 55,
          "midi": 70,
          "name": "A#4",
          "ticks": 141000,
          "time": 146.875,
          "velocity": 0.5039370078740157
        },
        {
          "duration": 0.039583333333325754,
          "durationTicks": 38,
          "midi": 67,
          "name": "G4",
          "ticks": 141000,
          "time": 146.875,
          "velocity": 0.5039370078740157
        },
        {
          "duration": 0.04479166666666856,
          "durationTicks": 43,
          "midi": 75,
          "name": "D#5",
          "ticks": 141000,
          "time": 146.875,
          "velocity": 0.5039370078740157
        },
        {
          "duration": 0.06562500000001137,
          "durationTicks": 63,
          "midi": 75,
          "name": "D#5",
          "ticks": 141240,
          "time": 147.125,
          "velocity": 0.5039370078740157
        },
        {
          "duration": 0.055208333333325754,
          "durationTicks": 53,
          "midi": 67,
          "name": "G4",
          "ticks": 141240,
          "time": 147.125,
          "velocity": 0.5039370078740157
        },
        {
          "duration": 0.04479166666666856,
          "durationTicks": 43,
          "midi": 70,
          "name": "A#4",
          "ticks": 141240,
          "time": 147.125,
          "velocity": 0.5039370078740157
        },
        {
          "duration": 0.039583333333325754,
          "durationTicks": 38,
          "midi": 75,
          "name": "D#5",
          "ticks": 141480,
          "time": 147.375,
          "velocity": 0.5039370078740157
        },
        {
          "duration": 0.039583333333325754,
          "durationTicks": 38,
          "midi": 67,
          "name": "G4",
          "ticks": 141480,
          "time": 147.375,
          "velocity": 0.5039370078740157
        },
        {
          "duration": 0.023958333333325754,
          "durationTicks": 23,
          "midi": 70,
          "name": "A#4",
          "ticks": 141480,
          "time": 147.375,
          "velocity": 0.5039370078740157
        },
        {
          "duration": 0.04166666666665719,
          "durationTicks": 40,
          "midi": 70,
          "name": "A#4",
          "ticks": 141600,
          "time": 147.5,
          "velocity": 0.5039370078740157
        },
        {
          "duration": 0.04166666666665719,
          "durationTicks": 40,
          "midi": 74,
          "name": "D5",
          "ticks": 141600,
          "time": 147.5,
          "velocity": 0.5039370078740157
        },
        {
          "duration": 0.03645833333334281,
          "durationTicks": 35,
          "midi": 65,
          "name": "F4",
          "ticks": 141600,
          "time": 147.5,
          "velocity": 0.5039370078740157
        },
        {
          "duration": 0.05729166666665719,
          "durationTicks": 55,
          "midi": 65,
          "name": "F4",
          "ticks": 141840,
          "time": 147.75,
          "velocity": 0.5039370078740157
        },
        {
          "duration": 0.05000000000001137,
          "durationTicks": 48,
          "midi": 74,
          "name": "D5",
          "ticks": 141840,
          "time": 147.75,
          "velocity": 0.5039370078740157
        },
        {
          "duration": 0.046875,
          "durationTicks": 45,
          "midi": 70,
          "name": "A#4",
          "ticks": 141840,
          "time": 147.75,
          "velocity": 0.5039370078740157
        },
        {
          "duration": 0.055208333333325754,
          "durationTicks": 53,
          "midi": 65,
          "name": "F4",
          "ticks": 142320,
          "time": 148.25,
          "velocity": 0.5039370078740157
        },
        {
          "duration": 0.04479166666666856,
          "durationTicks": 43,
          "midi": 69,
          "name": "A4",
          "ticks": 142320,
          "time": 148.25,
          "velocity": 0.5039370078740157
        },
        {
          "duration": 0.046875,
          "durationTicks": 45,
          "midi": 72,
          "name": "C5",
          "ticks": 142320,
          "time": 148.25,
          "velocity": 0.5039370078740157
        },
        {
          "duration": 0.05000000000001137,
          "durationTicks": 48,
          "midi": 65,
          "name": "F4",
          "ticks": 142560,
          "time": 148.5,
          "velocity": 0.5039370078740157
        },
        {
          "duration": 0.03645833333334281,
          "durationTicks": 35,
          "midi": 69,
          "name": "A4",
          "ticks": 142560,
          "time": 148.5,
          "velocity": 0.5039370078740157
        },
        {
          "duration": 0.04479166666666856,
          "durationTicks": 43,
          "midi": 72,
          "name": "C5",
          "ticks": 142560,
          "time": 148.5,
          "velocity": 0.5039370078740157
        },
        {
          "duration": 0.039583333333325754,
          "durationTicks": 38,
          "midi": 72,
          "name": "C5",
          "ticks": 142800,
          "time": 148.75,
          "velocity": 0.5039370078740157
        },
        {
          "duration": 0.04166666666665719,
          "durationTicks": 40,
          "midi": 65,
          "name": "F4",
          "ticks": 142800,
          "time": 148.75,
          "velocity": 0.5039370078740157
        },
        {
          "duration": 0.026041666666657193,
          "durationTicks": 25,
          "midi": 69,
          "name": "A4",
          "ticks": 142800,
          "time": 148.75,
          "velocity": 0.5039370078740157
        },
        {
          "duration": 0.05208333333334281,
          "durationTicks": 50,
          "midi": 75,
          "name": "D#5",
          "ticks": 142920,
          "time": 148.875,
          "velocity": 0.5039370078740157
        },
        {
          "duration": 0.04166666666665719,
          "durationTicks": 40,
          "midi": 67,
          "name": "G4",
          "ticks": 142920,
          "time": 148.875,
          "velocity": 0.5039370078740157
        },
        {
          "duration": 0.03645833333334281,
          "durationTicks": 35,
          "midi": 70,
          "name": "A#4",
          "ticks": 142920,
          "time": 148.875,
          "velocity": 0.5039370078740157
        },
        {
          "duration": 0.046875,
          "durationTicks": 45,
          "midi": 75,
          "name": "D#5",
          "ticks": 143160,
          "time": 149.125,
          "velocity": 0.5039370078740157
        },
        {
          "duration": 0.03437500000001137,
          "durationTicks": 33,
          "midi": 70,
          "name": "A#4",
          "ticks": 143160,
          "time": 149.125,
          "velocity": 0.5039370078740157
        },
        {
          "duration": 0.039583333333325754,
          "durationTicks": 38,
          "midi": 67,
          "name": "G4",
          "ticks": 143160,
          "time": 149.125,
          "velocity": 0.5039370078740157
        },
        {
          "duration": 0.05000000000001137,
          "durationTicks": 48,
          "midi": 70,
          "name": "A#4",
          "ticks": 143280,
          "time": 149.25,
          "velocity": 0.5039370078740157
        },
        {
          "duration": 0.046875,
          "durationTicks": 45,
          "midi": 74,
          "name": "D5",
          "ticks": 143280,
          "time": 149.25,
          "velocity": 0.5039370078740157
        },
        {
          "duration": 0.046875,
          "durationTicks": 45,
          "midi": 65,
          "name": "F4",
          "ticks": 143280,
          "time": 149.25,
          "velocity": 0.5039370078740157
        },
        {
          "duration": 0.06041666666666856,
          "durationTicks": 58,
          "midi": 65,
          "name": "F4",
          "ticks": 143520,
          "time": 149.5,
          "velocity": 0.5039370078740157
        },
        {
          "duration": 0.05208333333334281,
          "durationTicks": 50,
          "midi": 69,
          "name": "A4",
          "ticks": 143520,
          "time": 149.5,
          "velocity": 0.5039370078740157
        },
        {
          "duration": 0.05000000000001137,
          "durationTicks": 48,
          "midi": 72,
          "name": "C5",
          "ticks": 143520,
          "time": 149.5,
          "velocity": 0.5039370078740157
        },
        {
          "duration": 0.055208333333325754,
          "durationTicks": 53,
          "midi": 61,
          "name": "C#4",
          "ticks": 144240,
          "time": 150.25,
          "velocity": 0.5039370078740157
        },
        {
          "duration": 0.055208333333325754,
          "durationTicks": 53,
          "midi": 68,
          "name": "G#4",
          "ticks": 144240,
          "time": 150.25,
          "velocity": 0.5039370078740157
        },
        {
          "duration": 0.04479166666666856,
          "durationTicks": 43,
          "midi": 65,
          "name": "F4",
          "ticks": 144240,
          "time": 150.25,
          "velocity": 0.5039370078740157
        },
        {
          "duration": 0.055208333333325754,
          "durationTicks": 53,
          "midi": 68,
          "name": "G#4",
          "ticks": 144480,
          "time": 150.5,
          "velocity": 0.5039370078740157
        },
        {
          "duration": 0.04479166666666856,
          "durationTicks": 43,
          "midi": 61,
          "name": "C#4",
          "ticks": 144480,
          "time": 150.5,
          "velocity": 0.5039370078740157
        },
        {
          "duration": 0.04479166666666856,
          "durationTicks": 43,
          "midi": 65,
          "name": "F4",
          "ticks": 144480,
          "time": 150.5,
          "velocity": 0.5039370078740157
        },
        {
          "duration": 0.05000000000001137,
          "durationTicks": 48,
          "midi": 68,
          "name": "G#4",
          "ticks": 144720,
          "time": 150.75,
          "velocity": 0.5039370078740157
        },
        {
          "duration": 0.03645833333334281,
          "durationTicks": 35,
          "midi": 61,
          "name": "C#4",
          "ticks": 144720,
          "time": 150.75,
          "velocity": 0.5039370078740157
        },
        {
          "duration": 0.03645833333334281,
          "durationTicks": 35,
          "midi": 65,
          "name": "F4",
          "ticks": 144720,
          "time": 150.75,
          "velocity": 0.5039370078740157
        },
        {
          "duration": 0.05000000000001137,
          "durationTicks": 48,
          "midi": 68,
          "name": "G#4",
          "ticks": 144960,
          "time": 151,
          "velocity": 0.5039370078740157
        },
        {
          "duration": 0.04166666666665719,
          "durationTicks": 40,
          "midi": 65,
          "name": "F4",
          "ticks": 144960,
          "time": 151,
          "velocity": 0.5039370078740157
        },
        {
          "duration": 0.04166666666665719,
          "durationTicks": 40,
          "midi": 61,
          "name": "C#4",
          "ticks": 144960,
          "time": 151,
          "velocity": 0.5039370078740157
        },
        {
          "duration": 0.05208333333334281,
          "durationTicks": 50,
          "midi": 70,
          "name": "A#4",
          "ticks": 145080,
          "time": 151.125,
          "velocity": 0.5039370078740157
        },
        {
          "duration": 0.03645833333334281,
          "durationTicks": 35,
          "midi": 67,
          "name": "G4",
          "ticks": 145080,
          "time": 151.125,
          "velocity": 0.5039370078740157
        },
        {
          "duration": 0.02916666666666856,
          "durationTicks": 28,
          "midi": 63,
          "name": "D#4",
          "ticks": 145080,
          "time": 151.125,
          "velocity": 0.5039370078740157
        },
        {
          "duration": 0.046875,
          "durationTicks": 45,
          "midi": 70,
          "name": "A#4",
          "ticks": 145320,
          "time": 151.375,
          "velocity": 0.5039370078740157
        },
        {
          "duration": 0.04166666666665719,
          "durationTicks": 40,
          "midi": 63,
          "name": "D#4",
          "ticks": 145320,
          "time": 151.375,
          "velocity": 0.5039370078740157
        },
        {
          "duration": 0.03645833333334281,
          "durationTicks": 35,
          "midi": 67,
          "name": "G4",
          "ticks": 145320,
          "time": 151.375,
          "velocity": 0.5039370078740157
        },
        {
          "duration": 0.05000000000001137,
          "durationTicks": 48,
          "midi": 70,
          "name": "A#4",
          "ticks": 145560,
          "time": 151.625,
          "velocity": 0.5039370078740157
        },
        {
          "duration": 0.039583333333325754,
          "durationTicks": 38,
          "midi": 67,
          "name": "G4",
          "ticks": 145560,
          "time": 151.625,
          "velocity": 0.5039370078740157
        },
        {
          "duration": 0.03125,
          "durationTicks": 30,
          "midi": 63,
          "name": "D#4",
          "ticks": 145560,
          "time": 151.625,
          "velocity": 0.5039370078740157
        },
        {
          "duration": 0.02916666666666856,
          "durationTicks": 28,
          "midi": 70,
          "name": "A#4",
          "ticks": 145800,
          "time": 151.875,
          "velocity": 0.5039370078740157
        },
        {
          "duration": 0.020833333333342807,
          "durationTicks": 20,
          "midi": 67,
          "name": "G4",
          "ticks": 145800,
          "time": 151.875,
          "velocity": 0.5039370078740157
        },
        {
          "duration": 0.015625,
          "durationTicks": 15,
          "midi": 63,
          "name": "D#4",
          "ticks": 145800,
          "time": 151.875,
          "velocity": 0.5039370078740157
        },
        {
          "duration": 0.01875000000001137,
          "durationTicks": 18,
          "midi": 63,
          "name": "D#4",
          "ticks": 145920,
          "time": 152,
          "velocity": 0.5039370078740157
        },
        {
          "duration": 0.013541666666668561,
          "durationTicks": 13,
          "midi": 70,
          "name": "A#4",
          "ticks": 145920,
          "time": 152,
          "velocity": 0.5039370078740157
        },
        {
          "duration": 0.010416666666657193,
          "durationTicks": 10,
          "midi": 67,
          "name": "G4",
          "ticks": 145920,
          "time": 152,
          "velocity": 0.5039370078740157
        },
        {
          "duration": 0.04166666666665719,
          "durationTicks": 40,
          "midi": 65,
          "name": "F4",
          "ticks": 146160,
          "time": 152.25,
          "velocity": 0.5039370078740157
        },
        {
          "duration": 0.04479166666666856,
          "durationTicks": 43,
          "midi": 69,
          "name": "A4",
          "ticks": 146160,
          "time": 152.25,
          "velocity": 0.5039370078740157
        },
        {
          "duration": 0.04166666666665719,
          "durationTicks": 40,
          "midi": 72,
          "name": "C5",
          "ticks": 146160,
          "time": 152.25,
          "velocity": 0.5039370078740157
        },
        {
          "duration": 0.04166666666665719,
          "durationTicks": 40,
          "midi": 69,
          "name": "A4",
          "ticks": 146400,
          "time": 152.5,
          "velocity": 0.5039370078740157
        },
        {
          "duration": 0.04479166666666856,
          "durationTicks": 43,
          "midi": 65,
          "name": "F4",
          "ticks": 146400,
          "time": 152.5,
          "velocity": 0.5039370078740157
        },
        {
          "duration": 0.039583333333325754,
          "durationTicks": 38,
          "midi": 72,
          "name": "C5",
          "ticks": 146400,
          "time": 152.5,
          "velocity": 0.5039370078740157
        },
        {
          "duration": 0.039583333333325754,
          "durationTicks": 38,
          "midi": 65,
          "name": "F4",
          "ticks": 146640,
          "time": 152.75,
          "velocity": 0.5039370078740157
        },
        {
          "duration": 0.039583333333325754,
          "durationTicks": 38,
          "midi": 69,
          "name": "A4",
          "ticks": 146640,
          "time": 152.75,
          "velocity": 0.5039370078740157
        },
        {
          "duration": 0.039583333333325754,
          "durationTicks": 38,
          "midi": 72,
          "name": "C5",
          "ticks": 146640,
          "time": 152.75,
          "velocity": 0.5039370078740157
        },
        {
          "duration": 0.055208333333325754,
          "durationTicks": 53,
          "midi": 70,
          "name": "A#4",
          "ticks": 146880,
          "time": 153,
          "velocity": 0.5039370078740157
        },
        {
          "duration": 0.04166666666665719,
          "durationTicks": 40,
          "midi": 63,
          "name": "D#4",
          "ticks": 146880,
          "time": 153,
          "velocity": 0.5039370078740157
        },
        {
          "duration": 0.02916666666666856,
          "durationTicks": 28,
          "midi": 67,
          "name": "G4",
          "ticks": 146880,
          "time": 153,
          "velocity": 0.5039370078740157
        },
        {
          "duration": 0.05000000000001137,
          "durationTicks": 48,
          "midi": 69,
          "name": "A4",
          "ticks": 147000,
          "time": 153.125,
          "velocity": 0.5039370078740157
        },
        {
          "duration": 0.04166666666665719,
          "durationTicks": 40,
          "midi": 65,
          "name": "F4",
          "ticks": 147000,
          "time": 153.125,
          "velocity": 0.5039370078740157
        },
        {
          "duration": 0.04479166666666856,
          "durationTicks": 43,
          "midi": 72,
          "name": "C5",
          "ticks": 147000,
          "time": 153.125,
          "velocity": 0.5039370078740157
        },
        {
          "duration": 0.046875,
          "durationTicks": 45,
          "midi": 72,
          "name": "C5",
          "ticks": 147240,
          "time": 153.375,
          "velocity": 0.5039370078740157
        },
        {
          "duration": 0.046875,
          "durationTicks": 45,
          "midi": 65,
          "name": "F4",
          "ticks": 147240,
          "time": 153.375,
          "velocity": 0.5039370078740157
        },
        {
          "duration": 0.039583333333325754,
          "durationTicks": 38,
          "midi": 69,
          "name": "A4",
          "ticks": 147240,
          "time": 153.375,
          "velocity": 0.5039370078740157
        },
        {
          "duration": 0.04479166666666856,
          "durationTicks": 43,
          "midi": 72,
          "name": "C5",
          "ticks": 147600,
          "time": 153.75,
          "velocity": 0.5039370078740157
        },
        {
          "duration": 0.03437500000001137,
          "durationTicks": 33,
          "midi": 65,
          "name": "F4",
          "ticks": 147600,
          "time": 153.75,
          "velocity": 0.5039370078740157
        },
        {
          "duration": 0.03437500000001137,
          "durationTicks": 33,
          "midi": 69,
          "name": "A4",
          "ticks": 147600,
          "time": 153.75,
          "velocity": 0.5039370078740157
        },
        {
          "duration": 0.055208333333325754,
          "durationTicks": 53,
          "midi": 61,
          "name": "C#4",
          "ticks": 148080,
          "time": 154.25,
          "velocity": 0.5039370078740157
        },
        {
          "duration": 0.055208333333325754,
          "durationTicks": 53,
          "midi": 68,
          "name": "G#4",
          "ticks": 148080,
          "time": 154.25,
          "velocity": 0.5039370078740157
        },
        {
          "duration": 0.04479166666666856,
          "durationTicks": 43,
          "midi": 65,
          "name": "F4",
          "ticks": 148080,
          "time": 154.25,
          "velocity": 0.5039370078740157
        },
        {
          "duration": 0.055208333333325754,
          "durationTicks": 53,
          "midi": 68,
          "name": "G#4",
          "ticks": 148320,
          "time": 154.5,
          "velocity": 0.5039370078740157
        },
        {
          "duration": 0.04479166666666856,
          "durationTicks": 43,
          "midi": 61,
          "name": "C#4",
          "ticks": 148320,
          "time": 154.5,
          "velocity": 0.5039370078740157
        },
        {
          "duration": 0.04479166666666856,
          "durationTicks": 43,
          "midi": 65,
          "name": "F4",
          "ticks": 148320,
          "time": 154.5,
          "velocity": 0.5039370078740157
        },
        {
          "duration": 0.05000000000001137,
          "durationTicks": 48,
          "midi": 68,
          "name": "G#4",
          "ticks": 148560,
          "time": 154.75,
          "velocity": 0.5039370078740157
        },
        {
          "duration": 0.03645833333334281,
          "durationTicks": 35,
          "midi": 61,
          "name": "C#4",
          "ticks": 148560,
          "time": 154.75,
          "velocity": 0.5039370078740157
        },
        {
          "duration": 0.03645833333334281,
          "durationTicks": 35,
          "midi": 65,
          "name": "F4",
          "ticks": 148560,
          "time": 154.75,
          "velocity": 0.5039370078740157
        },
        {
          "duration": 0.05000000000001137,
          "durationTicks": 48,
          "midi": 68,
          "name": "G#4",
          "ticks": 148800,
          "time": 155,
          "velocity": 0.5039370078740157
        },
        {
          "duration": 0.04166666666665719,
          "durationTicks": 40,
          "midi": 65,
          "name": "F4",
          "ticks": 148800,
          "time": 155,
          "velocity": 0.5039370078740157
        },
        {
          "duration": 0.04166666666665719,
          "durationTicks": 40,
          "midi": 61,
          "name": "C#4",
          "ticks": 148800,
          "time": 155,
          "velocity": 0.5039370078740157
        },
        {
          "duration": 0.05208333333334281,
          "durationTicks": 50,
          "midi": 70,
          "name": "A#4",
          "ticks": 148920,
          "time": 155.125,
          "velocity": 0.5039370078740157
        },
        {
          "duration": 0.03645833333334281,
          "durationTicks": 35,
          "midi": 67,
          "name": "G4",
          "ticks": 148920,
          "time": 155.125,
          "velocity": 0.5039370078740157
        },
        {
          "duration": 0.02916666666666856,
          "durationTicks": 28,
          "midi": 63,
          "name": "D#4",
          "ticks": 148920,
          "time": 155.125,
          "velocity": 0.5039370078740157
        },
        {
          "duration": 0.046875,
          "durationTicks": 45,
          "midi": 70,
          "name": "A#4",
          "ticks": 149160,
          "time": 155.375,
          "velocity": 0.5039370078740157
        },
        {
          "duration": 0.04166666666665719,
          "durationTicks": 40,
          "midi": 63,
          "name": "D#4",
          "ticks": 149160,
          "time": 155.375,
          "velocity": 0.5039370078740157
        },
        {
          "duration": 0.03645833333334281,
          "durationTicks": 35,
          "midi": 67,
          "name": "G4",
          "ticks": 149160,
          "time": 155.375,
          "velocity": 0.5039370078740157
        },
        {
          "duration": 0.05000000000001137,
          "durationTicks": 48,
          "midi": 70,
          "name": "A#4",
          "ticks": 149400,
          "time": 155.625,
          "velocity": 0.5039370078740157
        },
        {
          "duration": 0.039583333333325754,
          "durationTicks": 38,
          "midi": 67,
          "name": "G4",
          "ticks": 149400,
          "time": 155.625,
          "velocity": 0.5039370078740157
        },
        {
          "duration": 0.03125,
          "durationTicks": 30,
          "midi": 63,
          "name": "D#4",
          "ticks": 149400,
          "time": 155.625,
          "velocity": 0.5039370078740157
        },
        {
          "duration": 0.02916666666666856,
          "durationTicks": 28,
          "midi": 70,
          "name": "A#4",
          "ticks": 149640,
          "time": 155.875,
          "velocity": 0.5039370078740157
        },
        {
          "duration": 0.020833333333342807,
          "durationTicks": 20,
          "midi": 67,
          "name": "G4",
          "ticks": 149640,
          "time": 155.875,
          "velocity": 0.5039370078740157
        },
        {
          "duration": 0.015625,
          "durationTicks": 15,
          "midi": 63,
          "name": "D#4",
          "ticks": 149640,
          "time": 155.875,
          "velocity": 0.5039370078740157
        },
        {
          "duration": 0.01875000000001137,
          "durationTicks": 18,
          "midi": 63,
          "name": "D#4",
          "ticks": 149760,
          "time": 156,
          "velocity": 0.5039370078740157
        },
        {
          "duration": 0.013541666666668561,
          "durationTicks": 13,
          "midi": 70,
          "name": "A#4",
          "ticks": 149760,
          "time": 156,
          "velocity": 0.5039370078740157
        },
        {
          "duration": 0.010416666666657193,
          "durationTicks": 10,
          "midi": 67,
          "name": "G4",
          "ticks": 149760,
          "time": 156,
          "velocity": 0.5039370078740157
        },
        {
          "duration": 0.04166666666665719,
          "durationTicks": 40,
          "midi": 65,
          "name": "F4",
          "ticks": 150000,
          "time": 156.25,
          "velocity": 0.5039370078740157
        },
        {
          "duration": 0.04479166666666856,
          "durationTicks": 43,
          "midi": 69,
          "name": "A4",
          "ticks": 150000,
          "time": 156.25,
          "velocity": 0.5039370078740157
        },
        {
          "duration": 0.04166666666665719,
          "durationTicks": 40,
          "midi": 72,
          "name": "C5",
          "ticks": 150000,
          "time": 156.25,
          "velocity": 0.5039370078740157
        },
        {
          "duration": 0.04166666666665719,
          "durationTicks": 40,
          "midi": 69,
          "name": "A4",
          "ticks": 150240,
          "time": 156.5,
          "velocity": 0.5039370078740157
        },
        {
          "duration": 0.04479166666666856,
          "durationTicks": 43,
          "midi": 65,
          "name": "F4",
          "ticks": 150240,
          "time": 156.5,
          "velocity": 0.5039370078740157
        },
        {
          "duration": 0.039583333333325754,
          "durationTicks": 38,
          "midi": 72,
          "name": "C5",
          "ticks": 150240,
          "time": 156.5,
          "velocity": 0.5039370078740157
        },
        {
          "duration": 0.039583333333325754,
          "durationTicks": 38,
          "midi": 65,
          "name": "F4",
          "ticks": 150480,
          "time": 156.75,
          "velocity": 0.5039370078740157
        },
        {
          "duration": 0.039583333333325754,
          "durationTicks": 38,
          "midi": 69,
          "name": "A4",
          "ticks": 150480,
          "time": 156.75,
          "velocity": 0.5039370078740157
        },
        {
          "duration": 0.039583333333325754,
          "durationTicks": 38,
          "midi": 72,
          "name": "C5",
          "ticks": 150480,
          "time": 156.75,
          "velocity": 0.5039370078740157
        },
        {
          "duration": 0.055208333333325754,
          "durationTicks": 53,
          "midi": 70,
          "name": "A#4",
          "ticks": 150720,
          "time": 157,
          "velocity": 0.5039370078740157
        },
        {
          "duration": 0.04166666666665719,
          "durationTicks": 40,
          "midi": 63,
          "name": "D#4",
          "ticks": 150720,
          "time": 157,
          "velocity": 0.5039370078740157
        },
        {
          "duration": 0.02916666666666856,
          "durationTicks": 28,
          "midi": 67,
          "name": "G4",
          "ticks": 150720,
          "time": 157,
          "velocity": 0.5039370078740157
        },
        {
          "duration": 0.05000000000001137,
          "durationTicks": 48,
          "midi": 69,
          "name": "A4",
          "ticks": 150840,
          "time": 157.125,
          "velocity": 0.5039370078740157
        },
        {
          "duration": 0.04166666666665719,
          "durationTicks": 40,
          "midi": 65,
          "name": "F4",
          "ticks": 150840,
          "time": 157.125,
          "velocity": 0.5039370078740157
        },
        {
          "duration": 0.04479166666666856,
          "durationTicks": 43,
          "midi": 72,
          "name": "C5",
          "ticks": 150840,
          "time": 157.125,
          "velocity": 0.5039370078740157
        },
        {
          "duration": 0.046875,
          "durationTicks": 45,
          "midi": 72,
          "name": "C5",
          "ticks": 151080,
          "time": 157.375,
          "velocity": 0.5039370078740157
        },
        {
          "duration": 0.046875,
          "durationTicks": 45,
          "midi": 65,
          "name": "F4",
          "ticks": 151080,
          "time": 157.375,
          "velocity": 0.5039370078740157
        },
        {
          "duration": 0.039583333333325754,
          "durationTicks": 38,
          "midi": 69,
          "name": "A4",
          "ticks": 151080,
          "time": 157.375,
          "velocity": 0.5039370078740157
        },
        {
          "duration": 0.04479166666666856,
          "durationTicks": 43,
          "midi": 72,
          "name": "C5",
          "ticks": 151440,
          "time": 157.75,
          "velocity": 0.5039370078740157
        },
        {
          "duration": 0.03437500000001137,
          "durationTicks": 33,
          "midi": 65,
          "name": "F4",
          "ticks": 151440,
          "time": 157.75,
          "velocity": 0.5039370078740157
        },
        {
          "duration": 0.03437500000001137,
          "durationTicks": 33,
          "midi": 69,
          "name": "A4",
          "ticks": 151440,
          "time": 157.75,
          "velocity": 0.5039370078740157
        },
        {
          "duration": 0.11250000000001137,
          "durationTicks": 108,
          "midi": 65,
          "name": "F4",
          "ticks": 151680,
          "time": 158,
          "velocity": 0.5039370078740157
        }
      ]
    },
    {
      "channel": 14,
      "controlChanges": {
        "7": [
          {
            "number": 7,
            "ticks": 0,
            "time": 0,
            "value": 0.031496062992125984
          }
        ]
      },
      "pitchBends": [],
      "instrument": {
        "family": "organ",
        "number": 22,
        "name": "harmonica"
      },
      "name": "",
      "notes": [
        {
          "duration": 0.1510416666666714,
          "durationTicks": 145,
          "midi": 75,
          "name": "D#5",
          "ticks": 120960,
          "time": 126,
          "velocity": 0.5905511811023622
        },
        {
          "duration": 0.10729166666666856,
          "durationTicks": 103,
          "midi": 72,
          "name": "C5",
          "ticks": 121080,
          "time": 126.125,
          "velocity": 0.5905511811023622
        },
        {
          "duration": 0.1354166666666714,
          "durationTicks": 130,
          "midi": 70,
          "name": "A#4",
          "ticks": 121200,
          "time": 126.25,
          "velocity": 0.5905511811023622
        },
        {
          "duration": 0.09166666666666856,
          "durationTicks": 88,
          "midi": 68,
          "name": "G#4",
          "ticks": 121320,
          "time": 126.375,
          "velocity": 0.5905511811023622
        },
        {
          "duration": 0.0885416666666714,
          "durationTicks": 85,
          "midi": 70,
          "name": "A#4",
          "ticks": 121560,
          "time": 126.625,
          "velocity": 0.5905511811023622
        },
        {
          "duration": 0.10729166666666856,
          "durationTicks": 103,
          "midi": 72,
          "name": "C5",
          "ticks": 121800,
          "time": 126.875,
          "velocity": 0.5905511811023622
        },
        {
          "duration": 0.09687499999999716,
          "durationTicks": 93,
          "midi": 75,
          "name": "D#5",
          "ticks": 121920,
          "time": 127,
          "velocity": 0.5905511811023622
        },
        {
          "duration": 0.07604166666666856,
          "durationTicks": 73,
          "midi": 72,
          "name": "C5",
          "ticks": 122160,
          "time": 127.25,
          "velocity": 0.5905511811023622
        },
        {
          "duration": 0.08645833333333997,
          "durationTicks": 83,
          "midi": 70,
          "name": "A#4",
          "ticks": 122400,
          "time": 127.5,
          "velocity": 0.5905511811023622
        },
        {
          "duration": 0.0989583333333286,
          "durationTicks": 95,
          "midi": 68,
          "name": "G#4",
          "ticks": 122640,
          "time": 127.75,
          "velocity": 0.5905511811023622
        },
        {
          "duration": 0.1510416666666572,
          "durationTicks": 145,
          "midi": 75,
          "name": "D#5",
          "ticks": 122880,
          "time": 128,
          "velocity": 0.5905511811023622
        },
        {
          "duration": 0.10729166666666856,
          "durationTicks": 103,
          "midi": 72,
          "name": "C5",
          "ticks": 123000,
          "time": 128.125,
          "velocity": 0.5905511811023622
        },
        {
          "duration": 0.1354166666666572,
          "durationTicks": 130,
          "midi": 70,
          "name": "A#4",
          "ticks": 123120,
          "time": 128.25,
          "velocity": 0.5905511811023622
        },
        {
          "duration": 0.09166666666666856,
          "durationTicks": 88,
          "midi": 68,
          "name": "G#4",
          "ticks": 123240,
          "time": 128.375,
          "velocity": 0.5905511811023622
        },
        {
          "duration": 0.08854166666665719,
          "durationTicks": 85,
          "midi": 70,
          "name": "A#4",
          "ticks": 123480,
          "time": 128.625,
          "velocity": 0.5905511811023622
        },
        {
          "duration": 0.10729166666666856,
          "durationTicks": 103,
          "midi": 72,
          "name": "C5",
          "ticks": 123720,
          "time": 128.875,
          "velocity": 0.5905511811023622
        },
        {
          "duration": 0.09687500000001137,
          "durationTicks": 93,
          "midi": 75,
          "name": "D#5",
          "ticks": 123840,
          "time": 129,
          "velocity": 0.5905511811023622
        },
        {
          "duration": 0.07604166666666856,
          "durationTicks": 73,
          "midi": 72,
          "name": "C5",
          "ticks": 124080,
          "time": 129.25,
          "velocity": 0.5905511811023622
        },
        {
          "duration": 0.08645833333332575,
          "durationTicks": 83,
          "midi": 70,
          "name": "A#4",
          "ticks": 124320,
          "time": 129.5,
          "velocity": 0.5905511811023622
        },
        {
          "duration": 0.09895833333334281,
          "durationTicks": 95,
          "midi": 68,
          "name": "G#4",
          "ticks": 124560,
          "time": 129.75,
          "velocity": 0.5905511811023622
        },
        {
          "duration": 0.1510416666666572,
          "durationTicks": 145,
          "midi": 75,
          "name": "D#5",
          "ticks": 124800,
          "time": 130,
          "velocity": 0.5905511811023622
        },
        {
          "duration": 0.10729166666666856,
          "durationTicks": 103,
          "midi": 72,
          "name": "C5",
          "ticks": 124920,
          "time": 130.125,
          "velocity": 0.5905511811023622
        },
        {
          "duration": 0.1354166666666572,
          "durationTicks": 130,
          "midi": 70,
          "name": "A#4",
          "ticks": 125040,
          "time": 130.25,
          "velocity": 0.5905511811023622
        },
        {
          "duration": 0.09166666666666856,
          "durationTicks": 88,
          "midi": 68,
          "name": "G#4",
          "ticks": 125160,
          "time": 130.375,
          "velocity": 0.5905511811023622
        },
        {
          "duration": 0.08854166666665719,
          "durationTicks": 85,
          "midi": 70,
          "name": "A#4",
          "ticks": 125400,
          "time": 130.625,
          "velocity": 0.5905511811023622
        },
        {
          "duration": 0.10729166666666856,
          "durationTicks": 103,
          "midi": 72,
          "name": "C5",
          "ticks": 125640,
          "time": 130.875,
          "velocity": 0.5905511811023622
        },
        {
          "duration": 0.09687500000001137,
          "durationTicks": 93,
          "midi": 75,
          "name": "D#5",
          "ticks": 125760,
          "time": 131,
          "velocity": 0.5905511811023622
        },
        {
          "duration": 0.07604166666666856,
          "durationTicks": 73,
          "midi": 72,
          "name": "C5",
          "ticks": 126000,
          "time": 131.25,
          "velocity": 0.5905511811023622
        },
        {
          "duration": 0.08645833333332575,
          "durationTicks": 83,
          "midi": 70,
          "name": "A#4",
          "ticks": 126240,
          "time": 131.5,
          "velocity": 0.5905511811023622
        },
        {
          "duration": 0.09895833333334281,
          "durationTicks": 95,
          "midi": 68,
          "name": "G#4",
          "ticks": 126480,
          "time": 131.75,
          "velocity": 0.5905511811023622
        },
        {
          "duration": 0.1510416666666572,
          "durationTicks": 145,
          "midi": 75,
          "name": "D#5",
          "ticks": 126720,
          "time": 132,
          "velocity": 0.5905511811023622
        },
        {
          "duration": 0.10729166666666856,
          "durationTicks": 103,
          "midi": 72,
          "name": "C5",
          "ticks": 126840,
          "time": 132.125,
          "velocity": 0.5905511811023622
        },
        {
          "duration": 0.1354166666666572,
          "durationTicks": 130,
          "midi": 70,
          "name": "A#4",
          "ticks": 126960,
          "time": 132.25,
          "velocity": 0.5905511811023622
        },
        {
          "duration": 0.09166666666666856,
          "durationTicks": 88,
          "midi": 68,
          "name": "G#4",
          "ticks": 127080,
          "time": 132.375,
          "velocity": 0.5905511811023622
        },
        {
          "duration": 0.08854166666665719,
          "durationTicks": 85,
          "midi": 70,
          "name": "A#4",
          "ticks": 127320,
          "time": 132.625,
          "velocity": 0.5905511811023622
        },
        {
          "duration": 0.10729166666666856,
          "durationTicks": 103,
          "midi": 72,
          "name": "C5",
          "ticks": 127560,
          "time": 132.875,
          "velocity": 0.5905511811023622
        },
        {
          "duration": 0.09687500000001137,
          "durationTicks": 93,
          "midi": 75,
          "name": "D#5",
          "ticks": 127680,
          "time": 133,
          "velocity": 0.5905511811023622
        },
        {
          "duration": 0.07604166666666856,
          "durationTicks": 73,
          "midi": 72,
          "name": "C5",
          "ticks": 127920,
          "time": 133.25,
          "velocity": 0.5905511811023622
        },
        {
          "duration": 0.08645833333332575,
          "durationTicks": 83,
          "midi": 70,
          "name": "A#4",
          "ticks": 128160,
          "time": 133.5,
          "velocity": 0.5905511811023622
        },
        {
          "duration": 0.09895833333334281,
          "durationTicks": 95,
          "midi": 68,
          "name": "G#4",
          "ticks": 128400,
          "time": 133.75,
          "velocity": 0.5905511811023622
        },
        {
          "duration": 0.1510416666666572,
          "durationTicks": 145,
          "midi": 75,
          "name": "D#5",
          "ticks": 128640,
          "time": 134,
          "velocity": 0.5905511811023622
        },
        {
          "duration": 0.10729166666666856,
          "durationTicks": 103,
          "midi": 72,
          "name": "C5",
          "ticks": 128760,
          "time": 134.125,
          "velocity": 0.5905511811023622
        },
        {
          "duration": 0.1354166666666572,
          "durationTicks": 130,
          "midi": 70,
          "name": "A#4",
          "ticks": 128880,
          "time": 134.25,
          "velocity": 0.5905511811023622
        },
        {
          "duration": 0.09166666666666856,
          "durationTicks": 88,
          "midi": 68,
          "name": "G#4",
          "ticks": 129000,
          "time": 134.375,
          "velocity": 0.5905511811023622
        },
        {
          "duration": 0.08854166666665719,
          "durationTicks": 85,
          "midi": 70,
          "name": "A#4",
          "ticks": 129240,
          "time": 134.625,
          "velocity": 0.5905511811023622
        },
        {
          "duration": 0.10729166666666856,
          "durationTicks": 103,
          "midi": 72,
          "name": "C5",
          "ticks": 129480,
          "time": 134.875,
          "velocity": 0.5905511811023622
        },
        {
          "duration": 0.09687500000001137,
          "durationTicks": 93,
          "midi": 75,
          "name": "D#5",
          "ticks": 129600,
          "time": 135,
          "velocity": 0.5905511811023622
        },
        {
          "duration": 0.07604166666666856,
          "durationTicks": 73,
          "midi": 72,
          "name": "C5",
          "ticks": 129840,
          "time": 135.25,
          "velocity": 0.5905511811023622
        },
        {
          "duration": 0.08645833333332575,
          "durationTicks": 83,
          "midi": 70,
          "name": "A#4",
          "ticks": 130080,
          "time": 135.5,
          "velocity": 0.5905511811023622
        },
        {
          "duration": 0.09895833333334281,
          "durationTicks": 95,
          "midi": 68,
          "name": "G#4",
          "ticks": 130320,
          "time": 135.75,
          "velocity": 0.5905511811023622
        },
        {
          "duration": 0.1510416666666572,
          "durationTicks": 145,
          "midi": 75,
          "name": "D#5",
          "ticks": 130560,
          "time": 136,
          "velocity": 0.5905511811023622
        },
        {
          "duration": 0.10729166666666856,
          "durationTicks": 103,
          "midi": 72,
          "name": "C5",
          "ticks": 130680,
          "time": 136.125,
          "velocity": 0.5905511811023622
        },
        {
          "duration": 0.1354166666666572,
          "durationTicks": 130,
          "midi": 70,
          "name": "A#4",
          "ticks": 130800,
          "time": 136.25,
          "velocity": 0.5905511811023622
        },
        {
          "duration": 0.09166666666666856,
          "durationTicks": 88,
          "midi": 68,
          "name": "G#4",
          "ticks": 130920,
          "time": 136.375,
          "velocity": 0.5905511811023622
        },
        {
          "duration": 0.08854166666665719,
          "durationTicks": 85,
          "midi": 70,
          "name": "A#4",
          "ticks": 131160,
          "time": 136.625,
          "velocity": 0.5905511811023622
        },
        {
          "duration": 0.10729166666666856,
          "durationTicks": 103,
          "midi": 72,
          "name": "C5",
          "ticks": 131400,
          "time": 136.875,
          "velocity": 0.5905511811023622
        },
        {
          "duration": 0.09687500000001137,
          "durationTicks": 93,
          "midi": 75,
          "name": "D#5",
          "ticks": 131520,
          "time": 137,
          "velocity": 0.5905511811023622
        },
        {
          "duration": 0.07604166666666856,
          "durationTicks": 73,
          "midi": 72,
          "name": "C5",
          "ticks": 131760,
          "time": 137.25,
          "velocity": 0.5905511811023622
        },
        {
          "duration": 0.08645833333332575,
          "durationTicks": 83,
          "midi": 70,
          "name": "A#4",
          "ticks": 132000,
          "time": 137.5,
          "velocity": 0.5905511811023622
        },
        {
          "duration": 0.09895833333334281,
          "durationTicks": 95,
          "midi": 68,
          "name": "G#4",
          "ticks": 132240,
          "time": 137.75,
          "velocity": 0.5905511811023622
        },
        {
          "duration": 0.06562500000001137,
          "durationTicks": 63,
          "midi": 65,
          "name": "F4",
          "ticks": 132720,
          "time": 138.25,
          "velocity": 0.5039370078740157
        },
        {
          "duration": 0.046875,
          "durationTicks": 45,
          "midi": 69,
          "name": "A4",
          "ticks": 132720,
          "time": 138.25,
          "velocity": 0.5039370078740157
        },
        {
          "duration": 0.05208333333334281,
          "durationTicks": 50,
          "midi": 72,
          "name": "C5",
          "ticks": 132720,
          "time": 138.25,
          "velocity": 0.5039370078740157
        },
        {
          "duration": 0.06041666666666856,
          "durationTicks": 58,
          "midi": 65,
          "name": "F4",
          "ticks": 132960,
          "time": 138.5,
          "velocity": 0.5039370078740157
        },
        {
          "duration": 0.06041666666666856,
          "durationTicks": 58,
          "midi": 72,
          "name": "C5",
          "ticks": 132960,
          "time": 138.5,
          "velocity": 0.5039370078740157
        },
        {
          "duration": 0.039583333333325754,
          "durationTicks": 38,
          "midi": 69,
          "name": "A4",
          "ticks": 132960,
          "time": 138.5,
          "velocity": 0.5039370078740157
        },
        {
          "duration": 0.05000000000001137,
          "durationTicks": 48,
          "midi": 72,
          "name": "C5",
          "ticks": 133200,
          "time": 138.75,
          "velocity": 0.5039370078740157
        },
        {
          "duration": 0.04479166666666856,
          "durationTicks": 43,
          "midi": 65,
          "name": "F4",
          "ticks": 133200,
          "time": 138.75,
          "velocity": 0.5039370078740157
        },
        {
          "duration": 0.023958333333325754,
          "durationTicks": 23,
          "midi": 69,
          "name": "A4",
          "ticks": 133200,
          "time": 138.75,
          "velocity": 0.5039370078740157
        },
        {
          "duration": 0.05000000000001137,
          "durationTicks": 48,
          "midi": 75,
          "name": "D#5",
          "ticks": 133320,
          "time": 138.875,
          "velocity": 0.5039370078740157
        },
        {
          "duration": 0.04166666666665719,
          "durationTicks": 40,
          "midi": 67,
          "name": "G4",
          "ticks": 133320,
          "time": 138.875,
          "velocity": 0.5039370078740157
        },
        {
          "duration": 0.04166666666665719,
          "durationTicks": 40,
          "midi": 70,
          "name": "A#4",
          "ticks": 133320,
          "time": 138.875,
          "velocity": 0.5039370078740157
        },
        {
          "duration": 0.0625,
          "durationTicks": 60,
          "midi": 75,
          "name": "D#5",
          "ticks": 133560,
          "time": 139.125,
          "velocity": 0.5039370078740157
        },
        {
          "duration": 0.0625,
          "durationTicks": 60,
          "midi": 67,
          "name": "G4",
          "ticks": 133560,
          "time": 139.125,
          "velocity": 0.5039370078740157
        },
        {
          "duration": 0.046875,
          "durationTicks": 45,
          "midi": 70,
          "name": "A#4",
          "ticks": 133560,
          "time": 139.125,
          "velocity": 0.5039370078740157
        },
        {
          "duration": 0.03645833333334281,
          "durationTicks": 35,
          "midi": 75,
          "name": "D#5",
          "ticks": 133800,
          "time": 139.375,
          "velocity": 0.5039370078740157
        },
        {
          "duration": 0.03645833333334281,
          "durationTicks": 35,
          "midi": 67,
          "name": "G4",
          "ticks": 133800,
          "time": 139.375,
          "velocity": 0.5039370078740157
        },
        {
          "duration": 0.023958333333325754,
          "durationTicks": 23,
          "midi": 70,
          "name": "A#4",
          "ticks": 133800,
          "time": 139.375,
          "velocity": 0.5039370078740157
        },
        {
          "duration": 0.04479166666666856,
          "durationTicks": 43,
          "midi": 70,
          "name": "A#4",
          "ticks": 133920,
          "time": 139.5,
          "velocity": 0.5039370078740157
        },
        {
          "duration": 0.04479166666666856,
          "durationTicks": 43,
          "midi": 74,
          "name": "D5",
          "ticks": 133920,
          "time": 139.5,
          "velocity": 0.5039370078740157
        },
        {
          "duration": 0.04479166666666856,
          "durationTicks": 43,
          "midi": 65,
          "name": "F4",
          "ticks": 133920,
          "time": 139.5,
          "velocity": 0.5039370078740157
        },
        {
          "duration": 0.06041666666666856,
          "durationTicks": 58,
          "midi": 74,
          "name": "D5",
          "ticks": 134160,
          "time": 139.75,
          "velocity": 0.5039370078740157
        },
        {
          "duration": 0.06041666666666856,
          "durationTicks": 58,
          "midi": 65,
          "name": "F4",
          "ticks": 134160,
          "time": 139.75,
          "velocity": 0.5039370078740157
        },
        {
          "duration": 0.05208333333334281,
          "durationTicks": 50,
          "midi": 70,
          "name": "A#4",
          "ticks": 134160,
          "time": 139.75,
          "velocity": 0.5039370078740157
        },
        {
          "duration": 0.06562500000001137,
          "durationTicks": 63,
          "midi": 65,
          "name": "F4",
          "ticks": 134640,
          "time": 140.25,
          "velocity": 0.5039370078740157
        },
        {
          "duration": 0.05208333333334281,
          "durationTicks": 50,
          "midi": 69,
          "name": "A4",
          "ticks": 134640,
          "time": 140.25,
          "velocity": 0.5039370078740157
        },
        {
          "duration": 0.05208333333334281,
          "durationTicks": 50,
          "midi": 72,
          "name": "C5",
          "ticks": 134640,
          "time": 140.25,
          "velocity": 0.5039370078740157
        },
        {
          "duration": 0.06562500000001137,
          "durationTicks": 63,
          "midi": 65,
          "name": "F4",
          "ticks": 134880,
          "time": 140.5,
          "velocity": 0.5039370078740157
        },
        {
          "duration": 0.055208333333325754,
          "durationTicks": 53,
          "midi": 72,
          "name": "C5",
          "ticks": 134880,
          "time": 140.5,
          "velocity": 0.5039370078740157
        },
        {
          "duration": 0.046875,
          "durationTicks": 45,
          "midi": 69,
          "name": "A4",
          "ticks": 134880,
          "time": 140.5,
          "velocity": 0.5039370078740157
        },
        {
          "duration": 0.01875000000001137,
          "durationTicks": 18,
          "midi": 72,
          "name": "C5",
          "ticks": 135120,
          "time": 140.75,
          "velocity": 0.5039370078740157
        },
        {
          "duration": 0.020833333333342807,
          "durationTicks": 20,
          "midi": 65,
          "name": "F4",
          "ticks": 135120,
          "time": 140.75,
          "velocity": 0.5039370078740157
        },
        {
          "duration": 0.05000000000001137,
          "durationTicks": 48,
          "midi": 67,
          "name": "G4",
          "ticks": 135240,
          "time": 140.875,
          "velocity": 0.5039370078740157
        },
        {
          "duration": 0.04479166666666856,
          "durationTicks": 43,
          "midi": 75,
          "name": "D#5",
          "ticks": 135240,
          "time": 140.875,
          "velocity": 0.5039370078740157
        },
        {
          "duration": 0.039583333333325754,
          "durationTicks": 38,
          "midi": 70,
          "name": "A#4",
          "ticks": 135240,
          "time": 140.875,
          "velocity": 0.5039370078740157
        },
        {
          "duration": 0.04479166666666856,
          "durationTicks": 43,
          "midi": 67,
          "name": "G4",
          "ticks": 135480,
          "time": 141.125,
          "velocity": 0.5039370078740157
        },
        {
          "duration": 0.046875,
          "durationTicks": 45,
          "midi": 75,
          "name": "D#5",
          "ticks": 135480,
          "time": 141.125,
          "velocity": 0.5039370078740157
        },
        {
          "duration": 0.03645833333334281,
          "durationTicks": 35,
          "midi": 70,
          "name": "A#4",
          "ticks": 135480,
          "time": 141.125,
          "velocity": 0.5039370078740157
        },
        {
          "duration": 0.039583333333325754,
          "durationTicks": 38,
          "midi": 74,
          "name": "D5",
          "ticks": 135600,
          "time": 141.25,
          "velocity": 0.5039370078740157
        },
        {
          "duration": 0.03125,
          "durationTicks": 30,
          "midi": 70,
          "name": "A#4",
          "ticks": 135600,
          "time": 141.25,
          "velocity": 0.5039370078740157
        },
        {
          "duration": 0.03645833333334281,
          "durationTicks": 35,
          "midi": 65,
          "name": "F4",
          "ticks": 135600,
          "time": 141.25,
          "velocity": 0.5039370078740157
        },
        {
          "duration": 0.06041666666666856,
          "durationTicks": 58,
          "midi": 65,
          "name": "F4",
          "ticks": 135840,
          "time": 141.5,
          "velocity": 0.5039370078740157
        },
        {
          "duration": 0.05208333333334281,
          "durationTicks": 50,
          "midi": 72,
          "name": "C5",
          "ticks": 135840,
          "time": 141.5,
          "velocity": 0.5039370078740157
        },
        {
          "duration": 0.04479166666666856,
          "durationTicks": 43,
          "midi": 69,
          "name": "A4",
          "ticks": 135840,
          "time": 141.5,
          "velocity": 0.5039370078740157
        },
        {
          "duration": 0.05729166666665719,
          "durationTicks": 55,
          "midi": 61,
          "name": "C#4",
          "ticks": 136560,
          "time": 142.25,
          "velocity": 0.5039370078740157
        },
        {
          "duration": 0.055208333333325754,
          "durationTicks": 53,
          "midi": 65,
          "name": "F4",
          "ticks": 136560,
          "time": 142.25,
          "velocity": 0.5039370078740157
        },
        {
          "duration": 0.055208333333325754,
          "durationTicks": 53,
          "midi": 68,
          "name": "G#4",
          "ticks": 136560,
          "time": 142.25,
          "velocity": 0.5039370078740157
        },
        {
          "duration": 0.04479166666666856,
          "durationTicks": 43,
          "midi": 65,
          "name": "F4",
          "ticks": 136800,
          "time": 142.5,
          "velocity": 0.5039370078740157
        },
        {
          "duration": 0.03125,
          "durationTicks": 30,
          "midi": 61,
          "name": "C#4",
          "ticks": 136800,
          "time": 142.5,
          "velocity": 0.5039370078740157
        },
        {
          "duration": 0.039583333333325754,
          "durationTicks": 38,
          "midi": 68,
          "name": "G#4",
          "ticks": 136800,
          "time": 142.5,
          "velocity": 0.5039370078740157
        },
        {
          "duration": 0.05208333333334281,
          "durationTicks": 50,
          "midi": 61,
          "name": "C#4",
          "ticks": 137040,
          "time": 142.75,
          "velocity": 0.5039370078740157
        },
        {
          "duration": 0.05000000000001137,
          "durationTicks": 48,
          "midi": 68,
          "name": "G#4",
          "ticks": 137040,
          "time": 142.75,
          "velocity": 0.5039370078740157
        },
        {
          "duration": 0.04479166666666856,
          "durationTicks": 43,
          "midi": 65,
          "name": "F4",
          "ticks": 137040,
          "time": 142.75,
          "velocity": 0.5039370078740157
        },
        {
          "duration": 0.04166666666665719,
          "durationTicks": 40,
          "midi": 61,
          "name": "C#4",
          "ticks": 137280,
          "time": 143,
          "velocity": 0.5039370078740157
        },
        {
          "duration": 0.04166666666665719,
          "durationTicks": 40,
          "midi": 65,
          "name": "F4",
          "ticks": 137280,
          "time": 143,
          "velocity": 0.5039370078740157
        },
        {
          "duration": 0.04166666666665719,
          "durationTicks": 40,
          "midi": 68,
          "name": "G#4",
          "ticks": 137280,
          "time": 143,
          "velocity": 0.5039370078740157
        },
        {
          "duration": 0.04479166666666856,
          "durationTicks": 43,
          "midi": 70,
          "name": "A#4",
          "ticks": 137400,
          "time": 143.125,
          "velocity": 0.5039370078740157
        },
        {
          "duration": 0.03125,
          "durationTicks": 30,
          "midi": 63,
          "name": "D#4",
          "ticks": 137400,
          "time": 143.125,
          "velocity": 0.5039370078740157
        },
        {
          "duration": 0.03437500000001137,
          "durationTicks": 33,
          "midi": 67,
          "name": "G4",
          "ticks": 137520,
          "time": 143.25,
          "velocity": 0.5039370078740157
        },
        {
          "duration": 0.05208333333334281,
          "durationTicks": 50,
          "midi": 63,
          "name": "D#4",
          "ticks": 137640,
          "time": 143.375,
          "velocity": 0.5039370078740157
        },
        {
          "duration": 0.05000000000001137,
          "durationTicks": 48,
          "midi": 70,
          "name": "A#4",
          "ticks": 137640,
          "time": 143.375,
          "velocity": 0.5039370078740157
        },
        {
          "duration": 0.04166666666665719,
          "durationTicks": 40,
          "midi": 67,
          "name": "G4",
          "ticks": 137640,
          "time": 143.375,
          "velocity": 0.5039370078740157
        },
        {
          "duration": 0.05729166666665719,
          "durationTicks": 55,
          "midi": 63,
          "name": "D#4",
          "ticks": 137880,
          "time": 143.625,
          "velocity": 0.5039370078740157
        },
        {
          "duration": 0.05000000000001137,
          "durationTicks": 48,
          "midi": 70,
          "name": "A#4",
          "ticks": 137880,
          "time": 143.625,
          "velocity": 0.5039370078740157
        },
        {
          "duration": 0.05208333333334281,
          "durationTicks": 50,
          "midi": 67,
          "name": "G4",
          "ticks": 137880,
          "time": 143.625,
          "velocity": 0.5039370078740157
        },
        {
          "duration": 0.04166666666665719,
          "durationTicks": 40,
          "midi": 70,
          "name": "A#4",
          "ticks": 138120,
          "time": 143.875,
          "velocity": 0.5039370078740157
        },
        {
          "duration": 0.020833333333342807,
          "durationTicks": 20,
          "midi": 67,
          "name": "G4",
          "ticks": 138120,
          "time": 143.875,
          "velocity": 0.5039370078740157
        },
        {
          "duration": 0.15625,
          "durationTicks": 150,
          "midi": 63,
          "name": "D#4",
          "ticks": 138120,
          "time": 143.875,
          "velocity": 0.5039370078740157
        },
        {
          "duration": 0.03645833333334281,
          "durationTicks": 35,
          "midi": 70,
          "name": "A#4",
          "ticks": 138240,
          "time": 144,
          "velocity": 0.5039370078740157
        },
        {
          "duration": 0.03437500000001137,
          "durationTicks": 33,
          "midi": 67,
          "name": "G4",
          "ticks": 138240,
          "time": 144,
          "velocity": 0.5039370078740157
        },
        {
          "duration": 0.06041666666666856,
          "durationTicks": 58,
          "midi": 69,
          "name": "A4",
          "ticks": 138480,
          "time": 144.25,
          "velocity": 0.5039370078740157
        },
        {
          "duration": 0.05208333333334281,
          "durationTicks": 50,
          "midi": 65,
          "name": "F4",
          "ticks": 138480,
          "time": 144.25,
          "velocity": 0.5039370078740157
        },
        {
          "duration": 0.04479166666666856,
          "durationTicks": 43,
          "midi": 72,
          "name": "C5",
          "ticks": 138480,
          "time": 144.25,
          "velocity": 0.5039370078740157
        },
        {
          "duration": 0.0625,
          "durationTicks": 60,
          "midi": 65,
          "name": "F4",
          "ticks": 138720,
          "time": 144.5,
          "velocity": 0.5039370078740157
        },
        {
          "duration": 0.05208333333334281,
          "durationTicks": 50,
          "midi": 69,
          "name": "A4",
          "ticks": 138720,
          "time": 144.5,
          "velocity": 0.5039370078740157
        },
        {
          "duration": 0.05208333333334281,
          "durationTicks": 50,
          "midi": 72,
          "name": "C5",
          "ticks": 138720,
          "time": 144.5,
          "velocity": 0.5039370078740157
        },
        {
          "duration": 0.046875,
          "durationTicks": 45,
          "midi": 69,
          "name": "A4",
          "ticks": 138960,
          "time": 144.75,
          "velocity": 0.5039370078740157
        },
        {
          "duration": 0.05000000000001137,
          "durationTicks": 48,
          "midi": 65,
          "name": "F4",
          "ticks": 138960,
          "time": 144.75,
          "velocity": 0.5039370078740157
        },
        {
          "duration": 0.04479166666666856,
          "durationTicks": 43,
          "midi": 72,
          "name": "C5",
          "ticks": 138960,
          "time": 144.75,
          "velocity": 0.5039370078740157
        },
        {
          "duration": 0.05208333333334281,
          "durationTicks": 50,
          "midi": 70,
          "name": "A#4",
          "ticks": 139200,
          "time": 145,
          "velocity": 0.5039370078740157
        },
        {
          "duration": 0.04479166666666856,
          "durationTicks": 43,
          "midi": 63,
          "name": "D#4",
          "ticks": 139200,
          "time": 145,
          "velocity": 0.5039370078740157
        },
        {
          "duration": 0.03437500000001137,
          "durationTicks": 33,
          "midi": 67,
          "name": "G4",
          "ticks": 139200,
          "time": 145,
          "velocity": 0.5039370078740157
        },
        {
          "duration": 0.0625,
          "durationTicks": 60,
          "midi": 72,
          "name": "C5",
          "ticks": 139320,
          "time": 145.125,
          "velocity": 0.5039370078740157
        },
        {
          "duration": 0.0625,
          "durationTicks": 60,
          "midi": 69,
          "name": "A4",
          "ticks": 139320,
          "time": 145.125,
          "velocity": 0.5039370078740157
        },
        {
          "duration": 0.0625,
          "durationTicks": 60,
          "midi": 65,
          "name": "F4",
          "ticks": 139320,
          "time": 145.125,
          "velocity": 0.5039370078740157
        },
        {
          "duration": 0.0625,
          "durationTicks": 60,
          "midi": 72,
          "name": "C5",
          "ticks": 139560,
          "time": 145.375,
          "velocity": 0.5039370078740157
        },
        {
          "duration": 0.0625,
          "durationTicks": 60,
          "midi": 69,
          "name": "A4",
          "ticks": 139560,
          "time": 145.375,
          "velocity": 0.5039370078740157
        },
        {
          "duration": 0.0625,
          "durationTicks": 60,
          "midi": 65,
          "name": "F4",
          "ticks": 139560,
          "time": 145.375,
          "velocity": 0.5039370078740157
        },
        {
          "duration": 0.055208333333325754,
          "durationTicks": 53,
          "midi": 65,
          "name": "F4",
          "ticks": 140400,
          "time": 146.25,
          "velocity": 0.5039370078740157
        },
        {
          "duration": 0.05000000000001137,
          "durationTicks": 48,
          "midi": 69,
          "name": "A4",
          "ticks": 140400,
          "time": 146.25,
          "velocity": 0.5039370078740157
        },
        {
          "duration": 0.05000000000001137,
          "durationTicks": 48,
          "midi": 72,
          "name": "C5",
          "ticks": 140400,
          "time": 146.25,
          "velocity": 0.5039370078740157
        },
        {
          "duration": 0.05729166666665719,
          "durationTicks": 55,
          "midi": 72,
          "name": "C5",
          "ticks": 140640,
          "time": 146.5,
          "velocity": 0.5039370078740157
        },
        {
          "duration": 0.05729166666665719,
          "durationTicks": 55,
          "midi": 65,
          "name": "F4",
          "ticks": 140640,
          "time": 146.5,
          "velocity": 0.5039370078740157
        },
        {
          "duration": 0.03645833333334281,
          "durationTicks": 35,
          "midi": 69,
          "name": "A4",
          "ticks": 140640,
          "time": 146.5,
          "velocity": 0.5039370078740157
        },
        {
          "duration": 0.03437500000001137,
          "durationTicks": 33,
          "midi": 72,
          "name": "C5",
          "ticks": 140880,
          "time": 146.75,
          "velocity": 0.5039370078740157
        },
        {
          "duration": 0.026041666666657193,
          "durationTicks": 25,
          "midi": 65,
          "name": "F4",
          "ticks": 140880,
          "time": 146.75,
          "velocity": 0.5039370078740157
        },
        {
          "duration": 0.01875000000001137,
          "durationTicks": 18,
          "midi": 69,
          "name": "A4",
          "ticks": 140880,
          "time": 146.75,
          "velocity": 0.5039370078740157
        },
        {
          "duration": 0.05729166666665719,
          "durationTicks": 55,
          "midi": 70,
          "name": "A#4",
          "ticks": 141000,
          "time": 146.875,
          "velocity": 0.5039370078740157
        },
        {
          "duration": 0.039583333333325754,
          "durationTicks": 38,
          "midi": 67,
          "name": "G4",
          "ticks": 141000,
          "time": 146.875,
          "velocity": 0.5039370078740157
        },
        {
          "duration": 0.04479166666666856,
          "durationTicks": 43,
          "midi": 75,
          "name": "D#5",
          "ticks": 141000,
          "time": 146.875,
          "velocity": 0.5039370078740157
        },
        {
          "duration": 0.06562500000001137,
          "durationTicks": 63,
          "midi": 75,
          "name": "D#5",
          "ticks": 141240,
          "time": 147.125,
          "velocity": 0.5039370078740157
        },
        {
          "duration": 0.055208333333325754,
          "durationTicks": 53,
          "midi": 67,
          "name": "G4",
          "ticks": 141240,
          "time": 147.125,
          "velocity": 0.5039370078740157
        },
        {
          "duration": 0.04479166666666856,
          "durationTicks": 43,
          "midi": 70,
          "name": "A#4",
          "ticks": 141240,
          "time": 147.125,
          "velocity": 0.5039370078740157
        },
        {
          "duration": 0.039583333333325754,
          "durationTicks": 38,
          "midi": 75,
          "name": "D#5",
          "ticks": 141480,
          "time": 147.375,
          "velocity": 0.5039370078740157
        },
        {
          "duration": 0.039583333333325754,
          "durationTicks": 38,
          "midi": 67,
          "name": "G4",
          "ticks": 141480,
          "time": 147.375,
          "velocity": 0.5039370078740157
        },
        {
          "duration": 0.023958333333325754,
          "durationTicks": 23,
          "midi": 70,
          "name": "A#4",
          "ticks": 141480,
          "time": 147.375,
          "velocity": 0.5039370078740157
        },
        {
          "duration": 0.04166666666665719,
          "durationTicks": 40,
          "midi": 70,
          "name": "A#4",
          "ticks": 141600,
          "time": 147.5,
          "velocity": 0.5039370078740157
        },
        {
          "duration": 0.04166666666665719,
          "durationTicks": 40,
          "midi": 74,
          "name": "D5",
          "ticks": 141600,
          "time": 147.5,
          "velocity": 0.5039370078740157
        },
        {
          "duration": 0.03645833333334281,
          "durationTicks": 35,
          "midi": 65,
          "name": "F4",
          "ticks": 141600,
          "time": 147.5,
          "velocity": 0.5039370078740157
        },
        {
          "duration": 0.05729166666665719,
          "durationTicks": 55,
          "midi": 65,
          "name": "F4",
          "ticks": 141840,
          "time": 147.75,
          "velocity": 0.5039370078740157
        },
        {
          "duration": 0.05000000000001137,
          "durationTicks": 48,
          "midi": 74,
          "name": "D5",
          "ticks": 141840,
          "time": 147.75,
          "velocity": 0.5039370078740157
        },
        {
          "duration": 0.046875,
          "durationTicks": 45,
          "midi": 70,
          "name": "A#4",
          "ticks": 141840,
          "time": 147.75,
          "velocity": 0.5039370078740157
        },
        {
          "duration": 0.055208333333325754,
          "durationTicks": 53,
          "midi": 65,
          "name": "F4",
          "ticks": 142320,
          "time": 148.25,
          "velocity": 0.5039370078740157
        },
        {
          "duration": 0.04479166666666856,
          "durationTicks": 43,
          "midi": 69,
          "name": "A4",
          "ticks": 142320,
          "time": 148.25,
          "velocity": 0.5039370078740157
        },
        {
          "duration": 0.046875,
          "durationTicks": 45,
          "midi": 72,
          "name": "C5",
          "ticks": 142320,
          "time": 148.25,
          "velocity": 0.5039370078740157
        },
        {
          "duration": 0.05000000000001137,
          "durationTicks": 48,
          "midi": 65,
          "name": "F4",
          "ticks": 142560,
          "time": 148.5,
          "velocity": 0.5039370078740157
        },
        {
          "duration": 0.03645833333334281,
          "durationTicks": 35,
          "midi": 69,
          "name": "A4",
          "ticks": 142560,
          "time": 148.5,
          "velocity": 0.5039370078740157
        },
        {
          "duration": 0.04479166666666856,
          "durationTicks": 43,
          "midi": 72,
          "name": "C5",
          "ticks": 142560,
          "time": 148.5,
          "velocity": 0.5039370078740157
        },
        {
          "duration": 0.039583333333325754,
          "durationTicks": 38,
          "midi": 72,
          "name": "C5",
          "ticks": 142800,
          "time": 148.75,
          "velocity": 0.5039370078740157
        },
        {
          "duration": 0.04166666666665719,
          "durationTicks": 40,
          "midi": 65,
          "name": "F4",
          "ticks": 142800,
          "time": 148.75,
          "velocity": 0.5039370078740157
        },
        {
          "duration": 0.026041666666657193,
          "durationTicks": 25,
          "midi": 69,
          "name": "A4",
          "ticks": 142800,
          "time": 148.75,
          "velocity": 0.5039370078740157
        },
        {
          "duration": 0.05208333333334281,
          "durationTicks": 50,
          "midi": 75,
          "name": "D#5",
          "ticks": 142920,
          "time": 148.875,
          "velocity": 0.5039370078740157
        },
        {
          "duration": 0.04166666666665719,
          "durationTicks": 40,
          "midi": 67,
          "name": "G4",
          "ticks": 142920,
          "time": 148.875,
          "velocity": 0.5039370078740157
        },
        {
          "duration": 0.03645833333334281,
          "durationTicks": 35,
          "midi": 70,
          "name": "A#4",
          "ticks": 142920,
          "time": 148.875,
          "velocity": 0.5039370078740157
        },
        {
          "duration": 0.046875,
          "durationTicks": 45,
          "midi": 75,
          "name": "D#5",
          "ticks": 143160,
          "time": 149.125,
          "velocity": 0.5039370078740157
        },
        {
          "duration": 0.03437500000001137,
          "durationTicks": 33,
          "midi": 70,
          "name": "A#4",
          "ticks": 143160,
          "time": 149.125,
          "velocity": 0.5039370078740157
        },
        {
          "duration": 0.039583333333325754,
          "durationTicks": 38,
          "midi": 67,
          "name": "G4",
          "ticks": 143160,
          "time": 149.125,
          "velocity": 0.5039370078740157
        },
        {
          "duration": 0.05000000000001137,
          "durationTicks": 48,
          "midi": 70,
          "name": "A#4",
          "ticks": 143280,
          "time": 149.25,
          "velocity": 0.5039370078740157
        },
        {
          "duration": 0.046875,
          "durationTicks": 45,
          "midi": 74,
          "name": "D5",
          "ticks": 143280,
          "time": 149.25,
          "velocity": 0.5039370078740157
        },
        {
          "duration": 0.046875,
          "durationTicks": 45,
          "midi": 65,
          "name": "F4",
          "ticks": 143280,
          "time": 149.25,
          "velocity": 0.5039370078740157
        },
        {
          "duration": 0.06041666666666856,
          "durationTicks": 58,
          "midi": 65,
          "name": "F4",
          "ticks": 143520,
          "time": 149.5,
          "velocity": 0.5039370078740157
        },
        {
          "duration": 0.05208333333334281,
          "durationTicks": 50,
          "midi": 69,
          "name": "A4",
          "ticks": 143520,
          "time": 149.5,
          "velocity": 0.5039370078740157
        },
        {
          "duration": 0.05000000000001137,
          "durationTicks": 48,
          "midi": 72,
          "name": "C5",
          "ticks": 143520,
          "time": 149.5,
          "velocity": 0.5039370078740157
        },
        {
          "duration": 0.055208333333325754,
          "durationTicks": 53,
          "midi": 61,
          "name": "C#4",
          "ticks": 144240,
          "time": 150.25,
          "velocity": 0.5039370078740157
        },
        {
          "duration": 0.055208333333325754,
          "durationTicks": 53,
          "midi": 68,
          "name": "G#4",
          "ticks": 144240,
          "time": 150.25,
          "velocity": 0.5039370078740157
        },
        {
          "duration": 0.04479166666666856,
          "durationTicks": 43,
          "midi": 65,
          "name": "F4",
          "ticks": 144240,
          "time": 150.25,
          "velocity": 0.5039370078740157
        },
        {
          "duration": 0.055208333333325754,
          "durationTicks": 53,
          "midi": 68,
          "name": "G#4",
          "ticks": 144480,
          "time": 150.5,
          "velocity": 0.5039370078740157
        },
        {
          "duration": 0.04479166666666856,
          "durationTicks": 43,
          "midi": 61,
          "name": "C#4",
          "ticks": 144480,
          "time": 150.5,
          "velocity": 0.5039370078740157
        },
        {
          "duration": 0.04479166666666856,
          "durationTicks": 43,
          "midi": 65,
          "name": "F4",
          "ticks": 144480,
          "time": 150.5,
          "velocity": 0.5039370078740157
        },
        {
          "duration": 0.05000000000001137,
          "durationTicks": 48,
          "midi": 68,
          "name": "G#4",
          "ticks": 144720,
          "time": 150.75,
          "velocity": 0.5039370078740157
        },
        {
          "duration": 0.03645833333334281,
          "durationTicks": 35,
          "midi": 61,
          "name": "C#4",
          "ticks": 144720,
          "time": 150.75,
          "velocity": 0.5039370078740157
        },
        {
          "duration": 0.03645833333334281,
          "durationTicks": 35,
          "midi": 65,
          "name": "F4",
          "ticks": 144720,
          "time": 150.75,
          "velocity": 0.5039370078740157
        },
        {
          "duration": 0.05000000000001137,
          "durationTicks": 48,
          "midi": 68,
          "name": "G#4",
          "ticks": 144960,
          "time": 151,
          "velocity": 0.5039370078740157
        },
        {
          "duration": 0.04166666666665719,
          "durationTicks": 40,
          "midi": 65,
          "name": "F4",
          "ticks": 144960,
          "time": 151,
          "velocity": 0.5039370078740157
        },
        {
          "duration": 0.04166666666665719,
          "durationTicks": 40,
          "midi": 61,
          "name": "C#4",
          "ticks": 144960,
          "time": 151,
          "velocity": 0.5039370078740157
        },
        {
          "duration": 0.05208333333334281,
          "durationTicks": 50,
          "midi": 70,
          "name": "A#4",
          "ticks": 145080,
          "time": 151.125,
          "velocity": 0.5039370078740157
        },
        {
          "duration": 0.03645833333334281,
          "durationTicks": 35,
          "midi": 67,
          "name": "G4",
          "ticks": 145080,
          "time": 151.125,
          "velocity": 0.5039370078740157
        },
        {
          "duration": 0.02916666666666856,
          "durationTicks": 28,
          "midi": 63,
          "name": "D#4",
          "ticks": 145080,
          "time": 151.125,
          "velocity": 0.5039370078740157
        },
        {
          "duration": 0.046875,
          "durationTicks": 45,
          "midi": 70,
          "name": "A#4",
          "ticks": 145320,
          "time": 151.375,
          "velocity": 0.5039370078740157
        },
        {
          "duration": 0.04166666666665719,
          "durationTicks": 40,
          "midi": 63,
          "name": "D#4",
          "ticks": 145320,
          "time": 151.375,
          "velocity": 0.5039370078740157
        },
        {
          "duration": 0.03645833333334281,
          "durationTicks": 35,
          "midi": 67,
          "name": "G4",
          "ticks": 145320,
          "time": 151.375,
          "velocity": 0.5039370078740157
        },
        {
          "duration": 0.05000000000001137,
          "durationTicks": 48,
          "midi": 70,
          "name": "A#4",
          "ticks": 145560,
          "time": 151.625,
          "velocity": 0.5039370078740157
        },
        {
          "duration": 0.039583333333325754,
          "durationTicks": 38,
          "midi": 67,
          "name": "G4",
          "ticks": 145560,
          "time": 151.625,
          "velocity": 0.5039370078740157
        },
        {
          "duration": 0.03125,
          "durationTicks": 30,
          "midi": 63,
          "name": "D#4",
          "ticks": 145560,
          "time": 151.625,
          "velocity": 0.5039370078740157
        },
        {
          "duration": 0.02916666666666856,
          "durationTicks": 28,
          "midi": 70,
          "name": "A#4",
          "ticks": 145800,
          "time": 151.875,
          "velocity": 0.5039370078740157
        },
        {
          "duration": 0.020833333333342807,
          "durationTicks": 20,
          "midi": 67,
          "name": "G4",
          "ticks": 145800,
          "time": 151.875,
          "velocity": 0.5039370078740157
        },
        {
          "duration": 0.015625,
          "durationTicks": 15,
          "midi": 63,
          "name": "D#4",
          "ticks": 145800,
          "time": 151.875,
          "velocity": 0.5039370078740157
        },
        {
          "duration": 0.01875000000001137,
          "durationTicks": 18,
          "midi": 63,
          "name": "D#4",
          "ticks": 145920,
          "time": 152,
          "velocity": 0.5039370078740157
        },
        {
          "duration": 0.013541666666668561,
          "durationTicks": 13,
          "midi": 70,
          "name": "A#4",
          "ticks": 145920,
          "time": 152,
          "velocity": 0.5039370078740157
        },
        {
          "duration": 0.010416666666657193,
          "durationTicks": 10,
          "midi": 67,
          "name": "G4",
          "ticks": 145920,
          "time": 152,
          "velocity": 0.5039370078740157
        },
        {
          "duration": 0.04166666666665719,
          "durationTicks": 40,
          "midi": 65,
          "name": "F4",
          "ticks": 146160,
          "time": 152.25,
          "velocity": 0.5039370078740157
        },
        {
          "duration": 0.04479166666666856,
          "durationTicks": 43,
          "midi": 69,
          "name": "A4",
          "ticks": 146160,
          "time": 152.25,
          "velocity": 0.5039370078740157
        },
        {
          "duration": 0.04166666666665719,
          "durationTicks": 40,
          "midi": 72,
          "name": "C5",
          "ticks": 146160,
          "time": 152.25,
          "velocity": 0.5039370078740157
        },
        {
          "duration": 0.04166666666665719,
          "durationTicks": 40,
          "midi": 69,
          "name": "A4",
          "ticks": 146400,
          "time": 152.5,
          "velocity": 0.5039370078740157
        },
        {
          "duration": 0.04479166666666856,
          "durationTicks": 43,
          "midi": 65,
          "name": "F4",
          "ticks": 146400,
          "time": 152.5,
          "velocity": 0.5039370078740157
        },
        {
          "duration": 0.039583333333325754,
          "durationTicks": 38,
          "midi": 72,
          "name": "C5",
          "ticks": 146400,
          "time": 152.5,
          "velocity": 0.5039370078740157
        },
        {
          "duration": 0.039583333333325754,
          "durationTicks": 38,
          "midi": 65,
          "name": "F4",
          "ticks": 146640,
          "time": 152.75,
          "velocity": 0.5039370078740157
        },
        {
          "duration": 0.039583333333325754,
          "durationTicks": 38,
          "midi": 69,
          "name": "A4",
          "ticks": 146640,
          "time": 152.75,
          "velocity": 0.5039370078740157
        },
        {
          "duration": 0.039583333333325754,
          "durationTicks": 38,
          "midi": 72,
          "name": "C5",
          "ticks": 146640,
          "time": 152.75,
          "velocity": 0.5039370078740157
        },
        {
          "duration": 0.055208333333325754,
          "durationTicks": 53,
          "midi": 70,
          "name": "A#4",
          "ticks": 146880,
          "time": 153,
          "velocity": 0.5039370078740157
        },
        {
          "duration": 0.04166666666665719,
          "durationTicks": 40,
          "midi": 63,
          "name": "D#4",
          "ticks": 146880,
          "time": 153,
          "velocity": 0.5039370078740157
        },
        {
          "duration": 0.02916666666666856,
          "durationTicks": 28,
          "midi": 67,
          "name": "G4",
          "ticks": 146880,
          "time": 153,
          "velocity": 0.5039370078740157
        },
        {
          "duration": 0.05000000000001137,
          "durationTicks": 48,
          "midi": 69,
          "name": "A4",
          "ticks": 147000,
          "time": 153.125,
          "velocity": 0.5039370078740157
        },
        {
          "duration": 0.04166666666665719,
          "durationTicks": 40,
          "midi": 65,
          "name": "F4",
          "ticks": 147000,
          "time": 153.125,
          "velocity": 0.5039370078740157
        },
        {
          "duration": 0.04479166666666856,
          "durationTicks": 43,
          "midi": 72,
          "name": "C5",
          "ticks": 147000,
          "time": 153.125,
          "velocity": 0.5039370078740157
        },
        {
          "duration": 0.046875,
          "durationTicks": 45,
          "midi": 72,
          "name": "C5",
          "ticks": 147240,
          "time": 153.375,
          "velocity": 0.5039370078740157
        },
        {
          "duration": 0.046875,
          "durationTicks": 45,
          "midi": 65,
          "name": "F4",
          "ticks": 147240,
          "time": 153.375,
          "velocity": 0.5039370078740157
        },
        {
          "duration": 0.039583333333325754,
          "durationTicks": 38,
          "midi": 69,
          "name": "A4",
          "ticks": 147240,
          "time": 153.375,
          "velocity": 0.5039370078740157
        },
        {
          "duration": 0.04479166666666856,
          "durationTicks": 43,
          "midi": 72,
          "name": "C5",
          "ticks": 147600,
          "time": 153.75,
          "velocity": 0.5039370078740157
        },
        {
          "duration": 0.03437500000001137,
          "durationTicks": 33,
          "midi": 65,
          "name": "F4",
          "ticks": 147600,
          "time": 153.75,
          "velocity": 0.5039370078740157
        },
        {
          "duration": 0.03437500000001137,
          "durationTicks": 33,
          "midi": 69,
          "name": "A4",
          "ticks": 147600,
          "time": 153.75,
          "velocity": 0.5039370078740157
        },
        {
          "duration": 0.055208333333325754,
          "durationTicks": 53,
          "midi": 61,
          "name": "C#4",
          "ticks": 148080,
          "time": 154.25,
          "velocity": 0.5039370078740157
        },
        {
          "duration": 0.055208333333325754,
          "durationTicks": 53,
          "midi": 68,
          "name": "G#4",
          "ticks": 148080,
          "time": 154.25,
          "velocity": 0.5039370078740157
        },
        {
          "duration": 0.04479166666666856,
          "durationTicks": 43,
          "midi": 65,
          "name": "F4",
          "ticks": 148080,
          "time": 154.25,
          "velocity": 0.5039370078740157
        },
        {
          "duration": 0.055208333333325754,
          "durationTicks": 53,
          "midi": 68,
          "name": "G#4",
          "ticks": 148320,
          "time": 154.5,
          "velocity": 0.5039370078740157
        },
        {
          "duration": 0.04479166666666856,
          "durationTicks": 43,
          "midi": 61,
          "name": "C#4",
          "ticks": 148320,
          "time": 154.5,
          "velocity": 0.5039370078740157
        },
        {
          "duration": 0.04479166666666856,
          "durationTicks": 43,
          "midi": 65,
          "name": "F4",
          "ticks": 148320,
          "time": 154.5,
          "velocity": 0.5039370078740157
        },
        {
          "duration": 0.05000000000001137,
          "durationTicks": 48,
          "midi": 68,
          "name": "G#4",
          "ticks": 148560,
          "time": 154.75,
          "velocity": 0.5039370078740157
        },
        {
          "duration": 0.03645833333334281,
          "durationTicks": 35,
          "midi": 61,
          "name": "C#4",
          "ticks": 148560,
          "time": 154.75,
          "velocity": 0.5039370078740157
        },
        {
          "duration": 0.03645833333334281,
          "durationTicks": 35,
          "midi": 65,
          "name": "F4",
          "ticks": 148560,
          "time": 154.75,
          "velocity": 0.5039370078740157
        },
        {
          "duration": 0.05000000000001137,
          "durationTicks": 48,
          "midi": 68,
          "name": "G#4",
          "ticks": 148800,
          "time": 155,
          "velocity": 0.5039370078740157
        },
        {
          "duration": 0.04166666666665719,
          "durationTicks": 40,
          "midi": 65,
          "name": "F4",
          "ticks": 148800,
          "time": 155,
          "velocity": 0.5039370078740157
        },
        {
          "duration": 0.04166666666665719,
          "durationTicks": 40,
          "midi": 61,
          "name": "C#4",
          "ticks": 148800,
          "time": 155,
          "velocity": 0.5039370078740157
        },
        {
          "duration": 0.05208333333334281,
          "durationTicks": 50,
          "midi": 70,
          "name": "A#4",
          "ticks": 148920,
          "time": 155.125,
          "velocity": 0.5039370078740157
        },
        {
          "duration": 0.03645833333334281,
          "durationTicks": 35,
          "midi": 67,
          "name": "G4",
          "ticks": 148920,
          "time": 155.125,
          "velocity": 0.5039370078740157
        },
        {
          "duration": 0.02916666666666856,
          "durationTicks": 28,
          "midi": 63,
          "name": "D#4",
          "ticks": 148920,
          "time": 155.125,
          "velocity": 0.5039370078740157
        },
        {
          "duration": 0.046875,
          "durationTicks": 45,
          "midi": 70,
          "name": "A#4",
          "ticks": 149160,
          "time": 155.375,
          "velocity": 0.5039370078740157
        },
        {
          "duration": 0.04166666666665719,
          "durationTicks": 40,
          "midi": 63,
          "name": "D#4",
          "ticks": 149160,
          "time": 155.375,
          "velocity": 0.5039370078740157
        },
        {
          "duration": 0.03645833333334281,
          "durationTicks": 35,
          "midi": 67,
          "name": "G4",
          "ticks": 149160,
          "time": 155.375,
          "velocity": 0.5039370078740157
        },
        {
          "duration": 0.05000000000001137,
          "durationTicks": 48,
          "midi": 70,
          "name": "A#4",
          "ticks": 149400,
          "time": 155.625,
          "velocity": 0.5039370078740157
        },
        {
          "duration": 0.039583333333325754,
          "durationTicks": 38,
          "midi": 67,
          "name": "G4",
          "ticks": 149400,
          "time": 155.625,
          "velocity": 0.5039370078740157
        },
        {
          "duration": 0.03125,
          "durationTicks": 30,
          "midi": 63,
          "name": "D#4",
          "ticks": 149400,
          "time": 155.625,
          "velocity": 0.5039370078740157
        },
        {
          "duration": 0.02916666666666856,
          "durationTicks": 28,
          "midi": 70,
          "name": "A#4",
          "ticks": 149640,
          "time": 155.875,
          "velocity": 0.5039370078740157
        },
        {
          "duration": 0.020833333333342807,
          "durationTicks": 20,
          "midi": 67,
          "name": "G4",
          "ticks": 149640,
          "time": 155.875,
          "velocity": 0.5039370078740157
        },
        {
          "duration": 0.015625,
          "durationTicks": 15,
          "midi": 63,
          "name": "D#4",
          "ticks": 149640,
          "time": 155.875,
          "velocity": 0.5039370078740157
        },
        {
          "duration": 0.01875000000001137,
          "durationTicks": 18,
          "midi": 63,
          "name": "D#4",
          "ticks": 149760,
          "time": 156,
          "velocity": 0.5039370078740157
        },
        {
          "duration": 0.013541666666668561,
          "durationTicks": 13,
          "midi": 70,
          "name": "A#4",
          "ticks": 149760,
          "time": 156,
          "velocity": 0.5039370078740157
        },
        {
          "duration": 0.010416666666657193,
          "durationTicks": 10,
          "midi": 67,
          "name": "G4",
          "ticks": 149760,
          "time": 156,
          "velocity": 0.5039370078740157
        },
        {
          "duration": 0.04166666666665719,
          "durationTicks": 40,
          "midi": 65,
          "name": "F4",
          "ticks": 150000,
          "time": 156.25,
          "velocity": 0.5039370078740157
        },
        {
          "duration": 0.04479166666666856,
          "durationTicks": 43,
          "midi": 69,
          "name": "A4",
          "ticks": 150000,
          "time": 156.25,
          "velocity": 0.5039370078740157
        },
        {
          "duration": 0.04166666666665719,
          "durationTicks": 40,
          "midi": 72,
          "name": "C5",
          "ticks": 150000,
          "time": 156.25,
          "velocity": 0.5039370078740157
        },
        {
          "duration": 0.04166666666665719,
          "durationTicks": 40,
          "midi": 69,
          "name": "A4",
          "ticks": 150240,
          "time": 156.5,
          "velocity": 0.5039370078740157
        },
        {
          "duration": 0.04479166666666856,
          "durationTicks": 43,
          "midi": 65,
          "name": "F4",
          "ticks": 150240,
          "time": 156.5,
          "velocity": 0.5039370078740157
        },
        {
          "duration": 0.039583333333325754,
          "durationTicks": 38,
          "midi": 72,
          "name": "C5",
          "ticks": 150240,
          "time": 156.5,
          "velocity": 0.5039370078740157
        },
        {
          "duration": 0.039583333333325754,
          "durationTicks": 38,
          "midi": 65,
          "name": "F4",
          "ticks": 150480,
          "time": 156.75,
          "velocity": 0.5039370078740157
        },
        {
          "duration": 0.039583333333325754,
          "durationTicks": 38,
          "midi": 69,
          "name": "A4",
          "ticks": 150480,
          "time": 156.75,
          "velocity": 0.5039370078740157
        },
        {
          "duration": 0.039583333333325754,
          "durationTicks": 38,
          "midi": 72,
          "name": "C5",
          "ticks": 150480,
          "time": 156.75,
          "velocity": 0.5039370078740157
        },
        {
          "duration": 0.055208333333325754,
          "durationTicks": 53,
          "midi": 70,
          "name": "A#4",
          "ticks": 150720,
          "time": 157,
          "velocity": 0.5039370078740157
        },
        {
          "duration": 0.04166666666665719,
          "durationTicks": 40,
          "midi": 63,
          "name": "D#4",
          "ticks": 150720,
          "time": 157,
          "velocity": 0.5039370078740157
        },
        {
          "duration": 0.02916666666666856,
          "durationTicks": 28,
          "midi": 67,
          "name": "G4",
          "ticks": 150720,
          "time": 157,
          "velocity": 0.5039370078740157
        },
        {
          "duration": 0.05000000000001137,
          "durationTicks": 48,
          "midi": 69,
          "name": "A4",
          "ticks": 150840,
          "time": 157.125,
          "velocity": 0.5039370078740157
        },
        {
          "duration": 0.04166666666665719,
          "durationTicks": 40,
          "midi": 65,
          "name": "F4",
          "ticks": 150840,
          "time": 157.125,
          "velocity": 0.5039370078740157
        },
        {
          "duration": 0.04479166666666856,
          "durationTicks": 43,
          "midi": 72,
          "name": "C5",
          "ticks": 150840,
          "time": 157.125,
          "velocity": 0.5039370078740157
        },
        {
          "duration": 0.046875,
          "durationTicks": 45,
          "midi": 72,
          "name": "C5",
          "ticks": 151080,
          "time": 157.375,
          "velocity": 0.5039370078740157
        },
        {
          "duration": 0.046875,
          "durationTicks": 45,
          "midi": 65,
          "name": "F4",
          "ticks": 151080,
          "time": 157.375,
          "velocity": 0.5039370078740157
        },
        {
          "duration": 0.039583333333325754,
          "durationTicks": 38,
          "midi": 69,
          "name": "A4",
          "ticks": 151080,
          "time": 157.375,
          "velocity": 0.5039370078740157
        },
        {
          "duration": 0.04479166666666856,
          "durationTicks": 43,
          "midi": 72,
          "name": "C5",
          "ticks": 151440,
          "time": 157.75,
          "velocity": 0.5039370078740157
        },
        {
          "duration": 0.03437500000001137,
          "durationTicks": 33,
          "midi": 65,
          "name": "F4",
          "ticks": 151440,
          "time": 157.75,
          "velocity": 0.5039370078740157
        },
        {
          "duration": 0.03437500000001137,
          "durationTicks": 33,
          "midi": 69,
          "name": "A4",
          "ticks": 151440,
          "time": 157.75,
          "velocity": 0.5039370078740157
        },
        {
          "duration": 0.11250000000001137,
          "durationTicks": 108,
          "midi": 65,
          "name": "F4",
          "ticks": 151680,
          "time": 158,
          "velocity": 0.5039370078740157
        }
      ]
    },
    {
      "channel": 3,
      "controlChanges": {
        "7": [
          {
            "number": 7,
            "ticks": 0,
            "time": 0,
            "value": 0.29133858267716534
          }
        ]
      },
      "pitchBends": [],
      "instrument": {
        "family": "brass",
        "number": 62,
        "name": "synthbrass 1"
      },
      "name": "",
      "notes": [
        {
          "duration": 0.06562499999999716,
          "durationTicks": 63,
          "midi": 68,
          "name": "G#4",
          "ticks": 97920,
          "time": 102,
          "velocity": 0.968503937007874
        },
        {
          "duration": 0.06041666666666856,
          "durationTicks": 58,
          "midi": 68,
          "name": "G#4",
          "ticks": 98040,
          "time": 102.125,
          "velocity": 0.952755905511811
        },
        {
          "duration": 0.06354166666666572,
          "durationTicks": 61,
          "midi": 68,
          "name": "G#4",
          "ticks": 98160,
          "time": 102.25,
          "velocity": 0.952755905511811
        },
        {
          "duration": 0.05833333333333712,
          "durationTicks": 56,
          "midi": 68,
          "name": "G#4",
          "ticks": 98280,
          "time": 102.375,
          "velocity": 0.984251968503937
        },
        {
          "duration": 0.06666666666666288,
          "durationTicks": 64,
          "midi": 68,
          "name": "G#4",
          "ticks": 98520,
          "time": 102.625,
          "velocity": 0.968503937007874
        },
        {
          "duration": 0.056250000000005684,
          "durationTicks": 54,
          "midi": 68,
          "name": "G#4",
          "ticks": 98760,
          "time": 102.875,
          "velocity": 0.968503937007874
        },
        {
          "duration": 0.078125,
          "durationTicks": 75,
          "midi": 68,
          "name": "G#4",
          "ticks": 98880,
          "time": 103,
          "velocity": 0.968503937007874
        },
        {
          "duration": 0.06874999999999432,
          "durationTicks": 66,
          "midi": 68,
          "name": "G#4",
          "ticks": 99120,
          "time": 103.25,
          "velocity": 0.9921259842519685
        },
        {
          "duration": 0.05937500000000284,
          "durationTicks": 57,
          "midi": 68,
          "name": "G#4",
          "ticks": 99360,
          "time": 103.5,
          "velocity": 0.984251968503937
        },
        {
          "duration": 0.055208333333339965,
          "durationTicks": 53,
          "midi": 68,
          "name": "G#4",
          "ticks": 99480,
          "time": 103.625,
          "velocity": 1
        },
        {
          "duration": 0.057291666666671404,
          "durationTicks": 55,
          "midi": 68,
          "name": "G#4",
          "ticks": 99600,
          "time": 103.75,
          "velocity": 0.968503937007874
        },
        {
          "duration": 0.06458333333333144,
          "durationTicks": 62,
          "midi": 68,
          "name": "G#4",
          "ticks": 99720,
          "time": 103.875,
          "velocity": 0.952755905511811
        },
        {
          "duration": 0.05937500000000284,
          "durationTicks": 57,
          "midi": 65,
          "name": "F4",
          "ticks": 99840,
          "time": 104,
          "velocity": 0.905511811023622
        },
        {
          "duration": 0.06145833333333428,
          "durationTicks": 59,
          "midi": 65,
          "name": "F4",
          "ticks": 99960,
          "time": 104.125,
          "velocity": 0.8267716535433071
        },
        {
          "duration": 0.05937500000000284,
          "durationTicks": 57,
          "midi": 65,
          "name": "F4",
          "ticks": 100080,
          "time": 104.25,
          "velocity": 0.8582677165354331
        },
        {
          "duration": 0.06145833333333428,
          "durationTicks": 59,
          "midi": 65,
          "name": "F4",
          "ticks": 100200,
          "time": 104.375,
          "velocity": 0.8582677165354331
        },
        {
          "duration": 0.05937500000000284,
          "durationTicks": 57,
          "midi": 65,
          "name": "F4",
          "ticks": 100440,
          "time": 104.625,
          "velocity": 0.889763779527559
        },
        {
          "duration": 0.06041666666666856,
          "durationTicks": 58,
          "midi": 65,
          "name": "F4",
          "ticks": 100680,
          "time": 104.875,
          "velocity": 0.7322834645669292
        },
        {
          "duration": 0.06562499999999716,
          "durationTicks": 63,
          "midi": 65,
          "name": "F4",
          "ticks": 100800,
          "time": 105,
          "velocity": 0.8740157480314961
        },
        {
          "duration": 0.06666666666666288,
          "durationTicks": 64,
          "midi": 65,
          "name": "F4",
          "ticks": 101040,
          "time": 105.25,
          "velocity": 0.8740157480314961
        },
        {
          "duration": 0.06354166666666572,
          "durationTicks": 61,
          "midi": 65,
          "name": "F4",
          "ticks": 101280,
          "time": 105.5,
          "velocity": 0.8740157480314961
        },
        {
          "duration": 0.0625,
          "durationTicks": 60,
          "midi": 65,
          "name": "F4",
          "ticks": 101400,
          "time": 105.625,
          "velocity": 0.937007874015748
        },
        {
          "duration": 0.0625,
          "durationTicks": 60,
          "midi": 65,
          "name": "F4",
          "ticks": 101520,
          "time": 105.75,
          "velocity": 0.8740157480314961
        },
        {
          "duration": 0.055208333333339965,
          "durationTicks": 53,
          "midi": 66,
          "name": "F#4",
          "ticks": 101760,
          "time": 106,
          "velocity": 0.952755905511811
        },
        {
          "duration": 0.056250000000005684,
          "durationTicks": 54,
          "midi": 66,
          "name": "F#4",
          "ticks": 101880,
          "time": 106.125,
          "velocity": 0.905511811023622
        },
        {
          "duration": 0.057291666666671404,
          "durationTicks": 55,
          "midi": 66,
          "name": "F#4",
          "ticks": 102000,
          "time": 106.25,
          "velocity": 0.984251968503937
        },
        {
          "duration": 0.06666666666666288,
          "durationTicks": 64,
          "midi": 66,
          "name": "F#4",
          "ticks": 102120,
          "time": 106.375,
          "velocity": 0.968503937007874
        },
        {
          "duration": 0.053124999999994316,
          "durationTicks": 51,
          "midi": 66,
          "name": "F#4",
          "ticks": 102360,
          "time": 106.625,
          "velocity": 0.9921259842519685
        },
        {
          "duration": 0.05104166666666288,
          "durationTicks": 49,
          "midi": 66,
          "name": "F#4",
          "ticks": 102600,
          "time": 106.875,
          "velocity": 0.984251968503937
        },
        {
          "duration": 0.055208333333339965,
          "durationTicks": 53,
          "midi": 66,
          "name": "F#4",
          "ticks": 102720,
          "time": 107,
          "velocity": 1
        },
        {
          "duration": 0.06874999999999432,
          "durationTicks": 66,
          "midi": 66,
          "name": "F#4",
          "ticks": 102960,
          "time": 107.25,
          "velocity": 0.9921259842519685
        },
        {
          "duration": 0.0625,
          "durationTicks": 60,
          "midi": 66,
          "name": "F#4",
          "ticks": 103200,
          "time": 107.5,
          "velocity": 0.968503937007874
        },
        {
          "duration": 0.052083333333328596,
          "durationTicks": 50,
          "midi": 66,
          "name": "F#4",
          "ticks": 103320,
          "time": 107.625,
          "velocity": 0.968503937007874
        },
        {
          "duration": 0.06145833333333428,
          "durationTicks": 59,
          "midi": 66,
          "name": "F#4",
          "ticks": 103440,
          "time": 107.75,
          "velocity": 1
        },
        {
          "duration": 0.054166666666660035,
          "durationTicks": 52,
          "midi": 66,
          "name": "F#4",
          "ticks": 103560,
          "time": 107.875,
          "velocity": 0.968503937007874
        },
        {
          "duration": 0.05833333333333712,
          "durationTicks": 56,
          "midi": 63,
          "name": "D#4",
          "ticks": 103680,
          "time": 108,
          "velocity": 0.9921259842519685
        },
        {
          "duration": 0.04895833333333144,
          "durationTicks": 47,
          "midi": 63,
          "name": "D#4",
          "ticks": 103800,
          "time": 108.125,
          "velocity": 0.8110236220472441
        },
        {
          "duration": 0.056250000000005684,
          "durationTicks": 54,
          "midi": 63,
          "name": "D#4",
          "ticks": 103920,
          "time": 108.25,
          "velocity": 1
        },
        {
          "duration": 0.04999999999999716,
          "durationTicks": 48,
          "midi": 63,
          "name": "D#4",
          "ticks": 104040,
          "time": 108.375,
          "velocity": 0.968503937007874
        },
        {
          "duration": 0.06145833333333428,
          "durationTicks": 59,
          "midi": 63,
          "name": "D#4",
          "ticks": 104280,
          "time": 108.625,
          "velocity": 1
        },
        {
          "duration": 0.05937500000000284,
          "durationTicks": 57,
          "midi": 63,
          "name": "D#4",
          "ticks": 104520,
          "time": 108.875,
          "velocity": 1
        },
        {
          "duration": 0.05104166666666288,
          "durationTicks": 49,
          "midi": 63,
          "name": "D#4",
          "ticks": 104640,
          "time": 109,
          "velocity": 0.984251968503937
        },
        {
          "duration": 0.06145833333333428,
          "durationTicks": 59,
          "midi": 63,
          "name": "D#4",
          "ticks": 104880,
          "time": 109.25,
          "velocity": 0.9921259842519685
        },
        {
          "duration": 0.06041666666666856,
          "durationTicks": 58,
          "midi": 63,
          "name": "D#4",
          "ticks": 105120,
          "time": 109.5,
          "velocity": 1
        },
        {
          "duration": 0.046875,
          "durationTicks": 45,
          "midi": 63,
          "name": "D#4",
          "ticks": 105240,
          "time": 109.625,
          "velocity": 0.984251968503937
        },
        {
          "duration": 0.054166666666660035,
          "durationTicks": 52,
          "midi": 63,
          "name": "D#4",
          "ticks": 105360,
          "time": 109.75,
          "velocity": 1
        },
        {
          "duration": 0.06562499999999716,
          "durationTicks": 63,
          "midi": 68,
          "name": "G#4",
          "ticks": 105600,
          "time": 110,
          "velocity": 0.968503937007874
        },
        {
          "duration": 0.06041666666666856,
          "durationTicks": 58,
          "midi": 68,
          "name": "G#4",
          "ticks": 105720,
          "time": 110.125,
          "velocity": 0.952755905511811
        },
        {
          "duration": 0.06354166666666572,
          "durationTicks": 61,
          "midi": 68,
          "name": "G#4",
          "ticks": 105840,
          "time": 110.25,
          "velocity": 0.952755905511811
        },
        {
          "duration": 0.05833333333333712,
          "durationTicks": 56,
          "midi": 68,
          "name": "G#4",
          "ticks": 105960,
          "time": 110.375,
          "velocity": 0.984251968503937
        },
        {
          "duration": 0.06666666666666288,
          "durationTicks": 64,
          "midi": 68,
          "name": "G#4",
          "ticks": 106200,
          "time": 110.625,
          "velocity": 0.968503937007874
        },
        {
          "duration": 0.056250000000005684,
          "durationTicks": 54,
          "midi": 68,
          "name": "G#4",
          "ticks": 106440,
          "time": 110.875,
          "velocity": 0.968503937007874
        },
        {
          "duration": 0.078125,
          "durationTicks": 75,
          "midi": 68,
          "name": "G#4",
          "ticks": 106560,
          "time": 111,
          "velocity": 0.968503937007874
        },
        {
          "duration": 0.06874999999999432,
          "durationTicks": 66,
          "midi": 68,
          "name": "G#4",
          "ticks": 106800,
          "time": 111.25,
          "velocity": 0.9921259842519685
        },
        {
          "duration": 0.05937500000000284,
          "durationTicks": 57,
          "midi": 68,
          "name": "G#4",
          "ticks": 107040,
          "time": 111.5,
          "velocity": 0.984251968503937
        },
        {
          "duration": 0.055208333333339965,
          "durationTicks": 53,
          "midi": 68,
          "name": "G#4",
          "ticks": 107160,
          "time": 111.625,
          "velocity": 1
        },
        {
          "duration": 0.057291666666671404,
          "durationTicks": 55,
          "midi": 68,
          "name": "G#4",
          "ticks": 107280,
          "time": 111.75,
          "velocity": 0.968503937007874
        },
        {
          "duration": 0.06458333333333144,
          "durationTicks": 62,
          "midi": 68,
          "name": "G#4",
          "ticks": 107400,
          "time": 111.875,
          "velocity": 0.952755905511811
        },
        {
          "duration": 0.05937500000000284,
          "durationTicks": 57,
          "midi": 65,
          "name": "F4",
          "ticks": 107520,
          "time": 112,
          "velocity": 0.905511811023622
        },
        {
          "duration": 0.06145833333333428,
          "durationTicks": 59,
          "midi": 65,
          "name": "F4",
          "ticks": 107640,
          "time": 112.125,
          "velocity": 0.8267716535433071
        },
        {
          "duration": 0.05937500000000284,
          "durationTicks": 57,
          "midi": 65,
          "name": "F4",
          "ticks": 107760,
          "time": 112.25,
          "velocity": 0.8582677165354331
        },
        {
          "duration": 0.06145833333333428,
          "durationTicks": 59,
          "midi": 65,
          "name": "F4",
          "ticks": 107880,
          "time": 112.375,
          "velocity": 0.8582677165354331
        },
        {
          "duration": 0.05937500000000284,
          "durationTicks": 57,
          "midi": 65,
          "name": "F4",
          "ticks": 108120,
          "time": 112.625,
          "velocity": 0.889763779527559
        },
        {
          "duration": 0.06041666666666856,
          "durationTicks": 58,
          "midi": 65,
          "name": "F4",
          "ticks": 108360,
          "time": 112.875,
          "velocity": 0.7322834645669292
        },
        {
          "duration": 0.06562499999999716,
          "durationTicks": 63,
          "midi": 65,
          "name": "F4",
          "ticks": 108480,
          "time": 113,
          "velocity": 0.8740157480314961
        },
        {
          "duration": 0.06666666666666288,
          "durationTicks": 64,
          "midi": 65,
          "name": "F4",
          "ticks": 108720,
          "time": 113.25,
          "velocity": 0.8740157480314961
        },
        {
          "duration": 0.06354166666666572,
          "durationTicks": 61,
          "midi": 65,
          "name": "F4",
          "ticks": 108960,
          "time": 113.5,
          "velocity": 0.8740157480314961
        },
        {
          "duration": 0.0625,
          "durationTicks": 60,
          "midi": 65,
          "name": "F4",
          "ticks": 109080,
          "time": 113.625,
          "velocity": 0.937007874015748
        },
        {
          "duration": 0.0625,
          "durationTicks": 60,
          "midi": 65,
          "name": "F4",
          "ticks": 109200,
          "time": 113.75,
          "velocity": 0.8740157480314961
        },
        {
          "duration": 0.055208333333339965,
          "durationTicks": 53,
          "midi": 66,
          "name": "F#4",
          "ticks": 109440,
          "time": 114,
          "velocity": 0.952755905511811
        },
        {
          "duration": 0.056250000000005684,
          "durationTicks": 54,
          "midi": 66,
          "name": "F#4",
          "ticks": 109560,
          "time": 114.125,
          "velocity": 0.905511811023622
        },
        {
          "duration": 0.057291666666671404,
          "durationTicks": 55,
          "midi": 66,
          "name": "F#4",
          "ticks": 109680,
          "time": 114.25,
          "velocity": 0.984251968503937
        },
        {
          "duration": 0.06666666666666288,
          "durationTicks": 64,
          "midi": 66,
          "name": "F#4",
          "ticks": 109800,
          "time": 114.375,
          "velocity": 0.968503937007874
        },
        {
          "duration": 0.053124999999994316,
          "durationTicks": 51,
          "midi": 66,
          "name": "F#4",
          "ticks": 110040,
          "time": 114.625,
          "velocity": 0.9921259842519685
        },
        {
          "duration": 0.05104166666666288,
          "durationTicks": 49,
          "midi": 66,
          "name": "F#4",
          "ticks": 110280,
          "time": 114.875,
          "velocity": 0.984251968503937
        },
        {
          "duration": 0.055208333333339965,
          "durationTicks": 53,
          "midi": 66,
          "name": "F#4",
          "ticks": 110400,
          "time": 115,
          "velocity": 1
        },
        {
          "duration": 0.06874999999999432,
          "durationTicks": 66,
          "midi": 66,
          "name": "F#4",
          "ticks": 110640,
          "time": 115.25,
          "velocity": 0.9921259842519685
        },
        {
          "duration": 0.0625,
          "durationTicks": 60,
          "midi": 66,
          "name": "F#4",
          "ticks": 110880,
          "time": 115.5,
          "velocity": 0.968503937007874
        },
        {
          "duration": 0.052083333333328596,
          "durationTicks": 50,
          "midi": 66,
          "name": "F#4",
          "ticks": 111000,
          "time": 115.625,
          "velocity": 0.968503937007874
        },
        {
          "duration": 0.06145833333333428,
          "durationTicks": 59,
          "midi": 66,
          "name": "F#4",
          "ticks": 111120,
          "time": 115.75,
          "velocity": 1
        },
        {
          "duration": 0.054166666666660035,
          "durationTicks": 52,
          "midi": 66,
          "name": "F#4",
          "ticks": 111240,
          "time": 115.875,
          "velocity": 0.968503937007874
        },
        {
          "duration": 0.05833333333333712,
          "durationTicks": 56,
          "midi": 63,
          "name": "D#4",
          "ticks": 111360,
          "time": 116,
          "velocity": 0.9921259842519685
        },
        {
          "duration": 0.04895833333333144,
          "durationTicks": 47,
          "midi": 63,
          "name": "D#4",
          "ticks": 111480,
          "time": 116.125,
          "velocity": 0.8110236220472441
        },
        {
          "duration": 0.056250000000005684,
          "durationTicks": 54,
          "midi": 63,
          "name": "D#4",
          "ticks": 111600,
          "time": 116.25,
          "velocity": 1
        },
        {
          "duration": 0.04999999999999716,
          "durationTicks": 48,
          "midi": 63,
          "name": "D#4",
          "ticks": 111720,
          "time": 116.375,
          "velocity": 0.968503937007874
        },
        {
          "duration": 0.06145833333333428,
          "durationTicks": 59,
          "midi": 63,
          "name": "D#4",
          "ticks": 111960,
          "time": 116.625,
          "velocity": 1
        },
        {
          "duration": 0.05937500000000284,
          "durationTicks": 57,
          "midi": 63,
          "name": "D#4",
          "ticks": 112200,
          "time": 116.875,
          "velocity": 1
        },
        {
          "duration": 0.05104166666666288,
          "durationTicks": 49,
          "midi": 63,
          "name": "D#4",
          "ticks": 112320,
          "time": 117,
          "velocity": 0.984251968503937
        },
        {
          "duration": 0.06145833333333428,
          "durationTicks": 59,
          "midi": 63,
          "name": "D#4",
          "ticks": 112560,
          "time": 117.25,
          "velocity": 0.9921259842519685
        },
        {
          "duration": 0.06041666666666856,
          "durationTicks": 58,
          "midi": 63,
          "name": "D#4",
          "ticks": 112800,
          "time": 117.5,
          "velocity": 1
        },
        {
          "duration": 0.046875,
          "durationTicks": 45,
          "midi": 63,
          "name": "D#4",
          "ticks": 112920,
          "time": 117.625,
          "velocity": 0.984251968503937
        },
        {
          "duration": 0.054166666666660035,
          "durationTicks": 52,
          "midi": 63,
          "name": "D#4",
          "ticks": 113040,
          "time": 117.75,
          "velocity": 1
        },
        {
          "duration": 0.06562499999999716,
          "durationTicks": 63,
          "midi": 68,
          "name": "G#4",
          "ticks": 113280,
          "time": 118,
          "velocity": 0.968503937007874
        },
        {
          "duration": 0.06041666666666856,
          "durationTicks": 58,
          "midi": 68,
          "name": "G#4",
          "ticks": 113400,
          "time": 118.125,
          "velocity": 0.952755905511811
        },
        {
          "duration": 0.06354166666666572,
          "durationTicks": 61,
          "midi": 68,
          "name": "G#4",
          "ticks": 113520,
          "time": 118.25,
          "velocity": 0.952755905511811
        },
        {
          "duration": 0.05833333333333712,
          "durationTicks": 56,
          "midi": 68,
          "name": "G#4",
          "ticks": 113640,
          "time": 118.375,
          "velocity": 0.984251968503937
        },
        {
          "duration": 0.06666666666666288,
          "durationTicks": 64,
          "midi": 68,
          "name": "G#4",
          "ticks": 113880,
          "time": 118.625,
          "velocity": 0.968503937007874
        },
        {
          "duration": 0.056250000000005684,
          "durationTicks": 54,
          "midi": 68,
          "name": "G#4",
          "ticks": 114120,
          "time": 118.875,
          "velocity": 0.968503937007874
        },
        {
          "duration": 0.078125,
          "durationTicks": 75,
          "midi": 68,
          "name": "G#4",
          "ticks": 114240,
          "time": 119,
          "velocity": 0.968503937007874
        },
        {
          "duration": 0.06874999999999432,
          "durationTicks": 66,
          "midi": 68,
          "name": "G#4",
          "ticks": 114480,
          "time": 119.25,
          "velocity": 0.9921259842519685
        },
        {
          "duration": 0.05937500000000284,
          "durationTicks": 57,
          "midi": 68,
          "name": "G#4",
          "ticks": 114720,
          "time": 119.5,
          "velocity": 0.984251968503937
        },
        {
          "duration": 0.055208333333339965,
          "durationTicks": 53,
          "midi": 68,
          "name": "G#4",
          "ticks": 114840,
          "time": 119.625,
          "velocity": 1
        },
        {
          "duration": 0.057291666666671404,
          "durationTicks": 55,
          "midi": 68,
          "name": "G#4",
          "ticks": 114960,
          "time": 119.75,
          "velocity": 0.968503937007874
        },
        {
          "duration": 0.06458333333333144,
          "durationTicks": 62,
          "midi": 68,
          "name": "G#4",
          "ticks": 115080,
          "time": 119.875,
          "velocity": 0.952755905511811
        },
        {
          "duration": 0.05937500000000284,
          "durationTicks": 57,
          "midi": 65,
          "name": "F4",
          "ticks": 115200,
          "time": 120,
          "velocity": 0.905511811023622
        },
        {
          "duration": 0.06145833333333428,
          "durationTicks": 59,
          "midi": 65,
          "name": "F4",
          "ticks": 115320,
          "time": 120.125,
          "velocity": 0.8267716535433071
        },
        {
          "duration": 0.05937500000000284,
          "durationTicks": 57,
          "midi": 65,
          "name": "F4",
          "ticks": 115440,
          "time": 120.25,
          "velocity": 0.8582677165354331
        },
        {
          "duration": 0.06145833333333428,
          "durationTicks": 59,
          "midi": 65,
          "name": "F4",
          "ticks": 115560,
          "time": 120.375,
          "velocity": 0.8582677165354331
        },
        {
          "duration": 0.05937500000000284,
          "durationTicks": 57,
          "midi": 65,
          "name": "F4",
          "ticks": 115800,
          "time": 120.625,
          "velocity": 0.889763779527559
        },
        {
          "duration": 0.06041666666666856,
          "durationTicks": 58,
          "midi": 65,
          "name": "F4",
          "ticks": 116040,
          "time": 120.875,
          "velocity": 0.7322834645669292
        },
        {
          "duration": 0.06562499999999716,
          "durationTicks": 63,
          "midi": 65,
          "name": "F4",
          "ticks": 116160,
          "time": 121,
          "velocity": 0.8740157480314961
        },
        {
          "duration": 0.06666666666666288,
          "durationTicks": 64,
          "midi": 65,
          "name": "F4",
          "ticks": 116400,
          "time": 121.25,
          "velocity": 0.8740157480314961
        },
        {
          "duration": 0.06354166666666572,
          "durationTicks": 61,
          "midi": 65,
          "name": "F4",
          "ticks": 116640,
          "time": 121.5,
          "velocity": 0.8740157480314961
        },
        {
          "duration": 0.0625,
          "durationTicks": 60,
          "midi": 65,
          "name": "F4",
          "ticks": 116760,
          "time": 121.625,
          "velocity": 0.937007874015748
        },
        {
          "duration": 0.0625,
          "durationTicks": 60,
          "midi": 65,
          "name": "F4",
          "ticks": 116880,
          "time": 121.75,
          "velocity": 0.8740157480314961
        },
        {
          "duration": 0.055208333333339965,
          "durationTicks": 53,
          "midi": 66,
          "name": "F#4",
          "ticks": 117120,
          "time": 122,
          "velocity": 0.952755905511811
        },
        {
          "duration": 0.056250000000005684,
          "durationTicks": 54,
          "midi": 66,
          "name": "F#4",
          "ticks": 117240,
          "time": 122.125,
          "velocity": 0.905511811023622
        },
        {
          "duration": 0.057291666666671404,
          "durationTicks": 55,
          "midi": 66,
          "name": "F#4",
          "ticks": 117360,
          "time": 122.25,
          "velocity": 0.984251968503937
        },
        {
          "duration": 0.06666666666666288,
          "durationTicks": 64,
          "midi": 66,
          "name": "F#4",
          "ticks": 117480,
          "time": 122.375,
          "velocity": 0.968503937007874
        },
        {
          "duration": 0.053124999999994316,
          "durationTicks": 51,
          "midi": 66,
          "name": "F#4",
          "ticks": 117720,
          "time": 122.625,
          "velocity": 0.9921259842519685
        },
        {
          "duration": 0.05104166666666288,
          "durationTicks": 49,
          "midi": 66,
          "name": "F#4",
          "ticks": 117960,
          "time": 122.875,
          "velocity": 0.984251968503937
        },
        {
          "duration": 0.055208333333339965,
          "durationTicks": 53,
          "midi": 66,
          "name": "F#4",
          "ticks": 118080,
          "time": 123,
          "velocity": 1
        },
        {
          "duration": 0.06874999999999432,
          "durationTicks": 66,
          "midi": 66,
          "name": "F#4",
          "ticks": 118320,
          "time": 123.25,
          "velocity": 0.9921259842519685
        },
        {
          "duration": 0.0625,
          "durationTicks": 60,
          "midi": 66,
          "name": "F#4",
          "ticks": 118560,
          "time": 123.5,
          "velocity": 0.968503937007874
        },
        {
          "duration": 0.052083333333328596,
          "durationTicks": 50,
          "midi": 66,
          "name": "F#4",
          "ticks": 118680,
          "time": 123.625,
          "velocity": 0.968503937007874
        },
        {
          "duration": 0.06145833333333428,
          "durationTicks": 59,
          "midi": 66,
          "name": "F#4",
          "ticks": 118800,
          "time": 123.75,
          "velocity": 1
        },
        {
          "duration": 0.054166666666660035,
          "durationTicks": 52,
          "midi": 66,
          "name": "F#4",
          "ticks": 118920,
          "time": 123.875,
          "velocity": 0.968503937007874
        },
        {
          "duration": 0.05833333333333712,
          "durationTicks": 56,
          "midi": 63,
          "name": "D#4",
          "ticks": 119040,
          "time": 124,
          "velocity": 0.9921259842519685
        },
        {
          "duration": 0.04895833333333144,
          "durationTicks": 47,
          "midi": 63,
          "name": "D#4",
          "ticks": 119160,
          "time": 124.125,
          "velocity": 0.8110236220472441
        },
        {
          "duration": 0.056250000000005684,
          "durationTicks": 54,
          "midi": 63,
          "name": "D#4",
          "ticks": 119280,
          "time": 124.25,
          "velocity": 1
        },
        {
          "duration": 0.04999999999999716,
          "durationTicks": 48,
          "midi": 63,
          "name": "D#4",
          "ticks": 119400,
          "time": 124.375,
          "velocity": 0.968503937007874
        },
        {
          "duration": 0.06145833333333428,
          "durationTicks": 59,
          "midi": 63,
          "name": "D#4",
          "ticks": 119640,
          "time": 124.625,
          "velocity": 1
        },
        {
          "duration": 0.05937500000000284,
          "durationTicks": 57,
          "midi": 63,
          "name": "D#4",
          "ticks": 119880,
          "time": 124.875,
          "velocity": 1
        },
        {
          "duration": 0.05104166666666288,
          "durationTicks": 49,
          "midi": 63,
          "name": "D#4",
          "ticks": 120000,
          "time": 125,
          "velocity": 0.984251968503937
        },
        {
          "duration": 0.06145833333333428,
          "durationTicks": 59,
          "midi": 63,
          "name": "D#4",
          "ticks": 120240,
          "time": 125.25,
          "velocity": 0.9921259842519685
        },
        {
          "duration": 0.06041666666666856,
          "durationTicks": 58,
          "midi": 63,
          "name": "D#4",
          "ticks": 120480,
          "time": 125.5,
          "velocity": 1
        },
        {
          "duration": 0.046875,
          "durationTicks": 45,
          "midi": 63,
          "name": "D#4",
          "ticks": 120600,
          "time": 125.625,
          "velocity": 0.984251968503937
        },
        {
          "duration": 0.054166666666660035,
          "durationTicks": 52,
          "midi": 63,
          "name": "D#4",
          "ticks": 120720,
          "time": 125.75,
          "velocity": 1
        },
        {
          "duration": 0.06562499999999716,
          "durationTicks": 63,
          "midi": 68,
          "name": "G#4",
          "ticks": 120960,
          "time": 126,
          "velocity": 0.968503937007874
        },
        {
          "duration": 0.06041666666666856,
          "durationTicks": 58,
          "midi": 68,
          "name": "G#4",
          "ticks": 121080,
          "time": 126.125,
          "velocity": 0.952755905511811
        },
        {
          "duration": 0.06354166666666572,
          "durationTicks": 61,
          "midi": 68,
          "name": "G#4",
          "ticks": 121200,
          "time": 126.25,
          "velocity": 0.952755905511811
        },
        {
          "duration": 0.05833333333333712,
          "durationTicks": 56,
          "midi": 68,
          "name": "G#4",
          "ticks": 121320,
          "time": 126.375,
          "velocity": 0.984251968503937
        },
        {
          "duration": 0.06666666666666288,
          "durationTicks": 64,
          "midi": 68,
          "name": "G#4",
          "ticks": 121560,
          "time": 126.625,
          "velocity": 0.968503937007874
        },
        {
          "duration": 0.056250000000005684,
          "durationTicks": 54,
          "midi": 68,
          "name": "G#4",
          "ticks": 121800,
          "time": 126.875,
          "velocity": 0.968503937007874
        },
        {
          "duration": 0.078125,
          "durationTicks": 75,
          "midi": 68,
          "name": "G#4",
          "ticks": 121920,
          "time": 127,
          "velocity": 0.968503937007874
        },
        {
          "duration": 0.06874999999999432,
          "durationTicks": 66,
          "midi": 68,
          "name": "G#4",
          "ticks": 122160,
          "time": 127.25,
          "velocity": 0.9921259842519685
        },
        {
          "duration": 0.05937500000000284,
          "durationTicks": 57,
          "midi": 68,
          "name": "G#4",
          "ticks": 122400,
          "time": 127.5,
          "velocity": 0.984251968503937
        },
        {
          "duration": 0.055208333333339965,
          "durationTicks": 53,
          "midi": 68,
          "name": "G#4",
          "ticks": 122520,
          "time": 127.625,
          "velocity": 1
        },
        {
          "duration": 0.057291666666671404,
          "durationTicks": 55,
          "midi": 68,
          "name": "G#4",
          "ticks": 122640,
          "time": 127.75,
          "velocity": 0.968503937007874
        },
        {
          "duration": 0.06458333333333144,
          "durationTicks": 62,
          "midi": 68,
          "name": "G#4",
          "ticks": 122760,
          "time": 127.875,
          "velocity": 0.952755905511811
        },
        {
          "duration": 0.05937499999998863,
          "durationTicks": 57,
          "midi": 65,
          "name": "F4",
          "ticks": 122880,
          "time": 128,
          "velocity": 0.905511811023622
        },
        {
          "duration": 0.06145833333332007,
          "durationTicks": 59,
          "midi": 65,
          "name": "F4",
          "ticks": 123000,
          "time": 128.125,
          "velocity": 0.8267716535433071
        },
        {
          "duration": 0.05937499999998863,
          "durationTicks": 57,
          "midi": 65,
          "name": "F4",
          "ticks": 123120,
          "time": 128.25,
          "velocity": 0.8582677165354331
        },
        {
          "duration": 0.06145833333332007,
          "durationTicks": 59,
          "midi": 65,
          "name": "F4",
          "ticks": 123240,
          "time": 128.375,
          "velocity": 0.8582677165354331
        },
        {
          "duration": 0.05937499999998863,
          "durationTicks": 57,
          "midi": 65,
          "name": "F4",
          "ticks": 123480,
          "time": 128.625,
          "velocity": 0.889763779527559
        },
        {
          "duration": 0.06041666666666856,
          "durationTicks": 58,
          "midi": 65,
          "name": "F4",
          "ticks": 123720,
          "time": 128.875,
          "velocity": 0.7322834645669292
        },
        {
          "duration": 0.06562500000001137,
          "durationTicks": 63,
          "midi": 65,
          "name": "F4",
          "ticks": 123840,
          "time": 129,
          "velocity": 0.8740157480314961
        },
        {
          "duration": 0.06666666666666288,
          "durationTicks": 64,
          "midi": 65,
          "name": "F4",
          "ticks": 124080,
          "time": 129.25,
          "velocity": 0.8740157480314961
        },
        {
          "duration": 0.06354166666667993,
          "durationTicks": 61,
          "midi": 65,
          "name": "F4",
          "ticks": 124320,
          "time": 129.5,
          "velocity": 0.8740157480314961
        },
        {
          "duration": 0.0625,
          "durationTicks": 60,
          "midi": 65,
          "name": "F4",
          "ticks": 124440,
          "time": 129.625,
          "velocity": 0.937007874015748
        },
        {
          "duration": 0.0625,
          "durationTicks": 60,
          "midi": 65,
          "name": "F4",
          "ticks": 124560,
          "time": 129.75,
          "velocity": 0.8740157480314961
        },
        {
          "duration": 0.055208333333325754,
          "durationTicks": 53,
          "midi": 66,
          "name": "F#4",
          "ticks": 124800,
          "time": 130,
          "velocity": 0.952755905511811
        },
        {
          "duration": 0.056250000000005684,
          "durationTicks": 54,
          "midi": 66,
          "name": "F#4",
          "ticks": 124920,
          "time": 130.125,
          "velocity": 0.905511811023622
        },
        {
          "duration": 0.05729166666665719,
          "durationTicks": 55,
          "midi": 66,
          "name": "F#4",
          "ticks": 125040,
          "time": 130.25,
          "velocity": 0.984251968503937
        },
        {
          "duration": 0.06666666666666288,
          "durationTicks": 64,
          "midi": 66,
          "name": "F#4",
          "ticks": 125160,
          "time": 130.375,
          "velocity": 0.968503937007874
        },
        {
          "duration": 0.053124999999994316,
          "durationTicks": 51,
          "midi": 66,
          "name": "F#4",
          "ticks": 125400,
          "time": 130.625,
          "velocity": 0.9921259842519685
        },
        {
          "duration": 0.05104166666666288,
          "durationTicks": 49,
          "midi": 66,
          "name": "F#4",
          "ticks": 125640,
          "time": 130.875,
          "velocity": 0.984251968503937
        },
        {
          "duration": 0.055208333333325754,
          "durationTicks": 53,
          "midi": 66,
          "name": "F#4",
          "ticks": 125760,
          "time": 131,
          "velocity": 1
        },
        {
          "duration": 0.06874999999999432,
          "durationTicks": 66,
          "midi": 66,
          "name": "F#4",
          "ticks": 126000,
          "time": 131.25,
          "velocity": 0.9921259842519685
        },
        {
          "duration": 0.0625,
          "durationTicks": 60,
          "midi": 66,
          "name": "F#4",
          "ticks": 126240,
          "time": 131.5,
          "velocity": 0.968503937007874
        },
        {
          "duration": 0.05208333333334281,
          "durationTicks": 50,
          "midi": 66,
          "name": "F#4",
          "ticks": 126360,
          "time": 131.625,
          "velocity": 0.968503937007874
        },
        {
          "duration": 0.06145833333332007,
          "durationTicks": 59,
          "midi": 66,
          "name": "F#4",
          "ticks": 126480,
          "time": 131.75,
          "velocity": 1
        },
        {
          "duration": 0.054166666666674246,
          "durationTicks": 52,
          "midi": 66,
          "name": "F#4",
          "ticks": 126600,
          "time": 131.875,
          "velocity": 0.968503937007874
        },
        {
          "duration": 0.05833333333333712,
          "durationTicks": 56,
          "midi": 63,
          "name": "D#4",
          "ticks": 126720,
          "time": 132,
          "velocity": 0.9921259842519685
        },
        {
          "duration": 0.04895833333333144,
          "durationTicks": 47,
          "midi": 63,
          "name": "D#4",
          "ticks": 126840,
          "time": 132.125,
          "velocity": 0.8110236220472441
        },
        {
          "duration": 0.056250000000005684,
          "durationTicks": 54,
          "midi": 63,
          "name": "D#4",
          "ticks": 126960,
          "time": 132.25,
          "velocity": 1
        },
        {
          "duration": 0.05000000000001137,
          "durationTicks": 48,
          "midi": 63,
          "name": "D#4",
          "ticks": 127080,
          "time": 132.375,
          "velocity": 0.968503937007874
        },
        {
          "duration": 0.06145833333332007,
          "durationTicks": 59,
          "midi": 63,
          "name": "D#4",
          "ticks": 127320,
          "time": 132.625,
          "velocity": 1
        },
        {
          "duration": 0.05937499999998863,
          "durationTicks": 57,
          "midi": 63,
          "name": "D#4",
          "ticks": 127560,
          "time": 132.875,
          "velocity": 1
        },
        {
          "duration": 0.05104166666666288,
          "durationTicks": 49,
          "midi": 63,
          "name": "D#4",
          "ticks": 127680,
          "time": 133,
          "velocity": 0.984251968503937
        },
        {
          "duration": 0.06145833333332007,
          "durationTicks": 59,
          "midi": 63,
          "name": "D#4",
          "ticks": 127920,
          "time": 133.25,
          "velocity": 0.9921259842519685
        },
        {
          "duration": 0.06041666666666856,
          "durationTicks": 58,
          "midi": 63,
          "name": "D#4",
          "ticks": 128160,
          "time": 133.5,
          "velocity": 1
        },
        {
          "duration": 0.046875,
          "durationTicks": 45,
          "midi": 63,
          "name": "D#4",
          "ticks": 128280,
          "time": 133.625,
          "velocity": 0.984251968503937
        },
        {
          "duration": 0.054166666666674246,
          "durationTicks": 52,
          "midi": 63,
          "name": "D#4",
          "ticks": 128400,
          "time": 133.75,
          "velocity": 1
        },
        {
          "duration": 0.06562500000001137,
          "durationTicks": 63,
          "midi": 68,
          "name": "G#4",
          "ticks": 128640,
          "time": 134,
          "velocity": 0.968503937007874
        },
        {
          "duration": 0.06041666666666856,
          "durationTicks": 58,
          "midi": 68,
          "name": "G#4",
          "ticks": 128760,
          "time": 134.125,
          "velocity": 0.952755905511811
        },
        {
          "duration": 0.06354166666667993,
          "durationTicks": 61,
          "midi": 68,
          "name": "G#4",
          "ticks": 128880,
          "time": 134.25,
          "velocity": 0.952755905511811
        },
        {
          "duration": 0.05833333333333712,
          "durationTicks": 56,
          "midi": 68,
          "name": "G#4",
          "ticks": 129000,
          "time": 134.375,
          "velocity": 0.984251968503937
        },
        {
          "duration": 0.06666666666666288,
          "durationTicks": 64,
          "midi": 68,
          "name": "G#4",
          "ticks": 129240,
          "time": 134.625,
          "velocity": 0.968503937007874
        },
        {
          "duration": 0.056250000000005684,
          "durationTicks": 54,
          "midi": 68,
          "name": "G#4",
          "ticks": 129480,
          "time": 134.875,
          "velocity": 0.968503937007874
        },
        {
          "duration": 0.078125,
          "durationTicks": 75,
          "midi": 68,
          "name": "G#4",
          "ticks": 129600,
          "time": 135,
          "velocity": 0.968503937007874
        },
        {
          "duration": 0.06874999999999432,
          "durationTicks": 66,
          "midi": 68,
          "name": "G#4",
          "ticks": 129840,
          "time": 135.25,
          "velocity": 0.9921259842519685
        },
        {
          "duration": 0.05937499999998863,
          "durationTicks": 57,
          "midi": 68,
          "name": "G#4",
          "ticks": 130080,
          "time": 135.5,
          "velocity": 0.984251968503937
        },
        {
          "duration": 0.055208333333325754,
          "durationTicks": 53,
          "midi": 68,
          "name": "G#4",
          "ticks": 130200,
          "time": 135.625,
          "velocity": 1
        },
        {
          "duration": 0.05729166666665719,
          "durationTicks": 55,
          "midi": 68,
          "name": "G#4",
          "ticks": 130320,
          "time": 135.75,
          "velocity": 0.968503937007874
        },
        {
          "duration": 0.06458333333333144,
          "durationTicks": 62,
          "midi": 68,
          "name": "G#4",
          "ticks": 130440,
          "time": 135.875,
          "velocity": 0.952755905511811
        },
        {
          "duration": 0.05937499999998863,
          "durationTicks": 57,
          "midi": 65,
          "name": "F4",
          "ticks": 130560,
          "time": 136,
          "velocity": 0.905511811023622
        },
        {
          "duration": 0.06145833333332007,
          "durationTicks": 59,
          "midi": 65,
          "name": "F4",
          "ticks": 130680,
          "time": 136.125,
          "velocity": 0.8267716535433071
        },
        {
          "duration": 0.05937499999998863,
          "durationTicks": 57,
          "midi": 65,
          "name": "F4",
          "ticks": 130800,
          "time": 136.25,
          "velocity": 0.8582677165354331
        },
        {
          "duration": 0.06145833333332007,
          "durationTicks": 59,
          "midi": 65,
          "name": "F4",
          "ticks": 130920,
          "time": 136.375,
          "velocity": 0.8582677165354331
        },
        {
          "duration": 0.05937499999998863,
          "durationTicks": 57,
          "midi": 65,
          "name": "F4",
          "ticks": 131160,
          "time": 136.625,
          "velocity": 0.889763779527559
        },
        {
          "duration": 0.06041666666666856,
          "durationTicks": 58,
          "midi": 65,
          "name": "F4",
          "ticks": 131400,
          "time": 136.875,
          "velocity": 0.7322834645669292
        },
        {
          "duration": 0.06562500000001137,
          "durationTicks": 63,
          "midi": 65,
          "name": "F4",
          "ticks": 131520,
          "time": 137,
          "velocity": 0.8740157480314961
        },
        {
          "duration": 0.06666666666666288,
          "durationTicks": 64,
          "midi": 65,
          "name": "F4",
          "ticks": 131760,
          "time": 137.25,
          "velocity": 0.8740157480314961
        },
        {
          "duration": 0.06354166666667993,
          "durationTicks": 61,
          "midi": 65,
          "name": "F4",
          "ticks": 132000,
          "time": 137.5,
          "velocity": 0.8740157480314961
        },
        {
          "duration": 0.0625,
          "durationTicks": 60,
          "midi": 65,
          "name": "F4",
          "ticks": 132120,
          "time": 137.625,
          "velocity": 0.937007874015748
        },
        {
          "duration": 0.0625,
          "durationTicks": 60,
          "midi": 65,
          "name": "F4",
          "ticks": 132240,
          "time": 137.75,
          "velocity": 0.8740157480314961
        }
      ]
    },
    {
      "channel": 12,
      "controlChanges": {
        "7": [
          {
            "number": 7,
            "ticks": 0,
            "time": 0,
            "value": 0
          }
        ]
      },
      "pitchBends": [],
      "instrument": {
        "family": "piano",
        "number": 0,
        "name": "acoustic grand piano"
      },
      "name": "",
      "notes": [
        {
          "duration": 0.4375,
          "durationTicks": 420,
          "midi": 80,
          "name": "G#5",
          "ticks": 105600,
          "time": 110,
          "velocity": 0.5039370078740157
        },
        {
          "duration": 0.37812499999999716,
          "durationTicks": 363,
          "midi": 75,
          "name": "D#5",
          "ticks": 105960,
          "time": 110.375,
          "velocity": 0.5039370078740157
        },
        {
          "duration": 0.46666666666666856,
          "durationTicks": 448,
          "midi": 80,
          "name": "G#5",
          "ticks": 106320,
          "time": 110.75,
          "velocity": 0.5039370078740157
        },
        {
          "duration": 0.29479166666666856,
          "durationTicks": 283,
          "midi": 75,
          "name": "D#5",
          "ticks": 106800,
          "time": 111.25,
          "velocity": 0.5039370078740157
        },
        {
          "duration": 0.23749999999999716,
          "durationTicks": 228,
          "midi": 80,
          "name": "G#5",
          "ticks": 107040,
          "time": 111.5,
          "velocity": 0.5039370078740157
        },
        {
          "duration": 0.25833333333333997,
          "durationTicks": 248,
          "midi": 75,
          "name": "D#5",
          "ticks": 107280,
          "time": 111.75,
          "velocity": 0.5039370078740157
        },
        {
          "duration": 0.39895833333333997,
          "durationTicks": 383,
          "midi": 80,
          "name": "G#5",
          "ticks": 107520,
          "time": 112,
          "velocity": 0.5039370078740157
        },
        {
          "duration": 0.31041666666666856,
          "durationTicks": 298,
          "midi": 75,
          "name": "D#5",
          "ticks": 107880,
          "time": 112.375,
          "velocity": 0.5039370078740157
        },
        {
          "duration": 0.46875,
          "durationTicks": 450,
          "midi": 80,
          "name": "G#5",
          "ticks": 108240,
          "time": 112.75,
          "velocity": 0.5039370078740157
        },
        {
          "duration": 0.25833333333333997,
          "durationTicks": 248,
          "midi": 75,
          "name": "D#5",
          "ticks": 108720,
          "time": 113.25,
          "velocity": 0.5039370078740157
        },
        {
          "duration": 0.27916666666666856,
          "durationTicks": 268,
          "midi": 80,
          "name": "G#5",
          "ticks": 108960,
          "time": 113.5,
          "velocity": 0.5039370078740157
        },
        {
          "duration": 0.2291666666666714,
          "durationTicks": 220,
          "midi": 75,
          "name": "D#5",
          "ticks": 109200,
          "time": 113.75,
          "velocity": 0.5039370078740157
        },
        {
          "duration": 0.41458333333333997,
          "durationTicks": 398,
          "midi": 80,
          "name": "G#5",
          "ticks": 109440,
          "time": 114,
          "velocity": 0.5039370078740157
        },
        {
          "duration": 0.3072916666666714,
          "durationTicks": 295,
          "midi": 75,
          "name": "D#5",
          "ticks": 109800,
          "time": 114.375,
          "velocity": 0.5039370078740157
        },
        {
          "duration": 0.48749999999999716,
          "durationTicks": 468,
          "midi": 80,
          "name": "G#5",
          "ticks": 110160,
          "time": 114.75,
          "velocity": 0.5039370078740157
        },
        {
          "duration": 0.2395833333333286,
          "durationTicks": 230,
          "midi": 75,
          "name": "D#5",
          "ticks": 110640,
          "time": 115.25,
          "velocity": 0.5039370078740157
        },
        {
          "duration": 0.2552083333333286,
          "durationTicks": 245,
          "midi": 80,
          "name": "G#5",
          "ticks": 110880,
          "time": 115.5,
          "velocity": 0.5039370078740157
        },
        {
          "duration": 0.25833333333333997,
          "durationTicks": 248,
          "midi": 75,
          "name": "D#5",
          "ticks": 111120,
          "time": 115.75,
          "velocity": 0.5039370078740157
        },
        {
          "duration": 0.44062499999999716,
          "durationTicks": 423,
          "midi": 80,
          "name": "G#5",
          "ticks": 111360,
          "time": 116,
          "velocity": 0.5039370078740157
        },
        {
          "duration": 0.2864583333333286,
          "durationTicks": 275,
          "midi": 75,
          "name": "D#5",
          "ticks": 111720,
          "time": 116.375,
          "velocity": 0.5039370078740157
        },
        {
          "duration": 0.49270833333333997,
          "durationTicks": 473,
          "midi": 80,
          "name": "G#5",
          "ticks": 112080,
          "time": 116.75,
          "velocity": 0.5039370078740157
        },
        {
          "duration": 0.2552083333333286,
          "durationTicks": 245,
          "midi": 75,
          "name": "D#5",
          "ticks": 112560,
          "time": 117.25,
          "velocity": 0.5039370078740157
        },
        {
          "duration": 0.265625,
          "durationTicks": 255,
          "midi": 80,
          "name": "G#5",
          "ticks": 112800,
          "time": 117.5,
          "velocity": 0.5039370078740157
        },
        {
          "duration": 0.25312499999999716,
          "durationTicks": 243,
          "midi": 75,
          "name": "D#5",
          "ticks": 113040,
          "time": 117.75,
          "velocity": 0.5039370078740157
        },
        {
          "duration": 0.4010416666666714,
          "durationTicks": 385,
          "midi": 80,
          "name": "G#5",
          "ticks": 113280,
          "time": 118,
          "velocity": 0.5039370078740157
        },
        {
          "duration": 0.36249999999999716,
          "durationTicks": 348,
          "midi": 75,
          "name": "D#5",
          "ticks": 113640,
          "time": 118.375,
          "velocity": 0.5039370078740157
        },
        {
          "duration": 0.4583333333333286,
          "durationTicks": 440,
          "midi": 80,
          "name": "G#5",
          "ticks": 114000,
          "time": 118.75,
          "velocity": 0.5039370078740157
        },
        {
          "duration": 0.265625,
          "durationTicks": 255,
          "midi": 75,
          "name": "D#5",
          "ticks": 114480,
          "time": 119.25,
          "velocity": 0.5039370078740157
        },
        {
          "duration": 0.24270833333333997,
          "durationTicks": 233,
          "midi": 80,
          "name": "G#5",
          "ticks": 114720,
          "time": 119.5,
          "velocity": 0.5039370078740157
        },
        {
          "duration": 0.25312499999999716,
          "durationTicks": 243,
          "midi": 75,
          "name": "D#5",
          "ticks": 114960,
          "time": 119.75,
          "velocity": 0.5039370078740157
        },
        {
          "duration": 0.4010416666666714,
          "durationTicks": 385,
          "midi": 80,
          "name": "G#5",
          "ticks": 115200,
          "time": 120,
          "velocity": 0.5039370078740157
        },
        {
          "duration": 0.3229166666666714,
          "durationTicks": 310,
          "midi": 75,
          "name": "D#5",
          "ticks": 115560,
          "time": 120.375,
          "velocity": 0.5039370078740157
        },
        {
          "duration": 0.4479166666666714,
          "durationTicks": 430,
          "midi": 80,
          "name": "G#5",
          "ticks": 115920,
          "time": 120.75,
          "velocity": 0.5039370078740157
        },
        {
          "duration": 0.27916666666666856,
          "durationTicks": 268,
          "midi": 75,
          "name": "D#5",
          "ticks": 116400,
          "time": 121.25,
          "velocity": 0.5039370078740157
        },
        {
          "duration": 0.2552083333333286,
          "durationTicks": 245,
          "midi": 80,
          "name": "G#5",
          "ticks": 116640,
          "time": 121.5,
          "velocity": 0.5039370078740157
        },
        {
          "duration": 0.25312499999999716,
          "durationTicks": 243,
          "midi": 75,
          "name": "D#5",
          "ticks": 116880,
          "time": 121.75,
          "velocity": 0.5039370078740157
        },
        {
          "duration": 0.39895833333333997,
          "durationTicks": 383,
          "midi": 80,
          "name": "G#5",
          "ticks": 117120,
          "time": 122,
          "velocity": 0.5039370078740157
        },
        {
          "duration": 0.2916666666666714,
          "durationTicks": 280,
          "midi": 75,
          "name": "D#5",
          "ticks": 117480,
          "time": 122.375,
          "velocity": 0.5039370078740157
        },
        {
          "duration": 0.47187499999999716,
          "durationTicks": 453,
          "midi": 80,
          "name": "G#5",
          "ticks": 117840,
          "time": 122.75,
          "velocity": 0.5039370078740157
        },
        {
          "duration": 0.2395833333333286,
          "durationTicks": 230,
          "midi": 75,
          "name": "D#5",
          "ticks": 118320,
          "time": 123.25,
          "velocity": 0.5039370078740157
        },
        {
          "duration": 0.27395833333333997,
          "durationTicks": 263,
          "midi": 80,
          "name": "G#5",
          "ticks": 118560,
          "time": 123.5,
          "velocity": 0.5039370078740157
        },
        {
          "duration": 0.24270833333333997,
          "durationTicks": 233,
          "midi": 75,
          "name": "D#5",
          "ticks": 118800,
          "time": 123.75,
          "velocity": 0.5039370078740157
        },
        {
          "duration": 0.41979166666666856,
          "durationTicks": 403,
          "midi": 80,
          "name": "G#5",
          "ticks": 119040,
          "time": 124,
          "velocity": 0.5039370078740157
        },
        {
          "duration": 0.27395833333333997,
          "durationTicks": 263,
          "midi": 75,
          "name": "D#5",
          "ticks": 119400,
          "time": 124.375,
          "velocity": 0.5039370078740157
        },
        {
          "duration": 0.5104166666666714,
          "durationTicks": 490,
          "midi": 80,
          "name": "G#5",
          "ticks": 119760,
          "time": 124.75,
          "velocity": 0.5039370078740157
        },
        {
          "duration": 0.21145833333333997,
          "durationTicks": 203,
          "midi": 75,
          "name": "D#5",
          "ticks": 120240,
          "time": 125.25,
          "velocity": 0.5039370078740157
        },
        {
          "duration": 0.2552083333333286,
          "durationTicks": 245,
          "midi": 80,
          "name": "G#5",
          "ticks": 120480,
          "time": 125.5,
          "velocity": 0.5039370078740157
        },
        {
          "duration": 0.24791666666666856,
          "durationTicks": 238,
          "midi": 75,
          "name": "D#5",
          "ticks": 120720,
          "time": 125.75,
          "velocity": 0.5039370078740157
        },
        {
          "duration": 0.39374999999999716,
          "durationTicks": 378,
          "midi": 80,
          "name": "G#5",
          "ticks": 120960,
          "time": 126,
          "velocity": 0.5039370078740157
        },
        {
          "duration": 0.3854166666666714,
          "durationTicks": 370,
          "midi": 75,
          "name": "D#5",
          "ticks": 121320,
          "time": 126.375,
          "velocity": 0.5039370078740157
        },
        {
          "duration": 0.46666666666666856,
          "durationTicks": 448,
          "midi": 80,
          "name": "G#5",
          "ticks": 121680,
          "time": 126.75,
          "velocity": 0.5039370078740157
        },
        {
          "duration": 0.234375,
          "durationTicks": 225,
          "midi": 75,
          "name": "D#5",
          "ticks": 122160,
          "time": 127.25,
          "velocity": 0.5039370078740157
        },
        {
          "duration": 0.25,
          "durationTicks": 240,
          "midi": 80,
          "name": "G#5",
          "ticks": 122400,
          "time": 127.5,
          "velocity": 0.5039370078740157
        },
        {
          "duration": 0.22187499999999716,
          "durationTicks": 213,
          "midi": 75,
          "name": "D#5",
          "ticks": 122640,
          "time": 127.75,
          "velocity": 0.5039370078740157
        },
        {
          "duration": 0.40625,
          "durationTicks": 390,
          "midi": 80,
          "name": "G#5",
          "ticks": 122880,
          "time": 128,
          "velocity": 0.5039370078740157
        },
        {
          "duration": 0.3125,
          "durationTicks": 300,
          "midi": 75,
          "name": "D#5",
          "ticks": 123240,
          "time": 128.375,
          "velocity": 0.5039370078740157
        },
        {
          "duration": 0.4947916666666572,
          "durationTicks": 475,
          "midi": 80,
          "name": "G#5",
          "ticks": 123600,
          "time": 128.75,
          "velocity": 0.5039370078740157
        },
        {
          "duration": 0.23229166666666856,
          "durationTicks": 223,
          "midi": 75,
          "name": "D#5",
          "ticks": 124080,
          "time": 129.25,
          "velocity": 0.5039370078740157
        },
        {
          "duration": 0.28437500000001137,
          "durationTicks": 273,
          "midi": 80,
          "name": "G#5",
          "ticks": 124320,
          "time": 129.5,
          "velocity": 0.5039370078740157
        },
        {
          "duration": 0.24270833333332575,
          "durationTicks": 233,
          "midi": 75,
          "name": "D#5",
          "ticks": 124560,
          "time": 129.75,
          "velocity": 0.5039370078740157
        },
        {
          "duration": 0.4375,
          "durationTicks": 420,
          "midi": 80,
          "name": "G#5",
          "ticks": 124800,
          "time": 130,
          "velocity": 0.5039370078740157
        },
        {
          "duration": 0.3229166666666572,
          "durationTicks": 310,
          "midi": 75,
          "name": "D#5",
          "ticks": 125160,
          "time": 130.375,
          "velocity": 0.5039370078740157
        },
        {
          "duration": 0.53125,
          "durationTicks": 510,
          "midi": 80,
          "name": "G#5",
          "ticks": 125520,
          "time": 130.75,
          "velocity": 0.5039370078740157
        },
        {
          "duration": 0.21145833333332575,
          "durationTicks": 203,
          "midi": 75,
          "name": "D#5",
          "ticks": 126000,
          "time": 131.25,
          "velocity": 0.5039370078740157
        },
        {
          "duration": 0.25,
          "durationTicks": 240,
          "midi": 80,
          "name": "G#5",
          "ticks": 126240,
          "time": 131.5,
          "velocity": 0.5039370078740157
        },
        {
          "duration": 0.25312500000001137,
          "durationTicks": 243,
          "midi": 75,
          "name": "D#5",
          "ticks": 126480,
          "time": 131.75,
          "velocity": 0.5039370078740157
        },
        {
          "duration": 0.40625,
          "durationTicks": 390,
          "midi": 80,
          "name": "G#5",
          "ticks": 126720,
          "time": 132,
          "velocity": 0.5039370078740157
        },
        {
          "duration": 0.31562500000001137,
          "durationTicks": 303,
          "midi": 75,
          "name": "D#5",
          "ticks": 127080,
          "time": 132.375,
          "velocity": 0.5039370078740157
        },
        {
          "duration": 0.484375,
          "durationTicks": 465,
          "midi": 80,
          "name": "G#5",
          "ticks": 127440,
          "time": 132.75,
          "velocity": 0.5039370078740157
        },
        {
          "duration": 0.26354166666666856,
          "durationTicks": 253,
          "midi": 75,
          "name": "D#5",
          "ticks": 127920,
          "time": 133.25,
          "velocity": 0.5039370078740157
        },
        {
          "duration": 0.2552083333333428,
          "durationTicks": 245,
          "midi": 80,
          "name": "G#5",
          "ticks": 128160,
          "time": 133.5,
          "velocity": 0.5039370078740157
        },
        {
          "duration": 0.25312500000001137,
          "durationTicks": 243,
          "midi": 75,
          "name": "D#5",
          "ticks": 128400,
          "time": 133.75,
          "velocity": 0.5039370078740157
        },
        {
          "duration": 0.421875,
          "durationTicks": 405,
          "midi": 80,
          "name": "G#5",
          "ticks": 128640,
          "time": 134,
          "velocity": 0.5039370078740157
        },
        {
          "duration": 0.359375,
          "durationTicks": 345,
          "midi": 75,
          "name": "D#5",
          "ticks": 129000,
          "time": 134.375,
          "velocity": 0.5039370078740157
        },
        {
          "duration": 0.48229166666666856,
          "durationTicks": 463,
          "midi": 80,
          "name": "G#5",
          "ticks": 129360,
          "time": 134.75,
          "velocity": 0.5039370078740157
        },
        {
          "duration": 0.2395833333333428,
          "durationTicks": 230,
          "midi": 75,
          "name": "D#5",
          "ticks": 129840,
          "time": 135.25,
          "velocity": 0.5039370078740157
        },
        {
          "duration": 0.25,
          "durationTicks": 240,
          "midi": 80,
          "name": "G#5",
          "ticks": 130080,
          "time": 135.5,
          "velocity": 0.5039370078740157
        },
        {
          "duration": 0.24270833333332575,
          "durationTicks": 233,
          "midi": 75,
          "name": "D#5",
          "ticks": 130320,
          "time": 135.75,
          "velocity": 0.5039370078740157
        },
        {
          "duration": 0.4114583333333428,
          "durationTicks": 395,
          "midi": 80,
          "name": "G#5",
          "ticks": 130560,
          "time": 136,
          "velocity": 0.5039370078740157
        },
        {
          "duration": 0.31562500000001137,
          "durationTicks": 303,
          "midi": 75,
          "name": "D#5",
          "ticks": 130920,
          "time": 136.375,
          "velocity": 0.5039370078740157
        },
        {
          "duration": 0.4322916666666572,
          "durationTicks": 415,
          "midi": 80,
          "name": "G#5",
          "ticks": 131280,
          "time": 136.75,
          "velocity": 0.5039370078740157
        },
        {
          "duration": 0.25833333333332575,
          "durationTicks": 248,
          "midi": 75,
          "name": "D#5",
          "ticks": 131640,
          "time": 137.125,
          "velocity": 0.5039370078740157
        },
        {
          "duration": 0.25833333333332575,
          "durationTicks": 248,
          "midi": 80,
          "name": "G#5",
          "ticks": 131880,
          "time": 137.375,
          "velocity": 0.5039370078740157
        },
        {
          "duration": 0.28437500000001137,
          "durationTicks": 273,
          "midi": 75,
          "name": "D#5",
          "ticks": 132120,
          "time": 137.625,
          "velocity": 0.5039370078740157
        },
        {
          "duration": 0.11250000000001137,
          "durationTicks": 108,
          "midi": 65,
          "name": "F4",
          "ticks": 151680,
          "time": 158,
          "velocity": 0.5039370078740157
        },
        {
          "duration": 0.09687500000001137,
          "durationTicks": 93,
          "midi": 68,
          "name": "G#4",
          "ticks": 152160,
          "time": 158.5,
          "velocity": 0.5039370078740157
        },
        {
          "duration": 0.08333333333334281,
          "durationTicks": 80,
          "midi": 65,
          "name": "F4",
          "ticks": 152520,
          "time": 158.875,
          "velocity": 0.5039370078740157
        },
        {
          "duration": 0.09895833333334281,
          "durationTicks": 95,
          "midi": 65,
          "name": "F4",
          "ticks": 152760,
          "time": 159.125,
          "velocity": 0.5039370078740157
        },
        {
          "duration": 0.08125000000001137,
          "durationTicks": 78,
          "midi": 70,
          "name": "A#4",
          "ticks": 152880,
          "time": 159.25,
          "velocity": 0.5039370078740157
        },
        {
          "duration": 0.09375,
          "durationTicks": 90,
          "midi": 65,
          "name": "F4",
          "ticks": 153120,
          "time": 159.5,
          "velocity": 0.5039370078740157
        },
        {
          "duration": 0.09895833333334281,
          "durationTicks": 95,
          "midi": 63,
          "name": "D#4",
          "ticks": 153360,
          "time": 159.75,
          "velocity": 0.5039370078740157
        },
        {
          "duration": 0.10208333333332575,
          "durationTicks": 98,
          "midi": 65,
          "name": "F4",
          "ticks": 153600,
          "time": 160,
          "velocity": 0.5039370078740157
        },
        {
          "duration": 0.08854166666665719,
          "durationTicks": 85,
          "midi": 72,
          "name": "C5",
          "ticks": 154080,
          "time": 160.5,
          "velocity": 0.5039370078740157
        },
        {
          "duration": 0.08645833333332575,
          "durationTicks": 83,
          "midi": 65,
          "name": "F4",
          "ticks": 154440,
          "time": 160.875,
          "velocity": 0.5039370078740157
        },
        {
          "duration": 0.09166666666666856,
          "durationTicks": 88,
          "midi": 65,
          "name": "F4",
          "ticks": 154680,
          "time": 161.125,
          "velocity": 0.5039370078740157
        },
        {
          "duration": 0.06562500000001137,
          "durationTicks": 63,
          "midi": 73,
          "name": "C#5",
          "ticks": 154800,
          "time": 161.25,
          "velocity": 0.5039370078740157
        },
        {
          "duration": 0.06770833333334281,
          "durationTicks": 65,
          "midi": 72,
          "name": "C5",
          "ticks": 155040,
          "time": 161.5,
          "velocity": 0.5039370078740157
        },
        {
          "duration": 0.05208333333334281,
          "durationTicks": 50,
          "midi": 68,
          "name": "G#4",
          "ticks": 155280,
          "time": 161.75,
          "velocity": 0.5039370078740157
        },
        {
          "duration": 0.05208333333334281,
          "durationTicks": 50,
          "midi": 65,
          "name": "F4",
          "ticks": 155520,
          "time": 162,
          "velocity": 0.5039370078740157
        },
        {
          "duration": 0.05000000000001137,
          "durationTicks": 48,
          "midi": 72,
          "name": "C5",
          "ticks": 155760,
          "time": 162.25,
          "velocity": 0.5039370078740157
        },
        {
          "duration": 0.07291666666665719,
          "durationTicks": 70,
          "midi": 77,
          "name": "F5",
          "ticks": 156000,
          "time": 162.5,
          "velocity": 0.5039370078740157
        },
        {
          "duration": 0.05729166666665719,
          "durationTicks": 55,
          "midi": 65,
          "name": "F4",
          "ticks": 156240,
          "time": 162.75,
          "velocity": 0.5039370078740157
        },
        {
          "duration": 0.08333333333334281,
          "durationTicks": 80,
          "midi": 63,
          "name": "D#4",
          "ticks": 156360,
          "time": 162.875,
          "velocity": 0.5039370078740157
        },
        {
          "duration": 0.08125000000001137,
          "durationTicks": 78,
          "midi": 63,
          "name": "D#4",
          "ticks": 156600,
          "time": 163.125,
          "velocity": 0.5039370078740157
        },
        {
          "duration": 0.0625,
          "durationTicks": 60,
          "midi": 60,
          "name": "C4",
          "ticks": 156720,
          "time": 163.25,
          "velocity": 0.5039370078740157
        },
        {
          "duration": 0.08645833333332575,
          "durationTicks": 83,
          "midi": 67,
          "name": "G4",
          "ticks": 156960,
          "time": 163.5,
          "velocity": 0.5039370078740157
        },
        {
          "duration": 1.2427083333333258,
          "durationTicks": 1193,
          "midi": 65,
          "name": "F4",
          "ticks": 157200,
          "time": 163.75,
          "velocity": 0.5039370078740157
        },
        {
          "duration": 0.13854166666666856,
          "durationTicks": 133,
          "midi": 65,
          "name": "F4",
          "ticks": 159360,
          "time": 166,
          "velocity": 0.5039370078740157
        },
        {
          "duration": 0.09687500000001137,
          "durationTicks": 93,
          "midi": 68,
          "name": "G#4",
          "ticks": 159840,
          "time": 166.5,
          "velocity": 0.5039370078740157
        },
        {
          "duration": 0.07291666666665719,
          "durationTicks": 70,
          "midi": 65,
          "name": "F4",
          "ticks": 160200,
          "time": 166.875,
          "velocity": 0.5039370078740157
        },
        {
          "duration": 0.08645833333332575,
          "durationTicks": 83,
          "midi": 65,
          "name": "F4",
          "ticks": 160440,
          "time": 167.125,
          "velocity": 0.5039370078740157
        },
        {
          "duration": 0.08333333333334281,
          "durationTicks": 80,
          "midi": 70,
          "name": "A#4",
          "ticks": 160560,
          "time": 167.25,
          "velocity": 0.5039370078740157
        },
        {
          "duration": 0.10416666666665719,
          "durationTicks": 100,
          "midi": 65,
          "name": "F4",
          "ticks": 160800,
          "time": 167.5,
          "velocity": 0.5039370078740157
        },
        {
          "duration": 0.078125,
          "durationTicks": 75,
          "midi": 63,
          "name": "D#4",
          "ticks": 161040,
          "time": 167.75,
          "velocity": 0.5039370078740157
        },
        {
          "duration": 0.10208333333332575,
          "durationTicks": 98,
          "midi": 65,
          "name": "F4",
          "ticks": 161280,
          "time": 168,
          "velocity": 0.5039370078740157
        },
        {
          "duration": 0.09895833333334281,
          "durationTicks": 95,
          "midi": 72,
          "name": "C5",
          "ticks": 161760,
          "time": 168.5,
          "velocity": 0.5039370078740157
        },
        {
          "duration": 0.09895833333334281,
          "durationTicks": 95,
          "midi": 65,
          "name": "F4",
          "ticks": 162120,
          "time": 168.875,
          "velocity": 0.5039370078740157
        },
        {
          "duration": 0.09375,
          "durationTicks": 90,
          "midi": 65,
          "name": "F4",
          "ticks": 162360,
          "time": 169.125,
          "velocity": 0.5039370078740157
        },
        {
          "duration": 0.07604166666666856,
          "durationTicks": 73,
          "midi": 73,
          "name": "C#5",
          "ticks": 162480,
          "time": 169.25,
          "velocity": 0.5039370078740157
        },
        {
          "duration": 0.078125,
          "durationTicks": 75,
          "midi": 72,
          "name": "C5",
          "ticks": 162720,
          "time": 169.5,
          "velocity": 0.5039370078740157
        },
        {
          "duration": 0.06041666666666856,
          "durationTicks": 58,
          "midi": 68,
          "name": "G#4",
          "ticks": 162960,
          "time": 169.75,
          "velocity": 0.5039370078740157
        },
        {
          "duration": 0.055208333333325754,
          "durationTicks": 53,
          "midi": 65,
          "name": "F4",
          "ticks": 163200,
          "time": 170,
          "velocity": 0.5039370078740157
        },
        {
          "duration": 0.05729166666665719,
          "durationTicks": 55,
          "midi": 72,
          "name": "C5",
          "ticks": 163440,
          "time": 170.25,
          "velocity": 0.5039370078740157
        },
        {
          "duration": 0.07604166666666856,
          "durationTicks": 73,
          "midi": 77,
          "name": "F5",
          "ticks": 163680,
          "time": 170.5,
          "velocity": 0.5039370078740157
        },
        {
          "duration": 0.06041666666666856,
          "durationTicks": 58,
          "midi": 65,
          "name": "F4",
          "ticks": 163920,
          "time": 170.75,
          "velocity": 0.5039370078740157
        },
        {
          "duration": 0.08333333333334281,
          "durationTicks": 80,
          "midi": 63,
          "name": "D#4",
          "ticks": 164040,
          "time": 170.875,
          "velocity": 0.5039370078740157
        },
        {
          "duration": 0.08333333333334281,
          "durationTicks": 80,
          "midi": 63,
          "name": "D#4",
          "ticks": 164280,
          "time": 171.125,
          "velocity": 0.5039370078740157
        },
        {
          "duration": 0.0625,
          "durationTicks": 60,
          "midi": 60,
          "name": "C4",
          "ticks": 164400,
          "time": 171.25,
          "velocity": 0.5039370078740157
        },
        {
          "duration": 0.1875,
          "durationTicks": 180,
          "midi": 67,
          "name": "G4",
          "ticks": 164640,
          "time": 171.5,
          "velocity": 0.5039370078740157
        },
        {
          "duration": 1.3958333333333428,
          "durationTicks": 1340,
          "midi": 65,
          "name": "F4",
          "ticks": 164880,
          "time": 171.75,
          "velocity": 0.5039370078740157
        }
      ]
    },
    {
      "channel": 4,
      "controlChanges": {
        "7": [
          {
            "number": 7,
            "ticks": 0,
            "time": 0,
            "value": 0.5511811023622047
          },
          {
            "number": 7,
            "ticks": 82560,
            "time": 86,
            "value": 0.3937007874015748
          }
        ]
      },
      "pitchBends": [],
      "instrument": {
        "family": "ensemble",
        "number": 52,
        "name": "choir aahs"
      },
      "name": "",
      "notes": [
        {
          "duration": 0.1125,
          "durationTicks": 108,
          "midi": 65,
          "name": "F4",
          "ticks": 3,
          "time": 0.003125,
          "velocity": 0.5039370078740157
        },
        {
          "duration": 0.09687499999999993,
          "durationTicks": 93,
          "midi": 68,
          "name": "G#4",
          "ticks": 483,
          "time": 0.503125,
          "velocity": 0.5039370078740157
        },
        {
          "duration": 0.08333333333333326,
          "durationTicks": 80,
          "midi": 65,
          "name": "F4",
          "ticks": 843,
          "time": 0.878125,
          "velocity": 0.5039370078740157
        },
        {
          "duration": 0.09895833333333326,
          "durationTicks": 95,
          "midi": 65,
          "name": "F4",
          "ticks": 1083,
          "time": 1.128125,
          "velocity": 0.5039370078740157
        },
        {
          "duration": 0.08125000000000004,
          "durationTicks": 78,
          "midi": 70,
          "name": "A#4",
          "ticks": 1203,
          "time": 1.253125,
          "velocity": 0.5039370078740157
        },
        {
          "duration": 0.09375,
          "durationTicks": 90,
          "midi": 65,
          "name": "F4",
          "ticks": 1443,
          "time": 1.503125,
          "velocity": 0.5039370078740157
        },
        {
          "duration": 0.09895833333333326,
          "durationTicks": 95,
          "midi": 63,
          "name": "D#4",
          "ticks": 1683,
          "time": 1.753125,
          "velocity": 0.5039370078740157
        },
        {
          "duration": 0.1020833333333333,
          "durationTicks": 98,
          "midi": 65,
          "name": "F4",
          "ticks": 1923,
          "time": 2.003125,
          "velocity": 0.5039370078740157
        },
        {
          "duration": 0.08854166666666696,
          "durationTicks": 85,
          "midi": 72,
          "name": "C5",
          "ticks": 2403,
          "time": 2.503125,
          "velocity": 0.5039370078740157
        },
        {
          "duration": 0.0864583333333333,
          "durationTicks": 83,
          "midi": 65,
          "name": "F4",
          "ticks": 2763,
          "time": 2.878125,
          "velocity": 0.5039370078740157
        },
        {
          "duration": 0.09166666666666679,
          "durationTicks": 88,
          "midi": 65,
          "name": "F4",
          "ticks": 3003,
          "time": 3.128125,
          "velocity": 0.5039370078740157
        },
        {
          "duration": 0.06562500000000027,
          "durationTicks": 63,
          "midi": 73,
          "name": "C#5",
          "ticks": 3123,
          "time": 3.253125,
          "velocity": 0.5039370078740157
        },
        {
          "duration": 0.06770833333333348,
          "durationTicks": 65,
          "midi": 72,
          "name": "C5",
          "ticks": 3363,
          "time": 3.503125,
          "velocity": 0.5039370078740157
        },
        {
          "duration": 0.05208333333333348,
          "durationTicks": 50,
          "midi": 68,
          "name": "G#4",
          "ticks": 3603,
          "time": 3.753125,
          "velocity": 0.5039370078740157
        },
        {
          "duration": 0.052083333333333925,
          "durationTicks": 50,
          "midi": 65,
          "name": "F4",
          "ticks": 3843,
          "time": 4.003125,
          "velocity": 0.5039370078740157
        },
        {
          "duration": 0.04999999999999982,
          "durationTicks": 48,
          "midi": 72,
          "name": "C5",
          "ticks": 4083,
          "time": 4.253125,
          "velocity": 0.5039370078740157
        },
        {
          "duration": 0.07291666666666696,
          "durationTicks": 70,
          "midi": 77,
          "name": "F5",
          "ticks": 4323,
          "time": 4.503125,
          "velocity": 0.5039370078740157
        },
        {
          "duration": 0.05729166666666696,
          "durationTicks": 55,
          "midi": 65,
          "name": "F4",
          "ticks": 4563,
          "time": 4.753125,
          "velocity": 0.5039370078740157
        },
        {
          "duration": 0.08333333333333393,
          "durationTicks": 80,
          "midi": 63,
          "name": "D#4",
          "ticks": 4683,
          "time": 4.878125,
          "velocity": 0.5039370078740157
        },
        {
          "duration": 0.08124999999999982,
          "durationTicks": 78,
          "midi": 63,
          "name": "D#4",
          "ticks": 4923,
          "time": 5.128125,
          "velocity": 0.5039370078740157
        },
        {
          "duration": 0.0625,
          "durationTicks": 60,
          "midi": 60,
          "name": "C4",
          "ticks": 5043,
          "time": 5.253125,
          "velocity": 0.5039370078740157
        },
        {
          "duration": 0.08645833333333375,
          "durationTicks": 83,
          "midi": 67,
          "name": "G4",
          "ticks": 5283,
          "time": 5.503125,
          "velocity": 0.5039370078740157
        },
        {
          "duration": 1.2427083333333337,
          "durationTicks": 1193,
          "midi": 65,
          "name": "F4",
          "ticks": 5523,
          "time": 5.753125,
          "velocity": 0.5039370078740157
        },
        {
          "duration": 0.13854166666666679,
          "durationTicks": 133,
          "midi": 65,
          "name": "F4",
          "ticks": 7683,
          "time": 8.003125,
          "velocity": 0.5039370078740157
        },
        {
          "duration": 0.09687499999999893,
          "durationTicks": 93,
          "midi": 68,
          "name": "G#4",
          "ticks": 8163,
          "time": 8.503125,
          "velocity": 0.5039370078740157
        },
        {
          "duration": 0.07291666666666607,
          "durationTicks": 70,
          "midi": 65,
          "name": "F4",
          "ticks": 8523,
          "time": 8.878125,
          "velocity": 0.5039370078740157
        },
        {
          "duration": 0.08645833333333286,
          "durationTicks": 83,
          "midi": 65,
          "name": "F4",
          "ticks": 8763,
          "time": 9.128125,
          "velocity": 0.5039370078740157
        },
        {
          "duration": 0.08333333333333215,
          "durationTicks": 80,
          "midi": 70,
          "name": "A#4",
          "ticks": 8883,
          "time": 9.253125,
          "velocity": 0.5039370078740157
        },
        {
          "duration": 0.10416666666666607,
          "durationTicks": 100,
          "midi": 65,
          "name": "F4",
          "ticks": 9123,
          "time": 9.503125,
          "velocity": 0.5039370078740157
        },
        {
          "duration": 0.078125,
          "durationTicks": 75,
          "midi": 63,
          "name": "D#4",
          "ticks": 9363,
          "time": 9.753125,
          "velocity": 0.5039370078740157
        },
        {
          "duration": 0.10208333333333286,
          "durationTicks": 98,
          "midi": 65,
          "name": "F4",
          "ticks": 9603,
          "time": 10.003125,
          "velocity": 0.5039370078740157
        },
        {
          "duration": 0.09895833333333215,
          "durationTicks": 95,
          "midi": 72,
          "name": "C5",
          "ticks": 10083,
          "time": 10.503125,
          "velocity": 0.5039370078740157
        },
        {
          "duration": 0.09895833333333215,
          "durationTicks": 95,
          "midi": 65,
          "name": "F4",
          "ticks": 10443,
          "time": 10.878125,
          "velocity": 0.5039370078740157
        },
        {
          "duration": 0.09375,
          "durationTicks": 90,
          "midi": 65,
          "name": "F4",
          "ticks": 10683,
          "time": 11.128125,
          "velocity": 0.5039370078740157
        },
        {
          "duration": 0.07604166666666679,
          "durationTicks": 73,
          "midi": 73,
          "name": "C#5",
          "ticks": 10803,
          "time": 11.253125,
          "velocity": 0.5039370078740157
        },
        {
          "duration": 0.078125,
          "durationTicks": 75,
          "midi": 72,
          "name": "C5",
          "ticks": 11043,
          "time": 11.503125,
          "velocity": 0.5039370078740157
        },
        {
          "duration": 0.060416666666666785,
          "durationTicks": 58,
          "midi": 68,
          "name": "G#4",
          "ticks": 11283,
          "time": 11.753125,
          "velocity": 0.5039370078740157
        },
        {
          "duration": 0.05520833333333286,
          "durationTicks": 53,
          "midi": 65,
          "name": "F4",
          "ticks": 11523,
          "time": 12.003125,
          "velocity": 0.5039370078740157
        },
        {
          "duration": 0.057291666666666075,
          "durationTicks": 55,
          "midi": 72,
          "name": "C5",
          "ticks": 11763,
          "time": 12.253125,
          "velocity": 0.5039370078740157
        },
        {
          "duration": 0.07604166666666679,
          "durationTicks": 73,
          "midi": 77,
          "name": "F5",
          "ticks": 12003,
          "time": 12.503125,
          "velocity": 0.5039370078740157
        },
        {
          "duration": 0.060416666666666785,
          "durationTicks": 58,
          "midi": 65,
          "name": "F4",
          "ticks": 12243,
          "time": 12.753125,
          "velocity": 0.5039370078740157
        },
        {
          "duration": 0.08333333333333215,
          "durationTicks": 80,
          "midi": 63,
          "name": "D#4",
          "ticks": 12363,
          "time": 12.878125,
          "velocity": 0.5039370078740157
        },
        {
          "duration": 0.08333333333333215,
          "durationTicks": 80,
          "midi": 63,
          "name": "D#4",
          "ticks": 12603,
          "time": 13.128125,
          "velocity": 0.5039370078740157
        },
        {
          "duration": 0.0625,
          "durationTicks": 60,
          "midi": 60,
          "name": "C4",
          "ticks": 12723,
          "time": 13.253125,
          "velocity": 0.5039370078740157
        },
        {
          "duration": 0.1875,
          "durationTicks": 180,
          "midi": 67,
          "name": "G4",
          "ticks": 12963,
          "time": 13.503125,
          "velocity": 0.5039370078740157
        },
        {
          "duration": 1.3958333333333321,
          "durationTicks": 1340,
          "midi": 65,
          "name": "F4",
          "ticks": 13203,
          "time": 13.753125,
          "velocity": 0.5039370078740157
        },
        {
          "duration": 0.11250000000000426,
          "durationTicks": 108,
          "midi": 65,
          "name": "F4",
          "ticks": 30723,
          "time": 32.003125,
          "velocity": 0.5039370078740157
        },
        {
          "duration": 0.09687500000000426,
          "durationTicks": 93,
          "midi": 68,
          "name": "G#4",
          "ticks": 31203,
          "time": 32.503125,
          "velocity": 0.5039370078740157
        },
        {
          "duration": 0.0833333333333357,
          "durationTicks": 80,
          "midi": 65,
          "name": "F4",
          "ticks": 31563,
          "time": 32.878125,
          "velocity": 0.5039370078740157
        },
        {
          "duration": 0.0989583333333357,
          "durationTicks": 95,
          "midi": 65,
          "name": "F4",
          "ticks": 31803,
          "time": 33.128125,
          "velocity": 0.5039370078740157
        },
        {
          "duration": 0.08125000000000426,
          "durationTicks": 78,
          "midi": 70,
          "name": "A#4",
          "ticks": 31923,
          "time": 33.253125,
          "velocity": 0.5039370078740157
        },
        {
          "duration": 0.09375,
          "durationTicks": 90,
          "midi": 65,
          "name": "F4",
          "ticks": 32163,
          "time": 33.503125,
          "velocity": 0.5039370078740157
        },
        {
          "duration": 0.0989583333333357,
          "durationTicks": 95,
          "midi": 63,
          "name": "D#4",
          "ticks": 32403,
          "time": 33.753125,
          "velocity": 0.5039370078740157
        },
        {
          "duration": 0.10208333333333286,
          "durationTicks": 98,
          "midi": 65,
          "name": "F4",
          "ticks": 32643,
          "time": 34.003125,
          "velocity": 0.5039370078740157
        },
        {
          "duration": 0.0885416666666714,
          "durationTicks": 85,
          "midi": 72,
          "name": "C5",
          "ticks": 33123,
          "time": 34.503125,
          "velocity": 0.5039370078740157
        },
        {
          "duration": 0.08645833333333286,
          "durationTicks": 83,
          "midi": 65,
          "name": "F4",
          "ticks": 33483,
          "time": 34.878125,
          "velocity": 0.5039370078740157
        },
        {
          "duration": 0.09166666666666856,
          "durationTicks": 88,
          "midi": 65,
          "name": "F4",
          "ticks": 33723,
          "time": 35.128125,
          "velocity": 0.5039370078740157
        },
        {
          "duration": 0.06562500000000426,
          "durationTicks": 63,
          "midi": 73,
          "name": "C#5",
          "ticks": 33843,
          "time": 35.253125,
          "velocity": 0.5039370078740157
        },
        {
          "duration": 0.0677083333333357,
          "durationTicks": 65,
          "midi": 72,
          "name": "C5",
          "ticks": 34083,
          "time": 35.503125,
          "velocity": 0.5039370078740157
        },
        {
          "duration": 0.0520833333333357,
          "durationTicks": 50,
          "midi": 68,
          "name": "G#4",
          "ticks": 34323,
          "time": 35.753125,
          "velocity": 0.5039370078740157
        },
        {
          "duration": 0.0520833333333357,
          "durationTicks": 50,
          "midi": 65,
          "name": "F4",
          "ticks": 34563,
          "time": 36.003125,
          "velocity": 0.5039370078740157
        },
        {
          "duration": 0.05000000000000426,
          "durationTicks": 48,
          "midi": 72,
          "name": "C5",
          "ticks": 34803,
          "time": 36.253125,
          "velocity": 0.5039370078740157
        },
        {
          "duration": 0.0729166666666714,
          "durationTicks": 70,
          "midi": 77,
          "name": "F5",
          "ticks": 35043,
          "time": 36.503125,
          "velocity": 0.5039370078740157
        },
        {
          "duration": 0.057291666666671404,
          "durationTicks": 55,
          "midi": 65,
          "name": "F4",
          "ticks": 35283,
          "time": 36.753125,
          "velocity": 0.5039370078740157
        },
        {
          "duration": 0.0833333333333357,
          "durationTicks": 80,
          "midi": 63,
          "name": "D#4",
          "ticks": 35403,
          "time": 36.878125,
          "velocity": 0.5039370078740157
        },
        {
          "duration": 0.08125000000000426,
          "durationTicks": 78,
          "midi": 63,
          "name": "D#4",
          "ticks": 35643,
          "time": 37.128125,
          "velocity": 0.5039370078740157
        },
        {
          "duration": 0.0625,
          "durationTicks": 60,
          "midi": 60,
          "name": "C4",
          "ticks": 35763,
          "time": 37.253125,
          "velocity": 0.5039370078740157
        },
        {
          "duration": 0.08645833333333286,
          "durationTicks": 83,
          "midi": 67,
          "name": "G4",
          "ticks": 36003,
          "time": 37.503125,
          "velocity": 0.5039370078740157
        },
        {
          "duration": 1.2427083333333329,
          "durationTicks": 1193,
          "midi": 65,
          "name": "F4",
          "ticks": 36243,
          "time": 37.753125,
          "velocity": 0.5039370078740157
        },
        {
          "duration": 0.13854166666666856,
          "durationTicks": 133,
          "midi": 65,
          "name": "F4",
          "ticks": 38403,
          "time": 40.003125,
          "velocity": 0.5039370078740157
        },
        {
          "duration": 0.09687500000000426,
          "durationTicks": 93,
          "midi": 68,
          "name": "G#4",
          "ticks": 38883,
          "time": 40.503125,
          "velocity": 0.5039370078740157
        },
        {
          "duration": 0.0729166666666714,
          "durationTicks": 70,
          "midi": 65,
          "name": "F4",
          "ticks": 39243,
          "time": 40.878125,
          "velocity": 0.5039370078740157
        },
        {
          "duration": 0.08645833333333286,
          "durationTicks": 83,
          "midi": 65,
          "name": "F4",
          "ticks": 39483,
          "time": 41.128125,
          "velocity": 0.5039370078740157
        },
        {
          "duration": 0.0833333333333357,
          "durationTicks": 80,
          "midi": 70,
          "name": "A#4",
          "ticks": 39603,
          "time": 41.253125,
          "velocity": 0.5039370078740157
        },
        {
          "duration": 0.1041666666666714,
          "durationTicks": 100,
          "midi": 65,
          "name": "F4",
          "ticks": 39843,
          "time": 41.503125,
          "velocity": 0.5039370078740157
        },
        {
          "duration": 0.078125,
          "durationTicks": 75,
          "midi": 63,
          "name": "D#4",
          "ticks": 40083,
          "time": 41.753125,
          "velocity": 0.5039370078740157
        },
        {
          "duration": 0.10208333333333286,
          "durationTicks": 98,
          "midi": 65,
          "name": "F4",
          "ticks": 40323,
          "time": 42.003125,
          "velocity": 0.5039370078740157
        },
        {
          "duration": 0.0989583333333357,
          "durationTicks": 95,
          "midi": 72,
          "name": "C5",
          "ticks": 40803,
          "time": 42.503125,
          "velocity": 0.5039370078740157
        },
        {
          "duration": 0.0989583333333357,
          "durationTicks": 95,
          "midi": 65,
          "name": "F4",
          "ticks": 41163,
          "time": 42.878125,
          "velocity": 0.5039370078740157
        },
        {
          "duration": 0.09375,
          "durationTicks": 90,
          "midi": 65,
          "name": "F4",
          "ticks": 41403,
          "time": 43.128125,
          "velocity": 0.5039370078740157
        },
        {
          "duration": 0.07604166666666856,
          "durationTicks": 73,
          "midi": 73,
          "name": "C#5",
          "ticks": 41523,
          "time": 43.253125,
          "velocity": 0.5039370078740157
        },
        {
          "duration": 0.078125,
          "durationTicks": 75,
          "midi": 72,
          "name": "C5",
          "ticks": 41763,
          "time": 43.503125,
          "velocity": 0.5039370078740157
        },
        {
          "duration": 0.06041666666666856,
          "durationTicks": 58,
          "midi": 68,
          "name": "G#4",
          "ticks": 42003,
          "time": 43.753125,
          "velocity": 0.5039370078740157
        },
        {
          "duration": 0.05520833333333286,
          "durationTicks": 53,
          "midi": 65,
          "name": "F4",
          "ticks": 42243,
          "time": 44.003125,
          "velocity": 0.5039370078740157
        },
        {
          "duration": 0.057291666666671404,
          "durationTicks": 55,
          "midi": 72,
          "name": "C5",
          "ticks": 42483,
          "time": 44.253125,
          "velocity": 0.5039370078740157
        },
        {
          "duration": 0.07604166666666856,
          "durationTicks": 73,
          "midi": 77,
          "name": "F5",
          "ticks": 42723,
          "time": 44.503125,
          "velocity": 0.5039370078740157
        },
        {
          "duration": 0.06041666666666856,
          "durationTicks": 58,
          "midi": 65,
          "name": "F4",
          "ticks": 42963,
          "time": 44.753125,
          "velocity": 0.5039370078740157
        },
        {
          "duration": 0.0833333333333357,
          "durationTicks": 80,
          "midi": 63,
          "name": "D#4",
          "ticks": 43083,
          "time": 44.878125,
          "velocity": 0.5039370078740157
        },
        {
          "duration": 0.0833333333333357,
          "durationTicks": 80,
          "midi": 63,
          "name": "D#4",
          "ticks": 43323,
          "time": 45.128125,
          "velocity": 0.5039370078740157
        },
        {
          "duration": 0.0625,
          "durationTicks": 60,
          "midi": 60,
          "name": "C4",
          "ticks": 43443,
          "time": 45.253125,
          "velocity": 0.5039370078740157
        },
        {
          "duration": 0.1875,
          "durationTicks": 180,
          "midi": 67,
          "name": "G4",
          "ticks": 43683,
          "time": 45.503125,
          "velocity": 0.5039370078740157
        },
        {
          "duration": 1.3958333333333357,
          "durationTicks": 1340,
          "midi": 65,
          "name": "F4",
          "ticks": 43923,
          "time": 45.753125,
          "velocity": 0.5039370078740157
        },
        {
          "duration": 0.16979166666666856,
          "durationTicks": 163,
          "midi": 89,
          "name": "F6",
          "ticks": 61200,
          "time": 63.75,
          "velocity": 0.5039370078740157
        },
        {
          "duration": 0.12291666666666856,
          "durationTicks": 118,
          "midi": 84,
          "name": "C6",
          "ticks": 61320,
          "time": 63.875,
          "velocity": 0.5039370078740157
        },
        {
          "duration": 0.14895833333333997,
          "durationTicks": 143,
          "midi": 82,
          "name": "A#5",
          "ticks": 61320,
          "time": 63.875,
          "velocity": 0.5039370078740157
        },
        {
          "duration": 0.7687499999999972,
          "durationTicks": 738,
          "midi": 70,
          "name": "A#4",
          "ticks": 61440,
          "time": 64,
          "velocity": 0.5039370078740157
        },
        {
          "duration": 0.765625,
          "durationTicks": 735,
          "midi": 77,
          "name": "F5",
          "ticks": 61440,
          "time": 64,
          "velocity": 0.5039370078740157
        },
        {
          "duration": 0.7604166666666714,
          "durationTicks": 730,
          "midi": 72,
          "name": "C5",
          "ticks": 61440,
          "time": 64,
          "velocity": 0.5039370078740157
        },
        {
          "duration": 0.09687499999999716,
          "durationTicks": 93,
          "midi": 68,
          "name": "G#4",
          "ticks": 83040,
          "time": 86.5,
          "velocity": 0.5039370078740157
        },
        {
          "duration": 0.0833333333333286,
          "durationTicks": 80,
          "midi": 65,
          "name": "F4",
          "ticks": 83400,
          "time": 86.875,
          "velocity": 0.5039370078740157
        },
        {
          "duration": 0.0989583333333286,
          "durationTicks": 95,
          "midi": 65,
          "name": "F4",
          "ticks": 83640,
          "time": 87.125,
          "velocity": 0.5039370078740157
        },
        {
          "duration": 0.08124999999999716,
          "durationTicks": 78,
          "midi": 70,
          "name": "A#4",
          "ticks": 83760,
          "time": 87.25,
          "velocity": 0.5039370078740157
        },
        {
          "duration": 0.09375,
          "durationTicks": 90,
          "midi": 65,
          "name": "F4",
          "ticks": 84000,
          "time": 87.5,
          "velocity": 0.5039370078740157
        },
        {
          "duration": 0.0989583333333286,
          "durationTicks": 95,
          "midi": 63,
          "name": "D#4",
          "ticks": 84240,
          "time": 87.75,
          "velocity": 0.5039370078740157
        },
        {
          "duration": 0.10208333333333997,
          "durationTicks": 98,
          "midi": 65,
          "name": "F4",
          "ticks": 84480,
          "time": 88,
          "velocity": 0.5039370078740157
        },
        {
          "duration": 0.0885416666666714,
          "durationTicks": 85,
          "midi": 72,
          "name": "C5",
          "ticks": 84960,
          "time": 88.5,
          "velocity": 0.5039370078740157
        },
        {
          "duration": 0.08645833333333997,
          "durationTicks": 83,
          "midi": 65,
          "name": "F4",
          "ticks": 85320,
          "time": 88.875,
          "velocity": 0.5039370078740157
        },
        {
          "duration": 0.09166666666666856,
          "durationTicks": 88,
          "midi": 65,
          "name": "F4",
          "ticks": 85560,
          "time": 89.125,
          "velocity": 0.5039370078740157
        },
        {
          "duration": 0.06562499999999716,
          "durationTicks": 63,
          "midi": 73,
          "name": "C#5",
          "ticks": 85680,
          "time": 89.25,
          "velocity": 0.5039370078740157
        },
        {
          "duration": 0.0677083333333286,
          "durationTicks": 65,
          "midi": 72,
          "name": "C5",
          "ticks": 85920,
          "time": 89.5,
          "velocity": 0.5039370078740157
        },
        {
          "duration": 0.052083333333328596,
          "durationTicks": 50,
          "midi": 68,
          "name": "G#4",
          "ticks": 86160,
          "time": 89.75,
          "velocity": 0.5039370078740157
        },
        {
          "duration": 0.052083333333328596,
          "durationTicks": 50,
          "midi": 65,
          "name": "F4",
          "ticks": 86400,
          "time": 90,
          "velocity": 0.5039370078740157
        },
        {
          "duration": 0.04999999999999716,
          "durationTicks": 48,
          "midi": 72,
          "name": "C5",
          "ticks": 86640,
          "time": 90.25,
          "velocity": 0.5039370078740157
        },
        {
          "duration": 0.0729166666666714,
          "durationTicks": 70,
          "midi": 77,
          "name": "F5",
          "ticks": 86880,
          "time": 90.5,
          "velocity": 0.5039370078740157
        },
        {
          "duration": 0.057291666666671404,
          "durationTicks": 55,
          "midi": 65,
          "name": "F4",
          "ticks": 87120,
          "time": 90.75,
          "velocity": 0.5039370078740157
        },
        {
          "duration": 0.0833333333333286,
          "durationTicks": 80,
          "midi": 63,
          "name": "D#4",
          "ticks": 87240,
          "time": 90.875,
          "velocity": 0.5039370078740157
        },
        {
          "duration": 0.08124999999999716,
          "durationTicks": 78,
          "midi": 63,
          "name": "D#4",
          "ticks": 87480,
          "time": 91.125,
          "velocity": 0.5039370078740157
        },
        {
          "duration": 0.0625,
          "durationTicks": 60,
          "midi": 60,
          "name": "C4",
          "ticks": 87600,
          "time": 91.25,
          "velocity": 0.5039370078740157
        },
        {
          "duration": 0.08645833333333997,
          "durationTicks": 83,
          "midi": 67,
          "name": "G4",
          "ticks": 87840,
          "time": 91.5,
          "velocity": 0.5039370078740157
        },
        {
          "duration": 1.24270833333334,
          "durationTicks": 1193,
          "midi": 65,
          "name": "F4",
          "ticks": 88080,
          "time": 91.75,
          "velocity": 0.5039370078740157
        },
        {
          "duration": 0.13854166666666856,
          "durationTicks": 133,
          "midi": 65,
          "name": "F4",
          "ticks": 90240,
          "time": 94,
          "velocity": 0.5039370078740157
        },
        {
          "duration": 0.09687499999999716,
          "durationTicks": 93,
          "midi": 68,
          "name": "G#4",
          "ticks": 90720,
          "time": 94.5,
          "velocity": 0.5039370078740157
        },
        {
          "duration": 0.0729166666666714,
          "durationTicks": 70,
          "midi": 65,
          "name": "F4",
          "ticks": 91080,
          "time": 94.875,
          "velocity": 0.5039370078740157
        },
        {
          "duration": 0.08645833333333997,
          "durationTicks": 83,
          "midi": 65,
          "name": "F4",
          "ticks": 91320,
          "time": 95.125,
          "velocity": 0.5039370078740157
        },
        {
          "duration": 0.0833333333333286,
          "durationTicks": 80,
          "midi": 70,
          "name": "A#4",
          "ticks": 91440,
          "time": 95.25,
          "velocity": 0.5039370078740157
        },
        {
          "duration": 0.1041666666666714,
          "durationTicks": 100,
          "midi": 65,
          "name": "F4",
          "ticks": 91680,
          "time": 95.5,
          "velocity": 0.5039370078740157
        },
        {
          "duration": 0.078125,
          "durationTicks": 75,
          "midi": 63,
          "name": "D#4",
          "ticks": 91920,
          "time": 95.75,
          "velocity": 0.5039370078740157
        },
        {
          "duration": 0.10208333333333997,
          "durationTicks": 98,
          "midi": 65,
          "name": "F4",
          "ticks": 92160,
          "time": 96,
          "velocity": 0.5039370078740157
        },
        {
          "duration": 0.0989583333333286,
          "durationTicks": 95,
          "midi": 72,
          "name": "C5",
          "ticks": 92640,
          "time": 96.5,
          "velocity": 0.5039370078740157
        },
        {
          "duration": 0.0989583333333286,
          "durationTicks": 95,
          "midi": 65,
          "name": "F4",
          "ticks": 93000,
          "time": 96.875,
          "velocity": 0.5039370078740157
        },
        {
          "duration": 0.09375,
          "durationTicks": 90,
          "midi": 65,
          "name": "F4",
          "ticks": 93240,
          "time": 97.125,
          "velocity": 0.5039370078740157
        },
        {
          "duration": 0.07604166666666856,
          "durationTicks": 73,
          "midi": 73,
          "name": "C#5",
          "ticks": 93360,
          "time": 97.25,
          "velocity": 0.5039370078740157
        },
        {
          "duration": 0.078125,
          "durationTicks": 75,
          "midi": 72,
          "name": "C5",
          "ticks": 93600,
          "time": 97.5,
          "velocity": 0.5039370078740157
        },
        {
          "duration": 0.06041666666666856,
          "durationTicks": 58,
          "midi": 68,
          "name": "G#4",
          "ticks": 93840,
          "time": 97.75,
          "velocity": 0.5039370078740157
        },
        {
          "duration": 0.055208333333339965,
          "durationTicks": 53,
          "midi": 65,
          "name": "F4",
          "ticks": 94080,
          "time": 98,
          "velocity": 0.5039370078740157
        },
        {
          "duration": 0.057291666666671404,
          "durationTicks": 55,
          "midi": 72,
          "name": "C5",
          "ticks": 94320,
          "time": 98.25,
          "velocity": 0.5039370078740157
        },
        {
          "duration": 0.07604166666666856,
          "durationTicks": 73,
          "midi": 77,
          "name": "F5",
          "ticks": 94560,
          "time": 98.5,
          "velocity": 0.5039370078740157
        },
        {
          "duration": 0.06041666666666856,
          "durationTicks": 58,
          "midi": 65,
          "name": "F4",
          "ticks": 94800,
          "time": 98.75,
          "velocity": 0.5039370078740157
        },
        {
          "duration": 0.0833333333333286,
          "durationTicks": 80,
          "midi": 63,
          "name": "D#4",
          "ticks": 94920,
          "time": 98.875,
          "velocity": 0.5039370078740157
        },
        {
          "duration": 0.0833333333333286,
          "durationTicks": 80,
          "midi": 63,
          "name": "D#4",
          "ticks": 95160,
          "time": 99.125,
          "velocity": 0.5039370078740157
        },
        {
          "duration": 0.0625,
          "durationTicks": 60,
          "midi": 60,
          "name": "C4",
          "ticks": 95280,
          "time": 99.25,
          "velocity": 0.5039370078740157
        },
        {
          "duration": 0.1875,
          "durationTicks": 180,
          "midi": 67,
          "name": "G4",
          "ticks": 95520,
          "time": 99.5,
          "velocity": 0.5039370078740157
        },
        {
          "duration": 1.3958333333333286,
          "durationTicks": 1340,
          "midi": 65,
          "name": "F4",
          "ticks": 95760,
          "time": 99.75,
          "velocity": 0.5039370078740157
        },
        {
          "duration": 0.44062499999999716,
          "durationTicks": 423,
          "midi": 68,
          "name": "G#4",
          "ticks": 97920,
          "time": 102,
          "velocity": 0.5039370078740157
        },
        {
          "duration": 0.1145833333333286,
          "durationTicks": 110,
          "midi": 56,
          "name": "G#3",
          "ticks": 97920,
          "time": 102,
          "velocity": 0.2755905511811024
        },
        {
          "duration": 0.40625,
          "durationTicks": 390,
          "midi": 63,
          "name": "D#4",
          "ticks": 98280,
          "time": 102.375,
          "velocity": 0.5039370078740157
        },
        {
          "duration": 0.48229166666666856,
          "durationTicks": 463,
          "midi": 68,
          "name": "G#4",
          "ticks": 98640,
          "time": 102.75,
          "velocity": 0.5039370078740157
        },
        {
          "duration": 0.0729166666666714,
          "durationTicks": 70,
          "midi": 56,
          "name": "G#3",
          "ticks": 98640,
          "time": 102.75,
          "velocity": 0.2755905511811024
        },
        {
          "duration": 0.3177083333333286,
          "durationTicks": 305,
          "midi": 63,
          "name": "D#4",
          "ticks": 99120,
          "time": 103.25,
          "velocity": 0.5039370078740157
        },
        {
          "duration": 0.057291666666671404,
          "durationTicks": 55,
          "midi": 56,
          "name": "G#3",
          "ticks": 99120,
          "time": 103.25,
          "velocity": 0.2755905511811024
        },
        {
          "duration": 0.04479166666666856,
          "durationTicks": 43,
          "midi": 56,
          "name": "G#3",
          "ticks": 99240,
          "time": 103.375,
          "velocity": 0.2755905511811024
        },
        {
          "duration": 0.25833333333333997,
          "durationTicks": 248,
          "midi": 68,
          "name": "G#4",
          "ticks": 99360,
          "time": 103.5,
          "velocity": 0.5039370078740157
        },
        {
          "duration": 0.052083333333328596,
          "durationTicks": 50,
          "midi": 56,
          "name": "G#3",
          "ticks": 99360,
          "time": 103.5,
          "velocity": 0.2755905511811024
        },
        {
          "duration": 0.0833333333333286,
          "durationTicks": 80,
          "midi": 56,
          "name": "G#3",
          "ticks": 99480,
          "time": 103.625,
          "velocity": 0.2755905511811024
        },
        {
          "duration": 0.036458333333328596,
          "durationTicks": 35,
          "midi": 51,
          "name": "D#3",
          "ticks": 99600,
          "time": 103.75,
          "velocity": 0.2755905511811024
        },
        {
          "duration": 0.2552083333333286,
          "durationTicks": 245,
          "midi": 63,
          "name": "D#4",
          "ticks": 99600,
          "time": 103.75,
          "velocity": 0.5039370078740157
        },
        {
          "duration": 0.06041666666666856,
          "durationTicks": 58,
          "midi": 51,
          "name": "D#3",
          "ticks": 99720,
          "time": 103.875,
          "velocity": 0.2755905511811024
        },
        {
          "duration": 0.44062499999999716,
          "durationTicks": 423,
          "midi": 68,
          "name": "G#4",
          "ticks": 99840,
          "time": 104,
          "velocity": 0.5039370078740157
        },
        {
          "duration": 0.0677083333333286,
          "durationTicks": 65,
          "midi": 53,
          "name": "F3",
          "ticks": 99840,
          "time": 104,
          "velocity": 0.2755905511811024
        },
        {
          "duration": 0.40625,
          "durationTicks": 390,
          "midi": 63,
          "name": "D#4",
          "ticks": 100200,
          "time": 104.375,
          "velocity": 0.5039370078740157
        },
        {
          "duration": 0.06041666666666856,
          "durationTicks": 58,
          "midi": 53,
          "name": "F3",
          "ticks": 100560,
          "time": 104.75,
          "velocity": 0.2755905511811024
        },
        {
          "duration": 0.48229166666666856,
          "durationTicks": 463,
          "midi": 68,
          "name": "G#4",
          "ticks": 100560,
          "time": 104.75,
          "velocity": 0.5039370078740157
        },
        {
          "duration": 0.3177083333333286,
          "durationTicks": 305,
          "midi": 63,
          "name": "D#4",
          "ticks": 101040,
          "time": 105.25,
          "velocity": 0.5039370078740157
        },
        {
          "duration": 0.25833333333333997,
          "durationTicks": 248,
          "midi": 68,
          "name": "G#4",
          "ticks": 101280,
          "time": 105.5,
          "velocity": 0.5039370078740157
        },
        {
          "duration": 0.0625,
          "durationTicks": 60,
          "midi": 53,
          "name": "F3",
          "ticks": 101280,
          "time": 105.5,
          "velocity": 0.2755905511811024
        },
        {
          "duration": 0.2552083333333286,
          "durationTicks": 245,
          "midi": 63,
          "name": "D#4",
          "ticks": 101520,
          "time": 105.75,
          "velocity": 0.5039370078740157
        },
        {
          "duration": 0.07604166666666856,
          "durationTicks": 73,
          "midi": 54,
          "name": "F#3",
          "ticks": 101760,
          "time": 106,
          "velocity": 0.2755905511811024
        },
        {
          "duration": 0.44062499999999716,
          "durationTicks": 423,
          "midi": 68,
          "name": "G#4",
          "ticks": 101760,
          "time": 106,
          "velocity": 0.5039370078740157
        },
        {
          "duration": 0.40625,
          "durationTicks": 390,
          "midi": 63,
          "name": "D#4",
          "ticks": 102120,
          "time": 106.375,
          "velocity": 0.5039370078740157
        },
        {
          "duration": 0.0677083333333286,
          "durationTicks": 65,
          "midi": 54,
          "name": "F#3",
          "ticks": 102480,
          "time": 106.75,
          "velocity": 0.2755905511811024
        },
        {
          "duration": 0.48229166666666856,
          "durationTicks": 463,
          "midi": 68,
          "name": "G#4",
          "ticks": 102480,
          "time": 106.75,
          "velocity": 0.5039370078740157
        },
        {
          "duration": 0.3177083333333286,
          "durationTicks": 305,
          "midi": 63,
          "name": "D#4",
          "ticks": 102960,
          "time": 107.25,
          "velocity": 0.5039370078740157
        },
        {
          "duration": 0.07083333333333997,
          "durationTicks": 68,
          "midi": 54,
          "name": "F#3",
          "ticks": 103200,
          "time": 107.5,
          "velocity": 0.2755905511811024
        },
        {
          "duration": 0.25833333333333997,
          "durationTicks": 248,
          "midi": 68,
          "name": "G#4",
          "ticks": 103200,
          "time": 107.5,
          "velocity": 0.5039370078740157
        },
        {
          "duration": 0.2552083333333286,
          "durationTicks": 245,
          "midi": 63,
          "name": "D#4",
          "ticks": 103440,
          "time": 107.75,
          "velocity": 0.5039370078740157
        },
        {
          "duration": 0.44062499999999716,
          "durationTicks": 423,
          "midi": 68,
          "name": "G#4",
          "ticks": 103680,
          "time": 108,
          "velocity": 0.5039370078740157
        },
        {
          "duration": 0.07604166666666856,
          "durationTicks": 73,
          "midi": 51,
          "name": "D#3",
          "ticks": 103680,
          "time": 108,
          "velocity": 0.2755905511811024
        },
        {
          "duration": 0.40625,
          "durationTicks": 390,
          "midi": 63,
          "name": "D#4",
          "ticks": 104040,
          "time": 108.375,
          "velocity": 0.5039370078740157
        },
        {
          "duration": 0.06041666666666856,
          "durationTicks": 58,
          "midi": 51,
          "name": "D#3",
          "ticks": 104400,
          "time": 108.75,
          "velocity": 0.2755905511811024
        },
        {
          "duration": 0.48229166666666856,
          "durationTicks": 463,
          "midi": 68,
          "name": "G#4",
          "ticks": 104400,
          "time": 108.75,
          "velocity": 0.5039370078740157
        },
        {
          "duration": 0.3177083333333286,
          "durationTicks": 305,
          "midi": 63,
          "name": "D#4",
          "ticks": 104880,
          "time": 109.25,
          "velocity": 0.5039370078740157
        },
        {
          "duration": 0.0625,
          "durationTicks": 60,
          "midi": 51,
          "name": "D#3",
          "ticks": 105120,
          "time": 109.5,
          "velocity": 0.2755905511811024
        },
        {
          "duration": 0.25833333333333997,
          "durationTicks": 248,
          "midi": 68,
          "name": "G#4",
          "ticks": 105120,
          "time": 109.5,
          "velocity": 0.5039370078740157
        },
        {
          "duration": 0.2552083333333286,
          "durationTicks": 245,
          "midi": 63,
          "name": "D#4",
          "ticks": 105360,
          "time": 109.75,
          "velocity": 0.5039370078740157
        },
        {
          "duration": 0.44062499999999716,
          "durationTicks": 423,
          "midi": 68,
          "name": "G#4",
          "ticks": 105600,
          "time": 110,
          "velocity": 0.5039370078740157
        },
        {
          "duration": 0.1145833333333286,
          "durationTicks": 110,
          "midi": 56,
          "name": "G#3",
          "ticks": 105600,
          "time": 110,
          "velocity": 0.2755905511811024
        },
        {
          "duration": 0.40625,
          "durationTicks": 390,
          "midi": 63,
          "name": "D#4",
          "ticks": 105960,
          "time": 110.375,
          "velocity": 0.5039370078740157
        },
        {
          "duration": 0.48229166666666856,
          "durationTicks": 463,
          "midi": 68,
          "name": "G#4",
          "ticks": 106320,
          "time": 110.75,
          "velocity": 0.5039370078740157
        },
        {
          "duration": 0.0729166666666714,
          "durationTicks": 70,
          "midi": 56,
          "name": "G#3",
          "ticks": 106320,
          "time": 110.75,
          "velocity": 0.2755905511811024
        },
        {
          "duration": 0.3177083333333286,
          "durationTicks": 305,
          "midi": 63,
          "name": "D#4",
          "ticks": 106800,
          "time": 111.25,
          "velocity": 0.5039370078740157
        },
        {
          "duration": 0.057291666666671404,
          "durationTicks": 55,
          "midi": 56,
          "name": "G#3",
          "ticks": 106800,
          "time": 111.25,
          "velocity": 0.2755905511811024
        },
        {
          "duration": 0.04479166666666856,
          "durationTicks": 43,
          "midi": 56,
          "name": "G#3",
          "ticks": 106920,
          "time": 111.375,
          "velocity": 0.2755905511811024
        },
        {
          "duration": 0.25833333333333997,
          "durationTicks": 248,
          "midi": 68,
          "name": "G#4",
          "ticks": 107040,
          "time": 111.5,
          "velocity": 0.5039370078740157
        },
        {
          "duration": 0.052083333333328596,
          "durationTicks": 50,
          "midi": 56,
          "name": "G#3",
          "ticks": 107040,
          "time": 111.5,
          "velocity": 0.2755905511811024
        },
        {
          "duration": 0.0833333333333286,
          "durationTicks": 80,
          "midi": 56,
          "name": "G#3",
          "ticks": 107160,
          "time": 111.625,
          "velocity": 0.2755905511811024
        },
        {
          "duration": 0.036458333333328596,
          "durationTicks": 35,
          "midi": 51,
          "name": "D#3",
          "ticks": 107280,
          "time": 111.75,
          "velocity": 0.2755905511811024
        },
        {
          "duration": 0.2552083333333286,
          "durationTicks": 245,
          "midi": 63,
          "name": "D#4",
          "ticks": 107280,
          "time": 111.75,
          "velocity": 0.5039370078740157
        },
        {
          "duration": 0.06041666666666856,
          "durationTicks": 58,
          "midi": 51,
          "name": "D#3",
          "ticks": 107400,
          "time": 111.875,
          "velocity": 0.2755905511811024
        },
        {
          "duration": 0.44062499999999716,
          "durationTicks": 423,
          "midi": 68,
          "name": "G#4",
          "ticks": 107520,
          "time": 112,
          "velocity": 0.5039370078740157
        },
        {
          "duration": 0.0677083333333286,
          "durationTicks": 65,
          "midi": 53,
          "name": "F3",
          "ticks": 107520,
          "time": 112,
          "velocity": 0.2755905511811024
        },
        {
          "duration": 0.40625,
          "durationTicks": 390,
          "midi": 63,
          "name": "D#4",
          "ticks": 107880,
          "time": 112.375,
          "velocity": 0.5039370078740157
        },
        {
          "duration": 0.06041666666666856,
          "durationTicks": 58,
          "midi": 53,
          "name": "F3",
          "ticks": 108240,
          "time": 112.75,
          "velocity": 0.2755905511811024
        },
        {
          "duration": 0.48229166666666856,
          "durationTicks": 463,
          "midi": 68,
          "name": "G#4",
          "ticks": 108240,
          "time": 112.75,
          "velocity": 0.5039370078740157
        },
        {
          "duration": 0.3177083333333286,
          "durationTicks": 305,
          "midi": 63,
          "name": "D#4",
          "ticks": 108720,
          "time": 113.25,
          "velocity": 0.5039370078740157
        },
        {
          "duration": 0.25833333333333997,
          "durationTicks": 248,
          "midi": 68,
          "name": "G#4",
          "ticks": 108960,
          "time": 113.5,
          "velocity": 0.5039370078740157
        },
        {
          "duration": 0.0625,
          "durationTicks": 60,
          "midi": 53,
          "name": "F3",
          "ticks": 108960,
          "time": 113.5,
          "velocity": 0.2755905511811024
        },
        {
          "duration": 0.2552083333333286,
          "durationTicks": 245,
          "midi": 63,
          "name": "D#4",
          "ticks": 109200,
          "time": 113.75,
          "velocity": 0.5039370078740157
        },
        {
          "duration": 0.07604166666666856,
          "durationTicks": 73,
          "midi": 54,
          "name": "F#3",
          "ticks": 109440,
          "time": 114,
          "velocity": 0.2755905511811024
        },
        {
          "duration": 0.44062499999999716,
          "durationTicks": 423,
          "midi": 68,
          "name": "G#4",
          "ticks": 109440,
          "time": 114,
          "velocity": 0.5039370078740157
        },
        {
          "duration": 0.40625,
          "durationTicks": 390,
          "midi": 63,
          "name": "D#4",
          "ticks": 109800,
          "time": 114.375,
          "velocity": 0.5039370078740157
        },
        {
          "duration": 0.0677083333333286,
          "durationTicks": 65,
          "midi": 54,
          "name": "F#3",
          "ticks": 110160,
          "time": 114.75,
          "velocity": 0.2755905511811024
        },
        {
          "duration": 0.48229166666666856,
          "durationTicks": 463,
          "midi": 68,
          "name": "G#4",
          "ticks": 110160,
          "time": 114.75,
          "velocity": 0.5039370078740157
        },
        {
          "duration": 0.3177083333333286,
          "durationTicks": 305,
          "midi": 63,
          "name": "D#4",
          "ticks": 110640,
          "time": 115.25,
          "velocity": 0.5039370078740157
        },
        {
          "duration": 0.07083333333333997,
          "durationTicks": 68,
          "midi": 54,
          "name": "F#3",
          "ticks": 110880,
          "time": 115.5,
          "velocity": 0.2755905511811024
        },
        {
          "duration": 0.25833333333333997,
          "durationTicks": 248,
          "midi": 68,
          "name": "G#4",
          "ticks": 110880,
          "time": 115.5,
          "velocity": 0.5039370078740157
        },
        {
          "duration": 0.2552083333333286,
          "durationTicks": 245,
          "midi": 63,
          "name": "D#4",
          "ticks": 111120,
          "time": 115.75,
          "velocity": 0.5039370078740157
        },
        {
          "duration": 0.44062499999999716,
          "durationTicks": 423,
          "midi": 68,
          "name": "G#4",
          "ticks": 111360,
          "time": 116,
          "velocity": 0.5039370078740157
        },
        {
          "duration": 0.07604166666666856,
          "durationTicks": 73,
          "midi": 51,
          "name": "D#3",
          "ticks": 111360,
          "time": 116,
          "velocity": 0.2755905511811024
        },
        {
          "duration": 0.40625,
          "durationTicks": 390,
          "midi": 63,
          "name": "D#4",
          "ticks": 111720,
          "time": 116.375,
          "velocity": 0.5039370078740157
        },
        {
          "duration": 0.06041666666666856,
          "durationTicks": 58,
          "midi": 51,
          "name": "D#3",
          "ticks": 112080,
          "time": 116.75,
          "velocity": 0.2755905511811024
        },
        {
          "duration": 0.48229166666666856,
          "durationTicks": 463,
          "midi": 68,
          "name": "G#4",
          "ticks": 112080,
          "time": 116.75,
          "velocity": 0.5039370078740157
        },
        {
          "duration": 0.3177083333333286,
          "durationTicks": 305,
          "midi": 63,
          "name": "D#4",
          "ticks": 112560,
          "time": 117.25,
          "velocity": 0.5039370078740157
        },
        {
          "duration": 0.0625,
          "durationTicks": 60,
          "midi": 51,
          "name": "D#3",
          "ticks": 112800,
          "time": 117.5,
          "velocity": 0.2755905511811024
        },
        {
          "duration": 0.25833333333333997,
          "durationTicks": 248,
          "midi": 68,
          "name": "G#4",
          "ticks": 112800,
          "time": 117.5,
          "velocity": 0.5039370078740157
        },
        {
          "duration": 0.2552083333333286,
          "durationTicks": 245,
          "midi": 63,
          "name": "D#4",
          "ticks": 113040,
          "time": 117.75,
          "velocity": 0.5039370078740157
        },
        {
          "duration": 0.44062499999999716,
          "durationTicks": 423,
          "midi": 68,
          "name": "G#4",
          "ticks": 113280,
          "time": 118,
          "velocity": 0.5039370078740157
        },
        {
          "duration": 0.1145833333333286,
          "durationTicks": 110,
          "midi": 56,
          "name": "G#3",
          "ticks": 113280,
          "time": 118,
          "velocity": 0.2755905511811024
        },
        {
          "duration": 0.40625,
          "durationTicks": 390,
          "midi": 63,
          "name": "D#4",
          "ticks": 113640,
          "time": 118.375,
          "velocity": 0.5039370078740157
        },
        {
          "duration": 0.48229166666666856,
          "durationTicks": 463,
          "midi": 68,
          "name": "G#4",
          "ticks": 114000,
          "time": 118.75,
          "velocity": 0.5039370078740157
        },
        {
          "duration": 0.0729166666666714,
          "durationTicks": 70,
          "midi": 56,
          "name": "G#3",
          "ticks": 114000,
          "time": 118.75,
          "velocity": 0.2755905511811024
        },
        {
          "duration": 0.3177083333333286,
          "durationTicks": 305,
          "midi": 63,
          "name": "D#4",
          "ticks": 114480,
          "time": 119.25,
          "velocity": 0.5039370078740157
        },
        {
          "duration": 0.057291666666671404,
          "durationTicks": 55,
          "midi": 56,
          "name": "G#3",
          "ticks": 114480,
          "time": 119.25,
          "velocity": 0.2755905511811024
        },
        {
          "duration": 0.04479166666666856,
          "durationTicks": 43,
          "midi": 56,
          "name": "G#3",
          "ticks": 114600,
          "time": 119.375,
          "velocity": 0.2755905511811024
        },
        {
          "duration": 0.25833333333333997,
          "durationTicks": 248,
          "midi": 68,
          "name": "G#4",
          "ticks": 114720,
          "time": 119.5,
          "velocity": 0.5039370078740157
        },
        {
          "duration": 0.052083333333328596,
          "durationTicks": 50,
          "midi": 56,
          "name": "G#3",
          "ticks": 114720,
          "time": 119.5,
          "velocity": 0.2755905511811024
        },
        {
          "duration": 0.0833333333333286,
          "durationTicks": 80,
          "midi": 56,
          "name": "G#3",
          "ticks": 114840,
          "time": 119.625,
          "velocity": 0.2755905511811024
        },
        {
          "duration": 0.036458333333328596,
          "durationTicks": 35,
          "midi": 51,
          "name": "D#3",
          "ticks": 114960,
          "time": 119.75,
          "velocity": 0.2755905511811024
        },
        {
          "duration": 0.2552083333333286,
          "durationTicks": 245,
          "midi": 63,
          "name": "D#4",
          "ticks": 114960,
          "time": 119.75,
          "velocity": 0.5039370078740157
        },
        {
          "duration": 0.06041666666666856,
          "durationTicks": 58,
          "midi": 51,
          "name": "D#3",
          "ticks": 115080,
          "time": 119.875,
          "velocity": 0.2755905511811024
        },
        {
          "duration": 0.44062499999999716,
          "durationTicks": 423,
          "midi": 68,
          "name": "G#4",
          "ticks": 115200,
          "time": 120,
          "velocity": 0.5039370078740157
        },
        {
          "duration": 0.0677083333333286,
          "durationTicks": 65,
          "midi": 53,
          "name": "F3",
          "ticks": 115200,
          "time": 120,
          "velocity": 0.2755905511811024
        },
        {
          "duration": 0.40625,
          "durationTicks": 390,
          "midi": 63,
          "name": "D#4",
          "ticks": 115560,
          "time": 120.375,
          "velocity": 0.5039370078740157
        },
        {
          "duration": 0.06041666666666856,
          "durationTicks": 58,
          "midi": 53,
          "name": "F3",
          "ticks": 115920,
          "time": 120.75,
          "velocity": 0.2755905511811024
        },
        {
          "duration": 0.48229166666666856,
          "durationTicks": 463,
          "midi": 68,
          "name": "G#4",
          "ticks": 115920,
          "time": 120.75,
          "velocity": 0.5039370078740157
        },
        {
          "duration": 0.3177083333333286,
          "durationTicks": 305,
          "midi": 63,
          "name": "D#4",
          "ticks": 116400,
          "time": 121.25,
          "velocity": 0.5039370078740157
        },
        {
          "duration": 0.25833333333333997,
          "durationTicks": 248,
          "midi": 68,
          "name": "G#4",
          "ticks": 116640,
          "time": 121.5,
          "velocity": 0.5039370078740157
        },
        {
          "duration": 0.0625,
          "durationTicks": 60,
          "midi": 53,
          "name": "F3",
          "ticks": 116640,
          "time": 121.5,
          "velocity": 0.2755905511811024
        },
        {
          "duration": 0.2552083333333286,
          "durationTicks": 245,
          "midi": 63,
          "name": "D#4",
          "ticks": 116880,
          "time": 121.75,
          "velocity": 0.5039370078740157
        },
        {
          "duration": 0.07604166666666856,
          "durationTicks": 73,
          "midi": 54,
          "name": "F#3",
          "ticks": 117120,
          "time": 122,
          "velocity": 0.2755905511811024
        },
        {
          "duration": 0.44062499999999716,
          "durationTicks": 423,
          "midi": 68,
          "name": "G#4",
          "ticks": 117120,
          "time": 122,
          "velocity": 0.5039370078740157
        },
        {
          "duration": 0.40625,
          "durationTicks": 390,
          "midi": 63,
          "name": "D#4",
          "ticks": 117480,
          "time": 122.375,
          "velocity": 0.5039370078740157
        },
        {
          "duration": 0.0677083333333286,
          "durationTicks": 65,
          "midi": 54,
          "name": "F#3",
          "ticks": 117840,
          "time": 122.75,
          "velocity": 0.2755905511811024
        },
        {
          "duration": 0.48229166666666856,
          "durationTicks": 463,
          "midi": 68,
          "name": "G#4",
          "ticks": 117840,
          "time": 122.75,
          "velocity": 0.5039370078740157
        },
        {
          "duration": 0.3177083333333286,
          "durationTicks": 305,
          "midi": 63,
          "name": "D#4",
          "ticks": 118320,
          "time": 123.25,
          "velocity": 0.5039370078740157
        },
        {
          "duration": 0.07083333333333997,
          "durationTicks": 68,
          "midi": 54,
          "name": "F#3",
          "ticks": 118560,
          "time": 123.5,
          "velocity": 0.2755905511811024
        },
        {
          "duration": 0.25833333333333997,
          "durationTicks": 248,
          "midi": 68,
          "name": "G#4",
          "ticks": 118560,
          "time": 123.5,
          "velocity": 0.5039370078740157
        },
        {
          "duration": 0.2552083333333286,
          "durationTicks": 245,
          "midi": 63,
          "name": "D#4",
          "ticks": 118800,
          "time": 123.75,
          "velocity": 0.5039370078740157
        },
        {
          "duration": 0.44062499999999716,
          "durationTicks": 423,
          "midi": 68,
          "name": "G#4",
          "ticks": 119040,
          "time": 124,
          "velocity": 0.5039370078740157
        },
        {
          "duration": 0.07604166666666856,
          "durationTicks": 73,
          "midi": 51,
          "name": "D#3",
          "ticks": 119040,
          "time": 124,
          "velocity": 0.2755905511811024
        },
        {
          "duration": 0.40625,
          "durationTicks": 390,
          "midi": 63,
          "name": "D#4",
          "ticks": 119400,
          "time": 124.375,
          "velocity": 0.5039370078740157
        },
        {
          "duration": 0.06041666666666856,
          "durationTicks": 58,
          "midi": 51,
          "name": "D#3",
          "ticks": 119760,
          "time": 124.75,
          "velocity": 0.2755905511811024
        },
        {
          "duration": 0.48229166666666856,
          "durationTicks": 463,
          "midi": 68,
          "name": "G#4",
          "ticks": 119760,
          "time": 124.75,
          "velocity": 0.5039370078740157
        },
        {
          "duration": 0.3177083333333286,
          "durationTicks": 305,
          "midi": 63,
          "name": "D#4",
          "ticks": 120240,
          "time": 125.25,
          "velocity": 0.5039370078740157
        },
        {
          "duration": 0.0625,
          "durationTicks": 60,
          "midi": 51,
          "name": "D#3",
          "ticks": 120480,
          "time": 125.5,
          "velocity": 0.2755905511811024
        },
        {
          "duration": 0.25833333333333997,
          "durationTicks": 248,
          "midi": 68,
          "name": "G#4",
          "ticks": 120480,
          "time": 125.5,
          "velocity": 0.5039370078740157
        },
        {
          "duration": 0.2552083333333286,
          "durationTicks": 245,
          "midi": 63,
          "name": "D#4",
          "ticks": 120720,
          "time": 125.75,
          "velocity": 0.5039370078740157
        },
        {
          "duration": 0.44062499999999716,
          "durationTicks": 423,
          "midi": 68,
          "name": "G#4",
          "ticks": 120960,
          "time": 126,
          "velocity": 0.5039370078740157
        },
        {
          "duration": 0.1145833333333286,
          "durationTicks": 110,
          "midi": 56,
          "name": "G#3",
          "ticks": 120960,
          "time": 126,
          "velocity": 0.2755905511811024
        },
        {
          "duration": 0.40625,
          "durationTicks": 390,
          "midi": 63,
          "name": "D#4",
          "ticks": 121320,
          "time": 126.375,
          "velocity": 0.5039370078740157
        },
        {
          "duration": 0.48229166666666856,
          "durationTicks": 463,
          "midi": 68,
          "name": "G#4",
          "ticks": 121680,
          "time": 126.75,
          "velocity": 0.5039370078740157
        },
        {
          "duration": 0.0729166666666714,
          "durationTicks": 70,
          "midi": 56,
          "name": "G#3",
          "ticks": 121680,
          "time": 126.75,
          "velocity": 0.2755905511811024
        },
        {
          "duration": 0.3177083333333286,
          "durationTicks": 305,
          "midi": 63,
          "name": "D#4",
          "ticks": 122160,
          "time": 127.25,
          "velocity": 0.5039370078740157
        },
        {
          "duration": 0.057291666666671404,
          "durationTicks": 55,
          "midi": 56,
          "name": "G#3",
          "ticks": 122160,
          "time": 127.25,
          "velocity": 0.2755905511811024
        },
        {
          "duration": 0.04479166666666856,
          "durationTicks": 43,
          "midi": 56,
          "name": "G#3",
          "ticks": 122280,
          "time": 127.375,
          "velocity": 0.2755905511811024
        },
        {
          "duration": 0.25833333333333997,
          "durationTicks": 248,
          "midi": 68,
          "name": "G#4",
          "ticks": 122400,
          "time": 127.5,
          "velocity": 0.5039370078740157
        },
        {
          "duration": 0.052083333333328596,
          "durationTicks": 50,
          "midi": 56,
          "name": "G#3",
          "ticks": 122400,
          "time": 127.5,
          "velocity": 0.2755905511811024
        },
        {
          "duration": 0.0833333333333286,
          "durationTicks": 80,
          "midi": 56,
          "name": "G#3",
          "ticks": 122520,
          "time": 127.625,
          "velocity": 0.2755905511811024
        },
        {
          "duration": 0.036458333333328596,
          "durationTicks": 35,
          "midi": 51,
          "name": "D#3",
          "ticks": 122640,
          "time": 127.75,
          "velocity": 0.2755905511811024
        },
        {
          "duration": 0.2552083333333428,
          "durationTicks": 245,
          "midi": 63,
          "name": "D#4",
          "ticks": 122640,
          "time": 127.75,
          "velocity": 0.5039370078740157
        },
        {
          "duration": 0.06041666666666856,
          "durationTicks": 58,
          "midi": 51,
          "name": "D#3",
          "ticks": 122760,
          "time": 127.875,
          "velocity": 0.2755905511811024
        },
        {
          "duration": 0.44062500000001137,
          "durationTicks": 423,
          "midi": 68,
          "name": "G#4",
          "ticks": 122880,
          "time": 128,
          "velocity": 0.5039370078740157
        },
        {
          "duration": 0.06770833333334281,
          "durationTicks": 65,
          "midi": 53,
          "name": "F3",
          "ticks": 122880,
          "time": 128,
          "velocity": 0.2755905511811024
        },
        {
          "duration": 0.40625,
          "durationTicks": 390,
          "midi": 63,
          "name": "D#4",
          "ticks": 123240,
          "time": 128.375,
          "velocity": 0.5039370078740157
        },
        {
          "duration": 0.06041666666666856,
          "durationTicks": 58,
          "midi": 53,
          "name": "F3",
          "ticks": 123600,
          "time": 128.75,
          "velocity": 0.2755905511811024
        },
        {
          "duration": 0.48229166666666856,
          "durationTicks": 463,
          "midi": 68,
          "name": "G#4",
          "ticks": 123600,
          "time": 128.75,
          "velocity": 0.5039370078740157
        },
        {
          "duration": 0.3177083333333428,
          "durationTicks": 305,
          "midi": 63,
          "name": "D#4",
          "ticks": 124080,
          "time": 129.25,
          "velocity": 0.5039370078740157
        },
        {
          "duration": 0.25833333333332575,
          "durationTicks": 248,
          "midi": 68,
          "name": "G#4",
          "ticks": 124320,
          "time": 129.5,
          "velocity": 0.5039370078740157
        },
        {
          "duration": 0.0625,
          "durationTicks": 60,
          "midi": 53,
          "name": "F3",
          "ticks": 124320,
          "time": 129.5,
          "velocity": 0.2755905511811024
        },
        {
          "duration": 0.2552083333333428,
          "durationTicks": 245,
          "midi": 63,
          "name": "D#4",
          "ticks": 124560,
          "time": 129.75,
          "velocity": 0.5039370078740157
        },
        {
          "duration": 0.07604166666666856,
          "durationTicks": 73,
          "midi": 54,
          "name": "F#3",
          "ticks": 124800,
          "time": 130,
          "velocity": 0.2755905511811024
        },
        {
          "duration": 0.44062500000001137,
          "durationTicks": 423,
          "midi": 68,
          "name": "G#4",
          "ticks": 124800,
          "time": 130,
          "velocity": 0.5039370078740157
        },
        {
          "duration": 0.40625,
          "durationTicks": 390,
          "midi": 63,
          "name": "D#4",
          "ticks": 125160,
          "time": 130.375,
          "velocity": 0.5039370078740157
        },
        {
          "duration": 0.06770833333334281,
          "durationTicks": 65,
          "midi": 54,
          "name": "F#3",
          "ticks": 125520,
          "time": 130.75,
          "velocity": 0.2755905511811024
        },
        {
          "duration": 0.48229166666666856,
          "durationTicks": 463,
          "midi": 68,
          "name": "G#4",
          "ticks": 125520,
          "time": 130.75,
          "velocity": 0.5039370078740157
        },
        {
          "duration": 0.3177083333333428,
          "durationTicks": 305,
          "midi": 63,
          "name": "D#4",
          "ticks": 126000,
          "time": 131.25,
          "velocity": 0.5039370078740157
        },
        {
          "duration": 0.07083333333332575,
          "durationTicks": 68,
          "midi": 54,
          "name": "F#3",
          "ticks": 126240,
          "time": 131.5,
          "velocity": 0.2755905511811024
        },
        {
          "duration": 0.25833333333332575,
          "durationTicks": 248,
          "midi": 68,
          "name": "G#4",
          "ticks": 126240,
          "time": 131.5,
          "velocity": 0.5039370078740157
        },
        {
          "duration": 0.2552083333333428,
          "durationTicks": 245,
          "midi": 63,
          "name": "D#4",
          "ticks": 126480,
          "time": 131.75,
          "velocity": 0.5039370078740157
        },
        {
          "duration": 0.44062500000001137,
          "durationTicks": 423,
          "midi": 68,
          "name": "G#4",
          "ticks": 126720,
          "time": 132,
          "velocity": 0.5039370078740157
        },
        {
          "duration": 0.07604166666666856,
          "durationTicks": 73,
          "midi": 51,
          "name": "D#3",
          "ticks": 126720,
          "time": 132,
          "velocity": 0.2755905511811024
        },
        {
          "duration": 0.40625,
          "durationTicks": 390,
          "midi": 63,
          "name": "D#4",
          "ticks": 127080,
          "time": 132.375,
          "velocity": 0.5039370078740157
        },
        {
          "duration": 0.06041666666666856,
          "durationTicks": 58,
          "midi": 51,
          "name": "D#3",
          "ticks": 127440,
          "time": 132.75,
          "velocity": 0.2755905511811024
        },
        {
          "duration": 0.48229166666666856,
          "durationTicks": 463,
          "midi": 68,
          "name": "G#4",
          "ticks": 127440,
          "time": 132.75,
          "velocity": 0.5039370078740157
        },
        {
          "duration": 0.3177083333333428,
          "durationTicks": 305,
          "midi": 63,
          "name": "D#4",
          "ticks": 127920,
          "time": 133.25,
          "velocity": 0.5039370078740157
        },
        {
          "duration": 0.0625,
          "durationTicks": 60,
          "midi": 51,
          "name": "D#3",
          "ticks": 128160,
          "time": 133.5,
          "velocity": 0.2755905511811024
        },
        {
          "duration": 0.25833333333332575,
          "durationTicks": 248,
          "midi": 68,
          "name": "G#4",
          "ticks": 128160,
          "time": 133.5,
          "velocity": 0.5039370078740157
        },
        {
          "duration": 0.2552083333333428,
          "durationTicks": 245,
          "midi": 63,
          "name": "D#4",
          "ticks": 128400,
          "time": 133.75,
          "velocity": 0.5039370078740157
        },
        {
          "duration": 0.44062500000001137,
          "durationTicks": 423,
          "midi": 68,
          "name": "G#4",
          "ticks": 128640,
          "time": 134,
          "velocity": 0.5039370078740157
        },
        {
          "duration": 0.11458333333334281,
          "durationTicks": 110,
          "midi": 56,
          "name": "G#3",
          "ticks": 128640,
          "time": 134,
          "velocity": 0.2755905511811024
        },
        {
          "duration": 0.40625,
          "durationTicks": 390,
          "midi": 63,
          "name": "D#4",
          "ticks": 129000,
          "time": 134.375,
          "velocity": 0.5039370078740157
        },
        {
          "duration": 0.48229166666666856,
          "durationTicks": 463,
          "midi": 68,
          "name": "G#4",
          "ticks": 129360,
          "time": 134.75,
          "velocity": 0.5039370078740157
        },
        {
          "duration": 0.07291666666665719,
          "durationTicks": 70,
          "midi": 56,
          "name": "G#3",
          "ticks": 129360,
          "time": 134.75,
          "velocity": 0.2755905511811024
        },
        {
          "duration": 0.3177083333333428,
          "durationTicks": 305,
          "midi": 63,
          "name": "D#4",
          "ticks": 129840,
          "time": 135.25,
          "velocity": 0.5039370078740157
        },
        {
          "duration": 0.05729166666665719,
          "durationTicks": 55,
          "midi": 56,
          "name": "G#3",
          "ticks": 129840,
          "time": 135.25,
          "velocity": 0.2755905511811024
        },
        {
          "duration": 0.04479166666666856,
          "durationTicks": 43,
          "midi": 56,
          "name": "G#3",
          "ticks": 129960,
          "time": 135.375,
          "velocity": 0.2755905511811024
        },
        {
          "duration": 0.25833333333332575,
          "durationTicks": 248,
          "midi": 68,
          "name": "G#4",
          "ticks": 130080,
          "time": 135.5,
          "velocity": 0.5039370078740157
        },
        {
          "duration": 0.05208333333334281,
          "durationTicks": 50,
          "midi": 56,
          "name": "G#3",
          "ticks": 130080,
          "time": 135.5,
          "velocity": 0.2755905511811024
        },
        {
          "duration": 0.08333333333334281,
          "durationTicks": 80,
          "midi": 56,
          "name": "G#3",
          "ticks": 130200,
          "time": 135.625,
          "velocity": 0.2755905511811024
        },
        {
          "duration": 0.03645833333334281,
          "durationTicks": 35,
          "midi": 51,
          "name": "D#3",
          "ticks": 130320,
          "time": 135.75,
          "velocity": 0.2755905511811024
        },
        {
          "duration": 0.2552083333333428,
          "durationTicks": 245,
          "midi": 63,
          "name": "D#4",
          "ticks": 130320,
          "time": 135.75,
          "velocity": 0.5039370078740157
        },
        {
          "duration": 0.06041666666666856,
          "durationTicks": 58,
          "midi": 51,
          "name": "D#3",
          "ticks": 130440,
          "time": 135.875,
          "velocity": 0.2755905511811024
        },
        {
          "duration": 0.44062500000001137,
          "durationTicks": 423,
          "midi": 68,
          "name": "G#4",
          "ticks": 130560,
          "time": 136,
          "velocity": 0.5039370078740157
        },
        {
          "duration": 0.06770833333334281,
          "durationTicks": 65,
          "midi": 53,
          "name": "F3",
          "ticks": 130560,
          "time": 136,
          "velocity": 0.2755905511811024
        },
        {
          "duration": 0.40625,
          "durationTicks": 390,
          "midi": 63,
          "name": "D#4",
          "ticks": 130920,
          "time": 136.375,
          "velocity": 0.5039370078740157
        },
        {
          "duration": 0.06041666666666856,
          "durationTicks": 58,
          "midi": 53,
          "name": "F3",
          "ticks": 131280,
          "time": 136.75,
          "velocity": 0.2755905511811024
        },
        {
          "duration": 0.48229166666666856,
          "durationTicks": 463,
          "midi": 68,
          "name": "G#4",
          "ticks": 131280,
          "time": 136.75,
          "velocity": 0.5039370078740157
        },
        {
          "duration": 0.3177083333333428,
          "durationTicks": 305,
          "midi": 63,
          "name": "D#4",
          "ticks": 131760,
          "time": 137.25,
          "velocity": 0.5039370078740157
        },
        {
          "duration": 0.25833333333332575,
          "durationTicks": 248,
          "midi": 68,
          "name": "G#4",
          "ticks": 132000,
          "time": 137.5,
          "velocity": 0.5039370078740157
        },
        {
          "duration": 0.0625,
          "durationTicks": 60,
          "midi": 53,
          "name": "F3",
          "ticks": 132000,
          "time": 137.5,
          "velocity": 0.2755905511811024
        },
        {
          "duration": 0.2552083333333428,
          "durationTicks": 245,
          "midi": 63,
          "name": "D#4",
          "ticks": 132240,
          "time": 137.75,
          "velocity": 0.5039370078740157
        },
        {
          "duration": 0.06562500000001137,
          "durationTicks": 63,
          "midi": 65,
          "name": "F4",
          "ticks": 132720,
          "time": 138.25,
          "velocity": 0.5039370078740157
        },
        {
          "duration": 0.046875,
          "durationTicks": 45,
          "midi": 69,
          "name": "A4",
          "ticks": 132720,
          "time": 138.25,
          "velocity": 0.5039370078740157
        },
        {
          "duration": 0.05208333333334281,
          "durationTicks": 50,
          "midi": 72,
          "name": "C5",
          "ticks": 132720,
          "time": 138.25,
          "velocity": 0.5039370078740157
        },
        {
          "duration": 0.06041666666666856,
          "durationTicks": 58,
          "midi": 65,
          "name": "F4",
          "ticks": 132960,
          "time": 138.5,
          "velocity": 0.5039370078740157
        },
        {
          "duration": 0.06041666666666856,
          "durationTicks": 58,
          "midi": 72,
          "name": "C5",
          "ticks": 132960,
          "time": 138.5,
          "velocity": 0.5039370078740157
        },
        {
          "duration": 0.039583333333325754,
          "durationTicks": 38,
          "midi": 69,
          "name": "A4",
          "ticks": 132960,
          "time": 138.5,
          "velocity": 0.5039370078740157
        },
        {
          "duration": 0.05000000000001137,
          "durationTicks": 48,
          "midi": 72,
          "name": "C5",
          "ticks": 133200,
          "time": 138.75,
          "velocity": 0.5039370078740157
        },
        {
          "duration": 0.04479166666666856,
          "durationTicks": 43,
          "midi": 65,
          "name": "F4",
          "ticks": 133200,
          "time": 138.75,
          "velocity": 0.5039370078740157
        },
        {
          "duration": 0.023958333333325754,
          "durationTicks": 23,
          "midi": 69,
          "name": "A4",
          "ticks": 133200,
          "time": 138.75,
          "velocity": 0.5039370078740157
        },
        {
          "duration": 0.05000000000001137,
          "durationTicks": 48,
          "midi": 75,
          "name": "D#5",
          "ticks": 133320,
          "time": 138.875,
          "velocity": 0.5039370078740157
        },
        {
          "duration": 0.04166666666665719,
          "durationTicks": 40,
          "midi": 67,
          "name": "G4",
          "ticks": 133320,
          "time": 138.875,
          "velocity": 0.5039370078740157
        },
        {
          "duration": 0.04166666666665719,
          "durationTicks": 40,
          "midi": 70,
          "name": "A#4",
          "ticks": 133320,
          "time": 138.875,
          "velocity": 0.5039370078740157
        },
        {
          "duration": 0.0625,
          "durationTicks": 60,
          "midi": 75,
          "name": "D#5",
          "ticks": 133560,
          "time": 139.125,
          "velocity": 0.5039370078740157
        },
        {
          "duration": 0.0625,
          "durationTicks": 60,
          "midi": 67,
          "name": "G4",
          "ticks": 133560,
          "time": 139.125,
          "velocity": 0.5039370078740157
        },
        {
          "duration": 0.046875,
          "durationTicks": 45,
          "midi": 70,
          "name": "A#4",
          "ticks": 133560,
          "time": 139.125,
          "velocity": 0.5039370078740157
        },
        {
          "duration": 0.03645833333334281,
          "durationTicks": 35,
          "midi": 75,
          "name": "D#5",
          "ticks": 133800,
          "time": 139.375,
          "velocity": 0.5039370078740157
        },
        {
          "duration": 0.03645833333334281,
          "durationTicks": 35,
          "midi": 67,
          "name": "G4",
          "ticks": 133800,
          "time": 139.375,
          "velocity": 0.5039370078740157
        },
        {
          "duration": 0.023958333333325754,
          "durationTicks": 23,
          "midi": 70,
          "name": "A#4",
          "ticks": 133800,
          "time": 139.375,
          "velocity": 0.5039370078740157
        },
        {
          "duration": 0.04479166666666856,
          "durationTicks": 43,
          "midi": 70,
          "name": "A#4",
          "ticks": 133920,
          "time": 139.5,
          "velocity": 0.5039370078740157
        },
        {
          "duration": 0.04479166666666856,
          "durationTicks": 43,
          "midi": 74,
          "name": "D5",
          "ticks": 133920,
          "time": 139.5,
          "velocity": 0.5039370078740157
        },
        {
          "duration": 0.04479166666666856,
          "durationTicks": 43,
          "midi": 65,
          "name": "F4",
          "ticks": 133920,
          "time": 139.5,
          "velocity": 0.5039370078740157
        },
        {
          "duration": 0.06041666666666856,
          "durationTicks": 58,
          "midi": 74,
          "name": "D5",
          "ticks": 134160,
          "time": 139.75,
          "velocity": 0.5039370078740157
        },
        {
          "duration": 0.06041666666666856,
          "durationTicks": 58,
          "midi": 65,
          "name": "F4",
          "ticks": 134160,
          "time": 139.75,
          "velocity": 0.5039370078740157
        },
        {
          "duration": 0.05208333333334281,
          "durationTicks": 50,
          "midi": 70,
          "name": "A#4",
          "ticks": 134160,
          "time": 139.75,
          "velocity": 0.5039370078740157
        },
        {
          "duration": 0.06562500000001137,
          "durationTicks": 63,
          "midi": 65,
          "name": "F4",
          "ticks": 134640,
          "time": 140.25,
          "velocity": 0.5039370078740157
        },
        {
          "duration": 0.05208333333334281,
          "durationTicks": 50,
          "midi": 69,
          "name": "A4",
          "ticks": 134640,
          "time": 140.25,
          "velocity": 0.5039370078740157
        },
        {
          "duration": 0.05208333333334281,
          "durationTicks": 50,
          "midi": 72,
          "name": "C5",
          "ticks": 134640,
          "time": 140.25,
          "velocity": 0.5039370078740157
        },
        {
          "duration": 0.06562500000001137,
          "durationTicks": 63,
          "midi": 65,
          "name": "F4",
          "ticks": 134880,
          "time": 140.5,
          "velocity": 0.5039370078740157
        },
        {
          "duration": 0.055208333333325754,
          "durationTicks": 53,
          "midi": 72,
          "name": "C5",
          "ticks": 134880,
          "time": 140.5,
          "velocity": 0.5039370078740157
        },
        {
          "duration": 0.046875,
          "durationTicks": 45,
          "midi": 69,
          "name": "A4",
          "ticks": 134880,
          "time": 140.5,
          "velocity": 0.5039370078740157
        },
        {
          "duration": 0.01875000000001137,
          "durationTicks": 18,
          "midi": 72,
          "name": "C5",
          "ticks": 135120,
          "time": 140.75,
          "velocity": 0.5039370078740157
        },
        {
          "duration": 0.020833333333342807,
          "durationTicks": 20,
          "midi": 65,
          "name": "F4",
          "ticks": 135120,
          "time": 140.75,
          "velocity": 0.5039370078740157
        },
        {
          "duration": 0.05000000000001137,
          "durationTicks": 48,
          "midi": 67,
          "name": "G4",
          "ticks": 135240,
          "time": 140.875,
          "velocity": 0.5039370078740157
        },
        {
          "duration": 0.04479166666666856,
          "durationTicks": 43,
          "midi": 75,
          "name": "D#5",
          "ticks": 135240,
          "time": 140.875,
          "velocity": 0.5039370078740157
        },
        {
          "duration": 0.039583333333325754,
          "durationTicks": 38,
          "midi": 70,
          "name": "A#4",
          "ticks": 135240,
          "time": 140.875,
          "velocity": 0.5039370078740157
        },
        {
          "duration": 0.04479166666666856,
          "durationTicks": 43,
          "midi": 67,
          "name": "G4",
          "ticks": 135480,
          "time": 141.125,
          "velocity": 0.5039370078740157
        },
        {
          "duration": 0.046875,
          "durationTicks": 45,
          "midi": 75,
          "name": "D#5",
          "ticks": 135480,
          "time": 141.125,
          "velocity": 0.5039370078740157
        },
        {
          "duration": 0.03645833333334281,
          "durationTicks": 35,
          "midi": 70,
          "name": "A#4",
          "ticks": 135480,
          "time": 141.125,
          "velocity": 0.5039370078740157
        },
        {
          "duration": 0.039583333333325754,
          "durationTicks": 38,
          "midi": 74,
          "name": "D5",
          "ticks": 135600,
          "time": 141.25,
          "velocity": 0.5039370078740157
        },
        {
          "duration": 0.03125,
          "durationTicks": 30,
          "midi": 70,
          "name": "A#4",
          "ticks": 135600,
          "time": 141.25,
          "velocity": 0.5039370078740157
        },
        {
          "duration": 0.03645833333334281,
          "durationTicks": 35,
          "midi": 65,
          "name": "F4",
          "ticks": 135600,
          "time": 141.25,
          "velocity": 0.5039370078740157
        },
        {
          "duration": 0.06041666666666856,
          "durationTicks": 58,
          "midi": 65,
          "name": "F4",
          "ticks": 135840,
          "time": 141.5,
          "velocity": 0.5039370078740157
        },
        {
          "duration": 0.05208333333334281,
          "durationTicks": 50,
          "midi": 72,
          "name": "C5",
          "ticks": 135840,
          "time": 141.5,
          "velocity": 0.5039370078740157
        },
        {
          "duration": 0.04479166666666856,
          "durationTicks": 43,
          "midi": 69,
          "name": "A4",
          "ticks": 135840,
          "time": 141.5,
          "velocity": 0.5039370078740157
        },
        {
          "duration": 0.05729166666665719,
          "durationTicks": 55,
          "midi": 61,
          "name": "C#4",
          "ticks": 136560,
          "time": 142.25,
          "velocity": 0.5039370078740157
        },
        {
          "duration": 0.055208333333325754,
          "durationTicks": 53,
          "midi": 65,
          "name": "F4",
          "ticks": 136560,
          "time": 142.25,
          "velocity": 0.5039370078740157
        },
        {
          "duration": 0.055208333333325754,
          "durationTicks": 53,
          "midi": 68,
          "name": "G#4",
          "ticks": 136560,
          "time": 142.25,
          "velocity": 0.5039370078740157
        },
        {
          "duration": 0.04479166666666856,
          "durationTicks": 43,
          "midi": 65,
          "name": "F4",
          "ticks": 136800,
          "time": 142.5,
          "velocity": 0.5039370078740157
        },
        {
          "duration": 0.03125,
          "durationTicks": 30,
          "midi": 61,
          "name": "C#4",
          "ticks": 136800,
          "time": 142.5,
          "velocity": 0.5039370078740157
        },
        {
          "duration": 0.039583333333325754,
          "durationTicks": 38,
          "midi": 68,
          "name": "G#4",
          "ticks": 136800,
          "time": 142.5,
          "velocity": 0.5039370078740157
        },
        {
          "duration": 0.05208333333334281,
          "durationTicks": 50,
          "midi": 61,
          "name": "C#4",
          "ticks": 137040,
          "time": 142.75,
          "velocity": 0.5039370078740157
        },
        {
          "duration": 0.05000000000001137,
          "durationTicks": 48,
          "midi": 68,
          "name": "G#4",
          "ticks": 137040,
          "time": 142.75,
          "velocity": 0.5039370078740157
        },
        {
          "duration": 0.04479166666666856,
          "durationTicks": 43,
          "midi": 65,
          "name": "F4",
          "ticks": 137040,
          "time": 142.75,
          "velocity": 0.5039370078740157
        },
        {
          "duration": 0.04166666666665719,
          "durationTicks": 40,
          "midi": 61,
          "name": "C#4",
          "ticks": 137280,
          "time": 143,
          "velocity": 0.5039370078740157
        },
        {
          "duration": 0.04166666666665719,
          "durationTicks": 40,
          "midi": 65,
          "name": "F4",
          "ticks": 137280,
          "time": 143,
          "velocity": 0.5039370078740157
        },
        {
          "duration": 0.04166666666665719,
          "durationTicks": 40,
          "midi": 68,
          "name": "G#4",
          "ticks": 137280,
          "time": 143,
          "velocity": 0.5039370078740157
        },
        {
          "duration": 0.04479166666666856,
          "durationTicks": 43,
          "midi": 70,
          "name": "A#4",
          "ticks": 137400,
          "time": 143.125,
          "velocity": 0.5039370078740157
        },
        {
          "duration": 0.03125,
          "durationTicks": 30,
          "midi": 63,
          "name": "D#4",
          "ticks": 137400,
          "time": 143.125,
          "velocity": 0.5039370078740157
        },
        {
          "duration": 0.03437500000001137,
          "durationTicks": 33,
          "midi": 67,
          "name": "G4",
          "ticks": 137520,
          "time": 143.25,
          "velocity": 0.5039370078740157
        },
        {
          "duration": 0.05208333333334281,
          "durationTicks": 50,
          "midi": 63,
          "name": "D#4",
          "ticks": 137640,
          "time": 143.375,
          "velocity": 0.5039370078740157
        },
        {
          "duration": 0.05000000000001137,
          "durationTicks": 48,
          "midi": 70,
          "name": "A#4",
          "ticks": 137640,
          "time": 143.375,
          "velocity": 0.5039370078740157
        },
        {
          "duration": 0.04166666666665719,
          "durationTicks": 40,
          "midi": 67,
          "name": "G4",
          "ticks": 137640,
          "time": 143.375,
          "velocity": 0.5039370078740157
        },
        {
          "duration": 0.05729166666665719,
          "durationTicks": 55,
          "midi": 63,
          "name": "D#4",
          "ticks": 137880,
          "time": 143.625,
          "velocity": 0.5039370078740157
        },
        {
          "duration": 0.05000000000001137,
          "durationTicks": 48,
          "midi": 70,
          "name": "A#4",
          "ticks": 137880,
          "time": 143.625,
          "velocity": 0.5039370078740157
        },
        {
          "duration": 0.05208333333334281,
          "durationTicks": 50,
          "midi": 67,
          "name": "G4",
          "ticks": 137880,
          "time": 143.625,
          "velocity": 0.5039370078740157
        },
        {
          "duration": 0.04166666666665719,
          "durationTicks": 40,
          "midi": 70,
          "name": "A#4",
          "ticks": 138120,
          "time": 143.875,
          "velocity": 0.5039370078740157
        },
        {
          "duration": 0.020833333333342807,
          "durationTicks": 20,
          "midi": 67,
          "name": "G4",
          "ticks": 138120,
          "time": 143.875,
          "velocity": 0.5039370078740157
        },
        {
          "duration": 0.15625,
          "durationTicks": 150,
          "midi": 63,
          "name": "D#4",
          "ticks": 138120,
          "time": 143.875,
          "velocity": 0.5039370078740157
        },
        {
          "duration": 0.03645833333334281,
          "durationTicks": 35,
          "midi": 70,
          "name": "A#4",
          "ticks": 138240,
          "time": 144,
          "velocity": 0.5039370078740157
        },
        {
          "duration": 0.03437500000001137,
          "durationTicks": 33,
          "midi": 67,
          "name": "G4",
          "ticks": 138240,
          "time": 144,
          "velocity": 0.5039370078740157
        },
        {
          "duration": 0.06041666666666856,
          "durationTicks": 58,
          "midi": 69,
          "name": "A4",
          "ticks": 138480,
          "time": 144.25,
          "velocity": 0.5039370078740157
        },
        {
          "duration": 0.05208333333334281,
          "durationTicks": 50,
          "midi": 65,
          "name": "F4",
          "ticks": 138480,
          "time": 144.25,
          "velocity": 0.5039370078740157
        },
        {
          "duration": 0.04479166666666856,
          "durationTicks": 43,
          "midi": 72,
          "name": "C5",
          "ticks": 138480,
          "time": 144.25,
          "velocity": 0.5039370078740157
        },
        {
          "duration": 0.0625,
          "durationTicks": 60,
          "midi": 65,
          "name": "F4",
          "ticks": 138720,
          "time": 144.5,
          "velocity": 0.5039370078740157
        },
        {
          "duration": 0.05208333333334281,
          "durationTicks": 50,
          "midi": 69,
          "name": "A4",
          "ticks": 138720,
          "time": 144.5,
          "velocity": 0.5039370078740157
        },
        {
          "duration": 0.05208333333334281,
          "durationTicks": 50,
          "midi": 72,
          "name": "C5",
          "ticks": 138720,
          "time": 144.5,
          "velocity": 0.5039370078740157
        },
        {
          "duration": 0.046875,
          "durationTicks": 45,
          "midi": 69,
          "name": "A4",
          "ticks": 138960,
          "time": 144.75,
          "velocity": 0.5039370078740157
        },
        {
          "duration": 0.05000000000001137,
          "durationTicks": 48,
          "midi": 65,
          "name": "F4",
          "ticks": 138960,
          "time": 144.75,
          "velocity": 0.5039370078740157
        },
        {
          "duration": 0.04479166666666856,
          "durationTicks": 43,
          "midi": 72,
          "name": "C5",
          "ticks": 138960,
          "time": 144.75,
          "velocity": 0.5039370078740157
        },
        {
          "duration": 0.05208333333334281,
          "durationTicks": 50,
          "midi": 70,
          "name": "A#4",
          "ticks": 139200,
          "time": 145,
          "velocity": 0.5039370078740157
        },
        {
          "duration": 0.04479166666666856,
          "durationTicks": 43,
          "midi": 63,
          "name": "D#4",
          "ticks": 139200,
          "time": 145,
          "velocity": 0.5039370078740157
        },
        {
          "duration": 0.03437500000001137,
          "durationTicks": 33,
          "midi": 67,
          "name": "G4",
          "ticks": 139200,
          "time": 145,
          "velocity": 0.5039370078740157
        },
        {
          "duration": 0.0625,
          "durationTicks": 60,
          "midi": 72,
          "name": "C5",
          "ticks": 139320,
          "time": 145.125,
          "velocity": 0.5039370078740157
        },
        {
          "duration": 0.0625,
          "durationTicks": 60,
          "midi": 69,
          "name": "A4",
          "ticks": 139320,
          "time": 145.125,
          "velocity": 0.5039370078740157
        },
        {
          "duration": 0.0625,
          "durationTicks": 60,
          "midi": 65,
          "name": "F4",
          "ticks": 139320,
          "time": 145.125,
          "velocity": 0.5039370078740157
        },
        {
          "duration": 0.0625,
          "durationTicks": 60,
          "midi": 72,
          "name": "C5",
          "ticks": 139560,
          "time": 145.375,
          "velocity": 0.5039370078740157
        },
        {
          "duration": 0.0625,
          "durationTicks": 60,
          "midi": 69,
          "name": "A4",
          "ticks": 139560,
          "time": 145.375,
          "velocity": 0.5039370078740157
        },
        {
          "duration": 0.0625,
          "durationTicks": 60,
          "midi": 65,
          "name": "F4",
          "ticks": 139560,
          "time": 145.375,
          "velocity": 0.5039370078740157
        },
        {
          "duration": 0.055208333333325754,
          "durationTicks": 53,
          "midi": 65,
          "name": "F4",
          "ticks": 140400,
          "time": 146.25,
          "velocity": 0.5039370078740157
        },
        {
          "duration": 0.05000000000001137,
          "durationTicks": 48,
          "midi": 69,
          "name": "A4",
          "ticks": 140400,
          "time": 146.25,
          "velocity": 0.5039370078740157
        },
        {
          "duration": 0.05000000000001137,
          "durationTicks": 48,
          "midi": 72,
          "name": "C5",
          "ticks": 140400,
          "time": 146.25,
          "velocity": 0.5039370078740157
        },
        {
          "duration": 0.05729166666665719,
          "durationTicks": 55,
          "midi": 72,
          "name": "C5",
          "ticks": 140640,
          "time": 146.5,
          "velocity": 0.5039370078740157
        },
        {
          "duration": 0.05729166666665719,
          "durationTicks": 55,
          "midi": 65,
          "name": "F4",
          "ticks": 140640,
          "time": 146.5,
          "velocity": 0.5039370078740157
        },
        {
          "duration": 0.03645833333334281,
          "durationTicks": 35,
          "midi": 69,
          "name": "A4",
          "ticks": 140640,
          "time": 146.5,
          "velocity": 0.5039370078740157
        },
        {
          "duration": 0.03437500000001137,
          "durationTicks": 33,
          "midi": 72,
          "name": "C5",
          "ticks": 140880,
          "time": 146.75,
          "velocity": 0.5039370078740157
        },
        {
          "duration": 0.026041666666657193,
          "durationTicks": 25,
          "midi": 65,
          "name": "F4",
          "ticks": 140880,
          "time": 146.75,
          "velocity": 0.5039370078740157
        },
        {
          "duration": 0.01875000000001137,
          "durationTicks": 18,
          "midi": 69,
          "name": "A4",
          "ticks": 140880,
          "time": 146.75,
          "velocity": 0.5039370078740157
        },
        {
          "duration": 0.05729166666665719,
          "durationTicks": 55,
          "midi": 70,
          "name": "A#4",
          "ticks": 141000,
          "time": 146.875,
          "velocity": 0.5039370078740157
        },
        {
          "duration": 0.039583333333325754,
          "durationTicks": 38,
          "midi": 67,
          "name": "G4",
          "ticks": 141000,
          "time": 146.875,
          "velocity": 0.5039370078740157
        },
        {
          "duration": 0.04479166666666856,
          "durationTicks": 43,
          "midi": 75,
          "name": "D#5",
          "ticks": 141000,
          "time": 146.875,
          "velocity": 0.5039370078740157
        },
        {
          "duration": 0.06562500000001137,
          "durationTicks": 63,
          "midi": 75,
          "name": "D#5",
          "ticks": 141240,
          "time": 147.125,
          "velocity": 0.5039370078740157
        },
        {
          "duration": 0.055208333333325754,
          "durationTicks": 53,
          "midi": 67,
          "name": "G4",
          "ticks": 141240,
          "time": 147.125,
          "velocity": 0.5039370078740157
        },
        {
          "duration": 0.04479166666666856,
          "durationTicks": 43,
          "midi": 70,
          "name": "A#4",
          "ticks": 141240,
          "time": 147.125,
          "velocity": 0.5039370078740157
        },
        {
          "duration": 0.039583333333325754,
          "durationTicks": 38,
          "midi": 75,
          "name": "D#5",
          "ticks": 141480,
          "time": 147.375,
          "velocity": 0.5039370078740157
        },
        {
          "duration": 0.039583333333325754,
          "durationTicks": 38,
          "midi": 67,
          "name": "G4",
          "ticks": 141480,
          "time": 147.375,
          "velocity": 0.5039370078740157
        },
        {
          "duration": 0.023958333333325754,
          "durationTicks": 23,
          "midi": 70,
          "name": "A#4",
          "ticks": 141480,
          "time": 147.375,
          "velocity": 0.5039370078740157
        },
        {
          "duration": 0.04166666666665719,
          "durationTicks": 40,
          "midi": 70,
          "name": "A#4",
          "ticks": 141600,
          "time": 147.5,
          "velocity": 0.5039370078740157
        },
        {
          "duration": 0.04166666666665719,
          "durationTicks": 40,
          "midi": 74,
          "name": "D5",
          "ticks": 141600,
          "time": 147.5,
          "velocity": 0.5039370078740157
        },
        {
          "duration": 0.03645833333334281,
          "durationTicks": 35,
          "midi": 65,
          "name": "F4",
          "ticks": 141600,
          "time": 147.5,
          "velocity": 0.5039370078740157
        },
        {
          "duration": 0.05729166666665719,
          "durationTicks": 55,
          "midi": 65,
          "name": "F4",
          "ticks": 141840,
          "time": 147.75,
          "velocity": 0.5039370078740157
        },
        {
          "duration": 0.05000000000001137,
          "durationTicks": 48,
          "midi": 74,
          "name": "D5",
          "ticks": 141840,
          "time": 147.75,
          "velocity": 0.5039370078740157
        },
        {
          "duration": 0.046875,
          "durationTicks": 45,
          "midi": 70,
          "name": "A#4",
          "ticks": 141840,
          "time": 147.75,
          "velocity": 0.5039370078740157
        },
        {
          "duration": 0.055208333333325754,
          "durationTicks": 53,
          "midi": 65,
          "name": "F4",
          "ticks": 142320,
          "time": 148.25,
          "velocity": 0.5039370078740157
        },
        {
          "duration": 0.04479166666666856,
          "durationTicks": 43,
          "midi": 69,
          "name": "A4",
          "ticks": 142320,
          "time": 148.25,
          "velocity": 0.5039370078740157
        },
        {
          "duration": 0.046875,
          "durationTicks": 45,
          "midi": 72,
          "name": "C5",
          "ticks": 142320,
          "time": 148.25,
          "velocity": 0.5039370078740157
        },
        {
          "duration": 0.05000000000001137,
          "durationTicks": 48,
          "midi": 65,
          "name": "F4",
          "ticks": 142560,
          "time": 148.5,
          "velocity": 0.5039370078740157
        },
        {
          "duration": 0.03645833333334281,
          "durationTicks": 35,
          "midi": 69,
          "name": "A4",
          "ticks": 142560,
          "time": 148.5,
          "velocity": 0.5039370078740157
        },
        {
          "duration": 0.04479166666666856,
          "durationTicks": 43,
          "midi": 72,
          "name": "C5",
          "ticks": 142560,
          "time": 148.5,
          "velocity": 0.5039370078740157
        },
        {
          "duration": 0.039583333333325754,
          "durationTicks": 38,
          "midi": 72,
          "name": "C5",
          "ticks": 142800,
          "time": 148.75,
          "velocity": 0.5039370078740157
        },
        {
          "duration": 0.04166666666665719,
          "durationTicks": 40,
          "midi": 65,
          "name": "F4",
          "ticks": 142800,
          "time": 148.75,
          "velocity": 0.5039370078740157
        },
        {
          "duration": 0.026041666666657193,
          "durationTicks": 25,
          "midi": 69,
          "name": "A4",
          "ticks": 142800,
          "time": 148.75,
          "velocity": 0.5039370078740157
        },
        {
          "duration": 0.05208333333334281,
          "durationTicks": 50,
          "midi": 75,
          "name": "D#5",
          "ticks": 142920,
          "time": 148.875,
          "velocity": 0.5039370078740157
        },
        {
          "duration": 0.04166666666665719,
          "durationTicks": 40,
          "midi": 67,
          "name": "G4",
          "ticks": 142920,
          "time": 148.875,
          "velocity": 0.5039370078740157
        },
        {
          "duration": 0.03645833333334281,
          "durationTicks": 35,
          "midi": 70,
          "name": "A#4",
          "ticks": 142920,
          "time": 148.875,
          "velocity": 0.5039370078740157
        },
        {
          "duration": 0.046875,
          "durationTicks": 45,
          "midi": 75,
          "name": "D#5",
          "ticks": 143160,
          "time": 149.125,
          "velocity": 0.5039370078740157
        },
        {
          "duration": 0.03437500000001137,
          "durationTicks": 33,
          "midi": 70,
          "name": "A#4",
          "ticks": 143160,
          "time": 149.125,
          "velocity": 0.5039370078740157
        },
        {
          "duration": 0.039583333333325754,
          "durationTicks": 38,
          "midi": 67,
          "name": "G4",
          "ticks": 143160,
          "time": 149.125,
          "velocity": 0.5039370078740157
        },
        {
          "duration": 0.05000000000001137,
          "durationTicks": 48,
          "midi": 70,
          "name": "A#4",
          "ticks": 143280,
          "time": 149.25,
          "velocity": 0.5039370078740157
        },
        {
          "duration": 0.046875,
          "durationTicks": 45,
          "midi": 74,
          "name": "D5",
          "ticks": 143280,
          "time": 149.25,
          "velocity": 0.5039370078740157
        },
        {
          "duration": 0.046875,
          "durationTicks": 45,
          "midi": 65,
          "name": "F4",
          "ticks": 143280,
          "time": 149.25,
          "velocity": 0.5039370078740157
        },
        {
          "duration": 0.06041666666666856,
          "durationTicks": 58,
          "midi": 65,
          "name": "F4",
          "ticks": 143520,
          "time": 149.5,
          "velocity": 0.5039370078740157
        },
        {
          "duration": 0.05208333333334281,
          "durationTicks": 50,
          "midi": 69,
          "name": "A4",
          "ticks": 143520,
          "time": 149.5,
          "velocity": 0.5039370078740157
        },
        {
          "duration": 0.05000000000001137,
          "durationTicks": 48,
          "midi": 72,
          "name": "C5",
          "ticks": 143520,
          "time": 149.5,
          "velocity": 0.5039370078740157
        },
        {
          "duration": 0.055208333333325754,
          "durationTicks": 53,
          "midi": 61,
          "name": "C#4",
          "ticks": 144240,
          "time": 150.25,
          "velocity": 0.5039370078740157
        },
        {
          "duration": 0.055208333333325754,
          "durationTicks": 53,
          "midi": 68,
          "name": "G#4",
          "ticks": 144240,
          "time": 150.25,
          "velocity": 0.5039370078740157
        },
        {
          "duration": 0.04479166666666856,
          "durationTicks": 43,
          "midi": 65,
          "name": "F4",
          "ticks": 144240,
          "time": 150.25,
          "velocity": 0.5039370078740157
        },
        {
          "duration": 0.055208333333325754,
          "durationTicks": 53,
          "midi": 68,
          "name": "G#4",
          "ticks": 144480,
          "time": 150.5,
          "velocity": 0.5039370078740157
        },
        {
          "duration": 0.04479166666666856,
          "durationTicks": 43,
          "midi": 61,
          "name": "C#4",
          "ticks": 144480,
          "time": 150.5,
          "velocity": 0.5039370078740157
        },
        {
          "duration": 0.04479166666666856,
          "durationTicks": 43,
          "midi": 65,
          "name": "F4",
          "ticks": 144480,
          "time": 150.5,
          "velocity": 0.5039370078740157
        },
        {
          "duration": 0.05000000000001137,
          "durationTicks": 48,
          "midi": 68,
          "name": "G#4",
          "ticks": 144720,
          "time": 150.75,
          "velocity": 0.5039370078740157
        },
        {
          "duration": 0.03645833333334281,
          "durationTicks": 35,
          "midi": 61,
          "name": "C#4",
          "ticks": 144720,
          "time": 150.75,
          "velocity": 0.5039370078740157
        },
        {
          "duration": 0.03645833333334281,
          "durationTicks": 35,
          "midi": 65,
          "name": "F4",
          "ticks": 144720,
          "time": 150.75,
          "velocity": 0.5039370078740157
        },
        {
          "duration": 0.05000000000001137,
          "durationTicks": 48,
          "midi": 68,
          "name": "G#4",
          "ticks": 144960,
          "time": 151,
          "velocity": 0.5039370078740157
        },
        {
          "duration": 0.04166666666665719,
          "durationTicks": 40,
          "midi": 65,
          "name": "F4",
          "ticks": 144960,
          "time": 151,
          "velocity": 0.5039370078740157
        },
        {
          "duration": 0.04166666666665719,
          "durationTicks": 40,
          "midi": 61,
          "name": "C#4",
          "ticks": 144960,
          "time": 151,
          "velocity": 0.5039370078740157
        },
        {
          "duration": 0.05208333333334281,
          "durationTicks": 50,
          "midi": 70,
          "name": "A#4",
          "ticks": 145080,
          "time": 151.125,
          "velocity": 0.5039370078740157
        },
        {
          "duration": 0.03645833333334281,
          "durationTicks": 35,
          "midi": 67,
          "name": "G4",
          "ticks": 145080,
          "time": 151.125,
          "velocity": 0.5039370078740157
        },
        {
          "duration": 0.02916666666666856,
          "durationTicks": 28,
          "midi": 63,
          "name": "D#4",
          "ticks": 145080,
          "time": 151.125,
          "velocity": 0.5039370078740157
        },
        {
          "duration": 0.046875,
          "durationTicks": 45,
          "midi": 70,
          "name": "A#4",
          "ticks": 145320,
          "time": 151.375,
          "velocity": 0.5039370078740157
        },
        {
          "duration": 0.04166666666665719,
          "durationTicks": 40,
          "midi": 63,
          "name": "D#4",
          "ticks": 145320,
          "time": 151.375,
          "velocity": 0.5039370078740157
        },
        {
          "duration": 0.03645833333334281,
          "durationTicks": 35,
          "midi": 67,
          "name": "G4",
          "ticks": 145320,
          "time": 151.375,
          "velocity": 0.5039370078740157
        },
        {
          "duration": 0.05000000000001137,
          "durationTicks": 48,
          "midi": 70,
          "name": "A#4",
          "ticks": 145560,
          "time": 151.625,
          "velocity": 0.5039370078740157
        },
        {
          "duration": 0.039583333333325754,
          "durationTicks": 38,
          "midi": 67,
          "name": "G4",
          "ticks": 145560,
          "time": 151.625,
          "velocity": 0.5039370078740157
        },
        {
          "duration": 0.03125,
          "durationTicks": 30,
          "midi": 63,
          "name": "D#4",
          "ticks": 145560,
          "time": 151.625,
          "velocity": 0.5039370078740157
        },
        {
          "duration": 0.02916666666666856,
          "durationTicks": 28,
          "midi": 70,
          "name": "A#4",
          "ticks": 145800,
          "time": 151.875,
          "velocity": 0.5039370078740157
        },
        {
          "duration": 0.020833333333342807,
          "durationTicks": 20,
          "midi": 67,
          "name": "G4",
          "ticks": 145800,
          "time": 151.875,
          "velocity": 0.5039370078740157
        },
        {
          "duration": 0.015625,
          "durationTicks": 15,
          "midi": 63,
          "name": "D#4",
          "ticks": 145800,
          "time": 151.875,
          "velocity": 0.5039370078740157
        },
        {
          "duration": 0.01875000000001137,
          "durationTicks": 18,
          "midi": 63,
          "name": "D#4",
          "ticks": 145920,
          "time": 152,
          "velocity": 0.5039370078740157
        },
        {
          "duration": 0.013541666666668561,
          "durationTicks": 13,
          "midi": 70,
          "name": "A#4",
          "ticks": 145920,
          "time": 152,
          "velocity": 0.5039370078740157
        },
        {
          "duration": 0.010416666666657193,
          "durationTicks": 10,
          "midi": 67,
          "name": "G4",
          "ticks": 145920,
          "time": 152,
          "velocity": 0.5039370078740157
        },
        {
          "duration": 0.04166666666665719,
          "durationTicks": 40,
          "midi": 65,
          "name": "F4",
          "ticks": 146160,
          "time": 152.25,
          "velocity": 0.5039370078740157
        },
        {
          "duration": 0.04479166666666856,
          "durationTicks": 43,
          "midi": 69,
          "name": "A4",
          "ticks": 146160,
          "time": 152.25,
          "velocity": 0.5039370078740157
        },
        {
          "duration": 0.04166666666665719,
          "durationTicks": 40,
          "midi": 72,
          "name": "C5",
          "ticks": 146160,
          "time": 152.25,
          "velocity": 0.5039370078740157
        },
        {
          "duration": 0.04166666666665719,
          "durationTicks": 40,
          "midi": 69,
          "name": "A4",
          "ticks": 146400,
          "time": 152.5,
          "velocity": 0.5039370078740157
        },
        {
          "duration": 0.04479166666666856,
          "durationTicks": 43,
          "midi": 65,
          "name": "F4",
          "ticks": 146400,
          "time": 152.5,
          "velocity": 0.5039370078740157
        },
        {
          "duration": 0.039583333333325754,
          "durationTicks": 38,
          "midi": 72,
          "name": "C5",
          "ticks": 146400,
          "time": 152.5,
          "velocity": 0.5039370078740157
        },
        {
          "duration": 0.039583333333325754,
          "durationTicks": 38,
          "midi": 65,
          "name": "F4",
          "ticks": 146640,
          "time": 152.75,
          "velocity": 0.5039370078740157
        },
        {
          "duration": 0.039583333333325754,
          "durationTicks": 38,
          "midi": 69,
          "name": "A4",
          "ticks": 146640,
          "time": 152.75,
          "velocity": 0.5039370078740157
        },
        {
          "duration": 0.039583333333325754,
          "durationTicks": 38,
          "midi": 72,
          "name": "C5",
          "ticks": 146640,
          "time": 152.75,
          "velocity": 0.5039370078740157
        },
        {
          "duration": 0.055208333333325754,
          "durationTicks": 53,
          "midi": 70,
          "name": "A#4",
          "ticks": 146880,
          "time": 153,
          "velocity": 0.5039370078740157
        },
        {
          "duration": 0.04166666666665719,
          "durationTicks": 40,
          "midi": 63,
          "name": "D#4",
          "ticks": 146880,
          "time": 153,
          "velocity": 0.5039370078740157
        },
        {
          "duration": 0.02916666666666856,
          "durationTicks": 28,
          "midi": 67,
          "name": "G4",
          "ticks": 146880,
          "time": 153,
          "velocity": 0.5039370078740157
        },
        {
          "duration": 0.05000000000001137,
          "durationTicks": 48,
          "midi": 69,
          "name": "A4",
          "ticks": 147000,
          "time": 153.125,
          "velocity": 0.5039370078740157
        },
        {
          "duration": 0.04166666666665719,
          "durationTicks": 40,
          "midi": 65,
          "name": "F4",
          "ticks": 147000,
          "time": 153.125,
          "velocity": 0.5039370078740157
        },
        {
          "duration": 0.04479166666666856,
          "durationTicks": 43,
          "midi": 72,
          "name": "C5",
          "ticks": 147000,
          "time": 153.125,
          "velocity": 0.5039370078740157
        },
        {
          "duration": 0.046875,
          "durationTicks": 45,
          "midi": 72,
          "name": "C5",
          "ticks": 147240,
          "time": 153.375,
          "velocity": 0.5039370078740157
        },
        {
          "duration": 0.046875,
          "durationTicks": 45,
          "midi": 65,
          "name": "F4",
          "ticks": 147240,
          "time": 153.375,
          "velocity": 0.5039370078740157
        },
        {
          "duration": 0.039583333333325754,
          "durationTicks": 38,
          "midi": 69,
          "name": "A4",
          "ticks": 147240,
          "time": 153.375,
          "velocity": 0.5039370078740157
        },
        {
          "duration": 0.04479166666666856,
          "durationTicks": 43,
          "midi": 72,
          "name": "C5",
          "ticks": 147600,
          "time": 153.75,
          "velocity": 0.5039370078740157
        },
        {
          "duration": 0.03437500000001137,
          "durationTicks": 33,
          "midi": 65,
          "name": "F4",
          "ticks": 147600,
          "time": 153.75,
          "velocity": 0.5039370078740157
        },
        {
          "duration": 0.03437500000001137,
          "durationTicks": 33,
          "midi": 69,
          "name": "A4",
          "ticks": 147600,
          "time": 153.75,
          "velocity": 0.5039370078740157
        },
        {
          "duration": 0.055208333333325754,
          "durationTicks": 53,
          "midi": 61,
          "name": "C#4",
          "ticks": 148080,
          "time": 154.25,
          "velocity": 0.5039370078740157
        },
        {
          "duration": 0.055208333333325754,
          "durationTicks": 53,
          "midi": 68,
          "name": "G#4",
          "ticks": 148080,
          "time": 154.25,
          "velocity": 0.5039370078740157
        },
        {
          "duration": 0.04479166666666856,
          "durationTicks": 43,
          "midi": 65,
          "name": "F4",
          "ticks": 148080,
          "time": 154.25,
          "velocity": 0.5039370078740157
        },
        {
          "duration": 0.055208333333325754,
          "durationTicks": 53,
          "midi": 68,
          "name": "G#4",
          "ticks": 148320,
          "time": 154.5,
          "velocity": 0.5039370078740157
        },
        {
          "duration": 0.04479166666666856,
          "durationTicks": 43,
          "midi": 61,
          "name": "C#4",
          "ticks": 148320,
          "time": 154.5,
          "velocity": 0.5039370078740157
        },
        {
          "duration": 0.04479166666666856,
          "durationTicks": 43,
          "midi": 65,
          "name": "F4",
          "ticks": 148320,
          "time": 154.5,
          "velocity": 0.5039370078740157
        },
        {
          "duration": 0.05000000000001137,
          "durationTicks": 48,
          "midi": 68,
          "name": "G#4",
          "ticks": 148560,
          "time": 154.75,
          "velocity": 0.5039370078740157
        },
        {
          "duration": 0.03645833333334281,
          "durationTicks": 35,
          "midi": 61,
          "name": "C#4",
          "ticks": 148560,
          "time": 154.75,
          "velocity": 0.5039370078740157
        },
        {
          "duration": 0.03645833333334281,
          "durationTicks": 35,
          "midi": 65,
          "name": "F4",
          "ticks": 148560,
          "time": 154.75,
          "velocity": 0.5039370078740157
        },
        {
          "duration": 0.05000000000001137,
          "durationTicks": 48,
          "midi": 68,
          "name": "G#4",
          "ticks": 148800,
          "time": 155,
          "velocity": 0.5039370078740157
        },
        {
          "duration": 0.04166666666665719,
          "durationTicks": 40,
          "midi": 65,
          "name": "F4",
          "ticks": 148800,
          "time": 155,
          "velocity": 0.5039370078740157
        },
        {
          "duration": 0.04166666666665719,
          "durationTicks": 40,
          "midi": 61,
          "name": "C#4",
          "ticks": 148800,
          "time": 155,
          "velocity": 0.5039370078740157
        },
        {
          "duration": 0.05208333333334281,
          "durationTicks": 50,
          "midi": 70,
          "name": "A#4",
          "ticks": 148920,
          "time": 155.125,
          "velocity": 0.5039370078740157
        },
        {
          "duration": 0.03645833333334281,
          "durationTicks": 35,
          "midi": 67,
          "name": "G4",
          "ticks": 148920,
          "time": 155.125,
          "velocity": 0.5039370078740157
        },
        {
          "duration": 0.02916666666666856,
          "durationTicks": 28,
          "midi": 63,
          "name": "D#4",
          "ticks": 148920,
          "time": 155.125,
          "velocity": 0.5039370078740157
        },
        {
          "duration": 0.046875,
          "durationTicks": 45,
          "midi": 70,
          "name": "A#4",
          "ticks": 149160,
          "time": 155.375,
          "velocity": 0.5039370078740157
        },
        {
          "duration": 0.04166666666665719,
          "durationTicks": 40,
          "midi": 63,
          "name": "D#4",
          "ticks": 149160,
          "time": 155.375,
          "velocity": 0.5039370078740157
        },
        {
          "duration": 0.03645833333334281,
          "durationTicks": 35,
          "midi": 67,
          "name": "G4",
          "ticks": 149160,
          "time": 155.375,
          "velocity": 0.5039370078740157
        },
        {
          "duration": 0.05000000000001137,
          "durationTicks": 48,
          "midi": 70,
          "name": "A#4",
          "ticks": 149400,
          "time": 155.625,
          "velocity": 0.5039370078740157
        },
        {
          "duration": 0.039583333333325754,
          "durationTicks": 38,
          "midi": 67,
          "name": "G4",
          "ticks": 149400,
          "time": 155.625,
          "velocity": 0.5039370078740157
        },
        {
          "duration": 0.03125,
          "durationTicks": 30,
          "midi": 63,
          "name": "D#4",
          "ticks": 149400,
          "time": 155.625,
          "velocity": 0.5039370078740157
        },
        {
          "duration": 0.02916666666666856,
          "durationTicks": 28,
          "midi": 70,
          "name": "A#4",
          "ticks": 149640,
          "time": 155.875,
          "velocity": 0.5039370078740157
        },
        {
          "duration": 0.020833333333342807,
          "durationTicks": 20,
          "midi": 67,
          "name": "G4",
          "ticks": 149640,
          "time": 155.875,
          "velocity": 0.5039370078740157
        },
        {
          "duration": 0.015625,
          "durationTicks": 15,
          "midi": 63,
          "name": "D#4",
          "ticks": 149640,
          "time": 155.875,
          "velocity": 0.5039370078740157
        },
        {
          "duration": 0.01875000000001137,
          "durationTicks": 18,
          "midi": 63,
          "name": "D#4",
          "ticks": 149760,
          "time": 156,
          "velocity": 0.5039370078740157
        },
        {
          "duration": 0.013541666666668561,
          "durationTicks": 13,
          "midi": 70,
          "name": "A#4",
          "ticks": 149760,
          "time": 156,
          "velocity": 0.5039370078740157
        },
        {
          "duration": 0.010416666666657193,
          "durationTicks": 10,
          "midi": 67,
          "name": "G4",
          "ticks": 149760,
          "time": 156,
          "velocity": 0.5039370078740157
        },
        {
          "duration": 0.04166666666665719,
          "durationTicks": 40,
          "midi": 65,
          "name": "F4",
          "ticks": 150000,
          "time": 156.25,
          "velocity": 0.5039370078740157
        },
        {
          "duration": 0.04479166666666856,
          "durationTicks": 43,
          "midi": 69,
          "name": "A4",
          "ticks": 150000,
          "time": 156.25,
          "velocity": 0.5039370078740157
        },
        {
          "duration": 0.04166666666665719,
          "durationTicks": 40,
          "midi": 72,
          "name": "C5",
          "ticks": 150000,
          "time": 156.25,
          "velocity": 0.5039370078740157
        },
        {
          "duration": 0.04166666666665719,
          "durationTicks": 40,
          "midi": 69,
          "name": "A4",
          "ticks": 150240,
          "time": 156.5,
          "velocity": 0.5039370078740157
        },
        {
          "duration": 0.04479166666666856,
          "durationTicks": 43,
          "midi": 65,
          "name": "F4",
          "ticks": 150240,
          "time": 156.5,
          "velocity": 0.5039370078740157
        },
        {
          "duration": 0.039583333333325754,
          "durationTicks": 38,
          "midi": 72,
          "name": "C5",
          "ticks": 150240,
          "time": 156.5,
          "velocity": 0.5039370078740157
        },
        {
          "duration": 0.039583333333325754,
          "durationTicks": 38,
          "midi": 65,
          "name": "F4",
          "ticks": 150480,
          "time": 156.75,
          "velocity": 0.5039370078740157
        },
        {
          "duration": 0.039583333333325754,
          "durationTicks": 38,
          "midi": 69,
          "name": "A4",
          "ticks": 150480,
          "time": 156.75,
          "velocity": 0.5039370078740157
        },
        {
          "duration": 0.039583333333325754,
          "durationTicks": 38,
          "midi": 72,
          "name": "C5",
          "ticks": 150480,
          "time": 156.75,
          "velocity": 0.5039370078740157
        },
        {
          "duration": 0.055208333333325754,
          "durationTicks": 53,
          "midi": 70,
          "name": "A#4",
          "ticks": 150720,
          "time": 157,
          "velocity": 0.5039370078740157
        },
        {
          "duration": 0.04166666666665719,
          "durationTicks": 40,
          "midi": 63,
          "name": "D#4",
          "ticks": 150720,
          "time": 157,
          "velocity": 0.5039370078740157
        },
        {
          "duration": 0.02916666666666856,
          "durationTicks": 28,
          "midi": 67,
          "name": "G4",
          "ticks": 150720,
          "time": 157,
          "velocity": 0.5039370078740157
        },
        {
          "duration": 0.05000000000001137,
          "durationTicks": 48,
          "midi": 69,
          "name": "A4",
          "ticks": 150840,
          "time": 157.125,
          "velocity": 0.5039370078740157
        },
        {
          "duration": 0.04166666666665719,
          "durationTicks": 40,
          "midi": 65,
          "name": "F4",
          "ticks": 150840,
          "time": 157.125,
          "velocity": 0.5039370078740157
        },
        {
          "duration": 0.04479166666666856,
          "durationTicks": 43,
          "midi": 72,
          "name": "C5",
          "ticks": 150840,
          "time": 157.125,
          "velocity": 0.5039370078740157
        },
        {
          "duration": 0.046875,
          "durationTicks": 45,
          "midi": 72,
          "name": "C5",
          "ticks": 151080,
          "time": 157.375,
          "velocity": 0.5039370078740157
        },
        {
          "duration": 0.046875,
          "durationTicks": 45,
          "midi": 65,
          "name": "F4",
          "ticks": 151080,
          "time": 157.375,
          "velocity": 0.5039370078740157
        },
        {
          "duration": 0.039583333333325754,
          "durationTicks": 38,
          "midi": 69,
          "name": "A4",
          "ticks": 151080,
          "time": 157.375,
          "velocity": 0.5039370078740157
        },
        {
          "duration": 0.04479166666666856,
          "durationTicks": 43,
          "midi": 72,
          "name": "C5",
          "ticks": 151440,
          "time": 157.75,
          "velocity": 0.5039370078740157
        },
        {
          "duration": 0.03437500000001137,
          "durationTicks": 33,
          "midi": 65,
          "name": "F4",
          "ticks": 151440,
          "time": 157.75,
          "velocity": 0.5039370078740157
        },
        {
          "duration": 0.03437500000001137,
          "durationTicks": 33,
          "midi": 69,
          "name": "A4",
          "ticks": 151440,
          "time": 157.75,
          "velocity": 0.5039370078740157
        }
      ]
    },
    {
      "channel": 9,
      "controlChanges": {},
      "pitchBends": [],
      "instrument": {
        "family": "drums",
        "number": 0,
        "name": "standard kit"
      },
      "name": "",
      "notes": [
        {
          "duration": 0.05000000000000071,
          "durationTicks": 48,
          "midi": 42,
          "name": "F#2",
          "ticks": 15480,
          "time": 16.125,
          "velocity": 0.5039370078740157
        },
        {
          "duration": 0.046875,
          "durationTicks": 45,
          "midi": 44,
          "name": "G#2",
          "ticks": 15600,
          "time": 16.25,
          "velocity": 0.5039370078740157
        },
        {
          "duration": 0.03958333333333286,
          "durationTicks": 38,
          "midi": 42,
          "name": "F#2",
          "ticks": 15720,
          "time": 16.375,
          "velocity": 0.5039370078740157
        },
        {
          "duration": 0.03437500000000071,
          "durationTicks": 33,
          "midi": 42,
          "name": "F#2",
          "ticks": 15840,
          "time": 16.5,
          "velocity": 0.5039370078740157
        },
        {
          "duration": 0.02916666666666501,
          "durationTicks": 28,
          "midi": 42,
          "name": "F#2",
          "ticks": 15960,
          "time": 16.625,
          "velocity": 0.5039370078740157
        },
        {
          "duration": 0.04166666666666785,
          "durationTicks": 40,
          "midi": 42,
          "name": "F#2",
          "ticks": 16080,
          "time": 16.75,
          "velocity": 0.5039370078740157
        },
        {
          "duration": 0.05000000000000071,
          "durationTicks": 48,
          "midi": 44,
          "name": "G#2",
          "ticks": 16200,
          "time": 16.875,
          "velocity": 0.5039370078740157
        },
        {
          "duration": 0.04479166666666501,
          "durationTicks": 43,
          "midi": 42,
          "name": "F#2",
          "ticks": 16320,
          "time": 17,
          "velocity": 0.5039370078740157
        },
        {
          "duration": 0.03958333333333286,
          "durationTicks": 38,
          "midi": 42,
          "name": "F#2",
          "ticks": 16440,
          "time": 17.125,
          "velocity": 0.5039370078740157
        },
        {
          "duration": 0.04166666666666785,
          "durationTicks": 40,
          "midi": 42,
          "name": "F#2",
          "ticks": 16560,
          "time": 17.25,
          "velocity": 0.5039370078740157
        },
        {
          "duration": 0.046875,
          "durationTicks": 45,
          "midi": 44,
          "name": "G#2",
          "ticks": 16680,
          "time": 17.375,
          "velocity": 0.5039370078740157
        },
        {
          "duration": 0.04166666666666785,
          "durationTicks": 40,
          "midi": 42,
          "name": "F#2",
          "ticks": 16800,
          "time": 17.5,
          "velocity": 0.5039370078740157
        },
        {
          "duration": 0.03125,
          "durationTicks": 30,
          "midi": 42,
          "name": "F#2",
          "ticks": 16920,
          "time": 17.625,
          "velocity": 0.5039370078740157
        },
        {
          "duration": 0.07083333333333286,
          "durationTicks": 68,
          "midi": 44,
          "name": "G#2",
          "ticks": 17040,
          "time": 17.75,
          "velocity": 0.5039370078740157
        },
        {
          "duration": 0.04479166666666501,
          "durationTicks": 43,
          "midi": 42,
          "name": "F#2",
          "ticks": 17160,
          "time": 17.875,
          "velocity": 0.5039370078740157
        },
        {
          "duration": 0.05000000000000071,
          "durationTicks": 48,
          "midi": 42,
          "name": "F#2",
          "ticks": 17400,
          "time": 18.125,
          "velocity": 0.5039370078740157
        },
        {
          "duration": 0.046875,
          "durationTicks": 45,
          "midi": 44,
          "name": "G#2",
          "ticks": 17520,
          "time": 18.25,
          "velocity": 0.5039370078740157
        },
        {
          "duration": 0.03958333333333286,
          "durationTicks": 38,
          "midi": 42,
          "name": "F#2",
          "ticks": 17640,
          "time": 18.375,
          "velocity": 0.5039370078740157
        },
        {
          "duration": 0.03437500000000071,
          "durationTicks": 33,
          "midi": 42,
          "name": "F#2",
          "ticks": 17760,
          "time": 18.5,
          "velocity": 0.5039370078740157
        },
        {
          "duration": 0.02916666666666501,
          "durationTicks": 28,
          "midi": 42,
          "name": "F#2",
          "ticks": 17880,
          "time": 18.625,
          "velocity": 0.5039370078740157
        },
        {
          "duration": 0.04166666666666785,
          "durationTicks": 40,
          "midi": 42,
          "name": "F#2",
          "ticks": 18000,
          "time": 18.75,
          "velocity": 0.5039370078740157
        },
        {
          "duration": 0.05000000000000071,
          "durationTicks": 48,
          "midi": 44,
          "name": "G#2",
          "ticks": 18120,
          "time": 18.875,
          "velocity": 0.5039370078740157
        },
        {
          "duration": 0.04479166666666501,
          "durationTicks": 43,
          "midi": 42,
          "name": "F#2",
          "ticks": 18240,
          "time": 19,
          "velocity": 0.5039370078740157
        },
        {
          "duration": 0.03958333333333286,
          "durationTicks": 38,
          "midi": 42,
          "name": "F#2",
          "ticks": 18360,
          "time": 19.125,
          "velocity": 0.5039370078740157
        },
        {
          "duration": 0.04166666666666785,
          "durationTicks": 40,
          "midi": 42,
          "name": "F#2",
          "ticks": 18480,
          "time": 19.25,
          "velocity": 0.5039370078740157
        },
        {
          "duration": 0.046875,
          "durationTicks": 45,
          "midi": 44,
          "name": "G#2",
          "ticks": 18600,
          "time": 19.375,
          "velocity": 0.5039370078740157
        },
        {
          "duration": 0.04166666666666785,
          "durationTicks": 40,
          "midi": 42,
          "name": "F#2",
          "ticks": 18720,
          "time": 19.5,
          "velocity": 0.5039370078740157
        },
        {
          "duration": 0.03125,
          "durationTicks": 30,
          "midi": 42,
          "name": "F#2",
          "ticks": 18840,
          "time": 19.625,
          "velocity": 0.5039370078740157
        },
        {
          "duration": 0.07083333333333286,
          "durationTicks": 68,
          "midi": 44,
          "name": "G#2",
          "ticks": 18960,
          "time": 19.75,
          "velocity": 0.5039370078740157
        },
        {
          "duration": 0.04479166666666501,
          "durationTicks": 43,
          "midi": 42,
          "name": "F#2",
          "ticks": 19080,
          "time": 19.875,
          "velocity": 0.5039370078740157
        },
        {
          "duration": 0.05000000000000071,
          "durationTicks": 48,
          "midi": 42,
          "name": "F#2",
          "ticks": 19320,
          "time": 20.125,
          "velocity": 0.5039370078740157
        },
        {
          "duration": 0.046875,
          "durationTicks": 45,
          "midi": 44,
          "name": "G#2",
          "ticks": 19440,
          "time": 20.25,
          "velocity": 0.5039370078740157
        },
        {
          "duration": 0.03958333333333286,
          "durationTicks": 38,
          "midi": 42,
          "name": "F#2",
          "ticks": 19560,
          "time": 20.375,
          "velocity": 0.5039370078740157
        },
        {
          "duration": 0.03437500000000071,
          "durationTicks": 33,
          "midi": 42,
          "name": "F#2",
          "ticks": 19680,
          "time": 20.5,
          "velocity": 0.5039370078740157
        },
        {
          "duration": 0.02916666666666501,
          "durationTicks": 28,
          "midi": 42,
          "name": "F#2",
          "ticks": 19800,
          "time": 20.625,
          "velocity": 0.5039370078740157
        },
        {
          "duration": 0.04166666666666785,
          "durationTicks": 40,
          "midi": 42,
          "name": "F#2",
          "ticks": 19920,
          "time": 20.75,
          "velocity": 0.5039370078740157
        },
        {
          "duration": 0.05000000000000071,
          "durationTicks": 48,
          "midi": 44,
          "name": "G#2",
          "ticks": 20040,
          "time": 20.875,
          "velocity": 0.5039370078740157
        },
        {
          "duration": 0.04479166666666501,
          "durationTicks": 43,
          "midi": 42,
          "name": "F#2",
          "ticks": 20160,
          "time": 21,
          "velocity": 0.5039370078740157
        },
        {
          "duration": 0.03958333333333286,
          "durationTicks": 38,
          "midi": 42,
          "name": "F#2",
          "ticks": 20280,
          "time": 21.125,
          "velocity": 0.5039370078740157
        },
        {
          "duration": 0.04166666666666785,
          "durationTicks": 40,
          "midi": 42,
          "name": "F#2",
          "ticks": 20400,
          "time": 21.25,
          "velocity": 0.5039370078740157
        },
        {
          "duration": 0.046875,
          "durationTicks": 45,
          "midi": 44,
          "name": "G#2",
          "ticks": 20520,
          "time": 21.375,
          "velocity": 0.5039370078740157
        },
        {
          "duration": 0.04166666666666785,
          "durationTicks": 40,
          "midi": 42,
          "name": "F#2",
          "ticks": 20640,
          "time": 21.5,
          "velocity": 0.5039370078740157
        },
        {
          "duration": 0.03125,
          "durationTicks": 30,
          "midi": 42,
          "name": "F#2",
          "ticks": 20760,
          "time": 21.625,
          "velocity": 0.5039370078740157
        },
        {
          "duration": 0.07083333333333286,
          "durationTicks": 68,
          "midi": 44,
          "name": "G#2",
          "ticks": 20880,
          "time": 21.75,
          "velocity": 0.5039370078740157
        },
        {
          "duration": 0.04479166666666501,
          "durationTicks": 43,
          "midi": 42,
          "name": "F#2",
          "ticks": 21000,
          "time": 21.875,
          "velocity": 0.5039370078740157
        },
        {
          "duration": 0.05000000000000071,
          "durationTicks": 48,
          "midi": 42,
          "name": "F#2",
          "ticks": 21240,
          "time": 22.125,
          "velocity": 0.5039370078740157
        },
        {
          "duration": 0.046875,
          "durationTicks": 45,
          "midi": 44,
          "name": "G#2",
          "ticks": 21360,
          "time": 22.25,
          "velocity": 0.5039370078740157
        },
        {
          "duration": 0.03958333333333286,
          "durationTicks": 38,
          "midi": 42,
          "name": "F#2",
          "ticks": 21480,
          "time": 22.375,
          "velocity": 0.5039370078740157
        },
        {
          "duration": 0.03437500000000071,
          "durationTicks": 33,
          "midi": 42,
          "name": "F#2",
          "ticks": 21600,
          "time": 22.5,
          "velocity": 0.5039370078740157
        },
        {
          "duration": 0.02916666666666501,
          "durationTicks": 28,
          "midi": 42,
          "name": "F#2",
          "ticks": 21720,
          "time": 22.625,
          "velocity": 0.5039370078740157
        },
        {
          "duration": 0.04166666666666785,
          "durationTicks": 40,
          "midi": 42,
          "name": "F#2",
          "ticks": 21840,
          "time": 22.75,
          "velocity": 0.5039370078740157
        },
        {
          "duration": 0.05000000000000071,
          "durationTicks": 48,
          "midi": 44,
          "name": "G#2",
          "ticks": 21960,
          "time": 22.875,
          "velocity": 0.5039370078740157
        },
        {
          "duration": 0.04479166666666501,
          "durationTicks": 43,
          "midi": 42,
          "name": "F#2",
          "ticks": 22080,
          "time": 23,
          "velocity": 0.5039370078740157
        },
        {
          "duration": 0.03958333333333286,
          "durationTicks": 38,
          "midi": 42,
          "name": "F#2",
          "ticks": 22200,
          "time": 23.125,
          "velocity": 0.5039370078740157
        },
        {
          "duration": 0.0625,
          "durationTicks": 60,
          "midi": 39,
          "name": "D#2",
          "ticks": 22200,
          "time": 23.125,
          "velocity": 0.5039370078740157
        },
        {
          "duration": 0.04166666666666785,
          "durationTicks": 40,
          "midi": 42,
          "name": "F#2",
          "ticks": 22320,
          "time": 23.25,
          "velocity": 0.5039370078740157
        },
        {
          "duration": 0.046875,
          "durationTicks": 45,
          "midi": 44,
          "name": "G#2",
          "ticks": 22440,
          "time": 23.375,
          "velocity": 0.5039370078740157
        },
        {
          "duration": 0.06041666666666501,
          "durationTicks": 58,
          "midi": 39,
          "name": "D#2",
          "ticks": 22440,
          "time": 23.375,
          "velocity": 0.5039370078740157
        },
        {
          "duration": 0.04166666666666785,
          "durationTicks": 40,
          "midi": 42,
          "name": "F#2",
          "ticks": 22560,
          "time": 23.5,
          "velocity": 0.5039370078740157
        },
        {
          "duration": 0.03125,
          "durationTicks": 30,
          "midi": 42,
          "name": "F#2",
          "ticks": 22680,
          "time": 23.625,
          "velocity": 0.5039370078740157
        },
        {
          "duration": 0.046875,
          "durationTicks": 45,
          "midi": 39,
          "name": "D#2",
          "ticks": 22680,
          "time": 23.625,
          "velocity": 0.5039370078740157
        },
        {
          "duration": 0.07083333333333286,
          "durationTicks": 68,
          "midi": 44,
          "name": "G#2",
          "ticks": 22800,
          "time": 23.75,
          "velocity": 0.5039370078740157
        },
        {
          "duration": 0.046875,
          "durationTicks": 45,
          "midi": 39,
          "name": "D#2",
          "ticks": 22800,
          "time": 23.75,
          "velocity": 0.5039370078740157
        },
        {
          "duration": 0.04479166666666501,
          "durationTicks": 43,
          "midi": 42,
          "name": "F#2",
          "ticks": 22920,
          "time": 23.875,
          "velocity": 0.5039370078740157
        },
        {
          "duration": 0.04479166666666501,
          "durationTicks": 43,
          "midi": 39,
          "name": "D#2",
          "ticks": 22920,
          "time": 23.875,
          "velocity": 0.5039370078740157
        },
        {
          "duration": 0.11770833333333286,
          "durationTicks": 113,
          "midi": 36,
          "name": "C2",
          "ticks": 23040,
          "time": 24,
          "velocity": 0.5039370078740157
        },
        {
          "duration": 0.04166666666666785,
          "durationTicks": 40,
          "midi": 39,
          "name": "D#2",
          "ticks": 23040,
          "time": 24,
          "velocity": 0.5039370078740157
        },
        {
          "duration": 0.05000000000000071,
          "durationTicks": 48,
          "midi": 42,
          "name": "F#2",
          "ticks": 23160,
          "time": 24.125,
          "velocity": 0.5039370078740157
        },
        {
          "duration": 0.03645833333333215,
          "durationTicks": 35,
          "midi": 39,
          "name": "D#2",
          "ticks": 23160,
          "time": 24.125,
          "velocity": 0.5039370078740157
        },
        {
          "duration": 0.046875,
          "durationTicks": 45,
          "midi": 44,
          "name": "G#2",
          "ticks": 23280,
          "time": 24.25,
          "velocity": 0.5039370078740157
        },
        {
          "duration": 0.08333333333333215,
          "durationTicks": 80,
          "midi": 39,
          "name": "D#2",
          "ticks": 23280,
          "time": 24.25,
          "velocity": 0.5039370078740157
        },
        {
          "duration": 0.03958333333333286,
          "durationTicks": 38,
          "midi": 42,
          "name": "F#2",
          "ticks": 23400,
          "time": 24.375,
          "velocity": 0.5039370078740157
        },
        {
          "duration": 0.03437500000000071,
          "durationTicks": 33,
          "midi": 42,
          "name": "F#2",
          "ticks": 23520,
          "time": 24.5,
          "velocity": 0.5039370078740157
        },
        {
          "duration": 0.02916666666666501,
          "durationTicks": 28,
          "midi": 42,
          "name": "F#2",
          "ticks": 23640,
          "time": 24.625,
          "velocity": 0.5039370078740157
        },
        {
          "duration": 0.04166666666666785,
          "durationTicks": 40,
          "midi": 42,
          "name": "F#2",
          "ticks": 23760,
          "time": 24.75,
          "velocity": 0.5039370078740157
        },
        {
          "duration": 0.05000000000000071,
          "durationTicks": 48,
          "midi": 44,
          "name": "G#2",
          "ticks": 23880,
          "time": 24.875,
          "velocity": 0.5039370078740157
        },
        {
          "duration": 0.04479166666666501,
          "durationTicks": 43,
          "midi": 42,
          "name": "F#2",
          "ticks": 24000,
          "time": 25,
          "velocity": 0.5039370078740157
        },
        {
          "duration": 0.03958333333333286,
          "durationTicks": 38,
          "midi": 42,
          "name": "F#2",
          "ticks": 24120,
          "time": 25.125,
          "velocity": 0.5039370078740157
        },
        {
          "duration": 0.0625,
          "durationTicks": 60,
          "midi": 36,
          "name": "C2",
          "ticks": 24120,
          "time": 25.125,
          "velocity": 0.5039370078740157
        },
        {
          "duration": 0.04166666666666785,
          "durationTicks": 40,
          "midi": 42,
          "name": "F#2",
          "ticks": 24240,
          "time": 25.25,
          "velocity": 0.5039370078740157
        },
        {
          "duration": 0.06770833333333215,
          "durationTicks": 65,
          "midi": 36,
          "name": "C2",
          "ticks": 24240,
          "time": 25.25,
          "velocity": 0.5039370078740157
        },
        {
          "duration": 0.046875,
          "durationTicks": 45,
          "midi": 44,
          "name": "G#2",
          "ticks": 24360,
          "time": 25.375,
          "velocity": 0.5039370078740157
        },
        {
          "duration": 0.04166666666666785,
          "durationTicks": 40,
          "midi": 42,
          "name": "F#2",
          "ticks": 24480,
          "time": 25.5,
          "velocity": 0.5039370078740157
        },
        {
          "duration": 0.0625,
          "durationTicks": 60,
          "midi": 36,
          "name": "C2",
          "ticks": 24480,
          "time": 25.5,
          "velocity": 0.5039370078740157
        },
        {
          "duration": 0.03125,
          "durationTicks": 30,
          "midi": 42,
          "name": "F#2",
          "ticks": 24600,
          "time": 25.625,
          "velocity": 0.5039370078740157
        },
        {
          "duration": 0.07083333333333286,
          "durationTicks": 68,
          "midi": 44,
          "name": "G#2",
          "ticks": 24720,
          "time": 25.75,
          "velocity": 0.5039370078740157
        },
        {
          "duration": 0.0625,
          "durationTicks": 60,
          "midi": 36,
          "name": "C2",
          "ticks": 24720,
          "time": 25.75,
          "velocity": 0.5039370078740157
        },
        {
          "duration": 0.04479166666666501,
          "durationTicks": 43,
          "midi": 42,
          "name": "F#2",
          "ticks": 24840,
          "time": 25.875,
          "velocity": 0.5039370078740157
        },
        {
          "duration": 0.05000000000000071,
          "durationTicks": 48,
          "midi": 42,
          "name": "F#2",
          "ticks": 25080,
          "time": 26.125,
          "velocity": 0.5039370078740157
        },
        {
          "duration": 0.046875,
          "durationTicks": 45,
          "midi": 44,
          "name": "G#2",
          "ticks": 25200,
          "time": 26.25,
          "velocity": 0.5039370078740157
        },
        {
          "duration": 0.03958333333333286,
          "durationTicks": 38,
          "midi": 42,
          "name": "F#2",
          "ticks": 25320,
          "time": 26.375,
          "velocity": 0.5039370078740157
        },
        {
          "duration": 0.03437500000000071,
          "durationTicks": 33,
          "midi": 42,
          "name": "F#2",
          "ticks": 25440,
          "time": 26.5,
          "velocity": 0.5039370078740157
        },
        {
          "duration": 0.02916666666666501,
          "durationTicks": 28,
          "midi": 42,
          "name": "F#2",
          "ticks": 25560,
          "time": 26.625,
          "velocity": 0.5039370078740157
        },
        {
          "duration": 0.04166666666666785,
          "durationTicks": 40,
          "midi": 42,
          "name": "F#2",
          "ticks": 25680,
          "time": 26.75,
          "velocity": 0.5039370078740157
        },
        {
          "duration": 0.05000000000000071,
          "durationTicks": 48,
          "midi": 44,
          "name": "G#2",
          "ticks": 25800,
          "time": 26.875,
          "velocity": 0.5039370078740157
        },
        {
          "duration": 0.04479166666666501,
          "durationTicks": 43,
          "midi": 42,
          "name": "F#2",
          "ticks": 25920,
          "time": 27,
          "velocity": 0.5039370078740157
        },
        {
          "duration": 0.03958333333333286,
          "durationTicks": 38,
          "midi": 42,
          "name": "F#2",
          "ticks": 26040,
          "time": 27.125,
          "velocity": 0.5039370078740157
        },
        {
          "duration": 0.0625,
          "durationTicks": 60,
          "midi": 36,
          "name": "C2",
          "ticks": 26040,
          "time": 27.125,
          "velocity": 0.5039370078740157
        },
        {
          "duration": 0.04166666666666785,
          "durationTicks": 40,
          "midi": 42,
          "name": "F#2",
          "ticks": 26160,
          "time": 27.25,
          "velocity": 0.5039370078740157
        },
        {
          "duration": 0.06562500000000071,
          "durationTicks": 63,
          "midi": 36,
          "name": "C2",
          "ticks": 26160,
          "time": 27.25,
          "velocity": 0.5039370078740157
        },
        {
          "duration": 0.046875,
          "durationTicks": 45,
          "midi": 44,
          "name": "G#2",
          "ticks": 26280,
          "time": 27.375,
          "velocity": 0.5039370078740157
        },
        {
          "duration": 0.04166666666666785,
          "durationTicks": 40,
          "midi": 42,
          "name": "F#2",
          "ticks": 26400,
          "time": 27.5,
          "velocity": 0.5039370078740157
        },
        {
          "duration": 0.03125,
          "durationTicks": 30,
          "midi": 42,
          "name": "F#2",
          "ticks": 26520,
          "time": 27.625,
          "velocity": 0.5039370078740157
        },
        {
          "duration": 0.05000000000000071,
          "durationTicks": 48,
          "midi": 39,
          "name": "D#2",
          "ticks": 26520,
          "time": 27.625,
          "velocity": 0.5039370078740157
        },
        {
          "duration": 0.07083333333333286,
          "durationTicks": 68,
          "midi": 44,
          "name": "G#2",
          "ticks": 26640,
          "time": 27.75,
          "velocity": 0.5039370078740157
        },
        {
          "duration": 0.05729166666666785,
          "durationTicks": 55,
          "midi": 39,
          "name": "D#2",
          "ticks": 26640,
          "time": 27.75,
          "velocity": 0.5039370078740157
        },
        {
          "duration": 0.04479166666666501,
          "durationTicks": 43,
          "midi": 42,
          "name": "F#2",
          "ticks": 26760,
          "time": 27.875,
          "velocity": 0.5039370078740157
        },
        {
          "duration": 0.05208333333333215,
          "durationTicks": 50,
          "midi": 39,
          "name": "D#2",
          "ticks": 26760,
          "time": 27.875,
          "velocity": 0.5039370078740157
        },
        {
          "duration": 0.07604166666666501,
          "durationTicks": 73,
          "midi": 36,
          "name": "C2",
          "ticks": 26880,
          "time": 28,
          "velocity": 0.5039370078740157
        },
        {
          "duration": 0.05729166666666785,
          "durationTicks": 55,
          "midi": 39,
          "name": "D#2",
          "ticks": 26880,
          "time": 28,
          "velocity": 0.5039370078740157
        },
        {
          "duration": 0.05000000000000071,
          "durationTicks": 48,
          "midi": 42,
          "name": "F#2",
          "ticks": 27000,
          "time": 28.125,
          "velocity": 0.5039370078740157
        },
        {
          "duration": 0.05000000000000071,
          "durationTicks": 48,
          "midi": 39,
          "name": "D#2",
          "ticks": 27000,
          "time": 28.125,
          "velocity": 0.5039370078740157
        },
        {
          "duration": 0.046875,
          "durationTicks": 45,
          "midi": 44,
          "name": "G#2",
          "ticks": 27120,
          "time": 28.25,
          "velocity": 0.5039370078740157
        },
        {
          "duration": 0.05520833333333286,
          "durationTicks": 53,
          "midi": 39,
          "name": "D#2",
          "ticks": 27120,
          "time": 28.25,
          "velocity": 0.5039370078740157
        },
        {
          "duration": 0.03958333333333286,
          "durationTicks": 38,
          "midi": 42,
          "name": "F#2",
          "ticks": 27240,
          "time": 28.375,
          "velocity": 0.5039370078740157
        },
        {
          "duration": 0.03437500000000071,
          "durationTicks": 33,
          "midi": 42,
          "name": "F#2",
          "ticks": 27360,
          "time": 28.5,
          "velocity": 0.5039370078740157
        },
        {
          "duration": 0.02916666666666501,
          "durationTicks": 28,
          "midi": 42,
          "name": "F#2",
          "ticks": 27480,
          "time": 28.625,
          "velocity": 0.5039370078740157
        },
        {
          "duration": 0.04166666666666785,
          "durationTicks": 40,
          "midi": 42,
          "name": "F#2",
          "ticks": 27600,
          "time": 28.75,
          "velocity": 0.5039370078740157
        },
        {
          "duration": 0.05000000000000071,
          "durationTicks": 48,
          "midi": 44,
          "name": "G#2",
          "ticks": 27720,
          "time": 28.875,
          "velocity": 0.5039370078740157
        },
        {
          "duration": 0.07291666666666785,
          "durationTicks": 70,
          "midi": 36,
          "name": "C2",
          "ticks": 27720,
          "time": 28.875,
          "velocity": 0.5039370078740157
        },
        {
          "duration": 0.04479166666666501,
          "durationTicks": 43,
          "midi": 42,
          "name": "F#2",
          "ticks": 27840,
          "time": 29,
          "velocity": 0.5039370078740157
        },
        {
          "duration": 0.03958333333333286,
          "durationTicks": 38,
          "midi": 42,
          "name": "F#2",
          "ticks": 27960,
          "time": 29.125,
          "velocity": 0.5039370078740157
        },
        {
          "duration": 0.05520833333333286,
          "durationTicks": 53,
          "midi": 36,
          "name": "C2",
          "ticks": 27960,
          "time": 29.125,
          "velocity": 0.5039370078740157
        },
        {
          "duration": 0.04166666666666785,
          "durationTicks": 40,
          "midi": 42,
          "name": "F#2",
          "ticks": 28080,
          "time": 29.25,
          "velocity": 0.5039370078740157
        },
        {
          "duration": 0.07291666666666785,
          "durationTicks": 70,
          "midi": 36,
          "name": "C2",
          "ticks": 28080,
          "time": 29.25,
          "velocity": 0.5039370078740157
        },
        {
          "duration": 0.046875,
          "durationTicks": 45,
          "midi": 44,
          "name": "G#2",
          "ticks": 28200,
          "time": 29.375,
          "velocity": 0.5039370078740157
        },
        {
          "duration": 0.04166666666666785,
          "durationTicks": 40,
          "midi": 42,
          "name": "F#2",
          "ticks": 28320,
          "time": 29.5,
          "velocity": 0.5039370078740157
        },
        {
          "duration": 0.07083333333333286,
          "durationTicks": 68,
          "midi": 36,
          "name": "C2",
          "ticks": 28320,
          "time": 29.5,
          "velocity": 0.5039370078740157
        },
        {
          "duration": 0.03125,
          "durationTicks": 30,
          "midi": 42,
          "name": "F#2",
          "ticks": 28440,
          "time": 29.625,
          "velocity": 0.5039370078740157
        },
        {
          "duration": 0.0625,
          "durationTicks": 60,
          "midi": 36,
          "name": "C2",
          "ticks": 28560,
          "time": 29.75,
          "velocity": 0.5039370078740157
        },
        {
          "duration": 0.07083333333333286,
          "durationTicks": 68,
          "midi": 44,
          "name": "G#2",
          "ticks": 28560,
          "time": 29.75,
          "velocity": 0.5039370078740157
        },
        {
          "duration": 0.04479166666666501,
          "durationTicks": 43,
          "midi": 42,
          "name": "F#2",
          "ticks": 28680,
          "time": 29.875,
          "velocity": 0.5039370078740157
        },
        {
          "duration": 0.06041666666666501,
          "durationTicks": 58,
          "midi": 36,
          "name": "C2",
          "ticks": 28800,
          "time": 30,
          "velocity": 0.5039370078740157
        },
        {
          "duration": 0.05000000000000071,
          "durationTicks": 48,
          "midi": 42,
          "name": "F#2",
          "ticks": 28920,
          "time": 30.125,
          "velocity": 0.5039370078740157
        },
        {
          "duration": 0.046875,
          "durationTicks": 45,
          "midi": 44,
          "name": "G#2",
          "ticks": 29040,
          "time": 30.25,
          "velocity": 0.5039370078740157
        },
        {
          "duration": 0.03958333333333286,
          "durationTicks": 38,
          "midi": 42,
          "name": "F#2",
          "ticks": 29160,
          "time": 30.375,
          "velocity": 0.5039370078740157
        },
        {
          "duration": 0.03437500000000071,
          "durationTicks": 33,
          "midi": 42,
          "name": "F#2",
          "ticks": 29280,
          "time": 30.5,
          "velocity": 0.5039370078740157
        },
        {
          "duration": 0.02916666666666501,
          "durationTicks": 28,
          "midi": 42,
          "name": "F#2",
          "ticks": 29400,
          "time": 30.625,
          "velocity": 0.5039370078740157
        },
        {
          "duration": 0.04166666666666785,
          "durationTicks": 40,
          "midi": 42,
          "name": "F#2",
          "ticks": 29520,
          "time": 30.75,
          "velocity": 0.5039370078740157
        },
        {
          "duration": 0.05000000000000071,
          "durationTicks": 48,
          "midi": 44,
          "name": "G#2",
          "ticks": 29640,
          "time": 30.875,
          "velocity": 0.5039370078740157
        },
        {
          "duration": 0.04479166666666501,
          "durationTicks": 43,
          "midi": 42,
          "name": "F#2",
          "ticks": 29760,
          "time": 31,
          "velocity": 0.5039370078740157
        },
        {
          "duration": 0.03958333333333286,
          "durationTicks": 38,
          "midi": 42,
          "name": "F#2",
          "ticks": 29880,
          "time": 31.125,
          "velocity": 0.5039370078740157
        },
        {
          "duration": 0.05520833333333286,
          "durationTicks": 53,
          "midi": 36,
          "name": "C2",
          "ticks": 29880,
          "time": 31.125,
          "velocity": 0.5039370078740157
        },
        {
          "duration": 0.0625,
          "durationTicks": 60,
          "midi": 39,
          "name": "D#2",
          "ticks": 29880,
          "time": 31.125,
          "velocity": 0.5039370078740157
        },
        {
          "duration": 0.04166666666666785,
          "durationTicks": 40,
          "midi": 42,
          "name": "F#2",
          "ticks": 30000,
          "time": 31.25,
          "velocity": 0.5039370078740157
        },
        {
          "duration": 0.06041666666666501,
          "durationTicks": 58,
          "midi": 36,
          "name": "C2",
          "ticks": 30000,
          "time": 31.25,
          "velocity": 0.5039370078740157
        },
        {
          "duration": 0.046875,
          "durationTicks": 45,
          "midi": 44,
          "name": "G#2",
          "ticks": 30120,
          "time": 31.375,
          "velocity": 0.5039370078740157
        },
        {
          "duration": 0.06041666666666501,
          "durationTicks": 58,
          "midi": 39,
          "name": "D#2",
          "ticks": 30120,
          "time": 31.375,
          "velocity": 0.5039370078740157
        },
        {
          "duration": 0.04166666666666785,
          "durationTicks": 40,
          "midi": 42,
          "name": "F#2",
          "ticks": 30240,
          "time": 31.5,
          "velocity": 0.5039370078740157
        },
        {
          "duration": 0.05520833333333286,
          "durationTicks": 53,
          "midi": 36,
          "name": "C2",
          "ticks": 30240,
          "time": 31.5,
          "velocity": 0.5039370078740157
        },
        {
          "duration": 0.03125,
          "durationTicks": 30,
          "midi": 42,
          "name": "F#2",
          "ticks": 30360,
          "time": 31.625,
          "velocity": 0.5039370078740157
        },
        {
          "duration": 0.046875,
          "durationTicks": 45,
          "midi": 39,
          "name": "D#2",
          "ticks": 30360,
          "time": 31.625,
          "velocity": 0.5039370078740157
        },
        {
          "duration": 0.07083333333333286,
          "durationTicks": 68,
          "midi": 44,
          "name": "G#2",
          "ticks": 30480,
          "time": 31.75,
          "velocity": 0.5039370078740157
        },
        {
          "duration": 0.05520833333333286,
          "durationTicks": 53,
          "midi": 36,
          "name": "C2",
          "ticks": 30480,
          "time": 31.75,
          "velocity": 0.5039370078740157
        },
        {
          "duration": 0.046875,
          "durationTicks": 45,
          "midi": 39,
          "name": "D#2",
          "ticks": 30480,
          "time": 31.75,
          "velocity": 0.5039370078740157
        },
        {
          "duration": 0.04479166666666501,
          "durationTicks": 43,
          "midi": 42,
          "name": "F#2",
          "ticks": 30600,
          "time": 31.875,
          "velocity": 0.5039370078740157
        },
        {
          "duration": 0.04479166666666501,
          "durationTicks": 43,
          "midi": 39,
          "name": "D#2",
          "ticks": 30600,
          "time": 31.875,
          "velocity": 0.5039370078740157
        },
        {
          "duration": 0.11770833333333286,
          "durationTicks": 113,
          "midi": 36,
          "name": "C2",
          "ticks": 30720,
          "time": 32,
          "velocity": 0.5039370078740157
        },
        {
          "duration": 0.0416666666666643,
          "durationTicks": 40,
          "midi": 39,
          "name": "D#2",
          "ticks": 30720,
          "time": 32,
          "velocity": 0.5039370078740157
        },
        {
          "duration": 0.04999999999999716,
          "durationTicks": 48,
          "midi": 42,
          "name": "F#2",
          "ticks": 30840,
          "time": 32.125,
          "velocity": 0.5039370078740157
        },
        {
          "duration": 0.0364583333333357,
          "durationTicks": 35,
          "midi": 39,
          "name": "D#2",
          "ticks": 30840,
          "time": 32.125,
          "velocity": 0.5039370078740157
        },
        {
          "duration": 0.046875,
          "durationTicks": 45,
          "midi": 44,
          "name": "G#2",
          "ticks": 30960,
          "time": 32.25,
          "velocity": 0.5039370078740157
        },
        {
          "duration": 0.0833333333333357,
          "durationTicks": 80,
          "midi": 39,
          "name": "D#2",
          "ticks": 30960,
          "time": 32.25,
          "velocity": 0.5039370078740157
        },
        {
          "duration": 0.03958333333333286,
          "durationTicks": 38,
          "midi": 42,
          "name": "F#2",
          "ticks": 31080,
          "time": 32.375,
          "velocity": 0.5039370078740157
        },
        {
          "duration": 0.03437499999999716,
          "durationTicks": 33,
          "midi": 42,
          "name": "F#2",
          "ticks": 31200,
          "time": 32.5,
          "velocity": 0.5039370078740157
        },
        {
          "duration": 0.4375,
          "durationTicks": 420,
          "midi": 38,
          "name": "D2",
          "ticks": 31200,
          "time": 32.5,
          "velocity": 0.5039370078740157
        },
        {
          "duration": 0.02916666666666856,
          "durationTicks": 28,
          "midi": 42,
          "name": "F#2",
          "ticks": 31320,
          "time": 32.625,
          "velocity": 0.5039370078740157
        },
        {
          "duration": 0.0416666666666643,
          "durationTicks": 40,
          "midi": 42,
          "name": "F#2",
          "ticks": 31440,
          "time": 32.75,
          "velocity": 0.5039370078740157
        },
        {
          "duration": 0.04999999999999716,
          "durationTicks": 48,
          "midi": 44,
          "name": "G#2",
          "ticks": 31560,
          "time": 32.875,
          "velocity": 0.5039370078740157
        },
        {
          "duration": 0.04479166666666856,
          "durationTicks": 43,
          "midi": 42,
          "name": "F#2",
          "ticks": 31680,
          "time": 33,
          "velocity": 0.5039370078740157
        },
        {
          "duration": 0.03958333333333286,
          "durationTicks": 38,
          "midi": 42,
          "name": "F#2",
          "ticks": 31800,
          "time": 33.125,
          "velocity": 0.5039370078740157
        },
        {
          "duration": 0.0625,
          "durationTicks": 60,
          "midi": 36,
          "name": "C2",
          "ticks": 31800,
          "time": 33.125,
          "velocity": 0.5039370078740157
        },
        {
          "duration": 0.0416666666666643,
          "durationTicks": 40,
          "midi": 42,
          "name": "F#2",
          "ticks": 31920,
          "time": 33.25,
          "velocity": 0.5039370078740157
        },
        {
          "duration": 0.0677083333333357,
          "durationTicks": 65,
          "midi": 36,
          "name": "C2",
          "ticks": 31920,
          "time": 33.25,
          "velocity": 0.5039370078740157
        },
        {
          "duration": 0.046875,
          "durationTicks": 45,
          "midi": 44,
          "name": "G#2",
          "ticks": 32040,
          "time": 33.375,
          "velocity": 0.5039370078740157
        },
        {
          "duration": 0.0416666666666643,
          "durationTicks": 40,
          "midi": 42,
          "name": "F#2",
          "ticks": 32160,
          "time": 33.5,
          "velocity": 0.5039370078740157
        },
        {
          "duration": 0.4375,
          "durationTicks": 420,
          "midi": 38,
          "name": "D2",
          "ticks": 32160,
          "time": 33.5,
          "velocity": 0.5039370078740157
        },
        {
          "duration": 0.0625,
          "durationTicks": 60,
          "midi": 36,
          "name": "C2",
          "ticks": 32160,
          "time": 33.5,
          "velocity": 0.5039370078740157
        },
        {
          "duration": 0.03125,
          "durationTicks": 30,
          "midi": 42,
          "name": "F#2",
          "ticks": 32280,
          "time": 33.625,
          "velocity": 0.5039370078740157
        },
        {
          "duration": 0.07083333333333286,
          "durationTicks": 68,
          "midi": 44,
          "name": "G#2",
          "ticks": 32400,
          "time": 33.75,
          "velocity": 0.5039370078740157
        },
        {
          "duration": 0.0625,
          "durationTicks": 60,
          "midi": 36,
          "name": "C2",
          "ticks": 32400,
          "time": 33.75,
          "velocity": 0.5039370078740157
        },
        {
          "duration": 0.04479166666666856,
          "durationTicks": 43,
          "midi": 42,
          "name": "F#2",
          "ticks": 32520,
          "time": 33.875,
          "velocity": 0.5039370078740157
        },
        {
          "duration": 0.04999999999999716,
          "durationTicks": 48,
          "midi": 42,
          "name": "F#2",
          "ticks": 32760,
          "time": 34.125,
          "velocity": 0.5039370078740157
        },
        {
          "duration": 0.046875,
          "durationTicks": 45,
          "midi": 44,
          "name": "G#2",
          "ticks": 32880,
          "time": 34.25,
          "velocity": 0.5039370078740157
        },
        {
          "duration": 0.03958333333333286,
          "durationTicks": 38,
          "midi": 42,
          "name": "F#2",
          "ticks": 33000,
          "time": 34.375,
          "velocity": 0.5039370078740157
        },
        {
          "duration": 0.03437499999999716,
          "durationTicks": 33,
          "midi": 42,
          "name": "F#2",
          "ticks": 33120,
          "time": 34.5,
          "velocity": 0.5039370078740157
        },
        {
          "duration": 0.4375,
          "durationTicks": 420,
          "midi": 38,
          "name": "D2",
          "ticks": 33120,
          "time": 34.5,
          "velocity": 0.5039370078740157
        },
        {
          "duration": 0.02916666666666856,
          "durationTicks": 28,
          "midi": 42,
          "name": "F#2",
          "ticks": 33240,
          "time": 34.625,
          "velocity": 0.5039370078740157
        },
        {
          "duration": 0.0416666666666643,
          "durationTicks": 40,
          "midi": 42,
          "name": "F#2",
          "ticks": 33360,
          "time": 34.75,
          "velocity": 0.5039370078740157
        },
        {
          "duration": 0.04999999999999716,
          "durationTicks": 48,
          "midi": 44,
          "name": "G#2",
          "ticks": 33480,
          "time": 34.875,
          "velocity": 0.5039370078740157
        },
        {
          "duration": 0.04479166666666856,
          "durationTicks": 43,
          "midi": 42,
          "name": "F#2",
          "ticks": 33600,
          "time": 35,
          "velocity": 0.5039370078740157
        },
        {
          "duration": 0.03958333333333286,
          "durationTicks": 38,
          "midi": 42,
          "name": "F#2",
          "ticks": 33720,
          "time": 35.125,
          "velocity": 0.5039370078740157
        },
        {
          "duration": 0.0625,
          "durationTicks": 60,
          "midi": 36,
          "name": "C2",
          "ticks": 33720,
          "time": 35.125,
          "velocity": 0.5039370078740157
        },
        {
          "duration": 0.0416666666666643,
          "durationTicks": 40,
          "midi": 42,
          "name": "F#2",
          "ticks": 33840,
          "time": 35.25,
          "velocity": 0.5039370078740157
        },
        {
          "duration": 0.06562499999999716,
          "durationTicks": 63,
          "midi": 36,
          "name": "C2",
          "ticks": 33840,
          "time": 35.25,
          "velocity": 0.5039370078740157
        },
        {
          "duration": 0.046875,
          "durationTicks": 45,
          "midi": 44,
          "name": "G#2",
          "ticks": 33960,
          "time": 35.375,
          "velocity": 0.5039370078740157
        },
        {
          "duration": 0.0416666666666643,
          "durationTicks": 40,
          "midi": 42,
          "name": "F#2",
          "ticks": 34080,
          "time": 35.5,
          "velocity": 0.5039370078740157
        },
        {
          "duration": 0.4375,
          "durationTicks": 420,
          "midi": 38,
          "name": "D2",
          "ticks": 34080,
          "time": 35.5,
          "velocity": 0.5039370078740157
        },
        {
          "duration": 0.03125,
          "durationTicks": 30,
          "midi": 42,
          "name": "F#2",
          "ticks": 34200,
          "time": 35.625,
          "velocity": 0.5039370078740157
        },
        {
          "duration": 0.07083333333333286,
          "durationTicks": 68,
          "midi": 44,
          "name": "G#2",
          "ticks": 34320,
          "time": 35.75,
          "velocity": 0.5039370078740157
        },
        {
          "duration": 0.04479166666666856,
          "durationTicks": 43,
          "midi": 42,
          "name": "F#2",
          "ticks": 34440,
          "time": 35.875,
          "velocity": 0.5039370078740157
        },
        {
          "duration": 0.07604166666666856,
          "durationTicks": 73,
          "midi": 36,
          "name": "C2",
          "ticks": 34560,
          "time": 36,
          "velocity": 0.5039370078740157
        },
        {
          "duration": 0.04999999999999716,
          "durationTicks": 48,
          "midi": 42,
          "name": "F#2",
          "ticks": 34680,
          "time": 36.125,
          "velocity": 0.5039370078740157
        },
        {
          "duration": 0.046875,
          "durationTicks": 45,
          "midi": 44,
          "name": "G#2",
          "ticks": 34800,
          "time": 36.25,
          "velocity": 0.5039370078740157
        },
        {
          "duration": 0.03958333333333286,
          "durationTicks": 38,
          "midi": 42,
          "name": "F#2",
          "ticks": 34920,
          "time": 36.375,
          "velocity": 0.5039370078740157
        },
        {
          "duration": 0.03437499999999716,
          "durationTicks": 33,
          "midi": 42,
          "name": "F#2",
          "ticks": 35040,
          "time": 36.5,
          "velocity": 0.5039370078740157
        },
        {
          "duration": 0.4375,
          "durationTicks": 420,
          "midi": 38,
          "name": "D2",
          "ticks": 35040,
          "time": 36.5,
          "velocity": 0.5039370078740157
        },
        {
          "duration": 0.02916666666666856,
          "durationTicks": 28,
          "midi": 42,
          "name": "F#2",
          "ticks": 35160,
          "time": 36.625,
          "velocity": 0.5039370078740157
        },
        {
          "duration": 0.0416666666666643,
          "durationTicks": 40,
          "midi": 42,
          "name": "F#2",
          "ticks": 35280,
          "time": 36.75,
          "velocity": 0.5039370078740157
        },
        {
          "duration": 0.04999999999999716,
          "durationTicks": 48,
          "midi": 44,
          "name": "G#2",
          "ticks": 35400,
          "time": 36.875,
          "velocity": 0.5039370078740157
        },
        {
          "duration": 0.0729166666666643,
          "durationTicks": 70,
          "midi": 36,
          "name": "C2",
          "ticks": 35400,
          "time": 36.875,
          "velocity": 0.5039370078740157
        },
        {
          "duration": 0.04479166666666856,
          "durationTicks": 43,
          "midi": 42,
          "name": "F#2",
          "ticks": 35520,
          "time": 37,
          "velocity": 0.5039370078740157
        },
        {
          "duration": 0.03958333333333286,
          "durationTicks": 38,
          "midi": 42,
          "name": "F#2",
          "ticks": 35640,
          "time": 37.125,
          "velocity": 0.5039370078740157
        },
        {
          "duration": 0.05520833333333286,
          "durationTicks": 53,
          "midi": 36,
          "name": "C2",
          "ticks": 35640,
          "time": 37.125,
          "velocity": 0.5039370078740157
        },
        {
          "duration": 0.0416666666666643,
          "durationTicks": 40,
          "midi": 42,
          "name": "F#2",
          "ticks": 35760,
          "time": 37.25,
          "velocity": 0.5039370078740157
        },
        {
          "duration": 0.0729166666666643,
          "durationTicks": 70,
          "midi": 36,
          "name": "C2",
          "ticks": 35760,
          "time": 37.25,
          "velocity": 0.5039370078740157
        },
        {
          "duration": 0.046875,
          "durationTicks": 45,
          "midi": 44,
          "name": "G#2",
          "ticks": 35880,
          "time": 37.375,
          "velocity": 0.5039370078740157
        },
        {
          "duration": 0.0416666666666643,
          "durationTicks": 40,
          "midi": 42,
          "name": "F#2",
          "ticks": 36000,
          "time": 37.5,
          "velocity": 0.5039370078740157
        },
        {
          "duration": 0.07083333333333286,
          "durationTicks": 68,
          "midi": 36,
          "name": "C2",
          "ticks": 36000,
          "time": 37.5,
          "velocity": 0.5039370078740157
        },
        {
          "duration": 0.4375,
          "durationTicks": 420,
          "midi": 38,
          "name": "D2",
          "ticks": 36000,
          "time": 37.5,
          "velocity": 0.5039370078740157
        },
        {
          "duration": 0.03125,
          "durationTicks": 30,
          "midi": 42,
          "name": "F#2",
          "ticks": 36120,
          "time": 37.625,
          "velocity": 0.5039370078740157
        },
        {
          "duration": 0.0625,
          "durationTicks": 60,
          "midi": 36,
          "name": "C2",
          "ticks": 36240,
          "time": 37.75,
          "velocity": 0.5039370078740157
        },
        {
          "duration": 0.07083333333333286,
          "durationTicks": 68,
          "midi": 44,
          "name": "G#2",
          "ticks": 36240,
          "time": 37.75,
          "velocity": 0.5039370078740157
        },
        {
          "duration": 0.04479166666666856,
          "durationTicks": 43,
          "midi": 42,
          "name": "F#2",
          "ticks": 36360,
          "time": 37.875,
          "velocity": 0.5039370078740157
        },
        {
          "duration": 0.06041666666666856,
          "durationTicks": 58,
          "midi": 36,
          "name": "C2",
          "ticks": 36480,
          "time": 38,
          "velocity": 0.5039370078740157
        },
        {
          "duration": 0.04999999999999716,
          "durationTicks": 48,
          "midi": 42,
          "name": "F#2",
          "ticks": 36600,
          "time": 38.125,
          "velocity": 0.5039370078740157
        },
        {
          "duration": 0.046875,
          "durationTicks": 45,
          "midi": 44,
          "name": "G#2",
          "ticks": 36720,
          "time": 38.25,
          "velocity": 0.5039370078740157
        },
        {
          "duration": 0.03958333333333286,
          "durationTicks": 38,
          "midi": 42,
          "name": "F#2",
          "ticks": 36840,
          "time": 38.375,
          "velocity": 0.5039370078740157
        },
        {
          "duration": 0.03437499999999716,
          "durationTicks": 33,
          "midi": 42,
          "name": "F#2",
          "ticks": 36960,
          "time": 38.5,
          "velocity": 0.5039370078740157
        },
        {
          "duration": 0.4375,
          "durationTicks": 420,
          "midi": 38,
          "name": "D2",
          "ticks": 36960,
          "time": 38.5,
          "velocity": 0.5039370078740157
        },
        {
          "duration": 0.02916666666666856,
          "durationTicks": 28,
          "midi": 42,
          "name": "F#2",
          "ticks": 37080,
          "time": 38.625,
          "velocity": 0.5039370078740157
        },
        {
          "duration": 0.0416666666666643,
          "durationTicks": 40,
          "midi": 42,
          "name": "F#2",
          "ticks": 37200,
          "time": 38.75,
          "velocity": 0.5039370078740157
        },
        {
          "duration": 0.04999999999999716,
          "durationTicks": 48,
          "midi": 44,
          "name": "G#2",
          "ticks": 37320,
          "time": 38.875,
          "velocity": 0.5039370078740157
        },
        {
          "duration": 0.04479166666666856,
          "durationTicks": 43,
          "midi": 42,
          "name": "F#2",
          "ticks": 37440,
          "time": 39,
          "velocity": 0.5039370078740157
        },
        {
          "duration": 0.03958333333333286,
          "durationTicks": 38,
          "midi": 42,
          "name": "F#2",
          "ticks": 37560,
          "time": 39.125,
          "velocity": 0.5039370078740157
        },
        {
          "duration": 0.05520833333333286,
          "durationTicks": 53,
          "midi": 36,
          "name": "C2",
          "ticks": 37560,
          "time": 39.125,
          "velocity": 0.5039370078740157
        },
        {
          "duration": 0.0625,
          "durationTicks": 60,
          "midi": 39,
          "name": "D#2",
          "ticks": 37560,
          "time": 39.125,
          "velocity": 0.5039370078740157
        },
        {
          "duration": 0.0416666666666643,
          "durationTicks": 40,
          "midi": 42,
          "name": "F#2",
          "ticks": 37680,
          "time": 39.25,
          "velocity": 0.5039370078740157
        },
        {
          "duration": 0.06041666666666856,
          "durationTicks": 58,
          "midi": 36,
          "name": "C2",
          "ticks": 37680,
          "time": 39.25,
          "velocity": 0.5039370078740157
        },
        {
          "duration": 0.046875,
          "durationTicks": 45,
          "midi": 44,
          "name": "G#2",
          "ticks": 37800,
          "time": 39.375,
          "velocity": 0.5039370078740157
        },
        {
          "duration": 0.06041666666666856,
          "durationTicks": 58,
          "midi": 39,
          "name": "D#2",
          "ticks": 37800,
          "time": 39.375,
          "velocity": 0.5039370078740157
        },
        {
          "duration": 0.0416666666666643,
          "durationTicks": 40,
          "midi": 42,
          "name": "F#2",
          "ticks": 37920,
          "time": 39.5,
          "velocity": 0.5039370078740157
        },
        {
          "duration": 0.05520833333333286,
          "durationTicks": 53,
          "midi": 36,
          "name": "C2",
          "ticks": 37920,
          "time": 39.5,
          "velocity": 0.5039370078740157
        },
        {
          "duration": 0.4375,
          "durationTicks": 420,
          "midi": 38,
          "name": "D2",
          "ticks": 37920,
          "time": 39.5,
          "velocity": 0.5039370078740157
        },
        {
          "duration": 0.03125,
          "durationTicks": 30,
          "midi": 42,
          "name": "F#2",
          "ticks": 38040,
          "time": 39.625,
          "velocity": 0.5039370078740157
        },
        {
          "duration": 0.046875,
          "durationTicks": 45,
          "midi": 39,
          "name": "D#2",
          "ticks": 38040,
          "time": 39.625,
          "velocity": 0.5039370078740157
        },
        {
          "duration": 0.07083333333333286,
          "durationTicks": 68,
          "midi": 44,
          "name": "G#2",
          "ticks": 38160,
          "time": 39.75,
          "velocity": 0.5039370078740157
        },
        {
          "duration": 0.05520833333333286,
          "durationTicks": 53,
          "midi": 36,
          "name": "C2",
          "ticks": 38160,
          "time": 39.75,
          "velocity": 0.5039370078740157
        },
        {
          "duration": 0.046875,
          "durationTicks": 45,
          "midi": 39,
          "name": "D#2",
          "ticks": 38160,
          "time": 39.75,
          "velocity": 0.5039370078740157
        },
        {
          "duration": 0.04479166666666856,
          "durationTicks": 43,
          "midi": 42,
          "name": "F#2",
          "ticks": 38280,
          "time": 39.875,
          "velocity": 0.5039370078740157
        },
        {
          "duration": 0.04479166666666856,
          "durationTicks": 43,
          "midi": 39,
          "name": "D#2",
          "ticks": 38280,
          "time": 39.875,
          "velocity": 0.5039370078740157
        },
        {
          "duration": 0.11770833333333286,
          "durationTicks": 113,
          "midi": 36,
          "name": "C2",
          "ticks": 38400,
          "time": 40,
          "velocity": 0.5039370078740157
        },
        {
          "duration": 0.0416666666666643,
          "durationTicks": 40,
          "midi": 39,
          "name": "D#2",
          "ticks": 38400,
          "time": 40,
          "velocity": 0.5039370078740157
        },
        {
          "duration": 0.04999999999999716,
          "durationTicks": 48,
          "midi": 42,
          "name": "F#2",
          "ticks": 38520,
          "time": 40.125,
          "velocity": 0.5039370078740157
        },
        {
          "duration": 0.0364583333333357,
          "durationTicks": 35,
          "midi": 39,
          "name": "D#2",
          "ticks": 38520,
          "time": 40.125,
          "velocity": 0.5039370078740157
        },
        {
          "duration": 0.046875,
          "durationTicks": 45,
          "midi": 44,
          "name": "G#2",
          "ticks": 38640,
          "time": 40.25,
          "velocity": 0.5039370078740157
        },
        {
          "duration": 0.0833333333333357,
          "durationTicks": 80,
          "midi": 39,
          "name": "D#2",
          "ticks": 38640,
          "time": 40.25,
          "velocity": 0.5039370078740157
        },
        {
          "duration": 0.03958333333333286,
          "durationTicks": 38,
          "midi": 42,
          "name": "F#2",
          "ticks": 38760,
          "time": 40.375,
          "velocity": 0.5039370078740157
        },
        {
          "duration": 0.03437499999999716,
          "durationTicks": 33,
          "midi": 42,
          "name": "F#2",
          "ticks": 38880,
          "time": 40.5,
          "velocity": 0.5039370078740157
        },
        {
          "duration": 0.4375,
          "durationTicks": 420,
          "midi": 38,
          "name": "D2",
          "ticks": 38880,
          "time": 40.5,
          "velocity": 0.5039370078740157
        },
        {
          "duration": 0.02916666666666856,
          "durationTicks": 28,
          "midi": 42,
          "name": "F#2",
          "ticks": 39000,
          "time": 40.625,
          "velocity": 0.5039370078740157
        },
        {
          "duration": 0.0416666666666643,
          "durationTicks": 40,
          "midi": 42,
          "name": "F#2",
          "ticks": 39120,
          "time": 40.75,
          "velocity": 0.5039370078740157
        },
        {
          "duration": 0.04999999999999716,
          "durationTicks": 48,
          "midi": 44,
          "name": "G#2",
          "ticks": 39240,
          "time": 40.875,
          "velocity": 0.5039370078740157
        },
        {
          "duration": 0.04479166666666856,
          "durationTicks": 43,
          "midi": 42,
          "name": "F#2",
          "ticks": 39360,
          "time": 41,
          "velocity": 0.5039370078740157
        },
        {
          "duration": 0.03958333333333286,
          "durationTicks": 38,
          "midi": 42,
          "name": "F#2",
          "ticks": 39480,
          "time": 41.125,
          "velocity": 0.5039370078740157
        },
        {
          "duration": 0.0625,
          "durationTicks": 60,
          "midi": 36,
          "name": "C2",
          "ticks": 39480,
          "time": 41.125,
          "velocity": 0.5039370078740157
        },
        {
          "duration": 0.0416666666666643,
          "durationTicks": 40,
          "midi": 42,
          "name": "F#2",
          "ticks": 39600,
          "time": 41.25,
          "velocity": 0.5039370078740157
        },
        {
          "duration": 0.0677083333333357,
          "durationTicks": 65,
          "midi": 36,
          "name": "C2",
          "ticks": 39600,
          "time": 41.25,
          "velocity": 0.5039370078740157
        },
        {
          "duration": 0.046875,
          "durationTicks": 45,
          "midi": 44,
          "name": "G#2",
          "ticks": 39720,
          "time": 41.375,
          "velocity": 0.5039370078740157
        },
        {
          "duration": 0.0416666666666643,
          "durationTicks": 40,
          "midi": 42,
          "name": "F#2",
          "ticks": 39840,
          "time": 41.5,
          "velocity": 0.5039370078740157
        },
        {
          "duration": 0.4375,
          "durationTicks": 420,
          "midi": 38,
          "name": "D2",
          "ticks": 39840,
          "time": 41.5,
          "velocity": 0.5039370078740157
        },
        {
          "duration": 0.0625,
          "durationTicks": 60,
          "midi": 36,
          "name": "C2",
          "ticks": 39840,
          "time": 41.5,
          "velocity": 0.5039370078740157
        },
        {
          "duration": 0.03125,
          "durationTicks": 30,
          "midi": 42,
          "name": "F#2",
          "ticks": 39960,
          "time": 41.625,
          "velocity": 0.5039370078740157
        },
        {
          "duration": 0.07083333333333286,
          "durationTicks": 68,
          "midi": 44,
          "name": "G#2",
          "ticks": 40080,
          "time": 41.75,
          "velocity": 0.5039370078740157
        },
        {
          "duration": 0.0625,
          "durationTicks": 60,
          "midi": 36,
          "name": "C2",
          "ticks": 40080,
          "time": 41.75,
          "velocity": 0.5039370078740157
        },
        {
          "duration": 0.04479166666666856,
          "durationTicks": 43,
          "midi": 42,
          "name": "F#2",
          "ticks": 40200,
          "time": 41.875,
          "velocity": 0.5039370078740157
        },
        {
          "duration": 0.04999999999999716,
          "durationTicks": 48,
          "midi": 42,
          "name": "F#2",
          "ticks": 40440,
          "time": 42.125,
          "velocity": 0.5039370078740157
        },
        {
          "duration": 0.046875,
          "durationTicks": 45,
          "midi": 44,
          "name": "G#2",
          "ticks": 40560,
          "time": 42.25,
          "velocity": 0.5039370078740157
        },
        {
          "duration": 0.03958333333333286,
          "durationTicks": 38,
          "midi": 42,
          "name": "F#2",
          "ticks": 40680,
          "time": 42.375,
          "velocity": 0.5039370078740157
        },
        {
          "duration": 0.03437499999999716,
          "durationTicks": 33,
          "midi": 42,
          "name": "F#2",
          "ticks": 40800,
          "time": 42.5,
          "velocity": 0.5039370078740157
        },
        {
          "duration": 0.4375,
          "durationTicks": 420,
          "midi": 38,
          "name": "D2",
          "ticks": 40800,
          "time": 42.5,
          "velocity": 0.5039370078740157
        },
        {
          "duration": 0.02916666666666856,
          "durationTicks": 28,
          "midi": 42,
          "name": "F#2",
          "ticks": 40920,
          "time": 42.625,
          "velocity": 0.5039370078740157
        },
        {
          "duration": 0.0416666666666643,
          "durationTicks": 40,
          "midi": 42,
          "name": "F#2",
          "ticks": 41040,
          "time": 42.75,
          "velocity": 0.5039370078740157
        },
        {
          "duration": 0.04999999999999716,
          "durationTicks": 48,
          "midi": 44,
          "name": "G#2",
          "ticks": 41160,
          "time": 42.875,
          "velocity": 0.5039370078740157
        },
        {
          "duration": 0.04479166666666856,
          "durationTicks": 43,
          "midi": 42,
          "name": "F#2",
          "ticks": 41280,
          "time": 43,
          "velocity": 0.5039370078740157
        },
        {
          "duration": 0.03958333333333286,
          "durationTicks": 38,
          "midi": 42,
          "name": "F#2",
          "ticks": 41400,
          "time": 43.125,
          "velocity": 0.5039370078740157
        },
        {
          "duration": 0.0625,
          "durationTicks": 60,
          "midi": 36,
          "name": "C2",
          "ticks": 41400,
          "time": 43.125,
          "velocity": 0.5039370078740157
        },
        {
          "duration": 0.0416666666666643,
          "durationTicks": 40,
          "midi": 42,
          "name": "F#2",
          "ticks": 41520,
          "time": 43.25,
          "velocity": 0.5039370078740157
        },
        {
          "duration": 0.06562499999999716,
          "durationTicks": 63,
          "midi": 36,
          "name": "C2",
          "ticks": 41520,
          "time": 43.25,
          "velocity": 0.5039370078740157
        },
        {
          "duration": 0.046875,
          "durationTicks": 45,
          "midi": 44,
          "name": "G#2",
          "ticks": 41640,
          "time": 43.375,
          "velocity": 0.5039370078740157
        },
        {
          "duration": 0.0416666666666643,
          "durationTicks": 40,
          "midi": 42,
          "name": "F#2",
          "ticks": 41760,
          "time": 43.5,
          "velocity": 0.5039370078740157
        },
        {
          "duration": 0.4375,
          "durationTicks": 420,
          "midi": 38,
          "name": "D2",
          "ticks": 41760,
          "time": 43.5,
          "velocity": 0.5039370078740157
        },
        {
          "duration": 0.03125,
          "durationTicks": 30,
          "midi": 42,
          "name": "F#2",
          "ticks": 41880,
          "time": 43.625,
          "velocity": 0.5039370078740157
        },
        {
          "duration": 0.07083333333333286,
          "durationTicks": 68,
          "midi": 44,
          "name": "G#2",
          "ticks": 42000,
          "time": 43.75,
          "velocity": 0.5039370078740157
        },
        {
          "duration": 0.04479166666666856,
          "durationTicks": 43,
          "midi": 42,
          "name": "F#2",
          "ticks": 42120,
          "time": 43.875,
          "velocity": 0.5039370078740157
        },
        {
          "duration": 0.07604166666666856,
          "durationTicks": 73,
          "midi": 36,
          "name": "C2",
          "ticks": 42240,
          "time": 44,
          "velocity": 0.5039370078740157
        },
        {
          "duration": 0.04999999999999716,
          "durationTicks": 48,
          "midi": 42,
          "name": "F#2",
          "ticks": 42360,
          "time": 44.125,
          "velocity": 0.5039370078740157
        },
        {
          "duration": 0.046875,
          "durationTicks": 45,
          "midi": 44,
          "name": "G#2",
          "ticks": 42480,
          "time": 44.25,
          "velocity": 0.5039370078740157
        },
        {
          "duration": 0.03958333333333286,
          "durationTicks": 38,
          "midi": 42,
          "name": "F#2",
          "ticks": 42600,
          "time": 44.375,
          "velocity": 0.5039370078740157
        },
        {
          "duration": 0.03437499999999716,
          "durationTicks": 33,
          "midi": 42,
          "name": "F#2",
          "ticks": 42720,
          "time": 44.5,
          "velocity": 0.5039370078740157
        },
        {
          "duration": 0.4375,
          "durationTicks": 420,
          "midi": 38,
          "name": "D2",
          "ticks": 42720,
          "time": 44.5,
          "velocity": 0.5039370078740157
        },
        {
          "duration": 0.02916666666666856,
          "durationTicks": 28,
          "midi": 42,
          "name": "F#2",
          "ticks": 42840,
          "time": 44.625,
          "velocity": 0.5039370078740157
        },
        {
          "duration": 0.0416666666666643,
          "durationTicks": 40,
          "midi": 42,
          "name": "F#2",
          "ticks": 42960,
          "time": 44.75,
          "velocity": 0.5039370078740157
        },
        {
          "duration": 0.04999999999999716,
          "durationTicks": 48,
          "midi": 44,
          "name": "G#2",
          "ticks": 43080,
          "time": 44.875,
          "velocity": 0.5039370078740157
        },
        {
          "duration": 0.0729166666666643,
          "durationTicks": 70,
          "midi": 36,
          "name": "C2",
          "ticks": 43080,
          "time": 44.875,
          "velocity": 0.5039370078740157
        },
        {
          "duration": 0.04479166666666856,
          "durationTicks": 43,
          "midi": 42,
          "name": "F#2",
          "ticks": 43200,
          "time": 45,
          "velocity": 0.5039370078740157
        },
        {
          "duration": 0.03958333333333286,
          "durationTicks": 38,
          "midi": 42,
          "name": "F#2",
          "ticks": 43320,
          "time": 45.125,
          "velocity": 0.5039370078740157
        },
        {
          "duration": 0.05520833333333286,
          "durationTicks": 53,
          "midi": 36,
          "name": "C2",
          "ticks": 43320,
          "time": 45.125,
          "velocity": 0.5039370078740157
        },
        {
          "duration": 0.0416666666666643,
          "durationTicks": 40,
          "midi": 42,
          "name": "F#2",
          "ticks": 43440,
          "time": 45.25,
          "velocity": 0.5039370078740157
        },
        {
          "duration": 0.0729166666666643,
          "durationTicks": 70,
          "midi": 36,
          "name": "C2",
          "ticks": 43440,
          "time": 45.25,
          "velocity": 0.5039370078740157
        },
        {
          "duration": 0.046875,
          "durationTicks": 45,
          "midi": 44,
          "name": "G#2",
          "ticks": 43560,
          "time": 45.375,
          "velocity": 0.5039370078740157
        },
        {
          "duration": 0.0416666666666643,
          "durationTicks": 40,
          "midi": 42,
          "name": "F#2",
          "ticks": 43680,
          "time": 45.5,
          "velocity": 0.5039370078740157
        },
        {
          "duration": 0.07083333333333286,
          "durationTicks": 68,
          "midi": 36,
          "name": "C2",
          "ticks": 43680,
          "time": 45.5,
          "velocity": 0.5039370078740157
        },
        {
          "duration": 0.4375,
          "durationTicks": 420,
          "midi": 38,
          "name": "D2",
          "ticks": 43680,
          "time": 45.5,
          "velocity": 0.5039370078740157
        },
        {
          "duration": 0.03125,
          "durationTicks": 30,
          "midi": 42,
          "name": "F#2",
          "ticks": 43800,
          "time": 45.625,
          "velocity": 0.5039370078740157
        },
        {
          "duration": 0.0625,
          "durationTicks": 60,
          "midi": 36,
          "name": "C2",
          "ticks": 43920,
          "time": 45.75,
          "velocity": 0.5039370078740157
        },
        {
          "duration": 0.07083333333333286,
          "durationTicks": 68,
          "midi": 44,
          "name": "G#2",
          "ticks": 43920,
          "time": 45.75,
          "velocity": 0.5039370078740157
        },
        {
          "duration": 0.04479166666666856,
          "durationTicks": 43,
          "midi": 42,
          "name": "F#2",
          "ticks": 44040,
          "time": 45.875,
          "velocity": 0.5039370078740157
        },
        {
          "duration": 0.06041666666666856,
          "durationTicks": 58,
          "midi": 36,
          "name": "C2",
          "ticks": 44160,
          "time": 46,
          "velocity": 0.5039370078740157
        },
        {
          "duration": 0.04999999999999716,
          "durationTicks": 48,
          "midi": 42,
          "name": "F#2",
          "ticks": 44280,
          "time": 46.125,
          "velocity": 0.5039370078740157
        },
        {
          "duration": 0.046875,
          "durationTicks": 45,
          "midi": 44,
          "name": "G#2",
          "ticks": 44400,
          "time": 46.25,
          "velocity": 0.5039370078740157
        },
        {
          "duration": 0.03958333333333286,
          "durationTicks": 38,
          "midi": 42,
          "name": "F#2",
          "ticks": 44520,
          "time": 46.375,
          "velocity": 0.5039370078740157
        },
        {
          "duration": 0.03437499999999716,
          "durationTicks": 33,
          "midi": 42,
          "name": "F#2",
          "ticks": 44640,
          "time": 46.5,
          "velocity": 0.5039370078740157
        },
        {
          "duration": 0.4375,
          "durationTicks": 420,
          "midi": 38,
          "name": "D2",
          "ticks": 44640,
          "time": 46.5,
          "velocity": 0.5039370078740157
        },
        {
          "duration": 0.02916666666666856,
          "durationTicks": 28,
          "midi": 42,
          "name": "F#2",
          "ticks": 44760,
          "time": 46.625,
          "velocity": 0.5039370078740157
        },
        {
          "duration": 0.0416666666666643,
          "durationTicks": 40,
          "midi": 42,
          "name": "F#2",
          "ticks": 44880,
          "time": 46.75,
          "velocity": 0.5039370078740157
        },
        {
          "duration": 0.04999999999999716,
          "durationTicks": 48,
          "midi": 44,
          "name": "G#2",
          "ticks": 45000,
          "time": 46.875,
          "velocity": 0.5039370078740157
        },
        {
          "duration": 0.04479166666666856,
          "durationTicks": 43,
          "midi": 42,
          "name": "F#2",
          "ticks": 45120,
          "time": 47,
          "velocity": 0.5039370078740157
        },
        {
          "duration": 0.03958333333333286,
          "durationTicks": 38,
          "midi": 42,
          "name": "F#2",
          "ticks": 45240,
          "time": 47.125,
          "velocity": 0.5039370078740157
        },
        {
          "duration": 0.05520833333333286,
          "durationTicks": 53,
          "midi": 36,
          "name": "C2",
          "ticks": 45240,
          "time": 47.125,
          "velocity": 0.5039370078740157
        },
        {
          "duration": 0.0625,
          "durationTicks": 60,
          "midi": 39,
          "name": "D#2",
          "ticks": 45240,
          "time": 47.125,
          "velocity": 0.5039370078740157
        },
        {
          "duration": 0.0416666666666643,
          "durationTicks": 40,
          "midi": 42,
          "name": "F#2",
          "ticks": 45360,
          "time": 47.25,
          "velocity": 0.5039370078740157
        },
        {
          "duration": 0.06041666666666856,
          "durationTicks": 58,
          "midi": 36,
          "name": "C2",
          "ticks": 45360,
          "time": 47.25,
          "velocity": 0.5039370078740157
        },
        {
          "duration": 0.046875,
          "durationTicks": 45,
          "midi": 44,
          "name": "G#2",
          "ticks": 45480,
          "time": 47.375,
          "velocity": 0.5039370078740157
        },
        {
          "duration": 0.06041666666666856,
          "durationTicks": 58,
          "midi": 39,
          "name": "D#2",
          "ticks": 45480,
          "time": 47.375,
          "velocity": 0.5039370078740157
        },
        {
          "duration": 0.0416666666666643,
          "durationTicks": 40,
          "midi": 42,
          "name": "F#2",
          "ticks": 45600,
          "time": 47.5,
          "velocity": 0.5039370078740157
        },
        {
          "duration": 0.05520833333333286,
          "durationTicks": 53,
          "midi": 36,
          "name": "C2",
          "ticks": 45600,
          "time": 47.5,
          "velocity": 0.5039370078740157
        },
        {
          "duration": 0.4375,
          "durationTicks": 420,
          "midi": 38,
          "name": "D2",
          "ticks": 45600,
          "time": 47.5,
          "velocity": 0.5039370078740157
        },
        {
          "duration": 0.03125,
          "durationTicks": 30,
          "midi": 42,
          "name": "F#2",
          "ticks": 45720,
          "time": 47.625,
          "velocity": 0.5039370078740157
        },
        {
          "duration": 0.046875,
          "durationTicks": 45,
          "midi": 39,
          "name": "D#2",
          "ticks": 45720,
          "time": 47.625,
          "velocity": 0.5039370078740157
        },
        {
          "duration": 0.07083333333333286,
          "durationTicks": 68,
          "midi": 44,
          "name": "G#2",
          "ticks": 45840,
          "time": 47.75,
          "velocity": 0.5039370078740157
        },
        {
          "duration": 0.05520833333333286,
          "durationTicks": 53,
          "midi": 36,
          "name": "C2",
          "ticks": 45840,
          "time": 47.75,
          "velocity": 0.5039370078740157
        },
        {
          "duration": 0.046875,
          "durationTicks": 45,
          "midi": 39,
          "name": "D#2",
          "ticks": 45840,
          "time": 47.75,
          "velocity": 0.5039370078740157
        },
        {
          "duration": 0.04479166666666856,
          "durationTicks": 43,
          "midi": 42,
          "name": "F#2",
          "ticks": 45960,
          "time": 47.875,
          "velocity": 0.5039370078740157
        },
        {
          "duration": 0.04479166666666856,
          "durationTicks": 43,
          "midi": 39,
          "name": "D#2",
          "ticks": 45960,
          "time": 47.875,
          "velocity": 0.5039370078740157
        },
        {
          "duration": 0.11770833333333286,
          "durationTicks": 113,
          "midi": 36,
          "name": "C2",
          "ticks": 46080,
          "time": 48,
          "velocity": 0.5039370078740157
        },
        {
          "duration": 0.0416666666666643,
          "durationTicks": 40,
          "midi": 39,
          "name": "D#2",
          "ticks": 46080,
          "time": 48,
          "velocity": 0.5039370078740157
        },
        {
          "duration": 0.04999999999999716,
          "durationTicks": 48,
          "midi": 42,
          "name": "F#2",
          "ticks": 46200,
          "time": 48.125,
          "velocity": 0.5039370078740157
        },
        {
          "duration": 0.0364583333333357,
          "durationTicks": 35,
          "midi": 39,
          "name": "D#2",
          "ticks": 46200,
          "time": 48.125,
          "velocity": 0.5039370078740157
        },
        {
          "duration": 0.046875,
          "durationTicks": 45,
          "midi": 44,
          "name": "G#2",
          "ticks": 46320,
          "time": 48.25,
          "velocity": 0.5039370078740157
        },
        {
          "duration": 0.0833333333333357,
          "durationTicks": 80,
          "midi": 39,
          "name": "D#2",
          "ticks": 46320,
          "time": 48.25,
          "velocity": 0.5039370078740157
        },
        {
          "duration": 0.03958333333333286,
          "durationTicks": 38,
          "midi": 42,
          "name": "F#2",
          "ticks": 46440,
          "time": 48.375,
          "velocity": 0.5039370078740157
        },
        {
          "duration": 0.03437499999999716,
          "durationTicks": 33,
          "midi": 42,
          "name": "F#2",
          "ticks": 46560,
          "time": 48.5,
          "velocity": 0.5039370078740157
        },
        {
          "duration": 0.4375,
          "durationTicks": 420,
          "midi": 38,
          "name": "D2",
          "ticks": 46560,
          "time": 48.5,
          "velocity": 0.5039370078740157
        },
        {
          "duration": 0.02916666666666856,
          "durationTicks": 28,
          "midi": 42,
          "name": "F#2",
          "ticks": 46680,
          "time": 48.625,
          "velocity": 0.5039370078740157
        },
        {
          "duration": 0.0416666666666643,
          "durationTicks": 40,
          "midi": 42,
          "name": "F#2",
          "ticks": 46800,
          "time": 48.75,
          "velocity": 0.5039370078740157
        },
        {
          "duration": 0.04999999999999716,
          "durationTicks": 48,
          "midi": 44,
          "name": "G#2",
          "ticks": 46920,
          "time": 48.875,
          "velocity": 0.5039370078740157
        },
        {
          "duration": 0.04479166666666856,
          "durationTicks": 43,
          "midi": 42,
          "name": "F#2",
          "ticks": 47040,
          "time": 49,
          "velocity": 0.5039370078740157
        },
        {
          "duration": 0.03958333333333286,
          "durationTicks": 38,
          "midi": 42,
          "name": "F#2",
          "ticks": 47160,
          "time": 49.125,
          "velocity": 0.5039370078740157
        },
        {
          "duration": 0.0625,
          "durationTicks": 60,
          "midi": 36,
          "name": "C2",
          "ticks": 47160,
          "time": 49.125,
          "velocity": 0.5039370078740157
        },
        {
          "duration": 0.0416666666666643,
          "durationTicks": 40,
          "midi": 42,
          "name": "F#2",
          "ticks": 47280,
          "time": 49.25,
          "velocity": 0.5039370078740157
        },
        {
          "duration": 0.0677083333333357,
          "durationTicks": 65,
          "midi": 36,
          "name": "C2",
          "ticks": 47280,
          "time": 49.25,
          "velocity": 0.5039370078740157
        },
        {
          "duration": 0.046875,
          "durationTicks": 45,
          "midi": 44,
          "name": "G#2",
          "ticks": 47400,
          "time": 49.375,
          "velocity": 0.5039370078740157
        },
        {
          "duration": 0.0416666666666643,
          "durationTicks": 40,
          "midi": 42,
          "name": "F#2",
          "ticks": 47520,
          "time": 49.5,
          "velocity": 0.5039370078740157
        },
        {
          "duration": 0.4375,
          "durationTicks": 420,
          "midi": 38,
          "name": "D2",
          "ticks": 47520,
          "time": 49.5,
          "velocity": 0.5039370078740157
        },
        {
          "duration": 0.0625,
          "durationTicks": 60,
          "midi": 36,
          "name": "C2",
          "ticks": 47520,
          "time": 49.5,
          "velocity": 0.5039370078740157
        },
        {
          "duration": 0.03125,
          "durationTicks": 30,
          "midi": 42,
          "name": "F#2",
          "ticks": 47640,
          "time": 49.625,
          "velocity": 0.5039370078740157
        },
        {
          "duration": 0.07083333333333286,
          "durationTicks": 68,
          "midi": 44,
          "name": "G#2",
          "ticks": 47760,
          "time": 49.75,
          "velocity": 0.5039370078740157
        },
        {
          "duration": 0.0625,
          "durationTicks": 60,
          "midi": 36,
          "name": "C2",
          "ticks": 47760,
          "time": 49.75,
          "velocity": 0.5039370078740157
        },
        {
          "duration": 0.04479166666666856,
          "durationTicks": 43,
          "midi": 42,
          "name": "F#2",
          "ticks": 47880,
          "time": 49.875,
          "velocity": 0.5039370078740157
        },
        {
          "duration": 0.04999999999999716,
          "durationTicks": 48,
          "midi": 42,
          "name": "F#2",
          "ticks": 48120,
          "time": 50.125,
          "velocity": 0.5039370078740157
        },
        {
          "duration": 0.046875,
          "durationTicks": 45,
          "midi": 44,
          "name": "G#2",
          "ticks": 48240,
          "time": 50.25,
          "velocity": 0.5039370078740157
        },
        {
          "duration": 0.03958333333333286,
          "durationTicks": 38,
          "midi": 42,
          "name": "F#2",
          "ticks": 48360,
          "time": 50.375,
          "velocity": 0.5039370078740157
        },
        {
          "duration": 0.03437499999999716,
          "durationTicks": 33,
          "midi": 42,
          "name": "F#2",
          "ticks": 48480,
          "time": 50.5,
          "velocity": 0.5039370078740157
        },
        {
          "duration": 0.4375,
          "durationTicks": 420,
          "midi": 38,
          "name": "D2",
          "ticks": 48480,
          "time": 50.5,
          "velocity": 0.5039370078740157
        },
        {
          "duration": 0.02916666666666856,
          "durationTicks": 28,
          "midi": 42,
          "name": "F#2",
          "ticks": 48600,
          "time": 50.625,
          "velocity": 0.5039370078740157
        },
        {
          "duration": 0.0416666666666643,
          "durationTicks": 40,
          "midi": 42,
          "name": "F#2",
          "ticks": 48720,
          "time": 50.75,
          "velocity": 0.5039370078740157
        },
        {
          "duration": 0.04999999999999716,
          "durationTicks": 48,
          "midi": 44,
          "name": "G#2",
          "ticks": 48840,
          "time": 50.875,
          "velocity": 0.5039370078740157
        },
        {
          "duration": 0.04479166666666856,
          "durationTicks": 43,
          "midi": 42,
          "name": "F#2",
          "ticks": 48960,
          "time": 51,
          "velocity": 0.5039370078740157
        },
        {
          "duration": 0.03958333333333286,
          "durationTicks": 38,
          "midi": 42,
          "name": "F#2",
          "ticks": 49080,
          "time": 51.125,
          "velocity": 0.5039370078740157
        },
        {
          "duration": 0.0625,
          "durationTicks": 60,
          "midi": 36,
          "name": "C2",
          "ticks": 49080,
          "time": 51.125,
          "velocity": 0.5039370078740157
        },
        {
          "duration": 0.0416666666666643,
          "durationTicks": 40,
          "midi": 42,
          "name": "F#2",
          "ticks": 49200,
          "time": 51.25,
          "velocity": 0.5039370078740157
        },
        {
          "duration": 0.06562499999999716,
          "durationTicks": 63,
          "midi": 36,
          "name": "C2",
          "ticks": 49200,
          "time": 51.25,
          "velocity": 0.5039370078740157
        },
        {
          "duration": 0.046875,
          "durationTicks": 45,
          "midi": 44,
          "name": "G#2",
          "ticks": 49320,
          "time": 51.375,
          "velocity": 0.5039370078740157
        },
        {
          "duration": 0.0416666666666643,
          "durationTicks": 40,
          "midi": 42,
          "name": "F#2",
          "ticks": 49440,
          "time": 51.5,
          "velocity": 0.5039370078740157
        },
        {
          "duration": 0.4375,
          "durationTicks": 420,
          "midi": 38,
          "name": "D2",
          "ticks": 49440,
          "time": 51.5,
          "velocity": 0.5039370078740157
        },
        {
          "duration": 0.03125,
          "durationTicks": 30,
          "midi": 42,
          "name": "F#2",
          "ticks": 49560,
          "time": 51.625,
          "velocity": 0.5039370078740157
        },
        {
          "duration": 0.07083333333333286,
          "durationTicks": 68,
          "midi": 44,
          "name": "G#2",
          "ticks": 49680,
          "time": 51.75,
          "velocity": 0.5039370078740157
        },
        {
          "duration": 0.04479166666666856,
          "durationTicks": 43,
          "midi": 42,
          "name": "F#2",
          "ticks": 49800,
          "time": 51.875,
          "velocity": 0.5039370078740157
        },
        {
          "duration": 0.07604166666666856,
          "durationTicks": 73,
          "midi": 36,
          "name": "C2",
          "ticks": 49920,
          "time": 52,
          "velocity": 0.5039370078740157
        },
        {
          "duration": 0.04999999999999716,
          "durationTicks": 48,
          "midi": 42,
          "name": "F#2",
          "ticks": 50040,
          "time": 52.125,
          "velocity": 0.5039370078740157
        },
        {
          "duration": 0.046875,
          "durationTicks": 45,
          "midi": 44,
          "name": "G#2",
          "ticks": 50160,
          "time": 52.25,
          "velocity": 0.5039370078740157
        },
        {
          "duration": 0.03958333333333286,
          "durationTicks": 38,
          "midi": 42,
          "name": "F#2",
          "ticks": 50280,
          "time": 52.375,
          "velocity": 0.5039370078740157
        },
        {
          "duration": 0.03437499999999716,
          "durationTicks": 33,
          "midi": 42,
          "name": "F#2",
          "ticks": 50400,
          "time": 52.5,
          "velocity": 0.5039370078740157
        },
        {
          "duration": 0.4375,
          "durationTicks": 420,
          "midi": 38,
          "name": "D2",
          "ticks": 50400,
          "time": 52.5,
          "velocity": 0.5039370078740157
        },
        {
          "duration": 0.02916666666666856,
          "durationTicks": 28,
          "midi": 42,
          "name": "F#2",
          "ticks": 50520,
          "time": 52.625,
          "velocity": 0.5039370078740157
        },
        {
          "duration": 0.0416666666666643,
          "durationTicks": 40,
          "midi": 42,
          "name": "F#2",
          "ticks": 50640,
          "time": 52.75,
          "velocity": 0.5039370078740157
        },
        {
          "duration": 0.04999999999999716,
          "durationTicks": 48,
          "midi": 44,
          "name": "G#2",
          "ticks": 50760,
          "time": 52.875,
          "velocity": 0.5039370078740157
        },
        {
          "duration": 0.0729166666666643,
          "durationTicks": 70,
          "midi": 36,
          "name": "C2",
          "ticks": 50760,
          "time": 52.875,
          "velocity": 0.5039370078740157
        },
        {
          "duration": 0.04479166666666856,
          "durationTicks": 43,
          "midi": 42,
          "name": "F#2",
          "ticks": 50880,
          "time": 53,
          "velocity": 0.5039370078740157
        },
        {
          "duration": 0.03958333333333286,
          "durationTicks": 38,
          "midi": 42,
          "name": "F#2",
          "ticks": 51000,
          "time": 53.125,
          "velocity": 0.5039370078740157
        },
        {
          "duration": 0.05520833333333286,
          "durationTicks": 53,
          "midi": 36,
          "name": "C2",
          "ticks": 51000,
          "time": 53.125,
          "velocity": 0.5039370078740157
        },
        {
          "duration": 0.0416666666666643,
          "durationTicks": 40,
          "midi": 42,
          "name": "F#2",
          "ticks": 51120,
          "time": 53.25,
          "velocity": 0.5039370078740157
        },
        {
          "duration": 0.0729166666666643,
          "durationTicks": 70,
          "midi": 36,
          "name": "C2",
          "ticks": 51120,
          "time": 53.25,
          "velocity": 0.5039370078740157
        },
        {
          "duration": 0.046875,
          "durationTicks": 45,
          "midi": 44,
          "name": "G#2",
          "ticks": 51240,
          "time": 53.375,
          "velocity": 0.5039370078740157
        },
        {
          "duration": 0.0416666666666643,
          "durationTicks": 40,
          "midi": 42,
          "name": "F#2",
          "ticks": 51360,
          "time": 53.5,
          "velocity": 0.5039370078740157
        },
        {
          "duration": 0.07083333333333286,
          "durationTicks": 68,
          "midi": 36,
          "name": "C2",
          "ticks": 51360,
          "time": 53.5,
          "velocity": 0.5039370078740157
        },
        {
          "duration": 0.4375,
          "durationTicks": 420,
          "midi": 38,
          "name": "D2",
          "ticks": 51360,
          "time": 53.5,
          "velocity": 0.5039370078740157
        },
        {
          "duration": 0.03125,
          "durationTicks": 30,
          "midi": 42,
          "name": "F#2",
          "ticks": 51480,
          "time": 53.625,
          "velocity": 0.5039370078740157
        },
        {
          "duration": 0.0625,
          "durationTicks": 60,
          "midi": 36,
          "name": "C2",
          "ticks": 51600,
          "time": 53.75,
          "velocity": 0.5039370078740157
        },
        {
          "duration": 0.07083333333333286,
          "durationTicks": 68,
          "midi": 44,
          "name": "G#2",
          "ticks": 51600,
          "time": 53.75,
          "velocity": 0.5039370078740157
        },
        {
          "duration": 0.04479166666666856,
          "durationTicks": 43,
          "midi": 42,
          "name": "F#2",
          "ticks": 51720,
          "time": 53.875,
          "velocity": 0.5039370078740157
        },
        {
          "duration": 0.06041666666666856,
          "durationTicks": 58,
          "midi": 36,
          "name": "C2",
          "ticks": 51840,
          "time": 54,
          "velocity": 0.5039370078740157
        },
        {
          "duration": 0.04999999999999716,
          "durationTicks": 48,
          "midi": 42,
          "name": "F#2",
          "ticks": 51960,
          "time": 54.125,
          "velocity": 0.5039370078740157
        },
        {
          "duration": 0.046875,
          "durationTicks": 45,
          "midi": 44,
          "name": "G#2",
          "ticks": 52080,
          "time": 54.25,
          "velocity": 0.5039370078740157
        },
        {
          "duration": 0.03958333333333286,
          "durationTicks": 38,
          "midi": 42,
          "name": "F#2",
          "ticks": 52200,
          "time": 54.375,
          "velocity": 0.5039370078740157
        },
        {
          "duration": 0.03437499999999716,
          "durationTicks": 33,
          "midi": 42,
          "name": "F#2",
          "ticks": 52320,
          "time": 54.5,
          "velocity": 0.5039370078740157
        },
        {
          "duration": 0.4375,
          "durationTicks": 420,
          "midi": 38,
          "name": "D2",
          "ticks": 52320,
          "time": 54.5,
          "velocity": 0.5039370078740157
        },
        {
          "duration": 0.02916666666666856,
          "durationTicks": 28,
          "midi": 42,
          "name": "F#2",
          "ticks": 52440,
          "time": 54.625,
          "velocity": 0.5039370078740157
        },
        {
          "duration": 0.0416666666666643,
          "durationTicks": 40,
          "midi": 42,
          "name": "F#2",
          "ticks": 52560,
          "time": 54.75,
          "velocity": 0.5039370078740157
        },
        {
          "duration": 0.04999999999999716,
          "durationTicks": 48,
          "midi": 44,
          "name": "G#2",
          "ticks": 52680,
          "time": 54.875,
          "velocity": 0.5039370078740157
        },
        {
          "duration": 0.04479166666666856,
          "durationTicks": 43,
          "midi": 42,
          "name": "F#2",
          "ticks": 52800,
          "time": 55,
          "velocity": 0.5039370078740157
        },
        {
          "duration": 0.03958333333333286,
          "durationTicks": 38,
          "midi": 42,
          "name": "F#2",
          "ticks": 52920,
          "time": 55.125,
          "velocity": 0.5039370078740157
        },
        {
          "duration": 0.05520833333333286,
          "durationTicks": 53,
          "midi": 36,
          "name": "C2",
          "ticks": 52920,
          "time": 55.125,
          "velocity": 0.5039370078740157
        },
        {
          "duration": 0.0625,
          "durationTicks": 60,
          "midi": 39,
          "name": "D#2",
          "ticks": 52920,
          "time": 55.125,
          "velocity": 0.5039370078740157
        },
        {
          "duration": 0.0416666666666643,
          "durationTicks": 40,
          "midi": 42,
          "name": "F#2",
          "ticks": 53040,
          "time": 55.25,
          "velocity": 0.5039370078740157
        },
        {
          "duration": 0.06041666666666856,
          "durationTicks": 58,
          "midi": 36,
          "name": "C2",
          "ticks": 53040,
          "time": 55.25,
          "velocity": 0.5039370078740157
        },
        {
          "duration": 0.046875,
          "durationTicks": 45,
          "midi": 44,
          "name": "G#2",
          "ticks": 53160,
          "time": 55.375,
          "velocity": 0.5039370078740157
        },
        {
          "duration": 0.06041666666666856,
          "durationTicks": 58,
          "midi": 39,
          "name": "D#2",
          "ticks": 53160,
          "time": 55.375,
          "velocity": 0.5039370078740157
        },
        {
          "duration": 0.0416666666666643,
          "durationTicks": 40,
          "midi": 42,
          "name": "F#2",
          "ticks": 53280,
          "time": 55.5,
          "velocity": 0.5039370078740157
        },
        {
          "duration": 0.05520833333333286,
          "durationTicks": 53,
          "midi": 36,
          "name": "C2",
          "ticks": 53280,
          "time": 55.5,
          "velocity": 0.5039370078740157
        },
        {
          "duration": 0.4375,
          "durationTicks": 420,
          "midi": 38,
          "name": "D2",
          "ticks": 53280,
          "time": 55.5,
          "velocity": 0.5039370078740157
        },
        {
          "duration": 0.03125,
          "durationTicks": 30,
          "midi": 42,
          "name": "F#2",
          "ticks": 53400,
          "time": 55.625,
          "velocity": 0.5039370078740157
        },
        {
          "duration": 0.046875,
          "durationTicks": 45,
          "midi": 39,
          "name": "D#2",
          "ticks": 53400,
          "time": 55.625,
          "velocity": 0.5039370078740157
        },
        {
          "duration": 0.07083333333333286,
          "durationTicks": 68,
          "midi": 44,
          "name": "G#2",
          "ticks": 53520,
          "time": 55.75,
          "velocity": 0.5039370078740157
        },
        {
          "duration": 0.05520833333333286,
          "durationTicks": 53,
          "midi": 36,
          "name": "C2",
          "ticks": 53520,
          "time": 55.75,
          "velocity": 0.5039370078740157
        },
        {
          "duration": 0.046875,
          "durationTicks": 45,
          "midi": 39,
          "name": "D#2",
          "ticks": 53520,
          "time": 55.75,
          "velocity": 0.5039370078740157
        },
        {
          "duration": 0.04479166666666856,
          "durationTicks": 43,
          "midi": 42,
          "name": "F#2",
          "ticks": 53640,
          "time": 55.875,
          "velocity": 0.5039370078740157
        },
        {
          "duration": 0.04479166666666856,
          "durationTicks": 43,
          "midi": 39,
          "name": "D#2",
          "ticks": 53640,
          "time": 55.875,
          "velocity": 0.5039370078740157
        },
        {
          "duration": 0.11770833333333286,
          "durationTicks": 113,
          "midi": 36,
          "name": "C2",
          "ticks": 53760,
          "time": 56,
          "velocity": 0.5039370078740157
        },
        {
          "duration": 0.0416666666666643,
          "durationTicks": 40,
          "midi": 39,
          "name": "D#2",
          "ticks": 53760,
          "time": 56,
          "velocity": 0.5039370078740157
        },
        {
          "duration": 0.04999999999999716,
          "durationTicks": 48,
          "midi": 42,
          "name": "F#2",
          "ticks": 53880,
          "time": 56.125,
          "velocity": 0.5039370078740157
        },
        {
          "duration": 0.0364583333333357,
          "durationTicks": 35,
          "midi": 39,
          "name": "D#2",
          "ticks": 53880,
          "time": 56.125,
          "velocity": 0.5039370078740157
        },
        {
          "duration": 0.046875,
          "durationTicks": 45,
          "midi": 44,
          "name": "G#2",
          "ticks": 54000,
          "time": 56.25,
          "velocity": 0.5039370078740157
        },
        {
          "duration": 0.0833333333333357,
          "durationTicks": 80,
          "midi": 39,
          "name": "D#2",
          "ticks": 54000,
          "time": 56.25,
          "velocity": 0.5039370078740157
        },
        {
          "duration": 0.03958333333333286,
          "durationTicks": 38,
          "midi": 42,
          "name": "F#2",
          "ticks": 54120,
          "time": 56.375,
          "velocity": 0.5039370078740157
        },
        {
          "duration": 0.03437499999999716,
          "durationTicks": 33,
          "midi": 42,
          "name": "F#2",
          "ticks": 54240,
          "time": 56.5,
          "velocity": 0.5039370078740157
        },
        {
          "duration": 0.4375,
          "durationTicks": 420,
          "midi": 38,
          "name": "D2",
          "ticks": 54240,
          "time": 56.5,
          "velocity": 0.5039370078740157
        },
        {
          "duration": 0.02916666666666856,
          "durationTicks": 28,
          "midi": 42,
          "name": "F#2",
          "ticks": 54360,
          "time": 56.625,
          "velocity": 0.5039370078740157
        },
        {
          "duration": 0.0416666666666643,
          "durationTicks": 40,
          "midi": 42,
          "name": "F#2",
          "ticks": 54480,
          "time": 56.75,
          "velocity": 0.5039370078740157
        },
        {
          "duration": 0.04999999999999716,
          "durationTicks": 48,
          "midi": 44,
          "name": "G#2",
          "ticks": 54600,
          "time": 56.875,
          "velocity": 0.5039370078740157
        },
        {
          "duration": 0.04479166666666856,
          "durationTicks": 43,
          "midi": 42,
          "name": "F#2",
          "ticks": 54720,
          "time": 57,
          "velocity": 0.5039370078740157
        },
        {
          "duration": 0.03958333333333286,
          "durationTicks": 38,
          "midi": 42,
          "name": "F#2",
          "ticks": 54840,
          "time": 57.125,
          "velocity": 0.5039370078740157
        },
        {
          "duration": 0.0625,
          "durationTicks": 60,
          "midi": 36,
          "name": "C2",
          "ticks": 54840,
          "time": 57.125,
          "velocity": 0.5039370078740157
        },
        {
          "duration": 0.0416666666666643,
          "durationTicks": 40,
          "midi": 42,
          "name": "F#2",
          "ticks": 54960,
          "time": 57.25,
          "velocity": 0.5039370078740157
        },
        {
          "duration": 0.0677083333333357,
          "durationTicks": 65,
          "midi": 36,
          "name": "C2",
          "ticks": 54960,
          "time": 57.25,
          "velocity": 0.5039370078740157
        },
        {
          "duration": 0.046875,
          "durationTicks": 45,
          "midi": 44,
          "name": "G#2",
          "ticks": 55080,
          "time": 57.375,
          "velocity": 0.5039370078740157
        },
        {
          "duration": 0.0416666666666643,
          "durationTicks": 40,
          "midi": 42,
          "name": "F#2",
          "ticks": 55200,
          "time": 57.5,
          "velocity": 0.5039370078740157
        },
        {
          "duration": 0.4375,
          "durationTicks": 420,
          "midi": 38,
          "name": "D2",
          "ticks": 55200,
          "time": 57.5,
          "velocity": 0.5039370078740157
        },
        {
          "duration": 0.0625,
          "durationTicks": 60,
          "midi": 36,
          "name": "C2",
          "ticks": 55200,
          "time": 57.5,
          "velocity": 0.5039370078740157
        },
        {
          "duration": 0.03125,
          "durationTicks": 30,
          "midi": 42,
          "name": "F#2",
          "ticks": 55320,
          "time": 57.625,
          "velocity": 0.5039370078740157
        },
        {
          "duration": 0.07083333333333286,
          "durationTicks": 68,
          "midi": 44,
          "name": "G#2",
          "ticks": 55440,
          "time": 57.75,
          "velocity": 0.5039370078740157
        },
        {
          "duration": 0.0625,
          "durationTicks": 60,
          "midi": 36,
          "name": "C2",
          "ticks": 55440,
          "time": 57.75,
          "velocity": 0.5039370078740157
        },
        {
          "duration": 0.04479166666666856,
          "durationTicks": 43,
          "midi": 42,
          "name": "F#2",
          "ticks": 55560,
          "time": 57.875,
          "velocity": 0.5039370078740157
        },
        {
          "duration": 0.04999999999999716,
          "durationTicks": 48,
          "midi": 42,
          "name": "F#2",
          "ticks": 55800,
          "time": 58.125,
          "velocity": 0.5039370078740157
        },
        {
          "duration": 0.046875,
          "durationTicks": 45,
          "midi": 44,
          "name": "G#2",
          "ticks": 55920,
          "time": 58.25,
          "velocity": 0.5039370078740157
        },
        {
          "duration": 0.03958333333333286,
          "durationTicks": 38,
          "midi": 42,
          "name": "F#2",
          "ticks": 56040,
          "time": 58.375,
          "velocity": 0.5039370078740157
        },
        {
          "duration": 0.03437499999999716,
          "durationTicks": 33,
          "midi": 42,
          "name": "F#2",
          "ticks": 56160,
          "time": 58.5,
          "velocity": 0.5039370078740157
        },
        {
          "duration": 0.4375,
          "durationTicks": 420,
          "midi": 38,
          "name": "D2",
          "ticks": 56160,
          "time": 58.5,
          "velocity": 0.5039370078740157
        },
        {
          "duration": 0.02916666666666856,
          "durationTicks": 28,
          "midi": 42,
          "name": "F#2",
          "ticks": 56280,
          "time": 58.625,
          "velocity": 0.5039370078740157
        },
        {
          "duration": 0.0416666666666643,
          "durationTicks": 40,
          "midi": 42,
          "name": "F#2",
          "ticks": 56400,
          "time": 58.75,
          "velocity": 0.5039370078740157
        },
        {
          "duration": 0.04999999999999716,
          "durationTicks": 48,
          "midi": 44,
          "name": "G#2",
          "ticks": 56520,
          "time": 58.875,
          "velocity": 0.5039370078740157
        },
        {
          "duration": 0.04479166666666856,
          "durationTicks": 43,
          "midi": 42,
          "name": "F#2",
          "ticks": 56640,
          "time": 59,
          "velocity": 0.5039370078740157
        },
        {
          "duration": 0.03958333333333286,
          "durationTicks": 38,
          "midi": 42,
          "name": "F#2",
          "ticks": 56760,
          "time": 59.125,
          "velocity": 0.5039370078740157
        },
        {
          "duration": 0.0625,
          "durationTicks": 60,
          "midi": 36,
          "name": "C2",
          "ticks": 56760,
          "time": 59.125,
          "velocity": 0.5039370078740157
        },
        {
          "duration": 0.0416666666666643,
          "durationTicks": 40,
          "midi": 42,
          "name": "F#2",
          "ticks": 56880,
          "time": 59.25,
          "velocity": 0.5039370078740157
        },
        {
          "duration": 0.06562499999999716,
          "durationTicks": 63,
          "midi": 36,
          "name": "C2",
          "ticks": 56880,
          "time": 59.25,
          "velocity": 0.5039370078740157
        },
        {
          "duration": 0.046875,
          "durationTicks": 45,
          "midi": 44,
          "name": "G#2",
          "ticks": 57000,
          "time": 59.375,
          "velocity": 0.5039370078740157
        },
        {
          "duration": 0.0416666666666643,
          "durationTicks": 40,
          "midi": 42,
          "name": "F#2",
          "ticks": 57120,
          "time": 59.5,
          "velocity": 0.5039370078740157
        },
        {
          "duration": 0.4375,
          "durationTicks": 420,
          "midi": 38,
          "name": "D2",
          "ticks": 57120,
          "time": 59.5,
          "velocity": 0.5039370078740157
        },
        {
          "duration": 0.03125,
          "durationTicks": 30,
          "midi": 42,
          "name": "F#2",
          "ticks": 57240,
          "time": 59.625,
          "velocity": 0.5039370078740157
        },
        {
          "duration": 0.07083333333333286,
          "durationTicks": 68,
          "midi": 44,
          "name": "G#2",
          "ticks": 57360,
          "time": 59.75,
          "velocity": 0.5039370078740157
        },
        {
          "duration": 0.04479166666666856,
          "durationTicks": 43,
          "midi": 42,
          "name": "F#2",
          "ticks": 57480,
          "time": 59.875,
          "velocity": 0.5039370078740157
        },
        {
          "duration": 0.07604166666666856,
          "durationTicks": 73,
          "midi": 36,
          "name": "C2",
          "ticks": 57600,
          "time": 60,
          "velocity": 0.5039370078740157
        },
        {
          "duration": 0.04999999999999716,
          "durationTicks": 48,
          "midi": 42,
          "name": "F#2",
          "ticks": 57720,
          "time": 60.125,
          "velocity": 0.5039370078740157
        },
        {
          "duration": 0.046875,
          "durationTicks": 45,
          "midi": 44,
          "name": "G#2",
          "ticks": 57840,
          "time": 60.25,
          "velocity": 0.5039370078740157
        },
        {
          "duration": 0.03958333333333286,
          "durationTicks": 38,
          "midi": 42,
          "name": "F#2",
          "ticks": 57960,
          "time": 60.375,
          "velocity": 0.5039370078740157
        },
        {
          "duration": 0.03437499999999716,
          "durationTicks": 33,
          "midi": 42,
          "name": "F#2",
          "ticks": 58080,
          "time": 60.5,
          "velocity": 0.5039370078740157
        },
        {
          "duration": 0.4375,
          "durationTicks": 420,
          "midi": 38,
          "name": "D2",
          "ticks": 58080,
          "time": 60.5,
          "velocity": 0.5039370078740157
        },
        {
          "duration": 0.02916666666666856,
          "durationTicks": 28,
          "midi": 42,
          "name": "F#2",
          "ticks": 58200,
          "time": 60.625,
          "velocity": 0.5039370078740157
        },
        {
          "duration": 0.0416666666666643,
          "durationTicks": 40,
          "midi": 42,
          "name": "F#2",
          "ticks": 58320,
          "time": 60.75,
          "velocity": 0.5039370078740157
        },
        {
          "duration": 0.04999999999999716,
          "durationTicks": 48,
          "midi": 44,
          "name": "G#2",
          "ticks": 58440,
          "time": 60.875,
          "velocity": 0.5039370078740157
        },
        {
          "duration": 0.0729166666666643,
          "durationTicks": 70,
          "midi": 36,
          "name": "C2",
          "ticks": 58440,
          "time": 60.875,
          "velocity": 0.5039370078740157
        },
        {
          "duration": 0.04479166666666856,
          "durationTicks": 43,
          "midi": 42,
          "name": "F#2",
          "ticks": 58560,
          "time": 61,
          "velocity": 0.5039370078740157
        },
        {
          "duration": 0.03958333333333286,
          "durationTicks": 38,
          "midi": 42,
          "name": "F#2",
          "ticks": 58680,
          "time": 61.125,
          "velocity": 0.5039370078740157
        },
        {
          "duration": 0.05520833333333286,
          "durationTicks": 53,
          "midi": 36,
          "name": "C2",
          "ticks": 58680,
          "time": 61.125,
          "velocity": 0.5039370078740157
        },
        {
          "duration": 0.0416666666666643,
          "durationTicks": 40,
          "midi": 42,
          "name": "F#2",
          "ticks": 58800,
          "time": 61.25,
          "velocity": 0.5039370078740157
        },
        {
          "duration": 0.0729166666666643,
          "durationTicks": 70,
          "midi": 36,
          "name": "C2",
          "ticks": 58800,
          "time": 61.25,
          "velocity": 0.5039370078740157
        },
        {
          "duration": 0.046875,
          "durationTicks": 45,
          "midi": 44,
          "name": "G#2",
          "ticks": 58920,
          "time": 61.375,
          "velocity": 0.5039370078740157
        },
        {
          "duration": 0.0416666666666643,
          "durationTicks": 40,
          "midi": 42,
          "name": "F#2",
          "ticks": 59040,
          "time": 61.5,
          "velocity": 0.5039370078740157
        },
        {
          "duration": 0.07083333333333286,
          "durationTicks": 68,
          "midi": 36,
          "name": "C2",
          "ticks": 59040,
          "time": 61.5,
          "velocity": 0.5039370078740157
        },
        {
          "duration": 0.4375,
          "durationTicks": 420,
          "midi": 38,
          "name": "D2",
          "ticks": 59040,
          "time": 61.5,
          "velocity": 0.5039370078740157
        },
        {
          "duration": 0.03125,
          "durationTicks": 30,
          "midi": 42,
          "name": "F#2",
          "ticks": 59160,
          "time": 61.625,
          "velocity": 0.5039370078740157
        },
        {
          "duration": 0.0625,
          "durationTicks": 60,
          "midi": 36,
          "name": "C2",
          "ticks": 59280,
          "time": 61.75,
          "velocity": 0.5039370078740157
        },
        {
          "duration": 0.07083333333333286,
          "durationTicks": 68,
          "midi": 44,
          "name": "G#2",
          "ticks": 59280,
          "time": 61.75,
          "velocity": 0.5039370078740157
        },
        {
          "duration": 0.04479166666666856,
          "durationTicks": 43,
          "midi": 42,
          "name": "F#2",
          "ticks": 59400,
          "time": 61.875,
          "velocity": 0.5039370078740157
        },
        {
          "duration": 0.06041666666666856,
          "durationTicks": 58,
          "midi": 36,
          "name": "C2",
          "ticks": 59520,
          "time": 62,
          "velocity": 0.5039370078740157
        },
        {
          "duration": 0.04999999999999716,
          "durationTicks": 48,
          "midi": 42,
          "name": "F#2",
          "ticks": 59640,
          "time": 62.125,
          "velocity": 0.5039370078740157
        },
        {
          "duration": 0.046875,
          "durationTicks": 45,
          "midi": 44,
          "name": "G#2",
          "ticks": 59760,
          "time": 62.25,
          "velocity": 0.5039370078740157
        },
        {
          "duration": 0.03958333333333286,
          "durationTicks": 38,
          "midi": 42,
          "name": "F#2",
          "ticks": 59880,
          "time": 62.375,
          "velocity": 0.5039370078740157
        },
        {
          "duration": 0.03437499999999716,
          "durationTicks": 33,
          "midi": 42,
          "name": "F#2",
          "ticks": 60000,
          "time": 62.5,
          "velocity": 0.5039370078740157
        },
        {
          "duration": 0.4375,
          "durationTicks": 420,
          "midi": 38,
          "name": "D2",
          "ticks": 60000,
          "time": 62.5,
          "velocity": 0.5039370078740157
        },
        {
          "duration": 0.02916666666666856,
          "durationTicks": 28,
          "midi": 42,
          "name": "F#2",
          "ticks": 60120,
          "time": 62.625,
          "velocity": 0.5039370078740157
        },
        {
          "duration": 0.0416666666666643,
          "durationTicks": 40,
          "midi": 42,
          "name": "F#2",
          "ticks": 60240,
          "time": 62.75,
          "velocity": 0.5039370078740157
        },
        {
          "duration": 0.04999999999999716,
          "durationTicks": 48,
          "midi": 44,
          "name": "G#2",
          "ticks": 60360,
          "time": 62.875,
          "velocity": 0.5039370078740157
        },
        {
          "duration": 0.04479166666666856,
          "durationTicks": 43,
          "midi": 42,
          "name": "F#2",
          "ticks": 60480,
          "time": 63,
          "velocity": 0.5039370078740157
        },
        {
          "duration": 0.03958333333333286,
          "durationTicks": 38,
          "midi": 42,
          "name": "F#2",
          "ticks": 60600,
          "time": 63.125,
          "velocity": 0.5039370078740157
        },
        {
          "duration": 0.05520833333333286,
          "durationTicks": 53,
          "midi": 36,
          "name": "C2",
          "ticks": 60600,
          "time": 63.125,
          "velocity": 0.5039370078740157
        },
        {
          "duration": 0.0625,
          "durationTicks": 60,
          "midi": 39,
          "name": "D#2",
          "ticks": 60600,
          "time": 63.125,
          "velocity": 0.5039370078740157
        },
        {
          "duration": 0.0416666666666643,
          "durationTicks": 40,
          "midi": 42,
          "name": "F#2",
          "ticks": 60720,
          "time": 63.25,
          "velocity": 0.5039370078740157
        },
        {
          "duration": 0.06041666666666856,
          "durationTicks": 58,
          "midi": 36,
          "name": "C2",
          "ticks": 60720,
          "time": 63.25,
          "velocity": 0.5039370078740157
        },
        {
          "duration": 0.046875,
          "durationTicks": 45,
          "midi": 44,
          "name": "G#2",
          "ticks": 60840,
          "time": 63.375,
          "velocity": 0.5039370078740157
        },
        {
          "duration": 0.06041666666666856,
          "durationTicks": 58,
          "midi": 39,
          "name": "D#2",
          "ticks": 60840,
          "time": 63.375,
          "velocity": 0.5039370078740157
        },
        {
          "duration": 0.0416666666666643,
          "durationTicks": 40,
          "midi": 42,
          "name": "F#2",
          "ticks": 60960,
          "time": 63.5,
          "velocity": 0.5039370078740157
        },
        {
          "duration": 0.05520833333333286,
          "durationTicks": 53,
          "midi": 36,
          "name": "C2",
          "ticks": 60960,
          "time": 63.5,
          "velocity": 0.5039370078740157
        },
        {
          "duration": 0.4375,
          "durationTicks": 420,
          "midi": 38,
          "name": "D2",
          "ticks": 60960,
          "time": 63.5,
          "velocity": 0.5039370078740157
        },
        {
          "duration": 0.03125,
          "durationTicks": 30,
          "midi": 42,
          "name": "F#2",
          "ticks": 61080,
          "time": 63.625,
          "velocity": 0.5039370078740157
        },
        {
          "duration": 0.046875,
          "durationTicks": 45,
          "midi": 39,
          "name": "D#2",
          "ticks": 61080,
          "time": 63.625,
          "velocity": 0.5039370078740157
        },
        {
          "duration": 0.07083333333333286,
          "durationTicks": 68,
          "midi": 44,
          "name": "G#2",
          "ticks": 61200,
          "time": 63.75,
          "velocity": 0.5039370078740157
        },
        {
          "duration": 0.05520833333333286,
          "durationTicks": 53,
          "midi": 36,
          "name": "C2",
          "ticks": 61200,
          "time": 63.75,
          "velocity": 0.5039370078740157
        },
        {
          "duration": 0.046875,
          "durationTicks": 45,
          "midi": 39,
          "name": "D#2",
          "ticks": 61200,
          "time": 63.75,
          "velocity": 0.5039370078740157
        },
        {
          "duration": 0.04479166666666856,
          "durationTicks": 43,
          "midi": 42,
          "name": "F#2",
          "ticks": 61320,
          "time": 63.875,
          "velocity": 0.5039370078740157
        },
        {
          "duration": 0.04479166666666856,
          "durationTicks": 43,
          "midi": 39,
          "name": "D#2",
          "ticks": 61320,
          "time": 63.875,
          "velocity": 0.5039370078740157
        },
        {
          "duration": 0.041666666666671404,
          "durationTicks": 40,
          "midi": 39,
          "name": "D#2",
          "ticks": 61440,
          "time": 64,
          "velocity": 0.5039370078740157
        },
        {
          "duration": 0.036458333333328596,
          "durationTicks": 35,
          "midi": 39,
          "name": "D#2",
          "ticks": 61560,
          "time": 64.125,
          "velocity": 0.5039370078740157
        },
        {
          "duration": 0.0833333333333286,
          "durationTicks": 80,
          "midi": 39,
          "name": "D#2",
          "ticks": 61680,
          "time": 64.25,
          "velocity": 0.5039370078740157
        },
        {
          "duration": 0.11770833333333997,
          "durationTicks": 113,
          "midi": 36,
          "name": "C2",
          "ticks": 82560,
          "time": 86,
          "velocity": 0.5039370078740157
        },
        {
          "duration": 0.0625,
          "durationTicks": 60,
          "midi": 36,
          "name": "C2",
          "ticks": 83640,
          "time": 87.125,
          "velocity": 0.5039370078740157
        },
        {
          "duration": 0.0677083333333286,
          "durationTicks": 65,
          "midi": 36,
          "name": "C2",
          "ticks": 83760,
          "time": 87.25,
          "velocity": 0.5039370078740157
        },
        {
          "duration": 0.0625,
          "durationTicks": 60,
          "midi": 36,
          "name": "C2",
          "ticks": 84000,
          "time": 87.5,
          "velocity": 0.5039370078740157
        },
        {
          "duration": 0.0625,
          "durationTicks": 60,
          "midi": 36,
          "name": "C2",
          "ticks": 84240,
          "time": 87.75,
          "velocity": 0.5039370078740157
        },
        {
          "duration": 0.0625,
          "durationTicks": 60,
          "midi": 36,
          "name": "C2",
          "ticks": 85560,
          "time": 89.125,
          "velocity": 0.5039370078740157
        },
        {
          "duration": 0.06562499999999716,
          "durationTicks": 63,
          "midi": 36,
          "name": "C2",
          "ticks": 85680,
          "time": 89.25,
          "velocity": 0.5039370078740157
        },
        {
          "duration": 0.07604166666666856,
          "durationTicks": 73,
          "midi": 36,
          "name": "C2",
          "ticks": 86400,
          "time": 90,
          "velocity": 0.5039370078740157
        },
        {
          "duration": 0.0729166666666714,
          "durationTicks": 70,
          "midi": 36,
          "name": "C2",
          "ticks": 87240,
          "time": 90.875,
          "velocity": 0.5039370078740157
        },
        {
          "duration": 0.055208333333339965,
          "durationTicks": 53,
          "midi": 36,
          "name": "C2",
          "ticks": 87480,
          "time": 91.125,
          "velocity": 0.5039370078740157
        },
        {
          "duration": 0.0729166666666714,
          "durationTicks": 70,
          "midi": 36,
          "name": "C2",
          "ticks": 87600,
          "time": 91.25,
          "velocity": 0.5039370078740157
        },
        {
          "duration": 0.07083333333333997,
          "durationTicks": 68,
          "midi": 36,
          "name": "C2",
          "ticks": 87840,
          "time": 91.5,
          "velocity": 0.5039370078740157
        },
        {
          "duration": 0.0625,
          "durationTicks": 60,
          "midi": 36,
          "name": "C2",
          "ticks": 88080,
          "time": 91.75,
          "velocity": 0.5039370078740157
        },
        {
          "duration": 0.06041666666666856,
          "durationTicks": 58,
          "midi": 36,
          "name": "C2",
          "ticks": 88320,
          "time": 92,
          "velocity": 0.5039370078740157
        },
        {
          "duration": 0.055208333333339965,
          "durationTicks": 53,
          "midi": 36,
          "name": "C2",
          "ticks": 89400,
          "time": 93.125,
          "velocity": 0.5039370078740157
        },
        {
          "duration": 0.0625,
          "durationTicks": 60,
          "midi": 39,
          "name": "D#2",
          "ticks": 89400,
          "time": 93.125,
          "velocity": 0.5039370078740157
        },
        {
          "duration": 0.06041666666666856,
          "durationTicks": 58,
          "midi": 36,
          "name": "C2",
          "ticks": 89520,
          "time": 93.25,
          "velocity": 0.5039370078740157
        },
        {
          "duration": 0.06041666666666856,
          "durationTicks": 58,
          "midi": 39,
          "name": "D#2",
          "ticks": 89640,
          "time": 93.375,
          "velocity": 0.5039370078740157
        },
        {
          "duration": 0.055208333333339965,
          "durationTicks": 53,
          "midi": 36,
          "name": "C2",
          "ticks": 89760,
          "time": 93.5,
          "velocity": 0.5039370078740157
        },
        {
          "duration": 0.046875,
          "durationTicks": 45,
          "midi": 39,
          "name": "D#2",
          "ticks": 89880,
          "time": 93.625,
          "velocity": 0.5039370078740157
        },
        {
          "duration": 0.055208333333339965,
          "durationTicks": 53,
          "midi": 36,
          "name": "C2",
          "ticks": 90000,
          "time": 93.75,
          "velocity": 0.5039370078740157
        },
        {
          "duration": 0.046875,
          "durationTicks": 45,
          "midi": 39,
          "name": "D#2",
          "ticks": 90000,
          "time": 93.75,
          "velocity": 0.5039370078740157
        },
        {
          "duration": 0.04479166666666856,
          "durationTicks": 43,
          "midi": 39,
          "name": "D#2",
          "ticks": 90120,
          "time": 93.875,
          "velocity": 0.5039370078740157
        },
        {
          "duration": 0.11770833333333997,
          "durationTicks": 113,
          "midi": 36,
          "name": "C2",
          "ticks": 90240,
          "time": 94,
          "velocity": 0.5039370078740157
        },
        {
          "duration": 0.041666666666671404,
          "durationTicks": 40,
          "midi": 39,
          "name": "D#2",
          "ticks": 90240,
          "time": 94,
          "velocity": 0.5039370078740157
        },
        {
          "duration": 0.04999999999999716,
          "durationTicks": 48,
          "midi": 42,
          "name": "F#2",
          "ticks": 90360,
          "time": 94.125,
          "velocity": 0.5039370078740157
        },
        {
          "duration": 0.036458333333328596,
          "durationTicks": 35,
          "midi": 39,
          "name": "D#2",
          "ticks": 90360,
          "time": 94.125,
          "velocity": 0.5039370078740157
        },
        {
          "duration": 0.046875,
          "durationTicks": 45,
          "midi": 44,
          "name": "G#2",
          "ticks": 90480,
          "time": 94.25,
          "velocity": 0.5039370078740157
        },
        {
          "duration": 0.0833333333333286,
          "durationTicks": 80,
          "midi": 39,
          "name": "D#2",
          "ticks": 90480,
          "time": 94.25,
          "velocity": 0.5039370078740157
        },
        {
          "duration": 0.039583333333339965,
          "durationTicks": 38,
          "midi": 42,
          "name": "F#2",
          "ticks": 90600,
          "time": 94.375,
          "velocity": 0.5039370078740157
        },
        {
          "duration": 0.03437499999999716,
          "durationTicks": 33,
          "midi": 42,
          "name": "F#2",
          "ticks": 90720,
          "time": 94.5,
          "velocity": 0.5039370078740157
        },
        {
          "duration": 0.4375,
          "durationTicks": 420,
          "midi": 38,
          "name": "D2",
          "ticks": 90720,
          "time": 94.5,
          "velocity": 0.5039370078740157
        },
        {
          "duration": 0.02916666666666856,
          "durationTicks": 28,
          "midi": 42,
          "name": "F#2",
          "ticks": 90840,
          "time": 94.625,
          "velocity": 0.5039370078740157
        },
        {
          "duration": 0.041666666666671404,
          "durationTicks": 40,
          "midi": 42,
          "name": "F#2",
          "ticks": 90960,
          "time": 94.75,
          "velocity": 0.5039370078740157
        },
        {
          "duration": 0.04999999999999716,
          "durationTicks": 48,
          "midi": 44,
          "name": "G#2",
          "ticks": 91080,
          "time": 94.875,
          "velocity": 0.5039370078740157
        },
        {
          "duration": 0.04479166666666856,
          "durationTicks": 43,
          "midi": 42,
          "name": "F#2",
          "ticks": 91200,
          "time": 95,
          "velocity": 0.5039370078740157
        },
        {
          "duration": 0.039583333333339965,
          "durationTicks": 38,
          "midi": 42,
          "name": "F#2",
          "ticks": 91320,
          "time": 95.125,
          "velocity": 0.5039370078740157
        },
        {
          "duration": 0.0625,
          "durationTicks": 60,
          "midi": 36,
          "name": "C2",
          "ticks": 91320,
          "time": 95.125,
          "velocity": 0.5039370078740157
        },
        {
          "duration": 0.041666666666671404,
          "durationTicks": 40,
          "midi": 42,
          "name": "F#2",
          "ticks": 91440,
          "time": 95.25,
          "velocity": 0.5039370078740157
        },
        {
          "duration": 0.0677083333333286,
          "durationTicks": 65,
          "midi": 36,
          "name": "C2",
          "ticks": 91440,
          "time": 95.25,
          "velocity": 0.5039370078740157
        },
        {
          "duration": 0.046875,
          "durationTicks": 45,
          "midi": 44,
          "name": "G#2",
          "ticks": 91560,
          "time": 95.375,
          "velocity": 0.5039370078740157
        },
        {
          "duration": 0.041666666666671404,
          "durationTicks": 40,
          "midi": 42,
          "name": "F#2",
          "ticks": 91680,
          "time": 95.5,
          "velocity": 0.5039370078740157
        },
        {
          "duration": 0.4375,
          "durationTicks": 420,
          "midi": 38,
          "name": "D2",
          "ticks": 91680,
          "time": 95.5,
          "velocity": 0.5039370078740157
        },
        {
          "duration": 0.0625,
          "durationTicks": 60,
          "midi": 36,
          "name": "C2",
          "ticks": 91680,
          "time": 95.5,
          "velocity": 0.5039370078740157
        },
        {
          "duration": 0.03125,
          "durationTicks": 30,
          "midi": 42,
          "name": "F#2",
          "ticks": 91800,
          "time": 95.625,
          "velocity": 0.5039370078740157
        },
        {
          "duration": 0.07083333333333997,
          "durationTicks": 68,
          "midi": 44,
          "name": "G#2",
          "ticks": 91920,
          "time": 95.75,
          "velocity": 0.5039370078740157
        },
        {
          "duration": 0.0625,
          "durationTicks": 60,
          "midi": 36,
          "name": "C2",
          "ticks": 91920,
          "time": 95.75,
          "velocity": 0.5039370078740157
        },
        {
          "duration": 0.04479166666666856,
          "durationTicks": 43,
          "midi": 42,
          "name": "F#2",
          "ticks": 92040,
          "time": 95.875,
          "velocity": 0.5039370078740157
        },
        {
          "duration": 0.04999999999999716,
          "durationTicks": 48,
          "midi": 42,
          "name": "F#2",
          "ticks": 92280,
          "time": 96.125,
          "velocity": 0.5039370078740157
        },
        {
          "duration": 0.046875,
          "durationTicks": 45,
          "midi": 44,
          "name": "G#2",
          "ticks": 92400,
          "time": 96.25,
          "velocity": 0.5039370078740157
        },
        {
          "duration": 0.039583333333339965,
          "durationTicks": 38,
          "midi": 42,
          "name": "F#2",
          "ticks": 92520,
          "time": 96.375,
          "velocity": 0.5039370078740157
        },
        {
          "duration": 0.03437499999999716,
          "durationTicks": 33,
          "midi": 42,
          "name": "F#2",
          "ticks": 92640,
          "time": 96.5,
          "velocity": 0.5039370078740157
        },
        {
          "duration": 0.4375,
          "durationTicks": 420,
          "midi": 38,
          "name": "D2",
          "ticks": 92640,
          "time": 96.5,
          "velocity": 0.5039370078740157
        },
        {
          "duration": 0.02916666666666856,
          "durationTicks": 28,
          "midi": 42,
          "name": "F#2",
          "ticks": 92760,
          "time": 96.625,
          "velocity": 0.5039370078740157
        },
        {
          "duration": 0.041666666666671404,
          "durationTicks": 40,
          "midi": 42,
          "name": "F#2",
          "ticks": 92880,
          "time": 96.75,
          "velocity": 0.5039370078740157
        },
        {
          "duration": 0.04999999999999716,
          "durationTicks": 48,
          "midi": 44,
          "name": "G#2",
          "ticks": 93000,
          "time": 96.875,
          "velocity": 0.5039370078740157
        },
        {
          "duration": 0.04479166666666856,
          "durationTicks": 43,
          "midi": 42,
          "name": "F#2",
          "ticks": 93120,
          "time": 97,
          "velocity": 0.5039370078740157
        },
        {
          "duration": 0.039583333333339965,
          "durationTicks": 38,
          "midi": 42,
          "name": "F#2",
          "ticks": 93240,
          "time": 97.125,
          "velocity": 0.5039370078740157
        },
        {
          "duration": 0.0625,
          "durationTicks": 60,
          "midi": 36,
          "name": "C2",
          "ticks": 93240,
          "time": 97.125,
          "velocity": 0.5039370078740157
        },
        {
          "duration": 0.041666666666671404,
          "durationTicks": 40,
          "midi": 42,
          "name": "F#2",
          "ticks": 93360,
          "time": 97.25,
          "velocity": 0.5039370078740157
        },
        {
          "duration": 0.06562499999999716,
          "durationTicks": 63,
          "midi": 36,
          "name": "C2",
          "ticks": 93360,
          "time": 97.25,
          "velocity": 0.5039370078740157
        },
        {
          "duration": 0.046875,
          "durationTicks": 45,
          "midi": 44,
          "name": "G#2",
          "ticks": 93480,
          "time": 97.375,
          "velocity": 0.5039370078740157
        },
        {
          "duration": 0.041666666666671404,
          "durationTicks": 40,
          "midi": 42,
          "name": "F#2",
          "ticks": 93600,
          "time": 97.5,
          "velocity": 0.5039370078740157
        },
        {
          "duration": 0.4375,
          "durationTicks": 420,
          "midi": 38,
          "name": "D2",
          "ticks": 93600,
          "time": 97.5,
          "velocity": 0.5039370078740157
        },
        {
          "duration": 0.03125,
          "durationTicks": 30,
          "midi": 42,
          "name": "F#2",
          "ticks": 93720,
          "time": 97.625,
          "velocity": 0.5039370078740157
        },
        {
          "duration": 0.07083333333333997,
          "durationTicks": 68,
          "midi": 44,
          "name": "G#2",
          "ticks": 93840,
          "time": 97.75,
          "velocity": 0.5039370078740157
        },
        {
          "duration": 0.04479166666666856,
          "durationTicks": 43,
          "midi": 42,
          "name": "F#2",
          "ticks": 93960,
          "time": 97.875,
          "velocity": 0.5039370078740157
        },
        {
          "duration": 0.07604166666666856,
          "durationTicks": 73,
          "midi": 36,
          "name": "C2",
          "ticks": 94080,
          "time": 98,
          "velocity": 0.5039370078740157
        },
        {
          "duration": 0.04999999999999716,
          "durationTicks": 48,
          "midi": 42,
          "name": "F#2",
          "ticks": 94200,
          "time": 98.125,
          "velocity": 0.5039370078740157
        },
        {
          "duration": 0.046875,
          "durationTicks": 45,
          "midi": 44,
          "name": "G#2",
          "ticks": 94320,
          "time": 98.25,
          "velocity": 0.5039370078740157
        },
        {
          "duration": 0.039583333333339965,
          "durationTicks": 38,
          "midi": 42,
          "name": "F#2",
          "ticks": 94440,
          "time": 98.375,
          "velocity": 0.5039370078740157
        },
        {
          "duration": 0.03437499999999716,
          "durationTicks": 33,
          "midi": 42,
          "name": "F#2",
          "ticks": 94560,
          "time": 98.5,
          "velocity": 0.5039370078740157
        },
        {
          "duration": 0.4375,
          "durationTicks": 420,
          "midi": 38,
          "name": "D2",
          "ticks": 94560,
          "time": 98.5,
          "velocity": 0.5039370078740157
        },
        {
          "duration": 0.02916666666666856,
          "durationTicks": 28,
          "midi": 42,
          "name": "F#2",
          "ticks": 94680,
          "time": 98.625,
          "velocity": 0.5039370078740157
        },
        {
          "duration": 0.041666666666671404,
          "durationTicks": 40,
          "midi": 42,
          "name": "F#2",
          "ticks": 94800,
          "time": 98.75,
          "velocity": 0.5039370078740157
        },
        {
          "duration": 0.04999999999999716,
          "durationTicks": 48,
          "midi": 44,
          "name": "G#2",
          "ticks": 94920,
          "time": 98.875,
          "velocity": 0.5039370078740157
        },
        {
          "duration": 0.0729166666666714,
          "durationTicks": 70,
          "midi": 36,
          "name": "C2",
          "ticks": 94920,
          "time": 98.875,
          "velocity": 0.5039370078740157
        },
        {
          "duration": 0.04479166666666856,
          "durationTicks": 43,
          "midi": 42,
          "name": "F#2",
          "ticks": 95040,
          "time": 99,
          "velocity": 0.5039370078740157
        },
        {
          "duration": 0.039583333333339965,
          "durationTicks": 38,
          "midi": 42,
          "name": "F#2",
          "ticks": 95160,
          "time": 99.125,
          "velocity": 0.5039370078740157
        },
        {
          "duration": 0.055208333333339965,
          "durationTicks": 53,
          "midi": 36,
          "name": "C2",
          "ticks": 95160,
          "time": 99.125,
          "velocity": 0.5039370078740157
        },
        {
          "duration": 0.041666666666671404,
          "durationTicks": 40,
          "midi": 42,
          "name": "F#2",
          "ticks": 95280,
          "time": 99.25,
          "velocity": 0.5039370078740157
        },
        {
          "duration": 0.0729166666666714,
          "durationTicks": 70,
          "midi": 36,
          "name": "C2",
          "ticks": 95280,
          "time": 99.25,
          "velocity": 0.5039370078740157
        },
        {
          "duration": 0.046875,
          "durationTicks": 45,
          "midi": 44,
          "name": "G#2",
          "ticks": 95400,
          "time": 99.375,
          "velocity": 0.5039370078740157
        },
        {
          "duration": 0.041666666666671404,
          "durationTicks": 40,
          "midi": 42,
          "name": "F#2",
          "ticks": 95520,
          "time": 99.5,
          "velocity": 0.5039370078740157
        },
        {
          "duration": 0.07083333333333997,
          "durationTicks": 68,
          "midi": 36,
          "name": "C2",
          "ticks": 95520,
          "time": 99.5,
          "velocity": 0.5039370078740157
        },
        {
          "duration": 0.4375,
          "durationTicks": 420,
          "midi": 38,
          "name": "D2",
          "ticks": 95520,
          "time": 99.5,
          "velocity": 0.5039370078740157
        },
        {
          "duration": 0.03125,
          "durationTicks": 30,
          "midi": 42,
          "name": "F#2",
          "ticks": 95640,
          "time": 99.625,
          "velocity": 0.5039370078740157
        },
        {
          "duration": 0.0625,
          "durationTicks": 60,
          "midi": 36,
          "name": "C2",
          "ticks": 95760,
          "time": 99.75,
          "velocity": 0.5039370078740157
        },
        {
          "duration": 0.07083333333333997,
          "durationTicks": 68,
          "midi": 44,
          "name": "G#2",
          "ticks": 95760,
          "time": 99.75,
          "velocity": 0.5039370078740157
        },
        {
          "duration": 0.04479166666666856,
          "durationTicks": 43,
          "midi": 42,
          "name": "F#2",
          "ticks": 95880,
          "time": 99.875,
          "velocity": 0.5039370078740157
        },
        {
          "duration": 0.06041666666666856,
          "durationTicks": 58,
          "midi": 36,
          "name": "C2",
          "ticks": 96000,
          "time": 100,
          "velocity": 0.5039370078740157
        },
        {
          "duration": 0.04999999999999716,
          "durationTicks": 48,
          "midi": 42,
          "name": "F#2",
          "ticks": 96120,
          "time": 100.125,
          "velocity": 0.5039370078740157
        },
        {
          "duration": 0.046875,
          "durationTicks": 45,
          "midi": 44,
          "name": "G#2",
          "ticks": 96240,
          "time": 100.25,
          "velocity": 0.5039370078740157
        },
        {
          "duration": 0.039583333333339965,
          "durationTicks": 38,
          "midi": 42,
          "name": "F#2",
          "ticks": 96360,
          "time": 100.375,
          "velocity": 0.5039370078740157
        },
        {
          "duration": 0.03437499999999716,
          "durationTicks": 33,
          "midi": 42,
          "name": "F#2",
          "ticks": 96480,
          "time": 100.5,
          "velocity": 0.5039370078740157
        },
        {
          "duration": 0.4375,
          "durationTicks": 420,
          "midi": 38,
          "name": "D2",
          "ticks": 96480,
          "time": 100.5,
          "velocity": 0.5039370078740157
        },
        {
          "duration": 0.02916666666666856,
          "durationTicks": 28,
          "midi": 42,
          "name": "F#2",
          "ticks": 96600,
          "time": 100.625,
          "velocity": 0.5039370078740157
        },
        {
          "duration": 0.041666666666671404,
          "durationTicks": 40,
          "midi": 42,
          "name": "F#2",
          "ticks": 96720,
          "time": 100.75,
          "velocity": 0.5039370078740157
        },
        {
          "duration": 0.04999999999999716,
          "durationTicks": 48,
          "midi": 44,
          "name": "G#2",
          "ticks": 96840,
          "time": 100.875,
          "velocity": 0.5039370078740157
        },
        {
          "duration": 0.04479166666666856,
          "durationTicks": 43,
          "midi": 42,
          "name": "F#2",
          "ticks": 96960,
          "time": 101,
          "velocity": 0.5039370078740157
        },
        {
          "duration": 0.039583333333339965,
          "durationTicks": 38,
          "midi": 42,
          "name": "F#2",
          "ticks": 97080,
          "time": 101.125,
          "velocity": 0.5039370078740157
        },
        {
          "duration": 0.055208333333339965,
          "durationTicks": 53,
          "midi": 36,
          "name": "C2",
          "ticks": 97080,
          "time": 101.125,
          "velocity": 0.5039370078740157
        },
        {
          "duration": 0.0625,
          "durationTicks": 60,
          "midi": 39,
          "name": "D#2",
          "ticks": 97080,
          "time": 101.125,
          "velocity": 0.5039370078740157
        },
        {
          "duration": 0.041666666666671404,
          "durationTicks": 40,
          "midi": 42,
          "name": "F#2",
          "ticks": 97200,
          "time": 101.25,
          "velocity": 0.5039370078740157
        },
        {
          "duration": 0.06041666666666856,
          "durationTicks": 58,
          "midi": 36,
          "name": "C2",
          "ticks": 97200,
          "time": 101.25,
          "velocity": 0.5039370078740157
        },
        {
          "duration": 0.046875,
          "durationTicks": 45,
          "midi": 44,
          "name": "G#2",
          "ticks": 97320,
          "time": 101.375,
          "velocity": 0.5039370078740157
        },
        {
          "duration": 0.06041666666666856,
          "durationTicks": 58,
          "midi": 39,
          "name": "D#2",
          "ticks": 97320,
          "time": 101.375,
          "velocity": 0.5039370078740157
        },
        {
          "duration": 0.041666666666671404,
          "durationTicks": 40,
          "midi": 42,
          "name": "F#2",
          "ticks": 97440,
          "time": 101.5,
          "velocity": 0.5039370078740157
        },
        {
          "duration": 0.055208333333339965,
          "durationTicks": 53,
          "midi": 36,
          "name": "C2",
          "ticks": 97440,
          "time": 101.5,
          "velocity": 0.5039370078740157
        },
        {
          "duration": 0.4375,
          "durationTicks": 420,
          "midi": 38,
          "name": "D2",
          "ticks": 97440,
          "time": 101.5,
          "velocity": 0.5039370078740157
        },
        {
          "duration": 0.03125,
          "durationTicks": 30,
          "midi": 42,
          "name": "F#2",
          "ticks": 97560,
          "time": 101.625,
          "velocity": 0.5039370078740157
        },
        {
          "duration": 0.046875,
          "durationTicks": 45,
          "midi": 39,
          "name": "D#2",
          "ticks": 97560,
          "time": 101.625,
          "velocity": 0.5039370078740157
        },
        {
          "duration": 0.07083333333333997,
          "durationTicks": 68,
          "midi": 44,
          "name": "G#2",
          "ticks": 97680,
          "time": 101.75,
          "velocity": 0.5039370078740157
        },
        {
          "duration": 0.055208333333339965,
          "durationTicks": 53,
          "midi": 36,
          "name": "C2",
          "ticks": 97680,
          "time": 101.75,
          "velocity": 0.5039370078740157
        },
        {
          "duration": 0.046875,
          "durationTicks": 45,
          "midi": 39,
          "name": "D#2",
          "ticks": 97680,
          "time": 101.75,
          "velocity": 0.5039370078740157
        },
        {
          "duration": 0.04479166666666856,
          "durationTicks": 43,
          "midi": 42,
          "name": "F#2",
          "ticks": 97800,
          "time": 101.875,
          "velocity": 0.5039370078740157
        },
        {
          "duration": 0.04479166666666856,
          "durationTicks": 43,
          "midi": 39,
          "name": "D#2",
          "ticks": 97800,
          "time": 101.875,
          "velocity": 0.5039370078740157
        },
        {
          "duration": 0.11770833333333997,
          "durationTicks": 113,
          "midi": 36,
          "name": "C2",
          "ticks": 97920,
          "time": 102,
          "velocity": 0.5039370078740157
        },
        {
          "duration": 0.041666666666671404,
          "durationTicks": 40,
          "midi": 39,
          "name": "D#2",
          "ticks": 97920,
          "time": 102,
          "velocity": 0.5039370078740157
        },
        {
          "duration": 0.04999999999999716,
          "durationTicks": 48,
          "midi": 42,
          "name": "F#2",
          "ticks": 98040,
          "time": 102.125,
          "velocity": 0.5039370078740157
        },
        {
          "duration": 0.036458333333328596,
          "durationTicks": 35,
          "midi": 39,
          "name": "D#2",
          "ticks": 98040,
          "time": 102.125,
          "velocity": 0.5039370078740157
        },
        {
          "duration": 0.046875,
          "durationTicks": 45,
          "midi": 44,
          "name": "G#2",
          "ticks": 98160,
          "time": 102.25,
          "velocity": 0.5039370078740157
        },
        {
          "duration": 0.0833333333333286,
          "durationTicks": 80,
          "midi": 39,
          "name": "D#2",
          "ticks": 98160,
          "time": 102.25,
          "velocity": 0.5039370078740157
        },
        {
          "duration": 0.039583333333339965,
          "durationTicks": 38,
          "midi": 42,
          "name": "F#2",
          "ticks": 98280,
          "time": 102.375,
          "velocity": 0.5039370078740157
        },
        {
          "duration": 0.03437499999999716,
          "durationTicks": 33,
          "midi": 42,
          "name": "F#2",
          "ticks": 98400,
          "time": 102.5,
          "velocity": 0.5039370078740157
        },
        {
          "duration": 0.4375,
          "durationTicks": 420,
          "midi": 38,
          "name": "D2",
          "ticks": 98400,
          "time": 102.5,
          "velocity": 0.5039370078740157
        },
        {
          "duration": 0.02916666666666856,
          "durationTicks": 28,
          "midi": 42,
          "name": "F#2",
          "ticks": 98520,
          "time": 102.625,
          "velocity": 0.5039370078740157
        },
        {
          "duration": 0.041666666666671404,
          "durationTicks": 40,
          "midi": 42,
          "name": "F#2",
          "ticks": 98640,
          "time": 102.75,
          "velocity": 0.5039370078740157
        },
        {
          "duration": 0.04999999999999716,
          "durationTicks": 48,
          "midi": 44,
          "name": "G#2",
          "ticks": 98760,
          "time": 102.875,
          "velocity": 0.5039370078740157
        },
        {
          "duration": 0.04479166666666856,
          "durationTicks": 43,
          "midi": 42,
          "name": "F#2",
          "ticks": 98880,
          "time": 103,
          "velocity": 0.5039370078740157
        },
        {
          "duration": 0.039583333333339965,
          "durationTicks": 38,
          "midi": 42,
          "name": "F#2",
          "ticks": 99000,
          "time": 103.125,
          "velocity": 0.5039370078740157
        },
        {
          "duration": 0.0625,
          "durationTicks": 60,
          "midi": 36,
          "name": "C2",
          "ticks": 99000,
          "time": 103.125,
          "velocity": 0.5039370078740157
        },
        {
          "duration": 0.041666666666671404,
          "durationTicks": 40,
          "midi": 42,
          "name": "F#2",
          "ticks": 99120,
          "time": 103.25,
          "velocity": 0.5039370078740157
        },
        {
          "duration": 0.0677083333333286,
          "durationTicks": 65,
          "midi": 36,
          "name": "C2",
          "ticks": 99120,
          "time": 103.25,
          "velocity": 0.5039370078740157
        },
        {
          "duration": 0.046875,
          "durationTicks": 45,
          "midi": 44,
          "name": "G#2",
          "ticks": 99240,
          "time": 103.375,
          "velocity": 0.5039370078740157
        },
        {
          "duration": 0.041666666666671404,
          "durationTicks": 40,
          "midi": 42,
          "name": "F#2",
          "ticks": 99360,
          "time": 103.5,
          "velocity": 0.5039370078740157
        },
        {
          "duration": 0.4375,
          "durationTicks": 420,
          "midi": 38,
          "name": "D2",
          "ticks": 99360,
          "time": 103.5,
          "velocity": 0.5039370078740157
        },
        {
          "duration": 0.0625,
          "durationTicks": 60,
          "midi": 36,
          "name": "C2",
          "ticks": 99360,
          "time": 103.5,
          "velocity": 0.5039370078740157
        },
        {
          "duration": 0.03125,
          "durationTicks": 30,
          "midi": 42,
          "name": "F#2",
          "ticks": 99480,
          "time": 103.625,
          "velocity": 0.5039370078740157
        },
        {
          "duration": 0.07083333333333997,
          "durationTicks": 68,
          "midi": 44,
          "name": "G#2",
          "ticks": 99600,
          "time": 103.75,
          "velocity": 0.5039370078740157
        },
        {
          "duration": 0.0625,
          "durationTicks": 60,
          "midi": 36,
          "name": "C2",
          "ticks": 99600,
          "time": 103.75,
          "velocity": 0.5039370078740157
        },
        {
          "duration": 0.04479166666666856,
          "durationTicks": 43,
          "midi": 42,
          "name": "F#2",
          "ticks": 99720,
          "time": 103.875,
          "velocity": 0.5039370078740157
        },
        {
          "duration": 0.04999999999999716,
          "durationTicks": 48,
          "midi": 42,
          "name": "F#2",
          "ticks": 99960,
          "time": 104.125,
          "velocity": 0.5039370078740157
        },
        {
          "duration": 0.046875,
          "durationTicks": 45,
          "midi": 44,
          "name": "G#2",
          "ticks": 100080,
          "time": 104.25,
          "velocity": 0.5039370078740157
        },
        {
          "duration": 0.039583333333339965,
          "durationTicks": 38,
          "midi": 42,
          "name": "F#2",
          "ticks": 100200,
          "time": 104.375,
          "velocity": 0.5039370078740157
        },
        {
          "duration": 0.03437499999999716,
          "durationTicks": 33,
          "midi": 42,
          "name": "F#2",
          "ticks": 100320,
          "time": 104.5,
          "velocity": 0.5039370078740157
        },
        {
          "duration": 0.4375,
          "durationTicks": 420,
          "midi": 38,
          "name": "D2",
          "ticks": 100320,
          "time": 104.5,
          "velocity": 0.5039370078740157
        },
        {
          "duration": 0.02916666666666856,
          "durationTicks": 28,
          "midi": 42,
          "name": "F#2",
          "ticks": 100440,
          "time": 104.625,
          "velocity": 0.5039370078740157
        },
        {
          "duration": 0.041666666666671404,
          "durationTicks": 40,
          "midi": 42,
          "name": "F#2",
          "ticks": 100560,
          "time": 104.75,
          "velocity": 0.5039370078740157
        },
        {
          "duration": 0.04999999999999716,
          "durationTicks": 48,
          "midi": 44,
          "name": "G#2",
          "ticks": 100680,
          "time": 104.875,
          "velocity": 0.5039370078740157
        },
        {
          "duration": 0.04479166666666856,
          "durationTicks": 43,
          "midi": 42,
          "name": "F#2",
          "ticks": 100800,
          "time": 105,
          "velocity": 0.5039370078740157
        },
        {
          "duration": 0.039583333333339965,
          "durationTicks": 38,
          "midi": 42,
          "name": "F#2",
          "ticks": 100920,
          "time": 105.125,
          "velocity": 0.5039370078740157
        },
        {
          "duration": 0.0625,
          "durationTicks": 60,
          "midi": 36,
          "name": "C2",
          "ticks": 100920,
          "time": 105.125,
          "velocity": 0.5039370078740157
        },
        {
          "duration": 0.041666666666671404,
          "durationTicks": 40,
          "midi": 42,
          "name": "F#2",
          "ticks": 101040,
          "time": 105.25,
          "velocity": 0.5039370078740157
        },
        {
          "duration": 0.06562499999999716,
          "durationTicks": 63,
          "midi": 36,
          "name": "C2",
          "ticks": 101040,
          "time": 105.25,
          "velocity": 0.5039370078740157
        },
        {
          "duration": 0.046875,
          "durationTicks": 45,
          "midi": 44,
          "name": "G#2",
          "ticks": 101160,
          "time": 105.375,
          "velocity": 0.5039370078740157
        },
        {
          "duration": 0.041666666666671404,
          "durationTicks": 40,
          "midi": 42,
          "name": "F#2",
          "ticks": 101280,
          "time": 105.5,
          "velocity": 0.5039370078740157
        },
        {
          "duration": 0.4375,
          "durationTicks": 420,
          "midi": 38,
          "name": "D2",
          "ticks": 101280,
          "time": 105.5,
          "velocity": 0.5039370078740157
        },
        {
          "duration": 0.03125,
          "durationTicks": 30,
          "midi": 42,
          "name": "F#2",
          "ticks": 101400,
          "time": 105.625,
          "velocity": 0.5039370078740157
        },
        {
          "duration": 0.07083333333333997,
          "durationTicks": 68,
          "midi": 44,
          "name": "G#2",
          "ticks": 101520,
          "time": 105.75,
          "velocity": 0.5039370078740157
        },
        {
          "duration": 0.04479166666666856,
          "durationTicks": 43,
          "midi": 42,
          "name": "F#2",
          "ticks": 101640,
          "time": 105.875,
          "velocity": 0.5039370078740157
        },
        {
          "duration": 0.07604166666666856,
          "durationTicks": 73,
          "midi": 36,
          "name": "C2",
          "ticks": 101760,
          "time": 106,
          "velocity": 0.5039370078740157
        },
        {
          "duration": 0.04999999999999716,
          "durationTicks": 48,
          "midi": 42,
          "name": "F#2",
          "ticks": 101880,
          "time": 106.125,
          "velocity": 0.5039370078740157
        },
        {
          "duration": 0.046875,
          "durationTicks": 45,
          "midi": 44,
          "name": "G#2",
          "ticks": 102000,
          "time": 106.25,
          "velocity": 0.5039370078740157
        },
        {
          "duration": 0.039583333333339965,
          "durationTicks": 38,
          "midi": 42,
          "name": "F#2",
          "ticks": 102120,
          "time": 106.375,
          "velocity": 0.5039370078740157
        },
        {
          "duration": 0.03437499999999716,
          "durationTicks": 33,
          "midi": 42,
          "name": "F#2",
          "ticks": 102240,
          "time": 106.5,
          "velocity": 0.5039370078740157
        },
        {
          "duration": 0.4375,
          "durationTicks": 420,
          "midi": 38,
          "name": "D2",
          "ticks": 102240,
          "time": 106.5,
          "velocity": 0.5039370078740157
        },
        {
          "duration": 0.02916666666666856,
          "durationTicks": 28,
          "midi": 42,
          "name": "F#2",
          "ticks": 102360,
          "time": 106.625,
          "velocity": 0.5039370078740157
        },
        {
          "duration": 0.041666666666671404,
          "durationTicks": 40,
          "midi": 42,
          "name": "F#2",
          "ticks": 102480,
          "time": 106.75,
          "velocity": 0.5039370078740157
        },
        {
          "duration": 0.04999999999999716,
          "durationTicks": 48,
          "midi": 44,
          "name": "G#2",
          "ticks": 102600,
          "time": 106.875,
          "velocity": 0.5039370078740157
        },
        {
          "duration": 0.0729166666666714,
          "durationTicks": 70,
          "midi": 36,
          "name": "C2",
          "ticks": 102600,
          "time": 106.875,
          "velocity": 0.5039370078740157
        },
        {
          "duration": 0.04479166666666856,
          "durationTicks": 43,
          "midi": 42,
          "name": "F#2",
          "ticks": 102720,
          "time": 107,
          "velocity": 0.5039370078740157
        },
        {
          "duration": 0.039583333333339965,
          "durationTicks": 38,
          "midi": 42,
          "name": "F#2",
          "ticks": 102840,
          "time": 107.125,
          "velocity": 0.5039370078740157
        },
        {
          "duration": 0.055208333333339965,
          "durationTicks": 53,
          "midi": 36,
          "name": "C2",
          "ticks": 102840,
          "time": 107.125,
          "velocity": 0.5039370078740157
        },
        {
          "duration": 0.041666666666671404,
          "durationTicks": 40,
          "midi": 42,
          "name": "F#2",
          "ticks": 102960,
          "time": 107.25,
          "velocity": 0.5039370078740157
        },
        {
          "duration": 0.0729166666666714,
          "durationTicks": 70,
          "midi": 36,
          "name": "C2",
          "ticks": 102960,
          "time": 107.25,
          "velocity": 0.5039370078740157
        },
        {
          "duration": 0.046875,
          "durationTicks": 45,
          "midi": 44,
          "name": "G#2",
          "ticks": 103080,
          "time": 107.375,
          "velocity": 0.5039370078740157
        },
        {
          "duration": 0.041666666666671404,
          "durationTicks": 40,
          "midi": 42,
          "name": "F#2",
          "ticks": 103200,
          "time": 107.5,
          "velocity": 0.5039370078740157
        },
        {
          "duration": 0.07083333333333997,
          "durationTicks": 68,
          "midi": 36,
          "name": "C2",
          "ticks": 103200,
          "time": 107.5,
          "velocity": 0.5039370078740157
        },
        {
          "duration": 0.4375,
          "durationTicks": 420,
          "midi": 38,
          "name": "D2",
          "ticks": 103200,
          "time": 107.5,
          "velocity": 0.5039370078740157
        },
        {
          "duration": 0.03125,
          "durationTicks": 30,
          "midi": 42,
          "name": "F#2",
          "ticks": 103320,
          "time": 107.625,
          "velocity": 0.5039370078740157
        },
        {
          "duration": 0.0625,
          "durationTicks": 60,
          "midi": 36,
          "name": "C2",
          "ticks": 103440,
          "time": 107.75,
          "velocity": 0.5039370078740157
        },
        {
          "duration": 0.07083333333333997,
          "durationTicks": 68,
          "midi": 44,
          "name": "G#2",
          "ticks": 103440,
          "time": 107.75,
          "velocity": 0.5039370078740157
        },
        {
          "duration": 0.04479166666666856,
          "durationTicks": 43,
          "midi": 42,
          "name": "F#2",
          "ticks": 103560,
          "time": 107.875,
          "velocity": 0.5039370078740157
        },
        {
          "duration": 0.06041666666666856,
          "durationTicks": 58,
          "midi": 36,
          "name": "C2",
          "ticks": 103680,
          "time": 108,
          "velocity": 0.5039370078740157
        },
        {
          "duration": 0.04999999999999716,
          "durationTicks": 48,
          "midi": 42,
          "name": "F#2",
          "ticks": 103800,
          "time": 108.125,
          "velocity": 0.5039370078740157
        },
        {
          "duration": 0.046875,
          "durationTicks": 45,
          "midi": 44,
          "name": "G#2",
          "ticks": 103920,
          "time": 108.25,
          "velocity": 0.5039370078740157
        },
        {
          "duration": 0.039583333333339965,
          "durationTicks": 38,
          "midi": 42,
          "name": "F#2",
          "ticks": 104040,
          "time": 108.375,
          "velocity": 0.5039370078740157
        },
        {
          "duration": 0.03437499999999716,
          "durationTicks": 33,
          "midi": 42,
          "name": "F#2",
          "ticks": 104160,
          "time": 108.5,
          "velocity": 0.5039370078740157
        },
        {
          "duration": 0.4375,
          "durationTicks": 420,
          "midi": 38,
          "name": "D2",
          "ticks": 104160,
          "time": 108.5,
          "velocity": 0.5039370078740157
        },
        {
          "duration": 0.02916666666666856,
          "durationTicks": 28,
          "midi": 42,
          "name": "F#2",
          "ticks": 104280,
          "time": 108.625,
          "velocity": 0.5039370078740157
        },
        {
          "duration": 0.041666666666671404,
          "durationTicks": 40,
          "midi": 42,
          "name": "F#2",
          "ticks": 104400,
          "time": 108.75,
          "velocity": 0.5039370078740157
        },
        {
          "duration": 0.04999999999999716,
          "durationTicks": 48,
          "midi": 44,
          "name": "G#2",
          "ticks": 104520,
          "time": 108.875,
          "velocity": 0.5039370078740157
        },
        {
          "duration": 0.04479166666666856,
          "durationTicks": 43,
          "midi": 42,
          "name": "F#2",
          "ticks": 104640,
          "time": 109,
          "velocity": 0.5039370078740157
        },
        {
          "duration": 0.039583333333339965,
          "durationTicks": 38,
          "midi": 42,
          "name": "F#2",
          "ticks": 104760,
          "time": 109.125,
          "velocity": 0.5039370078740157
        },
        {
          "duration": 0.055208333333339965,
          "durationTicks": 53,
          "midi": 36,
          "name": "C2",
          "ticks": 104760,
          "time": 109.125,
          "velocity": 0.5039370078740157
        },
        {
          "duration": 0.041666666666671404,
          "durationTicks": 40,
          "midi": 42,
          "name": "F#2",
          "ticks": 104880,
          "time": 109.25,
          "velocity": 0.5039370078740157
        },
        {
          "duration": 0.06041666666666856,
          "durationTicks": 58,
          "midi": 36,
          "name": "C2",
          "ticks": 104880,
          "time": 109.25,
          "velocity": 0.5039370078740157
        },
        {
          "duration": 0.046875,
          "durationTicks": 45,
          "midi": 44,
          "name": "G#2",
          "ticks": 105000,
          "time": 109.375,
          "velocity": 0.5039370078740157
        },
        {
          "duration": 0.041666666666671404,
          "durationTicks": 40,
          "midi": 42,
          "name": "F#2",
          "ticks": 105120,
          "time": 109.5,
          "velocity": 0.5039370078740157
        },
        {
          "duration": 0.055208333333339965,
          "durationTicks": 53,
          "midi": 36,
          "name": "C2",
          "ticks": 105120,
          "time": 109.5,
          "velocity": 0.5039370078740157
        },
        {
          "duration": 0.4375,
          "durationTicks": 420,
          "midi": 38,
          "name": "D2",
          "ticks": 105120,
          "time": 109.5,
          "velocity": 0.5039370078740157
        },
        {
          "duration": 0.03125,
          "durationTicks": 30,
          "midi": 42,
          "name": "F#2",
          "ticks": 105240,
          "time": 109.625,
          "velocity": 0.5039370078740157
        },
        {
          "duration": 0.07083333333333997,
          "durationTicks": 68,
          "midi": 44,
          "name": "G#2",
          "ticks": 105360,
          "time": 109.75,
          "velocity": 0.5039370078740157
        },
        {
          "duration": 0.055208333333339965,
          "durationTicks": 53,
          "midi": 36,
          "name": "C2",
          "ticks": 105360,
          "time": 109.75,
          "velocity": 0.5039370078740157
        },
        {
          "duration": 0.04479166666666856,
          "durationTicks": 43,
          "midi": 42,
          "name": "F#2",
          "ticks": 105480,
          "time": 109.875,
          "velocity": 0.5039370078740157
        },
        {
          "duration": 0.11770833333333997,
          "durationTicks": 113,
          "midi": 36,
          "name": "C2",
          "ticks": 105600,
          "time": 110,
          "velocity": 0.5039370078740157
        },
        {
          "duration": 0.04999999999999716,
          "durationTicks": 48,
          "midi": 42,
          "name": "F#2",
          "ticks": 105720,
          "time": 110.125,
          "velocity": 0.5039370078740157
        },
        {
          "duration": 0.046875,
          "durationTicks": 45,
          "midi": 44,
          "name": "G#2",
          "ticks": 105840,
          "time": 110.25,
          "velocity": 0.5039370078740157
        },
        {
          "duration": 0.039583333333339965,
          "durationTicks": 38,
          "midi": 42,
          "name": "F#2",
          "ticks": 105960,
          "time": 110.375,
          "velocity": 0.5039370078740157
        },
        {
          "duration": 0.03437499999999716,
          "durationTicks": 33,
          "midi": 42,
          "name": "F#2",
          "ticks": 106080,
          "time": 110.5,
          "velocity": 0.5039370078740157
        },
        {
          "duration": 0.4375,
          "durationTicks": 420,
          "midi": 38,
          "name": "D2",
          "ticks": 106080,
          "time": 110.5,
          "velocity": 0.5039370078740157
        },
        {
          "duration": 0.02916666666666856,
          "durationTicks": 28,
          "midi": 42,
          "name": "F#2",
          "ticks": 106200,
          "time": 110.625,
          "velocity": 0.5039370078740157
        },
        {
          "duration": 0.041666666666671404,
          "durationTicks": 40,
          "midi": 42,
          "name": "F#2",
          "ticks": 106320,
          "time": 110.75,
          "velocity": 0.5039370078740157
        },
        {
          "duration": 0.04999999999999716,
          "durationTicks": 48,
          "midi": 44,
          "name": "G#2",
          "ticks": 106440,
          "time": 110.875,
          "velocity": 0.5039370078740157
        },
        {
          "duration": 0.04479166666666856,
          "durationTicks": 43,
          "midi": 42,
          "name": "F#2",
          "ticks": 106560,
          "time": 111,
          "velocity": 0.5039370078740157
        },
        {
          "duration": 0.039583333333339965,
          "durationTicks": 38,
          "midi": 42,
          "name": "F#2",
          "ticks": 106680,
          "time": 111.125,
          "velocity": 0.5039370078740157
        },
        {
          "duration": 0.0625,
          "durationTicks": 60,
          "midi": 36,
          "name": "C2",
          "ticks": 106680,
          "time": 111.125,
          "velocity": 0.5039370078740157
        },
        {
          "duration": 0.041666666666671404,
          "durationTicks": 40,
          "midi": 42,
          "name": "F#2",
          "ticks": 106800,
          "time": 111.25,
          "velocity": 0.5039370078740157
        },
        {
          "duration": 0.0677083333333286,
          "durationTicks": 65,
          "midi": 36,
          "name": "C2",
          "ticks": 106800,
          "time": 111.25,
          "velocity": 0.5039370078740157
        },
        {
          "duration": 0.046875,
          "durationTicks": 45,
          "midi": 44,
          "name": "G#2",
          "ticks": 106920,
          "time": 111.375,
          "velocity": 0.5039370078740157
        },
        {
          "duration": 0.041666666666671404,
          "durationTicks": 40,
          "midi": 42,
          "name": "F#2",
          "ticks": 107040,
          "time": 111.5,
          "velocity": 0.5039370078740157
        },
        {
          "duration": 0.4375,
          "durationTicks": 420,
          "midi": 38,
          "name": "D2",
          "ticks": 107040,
          "time": 111.5,
          "velocity": 0.5039370078740157
        },
        {
          "duration": 0.0625,
          "durationTicks": 60,
          "midi": 36,
          "name": "C2",
          "ticks": 107040,
          "time": 111.5,
          "velocity": 0.5039370078740157
        },
        {
          "duration": 0.03125,
          "durationTicks": 30,
          "midi": 42,
          "name": "F#2",
          "ticks": 107160,
          "time": 111.625,
          "velocity": 0.5039370078740157
        },
        {
          "duration": 0.07083333333333997,
          "durationTicks": 68,
          "midi": 44,
          "name": "G#2",
          "ticks": 107280,
          "time": 111.75,
          "velocity": 0.5039370078740157
        },
        {
          "duration": 0.0625,
          "durationTicks": 60,
          "midi": 36,
          "name": "C2",
          "ticks": 107280,
          "time": 111.75,
          "velocity": 0.5039370078740157
        },
        {
          "duration": 0.04479166666666856,
          "durationTicks": 43,
          "midi": 42,
          "name": "F#2",
          "ticks": 107400,
          "time": 111.875,
          "velocity": 0.5039370078740157
        },
        {
          "duration": 0.04999999999999716,
          "durationTicks": 48,
          "midi": 42,
          "name": "F#2",
          "ticks": 107640,
          "time": 112.125,
          "velocity": 0.5039370078740157
        },
        {
          "duration": 0.046875,
          "durationTicks": 45,
          "midi": 44,
          "name": "G#2",
          "ticks": 107760,
          "time": 112.25,
          "velocity": 0.5039370078740157
        },
        {
          "duration": 0.039583333333339965,
          "durationTicks": 38,
          "midi": 42,
          "name": "F#2",
          "ticks": 107880,
          "time": 112.375,
          "velocity": 0.5039370078740157
        },
        {
          "duration": 0.03437499999999716,
          "durationTicks": 33,
          "midi": 42,
          "name": "F#2",
          "ticks": 108000,
          "time": 112.5,
          "velocity": 0.5039370078740157
        },
        {
          "duration": 0.4375,
          "durationTicks": 420,
          "midi": 38,
          "name": "D2",
          "ticks": 108000,
          "time": 112.5,
          "velocity": 0.5039370078740157
        },
        {
          "duration": 0.02916666666666856,
          "durationTicks": 28,
          "midi": 42,
          "name": "F#2",
          "ticks": 108120,
          "time": 112.625,
          "velocity": 0.5039370078740157
        },
        {
          "duration": 0.041666666666671404,
          "durationTicks": 40,
          "midi": 42,
          "name": "F#2",
          "ticks": 108240,
          "time": 112.75,
          "velocity": 0.5039370078740157
        },
        {
          "duration": 0.04999999999999716,
          "durationTicks": 48,
          "midi": 44,
          "name": "G#2",
          "ticks": 108360,
          "time": 112.875,
          "velocity": 0.5039370078740157
        },
        {
          "duration": 0.04479166666666856,
          "durationTicks": 43,
          "midi": 42,
          "name": "F#2",
          "ticks": 108480,
          "time": 113,
          "velocity": 0.5039370078740157
        },
        {
          "duration": 0.039583333333339965,
          "durationTicks": 38,
          "midi": 42,
          "name": "F#2",
          "ticks": 108600,
          "time": 113.125,
          "velocity": 0.5039370078740157
        },
        {
          "duration": 0.0625,
          "durationTicks": 60,
          "midi": 36,
          "name": "C2",
          "ticks": 108600,
          "time": 113.125,
          "velocity": 0.5039370078740157
        },
        {
          "duration": 0.041666666666671404,
          "durationTicks": 40,
          "midi": 42,
          "name": "F#2",
          "ticks": 108720,
          "time": 113.25,
          "velocity": 0.5039370078740157
        },
        {
          "duration": 0.06562499999999716,
          "durationTicks": 63,
          "midi": 36,
          "name": "C2",
          "ticks": 108720,
          "time": 113.25,
          "velocity": 0.5039370078740157
        },
        {
          "duration": 0.046875,
          "durationTicks": 45,
          "midi": 44,
          "name": "G#2",
          "ticks": 108840,
          "time": 113.375,
          "velocity": 0.5039370078740157
        },
        {
          "duration": 0.041666666666671404,
          "durationTicks": 40,
          "midi": 42,
          "name": "F#2",
          "ticks": 108960,
          "time": 113.5,
          "velocity": 0.5039370078740157
        },
        {
          "duration": 0.4375,
          "durationTicks": 420,
          "midi": 38,
          "name": "D2",
          "ticks": 108960,
          "time": 113.5,
          "velocity": 0.5039370078740157
        },
        {
          "duration": 0.03125,
          "durationTicks": 30,
          "midi": 42,
          "name": "F#2",
          "ticks": 109080,
          "time": 113.625,
          "velocity": 0.5039370078740157
        },
        {
          "duration": 0.07083333333333997,
          "durationTicks": 68,
          "midi": 44,
          "name": "G#2",
          "ticks": 109200,
          "time": 113.75,
          "velocity": 0.5039370078740157
        },
        {
          "duration": 0.04479166666666856,
          "durationTicks": 43,
          "midi": 42,
          "name": "F#2",
          "ticks": 109320,
          "time": 113.875,
          "velocity": 0.5039370078740157
        },
        {
          "duration": 0.07604166666666856,
          "durationTicks": 73,
          "midi": 36,
          "name": "C2",
          "ticks": 109440,
          "time": 114,
          "velocity": 0.5039370078740157
        },
        {
          "duration": 0.04999999999999716,
          "durationTicks": 48,
          "midi": 42,
          "name": "F#2",
          "ticks": 109560,
          "time": 114.125,
          "velocity": 0.5039370078740157
        },
        {
          "duration": 0.046875,
          "durationTicks": 45,
          "midi": 44,
          "name": "G#2",
          "ticks": 109680,
          "time": 114.25,
          "velocity": 0.5039370078740157
        },
        {
          "duration": 0.039583333333339965,
          "durationTicks": 38,
          "midi": 42,
          "name": "F#2",
          "ticks": 109800,
          "time": 114.375,
          "velocity": 0.5039370078740157
        },
        {
          "duration": 0.03437499999999716,
          "durationTicks": 33,
          "midi": 42,
          "name": "F#2",
          "ticks": 109920,
          "time": 114.5,
          "velocity": 0.5039370078740157
        },
        {
          "duration": 0.4375,
          "durationTicks": 420,
          "midi": 38,
          "name": "D2",
          "ticks": 109920,
          "time": 114.5,
          "velocity": 0.5039370078740157
        },
        {
          "duration": 0.02916666666666856,
          "durationTicks": 28,
          "midi": 42,
          "name": "F#2",
          "ticks": 110040,
          "time": 114.625,
          "velocity": 0.5039370078740157
        },
        {
          "duration": 0.041666666666671404,
          "durationTicks": 40,
          "midi": 42,
          "name": "F#2",
          "ticks": 110160,
          "time": 114.75,
          "velocity": 0.5039370078740157
        },
        {
          "duration": 0.04999999999999716,
          "durationTicks": 48,
          "midi": 44,
          "name": "G#2",
          "ticks": 110280,
          "time": 114.875,
          "velocity": 0.5039370078740157
        },
        {
          "duration": 0.0729166666666714,
          "durationTicks": 70,
          "midi": 36,
          "name": "C2",
          "ticks": 110280,
          "time": 114.875,
          "velocity": 0.5039370078740157
        },
        {
          "duration": 0.04479166666666856,
          "durationTicks": 43,
          "midi": 42,
          "name": "F#2",
          "ticks": 110400,
          "time": 115,
          "velocity": 0.5039370078740157
        },
        {
          "duration": 0.039583333333339965,
          "durationTicks": 38,
          "midi": 42,
          "name": "F#2",
          "ticks": 110520,
          "time": 115.125,
          "velocity": 0.5039370078740157
        },
        {
          "duration": 0.055208333333339965,
          "durationTicks": 53,
          "midi": 36,
          "name": "C2",
          "ticks": 110520,
          "time": 115.125,
          "velocity": 0.5039370078740157
        },
        {
          "duration": 0.041666666666671404,
          "durationTicks": 40,
          "midi": 42,
          "name": "F#2",
          "ticks": 110640,
          "time": 115.25,
          "velocity": 0.5039370078740157
        },
        {
          "duration": 0.0729166666666714,
          "durationTicks": 70,
          "midi": 36,
          "name": "C2",
          "ticks": 110640,
          "time": 115.25,
          "velocity": 0.5039370078740157
        },
        {
          "duration": 0.046875,
          "durationTicks": 45,
          "midi": 44,
          "name": "G#2",
          "ticks": 110760,
          "time": 115.375,
          "velocity": 0.5039370078740157
        },
        {
          "duration": 0.041666666666671404,
          "durationTicks": 40,
          "midi": 42,
          "name": "F#2",
          "ticks": 110880,
          "time": 115.5,
          "velocity": 0.5039370078740157
        },
        {
          "duration": 0.07083333333333997,
          "durationTicks": 68,
          "midi": 36,
          "name": "C2",
          "ticks": 110880,
          "time": 115.5,
          "velocity": 0.5039370078740157
        },
        {
          "duration": 0.4375,
          "durationTicks": 420,
          "midi": 38,
          "name": "D2",
          "ticks": 110880,
          "time": 115.5,
          "velocity": 0.5039370078740157
        },
        {
          "duration": 0.03125,
          "durationTicks": 30,
          "midi": 42,
          "name": "F#2",
          "ticks": 111000,
          "time": 115.625,
          "velocity": 0.5039370078740157
        },
        {
          "duration": 0.0625,
          "durationTicks": 60,
          "midi": 36,
          "name": "C2",
          "ticks": 111120,
          "time": 115.75,
          "velocity": 0.5039370078740157
        },
        {
          "duration": 0.07083333333333997,
          "durationTicks": 68,
          "midi": 44,
          "name": "G#2",
          "ticks": 111120,
          "time": 115.75,
          "velocity": 0.5039370078740157
        },
        {
          "duration": 0.04479166666666856,
          "durationTicks": 43,
          "midi": 42,
          "name": "F#2",
          "ticks": 111240,
          "time": 115.875,
          "velocity": 0.5039370078740157
        },
        {
          "duration": 0.06041666666666856,
          "durationTicks": 58,
          "midi": 36,
          "name": "C2",
          "ticks": 111360,
          "time": 116,
          "velocity": 0.5039370078740157
        },
        {
          "duration": 0.04999999999999716,
          "durationTicks": 48,
          "midi": 42,
          "name": "F#2",
          "ticks": 111480,
          "time": 116.125,
          "velocity": 0.5039370078740157
        },
        {
          "duration": 0.046875,
          "durationTicks": 45,
          "midi": 44,
          "name": "G#2",
          "ticks": 111600,
          "time": 116.25,
          "velocity": 0.5039370078740157
        },
        {
          "duration": 0.039583333333339965,
          "durationTicks": 38,
          "midi": 42,
          "name": "F#2",
          "ticks": 111720,
          "time": 116.375,
          "velocity": 0.5039370078740157
        },
        {
          "duration": 0.03437499999999716,
          "durationTicks": 33,
          "midi": 42,
          "name": "F#2",
          "ticks": 111840,
          "time": 116.5,
          "velocity": 0.5039370078740157
        },
        {
          "duration": 0.4375,
          "durationTicks": 420,
          "midi": 38,
          "name": "D2",
          "ticks": 111840,
          "time": 116.5,
          "velocity": 0.5039370078740157
        },
        {
          "duration": 0.02916666666666856,
          "durationTicks": 28,
          "midi": 42,
          "name": "F#2",
          "ticks": 111960,
          "time": 116.625,
          "velocity": 0.5039370078740157
        },
        {
          "duration": 0.041666666666671404,
          "durationTicks": 40,
          "midi": 42,
          "name": "F#2",
          "ticks": 112080,
          "time": 116.75,
          "velocity": 0.5039370078740157
        },
        {
          "duration": 0.04999999999999716,
          "durationTicks": 48,
          "midi": 44,
          "name": "G#2",
          "ticks": 112200,
          "time": 116.875,
          "velocity": 0.5039370078740157
        },
        {
          "duration": 0.04479166666666856,
          "durationTicks": 43,
          "midi": 42,
          "name": "F#2",
          "ticks": 112320,
          "time": 117,
          "velocity": 0.5039370078740157
        },
        {
          "duration": 0.039583333333339965,
          "durationTicks": 38,
          "midi": 42,
          "name": "F#2",
          "ticks": 112440,
          "time": 117.125,
          "velocity": 0.5039370078740157
        },
        {
          "duration": 0.055208333333339965,
          "durationTicks": 53,
          "midi": 36,
          "name": "C2",
          "ticks": 112440,
          "time": 117.125,
          "velocity": 0.5039370078740157
        },
        {
          "duration": 0.041666666666671404,
          "durationTicks": 40,
          "midi": 42,
          "name": "F#2",
          "ticks": 112560,
          "time": 117.25,
          "velocity": 0.5039370078740157
        },
        {
          "duration": 0.06041666666666856,
          "durationTicks": 58,
          "midi": 36,
          "name": "C2",
          "ticks": 112560,
          "time": 117.25,
          "velocity": 0.5039370078740157
        },
        {
          "duration": 0.046875,
          "durationTicks": 45,
          "midi": 44,
          "name": "G#2",
          "ticks": 112680,
          "time": 117.375,
          "velocity": 0.5039370078740157
        },
        {
          "duration": 0.041666666666671404,
          "durationTicks": 40,
          "midi": 42,
          "name": "F#2",
          "ticks": 112800,
          "time": 117.5,
          "velocity": 0.5039370078740157
        },
        {
          "duration": 0.055208333333339965,
          "durationTicks": 53,
          "midi": 36,
          "name": "C2",
          "ticks": 112800,
          "time": 117.5,
          "velocity": 0.5039370078740157
        },
        {
          "duration": 0.4375,
          "durationTicks": 420,
          "midi": 38,
          "name": "D2",
          "ticks": 112800,
          "time": 117.5,
          "velocity": 0.5039370078740157
        },
        {
          "duration": 0.03125,
          "durationTicks": 30,
          "midi": 42,
          "name": "F#2",
          "ticks": 112920,
          "time": 117.625,
          "velocity": 0.5039370078740157
        },
        {
          "duration": 0.07083333333333997,
          "durationTicks": 68,
          "midi": 44,
          "name": "G#2",
          "ticks": 113040,
          "time": 117.75,
          "velocity": 0.5039370078740157
        },
        {
          "duration": 0.055208333333339965,
          "durationTicks": 53,
          "midi": 36,
          "name": "C2",
          "ticks": 113040,
          "time": 117.75,
          "velocity": 0.5039370078740157
        },
        {
          "duration": 0.04479166666666856,
          "durationTicks": 43,
          "midi": 42,
          "name": "F#2",
          "ticks": 113160,
          "time": 117.875,
          "velocity": 0.5039370078740157
        },
        {
          "duration": 0.11770833333333997,
          "durationTicks": 113,
          "midi": 36,
          "name": "C2",
          "ticks": 113280,
          "time": 118,
          "velocity": 0.5039370078740157
        },
        {
          "duration": 0.04999999999999716,
          "durationTicks": 48,
          "midi": 42,
          "name": "F#2",
          "ticks": 113400,
          "time": 118.125,
          "velocity": 0.5039370078740157
        },
        {
          "duration": 0.046875,
          "durationTicks": 45,
          "midi": 44,
          "name": "G#2",
          "ticks": 113520,
          "time": 118.25,
          "velocity": 0.5039370078740157
        },
        {
          "duration": 0.039583333333339965,
          "durationTicks": 38,
          "midi": 42,
          "name": "F#2",
          "ticks": 113640,
          "time": 118.375,
          "velocity": 0.5039370078740157
        },
        {
          "duration": 0.03437499999999716,
          "durationTicks": 33,
          "midi": 42,
          "name": "F#2",
          "ticks": 113760,
          "time": 118.5,
          "velocity": 0.5039370078740157
        },
        {
          "duration": 0.4375,
          "durationTicks": 420,
          "midi": 38,
          "name": "D2",
          "ticks": 113760,
          "time": 118.5,
          "velocity": 0.5039370078740157
        },
        {
          "duration": 0.02916666666666856,
          "durationTicks": 28,
          "midi": 42,
          "name": "F#2",
          "ticks": 113880,
          "time": 118.625,
          "velocity": 0.5039370078740157
        },
        {
          "duration": 0.041666666666671404,
          "durationTicks": 40,
          "midi": 42,
          "name": "F#2",
          "ticks": 114000,
          "time": 118.75,
          "velocity": 0.5039370078740157
        },
        {
          "duration": 0.04999999999999716,
          "durationTicks": 48,
          "midi": 44,
          "name": "G#2",
          "ticks": 114120,
          "time": 118.875,
          "velocity": 0.5039370078740157
        },
        {
          "duration": 0.04479166666666856,
          "durationTicks": 43,
          "midi": 42,
          "name": "F#2",
          "ticks": 114240,
          "time": 119,
          "velocity": 0.5039370078740157
        },
        {
          "duration": 0.039583333333339965,
          "durationTicks": 38,
          "midi": 42,
          "name": "F#2",
          "ticks": 114360,
          "time": 119.125,
          "velocity": 0.5039370078740157
        },
        {
          "duration": 0.0625,
          "durationTicks": 60,
          "midi": 36,
          "name": "C2",
          "ticks": 114360,
          "time": 119.125,
          "velocity": 0.5039370078740157
        },
        {
          "duration": 0.041666666666671404,
          "durationTicks": 40,
          "midi": 42,
          "name": "F#2",
          "ticks": 114480,
          "time": 119.25,
          "velocity": 0.5039370078740157
        },
        {
          "duration": 0.0677083333333286,
          "durationTicks": 65,
          "midi": 36,
          "name": "C2",
          "ticks": 114480,
          "time": 119.25,
          "velocity": 0.5039370078740157
        },
        {
          "duration": 0.046875,
          "durationTicks": 45,
          "midi": 44,
          "name": "G#2",
          "ticks": 114600,
          "time": 119.375,
          "velocity": 0.5039370078740157
        },
        {
          "duration": 0.041666666666671404,
          "durationTicks": 40,
          "midi": 42,
          "name": "F#2",
          "ticks": 114720,
          "time": 119.5,
          "velocity": 0.5039370078740157
        },
        {
          "duration": 0.4375,
          "durationTicks": 420,
          "midi": 38,
          "name": "D2",
          "ticks": 114720,
          "time": 119.5,
          "velocity": 0.5039370078740157
        },
        {
          "duration": 0.0625,
          "durationTicks": 60,
          "midi": 36,
          "name": "C2",
          "ticks": 114720,
          "time": 119.5,
          "velocity": 0.5039370078740157
        },
        {
          "duration": 0.03125,
          "durationTicks": 30,
          "midi": 42,
          "name": "F#2",
          "ticks": 114840,
          "time": 119.625,
          "velocity": 0.5039370078740157
        },
        {
          "duration": 0.07083333333333997,
          "durationTicks": 68,
          "midi": 44,
          "name": "G#2",
          "ticks": 114960,
          "time": 119.75,
          "velocity": 0.5039370078740157
        },
        {
          "duration": 0.0625,
          "durationTicks": 60,
          "midi": 36,
          "name": "C2",
          "ticks": 114960,
          "time": 119.75,
          "velocity": 0.5039370078740157
        },
        {
          "duration": 0.04479166666666856,
          "durationTicks": 43,
          "midi": 42,
          "name": "F#2",
          "ticks": 115080,
          "time": 119.875,
          "velocity": 0.5039370078740157
        },
        {
          "duration": 0.04999999999999716,
          "durationTicks": 48,
          "midi": 42,
          "name": "F#2",
          "ticks": 115320,
          "time": 120.125,
          "velocity": 0.5039370078740157
        },
        {
          "duration": 0.046875,
          "durationTicks": 45,
          "midi": 44,
          "name": "G#2",
          "ticks": 115440,
          "time": 120.25,
          "velocity": 0.5039370078740157
        },
        {
          "duration": 0.039583333333339965,
          "durationTicks": 38,
          "midi": 42,
          "name": "F#2",
          "ticks": 115560,
          "time": 120.375,
          "velocity": 0.5039370078740157
        },
        {
          "duration": 0.03437499999999716,
          "durationTicks": 33,
          "midi": 42,
          "name": "F#2",
          "ticks": 115680,
          "time": 120.5,
          "velocity": 0.5039370078740157
        },
        {
          "duration": 0.4375,
          "durationTicks": 420,
          "midi": 38,
          "name": "D2",
          "ticks": 115680,
          "time": 120.5,
          "velocity": 0.5039370078740157
        },
        {
          "duration": 0.02916666666666856,
          "durationTicks": 28,
          "midi": 42,
          "name": "F#2",
          "ticks": 115800,
          "time": 120.625,
          "velocity": 0.5039370078740157
        },
        {
          "duration": 0.041666666666671404,
          "durationTicks": 40,
          "midi": 42,
          "name": "F#2",
          "ticks": 115920,
          "time": 120.75,
          "velocity": 0.5039370078740157
        },
        {
          "duration": 0.04999999999999716,
          "durationTicks": 48,
          "midi": 44,
          "name": "G#2",
          "ticks": 116040,
          "time": 120.875,
          "velocity": 0.5039370078740157
        },
        {
          "duration": 0.04479166666666856,
          "durationTicks": 43,
          "midi": 42,
          "name": "F#2",
          "ticks": 116160,
          "time": 121,
          "velocity": 0.5039370078740157
        },
        {
          "duration": 0.039583333333339965,
          "durationTicks": 38,
          "midi": 42,
          "name": "F#2",
          "ticks": 116280,
          "time": 121.125,
          "velocity": 0.5039370078740157
        },
        {
          "duration": 0.0625,
          "durationTicks": 60,
          "midi": 36,
          "name": "C2",
          "ticks": 116280,
          "time": 121.125,
          "velocity": 0.5039370078740157
        },
        {
          "duration": 0.041666666666671404,
          "durationTicks": 40,
          "midi": 42,
          "name": "F#2",
          "ticks": 116400,
          "time": 121.25,
          "velocity": 0.5039370078740157
        },
        {
          "duration": 0.06562499999999716,
          "durationTicks": 63,
          "midi": 36,
          "name": "C2",
          "ticks": 116400,
          "time": 121.25,
          "velocity": 0.5039370078740157
        },
        {
          "duration": 0.046875,
          "durationTicks": 45,
          "midi": 44,
          "name": "G#2",
          "ticks": 116520,
          "time": 121.375,
          "velocity": 0.5039370078740157
        },
        {
          "duration": 0.041666666666671404,
          "durationTicks": 40,
          "midi": 42,
          "name": "F#2",
          "ticks": 116640,
          "time": 121.5,
          "velocity": 0.5039370078740157
        },
        {
          "duration": 0.4375,
          "durationTicks": 420,
          "midi": 38,
          "name": "D2",
          "ticks": 116640,
          "time": 121.5,
          "velocity": 0.5039370078740157
        },
        {
          "duration": 0.03125,
          "durationTicks": 30,
          "midi": 42,
          "name": "F#2",
          "ticks": 116760,
          "time": 121.625,
          "velocity": 0.5039370078740157
        },
        {
          "duration": 0.07083333333333997,
          "durationTicks": 68,
          "midi": 44,
          "name": "G#2",
          "ticks": 116880,
          "time": 121.75,
          "velocity": 0.5039370078740157
        },
        {
          "duration": 0.04479166666666856,
          "durationTicks": 43,
          "midi": 42,
          "name": "F#2",
          "ticks": 117000,
          "time": 121.875,
          "velocity": 0.5039370078740157
        },
        {
          "duration": 0.07604166666666856,
          "durationTicks": 73,
          "midi": 36,
          "name": "C2",
          "ticks": 117120,
          "time": 122,
          "velocity": 0.5039370078740157
        },
        {
          "duration": 0.04999999999999716,
          "durationTicks": 48,
          "midi": 42,
          "name": "F#2",
          "ticks": 117240,
          "time": 122.125,
          "velocity": 0.5039370078740157
        },
        {
          "duration": 0.046875,
          "durationTicks": 45,
          "midi": 44,
          "name": "G#2",
          "ticks": 117360,
          "time": 122.25,
          "velocity": 0.5039370078740157
        },
        {
          "duration": 0.039583333333339965,
          "durationTicks": 38,
          "midi": 42,
          "name": "F#2",
          "ticks": 117480,
          "time": 122.375,
          "velocity": 0.5039370078740157
        },
        {
          "duration": 0.03437499999999716,
          "durationTicks": 33,
          "midi": 42,
          "name": "F#2",
          "ticks": 117600,
          "time": 122.5,
          "velocity": 0.5039370078740157
        },
        {
          "duration": 0.4375,
          "durationTicks": 420,
          "midi": 38,
          "name": "D2",
          "ticks": 117600,
          "time": 122.5,
          "velocity": 0.5039370078740157
        },
        {
          "duration": 0.02916666666666856,
          "durationTicks": 28,
          "midi": 42,
          "name": "F#2",
          "ticks": 117720,
          "time": 122.625,
          "velocity": 0.5039370078740157
        },
        {
          "duration": 0.041666666666671404,
          "durationTicks": 40,
          "midi": 42,
          "name": "F#2",
          "ticks": 117840,
          "time": 122.75,
          "velocity": 0.5039370078740157
        },
        {
          "duration": 0.04999999999999716,
          "durationTicks": 48,
          "midi": 44,
          "name": "G#2",
          "ticks": 117960,
          "time": 122.875,
          "velocity": 0.5039370078740157
        },
        {
          "duration": 0.0729166666666714,
          "durationTicks": 70,
          "midi": 36,
          "name": "C2",
          "ticks": 117960,
          "time": 122.875,
          "velocity": 0.5039370078740157
        },
        {
          "duration": 0.04479166666666856,
          "durationTicks": 43,
          "midi": 42,
          "name": "F#2",
          "ticks": 118080,
          "time": 123,
          "velocity": 0.5039370078740157
        },
        {
          "duration": 0.039583333333339965,
          "durationTicks": 38,
          "midi": 42,
          "name": "F#2",
          "ticks": 118200,
          "time": 123.125,
          "velocity": 0.5039370078740157
        },
        {
          "duration": 0.055208333333339965,
          "durationTicks": 53,
          "midi": 36,
          "name": "C2",
          "ticks": 118200,
          "time": 123.125,
          "velocity": 0.5039370078740157
        },
        {
          "duration": 0.041666666666671404,
          "durationTicks": 40,
          "midi": 42,
          "name": "F#2",
          "ticks": 118320,
          "time": 123.25,
          "velocity": 0.5039370078740157
        },
        {
          "duration": 0.0729166666666714,
          "durationTicks": 70,
          "midi": 36,
          "name": "C2",
          "ticks": 118320,
          "time": 123.25,
          "velocity": 0.5039370078740157
        },
        {
          "duration": 0.046875,
          "durationTicks": 45,
          "midi": 44,
          "name": "G#2",
          "ticks": 118440,
          "time": 123.375,
          "velocity": 0.5039370078740157
        },
        {
          "duration": 0.041666666666671404,
          "durationTicks": 40,
          "midi": 42,
          "name": "F#2",
          "ticks": 118560,
          "time": 123.5,
          "velocity": 0.5039370078740157
        },
        {
          "duration": 0.07083333333333997,
          "durationTicks": 68,
          "midi": 36,
          "name": "C2",
          "ticks": 118560,
          "time": 123.5,
          "velocity": 0.5039370078740157
        },
        {
          "duration": 0.4375,
          "durationTicks": 420,
          "midi": 38,
          "name": "D2",
          "ticks": 118560,
          "time": 123.5,
          "velocity": 0.5039370078740157
        },
        {
          "duration": 0.03125,
          "durationTicks": 30,
          "midi": 42,
          "name": "F#2",
          "ticks": 118680,
          "time": 123.625,
          "velocity": 0.5039370078740157
        },
        {
          "duration": 0.0625,
          "durationTicks": 60,
          "midi": 36,
          "name": "C2",
          "ticks": 118800,
          "time": 123.75,
          "velocity": 0.5039370078740157
        },
        {
          "duration": 0.07083333333333997,
          "durationTicks": 68,
          "midi": 44,
          "name": "G#2",
          "ticks": 118800,
          "time": 123.75,
          "velocity": 0.5039370078740157
        },
        {
          "duration": 0.04479166666666856,
          "durationTicks": 43,
          "midi": 42,
          "name": "F#2",
          "ticks": 118920,
          "time": 123.875,
          "velocity": 0.5039370078740157
        },
        {
          "duration": 0.06041666666666856,
          "durationTicks": 58,
          "midi": 36,
          "name": "C2",
          "ticks": 119040,
          "time": 124,
          "velocity": 0.5039370078740157
        },
        {
          "duration": 0.04999999999999716,
          "durationTicks": 48,
          "midi": 42,
          "name": "F#2",
          "ticks": 119160,
          "time": 124.125,
          "velocity": 0.5039370078740157
        },
        {
          "duration": 0.046875,
          "durationTicks": 45,
          "midi": 44,
          "name": "G#2",
          "ticks": 119280,
          "time": 124.25,
          "velocity": 0.5039370078740157
        },
        {
          "duration": 0.039583333333339965,
          "durationTicks": 38,
          "midi": 42,
          "name": "F#2",
          "ticks": 119400,
          "time": 124.375,
          "velocity": 0.5039370078740157
        },
        {
          "duration": 0.03437499999999716,
          "durationTicks": 33,
          "midi": 42,
          "name": "F#2",
          "ticks": 119520,
          "time": 124.5,
          "velocity": 0.5039370078740157
        },
        {
          "duration": 0.4375,
          "durationTicks": 420,
          "midi": 38,
          "name": "D2",
          "ticks": 119520,
          "time": 124.5,
          "velocity": 0.5039370078740157
        },
        {
          "duration": 0.02916666666666856,
          "durationTicks": 28,
          "midi": 42,
          "name": "F#2",
          "ticks": 119640,
          "time": 124.625,
          "velocity": 0.5039370078740157
        },
        {
          "duration": 0.041666666666671404,
          "durationTicks": 40,
          "midi": 42,
          "name": "F#2",
          "ticks": 119760,
          "time": 124.75,
          "velocity": 0.5039370078740157
        },
        {
          "duration": 0.04999999999999716,
          "durationTicks": 48,
          "midi": 44,
          "name": "G#2",
          "ticks": 119880,
          "time": 124.875,
          "velocity": 0.5039370078740157
        },
        {
          "duration": 0.04479166666666856,
          "durationTicks": 43,
          "midi": 42,
          "name": "F#2",
          "ticks": 120000,
          "time": 125,
          "velocity": 0.5039370078740157
        },
        {
          "duration": 0.039583333333339965,
          "durationTicks": 38,
          "midi": 42,
          "name": "F#2",
          "ticks": 120120,
          "time": 125.125,
          "velocity": 0.5039370078740157
        },
        {
          "duration": 0.055208333333339965,
          "durationTicks": 53,
          "midi": 36,
          "name": "C2",
          "ticks": 120120,
          "time": 125.125,
          "velocity": 0.5039370078740157
        },
        {
          "duration": 0.041666666666671404,
          "durationTicks": 40,
          "midi": 42,
          "name": "F#2",
          "ticks": 120240,
          "time": 125.25,
          "velocity": 0.5039370078740157
        },
        {
          "duration": 0.06041666666666856,
          "durationTicks": 58,
          "midi": 36,
          "name": "C2",
          "ticks": 120240,
          "time": 125.25,
          "velocity": 0.5039370078740157
        },
        {
          "duration": 0.046875,
          "durationTicks": 45,
          "midi": 44,
          "name": "G#2",
          "ticks": 120360,
          "time": 125.375,
          "velocity": 0.5039370078740157
        },
        {
          "duration": 0.041666666666671404,
          "durationTicks": 40,
          "midi": 42,
          "name": "F#2",
          "ticks": 120480,
          "time": 125.5,
          "velocity": 0.5039370078740157
        },
        {
          "duration": 0.055208333333339965,
          "durationTicks": 53,
          "midi": 36,
          "name": "C2",
          "ticks": 120480,
          "time": 125.5,
          "velocity": 0.5039370078740157
        },
        {
          "duration": 0.4375,
          "durationTicks": 420,
          "midi": 38,
          "name": "D2",
          "ticks": 120480,
          "time": 125.5,
          "velocity": 0.5039370078740157
        },
        {
          "duration": 0.03125,
          "durationTicks": 30,
          "midi": 42,
          "name": "F#2",
          "ticks": 120600,
          "time": 125.625,
          "velocity": 0.5039370078740157
        },
        {
          "duration": 0.07083333333333997,
          "durationTicks": 68,
          "midi": 44,
          "name": "G#2",
          "ticks": 120720,
          "time": 125.75,
          "velocity": 0.5039370078740157
        },
        {
          "duration": 0.055208333333339965,
          "durationTicks": 53,
          "midi": 36,
          "name": "C2",
          "ticks": 120720,
          "time": 125.75,
          "velocity": 0.5039370078740157
        },
        {
          "duration": 0.04479166666666856,
          "durationTicks": 43,
          "midi": 42,
          "name": "F#2",
          "ticks": 120840,
          "time": 125.875,
          "velocity": 0.5039370078740157
        },
        {
          "duration": 0.11770833333333997,
          "durationTicks": 113,
          "midi": 36,
          "name": "C2",
          "ticks": 120960,
          "time": 126,
          "velocity": 0.5039370078740157
        },
        {
          "duration": 0.04999999999999716,
          "durationTicks": 48,
          "midi": 42,
          "name": "F#2",
          "ticks": 121080,
          "time": 126.125,
          "velocity": 0.5039370078740157
        },
        {
          "duration": 0.046875,
          "durationTicks": 45,
          "midi": 44,
          "name": "G#2",
          "ticks": 121200,
          "time": 126.25,
          "velocity": 0.5039370078740157
        },
        {
          "duration": 0.039583333333339965,
          "durationTicks": 38,
          "midi": 42,
          "name": "F#2",
          "ticks": 121320,
          "time": 126.375,
          "velocity": 0.5039370078740157
        },
        {
          "duration": 0.03437499999999716,
          "durationTicks": 33,
          "midi": 42,
          "name": "F#2",
          "ticks": 121440,
          "time": 126.5,
          "velocity": 0.5039370078740157
        },
        {
          "duration": 0.4375,
          "durationTicks": 420,
          "midi": 38,
          "name": "D2",
          "ticks": 121440,
          "time": 126.5,
          "velocity": 0.5039370078740157
        },
        {
          "duration": 0.02916666666666856,
          "durationTicks": 28,
          "midi": 42,
          "name": "F#2",
          "ticks": 121560,
          "time": 126.625,
          "velocity": 0.5039370078740157
        },
        {
          "duration": 0.041666666666671404,
          "durationTicks": 40,
          "midi": 42,
          "name": "F#2",
          "ticks": 121680,
          "time": 126.75,
          "velocity": 0.5039370078740157
        },
        {
          "duration": 0.04999999999999716,
          "durationTicks": 48,
          "midi": 44,
          "name": "G#2",
          "ticks": 121800,
          "time": 126.875,
          "velocity": 0.5039370078740157
        },
        {
          "duration": 0.04479166666666856,
          "durationTicks": 43,
          "midi": 42,
          "name": "F#2",
          "ticks": 121920,
          "time": 127,
          "velocity": 0.5039370078740157
        },
        {
          "duration": 0.039583333333339965,
          "durationTicks": 38,
          "midi": 42,
          "name": "F#2",
          "ticks": 122040,
          "time": 127.125,
          "velocity": 0.5039370078740157
        },
        {
          "duration": 0.0625,
          "durationTicks": 60,
          "midi": 36,
          "name": "C2",
          "ticks": 122040,
          "time": 127.125,
          "velocity": 0.5039370078740157
        },
        {
          "duration": 0.041666666666671404,
          "durationTicks": 40,
          "midi": 42,
          "name": "F#2",
          "ticks": 122160,
          "time": 127.25,
          "velocity": 0.5039370078740157
        },
        {
          "duration": 0.0677083333333286,
          "durationTicks": 65,
          "midi": 36,
          "name": "C2",
          "ticks": 122160,
          "time": 127.25,
          "velocity": 0.5039370078740157
        },
        {
          "duration": 0.046875,
          "durationTicks": 45,
          "midi": 44,
          "name": "G#2",
          "ticks": 122280,
          "time": 127.375,
          "velocity": 0.5039370078740157
        },
        {
          "duration": 0.041666666666671404,
          "durationTicks": 40,
          "midi": 42,
          "name": "F#2",
          "ticks": 122400,
          "time": 127.5,
          "velocity": 0.5039370078740157
        },
        {
          "duration": 0.4375,
          "durationTicks": 420,
          "midi": 38,
          "name": "D2",
          "ticks": 122400,
          "time": 127.5,
          "velocity": 0.5039370078740157
        },
        {
          "duration": 0.0625,
          "durationTicks": 60,
          "midi": 36,
          "name": "C2",
          "ticks": 122400,
          "time": 127.5,
          "velocity": 0.5039370078740157
        },
        {
          "duration": 0.03125,
          "durationTicks": 30,
          "midi": 42,
          "name": "F#2",
          "ticks": 122520,
          "time": 127.625,
          "velocity": 0.5039370078740157
        },
        {
          "duration": 0.07083333333333997,
          "durationTicks": 68,
          "midi": 44,
          "name": "G#2",
          "ticks": 122640,
          "time": 127.75,
          "velocity": 0.5039370078740157
        },
        {
          "duration": 0.0625,
          "durationTicks": 60,
          "midi": 36,
          "name": "C2",
          "ticks": 122640,
          "time": 127.75,
          "velocity": 0.5039370078740157
        },
        {
          "duration": 0.04479166666666856,
          "durationTicks": 43,
          "midi": 42,
          "name": "F#2",
          "ticks": 122760,
          "time": 127.875,
          "velocity": 0.5039370078740157
        },
        {
          "duration": 0.05000000000001137,
          "durationTicks": 48,
          "midi": 42,
          "name": "F#2",
          "ticks": 123000,
          "time": 128.125,
          "velocity": 0.5039370078740157
        },
        {
          "duration": 0.046875,
          "durationTicks": 45,
          "midi": 44,
          "name": "G#2",
          "ticks": 123120,
          "time": 128.25,
          "velocity": 0.5039370078740157
        },
        {
          "duration": 0.039583333333325754,
          "durationTicks": 38,
          "midi": 42,
          "name": "F#2",
          "ticks": 123240,
          "time": 128.375,
          "velocity": 0.5039370078740157
        },
        {
          "duration": 0.03437500000001137,
          "durationTicks": 33,
          "midi": 42,
          "name": "F#2",
          "ticks": 123360,
          "time": 128.5,
          "velocity": 0.5039370078740157
        },
        {
          "duration": 0.4375,
          "durationTicks": 420,
          "midi": 38,
          "name": "D2",
          "ticks": 123360,
          "time": 128.5,
          "velocity": 0.5039370078740157
        },
        {
          "duration": 0.02916666666666856,
          "durationTicks": 28,
          "midi": 42,
          "name": "F#2",
          "ticks": 123480,
          "time": 128.625,
          "velocity": 0.5039370078740157
        },
        {
          "duration": 0.04166666666665719,
          "durationTicks": 40,
          "midi": 42,
          "name": "F#2",
          "ticks": 123600,
          "time": 128.75,
          "velocity": 0.5039370078740157
        },
        {
          "duration": 0.05000000000001137,
          "durationTicks": 48,
          "midi": 44,
          "name": "G#2",
          "ticks": 123720,
          "time": 128.875,
          "velocity": 0.5039370078740157
        },
        {
          "duration": 0.04479166666666856,
          "durationTicks": 43,
          "midi": 42,
          "name": "F#2",
          "ticks": 123840,
          "time": 129,
          "velocity": 0.5039370078740157
        },
        {
          "duration": 0.039583333333325754,
          "durationTicks": 38,
          "midi": 42,
          "name": "F#2",
          "ticks": 123960,
          "time": 129.125,
          "velocity": 0.5039370078740157
        },
        {
          "duration": 0.0625,
          "durationTicks": 60,
          "midi": 36,
          "name": "C2",
          "ticks": 123960,
          "time": 129.125,
          "velocity": 0.5039370078740157
        },
        {
          "duration": 0.04166666666665719,
          "durationTicks": 40,
          "midi": 42,
          "name": "F#2",
          "ticks": 124080,
          "time": 129.25,
          "velocity": 0.5039370078740157
        },
        {
          "duration": 0.06562500000001137,
          "durationTicks": 63,
          "midi": 36,
          "name": "C2",
          "ticks": 124080,
          "time": 129.25,
          "velocity": 0.5039370078740157
        },
        {
          "duration": 0.046875,
          "durationTicks": 45,
          "midi": 44,
          "name": "G#2",
          "ticks": 124200,
          "time": 129.375,
          "velocity": 0.5039370078740157
        },
        {
          "duration": 0.04166666666665719,
          "durationTicks": 40,
          "midi": 42,
          "name": "F#2",
          "ticks": 124320,
          "time": 129.5,
          "velocity": 0.5039370078740157
        },
        {
          "duration": 0.4375,
          "durationTicks": 420,
          "midi": 38,
          "name": "D2",
          "ticks": 124320,
          "time": 129.5,
          "velocity": 0.5039370078740157
        },
        {
          "duration": 0.03125,
          "durationTicks": 30,
          "midi": 42,
          "name": "F#2",
          "ticks": 124440,
          "time": 129.625,
          "velocity": 0.5039370078740157
        },
        {
          "duration": 0.07083333333332575,
          "durationTicks": 68,
          "midi": 44,
          "name": "G#2",
          "ticks": 124560,
          "time": 129.75,
          "velocity": 0.5039370078740157
        },
        {
          "duration": 0.04479166666666856,
          "durationTicks": 43,
          "midi": 42,
          "name": "F#2",
          "ticks": 124680,
          "time": 129.875,
          "velocity": 0.5039370078740157
        },
        {
          "duration": 0.07604166666666856,
          "durationTicks": 73,
          "midi": 36,
          "name": "C2",
          "ticks": 124800,
          "time": 130,
          "velocity": 0.5039370078740157
        },
        {
          "duration": 0.05000000000001137,
          "durationTicks": 48,
          "midi": 42,
          "name": "F#2",
          "ticks": 124920,
          "time": 130.125,
          "velocity": 0.5039370078740157
        },
        {
          "duration": 0.046875,
          "durationTicks": 45,
          "midi": 44,
          "name": "G#2",
          "ticks": 125040,
          "time": 130.25,
          "velocity": 0.5039370078740157
        },
        {
          "duration": 0.039583333333325754,
          "durationTicks": 38,
          "midi": 42,
          "name": "F#2",
          "ticks": 125160,
          "time": 130.375,
          "velocity": 0.5039370078740157
        },
        {
          "duration": 0.03437500000001137,
          "durationTicks": 33,
          "midi": 42,
          "name": "F#2",
          "ticks": 125280,
          "time": 130.5,
          "velocity": 0.5039370078740157
        },
        {
          "duration": 0.4375,
          "durationTicks": 420,
          "midi": 38,
          "name": "D2",
          "ticks": 125280,
          "time": 130.5,
          "velocity": 0.5039370078740157
        },
        {
          "duration": 0.02916666666666856,
          "durationTicks": 28,
          "midi": 42,
          "name": "F#2",
          "ticks": 125400,
          "time": 130.625,
          "velocity": 0.5039370078740157
        },
        {
          "duration": 0.04166666666665719,
          "durationTicks": 40,
          "midi": 42,
          "name": "F#2",
          "ticks": 125520,
          "time": 130.75,
          "velocity": 0.5039370078740157
        },
        {
          "duration": 0.05000000000001137,
          "durationTicks": 48,
          "midi": 44,
          "name": "G#2",
          "ticks": 125640,
          "time": 130.875,
          "velocity": 0.5039370078740157
        },
        {
          "duration": 0.07291666666665719,
          "durationTicks": 70,
          "midi": 36,
          "name": "C2",
          "ticks": 125640,
          "time": 130.875,
          "velocity": 0.5039370078740157
        },
        {
          "duration": 0.04479166666666856,
          "durationTicks": 43,
          "midi": 42,
          "name": "F#2",
          "ticks": 125760,
          "time": 131,
          "velocity": 0.5039370078740157
        },
        {
          "duration": 0.039583333333325754,
          "durationTicks": 38,
          "midi": 42,
          "name": "F#2",
          "ticks": 125880,
          "time": 131.125,
          "velocity": 0.5039370078740157
        },
        {
          "duration": 0.055208333333325754,
          "durationTicks": 53,
          "midi": 36,
          "name": "C2",
          "ticks": 125880,
          "time": 131.125,
          "velocity": 0.5039370078740157
        },
        {
          "duration": 0.04166666666665719,
          "durationTicks": 40,
          "midi": 42,
          "name": "F#2",
          "ticks": 126000,
          "time": 131.25,
          "velocity": 0.5039370078740157
        },
        {
          "duration": 0.07291666666665719,
          "durationTicks": 70,
          "midi": 36,
          "name": "C2",
          "ticks": 126000,
          "time": 131.25,
          "velocity": 0.5039370078740157
        },
        {
          "duration": 0.046875,
          "durationTicks": 45,
          "midi": 44,
          "name": "G#2",
          "ticks": 126120,
          "time": 131.375,
          "velocity": 0.5039370078740157
        },
        {
          "duration": 0.04166666666665719,
          "durationTicks": 40,
          "midi": 42,
          "name": "F#2",
          "ticks": 126240,
          "time": 131.5,
          "velocity": 0.5039370078740157
        },
        {
          "duration": 0.07083333333332575,
          "durationTicks": 68,
          "midi": 36,
          "name": "C2",
          "ticks": 126240,
          "time": 131.5,
          "velocity": 0.5039370078740157
        },
        {
          "duration": 0.4375,
          "durationTicks": 420,
          "midi": 38,
          "name": "D2",
          "ticks": 126240,
          "time": 131.5,
          "velocity": 0.5039370078740157
        },
        {
          "duration": 0.03125,
          "durationTicks": 30,
          "midi": 42,
          "name": "F#2",
          "ticks": 126360,
          "time": 131.625,
          "velocity": 0.5039370078740157
        },
        {
          "duration": 0.0625,
          "durationTicks": 60,
          "midi": 36,
          "name": "C2",
          "ticks": 126480,
          "time": 131.75,
          "velocity": 0.5039370078740157
        },
        {
          "duration": 0.07083333333332575,
          "durationTicks": 68,
          "midi": 44,
          "name": "G#2",
          "ticks": 126480,
          "time": 131.75,
          "velocity": 0.5039370078740157
        },
        {
          "duration": 0.04479166666666856,
          "durationTicks": 43,
          "midi": 42,
          "name": "F#2",
          "ticks": 126600,
          "time": 131.875,
          "velocity": 0.5039370078740157
        },
        {
          "duration": 0.06041666666666856,
          "durationTicks": 58,
          "midi": 36,
          "name": "C2",
          "ticks": 126720,
          "time": 132,
          "velocity": 0.5039370078740157
        },
        {
          "duration": 0.05000000000001137,
          "durationTicks": 48,
          "midi": 42,
          "name": "F#2",
          "ticks": 126840,
          "time": 132.125,
          "velocity": 0.5039370078740157
        },
        {
          "duration": 0.046875,
          "durationTicks": 45,
          "midi": 44,
          "name": "G#2",
          "ticks": 126960,
          "time": 132.25,
          "velocity": 0.5039370078740157
        },
        {
          "duration": 0.039583333333325754,
          "durationTicks": 38,
          "midi": 42,
          "name": "F#2",
          "ticks": 127080,
          "time": 132.375,
          "velocity": 0.5039370078740157
        },
        {
          "duration": 0.03437500000001137,
          "durationTicks": 33,
          "midi": 42,
          "name": "F#2",
          "ticks": 127200,
          "time": 132.5,
          "velocity": 0.5039370078740157
        },
        {
          "duration": 0.4375,
          "durationTicks": 420,
          "midi": 38,
          "name": "D2",
          "ticks": 127200,
          "time": 132.5,
          "velocity": 0.5039370078740157
        },
        {
          "duration": 0.02916666666666856,
          "durationTicks": 28,
          "midi": 42,
          "name": "F#2",
          "ticks": 127320,
          "time": 132.625,
          "velocity": 0.5039370078740157
        },
        {
          "duration": 0.04166666666665719,
          "durationTicks": 40,
          "midi": 42,
          "name": "F#2",
          "ticks": 127440,
          "time": 132.75,
          "velocity": 0.5039370078740157
        },
        {
          "duration": 0.05000000000001137,
          "durationTicks": 48,
          "midi": 44,
          "name": "G#2",
          "ticks": 127560,
          "time": 132.875,
          "velocity": 0.5039370078740157
        },
        {
          "duration": 0.04479166666666856,
          "durationTicks": 43,
          "midi": 42,
          "name": "F#2",
          "ticks": 127680,
          "time": 133,
          "velocity": 0.5039370078740157
        },
        {
          "duration": 0.039583333333325754,
          "durationTicks": 38,
          "midi": 42,
          "name": "F#2",
          "ticks": 127800,
          "time": 133.125,
          "velocity": 0.5039370078740157
        },
        {
          "duration": 0.055208333333325754,
          "durationTicks": 53,
          "midi": 36,
          "name": "C2",
          "ticks": 127800,
          "time": 133.125,
          "velocity": 0.5039370078740157
        },
        {
          "duration": 0.04166666666665719,
          "durationTicks": 40,
          "midi": 42,
          "name": "F#2",
          "ticks": 127920,
          "time": 133.25,
          "velocity": 0.5039370078740157
        },
        {
          "duration": 0.06041666666666856,
          "durationTicks": 58,
          "midi": 36,
          "name": "C2",
          "ticks": 127920,
          "time": 133.25,
          "velocity": 0.5039370078740157
        },
        {
          "duration": 0.046875,
          "durationTicks": 45,
          "midi": 44,
          "name": "G#2",
          "ticks": 128040,
          "time": 133.375,
          "velocity": 0.5039370078740157
        },
        {
          "duration": 0.04166666666665719,
          "durationTicks": 40,
          "midi": 42,
          "name": "F#2",
          "ticks": 128160,
          "time": 133.5,
          "velocity": 0.5039370078740157
        },
        {
          "duration": 0.055208333333325754,
          "durationTicks": 53,
          "midi": 36,
          "name": "C2",
          "ticks": 128160,
          "time": 133.5,
          "velocity": 0.5039370078740157
        },
        {
          "duration": 0.4375,
          "durationTicks": 420,
          "midi": 38,
          "name": "D2",
          "ticks": 128160,
          "time": 133.5,
          "velocity": 0.5039370078740157
        },
        {
          "duration": 0.03125,
          "durationTicks": 30,
          "midi": 42,
          "name": "F#2",
          "ticks": 128280,
          "time": 133.625,
          "velocity": 0.5039370078740157
        },
        {
          "duration": 0.07083333333332575,
          "durationTicks": 68,
          "midi": 44,
          "name": "G#2",
          "ticks": 128400,
          "time": 133.75,
          "velocity": 0.5039370078740157
        },
        {
          "duration": 0.055208333333325754,
          "durationTicks": 53,
          "midi": 36,
          "name": "C2",
          "ticks": 128400,
          "time": 133.75,
          "velocity": 0.5039370078740157
        },
        {
          "duration": 0.04479166666666856,
          "durationTicks": 43,
          "midi": 42,
          "name": "F#2",
          "ticks": 128520,
          "time": 133.875,
          "velocity": 0.5039370078740157
        },
        {
          "duration": 0.11770833333332575,
          "durationTicks": 113,
          "midi": 36,
          "name": "C2",
          "ticks": 128640,
          "time": 134,
          "velocity": 0.5039370078740157
        },
        {
          "duration": 0.05000000000001137,
          "durationTicks": 48,
          "midi": 42,
          "name": "F#2",
          "ticks": 128760,
          "time": 134.125,
          "velocity": 0.5039370078740157
        },
        {
          "duration": 0.046875,
          "durationTicks": 45,
          "midi": 44,
          "name": "G#2",
          "ticks": 128880,
          "time": 134.25,
          "velocity": 0.5039370078740157
        },
        {
          "duration": 0.039583333333325754,
          "durationTicks": 38,
          "midi": 42,
          "name": "F#2",
          "ticks": 129000,
          "time": 134.375,
          "velocity": 0.5039370078740157
        },
        {
          "duration": 0.03437500000001137,
          "durationTicks": 33,
          "midi": 42,
          "name": "F#2",
          "ticks": 129120,
          "time": 134.5,
          "velocity": 0.5039370078740157
        },
        {
          "duration": 0.4375,
          "durationTicks": 420,
          "midi": 38,
          "name": "D2",
          "ticks": 129120,
          "time": 134.5,
          "velocity": 0.5039370078740157
        },
        {
          "duration": 0.02916666666666856,
          "durationTicks": 28,
          "midi": 42,
          "name": "F#2",
          "ticks": 129240,
          "time": 134.625,
          "velocity": 0.5039370078740157
        },
        {
          "duration": 0.04166666666665719,
          "durationTicks": 40,
          "midi": 42,
          "name": "F#2",
          "ticks": 129360,
          "time": 134.75,
          "velocity": 0.5039370078740157
        },
        {
          "duration": 0.05000000000001137,
          "durationTicks": 48,
          "midi": 44,
          "name": "G#2",
          "ticks": 129480,
          "time": 134.875,
          "velocity": 0.5039370078740157
        },
        {
          "duration": 0.04479166666666856,
          "durationTicks": 43,
          "midi": 42,
          "name": "F#2",
          "ticks": 129600,
          "time": 135,
          "velocity": 0.5039370078740157
        },
        {
          "duration": 0.039583333333325754,
          "durationTicks": 38,
          "midi": 42,
          "name": "F#2",
          "ticks": 129720,
          "time": 135.125,
          "velocity": 0.5039370078740157
        },
        {
          "duration": 0.0625,
          "durationTicks": 60,
          "midi": 36,
          "name": "C2",
          "ticks": 129720,
          "time": 135.125,
          "velocity": 0.5039370078740157
        },
        {
          "duration": 0.04166666666665719,
          "durationTicks": 40,
          "midi": 42,
          "name": "F#2",
          "ticks": 129840,
          "time": 135.25,
          "velocity": 0.5039370078740157
        },
        {
          "duration": 0.06770833333334281,
          "durationTicks": 65,
          "midi": 36,
          "name": "C2",
          "ticks": 129840,
          "time": 135.25,
          "velocity": 0.5039370078740157
        },
        {
          "duration": 0.046875,
          "durationTicks": 45,
          "midi": 44,
          "name": "G#2",
          "ticks": 129960,
          "time": 135.375,
          "velocity": 0.5039370078740157
        },
        {
          "duration": 0.04166666666665719,
          "durationTicks": 40,
          "midi": 42,
          "name": "F#2",
          "ticks": 130080,
          "time": 135.5,
          "velocity": 0.5039370078740157
        },
        {
          "duration": 0.4375,
          "durationTicks": 420,
          "midi": 38,
          "name": "D2",
          "ticks": 130080,
          "time": 135.5,
          "velocity": 0.5039370078740157
        },
        {
          "duration": 0.0625,
          "durationTicks": 60,
          "midi": 36,
          "name": "C2",
          "ticks": 130080,
          "time": 135.5,
          "velocity": 0.5039370078740157
        },
        {
          "duration": 0.03125,
          "durationTicks": 30,
          "midi": 42,
          "name": "F#2",
          "ticks": 130200,
          "time": 135.625,
          "velocity": 0.5039370078740157
        },
        {
          "duration": 0.07083333333332575,
          "durationTicks": 68,
          "midi": 44,
          "name": "G#2",
          "ticks": 130320,
          "time": 135.75,
          "velocity": 0.5039370078740157
        },
        {
          "duration": 0.0625,
          "durationTicks": 60,
          "midi": 36,
          "name": "C2",
          "ticks": 130320,
          "time": 135.75,
          "velocity": 0.5039370078740157
        },
        {
          "duration": 0.04479166666666856,
          "durationTicks": 43,
          "midi": 42,
          "name": "F#2",
          "ticks": 130440,
          "time": 135.875,
          "velocity": 0.5039370078740157
        },
        {
          "duration": 0.05000000000001137,
          "durationTicks": 48,
          "midi": 42,
          "name": "F#2",
          "ticks": 130680,
          "time": 136.125,
          "velocity": 0.5039370078740157
        },
        {
          "duration": 0.046875,
          "durationTicks": 45,
          "midi": 44,
          "name": "G#2",
          "ticks": 130800,
          "time": 136.25,
          "velocity": 0.5039370078740157
        },
        {
          "duration": 0.039583333333325754,
          "durationTicks": 38,
          "midi": 42,
          "name": "F#2",
          "ticks": 130920,
          "time": 136.375,
          "velocity": 0.5039370078740157
        },
        {
          "duration": 0.03437500000001137,
          "durationTicks": 33,
          "midi": 42,
          "name": "F#2",
          "ticks": 131040,
          "time": 136.5,
          "velocity": 0.5039370078740157
        },
        {
          "duration": 0.4375,
          "durationTicks": 420,
          "midi": 38,
          "name": "D2",
          "ticks": 131040,
          "time": 136.5,
          "velocity": 0.5039370078740157
        },
        {
          "duration": 0.02916666666666856,
          "durationTicks": 28,
          "midi": 42,
          "name": "F#2",
          "ticks": 131160,
          "time": 136.625,
          "velocity": 0.5039370078740157
        },
        {
          "duration": 0.04166666666665719,
          "durationTicks": 40,
          "midi": 42,
          "name": "F#2",
          "ticks": 131280,
          "time": 136.75,
          "velocity": 0.5039370078740157
        },
        {
          "duration": 0.05000000000001137,
          "durationTicks": 48,
          "midi": 44,
          "name": "G#2",
          "ticks": 131400,
          "time": 136.875,
          "velocity": 0.5039370078740157
        },
        {
          "duration": 0.04479166666666856,
          "durationTicks": 43,
          "midi": 42,
          "name": "F#2",
          "ticks": 131520,
          "time": 137,
          "velocity": 0.5039370078740157
        },
        {
          "duration": 0.039583333333325754,
          "durationTicks": 38,
          "midi": 42,
          "name": "F#2",
          "ticks": 131640,
          "time": 137.125,
          "velocity": 0.5039370078740157
        },
        {
          "duration": 0.0625,
          "durationTicks": 60,
          "midi": 36,
          "name": "C2",
          "ticks": 131640,
          "time": 137.125,
          "velocity": 0.5039370078740157
        },
        {
          "duration": 0.0625,
          "durationTicks": 60,
          "midi": 39,
          "name": "D#2",
          "ticks": 131640,
          "time": 137.125,
          "velocity": 0.5039370078740157
        },
        {
          "duration": 0.04166666666665719,
          "durationTicks": 40,
          "midi": 42,
          "name": "F#2",
          "ticks": 131760,
          "time": 137.25,
          "velocity": 0.5039370078740157
        },
        {
          "duration": 0.06562500000001137,
          "durationTicks": 63,
          "midi": 36,
          "name": "C2",
          "ticks": 131760,
          "time": 137.25,
          "velocity": 0.5039370078740157
        },
        {
          "duration": 0.046875,
          "durationTicks": 45,
          "midi": 44,
          "name": "G#2",
          "ticks": 131880,
          "time": 137.375,
          "velocity": 0.5039370078740157
        },
        {
          "duration": 0.06041666666666856,
          "durationTicks": 58,
          "midi": 39,
          "name": "D#2",
          "ticks": 131880,
          "time": 137.375,
          "velocity": 0.5039370078740157
        },
        {
          "duration": 0.04166666666665719,
          "durationTicks": 40,
          "midi": 42,
          "name": "F#2",
          "ticks": 132000,
          "time": 137.5,
          "velocity": 0.5039370078740157
        },
        {
          "duration": 0.4375,
          "durationTicks": 420,
          "midi": 38,
          "name": "D2",
          "ticks": 132000,
          "time": 137.5,
          "velocity": 0.5039370078740157
        },
        {
          "duration": 0.03125,
          "durationTicks": 30,
          "midi": 42,
          "name": "F#2",
          "ticks": 132120,
          "time": 137.625,
          "velocity": 0.5039370078740157
        },
        {
          "duration": 0.046875,
          "durationTicks": 45,
          "midi": 39,
          "name": "D#2",
          "ticks": 132120,
          "time": 137.625,
          "velocity": 0.5039370078740157
        },
        {
          "duration": 0.07083333333332575,
          "durationTicks": 68,
          "midi": 44,
          "name": "G#2",
          "ticks": 132240,
          "time": 137.75,
          "velocity": 0.5039370078740157
        },
        {
          "duration": 0.046875,
          "durationTicks": 45,
          "midi": 39,
          "name": "D#2",
          "ticks": 132240,
          "time": 137.75,
          "velocity": 0.5039370078740157
        },
        {
          "duration": 0.04479166666666856,
          "durationTicks": 43,
          "midi": 42,
          "name": "F#2",
          "ticks": 132360,
          "time": 137.875,
          "velocity": 0.5039370078740157
        },
        {
          "duration": 0.04479166666666856,
          "durationTicks": 43,
          "midi": 39,
          "name": "D#2",
          "ticks": 132360,
          "time": 137.875,
          "velocity": 0.5039370078740157
        },
        {
          "duration": 0.11770833333332575,
          "durationTicks": 113,
          "midi": 36,
          "name": "C2",
          "ticks": 132480,
          "time": 138,
          "velocity": 0.5039370078740157
        },
        {
          "duration": 0.04166666666665719,
          "durationTicks": 40,
          "midi": 39,
          "name": "D#2",
          "ticks": 132480,
          "time": 138,
          "velocity": 0.5039370078740157
        },
        {
          "duration": 0.05000000000001137,
          "durationTicks": 48,
          "midi": 42,
          "name": "F#2",
          "ticks": 132600,
          "time": 138.125,
          "velocity": 0.5039370078740157
        },
        {
          "duration": 0.03645833333334281,
          "durationTicks": 35,
          "midi": 39,
          "name": "D#2",
          "ticks": 132600,
          "time": 138.125,
          "velocity": 0.5039370078740157
        },
        {
          "duration": 0.046875,
          "durationTicks": 45,
          "midi": 44,
          "name": "G#2",
          "ticks": 132720,
          "time": 138.25,
          "velocity": 0.5039370078740157
        },
        {
          "duration": 0.08333333333334281,
          "durationTicks": 80,
          "midi": 39,
          "name": "D#2",
          "ticks": 132720,
          "time": 138.25,
          "velocity": 0.5039370078740157
        },
        {
          "duration": 0.039583333333325754,
          "durationTicks": 38,
          "midi": 42,
          "name": "F#2",
          "ticks": 132840,
          "time": 138.375,
          "velocity": 0.5039370078740157
        },
        {
          "duration": 0.03437500000001137,
          "durationTicks": 33,
          "midi": 42,
          "name": "F#2",
          "ticks": 132960,
          "time": 138.5,
          "velocity": 0.5039370078740157
        },
        {
          "duration": 0.4375,
          "durationTicks": 420,
          "midi": 38,
          "name": "D2",
          "ticks": 132960,
          "time": 138.5,
          "velocity": 0.5039370078740157
        },
        {
          "duration": 0.02916666666666856,
          "durationTicks": 28,
          "midi": 42,
          "name": "F#2",
          "ticks": 133080,
          "time": 138.625,
          "velocity": 0.5039370078740157
        },
        {
          "duration": 0.04166666666665719,
          "durationTicks": 40,
          "midi": 42,
          "name": "F#2",
          "ticks": 133200,
          "time": 138.75,
          "velocity": 0.5039370078740157
        },
        {
          "duration": 0.05000000000001137,
          "durationTicks": 48,
          "midi": 44,
          "name": "G#2",
          "ticks": 133320,
          "time": 138.875,
          "velocity": 0.5039370078740157
        },
        {
          "duration": 0.04479166666666856,
          "durationTicks": 43,
          "midi": 42,
          "name": "F#2",
          "ticks": 133440,
          "time": 139,
          "velocity": 0.5039370078740157
        },
        {
          "duration": 0.039583333333325754,
          "durationTicks": 38,
          "midi": 42,
          "name": "F#2",
          "ticks": 133560,
          "time": 139.125,
          "velocity": 0.5039370078740157
        },
        {
          "duration": 0.0625,
          "durationTicks": 60,
          "midi": 36,
          "name": "C2",
          "ticks": 133560,
          "time": 139.125,
          "velocity": 0.5039370078740157
        },
        {
          "duration": 0.04166666666665719,
          "durationTicks": 40,
          "midi": 42,
          "name": "F#2",
          "ticks": 133680,
          "time": 139.25,
          "velocity": 0.5039370078740157
        },
        {
          "duration": 0.06770833333334281,
          "durationTicks": 65,
          "midi": 36,
          "name": "C2",
          "ticks": 133680,
          "time": 139.25,
          "velocity": 0.5039370078740157
        },
        {
          "duration": 0.046875,
          "durationTicks": 45,
          "midi": 44,
          "name": "G#2",
          "ticks": 133800,
          "time": 139.375,
          "velocity": 0.5039370078740157
        },
        {
          "duration": 0.04166666666665719,
          "durationTicks": 40,
          "midi": 42,
          "name": "F#2",
          "ticks": 133920,
          "time": 139.5,
          "velocity": 0.5039370078740157
        },
        {
          "duration": 0.4375,
          "durationTicks": 420,
          "midi": 38,
          "name": "D2",
          "ticks": 133920,
          "time": 139.5,
          "velocity": 0.5039370078740157
        },
        {
          "duration": 0.0625,
          "durationTicks": 60,
          "midi": 36,
          "name": "C2",
          "ticks": 133920,
          "time": 139.5,
          "velocity": 0.5039370078740157
        },
        {
          "duration": 0.03125,
          "durationTicks": 30,
          "midi": 42,
          "name": "F#2",
          "ticks": 134040,
          "time": 139.625,
          "velocity": 0.5039370078740157
        },
        {
          "duration": 0.07083333333332575,
          "durationTicks": 68,
          "midi": 44,
          "name": "G#2",
          "ticks": 134160,
          "time": 139.75,
          "velocity": 0.5039370078740157
        },
        {
          "duration": 0.0625,
          "durationTicks": 60,
          "midi": 36,
          "name": "C2",
          "ticks": 134160,
          "time": 139.75,
          "velocity": 0.5039370078740157
        },
        {
          "duration": 0.04479166666666856,
          "durationTicks": 43,
          "midi": 42,
          "name": "F#2",
          "ticks": 134280,
          "time": 139.875,
          "velocity": 0.5039370078740157
        },
        {
          "duration": 0.05000000000001137,
          "durationTicks": 48,
          "midi": 42,
          "name": "F#2",
          "ticks": 134520,
          "time": 140.125,
          "velocity": 0.5039370078740157
        },
        {
          "duration": 0.046875,
          "durationTicks": 45,
          "midi": 44,
          "name": "G#2",
          "ticks": 134640,
          "time": 140.25,
          "velocity": 0.5039370078740157
        },
        {
          "duration": 0.039583333333325754,
          "durationTicks": 38,
          "midi": 42,
          "name": "F#2",
          "ticks": 134760,
          "time": 140.375,
          "velocity": 0.5039370078740157
        },
        {
          "duration": 0.03437500000001137,
          "durationTicks": 33,
          "midi": 42,
          "name": "F#2",
          "ticks": 134880,
          "time": 140.5,
          "velocity": 0.5039370078740157
        },
        {
          "duration": 0.4375,
          "durationTicks": 420,
          "midi": 38,
          "name": "D2",
          "ticks": 134880,
          "time": 140.5,
          "velocity": 0.5039370078740157
        },
        {
          "duration": 0.02916666666666856,
          "durationTicks": 28,
          "midi": 42,
          "name": "F#2",
          "ticks": 135000,
          "time": 140.625,
          "velocity": 0.5039370078740157
        },
        {
          "duration": 0.04166666666665719,
          "durationTicks": 40,
          "midi": 42,
          "name": "F#2",
          "ticks": 135120,
          "time": 140.75,
          "velocity": 0.5039370078740157
        },
        {
          "duration": 0.05000000000001137,
          "durationTicks": 48,
          "midi": 44,
          "name": "G#2",
          "ticks": 135240,
          "time": 140.875,
          "velocity": 0.5039370078740157
        },
        {
          "duration": 0.04479166666666856,
          "durationTicks": 43,
          "midi": 42,
          "name": "F#2",
          "ticks": 135360,
          "time": 141,
          "velocity": 0.5039370078740157
        },
        {
          "duration": 0.039583333333325754,
          "durationTicks": 38,
          "midi": 42,
          "name": "F#2",
          "ticks": 135480,
          "time": 141.125,
          "velocity": 0.5039370078740157
        },
        {
          "duration": 0.0625,
          "durationTicks": 60,
          "midi": 36,
          "name": "C2",
          "ticks": 135480,
          "time": 141.125,
          "velocity": 0.5039370078740157
        },
        {
          "duration": 0.04166666666665719,
          "durationTicks": 40,
          "midi": 42,
          "name": "F#2",
          "ticks": 135600,
          "time": 141.25,
          "velocity": 0.5039370078740157
        },
        {
          "duration": 0.06562500000001137,
          "durationTicks": 63,
          "midi": 36,
          "name": "C2",
          "ticks": 135600,
          "time": 141.25,
          "velocity": 0.5039370078740157
        },
        {
          "duration": 0.046875,
          "durationTicks": 45,
          "midi": 44,
          "name": "G#2",
          "ticks": 135720,
          "time": 141.375,
          "velocity": 0.5039370078740157
        },
        {
          "duration": 0.04166666666665719,
          "durationTicks": 40,
          "midi": 42,
          "name": "F#2",
          "ticks": 135840,
          "time": 141.5,
          "velocity": 0.5039370078740157
        },
        {
          "duration": 0.4375,
          "durationTicks": 420,
          "midi": 38,
          "name": "D2",
          "ticks": 135840,
          "time": 141.5,
          "velocity": 0.5039370078740157
        },
        {
          "duration": 0.03125,
          "durationTicks": 30,
          "midi": 42,
          "name": "F#2",
          "ticks": 135960,
          "time": 141.625,
          "velocity": 0.5039370078740157
        },
        {
          "duration": 0.07083333333332575,
          "durationTicks": 68,
          "midi": 44,
          "name": "G#2",
          "ticks": 136080,
          "time": 141.75,
          "velocity": 0.5039370078740157
        },
        {
          "duration": 0.04479166666666856,
          "durationTicks": 43,
          "midi": 42,
          "name": "F#2",
          "ticks": 136200,
          "time": 141.875,
          "velocity": 0.5039370078740157
        },
        {
          "duration": 0.07604166666666856,
          "durationTicks": 73,
          "midi": 36,
          "name": "C2",
          "ticks": 136320,
          "time": 142,
          "velocity": 0.5039370078740157
        },
        {
          "duration": 0.05000000000001137,
          "durationTicks": 48,
          "midi": 42,
          "name": "F#2",
          "ticks": 136440,
          "time": 142.125,
          "velocity": 0.5039370078740157
        },
        {
          "duration": 0.046875,
          "durationTicks": 45,
          "midi": 44,
          "name": "G#2",
          "ticks": 136560,
          "time": 142.25,
          "velocity": 0.5039370078740157
        },
        {
          "duration": 0.039583333333325754,
          "durationTicks": 38,
          "midi": 42,
          "name": "F#2",
          "ticks": 136680,
          "time": 142.375,
          "velocity": 0.5039370078740157
        },
        {
          "duration": 0.4375,
          "durationTicks": 420,
          "midi": 38,
          "name": "D2",
          "ticks": 136800,
          "time": 142.5,
          "velocity": 0.5039370078740157
        },
        {
          "duration": 0.03437500000001137,
          "durationTicks": 33,
          "midi": 42,
          "name": "F#2",
          "ticks": 136800,
          "time": 142.5,
          "velocity": 0.5039370078740157
        },
        {
          "duration": 0.02916666666666856,
          "durationTicks": 28,
          "midi": 42,
          "name": "F#2",
          "ticks": 136920,
          "time": 142.625,
          "velocity": 0.5039370078740157
        },
        {
          "duration": 0.04166666666665719,
          "durationTicks": 40,
          "midi": 42,
          "name": "F#2",
          "ticks": 137040,
          "time": 142.75,
          "velocity": 0.5039370078740157
        },
        {
          "duration": 0.07291666666665719,
          "durationTicks": 70,
          "midi": 36,
          "name": "C2",
          "ticks": 137160,
          "time": 142.875,
          "velocity": 0.5039370078740157
        },
        {
          "duration": 0.05000000000001137,
          "durationTicks": 48,
          "midi": 44,
          "name": "G#2",
          "ticks": 137160,
          "time": 142.875,
          "velocity": 0.5039370078740157
        },
        {
          "duration": 0.04479166666666856,
          "durationTicks": 43,
          "midi": 42,
          "name": "F#2",
          "ticks": 137280,
          "time": 143,
          "velocity": 0.5039370078740157
        },
        {
          "duration": 0.055208333333325754,
          "durationTicks": 53,
          "midi": 36,
          "name": "C2",
          "ticks": 137400,
          "time": 143.125,
          "velocity": 0.5039370078740157
        },
        {
          "duration": 0.039583333333325754,
          "durationTicks": 38,
          "midi": 42,
          "name": "F#2",
          "ticks": 137400,
          "time": 143.125,
          "velocity": 0.5039370078740157
        },
        {
          "duration": 0.07291666666665719,
          "durationTicks": 70,
          "midi": 36,
          "name": "C2",
          "ticks": 137520,
          "time": 143.25,
          "velocity": 0.5039370078740157
        },
        {
          "duration": 0.04166666666665719,
          "durationTicks": 40,
          "midi": 42,
          "name": "F#2",
          "ticks": 137520,
          "time": 143.25,
          "velocity": 0.5039370078740157
        },
        {
          "duration": 0.046875,
          "durationTicks": 45,
          "midi": 44,
          "name": "G#2",
          "ticks": 137640,
          "time": 143.375,
          "velocity": 0.5039370078740157
        },
        {
          "duration": 0.07083333333332575,
          "durationTicks": 68,
          "midi": 36,
          "name": "C2",
          "ticks": 137760,
          "time": 143.5,
          "velocity": 0.5039370078740157
        },
        {
          "duration": 0.4375,
          "durationTicks": 420,
          "midi": 38,
          "name": "D2",
          "ticks": 137760,
          "time": 143.5,
          "velocity": 0.5039370078740157
        },
        {
          "duration": 0.04166666666665719,
          "durationTicks": 40,
          "midi": 42,
          "name": "F#2",
          "ticks": 137760,
          "time": 143.5,
          "velocity": 0.5039370078740157
        },
        {
          "duration": 0.03125,
          "durationTicks": 30,
          "midi": 42,
          "name": "F#2",
          "ticks": 137880,
          "time": 143.625,
          "velocity": 0.5039370078740157
        },
        {
          "duration": 0.0625,
          "durationTicks": 60,
          "midi": 36,
          "name": "C2",
          "ticks": 138000,
          "time": 143.75,
          "velocity": 0.5039370078740157
        },
        {
          "duration": 0.07083333333332575,
          "durationTicks": 68,
          "midi": 44,
          "name": "G#2",
          "ticks": 138000,
          "time": 143.75,
          "velocity": 0.5039370078740157
        },
        {
          "duration": 0.04479166666666856,
          "durationTicks": 43,
          "midi": 42,
          "name": "F#2",
          "ticks": 138120,
          "time": 143.875,
          "velocity": 0.5039370078740157
        },
        {
          "duration": 0.06041666666666856,
          "durationTicks": 58,
          "midi": 36,
          "name": "C2",
          "ticks": 138240,
          "time": 144,
          "velocity": 0.5039370078740157
        },
        {
          "duration": 0.05000000000001137,
          "durationTicks": 48,
          "midi": 42,
          "name": "F#2",
          "ticks": 138360,
          "time": 144.125,
          "velocity": 0.5039370078740157
        },
        {
          "duration": 0.046875,
          "durationTicks": 45,
          "midi": 44,
          "name": "G#2",
          "ticks": 138480,
          "time": 144.25,
          "velocity": 0.5039370078740157
        },
        {
          "duration": 0.039583333333325754,
          "durationTicks": 38,
          "midi": 42,
          "name": "F#2",
          "ticks": 138600,
          "time": 144.375,
          "velocity": 0.5039370078740157
        },
        {
          "duration": 0.4375,
          "durationTicks": 420,
          "midi": 38,
          "name": "D2",
          "ticks": 138720,
          "time": 144.5,
          "velocity": 0.5039370078740157
        },
        {
          "duration": 0.03437500000001137,
          "durationTicks": 33,
          "midi": 42,
          "name": "F#2",
          "ticks": 138720,
          "time": 144.5,
          "velocity": 0.5039370078740157
        },
        {
          "duration": 0.02916666666666856,
          "durationTicks": 28,
          "midi": 42,
          "name": "F#2",
          "ticks": 138840,
          "time": 144.625,
          "velocity": 0.5039370078740157
        },
        {
          "duration": 0.04166666666665719,
          "durationTicks": 40,
          "midi": 42,
          "name": "F#2",
          "ticks": 138960,
          "time": 144.75,
          "velocity": 0.5039370078740157
        },
        {
          "duration": 0.05000000000001137,
          "durationTicks": 48,
          "midi": 44,
          "name": "G#2",
          "ticks": 139080,
          "time": 144.875,
          "velocity": 0.5039370078740157
        },
        {
          "duration": 0.04479166666666856,
          "durationTicks": 43,
          "midi": 42,
          "name": "F#2",
          "ticks": 139200,
          "time": 145,
          "velocity": 0.5039370078740157
        },
        {
          "duration": 0.055208333333325754,
          "durationTicks": 53,
          "midi": 36,
          "name": "C2",
          "ticks": 139320,
          "time": 145.125,
          "velocity": 0.5039370078740157
        },
        {
          "duration": 0.0625,
          "durationTicks": 60,
          "midi": 39,
          "name": "D#2",
          "ticks": 139320,
          "time": 145.125,
          "velocity": 0.5039370078740157
        },
        {
          "duration": 0.039583333333325754,
          "durationTicks": 38,
          "midi": 42,
          "name": "F#2",
          "ticks": 139320,
          "time": 145.125,
          "velocity": 0.5039370078740157
        },
        {
          "duration": 0.06041666666666856,
          "durationTicks": 58,
          "midi": 36,
          "name": "C2",
          "ticks": 139440,
          "time": 145.25,
          "velocity": 0.5039370078740157
        },
        {
          "duration": 0.04166666666665719,
          "durationTicks": 40,
          "midi": 42,
          "name": "F#2",
          "ticks": 139440,
          "time": 145.25,
          "velocity": 0.5039370078740157
        },
        {
          "duration": 0.06041666666666856,
          "durationTicks": 58,
          "midi": 39,
          "name": "D#2",
          "ticks": 139560,
          "time": 145.375,
          "velocity": 0.5039370078740157
        },
        {
          "duration": 0.046875,
          "durationTicks": 45,
          "midi": 44,
          "name": "G#2",
          "ticks": 139560,
          "time": 145.375,
          "velocity": 0.5039370078740157
        },
        {
          "duration": 0.055208333333325754,
          "durationTicks": 53,
          "midi": 36,
          "name": "C2",
          "ticks": 139680,
          "time": 145.5,
          "velocity": 0.5039370078740157
        },
        {
          "duration": 0.4375,
          "durationTicks": 420,
          "midi": 38,
          "name": "D2",
          "ticks": 139680,
          "time": 145.5,
          "velocity": 0.5039370078740157
        },
        {
          "duration": 0.04166666666665719,
          "durationTicks": 40,
          "midi": 42,
          "name": "F#2",
          "ticks": 139680,
          "time": 145.5,
          "velocity": 0.5039370078740157
        },
        {
          "duration": 0.046875,
          "durationTicks": 45,
          "midi": 39,
          "name": "D#2",
          "ticks": 139800,
          "time": 145.625,
          "velocity": 0.5039370078740157
        },
        {
          "duration": 0.03125,
          "durationTicks": 30,
          "midi": 42,
          "name": "F#2",
          "ticks": 139800,
          "time": 145.625,
          "velocity": 0.5039370078740157
        },
        {
          "duration": 0.055208333333325754,
          "durationTicks": 53,
          "midi": 36,
          "name": "C2",
          "ticks": 139920,
          "time": 145.75,
          "velocity": 0.5039370078740157
        },
        {
          "duration": 0.046875,
          "durationTicks": 45,
          "midi": 39,
          "name": "D#2",
          "ticks": 139920,
          "time": 145.75,
          "velocity": 0.5039370078740157
        },
        {
          "duration": 0.07083333333332575,
          "durationTicks": 68,
          "midi": 44,
          "name": "G#2",
          "ticks": 139920,
          "time": 145.75,
          "velocity": 0.5039370078740157
        },
        {
          "duration": 0.04479166666666856,
          "durationTicks": 43,
          "midi": 39,
          "name": "D#2",
          "ticks": 140040,
          "time": 145.875,
          "velocity": 0.5039370078740157
        },
        {
          "duration": 0.04479166666666856,
          "durationTicks": 43,
          "midi": 42,
          "name": "F#2",
          "ticks": 140040,
          "time": 145.875,
          "velocity": 0.5039370078740157
        },
        {
          "duration": 0.11770833333332575,
          "durationTicks": 113,
          "midi": 36,
          "name": "C2",
          "ticks": 140160,
          "time": 146,
          "velocity": 0.5039370078740157
        },
        {
          "duration": 0.04166666666665719,
          "durationTicks": 40,
          "midi": 39,
          "name": "D#2",
          "ticks": 140160,
          "time": 146,
          "velocity": 0.5039370078740157
        },
        {
          "duration": 0.03645833333334281,
          "durationTicks": 35,
          "midi": 39,
          "name": "D#2",
          "ticks": 140280,
          "time": 146.125,
          "velocity": 0.5039370078740157
        },
        {
          "duration": 0.05000000000001137,
          "durationTicks": 48,
          "midi": 42,
          "name": "F#2",
          "ticks": 140280,
          "time": 146.125,
          "velocity": 0.5039370078740157
        },
        {
          "duration": 0.08333333333334281,
          "durationTicks": 80,
          "midi": 39,
          "name": "D#2",
          "ticks": 140400,
          "time": 146.25,
          "velocity": 0.5039370078740157
        },
        {
          "duration": 0.046875,
          "durationTicks": 45,
          "midi": 44,
          "name": "G#2",
          "ticks": 140400,
          "time": 146.25,
          "velocity": 0.5039370078740157
        },
        {
          "duration": 0.039583333333325754,
          "durationTicks": 38,
          "midi": 42,
          "name": "F#2",
          "ticks": 140520,
          "time": 146.375,
          "velocity": 0.5039370078740157
        },
        {
          "duration": 0.4375,
          "durationTicks": 420,
          "midi": 38,
          "name": "D2",
          "ticks": 140640,
          "time": 146.5,
          "velocity": 0.5039370078740157
        },
        {
          "duration": 0.03437500000001137,
          "durationTicks": 33,
          "midi": 42,
          "name": "F#2",
          "ticks": 140640,
          "time": 146.5,
          "velocity": 0.5039370078740157
        },
        {
          "duration": 0.02916666666666856,
          "durationTicks": 28,
          "midi": 42,
          "name": "F#2",
          "ticks": 140760,
          "time": 146.625,
          "velocity": 0.5039370078740157
        },
        {
          "duration": 0.04166666666665719,
          "durationTicks": 40,
          "midi": 42,
          "name": "F#2",
          "ticks": 140880,
          "time": 146.75,
          "velocity": 0.5039370078740157
        },
        {
          "duration": 0.05000000000001137,
          "durationTicks": 48,
          "midi": 44,
          "name": "G#2",
          "ticks": 141000,
          "time": 146.875,
          "velocity": 0.5039370078740157
        },
        {
          "duration": 0.04479166666666856,
          "durationTicks": 43,
          "midi": 42,
          "name": "F#2",
          "ticks": 141120,
          "time": 147,
          "velocity": 0.5039370078740157
        },
        {
          "duration": 0.0625,
          "durationTicks": 60,
          "midi": 36,
          "name": "C2",
          "ticks": 141240,
          "time": 147.125,
          "velocity": 0.5039370078740157
        },
        {
          "duration": 0.039583333333325754,
          "durationTicks": 38,
          "midi": 42,
          "name": "F#2",
          "ticks": 141240,
          "time": 147.125,
          "velocity": 0.5039370078740157
        },
        {
          "duration": 0.06770833333334281,
          "durationTicks": 65,
          "midi": 36,
          "name": "C2",
          "ticks": 141360,
          "time": 147.25,
          "velocity": 0.5039370078740157
        },
        {
          "duration": 0.04166666666665719,
          "durationTicks": 40,
          "midi": 42,
          "name": "F#2",
          "ticks": 141360,
          "time": 147.25,
          "velocity": 0.5039370078740157
        },
        {
          "duration": 0.046875,
          "durationTicks": 45,
          "midi": 44,
          "name": "G#2",
          "ticks": 141480,
          "time": 147.375,
          "velocity": 0.5039370078740157
        },
        {
          "duration": 0.4375,
          "durationTicks": 420,
          "midi": 38,
          "name": "D2",
          "ticks": 141600,
          "time": 147.5,
          "velocity": 0.5039370078740157
        },
        {
          "duration": 0.0625,
          "durationTicks": 60,
          "midi": 36,
          "name": "C2",
          "ticks": 141600,
          "time": 147.5,
          "velocity": 0.5039370078740157
        },
        {
          "duration": 0.04166666666665719,
          "durationTicks": 40,
          "midi": 42,
          "name": "F#2",
          "ticks": 141600,
          "time": 147.5,
          "velocity": 0.5039370078740157
        },
        {
          "duration": 0.03125,
          "durationTicks": 30,
          "midi": 42,
          "name": "F#2",
          "ticks": 141720,
          "time": 147.625,
          "velocity": 0.5039370078740157
        },
        {
          "duration": 0.0625,
          "durationTicks": 60,
          "midi": 36,
          "name": "C2",
          "ticks": 141840,
          "time": 147.75,
          "velocity": 0.5039370078740157
        },
        {
          "duration": 0.07083333333332575,
          "durationTicks": 68,
          "midi": 44,
          "name": "G#2",
          "ticks": 141840,
          "time": 147.75,
          "velocity": 0.5039370078740157
        },
        {
          "duration": 0.04479166666666856,
          "durationTicks": 43,
          "midi": 42,
          "name": "F#2",
          "ticks": 141960,
          "time": 147.875,
          "velocity": 0.5039370078740157
        },
        {
          "duration": 0.05000000000001137,
          "durationTicks": 48,
          "midi": 42,
          "name": "F#2",
          "ticks": 142200,
          "time": 148.125,
          "velocity": 0.5039370078740157
        },
        {
          "duration": 0.046875,
          "durationTicks": 45,
          "midi": 44,
          "name": "G#2",
          "ticks": 142320,
          "time": 148.25,
          "velocity": 0.5039370078740157
        },
        {
          "duration": 0.039583333333325754,
          "durationTicks": 38,
          "midi": 42,
          "name": "F#2",
          "ticks": 142440,
          "time": 148.375,
          "velocity": 0.5039370078740157
        },
        {
          "duration": 0.4375,
          "durationTicks": 420,
          "midi": 38,
          "name": "D2",
          "ticks": 142560,
          "time": 148.5,
          "velocity": 0.5039370078740157
        },
        {
          "duration": 0.03437500000001137,
          "durationTicks": 33,
          "midi": 42,
          "name": "F#2",
          "ticks": 142560,
          "time": 148.5,
          "velocity": 0.5039370078740157
        },
        {
          "duration": 0.02916666666666856,
          "durationTicks": 28,
          "midi": 42,
          "name": "F#2",
          "ticks": 142680,
          "time": 148.625,
          "velocity": 0.5039370078740157
        },
        {
          "duration": 0.04166666666665719,
          "durationTicks": 40,
          "midi": 42,
          "name": "F#2",
          "ticks": 142800,
          "time": 148.75,
          "velocity": 0.5039370078740157
        },
        {
          "duration": 0.05000000000001137,
          "durationTicks": 48,
          "midi": 44,
          "name": "G#2",
          "ticks": 142920,
          "time": 148.875,
          "velocity": 0.5039370078740157
        },
        {
          "duration": 0.04479166666666856,
          "durationTicks": 43,
          "midi": 42,
          "name": "F#2",
          "ticks": 143040,
          "time": 149,
          "velocity": 0.5039370078740157
        },
        {
          "duration": 0.0625,
          "durationTicks": 60,
          "midi": 36,
          "name": "C2",
          "ticks": 143160,
          "time": 149.125,
          "velocity": 0.5039370078740157
        },
        {
          "duration": 0.039583333333325754,
          "durationTicks": 38,
          "midi": 42,
          "name": "F#2",
          "ticks": 143160,
          "time": 149.125,
          "velocity": 0.5039370078740157
        },
        {
          "duration": 0.06562500000001137,
          "durationTicks": 63,
          "midi": 36,
          "name": "C2",
          "ticks": 143280,
          "time": 149.25,
          "velocity": 0.5039370078740157
        },
        {
          "duration": 0.04166666666665719,
          "durationTicks": 40,
          "midi": 42,
          "name": "F#2",
          "ticks": 143280,
          "time": 149.25,
          "velocity": 0.5039370078740157
        },
        {
          "duration": 0.046875,
          "durationTicks": 45,
          "midi": 44,
          "name": "G#2",
          "ticks": 143400,
          "time": 149.375,
          "velocity": 0.5039370078740157
        },
        {
          "duration": 0.4375,
          "durationTicks": 420,
          "midi": 38,
          "name": "D2",
          "ticks": 143520,
          "time": 149.5,
          "velocity": 0.5039370078740157
        },
        {
          "duration": 0.04166666666665719,
          "durationTicks": 40,
          "midi": 42,
          "name": "F#2",
          "ticks": 143520,
          "time": 149.5,
          "velocity": 0.5039370078740157
        },
        {
          "duration": 0.03125,
          "durationTicks": 30,
          "midi": 42,
          "name": "F#2",
          "ticks": 143640,
          "time": 149.625,
          "velocity": 0.5039370078740157
        },
        {
          "duration": 0.07083333333332575,
          "durationTicks": 68,
          "midi": 44,
          "name": "G#2",
          "ticks": 143760,
          "time": 149.75,
          "velocity": 0.5039370078740157
        },
        {
          "duration": 0.04479166666666856,
          "durationTicks": 43,
          "midi": 42,
          "name": "F#2",
          "ticks": 143880,
          "time": 149.875,
          "velocity": 0.5039370078740157
        },
        {
          "duration": 0.07604166666666856,
          "durationTicks": 73,
          "midi": 36,
          "name": "C2",
          "ticks": 144000,
          "time": 150,
          "velocity": 0.5039370078740157
        },
        {
          "duration": 0.05000000000001137,
          "durationTicks": 48,
          "midi": 42,
          "name": "F#2",
          "ticks": 144120,
          "time": 150.125,
          "velocity": 0.5039370078740157
        },
        {
          "duration": 0.046875,
          "durationTicks": 45,
          "midi": 44,
          "name": "G#2",
          "ticks": 144240,
          "time": 150.25,
          "velocity": 0.5039370078740157
        },
        {
          "duration": 0.039583333333325754,
          "durationTicks": 38,
          "midi": 42,
          "name": "F#2",
          "ticks": 144360,
          "time": 150.375,
          "velocity": 0.5039370078740157
        },
        {
          "duration": 0.03437500000001137,
          "durationTicks": 33,
          "midi": 42,
          "name": "F#2",
          "ticks": 144480,
          "time": 150.5,
          "velocity": 0.5039370078740157
        },
        {
          "duration": 0.4375,
          "durationTicks": 420,
          "midi": 38,
          "name": "D2",
          "ticks": 144480,
          "time": 150.5,
          "velocity": 0.5039370078740157
        },
        {
          "duration": 0.02916666666666856,
          "durationTicks": 28,
          "midi": 42,
          "name": "F#2",
          "ticks": 144600,
          "time": 150.625,
          "velocity": 0.5039370078740157
        },
        {
          "duration": 0.04166666666665719,
          "durationTicks": 40,
          "midi": 42,
          "name": "F#2",
          "ticks": 144720,
          "time": 150.75,
          "velocity": 0.5039370078740157
        },
        {
          "duration": 0.05000000000001137,
          "durationTicks": 48,
          "midi": 44,
          "name": "G#2",
          "ticks": 144840,
          "time": 150.875,
          "velocity": 0.5039370078740157
        },
        {
          "duration": 0.07291666666665719,
          "durationTicks": 70,
          "midi": 36,
          "name": "C2",
          "ticks": 144840,
          "time": 150.875,
          "velocity": 0.5039370078740157
        },
        {
          "duration": 0.04479166666666856,
          "durationTicks": 43,
          "midi": 42,
          "name": "F#2",
          "ticks": 144960,
          "time": 151,
          "velocity": 0.5039370078740157
        },
        {
          "duration": 0.039583333333325754,
          "durationTicks": 38,
          "midi": 42,
          "name": "F#2",
          "ticks": 145080,
          "time": 151.125,
          "velocity": 0.5039370078740157
        },
        {
          "duration": 0.055208333333325754,
          "durationTicks": 53,
          "midi": 36,
          "name": "C2",
          "ticks": 145080,
          "time": 151.125,
          "velocity": 0.5039370078740157
        },
        {
          "duration": 0.04166666666665719,
          "durationTicks": 40,
          "midi": 42,
          "name": "F#2",
          "ticks": 145200,
          "time": 151.25,
          "velocity": 0.5039370078740157
        },
        {
          "duration": 0.07291666666665719,
          "durationTicks": 70,
          "midi": 36,
          "name": "C2",
          "ticks": 145200,
          "time": 151.25,
          "velocity": 0.5039370078740157
        },
        {
          "duration": 0.046875,
          "durationTicks": 45,
          "midi": 44,
          "name": "G#2",
          "ticks": 145320,
          "time": 151.375,
          "velocity": 0.5039370078740157
        },
        {
          "duration": 0.04166666666665719,
          "durationTicks": 40,
          "midi": 42,
          "name": "F#2",
          "ticks": 145440,
          "time": 151.5,
          "velocity": 0.5039370078740157
        },
        {
          "duration": 0.07083333333332575,
          "durationTicks": 68,
          "midi": 36,
          "name": "C2",
          "ticks": 145440,
          "time": 151.5,
          "velocity": 0.5039370078740157
        },
        {
          "duration": 0.4375,
          "durationTicks": 420,
          "midi": 38,
          "name": "D2",
          "ticks": 145440,
          "time": 151.5,
          "velocity": 0.5039370078740157
        },
        {
          "duration": 0.03125,
          "durationTicks": 30,
          "midi": 42,
          "name": "F#2",
          "ticks": 145560,
          "time": 151.625,
          "velocity": 0.5039370078740157
        },
        {
          "duration": 0.0625,
          "durationTicks": 60,
          "midi": 36,
          "name": "C2",
          "ticks": 145680,
          "time": 151.75,
          "velocity": 0.5039370078740157
        },
        {
          "duration": 0.07083333333332575,
          "durationTicks": 68,
          "midi": 44,
          "name": "G#2",
          "ticks": 145680,
          "time": 151.75,
          "velocity": 0.5039370078740157
        },
        {
          "duration": 0.04479166666666856,
          "durationTicks": 43,
          "midi": 42,
          "name": "F#2",
          "ticks": 145800,
          "time": 151.875,
          "velocity": 0.5039370078740157
        },
        {
          "duration": 0.06041666666666856,
          "durationTicks": 58,
          "midi": 36,
          "name": "C2",
          "ticks": 145920,
          "time": 152,
          "velocity": 0.5039370078740157
        },
        {
          "duration": 0.05000000000001137,
          "durationTicks": 48,
          "midi": 42,
          "name": "F#2",
          "ticks": 146040,
          "time": 152.125,
          "velocity": 0.5039370078740157
        },
        {
          "duration": 0.046875,
          "durationTicks": 45,
          "midi": 44,
          "name": "G#2",
          "ticks": 146160,
          "time": 152.25,
          "velocity": 0.5039370078740157
        },
        {
          "duration": 0.039583333333325754,
          "durationTicks": 38,
          "midi": 42,
          "name": "F#2",
          "ticks": 146280,
          "time": 152.375,
          "velocity": 0.5039370078740157
        },
        {
          "duration": 0.4375,
          "durationTicks": 420,
          "midi": 38,
          "name": "D2",
          "ticks": 146400,
          "time": 152.5,
          "velocity": 0.5039370078740157
        },
        {
          "duration": 0.03437500000001137,
          "durationTicks": 33,
          "midi": 42,
          "name": "F#2",
          "ticks": 146400,
          "time": 152.5,
          "velocity": 0.5039370078740157
        },
        {
          "duration": 0.02916666666666856,
          "durationTicks": 28,
          "midi": 42,
          "name": "F#2",
          "ticks": 146520,
          "time": 152.625,
          "velocity": 0.5039370078740157
        },
        {
          "duration": 0.04166666666665719,
          "durationTicks": 40,
          "midi": 42,
          "name": "F#2",
          "ticks": 146640,
          "time": 152.75,
          "velocity": 0.5039370078740157
        },
        {
          "duration": 0.05000000000001137,
          "durationTicks": 48,
          "midi": 44,
          "name": "G#2",
          "ticks": 146760,
          "time": 152.875,
          "velocity": 0.5039370078740157
        },
        {
          "duration": 0.04479166666666856,
          "durationTicks": 43,
          "midi": 42,
          "name": "F#2",
          "ticks": 146880,
          "time": 153,
          "velocity": 0.5039370078740157
        },
        {
          "duration": 0.055208333333325754,
          "durationTicks": 53,
          "midi": 36,
          "name": "C2",
          "ticks": 147000,
          "time": 153.125,
          "velocity": 0.5039370078740157
        },
        {
          "duration": 0.039583333333325754,
          "durationTicks": 38,
          "midi": 42,
          "name": "F#2",
          "ticks": 147000,
          "time": 153.125,
          "velocity": 0.5039370078740157
        },
        {
          "duration": 0.06041666666666856,
          "durationTicks": 58,
          "midi": 36,
          "name": "C2",
          "ticks": 147120,
          "time": 153.25,
          "velocity": 0.5039370078740157
        },
        {
          "duration": 0.04166666666665719,
          "durationTicks": 40,
          "midi": 42,
          "name": "F#2",
          "ticks": 147120,
          "time": 153.25,
          "velocity": 0.5039370078740157
        },
        {
          "duration": 0.046875,
          "durationTicks": 45,
          "midi": 44,
          "name": "G#2",
          "ticks": 147240,
          "time": 153.375,
          "velocity": 0.5039370078740157
        },
        {
          "duration": 0.055208333333325754,
          "durationTicks": 53,
          "midi": 36,
          "name": "C2",
          "ticks": 147360,
          "time": 153.5,
          "velocity": 0.5039370078740157
        },
        {
          "duration": 0.4375,
          "durationTicks": 420,
          "midi": 38,
          "name": "D2",
          "ticks": 147360,
          "time": 153.5,
          "velocity": 0.5039370078740157
        },
        {
          "duration": 0.04166666666665719,
          "durationTicks": 40,
          "midi": 42,
          "name": "F#2",
          "ticks": 147360,
          "time": 153.5,
          "velocity": 0.5039370078740157
        },
        {
          "duration": 0.03125,
          "durationTicks": 30,
          "midi": 42,
          "name": "F#2",
          "ticks": 147480,
          "time": 153.625,
          "velocity": 0.5039370078740157
        },
        {
          "duration": 0.055208333333325754,
          "durationTicks": 53,
          "midi": 36,
          "name": "C2",
          "ticks": 147600,
          "time": 153.75,
          "velocity": 0.5039370078740157
        },
        {
          "duration": 0.07083333333332575,
          "durationTicks": 68,
          "midi": 44,
          "name": "G#2",
          "ticks": 147600,
          "time": 153.75,
          "velocity": 0.5039370078740157
        },
        {
          "duration": 0.04479166666666856,
          "durationTicks": 43,
          "midi": 42,
          "name": "F#2",
          "ticks": 147720,
          "time": 153.875,
          "velocity": 0.5039370078740157
        },
        {
          "duration": 0.07604166666666856,
          "durationTicks": 73,
          "midi": 36,
          "name": "C2",
          "ticks": 147840,
          "time": 154,
          "velocity": 0.5039370078740157
        },
        {
          "duration": 0.05000000000001137,
          "durationTicks": 48,
          "midi": 42,
          "name": "F#2",
          "ticks": 147960,
          "time": 154.125,
          "velocity": 0.5039370078740157
        },
        {
          "duration": 0.046875,
          "durationTicks": 45,
          "midi": 44,
          "name": "G#2",
          "ticks": 148080,
          "time": 154.25,
          "velocity": 0.5039370078740157
        },
        {
          "duration": 0.039583333333325754,
          "durationTicks": 38,
          "midi": 42,
          "name": "F#2",
          "ticks": 148200,
          "time": 154.375,
          "velocity": 0.5039370078740157
        },
        {
          "duration": 0.03437500000001137,
          "durationTicks": 33,
          "midi": 42,
          "name": "F#2",
          "ticks": 148320,
          "time": 154.5,
          "velocity": 0.5039370078740157
        },
        {
          "duration": 0.4375,
          "durationTicks": 420,
          "midi": 38,
          "name": "D2",
          "ticks": 148320,
          "time": 154.5,
          "velocity": 0.5039370078740157
        },
        {
          "duration": 0.02916666666666856,
          "durationTicks": 28,
          "midi": 42,
          "name": "F#2",
          "ticks": 148440,
          "time": 154.625,
          "velocity": 0.5039370078740157
        },
        {
          "duration": 0.04166666666665719,
          "durationTicks": 40,
          "midi": 42,
          "name": "F#2",
          "ticks": 148560,
          "time": 154.75,
          "velocity": 0.5039370078740157
        },
        {
          "duration": 0.05000000000001137,
          "durationTicks": 48,
          "midi": 44,
          "name": "G#2",
          "ticks": 148680,
          "time": 154.875,
          "velocity": 0.5039370078740157
        },
        {
          "duration": 0.07291666666665719,
          "durationTicks": 70,
          "midi": 36,
          "name": "C2",
          "ticks": 148680,
          "time": 154.875,
          "velocity": 0.5039370078740157
        },
        {
          "duration": 0.04479166666666856,
          "durationTicks": 43,
          "midi": 42,
          "name": "F#2",
          "ticks": 148800,
          "time": 155,
          "velocity": 0.5039370078740157
        },
        {
          "duration": 0.039583333333325754,
          "durationTicks": 38,
          "midi": 42,
          "name": "F#2",
          "ticks": 148920,
          "time": 155.125,
          "velocity": 0.5039370078740157
        },
        {
          "duration": 0.055208333333325754,
          "durationTicks": 53,
          "midi": 36,
          "name": "C2",
          "ticks": 148920,
          "time": 155.125,
          "velocity": 0.5039370078740157
        },
        {
          "duration": 0.04166666666665719,
          "durationTicks": 40,
          "midi": 42,
          "name": "F#2",
          "ticks": 149040,
          "time": 155.25,
          "velocity": 0.5039370078740157
        },
        {
          "duration": 0.07291666666665719,
          "durationTicks": 70,
          "midi": 36,
          "name": "C2",
          "ticks": 149040,
          "time": 155.25,
          "velocity": 0.5039370078740157
        },
        {
          "duration": 0.046875,
          "durationTicks": 45,
          "midi": 44,
          "name": "G#2",
          "ticks": 149160,
          "time": 155.375,
          "velocity": 0.5039370078740157
        },
        {
          "duration": 0.04166666666665719,
          "durationTicks": 40,
          "midi": 42,
          "name": "F#2",
          "ticks": 149280,
          "time": 155.5,
          "velocity": 0.5039370078740157
        },
        {
          "duration": 0.07083333333332575,
          "durationTicks": 68,
          "midi": 36,
          "name": "C2",
          "ticks": 149280,
          "time": 155.5,
          "velocity": 0.5039370078740157
        },
        {
          "duration": 0.4375,
          "durationTicks": 420,
          "midi": 38,
          "name": "D2",
          "ticks": 149280,
          "time": 155.5,
          "velocity": 0.5039370078740157
        },
        {
          "duration": 0.03125,
          "durationTicks": 30,
          "midi": 42,
          "name": "F#2",
          "ticks": 149400,
          "time": 155.625,
          "velocity": 0.5039370078740157
        },
        {
          "duration": 0.0625,
          "durationTicks": 60,
          "midi": 36,
          "name": "C2",
          "ticks": 149520,
          "time": 155.75,
          "velocity": 0.5039370078740157
        },
        {
          "duration": 0.07083333333332575,
          "durationTicks": 68,
          "midi": 44,
          "name": "G#2",
          "ticks": 149520,
          "time": 155.75,
          "velocity": 0.5039370078740157
        },
        {
          "duration": 0.04479166666666856,
          "durationTicks": 43,
          "midi": 42,
          "name": "F#2",
          "ticks": 149640,
          "time": 155.875,
          "velocity": 0.5039370078740157
        },
        {
          "duration": 0.06041666666666856,
          "durationTicks": 58,
          "midi": 36,
          "name": "C2",
          "ticks": 149760,
          "time": 156,
          "velocity": 0.5039370078740157
        },
        {
          "duration": 0.05000000000001137,
          "durationTicks": 48,
          "midi": 42,
          "name": "F#2",
          "ticks": 149880,
          "time": 156.125,
          "velocity": 0.5039370078740157
        },
        {
          "duration": 0.046875,
          "durationTicks": 45,
          "midi": 44,
          "name": "G#2",
          "ticks": 150000,
          "time": 156.25,
          "velocity": 0.5039370078740157
        },
        {
          "duration": 0.039583333333325754,
          "durationTicks": 38,
          "midi": 42,
          "name": "F#2",
          "ticks": 150120,
          "time": 156.375,
          "velocity": 0.5039370078740157
        },
        {
          "duration": 0.4375,
          "durationTicks": 420,
          "midi": 38,
          "name": "D2",
          "ticks": 150240,
          "time": 156.5,
          "velocity": 0.5039370078740157
        },
        {
          "duration": 0.03437500000001137,
          "durationTicks": 33,
          "midi": 42,
          "name": "F#2",
          "ticks": 150240,
          "time": 156.5,
          "velocity": 0.5039370078740157
        },
        {
          "duration": 0.02916666666666856,
          "durationTicks": 28,
          "midi": 42,
          "name": "F#2",
          "ticks": 150360,
          "time": 156.625,
          "velocity": 0.5039370078740157
        },
        {
          "duration": 0.04166666666665719,
          "durationTicks": 40,
          "midi": 42,
          "name": "F#2",
          "ticks": 150480,
          "time": 156.75,
          "velocity": 0.5039370078740157
        },
        {
          "duration": 0.05000000000001137,
          "durationTicks": 48,
          "midi": 44,
          "name": "G#2",
          "ticks": 150600,
          "time": 156.875,
          "velocity": 0.5039370078740157
        },
        {
          "duration": 0.04479166666666856,
          "durationTicks": 43,
          "midi": 42,
          "name": "F#2",
          "ticks": 150720,
          "time": 157,
          "velocity": 0.5039370078740157
        },
        {
          "duration": 0.055208333333325754,
          "durationTicks": 53,
          "midi": 36,
          "name": "C2",
          "ticks": 150840,
          "time": 157.125,
          "velocity": 0.5039370078740157
        },
        {
          "duration": 0.0625,
          "durationTicks": 60,
          "midi": 39,
          "name": "D#2",
          "ticks": 150840,
          "time": 157.125,
          "velocity": 0.5039370078740157
        },
        {
          "duration": 0.039583333333325754,
          "durationTicks": 38,
          "midi": 42,
          "name": "F#2",
          "ticks": 150840,
          "time": 157.125,
          "velocity": 0.5039370078740157
        },
        {
          "duration": 0.06041666666666856,
          "durationTicks": 58,
          "midi": 36,
          "name": "C2",
          "ticks": 150960,
          "time": 157.25,
          "velocity": 0.5039370078740157
        },
        {
          "duration": 0.04166666666665719,
          "durationTicks": 40,
          "midi": 42,
          "name": "F#2",
          "ticks": 150960,
          "time": 157.25,
          "velocity": 0.5039370078740157
        },
        {
          "duration": 0.06041666666666856,
          "durationTicks": 58,
          "midi": 39,
          "name": "D#2",
          "ticks": 151080,
          "time": 157.375,
          "velocity": 0.5039370078740157
        },
        {
          "duration": 0.046875,
          "durationTicks": 45,
          "midi": 44,
          "name": "G#2",
          "ticks": 151080,
          "time": 157.375,
          "velocity": 0.5039370078740157
        },
        {
          "duration": 0.055208333333325754,
          "durationTicks": 53,
          "midi": 36,
          "name": "C2",
          "ticks": 151200,
          "time": 157.5,
          "velocity": 0.5039370078740157
        },
        {
          "duration": 0.4375,
          "durationTicks": 420,
          "midi": 38,
          "name": "D2",
          "ticks": 151200,
          "time": 157.5,
          "velocity": 0.5039370078740157
        },
        {
          "duration": 0.04166666666665719,
          "durationTicks": 40,
          "midi": 42,
          "name": "F#2",
          "ticks": 151200,
          "time": 157.5,
          "velocity": 0.5039370078740157
        },
        {
          "duration": 0.046875,
          "durationTicks": 45,
          "midi": 39,
          "name": "D#2",
          "ticks": 151320,
          "time": 157.625,
          "velocity": 0.5039370078740157
        },
        {
          "duration": 0.03125,
          "durationTicks": 30,
          "midi": 42,
          "name": "F#2",
          "ticks": 151320,
          "time": 157.625,
          "velocity": 0.5039370078740157
        },
        {
          "duration": 0.055208333333325754,
          "durationTicks": 53,
          "midi": 36,
          "name": "C2",
          "ticks": 151440,
          "time": 157.75,
          "velocity": 0.5039370078740157
        },
        {
          "duration": 0.046875,
          "durationTicks": 45,
          "midi": 39,
          "name": "D#2",
          "ticks": 151440,
          "time": 157.75,
          "velocity": 0.5039370078740157
        },
        {
          "duration": 0.07083333333332575,
          "durationTicks": 68,
          "midi": 44,
          "name": "G#2",
          "ticks": 151440,
          "time": 157.75,
          "velocity": 0.5039370078740157
        },
        {
          "duration": 0.04479166666666856,
          "durationTicks": 43,
          "midi": 39,
          "name": "D#2",
          "ticks": 151560,
          "time": 157.875,
          "velocity": 0.5039370078740157
        },
        {
          "duration": 0.04479166666666856,
          "durationTicks": 43,
          "midi": 42,
          "name": "F#2",
          "ticks": 151560,
          "time": 157.875,
          "velocity": 0.5039370078740157
        },
        {
          "duration": 0.11770833333332575,
          "durationTicks": 113,
          "midi": 36,
          "name": "C2",
          "ticks": 151680,
          "time": 158,
          "velocity": 0.5039370078740157
        },
        {
          "duration": 0.04166666666665719,
          "durationTicks": 40,
          "midi": 39,
          "name": "D#2",
          "ticks": 151680,
          "time": 158,
          "velocity": 0.5039370078740157
        },
        {
          "duration": 0.05000000000001137,
          "durationTicks": 48,
          "midi": 42,
          "name": "F#2",
          "ticks": 151800,
          "time": 158.125,
          "velocity": 0.5039370078740157
        },
        {
          "duration": 0.03645833333334281,
          "durationTicks": 35,
          "midi": 39,
          "name": "D#2",
          "ticks": 151800,
          "time": 158.125,
          "velocity": 0.5039370078740157
        },
        {
          "duration": 0.046875,
          "durationTicks": 45,
          "midi": 44,
          "name": "G#2",
          "ticks": 151920,
          "time": 158.25,
          "velocity": 0.5039370078740157
        },
        {
          "duration": 0.08333333333334281,
          "durationTicks": 80,
          "midi": 39,
          "name": "D#2",
          "ticks": 151920,
          "time": 158.25,
          "velocity": 0.5039370078740157
        },
        {
          "duration": 0.039583333333325754,
          "durationTicks": 38,
          "midi": 42,
          "name": "F#2",
          "ticks": 152040,
          "time": 158.375,
          "velocity": 0.5039370078740157
        },
        {
          "duration": 0.03437500000001137,
          "durationTicks": 33,
          "midi": 42,
          "name": "F#2",
          "ticks": 152160,
          "time": 158.5,
          "velocity": 0.5039370078740157
        },
        {
          "duration": 0.4375,
          "durationTicks": 420,
          "midi": 38,
          "name": "D2",
          "ticks": 152160,
          "time": 158.5,
          "velocity": 0.5039370078740157
        },
        {
          "duration": 0.02916666666666856,
          "durationTicks": 28,
          "midi": 42,
          "name": "F#2",
          "ticks": 152280,
          "time": 158.625,
          "velocity": 0.5039370078740157
        },
        {
          "duration": 0.04166666666665719,
          "durationTicks": 40,
          "midi": 42,
          "name": "F#2",
          "ticks": 152400,
          "time": 158.75,
          "velocity": 0.5039370078740157
        },
        {
          "duration": 0.05000000000001137,
          "durationTicks": 48,
          "midi": 44,
          "name": "G#2",
          "ticks": 152520,
          "time": 158.875,
          "velocity": 0.5039370078740157
        },
        {
          "duration": 0.04479166666666856,
          "durationTicks": 43,
          "midi": 42,
          "name": "F#2",
          "ticks": 152640,
          "time": 159,
          "velocity": 0.5039370078740157
        },
        {
          "duration": 0.039583333333325754,
          "durationTicks": 38,
          "midi": 42,
          "name": "F#2",
          "ticks": 152760,
          "time": 159.125,
          "velocity": 0.5039370078740157
        },
        {
          "duration": 0.0625,
          "durationTicks": 60,
          "midi": 36,
          "name": "C2",
          "ticks": 152760,
          "time": 159.125,
          "velocity": 0.5039370078740157
        },
        {
          "duration": 0.04166666666665719,
          "durationTicks": 40,
          "midi": 42,
          "name": "F#2",
          "ticks": 152880,
          "time": 159.25,
          "velocity": 0.5039370078740157
        },
        {
          "duration": 0.06770833333334281,
          "durationTicks": 65,
          "midi": 36,
          "name": "C2",
          "ticks": 152880,
          "time": 159.25,
          "velocity": 0.5039370078740157
        },
        {
          "duration": 0.046875,
          "durationTicks": 45,
          "midi": 44,
          "name": "G#2",
          "ticks": 153000,
          "time": 159.375,
          "velocity": 0.5039370078740157
        },
        {
          "duration": 0.04166666666665719,
          "durationTicks": 40,
          "midi": 42,
          "name": "F#2",
          "ticks": 153120,
          "time": 159.5,
          "velocity": 0.5039370078740157
        },
        {
          "duration": 0.4375,
          "durationTicks": 420,
          "midi": 38,
          "name": "D2",
          "ticks": 153120,
          "time": 159.5,
          "velocity": 0.5039370078740157
        },
        {
          "duration": 0.0625,
          "durationTicks": 60,
          "midi": 36,
          "name": "C2",
          "ticks": 153120,
          "time": 159.5,
          "velocity": 0.5039370078740157
        },
        {
          "duration": 0.03125,
          "durationTicks": 30,
          "midi": 42,
          "name": "F#2",
          "ticks": 153240,
          "time": 159.625,
          "velocity": 0.5039370078740157
        },
        {
          "duration": 0.07083333333332575,
          "durationTicks": 68,
          "midi": 44,
          "name": "G#2",
          "ticks": 153360,
          "time": 159.75,
          "velocity": 0.5039370078740157
        },
        {
          "duration": 0.0625,
          "durationTicks": 60,
          "midi": 36,
          "name": "C2",
          "ticks": 153360,
          "time": 159.75,
          "velocity": 0.5039370078740157
        },
        {
          "duration": 0.04479166666666856,
          "durationTicks": 43,
          "midi": 42,
          "name": "F#2",
          "ticks": 153480,
          "time": 159.875,
          "velocity": 0.5039370078740157
        },
        {
          "duration": 0.05000000000001137,
          "durationTicks": 48,
          "midi": 42,
          "name": "F#2",
          "ticks": 153720,
          "time": 160.125,
          "velocity": 0.5039370078740157
        },
        {
          "duration": 0.046875,
          "durationTicks": 45,
          "midi": 44,
          "name": "G#2",
          "ticks": 153840,
          "time": 160.25,
          "velocity": 0.5039370078740157
        },
        {
          "duration": 0.039583333333325754,
          "durationTicks": 38,
          "midi": 42,
          "name": "F#2",
          "ticks": 153960,
          "time": 160.375,
          "velocity": 0.5039370078740157
        },
        {
          "duration": 0.03437500000001137,
          "durationTicks": 33,
          "midi": 42,
          "name": "F#2",
          "ticks": 154080,
          "time": 160.5,
          "velocity": 0.5039370078740157
        },
        {
          "duration": 0.4375,
          "durationTicks": 420,
          "midi": 38,
          "name": "D2",
          "ticks": 154080,
          "time": 160.5,
          "velocity": 0.5039370078740157
        },
        {
          "duration": 0.02916666666666856,
          "durationTicks": 28,
          "midi": 42,
          "name": "F#2",
          "ticks": 154200,
          "time": 160.625,
          "velocity": 0.5039370078740157
        },
        {
          "duration": 0.04166666666665719,
          "durationTicks": 40,
          "midi": 42,
          "name": "F#2",
          "ticks": 154320,
          "time": 160.75,
          "velocity": 0.5039370078740157
        },
        {
          "duration": 0.05000000000001137,
          "durationTicks": 48,
          "midi": 44,
          "name": "G#2",
          "ticks": 154440,
          "time": 160.875,
          "velocity": 0.5039370078740157
        },
        {
          "duration": 0.04479166666666856,
          "durationTicks": 43,
          "midi": 42,
          "name": "F#2",
          "ticks": 154560,
          "time": 161,
          "velocity": 0.5039370078740157
        },
        {
          "duration": 0.039583333333325754,
          "durationTicks": 38,
          "midi": 42,
          "name": "F#2",
          "ticks": 154680,
          "time": 161.125,
          "velocity": 0.5039370078740157
        },
        {
          "duration": 0.0625,
          "durationTicks": 60,
          "midi": 36,
          "name": "C2",
          "ticks": 154680,
          "time": 161.125,
          "velocity": 0.5039370078740157
        },
        {
          "duration": 0.04166666666665719,
          "durationTicks": 40,
          "midi": 42,
          "name": "F#2",
          "ticks": 154800,
          "time": 161.25,
          "velocity": 0.5039370078740157
        },
        {
          "duration": 0.06562500000001137,
          "durationTicks": 63,
          "midi": 36,
          "name": "C2",
          "ticks": 154800,
          "time": 161.25,
          "velocity": 0.5039370078740157
        },
        {
          "duration": 0.046875,
          "durationTicks": 45,
          "midi": 44,
          "name": "G#2",
          "ticks": 154920,
          "time": 161.375,
          "velocity": 0.5039370078740157
        },
        {
          "duration": 0.04166666666665719,
          "durationTicks": 40,
          "midi": 42,
          "name": "F#2",
          "ticks": 155040,
          "time": 161.5,
          "velocity": 0.5039370078740157
        },
        {
          "duration": 0.4375,
          "durationTicks": 420,
          "midi": 38,
          "name": "D2",
          "ticks": 155040,
          "time": 161.5,
          "velocity": 0.5039370078740157
        },
        {
          "duration": 0.03125,
          "durationTicks": 30,
          "midi": 42,
          "name": "F#2",
          "ticks": 155160,
          "time": 161.625,
          "velocity": 0.5039370078740157
        },
        {
          "duration": 0.07083333333332575,
          "durationTicks": 68,
          "midi": 44,
          "name": "G#2",
          "ticks": 155280,
          "time": 161.75,
          "velocity": 0.5039370078740157
        },
        {
          "duration": 0.04479166666666856,
          "durationTicks": 43,
          "midi": 42,
          "name": "F#2",
          "ticks": 155400,
          "time": 161.875,
          "velocity": 0.5039370078740157
        },
        {
          "duration": 0.07604166666666856,
          "durationTicks": 73,
          "midi": 36,
          "name": "C2",
          "ticks": 155520,
          "time": 162,
          "velocity": 0.5039370078740157
        },
        {
          "duration": 0.05000000000001137,
          "durationTicks": 48,
          "midi": 42,
          "name": "F#2",
          "ticks": 155640,
          "time": 162.125,
          "velocity": 0.5039370078740157
        },
        {
          "duration": 0.046875,
          "durationTicks": 45,
          "midi": 44,
          "name": "G#2",
          "ticks": 155760,
          "time": 162.25,
          "velocity": 0.5039370078740157
        },
        {
          "duration": 0.039583333333325754,
          "durationTicks": 38,
          "midi": 42,
          "name": "F#2",
          "ticks": 155880,
          "time": 162.375,
          "velocity": 0.5039370078740157
        },
        {
          "duration": 0.03437500000001137,
          "durationTicks": 33,
          "midi": 42,
          "name": "F#2",
          "ticks": 156000,
          "time": 162.5,
          "velocity": 0.5039370078740157
        },
        {
          "duration": 0.4375,
          "durationTicks": 420,
          "midi": 38,
          "name": "D2",
          "ticks": 156000,
          "time": 162.5,
          "velocity": 0.5039370078740157
        },
        {
          "duration": 0.02916666666666856,
          "durationTicks": 28,
          "midi": 42,
          "name": "F#2",
          "ticks": 156120,
          "time": 162.625,
          "velocity": 0.5039370078740157
        },
        {
          "duration": 0.04166666666665719,
          "durationTicks": 40,
          "midi": 42,
          "name": "F#2",
          "ticks": 156240,
          "time": 162.75,
          "velocity": 0.5039370078740157
        },
        {
          "duration": 0.05000000000001137,
          "durationTicks": 48,
          "midi": 44,
          "name": "G#2",
          "ticks": 156360,
          "time": 162.875,
          "velocity": 0.5039370078740157
        },
        {
          "duration": 0.07291666666665719,
          "durationTicks": 70,
          "midi": 36,
          "name": "C2",
          "ticks": 156360,
          "time": 162.875,
          "velocity": 0.5039370078740157
        },
        {
          "duration": 0.04479166666666856,
          "durationTicks": 43,
          "midi": 42,
          "name": "F#2",
          "ticks": 156480,
          "time": 163,
          "velocity": 0.5039370078740157
        },
        {
          "duration": 0.039583333333325754,
          "durationTicks": 38,
          "midi": 42,
          "name": "F#2",
          "ticks": 156600,
          "time": 163.125,
          "velocity": 0.5039370078740157
        },
        {
          "duration": 0.055208333333325754,
          "durationTicks": 53,
          "midi": 36,
          "name": "C2",
          "ticks": 156600,
          "time": 163.125,
          "velocity": 0.5039370078740157
        },
        {
          "duration": 0.04166666666665719,
          "durationTicks": 40,
          "midi": 42,
          "name": "F#2",
          "ticks": 156720,
          "time": 163.25,
          "velocity": 0.5039370078740157
        },
        {
          "duration": 0.07291666666665719,
          "durationTicks": 70,
          "midi": 36,
          "name": "C2",
          "ticks": 156720,
          "time": 163.25,
          "velocity": 0.5039370078740157
        },
        {
          "duration": 0.046875,
          "durationTicks": 45,
          "midi": 44,
          "name": "G#2",
          "ticks": 156840,
          "time": 163.375,
          "velocity": 0.5039370078740157
        },
        {
          "duration": 0.04166666666665719,
          "durationTicks": 40,
          "midi": 42,
          "name": "F#2",
          "ticks": 156960,
          "time": 163.5,
          "velocity": 0.5039370078740157
        },
        {
          "duration": 0.07083333333332575,
          "durationTicks": 68,
          "midi": 36,
          "name": "C2",
          "ticks": 156960,
          "time": 163.5,
          "velocity": 0.5039370078740157
        },
        {
          "duration": 0.4375,
          "durationTicks": 420,
          "midi": 38,
          "name": "D2",
          "ticks": 156960,
          "time": 163.5,
          "velocity": 0.5039370078740157
        },
        {
          "duration": 0.03125,
          "durationTicks": 30,
          "midi": 42,
          "name": "F#2",
          "ticks": 157080,
          "time": 163.625,
          "velocity": 0.5039370078740157
        },
        {
          "duration": 0.0625,
          "durationTicks": 60,
          "midi": 36,
          "name": "C2",
          "ticks": 157200,
          "time": 163.75,
          "velocity": 0.5039370078740157
        },
        {
          "duration": 0.07083333333332575,
          "durationTicks": 68,
          "midi": 44,
          "name": "G#2",
          "ticks": 157200,
          "time": 163.75,
          "velocity": 0.5039370078740157
        },
        {
          "duration": 0.04479166666666856,
          "durationTicks": 43,
          "midi": 42,
          "name": "F#2",
          "ticks": 157320,
          "time": 163.875,
          "velocity": 0.5039370078740157
        },
        {
          "duration": 0.06041666666666856,
          "durationTicks": 58,
          "midi": 36,
          "name": "C2",
          "ticks": 157440,
          "time": 164,
          "velocity": 0.5039370078740157
        },
        {
          "duration": 0.05000000000001137,
          "durationTicks": 48,
          "midi": 42,
          "name": "F#2",
          "ticks": 157560,
          "time": 164.125,
          "velocity": 0.5039370078740157
        },
        {
          "duration": 0.046875,
          "durationTicks": 45,
          "midi": 44,
          "name": "G#2",
          "ticks": 157680,
          "time": 164.25,
          "velocity": 0.5039370078740157
        },
        {
          "duration": 0.039583333333325754,
          "durationTicks": 38,
          "midi": 42,
          "name": "F#2",
          "ticks": 157800,
          "time": 164.375,
          "velocity": 0.5039370078740157
        },
        {
          "duration": 0.03437500000001137,
          "durationTicks": 33,
          "midi": 42,
          "name": "F#2",
          "ticks": 157920,
          "time": 164.5,
          "velocity": 0.5039370078740157
        },
        {
          "duration": 0.4375,
          "durationTicks": 420,
          "midi": 38,
          "name": "D2",
          "ticks": 157920,
          "time": 164.5,
          "velocity": 0.5039370078740157
        },
        {
          "duration": 0.02916666666666856,
          "durationTicks": 28,
          "midi": 42,
          "name": "F#2",
          "ticks": 158040,
          "time": 164.625,
          "velocity": 0.5039370078740157
        },
        {
          "duration": 0.04166666666665719,
          "durationTicks": 40,
          "midi": 42,
          "name": "F#2",
          "ticks": 158160,
          "time": 164.75,
          "velocity": 0.5039370078740157
        },
        {
          "duration": 0.05000000000001137,
          "durationTicks": 48,
          "midi": 44,
          "name": "G#2",
          "ticks": 158280,
          "time": 164.875,
          "velocity": 0.5039370078740157
        },
        {
          "duration": 0.04479166666666856,
          "durationTicks": 43,
          "midi": 42,
          "name": "F#2",
          "ticks": 158400,
          "time": 165,
          "velocity": 0.5039370078740157
        },
        {
          "duration": 0.039583333333325754,
          "durationTicks": 38,
          "midi": 42,
          "name": "F#2",
          "ticks": 158520,
          "time": 165.125,
          "velocity": 0.5039370078740157
        },
        {
          "duration": 0.055208333333325754,
          "durationTicks": 53,
          "midi": 36,
          "name": "C2",
          "ticks": 158520,
          "time": 165.125,
          "velocity": 0.5039370078740157
        },
        {
          "duration": 0.0625,
          "durationTicks": 60,
          "midi": 39,
          "name": "D#2",
          "ticks": 158520,
          "time": 165.125,
          "velocity": 0.5039370078740157
        },
        {
          "duration": 0.04166666666665719,
          "durationTicks": 40,
          "midi": 42,
          "name": "F#2",
          "ticks": 158640,
          "time": 165.25,
          "velocity": 0.5039370078740157
        },
        {
          "duration": 0.06041666666666856,
          "durationTicks": 58,
          "midi": 36,
          "name": "C2",
          "ticks": 158640,
          "time": 165.25,
          "velocity": 0.5039370078740157
        },
        {
          "duration": 0.046875,
          "durationTicks": 45,
          "midi": 44,
          "name": "G#2",
          "ticks": 158760,
          "time": 165.375,
          "velocity": 0.5039370078740157
        },
        {
          "duration": 0.06041666666666856,
          "durationTicks": 58,
          "midi": 39,
          "name": "D#2",
          "ticks": 158760,
          "time": 165.375,
          "velocity": 0.5039370078740157
        },
        {
          "duration": 0.04166666666665719,
          "durationTicks": 40,
          "midi": 42,
          "name": "F#2",
          "ticks": 158880,
          "time": 165.5,
          "velocity": 0.5039370078740157
        },
        {
          "duration": 0.055208333333325754,
          "durationTicks": 53,
          "midi": 36,
          "name": "C2",
          "ticks": 158880,
          "time": 165.5,
          "velocity": 0.5039370078740157
        },
        {
          "duration": 0.4375,
          "durationTicks": 420,
          "midi": 38,
          "name": "D2",
          "ticks": 158880,
          "time": 165.5,
          "velocity": 0.5039370078740157
        },
        {
          "duration": 0.03125,
          "durationTicks": 30,
          "midi": 42,
          "name": "F#2",
          "ticks": 159000,
          "time": 165.625,
          "velocity": 0.5039370078740157
        },
        {
          "duration": 0.046875,
          "durationTicks": 45,
          "midi": 39,
          "name": "D#2",
          "ticks": 159000,
          "time": 165.625,
          "velocity": 0.5039370078740157
        },
        {
          "duration": 0.07083333333332575,
          "durationTicks": 68,
          "midi": 44,
          "name": "G#2",
          "ticks": 159120,
          "time": 165.75,
          "velocity": 0.5039370078740157
        },
        {
          "duration": 0.055208333333325754,
          "durationTicks": 53,
          "midi": 36,
          "name": "C2",
          "ticks": 159120,
          "time": 165.75,
          "velocity": 0.5039370078740157
        },
        {
          "duration": 0.046875,
          "durationTicks": 45,
          "midi": 39,
          "name": "D#2",
          "ticks": 159120,
          "time": 165.75,
          "velocity": 0.5039370078740157
        },
        {
          "duration": 0.04479166666666856,
          "durationTicks": 43,
          "midi": 42,
          "name": "F#2",
          "ticks": 159240,
          "time": 165.875,
          "velocity": 0.5039370078740157
        },
        {
          "duration": 0.04479166666666856,
          "durationTicks": 43,
          "midi": 39,
          "name": "D#2",
          "ticks": 159240,
          "time": 165.875,
          "velocity": 0.5039370078740157
        },
        {
          "duration": 0.11770833333332575,
          "durationTicks": 113,
          "midi": 36,
          "name": "C2",
          "ticks": 159360,
          "time": 166,
          "velocity": 0.5039370078740157
        },
        {
          "duration": 0.04166666666665719,
          "durationTicks": 40,
          "midi": 39,
          "name": "D#2",
          "ticks": 159360,
          "time": 166,
          "velocity": 0.5039370078740157
        },
        {
          "duration": 0.05000000000001137,
          "durationTicks": 48,
          "midi": 42,
          "name": "F#2",
          "ticks": 159480,
          "time": 166.125,
          "velocity": 0.5039370078740157
        },
        {
          "duration": 0.03645833333334281,
          "durationTicks": 35,
          "midi": 39,
          "name": "D#2",
          "ticks": 159480,
          "time": 166.125,
          "velocity": 0.5039370078740157
        },
        {
          "duration": 0.046875,
          "durationTicks": 45,
          "midi": 44,
          "name": "G#2",
          "ticks": 159600,
          "time": 166.25,
          "velocity": 0.5039370078740157
        },
        {
          "duration": 0.08333333333334281,
          "durationTicks": 80,
          "midi": 39,
          "name": "D#2",
          "ticks": 159600,
          "time": 166.25,
          "velocity": 0.5039370078740157
        },
        {
          "duration": 0.039583333333325754,
          "durationTicks": 38,
          "midi": 42,
          "name": "F#2",
          "ticks": 159720,
          "time": 166.375,
          "velocity": 0.5039370078740157
        },
        {
          "duration": 0.03437500000001137,
          "durationTicks": 33,
          "midi": 42,
          "name": "F#2",
          "ticks": 159840,
          "time": 166.5,
          "velocity": 0.5039370078740157
        },
        {
          "duration": 0.4375,
          "durationTicks": 420,
          "midi": 38,
          "name": "D2",
          "ticks": 159840,
          "time": 166.5,
          "velocity": 0.5039370078740157
        },
        {
          "duration": 0.02916666666666856,
          "durationTicks": 28,
          "midi": 42,
          "name": "F#2",
          "ticks": 159960,
          "time": 166.625,
          "velocity": 0.5039370078740157
        },
        {
          "duration": 0.04166666666665719,
          "durationTicks": 40,
          "midi": 42,
          "name": "F#2",
          "ticks": 160080,
          "time": 166.75,
          "velocity": 0.5039370078740157
        },
        {
          "duration": 0.05000000000001137,
          "durationTicks": 48,
          "midi": 44,
          "name": "G#2",
          "ticks": 160200,
          "time": 166.875,
          "velocity": 0.5039370078740157
        },
        {
          "duration": 0.04479166666666856,
          "durationTicks": 43,
          "midi": 42,
          "name": "F#2",
          "ticks": 160320,
          "time": 167,
          "velocity": 0.5039370078740157
        },
        {
          "duration": 0.039583333333325754,
          "durationTicks": 38,
          "midi": 42,
          "name": "F#2",
          "ticks": 160440,
          "time": 167.125,
          "velocity": 0.5039370078740157
        },
        {
          "duration": 0.0625,
          "durationTicks": 60,
          "midi": 36,
          "name": "C2",
          "ticks": 160440,
          "time": 167.125,
          "velocity": 0.5039370078740157
        },
        {
          "duration": 0.04166666666665719,
          "durationTicks": 40,
          "midi": 42,
          "name": "F#2",
          "ticks": 160560,
          "time": 167.25,
          "velocity": 0.5039370078740157
        },
        {
          "duration": 0.06770833333334281,
          "durationTicks": 65,
          "midi": 36,
          "name": "C2",
          "ticks": 160560,
          "time": 167.25,
          "velocity": 0.5039370078740157
        },
        {
          "duration": 0.046875,
          "durationTicks": 45,
          "midi": 44,
          "name": "G#2",
          "ticks": 160680,
          "time": 167.375,
          "velocity": 0.5039370078740157
        },
        {
          "duration": 0.04166666666665719,
          "durationTicks": 40,
          "midi": 42,
          "name": "F#2",
          "ticks": 160800,
          "time": 167.5,
          "velocity": 0.5039370078740157
        },
        {
          "duration": 0.4375,
          "durationTicks": 420,
          "midi": 38,
          "name": "D2",
          "ticks": 160800,
          "time": 167.5,
          "velocity": 0.5039370078740157
        },
        {
          "duration": 0.0625,
          "durationTicks": 60,
          "midi": 36,
          "name": "C2",
          "ticks": 160800,
          "time": 167.5,
          "velocity": 0.5039370078740157
        },
        {
          "duration": 0.03125,
          "durationTicks": 30,
          "midi": 42,
          "name": "F#2",
          "ticks": 160920,
          "time": 167.625,
          "velocity": 0.5039370078740157
        },
        {
          "duration": 0.07083333333332575,
          "durationTicks": 68,
          "midi": 44,
          "name": "G#2",
          "ticks": 161040,
          "time": 167.75,
          "velocity": 0.5039370078740157
        },
        {
          "duration": 0.0625,
          "durationTicks": 60,
          "midi": 36,
          "name": "C2",
          "ticks": 161040,
          "time": 167.75,
          "velocity": 0.5039370078740157
        },
        {
          "duration": 0.04479166666666856,
          "durationTicks": 43,
          "midi": 42,
          "name": "F#2",
          "ticks": 161160,
          "time": 167.875,
          "velocity": 0.5039370078740157
        },
        {
          "duration": 0.05000000000001137,
          "durationTicks": 48,
          "midi": 42,
          "name": "F#2",
          "ticks": 161400,
          "time": 168.125,
          "velocity": 0.5039370078740157
        },
        {
          "duration": 0.046875,
          "durationTicks": 45,
          "midi": 44,
          "name": "G#2",
          "ticks": 161520,
          "time": 168.25,
          "velocity": 0.5039370078740157
        },
        {
          "duration": 0.039583333333325754,
          "durationTicks": 38,
          "midi": 42,
          "name": "F#2",
          "ticks": 161640,
          "time": 168.375,
          "velocity": 0.5039370078740157
        },
        {
          "duration": 0.03437500000001137,
          "durationTicks": 33,
          "midi": 42,
          "name": "F#2",
          "ticks": 161760,
          "time": 168.5,
          "velocity": 0.5039370078740157
        },
        {
          "duration": 0.4375,
          "durationTicks": 420,
          "midi": 38,
          "name": "D2",
          "ticks": 161760,
          "time": 168.5,
          "velocity": 0.5039370078740157
        },
        {
          "duration": 0.02916666666666856,
          "durationTicks": 28,
          "midi": 42,
          "name": "F#2",
          "ticks": 161880,
          "time": 168.625,
          "velocity": 0.5039370078740157
        },
        {
          "duration": 0.04166666666665719,
          "durationTicks": 40,
          "midi": 42,
          "name": "F#2",
          "ticks": 162000,
          "time": 168.75,
          "velocity": 0.5039370078740157
        },
        {
          "duration": 0.05000000000001137,
          "durationTicks": 48,
          "midi": 44,
          "name": "G#2",
          "ticks": 162120,
          "time": 168.875,
          "velocity": 0.5039370078740157
        },
        {
          "duration": 0.04479166666666856,
          "durationTicks": 43,
          "midi": 42,
          "name": "F#2",
          "ticks": 162240,
          "time": 169,
          "velocity": 0.5039370078740157
        },
        {
          "duration": 0.039583333333325754,
          "durationTicks": 38,
          "midi": 42,
          "name": "F#2",
          "ticks": 162360,
          "time": 169.125,
          "velocity": 0.5039370078740157
        },
        {
          "duration": 0.0625,
          "durationTicks": 60,
          "midi": 36,
          "name": "C2",
          "ticks": 162360,
          "time": 169.125,
          "velocity": 0.5039370078740157
        },
        {
          "duration": 0.04166666666665719,
          "durationTicks": 40,
          "midi": 42,
          "name": "F#2",
          "ticks": 162480,
          "time": 169.25,
          "velocity": 0.5039370078740157
        },
        {
          "duration": 0.06562500000001137,
          "durationTicks": 63,
          "midi": 36,
          "name": "C2",
          "ticks": 162480,
          "time": 169.25,
          "velocity": 0.5039370078740157
        },
        {
          "duration": 0.046875,
          "durationTicks": 45,
          "midi": 44,
          "name": "G#2",
          "ticks": 162600,
          "time": 169.375,
          "velocity": 0.5039370078740157
        },
        {
          "duration": 0.04166666666665719,
          "durationTicks": 40,
          "midi": 42,
          "name": "F#2",
          "ticks": 162720,
          "time": 169.5,
          "velocity": 0.5039370078740157
        },
        {
          "duration": 0.4375,
          "durationTicks": 420,
          "midi": 38,
          "name": "D2",
          "ticks": 162720,
          "time": 169.5,
          "velocity": 0.5039370078740157
        },
        {
          "duration": 0.03125,
          "durationTicks": 30,
          "midi": 42,
          "name": "F#2",
          "ticks": 162840,
          "time": 169.625,
          "velocity": 0.5039370078740157
        },
        {
          "duration": 0.07083333333332575,
          "durationTicks": 68,
          "midi": 44,
          "name": "G#2",
          "ticks": 162960,
          "time": 169.75,
          "velocity": 0.5039370078740157
        },
        {
          "duration": 0.04479166666666856,
          "durationTicks": 43,
          "midi": 42,
          "name": "F#2",
          "ticks": 163080,
          "time": 169.875,
          "velocity": 0.5039370078740157
        },
        {
          "duration": 0.07604166666666856,
          "durationTicks": 73,
          "midi": 36,
          "name": "C2",
          "ticks": 163200,
          "time": 170,
          "velocity": 0.5039370078740157
        },
        {
          "duration": 0.05000000000001137,
          "durationTicks": 48,
          "midi": 42,
          "name": "F#2",
          "ticks": 163320,
          "time": 170.125,
          "velocity": 0.5039370078740157
        },
        {
          "duration": 0.046875,
          "durationTicks": 45,
          "midi": 44,
          "name": "G#2",
          "ticks": 163440,
          "time": 170.25,
          "velocity": 0.5039370078740157
        },
        {
          "duration": 0.039583333333325754,
          "durationTicks": 38,
          "midi": 42,
          "name": "F#2",
          "ticks": 163560,
          "time": 170.375,
          "velocity": 0.5039370078740157
        },
        {
          "duration": 0.03437500000001137,
          "durationTicks": 33,
          "midi": 42,
          "name": "F#2",
          "ticks": 163680,
          "time": 170.5,
          "velocity": 0.5039370078740157
        },
        {
          "duration": 0.4375,
          "durationTicks": 420,
          "midi": 38,
          "name": "D2",
          "ticks": 163680,
          "time": 170.5,
          "velocity": 0.5039370078740157
        },
        {
          "duration": 0.02916666666666856,
          "durationTicks": 28,
          "midi": 42,
          "name": "F#2",
          "ticks": 163800,
          "time": 170.625,
          "velocity": 0.5039370078740157
        },
        {
          "duration": 0.04166666666665719,
          "durationTicks": 40,
          "midi": 42,
          "name": "F#2",
          "ticks": 163920,
          "time": 170.75,
          "velocity": 0.5039370078740157
        },
        {
          "duration": 0.05000000000001137,
          "durationTicks": 48,
          "midi": 44,
          "name": "G#2",
          "ticks": 164040,
          "time": 170.875,
          "velocity": 0.5039370078740157
        },
        {
          "duration": 0.07291666666665719,
          "durationTicks": 70,
          "midi": 36,
          "name": "C2",
          "ticks": 164040,
          "time": 170.875,
          "velocity": 0.5039370078740157
        },
        {
          "duration": 0.04479166666666856,
          "durationTicks": 43,
          "midi": 42,
          "name": "F#2",
          "ticks": 164160,
          "time": 171,
          "velocity": 0.5039370078740157
        },
        {
          "duration": 0.039583333333325754,
          "durationTicks": 38,
          "midi": 42,
          "name": "F#2",
          "ticks": 164280,
          "time": 171.125,
          "velocity": 0.5039370078740157
        },
        {
          "duration": 0.055208333333325754,
          "durationTicks": 53,
          "midi": 36,
          "name": "C2",
          "ticks": 164280,
          "time": 171.125,
          "velocity": 0.5039370078740157
        },
        {
          "duration": 0.04166666666665719,
          "durationTicks": 40,
          "midi": 42,
          "name": "F#2",
          "ticks": 164400,
          "time": 171.25,
          "velocity": 0.5039370078740157
        },
        {
          "duration": 0.07291666666665719,
          "durationTicks": 70,
          "midi": 36,
          "name": "C2",
          "ticks": 164400,
          "time": 171.25,
          "velocity": 0.5039370078740157
        },
        {
          "duration": 0.046875,
          "durationTicks": 45,
          "midi": 44,
          "name": "G#2",
          "ticks": 164520,
          "time": 171.375,
          "velocity": 0.5039370078740157
        },
        {
          "duration": 0.04166666666665719,
          "durationTicks": 40,
          "midi": 42,
          "name": "F#2",
          "ticks": 164640,
          "time": 171.5,
          "velocity": 0.5039370078740157
        },
        {
          "duration": 0.07083333333332575,
          "durationTicks": 68,
          "midi": 36,
          "name": "C2",
          "ticks": 164640,
          "time": 171.5,
          "velocity": 0.5039370078740157
        },
        {
          "duration": 0.4375,
          "durationTicks": 420,
          "midi": 38,
          "name": "D2",
          "ticks": 164640,
          "time": 171.5,
          "velocity": 0.5039370078740157
        },
        {
          "duration": 0.03125,
          "durationTicks": 30,
          "midi": 42,
          "name": "F#2",
          "ticks": 164760,
          "time": 171.625,
          "velocity": 0.5039370078740157
        },
        {
          "duration": 0.0625,
          "durationTicks": 60,
          "midi": 36,
          "name": "C2",
          "ticks": 164880,
          "time": 171.75,
          "velocity": 0.5039370078740157
        },
        {
          "duration": 0.07083333333332575,
          "durationTicks": 68,
          "midi": 44,
          "name": "G#2",
          "ticks": 164880,
          "time": 171.75,
          "velocity": 0.5039370078740157
        },
        {
          "duration": 0.04479166666666856,
          "durationTicks": 43,
          "midi": 42,
          "name": "F#2",
          "ticks": 165000,
          "time": 171.875,
          "velocity": 0.5039370078740157
        },
        {
          "duration": 0.06041666666666856,
          "durationTicks": 58,
          "midi": 36,
          "name": "C2",
          "ticks": 165120,
          "time": 172,
          "velocity": 0.5039370078740157
        },
        {
          "duration": 0.05000000000001137,
          "durationTicks": 48,
          "midi": 42,
          "name": "F#2",
          "ticks": 165240,
          "time": 172.125,
          "velocity": 0.5039370078740157
        },
        {
          "duration": 0.046875,
          "durationTicks": 45,
          "midi": 44,
          "name": "G#2",
          "ticks": 165360,
          "time": 172.25,
          "velocity": 0.5039370078740157
        },
        {
          "duration": 0.039583333333325754,
          "durationTicks": 38,
          "midi": 42,
          "name": "F#2",
          "ticks": 165480,
          "time": 172.375,
          "velocity": 0.5039370078740157
        },
        {
          "duration": 0.03437500000001137,
          "durationTicks": 33,
          "midi": 42,
          "name": "F#2",
          "ticks": 165600,
          "time": 172.5,
          "velocity": 0.5039370078740157
        },
        {
          "duration": 0.4375,
          "durationTicks": 420,
          "midi": 38,
          "name": "D2",
          "ticks": 165600,
          "time": 172.5,
          "velocity": 0.5039370078740157
        },
        {
          "duration": 0.02916666666666856,
          "durationTicks": 28,
          "midi": 42,
          "name": "F#2",
          "ticks": 165720,
          "time": 172.625,
          "velocity": 0.5039370078740157
        },
        {
          "duration": 0.04166666666665719,
          "durationTicks": 40,
          "midi": 42,
          "name": "F#2",
          "ticks": 165840,
          "time": 172.75,
          "velocity": 0.5039370078740157
        },
        {
          "duration": 0.05000000000001137,
          "durationTicks": 48,
          "midi": 44,
          "name": "G#2",
          "ticks": 165960,
          "time": 172.875,
          "velocity": 0.5039370078740157
        },
        {
          "duration": 0.04479166666666856,
          "durationTicks": 43,
          "midi": 42,
          "name": "F#2",
          "ticks": 166080,
          "time": 173,
          "velocity": 0.5039370078740157
        },
        {
          "duration": 0.039583333333325754,
          "durationTicks": 38,
          "midi": 42,
          "name": "F#2",
          "ticks": 166200,
          "time": 173.125,
          "velocity": 0.5039370078740157
        },
        {
          "duration": 0.055208333333325754,
          "durationTicks": 53,
          "midi": 36,
          "name": "C2",
          "ticks": 166200,
          "time": 173.125,
          "velocity": 0.5039370078740157
        },
        {
          "duration": 0.0625,
          "durationTicks": 60,
          "midi": 39,
          "name": "D#2",
          "ticks": 166200,
          "time": 173.125,
          "velocity": 0.5039370078740157
        },
        {
          "duration": 0.04166666666665719,
          "durationTicks": 40,
          "midi": 42,
          "name": "F#2",
          "ticks": 166320,
          "time": 173.25,
          "velocity": 0.5039370078740157
        },
        {
          "duration": 0.06041666666666856,
          "durationTicks": 58,
          "midi": 36,
          "name": "C2",
          "ticks": 166320,
          "time": 173.25,
          "velocity": 0.5039370078740157
        },
        {
          "duration": 0.046875,
          "durationTicks": 45,
          "midi": 44,
          "name": "G#2",
          "ticks": 166440,
          "time": 173.375,
          "velocity": 0.5039370078740157
        },
        {
          "duration": 0.06041666666666856,
          "durationTicks": 58,
          "midi": 39,
          "name": "D#2",
          "ticks": 166440,
          "time": 173.375,
          "velocity": 0.5039370078740157
        },
        {
          "duration": 0.04166666666665719,
          "durationTicks": 40,
          "midi": 42,
          "name": "F#2",
          "ticks": 166560,
          "time": 173.5,
          "velocity": 0.5039370078740157
        },
        {
          "duration": 0.055208333333325754,
          "durationTicks": 53,
          "midi": 36,
          "name": "C2",
          "ticks": 166560,
          "time": 173.5,
          "velocity": 0.5039370078740157
        },
        {
          "duration": 0.4375,
          "durationTicks": 420,
          "midi": 38,
          "name": "D2",
          "ticks": 166560,
          "time": 173.5,
          "velocity": 0.5039370078740157
        },
        {
          "duration": 0.03125,
          "durationTicks": 30,
          "midi": 42,
          "name": "F#2",
          "ticks": 166680,
          "time": 173.625,
          "velocity": 0.5039370078740157
        },
        {
          "duration": 0.046875,
          "durationTicks": 45,
          "midi": 39,
          "name": "D#2",
          "ticks": 166680,
          "time": 173.625,
          "velocity": 0.5039370078740157
        },
        {
          "duration": 0.07083333333332575,
          "durationTicks": 68,
          "midi": 44,
          "name": "G#2",
          "ticks": 166800,
          "time": 173.75,
          "velocity": 0.5039370078740157
        },
        {
          "duration": 0.055208333333325754,
          "durationTicks": 53,
          "midi": 36,
          "name": "C2",
          "ticks": 166800,
          "time": 173.75,
          "velocity": 0.5039370078740157
        },
        {
          "duration": 0.046875,
          "durationTicks": 45,
          "midi": 39,
          "name": "D#2",
          "ticks": 166800,
          "time": 173.75,
          "velocity": 0.5039370078740157
        },
        {
          "duration": 0.04479166666666856,
          "durationTicks": 43,
          "midi": 42,
          "name": "F#2",
          "ticks": 166920,
          "time": 173.875,
          "velocity": 0.5039370078740157
        },
        {
          "duration": 0.04479166666666856,
          "durationTicks": 43,
          "midi": 39,
          "name": "D#2",
          "ticks": 166920,
          "time": 173.875,
          "velocity": 0.5039370078740157
        },
        {
          "duration": 0.04166666666665719,
          "durationTicks": 40,
          "midi": 39,
          "name": "D#2",
          "ticks": 167040,
          "time": 174,
          "velocity": 0.5039370078740157
        },
        {
          "duration": 0.03645833333334281,
          "durationTicks": 35,
          "midi": 39,
          "name": "D#2",
          "ticks": 167160,
          "time": 174.125,
          "velocity": 0.5039370078740157
        },
        {
          "duration": 0.08333333333334281,
          "durationTicks": 80,
          "midi": 39,
          "name": "D#2",
          "ticks": 167280,
          "time": 174.25,
          "velocity": 0.5039370078740157
        }
      ]
    },
    {
      "channel": 15,
      "controlChanges": {},
      "pitchBends": [],
      "instrument": {
        "family": "piano",
        "number": 0,
        "name": "acoustic grand piano"
      },
      "name": "",
      "notes": [
        {
          "duration": 0.16979166666666856,
          "durationTicks": 163,
          "midi": 89,
          "name": "F6",
          "ticks": 61200,
          "time": 63.75,
          "velocity": 0.5039370078740157
        },
        {
          "duration": 0.12291666666666856,
          "durationTicks": 118,
          "midi": 84,
          "name": "C6",
          "ticks": 61320,
          "time": 63.875,
          "velocity": 0.5039370078740157
        },
        {
          "duration": 0.14895833333333997,
          "durationTicks": 143,
          "midi": 82,
          "name": "A#5",
          "ticks": 61320,
          "time": 63.875,
          "velocity": 0.5039370078740157
        },
        {
          "duration": 0.7687499999999972,
          "durationTicks": 738,
          "midi": 70,
          "name": "A#4",
          "ticks": 61440,
          "time": 64,
          "velocity": 0.5039370078740157
        },
        {
          "duration": 0.765625,
          "durationTicks": 735,
          "midi": 77,
          "name": "F5",
          "ticks": 61440,
          "time": 64,
          "velocity": 0.5039370078740157
        },
        {
          "duration": 0.7604166666666714,
          "durationTicks": 730,
          "midi": 72,
          "name": "C5",
          "ticks": 61440,
          "time": 64,
          "velocity": 0.5039370078740157
        }
      ]
    },
    {
      "channel": 7,
      "controlChanges": {},
      "pitchBends": [],
      "instrument": {
        "family": "piano",
        "number": 0,
        "name": "acoustic grand piano"
      },
      "name": "",
      "notes": [
        {
          "duration": 0.1510416666666714,
          "durationTicks": 145,
          "midi": 75,
          "name": "D#5",
          "ticks": 105600,
          "time": 110,
          "velocity": 0.5905511811023622
        },
        {
          "duration": 0.10729166666666856,
          "durationTicks": 103,
          "midi": 72,
          "name": "C5",
          "ticks": 105720,
          "time": 110.125,
          "velocity": 0.5905511811023622
        },
        {
          "duration": 0.1354166666666714,
          "durationTicks": 130,
          "midi": 70,
          "name": "A#4",
          "ticks": 105840,
          "time": 110.25,
          "velocity": 0.5905511811023622
        },
        {
          "duration": 0.09166666666666856,
          "durationTicks": 88,
          "midi": 68,
          "name": "G#4",
          "ticks": 105960,
          "time": 110.375,
          "velocity": 0.5905511811023622
        },
        {
          "duration": 0.0885416666666714,
          "durationTicks": 85,
          "midi": 70,
          "name": "A#4",
          "ticks": 106200,
          "time": 110.625,
          "velocity": 0.5905511811023622
        },
        {
          "duration": 0.10729166666666856,
          "durationTicks": 103,
          "midi": 72,
          "name": "C5",
          "ticks": 106440,
          "time": 110.875,
          "velocity": 0.5905511811023622
        },
        {
          "duration": 0.09687499999999716,
          "durationTicks": 93,
          "midi": 75,
          "name": "D#5",
          "ticks": 106560,
          "time": 111,
          "velocity": 0.5905511811023622
        },
        {
          "duration": 0.07604166666666856,
          "durationTicks": 73,
          "midi": 72,
          "name": "C5",
          "ticks": 106800,
          "time": 111.25,
          "velocity": 0.5905511811023622
        },
        {
          "duration": 0.08645833333333997,
          "durationTicks": 83,
          "midi": 70,
          "name": "A#4",
          "ticks": 107040,
          "time": 111.5,
          "velocity": 0.5905511811023622
        },
        {
          "duration": 0.0989583333333286,
          "durationTicks": 95,
          "midi": 68,
          "name": "G#4",
          "ticks": 107280,
          "time": 111.75,
          "velocity": 0.5905511811023622
        },
        {
          "duration": 0.1510416666666714,
          "durationTicks": 145,
          "midi": 75,
          "name": "D#5",
          "ticks": 107520,
          "time": 112,
          "velocity": 0.5905511811023622
        },
        {
          "duration": 0.10729166666666856,
          "durationTicks": 103,
          "midi": 72,
          "name": "C5",
          "ticks": 107640,
          "time": 112.125,
          "velocity": 0.5905511811023622
        },
        {
          "duration": 0.1354166666666714,
          "durationTicks": 130,
          "midi": 70,
          "name": "A#4",
          "ticks": 107760,
          "time": 112.25,
          "velocity": 0.5905511811023622
        },
        {
          "duration": 0.09166666666666856,
          "durationTicks": 88,
          "midi": 68,
          "name": "G#4",
          "ticks": 107880,
          "time": 112.375,
          "velocity": 0.5905511811023622
        },
        {
          "duration": 0.0885416666666714,
          "durationTicks": 85,
          "midi": 70,
          "name": "A#4",
          "ticks": 108120,
          "time": 112.625,
          "velocity": 0.5905511811023622
        },
        {
          "duration": 0.10729166666666856,
          "durationTicks": 103,
          "midi": 72,
          "name": "C5",
          "ticks": 108360,
          "time": 112.875,
          "velocity": 0.5905511811023622
        },
        {
          "duration": 0.09687499999999716,
          "durationTicks": 93,
          "midi": 75,
          "name": "D#5",
          "ticks": 108480,
          "time": 113,
          "velocity": 0.5905511811023622
        },
        {
          "duration": 0.07604166666666856,
          "durationTicks": 73,
          "midi": 72,
          "name": "C5",
          "ticks": 108720,
          "time": 113.25,
          "velocity": 0.5905511811023622
        },
        {
          "duration": 0.08645833333333997,
          "durationTicks": 83,
          "midi": 70,
          "name": "A#4",
          "ticks": 108960,
          "time": 113.5,
          "velocity": 0.5905511811023622
        },
        {
          "duration": 0.0989583333333286,
          "durationTicks": 95,
          "midi": 68,
          "name": "G#4",
          "ticks": 109200,
          "time": 113.75,
          "velocity": 0.5905511811023622
        },
        {
          "duration": 0.1510416666666714,
          "durationTicks": 145,
          "midi": 75,
          "name": "D#5",
          "ticks": 109440,
          "time": 114,
          "velocity": 0.5905511811023622
        },
        {
          "duration": 0.10729166666666856,
          "durationTicks": 103,
          "midi": 72,
          "name": "C5",
          "ticks": 109560,
          "time": 114.125,
          "velocity": 0.5905511811023622
        },
        {
          "duration": 0.1354166666666714,
          "durationTicks": 130,
          "midi": 70,
          "name": "A#4",
          "ticks": 109680,
          "time": 114.25,
          "velocity": 0.5905511811023622
        },
        {
          "duration": 0.09166666666666856,
          "durationTicks": 88,
          "midi": 68,
          "name": "G#4",
          "ticks": 109800,
          "time": 114.375,
          "velocity": 0.5905511811023622
        },
        {
          "duration": 0.0885416666666714,
          "durationTicks": 85,
          "midi": 70,
          "name": "A#4",
          "ticks": 110040,
          "time": 114.625,
          "velocity": 0.5905511811023622
        },
        {
          "duration": 0.10729166666666856,
          "durationTicks": 103,
          "midi": 72,
          "name": "C5",
          "ticks": 110280,
          "time": 114.875,
          "velocity": 0.5905511811023622
        },
        {
          "duration": 0.09687499999999716,
          "durationTicks": 93,
          "midi": 75,
          "name": "D#5",
          "ticks": 110400,
          "time": 115,
          "velocity": 0.5905511811023622
        },
        {
          "duration": 0.07604166666666856,
          "durationTicks": 73,
          "midi": 72,
          "name": "C5",
          "ticks": 110640,
          "time": 115.25,
          "velocity": 0.5905511811023622
        },
        {
          "duration": 0.08645833333333997,
          "durationTicks": 83,
          "midi": 70,
          "name": "A#4",
          "ticks": 110880,
          "time": 115.5,
          "velocity": 0.5905511811023622
        },
        {
          "duration": 0.0989583333333286,
          "durationTicks": 95,
          "midi": 68,
          "name": "G#4",
          "ticks": 111120,
          "time": 115.75,
          "velocity": 0.5905511811023622
        },
        {
          "duration": 0.1510416666666714,
          "durationTicks": 145,
          "midi": 75,
          "name": "D#5",
          "ticks": 111360,
          "time": 116,
          "velocity": 0.5905511811023622
        },
        {
          "duration": 0.10729166666666856,
          "durationTicks": 103,
          "midi": 72,
          "name": "C5",
          "ticks": 111480,
          "time": 116.125,
          "velocity": 0.5905511811023622
        },
        {
          "duration": 0.1354166666666714,
          "durationTicks": 130,
          "midi": 70,
          "name": "A#4",
          "ticks": 111600,
          "time": 116.25,
          "velocity": 0.5905511811023622
        },
        {
          "duration": 0.09166666666666856,
          "durationTicks": 88,
          "midi": 68,
          "name": "G#4",
          "ticks": 111720,
          "time": 116.375,
          "velocity": 0.5905511811023622
        },
        {
          "duration": 0.0885416666666714,
          "durationTicks": 85,
          "midi": 70,
          "name": "A#4",
          "ticks": 111960,
          "time": 116.625,
          "velocity": 0.5905511811023622
        },
        {
          "duration": 0.10729166666666856,
          "durationTicks": 103,
          "midi": 72,
          "name": "C5",
          "ticks": 112200,
          "time": 116.875,
          "velocity": 0.5905511811023622
        },
        {
          "duration": 0.09687499999999716,
          "durationTicks": 93,
          "midi": 75,
          "name": "D#5",
          "ticks": 112320,
          "time": 117,
          "velocity": 0.5905511811023622
        },
        {
          "duration": 0.07604166666666856,
          "durationTicks": 73,
          "midi": 72,
          "name": "C5",
          "ticks": 112560,
          "time": 117.25,
          "velocity": 0.5905511811023622
        },
        {
          "duration": 0.08645833333333997,
          "durationTicks": 83,
          "midi": 70,
          "name": "A#4",
          "ticks": 112800,
          "time": 117.5,
          "velocity": 0.5905511811023622
        },
        {
          "duration": 0.0989583333333286,
          "durationTicks": 95,
          "midi": 68,
          "name": "G#4",
          "ticks": 113040,
          "time": 117.75,
          "velocity": 0.5905511811023622
        },
        {
          "duration": 0.1510416666666714,
          "durationTicks": 145,
          "midi": 75,
          "name": "D#5",
          "ticks": 113280,
          "time": 118,
          "velocity": 0.5905511811023622
        },
        {
          "duration": 0.10729166666666856,
          "durationTicks": 103,
          "midi": 72,
          "name": "C5",
          "ticks": 113400,
          "time": 118.125,
          "velocity": 0.5905511811023622
        },
        {
          "duration": 0.1354166666666714,
          "durationTicks": 130,
          "midi": 70,
          "name": "A#4",
          "ticks": 113520,
          "time": 118.25,
          "velocity": 0.5905511811023622
        },
        {
          "duration": 0.09166666666666856,
          "durationTicks": 88,
          "midi": 68,
          "name": "G#4",
          "ticks": 113640,
          "time": 118.375,
          "velocity": 0.5905511811023622
        },
        {
          "duration": 0.0885416666666714,
          "durationTicks": 85,
          "midi": 70,
          "name": "A#4",
          "ticks": 113880,
          "time": 118.625,
          "velocity": 0.5905511811023622
        },
        {
          "duration": 0.10729166666666856,
          "durationTicks": 103,
          "midi": 72,
          "name": "C5",
          "ticks": 114120,
          "time": 118.875,
          "velocity": 0.5905511811023622
        },
        {
          "duration": 0.09687499999999716,
          "durationTicks": 93,
          "midi": 75,
          "name": "D#5",
          "ticks": 114240,
          "time": 119,
          "velocity": 0.5905511811023622
        },
        {
          "duration": 0.07604166666666856,
          "durationTicks": 73,
          "midi": 72,
          "name": "C5",
          "ticks": 114480,
          "time": 119.25,
          "velocity": 0.5905511811023622
        },
        {
          "duration": 0.08645833333333997,
          "durationTicks": 83,
          "midi": 70,
          "name": "A#4",
          "ticks": 114720,
          "time": 119.5,
          "velocity": 0.5905511811023622
        },
        {
          "duration": 0.0989583333333286,
          "durationTicks": 95,
          "midi": 68,
          "name": "G#4",
          "ticks": 114960,
          "time": 119.75,
          "velocity": 0.5905511811023622
        },
        {
          "duration": 0.1510416666666714,
          "durationTicks": 145,
          "midi": 75,
          "name": "D#5",
          "ticks": 115200,
          "time": 120,
          "velocity": 0.5905511811023622
        },
        {
          "duration": 0.10729166666666856,
          "durationTicks": 103,
          "midi": 72,
          "name": "C5",
          "ticks": 115320,
          "time": 120.125,
          "velocity": 0.5905511811023622
        },
        {
          "duration": 0.1354166666666714,
          "durationTicks": 130,
          "midi": 70,
          "name": "A#4",
          "ticks": 115440,
          "time": 120.25,
          "velocity": 0.5905511811023622
        },
        {
          "duration": 0.09166666666666856,
          "durationTicks": 88,
          "midi": 68,
          "name": "G#4",
          "ticks": 115560,
          "time": 120.375,
          "velocity": 0.5905511811023622
        },
        {
          "duration": 0.0885416666666714,
          "durationTicks": 85,
          "midi": 70,
          "name": "A#4",
          "ticks": 115800,
          "time": 120.625,
          "velocity": 0.5905511811023622
        },
        {
          "duration": 0.10729166666666856,
          "durationTicks": 103,
          "midi": 72,
          "name": "C5",
          "ticks": 116040,
          "time": 120.875,
          "velocity": 0.5905511811023622
        },
        {
          "duration": 0.09687499999999716,
          "durationTicks": 93,
          "midi": 75,
          "name": "D#5",
          "ticks": 116160,
          "time": 121,
          "velocity": 0.5905511811023622
        },
        {
          "duration": 0.07604166666666856,
          "durationTicks": 73,
          "midi": 72,
          "name": "C5",
          "ticks": 116400,
          "time": 121.25,
          "velocity": 0.5905511811023622
        },
        {
          "duration": 0.08645833333333997,
          "durationTicks": 83,
          "midi": 70,
          "name": "A#4",
          "ticks": 116640,
          "time": 121.5,
          "velocity": 0.5905511811023622
        },
        {
          "duration": 0.0989583333333286,
          "durationTicks": 95,
          "midi": 68,
          "name": "G#4",
          "ticks": 116880,
          "time": 121.75,
          "velocity": 0.5905511811023622
        },
        {
          "duration": 0.1510416666666714,
          "durationTicks": 145,
          "midi": 75,
          "name": "D#5",
          "ticks": 117120,
          "time": 122,
          "velocity": 0.5905511811023622
        },
        {
          "duration": 0.10729166666666856,
          "durationTicks": 103,
          "midi": 72,
          "name": "C5",
          "ticks": 117240,
          "time": 122.125,
          "velocity": 0.5905511811023622
        },
        {
          "duration": 0.1354166666666714,
          "durationTicks": 130,
          "midi": 70,
          "name": "A#4",
          "ticks": 117360,
          "time": 122.25,
          "velocity": 0.5905511811023622
        },
        {
          "duration": 0.09166666666666856,
          "durationTicks": 88,
          "midi": 68,
          "name": "G#4",
          "ticks": 117480,
          "time": 122.375,
          "velocity": 0.5905511811023622
        },
        {
          "duration": 0.0885416666666714,
          "durationTicks": 85,
          "midi": 70,
          "name": "A#4",
          "ticks": 117720,
          "time": 122.625,
          "velocity": 0.5905511811023622
        },
        {
          "duration": 0.10729166666666856,
          "durationTicks": 103,
          "midi": 72,
          "name": "C5",
          "ticks": 117960,
          "time": 122.875,
          "velocity": 0.5905511811023622
        },
        {
          "duration": 0.09687499999999716,
          "durationTicks": 93,
          "midi": 75,
          "name": "D#5",
          "ticks": 118080,
          "time": 123,
          "velocity": 0.5905511811023622
        },
        {
          "duration": 0.07604166666666856,
          "durationTicks": 73,
          "midi": 72,
          "name": "C5",
          "ticks": 118320,
          "time": 123.25,
          "velocity": 0.5905511811023622
        },
        {
          "duration": 0.08645833333333997,
          "durationTicks": 83,
          "midi": 70,
          "name": "A#4",
          "ticks": 118560,
          "time": 123.5,
          "velocity": 0.5905511811023622
        },
        {
          "duration": 0.0989583333333286,
          "durationTicks": 95,
          "midi": 68,
          "name": "G#4",
          "ticks": 118800,
          "time": 123.75,
          "velocity": 0.5905511811023622
        },
        {
          "duration": 0.1510416666666714,
          "durationTicks": 145,
          "midi": 75,
          "name": "D#5",
          "ticks": 119040,
          "time": 124,
          "velocity": 0.5905511811023622
        },
        {
          "duration": 0.10729166666666856,
          "durationTicks": 103,
          "midi": 72,
          "name": "C5",
          "ticks": 119160,
          "time": 124.125,
          "velocity": 0.5905511811023622
        },
        {
          "duration": 0.1354166666666714,
          "durationTicks": 130,
          "midi": 70,
          "name": "A#4",
          "ticks": 119280,
          "time": 124.25,
          "velocity": 0.5905511811023622
        },
        {
          "duration": 0.09166666666666856,
          "durationTicks": 88,
          "midi": 68,
          "name": "G#4",
          "ticks": 119400,
          "time": 124.375,
          "velocity": 0.5905511811023622
        },
        {
          "duration": 0.0885416666666714,
          "durationTicks": 85,
          "midi": 70,
          "name": "A#4",
          "ticks": 119640,
          "time": 124.625,
          "velocity": 0.5905511811023622
        },
        {
          "duration": 0.10729166666666856,
          "durationTicks": 103,
          "midi": 72,
          "name": "C5",
          "ticks": 119880,
          "time": 124.875,
          "velocity": 0.5905511811023622
        },
        {
          "duration": 0.09687499999999716,
          "durationTicks": 93,
          "midi": 75,
          "name": "D#5",
          "ticks": 120000,
          "time": 125,
          "velocity": 0.5905511811023622
        },
        {
          "duration": 0.07604166666666856,
          "durationTicks": 73,
          "midi": 72,
          "name": "C5",
          "ticks": 120240,
          "time": 125.25,
          "velocity": 0.5905511811023622
        },
        {
          "duration": 0.08645833333333997,
          "durationTicks": 83,
          "midi": 70,
          "name": "A#4",
          "ticks": 120480,
          "time": 125.5,
          "velocity": 0.5905511811023622
        },
        {
          "duration": 0.0989583333333286,
          "durationTicks": 95,
          "midi": 68,
          "name": "G#4",
          "ticks": 120720,
          "time": 125.75,
          "velocity": 0.5905511811023622
        },
        {
          "duration": 0.1510416666666714,
          "durationTicks": 145,
          "midi": 75,
          "name": "D#5",
          "ticks": 120960,
          "time": 126,
          "velocity": 0.5905511811023622
        },
        {
          "duration": 0.10729166666666856,
          "durationTicks": 103,
          "midi": 72,
          "name": "C5",
          "ticks": 121080,
          "time": 126.125,
          "velocity": 0.5905511811023622
        },
        {
          "duration": 0.1354166666666714,
          "durationTicks": 130,
          "midi": 70,
          "name": "A#4",
          "ticks": 121200,
          "time": 126.25,
          "velocity": 0.5905511811023622
        },
        {
          "duration": 0.09166666666666856,
          "durationTicks": 88,
          "midi": 68,
          "name": "G#4",
          "ticks": 121320,
          "time": 126.375,
          "velocity": 0.5905511811023622
        },
        {
          "duration": 0.0885416666666714,
          "durationTicks": 85,
          "midi": 70,
          "name": "A#4",
          "ticks": 121560,
          "time": 126.625,
          "velocity": 0.5905511811023622
        },
        {
          "duration": 0.10729166666666856,
          "durationTicks": 103,
          "midi": 72,
          "name": "C5",
          "ticks": 121800,
          "time": 126.875,
          "velocity": 0.5905511811023622
        },
        {
          "duration": 0.09687499999999716,
          "durationTicks": 93,
          "midi": 75,
          "name": "D#5",
          "ticks": 121920,
          "time": 127,
          "velocity": 0.5905511811023622
        },
        {
          "duration": 0.07604166666666856,
          "durationTicks": 73,
          "midi": 72,
          "name": "C5",
          "ticks": 122160,
          "time": 127.25,
          "velocity": 0.5905511811023622
        },
        {
          "duration": 0.08645833333333997,
          "durationTicks": 83,
          "midi": 70,
          "name": "A#4",
          "ticks": 122400,
          "time": 127.5,
          "velocity": 0.5905511811023622
        },
        {
          "duration": 0.0989583333333286,
          "durationTicks": 95,
          "midi": 68,
          "name": "G#4",
          "ticks": 122640,
          "time": 127.75,
          "velocity": 0.5905511811023622
        },
        {
          "duration": 0.1510416666666572,
          "durationTicks": 145,
          "midi": 75,
          "name": "D#5",
          "ticks": 122880,
          "time": 128,
          "velocity": 0.5905511811023622
        },
        {
          "duration": 0.10729166666666856,
          "durationTicks": 103,
          "midi": 72,
          "name": "C5",
          "ticks": 123000,
          "time": 128.125,
          "velocity": 0.5905511811023622
        },
        {
          "duration": 0.1354166666666572,
          "durationTicks": 130,
          "midi": 70,
          "name": "A#4",
          "ticks": 123120,
          "time": 128.25,
          "velocity": 0.5905511811023622
        },
        {
          "duration": 0.09166666666666856,
          "durationTicks": 88,
          "midi": 68,
          "name": "G#4",
          "ticks": 123240,
          "time": 128.375,
          "velocity": 0.5905511811023622
        },
        {
          "duration": 0.08854166666665719,
          "durationTicks": 85,
          "midi": 70,
          "name": "A#4",
          "ticks": 123480,
          "time": 128.625,
          "velocity": 0.5905511811023622
        },
        {
          "duration": 0.10729166666666856,
          "durationTicks": 103,
          "midi": 72,
          "name": "C5",
          "ticks": 123720,
          "time": 128.875,
          "velocity": 0.5905511811023622
        },
        {
          "duration": 0.09687500000001137,
          "durationTicks": 93,
          "midi": 75,
          "name": "D#5",
          "ticks": 123840,
          "time": 129,
          "velocity": 0.5905511811023622
        },
        {
          "duration": 0.07604166666666856,
          "durationTicks": 73,
          "midi": 72,
          "name": "C5",
          "ticks": 124080,
          "time": 129.25,
          "velocity": 0.5905511811023622
        },
        {
          "duration": 0.08645833333332575,
          "durationTicks": 83,
          "midi": 70,
          "name": "A#4",
          "ticks": 124320,
          "time": 129.5,
          "velocity": 0.5905511811023622
        },
        {
          "duration": 0.09895833333334281,
          "durationTicks": 95,
          "midi": 68,
          "name": "G#4",
          "ticks": 124560,
          "time": 129.75,
          "velocity": 0.5905511811023622
        },
        {
          "duration": 0.1510416666666572,
          "durationTicks": 145,
          "midi": 75,
          "name": "D#5",
          "ticks": 124800,
          "time": 130,
          "velocity": 0.5905511811023622
        },
        {
          "duration": 0.10729166666666856,
          "durationTicks": 103,
          "midi": 72,
          "name": "C5",
          "ticks": 124920,
          "time": 130.125,
          "velocity": 0.5905511811023622
        },
        {
          "duration": 0.1354166666666572,
          "durationTicks": 130,
          "midi": 70,
          "name": "A#4",
          "ticks": 125040,
          "time": 130.25,
          "velocity": 0.5905511811023622
        },
        {
          "duration": 0.09166666666666856,
          "durationTicks": 88,
          "midi": 68,
          "name": "G#4",
          "ticks": 125160,
          "time": 130.375,
          "velocity": 0.5905511811023622
        },
        {
          "duration": 0.08854166666665719,
          "durationTicks": 85,
          "midi": 70,
          "name": "A#4",
          "ticks": 125400,
          "time": 130.625,
          "velocity": 0.5905511811023622
        },
        {
          "duration": 0.10729166666666856,
          "durationTicks": 103,
          "midi": 72,
          "name": "C5",
          "ticks": 125640,
          "time": 130.875,
          "velocity": 0.5905511811023622
        },
        {
          "duration": 0.09687500000001137,
          "durationTicks": 93,
          "midi": 75,
          "name": "D#5",
          "ticks": 125760,
          "time": 131,
          "velocity": 0.5905511811023622
        },
        {
          "duration": 0.07604166666666856,
          "durationTicks": 73,
          "midi": 72,
          "name": "C5",
          "ticks": 126000,
          "time": 131.25,
          "velocity": 0.5905511811023622
        },
        {
          "duration": 0.08645833333332575,
          "durationTicks": 83,
          "midi": 70,
          "name": "A#4",
          "ticks": 126240,
          "time": 131.5,
          "velocity": 0.5905511811023622
        },
        {
          "duration": 0.09895833333334281,
          "durationTicks": 95,
          "midi": 68,
          "name": "G#4",
          "ticks": 126480,
          "time": 131.75,
          "velocity": 0.5905511811023622
        },
        {
          "duration": 0.1510416666666572,
          "durationTicks": 145,
          "midi": 75,
          "name": "D#5",
          "ticks": 126720,
          "time": 132,
          "velocity": 0.5905511811023622
        },
        {
          "duration": 0.10729166666666856,
          "durationTicks": 103,
          "midi": 72,
          "name": "C5",
          "ticks": 126840,
          "time": 132.125,
          "velocity": 0.5905511811023622
        },
        {
          "duration": 0.1354166666666572,
          "durationTicks": 130,
          "midi": 70,
          "name": "A#4",
          "ticks": 126960,
          "time": 132.25,
          "velocity": 0.5905511811023622
        },
        {
          "duration": 0.09166666666666856,
          "durationTicks": 88,
          "midi": 68,
          "name": "G#4",
          "ticks": 127080,
          "time": 132.375,
          "velocity": 0.5905511811023622
        },
        {
          "duration": 0.08854166666665719,
          "durationTicks": 85,
          "midi": 70,
          "name": "A#4",
          "ticks": 127320,
          "time": 132.625,
          "velocity": 0.5905511811023622
        },
        {
          "duration": 0.10729166666666856,
          "durationTicks": 103,
          "midi": 72,
          "name": "C5",
          "ticks": 127560,
          "time": 132.875,
          "velocity": 0.5905511811023622
        },
        {
          "duration": 0.09687500000001137,
          "durationTicks": 93,
          "midi": 75,
          "name": "D#5",
          "ticks": 127680,
          "time": 133,
          "velocity": 0.5905511811023622
        },
        {
          "duration": 0.07604166666666856,
          "durationTicks": 73,
          "midi": 72,
          "name": "C5",
          "ticks": 127920,
          "time": 133.25,
          "velocity": 0.5905511811023622
        },
        {
          "duration": 0.08645833333332575,
          "durationTicks": 83,
          "midi": 70,
          "name": "A#4",
          "ticks": 128160,
          "time": 133.5,
          "velocity": 0.5905511811023622
        },
        {
          "duration": 0.09895833333334281,
          "durationTicks": 95,
          "midi": 68,
          "name": "G#4",
          "ticks": 128400,
          "time": 133.75,
          "velocity": 0.5905511811023622
        }
      ]
    },
    {
      "channel": 11,
      "controlChanges": {},
      "pitchBends": [],
      "instrument": {
        "family": "piano",
        "number": 0,
        "name": "acoustic grand piano"
      },
      "name": "",
      "notes": [
        {
          "duration": 0.1510416666666714,
          "durationTicks": 145,
          "midi": 75,
          "name": "D#5",
          "ticks": 113280,
          "time": 118,
          "velocity": 0.5905511811023622
        },
        {
          "duration": 0.10729166666666856,
          "durationTicks": 103,
          "midi": 72,
          "name": "C5",
          "ticks": 113400,
          "time": 118.125,
          "velocity": 0.5905511811023622
        },
        {
          "duration": 0.1354166666666714,
          "durationTicks": 130,
          "midi": 70,
          "name": "A#4",
          "ticks": 113520,
          "time": 118.25,
          "velocity": 0.5905511811023622
        },
        {
          "duration": 0.09166666666666856,
          "durationTicks": 88,
          "midi": 68,
          "name": "G#4",
          "ticks": 113640,
          "time": 118.375,
          "velocity": 0.5905511811023622
        },
        {
          "duration": 0.0885416666666714,
          "durationTicks": 85,
          "midi": 70,
          "name": "A#4",
          "ticks": 113880,
          "time": 118.625,
          "velocity": 0.5905511811023622
        },
        {
          "duration": 0.10729166666666856,
          "durationTicks": 103,
          "midi": 72,
          "name": "C5",
          "ticks": 114120,
          "time": 118.875,
          "velocity": 0.5905511811023622
        },
        {
          "duration": 0.09687499999999716,
          "durationTicks": 93,
          "midi": 75,
          "name": "D#5",
          "ticks": 114240,
          "time": 119,
          "velocity": 0.5905511811023622
        },
        {
          "duration": 0.07604166666666856,
          "durationTicks": 73,
          "midi": 72,
          "name": "C5",
          "ticks": 114480,
          "time": 119.25,
          "velocity": 0.5905511811023622
        },
        {
          "duration": 0.08645833333333997,
          "durationTicks": 83,
          "midi": 70,
          "name": "A#4",
          "ticks": 114720,
          "time": 119.5,
          "velocity": 0.5905511811023622
        },
        {
          "duration": 0.0989583333333286,
          "durationTicks": 95,
          "midi": 68,
          "name": "G#4",
          "ticks": 114960,
          "time": 119.75,
          "velocity": 0.5905511811023622
        },
        {
          "duration": 0.1510416666666714,
          "durationTicks": 145,
          "midi": 75,
          "name": "D#5",
          "ticks": 115200,
          "time": 120,
          "velocity": 0.5905511811023622
        },
        {
          "duration": 0.10729166666666856,
          "durationTicks": 103,
          "midi": 72,
          "name": "C5",
          "ticks": 115320,
          "time": 120.125,
          "velocity": 0.5905511811023622
        },
        {
          "duration": 0.1354166666666714,
          "durationTicks": 130,
          "midi": 70,
          "name": "A#4",
          "ticks": 115440,
          "time": 120.25,
          "velocity": 0.5905511811023622
        },
        {
          "duration": 0.09166666666666856,
          "durationTicks": 88,
          "midi": 68,
          "name": "G#4",
          "ticks": 115560,
          "time": 120.375,
          "velocity": 0.5905511811023622
        },
        {
          "duration": 0.0885416666666714,
          "durationTicks": 85,
          "midi": 70,
          "name": "A#4",
          "ticks": 115800,
          "time": 120.625,
          "velocity": 0.5905511811023622
        },
        {
          "duration": 0.10729166666666856,
          "durationTicks": 103,
          "midi": 72,
          "name": "C5",
          "ticks": 116040,
          "time": 120.875,
          "velocity": 0.5905511811023622
        },
        {
          "duration": 0.09687499999999716,
          "durationTicks": 93,
          "midi": 75,
          "name": "D#5",
          "ticks": 116160,
          "time": 121,
          "velocity": 0.5905511811023622
        },
        {
          "duration": 0.07604166666666856,
          "durationTicks": 73,
          "midi": 72,
          "name": "C5",
          "ticks": 116400,
          "time": 121.25,
          "velocity": 0.5905511811023622
        },
        {
          "duration": 0.08645833333333997,
          "durationTicks": 83,
          "midi": 70,
          "name": "A#4",
          "ticks": 116640,
          "time": 121.5,
          "velocity": 0.5905511811023622
        },
        {
          "duration": 0.0989583333333286,
          "durationTicks": 95,
          "midi": 68,
          "name": "G#4",
          "ticks": 116880,
          "time": 121.75,
          "velocity": 0.5905511811023622
        },
        {
          "duration": 0.1510416666666714,
          "durationTicks": 145,
          "midi": 75,
          "name": "D#5",
          "ticks": 117120,
          "time": 122,
          "velocity": 0.5905511811023622
        },
        {
          "duration": 0.10729166666666856,
          "durationTicks": 103,
          "midi": 72,
          "name": "C5",
          "ticks": 117240,
          "time": 122.125,
          "velocity": 0.5905511811023622
        },
        {
          "duration": 0.1354166666666714,
          "durationTicks": 130,
          "midi": 70,
          "name": "A#4",
          "ticks": 117360,
          "time": 122.25,
          "velocity": 0.5905511811023622
        },
        {
          "duration": 0.09166666666666856,
          "durationTicks": 88,
          "midi": 68,
          "name": "G#4",
          "ticks": 117480,
          "time": 122.375,
          "velocity": 0.5905511811023622
        },
        {
          "duration": 0.0885416666666714,
          "durationTicks": 85,
          "midi": 70,
          "name": "A#4",
          "ticks": 117720,
          "time": 122.625,
          "velocity": 0.5905511811023622
        },
        {
          "duration": 0.10729166666666856,
          "durationTicks": 103,
          "midi": 72,
          "name": "C5",
          "ticks": 117960,
          "time": 122.875,
          "velocity": 0.5905511811023622
        },
        {
          "duration": 0.09687499999999716,
          "durationTicks": 93,
          "midi": 75,
          "name": "D#5",
          "ticks": 118080,
          "time": 123,
          "velocity": 0.5905511811023622
        },
        {
          "duration": 0.07604166666666856,
          "durationTicks": 73,
          "midi": 72,
          "name": "C5",
          "ticks": 118320,
          "time": 123.25,
          "velocity": 0.5905511811023622
        },
        {
          "duration": 0.08645833333333997,
          "durationTicks": 83,
          "midi": 70,
          "name": "A#4",
          "ticks": 118560,
          "time": 123.5,
          "velocity": 0.5905511811023622
        },
        {
          "duration": 0.0989583333333286,
          "durationTicks": 95,
          "midi": 68,
          "name": "G#4",
          "ticks": 118800,
          "time": 123.75,
          "velocity": 0.5905511811023622
        },
        {
          "duration": 0.1510416666666714,
          "durationTicks": 145,
          "midi": 75,
          "name": "D#5",
          "ticks": 119040,
          "time": 124,
          "velocity": 0.5905511811023622
        },
        {
          "duration": 0.10729166666666856,
          "durationTicks": 103,
          "midi": 72,
          "name": "C5",
          "ticks": 119160,
          "time": 124.125,
          "velocity": 0.5905511811023622
        },
        {
          "duration": 0.1354166666666714,
          "durationTicks": 130,
          "midi": 70,
          "name": "A#4",
          "ticks": 119280,
          "time": 124.25,
          "velocity": 0.5905511811023622
        },
        {
          "duration": 0.09166666666666856,
          "durationTicks": 88,
          "midi": 68,
          "name": "G#4",
          "ticks": 119400,
          "time": 124.375,
          "velocity": 0.5905511811023622
        },
        {
          "duration": 0.0885416666666714,
          "durationTicks": 85,
          "midi": 70,
          "name": "A#4",
          "ticks": 119640,
          "time": 124.625,
          "velocity": 0.5905511811023622
        },
        {
          "duration": 0.10729166666666856,
          "durationTicks": 103,
          "midi": 72,
          "name": "C5",
          "ticks": 119880,
          "time": 124.875,
          "velocity": 0.5905511811023622
        },
        {
          "duration": 0.09687499999999716,
          "durationTicks": 93,
          "midi": 75,
          "name": "D#5",
          "ticks": 120000,
          "time": 125,
          "velocity": 0.5905511811023622
        },
        {
          "duration": 0.07604166666666856,
          "durationTicks": 73,
          "midi": 72,
          "name": "C5",
          "ticks": 120240,
          "time": 125.25,
          "velocity": 0.5905511811023622
        },
        {
          "duration": 0.08645833333333997,
          "durationTicks": 83,
          "midi": 70,
          "name": "A#4",
          "ticks": 120480,
          "time": 125.5,
          "velocity": 0.5905511811023622
        },
        {
          "duration": 0.0989583333333286,
          "durationTicks": 95,
          "midi": 68,
          "name": "G#4",
          "ticks": 120720,
          "time": 125.75,
          "velocity": 0.5905511811023622
        },
        {
          "duration": 0.1510416666666714,
          "durationTicks": 145,
          "midi": 75,
          "name": "D#5",
          "ticks": 120960,
          "time": 126,
          "velocity": 0.5905511811023622
        },
        {
          "duration": 0.10729166666666856,
          "durationTicks": 103,
          "midi": 72,
          "name": "C5",
          "ticks": 121080,
          "time": 126.125,
          "velocity": 0.5905511811023622
        },
        {
          "duration": 0.1354166666666714,
          "durationTicks": 130,
          "midi": 70,
          "name": "A#4",
          "ticks": 121200,
          "time": 126.25,
          "velocity": 0.5905511811023622
        },
        {
          "duration": 0.09166666666666856,
          "durationTicks": 88,
          "midi": 68,
          "name": "G#4",
          "ticks": 121320,
          "time": 126.375,
          "velocity": 0.5905511811023622
        },
        {
          "duration": 0.0885416666666714,
          "durationTicks": 85,
          "midi": 70,
          "name": "A#4",
          "ticks": 121560,
          "time": 126.625,
          "velocity": 0.5905511811023622
        },
        {
          "duration": 0.10729166666666856,
          "durationTicks": 103,
          "midi": 72,
          "name": "C5",
          "ticks": 121800,
          "time": 126.875,
          "velocity": 0.5905511811023622
        },
        {
          "duration": 0.09687499999999716,
          "durationTicks": 93,
          "midi": 75,
          "name": "D#5",
          "ticks": 121920,
          "time": 127,
          "velocity": 0.5905511811023622
        },
        {
          "duration": 0.07604166666666856,
          "durationTicks": 73,
          "midi": 72,
          "name": "C5",
          "ticks": 122160,
          "time": 127.25,
          "velocity": 0.5905511811023622
        },
        {
          "duration": 0.08645833333333997,
          "durationTicks": 83,
          "midi": 70,
          "name": "A#4",
          "ticks": 122400,
          "time": 127.5,
          "velocity": 0.5905511811023622
        },
        {
          "duration": 0.0989583333333286,
          "durationTicks": 95,
          "midi": 68,
          "name": "G#4",
          "ticks": 122640,
          "time": 127.75,
          "velocity": 0.5905511811023622
        },
        {
          "duration": 0.1510416666666572,
          "durationTicks": 145,
          "midi": 75,
          "name": "D#5",
          "ticks": 122880,
          "time": 128,
          "velocity": 0.5905511811023622
        },
        {
          "duration": 0.10729166666666856,
          "durationTicks": 103,
          "midi": 72,
          "name": "C5",
          "ticks": 123000,
          "time": 128.125,
          "velocity": 0.5905511811023622
        },
        {
          "duration": 0.1354166666666572,
          "durationTicks": 130,
          "midi": 70,
          "name": "A#4",
          "ticks": 123120,
          "time": 128.25,
          "velocity": 0.5905511811023622
        },
        {
          "duration": 0.09166666666666856,
          "durationTicks": 88,
          "midi": 68,
          "name": "G#4",
          "ticks": 123240,
          "time": 128.375,
          "velocity": 0.5905511811023622
        },
        {
          "duration": 0.08854166666665719,
          "durationTicks": 85,
          "midi": 70,
          "name": "A#4",
          "ticks": 123480,
          "time": 128.625,
          "velocity": 0.5905511811023622
        },
        {
          "duration": 0.10729166666666856,
          "durationTicks": 103,
          "midi": 72,
          "name": "C5",
          "ticks": 123720,
          "time": 128.875,
          "velocity": 0.5905511811023622
        },
        {
          "duration": 0.09687500000001137,
          "durationTicks": 93,
          "midi": 75,
          "name": "D#5",
          "ticks": 123840,
          "time": 129,
          "velocity": 0.5905511811023622
        },
        {
          "duration": 0.07604166666666856,
          "durationTicks": 73,
          "midi": 72,
          "name": "C5",
          "ticks": 124080,
          "time": 129.25,
          "velocity": 0.5905511811023622
        },
        {
          "duration": 0.08645833333332575,
          "durationTicks": 83,
          "midi": 70,
          "name": "A#4",
          "ticks": 124320,
          "time": 129.5,
          "velocity": 0.5905511811023622
        },
        {
          "duration": 0.09895833333334281,
          "durationTicks": 95,
          "midi": 68,
          "name": "G#4",
          "ticks": 124560,
          "time": 129.75,
          "velocity": 0.5905511811023622
        },
        {
          "duration": 0.1510416666666572,
          "durationTicks": 145,
          "midi": 75,
          "name": "D#5",
          "ticks": 124800,
          "time": 130,
          "velocity": 0.5905511811023622
        },
        {
          "duration": 0.10729166666666856,
          "durationTicks": 103,
          "midi": 72,
          "name": "C5",
          "ticks": 124920,
          "time": 130.125,
          "velocity": 0.5905511811023622
        },
        {
          "duration": 0.1354166666666572,
          "durationTicks": 130,
          "midi": 70,
          "name": "A#4",
          "ticks": 125040,
          "time": 130.25,
          "velocity": 0.5905511811023622
        },
        {
          "duration": 0.09166666666666856,
          "durationTicks": 88,
          "midi": 68,
          "name": "G#4",
          "ticks": 125160,
          "time": 130.375,
          "velocity": 0.5905511811023622
        },
        {
          "duration": 0.08854166666665719,
          "durationTicks": 85,
          "midi": 70,
          "name": "A#4",
          "ticks": 125400,
          "time": 130.625,
          "velocity": 0.5905511811023622
        },
        {
          "duration": 0.10729166666666856,
          "durationTicks": 103,
          "midi": 72,
          "name": "C5",
          "ticks": 125640,
          "time": 130.875,
          "velocity": 0.5905511811023622
        },
        {
          "duration": 0.09687500000001137,
          "durationTicks": 93,
          "midi": 75,
          "name": "D#5",
          "ticks": 125760,
          "time": 131,
          "velocity": 0.5905511811023622
        },
        {
          "duration": 0.07604166666666856,
          "durationTicks": 73,
          "midi": 72,
          "name": "C5",
          "ticks": 126000,
          "time": 131.25,
          "velocity": 0.5905511811023622
        },
        {
          "duration": 0.08645833333332575,
          "durationTicks": 83,
          "midi": 70,
          "name": "A#4",
          "ticks": 126240,
          "time": 131.5,
          "velocity": 0.5905511811023622
        },
        {
          "duration": 0.09895833333334281,
          "durationTicks": 95,
          "midi": 68,
          "name": "G#4",
          "ticks": 126480,
          "time": 131.75,
          "velocity": 0.5905511811023622
        },
        {
          "duration": 0.1510416666666572,
          "durationTicks": 145,
          "midi": 75,
          "name": "D#5",
          "ticks": 126720,
          "time": 132,
          "velocity": 0.5905511811023622
        },
        {
          "duration": 0.10729166666666856,
          "durationTicks": 103,
          "midi": 72,
          "name": "C5",
          "ticks": 126840,
          "time": 132.125,
          "velocity": 0.5905511811023622
        },
        {
          "duration": 0.1354166666666572,
          "durationTicks": 130,
          "midi": 70,
          "name": "A#4",
          "ticks": 126960,
          "time": 132.25,
          "velocity": 0.5905511811023622
        },
        {
          "duration": 0.09166666666666856,
          "durationTicks": 88,
          "midi": 68,
          "name": "G#4",
          "ticks": 127080,
          "time": 132.375,
          "velocity": 0.5905511811023622
        },
        {
          "duration": 0.08854166666665719,
          "durationTicks": 85,
          "midi": 70,
          "name": "A#4",
          "ticks": 127320,
          "time": 132.625,
          "velocity": 0.5905511811023622
        },
        {
          "duration": 0.10729166666666856,
          "durationTicks": 103,
          "midi": 72,
          "name": "C5",
          "ticks": 127560,
          "time": 132.875,
          "velocity": 0.5905511811023622
        },
        {
          "duration": 0.09687500000001137,
          "durationTicks": 93,
          "midi": 75,
          "name": "D#5",
          "ticks": 127680,
          "time": 133,
          "velocity": 0.5905511811023622
        },
        {
          "duration": 0.07604166666666856,
          "durationTicks": 73,
          "midi": 72,
          "name": "C5",
          "ticks": 127920,
          "time": 133.25,
          "velocity": 0.5905511811023622
        },
        {
          "duration": 0.08645833333332575,
          "durationTicks": 83,
          "midi": 70,
          "name": "A#4",
          "ticks": 128160,
          "time": 133.5,
          "velocity": 0.5905511811023622
        },
        {
          "duration": 0.09895833333334281,
          "durationTicks": 95,
          "midi": 68,
          "name": "G#4",
          "ticks": 128400,
          "time": 133.75,
          "velocity": 0.5905511811023622
        },
        {
          "duration": 0.1510416666666572,
          "durationTicks": 145,
          "midi": 75,
          "name": "D#5",
          "ticks": 128640,
          "time": 134,
          "velocity": 0.5905511811023622
        },
        {
          "duration": 0.10729166666666856,
          "durationTicks": 103,
          "midi": 72,
          "name": "C5",
          "ticks": 128760,
          "time": 134.125,
          "velocity": 0.5905511811023622
        },
        {
          "duration": 0.1354166666666572,
          "durationTicks": 130,
          "midi": 70,
          "name": "A#4",
          "ticks": 128880,
          "time": 134.25,
          "velocity": 0.5905511811023622
        },
        {
          "duration": 0.09166666666666856,
          "durationTicks": 88,
          "midi": 68,
          "name": "G#4",
          "ticks": 129000,
          "time": 134.375,
          "velocity": 0.5905511811023622
        },
        {
          "duration": 0.08854166666665719,
          "durationTicks": 85,
          "midi": 70,
          "name": "A#4",
          "ticks": 129240,
          "time": 134.625,
          "velocity": 0.5905511811023622
        },
        {
          "duration": 0.10729166666666856,
          "durationTicks": 103,
          "midi": 72,
          "name": "C5",
          "ticks": 129480,
          "time": 134.875,
          "velocity": 0.5905511811023622
        },
        {
          "duration": 0.09687500000001137,
          "durationTicks": 93,
          "midi": 75,
          "name": "D#5",
          "ticks": 129600,
          "time": 135,
          "velocity": 0.5905511811023622
        },
        {
          "duration": 0.07604166666666856,
          "durationTicks": 73,
          "midi": 72,
          "name": "C5",
          "ticks": 129840,
          "time": 135.25,
          "velocity": 0.5905511811023622
        },
        {
          "duration": 0.08645833333332575,
          "durationTicks": 83,
          "midi": 70,
          "name": "A#4",
          "ticks": 130080,
          "time": 135.5,
          "velocity": 0.5905511811023622
        },
        {
          "duration": 0.09895833333334281,
          "durationTicks": 95,
          "midi": 68,
          "name": "G#4",
          "ticks": 130320,
          "time": 135.75,
          "velocity": 0.5905511811023622
        },
        {
          "duration": 0.1510416666666572,
          "durationTicks": 145,
          "midi": 75,
          "name": "D#5",
          "ticks": 130560,
          "time": 136,
          "velocity": 0.5905511811023622
        },
        {
          "duration": 0.10729166666666856,
          "durationTicks": 103,
          "midi": 72,
          "name": "C5",
          "ticks": 130680,
          "time": 136.125,
          "velocity": 0.5905511811023622
        },
        {
          "duration": 0.1354166666666572,
          "durationTicks": 130,
          "midi": 70,
          "name": "A#4",
          "ticks": 130800,
          "time": 136.25,
          "velocity": 0.5905511811023622
        },
        {
          "duration": 0.09166666666666856,
          "durationTicks": 88,
          "midi": 68,
          "name": "G#4",
          "ticks": 130920,
          "time": 136.375,
          "velocity": 0.5905511811023622
        },
        {
          "duration": 0.08854166666665719,
          "durationTicks": 85,
          "midi": 70,
          "name": "A#4",
          "ticks": 131160,
          "time": 136.625,
          "velocity": 0.5905511811023622
        },
        {
          "duration": 0.10729166666666856,
          "durationTicks": 103,
          "midi": 72,
          "name": "C5",
          "ticks": 131400,
          "time": 136.875,
          "velocity": 0.5905511811023622
        },
        {
          "duration": 0.09687500000001137,
          "durationTicks": 93,
          "midi": 75,
          "name": "D#5",
          "ticks": 131520,
          "time": 137,
          "velocity": 0.5905511811023622
        },
        {
          "duration": 0.07604166666666856,
          "durationTicks": 73,
          "midi": 72,
          "name": "C5",
          "ticks": 131760,
          "time": 137.25,
          "velocity": 0.5905511811023622
        },
        {
          "duration": 0.08645833333332575,
          "durationTicks": 83,
          "midi": 70,
          "name": "A#4",
          "ticks": 132000,
          "time": 137.5,
          "velocity": 0.5905511811023622
        },
        {
          "duration": 0.09895833333334281,
          "durationTicks": 95,
          "midi": 68,
          "name": "G#4",
          "ticks": 132240,
          "time": 137.75,
          "velocity": 0.5905511811023622
        }
      ]
    },
    {
      "channel": 2,
      "controlChanges": {},
      "pitchBends": [],
      "instrument": {
        "family": "piano",
        "number": 0,
        "name": "acoustic grand piano"
      },
      "name": "",
      "notes": [
        {
          "duration": 0.10729166666666856,
          "durationTicks": 103,
          "midi": 72,
          "name": "C5",
          "ticks": 113400,
          "time": 118.125,
          "velocity": 0.5905511811023622
        },
        {
          "duration": 0.1354166666666714,
          "durationTicks": 130,
          "midi": 70,
          "name": "A#4",
          "ticks": 113520,
          "time": 118.25,
          "velocity": 0.5905511811023622
        },
        {
          "duration": 0.0885416666666714,
          "durationTicks": 85,
          "midi": 70,
          "name": "A#4",
          "ticks": 113880,
          "time": 118.625,
          "velocity": 0.5905511811023622
        },
        {
          "duration": 0.10729166666666856,
          "durationTicks": 103,
          "midi": 72,
          "name": "C5",
          "ticks": 114120,
          "time": 118.875,
          "velocity": 0.5905511811023622
        },
        {
          "duration": 0.07604166666666856,
          "durationTicks": 73,
          "midi": 72,
          "name": "C5",
          "ticks": 114480,
          "time": 119.25,
          "velocity": 0.5905511811023622
        },
        {
          "duration": 0.08645833333333997,
          "durationTicks": 83,
          "midi": 70,
          "name": "A#4",
          "ticks": 114720,
          "time": 119.5,
          "velocity": 0.5905511811023622
        },
        {
          "duration": 0.10729166666666856,
          "durationTicks": 103,
          "midi": 72,
          "name": "C5",
          "ticks": 115320,
          "time": 120.125,
          "velocity": 0.5905511811023622
        },
        {
          "duration": 0.1354166666666714,
          "durationTicks": 130,
          "midi": 70,
          "name": "A#4",
          "ticks": 115440,
          "time": 120.25,
          "velocity": 0.5905511811023622
        },
        {
          "duration": 0.0885416666666714,
          "durationTicks": 85,
          "midi": 70,
          "name": "A#4",
          "ticks": 115800,
          "time": 120.625,
          "velocity": 0.5905511811023622
        },
        {
          "duration": 0.10729166666666856,
          "durationTicks": 103,
          "midi": 72,
          "name": "C5",
          "ticks": 116040,
          "time": 120.875,
          "velocity": 0.5905511811023622
        },
        {
          "duration": 0.07604166666666856,
          "durationTicks": 73,
          "midi": 72,
          "name": "C5",
          "ticks": 116400,
          "time": 121.25,
          "velocity": 0.5905511811023622
        },
        {
          "duration": 0.08645833333333997,
          "durationTicks": 83,
          "midi": 70,
          "name": "A#4",
          "ticks": 116640,
          "time": 121.5,
          "velocity": 0.5905511811023622
        },
        {
          "duration": 0.10729166666666856,
          "durationTicks": 103,
          "midi": 72,
          "name": "C5",
          "ticks": 117240,
          "time": 122.125,
          "velocity": 0.5905511811023622
        },
        {
          "duration": 0.1354166666666714,
          "durationTicks": 130,
          "midi": 70,
          "name": "A#4",
          "ticks": 117360,
          "time": 122.25,
          "velocity": 0.5905511811023622
        },
        {
          "duration": 0.0885416666666714,
          "durationTicks": 85,
          "midi": 70,
          "name": "A#4",
          "ticks": 117720,
          "time": 122.625,
          "velocity": 0.5905511811023622
        },
        {
          "duration": 0.10729166666666856,
          "durationTicks": 103,
          "midi": 72,
          "name": "C5",
          "ticks": 117960,
          "time": 122.875,
          "velocity": 0.5905511811023622
        },
        {
          "duration": 0.07604166666666856,
          "durationTicks": 73,
          "midi": 72,
          "name": "C5",
          "ticks": 118320,
          "time": 123.25,
          "velocity": 0.5905511811023622
        },
        {
          "duration": 0.08645833333333997,
          "durationTicks": 83,
          "midi": 70,
          "name": "A#4",
          "ticks": 118560,
          "time": 123.5,
          "velocity": 0.5905511811023622
        },
        {
          "duration": 0.10729166666666856,
          "durationTicks": 103,
          "midi": 72,
          "name": "C5",
          "ticks": 119160,
          "time": 124.125,
          "velocity": 0.5905511811023622
        },
        {
          "duration": 0.1354166666666714,
          "durationTicks": 130,
          "midi": 70,
          "name": "A#4",
          "ticks": 119280,
          "time": 124.25,
          "velocity": 0.5905511811023622
        },
        {
          "duration": 0.0885416666666714,
          "durationTicks": 85,
          "midi": 70,
          "name": "A#4",
          "ticks": 119640,
          "time": 124.625,
          "velocity": 0.5905511811023622
        },
        {
          "duration": 0.10729166666666856,
          "durationTicks": 103,
          "midi": 72,
          "name": "C5",
          "ticks": 119880,
          "time": 124.875,
          "velocity": 0.5905511811023622
        },
        {
          "duration": 0.07604166666666856,
          "durationTicks": 73,
          "midi": 72,
          "name": "C5",
          "ticks": 120240,
          "time": 125.25,
          "velocity": 0.5905511811023622
        },
        {
          "duration": 0.08645833333333997,
          "durationTicks": 83,
          "midi": 70,
          "name": "A#4",
          "ticks": 120480,
          "time": 125.5,
          "velocity": 0.5905511811023622
        },
        {
          "duration": 0.10729166666666856,
          "durationTicks": 103,
          "midi": 72,
          "name": "C5",
          "ticks": 121080,
          "time": 126.125,
          "velocity": 0.5905511811023622
        },
        {
          "duration": 0.1354166666666714,
          "durationTicks": 130,
          "midi": 70,
          "name": "A#4",
          "ticks": 121200,
          "time": 126.25,
          "velocity": 0.5905511811023622
        },
        {
          "duration": 0.0885416666666714,
          "durationTicks": 85,
          "midi": 70,
          "name": "A#4",
          "ticks": 121560,
          "time": 126.625,
          "velocity": 0.5905511811023622
        },
        {
          "duration": 0.10729166666666856,
          "durationTicks": 103,
          "midi": 72,
          "name": "C5",
          "ticks": 121800,
          "time": 126.875,
          "velocity": 0.5905511811023622
        },
        {
          "duration": 0.07604166666666856,
          "durationTicks": 73,
          "midi": 72,
          "name": "C5",
          "ticks": 122160,
          "time": 127.25,
          "velocity": 0.5905511811023622
        },
        {
          "duration": 0.08645833333333997,
          "durationTicks": 83,
          "midi": 70,
          "name": "A#4",
          "ticks": 122400,
          "time": 127.5,
          "velocity": 0.5905511811023622
        },
        {
          "duration": 0.10729166666666856,
          "durationTicks": 103,
          "midi": 72,
          "name": "C5",
          "ticks": 123000,
          "time": 128.125,
          "velocity": 0.5905511811023622
        },
        {
          "duration": 0.1354166666666572,
          "durationTicks": 130,
          "midi": 70,
          "name": "A#4",
          "ticks": 123120,
          "time": 128.25,
          "velocity": 0.5905511811023622
        },
        {
          "duration": 0.08854166666665719,
          "durationTicks": 85,
          "midi": 70,
          "name": "A#4",
          "ticks": 123480,
          "time": 128.625,
          "velocity": 0.5905511811023622
        },
        {
          "duration": 0.10729166666666856,
          "durationTicks": 103,
          "midi": 72,
          "name": "C5",
          "ticks": 123720,
          "time": 128.875,
          "velocity": 0.5905511811023622
        },
        {
          "duration": 0.07604166666666856,
          "durationTicks": 73,
          "midi": 72,
          "name": "C5",
          "ticks": 124080,
          "time": 129.25,
          "velocity": 0.5905511811023622
        },
        {
          "duration": 0.08645833333332575,
          "durationTicks": 83,
          "midi": 70,
          "name": "A#4",
          "ticks": 124320,
          "time": 129.5,
          "velocity": 0.5905511811023622
        },
        {
          "duration": 0.10729166666666856,
          "durationTicks": 103,
          "midi": 72,
          "name": "C5",
          "ticks": 124920,
          "time": 130.125,
          "velocity": 0.5905511811023622
        },
        {
          "duration": 0.1354166666666572,
          "durationTicks": 130,
          "midi": 70,
          "name": "A#4",
          "ticks": 125040,
          "time": 130.25,
          "velocity": 0.5905511811023622
        },
        {
          "duration": 0.08854166666665719,
          "durationTicks": 85,
          "midi": 70,
          "name": "A#4",
          "ticks": 125400,
          "time": 130.625,
          "velocity": 0.5905511811023622
        },
        {
          "duration": 0.10729166666666856,
          "durationTicks": 103,
          "midi": 72,
          "name": "C5",
          "ticks": 125640,
          "time": 130.875,
          "velocity": 0.5905511811023622
        },
        {
          "duration": 0.07604166666666856,
          "durationTicks": 73,
          "midi": 72,
          "name": "C5",
          "ticks": 126000,
          "time": 131.25,
          "velocity": 0.5905511811023622
        },
        {
          "duration": 0.08645833333332575,
          "durationTicks": 83,
          "midi": 70,
          "name": "A#4",
          "ticks": 126240,
          "time": 131.5,
          "velocity": 0.5905511811023622
        },
        {
          "duration": 0.10729166666666856,
          "durationTicks": 103,
          "midi": 72,
          "name": "C5",
          "ticks": 126840,
          "time": 132.125,
          "velocity": 0.5905511811023622
        },
        {
          "duration": 0.1354166666666572,
          "durationTicks": 130,
          "midi": 70,
          "name": "A#4",
          "ticks": 126960,
          "time": 132.25,
          "velocity": 0.5905511811023622
        },
        {
          "duration": 0.08854166666665719,
          "durationTicks": 85,
          "midi": 70,
          "name": "A#4",
          "ticks": 127320,
          "time": 132.625,
          "velocity": 0.5905511811023622
        },
        {
          "duration": 0.10729166666666856,
          "durationTicks": 103,
          "midi": 72,
          "name": "C5",
          "ticks": 127560,
          "time": 132.875,
          "velocity": 0.5905511811023622
        },
        {
          "duration": 0.07604166666666856,
          "durationTicks": 73,
          "midi": 72,
          "name": "C5",
          "ticks": 127920,
          "time": 133.25,
          "velocity": 0.5905511811023622
        },
        {
          "duration": 0.08645833333332575,
          "durationTicks": 83,
          "midi": 70,
          "name": "A#4",
          "ticks": 128160,
          "time": 133.5,
          "velocity": 0.5905511811023622
        },
        {
          "duration": 0.10729166666666856,
          "durationTicks": 103,
          "midi": 72,
          "name": "C5",
          "ticks": 128760,
          "time": 134.125,
          "velocity": 0.5905511811023622
        },
        {
          "duration": 0.1354166666666572,
          "durationTicks": 130,
          "midi": 70,
          "name": "A#4",
          "ticks": 128880,
          "time": 134.25,
          "velocity": 0.5905511811023622
        },
        {
          "duration": 0.08854166666665719,
          "durationTicks": 85,
          "midi": 70,
          "name": "A#4",
          "ticks": 129240,
          "time": 134.625,
          "velocity": 0.5905511811023622
        },
        {
          "duration": 0.10729166666666856,
          "durationTicks": 103,
          "midi": 72,
          "name": "C5",
          "ticks": 129480,
          "time": 134.875,
          "velocity": 0.5905511811023622
        },
        {
          "duration": 0.07604166666666856,
          "durationTicks": 73,
          "midi": 72,
          "name": "C5",
          "ticks": 129840,
          "time": 135.25,
          "velocity": 0.5905511811023622
        },
        {
          "duration": 0.08645833333332575,
          "durationTicks": 83,
          "midi": 70,
          "name": "A#4",
          "ticks": 130080,
          "time": 135.5,
          "velocity": 0.5905511811023622
        },
        {
          "duration": 0.10729166666666856,
          "durationTicks": 103,
          "midi": 72,
          "name": "C5",
          "ticks": 130680,
          "time": 136.125,
          "velocity": 0.5905511811023622
        },
        {
          "duration": 0.1354166666666572,
          "durationTicks": 130,
          "midi": 70,
          "name": "A#4",
          "ticks": 130800,
          "time": 136.25,
          "velocity": 0.5905511811023622
        },
        {
          "duration": 0.08854166666665719,
          "durationTicks": 85,
          "midi": 70,
          "name": "A#4",
          "ticks": 131160,
          "time": 136.625,
          "velocity": 0.5905511811023622
        },
        {
          "duration": 0.10729166666666856,
          "durationTicks": 103,
          "midi": 72,
          "name": "C5",
          "ticks": 131400,
          "time": 136.875,
          "velocity": 0.5905511811023622
        },
        {
          "duration": 0.07604166666666856,
          "durationTicks": 73,
          "midi": 72,
          "name": "C5",
          "ticks": 131760,
          "time": 137.25,
          "velocity": 0.5905511811023622
        },
        {
          "duration": 0.08645833333332575,
          "durationTicks": 83,
          "midi": 70,
          "name": "A#4",
          "ticks": 132000,
          "time": 137.5,
          "velocity": 0.5905511811023622
        }
      ]
    },
    {
      "channel": 10,
      "controlChanges": {},
      "pitchBends": [],
      "instrument": {
        "family": "piano",
        "number": 0,
        "name": "acoustic grand piano"
      },
      "name": "",
      "notes": [
        {
          "duration": 0.1510416666666572,
          "durationTicks": 145,
          "midi": 75,
          "name": "D#5",
          "ticks": 128640,
          "time": 134,
          "velocity": 0.5905511811023622
        },
        {
          "duration": 0.10729166666666856,
          "durationTicks": 103,
          "midi": 72,
          "name": "C5",
          "ticks": 128760,
          "time": 134.125,
          "velocity": 0.5905511811023622
        },
        {
          "duration": 0.1354166666666572,
          "durationTicks": 130,
          "midi": 70,
          "name": "A#4",
          "ticks": 128880,
          "time": 134.25,
          "velocity": 0.5905511811023622
        },
        {
          "duration": 0.08854166666665719,
          "durationTicks": 85,
          "midi": 70,
          "name": "A#4",
          "ticks": 129240,
          "time": 134.625,
          "velocity": 0.5905511811023622
        },
        {
          "duration": 0.10729166666666856,
          "durationTicks": 103,
          "midi": 72,
          "name": "C5",
          "ticks": 129480,
          "time": 134.875,
          "velocity": 0.5905511811023622
        },
        {
          "duration": 0.09687500000001137,
          "durationTicks": 93,
          "midi": 75,
          "name": "D#5",
          "ticks": 129600,
          "time": 135,
          "velocity": 0.5905511811023622
        },
        {
          "duration": 0.07604166666666856,
          "durationTicks": 73,
          "midi": 72,
          "name": "C5",
          "ticks": 129840,
          "time": 135.25,
          "velocity": 0.5905511811023622
        },
        {
          "duration": 0.08645833333332575,
          "durationTicks": 83,
          "midi": 70,
          "name": "A#4",
          "ticks": 130080,
          "time": 135.5,
          "velocity": 0.5905511811023622
        },
        {
          "duration": 0.1510416666666572,
          "durationTicks": 145,
          "midi": 75,
          "name": "D#5",
          "ticks": 130560,
          "time": 136,
          "velocity": 0.5905511811023622
        },
        {
          "duration": 0.10729166666666856,
          "durationTicks": 103,
          "midi": 72,
          "name": "C5",
          "ticks": 130680,
          "time": 136.125,
          "velocity": 0.5905511811023622
        },
        {
          "duration": 0.1354166666666572,
          "durationTicks": 130,
          "midi": 70,
          "name": "A#4",
          "ticks": 130800,
          "time": 136.25,
          "velocity": 0.5905511811023622
        },
        {
          "duration": 0.08854166666665719,
          "durationTicks": 85,
          "midi": 70,
          "name": "A#4",
          "ticks": 131160,
          "time": 136.625,
          "velocity": 0.5905511811023622
        },
        {
          "duration": 0.10729166666666856,
          "durationTicks": 103,
          "midi": 72,
          "name": "C5",
          "ticks": 131400,
          "time": 136.875,
          "velocity": 0.5905511811023622
        },
        {
          "duration": 0.09687500000001137,
          "durationTicks": 93,
          "midi": 75,
          "name": "D#5",
          "ticks": 131520,
          "time": 137,
          "velocity": 0.5905511811023622
        },
        {
          "duration": 0.07604166666666856,
          "durationTicks": 73,
          "midi": 72,
          "name": "C5",
          "ticks": 131760,
          "time": 137.25,
          "velocity": 0.5905511811023622
        },
        {
          "duration": 0.08645833333332575,
          "durationTicks": 83,
          "midi": 70,
          "name": "A#4",
          "ticks": 132000,
          "time": 137.5,
          "velocity": 0.5905511811023622
        }
      ]
    },
    {
      "channel": 1,
      "controlChanges": {},
      "pitchBends": [],
      "instrument": {
        "family": "piano",
        "number": 0,
        "name": "acoustic grand piano"
      },
      "name": "",
      "notes": [
        {
          "duration": 0.11250000000001137,
          "durationTicks": 108,
          "midi": 65,
          "name": "F4",
          "ticks": 151680,
          "time": 158,
          "velocity": 0.5039370078740157
        },
        {
          "duration": 0.09687500000001137,
          "durationTicks": 93,
          "midi": 68,
          "name": "G#4",
          "ticks": 152160,
          "time": 158.5,
          "velocity": 0.5039370078740157
        },
        {
          "duration": 0.08333333333334281,
          "durationTicks": 80,
          "midi": 65,
          "name": "F4",
          "ticks": 152520,
          "time": 158.875,
          "velocity": 0.5039370078740157
        },
        {
          "duration": 0.09895833333334281,
          "durationTicks": 95,
          "midi": 65,
          "name": "F4",
          "ticks": 152760,
          "time": 159.125,
          "velocity": 0.5039370078740157
        },
        {
          "duration": 0.08125000000001137,
          "durationTicks": 78,
          "midi": 70,
          "name": "A#4",
          "ticks": 152880,
          "time": 159.25,
          "velocity": 0.5039370078740157
        },
        {
          "duration": 0.09375,
          "durationTicks": 90,
          "midi": 65,
          "name": "F4",
          "ticks": 153120,
          "time": 159.5,
          "velocity": 0.5039370078740157
        },
        {
          "duration": 0.09895833333334281,
          "durationTicks": 95,
          "midi": 63,
          "name": "D#4",
          "ticks": 153360,
          "time": 159.75,
          "velocity": 0.5039370078740157
        },
        {
          "duration": 0.10208333333332575,
          "durationTicks": 98,
          "midi": 65,
          "name": "F4",
          "ticks": 153600,
          "time": 160,
          "velocity": 0.5039370078740157
        },
        {
          "duration": 0.08854166666665719,
          "durationTicks": 85,
          "midi": 72,
          "name": "C5",
          "ticks": 154080,
          "time": 160.5,
          "velocity": 0.5039370078740157
        },
        {
          "duration": 0.08645833333332575,
          "durationTicks": 83,
          "midi": 65,
          "name": "F4",
          "ticks": 154440,
          "time": 160.875,
          "velocity": 0.5039370078740157
        },
        {
          "duration": 0.09166666666666856,
          "durationTicks": 88,
          "midi": 65,
          "name": "F4",
          "ticks": 154680,
          "time": 161.125,
          "velocity": 0.5039370078740157
        },
        {
          "duration": 0.06562500000001137,
          "durationTicks": 63,
          "midi": 73,
          "name": "C#5",
          "ticks": 154800,
          "time": 161.25,
          "velocity": 0.5039370078740157
        },
        {
          "duration": 0.06770833333334281,
          "durationTicks": 65,
          "midi": 72,
          "name": "C5",
          "ticks": 155040,
          "time": 161.5,
          "velocity": 0.5039370078740157
        },
        {
          "duration": 0.05208333333334281,
          "durationTicks": 50,
          "midi": 68,
          "name": "G#4",
          "ticks": 155280,
          "time": 161.75,
          "velocity": 0.5039370078740157
        },
        {
          "duration": 0.05208333333334281,
          "durationTicks": 50,
          "midi": 65,
          "name": "F4",
          "ticks": 155520,
          "time": 162,
          "velocity": 0.5039370078740157
        },
        {
          "duration": 0.05000000000001137,
          "durationTicks": 48,
          "midi": 72,
          "name": "C5",
          "ticks": 155760,
          "time": 162.25,
          "velocity": 0.5039370078740157
        },
        {
          "duration": 0.07291666666665719,
          "durationTicks": 70,
          "midi": 77,
          "name": "F5",
          "ticks": 156000,
          "time": 162.5,
          "velocity": 0.5039370078740157
        },
        {
          "duration": 0.05729166666665719,
          "durationTicks": 55,
          "midi": 65,
          "name": "F4",
          "ticks": 156240,
          "time": 162.75,
          "velocity": 0.5039370078740157
        },
        {
          "duration": 0.08333333333334281,
          "durationTicks": 80,
          "midi": 63,
          "name": "D#4",
          "ticks": 156360,
          "time": 162.875,
          "velocity": 0.5039370078740157
        },
        {
          "duration": 0.08125000000001137,
          "durationTicks": 78,
          "midi": 63,
          "name": "D#4",
          "ticks": 156600,
          "time": 163.125,
          "velocity": 0.5039370078740157
        },
        {
          "duration": 0.0625,
          "durationTicks": 60,
          "midi": 60,
          "name": "C4",
          "ticks": 156720,
          "time": 163.25,
          "velocity": 0.5039370078740157
        },
        {
          "duration": 0.08645833333332575,
          "durationTicks": 83,
          "midi": 67,
          "name": "G4",
          "ticks": 156960,
          "time": 163.5,
          "velocity": 0.5039370078740157
        },
        {
          "duration": 1.2427083333333258,
          "durationTicks": 1193,
          "midi": 65,
          "name": "F4",
          "ticks": 157200,
          "time": 163.75,
          "velocity": 0.5039370078740157
        },
        {
          "duration": 0.13854166666666856,
          "durationTicks": 133,
          "midi": 65,
          "name": "F4",
          "ticks": 159360,
          "time": 166,
          "velocity": 0.5039370078740157
        },
        {
          "duration": 0.09687500000001137,
          "durationTicks": 93,
          "midi": 68,
          "name": "G#4",
          "ticks": 159840,
          "time": 166.5,
          "velocity": 0.5039370078740157
        },
        {
          "duration": 0.07291666666665719,
          "durationTicks": 70,
          "midi": 65,
          "name": "F4",
          "ticks": 160200,
          "time": 166.875,
          "velocity": 0.5039370078740157
        },
        {
          "duration": 0.08645833333332575,
          "durationTicks": 83,
          "midi": 65,
          "name": "F4",
          "ticks": 160440,
          "time": 167.125,
          "velocity": 0.5039370078740157
        },
        {
          "duration": 0.08333333333334281,
          "durationTicks": 80,
          "midi": 70,
          "name": "A#4",
          "ticks": 160560,
          "time": 167.25,
          "velocity": 0.5039370078740157
        },
        {
          "duration": 0.10416666666665719,
          "durationTicks": 100,
          "midi": 65,
          "name": "F4",
          "ticks": 160800,
          "time": 167.5,
          "velocity": 0.5039370078740157
        },
        {
          "duration": 0.078125,
          "durationTicks": 75,
          "midi": 63,
          "name": "D#4",
          "ticks": 161040,
          "time": 167.75,
          "velocity": 0.5039370078740157
        },
        {
          "duration": 0.10208333333332575,
          "durationTicks": 98,
          "midi": 65,
          "name": "F4",
          "ticks": 161280,
          "time": 168,
          "velocity": 0.5039370078740157
        },
        {
          "duration": 0.09895833333334281,
          "durationTicks": 95,
          "midi": 72,
          "name": "C5",
          "ticks": 161760,
          "time": 168.5,
          "velocity": 0.5039370078740157
        },
        {
          "duration": 0.09895833333334281,
          "durationTicks": 95,
          "midi": 65,
          "name": "F4",
          "ticks": 162120,
          "time": 168.875,
          "velocity": 0.5039370078740157
        },
        {
          "duration": 0.09375,
          "durationTicks": 90,
          "midi": 65,
          "name": "F4",
          "ticks": 162360,
          "time": 169.125,
          "velocity": 0.5039370078740157
        },
        {
          "duration": 0.07604166666666856,
          "durationTicks": 73,
          "midi": 73,
          "name": "C#5",
          "ticks": 162480,
          "time": 169.25,
          "velocity": 0.5039370078740157
        },
        {
          "duration": 0.078125,
          "durationTicks": 75,
          "midi": 72,
          "name": "C5",
          "ticks": 162720,
          "time": 169.5,
          "velocity": 0.5039370078740157
        },
        {
          "duration": 0.06041666666666856,
          "durationTicks": 58,
          "midi": 68,
          "name": "G#4",
          "ticks": 162960,
          "time": 169.75,
          "velocity": 0.5039370078740157
        },
        {
          "duration": 0.055208333333325754,
          "durationTicks": 53,
          "midi": 65,
          "name": "F4",
          "ticks": 163200,
          "time": 170,
          "velocity": 0.5039370078740157
        },
        {
          "duration": 0.05729166666665719,
          "durationTicks": 55,
          "midi": 72,
          "name": "C5",
          "ticks": 163440,
          "time": 170.25,
          "velocity": 0.5039370078740157
        },
        {
          "duration": 0.07604166666666856,
          "durationTicks": 73,
          "midi": 77,
          "name": "F5",
          "ticks": 163680,
          "time": 170.5,
          "velocity": 0.5039370078740157
        },
        {
          "duration": 0.06041666666666856,
          "durationTicks": 58,
          "midi": 65,
          "name": "F4",
          "ticks": 163920,
          "time": 170.75,
          "velocity": 0.5039370078740157
        },
        {
          "duration": 0.08333333333334281,
          "durationTicks": 80,
          "midi": 63,
          "name": "D#4",
          "ticks": 164040,
          "time": 170.875,
          "velocity": 0.5039370078740157
        },
        {
          "duration": 0.08333333333334281,
          "durationTicks": 80,
          "midi": 63,
          "name": "D#4",
          "ticks": 164280,
          "time": 171.125,
          "velocity": 0.5039370078740157
        },
        {
          "duration": 0.0625,
          "durationTicks": 60,
          "midi": 60,
          "name": "C4",
          "ticks": 164400,
          "time": 171.25,
          "velocity": 0.5039370078740157
        },
        {
          "duration": 0.1875,
          "durationTicks": 180,
          "midi": 67,
          "name": "G4",
          "ticks": 164640,
          "time": 171.5,
          "velocity": 0.5039370078740157
        },
        {
          "duration": 1.3958333333333428,
          "durationTicks": 1340,
          "midi": 65,
          "name": "F4",
          "ticks": 164880,
          "time": 171.75,
          "velocity": 0.5039370078740157
        }
      ]
    }
  ]
}