{
  "header": {
    "keySignatures": [],
    "meta": {
      "title": "Crawling",
      "artist": "Linkin Park",
      "creator": "unknown"
    },
    "name": "",
    "ppq": 192,
    "tempos": [
      {
        "bpm": 104.00001386666851,
        "ticks": 0
      }
    ],
    "timeSignatures": [
      {
        "ticks": 0,
        "timeSignature": [
          4,
          4
        ],
        "measures": 0
      }
    ]
  },
  "tracks": [
    {
      "channel": 0,
      "controlChanges": {
        "10": [
          {
            "number": 10,
            "ticks": 0,
            "time": 0,
            "value": 0.5039370078740157
          }
        ]
      },
      "pitchBends": [],
      "instrument": {
        "family": "reed",
        "number": 71,
        "name": "clarinet"
      },
      "name": "TabIt MIDI - Track 1",
      "notes": [
        {
          "duration": 0.28846150000000004,
          "durationTicks": 96,
          "midi": 73,
          "name": "C#5",
          "ticks": 0,
          "time": 0,
          "velocity": 0.7559055118110236
        },
        {
          "duration": 0.8653845000000001,
          "durationTicks": 288,
          "midi": 83,
          "name": "B5",
          "ticks": 96,
          "time": 0.28846150000000004,
          "velocity": 0.7559055118110236
        },
        {
          "duration": 1.4423075,
          "durationTicks": 480,
          "midi": 80,
          "name": "G#5",
          "ticks": 384,
          "time": 1.1538460000000001,
          "velocity": 0.7559055118110236
        },
        {
          "duration": 0.5769230000000003,
          "durationTicks": 192,
          "midi": 78,
          "name": "F#5",
          "ticks": 864,
          "time": 2.5961535000000002,
          "velocity": 0.7559055118110236
        },
        {
          "duration": 0.2884614999999999,
          "durationTicks": 96,
          "midi": 76,
          "name": "E5",
          "ticks": 1056,
          "time": 3.1730765000000005,
          "velocity": 0.7559055118110236
        },
        {
          "duration": 0.5769230000000003,
          "durationTicks": 192,
          "midi": 75,
          "name": "D#5",
          "ticks": 1152,
          "time": 3.4615380000000004,
          "velocity": 0.7559055118110236
        },
        {
          "duration": 0.5769229999999999,
          "durationTicks": 192,
          "midi": 76,
          "name": "E5",
          "ticks": 1344,
          "time": 4.038461000000001,
          "velocity": 0.7559055118110236
        },
        {
          "duration": 0.28846150000000037,
          "durationTicks": 96,
          "midi": 73,
          "name": "C#5",
          "ticks": 1536,
          "time": 4.615384000000001,
          "velocity": 0.7559055118110236
        },
        {
          "duration": 0.8653844999999993,
          "durationTicks": 288,
          "midi": 83,
          "name": "B5",
          "ticks": 1632,
          "time": 4.903845500000001,
          "velocity": 0.7559055118110236
        },
        {
          "duration": 1.442307500000001,
          "durationTicks": 480,
          "midi": 80,
          "name": "G#5",
          "ticks": 1920,
          "time": 5.76923,
          "velocity": 0.7559055118110236
        },
        {
          "duration": 0.5769229999999999,
          "durationTicks": 192,
          "midi": 78,
          "name": "F#5",
          "ticks": 2400,
          "time": 7.211537500000001,
          "velocity": 0.7559055118110236
        },
        {
          "duration": 0.28846150000000037,
          "durationTicks": 96,
          "midi": 76,
          "name": "E5",
          "ticks": 2592,
          "time": 7.788460500000001,
          "velocity": 0.7559055118110236
        },
        {
          "duration": 0.576922999999999,
          "durationTicks": 192,
          "midi": 75,
          "name": "D#5",
          "ticks": 2688,
          "time": 8.076922000000001,
          "velocity": 0.7559055118110236
        },
        {
          "duration": 0.5769230000000007,
          "durationTicks": 192,
          "midi": 76,
          "name": "E5",
          "ticks": 2880,
          "time": 8.653845,
          "velocity": 0.7559055118110236
        },
        {
          "duration": 0.28846150000000037,
          "durationTicks": 96,
          "midi": 73,
          "name": "C#5",
          "ticks": 3072,
          "time": 9.230768000000001,
          "velocity": 0.7559055118110236
        },
        {
          "duration": 0.8653844999999993,
          "durationTicks": 288,
          "midi": 83,
          "name": "B5",
          "ticks": 3168,
          "time": 9.519229500000002,
          "velocity": 0.7559055118110236
        },
        {
          "duration": 1.4423075,
          "durationTicks": 480,
          "midi": 80,
          "name": "G#5",
          "ticks": 3456,
          "time": 10.384614000000001,
          "velocity": 0.7559055118110236
        },
        {
          "duration": 0.5769230000000007,
          "durationTicks": 192,
          "midi": 78,
          "name": "F#5",
          "ticks": 3936,
          "time": 11.826921500000001,
          "velocity": 0.7559055118110236
        },
        {
          "duration": 0.28846150000000037,
          "durationTicks": 96,
          "midi": 76,
          "name": "E5",
          "ticks": 4128,
          "time": 12.403844500000002,
          "velocity": 0.7559055118110236
        },
        {
          "duration": 0.576922999999999,
          "durationTicks": 192,
          "midi": 75,
          "name": "D#5",
          "ticks": 4224,
          "time": 12.692306000000002,
          "velocity": 0.7559055118110236
        },
        {
          "duration": 0.5769230000000007,
          "durationTicks": 192,
          "midi": 76,
          "name": "E5",
          "ticks": 4416,
          "time": 13.269229000000001,
          "velocity": 0.7559055118110236
        },
        {
          "duration": 0.28846150000000037,
          "durationTicks": 96,
          "midi": 73,
          "name": "C#5",
          "ticks": 4608,
          "time": 13.846152000000002,
          "velocity": 0.7559055118110236
        },
        {
          "duration": 0.8653844999999993,
          "durationTicks": 288,
          "midi": 83,
          "name": "B5",
          "ticks": 4704,
          "time": 14.134613500000002,
          "velocity": 0.7559055118110236
        },
        {
          "duration": 1.4423075000000019,
          "durationTicks": 480,
          "midi": 80,
          "name": "G#5",
          "ticks": 4992,
          "time": 14.999998000000001,
          "velocity": 0.7559055118110236
        },
        {
          "duration": 0.5769229999999972,
          "durationTicks": 192,
          "midi": 78,
          "name": "F#5",
          "ticks": 5472,
          "time": 16.442305500000003,
          "velocity": 0.7559055118110236
        },
        {
          "duration": 0.28846150000000037,
          "durationTicks": 96,
          "midi": 76,
          "name": "E5",
          "ticks": 5664,
          "time": 17.0192285,
          "velocity": 0.7559055118110236
        },
        {
          "duration": 0.5769230000000007,
          "durationTicks": 192,
          "midi": 75,
          "name": "D#5",
          "ticks": 5760,
          "time": 17.30769,
          "velocity": 0.7559055118110236
        },
        {
          "duration": 0.8653845000000011,
          "durationTicks": 288,
          "midi": 76,
          "name": "E5",
          "ticks": 5952,
          "time": 17.884613,
          "velocity": 0.7559055118110236
        },
        {
          "duration": 1.1538460000000015,
          "durationTicks": 384,
          "midi": 83,
          "name": "B5",
          "ticks": 12384,
          "time": 37.2115335,
          "velocity": 0.2677165354330709
        },
        {
          "duration": 1.1538460000000015,
          "durationTicks": 384,
          "midi": 80,
          "name": "G#5",
          "ticks": 12768,
          "time": 38.3653795,
          "velocity": 0.5511811023622047
        },
        {
          "duration": 0.5769230000000007,
          "durationTicks": 192,
          "midi": 78,
          "name": "F#5",
          "ticks": 13152,
          "time": 39.519225500000005,
          "velocity": 0.7559055118110236
        },
        {
          "duration": 0.2884614999999968,
          "durationTicks": 96,
          "midi": 76,
          "name": "E5",
          "ticks": 13344,
          "time": 40.096148500000005,
          "velocity": 0.7559055118110236
        },
        {
          "duration": 0.5769230000000007,
          "durationTicks": 192,
          "midi": 75,
          "name": "D#5",
          "ticks": 13440,
          "time": 40.38461,
          "velocity": 0.7559055118110236
        },
        {
          "duration": 0.5769230000000007,
          "durationTicks": 192,
          "midi": 76,
          "name": "E5",
          "ticks": 13632,
          "time": 40.961533,
          "velocity": 0.7559055118110236
        },
        {
          "duration": 0.2884615000000039,
          "durationTicks": 96,
          "midi": 73,
          "name": "C#5",
          "ticks": 13824,
          "time": 41.538456000000004,
          "velocity": 0.7559055118110236
        },
        {
          "duration": 0.8653844999999976,
          "durationTicks": 288,
          "midi": 83,
          "name": "B5",
          "ticks": 13920,
          "time": 41.82691750000001,
          "velocity": 0.7559055118110236
        },
        {
          "duration": 1.4423074999999983,
          "durationTicks": 480,
          "midi": 80,
          "name": "G#5",
          "ticks": 14208,
          "time": 42.692302000000005,
          "velocity": 0.7559055118110236
        },
        {
          "duration": 0.5769230000000007,
          "durationTicks": 192,
          "midi": 78,
          "name": "F#5",
          "ticks": 14688,
          "time": 44.1346095,
          "velocity": 0.7559055118110236
        },
        {
          "duration": 0.2884615000000039,
          "durationTicks": 96,
          "midi": 76,
          "name": "E5",
          "ticks": 14880,
          "time": 44.711532500000004,
          "velocity": 0.7559055118110236
        },
        {
          "duration": 0.5769230000000007,
          "durationTicks": 192,
          "midi": 75,
          "name": "D#5",
          "ticks": 14976,
          "time": 44.99999400000001,
          "velocity": 0.7559055118110236
        },
        {
          "duration": 0.5769229999999936,
          "durationTicks": 192,
          "midi": 76,
          "name": "E5",
          "ticks": 15168,
          "time": 45.57691700000001,
          "velocity": 0.7559055118110236
        },
        {
          "duration": 0.5769229999999936,
          "durationTicks": 192,
          "midi": 85,
          "name": "C#6",
          "ticks": 21504,
          "time": 64.61537600000001,
          "velocity": 0.7559055118110236
        },
        {
          "duration": 0.8653845000000047,
          "durationTicks": 288,
          "midi": 80,
          "name": "G#5",
          "ticks": 21600,
          "time": 64.90383750000001,
          "velocity": 0.7559055118110236
        },
        {
          "duration": 0.5769230000000078,
          "durationTicks": 192,
          "midi": 85,
          "name": "C#6",
          "ticks": 21696,
          "time": 65.192299,
          "velocity": 0.7559055118110236
        },
        {
          "duration": 0.5769229999999936,
          "durationTicks": 192,
          "midi": 90,
          "name": "F#6",
          "ticks": 21888,
          "time": 65.76922200000001,
          "velocity": 0.7559055118110236
        },
        {
          "duration": 0.5769230000000078,
          "durationTicks": 192,
          "midi": 92,
          "name": "G#6",
          "ticks": 22080,
          "time": 66.346145,
          "velocity": 0.7559055118110236
        },
        {
          "duration": 0.5769229999999936,
          "durationTicks": 192,
          "midi": 85,
          "name": "C#6",
          "ticks": 22272,
          "time": 66.92306800000001,
          "velocity": 0.7559055118110236
        },
        {
          "duration": 0.8653844999999905,
          "durationTicks": 288,
          "midi": 80,
          "name": "G#5",
          "ticks": 22368,
          "time": 67.21152950000001,
          "velocity": 0.7559055118110236
        },
        {
          "duration": 0.5769229999999936,
          "durationTicks": 192,
          "midi": 85,
          "name": "C#6",
          "ticks": 22464,
          "time": 67.49999100000001,
          "velocity": 0.7559055118110236
        },
        {
          "duration": 0.5769230000000078,
          "durationTicks": 192,
          "midi": 90,
          "name": "F#6",
          "ticks": 22656,
          "time": 68.076914,
          "velocity": 0.7559055118110236
        },
        {
          "duration": 0.5769229999999936,
          "durationTicks": 192,
          "midi": 92,
          "name": "G#6",
          "ticks": 22848,
          "time": 68.65383700000001,
          "velocity": 0.7559055118110236
        },
        {
          "duration": 0.5769230000000078,
          "durationTicks": 192,
          "midi": 85,
          "name": "C#6",
          "ticks": 23040,
          "time": 69.23076,
          "velocity": 0.7559055118110236
        },
        {
          "duration": 0.8653844999999905,
          "durationTicks": 288,
          "midi": 80,
          "name": "G#5",
          "ticks": 23136,
          "time": 69.51922150000001,
          "velocity": 0.7559055118110236
        },
        {
          "duration": 0.5769229999999936,
          "durationTicks": 192,
          "midi": 85,
          "name": "C#6",
          "ticks": 23232,
          "time": 69.80768300000001,
          "velocity": 0.7559055118110236
        },
        {
          "duration": 0.5769230000000078,
          "durationTicks": 192,
          "midi": 90,
          "name": "F#6",
          "ticks": 23424,
          "time": 70.384606,
          "velocity": 0.7559055118110236
        },
        {
          "duration": 0.5769229999999936,
          "durationTicks": 192,
          "midi": 92,
          "name": "G#6",
          "ticks": 23616,
          "time": 70.96152900000001,
          "velocity": 0.7559055118110236
        },
        {
          "duration": 0.5769230000000078,
          "durationTicks": 192,
          "midi": 85,
          "name": "C#6",
          "ticks": 23808,
          "time": 71.538452,
          "velocity": 0.7559055118110236
        },
        {
          "duration": 0.8653845000000047,
          "durationTicks": 288,
          "midi": 80,
          "name": "G#5",
          "ticks": 23904,
          "time": 71.8269135,
          "velocity": 0.7559055118110236
        },
        {
          "duration": 0.5769229999999936,
          "durationTicks": 192,
          "midi": 85,
          "name": "C#6",
          "ticks": 24000,
          "time": 72.11537500000001,
          "velocity": 0.7559055118110236
        },
        {
          "duration": 0.5769230000000078,
          "durationTicks": 192,
          "midi": 90,
          "name": "F#6",
          "ticks": 24192,
          "time": 72.69229800000001,
          "velocity": 0.7559055118110236
        },
        {
          "duration": 0.5769229999999936,
          "durationTicks": 192,
          "midi": 92,
          "name": "G#6",
          "ticks": 24384,
          "time": 73.26922100000002,
          "velocity": 0.7559055118110236
        },
        {
          "duration": 0.5769229999999936,
          "durationTicks": 192,
          "midi": 85,
          "name": "C#6",
          "ticks": 24576,
          "time": 73.84614400000001,
          "velocity": 0.7559055118110236
        },
        {
          "duration": 0.8653845000000047,
          "durationTicks": 288,
          "midi": 80,
          "name": "G#5",
          "ticks": 24672,
          "time": 74.1346055,
          "velocity": 0.7559055118110236
        },
        {
          "duration": 0.5769230000000078,
          "durationTicks": 192,
          "midi": 85,
          "name": "C#6",
          "ticks": 24768,
          "time": 74.423067,
          "velocity": 0.7559055118110236
        },
        {
          "duration": 0.5769229999999936,
          "durationTicks": 192,
          "midi": 90,
          "name": "F#6",
          "ticks": 24960,
          "time": 74.99999000000001,
          "velocity": 0.7559055118110236
        },
        {
          "duration": 0.5769230000000078,
          "durationTicks": 192,
          "midi": 92,
          "name": "G#6",
          "ticks": 25152,
          "time": 75.576913,
          "velocity": 0.7559055118110236
        },
        {
          "duration": 0.5769229999999936,
          "durationTicks": 192,
          "midi": 85,
          "name": "C#6",
          "ticks": 25344,
          "time": 76.15383600000001,
          "velocity": 0.7559055118110236
        },
        {
          "duration": 0.8653845000000047,
          "durationTicks": 288,
          "midi": 80,
          "name": "G#5",
          "ticks": 25440,
          "time": 76.44229750000001,
          "velocity": 0.7559055118110236
        },
        {
          "duration": 0.5769230000000078,
          "durationTicks": 192,
          "midi": 85,
          "name": "C#6",
          "ticks": 25536,
          "time": 76.730759,
          "velocity": 0.7559055118110236
        },
        {
          "duration": 0.5769229999999936,
          "durationTicks": 192,
          "midi": 90,
          "name": "F#6",
          "ticks": 25728,
          "time": 77.30768200000001,
          "velocity": 0.7559055118110236
        },
        {
          "duration": 0.5769230000000078,
          "durationTicks": 192,
          "midi": 92,
          "name": "G#6",
          "ticks": 25920,
          "time": 77.88460500000001,
          "velocity": 0.7559055118110236
        },
        {
          "duration": 0.5769229999999936,
          "durationTicks": 192,
          "midi": 85,
          "name": "C#6",
          "ticks": 26112,
          "time": 78.46152800000002,
          "velocity": 0.7559055118110236
        },
        {
          "duration": 0.8653845000000047,
          "durationTicks": 288,
          "midi": 80,
          "name": "G#5",
          "ticks": 26208,
          "time": 78.74998950000001,
          "velocity": 0.7559055118110236
        },
        {
          "duration": 0.5769230000000078,
          "durationTicks": 192,
          "midi": 85,
          "name": "C#6",
          "ticks": 26304,
          "time": 79.03845100000001,
          "velocity": 0.7559055118110236
        },
        {
          "duration": 0.5769229999999936,
          "durationTicks": 192,
          "midi": 90,
          "name": "F#6",
          "ticks": 26496,
          "time": 79.61537400000002,
          "velocity": 0.7559055118110236
        },
        {
          "duration": 0.5769229999999936,
          "durationTicks": 192,
          "midi": 92,
          "name": "G#6",
          "ticks": 26688,
          "time": 80.19229700000001,
          "velocity": 0.7559055118110236
        },
        {
          "duration": 0.5769230000000078,
          "durationTicks": 192,
          "midi": 85,
          "name": "C#6",
          "ticks": 26880,
          "time": 80.76922,
          "velocity": 0.7559055118110236
        },
        {
          "duration": 0.8653844999999905,
          "durationTicks": 288,
          "midi": 80,
          "name": "G#5",
          "ticks": 26976,
          "time": 81.05768150000002,
          "velocity": 0.7559055118110236
        },
        {
          "duration": 0.5769229999999936,
          "durationTicks": 192,
          "midi": 85,
          "name": "C#6",
          "ticks": 27072,
          "time": 81.34614300000001,
          "velocity": 0.7559055118110236
        },
        {
          "duration": 0.5769230000000078,
          "durationTicks": 192,
          "midi": 90,
          "name": "F#6",
          "ticks": 27264,
          "time": 81.923066,
          "velocity": 0.7559055118110236
        },
        {
          "duration": 0.8653844999999905,
          "durationTicks": 288,
          "midi": 92,
          "name": "G#6",
          "ticks": 27456,
          "time": 82.49998900000001,
          "velocity": 0.7559055118110236
        },
        {
          "duration": 0.5769230000000078,
          "durationTicks": 192,
          "midi": 85,
          "name": "C#6",
          "ticks": 39936,
          "time": 119.99998400000001,
          "velocity": 0.7559055118110236
        },
        {
          "duration": 0.8653845000000047,
          "durationTicks": 288,
          "midi": 80,
          "name": "G#5",
          "ticks": 40032,
          "time": 120.28844550000001,
          "velocity": 0.7559055118110236
        },
        {
          "duration": 0.5769229999999936,
          "durationTicks": 192,
          "midi": 85,
          "name": "C#6",
          "ticks": 40128,
          "time": 120.57690700000002,
          "velocity": 0.7559055118110236
        },
        {
          "duration": 0.5769230000000078,
          "durationTicks": 192,
          "midi": 90,
          "name": "F#6",
          "ticks": 40320,
          "time": 121.15383000000001,
          "velocity": 0.7559055118110236
        },
        {
          "duration": 0.5769229999999936,
          "durationTicks": 192,
          "midi": 92,
          "name": "G#6",
          "ticks": 40512,
          "time": 121.73075300000002,
          "velocity": 0.7559055118110236
        },
        {
          "duration": 0.5769230000000078,
          "durationTicks": 192,
          "midi": 85,
          "name": "C#6",
          "ticks": 40704,
          "time": 122.30767600000001,
          "velocity": 0.7559055118110236
        },
        {
          "duration": 0.8653845000000047,
          "durationTicks": 288,
          "midi": 80,
          "name": "G#5",
          "ticks": 40800,
          "time": 122.59613750000001,
          "velocity": 0.7559055118110236
        },
        {
          "duration": 0.5769229999999936,
          "durationTicks": 192,
          "midi": 85,
          "name": "C#6",
          "ticks": 40896,
          "time": 122.88459900000002,
          "velocity": 0.7559055118110236
        },
        {
          "duration": 0.5769229999999936,
          "durationTicks": 192,
          "midi": 90,
          "name": "F#6",
          "ticks": 41088,
          "time": 123.46152200000002,
          "velocity": 0.7559055118110236
        },
        {
          "duration": 0.5769230000000078,
          "durationTicks": 192,
          "midi": 92,
          "name": "G#6",
          "ticks": 41280,
          "time": 124.03844500000001,
          "velocity": 0.7559055118110236
        },
        {
          "duration": 0.5769229999999936,
          "durationTicks": 192,
          "midi": 85,
          "name": "C#6",
          "ticks": 41472,
          "time": 124.61536800000002,
          "velocity": 0.7559055118110236
        },
        {
          "duration": 0.8653845000000047,
          "durationTicks": 288,
          "midi": 80,
          "name": "G#5",
          "ticks": 41568,
          "time": 124.90382950000001,
          "velocity": 0.7559055118110236
        },
        {
          "duration": 0.5769230000000078,
          "durationTicks": 192,
          "midi": 85,
          "name": "C#6",
          "ticks": 41664,
          "time": 125.19229100000001,
          "velocity": 0.7559055118110236
        },
        {
          "duration": 0.5769229999999936,
          "durationTicks": 192,
          "midi": 90,
          "name": "F#6",
          "ticks": 41856,
          "time": 125.76921400000002,
          "velocity": 0.7559055118110236
        },
        {
          "duration": 0.5769230000000078,
          "durationTicks": 192,
          "midi": 92,
          "name": "G#6",
          "ticks": 42048,
          "time": 126.34613700000001,
          "velocity": 0.7559055118110236
        },
        {
          "duration": 0.5769229999999936,
          "durationTicks": 192,
          "midi": 85,
          "name": "C#6",
          "ticks": 42240,
          "time": 126.92306000000002,
          "velocity": 0.7559055118110236
        },
        {
          "duration": 0.8653844999999905,
          "durationTicks": 288,
          "midi": 80,
          "name": "G#5",
          "ticks": 42336,
          "time": 127.21152150000002,
          "velocity": 0.7559055118110236
        },
        {
          "duration": 0.5769229999999936,
          "durationTicks": 192,
          "midi": 85,
          "name": "C#6",
          "ticks": 42432,
          "time": 127.49998300000001,
          "velocity": 0.7559055118110236
        },
        {
          "duration": 0.5769230000000221,
          "durationTicks": 192,
          "midi": 90,
          "name": "F#6",
          "ticks": 42624,
          "time": 128.076906,
          "velocity": 0.7559055118110236
        },
        {
          "duration": 0.5769229999999936,
          "durationTicks": 192,
          "midi": 92,
          "name": "G#6",
          "ticks": 42816,
          "time": 128.65382900000003,
          "velocity": 0.7559055118110236
        },
        {
          "duration": 0.5769229999999936,
          "durationTicks": 192,
          "midi": 85,
          "name": "C#6",
          "ticks": 43008,
          "time": 129.23075200000002,
          "velocity": 0.7559055118110236
        },
        {
          "duration": 0.8653845000000047,
          "durationTicks": 288,
          "midi": 80,
          "name": "G#5",
          "ticks": 43104,
          "time": 129.5192135,
          "velocity": 0.7559055118110236
        },
        {
          "duration": 0.5769229999999936,
          "durationTicks": 192,
          "midi": 85,
          "name": "C#6",
          "ticks": 43200,
          "time": 129.80767500000002,
          "velocity": 0.7559055118110236
        },
        {
          "duration": 0.5769229999999936,
          "durationTicks": 192,
          "midi": 90,
          "name": "F#6",
          "ticks": 43392,
          "time": 130.384598,
          "velocity": 0.7559055118110236
        },
        {
          "duration": 0.5769230000000221,
          "durationTicks": 192,
          "midi": 92,
          "name": "G#6",
          "ticks": 43584,
          "time": 130.961521,
          "velocity": 0.7559055118110236
        },
        {
          "duration": 0.5769229999999936,
          "durationTicks": 192,
          "midi": 85,
          "name": "C#6",
          "ticks": 43776,
          "time": 131.53844400000003,
          "velocity": 0.7559055118110236
        },
        {
          "duration": 0.8653845000000047,
          "durationTicks": 288,
          "midi": 80,
          "name": "G#5",
          "ticks": 43872,
          "time": 131.8269055,
          "velocity": 0.7559055118110236
        },
        {
          "duration": 0.5769229999999936,
          "durationTicks": 192,
          "midi": 85,
          "name": "C#6",
          "ticks": 43968,
          "time": 132.11536700000002,
          "velocity": 0.7559055118110236
        },
        {
          "duration": 0.5769229999999936,
          "durationTicks": 192,
          "midi": 90,
          "name": "F#6",
          "ticks": 44160,
          "time": 132.69229,
          "velocity": 0.7559055118110236
        },
        {
          "duration": 0.5769230000000221,
          "durationTicks": 192,
          "midi": 92,
          "name": "G#6",
          "ticks": 44352,
          "time": 133.269213,
          "velocity": 0.7559055118110236
        },
        {
          "duration": 0.5769229999999936,
          "durationTicks": 192,
          "midi": 85,
          "name": "C#6",
          "ticks": 44544,
          "time": 133.84613600000003,
          "velocity": 0.7559055118110236
        },
        {
          "duration": 0.8653845000000047,
          "durationTicks": 288,
          "midi": 80,
          "name": "G#5",
          "ticks": 44640,
          "time": 134.1345975,
          "velocity": 0.7559055118110236
        },
        {
          "duration": 0.5769229999999936,
          "durationTicks": 192,
          "midi": 85,
          "name": "C#6",
          "ticks": 44736,
          "time": 134.42305900000002,
          "velocity": 0.7559055118110236
        },
        {
          "duration": 0.5769229999999936,
          "durationTicks": 192,
          "midi": 90,
          "name": "F#6",
          "ticks": 44928,
          "time": 134.99998200000002,
          "velocity": 0.7559055118110236
        },
        {
          "duration": 0.5769229999999936,
          "durationTicks": 192,
          "midi": 92,
          "name": "G#6",
          "ticks": 45120,
          "time": 135.576905,
          "velocity": 0.7559055118110236
        },
        {
          "duration": 0.5769230000000221,
          "durationTicks": 192,
          "midi": 85,
          "name": "C#6",
          "ticks": 45312,
          "time": 136.153828,
          "velocity": 0.7559055118110236
        },
        {
          "duration": 0.8653845000000047,
          "durationTicks": 288,
          "midi": 80,
          "name": "G#5",
          "ticks": 45408,
          "time": 136.44228950000002,
          "velocity": 0.7559055118110236
        },
        {
          "duration": 0.5769229999999936,
          "durationTicks": 192,
          "midi": 85,
          "name": "C#6",
          "ticks": 45504,
          "time": 136.73075100000003,
          "velocity": 0.7559055118110236
        },
        {
          "duration": 0.5769229999999936,
          "durationTicks": 192,
          "midi": 90,
          "name": "F#6",
          "ticks": 45696,
          "time": 137.30767400000002,
          "velocity": 0.7559055118110236
        },
        {
          "duration": 0.5769229999999936,
          "durationTicks": 192,
          "midi": 92,
          "name": "G#6",
          "ticks": 45888,
          "time": 137.884597,
          "velocity": 0.7559055118110236
        },
        {
          "duration": 0.5769230000000221,
          "durationTicks": 192,
          "midi": 85,
          "name": "C#6",
          "ticks": 46080,
          "time": 138.46152,
          "velocity": 0.7559055118110236
        },
        {
          "duration": 0.8653845000000047,
          "durationTicks": 288,
          "midi": 80,
          "name": "G#5",
          "ticks": 46176,
          "time": 138.74998150000002,
          "velocity": 0.7559055118110236
        },
        {
          "duration": 0.5769229999999936,
          "durationTicks": 192,
          "midi": 85,
          "name": "C#6",
          "ticks": 46272,
          "time": 139.03844300000003,
          "velocity": 0.7559055118110236
        },
        {
          "duration": 0.5769229999999936,
          "durationTicks": 192,
          "midi": 90,
          "name": "F#6",
          "ticks": 46464,
          "time": 139.61536600000002,
          "velocity": 0.7559055118110236
        },
        {
          "duration": 0.8653845000000047,
          "durationTicks": 288,
          "midi": 92,
          "name": "G#6",
          "ticks": 46656,
          "time": 140.19228900000002,
          "velocity": 0.7559055118110236
        }
      ],
      "endOfTrackTicks": 47712
    },
    {
      "channel": 1,
      "controlChanges": {
        "10": [
          {
            "number": 10,
            "ticks": 0,
            "time": 0,
            "value": 0.5039370078740157
          }
        ]
      },
      "pitchBends": [],
      "instrument": {
        "family": "ensemble",
        "number": 48,
        "name": "string ensemble 1"
      },
      "name": "TabIt MIDI - Track 2",
      "notes": [
        {
          "duration": 7.788460499999999,
          "durationTicks": 2592,
          "midi": 80,
          "name": "G#5",
          "ticks": 3168,
          "time": 9.519229500000002,
          "velocity": 0.6299212598425197
        },
        {
          "duration": 7.788460499999999,
          "durationTicks": 2592,
          "midi": 85,
          "name": "C#6",
          "ticks": 3168,
          "time": 9.519229500000002,
          "velocity": 0.6299212598425197
        },
        {
          "duration": 0.28846150000000037,
          "durationTicks": 96,
          "midi": 80,
          "name": "G#5",
          "ticks": 5760,
          "time": 17.30769,
          "velocity": 0.4015748031496063
        },
        {
          "duration": 0.28846150000000037,
          "durationTicks": 96,
          "midi": 85,
          "name": "C#6",
          "ticks": 5760,
          "time": 17.30769,
          "velocity": 0.4015748031496063
        },
        {
          "duration": 0.28846150000000037,
          "durationTicks": 96,
          "midi": 80,
          "name": "G#5",
          "ticks": 5856,
          "time": 17.5961515,
          "velocity": 0.33070866141732286
        },
        {
          "duration": 0.28846150000000037,
          "durationTicks": 96,
          "midi": 85,
          "name": "C#6",
          "ticks": 5856,
          "time": 17.5961515,
          "velocity": 0.33070866141732286
        },
        {
          "duration": 0.28846150000000037,
          "durationTicks": 96,
          "midi": 80,
          "name": "G#5",
          "ticks": 5952,
          "time": 17.884613,
          "velocity": 0.13385826771653545
        },
        {
          "duration": 0.28846150000000037,
          "durationTicks": 96,
          "midi": 85,
          "name": "C#6",
          "ticks": 5952,
          "time": 17.884613,
          "velocity": 0.13385826771653545
        },
        {
          "duration": 2.8846149999999966,
          "durationTicks": 960,
          "midi": 92,
          "name": "G#6",
          "ticks": 35232,
          "time": 105.86537050000001,
          "velocity": 0.13385826771653545
        },
        {
          "duration": 2.307692000000003,
          "durationTicks": 768,
          "midi": 93,
          "name": "A6",
          "ticks": 36192,
          "time": 108.74998550000001,
          "velocity": 0.13385826771653545
        },
        {
          "duration": 2.307692000000003,
          "durationTicks": 768,
          "midi": 97,
          "name": "C#7",
          "ticks": 36960,
          "time": 111.05767750000001,
          "velocity": 0.13385826771653545
        },
        {
          "duration": 2.307692000000003,
          "durationTicks": 768,
          "midi": 93,
          "name": "A6",
          "ticks": 37728,
          "time": 113.36536950000001,
          "velocity": 0.13385826771653545
        },
        {
          "duration": 2.307692000000003,
          "durationTicks": 768,
          "midi": 103,
          "name": "G7",
          "ticks": 38496,
          "time": 115.67306150000002,
          "velocity": 0.13385826771653545
        },
        {
          "duration": 2.3076919999999888,
          "durationTicks": 768,
          "midi": 102,
          "name": "F#7",
          "ticks": 39264,
          "time": 117.98075350000002,
          "velocity": 0.13385826771653545
        }
      ],
      "endOfTrackTicks": 40800
    },
    {
      "channel": 2,
      "controlChanges": {
        "10": [
          {
            "number": 10,
            "ticks": 0,
            "time": 0,
            "value": 0.5039370078740157
          }
        ]
      },
      "pitchBends": [],
      "instrument": {
        "family": "world",
        "number": 108,
        "name": "kalimba"
      },
      "name": "TabIt MIDI - Track 3",
      "notes": [
        {
          "duration": 0.14423075000000002,
          "durationTicks": 48,
          "midi": 68,
          "name": "G#4",
          "ticks": 96,
          "time": 0.28846150000000004,
          "velocity": 0.31496062992125984
        },
        {
          "duration": 0.14423075000000002,
          "durationTicks": 48,
          "midi": 68,
          "name": "G#4",
          "ticks": 144,
          "time": 0.43269225000000006,
          "velocity": 0.31496062992125984
        },
        {
          "duration": 0.14423074999999996,
          "durationTicks": 48,
          "midi": 68,
          "name": "G#4",
          "ticks": 192,
          "time": 0.5769230000000001,
          "velocity": 0.31496062992125984
        },
        {
          "duration": 0.14423075000000007,
          "durationTicks": 48,
          "midi": 68,
          "name": "G#4",
          "ticks": 240,
          "time": 0.72115375,
          "velocity": 0.31496062992125984
        },
        {
          "duration": 0.14423075000000007,
          "durationTicks": 48,
          "midi": 68,
          "name": "G#4",
          "ticks": 288,
          "time": 0.8653845000000001,
          "velocity": 0.31496062992125984
        },
        {
          "duration": 0.14423074999999996,
          "durationTicks": 48,
          "midi": 68,
          "name": "G#4",
          "ticks": 336,
          "time": 1.0096152500000002,
          "velocity": 0.31496062992125984
        },
        {
          "duration": 0.14423074999999996,
          "durationTicks": 48,
          "midi": 68,
          "name": "G#4",
          "ticks": 384,
          "time": 1.1538460000000001,
          "velocity": 0.31496062992125984
        },
        {
          "duration": 0.14423074999999996,
          "durationTicks": 48,
          "midi": 68,
          "name": "G#4",
          "ticks": 432,
          "time": 1.2980767500000001,
          "velocity": 0.31496062992125984
        },
        {
          "duration": 0.14423075000000019,
          "durationTicks": 48,
          "midi": 68,
          "name": "G#4",
          "ticks": 480,
          "time": 1.4423075,
          "velocity": 0.31496062992125984
        },
        {
          "duration": 0.14423074999999996,
          "durationTicks": 48,
          "midi": 68,
          "name": "G#4",
          "ticks": 528,
          "time": 1.5865382500000003,
          "velocity": 0.31496062992125984
        },
        {
          "duration": 0.14423074999999996,
          "durationTicks": 48,
          "midi": 68,
          "name": "G#4",
          "ticks": 576,
          "time": 1.7307690000000002,
          "velocity": 0.31496062992125984
        },
        {
          "duration": 0.14423075000000019,
          "durationTicks": 48,
          "midi": 68,
          "name": "G#4",
          "ticks": 624,
          "time": 1.8749997500000002,
          "velocity": 0.31496062992125984
        },
        {
          "duration": 0.14423074999999974,
          "durationTicks": 48,
          "midi": 68,
          "name": "G#4",
          "ticks": 672,
          "time": 2.0192305000000004,
          "velocity": 0.31496062992125984
        },
        {
          "duration": 0.14423075000000019,
          "durationTicks": 48,
          "midi": 68,
          "name": "G#4",
          "ticks": 720,
          "time": 2.16346125,
          "velocity": 0.31496062992125984
        },
        {
          "duration": 0.14423075000000019,
          "durationTicks": 48,
          "midi": 68,
          "name": "G#4",
          "ticks": 768,
          "time": 2.3076920000000003,
          "velocity": 0.31496062992125984
        },
        {
          "duration": 0.14423074999999974,
          "durationTicks": 48,
          "midi": 68,
          "name": "G#4",
          "ticks": 816,
          "time": 2.4519227500000005,
          "velocity": 0.31496062992125984
        },
        {
          "duration": 0.14423075000000019,
          "durationTicks": 48,
          "midi": 68,
          "name": "G#4",
          "ticks": 864,
          "time": 2.5961535000000002,
          "velocity": 0.31496062992125984
        },
        {
          "duration": 0.14423074999999974,
          "durationTicks": 48,
          "midi": 68,
          "name": "G#4",
          "ticks": 912,
          "time": 2.7403842500000004,
          "velocity": 0.31496062992125984
        },
        {
          "duration": 0.14423075000000019,
          "durationTicks": 48,
          "midi": 68,
          "name": "G#4",
          "ticks": 960,
          "time": 2.884615,
          "velocity": 0.31496062992125984
        },
        {
          "duration": 0.14423075000000019,
          "durationTicks": 48,
          "midi": 68,
          "name": "G#4",
          "ticks": 1008,
          "time": 3.0288457500000003,
          "velocity": 0.31496062992125984
        },
        {
          "duration": 0.14423074999999974,
          "durationTicks": 48,
          "midi": 68,
          "name": "G#4",
          "ticks": 1056,
          "time": 3.1730765000000005,
          "velocity": 0.31496062992125984
        },
        {
          "duration": 0.14423075000000019,
          "durationTicks": 48,
          "midi": 68,
          "name": "G#4",
          "ticks": 1104,
          "time": 3.3173072500000003,
          "velocity": 0.31496062992125984
        },
        {
          "duration": 0.14423075000000019,
          "durationTicks": 48,
          "midi": 68,
          "name": "G#4",
          "ticks": 1152,
          "time": 3.4615380000000004,
          "velocity": 0.31496062992125984
        },
        {
          "duration": 0.14423074999999974,
          "durationTicks": 48,
          "midi": 68,
          "name": "G#4",
          "ticks": 1200,
          "time": 3.6057687500000006,
          "velocity": 0.31496062992125984
        },
        {
          "duration": 0.14423075000000019,
          "durationTicks": 48,
          "midi": 68,
          "name": "G#4",
          "ticks": 1248,
          "time": 3.7499995000000004,
          "velocity": 0.31496062992125984
        },
        {
          "duration": 0.14423075000000019,
          "durationTicks": 48,
          "midi": 68,
          "name": "G#4",
          "ticks": 1296,
          "time": 3.8942302500000006,
          "velocity": 0.31496062992125984
        },
        {
          "duration": 0.14423075000000019,
          "durationTicks": 48,
          "midi": 68,
          "name": "G#4",
          "ticks": 1344,
          "time": 4.038461000000001,
          "velocity": 0.31496062992125984
        },
        {
          "duration": 0.1442307499999993,
          "durationTicks": 48,
          "midi": 68,
          "name": "G#4",
          "ticks": 1392,
          "time": 4.182691750000001,
          "velocity": 0.31496062992125984
        },
        {
          "duration": 0.14423075000000019,
          "durationTicks": 48,
          "midi": 68,
          "name": "G#4",
          "ticks": 1440,
          "time": 4.3269225,
          "velocity": 0.31496062992125984
        },
        {
          "duration": 0.14423075000000019,
          "durationTicks": 48,
          "midi": 68,
          "name": "G#4",
          "ticks": 1488,
          "time": 4.47115325,
          "velocity": 0.31496062992125984
        },
        {
          "duration": 0.14423075000000019,
          "durationTicks": 48,
          "midi": 68,
          "name": "G#4",
          "ticks": 1536,
          "time": 4.615384000000001,
          "velocity": 0.31496062992125984
        },
        {
          "duration": 0.14423075000000019,
          "durationTicks": 48,
          "midi": 68,
          "name": "G#4",
          "ticks": 1584,
          "time": 4.759614750000001,
          "velocity": 0.31496062992125984
        },
        {
          "duration": 0.1442307499999993,
          "durationTicks": 48,
          "midi": 68,
          "name": "G#4",
          "ticks": 1632,
          "time": 4.903845500000001,
          "velocity": 0.31496062992125984
        },
        {
          "duration": 0.14423075000000019,
          "durationTicks": 48,
          "midi": 68,
          "name": "G#4",
          "ticks": 1680,
          "time": 5.04807625,
          "velocity": 0.31496062992125984
        },
        {
          "duration": 0.14423075000000019,
          "durationTicks": 48,
          "midi": 68,
          "name": "G#4",
          "ticks": 1728,
          "time": 5.1923070000000004,
          "velocity": 0.31496062992125984
        },
        {
          "duration": 0.14423075000000019,
          "durationTicks": 48,
          "midi": 68,
          "name": "G#4",
          "ticks": 1776,
          "time": 5.336537750000001,
          "velocity": 0.31496062992125984
        },
        {
          "duration": 0.14423075000000019,
          "durationTicks": 48,
          "midi": 68,
          "name": "G#4",
          "ticks": 1824,
          "time": 5.480768500000001,
          "velocity": 0.31496062992125984
        },
        {
          "duration": 0.1442307499999993,
          "durationTicks": 48,
          "midi": 68,
          "name": "G#4",
          "ticks": 1872,
          "time": 5.624999250000001,
          "velocity": 0.31496062992125984
        },
        {
          "duration": 0.14423075000000019,
          "durationTicks": 48,
          "midi": 68,
          "name": "G#4",
          "ticks": 1920,
          "time": 5.76923,
          "velocity": 0.31496062992125984
        },
        {
          "duration": 0.14423075000000019,
          "durationTicks": 48,
          "midi": 68,
          "name": "G#4",
          "ticks": 1968,
          "time": 5.9134607500000005,
          "velocity": 0.31496062992125984
        },
        {
          "duration": 0.14423075000000019,
          "durationTicks": 48,
          "midi": 68,
          "name": "G#4",
          "ticks": 2016,
          "time": 6.057691500000001,
          "velocity": 0.31496062992125984
        },
        {
          "duration": 0.14423075000000019,
          "durationTicks": 48,
          "midi": 68,
          "name": "G#4",
          "ticks": 2064,
          "time": 6.201922250000001,
          "velocity": 0.31496062992125984
        },
        {
          "duration": 0.14423075000000019,
          "durationTicks": 48,
          "midi": 68,
          "name": "G#4",
          "ticks": 2112,
          "time": 6.346153000000001,
          "velocity": 0.31496062992125984
        },
        {
          "duration": 0.1442307499999993,
          "durationTicks": 48,
          "midi": 68,
          "name": "G#4",
          "ticks": 2160,
          "time": 6.490383750000001,
          "velocity": 0.31496062992125984
        },
        {
          "duration": 0.14423075000000019,
          "durationTicks": 48,
          "midi": 68,
          "name": "G#4",
          "ticks": 2208,
          "time": 6.6346145000000005,
          "velocity": 0.31496062992125984
        },
        {
          "duration": 0.14423075000000019,
          "durationTicks": 48,
          "midi": 68,
          "name": "G#4",
          "ticks": 2256,
          "time": 6.778845250000001,
          "velocity": 0.31496062992125984
        },
        {
          "duration": 0.14423075000000019,
          "durationTicks": 48,
          "midi": 68,
          "name": "G#4",
          "ticks": 2304,
          "time": 6.923076000000001,
          "velocity": 0.31496062992125984
        },
        {
          "duration": 0.14423075000000019,
          "durationTicks": 48,
          "midi": 68,
          "name": "G#4",
          "ticks": 2352,
          "time": 7.067306750000001,
          "velocity": 0.31496062992125984
        },
        {
          "duration": 0.1442307499999993,
          "durationTicks": 48,
          "midi": 68,
          "name": "G#4",
          "ticks": 2400,
          "time": 7.211537500000001,
          "velocity": 0.31496062992125984
        },
        {
          "duration": 0.14423075000000019,
          "durationTicks": 48,
          "midi": 68,
          "name": "G#4",
          "ticks": 2448,
          "time": 7.355768250000001,
          "velocity": 0.31496062992125984
        },
        {
          "duration": 0.14423075000000019,
          "durationTicks": 48,
          "midi": 68,
          "name": "G#4",
          "ticks": 2496,
          "time": 7.499999000000001,
          "velocity": 0.31496062992125984
        },
        {
          "duration": 0.14423075000000019,
          "durationTicks": 48,
          "midi": 68,
          "name": "G#4",
          "ticks": 2544,
          "time": 7.644229750000001,
          "velocity": 0.31496062992125984
        },
        {
          "duration": 0.14423075000000019,
          "durationTicks": 48,
          "midi": 68,
          "name": "G#4",
          "ticks": 2592,
          "time": 7.788460500000001,
          "velocity": 0.31496062992125984
        },
        {
          "duration": 0.14423075000000019,
          "durationTicks": 48,
          "midi": 68,
          "name": "G#4",
          "ticks": 2640,
          "time": 7.932691250000001,
          "velocity": 0.31496062992125984
        },
        {
          "duration": 0.14423075000000019,
          "durationTicks": 48,
          "midi": 68,
          "name": "G#4",
          "ticks": 2688,
          "time": 8.076922000000001,
          "velocity": 0.31496062992125984
        },
        {
          "duration": 0.14423075000000019,
          "durationTicks": 48,
          "midi": 68,
          "name": "G#4",
          "ticks": 2736,
          "time": 8.221152750000002,
          "velocity": 0.31496062992125984
        },
        {
          "duration": 0.1442307499999984,
          "durationTicks": 48,
          "midi": 68,
          "name": "G#4",
          "ticks": 2784,
          "time": 8.365383500000002,
          "velocity": 0.31496062992125984
        },
        {
          "duration": 0.14423075000000019,
          "durationTicks": 48,
          "midi": 68,
          "name": "G#4",
          "ticks": 2832,
          "time": 8.50961425,
          "velocity": 0.31496062992125984
        },
        {
          "duration": 0.14423075000000019,
          "durationTicks": 48,
          "midi": 68,
          "name": "G#4",
          "ticks": 2880,
          "time": 8.653845,
          "velocity": 0.31496062992125984
        },
        {
          "duration": 0.14423075000000019,
          "durationTicks": 48,
          "midi": 68,
          "name": "G#4",
          "ticks": 2928,
          "time": 8.79807575,
          "velocity": 0.31496062992125984
        },
        {
          "duration": 0.14423075000000019,
          "durationTicks": 48,
          "midi": 68,
          "name": "G#4",
          "ticks": 2976,
          "time": 8.9423065,
          "velocity": 0.31496062992125984
        },
        {
          "duration": 0.14423075000000019,
          "durationTicks": 48,
          "midi": 68,
          "name": "G#4",
          "ticks": 3024,
          "time": 9.086537250000001,
          "velocity": 0.31496062992125984
        },
        {
          "duration": 0.14423075000000019,
          "durationTicks": 48,
          "midi": 68,
          "name": "G#4",
          "ticks": 3072,
          "time": 9.230768000000001,
          "velocity": 0.31496062992125984
        },
        {
          "duration": 0.14423075000000019,
          "durationTicks": 48,
          "midi": 68,
          "name": "G#4",
          "ticks": 3120,
          "time": 9.374998750000001,
          "velocity": 0.31496062992125984
        },
        {
          "duration": 0.14423075000000019,
          "durationTicks": 48,
          "midi": 68,
          "name": "G#4",
          "ticks": 3168,
          "time": 9.519229500000002,
          "velocity": 0.31496062992125984
        },
        {
          "duration": 0.14423075000000019,
          "durationTicks": 48,
          "midi": 68,
          "name": "G#4",
          "ticks": 3216,
          "time": 9.663460250000002,
          "velocity": 0.31496062992125984
        },
        {
          "duration": 0.14423075000000019,
          "durationTicks": 48,
          "midi": 68,
          "name": "G#4",
          "ticks": 3264,
          "time": 9.807691000000002,
          "velocity": 0.31496062992125984
        },
        {
          "duration": 0.1442307499999984,
          "durationTicks": 48,
          "midi": 68,
          "name": "G#4",
          "ticks": 3312,
          "time": 9.951921750000002,
          "velocity": 0.31496062992125984
        },
        {
          "duration": 0.14423075000000019,
          "durationTicks": 48,
          "midi": 68,
          "name": "G#4",
          "ticks": 3360,
          "time": 10.0961525,
          "velocity": 0.31496062992125984
        },
        {
          "duration": 0.14423075000000019,
          "durationTicks": 48,
          "midi": 68,
          "name": "G#4",
          "ticks": 3408,
          "time": 10.24038325,
          "velocity": 0.31496062992125984
        },
        {
          "duration": 0.14423075000000019,
          "durationTicks": 48,
          "midi": 68,
          "name": "G#4",
          "ticks": 3456,
          "time": 10.384614000000001,
          "velocity": 0.31496062992125984
        },
        {
          "duration": 0.14423075000000019,
          "durationTicks": 48,
          "midi": 68,
          "name": "G#4",
          "ticks": 3504,
          "time": 10.528844750000001,
          "velocity": 0.31496062992125984
        },
        {
          "duration": 0.14423075000000019,
          "durationTicks": 48,
          "midi": 68,
          "name": "G#4",
          "ticks": 3552,
          "time": 10.673075500000001,
          "velocity": 0.31496062992125984
        },
        {
          "duration": 0.14423075000000019,
          "durationTicks": 48,
          "midi": 68,
          "name": "G#4",
          "ticks": 3600,
          "time": 10.817306250000001,
          "velocity": 0.31496062992125984
        },
        {
          "duration": 0.14423075000000019,
          "durationTicks": 48,
          "midi": 68,
          "name": "G#4",
          "ticks": 3648,
          "time": 10.961537000000002,
          "velocity": 0.31496062992125984
        },
        {
          "duration": 0.14423075000000019,
          "durationTicks": 48,
          "midi": 68,
          "name": "G#4",
          "ticks": 3696,
          "time": 11.105767750000002,
          "velocity": 0.31496062992125984
        },
        {
          "duration": 0.14423075000000019,
          "durationTicks": 48,
          "midi": 68,
          "name": "G#4",
          "ticks": 3744,
          "time": 11.249998500000002,
          "velocity": 0.31496062992125984
        },
        {
          "duration": 0.1442307499999984,
          "durationTicks": 48,
          "midi": 68,
          "name": "G#4",
          "ticks": 3792,
          "time": 11.394229250000002,
          "velocity": 0.31496062992125984
        },
        {
          "duration": 0.14423075000000019,
          "durationTicks": 48,
          "midi": 68,
          "name": "G#4",
          "ticks": 3840,
          "time": 11.53846,
          "velocity": 0.31496062992125984
        },
        {
          "duration": 0.14423075000000019,
          "durationTicks": 48,
          "midi": 68,
          "name": "G#4",
          "ticks": 3888,
          "time": 11.68269075,
          "velocity": 0.31496062992125984
        },
        {
          "duration": 0.14423075000000019,
          "durationTicks": 48,
          "midi": 68,
          "name": "G#4",
          "ticks": 3936,
          "time": 11.826921500000001,
          "velocity": 0.31496062992125984
        },
        {
          "duration": 0.14423075000000019,
          "durationTicks": 48,
          "midi": 68,
          "name": "G#4",
          "ticks": 3984,
          "time": 11.971152250000001,
          "velocity": 0.31496062992125984
        },
        {
          "duration": 0.14423075000000019,
          "durationTicks": 48,
          "midi": 68,
          "name": "G#4",
          "ticks": 4032,
          "time": 12.115383000000001,
          "velocity": 0.31496062992125984
        },
        {
          "duration": 0.14423075000000019,
          "durationTicks": 48,
          "midi": 68,
          "name": "G#4",
          "ticks": 4080,
          "time": 12.259613750000002,
          "velocity": 0.31496062992125984
        },
        {
          "duration": 0.14423075000000019,
          "durationTicks": 48,
          "midi": 68,
          "name": "G#4",
          "ticks": 4128,
          "time": 12.403844500000002,
          "velocity": 0.31496062992125984
        },
        {
          "duration": 0.14423075000000019,
          "durationTicks": 48,
          "midi": 68,
          "name": "G#4",
          "ticks": 4176,
          "time": 12.548075250000002,
          "velocity": 0.31496062992125984
        },
        {
          "duration": 0.14423075000000019,
          "durationTicks": 48,
          "midi": 68,
          "name": "G#4",
          "ticks": 4224,
          "time": 12.692306000000002,
          "velocity": 0.31496062992125984
        },
        {
          "duration": 0.14423075000000019,
          "durationTicks": 48,
          "midi": 68,
          "name": "G#4",
          "ticks": 4272,
          "time": 12.836536750000002,
          "velocity": 0.31496062992125984
        },
        {
          "duration": 0.1442307499999984,
          "durationTicks": 48,
          "midi": 68,
          "name": "G#4",
          "ticks": 4320,
          "time": 12.980767500000002,
          "velocity": 0.31496062992125984
        },
        {
          "duration": 0.14423075000000019,
          "durationTicks": 48,
          "midi": 68,
          "name": "G#4",
          "ticks": 4368,
          "time": 13.12499825,
          "velocity": 0.31496062992125984
        },
        {
          "duration": 0.14423075000000019,
          "durationTicks": 48,
          "midi": 68,
          "name": "G#4",
          "ticks": 4416,
          "time": 13.269229000000001,
          "velocity": 0.31496062992125984
        },
        {
          "duration": 0.14423075000000019,
          "durationTicks": 48,
          "midi": 68,
          "name": "G#4",
          "ticks": 4464,
          "time": 13.413459750000001,
          "velocity": 0.31496062992125984
        },
        {
          "duration": 0.14423075000000019,
          "durationTicks": 48,
          "midi": 68,
          "name": "G#4",
          "ticks": 4512,
          "time": 13.557690500000001,
          "velocity": 0.31496062992125984
        },
        {
          "duration": 0.14423075000000019,
          "durationTicks": 48,
          "midi": 68,
          "name": "G#4",
          "ticks": 4560,
          "time": 13.701921250000002,
          "velocity": 0.31496062992125984
        },
        {
          "duration": 0.14423075000000019,
          "durationTicks": 48,
          "midi": 68,
          "name": "G#4",
          "ticks": 4608,
          "time": 13.846152000000002,
          "velocity": 0.31496062992125984
        },
        {
          "duration": 0.14423075000000019,
          "durationTicks": 48,
          "midi": 68,
          "name": "G#4",
          "ticks": 4656,
          "time": 13.990382750000002,
          "velocity": 0.31496062992125984
        },
        {
          "duration": 0.14423075000000019,
          "durationTicks": 48,
          "midi": 68,
          "name": "G#4",
          "ticks": 4704,
          "time": 14.134613500000002,
          "velocity": 0.31496062992125984
        },
        {
          "duration": 0.14423075000000019,
          "durationTicks": 48,
          "midi": 68,
          "name": "G#4",
          "ticks": 4752,
          "time": 14.278844250000002,
          "velocity": 0.31496062992125984
        },
        {
          "duration": 0.14423075000000019,
          "durationTicks": 48,
          "midi": 68,
          "name": "G#4",
          "ticks": 4800,
          "time": 14.423075000000003,
          "velocity": 0.31496062992125984
        },
        {
          "duration": 0.1442307499999984,
          "durationTicks": 48,
          "midi": 68,
          "name": "G#4",
          "ticks": 4848,
          "time": 14.567305750000003,
          "velocity": 0.31496062992125984
        },
        {
          "duration": 0.14423075000000019,
          "durationTicks": 48,
          "midi": 68,
          "name": "G#4",
          "ticks": 4896,
          "time": 14.711536500000001,
          "velocity": 0.31496062992125984
        },
        {
          "duration": 0.14423075000000019,
          "durationTicks": 48,
          "midi": 68,
          "name": "G#4",
          "ticks": 4944,
          "time": 14.855767250000001,
          "velocity": 0.31496062992125984
        },
        {
          "duration": 0.14423075000000019,
          "durationTicks": 48,
          "midi": 68,
          "name": "G#4",
          "ticks": 4992,
          "time": 14.999998000000001,
          "velocity": 0.31496062992125984
        },
        {
          "duration": 0.14423075000000019,
          "durationTicks": 48,
          "midi": 68,
          "name": "G#4",
          "ticks": 5040,
          "time": 15.144228750000002,
          "velocity": 0.31496062992125984
        },
        {
          "duration": 0.14423075000000019,
          "durationTicks": 48,
          "midi": 68,
          "name": "G#4",
          "ticks": 5088,
          "time": 15.288459500000002,
          "velocity": 0.31496062992125984
        },
        {
          "duration": 0.14423075000000019,
          "durationTicks": 48,
          "midi": 68,
          "name": "G#4",
          "ticks": 5136,
          "time": 15.432690250000002,
          "velocity": 0.31496062992125984
        },
        {
          "duration": 0.14423075000000019,
          "durationTicks": 48,
          "midi": 68,
          "name": "G#4",
          "ticks": 5184,
          "time": 15.576921000000002,
          "velocity": 0.31496062992125984
        },
        {
          "duration": 0.14423075000000019,
          "durationTicks": 48,
          "midi": 68,
          "name": "G#4",
          "ticks": 5232,
          "time": 15.721151750000002,
          "velocity": 0.31496062992125984
        },
        {
          "duration": 0.1442307499999984,
          "durationTicks": 48,
          "midi": 68,
          "name": "G#4",
          "ticks": 5280,
          "time": 15.865382500000003,
          "velocity": 0.31496062992125984
        },
        {
          "duration": 0.14423075000000196,
          "durationTicks": 48,
          "midi": 68,
          "name": "G#4",
          "ticks": 5328,
          "time": 16.00961325,
          "velocity": 0.31496062992125984
        },
        {
          "duration": 0.1442307499999984,
          "durationTicks": 48,
          "midi": 68,
          "name": "G#4",
          "ticks": 5376,
          "time": 16.153844000000003,
          "velocity": 0.31496062992125984
        },
        {
          "duration": 0.14423075000000196,
          "durationTicks": 48,
          "midi": 68,
          "name": "G#4",
          "ticks": 5424,
          "time": 16.29807475,
          "velocity": 0.31496062992125984
        },
        {
          "duration": 0.1442307499999984,
          "durationTicks": 48,
          "midi": 68,
          "name": "G#4",
          "ticks": 5472,
          "time": 16.442305500000003,
          "velocity": 0.31496062992125984
        },
        {
          "duration": 0.14423075000000196,
          "durationTicks": 48,
          "midi": 68,
          "name": "G#4",
          "ticks": 5520,
          "time": 16.58653625,
          "velocity": 0.31496062992125984
        },
        {
          "duration": 0.1442307499999984,
          "durationTicks": 48,
          "midi": 68,
          "name": "G#4",
          "ticks": 5568,
          "time": 16.730767000000004,
          "velocity": 0.31496062992125984
        },
        {
          "duration": 0.1442307499999984,
          "durationTicks": 48,
          "midi": 68,
          "name": "G#4",
          "ticks": 5616,
          "time": 16.874997750000002,
          "velocity": 0.31496062992125984
        },
        {
          "duration": 0.14423075000000196,
          "durationTicks": 48,
          "midi": 68,
          "name": "G#4",
          "ticks": 5664,
          "time": 17.0192285,
          "velocity": 0.31496062992125984
        },
        {
          "duration": 0.1442307499999984,
          "durationTicks": 48,
          "midi": 68,
          "name": "G#4",
          "ticks": 5712,
          "time": 17.163459250000002,
          "velocity": 0.31496062992125984
        },
        {
          "duration": 0.14423075000000196,
          "durationTicks": 48,
          "midi": 68,
          "name": "G#4",
          "ticks": 5760,
          "time": 17.30769,
          "velocity": 0.31496062992125984
        },
        {
          "duration": 0.1442307499999984,
          "durationTicks": 48,
          "midi": 68,
          "name": "G#4",
          "ticks": 5808,
          "time": 17.451920750000003,
          "velocity": 0.31496062992125984
        },
        {
          "duration": 0.14423075000000196,
          "durationTicks": 48,
          "midi": 68,
          "name": "G#4",
          "ticks": 5856,
          "time": 17.5961515,
          "velocity": 0.31496062992125984
        },
        {
          "duration": 0.1442307499999984,
          "durationTicks": 48,
          "midi": 68,
          "name": "G#4",
          "ticks": 5904,
          "time": 17.740382250000003,
          "velocity": 0.31496062992125984
        },
        {
          "duration": 0.14423075000000196,
          "durationTicks": 48,
          "midi": 68,
          "name": "G#4",
          "ticks": 5952,
          "time": 17.884613,
          "velocity": 0.31496062992125984
        },
        {
          "duration": 0.1442307499999984,
          "durationTicks": 48,
          "midi": 68,
          "name": "G#4",
          "ticks": 6000,
          "time": 18.028843750000004,
          "velocity": 0.31496062992125984
        },
        {
          "duration": 0.14423075000000196,
          "durationTicks": 48,
          "midi": 68,
          "name": "G#4",
          "ticks": 6048,
          "time": 18.173074500000002,
          "velocity": 0.31496062992125984
        },
        {
          "duration": 0.1442307499999984,
          "durationTicks": 48,
          "midi": 68,
          "name": "G#4",
          "ticks": 6096,
          "time": 18.317305250000004,
          "velocity": 0.31496062992125984
        },
        {
          "duration": 0.1442307499999984,
          "durationTicks": 48,
          "midi": 68,
          "name": "G#4",
          "ticks": 6144,
          "time": 18.461536000000002,
          "velocity": 0.31496062992125984
        },
        {
          "duration": 0.14423075000000196,
          "durationTicks": 48,
          "midi": 68,
          "name": "G#4",
          "ticks": 6192,
          "time": 18.60576675,
          "velocity": 0.31496062992125984
        },
        {
          "duration": 0.1442307499999984,
          "durationTicks": 48,
          "midi": 68,
          "name": "G#4",
          "ticks": 15456,
          "time": 46.442301500000006,
          "velocity": 0.31496062992125984
        },
        {
          "duration": 0.1442307499999984,
          "durationTicks": 48,
          "midi": 68,
          "name": "G#4",
          "ticks": 15504,
          "time": 46.586532250000005,
          "velocity": 0.31496062992125984
        },
        {
          "duration": 0.14423075000000551,
          "durationTicks": 48,
          "midi": 68,
          "name": "G#4",
          "ticks": 15552,
          "time": 46.730763,
          "velocity": 0.31496062992125984
        },
        {
          "duration": 0.1442307499999984,
          "durationTicks": 48,
          "midi": 68,
          "name": "G#4",
          "ticks": 15600,
          "time": 46.87499375000001,
          "velocity": 0.31496062992125984
        },
        {
          "duration": 0.1442307499999984,
          "durationTicks": 48,
          "midi": 68,
          "name": "G#4",
          "ticks": 15648,
          "time": 47.01922450000001,
          "velocity": 0.31496062992125984
        },
        {
          "duration": 0.1442307499999984,
          "durationTicks": 48,
          "midi": 68,
          "name": "G#4",
          "ticks": 15696,
          "time": 47.163455250000005,
          "velocity": 0.31496062992125984
        },
        {
          "duration": 0.14423075000000551,
          "durationTicks": 48,
          "midi": 68,
          "name": "G#4",
          "ticks": 15744,
          "time": 47.307686000000004,
          "velocity": 0.31496062992125984
        },
        {
          "duration": 0.1442307499999984,
          "durationTicks": 48,
          "midi": 68,
          "name": "G#4",
          "ticks": 15792,
          "time": 47.45191675000001,
          "velocity": 0.31496062992125984
        },
        {
          "duration": 0.1442307499999984,
          "durationTicks": 48,
          "midi": 68,
          "name": "G#4",
          "ticks": 15840,
          "time": 47.59614750000001,
          "velocity": 0.31496062992125984
        },
        {
          "duration": 0.1442307499999984,
          "durationTicks": 48,
          "midi": 68,
          "name": "G#4",
          "ticks": 15888,
          "time": 47.740378250000006,
          "velocity": 0.31496062992125984
        },
        {
          "duration": 0.1442307499999984,
          "durationTicks": 48,
          "midi": 68,
          "name": "G#4",
          "ticks": 15936,
          "time": 47.884609000000005,
          "velocity": 0.31496062992125984
        },
        {
          "duration": 0.14423075000000551,
          "durationTicks": 48,
          "midi": 68,
          "name": "G#4",
          "ticks": 15984,
          "time": 48.02883975,
          "velocity": 0.31496062992125984
        },
        {
          "duration": 0.1442307499999984,
          "durationTicks": 48,
          "midi": 68,
          "name": "G#4",
          "ticks": 16032,
          "time": 48.17307050000001,
          "velocity": 0.31496062992125984
        },
        {
          "duration": 0.1442307499999984,
          "durationTicks": 48,
          "midi": 68,
          "name": "G#4",
          "ticks": 16080,
          "time": 48.31730125000001,
          "velocity": 0.31496062992125984
        },
        {
          "duration": 0.1442307499999984,
          "durationTicks": 48,
          "midi": 68,
          "name": "G#4",
          "ticks": 16128,
          "time": 48.461532000000005,
          "velocity": 0.31496062992125984
        },
        {
          "duration": 0.14423075000000551,
          "durationTicks": 48,
          "midi": 68,
          "name": "G#4",
          "ticks": 16176,
          "time": 48.605762750000004,
          "velocity": 0.31496062992125984
        },
        {
          "duration": 0.1442307499999984,
          "durationTicks": 48,
          "midi": 68,
          "name": "G#4",
          "ticks": 16224,
          "time": 48.74999350000001,
          "velocity": 0.31496062992125984
        },
        {
          "duration": 0.1442307499999984,
          "durationTicks": 48,
          "midi": 68,
          "name": "G#4",
          "ticks": 16272,
          "time": 48.89422425000001,
          "velocity": 0.31496062992125984
        },
        {
          "duration": 0.1442307499999984,
          "durationTicks": 48,
          "midi": 68,
          "name": "G#4",
          "ticks": 16320,
          "time": 49.038455000000006,
          "velocity": 0.31496062992125984
        },
        {
          "duration": 0.1442307499999984,
          "durationTicks": 48,
          "midi": 68,
          "name": "G#4",
          "ticks": 16368,
          "time": 49.182685750000005,
          "velocity": 0.31496062992125984
        },
        {
          "duration": 0.14423075000000551,
          "durationTicks": 48,
          "midi": 68,
          "name": "G#4",
          "ticks": 16416,
          "time": 49.3269165,
          "velocity": 0.31496062992125984
        },
        {
          "duration": 0.1442307499999984,
          "durationTicks": 48,
          "midi": 68,
          "name": "G#4",
          "ticks": 16464,
          "time": 49.47114725000001,
          "velocity": 0.31496062992125984
        },
        {
          "duration": 0.1442307499999984,
          "durationTicks": 48,
          "midi": 68,
          "name": "G#4",
          "ticks": 16512,
          "time": 49.61537800000001,
          "velocity": 0.31496062992125984
        },
        {
          "duration": 0.1442307499999984,
          "durationTicks": 48,
          "midi": 68,
          "name": "G#4",
          "ticks": 16560,
          "time": 49.759608750000005,
          "velocity": 0.31496062992125984
        },
        {
          "duration": 0.14423075000000551,
          "durationTicks": 48,
          "midi": 68,
          "name": "G#4",
          "ticks": 16608,
          "time": 49.903839500000004,
          "velocity": 0.31496062992125984
        },
        {
          "duration": 0.1442307499999984,
          "durationTicks": 48,
          "midi": 68,
          "name": "G#4",
          "ticks": 16656,
          "time": 50.04807025000001,
          "velocity": 0.31496062992125984
        },
        {
          "duration": 0.1442307499999984,
          "durationTicks": 48,
          "midi": 68,
          "name": "G#4",
          "ticks": 16704,
          "time": 50.19230100000001,
          "velocity": 0.31496062992125984
        },
        {
          "duration": 0.1442307499999984,
          "durationTicks": 48,
          "midi": 68,
          "name": "G#4",
          "ticks": 16752,
          "time": 50.336531750000006,
          "velocity": 0.31496062992125984
        },
        {
          "duration": 0.14423075000000551,
          "durationTicks": 48,
          "midi": 68,
          "name": "G#4",
          "ticks": 16800,
          "time": 50.480762500000004,
          "velocity": 0.31496062992125984
        },
        {
          "duration": 0.1442307499999984,
          "durationTicks": 48,
          "midi": 68,
          "name": "G#4",
          "ticks": 16848,
          "time": 50.62499325000001,
          "velocity": 0.31496062992125984
        },
        {
          "duration": 0.1442307499999984,
          "durationTicks": 48,
          "midi": 68,
          "name": "G#4",
          "ticks": 16896,
          "time": 50.76922400000001,
          "velocity": 0.31496062992125984
        },
        {
          "duration": 0.1442307499999984,
          "durationTicks": 48,
          "midi": 68,
          "name": "G#4",
          "ticks": 16944,
          "time": 50.91345475000001,
          "velocity": 0.31496062992125984
        },
        {
          "duration": 0.1442307499999984,
          "durationTicks": 48,
          "midi": 68,
          "name": "G#4",
          "ticks": 16992,
          "time": 51.057685500000005,
          "velocity": 0.31496062992125984
        },
        {
          "duration": 0.14423075000000551,
          "durationTicks": 48,
          "midi": 68,
          "name": "G#4",
          "ticks": 17040,
          "time": 51.201916250000004,
          "velocity": 0.31496062992125984
        },
        {
          "duration": 0.1442307499999984,
          "durationTicks": 48,
          "midi": 68,
          "name": "G#4",
          "ticks": 17088,
          "time": 51.34614700000001,
          "velocity": 0.31496062992125984
        },
        {
          "duration": 0.1442307499999984,
          "durationTicks": 48,
          "midi": 68,
          "name": "G#4",
          "ticks": 17136,
          "time": 51.49037775000001,
          "velocity": 0.31496062992125984
        },
        {
          "duration": 0.1442307499999984,
          "durationTicks": 48,
          "midi": 68,
          "name": "G#4",
          "ticks": 17184,
          "time": 51.634608500000006,
          "velocity": 0.31496062992125984
        },
        {
          "duration": 0.14423075000000551,
          "durationTicks": 48,
          "midi": 68,
          "name": "G#4",
          "ticks": 17232,
          "time": 51.778839250000004,
          "velocity": 0.31496062992125984
        },
        {
          "duration": 0.1442307499999984,
          "durationTicks": 48,
          "midi": 68,
          "name": "G#4",
          "ticks": 17280,
          "time": 51.92307000000001,
          "velocity": 0.31496062992125984
        },
        {
          "duration": 0.1442307499999984,
          "durationTicks": 48,
          "midi": 68,
          "name": "G#4",
          "ticks": 17328,
          "time": 52.06730075000001,
          "velocity": 0.31496062992125984
        },
        {
          "duration": 0.1442307499999984,
          "durationTicks": 48,
          "midi": 68,
          "name": "G#4",
          "ticks": 17376,
          "time": 52.21153150000001,
          "velocity": 0.31496062992125984
        },
        {
          "duration": 0.1442307499999984,
          "durationTicks": 48,
          "midi": 68,
          "name": "G#4",
          "ticks": 17424,
          "time": 52.355762250000005,
          "velocity": 0.31496062992125984
        },
        {
          "duration": 0.14423075000000551,
          "durationTicks": 48,
          "midi": 68,
          "name": "G#4",
          "ticks": 17472,
          "time": 52.499993,
          "velocity": 0.31496062992125984
        },
        {
          "duration": 0.1442307499999984,
          "durationTicks": 48,
          "midi": 68,
          "name": "G#4",
          "ticks": 17520,
          "time": 52.64422375000001,
          "velocity": 0.31496062992125984
        },
        {
          "duration": 0.1442307499999984,
          "durationTicks": 48,
          "midi": 68,
          "name": "G#4",
          "ticks": 17568,
          "time": 52.78845450000001,
          "velocity": 0.31496062992125984
        },
        {
          "duration": 0.1442307499999984,
          "durationTicks": 48,
          "midi": 68,
          "name": "G#4",
          "ticks": 17616,
          "time": 52.932685250000006,
          "velocity": 0.31496062992125984
        },
        {
          "duration": 0.14423075000000551,
          "durationTicks": 48,
          "midi": 68,
          "name": "G#4",
          "ticks": 17664,
          "time": 53.076916000000004,
          "velocity": 0.31496062992125984
        },
        {
          "duration": 0.1442307499999984,
          "durationTicks": 48,
          "midi": 68,
          "name": "G#4",
          "ticks": 17712,
          "time": 53.22114675000001,
          "velocity": 0.31496062992125984
        },
        {
          "duration": 0.1442307499999984,
          "durationTicks": 48,
          "midi": 68,
          "name": "G#4",
          "ticks": 17760,
          "time": 53.36537750000001,
          "velocity": 0.31496062992125984
        },
        {
          "duration": 0.1442307499999984,
          "durationTicks": 48,
          "midi": 68,
          "name": "G#4",
          "ticks": 17808,
          "time": 53.50960825000001,
          "velocity": 0.31496062992125984
        },
        {
          "duration": 0.14423075000000551,
          "durationTicks": 48,
          "midi": 68,
          "name": "G#4",
          "ticks": 17856,
          "time": 53.653839000000005,
          "velocity": 0.31496062992125984
        },
        {
          "duration": 0.1442307499999984,
          "durationTicks": 48,
          "midi": 68,
          "name": "G#4",
          "ticks": 17904,
          "time": 53.79806975000001,
          "velocity": 0.31496062992125984
        },
        {
          "duration": 0.1442307499999984,
          "durationTicks": 48,
          "midi": 68,
          "name": "G#4",
          "ticks": 17952,
          "time": 53.94230050000001,
          "velocity": 0.31496062992125984
        },
        {
          "duration": 0.1442307499999984,
          "durationTicks": 48,
          "midi": 68,
          "name": "G#4",
          "ticks": 18000,
          "time": 54.08653125000001,
          "velocity": 0.31496062992125984
        },
        {
          "duration": 0.1442307499999984,
          "durationTicks": 48,
          "midi": 68,
          "name": "G#4",
          "ticks": 18048,
          "time": 54.230762000000006,
          "velocity": 0.31496062992125984
        },
        {
          "duration": 0.14423075000000551,
          "durationTicks": 48,
          "midi": 68,
          "name": "G#4",
          "ticks": 18096,
          "time": 54.374992750000004,
          "velocity": 0.31496062992125984
        },
        {
          "duration": 0.1442307499999984,
          "durationTicks": 48,
          "midi": 68,
          "name": "G#4",
          "ticks": 18144,
          "time": 54.51922350000001,
          "velocity": 0.31496062992125984
        },
        {
          "duration": 0.1442307499999984,
          "durationTicks": 48,
          "midi": 68,
          "name": "G#4",
          "ticks": 18192,
          "time": 54.66345425000001,
          "velocity": 0.31496062992125984
        },
        {
          "duration": 0.1442307499999984,
          "durationTicks": 48,
          "midi": 68,
          "name": "G#4",
          "ticks": 18240,
          "time": 54.807685000000006,
          "velocity": 0.31496062992125984
        },
        {
          "duration": 0.14423075000000551,
          "durationTicks": 48,
          "midi": 68,
          "name": "G#4",
          "ticks": 18288,
          "time": 54.951915750000005,
          "velocity": 0.31496062992125984
        },
        {
          "duration": 0.1442307499999984,
          "durationTicks": 48,
          "midi": 68,
          "name": "G#4",
          "ticks": 18336,
          "time": 55.09614650000001,
          "velocity": 0.31496062992125984
        },
        {
          "duration": 0.1442307499999984,
          "durationTicks": 48,
          "midi": 68,
          "name": "G#4",
          "ticks": 18384,
          "time": 55.24037725000001,
          "velocity": 0.31496062992125984
        },
        {
          "duration": 0.1442307499999984,
          "durationTicks": 48,
          "midi": 68,
          "name": "G#4",
          "ticks": 18432,
          "time": 55.38460800000001,
          "velocity": 0.31496062992125984
        },
        {
          "duration": 0.1442307499999984,
          "durationTicks": 48,
          "midi": 68,
          "name": "G#4",
          "ticks": 18480,
          "time": 55.528838750000006,
          "velocity": 0.31496062992125984
        },
        {
          "duration": 0.14423075000000551,
          "durationTicks": 48,
          "midi": 68,
          "name": "G#4",
          "ticks": 18528,
          "time": 55.673069500000004,
          "velocity": 0.31496062992125984
        },
        {
          "duration": 0.1442307499999984,
          "durationTicks": 48,
          "midi": 68,
          "name": "G#4",
          "ticks": 18576,
          "time": 55.81730025000001,
          "velocity": 0.31496062992125984
        },
        {
          "duration": 0.1442307499999984,
          "durationTicks": 48,
          "midi": 68,
          "name": "G#4",
          "ticks": 18624,
          "time": 55.96153100000001,
          "velocity": 0.31496062992125984
        },
        {
          "duration": 0.1442307499999984,
          "durationTicks": 48,
          "midi": 68,
          "name": "G#4",
          "ticks": 18672,
          "time": 56.105761750000006,
          "velocity": 0.31496062992125984
        },
        {
          "duration": 0.14423075000000551,
          "durationTicks": 48,
          "midi": 68,
          "name": "G#4",
          "ticks": 18720,
          "time": 56.249992500000005,
          "velocity": 0.31496062992125984
        },
        {
          "duration": 0.1442307499999984,
          "durationTicks": 48,
          "midi": 68,
          "name": "G#4",
          "ticks": 18768,
          "time": 56.39422325000001,
          "velocity": 0.31496062992125984
        },
        {
          "duration": 0.1442307499999984,
          "durationTicks": 48,
          "midi": 68,
          "name": "G#4",
          "ticks": 18816,
          "time": 56.53845400000001,
          "velocity": 0.31496062992125984
        },
        {
          "duration": 0.1442307499999984,
          "durationTicks": 48,
          "midi": 68,
          "name": "G#4",
          "ticks": 18864,
          "time": 56.68268475000001,
          "velocity": 0.31496062992125984
        },
        {
          "duration": 0.1442307499999984,
          "durationTicks": 48,
          "midi": 68,
          "name": "G#4",
          "ticks": 18912,
          "time": 56.826915500000005,
          "velocity": 0.31496062992125984
        },
        {
          "duration": 0.14423075000000551,
          "durationTicks": 48,
          "midi": 68,
          "name": "G#4",
          "ticks": 18960,
          "time": 56.971146250000004,
          "velocity": 0.31496062992125984
        },
        {
          "duration": 0.1442307499999984,
          "durationTicks": 48,
          "midi": 68,
          "name": "G#4",
          "ticks": 19008,
          "time": 57.11537700000001,
          "velocity": 0.31496062992125984
        },
        {
          "duration": 0.1442307499999984,
          "durationTicks": 48,
          "midi": 68,
          "name": "G#4",
          "ticks": 19056,
          "time": 57.25960775000001,
          "velocity": 0.31496062992125984
        },
        {
          "duration": 0.1442307499999984,
          "durationTicks": 48,
          "midi": 68,
          "name": "G#4",
          "ticks": 19104,
          "time": 57.403838500000006,
          "velocity": 0.31496062992125984
        },
        {
          "duration": 0.14423075000000551,
          "durationTicks": 48,
          "midi": 68,
          "name": "G#4",
          "ticks": 19152,
          "time": 57.548069250000005,
          "velocity": 0.31496062992125984
        },
        {
          "duration": 0.1442307499999984,
          "durationTicks": 48,
          "midi": 68,
          "name": "G#4",
          "ticks": 19200,
          "time": 57.69230000000001,
          "velocity": 0.31496062992125984
        },
        {
          "duration": 0.1442307499999984,
          "durationTicks": 48,
          "midi": 68,
          "name": "G#4",
          "ticks": 19248,
          "time": 57.83653075000001,
          "velocity": 0.31496062992125984
        },
        {
          "duration": 0.1442307499999984,
          "durationTicks": 48,
          "midi": 68,
          "name": "G#4",
          "ticks": 19296,
          "time": 57.98076150000001,
          "velocity": 0.31496062992125984
        },
        {
          "duration": 0.14423075000000551,
          "durationTicks": 48,
          "midi": 68,
          "name": "G#4",
          "ticks": 19344,
          "time": 58.124992250000005,
          "velocity": 0.31496062992125984
        },
        {
          "duration": 0.1442307499999984,
          "durationTicks": 48,
          "midi": 68,
          "name": "G#4",
          "ticks": 19392,
          "time": 58.26922300000001,
          "velocity": 0.31496062992125984
        },
        {
          "duration": 0.1442307499999984,
          "durationTicks": 48,
          "midi": 68,
          "name": "G#4",
          "ticks": 19440,
          "time": 58.41345375000001,
          "velocity": 0.31496062992125984
        },
        {
          "duration": 0.1442307499999984,
          "durationTicks": 48,
          "midi": 68,
          "name": "G#4",
          "ticks": 19488,
          "time": 58.55768450000001,
          "velocity": 0.31496062992125984
        },
        {
          "duration": 0.1442307499999984,
          "durationTicks": 48,
          "midi": 68,
          "name": "G#4",
          "ticks": 19536,
          "time": 58.701915250000006,
          "velocity": 0.31496062992125984
        },
        {
          "duration": 0.14423075000000551,
          "durationTicks": 48,
          "midi": 68,
          "name": "G#4",
          "ticks": 19584,
          "time": 58.846146000000005,
          "velocity": 0.31496062992125984
        },
        {
          "duration": 0.1442307499999984,
          "durationTicks": 48,
          "midi": 68,
          "name": "G#4",
          "ticks": 19632,
          "time": 58.99037675000001,
          "velocity": 0.31496062992125984
        },
        {
          "duration": 0.1442307499999984,
          "durationTicks": 48,
          "midi": 68,
          "name": "G#4",
          "ticks": 19680,
          "time": 59.13460750000001,
          "velocity": 0.31496062992125984
        },
        {
          "duration": 0.1442307499999984,
          "durationTicks": 48,
          "midi": 68,
          "name": "G#4",
          "ticks": 19728,
          "time": 59.27883825000001,
          "velocity": 0.31496062992125984
        },
        {
          "duration": 0.14423075000000551,
          "durationTicks": 48,
          "midi": 68,
          "name": "G#4",
          "ticks": 19776,
          "time": 59.423069000000005,
          "velocity": 0.31496062992125984
        },
        {
          "duration": 0.1442307499999984,
          "durationTicks": 48,
          "midi": 68,
          "name": "G#4",
          "ticks": 19824,
          "time": 59.56729975000001,
          "velocity": 0.31496062992125984
        },
        {
          "duration": 0.1442307499999984,
          "durationTicks": 48,
          "midi": 68,
          "name": "G#4",
          "ticks": 19872,
          "time": 59.71153050000001,
          "velocity": 0.31496062992125984
        },
        {
          "duration": 0.1442307499999984,
          "durationTicks": 48,
          "midi": 68,
          "name": "G#4",
          "ticks": 19920,
          "time": 59.85576125000001,
          "velocity": 0.31496062992125984
        },
        {
          "duration": 0.1442307499999984,
          "durationTicks": 48,
          "midi": 68,
          "name": "G#4",
          "ticks": 19968,
          "time": 59.999992000000006,
          "velocity": 0.31496062992125984
        },
        {
          "duration": 0.14423075000000551,
          "durationTicks": 48,
          "midi": 68,
          "name": "G#4",
          "ticks": 20016,
          "time": 60.144222750000004,
          "velocity": 0.31496062992125984
        },
        {
          "duration": 0.1442307499999984,
          "durationTicks": 48,
          "midi": 68,
          "name": "G#4",
          "ticks": 20064,
          "time": 60.28845350000001,
          "velocity": 0.31496062992125984
        },
        {
          "duration": 0.1442307499999984,
          "durationTicks": 48,
          "midi": 68,
          "name": "G#4",
          "ticks": 20112,
          "time": 60.43268425000001,
          "velocity": 0.31496062992125984
        },
        {
          "duration": 0.1442307499999984,
          "durationTicks": 48,
          "midi": 68,
          "name": "G#4",
          "ticks": 20160,
          "time": 60.57691500000001,
          "velocity": 0.31496062992125984
        },
        {
          "duration": 0.14423075000000551,
          "durationTicks": 48,
          "midi": 68,
          "name": "G#4",
          "ticks": 20208,
          "time": 60.721145750000005,
          "velocity": 0.31496062992125984
        },
        {
          "duration": 0.1442307499999984,
          "durationTicks": 48,
          "midi": 68,
          "name": "G#4",
          "ticks": 20256,
          "time": 60.86537650000001,
          "velocity": 0.31496062992125984
        },
        {
          "duration": 0.1442307499999984,
          "durationTicks": 48,
          "midi": 68,
          "name": "G#4",
          "ticks": 20304,
          "time": 61.00960725000001,
          "velocity": 0.31496062992125984
        },
        {
          "duration": 0.1442307499999984,
          "durationTicks": 48,
          "midi": 68,
          "name": "G#4",
          "ticks": 20352,
          "time": 61.15383800000001,
          "velocity": 0.31496062992125984
        },
        {
          "duration": 0.14423075000000551,
          "durationTicks": 48,
          "midi": 68,
          "name": "G#4",
          "ticks": 20400,
          "time": 61.298068750000006,
          "velocity": 0.31496062992125984
        },
        {
          "duration": 0.1442307499999984,
          "durationTicks": 48,
          "midi": 68,
          "name": "G#4",
          "ticks": 20448,
          "time": 61.44229950000001,
          "velocity": 0.31496062992125984
        },
        {
          "duration": 0.1442307499999984,
          "durationTicks": 48,
          "midi": 68,
          "name": "G#4",
          "ticks": 20496,
          "time": 61.58653025000001,
          "velocity": 0.31496062992125984
        },
        {
          "duration": 0.1442307499999984,
          "durationTicks": 48,
          "midi": 68,
          "name": "G#4",
          "ticks": 20544,
          "time": 61.73076100000001,
          "velocity": 0.31496062992125984
        },
        {
          "duration": 0.1442307499999984,
          "durationTicks": 48,
          "midi": 68,
          "name": "G#4",
          "ticks": 20592,
          "time": 61.87499175000001,
          "velocity": 0.31496062992125984
        },
        {
          "duration": 0.14423075000000551,
          "durationTicks": 48,
          "midi": 68,
          "name": "G#4",
          "ticks": 20640,
          "time": 62.019222500000005,
          "velocity": 0.31496062992125984
        },
        {
          "duration": 0.1442307499999984,
          "durationTicks": 48,
          "midi": 68,
          "name": "G#4",
          "ticks": 20688,
          "time": 62.16345325000001,
          "velocity": 0.31496062992125984
        },
        {
          "duration": 0.1442307499999984,
          "durationTicks": 48,
          "midi": 68,
          "name": "G#4",
          "ticks": 20736,
          "time": 62.30768400000001,
          "velocity": 0.31496062992125984
        },
        {
          "duration": 0.1442307499999984,
          "durationTicks": 48,
          "midi": 68,
          "name": "G#4",
          "ticks": 20784,
          "time": 62.45191475000001,
          "velocity": 0.31496062992125984
        },
        {
          "duration": 0.14423075000000551,
          "durationTicks": 48,
          "midi": 68,
          "name": "G#4",
          "ticks": 20832,
          "time": 62.596145500000006,
          "velocity": 0.31496062992125984
        },
        {
          "duration": 0.1442307499999984,
          "durationTicks": 48,
          "midi": 68,
          "name": "G#4",
          "ticks": 20880,
          "time": 62.74037625000001,
          "velocity": 0.31496062992125984
        },
        {
          "duration": 0.1442307499999984,
          "durationTicks": 48,
          "midi": 68,
          "name": "G#4",
          "ticks": 20928,
          "time": 62.88460700000001,
          "velocity": 0.31496062992125984
        },
        {
          "duration": 0.1442307499999984,
          "durationTicks": 48,
          "midi": 68,
          "name": "G#4",
          "ticks": 20976,
          "time": 63.02883775000001,
          "velocity": 0.31496062992125984
        },
        {
          "duration": 0.1442307499999984,
          "durationTicks": 48,
          "midi": 68,
          "name": "G#4",
          "ticks": 21024,
          "time": 63.17306850000001,
          "velocity": 0.31496062992125984
        },
        {
          "duration": 0.14423075000000551,
          "durationTicks": 48,
          "midi": 68,
          "name": "G#4",
          "ticks": 21072,
          "time": 63.317299250000005,
          "velocity": 0.31496062992125984
        },
        {
          "duration": 0.1442307499999984,
          "durationTicks": 48,
          "midi": 68,
          "name": "G#4",
          "ticks": 21120,
          "time": 63.46153000000001,
          "velocity": 0.31496062992125984
        },
        {
          "duration": 0.1442307499999984,
          "durationTicks": 48,
          "midi": 68,
          "name": "G#4",
          "ticks": 21168,
          "time": 63.60576075000001,
          "velocity": 0.31496062992125984
        },
        {
          "duration": 0.1442307499999984,
          "durationTicks": 48,
          "midi": 68,
          "name": "G#4",
          "ticks": 21216,
          "time": 63.74999150000001,
          "velocity": 0.31496062992125984
        },
        {
          "duration": 0.1442307499999984,
          "durationTicks": 48,
          "midi": 68,
          "name": "G#4",
          "ticks": 21264,
          "time": 63.894222250000006,
          "velocity": 0.31496062992125984
        },
        {
          "duration": 0.14423075000000551,
          "durationTicks": 48,
          "midi": 68,
          "name": "G#4",
          "ticks": 21312,
          "time": 64.038453,
          "velocity": 0.31496062992125984
        },
        {
          "duration": 0.14423075000000551,
          "durationTicks": 48,
          "midi": 68,
          "name": "G#4",
          "ticks": 21360,
          "time": 64.18268375000001,
          "velocity": 0.31496062992125984
        },
        {
          "duration": 0.1442307499999913,
          "durationTicks": 48,
          "midi": 68,
          "name": "G#4",
          "ticks": 21408,
          "time": 64.32691450000002,
          "velocity": 0.31496062992125984
        },
        {
          "duration": 0.14423075000000551,
          "durationTicks": 48,
          "midi": 68,
          "name": "G#4",
          "ticks": 21456,
          "time": 64.47114525,
          "velocity": 0.31496062992125984
        },
        {
          "duration": 0.1442307499999913,
          "durationTicks": 48,
          "midi": 68,
          "name": "G#4",
          "ticks": 21504,
          "time": 64.61537600000001,
          "velocity": 0.31496062992125984
        },
        {
          "duration": 0.14423075000000551,
          "durationTicks": 48,
          "midi": 68,
          "name": "G#4",
          "ticks": 21552,
          "time": 64.75960675,
          "velocity": 0.31496062992125984
        },
        {
          "duration": 0.14423075000000551,
          "durationTicks": 48,
          "midi": 68,
          "name": "G#4",
          "ticks": 21600,
          "time": 64.90383750000001,
          "velocity": 0.31496062992125984
        },
        {
          "duration": 0.1442307499999913,
          "durationTicks": 48,
          "midi": 68,
          "name": "G#4",
          "ticks": 21648,
          "time": 65.04806825000001,
          "velocity": 0.31496062992125984
        },
        {
          "duration": 0.14423075000000551,
          "durationTicks": 48,
          "midi": 68,
          "name": "G#4",
          "ticks": 21696,
          "time": 65.192299,
          "velocity": 0.31496062992125984
        },
        {
          "duration": 0.1442307499999913,
          "durationTicks": 48,
          "midi": 68,
          "name": "G#4",
          "ticks": 21744,
          "time": 65.33652975000001,
          "velocity": 0.31496062992125984
        },
        {
          "duration": 0.14423075000000551,
          "durationTicks": 48,
          "midi": 68,
          "name": "G#4",
          "ticks": 21792,
          "time": 65.4807605,
          "velocity": 0.31496062992125984
        },
        {
          "duration": 0.14423075000000551,
          "durationTicks": 48,
          "midi": 68,
          "name": "G#4",
          "ticks": 21840,
          "time": 65.62499125000001,
          "velocity": 0.31496062992125984
        },
        {
          "duration": 0.1442307499999913,
          "durationTicks": 48,
          "midi": 68,
          "name": "G#4",
          "ticks": 21888,
          "time": 65.76922200000001,
          "velocity": 0.31496062992125984
        },
        {
          "duration": 0.14423075000000551,
          "durationTicks": 48,
          "midi": 68,
          "name": "G#4",
          "ticks": 21936,
          "time": 65.91345275,
          "velocity": 0.31496062992125984
        },
        {
          "duration": 0.1442307499999913,
          "durationTicks": 48,
          "midi": 68,
          "name": "G#4",
          "ticks": 21984,
          "time": 66.05768350000001,
          "velocity": 0.31496062992125984
        },
        {
          "duration": 0.14423075000000551,
          "durationTicks": 48,
          "midi": 68,
          "name": "G#4",
          "ticks": 22032,
          "time": 66.20191425,
          "velocity": 0.31496062992125984
        },
        {
          "duration": 0.14423075000000551,
          "durationTicks": 48,
          "midi": 68,
          "name": "G#4",
          "ticks": 22080,
          "time": 66.346145,
          "velocity": 0.31496062992125984
        },
        {
          "duration": 0.1442307499999913,
          "durationTicks": 48,
          "midi": 68,
          "name": "G#4",
          "ticks": 22128,
          "time": 66.49037575000001,
          "velocity": 0.31496062992125984
        },
        {
          "duration": 0.14423075000000551,
          "durationTicks": 48,
          "midi": 68,
          "name": "G#4",
          "ticks": 22176,
          "time": 66.6346065,
          "velocity": 0.31496062992125984
        },
        {
          "duration": 0.14423075000000551,
          "durationTicks": 48,
          "midi": 68,
          "name": "G#4",
          "ticks": 22224,
          "time": 66.77883725000001,
          "velocity": 0.31496062992125984
        },
        {
          "duration": 0.1442307499999913,
          "durationTicks": 48,
          "midi": 68,
          "name": "G#4",
          "ticks": 22272,
          "time": 66.92306800000001,
          "velocity": 0.31496062992125984
        },
        {
          "duration": 0.14423075000000551,
          "durationTicks": 48,
          "midi": 68,
          "name": "G#4",
          "ticks": 22320,
          "time": 67.06729875,
          "velocity": 0.31496062992125984
        },
        {
          "duration": 0.1442307499999913,
          "durationTicks": 48,
          "midi": 68,
          "name": "G#4",
          "ticks": 22368,
          "time": 67.21152950000001,
          "velocity": 0.31496062992125984
        },
        {
          "duration": 0.14423075000000551,
          "durationTicks": 48,
          "midi": 68,
          "name": "G#4",
          "ticks": 22416,
          "time": 67.35576025,
          "velocity": 0.31496062992125984
        },
        {
          "duration": 0.14423075000000551,
          "durationTicks": 48,
          "midi": 68,
          "name": "G#4",
          "ticks": 22464,
          "time": 67.49999100000001,
          "velocity": 0.31496062992125984
        },
        {
          "duration": 0.1442307499999913,
          "durationTicks": 48,
          "midi": 68,
          "name": "G#4",
          "ticks": 22512,
          "time": 67.64422175000001,
          "velocity": 0.31496062992125984
        },
        {
          "duration": 0.14423075000000551,
          "durationTicks": 48,
          "midi": 68,
          "name": "G#4",
          "ticks": 22560,
          "time": 67.7884525,
          "velocity": 0.31496062992125984
        },
        {
          "duration": 0.1442307499999913,
          "durationTicks": 48,
          "midi": 68,
          "name": "G#4",
          "ticks": 22608,
          "time": 67.93268325000001,
          "velocity": 0.31496062992125984
        },
        {
          "duration": 0.14423075000000551,
          "durationTicks": 48,
          "midi": 68,
          "name": "G#4",
          "ticks": 22656,
          "time": 68.076914,
          "velocity": 0.31496062992125984
        },
        {
          "duration": 0.14423075000000551,
          "durationTicks": 48,
          "midi": 68,
          "name": "G#4",
          "ticks": 22704,
          "time": 68.22114475000001,
          "velocity": 0.31496062992125984
        },
        {
          "duration": 0.1442307499999913,
          "durationTicks": 48,
          "midi": 68,
          "name": "G#4",
          "ticks": 22752,
          "time": 68.36537550000001,
          "velocity": 0.31496062992125984
        },
        {
          "duration": 0.14423075000000551,
          "durationTicks": 48,
          "midi": 68,
          "name": "G#4",
          "ticks": 22800,
          "time": 68.50960625,
          "velocity": 0.31496062992125984
        },
        {
          "duration": 0.14423075000000551,
          "durationTicks": 48,
          "midi": 68,
          "name": "G#4",
          "ticks": 22848,
          "time": 68.65383700000001,
          "velocity": 0.31496062992125984
        },
        {
          "duration": 0.1442307499999913,
          "durationTicks": 48,
          "midi": 68,
          "name": "G#4",
          "ticks": 22896,
          "time": 68.79806775000002,
          "velocity": 0.31496062992125984
        },
        {
          "duration": 0.14423075000000551,
          "durationTicks": 48,
          "midi": 68,
          "name": "G#4",
          "ticks": 22944,
          "time": 68.9422985,
          "velocity": 0.31496062992125984
        },
        {
          "duration": 0.1442307499999913,
          "durationTicks": 48,
          "midi": 68,
          "name": "G#4",
          "ticks": 22992,
          "time": 69.08652925000001,
          "velocity": 0.31496062992125984
        },
        {
          "duration": 0.14423075000000551,
          "durationTicks": 48,
          "midi": 68,
          "name": "G#4",
          "ticks": 23040,
          "time": 69.23076,
          "velocity": 0.31496062992125984
        },
        {
          "duration": 0.14423075000000551,
          "durationTicks": 48,
          "midi": 68,
          "name": "G#4",
          "ticks": 23088,
          "time": 69.37499075000001,
          "velocity": 0.31496062992125984
        },
        {
          "duration": 0.1442307499999913,
          "durationTicks": 48,
          "midi": 68,
          "name": "G#4",
          "ticks": 23136,
          "time": 69.51922150000001,
          "velocity": 0.31496062992125984
        },
        {
          "duration": 0.14423075000000551,
          "durationTicks": 48,
          "midi": 68,
          "name": "G#4",
          "ticks": 23184,
          "time": 69.66345225,
          "velocity": 0.31496062992125984
        },
        {
          "duration": 0.1442307499999913,
          "durationTicks": 48,
          "midi": 68,
          "name": "G#4",
          "ticks": 23232,
          "time": 69.80768300000001,
          "velocity": 0.31496062992125984
        },
        {
          "duration": 0.14423075000000551,
          "durationTicks": 48,
          "midi": 68,
          "name": "G#4",
          "ticks": 23280,
          "time": 69.95191375,
          "velocity": 0.31496062992125984
        },
        {
          "duration": 0.14423075000000551,
          "durationTicks": 48,
          "midi": 68,
          "name": "G#4",
          "ticks": 23328,
          "time": 70.09614450000001,
          "velocity": 0.31496062992125984
        },
        {
          "duration": 0.1442307499999913,
          "durationTicks": 48,
          "midi": 68,
          "name": "G#4",
          "ticks": 23376,
          "time": 70.24037525000001,
          "velocity": 0.31496062992125984
        },
        {
          "duration": 0.14423075000000551,
          "durationTicks": 48,
          "midi": 68,
          "name": "G#4",
          "ticks": 23424,
          "time": 70.384606,
          "velocity": 0.31496062992125984
        },
        {
          "duration": 0.14423075000000551,
          "durationTicks": 48,
          "midi": 68,
          "name": "G#4",
          "ticks": 23472,
          "time": 70.52883675000001,
          "velocity": 0.31496062992125984
        },
        {
          "duration": 0.1442307499999913,
          "durationTicks": 48,
          "midi": 68,
          "name": "G#4",
          "ticks": 23520,
          "time": 70.67306750000002,
          "velocity": 0.31496062992125984
        },
        {
          "duration": 0.14423075000000551,
          "durationTicks": 48,
          "midi": 68,
          "name": "G#4",
          "ticks": 23568,
          "time": 70.81729825000001,
          "velocity": 0.31496062992125984
        },
        {
          "duration": 0.1442307499999913,
          "durationTicks": 48,
          "midi": 68,
          "name": "G#4",
          "ticks": 23616,
          "time": 70.96152900000001,
          "velocity": 0.31496062992125984
        },
        {
          "duration": 0.14423075000000551,
          "durationTicks": 48,
          "midi": 68,
          "name": "G#4",
          "ticks": 23664,
          "time": 71.10575975,
          "velocity": 0.31496062992125984
        },
        {
          "duration": 0.14423075000000551,
          "durationTicks": 48,
          "midi": 68,
          "name": "G#4",
          "ticks": 23712,
          "time": 71.24999050000001,
          "velocity": 0.31496062992125984
        },
        {
          "duration": 0.1442307499999913,
          "durationTicks": 48,
          "midi": 68,
          "name": "G#4",
          "ticks": 23760,
          "time": 71.39422125000002,
          "velocity": 0.31496062992125984
        },
        {
          "duration": 0.14423075000000551,
          "durationTicks": 48,
          "midi": 68,
          "name": "G#4",
          "ticks": 23808,
          "time": 71.538452,
          "velocity": 0.31496062992125984
        },
        {
          "duration": 0.1442307499999913,
          "durationTicks": 48,
          "midi": 68,
          "name": "G#4",
          "ticks": 23856,
          "time": 71.68268275000001,
          "velocity": 0.31496062992125984
        },
        {
          "duration": 0.14423075000000551,
          "durationTicks": 48,
          "midi": 68,
          "name": "G#4",
          "ticks": 23904,
          "time": 71.8269135,
          "velocity": 0.31496062992125984
        },
        {
          "duration": 0.14423075000000551,
          "durationTicks": 48,
          "midi": 68,
          "name": "G#4",
          "ticks": 23952,
          "time": 71.97114425000001,
          "velocity": 0.31496062992125984
        },
        {
          "duration": 0.1442307499999913,
          "durationTicks": 48,
          "midi": 68,
          "name": "G#4",
          "ticks": 24000,
          "time": 72.11537500000001,
          "velocity": 0.31496062992125984
        },
        {
          "duration": 0.14423075000000551,
          "durationTicks": 48,
          "midi": 68,
          "name": "G#4",
          "ticks": 24048,
          "time": 72.25960575,
          "velocity": 0.31496062992125984
        },
        {
          "duration": 0.1442307499999913,
          "durationTicks": 48,
          "midi": 68,
          "name": "G#4",
          "ticks": 24096,
          "time": 72.40383650000001,
          "velocity": 0.31496062992125984
        },
        {
          "duration": 0.14423075000000551,
          "durationTicks": 48,
          "midi": 68,
          "name": "G#4",
          "ticks": 24144,
          "time": 72.54806725,
          "velocity": 0.31496062992125984
        },
        {
          "duration": 0.14423075000000551,
          "durationTicks": 48,
          "midi": 68,
          "name": "G#4",
          "ticks": 24192,
          "time": 72.69229800000001,
          "velocity": 0.31496062992125984
        },
        {
          "duration": 0.1442307499999913,
          "durationTicks": 48,
          "midi": 68,
          "name": "G#4",
          "ticks": 24240,
          "time": 72.83652875000001,
          "velocity": 0.31496062992125984
        },
        {
          "duration": 0.14423075000000551,
          "durationTicks": 48,
          "midi": 68,
          "name": "G#4",
          "ticks": 24288,
          "time": 72.9807595,
          "velocity": 0.31496062992125984
        },
        {
          "duration": 0.14423075000000551,
          "durationTicks": 48,
          "midi": 68,
          "name": "G#4",
          "ticks": 24336,
          "time": 73.12499025000001,
          "velocity": 0.31496062992125984
        },
        {
          "duration": 0.1442307499999913,
          "durationTicks": 48,
          "midi": 68,
          "name": "G#4",
          "ticks": 24384,
          "time": 73.26922100000002,
          "velocity": 0.31496062992125984
        },
        {
          "duration": 0.14423075000000551,
          "durationTicks": 48,
          "midi": 68,
          "name": "G#4",
          "ticks": 24432,
          "time": 73.41345175000001,
          "velocity": 0.31496062992125984
        },
        {
          "duration": 0.1442307499999913,
          "durationTicks": 48,
          "midi": 68,
          "name": "G#4",
          "ticks": 24480,
          "time": 73.55768250000001,
          "velocity": 0.31496062992125984
        },
        {
          "duration": 0.14423075000000551,
          "durationTicks": 48,
          "midi": 68,
          "name": "G#4",
          "ticks": 24528,
          "time": 73.70191325,
          "velocity": 0.31496062992125984
        },
        {
          "duration": 0.14423075000000551,
          "durationTicks": 48,
          "midi": 68,
          "name": "G#4",
          "ticks": 24576,
          "time": 73.84614400000001,
          "velocity": 0.31496062992125984
        },
        {
          "duration": 0.1442307499999913,
          "durationTicks": 48,
          "midi": 68,
          "name": "G#4",
          "ticks": 24624,
          "time": 73.99037475000002,
          "velocity": 0.31496062992125984
        },
        {
          "duration": 0.14423075000000551,
          "durationTicks": 48,
          "midi": 68,
          "name": "G#4",
          "ticks": 24672,
          "time": 74.1346055,
          "velocity": 0.31496062992125984
        },
        {
          "duration": 0.1442307499999913,
          "durationTicks": 48,
          "midi": 68,
          "name": "G#4",
          "ticks": 24720,
          "time": 74.27883625000001,
          "velocity": 0.31496062992125984
        },
        {
          "duration": 0.14423075000000551,
          "durationTicks": 48,
          "midi": 68,
          "name": "G#4",
          "ticks": 24768,
          "time": 74.423067,
          "velocity": 0.31496062992125984
        },
        {
          "duration": 0.14423075000000551,
          "durationTicks": 48,
          "midi": 68,
          "name": "G#4",
          "ticks": 24816,
          "time": 74.56729775000001,
          "velocity": 0.31496062992125984
        },
        {
          "duration": 0.1442307499999913,
          "durationTicks": 48,
          "midi": 68,
          "name": "G#4",
          "ticks": 24864,
          "time": 74.71152850000001,
          "velocity": 0.31496062992125984
        },
        {
          "duration": 0.14423075000000551,
          "durationTicks": 48,
          "midi": 68,
          "name": "G#4",
          "ticks": 24912,
          "time": 74.85575925,
          "velocity": 0.31496062992125984
        },
        {
          "duration": 0.14423075000000551,
          "durationTicks": 48,
          "midi": 68,
          "name": "G#4",
          "ticks": 24960,
          "time": 74.99999000000001,
          "velocity": 0.31496062992125984
        },
        {
          "duration": 0.1442307499999913,
          "durationTicks": 48,
          "midi": 68,
          "name": "G#4",
          "ticks": 25008,
          "time": 75.14422075000002,
          "velocity": 0.31496062992125984
        },
        {
          "duration": 0.14423075000000551,
          "durationTicks": 48,
          "midi": 68,
          "name": "G#4",
          "ticks": 25056,
          "time": 75.28845150000001,
          "velocity": 0.31496062992125984
        },
        {
          "duration": 0.1442307499999913,
          "durationTicks": 48,
          "midi": 68,
          "name": "G#4",
          "ticks": 25104,
          "time": 75.43268225000001,
          "velocity": 0.31496062992125984
        },
        {
          "duration": 0.14423075000000551,
          "durationTicks": 48,
          "midi": 68,
          "name": "G#4",
          "ticks": 25152,
          "time": 75.576913,
          "velocity": 0.31496062992125984
        },
        {
          "duration": 0.14423075000000551,
          "durationTicks": 48,
          "midi": 68,
          "name": "G#4",
          "ticks": 25200,
          "time": 75.72114375000001,
          "velocity": 0.31496062992125984
        },
        {
          "duration": 0.1442307499999913,
          "durationTicks": 48,
          "midi": 68,
          "name": "G#4",
          "ticks": 25248,
          "time": 75.86537450000002,
          "velocity": 0.31496062992125984
        },
        {
          "duration": 0.14423075000000551,
          "durationTicks": 48,
          "midi": 68,
          "name": "G#4",
          "ticks": 25296,
          "time": 76.00960525,
          "velocity": 0.31496062992125984
        },
        {
          "duration": 0.1442307499999913,
          "durationTicks": 48,
          "midi": 68,
          "name": "G#4",
          "ticks": 25344,
          "time": 76.15383600000001,
          "velocity": 0.31496062992125984
        },
        {
          "duration": 0.14423075000000551,
          "durationTicks": 48,
          "midi": 68,
          "name": "G#4",
          "ticks": 25392,
          "time": 76.29806675,
          "velocity": 0.31496062992125984
        },
        {
          "duration": 0.14423075000000551,
          "durationTicks": 48,
          "midi": 68,
          "name": "G#4",
          "ticks": 25440,
          "time": 76.44229750000001,
          "velocity": 0.31496062992125984
        },
        {
          "duration": 0.1442307499999913,
          "durationTicks": 48,
          "midi": 68,
          "name": "G#4",
          "ticks": 25488,
          "time": 76.58652825000001,
          "velocity": 0.31496062992125984
        },
        {
          "duration": 0.14423075000000551,
          "durationTicks": 48,
          "midi": 68,
          "name": "G#4",
          "ticks": 25536,
          "time": 76.730759,
          "velocity": 0.31496062992125984
        },
        {
          "duration": 0.1442307499999913,
          "durationTicks": 48,
          "midi": 68,
          "name": "G#4",
          "ticks": 25584,
          "time": 76.87498975000001,
          "velocity": 0.31496062992125984
        },
        {
          "duration": 0.14423075000000551,
          "durationTicks": 48,
          "midi": 68,
          "name": "G#4",
          "ticks": 25632,
          "time": 77.0192205,
          "velocity": 0.31496062992125984
        },
        {
          "duration": 0.14423075000000551,
          "durationTicks": 48,
          "midi": 68,
          "name": "G#4",
          "ticks": 25680,
          "time": 77.16345125000001,
          "velocity": 0.31496062992125984
        },
        {
          "duration": 0.1442307499999913,
          "durationTicks": 48,
          "midi": 68,
          "name": "G#4",
          "ticks": 25728,
          "time": 77.30768200000001,
          "velocity": 0.31496062992125984
        },
        {
          "duration": 0.14423075000000551,
          "durationTicks": 48,
          "midi": 68,
          "name": "G#4",
          "ticks": 25776,
          "time": 77.45191275,
          "velocity": 0.31496062992125984
        },
        {
          "duration": 0.14423075000000551,
          "durationTicks": 48,
          "midi": 68,
          "name": "G#4",
          "ticks": 25824,
          "time": 77.59614350000001,
          "velocity": 0.31496062992125984
        },
        {
          "duration": 0.1442307499999913,
          "durationTicks": 48,
          "midi": 68,
          "name": "G#4",
          "ticks": 25872,
          "time": 77.74037425000002,
          "velocity": 0.31496062992125984
        },
        {
          "duration": 0.14423075000000551,
          "durationTicks": 48,
          "midi": 68,
          "name": "G#4",
          "ticks": 25920,
          "time": 77.88460500000001,
          "velocity": 0.31496062992125984
        },
        {
          "duration": 0.1442307499999913,
          "durationTicks": 48,
          "midi": 68,
          "name": "G#4",
          "ticks": 25968,
          "time": 78.02883575000001,
          "velocity": 0.31496062992125984
        },
        {
          "duration": 0.14423075000000551,
          "durationTicks": 48,
          "midi": 68,
          "name": "G#4",
          "ticks": 26016,
          "time": 78.1730665,
          "velocity": 0.31496062992125984
        },
        {
          "duration": 0.14423075000000551,
          "durationTicks": 48,
          "midi": 68,
          "name": "G#4",
          "ticks": 26064,
          "time": 78.31729725000001,
          "velocity": 0.31496062992125984
        },
        {
          "duration": 0.1442307499999913,
          "durationTicks": 48,
          "midi": 68,
          "name": "G#4",
          "ticks": 26112,
          "time": 78.46152800000002,
          "velocity": 0.31496062992125984
        },
        {
          "duration": 0.14423075000000551,
          "durationTicks": 48,
          "midi": 68,
          "name": "G#4",
          "ticks": 26160,
          "time": 78.60575875,
          "velocity": 0.31496062992125984
        },
        {
          "duration": 0.1442307499999913,
          "durationTicks": 48,
          "midi": 68,
          "name": "G#4",
          "ticks": 26208,
          "time": 78.74998950000001,
          "velocity": 0.31496062992125984
        },
        {
          "duration": 0.14423075000000551,
          "durationTicks": 48,
          "midi": 68,
          "name": "G#4",
          "ticks": 26256,
          "time": 78.89422025,
          "velocity": 0.31496062992125984
        },
        {
          "duration": 0.14423075000000551,
          "durationTicks": 48,
          "midi": 68,
          "name": "G#4",
          "ticks": 26304,
          "time": 79.03845100000001,
          "velocity": 0.31496062992125984
        },
        {
          "duration": 0.1442307499999913,
          "durationTicks": 48,
          "midi": 68,
          "name": "G#4",
          "ticks": 26352,
          "time": 79.18268175000001,
          "velocity": 0.31496062992125984
        },
        {
          "duration": 0.14423075000000551,
          "durationTicks": 48,
          "midi": 68,
          "name": "G#4",
          "ticks": 26400,
          "time": 79.3269125,
          "velocity": 0.31496062992125984
        },
        {
          "duration": 0.14423075000000551,
          "durationTicks": 48,
          "midi": 68,
          "name": "G#4",
          "ticks": 26448,
          "time": 79.47114325000001,
          "velocity": 0.31496062992125984
        },
        {
          "duration": 0.1442307499999913,
          "durationTicks": 48,
          "midi": 68,
          "name": "G#4",
          "ticks": 26496,
          "time": 79.61537400000002,
          "velocity": 0.31496062992125984
        },
        {
          "duration": 0.14423075000000551,
          "durationTicks": 48,
          "midi": 68,
          "name": "G#4",
          "ticks": 26544,
          "time": 79.75960475000001,
          "velocity": 0.31496062992125984
        },
        {
          "duration": 0.1442307499999913,
          "durationTicks": 48,
          "midi": 68,
          "name": "G#4",
          "ticks": 26592,
          "time": 79.90383550000001,
          "velocity": 0.31496062992125984
        },
        {
          "duration": 0.14423075000000551,
          "durationTicks": 48,
          "midi": 68,
          "name": "G#4",
          "ticks": 26640,
          "time": 80.04806625,
          "velocity": 0.31496062992125984
        },
        {
          "duration": 0.14423075000000551,
          "durationTicks": 48,
          "midi": 68,
          "name": "G#4",
          "ticks": 26688,
          "time": 80.19229700000001,
          "velocity": 0.31496062992125984
        },
        {
          "duration": 0.1442307499999913,
          "durationTicks": 48,
          "midi": 68,
          "name": "G#4",
          "ticks": 26736,
          "time": 80.33652775000002,
          "velocity": 0.31496062992125984
        },
        {
          "duration": 0.14423075000000551,
          "durationTicks": 48,
          "midi": 68,
          "name": "G#4",
          "ticks": 26784,
          "time": 80.48075850000001,
          "velocity": 0.31496062992125984
        },
        {
          "duration": 0.1442307499999913,
          "durationTicks": 48,
          "midi": 68,
          "name": "G#4",
          "ticks": 26832,
          "time": 80.62498925000001,
          "velocity": 0.31496062992125984
        },
        {
          "duration": 0.14423075000000551,
          "durationTicks": 48,
          "midi": 68,
          "name": "G#4",
          "ticks": 26880,
          "time": 80.76922,
          "velocity": 0.31496062992125984
        },
        {
          "duration": 0.14423075000000551,
          "durationTicks": 48,
          "midi": 68,
          "name": "G#4",
          "ticks": 26928,
          "time": 80.91345075000001,
          "velocity": 0.31496062992125984
        },
        {
          "duration": 0.1442307499999913,
          "durationTicks": 48,
          "midi": 68,
          "name": "G#4",
          "ticks": 26976,
          "time": 81.05768150000002,
          "velocity": 0.31496062992125984
        },
        {
          "duration": 0.14423075000000551,
          "durationTicks": 48,
          "midi": 68,
          "name": "G#4",
          "ticks": 27024,
          "time": 81.20191225,
          "velocity": 0.31496062992125984
        },
        {
          "duration": 0.14423075000000551,
          "durationTicks": 48,
          "midi": 68,
          "name": "G#4",
          "ticks": 27072,
          "time": 81.34614300000001,
          "velocity": 0.31496062992125984
        },
        {
          "duration": 0.1442307499999913,
          "durationTicks": 48,
          "midi": 68,
          "name": "G#4",
          "ticks": 27120,
          "time": 81.49037375000002,
          "velocity": 0.31496062992125984
        },
        {
          "duration": 0.14423075000000551,
          "durationTicks": 48,
          "midi": 68,
          "name": "G#4",
          "ticks": 27168,
          "time": 81.63460450000001,
          "velocity": 0.31496062992125984
        },
        {
          "duration": 0.1442307499999913,
          "durationTicks": 48,
          "midi": 68,
          "name": "G#4",
          "ticks": 27216,
          "time": 81.77883525000001,
          "velocity": 0.31496062992125984
        },
        {
          "duration": 0.14423075000000551,
          "durationTicks": 48,
          "midi": 68,
          "name": "G#4",
          "ticks": 27264,
          "time": 81.923066,
          "velocity": 0.31496062992125984
        },
        {
          "duration": 0.14423075000000551,
          "durationTicks": 48,
          "midi": 68,
          "name": "G#4",
          "ticks": 27312,
          "time": 82.06729675000001,
          "velocity": 0.31496062992125984
        },
        {
          "duration": 0.1442307499999913,
          "durationTicks": 48,
          "midi": 68,
          "name": "G#4",
          "ticks": 27360,
          "time": 82.21152750000002,
          "velocity": 0.31496062992125984
        },
        {
          "duration": 0.14423075000000551,
          "durationTicks": 48,
          "midi": 68,
          "name": "G#4",
          "ticks": 27408,
          "time": 82.35575825000001,
          "velocity": 0.31496062992125984
        },
        {
          "duration": 0.1442307499999913,
          "durationTicks": 48,
          "midi": 68,
          "name": "G#4",
          "ticks": 27456,
          "time": 82.49998900000001,
          "velocity": 0.31496062992125984
        },
        {
          "duration": 0.14423075000000551,
          "durationTicks": 48,
          "midi": 68,
          "name": "G#4",
          "ticks": 27504,
          "time": 82.64421975,
          "velocity": 0.31496062992125984
        },
        {
          "duration": 0.14423075000000551,
          "durationTicks": 48,
          "midi": 68,
          "name": "G#4",
          "ticks": 27552,
          "time": 82.78845050000001,
          "velocity": 0.31496062992125984
        },
        {
          "duration": 0.1442307499999913,
          "durationTicks": 48,
          "midi": 68,
          "name": "G#4",
          "ticks": 27600,
          "time": 82.93268125000002,
          "velocity": 0.31496062992125984
        },
        {
          "duration": 0.14423075000000551,
          "durationTicks": 48,
          "midi": 68,
          "name": "G#4",
          "ticks": 33888,
          "time": 101.82690950000001,
          "velocity": 0.31496062992125984
        },
        {
          "duration": 0.1442307499999913,
          "durationTicks": 48,
          "midi": 68,
          "name": "G#4",
          "ticks": 33936,
          "time": 101.97114025000002,
          "velocity": 0.31496062992125984
        },
        {
          "duration": 0.14423075000000551,
          "durationTicks": 48,
          "midi": 68,
          "name": "G#4",
          "ticks": 33984,
          "time": 102.11537100000001,
          "velocity": 0.31496062992125984
        },
        {
          "duration": 0.1442307499999913,
          "durationTicks": 48,
          "midi": 68,
          "name": "G#4",
          "ticks": 34032,
          "time": 102.25960175000002,
          "velocity": 0.31496062992125984
        },
        {
          "duration": 0.14423075000000551,
          "durationTicks": 48,
          "midi": 68,
          "name": "G#4",
          "ticks": 34080,
          "time": 102.40383250000001,
          "velocity": 0.31496062992125984
        },
        {
          "duration": 0.14423075000000551,
          "durationTicks": 48,
          "midi": 68,
          "name": "G#4",
          "ticks": 34128,
          "time": 102.54806325000001,
          "velocity": 0.31496062992125984
        },
        {
          "duration": 0.1442307499999913,
          "durationTicks": 48,
          "midi": 68,
          "name": "G#4",
          "ticks": 34176,
          "time": 102.69229400000002,
          "velocity": 0.31496062992125984
        },
        {
          "duration": 0.14423075000000551,
          "durationTicks": 48,
          "midi": 68,
          "name": "G#4",
          "ticks": 34224,
          "time": 102.83652475000001,
          "velocity": 0.31496062992125984
        },
        {
          "duration": 0.1442307499999913,
          "durationTicks": 48,
          "midi": 68,
          "name": "G#4",
          "ticks": 34272,
          "time": 102.98075550000001,
          "velocity": 0.31496062992125984
        },
        {
          "duration": 0.14423075000000551,
          "durationTicks": 48,
          "midi": 68,
          "name": "G#4",
          "ticks": 34320,
          "time": 103.12498625,
          "velocity": 0.31496062992125984
        },
        {
          "duration": 0.14423075000000551,
          "durationTicks": 48,
          "midi": 68,
          "name": "G#4",
          "ticks": 34368,
          "time": 103.26921700000001,
          "velocity": 0.31496062992125984
        },
        {
          "duration": 0.1442307499999913,
          "durationTicks": 48,
          "midi": 68,
          "name": "G#4",
          "ticks": 34416,
          "time": 103.41344775000002,
          "velocity": 0.31496062992125984
        },
        {
          "duration": 0.14423075000000551,
          "durationTicks": 48,
          "midi": 68,
          "name": "G#4",
          "ticks": 34464,
          "time": 103.55767850000001,
          "velocity": 0.31496062992125984
        },
        {
          "duration": 0.14423075000000551,
          "durationTicks": 48,
          "midi": 68,
          "name": "G#4",
          "ticks": 34512,
          "time": 103.70190925000001,
          "velocity": 0.31496062992125984
        },
        {
          "duration": 0.1442307499999913,
          "durationTicks": 48,
          "midi": 68,
          "name": "G#4",
          "ticks": 34560,
          "time": 103.84614000000002,
          "velocity": 0.31496062992125984
        },
        {
          "duration": 0.14423075000000551,
          "durationTicks": 48,
          "midi": 68,
          "name": "G#4",
          "ticks": 34608,
          "time": 103.99037075000001,
          "velocity": 0.31496062992125984
        },
        {
          "duration": 0.1442307499999913,
          "durationTicks": 48,
          "midi": 68,
          "name": "G#4",
          "ticks": 34656,
          "time": 104.13460150000002,
          "velocity": 0.31496062992125984
        },
        {
          "duration": 0.14423075000000551,
          "durationTicks": 48,
          "midi": 68,
          "name": "G#4",
          "ticks": 34704,
          "time": 104.27883225000001,
          "velocity": 0.31496062992125984
        },
        {
          "duration": 0.14423075000000551,
          "durationTicks": 48,
          "midi": 68,
          "name": "G#4",
          "ticks": 34752,
          "time": 104.42306300000001,
          "velocity": 0.31496062992125984
        },
        {
          "duration": 0.1442307499999913,
          "durationTicks": 48,
          "midi": 68,
          "name": "G#4",
          "ticks": 34800,
          "time": 104.56729375000002,
          "velocity": 0.31496062992125984
        },
        {
          "duration": 0.14423075000000551,
          "durationTicks": 48,
          "midi": 68,
          "name": "G#4",
          "ticks": 34848,
          "time": 104.71152450000001,
          "velocity": 0.31496062992125984
        },
        {
          "duration": 0.1442307499999913,
          "durationTicks": 48,
          "midi": 68,
          "name": "G#4",
          "ticks": 34896,
          "time": 104.85575525000002,
          "velocity": 0.31496062992125984
        },
        {
          "duration": 0.14423075000000551,
          "durationTicks": 48,
          "midi": 68,
          "name": "G#4",
          "ticks": 34944,
          "time": 104.999986,
          "velocity": 0.31496062992125984
        },
        {
          "duration": 0.14423075000000551,
          "durationTicks": 48,
          "midi": 68,
          "name": "G#4",
          "ticks": 34992,
          "time": 105.14421675000001,
          "velocity": 0.31496062992125984
        },
        {
          "duration": 0.1442307499999913,
          "durationTicks": 48,
          "midi": 68,
          "name": "G#4",
          "ticks": 35040,
          "time": 105.28844750000002,
          "velocity": 0.31496062992125984
        },
        {
          "duration": 0.14423075000000551,
          "durationTicks": 48,
          "midi": 68,
          "name": "G#4",
          "ticks": 35088,
          "time": 105.43267825000001,
          "velocity": 0.31496062992125984
        },
        {
          "duration": 0.14423075000000551,
          "durationTicks": 48,
          "midi": 68,
          "name": "G#4",
          "ticks": 35136,
          "time": 105.57690900000001,
          "velocity": 0.31496062992125984
        },
        {
          "duration": 0.1442307499999913,
          "durationTicks": 48,
          "midi": 68,
          "name": "G#4",
          "ticks": 35184,
          "time": 105.72113975000002,
          "velocity": 0.31496062992125984
        },
        {
          "duration": 0.14423075000000551,
          "durationTicks": 48,
          "midi": 68,
          "name": "G#4",
          "ticks": 35232,
          "time": 105.86537050000001,
          "velocity": 0.31496062992125984
        },
        {
          "duration": 0.1442307499999913,
          "durationTicks": 48,
          "midi": 68,
          "name": "G#4",
          "ticks": 35280,
          "time": 106.00960125000002,
          "velocity": 0.31496062992125984
        },
        {
          "duration": 0.14423075000000551,
          "durationTicks": 48,
          "midi": 68,
          "name": "G#4",
          "ticks": 35328,
          "time": 106.15383200000001,
          "velocity": 0.31496062992125984
        },
        {
          "duration": 0.14423075000000551,
          "durationTicks": 48,
          "midi": 68,
          "name": "G#4",
          "ticks": 35376,
          "time": 106.29806275000001,
          "velocity": 0.31496062992125984
        },
        {
          "duration": 0.1442307499999913,
          "durationTicks": 48,
          "midi": 68,
          "name": "G#4",
          "ticks": 35424,
          "time": 106.44229350000002,
          "velocity": 0.31496062992125984
        },
        {
          "duration": 0.14423075000000551,
          "durationTicks": 48,
          "midi": 68,
          "name": "G#4",
          "ticks": 35472,
          "time": 106.58652425000001,
          "velocity": 0.31496062992125984
        },
        {
          "duration": 0.1442307499999913,
          "durationTicks": 48,
          "midi": 68,
          "name": "G#4",
          "ticks": 35520,
          "time": 106.73075500000002,
          "velocity": 0.31496062992125984
        },
        {
          "duration": 0.14423075000000551,
          "durationTicks": 48,
          "midi": 68,
          "name": "G#4",
          "ticks": 35568,
          "time": 106.87498575000001,
          "velocity": 0.31496062992125984
        },
        {
          "duration": 0.14423075000000551,
          "durationTicks": 48,
          "midi": 68,
          "name": "G#4",
          "ticks": 35616,
          "time": 107.01921650000001,
          "velocity": 0.31496062992125984
        },
        {
          "duration": 0.1442307499999913,
          "durationTicks": 48,
          "midi": 68,
          "name": "G#4",
          "ticks": 35664,
          "time": 107.16344725000002,
          "velocity": 0.31496062992125984
        },
        {
          "duration": 0.14423075000000551,
          "durationTicks": 48,
          "midi": 68,
          "name": "G#4",
          "ticks": 35712,
          "time": 107.30767800000001,
          "velocity": 0.31496062992125984
        },
        {
          "duration": 0.14423075000000551,
          "durationTicks": 48,
          "midi": 68,
          "name": "G#4",
          "ticks": 35760,
          "time": 107.45190875000002,
          "velocity": 0.31496062992125984
        },
        {
          "duration": 0.1442307499999913,
          "durationTicks": 48,
          "midi": 68,
          "name": "G#4",
          "ticks": 35808,
          "time": 107.59613950000002,
          "velocity": 0.31496062992125984
        },
        {
          "duration": 0.14423075000000551,
          "durationTicks": 48,
          "midi": 68,
          "name": "G#4",
          "ticks": 35856,
          "time": 107.74037025000001,
          "velocity": 0.31496062992125984
        },
        {
          "duration": 0.1442307499999913,
          "durationTicks": 48,
          "midi": 68,
          "name": "G#4",
          "ticks": 35904,
          "time": 107.88460100000002,
          "velocity": 0.31496062992125984
        },
        {
          "duration": 0.14423075000000551,
          "durationTicks": 48,
          "midi": 68,
          "name": "G#4",
          "ticks": 35952,
          "time": 108.02883175000001,
          "velocity": 0.31496062992125984
        },
        {
          "duration": 0.14423075000000551,
          "durationTicks": 48,
          "midi": 68,
          "name": "G#4",
          "ticks": 36000,
          "time": 108.17306250000001,
          "velocity": 0.31496062992125984
        },
        {
          "duration": 0.1442307499999913,
          "durationTicks": 48,
          "midi": 68,
          "name": "G#4",
          "ticks": 36048,
          "time": 108.31729325000002,
          "velocity": 0.31496062992125984
        },
        {
          "duration": 0.14423075000000551,
          "durationTicks": 48,
          "midi": 68,
          "name": "G#4",
          "ticks": 36096,
          "time": 108.46152400000001,
          "velocity": 0.31496062992125984
        },
        {
          "duration": 0.1442307499999913,
          "durationTicks": 48,
          "midi": 68,
          "name": "G#4",
          "ticks": 36144,
          "time": 108.60575475000002,
          "velocity": 0.31496062992125984
        },
        {
          "duration": 0.14423075000000551,
          "durationTicks": 48,
          "midi": 68,
          "name": "G#4",
          "ticks": 36192,
          "time": 108.74998550000001,
          "velocity": 0.31496062992125984
        },
        {
          "duration": 0.14423075000000551,
          "durationTicks": 48,
          "midi": 68,
          "name": "G#4",
          "ticks": 36240,
          "time": 108.89421625000001,
          "velocity": 0.31496062992125984
        },
        {
          "duration": 0.1442307499999913,
          "durationTicks": 48,
          "midi": 68,
          "name": "G#4",
          "ticks": 36288,
          "time": 109.03844700000002,
          "velocity": 0.31496062992125984
        },
        {
          "duration": 0.14423075000000551,
          "durationTicks": 48,
          "midi": 68,
          "name": "G#4",
          "ticks": 36336,
          "time": 109.18267775000001,
          "velocity": 0.31496062992125984
        },
        {
          "duration": 0.1442307499999913,
          "durationTicks": 48,
          "midi": 68,
          "name": "G#4",
          "ticks": 36384,
          "time": 109.32690850000002,
          "velocity": 0.31496062992125984
        },
        {
          "duration": 0.14423075000000551,
          "durationTicks": 48,
          "midi": 68,
          "name": "G#4",
          "ticks": 36432,
          "time": 109.47113925000001,
          "velocity": 0.31496062992125984
        },
        {
          "duration": 0.14423075000000551,
          "durationTicks": 48,
          "midi": 68,
          "name": "G#4",
          "ticks": 36480,
          "time": 109.61537000000001,
          "velocity": 0.31496062992125984
        },
        {
          "duration": 0.1442307499999913,
          "durationTicks": 48,
          "midi": 68,
          "name": "G#4",
          "ticks": 36528,
          "time": 109.75960075000002,
          "velocity": 0.31496062992125984
        },
        {
          "duration": 0.14423075000000551,
          "durationTicks": 48,
          "midi": 68,
          "name": "G#4",
          "ticks": 36576,
          "time": 109.90383150000001,
          "velocity": 0.31496062992125984
        },
        {
          "duration": 0.14423075000000551,
          "durationTicks": 48,
          "midi": 68,
          "name": "G#4",
          "ticks": 36624,
          "time": 110.04806225000002,
          "velocity": 0.31496062992125984
        },
        {
          "duration": 0.1442307499999913,
          "durationTicks": 48,
          "midi": 68,
          "name": "G#4",
          "ticks": 36672,
          "time": 110.19229300000002,
          "velocity": 0.31496062992125984
        },
        {
          "duration": 0.14423075000000551,
          "durationTicks": 48,
          "midi": 68,
          "name": "G#4",
          "ticks": 36720,
          "time": 110.33652375000001,
          "velocity": 0.31496062992125984
        },
        {
          "duration": 0.1442307499999913,
          "durationTicks": 48,
          "midi": 68,
          "name": "G#4",
          "ticks": 36768,
          "time": 110.48075450000002,
          "velocity": 0.31496062992125984
        },
        {
          "duration": 0.14423075000000551,
          "durationTicks": 48,
          "midi": 68,
          "name": "G#4",
          "ticks": 36816,
          "time": 110.62498525000001,
          "velocity": 0.31496062992125984
        },
        {
          "duration": 0.14423075000000551,
          "durationTicks": 48,
          "midi": 68,
          "name": "G#4",
          "ticks": 36864,
          "time": 110.76921600000001,
          "velocity": 0.31496062992125984
        },
        {
          "duration": 0.1442307499999913,
          "durationTicks": 48,
          "midi": 68,
          "name": "G#4",
          "ticks": 36912,
          "time": 110.91344675000002,
          "velocity": 0.31496062992125984
        },
        {
          "duration": 0.14423075000000551,
          "durationTicks": 48,
          "midi": 68,
          "name": "G#4",
          "ticks": 36960,
          "time": 111.05767750000001,
          "velocity": 0.31496062992125984
        },
        {
          "duration": 0.1442307499999913,
          "durationTicks": 48,
          "midi": 68,
          "name": "G#4",
          "ticks": 37008,
          "time": 111.20190825000002,
          "velocity": 0.31496062992125984
        },
        {
          "duration": 0.14423075000000551,
          "durationTicks": 48,
          "midi": 68,
          "name": "G#4",
          "ticks": 37056,
          "time": 111.34613900000001,
          "velocity": 0.31496062992125984
        },
        {
          "duration": 0.14423075000000551,
          "durationTicks": 48,
          "midi": 68,
          "name": "G#4",
          "ticks": 37104,
          "time": 111.49036975000001,
          "velocity": 0.31496062992125984
        },
        {
          "duration": 0.1442307499999913,
          "durationTicks": 48,
          "midi": 68,
          "name": "G#4",
          "ticks": 37152,
          "time": 111.63460050000002,
          "velocity": 0.31496062992125984
        },
        {
          "duration": 0.14423075000000551,
          "durationTicks": 48,
          "midi": 68,
          "name": "G#4",
          "ticks": 37200,
          "time": 111.77883125000001,
          "velocity": 0.31496062992125984
        },
        {
          "duration": 0.14423075000000551,
          "durationTicks": 48,
          "midi": 68,
          "name": "G#4",
          "ticks": 37248,
          "time": 111.92306200000002,
          "velocity": 0.31496062992125984
        },
        {
          "duration": 0.1442307499999913,
          "durationTicks": 48,
          "midi": 68,
          "name": "G#4",
          "ticks": 37296,
          "time": 112.06729275000002,
          "velocity": 0.31496062992125984
        },
        {
          "duration": 0.14423075000000551,
          "durationTicks": 48,
          "midi": 68,
          "name": "G#4",
          "ticks": 37344,
          "time": 112.21152350000001,
          "velocity": 0.31496062992125984
        },
        {
          "duration": 0.1442307499999913,
          "durationTicks": 48,
          "midi": 68,
          "name": "G#4",
          "ticks": 37392,
          "time": 112.35575425000002,
          "velocity": 0.31496062992125984
        },
        {
          "duration": 0.14423075000000551,
          "durationTicks": 48,
          "midi": 68,
          "name": "G#4",
          "ticks": 37440,
          "time": 112.49998500000001,
          "velocity": 0.31496062992125984
        },
        {
          "duration": 0.14423075000000551,
          "durationTicks": 48,
          "midi": 68,
          "name": "G#4",
          "ticks": 37488,
          "time": 112.64421575000001,
          "velocity": 0.31496062992125984
        },
        {
          "duration": 0.1442307499999913,
          "durationTicks": 48,
          "midi": 68,
          "name": "G#4",
          "ticks": 37536,
          "time": 112.78844650000002,
          "velocity": 0.31496062992125984
        },
        {
          "duration": 0.14423075000000551,
          "durationTicks": 48,
          "midi": 68,
          "name": "G#4",
          "ticks": 37584,
          "time": 112.93267725000001,
          "velocity": 0.31496062992125984
        },
        {
          "duration": 0.1442307499999913,
          "durationTicks": 48,
          "midi": 68,
          "name": "G#4",
          "ticks": 37632,
          "time": 113.07690800000002,
          "velocity": 0.31496062992125984
        },
        {
          "duration": 0.14423075000000551,
          "durationTicks": 48,
          "midi": 68,
          "name": "G#4",
          "ticks": 37680,
          "time": 113.22113875000001,
          "velocity": 0.31496062992125984
        },
        {
          "duration": 0.14423075000000551,
          "durationTicks": 48,
          "midi": 68,
          "name": "G#4",
          "ticks": 37728,
          "time": 113.36536950000001,
          "velocity": 0.31496062992125984
        },
        {
          "duration": 0.1442307499999913,
          "durationTicks": 48,
          "midi": 68,
          "name": "G#4",
          "ticks": 37776,
          "time": 113.50960025000002,
          "velocity": 0.31496062992125984
        },
        {
          "duration": 0.14423075000000551,
          "durationTicks": 48,
          "midi": 68,
          "name": "G#4",
          "ticks": 37824,
          "time": 113.65383100000001,
          "velocity": 0.31496062992125984
        },
        {
          "duration": 0.1442307499999913,
          "durationTicks": 48,
          "midi": 68,
          "name": "G#4",
          "ticks": 37872,
          "time": 113.79806175000002,
          "velocity": 0.31496062992125984
        },
        {
          "duration": 0.14423075000000551,
          "durationTicks": 48,
          "midi": 68,
          "name": "G#4",
          "ticks": 37920,
          "time": 113.94229250000001,
          "velocity": 0.31496062992125984
        },
        {
          "duration": 0.14423075000000551,
          "durationTicks": 48,
          "midi": 68,
          "name": "G#4",
          "ticks": 37968,
          "time": 114.08652325000001,
          "velocity": 0.31496062992125984
        },
        {
          "duration": 0.1442307499999913,
          "durationTicks": 48,
          "midi": 68,
          "name": "G#4",
          "ticks": 38016,
          "time": 114.23075400000002,
          "velocity": 0.31496062992125984
        },
        {
          "duration": 0.14423075000000551,
          "durationTicks": 48,
          "midi": 68,
          "name": "G#4",
          "ticks": 38064,
          "time": 114.37498475000001,
          "velocity": 0.31496062992125984
        },
        {
          "duration": 0.14423075000000551,
          "durationTicks": 48,
          "midi": 68,
          "name": "G#4",
          "ticks": 38112,
          "time": 114.51921550000002,
          "velocity": 0.31496062992125984
        },
        {
          "duration": 0.1442307499999913,
          "durationTicks": 48,
          "midi": 68,
          "name": "G#4",
          "ticks": 38160,
          "time": 114.66344625000002,
          "velocity": 0.31496062992125984
        },
        {
          "duration": 0.14423075000000551,
          "durationTicks": 48,
          "midi": 68,
          "name": "G#4",
          "ticks": 38208,
          "time": 114.80767700000001,
          "velocity": 0.31496062992125984
        },
        {
          "duration": 0.1442307499999913,
          "durationTicks": 48,
          "midi": 68,
          "name": "G#4",
          "ticks": 38256,
          "time": 114.95190775000002,
          "velocity": 0.31496062992125984
        },
        {
          "duration": 0.14423075000000551,
          "durationTicks": 48,
          "midi": 68,
          "name": "G#4",
          "ticks": 38304,
          "time": 115.09613850000001,
          "velocity": 0.31496062992125984
        },
        {
          "duration": 0.14423075000000551,
          "durationTicks": 48,
          "midi": 68,
          "name": "G#4",
          "ticks": 38352,
          "time": 115.24036925000001,
          "velocity": 0.31496062992125984
        },
        {
          "duration": 0.1442307499999913,
          "durationTicks": 48,
          "midi": 68,
          "name": "G#4",
          "ticks": 38400,
          "time": 115.38460000000002,
          "velocity": 0.31496062992125984
        },
        {
          "duration": 0.14423075000000551,
          "durationTicks": 48,
          "midi": 68,
          "name": "G#4",
          "ticks": 38448,
          "time": 115.52883075000001,
          "velocity": 0.31496062992125984
        },
        {
          "duration": 0.1442307499999913,
          "durationTicks": 48,
          "midi": 68,
          "name": "G#4",
          "ticks": 38496,
          "time": 115.67306150000002,
          "velocity": 0.31496062992125984
        },
        {
          "duration": 0.14423075000000551,
          "durationTicks": 48,
          "midi": 68,
          "name": "G#4",
          "ticks": 38544,
          "time": 115.81729225000001,
          "velocity": 0.31496062992125984
        },
        {
          "duration": 0.14423075000000551,
          "durationTicks": 48,
          "midi": 68,
          "name": "G#4",
          "ticks": 38592,
          "time": 115.96152300000001,
          "velocity": 0.31496062992125984
        },
        {
          "duration": 0.1442307499999913,
          "durationTicks": 48,
          "midi": 68,
          "name": "G#4",
          "ticks": 38640,
          "time": 116.10575375000002,
          "velocity": 0.31496062992125984
        },
        {
          "duration": 0.14423075000000551,
          "durationTicks": 48,
          "midi": 68,
          "name": "G#4",
          "ticks": 38688,
          "time": 116.24998450000001,
          "velocity": 0.31496062992125984
        },
        {
          "duration": 0.14423075000000551,
          "durationTicks": 48,
          "midi": 68,
          "name": "G#4",
          "ticks": 38736,
          "time": 116.39421525000002,
          "velocity": 0.31496062992125984
        },
        {
          "duration": 0.1442307499999913,
          "durationTicks": 48,
          "midi": 68,
          "name": "G#4",
          "ticks": 38784,
          "time": 116.53844600000002,
          "velocity": 0.31496062992125984
        },
        {
          "duration": 0.14423075000000551,
          "durationTicks": 48,
          "midi": 68,
          "name": "G#4",
          "ticks": 38832,
          "time": 116.68267675000001,
          "velocity": 0.31496062992125984
        },
        {
          "duration": 0.1442307499999913,
          "durationTicks": 48,
          "midi": 68,
          "name": "G#4",
          "ticks": 38880,
          "time": 116.82690750000002,
          "velocity": 0.31496062992125984
        },
        {
          "duration": 0.14423075000000551,
          "durationTicks": 48,
          "midi": 68,
          "name": "G#4",
          "ticks": 38928,
          "time": 116.97113825000001,
          "velocity": 0.31496062992125984
        },
        {
          "duration": 0.14423075000000551,
          "durationTicks": 48,
          "midi": 68,
          "name": "G#4",
          "ticks": 38976,
          "time": 117.11536900000002,
          "velocity": 0.31496062992125984
        },
        {
          "duration": 0.1442307499999913,
          "durationTicks": 48,
          "midi": 68,
          "name": "G#4",
          "ticks": 39024,
          "time": 117.25959975000002,
          "velocity": 0.31496062992125984
        },
        {
          "duration": 0.14423075000000551,
          "durationTicks": 48,
          "midi": 68,
          "name": "G#4",
          "ticks": 39072,
          "time": 117.40383050000001,
          "velocity": 0.31496062992125984
        },
        {
          "duration": 0.1442307499999913,
          "durationTicks": 48,
          "midi": 68,
          "name": "G#4",
          "ticks": 39120,
          "time": 117.54806125000002,
          "velocity": 0.31496062992125984
        },
        {
          "duration": 0.14423075000000551,
          "durationTicks": 48,
          "midi": 68,
          "name": "G#4",
          "ticks": 39168,
          "time": 117.69229200000001,
          "velocity": 0.31496062992125984
        },
        {
          "duration": 0.14423075000000551,
          "durationTicks": 48,
          "midi": 68,
          "name": "G#4",
          "ticks": 39216,
          "time": 117.83652275000001,
          "velocity": 0.31496062992125984
        },
        {
          "duration": 0.1442307499999913,
          "durationTicks": 48,
          "midi": 68,
          "name": "G#4",
          "ticks": 39264,
          "time": 117.98075350000002,
          "velocity": 0.31496062992125984
        },
        {
          "duration": 0.14423075000000551,
          "durationTicks": 48,
          "midi": 68,
          "name": "G#4",
          "ticks": 39312,
          "time": 118.12498425000001,
          "velocity": 0.31496062992125984
        },
        {
          "duration": 0.14423075000000551,
          "durationTicks": 48,
          "midi": 68,
          "name": "G#4",
          "ticks": 39360,
          "time": 118.26921500000002,
          "velocity": 0.31496062992125984
        },
        {
          "duration": 0.1442307499999913,
          "durationTicks": 48,
          "midi": 68,
          "name": "G#4",
          "ticks": 39408,
          "time": 118.41344575000002,
          "velocity": 0.31496062992125984
        },
        {
          "duration": 0.14423075000000551,
          "durationTicks": 48,
          "midi": 68,
          "name": "G#4",
          "ticks": 39456,
          "time": 118.55767650000001,
          "velocity": 0.31496062992125984
        },
        {
          "duration": 0.1442307499999913,
          "durationTicks": 48,
          "midi": 68,
          "name": "G#4",
          "ticks": 39504,
          "time": 118.70190725000002,
          "velocity": 0.31496062992125984
        },
        {
          "duration": 0.14423075000000551,
          "durationTicks": 48,
          "midi": 68,
          "name": "G#4",
          "ticks": 39552,
          "time": 118.84613800000001,
          "velocity": 0.31496062992125984
        },
        {
          "duration": 0.14423075000000551,
          "durationTicks": 48,
          "midi": 68,
          "name": "G#4",
          "ticks": 39600,
          "time": 118.99036875000002,
          "velocity": 0.31496062992125984
        },
        {
          "duration": 0.1442307499999913,
          "durationTicks": 48,
          "midi": 68,
          "name": "G#4",
          "ticks": 39648,
          "time": 119.13459950000002,
          "velocity": 0.31496062992125984
        },
        {
          "duration": 0.14423075000000551,
          "durationTicks": 48,
          "midi": 68,
          "name": "G#4",
          "ticks": 39696,
          "time": 119.27883025000001,
          "velocity": 0.31496062992125984
        },
        {
          "duration": 0.1442307499999913,
          "durationTicks": 48,
          "midi": 68,
          "name": "G#4",
          "ticks": 39744,
          "time": 119.42306100000002,
          "velocity": 0.31496062992125984
        },
        {
          "duration": 0.14423075000000551,
          "durationTicks": 48,
          "midi": 68,
          "name": "G#4",
          "ticks": 39792,
          "time": 119.56729175000001,
          "velocity": 0.31496062992125984
        },
        {
          "duration": 0.14423075000000551,
          "durationTicks": 48,
          "midi": 68,
          "name": "G#4",
          "ticks": 39840,
          "time": 119.71152250000002,
          "velocity": 0.31496062992125984
        },
        {
          "duration": 0.1442307499999913,
          "durationTicks": 48,
          "midi": 68,
          "name": "G#4",
          "ticks": 39888,
          "time": 119.85575325000002,
          "velocity": 0.31496062992125984
        },
        {
          "duration": 0.14423075000000551,
          "durationTicks": 48,
          "midi": 68,
          "name": "G#4",
          "ticks": 39936,
          "time": 119.99998400000001,
          "velocity": 0.31496062992125984
        },
        {
          "duration": 0.1442307499999913,
          "durationTicks": 48,
          "midi": 68,
          "name": "G#4",
          "ticks": 39984,
          "time": 120.14421475000002,
          "velocity": 0.31496062992125984
        },
        {
          "duration": 0.14423075000000551,
          "durationTicks": 48,
          "midi": 68,
          "name": "G#4",
          "ticks": 40032,
          "time": 120.28844550000001,
          "velocity": 0.31496062992125984
        },
        {
          "duration": 0.14423075000000551,
          "durationTicks": 48,
          "midi": 68,
          "name": "G#4",
          "ticks": 40080,
          "time": 120.43267625000001,
          "velocity": 0.31496062992125984
        },
        {
          "duration": 0.1442307499999913,
          "durationTicks": 48,
          "midi": 68,
          "name": "G#4",
          "ticks": 40128,
          "time": 120.57690700000002,
          "velocity": 0.31496062992125984
        },
        {
          "duration": 0.14423075000000551,
          "durationTicks": 48,
          "midi": 68,
          "name": "G#4",
          "ticks": 40176,
          "time": 120.72113775000001,
          "velocity": 0.31496062992125984
        },
        {
          "duration": 0.14423075000000551,
          "durationTicks": 48,
          "midi": 68,
          "name": "G#4",
          "ticks": 40224,
          "time": 120.86536850000002,
          "velocity": 0.31496062992125984
        },
        {
          "duration": 0.1442307499999913,
          "durationTicks": 48,
          "midi": 68,
          "name": "G#4",
          "ticks": 40272,
          "time": 121.00959925000002,
          "velocity": 0.31496062992125984
        },
        {
          "duration": 0.14423075000000551,
          "durationTicks": 48,
          "midi": 68,
          "name": "G#4",
          "ticks": 40320,
          "time": 121.15383000000001,
          "velocity": 0.31496062992125984
        },
        {
          "duration": 0.1442307499999913,
          "durationTicks": 48,
          "midi": 68,
          "name": "G#4",
          "ticks": 40368,
          "time": 121.29806075000002,
          "velocity": 0.31496062992125984
        },
        {
          "duration": 0.14423075000000551,
          "durationTicks": 48,
          "midi": 68,
          "name": "G#4",
          "ticks": 40416,
          "time": 121.44229150000001,
          "velocity": 0.31496062992125984
        },
        {
          "duration": 0.14423075000000551,
          "durationTicks": 48,
          "midi": 68,
          "name": "G#4",
          "ticks": 40464,
          "time": 121.58652225000002,
          "velocity": 0.31496062992125984
        },
        {
          "duration": 0.1442307499999913,
          "durationTicks": 48,
          "midi": 68,
          "name": "G#4",
          "ticks": 40512,
          "time": 121.73075300000002,
          "velocity": 0.31496062992125984
        },
        {
          "duration": 0.14423075000000551,
          "durationTicks": 48,
          "midi": 68,
          "name": "G#4",
          "ticks": 40560,
          "time": 121.87498375000001,
          "velocity": 0.31496062992125984
        },
        {
          "duration": 0.1442307499999913,
          "durationTicks": 48,
          "midi": 68,
          "name": "G#4",
          "ticks": 40608,
          "time": 122.01921450000002,
          "velocity": 0.31496062992125984
        },
        {
          "duration": 0.14423075000000551,
          "durationTicks": 48,
          "midi": 68,
          "name": "G#4",
          "ticks": 40656,
          "time": 122.16344525000001,
          "velocity": 0.31496062992125984
        },
        {
          "duration": 0.14423075000000551,
          "durationTicks": 48,
          "midi": 68,
          "name": "G#4",
          "ticks": 40704,
          "time": 122.30767600000001,
          "velocity": 0.31496062992125984
        },
        {
          "duration": 0.1442307499999913,
          "durationTicks": 48,
          "midi": 68,
          "name": "G#4",
          "ticks": 40752,
          "time": 122.45190675000002,
          "velocity": 0.31496062992125984
        },
        {
          "duration": 0.14423075000000551,
          "durationTicks": 48,
          "midi": 68,
          "name": "G#4",
          "ticks": 40800,
          "time": 122.59613750000001,
          "velocity": 0.31496062992125984
        },
        {
          "duration": 0.14423075000000551,
          "durationTicks": 48,
          "midi": 68,
          "name": "G#4",
          "ticks": 40848,
          "time": 122.74036825000002,
          "velocity": 0.31496062992125984
        },
        {
          "duration": 0.1442307499999913,
          "durationTicks": 48,
          "midi": 68,
          "name": "G#4",
          "ticks": 40896,
          "time": 122.88459900000002,
          "velocity": 0.31496062992125984
        },
        {
          "duration": 0.14423075000000551,
          "durationTicks": 48,
          "midi": 68,
          "name": "G#4",
          "ticks": 40944,
          "time": 123.02882975000001,
          "velocity": 0.31496062992125984
        },
        {
          "duration": 0.1442307499999913,
          "durationTicks": 48,
          "midi": 68,
          "name": "G#4",
          "ticks": 40992,
          "time": 123.17306050000002,
          "velocity": 0.31496062992125984
        },
        {
          "duration": 0.14423075000000551,
          "durationTicks": 48,
          "midi": 68,
          "name": "G#4",
          "ticks": 41040,
          "time": 123.31729125000001,
          "velocity": 0.31496062992125984
        },
        {
          "duration": 0.14423075000000551,
          "durationTicks": 48,
          "midi": 68,
          "name": "G#4",
          "ticks": 41088,
          "time": 123.46152200000002,
          "velocity": 0.31496062992125984
        },
        {
          "duration": 0.1442307499999913,
          "durationTicks": 48,
          "midi": 68,
          "name": "G#4",
          "ticks": 41136,
          "time": 123.60575275000002,
          "velocity": 0.31496062992125984
        },
        {
          "duration": 0.14423075000000551,
          "durationTicks": 48,
          "midi": 68,
          "name": "G#4",
          "ticks": 41184,
          "time": 123.74998350000001,
          "velocity": 0.31496062992125984
        },
        {
          "duration": 0.1442307499999913,
          "durationTicks": 48,
          "midi": 68,
          "name": "G#4",
          "ticks": 41232,
          "time": 123.89421425000002,
          "velocity": 0.31496062992125984
        },
        {
          "duration": 0.14423075000000551,
          "durationTicks": 48,
          "midi": 68,
          "name": "G#4",
          "ticks": 41280,
          "time": 124.03844500000001,
          "velocity": 0.31496062992125984
        },
        {
          "duration": 0.14423075000000551,
          "durationTicks": 48,
          "midi": 68,
          "name": "G#4",
          "ticks": 41328,
          "time": 124.18267575000002,
          "velocity": 0.31496062992125984
        },
        {
          "duration": 0.1442307499999913,
          "durationTicks": 48,
          "midi": 68,
          "name": "G#4",
          "ticks": 41376,
          "time": 124.32690650000002,
          "velocity": 0.31496062992125984
        },
        {
          "duration": 0.14423075000000551,
          "durationTicks": 48,
          "midi": 68,
          "name": "G#4",
          "ticks": 41424,
          "time": 124.47113725000001,
          "velocity": 0.31496062992125984
        },
        {
          "duration": 0.1442307499999913,
          "durationTicks": 48,
          "midi": 68,
          "name": "G#4",
          "ticks": 41472,
          "time": 124.61536800000002,
          "velocity": 0.31496062992125984
        },
        {
          "duration": 0.14423075000000551,
          "durationTicks": 48,
          "midi": 68,
          "name": "G#4",
          "ticks": 41520,
          "time": 124.75959875000001,
          "velocity": 0.31496062992125984
        },
        {
          "duration": 0.14423075000000551,
          "durationTicks": 48,
          "midi": 68,
          "name": "G#4",
          "ticks": 41568,
          "time": 124.90382950000001,
          "velocity": 0.31496062992125984
        },
        {
          "duration": 0.1442307499999913,
          "durationTicks": 48,
          "midi": 68,
          "name": "G#4",
          "ticks": 41616,
          "time": 125.04806025000002,
          "velocity": 0.31496062992125984
        },
        {
          "duration": 0.14423075000000551,
          "durationTicks": 48,
          "midi": 68,
          "name": "G#4",
          "ticks": 41664,
          "time": 125.19229100000001,
          "velocity": 0.31496062992125984
        },
        {
          "duration": 0.14423075000000551,
          "durationTicks": 48,
          "midi": 68,
          "name": "G#4",
          "ticks": 41712,
          "time": 125.33652175000002,
          "velocity": 0.31496062992125984
        },
        {
          "duration": 0.1442307499999913,
          "durationTicks": 48,
          "midi": 68,
          "name": "G#4",
          "ticks": 41760,
          "time": 125.48075250000002,
          "velocity": 0.31496062992125984
        },
        {
          "duration": 0.14423075000000551,
          "durationTicks": 48,
          "midi": 68,
          "name": "G#4",
          "ticks": 41808,
          "time": 125.62498325000001,
          "velocity": 0.31496062992125984
        },
        {
          "duration": 0.1442307499999913,
          "durationTicks": 48,
          "midi": 68,
          "name": "G#4",
          "ticks": 41856,
          "time": 125.76921400000002,
          "velocity": 0.31496062992125984
        },
        {
          "duration": 0.14423075000000551,
          "durationTicks": 48,
          "midi": 68,
          "name": "G#4",
          "ticks": 41904,
          "time": 125.91344475000001,
          "velocity": 0.31496062992125984
        },
        {
          "duration": 0.14423075000000551,
          "durationTicks": 48,
          "midi": 68,
          "name": "G#4",
          "ticks": 41952,
          "time": 126.05767550000002,
          "velocity": 0.31496062992125984
        },
        {
          "duration": 0.1442307499999913,
          "durationTicks": 48,
          "midi": 68,
          "name": "G#4",
          "ticks": 42000,
          "time": 126.20190625000002,
          "velocity": 0.31496062992125984
        },
        {
          "duration": 0.14423075000000551,
          "durationTicks": 48,
          "midi": 68,
          "name": "G#4",
          "ticks": 42048,
          "time": 126.34613700000001,
          "velocity": 0.31496062992125984
        },
        {
          "duration": 0.1442307499999913,
          "durationTicks": 48,
          "midi": 68,
          "name": "G#4",
          "ticks": 42096,
          "time": 126.49036775000002,
          "velocity": 0.31496062992125984
        },
        {
          "duration": 0.14423075000000551,
          "durationTicks": 48,
          "midi": 68,
          "name": "G#4",
          "ticks": 42144,
          "time": 126.63459850000001,
          "velocity": 0.31496062992125984
        },
        {
          "duration": 0.14423075000000551,
          "durationTicks": 48,
          "midi": 68,
          "name": "G#4",
          "ticks": 42192,
          "time": 126.77882925000002,
          "velocity": 0.31496062992125984
        },
        {
          "duration": 0.1442307499999913,
          "durationTicks": 48,
          "midi": 68,
          "name": "G#4",
          "ticks": 42240,
          "time": 126.92306000000002,
          "velocity": 0.31496062992125984
        },
        {
          "duration": 0.14423075000000551,
          "durationTicks": 48,
          "midi": 68,
          "name": "G#4",
          "ticks": 42288,
          "time": 127.06729075000001,
          "velocity": 0.31496062992125984
        },
        {
          "duration": 0.14423075000000551,
          "durationTicks": 48,
          "midi": 68,
          "name": "G#4",
          "ticks": 42336,
          "time": 127.21152150000002,
          "velocity": 0.31496062992125984
        },
        {
          "duration": 0.1442307499999913,
          "durationTicks": 48,
          "midi": 68,
          "name": "G#4",
          "ticks": 42384,
          "time": 127.35575225000002,
          "velocity": 0.31496062992125984
        },
        {
          "duration": 0.14423075000000551,
          "durationTicks": 48,
          "midi": 68,
          "name": "G#4",
          "ticks": 42432,
          "time": 127.49998300000001,
          "velocity": 0.31496062992125984
        },
        {
          "duration": 0.1442307499999913,
          "durationTicks": 48,
          "midi": 68,
          "name": "G#4",
          "ticks": 42480,
          "time": 127.64421375000002,
          "velocity": 0.31496062992125984
        },
        {
          "duration": 0.14423075000000551,
          "durationTicks": 48,
          "midi": 68,
          "name": "G#4",
          "ticks": 42528,
          "time": 127.78844450000001,
          "velocity": 0.31496062992125984
        },
        {
          "duration": 0.1442307499999913,
          "durationTicks": 48,
          "midi": 68,
          "name": "G#4",
          "ticks": 42576,
          "time": 127.93267525000002,
          "velocity": 0.31496062992125984
        },
        {
          "duration": 0.14423075000001973,
          "durationTicks": 48,
          "midi": 68,
          "name": "G#4",
          "ticks": 42624,
          "time": 128.076906,
          "velocity": 0.31496062992125984
        },
        {
          "duration": 0.1442307499999913,
          "durationTicks": 48,
          "midi": 68,
          "name": "G#4",
          "ticks": 42672,
          "time": 128.22113675000003,
          "velocity": 0.31496062992125984
        },
        {
          "duration": 0.1442307499999913,
          "durationTicks": 48,
          "midi": 68,
          "name": "G#4",
          "ticks": 42720,
          "time": 128.36536750000002,
          "velocity": 0.31496062992125984
        },
        {
          "duration": 0.14423075000001973,
          "durationTicks": 48,
          "midi": 68,
          "name": "G#4",
          "ticks": 42768,
          "time": 128.50959825,
          "velocity": 0.31496062992125984
        },
        {
          "duration": 0.1442307499999913,
          "durationTicks": 48,
          "midi": 68,
          "name": "G#4",
          "ticks": 42816,
          "time": 128.65382900000003,
          "velocity": 0.31496062992125984
        },
        {
          "duration": 0.1442307499999913,
          "durationTicks": 48,
          "midi": 68,
          "name": "G#4",
          "ticks": 42864,
          "time": 128.79805975000002,
          "velocity": 0.31496062992125984
        },
        {
          "duration": 0.1442307499999913,
          "durationTicks": 48,
          "midi": 68,
          "name": "G#4",
          "ticks": 42912,
          "time": 128.9422905,
          "velocity": 0.31496062992125984
        },
        {
          "duration": 0.14423075000001973,
          "durationTicks": 48,
          "midi": 68,
          "name": "G#4",
          "ticks": 42960,
          "time": 129.08652125,
          "velocity": 0.31496062992125984
        },
        {
          "duration": 0.1442307499999913,
          "durationTicks": 48,
          "midi": 68,
          "name": "G#4",
          "ticks": 43008,
          "time": 129.23075200000002,
          "velocity": 0.31496062992125984
        },
        {
          "duration": 0.1442307499999913,
          "durationTicks": 48,
          "midi": 68,
          "name": "G#4",
          "ticks": 43056,
          "time": 129.37498275000002,
          "velocity": 0.31496062992125984
        },
        {
          "duration": 0.14423075000001973,
          "durationTicks": 48,
          "midi": 68,
          "name": "G#4",
          "ticks": 43104,
          "time": 129.5192135,
          "velocity": 0.31496062992125984
        },
        {
          "duration": 0.1442307499999913,
          "durationTicks": 48,
          "midi": 68,
          "name": "G#4",
          "ticks": 43152,
          "time": 129.66344425000003,
          "velocity": 0.31496062992125984
        },
        {
          "duration": 0.1442307499999913,
          "durationTicks": 48,
          "midi": 68,
          "name": "G#4",
          "ticks": 43200,
          "time": 129.80767500000002,
          "velocity": 0.31496062992125984
        },
        {
          "duration": 0.14423075000001973,
          "durationTicks": 48,
          "midi": 68,
          "name": "G#4",
          "ticks": 43248,
          "time": 129.95190575,
          "velocity": 0.31496062992125984
        },
        {
          "duration": 0.1442307499999913,
          "durationTicks": 48,
          "midi": 68,
          "name": "G#4",
          "ticks": 43296,
          "time": 130.09613650000003,
          "velocity": 0.31496062992125984
        },
        {
          "duration": 0.1442307499999913,
          "durationTicks": 48,
          "midi": 68,
          "name": "G#4",
          "ticks": 43344,
          "time": 130.24036725000002,
          "velocity": 0.31496062992125984
        },
        {
          "duration": 0.14423075000001973,
          "durationTicks": 48,
          "midi": 68,
          "name": "G#4",
          "ticks": 43392,
          "time": 130.384598,
          "velocity": 0.31496062992125984
        },
        {
          "duration": 0.1442307499999913,
          "durationTicks": 48,
          "midi": 68,
          "name": "G#4",
          "ticks": 43440,
          "time": 130.52882875000003,
          "velocity": 0.31496062992125984
        },
        {
          "duration": 0.1442307499999913,
          "durationTicks": 48,
          "midi": 68,
          "name": "G#4",
          "ticks": 43488,
          "time": 130.67305950000002,
          "velocity": 0.31496062992125984
        },
        {
          "duration": 0.1442307499999913,
          "durationTicks": 48,
          "midi": 68,
          "name": "G#4",
          "ticks": 43536,
          "time": 130.81729025,
          "velocity": 0.31496062992125984
        },
        {
          "duration": 0.14423075000001973,
          "durationTicks": 48,
          "midi": 68,
          "name": "G#4",
          "ticks": 43584,
          "time": 130.961521,
          "velocity": 0.31496062992125984
        },
        {
          "duration": 0.1442307499999913,
          "durationTicks": 48,
          "midi": 68,
          "name": "G#4",
          "ticks": 43632,
          "time": 131.10575175000002,
          "velocity": 0.31496062992125984
        },
        {
          "duration": 0.1442307499999913,
          "durationTicks": 48,
          "midi": 68,
          "name": "G#4",
          "ticks": 43680,
          "time": 131.24998250000002,
          "velocity": 0.31496062992125984
        },
        {
          "duration": 0.14423075000001973,
          "durationTicks": 48,
          "midi": 68,
          "name": "G#4",
          "ticks": 43728,
          "time": 131.39421325,
          "velocity": 0.31496062992125984
        },
        {
          "duration": 0.1442307499999913,
          "durationTicks": 48,
          "midi": 68,
          "name": "G#4",
          "ticks": 43776,
          "time": 131.53844400000003,
          "velocity": 0.31496062992125984
        },
        {
          "duration": 0.1442307499999913,
          "durationTicks": 48,
          "midi": 68,
          "name": "G#4",
          "ticks": 43824,
          "time": 131.68267475000002,
          "velocity": 0.31496062992125984
        },
        {
          "duration": 0.14423075000001973,
          "durationTicks": 48,
          "midi": 68,
          "name": "G#4",
          "ticks": 43872,
          "time": 131.8269055,
          "velocity": 0.31496062992125984
        },
        {
          "duration": 0.1442307499999913,
          "durationTicks": 48,
          "midi": 68,
          "name": "G#4",
          "ticks": 43920,
          "time": 131.97113625000003,
          "velocity": 0.31496062992125984
        },
        {
          "duration": 0.1442307499999913,
          "durationTicks": 48,
          "midi": 68,
          "name": "G#4",
          "ticks": 43968,
          "time": 132.11536700000002,
          "velocity": 0.31496062992125984
        },
        {
          "duration": 0.1442307499999913,
          "durationTicks": 48,
          "midi": 68,
          "name": "G#4",
          "ticks": 44016,
          "time": 132.25959775,
          "velocity": 0.31496062992125984
        },
        {
          "duration": 0.14423075000001973,
          "durationTicks": 48,
          "midi": 68,
          "name": "G#4",
          "ticks": 44064,
          "time": 132.4038285,
          "velocity": 0.31496062992125984
        },
        {
          "duration": 0.1442307499999913,
          "durationTicks": 48,
          "midi": 68,
          "name": "G#4",
          "ticks": 44112,
          "time": 132.54805925000002,
          "velocity": 0.31496062992125984
        },
        {
          "duration": 0.1442307499999913,
          "durationTicks": 48,
          "midi": 68,
          "name": "G#4",
          "ticks": 44160,
          "time": 132.69229,
          "velocity": 0.31496062992125984
        },
        {
          "duration": 0.14423075000001973,
          "durationTicks": 48,
          "midi": 68,
          "name": "G#4",
          "ticks": 44208,
          "time": 132.83652075,
          "velocity": 0.31496062992125984
        },
        {
          "duration": 0.1442307499999913,
          "durationTicks": 48,
          "midi": 68,
          "name": "G#4",
          "ticks": 44256,
          "time": 132.98075150000003,
          "velocity": 0.31496062992125984
        },
        {
          "duration": 0.1442307499999913,
          "durationTicks": 48,
          "midi": 68,
          "name": "G#4",
          "ticks": 44304,
          "time": 133.12498225000002,
          "velocity": 0.31496062992125984
        },
        {
          "duration": 0.14423075000001973,
          "durationTicks": 48,
          "midi": 68,
          "name": "G#4",
          "ticks": 44352,
          "time": 133.269213,
          "velocity": 0.31496062992125984
        },
        {
          "duration": 0.1442307499999913,
          "durationTicks": 48,
          "midi": 68,
          "name": "G#4",
          "ticks": 44400,
          "time": 133.41344375000003,
          "velocity": 0.31496062992125984
        },
        {
          "duration": 0.1442307499999913,
          "durationTicks": 48,
          "midi": 68,
          "name": "G#4",
          "ticks": 44448,
          "time": 133.55767450000002,
          "velocity": 0.31496062992125984
        },
        {
          "duration": 0.14423075000001973,
          "durationTicks": 48,
          "midi": 68,
          "name": "G#4",
          "ticks": 44496,
          "time": 133.70190525,
          "velocity": 0.31496062992125984
        },
        {
          "duration": 0.1442307499999913,
          "durationTicks": 48,
          "midi": 68,
          "name": "G#4",
          "ticks": 44544,
          "time": 133.84613600000003,
          "velocity": 0.31496062992125984
        },
        {
          "duration": 0.1442307499999913,
          "durationTicks": 48,
          "midi": 68,
          "name": "G#4",
          "ticks": 44592,
          "time": 133.99036675000002,
          "velocity": 0.31496062992125984
        },
        {
          "duration": 0.1442307499999913,
          "durationTicks": 48,
          "midi": 68,
          "name": "G#4",
          "ticks": 44640,
          "time": 134.1345975,
          "velocity": 0.31496062992125984
        },
        {
          "duration": 0.14423075000001973,
          "durationTicks": 48,
          "midi": 68,
          "name": "G#4",
          "ticks": 44688,
          "time": 134.27882825,
          "velocity": 0.31496062992125984
        },
        {
          "duration": 0.1442307499999913,
          "durationTicks": 48,
          "midi": 68,
          "name": "G#4",
          "ticks": 44736,
          "time": 134.42305900000002,
          "velocity": 0.31496062992125984
        },
        {
          "duration": 0.1442307499999913,
          "durationTicks": 48,
          "midi": 68,
          "name": "G#4",
          "ticks": 44784,
          "time": 134.56728975000001,
          "velocity": 0.31496062992125984
        },
        {
          "duration": 0.14423075000001973,
          "durationTicks": 48,
          "midi": 68,
          "name": "G#4",
          "ticks": 44832,
          "time": 134.7115205,
          "velocity": 0.31496062992125984
        },
        {
          "duration": 0.1442307499999913,
          "durationTicks": 48,
          "midi": 68,
          "name": "G#4",
          "ticks": 44880,
          "time": 134.85575125000003,
          "velocity": 0.31496062992125984
        },
        {
          "duration": 0.1442307499999913,
          "durationTicks": 48,
          "midi": 68,
          "name": "G#4",
          "ticks": 44928,
          "time": 134.99998200000002,
          "velocity": 0.31496062992125984
        },
        {
          "duration": 0.14423075000001973,
          "durationTicks": 48,
          "midi": 68,
          "name": "G#4",
          "ticks": 44976,
          "time": 135.14421275,
          "velocity": 0.31496062992125984
        },
        {
          "duration": 0.1442307499999913,
          "durationTicks": 48,
          "midi": 68,
          "name": "G#4",
          "ticks": 45024,
          "time": 135.28844350000003,
          "velocity": 0.31496062992125984
        },
        {
          "duration": 0.1442307499999913,
          "durationTicks": 48,
          "midi": 68,
          "name": "G#4",
          "ticks": 45072,
          "time": 135.43267425000002,
          "velocity": 0.31496062992125984
        },
        {
          "duration": 0.14423075000001973,
          "durationTicks": 48,
          "midi": 68,
          "name": "G#4",
          "ticks": 45120,
          "time": 135.576905,
          "velocity": 0.31496062992125984
        },
        {
          "duration": 0.1442307499999913,
          "durationTicks": 48,
          "midi": 68,
          "name": "G#4",
          "ticks": 45168,
          "time": 135.72113575000003,
          "velocity": 0.31496062992125984
        },
        {
          "duration": 0.1442307499999913,
          "durationTicks": 48,
          "midi": 68,
          "name": "G#4",
          "ticks": 45216,
          "time": 135.86536650000002,
          "velocity": 0.31496062992125984
        },
        {
          "duration": 0.1442307499999913,
          "durationTicks": 48,
          "midi": 68,
          "name": "G#4",
          "ticks": 45264,
          "time": 136.00959725,
          "velocity": 0.31496062992125984
        },
        {
          "duration": 0.14423075000001973,
          "durationTicks": 48,
          "midi": 68,
          "name": "G#4",
          "ticks": 45312,
          "time": 136.153828,
          "velocity": 0.31496062992125984
        },
        {
          "duration": 0.1442307499999913,
          "durationTicks": 48,
          "midi": 68,
          "name": "G#4",
          "ticks": 45360,
          "time": 136.29805875000002,
          "velocity": 0.31496062992125984
        },
        {
          "duration": 0.1442307499999913,
          "durationTicks": 48,
          "midi": 68,
          "name": "G#4",
          "ticks": 45408,
          "time": 136.44228950000002,
          "velocity": 0.31496062992125984
        },
        {
          "duration": 0.14423075000001973,
          "durationTicks": 48,
          "midi": 68,
          "name": "G#4",
          "ticks": 45456,
          "time": 136.58652025,
          "velocity": 0.31496062992125984
        },
        {
          "duration": 0.1442307499999913,
          "durationTicks": 48,
          "midi": 68,
          "name": "G#4",
          "ticks": 45504,
          "time": 136.73075100000003,
          "velocity": 0.31496062992125984
        },
        {
          "duration": 0.1442307499999913,
          "durationTicks": 48,
          "midi": 68,
          "name": "G#4",
          "ticks": 45552,
          "time": 136.87498175000002,
          "velocity": 0.31496062992125984
        },
        {
          "duration": 0.14423075000001973,
          "durationTicks": 48,
          "midi": 68,
          "name": "G#4",
          "ticks": 45600,
          "time": 137.0192125,
          "velocity": 0.31496062992125984
        },
        {
          "duration": 0.1442307499999913,
          "durationTicks": 48,
          "midi": 68,
          "name": "G#4",
          "ticks": 45648,
          "time": 137.16344325000003,
          "velocity": 0.31496062992125984
        },
        {
          "duration": 0.1442307499999913,
          "durationTicks": 48,
          "midi": 68,
          "name": "G#4",
          "ticks": 45696,
          "time": 137.30767400000002,
          "velocity": 0.31496062992125984
        },
        {
          "duration": 0.14423075000001973,
          "durationTicks": 48,
          "midi": 68,
          "name": "G#4",
          "ticks": 45744,
          "time": 137.45190475,
          "velocity": 0.31496062992125984
        },
        {
          "duration": 0.1442307499999913,
          "durationTicks": 48,
          "midi": 68,
          "name": "G#4",
          "ticks": 45792,
          "time": 137.59613550000003,
          "velocity": 0.31496062992125984
        },
        {
          "duration": 0.1442307499999913,
          "durationTicks": 48,
          "midi": 68,
          "name": "G#4",
          "ticks": 45840,
          "time": 137.74036625000002,
          "velocity": 0.31496062992125984
        },
        {
          "duration": 0.1442307499999913,
          "durationTicks": 48,
          "midi": 68,
          "name": "G#4",
          "ticks": 45888,
          "time": 137.884597,
          "velocity": 0.31496062992125984
        },
        {
          "duration": 0.14423075000001973,
          "durationTicks": 48,
          "midi": 68,
          "name": "G#4",
          "ticks": 45936,
          "time": 138.02882775,
          "velocity": 0.31496062992125984
        },
        {
          "duration": 0.1442307499999913,
          "durationTicks": 48,
          "midi": 68,
          "name": "G#4",
          "ticks": 45984,
          "time": 138.17305850000002,
          "velocity": 0.31496062992125984
        },
        {
          "duration": 0.1442307499999913,
          "durationTicks": 48,
          "midi": 68,
          "name": "G#4",
          "ticks": 46032,
          "time": 138.31728925000002,
          "velocity": 0.31496062992125984
        },
        {
          "duration": 0.14423075000001973,
          "durationTicks": 48,
          "midi": 68,
          "name": "G#4",
          "ticks": 46080,
          "time": 138.46152,
          "velocity": 0.31496062992125984
        },
        {
          "duration": 0.1442307499999913,
          "durationTicks": 48,
          "midi": 68,
          "name": "G#4",
          "ticks": 46128,
          "time": 138.60575075000003,
          "velocity": 0.31496062992125984
        },
        {
          "duration": 0.1442307499999913,
          "durationTicks": 48,
          "midi": 68,
          "name": "G#4",
          "ticks": 46176,
          "time": 138.74998150000002,
          "velocity": 0.31496062992125984
        },
        {
          "duration": 0.14423075000001973,
          "durationTicks": 48,
          "midi": 68,
          "name": "G#4",
          "ticks": 46224,
          "time": 138.89421225,
          "velocity": 0.31496062992125984
        },
        {
          "duration": 0.1442307499999913,
          "durationTicks": 48,
          "midi": 68,
          "name": "G#4",
          "ticks": 46272,
          "time": 139.03844300000003,
          "velocity": 0.31496062992125984
        },
        {
          "duration": 0.1442307499999913,
          "durationTicks": 48,
          "midi": 68,
          "name": "G#4",
          "ticks": 46320,
          "time": 139.18267375000002,
          "velocity": 0.31496062992125984
        },
        {
          "duration": 0.14423075000001973,
          "durationTicks": 48,
          "midi": 68,
          "name": "G#4",
          "ticks": 46368,
          "time": 139.3269045,
          "velocity": 0.31496062992125984
        },
        {
          "duration": 0.1442307499999913,
          "durationTicks": 48,
          "midi": 68,
          "name": "G#4",
          "ticks": 46416,
          "time": 139.47113525000003,
          "velocity": 0.31496062992125984
        },
        {
          "duration": 0.1442307499999913,
          "durationTicks": 48,
          "midi": 68,
          "name": "G#4",
          "ticks": 46464,
          "time": 139.61536600000002,
          "velocity": 0.31496062992125984
        },
        {
          "duration": 0.1442307499999913,
          "durationTicks": 48,
          "midi": 68,
          "name": "G#4",
          "ticks": 46512,
          "time": 139.75959675000001,
          "velocity": 0.31496062992125984
        },
        {
          "duration": 0.14423075000001973,
          "durationTicks": 48,
          "midi": 68,
          "name": "G#4",
          "ticks": 46560,
          "time": 139.9038275,
          "velocity": 0.31496062992125984
        },
        {
          "duration": 0.1442307499999913,
          "durationTicks": 48,
          "midi": 68,
          "name": "G#4",
          "ticks": 46608,
          "time": 140.04805825000003,
          "velocity": 0.31496062992125984
        },
        {
          "duration": 0.1442307499999913,
          "durationTicks": 48,
          "midi": 68,
          "name": "G#4",
          "ticks": 46656,
          "time": 140.19228900000002,
          "velocity": 0.31496062992125984
        },
        {
          "duration": 0.14423075000001973,
          "durationTicks": 48,
          "midi": 68,
          "name": "G#4",
          "ticks": 46704,
          "time": 140.33651975,
          "velocity": 0.31496062992125984
        },
        {
          "duration": 0.1442307499999913,
          "durationTicks": 48,
          "midi": 68,
          "name": "G#4",
          "ticks": 46752,
          "time": 140.48075050000003,
          "velocity": 0.31496062992125984
        },
        {
          "duration": 0.1442307499999913,
          "durationTicks": 48,
          "midi": 68,
          "name": "G#4",
          "ticks": 46800,
          "time": 140.62498125000002,
          "velocity": 0.31496062992125984
        }
      ],
      "endOfTrackTicks": 47616
    },
    {
      "channel": 3,
      "controlChanges": {
        "10": [
          {
            "number": 10,
            "ticks": 0,
            "time": 0,
            "value": 0.5039370078740157
          }
        ]
      },
      "pitchBends": [],
      "instrument": {
        "family": "guitar",
        "number": 30,
        "name": "distortion guitar"
      },
      "name": "TabIt MIDI - Track 4",
      "notes": [
        {
          "duration": 0.015024036458335388,
          "durationTicks": 5,
          "midi": 37,
          "name": "C#2",
          "ticks": 5856,
          "time": 17.5961515,
          "velocity": 0.7559055118110236
        },
        {
          "duration": 0.015024036458335388,
          "durationTicks": 5,
          "midi": 44,
          "name": "G#2",
          "ticks": 5856,
          "time": 17.5961515,
          "velocity": 0.7559055118110236
        },
        {
          "duration": 0.015024036458335388,
          "durationTicks": 5,
          "midi": 49,
          "name": "C#3",
          "ticks": 5856,
          "time": 17.5961515,
          "velocity": 0.7559055118110236
        },
        {
          "duration": 0.015024036458335388,
          "durationTicks": 5,
          "midi": 54,
          "name": "F#3",
          "ticks": 5856,
          "time": 17.5961515,
          "velocity": 0.7559055118110236
        },
        {
          "duration": 0.015024036458335388,
          "durationTicks": 5,
          "midi": 58,
          "name": "A#3",
          "ticks": 5856,
          "time": 17.5961515,
          "velocity": 0.7559055118110236
        },
        {
          "duration": 0.015024036458335388,
          "durationTicks": 5,
          "midi": 63,
          "name": "D#4",
          "ticks": 5856,
          "time": 17.5961515,
          "velocity": 0.7559055118110236
        },
        {
          "duration": 0.015024036458335388,
          "durationTicks": 5,
          "midi": 37,
          "name": "C#2",
          "ticks": 5952,
          "time": 17.884613,
          "velocity": 0.7559055118110236
        },
        {
          "duration": 0.015024036458335388,
          "durationTicks": 5,
          "midi": 44,
          "name": "G#2",
          "ticks": 5952,
          "time": 17.884613,
          "velocity": 0.7559055118110236
        },
        {
          "duration": 0.015024036458335388,
          "durationTicks": 5,
          "midi": 49,
          "name": "C#3",
          "ticks": 5952,
          "time": 17.884613,
          "velocity": 0.7559055118110236
        },
        {
          "duration": 0.015024036458335388,
          "durationTicks": 5,
          "midi": 54,
          "name": "F#3",
          "ticks": 5952,
          "time": 17.884613,
          "velocity": 0.7559055118110236
        },
        {
          "duration": 0.015024036458335388,
          "durationTicks": 5,
          "midi": 58,
          "name": "A#3",
          "ticks": 5952,
          "time": 17.884613,
          "velocity": 0.7559055118110236
        },
        {
          "duration": 0.015024036458335388,
          "durationTicks": 5,
          "midi": 63,
          "name": "D#4",
          "ticks": 5952,
          "time": 17.884613,
          "velocity": 0.7559055118110236
        },
        {
          "duration": 0.015024036458331835,
          "durationTicks": 5,
          "midi": 37,
          "name": "C#2",
          "ticks": 6000,
          "time": 18.028843750000004,
          "velocity": 0.7559055118110236
        },
        {
          "duration": 0.015024036458331835,
          "durationTicks": 5,
          "midi": 44,
          "name": "G#2",
          "ticks": 6000,
          "time": 18.028843750000004,
          "velocity": 0.7559055118110236
        },
        {
          "duration": 0.015024036458331835,
          "durationTicks": 5,
          "midi": 49,
          "name": "C#3",
          "ticks": 6000,
          "time": 18.028843750000004,
          "velocity": 0.7559055118110236
        },
        {
          "duration": 0.015024036458331835,
          "durationTicks": 5,
          "midi": 54,
          "name": "F#3",
          "ticks": 6000,
          "time": 18.028843750000004,
          "velocity": 0.7559055118110236
        },
        {
          "duration": 0.015024036458331835,
          "durationTicks": 5,
          "midi": 58,
          "name": "A#3",
          "ticks": 6000,
          "time": 18.028843750000004,
          "velocity": 0.7559055118110236
        },
        {
          "duration": 0.015024036458331835,
          "durationTicks": 5,
          "midi": 63,
          "name": "D#4",
          "ticks": 6000,
          "time": 18.028843750000004,
          "velocity": 0.7559055118110236
        },
        {
          "duration": 0.015024036458331835,
          "durationTicks": 5,
          "midi": 37,
          "name": "C#2",
          "ticks": 6096,
          "time": 18.317305250000004,
          "velocity": 0.7559055118110236
        },
        {
          "duration": 0.015024036458331835,
          "durationTicks": 5,
          "midi": 44,
          "name": "G#2",
          "ticks": 6096,
          "time": 18.317305250000004,
          "velocity": 0.7559055118110236
        },
        {
          "duration": 0.015024036458331835,
          "durationTicks": 5,
          "midi": 49,
          "name": "C#3",
          "ticks": 6096,
          "time": 18.317305250000004,
          "velocity": 0.7559055118110236
        },
        {
          "duration": 0.015024036458331835,
          "durationTicks": 5,
          "midi": 54,
          "name": "F#3",
          "ticks": 6096,
          "time": 18.317305250000004,
          "velocity": 0.7559055118110236
        },
        {
          "duration": 0.015024036458331835,
          "durationTicks": 5,
          "midi": 58,
          "name": "A#3",
          "ticks": 6096,
          "time": 18.317305250000004,
          "velocity": 0.7559055118110236
        },
        {
          "duration": 0.015024036458331835,
          "durationTicks": 5,
          "midi": 63,
          "name": "D#4",
          "ticks": 6096,
          "time": 18.317305250000004,
          "velocity": 0.7559055118110236
        },
        {
          "duration": 0.015024036458331835,
          "durationTicks": 5,
          "midi": 37,
          "name": "C#2",
          "ticks": 6144,
          "time": 18.461536000000002,
          "velocity": 0.7559055118110236
        },
        {
          "duration": 0.015024036458331835,
          "durationTicks": 5,
          "midi": 44,
          "name": "G#2",
          "ticks": 6144,
          "time": 18.461536000000002,
          "velocity": 0.7559055118110236
        },
        {
          "duration": 0.015024036458331835,
          "durationTicks": 5,
          "midi": 49,
          "name": "C#3",
          "ticks": 6144,
          "time": 18.461536000000002,
          "velocity": 0.7559055118110236
        },
        {
          "duration": 0.015024036458331835,
          "durationTicks": 5,
          "midi": 54,
          "name": "F#3",
          "ticks": 6144,
          "time": 18.461536000000002,
          "velocity": 0.7559055118110236
        },
        {
          "duration": 0.015024036458331835,
          "durationTicks": 5,
          "midi": 58,
          "name": "A#3",
          "ticks": 6144,
          "time": 18.461536000000002,
          "velocity": 0.7559055118110236
        },
        {
          "duration": 0.015024036458331835,
          "durationTicks": 5,
          "midi": 63,
          "name": "D#4",
          "ticks": 6144,
          "time": 18.461536000000002,
          "velocity": 0.7559055118110236
        },
        {
          "duration": 0.015024036458331835,
          "durationTicks": 5,
          "midi": 37,
          "name": "C#2",
          "ticks": 6192,
          "time": 18.60576675,
          "velocity": 0.7559055118110236
        },
        {
          "duration": 0.015024036458331835,
          "durationTicks": 5,
          "midi": 44,
          "name": "G#2",
          "ticks": 6192,
          "time": 18.60576675,
          "velocity": 0.7559055118110236
        },
        {
          "duration": 0.015024036458331835,
          "durationTicks": 5,
          "midi": 49,
          "name": "C#3",
          "ticks": 6192,
          "time": 18.60576675,
          "velocity": 0.7559055118110236
        },
        {
          "duration": 0.015024036458331835,
          "durationTicks": 5,
          "midi": 54,
          "name": "F#3",
          "ticks": 6192,
          "time": 18.60576675,
          "velocity": 0.7559055118110236
        },
        {
          "duration": 0.015024036458331835,
          "durationTicks": 5,
          "midi": 58,
          "name": "A#3",
          "ticks": 6192,
          "time": 18.60576675,
          "velocity": 0.7559055118110236
        },
        {
          "duration": 0.015024036458331835,
          "durationTicks": 5,
          "midi": 63,
          "name": "D#4",
          "ticks": 6192,
          "time": 18.60576675,
          "velocity": 0.7559055118110236
        },
        {
          "duration": 0.28846150000000037,
          "durationTicks": 96,
          "midi": 37,
          "name": "C#2",
          "ticks": 6240,
          "time": 18.749997500000003,
          "velocity": 0.7559055118110236
        },
        {
          "duration": 0.28846150000000037,
          "durationTicks": 96,
          "midi": 44,
          "name": "G#2",
          "ticks": 6240,
          "time": 18.749997500000003,
          "velocity": 0.7559055118110236
        },
        {
          "duration": 0.28846150000000037,
          "durationTicks": 96,
          "midi": 49,
          "name": "C#3",
          "ticks": 6240,
          "time": 18.749997500000003,
          "velocity": 0.7559055118110236
        },
        {
          "duration": 0.28846150000000037,
          "durationTicks": 96,
          "midi": 68,
          "name": "G#4",
          "ticks": 6240,
          "time": 18.749997500000003,
          "velocity": 0.7559055118110236
        },
        {
          "duration": 0.28846150000000037,
          "durationTicks": 96,
          "midi": 37,
          "name": "C#2",
          "ticks": 6336,
          "time": 19.038459000000003,
          "velocity": 0.7559055118110236
        },
        {
          "duration": 0.28846150000000037,
          "durationTicks": 96,
          "midi": 44,
          "name": "G#2",
          "ticks": 6336,
          "time": 19.038459000000003,
          "velocity": 0.7559055118110236
        },
        {
          "duration": 0.28846150000000037,
          "durationTicks": 96,
          "midi": 49,
          "name": "C#3",
          "ticks": 6336,
          "time": 19.038459000000003,
          "velocity": 0.7559055118110236
        },
        {
          "duration": 0.28846150000000037,
          "durationTicks": 96,
          "midi": 68,
          "name": "G#4",
          "ticks": 6336,
          "time": 19.038459000000003,
          "velocity": 0.7559055118110236
        },
        {
          "duration": 0.28846150000000037,
          "durationTicks": 96,
          "midi": 37,
          "name": "C#2",
          "ticks": 6432,
          "time": 19.326920500000003,
          "velocity": 0.7559055118110236
        },
        {
          "duration": 0.28846150000000037,
          "durationTicks": 96,
          "midi": 44,
          "name": "G#2",
          "ticks": 6432,
          "time": 19.326920500000003,
          "velocity": 0.7559055118110236
        },
        {
          "duration": 0.28846150000000037,
          "durationTicks": 96,
          "midi": 49,
          "name": "C#3",
          "ticks": 6432,
          "time": 19.326920500000003,
          "velocity": 0.7559055118110236
        },
        {
          "duration": 0.28846150000000037,
          "durationTicks": 96,
          "midi": 68,
          "name": "G#4",
          "ticks": 6432,
          "time": 19.326920500000003,
          "velocity": 0.7559055118110236
        },
        {
          "duration": 0.28846150000000037,
          "durationTicks": 96,
          "midi": 37,
          "name": "C#2",
          "ticks": 6528,
          "time": 19.615382000000004,
          "velocity": 0.7559055118110236
        },
        {
          "duration": 0.28846150000000037,
          "durationTicks": 96,
          "midi": 44,
          "name": "G#2",
          "ticks": 6528,
          "time": 19.615382000000004,
          "velocity": 0.7559055118110236
        },
        {
          "duration": 0.28846150000000037,
          "durationTicks": 96,
          "midi": 49,
          "name": "C#3",
          "ticks": 6528,
          "time": 19.615382000000004,
          "velocity": 0.7559055118110236
        },
        {
          "duration": 0.28846150000000037,
          "durationTicks": 96,
          "midi": 68,
          "name": "G#4",
          "ticks": 6528,
          "time": 19.615382000000004,
          "velocity": 0.7559055118110236
        },
        {
          "duration": 0.2884614999999968,
          "durationTicks": 96,
          "midi": 37,
          "name": "C#2",
          "ticks": 6624,
          "time": 19.903843500000004,
          "velocity": 0.7559055118110236
        },
        {
          "duration": 0.2884614999999968,
          "durationTicks": 96,
          "midi": 44,
          "name": "G#2",
          "ticks": 6624,
          "time": 19.903843500000004,
          "velocity": 0.7559055118110236
        },
        {
          "duration": 0.2884614999999968,
          "durationTicks": 96,
          "midi": 49,
          "name": "C#3",
          "ticks": 6624,
          "time": 19.903843500000004,
          "velocity": 0.7559055118110236
        },
        {
          "duration": 0.2884614999999968,
          "durationTicks": 96,
          "midi": 68,
          "name": "G#4",
          "ticks": 6624,
          "time": 19.903843500000004,
          "velocity": 0.7559055118110236
        },
        {
          "duration": 0.28846150000000037,
          "durationTicks": 96,
          "midi": 37,
          "name": "C#2",
          "ticks": 6720,
          "time": 20.192305,
          "velocity": 0.7559055118110236
        },
        {
          "duration": 0.28846150000000037,
          "durationTicks": 96,
          "midi": 44,
          "name": "G#2",
          "ticks": 6720,
          "time": 20.192305,
          "velocity": 0.7559055118110236
        },
        {
          "duration": 0.28846150000000037,
          "durationTicks": 96,
          "midi": 49,
          "name": "C#3",
          "ticks": 6720,
          "time": 20.192305,
          "velocity": 0.7559055118110236
        },
        {
          "duration": 0.28846150000000037,
          "durationTicks": 96,
          "midi": 68,
          "name": "G#4",
          "ticks": 6720,
          "time": 20.192305,
          "velocity": 0.7559055118110236
        },
        {
          "duration": 0.28846150000000037,
          "durationTicks": 96,
          "midi": 37,
          "name": "C#2",
          "ticks": 6816,
          "time": 20.4807665,
          "velocity": 0.7559055118110236
        },
        {
          "duration": 0.28846150000000037,
          "durationTicks": 96,
          "midi": 44,
          "name": "G#2",
          "ticks": 6816,
          "time": 20.4807665,
          "velocity": 0.7559055118110236
        },
        {
          "duration": 0.28846150000000037,
          "durationTicks": 96,
          "midi": 49,
          "name": "C#3",
          "ticks": 6816,
          "time": 20.4807665,
          "velocity": 0.7559055118110236
        },
        {
          "duration": 0.28846150000000037,
          "durationTicks": 96,
          "midi": 68,
          "name": "G#4",
          "ticks": 6816,
          "time": 20.4807665,
          "velocity": 0.7559055118110236
        },
        {
          "duration": 0.28846150000000037,
          "durationTicks": 96,
          "midi": 37,
          "name": "C#2",
          "ticks": 6912,
          "time": 20.769228000000002,
          "velocity": 0.7559055118110236
        },
        {
          "duration": 0.28846150000000037,
          "durationTicks": 96,
          "midi": 44,
          "name": "G#2",
          "ticks": 6912,
          "time": 20.769228000000002,
          "velocity": 0.7559055118110236
        },
        {
          "duration": 0.28846150000000037,
          "durationTicks": 96,
          "midi": 49,
          "name": "C#3",
          "ticks": 6912,
          "time": 20.769228000000002,
          "velocity": 0.7559055118110236
        },
        {
          "duration": 0.28846150000000037,
          "durationTicks": 96,
          "midi": 68,
          "name": "G#4",
          "ticks": 6912,
          "time": 20.769228000000002,
          "velocity": 0.7559055118110236
        },
        {
          "duration": 0.28846150000000037,
          "durationTicks": 96,
          "midi": 45,
          "name": "A2",
          "ticks": 7008,
          "time": 21.057689500000002,
          "velocity": 0.7559055118110236
        },
        {
          "duration": 0.28846150000000037,
          "durationTicks": 96,
          "midi": 52,
          "name": "E3",
          "ticks": 7008,
          "time": 21.057689500000002,
          "velocity": 0.7559055118110236
        },
        {
          "duration": 0.28846150000000037,
          "durationTicks": 96,
          "midi": 57,
          "name": "A3",
          "ticks": 7008,
          "time": 21.057689500000002,
          "velocity": 0.7559055118110236
        },
        {
          "duration": 0.28846150000000037,
          "durationTicks": 96,
          "midi": 45,
          "name": "A2",
          "ticks": 7104,
          "time": 21.346151000000003,
          "velocity": 0.7559055118110236
        },
        {
          "duration": 0.28846150000000037,
          "durationTicks": 96,
          "midi": 52,
          "name": "E3",
          "ticks": 7104,
          "time": 21.346151000000003,
          "velocity": 0.7559055118110236
        },
        {
          "duration": 0.28846150000000037,
          "durationTicks": 96,
          "midi": 57,
          "name": "A3",
          "ticks": 7104,
          "time": 21.346151000000003,
          "velocity": 0.7559055118110236
        },
        {
          "duration": 0.28846150000000037,
          "durationTicks": 96,
          "midi": 45,
          "name": "A2",
          "ticks": 7200,
          "time": 21.634612500000003,
          "velocity": 0.7559055118110236
        },
        {
          "duration": 0.28846150000000037,
          "durationTicks": 96,
          "midi": 52,
          "name": "E3",
          "ticks": 7200,
          "time": 21.634612500000003,
          "velocity": 0.7559055118110236
        },
        {
          "duration": 0.28846150000000037,
          "durationTicks": 96,
          "midi": 57,
          "name": "A3",
          "ticks": 7200,
          "time": 21.634612500000003,
          "velocity": 0.7559055118110236
        },
        {
          "duration": 0.28846150000000037,
          "durationTicks": 96,
          "midi": 45,
          "name": "A2",
          "ticks": 7296,
          "time": 21.923074000000003,
          "velocity": 0.7559055118110236
        },
        {
          "duration": 0.28846150000000037,
          "durationTicks": 96,
          "midi": 52,
          "name": "E3",
          "ticks": 7296,
          "time": 21.923074000000003,
          "velocity": 0.7559055118110236
        },
        {
          "duration": 0.28846150000000037,
          "durationTicks": 96,
          "midi": 57,
          "name": "A3",
          "ticks": 7296,
          "time": 21.923074000000003,
          "velocity": 0.7559055118110236
        },
        {
          "duration": 0.28846150000000037,
          "durationTicks": 96,
          "midi": 45,
          "name": "A2",
          "ticks": 7392,
          "time": 22.211535500000004,
          "velocity": 0.7559055118110236
        },
        {
          "duration": 0.28846150000000037,
          "durationTicks": 96,
          "midi": 52,
          "name": "E3",
          "ticks": 7392,
          "time": 22.211535500000004,
          "velocity": 0.7559055118110236
        },
        {
          "duration": 0.28846150000000037,
          "durationTicks": 96,
          "midi": 57,
          "name": "A3",
          "ticks": 7392,
          "time": 22.211535500000004,
          "velocity": 0.7559055118110236
        },
        {
          "duration": 0.28846150000000037,
          "durationTicks": 96,
          "midi": 45,
          "name": "A2",
          "ticks": 7488,
          "time": 22.499997000000004,
          "velocity": 0.7559055118110236
        },
        {
          "duration": 0.28846150000000037,
          "durationTicks": 96,
          "midi": 52,
          "name": "E3",
          "ticks": 7488,
          "time": 22.499997000000004,
          "velocity": 0.7559055118110236
        },
        {
          "duration": 0.28846150000000037,
          "durationTicks": 96,
          "midi": 57,
          "name": "A3",
          "ticks": 7488,
          "time": 22.499997000000004,
          "velocity": 0.7559055118110236
        },
        {
          "duration": 0.2884614999999968,
          "durationTicks": 96,
          "midi": 45,
          "name": "A2",
          "ticks": 7584,
          "time": 22.788458500000004,
          "velocity": 0.7559055118110236
        },
        {
          "duration": 0.2884614999999968,
          "durationTicks": 96,
          "midi": 52,
          "name": "E3",
          "ticks": 7584,
          "time": 22.788458500000004,
          "velocity": 0.7559055118110236
        },
        {
          "duration": 0.2884614999999968,
          "durationTicks": 96,
          "midi": 57,
          "name": "A3",
          "ticks": 7584,
          "time": 22.788458500000004,
          "velocity": 0.7559055118110236
        },
        {
          "duration": 0.28846150000000037,
          "durationTicks": 96,
          "midi": 45,
          "name": "A2",
          "ticks": 7680,
          "time": 23.07692,
          "velocity": 0.7559055118110236
        },
        {
          "duration": 0.28846150000000037,
          "durationTicks": 96,
          "midi": 52,
          "name": "E3",
          "ticks": 7680,
          "time": 23.07692,
          "velocity": 0.7559055118110236
        },
        {
          "duration": 0.28846150000000037,
          "durationTicks": 96,
          "midi": 57,
          "name": "A3",
          "ticks": 7680,
          "time": 23.07692,
          "velocity": 0.7559055118110236
        },
        {
          "duration": 0.28846150000000037,
          "durationTicks": 96,
          "midi": 40,
          "name": "E2",
          "ticks": 7776,
          "time": 23.3653815,
          "velocity": 0.7559055118110236
        },
        {
          "duration": 0.28846150000000037,
          "durationTicks": 96,
          "midi": 47,
          "name": "B2",
          "ticks": 7776,
          "time": 23.3653815,
          "velocity": 0.7559055118110236
        },
        {
          "duration": 0.28846150000000037,
          "durationTicks": 96,
          "midi": 52,
          "name": "E3",
          "ticks": 7776,
          "time": 23.3653815,
          "velocity": 0.7559055118110236
        },
        {
          "duration": 0.28846150000000037,
          "durationTicks": 96,
          "midi": 59,
          "name": "B3",
          "ticks": 7776,
          "time": 23.3653815,
          "velocity": 0.7559055118110236
        },
        {
          "duration": 0.28846150000000037,
          "durationTicks": 96,
          "midi": 40,
          "name": "E2",
          "ticks": 7872,
          "time": 23.653843000000002,
          "velocity": 0.7559055118110236
        },
        {
          "duration": 0.28846150000000037,
          "durationTicks": 96,
          "midi": 47,
          "name": "B2",
          "ticks": 7872,
          "time": 23.653843000000002,
          "velocity": 0.7559055118110236
        },
        {
          "duration": 0.28846150000000037,
          "durationTicks": 96,
          "midi": 52,
          "name": "E3",
          "ticks": 7872,
          "time": 23.653843000000002,
          "velocity": 0.7559055118110236
        },
        {
          "duration": 0.28846150000000037,
          "durationTicks": 96,
          "midi": 59,
          "name": "B3",
          "ticks": 7872,
          "time": 23.653843000000002,
          "velocity": 0.7559055118110236
        },
        {
          "duration": 0.28846150000000037,
          "durationTicks": 96,
          "midi": 40,
          "name": "E2",
          "ticks": 7968,
          "time": 23.942304500000002,
          "velocity": 0.7559055118110236
        },
        {
          "duration": 0.28846150000000037,
          "durationTicks": 96,
          "midi": 47,
          "name": "B2",
          "ticks": 7968,
          "time": 23.942304500000002,
          "velocity": 0.7559055118110236
        },
        {
          "duration": 0.28846150000000037,
          "durationTicks": 96,
          "midi": 52,
          "name": "E3",
          "ticks": 7968,
          "time": 23.942304500000002,
          "velocity": 0.7559055118110236
        },
        {
          "duration": 0.28846150000000037,
          "durationTicks": 96,
          "midi": 59,
          "name": "B3",
          "ticks": 7968,
          "time": 23.942304500000002,
          "velocity": 0.7559055118110236
        },
        {
          "duration": 0.28846150000000037,
          "durationTicks": 96,
          "midi": 40,
          "name": "E2",
          "ticks": 8064,
          "time": 24.230766000000003,
          "velocity": 0.7559055118110236
        },
        {
          "duration": 0.28846150000000037,
          "durationTicks": 96,
          "midi": 47,
          "name": "B2",
          "ticks": 8064,
          "time": 24.230766000000003,
          "velocity": 0.7559055118110236
        },
        {
          "duration": 0.28846150000000037,
          "durationTicks": 96,
          "midi": 52,
          "name": "E3",
          "ticks": 8064,
          "time": 24.230766000000003,
          "velocity": 0.7559055118110236
        },
        {
          "duration": 0.28846150000000037,
          "durationTicks": 96,
          "midi": 59,
          "name": "B3",
          "ticks": 8064,
          "time": 24.230766000000003,
          "velocity": 0.7559055118110236
        },
        {
          "duration": 0.28846150000000037,
          "durationTicks": 96,
          "midi": 40,
          "name": "E2",
          "ticks": 8160,
          "time": 24.519227500000003,
          "velocity": 0.7559055118110236
        },
        {
          "duration": 0.28846150000000037,
          "durationTicks": 96,
          "midi": 47,
          "name": "B2",
          "ticks": 8160,
          "time": 24.519227500000003,
          "velocity": 0.7559055118110236
        },
        {
          "duration": 0.28846150000000037,
          "durationTicks": 96,
          "midi": 52,
          "name": "E3",
          "ticks": 8160,
          "time": 24.519227500000003,
          "velocity": 0.7559055118110236
        },
        {
          "duration": 0.28846150000000037,
          "durationTicks": 96,
          "midi": 59,
          "name": "B3",
          "ticks": 8160,
          "time": 24.519227500000003,
          "velocity": 0.7559055118110236
        },
        {
          "duration": 0.28846150000000037,
          "durationTicks": 96,
          "midi": 40,
          "name": "E2",
          "ticks": 8256,
          "time": 24.807689000000003,
          "velocity": 0.7559055118110236
        },
        {
          "duration": 0.28846150000000037,
          "durationTicks": 96,
          "midi": 47,
          "name": "B2",
          "ticks": 8256,
          "time": 24.807689000000003,
          "velocity": 0.7559055118110236
        },
        {
          "duration": 0.28846150000000037,
          "durationTicks": 96,
          "midi": 52,
          "name": "E3",
          "ticks": 8256,
          "time": 24.807689000000003,
          "velocity": 0.7559055118110236
        },
        {
          "duration": 0.28846150000000037,
          "durationTicks": 96,
          "midi": 59,
          "name": "B3",
          "ticks": 8256,
          "time": 24.807689000000003,
          "velocity": 0.7559055118110236
        },
        {
          "duration": 0.28846150000000037,
          "durationTicks": 96,
          "midi": 40,
          "name": "E2",
          "ticks": 8352,
          "time": 25.096150500000004,
          "velocity": 0.7559055118110236
        },
        {
          "duration": 0.28846150000000037,
          "durationTicks": 96,
          "midi": 47,
          "name": "B2",
          "ticks": 8352,
          "time": 25.096150500000004,
          "velocity": 0.7559055118110236
        },
        {
          "duration": 0.28846150000000037,
          "durationTicks": 96,
          "midi": 52,
          "name": "E3",
          "ticks": 8352,
          "time": 25.096150500000004,
          "velocity": 0.7559055118110236
        },
        {
          "duration": 0.28846150000000037,
          "durationTicks": 96,
          "midi": 59,
          "name": "B3",
          "ticks": 8352,
          "time": 25.096150500000004,
          "velocity": 0.7559055118110236
        },
        {
          "duration": 0.28846150000000037,
          "durationTicks": 96,
          "midi": 40,
          "name": "E2",
          "ticks": 8448,
          "time": 25.384612000000004,
          "velocity": 0.7559055118110236
        },
        {
          "duration": 0.28846150000000037,
          "durationTicks": 96,
          "midi": 47,
          "name": "B2",
          "ticks": 8448,
          "time": 25.384612000000004,
          "velocity": 0.7559055118110236
        },
        {
          "duration": 0.28846150000000037,
          "durationTicks": 96,
          "midi": 52,
          "name": "E3",
          "ticks": 8448,
          "time": 25.384612000000004,
          "velocity": 0.7559055118110236
        },
        {
          "duration": 0.28846150000000037,
          "durationTicks": 96,
          "midi": 59,
          "name": "B3",
          "ticks": 8448,
          "time": 25.384612000000004,
          "velocity": 0.7559055118110236
        },
        {
          "duration": 0.28846150000000037,
          "durationTicks": 96,
          "midi": 47,
          "name": "B2",
          "ticks": 8544,
          "time": 25.673073500000005,
          "velocity": 0.7559055118110236
        },
        {
          "duration": 0.28846150000000037,
          "durationTicks": 96,
          "midi": 54,
          "name": "F#3",
          "ticks": 8544,
          "time": 25.673073500000005,
          "velocity": 0.7559055118110236
        },
        {
          "duration": 0.28846150000000037,
          "durationTicks": 96,
          "midi": 59,
          "name": "B3",
          "ticks": 8544,
          "time": 25.673073500000005,
          "velocity": 0.7559055118110236
        },
        {
          "duration": 0.2884614999999968,
          "durationTicks": 96,
          "midi": 47,
          "name": "B2",
          "ticks": 8640,
          "time": 25.961535000000005,
          "velocity": 0.7559055118110236
        },
        {
          "duration": 0.2884614999999968,
          "durationTicks": 96,
          "midi": 54,
          "name": "F#3",
          "ticks": 8640,
          "time": 25.961535000000005,
          "velocity": 0.7559055118110236
        },
        {
          "duration": 0.2884614999999968,
          "durationTicks": 96,
          "midi": 59,
          "name": "B3",
          "ticks": 8640,
          "time": 25.961535000000005,
          "velocity": 0.7559055118110236
        },
        {
          "duration": 0.28846150000000037,
          "durationTicks": 96,
          "midi": 47,
          "name": "B2",
          "ticks": 8736,
          "time": 26.2499965,
          "velocity": 0.7559055118110236
        },
        {
          "duration": 0.28846150000000037,
          "durationTicks": 96,
          "midi": 54,
          "name": "F#3",
          "ticks": 8736,
          "time": 26.2499965,
          "velocity": 0.7559055118110236
        },
        {
          "duration": 0.28846150000000037,
          "durationTicks": 96,
          "midi": 59,
          "name": "B3",
          "ticks": 8736,
          "time": 26.2499965,
          "velocity": 0.7559055118110236
        },
        {
          "duration": 0.28846150000000037,
          "durationTicks": 96,
          "midi": 47,
          "name": "B2",
          "ticks": 8832,
          "time": 26.538458000000002,
          "velocity": 0.7559055118110236
        },
        {
          "duration": 0.28846150000000037,
          "durationTicks": 96,
          "midi": 54,
          "name": "F#3",
          "ticks": 8832,
          "time": 26.538458000000002,
          "velocity": 0.7559055118110236
        },
        {
          "duration": 0.28846150000000037,
          "durationTicks": 96,
          "midi": 59,
          "name": "B3",
          "ticks": 8832,
          "time": 26.538458000000002,
          "velocity": 0.7559055118110236
        },
        {
          "duration": 0.28846150000000037,
          "durationTicks": 96,
          "midi": 47,
          "name": "B2",
          "ticks": 8928,
          "time": 26.826919500000002,
          "velocity": 0.7559055118110236
        },
        {
          "duration": 0.28846150000000037,
          "durationTicks": 96,
          "midi": 54,
          "name": "F#3",
          "ticks": 8928,
          "time": 26.826919500000002,
          "velocity": 0.7559055118110236
        },
        {
          "duration": 0.28846150000000037,
          "durationTicks": 96,
          "midi": 59,
          "name": "B3",
          "ticks": 8928,
          "time": 26.826919500000002,
          "velocity": 0.7559055118110236
        },
        {
          "duration": 0.28846150000000037,
          "durationTicks": 96,
          "midi": 47,
          "name": "B2",
          "ticks": 9024,
          "time": 27.115381000000003,
          "velocity": 0.7559055118110236
        },
        {
          "duration": 0.28846150000000037,
          "durationTicks": 96,
          "midi": 54,
          "name": "F#3",
          "ticks": 9024,
          "time": 27.115381000000003,
          "velocity": 0.7559055118110236
        },
        {
          "duration": 0.28846150000000037,
          "durationTicks": 96,
          "midi": 59,
          "name": "B3",
          "ticks": 9024,
          "time": 27.115381000000003,
          "velocity": 0.7559055118110236
        },
        {
          "duration": 0.5769230000000007,
          "durationTicks": 192,
          "midi": 44,
          "name": "G#2",
          "ticks": 9120,
          "time": 27.403842500000003,
          "velocity": 0.7559055118110236
        },
        {
          "duration": 0.5769230000000007,
          "durationTicks": 192,
          "midi": 51,
          "name": "D#3",
          "ticks": 9120,
          "time": 27.403842500000003,
          "velocity": 0.7559055118110236
        },
        {
          "duration": 0.5769230000000007,
          "durationTicks": 192,
          "midi": 56,
          "name": "G#3",
          "ticks": 9120,
          "time": 27.403842500000003,
          "velocity": 0.7559055118110236
        },
        {
          "duration": 0.28846150000000037,
          "durationTicks": 96,
          "midi": 37,
          "name": "C#2",
          "ticks": 9312,
          "time": 27.980765500000004,
          "velocity": 0.7559055118110236
        },
        {
          "duration": 0.28846150000000037,
          "durationTicks": 96,
          "midi": 44,
          "name": "G#2",
          "ticks": 9312,
          "time": 27.980765500000004,
          "velocity": 0.7559055118110236
        },
        {
          "duration": 0.28846150000000037,
          "durationTicks": 96,
          "midi": 49,
          "name": "C#3",
          "ticks": 9312,
          "time": 27.980765500000004,
          "velocity": 0.7559055118110236
        },
        {
          "duration": 0.28846150000000037,
          "durationTicks": 96,
          "midi": 68,
          "name": "G#4",
          "ticks": 9312,
          "time": 27.980765500000004,
          "velocity": 0.7559055118110236
        },
        {
          "duration": 0.28846150000000037,
          "durationTicks": 96,
          "midi": 37,
          "name": "C#2",
          "ticks": 9408,
          "time": 28.269227000000004,
          "velocity": 0.7559055118110236
        },
        {
          "duration": 0.28846150000000037,
          "durationTicks": 96,
          "midi": 44,
          "name": "G#2",
          "ticks": 9408,
          "time": 28.269227000000004,
          "velocity": 0.7559055118110236
        },
        {
          "duration": 0.28846150000000037,
          "durationTicks": 96,
          "midi": 49,
          "name": "C#3",
          "ticks": 9408,
          "time": 28.269227000000004,
          "velocity": 0.7559055118110236
        },
        {
          "duration": 0.28846150000000037,
          "durationTicks": 96,
          "midi": 68,
          "name": "G#4",
          "ticks": 9408,
          "time": 28.269227000000004,
          "velocity": 0.7559055118110236
        },
        {
          "duration": 0.28846150000000037,
          "durationTicks": 96,
          "midi": 37,
          "name": "C#2",
          "ticks": 9504,
          "time": 28.557688500000005,
          "velocity": 0.7559055118110236
        },
        {
          "duration": 0.28846150000000037,
          "durationTicks": 96,
          "midi": 44,
          "name": "G#2",
          "ticks": 9504,
          "time": 28.557688500000005,
          "velocity": 0.7559055118110236
        },
        {
          "duration": 0.28846150000000037,
          "durationTicks": 96,
          "midi": 49,
          "name": "C#3",
          "ticks": 9504,
          "time": 28.557688500000005,
          "velocity": 0.7559055118110236
        },
        {
          "duration": 0.28846150000000037,
          "durationTicks": 96,
          "midi": 68,
          "name": "G#4",
          "ticks": 9504,
          "time": 28.557688500000005,
          "velocity": 0.7559055118110236
        },
        {
          "duration": 0.28846150000000037,
          "durationTicks": 96,
          "midi": 37,
          "name": "C#2",
          "ticks": 9600,
          "time": 28.846150000000005,
          "velocity": 0.7559055118110236
        },
        {
          "duration": 0.28846150000000037,
          "durationTicks": 96,
          "midi": 44,
          "name": "G#2",
          "ticks": 9600,
          "time": 28.846150000000005,
          "velocity": 0.7559055118110236
        },
        {
          "duration": 0.28846150000000037,
          "durationTicks": 96,
          "midi": 49,
          "name": "C#3",
          "ticks": 9600,
          "time": 28.846150000000005,
          "velocity": 0.7559055118110236
        },
        {
          "duration": 0.28846150000000037,
          "durationTicks": 96,
          "midi": 68,
          "name": "G#4",
          "ticks": 9600,
          "time": 28.846150000000005,
          "velocity": 0.7559055118110236
        },
        {
          "duration": 0.2884614999999968,
          "durationTicks": 96,
          "midi": 37,
          "name": "C#2",
          "ticks": 9696,
          "time": 29.134611500000005,
          "velocity": 0.7559055118110236
        },
        {
          "duration": 0.2884614999999968,
          "durationTicks": 96,
          "midi": 44,
          "name": "G#2",
          "ticks": 9696,
          "time": 29.134611500000005,
          "velocity": 0.7559055118110236
        },
        {
          "duration": 0.2884614999999968,
          "durationTicks": 96,
          "midi": 49,
          "name": "C#3",
          "ticks": 9696,
          "time": 29.134611500000005,
          "velocity": 0.7559055118110236
        },
        {
          "duration": 0.2884614999999968,
          "durationTicks": 96,
          "midi": 68,
          "name": "G#4",
          "ticks": 9696,
          "time": 29.134611500000005,
          "velocity": 0.7559055118110236
        },
        {
          "duration": 0.28846150000000037,
          "durationTicks": 96,
          "midi": 37,
          "name": "C#2",
          "ticks": 9792,
          "time": 29.423073000000002,
          "velocity": 0.7559055118110236
        },
        {
          "duration": 0.28846150000000037,
          "durationTicks": 96,
          "midi": 44,
          "name": "G#2",
          "ticks": 9792,
          "time": 29.423073000000002,
          "velocity": 0.7559055118110236
        },
        {
          "duration": 0.28846150000000037,
          "durationTicks": 96,
          "midi": 49,
          "name": "C#3",
          "ticks": 9792,
          "time": 29.423073000000002,
          "velocity": 0.7559055118110236
        },
        {
          "duration": 0.28846150000000037,
          "durationTicks": 96,
          "midi": 68,
          "name": "G#4",
          "ticks": 9792,
          "time": 29.423073000000002,
          "velocity": 0.7559055118110236
        },
        {
          "duration": 0.28846150000000037,
          "durationTicks": 96,
          "midi": 37,
          "name": "C#2",
          "ticks": 9888,
          "time": 29.711534500000003,
          "velocity": 0.7559055118110236
        },
        {
          "duration": 0.28846150000000037,
          "durationTicks": 96,
          "midi": 44,
          "name": "G#2",
          "ticks": 9888,
          "time": 29.711534500000003,
          "velocity": 0.7559055118110236
        },
        {
          "duration": 0.28846150000000037,
          "durationTicks": 96,
          "midi": 49,
          "name": "C#3",
          "ticks": 9888,
          "time": 29.711534500000003,
          "velocity": 0.7559055118110236
        },
        {
          "duration": 0.28846150000000037,
          "durationTicks": 96,
          "midi": 68,
          "name": "G#4",
          "ticks": 9888,
          "time": 29.711534500000003,
          "velocity": 0.7559055118110236
        },
        {
          "duration": 0.28846150000000037,
          "durationTicks": 96,
          "midi": 37,
          "name": "C#2",
          "ticks": 9984,
          "time": 29.999996000000003,
          "velocity": 0.7559055118110236
        },
        {
          "duration": 0.28846150000000037,
          "durationTicks": 96,
          "midi": 44,
          "name": "G#2",
          "ticks": 9984,
          "time": 29.999996000000003,
          "velocity": 0.7559055118110236
        },
        {
          "duration": 0.28846150000000037,
          "durationTicks": 96,
          "midi": 49,
          "name": "C#3",
          "ticks": 9984,
          "time": 29.999996000000003,
          "velocity": 0.7559055118110236
        },
        {
          "duration": 0.28846150000000037,
          "durationTicks": 96,
          "midi": 68,
          "name": "G#4",
          "ticks": 9984,
          "time": 29.999996000000003,
          "velocity": 0.7559055118110236
        },
        {
          "duration": 0.28846150000000037,
          "durationTicks": 96,
          "midi": 45,
          "name": "A2",
          "ticks": 10080,
          "time": 30.288457500000003,
          "velocity": 0.7559055118110236
        },
        {
          "duration": 0.28846150000000037,
          "durationTicks": 96,
          "midi": 52,
          "name": "E3",
          "ticks": 10080,
          "time": 30.288457500000003,
          "velocity": 0.7559055118110236
        },
        {
          "duration": 0.28846150000000037,
          "durationTicks": 96,
          "midi": 57,
          "name": "A3",
          "ticks": 10080,
          "time": 30.288457500000003,
          "velocity": 0.7559055118110236
        },
        {
          "duration": 0.28846150000000037,
          "durationTicks": 96,
          "midi": 45,
          "name": "A2",
          "ticks": 10176,
          "time": 30.576919000000004,
          "velocity": 0.7559055118110236
        },
        {
          "duration": 0.28846150000000037,
          "durationTicks": 96,
          "midi": 52,
          "name": "E3",
          "ticks": 10176,
          "time": 30.576919000000004,
          "velocity": 0.7559055118110236
        },
        {
          "duration": 0.28846150000000037,
          "durationTicks": 96,
          "midi": 57,
          "name": "A3",
          "ticks": 10176,
          "time": 30.576919000000004,
          "velocity": 0.7559055118110236
        },
        {
          "duration": 0.28846150000000037,
          "durationTicks": 96,
          "midi": 45,
          "name": "A2",
          "ticks": 10272,
          "time": 30.865380500000004,
          "velocity": 0.7559055118110236
        },
        {
          "duration": 0.28846150000000037,
          "durationTicks": 96,
          "midi": 52,
          "name": "E3",
          "ticks": 10272,
          "time": 30.865380500000004,
          "velocity": 0.7559055118110236
        },
        {
          "duration": 0.28846150000000037,
          "durationTicks": 96,
          "midi": 57,
          "name": "A3",
          "ticks": 10272,
          "time": 30.865380500000004,
          "velocity": 0.7559055118110236
        },
        {
          "duration": 0.28846150000000037,
          "durationTicks": 96,
          "midi": 45,
          "name": "A2",
          "ticks": 10368,
          "time": 31.153842000000004,
          "velocity": 0.7559055118110236
        },
        {
          "duration": 0.28846150000000037,
          "durationTicks": 96,
          "midi": 52,
          "name": "E3",
          "ticks": 10368,
          "time": 31.153842000000004,
          "velocity": 0.7559055118110236
        },
        {
          "duration": 0.28846150000000037,
          "durationTicks": 96,
          "midi": 57,
          "name": "A3",
          "ticks": 10368,
          "time": 31.153842000000004,
          "velocity": 0.7559055118110236
        },
        {
          "duration": 0.28846150000000037,
          "durationTicks": 96,
          "midi": 45,
          "name": "A2",
          "ticks": 10464,
          "time": 31.442303500000005,
          "velocity": 0.7559055118110236
        },
        {
          "duration": 0.28846150000000037,
          "durationTicks": 96,
          "midi": 52,
          "name": "E3",
          "ticks": 10464,
          "time": 31.442303500000005,
          "velocity": 0.7559055118110236
        },
        {
          "duration": 0.28846150000000037,
          "durationTicks": 96,
          "midi": 57,
          "name": "A3",
          "ticks": 10464,
          "time": 31.442303500000005,
          "velocity": 0.7559055118110236
        },
        {
          "duration": 0.2884614999999968,
          "durationTicks": 96,
          "midi": 45,
          "name": "A2",
          "ticks": 10560,
          "time": 31.730765000000005,
          "velocity": 0.7559055118110236
        },
        {
          "duration": 0.2884614999999968,
          "durationTicks": 96,
          "midi": 52,
          "name": "E3",
          "ticks": 10560,
          "time": 31.730765000000005,
          "velocity": 0.7559055118110236
        },
        {
          "duration": 0.2884614999999968,
          "durationTicks": 96,
          "midi": 57,
          "name": "A3",
          "ticks": 10560,
          "time": 31.730765000000005,
          "velocity": 0.7559055118110236
        },
        {
          "duration": 0.2884615000000039,
          "durationTicks": 96,
          "midi": 45,
          "name": "A2",
          "ticks": 10656,
          "time": 32.0192265,
          "velocity": 0.7559055118110236
        },
        {
          "duration": 0.2884615000000039,
          "durationTicks": 96,
          "midi": 52,
          "name": "E3",
          "ticks": 10656,
          "time": 32.0192265,
          "velocity": 0.7559055118110236
        },
        {
          "duration": 0.2884615000000039,
          "durationTicks": 96,
          "midi": 57,
          "name": "A3",
          "ticks": 10656,
          "time": 32.0192265,
          "velocity": 0.7559055118110236
        },
        {
          "duration": 0.2884614999999968,
          "durationTicks": 96,
          "midi": 45,
          "name": "A2",
          "ticks": 10752,
          "time": 32.307688000000006,
          "velocity": 0.7559055118110236
        },
        {
          "duration": 0.2884614999999968,
          "durationTicks": 96,
          "midi": 52,
          "name": "E3",
          "ticks": 10752,
          "time": 32.307688000000006,
          "velocity": 0.7559055118110236
        },
        {
          "duration": 0.2884614999999968,
          "durationTicks": 96,
          "midi": 57,
          "name": "A3",
          "ticks": 10752,
          "time": 32.307688000000006,
          "velocity": 0.7559055118110236
        },
        {
          "duration": 0.2884615000000039,
          "durationTicks": 96,
          "midi": 40,
          "name": "E2",
          "ticks": 10848,
          "time": 32.5961495,
          "velocity": 0.7559055118110236
        },
        {
          "duration": 0.2884615000000039,
          "durationTicks": 96,
          "midi": 47,
          "name": "B2",
          "ticks": 10848,
          "time": 32.5961495,
          "velocity": 0.7559055118110236
        },
        {
          "duration": 0.2884615000000039,
          "durationTicks": 96,
          "midi": 52,
          "name": "E3",
          "ticks": 10848,
          "time": 32.5961495,
          "velocity": 0.7559055118110236
        },
        {
          "duration": 0.2884615000000039,
          "durationTicks": 96,
          "midi": 59,
          "name": "B3",
          "ticks": 10848,
          "time": 32.5961495,
          "velocity": 0.7559055118110236
        },
        {
          "duration": 0.2884614999999968,
          "durationTicks": 96,
          "midi": 40,
          "name": "E2",
          "ticks": 10944,
          "time": 32.88461100000001,
          "velocity": 0.7559055118110236
        },
        {
          "duration": 0.2884614999999968,
          "durationTicks": 96,
          "midi": 47,
          "name": "B2",
          "ticks": 10944,
          "time": 32.88461100000001,
          "velocity": 0.7559055118110236
        },
        {
          "duration": 0.2884614999999968,
          "durationTicks": 96,
          "midi": 52,
          "name": "E3",
          "ticks": 10944,
          "time": 32.88461100000001,
          "velocity": 0.7559055118110236
        },
        {
          "duration": 0.2884614999999968,
          "durationTicks": 96,
          "midi": 59,
          "name": "B3",
          "ticks": 10944,
          "time": 32.88461100000001,
          "velocity": 0.7559055118110236
        },
        {
          "duration": 0.2884615000000039,
          "durationTicks": 96,
          "midi": 40,
          "name": "E2",
          "ticks": 11040,
          "time": 33.1730725,
          "velocity": 0.7559055118110236
        },
        {
          "duration": 0.2884615000000039,
          "durationTicks": 96,
          "midi": 47,
          "name": "B2",
          "ticks": 11040,
          "time": 33.1730725,
          "velocity": 0.7559055118110236
        },
        {
          "duration": 0.2884615000000039,
          "durationTicks": 96,
          "midi": 52,
          "name": "E3",
          "ticks": 11040,
          "time": 33.1730725,
          "velocity": 0.7559055118110236
        },
        {
          "duration": 0.2884615000000039,
          "durationTicks": 96,
          "midi": 59,
          "name": "B3",
          "ticks": 11040,
          "time": 33.1730725,
          "velocity": 0.7559055118110236
        },
        {
          "duration": 0.2884614999999968,
          "durationTicks": 96,
          "midi": 40,
          "name": "E2",
          "ticks": 11136,
          "time": 33.46153400000001,
          "velocity": 0.7559055118110236
        },
        {
          "duration": 0.2884614999999968,
          "durationTicks": 96,
          "midi": 47,
          "name": "B2",
          "ticks": 11136,
          "time": 33.46153400000001,
          "velocity": 0.7559055118110236
        },
        {
          "duration": 0.2884614999999968,
          "durationTicks": 96,
          "midi": 52,
          "name": "E3",
          "ticks": 11136,
          "time": 33.46153400000001,
          "velocity": 0.7559055118110236
        },
        {
          "duration": 0.2884614999999968,
          "durationTicks": 96,
          "midi": 59,
          "name": "B3",
          "ticks": 11136,
          "time": 33.46153400000001,
          "velocity": 0.7559055118110236
        },
        {
          "duration": 0.2884614999999968,
          "durationTicks": 96,
          "midi": 40,
          "name": "E2",
          "ticks": 11232,
          "time": 33.749995500000004,
          "velocity": 0.7559055118110236
        },
        {
          "duration": 0.2884614999999968,
          "durationTicks": 96,
          "midi": 47,
          "name": "B2",
          "ticks": 11232,
          "time": 33.749995500000004,
          "velocity": 0.7559055118110236
        },
        {
          "duration": 0.2884614999999968,
          "durationTicks": 96,
          "midi": 52,
          "name": "E3",
          "ticks": 11232,
          "time": 33.749995500000004,
          "velocity": 0.7559055118110236
        },
        {
          "duration": 0.2884614999999968,
          "durationTicks": 96,
          "midi": 59,
          "name": "B3",
          "ticks": 11232,
          "time": 33.749995500000004,
          "velocity": 0.7559055118110236
        },
        {
          "duration": 0.2884615000000039,
          "durationTicks": 96,
          "midi": 40,
          "name": "E2",
          "ticks": 11328,
          "time": 34.038457,
          "velocity": 0.7559055118110236
        },
        {
          "duration": 0.2884615000000039,
          "durationTicks": 96,
          "midi": 47,
          "name": "B2",
          "ticks": 11328,
          "time": 34.038457,
          "velocity": 0.7559055118110236
        },
        {
          "duration": 0.2884615000000039,
          "durationTicks": 96,
          "midi": 52,
          "name": "E3",
          "ticks": 11328,
          "time": 34.038457,
          "velocity": 0.7559055118110236
        },
        {
          "duration": 0.2884615000000039,
          "durationTicks": 96,
          "midi": 59,
          "name": "B3",
          "ticks": 11328,
          "time": 34.038457,
          "velocity": 0.7559055118110236
        },
        {
          "duration": 0.2884614999999968,
          "durationTicks": 96,
          "midi": 40,
          "name": "E2",
          "ticks": 11424,
          "time": 34.326918500000005,
          "velocity": 0.7559055118110236
        },
        {
          "duration": 0.2884614999999968,
          "durationTicks": 96,
          "midi": 47,
          "name": "B2",
          "ticks": 11424,
          "time": 34.326918500000005,
          "velocity": 0.7559055118110236
        },
        {
          "duration": 0.2884614999999968,
          "durationTicks": 96,
          "midi": 52,
          "name": "E3",
          "ticks": 11424,
          "time": 34.326918500000005,
          "velocity": 0.7559055118110236
        },
        {
          "duration": 0.2884614999999968,
          "durationTicks": 96,
          "midi": 59,
          "name": "B3",
          "ticks": 11424,
          "time": 34.326918500000005,
          "velocity": 0.7559055118110236
        },
        {
          "duration": 0.2884615000000039,
          "durationTicks": 96,
          "midi": 40,
          "name": "E2",
          "ticks": 11520,
          "time": 34.61538,
          "velocity": 0.7559055118110236
        },
        {
          "duration": 0.2884615000000039,
          "durationTicks": 96,
          "midi": 47,
          "name": "B2",
          "ticks": 11520,
          "time": 34.61538,
          "velocity": 0.7559055118110236
        },
        {
          "duration": 0.2884615000000039,
          "durationTicks": 96,
          "midi": 52,
          "name": "E3",
          "ticks": 11520,
          "time": 34.61538,
          "velocity": 0.7559055118110236
        },
        {
          "duration": 0.2884615000000039,
          "durationTicks": 96,
          "midi": 59,
          "name": "B3",
          "ticks": 11520,
          "time": 34.61538,
          "velocity": 0.7559055118110236
        },
        {
          "duration": 0.2884614999999968,
          "durationTicks": 96,
          "midi": 47,
          "name": "B2",
          "ticks": 11616,
          "time": 34.903841500000006,
          "velocity": 0.7559055118110236
        },
        {
          "duration": 0.2884614999999968,
          "durationTicks": 96,
          "midi": 54,
          "name": "F#3",
          "ticks": 11616,
          "time": 34.903841500000006,
          "velocity": 0.7559055118110236
        },
        {
          "duration": 0.2884614999999968,
          "durationTicks": 96,
          "midi": 59,
          "name": "B3",
          "ticks": 11616,
          "time": 34.903841500000006,
          "velocity": 0.7559055118110236
        },
        {
          "duration": 0.2884615000000039,
          "durationTicks": 96,
          "midi": 47,
          "name": "B2",
          "ticks": 11712,
          "time": 35.192303,
          "velocity": 0.7559055118110236
        },
        {
          "duration": 0.2884615000000039,
          "durationTicks": 96,
          "midi": 54,
          "name": "F#3",
          "ticks": 11712,
          "time": 35.192303,
          "velocity": 0.7559055118110236
        },
        {
          "duration": 0.2884615000000039,
          "durationTicks": 96,
          "midi": 59,
          "name": "B3",
          "ticks": 11712,
          "time": 35.192303,
          "velocity": 0.7559055118110236
        },
        {
          "duration": 0.2884614999999968,
          "durationTicks": 96,
          "midi": 47,
          "name": "B2",
          "ticks": 11808,
          "time": 35.48076450000001,
          "velocity": 0.7559055118110236
        },
        {
          "duration": 0.2884614999999968,
          "durationTicks": 96,
          "midi": 54,
          "name": "F#3",
          "ticks": 11808,
          "time": 35.48076450000001,
          "velocity": 0.7559055118110236
        },
        {
          "duration": 0.2884614999999968,
          "durationTicks": 96,
          "midi": 59,
          "name": "B3",
          "ticks": 11808,
          "time": 35.48076450000001,
          "velocity": 0.7559055118110236
        },
        {
          "duration": 0.2884615000000039,
          "durationTicks": 96,
          "midi": 47,
          "name": "B2",
          "ticks": 11904,
          "time": 35.769226,
          "velocity": 0.7559055118110236
        },
        {
          "duration": 0.2884615000000039,
          "durationTicks": 96,
          "midi": 54,
          "name": "F#3",
          "ticks": 11904,
          "time": 35.769226,
          "velocity": 0.7559055118110236
        },
        {
          "duration": 0.2884615000000039,
          "durationTicks": 96,
          "midi": 59,
          "name": "B3",
          "ticks": 11904,
          "time": 35.769226,
          "velocity": 0.7559055118110236
        },
        {
          "duration": 0.2884614999999968,
          "durationTicks": 96,
          "midi": 47,
          "name": "B2",
          "ticks": 12000,
          "time": 36.05768750000001,
          "velocity": 0.7559055118110236
        },
        {
          "duration": 0.2884614999999968,
          "durationTicks": 96,
          "midi": 54,
          "name": "F#3",
          "ticks": 12000,
          "time": 36.05768750000001,
          "velocity": 0.7559055118110236
        },
        {
          "duration": 0.2884614999999968,
          "durationTicks": 96,
          "midi": 59,
          "name": "B3",
          "ticks": 12000,
          "time": 36.05768750000001,
          "velocity": 0.7559055118110236
        },
        {
          "duration": 0.2884615000000039,
          "durationTicks": 96,
          "midi": 47,
          "name": "B2",
          "ticks": 12096,
          "time": 36.346149000000004,
          "velocity": 0.7559055118110236
        },
        {
          "duration": 0.2884615000000039,
          "durationTicks": 96,
          "midi": 54,
          "name": "F#3",
          "ticks": 12096,
          "time": 36.346149000000004,
          "velocity": 0.7559055118110236
        },
        {
          "duration": 0.2884615000000039,
          "durationTicks": 96,
          "midi": 59,
          "name": "B3",
          "ticks": 12096,
          "time": 36.346149000000004,
          "velocity": 0.7559055118110236
        },
        {
          "duration": 0.5769229999999936,
          "durationTicks": 192,
          "midi": 44,
          "name": "G#2",
          "ticks": 12192,
          "time": 36.63461050000001,
          "velocity": 0.7559055118110236
        },
        {
          "duration": 0.5769229999999936,
          "durationTicks": 192,
          "midi": 51,
          "name": "D#3",
          "ticks": 12192,
          "time": 36.63461050000001,
          "velocity": 0.7559055118110236
        },
        {
          "duration": 0.5769229999999936,
          "durationTicks": 192,
          "midi": 56,
          "name": "G#3",
          "ticks": 12192,
          "time": 36.63461050000001,
          "velocity": 0.7559055118110236
        },
        {
          "duration": 0.015024036458328283,
          "durationTicks": 5,
          "midi": 40,
          "name": "E2",
          "ticks": 27552,
          "time": 82.78845050000001,
          "velocity": 0.7559055118110236
        },
        {
          "duration": 0.015024036458328283,
          "durationTicks": 5,
          "midi": 44,
          "name": "G#2",
          "ticks": 27552,
          "time": 82.78845050000001,
          "velocity": 0.7559055118110236
        },
        {
          "duration": 0.015024036458328283,
          "durationTicks": 5,
          "midi": 51,
          "name": "D#3",
          "ticks": 27552,
          "time": 82.78845050000001,
          "velocity": 0.7559055118110236
        },
        {
          "duration": 0.015024036458328283,
          "durationTicks": 5,
          "midi": 56,
          "name": "G#3",
          "ticks": 27552,
          "time": 82.78845050000001,
          "velocity": 0.7559055118110236
        },
        {
          "duration": 0.015024036458328283,
          "durationTicks": 5,
          "midi": 58,
          "name": "A#3",
          "ticks": 27552,
          "time": 82.78845050000001,
          "velocity": 0.7559055118110236
        },
        {
          "duration": 0.015024036458328283,
          "durationTicks": 5,
          "midi": 63,
          "name": "D#4",
          "ticks": 27552,
          "time": 82.78845050000001,
          "velocity": 0.7559055118110236
        },
        {
          "duration": 0.015024036458328283,
          "durationTicks": 5,
          "midi": 40,
          "name": "E2",
          "ticks": 27600,
          "time": 82.93268125000002,
          "velocity": 0.7559055118110236
        },
        {
          "duration": 0.015024036458328283,
          "durationTicks": 5,
          "midi": 44,
          "name": "G#2",
          "ticks": 27600,
          "time": 82.93268125000002,
          "velocity": 0.7559055118110236
        },
        {
          "duration": 0.015024036458328283,
          "durationTicks": 5,
          "midi": 51,
          "name": "D#3",
          "ticks": 27600,
          "time": 82.93268125000002,
          "velocity": 0.7559055118110236
        },
        {
          "duration": 0.015024036458328283,
          "durationTicks": 5,
          "midi": 56,
          "name": "G#3",
          "ticks": 27600,
          "time": 82.93268125000002,
          "velocity": 0.7559055118110236
        },
        {
          "duration": 0.015024036458328283,
          "durationTicks": 5,
          "midi": 58,
          "name": "A#3",
          "ticks": 27600,
          "time": 82.93268125000002,
          "velocity": 0.7559055118110236
        },
        {
          "duration": 0.015024036458328283,
          "durationTicks": 5,
          "midi": 63,
          "name": "D#4",
          "ticks": 27600,
          "time": 82.93268125000002,
          "velocity": 0.7559055118110236
        },
        {
          "duration": 0.015024036458328283,
          "durationTicks": 5,
          "midi": 40,
          "name": "E2",
          "ticks": 27648,
          "time": 83.07691200000001,
          "velocity": 0.7559055118110236
        },
        {
          "duration": 0.015024036458328283,
          "durationTicks": 5,
          "midi": 44,
          "name": "G#2",
          "ticks": 27648,
          "time": 83.07691200000001,
          "velocity": 0.7559055118110236
        },
        {
          "duration": 0.015024036458328283,
          "durationTicks": 5,
          "midi": 51,
          "name": "D#3",
          "ticks": 27648,
          "time": 83.07691200000001,
          "velocity": 0.7559055118110236
        },
        {
          "duration": 0.015024036458328283,
          "durationTicks": 5,
          "midi": 56,
          "name": "G#3",
          "ticks": 27648,
          "time": 83.07691200000001,
          "velocity": 0.7559055118110236
        },
        {
          "duration": 0.015024036458328283,
          "durationTicks": 5,
          "midi": 58,
          "name": "A#3",
          "ticks": 27648,
          "time": 83.07691200000001,
          "velocity": 0.7559055118110236
        },
        {
          "duration": 0.015024036458328283,
          "durationTicks": 5,
          "midi": 63,
          "name": "D#4",
          "ticks": 27648,
          "time": 83.07691200000001,
          "velocity": 0.7559055118110236
        },
        {
          "duration": 0.015024036458328283,
          "durationTicks": 5,
          "midi": 40,
          "name": "E2",
          "ticks": 27696,
          "time": 83.22114275000001,
          "velocity": 0.7559055118110236
        },
        {
          "duration": 0.015024036458328283,
          "durationTicks": 5,
          "midi": 44,
          "name": "G#2",
          "ticks": 27696,
          "time": 83.22114275000001,
          "velocity": 0.7559055118110236
        },
        {
          "duration": 0.015024036458328283,
          "durationTicks": 5,
          "midi": 51,
          "name": "D#3",
          "ticks": 27696,
          "time": 83.22114275000001,
          "velocity": 0.7559055118110236
        },
        {
          "duration": 0.015024036458328283,
          "durationTicks": 5,
          "midi": 56,
          "name": "G#3",
          "ticks": 27696,
          "time": 83.22114275000001,
          "velocity": 0.7559055118110236
        },
        {
          "duration": 0.015024036458328283,
          "durationTicks": 5,
          "midi": 58,
          "name": "A#3",
          "ticks": 27696,
          "time": 83.22114275000001,
          "velocity": 0.7559055118110236
        },
        {
          "duration": 0.015024036458328283,
          "durationTicks": 5,
          "midi": 63,
          "name": "D#4",
          "ticks": 27696,
          "time": 83.22114275000001,
          "velocity": 0.7559055118110236
        },
        {
          "duration": 0.28846150000001103,
          "durationTicks": 96,
          "midi": 37,
          "name": "C#2",
          "ticks": 27744,
          "time": 83.3653735,
          "velocity": 0.7559055118110236
        },
        {
          "duration": 0.28846150000001103,
          "durationTicks": 96,
          "midi": 44,
          "name": "G#2",
          "ticks": 27744,
          "time": 83.3653735,
          "velocity": 0.7559055118110236
        },
        {
          "duration": 0.28846150000001103,
          "durationTicks": 96,
          "midi": 49,
          "name": "C#3",
          "ticks": 27744,
          "time": 83.3653735,
          "velocity": 0.7559055118110236
        },
        {
          "duration": 0.28846150000001103,
          "durationTicks": 96,
          "midi": 68,
          "name": "G#4",
          "ticks": 27744,
          "time": 83.3653735,
          "velocity": 0.7559055118110236
        },
        {
          "duration": 0.2884614999999968,
          "durationTicks": 96,
          "midi": 37,
          "name": "C#2",
          "ticks": 27840,
          "time": 83.65383500000002,
          "velocity": 0.7559055118110236
        },
        {
          "duration": 0.2884614999999968,
          "durationTicks": 96,
          "midi": 44,
          "name": "G#2",
          "ticks": 27840,
          "time": 83.65383500000002,
          "velocity": 0.7559055118110236
        },
        {
          "duration": 0.2884614999999968,
          "durationTicks": 96,
          "midi": 49,
          "name": "C#3",
          "ticks": 27840,
          "time": 83.65383500000002,
          "velocity": 0.7559055118110236
        },
        {
          "duration": 0.2884614999999968,
          "durationTicks": 96,
          "midi": 68,
          "name": "G#4",
          "ticks": 27840,
          "time": 83.65383500000002,
          "velocity": 0.7559055118110236
        },
        {
          "duration": 0.2884614999999968,
          "durationTicks": 96,
          "midi": 37,
          "name": "C#2",
          "ticks": 27936,
          "time": 83.94229650000001,
          "velocity": 0.7559055118110236
        },
        {
          "duration": 0.2884614999999968,
          "durationTicks": 96,
          "midi": 44,
          "name": "G#2",
          "ticks": 27936,
          "time": 83.94229650000001,
          "velocity": 0.7559055118110236
        },
        {
          "duration": 0.2884614999999968,
          "durationTicks": 96,
          "midi": 49,
          "name": "C#3",
          "ticks": 27936,
          "time": 83.94229650000001,
          "velocity": 0.7559055118110236
        },
        {
          "duration": 0.2884614999999968,
          "durationTicks": 96,
          "midi": 68,
          "name": "G#4",
          "ticks": 27936,
          "time": 83.94229650000001,
          "velocity": 0.7559055118110236
        },
        {
          "duration": 0.2884614999999968,
          "durationTicks": 96,
          "midi": 37,
          "name": "C#2",
          "ticks": 28032,
          "time": 84.23075800000001,
          "velocity": 0.7559055118110236
        },
        {
          "duration": 0.2884614999999968,
          "durationTicks": 96,
          "midi": 44,
          "name": "G#2",
          "ticks": 28032,
          "time": 84.23075800000001,
          "velocity": 0.7559055118110236
        },
        {
          "duration": 0.2884614999999968,
          "durationTicks": 96,
          "midi": 49,
          "name": "C#3",
          "ticks": 28032,
          "time": 84.23075800000001,
          "velocity": 0.7559055118110236
        },
        {
          "duration": 0.2884614999999968,
          "durationTicks": 96,
          "midi": 68,
          "name": "G#4",
          "ticks": 28032,
          "time": 84.23075800000001,
          "velocity": 0.7559055118110236
        },
        {
          "duration": 0.28846150000001103,
          "durationTicks": 96,
          "midi": 37,
          "name": "C#2",
          "ticks": 28128,
          "time": 84.5192195,
          "velocity": 0.7559055118110236
        },
        {
          "duration": 0.28846150000001103,
          "durationTicks": 96,
          "midi": 44,
          "name": "G#2",
          "ticks": 28128,
          "time": 84.5192195,
          "velocity": 0.7559055118110236
        },
        {
          "duration": 0.28846150000001103,
          "durationTicks": 96,
          "midi": 49,
          "name": "C#3",
          "ticks": 28128,
          "time": 84.5192195,
          "velocity": 0.7559055118110236
        },
        {
          "duration": 0.28846150000001103,
          "durationTicks": 96,
          "midi": 68,
          "name": "G#4",
          "ticks": 28128,
          "time": 84.5192195,
          "velocity": 0.7559055118110236
        },
        {
          "duration": 0.2884614999999968,
          "durationTicks": 96,
          "midi": 37,
          "name": "C#2",
          "ticks": 28224,
          "time": 84.80768100000002,
          "velocity": 0.7559055118110236
        },
        {
          "duration": 0.2884614999999968,
          "durationTicks": 96,
          "midi": 44,
          "name": "G#2",
          "ticks": 28224,
          "time": 84.80768100000002,
          "velocity": 0.7559055118110236
        },
        {
          "duration": 0.2884614999999968,
          "durationTicks": 96,
          "midi": 49,
          "name": "C#3",
          "ticks": 28224,
          "time": 84.80768100000002,
          "velocity": 0.7559055118110236
        },
        {
          "duration": 0.2884614999999968,
          "durationTicks": 96,
          "midi": 68,
          "name": "G#4",
          "ticks": 28224,
          "time": 84.80768100000002,
          "velocity": 0.7559055118110236
        },
        {
          "duration": 0.2884614999999968,
          "durationTicks": 96,
          "midi": 37,
          "name": "C#2",
          "ticks": 28320,
          "time": 85.09614250000001,
          "velocity": 0.7559055118110236
        },
        {
          "duration": 0.2884614999999968,
          "durationTicks": 96,
          "midi": 44,
          "name": "G#2",
          "ticks": 28320,
          "time": 85.09614250000001,
          "velocity": 0.7559055118110236
        },
        {
          "duration": 0.2884614999999968,
          "durationTicks": 96,
          "midi": 49,
          "name": "C#3",
          "ticks": 28320,
          "time": 85.09614250000001,
          "velocity": 0.7559055118110236
        },
        {
          "duration": 0.2884614999999968,
          "durationTicks": 96,
          "midi": 68,
          "name": "G#4",
          "ticks": 28320,
          "time": 85.09614250000001,
          "velocity": 0.7559055118110236
        },
        {
          "duration": 0.2884614999999968,
          "durationTicks": 96,
          "midi": 37,
          "name": "C#2",
          "ticks": 28416,
          "time": 85.38460400000001,
          "velocity": 0.7559055118110236
        },
        {
          "duration": 0.2884614999999968,
          "durationTicks": 96,
          "midi": 44,
          "name": "G#2",
          "ticks": 28416,
          "time": 85.38460400000001,
          "velocity": 0.7559055118110236
        },
        {
          "duration": 0.2884614999999968,
          "durationTicks": 96,
          "midi": 49,
          "name": "C#3",
          "ticks": 28416,
          "time": 85.38460400000001,
          "velocity": 0.7559055118110236
        },
        {
          "duration": 0.2884614999999968,
          "durationTicks": 96,
          "midi": 68,
          "name": "G#4",
          "ticks": 28416,
          "time": 85.38460400000001,
          "velocity": 0.7559055118110236
        },
        {
          "duration": 0.28846150000001103,
          "durationTicks": 96,
          "midi": 45,
          "name": "A2",
          "ticks": 28512,
          "time": 85.6730655,
          "velocity": 0.7559055118110236
        },
        {
          "duration": 0.28846150000001103,
          "durationTicks": 96,
          "midi": 52,
          "name": "E3",
          "ticks": 28512,
          "time": 85.6730655,
          "velocity": 0.7559055118110236
        },
        {
          "duration": 0.28846150000001103,
          "durationTicks": 96,
          "midi": 57,
          "name": "A3",
          "ticks": 28512,
          "time": 85.6730655,
          "velocity": 0.7559055118110236
        },
        {
          "duration": 0.2884614999999968,
          "durationTicks": 96,
          "midi": 45,
          "name": "A2",
          "ticks": 28608,
          "time": 85.96152700000002,
          "velocity": 0.7559055118110236
        },
        {
          "duration": 0.2884614999999968,
          "durationTicks": 96,
          "midi": 52,
          "name": "E3",
          "ticks": 28608,
          "time": 85.96152700000002,
          "velocity": 0.7559055118110236
        },
        {
          "duration": 0.2884614999999968,
          "durationTicks": 96,
          "midi": 57,
          "name": "A3",
          "ticks": 28608,
          "time": 85.96152700000002,
          "velocity": 0.7559055118110236
        },
        {
          "duration": 0.2884614999999968,
          "durationTicks": 96,
          "midi": 45,
          "name": "A2",
          "ticks": 28704,
          "time": 86.24998850000001,
          "velocity": 0.7559055118110236
        },
        {
          "duration": 0.2884614999999968,
          "durationTicks": 96,
          "midi": 52,
          "name": "E3",
          "ticks": 28704,
          "time": 86.24998850000001,
          "velocity": 0.7559055118110236
        },
        {
          "duration": 0.2884614999999968,
          "durationTicks": 96,
          "midi": 57,
          "name": "A3",
          "ticks": 28704,
          "time": 86.24998850000001,
          "velocity": 0.7559055118110236
        },
        {
          "duration": 0.2884614999999968,
          "durationTicks": 96,
          "midi": 45,
          "name": "A2",
          "ticks": 28800,
          "time": 86.53845000000001,
          "velocity": 0.7559055118110236
        },
        {
          "duration": 0.2884614999999968,
          "durationTicks": 96,
          "midi": 52,
          "name": "E3",
          "ticks": 28800,
          "time": 86.53845000000001,
          "velocity": 0.7559055118110236
        },
        {
          "duration": 0.2884614999999968,
          "durationTicks": 96,
          "midi": 57,
          "name": "A3",
          "ticks": 28800,
          "time": 86.53845000000001,
          "velocity": 0.7559055118110236
        },
        {
          "duration": 0.2884614999999968,
          "durationTicks": 96,
          "midi": 45,
          "name": "A2",
          "ticks": 28896,
          "time": 86.82691150000001,
          "velocity": 0.7559055118110236
        },
        {
          "duration": 0.2884614999999968,
          "durationTicks": 96,
          "midi": 52,
          "name": "E3",
          "ticks": 28896,
          "time": 86.82691150000001,
          "velocity": 0.7559055118110236
        },
        {
          "duration": 0.2884614999999968,
          "durationTicks": 96,
          "midi": 57,
          "name": "A3",
          "ticks": 28896,
          "time": 86.82691150000001,
          "velocity": 0.7559055118110236
        },
        {
          "duration": 0.28846150000001103,
          "durationTicks": 96,
          "midi": 45,
          "name": "A2",
          "ticks": 28992,
          "time": 87.115373,
          "velocity": 0.7559055118110236
        },
        {
          "duration": 0.28846150000001103,
          "durationTicks": 96,
          "midi": 52,
          "name": "E3",
          "ticks": 28992,
          "time": 87.115373,
          "velocity": 0.7559055118110236
        },
        {
          "duration": 0.28846150000001103,
          "durationTicks": 96,
          "midi": 57,
          "name": "A3",
          "ticks": 28992,
          "time": 87.115373,
          "velocity": 0.7559055118110236
        },
        {
          "duration": 0.2884614999999968,
          "durationTicks": 96,
          "midi": 45,
          "name": "A2",
          "ticks": 29088,
          "time": 87.40383450000002,
          "velocity": 0.7559055118110236
        },
        {
          "duration": 0.2884614999999968,
          "durationTicks": 96,
          "midi": 52,
          "name": "E3",
          "ticks": 29088,
          "time": 87.40383450000002,
          "velocity": 0.7559055118110236
        },
        {
          "duration": 0.2884614999999968,
          "durationTicks": 96,
          "midi": 57,
          "name": "A3",
          "ticks": 29088,
          "time": 87.40383450000002,
          "velocity": 0.7559055118110236
        },
        {
          "duration": 0.2884614999999968,
          "durationTicks": 96,
          "midi": 45,
          "name": "A2",
          "ticks": 29184,
          "time": 87.69229600000001,
          "velocity": 0.7559055118110236
        },
        {
          "duration": 0.2884614999999968,
          "durationTicks": 96,
          "midi": 52,
          "name": "E3",
          "ticks": 29184,
          "time": 87.69229600000001,
          "velocity": 0.7559055118110236
        },
        {
          "duration": 0.2884614999999968,
          "durationTicks": 96,
          "midi": 57,
          "name": "A3",
          "ticks": 29184,
          "time": 87.69229600000001,
          "velocity": 0.7559055118110236
        },
        {
          "duration": 0.2884614999999968,
          "durationTicks": 96,
          "midi": 40,
          "name": "E2",
          "ticks": 29280,
          "time": 87.98075750000001,
          "velocity": 0.7559055118110236
        },
        {
          "duration": 0.2884614999999968,
          "durationTicks": 96,
          "midi": 47,
          "name": "B2",
          "ticks": 29280,
          "time": 87.98075750000001,
          "velocity": 0.7559055118110236
        },
        {
          "duration": 0.2884614999999968,
          "durationTicks": 96,
          "midi": 52,
          "name": "E3",
          "ticks": 29280,
          "time": 87.98075750000001,
          "velocity": 0.7559055118110236
        },
        {
          "duration": 0.2884614999999968,
          "durationTicks": 96,
          "midi": 59,
          "name": "B3",
          "ticks": 29280,
          "time": 87.98075750000001,
          "velocity": 0.7559055118110236
        },
        {
          "duration": 0.28846150000001103,
          "durationTicks": 96,
          "midi": 40,
          "name": "E2",
          "ticks": 29376,
          "time": 88.269219,
          "velocity": 0.7559055118110236
        },
        {
          "duration": 0.28846150000001103,
          "durationTicks": 96,
          "midi": 47,
          "name": "B2",
          "ticks": 29376,
          "time": 88.269219,
          "velocity": 0.7559055118110236
        },
        {
          "duration": 0.28846150000001103,
          "durationTicks": 96,
          "midi": 52,
          "name": "E3",
          "ticks": 29376,
          "time": 88.269219,
          "velocity": 0.7559055118110236
        },
        {
          "duration": 0.28846150000001103,
          "durationTicks": 96,
          "midi": 59,
          "name": "B3",
          "ticks": 29376,
          "time": 88.269219,
          "velocity": 0.7559055118110236
        },
        {
          "duration": 0.2884614999999968,
          "durationTicks": 96,
          "midi": 40,
          "name": "E2",
          "ticks": 29472,
          "time": 88.55768050000002,
          "velocity": 0.7559055118110236
        },
        {
          "duration": 0.2884614999999968,
          "durationTicks": 96,
          "midi": 47,
          "name": "B2",
          "ticks": 29472,
          "time": 88.55768050000002,
          "velocity": 0.7559055118110236
        },
        {
          "duration": 0.2884614999999968,
          "durationTicks": 96,
          "midi": 52,
          "name": "E3",
          "ticks": 29472,
          "time": 88.55768050000002,
          "velocity": 0.7559055118110236
        },
        {
          "duration": 0.2884614999999968,
          "durationTicks": 96,
          "midi": 59,
          "name": "B3",
          "ticks": 29472,
          "time": 88.55768050000002,
          "velocity": 0.7559055118110236
        },
        {
          "duration": 0.2884614999999968,
          "durationTicks": 96,
          "midi": 40,
          "name": "E2",
          "ticks": 29568,
          "time": 88.84614200000001,
          "velocity": 0.7559055118110236
        },
        {
          "duration": 0.2884614999999968,
          "durationTicks": 96,
          "midi": 47,
          "name": "B2",
          "ticks": 29568,
          "time": 88.84614200000001,
          "velocity": 0.7559055118110236
        },
        {
          "duration": 0.2884614999999968,
          "durationTicks": 96,
          "midi": 52,
          "name": "E3",
          "ticks": 29568,
          "time": 88.84614200000001,
          "velocity": 0.7559055118110236
        },
        {
          "duration": 0.2884614999999968,
          "durationTicks": 96,
          "midi": 59,
          "name": "B3",
          "ticks": 29568,
          "time": 88.84614200000001,
          "velocity": 0.7559055118110236
        },
        {
          "duration": 0.2884614999999968,
          "durationTicks": 96,
          "midi": 40,
          "name": "E2",
          "ticks": 29664,
          "time": 89.13460350000001,
          "velocity": 0.7559055118110236
        },
        {
          "duration": 0.2884614999999968,
          "durationTicks": 96,
          "midi": 47,
          "name": "B2",
          "ticks": 29664,
          "time": 89.13460350000001,
          "velocity": 0.7559055118110236
        },
        {
          "duration": 0.2884614999999968,
          "durationTicks": 96,
          "midi": 52,
          "name": "E3",
          "ticks": 29664,
          "time": 89.13460350000001,
          "velocity": 0.7559055118110236
        },
        {
          "duration": 0.2884614999999968,
          "durationTicks": 96,
          "midi": 59,
          "name": "B3",
          "ticks": 29664,
          "time": 89.13460350000001,
          "velocity": 0.7559055118110236
        },
        {
          "duration": 0.2884614999999968,
          "durationTicks": 96,
          "midi": 40,
          "name": "E2",
          "ticks": 29760,
          "time": 89.42306500000001,
          "velocity": 0.7559055118110236
        },
        {
          "duration": 0.2884614999999968,
          "durationTicks": 96,
          "midi": 47,
          "name": "B2",
          "ticks": 29760,
          "time": 89.42306500000001,
          "velocity": 0.7559055118110236
        },
        {
          "duration": 0.2884614999999968,
          "durationTicks": 96,
          "midi": 52,
          "name": "E3",
          "ticks": 29760,
          "time": 89.42306500000001,
          "velocity": 0.7559055118110236
        },
        {
          "duration": 0.2884614999999968,
          "durationTicks": 96,
          "midi": 59,
          "name": "B3",
          "ticks": 29760,
          "time": 89.42306500000001,
          "velocity": 0.7559055118110236
        },
        {
          "duration": 0.28846150000001103,
          "durationTicks": 96,
          "midi": 40,
          "name": "E2",
          "ticks": 29856,
          "time": 89.7115265,
          "velocity": 0.7559055118110236
        },
        {
          "duration": 0.28846150000001103,
          "durationTicks": 96,
          "midi": 47,
          "name": "B2",
          "ticks": 29856,
          "time": 89.7115265,
          "velocity": 0.7559055118110236
        },
        {
          "duration": 0.28846150000001103,
          "durationTicks": 96,
          "midi": 52,
          "name": "E3",
          "ticks": 29856,
          "time": 89.7115265,
          "velocity": 0.7559055118110236
        },
        {
          "duration": 0.28846150000001103,
          "durationTicks": 96,
          "midi": 59,
          "name": "B3",
          "ticks": 29856,
          "time": 89.7115265,
          "velocity": 0.7559055118110236
        },
        {
          "duration": 0.2884614999999968,
          "durationTicks": 96,
          "midi": 40,
          "name": "E2",
          "ticks": 29952,
          "time": 89.99998800000002,
          "velocity": 0.7559055118110236
        },
        {
          "duration": 0.2884614999999968,
          "durationTicks": 96,
          "midi": 47,
          "name": "B2",
          "ticks": 29952,
          "time": 89.99998800000002,
          "velocity": 0.7559055118110236
        },
        {
          "duration": 0.2884614999999968,
          "durationTicks": 96,
          "midi": 52,
          "name": "E3",
          "ticks": 29952,
          "time": 89.99998800000002,
          "velocity": 0.7559055118110236
        },
        {
          "duration": 0.2884614999999968,
          "durationTicks": 96,
          "midi": 59,
          "name": "B3",
          "ticks": 29952,
          "time": 89.99998800000002,
          "velocity": 0.7559055118110236
        },
        {
          "duration": 0.2884614999999968,
          "durationTicks": 96,
          "midi": 47,
          "name": "B2",
          "ticks": 30048,
          "time": 90.28844950000001,
          "velocity": 0.7559055118110236
        },
        {
          "duration": 0.2884614999999968,
          "durationTicks": 96,
          "midi": 54,
          "name": "F#3",
          "ticks": 30048,
          "time": 90.28844950000001,
          "velocity": 0.7559055118110236
        },
        {
          "duration": 0.2884614999999968,
          "durationTicks": 96,
          "midi": 59,
          "name": "B3",
          "ticks": 30048,
          "time": 90.28844950000001,
          "velocity": 0.7559055118110236
        },
        {
          "duration": 0.2884614999999968,
          "durationTicks": 96,
          "midi": 47,
          "name": "B2",
          "ticks": 30144,
          "time": 90.57691100000001,
          "velocity": 0.7559055118110236
        },
        {
          "duration": 0.2884614999999968,
          "durationTicks": 96,
          "midi": 54,
          "name": "F#3",
          "ticks": 30144,
          "time": 90.57691100000001,
          "velocity": 0.7559055118110236
        },
        {
          "duration": 0.2884614999999968,
          "durationTicks": 96,
          "midi": 59,
          "name": "B3",
          "ticks": 30144,
          "time": 90.57691100000001,
          "velocity": 0.7559055118110236
        },
        {
          "duration": 0.28846150000001103,
          "durationTicks": 96,
          "midi": 47,
          "name": "B2",
          "ticks": 30240,
          "time": 90.8653725,
          "velocity": 0.7559055118110236
        },
        {
          "duration": 0.28846150000001103,
          "durationTicks": 96,
          "midi": 54,
          "name": "F#3",
          "ticks": 30240,
          "time": 90.8653725,
          "velocity": 0.7559055118110236
        },
        {
          "duration": 0.28846150000001103,
          "durationTicks": 96,
          "midi": 59,
          "name": "B3",
          "ticks": 30240,
          "time": 90.8653725,
          "velocity": 0.7559055118110236
        },
        {
          "duration": 0.2884614999999968,
          "durationTicks": 96,
          "midi": 47,
          "name": "B2",
          "ticks": 30336,
          "time": 91.15383400000002,
          "velocity": 0.7559055118110236
        },
        {
          "duration": 0.2884614999999968,
          "durationTicks": 96,
          "midi": 54,
          "name": "F#3",
          "ticks": 30336,
          "time": 91.15383400000002,
          "velocity": 0.7559055118110236
        },
        {
          "duration": 0.2884614999999968,
          "durationTicks": 96,
          "midi": 59,
          "name": "B3",
          "ticks": 30336,
          "time": 91.15383400000002,
          "velocity": 0.7559055118110236
        },
        {
          "duration": 0.2884614999999968,
          "durationTicks": 96,
          "midi": 47,
          "name": "B2",
          "ticks": 30432,
          "time": 91.44229550000001,
          "velocity": 0.7559055118110236
        },
        {
          "duration": 0.2884614999999968,
          "durationTicks": 96,
          "midi": 54,
          "name": "F#3",
          "ticks": 30432,
          "time": 91.44229550000001,
          "velocity": 0.7559055118110236
        },
        {
          "duration": 0.2884614999999968,
          "durationTicks": 96,
          "midi": 59,
          "name": "B3",
          "ticks": 30432,
          "time": 91.44229550000001,
          "velocity": 0.7559055118110236
        },
        {
          "duration": 0.2884614999999968,
          "durationTicks": 96,
          "midi": 47,
          "name": "B2",
          "ticks": 30528,
          "time": 91.73075700000001,
          "velocity": 0.7559055118110236
        },
        {
          "duration": 0.2884614999999968,
          "durationTicks": 96,
          "midi": 54,
          "name": "F#3",
          "ticks": 30528,
          "time": 91.73075700000001,
          "velocity": 0.7559055118110236
        },
        {
          "duration": 0.2884614999999968,
          "durationTicks": 96,
          "midi": 59,
          "name": "B3",
          "ticks": 30528,
          "time": 91.73075700000001,
          "velocity": 0.7559055118110236
        },
        {
          "duration": 0.5769230000000078,
          "durationTicks": 192,
          "midi": 44,
          "name": "G#2",
          "ticks": 30624,
          "time": 92.01921850000001,
          "velocity": 0.7559055118110236
        },
        {
          "duration": 0.5769230000000078,
          "durationTicks": 192,
          "midi": 51,
          "name": "D#3",
          "ticks": 30624,
          "time": 92.01921850000001,
          "velocity": 0.7559055118110236
        },
        {
          "duration": 0.5769230000000078,
          "durationTicks": 192,
          "midi": 56,
          "name": "G#3",
          "ticks": 30624,
          "time": 92.01921850000001,
          "velocity": 0.7559055118110236
        },
        {
          "duration": 0.2884614999999968,
          "durationTicks": 96,
          "midi": 37,
          "name": "C#2",
          "ticks": 30816,
          "time": 92.59614150000002,
          "velocity": 0.7559055118110236
        },
        {
          "duration": 0.2884614999999968,
          "durationTicks": 96,
          "midi": 44,
          "name": "G#2",
          "ticks": 30816,
          "time": 92.59614150000002,
          "velocity": 0.7559055118110236
        },
        {
          "duration": 0.2884614999999968,
          "durationTicks": 96,
          "midi": 49,
          "name": "C#3",
          "ticks": 30816,
          "time": 92.59614150000002,
          "velocity": 0.7559055118110236
        },
        {
          "duration": 0.2884614999999968,
          "durationTicks": 96,
          "midi": 68,
          "name": "G#4",
          "ticks": 30816,
          "time": 92.59614150000002,
          "velocity": 0.7559055118110236
        },
        {
          "duration": 0.2884614999999968,
          "durationTicks": 96,
          "midi": 37,
          "name": "C#2",
          "ticks": 30912,
          "time": 92.88460300000001,
          "velocity": 0.7559055118110236
        },
        {
          "duration": 0.2884614999999968,
          "durationTicks": 96,
          "midi": 44,
          "name": "G#2",
          "ticks": 30912,
          "time": 92.88460300000001,
          "velocity": 0.7559055118110236
        },
        {
          "duration": 0.2884614999999968,
          "durationTicks": 96,
          "midi": 49,
          "name": "C#3",
          "ticks": 30912,
          "time": 92.88460300000001,
          "velocity": 0.7559055118110236
        },
        {
          "duration": 0.2884614999999968,
          "durationTicks": 96,
          "midi": 68,
          "name": "G#4",
          "ticks": 30912,
          "time": 92.88460300000001,
          "velocity": 0.7559055118110236
        },
        {
          "duration": 0.2884614999999968,
          "durationTicks": 96,
          "midi": 37,
          "name": "C#2",
          "ticks": 31008,
          "time": 93.17306450000001,
          "velocity": 0.7559055118110236
        },
        {
          "duration": 0.2884614999999968,
          "durationTicks": 96,
          "midi": 44,
          "name": "G#2",
          "ticks": 31008,
          "time": 93.17306450000001,
          "velocity": 0.7559055118110236
        },
        {
          "duration": 0.2884614999999968,
          "durationTicks": 96,
          "midi": 49,
          "name": "C#3",
          "ticks": 31008,
          "time": 93.17306450000001,
          "velocity": 0.7559055118110236
        },
        {
          "duration": 0.2884614999999968,
          "durationTicks": 96,
          "midi": 68,
          "name": "G#4",
          "ticks": 31008,
          "time": 93.17306450000001,
          "velocity": 0.7559055118110236
        },
        {
          "duration": 0.28846150000001103,
          "durationTicks": 96,
          "midi": 37,
          "name": "C#2",
          "ticks": 31104,
          "time": 93.461526,
          "velocity": 0.7559055118110236
        },
        {
          "duration": 0.28846150000001103,
          "durationTicks": 96,
          "midi": 44,
          "name": "G#2",
          "ticks": 31104,
          "time": 93.461526,
          "velocity": 0.7559055118110236
        },
        {
          "duration": 0.28846150000001103,
          "durationTicks": 96,
          "midi": 49,
          "name": "C#3",
          "ticks": 31104,
          "time": 93.461526,
          "velocity": 0.7559055118110236
        },
        {
          "duration": 0.28846150000001103,
          "durationTicks": 96,
          "midi": 68,
          "name": "G#4",
          "ticks": 31104,
          "time": 93.461526,
          "velocity": 0.7559055118110236
        },
        {
          "duration": 0.2884614999999968,
          "durationTicks": 96,
          "midi": 37,
          "name": "C#2",
          "ticks": 31200,
          "time": 93.74998750000002,
          "velocity": 0.7559055118110236
        },
        {
          "duration": 0.2884614999999968,
          "durationTicks": 96,
          "midi": 44,
          "name": "G#2",
          "ticks": 31200,
          "time": 93.74998750000002,
          "velocity": 0.7559055118110236
        },
        {
          "duration": 0.2884614999999968,
          "durationTicks": 96,
          "midi": 49,
          "name": "C#3",
          "ticks": 31200,
          "time": 93.74998750000002,
          "velocity": 0.7559055118110236
        },
        {
          "duration": 0.2884614999999968,
          "durationTicks": 96,
          "midi": 68,
          "name": "G#4",
          "ticks": 31200,
          "time": 93.74998750000002,
          "velocity": 0.7559055118110236
        },
        {
          "duration": 0.2884614999999968,
          "durationTicks": 96,
          "midi": 37,
          "name": "C#2",
          "ticks": 31296,
          "time": 94.03844900000001,
          "velocity": 0.7559055118110236
        },
        {
          "duration": 0.2884614999999968,
          "durationTicks": 96,
          "midi": 44,
          "name": "G#2",
          "ticks": 31296,
          "time": 94.03844900000001,
          "velocity": 0.7559055118110236
        },
        {
          "duration": 0.2884614999999968,
          "durationTicks": 96,
          "midi": 49,
          "name": "C#3",
          "ticks": 31296,
          "time": 94.03844900000001,
          "velocity": 0.7559055118110236
        },
        {
          "duration": 0.2884614999999968,
          "durationTicks": 96,
          "midi": 68,
          "name": "G#4",
          "ticks": 31296,
          "time": 94.03844900000001,
          "velocity": 0.7559055118110236
        },
        {
          "duration": 0.2884614999999968,
          "durationTicks": 96,
          "midi": 37,
          "name": "C#2",
          "ticks": 31392,
          "time": 94.32691050000001,
          "velocity": 0.7559055118110236
        },
        {
          "duration": 0.2884614999999968,
          "durationTicks": 96,
          "midi": 44,
          "name": "G#2",
          "ticks": 31392,
          "time": 94.32691050000001,
          "velocity": 0.7559055118110236
        },
        {
          "duration": 0.2884614999999968,
          "durationTicks": 96,
          "midi": 49,
          "name": "C#3",
          "ticks": 31392,
          "time": 94.32691050000001,
          "velocity": 0.7559055118110236
        },
        {
          "duration": 0.2884614999999968,
          "durationTicks": 96,
          "midi": 68,
          "name": "G#4",
          "ticks": 31392,
          "time": 94.32691050000001,
          "velocity": 0.7559055118110236
        },
        {
          "duration": 0.28846150000001103,
          "durationTicks": 96,
          "midi": 37,
          "name": "C#2",
          "ticks": 31488,
          "time": 94.61537200000001,
          "velocity": 0.7559055118110236
        },
        {
          "duration": 0.28846150000001103,
          "durationTicks": 96,
          "midi": 44,
          "name": "G#2",
          "ticks": 31488,
          "time": 94.61537200000001,
          "velocity": 0.7559055118110236
        },
        {
          "duration": 0.28846150000001103,
          "durationTicks": 96,
          "midi": 49,
          "name": "C#3",
          "ticks": 31488,
          "time": 94.61537200000001,
          "velocity": 0.7559055118110236
        },
        {
          "duration": 0.28846150000001103,
          "durationTicks": 96,
          "midi": 68,
          "name": "G#4",
          "ticks": 31488,
          "time": 94.61537200000001,
          "velocity": 0.7559055118110236
        },
        {
          "duration": 0.2884614999999968,
          "durationTicks": 96,
          "midi": 45,
          "name": "A2",
          "ticks": 31584,
          "time": 94.90383350000002,
          "velocity": 0.7559055118110236
        },
        {
          "duration": 0.2884614999999968,
          "durationTicks": 96,
          "midi": 52,
          "name": "E3",
          "ticks": 31584,
          "time": 94.90383350000002,
          "velocity": 0.7559055118110236
        },
        {
          "duration": 0.2884614999999968,
          "durationTicks": 96,
          "midi": 57,
          "name": "A3",
          "ticks": 31584,
          "time": 94.90383350000002,
          "velocity": 0.7559055118110236
        },
        {
          "duration": 0.2884614999999968,
          "durationTicks": 96,
          "midi": 45,
          "name": "A2",
          "ticks": 31680,
          "time": 95.19229500000002,
          "velocity": 0.7559055118110236
        },
        {
          "duration": 0.2884614999999968,
          "durationTicks": 96,
          "midi": 52,
          "name": "E3",
          "ticks": 31680,
          "time": 95.19229500000002,
          "velocity": 0.7559055118110236
        },
        {
          "duration": 0.2884614999999968,
          "durationTicks": 96,
          "midi": 57,
          "name": "A3",
          "ticks": 31680,
          "time": 95.19229500000002,
          "velocity": 0.7559055118110236
        },
        {
          "duration": 0.2884614999999968,
          "durationTicks": 96,
          "midi": 45,
          "name": "A2",
          "ticks": 31776,
          "time": 95.48075650000001,
          "velocity": 0.7559055118110236
        },
        {
          "duration": 0.2884614999999968,
          "durationTicks": 96,
          "midi": 52,
          "name": "E3",
          "ticks": 31776,
          "time": 95.48075650000001,
          "velocity": 0.7559055118110236
        },
        {
          "duration": 0.2884614999999968,
          "durationTicks": 96,
          "midi": 57,
          "name": "A3",
          "ticks": 31776,
          "time": 95.48075650000001,
          "velocity": 0.7559055118110236
        },
        {
          "duration": 0.2884614999999968,
          "durationTicks": 96,
          "midi": 45,
          "name": "A2",
          "ticks": 31872,
          "time": 95.76921800000001,
          "velocity": 0.7559055118110236
        },
        {
          "duration": 0.2884614999999968,
          "durationTicks": 96,
          "midi": 52,
          "name": "E3",
          "ticks": 31872,
          "time": 95.76921800000001,
          "velocity": 0.7559055118110236
        },
        {
          "duration": 0.2884614999999968,
          "durationTicks": 96,
          "midi": 57,
          "name": "A3",
          "ticks": 31872,
          "time": 95.76921800000001,
          "velocity": 0.7559055118110236
        },
        {
          "duration": 0.28846150000001103,
          "durationTicks": 96,
          "midi": 45,
          "name": "A2",
          "ticks": 31968,
          "time": 96.0576795,
          "velocity": 0.7559055118110236
        },
        {
          "duration": 0.28846150000001103,
          "durationTicks": 96,
          "midi": 52,
          "name": "E3",
          "ticks": 31968,
          "time": 96.0576795,
          "velocity": 0.7559055118110236
        },
        {
          "duration": 0.28846150000001103,
          "durationTicks": 96,
          "midi": 57,
          "name": "A3",
          "ticks": 31968,
          "time": 96.0576795,
          "velocity": 0.7559055118110236
        },
        {
          "duration": 0.2884614999999968,
          "durationTicks": 96,
          "midi": 45,
          "name": "A2",
          "ticks": 32064,
          "time": 96.34614100000002,
          "velocity": 0.7559055118110236
        },
        {
          "duration": 0.2884614999999968,
          "durationTicks": 96,
          "midi": 52,
          "name": "E3",
          "ticks": 32064,
          "time": 96.34614100000002,
          "velocity": 0.7559055118110236
        },
        {
          "duration": 0.2884614999999968,
          "durationTicks": 96,
          "midi": 57,
          "name": "A3",
          "ticks": 32064,
          "time": 96.34614100000002,
          "velocity": 0.7559055118110236
        },
        {
          "duration": 0.2884614999999968,
          "durationTicks": 96,
          "midi": 45,
          "name": "A2",
          "ticks": 32160,
          "time": 96.63460250000001,
          "velocity": 0.7559055118110236
        },
        {
          "duration": 0.2884614999999968,
          "durationTicks": 96,
          "midi": 52,
          "name": "E3",
          "ticks": 32160,
          "time": 96.63460250000001,
          "velocity": 0.7559055118110236
        },
        {
          "duration": 0.2884614999999968,
          "durationTicks": 96,
          "midi": 57,
          "name": "A3",
          "ticks": 32160,
          "time": 96.63460250000001,
          "velocity": 0.7559055118110236
        },
        {
          "duration": 0.2884614999999968,
          "durationTicks": 96,
          "midi": 45,
          "name": "A2",
          "ticks": 32256,
          "time": 96.92306400000001,
          "velocity": 0.7559055118110236
        },
        {
          "duration": 0.2884614999999968,
          "durationTicks": 96,
          "midi": 52,
          "name": "E3",
          "ticks": 32256,
          "time": 96.92306400000001,
          "velocity": 0.7559055118110236
        },
        {
          "duration": 0.2884614999999968,
          "durationTicks": 96,
          "midi": 57,
          "name": "A3",
          "ticks": 32256,
          "time": 96.92306400000001,
          "velocity": 0.7559055118110236
        },
        {
          "duration": 0.28846150000001103,
          "durationTicks": 96,
          "midi": 40,
          "name": "E2",
          "ticks": 32352,
          "time": 97.21152550000001,
          "velocity": 0.7559055118110236
        },
        {
          "duration": 0.28846150000001103,
          "durationTicks": 96,
          "midi": 47,
          "name": "B2",
          "ticks": 32352,
          "time": 97.21152550000001,
          "velocity": 0.7559055118110236
        },
        {
          "duration": 0.28846150000001103,
          "durationTicks": 96,
          "midi": 52,
          "name": "E3",
          "ticks": 32352,
          "time": 97.21152550000001,
          "velocity": 0.7559055118110236
        },
        {
          "duration": 0.28846150000001103,
          "durationTicks": 96,
          "midi": 59,
          "name": "B3",
          "ticks": 32352,
          "time": 97.21152550000001,
          "velocity": 0.7559055118110236
        },
        {
          "duration": 0.2884614999999968,
          "durationTicks": 96,
          "midi": 40,
          "name": "E2",
          "ticks": 32448,
          "time": 97.49998700000002,
          "velocity": 0.7559055118110236
        },
        {
          "duration": 0.2884614999999968,
          "durationTicks": 96,
          "midi": 47,
          "name": "B2",
          "ticks": 32448,
          "time": 97.49998700000002,
          "velocity": 0.7559055118110236
        },
        {
          "duration": 0.2884614999999968,
          "durationTicks": 96,
          "midi": 52,
          "name": "E3",
          "ticks": 32448,
          "time": 97.49998700000002,
          "velocity": 0.7559055118110236
        },
        {
          "duration": 0.2884614999999968,
          "durationTicks": 96,
          "midi": 59,
          "name": "B3",
          "ticks": 32448,
          "time": 97.49998700000002,
          "velocity": 0.7559055118110236
        },
        {
          "duration": 0.2884614999999968,
          "durationTicks": 96,
          "midi": 40,
          "name": "E2",
          "ticks": 32544,
          "time": 97.78844850000002,
          "velocity": 0.7559055118110236
        },
        {
          "duration": 0.2884614999999968,
          "durationTicks": 96,
          "midi": 47,
          "name": "B2",
          "ticks": 32544,
          "time": 97.78844850000002,
          "velocity": 0.7559055118110236
        },
        {
          "duration": 0.2884614999999968,
          "durationTicks": 96,
          "midi": 52,
          "name": "E3",
          "ticks": 32544,
          "time": 97.78844850000002,
          "velocity": 0.7559055118110236
        },
        {
          "duration": 0.2884614999999968,
          "durationTicks": 96,
          "midi": 59,
          "name": "B3",
          "ticks": 32544,
          "time": 97.78844850000002,
          "velocity": 0.7559055118110236
        },
        {
          "duration": 0.2884614999999968,
          "durationTicks": 96,
          "midi": 40,
          "name": "E2",
          "ticks": 32640,
          "time": 98.07691000000001,
          "velocity": 0.7559055118110236
        },
        {
          "duration": 0.2884614999999968,
          "durationTicks": 96,
          "midi": 47,
          "name": "B2",
          "ticks": 32640,
          "time": 98.07691000000001,
          "velocity": 0.7559055118110236
        },
        {
          "duration": 0.2884614999999968,
          "durationTicks": 96,
          "midi": 52,
          "name": "E3",
          "ticks": 32640,
          "time": 98.07691000000001,
          "velocity": 0.7559055118110236
        },
        {
          "duration": 0.2884614999999968,
          "durationTicks": 96,
          "midi": 59,
          "name": "B3",
          "ticks": 32640,
          "time": 98.07691000000001,
          "velocity": 0.7559055118110236
        },
        {
          "duration": 0.2884614999999968,
          "durationTicks": 96,
          "midi": 40,
          "name": "E2",
          "ticks": 32736,
          "time": 98.36537150000001,
          "velocity": 0.7559055118110236
        },
        {
          "duration": 0.2884614999999968,
          "durationTicks": 96,
          "midi": 47,
          "name": "B2",
          "ticks": 32736,
          "time": 98.36537150000001,
          "velocity": 0.7559055118110236
        },
        {
          "duration": 0.2884614999999968,
          "durationTicks": 96,
          "midi": 52,
          "name": "E3",
          "ticks": 32736,
          "time": 98.36537150000001,
          "velocity": 0.7559055118110236
        },
        {
          "duration": 0.2884614999999968,
          "durationTicks": 96,
          "midi": 59,
          "name": "B3",
          "ticks": 32736,
          "time": 98.36537150000001,
          "velocity": 0.7559055118110236
        },
        {
          "duration": 0.28846150000001103,
          "durationTicks": 96,
          "midi": 40,
          "name": "E2",
          "ticks": 32832,
          "time": 98.653833,
          "velocity": 0.7559055118110236
        },
        {
          "duration": 0.28846150000001103,
          "durationTicks": 96,
          "midi": 47,
          "name": "B2",
          "ticks": 32832,
          "time": 98.653833,
          "velocity": 0.7559055118110236
        },
        {
          "duration": 0.28846150000001103,
          "durationTicks": 96,
          "midi": 52,
          "name": "E3",
          "ticks": 32832,
          "time": 98.653833,
          "velocity": 0.7559055118110236
        },
        {
          "duration": 0.28846150000001103,
          "durationTicks": 96,
          "midi": 59,
          "name": "B3",
          "ticks": 32832,
          "time": 98.653833,
          "velocity": 0.7559055118110236
        },
        {
          "duration": 0.2884614999999968,
          "durationTicks": 96,
          "midi": 40,
          "name": "E2",
          "ticks": 32928,
          "time": 98.94229450000002,
          "velocity": 0.7559055118110236
        },
        {
          "duration": 0.2884614999999968,
          "durationTicks": 96,
          "midi": 47,
          "name": "B2",
          "ticks": 32928,
          "time": 98.94229450000002,
          "velocity": 0.7559055118110236
        },
        {
          "duration": 0.2884614999999968,
          "durationTicks": 96,
          "midi": 52,
          "name": "E3",
          "ticks": 32928,
          "time": 98.94229450000002,
          "velocity": 0.7559055118110236
        },
        {
          "duration": 0.2884614999999968,
          "durationTicks": 96,
          "midi": 59,
          "name": "B3",
          "ticks": 32928,
          "time": 98.94229450000002,
          "velocity": 0.7559055118110236
        },
        {
          "duration": 0.2884614999999968,
          "durationTicks": 96,
          "midi": 40,
          "name": "E2",
          "ticks": 33024,
          "time": 99.23075600000001,
          "velocity": 0.7559055118110236
        },
        {
          "duration": 0.2884614999999968,
          "durationTicks": 96,
          "midi": 47,
          "name": "B2",
          "ticks": 33024,
          "time": 99.23075600000001,
          "velocity": 0.7559055118110236
        },
        {
          "duration": 0.2884614999999968,
          "durationTicks": 96,
          "midi": 52,
          "name": "E3",
          "ticks": 33024,
          "time": 99.23075600000001,
          "velocity": 0.7559055118110236
        },
        {
          "duration": 0.2884614999999968,
          "durationTicks": 96,
          "midi": 59,
          "name": "B3",
          "ticks": 33024,
          "time": 99.23075600000001,
          "velocity": 0.7559055118110236
        },
        {
          "duration": 0.2884614999999968,
          "durationTicks": 96,
          "midi": 47,
          "name": "B2",
          "ticks": 33120,
          "time": 99.51921750000001,
          "velocity": 0.7559055118110236
        },
        {
          "duration": 0.2884614999999968,
          "durationTicks": 96,
          "midi": 54,
          "name": "F#3",
          "ticks": 33120,
          "time": 99.51921750000001,
          "velocity": 0.7559055118110236
        },
        {
          "duration": 0.2884614999999968,
          "durationTicks": 96,
          "midi": 59,
          "name": "B3",
          "ticks": 33120,
          "time": 99.51921750000001,
          "velocity": 0.7559055118110236
        },
        {
          "duration": 0.28846150000001103,
          "durationTicks": 96,
          "midi": 47,
          "name": "B2",
          "ticks": 33216,
          "time": 99.80767900000001,
          "velocity": 0.7559055118110236
        },
        {
          "duration": 0.28846150000001103,
          "durationTicks": 96,
          "midi": 54,
          "name": "F#3",
          "ticks": 33216,
          "time": 99.80767900000001,
          "velocity": 0.7559055118110236
        },
        {
          "duration": 0.28846150000001103,
          "durationTicks": 96,
          "midi": 59,
          "name": "B3",
          "ticks": 33216,
          "time": 99.80767900000001,
          "velocity": 0.7559055118110236
        },
        {
          "duration": 0.2884614999999968,
          "durationTicks": 96,
          "midi": 47,
          "name": "B2",
          "ticks": 33312,
          "time": 100.09614050000002,
          "velocity": 0.7559055118110236
        },
        {
          "duration": 0.2884614999999968,
          "durationTicks": 96,
          "midi": 54,
          "name": "F#3",
          "ticks": 33312,
          "time": 100.09614050000002,
          "velocity": 0.7559055118110236
        },
        {
          "duration": 0.2884614999999968,
          "durationTicks": 96,
          "midi": 59,
          "name": "B3",
          "ticks": 33312,
          "time": 100.09614050000002,
          "velocity": 0.7559055118110236
        },
        {
          "duration": 0.2884614999999968,
          "durationTicks": 96,
          "midi": 47,
          "name": "B2",
          "ticks": 33408,
          "time": 100.38460200000002,
          "velocity": 0.7559055118110236
        },
        {
          "duration": 0.2884614999999968,
          "durationTicks": 96,
          "midi": 54,
          "name": "F#3",
          "ticks": 33408,
          "time": 100.38460200000002,
          "velocity": 0.7559055118110236
        },
        {
          "duration": 0.2884614999999968,
          "durationTicks": 96,
          "midi": 59,
          "name": "B3",
          "ticks": 33408,
          "time": 100.38460200000002,
          "velocity": 0.7559055118110236
        },
        {
          "duration": 0.2884614999999968,
          "durationTicks": 96,
          "midi": 47,
          "name": "B2",
          "ticks": 33504,
          "time": 100.67306350000001,
          "velocity": 0.7559055118110236
        },
        {
          "duration": 0.2884614999999968,
          "durationTicks": 96,
          "midi": 54,
          "name": "F#3",
          "ticks": 33504,
          "time": 100.67306350000001,
          "velocity": 0.7559055118110236
        },
        {
          "duration": 0.2884614999999968,
          "durationTicks": 96,
          "midi": 59,
          "name": "B3",
          "ticks": 33504,
          "time": 100.67306350000001,
          "velocity": 0.7559055118110236
        },
        {
          "duration": 0.28846150000001103,
          "durationTicks": 96,
          "midi": 47,
          "name": "B2",
          "ticks": 33600,
          "time": 100.96152500000001,
          "velocity": 0.7559055118110236
        },
        {
          "duration": 0.28846150000001103,
          "durationTicks": 96,
          "midi": 54,
          "name": "F#3",
          "ticks": 33600,
          "time": 100.96152500000001,
          "velocity": 0.7559055118110236
        },
        {
          "duration": 0.28846150000001103,
          "durationTicks": 96,
          "midi": 59,
          "name": "B3",
          "ticks": 33600,
          "time": 100.96152500000001,
          "velocity": 0.7559055118110236
        },
        {
          "duration": 0.5769229999999936,
          "durationTicks": 192,
          "midi": 44,
          "name": "G#2",
          "ticks": 33696,
          "time": 101.24998650000002,
          "velocity": 0.7559055118110236
        },
        {
          "duration": 0.5769229999999936,
          "durationTicks": 192,
          "midi": 51,
          "name": "D#3",
          "ticks": 33696,
          "time": 101.24998650000002,
          "velocity": 0.7559055118110236
        },
        {
          "duration": 0.5769229999999936,
          "durationTicks": 192,
          "midi": 56,
          "name": "G#3",
          "ticks": 33696,
          "time": 101.24998650000002,
          "velocity": 0.7559055118110236
        },
        {
          "duration": 0.28846150000001103,
          "durationTicks": 96,
          "midi": 37,
          "name": "C#2",
          "ticks": 46944,
          "time": 141.05767350000002,
          "velocity": 0.7559055118110236
        },
        {
          "duration": 0.28846150000001103,
          "durationTicks": 96,
          "midi": 44,
          "name": "G#2",
          "ticks": 46944,
          "time": 141.05767350000002,
          "velocity": 0.7559055118110236
        },
        {
          "duration": 0.28846150000001103,
          "durationTicks": 96,
          "midi": 49,
          "name": "C#3",
          "ticks": 46944,
          "time": 141.05767350000002,
          "velocity": 0.7559055118110236
        },
        {
          "duration": 0.28846150000001103,
          "durationTicks": 96,
          "midi": 68,
          "name": "G#4",
          "ticks": 46944,
          "time": 141.05767350000002,
          "velocity": 0.7559055118110236
        },
        {
          "duration": 0.2884614999999826,
          "durationTicks": 96,
          "midi": 37,
          "name": "C#2",
          "ticks": 47040,
          "time": 141.34613500000003,
          "velocity": 0.7559055118110236
        },
        {
          "duration": 0.2884614999999826,
          "durationTicks": 96,
          "midi": 44,
          "name": "G#2",
          "ticks": 47040,
          "time": 141.34613500000003,
          "velocity": 0.7559055118110236
        },
        {
          "duration": 0.2884614999999826,
          "durationTicks": 96,
          "midi": 49,
          "name": "C#3",
          "ticks": 47040,
          "time": 141.34613500000003,
          "velocity": 0.7559055118110236
        },
        {
          "duration": 0.2884614999999826,
          "durationTicks": 96,
          "midi": 68,
          "name": "G#4",
          "ticks": 47040,
          "time": 141.34613500000003,
          "velocity": 0.7559055118110236
        },
        {
          "duration": 0.28846150000001103,
          "durationTicks": 96,
          "midi": 37,
          "name": "C#2",
          "ticks": 47136,
          "time": 141.63459650000001,
          "velocity": 0.7559055118110236
        },
        {
          "duration": 0.28846150000001103,
          "durationTicks": 96,
          "midi": 44,
          "name": "G#2",
          "ticks": 47136,
          "time": 141.63459650000001,
          "velocity": 0.7559055118110236
        },
        {
          "duration": 0.28846150000001103,
          "durationTicks": 96,
          "midi": 49,
          "name": "C#3",
          "ticks": 47136,
          "time": 141.63459650000001,
          "velocity": 0.7559055118110236
        },
        {
          "duration": 0.28846150000001103,
          "durationTicks": 96,
          "midi": 68,
          "name": "G#4",
          "ticks": 47136,
          "time": 141.63459650000001,
          "velocity": 0.7559055118110236
        },
        {
          "duration": 0.2884614999999826,
          "durationTicks": 96,
          "midi": 37,
          "name": "C#2",
          "ticks": 47232,
          "time": 141.92305800000003,
          "velocity": 0.7559055118110236
        },
        {
          "duration": 0.2884614999999826,
          "durationTicks": 96,
          "midi": 44,
          "name": "G#2",
          "ticks": 47232,
          "time": 141.92305800000003,
          "velocity": 0.7559055118110236
        },
        {
          "duration": 0.2884614999999826,
          "durationTicks": 96,
          "midi": 49,
          "name": "C#3",
          "ticks": 47232,
          "time": 141.92305800000003,
          "velocity": 0.7559055118110236
        },
        {
          "duration": 0.2884614999999826,
          "durationTicks": 96,
          "midi": 68,
          "name": "G#4",
          "ticks": 47232,
          "time": 141.92305800000003,
          "velocity": 0.7559055118110236
        },
        {
          "duration": 0.28846150000001103,
          "durationTicks": 96,
          "midi": 37,
          "name": "C#2",
          "ticks": 47328,
          "time": 142.2115195,
          "velocity": 0.7559055118110236
        },
        {
          "duration": 0.28846150000001103,
          "durationTicks": 96,
          "midi": 44,
          "name": "G#2",
          "ticks": 47328,
          "time": 142.2115195,
          "velocity": 0.7559055118110236
        },
        {
          "duration": 0.28846150000001103,
          "durationTicks": 96,
          "midi": 49,
          "name": "C#3",
          "ticks": 47328,
          "time": 142.2115195,
          "velocity": 0.7559055118110236
        },
        {
          "duration": 0.28846150000001103,
          "durationTicks": 96,
          "midi": 68,
          "name": "G#4",
          "ticks": 47328,
          "time": 142.2115195,
          "velocity": 0.7559055118110236
        },
        {
          "duration": 0.28846150000001103,
          "durationTicks": 96,
          "midi": 37,
          "name": "C#2",
          "ticks": 47424,
          "time": 142.49998100000002,
          "velocity": 0.7559055118110236
        },
        {
          "duration": 0.28846150000001103,
          "durationTicks": 96,
          "midi": 44,
          "name": "G#2",
          "ticks": 47424,
          "time": 142.49998100000002,
          "velocity": 0.7559055118110236
        },
        {
          "duration": 0.28846150000001103,
          "durationTicks": 96,
          "midi": 49,
          "name": "C#3",
          "ticks": 47424,
          "time": 142.49998100000002,
          "velocity": 0.7559055118110236
        },
        {
          "duration": 0.28846150000001103,
          "durationTicks": 96,
          "midi": 68,
          "name": "G#4",
          "ticks": 47424,
          "time": 142.49998100000002,
          "velocity": 0.7559055118110236
        },
        {
          "duration": 0.2884614999999826,
          "durationTicks": 96,
          "midi": 37,
          "name": "C#2",
          "ticks": 47520,
          "time": 142.78844250000003,
          "velocity": 0.7559055118110236
        },
        {
          "duration": 0.2884614999999826,
          "durationTicks": 96,
          "midi": 44,
          "name": "G#2",
          "ticks": 47520,
          "time": 142.78844250000003,
          "velocity": 0.7559055118110236
        },
        {
          "duration": 0.2884614999999826,
          "durationTicks": 96,
          "midi": 49,
          "name": "C#3",
          "ticks": 47520,
          "time": 142.78844250000003,
          "velocity": 0.7559055118110236
        },
        {
          "duration": 0.2884614999999826,
          "durationTicks": 96,
          "midi": 68,
          "name": "G#4",
          "ticks": 47520,
          "time": 142.78844250000003,
          "velocity": 0.7559055118110236
        },
        {
          "duration": 0.28846150000001103,
          "durationTicks": 96,
          "midi": 37,
          "name": "C#2",
          "ticks": 47616,
          "time": 143.076904,
          "velocity": 0.7559055118110236
        },
        {
          "duration": 0.28846150000001103,
          "durationTicks": 96,
          "midi": 44,
          "name": "G#2",
          "ticks": 47616,
          "time": 143.076904,
          "velocity": 0.7559055118110236
        },
        {
          "duration": 0.28846150000001103,
          "durationTicks": 96,
          "midi": 49,
          "name": "C#3",
          "ticks": 47616,
          "time": 143.076904,
          "velocity": 0.7559055118110236
        },
        {
          "duration": 0.28846150000001103,
          "durationTicks": 96,
          "midi": 68,
          "name": "G#4",
          "ticks": 47616,
          "time": 143.076904,
          "velocity": 0.7559055118110236
        },
        {
          "duration": 0.2884614999999826,
          "durationTicks": 96,
          "midi": 45,
          "name": "A2",
          "ticks": 47712,
          "time": 143.36536550000002,
          "velocity": 0.7559055118110236
        },
        {
          "duration": 0.2884614999999826,
          "durationTicks": 96,
          "midi": 52,
          "name": "E3",
          "ticks": 47712,
          "time": 143.36536550000002,
          "velocity": 0.7559055118110236
        },
        {
          "duration": 0.2884614999999826,
          "durationTicks": 96,
          "midi": 57,
          "name": "A3",
          "ticks": 47712,
          "time": 143.36536550000002,
          "velocity": 0.7559055118110236
        },
        {
          "duration": 0.28846150000001103,
          "durationTicks": 96,
          "midi": 45,
          "name": "A2",
          "ticks": 47808,
          "time": 143.653827,
          "velocity": 0.7559055118110236
        },
        {
          "duration": 0.28846150000001103,
          "durationTicks": 96,
          "midi": 52,
          "name": "E3",
          "ticks": 47808,
          "time": 143.653827,
          "velocity": 0.7559055118110236
        },
        {
          "duration": 0.28846150000001103,
          "durationTicks": 96,
          "midi": 57,
          "name": "A3",
          "ticks": 47808,
          "time": 143.653827,
          "velocity": 0.7559055118110236
        },
        {
          "duration": 0.28846150000001103,
          "durationTicks": 96,
          "midi": 45,
          "name": "A2",
          "ticks": 47904,
          "time": 143.94228850000002,
          "velocity": 0.7559055118110236
        },
        {
          "duration": 0.28846150000001103,
          "durationTicks": 96,
          "midi": 52,
          "name": "E3",
          "ticks": 47904,
          "time": 143.94228850000002,
          "velocity": 0.7559055118110236
        },
        {
          "duration": 0.28846150000001103,
          "durationTicks": 96,
          "midi": 57,
          "name": "A3",
          "ticks": 47904,
          "time": 143.94228850000002,
          "velocity": 0.7559055118110236
        },
        {
          "duration": 0.2884614999999826,
          "durationTicks": 96,
          "midi": 45,
          "name": "A2",
          "ticks": 48000,
          "time": 144.23075000000003,
          "velocity": 0.7559055118110236
        },
        {
          "duration": 0.2884614999999826,
          "durationTicks": 96,
          "midi": 52,
          "name": "E3",
          "ticks": 48000,
          "time": 144.23075000000003,
          "velocity": 0.7559055118110236
        },
        {
          "duration": 0.2884614999999826,
          "durationTicks": 96,
          "midi": 57,
          "name": "A3",
          "ticks": 48000,
          "time": 144.23075000000003,
          "velocity": 0.7559055118110236
        },
        {
          "duration": 0.28846150000001103,
          "durationTicks": 96,
          "midi": 45,
          "name": "A2",
          "ticks": 48096,
          "time": 144.5192115,
          "velocity": 0.7559055118110236
        },
        {
          "duration": 0.28846150000001103,
          "durationTicks": 96,
          "midi": 52,
          "name": "E3",
          "ticks": 48096,
          "time": 144.5192115,
          "velocity": 0.7559055118110236
        },
        {
          "duration": 0.28846150000001103,
          "durationTicks": 96,
          "midi": 57,
          "name": "A3",
          "ticks": 48096,
          "time": 144.5192115,
          "velocity": 0.7559055118110236
        },
        {
          "duration": 0.2884614999999826,
          "durationTicks": 96,
          "midi": 45,
          "name": "A2",
          "ticks": 48192,
          "time": 144.80767300000002,
          "velocity": 0.7559055118110236
        },
        {
          "duration": 0.2884614999999826,
          "durationTicks": 96,
          "midi": 52,
          "name": "E3",
          "ticks": 48192,
          "time": 144.80767300000002,
          "velocity": 0.7559055118110236
        },
        {
          "duration": 0.2884614999999826,
          "durationTicks": 96,
          "midi": 57,
          "name": "A3",
          "ticks": 48192,
          "time": 144.80767300000002,
          "velocity": 0.7559055118110236
        },
        {
          "duration": 0.28846150000001103,
          "durationTicks": 96,
          "midi": 45,
          "name": "A2",
          "ticks": 48288,
          "time": 145.0961345,
          "velocity": 0.7559055118110236
        },
        {
          "duration": 0.28846150000001103,
          "durationTicks": 96,
          "midi": 52,
          "name": "E3",
          "ticks": 48288,
          "time": 145.0961345,
          "velocity": 0.7559055118110236
        },
        {
          "duration": 0.28846150000001103,
          "durationTicks": 96,
          "midi": 57,
          "name": "A3",
          "ticks": 48288,
          "time": 145.0961345,
          "velocity": 0.7559055118110236
        },
        {
          "duration": 0.28846150000001103,
          "durationTicks": 96,
          "midi": 45,
          "name": "A2",
          "ticks": 48384,
          "time": 145.38459600000002,
          "velocity": 0.7559055118110236
        },
        {
          "duration": 0.28846150000001103,
          "durationTicks": 96,
          "midi": 52,
          "name": "E3",
          "ticks": 48384,
          "time": 145.38459600000002,
          "velocity": 0.7559055118110236
        },
        {
          "duration": 0.28846150000001103,
          "durationTicks": 96,
          "midi": 57,
          "name": "A3",
          "ticks": 48384,
          "time": 145.38459600000002,
          "velocity": 0.7559055118110236
        },
        {
          "duration": 0.2884614999999826,
          "durationTicks": 96,
          "midi": 40,
          "name": "E2",
          "ticks": 48480,
          "time": 145.67305750000003,
          "velocity": 0.7559055118110236
        },
        {
          "duration": 0.2884614999999826,
          "durationTicks": 96,
          "midi": 47,
          "name": "B2",
          "ticks": 48480,
          "time": 145.67305750000003,
          "velocity": 0.7559055118110236
        },
        {
          "duration": 0.2884614999999826,
          "durationTicks": 96,
          "midi": 52,
          "name": "E3",
          "ticks": 48480,
          "time": 145.67305750000003,
          "velocity": 0.7559055118110236
        },
        {
          "duration": 0.2884614999999826,
          "durationTicks": 96,
          "midi": 59,
          "name": "B3",
          "ticks": 48480,
          "time": 145.67305750000003,
          "velocity": 0.7559055118110236
        },
        {
          "duration": 0.28846150000001103,
          "durationTicks": 96,
          "midi": 40,
          "name": "E2",
          "ticks": 48576,
          "time": 145.961519,
          "velocity": 0.7559055118110236
        },
        {
          "duration": 0.28846150000001103,
          "durationTicks": 96,
          "midi": 47,
          "name": "B2",
          "ticks": 48576,
          "time": 145.961519,
          "velocity": 0.7559055118110236
        },
        {
          "duration": 0.28846150000001103,
          "durationTicks": 96,
          "midi": 52,
          "name": "E3",
          "ticks": 48576,
          "time": 145.961519,
          "velocity": 0.7559055118110236
        },
        {
          "duration": 0.28846150000001103,
          "durationTicks": 96,
          "midi": 59,
          "name": "B3",
          "ticks": 48576,
          "time": 145.961519,
          "velocity": 0.7559055118110236
        },
        {
          "duration": 0.28846150000001103,
          "durationTicks": 96,
          "midi": 40,
          "name": "E2",
          "ticks": 48672,
          "time": 146.24998050000002,
          "velocity": 0.7559055118110236
        },
        {
          "duration": 0.28846150000001103,
          "durationTicks": 96,
          "midi": 47,
          "name": "B2",
          "ticks": 48672,
          "time": 146.24998050000002,
          "velocity": 0.7559055118110236
        },
        {
          "duration": 0.28846150000001103,
          "durationTicks": 96,
          "midi": 52,
          "name": "E3",
          "ticks": 48672,
          "time": 146.24998050000002,
          "velocity": 0.7559055118110236
        },
        {
          "duration": 0.28846150000001103,
          "durationTicks": 96,
          "midi": 59,
          "name": "B3",
          "ticks": 48672,
          "time": 146.24998050000002,
          "velocity": 0.7559055118110236
        },
        {
          "duration": 0.2884614999999826,
          "durationTicks": 96,
          "midi": 40,
          "name": "E2",
          "ticks": 48768,
          "time": 146.53844200000003,
          "velocity": 0.7559055118110236
        },
        {
          "duration": 0.2884614999999826,
          "durationTicks": 96,
          "midi": 47,
          "name": "B2",
          "ticks": 48768,
          "time": 146.53844200000003,
          "velocity": 0.7559055118110236
        },
        {
          "duration": 0.2884614999999826,
          "durationTicks": 96,
          "midi": 52,
          "name": "E3",
          "ticks": 48768,
          "time": 146.53844200000003,
          "velocity": 0.7559055118110236
        },
        {
          "duration": 0.2884614999999826,
          "durationTicks": 96,
          "midi": 59,
          "name": "B3",
          "ticks": 48768,
          "time": 146.53844200000003,
          "velocity": 0.7559055118110236
        },
        {
          "duration": 0.28846150000001103,
          "durationTicks": 96,
          "midi": 40,
          "name": "E2",
          "ticks": 48864,
          "time": 146.82690350000001,
          "velocity": 0.7559055118110236
        },
        {
          "duration": 0.28846150000001103,
          "durationTicks": 96,
          "midi": 47,
          "name": "B2",
          "ticks": 48864,
          "time": 146.82690350000001,
          "velocity": 0.7559055118110236
        },
        {
          "duration": 0.28846150000001103,
          "durationTicks": 96,
          "midi": 52,
          "name": "E3",
          "ticks": 48864,
          "time": 146.82690350000001,
          "velocity": 0.7559055118110236
        },
        {
          "duration": 0.28846150000001103,
          "durationTicks": 96,
          "midi": 59,
          "name": "B3",
          "ticks": 48864,
          "time": 146.82690350000001,
          "velocity": 0.7559055118110236
        },
        {
          "duration": 0.2884614999999826,
          "durationTicks": 96,
          "midi": 40,
          "name": "E2",
          "ticks": 48960,
          "time": 147.11536500000003,
          "velocity": 0.7559055118110236
        },
        {
          "duration": 0.2884614999999826,
          "durationTicks": 96,
          "midi": 47,
          "name": "B2",
          "ticks": 48960,
          "time": 147.11536500000003,
          "velocity": 0.7559055118110236
        },
        {
          "duration": 0.2884614999999826,
          "durationTicks": 96,
          "midi": 52,
          "name": "E3",
          "ticks": 48960,
          "time": 147.11536500000003,
          "velocity": 0.7559055118110236
        },
        {
          "duration": 0.2884614999999826,
          "durationTicks": 96,
          "midi": 59,
          "name": "B3",
          "ticks": 48960,
          "time": 147.11536500000003,
          "velocity": 0.7559055118110236
        },
        {
          "duration": 0.28846150000001103,
          "durationTicks": 96,
          "midi": 40,
          "name": "E2",
          "ticks": 49056,
          "time": 147.4038265,
          "velocity": 0.7559055118110236
        },
        {
          "duration": 0.28846150000001103,
          "durationTicks": 96,
          "midi": 47,
          "name": "B2",
          "ticks": 49056,
          "time": 147.4038265,
          "velocity": 0.7559055118110236
        },
        {
          "duration": 0.28846150000001103,
          "durationTicks": 96,
          "midi": 52,
          "name": "E3",
          "ticks": 49056,
          "time": 147.4038265,
          "velocity": 0.7559055118110236
        },
        {
          "duration": 0.28846150000001103,
          "durationTicks": 96,
          "midi": 59,
          "name": "B3",
          "ticks": 49056,
          "time": 147.4038265,
          "velocity": 0.7559055118110236
        },
        {
          "duration": 0.28846150000001103,
          "durationTicks": 96,
          "midi": 40,
          "name": "E2",
          "ticks": 49152,
          "time": 147.69228800000002,
          "velocity": 0.7559055118110236
        },
        {
          "duration": 0.28846150000001103,
          "durationTicks": 96,
          "midi": 47,
          "name": "B2",
          "ticks": 49152,
          "time": 147.69228800000002,
          "velocity": 0.7559055118110236
        },
        {
          "duration": 0.28846150000001103,
          "durationTicks": 96,
          "midi": 52,
          "name": "E3",
          "ticks": 49152,
          "time": 147.69228800000002,
          "velocity": 0.7559055118110236
        },
        {
          "duration": 0.28846150000001103,
          "durationTicks": 96,
          "midi": 59,
          "name": "B3",
          "ticks": 49152,
          "time": 147.69228800000002,
          "velocity": 0.7559055118110236
        },
        {
          "duration": 0.2884614999999826,
          "durationTicks": 96,
          "midi": 47,
          "name": "B2",
          "ticks": 49248,
          "time": 147.98074950000003,
          "velocity": 0.7559055118110236
        },
        {
          "duration": 0.2884614999999826,
          "durationTicks": 96,
          "midi": 54,
          "name": "F#3",
          "ticks": 49248,
          "time": 147.98074950000003,
          "velocity": 0.7559055118110236
        },
        {
          "duration": 0.2884614999999826,
          "durationTicks": 96,
          "midi": 59,
          "name": "B3",
          "ticks": 49248,
          "time": 147.98074950000003,
          "velocity": 0.7559055118110236
        },
        {
          "duration": 0.28846150000001103,
          "durationTicks": 96,
          "midi": 47,
          "name": "B2",
          "ticks": 49344,
          "time": 148.269211,
          "velocity": 0.7559055118110236
        },
        {
          "duration": 0.28846150000001103,
          "durationTicks": 96,
          "midi": 54,
          "name": "F#3",
          "ticks": 49344,
          "time": 148.269211,
          "velocity": 0.7559055118110236
        },
        {
          "duration": 0.28846150000001103,
          "durationTicks": 96,
          "midi": 59,
          "name": "B3",
          "ticks": 49344,
          "time": 148.269211,
          "velocity": 0.7559055118110236
        },
        {
          "duration": 0.2884614999999826,
          "durationTicks": 96,
          "midi": 47,
          "name": "B2",
          "ticks": 49440,
          "time": 148.55767250000002,
          "velocity": 0.7559055118110236
        },
        {
          "duration": 0.2884614999999826,
          "durationTicks": 96,
          "midi": 54,
          "name": "F#3",
          "ticks": 49440,
          "time": 148.55767250000002,
          "velocity": 0.7559055118110236
        },
        {
          "duration": 0.2884614999999826,
          "durationTicks": 96,
          "midi": 59,
          "name": "B3",
          "ticks": 49440,
          "time": 148.55767250000002,
          "velocity": 0.7559055118110236
        },
        {
          "duration": 0.28846150000001103,
          "durationTicks": 96,
          "midi": 47,
          "name": "B2",
          "ticks": 49536,
          "time": 148.846134,
          "velocity": 0.7559055118110236
        },
        {
          "duration": 0.28846150000001103,
          "durationTicks": 96,
          "midi": 54,
          "name": "F#3",
          "ticks": 49536,
          "time": 148.846134,
          "velocity": 0.7559055118110236
        },
        {
          "duration": 0.28846150000001103,
          "durationTicks": 96,
          "midi": 59,
          "name": "B3",
          "ticks": 49536,
          "time": 148.846134,
          "velocity": 0.7559055118110236
        },
        {
          "duration": 0.28846150000001103,
          "durationTicks": 96,
          "midi": 47,
          "name": "B2",
          "ticks": 49632,
          "time": 149.13459550000002,
          "velocity": 0.7559055118110236
        },
        {
          "duration": 0.28846150000001103,
          "durationTicks": 96,
          "midi": 54,
          "name": "F#3",
          "ticks": 49632,
          "time": 149.13459550000002,
          "velocity": 0.7559055118110236
        },
        {
          "duration": 0.28846150000001103,
          "durationTicks": 96,
          "midi": 59,
          "name": "B3",
          "ticks": 49632,
          "time": 149.13459550000002,
          "velocity": 0.7559055118110236
        },
        {
          "duration": 0.2884614999999826,
          "durationTicks": 96,
          "midi": 47,
          "name": "B2",
          "ticks": 49728,
          "time": 149.42305700000003,
          "velocity": 0.7559055118110236
        },
        {
          "duration": 0.2884614999999826,
          "durationTicks": 96,
          "midi": 54,
          "name": "F#3",
          "ticks": 49728,
          "time": 149.42305700000003,
          "velocity": 0.7559055118110236
        },
        {
          "duration": 0.2884614999999826,
          "durationTicks": 96,
          "midi": 59,
          "name": "B3",
          "ticks": 49728,
          "time": 149.42305700000003,
          "velocity": 0.7559055118110236
        },
        {
          "duration": 0.5769230000000221,
          "durationTicks": 192,
          "midi": 44,
          "name": "G#2",
          "ticks": 49824,
          "time": 149.7115185,
          "velocity": 0.7559055118110236
        },
        {
          "duration": 0.5769230000000221,
          "durationTicks": 192,
          "midi": 51,
          "name": "D#3",
          "ticks": 49824,
          "time": 149.7115185,
          "velocity": 0.7559055118110236
        },
        {
          "duration": 0.5769230000000221,
          "durationTicks": 192,
          "midi": 56,
          "name": "G#3",
          "ticks": 49824,
          "time": 149.7115185,
          "velocity": 0.7559055118110236
        },
        {
          "duration": 0.2884614999999826,
          "durationTicks": 96,
          "midi": 37,
          "name": "C#2",
          "ticks": 50016,
          "time": 150.28844150000003,
          "velocity": 0.7559055118110236
        },
        {
          "duration": 0.2884614999999826,
          "durationTicks": 96,
          "midi": 44,
          "name": "G#2",
          "ticks": 50016,
          "time": 150.28844150000003,
          "velocity": 0.7559055118110236
        },
        {
          "duration": 0.2884614999999826,
          "durationTicks": 96,
          "midi": 49,
          "name": "C#3",
          "ticks": 50016,
          "time": 150.28844150000003,
          "velocity": 0.7559055118110236
        },
        {
          "duration": 0.2884614999999826,
          "durationTicks": 96,
          "midi": 68,
          "name": "G#4",
          "ticks": 50016,
          "time": 150.28844150000003,
          "velocity": 0.7559055118110236
        },
        {
          "duration": 0.28846150000001103,
          "durationTicks": 96,
          "midi": 37,
          "name": "C#2",
          "ticks": 50112,
          "time": 150.57690300000002,
          "velocity": 0.7559055118110236
        },
        {
          "duration": 0.28846150000001103,
          "durationTicks": 96,
          "midi": 44,
          "name": "G#2",
          "ticks": 50112,
          "time": 150.57690300000002,
          "velocity": 0.7559055118110236
        },
        {
          "duration": 0.28846150000001103,
          "durationTicks": 96,
          "midi": 49,
          "name": "C#3",
          "ticks": 50112,
          "time": 150.57690300000002,
          "velocity": 0.7559055118110236
        },
        {
          "duration": 0.28846150000001103,
          "durationTicks": 96,
          "midi": 68,
          "name": "G#4",
          "ticks": 50112,
          "time": 150.57690300000002,
          "velocity": 0.7559055118110236
        },
        {
          "duration": 0.2884614999999826,
          "durationTicks": 96,
          "midi": 37,
          "name": "C#2",
          "ticks": 50208,
          "time": 150.86536450000003,
          "velocity": 0.7559055118110236
        },
        {
          "duration": 0.2884614999999826,
          "durationTicks": 96,
          "midi": 44,
          "name": "G#2",
          "ticks": 50208,
          "time": 150.86536450000003,
          "velocity": 0.7559055118110236
        },
        {
          "duration": 0.2884614999999826,
          "durationTicks": 96,
          "midi": 49,
          "name": "C#3",
          "ticks": 50208,
          "time": 150.86536450000003,
          "velocity": 0.7559055118110236
        },
        {
          "duration": 0.2884614999999826,
          "durationTicks": 96,
          "midi": 68,
          "name": "G#4",
          "ticks": 50208,
          "time": 150.86536450000003,
          "velocity": 0.7559055118110236
        },
        {
          "duration": 0.28846150000001103,
          "durationTicks": 96,
          "midi": 37,
          "name": "C#2",
          "ticks": 50304,
          "time": 151.153826,
          "velocity": 0.7559055118110236
        },
        {
          "duration": 0.28846150000001103,
          "durationTicks": 96,
          "midi": 44,
          "name": "G#2",
          "ticks": 50304,
          "time": 151.153826,
          "velocity": 0.7559055118110236
        },
        {
          "duration": 0.28846150000001103,
          "durationTicks": 96,
          "midi": 49,
          "name": "C#3",
          "ticks": 50304,
          "time": 151.153826,
          "velocity": 0.7559055118110236
        },
        {
          "duration": 0.28846150000001103,
          "durationTicks": 96,
          "midi": 68,
          "name": "G#4",
          "ticks": 50304,
          "time": 151.153826,
          "velocity": 0.7559055118110236
        },
        {
          "duration": 0.28846150000001103,
          "durationTicks": 96,
          "midi": 37,
          "name": "C#2",
          "ticks": 50400,
          "time": 151.44228750000002,
          "velocity": 0.7559055118110236
        },
        {
          "duration": 0.28846150000001103,
          "durationTicks": 96,
          "midi": 44,
          "name": "G#2",
          "ticks": 50400,
          "time": 151.44228750000002,
          "velocity": 0.7559055118110236
        },
        {
          "duration": 0.28846150000001103,
          "durationTicks": 96,
          "midi": 49,
          "name": "C#3",
          "ticks": 50400,
          "time": 151.44228750000002,
          "velocity": 0.7559055118110236
        },
        {
          "duration": 0.28846150000001103,
          "durationTicks": 96,
          "midi": 68,
          "name": "G#4",
          "ticks": 50400,
          "time": 151.44228750000002,
          "velocity": 0.7559055118110236
        },
        {
          "duration": 0.2884614999999826,
          "durationTicks": 96,
          "midi": 37,
          "name": "C#2",
          "ticks": 50496,
          "time": 151.73074900000003,
          "velocity": 0.7559055118110236
        },
        {
          "duration": 0.2884614999999826,
          "durationTicks": 96,
          "midi": 44,
          "name": "G#2",
          "ticks": 50496,
          "time": 151.73074900000003,
          "velocity": 0.7559055118110236
        },
        {
          "duration": 0.2884614999999826,
          "durationTicks": 96,
          "midi": 49,
          "name": "C#3",
          "ticks": 50496,
          "time": 151.73074900000003,
          "velocity": 0.7559055118110236
        },
        {
          "duration": 0.2884614999999826,
          "durationTicks": 96,
          "midi": 68,
          "name": "G#4",
          "ticks": 50496,
          "time": 151.73074900000003,
          "velocity": 0.7559055118110236
        },
        {
          "duration": 0.28846150000001103,
          "durationTicks": 96,
          "midi": 37,
          "name": "C#2",
          "ticks": 50592,
          "time": 152.0192105,
          "velocity": 0.7559055118110236
        },
        {
          "duration": 0.28846150000001103,
          "durationTicks": 96,
          "midi": 44,
          "name": "G#2",
          "ticks": 50592,
          "time": 152.0192105,
          "velocity": 0.7559055118110236
        },
        {
          "duration": 0.28846150000001103,
          "durationTicks": 96,
          "midi": 49,
          "name": "C#3",
          "ticks": 50592,
          "time": 152.0192105,
          "velocity": 0.7559055118110236
        },
        {
          "duration": 0.28846150000001103,
          "durationTicks": 96,
          "midi": 68,
          "name": "G#4",
          "ticks": 50592,
          "time": 152.0192105,
          "velocity": 0.7559055118110236
        },
        {
          "duration": 0.2884614999999826,
          "durationTicks": 96,
          "midi": 37,
          "name": "C#2",
          "ticks": 50688,
          "time": 152.30767200000003,
          "velocity": 0.7559055118110236
        },
        {
          "duration": 0.2884614999999826,
          "durationTicks": 96,
          "midi": 44,
          "name": "G#2",
          "ticks": 50688,
          "time": 152.30767200000003,
          "velocity": 0.7559055118110236
        },
        {
          "duration": 0.2884614999999826,
          "durationTicks": 96,
          "midi": 49,
          "name": "C#3",
          "ticks": 50688,
          "time": 152.30767200000003,
          "velocity": 0.7559055118110236
        },
        {
          "duration": 0.2884614999999826,
          "durationTicks": 96,
          "midi": 68,
          "name": "G#4",
          "ticks": 50688,
          "time": 152.30767200000003,
          "velocity": 0.7559055118110236
        },
        {
          "duration": 0.28846150000001103,
          "durationTicks": 96,
          "midi": 45,
          "name": "A2",
          "ticks": 50784,
          "time": 152.5961335,
          "velocity": 0.7559055118110236
        },
        {
          "duration": 0.28846150000001103,
          "durationTicks": 96,
          "midi": 52,
          "name": "E3",
          "ticks": 50784,
          "time": 152.5961335,
          "velocity": 0.7559055118110236
        },
        {
          "duration": 0.28846150000001103,
          "durationTicks": 96,
          "midi": 57,
          "name": "A3",
          "ticks": 50784,
          "time": 152.5961335,
          "velocity": 0.7559055118110236
        },
        {
          "duration": 0.28846150000001103,
          "durationTicks": 96,
          "midi": 45,
          "name": "A2",
          "ticks": 50880,
          "time": 152.88459500000002,
          "velocity": 0.7559055118110236
        },
        {
          "duration": 0.28846150000001103,
          "durationTicks": 96,
          "midi": 52,
          "name": "E3",
          "ticks": 50880,
          "time": 152.88459500000002,
          "velocity": 0.7559055118110236
        },
        {
          "duration": 0.28846150000001103,
          "durationTicks": 96,
          "midi": 57,
          "name": "A3",
          "ticks": 50880,
          "time": 152.88459500000002,
          "velocity": 0.7559055118110236
        },
        {
          "duration": 0.2884614999999826,
          "durationTicks": 96,
          "midi": 45,
          "name": "A2",
          "ticks": 50976,
          "time": 153.17305650000003,
          "velocity": 0.7559055118110236
        },
        {
          "duration": 0.2884614999999826,
          "durationTicks": 96,
          "midi": 52,
          "name": "E3",
          "ticks": 50976,
          "time": 153.17305650000003,
          "velocity": 0.7559055118110236
        },
        {
          "duration": 0.2884614999999826,
          "durationTicks": 96,
          "midi": 57,
          "name": "A3",
          "ticks": 50976,
          "time": 153.17305650000003,
          "velocity": 0.7559055118110236
        },
        {
          "duration": 0.28846150000001103,
          "durationTicks": 96,
          "midi": 45,
          "name": "A2",
          "ticks": 51072,
          "time": 153.461518,
          "velocity": 0.7559055118110236
        },
        {
          "duration": 0.28846150000001103,
          "durationTicks": 96,
          "midi": 52,
          "name": "E3",
          "ticks": 51072,
          "time": 153.461518,
          "velocity": 0.7559055118110236
        },
        {
          "duration": 0.28846150000001103,
          "durationTicks": 96,
          "midi": 57,
          "name": "A3",
          "ticks": 51072,
          "time": 153.461518,
          "velocity": 0.7559055118110236
        },
        {
          "duration": 0.2884614999999826,
          "durationTicks": 96,
          "midi": 45,
          "name": "A2",
          "ticks": 51168,
          "time": 153.74997950000002,
          "velocity": 0.7559055118110236
        },
        {
          "duration": 0.2884614999999826,
          "durationTicks": 96,
          "midi": 52,
          "name": "E3",
          "ticks": 51168,
          "time": 153.74997950000002,
          "velocity": 0.7559055118110236
        },
        {
          "duration": 0.2884614999999826,
          "durationTicks": 96,
          "midi": 57,
          "name": "A3",
          "ticks": 51168,
          "time": 153.74997950000002,
          "velocity": 0.7559055118110236
        },
        {
          "duration": 0.28846150000001103,
          "durationTicks": 96,
          "midi": 45,
          "name": "A2",
          "ticks": 51264,
          "time": 154.038441,
          "velocity": 0.7559055118110236
        },
        {
          "duration": 0.28846150000001103,
          "durationTicks": 96,
          "midi": 52,
          "name": "E3",
          "ticks": 51264,
          "time": 154.038441,
          "velocity": 0.7559055118110236
        },
        {
          "duration": 0.28846150000001103,
          "durationTicks": 96,
          "midi": 57,
          "name": "A3",
          "ticks": 51264,
          "time": 154.038441,
          "velocity": 0.7559055118110236
        },
        {
          "duration": 0.28846150000001103,
          "durationTicks": 96,
          "midi": 45,
          "name": "A2",
          "ticks": 51360,
          "time": 154.32690250000002,
          "velocity": 0.7559055118110236
        },
        {
          "duration": 0.28846150000001103,
          "durationTicks": 96,
          "midi": 52,
          "name": "E3",
          "ticks": 51360,
          "time": 154.32690250000002,
          "velocity": 0.7559055118110236
        },
        {
          "duration": 0.28846150000001103,
          "durationTicks": 96,
          "midi": 57,
          "name": "A3",
          "ticks": 51360,
          "time": 154.32690250000002,
          "velocity": 0.7559055118110236
        },
        {
          "duration": 0.2884614999999826,
          "durationTicks": 96,
          "midi": 45,
          "name": "A2",
          "ticks": 51456,
          "time": 154.61536400000003,
          "velocity": 0.7559055118110236
        },
        {
          "duration": 0.2884614999999826,
          "durationTicks": 96,
          "midi": 52,
          "name": "E3",
          "ticks": 51456,
          "time": 154.61536400000003,
          "velocity": 0.7559055118110236
        },
        {
          "duration": 0.2884614999999826,
          "durationTicks": 96,
          "midi": 57,
          "name": "A3",
          "ticks": 51456,
          "time": 154.61536400000003,
          "velocity": 0.7559055118110236
        },
        {
          "duration": 0.28846150000001103,
          "durationTicks": 96,
          "midi": 40,
          "name": "E2",
          "ticks": 51552,
          "time": 154.9038255,
          "velocity": 0.7559055118110236
        },
        {
          "duration": 0.28846150000001103,
          "durationTicks": 96,
          "midi": 47,
          "name": "B2",
          "ticks": 51552,
          "time": 154.9038255,
          "velocity": 0.7559055118110236
        },
        {
          "duration": 0.28846150000001103,
          "durationTicks": 96,
          "midi": 52,
          "name": "E3",
          "ticks": 51552,
          "time": 154.9038255,
          "velocity": 0.7559055118110236
        },
        {
          "duration": 0.28846150000001103,
          "durationTicks": 96,
          "midi": 59,
          "name": "B3",
          "ticks": 51552,
          "time": 154.9038255,
          "velocity": 0.7559055118110236
        },
        {
          "duration": 0.28846150000001103,
          "durationTicks": 96,
          "midi": 40,
          "name": "E2",
          "ticks": 51648,
          "time": 155.19228700000002,
          "velocity": 0.7559055118110236
        },
        {
          "duration": 0.28846150000001103,
          "durationTicks": 96,
          "midi": 47,
          "name": "B2",
          "ticks": 51648,
          "time": 155.19228700000002,
          "velocity": 0.7559055118110236
        },
        {
          "duration": 0.28846150000001103,
          "durationTicks": 96,
          "midi": 52,
          "name": "E3",
          "ticks": 51648,
          "time": 155.19228700000002,
          "velocity": 0.7559055118110236
        },
        {
          "duration": 0.28846150000001103,
          "durationTicks": 96,
          "midi": 59,
          "name": "B3",
          "ticks": 51648,
          "time": 155.19228700000002,
          "velocity": 0.7559055118110236
        },
        {
          "duration": 0.2884614999999826,
          "durationTicks": 96,
          "midi": 40,
          "name": "E2",
          "ticks": 51744,
          "time": 155.48074850000003,
          "velocity": 0.7559055118110236
        },
        {
          "duration": 0.2884614999999826,
          "durationTicks": 96,
          "midi": 47,
          "name": "B2",
          "ticks": 51744,
          "time": 155.48074850000003,
          "velocity": 0.7559055118110236
        },
        {
          "duration": 0.2884614999999826,
          "durationTicks": 96,
          "midi": 52,
          "name": "E3",
          "ticks": 51744,
          "time": 155.48074850000003,
          "velocity": 0.7559055118110236
        },
        {
          "duration": 0.2884614999999826,
          "durationTicks": 96,
          "midi": 59,
          "name": "B3",
          "ticks": 51744,
          "time": 155.48074850000003,
          "velocity": 0.7559055118110236
        },
        {
          "duration": 0.28846150000001103,
          "durationTicks": 96,
          "midi": 40,
          "name": "E2",
          "ticks": 51840,
          "time": 155.76921000000002,
          "velocity": 0.7559055118110236
        },
        {
          "duration": 0.28846150000001103,
          "durationTicks": 96,
          "midi": 47,
          "name": "B2",
          "ticks": 51840,
          "time": 155.76921000000002,
          "velocity": 0.7559055118110236
        },
        {
          "duration": 0.28846150000001103,
          "durationTicks": 96,
          "midi": 52,
          "name": "E3",
          "ticks": 51840,
          "time": 155.76921000000002,
          "velocity": 0.7559055118110236
        },
        {
          "duration": 0.28846150000001103,
          "durationTicks": 96,
          "midi": 59,
          "name": "B3",
          "ticks": 51840,
          "time": 155.76921000000002,
          "velocity": 0.7559055118110236
        },
        {
          "duration": 0.2884614999999826,
          "durationTicks": 96,
          "midi": 40,
          "name": "E2",
          "ticks": 51936,
          "time": 156.05767150000003,
          "velocity": 0.7559055118110236
        },
        {
          "duration": 0.2884614999999826,
          "durationTicks": 96,
          "midi": 47,
          "name": "B2",
          "ticks": 51936,
          "time": 156.05767150000003,
          "velocity": 0.7559055118110236
        },
        {
          "duration": 0.2884614999999826,
          "durationTicks": 96,
          "midi": 52,
          "name": "E3",
          "ticks": 51936,
          "time": 156.05767150000003,
          "velocity": 0.7559055118110236
        },
        {
          "duration": 0.2884614999999826,
          "durationTicks": 96,
          "midi": 59,
          "name": "B3",
          "ticks": 51936,
          "time": 156.05767150000003,
          "velocity": 0.7559055118110236
        },
        {
          "duration": 0.28846150000001103,
          "durationTicks": 96,
          "midi": 40,
          "name": "E2",
          "ticks": 52032,
          "time": 156.346133,
          "velocity": 0.7559055118110236
        },
        {
          "duration": 0.28846150000001103,
          "durationTicks": 96,
          "midi": 47,
          "name": "B2",
          "ticks": 52032,
          "time": 156.346133,
          "velocity": 0.7559055118110236
        },
        {
          "duration": 0.28846150000001103,
          "durationTicks": 96,
          "midi": 52,
          "name": "E3",
          "ticks": 52032,
          "time": 156.346133,
          "velocity": 0.7559055118110236
        },
        {
          "duration": 0.28846150000001103,
          "durationTicks": 96,
          "midi": 59,
          "name": "B3",
          "ticks": 52032,
          "time": 156.346133,
          "velocity": 0.7559055118110236
        },
        {
          "duration": 0.28846150000001103,
          "durationTicks": 96,
          "midi": 40,
          "name": "E2",
          "ticks": 52128,
          "time": 156.63459450000002,
          "velocity": 0.7559055118110236
        },
        {
          "duration": 0.28846150000001103,
          "durationTicks": 96,
          "midi": 47,
          "name": "B2",
          "ticks": 52128,
          "time": 156.63459450000002,
          "velocity": 0.7559055118110236
        },
        {
          "duration": 0.28846150000001103,
          "durationTicks": 96,
          "midi": 52,
          "name": "E3",
          "ticks": 52128,
          "time": 156.63459450000002,
          "velocity": 0.7559055118110236
        },
        {
          "duration": 0.28846150000001103,
          "durationTicks": 96,
          "midi": 59,
          "name": "B3",
          "ticks": 52128,
          "time": 156.63459450000002,
          "velocity": 0.7559055118110236
        },
        {
          "duration": 0.2884614999999826,
          "durationTicks": 96,
          "midi": 40,
          "name": "E2",
          "ticks": 52224,
          "time": 156.92305600000003,
          "velocity": 0.7559055118110236
        },
        {
          "duration": 0.2884614999999826,
          "durationTicks": 96,
          "midi": 47,
          "name": "B2",
          "ticks": 52224,
          "time": 156.92305600000003,
          "velocity": 0.7559055118110236
        },
        {
          "duration": 0.2884614999999826,
          "durationTicks": 96,
          "midi": 52,
          "name": "E3",
          "ticks": 52224,
          "time": 156.92305600000003,
          "velocity": 0.7559055118110236
        },
        {
          "duration": 0.2884614999999826,
          "durationTicks": 96,
          "midi": 59,
          "name": "B3",
          "ticks": 52224,
          "time": 156.92305600000003,
          "velocity": 0.7559055118110236
        },
        {
          "duration": 0.28846150000001103,
          "durationTicks": 96,
          "midi": 47,
          "name": "B2",
          "ticks": 52320,
          "time": 157.2115175,
          "velocity": 0.7559055118110236
        },
        {
          "duration": 0.28846150000001103,
          "durationTicks": 96,
          "midi": 54,
          "name": "F#3",
          "ticks": 52320,
          "time": 157.2115175,
          "velocity": 0.7559055118110236
        },
        {
          "duration": 0.28846150000001103,
          "durationTicks": 96,
          "midi": 59,
          "name": "B3",
          "ticks": 52320,
          "time": 157.2115175,
          "velocity": 0.7559055118110236
        },
        {
          "duration": 0.2884614999999826,
          "durationTicks": 96,
          "midi": 47,
          "name": "B2",
          "ticks": 52416,
          "time": 157.49997900000002,
          "velocity": 0.7559055118110236
        },
        {
          "duration": 0.2884614999999826,
          "durationTicks": 96,
          "midi": 54,
          "name": "F#3",
          "ticks": 52416,
          "time": 157.49997900000002,
          "velocity": 0.7559055118110236
        },
        {
          "duration": 0.2884614999999826,
          "durationTicks": 96,
          "midi": 59,
          "name": "B3",
          "ticks": 52416,
          "time": 157.49997900000002,
          "velocity": 0.7559055118110236
        },
        {
          "duration": 0.28846150000001103,
          "durationTicks": 96,
          "midi": 47,
          "name": "B2",
          "ticks": 52512,
          "time": 157.7884405,
          "velocity": 0.7559055118110236
        },
        {
          "duration": 0.28846150000001103,
          "durationTicks": 96,
          "midi": 54,
          "name": "F#3",
          "ticks": 52512,
          "time": 157.7884405,
          "velocity": 0.7559055118110236
        },
        {
          "duration": 0.28846150000001103,
          "durationTicks": 96,
          "midi": 59,
          "name": "B3",
          "ticks": 52512,
          "time": 157.7884405,
          "velocity": 0.7559055118110236
        },
        {
          "duration": 0.28846150000001103,
          "durationTicks": 96,
          "midi": 47,
          "name": "B2",
          "ticks": 52608,
          "time": 158.07690200000002,
          "velocity": 0.7559055118110236
        },
        {
          "duration": 0.28846150000001103,
          "durationTicks": 96,
          "midi": 54,
          "name": "F#3",
          "ticks": 52608,
          "time": 158.07690200000002,
          "velocity": 0.7559055118110236
        },
        {
          "duration": 0.28846150000001103,
          "durationTicks": 96,
          "midi": 59,
          "name": "B3",
          "ticks": 52608,
          "time": 158.07690200000002,
          "velocity": 0.7559055118110236
        },
        {
          "duration": 0.2884614999999826,
          "durationTicks": 96,
          "midi": 47,
          "name": "B2",
          "ticks": 52704,
          "time": 158.36536350000003,
          "velocity": 0.7559055118110236
        },
        {
          "duration": 0.2884614999999826,
          "durationTicks": 96,
          "midi": 54,
          "name": "F#3",
          "ticks": 52704,
          "time": 158.36536350000003,
          "velocity": 0.7559055118110236
        },
        {
          "duration": 0.2884614999999826,
          "durationTicks": 96,
          "midi": 59,
          "name": "B3",
          "ticks": 52704,
          "time": 158.36536350000003,
          "velocity": 0.7559055118110236
        },
        {
          "duration": 0.28846150000001103,
          "durationTicks": 96,
          "midi": 47,
          "name": "B2",
          "ticks": 52800,
          "time": 158.653825,
          "velocity": 0.7559055118110236
        },
        {
          "duration": 0.28846150000001103,
          "durationTicks": 96,
          "midi": 54,
          "name": "F#3",
          "ticks": 52800,
          "time": 158.653825,
          "velocity": 0.7559055118110236
        },
        {
          "duration": 0.28846150000001103,
          "durationTicks": 96,
          "midi": 59,
          "name": "B3",
          "ticks": 52800,
          "time": 158.653825,
          "velocity": 0.7559055118110236
        },
        {
          "duration": 0.5769229999999936,
          "durationTicks": 192,
          "midi": 44,
          "name": "G#2",
          "ticks": 52896,
          "time": 158.94228650000002,
          "velocity": 0.7559055118110236
        },
        {
          "duration": 0.5769229999999936,
          "durationTicks": 192,
          "midi": 51,
          "name": "D#3",
          "ticks": 52896,
          "time": 158.94228650000002,
          "velocity": 0.7559055118110236
        },
        {
          "duration": 0.5769229999999936,
          "durationTicks": 192,
          "midi": 56,
          "name": "G#3",
          "ticks": 52896,
          "time": 158.94228650000002,
          "velocity": 0.7559055118110236
        },
        {
          "duration": 0.28846150000001103,
          "durationTicks": 96,
          "midi": 37,
          "name": "C#2",
          "ticks": 53088,
          "time": 159.51920950000002,
          "velocity": 0.7559055118110236
        },
        {
          "duration": 0.28846150000001103,
          "durationTicks": 96,
          "midi": 44,
          "name": "G#2",
          "ticks": 53088,
          "time": 159.51920950000002,
          "velocity": 0.7559055118110236
        },
        {
          "duration": 0.28846150000001103,
          "durationTicks": 96,
          "midi": 49,
          "name": "C#3",
          "ticks": 53088,
          "time": 159.51920950000002,
          "velocity": 0.7559055118110236
        },
        {
          "duration": 0.28846150000001103,
          "durationTicks": 96,
          "midi": 68,
          "name": "G#4",
          "ticks": 53088,
          "time": 159.51920950000002,
          "velocity": 0.7559055118110236
        },
        {
          "duration": 0.2884614999999826,
          "durationTicks": 96,
          "midi": 37,
          "name": "C#2",
          "ticks": 53184,
          "time": 159.80767100000003,
          "velocity": 0.7559055118110236
        },
        {
          "duration": 0.2884614999999826,
          "durationTicks": 96,
          "midi": 44,
          "name": "G#2",
          "ticks": 53184,
          "time": 159.80767100000003,
          "velocity": 0.7559055118110236
        },
        {
          "duration": 0.2884614999999826,
          "durationTicks": 96,
          "midi": 49,
          "name": "C#3",
          "ticks": 53184,
          "time": 159.80767100000003,
          "velocity": 0.7559055118110236
        },
        {
          "duration": 0.2884614999999826,
          "durationTicks": 96,
          "midi": 68,
          "name": "G#4",
          "ticks": 53184,
          "time": 159.80767100000003,
          "velocity": 0.7559055118110236
        },
        {
          "duration": 0.28846150000001103,
          "durationTicks": 96,
          "midi": 37,
          "name": "C#2",
          "ticks": 53280,
          "time": 160.0961325,
          "velocity": 0.7559055118110236
        },
        {
          "duration": 0.28846150000001103,
          "durationTicks": 96,
          "midi": 44,
          "name": "G#2",
          "ticks": 53280,
          "time": 160.0961325,
          "velocity": 0.7559055118110236
        },
        {
          "duration": 0.28846150000001103,
          "durationTicks": 96,
          "midi": 49,
          "name": "C#3",
          "ticks": 53280,
          "time": 160.0961325,
          "velocity": 0.7559055118110236
        },
        {
          "duration": 0.28846150000001103,
          "durationTicks": 96,
          "midi": 68,
          "name": "G#4",
          "ticks": 53280,
          "time": 160.0961325,
          "velocity": 0.7559055118110236
        },
        {
          "duration": 0.28846150000001103,
          "durationTicks": 96,
          "midi": 37,
          "name": "C#2",
          "ticks": 53376,
          "time": 160.38459400000002,
          "velocity": 0.7559055118110236
        },
        {
          "duration": 0.28846150000001103,
          "durationTicks": 96,
          "midi": 44,
          "name": "G#2",
          "ticks": 53376,
          "time": 160.38459400000002,
          "velocity": 0.7559055118110236
        },
        {
          "duration": 0.28846150000001103,
          "durationTicks": 96,
          "midi": 49,
          "name": "C#3",
          "ticks": 53376,
          "time": 160.38459400000002,
          "velocity": 0.7559055118110236
        },
        {
          "duration": 0.28846150000001103,
          "durationTicks": 96,
          "midi": 68,
          "name": "G#4",
          "ticks": 53376,
          "time": 160.38459400000002,
          "velocity": 0.7559055118110236
        },
        {
          "duration": 0.2884614999999826,
          "durationTicks": 96,
          "midi": 37,
          "name": "C#2",
          "ticks": 53472,
          "time": 160.67305550000003,
          "velocity": 0.7559055118110236
        },
        {
          "duration": 0.2884614999999826,
          "durationTicks": 96,
          "midi": 44,
          "name": "G#2",
          "ticks": 53472,
          "time": 160.67305550000003,
          "velocity": 0.7559055118110236
        },
        {
          "duration": 0.2884614999999826,
          "durationTicks": 96,
          "midi": 49,
          "name": "C#3",
          "ticks": 53472,
          "time": 160.67305550000003,
          "velocity": 0.7559055118110236
        },
        {
          "duration": 0.2884614999999826,
          "durationTicks": 96,
          "midi": 68,
          "name": "G#4",
          "ticks": 53472,
          "time": 160.67305550000003,
          "velocity": 0.7559055118110236
        },
        {
          "duration": 0.28846150000001103,
          "durationTicks": 96,
          "midi": 37,
          "name": "C#2",
          "ticks": 53568,
          "time": 160.96151700000001,
          "velocity": 0.7559055118110236
        },
        {
          "duration": 0.28846150000001103,
          "durationTicks": 96,
          "midi": 44,
          "name": "G#2",
          "ticks": 53568,
          "time": 160.96151700000001,
          "velocity": 0.7559055118110236
        },
        {
          "duration": 0.28846150000001103,
          "durationTicks": 96,
          "midi": 49,
          "name": "C#3",
          "ticks": 53568,
          "time": 160.96151700000001,
          "velocity": 0.7559055118110236
        },
        {
          "duration": 0.28846150000001103,
          "durationTicks": 96,
          "midi": 68,
          "name": "G#4",
          "ticks": 53568,
          "time": 160.96151700000001,
          "velocity": 0.7559055118110236
        },
        {
          "duration": 0.2884614999999826,
          "durationTicks": 96,
          "midi": 37,
          "name": "C#2",
          "ticks": 53664,
          "time": 161.24997850000003,
          "velocity": 0.7559055118110236
        },
        {
          "duration": 0.2884614999999826,
          "durationTicks": 96,
          "midi": 44,
          "name": "G#2",
          "ticks": 53664,
          "time": 161.24997850000003,
          "velocity": 0.7559055118110236
        },
        {
          "duration": 0.2884614999999826,
          "durationTicks": 96,
          "midi": 49,
          "name": "C#3",
          "ticks": 53664,
          "time": 161.24997850000003,
          "velocity": 0.7559055118110236
        },
        {
          "duration": 0.2884614999999826,
          "durationTicks": 96,
          "midi": 68,
          "name": "G#4",
          "ticks": 53664,
          "time": 161.24997850000003,
          "velocity": 0.7559055118110236
        },
        {
          "duration": 0.28846150000001103,
          "durationTicks": 96,
          "midi": 37,
          "name": "C#2",
          "ticks": 53760,
          "time": 161.53844,
          "velocity": 0.7559055118110236
        },
        {
          "duration": 0.28846150000001103,
          "durationTicks": 96,
          "midi": 44,
          "name": "G#2",
          "ticks": 53760,
          "time": 161.53844,
          "velocity": 0.7559055118110236
        },
        {
          "duration": 0.28846150000001103,
          "durationTicks": 96,
          "midi": 49,
          "name": "C#3",
          "ticks": 53760,
          "time": 161.53844,
          "velocity": 0.7559055118110236
        },
        {
          "duration": 0.28846150000001103,
          "durationTicks": 96,
          "midi": 68,
          "name": "G#4",
          "ticks": 53760,
          "time": 161.53844,
          "velocity": 0.7559055118110236
        },
        {
          "duration": 0.28846150000001103,
          "durationTicks": 96,
          "midi": 45,
          "name": "A2",
          "ticks": 53856,
          "time": 161.82690150000002,
          "velocity": 0.7559055118110236
        },
        {
          "duration": 0.28846150000001103,
          "durationTicks": 96,
          "midi": 52,
          "name": "E3",
          "ticks": 53856,
          "time": 161.82690150000002,
          "velocity": 0.7559055118110236
        },
        {
          "duration": 0.28846150000001103,
          "durationTicks": 96,
          "midi": 57,
          "name": "A3",
          "ticks": 53856,
          "time": 161.82690150000002,
          "velocity": 0.7559055118110236
        },
        {
          "duration": 0.2884614999999826,
          "durationTicks": 96,
          "midi": 45,
          "name": "A2",
          "ticks": 53952,
          "time": 162.11536300000003,
          "velocity": 0.7559055118110236
        },
        {
          "duration": 0.2884614999999826,
          "durationTicks": 96,
          "midi": 52,
          "name": "E3",
          "ticks": 53952,
          "time": 162.11536300000003,
          "velocity": 0.7559055118110236
        },
        {
          "duration": 0.2884614999999826,
          "durationTicks": 96,
          "midi": 57,
          "name": "A3",
          "ticks": 53952,
          "time": 162.11536300000003,
          "velocity": 0.7559055118110236
        },
        {
          "duration": 0.28846150000001103,
          "durationTicks": 96,
          "midi": 45,
          "name": "A2",
          "ticks": 54048,
          "time": 162.4038245,
          "velocity": 0.7559055118110236
        },
        {
          "duration": 0.28846150000001103,
          "durationTicks": 96,
          "midi": 52,
          "name": "E3",
          "ticks": 54048,
          "time": 162.4038245,
          "velocity": 0.7559055118110236
        },
        {
          "duration": 0.28846150000001103,
          "durationTicks": 96,
          "midi": 57,
          "name": "A3",
          "ticks": 54048,
          "time": 162.4038245,
          "velocity": 0.7559055118110236
        },
        {
          "duration": 0.28846150000001103,
          "durationTicks": 96,
          "midi": 45,
          "name": "A2",
          "ticks": 54144,
          "time": 162.69228600000002,
          "velocity": 0.7559055118110236
        },
        {
          "duration": 0.28846150000001103,
          "durationTicks": 96,
          "midi": 52,
          "name": "E3",
          "ticks": 54144,
          "time": 162.69228600000002,
          "velocity": 0.7559055118110236
        },
        {
          "duration": 0.28846150000001103,
          "durationTicks": 96,
          "midi": 57,
          "name": "A3",
          "ticks": 54144,
          "time": 162.69228600000002,
          "velocity": 0.7559055118110236
        },
        {
          "duration": 0.2884614999999826,
          "durationTicks": 96,
          "midi": 45,
          "name": "A2",
          "ticks": 54240,
          "time": 162.98074750000004,
          "velocity": 0.7559055118110236
        },
        {
          "duration": 0.2884614999999826,
          "durationTicks": 96,
          "midi": 52,
          "name": "E3",
          "ticks": 54240,
          "time": 162.98074750000004,
          "velocity": 0.7559055118110236
        },
        {
          "duration": 0.2884614999999826,
          "durationTicks": 96,
          "midi": 57,
          "name": "A3",
          "ticks": 54240,
          "time": 162.98074750000004,
          "velocity": 0.7559055118110236
        },
        {
          "duration": 0.28846150000001103,
          "durationTicks": 96,
          "midi": 45,
          "name": "A2",
          "ticks": 54336,
          "time": 163.26920900000002,
          "velocity": 0.7559055118110236
        },
        {
          "duration": 0.28846150000001103,
          "durationTicks": 96,
          "midi": 52,
          "name": "E3",
          "ticks": 54336,
          "time": 163.26920900000002,
          "velocity": 0.7559055118110236
        },
        {
          "duration": 0.28846150000001103,
          "durationTicks": 96,
          "midi": 57,
          "name": "A3",
          "ticks": 54336,
          "time": 163.26920900000002,
          "velocity": 0.7559055118110236
        },
        {
          "duration": 0.2884614999999826,
          "durationTicks": 96,
          "midi": 45,
          "name": "A2",
          "ticks": 54432,
          "time": 163.55767050000003,
          "velocity": 0.7559055118110236
        },
        {
          "duration": 0.2884614999999826,
          "durationTicks": 96,
          "midi": 52,
          "name": "E3",
          "ticks": 54432,
          "time": 163.55767050000003,
          "velocity": 0.7559055118110236
        },
        {
          "duration": 0.2884614999999826,
          "durationTicks": 96,
          "midi": 57,
          "name": "A3",
          "ticks": 54432,
          "time": 163.55767050000003,
          "velocity": 0.7559055118110236
        },
        {
          "duration": 0.28846150000001103,
          "durationTicks": 96,
          "midi": 45,
          "name": "A2",
          "ticks": 54528,
          "time": 163.846132,
          "velocity": 0.7559055118110236
        },
        {
          "duration": 0.28846150000001103,
          "durationTicks": 96,
          "midi": 52,
          "name": "E3",
          "ticks": 54528,
          "time": 163.846132,
          "velocity": 0.7559055118110236
        },
        {
          "duration": 0.28846150000001103,
          "durationTicks": 96,
          "midi": 57,
          "name": "A3",
          "ticks": 54528,
          "time": 163.846132,
          "velocity": 0.7559055118110236
        },
        {
          "duration": 0.28846150000001103,
          "durationTicks": 96,
          "midi": 40,
          "name": "E2",
          "ticks": 54624,
          "time": 164.13459350000002,
          "velocity": 0.7559055118110236
        },
        {
          "duration": 0.28846150000001103,
          "durationTicks": 96,
          "midi": 47,
          "name": "B2",
          "ticks": 54624,
          "time": 164.13459350000002,
          "velocity": 0.7559055118110236
        },
        {
          "duration": 0.28846150000001103,
          "durationTicks": 96,
          "midi": 52,
          "name": "E3",
          "ticks": 54624,
          "time": 164.13459350000002,
          "velocity": 0.7559055118110236
        },
        {
          "duration": 0.28846150000001103,
          "durationTicks": 96,
          "midi": 59,
          "name": "B3",
          "ticks": 54624,
          "time": 164.13459350000002,
          "velocity": 0.7559055118110236
        },
        {
          "duration": 0.2884614999999826,
          "durationTicks": 96,
          "midi": 40,
          "name": "E2",
          "ticks": 54720,
          "time": 164.42305500000003,
          "velocity": 0.7559055118110236
        },
        {
          "duration": 0.2884614999999826,
          "durationTicks": 96,
          "midi": 47,
          "name": "B2",
          "ticks": 54720,
          "time": 164.42305500000003,
          "velocity": 0.7559055118110236
        },
        {
          "duration": 0.2884614999999826,
          "durationTicks": 96,
          "midi": 52,
          "name": "E3",
          "ticks": 54720,
          "time": 164.42305500000003,
          "velocity": 0.7559055118110236
        },
        {
          "duration": 0.2884614999999826,
          "durationTicks": 96,
          "midi": 59,
          "name": "B3",
          "ticks": 54720,
          "time": 164.42305500000003,
          "velocity": 0.7559055118110236
        },
        {
          "duration": 0.28846150000001103,
          "durationTicks": 96,
          "midi": 40,
          "name": "E2",
          "ticks": 54816,
          "time": 164.71151650000002,
          "velocity": 0.7559055118110236
        },
        {
          "duration": 0.28846150000001103,
          "durationTicks": 96,
          "midi": 47,
          "name": "B2",
          "ticks": 54816,
          "time": 164.71151650000002,
          "velocity": 0.7559055118110236
        },
        {
          "duration": 0.28846150000001103,
          "durationTicks": 96,
          "midi": 52,
          "name": "E3",
          "ticks": 54816,
          "time": 164.71151650000002,
          "velocity": 0.7559055118110236
        },
        {
          "duration": 0.28846150000001103,
          "durationTicks": 96,
          "midi": 59,
          "name": "B3",
          "ticks": 54816,
          "time": 164.71151650000002,
          "velocity": 0.7559055118110236
        },
        {
          "duration": 0.2884614999999826,
          "durationTicks": 96,
          "midi": 40,
          "name": "E2",
          "ticks": 54912,
          "time": 164.99997800000003,
          "velocity": 0.7559055118110236
        },
        {
          "duration": 0.2884614999999826,
          "durationTicks": 96,
          "midi": 47,
          "name": "B2",
          "ticks": 54912,
          "time": 164.99997800000003,
          "velocity": 0.7559055118110236
        },
        {
          "duration": 0.2884614999999826,
          "durationTicks": 96,
          "midi": 52,
          "name": "E3",
          "ticks": 54912,
          "time": 164.99997800000003,
          "velocity": 0.7559055118110236
        },
        {
          "duration": 0.2884614999999826,
          "durationTicks": 96,
          "midi": 59,
          "name": "B3",
          "ticks": 54912,
          "time": 164.99997800000003,
          "velocity": 0.7559055118110236
        },
        {
          "duration": 0.28846150000001103,
          "durationTicks": 96,
          "midi": 40,
          "name": "E2",
          "ticks": 55008,
          "time": 165.2884395,
          "velocity": 0.7559055118110236
        },
        {
          "duration": 0.28846150000001103,
          "durationTicks": 96,
          "midi": 47,
          "name": "B2",
          "ticks": 55008,
          "time": 165.2884395,
          "velocity": 0.7559055118110236
        },
        {
          "duration": 0.28846150000001103,
          "durationTicks": 96,
          "midi": 52,
          "name": "E3",
          "ticks": 55008,
          "time": 165.2884395,
          "velocity": 0.7559055118110236
        },
        {
          "duration": 0.28846150000001103,
          "durationTicks": 96,
          "midi": 59,
          "name": "B3",
          "ticks": 55008,
          "time": 165.2884395,
          "velocity": 0.7559055118110236
        },
        {
          "duration": 0.28846150000001103,
          "durationTicks": 96,
          "midi": 40,
          "name": "E2",
          "ticks": 55104,
          "time": 165.57690100000002,
          "velocity": 0.7559055118110236
        },
        {
          "duration": 0.28846150000001103,
          "durationTicks": 96,
          "midi": 47,
          "name": "B2",
          "ticks": 55104,
          "time": 165.57690100000002,
          "velocity": 0.7559055118110236
        },
        {
          "duration": 0.28846150000001103,
          "durationTicks": 96,
          "midi": 52,
          "name": "E3",
          "ticks": 55104,
          "time": 165.57690100000002,
          "velocity": 0.7559055118110236
        },
        {
          "duration": 0.28846150000001103,
          "durationTicks": 96,
          "midi": 59,
          "name": "B3",
          "ticks": 55104,
          "time": 165.57690100000002,
          "velocity": 0.7559055118110236
        },
        {
          "duration": 0.2884614999999826,
          "durationTicks": 96,
          "midi": 40,
          "name": "E2",
          "ticks": 55200,
          "time": 165.86536250000003,
          "velocity": 0.7559055118110236
        },
        {
          "duration": 0.2884614999999826,
          "durationTicks": 96,
          "midi": 47,
          "name": "B2",
          "ticks": 55200,
          "time": 165.86536250000003,
          "velocity": 0.7559055118110236
        },
        {
          "duration": 0.2884614999999826,
          "durationTicks": 96,
          "midi": 52,
          "name": "E3",
          "ticks": 55200,
          "time": 165.86536250000003,
          "velocity": 0.7559055118110236
        },
        {
          "duration": 0.2884614999999826,
          "durationTicks": 96,
          "midi": 59,
          "name": "B3",
          "ticks": 55200,
          "time": 165.86536250000003,
          "velocity": 0.7559055118110236
        },
        {
          "duration": 0.28846150000001103,
          "durationTicks": 96,
          "midi": 40,
          "name": "E2",
          "ticks": 55296,
          "time": 166.15382400000001,
          "velocity": 0.7559055118110236
        },
        {
          "duration": 0.28846150000001103,
          "durationTicks": 96,
          "midi": 47,
          "name": "B2",
          "ticks": 55296,
          "time": 166.15382400000001,
          "velocity": 0.7559055118110236
        },
        {
          "duration": 0.28846150000001103,
          "durationTicks": 96,
          "midi": 52,
          "name": "E3",
          "ticks": 55296,
          "time": 166.15382400000001,
          "velocity": 0.7559055118110236
        },
        {
          "duration": 0.28846150000001103,
          "durationTicks": 96,
          "midi": 59,
          "name": "B3",
          "ticks": 55296,
          "time": 166.15382400000001,
          "velocity": 0.7559055118110236
        },
        {
          "duration": 0.2884614999999826,
          "durationTicks": 96,
          "midi": 47,
          "name": "B2",
          "ticks": 55392,
          "time": 166.44228550000003,
          "velocity": 0.7559055118110236
        },
        {
          "duration": 0.2884614999999826,
          "durationTicks": 96,
          "midi": 54,
          "name": "F#3",
          "ticks": 55392,
          "time": 166.44228550000003,
          "velocity": 0.7559055118110236
        },
        {
          "duration": 0.2884614999999826,
          "durationTicks": 96,
          "midi": 59,
          "name": "B3",
          "ticks": 55392,
          "time": 166.44228550000003,
          "velocity": 0.7559055118110236
        },
        {
          "duration": 0.28846150000001103,
          "durationTicks": 96,
          "midi": 47,
          "name": "B2",
          "ticks": 55488,
          "time": 166.730747,
          "velocity": 0.7559055118110236
        },
        {
          "duration": 0.28846150000001103,
          "durationTicks": 96,
          "midi": 54,
          "name": "F#3",
          "ticks": 55488,
          "time": 166.730747,
          "velocity": 0.7559055118110236
        },
        {
          "duration": 0.28846150000001103,
          "durationTicks": 96,
          "midi": 59,
          "name": "B3",
          "ticks": 55488,
          "time": 166.730747,
          "velocity": 0.7559055118110236
        },
        {
          "duration": 0.28846150000001103,
          "durationTicks": 96,
          "midi": 47,
          "name": "B2",
          "ticks": 55584,
          "time": 167.01920850000002,
          "velocity": 0.7559055118110236
        },
        {
          "duration": 0.28846150000001103,
          "durationTicks": 96,
          "midi": 54,
          "name": "F#3",
          "ticks": 55584,
          "time": 167.01920850000002,
          "velocity": 0.7559055118110236
        },
        {
          "duration": 0.28846150000001103,
          "durationTicks": 96,
          "midi": 59,
          "name": "B3",
          "ticks": 55584,
          "time": 167.01920850000002,
          "velocity": 0.7559055118110236
        },
        {
          "duration": 0.2884614999999826,
          "durationTicks": 96,
          "midi": 47,
          "name": "B2",
          "ticks": 55680,
          "time": 167.30767000000003,
          "velocity": 0.7559055118110236
        },
        {
          "duration": 0.2884614999999826,
          "durationTicks": 96,
          "midi": 54,
          "name": "F#3",
          "ticks": 55680,
          "time": 167.30767000000003,
          "velocity": 0.7559055118110236
        },
        {
          "duration": 0.2884614999999826,
          "durationTicks": 96,
          "midi": 59,
          "name": "B3",
          "ticks": 55680,
          "time": 167.30767000000003,
          "velocity": 0.7559055118110236
        },
        {
          "duration": 0.28846150000001103,
          "durationTicks": 96,
          "midi": 47,
          "name": "B2",
          "ticks": 55776,
          "time": 167.5961315,
          "velocity": 0.7559055118110236
        },
        {
          "duration": 0.28846150000001103,
          "durationTicks": 96,
          "midi": 54,
          "name": "F#3",
          "ticks": 55776,
          "time": 167.5961315,
          "velocity": 0.7559055118110236
        },
        {
          "duration": 0.28846150000001103,
          "durationTicks": 96,
          "midi": 59,
          "name": "B3",
          "ticks": 55776,
          "time": 167.5961315,
          "velocity": 0.7559055118110236
        },
        {
          "duration": 0.28846150000001103,
          "durationTicks": 96,
          "midi": 47,
          "name": "B2",
          "ticks": 55872,
          "time": 167.88459300000002,
          "velocity": 0.7559055118110236
        },
        {
          "duration": 0.28846150000001103,
          "durationTicks": 96,
          "midi": 54,
          "name": "F#3",
          "ticks": 55872,
          "time": 167.88459300000002,
          "velocity": 0.7559055118110236
        },
        {
          "duration": 0.28846150000001103,
          "durationTicks": 96,
          "midi": 59,
          "name": "B3",
          "ticks": 55872,
          "time": 167.88459300000002,
          "velocity": 0.7559055118110236
        },
        {
          "duration": 0.5769229999999936,
          "durationTicks": 192,
          "midi": 44,
          "name": "G#2",
          "ticks": 55968,
          "time": 168.17305450000003,
          "velocity": 0.7559055118110236
        },
        {
          "duration": 0.5769229999999936,
          "durationTicks": 192,
          "midi": 51,
          "name": "D#3",
          "ticks": 55968,
          "time": 168.17305450000003,
          "velocity": 0.7559055118110236
        },
        {
          "duration": 0.5769229999999936,
          "durationTicks": 192,
          "midi": 56,
          "name": "G#3",
          "ticks": 55968,
          "time": 168.17305450000003,
          "velocity": 0.7559055118110236
        },
        {
          "duration": 0.2884614999999826,
          "durationTicks": 96,
          "midi": 37,
          "name": "C#2",
          "ticks": 56160,
          "time": 168.74997750000003,
          "velocity": 0.7559055118110236
        },
        {
          "duration": 0.2884614999999826,
          "durationTicks": 96,
          "midi": 44,
          "name": "G#2",
          "ticks": 56160,
          "time": 168.74997750000003,
          "velocity": 0.7559055118110236
        },
        {
          "duration": 0.2884614999999826,
          "durationTicks": 96,
          "midi": 49,
          "name": "C#3",
          "ticks": 56160,
          "time": 168.74997750000003,
          "velocity": 0.7559055118110236
        },
        {
          "duration": 0.2884614999999826,
          "durationTicks": 96,
          "midi": 68,
          "name": "G#4",
          "ticks": 56160,
          "time": 168.74997750000003,
          "velocity": 0.7559055118110236
        },
        {
          "duration": 0.28846150000001103,
          "durationTicks": 96,
          "midi": 37,
          "name": "C#2",
          "ticks": 56256,
          "time": 169.038439,
          "velocity": 0.7559055118110236
        },
        {
          "duration": 0.28846150000001103,
          "durationTicks": 96,
          "midi": 44,
          "name": "G#2",
          "ticks": 56256,
          "time": 169.038439,
          "velocity": 0.7559055118110236
        },
        {
          "duration": 0.28846150000001103,
          "durationTicks": 96,
          "midi": 49,
          "name": "C#3",
          "ticks": 56256,
          "time": 169.038439,
          "velocity": 0.7559055118110236
        },
        {
          "duration": 0.28846150000001103,
          "durationTicks": 96,
          "midi": 68,
          "name": "G#4",
          "ticks": 56256,
          "time": 169.038439,
          "velocity": 0.7559055118110236
        },
        {
          "duration": 0.28846150000001103,
          "durationTicks": 96,
          "midi": 37,
          "name": "C#2",
          "ticks": 56352,
          "time": 169.32690050000002,
          "velocity": 0.7559055118110236
        },
        {
          "duration": 0.28846150000001103,
          "durationTicks": 96,
          "midi": 44,
          "name": "G#2",
          "ticks": 56352,
          "time": 169.32690050000002,
          "velocity": 0.7559055118110236
        },
        {
          "duration": 0.28846150000001103,
          "durationTicks": 96,
          "midi": 49,
          "name": "C#3",
          "ticks": 56352,
          "time": 169.32690050000002,
          "velocity": 0.7559055118110236
        },
        {
          "duration": 0.28846150000001103,
          "durationTicks": 96,
          "midi": 68,
          "name": "G#4",
          "ticks": 56352,
          "time": 169.32690050000002,
          "velocity": 0.7559055118110236
        },
        {
          "duration": 0.2884614999999826,
          "durationTicks": 96,
          "midi": 37,
          "name": "C#2",
          "ticks": 56448,
          "time": 169.61536200000003,
          "velocity": 0.7559055118110236
        },
        {
          "duration": 0.2884614999999826,
          "durationTicks": 96,
          "midi": 44,
          "name": "G#2",
          "ticks": 56448,
          "time": 169.61536200000003,
          "velocity": 0.7559055118110236
        },
        {
          "duration": 0.2884614999999826,
          "durationTicks": 96,
          "midi": 49,
          "name": "C#3",
          "ticks": 56448,
          "time": 169.61536200000003,
          "velocity": 0.7559055118110236
        },
        {
          "duration": 0.2884614999999826,
          "durationTicks": 96,
          "midi": 68,
          "name": "G#4",
          "ticks": 56448,
          "time": 169.61536200000003,
          "velocity": 0.7559055118110236
        },
        {
          "duration": 0.28846150000001103,
          "durationTicks": 96,
          "midi": 37,
          "name": "C#2",
          "ticks": 56544,
          "time": 169.90382350000002,
          "velocity": 0.7559055118110236
        },
        {
          "duration": 0.28846150000001103,
          "durationTicks": 96,
          "midi": 44,
          "name": "G#2",
          "ticks": 56544,
          "time": 169.90382350000002,
          "velocity": 0.7559055118110236
        },
        {
          "duration": 0.28846150000001103,
          "durationTicks": 96,
          "midi": 49,
          "name": "C#3",
          "ticks": 56544,
          "time": 169.90382350000002,
          "velocity": 0.7559055118110236
        },
        {
          "duration": 0.28846150000001103,
          "durationTicks": 96,
          "midi": 68,
          "name": "G#4",
          "ticks": 56544,
          "time": 169.90382350000002,
          "velocity": 0.7559055118110236
        },
        {
          "duration": 0.2884614999999826,
          "durationTicks": 96,
          "midi": 37,
          "name": "C#2",
          "ticks": 56640,
          "time": 170.19228500000003,
          "velocity": 0.7559055118110236
        },
        {
          "duration": 0.2884614999999826,
          "durationTicks": 96,
          "midi": 44,
          "name": "G#2",
          "ticks": 56640,
          "time": 170.19228500000003,
          "velocity": 0.7559055118110236
        },
        {
          "duration": 0.2884614999999826,
          "durationTicks": 96,
          "midi": 49,
          "name": "C#3",
          "ticks": 56640,
          "time": 170.19228500000003,
          "velocity": 0.7559055118110236
        },
        {
          "duration": 0.2884614999999826,
          "durationTicks": 96,
          "midi": 68,
          "name": "G#4",
          "ticks": 56640,
          "time": 170.19228500000003,
          "velocity": 0.7559055118110236
        },
        {
          "duration": 0.28846150000001103,
          "durationTicks": 96,
          "midi": 37,
          "name": "C#2",
          "ticks": 56736,
          "time": 170.4807465,
          "velocity": 0.7559055118110236
        },
        {
          "duration": 0.28846150000001103,
          "durationTicks": 96,
          "midi": 44,
          "name": "G#2",
          "ticks": 56736,
          "time": 170.4807465,
          "velocity": 0.7559055118110236
        },
        {
          "duration": 0.28846150000001103,
          "durationTicks": 96,
          "midi": 49,
          "name": "C#3",
          "ticks": 56736,
          "time": 170.4807465,
          "velocity": 0.7559055118110236
        },
        {
          "duration": 0.28846150000001103,
          "durationTicks": 96,
          "midi": 68,
          "name": "G#4",
          "ticks": 56736,
          "time": 170.4807465,
          "velocity": 0.7559055118110236
        },
        {
          "duration": 0.28846150000001103,
          "durationTicks": 96,
          "midi": 37,
          "name": "C#2",
          "ticks": 56832,
          "time": 170.76920800000002,
          "velocity": 0.7559055118110236
        },
        {
          "duration": 0.28846150000001103,
          "durationTicks": 96,
          "midi": 44,
          "name": "G#2",
          "ticks": 56832,
          "time": 170.76920800000002,
          "velocity": 0.7559055118110236
        },
        {
          "duration": 0.28846150000001103,
          "durationTicks": 96,
          "midi": 49,
          "name": "C#3",
          "ticks": 56832,
          "time": 170.76920800000002,
          "velocity": 0.7559055118110236
        },
        {
          "duration": 0.28846150000001103,
          "durationTicks": 96,
          "midi": 68,
          "name": "G#4",
          "ticks": 56832,
          "time": 170.76920800000002,
          "velocity": 0.7559055118110236
        },
        {
          "duration": 0.2884614999999826,
          "durationTicks": 96,
          "midi": 45,
          "name": "A2",
          "ticks": 56928,
          "time": 171.05766950000003,
          "velocity": 0.7559055118110236
        },
        {
          "duration": 0.2884614999999826,
          "durationTicks": 96,
          "midi": 52,
          "name": "E3",
          "ticks": 56928,
          "time": 171.05766950000003,
          "velocity": 0.7559055118110236
        },
        {
          "duration": 0.2884614999999826,
          "durationTicks": 96,
          "midi": 57,
          "name": "A3",
          "ticks": 56928,
          "time": 171.05766950000003,
          "velocity": 0.7559055118110236
        },
        {
          "duration": 0.28846150000001103,
          "durationTicks": 96,
          "midi": 45,
          "name": "A2",
          "ticks": 57024,
          "time": 171.346131,
          "velocity": 0.7559055118110236
        },
        {
          "duration": 0.28846150000001103,
          "durationTicks": 96,
          "midi": 52,
          "name": "E3",
          "ticks": 57024,
          "time": 171.346131,
          "velocity": 0.7559055118110236
        },
        {
          "duration": 0.28846150000001103,
          "durationTicks": 96,
          "midi": 57,
          "name": "A3",
          "ticks": 57024,
          "time": 171.346131,
          "velocity": 0.7559055118110236
        },
        {
          "duration": 0.28846150000001103,
          "durationTicks": 96,
          "midi": 45,
          "name": "A2",
          "ticks": 57120,
          "time": 171.63459250000002,
          "velocity": 0.7559055118110236
        },
        {
          "duration": 0.28846150000001103,
          "durationTicks": 96,
          "midi": 52,
          "name": "E3",
          "ticks": 57120,
          "time": 171.63459250000002,
          "velocity": 0.7559055118110236
        },
        {
          "duration": 0.28846150000001103,
          "durationTicks": 96,
          "midi": 57,
          "name": "A3",
          "ticks": 57120,
          "time": 171.63459250000002,
          "velocity": 0.7559055118110236
        },
        {
          "duration": 0.2884614999999826,
          "durationTicks": 96,
          "midi": 45,
          "name": "A2",
          "ticks": 57216,
          "time": 171.92305400000004,
          "velocity": 0.7559055118110236
        },
        {
          "duration": 0.2884614999999826,
          "durationTicks": 96,
          "midi": 52,
          "name": "E3",
          "ticks": 57216,
          "time": 171.92305400000004,
          "velocity": 0.7559055118110236
        },
        {
          "duration": 0.2884614999999826,
          "durationTicks": 96,
          "midi": 57,
          "name": "A3",
          "ticks": 57216,
          "time": 171.92305400000004,
          "velocity": 0.7559055118110236
        },
        {
          "duration": 0.28846150000001103,
          "durationTicks": 96,
          "midi": 45,
          "name": "A2",
          "ticks": 57312,
          "time": 172.21151550000002,
          "velocity": 0.7559055118110236
        },
        {
          "duration": 0.28846150000001103,
          "durationTicks": 96,
          "midi": 52,
          "name": "E3",
          "ticks": 57312,
          "time": 172.21151550000002,
          "velocity": 0.7559055118110236
        },
        {
          "duration": 0.28846150000001103,
          "durationTicks": 96,
          "midi": 57,
          "name": "A3",
          "ticks": 57312,
          "time": 172.21151550000002,
          "velocity": 0.7559055118110236
        },
        {
          "duration": 0.2884614999999826,
          "durationTicks": 96,
          "midi": 45,
          "name": "A2",
          "ticks": 57408,
          "time": 172.49997700000003,
          "velocity": 0.7559055118110236
        },
        {
          "duration": 0.2884614999999826,
          "durationTicks": 96,
          "midi": 52,
          "name": "E3",
          "ticks": 57408,
          "time": 172.49997700000003,
          "velocity": 0.7559055118110236
        },
        {
          "duration": 0.2884614999999826,
          "durationTicks": 96,
          "midi": 57,
          "name": "A3",
          "ticks": 57408,
          "time": 172.49997700000003,
          "velocity": 0.7559055118110236
        },
        {
          "duration": 0.28846150000001103,
          "durationTicks": 96,
          "midi": 45,
          "name": "A2",
          "ticks": 57504,
          "time": 172.7884385,
          "velocity": 0.7559055118110236
        },
        {
          "duration": 0.28846150000001103,
          "durationTicks": 96,
          "midi": 52,
          "name": "E3",
          "ticks": 57504,
          "time": 172.7884385,
          "velocity": 0.7559055118110236
        },
        {
          "duration": 0.28846150000001103,
          "durationTicks": 96,
          "midi": 57,
          "name": "A3",
          "ticks": 57504,
          "time": 172.7884385,
          "velocity": 0.7559055118110236
        },
        {
          "duration": 0.28846150000001103,
          "durationTicks": 96,
          "midi": 45,
          "name": "A2",
          "ticks": 57600,
          "time": 173.07690000000002,
          "velocity": 0.7559055118110236
        },
        {
          "duration": 0.28846150000001103,
          "durationTicks": 96,
          "midi": 52,
          "name": "E3",
          "ticks": 57600,
          "time": 173.07690000000002,
          "velocity": 0.7559055118110236
        },
        {
          "duration": 0.28846150000001103,
          "durationTicks": 96,
          "midi": 57,
          "name": "A3",
          "ticks": 57600,
          "time": 173.07690000000002,
          "velocity": 0.7559055118110236
        },
        {
          "duration": 0.2884614999999826,
          "durationTicks": 96,
          "midi": 40,
          "name": "E2",
          "ticks": 57696,
          "time": 173.36536150000003,
          "velocity": 0.7559055118110236
        },
        {
          "duration": 0.2884614999999826,
          "durationTicks": 96,
          "midi": 47,
          "name": "B2",
          "ticks": 57696,
          "time": 173.36536150000003,
          "velocity": 0.7559055118110236
        },
        {
          "duration": 0.2884614999999826,
          "durationTicks": 96,
          "midi": 52,
          "name": "E3",
          "ticks": 57696,
          "time": 173.36536150000003,
          "velocity": 0.7559055118110236
        },
        {
          "duration": 0.2884614999999826,
          "durationTicks": 96,
          "midi": 59,
          "name": "B3",
          "ticks": 57696,
          "time": 173.36536150000003,
          "velocity": 0.7559055118110236
        },
        {
          "duration": 0.28846150000001103,
          "durationTicks": 96,
          "midi": 40,
          "name": "E2",
          "ticks": 57792,
          "time": 173.65382300000002,
          "velocity": 0.7559055118110236
        },
        {
          "duration": 0.28846150000001103,
          "durationTicks": 96,
          "midi": 47,
          "name": "B2",
          "ticks": 57792,
          "time": 173.65382300000002,
          "velocity": 0.7559055118110236
        },
        {
          "duration": 0.28846150000001103,
          "durationTicks": 96,
          "midi": 52,
          "name": "E3",
          "ticks": 57792,
          "time": 173.65382300000002,
          "velocity": 0.7559055118110236
        },
        {
          "duration": 0.28846150000001103,
          "durationTicks": 96,
          "midi": 59,
          "name": "B3",
          "ticks": 57792,
          "time": 173.65382300000002,
          "velocity": 0.7559055118110236
        },
        {
          "duration": 0.2884614999999826,
          "durationTicks": 96,
          "midi": 40,
          "name": "E2",
          "ticks": 57888,
          "time": 173.94228450000003,
          "velocity": 0.7559055118110236
        },
        {
          "duration": 0.2884614999999826,
          "durationTicks": 96,
          "midi": 47,
          "name": "B2",
          "ticks": 57888,
          "time": 173.94228450000003,
          "velocity": 0.7559055118110236
        },
        {
          "duration": 0.2884614999999826,
          "durationTicks": 96,
          "midi": 52,
          "name": "E3",
          "ticks": 57888,
          "time": 173.94228450000003,
          "velocity": 0.7559055118110236
        },
        {
          "duration": 0.2884614999999826,
          "durationTicks": 96,
          "midi": 59,
          "name": "B3",
          "ticks": 57888,
          "time": 173.94228450000003,
          "velocity": 0.7559055118110236
        },
        {
          "duration": 0.28846150000001103,
          "durationTicks": 96,
          "midi": 40,
          "name": "E2",
          "ticks": 57984,
          "time": 174.230746,
          "velocity": 0.7559055118110236
        },
        {
          "duration": 0.28846150000001103,
          "durationTicks": 96,
          "midi": 47,
          "name": "B2",
          "ticks": 57984,
          "time": 174.230746,
          "velocity": 0.7559055118110236
        },
        {
          "duration": 0.28846150000001103,
          "durationTicks": 96,
          "midi": 52,
          "name": "E3",
          "ticks": 57984,
          "time": 174.230746,
          "velocity": 0.7559055118110236
        },
        {
          "duration": 0.28846150000001103,
          "durationTicks": 96,
          "midi": 59,
          "name": "B3",
          "ticks": 57984,
          "time": 174.230746,
          "velocity": 0.7559055118110236
        },
        {
          "duration": 0.28846150000001103,
          "durationTicks": 96,
          "midi": 40,
          "name": "E2",
          "ticks": 58080,
          "time": 174.51920750000002,
          "velocity": 0.7559055118110236
        },
        {
          "duration": 0.28846150000001103,
          "durationTicks": 96,
          "midi": 47,
          "name": "B2",
          "ticks": 58080,
          "time": 174.51920750000002,
          "velocity": 0.7559055118110236
        },
        {
          "duration": 0.28846150000001103,
          "durationTicks": 96,
          "midi": 52,
          "name": "E3",
          "ticks": 58080,
          "time": 174.51920750000002,
          "velocity": 0.7559055118110236
        },
        {
          "duration": 0.28846150000001103,
          "durationTicks": 96,
          "midi": 59,
          "name": "B3",
          "ticks": 58080,
          "time": 174.51920750000002,
          "velocity": 0.7559055118110236
        },
        {
          "duration": 0.2884614999999826,
          "durationTicks": 96,
          "midi": 40,
          "name": "E2",
          "ticks": 58176,
          "time": 174.80766900000003,
          "velocity": 0.7559055118110236
        },
        {
          "duration": 0.2884614999999826,
          "durationTicks": 96,
          "midi": 47,
          "name": "B2",
          "ticks": 58176,
          "time": 174.80766900000003,
          "velocity": 0.7559055118110236
        },
        {
          "duration": 0.2884614999999826,
          "durationTicks": 96,
          "midi": 52,
          "name": "E3",
          "ticks": 58176,
          "time": 174.80766900000003,
          "velocity": 0.7559055118110236
        },
        {
          "duration": 0.2884614999999826,
          "durationTicks": 96,
          "midi": 59,
          "name": "B3",
          "ticks": 58176,
          "time": 174.80766900000003,
          "velocity": 0.7559055118110236
        },
        {
          "duration": 0.28846150000001103,
          "durationTicks": 96,
          "midi": 40,
          "name": "E2",
          "ticks": 58272,
          "time": 175.09613050000002,
          "velocity": 0.7559055118110236
        },
        {
          "duration": 0.28846150000001103,
          "durationTicks": 96,
          "midi": 47,
          "name": "B2",
          "ticks": 58272,
          "time": 175.09613050000002,
          "velocity": 0.7559055118110236
        },
        {
          "duration": 0.28846150000001103,
          "durationTicks": 96,
          "midi": 52,
          "name": "E3",
          "ticks": 58272,
          "time": 175.09613050000002,
          "velocity": 0.7559055118110236
        },
        {
          "duration": 0.28846150000001103,
          "durationTicks": 96,
          "midi": 59,
          "name": "B3",
          "ticks": 58272,
          "time": 175.09613050000002,
          "velocity": 0.7559055118110236
        },
        {
          "duration": 0.2884614999999826,
          "durationTicks": 96,
          "midi": 40,
          "name": "E2",
          "ticks": 58368,
          "time": 175.38459200000003,
          "velocity": 0.7559055118110236
        },
        {
          "duration": 0.2884614999999826,
          "durationTicks": 96,
          "midi": 47,
          "name": "B2",
          "ticks": 58368,
          "time": 175.38459200000003,
          "velocity": 0.7559055118110236
        },
        {
          "duration": 0.2884614999999826,
          "durationTicks": 96,
          "midi": 52,
          "name": "E3",
          "ticks": 58368,
          "time": 175.38459200000003,
          "velocity": 0.7559055118110236
        },
        {
          "duration": 0.2884614999999826,
          "durationTicks": 96,
          "midi": 59,
          "name": "B3",
          "ticks": 58368,
          "time": 175.38459200000003,
          "velocity": 0.7559055118110236
        },
        {
          "duration": 0.28846150000001103,
          "durationTicks": 96,
          "midi": 47,
          "name": "B2",
          "ticks": 58464,
          "time": 175.6730535,
          "velocity": 0.7559055118110236
        },
        {
          "duration": 0.28846150000001103,
          "durationTicks": 96,
          "midi": 54,
          "name": "F#3",
          "ticks": 58464,
          "time": 175.6730535,
          "velocity": 0.7559055118110236
        },
        {
          "duration": 0.28846150000001103,
          "durationTicks": 96,
          "midi": 59,
          "name": "B3",
          "ticks": 58464,
          "time": 175.6730535,
          "velocity": 0.7559055118110236
        },
        {
          "duration": 0.28846150000001103,
          "durationTicks": 96,
          "midi": 47,
          "name": "B2",
          "ticks": 58560,
          "time": 175.96151500000002,
          "velocity": 0.7559055118110236
        },
        {
          "duration": 0.28846150000001103,
          "durationTicks": 96,
          "midi": 54,
          "name": "F#3",
          "ticks": 58560,
          "time": 175.96151500000002,
          "velocity": 0.7559055118110236
        },
        {
          "duration": 0.28846150000001103,
          "durationTicks": 96,
          "midi": 59,
          "name": "B3",
          "ticks": 58560,
          "time": 175.96151500000002,
          "velocity": 0.7559055118110236
        },
        {
          "duration": 0.2884614999999826,
          "durationTicks": 96,
          "midi": 47,
          "name": "B2",
          "ticks": 58656,
          "time": 176.24997650000003,
          "velocity": 0.7559055118110236
        },
        {
          "duration": 0.2884614999999826,
          "durationTicks": 96,
          "midi": 54,
          "name": "F#3",
          "ticks": 58656,
          "time": 176.24997650000003,
          "velocity": 0.7559055118110236
        },
        {
          "duration": 0.2884614999999826,
          "durationTicks": 96,
          "midi": 59,
          "name": "B3",
          "ticks": 58656,
          "time": 176.24997650000003,
          "velocity": 0.7559055118110236
        },
        {
          "duration": 0.28846150000001103,
          "durationTicks": 96,
          "midi": 47,
          "name": "B2",
          "ticks": 58752,
          "time": 176.538438,
          "velocity": 0.7559055118110236
        },
        {
          "duration": 0.28846150000001103,
          "durationTicks": 96,
          "midi": 54,
          "name": "F#3",
          "ticks": 58752,
          "time": 176.538438,
          "velocity": 0.7559055118110236
        },
        {
          "duration": 0.28846150000001103,
          "durationTicks": 96,
          "midi": 59,
          "name": "B3",
          "ticks": 58752,
          "time": 176.538438,
          "velocity": 0.7559055118110236
        },
        {
          "duration": 0.28846150000001103,
          "durationTicks": 96,
          "midi": 47,
          "name": "B2",
          "ticks": 58848,
          "time": 176.82689950000002,
          "velocity": 0.7559055118110236
        },
        {
          "duration": 0.28846150000001103,
          "durationTicks": 96,
          "midi": 54,
          "name": "F#3",
          "ticks": 58848,
          "time": 176.82689950000002,
          "velocity": 0.7559055118110236
        },
        {
          "duration": 0.28846150000001103,
          "durationTicks": 96,
          "midi": 59,
          "name": "B3",
          "ticks": 58848,
          "time": 176.82689950000002,
          "velocity": 0.7559055118110236
        },
        {
          "duration": 0.2884614999999826,
          "durationTicks": 96,
          "midi": 47,
          "name": "B2",
          "ticks": 58944,
          "time": 177.11536100000004,
          "velocity": 0.7559055118110236
        },
        {
          "duration": 0.2884614999999826,
          "durationTicks": 96,
          "midi": 54,
          "name": "F#3",
          "ticks": 58944,
          "time": 177.11536100000004,
          "velocity": 0.7559055118110236
        },
        {
          "duration": 0.2884614999999826,
          "durationTicks": 96,
          "midi": 59,
          "name": "B3",
          "ticks": 58944,
          "time": 177.11536100000004,
          "velocity": 0.7559055118110236
        },
        {
          "duration": 0.5769229999999936,
          "durationTicks": 192,
          "midi": 44,
          "name": "G#2",
          "ticks": 59040,
          "time": 177.40382250000002,
          "velocity": 0.7559055118110236
        },
        {
          "duration": 0.5769229999999936,
          "durationTicks": 192,
          "midi": 51,
          "name": "D#3",
          "ticks": 59040,
          "time": 177.40382250000002,
          "velocity": 0.7559055118110236
        },
        {
          "duration": 0.5769229999999936,
          "durationTicks": 192,
          "midi": 56,
          "name": "G#3",
          "ticks": 59040,
          "time": 177.40382250000002,
          "velocity": 0.7559055118110236
        },
        {
          "duration": 0.28846150000001103,
          "durationTicks": 96,
          "midi": 37,
          "name": "C#2",
          "ticks": 59232,
          "time": 177.9807455,
          "velocity": 0.7559055118110236
        },
        {
          "duration": 0.28846150000001103,
          "durationTicks": 96,
          "midi": 44,
          "name": "G#2",
          "ticks": 59232,
          "time": 177.9807455,
          "velocity": 0.7559055118110236
        },
        {
          "duration": 0.28846150000001103,
          "durationTicks": 96,
          "midi": 49,
          "name": "C#3",
          "ticks": 59232,
          "time": 177.9807455,
          "velocity": 0.7559055118110236
        },
        {
          "duration": 0.28846150000001103,
          "durationTicks": 96,
          "midi": 68,
          "name": "G#4",
          "ticks": 59232,
          "time": 177.9807455,
          "velocity": 0.7559055118110236
        },
        {
          "duration": 0.28846150000001103,
          "durationTicks": 96,
          "midi": 37,
          "name": "C#2",
          "ticks": 59328,
          "time": 178.26920700000002,
          "velocity": 0.7559055118110236
        },
        {
          "duration": 0.28846150000001103,
          "durationTicks": 96,
          "midi": 44,
          "name": "G#2",
          "ticks": 59328,
          "time": 178.26920700000002,
          "velocity": 0.7559055118110236
        },
        {
          "duration": 0.28846150000001103,
          "durationTicks": 96,
          "midi": 49,
          "name": "C#3",
          "ticks": 59328,
          "time": 178.26920700000002,
          "velocity": 0.7559055118110236
        },
        {
          "duration": 0.28846150000001103,
          "durationTicks": 96,
          "midi": 68,
          "name": "G#4",
          "ticks": 59328,
          "time": 178.26920700000002,
          "velocity": 0.7559055118110236
        },
        {
          "duration": 0.2884614999999826,
          "durationTicks": 96,
          "midi": 37,
          "name": "C#2",
          "ticks": 59424,
          "time": 178.55766850000003,
          "velocity": 0.7559055118110236
        },
        {
          "duration": 0.2884614999999826,
          "durationTicks": 96,
          "midi": 44,
          "name": "G#2",
          "ticks": 59424,
          "time": 178.55766850000003,
          "velocity": 0.7559055118110236
        },
        {
          "duration": 0.2884614999999826,
          "durationTicks": 96,
          "midi": 49,
          "name": "C#3",
          "ticks": 59424,
          "time": 178.55766850000003,
          "velocity": 0.7559055118110236
        },
        {
          "duration": 0.2884614999999826,
          "durationTicks": 96,
          "midi": 68,
          "name": "G#4",
          "ticks": 59424,
          "time": 178.55766850000003,
          "velocity": 0.7559055118110236
        },
        {
          "duration": 0.28846150000001103,
          "durationTicks": 96,
          "midi": 37,
          "name": "C#2",
          "ticks": 59520,
          "time": 178.84613000000002,
          "velocity": 0.7559055118110236
        },
        {
          "duration": 0.28846150000001103,
          "durationTicks": 96,
          "midi": 44,
          "name": "G#2",
          "ticks": 59520,
          "time": 178.84613000000002,
          "velocity": 0.7559055118110236
        },
        {
          "duration": 0.28846150000001103,
          "durationTicks": 96,
          "midi": 49,
          "name": "C#3",
          "ticks": 59520,
          "time": 178.84613000000002,
          "velocity": 0.7559055118110236
        },
        {
          "duration": 0.28846150000001103,
          "durationTicks": 96,
          "midi": 68,
          "name": "G#4",
          "ticks": 59520,
          "time": 178.84613000000002,
          "velocity": 0.7559055118110236
        },
        {
          "duration": 0.2884614999999826,
          "durationTicks": 96,
          "midi": 37,
          "name": "C#2",
          "ticks": 59616,
          "time": 179.13459150000003,
          "velocity": 0.7559055118110236
        },
        {
          "duration": 0.2884614999999826,
          "durationTicks": 96,
          "midi": 44,
          "name": "G#2",
          "ticks": 59616,
          "time": 179.13459150000003,
          "velocity": 0.7559055118110236
        },
        {
          "duration": 0.2884614999999826,
          "durationTicks": 96,
          "midi": 49,
          "name": "C#3",
          "ticks": 59616,
          "time": 179.13459150000003,
          "velocity": 0.7559055118110236
        },
        {
          "duration": 0.2884614999999826,
          "durationTicks": 96,
          "midi": 68,
          "name": "G#4",
          "ticks": 59616,
          "time": 179.13459150000003,
          "velocity": 0.7559055118110236
        },
        {
          "duration": 0.28846150000001103,
          "durationTicks": 96,
          "midi": 37,
          "name": "C#2",
          "ticks": 59712,
          "time": 179.423053,
          "velocity": 0.7559055118110236
        },
        {
          "duration": 0.28846150000001103,
          "durationTicks": 96,
          "midi": 44,
          "name": "G#2",
          "ticks": 59712,
          "time": 179.423053,
          "velocity": 0.7559055118110236
        },
        {
          "duration": 0.28846150000001103,
          "durationTicks": 96,
          "midi": 49,
          "name": "C#3",
          "ticks": 59712,
          "time": 179.423053,
          "velocity": 0.7559055118110236
        },
        {
          "duration": 0.28846150000001103,
          "durationTicks": 96,
          "midi": 68,
          "name": "G#4",
          "ticks": 59712,
          "time": 179.423053,
          "velocity": 0.7559055118110236
        },
        {
          "duration": 0.28846150000001103,
          "durationTicks": 96,
          "midi": 37,
          "name": "C#2",
          "ticks": 59808,
          "time": 179.71151450000002,
          "velocity": 0.7559055118110236
        },
        {
          "duration": 0.28846150000001103,
          "durationTicks": 96,
          "midi": 44,
          "name": "G#2",
          "ticks": 59808,
          "time": 179.71151450000002,
          "velocity": 0.7559055118110236
        },
        {
          "duration": 0.28846150000001103,
          "durationTicks": 96,
          "midi": 49,
          "name": "C#3",
          "ticks": 59808,
          "time": 179.71151450000002,
          "velocity": 0.7559055118110236
        },
        {
          "duration": 0.28846150000001103,
          "durationTicks": 96,
          "midi": 68,
          "name": "G#4",
          "ticks": 59808,
          "time": 179.71151450000002,
          "velocity": 0.7559055118110236
        },
        {
          "duration": 0.2884614999999826,
          "durationTicks": 96,
          "midi": 37,
          "name": "C#2",
          "ticks": 59904,
          "time": 179.99997600000003,
          "velocity": 0.7559055118110236
        },
        {
          "duration": 0.2884614999999826,
          "durationTicks": 96,
          "midi": 44,
          "name": "G#2",
          "ticks": 59904,
          "time": 179.99997600000003,
          "velocity": 0.7559055118110236
        },
        {
          "duration": 0.2884614999999826,
          "durationTicks": 96,
          "midi": 49,
          "name": "C#3",
          "ticks": 59904,
          "time": 179.99997600000003,
          "velocity": 0.7559055118110236
        },
        {
          "duration": 0.2884614999999826,
          "durationTicks": 96,
          "midi": 68,
          "name": "G#4",
          "ticks": 59904,
          "time": 179.99997600000003,
          "velocity": 0.7559055118110236
        },
        {
          "duration": 0.28846150000001103,
          "durationTicks": 96,
          "midi": 45,
          "name": "A2",
          "ticks": 60000,
          "time": 180.28843750000001,
          "velocity": 0.7559055118110236
        },
        {
          "duration": 0.28846150000001103,
          "durationTicks": 96,
          "midi": 52,
          "name": "E3",
          "ticks": 60000,
          "time": 180.28843750000001,
          "velocity": 0.7559055118110236
        },
        {
          "duration": 0.28846150000001103,
          "durationTicks": 96,
          "midi": 57,
          "name": "A3",
          "ticks": 60000,
          "time": 180.28843750000001,
          "velocity": 0.7559055118110236
        },
        {
          "duration": 0.28846150000001103,
          "durationTicks": 96,
          "midi": 45,
          "name": "A2",
          "ticks": 60096,
          "time": 180.57689900000003,
          "velocity": 0.7559055118110236
        },
        {
          "duration": 0.28846150000001103,
          "durationTicks": 96,
          "midi": 52,
          "name": "E3",
          "ticks": 60096,
          "time": 180.57689900000003,
          "velocity": 0.7559055118110236
        },
        {
          "duration": 0.28846150000001103,
          "durationTicks": 96,
          "midi": 57,
          "name": "A3",
          "ticks": 60096,
          "time": 180.57689900000003,
          "velocity": 0.7559055118110236
        },
        {
          "duration": 0.2884614999999826,
          "durationTicks": 96,
          "midi": 45,
          "name": "A2",
          "ticks": 60192,
          "time": 180.86536050000004,
          "velocity": 0.7559055118110236
        },
        {
          "duration": 0.2884614999999826,
          "durationTicks": 96,
          "midi": 52,
          "name": "E3",
          "ticks": 60192,
          "time": 180.86536050000004,
          "velocity": 0.7559055118110236
        },
        {
          "duration": 0.2884614999999826,
          "durationTicks": 96,
          "midi": 57,
          "name": "A3",
          "ticks": 60192,
          "time": 180.86536050000004,
          "velocity": 0.7559055118110236
        },
        {
          "duration": 0.28846150000001103,
          "durationTicks": 96,
          "midi": 45,
          "name": "A2",
          "ticks": 60288,
          "time": 181.15382200000002,
          "velocity": 0.7559055118110236
        },
        {
          "duration": 0.28846150000001103,
          "durationTicks": 96,
          "midi": 52,
          "name": "E3",
          "ticks": 60288,
          "time": 181.15382200000002,
          "velocity": 0.7559055118110236
        },
        {
          "duration": 0.28846150000001103,
          "durationTicks": 96,
          "midi": 57,
          "name": "A3",
          "ticks": 60288,
          "time": 181.15382200000002,
          "velocity": 0.7559055118110236
        },
        {
          "duration": 0.2884614999999826,
          "durationTicks": 96,
          "midi": 45,
          "name": "A2",
          "ticks": 60384,
          "time": 181.44228350000003,
          "velocity": 0.7559055118110236
        },
        {
          "duration": 0.2884614999999826,
          "durationTicks": 96,
          "midi": 52,
          "name": "E3",
          "ticks": 60384,
          "time": 181.44228350000003,
          "velocity": 0.7559055118110236
        },
        {
          "duration": 0.2884614999999826,
          "durationTicks": 96,
          "midi": 57,
          "name": "A3",
          "ticks": 60384,
          "time": 181.44228350000003,
          "velocity": 0.7559055118110236
        },
        {
          "duration": 0.28846150000001103,
          "durationTicks": 96,
          "midi": 45,
          "name": "A2",
          "ticks": 60480,
          "time": 181.730745,
          "velocity": 0.7559055118110236
        },
        {
          "duration": 0.28846150000001103,
          "durationTicks": 96,
          "midi": 52,
          "name": "E3",
          "ticks": 60480,
          "time": 181.730745,
          "velocity": 0.7559055118110236
        },
        {
          "duration": 0.28846150000001103,
          "durationTicks": 96,
          "midi": 57,
          "name": "A3",
          "ticks": 60480,
          "time": 181.730745,
          "velocity": 0.7559055118110236
        },
        {
          "duration": 0.28846150000001103,
          "durationTicks": 96,
          "midi": 45,
          "name": "A2",
          "ticks": 60576,
          "time": 182.01920650000002,
          "velocity": 0.7559055118110236
        },
        {
          "duration": 0.28846150000001103,
          "durationTicks": 96,
          "midi": 52,
          "name": "E3",
          "ticks": 60576,
          "time": 182.01920650000002,
          "velocity": 0.7559055118110236
        },
        {
          "duration": 0.28846150000001103,
          "durationTicks": 96,
          "midi": 57,
          "name": "A3",
          "ticks": 60576,
          "time": 182.01920650000002,
          "velocity": 0.7559055118110236
        },
        {
          "duration": 0.2884614999999826,
          "durationTicks": 96,
          "midi": 45,
          "name": "A2",
          "ticks": 60672,
          "time": 182.30766800000004,
          "velocity": 0.7559055118110236
        },
        {
          "duration": 0.2884614999999826,
          "durationTicks": 96,
          "midi": 52,
          "name": "E3",
          "ticks": 60672,
          "time": 182.30766800000004,
          "velocity": 0.7559055118110236
        },
        {
          "duration": 0.2884614999999826,
          "durationTicks": 96,
          "midi": 57,
          "name": "A3",
          "ticks": 60672,
          "time": 182.30766800000004,
          "velocity": 0.7559055118110236
        },
        {
          "duration": 0.28846150000001103,
          "durationTicks": 96,
          "midi": 40,
          "name": "E2",
          "ticks": 60768,
          "time": 182.59612950000002,
          "velocity": 0.7559055118110236
        },
        {
          "duration": 0.28846150000001103,
          "durationTicks": 96,
          "midi": 47,
          "name": "B2",
          "ticks": 60768,
          "time": 182.59612950000002,
          "velocity": 0.7559055118110236
        },
        {
          "duration": 0.28846150000001103,
          "durationTicks": 96,
          "midi": 52,
          "name": "E3",
          "ticks": 60768,
          "time": 182.59612950000002,
          "velocity": 0.7559055118110236
        },
        {
          "duration": 0.28846150000001103,
          "durationTicks": 96,
          "midi": 59,
          "name": "B3",
          "ticks": 60768,
          "time": 182.59612950000002,
          "velocity": 0.7559055118110236
        },
        {
          "duration": 0.2884614999999826,
          "durationTicks": 96,
          "midi": 40,
          "name": "E2",
          "ticks": 60864,
          "time": 182.88459100000003,
          "velocity": 0.7559055118110236
        },
        {
          "duration": 0.2884614999999826,
          "durationTicks": 96,
          "midi": 47,
          "name": "B2",
          "ticks": 60864,
          "time": 182.88459100000003,
          "velocity": 0.7559055118110236
        },
        {
          "duration": 0.2884614999999826,
          "durationTicks": 96,
          "midi": 52,
          "name": "E3",
          "ticks": 60864,
          "time": 182.88459100000003,
          "velocity": 0.7559055118110236
        },
        {
          "duration": 0.2884614999999826,
          "durationTicks": 96,
          "midi": 59,
          "name": "B3",
          "ticks": 60864,
          "time": 182.88459100000003,
          "velocity": 0.7559055118110236
        },
        {
          "duration": 0.28846150000001103,
          "durationTicks": 96,
          "midi": 40,
          "name": "E2",
          "ticks": 60960,
          "time": 183.1730525,
          "velocity": 0.7559055118110236
        },
        {
          "duration": 0.28846150000001103,
          "durationTicks": 96,
          "midi": 47,
          "name": "B2",
          "ticks": 60960,
          "time": 183.1730525,
          "velocity": 0.7559055118110236
        },
        {
          "duration": 0.28846150000001103,
          "durationTicks": 96,
          "midi": 52,
          "name": "E3",
          "ticks": 60960,
          "time": 183.1730525,
          "velocity": 0.7559055118110236
        },
        {
          "duration": 0.28846150000001103,
          "durationTicks": 96,
          "midi": 59,
          "name": "B3",
          "ticks": 60960,
          "time": 183.1730525,
          "velocity": 0.7559055118110236
        },
        {
          "duration": 0.28846150000001103,
          "durationTicks": 96,
          "midi": 40,
          "name": "E2",
          "ticks": 61056,
          "time": 183.46151400000002,
          "velocity": 0.7559055118110236
        },
        {
          "duration": 0.28846150000001103,
          "durationTicks": 96,
          "midi": 47,
          "name": "B2",
          "ticks": 61056,
          "time": 183.46151400000002,
          "velocity": 0.7559055118110236
        },
        {
          "duration": 0.28846150000001103,
          "durationTicks": 96,
          "midi": 52,
          "name": "E3",
          "ticks": 61056,
          "time": 183.46151400000002,
          "velocity": 0.7559055118110236
        },
        {
          "duration": 0.28846150000001103,
          "durationTicks": 96,
          "midi": 59,
          "name": "B3",
          "ticks": 61056,
          "time": 183.46151400000002,
          "velocity": 0.7559055118110236
        },
        {
          "duration": 0.2884614999999826,
          "durationTicks": 96,
          "midi": 40,
          "name": "E2",
          "ticks": 61152,
          "time": 183.74997550000003,
          "velocity": 0.7559055118110236
        },
        {
          "duration": 0.2884614999999826,
          "durationTicks": 96,
          "midi": 47,
          "name": "B2",
          "ticks": 61152,
          "time": 183.74997550000003,
          "velocity": 0.7559055118110236
        },
        {
          "duration": 0.2884614999999826,
          "durationTicks": 96,
          "midi": 52,
          "name": "E3",
          "ticks": 61152,
          "time": 183.74997550000003,
          "velocity": 0.7559055118110236
        },
        {
          "duration": 0.2884614999999826,
          "durationTicks": 96,
          "midi": 59,
          "name": "B3",
          "ticks": 61152,
          "time": 183.74997550000003,
          "velocity": 0.7559055118110236
        },
        {
          "duration": 0.28846150000001103,
          "durationTicks": 96,
          "midi": 40,
          "name": "E2",
          "ticks": 61248,
          "time": 184.03843700000002,
          "velocity": 0.7559055118110236
        },
        {
          "duration": 0.28846150000001103,
          "durationTicks": 96,
          "midi": 47,
          "name": "B2",
          "ticks": 61248,
          "time": 184.03843700000002,
          "velocity": 0.7559055118110236
        },
        {
          "duration": 0.28846150000001103,
          "durationTicks": 96,
          "midi": 52,
          "name": "E3",
          "ticks": 61248,
          "time": 184.03843700000002,
          "velocity": 0.7559055118110236
        },
        {
          "duration": 0.28846150000001103,
          "durationTicks": 96,
          "midi": 59,
          "name": "B3",
          "ticks": 61248,
          "time": 184.03843700000002,
          "velocity": 0.7559055118110236
        },
        {
          "duration": 0.2884614999999826,
          "durationTicks": 96,
          "midi": 40,
          "name": "E2",
          "ticks": 61344,
          "time": 184.32689850000003,
          "velocity": 0.7559055118110236
        },
        {
          "duration": 0.2884614999999826,
          "durationTicks": 96,
          "midi": 47,
          "name": "B2",
          "ticks": 61344,
          "time": 184.32689850000003,
          "velocity": 0.7559055118110236
        },
        {
          "duration": 0.2884614999999826,
          "durationTicks": 96,
          "midi": 52,
          "name": "E3",
          "ticks": 61344,
          "time": 184.32689850000003,
          "velocity": 0.7559055118110236
        },
        {
          "duration": 0.2884614999999826,
          "durationTicks": 96,
          "midi": 59,
          "name": "B3",
          "ticks": 61344,
          "time": 184.32689850000003,
          "velocity": 0.7559055118110236
        },
        {
          "duration": 0.28846150000001103,
          "durationTicks": 96,
          "midi": 40,
          "name": "E2",
          "ticks": 61440,
          "time": 184.61536,
          "velocity": 0.7559055118110236
        },
        {
          "duration": 0.28846150000001103,
          "durationTicks": 96,
          "midi": 47,
          "name": "B2",
          "ticks": 61440,
          "time": 184.61536,
          "velocity": 0.7559055118110236
        },
        {
          "duration": 0.28846150000001103,
          "durationTicks": 96,
          "midi": 52,
          "name": "E3",
          "ticks": 61440,
          "time": 184.61536,
          "velocity": 0.7559055118110236
        },
        {
          "duration": 0.28846150000001103,
          "durationTicks": 96,
          "midi": 59,
          "name": "B3",
          "ticks": 61440,
          "time": 184.61536,
          "velocity": 0.7559055118110236
        },
        {
          "duration": 0.28846150000001103,
          "durationTicks": 96,
          "midi": 47,
          "name": "B2",
          "ticks": 61536,
          "time": 184.90382150000002,
          "velocity": 0.7559055118110236
        },
        {
          "duration": 0.28846150000001103,
          "durationTicks": 96,
          "midi": 54,
          "name": "F#3",
          "ticks": 61536,
          "time": 184.90382150000002,
          "velocity": 0.7559055118110236
        },
        {
          "duration": 0.28846150000001103,
          "durationTicks": 96,
          "midi": 59,
          "name": "B3",
          "ticks": 61536,
          "time": 184.90382150000002,
          "velocity": 0.7559055118110236
        },
        {
          "duration": 0.2884614999999826,
          "durationTicks": 96,
          "midi": 47,
          "name": "B2",
          "ticks": 61632,
          "time": 185.19228300000003,
          "velocity": 0.7559055118110236
        },
        {
          "duration": 0.2884614999999826,
          "durationTicks": 96,
          "midi": 54,
          "name": "F#3",
          "ticks": 61632,
          "time": 185.19228300000003,
          "velocity": 0.7559055118110236
        },
        {
          "duration": 0.2884614999999826,
          "durationTicks": 96,
          "midi": 59,
          "name": "B3",
          "ticks": 61632,
          "time": 185.19228300000003,
          "velocity": 0.7559055118110236
        },
        {
          "duration": 0.28846150000001103,
          "durationTicks": 96,
          "midi": 47,
          "name": "B2",
          "ticks": 61728,
          "time": 185.48074450000001,
          "velocity": 0.7559055118110236
        },
        {
          "duration": 0.28846150000001103,
          "durationTicks": 96,
          "midi": 54,
          "name": "F#3",
          "ticks": 61728,
          "time": 185.48074450000001,
          "velocity": 0.7559055118110236
        },
        {
          "duration": 0.28846150000001103,
          "durationTicks": 96,
          "midi": 59,
          "name": "B3",
          "ticks": 61728,
          "time": 185.48074450000001,
          "velocity": 0.7559055118110236
        },
        {
          "duration": 0.28846150000001103,
          "durationTicks": 96,
          "midi": 47,
          "name": "B2",
          "ticks": 61824,
          "time": 185.76920600000003,
          "velocity": 0.7559055118110236
        },
        {
          "duration": 0.28846150000001103,
          "durationTicks": 96,
          "midi": 54,
          "name": "F#3",
          "ticks": 61824,
          "time": 185.76920600000003,
          "velocity": 0.7559055118110236
        },
        {
          "duration": 0.28846150000001103,
          "durationTicks": 96,
          "midi": 59,
          "name": "B3",
          "ticks": 61824,
          "time": 185.76920600000003,
          "velocity": 0.7559055118110236
        },
        {
          "duration": 0.2884614999999826,
          "durationTicks": 96,
          "midi": 47,
          "name": "B2",
          "ticks": 61920,
          "time": 186.05766750000004,
          "velocity": 0.7559055118110236
        },
        {
          "duration": 0.2884614999999826,
          "durationTicks": 96,
          "midi": 54,
          "name": "F#3",
          "ticks": 61920,
          "time": 186.05766750000004,
          "velocity": 0.7559055118110236
        },
        {
          "duration": 0.2884614999999826,
          "durationTicks": 96,
          "midi": 59,
          "name": "B3",
          "ticks": 61920,
          "time": 186.05766750000004,
          "velocity": 0.7559055118110236
        },
        {
          "duration": 0.28846150000001103,
          "durationTicks": 96,
          "midi": 47,
          "name": "B2",
          "ticks": 62016,
          "time": 186.34612900000002,
          "velocity": 0.7559055118110236
        },
        {
          "duration": 0.28846150000001103,
          "durationTicks": 96,
          "midi": 54,
          "name": "F#3",
          "ticks": 62016,
          "time": 186.34612900000002,
          "velocity": 0.7559055118110236
        },
        {
          "duration": 0.28846150000001103,
          "durationTicks": 96,
          "midi": 59,
          "name": "B3",
          "ticks": 62016,
          "time": 186.34612900000002,
          "velocity": 0.7559055118110236
        },
        {
          "duration": 0.5769229999999936,
          "durationTicks": 192,
          "midi": 44,
          "name": "G#2",
          "ticks": 62112,
          "time": 186.63459050000003,
          "velocity": 0.7559055118110236
        },
        {
          "duration": 0.5769229999999936,
          "durationTicks": 192,
          "midi": 51,
          "name": "D#3",
          "ticks": 62112,
          "time": 186.63459050000003,
          "velocity": 0.7559055118110236
        },
        {
          "duration": 0.5769229999999936,
          "durationTicks": 192,
          "midi": 56,
          "name": "G#3",
          "ticks": 62112,
          "time": 186.63459050000003,
          "velocity": 0.7559055118110236
        },
        {
          "duration": 0.28846150000001103,
          "durationTicks": 96,
          "midi": 37,
          "name": "C#2",
          "ticks": 62304,
          "time": 187.21151350000002,
          "velocity": 0.7559055118110236
        },
        {
          "duration": 0.28846150000001103,
          "durationTicks": 96,
          "midi": 44,
          "name": "G#2",
          "ticks": 62304,
          "time": 187.21151350000002,
          "velocity": 0.7559055118110236
        },
        {
          "duration": 0.28846150000001103,
          "durationTicks": 96,
          "midi": 49,
          "name": "C#3",
          "ticks": 62304,
          "time": 187.21151350000002,
          "velocity": 0.7559055118110236
        },
        {
          "duration": 0.28846150000001103,
          "durationTicks": 96,
          "midi": 68,
          "name": "G#4",
          "ticks": 62304,
          "time": 187.21151350000002,
          "velocity": 0.7559055118110236
        },
        {
          "duration": 0.2884614999999826,
          "durationTicks": 96,
          "midi": 37,
          "name": "C#2",
          "ticks": 62400,
          "time": 187.49997500000003,
          "velocity": 0.7559055118110236
        },
        {
          "duration": 0.2884614999999826,
          "durationTicks": 96,
          "midi": 44,
          "name": "G#2",
          "ticks": 62400,
          "time": 187.49997500000003,
          "velocity": 0.7559055118110236
        },
        {
          "duration": 0.2884614999999826,
          "durationTicks": 96,
          "midi": 49,
          "name": "C#3",
          "ticks": 62400,
          "time": 187.49997500000003,
          "velocity": 0.7559055118110236
        },
        {
          "duration": 0.2884614999999826,
          "durationTicks": 96,
          "midi": 68,
          "name": "G#4",
          "ticks": 62400,
          "time": 187.49997500000003,
          "velocity": 0.7559055118110236
        },
        {
          "duration": 0.28846150000001103,
          "durationTicks": 96,
          "midi": 37,
          "name": "C#2",
          "ticks": 62496,
          "time": 187.78843650000002,
          "velocity": 0.7559055118110236
        },
        {
          "duration": 0.28846150000001103,
          "durationTicks": 96,
          "midi": 44,
          "name": "G#2",
          "ticks": 62496,
          "time": 187.78843650000002,
          "velocity": 0.7559055118110236
        },
        {
          "duration": 0.28846150000001103,
          "durationTicks": 96,
          "midi": 49,
          "name": "C#3",
          "ticks": 62496,
          "time": 187.78843650000002,
          "velocity": 0.7559055118110236
        },
        {
          "duration": 0.28846150000001103,
          "durationTicks": 96,
          "midi": 68,
          "name": "G#4",
          "ticks": 62496,
          "time": 187.78843650000002,
          "velocity": 0.7559055118110236
        },
        {
          "duration": 0.2884614999999826,
          "durationTicks": 96,
          "midi": 37,
          "name": "C#2",
          "ticks": 62592,
          "time": 188.07689800000003,
          "velocity": 0.7559055118110236
        },
        {
          "duration": 0.2884614999999826,
          "durationTicks": 96,
          "midi": 44,
          "name": "G#2",
          "ticks": 62592,
          "time": 188.07689800000003,
          "velocity": 0.7559055118110236
        },
        {
          "duration": 0.2884614999999826,
          "durationTicks": 96,
          "midi": 49,
          "name": "C#3",
          "ticks": 62592,
          "time": 188.07689800000003,
          "velocity": 0.7559055118110236
        },
        {
          "duration": 0.2884614999999826,
          "durationTicks": 96,
          "midi": 68,
          "name": "G#4",
          "ticks": 62592,
          "time": 188.07689800000003,
          "velocity": 0.7559055118110236
        },
        {
          "duration": 0.28846150000001103,
          "durationTicks": 96,
          "midi": 37,
          "name": "C#2",
          "ticks": 62688,
          "time": 188.3653595,
          "velocity": 0.7559055118110236
        },
        {
          "duration": 0.28846150000001103,
          "durationTicks": 96,
          "midi": 44,
          "name": "G#2",
          "ticks": 62688,
          "time": 188.3653595,
          "velocity": 0.7559055118110236
        },
        {
          "duration": 0.28846150000001103,
          "durationTicks": 96,
          "midi": 49,
          "name": "C#3",
          "ticks": 62688,
          "time": 188.3653595,
          "velocity": 0.7559055118110236
        },
        {
          "duration": 0.28846150000001103,
          "durationTicks": 96,
          "midi": 68,
          "name": "G#4",
          "ticks": 62688,
          "time": 188.3653595,
          "velocity": 0.7559055118110236
        },
        {
          "duration": 0.28846150000001103,
          "durationTicks": 96,
          "midi": 37,
          "name": "C#2",
          "ticks": 62784,
          "time": 188.65382100000002,
          "velocity": 0.7559055118110236
        },
        {
          "duration": 0.28846150000001103,
          "durationTicks": 96,
          "midi": 44,
          "name": "G#2",
          "ticks": 62784,
          "time": 188.65382100000002,
          "velocity": 0.7559055118110236
        },
        {
          "duration": 0.28846150000001103,
          "durationTicks": 96,
          "midi": 49,
          "name": "C#3",
          "ticks": 62784,
          "time": 188.65382100000002,
          "velocity": 0.7559055118110236
        },
        {
          "duration": 0.28846150000001103,
          "durationTicks": 96,
          "midi": 68,
          "name": "G#4",
          "ticks": 62784,
          "time": 188.65382100000002,
          "velocity": 0.7559055118110236
        },
        {
          "duration": 0.2884614999999826,
          "durationTicks": 96,
          "midi": 37,
          "name": "C#2",
          "ticks": 62880,
          "time": 188.94228250000003,
          "velocity": 0.7559055118110236
        },
        {
          "duration": 0.2884614999999826,
          "durationTicks": 96,
          "midi": 44,
          "name": "G#2",
          "ticks": 62880,
          "time": 188.94228250000003,
          "velocity": 0.7559055118110236
        },
        {
          "duration": 0.2884614999999826,
          "durationTicks": 96,
          "midi": 49,
          "name": "C#3",
          "ticks": 62880,
          "time": 188.94228250000003,
          "velocity": 0.7559055118110236
        },
        {
          "duration": 0.2884614999999826,
          "durationTicks": 96,
          "midi": 68,
          "name": "G#4",
          "ticks": 62880,
          "time": 188.94228250000003,
          "velocity": 0.7559055118110236
        },
        {
          "duration": 0.28846150000001103,
          "durationTicks": 96,
          "midi": 37,
          "name": "C#2",
          "ticks": 62976,
          "time": 189.23074400000002,
          "velocity": 0.7559055118110236
        },
        {
          "duration": 0.28846150000001103,
          "durationTicks": 96,
          "midi": 44,
          "name": "G#2",
          "ticks": 62976,
          "time": 189.23074400000002,
          "velocity": 0.7559055118110236
        },
        {
          "duration": 0.28846150000001103,
          "durationTicks": 96,
          "midi": 49,
          "name": "C#3",
          "ticks": 62976,
          "time": 189.23074400000002,
          "velocity": 0.7559055118110236
        },
        {
          "duration": 0.28846150000001103,
          "durationTicks": 96,
          "midi": 68,
          "name": "G#4",
          "ticks": 62976,
          "time": 189.23074400000002,
          "velocity": 0.7559055118110236
        },
        {
          "duration": 0.28846150000001103,
          "durationTicks": 96,
          "midi": 45,
          "name": "A2",
          "ticks": 63072,
          "time": 189.51920550000003,
          "velocity": 0.7559055118110236
        },
        {
          "duration": 0.28846150000001103,
          "durationTicks": 96,
          "midi": 52,
          "name": "E3",
          "ticks": 63072,
          "time": 189.51920550000003,
          "velocity": 0.7559055118110236
        },
        {
          "duration": 0.28846150000001103,
          "durationTicks": 96,
          "midi": 57,
          "name": "A3",
          "ticks": 63072,
          "time": 189.51920550000003,
          "velocity": 0.7559055118110236
        },
        {
          "duration": 0.2884614999999826,
          "durationTicks": 96,
          "midi": 45,
          "name": "A2",
          "ticks": 63168,
          "time": 189.80766700000004,
          "velocity": 0.7559055118110236
        },
        {
          "duration": 0.2884614999999826,
          "durationTicks": 96,
          "midi": 52,
          "name": "E3",
          "ticks": 63168,
          "time": 189.80766700000004,
          "velocity": 0.7559055118110236
        },
        {
          "duration": 0.2884614999999826,
          "durationTicks": 96,
          "midi": 57,
          "name": "A3",
          "ticks": 63168,
          "time": 189.80766700000004,
          "velocity": 0.7559055118110236
        },
        {
          "duration": 0.28846150000001103,
          "durationTicks": 96,
          "midi": 45,
          "name": "A2",
          "ticks": 63264,
          "time": 190.09612850000002,
          "velocity": 0.7559055118110236
        },
        {
          "duration": 0.28846150000001103,
          "durationTicks": 96,
          "midi": 52,
          "name": "E3",
          "ticks": 63264,
          "time": 190.09612850000002,
          "velocity": 0.7559055118110236
        },
        {
          "duration": 0.28846150000001103,
          "durationTicks": 96,
          "midi": 57,
          "name": "A3",
          "ticks": 63264,
          "time": 190.09612850000002,
          "velocity": 0.7559055118110236
        },
        {
          "duration": 0.2884614999999826,
          "durationTicks": 96,
          "midi": 45,
          "name": "A2",
          "ticks": 63360,
          "time": 190.38459000000003,
          "velocity": 0.7559055118110236
        },
        {
          "duration": 0.2884614999999826,
          "durationTicks": 96,
          "midi": 52,
          "name": "E3",
          "ticks": 63360,
          "time": 190.38459000000003,
          "velocity": 0.7559055118110236
        },
        {
          "duration": 0.2884614999999826,
          "durationTicks": 96,
          "midi": 57,
          "name": "A3",
          "ticks": 63360,
          "time": 190.38459000000003,
          "velocity": 0.7559055118110236
        },
        {
          "duration": 0.28846150000001103,
          "durationTicks": 96,
          "midi": 45,
          "name": "A2",
          "ticks": 63456,
          "time": 190.6730515,
          "velocity": 0.7559055118110236
        },
        {
          "duration": 0.28846150000001103,
          "durationTicks": 96,
          "midi": 52,
          "name": "E3",
          "ticks": 63456,
          "time": 190.6730515,
          "velocity": 0.7559055118110236
        },
        {
          "duration": 0.28846150000001103,
          "durationTicks": 96,
          "midi": 57,
          "name": "A3",
          "ticks": 63456,
          "time": 190.6730515,
          "velocity": 0.7559055118110236
        },
        {
          "duration": 0.28846150000001103,
          "durationTicks": 96,
          "midi": 45,
          "name": "A2",
          "ticks": 63552,
          "time": 190.96151300000002,
          "velocity": 0.7559055118110236
        },
        {
          "duration": 0.28846150000001103,
          "durationTicks": 96,
          "midi": 52,
          "name": "E3",
          "ticks": 63552,
          "time": 190.96151300000002,
          "velocity": 0.7559055118110236
        },
        {
          "duration": 0.28846150000001103,
          "durationTicks": 96,
          "midi": 57,
          "name": "A3",
          "ticks": 63552,
          "time": 190.96151300000002,
          "velocity": 0.7559055118110236
        },
        {
          "duration": 0.2884614999999826,
          "durationTicks": 96,
          "midi": 45,
          "name": "A2",
          "ticks": 63648,
          "time": 191.24997450000004,
          "velocity": 0.7559055118110236
        },
        {
          "duration": 0.2884614999999826,
          "durationTicks": 96,
          "midi": 52,
          "name": "E3",
          "ticks": 63648,
          "time": 191.24997450000004,
          "velocity": 0.7559055118110236
        },
        {
          "duration": 0.2884614999999826,
          "durationTicks": 96,
          "midi": 57,
          "name": "A3",
          "ticks": 63648,
          "time": 191.24997450000004,
          "velocity": 0.7559055118110236
        },
        {
          "duration": 0.28846150000001103,
          "durationTicks": 96,
          "midi": 45,
          "name": "A2",
          "ticks": 63744,
          "time": 191.53843600000002,
          "velocity": 0.7559055118110236
        },
        {
          "duration": 0.28846150000001103,
          "durationTicks": 96,
          "midi": 52,
          "name": "E3",
          "ticks": 63744,
          "time": 191.53843600000002,
          "velocity": 0.7559055118110236
        },
        {
          "duration": 0.28846150000001103,
          "durationTicks": 96,
          "midi": 57,
          "name": "A3",
          "ticks": 63744,
          "time": 191.53843600000002,
          "velocity": 0.7559055118110236
        },
        {
          "duration": 0.2884614999999826,
          "durationTicks": 96,
          "midi": 40,
          "name": "E2",
          "ticks": 63840,
          "time": 191.82689750000003,
          "velocity": 0.7559055118110236
        },
        {
          "duration": 0.2884614999999826,
          "durationTicks": 96,
          "midi": 47,
          "name": "B2",
          "ticks": 63840,
          "time": 191.82689750000003,
          "velocity": 0.7559055118110236
        },
        {
          "duration": 0.2884614999999826,
          "durationTicks": 96,
          "midi": 52,
          "name": "E3",
          "ticks": 63840,
          "time": 191.82689750000003,
          "velocity": 0.7559055118110236
        },
        {
          "duration": 0.2884614999999826,
          "durationTicks": 96,
          "midi": 59,
          "name": "B3",
          "ticks": 63840,
          "time": 191.82689750000003,
          "velocity": 0.7559055118110236
        },
        {
          "duration": 0.28846150000001103,
          "durationTicks": 96,
          "midi": 40,
          "name": "E2",
          "ticks": 63936,
          "time": 192.115359,
          "velocity": 0.7559055118110236
        },
        {
          "duration": 0.28846150000001103,
          "durationTicks": 96,
          "midi": 47,
          "name": "B2",
          "ticks": 63936,
          "time": 192.115359,
          "velocity": 0.7559055118110236
        },
        {
          "duration": 0.28846150000001103,
          "durationTicks": 96,
          "midi": 52,
          "name": "E3",
          "ticks": 63936,
          "time": 192.115359,
          "velocity": 0.7559055118110236
        },
        {
          "duration": 0.28846150000001103,
          "durationTicks": 96,
          "midi": 59,
          "name": "B3",
          "ticks": 63936,
          "time": 192.115359,
          "velocity": 0.7559055118110236
        },
        {
          "duration": 0.28846150000001103,
          "durationTicks": 96,
          "midi": 40,
          "name": "E2",
          "ticks": 64032,
          "time": 192.40382050000002,
          "velocity": 0.7559055118110236
        },
        {
          "duration": 0.28846150000001103,
          "durationTicks": 96,
          "midi": 47,
          "name": "B2",
          "ticks": 64032,
          "time": 192.40382050000002,
          "velocity": 0.7559055118110236
        },
        {
          "duration": 0.28846150000001103,
          "durationTicks": 96,
          "midi": 52,
          "name": "E3",
          "ticks": 64032,
          "time": 192.40382050000002,
          "velocity": 0.7559055118110236
        },
        {
          "duration": 0.28846150000001103,
          "durationTicks": 96,
          "midi": 59,
          "name": "B3",
          "ticks": 64032,
          "time": 192.40382050000002,
          "velocity": 0.7559055118110236
        },
        {
          "duration": 0.2884614999999826,
          "durationTicks": 96,
          "midi": 40,
          "name": "E2",
          "ticks": 64128,
          "time": 192.69228200000003,
          "velocity": 0.7559055118110236
        },
        {
          "duration": 0.2884614999999826,
          "durationTicks": 96,
          "midi": 47,
          "name": "B2",
          "ticks": 64128,
          "time": 192.69228200000003,
          "velocity": 0.7559055118110236
        },
        {
          "duration": 0.2884614999999826,
          "durationTicks": 96,
          "midi": 52,
          "name": "E3",
          "ticks": 64128,
          "time": 192.69228200000003,
          "velocity": 0.7559055118110236
        },
        {
          "duration": 0.2884614999999826,
          "durationTicks": 96,
          "midi": 59,
          "name": "B3",
          "ticks": 64128,
          "time": 192.69228200000003,
          "velocity": 0.7559055118110236
        },
        {
          "duration": 0.28846150000001103,
          "durationTicks": 96,
          "midi": 40,
          "name": "E2",
          "ticks": 64224,
          "time": 192.98074350000002,
          "velocity": 0.7559055118110236
        },
        {
          "duration": 0.28846150000001103,
          "durationTicks": 96,
          "midi": 47,
          "name": "B2",
          "ticks": 64224,
          "time": 192.98074350000002,
          "velocity": 0.7559055118110236
        },
        {
          "duration": 0.28846150000001103,
          "durationTicks": 96,
          "midi": 52,
          "name": "E3",
          "ticks": 64224,
          "time": 192.98074350000002,
          "velocity": 0.7559055118110236
        },
        {
          "duration": 0.28846150000001103,
          "durationTicks": 96,
          "midi": 59,
          "name": "B3",
          "ticks": 64224,
          "time": 192.98074350000002,
          "velocity": 0.7559055118110236
        },
        {
          "duration": 0.28846150000001103,
          "durationTicks": 96,
          "midi": 40,
          "name": "E2",
          "ticks": 64320,
          "time": 193.26920500000003,
          "velocity": 0.7559055118110236
        },
        {
          "duration": 0.28846150000001103,
          "durationTicks": 96,
          "midi": 47,
          "name": "B2",
          "ticks": 64320,
          "time": 193.26920500000003,
          "velocity": 0.7559055118110236
        },
        {
          "duration": 0.28846150000001103,
          "durationTicks": 96,
          "midi": 52,
          "name": "E3",
          "ticks": 64320,
          "time": 193.26920500000003,
          "velocity": 0.7559055118110236
        },
        {
          "duration": 0.28846150000001103,
          "durationTicks": 96,
          "midi": 59,
          "name": "B3",
          "ticks": 64320,
          "time": 193.26920500000003,
          "velocity": 0.7559055118110236
        },
        {
          "duration": 0.2884614999999826,
          "durationTicks": 96,
          "midi": 40,
          "name": "E2",
          "ticks": 64416,
          "time": 193.55766650000004,
          "velocity": 0.7559055118110236
        },
        {
          "duration": 0.2884614999999826,
          "durationTicks": 96,
          "midi": 47,
          "name": "B2",
          "ticks": 64416,
          "time": 193.55766650000004,
          "velocity": 0.7559055118110236
        },
        {
          "duration": 0.2884614999999826,
          "durationTicks": 96,
          "midi": 52,
          "name": "E3",
          "ticks": 64416,
          "time": 193.55766650000004,
          "velocity": 0.7559055118110236
        },
        {
          "duration": 0.2884614999999826,
          "durationTicks": 96,
          "midi": 59,
          "name": "B3",
          "ticks": 64416,
          "time": 193.55766650000004,
          "velocity": 0.7559055118110236
        },
        {
          "duration": 0.28846150000001103,
          "durationTicks": 96,
          "midi": 40,
          "name": "E2",
          "ticks": 64512,
          "time": 193.84612800000002,
          "velocity": 0.7559055118110236
        },
        {
          "duration": 0.28846150000001103,
          "durationTicks": 96,
          "midi": 47,
          "name": "B2",
          "ticks": 64512,
          "time": 193.84612800000002,
          "velocity": 0.7559055118110236
        },
        {
          "duration": 0.28846150000001103,
          "durationTicks": 96,
          "midi": 52,
          "name": "E3",
          "ticks": 64512,
          "time": 193.84612800000002,
          "velocity": 0.7559055118110236
        },
        {
          "duration": 0.28846150000001103,
          "durationTicks": 96,
          "midi": 59,
          "name": "B3",
          "ticks": 64512,
          "time": 193.84612800000002,
          "velocity": 0.7559055118110236
        },
        {
          "duration": 0.2884614999999826,
          "durationTicks": 96,
          "midi": 47,
          "name": "B2",
          "ticks": 64608,
          "time": 194.13458950000003,
          "velocity": 0.7559055118110236
        },
        {
          "duration": 0.2884614999999826,
          "durationTicks": 96,
          "midi": 54,
          "name": "F#3",
          "ticks": 64608,
          "time": 194.13458950000003,
          "velocity": 0.7559055118110236
        },
        {
          "duration": 0.2884614999999826,
          "durationTicks": 96,
          "midi": 59,
          "name": "B3",
          "ticks": 64608,
          "time": 194.13458950000003,
          "velocity": 0.7559055118110236
        },
        {
          "duration": 0.28846150000001103,
          "durationTicks": 96,
          "midi": 47,
          "name": "B2",
          "ticks": 64704,
          "time": 194.42305100000002,
          "velocity": 0.7559055118110236
        },
        {
          "duration": 0.28846150000001103,
          "durationTicks": 96,
          "midi": 54,
          "name": "F#3",
          "ticks": 64704,
          "time": 194.42305100000002,
          "velocity": 0.7559055118110236
        },
        {
          "duration": 0.28846150000001103,
          "durationTicks": 96,
          "midi": 59,
          "name": "B3",
          "ticks": 64704,
          "time": 194.42305100000002,
          "velocity": 0.7559055118110236
        },
        {
          "duration": 0.28846150000001103,
          "durationTicks": 96,
          "midi": 47,
          "name": "B2",
          "ticks": 64800,
          "time": 194.71151250000003,
          "velocity": 0.7559055118110236
        },
        {
          "duration": 0.28846150000001103,
          "durationTicks": 96,
          "midi": 54,
          "name": "F#3",
          "ticks": 64800,
          "time": 194.71151250000003,
          "velocity": 0.7559055118110236
        },
        {
          "duration": 0.28846150000001103,
          "durationTicks": 96,
          "midi": 59,
          "name": "B3",
          "ticks": 64800,
          "time": 194.71151250000003,
          "velocity": 0.7559055118110236
        },
        {
          "duration": 0.2884614999999826,
          "durationTicks": 96,
          "midi": 47,
          "name": "B2",
          "ticks": 64896,
          "time": 194.99997400000004,
          "velocity": 0.7559055118110236
        },
        {
          "duration": 0.2884614999999826,
          "durationTicks": 96,
          "midi": 54,
          "name": "F#3",
          "ticks": 64896,
          "time": 194.99997400000004,
          "velocity": 0.7559055118110236
        },
        {
          "duration": 0.2884614999999826,
          "durationTicks": 96,
          "midi": 59,
          "name": "B3",
          "ticks": 64896,
          "time": 194.99997400000004,
          "velocity": 0.7559055118110236
        },
        {
          "duration": 0.28846150000001103,
          "durationTicks": 96,
          "midi": 47,
          "name": "B2",
          "ticks": 64992,
          "time": 195.28843550000002,
          "velocity": 0.7559055118110236
        },
        {
          "duration": 0.28846150000001103,
          "durationTicks": 96,
          "midi": 54,
          "name": "F#3",
          "ticks": 64992,
          "time": 195.28843550000002,
          "velocity": 0.7559055118110236
        },
        {
          "duration": 0.28846150000001103,
          "durationTicks": 96,
          "midi": 59,
          "name": "B3",
          "ticks": 64992,
          "time": 195.28843550000002,
          "velocity": 0.7559055118110236
        },
        {
          "duration": 0.2884614999999826,
          "durationTicks": 96,
          "midi": 47,
          "name": "B2",
          "ticks": 65088,
          "time": 195.57689700000003,
          "velocity": 0.7559055118110236
        },
        {
          "duration": 0.2884614999999826,
          "durationTicks": 96,
          "midi": 54,
          "name": "F#3",
          "ticks": 65088,
          "time": 195.57689700000003,
          "velocity": 0.7559055118110236
        },
        {
          "duration": 0.2884614999999826,
          "durationTicks": 96,
          "midi": 59,
          "name": "B3",
          "ticks": 65088,
          "time": 195.57689700000003,
          "velocity": 0.7559055118110236
        },
        {
          "duration": 0.28846150000001103,
          "durationTicks": 96,
          "midi": 44,
          "name": "G#2",
          "ticks": 65184,
          "time": 195.8653585,
          "velocity": 0.7559055118110236
        },
        {
          "duration": 0.28846150000001103,
          "durationTicks": 96,
          "midi": 51,
          "name": "D#3",
          "ticks": 65184,
          "time": 195.8653585,
          "velocity": 0.7559055118110236
        },
        {
          "duration": 0.28846150000001103,
          "durationTicks": 96,
          "midi": 56,
          "name": "G#3",
          "ticks": 65184,
          "time": 195.8653585,
          "velocity": 0.7559055118110236
        },
        {
          "duration": 0.28846150000001103,
          "durationTicks": 96,
          "midi": 44,
          "name": "G#2",
          "ticks": 65280,
          "time": 196.15382000000002,
          "velocity": 0.7559055118110236
        },
        {
          "duration": 0.28846150000001103,
          "durationTicks": 96,
          "midi": 51,
          "name": "D#3",
          "ticks": 65280,
          "time": 196.15382000000002,
          "velocity": 0.7559055118110236
        },
        {
          "duration": 0.28846150000001103,
          "durationTicks": 96,
          "midi": 56,
          "name": "G#3",
          "ticks": 65280,
          "time": 196.15382000000002,
          "velocity": 0.7559055118110236
        },
        {
          "duration": 0.2884614999999826,
          "durationTicks": 96,
          "midi": 47,
          "name": "B2",
          "ticks": 65376,
          "time": 196.44228150000004,
          "velocity": 0.7559055118110236
        },
        {
          "duration": 0.2884614999999826,
          "durationTicks": 96,
          "midi": 54,
          "name": "F#3",
          "ticks": 65376,
          "time": 196.44228150000004,
          "velocity": 0.7559055118110236
        },
        {
          "duration": 0.2884614999999826,
          "durationTicks": 96,
          "midi": 59,
          "name": "B3",
          "ticks": 65376,
          "time": 196.44228150000004,
          "velocity": 0.7559055118110236
        },
        {
          "duration": 0.28846150000001103,
          "durationTicks": 96,
          "midi": 47,
          "name": "B2",
          "ticks": 65472,
          "time": 196.73074300000002,
          "velocity": 0.7559055118110236
        },
        {
          "duration": 0.28846150000001103,
          "durationTicks": 96,
          "midi": 54,
          "name": "F#3",
          "ticks": 65472,
          "time": 196.73074300000002,
          "velocity": 0.7559055118110236
        },
        {
          "duration": 0.28846150000001103,
          "durationTicks": 96,
          "midi": 59,
          "name": "B3",
          "ticks": 65472,
          "time": 196.73074300000002,
          "velocity": 0.7559055118110236
        },
        {
          "duration": 0.2884614999999826,
          "durationTicks": 96,
          "midi": 47,
          "name": "B2",
          "ticks": 65568,
          "time": 197.01920450000003,
          "velocity": 0.7559055118110236
        },
        {
          "duration": 0.2884614999999826,
          "durationTicks": 96,
          "midi": 54,
          "name": "F#3",
          "ticks": 65568,
          "time": 197.01920450000003,
          "velocity": 0.7559055118110236
        },
        {
          "duration": 0.2884614999999826,
          "durationTicks": 96,
          "midi": 59,
          "name": "B3",
          "ticks": 65568,
          "time": 197.01920450000003,
          "velocity": 0.7559055118110236
        },
        {
          "duration": 0.28846150000001103,
          "durationTicks": 96,
          "midi": 47,
          "name": "B2",
          "ticks": 65664,
          "time": 197.307666,
          "velocity": 0.7559055118110236
        },
        {
          "duration": 0.28846150000001103,
          "durationTicks": 96,
          "midi": 54,
          "name": "F#3",
          "ticks": 65664,
          "time": 197.307666,
          "velocity": 0.7559055118110236
        },
        {
          "duration": 0.28846150000001103,
          "durationTicks": 96,
          "midi": 59,
          "name": "B3",
          "ticks": 65664,
          "time": 197.307666,
          "velocity": 0.7559055118110236
        },
        {
          "duration": 0.28846150000001103,
          "durationTicks": 96,
          "midi": 47,
          "name": "B2",
          "ticks": 65760,
          "time": 197.59612750000002,
          "velocity": 0.7559055118110236
        },
        {
          "duration": 0.28846150000001103,
          "durationTicks": 96,
          "midi": 54,
          "name": "F#3",
          "ticks": 65760,
          "time": 197.59612750000002,
          "velocity": 0.7559055118110236
        },
        {
          "duration": 0.28846150000001103,
          "durationTicks": 96,
          "midi": 59,
          "name": "B3",
          "ticks": 65760,
          "time": 197.59612750000002,
          "velocity": 0.7559055118110236
        },
        {
          "duration": 0.2884614999999826,
          "durationTicks": 96,
          "midi": 47,
          "name": "B2",
          "ticks": 65856,
          "time": 197.88458900000003,
          "velocity": 0.7559055118110236
        },
        {
          "duration": 0.2884614999999826,
          "durationTicks": 96,
          "midi": 54,
          "name": "F#3",
          "ticks": 65856,
          "time": 197.88458900000003,
          "velocity": 0.7559055118110236
        },
        {
          "duration": 0.2884614999999826,
          "durationTicks": 96,
          "midi": 59,
          "name": "B3",
          "ticks": 65856,
          "time": 197.88458900000003,
          "velocity": 0.7559055118110236
        },
        {
          "duration": 0.28846150000001103,
          "durationTicks": 96,
          "midi": 44,
          "name": "G#2",
          "ticks": 65952,
          "time": 198.17305050000002,
          "velocity": 0.7559055118110236
        },
        {
          "duration": 0.28846150000001103,
          "durationTicks": 96,
          "midi": 51,
          "name": "D#3",
          "ticks": 65952,
          "time": 198.17305050000002,
          "velocity": 0.7559055118110236
        },
        {
          "duration": 0.28846150000001103,
          "durationTicks": 96,
          "midi": 56,
          "name": "G#3",
          "ticks": 65952,
          "time": 198.17305050000002,
          "velocity": 0.7559055118110236
        },
        {
          "duration": 0.28846150000001103,
          "durationTicks": 96,
          "midi": 44,
          "name": "G#2",
          "ticks": 66048,
          "time": 198.46151200000003,
          "velocity": 0.7559055118110236
        },
        {
          "duration": 0.28846150000001103,
          "durationTicks": 96,
          "midi": 51,
          "name": "D#3",
          "ticks": 66048,
          "time": 198.46151200000003,
          "velocity": 0.7559055118110236
        },
        {
          "duration": 0.28846150000001103,
          "durationTicks": 96,
          "midi": 56,
          "name": "G#3",
          "ticks": 66048,
          "time": 198.46151200000003,
          "velocity": 0.7559055118110236
        }
      ],
      "endOfTrackTicks": 66912
    },
    {
      "channel": 3,
      "controlChanges": {},
      "pitchBends": [],
      "instrument": {
        "family": "guitar",
        "number": 31,
        "name": "guitar harmonics"
      },
      "name": "",
      "notes": [
        {
          "duration": 0.28846150000001103,
          "durationTicks": 96,
          "midi": 59,
          "name": "B3",
          "ticks": 46560,
          "time": 139.9038275,
          "velocity": 0.7559055118110236
        },
        {
          "duration": 0.1442307499999913,
          "durationTicks": 48,
          "midi": 59,
          "name": "B3",
          "ticks": 46656,
          "time": 140.19228900000002,
          "velocity": 0.7559055118110236
        },
        {
          "duration": 0.28846150000001103,
          "durationTicks": 96,
          "midi": 59,
          "name": "B3",
          "ticks": 46704,
          "time": 140.33651975,
          "velocity": 0.7559055118110236
        },
        {
          "duration": 0.1442307499999913,
          "durationTicks": 48,
          "midi": 59,
          "name": "B3",
          "ticks": 46800,
          "time": 140.62498125000002,
          "velocity": 0.7559055118110236
        },
        {
          "duration": 0.14423075000001973,
          "durationTicks": 48,
          "midi": 59,
          "name": "B3",
          "ticks": 46848,
          "time": 140.769212,
          "velocity": 0.7559055118110236
        }
      ]
    },
    {
      "channel": 4,
      "controlChanges": {
        "10": [
          {
            "number": 10,
            "ticks": 0,
            "time": 0,
            "value": 0.5039370078740157
          }
        ]
      },
      "pitchBends": [],
      "instrument": {
        "family": "strings",
        "number": 42,
        "name": "cello"
      },
      "name": "TabIt MIDI - Track 5",
      "notes": [
        {
          "duration": 0.8653845000000011,
          "durationTicks": 288,
          "midi": 68,
          "name": "G#4",
          "ticks": 6240,
          "time": 18.749997500000003,
          "velocity": 0.905511811023622
        },
        {
          "duration": 0.28846150000000037,
          "durationTicks": 96,
          "midi": 69,
          "name": "A4",
          "ticks": 6528,
          "time": 19.615382000000004,
          "velocity": 0.905511811023622
        },
        {
          "duration": 0.8653844999999976,
          "durationTicks": 288,
          "midi": 68,
          "name": "G#4",
          "ticks": 6624,
          "time": 19.903843500000004,
          "velocity": 0.905511811023622
        },
        {
          "duration": 0.28846150000000037,
          "durationTicks": 96,
          "midi": 69,
          "name": "A4",
          "ticks": 6912,
          "time": 20.769228000000002,
          "velocity": 0.905511811023622
        },
        {
          "duration": 1.5865382500000003,
          "durationTicks": 528,
          "midi": 68,
          "name": "G#4",
          "ticks": 7008,
          "time": 21.057689500000002,
          "velocity": 0.905511811023622
        },
        {
          "duration": 0.28846150000000037,
          "durationTicks": 96,
          "midi": 68,
          "name": "G#4",
          "ticks": 7680,
          "time": 23.07692,
          "velocity": 0.905511811023622
        },
        {
          "duration": 0.8653845000000011,
          "durationTicks": 288,
          "midi": 68,
          "name": "G#4",
          "ticks": 7776,
          "time": 23.3653815,
          "velocity": 0.905511811023622
        },
        {
          "duration": 0.28846150000000037,
          "durationTicks": 96,
          "midi": 69,
          "name": "A4",
          "ticks": 8064,
          "time": 24.230766000000003,
          "velocity": 0.905511811023622
        },
        {
          "duration": 0.8653845000000011,
          "durationTicks": 288,
          "midi": 68,
          "name": "G#4",
          "ticks": 8160,
          "time": 24.519227500000003,
          "velocity": 0.905511811023622
        },
        {
          "duration": 0.28846150000000037,
          "durationTicks": 96,
          "midi": 69,
          "name": "A4",
          "ticks": 8448,
          "time": 25.384612000000004,
          "velocity": 0.905511811023622
        },
        {
          "duration": 0.28846150000000037,
          "durationTicks": 96,
          "midi": 68,
          "name": "G#4",
          "ticks": 8544,
          "time": 25.673073500000005,
          "velocity": 0.905511811023622
        },
        {
          "duration": 1.4423074999999983,
          "durationTicks": 480,
          "midi": 66,
          "name": "F#4",
          "ticks": 8640,
          "time": 25.961535000000005,
          "velocity": 0.905511811023622
        },
        {
          "duration": 0.8653845000000011,
          "durationTicks": 288,
          "midi": 68,
          "name": "G#4",
          "ticks": 9312,
          "time": 27.980765500000004,
          "velocity": 0.905511811023622
        },
        {
          "duration": 0.28846150000000037,
          "durationTicks": 96,
          "midi": 69,
          "name": "A4",
          "ticks": 9600,
          "time": 28.846150000000005,
          "velocity": 0.905511811023622
        },
        {
          "duration": 0.8653844999999976,
          "durationTicks": 288,
          "midi": 68,
          "name": "G#4",
          "ticks": 9696,
          "time": 29.134611500000005,
          "velocity": 0.905511811023622
        },
        {
          "duration": 0.28846150000000037,
          "durationTicks": 96,
          "midi": 69,
          "name": "A4",
          "ticks": 9984,
          "time": 29.999996000000003,
          "velocity": 0.905511811023622
        },
        {
          "duration": 1.5865382500000003,
          "durationTicks": 528,
          "midi": 68,
          "name": "G#4",
          "ticks": 10080,
          "time": 30.288457500000003,
          "velocity": 0.905511811023622
        },
        {
          "duration": 0.2884614999999968,
          "durationTicks": 96,
          "midi": 68,
          "name": "G#4",
          "ticks": 10752,
          "time": 32.307688000000006,
          "velocity": 0.905511811023622
        },
        {
          "duration": 0.8653845000000047,
          "durationTicks": 288,
          "midi": 68,
          "name": "G#4",
          "ticks": 10848,
          "time": 32.5961495,
          "velocity": 0.905511811023622
        },
        {
          "duration": 0.2884614999999968,
          "durationTicks": 96,
          "midi": 69,
          "name": "A4",
          "ticks": 11136,
          "time": 33.46153400000001,
          "velocity": 0.905511811023622
        },
        {
          "duration": 0.8653844999999976,
          "durationTicks": 288,
          "midi": 68,
          "name": "G#4",
          "ticks": 11232,
          "time": 33.749995500000004,
          "velocity": 0.905511811023622
        },
        {
          "duration": 0.2884615000000039,
          "durationTicks": 96,
          "midi": 69,
          "name": "A4",
          "ticks": 11520,
          "time": 34.61538,
          "velocity": 0.905511811023622
        },
        {
          "duration": 0.2884614999999968,
          "durationTicks": 96,
          "midi": 68,
          "name": "G#4",
          "ticks": 11616,
          "time": 34.903841500000006,
          "velocity": 0.905511811023622
        },
        {
          "duration": 1.4423075000000054,
          "durationTicks": 480,
          "midi": 66,
          "name": "F#4",
          "ticks": 11712,
          "time": 35.192303,
          "velocity": 0.905511811023622
        },
        {
          "duration": 0.5769229999999936,
          "durationTicks": 192,
          "midi": 69,
          "name": "A4",
          "ticks": 12192,
          "time": 36.63461050000001,
          "velocity": 0.905511811023622
        },
        {
          "duration": 2.307692000000003,
          "durationTicks": 768,
          "midi": 68,
          "name": "G#4",
          "ticks": 12384,
          "time": 37.2115335,
          "velocity": 0.905511811023622
        },
        {
          "duration": 0.2884615000000039,
          "durationTicks": 96,
          "midi": 49,
          "name": "C#3",
          "ticks": 15552,
          "time": 46.730763,
          "velocity": 0.905511811023622
        },
        {
          "duration": 0.2884614999999968,
          "durationTicks": 96,
          "midi": 61,
          "name": "C#4",
          "ticks": 15648,
          "time": 47.01922450000001,
          "velocity": 0.905511811023622
        },
        {
          "duration": 0.2884615000000039,
          "durationTicks": 96,
          "midi": 61,
          "name": "C#4",
          "ticks": 15744,
          "time": 47.307686000000004,
          "velocity": 0.905511811023622
        },
        {
          "duration": 0.2884614999999968,
          "durationTicks": 96,
          "midi": 61,
          "name": "C#4",
          "ticks": 15840,
          "time": 47.59614750000001,
          "velocity": 0.905511811023622
        },
        {
          "duration": 0.2884615000000039,
          "durationTicks": 96,
          "midi": 59,
          "name": "B3",
          "ticks": 15936,
          "time": 47.884609000000005,
          "velocity": 0.905511811023622
        },
        {
          "duration": 0.2884614999999968,
          "durationTicks": 96,
          "midi": 59,
          "name": "B3",
          "ticks": 16032,
          "time": 48.17307050000001,
          "velocity": 0.905511811023622
        },
        {
          "duration": 0.2884615000000039,
          "durationTicks": 96,
          "midi": 57,
          "name": "A3",
          "ticks": 16128,
          "time": 48.461532000000005,
          "velocity": 0.905511811023622
        },
        {
          "duration": 0.2884614999999968,
          "durationTicks": 96,
          "midi": 56,
          "name": "G#3",
          "ticks": 16224,
          "time": 48.74999350000001,
          "velocity": 0.905511811023622
        },
        {
          "duration": 0.2884614999999968,
          "durationTicks": 96,
          "midi": 56,
          "name": "G#3",
          "ticks": 16320,
          "time": 49.038455000000006,
          "velocity": 0.905511811023622
        },
        {
          "duration": 0.2884615000000039,
          "durationTicks": 96,
          "midi": 56,
          "name": "G#3",
          "ticks": 16416,
          "time": 49.3269165,
          "velocity": 0.905511811023622
        },
        {
          "duration": 0.2884614999999968,
          "durationTicks": 96,
          "midi": 57,
          "name": "A3",
          "ticks": 16512,
          "time": 49.61537800000001,
          "velocity": 0.905511811023622
        },
        {
          "duration": 0.2884615000000039,
          "durationTicks": 96,
          "midi": 56,
          "name": "G#3",
          "ticks": 16608,
          "time": 49.903839500000004,
          "velocity": 0.905511811023622
        },
        {
          "duration": 0.5769230000000007,
          "durationTicks": 192,
          "midi": 52,
          "name": "E3",
          "ticks": 16704,
          "time": 50.19230100000001,
          "velocity": 0.905511811023622
        },
        {
          "duration": 0.2884615000000039,
          "durationTicks": 96,
          "midi": 52,
          "name": "E3",
          "ticks": 17184,
          "time": 51.634608500000006,
          "velocity": 0.905511811023622
        },
        {
          "duration": 0.8653844999999976,
          "durationTicks": 288,
          "midi": 57,
          "name": "A3",
          "ticks": 17280,
          "time": 51.92307000000001,
          "velocity": 0.905511811023622
        },
        {
          "duration": 0.5769230000000007,
          "durationTicks": 192,
          "midi": 56,
          "name": "G#3",
          "ticks": 17568,
          "time": 52.78845450000001,
          "velocity": 0.905511811023622
        },
        {
          "duration": 0.2884614999999968,
          "durationTicks": 96,
          "midi": 54,
          "name": "F#3",
          "ticks": 17952,
          "time": 53.94230050000001,
          "velocity": 0.905511811023622
        },
        {
          "duration": 0.8653845000000047,
          "durationTicks": 288,
          "midi": 57,
          "name": "A3",
          "ticks": 18048,
          "time": 54.230762000000006,
          "velocity": 0.905511811023622
        },
        {
          "duration": 0.5769229999999936,
          "durationTicks": 192,
          "midi": 56,
          "name": "G#3",
          "ticks": 18336,
          "time": 55.09614650000001,
          "velocity": 0.905511811023622
        },
        {
          "duration": 0.2884614999999968,
          "durationTicks": 96,
          "midi": 49,
          "name": "C#3",
          "ticks": 18624,
          "time": 55.96153100000001,
          "velocity": 0.905511811023622
        },
        {
          "duration": 0.2884615000000039,
          "durationTicks": 96,
          "midi": 61,
          "name": "C#4",
          "ticks": 18720,
          "time": 56.249992500000005,
          "velocity": 0.905511811023622
        },
        {
          "duration": 0.2884614999999968,
          "durationTicks": 96,
          "midi": 61,
          "name": "C#4",
          "ticks": 18816,
          "time": 56.53845400000001,
          "velocity": 0.905511811023622
        },
        {
          "duration": 0.2884615000000039,
          "durationTicks": 96,
          "midi": 61,
          "name": "C#4",
          "ticks": 18912,
          "time": 56.826915500000005,
          "velocity": 0.905511811023622
        },
        {
          "duration": 0.2884614999999968,
          "durationTicks": 96,
          "midi": 59,
          "name": "B3",
          "ticks": 19008,
          "time": 57.11537700000001,
          "velocity": 0.905511811023622
        },
        {
          "duration": 0.2884615000000039,
          "durationTicks": 96,
          "midi": 59,
          "name": "B3",
          "ticks": 19104,
          "time": 57.403838500000006,
          "velocity": 0.905511811023622
        },
        {
          "duration": 0.2884614999999968,
          "durationTicks": 96,
          "midi": 57,
          "name": "A3",
          "ticks": 19200,
          "time": 57.69230000000001,
          "velocity": 0.905511811023622
        },
        {
          "duration": 0.2884615000000039,
          "durationTicks": 96,
          "midi": 56,
          "name": "G#3",
          "ticks": 19296,
          "time": 57.98076150000001,
          "velocity": 0.905511811023622
        },
        {
          "duration": 0.2884614999999968,
          "durationTicks": 96,
          "midi": 56,
          "name": "G#3",
          "ticks": 19392,
          "time": 58.26922300000001,
          "velocity": 0.905511811023622
        },
        {
          "duration": 0.2884614999999968,
          "durationTicks": 96,
          "midi": 56,
          "name": "G#3",
          "ticks": 19488,
          "time": 58.55768450000001,
          "velocity": 0.905511811023622
        },
        {
          "duration": 0.2884615000000039,
          "durationTicks": 96,
          "midi": 57,
          "name": "A3",
          "ticks": 19584,
          "time": 58.846146000000005,
          "velocity": 0.905511811023622
        },
        {
          "duration": 0.2884614999999968,
          "durationTicks": 96,
          "midi": 56,
          "name": "G#3",
          "ticks": 19680,
          "time": 59.13460750000001,
          "velocity": 0.905511811023622
        },
        {
          "duration": 0.8653845000000047,
          "durationTicks": 288,
          "midi": 52,
          "name": "E3",
          "ticks": 19776,
          "time": 59.423069000000005,
          "velocity": 0.905511811023622
        },
        {
          "duration": 0.2884614999999968,
          "durationTicks": 96,
          "midi": 52,
          "name": "E3",
          "ticks": 20256,
          "time": 60.86537650000001,
          "velocity": 0.905511811023622
        },
        {
          "duration": 0.8653844999999976,
          "durationTicks": 288,
          "midi": 57,
          "name": "A3",
          "ticks": 20352,
          "time": 61.15383800000001,
          "velocity": 0.905511811023622
        },
        {
          "duration": 0.5769230000000007,
          "durationTicks": 192,
          "midi": 56,
          "name": "G#3",
          "ticks": 20640,
          "time": 62.019222500000005,
          "velocity": 0.905511811023622
        },
        {
          "duration": 0.2884615000000039,
          "durationTicks": 96,
          "midi": 54,
          "name": "F#3",
          "ticks": 21024,
          "time": 63.17306850000001,
          "velocity": 0.905511811023622
        },
        {
          "duration": 0.8653845000000047,
          "durationTicks": 288,
          "midi": 57,
          "name": "A3",
          "ticks": 21120,
          "time": 63.46153000000001,
          "velocity": 0.905511811023622
        },
        {
          "duration": 1.009615249999996,
          "durationTicks": 336,
          "midi": 56,
          "name": "G#3",
          "ticks": 21408,
          "time": 64.32691450000002,
          "velocity": 0.905511811023622
        },
        {
          "duration": 0.2884614999999968,
          "durationTicks": 96,
          "midi": 56,
          "name": "G#3",
          "ticks": 21888,
          "time": 65.76922200000001,
          "velocity": 0.905511811023622
        },
        {
          "duration": 0.2884614999999968,
          "durationTicks": 96,
          "midi": 56,
          "name": "G#3",
          "ticks": 21984,
          "time": 66.05768350000001,
          "velocity": 0.905511811023622
        },
        {
          "duration": 0.2884614999999968,
          "durationTicks": 96,
          "midi": 54,
          "name": "F#3",
          "ticks": 22080,
          "time": 66.346145,
          "velocity": 0.905511811023622
        },
        {
          "duration": 0.28846150000001103,
          "durationTicks": 96,
          "midi": 54,
          "name": "F#3",
          "ticks": 22176,
          "time": 66.6346065,
          "velocity": 0.905511811023622
        },
        {
          "duration": 0.1442307499999913,
          "durationTicks": 48,
          "midi": 52,
          "name": "E3",
          "ticks": 22272,
          "time": 66.92306800000001,
          "velocity": 0.905511811023622
        },
        {
          "duration": 0.7211537499999991,
          "durationTicks": 240,
          "midi": 54,
          "name": "F#3",
          "ticks": 22320,
          "time": 67.06729875,
          "velocity": 0.905511811023622
        },
        {
          "duration": 0.28846150000001103,
          "durationTicks": 96,
          "midi": 54,
          "name": "F#3",
          "ticks": 22656,
          "time": 68.076914,
          "velocity": 0.905511811023622
        },
        {
          "duration": 0.2884614999999968,
          "durationTicks": 96,
          "midi": 54,
          "name": "F#3",
          "ticks": 22752,
          "time": 68.36537550000001,
          "velocity": 0.905511811023622
        },
        {
          "duration": 0.2884614999999968,
          "durationTicks": 96,
          "midi": 54,
          "name": "F#3",
          "ticks": 22848,
          "time": 68.65383700000001,
          "velocity": 0.905511811023622
        },
        {
          "duration": 0.2884614999999968,
          "durationTicks": 96,
          "midi": 56,
          "name": "G#3",
          "ticks": 22944,
          "time": 68.9422985,
          "velocity": 0.905511811023622
        },
        {
          "duration": 0.14423075000000551,
          "durationTicks": 48,
          "midi": 57,
          "name": "A3",
          "ticks": 23040,
          "time": 69.23076,
          "velocity": 0.905511811023622
        },
        {
          "duration": 0.2884614999999968,
          "durationTicks": 96,
          "midi": 57,
          "name": "A3",
          "ticks": 23088,
          "time": 69.37499075000001,
          "velocity": 0.905511811023622
        },
        {
          "duration": 4.47115325,
          "durationTicks": 1488,
          "midi": 56,
          "name": "G#3",
          "ticks": 23184,
          "time": 69.66345225,
          "velocity": 0.905511811023622
        },
        {
          "duration": 0.2884614999999968,
          "durationTicks": 96,
          "midi": 56,
          "name": "G#3",
          "ticks": 24960,
          "time": 74.99999000000001,
          "velocity": 0.905511811023622
        },
        {
          "duration": 0.2884614999999968,
          "durationTicks": 96,
          "midi": 56,
          "name": "G#3",
          "ticks": 25056,
          "time": 75.28845150000001,
          "velocity": 0.905511811023622
        },
        {
          "duration": 0.28846150000001103,
          "durationTicks": 96,
          "midi": 54,
          "name": "F#3",
          "ticks": 25152,
          "time": 75.576913,
          "velocity": 0.905511811023622
        },
        {
          "duration": 0.2884614999999968,
          "durationTicks": 96,
          "midi": 54,
          "name": "F#3",
          "ticks": 25248,
          "time": 75.86537450000002,
          "velocity": 0.905511811023622
        },
        {
          "duration": 0.1442307499999913,
          "durationTicks": 48,
          "midi": 52,
          "name": "E3",
          "ticks": 25344,
          "time": 76.15383600000001,
          "velocity": 0.905511811023622
        },
        {
          "duration": 0.7211537499999991,
          "durationTicks": 240,
          "midi": 54,
          "name": "F#3",
          "ticks": 25392,
          "time": 76.29806675,
          "velocity": 0.905511811023622
        },
        {
          "duration": 0.2884614999999968,
          "durationTicks": 96,
          "midi": 66,
          "name": "F#4",
          "ticks": 25728,
          "time": 77.30768200000001,
          "velocity": 0.905511811023622
        },
        {
          "duration": 0.5769229999999936,
          "durationTicks": 192,
          "midi": 66,
          "name": "F#4",
          "ticks": 25824,
          "time": 77.59614350000001,
          "velocity": 0.905511811023622
        },
        {
          "duration": 0.5769230000000078,
          "durationTicks": 192,
          "midi": 71,
          "name": "B4",
          "ticks": 26016,
          "time": 78.1730665,
          "velocity": 0.905511811023622
        },
        {
          "duration": 0.2884614999999968,
          "durationTicks": 96,
          "midi": 69,
          "name": "A4",
          "ticks": 26208,
          "time": 78.74998950000001,
          "velocity": 0.905511811023622
        },
        {
          "duration": 4.326922499999995,
          "durationTicks": 1440,
          "midi": 68,
          "name": "G#4",
          "ticks": 26304,
          "time": 79.03845100000001,
          "velocity": 0.905511811023622
        },
        {
          "duration": 0.8653845000000047,
          "durationTicks": 288,
          "midi": 68,
          "name": "G#4",
          "ticks": 27744,
          "time": 83.3653735,
          "velocity": 0.905511811023622
        },
        {
          "duration": 0.2884614999999968,
          "durationTicks": 96,
          "midi": 69,
          "name": "A4",
          "ticks": 28032,
          "time": 84.23075800000001,
          "velocity": 0.905511811023622
        },
        {
          "duration": 0.8653845000000047,
          "durationTicks": 288,
          "midi": 68,
          "name": "G#4",
          "ticks": 28128,
          "time": 84.5192195,
          "velocity": 0.905511811023622
        },
        {
          "duration": 0.2884614999999968,
          "durationTicks": 96,
          "midi": 69,
          "name": "A4",
          "ticks": 28416,
          "time": 85.38460400000001,
          "velocity": 0.905511811023622
        },
        {
          "duration": 1.7307690000000093,
          "durationTicks": 576,
          "midi": 68,
          "name": "G#4",
          "ticks": 28512,
          "time": 85.6730655,
          "velocity": 0.905511811023622
        },
        {
          "duration": 0.2884614999999968,
          "durationTicks": 96,
          "midi": 68,
          "name": "G#4",
          "ticks": 29184,
          "time": 87.69229600000001,
          "velocity": 0.905511811023622
        },
        {
          "duration": 0.8653845000000047,
          "durationTicks": 288,
          "midi": 68,
          "name": "G#4",
          "ticks": 29280,
          "time": 87.98075750000001,
          "velocity": 0.905511811023622
        },
        {
          "duration": 0.2884614999999968,
          "durationTicks": 96,
          "midi": 69,
          "name": "A4",
          "ticks": 29568,
          "time": 88.84614200000001,
          "velocity": 0.905511811023622
        },
        {
          "duration": 0.8653845000000047,
          "durationTicks": 288,
          "midi": 68,
          "name": "G#4",
          "ticks": 29664,
          "time": 89.13460350000001,
          "velocity": 0.905511811023622
        },
        {
          "duration": 0.2884614999999968,
          "durationTicks": 96,
          "midi": 69,
          "name": "A4",
          "ticks": 29952,
          "time": 89.99998800000002,
          "velocity": 0.905511811023622
        },
        {
          "duration": 0.2884614999999968,
          "durationTicks": 96,
          "midi": 68,
          "name": "G#4",
          "ticks": 30048,
          "time": 90.28844950000001,
          "velocity": 0.905511811023622
        },
        {
          "duration": 1.4423074999999983,
          "durationTicks": 480,
          "midi": 66,
          "name": "F#4",
          "ticks": 30144,
          "time": 90.57691100000001,
          "velocity": 0.905511811023622
        },
        {
          "duration": 0.8653844999999905,
          "durationTicks": 288,
          "midi": 68,
          "name": "G#4",
          "ticks": 30816,
          "time": 92.59614150000002,
          "velocity": 0.905511811023622
        },
        {
          "duration": 0.28846150000001103,
          "durationTicks": 96,
          "midi": 69,
          "name": "A4",
          "ticks": 31104,
          "time": 93.461526,
          "velocity": 0.905511811023622
        },
        {
          "duration": 0.8653844999999905,
          "durationTicks": 288,
          "midi": 68,
          "name": "G#4",
          "ticks": 31200,
          "time": 93.74998750000002,
          "velocity": 0.905511811023622
        },
        {
          "duration": 0.28846150000001103,
          "durationTicks": 96,
          "midi": 69,
          "name": "A4",
          "ticks": 31488,
          "time": 94.61537200000001,
          "velocity": 0.905511811023622
        },
        {
          "duration": 1.5865382499999896,
          "durationTicks": 528,
          "midi": 68,
          "name": "G#4",
          "ticks": 31584,
          "time": 94.90383350000002,
          "velocity": 0.905511811023622
        },
        {
          "duration": 0.2884614999999968,
          "durationTicks": 96,
          "midi": 68,
          "name": "G#4",
          "ticks": 32256,
          "time": 96.92306400000001,
          "velocity": 0.905511811023622
        },
        {
          "duration": 0.8653845000000047,
          "durationTicks": 288,
          "midi": 68,
          "name": "G#4",
          "ticks": 32352,
          "time": 97.21152550000001,
          "velocity": 0.905511811023622
        },
        {
          "duration": 0.2884614999999968,
          "durationTicks": 96,
          "midi": 69,
          "name": "A4",
          "ticks": 32640,
          "time": 98.07691000000001,
          "velocity": 0.905511811023622
        },
        {
          "duration": 0.8653845000000047,
          "durationTicks": 288,
          "midi": 68,
          "name": "G#4",
          "ticks": 32736,
          "time": 98.36537150000001,
          "velocity": 0.905511811023622
        },
        {
          "duration": 0.2884614999999968,
          "durationTicks": 96,
          "midi": 69,
          "name": "A4",
          "ticks": 33024,
          "time": 99.23075600000001,
          "velocity": 0.905511811023622
        },
        {
          "duration": 0.2884614999999968,
          "durationTicks": 96,
          "midi": 68,
          "name": "G#4",
          "ticks": 33120,
          "time": 99.51921750000001,
          "velocity": 0.905511811023622
        },
        {
          "duration": 2.019230500000006,
          "durationTicks": 672,
          "midi": 66,
          "name": "F#4",
          "ticks": 33216,
          "time": 99.80767900000001,
          "velocity": 0.905511811023622
        },
        {
          "duration": 0.2884614999999968,
          "durationTicks": 96,
          "midi": 56,
          "name": "G#3",
          "ticks": 33984,
          "time": 102.11537100000001,
          "velocity": 0.905511811023622
        },
        {
          "duration": 0.28846150000001103,
          "durationTicks": 96,
          "midi": 64,
          "name": "E4",
          "ticks": 34080,
          "time": 102.40383250000001,
          "velocity": 0.905511811023622
        },
        {
          "duration": 0.2884614999999968,
          "durationTicks": 96,
          "midi": 64,
          "name": "E4",
          "ticks": 34176,
          "time": 102.69229400000002,
          "velocity": 0.905511811023622
        },
        {
          "duration": 0.2884614999999968,
          "durationTicks": 96,
          "midi": 64,
          "name": "E4",
          "ticks": 34272,
          "time": 102.98075550000001,
          "velocity": 0.905511811023622
        },
        {
          "duration": 0.2884614999999968,
          "durationTicks": 96,
          "midi": 63,
          "name": "D#4",
          "ticks": 34368,
          "time": 103.26921700000001,
          "velocity": 0.905511811023622
        },
        {
          "duration": 0.28846150000001103,
          "durationTicks": 96,
          "midi": 63,
          "name": "D#4",
          "ticks": 34464,
          "time": 103.55767850000001,
          "velocity": 0.905511811023622
        },
        {
          "duration": 0.2884614999999968,
          "durationTicks": 96,
          "midi": 61,
          "name": "C#4",
          "ticks": 34560,
          "time": 103.84614000000002,
          "velocity": 0.905511811023622
        },
        {
          "duration": 0.2884614999999968,
          "durationTicks": 96,
          "midi": 59,
          "name": "B3",
          "ticks": 34656,
          "time": 104.13460150000002,
          "velocity": 0.905511811023622
        },
        {
          "duration": 0.2884614999999968,
          "durationTicks": 96,
          "midi": 59,
          "name": "B3",
          "ticks": 34752,
          "time": 104.42306300000001,
          "velocity": 0.905511811023622
        },
        {
          "duration": 0.2884614999999968,
          "durationTicks": 96,
          "midi": 59,
          "name": "B3",
          "ticks": 34848,
          "time": 104.71152450000001,
          "velocity": 0.905511811023622
        },
        {
          "duration": 0.28846150000001103,
          "durationTicks": 96,
          "midi": 61,
          "name": "C#4",
          "ticks": 34944,
          "time": 104.999986,
          "velocity": 0.905511811023622
        },
        {
          "duration": 0.2884614999999968,
          "durationTicks": 96,
          "midi": 59,
          "name": "B3",
          "ticks": 35040,
          "time": 105.28844750000002,
          "velocity": 0.905511811023622
        },
        {
          "duration": 0.8653845000000047,
          "durationTicks": 288,
          "midi": 56,
          "name": "G#3",
          "ticks": 35136,
          "time": 105.57690900000001,
          "velocity": 0.905511811023622
        },
        {
          "duration": 0.2884614999999968,
          "durationTicks": 96,
          "midi": 52,
          "name": "E3",
          "ticks": 35616,
          "time": 107.01921650000001,
          "velocity": 0.905511811023622
        },
        {
          "duration": 0.8653845000000047,
          "durationTicks": 288,
          "midi": 57,
          "name": "A3",
          "ticks": 35712,
          "time": 107.30767800000001,
          "velocity": 0.905511811023622
        },
        {
          "duration": 0.5769229999999936,
          "durationTicks": 192,
          "midi": 56,
          "name": "G#3",
          "ticks": 36000,
          "time": 108.17306250000001,
          "velocity": 0.905511811023622
        },
        {
          "duration": 0.2884614999999968,
          "durationTicks": 96,
          "midi": 54,
          "name": "F#3",
          "ticks": 36384,
          "time": 109.32690850000002,
          "velocity": 0.905511811023622
        },
        {
          "duration": 0.8653845000000047,
          "durationTicks": 288,
          "midi": 57,
          "name": "A3",
          "ticks": 36480,
          "time": 109.61537000000001,
          "velocity": 0.905511811023622
        },
        {
          "duration": 0.8653844999999905,
          "durationTicks": 288,
          "midi": 56,
          "name": "G#3",
          "ticks": 36768,
          "time": 110.48075450000002,
          "velocity": 0.905511811023622
        },
        {
          "duration": 0.28846150000001103,
          "durationTicks": 96,
          "midi": 56,
          "name": "G#3",
          "ticks": 37056,
          "time": 111.34613900000001,
          "velocity": 0.905511811023622
        },
        {
          "duration": 0.2884614999999968,
          "durationTicks": 96,
          "midi": 61,
          "name": "C#4",
          "ticks": 37152,
          "time": 111.63460050000002,
          "velocity": 0.905511811023622
        },
        {
          "duration": 0.2884614999999968,
          "durationTicks": 96,
          "midi": 61,
          "name": "C#4",
          "ticks": 37248,
          "time": 111.92306200000002,
          "velocity": 0.905511811023622
        },
        {
          "duration": 0.2884614999999968,
          "durationTicks": 96,
          "midi": 61,
          "name": "C#4",
          "ticks": 37344,
          "time": 112.21152350000001,
          "velocity": 0.905511811023622
        },
        {
          "duration": 0.28846150000001103,
          "durationTicks": 96,
          "midi": 59,
          "name": "B3",
          "ticks": 37440,
          "time": 112.49998500000001,
          "velocity": 0.905511811023622
        },
        {
          "duration": 0.2884614999999968,
          "durationTicks": 96,
          "midi": 59,
          "name": "B3",
          "ticks": 37536,
          "time": 112.78844650000002,
          "velocity": 0.905511811023622
        },
        {
          "duration": 0.2884614999999968,
          "durationTicks": 96,
          "midi": 57,
          "name": "A3",
          "ticks": 37632,
          "time": 113.07690800000002,
          "velocity": 0.905511811023622
        },
        {
          "duration": 0.2884614999999968,
          "durationTicks": 96,
          "midi": 56,
          "name": "G#3",
          "ticks": 37728,
          "time": 113.36536950000001,
          "velocity": 0.905511811023622
        },
        {
          "duration": 0.2884614999999968,
          "durationTicks": 96,
          "midi": 56,
          "name": "G#3",
          "ticks": 37824,
          "time": 113.65383100000001,
          "velocity": 0.905511811023622
        },
        {
          "duration": 0.28846150000001103,
          "durationTicks": 96,
          "midi": 56,
          "name": "G#3",
          "ticks": 37920,
          "time": 113.94229250000001,
          "velocity": 0.905511811023622
        },
        {
          "duration": 0.2884614999999968,
          "durationTicks": 96,
          "midi": 57,
          "name": "A3",
          "ticks": 38016,
          "time": 114.23075400000002,
          "velocity": 0.905511811023622
        },
        {
          "duration": 0.2884614999999968,
          "durationTicks": 96,
          "midi": 56,
          "name": "G#3",
          "ticks": 38112,
          "time": 114.51921550000002,
          "velocity": 0.905511811023622
        },
        {
          "duration": 0.8653845000000047,
          "durationTicks": 288,
          "midi": 52,
          "name": "E3",
          "ticks": 38208,
          "time": 114.80767700000001,
          "velocity": 0.905511811023622
        },
        {
          "duration": 0.28846150000001103,
          "durationTicks": 96,
          "midi": 52,
          "name": "E3",
          "ticks": 38688,
          "time": 116.24998450000001,
          "velocity": 0.905511811023622
        },
        {
          "duration": 0.8653844999999905,
          "durationTicks": 288,
          "midi": 57,
          "name": "A3",
          "ticks": 38784,
          "time": 116.53844600000002,
          "velocity": 0.905511811023622
        },
        {
          "duration": 0.5769230000000078,
          "durationTicks": 192,
          "midi": 56,
          "name": "G#3",
          "ticks": 39072,
          "time": 117.40383050000001,
          "velocity": 0.905511811023622
        },
        {
          "duration": 0.2884614999999968,
          "durationTicks": 96,
          "midi": 54,
          "name": "F#3",
          "ticks": 39360,
          "time": 118.26921500000002,
          "velocity": 0.905511811023622
        },
        {
          "duration": 0.2884614999999968,
          "durationTicks": 96,
          "midi": 54,
          "name": "F#3",
          "ticks": 39456,
          "time": 118.55767650000001,
          "velocity": 0.905511811023622
        },
        {
          "duration": 0.8653845000000047,
          "durationTicks": 288,
          "midi": 57,
          "name": "A3",
          "ticks": 39552,
          "time": 118.84613800000001,
          "velocity": 0.905511811023622
        },
        {
          "duration": 1.009615249999996,
          "durationTicks": 336,
          "midi": 56,
          "name": "G#3",
          "ticks": 39840,
          "time": 119.71152250000002,
          "velocity": 0.905511811023622
        },
        {
          "duration": 0.2884614999999968,
          "durationTicks": 96,
          "midi": 56,
          "name": "G#3",
          "ticks": 40320,
          "time": 121.15383000000001,
          "velocity": 0.905511811023622
        },
        {
          "duration": 0.28846150000001103,
          "durationTicks": 96,
          "midi": 56,
          "name": "G#3",
          "ticks": 40416,
          "time": 121.44229150000001,
          "velocity": 0.905511811023622
        },
        {
          "duration": 0.2884614999999968,
          "durationTicks": 96,
          "midi": 54,
          "name": "F#3",
          "ticks": 40512,
          "time": 121.73075300000002,
          "velocity": 0.905511811023622
        },
        {
          "duration": 0.2884614999999968,
          "durationTicks": 96,
          "midi": 54,
          "name": "F#3",
          "ticks": 40608,
          "time": 122.01921450000002,
          "velocity": 0.905511811023622
        },
        {
          "duration": 0.14423075000000551,
          "durationTicks": 48,
          "midi": 52,
          "name": "E3",
          "ticks": 40704,
          "time": 122.30767600000001,
          "velocity": 0.905511811023622
        },
        {
          "duration": 0.7211537499999991,
          "durationTicks": 240,
          "midi": 54,
          "name": "F#3",
          "ticks": 40752,
          "time": 122.45190675000002,
          "velocity": 0.905511811023622
        },
        {
          "duration": 0.2884614999999968,
          "durationTicks": 96,
          "midi": 54,
          "name": "F#3",
          "ticks": 41088,
          "time": 123.46152200000002,
          "velocity": 0.905511811023622
        },
        {
          "duration": 0.2884614999999968,
          "durationTicks": 96,
          "midi": 54,
          "name": "F#3",
          "ticks": 41184,
          "time": 123.74998350000001,
          "velocity": 0.905511811023622
        },
        {
          "duration": 0.28846150000001103,
          "durationTicks": 96,
          "midi": 54,
          "name": "F#3",
          "ticks": 41280,
          "time": 124.03844500000001,
          "velocity": 0.905511811023622
        },
        {
          "duration": 0.2884614999999968,
          "durationTicks": 96,
          "midi": 56,
          "name": "G#3",
          "ticks": 41376,
          "time": 124.32690650000002,
          "velocity": 0.905511811023622
        },
        {
          "duration": 0.1442307499999913,
          "durationTicks": 48,
          "midi": 57,
          "name": "A3",
          "ticks": 41472,
          "time": 124.61536800000002,
          "velocity": 0.905511811023622
        },
        {
          "duration": 0.28846150000001103,
          "durationTicks": 96,
          "midi": 57,
          "name": "A3",
          "ticks": 41520,
          "time": 124.75959875000001,
          "velocity": 0.905511811023622
        },
        {
          "duration": 4.471153249999986,
          "durationTicks": 1488,
          "midi": 56,
          "name": "G#3",
          "ticks": 41616,
          "time": 125.04806025000002,
          "velocity": 0.905511811023622
        },
        {
          "duration": 0.28846150000001103,
          "durationTicks": 96,
          "midi": 56,
          "name": "G#3",
          "ticks": 43392,
          "time": 130.384598,
          "velocity": 0.905511811023622
        },
        {
          "duration": 0.2884614999999826,
          "durationTicks": 96,
          "midi": 56,
          "name": "G#3",
          "ticks": 43488,
          "time": 130.67305950000002,
          "velocity": 0.905511811023622
        },
        {
          "duration": 0.28846150000001103,
          "durationTicks": 96,
          "midi": 54,
          "name": "F#3",
          "ticks": 43584,
          "time": 130.961521,
          "velocity": 0.905511811023622
        },
        {
          "duration": 0.28846150000001103,
          "durationTicks": 96,
          "midi": 54,
          "name": "F#3",
          "ticks": 43680,
          "time": 131.24998250000002,
          "velocity": 0.905511811023622
        },
        {
          "duration": 0.1442307499999913,
          "durationTicks": 48,
          "midi": 52,
          "name": "E3",
          "ticks": 43776,
          "time": 131.53844400000003,
          "velocity": 0.905511811023622
        },
        {
          "duration": 0.7211537499999849,
          "durationTicks": 240,
          "midi": 54,
          "name": "F#3",
          "ticks": 43824,
          "time": 131.68267475000002,
          "velocity": 0.905511811023622
        },
        {
          "duration": 0.28846150000001103,
          "durationTicks": 96,
          "midi": 66,
          "name": "F#4",
          "ticks": 44160,
          "time": 132.69229,
          "velocity": 0.905511811023622
        },
        {
          "duration": 0.5769229999999936,
          "durationTicks": 192,
          "midi": 66,
          "name": "F#4",
          "ticks": 44256,
          "time": 132.98075150000003,
          "velocity": 0.905511811023622
        },
        {
          "duration": 0.5769229999999936,
          "durationTicks": 192,
          "midi": 71,
          "name": "B4",
          "ticks": 44448,
          "time": 133.55767450000002,
          "velocity": 0.905511811023622
        },
        {
          "duration": 0.28846150000001103,
          "durationTicks": 96,
          "midi": 69,
          "name": "A4",
          "ticks": 44640,
          "time": 134.1345975,
          "velocity": 0.905511811023622
        },
        {
          "duration": 6.2019222499999955,
          "durationTicks": 2064,
          "midi": 68,
          "name": "G#4",
          "ticks": 44736,
          "time": 134.42305900000002,
          "velocity": 0.905511811023622
        },
        {
          "duration": 0.8653845000000047,
          "durationTicks": 288,
          "midi": 68,
          "name": "G#4",
          "ticks": 46944,
          "time": 141.05767350000002,
          "velocity": 0.905511811023622
        },
        {
          "duration": 0.2884614999999826,
          "durationTicks": 96,
          "midi": 69,
          "name": "A4",
          "ticks": 47232,
          "time": 141.92305800000003,
          "velocity": 0.905511811023622
        },
        {
          "duration": 0.8653845000000047,
          "durationTicks": 288,
          "midi": 68,
          "name": "G#4",
          "ticks": 47328,
          "time": 142.2115195,
          "velocity": 0.905511811023622
        },
        {
          "duration": 0.28846150000001103,
          "durationTicks": 96,
          "midi": 69,
          "name": "A4",
          "ticks": 47616,
          "time": 143.076904,
          "velocity": 0.905511811023622
        },
        {
          "duration": 1.730768999999981,
          "durationTicks": 576,
          "midi": 68,
          "name": "G#4",
          "ticks": 47712,
          "time": 143.36536550000002,
          "velocity": 0.905511811023622
        },
        {
          "duration": 0.28846150000001103,
          "durationTicks": 96,
          "midi": 68,
          "name": "G#4",
          "ticks": 48384,
          "time": 145.38459600000002,
          "velocity": 0.905511811023622
        },
        {
          "duration": 0.8653845000000047,
          "durationTicks": 288,
          "midi": 68,
          "name": "G#4",
          "ticks": 48480,
          "time": 145.67305750000003,
          "velocity": 0.905511811023622
        },
        {
          "duration": 0.2884614999999826,
          "durationTicks": 96,
          "midi": 69,
          "name": "A4",
          "ticks": 48768,
          "time": 146.53844200000003,
          "velocity": 0.905511811023622
        },
        {
          "duration": 0.8653845000000047,
          "durationTicks": 288,
          "midi": 68,
          "name": "G#4",
          "ticks": 48864,
          "time": 146.82690350000001,
          "velocity": 0.905511811023622
        },
        {
          "duration": 0.28846150000001103,
          "durationTicks": 96,
          "midi": 69,
          "name": "A4",
          "ticks": 49152,
          "time": 147.69228800000002,
          "velocity": 0.905511811023622
        },
        {
          "duration": 0.2884614999999826,
          "durationTicks": 96,
          "midi": 68,
          "name": "G#4",
          "ticks": 49248,
          "time": 147.98074950000003,
          "velocity": 0.905511811023622
        },
        {
          "duration": 1.4423074999999983,
          "durationTicks": 480,
          "midi": 66,
          "name": "F#4",
          "ticks": 49344,
          "time": 148.269211,
          "velocity": 0.905511811023622
        },
        {
          "duration": 0.8653844999999762,
          "durationTicks": 288,
          "midi": 68,
          "name": "G#4",
          "ticks": 50016,
          "time": 150.28844150000003,
          "velocity": 0.905511811023622
        },
        {
          "duration": 0.28846150000001103,
          "durationTicks": 96,
          "midi": 69,
          "name": "A4",
          "ticks": 50304,
          "time": 151.153826,
          "velocity": 0.905511811023622
        },
        {
          "duration": 0.8653845000000047,
          "durationTicks": 288,
          "midi": 68,
          "name": "G#4",
          "ticks": 50400,
          "time": 151.44228750000002,
          "velocity": 0.905511811023622
        },
        {
          "duration": 0.2884614999999826,
          "durationTicks": 96,
          "midi": 69,
          "name": "A4",
          "ticks": 50688,
          "time": 152.30767200000003,
          "velocity": 0.905511811023622
        },
        {
          "duration": 1.586538250000018,
          "durationTicks": 528,
          "midi": 68,
          "name": "G#4",
          "ticks": 50784,
          "time": 152.5961335,
          "velocity": 0.905511811023622
        },
        {
          "duration": 0.2884614999999826,
          "durationTicks": 96,
          "midi": 68,
          "name": "G#4",
          "ticks": 51456,
          "time": 154.61536400000003,
          "velocity": 0.905511811023622
        },
        {
          "duration": 0.8653845000000047,
          "durationTicks": 288,
          "midi": 68,
          "name": "G#4",
          "ticks": 51552,
          "time": 154.9038255,
          "velocity": 0.905511811023622
        },
        {
          "duration": 0.28846150000001103,
          "durationTicks": 96,
          "midi": 69,
          "name": "A4",
          "ticks": 51840,
          "time": 155.76921000000002,
          "velocity": 0.905511811023622
        },
        {
          "duration": 0.8653845000000047,
          "durationTicks": 288,
          "midi": 68,
          "name": "G#4",
          "ticks": 51936,
          "time": 156.05767150000003,
          "velocity": 0.905511811023622
        },
        {
          "duration": 0.2884614999999826,
          "durationTicks": 96,
          "midi": 69,
          "name": "A4",
          "ticks": 52224,
          "time": 156.92305600000003,
          "velocity": 0.905511811023622
        },
        {
          "duration": 0.28846150000001103,
          "durationTicks": 96,
          "midi": 68,
          "name": "G#4",
          "ticks": 52320,
          "time": 157.2115175,
          "velocity": 0.905511811023622
        },
        {
          "duration": 1.7307690000000093,
          "durationTicks": 576,
          "midi": 66,
          "name": "F#4",
          "ticks": 52416,
          "time": 157.49997900000002,
          "velocity": 0.905511811023622
        },
        {
          "duration": 0.8653845000000047,
          "durationTicks": 288,
          "midi": 68,
          "name": "G#4",
          "ticks": 53088,
          "time": 159.51920950000002,
          "velocity": 0.905511811023622
        },
        {
          "duration": 0.28846150000001103,
          "durationTicks": 96,
          "midi": 69,
          "name": "A4",
          "ticks": 53376,
          "time": 160.38459400000002,
          "velocity": 0.905511811023622
        },
        {
          "duration": 0.8653844999999762,
          "durationTicks": 288,
          "midi": 68,
          "name": "G#4",
          "ticks": 53472,
          "time": 160.67305550000003,
          "velocity": 0.905511811023622
        },
        {
          "duration": 0.28846150000001103,
          "durationTicks": 96,
          "midi": 69,
          "name": "A4",
          "ticks": 53760,
          "time": 161.53844,
          "velocity": 0.905511811023622
        },
        {
          "duration": 1.7307690000000093,
          "durationTicks": 576,
          "midi": 68,
          "name": "G#4",
          "ticks": 53856,
          "time": 161.82690150000002,
          "velocity": 0.905511811023622
        },
        {
          "duration": 0.28846150000001103,
          "durationTicks": 96,
          "midi": 68,
          "name": "G#4",
          "ticks": 54528,
          "time": 163.846132,
          "velocity": 0.905511811023622
        },
        {
          "duration": 0.8653845000000047,
          "durationTicks": 288,
          "midi": 68,
          "name": "G#4",
          "ticks": 54624,
          "time": 164.13459350000002,
          "velocity": 0.905511811023622
        },
        {
          "duration": 0.2884614999999826,
          "durationTicks": 96,
          "midi": 69,
          "name": "A4",
          "ticks": 54912,
          "time": 164.99997800000003,
          "velocity": 0.905511811023622
        },
        {
          "duration": 0.8653845000000047,
          "durationTicks": 288,
          "midi": 68,
          "name": "G#4",
          "ticks": 55008,
          "time": 165.2884395,
          "velocity": 0.905511811023622
        },
        {
          "duration": 0.28846150000001103,
          "durationTicks": 96,
          "midi": 69,
          "name": "A4",
          "ticks": 55296,
          "time": 166.15382400000001,
          "velocity": 0.905511811023622
        },
        {
          "duration": 0.2884614999999826,
          "durationTicks": 96,
          "midi": 68,
          "name": "G#4",
          "ticks": 55392,
          "time": 166.44228550000003,
          "velocity": 0.905511811023622
        },
        {
          "duration": 1.4423075000000267,
          "durationTicks": 480,
          "midi": 66,
          "name": "F#4",
          "ticks": 55488,
          "time": 166.730747,
          "velocity": 0.905511811023622
        },
        {
          "duration": 0.8653845000000047,
          "durationTicks": 288,
          "midi": 68,
          "name": "G#4",
          "ticks": 56160,
          "time": 168.74997750000003,
          "velocity": 0.905511811023622
        },
        {
          "duration": 0.2884614999999826,
          "durationTicks": 96,
          "midi": 69,
          "name": "A4",
          "ticks": 56448,
          "time": 169.61536200000003,
          "velocity": 0.905511811023622
        },
        {
          "duration": 0.8653845000000047,
          "durationTicks": 288,
          "midi": 68,
          "name": "G#4",
          "ticks": 56544,
          "time": 169.90382350000002,
          "velocity": 0.905511811023622
        },
        {
          "duration": 0.28846150000001103,
          "durationTicks": 96,
          "midi": 69,
          "name": "A4",
          "ticks": 56832,
          "time": 170.76920800000002,
          "velocity": 0.905511811023622
        },
        {
          "duration": 1.5865382499999896,
          "durationTicks": 528,
          "midi": 68,
          "name": "G#4",
          "ticks": 56928,
          "time": 171.05766950000003,
          "velocity": 0.905511811023622
        },
        {
          "duration": 0.28846150000001103,
          "durationTicks": 96,
          "midi": 68,
          "name": "G#4",
          "ticks": 57600,
          "time": 173.07690000000002,
          "velocity": 0.905511811023622
        },
        {
          "duration": 0.8653844999999762,
          "durationTicks": 288,
          "midi": 68,
          "name": "G#4",
          "ticks": 57696,
          "time": 173.36536150000003,
          "velocity": 0.905511811023622
        },
        {
          "duration": 1.1538460000000157,
          "durationTicks": 384,
          "midi": 68,
          "name": "G#4",
          "ticks": 57984,
          "time": 174.230746,
          "velocity": 0.905511811023622
        },
        {
          "duration": 0.2884614999999826,
          "durationTicks": 96,
          "midi": 68,
          "name": "G#4",
          "ticks": 58368,
          "time": 175.38459200000003,
          "velocity": 0.905511811023622
        },
        {
          "duration": 0.8653845000000047,
          "durationTicks": 288,
          "midi": 68,
          "name": "G#4",
          "ticks": 58464,
          "time": 175.6730535,
          "velocity": 0.905511811023622
        },
        {
          "duration": 0.28846150000001103,
          "durationTicks": 96,
          "midi": 69,
          "name": "A4",
          "ticks": 58752,
          "time": 176.538438,
          "velocity": 0.905511811023622
        },
        {
          "duration": 0.8653845000000047,
          "durationTicks": 288,
          "midi": 68,
          "name": "G#4",
          "ticks": 58848,
          "time": 176.82689950000002,
          "velocity": 0.905511811023622
        },
        {
          "duration": 0.2884614999999826,
          "durationTicks": 96,
          "midi": 69,
          "name": "A4",
          "ticks": 59136,
          "time": 177.69228400000003,
          "velocity": 0.905511811023622
        },
        {
          "duration": 4.038461000000012,
          "durationTicks": 1344,
          "midi": 68,
          "name": "G#4",
          "ticks": 59232,
          "time": 177.9807455,
          "velocity": 0.905511811023622
        },
        {
          "duration": 0.28846150000001103,
          "durationTicks": 96,
          "midi": 49,
          "name": "C#3",
          "ticks": 59328,
          "time": 178.26920700000002,
          "velocity": 0.7637795275590551
        },
        {
          "duration": 0.2884614999999826,
          "durationTicks": 96,
          "midi": 61,
          "name": "C#4",
          "ticks": 59424,
          "time": 178.55766850000003,
          "velocity": 0.7637795275590551
        },
        {
          "duration": 0.28846150000001103,
          "durationTicks": 96,
          "midi": 61,
          "name": "C#4",
          "ticks": 59520,
          "time": 178.84613000000002,
          "velocity": 0.7637795275590551
        },
        {
          "duration": 0.2884614999999826,
          "durationTicks": 96,
          "midi": 61,
          "name": "C#4",
          "ticks": 59616,
          "time": 179.13459150000003,
          "velocity": 0.7637795275590551
        },
        {
          "duration": 0.28846150000001103,
          "durationTicks": 96,
          "midi": 59,
          "name": "B3",
          "ticks": 59712,
          "time": 179.423053,
          "velocity": 0.7637795275590551
        },
        {
          "duration": 0.28846150000001103,
          "durationTicks": 96,
          "midi": 59,
          "name": "B3",
          "ticks": 59808,
          "time": 179.71151450000002,
          "velocity": 0.7637795275590551
        },
        {
          "duration": 0.2884614999999826,
          "durationTicks": 96,
          "midi": 57,
          "name": "A3",
          "ticks": 59904,
          "time": 179.99997600000003,
          "velocity": 0.7637795275590551
        },
        {
          "duration": 0.28846150000001103,
          "durationTicks": 96,
          "midi": 56,
          "name": "G#3",
          "ticks": 60000,
          "time": 180.28843750000001,
          "velocity": 0.7637795275590551
        },
        {
          "duration": 0.28846150000001103,
          "durationTicks": 96,
          "midi": 56,
          "name": "G#3",
          "ticks": 60096,
          "time": 180.57689900000003,
          "velocity": 0.7637795275590551
        },
        {
          "duration": 0.2884614999999826,
          "durationTicks": 96,
          "midi": 56,
          "name": "G#3",
          "ticks": 60192,
          "time": 180.86536050000004,
          "velocity": 0.7637795275590551
        },
        {
          "duration": 0.28846150000001103,
          "durationTicks": 96,
          "midi": 57,
          "name": "A3",
          "ticks": 60288,
          "time": 181.15382200000002,
          "velocity": 0.7637795275590551
        },
        {
          "duration": 0.2884614999999826,
          "durationTicks": 96,
          "midi": 56,
          "name": "G#3",
          "ticks": 60384,
          "time": 181.44228350000003,
          "velocity": 0.7637795275590551
        },
        {
          "duration": 0.5769230000000221,
          "durationTicks": 192,
          "midi": 52,
          "name": "E3",
          "ticks": 60480,
          "time": 181.730745,
          "velocity": 0.7637795275590551
        },
        {
          "duration": 0.28846150000001103,
          "durationTicks": 96,
          "midi": 54,
          "name": "F#3",
          "ticks": 60960,
          "time": 183.1730525,
          "velocity": 0.7637795275590551
        },
        {
          "duration": 0.8653845000000047,
          "durationTicks": 288,
          "midi": 57,
          "name": "A3",
          "ticks": 61056,
          "time": 183.46151400000002,
          "velocity": 0.7637795275590551
        },
        {
          "duration": 1.1538459999999873,
          "durationTicks": 384,
          "midi": 56,
          "name": "G#3",
          "ticks": 61344,
          "time": 184.32689850000003,
          "velocity": 0.7637795275590551
        },
        {
          "duration": 0.28846150000001103,
          "durationTicks": 96,
          "midi": 68,
          "name": "G#4",
          "ticks": 61440,
          "time": 184.61536,
          "velocity": 0.905511811023622
        },
        {
          "duration": 0.8653845000000047,
          "durationTicks": 288,
          "midi": 68,
          "name": "G#4",
          "ticks": 61536,
          "time": 184.90382150000002,
          "velocity": 0.905511811023622
        },
        {
          "duration": 0.28846150000001103,
          "durationTicks": 96,
          "midi": 54,
          "name": "F#3",
          "ticks": 61728,
          "time": 185.48074450000001,
          "velocity": 0.7637795275590551
        },
        {
          "duration": 0.8653845000000047,
          "durationTicks": 288,
          "midi": 57,
          "name": "A3",
          "ticks": 61824,
          "time": 185.76920600000003,
          "velocity": 0.7637795275590551
        },
        {
          "duration": 0.28846150000001103,
          "durationTicks": 96,
          "midi": 69,
          "name": "A4",
          "ticks": 61824,
          "time": 185.76920600000003,
          "velocity": 0.905511811023622
        },
        {
          "duration": 0.8653844999999762,
          "durationTicks": 288,
          "midi": 68,
          "name": "G#4",
          "ticks": 61920,
          "time": 186.05766750000004,
          "velocity": 0.905511811023622
        },
        {
          "duration": 0.8653845000000047,
          "durationTicks": 288,
          "midi": 56,
          "name": "G#3",
          "ticks": 62112,
          "time": 186.63459050000003,
          "velocity": 0.7637795275590551
        },
        {
          "duration": 0.28846150000001103,
          "durationTicks": 96,
          "midi": 69,
          "name": "A4",
          "ticks": 62208,
          "time": 186.923052,
          "velocity": 0.905511811023622
        },
        {
          "duration": 4.038461000000012,
          "durationTicks": 1344,
          "midi": 68,
          "name": "G#4",
          "ticks": 62304,
          "time": 187.21151350000002,
          "velocity": 0.905511811023622
        },
        {
          "duration": 0.2884614999999826,
          "durationTicks": 96,
          "midi": 49,
          "name": "C#3",
          "ticks": 62400,
          "time": 187.49997500000003,
          "velocity": 0.7637795275590551
        },
        {
          "duration": 0.28846150000001103,
          "durationTicks": 96,
          "midi": 61,
          "name": "C#4",
          "ticks": 62496,
          "time": 187.78843650000002,
          "velocity": 0.7637795275590551
        },
        {
          "duration": 0.2884614999999826,
          "durationTicks": 96,
          "midi": 61,
          "name": "C#4",
          "ticks": 62592,
          "time": 188.07689800000003,
          "velocity": 0.7637795275590551
        },
        {
          "duration": 0.28846150000001103,
          "durationTicks": 96,
          "midi": 61,
          "name": "C#4",
          "ticks": 62688,
          "time": 188.3653595,
          "velocity": 0.7637795275590551
        },
        {
          "duration": 0.28846150000001103,
          "durationTicks": 96,
          "midi": 59,
          "name": "B3",
          "ticks": 62784,
          "time": 188.65382100000002,
          "velocity": 0.7637795275590551
        },
        {
          "duration": 0.2884614999999826,
          "durationTicks": 96,
          "midi": 59,
          "name": "B3",
          "ticks": 62880,
          "time": 188.94228250000003,
          "velocity": 0.7637795275590551
        },
        {
          "duration": 0.28846150000001103,
          "durationTicks": 96,
          "midi": 57,
          "name": "A3",
          "ticks": 62976,
          "time": 189.23074400000002,
          "velocity": 0.7637795275590551
        },
        {
          "duration": 0.28846150000001103,
          "durationTicks": 96,
          "midi": 56,
          "name": "G#3",
          "ticks": 63072,
          "time": 189.51920550000003,
          "velocity": 0.7637795275590551
        },
        {
          "duration": 0.2884614999999826,
          "durationTicks": 96,
          "midi": 56,
          "name": "G#3",
          "ticks": 63168,
          "time": 189.80766700000004,
          "velocity": 0.7637795275590551
        },
        {
          "duration": 0.28846150000001103,
          "durationTicks": 96,
          "midi": 56,
          "name": "G#3",
          "ticks": 63264,
          "time": 190.09612850000002,
          "velocity": 0.7637795275590551
        },
        {
          "duration": 0.2884614999999826,
          "durationTicks": 96,
          "midi": 57,
          "name": "A3",
          "ticks": 63360,
          "time": 190.38459000000003,
          "velocity": 0.7637795275590551
        },
        {
          "duration": 0.28846150000001103,
          "durationTicks": 96,
          "midi": 56,
          "name": "G#3",
          "ticks": 63456,
          "time": 190.6730515,
          "velocity": 0.7637795275590551
        },
        {
          "duration": 0.5769229999999936,
          "durationTicks": 192,
          "midi": 52,
          "name": "E3",
          "ticks": 63552,
          "time": 190.96151300000002,
          "velocity": 0.7637795275590551
        },
        {
          "duration": 0.28846150000001103,
          "durationTicks": 96,
          "midi": 54,
          "name": "F#3",
          "ticks": 64032,
          "time": 192.40382050000002,
          "velocity": 0.7637795275590551
        },
        {
          "duration": 0.8653845000000047,
          "durationTicks": 288,
          "midi": 57,
          "name": "A3",
          "ticks": 64128,
          "time": 192.69228200000003,
          "velocity": 0.7637795275590551
        },
        {
          "duration": 0.5769229999999936,
          "durationTicks": 192,
          "midi": 56,
          "name": "G#3",
          "ticks": 64416,
          "time": 193.55766650000004,
          "velocity": 0.7637795275590551
        },
        {
          "duration": 0.28846150000001103,
          "durationTicks": 96,
          "midi": 68,
          "name": "G#4",
          "ticks": 64512,
          "time": 193.84612800000002,
          "velocity": 0.905511811023622
        },
        {
          "duration": 0.8653845000000047,
          "durationTicks": 288,
          "midi": 68,
          "name": "G#4",
          "ticks": 64608,
          "time": 194.13458950000003,
          "velocity": 0.905511811023622
        },
        {
          "duration": 0.2884614999999826,
          "durationTicks": 96,
          "midi": 69,
          "name": "A4",
          "ticks": 64896,
          "time": 194.99997400000004,
          "velocity": 0.905511811023622
        },
        {
          "duration": 0.8653845000000047,
          "durationTicks": 288,
          "midi": 68,
          "name": "G#4",
          "ticks": 64992,
          "time": 195.28843550000002,
          "velocity": 0.905511811023622
        },
        {
          "duration": 0.28846150000001103,
          "durationTicks": 96,
          "midi": 69,
          "name": "A4",
          "ticks": 65280,
          "time": 196.15382000000002,
          "velocity": 0.905511811023622
        },
        {
          "duration": 2.307692000000003,
          "durationTicks": 768,
          "midi": 68,
          "name": "G#4",
          "ticks": 65376,
          "time": 196.44228150000004,
          "velocity": 0.905511811023622
        },
        {
          "duration": 0.5769229999999936,
          "durationTicks": 192,
          "midi": 68,
          "name": "G#4",
          "ticks": 66144,
          "time": 198.74997350000004,
          "velocity": 0.7637795275590551
        }
      ],
      "endOfTrackTicks": 67104
    },
    {
      "channel": 5,
      "controlChanges": {
        "10": [
          {
            "number": 10,
            "ticks": 0,
            "time": 0,
            "value": 0.5039370078740157
          }
        ]
      },
      "pitchBends": [],
      "instrument": {
        "family": "bass",
        "number": 33,
        "name": "electric bass (finger)"
      },
      "name": "TabIt MIDI - Track 6",
      "notes": [
        {
          "duration": 1.4423075,
          "durationTicks": 480,
          "midi": 33,
          "name": "A1",
          "ticks": 3168,
          "time": 9.519229500000002,
          "velocity": 0.7559055118110236
        },
        {
          "duration": 0.8653844999999993,
          "durationTicks": 288,
          "midi": 40,
          "name": "E2",
          "ticks": 3648,
          "time": 10.961537000000002,
          "velocity": 0.7559055118110236
        },
        {
          "duration": 1.4423075,
          "durationTicks": 480,
          "midi": 35,
          "name": "B1",
          "ticks": 3936,
          "time": 11.826921500000001,
          "velocity": 0.7559055118110236
        },
        {
          "duration": 0.8653845000000011,
          "durationTicks": 288,
          "midi": 40,
          "name": "E2",
          "ticks": 4416,
          "time": 13.269229000000001,
          "velocity": 0.7559055118110236
        },
        {
          "duration": 1.4423075,
          "durationTicks": 480,
          "midi": 37,
          "name": "C#2",
          "ticks": 4704,
          "time": 14.134613500000002,
          "velocity": 0.7559055118110236
        },
        {
          "duration": 0.8653845000000011,
          "durationTicks": 288,
          "midi": 35,
          "name": "B1",
          "ticks": 5184,
          "time": 15.576921000000002,
          "velocity": 0.7559055118110236
        },
        {
          "duration": 1.5865382500000003,
          "durationTicks": 528,
          "midi": 28,
          "name": "E1",
          "ticks": 5472,
          "time": 16.442305500000003,
          "velocity": 0.7559055118110236
        },
        {
          "duration": 0.28846150000000037,
          "durationTicks": 96,
          "midi": 25,
          "name": "C#1",
          "ticks": 6240,
          "time": 18.749997500000003,
          "velocity": 0.7559055118110236
        },
        {
          "duration": 0.5769230000000007,
          "durationTicks": 192,
          "midi": 25,
          "name": "C#1",
          "ticks": 6336,
          "time": 19.038459000000003,
          "velocity": 0.7559055118110236
        },
        {
          "duration": 0.28846150000000037,
          "durationTicks": 96,
          "midi": 25,
          "name": "C#1",
          "ticks": 6528,
          "time": 19.615382000000004,
          "velocity": 0.6377952755905512
        },
        {
          "duration": 0.2884614999999968,
          "durationTicks": 96,
          "midi": 25,
          "name": "C#1",
          "ticks": 6624,
          "time": 19.903843500000004,
          "velocity": 0.7559055118110236
        },
        {
          "duration": 0.8653845000000011,
          "durationTicks": 288,
          "midi": 25,
          "name": "C#1",
          "ticks": 6720,
          "time": 20.192305,
          "velocity": 0.7559055118110236
        },
        {
          "duration": 0.28846150000000037,
          "durationTicks": 96,
          "midi": 33,
          "name": "A1",
          "ticks": 7008,
          "time": 21.057689500000002,
          "velocity": 0.7559055118110236
        },
        {
          "duration": 0.5769230000000007,
          "durationTicks": 192,
          "midi": 33,
          "name": "A1",
          "ticks": 7104,
          "time": 21.346151000000003,
          "velocity": 0.7559055118110236
        },
        {
          "duration": 0.28846150000000037,
          "durationTicks": 96,
          "midi": 33,
          "name": "A1",
          "ticks": 7296,
          "time": 21.923074000000003,
          "velocity": 0.6377952755905512
        },
        {
          "duration": 0.28846150000000037,
          "durationTicks": 96,
          "midi": 33,
          "name": "A1",
          "ticks": 7392,
          "time": 22.211535500000004,
          "velocity": 0.7559055118110236
        },
        {
          "duration": 0.8653844999999976,
          "durationTicks": 288,
          "midi": 33,
          "name": "A1",
          "ticks": 7488,
          "time": 22.499997000000004,
          "velocity": 0.7559055118110236
        },
        {
          "duration": 0.28846150000000037,
          "durationTicks": 96,
          "midi": 28,
          "name": "E1",
          "ticks": 7776,
          "time": 23.3653815,
          "velocity": 0.7559055118110236
        },
        {
          "duration": 0.5769230000000007,
          "durationTicks": 192,
          "midi": 28,
          "name": "E1",
          "ticks": 7872,
          "time": 23.653843000000002,
          "velocity": 0.7559055118110236
        },
        {
          "duration": 0.28846150000000037,
          "durationTicks": 96,
          "midi": 28,
          "name": "E1",
          "ticks": 8064,
          "time": 24.230766000000003,
          "velocity": 0.6377952755905512
        },
        {
          "duration": 0.28846150000000037,
          "durationTicks": 96,
          "midi": 28,
          "name": "E1",
          "ticks": 8160,
          "time": 24.519227500000003,
          "velocity": 0.7559055118110236
        },
        {
          "duration": 0.8653845000000011,
          "durationTicks": 288,
          "midi": 28,
          "name": "E1",
          "ticks": 8256,
          "time": 24.807689000000003,
          "velocity": 0.7559055118110236
        },
        {
          "duration": 0.28846150000000037,
          "durationTicks": 96,
          "midi": 35,
          "name": "B1",
          "ticks": 8544,
          "time": 25.673073500000005,
          "velocity": 0.7559055118110236
        },
        {
          "duration": 0.5769229999999972,
          "durationTicks": 192,
          "midi": 35,
          "name": "B1",
          "ticks": 8640,
          "time": 25.961535000000005,
          "velocity": 0.7559055118110236
        },
        {
          "duration": 0.28846150000000037,
          "durationTicks": 96,
          "midi": 35,
          "name": "B1",
          "ticks": 8832,
          "time": 26.538458000000002,
          "velocity": 0.6377952755905512
        },
        {
          "duration": 0.28846150000000037,
          "durationTicks": 96,
          "midi": 35,
          "name": "B1",
          "ticks": 8928,
          "time": 26.826919500000002,
          "velocity": 0.7559055118110236
        },
        {
          "duration": 0.28846150000000037,
          "durationTicks": 96,
          "midi": 35,
          "name": "B1",
          "ticks": 9024,
          "time": 27.115381000000003,
          "velocity": 0.7559055118110236
        },
        {
          "duration": 0.5769230000000007,
          "durationTicks": 192,
          "midi": 32,
          "name": "G#1",
          "ticks": 9120,
          "time": 27.403842500000003,
          "velocity": 0.7559055118110236
        },
        {
          "duration": 0.28846150000000037,
          "durationTicks": 96,
          "midi": 25,
          "name": "C#1",
          "ticks": 9312,
          "time": 27.980765500000004,
          "velocity": 0.7559055118110236
        },
        {
          "duration": 0.5769230000000007,
          "durationTicks": 192,
          "midi": 25,
          "name": "C#1",
          "ticks": 9408,
          "time": 28.269227000000004,
          "velocity": 0.7559055118110236
        },
        {
          "duration": 0.28846150000000037,
          "durationTicks": 96,
          "midi": 25,
          "name": "C#1",
          "ticks": 9600,
          "time": 28.846150000000005,
          "velocity": 0.6377952755905512
        },
        {
          "duration": 0.2884614999999968,
          "durationTicks": 96,
          "midi": 25,
          "name": "C#1",
          "ticks": 9696,
          "time": 29.134611500000005,
          "velocity": 0.7559055118110236
        },
        {
          "duration": 0.8653845000000011,
          "durationTicks": 288,
          "midi": 25,
          "name": "C#1",
          "ticks": 9792,
          "time": 29.423073000000002,
          "velocity": 0.7559055118110236
        },
        {
          "duration": 0.28846150000000037,
          "durationTicks": 96,
          "midi": 33,
          "name": "A1",
          "ticks": 10080,
          "time": 30.288457500000003,
          "velocity": 0.7559055118110236
        },
        {
          "duration": 0.5769230000000007,
          "durationTicks": 192,
          "midi": 33,
          "name": "A1",
          "ticks": 10176,
          "time": 30.576919000000004,
          "velocity": 0.7559055118110236
        },
        {
          "duration": 0.28846150000000037,
          "durationTicks": 96,
          "midi": 33,
          "name": "A1",
          "ticks": 10368,
          "time": 31.153842000000004,
          "velocity": 0.6377952755905512
        },
        {
          "duration": 0.28846150000000037,
          "durationTicks": 96,
          "midi": 33,
          "name": "A1",
          "ticks": 10464,
          "time": 31.442303500000005,
          "velocity": 0.7559055118110236
        },
        {
          "duration": 0.8653844999999976,
          "durationTicks": 288,
          "midi": 33,
          "name": "A1",
          "ticks": 10560,
          "time": 31.730765000000005,
          "velocity": 0.7559055118110236
        },
        {
          "duration": 0.2884615000000039,
          "durationTicks": 96,
          "midi": 28,
          "name": "E1",
          "ticks": 10848,
          "time": 32.5961495,
          "velocity": 0.7559055118110236
        },
        {
          "duration": 0.5769230000000007,
          "durationTicks": 192,
          "midi": 28,
          "name": "E1",
          "ticks": 10944,
          "time": 32.88461100000001,
          "velocity": 0.7559055118110236
        },
        {
          "duration": 0.2884614999999968,
          "durationTicks": 96,
          "midi": 28,
          "name": "E1",
          "ticks": 11136,
          "time": 33.46153400000001,
          "velocity": 0.6377952755905512
        },
        {
          "duration": 0.2884614999999968,
          "durationTicks": 96,
          "midi": 28,
          "name": "E1",
          "ticks": 11232,
          "time": 33.749995500000004,
          "velocity": 0.7559055118110236
        },
        {
          "duration": 0.8653845000000047,
          "durationTicks": 288,
          "midi": 28,
          "name": "E1",
          "ticks": 11328,
          "time": 34.038457,
          "velocity": 0.7559055118110236
        },
        {
          "duration": 0.2884614999999968,
          "durationTicks": 96,
          "midi": 35,
          "name": "B1",
          "ticks": 11616,
          "time": 34.903841500000006,
          "velocity": 0.7559055118110236
        },
        {
          "duration": 0.5769230000000007,
          "durationTicks": 192,
          "midi": 35,
          "name": "B1",
          "ticks": 11712,
          "time": 35.192303,
          "velocity": 0.7559055118110236
        },
        {
          "duration": 0.2884615000000039,
          "durationTicks": 96,
          "midi": 35,
          "name": "B1",
          "ticks": 11904,
          "time": 35.769226,
          "velocity": 0.6377952755905512
        },
        {
          "duration": 0.2884614999999968,
          "durationTicks": 96,
          "midi": 35,
          "name": "B1",
          "ticks": 12000,
          "time": 36.05768750000001,
          "velocity": 0.7559055118110236
        },
        {
          "duration": 0.2884615000000039,
          "durationTicks": 96,
          "midi": 35,
          "name": "B1",
          "ticks": 12096,
          "time": 36.346149000000004,
          "velocity": 0.7559055118110236
        },
        {
          "duration": 0.5769229999999936,
          "durationTicks": 192,
          "midi": 32,
          "name": "G#1",
          "ticks": 12192,
          "time": 36.63461050000001,
          "velocity": 0.7559055118110236
        },
        {
          "duration": 1.1538460000000015,
          "durationTicks": 384,
          "midi": 25,
          "name": "C#1",
          "ticks": 12384,
          "time": 37.2115335,
          "velocity": 0.7559055118110236
        },
        {
          "duration": 1.1538460000000015,
          "durationTicks": 384,
          "midi": 25,
          "name": "C#1",
          "ticks": 12768,
          "time": 38.3653795,
          "velocity": 0.7559055118110236
        },
        {
          "duration": 0.2884615000000039,
          "durationTicks": 96,
          "midi": 33,
          "name": "A1",
          "ticks": 13152,
          "time": 39.519225500000005,
          "velocity": 0.7559055118110236
        },
        {
          "duration": 0.8653844999999976,
          "durationTicks": 288,
          "midi": 33,
          "name": "A1",
          "ticks": 13248,
          "time": 39.80768700000001,
          "velocity": 0.7559055118110236
        },
        {
          "duration": 1.1538460000000015,
          "durationTicks": 384,
          "midi": 33,
          "name": "A1",
          "ticks": 13536,
          "time": 40.673071500000006,
          "velocity": 0.7559055118110236
        },
        {
          "duration": 1.1538460000000015,
          "durationTicks": 384,
          "midi": 28,
          "name": "E1",
          "ticks": 13920,
          "time": 41.82691750000001,
          "velocity": 0.7559055118110236
        },
        {
          "duration": 1.1538459999999944,
          "durationTicks": 384,
          "midi": 28,
          "name": "E1",
          "ticks": 14304,
          "time": 42.98076350000001,
          "velocity": 0.7559055118110236
        },
        {
          "duration": 0.2884615000000039,
          "durationTicks": 96,
          "midi": 35,
          "name": "B1",
          "ticks": 14688,
          "time": 44.1346095,
          "velocity": 0.7559055118110236
        },
        {
          "duration": 0.8653844999999976,
          "durationTicks": 288,
          "midi": 35,
          "name": "B1",
          "ticks": 14784,
          "time": 44.42307100000001,
          "velocity": 0.7559055118110236
        },
        {
          "duration": 0.2884615000000039,
          "durationTicks": 96,
          "midi": 35,
          "name": "B1",
          "ticks": 15072,
          "time": 45.288455500000005,
          "velocity": 0.7559055118110236
        },
        {
          "duration": 0.5769229999999936,
          "durationTicks": 192,
          "midi": 35,
          "name": "B1",
          "ticks": 15168,
          "time": 45.57691700000001,
          "velocity": 0.7559055118110236
        },
        {
          "duration": 0.2884615000000039,
          "durationTicks": 96,
          "midi": 35,
          "name": "B1",
          "ticks": 15360,
          "time": 46.15384,
          "velocity": 0.6377952755905512
        },
        {
          "duration": 0.2884614999999968,
          "durationTicks": 96,
          "midi": 25,
          "name": "C#1",
          "ticks": 15456,
          "time": 46.442301500000006,
          "velocity": 0.7559055118110236
        },
        {
          "duration": 0.8653845000000047,
          "durationTicks": 288,
          "midi": 25,
          "name": "C#1",
          "ticks": 15552,
          "time": 46.730763,
          "velocity": 0.7559055118110236
        },
        {
          "duration": 1.1538460000000015,
          "durationTicks": 384,
          "midi": 25,
          "name": "C#1",
          "ticks": 15840,
          "time": 47.59614750000001,
          "velocity": 0.7559055118110236
        },
        {
          "duration": 1.1538459999999944,
          "durationTicks": 384,
          "midi": 33,
          "name": "A1",
          "ticks": 16224,
          "time": 48.74999350000001,
          "velocity": 0.7559055118110236
        },
        {
          "duration": 0.2884615000000039,
          "durationTicks": 96,
          "midi": 33,
          "name": "A1",
          "ticks": 16608,
          "time": 49.903839500000004,
          "velocity": 0.7559055118110236
        },
        {
          "duration": 0.8653844999999976,
          "durationTicks": 288,
          "midi": 33,
          "name": "A1",
          "ticks": 16704,
          "time": 50.19230100000001,
          "velocity": 0.7559055118110236
        },
        {
          "duration": 1.1538460000000015,
          "durationTicks": 384,
          "midi": 28,
          "name": "E1",
          "ticks": 16992,
          "time": 51.057685500000005,
          "velocity": 0.7559055118110236
        },
        {
          "duration": 0.2884614999999968,
          "durationTicks": 96,
          "midi": 28,
          "name": "E1",
          "ticks": 17376,
          "time": 52.21153150000001,
          "velocity": 0.7559055118110236
        },
        {
          "duration": 0.8653845000000047,
          "durationTicks": 288,
          "midi": 28,
          "name": "E1",
          "ticks": 17472,
          "time": 52.499993,
          "velocity": 0.7559055118110236
        },
        {
          "duration": 1.1538460000000015,
          "durationTicks": 384,
          "midi": 35,
          "name": "B1",
          "ticks": 17760,
          "time": 53.36537750000001,
          "velocity": 0.7559055118110236
        },
        {
          "duration": 0.5769230000000007,
          "durationTicks": 192,
          "midi": 35,
          "name": "B1",
          "ticks": 18144,
          "time": 54.51922350000001,
          "velocity": 0.7559055118110236
        },
        {
          "duration": 0.1442307499999984,
          "durationTicks": 48,
          "midi": 30,
          "name": "F#1",
          "ticks": 18336,
          "time": 55.09614650000001,
          "velocity": 0.7559055118110236
        },
        {
          "duration": 0.4326922499999952,
          "durationTicks": 144,
          "midi": 32,
          "name": "G#1",
          "ticks": 18384,
          "time": 55.24037725000001,
          "velocity": 0.7559055118110236
        },
        {
          "duration": 0.2884615000000039,
          "durationTicks": 96,
          "midi": 25,
          "name": "C#1",
          "ticks": 18528,
          "time": 55.673069500000004,
          "velocity": 0.7559055118110236
        },
        {
          "duration": 0.8653844999999976,
          "durationTicks": 288,
          "midi": 25,
          "name": "C#1",
          "ticks": 18624,
          "time": 55.96153100000001,
          "velocity": 0.7559055118110236
        },
        {
          "duration": 1.1538460000000015,
          "durationTicks": 384,
          "midi": 25,
          "name": "C#1",
          "ticks": 18912,
          "time": 56.826915500000005,
          "velocity": 0.7559055118110236
        },
        {
          "duration": 1.1538460000000015,
          "durationTicks": 384,
          "midi": 33,
          "name": "A1",
          "ticks": 19296,
          "time": 57.98076150000001,
          "velocity": 0.7559055118110236
        },
        {
          "duration": 0.2884614999999968,
          "durationTicks": 96,
          "midi": 33,
          "name": "A1",
          "ticks": 19680,
          "time": 59.13460750000001,
          "velocity": 0.7559055118110236
        },
        {
          "duration": 0.8653845000000047,
          "durationTicks": 288,
          "midi": 33,
          "name": "A1",
          "ticks": 19776,
          "time": 59.423069000000005,
          "velocity": 0.7559055118110236
        },
        {
          "duration": 1.1538460000000015,
          "durationTicks": 384,
          "midi": 28,
          "name": "E1",
          "ticks": 20064,
          "time": 60.28845350000001,
          "velocity": 0.7559055118110236
        },
        {
          "duration": 0.2884614999999968,
          "durationTicks": 96,
          "midi": 28,
          "name": "E1",
          "ticks": 20448,
          "time": 61.44229950000001,
          "velocity": 0.7559055118110236
        },
        {
          "duration": 0.8653844999999976,
          "durationTicks": 288,
          "midi": 28,
          "name": "E1",
          "ticks": 20544,
          "time": 61.73076100000001,
          "velocity": 0.7559055118110236
        },
        {
          "duration": 1.1538460000000015,
          "durationTicks": 384,
          "midi": 35,
          "name": "B1",
          "ticks": 20832,
          "time": 62.596145500000006,
          "velocity": 0.7559055118110236
        },
        {
          "duration": 0.5769230000000078,
          "durationTicks": 192,
          "midi": 35,
          "name": "B1",
          "ticks": 21216,
          "time": 63.74999150000001,
          "velocity": 0.7559055118110236
        },
        {
          "duration": 0.1442307499999913,
          "durationTicks": 48,
          "midi": 30,
          "name": "F#1",
          "ticks": 21408,
          "time": 64.32691450000002,
          "velocity": 0.7559055118110236
        },
        {
          "duration": 0.43269225000000233,
          "durationTicks": 144,
          "midi": 32,
          "name": "G#1",
          "ticks": 21456,
          "time": 64.47114525,
          "velocity": 0.7559055118110236
        },
        {
          "duration": 1.4423074999999983,
          "durationTicks": 480,
          "midi": 33,
          "name": "A1",
          "ticks": 21600,
          "time": 64.90383750000001,
          "velocity": 0.7559055118110236
        },
        {
          "duration": 0.8653845000000047,
          "durationTicks": 288,
          "midi": 40,
          "name": "E2",
          "ticks": 22080,
          "time": 66.346145,
          "velocity": 0.7559055118110236
        },
        {
          "duration": 1.4423074999999983,
          "durationTicks": 480,
          "midi": 35,
          "name": "B1",
          "ticks": 22368,
          "time": 67.21152950000001,
          "velocity": 0.7559055118110236
        },
        {
          "duration": 0.8653845000000047,
          "durationTicks": 288,
          "midi": 40,
          "name": "E2",
          "ticks": 22848,
          "time": 68.65383700000001,
          "velocity": 0.7559055118110236
        },
        {
          "duration": 1.4423074999999983,
          "durationTicks": 480,
          "midi": 37,
          "name": "C#2",
          "ticks": 23136,
          "time": 69.51922150000001,
          "velocity": 0.7559055118110236
        },
        {
          "duration": 0.8653844999999905,
          "durationTicks": 288,
          "midi": 35,
          "name": "B1",
          "ticks": 23616,
          "time": 70.96152900000001,
          "velocity": 0.7559055118110236
        },
        {
          "duration": 1.7307690000000093,
          "durationTicks": 576,
          "midi": 28,
          "name": "E1",
          "ticks": 23904,
          "time": 71.8269135,
          "velocity": 0.7559055118110236
        },
        {
          "duration": 0.1442307499999913,
          "durationTicks": 48,
          "midi": 30,
          "name": "F#1",
          "ticks": 24480,
          "time": 73.55768250000001,
          "velocity": 0.7559055118110236
        },
        {
          "duration": 0.43269225000000233,
          "durationTicks": 144,
          "midi": 32,
          "name": "G#1",
          "ticks": 24528,
          "time": 73.70191325,
          "velocity": 0.7559055118110236
        },
        {
          "duration": 1.4423074999999983,
          "durationTicks": 480,
          "midi": 33,
          "name": "A1",
          "ticks": 24672,
          "time": 74.1346055,
          "velocity": 0.7559055118110236
        },
        {
          "duration": 0.8653845000000047,
          "durationTicks": 288,
          "midi": 40,
          "name": "E2",
          "ticks": 25152,
          "time": 75.576913,
          "velocity": 0.7559055118110236
        },
        {
          "duration": 1.4423074999999983,
          "durationTicks": 480,
          "midi": 35,
          "name": "B1",
          "ticks": 25440,
          "time": 76.44229750000001,
          "velocity": 0.7559055118110236
        },
        {
          "duration": 0.8653845000000047,
          "durationTicks": 288,
          "midi": 40,
          "name": "E2",
          "ticks": 25920,
          "time": 77.88460500000001,
          "velocity": 0.7559055118110236
        },
        {
          "duration": 1.4423074999999983,
          "durationTicks": 480,
          "midi": 37,
          "name": "C#2",
          "ticks": 26208,
          "time": 78.74998950000001,
          "velocity": 0.7559055118110236
        },
        {
          "duration": 0.8653845000000047,
          "durationTicks": 288,
          "midi": 35,
          "name": "B1",
          "ticks": 26688,
          "time": 80.19229700000001,
          "velocity": 0.7559055118110236
        },
        {
          "duration": 2.3076919999999888,
          "durationTicks": 768,
          "midi": 28,
          "name": "E1",
          "ticks": 26976,
          "time": 81.05768150000002,
          "velocity": 0.7559055118110236
        },
        {
          "duration": 0.28846150000001103,
          "durationTicks": 96,
          "midi": 25,
          "name": "C#1",
          "ticks": 27744,
          "time": 83.3653735,
          "velocity": 0.7559055118110236
        },
        {
          "duration": 0.5769229999999936,
          "durationTicks": 192,
          "midi": 25,
          "name": "C#1",
          "ticks": 27840,
          "time": 83.65383500000002,
          "velocity": 0.7559055118110236
        },
        {
          "duration": 0.2884614999999968,
          "durationTicks": 96,
          "midi": 25,
          "name": "C#1",
          "ticks": 28032,
          "time": 84.23075800000001,
          "velocity": 0.6377952755905512
        },
        {
          "duration": 0.28846150000001103,
          "durationTicks": 96,
          "midi": 25,
          "name": "C#1",
          "ticks": 28128,
          "time": 84.5192195,
          "velocity": 0.7559055118110236
        },
        {
          "duration": 0.8653844999999905,
          "durationTicks": 288,
          "midi": 25,
          "name": "C#1",
          "ticks": 28224,
          "time": 84.80768100000002,
          "velocity": 0.7559055118110236
        },
        {
          "duration": 0.28846150000001103,
          "durationTicks": 96,
          "midi": 33,
          "name": "A1",
          "ticks": 28512,
          "time": 85.6730655,
          "velocity": 0.7559055118110236
        },
        {
          "duration": 0.5769229999999936,
          "durationTicks": 192,
          "midi": 33,
          "name": "A1",
          "ticks": 28608,
          "time": 85.96152700000002,
          "velocity": 0.7559055118110236
        },
        {
          "duration": 0.2884614999999968,
          "durationTicks": 96,
          "midi": 33,
          "name": "A1",
          "ticks": 28800,
          "time": 86.53845000000001,
          "velocity": 0.6377952755905512
        },
        {
          "duration": 0.2884614999999968,
          "durationTicks": 96,
          "midi": 33,
          "name": "A1",
          "ticks": 28896,
          "time": 86.82691150000001,
          "velocity": 0.7559055118110236
        },
        {
          "duration": 0.8653845000000047,
          "durationTicks": 288,
          "midi": 33,
          "name": "A1",
          "ticks": 28992,
          "time": 87.115373,
          "velocity": 0.7559055118110236
        },
        {
          "duration": 0.2884614999999968,
          "durationTicks": 96,
          "midi": 28,
          "name": "E1",
          "ticks": 29280,
          "time": 87.98075750000001,
          "velocity": 0.7559055118110236
        },
        {
          "duration": 0.5769230000000078,
          "durationTicks": 192,
          "midi": 28,
          "name": "E1",
          "ticks": 29376,
          "time": 88.269219,
          "velocity": 0.7559055118110236
        },
        {
          "duration": 0.2884614999999968,
          "durationTicks": 96,
          "midi": 28,
          "name": "E1",
          "ticks": 29568,
          "time": 88.84614200000001,
          "velocity": 0.6377952755905512
        },
        {
          "duration": 0.2884614999999968,
          "durationTicks": 96,
          "midi": 28,
          "name": "E1",
          "ticks": 29664,
          "time": 89.13460350000001,
          "velocity": 0.7559055118110236
        },
        {
          "duration": 0.8653845000000047,
          "durationTicks": 288,
          "midi": 28,
          "name": "E1",
          "ticks": 29760,
          "time": 89.42306500000001,
          "velocity": 0.7559055118110236
        },
        {
          "duration": 0.2884614999999968,
          "durationTicks": 96,
          "midi": 35,
          "name": "B1",
          "ticks": 30048,
          "time": 90.28844950000001,
          "velocity": 0.7559055118110236
        },
        {
          "duration": 0.5769230000000078,
          "durationTicks": 192,
          "midi": 35,
          "name": "B1",
          "ticks": 30144,
          "time": 90.57691100000001,
          "velocity": 0.7559055118110236
        },
        {
          "duration": 0.2884614999999968,
          "durationTicks": 96,
          "midi": 35,
          "name": "B1",
          "ticks": 30336,
          "time": 91.15383400000002,
          "velocity": 0.6377952755905512
        },
        {
          "duration": 0.2884614999999968,
          "durationTicks": 96,
          "midi": 35,
          "name": "B1",
          "ticks": 30432,
          "time": 91.44229550000001,
          "velocity": 0.7559055118110236
        },
        {
          "duration": 0.2884614999999968,
          "durationTicks": 96,
          "midi": 35,
          "name": "B1",
          "ticks": 30528,
          "time": 91.73075700000001,
          "velocity": 0.7559055118110236
        },
        {
          "duration": 0.5769230000000078,
          "durationTicks": 192,
          "midi": 32,
          "name": "G#1",
          "ticks": 30624,
          "time": 92.01921850000001,
          "velocity": 0.7559055118110236
        },
        {
          "duration": 0.2884614999999968,
          "durationTicks": 96,
          "midi": 25,
          "name": "C#1",
          "ticks": 30816,
          "time": 92.59614150000002,
          "velocity": 0.7559055118110236
        },
        {
          "duration": 0.5769229999999936,
          "durationTicks": 192,
          "midi": 25,
          "name": "C#1",
          "ticks": 30912,
          "time": 92.88460300000001,
          "velocity": 0.7559055118110236
        },
        {
          "duration": 0.28846150000001103,
          "durationTicks": 96,
          "midi": 25,
          "name": "C#1",
          "ticks": 31104,
          "time": 93.461526,
          "velocity": 0.6377952755905512
        },
        {
          "duration": 0.2884614999999968,
          "durationTicks": 96,
          "midi": 25,
          "name": "C#1",
          "ticks": 31200,
          "time": 93.74998750000002,
          "velocity": 0.7559055118110236
        },
        {
          "duration": 0.8653845000000047,
          "durationTicks": 288,
          "midi": 25,
          "name": "C#1",
          "ticks": 31296,
          "time": 94.03844900000001,
          "velocity": 0.7559055118110236
        },
        {
          "duration": 0.2884614999999968,
          "durationTicks": 96,
          "midi": 33,
          "name": "A1",
          "ticks": 31584,
          "time": 94.90383350000002,
          "velocity": 0.7559055118110236
        },
        {
          "duration": 0.5769229999999936,
          "durationTicks": 192,
          "midi": 33,
          "name": "A1",
          "ticks": 31680,
          "time": 95.19229500000002,
          "velocity": 0.7559055118110236
        },
        {
          "duration": 0.2884614999999968,
          "durationTicks": 96,
          "midi": 33,
          "name": "A1",
          "ticks": 31872,
          "time": 95.76921800000001,
          "velocity": 0.6377952755905512
        },
        {
          "duration": 0.28846150000001103,
          "durationTicks": 96,
          "midi": 33,
          "name": "A1",
          "ticks": 31968,
          "time": 96.0576795,
          "velocity": 0.7559055118110236
        },
        {
          "duration": 0.8653844999999905,
          "durationTicks": 288,
          "midi": 33,
          "name": "A1",
          "ticks": 32064,
          "time": 96.34614100000002,
          "velocity": 0.7559055118110236
        },
        {
          "duration": 0.28846150000001103,
          "durationTicks": 96,
          "midi": 28,
          "name": "E1",
          "ticks": 32352,
          "time": 97.21152550000001,
          "velocity": 0.7559055118110236
        },
        {
          "duration": 0.5769229999999936,
          "durationTicks": 192,
          "midi": 28,
          "name": "E1",
          "ticks": 32448,
          "time": 97.49998700000002,
          "velocity": 0.7559055118110236
        },
        {
          "duration": 0.2884614999999968,
          "durationTicks": 96,
          "midi": 28,
          "name": "E1",
          "ticks": 32640,
          "time": 98.07691000000001,
          "velocity": 0.6377952755905512
        },
        {
          "duration": 0.2884614999999968,
          "durationTicks": 96,
          "midi": 28,
          "name": "E1",
          "ticks": 32736,
          "time": 98.36537150000001,
          "velocity": 0.7559055118110236
        },
        {
          "duration": 0.8653845000000047,
          "durationTicks": 288,
          "midi": 28,
          "name": "E1",
          "ticks": 32832,
          "time": 98.653833,
          "velocity": 0.7559055118110236
        },
        {
          "duration": 0.2884614999999968,
          "durationTicks": 96,
          "midi": 35,
          "name": "B1",
          "ticks": 33120,
          "time": 99.51921750000001,
          "velocity": 0.7559055118110236
        },
        {
          "duration": 0.5769230000000078,
          "durationTicks": 192,
          "midi": 35,
          "name": "B1",
          "ticks": 33216,
          "time": 99.80767900000001,
          "velocity": 0.7559055118110236
        },
        {
          "duration": 0.2884614999999968,
          "durationTicks": 96,
          "midi": 35,
          "name": "B1",
          "ticks": 33408,
          "time": 100.38460200000002,
          "velocity": 0.6377952755905512
        },
        {
          "duration": 0.2884614999999968,
          "durationTicks": 96,
          "midi": 35,
          "name": "B1",
          "ticks": 33504,
          "time": 100.67306350000001,
          "velocity": 0.7559055118110236
        },
        {
          "duration": 0.28846150000001103,
          "durationTicks": 96,
          "midi": 35,
          "name": "B1",
          "ticks": 33600,
          "time": 100.96152500000001,
          "velocity": 0.7559055118110236
        },
        {
          "duration": 0.5769229999999936,
          "durationTicks": 192,
          "midi": 32,
          "name": "G#1",
          "ticks": 33696,
          "time": 101.24998650000002,
          "velocity": 0.7559055118110236
        },
        {
          "duration": 0.2884614999999968,
          "durationTicks": 96,
          "midi": 25,
          "name": "C#1",
          "ticks": 33888,
          "time": 101.82690950000001,
          "velocity": 0.7559055118110236
        },
        {
          "duration": 0.8653845000000047,
          "durationTicks": 288,
          "midi": 25,
          "name": "C#1",
          "ticks": 33984,
          "time": 102.11537100000001,
          "velocity": 0.7559055118110236
        },
        {
          "duration": 1.1538460000000015,
          "durationTicks": 384,
          "midi": 25,
          "name": "C#1",
          "ticks": 34272,
          "time": 102.98075550000001,
          "velocity": 0.7559055118110236
        },
        {
          "duration": 1.1538460000000015,
          "durationTicks": 384,
          "midi": 33,
          "name": "A1",
          "ticks": 34656,
          "time": 104.13460150000002,
          "velocity": 0.7559055118110236
        },
        {
          "duration": 0.2884614999999968,
          "durationTicks": 96,
          "midi": 33,
          "name": "A1",
          "ticks": 35040,
          "time": 105.28844750000002,
          "velocity": 0.7559055118110236
        },
        {
          "duration": 0.8653845000000047,
          "durationTicks": 288,
          "midi": 33,
          "name": "A1",
          "ticks": 35136,
          "time": 105.57690900000001,
          "velocity": 0.7559055118110236
        },
        {
          "duration": 1.1538460000000015,
          "durationTicks": 384,
          "midi": 28,
          "name": "E1",
          "ticks": 35424,
          "time": 106.44229350000002,
          "velocity": 0.7559055118110236
        },
        {
          "duration": 0.2884614999999968,
          "durationTicks": 96,
          "midi": 28,
          "name": "E1",
          "ticks": 35808,
          "time": 107.59613950000002,
          "velocity": 0.7559055118110236
        },
        {
          "duration": 0.8653844999999905,
          "durationTicks": 288,
          "midi": 28,
          "name": "E1",
          "ticks": 35904,
          "time": 107.88460100000002,
          "velocity": 0.7559055118110236
        },
        {
          "duration": 1.1538460000000015,
          "durationTicks": 384,
          "midi": 35,
          "name": "B1",
          "ticks": 36192,
          "time": 108.74998550000001,
          "velocity": 0.7559055118110236
        },
        {
          "duration": 0.8653845000000047,
          "durationTicks": 288,
          "midi": 35,
          "name": "B1",
          "ticks": 36576,
          "time": 109.90383150000001,
          "velocity": 0.7559055118110236
        },
        {
          "duration": 0.2884614999999968,
          "durationTicks": 96,
          "midi": 32,
          "name": "G#1",
          "ticks": 36864,
          "time": 110.76921600000001,
          "velocity": 0.7559055118110236
        },
        {
          "duration": 0.2884614999999968,
          "durationTicks": 96,
          "midi": 25,
          "name": "C#1",
          "ticks": 36960,
          "time": 111.05767750000001,
          "velocity": 0.7559055118110236
        },
        {
          "duration": 0.8653845000000047,
          "durationTicks": 288,
          "midi": 25,
          "name": "C#1",
          "ticks": 37056,
          "time": 111.34613900000001,
          "velocity": 0.7559055118110236
        },
        {
          "duration": 1.1538460000000015,
          "durationTicks": 384,
          "midi": 25,
          "name": "C#1",
          "ticks": 37344,
          "time": 112.21152350000001,
          "velocity": 0.7559055118110236
        },
        {
          "duration": 1.1538460000000015,
          "durationTicks": 384,
          "midi": 33,
          "name": "A1",
          "ticks": 37728,
          "time": 113.36536950000001,
          "velocity": 0.7559055118110236
        },
        {
          "duration": 0.2884614999999968,
          "durationTicks": 96,
          "midi": 33,
          "name": "A1",
          "ticks": 38112,
          "time": 114.51921550000002,
          "velocity": 0.7559055118110236
        },
        {
          "duration": 0.8653845000000047,
          "durationTicks": 288,
          "midi": 33,
          "name": "A1",
          "ticks": 38208,
          "time": 114.80767700000001,
          "velocity": 0.7559055118110236
        },
        {
          "duration": 1.1538460000000015,
          "durationTicks": 384,
          "midi": 28,
          "name": "E1",
          "ticks": 38496,
          "time": 115.67306150000002,
          "velocity": 0.7559055118110236
        },
        {
          "duration": 0.2884614999999968,
          "durationTicks": 96,
          "midi": 28,
          "name": "E1",
          "ticks": 38880,
          "time": 116.82690750000002,
          "velocity": 0.7559055118110236
        },
        {
          "duration": 0.8653845000000047,
          "durationTicks": 288,
          "midi": 28,
          "name": "E1",
          "ticks": 38976,
          "time": 117.11536900000002,
          "velocity": 0.7559055118110236
        },
        {
          "duration": 1.1538460000000015,
          "durationTicks": 384,
          "midi": 35,
          "name": "B1",
          "ticks": 39264,
          "time": 117.98075350000002,
          "velocity": 0.7559055118110236
        },
        {
          "duration": 0.5769229999999936,
          "durationTicks": 192,
          "midi": 35,
          "name": "B1",
          "ticks": 39648,
          "time": 119.13459950000002,
          "velocity": 0.7559055118110236
        },
        {
          "duration": 0.14423075000000551,
          "durationTicks": 48,
          "midi": 30,
          "name": "F#1",
          "ticks": 39840,
          "time": 119.71152250000002,
          "velocity": 0.6377952755905512
        },
        {
          "duration": 0.4326922499999881,
          "durationTicks": 144,
          "midi": 32,
          "name": "G#1",
          "ticks": 39888,
          "time": 119.85575325000002,
          "velocity": 0.7559055118110236
        },
        {
          "duration": 1.4423075000000125,
          "durationTicks": 480,
          "midi": 33,
          "name": "A1",
          "ticks": 40032,
          "time": 120.28844550000001,
          "velocity": 0.7559055118110236
        },
        {
          "duration": 0.8653844999999905,
          "durationTicks": 288,
          "midi": 40,
          "name": "E2",
          "ticks": 40512,
          "time": 121.73075300000002,
          "velocity": 0.7559055118110236
        },
        {
          "duration": 1.4423074999999983,
          "durationTicks": 480,
          "midi": 35,
          "name": "B1",
          "ticks": 40800,
          "time": 122.59613750000001,
          "velocity": 0.7559055118110236
        },
        {
          "duration": 0.8653845000000047,
          "durationTicks": 288,
          "midi": 40,
          "name": "E2",
          "ticks": 41280,
          "time": 124.03844500000001,
          "velocity": 0.7559055118110236
        },
        {
          "duration": 1.4423074999999983,
          "durationTicks": 480,
          "midi": 37,
          "name": "C#2",
          "ticks": 41568,
          "time": 124.90382950000001,
          "velocity": 0.7559055118110236
        },
        {
          "duration": 0.8653845000000047,
          "durationTicks": 288,
          "midi": 35,
          "name": "B1",
          "ticks": 42048,
          "time": 126.34613700000001,
          "velocity": 0.7559055118110236
        },
        {
          "duration": 1.7307689999999951,
          "durationTicks": 576,
          "midi": 28,
          "name": "E1",
          "ticks": 42336,
          "time": 127.21152150000002,
          "velocity": 0.7559055118110236
        },
        {
          "duration": 0.1442307499999913,
          "durationTicks": 48,
          "midi": 30,
          "name": "F#1",
          "ticks": 42912,
          "time": 128.9422905,
          "velocity": 0.7559055118110236
        },
        {
          "duration": 0.43269225000000233,
          "durationTicks": 144,
          "midi": 32,
          "name": "G#1",
          "ticks": 42960,
          "time": 129.08652125,
          "velocity": 0.7559055118110236
        },
        {
          "duration": 1.4423074999999983,
          "durationTicks": 480,
          "midi": 33,
          "name": "A1",
          "ticks": 43104,
          "time": 129.5192135,
          "velocity": 0.7559055118110236
        },
        {
          "duration": 0.8653845000000047,
          "durationTicks": 288,
          "midi": 40,
          "name": "E2",
          "ticks": 43584,
          "time": 130.961521,
          "velocity": 0.7559055118110236
        },
        {
          "duration": 1.4423074999999983,
          "durationTicks": 480,
          "midi": 35,
          "name": "B1",
          "ticks": 43872,
          "time": 131.8269055,
          "velocity": 0.7559055118110236
        },
        {
          "duration": 0.8653845000000047,
          "durationTicks": 288,
          "midi": 40,
          "name": "E2",
          "ticks": 44352,
          "time": 133.269213,
          "velocity": 0.7559055118110236
        },
        {
          "duration": 1.4423074999999983,
          "durationTicks": 480,
          "midi": 37,
          "name": "C#2",
          "ticks": 44640,
          "time": 134.1345975,
          "velocity": 0.7559055118110236
        },
        {
          "duration": 0.8653845000000047,
          "durationTicks": 288,
          "midi": 35,
          "name": "B1",
          "ticks": 45120,
          "time": 135.576905,
          "velocity": 0.7559055118110236
        },
        {
          "duration": 2.8846149999999966,
          "durationTicks": 960,
          "midi": 28,
          "name": "E1",
          "ticks": 45408,
          "time": 136.44228950000002,
          "velocity": 0.7559055118110236
        },
        {
          "duration": 0.28846150000001103,
          "durationTicks": 96,
          "midi": 25,
          "name": "C#1",
          "ticks": 46944,
          "time": 141.05767350000002,
          "velocity": 0.7559055118110236
        },
        {
          "duration": 0.5769229999999936,
          "durationTicks": 192,
          "midi": 25,
          "name": "C#1",
          "ticks": 47040,
          "time": 141.34613500000003,
          "velocity": 0.7559055118110236
        },
        {
          "duration": 0.2884614999999826,
          "durationTicks": 96,
          "midi": 25,
          "name": "C#1",
          "ticks": 47232,
          "time": 141.92305800000003,
          "velocity": 0.6377952755905512
        },
        {
          "duration": 0.28846150000001103,
          "durationTicks": 96,
          "midi": 25,
          "name": "C#1",
          "ticks": 47328,
          "time": 142.2115195,
          "velocity": 0.7559055118110236
        },
        {
          "duration": 0.8653845000000047,
          "durationTicks": 288,
          "midi": 25,
          "name": "C#1",
          "ticks": 47424,
          "time": 142.49998100000002,
          "velocity": 0.7559055118110236
        },
        {
          "duration": 0.2884614999999826,
          "durationTicks": 96,
          "midi": 33,
          "name": "A1",
          "ticks": 47712,
          "time": 143.36536550000002,
          "velocity": 0.7559055118110236
        },
        {
          "duration": 0.5769230000000221,
          "durationTicks": 192,
          "midi": 33,
          "name": "A1",
          "ticks": 47808,
          "time": 143.653827,
          "velocity": 0.7559055118110236
        },
        {
          "duration": 0.2884614999999826,
          "durationTicks": 96,
          "midi": 33,
          "name": "A1",
          "ticks": 48000,
          "time": 144.23075000000003,
          "velocity": 0.6377952755905512
        },
        {
          "duration": 0.28846150000001103,
          "durationTicks": 96,
          "midi": 33,
          "name": "A1",
          "ticks": 48096,
          "time": 144.5192115,
          "velocity": 0.7559055118110236
        },
        {
          "duration": 0.8653845000000047,
          "durationTicks": 288,
          "midi": 33,
          "name": "A1",
          "ticks": 48192,
          "time": 144.80767300000002,
          "velocity": 0.7559055118110236
        },
        {
          "duration": 0.2884614999999826,
          "durationTicks": 96,
          "midi": 28,
          "name": "E1",
          "ticks": 48480,
          "time": 145.67305750000003,
          "velocity": 0.7559055118110236
        },
        {
          "duration": 0.5769230000000221,
          "durationTicks": 192,
          "midi": 28,
          "name": "E1",
          "ticks": 48576,
          "time": 145.961519,
          "velocity": 0.7559055118110236
        },
        {
          "duration": 0.2884614999999826,
          "durationTicks": 96,
          "midi": 28,
          "name": "E1",
          "ticks": 48768,
          "time": 146.53844200000003,
          "velocity": 0.6377952755905512
        },
        {
          "duration": 0.28846150000001103,
          "durationTicks": 96,
          "midi": 28,
          "name": "E1",
          "ticks": 48864,
          "time": 146.82690350000001,
          "velocity": 0.7559055118110236
        },
        {
          "duration": 0.8653845000000047,
          "durationTicks": 288,
          "midi": 28,
          "name": "E1",
          "ticks": 48960,
          "time": 147.11536500000003,
          "velocity": 0.7559055118110236
        },
        {
          "duration": 0.2884614999999826,
          "durationTicks": 96,
          "midi": 35,
          "name": "B1",
          "ticks": 49248,
          "time": 147.98074950000003,
          "velocity": 0.7559055118110236
        },
        {
          "duration": 0.5769229999999936,
          "durationTicks": 192,
          "midi": 35,
          "name": "B1",
          "ticks": 49344,
          "time": 148.269211,
          "velocity": 0.7559055118110236
        },
        {
          "duration": 0.28846150000001103,
          "durationTicks": 96,
          "midi": 35,
          "name": "B1",
          "ticks": 49536,
          "time": 148.846134,
          "velocity": 0.6377952755905512
        },
        {
          "duration": 0.28846150000001103,
          "durationTicks": 96,
          "midi": 35,
          "name": "B1",
          "ticks": 49632,
          "time": 149.13459550000002,
          "velocity": 0.7559055118110236
        },
        {
          "duration": 0.2884614999999826,
          "durationTicks": 96,
          "midi": 35,
          "name": "B1",
          "ticks": 49728,
          "time": 149.42305700000003,
          "velocity": 0.7559055118110236
        },
        {
          "duration": 0.5769230000000221,
          "durationTicks": 192,
          "midi": 32,
          "name": "G#1",
          "ticks": 49824,
          "time": 149.7115185,
          "velocity": 0.7559055118110236
        },
        {
          "duration": 0.2884614999999826,
          "durationTicks": 96,
          "midi": 25,
          "name": "C#1",
          "ticks": 50016,
          "time": 150.28844150000003,
          "velocity": 0.7559055118110236
        },
        {
          "duration": 0.5769229999999936,
          "durationTicks": 192,
          "midi": 25,
          "name": "C#1",
          "ticks": 50112,
          "time": 150.57690300000002,
          "velocity": 0.7559055118110236
        },
        {
          "duration": 0.28846150000001103,
          "durationTicks": 96,
          "midi": 25,
          "name": "C#1",
          "ticks": 50304,
          "time": 151.153826,
          "velocity": 0.6377952755905512
        },
        {
          "duration": 0.28846150000001103,
          "durationTicks": 96,
          "midi": 25,
          "name": "C#1",
          "ticks": 50400,
          "time": 151.44228750000002,
          "velocity": 0.7559055118110236
        },
        {
          "duration": 0.8653844999999762,
          "durationTicks": 288,
          "midi": 25,
          "name": "C#1",
          "ticks": 50496,
          "time": 151.73074900000003,
          "velocity": 0.7559055118110236
        },
        {
          "duration": 0.28846150000001103,
          "durationTicks": 96,
          "midi": 33,
          "name": "A1",
          "ticks": 50784,
          "time": 152.5961335,
          "velocity": 0.7559055118110236
        },
        {
          "duration": 0.5769229999999936,
          "durationTicks": 192,
          "midi": 33,
          "name": "A1",
          "ticks": 50880,
          "time": 152.88459500000002,
          "velocity": 0.7559055118110236
        },
        {
          "duration": 0.28846150000001103,
          "durationTicks": 96,
          "midi": 33,
          "name": "A1",
          "ticks": 51072,
          "time": 153.461518,
          "velocity": 0.6377952755905512
        },
        {
          "duration": 0.2884614999999826,
          "durationTicks": 96,
          "midi": 33,
          "name": "A1",
          "ticks": 51168,
          "time": 153.74997950000002,
          "velocity": 0.7559055118110236
        },
        {
          "duration": 0.8653845000000047,
          "durationTicks": 288,
          "midi": 33,
          "name": "A1",
          "ticks": 51264,
          "time": 154.038441,
          "velocity": 0.7559055118110236
        },
        {
          "duration": 0.28846150000001103,
          "durationTicks": 96,
          "midi": 28,
          "name": "E1",
          "ticks": 51552,
          "time": 154.9038255,
          "velocity": 0.7559055118110236
        },
        {
          "duration": 0.5769229999999936,
          "durationTicks": 192,
          "midi": 28,
          "name": "E1",
          "ticks": 51648,
          "time": 155.19228700000002,
          "velocity": 0.7559055118110236
        },
        {
          "duration": 0.28846150000001103,
          "durationTicks": 96,
          "midi": 28,
          "name": "E1",
          "ticks": 51840,
          "time": 155.76921000000002,
          "velocity": 0.6377952755905512
        },
        {
          "duration": 0.2884614999999826,
          "durationTicks": 96,
          "midi": 28,
          "name": "E1",
          "ticks": 51936,
          "time": 156.05767150000003,
          "velocity": 0.7559055118110236
        },
        {
          "duration": 0.8653845000000047,
          "durationTicks": 288,
          "midi": 28,
          "name": "E1",
          "ticks": 52032,
          "time": 156.346133,
          "velocity": 0.7559055118110236
        },
        {
          "duration": 0.28846150000001103,
          "durationTicks": 96,
          "midi": 35,
          "name": "B1",
          "ticks": 52320,
          "time": 157.2115175,
          "velocity": 0.7559055118110236
        },
        {
          "duration": 0.5769229999999936,
          "durationTicks": 192,
          "midi": 35,
          "name": "B1",
          "ticks": 52416,
          "time": 157.49997900000002,
          "velocity": 0.7559055118110236
        },
        {
          "duration": 0.28846150000001103,
          "durationTicks": 96,
          "midi": 35,
          "name": "B1",
          "ticks": 52608,
          "time": 158.07690200000002,
          "velocity": 0.6377952755905512
        },
        {
          "duration": 0.2884614999999826,
          "durationTicks": 96,
          "midi": 35,
          "name": "B1",
          "ticks": 52704,
          "time": 158.36536350000003,
          "velocity": 0.7559055118110236
        },
        {
          "duration": 0.28846150000001103,
          "durationTicks": 96,
          "midi": 35,
          "name": "B1",
          "ticks": 52800,
          "time": 158.653825,
          "velocity": 0.7559055118110236
        },
        {
          "duration": 0.5769229999999936,
          "durationTicks": 192,
          "midi": 32,
          "name": "G#1",
          "ticks": 52896,
          "time": 158.94228650000002,
          "velocity": 0.7559055118110236
        },
        {
          "duration": 0.28846150000001103,
          "durationTicks": 96,
          "midi": 25,
          "name": "C#1",
          "ticks": 53088,
          "time": 159.51920950000002,
          "velocity": 0.7559055118110236
        },
        {
          "duration": 0.5769229999999936,
          "durationTicks": 192,
          "midi": 25,
          "name": "C#1",
          "ticks": 53184,
          "time": 159.80767100000003,
          "velocity": 0.7559055118110236
        },
        {
          "duration": 0.28846150000001103,
          "durationTicks": 96,
          "midi": 25,
          "name": "C#1",
          "ticks": 53376,
          "time": 160.38459400000002,
          "velocity": 0.6377952755905512
        },
        {
          "duration": 0.2884614999999826,
          "durationTicks": 96,
          "midi": 25,
          "name": "C#1",
          "ticks": 53472,
          "time": 160.67305550000003,
          "velocity": 0.7559055118110236
        },
        {
          "duration": 0.8653845000000047,
          "durationTicks": 288,
          "midi": 25,
          "name": "C#1",
          "ticks": 53568,
          "time": 160.96151700000001,
          "velocity": 0.7559055118110236
        },
        {
          "duration": 0.28846150000001103,
          "durationTicks": 96,
          "midi": 33,
          "name": "A1",
          "ticks": 53856,
          "time": 161.82690150000002,
          "velocity": 0.7559055118110236
        },
        {
          "duration": 0.5769229999999936,
          "durationTicks": 192,
          "midi": 33,
          "name": "A1",
          "ticks": 53952,
          "time": 162.11536300000003,
          "velocity": 0.7559055118110236
        },
        {
          "duration": 0.28846150000001103,
          "durationTicks": 96,
          "midi": 33,
          "name": "A1",
          "ticks": 54144,
          "time": 162.69228600000002,
          "velocity": 0.6377952755905512
        },
        {
          "duration": 0.2884614999999826,
          "durationTicks": 96,
          "midi": 33,
          "name": "A1",
          "ticks": 54240,
          "time": 162.98074750000004,
          "velocity": 0.7559055118110236
        },
        {
          "duration": 0.8653845000000047,
          "durationTicks": 288,
          "midi": 33,
          "name": "A1",
          "ticks": 54336,
          "time": 163.26920900000002,
          "velocity": 0.7559055118110236
        },
        {
          "duration": 0.28846150000001103,
          "durationTicks": 96,
          "midi": 28,
          "name": "E1",
          "ticks": 54624,
          "time": 164.13459350000002,
          "velocity": 0.7559055118110236
        },
        {
          "duration": 0.5769229999999936,
          "durationTicks": 192,
          "midi": 28,
          "name": "E1",
          "ticks": 54720,
          "time": 164.42305500000003,
          "velocity": 0.7559055118110236
        },
        {
          "duration": 0.2884614999999826,
          "durationTicks": 96,
          "midi": 28,
          "name": "E1",
          "ticks": 54912,
          "time": 164.99997800000003,
          "velocity": 0.6377952755905512
        },
        {
          "duration": 0.28846150000001103,
          "durationTicks": 96,
          "midi": 28,
          "name": "E1",
          "ticks": 55008,
          "time": 165.2884395,
          "velocity": 0.7559055118110236
        },
        {
          "duration": 0.8653845000000047,
          "durationTicks": 288,
          "midi": 28,
          "name": "E1",
          "ticks": 55104,
          "time": 165.57690100000002,
          "velocity": 0.7559055118110236
        },
        {
          "duration": 0.2884614999999826,
          "durationTicks": 96,
          "midi": 35,
          "name": "B1",
          "ticks": 55392,
          "time": 166.44228550000003,
          "velocity": 0.7559055118110236
        },
        {
          "duration": 0.5769230000000221,
          "durationTicks": 192,
          "midi": 35,
          "name": "B1",
          "ticks": 55488,
          "time": 166.730747,
          "velocity": 0.7559055118110236
        },
        {
          "duration": 0.2884614999999826,
          "durationTicks": 96,
          "midi": 35,
          "name": "B1",
          "ticks": 55680,
          "time": 167.30767000000003,
          "velocity": 0.6377952755905512
        },
        {
          "duration": 0.28846150000001103,
          "durationTicks": 96,
          "midi": 35,
          "name": "B1",
          "ticks": 55776,
          "time": 167.5961315,
          "velocity": 0.7559055118110236
        },
        {
          "duration": 0.28846150000001103,
          "durationTicks": 96,
          "midi": 35,
          "name": "B1",
          "ticks": 55872,
          "time": 167.88459300000002,
          "velocity": 0.7559055118110236
        },
        {
          "duration": 0.5769229999999936,
          "durationTicks": 192,
          "midi": 32,
          "name": "G#1",
          "ticks": 55968,
          "time": 168.17305450000003,
          "velocity": 0.7559055118110236
        },
        {
          "duration": 0.2884614999999826,
          "durationTicks": 96,
          "midi": 25,
          "name": "C#1",
          "ticks": 56160,
          "time": 168.74997750000003,
          "velocity": 0.7559055118110236
        },
        {
          "duration": 0.5769230000000221,
          "durationTicks": 192,
          "midi": 25,
          "name": "C#1",
          "ticks": 56256,
          "time": 169.038439,
          "velocity": 0.7559055118110236
        },
        {
          "duration": 0.2884614999999826,
          "durationTicks": 96,
          "midi": 25,
          "name": "C#1",
          "ticks": 56448,
          "time": 169.61536200000003,
          "velocity": 0.6377952755905512
        },
        {
          "duration": 0.28846150000001103,
          "durationTicks": 96,
          "midi": 25,
          "name": "C#1",
          "ticks": 56544,
          "time": 169.90382350000002,
          "velocity": 0.7559055118110236
        },
        {
          "duration": 0.8653845000000047,
          "durationTicks": 288,
          "midi": 25,
          "name": "C#1",
          "ticks": 56640,
          "time": 170.19228500000003,
          "velocity": 0.7559055118110236
        },
        {
          "duration": 0.2884614999999826,
          "durationTicks": 96,
          "midi": 33,
          "name": "A1",
          "ticks": 56928,
          "time": 171.05766950000003,
          "velocity": 0.7559055118110236
        },
        {
          "duration": 0.5769230000000221,
          "durationTicks": 192,
          "midi": 33,
          "name": "A1",
          "ticks": 57024,
          "time": 171.346131,
          "velocity": 0.7559055118110236
        },
        {
          "duration": 0.2884614999999826,
          "durationTicks": 96,
          "midi": 33,
          "name": "A1",
          "ticks": 57216,
          "time": 171.92305400000004,
          "velocity": 0.6377952755905512
        },
        {
          "duration": 0.28846150000001103,
          "durationTicks": 96,
          "midi": 33,
          "name": "A1",
          "ticks": 57312,
          "time": 172.21151550000002,
          "velocity": 0.7559055118110236
        },
        {
          "duration": 0.8653845000000047,
          "durationTicks": 288,
          "midi": 33,
          "name": "A1",
          "ticks": 57408,
          "time": 172.49997700000003,
          "velocity": 0.7559055118110236
        },
        {
          "duration": 0.2884614999999826,
          "durationTicks": 96,
          "midi": 28,
          "name": "E1",
          "ticks": 57696,
          "time": 173.36536150000003,
          "velocity": 0.7559055118110236
        },
        {
          "duration": 0.5769229999999936,
          "durationTicks": 192,
          "midi": 28,
          "name": "E1",
          "ticks": 57792,
          "time": 173.65382300000002,
          "velocity": 0.7559055118110236
        },
        {
          "duration": 0.28846150000001103,
          "durationTicks": 96,
          "midi": 28,
          "name": "E1",
          "ticks": 57984,
          "time": 174.230746,
          "velocity": 0.6377952755905512
        },
        {
          "duration": 0.28846150000001103,
          "durationTicks": 96,
          "midi": 28,
          "name": "E1",
          "ticks": 58080,
          "time": 174.51920750000002,
          "velocity": 0.7559055118110236
        },
        {
          "duration": 0.8653844999999762,
          "durationTicks": 288,
          "midi": 28,
          "name": "E1",
          "ticks": 58176,
          "time": 174.80766900000003,
          "velocity": 0.7559055118110236
        },
        {
          "duration": 0.28846150000001103,
          "durationTicks": 96,
          "midi": 35,
          "name": "B1",
          "ticks": 58464,
          "time": 175.6730535,
          "velocity": 0.7559055118110236
        },
        {
          "duration": 0.5769229999999936,
          "durationTicks": 192,
          "midi": 35,
          "name": "B1",
          "ticks": 58560,
          "time": 175.96151500000002,
          "velocity": 0.7559055118110236
        },
        {
          "duration": 0.28846150000001103,
          "durationTicks": 96,
          "midi": 35,
          "name": "B1",
          "ticks": 58752,
          "time": 176.538438,
          "velocity": 0.6377952755905512
        },
        {
          "duration": 0.28846150000001103,
          "durationTicks": 96,
          "midi": 35,
          "name": "B1",
          "ticks": 58848,
          "time": 176.82689950000002,
          "velocity": 0.7559055118110236
        },
        {
          "duration": 0.2884614999999826,
          "durationTicks": 96,
          "midi": 35,
          "name": "B1",
          "ticks": 58944,
          "time": 177.11536100000004,
          "velocity": 0.7559055118110236
        },
        {
          "duration": 0.5769229999999936,
          "durationTicks": 192,
          "midi": 32,
          "name": "G#1",
          "ticks": 59040,
          "time": 177.40382250000002,
          "velocity": 0.7559055118110236
        },
        {
          "duration": 0.28846150000001103,
          "durationTicks": 96,
          "midi": 25,
          "name": "C#1",
          "ticks": 59232,
          "time": 177.9807455,
          "velocity": 0.7559055118110236
        },
        {
          "duration": 0.5769229999999936,
          "durationTicks": 192,
          "midi": 25,
          "name": "C#1",
          "ticks": 59328,
          "time": 178.26920700000002,
          "velocity": 0.7559055118110236
        },
        {
          "duration": 0.28846150000001103,
          "durationTicks": 96,
          "midi": 25,
          "name": "C#1",
          "ticks": 59520,
          "time": 178.84613000000002,
          "velocity": 0.6377952755905512
        },
        {
          "duration": 0.2884614999999826,
          "durationTicks": 96,
          "midi": 25,
          "name": "C#1",
          "ticks": 59616,
          "time": 179.13459150000003,
          "velocity": 0.7559055118110236
        },
        {
          "duration": 0.8653845000000047,
          "durationTicks": 288,
          "midi": 25,
          "name": "C#1",
          "ticks": 59712,
          "time": 179.423053,
          "velocity": 0.7559055118110236
        },
        {
          "duration": 0.28846150000001103,
          "durationTicks": 96,
          "midi": 33,
          "name": "A1",
          "ticks": 60000,
          "time": 180.28843750000001,
          "velocity": 0.7559055118110236
        },
        {
          "duration": 0.5769229999999936,
          "durationTicks": 192,
          "midi": 33,
          "name": "A1",
          "ticks": 60096,
          "time": 180.57689900000003,
          "velocity": 0.7559055118110236
        },
        {
          "duration": 0.28846150000001103,
          "durationTicks": 96,
          "midi": 33,
          "name": "A1",
          "ticks": 60288,
          "time": 181.15382200000002,
          "velocity": 0.6377952755905512
        },
        {
          "duration": 0.2884614999999826,
          "durationTicks": 96,
          "midi": 33,
          "name": "A1",
          "ticks": 60384,
          "time": 181.44228350000003,
          "velocity": 0.7559055118110236
        },
        {
          "duration": 0.8653845000000047,
          "durationTicks": 288,
          "midi": 33,
          "name": "A1",
          "ticks": 60480,
          "time": 181.730745,
          "velocity": 0.7559055118110236
        },
        {
          "duration": 0.28846150000001103,
          "durationTicks": 96,
          "midi": 28,
          "name": "E1",
          "ticks": 60768,
          "time": 182.59612950000002,
          "velocity": 0.7559055118110236
        },
        {
          "duration": 0.5769229999999936,
          "durationTicks": 192,
          "midi": 28,
          "name": "E1",
          "ticks": 60864,
          "time": 182.88459100000003,
          "velocity": 0.7559055118110236
        },
        {
          "duration": 0.28846150000001103,
          "durationTicks": 96,
          "midi": 28,
          "name": "E1",
          "ticks": 61056,
          "time": 183.46151400000002,
          "velocity": 0.6377952755905512
        },
        {
          "duration": 0.2884614999999826,
          "durationTicks": 96,
          "midi": 28,
          "name": "E1",
          "ticks": 61152,
          "time": 183.74997550000003,
          "velocity": 0.7559055118110236
        },
        {
          "duration": 0.8653845000000047,
          "durationTicks": 288,
          "midi": 28,
          "name": "E1",
          "ticks": 61248,
          "time": 184.03843700000002,
          "velocity": 0.7559055118110236
        },
        {
          "duration": 0.28846150000001103,
          "durationTicks": 96,
          "midi": 35,
          "name": "B1",
          "ticks": 61536,
          "time": 184.90382150000002,
          "velocity": 0.7559055118110236
        },
        {
          "duration": 0.5769229999999936,
          "durationTicks": 192,
          "midi": 35,
          "name": "B1",
          "ticks": 61632,
          "time": 185.19228300000003,
          "velocity": 0.7559055118110236
        },
        {
          "duration": 0.28846150000001103,
          "durationTicks": 96,
          "midi": 35,
          "name": "B1",
          "ticks": 61824,
          "time": 185.76920600000003,
          "velocity": 0.6377952755905512
        },
        {
          "duration": 0.2884614999999826,
          "durationTicks": 96,
          "midi": 35,
          "name": "B1",
          "ticks": 61920,
          "time": 186.05766750000004,
          "velocity": 0.7559055118110236
        },
        {
          "duration": 0.28846150000001103,
          "durationTicks": 96,
          "midi": 35,
          "name": "B1",
          "ticks": 62016,
          "time": 186.34612900000002,
          "velocity": 0.7559055118110236
        },
        {
          "duration": 0.5769229999999936,
          "durationTicks": 192,
          "midi": 32,
          "name": "G#1",
          "ticks": 62112,
          "time": 186.63459050000003,
          "velocity": 0.7559055118110236
        },
        {
          "duration": 0.28846150000001103,
          "durationTicks": 96,
          "midi": 25,
          "name": "C#1",
          "ticks": 62304,
          "time": 187.21151350000002,
          "velocity": 0.7559055118110236
        },
        {
          "duration": 0.5769229999999936,
          "durationTicks": 192,
          "midi": 25,
          "name": "C#1",
          "ticks": 62400,
          "time": 187.49997500000003,
          "velocity": 0.7559055118110236
        },
        {
          "duration": 0.2884614999999826,
          "durationTicks": 96,
          "midi": 25,
          "name": "C#1",
          "ticks": 62592,
          "time": 188.07689800000003,
          "velocity": 0.6377952755905512
        },
        {
          "duration": 0.28846150000001103,
          "durationTicks": 96,
          "midi": 25,
          "name": "C#1",
          "ticks": 62688,
          "time": 188.3653595,
          "velocity": 0.7559055118110236
        },
        {
          "duration": 0.8653845000000047,
          "durationTicks": 288,
          "midi": 25,
          "name": "C#1",
          "ticks": 62784,
          "time": 188.65382100000002,
          "velocity": 0.7559055118110236
        },
        {
          "duration": 0.28846150000001103,
          "durationTicks": 96,
          "midi": 33,
          "name": "A1",
          "ticks": 63072,
          "time": 189.51920550000003,
          "velocity": 0.7559055118110236
        },
        {
          "duration": 0.5769229999999936,
          "durationTicks": 192,
          "midi": 33,
          "name": "A1",
          "ticks": 63168,
          "time": 189.80766700000004,
          "velocity": 0.7559055118110236
        },
        {
          "duration": 0.2884614999999826,
          "durationTicks": 96,
          "midi": 33,
          "name": "A1",
          "ticks": 63360,
          "time": 190.38459000000003,
          "velocity": 0.6377952755905512
        },
        {
          "duration": 0.28846150000001103,
          "durationTicks": 96,
          "midi": 33,
          "name": "A1",
          "ticks": 63456,
          "time": 190.6730515,
          "velocity": 0.7559055118110236
        },
        {
          "duration": 0.8653845000000047,
          "durationTicks": 288,
          "midi": 33,
          "name": "A1",
          "ticks": 63552,
          "time": 190.96151300000002,
          "velocity": 0.7559055118110236
        },
        {
          "duration": 0.2884614999999826,
          "durationTicks": 96,
          "midi": 28,
          "name": "E1",
          "ticks": 63840,
          "time": 191.82689750000003,
          "velocity": 0.7559055118110236
        },
        {
          "duration": 0.5769230000000221,
          "durationTicks": 192,
          "midi": 28,
          "name": "E1",
          "ticks": 63936,
          "time": 192.115359,
          "velocity": 0.7559055118110236
        },
        {
          "duration": 0.2884614999999826,
          "durationTicks": 96,
          "midi": 28,
          "name": "E1",
          "ticks": 64128,
          "time": 192.69228200000003,
          "velocity": 0.6377952755905512
        },
        {
          "duration": 0.28846150000001103,
          "durationTicks": 96,
          "midi": 28,
          "name": "E1",
          "ticks": 64224,
          "time": 192.98074350000002,
          "velocity": 0.7559055118110236
        },
        {
          "duration": 0.8653845000000047,
          "durationTicks": 288,
          "midi": 28,
          "name": "E1",
          "ticks": 64320,
          "time": 193.26920500000003,
          "velocity": 0.7559055118110236
        },
        {
          "duration": 0.2884614999999826,
          "durationTicks": 96,
          "midi": 35,
          "name": "B1",
          "ticks": 64608,
          "time": 194.13458950000003,
          "velocity": 0.7559055118110236
        },
        {
          "duration": 0.5769230000000221,
          "durationTicks": 192,
          "midi": 35,
          "name": "B1",
          "ticks": 64704,
          "time": 194.42305100000002,
          "velocity": 0.7559055118110236
        },
        {
          "duration": 0.2884614999999826,
          "durationTicks": 96,
          "midi": 35,
          "name": "B1",
          "ticks": 64896,
          "time": 194.99997400000004,
          "velocity": 0.6377952755905512
        },
        {
          "duration": 0.28846150000001103,
          "durationTicks": 96,
          "midi": 35,
          "name": "B1",
          "ticks": 64992,
          "time": 195.28843550000002,
          "velocity": 0.7559055118110236
        },
        {
          "duration": 0.2884614999999826,
          "durationTicks": 96,
          "midi": 35,
          "name": "B1",
          "ticks": 65088,
          "time": 195.57689700000003,
          "velocity": 0.7559055118110236
        },
        {
          "duration": 0.5769230000000221,
          "durationTicks": 192,
          "midi": 32,
          "name": "G#1",
          "ticks": 65184,
          "time": 195.8653585,
          "velocity": 0.7559055118110236
        },
        {
          "duration": 0.2884614999999826,
          "durationTicks": 96,
          "midi": 35,
          "name": "B1",
          "ticks": 65376,
          "time": 196.44228150000004,
          "velocity": 0.7559055118110236
        },
        {
          "duration": 0.5769229999999936,
          "durationTicks": 192,
          "midi": 35,
          "name": "B1",
          "ticks": 65472,
          "time": 196.73074300000002,
          "velocity": 0.7559055118110236
        },
        {
          "duration": 0.28846150000001103,
          "durationTicks": 96,
          "midi": 35,
          "name": "B1",
          "ticks": 65664,
          "time": 197.307666,
          "velocity": 0.6377952755905512
        },
        {
          "duration": 0.28846150000001103,
          "durationTicks": 96,
          "midi": 35,
          "name": "B1",
          "ticks": 65760,
          "time": 197.59612750000002,
          "velocity": 0.7559055118110236
        },
        {
          "duration": 0.2884614999999826,
          "durationTicks": 96,
          "midi": 35,
          "name": "B1",
          "ticks": 65856,
          "time": 197.88458900000003,
          "velocity": 0.7559055118110236
        },
        {
          "duration": 0.5769230000000221,
          "durationTicks": 192,
          "midi": 32,
          "name": "G#1",
          "ticks": 65952,
          "time": 198.17305050000002,
          "velocity": 0.7559055118110236
        }
      ],
      "endOfTrackTicks": 66912
    },
    {
      "channel": 9,
      "controlChanges": {
        "10": [
          {
            "number": 10,
            "ticks": 0,
            "time": 0,
            "value": 0.5039370078740157
          }
        ]
      },
      "pitchBends": [],
      "instrument": {
        "family": "drums",
        "number": 0,
        "name": "standard kit"
      },
      "name": "TabIt MIDI - Track 7",
      "notes": [
        {
          "duration": 0,
          "durationTicks": 0,
          "midi": 35,
          "name": "B1",
          "ticks": 96,
          "time": 0.28846150000000004,
          "velocity": 0.7559055118110236
        },
        {
          "duration": 0,
          "durationTicks": 0,
          "midi": 35,
          "name": "B1",
          "ticks": 96,
          "time": 0.28846150000000004,
          "velocity": 0.7559055118110236
        },
        {
          "duration": 2.5961535000000002,
          "durationTicks": 864,
          "midi": 35,
          "name": "B1",
          "ticks": 96,
          "time": 0.28846150000000004,
          "velocity": 0.7559055118110236
        },
        {
          "duration": 0.14423075000000002,
          "durationTicks": 48,
          "midi": 42,
          "name": "F#2",
          "ticks": 96,
          "time": 0.28846150000000004,
          "velocity": 0.7559055118110236
        },
        {
          "duration": 0.14423075000000002,
          "durationTicks": 48,
          "midi": 42,
          "name": "F#2",
          "ticks": 144,
          "time": 0.43269225000000006,
          "velocity": 0.7559055118110236
        },
        {
          "duration": 0.14423074999999996,
          "durationTicks": 48,
          "midi": 42,
          "name": "F#2",
          "ticks": 192,
          "time": 0.5769230000000001,
          "velocity": 0.7559055118110236
        },
        {
          "duration": 0.14423075000000007,
          "durationTicks": 48,
          "midi": 42,
          "name": "F#2",
          "ticks": 240,
          "time": 0.72115375,
          "velocity": 0.7559055118110236
        },
        {
          "duration": 0.8653845000000001,
          "durationTicks": 288,
          "midi": 38,
          "name": "D2",
          "ticks": 288,
          "time": 0.8653845000000001,
          "velocity": 0.7559055118110236
        },
        {
          "duration": 0.14423075000000007,
          "durationTicks": 48,
          "midi": 42,
          "name": "F#2",
          "ticks": 288,
          "time": 0.8653845000000001,
          "velocity": 0.7559055118110236
        },
        {
          "duration": 0.14423074999999996,
          "durationTicks": 48,
          "midi": 42,
          "name": "F#2",
          "ticks": 336,
          "time": 1.0096152500000002,
          "velocity": 0.7559055118110236
        },
        {
          "duration": 0.14423074999999996,
          "durationTicks": 48,
          "midi": 42,
          "name": "F#2",
          "ticks": 384,
          "time": 1.1538460000000001,
          "velocity": 0.7559055118110236
        },
        {
          "duration": 0.14423074999999996,
          "durationTicks": 48,
          "midi": 42,
          "name": "F#2",
          "ticks": 432,
          "time": 1.2980767500000001,
          "velocity": 0.7559055118110236
        },
        {
          "duration": 0.14423075000000019,
          "durationTicks": 48,
          "midi": 42,
          "name": "F#2",
          "ticks": 480,
          "time": 1.4423075,
          "velocity": 0.7559055118110236
        },
        {
          "duration": 0.14423074999999996,
          "durationTicks": 48,
          "midi": 42,
          "name": "F#2",
          "ticks": 528,
          "time": 1.5865382500000003,
          "velocity": 0.7559055118110236
        },
        {
          "duration": 1.4423075000000003,
          "durationTicks": 480,
          "midi": 38,
          "name": "D2",
          "ticks": 576,
          "time": 1.7307690000000002,
          "velocity": 0.7559055118110236
        },
        {
          "duration": 0.14423074999999996,
          "durationTicks": 48,
          "midi": 42,
          "name": "F#2",
          "ticks": 576,
          "time": 1.7307690000000002,
          "velocity": 0.7559055118110236
        },
        {
          "duration": 0.14423075000000019,
          "durationTicks": 48,
          "midi": 42,
          "name": "F#2",
          "ticks": 624,
          "time": 1.8749997500000002,
          "velocity": 0.7559055118110236
        },
        {
          "duration": 0.14423074999999974,
          "durationTicks": 48,
          "midi": 42,
          "name": "F#2",
          "ticks": 672,
          "time": 2.0192305000000004,
          "velocity": 0.7559055118110236
        },
        {
          "duration": 0.14423075000000019,
          "durationTicks": 48,
          "midi": 42,
          "name": "F#2",
          "ticks": 720,
          "time": 2.16346125,
          "velocity": 0.7559055118110236
        },
        {
          "duration": 0.2884614999999999,
          "durationTicks": 96,
          "midi": 46,
          "name": "A#2",
          "ticks": 768,
          "time": 2.3076920000000003,
          "velocity": 0.7559055118110236
        },
        {
          "duration": 0.14423075000000019,
          "durationTicks": 48,
          "midi": 42,
          "name": "F#2",
          "ticks": 864,
          "time": 2.5961535000000002,
          "velocity": 0.7559055118110236
        },
        {
          "duration": 0.14423074999999974,
          "durationTicks": 48,
          "midi": 42,
          "name": "F#2",
          "ticks": 912,
          "time": 2.7403842500000004,
          "velocity": 0.7559055118110236
        },
        {
          "duration": 0,
          "durationTicks": 0,
          "midi": 35,
          "name": "B1",
          "ticks": 960,
          "time": 2.884615,
          "velocity": 0.7559055118110236
        },
        {
          "duration": 0,
          "durationTicks": 0,
          "midi": 35,
          "name": "B1",
          "ticks": 960,
          "time": 2.884615,
          "velocity": 0.7559055118110236
        },
        {
          "duration": 2.019230500000001,
          "durationTicks": 672,
          "midi": 35,
          "name": "B1",
          "ticks": 960,
          "time": 2.884615,
          "velocity": 0.7559055118110236
        },
        {
          "duration": 0.14423075000000019,
          "durationTicks": 48,
          "midi": 42,
          "name": "F#2",
          "ticks": 960,
          "time": 2.884615,
          "velocity": 0.7559055118110236
        },
        {
          "duration": 0.14423075000000019,
          "durationTicks": 48,
          "midi": 42,
          "name": "F#2",
          "ticks": 1008,
          "time": 3.0288457500000003,
          "velocity": 0.7559055118110236
        },
        {
          "duration": 0.8653845000000002,
          "durationTicks": 288,
          "midi": 38,
          "name": "D2",
          "ticks": 1056,
          "time": 3.1730765000000005,
          "velocity": 0.7559055118110236
        },
        {
          "duration": 0.14423074999999974,
          "durationTicks": 48,
          "midi": 42,
          "name": "F#2",
          "ticks": 1056,
          "time": 3.1730765000000005,
          "velocity": 0.7559055118110236
        },
        {
          "duration": 0.14423075000000019,
          "durationTicks": 48,
          "midi": 42,
          "name": "F#2",
          "ticks": 1104,
          "time": 3.3173072500000003,
          "velocity": 0.7559055118110236
        },
        {
          "duration": 0.14423075000000019,
          "durationTicks": 48,
          "midi": 42,
          "name": "F#2",
          "ticks": 1152,
          "time": 3.4615380000000004,
          "velocity": 0.7559055118110236
        },
        {
          "duration": 0.14423074999999974,
          "durationTicks": 48,
          "midi": 42,
          "name": "F#2",
          "ticks": 1200,
          "time": 3.6057687500000006,
          "velocity": 0.7559055118110236
        },
        {
          "duration": 0.14423075000000019,
          "durationTicks": 48,
          "midi": 42,
          "name": "F#2",
          "ticks": 1248,
          "time": 3.7499995000000004,
          "velocity": 0.7559055118110236
        },
        {
          "duration": 0.14423075000000019,
          "durationTicks": 48,
          "midi": 42,
          "name": "F#2",
          "ticks": 1296,
          "time": 3.8942302500000006,
          "velocity": 0.7559055118110236
        },
        {
          "duration": 1.4423075,
          "durationTicks": 480,
          "midi": 38,
          "name": "D2",
          "ticks": 1344,
          "time": 4.038461000000001,
          "velocity": 0.7559055118110236
        },
        {
          "duration": 0.14423075000000019,
          "durationTicks": 48,
          "midi": 42,
          "name": "F#2",
          "ticks": 1344,
          "time": 4.038461000000001,
          "velocity": 0.7559055118110236
        },
        {
          "duration": 0.1442307499999993,
          "durationTicks": 48,
          "midi": 42,
          "name": "F#2",
          "ticks": 1392,
          "time": 4.182691750000001,
          "velocity": 0.7559055118110236
        },
        {
          "duration": 0.14423075000000019,
          "durationTicks": 48,
          "midi": 42,
          "name": "F#2",
          "ticks": 1440,
          "time": 4.3269225,
          "velocity": 0.7559055118110236
        },
        {
          "duration": 0.14423075000000019,
          "durationTicks": 48,
          "midi": 42,
          "name": "F#2",
          "ticks": 1488,
          "time": 4.47115325,
          "velocity": 0.7559055118110236
        },
        {
          "duration": 0.14423075000000019,
          "durationTicks": 48,
          "midi": 42,
          "name": "F#2",
          "ticks": 1536,
          "time": 4.615384000000001,
          "velocity": 0.7559055118110236
        },
        {
          "duration": 0.14423075000000019,
          "durationTicks": 48,
          "midi": 42,
          "name": "F#2",
          "ticks": 1584,
          "time": 4.759614750000001,
          "velocity": 0.7559055118110236
        },
        {
          "duration": 0,
          "durationTicks": 0,
          "midi": 35,
          "name": "B1",
          "ticks": 1632,
          "time": 4.903845500000001,
          "velocity": 0.7559055118110236
        },
        {
          "duration": 0,
          "durationTicks": 0,
          "midi": 35,
          "name": "B1",
          "ticks": 1632,
          "time": 4.903845500000001,
          "velocity": 0.7559055118110236
        },
        {
          "duration": 2.5961535,
          "durationTicks": 864,
          "midi": 35,
          "name": "B1",
          "ticks": 1632,
          "time": 4.903845500000001,
          "velocity": 0.7559055118110236
        },
        {
          "duration": 0.1442307499999993,
          "durationTicks": 48,
          "midi": 42,
          "name": "F#2",
          "ticks": 1632,
          "time": 4.903845500000001,
          "velocity": 0.7559055118110236
        },
        {
          "duration": 0.14423075000000019,
          "durationTicks": 48,
          "midi": 42,
          "name": "F#2",
          "ticks": 1680,
          "time": 5.04807625,
          "velocity": 0.7559055118110236
        },
        {
          "duration": 0.14423075000000019,
          "durationTicks": 48,
          "midi": 42,
          "name": "F#2",
          "ticks": 1728,
          "time": 5.1923070000000004,
          "velocity": 0.7559055118110236
        },
        {
          "duration": 0.14423075000000019,
          "durationTicks": 48,
          "midi": 42,
          "name": "F#2",
          "ticks": 1776,
          "time": 5.336537750000001,
          "velocity": 0.7559055118110236
        },
        {
          "duration": 0.8653845000000002,
          "durationTicks": 288,
          "midi": 38,
          "name": "D2",
          "ticks": 1824,
          "time": 5.480768500000001,
          "velocity": 0.7559055118110236
        },
        {
          "duration": 0.14423075000000019,
          "durationTicks": 48,
          "midi": 42,
          "name": "F#2",
          "ticks": 1824,
          "time": 5.480768500000001,
          "velocity": 0.7559055118110236
        },
        {
          "duration": 0.1442307499999993,
          "durationTicks": 48,
          "midi": 42,
          "name": "F#2",
          "ticks": 1872,
          "time": 5.624999250000001,
          "velocity": 0.7559055118110236
        },
        {
          "duration": 0.14423075000000019,
          "durationTicks": 48,
          "midi": 42,
          "name": "F#2",
          "ticks": 1920,
          "time": 5.76923,
          "velocity": 0.7559055118110236
        },
        {
          "duration": 0.14423075000000019,
          "durationTicks": 48,
          "midi": 42,
          "name": "F#2",
          "ticks": 1968,
          "time": 5.9134607500000005,
          "velocity": 0.7559055118110236
        },
        {
          "duration": 0.14423075000000019,
          "durationTicks": 48,
          "midi": 42,
          "name": "F#2",
          "ticks": 2016,
          "time": 6.057691500000001,
          "velocity": 0.7559055118110236
        },
        {
          "duration": 0.14423075000000019,
          "durationTicks": 48,
          "midi": 42,
          "name": "F#2",
          "ticks": 2064,
          "time": 6.201922250000001,
          "velocity": 0.7559055118110236
        },
        {
          "duration": 1.4423075,
          "durationTicks": 480,
          "midi": 38,
          "name": "D2",
          "ticks": 2112,
          "time": 6.346153000000001,
          "velocity": 0.7559055118110236
        },
        {
          "duration": 0.14423075000000019,
          "durationTicks": 48,
          "midi": 42,
          "name": "F#2",
          "ticks": 2112,
          "time": 6.346153000000001,
          "velocity": 0.7559055118110236
        },
        {
          "duration": 0.1442307499999993,
          "durationTicks": 48,
          "midi": 42,
          "name": "F#2",
          "ticks": 2160,
          "time": 6.490383750000001,
          "velocity": 0.7559055118110236
        },
        {
          "duration": 0.14423075000000019,
          "durationTicks": 48,
          "midi": 42,
          "name": "F#2",
          "ticks": 2208,
          "time": 6.6346145000000005,
          "velocity": 0.7559055118110236
        },
        {
          "duration": 0.14423075000000019,
          "durationTicks": 48,
          "midi": 42,
          "name": "F#2",
          "ticks": 2256,
          "time": 6.778845250000001,
          "velocity": 0.7559055118110236
        },
        {
          "duration": 0.28846150000000037,
          "durationTicks": 96,
          "midi": 46,
          "name": "A#2",
          "ticks": 2304,
          "time": 6.923076000000001,
          "velocity": 0.7559055118110236
        },
        {
          "duration": 0.1442307499999993,
          "durationTicks": 48,
          "midi": 42,
          "name": "F#2",
          "ticks": 2400,
          "time": 7.211537500000001,
          "velocity": 0.7559055118110236
        },
        {
          "duration": 0.14423075000000019,
          "durationTicks": 48,
          "midi": 42,
          "name": "F#2",
          "ticks": 2448,
          "time": 7.355768250000001,
          "velocity": 0.7559055118110236
        },
        {
          "duration": 0,
          "durationTicks": 0,
          "midi": 35,
          "name": "B1",
          "ticks": 2496,
          "time": 7.499999000000001,
          "velocity": 0.7559055118110236
        },
        {
          "duration": 0,
          "durationTicks": 0,
          "midi": 35,
          "name": "B1",
          "ticks": 2496,
          "time": 7.499999000000001,
          "velocity": 0.7559055118110236
        },
        {
          "duration": 2.019230500000001,
          "durationTicks": 672,
          "midi": 35,
          "name": "B1",
          "ticks": 2496,
          "time": 7.499999000000001,
          "velocity": 0.7559055118110236
        },
        {
          "duration": 0.14423075000000019,
          "durationTicks": 48,
          "midi": 42,
          "name": "F#2",
          "ticks": 2496,
          "time": 7.499999000000001,
          "velocity": 0.7559055118110236
        },
        {
          "duration": 0.14423075000000019,
          "durationTicks": 48,
          "midi": 42,
          "name": "F#2",
          "ticks": 2544,
          "time": 7.644229750000001,
          "velocity": 0.7559055118110236
        },
        {
          "duration": 0.8653844999999993,
          "durationTicks": 288,
          "midi": 38,
          "name": "D2",
          "ticks": 2592,
          "time": 7.788460500000001,
          "velocity": 0.7559055118110236
        },
        {
          "duration": 0.14423075000000019,
          "durationTicks": 48,
          "midi": 42,
          "name": "F#2",
          "ticks": 2592,
          "time": 7.788460500000001,
          "velocity": 0.7559055118110236
        },
        {
          "duration": 0.14423075000000019,
          "durationTicks": 48,
          "midi": 42,
          "name": "F#2",
          "ticks": 2640,
          "time": 7.932691250000001,
          "velocity": 0.7559055118110236
        },
        {
          "duration": 0.14423075000000019,
          "durationTicks": 48,
          "midi": 42,
          "name": "F#2",
          "ticks": 2688,
          "time": 8.076922000000001,
          "velocity": 0.7559055118110236
        },
        {
          "duration": 0.14423075000000019,
          "durationTicks": 48,
          "midi": 42,
          "name": "F#2",
          "ticks": 2736,
          "time": 8.221152750000002,
          "velocity": 0.7559055118110236
        },
        {
          "duration": 0.1442307499999984,
          "durationTicks": 48,
          "midi": 42,
          "name": "F#2",
          "ticks": 2784,
          "time": 8.365383500000002,
          "velocity": 0.7559055118110236
        },
        {
          "duration": 0.14423075000000019,
          "durationTicks": 48,
          "midi": 42,
          "name": "F#2",
          "ticks": 2832,
          "time": 8.50961425,
          "velocity": 0.7559055118110236
        },
        {
          "duration": 1.4423075,
          "durationTicks": 480,
          "midi": 38,
          "name": "D2",
          "ticks": 2880,
          "time": 8.653845,
          "velocity": 0.7559055118110236
        },
        {
          "duration": 0.14423075000000019,
          "durationTicks": 48,
          "midi": 42,
          "name": "F#2",
          "ticks": 2880,
          "time": 8.653845,
          "velocity": 0.7559055118110236
        },
        {
          "duration": 0.14423075000000019,
          "durationTicks": 48,
          "midi": 42,
          "name": "F#2",
          "ticks": 2928,
          "time": 8.79807575,
          "velocity": 0.7559055118110236
        },
        {
          "duration": 0.14423075000000019,
          "durationTicks": 48,
          "midi": 42,
          "name": "F#2",
          "ticks": 2976,
          "time": 8.9423065,
          "velocity": 0.7559055118110236
        },
        {
          "duration": 0.14423075000000019,
          "durationTicks": 48,
          "midi": 42,
          "name": "F#2",
          "ticks": 3024,
          "time": 9.086537250000001,
          "velocity": 0.7559055118110236
        },
        {
          "duration": 0.14423075000000019,
          "durationTicks": 48,
          "midi": 42,
          "name": "F#2",
          "ticks": 3072,
          "time": 9.230768000000001,
          "velocity": 0.7559055118110236
        },
        {
          "duration": 0.14423075000000019,
          "durationTicks": 48,
          "midi": 42,
          "name": "F#2",
          "ticks": 3120,
          "time": 9.374998750000001,
          "velocity": 0.7559055118110236
        },
        {
          "duration": 0,
          "durationTicks": 0,
          "midi": 35,
          "name": "B1",
          "ticks": 3168,
          "time": 9.519229500000002,
          "velocity": 0.7559055118110236
        },
        {
          "duration": 0,
          "durationTicks": 0,
          "midi": 35,
          "name": "B1",
          "ticks": 3168,
          "time": 9.519229500000002,
          "velocity": 0.7559055118110236
        },
        {
          "duration": 2.5961535,
          "durationTicks": 864,
          "midi": 35,
          "name": "B1",
          "ticks": 3168,
          "time": 9.519229500000002,
          "velocity": 0.7559055118110236
        },
        {
          "duration": 0.14423075000000019,
          "durationTicks": 48,
          "midi": 42,
          "name": "F#2",
          "ticks": 3168,
          "time": 9.519229500000002,
          "velocity": 0.7559055118110236
        },
        {
          "duration": 0.14423075000000019,
          "durationTicks": 48,
          "midi": 42,
          "name": "F#2",
          "ticks": 3216,
          "time": 9.663460250000002,
          "velocity": 0.7559055118110236
        },
        {
          "duration": 0.14423075000000019,
          "durationTicks": 48,
          "midi": 42,
          "name": "F#2",
          "ticks": 3264,
          "time": 9.807691000000002,
          "velocity": 0.7559055118110236
        },
        {
          "duration": 0.1442307499999984,
          "durationTicks": 48,
          "midi": 42,
          "name": "F#2",
          "ticks": 3312,
          "time": 9.951921750000002,
          "velocity": 0.7559055118110236
        },
        {
          "duration": 0.8653845000000011,
          "durationTicks": 288,
          "midi": 38,
          "name": "D2",
          "ticks": 3360,
          "time": 10.0961525,
          "velocity": 0.7559055118110236
        },
        {
          "duration": 0.14423075000000019,
          "durationTicks": 48,
          "midi": 42,
          "name": "F#2",
          "ticks": 3360,
          "time": 10.0961525,
          "velocity": 0.7559055118110236
        },
        {
          "duration": 0.14423075000000019,
          "durationTicks": 48,
          "midi": 42,
          "name": "F#2",
          "ticks": 3408,
          "time": 10.24038325,
          "velocity": 0.7559055118110236
        },
        {
          "duration": 0.14423075000000019,
          "durationTicks": 48,
          "midi": 42,
          "name": "F#2",
          "ticks": 3456,
          "time": 10.384614000000001,
          "velocity": 0.7559055118110236
        },
        {
          "duration": 0.14423075000000019,
          "durationTicks": 48,
          "midi": 42,
          "name": "F#2",
          "ticks": 3504,
          "time": 10.528844750000001,
          "velocity": 0.7559055118110236
        },
        {
          "duration": 0.14423075000000019,
          "durationTicks": 48,
          "midi": 42,
          "name": "F#2",
          "ticks": 3552,
          "time": 10.673075500000001,
          "velocity": 0.7559055118110236
        },
        {
          "duration": 0.14423075000000019,
          "durationTicks": 48,
          "midi": 42,
          "name": "F#2",
          "ticks": 3600,
          "time": 10.817306250000001,
          "velocity": 0.7559055118110236
        },
        {
          "duration": 1.4423075,
          "durationTicks": 480,
          "midi": 38,
          "name": "D2",
          "ticks": 3648,
          "time": 10.961537000000002,
          "velocity": 0.7559055118110236
        },
        {
          "duration": 0.14423075000000019,
          "durationTicks": 48,
          "midi": 42,
          "name": "F#2",
          "ticks": 3648,
          "time": 10.961537000000002,
          "velocity": 0.7559055118110236
        },
        {
          "duration": 0.14423075000000019,
          "durationTicks": 48,
          "midi": 42,
          "name": "F#2",
          "ticks": 3696,
          "time": 11.105767750000002,
          "velocity": 0.7559055118110236
        },
        {
          "duration": 0.14423075000000019,
          "durationTicks": 48,
          "midi": 42,
          "name": "F#2",
          "ticks": 3744,
          "time": 11.249998500000002,
          "velocity": 0.7559055118110236
        },
        {
          "duration": 0.1442307499999984,
          "durationTicks": 48,
          "midi": 42,
          "name": "F#2",
          "ticks": 3792,
          "time": 11.394229250000002,
          "velocity": 0.7559055118110236
        },
        {
          "duration": 0.28846150000000037,
          "durationTicks": 96,
          "midi": 46,
          "name": "A#2",
          "ticks": 3840,
          "time": 11.53846,
          "velocity": 0.7559055118110236
        },
        {
          "duration": 0.14423075000000019,
          "durationTicks": 48,
          "midi": 42,
          "name": "F#2",
          "ticks": 3936,
          "time": 11.826921500000001,
          "velocity": 0.7559055118110236
        },
        {
          "duration": 0.14423075000000019,
          "durationTicks": 48,
          "midi": 42,
          "name": "F#2",
          "ticks": 3984,
          "time": 11.971152250000001,
          "velocity": 0.7559055118110236
        },
        {
          "duration": 0,
          "durationTicks": 0,
          "midi": 35,
          "name": "B1",
          "ticks": 4032,
          "time": 12.115383000000001,
          "velocity": 0.7559055118110236
        },
        {
          "duration": 0,
          "durationTicks": 0,
          "midi": 35,
          "name": "B1",
          "ticks": 4032,
          "time": 12.115383000000001,
          "velocity": 0.7559055118110236
        },
        {
          "duration": 2.019230500000001,
          "durationTicks": 672,
          "midi": 35,
          "name": "B1",
          "ticks": 4032,
          "time": 12.115383000000001,
          "velocity": 0.7559055118110236
        },
        {
          "duration": 0.14423075000000019,
          "durationTicks": 48,
          "midi": 42,
          "name": "F#2",
          "ticks": 4032,
          "time": 12.115383000000001,
          "velocity": 0.7559055118110236
        },
        {
          "duration": 0.14423075000000019,
          "durationTicks": 48,
          "midi": 42,
          "name": "F#2",
          "ticks": 4080,
          "time": 12.259613750000002,
          "velocity": 0.7559055118110236
        },
        {
          "duration": 0.8653844999999993,
          "durationTicks": 288,
          "midi": 38,
          "name": "D2",
          "ticks": 4128,
          "time": 12.403844500000002,
          "velocity": 0.7559055118110236
        },
        {
          "duration": 0.14423075000000019,
          "durationTicks": 48,
          "midi": 42,
          "name": "F#2",
          "ticks": 4128,
          "time": 12.403844500000002,
          "velocity": 0.7559055118110236
        },
        {
          "duration": 0.14423075000000019,
          "durationTicks": 48,
          "midi": 42,
          "name": "F#2",
          "ticks": 4176,
          "time": 12.548075250000002,
          "velocity": 0.7559055118110236
        },
        {
          "duration": 0.14423075000000019,
          "durationTicks": 48,
          "midi": 42,
          "name": "F#2",
          "ticks": 4224,
          "time": 12.692306000000002,
          "velocity": 0.7559055118110236
        },
        {
          "duration": 0.14423075000000019,
          "durationTicks": 48,
          "midi": 42,
          "name": "F#2",
          "ticks": 4272,
          "time": 12.836536750000002,
          "velocity": 0.7559055118110236
        },
        {
          "duration": 0.1442307499999984,
          "durationTicks": 48,
          "midi": 42,
          "name": "F#2",
          "ticks": 4320,
          "time": 12.980767500000002,
          "velocity": 0.7559055118110236
        },
        {
          "duration": 0.14423075000000019,
          "durationTicks": 48,
          "midi": 42,
          "name": "F#2",
          "ticks": 4368,
          "time": 13.12499825,
          "velocity": 0.7559055118110236
        },
        {
          "duration": 1.4423075,
          "durationTicks": 480,
          "midi": 38,
          "name": "D2",
          "ticks": 4416,
          "time": 13.269229000000001,
          "velocity": 0.7559055118110236
        },
        {
          "duration": 0.14423075000000019,
          "durationTicks": 48,
          "midi": 42,
          "name": "F#2",
          "ticks": 4416,
          "time": 13.269229000000001,
          "velocity": 0.7559055118110236
        },
        {
          "duration": 0.14423075000000019,
          "durationTicks": 48,
          "midi": 42,
          "name": "F#2",
          "ticks": 4464,
          "time": 13.413459750000001,
          "velocity": 0.7559055118110236
        },
        {
          "duration": 0.14423075000000019,
          "durationTicks": 48,
          "midi": 42,
          "name": "F#2",
          "ticks": 4512,
          "time": 13.557690500000001,
          "velocity": 0.7559055118110236
        },
        {
          "duration": 0.14423075000000019,
          "durationTicks": 48,
          "midi": 42,
          "name": "F#2",
          "ticks": 4560,
          "time": 13.701921250000002,
          "velocity": 0.7559055118110236
        },
        {
          "duration": 0.14423075000000019,
          "durationTicks": 48,
          "midi": 42,
          "name": "F#2",
          "ticks": 4608,
          "time": 13.846152000000002,
          "velocity": 0.7559055118110236
        },
        {
          "duration": 0.14423075000000019,
          "durationTicks": 48,
          "midi": 42,
          "name": "F#2",
          "ticks": 4656,
          "time": 13.990382750000002,
          "velocity": 0.7559055118110236
        },
        {
          "duration": 0,
          "durationTicks": 0,
          "midi": 35,
          "name": "B1",
          "ticks": 4704,
          "time": 14.134613500000002,
          "velocity": 0.7559055118110236
        },
        {
          "duration": 0,
          "durationTicks": 0,
          "midi": 35,
          "name": "B1",
          "ticks": 4704,
          "time": 14.134613500000002,
          "velocity": 0.7559055118110236
        },
        {
          "duration": 2.5961535000000016,
          "durationTicks": 864,
          "midi": 35,
          "name": "B1",
          "ticks": 4704,
          "time": 14.134613500000002,
          "velocity": 0.7559055118110236
        },
        {
          "duration": 0.14423075000000019,
          "durationTicks": 48,
          "midi": 42,
          "name": "F#2",
          "ticks": 4704,
          "time": 14.134613500000002,
          "velocity": 0.7559055118110236
        },
        {
          "duration": 0.14423075000000019,
          "durationTicks": 48,
          "midi": 42,
          "name": "F#2",
          "ticks": 4752,
          "time": 14.278844250000002,
          "velocity": 0.7559055118110236
        },
        {
          "duration": 0.14423075000000019,
          "durationTicks": 48,
          "midi": 42,
          "name": "F#2",
          "ticks": 4800,
          "time": 14.423075000000003,
          "velocity": 0.7559055118110236
        },
        {
          "duration": 0.1442307499999984,
          "durationTicks": 48,
          "midi": 42,
          "name": "F#2",
          "ticks": 4848,
          "time": 14.567305750000003,
          "velocity": 0.7559055118110236
        },
        {
          "duration": 0.8653845000000011,
          "durationTicks": 288,
          "midi": 38,
          "name": "D2",
          "ticks": 4896,
          "time": 14.711536500000001,
          "velocity": 0.7559055118110236
        },
        {
          "duration": 0.14423075000000019,
          "durationTicks": 48,
          "midi": 42,
          "name": "F#2",
          "ticks": 4896,
          "time": 14.711536500000001,
          "velocity": 0.7559055118110236
        },
        {
          "duration": 0.14423075000000019,
          "durationTicks": 48,
          "midi": 42,
          "name": "F#2",
          "ticks": 4944,
          "time": 14.855767250000001,
          "velocity": 0.7559055118110236
        },
        {
          "duration": 0.14423075000000019,
          "durationTicks": 48,
          "midi": 42,
          "name": "F#2",
          "ticks": 4992,
          "time": 14.999998000000001,
          "velocity": 0.7559055118110236
        },
        {
          "duration": 0.14423075000000019,
          "durationTicks": 48,
          "midi": 42,
          "name": "F#2",
          "ticks": 5040,
          "time": 15.144228750000002,
          "velocity": 0.7559055118110236
        },
        {
          "duration": 0.14423075000000019,
          "durationTicks": 48,
          "midi": 42,
          "name": "F#2",
          "ticks": 5088,
          "time": 15.288459500000002,
          "velocity": 0.7559055118110236
        },
        {
          "duration": 0.14423075000000019,
          "durationTicks": 48,
          "midi": 42,
          "name": "F#2",
          "ticks": 5136,
          "time": 15.432690250000002,
          "velocity": 0.7559055118110236
        },
        {
          "duration": 1.4423074999999983,
          "durationTicks": 480,
          "midi": 38,
          "name": "D2",
          "ticks": 5184,
          "time": 15.576921000000002,
          "velocity": 0.7559055118110236
        },
        {
          "duration": 0.14423075000000019,
          "durationTicks": 48,
          "midi": 42,
          "name": "F#2",
          "ticks": 5184,
          "time": 15.576921000000002,
          "velocity": 0.7559055118110236
        },
        {
          "duration": 0.14423075000000019,
          "durationTicks": 48,
          "midi": 42,
          "name": "F#2",
          "ticks": 5232,
          "time": 15.721151750000002,
          "velocity": 0.7559055118110236
        },
        {
          "duration": 0.1442307499999984,
          "durationTicks": 48,
          "midi": 42,
          "name": "F#2",
          "ticks": 5280,
          "time": 15.865382500000003,
          "velocity": 0.7559055118110236
        },
        {
          "duration": 0.14423075000000196,
          "durationTicks": 48,
          "midi": 42,
          "name": "F#2",
          "ticks": 5328,
          "time": 16.00961325,
          "velocity": 0.7559055118110236
        },
        {
          "duration": 0.28846150000000037,
          "durationTicks": 96,
          "midi": 46,
          "name": "A#2",
          "ticks": 5376,
          "time": 16.153844000000003,
          "velocity": 0.7559055118110236
        },
        {
          "duration": 0.1442307499999984,
          "durationTicks": 48,
          "midi": 42,
          "name": "F#2",
          "ticks": 5472,
          "time": 16.442305500000003,
          "velocity": 0.7559055118110236
        },
        {
          "duration": 0.14423075000000196,
          "durationTicks": 48,
          "midi": 42,
          "name": "F#2",
          "ticks": 5520,
          "time": 16.58653625,
          "velocity": 0.7559055118110236
        },
        {
          "duration": 0,
          "durationTicks": 0,
          "midi": 35,
          "name": "B1",
          "ticks": 5568,
          "time": 16.730767000000004,
          "velocity": 0.7559055118110236
        },
        {
          "duration": 0,
          "durationTicks": 0,
          "midi": 35,
          "name": "B1",
          "ticks": 5568,
          "time": 16.730767000000004,
          "velocity": 0.7559055118110236
        },
        {
          "duration": 2.019230499999999,
          "durationTicks": 672,
          "midi": 35,
          "name": "B1",
          "ticks": 5568,
          "time": 16.730767000000004,
          "velocity": 0.7559055118110236
        },
        {
          "duration": 0.1442307499999984,
          "durationTicks": 48,
          "midi": 42,
          "name": "F#2",
          "ticks": 5568,
          "time": 16.730767000000004,
          "velocity": 0.7559055118110236
        },
        {
          "duration": 0.1442307499999984,
          "durationTicks": 48,
          "midi": 42,
          "name": "F#2",
          "ticks": 5616,
          "time": 16.874997750000002,
          "velocity": 0.7559055118110236
        },
        {
          "duration": 0.8653845000000011,
          "durationTicks": 288,
          "midi": 38,
          "name": "D2",
          "ticks": 5664,
          "time": 17.0192285,
          "velocity": 0.7559055118110236
        },
        {
          "duration": 0.14423075000000196,
          "durationTicks": 48,
          "midi": 42,
          "name": "F#2",
          "ticks": 5664,
          "time": 17.0192285,
          "velocity": 0.7559055118110236
        },
        {
          "duration": 0.1442307499999984,
          "durationTicks": 48,
          "midi": 42,
          "name": "F#2",
          "ticks": 5712,
          "time": 17.163459250000002,
          "velocity": 0.7559055118110236
        },
        {
          "duration": 0.14423075000000196,
          "durationTicks": 48,
          "midi": 42,
          "name": "F#2",
          "ticks": 5760,
          "time": 17.30769,
          "velocity": 0.7559055118110236
        },
        {
          "duration": 0.1442307499999984,
          "durationTicks": 48,
          "midi": 42,
          "name": "F#2",
          "ticks": 5808,
          "time": 17.451920750000003,
          "velocity": 0.7559055118110236
        },
        {
          "duration": 0.14423075000000196,
          "durationTicks": 48,
          "midi": 42,
          "name": "F#2",
          "ticks": 5856,
          "time": 17.5961515,
          "velocity": 0.7559055118110236
        },
        {
          "duration": 0.1442307499999984,
          "durationTicks": 48,
          "midi": 42,
          "name": "F#2",
          "ticks": 5904,
          "time": 17.740382250000003,
          "velocity": 0.7559055118110236
        },
        {
          "duration": 1.4423075000000019,
          "durationTicks": 480,
          "midi": 38,
          "name": "D2",
          "ticks": 5952,
          "time": 17.884613,
          "velocity": 0.7559055118110236
        },
        {
          "duration": 0.14423075000000196,
          "durationTicks": 48,
          "midi": 42,
          "name": "F#2",
          "ticks": 5952,
          "time": 17.884613,
          "velocity": 0.7559055118110236
        },
        {
          "duration": 0.1442307499999984,
          "durationTicks": 48,
          "midi": 42,
          "name": "F#2",
          "ticks": 6000,
          "time": 18.028843750000004,
          "velocity": 0.7559055118110236
        },
        {
          "duration": 0.14423075000000196,
          "durationTicks": 48,
          "midi": 42,
          "name": "F#2",
          "ticks": 6048,
          "time": 18.173074500000002,
          "velocity": 0.7559055118110236
        },
        {
          "duration": 0.1442307499999984,
          "durationTicks": 48,
          "midi": 42,
          "name": "F#2",
          "ticks": 6096,
          "time": 18.317305250000004,
          "velocity": 0.7559055118110236
        },
        {
          "duration": 0.1442307499999984,
          "durationTicks": 48,
          "midi": 42,
          "name": "F#2",
          "ticks": 6144,
          "time": 18.461536000000002,
          "velocity": 0.7559055118110236
        },
        {
          "duration": 0.43269225000000233,
          "durationTicks": 144,
          "midi": 42,
          "name": "F#2",
          "ticks": 6192,
          "time": 18.60576675,
          "velocity": 0.7559055118110236
        },
        {
          "duration": 0,
          "durationTicks": 0,
          "midi": 35,
          "name": "B1",
          "ticks": 6240,
          "time": 18.749997500000003,
          "velocity": 0.7559055118110236
        },
        {
          "duration": 0,
          "durationTicks": 0,
          "midi": 35,
          "name": "B1",
          "ticks": 6240,
          "time": 18.749997500000003,
          "velocity": 0.7559055118110236
        },
        {
          "duration": 0.5769230000000007,
          "durationTicks": 192,
          "midi": 35,
          "name": "B1",
          "ticks": 6240,
          "time": 18.749997500000003,
          "velocity": 0.7559055118110236
        },
        {
          "duration": 8.653845,
          "durationTicks": 2880,
          "midi": 49,
          "name": "C#3",
          "ticks": 6240,
          "time": 18.749997500000003,
          "velocity": 0.7559055118110236
        },
        {
          "duration": 0.28846150000000037,
          "durationTicks": 96,
          "midi": 46,
          "name": "A#2",
          "ticks": 6336,
          "time": 19.038459000000003,
          "velocity": 0.6377952755905512
        },
        {
          "duration": 0,
          "durationTicks": 0,
          "midi": 38,
          "name": "D2",
          "ticks": 6432,
          "time": 19.326920500000003,
          "velocity": 0.7559055118110236
        },
        {
          "duration": 0.8653844999999976,
          "durationTicks": 288,
          "midi": 38,
          "name": "D2",
          "ticks": 6432,
          "time": 19.326920500000003,
          "velocity": 0.7559055118110236
        },
        {
          "duration": 0.28846150000000037,
          "durationTicks": 96,
          "midi": 46,
          "name": "A#2",
          "ticks": 6432,
          "time": 19.326920500000003,
          "velocity": 0.7559055118110236
        },
        {
          "duration": 0.28846150000000037,
          "durationTicks": 96,
          "midi": 46,
          "name": "A#2",
          "ticks": 6528,
          "time": 19.615382000000004,
          "velocity": 0.7559055118110236
        },
        {
          "duration": 0,
          "durationTicks": 0,
          "midi": 35,
          "name": "B1",
          "ticks": 6624,
          "time": 19.903843500000004,
          "velocity": 0.7559055118110236
        },
        {
          "duration": 0,
          "durationTicks": 0,
          "midi": 35,
          "name": "B1",
          "ticks": 6624,
          "time": 19.903843500000004,
          "velocity": 0.7559055118110236
        },
        {
          "duration": 0.2884614999999968,
          "durationTicks": 96,
          "midi": 35,
          "name": "B1",
          "ticks": 6624,
          "time": 19.903843500000004,
          "velocity": 0.7559055118110236
        },
        {
          "duration": 0.2884614999999968,
          "durationTicks": 96,
          "midi": 46,
          "name": "A#2",
          "ticks": 6624,
          "time": 19.903843500000004,
          "velocity": 0.7559055118110236
        },
        {
          "duration": 0,
          "durationTicks": 0,
          "midi": 38,
          "name": "D2",
          "ticks": 6720,
          "time": 20.192305,
          "velocity": 0.7559055118110236
        },
        {
          "duration": 1.4423075000000019,
          "durationTicks": 480,
          "midi": 38,
          "name": "D2",
          "ticks": 6720,
          "time": 20.192305,
          "velocity": 0.7559055118110236
        },
        {
          "duration": 0.28846150000000037,
          "durationTicks": 96,
          "midi": 46,
          "name": "A#2",
          "ticks": 6720,
          "time": 20.192305,
          "velocity": 0.7559055118110236
        },
        {
          "duration": 0.28846150000000037,
          "durationTicks": 96,
          "midi": 46,
          "name": "A#2",
          "ticks": 6816,
          "time": 20.4807665,
          "velocity": 0.7559055118110236
        },
        {
          "duration": 0.28846150000000037,
          "durationTicks": 96,
          "midi": 46,
          "name": "A#2",
          "ticks": 6912,
          "time": 20.769228000000002,
          "velocity": 0.7559055118110236
        },
        {
          "duration": 0,
          "durationTicks": 0,
          "midi": 35,
          "name": "B1",
          "ticks": 7008,
          "time": 21.057689500000002,
          "velocity": 0.7559055118110236
        },
        {
          "duration": 0,
          "durationTicks": 0,
          "midi": 35,
          "name": "B1",
          "ticks": 7008,
          "time": 21.057689500000002,
          "velocity": 0.7559055118110236
        },
        {
          "duration": 0.28846150000000037,
          "durationTicks": 96,
          "midi": 35,
          "name": "B1",
          "ticks": 7008,
          "time": 21.057689500000002,
          "velocity": 0.7559055118110236
        },
        {
          "duration": 0.28846150000000037,
          "durationTicks": 96,
          "midi": 46,
          "name": "A#2",
          "ticks": 7008,
          "time": 21.057689500000002,
          "velocity": 0.7559055118110236
        },
        {
          "duration": 0,
          "durationTicks": 0,
          "midi": 35,
          "name": "B1",
          "ticks": 7104,
          "time": 21.346151000000003,
          "velocity": 0.7559055118110236
        },
        {
          "duration": 0,
          "durationTicks": 0,
          "midi": 35,
          "name": "B1",
          "ticks": 7104,
          "time": 21.346151000000003,
          "velocity": 0.7559055118110236
        },
        {
          "duration": 0.28846150000000037,
          "durationTicks": 96,
          "midi": 35,
          "name": "B1",
          "ticks": 7104,
          "time": 21.346151000000003,
          "velocity": 0.7559055118110236
        },
        {
          "duration": 0.28846150000000037,
          "durationTicks": 96,
          "midi": 46,
          "name": "A#2",
          "ticks": 7104,
          "time": 21.346151000000003,
          "velocity": 0.7559055118110236
        },
        {
          "duration": 0,
          "durationTicks": 0,
          "midi": 38,
          "name": "D2",
          "ticks": 7200,
          "time": 21.634612500000003,
          "velocity": 0.7559055118110236
        },
        {
          "duration": 0.8653845000000011,
          "durationTicks": 288,
          "midi": 38,
          "name": "D2",
          "ticks": 7200,
          "time": 21.634612500000003,
          "velocity": 0.7559055118110236
        },
        {
          "duration": 0.28846150000000037,
          "durationTicks": 96,
          "midi": 46,
          "name": "A#2",
          "ticks": 7200,
          "time": 21.634612500000003,
          "velocity": 0.7559055118110236
        },
        {
          "duration": 0.28846150000000037,
          "durationTicks": 96,
          "midi": 46,
          "name": "A#2",
          "ticks": 7296,
          "time": 21.923074000000003,
          "velocity": 0.7559055118110236
        },
        {
          "duration": 0,
          "durationTicks": 0,
          "midi": 35,
          "name": "B1",
          "ticks": 7392,
          "time": 22.211535500000004,
          "velocity": 0.7559055118110236
        },
        {
          "duration": 0,
          "durationTicks": 0,
          "midi": 35,
          "name": "B1",
          "ticks": 7392,
          "time": 22.211535500000004,
          "velocity": 0.7559055118110236
        },
        {
          "duration": 0.28846150000000037,
          "durationTicks": 96,
          "midi": 35,
          "name": "B1",
          "ticks": 7392,
          "time": 22.211535500000004,
          "velocity": 0.7559055118110236
        },
        {
          "duration": 0.28846150000000037,
          "durationTicks": 96,
          "midi": 46,
          "name": "A#2",
          "ticks": 7392,
          "time": 22.211535500000004,
          "velocity": 0.7559055118110236
        },
        {
          "duration": 0,
          "durationTicks": 0,
          "midi": 38,
          "name": "D2",
          "ticks": 7488,
          "time": 22.499997000000004,
          "velocity": 0.7559055118110236
        },
        {
          "duration": 1.4423074999999983,
          "durationTicks": 480,
          "midi": 38,
          "name": "D2",
          "ticks": 7488,
          "time": 22.499997000000004,
          "velocity": 0.7559055118110236
        },
        {
          "duration": 0.28846150000000037,
          "durationTicks": 96,
          "midi": 46,
          "name": "A#2",
          "ticks": 7488,
          "time": 22.499997000000004,
          "velocity": 0.7559055118110236
        },
        {
          "duration": 0.2884614999999968,
          "durationTicks": 96,
          "midi": 46,
          "name": "A#2",
          "ticks": 7584,
          "time": 22.788458500000004,
          "velocity": 0.7559055118110236
        },
        {
          "duration": 0.28846150000000037,
          "durationTicks": 96,
          "midi": 46,
          "name": "A#2",
          "ticks": 7680,
          "time": 23.07692,
          "velocity": 0.7559055118110236
        },
        {
          "duration": 0,
          "durationTicks": 0,
          "midi": 35,
          "name": "B1",
          "ticks": 7776,
          "time": 23.3653815,
          "velocity": 0.7559055118110236
        },
        {
          "duration": 0,
          "durationTicks": 0,
          "midi": 35,
          "name": "B1",
          "ticks": 7776,
          "time": 23.3653815,
          "velocity": 0.7559055118110236
        },
        {
          "duration": 0.5769230000000007,
          "durationTicks": 192,
          "midi": 35,
          "name": "B1",
          "ticks": 7776,
          "time": 23.3653815,
          "velocity": 0.7559055118110236
        },
        {
          "duration": 0.28846150000000037,
          "durationTicks": 96,
          "midi": 46,
          "name": "A#2",
          "ticks": 7776,
          "time": 23.3653815,
          "velocity": 0.7559055118110236
        },
        {
          "duration": 0.28846150000000037,
          "durationTicks": 96,
          "midi": 46,
          "name": "A#2",
          "ticks": 7872,
          "time": 23.653843000000002,
          "velocity": 0.7559055118110236
        },
        {
          "duration": 0,
          "durationTicks": 0,
          "midi": 38,
          "name": "D2",
          "ticks": 7968,
          "time": 23.942304500000002,
          "velocity": 0.7559055118110236
        },
        {
          "duration": 0.8653845000000011,
          "durationTicks": 288,
          "midi": 38,
          "name": "D2",
          "ticks": 7968,
          "time": 23.942304500000002,
          "velocity": 0.7559055118110236
        },
        {
          "duration": 0.28846150000000037,
          "durationTicks": 96,
          "midi": 46,
          "name": "A#2",
          "ticks": 7968,
          "time": 23.942304500000002,
          "velocity": 0.7559055118110236
        },
        {
          "duration": 0.28846150000000037,
          "durationTicks": 96,
          "midi": 46,
          "name": "A#2",
          "ticks": 8064,
          "time": 24.230766000000003,
          "velocity": 0.7559055118110236
        },
        {
          "duration": 0,
          "durationTicks": 0,
          "midi": 35,
          "name": "B1",
          "ticks": 8160,
          "time": 24.519227500000003,
          "velocity": 0.7559055118110236
        },
        {
          "duration": 0,
          "durationTicks": 0,
          "midi": 35,
          "name": "B1",
          "ticks": 8160,
          "time": 24.519227500000003,
          "velocity": 0.7559055118110236
        },
        {
          "duration": 0.28846150000000037,
          "durationTicks": 96,
          "midi": 35,
          "name": "B1",
          "ticks": 8160,
          "time": 24.519227500000003,
          "velocity": 0.7559055118110236
        },
        {
          "duration": 0.28846150000000037,
          "durationTicks": 96,
          "midi": 46,
          "name": "A#2",
          "ticks": 8160,
          "time": 24.519227500000003,
          "velocity": 0.7559055118110236
        },
        {
          "duration": 0,
          "durationTicks": 0,
          "midi": 38,
          "name": "D2",
          "ticks": 8256,
          "time": 24.807689000000003,
          "velocity": 0.7559055118110236
        },
        {
          "duration": 0.8653845000000011,
          "durationTicks": 288,
          "midi": 38,
          "name": "D2",
          "ticks": 8256,
          "time": 24.807689000000003,
          "velocity": 0.7559055118110236
        },
        {
          "duration": 0.28846150000000037,
          "durationTicks": 96,
          "midi": 46,
          "name": "A#2",
          "ticks": 8256,
          "time": 24.807689000000003,
          "velocity": 0.7559055118110236
        },
        {
          "duration": 0.28846150000000037,
          "durationTicks": 96,
          "midi": 46,
          "name": "A#2",
          "ticks": 8352,
          "time": 25.096150500000004,
          "velocity": 0.7559055118110236
        },
        {
          "duration": 0.28846150000000037,
          "durationTicks": 96,
          "midi": 46,
          "name": "A#2",
          "ticks": 8448,
          "time": 25.384612000000004,
          "velocity": 0.7559055118110236
        },
        {
          "duration": 0,
          "durationTicks": 0,
          "midi": 38,
          "name": "D2",
          "ticks": 8544,
          "time": 25.673073500000005,
          "velocity": 0.7559055118110236
        },
        {
          "duration": 0.8653844999999976,
          "durationTicks": 288,
          "midi": 38,
          "name": "D2",
          "ticks": 8544,
          "time": 25.673073500000005,
          "velocity": 0.7559055118110236
        },
        {
          "duration": 0.28846150000000037,
          "durationTicks": 96,
          "midi": 46,
          "name": "A#2",
          "ticks": 8544,
          "time": 25.673073500000005,
          "velocity": 0.7559055118110236
        },
        {
          "duration": 0,
          "durationTicks": 0,
          "midi": 35,
          "name": "B1",
          "ticks": 8592,
          "time": 25.817304250000003,
          "velocity": 0.7559055118110236
        },
        {
          "duration": 0,
          "durationTicks": 0,
          "midi": 35,
          "name": "B1",
          "ticks": 8592,
          "time": 25.817304250000003,
          "velocity": 0.7559055118110236
        },
        {
          "duration": 0.14423075000000196,
          "durationTicks": 48,
          "midi": 35,
          "name": "B1",
          "ticks": 8592,
          "time": 25.817304250000003,
          "velocity": 0.7559055118110236
        },
        {
          "duration": 0,
          "durationTicks": 0,
          "midi": 35,
          "name": "B1",
          "ticks": 8640,
          "time": 25.961535000000005,
          "velocity": 0.7559055118110236
        },
        {
          "duration": 0,
          "durationTicks": 0,
          "midi": 35,
          "name": "B1",
          "ticks": 8640,
          "time": 25.961535000000005,
          "velocity": 0.7559055118110236
        },
        {
          "duration": 0.2884614999999968,
          "durationTicks": 96,
          "midi": 35,
          "name": "B1",
          "ticks": 8640,
          "time": 25.961535000000005,
          "velocity": 0.7559055118110236
        },
        {
          "duration": 0.2884614999999968,
          "durationTicks": 96,
          "midi": 46,
          "name": "A#2",
          "ticks": 8640,
          "time": 25.961535000000005,
          "velocity": 0.7559055118110236
        },
        {
          "duration": 0,
          "durationTicks": 0,
          "midi": 35,
          "name": "B1",
          "ticks": 8736,
          "time": 26.2499965,
          "velocity": 0.7559055118110236
        },
        {
          "duration": 0,
          "durationTicks": 0,
          "midi": 35,
          "name": "B1",
          "ticks": 8736,
          "time": 26.2499965,
          "velocity": 0.7559055118110236
        },
        {
          "duration": 0.28846150000000037,
          "durationTicks": 96,
          "midi": 35,
          "name": "B1",
          "ticks": 8736,
          "time": 26.2499965,
          "velocity": 0.7559055118110236
        },
        {
          "duration": 0.28846150000000037,
          "durationTicks": 96,
          "midi": 46,
          "name": "A#2",
          "ticks": 8736,
          "time": 26.2499965,
          "velocity": 0.7559055118110236
        },
        {
          "duration": 0,
          "durationTicks": 0,
          "midi": 38,
          "name": "D2",
          "ticks": 8832,
          "time": 26.538458000000002,
          "velocity": 0.7559055118110236
        },
        {
          "duration": 0.8653845000000011,
          "durationTicks": 288,
          "midi": 38,
          "name": "D2",
          "ticks": 8832,
          "time": 26.538458000000002,
          "velocity": 0.7559055118110236
        },
        {
          "duration": 0.28846150000000037,
          "durationTicks": 96,
          "midi": 46,
          "name": "A#2",
          "ticks": 8832,
          "time": 26.538458000000002,
          "velocity": 0.7559055118110236
        },
        {
          "duration": 0,
          "durationTicks": 0,
          "midi": 35,
          "name": "B1",
          "ticks": 8880,
          "time": 26.682688750000004,
          "velocity": 0.7559055118110236
        },
        {
          "duration": 0,
          "durationTicks": 0,
          "midi": 35,
          "name": "B1",
          "ticks": 8880,
          "time": 26.682688750000004,
          "velocity": 0.7559055118110236
        },
        {
          "duration": 0.1442307499999984,
          "durationTicks": 48,
          "midi": 35,
          "name": "B1",
          "ticks": 8880,
          "time": 26.682688750000004,
          "velocity": 0.7559055118110236
        },
        {
          "duration": 0,
          "durationTicks": 0,
          "midi": 35,
          "name": "B1",
          "ticks": 8928,
          "time": 26.826919500000002,
          "velocity": 0.7559055118110236
        },
        {
          "duration": 0,
          "durationTicks": 0,
          "midi": 35,
          "name": "B1",
          "ticks": 8928,
          "time": 26.826919500000002,
          "velocity": 0.7559055118110236
        },
        {
          "duration": 0.28846150000000037,
          "durationTicks": 96,
          "midi": 35,
          "name": "B1",
          "ticks": 8928,
          "time": 26.826919500000002,
          "velocity": 0.7559055118110236
        },
        {
          "duration": 0.28846150000000037,
          "durationTicks": 96,
          "midi": 46,
          "name": "A#2",
          "ticks": 8928,
          "time": 26.826919500000002,
          "velocity": 0.7559055118110236
        },
        {
          "duration": 0,
          "durationTicks": 0,
          "midi": 35,
          "name": "B1",
          "ticks": 9024,
          "time": 27.115381000000003,
          "velocity": 0.7559055118110236
        },
        {
          "duration": 0,
          "durationTicks": 0,
          "midi": 35,
          "name": "B1",
          "ticks": 9024,
          "time": 27.115381000000003,
          "velocity": 0.7559055118110236
        },
        {
          "duration": 0.28846150000000037,
          "durationTicks": 96,
          "midi": 35,
          "name": "B1",
          "ticks": 9024,
          "time": 27.115381000000003,
          "velocity": 0.7559055118110236
        },
        {
          "duration": 0.8653845000000011,
          "durationTicks": 288,
          "midi": 46,
          "name": "A#2",
          "ticks": 9024,
          "time": 27.115381000000003,
          "velocity": 0.7559055118110236
        },
        {
          "duration": 0,
          "durationTicks": 0,
          "midi": 38,
          "name": "D2",
          "ticks": 9120,
          "time": 27.403842500000003,
          "velocity": 0.7559055118110236
        },
        {
          "duration": 1.1538460000000015,
          "durationTicks": 384,
          "midi": 38,
          "name": "D2",
          "ticks": 9120,
          "time": 27.403842500000003,
          "velocity": 0.7559055118110236
        },
        {
          "duration": 9.807690999999998,
          "durationTicks": 3264,
          "midi": 57,
          "name": "A3",
          "ticks": 9120,
          "time": 27.403842500000003,
          "velocity": 0.7559055118110236
        },
        {
          "duration": 0,
          "durationTicks": 0,
          "midi": 35,
          "name": "B1",
          "ticks": 9312,
          "time": 27.980765500000004,
          "velocity": 0.7559055118110236
        },
        {
          "duration": 0,
          "durationTicks": 0,
          "midi": 35,
          "name": "B1",
          "ticks": 9312,
          "time": 27.980765500000004,
          "velocity": 0.7559055118110236
        },
        {
          "duration": 0.5769230000000007,
          "durationTicks": 192,
          "midi": 35,
          "name": "B1",
          "ticks": 9312,
          "time": 27.980765500000004,
          "velocity": 0.7559055118110236
        },
        {
          "duration": 0.28846150000000037,
          "durationTicks": 96,
          "midi": 46,
          "name": "A#2",
          "ticks": 9312,
          "time": 27.980765500000004,
          "velocity": 0.7559055118110236
        },
        {
          "duration": 0.28846150000000037,
          "durationTicks": 96,
          "midi": 46,
          "name": "A#2",
          "ticks": 9408,
          "time": 28.269227000000004,
          "velocity": 0.7559055118110236
        },
        {
          "duration": 0,
          "durationTicks": 0,
          "midi": 38,
          "name": "D2",
          "ticks": 9504,
          "time": 28.557688500000005,
          "velocity": 0.7559055118110236
        },
        {
          "duration": 0.8653844999999976,
          "durationTicks": 288,
          "midi": 38,
          "name": "D2",
          "ticks": 9504,
          "time": 28.557688500000005,
          "velocity": 0.7559055118110236
        },
        {
          "duration": 0.28846150000000037,
          "durationTicks": 96,
          "midi": 46,
          "name": "A#2",
          "ticks": 9504,
          "time": 28.557688500000005,
          "velocity": 0.7559055118110236
        },
        {
          "duration": 0.28846150000000037,
          "durationTicks": 96,
          "midi": 46,
          "name": "A#2",
          "ticks": 9600,
          "time": 28.846150000000005,
          "velocity": 0.7559055118110236
        },
        {
          "duration": 0,
          "durationTicks": 0,
          "midi": 35,
          "name": "B1",
          "ticks": 9696,
          "time": 29.134611500000005,
          "velocity": 0.7559055118110236
        },
        {
          "duration": 0,
          "durationTicks": 0,
          "midi": 35,
          "name": "B1",
          "ticks": 9696,
          "time": 29.134611500000005,
          "velocity": 0.7559055118110236
        },
        {
          "duration": 0.2884614999999968,
          "durationTicks": 96,
          "midi": 35,
          "name": "B1",
          "ticks": 9696,
          "time": 29.134611500000005,
          "velocity": 0.7559055118110236
        },
        {
          "duration": 0.2884614999999968,
          "durationTicks": 96,
          "midi": 46,
          "name": "A#2",
          "ticks": 9696,
          "time": 29.134611500000005,
          "velocity": 0.7559055118110236
        },
        {
          "duration": 0,
          "durationTicks": 0,
          "midi": 38,
          "name": "D2",
          "ticks": 9792,
          "time": 29.423073000000002,
          "velocity": 0.7559055118110236
        },
        {
          "duration": 1.4423075000000019,
          "durationTicks": 480,
          "midi": 38,
          "name": "D2",
          "ticks": 9792,
          "time": 29.423073000000002,
          "velocity": 0.7559055118110236
        },
        {
          "duration": 0.28846150000000037,
          "durationTicks": 96,
          "midi": 46,
          "name": "A#2",
          "ticks": 9792,
          "time": 29.423073000000002,
          "velocity": 0.7559055118110236
        },
        {
          "duration": 0.28846150000000037,
          "durationTicks": 96,
          "midi": 46,
          "name": "A#2",
          "ticks": 9888,
          "time": 29.711534500000003,
          "velocity": 0.7559055118110236
        },
        {
          "duration": 0.28846150000000037,
          "durationTicks": 96,
          "midi": 46,
          "name": "A#2",
          "ticks": 9984,
          "time": 29.999996000000003,
          "velocity": 0.7559055118110236
        },
        {
          "duration": 0,
          "durationTicks": 0,
          "midi": 35,
          "name": "B1",
          "ticks": 10080,
          "time": 30.288457500000003,
          "velocity": 0.7559055118110236
        },
        {
          "duration": 0,
          "durationTicks": 0,
          "midi": 35,
          "name": "B1",
          "ticks": 10080,
          "time": 30.288457500000003,
          "velocity": 0.7559055118110236
        },
        {
          "duration": 0.28846150000000037,
          "durationTicks": 96,
          "midi": 35,
          "name": "B1",
          "ticks": 10080,
          "time": 30.288457500000003,
          "velocity": 0.7559055118110236
        },
        {
          "duration": 0.28846150000000037,
          "durationTicks": 96,
          "midi": 46,
          "name": "A#2",
          "ticks": 10080,
          "time": 30.288457500000003,
          "velocity": 0.7559055118110236
        },
        {
          "duration": 0,
          "durationTicks": 0,
          "midi": 35,
          "name": "B1",
          "ticks": 10176,
          "time": 30.576919000000004,
          "velocity": 0.7559055118110236
        },
        {
          "duration": 0,
          "durationTicks": 0,
          "midi": 35,
          "name": "B1",
          "ticks": 10176,
          "time": 30.576919000000004,
          "velocity": 0.7559055118110236
        },
        {
          "duration": 0.28846150000000037,
          "durationTicks": 96,
          "midi": 35,
          "name": "B1",
          "ticks": 10176,
          "time": 30.576919000000004,
          "velocity": 0.7559055118110236
        },
        {
          "duration": 0.28846150000000037,
          "durationTicks": 96,
          "midi": 46,
          "name": "A#2",
          "ticks": 10176,
          "time": 30.576919000000004,
          "velocity": 0.7559055118110236
        },
        {
          "duration": 0,
          "durationTicks": 0,
          "midi": 38,
          "name": "D2",
          "ticks": 10272,
          "time": 30.865380500000004,
          "velocity": 0.7559055118110236
        },
        {
          "duration": 0.8653845000000011,
          "durationTicks": 288,
          "midi": 38,
          "name": "D2",
          "ticks": 10272,
          "time": 30.865380500000004,
          "velocity": 0.7559055118110236
        },
        {
          "duration": 0.28846150000000037,
          "durationTicks": 96,
          "midi": 46,
          "name": "A#2",
          "ticks": 10272,
          "time": 30.865380500000004,
          "velocity": 0.7559055118110236
        },
        {
          "duration": 0.28846150000000037,
          "durationTicks": 96,
          "midi": 46,
          "name": "A#2",
          "ticks": 10368,
          "time": 31.153842000000004,
          "velocity": 0.7559055118110236
        },
        {
          "duration": 0,
          "durationTicks": 0,
          "midi": 35,
          "name": "B1",
          "ticks": 10464,
          "time": 31.442303500000005,
          "velocity": 0.7559055118110236
        },
        {
          "duration": 0,
          "durationTicks": 0,
          "midi": 35,
          "name": "B1",
          "ticks": 10464,
          "time": 31.442303500000005,
          "velocity": 0.7559055118110236
        },
        {
          "duration": 0.28846150000000037,
          "durationTicks": 96,
          "midi": 35,
          "name": "B1",
          "ticks": 10464,
          "time": 31.442303500000005,
          "velocity": 0.7559055118110236
        },
        {
          "duration": 0.28846150000000037,
          "durationTicks": 96,
          "midi": 46,
          "name": "A#2",
          "ticks": 10464,
          "time": 31.442303500000005,
          "velocity": 0.7559055118110236
        },
        {
          "duration": 0,
          "durationTicks": 0,
          "midi": 38,
          "name": "D2",
          "ticks": 10560,
          "time": 31.730765000000005,
          "velocity": 0.7559055118110236
        },
        {
          "duration": 1.4423074999999983,
          "durationTicks": 480,
          "midi": 38,
          "name": "D2",
          "ticks": 10560,
          "time": 31.730765000000005,
          "velocity": 0.7559055118110236
        },
        {
          "duration": 0.2884614999999968,
          "durationTicks": 96,
          "midi": 46,
          "name": "A#2",
          "ticks": 10560,
          "time": 31.730765000000005,
          "velocity": 0.7559055118110236
        },
        {
          "duration": 0.2884615000000039,
          "durationTicks": 96,
          "midi": 46,
          "name": "A#2",
          "ticks": 10656,
          "time": 32.0192265,
          "velocity": 0.7559055118110236
        },
        {
          "duration": 0.2884614999999968,
          "durationTicks": 96,
          "midi": 46,
          "name": "A#2",
          "ticks": 10752,
          "time": 32.307688000000006,
          "velocity": 0.7559055118110236
        },
        {
          "duration": 0,
          "durationTicks": 0,
          "midi": 35,
          "name": "B1",
          "ticks": 10848,
          "time": 32.5961495,
          "velocity": 0.7559055118110236
        },
        {
          "duration": 0,
          "durationTicks": 0,
          "midi": 35,
          "name": "B1",
          "ticks": 10848,
          "time": 32.5961495,
          "velocity": 0.7559055118110236
        },
        {
          "duration": 0.5769230000000007,
          "durationTicks": 192,
          "midi": 35,
          "name": "B1",
          "ticks": 10848,
          "time": 32.5961495,
          "velocity": 0.7559055118110236
        },
        {
          "duration": 0.2884615000000039,
          "durationTicks": 96,
          "midi": 46,
          "name": "A#2",
          "ticks": 10848,
          "time": 32.5961495,
          "velocity": 0.7559055118110236
        },
        {
          "duration": 0.2884614999999968,
          "durationTicks": 96,
          "midi": 46,
          "name": "A#2",
          "ticks": 10944,
          "time": 32.88461100000001,
          "velocity": 0.7559055118110236
        },
        {
          "duration": 0,
          "durationTicks": 0,
          "midi": 38,
          "name": "D2",
          "ticks": 11040,
          "time": 33.1730725,
          "velocity": 0.7559055118110236
        },
        {
          "duration": 0.8653844999999976,
          "durationTicks": 288,
          "midi": 38,
          "name": "D2",
          "ticks": 11040,
          "time": 33.1730725,
          "velocity": 0.7559055118110236
        },
        {
          "duration": 0.2884615000000039,
          "durationTicks": 96,
          "midi": 46,
          "name": "A#2",
          "ticks": 11040,
          "time": 33.1730725,
          "velocity": 0.7559055118110236
        },
        {
          "duration": 0.2884614999999968,
          "durationTicks": 96,
          "midi": 46,
          "name": "A#2",
          "ticks": 11136,
          "time": 33.46153400000001,
          "velocity": 0.7559055118110236
        },
        {
          "duration": 0,
          "durationTicks": 0,
          "midi": 35,
          "name": "B1",
          "ticks": 11232,
          "time": 33.749995500000004,
          "velocity": 0.7559055118110236
        },
        {
          "duration": 0,
          "durationTicks": 0,
          "midi": 35,
          "name": "B1",
          "ticks": 11232,
          "time": 33.749995500000004,
          "velocity": 0.7559055118110236
        },
        {
          "duration": 0.2884614999999968,
          "durationTicks": 96,
          "midi": 35,
          "name": "B1",
          "ticks": 11232,
          "time": 33.749995500000004,
          "velocity": 0.7559055118110236
        },
        {
          "duration": 0.2884614999999968,
          "durationTicks": 96,
          "midi": 46,
          "name": "A#2",
          "ticks": 11232,
          "time": 33.749995500000004,
          "velocity": 0.7559055118110236
        },
        {
          "duration": 0,
          "durationTicks": 0,
          "midi": 38,
          "name": "D2",
          "ticks": 11328,
          "time": 34.038457,
          "velocity": 0.7559055118110236
        },
        {
          "duration": 0.8653845000000047,
          "durationTicks": 288,
          "midi": 38,
          "name": "D2",
          "ticks": 11328,
          "time": 34.038457,
          "velocity": 0.7559055118110236
        },
        {
          "duration": 0.2884615000000039,
          "durationTicks": 96,
          "midi": 46,
          "name": "A#2",
          "ticks": 11328,
          "time": 34.038457,
          "velocity": 0.7559055118110236
        },
        {
          "duration": 0.2884614999999968,
          "durationTicks": 96,
          "midi": 46,
          "name": "A#2",
          "ticks": 11424,
          "time": 34.326918500000005,
          "velocity": 0.7559055118110236
        },
        {
          "duration": 0.2884615000000039,
          "durationTicks": 96,
          "midi": 46,
          "name": "A#2",
          "ticks": 11520,
          "time": 34.61538,
          "velocity": 0.7559055118110236
        },
        {
          "duration": 0,
          "durationTicks": 0,
          "midi": 38,
          "name": "D2",
          "ticks": 11616,
          "time": 34.903841500000006,
          "velocity": 0.7559055118110236
        },
        {
          "duration": 0.8653844999999976,
          "durationTicks": 288,
          "midi": 38,
          "name": "D2",
          "ticks": 11616,
          "time": 34.903841500000006,
          "velocity": 0.7559055118110236
        },
        {
          "duration": 0.2884614999999968,
          "durationTicks": 96,
          "midi": 46,
          "name": "A#2",
          "ticks": 11616,
          "time": 34.903841500000006,
          "velocity": 0.7559055118110236
        },
        {
          "duration": 0,
          "durationTicks": 0,
          "midi": 35,
          "name": "B1",
          "ticks": 11664,
          "time": 35.048072250000004,
          "velocity": 0.7559055118110236
        },
        {
          "duration": 0,
          "durationTicks": 0,
          "midi": 35,
          "name": "B1",
          "ticks": 11664,
          "time": 35.048072250000004,
          "velocity": 0.7559055118110236
        },
        {
          "duration": 0.1442307499999984,
          "durationTicks": 48,
          "midi": 35,
          "name": "B1",
          "ticks": 11664,
          "time": 35.048072250000004,
          "velocity": 0.7559055118110236
        },
        {
          "duration": 0,
          "durationTicks": 0,
          "midi": 35,
          "name": "B1",
          "ticks": 11712,
          "time": 35.192303,
          "velocity": 0.7559055118110236
        },
        {
          "duration": 0,
          "durationTicks": 0,
          "midi": 35,
          "name": "B1",
          "ticks": 11712,
          "time": 35.192303,
          "velocity": 0.7559055118110236
        },
        {
          "duration": 0.2884615000000039,
          "durationTicks": 96,
          "midi": 35,
          "name": "B1",
          "ticks": 11712,
          "time": 35.192303,
          "velocity": 0.7559055118110236
        },
        {
          "duration": 0.2884615000000039,
          "durationTicks": 96,
          "midi": 46,
          "name": "A#2",
          "ticks": 11712,
          "time": 35.192303,
          "velocity": 0.7559055118110236
        },
        {
          "duration": 0,
          "durationTicks": 0,
          "midi": 35,
          "name": "B1",
          "ticks": 11808,
          "time": 35.48076450000001,
          "velocity": 0.7559055118110236
        },
        {
          "duration": 0,
          "durationTicks": 0,
          "midi": 35,
          "name": "B1",
          "ticks": 11808,
          "time": 35.48076450000001,
          "velocity": 0.7559055118110236
        },
        {
          "duration": 0.2884614999999968,
          "durationTicks": 96,
          "midi": 35,
          "name": "B1",
          "ticks": 11808,
          "time": 35.48076450000001,
          "velocity": 0.7559055118110236
        },
        {
          "duration": 0.2884614999999968,
          "durationTicks": 96,
          "midi": 46,
          "name": "A#2",
          "ticks": 11808,
          "time": 35.48076450000001,
          "velocity": 0.7559055118110236
        },
        {
          "duration": 0,
          "durationTicks": 0,
          "midi": 38,
          "name": "D2",
          "ticks": 11904,
          "time": 35.769226,
          "velocity": 0.7559055118110236
        },
        {
          "duration": 0.8653845000000047,
          "durationTicks": 288,
          "midi": 38,
          "name": "D2",
          "ticks": 11904,
          "time": 35.769226,
          "velocity": 0.7559055118110236
        },
        {
          "duration": 0.2884615000000039,
          "durationTicks": 96,
          "midi": 46,
          "name": "A#2",
          "ticks": 11904,
          "time": 35.769226,
          "velocity": 0.7559055118110236
        },
        {
          "duration": 0,
          "durationTicks": 0,
          "midi": 35,
          "name": "B1",
          "ticks": 11952,
          "time": 35.91345675,
          "velocity": 0.7559055118110236
        },
        {
          "duration": 0,
          "durationTicks": 0,
          "midi": 35,
          "name": "B1",
          "ticks": 11952,
          "time": 35.91345675,
          "velocity": 0.7559055118110236
        },
        {
          "duration": 0.14423075000000551,
          "durationTicks": 48,
          "midi": 35,
          "name": "B1",
          "ticks": 11952,
          "time": 35.91345675,
          "velocity": 0.7559055118110236
        },
        {
          "duration": 0,
          "durationTicks": 0,
          "midi": 35,
          "name": "B1",
          "ticks": 12000,
          "time": 36.05768750000001,
          "velocity": 0.7559055118110236
        },
        {
          "duration": 0,
          "durationTicks": 0,
          "midi": 35,
          "name": "B1",
          "ticks": 12000,
          "time": 36.05768750000001,
          "velocity": 0.7559055118110236
        },
        {
          "duration": 0.2884614999999968,
          "durationTicks": 96,
          "midi": 35,
          "name": "B1",
          "ticks": 12000,
          "time": 36.05768750000001,
          "velocity": 0.7559055118110236
        },
        {
          "duration": 0.2884614999999968,
          "durationTicks": 96,
          "midi": 46,
          "name": "A#2",
          "ticks": 12000,
          "time": 36.05768750000001,
          "velocity": 0.7559055118110236
        },
        {
          "duration": 0,
          "durationTicks": 0,
          "midi": 35,
          "name": "B1",
          "ticks": 12096,
          "time": 36.346149000000004,
          "velocity": 0.7559055118110236
        },
        {
          "duration": 0,
          "durationTicks": 0,
          "midi": 35,
          "name": "B1",
          "ticks": 12096,
          "time": 36.346149000000004,
          "velocity": 0.7559055118110236
        },
        {
          "duration": 0.2884615000000039,
          "durationTicks": 96,
          "midi": 35,
          "name": "B1",
          "ticks": 12096,
          "time": 36.346149000000004,
          "velocity": 0.7559055118110236
        },
        {
          "duration": 0.2884615000000039,
          "durationTicks": 96,
          "midi": 46,
          "name": "A#2",
          "ticks": 12096,
          "time": 36.346149000000004,
          "velocity": 0.7559055118110236
        },
        {
          "duration": 0,
          "durationTicks": 0,
          "midi": 38,
          "name": "D2",
          "ticks": 12192,
          "time": 36.63461050000001,
          "velocity": 0.7559055118110236
        },
        {
          "duration": 1.1538459999999944,
          "durationTicks": 384,
          "midi": 38,
          "name": "D2",
          "ticks": 12192,
          "time": 36.63461050000001,
          "velocity": 0.7559055118110236
        },
        {
          "duration": 0.2884614999999968,
          "durationTicks": 96,
          "midi": 46,
          "name": "A#2",
          "ticks": 12192,
          "time": 36.63461050000001,
          "velocity": 0.7559055118110236
        },
        {
          "duration": 0,
          "durationTicks": 0,
          "midi": 35,
          "name": "B1",
          "ticks": 12288,
          "time": 36.923072000000005,
          "velocity": 0.7559055118110236
        },
        {
          "duration": 0,
          "durationTicks": 0,
          "midi": 35,
          "name": "B1",
          "ticks": 12288,
          "time": 36.923072000000005,
          "velocity": 0.7559055118110236
        },
        {
          "duration": 0.2884614999999968,
          "durationTicks": 96,
          "midi": 35,
          "name": "B1",
          "ticks": 12288,
          "time": 36.923072000000005,
          "velocity": 0.7559055118110236
        },
        {
          "duration": 0.2884614999999968,
          "durationTicks": 96,
          "midi": 46,
          "name": "A#2",
          "ticks": 12288,
          "time": 36.923072000000005,
          "velocity": 0.7559055118110236
        },
        {
          "duration": 0,
          "durationTicks": 0,
          "midi": 35,
          "name": "B1",
          "ticks": 12384,
          "time": 37.2115335,
          "velocity": 0.7559055118110236
        },
        {
          "duration": 0,
          "durationTicks": 0,
          "midi": 35,
          "name": "B1",
          "ticks": 12384,
          "time": 37.2115335,
          "velocity": 0.7559055118110236
        },
        {
          "duration": 0.5769230000000007,
          "durationTicks": 192,
          "midi": 35,
          "name": "B1",
          "ticks": 12384,
          "time": 37.2115335,
          "velocity": 0.7559055118110236
        },
        {
          "duration": 0.14423075000000551,
          "durationTicks": 48,
          "midi": 42,
          "name": "F#2",
          "ticks": 12384,
          "time": 37.2115335,
          "velocity": 0.7559055118110236
        },
        {
          "duration": 46.15384,
          "durationTicks": 15360,
          "midi": 55,
          "name": "G3",
          "ticks": 12384,
          "time": 37.2115335,
          "velocity": 0.7559055118110236
        },
        {
          "duration": 0.1442307499999984,
          "durationTicks": 48,
          "midi": 42,
          "name": "F#2",
          "ticks": 12432,
          "time": 37.35576425000001,
          "velocity": 0.7559055118110236
        },
        {
          "duration": 0.1442307499999984,
          "durationTicks": 48,
          "midi": 42,
          "name": "F#2",
          "ticks": 12480,
          "time": 37.499995000000006,
          "velocity": 0.7559055118110236
        },
        {
          "duration": 0.1442307499999984,
          "durationTicks": 48,
          "midi": 42,
          "name": "F#2",
          "ticks": 12528,
          "time": 37.644225750000004,
          "velocity": 0.7559055118110236
        },
        {
          "duration": 0,
          "durationTicks": 0,
          "midi": 38,
          "name": "D2",
          "ticks": 12576,
          "time": 37.7884565,
          "velocity": 0.7559055118110236
        },
        {
          "duration": 0.8653845000000047,
          "durationTicks": 288,
          "midi": 38,
          "name": "D2",
          "ticks": 12576,
          "time": 37.7884565,
          "velocity": 0.7559055118110236
        },
        {
          "duration": 0.14423075000000551,
          "durationTicks": 48,
          "midi": 42,
          "name": "F#2",
          "ticks": 12576,
          "time": 37.7884565,
          "velocity": 0.7559055118110236
        },
        {
          "duration": 0.1442307499999984,
          "durationTicks": 48,
          "midi": 42,
          "name": "F#2",
          "ticks": 12624,
          "time": 37.93268725000001,
          "velocity": 0.7559055118110236
        },
        {
          "duration": 0.1442307499999984,
          "durationTicks": 48,
          "midi": 42,
          "name": "F#2",
          "ticks": 12672,
          "time": 38.076918000000006,
          "velocity": 0.7559055118110236
        },
        {
          "duration": 0.1442307499999984,
          "durationTicks": 48,
          "midi": 42,
          "name": "F#2",
          "ticks": 12720,
          "time": 38.221148750000005,
          "velocity": 0.7559055118110236
        },
        {
          "duration": 0,
          "durationTicks": 0,
          "midi": 35,
          "name": "B1",
          "ticks": 12768,
          "time": 38.3653795,
          "velocity": 0.7559055118110236
        },
        {
          "duration": 0,
          "durationTicks": 0,
          "midi": 35,
          "name": "B1",
          "ticks": 12768,
          "time": 38.3653795,
          "velocity": 0.7559055118110236
        },
        {
          "duration": 0.2884615000000039,
          "durationTicks": 96,
          "midi": 35,
          "name": "B1",
          "ticks": 12768,
          "time": 38.3653795,
          "velocity": 0.7559055118110236
        },
        {
          "duration": 0.1442307499999984,
          "durationTicks": 48,
          "midi": 42,
          "name": "F#2",
          "ticks": 12768,
          "time": 38.3653795,
          "velocity": 0.7559055118110236
        },
        {
          "duration": 0.14423075000000551,
          "durationTicks": 48,
          "midi": 42,
          "name": "F#2",
          "ticks": 12816,
          "time": 38.50961025,
          "velocity": 0.7559055118110236
        },
        {
          "duration": 0,
          "durationTicks": 0,
          "midi": 38,
          "name": "D2",
          "ticks": 12864,
          "time": 38.65384100000001,
          "velocity": 0.7559055118110236
        },
        {
          "duration": 1.4423074999999983,
          "durationTicks": 480,
          "midi": 38,
          "name": "D2",
          "ticks": 12864,
          "time": 38.65384100000001,
          "velocity": 0.7559055118110236
        },
        {
          "duration": 0.1442307499999984,
          "durationTicks": 48,
          "midi": 42,
          "name": "F#2",
          "ticks": 12864,
          "time": 38.65384100000001,
          "velocity": 0.7559055118110236
        },
        {
          "duration": 0.1442307499999984,
          "durationTicks": 48,
          "midi": 42,
          "name": "F#2",
          "ticks": 12912,
          "time": 38.798071750000005,
          "velocity": 0.7559055118110236
        },
        {
          "duration": 0.1442307499999984,
          "durationTicks": 48,
          "midi": 42,
          "name": "F#2",
          "ticks": 12960,
          "time": 38.942302500000004,
          "velocity": 0.7559055118110236
        },
        {
          "duration": 0.14423075000000551,
          "durationTicks": 48,
          "midi": 42,
          "name": "F#2",
          "ticks": 13008,
          "time": 39.08653325,
          "velocity": 0.7559055118110236
        },
        {
          "duration": 0.1442307499999984,
          "durationTicks": 48,
          "midi": 42,
          "name": "F#2",
          "ticks": 13056,
          "time": 39.23076400000001,
          "velocity": 0.7559055118110236
        },
        {
          "duration": 0.1442307499999984,
          "durationTicks": 48,
          "midi": 42,
          "name": "F#2",
          "ticks": 13104,
          "time": 39.374994750000006,
          "velocity": 0.7559055118110236
        },
        {
          "duration": 0,
          "durationTicks": 0,
          "midi": 35,
          "name": "B1",
          "ticks": 13152,
          "time": 39.519225500000005,
          "velocity": 0.7559055118110236
        },
        {
          "duration": 0,
          "durationTicks": 0,
          "midi": 35,
          "name": "B1",
          "ticks": 13152,
          "time": 39.519225500000005,
          "velocity": 0.7559055118110236
        },
        {
          "duration": 0.2884615000000039,
          "durationTicks": 96,
          "midi": 35,
          "name": "B1",
          "ticks": 13152,
          "time": 39.519225500000005,
          "velocity": 0.7559055118110236
        },
        {
          "duration": 0.1442307499999984,
          "durationTicks": 48,
          "midi": 42,
          "name": "F#2",
          "ticks": 13152,
          "time": 39.519225500000005,
          "velocity": 0.7559055118110236
        },
        {
          "duration": 0.14423075000000551,
          "durationTicks": 48,
          "midi": 42,
          "name": "F#2",
          "ticks": 13200,
          "time": 39.66345625,
          "velocity": 0.7559055118110236
        },
        {
          "duration": 0,
          "durationTicks": 0,
          "midi": 35,
          "name": "B1",
          "ticks": 13248,
          "time": 39.80768700000001,
          "velocity": 0.7559055118110236
        },
        {
          "duration": 0,
          "durationTicks": 0,
          "midi": 35,
          "name": "B1",
          "ticks": 13248,
          "time": 39.80768700000001,
          "velocity": 0.7559055118110236
        },
        {
          "duration": 0.2884614999999968,
          "durationTicks": 96,
          "midi": 35,
          "name": "B1",
          "ticks": 13248,
          "time": 39.80768700000001,
          "velocity": 0.7559055118110236
        },
        {
          "duration": 0.1442307499999984,
          "durationTicks": 48,
          "midi": 42,
          "name": "F#2",
          "ticks": 13248,
          "time": 39.80768700000001,
          "velocity": 0.7559055118110236
        },
        {
          "duration": 0.1442307499999984,
          "durationTicks": 48,
          "midi": 42,
          "name": "F#2",
          "ticks": 13296,
          "time": 39.95191775000001,
          "velocity": 0.7559055118110236
        },
        {
          "duration": 0,
          "durationTicks": 0,
          "midi": 38,
          "name": "D2",
          "ticks": 13344,
          "time": 40.096148500000005,
          "velocity": 0.7559055118110236
        },
        {
          "duration": 0.8653844999999976,
          "durationTicks": 288,
          "midi": 38,
          "name": "D2",
          "ticks": 13344,
          "time": 40.096148500000005,
          "velocity": 0.7559055118110236
        },
        {
          "duration": 0.1442307499999984,
          "durationTicks": 48,
          "midi": 42,
          "name": "F#2",
          "ticks": 13344,
          "time": 40.096148500000005,
          "velocity": 0.7559055118110236
        },
        {
          "duration": 0.1442307499999984,
          "durationTicks": 48,
          "midi": 42,
          "name": "F#2",
          "ticks": 13392,
          "time": 40.240379250000004,
          "velocity": 0.7559055118110236
        },
        {
          "duration": 0.14423075000000551,
          "durationTicks": 48,
          "midi": 42,
          "name": "F#2",
          "ticks": 13440,
          "time": 40.38461,
          "velocity": 0.7559055118110236
        },
        {
          "duration": 0.1442307499999984,
          "durationTicks": 48,
          "midi": 42,
          "name": "F#2",
          "ticks": 13488,
          "time": 40.52884075000001,
          "velocity": 0.7559055118110236
        },
        {
          "duration": 0,
          "durationTicks": 0,
          "midi": 35,
          "name": "B1",
          "ticks": 13536,
          "time": 40.673071500000006,
          "velocity": 0.7559055118110236
        },
        {
          "duration": 0,
          "durationTicks": 0,
          "midi": 35,
          "name": "B1",
          "ticks": 13536,
          "time": 40.673071500000006,
          "velocity": 0.7559055118110236
        },
        {
          "duration": 0.2884614999999968,
          "durationTicks": 96,
          "midi": 35,
          "name": "B1",
          "ticks": 13536,
          "time": 40.673071500000006,
          "velocity": 0.7559055118110236
        },
        {
          "duration": 0.1442307499999984,
          "durationTicks": 48,
          "midi": 42,
          "name": "F#2",
          "ticks": 13536,
          "time": 40.673071500000006,
          "velocity": 0.7559055118110236
        },
        {
          "duration": 0.1442307499999984,
          "durationTicks": 48,
          "midi": 42,
          "name": "F#2",
          "ticks": 13584,
          "time": 40.817302250000004,
          "velocity": 0.7559055118110236
        },
        {
          "duration": 0,
          "durationTicks": 0,
          "midi": 38,
          "name": "D2",
          "ticks": 13632,
          "time": 40.961533,
          "velocity": 0.7559055118110236
        },
        {
          "duration": 1.4423075000000054,
          "durationTicks": 480,
          "midi": 38,
          "name": "D2",
          "ticks": 13632,
          "time": 40.961533,
          "velocity": 0.7559055118110236
        },
        {
          "duration": 0.14423075000000551,
          "durationTicks": 48,
          "midi": 42,
          "name": "F#2",
          "ticks": 13632,
          "time": 40.961533,
          "velocity": 0.7559055118110236
        },
        {
          "duration": 0.1442307499999984,
          "durationTicks": 48,
          "midi": 42,
          "name": "F#2",
          "ticks": 13680,
          "time": 41.10576375000001,
          "velocity": 0.7559055118110236
        },
        {
          "duration": 0.1442307499999984,
          "durationTicks": 48,
          "midi": 42,
          "name": "F#2",
          "ticks": 13728,
          "time": 41.24999450000001,
          "velocity": 0.7559055118110236
        },
        {
          "duration": 0.1442307499999984,
          "durationTicks": 48,
          "midi": 42,
          "name": "F#2",
          "ticks": 13776,
          "time": 41.394225250000005,
          "velocity": 0.7559055118110236
        },
        {
          "duration": 0.1442307499999984,
          "durationTicks": 48,
          "midi": 42,
          "name": "F#2",
          "ticks": 13824,
          "time": 41.538456000000004,
          "velocity": 0.7559055118110236
        },
        {
          "duration": 0.14423075000000551,
          "durationTicks": 48,
          "midi": 42,
          "name": "F#2",
          "ticks": 13872,
          "time": 41.68268675,
          "velocity": 0.7559055118110236
        },
        {
          "duration": 0,
          "durationTicks": 0,
          "midi": 35,
          "name": "B1",
          "ticks": 13920,
          "time": 41.82691750000001,
          "velocity": 0.7559055118110236
        },
        {
          "duration": 0,
          "durationTicks": 0,
          "midi": 35,
          "name": "B1",
          "ticks": 13920,
          "time": 41.82691750000001,
          "velocity": 0.7559055118110236
        },
        {
          "duration": 0.5769230000000007,
          "durationTicks": 192,
          "midi": 35,
          "name": "B1",
          "ticks": 13920,
          "time": 41.82691750000001,
          "velocity": 0.7559055118110236
        },
        {
          "duration": 0.1442307499999984,
          "durationTicks": 48,
          "midi": 42,
          "name": "F#2",
          "ticks": 13920,
          "time": 41.82691750000001,
          "velocity": 0.7559055118110236
        },
        {
          "duration": 0.1442307499999984,
          "durationTicks": 48,
          "midi": 42,
          "name": "F#2",
          "ticks": 13968,
          "time": 41.971148250000006,
          "velocity": 0.7559055118110236
        },
        {
          "duration": 0.1442307499999984,
          "durationTicks": 48,
          "midi": 42,
          "name": "F#2",
          "ticks": 14016,
          "time": 42.115379000000004,
          "velocity": 0.7559055118110236
        },
        {
          "duration": 0.14423075000000551,
          "durationTicks": 48,
          "midi": 42,
          "name": "F#2",
          "ticks": 14064,
          "time": 42.25960975,
          "velocity": 0.7559055118110236
        },
        {
          "duration": 0,
          "durationTicks": 0,
          "midi": 38,
          "name": "D2",
          "ticks": 14112,
          "time": 42.40384050000001,
          "velocity": 0.7559055118110236
        },
        {
          "duration": 0.8653844999999976,
          "durationTicks": 288,
          "midi": 38,
          "name": "D2",
          "ticks": 14112,
          "time": 42.40384050000001,
          "velocity": 0.7559055118110236
        },
        {
          "duration": 0.1442307499999984,
          "durationTicks": 48,
          "midi": 42,
          "name": "F#2",
          "ticks": 14112,
          "time": 42.40384050000001,
          "velocity": 0.7559055118110236
        },
        {
          "duration": 0.1442307499999984,
          "durationTicks": 48,
          "midi": 42,
          "name": "F#2",
          "ticks": 14160,
          "time": 42.54807125000001,
          "velocity": 0.7559055118110236
        },
        {
          "duration": 0.1442307499999984,
          "durationTicks": 48,
          "midi": 42,
          "name": "F#2",
          "ticks": 14208,
          "time": 42.692302000000005,
          "velocity": 0.7559055118110236
        },
        {
          "duration": 0.14423075000000551,
          "durationTicks": 48,
          "midi": 42,
          "name": "F#2",
          "ticks": 14256,
          "time": 42.83653275,
          "velocity": 0.7559055118110236
        },
        {
          "duration": 0,
          "durationTicks": 0,
          "midi": 35,
          "name": "B1",
          "ticks": 14304,
          "time": 42.98076350000001,
          "velocity": 0.7559055118110236
        },
        {
          "duration": 0,
          "durationTicks": 0,
          "midi": 35,
          "name": "B1",
          "ticks": 14304,
          "time": 42.98076350000001,
          "velocity": 0.7559055118110236
        },
        {
          "duration": 0.2884614999999968,
          "durationTicks": 96,
          "midi": 35,
          "name": "B1",
          "ticks": 14304,
          "time": 42.98076350000001,
          "velocity": 0.7559055118110236
        },
        {
          "duration": 0.1442307499999984,
          "durationTicks": 48,
          "midi": 42,
          "name": "F#2",
          "ticks": 14304,
          "time": 42.98076350000001,
          "velocity": 0.7559055118110236
        },
        {
          "duration": 0.1442307499999984,
          "durationTicks": 48,
          "midi": 42,
          "name": "F#2",
          "ticks": 14352,
          "time": 43.12499425000001,
          "velocity": 0.7559055118110236
        },
        {
          "duration": 0,
          "durationTicks": 0,
          "midi": 38,
          "name": "D2",
          "ticks": 14400,
          "time": 43.269225000000006,
          "velocity": 0.7559055118110236
        },
        {
          "duration": 0.8653844999999976,
          "durationTicks": 288,
          "midi": 38,
          "name": "D2",
          "ticks": 14400,
          "time": 43.269225000000006,
          "velocity": 0.7559055118110236
        },
        {
          "duration": 0.1442307499999984,
          "durationTicks": 48,
          "midi": 42,
          "name": "F#2",
          "ticks": 14400,
          "time": 43.269225000000006,
          "velocity": 0.7559055118110236
        },
        {
          "duration": 0.1442307499999984,
          "durationTicks": 48,
          "midi": 42,
          "name": "F#2",
          "ticks": 14448,
          "time": 43.413455750000004,
          "velocity": 0.7559055118110236
        },
        {
          "duration": 0.14423075000000551,
          "durationTicks": 48,
          "midi": 42,
          "name": "F#2",
          "ticks": 14496,
          "time": 43.5576865,
          "velocity": 0.7559055118110236
        },
        {
          "duration": 0.1442307499999984,
          "durationTicks": 48,
          "midi": 42,
          "name": "F#2",
          "ticks": 14544,
          "time": 43.70191725000001,
          "velocity": 0.7559055118110236
        },
        {
          "duration": 0.1442307499999984,
          "durationTicks": 48,
          "midi": 42,
          "name": "F#2",
          "ticks": 14592,
          "time": 43.84614800000001,
          "velocity": 0.7559055118110236
        },
        {
          "duration": 0.1442307499999984,
          "durationTicks": 48,
          "midi": 42,
          "name": "F#2",
          "ticks": 14640,
          "time": 43.990378750000005,
          "velocity": 0.7559055118110236
        },
        {
          "duration": 0,
          "durationTicks": 0,
          "midi": 38,
          "name": "D2",
          "ticks": 14688,
          "time": 44.1346095,
          "velocity": 0.7559055118110236
        },
        {
          "duration": 0.8653845000000047,
          "durationTicks": 288,
          "midi": 38,
          "name": "D2",
          "ticks": 14688,
          "time": 44.1346095,
          "velocity": 0.7559055118110236
        },
        {
          "duration": 0.14423075000000551,
          "durationTicks": 48,
          "midi": 42,
          "name": "F#2",
          "ticks": 14688,
          "time": 44.1346095,
          "velocity": 0.7559055118110236
        },
        {
          "duration": 0,
          "durationTicks": 0,
          "midi": 35,
          "name": "B1",
          "ticks": 14736,
          "time": 44.27884025000001,
          "velocity": 0.7559055118110236
        },
        {
          "duration": 0,
          "durationTicks": 0,
          "midi": 35,
          "name": "B1",
          "ticks": 14736,
          "time": 44.27884025000001,
          "velocity": 0.7559055118110236
        },
        {
          "duration": 0.1442307499999984,
          "durationTicks": 48,
          "midi": 35,
          "name": "B1",
          "ticks": 14736,
          "time": 44.27884025000001,
          "velocity": 0.7559055118110236
        },
        {
          "duration": 0.1442307499999984,
          "durationTicks": 48,
          "midi": 42,
          "name": "F#2",
          "ticks": 14736,
          "time": 44.27884025000001,
          "velocity": 0.7559055118110236
        },
        {
          "duration": 0,
          "durationTicks": 0,
          "midi": 35,
          "name": "B1",
          "ticks": 14784,
          "time": 44.42307100000001,
          "velocity": 0.7559055118110236
        },
        {
          "duration": 0,
          "durationTicks": 0,
          "midi": 35,
          "name": "B1",
          "ticks": 14784,
          "time": 44.42307100000001,
          "velocity": 0.7559055118110236
        },
        {
          "duration": 0.2884614999999968,
          "durationTicks": 96,
          "midi": 35,
          "name": "B1",
          "ticks": 14784,
          "time": 44.42307100000001,
          "velocity": 0.7559055118110236
        },
        {
          "duration": 0.1442307499999984,
          "durationTicks": 48,
          "midi": 42,
          "name": "F#2",
          "ticks": 14784,
          "time": 44.42307100000001,
          "velocity": 0.7559055118110236
        },
        {
          "duration": 0.1442307499999984,
          "durationTicks": 48,
          "midi": 42,
          "name": "F#2",
          "ticks": 14832,
          "time": 44.567301750000006,
          "velocity": 0.7559055118110236
        },
        {
          "duration": 0,
          "durationTicks": 0,
          "midi": 35,
          "name": "B1",
          "ticks": 14880,
          "time": 44.711532500000004,
          "velocity": 0.7559055118110236
        },
        {
          "duration": 0,
          "durationTicks": 0,
          "midi": 35,
          "name": "B1",
          "ticks": 14880,
          "time": 44.711532500000004,
          "velocity": 0.7559055118110236
        },
        {
          "duration": 0.2884615000000039,
          "durationTicks": 96,
          "midi": 35,
          "name": "B1",
          "ticks": 14880,
          "time": 44.711532500000004,
          "velocity": 0.7559055118110236
        },
        {
          "duration": 0.1442307499999984,
          "durationTicks": 48,
          "midi": 42,
          "name": "F#2",
          "ticks": 14880,
          "time": 44.711532500000004,
          "velocity": 0.7559055118110236
        },
        {
          "duration": 0.14423075000000551,
          "durationTicks": 48,
          "midi": 42,
          "name": "F#2",
          "ticks": 14928,
          "time": 44.85576325,
          "velocity": 0.7559055118110236
        },
        {
          "duration": 0,
          "durationTicks": 0,
          "midi": 38,
          "name": "D2",
          "ticks": 14976,
          "time": 44.99999400000001,
          "velocity": 0.7559055118110236
        },
        {
          "duration": 0.8653844999999976,
          "durationTicks": 288,
          "midi": 38,
          "name": "D2",
          "ticks": 14976,
          "time": 44.99999400000001,
          "velocity": 0.7559055118110236
        },
        {
          "duration": 0.1442307499999984,
          "durationTicks": 48,
          "midi": 42,
          "name": "F#2",
          "ticks": 14976,
          "time": 44.99999400000001,
          "velocity": 0.7559055118110236
        },
        {
          "duration": 0,
          "durationTicks": 0,
          "midi": 35,
          "name": "B1",
          "ticks": 15024,
          "time": 45.14422475000001,
          "velocity": 0.7559055118110236
        },
        {
          "duration": 0,
          "durationTicks": 0,
          "midi": 35,
          "name": "B1",
          "ticks": 15024,
          "time": 45.14422475000001,
          "velocity": 0.7559055118110236
        },
        {
          "duration": 0.1442307499999984,
          "durationTicks": 48,
          "midi": 35,
          "name": "B1",
          "ticks": 15024,
          "time": 45.14422475000001,
          "velocity": 0.7559055118110236
        },
        {
          "duration": 0.1442307499999984,
          "durationTicks": 48,
          "midi": 42,
          "name": "F#2",
          "ticks": 15024,
          "time": 45.14422475000001,
          "velocity": 0.7559055118110236
        },
        {
          "duration": 0,
          "durationTicks": 0,
          "midi": 35,
          "name": "B1",
          "ticks": 15072,
          "time": 45.288455500000005,
          "velocity": 0.7559055118110236
        },
        {
          "duration": 0,
          "durationTicks": 0,
          "midi": 35,
          "name": "B1",
          "ticks": 15072,
          "time": 45.288455500000005,
          "velocity": 0.7559055118110236
        },
        {
          "duration": 0.2884615000000039,
          "durationTicks": 96,
          "midi": 35,
          "name": "B1",
          "ticks": 15072,
          "time": 45.288455500000005,
          "velocity": 0.7559055118110236
        },
        {
          "duration": 0.1442307499999984,
          "durationTicks": 48,
          "midi": 42,
          "name": "F#2",
          "ticks": 15072,
          "time": 45.288455500000005,
          "velocity": 0.7559055118110236
        },
        {
          "duration": 0.14423075000000551,
          "durationTicks": 48,
          "midi": 42,
          "name": "F#2",
          "ticks": 15120,
          "time": 45.43268625,
          "velocity": 0.7559055118110236
        },
        {
          "duration": 0,
          "durationTicks": 0,
          "midi": 35,
          "name": "B1",
          "ticks": 15168,
          "time": 45.57691700000001,
          "velocity": 0.7559055118110236
        },
        {
          "duration": 0,
          "durationTicks": 0,
          "midi": 35,
          "name": "B1",
          "ticks": 15168,
          "time": 45.57691700000001,
          "velocity": 0.7559055118110236
        },
        {
          "duration": 0.2884614999999968,
          "durationTicks": 96,
          "midi": 35,
          "name": "B1",
          "ticks": 15168,
          "time": 45.57691700000001,
          "velocity": 0.7559055118110236
        },
        {
          "duration": 0.1442307499999984,
          "durationTicks": 48,
          "midi": 42,
          "name": "F#2",
          "ticks": 15168,
          "time": 45.57691700000001,
          "velocity": 0.7559055118110236
        },
        {
          "duration": 0.1442307499999984,
          "durationTicks": 48,
          "midi": 42,
          "name": "F#2",
          "ticks": 15216,
          "time": 45.72114775000001,
          "velocity": 0.7559055118110236
        },
        {
          "duration": 0,
          "durationTicks": 0,
          "midi": 38,
          "name": "D2",
          "ticks": 15264,
          "time": 45.865378500000006,
          "velocity": 0.7559055118110236
        },
        {
          "duration": 1.1538460000000015,
          "durationTicks": 384,
          "midi": 38,
          "name": "D2",
          "ticks": 15264,
          "time": 45.865378500000006,
          "velocity": 0.7559055118110236
        },
        {
          "duration": 0.1442307499999984,
          "durationTicks": 48,
          "midi": 42,
          "name": "F#2",
          "ticks": 15264,
          "time": 45.865378500000006,
          "velocity": 0.7559055118110236
        },
        {
          "duration": 0.1442307499999984,
          "durationTicks": 48,
          "midi": 42,
          "name": "F#2",
          "ticks": 15312,
          "time": 46.009609250000004,
          "velocity": 0.7559055118110236
        },
        {
          "duration": 0.14423075000000551,
          "durationTicks": 48,
          "midi": 42,
          "name": "F#2",
          "ticks": 15360,
          "time": 46.15384,
          "velocity": 0.7559055118110236
        },
        {
          "duration": 0.1442307499999984,
          "durationTicks": 48,
          "midi": 42,
          "name": "F#2",
          "ticks": 15408,
          "time": 46.29807075000001,
          "velocity": 0.7559055118110236
        },
        {
          "duration": 0,
          "durationTicks": 0,
          "midi": 35,
          "name": "B1",
          "ticks": 15456,
          "time": 46.442301500000006,
          "velocity": 0.7559055118110236
        },
        {
          "duration": 0,
          "durationTicks": 0,
          "midi": 35,
          "name": "B1",
          "ticks": 15456,
          "time": 46.442301500000006,
          "velocity": 0.7559055118110236
        },
        {
          "duration": 1.1538460000000015,
          "durationTicks": 384,
          "midi": 35,
          "name": "B1",
          "ticks": 15456,
          "time": 46.442301500000006,
          "velocity": 0.7559055118110236
        },
        {
          "duration": 0.2884614999999968,
          "durationTicks": 96,
          "midi": 42,
          "name": "F#2",
          "ticks": 15456,
          "time": 46.442301500000006,
          "velocity": 0.7559055118110236
        },
        {
          "duration": 0.2884615000000039,
          "durationTicks": 96,
          "midi": 42,
          "name": "F#2",
          "ticks": 15552,
          "time": 46.730763,
          "velocity": 0.7559055118110236
        },
        {
          "duration": 0.8653844999999976,
          "durationTicks": 288,
          "midi": 39,
          "name": "D#2",
          "ticks": 15648,
          "time": 47.01922450000001,
          "velocity": 0.7559055118110236
        },
        {
          "duration": 0.2884614999999968,
          "durationTicks": 96,
          "midi": 42,
          "name": "F#2",
          "ticks": 15648,
          "time": 47.01922450000001,
          "velocity": 0.7559055118110236
        },
        {
          "duration": 0.2884615000000039,
          "durationTicks": 96,
          "midi": 42,
          "name": "F#2",
          "ticks": 15744,
          "time": 47.307686000000004,
          "velocity": 0.7559055118110236
        },
        {
          "duration": 0,
          "durationTicks": 0,
          "midi": 35,
          "name": "B1",
          "ticks": 15840,
          "time": 47.59614750000001,
          "velocity": 0.7559055118110236
        },
        {
          "duration": 0,
          "durationTicks": 0,
          "midi": 35,
          "name": "B1",
          "ticks": 15840,
          "time": 47.59614750000001,
          "velocity": 0.7559055118110236
        },
        {
          "duration": 1.1538460000000015,
          "durationTicks": 384,
          "midi": 35,
          "name": "B1",
          "ticks": 15840,
          "time": 47.59614750000001,
          "velocity": 0.7559055118110236
        },
        {
          "duration": 0.2884614999999968,
          "durationTicks": 96,
          "midi": 42,
          "name": "F#2",
          "ticks": 15840,
          "time": 47.59614750000001,
          "velocity": 0.7559055118110236
        },
        {
          "duration": 1.4423074999999983,
          "durationTicks": 480,
          "midi": 39,
          "name": "D#2",
          "ticks": 15936,
          "time": 47.884609000000005,
          "velocity": 0.7559055118110236
        },
        {
          "duration": 0.2884615000000039,
          "durationTicks": 96,
          "midi": 42,
          "name": "F#2",
          "ticks": 15936,
          "time": 47.884609000000005,
          "velocity": 0.7559055118110236
        },
        {
          "duration": 0.2884614999999968,
          "durationTicks": 96,
          "midi": 42,
          "name": "F#2",
          "ticks": 16032,
          "time": 48.17307050000001,
          "velocity": 0.7559055118110236
        },
        {
          "duration": 0.2884615000000039,
          "durationTicks": 96,
          "midi": 42,
          "name": "F#2",
          "ticks": 16128,
          "time": 48.461532000000005,
          "velocity": 0.7559055118110236
        },
        {
          "duration": 0,
          "durationTicks": 0,
          "midi": 35,
          "name": "B1",
          "ticks": 16224,
          "time": 48.74999350000001,
          "velocity": 0.7559055118110236
        },
        {
          "duration": 0,
          "durationTicks": 0,
          "midi": 35,
          "name": "B1",
          "ticks": 16224,
          "time": 48.74999350000001,
          "velocity": 0.7559055118110236
        },
        {
          "duration": 1.1538459999999944,
          "durationTicks": 384,
          "midi": 35,
          "name": "B1",
          "ticks": 16224,
          "time": 48.74999350000001,
          "velocity": 0.7559055118110236
        },
        {
          "duration": 0.2884614999999968,
          "durationTicks": 96,
          "midi": 42,
          "name": "F#2",
          "ticks": 16224,
          "time": 48.74999350000001,
          "velocity": 0.7559055118110236
        },
        {
          "duration": 0.2884614999999968,
          "durationTicks": 96,
          "midi": 42,
          "name": "F#2",
          "ticks": 16320,
          "time": 49.038455000000006,
          "velocity": 0.7559055118110236
        },
        {
          "duration": 0.8653845000000047,
          "durationTicks": 288,
          "midi": 39,
          "name": "D#2",
          "ticks": 16416,
          "time": 49.3269165,
          "velocity": 0.7559055118110236
        },
        {
          "duration": 0.2884615000000039,
          "durationTicks": 96,
          "midi": 42,
          "name": "F#2",
          "ticks": 16416,
          "time": 49.3269165,
          "velocity": 0.7559055118110236
        },
        {
          "duration": 0.2884614999999968,
          "durationTicks": 96,
          "midi": 42,
          "name": "F#2",
          "ticks": 16512,
          "time": 49.61537800000001,
          "velocity": 0.7559055118110236
        },
        {
          "duration": 0,
          "durationTicks": 0,
          "midi": 35,
          "name": "B1",
          "ticks": 16608,
          "time": 49.903839500000004,
          "velocity": 0.7559055118110236
        },
        {
          "duration": 0,
          "durationTicks": 0,
          "midi": 35,
          "name": "B1",
          "ticks": 16608,
          "time": 49.903839500000004,
          "velocity": 0.7559055118110236
        },
        {
          "duration": 1.1538460000000015,
          "durationTicks": 384,
          "midi": 35,
          "name": "B1",
          "ticks": 16608,
          "time": 49.903839500000004,
          "velocity": 0.7559055118110236
        },
        {
          "duration": 0.2884615000000039,
          "durationTicks": 96,
          "midi": 42,
          "name": "F#2",
          "ticks": 16608,
          "time": 49.903839500000004,
          "velocity": 0.7559055118110236
        },
        {
          "duration": 1.4423074999999983,
          "durationTicks": 480,
          "midi": 39,
          "name": "D#2",
          "ticks": 16704,
          "time": 50.19230100000001,
          "velocity": 0.7559055118110236
        },
        {
          "duration": 0.2884614999999968,
          "durationTicks": 96,
          "midi": 42,
          "name": "F#2",
          "ticks": 16704,
          "time": 50.19230100000001,
          "velocity": 0.7559055118110236
        },
        {
          "duration": 0.2884615000000039,
          "durationTicks": 96,
          "midi": 42,
          "name": "F#2",
          "ticks": 16800,
          "time": 50.480762500000004,
          "velocity": 0.7559055118110236
        },
        {
          "duration": 0.2884614999999968,
          "durationTicks": 96,
          "midi": 42,
          "name": "F#2",
          "ticks": 16896,
          "time": 50.76922400000001,
          "velocity": 0.7559055118110236
        },
        {
          "duration": 0,
          "durationTicks": 0,
          "midi": 35,
          "name": "B1",
          "ticks": 16992,
          "time": 51.057685500000005,
          "velocity": 0.7559055118110236
        },
        {
          "duration": 0,
          "durationTicks": 0,
          "midi": 35,
          "name": "B1",
          "ticks": 16992,
          "time": 51.057685500000005,
          "velocity": 0.7559055118110236
        },
        {
          "duration": 1.1538460000000015,
          "durationTicks": 384,
          "midi": 35,
          "name": "B1",
          "ticks": 16992,
          "time": 51.057685500000005,
          "velocity": 0.7559055118110236
        },
        {
          "duration": 0.2884615000000039,
          "durationTicks": 96,
          "midi": 42,
          "name": "F#2",
          "ticks": 16992,
          "time": 51.057685500000005,
          "velocity": 0.7559055118110236
        },
        {
          "duration": 0.2884614999999968,
          "durationTicks": 96,
          "midi": 42,
          "name": "F#2",
          "ticks": 17088,
          "time": 51.34614700000001,
          "velocity": 0.7559055118110236
        },
        {
          "duration": 0.8653844999999976,
          "durationTicks": 288,
          "midi": 39,
          "name": "D#2",
          "ticks": 17184,
          "time": 51.634608500000006,
          "velocity": 0.7559055118110236
        },
        {
          "duration": 0.2884615000000039,
          "durationTicks": 96,
          "midi": 42,
          "name": "F#2",
          "ticks": 17184,
          "time": 51.634608500000006,
          "velocity": 0.7559055118110236
        },
        {
          "duration": 0.2884614999999968,
          "durationTicks": 96,
          "midi": 42,
          "name": "F#2",
          "ticks": 17280,
          "time": 51.92307000000001,
          "velocity": 0.7559055118110236
        },
        {
          "duration": 0,
          "durationTicks": 0,
          "midi": 35,
          "name": "B1",
          "ticks": 17376,
          "time": 52.21153150000001,
          "velocity": 0.7559055118110236
        },
        {
          "duration": 0,
          "durationTicks": 0,
          "midi": 35,
          "name": "B1",
          "ticks": 17376,
          "time": 52.21153150000001,
          "velocity": 0.7559055118110236
        },
        {
          "duration": 1.1538460000000015,
          "durationTicks": 384,
          "midi": 35,
          "name": "B1",
          "ticks": 17376,
          "time": 52.21153150000001,
          "velocity": 0.7559055118110236
        },
        {
          "duration": 0.2884614999999968,
          "durationTicks": 96,
          "midi": 42,
          "name": "F#2",
          "ticks": 17376,
          "time": 52.21153150000001,
          "velocity": 0.7559055118110236
        },
        {
          "duration": 1.4423075000000054,
          "durationTicks": 480,
          "midi": 39,
          "name": "D#2",
          "ticks": 17472,
          "time": 52.499993,
          "velocity": 0.7559055118110236
        },
        {
          "duration": 0.2884615000000039,
          "durationTicks": 96,
          "midi": 42,
          "name": "F#2",
          "ticks": 17472,
          "time": 52.499993,
          "velocity": 0.7559055118110236
        },
        {
          "duration": 0.2884614999999968,
          "durationTicks": 96,
          "midi": 42,
          "name": "F#2",
          "ticks": 17568,
          "time": 52.78845450000001,
          "velocity": 0.7559055118110236
        },
        {
          "duration": 0.2884615000000039,
          "durationTicks": 96,
          "midi": 42,
          "name": "F#2",
          "ticks": 17664,
          "time": 53.076916000000004,
          "velocity": 0.7559055118110236
        },
        {
          "duration": 0,
          "durationTicks": 0,
          "midi": 35,
          "name": "B1",
          "ticks": 17760,
          "time": 53.36537750000001,
          "velocity": 0.7559055118110236
        },
        {
          "duration": 0,
          "durationTicks": 0,
          "midi": 35,
          "name": "B1",
          "ticks": 17760,
          "time": 53.36537750000001,
          "velocity": 0.7559055118110236
        },
        {
          "duration": 1.1538460000000015,
          "durationTicks": 384,
          "midi": 35,
          "name": "B1",
          "ticks": 17760,
          "time": 53.36537750000001,
          "velocity": 0.7559055118110236
        },
        {
          "duration": 0.2884614999999968,
          "durationTicks": 96,
          "midi": 42,
          "name": "F#2",
          "ticks": 17760,
          "time": 53.36537750000001,
          "velocity": 0.7559055118110236
        },
        {
          "duration": 0.2884615000000039,
          "durationTicks": 96,
          "midi": 42,
          "name": "F#2",
          "ticks": 17856,
          "time": 53.653839000000005,
          "velocity": 0.7559055118110236
        },
        {
          "duration": 0.8653844999999976,
          "durationTicks": 288,
          "midi": 39,
          "name": "D#2",
          "ticks": 17952,
          "time": 53.94230050000001,
          "velocity": 0.7559055118110236
        },
        {
          "duration": 0.2884614999999968,
          "durationTicks": 96,
          "midi": 42,
          "name": "F#2",
          "ticks": 17952,
          "time": 53.94230050000001,
          "velocity": 0.7559055118110236
        },
        {
          "duration": 0.2884615000000039,
          "durationTicks": 96,
          "midi": 42,
          "name": "F#2",
          "ticks": 18048,
          "time": 54.230762000000006,
          "velocity": 0.7559055118110236
        },
        {
          "duration": 0,
          "durationTicks": 0,
          "midi": 35,
          "name": "B1",
          "ticks": 18144,
          "time": 54.51922350000001,
          "velocity": 0.7559055118110236
        },
        {
          "duration": 0,
          "durationTicks": 0,
          "midi": 35,
          "name": "B1",
          "ticks": 18144,
          "time": 54.51922350000001,
          "velocity": 0.7559055118110236
        },
        {
          "duration": 1.1538459999999944,
          "durationTicks": 384,
          "midi": 35,
          "name": "B1",
          "ticks": 18144,
          "time": 54.51922350000001,
          "velocity": 0.7559055118110236
        },
        {
          "duration": 0.2884614999999968,
          "durationTicks": 96,
          "midi": 42,
          "name": "F#2",
          "ticks": 18144,
          "time": 54.51922350000001,
          "velocity": 0.7559055118110236
        },
        {
          "duration": 1.4423074999999983,
          "durationTicks": 480,
          "midi": 39,
          "name": "D#2",
          "ticks": 18240,
          "time": 54.807685000000006,
          "velocity": 0.7559055118110236
        },
        {
          "duration": 0.2884615000000039,
          "durationTicks": 96,
          "midi": 42,
          "name": "F#2",
          "ticks": 18240,
          "time": 54.807685000000006,
          "velocity": 0.7559055118110236
        },
        {
          "duration": 0.2884614999999968,
          "durationTicks": 96,
          "midi": 42,
          "name": "F#2",
          "ticks": 18336,
          "time": 55.09614650000001,
          "velocity": 0.7559055118110236
        },
        {
          "duration": 0.2884614999999968,
          "durationTicks": 96,
          "midi": 42,
          "name": "F#2",
          "ticks": 18432,
          "time": 55.38460800000001,
          "velocity": 0.7559055118110236
        },
        {
          "duration": 0,
          "durationTicks": 0,
          "midi": 35,
          "name": "B1",
          "ticks": 18528,
          "time": 55.673069500000004,
          "velocity": 0.7559055118110236
        },
        {
          "duration": 0,
          "durationTicks": 0,
          "midi": 35,
          "name": "B1",
          "ticks": 18528,
          "time": 55.673069500000004,
          "velocity": 0.7559055118110236
        },
        {
          "duration": 1.1538460000000015,
          "durationTicks": 384,
          "midi": 35,
          "name": "B1",
          "ticks": 18528,
          "time": 55.673069500000004,
          "velocity": 0.7559055118110236
        },
        {
          "duration": 0.2884615000000039,
          "durationTicks": 96,
          "midi": 42,
          "name": "F#2",
          "ticks": 18528,
          "time": 55.673069500000004,
          "velocity": 0.7559055118110236
        },
        {
          "duration": 0.2884614999999968,
          "durationTicks": 96,
          "midi": 42,
          "name": "F#2",
          "ticks": 18624,
          "time": 55.96153100000001,
          "velocity": 0.7559055118110236
        },
        {
          "duration": 0.8653845000000047,
          "durationTicks": 288,
          "midi": 39,
          "name": "D#2",
          "ticks": 18720,
          "time": 56.249992500000005,
          "velocity": 0.7559055118110236
        },
        {
          "duration": 0.2884615000000039,
          "durationTicks": 96,
          "midi": 42,
          "name": "F#2",
          "ticks": 18720,
          "time": 56.249992500000005,
          "velocity": 0.7559055118110236
        },
        {
          "duration": 0.2884614999999968,
          "durationTicks": 96,
          "midi": 42,
          "name": "F#2",
          "ticks": 18816,
          "time": 56.53845400000001,
          "velocity": 0.7559055118110236
        },
        {
          "duration": 0,
          "durationTicks": 0,
          "midi": 35,
          "name": "B1",
          "ticks": 18912,
          "time": 56.826915500000005,
          "velocity": 0.7559055118110236
        },
        {
          "duration": 0,
          "durationTicks": 0,
          "midi": 35,
          "name": "B1",
          "ticks": 18912,
          "time": 56.826915500000005,
          "velocity": 0.7559055118110236
        },
        {
          "duration": 1.1538460000000015,
          "durationTicks": 384,
          "midi": 35,
          "name": "B1",
          "ticks": 18912,
          "time": 56.826915500000005,
          "velocity": 0.7559055118110236
        },
        {
          "duration": 0.2884615000000039,
          "durationTicks": 96,
          "midi": 42,
          "name": "F#2",
          "ticks": 18912,
          "time": 56.826915500000005,
          "velocity": 0.7559055118110236
        },
        {
          "duration": 1.4423074999999983,
          "durationTicks": 480,
          "midi": 39,
          "name": "D#2",
          "ticks": 19008,
          "time": 57.11537700000001,
          "velocity": 0.7559055118110236
        },
        {
          "duration": 0.2884614999999968,
          "durationTicks": 96,
          "midi": 42,
          "name": "F#2",
          "ticks": 19008,
          "time": 57.11537700000001,
          "velocity": 0.7559055118110236
        },
        {
          "duration": 0.2884615000000039,
          "durationTicks": 96,
          "midi": 42,
          "name": "F#2",
          "ticks": 19104,
          "time": 57.403838500000006,
          "velocity": 0.7559055118110236
        },
        {
          "duration": 0.2884614999999968,
          "durationTicks": 96,
          "midi": 42,
          "name": "F#2",
          "ticks": 19200,
          "time": 57.69230000000001,
          "velocity": 0.7559055118110236
        },
        {
          "duration": 0,
          "durationTicks": 0,
          "midi": 35,
          "name": "B1",
          "ticks": 19296,
          "time": 57.98076150000001,
          "velocity": 0.7559055118110236
        },
        {
          "duration": 0,
          "durationTicks": 0,
          "midi": 35,
          "name": "B1",
          "ticks": 19296,
          "time": 57.98076150000001,
          "velocity": 0.7559055118110236
        },
        {
          "duration": 1.1538460000000015,
          "durationTicks": 384,
          "midi": 35,
          "name": "B1",
          "ticks": 19296,
          "time": 57.98076150000001,
          "velocity": 0.7559055118110236
        },
        {
          "duration": 0.2884615000000039,
          "durationTicks": 96,
          "midi": 42,
          "name": "F#2",
          "ticks": 19296,
          "time": 57.98076150000001,
          "velocity": 0.7559055118110236
        },
        {
          "duration": 0.2884614999999968,
          "durationTicks": 96,
          "midi": 42,
          "name": "F#2",
          "ticks": 19392,
          "time": 58.26922300000001,
          "velocity": 0.7559055118110236
        },
        {
          "duration": 0.8653844999999976,
          "durationTicks": 288,
          "midi": 39,
          "name": "D#2",
          "ticks": 19488,
          "time": 58.55768450000001,
          "velocity": 0.7559055118110236
        },
        {
          "duration": 0.2884614999999968,
          "durationTicks": 96,
          "midi": 42,
          "name": "F#2",
          "ticks": 19488,
          "time": 58.55768450000001,
          "velocity": 0.7559055118110236
        },
        {
          "duration": 0.2884615000000039,
          "durationTicks": 96,
          "midi": 42,
          "name": "F#2",
          "ticks": 19584,
          "time": 58.846146000000005,
          "velocity": 0.7559055118110236
        },
        {
          "duration": 0,
          "durationTicks": 0,
          "midi": 35,
          "name": "B1",
          "ticks": 19680,
          "time": 59.13460750000001,
          "velocity": 0.7559055118110236
        },
        {
          "duration": 0,
          "durationTicks": 0,
          "midi": 35,
          "name": "B1",
          "ticks": 19680,
          "time": 59.13460750000001,
          "velocity": 0.7559055118110236
        },
        {
          "duration": 1.1538460000000015,
          "durationTicks": 384,
          "midi": 35,
          "name": "B1",
          "ticks": 19680,
          "time": 59.13460750000001,
          "velocity": 0.7559055118110236
        },
        {
          "duration": 0.2884614999999968,
          "durationTicks": 96,
          "midi": 42,
          "name": "F#2",
          "ticks": 19680,
          "time": 59.13460750000001,
          "velocity": 0.7559055118110236
        },
        {
          "duration": 1.4423075000000054,
          "durationTicks": 480,
          "midi": 39,
          "name": "D#2",
          "ticks": 19776,
          "time": 59.423069000000005,
          "velocity": 0.7559055118110236
        },
        {
          "duration": 0.2884615000000039,
          "durationTicks": 96,
          "midi": 42,
          "name": "F#2",
          "ticks": 19776,
          "time": 59.423069000000005,
          "velocity": 0.7559055118110236
        },
        {
          "duration": 0.2884614999999968,
          "durationTicks": 96,
          "midi": 42,
          "name": "F#2",
          "ticks": 19872,
          "time": 59.71153050000001,
          "velocity": 0.7559055118110236
        },
        {
          "duration": 0.2884615000000039,
          "durationTicks": 96,
          "midi": 42,
          "name": "F#2",
          "ticks": 19968,
          "time": 59.999992000000006,
          "velocity": 0.7559055118110236
        },
        {
          "duration": 0,
          "durationTicks": 0,
          "midi": 35,
          "name": "B1",
          "ticks": 20064,
          "time": 60.28845350000001,
          "velocity": 0.7559055118110236
        },
        {
          "duration": 0,
          "durationTicks": 0,
          "midi": 35,
          "name": "B1",
          "ticks": 20064,
          "time": 60.28845350000001,
          "velocity": 0.7559055118110236
        },
        {
          "duration": 1.1538460000000015,
          "durationTicks": 384,
          "midi": 35,
          "name": "B1",
          "ticks": 20064,
          "time": 60.28845350000001,
          "velocity": 0.7559055118110236
        },
        {
          "duration": 0.2884614999999968,
          "durationTicks": 96,
          "midi": 42,
          "name": "F#2",
          "ticks": 20064,
          "time": 60.28845350000001,
          "velocity": 0.7559055118110236
        },
        {
          "duration": 0.2884615000000039,
          "durationTicks": 96,
          "midi": 42,
          "name": "F#2",
          "ticks": 20160,
          "time": 60.57691500000001,
          "velocity": 0.7559055118110236
        },
        {
          "duration": 0.8653844999999976,
          "durationTicks": 288,
          "midi": 39,
          "name": "D#2",
          "ticks": 20256,
          "time": 60.86537650000001,
          "velocity": 0.7559055118110236
        },
        {
          "duration": 0.2884614999999968,
          "durationTicks": 96,
          "midi": 42,
          "name": "F#2",
          "ticks": 20256,
          "time": 60.86537650000001,
          "velocity": 0.7559055118110236
        },
        {
          "duration": 0.2884615000000039,
          "durationTicks": 96,
          "midi": 42,
          "name": "F#2",
          "ticks": 20352,
          "time": 61.15383800000001,
          "velocity": 0.7559055118110236
        },
        {
          "duration": 0,
          "durationTicks": 0,
          "midi": 35,
          "name": "B1",
          "ticks": 20448,
          "time": 61.44229950000001,
          "velocity": 0.7559055118110236
        },
        {
          "duration": 0,
          "durationTicks": 0,
          "midi": 35,
          "name": "B1",
          "ticks": 20448,
          "time": 61.44229950000001,
          "velocity": 0.7559055118110236
        },
        {
          "duration": 1.1538459999999944,
          "durationTicks": 384,
          "midi": 35,
          "name": "B1",
          "ticks": 20448,
          "time": 61.44229950000001,
          "velocity": 0.7559055118110236
        },
        {
          "duration": 0.2884614999999968,
          "durationTicks": 96,
          "midi": 42,
          "name": "F#2",
          "ticks": 20448,
          "time": 61.44229950000001,
          "velocity": 0.7559055118110236
        },
        {
          "duration": 1.4423074999999983,
          "durationTicks": 480,
          "midi": 39,
          "name": "D#2",
          "ticks": 20544,
          "time": 61.73076100000001,
          "velocity": 0.7559055118110236
        },
        {
          "duration": 0.2884614999999968,
          "durationTicks": 96,
          "midi": 42,
          "name": "F#2",
          "ticks": 20544,
          "time": 61.73076100000001,
          "velocity": 0.7559055118110236
        },
        {
          "duration": 0.2884615000000039,
          "durationTicks": 96,
          "midi": 42,
          "name": "F#2",
          "ticks": 20640,
          "time": 62.019222500000005,
          "velocity": 0.7559055118110236
        },
        {
          "duration": 0.2884614999999968,
          "durationTicks": 96,
          "midi": 42,
          "name": "F#2",
          "ticks": 20736,
          "time": 62.30768400000001,
          "velocity": 0.7559055118110236
        },
        {
          "duration": 0,
          "durationTicks": 0,
          "midi": 35,
          "name": "B1",
          "ticks": 20832,
          "time": 62.596145500000006,
          "velocity": 0.7559055118110236
        },
        {
          "duration": 0,
          "durationTicks": 0,
          "midi": 35,
          "name": "B1",
          "ticks": 20832,
          "time": 62.596145500000006,
          "velocity": 0.7559055118110236
        },
        {
          "duration": 1.1538460000000015,
          "durationTicks": 384,
          "midi": 35,
          "name": "B1",
          "ticks": 20832,
          "time": 62.596145500000006,
          "velocity": 0.7559055118110236
        },
        {
          "duration": 0.2884615000000039,
          "durationTicks": 96,
          "midi": 42,
          "name": "F#2",
          "ticks": 20832,
          "time": 62.596145500000006,
          "velocity": 0.7559055118110236
        },
        {
          "duration": 0.2884614999999968,
          "durationTicks": 96,
          "midi": 42,
          "name": "F#2",
          "ticks": 20928,
          "time": 62.88460700000001,
          "velocity": 0.7559055118110236
        },
        {
          "duration": 0.8653844999999976,
          "durationTicks": 288,
          "midi": 39,
          "name": "D#2",
          "ticks": 21024,
          "time": 63.17306850000001,
          "velocity": 0.7559055118110236
        },
        {
          "duration": 0.2884615000000039,
          "durationTicks": 96,
          "midi": 42,
          "name": "F#2",
          "ticks": 21024,
          "time": 63.17306850000001,
          "velocity": 0.7559055118110236
        },
        {
          "duration": 0.2884614999999968,
          "durationTicks": 96,
          "midi": 42,
          "name": "F#2",
          "ticks": 21120,
          "time": 63.46153000000001,
          "velocity": 0.7559055118110236
        },
        {
          "duration": 0,
          "durationTicks": 0,
          "midi": 35,
          "name": "B1",
          "ticks": 21216,
          "time": 63.74999150000001,
          "velocity": 0.7559055118110236
        },
        {
          "duration": 0,
          "durationTicks": 0,
          "midi": 35,
          "name": "B1",
          "ticks": 21216,
          "time": 63.74999150000001,
          "velocity": 0.7559055118110236
        },
        {
          "duration": 1.1538460000000015,
          "durationTicks": 384,
          "midi": 35,
          "name": "B1",
          "ticks": 21216,
          "time": 63.74999150000001,
          "velocity": 0.7559055118110236
        },
        {
          "duration": 0.2884614999999968,
          "durationTicks": 96,
          "midi": 42,
          "name": "F#2",
          "ticks": 21216,
          "time": 63.74999150000001,
          "velocity": 0.7559055118110236
        },
        {
          "duration": 1.4423074999999983,
          "durationTicks": 480,
          "midi": 39,
          "name": "D#2",
          "ticks": 21312,
          "time": 64.038453,
          "velocity": 0.7559055118110236
        },
        {
          "duration": 0.28846150000001103,
          "durationTicks": 96,
          "midi": 42,
          "name": "F#2",
          "ticks": 21312,
          "time": 64.038453,
          "velocity": 0.7559055118110236
        },
        {
          "duration": 0.2884614999999968,
          "durationTicks": 96,
          "midi": 42,
          "name": "F#2",
          "ticks": 21408,
          "time": 64.32691450000002,
          "velocity": 0.7559055118110236
        },
        {
          "duration": 0.2884614999999968,
          "durationTicks": 96,
          "midi": 42,
          "name": "F#2",
          "ticks": 21504,
          "time": 64.61537600000001,
          "velocity": 0.7559055118110236
        },
        {
          "duration": 0,
          "durationTicks": 0,
          "midi": 35,
          "name": "B1",
          "ticks": 21600,
          "time": 64.90383750000001,
          "velocity": 0.7559055118110236
        },
        {
          "duration": 0,
          "durationTicks": 0,
          "midi": 35,
          "name": "B1",
          "ticks": 21600,
          "time": 64.90383750000001,
          "velocity": 0.7559055118110236
        },
        {
          "duration": 1.1538460000000015,
          "durationTicks": 384,
          "midi": 35,
          "name": "B1",
          "ticks": 21600,
          "time": 64.90383750000001,
          "velocity": 0.7559055118110236
        },
        {
          "duration": 0.14423075000000551,
          "durationTicks": 48,
          "midi": 42,
          "name": "F#2",
          "ticks": 21600,
          "time": 64.90383750000001,
          "velocity": 0.7559055118110236
        },
        {
          "duration": 0.1442307499999913,
          "durationTicks": 48,
          "midi": 42,
          "name": "F#2",
          "ticks": 21648,
          "time": 65.04806825000001,
          "velocity": 0.7559055118110236
        },
        {
          "duration": 0.14423075000000551,
          "durationTicks": 48,
          "midi": 42,
          "name": "F#2",
          "ticks": 21696,
          "time": 65.192299,
          "velocity": 0.7559055118110236
        },
        {
          "duration": 0.1442307499999913,
          "durationTicks": 48,
          "midi": 42,
          "name": "F#2",
          "ticks": 21744,
          "time": 65.33652975000001,
          "velocity": 0.7559055118110236
        },
        {
          "duration": 0.8653845000000047,
          "durationTicks": 288,
          "midi": 40,
          "name": "E2",
          "ticks": 21792,
          "time": 65.4807605,
          "velocity": 0.7559055118110236
        },
        {
          "duration": 0.14423075000000551,
          "durationTicks": 48,
          "midi": 42,
          "name": "F#2",
          "ticks": 21792,
          "time": 65.4807605,
          "velocity": 0.7559055118110236
        },
        {
          "duration": 0.14423075000000551,
          "durationTicks": 48,
          "midi": 42,
          "name": "F#2",
          "ticks": 21840,
          "time": 65.62499125000001,
          "velocity": 0.7559055118110236
        },
        {
          "duration": 0.1442307499999913,
          "durationTicks": 48,
          "midi": 42,
          "name": "F#2",
          "ticks": 21888,
          "time": 65.76922200000001,
          "velocity": 0.7559055118110236
        },
        {
          "duration": 0.14423075000000551,
          "durationTicks": 48,
          "midi": 42,
          "name": "F#2",
          "ticks": 21936,
          "time": 65.91345275,
          "velocity": 0.7559055118110236
        },
        {
          "duration": 0,
          "durationTicks": 0,
          "midi": 35,
          "name": "B1",
          "ticks": 21984,
          "time": 66.05768350000001,
          "velocity": 0.7559055118110236
        },
        {
          "duration": 0,
          "durationTicks": 0,
          "midi": 35,
          "name": "B1",
          "ticks": 21984,
          "time": 66.05768350000001,
          "velocity": 0.7559055118110236
        },
        {
          "duration": 1.1538460000000015,
          "durationTicks": 384,
          "midi": 35,
          "name": "B1",
          "ticks": 21984,
          "time": 66.05768350000001,
          "velocity": 0.7559055118110236
        },
        {
          "duration": 0.1442307499999913,
          "durationTicks": 48,
          "midi": 42,
          "name": "F#2",
          "ticks": 21984,
          "time": 66.05768350000001,
          "velocity": 0.7559055118110236
        },
        {
          "duration": 0.14423075000000551,
          "durationTicks": 48,
          "midi": 42,
          "name": "F#2",
          "ticks": 22032,
          "time": 66.20191425,
          "velocity": 0.7559055118110236
        },
        {
          "duration": 1.4423074999999983,
          "durationTicks": 480,
          "midi": 40,
          "name": "E2",
          "ticks": 22080,
          "time": 66.346145,
          "velocity": 0.7559055118110236
        },
        {
          "duration": 0.14423075000000551,
          "durationTicks": 48,
          "midi": 42,
          "name": "F#2",
          "ticks": 22080,
          "time": 66.346145,
          "velocity": 0.7559055118110236
        },
        {
          "duration": 0.1442307499999913,
          "durationTicks": 48,
          "midi": 42,
          "name": "F#2",
          "ticks": 22128,
          "time": 66.49037575000001,
          "velocity": 0.7559055118110236
        },
        {
          "duration": 0.14423075000000551,
          "durationTicks": 48,
          "midi": 42,
          "name": "F#2",
          "ticks": 22176,
          "time": 66.6346065,
          "velocity": 0.7559055118110236
        },
        {
          "duration": 0.14423075000000551,
          "durationTicks": 48,
          "midi": 42,
          "name": "F#2",
          "ticks": 22224,
          "time": 66.77883725000001,
          "velocity": 0.7559055118110236
        },
        {
          "duration": 0.1442307499999913,
          "durationTicks": 48,
          "midi": 42,
          "name": "F#2",
          "ticks": 22272,
          "time": 66.92306800000001,
          "velocity": 0.7559055118110236
        },
        {
          "duration": 0.14423075000000551,
          "durationTicks": 48,
          "midi": 42,
          "name": "F#2",
          "ticks": 22320,
          "time": 67.06729875,
          "velocity": 0.7559055118110236
        },
        {
          "duration": 0,
          "durationTicks": 0,
          "midi": 35,
          "name": "B1",
          "ticks": 22368,
          "time": 67.21152950000001,
          "velocity": 0.7559055118110236
        },
        {
          "duration": 0,
          "durationTicks": 0,
          "midi": 35,
          "name": "B1",
          "ticks": 22368,
          "time": 67.21152950000001,
          "velocity": 0.7559055118110236
        },
        {
          "duration": 0.2884614999999968,
          "durationTicks": 96,
          "midi": 35,
          "name": "B1",
          "ticks": 22368,
          "time": 67.21152950000001,
          "velocity": 0.7559055118110236
        },
        {
          "duration": 0.1442307499999913,
          "durationTicks": 48,
          "midi": 42,
          "name": "F#2",
          "ticks": 22368,
          "time": 67.21152950000001,
          "velocity": 0.7559055118110236
        },
        {
          "duration": 0.14423075000000551,
          "durationTicks": 48,
          "midi": 42,
          "name": "F#2",
          "ticks": 22416,
          "time": 67.35576025,
          "velocity": 0.7559055118110236
        },
        {
          "duration": 0,
          "durationTicks": 0,
          "midi": 35,
          "name": "B1",
          "ticks": 22464,
          "time": 67.49999100000001,
          "velocity": 0.7559055118110236
        },
        {
          "duration": 0,
          "durationTicks": 0,
          "midi": 35,
          "name": "B1",
          "ticks": 22464,
          "time": 67.49999100000001,
          "velocity": 0.7559055118110236
        },
        {
          "duration": 0.8653845000000047,
          "durationTicks": 288,
          "midi": 35,
          "name": "B1",
          "ticks": 22464,
          "time": 67.49999100000001,
          "velocity": 0.7559055118110236
        },
        {
          "duration": 0.14423075000000551,
          "durationTicks": 48,
          "midi": 42,
          "name": "F#2",
          "ticks": 22464,
          "time": 67.49999100000001,
          "velocity": 0.7559055118110236
        },
        {
          "duration": 0.1442307499999913,
          "durationTicks": 48,
          "midi": 42,
          "name": "F#2",
          "ticks": 22512,
          "time": 67.64422175000001,
          "velocity": 0.7559055118110236
        },
        {
          "duration": 0.8653845000000047,
          "durationTicks": 288,
          "midi": 40,
          "name": "E2",
          "ticks": 22560,
          "time": 67.7884525,
          "velocity": 0.7559055118110236
        },
        {
          "duration": 0.14423075000000551,
          "durationTicks": 48,
          "midi": 42,
          "name": "F#2",
          "ticks": 22560,
          "time": 67.7884525,
          "velocity": 0.7559055118110236
        },
        {
          "duration": 0.1442307499999913,
          "durationTicks": 48,
          "midi": 42,
          "name": "F#2",
          "ticks": 22608,
          "time": 67.93268325000001,
          "velocity": 0.7559055118110236
        },
        {
          "duration": 0.14423075000000551,
          "durationTicks": 48,
          "midi": 42,
          "name": "F#2",
          "ticks": 22656,
          "time": 68.076914,
          "velocity": 0.7559055118110236
        },
        {
          "duration": 0.14423075000000551,
          "durationTicks": 48,
          "midi": 42,
          "name": "F#2",
          "ticks": 22704,
          "time": 68.22114475000001,
          "velocity": 0.7559055118110236
        },
        {
          "duration": 0,
          "durationTicks": 0,
          "midi": 35,
          "name": "B1",
          "ticks": 22752,
          "time": 68.36537550000001,
          "velocity": 0.7559055118110236
        },
        {
          "duration": 0,
          "durationTicks": 0,
          "midi": 35,
          "name": "B1",
          "ticks": 22752,
          "time": 68.36537550000001,
          "velocity": 0.7559055118110236
        },
        {
          "duration": 1.1538460000000015,
          "durationTicks": 384,
          "midi": 35,
          "name": "B1",
          "ticks": 22752,
          "time": 68.36537550000001,
          "velocity": 0.7559055118110236
        },
        {
          "duration": 0.1442307499999913,
          "durationTicks": 48,
          "midi": 42,
          "name": "F#2",
          "ticks": 22752,
          "time": 68.36537550000001,
          "velocity": 0.7559055118110236
        },
        {
          "duration": 0.14423075000000551,
          "durationTicks": 48,
          "midi": 42,
          "name": "F#2",
          "ticks": 22800,
          "time": 68.50960625,
          "velocity": 0.7559055118110236
        },
        {
          "duration": 1.4423074999999983,
          "durationTicks": 480,
          "midi": 40,
          "name": "E2",
          "ticks": 22848,
          "time": 68.65383700000001,
          "velocity": 0.7559055118110236
        },
        {
          "duration": 0.14423075000000551,
          "durationTicks": 48,
          "midi": 42,
          "name": "F#2",
          "ticks": 22848,
          "time": 68.65383700000001,
          "velocity": 0.7559055118110236
        },
        {
          "duration": 0.1442307499999913,
          "durationTicks": 48,
          "midi": 42,
          "name": "F#2",
          "ticks": 22896,
          "time": 68.79806775000002,
          "velocity": 0.7559055118110236
        },
        {
          "duration": 0.14423075000000551,
          "durationTicks": 48,
          "midi": 42,
          "name": "F#2",
          "ticks": 22944,
          "time": 68.9422985,
          "velocity": 0.7559055118110236
        },
        {
          "duration": 0.1442307499999913,
          "durationTicks": 48,
          "midi": 42,
          "name": "F#2",
          "ticks": 22992,
          "time": 69.08652925000001,
          "velocity": 0.7559055118110236
        },
        {
          "duration": 0.14423075000000551,
          "durationTicks": 48,
          "midi": 42,
          "name": "F#2",
          "ticks": 23040,
          "time": 69.23076,
          "velocity": 0.7559055118110236
        },
        {
          "duration": 0.14423075000000551,
          "durationTicks": 48,
          "midi": 42,
          "name": "F#2",
          "ticks": 23088,
          "time": 69.37499075000001,
          "velocity": 0.7559055118110236
        },
        {
          "duration": 0,
          "durationTicks": 0,
          "midi": 35,
          "name": "B1",
          "ticks": 23136,
          "time": 69.51922150000001,
          "velocity": 0.7559055118110236
        },
        {
          "duration": 0,
          "durationTicks": 0,
          "midi": 35,
          "name": "B1",
          "ticks": 23136,
          "time": 69.51922150000001,
          "velocity": 0.7559055118110236
        },
        {
          "duration": 1.1538460000000015,
          "durationTicks": 384,
          "midi": 35,
          "name": "B1",
          "ticks": 23136,
          "time": 69.51922150000001,
          "velocity": 0.7559055118110236
        },
        {
          "duration": 0.1442307499999913,
          "durationTicks": 48,
          "midi": 42,
          "name": "F#2",
          "ticks": 23136,
          "time": 69.51922150000001,
          "velocity": 0.7559055118110236
        },
        {
          "duration": 0.14423075000000551,
          "durationTicks": 48,
          "midi": 42,
          "name": "F#2",
          "ticks": 23184,
          "time": 69.66345225,
          "velocity": 0.7559055118110236
        },
        {
          "duration": 0.1442307499999913,
          "durationTicks": 48,
          "midi": 42,
          "name": "F#2",
          "ticks": 23232,
          "time": 69.80768300000001,
          "velocity": 0.7559055118110236
        },
        {
          "duration": 0.14423075000000551,
          "durationTicks": 48,
          "midi": 42,
          "name": "F#2",
          "ticks": 23280,
          "time": 69.95191375,
          "velocity": 0.7559055118110236
        },
        {
          "duration": 0.8653845000000047,
          "durationTicks": 288,
          "midi": 40,
          "name": "E2",
          "ticks": 23328,
          "time": 70.09614450000001,
          "velocity": 0.7559055118110236
        },
        {
          "duration": 0.14423075000000551,
          "durationTicks": 48,
          "midi": 42,
          "name": "F#2",
          "ticks": 23328,
          "time": 70.09614450000001,
          "velocity": 0.7559055118110236
        },
        {
          "duration": 0.1442307499999913,
          "durationTicks": 48,
          "midi": 42,
          "name": "F#2",
          "ticks": 23376,
          "time": 70.24037525000001,
          "velocity": 0.7559055118110236
        },
        {
          "duration": 0.14423075000000551,
          "durationTicks": 48,
          "midi": 42,
          "name": "F#2",
          "ticks": 23424,
          "time": 70.384606,
          "velocity": 0.7559055118110236
        },
        {
          "duration": 0.14423075000000551,
          "durationTicks": 48,
          "midi": 42,
          "name": "F#2",
          "ticks": 23472,
          "time": 70.52883675000001,
          "velocity": 0.7559055118110236
        },
        {
          "duration": 0,
          "durationTicks": 0,
          "midi": 35,
          "name": "B1",
          "ticks": 23520,
          "time": 70.67306750000002,
          "velocity": 0.7559055118110236
        },
        {
          "duration": 0,
          "durationTicks": 0,
          "midi": 35,
          "name": "B1",
          "ticks": 23520,
          "time": 70.67306750000002,
          "velocity": 0.7559055118110236
        },
        {
          "duration": 1.1538459999999873,
          "durationTicks": 384,
          "midi": 35,
          "name": "B1",
          "ticks": 23520,
          "time": 70.67306750000002,
          "velocity": 0.7559055118110236
        },
        {
          "duration": 0.1442307499999913,
          "durationTicks": 48,
          "midi": 42,
          "name": "F#2",
          "ticks": 23520,
          "time": 70.67306750000002,
          "velocity": 0.7559055118110236
        },
        {
          "duration": 0.14423075000000551,
          "durationTicks": 48,
          "midi": 42,
          "name": "F#2",
          "ticks": 23568,
          "time": 70.81729825000001,
          "velocity": 0.7559055118110236
        },
        {
          "duration": 1.4423074999999983,
          "durationTicks": 480,
          "midi": 40,
          "name": "E2",
          "ticks": 23616,
          "time": 70.96152900000001,
          "velocity": 0.7559055118110236
        },
        {
          "duration": 0.1442307499999913,
          "durationTicks": 48,
          "midi": 42,
          "name": "F#2",
          "ticks": 23616,
          "time": 70.96152900000001,
          "velocity": 0.7559055118110236
        },
        {
          "duration": 0.14423075000000551,
          "durationTicks": 48,
          "midi": 42,
          "name": "F#2",
          "ticks": 23664,
          "time": 71.10575975,
          "velocity": 0.7559055118110236
        },
        {
          "duration": 0.14423075000000551,
          "durationTicks": 48,
          "midi": 42,
          "name": "F#2",
          "ticks": 23712,
          "time": 71.24999050000001,
          "velocity": 0.7559055118110236
        },
        {
          "duration": 0.1442307499999913,
          "durationTicks": 48,
          "midi": 42,
          "name": "F#2",
          "ticks": 23760,
          "time": 71.39422125000002,
          "velocity": 0.7559055118110236
        },
        {
          "duration": 0.14423075000000551,
          "durationTicks": 48,
          "midi": 42,
          "name": "F#2",
          "ticks": 23808,
          "time": 71.538452,
          "velocity": 0.7559055118110236
        },
        {
          "duration": 0.1442307499999913,
          "durationTicks": 48,
          "midi": 42,
          "name": "F#2",
          "ticks": 23856,
          "time": 71.68268275000001,
          "velocity": 0.7559055118110236
        },
        {
          "duration": 0,
          "durationTicks": 0,
          "midi": 35,
          "name": "B1",
          "ticks": 23904,
          "time": 71.8269135,
          "velocity": 0.7559055118110236
        },
        {
          "duration": 0,
          "durationTicks": 0,
          "midi": 35,
          "name": "B1",
          "ticks": 23904,
          "time": 71.8269135,
          "velocity": 0.7559055118110236
        },
        {
          "duration": 0.28846150000001103,
          "durationTicks": 96,
          "midi": 35,
          "name": "B1",
          "ticks": 23904,
          "time": 71.8269135,
          "velocity": 0.7559055118110236
        },
        {
          "duration": 0.14423075000000551,
          "durationTicks": 48,
          "midi": 42,
          "name": "F#2",
          "ticks": 23904,
          "time": 71.8269135,
          "velocity": 0.7559055118110236
        },
        {
          "duration": 0.14423075000000551,
          "durationTicks": 48,
          "midi": 42,
          "name": "F#2",
          "ticks": 23952,
          "time": 71.97114425000001,
          "velocity": 0.7559055118110236
        },
        {
          "duration": 0,
          "durationTicks": 0,
          "midi": 35,
          "name": "B1",
          "ticks": 24000,
          "time": 72.11537500000001,
          "velocity": 0.7559055118110236
        },
        {
          "duration": 0,
          "durationTicks": 0,
          "midi": 35,
          "name": "B1",
          "ticks": 24000,
          "time": 72.11537500000001,
          "velocity": 0.7559055118110236
        },
        {
          "duration": 0.8653844999999905,
          "durationTicks": 288,
          "midi": 35,
          "name": "B1",
          "ticks": 24000,
          "time": 72.11537500000001,
          "velocity": 0.7559055118110236
        },
        {
          "duration": 0.1442307499999913,
          "durationTicks": 48,
          "midi": 42,
          "name": "F#2",
          "ticks": 24000,
          "time": 72.11537500000001,
          "velocity": 0.7559055118110236
        },
        {
          "duration": 0.14423075000000551,
          "durationTicks": 48,
          "midi": 42,
          "name": "F#2",
          "ticks": 24048,
          "time": 72.25960575,
          "velocity": 0.7559055118110236
        },
        {
          "duration": 0.8653845000000047,
          "durationTicks": 288,
          "midi": 40,
          "name": "E2",
          "ticks": 24096,
          "time": 72.40383650000001,
          "velocity": 0.7559055118110236
        },
        {
          "duration": 0.1442307499999913,
          "durationTicks": 48,
          "midi": 42,
          "name": "F#2",
          "ticks": 24096,
          "time": 72.40383650000001,
          "velocity": 0.7559055118110236
        },
        {
          "duration": 0.14423075000000551,
          "durationTicks": 48,
          "midi": 42,
          "name": "F#2",
          "ticks": 24144,
          "time": 72.54806725,
          "velocity": 0.7559055118110236
        },
        {
          "duration": 0.14423075000000551,
          "durationTicks": 48,
          "midi": 42,
          "name": "F#2",
          "ticks": 24192,
          "time": 72.69229800000001,
          "velocity": 0.7559055118110236
        },
        {
          "duration": 0.1442307499999913,
          "durationTicks": 48,
          "midi": 42,
          "name": "F#2",
          "ticks": 24240,
          "time": 72.83652875000001,
          "velocity": 0.7559055118110236
        },
        {
          "duration": 0,
          "durationTicks": 0,
          "midi": 35,
          "name": "B1",
          "ticks": 24288,
          "time": 72.9807595,
          "velocity": 0.7559055118110236
        },
        {
          "duration": 0,
          "durationTicks": 0,
          "midi": 35,
          "name": "B1",
          "ticks": 24288,
          "time": 72.9807595,
          "velocity": 0.7559055118110236
        },
        {
          "duration": 1.1538460000000015,
          "durationTicks": 384,
          "midi": 35,
          "name": "B1",
          "ticks": 24288,
          "time": 72.9807595,
          "velocity": 0.7559055118110236
        },
        {
          "duration": 0.14423075000000551,
          "durationTicks": 48,
          "midi": 42,
          "name": "F#2",
          "ticks": 24288,
          "time": 72.9807595,
          "velocity": 0.7559055118110236
        },
        {
          "duration": 0.14423075000000551,
          "durationTicks": 48,
          "midi": 42,
          "name": "F#2",
          "ticks": 24336,
          "time": 73.12499025000001,
          "velocity": 0.7559055118110236
        },
        {
          "duration": 1.4423074999999983,
          "durationTicks": 480,
          "midi": 40,
          "name": "E2",
          "ticks": 24384,
          "time": 73.26922100000002,
          "velocity": 0.7559055118110236
        },
        {
          "duration": 0.1442307499999913,
          "durationTicks": 48,
          "midi": 42,
          "name": "F#2",
          "ticks": 24384,
          "time": 73.26922100000002,
          "velocity": 0.7559055118110236
        },
        {
          "duration": 0.14423075000000551,
          "durationTicks": 48,
          "midi": 42,
          "name": "F#2",
          "ticks": 24432,
          "time": 73.41345175000001,
          "velocity": 0.7559055118110236
        },
        {
          "duration": 0.1442307499999913,
          "durationTicks": 48,
          "midi": 42,
          "name": "F#2",
          "ticks": 24480,
          "time": 73.55768250000001,
          "velocity": 0.7559055118110236
        },
        {
          "duration": 0.14423075000000551,
          "durationTicks": 48,
          "midi": 42,
          "name": "F#2",
          "ticks": 24528,
          "time": 73.70191325,
          "velocity": 0.7559055118110236
        },
        {
          "duration": 0.14423075000000551,
          "durationTicks": 48,
          "midi": 42,
          "name": "F#2",
          "ticks": 24576,
          "time": 73.84614400000001,
          "velocity": 0.7559055118110236
        },
        {
          "duration": 0.1442307499999913,
          "durationTicks": 48,
          "midi": 42,
          "name": "F#2",
          "ticks": 24624,
          "time": 73.99037475000002,
          "velocity": 0.7559055118110236
        },
        {
          "duration": 0,
          "durationTicks": 0,
          "midi": 35,
          "name": "B1",
          "ticks": 24672,
          "time": 74.1346055,
          "velocity": 0.7559055118110236
        },
        {
          "duration": 0,
          "durationTicks": 0,
          "midi": 35,
          "name": "B1",
          "ticks": 24672,
          "time": 74.1346055,
          "velocity": 0.7559055118110236
        },
        {
          "duration": 1.1538460000000015,
          "durationTicks": 384,
          "midi": 35,
          "name": "B1",
          "ticks": 24672,
          "time": 74.1346055,
          "velocity": 0.7559055118110236
        },
        {
          "duration": 0.14423075000000551,
          "durationTicks": 48,
          "midi": 42,
          "name": "F#2",
          "ticks": 24672,
          "time": 74.1346055,
          "velocity": 0.7559055118110236
        },
        {
          "duration": 0.1442307499999913,
          "durationTicks": 48,
          "midi": 42,
          "name": "F#2",
          "ticks": 24720,
          "time": 74.27883625000001,
          "velocity": 0.7559055118110236
        },
        {
          "duration": 0.14423075000000551,
          "durationTicks": 48,
          "midi": 42,
          "name": "F#2",
          "ticks": 24768,
          "time": 74.423067,
          "velocity": 0.7559055118110236
        },
        {
          "duration": 0.14423075000000551,
          "durationTicks": 48,
          "midi": 42,
          "name": "F#2",
          "ticks": 24816,
          "time": 74.56729775000001,
          "velocity": 0.7559055118110236
        },
        {
          "duration": 0.8653844999999905,
          "durationTicks": 288,
          "midi": 40,
          "name": "E2",
          "ticks": 24864,
          "time": 74.71152850000001,
          "velocity": 0.7559055118110236
        },
        {
          "duration": 0.1442307499999913,
          "durationTicks": 48,
          "midi": 42,
          "name": "F#2",
          "ticks": 24864,
          "time": 74.71152850000001,
          "velocity": 0.7559055118110236
        },
        {
          "duration": 0.14423075000000551,
          "durationTicks": 48,
          "midi": 42,
          "name": "F#2",
          "ticks": 24912,
          "time": 74.85575925,
          "velocity": 0.7559055118110236
        },
        {
          "duration": 0.14423075000000551,
          "durationTicks": 48,
          "midi": 42,
          "name": "F#2",
          "ticks": 24960,
          "time": 74.99999000000001,
          "velocity": 0.7559055118110236
        },
        {
          "duration": 0.1442307499999913,
          "durationTicks": 48,
          "midi": 42,
          "name": "F#2",
          "ticks": 25008,
          "time": 75.14422075000002,
          "velocity": 0.7559055118110236
        },
        {
          "duration": 0,
          "durationTicks": 0,
          "midi": 35,
          "name": "B1",
          "ticks": 25056,
          "time": 75.28845150000001,
          "velocity": 0.7559055118110236
        },
        {
          "duration": 0,
          "durationTicks": 0,
          "midi": 35,
          "name": "B1",
          "ticks": 25056,
          "time": 75.28845150000001,
          "velocity": 0.7559055118110236
        },
        {
          "duration": 1.1538460000000015,
          "durationTicks": 384,
          "midi": 35,
          "name": "B1",
          "ticks": 25056,
          "time": 75.28845150000001,
          "velocity": 0.7559055118110236
        },
        {
          "duration": 0.14423075000000551,
          "durationTicks": 48,
          "midi": 42,
          "name": "F#2",
          "ticks": 25056,
          "time": 75.28845150000001,
          "velocity": 0.7559055118110236
        },
        {
          "duration": 0.1442307499999913,
          "durationTicks": 48,
          "midi": 42,
          "name": "F#2",
          "ticks": 25104,
          "time": 75.43268225000001,
          "velocity": 0.7559055118110236
        },
        {
          "duration": 1.4423074999999983,
          "durationTicks": 480,
          "midi": 40,
          "name": "E2",
          "ticks": 25152,
          "time": 75.576913,
          "velocity": 0.7559055118110236
        },
        {
          "duration": 0.14423075000000551,
          "durationTicks": 48,
          "midi": 42,
          "name": "F#2",
          "ticks": 25152,
          "time": 75.576913,
          "velocity": 0.7559055118110236
        },
        {
          "duration": 0.14423075000000551,
          "durationTicks": 48,
          "midi": 42,
          "name": "F#2",
          "ticks": 25200,
          "time": 75.72114375000001,
          "velocity": 0.7559055118110236
        },
        {
          "duration": 0.1442307499999913,
          "durationTicks": 48,
          "midi": 42,
          "name": "F#2",
          "ticks": 25248,
          "time": 75.86537450000002,
          "velocity": 0.7559055118110236
        },
        {
          "duration": 0.14423075000000551,
          "durationTicks": 48,
          "midi": 42,
          "name": "F#2",
          "ticks": 25296,
          "time": 76.00960525,
          "velocity": 0.7559055118110236
        },
        {
          "duration": 0.1442307499999913,
          "durationTicks": 48,
          "midi": 42,
          "name": "F#2",
          "ticks": 25344,
          "time": 76.15383600000001,
          "velocity": 0.7559055118110236
        },
        {
          "duration": 0.14423075000000551,
          "durationTicks": 48,
          "midi": 42,
          "name": "F#2",
          "ticks": 25392,
          "time": 76.29806675,
          "velocity": 0.7559055118110236
        },
        {
          "duration": 0,
          "durationTicks": 0,
          "midi": 35,
          "name": "B1",
          "ticks": 25440,
          "time": 76.44229750000001,
          "velocity": 0.7559055118110236
        },
        {
          "duration": 0,
          "durationTicks": 0,
          "midi": 35,
          "name": "B1",
          "ticks": 25440,
          "time": 76.44229750000001,
          "velocity": 0.7559055118110236
        },
        {
          "duration": 0.2884614999999968,
          "durationTicks": 96,
          "midi": 35,
          "name": "B1",
          "ticks": 25440,
          "time": 76.44229750000001,
          "velocity": 0.7559055118110236
        },
        {
          "duration": 0.14423075000000551,
          "durationTicks": 48,
          "midi": 42,
          "name": "F#2",
          "ticks": 25440,
          "time": 76.44229750000001,
          "velocity": 0.7559055118110236
        },
        {
          "duration": 0.1442307499999913,
          "durationTicks": 48,
          "midi": 42,
          "name": "F#2",
          "ticks": 25488,
          "time": 76.58652825000001,
          "velocity": 0.7559055118110236
        },
        {
          "duration": 0,
          "durationTicks": 0,
          "midi": 35,
          "name": "B1",
          "ticks": 25536,
          "time": 76.730759,
          "velocity": 0.7559055118110236
        },
        {
          "duration": 0,
          "durationTicks": 0,
          "midi": 35,
          "name": "B1",
          "ticks": 25536,
          "time": 76.730759,
          "velocity": 0.7559055118110236
        },
        {
          "duration": 0.8653845000000047,
          "durationTicks": 288,
          "midi": 35,
          "name": "B1",
          "ticks": 25536,
          "time": 76.730759,
          "velocity": 0.7559055118110236
        },
        {
          "duration": 0.14423075000000551,
          "durationTicks": 48,
          "midi": 42,
          "name": "F#2",
          "ticks": 25536,
          "time": 76.730759,
          "velocity": 0.7559055118110236
        },
        {
          "duration": 0.1442307499999913,
          "durationTicks": 48,
          "midi": 42,
          "name": "F#2",
          "ticks": 25584,
          "time": 76.87498975000001,
          "velocity": 0.7559055118110236
        },
        {
          "duration": 0.8653845000000047,
          "durationTicks": 288,
          "midi": 40,
          "name": "E2",
          "ticks": 25632,
          "time": 77.0192205,
          "velocity": 0.7559055118110236
        },
        {
          "duration": 0.14423075000000551,
          "durationTicks": 48,
          "midi": 42,
          "name": "F#2",
          "ticks": 25632,
          "time": 77.0192205,
          "velocity": 0.7559055118110236
        },
        {
          "duration": 0.14423075000000551,
          "durationTicks": 48,
          "midi": 42,
          "name": "F#2",
          "ticks": 25680,
          "time": 77.16345125000001,
          "velocity": 0.7559055118110236
        },
        {
          "duration": 0.1442307499999913,
          "durationTicks": 48,
          "midi": 42,
          "name": "F#2",
          "ticks": 25728,
          "time": 77.30768200000001,
          "velocity": 0.7559055118110236
        },
        {
          "duration": 0.14423075000000551,
          "durationTicks": 48,
          "midi": 42,
          "name": "F#2",
          "ticks": 25776,
          "time": 77.45191275,
          "velocity": 0.7559055118110236
        },
        {
          "duration": 0,
          "durationTicks": 0,
          "midi": 35,
          "name": "B1",
          "ticks": 25824,
          "time": 77.59614350000001,
          "velocity": 0.7559055118110236
        },
        {
          "duration": 0,
          "durationTicks": 0,
          "midi": 35,
          "name": "B1",
          "ticks": 25824,
          "time": 77.59614350000001,
          "velocity": 0.7559055118110236
        },
        {
          "duration": 1.1538460000000015,
          "durationTicks": 384,
          "midi": 35,
          "name": "B1",
          "ticks": 25824,
          "time": 77.59614350000001,
          "velocity": 0.7559055118110236
        },
        {
          "duration": 0.14423075000000551,
          "durationTicks": 48,
          "midi": 42,
          "name": "F#2",
          "ticks": 25824,
          "time": 77.59614350000001,
          "velocity": 0.7559055118110236
        },
        {
          "duration": 0.1442307499999913,
          "durationTicks": 48,
          "midi": 42,
          "name": "F#2",
          "ticks": 25872,
          "time": 77.74037425000002,
          "velocity": 0.7559055118110236
        },
        {
          "duration": 1.4423074999999983,
          "durationTicks": 480,
          "midi": 40,
          "name": "E2",
          "ticks": 25920,
          "time": 77.88460500000001,
          "velocity": 0.7559055118110236
        },
        {
          "duration": 0.14423075000000551,
          "durationTicks": 48,
          "midi": 42,
          "name": "F#2",
          "ticks": 25920,
          "time": 77.88460500000001,
          "velocity": 0.7559055118110236
        },
        {
          "duration": 0.1442307499999913,
          "durationTicks": 48,
          "midi": 42,
          "name": "F#2",
          "ticks": 25968,
          "time": 78.02883575000001,
          "velocity": 0.7559055118110236
        },
        {
          "duration": 0.14423075000000551,
          "durationTicks": 48,
          "midi": 42,
          "name": "F#2",
          "ticks": 26016,
          "time": 78.1730665,
          "velocity": 0.7559055118110236
        },
        {
          "duration": 0.14423075000000551,
          "durationTicks": 48,
          "midi": 42,
          "name": "F#2",
          "ticks": 26064,
          "time": 78.31729725000001,
          "velocity": 0.7559055118110236
        },
        {
          "duration": 0.1442307499999913,
          "durationTicks": 48,
          "midi": 42,
          "name": "F#2",
          "ticks": 26112,
          "time": 78.46152800000002,
          "velocity": 0.7559055118110236
        },
        {
          "duration": 0.14423075000000551,
          "durationTicks": 48,
          "midi": 42,
          "name": "F#2",
          "ticks": 26160,
          "time": 78.60575875,
          "velocity": 0.7559055118110236
        },
        {
          "duration": 0,
          "durationTicks": 0,
          "midi": 35,
          "name": "B1",
          "ticks": 26208,
          "time": 78.74998950000001,
          "velocity": 0.7559055118110236
        },
        {
          "duration": 0,
          "durationTicks": 0,
          "midi": 35,
          "name": "B1",
          "ticks": 26208,
          "time": 78.74998950000001,
          "velocity": 0.7559055118110236
        },
        {
          "duration": 1.1538460000000015,
          "durationTicks": 384,
          "midi": 35,
          "name": "B1",
          "ticks": 26208,
          "time": 78.74998950000001,
          "velocity": 0.7559055118110236
        },
        {
          "duration": 0.1442307499999913,
          "durationTicks": 48,
          "midi": 42,
          "name": "F#2",
          "ticks": 26208,
          "time": 78.74998950000001,
          "velocity": 0.7559055118110236
        },
        {
          "duration": 0.14423075000000551,
          "durationTicks": 48,
          "midi": 42,
          "name": "F#2",
          "ticks": 26256,
          "time": 78.89422025,
          "velocity": 0.7559055118110236
        },
        {
          "duration": 0.14423075000000551,
          "durationTicks": 48,
          "midi": 42,
          "name": "F#2",
          "ticks": 26304,
          "time": 79.03845100000001,
          "velocity": 0.7559055118110236
        },
        {
          "duration": 0.1442307499999913,
          "durationTicks": 48,
          "midi": 42,
          "name": "F#2",
          "ticks": 26352,
          "time": 79.18268175000001,
          "velocity": 0.7559055118110236
        },
        {
          "duration": 0.8653845000000047,
          "durationTicks": 288,
          "midi": 40,
          "name": "E2",
          "ticks": 26400,
          "time": 79.3269125,
          "velocity": 0.7559055118110236
        },
        {
          "duration": 0.14423075000000551,
          "durationTicks": 48,
          "midi": 42,
          "name": "F#2",
          "ticks": 26400,
          "time": 79.3269125,
          "velocity": 0.7559055118110236
        },
        {
          "duration": 0.14423075000000551,
          "durationTicks": 48,
          "midi": 42,
          "name": "F#2",
          "ticks": 26448,
          "time": 79.47114325000001,
          "velocity": 0.7559055118110236
        },
        {
          "duration": 0.1442307499999913,
          "durationTicks": 48,
          "midi": 42,
          "name": "F#2",
          "ticks": 26496,
          "time": 79.61537400000002,
          "velocity": 0.7559055118110236
        },
        {
          "duration": 0.14423075000000551,
          "durationTicks": 48,
          "midi": 42,
          "name": "F#2",
          "ticks": 26544,
          "time": 79.75960475000001,
          "velocity": 0.7559055118110236
        },
        {
          "duration": 0,
          "durationTicks": 0,
          "midi": 35,
          "name": "B1",
          "ticks": 26592,
          "time": 79.90383550000001,
          "velocity": 0.7559055118110236
        },
        {
          "duration": 0,
          "durationTicks": 0,
          "midi": 35,
          "name": "B1",
          "ticks": 26592,
          "time": 79.90383550000001,
          "velocity": 0.7559055118110236
        },
        {
          "duration": 1.1538460000000015,
          "durationTicks": 384,
          "midi": 35,
          "name": "B1",
          "ticks": 26592,
          "time": 79.90383550000001,
          "velocity": 0.7559055118110236
        },
        {
          "duration": 0.1442307499999913,
          "durationTicks": 48,
          "midi": 46,
          "name": "A#2",
          "ticks": 26592,
          "time": 79.90383550000001,
          "velocity": 0.7559055118110236
        },
        {
          "duration": 0.14423075000000551,
          "durationTicks": 48,
          "midi": 42,
          "name": "F#2",
          "ticks": 26640,
          "time": 80.04806625,
          "velocity": 0.7559055118110236
        },
        {
          "duration": 1.4423074999999983,
          "durationTicks": 480,
          "midi": 40,
          "name": "E2",
          "ticks": 26688,
          "time": 80.19229700000001,
          "velocity": 0.7559055118110236
        },
        {
          "duration": 0.14423075000000551,
          "durationTicks": 48,
          "midi": 46,
          "name": "A#2",
          "ticks": 26688,
          "time": 80.19229700000001,
          "velocity": 0.7559055118110236
        },
        {
          "duration": 0.1442307499999913,
          "durationTicks": 48,
          "midi": 42,
          "name": "F#2",
          "ticks": 26736,
          "time": 80.33652775000002,
          "velocity": 0.7559055118110236
        },
        {
          "duration": 0.14423075000000551,
          "durationTicks": 48,
          "midi": 46,
          "name": "A#2",
          "ticks": 26784,
          "time": 80.48075850000001,
          "velocity": 0.7559055118110236
        },
        {
          "duration": 0.1442307499999913,
          "durationTicks": 48,
          "midi": 42,
          "name": "F#2",
          "ticks": 26832,
          "time": 80.62498925000001,
          "velocity": 0.7559055118110236
        },
        {
          "duration": 0.14423075000000551,
          "durationTicks": 48,
          "midi": 46,
          "name": "A#2",
          "ticks": 26880,
          "time": 80.76922,
          "velocity": 0.7559055118110236
        },
        {
          "duration": 0.14423075000000551,
          "durationTicks": 48,
          "midi": 42,
          "name": "F#2",
          "ticks": 26928,
          "time": 80.91345075000001,
          "velocity": 0.7559055118110236
        },
        {
          "duration": 0,
          "durationTicks": 0,
          "midi": 35,
          "name": "B1",
          "ticks": 26976,
          "time": 81.05768150000002,
          "velocity": 0.7559055118110236
        },
        {
          "duration": 0,
          "durationTicks": 0,
          "midi": 35,
          "name": "B1",
          "ticks": 26976,
          "time": 81.05768150000002,
          "velocity": 0.7559055118110236
        },
        {
          "duration": 0.2884614999999968,
          "durationTicks": 96,
          "midi": 35,
          "name": "B1",
          "ticks": 26976,
          "time": 81.05768150000002,
          "velocity": 0.7559055118110236
        },
        {
          "duration": 0.1442307499999913,
          "durationTicks": 48,
          "midi": 46,
          "name": "A#2",
          "ticks": 26976,
          "time": 81.05768150000002,
          "velocity": 0.7559055118110236
        },
        {
          "duration": 0.14423075000000551,
          "durationTicks": 48,
          "midi": 42,
          "name": "F#2",
          "ticks": 27024,
          "time": 81.20191225,
          "velocity": 0.7559055118110236
        },
        {
          "duration": 0,
          "durationTicks": 0,
          "midi": 35,
          "name": "B1",
          "ticks": 27072,
          "time": 81.34614300000001,
          "velocity": 0.7559055118110236
        },
        {
          "duration": 0,
          "durationTicks": 0,
          "midi": 35,
          "name": "B1",
          "ticks": 27072,
          "time": 81.34614300000001,
          "velocity": 0.7559055118110236
        },
        {
          "duration": 0.8653845000000047,
          "durationTicks": 288,
          "midi": 35,
          "name": "B1",
          "ticks": 27072,
          "time": 81.34614300000001,
          "velocity": 0.7559055118110236
        },
        {
          "duration": 0.14423075000000551,
          "durationTicks": 48,
          "midi": 46,
          "name": "A#2",
          "ticks": 27072,
          "time": 81.34614300000001,
          "velocity": 0.7559055118110236
        },
        {
          "duration": 0.1442307499999913,
          "durationTicks": 48,
          "midi": 42,
          "name": "F#2",
          "ticks": 27120,
          "time": 81.49037375000002,
          "velocity": 0.7559055118110236
        },
        {
          "duration": 0.8653845000000047,
          "durationTicks": 288,
          "midi": 40,
          "name": "E2",
          "ticks": 27168,
          "time": 81.63460450000001,
          "velocity": 0.7559055118110236
        },
        {
          "duration": 0.2884614999999968,
          "durationTicks": 96,
          "midi": 46,
          "name": "A#2",
          "ticks": 27168,
          "time": 81.63460450000001,
          "velocity": 0.7559055118110236
        },
        {
          "duration": 0.28846150000001103,
          "durationTicks": 96,
          "midi": 46,
          "name": "A#2",
          "ticks": 27264,
          "time": 81.923066,
          "velocity": 0.7559055118110236
        },
        {
          "duration": 0,
          "durationTicks": 0,
          "midi": 35,
          "name": "B1",
          "ticks": 27360,
          "time": 82.21152750000002,
          "velocity": 0.7559055118110236
        },
        {
          "duration": 0,
          "durationTicks": 0,
          "midi": 35,
          "name": "B1",
          "ticks": 27360,
          "time": 82.21152750000002,
          "velocity": 0.7559055118110236
        },
        {
          "duration": 1.1538459999999873,
          "durationTicks": 384,
          "midi": 35,
          "name": "B1",
          "ticks": 27360,
          "time": 82.21152750000002,
          "velocity": 0.7559055118110236
        },
        {
          "duration": 0.2884614999999968,
          "durationTicks": 96,
          "midi": 46,
          "name": "A#2",
          "ticks": 27360,
          "time": 82.21152750000002,
          "velocity": 0.7559055118110236
        },
        {
          "duration": 1.4423074999999983,
          "durationTicks": 480,
          "midi": 40,
          "name": "E2",
          "ticks": 27456,
          "time": 82.49998900000001,
          "velocity": 0.7559055118110236
        },
        {
          "duration": 0.2884614999999968,
          "durationTicks": 96,
          "midi": 46,
          "name": "A#2",
          "ticks": 27456,
          "time": 82.49998900000001,
          "velocity": 0.7559055118110236
        },
        {
          "duration": 0.8653845000000047,
          "durationTicks": 288,
          "midi": 46,
          "name": "A#2",
          "ticks": 27552,
          "time": 82.78845050000001,
          "velocity": 0.7559055118110236
        },
        {
          "duration": 0,
          "durationTicks": 0,
          "midi": 35,
          "name": "B1",
          "ticks": 27744,
          "time": 83.3653735,
          "velocity": 0.7559055118110236
        },
        {
          "duration": 0,
          "durationTicks": 0,
          "midi": 35,
          "name": "B1",
          "ticks": 27744,
          "time": 83.3653735,
          "velocity": 0.7559055118110236
        },
        {
          "duration": 0.5769230000000078,
          "durationTicks": 192,
          "midi": 35,
          "name": "B1",
          "ticks": 27744,
          "time": 83.3653735,
          "velocity": 0.7559055118110236
        },
        {
          "duration": 8.653845000000004,
          "durationTicks": 2880,
          "midi": 49,
          "name": "C#3",
          "ticks": 27744,
          "time": 83.3653735,
          "velocity": 0.7559055118110236
        },
        {
          "duration": 0.2884614999999968,
          "durationTicks": 96,
          "midi": 46,
          "name": "A#2",
          "ticks": 27840,
          "time": 83.65383500000002,
          "velocity": 0.7559055118110236
        },
        {
          "duration": 0,
          "durationTicks": 0,
          "midi": 38,
          "name": "D2",
          "ticks": 27936,
          "time": 83.94229650000001,
          "velocity": 0.7559055118110236
        },
        {
          "duration": 0.8653845000000047,
          "durationTicks": 288,
          "midi": 38,
          "name": "D2",
          "ticks": 27936,
          "time": 83.94229650000001,
          "velocity": 0.7559055118110236
        },
        {
          "duration": 0.2884614999999968,
          "durationTicks": 96,
          "midi": 46,
          "name": "A#2",
          "ticks": 27936,
          "time": 83.94229650000001,
          "velocity": 0.7559055118110236
        },
        {
          "duration": 0.2884614999999968,
          "durationTicks": 96,
          "midi": 46,
          "name": "A#2",
          "ticks": 28032,
          "time": 84.23075800000001,
          "velocity": 0.7559055118110236
        },
        {
          "duration": 0,
          "durationTicks": 0,
          "midi": 35,
          "name": "B1",
          "ticks": 28128,
          "time": 84.5192195,
          "velocity": 0.7559055118110236
        },
        {
          "duration": 0,
          "durationTicks": 0,
          "midi": 35,
          "name": "B1",
          "ticks": 28128,
          "time": 84.5192195,
          "velocity": 0.7559055118110236
        },
        {
          "duration": 0.28846150000001103,
          "durationTicks": 96,
          "midi": 35,
          "name": "B1",
          "ticks": 28128,
          "time": 84.5192195,
          "velocity": 0.7559055118110236
        },
        {
          "duration": 0.28846150000001103,
          "durationTicks": 96,
          "midi": 46,
          "name": "A#2",
          "ticks": 28128,
          "time": 84.5192195,
          "velocity": 0.7559055118110236
        },
        {
          "duration": 0,
          "durationTicks": 0,
          "midi": 38,
          "name": "D2",
          "ticks": 28224,
          "time": 84.80768100000002,
          "velocity": 0.7559055118110236
        },
        {
          "duration": 1.4423074999999983,
          "durationTicks": 480,
          "midi": 38,
          "name": "D2",
          "ticks": 28224,
          "time": 84.80768100000002,
          "velocity": 0.7559055118110236
        },
        {
          "duration": 0.2884614999999968,
          "durationTicks": 96,
          "midi": 46,
          "name": "A#2",
          "ticks": 28224,
          "time": 84.80768100000002,
          "velocity": 0.7559055118110236
        },
        {
          "duration": 0.2884614999999968,
          "durationTicks": 96,
          "midi": 46,
          "name": "A#2",
          "ticks": 28320,
          "time": 85.09614250000001,
          "velocity": 0.7559055118110236
        },
        {
          "duration": 0.2884614999999968,
          "durationTicks": 96,
          "midi": 46,
          "name": "A#2",
          "ticks": 28416,
          "time": 85.38460400000001,
          "velocity": 0.7559055118110236
        },
        {
          "duration": 0,
          "durationTicks": 0,
          "midi": 35,
          "name": "B1",
          "ticks": 28512,
          "time": 85.6730655,
          "velocity": 0.7559055118110236
        },
        {
          "duration": 0,
          "durationTicks": 0,
          "midi": 35,
          "name": "B1",
          "ticks": 28512,
          "time": 85.6730655,
          "velocity": 0.7559055118110236
        },
        {
          "duration": 0.28846150000001103,
          "durationTicks": 96,
          "midi": 35,
          "name": "B1",
          "ticks": 28512,
          "time": 85.6730655,
          "velocity": 0.7559055118110236
        },
        {
          "duration": 0.28846150000001103,
          "durationTicks": 96,
          "midi": 46,
          "name": "A#2",
          "ticks": 28512,
          "time": 85.6730655,
          "velocity": 0.7559055118110236
        },
        {
          "duration": 0,
          "durationTicks": 0,
          "midi": 35,
          "name": "B1",
          "ticks": 28608,
          "time": 85.96152700000002,
          "velocity": 0.7559055118110236
        },
        {
          "duration": 0,
          "durationTicks": 0,
          "midi": 35,
          "name": "B1",
          "ticks": 28608,
          "time": 85.96152700000002,
          "velocity": 0.7559055118110236
        },
        {
          "duration": 0.2884614999999968,
          "durationTicks": 96,
          "midi": 35,
          "name": "B1",
          "ticks": 28608,
          "time": 85.96152700000002,
          "velocity": 0.7559055118110236
        },
        {
          "duration": 0.2884614999999968,
          "durationTicks": 96,
          "midi": 46,
          "name": "A#2",
          "ticks": 28608,
          "time": 85.96152700000002,
          "velocity": 0.7559055118110236
        },
        {
          "duration": 0,
          "durationTicks": 0,
          "midi": 38,
          "name": "D2",
          "ticks": 28704,
          "time": 86.24998850000001,
          "velocity": 0.7559055118110236
        },
        {
          "duration": 0.8653844999999905,
          "durationTicks": 288,
          "midi": 38,
          "name": "D2",
          "ticks": 28704,
          "time": 86.24998850000001,
          "velocity": 0.7559055118110236
        },
        {
          "duration": 0.2884614999999968,
          "durationTicks": 96,
          "midi": 46,
          "name": "A#2",
          "ticks": 28704,
          "time": 86.24998850000001,
          "velocity": 0.7559055118110236
        },
        {
          "duration": 0.2884614999999968,
          "durationTicks": 96,
          "midi": 46,
          "name": "A#2",
          "ticks": 28800,
          "time": 86.53845000000001,
          "velocity": 0.7559055118110236
        },
        {
          "duration": 0,
          "durationTicks": 0,
          "midi": 35,
          "name": "B1",
          "ticks": 28896,
          "time": 86.82691150000001,
          "velocity": 0.7559055118110236
        },
        {
          "duration": 0,
          "durationTicks": 0,
          "midi": 35,
          "name": "B1",
          "ticks": 28896,
          "time": 86.82691150000001,
          "velocity": 0.7559055118110236
        },
        {
          "duration": 0.2884614999999968,
          "durationTicks": 96,
          "midi": 35,
          "name": "B1",
          "ticks": 28896,
          "time": 86.82691150000001,
          "velocity": 0.7559055118110236
        },
        {
          "duration": 0.2884614999999968,
          "durationTicks": 96,
          "midi": 46,
          "name": "A#2",
          "ticks": 28896,
          "time": 86.82691150000001,
          "velocity": 0.7559055118110236
        },
        {
          "duration": 0,
          "durationTicks": 0,
          "midi": 38,
          "name": "D2",
          "ticks": 28992,
          "time": 87.115373,
          "velocity": 0.7559055118110236
        },
        {
          "duration": 1.4423075000000125,
          "durationTicks": 480,
          "midi": 38,
          "name": "D2",
          "ticks": 28992,
          "time": 87.115373,
          "velocity": 0.7559055118110236
        },
        {
          "duration": 0.28846150000001103,
          "durationTicks": 96,
          "midi": 46,
          "name": "A#2",
          "ticks": 28992,
          "time": 87.115373,
          "velocity": 0.7559055118110236
        },
        {
          "duration": 0.2884614999999968,
          "durationTicks": 96,
          "midi": 46,
          "name": "A#2",
          "ticks": 29088,
          "time": 87.40383450000002,
          "velocity": 0.7559055118110236
        },
        {
          "duration": 0.2884614999999968,
          "durationTicks": 96,
          "midi": 46,
          "name": "A#2",
          "ticks": 29184,
          "time": 87.69229600000001,
          "velocity": 0.7559055118110236
        },
        {
          "duration": 0,
          "durationTicks": 0,
          "midi": 35,
          "name": "B1",
          "ticks": 29280,
          "time": 87.98075750000001,
          "velocity": 0.7559055118110236
        },
        {
          "duration": 0,
          "durationTicks": 0,
          "midi": 35,
          "name": "B1",
          "ticks": 29280,
          "time": 87.98075750000001,
          "velocity": 0.7559055118110236
        },
        {
          "duration": 0.5769230000000078,
          "durationTicks": 192,
          "midi": 35,
          "name": "B1",
          "ticks": 29280,
          "time": 87.98075750000001,
          "velocity": 0.7559055118110236
        },
        {
          "duration": 0.2884614999999968,
          "durationTicks": 96,
          "midi": 46,
          "name": "A#2",
          "ticks": 29280,
          "time": 87.98075750000001,
          "velocity": 0.7559055118110236
        },
        {
          "duration": 0.28846150000001103,
          "durationTicks": 96,
          "midi": 46,
          "name": "A#2",
          "ticks": 29376,
          "time": 88.269219,
          "velocity": 0.7559055118110236
        },
        {
          "duration": 0,
          "durationTicks": 0,
          "midi": 38,
          "name": "D2",
          "ticks": 29472,
          "time": 88.55768050000002,
          "velocity": 0.7559055118110236
        },
        {
          "duration": 0.8653844999999905,
          "durationTicks": 288,
          "midi": 38,
          "name": "D2",
          "ticks": 29472,
          "time": 88.55768050000002,
          "velocity": 0.7559055118110236
        },
        {
          "duration": 0.2884614999999968,
          "durationTicks": 96,
          "midi": 46,
          "name": "A#2",
          "ticks": 29472,
          "time": 88.55768050000002,
          "velocity": 0.7559055118110236
        },
        {
          "duration": 0.2884614999999968,
          "durationTicks": 96,
          "midi": 46,
          "name": "A#2",
          "ticks": 29568,
          "time": 88.84614200000001,
          "velocity": 0.7559055118110236
        },
        {
          "duration": 0,
          "durationTicks": 0,
          "midi": 35,
          "name": "B1",
          "ticks": 29664,
          "time": 89.13460350000001,
          "velocity": 0.7559055118110236
        },
        {
          "duration": 0,
          "durationTicks": 0,
          "midi": 35,
          "name": "B1",
          "ticks": 29664,
          "time": 89.13460350000001,
          "velocity": 0.7559055118110236
        },
        {
          "duration": 0.2884614999999968,
          "durationTicks": 96,
          "midi": 35,
          "name": "B1",
          "ticks": 29664,
          "time": 89.13460350000001,
          "velocity": 0.7559055118110236
        },
        {
          "duration": 0.2884614999999968,
          "durationTicks": 96,
          "midi": 46,
          "name": "A#2",
          "ticks": 29664,
          "time": 89.13460350000001,
          "velocity": 0.7559055118110236
        },
        {
          "duration": 0,
          "durationTicks": 0,
          "midi": 38,
          "name": "D2",
          "ticks": 29760,
          "time": 89.42306500000001,
          "velocity": 0.7559055118110236
        },
        {
          "duration": 0.8653845000000047,
          "durationTicks": 288,
          "midi": 38,
          "name": "D2",
          "ticks": 29760,
          "time": 89.42306500000001,
          "velocity": 0.7559055118110236
        },
        {
          "duration": 0.2884614999999968,
          "durationTicks": 96,
          "midi": 46,
          "name": "A#2",
          "ticks": 29760,
          "time": 89.42306500000001,
          "velocity": 0.7559055118110236
        },
        {
          "duration": 0.28846150000001103,
          "durationTicks": 96,
          "midi": 46,
          "name": "A#2",
          "ticks": 29856,
          "time": 89.7115265,
          "velocity": 0.7559055118110236
        },
        {
          "duration": 0.2884614999999968,
          "durationTicks": 96,
          "midi": 46,
          "name": "A#2",
          "ticks": 29952,
          "time": 89.99998800000002,
          "velocity": 0.7559055118110236
        },
        {
          "duration": 0,
          "durationTicks": 0,
          "midi": 38,
          "name": "D2",
          "ticks": 30048,
          "time": 90.28844950000001,
          "velocity": 0.7559055118110236
        },
        {
          "duration": 0.8653845000000047,
          "durationTicks": 288,
          "midi": 38,
          "name": "D2",
          "ticks": 30048,
          "time": 90.28844950000001,
          "velocity": 0.7559055118110236
        },
        {
          "duration": 0.2884614999999968,
          "durationTicks": 96,
          "midi": 46,
          "name": "A#2",
          "ticks": 30048,
          "time": 90.28844950000001,
          "velocity": 0.7559055118110236
        },
        {
          "duration": 0,
          "durationTicks": 0,
          "midi": 35,
          "name": "B1",
          "ticks": 30096,
          "time": 90.43268025000002,
          "velocity": 0.7559055118110236
        },
        {
          "duration": 0,
          "durationTicks": 0,
          "midi": 35,
          "name": "B1",
          "ticks": 30096,
          "time": 90.43268025000002,
          "velocity": 0.7559055118110236
        },
        {
          "duration": 0.1442307499999913,
          "durationTicks": 48,
          "midi": 35,
          "name": "B1",
          "ticks": 30096,
          "time": 90.43268025000002,
          "velocity": 0.7559055118110236
        },
        {
          "duration": 0,
          "durationTicks": 0,
          "midi": 35,
          "name": "B1",
          "ticks": 30144,
          "time": 90.57691100000001,
          "velocity": 0.7559055118110236
        },
        {
          "duration": 0,
          "durationTicks": 0,
          "midi": 35,
          "name": "B1",
          "ticks": 30144,
          "time": 90.57691100000001,
          "velocity": 0.7559055118110236
        },
        {
          "duration": 0.2884614999999968,
          "durationTicks": 96,
          "midi": 35,
          "name": "B1",
          "ticks": 30144,
          "time": 90.57691100000001,
          "velocity": 0.7559055118110236
        },
        {
          "duration": 0.2884614999999968,
          "durationTicks": 96,
          "midi": 46,
          "name": "A#2",
          "ticks": 30144,
          "time": 90.57691100000001,
          "velocity": 0.7559055118110236
        },
        {
          "duration": 0,
          "durationTicks": 0,
          "midi": 35,
          "name": "B1",
          "ticks": 30240,
          "time": 90.8653725,
          "velocity": 0.7559055118110236
        },
        {
          "duration": 0,
          "durationTicks": 0,
          "midi": 35,
          "name": "B1",
          "ticks": 30240,
          "time": 90.8653725,
          "velocity": 0.7559055118110236
        },
        {
          "duration": 0.28846150000001103,
          "durationTicks": 96,
          "midi": 35,
          "name": "B1",
          "ticks": 30240,
          "time": 90.8653725,
          "velocity": 0.7559055118110236
        },
        {
          "duration": 0.28846150000001103,
          "durationTicks": 96,
          "midi": 46,
          "name": "A#2",
          "ticks": 30240,
          "time": 90.8653725,
          "velocity": 0.7559055118110236
        },
        {
          "duration": 0,
          "durationTicks": 0,
          "midi": 38,
          "name": "D2",
          "ticks": 30336,
          "time": 91.15383400000002,
          "velocity": 0.7559055118110236
        },
        {
          "duration": 0.8653844999999905,
          "durationTicks": 288,
          "midi": 38,
          "name": "D2",
          "ticks": 30336,
          "time": 91.15383400000002,
          "velocity": 0.7559055118110236
        },
        {
          "duration": 0.2884614999999968,
          "durationTicks": 96,
          "midi": 46,
          "name": "A#2",
          "ticks": 30336,
          "time": 91.15383400000002,
          "velocity": 0.7559055118110236
        },
        {
          "duration": 0,
          "durationTicks": 0,
          "midi": 35,
          "name": "B1",
          "ticks": 30384,
          "time": 91.29806475000001,
          "velocity": 0.7559055118110236
        },
        {
          "duration": 0,
          "durationTicks": 0,
          "midi": 35,
          "name": "B1",
          "ticks": 30384,
          "time": 91.29806475000001,
          "velocity": 0.7559055118110236
        },
        {
          "duration": 0.14423075000000551,
          "durationTicks": 48,
          "midi": 35,
          "name": "B1",
          "ticks": 30384,
          "time": 91.29806475000001,
          "velocity": 0.7559055118110236
        },
        {
          "duration": 0,
          "durationTicks": 0,
          "midi": 35,
          "name": "B1",
          "ticks": 30432,
          "time": 91.44229550000001,
          "velocity": 0.7559055118110236
        },
        {
          "duration": 0,
          "durationTicks": 0,
          "midi": 35,
          "name": "B1",
          "ticks": 30432,
          "time": 91.44229550000001,
          "velocity": 0.7559055118110236
        },
        {
          "duration": 0.2884614999999968,
          "durationTicks": 96,
          "midi": 35,
          "name": "B1",
          "ticks": 30432,
          "time": 91.44229550000001,
          "velocity": 0.7559055118110236
        },
        {
          "duration": 0.2884614999999968,
          "durationTicks": 96,
          "midi": 46,
          "name": "A#2",
          "ticks": 30432,
          "time": 91.44229550000001,
          "velocity": 0.7559055118110236
        },
        {
          "duration": 0,
          "durationTicks": 0,
          "midi": 35,
          "name": "B1",
          "ticks": 30528,
          "time": 91.73075700000001,
          "velocity": 0.7559055118110236
        },
        {
          "duration": 0,
          "durationTicks": 0,
          "midi": 35,
          "name": "B1",
          "ticks": 30528,
          "time": 91.73075700000001,
          "velocity": 0.7559055118110236
        },
        {
          "duration": 0.2884614999999968,
          "durationTicks": 96,
          "midi": 35,
          "name": "B1",
          "ticks": 30528,
          "time": 91.73075700000001,
          "velocity": 0.7559055118110236
        },
        {
          "duration": 0.8653845000000047,
          "durationTicks": 288,
          "midi": 46,
          "name": "A#2",
          "ticks": 30528,
          "time": 91.73075700000001,
          "velocity": 0.7559055118110236
        },
        {
          "duration": 0,
          "durationTicks": 0,
          "midi": 38,
          "name": "D2",
          "ticks": 30624,
          "time": 92.01921850000001,
          "velocity": 0.7559055118110236
        },
        {
          "duration": 1.1538460000000015,
          "durationTicks": 384,
          "midi": 38,
          "name": "D2",
          "ticks": 30624,
          "time": 92.01921850000001,
          "velocity": 0.7559055118110236
        },
        {
          "duration": 49.03845500000001,
          "durationTicks": 16320,
          "midi": 57,
          "name": "A3",
          "ticks": 30624,
          "time": 92.01921850000001,
          "velocity": 0.7559055118110236
        },
        {
          "duration": 0,
          "durationTicks": 0,
          "midi": 35,
          "name": "B1",
          "ticks": 30816,
          "time": 92.59614150000002,
          "velocity": 0.7559055118110236
        },
        {
          "duration": 0,
          "durationTicks": 0,
          "midi": 35,
          "name": "B1",
          "ticks": 30816,
          "time": 92.59614150000002,
          "velocity": 0.7559055118110236
        },
        {
          "duration": 0.5769229999999936,
          "durationTicks": 192,
          "midi": 35,
          "name": "B1",
          "ticks": 30816,
          "time": 92.59614150000002,
          "velocity": 0.7559055118110236
        },
        {
          "duration": 0.2884614999999968,
          "durationTicks": 96,
          "midi": 46,
          "name": "A#2",
          "ticks": 30816,
          "time": 92.59614150000002,
          "velocity": 0.7559055118110236
        },
        {
          "duration": 0.2884614999999968,
          "durationTicks": 96,
          "midi": 46,
          "name": "A#2",
          "ticks": 30912,
          "time": 92.88460300000001,
          "velocity": 0.7559055118110236
        },
        {
          "duration": 0,
          "durationTicks": 0,
          "midi": 38,
          "name": "D2",
          "ticks": 31008,
          "time": 93.17306450000001,
          "velocity": 0.7559055118110236
        },
        {
          "duration": 0.8653845000000047,
          "durationTicks": 288,
          "midi": 38,
          "name": "D2",
          "ticks": 31008,
          "time": 93.17306450000001,
          "velocity": 0.7559055118110236
        },
        {
          "duration": 0.2884614999999968,
          "durationTicks": 96,
          "midi": 46,
          "name": "A#2",
          "ticks": 31008,
          "time": 93.17306450000001,
          "velocity": 0.7559055118110236
        },
        {
          "duration": 0.28846150000001103,
          "durationTicks": 96,
          "midi": 46,
          "name": "A#2",
          "ticks": 31104,
          "time": 93.461526,
          "velocity": 0.7559055118110236
        },
        {
          "duration": 0,
          "durationTicks": 0,
          "midi": 35,
          "name": "B1",
          "ticks": 31200,
          "time": 93.74998750000002,
          "velocity": 0.7559055118110236
        },
        {
          "duration": 0,
          "durationTicks": 0,
          "midi": 35,
          "name": "B1",
          "ticks": 31200,
          "time": 93.74998750000002,
          "velocity": 0.7559055118110236
        },
        {
          "duration": 0.2884614999999968,
          "durationTicks": 96,
          "midi": 35,
          "name": "B1",
          "ticks": 31200,
          "time": 93.74998750000002,
          "velocity": 0.7559055118110236
        },
        {
          "duration": 0.2884614999999968,
          "durationTicks": 96,
          "midi": 46,
          "name": "A#2",
          "ticks": 31200,
          "time": 93.74998750000002,
          "velocity": 0.7559055118110236
        },
        {
          "duration": 0,
          "durationTicks": 0,
          "midi": 38,
          "name": "D2",
          "ticks": 31296,
          "time": 94.03844900000001,
          "velocity": 0.7559055118110236
        },
        {
          "duration": 1.4423074999999983,
          "durationTicks": 480,
          "midi": 38,
          "name": "D2",
          "ticks": 31296,
          "time": 94.03844900000001,
          "velocity": 0.7559055118110236
        },
        {
          "duration": 0.2884614999999968,
          "durationTicks": 96,
          "midi": 46,
          "name": "A#2",
          "ticks": 31296,
          "time": 94.03844900000001,
          "velocity": 0.7559055118110236
        },
        {
          "duration": 0.2884614999999968,
          "durationTicks": 96,
          "midi": 46,
          "name": "A#2",
          "ticks": 31392,
          "time": 94.32691050000001,
          "velocity": 0.7559055118110236
        },
        {
          "duration": 0.28846150000001103,
          "durationTicks": 96,
          "midi": 46,
          "name": "A#2",
          "ticks": 31488,
          "time": 94.61537200000001,
          "velocity": 0.7559055118110236
        },
        {
          "duration": 0,
          "durationTicks": 0,
          "midi": 35,
          "name": "B1",
          "ticks": 31584,
          "time": 94.90383350000002,
          "velocity": 0.7559055118110236
        },
        {
          "duration": 0,
          "durationTicks": 0,
          "midi": 35,
          "name": "B1",
          "ticks": 31584,
          "time": 94.90383350000002,
          "velocity": 0.7559055118110236
        },
        {
          "duration": 0.2884614999999968,
          "durationTicks": 96,
          "midi": 35,
          "name": "B1",
          "ticks": 31584,
          "time": 94.90383350000002,
          "velocity": 0.7559055118110236
        },
        {
          "duration": 0.2884614999999968,
          "durationTicks": 96,
          "midi": 46,
          "name": "A#2",
          "ticks": 31584,
          "time": 94.90383350000002,
          "velocity": 0.7559055118110236
        },
        {
          "duration": 0,
          "durationTicks": 0,
          "midi": 35,
          "name": "B1",
          "ticks": 31680,
          "time": 95.19229500000002,
          "velocity": 0.7559055118110236
        },
        {
          "duration": 0,
          "durationTicks": 0,
          "midi": 35,
          "name": "B1",
          "ticks": 31680,
          "time": 95.19229500000002,
          "velocity": 0.7559055118110236
        },
        {
          "duration": 0.2884614999999968,
          "durationTicks": 96,
          "midi": 35,
          "name": "B1",
          "ticks": 31680,
          "time": 95.19229500000002,
          "velocity": 0.7559055118110236
        },
        {
          "duration": 0.2884614999999968,
          "durationTicks": 96,
          "midi": 46,
          "name": "A#2",
          "ticks": 31680,
          "time": 95.19229500000002,
          "velocity": 0.7559055118110236
        },
        {
          "duration": 0,
          "durationTicks": 0,
          "midi": 38,
          "name": "D2",
          "ticks": 31776,
          "time": 95.48075650000001,
          "velocity": 0.7559055118110236
        },
        {
          "duration": 0.8653845000000047,
          "durationTicks": 288,
          "midi": 38,
          "name": "D2",
          "ticks": 31776,
          "time": 95.48075650000001,
          "velocity": 0.7559055118110236
        },
        {
          "duration": 0.2884614999999968,
          "durationTicks": 96,
          "midi": 46,
          "name": "A#2",
          "ticks": 31776,
          "time": 95.48075650000001,
          "velocity": 0.7559055118110236
        },
        {
          "duration": 0.2884614999999968,
          "durationTicks": 96,
          "midi": 46,
          "name": "A#2",
          "ticks": 31872,
          "time": 95.76921800000001,
          "velocity": 0.7559055118110236
        },
        {
          "duration": 0,
          "durationTicks": 0,
          "midi": 35,
          "name": "B1",
          "ticks": 31968,
          "time": 96.0576795,
          "velocity": 0.7559055118110236
        },
        {
          "duration": 0,
          "durationTicks": 0,
          "midi": 35,
          "name": "B1",
          "ticks": 31968,
          "time": 96.0576795,
          "velocity": 0.7559055118110236
        },
        {
          "duration": 0.28846150000001103,
          "durationTicks": 96,
          "midi": 35,
          "name": "B1",
          "ticks": 31968,
          "time": 96.0576795,
          "velocity": 0.7559055118110236
        },
        {
          "duration": 0.28846150000001103,
          "durationTicks": 96,
          "midi": 46,
          "name": "A#2",
          "ticks": 31968,
          "time": 96.0576795,
          "velocity": 0.7559055118110236
        },
        {
          "duration": 0,
          "durationTicks": 0,
          "midi": 38,
          "name": "D2",
          "ticks": 32064,
          "time": 96.34614100000002,
          "velocity": 0.7559055118110236
        },
        {
          "duration": 1.4423074999999983,
          "durationTicks": 480,
          "midi": 38,
          "name": "D2",
          "ticks": 32064,
          "time": 96.34614100000002,
          "velocity": 0.7559055118110236
        },
        {
          "duration": 0.2884614999999968,
          "durationTicks": 96,
          "midi": 46,
          "name": "A#2",
          "ticks": 32064,
          "time": 96.34614100000002,
          "velocity": 0.7559055118110236
        },
        {
          "duration": 0.2884614999999968,
          "durationTicks": 96,
          "midi": 46,
          "name": "A#2",
          "ticks": 32160,
          "time": 96.63460250000001,
          "velocity": 0.7559055118110236
        },
        {
          "duration": 0.2884614999999968,
          "durationTicks": 96,
          "midi": 46,
          "name": "A#2",
          "ticks": 32256,
          "time": 96.92306400000001,
          "velocity": 0.7559055118110236
        },
        {
          "duration": 0,
          "durationTicks": 0,
          "midi": 35,
          "name": "B1",
          "ticks": 32352,
          "time": 97.21152550000001,
          "velocity": 0.7559055118110236
        },
        {
          "duration": 0,
          "durationTicks": 0,
          "midi": 35,
          "name": "B1",
          "ticks": 32352,
          "time": 97.21152550000001,
          "velocity": 0.7559055118110236
        },
        {
          "duration": 0.5769230000000078,
          "durationTicks": 192,
          "midi": 35,
          "name": "B1",
          "ticks": 32352,
          "time": 97.21152550000001,
          "velocity": 0.7559055118110236
        },
        {
          "duration": 0.28846150000001103,
          "durationTicks": 96,
          "midi": 46,
          "name": "A#2",
          "ticks": 32352,
          "time": 97.21152550000001,
          "velocity": 0.7559055118110236
        },
        {
          "duration": 0.2884614999999968,
          "durationTicks": 96,
          "midi": 46,
          "name": "A#2",
          "ticks": 32448,
          "time": 97.49998700000002,
          "velocity": 0.7559055118110236
        },
        {
          "duration": 0,
          "durationTicks": 0,
          "midi": 38,
          "name": "D2",
          "ticks": 32544,
          "time": 97.78844850000002,
          "velocity": 0.7559055118110236
        },
        {
          "duration": 0.8653844999999905,
          "durationTicks": 288,
          "midi": 38,
          "name": "D2",
          "ticks": 32544,
          "time": 97.78844850000002,
          "velocity": 0.7559055118110236
        },
        {
          "duration": 0.2884614999999968,
          "durationTicks": 96,
          "midi": 46,
          "name": "A#2",
          "ticks": 32544,
          "time": 97.78844850000002,
          "velocity": 0.7559055118110236
        },
        {
          "duration": 0.2884614999999968,
          "durationTicks": 96,
          "midi": 46,
          "name": "A#2",
          "ticks": 32640,
          "time": 98.07691000000001,
          "velocity": 0.7559055118110236
        },
        {
          "duration": 0,
          "durationTicks": 0,
          "midi": 35,
          "name": "B1",
          "ticks": 32736,
          "time": 98.36537150000001,
          "velocity": 0.7559055118110236
        },
        {
          "duration": 0,
          "durationTicks": 0,
          "midi": 35,
          "name": "B1",
          "ticks": 32736,
          "time": 98.36537150000001,
          "velocity": 0.7559055118110236
        },
        {
          "duration": 0.2884614999999968,
          "durationTicks": 96,
          "midi": 35,
          "name": "B1",
          "ticks": 32736,
          "time": 98.36537150000001,
          "velocity": 0.7559055118110236
        },
        {
          "duration": 0.2884614999999968,
          "durationTicks": 96,
          "midi": 46,
          "name": "A#2",
          "ticks": 32736,
          "time": 98.36537150000001,
          "velocity": 0.7559055118110236
        },
        {
          "duration": 0,
          "durationTicks": 0,
          "midi": 38,
          "name": "D2",
          "ticks": 32832,
          "time": 98.653833,
          "velocity": 0.7559055118110236
        },
        {
          "duration": 0.8653845000000047,
          "durationTicks": 288,
          "midi": 38,
          "name": "D2",
          "ticks": 32832,
          "time": 98.653833,
          "velocity": 0.7559055118110236
        },
        {
          "duration": 0.28846150000001103,
          "durationTicks": 96,
          "midi": 46,
          "name": "A#2",
          "ticks": 32832,
          "time": 98.653833,
          "velocity": 0.7559055118110236
        },
        {
          "duration": 0.2884614999999968,
          "durationTicks": 96,
          "midi": 46,
          "name": "A#2",
          "ticks": 32928,
          "time": 98.94229450000002,
          "velocity": 0.7559055118110236
        },
        {
          "duration": 0.2884614999999968,
          "durationTicks": 96,
          "midi": 46,
          "name": "A#2",
          "ticks": 33024,
          "time": 99.23075600000001,
          "velocity": 0.7559055118110236
        },
        {
          "duration": 0,
          "durationTicks": 0,
          "midi": 38,
          "name": "D2",
          "ticks": 33120,
          "time": 99.51921750000001,
          "velocity": 0.7559055118110236
        },
        {
          "duration": 0.8653845000000047,
          "durationTicks": 288,
          "midi": 38,
          "name": "D2",
          "ticks": 33120,
          "time": 99.51921750000001,
          "velocity": 0.7559055118110236
        },
        {
          "duration": 0.2884614999999968,
          "durationTicks": 96,
          "midi": 46,
          "name": "A#2",
          "ticks": 33120,
          "time": 99.51921750000001,
          "velocity": 0.7559055118110236
        },
        {
          "duration": 0,
          "durationTicks": 0,
          "midi": 35,
          "name": "B1",
          "ticks": 33168,
          "time": 99.66344825000002,
          "velocity": 0.7559055118110236
        },
        {
          "duration": 0,
          "durationTicks": 0,
          "midi": 35,
          "name": "B1",
          "ticks": 33168,
          "time": 99.66344825000002,
          "velocity": 0.7559055118110236
        },
        {
          "duration": 0.1442307499999913,
          "durationTicks": 48,
          "midi": 35,
          "name": "B1",
          "ticks": 33168,
          "time": 99.66344825000002,
          "velocity": 0.7559055118110236
        },
        {
          "duration": 0,
          "durationTicks": 0,
          "midi": 35,
          "name": "B1",
          "ticks": 33216,
          "time": 99.80767900000001,
          "velocity": 0.7559055118110236
        },
        {
          "duration": 0,
          "durationTicks": 0,
          "midi": 35,
          "name": "B1",
          "ticks": 33216,
          "time": 99.80767900000001,
          "velocity": 0.7559055118110236
        },
        {
          "duration": 0.28846150000001103,
          "durationTicks": 96,
          "midi": 35,
          "name": "B1",
          "ticks": 33216,
          "time": 99.80767900000001,
          "velocity": 0.7559055118110236
        },
        {
          "duration": 0.28846150000001103,
          "durationTicks": 96,
          "midi": 46,
          "name": "A#2",
          "ticks": 33216,
          "time": 99.80767900000001,
          "velocity": 0.7559055118110236
        },
        {
          "duration": 0,
          "durationTicks": 0,
          "midi": 35,
          "name": "B1",
          "ticks": 33312,
          "time": 100.09614050000002,
          "velocity": 0.7559055118110236
        },
        {
          "duration": 0,
          "durationTicks": 0,
          "midi": 35,
          "name": "B1",
          "ticks": 33312,
          "time": 100.09614050000002,
          "velocity": 0.7559055118110236
        },
        {
          "duration": 0.2884614999999968,
          "durationTicks": 96,
          "midi": 35,
          "name": "B1",
          "ticks": 33312,
          "time": 100.09614050000002,
          "velocity": 0.7559055118110236
        },
        {
          "duration": 0.2884614999999968,
          "durationTicks": 96,
          "midi": 46,
          "name": "A#2",
          "ticks": 33312,
          "time": 100.09614050000002,
          "velocity": 0.7559055118110236
        },
        {
          "duration": 0,
          "durationTicks": 0,
          "midi": 38,
          "name": "D2",
          "ticks": 33408,
          "time": 100.38460200000002,
          "velocity": 0.7559055118110236
        },
        {
          "duration": 0.8653845000000047,
          "durationTicks": 288,
          "midi": 38,
          "name": "D2",
          "ticks": 33408,
          "time": 100.38460200000002,
          "velocity": 0.7559055118110236
        },
        {
          "duration": 0.2884614999999968,
          "durationTicks": 96,
          "midi": 46,
          "name": "A#2",
          "ticks": 33408,
          "time": 100.38460200000002,
          "velocity": 0.7559055118110236
        },
        {
          "duration": 0,
          "durationTicks": 0,
          "midi": 35,
          "name": "B1",
          "ticks": 33456,
          "time": 100.52883275,
          "velocity": 0.7559055118110236
        },
        {
          "duration": 0,
          "durationTicks": 0,
          "midi": 35,
          "name": "B1",
          "ticks": 33456,
          "time": 100.52883275,
          "velocity": 0.7559055118110236
        },
        {
          "duration": 0.14423075000000551,
          "durationTicks": 48,
          "midi": 35,
          "name": "B1",
          "ticks": 33456,
          "time": 100.52883275,
          "velocity": 0.7559055118110236
        },
        {
          "duration": 0,
          "durationTicks": 0,
          "midi": 35,
          "name": "B1",
          "ticks": 33504,
          "time": 100.67306350000001,
          "velocity": 0.7559055118110236
        },
        {
          "duration": 0,
          "durationTicks": 0,
          "midi": 35,
          "name": "B1",
          "ticks": 33504,
          "time": 100.67306350000001,
          "velocity": 0.7559055118110236
        },
        {
          "duration": 0.2884614999999968,
          "durationTicks": 96,
          "midi": 35,
          "name": "B1",
          "ticks": 33504,
          "time": 100.67306350000001,
          "velocity": 0.7559055118110236
        },
        {
          "duration": 0.2884614999999968,
          "durationTicks": 96,
          "midi": 46,
          "name": "A#2",
          "ticks": 33504,
          "time": 100.67306350000001,
          "velocity": 0.7559055118110236
        },
        {
          "duration": 0,
          "durationTicks": 0,
          "midi": 35,
          "name": "B1",
          "ticks": 33600,
          "time": 100.96152500000001,
          "velocity": 0.7559055118110236
        },
        {
          "duration": 0,
          "durationTicks": 0,
          "midi": 35,
          "name": "B1",
          "ticks": 33600,
          "time": 100.96152500000001,
          "velocity": 0.7559055118110236
        },
        {
          "duration": 0.28846150000001103,
          "durationTicks": 96,
          "midi": 35,
          "name": "B1",
          "ticks": 33600,
          "time": 100.96152500000001,
          "velocity": 0.7559055118110236
        },
        {
          "duration": 0.28846150000001103,
          "durationTicks": 96,
          "midi": 46,
          "name": "A#2",
          "ticks": 33600,
          "time": 100.96152500000001,
          "velocity": 0.7559055118110236
        },
        {
          "duration": 0,
          "durationTicks": 0,
          "midi": 38,
          "name": "D2",
          "ticks": 33696,
          "time": 101.24998650000002,
          "velocity": 0.7559055118110236
        },
        {
          "duration": 1.1538459999999873,
          "durationTicks": 384,
          "midi": 38,
          "name": "D2",
          "ticks": 33696,
          "time": 101.24998650000002,
          "velocity": 0.7559055118110236
        },
        {
          "duration": 0.2884614999999968,
          "durationTicks": 96,
          "midi": 46,
          "name": "A#2",
          "ticks": 33696,
          "time": 101.24998650000002,
          "velocity": 0.7559055118110236
        },
        {
          "duration": 0,
          "durationTicks": 0,
          "midi": 35,
          "name": "B1",
          "ticks": 33792,
          "time": 101.53844800000002,
          "velocity": 0.7559055118110236
        },
        {
          "duration": 0,
          "durationTicks": 0,
          "midi": 35,
          "name": "B1",
          "ticks": 33792,
          "time": 101.53844800000002,
          "velocity": 0.7559055118110236
        },
        {
          "duration": 0.2884614999999968,
          "durationTicks": 96,
          "midi": 35,
          "name": "B1",
          "ticks": 33792,
          "time": 101.53844800000002,
          "velocity": 0.7559055118110236
        },
        {
          "duration": 0.2884614999999968,
          "durationTicks": 96,
          "midi": 46,
          "name": "A#2",
          "ticks": 33792,
          "time": 101.53844800000002,
          "velocity": 0.7559055118110236
        },
        {
          "duration": 0,
          "durationTicks": 0,
          "midi": 35,
          "name": "B1",
          "ticks": 33888,
          "time": 101.82690950000001,
          "velocity": 0.7559055118110236
        },
        {
          "duration": 0,
          "durationTicks": 0,
          "midi": 35,
          "name": "B1",
          "ticks": 33888,
          "time": 101.82690950000001,
          "velocity": 0.7559055118110236
        },
        {
          "duration": 1.1538460000000015,
          "durationTicks": 384,
          "midi": 35,
          "name": "B1",
          "ticks": 33888,
          "time": 101.82690950000001,
          "velocity": 0.7559055118110236
        },
        {
          "duration": 0.2884614999999968,
          "durationTicks": 96,
          "midi": 42,
          "name": "F#2",
          "ticks": 33888,
          "time": 101.82690950000001,
          "velocity": 0.7559055118110236
        },
        {
          "duration": 0.2884614999999968,
          "durationTicks": 96,
          "midi": 42,
          "name": "F#2",
          "ticks": 33984,
          "time": 102.11537100000001,
          "velocity": 0.7559055118110236
        },
        {
          "duration": 0.8653845000000047,
          "durationTicks": 288,
          "midi": 39,
          "name": "D#2",
          "ticks": 34080,
          "time": 102.40383250000001,
          "velocity": 0.7559055118110236
        },
        {
          "duration": 0.28846150000001103,
          "durationTicks": 96,
          "midi": 42,
          "name": "F#2",
          "ticks": 34080,
          "time": 102.40383250000001,
          "velocity": 0.7559055118110236
        },
        {
          "duration": 0.2884614999999968,
          "durationTicks": 96,
          "midi": 42,
          "name": "F#2",
          "ticks": 34176,
          "time": 102.69229400000002,
          "velocity": 0.7559055118110236
        },
        {
          "duration": 0,
          "durationTicks": 0,
          "midi": 35,
          "name": "B1",
          "ticks": 34272,
          "time": 102.98075550000001,
          "velocity": 0.7559055118110236
        },
        {
          "duration": 0,
          "durationTicks": 0,
          "midi": 35,
          "name": "B1",
          "ticks": 34272,
          "time": 102.98075550000001,
          "velocity": 0.7559055118110236
        },
        {
          "duration": 1.1538460000000015,
          "durationTicks": 384,
          "midi": 35,
          "name": "B1",
          "ticks": 34272,
          "time": 102.98075550000001,
          "velocity": 0.7559055118110236
        },
        {
          "duration": 0.2884614999999968,
          "durationTicks": 96,
          "midi": 42,
          "name": "F#2",
          "ticks": 34272,
          "time": 102.98075550000001,
          "velocity": 0.7559055118110236
        },
        {
          "duration": 1.4423074999999983,
          "durationTicks": 480,
          "midi": 39,
          "name": "D#2",
          "ticks": 34368,
          "time": 103.26921700000001,
          "velocity": 0.7559055118110236
        },
        {
          "duration": 0.2884614999999968,
          "durationTicks": 96,
          "midi": 42,
          "name": "F#2",
          "ticks": 34368,
          "time": 103.26921700000001,
          "velocity": 0.7559055118110236
        },
        {
          "duration": 0.28846150000001103,
          "durationTicks": 96,
          "midi": 42,
          "name": "F#2",
          "ticks": 34464,
          "time": 103.55767850000001,
          "velocity": 0.7559055118110236
        },
        {
          "duration": 0.2884614999999968,
          "durationTicks": 96,
          "midi": 42,
          "name": "F#2",
          "ticks": 34560,
          "time": 103.84614000000002,
          "velocity": 0.7559055118110236
        },
        {
          "duration": 0,
          "durationTicks": 0,
          "midi": 35,
          "name": "B1",
          "ticks": 34656,
          "time": 104.13460150000002,
          "velocity": 0.7559055118110236
        },
        {
          "duration": 0,
          "durationTicks": 0,
          "midi": 35,
          "name": "B1",
          "ticks": 34656,
          "time": 104.13460150000002,
          "velocity": 0.7559055118110236
        },
        {
          "duration": 1.1538460000000015,
          "durationTicks": 384,
          "midi": 35,
          "name": "B1",
          "ticks": 34656,
          "time": 104.13460150000002,
          "velocity": 0.7559055118110236
        },
        {
          "duration": 0.2884614999999968,
          "durationTicks": 96,
          "midi": 42,
          "name": "F#2",
          "ticks": 34656,
          "time": 104.13460150000002,
          "velocity": 0.7559055118110236
        },
        {
          "duration": 0.2884614999999968,
          "durationTicks": 96,
          "midi": 42,
          "name": "F#2",
          "ticks": 34752,
          "time": 104.42306300000001,
          "velocity": 0.7559055118110236
        },
        {
          "duration": 0.8653845000000047,
          "durationTicks": 288,
          "midi": 39,
          "name": "D#2",
          "ticks": 34848,
          "time": 104.71152450000001,
          "velocity": 0.7559055118110236
        },
        {
          "duration": 0.2884614999999968,
          "durationTicks": 96,
          "midi": 42,
          "name": "F#2",
          "ticks": 34848,
          "time": 104.71152450000001,
          "velocity": 0.7559055118110236
        },
        {
          "duration": 0.28846150000001103,
          "durationTicks": 96,
          "midi": 42,
          "name": "F#2",
          "ticks": 34944,
          "time": 104.999986,
          "velocity": 0.7559055118110236
        },
        {
          "duration": 0,
          "durationTicks": 0,
          "midi": 35,
          "name": "B1",
          "ticks": 35040,
          "time": 105.28844750000002,
          "velocity": 0.7559055118110236
        },
        {
          "duration": 0,
          "durationTicks": 0,
          "midi": 35,
          "name": "B1",
          "ticks": 35040,
          "time": 105.28844750000002,
          "velocity": 0.7559055118110236
        },
        {
          "duration": 1.1538460000000015,
          "durationTicks": 384,
          "midi": 35,
          "name": "B1",
          "ticks": 35040,
          "time": 105.28844750000002,
          "velocity": 0.7559055118110236
        },
        {
          "duration": 0.2884614999999968,
          "durationTicks": 96,
          "midi": 42,
          "name": "F#2",
          "ticks": 35040,
          "time": 105.28844750000002,
          "velocity": 0.7559055118110236
        },
        {
          "duration": 1.4423074999999983,
          "durationTicks": 480,
          "midi": 39,
          "name": "D#2",
          "ticks": 35136,
          "time": 105.57690900000001,
          "velocity": 0.7559055118110236
        },
        {
          "duration": 0.2884614999999968,
          "durationTicks": 96,
          "midi": 42,
          "name": "F#2",
          "ticks": 35136,
          "time": 105.57690900000001,
          "velocity": 0.7559055118110236
        },
        {
          "duration": 0.2884614999999968,
          "durationTicks": 96,
          "midi": 42,
          "name": "F#2",
          "ticks": 35232,
          "time": 105.86537050000001,
          "velocity": 0.7559055118110236
        },
        {
          "duration": 0.28846150000001103,
          "durationTicks": 96,
          "midi": 42,
          "name": "F#2",
          "ticks": 35328,
          "time": 106.15383200000001,
          "velocity": 0.7559055118110236
        },
        {
          "duration": 0,
          "durationTicks": 0,
          "midi": 35,
          "name": "B1",
          "ticks": 35424,
          "time": 106.44229350000002,
          "velocity": 0.7559055118110236
        },
        {
          "duration": 0,
          "durationTicks": 0,
          "midi": 35,
          "name": "B1",
          "ticks": 35424,
          "time": 106.44229350000002,
          "velocity": 0.7559055118110236
        },
        {
          "duration": 1.1538460000000015,
          "durationTicks": 384,
          "midi": 35,
          "name": "B1",
          "ticks": 35424,
          "time": 106.44229350000002,
          "velocity": 0.7559055118110236
        },
        {
          "duration": 0.2884614999999968,
          "durationTicks": 96,
          "midi": 42,
          "name": "F#2",
          "ticks": 35424,
          "time": 106.44229350000002,
          "velocity": 0.7559055118110236
        },
        {
          "duration": 0.2884614999999968,
          "durationTicks": 96,
          "midi": 42,
          "name": "F#2",
          "ticks": 35520,
          "time": 106.73075500000002,
          "velocity": 0.7559055118110236
        },
        {
          "duration": 0.8653845000000047,
          "durationTicks": 288,
          "midi": 39,
          "name": "D#2",
          "ticks": 35616,
          "time": 107.01921650000001,
          "velocity": 0.7559055118110236
        },
        {
          "duration": 0.2884614999999968,
          "durationTicks": 96,
          "midi": 42,
          "name": "F#2",
          "ticks": 35616,
          "time": 107.01921650000001,
          "velocity": 0.7559055118110236
        },
        {
          "duration": 0.28846150000001103,
          "durationTicks": 96,
          "midi": 42,
          "name": "F#2",
          "ticks": 35712,
          "time": 107.30767800000001,
          "velocity": 0.7559055118110236
        },
        {
          "duration": 0,
          "durationTicks": 0,
          "midi": 35,
          "name": "B1",
          "ticks": 35808,
          "time": 107.59613950000002,
          "velocity": 0.7559055118110236
        },
        {
          "duration": 0,
          "durationTicks": 0,
          "midi": 35,
          "name": "B1",
          "ticks": 35808,
          "time": 107.59613950000002,
          "velocity": 0.7559055118110236
        },
        {
          "duration": 1.1538459999999873,
          "durationTicks": 384,
          "midi": 35,
          "name": "B1",
          "ticks": 35808,
          "time": 107.59613950000002,
          "velocity": 0.7559055118110236
        },
        {
          "duration": 0.2884614999999968,
          "durationTicks": 96,
          "midi": 42,
          "name": "F#2",
          "ticks": 35808,
          "time": 107.59613950000002,
          "velocity": 0.7559055118110236
        },
        {
          "duration": 1.4423074999999983,
          "durationTicks": 480,
          "midi": 39,
          "name": "D#2",
          "ticks": 35904,
          "time": 107.88460100000002,
          "velocity": 0.7559055118110236
        },
        {
          "duration": 0.2884614999999968,
          "durationTicks": 96,
          "midi": 42,
          "name": "F#2",
          "ticks": 35904,
          "time": 107.88460100000002,
          "velocity": 0.7559055118110236
        },
        {
          "duration": 0.2884614999999968,
          "durationTicks": 96,
          "midi": 42,
          "name": "F#2",
          "ticks": 36000,
          "time": 108.17306250000001,
          "velocity": 0.7559055118110236
        },
        {
          "duration": 0.2884614999999968,
          "durationTicks": 96,
          "midi": 42,
          "name": "F#2",
          "ticks": 36096,
          "time": 108.46152400000001,
          "velocity": 0.7559055118110236
        },
        {
          "duration": 0,
          "durationTicks": 0,
          "midi": 35,
          "name": "B1",
          "ticks": 36192,
          "time": 108.74998550000001,
          "velocity": 0.7559055118110236
        },
        {
          "duration": 0,
          "durationTicks": 0,
          "midi": 35,
          "name": "B1",
          "ticks": 36192,
          "time": 108.74998550000001,
          "velocity": 0.7559055118110236
        },
        {
          "duration": 1.1538460000000015,
          "durationTicks": 384,
          "midi": 35,
          "name": "B1",
          "ticks": 36192,
          "time": 108.74998550000001,
          "velocity": 0.7559055118110236
        },
        {
          "duration": 0.28846150000001103,
          "durationTicks": 96,
          "midi": 42,
          "name": "F#2",
          "ticks": 36192,
          "time": 108.74998550000001,
          "velocity": 0.7559055118110236
        },
        {
          "duration": 0.2884614999999968,
          "durationTicks": 96,
          "midi": 42,
          "name": "F#2",
          "ticks": 36288,
          "time": 109.03844700000002,
          "velocity": 0.7559055118110236
        },
        {
          "duration": 0.8653845000000047,
          "durationTicks": 288,
          "midi": 39,
          "name": "D#2",
          "ticks": 36384,
          "time": 109.32690850000002,
          "velocity": 0.7559055118110236
        },
        {
          "duration": 0.2884614999999968,
          "durationTicks": 96,
          "midi": 42,
          "name": "F#2",
          "ticks": 36384,
          "time": 109.32690850000002,
          "velocity": 0.7559055118110236
        },
        {
          "duration": 0.2884614999999968,
          "durationTicks": 96,
          "midi": 42,
          "name": "F#2",
          "ticks": 36480,
          "time": 109.61537000000001,
          "velocity": 0.7559055118110236
        },
        {
          "duration": 0,
          "durationTicks": 0,
          "midi": 35,
          "name": "B1",
          "ticks": 36576,
          "time": 109.90383150000001,
          "velocity": 0.7559055118110236
        },
        {
          "duration": 0,
          "durationTicks": 0,
          "midi": 35,
          "name": "B1",
          "ticks": 36576,
          "time": 109.90383150000001,
          "velocity": 0.7559055118110236
        },
        {
          "duration": 1.1538460000000015,
          "durationTicks": 384,
          "midi": 35,
          "name": "B1",
          "ticks": 36576,
          "time": 109.90383150000001,
          "velocity": 0.7559055118110236
        },
        {
          "duration": 0.28846150000001103,
          "durationTicks": 96,
          "midi": 42,
          "name": "F#2",
          "ticks": 36576,
          "time": 109.90383150000001,
          "velocity": 0.7559055118110236
        },
        {
          "duration": 1.4423074999999983,
          "durationTicks": 480,
          "midi": 39,
          "name": "D#2",
          "ticks": 36672,
          "time": 110.19229300000002,
          "velocity": 0.7559055118110236
        },
        {
          "duration": 0.8653844999999905,
          "durationTicks": 288,
          "midi": 42,
          "name": "F#2",
          "ticks": 36672,
          "time": 110.19229300000002,
          "velocity": 0.7559055118110236
        },
        {
          "duration": 0,
          "durationTicks": 0,
          "midi": 35,
          "name": "B1",
          "ticks": 36960,
          "time": 111.05767750000001,
          "velocity": 0.7559055118110236
        },
        {
          "duration": 0,
          "durationTicks": 0,
          "midi": 35,
          "name": "B1",
          "ticks": 36960,
          "time": 111.05767750000001,
          "velocity": 0.7559055118110236
        },
        {
          "duration": 1.1538460000000015,
          "durationTicks": 384,
          "midi": 35,
          "name": "B1",
          "ticks": 36960,
          "time": 111.05767750000001,
          "velocity": 0.7559055118110236
        },
        {
          "duration": 0.2884614999999968,
          "durationTicks": 96,
          "midi": 42,
          "name": "F#2",
          "ticks": 36960,
          "time": 111.05767750000001,
          "velocity": 0.7559055118110236
        },
        {
          "duration": 0.28846150000001103,
          "durationTicks": 96,
          "midi": 42,
          "name": "F#2",
          "ticks": 37056,
          "time": 111.34613900000001,
          "velocity": 0.7559055118110236
        },
        {
          "duration": 0.8653844999999905,
          "durationTicks": 288,
          "midi": 39,
          "name": "D#2",
          "ticks": 37152,
          "time": 111.63460050000002,
          "velocity": 0.7559055118110236
        },
        {
          "duration": 0.2884614999999968,
          "durationTicks": 96,
          "midi": 42,
          "name": "F#2",
          "ticks": 37152,
          "time": 111.63460050000002,
          "velocity": 0.7559055118110236
        },
        {
          "duration": 0.2884614999999968,
          "durationTicks": 96,
          "midi": 42,
          "name": "F#2",
          "ticks": 37248,
          "time": 111.92306200000002,
          "velocity": 0.7559055118110236
        },
        {
          "duration": 0,
          "durationTicks": 0,
          "midi": 35,
          "name": "B1",
          "ticks": 37344,
          "time": 112.21152350000001,
          "velocity": 0.7559055118110236
        },
        {
          "duration": 0,
          "durationTicks": 0,
          "midi": 35,
          "name": "B1",
          "ticks": 37344,
          "time": 112.21152350000001,
          "velocity": 0.7559055118110236
        },
        {
          "duration": 1.1538460000000015,
          "durationTicks": 384,
          "midi": 35,
          "name": "B1",
          "ticks": 37344,
          "time": 112.21152350000001,
          "velocity": 0.7559055118110236
        },
        {
          "duration": 0.2884614999999968,
          "durationTicks": 96,
          "midi": 42,
          "name": "F#2",
          "ticks": 37344,
          "time": 112.21152350000001,
          "velocity": 0.7559055118110236
        },
        {
          "duration": 1.4423074999999983,
          "durationTicks": 480,
          "midi": 39,
          "name": "D#2",
          "ticks": 37440,
          "time": 112.49998500000001,
          "velocity": 0.7559055118110236
        },
        {
          "duration": 0.28846150000001103,
          "durationTicks": 96,
          "midi": 42,
          "name": "F#2",
          "ticks": 37440,
          "time": 112.49998500000001,
          "velocity": 0.7559055118110236
        },
        {
          "duration": 0.2884614999999968,
          "durationTicks": 96,
          "midi": 42,
          "name": "F#2",
          "ticks": 37536,
          "time": 112.78844650000002,
          "velocity": 0.7559055118110236
        },
        {
          "duration": 0.2884614999999968,
          "durationTicks": 96,
          "midi": 42,
          "name": "F#2",
          "ticks": 37632,
          "time": 113.07690800000002,
          "velocity": 0.7559055118110236
        },
        {
          "duration": 0,
          "durationTicks": 0,
          "midi": 35,
          "name": "B1",
          "ticks": 37728,
          "time": 113.36536950000001,
          "velocity": 0.7559055118110236
        },
        {
          "duration": 0,
          "durationTicks": 0,
          "midi": 35,
          "name": "B1",
          "ticks": 37728,
          "time": 113.36536950000001,
          "velocity": 0.7559055118110236
        },
        {
          "duration": 1.1538460000000015,
          "durationTicks": 384,
          "midi": 35,
          "name": "B1",
          "ticks": 37728,
          "time": 113.36536950000001,
          "velocity": 0.7559055118110236
        },
        {
          "duration": 0.2884614999999968,
          "durationTicks": 96,
          "midi": 42,
          "name": "F#2",
          "ticks": 37728,
          "time": 113.36536950000001,
          "velocity": 0.7559055118110236
        },
        {
          "duration": 0.2884614999999968,
          "durationTicks": 96,
          "midi": 42,
          "name": "F#2",
          "ticks": 37824,
          "time": 113.65383100000001,
          "velocity": 0.7559055118110236
        },
        {
          "duration": 0.8653845000000047,
          "durationTicks": 288,
          "midi": 39,
          "name": "D#2",
          "ticks": 37920,
          "time": 113.94229250000001,
          "velocity": 0.7559055118110236
        },
        {
          "duration": 0.28846150000001103,
          "durationTicks": 96,
          "midi": 42,
          "name": "F#2",
          "ticks": 37920,
          "time": 113.94229250000001,
          "velocity": 0.7559055118110236
        },
        {
          "duration": 0.2884614999999968,
          "durationTicks": 96,
          "midi": 42,
          "name": "F#2",
          "ticks": 38016,
          "time": 114.23075400000002,
          "velocity": 0.7559055118110236
        },
        {
          "duration": 0,
          "durationTicks": 0,
          "midi": 35,
          "name": "B1",
          "ticks": 38112,
          "time": 114.51921550000002,
          "velocity": 0.7559055118110236
        },
        {
          "duration": 0,
          "durationTicks": 0,
          "midi": 35,
          "name": "B1",
          "ticks": 38112,
          "time": 114.51921550000002,
          "velocity": 0.7559055118110236
        },
        {
          "duration": 1.1538460000000015,
          "durationTicks": 384,
          "midi": 35,
          "name": "B1",
          "ticks": 38112,
          "time": 114.51921550000002,
          "velocity": 0.7559055118110236
        },
        {
          "duration": 0.2884614999999968,
          "durationTicks": 96,
          "midi": 42,
          "name": "F#2",
          "ticks": 38112,
          "time": 114.51921550000002,
          "velocity": 0.7559055118110236
        },
        {
          "duration": 1.4423074999999983,
          "durationTicks": 480,
          "midi": 39,
          "name": "D#2",
          "ticks": 38208,
          "time": 114.80767700000001,
          "velocity": 0.7559055118110236
        },
        {
          "duration": 0.2884614999999968,
          "durationTicks": 96,
          "midi": 42,
          "name": "F#2",
          "ticks": 38208,
          "time": 114.80767700000001,
          "velocity": 0.7559055118110236
        },
        {
          "duration": 0.28846150000001103,
          "durationTicks": 96,
          "midi": 42,
          "name": "F#2",
          "ticks": 38304,
          "time": 115.09613850000001,
          "velocity": 0.7559055118110236
        },
        {
          "duration": 0.2884614999999968,
          "durationTicks": 96,
          "midi": 42,
          "name": "F#2",
          "ticks": 38400,
          "time": 115.38460000000002,
          "velocity": 0.7559055118110236
        },
        {
          "duration": 0,
          "durationTicks": 0,
          "midi": 35,
          "name": "B1",
          "ticks": 38496,
          "time": 115.67306150000002,
          "velocity": 0.7559055118110236
        },
        {
          "duration": 0,
          "durationTicks": 0,
          "midi": 35,
          "name": "B1",
          "ticks": 38496,
          "time": 115.67306150000002,
          "velocity": 0.7559055118110236
        },
        {
          "duration": 1.1538460000000015,
          "durationTicks": 384,
          "midi": 35,
          "name": "B1",
          "ticks": 38496,
          "time": 115.67306150000002,
          "velocity": 0.7559055118110236
        },
        {
          "duration": 0.2884614999999968,
          "durationTicks": 96,
          "midi": 42,
          "name": "F#2",
          "ticks": 38496,
          "time": 115.67306150000002,
          "velocity": 0.7559055118110236
        },
        {
          "duration": 0.2884614999999968,
          "durationTicks": 96,
          "midi": 42,
          "name": "F#2",
          "ticks": 38592,
          "time": 115.96152300000001,
          "velocity": 0.7559055118110236
        },
        {
          "duration": 0.8653845000000047,
          "durationTicks": 288,
          "midi": 39,
          "name": "D#2",
          "ticks": 38688,
          "time": 116.24998450000001,
          "velocity": 0.7559055118110236
        },
        {
          "duration": 0.28846150000001103,
          "durationTicks": 96,
          "midi": 42,
          "name": "F#2",
          "ticks": 38688,
          "time": 116.24998450000001,
          "velocity": 0.7559055118110236
        },
        {
          "duration": 0.2884614999999968,
          "durationTicks": 96,
          "midi": 42,
          "name": "F#2",
          "ticks": 38784,
          "time": 116.53844600000002,
          "velocity": 0.7559055118110236
        },
        {
          "duration": 0,
          "durationTicks": 0,
          "midi": 35,
          "name": "B1",
          "ticks": 38880,
          "time": 116.82690750000002,
          "velocity": 0.7559055118110236
        },
        {
          "duration": 0,
          "durationTicks": 0,
          "midi": 35,
          "name": "B1",
          "ticks": 38880,
          "time": 116.82690750000002,
          "velocity": 0.7559055118110236
        },
        {
          "duration": 1.1538460000000015,
          "durationTicks": 384,
          "midi": 35,
          "name": "B1",
          "ticks": 38880,
          "time": 116.82690750000002,
          "velocity": 0.7559055118110236
        },
        {
          "duration": 0.2884614999999968,
          "durationTicks": 96,
          "midi": 42,
          "name": "F#2",
          "ticks": 38880,
          "time": 116.82690750000002,
          "velocity": 0.7559055118110236
        },
        {
          "duration": 1.4423074999999983,
          "durationTicks": 480,
          "midi": 39,
          "name": "D#2",
          "ticks": 38976,
          "time": 117.11536900000002,
          "velocity": 0.7559055118110236
        },
        {
          "duration": 0.2884614999999968,
          "durationTicks": 96,
          "midi": 42,
          "name": "F#2",
          "ticks": 38976,
          "time": 117.11536900000002,
          "velocity": 0.7559055118110236
        },
        {
          "duration": 0.2884614999999968,
          "durationTicks": 96,
          "midi": 42,
          "name": "F#2",
          "ticks": 39072,
          "time": 117.40383050000001,
          "velocity": 0.7559055118110236
        },
        {
          "duration": 0.28846150000001103,
          "durationTicks": 96,
          "midi": 42,
          "name": "F#2",
          "ticks": 39168,
          "time": 117.69229200000001,
          "velocity": 0.7559055118110236
        },
        {
          "duration": 0,
          "durationTicks": 0,
          "midi": 35,
          "name": "B1",
          "ticks": 39264,
          "time": 117.98075350000002,
          "velocity": 0.7559055118110236
        },
        {
          "duration": 0,
          "durationTicks": 0,
          "midi": 35,
          "name": "B1",
          "ticks": 39264,
          "time": 117.98075350000002,
          "velocity": 0.7559055118110236
        },
        {
          "duration": 1.1538460000000015,
          "durationTicks": 384,
          "midi": 35,
          "name": "B1",
          "ticks": 39264,
          "time": 117.98075350000002,
          "velocity": 0.7559055118110236
        },
        {
          "duration": 0.2884614999999968,
          "durationTicks": 96,
          "midi": 42,
          "name": "F#2",
          "ticks": 39264,
          "time": 117.98075350000002,
          "velocity": 0.7559055118110236
        },
        {
          "duration": 0.2884614999999968,
          "durationTicks": 96,
          "midi": 42,
          "name": "F#2",
          "ticks": 39360,
          "time": 118.26921500000002,
          "velocity": 0.7559055118110236
        },
        {
          "duration": 0.8653845000000047,
          "durationTicks": 288,
          "midi": 39,
          "name": "D#2",
          "ticks": 39456,
          "time": 118.55767650000001,
          "velocity": 0.7559055118110236
        },
        {
          "duration": 0.2884614999999968,
          "durationTicks": 96,
          "midi": 42,
          "name": "F#2",
          "ticks": 39456,
          "time": 118.55767650000001,
          "velocity": 0.7559055118110236
        },
        {
          "duration": 0.28846150000001103,
          "durationTicks": 96,
          "midi": 42,
          "name": "F#2",
          "ticks": 39552,
          "time": 118.84613800000001,
          "velocity": 0.7559055118110236
        },
        {
          "duration": 0,
          "durationTicks": 0,
          "midi": 35,
          "name": "B1",
          "ticks": 39648,
          "time": 119.13459950000002,
          "velocity": 0.7559055118110236
        },
        {
          "duration": 0,
          "durationTicks": 0,
          "midi": 35,
          "name": "B1",
          "ticks": 39648,
          "time": 119.13459950000002,
          "velocity": 0.7559055118110236
        },
        {
          "duration": 1.1538459999999873,
          "durationTicks": 384,
          "midi": 35,
          "name": "B1",
          "ticks": 39648,
          "time": 119.13459950000002,
          "velocity": 0.7559055118110236
        },
        {
          "duration": 0.2884614999999968,
          "durationTicks": 96,
          "midi": 42,
          "name": "F#2",
          "ticks": 39648,
          "time": 119.13459950000002,
          "velocity": 0.7559055118110236
        },
        {
          "duration": 1.4423074999999983,
          "durationTicks": 480,
          "midi": 39,
          "name": "D#2",
          "ticks": 39744,
          "time": 119.42306100000002,
          "velocity": 0.7559055118110236
        },
        {
          "duration": 0.2884614999999968,
          "durationTicks": 96,
          "midi": 42,
          "name": "F#2",
          "ticks": 39744,
          "time": 119.42306100000002,
          "velocity": 0.7559055118110236
        },
        {
          "duration": 0.2884614999999968,
          "durationTicks": 96,
          "midi": 42,
          "name": "F#2",
          "ticks": 39840,
          "time": 119.71152250000002,
          "velocity": 0.7559055118110236
        },
        {
          "duration": 0.2884614999999968,
          "durationTicks": 96,
          "midi": 42,
          "name": "F#2",
          "ticks": 39936,
          "time": 119.99998400000001,
          "velocity": 0.7559055118110236
        },
        {
          "duration": 0,
          "durationTicks": 0,
          "midi": 35,
          "name": "B1",
          "ticks": 40032,
          "time": 120.28844550000001,
          "velocity": 0.7559055118110236
        },
        {
          "duration": 0,
          "durationTicks": 0,
          "midi": 35,
          "name": "B1",
          "ticks": 40032,
          "time": 120.28844550000001,
          "velocity": 0.7559055118110236
        },
        {
          "duration": 1.1538460000000015,
          "durationTicks": 384,
          "midi": 35,
          "name": "B1",
          "ticks": 40032,
          "time": 120.28844550000001,
          "velocity": 0.7559055118110236
        },
        {
          "duration": 0.14423075000000551,
          "durationTicks": 48,
          "midi": 42,
          "name": "F#2",
          "ticks": 40032,
          "time": 120.28844550000001,
          "velocity": 0.7559055118110236
        },
        {
          "duration": 0.14423075000000551,
          "durationTicks": 48,
          "midi": 42,
          "name": "F#2",
          "ticks": 40080,
          "time": 120.43267625000001,
          "velocity": 0.7559055118110236
        },
        {
          "duration": 0.1442307499999913,
          "durationTicks": 48,
          "midi": 42,
          "name": "F#2",
          "ticks": 40128,
          "time": 120.57690700000002,
          "velocity": 0.7559055118110236
        },
        {
          "duration": 0.14423075000000551,
          "durationTicks": 48,
          "midi": 42,
          "name": "F#2",
          "ticks": 40176,
          "time": 120.72113775000001,
          "velocity": 0.7559055118110236
        },
        {
          "duration": 0.8653845000000047,
          "durationTicks": 288,
          "midi": 40,
          "name": "E2",
          "ticks": 40224,
          "time": 120.86536850000002,
          "velocity": 0.7559055118110236
        },
        {
          "duration": 0.14423075000000551,
          "durationTicks": 48,
          "midi": 42,
          "name": "F#2",
          "ticks": 40224,
          "time": 120.86536850000002,
          "velocity": 0.7559055118110236
        },
        {
          "duration": 0.1442307499999913,
          "durationTicks": 48,
          "midi": 42,
          "name": "F#2",
          "ticks": 40272,
          "time": 121.00959925000002,
          "velocity": 0.7559055118110236
        },
        {
          "duration": 0.14423075000000551,
          "durationTicks": 48,
          "midi": 42,
          "name": "F#2",
          "ticks": 40320,
          "time": 121.15383000000001,
          "velocity": 0.7559055118110236
        },
        {
          "duration": 0.1442307499999913,
          "durationTicks": 48,
          "midi": 42,
          "name": "F#2",
          "ticks": 40368,
          "time": 121.29806075000002,
          "velocity": 0.7559055118110236
        },
        {
          "duration": 0,
          "durationTicks": 0,
          "midi": 35,
          "name": "B1",
          "ticks": 40416,
          "time": 121.44229150000001,
          "velocity": 0.7559055118110236
        },
        {
          "duration": 0,
          "durationTicks": 0,
          "midi": 35,
          "name": "B1",
          "ticks": 40416,
          "time": 121.44229150000001,
          "velocity": 0.7559055118110236
        },
        {
          "duration": 1.1538460000000015,
          "durationTicks": 384,
          "midi": 35,
          "name": "B1",
          "ticks": 40416,
          "time": 121.44229150000001,
          "velocity": 0.7559055118110236
        },
        {
          "duration": 0.14423075000000551,
          "durationTicks": 48,
          "midi": 42,
          "name": "F#2",
          "ticks": 40416,
          "time": 121.44229150000001,
          "velocity": 0.7559055118110236
        },
        {
          "duration": 0.14423075000000551,
          "durationTicks": 48,
          "midi": 42,
          "name": "F#2",
          "ticks": 40464,
          "time": 121.58652225000002,
          "velocity": 0.7559055118110236
        },
        {
          "duration": 1.4423074999999983,
          "durationTicks": 480,
          "midi": 40,
          "name": "E2",
          "ticks": 40512,
          "time": 121.73075300000002,
          "velocity": 0.7559055118110236
        },
        {
          "duration": 0.1442307499999913,
          "durationTicks": 48,
          "midi": 42,
          "name": "F#2",
          "ticks": 40512,
          "time": 121.73075300000002,
          "velocity": 0.7559055118110236
        },
        {
          "duration": 0.14423075000000551,
          "durationTicks": 48,
          "midi": 42,
          "name": "F#2",
          "ticks": 40560,
          "time": 121.87498375000001,
          "velocity": 0.7559055118110236
        },
        {
          "duration": 0.1442307499999913,
          "durationTicks": 48,
          "midi": 42,
          "name": "F#2",
          "ticks": 40608,
          "time": 122.01921450000002,
          "velocity": 0.7559055118110236
        },
        {
          "duration": 0.14423075000000551,
          "durationTicks": 48,
          "midi": 42,
          "name": "F#2",
          "ticks": 40656,
          "time": 122.16344525000001,
          "velocity": 0.7559055118110236
        },
        {
          "duration": 0.14423075000000551,
          "durationTicks": 48,
          "midi": 42,
          "name": "F#2",
          "ticks": 40704,
          "time": 122.30767600000001,
          "velocity": 0.7559055118110236
        },
        {
          "duration": 0.1442307499999913,
          "durationTicks": 48,
          "midi": 42,
          "name": "F#2",
          "ticks": 40752,
          "time": 122.45190675000002,
          "velocity": 0.7559055118110236
        },
        {
          "duration": 0,
          "durationTicks": 0,
          "midi": 35,
          "name": "B1",
          "ticks": 40800,
          "time": 122.59613750000001,
          "velocity": 0.7559055118110236
        },
        {
          "duration": 0,
          "durationTicks": 0,
          "midi": 35,
          "name": "B1",
          "ticks": 40800,
          "time": 122.59613750000001,
          "velocity": 0.7559055118110236
        },
        {
          "duration": 0.28846150000001103,
          "durationTicks": 96,
          "midi": 35,
          "name": "B1",
          "ticks": 40800,
          "time": 122.59613750000001,
          "velocity": 0.7559055118110236
        },
        {
          "duration": 0.14423075000000551,
          "durationTicks": 48,
          "midi": 42,
          "name": "F#2",
          "ticks": 40800,
          "time": 122.59613750000001,
          "velocity": 0.7559055118110236
        },
        {
          "duration": 0.14423075000000551,
          "durationTicks": 48,
          "midi": 42,
          "name": "F#2",
          "ticks": 40848,
          "time": 122.74036825000002,
          "velocity": 0.7559055118110236
        },
        {
          "duration": 0,
          "durationTicks": 0,
          "midi": 35,
          "name": "B1",
          "ticks": 40896,
          "time": 122.88459900000002,
          "velocity": 0.7559055118110236
        },
        {
          "duration": 0,
          "durationTicks": 0,
          "midi": 35,
          "name": "B1",
          "ticks": 40896,
          "time": 122.88459900000002,
          "velocity": 0.7559055118110236
        },
        {
          "duration": 0.8653844999999905,
          "durationTicks": 288,
          "midi": 35,
          "name": "B1",
          "ticks": 40896,
          "time": 122.88459900000002,
          "velocity": 0.7559055118110236
        },
        {
          "duration": 0.1442307499999913,
          "durationTicks": 48,
          "midi": 42,
          "name": "F#2",
          "ticks": 40896,
          "time": 122.88459900000002,
          "velocity": 0.7559055118110236
        },
        {
          "duration": 0.14423075000000551,
          "durationTicks": 48,
          "midi": 42,
          "name": "F#2",
          "ticks": 40944,
          "time": 123.02882975000001,
          "velocity": 0.7559055118110236
        },
        {
          "duration": 0.8653844999999905,
          "durationTicks": 288,
          "midi": 40,
          "name": "E2",
          "ticks": 40992,
          "time": 123.17306050000002,
          "velocity": 0.7559055118110236
        },
        {
          "duration": 0.1442307499999913,
          "durationTicks": 48,
          "midi": 42,
          "name": "F#2",
          "ticks": 40992,
          "time": 123.17306050000002,
          "velocity": 0.7559055118110236
        },
        {
          "duration": 0.14423075000000551,
          "durationTicks": 48,
          "midi": 42,
          "name": "F#2",
          "ticks": 41040,
          "time": 123.31729125000001,
          "velocity": 0.7559055118110236
        },
        {
          "duration": 0.14423075000000551,
          "durationTicks": 48,
          "midi": 42,
          "name": "F#2",
          "ticks": 41088,
          "time": 123.46152200000002,
          "velocity": 0.7559055118110236
        },
        {
          "duration": 0.1442307499999913,
          "durationTicks": 48,
          "midi": 42,
          "name": "F#2",
          "ticks": 41136,
          "time": 123.60575275000002,
          "velocity": 0.7559055118110236
        },
        {
          "duration": 0,
          "durationTicks": 0,
          "midi": 35,
          "name": "B1",
          "ticks": 41184,
          "time": 123.74998350000001,
          "velocity": 0.7559055118110236
        },
        {
          "duration": 0,
          "durationTicks": 0,
          "midi": 35,
          "name": "B1",
          "ticks": 41184,
          "time": 123.74998350000001,
          "velocity": 0.7559055118110236
        },
        {
          "duration": 1.1538460000000015,
          "durationTicks": 384,
          "midi": 35,
          "name": "B1",
          "ticks": 41184,
          "time": 123.74998350000001,
          "velocity": 0.7559055118110236
        },
        {
          "duration": 0.14423075000000551,
          "durationTicks": 48,
          "midi": 42,
          "name": "F#2",
          "ticks": 41184,
          "time": 123.74998350000001,
          "velocity": 0.7559055118110236
        },
        {
          "duration": 0.1442307499999913,
          "durationTicks": 48,
          "midi": 42,
          "name": "F#2",
          "ticks": 41232,
          "time": 123.89421425000002,
          "velocity": 0.7559055118110236
        },
        {
          "duration": 1.4423075000000125,
          "durationTicks": 480,
          "midi": 40,
          "name": "E2",
          "ticks": 41280,
          "time": 124.03844500000001,
          "velocity": 0.7559055118110236
        },
        {
          "duration": 0.14423075000000551,
          "durationTicks": 48,
          "midi": 42,
          "name": "F#2",
          "ticks": 41280,
          "time": 124.03844500000001,
          "velocity": 0.7559055118110236
        },
        {
          "duration": 0.14423075000000551,
          "durationTicks": 48,
          "midi": 42,
          "name": "F#2",
          "ticks": 41328,
          "time": 124.18267575000002,
          "velocity": 0.7559055118110236
        },
        {
          "duration": 0.1442307499999913,
          "durationTicks": 48,
          "midi": 42,
          "name": "F#2",
          "ticks": 41376,
          "time": 124.32690650000002,
          "velocity": 0.7559055118110236
        },
        {
          "duration": 0.14423075000000551,
          "durationTicks": 48,
          "midi": 42,
          "name": "F#2",
          "ticks": 41424,
          "time": 124.47113725000001,
          "velocity": 0.7559055118110236
        },
        {
          "duration": 0.1442307499999913,
          "durationTicks": 48,
          "midi": 42,
          "name": "F#2",
          "ticks": 41472,
          "time": 124.61536800000002,
          "velocity": 0.7559055118110236
        },
        {
          "duration": 0.14423075000000551,
          "durationTicks": 48,
          "midi": 42,
          "name": "F#2",
          "ticks": 41520,
          "time": 124.75959875000001,
          "velocity": 0.7559055118110236
        },
        {
          "duration": 0,
          "durationTicks": 0,
          "midi": 35,
          "name": "B1",
          "ticks": 41568,
          "time": 124.90382950000001,
          "velocity": 0.7559055118110236
        },
        {
          "duration": 0,
          "durationTicks": 0,
          "midi": 35,
          "name": "B1",
          "ticks": 41568,
          "time": 124.90382950000001,
          "velocity": 0.7559055118110236
        },
        {
          "duration": 1.1538460000000015,
          "durationTicks": 384,
          "midi": 35,
          "name": "B1",
          "ticks": 41568,
          "time": 124.90382950000001,
          "velocity": 0.7559055118110236
        },
        {
          "duration": 0.14423075000000551,
          "durationTicks": 48,
          "midi": 42,
          "name": "F#2",
          "ticks": 41568,
          "time": 124.90382950000001,
          "velocity": 0.7559055118110236
        },
        {
          "duration": 0.1442307499999913,
          "durationTicks": 48,
          "midi": 42,
          "name": "F#2",
          "ticks": 41616,
          "time": 125.04806025000002,
          "velocity": 0.7559055118110236
        },
        {
          "duration": 0.14423075000000551,
          "durationTicks": 48,
          "midi": 42,
          "name": "F#2",
          "ticks": 41664,
          "time": 125.19229100000001,
          "velocity": 0.7559055118110236
        },
        {
          "duration": 0.14423075000000551,
          "durationTicks": 48,
          "midi": 42,
          "name": "F#2",
          "ticks": 41712,
          "time": 125.33652175000002,
          "velocity": 0.7559055118110236
        },
        {
          "duration": 0.8653844999999905,
          "durationTicks": 288,
          "midi": 40,
          "name": "E2",
          "ticks": 41760,
          "time": 125.48075250000002,
          "velocity": 0.7559055118110236
        },
        {
          "duration": 0.1442307499999913,
          "durationTicks": 48,
          "midi": 42,
          "name": "F#2",
          "ticks": 41760,
          "time": 125.48075250000002,
          "velocity": 0.7559055118110236
        },
        {
          "duration": 0.14423075000000551,
          "durationTicks": 48,
          "midi": 42,
          "name": "F#2",
          "ticks": 41808,
          "time": 125.62498325000001,
          "velocity": 0.7559055118110236
        },
        {
          "duration": 0.1442307499999913,
          "durationTicks": 48,
          "midi": 42,
          "name": "F#2",
          "ticks": 41856,
          "time": 125.76921400000002,
          "velocity": 0.7559055118110236
        },
        {
          "duration": 0.14423075000000551,
          "durationTicks": 48,
          "midi": 42,
          "name": "F#2",
          "ticks": 41904,
          "time": 125.91344475000001,
          "velocity": 0.7559055118110236
        },
        {
          "duration": 0,
          "durationTicks": 0,
          "midi": 35,
          "name": "B1",
          "ticks": 41952,
          "time": 126.05767550000002,
          "velocity": 0.7559055118110236
        },
        {
          "duration": 0,
          "durationTicks": 0,
          "midi": 35,
          "name": "B1",
          "ticks": 41952,
          "time": 126.05767550000002,
          "velocity": 0.7559055118110236
        },
        {
          "duration": 1.1538460000000015,
          "durationTicks": 384,
          "midi": 35,
          "name": "B1",
          "ticks": 41952,
          "time": 126.05767550000002,
          "velocity": 0.7559055118110236
        },
        {
          "duration": 0.14423075000000551,
          "durationTicks": 48,
          "midi": 42,
          "name": "F#2",
          "ticks": 41952,
          "time": 126.05767550000002,
          "velocity": 0.7559055118110236
        },
        {
          "duration": 0.1442307499999913,
          "durationTicks": 48,
          "midi": 42,
          "name": "F#2",
          "ticks": 42000,
          "time": 126.20190625000002,
          "velocity": 0.7559055118110236
        },
        {
          "duration": 1.4423074999999983,
          "durationTicks": 480,
          "midi": 40,
          "name": "E2",
          "ticks": 42048,
          "time": 126.34613700000001,
          "velocity": 0.7559055118110236
        },
        {
          "duration": 0.14423075000000551,
          "durationTicks": 48,
          "midi": 42,
          "name": "F#2",
          "ticks": 42048,
          "time": 126.34613700000001,
          "velocity": 0.7559055118110236
        },
        {
          "duration": 0.1442307499999913,
          "durationTicks": 48,
          "midi": 42,
          "name": "F#2",
          "ticks": 42096,
          "time": 126.49036775000002,
          "velocity": 0.7559055118110236
        },
        {
          "duration": 0.14423075000000551,
          "durationTicks": 48,
          "midi": 42,
          "name": "F#2",
          "ticks": 42144,
          "time": 126.63459850000001,
          "velocity": 0.7559055118110236
        },
        {
          "duration": 0.14423075000000551,
          "durationTicks": 48,
          "midi": 42,
          "name": "F#2",
          "ticks": 42192,
          "time": 126.77882925000002,
          "velocity": 0.7559055118110236
        },
        {
          "duration": 0.1442307499999913,
          "durationTicks": 48,
          "midi": 42,
          "name": "F#2",
          "ticks": 42240,
          "time": 126.92306000000002,
          "velocity": 0.7559055118110236
        },
        {
          "duration": 0.14423075000000551,
          "durationTicks": 48,
          "midi": 42,
          "name": "F#2",
          "ticks": 42288,
          "time": 127.06729075000001,
          "velocity": 0.7559055118110236
        },
        {
          "duration": 0,
          "durationTicks": 0,
          "midi": 35,
          "name": "B1",
          "ticks": 42336,
          "time": 127.21152150000002,
          "velocity": 0.7559055118110236
        },
        {
          "duration": 0,
          "durationTicks": 0,
          "midi": 35,
          "name": "B1",
          "ticks": 42336,
          "time": 127.21152150000002,
          "velocity": 0.7559055118110236
        },
        {
          "duration": 0.2884614999999968,
          "durationTicks": 96,
          "midi": 35,
          "name": "B1",
          "ticks": 42336,
          "time": 127.21152150000002,
          "velocity": 0.7559055118110236
        },
        {
          "duration": 0.14423075000000551,
          "durationTicks": 48,
          "midi": 42,
          "name": "F#2",
          "ticks": 42336,
          "time": 127.21152150000002,
          "velocity": 0.7559055118110236
        },
        {
          "duration": 0.1442307499999913,
          "durationTicks": 48,
          "midi": 42,
          "name": "F#2",
          "ticks": 42384,
          "time": 127.35575225000002,
          "velocity": 0.7559055118110236
        },
        {
          "duration": 0,
          "durationTicks": 0,
          "midi": 35,
          "name": "B1",
          "ticks": 42432,
          "time": 127.49998300000001,
          "velocity": 0.7559055118110236
        },
        {
          "duration": 0,
          "durationTicks": 0,
          "midi": 35,
          "name": "B1",
          "ticks": 42432,
          "time": 127.49998300000001,
          "velocity": 0.7559055118110236
        },
        {
          "duration": 0.8653845000000047,
          "durationTicks": 288,
          "midi": 35,
          "name": "B1",
          "ticks": 42432,
          "time": 127.49998300000001,
          "velocity": 0.7559055118110236
        },
        {
          "duration": 0.14423075000000551,
          "durationTicks": 48,
          "midi": 42,
          "name": "F#2",
          "ticks": 42432,
          "time": 127.49998300000001,
          "velocity": 0.7559055118110236
        },
        {
          "duration": 0.1442307499999913,
          "durationTicks": 48,
          "midi": 42,
          "name": "F#2",
          "ticks": 42480,
          "time": 127.64421375000002,
          "velocity": 0.7559055118110236
        },
        {
          "duration": 0.8653845000000189,
          "durationTicks": 288,
          "midi": 40,
          "name": "E2",
          "ticks": 42528,
          "time": 127.78844450000001,
          "velocity": 0.7559055118110236
        },
        {
          "duration": 0.14423075000000551,
          "durationTicks": 48,
          "midi": 42,
          "name": "F#2",
          "ticks": 42528,
          "time": 127.78844450000001,
          "velocity": 0.7559055118110236
        },
        {
          "duration": 0.1442307499999913,
          "durationTicks": 48,
          "midi": 42,
          "name": "F#2",
          "ticks": 42576,
          "time": 127.93267525000002,
          "velocity": 0.7559055118110236
        },
        {
          "duration": 0.14423075000001973,
          "durationTicks": 48,
          "midi": 42,
          "name": "F#2",
          "ticks": 42624,
          "time": 128.076906,
          "velocity": 0.7559055118110236
        },
        {
          "duration": 0.1442307499999913,
          "durationTicks": 48,
          "midi": 42,
          "name": "F#2",
          "ticks": 42672,
          "time": 128.22113675000003,
          "velocity": 0.7559055118110236
        },
        {
          "duration": 0,
          "durationTicks": 0,
          "midi": 35,
          "name": "B1",
          "ticks": 42720,
          "time": 128.36536750000002,
          "velocity": 0.7559055118110236
        },
        {
          "duration": 0,
          "durationTicks": 0,
          "midi": 35,
          "name": "B1",
          "ticks": 42720,
          "time": 128.36536750000002,
          "velocity": 0.7559055118110236
        },
        {
          "duration": 1.1538459999999873,
          "durationTicks": 384,
          "midi": 35,
          "name": "B1",
          "ticks": 42720,
          "time": 128.36536750000002,
          "velocity": 0.7559055118110236
        },
        {
          "duration": 0.1442307499999913,
          "durationTicks": 48,
          "midi": 42,
          "name": "F#2",
          "ticks": 42720,
          "time": 128.36536750000002,
          "velocity": 0.7559055118110236
        },
        {
          "duration": 0.14423075000001973,
          "durationTicks": 48,
          "midi": 42,
          "name": "F#2",
          "ticks": 42768,
          "time": 128.50959825,
          "velocity": 0.7559055118110236
        },
        {
          "duration": 1.4423074999999983,
          "durationTicks": 480,
          "midi": 40,
          "name": "E2",
          "ticks": 42816,
          "time": 128.65382900000003,
          "velocity": 0.7559055118110236
        },
        {
          "duration": 0.1442307499999913,
          "durationTicks": 48,
          "midi": 42,
          "name": "F#2",
          "ticks": 42816,
          "time": 128.65382900000003,
          "velocity": 0.7559055118110236
        },
        {
          "duration": 0.1442307499999913,
          "durationTicks": 48,
          "midi": 42,
          "name": "F#2",
          "ticks": 42864,
          "time": 128.79805975000002,
          "velocity": 0.7559055118110236
        },
        {
          "duration": 0.1442307499999913,
          "durationTicks": 48,
          "midi": 42,
          "name": "F#2",
          "ticks": 42912,
          "time": 128.9422905,
          "velocity": 0.7559055118110236
        },
        {
          "duration": 0.14423075000001973,
          "durationTicks": 48,
          "midi": 42,
          "name": "F#2",
          "ticks": 42960,
          "time": 129.08652125,
          "velocity": 0.7559055118110236
        },
        {
          "duration": 0.1442307499999913,
          "durationTicks": 48,
          "midi": 42,
          "name": "F#2",
          "ticks": 43008,
          "time": 129.23075200000002,
          "velocity": 0.7559055118110236
        },
        {
          "duration": 0.1442307499999913,
          "durationTicks": 48,
          "midi": 42,
          "name": "F#2",
          "ticks": 43056,
          "time": 129.37498275000002,
          "velocity": 0.7559055118110236
        },
        {
          "duration": 0,
          "durationTicks": 0,
          "midi": 35,
          "name": "B1",
          "ticks": 43104,
          "time": 129.5192135,
          "velocity": 0.7559055118110236
        },
        {
          "duration": 0,
          "durationTicks": 0,
          "midi": 35,
          "name": "B1",
          "ticks": 43104,
          "time": 129.5192135,
          "velocity": 0.7559055118110236
        },
        {
          "duration": 1.1538460000000157,
          "durationTicks": 384,
          "midi": 35,
          "name": "B1",
          "ticks": 43104,
          "time": 129.5192135,
          "velocity": 0.7559055118110236
        },
        {
          "duration": 0.14423075000001973,
          "durationTicks": 48,
          "midi": 42,
          "name": "F#2",
          "ticks": 43104,
          "time": 129.5192135,
          "velocity": 0.7559055118110236
        },
        {
          "duration": 0.1442307499999913,
          "durationTicks": 48,
          "midi": 42,
          "name": "F#2",
          "ticks": 43152,
          "time": 129.66344425000003,
          "velocity": 0.7559055118110236
        },
        {
          "duration": 0.1442307499999913,
          "durationTicks": 48,
          "midi": 42,
          "name": "F#2",
          "ticks": 43200,
          "time": 129.80767500000002,
          "velocity": 0.7559055118110236
        },
        {
          "duration": 0.14423075000001973,
          "durationTicks": 48,
          "midi": 42,
          "name": "F#2",
          "ticks": 43248,
          "time": 129.95190575,
          "velocity": 0.7559055118110236
        },
        {
          "duration": 0.8653844999999762,
          "durationTicks": 288,
          "midi": 40,
          "name": "E2",
          "ticks": 43296,
          "time": 130.09613650000003,
          "velocity": 0.7559055118110236
        },
        {
          "duration": 0.1442307499999913,
          "durationTicks": 48,
          "midi": 42,
          "name": "F#2",
          "ticks": 43296,
          "time": 130.09613650000003,
          "velocity": 0.7559055118110236
        },
        {
          "duration": 0.1442307499999913,
          "durationTicks": 48,
          "midi": 42,
          "name": "F#2",
          "ticks": 43344,
          "time": 130.24036725000002,
          "velocity": 0.7559055118110236
        },
        {
          "duration": 0.14423075000001973,
          "durationTicks": 48,
          "midi": 42,
          "name": "F#2",
          "ticks": 43392,
          "time": 130.384598,
          "velocity": 0.7559055118110236
        },
        {
          "duration": 0.1442307499999913,
          "durationTicks": 48,
          "midi": 42,
          "name": "F#2",
          "ticks": 43440,
          "time": 130.52882875000003,
          "velocity": 0.7559055118110236
        },
        {
          "duration": 0,
          "durationTicks": 0,
          "midi": 35,
          "name": "B1",
          "ticks": 43488,
          "time": 130.67305950000002,
          "velocity": 0.7559055118110236
        },
        {
          "duration": 0,
          "durationTicks": 0,
          "midi": 35,
          "name": "B1",
          "ticks": 43488,
          "time": 130.67305950000002,
          "velocity": 0.7559055118110236
        },
        {
          "duration": 1.1538459999999873,
          "durationTicks": 384,
          "midi": 35,
          "name": "B1",
          "ticks": 43488,
          "time": 130.67305950000002,
          "velocity": 0.7559055118110236
        },
        {
          "duration": 0.1442307499999913,
          "durationTicks": 48,
          "midi": 42,
          "name": "F#2",
          "ticks": 43488,
          "time": 130.67305950000002,
          "velocity": 0.7559055118110236
        },
        {
          "duration": 0.1442307499999913,
          "durationTicks": 48,
          "midi": 42,
          "name": "F#2",
          "ticks": 43536,
          "time": 130.81729025,
          "velocity": 0.7559055118110236
        },
        {
          "duration": 1.4423074999999983,
          "durationTicks": 480,
          "midi": 40,
          "name": "E2",
          "ticks": 43584,
          "time": 130.961521,
          "velocity": 0.7559055118110236
        },
        {
          "duration": 0.14423075000001973,
          "durationTicks": 48,
          "midi": 42,
          "name": "F#2",
          "ticks": 43584,
          "time": 130.961521,
          "velocity": 0.7559055118110236
        },
        {
          "duration": 0.1442307499999913,
          "durationTicks": 48,
          "midi": 42,
          "name": "F#2",
          "ticks": 43632,
          "time": 131.10575175000002,
          "velocity": 0.7559055118110236
        },
        {
          "duration": 0.1442307499999913,
          "durationTicks": 48,
          "midi": 42,
          "name": "F#2",
          "ticks": 43680,
          "time": 131.24998250000002,
          "velocity": 0.7559055118110236
        },
        {
          "duration": 0.14423075000001973,
          "durationTicks": 48,
          "midi": 42,
          "name": "F#2",
          "ticks": 43728,
          "time": 131.39421325,
          "velocity": 0.7559055118110236
        },
        {
          "duration": 0.1442307499999913,
          "durationTicks": 48,
          "midi": 42,
          "name": "F#2",
          "ticks": 43776,
          "time": 131.53844400000003,
          "velocity": 0.7559055118110236
        },
        {
          "duration": 0.1442307499999913,
          "durationTicks": 48,
          "midi": 42,
          "name": "F#2",
          "ticks": 43824,
          "time": 131.68267475000002,
          "velocity": 0.7559055118110236
        },
        {
          "duration": 0,
          "durationTicks": 0,
          "midi": 35,
          "name": "B1",
          "ticks": 43872,
          "time": 131.8269055,
          "velocity": 0.7559055118110236
        },
        {
          "duration": 0,
          "durationTicks": 0,
          "midi": 35,
          "name": "B1",
          "ticks": 43872,
          "time": 131.8269055,
          "velocity": 0.7559055118110236
        },
        {
          "duration": 0.28846150000001103,
          "durationTicks": 96,
          "midi": 35,
          "name": "B1",
          "ticks": 43872,
          "time": 131.8269055,
          "velocity": 0.7559055118110236
        },
        {
          "duration": 0.14423075000001973,
          "durationTicks": 48,
          "midi": 42,
          "name": "F#2",
          "ticks": 43872,
          "time": 131.8269055,
          "velocity": 0.7559055118110236
        },
        {
          "duration": 0.1442307499999913,
          "durationTicks": 48,
          "midi": 42,
          "name": "F#2",
          "ticks": 43920,
          "time": 131.97113625000003,
          "velocity": 0.7559055118110236
        },
        {
          "duration": 0,
          "durationTicks": 0,
          "midi": 35,
          "name": "B1",
          "ticks": 43968,
          "time": 132.11536700000002,
          "velocity": 0.7559055118110236
        },
        {
          "duration": 0,
          "durationTicks": 0,
          "midi": 35,
          "name": "B1",
          "ticks": 43968,
          "time": 132.11536700000002,
          "velocity": 0.7559055118110236
        },
        {
          "duration": 0.8653845000000047,
          "durationTicks": 288,
          "midi": 35,
          "name": "B1",
          "ticks": 43968,
          "time": 132.11536700000002,
          "velocity": 0.7559055118110236
        },
        {
          "duration": 0.1442307499999913,
          "durationTicks": 48,
          "midi": 42,
          "name": "F#2",
          "ticks": 43968,
          "time": 132.11536700000002,
          "velocity": 0.7559055118110236
        },
        {
          "duration": 0.1442307499999913,
          "durationTicks": 48,
          "midi": 42,
          "name": "F#2",
          "ticks": 44016,
          "time": 132.25959775,
          "velocity": 0.7559055118110236
        },
        {
          "duration": 0.8653845000000047,
          "durationTicks": 288,
          "midi": 40,
          "name": "E2",
          "ticks": 44064,
          "time": 132.4038285,
          "velocity": 0.7559055118110236
        },
        {
          "duration": 0.14423075000001973,
          "durationTicks": 48,
          "midi": 42,
          "name": "F#2",
          "ticks": 44064,
          "time": 132.4038285,
          "velocity": 0.7559055118110236
        },
        {
          "duration": 0.1442307499999913,
          "durationTicks": 48,
          "midi": 42,
          "name": "F#2",
          "ticks": 44112,
          "time": 132.54805925000002,
          "velocity": 0.7559055118110236
        },
        {
          "duration": 0.1442307499999913,
          "durationTicks": 48,
          "midi": 42,
          "name": "F#2",
          "ticks": 44160,
          "time": 132.69229,
          "velocity": 0.7559055118110236
        },
        {
          "duration": 0.14423075000001973,
          "durationTicks": 48,
          "midi": 42,
          "name": "F#2",
          "ticks": 44208,
          "time": 132.83652075,
          "velocity": 0.7559055118110236
        },
        {
          "duration": 0,
          "durationTicks": 0,
          "midi": 35,
          "name": "B1",
          "ticks": 44256,
          "time": 132.98075150000003,
          "velocity": 0.7559055118110236
        },
        {
          "duration": 0,
          "durationTicks": 0,
          "midi": 35,
          "name": "B1",
          "ticks": 44256,
          "time": 132.98075150000003,
          "velocity": 0.7559055118110236
        },
        {
          "duration": 1.1538459999999873,
          "durationTicks": 384,
          "midi": 35,
          "name": "B1",
          "ticks": 44256,
          "time": 132.98075150000003,
          "velocity": 0.7559055118110236
        },
        {
          "duration": 0.1442307499999913,
          "durationTicks": 48,
          "midi": 42,
          "name": "F#2",
          "ticks": 44256,
          "time": 132.98075150000003,
          "velocity": 0.7559055118110236
        },
        {
          "duration": 0.1442307499999913,
          "durationTicks": 48,
          "midi": 42,
          "name": "F#2",
          "ticks": 44304,
          "time": 133.12498225000002,
          "velocity": 0.7559055118110236
        },
        {
          "duration": 1.4423074999999983,
          "durationTicks": 480,
          "midi": 40,
          "name": "E2",
          "ticks": 44352,
          "time": 133.269213,
          "velocity": 0.7559055118110236
        },
        {
          "duration": 0.14423075000001973,
          "durationTicks": 48,
          "midi": 42,
          "name": "F#2",
          "ticks": 44352,
          "time": 133.269213,
          "velocity": 0.7559055118110236
        },
        {
          "duration": 0.1442307499999913,
          "durationTicks": 48,
          "midi": 42,
          "name": "F#2",
          "ticks": 44400,
          "time": 133.41344375000003,
          "velocity": 0.7559055118110236
        },
        {
          "duration": 0.1442307499999913,
          "durationTicks": 48,
          "midi": 42,
          "name": "F#2",
          "ticks": 44448,
          "time": 133.55767450000002,
          "velocity": 0.7559055118110236
        },
        {
          "duration": 0.14423075000001973,
          "durationTicks": 48,
          "midi": 42,
          "name": "F#2",
          "ticks": 44496,
          "time": 133.70190525,
          "velocity": 0.7559055118110236
        },
        {
          "duration": 0.1442307499999913,
          "durationTicks": 48,
          "midi": 42,
          "name": "F#2",
          "ticks": 44544,
          "time": 133.84613600000003,
          "velocity": 0.7559055118110236
        },
        {
          "duration": 0.1442307499999913,
          "durationTicks": 48,
          "midi": 42,
          "name": "F#2",
          "ticks": 44592,
          "time": 133.99036675000002,
          "velocity": 0.7559055118110236
        },
        {
          "duration": 0,
          "durationTicks": 0,
          "midi": 35,
          "name": "B1",
          "ticks": 44640,
          "time": 134.1345975,
          "velocity": 0.7559055118110236
        },
        {
          "duration": 0,
          "durationTicks": 0,
          "midi": 35,
          "name": "B1",
          "ticks": 44640,
          "time": 134.1345975,
          "velocity": 0.7559055118110236
        },
        {
          "duration": 1.1538460000000157,
          "durationTicks": 384,
          "midi": 35,
          "name": "B1",
          "ticks": 44640,
          "time": 134.1345975,
          "velocity": 0.7559055118110236
        },
        {
          "duration": 0.1442307499999913,
          "durationTicks": 48,
          "midi": 42,
          "name": "F#2",
          "ticks": 44640,
          "time": 134.1345975,
          "velocity": 0.7559055118110236
        },
        {
          "duration": 0.14423075000001973,
          "durationTicks": 48,
          "midi": 42,
          "name": "F#2",
          "ticks": 44688,
          "time": 134.27882825,
          "velocity": 0.7559055118110236
        },
        {
          "duration": 0.1442307499999913,
          "durationTicks": 48,
          "midi": 42,
          "name": "F#2",
          "ticks": 44736,
          "time": 134.42305900000002,
          "velocity": 0.7559055118110236
        },
        {
          "duration": 0.1442307499999913,
          "durationTicks": 48,
          "midi": 42,
          "name": "F#2",
          "ticks": 44784,
          "time": 134.56728975000001,
          "velocity": 0.7559055118110236
        },
        {
          "duration": 0.8653845000000047,
          "durationTicks": 288,
          "midi": 40,
          "name": "E2",
          "ticks": 44832,
          "time": 134.7115205,
          "velocity": 0.7559055118110236
        },
        {
          "duration": 0.14423075000001973,
          "durationTicks": 48,
          "midi": 42,
          "name": "F#2",
          "ticks": 44832,
          "time": 134.7115205,
          "velocity": 0.7559055118110236
        },
        {
          "duration": 0.1442307499999913,
          "durationTicks": 48,
          "midi": 42,
          "name": "F#2",
          "ticks": 44880,
          "time": 134.85575125000003,
          "velocity": 0.7559055118110236
        },
        {
          "duration": 0.1442307499999913,
          "durationTicks": 48,
          "midi": 42,
          "name": "F#2",
          "ticks": 44928,
          "time": 134.99998200000002,
          "velocity": 0.7559055118110236
        },
        {
          "duration": 0.14423075000001973,
          "durationTicks": 48,
          "midi": 42,
          "name": "F#2",
          "ticks": 44976,
          "time": 135.14421275,
          "velocity": 0.7559055118110236
        },
        {
          "duration": 0,
          "durationTicks": 0,
          "midi": 35,
          "name": "B1",
          "ticks": 45024,
          "time": 135.28844350000003,
          "velocity": 0.7559055118110236
        },
        {
          "duration": 0,
          "durationTicks": 0,
          "midi": 35,
          "name": "B1",
          "ticks": 45024,
          "time": 135.28844350000003,
          "velocity": 0.7559055118110236
        },
        {
          "duration": 1.1538459999999873,
          "durationTicks": 384,
          "midi": 35,
          "name": "B1",
          "ticks": 45024,
          "time": 135.28844350000003,
          "velocity": 0.7559055118110236
        },
        {
          "duration": 0.1442307499999913,
          "durationTicks": 48,
          "midi": 46,
          "name": "A#2",
          "ticks": 45024,
          "time": 135.28844350000003,
          "velocity": 0.7559055118110236
        },
        {
          "duration": 0.1442307499999913,
          "durationTicks": 48,
          "midi": 42,
          "name": "F#2",
          "ticks": 45072,
          "time": 135.43267425000002,
          "velocity": 0.7559055118110236
        },
        {
          "duration": 1.4423074999999983,
          "durationTicks": 480,
          "midi": 40,
          "name": "E2",
          "ticks": 45120,
          "time": 135.576905,
          "velocity": 0.7559055118110236
        },
        {
          "duration": 0.14423075000001973,
          "durationTicks": 48,
          "midi": 46,
          "name": "A#2",
          "ticks": 45120,
          "time": 135.576905,
          "velocity": 0.7559055118110236
        },
        {
          "duration": 0.1442307499999913,
          "durationTicks": 48,
          "midi": 42,
          "name": "F#2",
          "ticks": 45168,
          "time": 135.72113575000003,
          "velocity": 0.7559055118110236
        },
        {
          "duration": 0.1442307499999913,
          "durationTicks": 48,
          "midi": 46,
          "name": "A#2",
          "ticks": 45216,
          "time": 135.86536650000002,
          "velocity": 0.7559055118110236
        },
        {
          "duration": 0.1442307499999913,
          "durationTicks": 48,
          "midi": 42,
          "name": "F#2",
          "ticks": 45264,
          "time": 136.00959725,
          "velocity": 0.7559055118110236
        },
        {
          "duration": 0.14423075000001973,
          "durationTicks": 48,
          "midi": 46,
          "name": "A#2",
          "ticks": 45312,
          "time": 136.153828,
          "velocity": 0.7559055118110236
        },
        {
          "duration": 0.1442307499999913,
          "durationTicks": 48,
          "midi": 42,
          "name": "F#2",
          "ticks": 45360,
          "time": 136.29805875000002,
          "velocity": 0.7559055118110236
        },
        {
          "duration": 0,
          "durationTicks": 0,
          "midi": 35,
          "name": "B1",
          "ticks": 45408,
          "time": 136.44228950000002,
          "velocity": 0.7559055118110236
        },
        {
          "duration": 0,
          "durationTicks": 0,
          "midi": 35,
          "name": "B1",
          "ticks": 45408,
          "time": 136.44228950000002,
          "velocity": 0.7559055118110236
        },
        {
          "duration": 0.28846150000001103,
          "durationTicks": 96,
          "midi": 35,
          "name": "B1",
          "ticks": 45408,
          "time": 136.44228950000002,
          "velocity": 0.7559055118110236
        },
        {
          "duration": 0.1442307499999913,
          "durationTicks": 48,
          "midi": 46,
          "name": "A#2",
          "ticks": 45408,
          "time": 136.44228950000002,
          "velocity": 0.7559055118110236
        },
        {
          "duration": 0.14423075000001973,
          "durationTicks": 48,
          "midi": 42,
          "name": "F#2",
          "ticks": 45456,
          "time": 136.58652025,
          "velocity": 0.7559055118110236
        },
        {
          "duration": 0,
          "durationTicks": 0,
          "midi": 35,
          "name": "B1",
          "ticks": 45504,
          "time": 136.73075100000003,
          "velocity": 0.7559055118110236
        },
        {
          "duration": 0,
          "durationTicks": 0,
          "midi": 35,
          "name": "B1",
          "ticks": 45504,
          "time": 136.73075100000003,
          "velocity": 0.7559055118110236
        },
        {
          "duration": 0.8653845000000047,
          "durationTicks": 288,
          "midi": 35,
          "name": "B1",
          "ticks": 45504,
          "time": 136.73075100000003,
          "velocity": 0.7559055118110236
        },
        {
          "duration": 0.1442307499999913,
          "durationTicks": 48,
          "midi": 46,
          "name": "A#2",
          "ticks": 45504,
          "time": 136.73075100000003,
          "velocity": 0.7559055118110236
        },
        {
          "duration": 0.1442307499999913,
          "durationTicks": 48,
          "midi": 42,
          "name": "F#2",
          "ticks": 45552,
          "time": 136.87498175000002,
          "velocity": 0.7559055118110236
        },
        {
          "duration": 0.8653845000000047,
          "durationTicks": 288,
          "midi": 40,
          "name": "E2",
          "ticks": 45600,
          "time": 137.0192125,
          "velocity": 0.7559055118110236
        },
        {
          "duration": 0.28846150000001103,
          "durationTicks": 96,
          "midi": 46,
          "name": "A#2",
          "ticks": 45600,
          "time": 137.0192125,
          "velocity": 0.7559055118110236
        },
        {
          "duration": 0.28846150000001103,
          "durationTicks": 96,
          "midi": 46,
          "name": "A#2",
          "ticks": 45696,
          "time": 137.30767400000002,
          "velocity": 0.7559055118110236
        },
        {
          "duration": 0,
          "durationTicks": 0,
          "midi": 35,
          "name": "B1",
          "ticks": 45792,
          "time": 137.59613550000003,
          "velocity": 0.7559055118110236
        },
        {
          "duration": 0,
          "durationTicks": 0,
          "midi": 35,
          "name": "B1",
          "ticks": 45792,
          "time": 137.59613550000003,
          "velocity": 0.7559055118110236
        },
        {
          "duration": 1.1538459999999873,
          "durationTicks": 384,
          "midi": 35,
          "name": "B1",
          "ticks": 45792,
          "time": 137.59613550000003,
          "velocity": 0.7559055118110236
        },
        {
          "duration": 0.2884614999999826,
          "durationTicks": 96,
          "midi": 46,
          "name": "A#2",
          "ticks": 45792,
          "time": 137.59613550000003,
          "velocity": 0.7559055118110236
        },
        {
          "duration": 1.4423074999999983,
          "durationTicks": 480,
          "midi": 40,
          "name": "E2",
          "ticks": 45888,
          "time": 137.884597,
          "velocity": 0.7559055118110236
        },
        {
          "duration": 0.28846150000001103,
          "durationTicks": 96,
          "midi": 46,
          "name": "A#2",
          "ticks": 45888,
          "time": 137.884597,
          "velocity": 0.7559055118110236
        },
        {
          "duration": 0.2884614999999826,
          "durationTicks": 96,
          "midi": 46,
          "name": "A#2",
          "ticks": 45984,
          "time": 138.17305850000002,
          "velocity": 0.7559055118110236
        },
        {
          "duration": 0.28846150000001103,
          "durationTicks": 96,
          "midi": 46,
          "name": "A#2",
          "ticks": 46080,
          "time": 138.46152,
          "velocity": 0.7559055118110236
        },
        {
          "duration": 0,
          "durationTicks": 0,
          "midi": 35,
          "name": "B1",
          "ticks": 46176,
          "time": 138.74998150000002,
          "velocity": 0.7559055118110236
        },
        {
          "duration": 0,
          "durationTicks": 0,
          "midi": 35,
          "name": "B1",
          "ticks": 46176,
          "time": 138.74998150000002,
          "velocity": 0.7559055118110236
        },
        {
          "duration": 2.307692000000003,
          "durationTicks": 768,
          "midi": 35,
          "name": "B1",
          "ticks": 46176,
          "time": 138.74998150000002,
          "velocity": 0.7559055118110236
        },
        {
          "duration": 0.28846150000001103,
          "durationTicks": 96,
          "midi": 46,
          "name": "A#2",
          "ticks": 46176,
          "time": 138.74998150000002,
          "velocity": 0.7559055118110236
        },
        {
          "duration": 0.2884614999999826,
          "durationTicks": 96,
          "midi": 46,
          "name": "A#2",
          "ticks": 46272,
          "time": 139.03844300000003,
          "velocity": 0.7559055118110236
        },
        {
          "duration": 2.307692000000003,
          "durationTicks": 768,
          "midi": 40,
          "name": "E2",
          "ticks": 46368,
          "time": 139.3269045,
          "velocity": 0.7559055118110236
        },
        {
          "duration": 2.0192305000000204,
          "durationTicks": 672,
          "midi": 46,
          "name": "A#2",
          "ticks": 46368,
          "time": 139.3269045,
          "velocity": 0.7559055118110236
        },
        {
          "duration": 0,
          "durationTicks": 0,
          "midi": 35,
          "name": "B1",
          "ticks": 46944,
          "time": 141.05767350000002,
          "velocity": 0.7559055118110236
        },
        {
          "duration": 0,
          "durationTicks": 0,
          "midi": 35,
          "name": "B1",
          "ticks": 46944,
          "time": 141.05767350000002,
          "velocity": 0.7559055118110236
        },
        {
          "duration": 0.5769229999999936,
          "durationTicks": 192,
          "midi": 35,
          "name": "B1",
          "ticks": 46944,
          "time": 141.05767350000002,
          "velocity": 0.7559055118110236
        },
        {
          "duration": 8.65384499999999,
          "durationTicks": 2880,
          "midi": 49,
          "name": "C#3",
          "ticks": 46944,
          "time": 141.05767350000002,
          "velocity": 0.7559055118110236
        },
        {
          "duration": 0.2884614999999826,
          "durationTicks": 96,
          "midi": 46,
          "name": "A#2",
          "ticks": 47040,
          "time": 141.34613500000003,
          "velocity": 0.7559055118110236
        },
        {
          "duration": 0,
          "durationTicks": 0,
          "midi": 38,
          "name": "D2",
          "ticks": 47136,
          "time": 141.63459650000001,
          "velocity": 0.7559055118110236
        },
        {
          "duration": 0.8653845000000047,
          "durationTicks": 288,
          "midi": 38,
          "name": "D2",
          "ticks": 47136,
          "time": 141.63459650000001,
          "velocity": 0.7559055118110236
        },
        {
          "duration": 0.28846150000001103,
          "durationTicks": 96,
          "midi": 46,
          "name": "A#2",
          "ticks": 47136,
          "time": 141.63459650000001,
          "velocity": 0.7559055118110236
        },
        {
          "duration": 0.2884614999999826,
          "durationTicks": 96,
          "midi": 46,
          "name": "A#2",
          "ticks": 47232,
          "time": 141.92305800000003,
          "velocity": 0.7559055118110236
        },
        {
          "duration": 0,
          "durationTicks": 0,
          "midi": 35,
          "name": "B1",
          "ticks": 47328,
          "time": 142.2115195,
          "velocity": 0.7559055118110236
        },
        {
          "duration": 0,
          "durationTicks": 0,
          "midi": 35,
          "name": "B1",
          "ticks": 47328,
          "time": 142.2115195,
          "velocity": 0.7559055118110236
        },
        {
          "duration": 0.28846150000001103,
          "durationTicks": 96,
          "midi": 35,
          "name": "B1",
          "ticks": 47328,
          "time": 142.2115195,
          "velocity": 0.7559055118110236
        },
        {
          "duration": 0.28846150000001103,
          "durationTicks": 96,
          "midi": 46,
          "name": "A#2",
          "ticks": 47328,
          "time": 142.2115195,
          "velocity": 0.7559055118110236
        },
        {
          "duration": 0,
          "durationTicks": 0,
          "midi": 38,
          "name": "D2",
          "ticks": 47424,
          "time": 142.49998100000002,
          "velocity": 0.7559055118110236
        },
        {
          "duration": 1.4423074999999983,
          "durationTicks": 480,
          "midi": 38,
          "name": "D2",
          "ticks": 47424,
          "time": 142.49998100000002,
          "velocity": 0.7559055118110236
        },
        {
          "duration": 0.28846150000001103,
          "durationTicks": 96,
          "midi": 46,
          "name": "A#2",
          "ticks": 47424,
          "time": 142.49998100000002,
          "velocity": 0.7559055118110236
        },
        {
          "duration": 0.2884614999999826,
          "durationTicks": 96,
          "midi": 46,
          "name": "A#2",
          "ticks": 47520,
          "time": 142.78844250000003,
          "velocity": 0.7559055118110236
        },
        {
          "duration": 0.28846150000001103,
          "durationTicks": 96,
          "midi": 46,
          "name": "A#2",
          "ticks": 47616,
          "time": 143.076904,
          "velocity": 0.7559055118110236
        },
        {
          "duration": 0,
          "durationTicks": 0,
          "midi": 35,
          "name": "B1",
          "ticks": 47712,
          "time": 143.36536550000002,
          "velocity": 0.7559055118110236
        },
        {
          "duration": 0,
          "durationTicks": 0,
          "midi": 35,
          "name": "B1",
          "ticks": 47712,
          "time": 143.36536550000002,
          "velocity": 0.7559055118110236
        },
        {
          "duration": 0.2884614999999826,
          "durationTicks": 96,
          "midi": 35,
          "name": "B1",
          "ticks": 47712,
          "time": 143.36536550000002,
          "velocity": 0.7559055118110236
        },
        {
          "duration": 0.2884614999999826,
          "durationTicks": 96,
          "midi": 46,
          "name": "A#2",
          "ticks": 47712,
          "time": 143.36536550000002,
          "velocity": 0.7559055118110236
        },
        {
          "duration": 0,
          "durationTicks": 0,
          "midi": 35,
          "name": "B1",
          "ticks": 47808,
          "time": 143.653827,
          "velocity": 0.7559055118110236
        },
        {
          "duration": 0,
          "durationTicks": 0,
          "midi": 35,
          "name": "B1",
          "ticks": 47808,
          "time": 143.653827,
          "velocity": 0.7559055118110236
        },
        {
          "duration": 0.28846150000001103,
          "durationTicks": 96,
          "midi": 35,
          "name": "B1",
          "ticks": 47808,
          "time": 143.653827,
          "velocity": 0.7559055118110236
        },
        {
          "duration": 0.28846150000001103,
          "durationTicks": 96,
          "midi": 46,
          "name": "A#2",
          "ticks": 47808,
          "time": 143.653827,
          "velocity": 0.7559055118110236
        },
        {
          "duration": 0,
          "durationTicks": 0,
          "midi": 38,
          "name": "D2",
          "ticks": 47904,
          "time": 143.94228850000002,
          "velocity": 0.7559055118110236
        },
        {
          "duration": 0.8653845000000047,
          "durationTicks": 288,
          "midi": 38,
          "name": "D2",
          "ticks": 47904,
          "time": 143.94228850000002,
          "velocity": 0.7559055118110236
        },
        {
          "duration": 0.28846150000001103,
          "durationTicks": 96,
          "midi": 46,
          "name": "A#2",
          "ticks": 47904,
          "time": 143.94228850000002,
          "velocity": 0.7559055118110236
        },
        {
          "duration": 0.2884614999999826,
          "durationTicks": 96,
          "midi": 46,
          "name": "A#2",
          "ticks": 48000,
          "time": 144.23075000000003,
          "velocity": 0.7559055118110236
        },
        {
          "duration": 0,
          "durationTicks": 0,
          "midi": 35,
          "name": "B1",
          "ticks": 48096,
          "time": 144.5192115,
          "velocity": 0.7559055118110236
        },
        {
          "duration": 0,
          "durationTicks": 0,
          "midi": 35,
          "name": "B1",
          "ticks": 48096,
          "time": 144.5192115,
          "velocity": 0.7559055118110236
        },
        {
          "duration": 0.28846150000001103,
          "durationTicks": 96,
          "midi": 35,
          "name": "B1",
          "ticks": 48096,
          "time": 144.5192115,
          "velocity": 0.7559055118110236
        },
        {
          "duration": 0.28846150000001103,
          "durationTicks": 96,
          "midi": 46,
          "name": "A#2",
          "ticks": 48096,
          "time": 144.5192115,
          "velocity": 0.7559055118110236
        },
        {
          "duration": 0,
          "durationTicks": 0,
          "midi": 38,
          "name": "D2",
          "ticks": 48192,
          "time": 144.80767300000002,
          "velocity": 0.7559055118110236
        },
        {
          "duration": 1.4423074999999983,
          "durationTicks": 480,
          "midi": 38,
          "name": "D2",
          "ticks": 48192,
          "time": 144.80767300000002,
          "velocity": 0.7559055118110236
        },
        {
          "duration": 0.2884614999999826,
          "durationTicks": 96,
          "midi": 46,
          "name": "A#2",
          "ticks": 48192,
          "time": 144.80767300000002,
          "velocity": 0.7559055118110236
        },
        {
          "duration": 0.28846150000001103,
          "durationTicks": 96,
          "midi": 46,
          "name": "A#2",
          "ticks": 48288,
          "time": 145.0961345,
          "velocity": 0.7559055118110236
        },
        {
          "duration": 0.28846150000001103,
          "durationTicks": 96,
          "midi": 46,
          "name": "A#2",
          "ticks": 48384,
          "time": 145.38459600000002,
          "velocity": 0.7559055118110236
        },
        {
          "duration": 0,
          "durationTicks": 0,
          "midi": 35,
          "name": "B1",
          "ticks": 48480,
          "time": 145.67305750000003,
          "velocity": 0.7559055118110236
        },
        {
          "duration": 0,
          "durationTicks": 0,
          "midi": 35,
          "name": "B1",
          "ticks": 48480,
          "time": 145.67305750000003,
          "velocity": 0.7559055118110236
        },
        {
          "duration": 0.5769229999999936,
          "durationTicks": 192,
          "midi": 35,
          "name": "B1",
          "ticks": 48480,
          "time": 145.67305750000003,
          "velocity": 0.7559055118110236
        },
        {
          "duration": 0.2884614999999826,
          "durationTicks": 96,
          "midi": 46,
          "name": "A#2",
          "ticks": 48480,
          "time": 145.67305750000003,
          "velocity": 0.7559055118110236
        },
        {
          "duration": 0.28846150000001103,
          "durationTicks": 96,
          "midi": 46,
          "name": "A#2",
          "ticks": 48576,
          "time": 145.961519,
          "velocity": 0.7559055118110236
        },
        {
          "duration": 0,
          "durationTicks": 0,
          "midi": 38,
          "name": "D2",
          "ticks": 48672,
          "time": 146.24998050000002,
          "velocity": 0.7559055118110236
        },
        {
          "duration": 0.8653845000000047,
          "durationTicks": 288,
          "midi": 38,
          "name": "D2",
          "ticks": 48672,
          "time": 146.24998050000002,
          "velocity": 0.7559055118110236
        },
        {
          "duration": 0.28846150000001103,
          "durationTicks": 96,
          "midi": 46,
          "name": "A#2",
          "ticks": 48672,
          "time": 146.24998050000002,
          "velocity": 0.7559055118110236
        },
        {
          "duration": 0.2884614999999826,
          "durationTicks": 96,
          "midi": 46,
          "name": "A#2",
          "ticks": 48768,
          "time": 146.53844200000003,
          "velocity": 0.7559055118110236
        },
        {
          "duration": 0,
          "durationTicks": 0,
          "midi": 35,
          "name": "B1",
          "ticks": 48864,
          "time": 146.82690350000001,
          "velocity": 0.7559055118110236
        },
        {
          "duration": 0,
          "durationTicks": 0,
          "midi": 35,
          "name": "B1",
          "ticks": 48864,
          "time": 146.82690350000001,
          "velocity": 0.7559055118110236
        },
        {
          "duration": 0.28846150000001103,
          "durationTicks": 96,
          "midi": 35,
          "name": "B1",
          "ticks": 48864,
          "time": 146.82690350000001,
          "velocity": 0.7559055118110236
        },
        {
          "duration": 0.28846150000001103,
          "durationTicks": 96,
          "midi": 46,
          "name": "A#2",
          "ticks": 48864,
          "time": 146.82690350000001,
          "velocity": 0.7559055118110236
        },
        {
          "duration": 0,
          "durationTicks": 0,
          "midi": 38,
          "name": "D2",
          "ticks": 48960,
          "time": 147.11536500000003,
          "velocity": 0.7559055118110236
        },
        {
          "duration": 0.8653845000000047,
          "durationTicks": 288,
          "midi": 38,
          "name": "D2",
          "ticks": 48960,
          "time": 147.11536500000003,
          "velocity": 0.7559055118110236
        },
        {
          "duration": 0.2884614999999826,
          "durationTicks": 96,
          "midi": 46,
          "name": "A#2",
          "ticks": 48960,
          "time": 147.11536500000003,
          "velocity": 0.7559055118110236
        },
        {
          "duration": 0.28846150000001103,
          "durationTicks": 96,
          "midi": 46,
          "name": "A#2",
          "ticks": 49056,
          "time": 147.4038265,
          "velocity": 0.7559055118110236
        },
        {
          "duration": 0.28846150000001103,
          "durationTicks": 96,
          "midi": 46,
          "name": "A#2",
          "ticks": 49152,
          "time": 147.69228800000002,
          "velocity": 0.7559055118110236
        },
        {
          "duration": 0,
          "durationTicks": 0,
          "midi": 38,
          "name": "D2",
          "ticks": 49248,
          "time": 147.98074950000003,
          "velocity": 0.7559055118110236
        },
        {
          "duration": 0.8653844999999762,
          "durationTicks": 288,
          "midi": 38,
          "name": "D2",
          "ticks": 49248,
          "time": 147.98074950000003,
          "velocity": 0.7559055118110236
        },
        {
          "duration": 0.2884614999999826,
          "durationTicks": 96,
          "midi": 46,
          "name": "A#2",
          "ticks": 49248,
          "time": 147.98074950000003,
          "velocity": 0.7559055118110236
        },
        {
          "duration": 0,
          "durationTicks": 0,
          "midi": 35,
          "name": "B1",
          "ticks": 49296,
          "time": 148.12498025000002,
          "velocity": 0.7559055118110236
        },
        {
          "duration": 0,
          "durationTicks": 0,
          "midi": 35,
          "name": "B1",
          "ticks": 49296,
          "time": 148.12498025000002,
          "velocity": 0.7559055118110236
        },
        {
          "duration": 0.1442307499999913,
          "durationTicks": 48,
          "midi": 35,
          "name": "B1",
          "ticks": 49296,
          "time": 148.12498025000002,
          "velocity": 0.7559055118110236
        },
        {
          "duration": 0,
          "durationTicks": 0,
          "midi": 35,
          "name": "B1",
          "ticks": 49344,
          "time": 148.269211,
          "velocity": 0.7559055118110236
        },
        {
          "duration": 0,
          "durationTicks": 0,
          "midi": 35,
          "name": "B1",
          "ticks": 49344,
          "time": 148.269211,
          "velocity": 0.7559055118110236
        },
        {
          "duration": 0.28846150000001103,
          "durationTicks": 96,
          "midi": 35,
          "name": "B1",
          "ticks": 49344,
          "time": 148.269211,
          "velocity": 0.7559055118110236
        },
        {
          "duration": 0.28846150000001103,
          "durationTicks": 96,
          "midi": 46,
          "name": "A#2",
          "ticks": 49344,
          "time": 148.269211,
          "velocity": 0.7559055118110236
        },
        {
          "duration": 0,
          "durationTicks": 0,
          "midi": 35,
          "name": "B1",
          "ticks": 49440,
          "time": 148.55767250000002,
          "velocity": 0.7559055118110236
        },
        {
          "duration": 0,
          "durationTicks": 0,
          "midi": 35,
          "name": "B1",
          "ticks": 49440,
          "time": 148.55767250000002,
          "velocity": 0.7559055118110236
        },
        {
          "duration": 0.2884614999999826,
          "durationTicks": 96,
          "midi": 35,
          "name": "B1",
          "ticks": 49440,
          "time": 148.55767250000002,
          "velocity": 0.7559055118110236
        },
        {
          "duration": 0.2884614999999826,
          "durationTicks": 96,
          "midi": 46,
          "name": "A#2",
          "ticks": 49440,
          "time": 148.55767250000002,
          "velocity": 0.7559055118110236
        },
        {
          "duration": 0,
          "durationTicks": 0,
          "midi": 38,
          "name": "D2",
          "ticks": 49536,
          "time": 148.846134,
          "velocity": 0.7559055118110236
        },
        {
          "duration": 0.8653845000000047,
          "durationTicks": 288,
          "midi": 38,
          "name": "D2",
          "ticks": 49536,
          "time": 148.846134,
          "velocity": 0.7559055118110236
        },
        {
          "duration": 0.28846150000001103,
          "durationTicks": 96,
          "midi": 46,
          "name": "A#2",
          "ticks": 49536,
          "time": 148.846134,
          "velocity": 0.7559055118110236
        },
        {
          "duration": 0,
          "durationTicks": 0,
          "midi": 35,
          "name": "B1",
          "ticks": 49584,
          "time": 148.99036475000003,
          "velocity": 0.7559055118110236
        },
        {
          "duration": 0,
          "durationTicks": 0,
          "midi": 35,
          "name": "B1",
          "ticks": 49584,
          "time": 148.99036475000003,
          "velocity": 0.7559055118110236
        },
        {
          "duration": 0.1442307499999913,
          "durationTicks": 48,
          "midi": 35,
          "name": "B1",
          "ticks": 49584,
          "time": 148.99036475000003,
          "velocity": 0.7559055118110236
        },
        {
          "duration": 0,
          "durationTicks": 0,
          "midi": 35,
          "name": "B1",
          "ticks": 49632,
          "time": 149.13459550000002,
          "velocity": 0.7559055118110236
        },
        {
          "duration": 0,
          "durationTicks": 0,
          "midi": 35,
          "name": "B1",
          "ticks": 49632,
          "time": 149.13459550000002,
          "velocity": 0.7559055118110236
        },
        {
          "duration": 0.28846150000001103,
          "durationTicks": 96,
          "midi": 35,
          "name": "B1",
          "ticks": 49632,
          "time": 149.13459550000002,
          "velocity": 0.7559055118110236
        },
        {
          "duration": 0.28846150000001103,
          "durationTicks": 96,
          "midi": 46,
          "name": "A#2",
          "ticks": 49632,
          "time": 149.13459550000002,
          "velocity": 0.7559055118110236
        },
        {
          "duration": 0,
          "durationTicks": 0,
          "midi": 35,
          "name": "B1",
          "ticks": 49728,
          "time": 149.42305700000003,
          "velocity": 0.7559055118110236
        },
        {
          "duration": 0,
          "durationTicks": 0,
          "midi": 35,
          "name": "B1",
          "ticks": 49728,
          "time": 149.42305700000003,
          "velocity": 0.7559055118110236
        },
        {
          "duration": 0.2884614999999826,
          "durationTicks": 96,
          "midi": 35,
          "name": "B1",
          "ticks": 49728,
          "time": 149.42305700000003,
          "velocity": 0.7559055118110236
        },
        {
          "duration": 0.8653845000000047,
          "durationTicks": 288,
          "midi": 46,
          "name": "A#2",
          "ticks": 49728,
          "time": 149.42305700000003,
          "velocity": 0.7559055118110236
        },
        {
          "duration": 0,
          "durationTicks": 0,
          "midi": 38,
          "name": "D2",
          "ticks": 49824,
          "time": 149.7115185,
          "velocity": 0.7559055118110236
        },
        {
          "duration": 1.1538460000000157,
          "durationTicks": 384,
          "midi": 38,
          "name": "D2",
          "ticks": 49824,
          "time": 149.7115185,
          "velocity": 0.7559055118110236
        },
        {
          "duration": 9.807691000000005,
          "durationTicks": 3264,
          "midi": 57,
          "name": "A3",
          "ticks": 49824,
          "time": 149.7115185,
          "velocity": 0.7559055118110236
        },
        {
          "duration": 0,
          "durationTicks": 0,
          "midi": 35,
          "name": "B1",
          "ticks": 50016,
          "time": 150.28844150000003,
          "velocity": 0.7559055118110236
        },
        {
          "duration": 0,
          "durationTicks": 0,
          "midi": 35,
          "name": "B1",
          "ticks": 50016,
          "time": 150.28844150000003,
          "velocity": 0.7559055118110236
        },
        {
          "duration": 0.5769229999999936,
          "durationTicks": 192,
          "midi": 35,
          "name": "B1",
          "ticks": 50016,
          "time": 150.28844150000003,
          "velocity": 0.7559055118110236
        },
        {
          "duration": 0.2884614999999826,
          "durationTicks": 96,
          "midi": 46,
          "name": "A#2",
          "ticks": 50016,
          "time": 150.28844150000003,
          "velocity": 0.7559055118110236
        },
        {
          "duration": 0.28846150000001103,
          "durationTicks": 96,
          "midi": 46,
          "name": "A#2",
          "ticks": 50112,
          "time": 150.57690300000002,
          "velocity": 0.7559055118110236
        },
        {
          "duration": 0,
          "durationTicks": 0,
          "midi": 38,
          "name": "D2",
          "ticks": 50208,
          "time": 150.86536450000003,
          "velocity": 0.7559055118110236
        },
        {
          "duration": 0.8653845000000047,
          "durationTicks": 288,
          "midi": 38,
          "name": "D2",
          "ticks": 50208,
          "time": 150.86536450000003,
          "velocity": 0.7559055118110236
        },
        {
          "duration": 0.2884614999999826,
          "durationTicks": 96,
          "midi": 46,
          "name": "A#2",
          "ticks": 50208,
          "time": 150.86536450000003,
          "velocity": 0.7559055118110236
        },
        {
          "duration": 0.28846150000001103,
          "durationTicks": 96,
          "midi": 46,
          "name": "A#2",
          "ticks": 50304,
          "time": 151.153826,
          "velocity": 0.7559055118110236
        },
        {
          "duration": 0,
          "durationTicks": 0,
          "midi": 35,
          "name": "B1",
          "ticks": 50400,
          "time": 151.44228750000002,
          "velocity": 0.7559055118110236
        },
        {
          "duration": 0,
          "durationTicks": 0,
          "midi": 35,
          "name": "B1",
          "ticks": 50400,
          "time": 151.44228750000002,
          "velocity": 0.7559055118110236
        },
        {
          "duration": 0.28846150000001103,
          "durationTicks": 96,
          "midi": 35,
          "name": "B1",
          "ticks": 50400,
          "time": 151.44228750000002,
          "velocity": 0.7559055118110236
        },
        {
          "duration": 0.28846150000001103,
          "durationTicks": 96,
          "midi": 46,
          "name": "A#2",
          "ticks": 50400,
          "time": 151.44228750000002,
          "velocity": 0.7559055118110236
        },
        {
          "duration": 0,
          "durationTicks": 0,
          "midi": 38,
          "name": "D2",
          "ticks": 50496,
          "time": 151.73074900000003,
          "velocity": 0.7559055118110236
        },
        {
          "duration": 1.4423074999999983,
          "durationTicks": 480,
          "midi": 38,
          "name": "D2",
          "ticks": 50496,
          "time": 151.73074900000003,
          "velocity": 0.7559055118110236
        },
        {
          "duration": 0.2884614999999826,
          "durationTicks": 96,
          "midi": 46,
          "name": "A#2",
          "ticks": 50496,
          "time": 151.73074900000003,
          "velocity": 0.7559055118110236
        },
        {
          "duration": 0.28846150000001103,
          "durationTicks": 96,
          "midi": 46,
          "name": "A#2",
          "ticks": 50592,
          "time": 152.0192105,
          "velocity": 0.7559055118110236
        },
        {
          "duration": 0.2884614999999826,
          "durationTicks": 96,
          "midi": 46,
          "name": "A#2",
          "ticks": 50688,
          "time": 152.30767200000003,
          "velocity": 0.7559055118110236
        },
        {
          "duration": 0,
          "durationTicks": 0,
          "midi": 35,
          "name": "B1",
          "ticks": 50784,
          "time": 152.5961335,
          "velocity": 0.7559055118110236
        },
        {
          "duration": 0,
          "durationTicks": 0,
          "midi": 35,
          "name": "B1",
          "ticks": 50784,
          "time": 152.5961335,
          "velocity": 0.7559055118110236
        },
        {
          "duration": 0.28846150000001103,
          "durationTicks": 96,
          "midi": 35,
          "name": "B1",
          "ticks": 50784,
          "time": 152.5961335,
          "velocity": 0.7559055118110236
        },
        {
          "duration": 0.28846150000001103,
          "durationTicks": 96,
          "midi": 46,
          "name": "A#2",
          "ticks": 50784,
          "time": 152.5961335,
          "velocity": 0.7559055118110236
        },
        {
          "duration": 0,
          "durationTicks": 0,
          "midi": 35,
          "name": "B1",
          "ticks": 50880,
          "time": 152.88459500000002,
          "velocity": 0.7559055118110236
        },
        {
          "duration": 0,
          "durationTicks": 0,
          "midi": 35,
          "name": "B1",
          "ticks": 50880,
          "time": 152.88459500000002,
          "velocity": 0.7559055118110236
        },
        {
          "duration": 0.28846150000001103,
          "durationTicks": 96,
          "midi": 35,
          "name": "B1",
          "ticks": 50880,
          "time": 152.88459500000002,
          "velocity": 0.7559055118110236
        },
        {
          "duration": 0.28846150000001103,
          "durationTicks": 96,
          "midi": 46,
          "name": "A#2",
          "ticks": 50880,
          "time": 152.88459500000002,
          "velocity": 0.7559055118110236
        },
        {
          "duration": 0,
          "durationTicks": 0,
          "midi": 38,
          "name": "D2",
          "ticks": 50976,
          "time": 153.17305650000003,
          "velocity": 0.7559055118110236
        },
        {
          "duration": 0.8653844999999762,
          "durationTicks": 288,
          "midi": 38,
          "name": "D2",
          "ticks": 50976,
          "time": 153.17305650000003,
          "velocity": 0.7559055118110236
        },
        {
          "duration": 0.2884614999999826,
          "durationTicks": 96,
          "midi": 46,
          "name": "A#2",
          "ticks": 50976,
          "time": 153.17305650000003,
          "velocity": 0.7559055118110236
        },
        {
          "duration": 0.28846150000001103,
          "durationTicks": 96,
          "midi": 46,
          "name": "A#2",
          "ticks": 51072,
          "time": 153.461518,
          "velocity": 0.7559055118110236
        },
        {
          "duration": 0,
          "durationTicks": 0,
          "midi": 35,
          "name": "B1",
          "ticks": 51168,
          "time": 153.74997950000002,
          "velocity": 0.7559055118110236
        },
        {
          "duration": 0,
          "durationTicks": 0,
          "midi": 35,
          "name": "B1",
          "ticks": 51168,
          "time": 153.74997950000002,
          "velocity": 0.7559055118110236
        },
        {
          "duration": 0.2884614999999826,
          "durationTicks": 96,
          "midi": 35,
          "name": "B1",
          "ticks": 51168,
          "time": 153.74997950000002,
          "velocity": 0.7559055118110236
        },
        {
          "duration": 0.2884614999999826,
          "durationTicks": 96,
          "midi": 46,
          "name": "A#2",
          "ticks": 51168,
          "time": 153.74997950000002,
          "velocity": 0.7559055118110236
        },
        {
          "duration": 0,
          "durationTicks": 0,
          "midi": 38,
          "name": "D2",
          "ticks": 51264,
          "time": 154.038441,
          "velocity": 0.7559055118110236
        },
        {
          "duration": 1.4423075000000267,
          "durationTicks": 480,
          "midi": 38,
          "name": "D2",
          "ticks": 51264,
          "time": 154.038441,
          "velocity": 0.7559055118110236
        },
        {
          "duration": 0.28846150000001103,
          "durationTicks": 96,
          "midi": 46,
          "name": "A#2",
          "ticks": 51264,
          "time": 154.038441,
          "velocity": 0.7559055118110236
        },
        {
          "duration": 0.28846150000001103,
          "durationTicks": 96,
          "midi": 46,
          "name": "A#2",
          "ticks": 51360,
          "time": 154.32690250000002,
          "velocity": 0.7559055118110236
        },
        {
          "duration": 0.2884614999999826,
          "durationTicks": 96,
          "midi": 46,
          "name": "A#2",
          "ticks": 51456,
          "time": 154.61536400000003,
          "velocity": 0.7559055118110236
        },
        {
          "duration": 0,
          "durationTicks": 0,
          "midi": 35,
          "name": "B1",
          "ticks": 51552,
          "time": 154.9038255,
          "velocity": 0.7559055118110236
        },
        {
          "duration": 0,
          "durationTicks": 0,
          "midi": 35,
          "name": "B1",
          "ticks": 51552,
          "time": 154.9038255,
          "velocity": 0.7559055118110236
        },
        {
          "duration": 0.5769230000000221,
          "durationTicks": 192,
          "midi": 35,
          "name": "B1",
          "ticks": 51552,
          "time": 154.9038255,
          "velocity": 0.7559055118110236
        },
        {
          "duration": 0.28846150000001103,
          "durationTicks": 96,
          "midi": 46,
          "name": "A#2",
          "ticks": 51552,
          "time": 154.9038255,
          "velocity": 0.7559055118110236
        },
        {
          "duration": 0.28846150000001103,
          "durationTicks": 96,
          "midi": 46,
          "name": "A#2",
          "ticks": 51648,
          "time": 155.19228700000002,
          "velocity": 0.7559055118110236
        },
        {
          "duration": 0,
          "durationTicks": 0,
          "midi": 38,
          "name": "D2",
          "ticks": 51744,
          "time": 155.48074850000003,
          "velocity": 0.7559055118110236
        },
        {
          "duration": 0.8653844999999762,
          "durationTicks": 288,
          "midi": 38,
          "name": "D2",
          "ticks": 51744,
          "time": 155.48074850000003,
          "velocity": 0.7559055118110236
        },
        {
          "duration": 0.2884614999999826,
          "durationTicks": 96,
          "midi": 46,
          "name": "A#2",
          "ticks": 51744,
          "time": 155.48074850000003,
          "velocity": 0.7559055118110236
        },
        {
          "duration": 0.28846150000001103,
          "durationTicks": 96,
          "midi": 46,
          "name": "A#2",
          "ticks": 51840,
          "time": 155.76921000000002,
          "velocity": 0.7559055118110236
        },
        {
          "duration": 0,
          "durationTicks": 0,
          "midi": 35,
          "name": "B1",
          "ticks": 51936,
          "time": 156.05767150000003,
          "velocity": 0.7559055118110236
        },
        {
          "duration": 0,
          "durationTicks": 0,
          "midi": 35,
          "name": "B1",
          "ticks": 51936,
          "time": 156.05767150000003,
          "velocity": 0.7559055118110236
        },
        {
          "duration": 0.2884614999999826,
          "durationTicks": 96,
          "midi": 35,
          "name": "B1",
          "ticks": 51936,
          "time": 156.05767150000003,
          "velocity": 0.7559055118110236
        },
        {
          "duration": 0.2884614999999826,
          "durationTicks": 96,
          "midi": 46,
          "name": "A#2",
          "ticks": 51936,
          "time": 156.05767150000003,
          "velocity": 0.7559055118110236
        },
        {
          "duration": 0,
          "durationTicks": 0,
          "midi": 38,
          "name": "D2",
          "ticks": 52032,
          "time": 156.346133,
          "velocity": 0.7559055118110236
        },
        {
          "duration": 0.8653845000000047,
          "durationTicks": 288,
          "midi": 38,
          "name": "D2",
          "ticks": 52032,
          "time": 156.346133,
          "velocity": 0.7559055118110236
        },
        {
          "duration": 0.28846150000001103,
          "durationTicks": 96,
          "midi": 46,
          "name": "A#2",
          "ticks": 52032,
          "time": 156.346133,
          "velocity": 0.7559055118110236
        },
        {
          "duration": 0.28846150000001103,
          "durationTicks": 96,
          "midi": 46,
          "name": "A#2",
          "ticks": 52128,
          "time": 156.63459450000002,
          "velocity": 0.7559055118110236
        },
        {
          "duration": 0.2884614999999826,
          "durationTicks": 96,
          "midi": 46,
          "name": "A#2",
          "ticks": 52224,
          "time": 156.92305600000003,
          "velocity": 0.7559055118110236
        },
        {
          "duration": 0,
          "durationTicks": 0,
          "midi": 38,
          "name": "D2",
          "ticks": 52320,
          "time": 157.2115175,
          "velocity": 0.7559055118110236
        },
        {
          "duration": 0.8653845000000047,
          "durationTicks": 288,
          "midi": 38,
          "name": "D2",
          "ticks": 52320,
          "time": 157.2115175,
          "velocity": 0.7559055118110236
        },
        {
          "duration": 0.28846150000001103,
          "durationTicks": 96,
          "midi": 46,
          "name": "A#2",
          "ticks": 52320,
          "time": 157.2115175,
          "velocity": 0.7559055118110236
        },
        {
          "duration": 0,
          "durationTicks": 0,
          "midi": 35,
          "name": "B1",
          "ticks": 52368,
          "time": 157.35574825000003,
          "velocity": 0.7559055118110236
        },
        {
          "duration": 0,
          "durationTicks": 0,
          "midi": 35,
          "name": "B1",
          "ticks": 52368,
          "time": 157.35574825000003,
          "velocity": 0.7559055118110236
        },
        {
          "duration": 0.1442307499999913,
          "durationTicks": 48,
          "midi": 35,
          "name": "B1",
          "ticks": 52368,
          "time": 157.35574825000003,
          "velocity": 0.7559055118110236
        },
        {
          "duration": 0,
          "durationTicks": 0,
          "midi": 35,
          "name": "B1",
          "ticks": 52416,
          "time": 157.49997900000002,
          "velocity": 0.7559055118110236
        },
        {
          "duration": 0,
          "durationTicks": 0,
          "midi": 35,
          "name": "B1",
          "ticks": 52416,
          "time": 157.49997900000002,
          "velocity": 0.7559055118110236
        },
        {
          "duration": 0.2884614999999826,
          "durationTicks": 96,
          "midi": 35,
          "name": "B1",
          "ticks": 52416,
          "time": 157.49997900000002,
          "velocity": 0.7559055118110236
        },
        {
          "duration": 0.2884614999999826,
          "durationTicks": 96,
          "midi": 46,
          "name": "A#2",
          "ticks": 52416,
          "time": 157.49997900000002,
          "velocity": 0.7559055118110236
        },
        {
          "duration": 0,
          "durationTicks": 0,
          "midi": 35,
          "name": "B1",
          "ticks": 52512,
          "time": 157.7884405,
          "velocity": 0.7559055118110236
        },
        {
          "duration": 0,
          "durationTicks": 0,
          "midi": 35,
          "name": "B1",
          "ticks": 52512,
          "time": 157.7884405,
          "velocity": 0.7559055118110236
        },
        {
          "duration": 0.28846150000001103,
          "durationTicks": 96,
          "midi": 35,
          "name": "B1",
          "ticks": 52512,
          "time": 157.7884405,
          "velocity": 0.7559055118110236
        },
        {
          "duration": 0.28846150000001103,
          "durationTicks": 96,
          "midi": 46,
          "name": "A#2",
          "ticks": 52512,
          "time": 157.7884405,
          "velocity": 0.7559055118110236
        },
        {
          "duration": 0,
          "durationTicks": 0,
          "midi": 38,
          "name": "D2",
          "ticks": 52608,
          "time": 158.07690200000002,
          "velocity": 0.7559055118110236
        },
        {
          "duration": 0.8653845000000047,
          "durationTicks": 288,
          "midi": 38,
          "name": "D2",
          "ticks": 52608,
          "time": 158.07690200000002,
          "velocity": 0.7559055118110236
        },
        {
          "duration": 0.28846150000001103,
          "durationTicks": 96,
          "midi": 46,
          "name": "A#2",
          "ticks": 52608,
          "time": 158.07690200000002,
          "velocity": 0.7559055118110236
        },
        {
          "duration": 0,
          "durationTicks": 0,
          "midi": 35,
          "name": "B1",
          "ticks": 52656,
          "time": 158.22113275,
          "velocity": 0.7559055118110236
        },
        {
          "duration": 0,
          "durationTicks": 0,
          "midi": 35,
          "name": "B1",
          "ticks": 52656,
          "time": 158.22113275,
          "velocity": 0.7559055118110236
        },
        {
          "duration": 0.14423075000001973,
          "durationTicks": 48,
          "midi": 35,
          "name": "B1",
          "ticks": 52656,
          "time": 158.22113275,
          "velocity": 0.7559055118110236
        },
        {
          "duration": 0,
          "durationTicks": 0,
          "midi": 35,
          "name": "B1",
          "ticks": 52704,
          "time": 158.36536350000003,
          "velocity": 0.7559055118110236
        },
        {
          "duration": 0,
          "durationTicks": 0,
          "midi": 35,
          "name": "B1",
          "ticks": 52704,
          "time": 158.36536350000003,
          "velocity": 0.7559055118110236
        },
        {
          "duration": 0.2884614999999826,
          "durationTicks": 96,
          "midi": 35,
          "name": "B1",
          "ticks": 52704,
          "time": 158.36536350000003,
          "velocity": 0.7559055118110236
        },
        {
          "duration": 0.2884614999999826,
          "durationTicks": 96,
          "midi": 46,
          "name": "A#2",
          "ticks": 52704,
          "time": 158.36536350000003,
          "velocity": 0.7559055118110236
        },
        {
          "duration": 0,
          "durationTicks": 0,
          "midi": 35,
          "name": "B1",
          "ticks": 52800,
          "time": 158.653825,
          "velocity": 0.7559055118110236
        },
        {
          "duration": 0,
          "durationTicks": 0,
          "midi": 35,
          "name": "B1",
          "ticks": 52800,
          "time": 158.653825,
          "velocity": 0.7559055118110236
        },
        {
          "duration": 0.28846150000001103,
          "durationTicks": 96,
          "midi": 35,
          "name": "B1",
          "ticks": 52800,
          "time": 158.653825,
          "velocity": 0.7559055118110236
        },
        {
          "duration": 0.28846150000001103,
          "durationTicks": 96,
          "midi": 46,
          "name": "A#2",
          "ticks": 52800,
          "time": 158.653825,
          "velocity": 0.7559055118110236
        },
        {
          "duration": 0,
          "durationTicks": 0,
          "midi": 38,
          "name": "D2",
          "ticks": 52896,
          "time": 158.94228650000002,
          "velocity": 0.7559055118110236
        },
        {
          "duration": 1.1538459999999873,
          "durationTicks": 384,
          "midi": 38,
          "name": "D2",
          "ticks": 52896,
          "time": 158.94228650000002,
          "velocity": 0.7559055118110236
        },
        {
          "duration": 0.28846150000001103,
          "durationTicks": 96,
          "midi": 46,
          "name": "A#2",
          "ticks": 52896,
          "time": 158.94228650000002,
          "velocity": 0.7559055118110236
        },
        {
          "duration": 0,
          "durationTicks": 0,
          "midi": 35,
          "name": "B1",
          "ticks": 52992,
          "time": 159.23074800000003,
          "velocity": 0.7559055118110236
        },
        {
          "duration": 0,
          "durationTicks": 0,
          "midi": 35,
          "name": "B1",
          "ticks": 52992,
          "time": 159.23074800000003,
          "velocity": 0.7559055118110236
        },
        {
          "duration": 0.2884614999999826,
          "durationTicks": 96,
          "midi": 35,
          "name": "B1",
          "ticks": 52992,
          "time": 159.23074800000003,
          "velocity": 0.7559055118110236
        },
        {
          "duration": 0.5769229999999936,
          "durationTicks": 192,
          "midi": 46,
          "name": "A#2",
          "ticks": 52992,
          "time": 159.23074800000003,
          "velocity": 0.7559055118110236
        },
        {
          "duration": 0,
          "durationTicks": 0,
          "midi": 35,
          "name": "B1",
          "ticks": 53088,
          "time": 159.51920950000002,
          "velocity": 0.7559055118110236
        },
        {
          "duration": 0,
          "durationTicks": 0,
          "midi": 35,
          "name": "B1",
          "ticks": 53088,
          "time": 159.51920950000002,
          "velocity": 0.7559055118110236
        },
        {
          "duration": 0.5769229999999936,
          "durationTicks": 192,
          "midi": 35,
          "name": "B1",
          "ticks": 53088,
          "time": 159.51920950000002,
          "velocity": 0.7559055118110236
        },
        {
          "duration": 8.653845000000018,
          "durationTicks": 2880,
          "midi": 49,
          "name": "C#3",
          "ticks": 53088,
          "time": 159.51920950000002,
          "velocity": 0.7559055118110236
        },
        {
          "duration": 0.2884614999999826,
          "durationTicks": 96,
          "midi": 46,
          "name": "A#2",
          "ticks": 53184,
          "time": 159.80767100000003,
          "velocity": 0.7559055118110236
        },
        {
          "duration": 0,
          "durationTicks": 0,
          "midi": 38,
          "name": "D2",
          "ticks": 53280,
          "time": 160.0961325,
          "velocity": 0.7559055118110236
        },
        {
          "duration": 0.8653845000000047,
          "durationTicks": 288,
          "midi": 38,
          "name": "D2",
          "ticks": 53280,
          "time": 160.0961325,
          "velocity": 0.7559055118110236
        },
        {
          "duration": 0.28846150000001103,
          "durationTicks": 96,
          "midi": 46,
          "name": "A#2",
          "ticks": 53280,
          "time": 160.0961325,
          "velocity": 0.7559055118110236
        },
        {
          "duration": 0.28846150000001103,
          "durationTicks": 96,
          "midi": 46,
          "name": "A#2",
          "ticks": 53376,
          "time": 160.38459400000002,
          "velocity": 0.7559055118110236
        },
        {
          "duration": 0,
          "durationTicks": 0,
          "midi": 35,
          "name": "B1",
          "ticks": 53472,
          "time": 160.67305550000003,
          "velocity": 0.7559055118110236
        },
        {
          "duration": 0,
          "durationTicks": 0,
          "midi": 35,
          "name": "B1",
          "ticks": 53472,
          "time": 160.67305550000003,
          "velocity": 0.7559055118110236
        },
        {
          "duration": 0.2884614999999826,
          "durationTicks": 96,
          "midi": 35,
          "name": "B1",
          "ticks": 53472,
          "time": 160.67305550000003,
          "velocity": 0.7559055118110236
        },
        {
          "duration": 0.2884614999999826,
          "durationTicks": 96,
          "midi": 46,
          "name": "A#2",
          "ticks": 53472,
          "time": 160.67305550000003,
          "velocity": 0.7559055118110236
        },
        {
          "duration": 0,
          "durationTicks": 0,
          "midi": 38,
          "name": "D2",
          "ticks": 53568,
          "time": 160.96151700000001,
          "velocity": 0.7559055118110236
        },
        {
          "duration": 1.4423074999999983,
          "durationTicks": 480,
          "midi": 38,
          "name": "D2",
          "ticks": 53568,
          "time": 160.96151700000001,
          "velocity": 0.7559055118110236
        },
        {
          "duration": 0.28846150000001103,
          "durationTicks": 96,
          "midi": 46,
          "name": "A#2",
          "ticks": 53568,
          "time": 160.96151700000001,
          "velocity": 0.7559055118110236
        },
        {
          "duration": 0.2884614999999826,
          "durationTicks": 96,
          "midi": 46,
          "name": "A#2",
          "ticks": 53664,
          "time": 161.24997850000003,
          "velocity": 0.7559055118110236
        },
        {
          "duration": 0.28846150000001103,
          "durationTicks": 96,
          "midi": 46,
          "name": "A#2",
          "ticks": 53760,
          "time": 161.53844,
          "velocity": 0.7559055118110236
        },
        {
          "duration": 0,
          "durationTicks": 0,
          "midi": 35,
          "name": "B1",
          "ticks": 53856,
          "time": 161.82690150000002,
          "velocity": 0.7559055118110236
        },
        {
          "duration": 0,
          "durationTicks": 0,
          "midi": 35,
          "name": "B1",
          "ticks": 53856,
          "time": 161.82690150000002,
          "velocity": 0.7559055118110236
        },
        {
          "duration": 0.28846150000001103,
          "durationTicks": 96,
          "midi": 35,
          "name": "B1",
          "ticks": 53856,
          "time": 161.82690150000002,
          "velocity": 0.7559055118110236
        },
        {
          "duration": 0.28846150000001103,
          "durationTicks": 96,
          "midi": 46,
          "name": "A#2",
          "ticks": 53856,
          "time": 161.82690150000002,
          "velocity": 0.7559055118110236
        },
        {
          "duration": 0,
          "durationTicks": 0,
          "midi": 35,
          "name": "B1",
          "ticks": 53952,
          "time": 162.11536300000003,
          "velocity": 0.7559055118110236
        },
        {
          "duration": 0,
          "durationTicks": 0,
          "midi": 35,
          "name": "B1",
          "ticks": 53952,
          "time": 162.11536300000003,
          "velocity": 0.7559055118110236
        },
        {
          "duration": 0.2884614999999826,
          "durationTicks": 96,
          "midi": 35,
          "name": "B1",
          "ticks": 53952,
          "time": 162.11536300000003,
          "velocity": 0.7559055118110236
        },
        {
          "duration": 0.2884614999999826,
          "durationTicks": 96,
          "midi": 46,
          "name": "A#2",
          "ticks": 53952,
          "time": 162.11536300000003,
          "velocity": 0.7559055118110236
        },
        {
          "duration": 0,
          "durationTicks": 0,
          "midi": 38,
          "name": "D2",
          "ticks": 54048,
          "time": 162.4038245,
          "velocity": 0.7559055118110236
        },
        {
          "duration": 0.8653845000000047,
          "durationTicks": 288,
          "midi": 38,
          "name": "D2",
          "ticks": 54048,
          "time": 162.4038245,
          "velocity": 0.7559055118110236
        },
        {
          "duration": 0.28846150000001103,
          "durationTicks": 96,
          "midi": 46,
          "name": "A#2",
          "ticks": 54048,
          "time": 162.4038245,
          "velocity": 0.7559055118110236
        },
        {
          "duration": 0.28846150000001103,
          "durationTicks": 96,
          "midi": 46,
          "name": "A#2",
          "ticks": 54144,
          "time": 162.69228600000002,
          "velocity": 0.7559055118110236
        },
        {
          "duration": 0,
          "durationTicks": 0,
          "midi": 35,
          "name": "B1",
          "ticks": 54240,
          "time": 162.98074750000004,
          "velocity": 0.7559055118110236
        },
        {
          "duration": 0,
          "durationTicks": 0,
          "midi": 35,
          "name": "B1",
          "ticks": 54240,
          "time": 162.98074750000004,
          "velocity": 0.7559055118110236
        },
        {
          "duration": 0.2884614999999826,
          "durationTicks": 96,
          "midi": 35,
          "name": "B1",
          "ticks": 54240,
          "time": 162.98074750000004,
          "velocity": 0.7559055118110236
        },
        {
          "duration": 0.2884614999999826,
          "durationTicks": 96,
          "midi": 46,
          "name": "A#2",
          "ticks": 54240,
          "time": 162.98074750000004,
          "velocity": 0.7559055118110236
        },
        {
          "duration": 0,
          "durationTicks": 0,
          "midi": 38,
          "name": "D2",
          "ticks": 54336,
          "time": 163.26920900000002,
          "velocity": 0.7559055118110236
        },
        {
          "duration": 1.4423074999999983,
          "durationTicks": 480,
          "midi": 38,
          "name": "D2",
          "ticks": 54336,
          "time": 163.26920900000002,
          "velocity": 0.7559055118110236
        },
        {
          "duration": 0.28846150000001103,
          "durationTicks": 96,
          "midi": 46,
          "name": "A#2",
          "ticks": 54336,
          "time": 163.26920900000002,
          "velocity": 0.7559055118110236
        },
        {
          "duration": 0.2884614999999826,
          "durationTicks": 96,
          "midi": 46,
          "name": "A#2",
          "ticks": 54432,
          "time": 163.55767050000003,
          "velocity": 0.7559055118110236
        },
        {
          "duration": 0.28846150000001103,
          "durationTicks": 96,
          "midi": 46,
          "name": "A#2",
          "ticks": 54528,
          "time": 163.846132,
          "velocity": 0.7559055118110236
        },
        {
          "duration": 0,
          "durationTicks": 0,
          "midi": 35,
          "name": "B1",
          "ticks": 54624,
          "time": 164.13459350000002,
          "velocity": 0.7559055118110236
        },
        {
          "duration": 0,
          "durationTicks": 0,
          "midi": 35,
          "name": "B1",
          "ticks": 54624,
          "time": 164.13459350000002,
          "velocity": 0.7559055118110236
        },
        {
          "duration": 0.5769229999999936,
          "durationTicks": 192,
          "midi": 35,
          "name": "B1",
          "ticks": 54624,
          "time": 164.13459350000002,
          "velocity": 0.7559055118110236
        },
        {
          "duration": 0.28846150000001103,
          "durationTicks": 96,
          "midi": 46,
          "name": "A#2",
          "ticks": 54624,
          "time": 164.13459350000002,
          "velocity": 0.7559055118110236
        },
        {
          "duration": 0.2884614999999826,
          "durationTicks": 96,
          "midi": 46,
          "name": "A#2",
          "ticks": 54720,
          "time": 164.42305500000003,
          "velocity": 0.7559055118110236
        },
        {
          "duration": 0,
          "durationTicks": 0,
          "midi": 38,
          "name": "D2",
          "ticks": 54816,
          "time": 164.71151650000002,
          "velocity": 0.7559055118110236
        },
        {
          "duration": 0.8653845000000047,
          "durationTicks": 288,
          "midi": 38,
          "name": "D2",
          "ticks": 54816,
          "time": 164.71151650000002,
          "velocity": 0.7559055118110236
        },
        {
          "duration": 0.28846150000001103,
          "durationTicks": 96,
          "midi": 46,
          "name": "A#2",
          "ticks": 54816,
          "time": 164.71151650000002,
          "velocity": 0.7559055118110236
        },
        {
          "duration": 0.2884614999999826,
          "durationTicks": 96,
          "midi": 46,
          "name": "A#2",
          "ticks": 54912,
          "time": 164.99997800000003,
          "velocity": 0.7559055118110236
        },
        {
          "duration": 0,
          "durationTicks": 0,
          "midi": 35,
          "name": "B1",
          "ticks": 55008,
          "time": 165.2884395,
          "velocity": 0.7559055118110236
        },
        {
          "duration": 0,
          "durationTicks": 0,
          "midi": 35,
          "name": "B1",
          "ticks": 55008,
          "time": 165.2884395,
          "velocity": 0.7559055118110236
        },
        {
          "duration": 0.28846150000001103,
          "durationTicks": 96,
          "midi": 35,
          "name": "B1",
          "ticks": 55008,
          "time": 165.2884395,
          "velocity": 0.7559055118110236
        },
        {
          "duration": 0.28846150000001103,
          "durationTicks": 96,
          "midi": 46,
          "name": "A#2",
          "ticks": 55008,
          "time": 165.2884395,
          "velocity": 0.7559055118110236
        },
        {
          "duration": 0,
          "durationTicks": 0,
          "midi": 38,
          "name": "D2",
          "ticks": 55104,
          "time": 165.57690100000002,
          "velocity": 0.7559055118110236
        },
        {
          "duration": 0.8653845000000047,
          "durationTicks": 288,
          "midi": 38,
          "name": "D2",
          "ticks": 55104,
          "time": 165.57690100000002,
          "velocity": 0.7559055118110236
        },
        {
          "duration": 0.28846150000001103,
          "durationTicks": 96,
          "midi": 46,
          "name": "A#2",
          "ticks": 55104,
          "time": 165.57690100000002,
          "velocity": 0.7559055118110236
        },
        {
          "duration": 0.2884614999999826,
          "durationTicks": 96,
          "midi": 46,
          "name": "A#2",
          "ticks": 55200,
          "time": 165.86536250000003,
          "velocity": 0.7559055118110236
        },
        {
          "duration": 0.28846150000001103,
          "durationTicks": 96,
          "midi": 46,
          "name": "A#2",
          "ticks": 55296,
          "time": 166.15382400000001,
          "velocity": 0.7559055118110236
        },
        {
          "duration": 0,
          "durationTicks": 0,
          "midi": 38,
          "name": "D2",
          "ticks": 55392,
          "time": 166.44228550000003,
          "velocity": 0.7559055118110236
        },
        {
          "duration": 0.8653845000000047,
          "durationTicks": 288,
          "midi": 38,
          "name": "D2",
          "ticks": 55392,
          "time": 166.44228550000003,
          "velocity": 0.7559055118110236
        },
        {
          "duration": 0.2884614999999826,
          "durationTicks": 96,
          "midi": 46,
          "name": "A#2",
          "ticks": 55392,
          "time": 166.44228550000003,
          "velocity": 0.7559055118110236
        },
        {
          "duration": 0,
          "durationTicks": 0,
          "midi": 35,
          "name": "B1",
          "ticks": 55440,
          "time": 166.58651625000002,
          "velocity": 0.7559055118110236
        },
        {
          "duration": 0,
          "durationTicks": 0,
          "midi": 35,
          "name": "B1",
          "ticks": 55440,
          "time": 166.58651625000002,
          "velocity": 0.7559055118110236
        },
        {
          "duration": 0.1442307499999913,
          "durationTicks": 48,
          "midi": 35,
          "name": "B1",
          "ticks": 55440,
          "time": 166.58651625000002,
          "velocity": 0.7559055118110236
        },
        {
          "duration": 0,
          "durationTicks": 0,
          "midi": 35,
          "name": "B1",
          "ticks": 55488,
          "time": 166.730747,
          "velocity": 0.7559055118110236
        },
        {
          "duration": 0,
          "durationTicks": 0,
          "midi": 35,
          "name": "B1",
          "ticks": 55488,
          "time": 166.730747,
          "velocity": 0.7559055118110236
        },
        {
          "duration": 0.28846150000001103,
          "durationTicks": 96,
          "midi": 35,
          "name": "B1",
          "ticks": 55488,
          "time": 166.730747,
          "velocity": 0.7559055118110236
        },
        {
          "duration": 0.28846150000001103,
          "durationTicks": 96,
          "midi": 46,
          "name": "A#2",
          "ticks": 55488,
          "time": 166.730747,
          "velocity": 0.7559055118110236
        },
        {
          "duration": 0,
          "durationTicks": 0,
          "midi": 35,
          "name": "B1",
          "ticks": 55584,
          "time": 167.01920850000002,
          "velocity": 0.7559055118110236
        },
        {
          "duration": 0,
          "durationTicks": 0,
          "midi": 35,
          "name": "B1",
          "ticks": 55584,
          "time": 167.01920850000002,
          "velocity": 0.7559055118110236
        },
        {
          "duration": 0.28846150000001103,
          "durationTicks": 96,
          "midi": 35,
          "name": "B1",
          "ticks": 55584,
          "time": 167.01920850000002,
          "velocity": 0.7559055118110236
        },
        {
          "duration": 0.28846150000001103,
          "durationTicks": 96,
          "midi": 46,
          "name": "A#2",
          "ticks": 55584,
          "time": 167.01920850000002,
          "velocity": 0.7559055118110236
        },
        {
          "duration": 0,
          "durationTicks": 0,
          "midi": 38,
          "name": "D2",
          "ticks": 55680,
          "time": 167.30767000000003,
          "velocity": 0.7559055118110236
        },
        {
          "duration": 0.8653845000000047,
          "durationTicks": 288,
          "midi": 38,
          "name": "D2",
          "ticks": 55680,
          "time": 167.30767000000003,
          "velocity": 0.7559055118110236
        },
        {
          "duration": 0.2884614999999826,
          "durationTicks": 96,
          "midi": 46,
          "name": "A#2",
          "ticks": 55680,
          "time": 167.30767000000003,
          "velocity": 0.7559055118110236
        },
        {
          "duration": 0,
          "durationTicks": 0,
          "midi": 35,
          "name": "B1",
          "ticks": 55728,
          "time": 167.45190075000002,
          "velocity": 0.7559055118110236
        },
        {
          "duration": 0,
          "durationTicks": 0,
          "midi": 35,
          "name": "B1",
          "ticks": 55728,
          "time": 167.45190075000002,
          "velocity": 0.7559055118110236
        },
        {
          "duration": 0.1442307499999913,
          "durationTicks": 48,
          "midi": 35,
          "name": "B1",
          "ticks": 55728,
          "time": 167.45190075000002,
          "velocity": 0.7559055118110236
        },
        {
          "duration": 0,
          "durationTicks": 0,
          "midi": 35,
          "name": "B1",
          "ticks": 55776,
          "time": 167.5961315,
          "velocity": 0.7559055118110236
        },
        {
          "duration": 0,
          "durationTicks": 0,
          "midi": 35,
          "name": "B1",
          "ticks": 55776,
          "time": 167.5961315,
          "velocity": 0.7559055118110236
        },
        {
          "duration": 0.28846150000001103,
          "durationTicks": 96,
          "midi": 35,
          "name": "B1",
          "ticks": 55776,
          "time": 167.5961315,
          "velocity": 0.7559055118110236
        },
        {
          "duration": 0.28846150000001103,
          "durationTicks": 96,
          "midi": 46,
          "name": "A#2",
          "ticks": 55776,
          "time": 167.5961315,
          "velocity": 0.7559055118110236
        },
        {
          "duration": 0,
          "durationTicks": 0,
          "midi": 35,
          "name": "B1",
          "ticks": 55872,
          "time": 167.88459300000002,
          "velocity": 0.7559055118110236
        },
        {
          "duration": 0,
          "durationTicks": 0,
          "midi": 35,
          "name": "B1",
          "ticks": 55872,
          "time": 167.88459300000002,
          "velocity": 0.7559055118110236
        },
        {
          "duration": 0.28846150000001103,
          "durationTicks": 96,
          "midi": 35,
          "name": "B1",
          "ticks": 55872,
          "time": 167.88459300000002,
          "velocity": 0.7559055118110236
        },
        {
          "duration": 0.8653845000000047,
          "durationTicks": 288,
          "midi": 46,
          "name": "A#2",
          "ticks": 55872,
          "time": 167.88459300000002,
          "velocity": 0.7559055118110236
        },
        {
          "duration": 0,
          "durationTicks": 0,
          "midi": 38,
          "name": "D2",
          "ticks": 55968,
          "time": 168.17305450000003,
          "velocity": 0.7559055118110236
        },
        {
          "duration": 1.1538459999999873,
          "durationTicks": 384,
          "midi": 38,
          "name": "D2",
          "ticks": 55968,
          "time": 168.17305450000003,
          "velocity": 0.7559055118110236
        },
        {
          "duration": 9.807690999999977,
          "durationTicks": 3264,
          "midi": 57,
          "name": "A3",
          "ticks": 55968,
          "time": 168.17305450000003,
          "velocity": 0.7559055118110236
        },
        {
          "duration": 0,
          "durationTicks": 0,
          "midi": 35,
          "name": "B1",
          "ticks": 56160,
          "time": 168.74997750000003,
          "velocity": 0.7559055118110236
        },
        {
          "duration": 0,
          "durationTicks": 0,
          "midi": 35,
          "name": "B1",
          "ticks": 56160,
          "time": 168.74997750000003,
          "velocity": 0.7559055118110236
        },
        {
          "duration": 0.5769229999999936,
          "durationTicks": 192,
          "midi": 35,
          "name": "B1",
          "ticks": 56160,
          "time": 168.74997750000003,
          "velocity": 0.7559055118110236
        },
        {
          "duration": 0.2884614999999826,
          "durationTicks": 96,
          "midi": 46,
          "name": "A#2",
          "ticks": 56160,
          "time": 168.74997750000003,
          "velocity": 0.7559055118110236
        },
        {
          "duration": 0.28846150000001103,
          "durationTicks": 96,
          "midi": 46,
          "name": "A#2",
          "ticks": 56256,
          "time": 169.038439,
          "velocity": 0.7559055118110236
        },
        {
          "duration": 0,
          "durationTicks": 0,
          "midi": 38,
          "name": "D2",
          "ticks": 56352,
          "time": 169.32690050000002,
          "velocity": 0.7559055118110236
        },
        {
          "duration": 0.8653845000000047,
          "durationTicks": 288,
          "midi": 38,
          "name": "D2",
          "ticks": 56352,
          "time": 169.32690050000002,
          "velocity": 0.7559055118110236
        },
        {
          "duration": 0.28846150000001103,
          "durationTicks": 96,
          "midi": 46,
          "name": "A#2",
          "ticks": 56352,
          "time": 169.32690050000002,
          "velocity": 0.7559055118110236
        },
        {
          "duration": 0.2884614999999826,
          "durationTicks": 96,
          "midi": 46,
          "name": "A#2",
          "ticks": 56448,
          "time": 169.61536200000003,
          "velocity": 0.7559055118110236
        },
        {
          "duration": 0,
          "durationTicks": 0,
          "midi": 35,
          "name": "B1",
          "ticks": 56544,
          "time": 169.90382350000002,
          "velocity": 0.7559055118110236
        },
        {
          "duration": 0,
          "durationTicks": 0,
          "midi": 35,
          "name": "B1",
          "ticks": 56544,
          "time": 169.90382350000002,
          "velocity": 0.7559055118110236
        },
        {
          "duration": 0.28846150000001103,
          "durationTicks": 96,
          "midi": 35,
          "name": "B1",
          "ticks": 56544,
          "time": 169.90382350000002,
          "velocity": 0.7559055118110236
        },
        {
          "duration": 0.28846150000001103,
          "durationTicks": 96,
          "midi": 46,
          "name": "A#2",
          "ticks": 56544,
          "time": 169.90382350000002,
          "velocity": 0.7559055118110236
        },
        {
          "duration": 0,
          "durationTicks": 0,
          "midi": 38,
          "name": "D2",
          "ticks": 56640,
          "time": 170.19228500000003,
          "velocity": 0.7559055118110236
        },
        {
          "duration": 1.4423074999999983,
          "durationTicks": 480,
          "midi": 38,
          "name": "D2",
          "ticks": 56640,
          "time": 170.19228500000003,
          "velocity": 0.7559055118110236
        },
        {
          "duration": 0.2884614999999826,
          "durationTicks": 96,
          "midi": 46,
          "name": "A#2",
          "ticks": 56640,
          "time": 170.19228500000003,
          "velocity": 0.7559055118110236
        },
        {
          "duration": 0.28846150000001103,
          "durationTicks": 96,
          "midi": 46,
          "name": "A#2",
          "ticks": 56736,
          "time": 170.4807465,
          "velocity": 0.7559055118110236
        },
        {
          "duration": 0.28846150000001103,
          "durationTicks": 96,
          "midi": 46,
          "name": "A#2",
          "ticks": 56832,
          "time": 170.76920800000002,
          "velocity": 0.7559055118110236
        },
        {
          "duration": 0,
          "durationTicks": 0,
          "midi": 35,
          "name": "B1",
          "ticks": 56928,
          "time": 171.05766950000003,
          "velocity": 0.7559055118110236
        },
        {
          "duration": 0,
          "durationTicks": 0,
          "midi": 35,
          "name": "B1",
          "ticks": 56928,
          "time": 171.05766950000003,
          "velocity": 0.7559055118110236
        },
        {
          "duration": 0.2884614999999826,
          "durationTicks": 96,
          "midi": 35,
          "name": "B1",
          "ticks": 56928,
          "time": 171.05766950000003,
          "velocity": 0.7559055118110236
        },
        {
          "duration": 0.2884614999999826,
          "durationTicks": 96,
          "midi": 46,
          "name": "A#2",
          "ticks": 56928,
          "time": 171.05766950000003,
          "velocity": 0.7559055118110236
        },
        {
          "duration": 0,
          "durationTicks": 0,
          "midi": 35,
          "name": "B1",
          "ticks": 57024,
          "time": 171.346131,
          "velocity": 0.7559055118110236
        },
        {
          "duration": 0,
          "durationTicks": 0,
          "midi": 35,
          "name": "B1",
          "ticks": 57024,
          "time": 171.346131,
          "velocity": 0.7559055118110236
        },
        {
          "duration": 0.28846150000001103,
          "durationTicks": 96,
          "midi": 35,
          "name": "B1",
          "ticks": 57024,
          "time": 171.346131,
          "velocity": 0.7559055118110236
        },
        {
          "duration": 0.28846150000001103,
          "durationTicks": 96,
          "midi": 46,
          "name": "A#2",
          "ticks": 57024,
          "time": 171.346131,
          "velocity": 0.7559055118110236
        },
        {
          "duration": 0,
          "durationTicks": 0,
          "midi": 38,
          "name": "D2",
          "ticks": 57120,
          "time": 171.63459250000002,
          "velocity": 0.7559055118110236
        },
        {
          "duration": 0.8653845000000047,
          "durationTicks": 288,
          "midi": 38,
          "name": "D2",
          "ticks": 57120,
          "time": 171.63459250000002,
          "velocity": 0.7559055118110236
        },
        {
          "duration": 0.28846150000001103,
          "durationTicks": 96,
          "midi": 46,
          "name": "A#2",
          "ticks": 57120,
          "time": 171.63459250000002,
          "velocity": 0.7559055118110236
        },
        {
          "duration": 0.2884614999999826,
          "durationTicks": 96,
          "midi": 46,
          "name": "A#2",
          "ticks": 57216,
          "time": 171.92305400000004,
          "velocity": 0.7559055118110236
        },
        {
          "duration": 0,
          "durationTicks": 0,
          "midi": 35,
          "name": "B1",
          "ticks": 57312,
          "time": 172.21151550000002,
          "velocity": 0.7559055118110236
        },
        {
          "duration": 0,
          "durationTicks": 0,
          "midi": 35,
          "name": "B1",
          "ticks": 57312,
          "time": 172.21151550000002,
          "velocity": 0.7559055118110236
        },
        {
          "duration": 0.28846150000001103,
          "durationTicks": 96,
          "midi": 35,
          "name": "B1",
          "ticks": 57312,
          "time": 172.21151550000002,
          "velocity": 0.7559055118110236
        },
        {
          "duration": 0.28846150000001103,
          "durationTicks": 96,
          "midi": 46,
          "name": "A#2",
          "ticks": 57312,
          "time": 172.21151550000002,
          "velocity": 0.7559055118110236
        },
        {
          "duration": 0,
          "durationTicks": 0,
          "midi": 38,
          "name": "D2",
          "ticks": 57408,
          "time": 172.49997700000003,
          "velocity": 0.7559055118110236
        },
        {
          "duration": 1.4423074999999983,
          "durationTicks": 480,
          "midi": 38,
          "name": "D2",
          "ticks": 57408,
          "time": 172.49997700000003,
          "velocity": 0.7559055118110236
        },
        {
          "duration": 0.2884614999999826,
          "durationTicks": 96,
          "midi": 46,
          "name": "A#2",
          "ticks": 57408,
          "time": 172.49997700000003,
          "velocity": 0.7559055118110236
        },
        {
          "duration": 0.28846150000001103,
          "durationTicks": 96,
          "midi": 46,
          "name": "A#2",
          "ticks": 57504,
          "time": 172.7884385,
          "velocity": 0.7559055118110236
        },
        {
          "duration": 0.28846150000001103,
          "durationTicks": 96,
          "midi": 46,
          "name": "A#2",
          "ticks": 57600,
          "time": 173.07690000000002,
          "velocity": 0.7559055118110236
        },
        {
          "duration": 0,
          "durationTicks": 0,
          "midi": 35,
          "name": "B1",
          "ticks": 57696,
          "time": 173.36536150000003,
          "velocity": 0.7559055118110236
        },
        {
          "duration": 0,
          "durationTicks": 0,
          "midi": 35,
          "name": "B1",
          "ticks": 57696,
          "time": 173.36536150000003,
          "velocity": 0.7559055118110236
        },
        {
          "duration": 0.5769229999999936,
          "durationTicks": 192,
          "midi": 35,
          "name": "B1",
          "ticks": 57696,
          "time": 173.36536150000003,
          "velocity": 0.7559055118110236
        },
        {
          "duration": 0.2884614999999826,
          "durationTicks": 96,
          "midi": 46,
          "name": "A#2",
          "ticks": 57696,
          "time": 173.36536150000003,
          "velocity": 0.7559055118110236
        },
        {
          "duration": 0.28846150000001103,
          "durationTicks": 96,
          "midi": 46,
          "name": "A#2",
          "ticks": 57792,
          "time": 173.65382300000002,
          "velocity": 0.7559055118110236
        },
        {
          "duration": 0,
          "durationTicks": 0,
          "midi": 38,
          "name": "D2",
          "ticks": 57888,
          "time": 173.94228450000003,
          "velocity": 0.7559055118110236
        },
        {
          "duration": 0.8653845000000047,
          "durationTicks": 288,
          "midi": 38,
          "name": "D2",
          "ticks": 57888,
          "time": 173.94228450000003,
          "velocity": 0.7559055118110236
        },
        {
          "duration": 0.2884614999999826,
          "durationTicks": 96,
          "midi": 46,
          "name": "A#2",
          "ticks": 57888,
          "time": 173.94228450000003,
          "velocity": 0.7559055118110236
        },
        {
          "duration": 0.28846150000001103,
          "durationTicks": 96,
          "midi": 46,
          "name": "A#2",
          "ticks": 57984,
          "time": 174.230746,
          "velocity": 0.7559055118110236
        },
        {
          "duration": 0,
          "durationTicks": 0,
          "midi": 35,
          "name": "B1",
          "ticks": 58080,
          "time": 174.51920750000002,
          "velocity": 0.7559055118110236
        },
        {
          "duration": 0,
          "durationTicks": 0,
          "midi": 35,
          "name": "B1",
          "ticks": 58080,
          "time": 174.51920750000002,
          "velocity": 0.7559055118110236
        },
        {
          "duration": 0.28846150000001103,
          "durationTicks": 96,
          "midi": 35,
          "name": "B1",
          "ticks": 58080,
          "time": 174.51920750000002,
          "velocity": 0.7559055118110236
        },
        {
          "duration": 0.28846150000001103,
          "durationTicks": 96,
          "midi": 46,
          "name": "A#2",
          "ticks": 58080,
          "time": 174.51920750000002,
          "velocity": 0.7559055118110236
        },
        {
          "duration": 0,
          "durationTicks": 0,
          "midi": 38,
          "name": "D2",
          "ticks": 58176,
          "time": 174.80766900000003,
          "velocity": 0.7559055118110236
        },
        {
          "duration": 0.8653844999999762,
          "durationTicks": 288,
          "midi": 38,
          "name": "D2",
          "ticks": 58176,
          "time": 174.80766900000003,
          "velocity": 0.7559055118110236
        },
        {
          "duration": 0.2884614999999826,
          "durationTicks": 96,
          "midi": 46,
          "name": "A#2",
          "ticks": 58176,
          "time": 174.80766900000003,
          "velocity": 0.7559055118110236
        },
        {
          "duration": 0.28846150000001103,
          "durationTicks": 96,
          "midi": 46,
          "name": "A#2",
          "ticks": 58272,
          "time": 175.09613050000002,
          "velocity": 0.7559055118110236
        },
        {
          "duration": 0.2884614999999826,
          "durationTicks": 96,
          "midi": 46,
          "name": "A#2",
          "ticks": 58368,
          "time": 175.38459200000003,
          "velocity": 0.7559055118110236
        },
        {
          "duration": 0,
          "durationTicks": 0,
          "midi": 38,
          "name": "D2",
          "ticks": 58464,
          "time": 175.6730535,
          "velocity": 0.7559055118110236
        },
        {
          "duration": 0.8653845000000047,
          "durationTicks": 288,
          "midi": 38,
          "name": "D2",
          "ticks": 58464,
          "time": 175.6730535,
          "velocity": 0.7559055118110236
        },
        {
          "duration": 0.28846150000001103,
          "durationTicks": 96,
          "midi": 46,
          "name": "A#2",
          "ticks": 58464,
          "time": 175.6730535,
          "velocity": 0.7559055118110236
        },
        {
          "duration": 0,
          "durationTicks": 0,
          "midi": 35,
          "name": "B1",
          "ticks": 58512,
          "time": 175.81728425000003,
          "velocity": 0.7559055118110236
        },
        {
          "duration": 0,
          "durationTicks": 0,
          "midi": 35,
          "name": "B1",
          "ticks": 58512,
          "time": 175.81728425000003,
          "velocity": 0.7559055118110236
        },
        {
          "duration": 0.1442307499999913,
          "durationTicks": 48,
          "midi": 35,
          "name": "B1",
          "ticks": 58512,
          "time": 175.81728425000003,
          "velocity": 0.7559055118110236
        },
        {
          "duration": 0,
          "durationTicks": 0,
          "midi": 35,
          "name": "B1",
          "ticks": 58560,
          "time": 175.96151500000002,
          "velocity": 0.7559055118110236
        },
        {
          "duration": 0,
          "durationTicks": 0,
          "midi": 35,
          "name": "B1",
          "ticks": 58560,
          "time": 175.96151500000002,
          "velocity": 0.7559055118110236
        },
        {
          "duration": 0.28846150000001103,
          "durationTicks": 96,
          "midi": 35,
          "name": "B1",
          "ticks": 58560,
          "time": 175.96151500000002,
          "velocity": 0.7559055118110236
        },
        {
          "duration": 0.28846150000001103,
          "durationTicks": 96,
          "midi": 46,
          "name": "A#2",
          "ticks": 58560,
          "time": 175.96151500000002,
          "velocity": 0.7559055118110236
        },
        {
          "duration": 0,
          "durationTicks": 0,
          "midi": 35,
          "name": "B1",
          "ticks": 58656,
          "time": 176.24997650000003,
          "velocity": 0.7559055118110236
        },
        {
          "duration": 0,
          "durationTicks": 0,
          "midi": 35,
          "name": "B1",
          "ticks": 58656,
          "time": 176.24997650000003,
          "velocity": 0.7559055118110236
        },
        {
          "duration": 0.2884614999999826,
          "durationTicks": 96,
          "midi": 35,
          "name": "B1",
          "ticks": 58656,
          "time": 176.24997650000003,
          "velocity": 0.7559055118110236
        },
        {
          "duration": 0.2884614999999826,
          "durationTicks": 96,
          "midi": 46,
          "name": "A#2",
          "ticks": 58656,
          "time": 176.24997650000003,
          "velocity": 0.7559055118110236
        },
        {
          "duration": 0,
          "durationTicks": 0,
          "midi": 38,
          "name": "D2",
          "ticks": 58752,
          "time": 176.538438,
          "velocity": 0.7559055118110236
        },
        {
          "duration": 0.8653845000000047,
          "durationTicks": 288,
          "midi": 38,
          "name": "D2",
          "ticks": 58752,
          "time": 176.538438,
          "velocity": 0.7559055118110236
        },
        {
          "duration": 0.28846150000001103,
          "durationTicks": 96,
          "midi": 46,
          "name": "A#2",
          "ticks": 58752,
          "time": 176.538438,
          "velocity": 0.7559055118110236
        },
        {
          "duration": 0,
          "durationTicks": 0,
          "midi": 35,
          "name": "B1",
          "ticks": 58800,
          "time": 176.68266875000003,
          "velocity": 0.7559055118110236
        },
        {
          "duration": 0,
          "durationTicks": 0,
          "midi": 35,
          "name": "B1",
          "ticks": 58800,
          "time": 176.68266875000003,
          "velocity": 0.7559055118110236
        },
        {
          "duration": 0.1442307499999913,
          "durationTicks": 48,
          "midi": 35,
          "name": "B1",
          "ticks": 58800,
          "time": 176.68266875000003,
          "velocity": 0.7559055118110236
        },
        {
          "duration": 0,
          "durationTicks": 0,
          "midi": 35,
          "name": "B1",
          "ticks": 58848,
          "time": 176.82689950000002,
          "velocity": 0.7559055118110236
        },
        {
          "duration": 0,
          "durationTicks": 0,
          "midi": 35,
          "name": "B1",
          "ticks": 58848,
          "time": 176.82689950000002,
          "velocity": 0.7559055118110236
        },
        {
          "duration": 0.28846150000001103,
          "durationTicks": 96,
          "midi": 35,
          "name": "B1",
          "ticks": 58848,
          "time": 176.82689950000002,
          "velocity": 0.7559055118110236
        },
        {
          "duration": 0.28846150000001103,
          "durationTicks": 96,
          "midi": 46,
          "name": "A#2",
          "ticks": 58848,
          "time": 176.82689950000002,
          "velocity": 0.7559055118110236
        },
        {
          "duration": 0,
          "durationTicks": 0,
          "midi": 35,
          "name": "B1",
          "ticks": 58944,
          "time": 177.11536100000004,
          "velocity": 0.7559055118110236
        },
        {
          "duration": 0,
          "durationTicks": 0,
          "midi": 35,
          "name": "B1",
          "ticks": 58944,
          "time": 177.11536100000004,
          "velocity": 0.7559055118110236
        },
        {
          "duration": 0.2884614999999826,
          "durationTicks": 96,
          "midi": 35,
          "name": "B1",
          "ticks": 58944,
          "time": 177.11536100000004,
          "velocity": 0.7559055118110236
        },
        {
          "duration": 0.2884614999999826,
          "durationTicks": 96,
          "midi": 46,
          "name": "A#2",
          "ticks": 58944,
          "time": 177.11536100000004,
          "velocity": 0.7559055118110236
        },
        {
          "duration": 0,
          "durationTicks": 0,
          "midi": 38,
          "name": "D2",
          "ticks": 59040,
          "time": 177.40382250000002,
          "velocity": 0.7559055118110236
        },
        {
          "duration": 1.1538460000000157,
          "durationTicks": 384,
          "midi": 38,
          "name": "D2",
          "ticks": 59040,
          "time": 177.40382250000002,
          "velocity": 0.7559055118110236
        },
        {
          "duration": 0.28846150000001103,
          "durationTicks": 96,
          "midi": 46,
          "name": "A#2",
          "ticks": 59040,
          "time": 177.40382250000002,
          "velocity": 0.7559055118110236
        },
        {
          "duration": 0,
          "durationTicks": 0,
          "midi": 35,
          "name": "B1",
          "ticks": 59136,
          "time": 177.69228400000003,
          "velocity": 0.7559055118110236
        },
        {
          "duration": 0,
          "durationTicks": 0,
          "midi": 35,
          "name": "B1",
          "ticks": 59136,
          "time": 177.69228400000003,
          "velocity": 0.7559055118110236
        },
        {
          "duration": 0.2884614999999826,
          "durationTicks": 96,
          "midi": 35,
          "name": "B1",
          "ticks": 59136,
          "time": 177.69228400000003,
          "velocity": 0.7559055118110236
        },
        {
          "duration": 0.5769229999999936,
          "durationTicks": 192,
          "midi": 46,
          "name": "A#2",
          "ticks": 59136,
          "time": 177.69228400000003,
          "velocity": 0.7559055118110236
        },
        {
          "duration": 0,
          "durationTicks": 0,
          "midi": 35,
          "name": "B1",
          "ticks": 59232,
          "time": 177.9807455,
          "velocity": 0.7559055118110236
        },
        {
          "duration": 0,
          "durationTicks": 0,
          "midi": 35,
          "name": "B1",
          "ticks": 59232,
          "time": 177.9807455,
          "velocity": 0.7559055118110236
        },
        {
          "duration": 0.5769230000000221,
          "durationTicks": 192,
          "midi": 35,
          "name": "B1",
          "ticks": 59232,
          "time": 177.9807455,
          "velocity": 0.7559055118110236
        },
        {
          "duration": 8.653845000000018,
          "durationTicks": 2880,
          "midi": 49,
          "name": "C#3",
          "ticks": 59232,
          "time": 177.9807455,
          "velocity": 0.7559055118110236
        },
        {
          "duration": 0.28846150000001103,
          "durationTicks": 96,
          "midi": 46,
          "name": "A#2",
          "ticks": 59328,
          "time": 178.26920700000002,
          "velocity": 0.7559055118110236
        },
        {
          "duration": 0,
          "durationTicks": 0,
          "midi": 38,
          "name": "D2",
          "ticks": 59424,
          "time": 178.55766850000003,
          "velocity": 0.7559055118110236
        },
        {
          "duration": 0.8653844999999762,
          "durationTicks": 288,
          "midi": 38,
          "name": "D2",
          "ticks": 59424,
          "time": 178.55766850000003,
          "velocity": 0.7559055118110236
        },
        {
          "duration": 0.2884614999999826,
          "durationTicks": 96,
          "midi": 46,
          "name": "A#2",
          "ticks": 59424,
          "time": 178.55766850000003,
          "velocity": 0.7559055118110236
        },
        {
          "duration": 0.28846150000001103,
          "durationTicks": 96,
          "midi": 46,
          "name": "A#2",
          "ticks": 59520,
          "time": 178.84613000000002,
          "velocity": 0.7559055118110236
        },
        {
          "duration": 0,
          "durationTicks": 0,
          "midi": 35,
          "name": "B1",
          "ticks": 59616,
          "time": 179.13459150000003,
          "velocity": 0.7559055118110236
        },
        {
          "duration": 0,
          "durationTicks": 0,
          "midi": 35,
          "name": "B1",
          "ticks": 59616,
          "time": 179.13459150000003,
          "velocity": 0.7559055118110236
        },
        {
          "duration": 0.2884614999999826,
          "durationTicks": 96,
          "midi": 35,
          "name": "B1",
          "ticks": 59616,
          "time": 179.13459150000003,
          "velocity": 0.7559055118110236
        },
        {
          "duration": 0.2884614999999826,
          "durationTicks": 96,
          "midi": 46,
          "name": "A#2",
          "ticks": 59616,
          "time": 179.13459150000003,
          "velocity": 0.7559055118110236
        },
        {
          "duration": 0,
          "durationTicks": 0,
          "midi": 38,
          "name": "D2",
          "ticks": 59712,
          "time": 179.423053,
          "velocity": 0.7559055118110236
        },
        {
          "duration": 1.4423075000000267,
          "durationTicks": 480,
          "midi": 38,
          "name": "D2",
          "ticks": 59712,
          "time": 179.423053,
          "velocity": 0.7559055118110236
        },
        {
          "duration": 0.28846150000001103,
          "durationTicks": 96,
          "midi": 46,
          "name": "A#2",
          "ticks": 59712,
          "time": 179.423053,
          "velocity": 0.7559055118110236
        },
        {
          "duration": 0.28846150000001103,
          "durationTicks": 96,
          "midi": 46,
          "name": "A#2",
          "ticks": 59808,
          "time": 179.71151450000002,
          "velocity": 0.7559055118110236
        },
        {
          "duration": 0.2884614999999826,
          "durationTicks": 96,
          "midi": 46,
          "name": "A#2",
          "ticks": 59904,
          "time": 179.99997600000003,
          "velocity": 0.7559055118110236
        },
        {
          "duration": 0,
          "durationTicks": 0,
          "midi": 35,
          "name": "B1",
          "ticks": 60000,
          "time": 180.28843750000001,
          "velocity": 0.7559055118110236
        },
        {
          "duration": 0,
          "durationTicks": 0,
          "midi": 35,
          "name": "B1",
          "ticks": 60000,
          "time": 180.28843750000001,
          "velocity": 0.7559055118110236
        },
        {
          "duration": 0.28846150000001103,
          "durationTicks": 96,
          "midi": 35,
          "name": "B1",
          "ticks": 60000,
          "time": 180.28843750000001,
          "velocity": 0.7559055118110236
        },
        {
          "duration": 0.28846150000001103,
          "durationTicks": 96,
          "midi": 46,
          "name": "A#2",
          "ticks": 60000,
          "time": 180.28843750000001,
          "velocity": 0.7559055118110236
        },
        {
          "duration": 0,
          "durationTicks": 0,
          "midi": 35,
          "name": "B1",
          "ticks": 60096,
          "time": 180.57689900000003,
          "velocity": 0.7559055118110236
        },
        {
          "duration": 0,
          "durationTicks": 0,
          "midi": 35,
          "name": "B1",
          "ticks": 60096,
          "time": 180.57689900000003,
          "velocity": 0.7559055118110236
        },
        {
          "duration": 0.28846150000001103,
          "durationTicks": 96,
          "midi": 35,
          "name": "B1",
          "ticks": 60096,
          "time": 180.57689900000003,
          "velocity": 0.7559055118110236
        },
        {
          "duration": 0.28846150000001103,
          "durationTicks": 96,
          "midi": 46,
          "name": "A#2",
          "ticks": 60096,
          "time": 180.57689900000003,
          "velocity": 0.7559055118110236
        },
        {
          "duration": 0,
          "durationTicks": 0,
          "midi": 38,
          "name": "D2",
          "ticks": 60192,
          "time": 180.86536050000004,
          "velocity": 0.7559055118110236
        },
        {
          "duration": 0.8653844999999762,
          "durationTicks": 288,
          "midi": 38,
          "name": "D2",
          "ticks": 60192,
          "time": 180.86536050000004,
          "velocity": 0.7559055118110236
        },
        {
          "duration": 0.2884614999999826,
          "durationTicks": 96,
          "midi": 46,
          "name": "A#2",
          "ticks": 60192,
          "time": 180.86536050000004,
          "velocity": 0.7559055118110236
        },
        {
          "duration": 0.28846150000001103,
          "durationTicks": 96,
          "midi": 46,
          "name": "A#2",
          "ticks": 60288,
          "time": 181.15382200000002,
          "velocity": 0.7559055118110236
        },
        {
          "duration": 0,
          "durationTicks": 0,
          "midi": 35,
          "name": "B1",
          "ticks": 60384,
          "time": 181.44228350000003,
          "velocity": 0.7559055118110236
        },
        {
          "duration": 0,
          "durationTicks": 0,
          "midi": 35,
          "name": "B1",
          "ticks": 60384,
          "time": 181.44228350000003,
          "velocity": 0.7559055118110236
        },
        {
          "duration": 0.2884614999999826,
          "durationTicks": 96,
          "midi": 35,
          "name": "B1",
          "ticks": 60384,
          "time": 181.44228350000003,
          "velocity": 0.7559055118110236
        },
        {
          "duration": 0.2884614999999826,
          "durationTicks": 96,
          "midi": 46,
          "name": "A#2",
          "ticks": 60384,
          "time": 181.44228350000003,
          "velocity": 0.7559055118110236
        },
        {
          "duration": 0,
          "durationTicks": 0,
          "midi": 38,
          "name": "D2",
          "ticks": 60480,
          "time": 181.730745,
          "velocity": 0.7559055118110236
        },
        {
          "duration": 1.4423074999999983,
          "durationTicks": 480,
          "midi": 38,
          "name": "D2",
          "ticks": 60480,
          "time": 181.730745,
          "velocity": 0.7559055118110236
        },
        {
          "duration": 0.28846150000001103,
          "durationTicks": 96,
          "midi": 46,
          "name": "A#2",
          "ticks": 60480,
          "time": 181.730745,
          "velocity": 0.7559055118110236
        },
        {
          "duration": 0.28846150000001103,
          "durationTicks": 96,
          "midi": 46,
          "name": "A#2",
          "ticks": 60576,
          "time": 182.01920650000002,
          "velocity": 0.7559055118110236
        },
        {
          "duration": 0.2884614999999826,
          "durationTicks": 96,
          "midi": 46,
          "name": "A#2",
          "ticks": 60672,
          "time": 182.30766800000004,
          "velocity": 0.7559055118110236
        },
        {
          "duration": 0,
          "durationTicks": 0,
          "midi": 35,
          "name": "B1",
          "ticks": 60768,
          "time": 182.59612950000002,
          "velocity": 0.7559055118110236
        },
        {
          "duration": 0,
          "durationTicks": 0,
          "midi": 35,
          "name": "B1",
          "ticks": 60768,
          "time": 182.59612950000002,
          "velocity": 0.7559055118110236
        },
        {
          "duration": 0.5769229999999936,
          "durationTicks": 192,
          "midi": 35,
          "name": "B1",
          "ticks": 60768,
          "time": 182.59612950000002,
          "velocity": 0.7559055118110236
        },
        {
          "duration": 0.28846150000001103,
          "durationTicks": 96,
          "midi": 46,
          "name": "A#2",
          "ticks": 60768,
          "time": 182.59612950000002,
          "velocity": 0.7559055118110236
        },
        {
          "duration": 0.2884614999999826,
          "durationTicks": 96,
          "midi": 46,
          "name": "A#2",
          "ticks": 60864,
          "time": 182.88459100000003,
          "velocity": 0.7559055118110236
        },
        {
          "duration": 0,
          "durationTicks": 0,
          "midi": 38,
          "name": "D2",
          "ticks": 60960,
          "time": 183.1730525,
          "velocity": 0.7559055118110236
        },
        {
          "duration": 0.8653845000000047,
          "durationTicks": 288,
          "midi": 38,
          "name": "D2",
          "ticks": 60960,
          "time": 183.1730525,
          "velocity": 0.7559055118110236
        },
        {
          "duration": 0.28846150000001103,
          "durationTicks": 96,
          "midi": 46,
          "name": "A#2",
          "ticks": 60960,
          "time": 183.1730525,
          "velocity": 0.7559055118110236
        },
        {
          "duration": 0.28846150000001103,
          "durationTicks": 96,
          "midi": 46,
          "name": "A#2",
          "ticks": 61056,
          "time": 183.46151400000002,
          "velocity": 0.7559055118110236
        },
        {
          "duration": 0,
          "durationTicks": 0,
          "midi": 35,
          "name": "B1",
          "ticks": 61152,
          "time": 183.74997550000003,
          "velocity": 0.7559055118110236
        },
        {
          "duration": 0,
          "durationTicks": 0,
          "midi": 35,
          "name": "B1",
          "ticks": 61152,
          "time": 183.74997550000003,
          "velocity": 0.7559055118110236
        },
        {
          "duration": 0.2884614999999826,
          "durationTicks": 96,
          "midi": 35,
          "name": "B1",
          "ticks": 61152,
          "time": 183.74997550000003,
          "velocity": 0.7559055118110236
        },
        {
          "duration": 0.2884614999999826,
          "durationTicks": 96,
          "midi": 46,
          "name": "A#2",
          "ticks": 61152,
          "time": 183.74997550000003,
          "velocity": 0.7559055118110236
        },
        {
          "duration": 0,
          "durationTicks": 0,
          "midi": 38,
          "name": "D2",
          "ticks": 61248,
          "time": 184.03843700000002,
          "velocity": 0.7559055118110236
        },
        {
          "duration": 0.8653845000000047,
          "durationTicks": 288,
          "midi": 38,
          "name": "D2",
          "ticks": 61248,
          "time": 184.03843700000002,
          "velocity": 0.7559055118110236
        },
        {
          "duration": 0.28846150000001103,
          "durationTicks": 96,
          "midi": 46,
          "name": "A#2",
          "ticks": 61248,
          "time": 184.03843700000002,
          "velocity": 0.7559055118110236
        },
        {
          "duration": 0.2884614999999826,
          "durationTicks": 96,
          "midi": 46,
          "name": "A#2",
          "ticks": 61344,
          "time": 184.32689850000003,
          "velocity": 0.7559055118110236
        },
        {
          "duration": 0.28846150000001103,
          "durationTicks": 96,
          "midi": 46,
          "name": "A#2",
          "ticks": 61440,
          "time": 184.61536,
          "velocity": 0.7559055118110236
        },
        {
          "duration": 0,
          "durationTicks": 0,
          "midi": 38,
          "name": "D2",
          "ticks": 61536,
          "time": 184.90382150000002,
          "velocity": 0.7559055118110236
        },
        {
          "duration": 0.8653845000000047,
          "durationTicks": 288,
          "midi": 38,
          "name": "D2",
          "ticks": 61536,
          "time": 184.90382150000002,
          "velocity": 0.7559055118110236
        },
        {
          "duration": 0.28846150000001103,
          "durationTicks": 96,
          "midi": 46,
          "name": "A#2",
          "ticks": 61536,
          "time": 184.90382150000002,
          "velocity": 0.7559055118110236
        },
        {
          "duration": 0,
          "durationTicks": 0,
          "midi": 35,
          "name": "B1",
          "ticks": 61584,
          "time": 185.04805225,
          "velocity": 0.7559055118110236
        },
        {
          "duration": 0,
          "durationTicks": 0,
          "midi": 35,
          "name": "B1",
          "ticks": 61584,
          "time": 185.04805225,
          "velocity": 0.7559055118110236
        },
        {
          "duration": 0.14423075000001973,
          "durationTicks": 48,
          "midi": 35,
          "name": "B1",
          "ticks": 61584,
          "time": 185.04805225,
          "velocity": 0.7559055118110236
        },
        {
          "duration": 0,
          "durationTicks": 0,
          "midi": 35,
          "name": "B1",
          "ticks": 61632,
          "time": 185.19228300000003,
          "velocity": 0.7559055118110236
        },
        {
          "duration": 0,
          "durationTicks": 0,
          "midi": 35,
          "name": "B1",
          "ticks": 61632,
          "time": 185.19228300000003,
          "velocity": 0.7559055118110236
        },
        {
          "duration": 0.2884614999999826,
          "durationTicks": 96,
          "midi": 35,
          "name": "B1",
          "ticks": 61632,
          "time": 185.19228300000003,
          "velocity": 0.7559055118110236
        },
        {
          "duration": 0.2884614999999826,
          "durationTicks": 96,
          "midi": 46,
          "name": "A#2",
          "ticks": 61632,
          "time": 185.19228300000003,
          "velocity": 0.7559055118110236
        },
        {
          "duration": 0,
          "durationTicks": 0,
          "midi": 35,
          "name": "B1",
          "ticks": 61728,
          "time": 185.48074450000001,
          "velocity": 0.7559055118110236
        },
        {
          "duration": 0,
          "durationTicks": 0,
          "midi": 35,
          "name": "B1",
          "ticks": 61728,
          "time": 185.48074450000001,
          "velocity": 0.7559055118110236
        },
        {
          "duration": 0.28846150000001103,
          "durationTicks": 96,
          "midi": 35,
          "name": "B1",
          "ticks": 61728,
          "time": 185.48074450000001,
          "velocity": 0.7559055118110236
        },
        {
          "duration": 0.28846150000001103,
          "durationTicks": 96,
          "midi": 46,
          "name": "A#2",
          "ticks": 61728,
          "time": 185.48074450000001,
          "velocity": 0.7559055118110236
        },
        {
          "duration": 0,
          "durationTicks": 0,
          "midi": 38,
          "name": "D2",
          "ticks": 61824,
          "time": 185.76920600000003,
          "velocity": 0.7559055118110236
        },
        {
          "duration": 0.8653845000000047,
          "durationTicks": 288,
          "midi": 38,
          "name": "D2",
          "ticks": 61824,
          "time": 185.76920600000003,
          "velocity": 0.7559055118110236
        },
        {
          "duration": 0.28846150000001103,
          "durationTicks": 96,
          "midi": 46,
          "name": "A#2",
          "ticks": 61824,
          "time": 185.76920600000003,
          "velocity": 0.7559055118110236
        },
        {
          "duration": 0,
          "durationTicks": 0,
          "midi": 35,
          "name": "B1",
          "ticks": 61872,
          "time": 185.91343675000002,
          "velocity": 0.7559055118110236
        },
        {
          "duration": 0,
          "durationTicks": 0,
          "midi": 35,
          "name": "B1",
          "ticks": 61872,
          "time": 185.91343675000002,
          "velocity": 0.7559055118110236
        },
        {
          "duration": 0.14423075000001973,
          "durationTicks": 48,
          "midi": 35,
          "name": "B1",
          "ticks": 61872,
          "time": 185.91343675000002,
          "velocity": 0.7559055118110236
        },
        {
          "duration": 0,
          "durationTicks": 0,
          "midi": 35,
          "name": "B1",
          "ticks": 61920,
          "time": 186.05766750000004,
          "velocity": 0.7559055118110236
        },
        {
          "duration": 0,
          "durationTicks": 0,
          "midi": 35,
          "name": "B1",
          "ticks": 61920,
          "time": 186.05766750000004,
          "velocity": 0.7559055118110236
        },
        {
          "duration": 0.2884614999999826,
          "durationTicks": 96,
          "midi": 35,
          "name": "B1",
          "ticks": 61920,
          "time": 186.05766750000004,
          "velocity": 0.7559055118110236
        },
        {
          "duration": 0.2884614999999826,
          "durationTicks": 96,
          "midi": 46,
          "name": "A#2",
          "ticks": 61920,
          "time": 186.05766750000004,
          "velocity": 0.7559055118110236
        },
        {
          "duration": 0,
          "durationTicks": 0,
          "midi": 35,
          "name": "B1",
          "ticks": 62016,
          "time": 186.34612900000002,
          "velocity": 0.7559055118110236
        },
        {
          "duration": 0,
          "durationTicks": 0,
          "midi": 35,
          "name": "B1",
          "ticks": 62016,
          "time": 186.34612900000002,
          "velocity": 0.7559055118110236
        },
        {
          "duration": 0.28846150000001103,
          "durationTicks": 96,
          "midi": 35,
          "name": "B1",
          "ticks": 62016,
          "time": 186.34612900000002,
          "velocity": 0.7559055118110236
        },
        {
          "duration": 0.8653845000000047,
          "durationTicks": 288,
          "midi": 46,
          "name": "A#2",
          "ticks": 62016,
          "time": 186.34612900000002,
          "velocity": 0.7559055118110236
        },
        {
          "duration": 0,
          "durationTicks": 0,
          "midi": 38,
          "name": "D2",
          "ticks": 62112,
          "time": 186.63459050000003,
          "velocity": 0.7559055118110236
        },
        {
          "duration": 1.1538459999999873,
          "durationTicks": 384,
          "midi": 38,
          "name": "D2",
          "ticks": 62112,
          "time": 186.63459050000003,
          "velocity": 0.7559055118110236
        },
        {
          "duration": 14.1346135,
          "durationTicks": 4704,
          "midi": 57,
          "name": "A3",
          "ticks": 62112,
          "time": 186.63459050000003,
          "velocity": 0.7559055118110236
        },
        {
          "duration": 0,
          "durationTicks": 0,
          "midi": 35,
          "name": "B1",
          "ticks": 62304,
          "time": 187.21151350000002,
          "velocity": 0.7559055118110236
        },
        {
          "duration": 0,
          "durationTicks": 0,
          "midi": 35,
          "name": "B1",
          "ticks": 62304,
          "time": 187.21151350000002,
          "velocity": 0.7559055118110236
        },
        {
          "duration": 0.5769229999999936,
          "durationTicks": 192,
          "midi": 35,
          "name": "B1",
          "ticks": 62304,
          "time": 187.21151350000002,
          "velocity": 0.7559055118110236
        },
        {
          "duration": 0.28846150000001103,
          "durationTicks": 96,
          "midi": 46,
          "name": "A#2",
          "ticks": 62304,
          "time": 187.21151350000002,
          "velocity": 0.7559055118110236
        },
        {
          "duration": 0.2884614999999826,
          "durationTicks": 96,
          "midi": 46,
          "name": "A#2",
          "ticks": 62400,
          "time": 187.49997500000003,
          "velocity": 0.7559055118110236
        },
        {
          "duration": 0,
          "durationTicks": 0,
          "midi": 38,
          "name": "D2",
          "ticks": 62496,
          "time": 187.78843650000002,
          "velocity": 0.7559055118110236
        },
        {
          "duration": 0.8653845000000047,
          "durationTicks": 288,
          "midi": 38,
          "name": "D2",
          "ticks": 62496,
          "time": 187.78843650000002,
          "velocity": 0.7559055118110236
        },
        {
          "duration": 0.28846150000001103,
          "durationTicks": 96,
          "midi": 46,
          "name": "A#2",
          "ticks": 62496,
          "time": 187.78843650000002,
          "velocity": 0.7559055118110236
        },
        {
          "duration": 0.2884614999999826,
          "durationTicks": 96,
          "midi": 46,
          "name": "A#2",
          "ticks": 62592,
          "time": 188.07689800000003,
          "velocity": 0.7559055118110236
        },
        {
          "duration": 0,
          "durationTicks": 0,
          "midi": 35,
          "name": "B1",
          "ticks": 62688,
          "time": 188.3653595,
          "velocity": 0.7559055118110236
        },
        {
          "duration": 0,
          "durationTicks": 0,
          "midi": 35,
          "name": "B1",
          "ticks": 62688,
          "time": 188.3653595,
          "velocity": 0.7559055118110236
        },
        {
          "duration": 0.28846150000001103,
          "durationTicks": 96,
          "midi": 35,
          "name": "B1",
          "ticks": 62688,
          "time": 188.3653595,
          "velocity": 0.7559055118110236
        },
        {
          "duration": 0.28846150000001103,
          "durationTicks": 96,
          "midi": 46,
          "name": "A#2",
          "ticks": 62688,
          "time": 188.3653595,
          "velocity": 0.7559055118110236
        },
        {
          "duration": 0,
          "durationTicks": 0,
          "midi": 38,
          "name": "D2",
          "ticks": 62784,
          "time": 188.65382100000002,
          "velocity": 0.7559055118110236
        },
        {
          "duration": 1.4423074999999983,
          "durationTicks": 480,
          "midi": 38,
          "name": "D2",
          "ticks": 62784,
          "time": 188.65382100000002,
          "velocity": 0.7559055118110236
        },
        {
          "duration": 0.28846150000001103,
          "durationTicks": 96,
          "midi": 46,
          "name": "A#2",
          "ticks": 62784,
          "time": 188.65382100000002,
          "velocity": 0.7559055118110236
        },
        {
          "duration": 0.2884614999999826,
          "durationTicks": 96,
          "midi": 46,
          "name": "A#2",
          "ticks": 62880,
          "time": 188.94228250000003,
          "velocity": 0.7559055118110236
        },
        {
          "duration": 0.28846150000001103,
          "durationTicks": 96,
          "midi": 46,
          "name": "A#2",
          "ticks": 62976,
          "time": 189.23074400000002,
          "velocity": 0.7559055118110236
        },
        {
          "duration": 0,
          "durationTicks": 0,
          "midi": 35,
          "name": "B1",
          "ticks": 63072,
          "time": 189.51920550000003,
          "velocity": 0.7559055118110236
        },
        {
          "duration": 0,
          "durationTicks": 0,
          "midi": 35,
          "name": "B1",
          "ticks": 63072,
          "time": 189.51920550000003,
          "velocity": 0.7559055118110236
        },
        {
          "duration": 0.28846150000001103,
          "durationTicks": 96,
          "midi": 35,
          "name": "B1",
          "ticks": 63072,
          "time": 189.51920550000003,
          "velocity": 0.7559055118110236
        },
        {
          "duration": 0.28846150000001103,
          "durationTicks": 96,
          "midi": 46,
          "name": "A#2",
          "ticks": 63072,
          "time": 189.51920550000003,
          "velocity": 0.7559055118110236
        },
        {
          "duration": 0,
          "durationTicks": 0,
          "midi": 35,
          "name": "B1",
          "ticks": 63168,
          "time": 189.80766700000004,
          "velocity": 0.7559055118110236
        },
        {
          "duration": 0,
          "durationTicks": 0,
          "midi": 35,
          "name": "B1",
          "ticks": 63168,
          "time": 189.80766700000004,
          "velocity": 0.7559055118110236
        },
        {
          "duration": 0.2884614999999826,
          "durationTicks": 96,
          "midi": 35,
          "name": "B1",
          "ticks": 63168,
          "time": 189.80766700000004,
          "velocity": 0.7559055118110236
        },
        {
          "duration": 0.2884614999999826,
          "durationTicks": 96,
          "midi": 46,
          "name": "A#2",
          "ticks": 63168,
          "time": 189.80766700000004,
          "velocity": 0.7559055118110236
        },
        {
          "duration": 0,
          "durationTicks": 0,
          "midi": 38,
          "name": "D2",
          "ticks": 63264,
          "time": 190.09612850000002,
          "velocity": 0.7559055118110236
        },
        {
          "duration": 0.8653845000000047,
          "durationTicks": 288,
          "midi": 38,
          "name": "D2",
          "ticks": 63264,
          "time": 190.09612850000002,
          "velocity": 0.7559055118110236
        },
        {
          "duration": 0.28846150000001103,
          "durationTicks": 96,
          "midi": 46,
          "name": "A#2",
          "ticks": 63264,
          "time": 190.09612850000002,
          "velocity": 0.7559055118110236
        },
        {
          "duration": 0.2884614999999826,
          "durationTicks": 96,
          "midi": 46,
          "name": "A#2",
          "ticks": 63360,
          "time": 190.38459000000003,
          "velocity": 0.7559055118110236
        },
        {
          "duration": 0,
          "durationTicks": 0,
          "midi": 35,
          "name": "B1",
          "ticks": 63456,
          "time": 190.6730515,
          "velocity": 0.7559055118110236
        },
        {
          "duration": 0,
          "durationTicks": 0,
          "midi": 35,
          "name": "B1",
          "ticks": 63456,
          "time": 190.6730515,
          "velocity": 0.7559055118110236
        },
        {
          "duration": 0.28846150000001103,
          "durationTicks": 96,
          "midi": 35,
          "name": "B1",
          "ticks": 63456,
          "time": 190.6730515,
          "velocity": 0.7559055118110236
        },
        {
          "duration": 0.28846150000001103,
          "durationTicks": 96,
          "midi": 46,
          "name": "A#2",
          "ticks": 63456,
          "time": 190.6730515,
          "velocity": 0.7559055118110236
        },
        {
          "duration": 0,
          "durationTicks": 0,
          "midi": 38,
          "name": "D2",
          "ticks": 63552,
          "time": 190.96151300000002,
          "velocity": 0.7559055118110236
        },
        {
          "duration": 1.4423074999999983,
          "durationTicks": 480,
          "midi": 38,
          "name": "D2",
          "ticks": 63552,
          "time": 190.96151300000002,
          "velocity": 0.7559055118110236
        },
        {
          "duration": 0.28846150000001103,
          "durationTicks": 96,
          "midi": 46,
          "name": "A#2",
          "ticks": 63552,
          "time": 190.96151300000002,
          "velocity": 0.7559055118110236
        },
        {
          "duration": 0.2884614999999826,
          "durationTicks": 96,
          "midi": 46,
          "name": "A#2",
          "ticks": 63648,
          "time": 191.24997450000004,
          "velocity": 0.7559055118110236
        },
        {
          "duration": 0.28846150000001103,
          "durationTicks": 96,
          "midi": 46,
          "name": "A#2",
          "ticks": 63744,
          "time": 191.53843600000002,
          "velocity": 0.7559055118110236
        },
        {
          "duration": 0,
          "durationTicks": 0,
          "midi": 35,
          "name": "B1",
          "ticks": 63840,
          "time": 191.82689750000003,
          "velocity": 0.7559055118110236
        },
        {
          "duration": 0,
          "durationTicks": 0,
          "midi": 35,
          "name": "B1",
          "ticks": 63840,
          "time": 191.82689750000003,
          "velocity": 0.7559055118110236
        },
        {
          "duration": 0.5769229999999936,
          "durationTicks": 192,
          "midi": 35,
          "name": "B1",
          "ticks": 63840,
          "time": 191.82689750000003,
          "velocity": 0.7559055118110236
        },
        {
          "duration": 0.2884614999999826,
          "durationTicks": 96,
          "midi": 46,
          "name": "A#2",
          "ticks": 63840,
          "time": 191.82689750000003,
          "velocity": 0.7559055118110236
        },
        {
          "duration": 0.28846150000001103,
          "durationTicks": 96,
          "midi": 46,
          "name": "A#2",
          "ticks": 63936,
          "time": 192.115359,
          "velocity": 0.7559055118110236
        },
        {
          "duration": 0,
          "durationTicks": 0,
          "midi": 38,
          "name": "D2",
          "ticks": 64032,
          "time": 192.40382050000002,
          "velocity": 0.7559055118110236
        },
        {
          "duration": 0.8653845000000047,
          "durationTicks": 288,
          "midi": 38,
          "name": "D2",
          "ticks": 64032,
          "time": 192.40382050000002,
          "velocity": 0.7559055118110236
        },
        {
          "duration": 0.28846150000001103,
          "durationTicks": 96,
          "midi": 46,
          "name": "A#2",
          "ticks": 64032,
          "time": 192.40382050000002,
          "velocity": 0.7559055118110236
        },
        {
          "duration": 0.2884614999999826,
          "durationTicks": 96,
          "midi": 46,
          "name": "A#2",
          "ticks": 64128,
          "time": 192.69228200000003,
          "velocity": 0.7559055118110236
        },
        {
          "duration": 0,
          "durationTicks": 0,
          "midi": 35,
          "name": "B1",
          "ticks": 64224,
          "time": 192.98074350000002,
          "velocity": 0.7559055118110236
        },
        {
          "duration": 0,
          "durationTicks": 0,
          "midi": 35,
          "name": "B1",
          "ticks": 64224,
          "time": 192.98074350000002,
          "velocity": 0.7559055118110236
        },
        {
          "duration": 0.28846150000001103,
          "durationTicks": 96,
          "midi": 35,
          "name": "B1",
          "ticks": 64224,
          "time": 192.98074350000002,
          "velocity": 0.7559055118110236
        },
        {
          "duration": 0.28846150000001103,
          "durationTicks": 96,
          "midi": 46,
          "name": "A#2",
          "ticks": 64224,
          "time": 192.98074350000002,
          "velocity": 0.7559055118110236
        },
        {
          "duration": 0,
          "durationTicks": 0,
          "midi": 38,
          "name": "D2",
          "ticks": 64320,
          "time": 193.26920500000003,
          "velocity": 0.7559055118110236
        },
        {
          "duration": 0.8653845000000047,
          "durationTicks": 288,
          "midi": 38,
          "name": "D2",
          "ticks": 64320,
          "time": 193.26920500000003,
          "velocity": 0.7559055118110236
        },
        {
          "duration": 0.28846150000001103,
          "durationTicks": 96,
          "midi": 46,
          "name": "A#2",
          "ticks": 64320,
          "time": 193.26920500000003,
          "velocity": 0.7559055118110236
        },
        {
          "duration": 0.2884614999999826,
          "durationTicks": 96,
          "midi": 46,
          "name": "A#2",
          "ticks": 64416,
          "time": 193.55766650000004,
          "velocity": 0.7559055118110236
        },
        {
          "duration": 0.28846150000001103,
          "durationTicks": 96,
          "midi": 46,
          "name": "A#2",
          "ticks": 64512,
          "time": 193.84612800000002,
          "velocity": 0.7559055118110236
        },
        {
          "duration": 0,
          "durationTicks": 0,
          "midi": 38,
          "name": "D2",
          "ticks": 64608,
          "time": 194.13458950000003,
          "velocity": 0.7559055118110236
        },
        {
          "duration": 0.8653845000000047,
          "durationTicks": 288,
          "midi": 38,
          "name": "D2",
          "ticks": 64608,
          "time": 194.13458950000003,
          "velocity": 0.7559055118110236
        },
        {
          "duration": 0.2884614999999826,
          "durationTicks": 96,
          "midi": 46,
          "name": "A#2",
          "ticks": 64608,
          "time": 194.13458950000003,
          "velocity": 0.7559055118110236
        },
        {
          "duration": 0,
          "durationTicks": 0,
          "midi": 35,
          "name": "B1",
          "ticks": 64656,
          "time": 194.27882025000002,
          "velocity": 0.7559055118110236
        },
        {
          "duration": 0,
          "durationTicks": 0,
          "midi": 35,
          "name": "B1",
          "ticks": 64656,
          "time": 194.27882025000002,
          "velocity": 0.7559055118110236
        },
        {
          "duration": 0.1442307499999913,
          "durationTicks": 48,
          "midi": 35,
          "name": "B1",
          "ticks": 64656,
          "time": 194.27882025000002,
          "velocity": 0.7559055118110236
        },
        {
          "duration": 0,
          "durationTicks": 0,
          "midi": 35,
          "name": "B1",
          "ticks": 64704,
          "time": 194.42305100000002,
          "velocity": 0.7559055118110236
        },
        {
          "duration": 0,
          "durationTicks": 0,
          "midi": 35,
          "name": "B1",
          "ticks": 64704,
          "time": 194.42305100000002,
          "velocity": 0.7559055118110236
        },
        {
          "duration": 0.28846150000001103,
          "durationTicks": 96,
          "midi": 35,
          "name": "B1",
          "ticks": 64704,
          "time": 194.42305100000002,
          "velocity": 0.7559055118110236
        },
        {
          "duration": 0.28846150000001103,
          "durationTicks": 96,
          "midi": 46,
          "name": "A#2",
          "ticks": 64704,
          "time": 194.42305100000002,
          "velocity": 0.7559055118110236
        },
        {
          "duration": 0,
          "durationTicks": 0,
          "midi": 35,
          "name": "B1",
          "ticks": 64800,
          "time": 194.71151250000003,
          "velocity": 0.7559055118110236
        },
        {
          "duration": 0,
          "durationTicks": 0,
          "midi": 35,
          "name": "B1",
          "ticks": 64800,
          "time": 194.71151250000003,
          "velocity": 0.7559055118110236
        },
        {
          "duration": 0.28846150000001103,
          "durationTicks": 96,
          "midi": 35,
          "name": "B1",
          "ticks": 64800,
          "time": 194.71151250000003,
          "velocity": 0.7559055118110236
        },
        {
          "duration": 0.28846150000001103,
          "durationTicks": 96,
          "midi": 46,
          "name": "A#2",
          "ticks": 64800,
          "time": 194.71151250000003,
          "velocity": 0.7559055118110236
        },
        {
          "duration": 0,
          "durationTicks": 0,
          "midi": 38,
          "name": "D2",
          "ticks": 64896,
          "time": 194.99997400000004,
          "velocity": 0.7559055118110236
        },
        {
          "duration": 0.8653844999999762,
          "durationTicks": 288,
          "midi": 38,
          "name": "D2",
          "ticks": 64896,
          "time": 194.99997400000004,
          "velocity": 0.7559055118110236
        },
        {
          "duration": 0.2884614999999826,
          "durationTicks": 96,
          "midi": 46,
          "name": "A#2",
          "ticks": 64896,
          "time": 194.99997400000004,
          "velocity": 0.7559055118110236
        },
        {
          "duration": 0,
          "durationTicks": 0,
          "midi": 35,
          "name": "B1",
          "ticks": 64944,
          "time": 195.14420475000003,
          "velocity": 0.7559055118110236
        },
        {
          "duration": 0,
          "durationTicks": 0,
          "midi": 35,
          "name": "B1",
          "ticks": 64944,
          "time": 195.14420475000003,
          "velocity": 0.7559055118110236
        },
        {
          "duration": 0.1442307499999913,
          "durationTicks": 48,
          "midi": 35,
          "name": "B1",
          "ticks": 64944,
          "time": 195.14420475000003,
          "velocity": 0.7559055118110236
        },
        {
          "duration": 0,
          "durationTicks": 0,
          "midi": 35,
          "name": "B1",
          "ticks": 64992,
          "time": 195.28843550000002,
          "velocity": 0.7559055118110236
        },
        {
          "duration": 0,
          "durationTicks": 0,
          "midi": 35,
          "name": "B1",
          "ticks": 64992,
          "time": 195.28843550000002,
          "velocity": 0.7559055118110236
        },
        {
          "duration": 0.28846150000001103,
          "durationTicks": 96,
          "midi": 35,
          "name": "B1",
          "ticks": 64992,
          "time": 195.28843550000002,
          "velocity": 0.7559055118110236
        },
        {
          "duration": 0.28846150000001103,
          "durationTicks": 96,
          "midi": 46,
          "name": "A#2",
          "ticks": 64992,
          "time": 195.28843550000002,
          "velocity": 0.7559055118110236
        },
        {
          "duration": 0,
          "durationTicks": 0,
          "midi": 35,
          "name": "B1",
          "ticks": 65088,
          "time": 195.57689700000003,
          "velocity": 0.7559055118110236
        },
        {
          "duration": 0,
          "durationTicks": 0,
          "midi": 35,
          "name": "B1",
          "ticks": 65088,
          "time": 195.57689700000003,
          "velocity": 0.7559055118110236
        },
        {
          "duration": 0.2884614999999826,
          "durationTicks": 96,
          "midi": 35,
          "name": "B1",
          "ticks": 65088,
          "time": 195.57689700000003,
          "velocity": 0.7559055118110236
        },
        {
          "duration": 0.2884614999999826,
          "durationTicks": 96,
          "midi": 46,
          "name": "A#2",
          "ticks": 65088,
          "time": 195.57689700000003,
          "velocity": 0.7559055118110236
        },
        {
          "duration": 0,
          "durationTicks": 0,
          "midi": 38,
          "name": "D2",
          "ticks": 65184,
          "time": 195.8653585,
          "velocity": 0.7559055118110236
        },
        {
          "duration": 0.5769230000000221,
          "durationTicks": 192,
          "midi": 38,
          "name": "D2",
          "ticks": 65184,
          "time": 195.8653585,
          "velocity": 0.7559055118110236
        },
        {
          "duration": 0.28846150000001103,
          "durationTicks": 96,
          "midi": 46,
          "name": "A#2",
          "ticks": 65184,
          "time": 195.8653585,
          "velocity": 0.7559055118110236
        },
        {
          "duration": 0,
          "durationTicks": 0,
          "midi": 35,
          "name": "B1",
          "ticks": 65280,
          "time": 196.15382000000002,
          "velocity": 0.7559055118110236
        },
        {
          "duration": 0,
          "durationTicks": 0,
          "midi": 35,
          "name": "B1",
          "ticks": 65280,
          "time": 196.15382000000002,
          "velocity": 0.7559055118110236
        },
        {
          "duration": 0.28846150000001103,
          "durationTicks": 96,
          "midi": 35,
          "name": "B1",
          "ticks": 65280,
          "time": 196.15382000000002,
          "velocity": 0.7559055118110236
        },
        {
          "duration": 0.28846150000001103,
          "durationTicks": 96,
          "midi": 46,
          "name": "A#2",
          "ticks": 65280,
          "time": 196.15382000000002,
          "velocity": 0.7559055118110236
        },
        {
          "duration": 0,
          "durationTicks": 0,
          "midi": 38,
          "name": "D2",
          "ticks": 65376,
          "time": 196.44228150000004,
          "velocity": 0.7559055118110236
        },
        {
          "duration": 0.8653844999999762,
          "durationTicks": 288,
          "midi": 38,
          "name": "D2",
          "ticks": 65376,
          "time": 196.44228150000004,
          "velocity": 0.7559055118110236
        },
        {
          "duration": 0.2884614999999826,
          "durationTicks": 96,
          "midi": 46,
          "name": "A#2",
          "ticks": 65376,
          "time": 196.44228150000004,
          "velocity": 0.7559055118110236
        },
        {
          "duration": 0,
          "durationTicks": 0,
          "midi": 35,
          "name": "B1",
          "ticks": 65424,
          "time": 196.58651225000003,
          "velocity": 0.7559055118110236
        },
        {
          "duration": 0,
          "durationTicks": 0,
          "midi": 35,
          "name": "B1",
          "ticks": 65424,
          "time": 196.58651225000003,
          "velocity": 0.7559055118110236
        },
        {
          "duration": 0.1442307499999913,
          "durationTicks": 48,
          "midi": 35,
          "name": "B1",
          "ticks": 65424,
          "time": 196.58651225000003,
          "velocity": 0.7559055118110236
        },
        {
          "duration": 0,
          "durationTicks": 0,
          "midi": 35,
          "name": "B1",
          "ticks": 65472,
          "time": 196.73074300000002,
          "velocity": 0.7559055118110236
        },
        {
          "duration": 0,
          "durationTicks": 0,
          "midi": 35,
          "name": "B1",
          "ticks": 65472,
          "time": 196.73074300000002,
          "velocity": 0.7559055118110236
        },
        {
          "duration": 0.28846150000001103,
          "durationTicks": 96,
          "midi": 35,
          "name": "B1",
          "ticks": 65472,
          "time": 196.73074300000002,
          "velocity": 0.7559055118110236
        },
        {
          "duration": 0.28846150000001103,
          "durationTicks": 96,
          "midi": 46,
          "name": "A#2",
          "ticks": 65472,
          "time": 196.73074300000002,
          "velocity": 0.7559055118110236
        },
        {
          "duration": 0,
          "durationTicks": 0,
          "midi": 35,
          "name": "B1",
          "ticks": 65568,
          "time": 197.01920450000003,
          "velocity": 0.7559055118110236
        },
        {
          "duration": 0,
          "durationTicks": 0,
          "midi": 35,
          "name": "B1",
          "ticks": 65568,
          "time": 197.01920450000003,
          "velocity": 0.7559055118110236
        },
        {
          "duration": 0.2884614999999826,
          "durationTicks": 96,
          "midi": 35,
          "name": "B1",
          "ticks": 65568,
          "time": 197.01920450000003,
          "velocity": 0.7559055118110236
        },
        {
          "duration": 0.2884614999999826,
          "durationTicks": 96,
          "midi": 46,
          "name": "A#2",
          "ticks": 65568,
          "time": 197.01920450000003,
          "velocity": 0.7559055118110236
        },
        {
          "duration": 0,
          "durationTicks": 0,
          "midi": 38,
          "name": "D2",
          "ticks": 65664,
          "time": 197.307666,
          "velocity": 0.7559055118110236
        },
        {
          "duration": 0.8653845000000047,
          "durationTicks": 288,
          "midi": 38,
          "name": "D2",
          "ticks": 65664,
          "time": 197.307666,
          "velocity": 0.7559055118110236
        },
        {
          "duration": 0.28846150000001103,
          "durationTicks": 96,
          "midi": 46,
          "name": "A#2",
          "ticks": 65664,
          "time": 197.307666,
          "velocity": 0.7559055118110236
        },
        {
          "duration": 0,
          "durationTicks": 0,
          "midi": 35,
          "name": "B1",
          "ticks": 65712,
          "time": 197.45189675000003,
          "velocity": 0.7559055118110236
        },
        {
          "duration": 0,
          "durationTicks": 0,
          "midi": 35,
          "name": "B1",
          "ticks": 65712,
          "time": 197.45189675000003,
          "velocity": 0.7559055118110236
        },
        {
          "duration": 0.1442307499999913,
          "durationTicks": 48,
          "midi": 35,
          "name": "B1",
          "ticks": 65712,
          "time": 197.45189675000003,
          "velocity": 0.7559055118110236
        },
        {
          "duration": 0,
          "durationTicks": 0,
          "midi": 35,
          "name": "B1",
          "ticks": 65760,
          "time": 197.59612750000002,
          "velocity": 0.7559055118110236
        },
        {
          "duration": 0,
          "durationTicks": 0,
          "midi": 35,
          "name": "B1",
          "ticks": 65760,
          "time": 197.59612750000002,
          "velocity": 0.7559055118110236
        },
        {
          "duration": 0.28846150000001103,
          "durationTicks": 96,
          "midi": 35,
          "name": "B1",
          "ticks": 65760,
          "time": 197.59612750000002,
          "velocity": 0.7559055118110236
        },
        {
          "duration": 0.28846150000001103,
          "durationTicks": 96,
          "midi": 46,
          "name": "A#2",
          "ticks": 65760,
          "time": 197.59612750000002,
          "velocity": 0.7559055118110236
        },
        {
          "duration": 0,
          "durationTicks": 0,
          "midi": 35,
          "name": "B1",
          "ticks": 65856,
          "time": 197.88458900000003,
          "velocity": 0.7559055118110236
        },
        {
          "duration": 0,
          "durationTicks": 0,
          "midi": 35,
          "name": "B1",
          "ticks": 65856,
          "time": 197.88458900000003,
          "velocity": 0.7559055118110236
        },
        {
          "duration": 0.2884614999999826,
          "durationTicks": 96,
          "midi": 35,
          "name": "B1",
          "ticks": 65856,
          "time": 197.88458900000003,
          "velocity": 0.7559055118110236
        },
        {
          "duration": 0.2884614999999826,
          "durationTicks": 96,
          "midi": 46,
          "name": "A#2",
          "ticks": 65856,
          "time": 197.88458900000003,
          "velocity": 0.7559055118110236
        },
        {
          "duration": 0,
          "durationTicks": 0,
          "midi": 38,
          "name": "D2",
          "ticks": 65952,
          "time": 198.17305050000002,
          "velocity": 0.7559055118110236
        },
        {
          "duration": 2.596153500000014,
          "durationTicks": 864,
          "midi": 38,
          "name": "D2",
          "ticks": 65952,
          "time": 198.17305050000002,
          "velocity": 0.7559055118110236
        },
        {
          "duration": 0.28846150000001103,
          "durationTicks": 96,
          "midi": 46,
          "name": "A#2",
          "ticks": 65952,
          "time": 198.17305050000002,
          "velocity": 0.7559055118110236
        },
        {
          "duration": 0,
          "durationTicks": 0,
          "midi": 35,
          "name": "B1",
          "ticks": 66048,
          "time": 198.46151200000003,
          "velocity": 0.7559055118110236
        },
        {
          "duration": 0,
          "durationTicks": 0,
          "midi": 35,
          "name": "B1",
          "ticks": 66048,
          "time": 198.46151200000003,
          "velocity": 0.7559055118110236
        },
        {
          "duration": 2.307692000000003,
          "durationTicks": 768,
          "midi": 35,
          "name": "B1",
          "ticks": 66048,
          "time": 198.46151200000003,
          "velocity": 0.7559055118110236
        },
        {
          "duration": 2.307692000000003,
          "durationTicks": 768,
          "midi": 46,
          "name": "A#2",
          "ticks": 66048,
          "time": 198.46151200000003,
          "velocity": 0.7559055118110236
        }
      ],
      "endOfTrackTicks": 66816
    }
  ]
}
