{
  "header": {
    "keySignatures": [],
    "meta": {
      "title": "Giorgio by Moroder",
      "artist": "Daft Punk",
      "creator": "unknown"
    },
    "name": "Track 1",
    "ppq": 960,
    "tempos": [
      {
        "bpm": 113.00009605008164,
        "ticks": 0
      }
    ],
    "timeSignatures": []
  },
  "tracks": [
    {
      "channel": 0,
      "controlChanges": {},
      "pitchBends": [],
      "instrument": {
        "family": "piano",
        "number": 0,
        "name": "acoustic grand piano"
      },
      "name": "Track 1",
      "notes": [],
      "endOfTrackTicks": 245760
    },
    {
      "channel": 0,
      "controlChanges": {},
      "pitchBends": [],
      "instrument": {
        "family": "bass",
        "number": 38,
        "name": "synth bass 1"
      },
      "name": "",
      "notes": [
        {
          "duration": 0.13274325,
          "durationTicks": 240,
          "midi": 57,
          "name": "A3",
          "ticks": 0,
          "time": 0,
          "velocity": 0.5039370078740157
        },
        {
          "duration": 0.13274325,
          "durationTicks": 240,
          "midi": 45,
          "name": "A2",
          "ticks": 240,
          "time": 0.13274325,
          "velocity": 0.5039370078740157
        },
        {
          "duration": 0.13274325000000003,
          "durationTicks": 240,
          "midi": 60,
          "name": "C4",
          "ticks": 480,
          "time": 0.2654865,
          "velocity": 0.5039370078740157
        },
        {
          "duration": 0.13274324999999998,
          "durationTicks": 240,
          "midi": 45,
          "name": "A2",
          "ticks": 720,
          "time": 0.39822975000000005,
          "velocity": 0.5039370078740157
        },
        {
          "duration": 0.13274324999999998,
          "durationTicks": 240,
          "midi": 59,
          "name": "B3",
          "ticks": 960,
          "time": 0.530973,
          "velocity": 0.5039370078740157
        },
        {
          "duration": 0.1327432500000001,
          "durationTicks": 240,
          "midi": 45,
          "name": "A2",
          "ticks": 1200,
          "time": 0.66371625,
          "velocity": 0.5039370078740157
        },
        {
          "duration": 0.13274324999999998,
          "durationTicks": 240,
          "midi": 60,
          "name": "C4",
          "ticks": 1440,
          "time": 0.7964595000000001,
          "velocity": 0.5039370078740157
        },
        {
          "duration": 0.13274324999999998,
          "durationTicks": 240,
          "midi": 64,
          "name": "E4",
          "ticks": 1680,
          "time": 0.9292027500000001,
          "velocity": 0.5039370078740157
        },
        {
          "duration": 0.1327432500000001,
          "durationTicks": 240,
          "midi": 45,
          "name": "A2",
          "ticks": 1920,
          "time": 1.061946,
          "velocity": 0.5039370078740157
        },
        {
          "duration": 0.13274324999999987,
          "durationTicks": 240,
          "midi": 57,
          "name": "A3",
          "ticks": 2160,
          "time": 1.1946892500000001,
          "velocity": 0.5039370078740157
        },
        {
          "duration": 0.1327432500000001,
          "durationTicks": 240,
          "midi": 60,
          "name": "C4",
          "ticks": 2400,
          "time": 1.3274325,
          "velocity": 0.5039370078740157
        },
        {
          "duration": 0.1327432500000001,
          "durationTicks": 240,
          "midi": 45,
          "name": "A2",
          "ticks": 2640,
          "time": 1.46017575,
          "velocity": 0.5039370078740157
        },
        {
          "duration": 0.13274324999999987,
          "durationTicks": 240,
          "midi": 59,
          "name": "B3",
          "ticks": 2880,
          "time": 1.5929190000000002,
          "velocity": 0.5039370078740157
        },
        {
          "duration": 0.1327432500000001,
          "durationTicks": 240,
          "midi": 45,
          "name": "A2",
          "ticks": 3120,
          "time": 1.72566225,
          "velocity": 0.5039370078740157
        },
        {
          "duration": 0.13274324999999987,
          "durationTicks": 240,
          "midi": 60,
          "name": "C4",
          "ticks": 3360,
          "time": 1.8584055000000002,
          "velocity": 0.5039370078740157
        },
        {
          "duration": 0.1327432500000001,
          "durationTicks": 240,
          "midi": 57,
          "name": "A3",
          "ticks": 3600,
          "time": 1.99114875,
          "velocity": 0.5039370078740157
        },
        {
          "duration": 0.13274324999999987,
          "durationTicks": 240,
          "midi": 45,
          "name": "A2",
          "ticks": 3840,
          "time": 2.123892,
          "velocity": 0.5039370078740157
        },
        {
          "duration": 0.1327432500000003,
          "durationTicks": 240,
          "midi": 57,
          "name": "A3",
          "ticks": 4080,
          "time": 2.25663525,
          "velocity": 0.5039370078740157
        },
        {
          "duration": 0.13274324999999987,
          "durationTicks": 240,
          "midi": 60,
          "name": "C4",
          "ticks": 4320,
          "time": 2.3893785000000003,
          "velocity": 0.5039370078740157
        },
        {
          "duration": 0.13274324999999987,
          "durationTicks": 240,
          "midi": 45,
          "name": "A2",
          "ticks": 4560,
          "time": 2.52212175,
          "velocity": 0.5039370078740157
        },
        {
          "duration": 0.1327432500000003,
          "durationTicks": 240,
          "midi": 59,
          "name": "B3",
          "ticks": 4800,
          "time": 2.654865,
          "velocity": 0.5039370078740157
        },
        {
          "duration": 0.13274324999999987,
          "durationTicks": 240,
          "midi": 45,
          "name": "A2",
          "ticks": 5040,
          "time": 2.7876082500000003,
          "velocity": 0.5039370078740157
        },
        {
          "duration": 0.13274324999999987,
          "durationTicks": 240,
          "midi": 60,
          "name": "C4",
          "ticks": 5280,
          "time": 2.9203515,
          "velocity": 0.5039370078740157
        },
        {
          "duration": 0.1327432500000003,
          "durationTicks": 240,
          "midi": 64,
          "name": "E4",
          "ticks": 5520,
          "time": 3.05309475,
          "velocity": 0.5039370078740157
        },
        {
          "duration": 0.13274324999999987,
          "durationTicks": 240,
          "midi": 45,
          "name": "A2",
          "ticks": 5760,
          "time": 3.1858380000000004,
          "velocity": 0.5039370078740157
        },
        {
          "duration": 0.13274324999999987,
          "durationTicks": 240,
          "midi": 57,
          "name": "A3",
          "ticks": 6000,
          "time": 3.3185812500000003,
          "velocity": 0.5039370078740157
        },
        {
          "duration": 0.13274324999999987,
          "durationTicks": 240,
          "midi": 60,
          "name": "C4",
          "ticks": 6240,
          "time": 3.4513245,
          "velocity": 0.5039370078740157
        },
        {
          "duration": 0.1327432500000003,
          "durationTicks": 240,
          "midi": 45,
          "name": "A2",
          "ticks": 6480,
          "time": 3.58406775,
          "velocity": 0.5039370078740157
        },
        {
          "duration": 0.13274324999999987,
          "durationTicks": 240,
          "midi": 59,
          "name": "B3",
          "ticks": 6720,
          "time": 3.7168110000000003,
          "velocity": 0.5039370078740157
        },
        {
          "duration": 0.13274324999999987,
          "durationTicks": 240,
          "midi": 45,
          "name": "A2",
          "ticks": 6960,
          "time": 3.84955425,
          "velocity": 0.5039370078740157
        },
        {
          "duration": 0.1327432500000003,
          "durationTicks": 240,
          "midi": 60,
          "name": "C4",
          "ticks": 7200,
          "time": 3.9822975,
          "velocity": 0.5039370078740157
        },
        {
          "duration": 0.13274324999999987,
          "durationTicks": 240,
          "midi": 57,
          "name": "A3",
          "ticks": 7440,
          "time": 4.11504075,
          "velocity": 0.5039370078740157
        },
        {
          "duration": 0.13274324999999987,
          "durationTicks": 240,
          "midi": 52,
          "name": "E3",
          "ticks": 7680,
          "time": 4.247784,
          "velocity": 0.5039370078740157
        },
        {
          "duration": 0.13274324999999987,
          "durationTicks": 240,
          "midi": 40,
          "name": "E2",
          "ticks": 7920,
          "time": 4.38052725,
          "velocity": 0.5039370078740157
        },
        {
          "duration": 0.13274324999999987,
          "durationTicks": 240,
          "midi": 55,
          "name": "G3",
          "ticks": 8160,
          "time": 4.5132705,
          "velocity": 0.5039370078740157
        },
        {
          "duration": 0.13274325000000076,
          "durationTicks": 240,
          "midi": 40,
          "name": "E2",
          "ticks": 8400,
          "time": 4.64601375,
          "velocity": 0.5039370078740157
        },
        {
          "duration": 0.13274324999999987,
          "durationTicks": 240,
          "midi": 54,
          "name": "F#3",
          "ticks": 8640,
          "time": 4.778757000000001,
          "velocity": 0.5039370078740157
        },
        {
          "duration": 0.13274324999999987,
          "durationTicks": 240,
          "midi": 40,
          "name": "E2",
          "ticks": 8880,
          "time": 4.9115002500000005,
          "velocity": 0.5039370078740157
        },
        {
          "duration": 0.13274324999999987,
          "durationTicks": 240,
          "midi": 55,
          "name": "G3",
          "ticks": 9120,
          "time": 5.0442435,
          "velocity": 0.5039370078740157
        },
        {
          "duration": 0.13274324999999987,
          "durationTicks": 240,
          "midi": 59,
          "name": "B3",
          "ticks": 9360,
          "time": 5.17698675,
          "velocity": 0.5039370078740157
        },
        {
          "duration": 0.13274324999999987,
          "durationTicks": 240,
          "midi": 40,
          "name": "E2",
          "ticks": 9600,
          "time": 5.30973,
          "velocity": 0.5039370078740157
        },
        {
          "duration": 0.13274325000000076,
          "durationTicks": 240,
          "midi": 52,
          "name": "E3",
          "ticks": 9840,
          "time": 5.44247325,
          "velocity": 0.5039370078740157
        },
        {
          "duration": 0.13274324999999987,
          "durationTicks": 240,
          "midi": 55,
          "name": "G3",
          "ticks": 10080,
          "time": 5.575216500000001,
          "velocity": 0.5039370078740157
        },
        {
          "duration": 0.13274324999999987,
          "durationTicks": 240,
          "midi": 40,
          "name": "E2",
          "ticks": 10320,
          "time": 5.7079597500000006,
          "velocity": 0.5039370078740157
        },
        {
          "duration": 0.13274324999999987,
          "durationTicks": 240,
          "midi": 54,
          "name": "F#3",
          "ticks": 10560,
          "time": 5.840703,
          "velocity": 0.5039370078740157
        },
        {
          "duration": 0.13274324999999987,
          "durationTicks": 240,
          "midi": 40,
          "name": "E2",
          "ticks": 10800,
          "time": 5.97344625,
          "velocity": 0.5039370078740157
        },
        {
          "duration": 0.13274324999999987,
          "durationTicks": 240,
          "midi": 55,
          "name": "G3",
          "ticks": 11040,
          "time": 6.1061895,
          "velocity": 0.5039370078740157
        },
        {
          "duration": 0.13274325000000076,
          "durationTicks": 240,
          "midi": 52,
          "name": "E3",
          "ticks": 11280,
          "time": 6.23893275,
          "velocity": 0.5039370078740157
        },
        {
          "duration": 0.13274324999999987,
          "durationTicks": 240,
          "midi": 40,
          "name": "E2",
          "ticks": 11520,
          "time": 6.371676000000001,
          "velocity": 0.5039370078740157
        },
        {
          "duration": 0.13274324999999987,
          "durationTicks": 240,
          "midi": 52,
          "name": "E3",
          "ticks": 11760,
          "time": 6.504419250000001,
          "velocity": 0.5039370078740157
        },
        {
          "duration": 0.13274324999999987,
          "durationTicks": 240,
          "midi": 55,
          "name": "G3",
          "ticks": 12000,
          "time": 6.6371625000000005,
          "velocity": 0.5039370078740157
        },
        {
          "duration": 0.13274324999999987,
          "durationTicks": 240,
          "midi": 40,
          "name": "E2",
          "ticks": 12240,
          "time": 6.76990575,
          "velocity": 0.5039370078740157
        },
        {
          "duration": 0.13274324999999987,
          "durationTicks": 240,
          "midi": 54,
          "name": "F#3",
          "ticks": 12480,
          "time": 6.902649,
          "velocity": 0.5039370078740157
        },
        {
          "duration": 0.13274324999999987,
          "durationTicks": 240,
          "midi": 40,
          "name": "E2",
          "ticks": 12720,
          "time": 7.03539225,
          "velocity": 0.5039370078740157
        },
        {
          "duration": 0.13274325000000076,
          "durationTicks": 240,
          "midi": 55,
          "name": "G3",
          "ticks": 12960,
          "time": 7.1681355,
          "velocity": 0.5039370078740157
        },
        {
          "duration": 0.13274324999999987,
          "durationTicks": 240,
          "midi": 59,
          "name": "B3",
          "ticks": 13200,
          "time": 7.300878750000001,
          "velocity": 0.5039370078740157
        },
        {
          "duration": 0.13274324999999987,
          "durationTicks": 240,
          "midi": 40,
          "name": "E2",
          "ticks": 13440,
          "time": 7.433622000000001,
          "velocity": 0.5039370078740157
        },
        {
          "duration": 0.13274324999999987,
          "durationTicks": 240,
          "midi": 52,
          "name": "E3",
          "ticks": 13680,
          "time": 7.5663652500000005,
          "velocity": 0.5039370078740157
        },
        {
          "duration": 0.13274324999999987,
          "durationTicks": 240,
          "midi": 55,
          "name": "G3",
          "ticks": 13920,
          "time": 7.6991085,
          "velocity": 0.5039370078740157
        },
        {
          "duration": 0.13274324999999987,
          "durationTicks": 240,
          "midi": 40,
          "name": "E2",
          "ticks": 14160,
          "time": 7.83185175,
          "velocity": 0.5039370078740157
        },
        {
          "duration": 0.13274324999999987,
          "durationTicks": 240,
          "midi": 54,
          "name": "F#3",
          "ticks": 14400,
          "time": 7.964595,
          "velocity": 0.5039370078740157
        },
        {
          "duration": 0.13274325000000076,
          "durationTicks": 240,
          "midi": 40,
          "name": "E2",
          "ticks": 14640,
          "time": 8.09733825,
          "velocity": 0.5039370078740157
        },
        {
          "duration": 0.13274324999999898,
          "durationTicks": 240,
          "midi": 55,
          "name": "G3",
          "ticks": 14880,
          "time": 8.2300815,
          "velocity": 0.5039370078740157
        },
        {
          "duration": 0.13274325000000076,
          "durationTicks": 240,
          "midi": 52,
          "name": "E3",
          "ticks": 15120,
          "time": 8.36282475,
          "velocity": 0.5039370078740157
        },
        {
          "duration": 0.13274325000000076,
          "durationTicks": 240,
          "midi": 57,
          "name": "A3",
          "ticks": 15360,
          "time": 8.495568,
          "velocity": 0.5039370078740157
        },
        {
          "duration": 0.13274324999999898,
          "durationTicks": 240,
          "midi": 45,
          "name": "A2",
          "ticks": 15600,
          "time": 8.628311250000001,
          "velocity": 0.5039370078740157
        },
        {
          "duration": 0.13274325000000076,
          "durationTicks": 240,
          "midi": 60,
          "name": "C4",
          "ticks": 15840,
          "time": 8.7610545,
          "velocity": 0.5039370078740157
        },
        {
          "duration": 0.13274324999999898,
          "durationTicks": 240,
          "midi": 45,
          "name": "A2",
          "ticks": 16080,
          "time": 8.893797750000001,
          "velocity": 0.5039370078740157
        },
        {
          "duration": 0.13274325000000076,
          "durationTicks": 240,
          "midi": 59,
          "name": "B3",
          "ticks": 16320,
          "time": 9.026541,
          "velocity": 0.5039370078740157
        },
        {
          "duration": 0.13274324999999898,
          "durationTicks": 240,
          "midi": 45,
          "name": "A2",
          "ticks": 16560,
          "time": 9.15928425,
          "velocity": 0.5039370078740157
        },
        {
          "duration": 0.13274325000000076,
          "durationTicks": 240,
          "midi": 60,
          "name": "C4",
          "ticks": 16800,
          "time": 9.2920275,
          "velocity": 0.5039370078740157
        },
        {
          "duration": 0.13274325000000076,
          "durationTicks": 240,
          "midi": 64,
          "name": "E4",
          "ticks": 17040,
          "time": 9.42477075,
          "velocity": 0.5039370078740157
        },
        {
          "duration": 0.13274324999999898,
          "durationTicks": 240,
          "midi": 45,
          "name": "A2",
          "ticks": 17280,
          "time": 9.557514000000001,
          "velocity": 0.5039370078740157
        },
        {
          "duration": 0.13274325000000076,
          "durationTicks": 240,
          "midi": 57,
          "name": "A3",
          "ticks": 17520,
          "time": 9.69025725,
          "velocity": 0.5039370078740157
        },
        {
          "duration": 0.13274324999999898,
          "durationTicks": 240,
          "midi": 60,
          "name": "C4",
          "ticks": 17760,
          "time": 9.823000500000001,
          "velocity": 0.5039370078740157
        },
        {
          "duration": 0.13274325000000076,
          "durationTicks": 240,
          "midi": 45,
          "name": "A2",
          "ticks": 18000,
          "time": 9.95574375,
          "velocity": 0.5039370078740157
        },
        {
          "duration": 0.13274325000000076,
          "durationTicks": 240,
          "midi": 59,
          "name": "B3",
          "ticks": 18240,
          "time": 10.088487,
          "velocity": 0.5039370078740157
        },
        {
          "duration": 0.13274324999999898,
          "durationTicks": 240,
          "midi": 45,
          "name": "A2",
          "ticks": 18480,
          "time": 10.221230250000001,
          "velocity": 0.5039370078740157
        },
        {
          "duration": 0.13274325000000076,
          "durationTicks": 240,
          "midi": 60,
          "name": "C4",
          "ticks": 18720,
          "time": 10.3539735,
          "velocity": 0.5039370078740157
        },
        {
          "duration": 0.13274324999999898,
          "durationTicks": 240,
          "midi": 57,
          "name": "A3",
          "ticks": 18960,
          "time": 10.486716750000001,
          "velocity": 0.5039370078740157
        },
        {
          "duration": 0.13274325000000076,
          "durationTicks": 240,
          "midi": 45,
          "name": "A2",
          "ticks": 19200,
          "time": 10.61946,
          "velocity": 0.5039370078740157
        },
        {
          "duration": 0.13274324999999898,
          "durationTicks": 240,
          "midi": 57,
          "name": "A3",
          "ticks": 19440,
          "time": 10.75220325,
          "velocity": 0.5039370078740157
        },
        {
          "duration": 0.13274325000000076,
          "durationTicks": 240,
          "midi": 60,
          "name": "C4",
          "ticks": 19680,
          "time": 10.8849465,
          "velocity": 0.5039370078740157
        },
        {
          "duration": 0.13274325000000076,
          "durationTicks": 240,
          "midi": 45,
          "name": "A2",
          "ticks": 19920,
          "time": 11.01768975,
          "velocity": 0.5039370078740157
        },
        {
          "duration": 0.13274324999999898,
          "durationTicks": 240,
          "midi": 59,
          "name": "B3",
          "ticks": 20160,
          "time": 11.150433000000001,
          "velocity": 0.5039370078740157
        },
        {
          "duration": 0.13274325000000076,
          "durationTicks": 240,
          "midi": 45,
          "name": "A2",
          "ticks": 20400,
          "time": 11.28317625,
          "velocity": 0.5039370078740157
        },
        {
          "duration": 0.13274324999999898,
          "durationTicks": 240,
          "midi": 60,
          "name": "C4",
          "ticks": 20640,
          "time": 11.415919500000001,
          "velocity": 0.5039370078740157
        },
        {
          "duration": 0.13274325000000076,
          "durationTicks": 240,
          "midi": 64,
          "name": "E4",
          "ticks": 20880,
          "time": 11.54866275,
          "velocity": 0.5039370078740157
        },
        {
          "duration": 0.13274324999999898,
          "durationTicks": 240,
          "midi": 45,
          "name": "A2",
          "ticks": 21120,
          "time": 11.681406,
          "velocity": 0.5039370078740157
        },
        {
          "duration": 0.13274325000000076,
          "durationTicks": 240,
          "midi": 57,
          "name": "A3",
          "ticks": 21360,
          "time": 11.81414925,
          "velocity": 0.5039370078740157
        },
        {
          "duration": 0.13274325000000076,
          "durationTicks": 240,
          "midi": 60,
          "name": "C4",
          "ticks": 21600,
          "time": 11.9468925,
          "velocity": 0.5039370078740157
        },
        {
          "duration": 0.13274324999999898,
          "durationTicks": 240,
          "midi": 45,
          "name": "A2",
          "ticks": 21840,
          "time": 12.079635750000001,
          "velocity": 0.5039370078740157
        },
        {
          "duration": 0.13274325000000076,
          "durationTicks": 240,
          "midi": 59,
          "name": "B3",
          "ticks": 22080,
          "time": 12.212379,
          "velocity": 0.5039370078740157
        },
        {
          "duration": 0.13274324999999898,
          "durationTicks": 240,
          "midi": 45,
          "name": "A2",
          "ticks": 22320,
          "time": 12.345122250000001,
          "velocity": 0.5039370078740157
        },
        {
          "duration": 0.13274325000000076,
          "durationTicks": 240,
          "midi": 60,
          "name": "C4",
          "ticks": 22560,
          "time": 12.4778655,
          "velocity": 0.5039370078740157
        },
        {
          "duration": 0.13274325000000076,
          "durationTicks": 240,
          "midi": 57,
          "name": "A3",
          "ticks": 22800,
          "time": 12.61060875,
          "velocity": 0.5039370078740157
        },
        {
          "duration": 0.13274324999999898,
          "durationTicks": 240,
          "midi": 52,
          "name": "E3",
          "ticks": 23040,
          "time": 12.743352000000002,
          "velocity": 0.5039370078740157
        },
        {
          "duration": 0.13274325000000076,
          "durationTicks": 240,
          "midi": 40,
          "name": "E2",
          "ticks": 23280,
          "time": 12.87609525,
          "velocity": 0.5039370078740157
        },
        {
          "duration": 0.13274324999999898,
          "durationTicks": 240,
          "midi": 55,
          "name": "G3",
          "ticks": 23520,
          "time": 13.008838500000001,
          "velocity": 0.5039370078740157
        },
        {
          "duration": 0.13274325000000076,
          "durationTicks": 240,
          "midi": 40,
          "name": "E2",
          "ticks": 23760,
          "time": 13.14158175,
          "velocity": 0.5039370078740157
        },
        {
          "duration": 0.13274324999999898,
          "durationTicks": 240,
          "midi": 54,
          "name": "F#3",
          "ticks": 24000,
          "time": 13.274325000000001,
          "velocity": 0.5039370078740157
        },
        {
          "duration": 0.13274325000000076,
          "durationTicks": 240,
          "midi": 40,
          "name": "E2",
          "ticks": 24240,
          "time": 13.40706825,
          "velocity": 0.5039370078740157
        },
        {
          "duration": 0.13274325000000076,
          "durationTicks": 240,
          "midi": 55,
          "name": "G3",
          "ticks": 24480,
          "time": 13.5398115,
          "velocity": 0.5039370078740157
        },
        {
          "duration": 0.13274324999999898,
          "durationTicks": 240,
          "midi": 59,
          "name": "B3",
          "ticks": 24720,
          "time": 13.672554750000002,
          "velocity": 0.5039370078740157
        },
        {
          "duration": 0.13274325000000076,
          "durationTicks": 240,
          "midi": 40,
          "name": "E2",
          "ticks": 24960,
          "time": 13.805298,
          "velocity": 0.5039370078740157
        },
        {
          "duration": 0.13274324999999898,
          "durationTicks": 240,
          "midi": 52,
          "name": "E3",
          "ticks": 25200,
          "time": 13.938041250000001,
          "velocity": 0.5039370078740157
        },
        {
          "duration": 0.13274325000000076,
          "durationTicks": 240,
          "midi": 55,
          "name": "G3",
          "ticks": 25440,
          "time": 14.0707845,
          "velocity": 0.5039370078740157
        },
        {
          "duration": 0.13274324999999898,
          "durationTicks": 240,
          "midi": 40,
          "name": "E2",
          "ticks": 25680,
          "time": 14.203527750000001,
          "velocity": 0.5039370078740157
        },
        {
          "duration": 0.13274325000000076,
          "durationTicks": 240,
          "midi": 54,
          "name": "F#3",
          "ticks": 25920,
          "time": 14.336271,
          "velocity": 0.5039370078740157
        },
        {
          "duration": 0.13274325000000076,
          "durationTicks": 240,
          "midi": 40,
          "name": "E2",
          "ticks": 26160,
          "time": 14.46901425,
          "velocity": 0.5039370078740157
        },
        {
          "duration": 0.13274324999999898,
          "durationTicks": 240,
          "midi": 55,
          "name": "G3",
          "ticks": 26400,
          "time": 14.601757500000001,
          "velocity": 0.5039370078740157
        },
        {
          "duration": 0.13274325000000076,
          "durationTicks": 240,
          "midi": 52,
          "name": "E3",
          "ticks": 26640,
          "time": 14.73450075,
          "velocity": 0.5039370078740157
        },
        {
          "duration": 0.13274324999999898,
          "durationTicks": 240,
          "midi": 40,
          "name": "E2",
          "ticks": 26880,
          "time": 14.867244000000001,
          "velocity": 0.5039370078740157
        },
        {
          "duration": 0.13274325000000076,
          "durationTicks": 240,
          "midi": 52,
          "name": "E3",
          "ticks": 27120,
          "time": 14.99998725,
          "velocity": 0.5039370078740157
        },
        {
          "duration": 0.13274324999999898,
          "durationTicks": 240,
          "midi": 55,
          "name": "G3",
          "ticks": 27360,
          "time": 15.132730500000001,
          "velocity": 0.5039370078740157
        },
        {
          "duration": 0.13274325000000076,
          "durationTicks": 240,
          "midi": 40,
          "name": "E2",
          "ticks": 27600,
          "time": 15.26547375,
          "velocity": 0.5039370078740157
        },
        {
          "duration": 0.13274325000000076,
          "durationTicks": 240,
          "midi": 54,
          "name": "F#3",
          "ticks": 27840,
          "time": 15.398217,
          "velocity": 0.5039370078740157
        },
        {
          "duration": 0.13274324999999898,
          "durationTicks": 240,
          "midi": 40,
          "name": "E2",
          "ticks": 28080,
          "time": 15.530960250000001,
          "velocity": 0.5039370078740157
        },
        {
          "duration": 0.13274325000000076,
          "durationTicks": 240,
          "midi": 55,
          "name": "G3",
          "ticks": 28320,
          "time": 15.6637035,
          "velocity": 0.5039370078740157
        },
        {
          "duration": 0.13274324999999898,
          "durationTicks": 240,
          "midi": 59,
          "name": "B3",
          "ticks": 28560,
          "time": 15.796446750000001,
          "velocity": 0.5039370078740157
        },
        {
          "duration": 0.13274324999999898,
          "durationTicks": 240,
          "midi": 40,
          "name": "E2",
          "ticks": 28800,
          "time": 15.92919,
          "velocity": 0.5039370078740157
        },
        {
          "duration": 0.13274325000000076,
          "durationTicks": 240,
          "midi": 52,
          "name": "E3",
          "ticks": 29040,
          "time": 16.06193325,
          "velocity": 0.5039370078740157
        },
        {
          "duration": 0.13274325000000076,
          "durationTicks": 240,
          "midi": 55,
          "name": "G3",
          "ticks": 29280,
          "time": 16.1946765,
          "velocity": 0.5039370078740157
        },
        {
          "duration": 0.13274325000000076,
          "durationTicks": 240,
          "midi": 40,
          "name": "E2",
          "ticks": 29520,
          "time": 16.32741975,
          "velocity": 0.5039370078740157
        },
        {
          "duration": 0.13274325000000076,
          "durationTicks": 240,
          "midi": 54,
          "name": "F#3",
          "ticks": 29760,
          "time": 16.460163,
          "velocity": 0.5039370078740157
        },
        {
          "duration": 0.1327432499999972,
          "durationTicks": 240,
          "midi": 40,
          "name": "E2",
          "ticks": 30000,
          "time": 16.592906250000002,
          "velocity": 0.5039370078740157
        },
        {
          "duration": 0.13274325000000076,
          "durationTicks": 240,
          "midi": 55,
          "name": "G3",
          "ticks": 30240,
          "time": 16.7256495,
          "velocity": 0.5039370078740157
        },
        {
          "duration": 0.13274325000000076,
          "durationTicks": 240,
          "midi": 52,
          "name": "E3",
          "ticks": 30480,
          "time": 16.85839275,
          "velocity": 0.5039370078740157
        },
        {
          "duration": 0.13274325000000076,
          "durationTicks": 240,
          "midi": 53,
          "name": "F3",
          "ticks": 30720,
          "time": 16.991136,
          "velocity": 0.5039370078740157
        },
        {
          "duration": 0.13274325000000076,
          "durationTicks": 240,
          "midi": 53,
          "name": "F3",
          "ticks": 30960,
          "time": 17.12387925,
          "velocity": 0.5039370078740157
        },
        {
          "duration": 0.1327432499999972,
          "durationTicks": 240,
          "midi": 57,
          "name": "A3",
          "ticks": 31200,
          "time": 17.256622500000002,
          "velocity": 0.5039370078740157
        },
        {
          "duration": 0.13274325000000076,
          "durationTicks": 240,
          "midi": 53,
          "name": "F3",
          "ticks": 31440,
          "time": 17.38936575,
          "velocity": 0.5039370078740157
        },
        {
          "duration": 0.13274325000000076,
          "durationTicks": 240,
          "midi": 55,
          "name": "G3",
          "ticks": 31680,
          "time": 17.522109,
          "velocity": 0.5039370078740157
        },
        {
          "duration": 0.13274325000000076,
          "durationTicks": 240,
          "midi": 53,
          "name": "F3",
          "ticks": 31920,
          "time": 17.65485225,
          "velocity": 0.5039370078740157
        },
        {
          "duration": 0.13274325000000076,
          "durationTicks": 240,
          "midi": 57,
          "name": "A3",
          "ticks": 32160,
          "time": 17.787595500000002,
          "velocity": 0.5039370078740157
        },
        {
          "duration": 0.1327432499999972,
          "durationTicks": 240,
          "midi": 60,
          "name": "C4",
          "ticks": 32400,
          "time": 17.920338750000003,
          "velocity": 0.5039370078740157
        },
        {
          "duration": 0.13274325000000076,
          "durationTicks": 240,
          "midi": 53,
          "name": "F3",
          "ticks": 32640,
          "time": 18.053082,
          "velocity": 0.5039370078740157
        },
        {
          "duration": 0.13274325000000076,
          "durationTicks": 240,
          "midi": 53,
          "name": "F3",
          "ticks": 32880,
          "time": 18.18582525,
          "velocity": 0.5039370078740157
        },
        {
          "duration": 0.13274325000000076,
          "durationTicks": 240,
          "midi": 57,
          "name": "A3",
          "ticks": 33120,
          "time": 18.3185685,
          "velocity": 0.5039370078740157
        },
        {
          "duration": 0.1327432499999972,
          "durationTicks": 240,
          "midi": 53,
          "name": "F3",
          "ticks": 33360,
          "time": 18.451311750000002,
          "velocity": 0.5039370078740157
        },
        {
          "duration": 0.13274325000000076,
          "durationTicks": 240,
          "midi": 55,
          "name": "G3",
          "ticks": 33600,
          "time": 18.584055,
          "velocity": 0.5039370078740157
        },
        {
          "duration": 0.13274325000000076,
          "durationTicks": 240,
          "midi": 53,
          "name": "F3",
          "ticks": 33840,
          "time": 18.71679825,
          "velocity": 0.5039370078740157
        },
        {
          "duration": 0.13274325000000076,
          "durationTicks": 240,
          "midi": 57,
          "name": "A3",
          "ticks": 34080,
          "time": 18.8495415,
          "velocity": 0.5039370078740157
        },
        {
          "duration": 0.13274325000000076,
          "durationTicks": 240,
          "midi": 53,
          "name": "F3",
          "ticks": 34320,
          "time": 18.98228475,
          "velocity": 0.5039370078740157
        },
        {
          "duration": 0.1327432499999972,
          "durationTicks": 240,
          "midi": 55,
          "name": "G3",
          "ticks": 34560,
          "time": 19.115028000000002,
          "velocity": 0.5039370078740157
        },
        {
          "duration": 0.13274325000000076,
          "durationTicks": 240,
          "midi": 55,
          "name": "G3",
          "ticks": 34800,
          "time": 19.24777125,
          "velocity": 0.5039370078740157
        },
        {
          "duration": 0.13274325000000076,
          "durationTicks": 240,
          "midi": 59,
          "name": "B3",
          "ticks": 35040,
          "time": 19.3805145,
          "velocity": 0.5039370078740157
        },
        {
          "duration": 0.13274325000000076,
          "durationTicks": 240,
          "midi": 55,
          "name": "G3",
          "ticks": 35280,
          "time": 19.51325775,
          "velocity": 0.5039370078740157
        },
        {
          "duration": 0.13274325000000076,
          "durationTicks": 240,
          "midi": 57,
          "name": "A3",
          "ticks": 35520,
          "time": 19.646001000000002,
          "velocity": 0.5039370078740157
        },
        {
          "duration": 0.1327432499999972,
          "durationTicks": 240,
          "midi": 55,
          "name": "G3",
          "ticks": 35760,
          "time": 19.778744250000003,
          "velocity": 0.5039370078740157
        },
        {
          "duration": 0.13274325000000076,
          "durationTicks": 240,
          "midi": 59,
          "name": "B3",
          "ticks": 36000,
          "time": 19.9114875,
          "velocity": 0.5039370078740157
        },
        {
          "duration": 0.13274325000000076,
          "durationTicks": 240,
          "midi": 62,
          "name": "D4",
          "ticks": 36240,
          "time": 20.04423075,
          "velocity": 0.5039370078740157
        },
        {
          "duration": 0.13274325000000076,
          "durationTicks": 240,
          "midi": 55,
          "name": "G3",
          "ticks": 36480,
          "time": 20.176974,
          "velocity": 0.5039370078740157
        },
        {
          "duration": 0.13274325000000076,
          "durationTicks": 240,
          "midi": 55,
          "name": "G3",
          "ticks": 36720,
          "time": 20.309717250000002,
          "velocity": 0.5039370078740157
        },
        {
          "duration": 0.1327432499999972,
          "durationTicks": 240,
          "midi": 59,
          "name": "B3",
          "ticks": 36960,
          "time": 20.442460500000003,
          "velocity": 0.5039370078740157
        },
        {
          "duration": 0.13274325000000076,
          "durationTicks": 240,
          "midi": 55,
          "name": "G3",
          "ticks": 37200,
          "time": 20.57520375,
          "velocity": 0.5039370078740157
        },
        {
          "duration": 0.13274325000000076,
          "durationTicks": 240,
          "midi": 57,
          "name": "A3",
          "ticks": 37440,
          "time": 20.707947,
          "velocity": 0.5039370078740157
        },
        {
          "duration": 0.13274325000000076,
          "durationTicks": 240,
          "midi": 55,
          "name": "G3",
          "ticks": 37680,
          "time": 20.84069025,
          "velocity": 0.5039370078740157
        },
        {
          "duration": 0.1327432499999972,
          "durationTicks": 240,
          "midi": 59,
          "name": "B3",
          "ticks": 37920,
          "time": 20.973433500000002,
          "velocity": 0.5039370078740157
        },
        {
          "duration": 0.13274325000000076,
          "durationTicks": 240,
          "midi": 55,
          "name": "G3",
          "ticks": 38160,
          "time": 21.10617675,
          "velocity": 0.5039370078740157
        },
        {
          "duration": 0.13274325000000076,
          "durationTicks": 240,
          "midi": 50,
          "name": "D3",
          "ticks": 38400,
          "time": 21.23892,
          "velocity": 0.5039370078740157
        },
        {
          "duration": 0.13274325000000076,
          "durationTicks": 240,
          "midi": 50,
          "name": "D3",
          "ticks": 38640,
          "time": 21.37166325,
          "velocity": 0.5039370078740157
        },
        {
          "duration": 0.13274325000000076,
          "durationTicks": 240,
          "midi": 53,
          "name": "F3",
          "ticks": 38880,
          "time": 21.5044065,
          "velocity": 0.5039370078740157
        },
        {
          "duration": 0.1327432499999972,
          "durationTicks": 240,
          "midi": 50,
          "name": "D3",
          "ticks": 39120,
          "time": 21.637149750000003,
          "velocity": 0.5039370078740157
        },
        {
          "duration": 0.13274325000000076,
          "durationTicks": 240,
          "midi": 52,
          "name": "E3",
          "ticks": 39360,
          "time": 21.769893,
          "velocity": 0.5039370078740157
        },
        {
          "duration": 0.13274325000000076,
          "durationTicks": 240,
          "midi": 50,
          "name": "D3",
          "ticks": 39600,
          "time": 21.90263625,
          "velocity": 0.5039370078740157
        },
        {
          "duration": 0.13274325000000076,
          "durationTicks": 240,
          "midi": 53,
          "name": "F3",
          "ticks": 39840,
          "time": 22.0353795,
          "velocity": 0.5039370078740157
        },
        {
          "duration": 0.13274325000000076,
          "durationTicks": 240,
          "midi": 57,
          "name": "A3",
          "ticks": 40080,
          "time": 22.168122750000002,
          "velocity": 0.5039370078740157
        },
        {
          "duration": 0.1327432499999972,
          "durationTicks": 240,
          "midi": 50,
          "name": "D3",
          "ticks": 40320,
          "time": 22.300866000000003,
          "velocity": 0.5039370078740157
        },
        {
          "duration": 0.13274325000000076,
          "durationTicks": 240,
          "midi": 50,
          "name": "D3",
          "ticks": 40560,
          "time": 22.43360925,
          "velocity": 0.5039370078740157
        },
        {
          "duration": 0.13274325000000076,
          "durationTicks": 240,
          "midi": 53,
          "name": "F3",
          "ticks": 40800,
          "time": 22.5663525,
          "velocity": 0.5039370078740157
        },
        {
          "duration": 0.13274325000000076,
          "durationTicks": 240,
          "midi": 50,
          "name": "D3",
          "ticks": 41040,
          "time": 22.69909575,
          "velocity": 0.5039370078740157
        },
        {
          "duration": 0.13274325000000076,
          "durationTicks": 240,
          "midi": 52,
          "name": "E3",
          "ticks": 41280,
          "time": 22.831839000000002,
          "velocity": 0.5039370078740157
        },
        {
          "duration": 0.1327432499999972,
          "durationTicks": 240,
          "midi": 50,
          "name": "D3",
          "ticks": 41520,
          "time": 22.964582250000003,
          "velocity": 0.5039370078740157
        },
        {
          "duration": 0.13274325000000076,
          "durationTicks": 240,
          "midi": 53,
          "name": "F3",
          "ticks": 41760,
          "time": 23.0973255,
          "velocity": 0.5039370078740157
        },
        {
          "duration": 0.13274325000000076,
          "durationTicks": 240,
          "midi": 50,
          "name": "D3",
          "ticks": 42000,
          "time": 23.23006875,
          "velocity": 0.5039370078740157
        },
        {
          "duration": 0.13274325000000076,
          "durationTicks": 240,
          "midi": 52,
          "name": "E3",
          "ticks": 42240,
          "time": 23.362812,
          "velocity": 0.5039370078740157
        },
        {
          "duration": 0.1327432499999972,
          "durationTicks": 240,
          "midi": 52,
          "name": "E3",
          "ticks": 42480,
          "time": 23.495555250000002,
          "velocity": 0.5039370078740157
        },
        {
          "duration": 0.13274325000000076,
          "durationTicks": 240,
          "midi": 55,
          "name": "G3",
          "ticks": 42720,
          "time": 23.6282985,
          "velocity": 0.5039370078740157
        },
        {
          "duration": 0.13274325000000076,
          "durationTicks": 240,
          "midi": 52,
          "name": "E3",
          "ticks": 42960,
          "time": 23.76104175,
          "velocity": 0.5039370078740157
        },
        {
          "duration": 0.13274325000000076,
          "durationTicks": 240,
          "midi": 54,
          "name": "F#3",
          "ticks": 43200,
          "time": 23.893785,
          "velocity": 0.5039370078740157
        },
        {
          "duration": 0.13274325000000076,
          "durationTicks": 240,
          "midi": 52,
          "name": "E3",
          "ticks": 43440,
          "time": 24.026528250000002,
          "velocity": 0.5039370078740157
        },
        {
          "duration": 0.1327432499999972,
          "durationTicks": 240,
          "midi": 55,
          "name": "G3",
          "ticks": 43680,
          "time": 24.159271500000003,
          "velocity": 0.5039370078740157
        },
        {
          "duration": 0.13274325000000076,
          "durationTicks": 240,
          "midi": 59,
          "name": "B3",
          "ticks": 43920,
          "time": 24.29201475,
          "velocity": 0.5039370078740157
        },
        {
          "duration": 0.13274325000000076,
          "durationTicks": 240,
          "midi": 52,
          "name": "E3",
          "ticks": 44160,
          "time": 24.424758,
          "velocity": 0.5039370078740157
        },
        {
          "duration": 0.13274325000000076,
          "durationTicks": 240,
          "midi": 52,
          "name": "E3",
          "ticks": 44400,
          "time": 24.55750125,
          "velocity": 0.5039370078740157
        },
        {
          "duration": 0.13274325000000076,
          "durationTicks": 240,
          "midi": 55,
          "name": "G3",
          "ticks": 44640,
          "time": 24.690244500000002,
          "velocity": 0.5039370078740157
        },
        {
          "duration": 0.1327432499999972,
          "durationTicks": 240,
          "midi": 52,
          "name": "E3",
          "ticks": 44880,
          "time": 24.822987750000003,
          "velocity": 0.5039370078740157
        },
        {
          "duration": 0.13274325000000076,
          "durationTicks": 240,
          "midi": 54,
          "name": "F#3",
          "ticks": 45120,
          "time": 24.955731,
          "velocity": 0.5039370078740157
        },
        {
          "duration": 0.13274325000000076,
          "durationTicks": 240,
          "midi": 52,
          "name": "E3",
          "ticks": 45360,
          "time": 25.08847425,
          "velocity": 0.5039370078740157
        },
        {
          "duration": 0.13274325000000076,
          "durationTicks": 240,
          "midi": 55,
          "name": "G3",
          "ticks": 45600,
          "time": 25.2212175,
          "velocity": 0.5039370078740157
        },
        {
          "duration": 0.13274325000000076,
          "durationTicks": 240,
          "midi": 52,
          "name": "E3",
          "ticks": 45840,
          "time": 25.353960750000002,
          "velocity": 0.5039370078740157
        },
        {
          "duration": 0.1327432499999972,
          "durationTicks": 240,
          "midi": 53,
          "name": "F3",
          "ticks": 46080,
          "time": 25.486704000000003,
          "velocity": 0.5039370078740157
        },
        {
          "duration": 0.13274325000000076,
          "durationTicks": 240,
          "midi": 53,
          "name": "F3",
          "ticks": 46320,
          "time": 25.61944725,
          "velocity": 0.5039370078740157
        },
        {
          "duration": 0.13274325000000076,
          "durationTicks": 240,
          "midi": 57,
          "name": "A3",
          "ticks": 46560,
          "time": 25.7521905,
          "velocity": 0.5039370078740157
        },
        {
          "duration": 0.13274325000000076,
          "durationTicks": 240,
          "midi": 53,
          "name": "F3",
          "ticks": 46800,
          "time": 25.884933750000002,
          "velocity": 0.5039370078740157
        },
        {
          "duration": 0.1327432499999972,
          "durationTicks": 240,
          "midi": 55,
          "name": "G3",
          "ticks": 47040,
          "time": 26.017677000000003,
          "velocity": 0.5039370078740157
        },
        {
          "duration": 0.13274325000000076,
          "durationTicks": 240,
          "midi": 53,
          "name": "F3",
          "ticks": 47280,
          "time": 26.15042025,
          "velocity": 0.5039370078740157
        },
        {
          "duration": 0.13274325000000076,
          "durationTicks": 240,
          "midi": 57,
          "name": "A3",
          "ticks": 47520,
          "time": 26.2831635,
          "velocity": 0.5039370078740157
        },
        {
          "duration": 0.13274325000000076,
          "durationTicks": 240,
          "midi": 60,
          "name": "C4",
          "ticks": 47760,
          "time": 26.41590675,
          "velocity": 0.5039370078740157
        },
        {
          "duration": 0.13274325000000076,
          "durationTicks": 240,
          "midi": 53,
          "name": "F3",
          "ticks": 48000,
          "time": 26.548650000000002,
          "velocity": 0.5039370078740157
        },
        {
          "duration": 0.1327432499999972,
          "durationTicks": 240,
          "midi": 53,
          "name": "F3",
          "ticks": 48240,
          "time": 26.681393250000003,
          "velocity": 0.5039370078740157
        },
        {
          "duration": 0.13274325000000076,
          "durationTicks": 240,
          "midi": 57,
          "name": "A3",
          "ticks": 48480,
          "time": 26.8141365,
          "velocity": 0.5039370078740157
        },
        {
          "duration": 0.13274325000000076,
          "durationTicks": 240,
          "midi": 53,
          "name": "F3",
          "ticks": 48720,
          "time": 26.94687975,
          "velocity": 0.5039370078740157
        },
        {
          "duration": 0.13274325000000076,
          "durationTicks": 240,
          "midi": 55,
          "name": "G3",
          "ticks": 48960,
          "time": 27.079623,
          "velocity": 0.5039370078740157
        },
        {
          "duration": 0.13274325000000076,
          "durationTicks": 240,
          "midi": 53,
          "name": "F3",
          "ticks": 49200,
          "time": 27.212366250000002,
          "velocity": 0.5039370078740157
        },
        {
          "duration": 0.1327432499999972,
          "durationTicks": 240,
          "midi": 57,
          "name": "A3",
          "ticks": 49440,
          "time": 27.345109500000003,
          "velocity": 0.5039370078740157
        },
        {
          "duration": 0.13274325000000076,
          "durationTicks": 240,
          "midi": 53,
          "name": "F3",
          "ticks": 49680,
          "time": 27.47785275,
          "velocity": 0.5039370078740157
        },
        {
          "duration": 0.13274325000000076,
          "durationTicks": 240,
          "midi": 55,
          "name": "G3",
          "ticks": 49920,
          "time": 27.610596,
          "velocity": 0.5039370078740157
        },
        {
          "duration": 0.13274325000000076,
          "durationTicks": 240,
          "midi": 55,
          "name": "G3",
          "ticks": 50160,
          "time": 27.743339250000002,
          "velocity": 0.5039370078740157
        },
        {
          "duration": 0.1327432499999972,
          "durationTicks": 240,
          "midi": 59,
          "name": "B3",
          "ticks": 50400,
          "time": 27.876082500000003,
          "velocity": 0.5039370078740157
        },
        {
          "duration": 0.13274325000000076,
          "durationTicks": 240,
          "midi": 55,
          "name": "G3",
          "ticks": 50640,
          "time": 28.00882575,
          "velocity": 0.5039370078740157
        },
        {
          "duration": 0.13274325000000076,
          "durationTicks": 240,
          "midi": 57,
          "name": "A3",
          "ticks": 50880,
          "time": 28.141569,
          "velocity": 0.5039370078740157
        },
        {
          "duration": 0.13274325000000076,
          "durationTicks": 240,
          "midi": 55,
          "name": "G3",
          "ticks": 51120,
          "time": 28.27431225,
          "velocity": 0.5039370078740157
        },
        {
          "duration": 0.13274325000000076,
          "durationTicks": 240,
          "midi": 59,
          "name": "B3",
          "ticks": 51360,
          "time": 28.407055500000002,
          "velocity": 0.5039370078740157
        },
        {
          "duration": 0.1327432499999972,
          "durationTicks": 240,
          "midi": 62,
          "name": "D4",
          "ticks": 51600,
          "time": 28.539798750000003,
          "velocity": 0.5039370078740157
        },
        {
          "duration": 0.13274325000000076,
          "durationTicks": 240,
          "midi": 55,
          "name": "G3",
          "ticks": 51840,
          "time": 28.672542,
          "velocity": 0.5039370078740157
        },
        {
          "duration": 0.13274325000000076,
          "durationTicks": 240,
          "midi": 55,
          "name": "G3",
          "ticks": 52080,
          "time": 28.80528525,
          "velocity": 0.5039370078740157
        },
        {
          "duration": 0.13274325000000076,
          "durationTicks": 240,
          "midi": 59,
          "name": "B3",
          "ticks": 52320,
          "time": 28.9380285,
          "velocity": 0.5039370078740157
        },
        {
          "duration": 0.13274325000000076,
          "durationTicks": 240,
          "midi": 55,
          "name": "G3",
          "ticks": 52560,
          "time": 29.070771750000002,
          "velocity": 0.5039370078740157
        },
        {
          "duration": 0.1327432499999972,
          "durationTicks": 240,
          "midi": 57,
          "name": "A3",
          "ticks": 52800,
          "time": 29.203515000000003,
          "velocity": 0.5039370078740157
        },
        {
          "duration": 0.13274325000000076,
          "durationTicks": 240,
          "midi": 55,
          "name": "G3",
          "ticks": 53040,
          "time": 29.33625825,
          "velocity": 0.5039370078740157
        },
        {
          "duration": 0.13274325000000076,
          "durationTicks": 240,
          "midi": 59,
          "name": "B3",
          "ticks": 53280,
          "time": 29.4690015,
          "velocity": 0.5039370078740157
        },
        {
          "duration": 0.13274325000000076,
          "durationTicks": 240,
          "midi": 55,
          "name": "G3",
          "ticks": 53520,
          "time": 29.60174475,
          "velocity": 0.5039370078740157
        },
        {
          "duration": 0.13274325000000076,
          "durationTicks": 240,
          "midi": 52,
          "name": "E3",
          "ticks": 53760,
          "time": 29.734488000000002,
          "velocity": 0.5039370078740157
        },
        {
          "duration": 0.1327432499999972,
          "durationTicks": 240,
          "midi": 52,
          "name": "E3",
          "ticks": 54000,
          "time": 29.867231250000003,
          "velocity": 0.5039370078740157
        },
        {
          "duration": 0.13274325000000076,
          "durationTicks": 240,
          "midi": 55,
          "name": "G3",
          "ticks": 54240,
          "time": 29.9999745,
          "velocity": 0.5039370078740157
        },
        {
          "duration": 0.13274325000000076,
          "durationTicks": 240,
          "midi": 52,
          "name": "E3",
          "ticks": 54480,
          "time": 30.13271775,
          "velocity": 0.5039370078740157
        },
        {
          "duration": 0.13274325000000076,
          "durationTicks": 240,
          "midi": 54,
          "name": "F#3",
          "ticks": 54720,
          "time": 30.265461000000002,
          "velocity": 0.5039370078740157
        },
        {
          "duration": 0.1327432499999972,
          "durationTicks": 240,
          "midi": 52,
          "name": "E3",
          "ticks": 54960,
          "time": 30.398204250000003,
          "velocity": 0.5039370078740157
        },
        {
          "duration": 0.13274325000000076,
          "durationTicks": 240,
          "midi": 55,
          "name": "G3",
          "ticks": 55200,
          "time": 30.5309475,
          "velocity": 0.5039370078740157
        },
        {
          "duration": 0.13274325000000076,
          "durationTicks": 240,
          "midi": 59,
          "name": "B3",
          "ticks": 55440,
          "time": 30.66369075,
          "velocity": 0.5039370078740157
        },
        {
          "duration": 0.13274325000000076,
          "durationTicks": 240,
          "midi": 52,
          "name": "E3",
          "ticks": 55680,
          "time": 30.796434,
          "velocity": 0.5039370078740157
        },
        {
          "duration": 0.13274325000000076,
          "durationTicks": 240,
          "midi": 52,
          "name": "E3",
          "ticks": 55920,
          "time": 30.929177250000002,
          "velocity": 0.5039370078740157
        },
        {
          "duration": 0.1327432499999972,
          "durationTicks": 240,
          "midi": 55,
          "name": "G3",
          "ticks": 56160,
          "time": 31.061920500000003,
          "velocity": 0.5039370078740157
        },
        {
          "duration": 0.13274325000000076,
          "durationTicks": 240,
          "midi": 52,
          "name": "E3",
          "ticks": 56400,
          "time": 31.19466375,
          "velocity": 0.5039370078740157
        },
        {
          "duration": 0.13274325000000076,
          "durationTicks": 240,
          "midi": 54,
          "name": "F#3",
          "ticks": 56640,
          "time": 31.327407,
          "velocity": 0.5039370078740157
        },
        {
          "duration": 0.13274325000000076,
          "durationTicks": 240,
          "midi": 52,
          "name": "E3",
          "ticks": 56880,
          "time": 31.46015025,
          "velocity": 0.5039370078740157
        },
        {
          "duration": 0.13274325000000076,
          "durationTicks": 240,
          "midi": 55,
          "name": "G3",
          "ticks": 57120,
          "time": 31.592893500000002,
          "velocity": 0.5039370078740157
        },
        {
          "duration": 0.1327432499999972,
          "durationTicks": 240,
          "midi": 52,
          "name": "E3",
          "ticks": 57360,
          "time": 31.725636750000003,
          "velocity": 0.5039370078740157
        },
        {
          "duration": 0.13274325000000076,
          "durationTicks": 240,
          "midi": 52,
          "name": "E3",
          "ticks": 57600,
          "time": 31.85838,
          "velocity": 0.5039370078740157
        },
        {
          "duration": 0.1327432499999972,
          "durationTicks": 240,
          "midi": 52,
          "name": "E3",
          "ticks": 57840,
          "time": 31.99112325,
          "velocity": 0.5039370078740157
        },
        {
          "duration": 0.1327432500000043,
          "durationTicks": 240,
          "midi": 55,
          "name": "G3",
          "ticks": 58080,
          "time": 32.1238665,
          "velocity": 0.5039370078740157
        },
        {
          "duration": 0.1327432499999972,
          "durationTicks": 240,
          "midi": 52,
          "name": "E3",
          "ticks": 58320,
          "time": 32.25660975,
          "velocity": 0.5039370078740157
        },
        {
          "duration": 0.1327432500000043,
          "durationTicks": 240,
          "midi": 54,
          "name": "F#3",
          "ticks": 58560,
          "time": 32.389353,
          "velocity": 0.5039370078740157
        },
        {
          "duration": 0.1327432499999972,
          "durationTicks": 240,
          "midi": 52,
          "name": "E3",
          "ticks": 58800,
          "time": 32.522096250000004,
          "velocity": 0.5039370078740157
        },
        {
          "duration": 0.1327432499999972,
          "durationTicks": 240,
          "midi": 55,
          "name": "G3",
          "ticks": 59040,
          "time": 32.6548395,
          "velocity": 0.5039370078740157
        },
        {
          "duration": 0.1327432500000043,
          "durationTicks": 240,
          "midi": 59,
          "name": "B3",
          "ticks": 59280,
          "time": 32.78758275,
          "velocity": 0.5039370078740157
        },
        {
          "duration": 0.1327432499999972,
          "durationTicks": 240,
          "midi": 52,
          "name": "E3",
          "ticks": 59520,
          "time": 32.920326,
          "velocity": 0.5039370078740157
        },
        {
          "duration": 0.1327432500000043,
          "durationTicks": 240,
          "midi": 52,
          "name": "E3",
          "ticks": 59760,
          "time": 33.05306925,
          "velocity": 0.5039370078740157
        },
        {
          "duration": 0.1327432499999972,
          "durationTicks": 240,
          "midi": 55,
          "name": "G3",
          "ticks": 60000,
          "time": 33.185812500000004,
          "velocity": 0.5039370078740157
        },
        {
          "duration": 0.1327432499999972,
          "durationTicks": 240,
          "midi": 52,
          "name": "E3",
          "ticks": 60240,
          "time": 33.31855575,
          "velocity": 0.5039370078740157
        },
        {
          "duration": 0.1327432500000043,
          "durationTicks": 240,
          "midi": 54,
          "name": "F#3",
          "ticks": 60480,
          "time": 33.451299,
          "velocity": 0.5039370078740157
        },
        {
          "duration": 0.1327432499999972,
          "durationTicks": 240,
          "midi": 52,
          "name": "E3",
          "ticks": 60720,
          "time": 33.58404225,
          "velocity": 0.5039370078740157
        },
        {
          "duration": 0.1327432500000043,
          "durationTicks": 240,
          "midi": 55,
          "name": "G3",
          "ticks": 60960,
          "time": 33.7167855,
          "velocity": 0.5039370078740157
        },
        {
          "duration": 0.1327432499999972,
          "durationTicks": 240,
          "midi": 57,
          "name": "A3",
          "ticks": 61200,
          "time": 33.849528750000005,
          "velocity": 0.5039370078740157
        },
        {
          "duration": 0.1327432499999972,
          "durationTicks": 240,
          "midi": 57,
          "name": "A3",
          "ticks": 61440,
          "time": 33.982272,
          "velocity": 0.5039370078740157
        },
        {
          "duration": 0.1327432500000043,
          "durationTicks": 240,
          "midi": 45,
          "name": "A2",
          "ticks": 61680,
          "time": 34.11501525,
          "velocity": 0.5039370078740157
        },
        {
          "duration": 0.1327432499999972,
          "durationTicks": 240,
          "midi": 60,
          "name": "C4",
          "ticks": 61920,
          "time": 34.2477585,
          "velocity": 0.5039370078740157
        },
        {
          "duration": 0.1327432500000043,
          "durationTicks": 240,
          "midi": 45,
          "name": "A2",
          "ticks": 62160,
          "time": 34.38050175,
          "velocity": 0.5039370078740157
        },
        {
          "duration": 0.1327432499999972,
          "durationTicks": 240,
          "midi": 59,
          "name": "B3",
          "ticks": 62400,
          "time": 34.513245000000005,
          "velocity": 0.5039370078740157
        },
        {
          "duration": 0.1327432499999972,
          "durationTicks": 240,
          "midi": 45,
          "name": "A2",
          "ticks": 62640,
          "time": 34.64598825,
          "velocity": 0.5039370078740157
        },
        {
          "duration": 0.1327432500000043,
          "durationTicks": 240,
          "midi": 60,
          "name": "C4",
          "ticks": 62880,
          "time": 34.7787315,
          "velocity": 0.5039370078740157
        },
        {
          "duration": 0.1327432499999972,
          "durationTicks": 240,
          "midi": 64,
          "name": "E4",
          "ticks": 63120,
          "time": 34.911474750000004,
          "velocity": 0.5039370078740157
        },
        {
          "duration": 0.1327432500000043,
          "durationTicks": 240,
          "midi": 45,
          "name": "A2",
          "ticks": 63360,
          "time": 35.044218,
          "velocity": 0.5039370078740157
        },
        {
          "duration": 0.1327432499999972,
          "durationTicks": 240,
          "midi": 57,
          "name": "A3",
          "ticks": 63600,
          "time": 35.176961250000005,
          "velocity": 0.5039370078740157
        },
        {
          "duration": 0.1327432499999972,
          "durationTicks": 240,
          "midi": 60,
          "name": "C4",
          "ticks": 63840,
          "time": 35.3097045,
          "velocity": 0.5039370078740157
        },
        {
          "duration": 0.1327432500000043,
          "durationTicks": 240,
          "midi": 45,
          "name": "A2",
          "ticks": 64080,
          "time": 35.44244775,
          "velocity": 0.5039370078740157
        },
        {
          "duration": 0.1327432499999972,
          "durationTicks": 240,
          "midi": 59,
          "name": "B3",
          "ticks": 64320,
          "time": 35.575191000000004,
          "velocity": 0.5039370078740157
        },
        {
          "duration": 0.1327432500000043,
          "durationTicks": 240,
          "midi": 45,
          "name": "A2",
          "ticks": 64560,
          "time": 35.70793425,
          "velocity": 0.5039370078740157
        },
        {
          "duration": 0.1327432499999972,
          "durationTicks": 240,
          "midi": 60,
          "name": "C4",
          "ticks": 64800,
          "time": 35.840677500000005,
          "velocity": 0.5039370078740157
        },
        {
          "duration": 0.1327432499999972,
          "durationTicks": 240,
          "midi": 57,
          "name": "A3",
          "ticks": 65040,
          "time": 35.97342075,
          "velocity": 0.5039370078740157
        },
        {
          "duration": 0.1327432500000043,
          "durationTicks": 240,
          "midi": 45,
          "name": "A2",
          "ticks": 65280,
          "time": 36.106164,
          "velocity": 0.5039370078740157
        },
        {
          "duration": 0.1327432499999972,
          "durationTicks": 240,
          "midi": 57,
          "name": "A3",
          "ticks": 65520,
          "time": 36.238907250000004,
          "velocity": 0.5039370078740157
        },
        {
          "duration": 0.1327432499999972,
          "durationTicks": 240,
          "midi": 60,
          "name": "C4",
          "ticks": 65760,
          "time": 36.3716505,
          "velocity": 0.5039370078740157
        },
        {
          "duration": 0.1327432500000043,
          "durationTicks": 240,
          "midi": 45,
          "name": "A2",
          "ticks": 66000,
          "time": 36.50439375,
          "velocity": 0.5039370078740157
        },
        {
          "duration": 0.1327432499999972,
          "durationTicks": 240,
          "midi": 59,
          "name": "B3",
          "ticks": 66240,
          "time": 36.637137,
          "velocity": 0.5039370078740157
        },
        {
          "duration": 0.1327432500000043,
          "durationTicks": 240,
          "midi": 45,
          "name": "A2",
          "ticks": 66480,
          "time": 36.76988025,
          "velocity": 0.5039370078740157
        },
        {
          "duration": 0.1327432499999972,
          "durationTicks": 240,
          "midi": 60,
          "name": "C4",
          "ticks": 66720,
          "time": 36.902623500000004,
          "velocity": 0.5039370078740157
        },
        {
          "duration": 0.1327432499999972,
          "durationTicks": 240,
          "midi": 64,
          "name": "E4",
          "ticks": 66960,
          "time": 37.03536675,
          "velocity": 0.5039370078740157
        },
        {
          "duration": 0.1327432500000043,
          "durationTicks": 240,
          "midi": 45,
          "name": "A2",
          "ticks": 67200,
          "time": 37.16811,
          "velocity": 0.5039370078740157
        },
        {
          "duration": 0.1327432499999972,
          "durationTicks": 240,
          "midi": 57,
          "name": "A3",
          "ticks": 67440,
          "time": 37.30085325,
          "velocity": 0.5039370078740157
        },
        {
          "duration": 0.1327432500000043,
          "durationTicks": 240,
          "midi": 60,
          "name": "C4",
          "ticks": 67680,
          "time": 37.4335965,
          "velocity": 0.5039370078740157
        },
        {
          "duration": 0.1327432499999972,
          "durationTicks": 240,
          "midi": 45,
          "name": "A2",
          "ticks": 67920,
          "time": 37.566339750000004,
          "velocity": 0.5039370078740157
        },
        {
          "duration": 0.1327432499999972,
          "durationTicks": 240,
          "midi": 59,
          "name": "B3",
          "ticks": 68160,
          "time": 37.699083,
          "velocity": 0.5039370078740157
        },
        {
          "duration": 0.1327432500000043,
          "durationTicks": 240,
          "midi": 45,
          "name": "A2",
          "ticks": 68400,
          "time": 37.83182625,
          "velocity": 0.5039370078740157
        },
        {
          "duration": 0.1327432499999972,
          "durationTicks": 240,
          "midi": 60,
          "name": "C4",
          "ticks": 68640,
          "time": 37.9645695,
          "velocity": 0.5039370078740157
        },
        {
          "duration": 0.1327432500000043,
          "durationTicks": 240,
          "midi": 57,
          "name": "A3",
          "ticks": 68880,
          "time": 38.09731275,
          "velocity": 0.5039370078740157
        },
        {
          "duration": 0.1327432499999972,
          "durationTicks": 240,
          "midi": 52,
          "name": "E3",
          "ticks": 69120,
          "time": 38.230056000000005,
          "velocity": 0.5039370078740157
        },
        {
          "duration": 0.1327432499999972,
          "durationTicks": 240,
          "midi": 40,
          "name": "E2",
          "ticks": 69360,
          "time": 38.36279925,
          "velocity": 0.5039370078740157
        },
        {
          "duration": 0.1327432500000043,
          "durationTicks": 240,
          "midi": 55,
          "name": "G3",
          "ticks": 69600,
          "time": 38.4955425,
          "velocity": 0.5039370078740157
        },
        {
          "duration": 0.1327432499999972,
          "durationTicks": 240,
          "midi": 40,
          "name": "E2",
          "ticks": 69840,
          "time": 38.62828575,
          "velocity": 0.5039370078740157
        },
        {
          "duration": 0.1327432500000043,
          "durationTicks": 240,
          "midi": 54,
          "name": "F#3",
          "ticks": 70080,
          "time": 38.761029,
          "velocity": 0.5039370078740157
        },
        {
          "duration": 0.1327432499999972,
          "durationTicks": 240,
          "midi": 40,
          "name": "E2",
          "ticks": 70320,
          "time": 38.893772250000005,
          "velocity": 0.5039370078740157
        },
        {
          "duration": 0.1327432499999972,
          "durationTicks": 240,
          "midi": 55,
          "name": "G3",
          "ticks": 70560,
          "time": 39.0265155,
          "velocity": 0.5039370078740157
        },
        {
          "duration": 0.1327432500000043,
          "durationTicks": 240,
          "midi": 59,
          "name": "B3",
          "ticks": 70800,
          "time": 39.15925875,
          "velocity": 0.5039370078740157
        },
        {
          "duration": 0.1327432499999972,
          "durationTicks": 240,
          "midi": 40,
          "name": "E2",
          "ticks": 71040,
          "time": 39.292002000000004,
          "velocity": 0.5039370078740157
        },
        {
          "duration": 0.1327432500000043,
          "durationTicks": 240,
          "midi": 52,
          "name": "E3",
          "ticks": 71280,
          "time": 39.42474525,
          "velocity": 0.5039370078740157
        },
        {
          "duration": 0.1327432499999972,
          "durationTicks": 240,
          "midi": 55,
          "name": "G3",
          "ticks": 71520,
          "time": 39.557488500000005,
          "velocity": 0.5039370078740157
        },
        {
          "duration": 0.1327432499999972,
          "durationTicks": 240,
          "midi": 40,
          "name": "E2",
          "ticks": 71760,
          "time": 39.69023175,
          "velocity": 0.5039370078740157
        },
        {
          "duration": 0.1327432500000043,
          "durationTicks": 240,
          "midi": 54,
          "name": "F#3",
          "ticks": 72000,
          "time": 39.822975,
          "velocity": 0.5039370078740157
        },
        {
          "duration": 0.1327432499999972,
          "durationTicks": 240,
          "midi": 40,
          "name": "E2",
          "ticks": 72240,
          "time": 39.955718250000004,
          "velocity": 0.5039370078740157
        },
        {
          "duration": 0.1327432500000043,
          "durationTicks": 240,
          "midi": 55,
          "name": "G3",
          "ticks": 72480,
          "time": 40.0884615,
          "velocity": 0.5039370078740157
        },
        {
          "duration": 0.1327432499999972,
          "durationTicks": 240,
          "midi": 52,
          "name": "E3",
          "ticks": 72720,
          "time": 40.221204750000005,
          "velocity": 0.5039370078740157
        },
        {
          "duration": 0.1327432499999972,
          "durationTicks": 240,
          "midi": 40,
          "name": "E2",
          "ticks": 72960,
          "time": 40.353948,
          "velocity": 0.5039370078740157
        },
        {
          "duration": 0.1327432500000043,
          "durationTicks": 240,
          "midi": 52,
          "name": "E3",
          "ticks": 73200,
          "time": 40.48669125,
          "velocity": 0.5039370078740157
        },
        {
          "duration": 0.1327432499999972,
          "durationTicks": 240,
          "midi": 55,
          "name": "G3",
          "ticks": 73440,
          "time": 40.619434500000004,
          "velocity": 0.5039370078740157
        },
        {
          "duration": 0.1327432500000043,
          "durationTicks": 240,
          "midi": 40,
          "name": "E2",
          "ticks": 73680,
          "time": 40.75217775,
          "velocity": 0.5039370078740157
        },
        {
          "duration": 0.1327432499999972,
          "durationTicks": 240,
          "midi": 54,
          "name": "F#3",
          "ticks": 73920,
          "time": 40.884921000000006,
          "velocity": 0.5039370078740157
        },
        {
          "duration": 0.1327432499999972,
          "durationTicks": 240,
          "midi": 40,
          "name": "E2",
          "ticks": 74160,
          "time": 41.01766425,
          "velocity": 0.5039370078740157
        },
        {
          "duration": 0.1327432500000043,
          "durationTicks": 240,
          "midi": 55,
          "name": "G3",
          "ticks": 74400,
          "time": 41.1504075,
          "velocity": 0.5039370078740157
        },
        {
          "duration": 0.1327432499999972,
          "durationTicks": 240,
          "midi": 59,
          "name": "B3",
          "ticks": 74640,
          "time": 41.283150750000004,
          "velocity": 0.5039370078740157
        },
        {
          "duration": 0.1327432499999972,
          "durationTicks": 240,
          "midi": 40,
          "name": "E2",
          "ticks": 74880,
          "time": 41.415894,
          "velocity": 0.5039370078740157
        },
        {
          "duration": 0.1327432500000043,
          "durationTicks": 240,
          "midi": 52,
          "name": "E3",
          "ticks": 75120,
          "time": 41.54863725,
          "velocity": 0.5039370078740157
        },
        {
          "duration": 0.1327432499999972,
          "durationTicks": 240,
          "midi": 55,
          "name": "G3",
          "ticks": 75360,
          "time": 41.6813805,
          "velocity": 0.5039370078740157
        },
        {
          "duration": 0.1327432500000043,
          "durationTicks": 240,
          "midi": 40,
          "name": "E2",
          "ticks": 75600,
          "time": 41.81412375,
          "velocity": 0.5039370078740157
        },
        {
          "duration": 0.1327432499999972,
          "durationTicks": 240,
          "midi": 54,
          "name": "F#3",
          "ticks": 75840,
          "time": 41.946867000000005,
          "velocity": 0.5039370078740157
        },
        {
          "duration": 0.1327432499999972,
          "durationTicks": 240,
          "midi": 40,
          "name": "E2",
          "ticks": 76080,
          "time": 42.07961025,
          "velocity": 0.5039370078740157
        },
        {
          "duration": 0.1327432500000043,
          "durationTicks": 240,
          "midi": 55,
          "name": "G3",
          "ticks": 76320,
          "time": 42.2123535,
          "velocity": 0.5039370078740157
        },
        {
          "duration": 0.1327432499999972,
          "durationTicks": 240,
          "midi": 52,
          "name": "E3",
          "ticks": 76560,
          "time": 42.34509675,
          "velocity": 0.5039370078740157
        },
        {
          "duration": 0.1327432500000043,
          "durationTicks": 240,
          "midi": 57,
          "name": "A3",
          "ticks": 76800,
          "time": 42.47784,
          "velocity": 0.5039370078740157
        },
        {
          "duration": 0.1327432499999972,
          "durationTicks": 240,
          "midi": 45,
          "name": "A2",
          "ticks": 77040,
          "time": 42.610583250000005,
          "velocity": 0.5039370078740157
        },
        {
          "duration": 0.1327432499999972,
          "durationTicks": 240,
          "midi": 60,
          "name": "C4",
          "ticks": 77280,
          "time": 42.7433265,
          "velocity": 0.5039370078740157
        },
        {
          "duration": 0.1327432500000043,
          "durationTicks": 240,
          "midi": 45,
          "name": "A2",
          "ticks": 77520,
          "time": 42.87606975,
          "velocity": 0.5039370078740157
        },
        {
          "duration": 0.1327432499999972,
          "durationTicks": 240,
          "midi": 59,
          "name": "B3",
          "ticks": 77760,
          "time": 43.008813,
          "velocity": 0.5039370078740157
        },
        {
          "duration": 0.1327432500000043,
          "durationTicks": 240,
          "midi": 45,
          "name": "A2",
          "ticks": 78000,
          "time": 43.14155625,
          "velocity": 0.5039370078740157
        },
        {
          "duration": 0.1327432499999972,
          "durationTicks": 240,
          "midi": 60,
          "name": "C4",
          "ticks": 78240,
          "time": 43.274299500000005,
          "velocity": 0.5039370078740157
        },
        {
          "duration": 0.1327432499999972,
          "durationTicks": 240,
          "midi": 64,
          "name": "E4",
          "ticks": 78480,
          "time": 43.40704275,
          "velocity": 0.5039370078740157
        },
        {
          "duration": 0.1327432500000043,
          "durationTicks": 240,
          "midi": 45,
          "name": "A2",
          "ticks": 78720,
          "time": 43.539786,
          "velocity": 0.5039370078740157
        },
        {
          "duration": 0.1327432499999972,
          "durationTicks": 240,
          "midi": 57,
          "name": "A3",
          "ticks": 78960,
          "time": 43.672529250000004,
          "velocity": 0.5039370078740157
        },
        {
          "duration": 0.1327432500000043,
          "durationTicks": 240,
          "midi": 60,
          "name": "C4",
          "ticks": 79200,
          "time": 43.8052725,
          "velocity": 0.5039370078740157
        },
        {
          "duration": 0.1327432499999972,
          "durationTicks": 240,
          "midi": 45,
          "name": "A2",
          "ticks": 79440,
          "time": 43.938015750000005,
          "velocity": 0.5039370078740157
        },
        {
          "duration": 0.1327432499999972,
          "durationTicks": 240,
          "midi": 59,
          "name": "B3",
          "ticks": 79680,
          "time": 44.070759,
          "velocity": 0.5039370078740157
        },
        {
          "duration": 0.1327432500000043,
          "durationTicks": 240,
          "midi": 45,
          "name": "A2",
          "ticks": 79920,
          "time": 44.20350225,
          "velocity": 0.5039370078740157
        },
        {
          "duration": 0.1327432499999972,
          "durationTicks": 240,
          "midi": 60,
          "name": "C4",
          "ticks": 80160,
          "time": 44.336245500000004,
          "velocity": 0.5039370078740157
        },
        {
          "duration": 0.1327432500000043,
          "durationTicks": 240,
          "midi": 57,
          "name": "A3",
          "ticks": 80400,
          "time": 44.46898875,
          "velocity": 0.5039370078740157
        },
        {
          "duration": 0.1327432499999972,
          "durationTicks": 240,
          "midi": 45,
          "name": "A2",
          "ticks": 80640,
          "time": 44.601732000000005,
          "velocity": 0.5039370078740157
        },
        {
          "duration": 0.1327432499999972,
          "durationTicks": 240,
          "midi": 57,
          "name": "A3",
          "ticks": 80880,
          "time": 44.73447525,
          "velocity": 0.5039370078740157
        },
        {
          "duration": 0.1327432500000043,
          "durationTicks": 240,
          "midi": 60,
          "name": "C4",
          "ticks": 81120,
          "time": 44.8672185,
          "velocity": 0.5039370078740157
        },
        {
          "duration": 0.1327432499999972,
          "durationTicks": 240,
          "midi": 45,
          "name": "A2",
          "ticks": 81360,
          "time": 44.999961750000004,
          "velocity": 0.5039370078740157
        },
        {
          "duration": 0.1327432500000043,
          "durationTicks": 240,
          "midi": 59,
          "name": "B3",
          "ticks": 81600,
          "time": 45.132705,
          "velocity": 0.5039370078740157
        },
        {
          "duration": 0.1327432499999972,
          "durationTicks": 240,
          "midi": 45,
          "name": "A2",
          "ticks": 81840,
          "time": 45.265448250000006,
          "velocity": 0.5039370078740157
        },
        {
          "duration": 0.1327432499999972,
          "durationTicks": 240,
          "midi": 60,
          "name": "C4",
          "ticks": 82080,
          "time": 45.3981915,
          "velocity": 0.5039370078740157
        },
        {
          "duration": 0.1327432500000043,
          "durationTicks": 240,
          "midi": 64,
          "name": "E4",
          "ticks": 82320,
          "time": 45.53093475,
          "velocity": 0.5039370078740157
        },
        {
          "duration": 0.1327432499999972,
          "durationTicks": 240,
          "midi": 45,
          "name": "A2",
          "ticks": 82560,
          "time": 45.663678000000004,
          "velocity": 0.5039370078740157
        },
        {
          "duration": 0.1327432500000043,
          "durationTicks": 240,
          "midi": 57,
          "name": "A3",
          "ticks": 82800,
          "time": 45.79642125,
          "velocity": 0.5039370078740157
        },
        {
          "duration": 0.1327432499999972,
          "durationTicks": 240,
          "midi": 60,
          "name": "C4",
          "ticks": 83040,
          "time": 45.929164500000006,
          "velocity": 0.5039370078740157
        },
        {
          "duration": 0.1327432499999972,
          "durationTicks": 240,
          "midi": 45,
          "name": "A2",
          "ticks": 83280,
          "time": 46.06190775,
          "velocity": 0.5039370078740157
        },
        {
          "duration": 0.1327432500000043,
          "durationTicks": 240,
          "midi": 59,
          "name": "B3",
          "ticks": 83520,
          "time": 46.194651,
          "velocity": 0.5039370078740157
        },
        {
          "duration": 0.1327432499999972,
          "durationTicks": 240,
          "midi": 45,
          "name": "A2",
          "ticks": 83760,
          "time": 46.327394250000005,
          "velocity": 0.5039370078740157
        },
        {
          "duration": 0.1327432499999972,
          "durationTicks": 240,
          "midi": 60,
          "name": "C4",
          "ticks": 84000,
          "time": 46.4601375,
          "velocity": 0.5039370078740157
        },
        {
          "duration": 0.1327432500000043,
          "durationTicks": 240,
          "midi": 57,
          "name": "A3",
          "ticks": 84240,
          "time": 46.59288075,
          "velocity": 0.5039370078740157
        },
        {
          "duration": 0.1327432499999972,
          "durationTicks": 240,
          "midi": 52,
          "name": "E3",
          "ticks": 84480,
          "time": 46.725624,
          "velocity": 0.5039370078740157
        },
        {
          "duration": 0.1327432500000043,
          "durationTicks": 240,
          "midi": 40,
          "name": "E2",
          "ticks": 84720,
          "time": 46.85836725,
          "velocity": 0.5039370078740157
        },
        {
          "duration": 0.1327432499999972,
          "durationTicks": 240,
          "midi": 55,
          "name": "G3",
          "ticks": 84960,
          "time": 46.991110500000005,
          "velocity": 0.5039370078740157
        },
        {
          "duration": 0.1327432499999972,
          "durationTicks": 240,
          "midi": 40,
          "name": "E2",
          "ticks": 85200,
          "time": 47.12385375,
          "velocity": 0.5039370078740157
        },
        {
          "duration": 0.1327432500000043,
          "durationTicks": 240,
          "midi": 54,
          "name": "F#3",
          "ticks": 85440,
          "time": 47.256597,
          "velocity": 0.5039370078740157
        },
        {
          "duration": 0.1327432499999972,
          "durationTicks": 240,
          "midi": 40,
          "name": "E2",
          "ticks": 85680,
          "time": 47.389340250000004,
          "velocity": 0.5039370078740157
        },
        {
          "duration": 0.1327432500000043,
          "durationTicks": 240,
          "midi": 55,
          "name": "G3",
          "ticks": 85920,
          "time": 47.5220835,
          "velocity": 0.5039370078740157
        },
        {
          "duration": 0.1327432499999972,
          "durationTicks": 240,
          "midi": 59,
          "name": "B3",
          "ticks": 86160,
          "time": 47.654826750000005,
          "velocity": 0.5039370078740157
        },
        {
          "duration": 0.1327432499999972,
          "durationTicks": 240,
          "midi": 40,
          "name": "E2",
          "ticks": 86400,
          "time": 47.78757,
          "velocity": 0.5039370078740157
        },
        {
          "duration": 0.1327432500000043,
          "durationTicks": 240,
          "midi": 52,
          "name": "E3",
          "ticks": 86640,
          "time": 47.92031325,
          "velocity": 0.5039370078740157
        },
        {
          "duration": 0.1327432499999972,
          "durationTicks": 240,
          "midi": 55,
          "name": "G3",
          "ticks": 86880,
          "time": 48.053056500000004,
          "velocity": 0.5039370078740157
        },
        {
          "duration": 0.1327432500000043,
          "durationTicks": 240,
          "midi": 40,
          "name": "E2",
          "ticks": 87120,
          "time": 48.18579975,
          "velocity": 0.5039370078740157
        },
        {
          "duration": 0.1327432499999972,
          "durationTicks": 240,
          "midi": 54,
          "name": "F#3",
          "ticks": 87360,
          "time": 48.318543000000005,
          "velocity": 0.5039370078740157
        },
        {
          "duration": 0.1327432499999972,
          "durationTicks": 240,
          "midi": 40,
          "name": "E2",
          "ticks": 87600,
          "time": 48.45128625,
          "velocity": 0.5039370078740157
        },
        {
          "duration": 0.1327432500000043,
          "durationTicks": 240,
          "midi": 55,
          "name": "G3",
          "ticks": 87840,
          "time": 48.5840295,
          "velocity": 0.5039370078740157
        },
        {
          "duration": 0.1327432499999972,
          "durationTicks": 240,
          "midi": 52,
          "name": "E3",
          "ticks": 88080,
          "time": 48.716772750000004,
          "velocity": 0.5039370078740157
        },
        {
          "duration": 0.1327432500000043,
          "durationTicks": 240,
          "midi": 40,
          "name": "E2",
          "ticks": 88320,
          "time": 48.849516,
          "velocity": 0.5039370078740157
        },
        {
          "duration": 0.1327432499999972,
          "durationTicks": 240,
          "midi": 52,
          "name": "E3",
          "ticks": 88560,
          "time": 48.982259250000006,
          "velocity": 0.5039370078740157
        },
        {
          "duration": 0.1327432499999972,
          "durationTicks": 240,
          "midi": 55,
          "name": "G3",
          "ticks": 88800,
          "time": 49.1150025,
          "velocity": 0.5039370078740157
        },
        {
          "duration": 0.1327432500000043,
          "durationTicks": 240,
          "midi": 40,
          "name": "E2",
          "ticks": 89040,
          "time": 49.24774575,
          "velocity": 0.5039370078740157
        },
        {
          "duration": 0.1327432499999972,
          "durationTicks": 240,
          "midi": 54,
          "name": "F#3",
          "ticks": 89280,
          "time": 49.380489000000004,
          "velocity": 0.5039370078740157
        },
        {
          "duration": 0.1327432500000043,
          "durationTicks": 240,
          "midi": 40,
          "name": "E2",
          "ticks": 89520,
          "time": 49.51323225,
          "velocity": 0.5039370078740157
        },
        {
          "duration": 0.1327432499999972,
          "durationTicks": 240,
          "midi": 55,
          "name": "G3",
          "ticks": 89760,
          "time": 49.645975500000006,
          "velocity": 0.5039370078740157
        },
        {
          "duration": 0.1327432499999972,
          "durationTicks": 240,
          "midi": 59,
          "name": "B3",
          "ticks": 90000,
          "time": 49.77871875,
          "velocity": 0.5039370078740157
        },
        {
          "duration": 0.1327432500000043,
          "durationTicks": 240,
          "midi": 40,
          "name": "E2",
          "ticks": 90240,
          "time": 49.911462,
          "velocity": 0.5039370078740157
        },
        {
          "duration": 0.1327432499999972,
          "durationTicks": 240,
          "midi": 52,
          "name": "E3",
          "ticks": 90480,
          "time": 50.044205250000005,
          "velocity": 0.5039370078740157
        },
        {
          "duration": 0.1327432500000043,
          "durationTicks": 240,
          "midi": 55,
          "name": "G3",
          "ticks": 90720,
          "time": 50.1769485,
          "velocity": 0.5039370078740157
        },
        {
          "duration": 0.1327432499999972,
          "durationTicks": 240,
          "midi": 40,
          "name": "E2",
          "ticks": 90960,
          "time": 50.309691750000006,
          "velocity": 0.5039370078740157
        },
        {
          "duration": 0.1327432499999972,
          "durationTicks": 240,
          "midi": 54,
          "name": "F#3",
          "ticks": 91200,
          "time": 50.442435,
          "velocity": 0.5039370078740157
        },
        {
          "duration": 0.1327432500000043,
          "durationTicks": 240,
          "midi": 40,
          "name": "E2",
          "ticks": 91440,
          "time": 50.57517825,
          "velocity": 0.5039370078740157
        },
        {
          "duration": 0.1327432499999972,
          "durationTicks": 240,
          "midi": 55,
          "name": "G3",
          "ticks": 91680,
          "time": 50.707921500000005,
          "velocity": 0.5039370078740157
        },
        {
          "duration": 0.1327432500000043,
          "durationTicks": 240,
          "midi": 52,
          "name": "E3",
          "ticks": 91920,
          "time": 50.84066475,
          "velocity": 0.5039370078740157
        },
        {
          "duration": 0.1327432499999972,
          "durationTicks": 240,
          "midi": 53,
          "name": "F3",
          "ticks": 92160,
          "time": 50.973408000000006,
          "velocity": 0.5039370078740157
        },
        {
          "duration": 0.1327432499999972,
          "durationTicks": 240,
          "midi": 53,
          "name": "F3",
          "ticks": 92400,
          "time": 51.10615125,
          "velocity": 0.5039370078740157
        },
        {
          "duration": 0.1327432500000043,
          "durationTicks": 240,
          "midi": 57,
          "name": "A3",
          "ticks": 92640,
          "time": 51.2388945,
          "velocity": 0.5039370078740157
        },
        {
          "duration": 0.1327432499999972,
          "durationTicks": 240,
          "midi": 53,
          "name": "F3",
          "ticks": 92880,
          "time": 51.371637750000005,
          "velocity": 0.5039370078740157
        },
        {
          "duration": 0.1327432499999972,
          "durationTicks": 240,
          "midi": 55,
          "name": "G3",
          "ticks": 93120,
          "time": 51.504381,
          "velocity": 0.5039370078740157
        },
        {
          "duration": 0.1327432500000043,
          "durationTicks": 240,
          "midi": 53,
          "name": "F3",
          "ticks": 93360,
          "time": 51.63712425,
          "velocity": 0.5039370078740157
        },
        {
          "duration": 0.1327432499999972,
          "durationTicks": 240,
          "midi": 57,
          "name": "A3",
          "ticks": 93600,
          "time": 51.769867500000004,
          "velocity": 0.5039370078740157
        },
        {
          "duration": 0.1327432500000043,
          "durationTicks": 240,
          "midi": 60,
          "name": "C4",
          "ticks": 93840,
          "time": 51.90261075,
          "velocity": 0.5039370078740157
        },
        {
          "duration": 0.1327432499999972,
          "durationTicks": 240,
          "midi": 53,
          "name": "F3",
          "ticks": 94080,
          "time": 52.035354000000005,
          "velocity": 0.5039370078740157
        },
        {
          "duration": 0.1327432499999972,
          "durationTicks": 240,
          "midi": 53,
          "name": "F3",
          "ticks": 94320,
          "time": 52.16809725,
          "velocity": 0.5039370078740157
        },
        {
          "duration": 0.1327432500000043,
          "durationTicks": 240,
          "midi": 57,
          "name": "A3",
          "ticks": 94560,
          "time": 52.3008405,
          "velocity": 0.5039370078740157
        },
        {
          "duration": 0.1327432499999972,
          "durationTicks": 240,
          "midi": 53,
          "name": "F3",
          "ticks": 94800,
          "time": 52.433583750000004,
          "velocity": 0.5039370078740157
        },
        {
          "duration": 0.1327432500000043,
          "durationTicks": 240,
          "midi": 55,
          "name": "G3",
          "ticks": 95040,
          "time": 52.566327,
          "velocity": 0.5039370078740157
        },
        {
          "duration": 0.1327432499999972,
          "durationTicks": 240,
          "midi": 53,
          "name": "F3",
          "ticks": 95280,
          "time": 52.699070250000005,
          "velocity": 0.5039370078740157
        },
        {
          "duration": 0.1327432499999972,
          "durationTicks": 240,
          "midi": 57,
          "name": "A3",
          "ticks": 95520,
          "time": 52.8318135,
          "velocity": 0.5039370078740157
        },
        {
          "duration": 0.1327432500000043,
          "durationTicks": 240,
          "midi": 53,
          "name": "F3",
          "ticks": 95760,
          "time": 52.96455675,
          "velocity": 0.5039370078740157
        },
        {
          "duration": 0.1327432499999972,
          "durationTicks": 240,
          "midi": 55,
          "name": "G3",
          "ticks": 96000,
          "time": 53.097300000000004,
          "velocity": 0.5039370078740157
        },
        {
          "duration": 0.1327432500000043,
          "durationTicks": 240,
          "midi": 55,
          "name": "G3",
          "ticks": 96240,
          "time": 53.23004325,
          "velocity": 0.5039370078740157
        },
        {
          "duration": 0.1327432499999972,
          "durationTicks": 240,
          "midi": 59,
          "name": "B3",
          "ticks": 96480,
          "time": 53.362786500000006,
          "velocity": 0.5039370078740157
        },
        {
          "duration": 0.1327432499999972,
          "durationTicks": 240,
          "midi": 55,
          "name": "G3",
          "ticks": 96720,
          "time": 53.49552975,
          "velocity": 0.5039370078740157
        },
        {
          "duration": 0.1327432500000043,
          "durationTicks": 240,
          "midi": 57,
          "name": "A3",
          "ticks": 96960,
          "time": 53.628273,
          "velocity": 0.5039370078740157
        },
        {
          "duration": 0.1327432499999972,
          "durationTicks": 240,
          "midi": 55,
          "name": "G3",
          "ticks": 97200,
          "time": 53.761016250000004,
          "velocity": 0.5039370078740157
        },
        {
          "duration": 0.1327432500000043,
          "durationTicks": 240,
          "midi": 59,
          "name": "B3",
          "ticks": 97440,
          "time": 53.8937595,
          "velocity": 0.5039370078740157
        },
        {
          "duration": 0.1327432499999972,
          "durationTicks": 240,
          "midi": 62,
          "name": "D4",
          "ticks": 97680,
          "time": 54.026502750000006,
          "velocity": 0.5039370078740157
        },
        {
          "duration": 0.1327432499999972,
          "durationTicks": 240,
          "midi": 55,
          "name": "G3",
          "ticks": 97920,
          "time": 54.159246,
          "velocity": 0.5039370078740157
        },
        {
          "duration": 0.1327432500000043,
          "durationTicks": 240,
          "midi": 55,
          "name": "G3",
          "ticks": 98160,
          "time": 54.29198925,
          "velocity": 0.5039370078740157
        },
        {
          "duration": 0.1327432499999972,
          "durationTicks": 240,
          "midi": 59,
          "name": "B3",
          "ticks": 98400,
          "time": 54.424732500000005,
          "velocity": 0.5039370078740157
        },
        {
          "duration": 0.1327432500000043,
          "durationTicks": 240,
          "midi": 55,
          "name": "G3",
          "ticks": 98640,
          "time": 54.55747575,
          "velocity": 0.5039370078740157
        },
        {
          "duration": 0.1327432499999972,
          "durationTicks": 240,
          "midi": 57,
          "name": "A3",
          "ticks": 98880,
          "time": 54.690219000000006,
          "velocity": 0.5039370078740157
        },
        {
          "duration": 0.1327432499999972,
          "durationTicks": 240,
          "midi": 55,
          "name": "G3",
          "ticks": 99120,
          "time": 54.82296225,
          "velocity": 0.5039370078740157
        },
        {
          "duration": 0.1327432500000043,
          "durationTicks": 240,
          "midi": 59,
          "name": "B3",
          "ticks": 99360,
          "time": 54.9557055,
          "velocity": 0.5039370078740157
        },
        {
          "duration": 0.1327432499999972,
          "durationTicks": 240,
          "midi": 55,
          "name": "G3",
          "ticks": 99600,
          "time": 55.088448750000005,
          "velocity": 0.5039370078740157
        },
        {
          "duration": 0.1327432500000043,
          "durationTicks": 240,
          "midi": 50,
          "name": "D3",
          "ticks": 99840,
          "time": 55.221192,
          "velocity": 0.5039370078740157
        },
        {
          "duration": 0.1327432499999972,
          "durationTicks": 240,
          "midi": 50,
          "name": "D3",
          "ticks": 100080,
          "time": 55.353935250000006,
          "velocity": 0.5039370078740157
        },
        {
          "duration": 0.1327432499999972,
          "durationTicks": 240,
          "midi": 53,
          "name": "F3",
          "ticks": 100320,
          "time": 55.486678500000004,
          "velocity": 0.5039370078740157
        },
        {
          "duration": 0.1327432500000043,
          "durationTicks": 240,
          "midi": 50,
          "name": "D3",
          "ticks": 100560,
          "time": 55.61942175,
          "velocity": 0.5039370078740157
        },
        {
          "duration": 0.1327432499999972,
          "durationTicks": 240,
          "midi": 52,
          "name": "E3",
          "ticks": 100800,
          "time": 55.752165000000005,
          "velocity": 0.5039370078740157
        },
        {
          "duration": 0.1327432499999972,
          "durationTicks": 240,
          "midi": 50,
          "name": "D3",
          "ticks": 101040,
          "time": 55.88490825,
          "velocity": 0.5039370078740157
        },
        {
          "duration": 0.1327432500000043,
          "durationTicks": 240,
          "midi": 53,
          "name": "F3",
          "ticks": 101280,
          "time": 56.0176515,
          "velocity": 0.5039370078740157
        },
        {
          "duration": 0.1327432499999972,
          "durationTicks": 240,
          "midi": 57,
          "name": "A3",
          "ticks": 101520,
          "time": 56.150394750000004,
          "velocity": 0.5039370078740157
        },
        {
          "duration": 0.1327432500000043,
          "durationTicks": 240,
          "midi": 50,
          "name": "D3",
          "ticks": 101760,
          "time": 56.283138,
          "velocity": 0.5039370078740157
        },
        {
          "duration": 0.1327432499999972,
          "durationTicks": 240,
          "midi": 50,
          "name": "D3",
          "ticks": 102000,
          "time": 56.415881250000005,
          "velocity": 0.5039370078740157
        },
        {
          "duration": 0.1327432499999972,
          "durationTicks": 240,
          "midi": 53,
          "name": "F3",
          "ticks": 102240,
          "time": 56.5486245,
          "velocity": 0.5039370078740157
        },
        {
          "duration": 0.1327432500000043,
          "durationTicks": 240,
          "midi": 50,
          "name": "D3",
          "ticks": 102480,
          "time": 56.68136775,
          "velocity": 0.5039370078740157
        },
        {
          "duration": 0.1327432499999972,
          "durationTicks": 240,
          "midi": 52,
          "name": "E3",
          "ticks": 102720,
          "time": 56.814111000000004,
          "velocity": 0.5039370078740157
        },
        {
          "duration": 0.1327432500000043,
          "durationTicks": 240,
          "midi": 50,
          "name": "D3",
          "ticks": 102960,
          "time": 56.94685425,
          "velocity": 0.5039370078740157
        },
        {
          "duration": 0.1327432499999972,
          "durationTicks": 240,
          "midi": 53,
          "name": "F3",
          "ticks": 103200,
          "time": 57.079597500000006,
          "velocity": 0.5039370078740157
        },
        {
          "duration": 0.1327432499999972,
          "durationTicks": 240,
          "midi": 50,
          "name": "D3",
          "ticks": 103440,
          "time": 57.21234075,
          "velocity": 0.5039370078740157
        },
        {
          "duration": 0.1327432500000043,
          "durationTicks": 240,
          "midi": 52,
          "name": "E3",
          "ticks": 103680,
          "time": 57.345084,
          "velocity": 0.5039370078740157
        },
        {
          "duration": 0.1327432499999972,
          "durationTicks": 240,
          "midi": 52,
          "name": "E3",
          "ticks": 103920,
          "time": 57.477827250000004,
          "velocity": 0.5039370078740157
        },
        {
          "duration": 0.1327432500000043,
          "durationTicks": 240,
          "midi": 55,
          "name": "G3",
          "ticks": 104160,
          "time": 57.6105705,
          "velocity": 0.5039370078740157
        },
        {
          "duration": 0.1327432499999972,
          "durationTicks": 240,
          "midi": 52,
          "name": "E3",
          "ticks": 104400,
          "time": 57.743313750000006,
          "velocity": 0.5039370078740157
        },
        {
          "duration": 0.1327432499999972,
          "durationTicks": 240,
          "midi": 54,
          "name": "F#3",
          "ticks": 104640,
          "time": 57.876057,
          "velocity": 0.5039370078740157
        },
        {
          "duration": 0.1327432500000043,
          "durationTicks": 240,
          "midi": 52,
          "name": "E3",
          "ticks": 104880,
          "time": 58.00880025,
          "velocity": 0.5039370078740157
        },
        {
          "duration": 0.1327432499999972,
          "durationTicks": 240,
          "midi": 55,
          "name": "G3",
          "ticks": 105120,
          "time": 58.141543500000004,
          "velocity": 0.5039370078740157
        },
        {
          "duration": 0.1327432500000043,
          "durationTicks": 240,
          "midi": 59,
          "name": "B3",
          "ticks": 105360,
          "time": 58.27428675,
          "velocity": 0.5039370078740157
        },
        {
          "duration": 0.1327432499999972,
          "durationTicks": 240,
          "midi": 52,
          "name": "E3",
          "ticks": 105600,
          "time": 58.407030000000006,
          "velocity": 0.5039370078740157
        },
        {
          "duration": 0.1327432499999972,
          "durationTicks": 240,
          "midi": 52,
          "name": "E3",
          "ticks": 105840,
          "time": 58.53977325,
          "velocity": 0.5039370078740157
        },
        {
          "duration": 0.1327432500000043,
          "durationTicks": 240,
          "midi": 55,
          "name": "G3",
          "ticks": 106080,
          "time": 58.6725165,
          "velocity": 0.5039370078740157
        },
        {
          "duration": 0.1327432499999972,
          "durationTicks": 240,
          "midi": 52,
          "name": "E3",
          "ticks": 106320,
          "time": 58.805259750000005,
          "velocity": 0.5039370078740157
        },
        {
          "duration": 0.1327432500000043,
          "durationTicks": 240,
          "midi": 54,
          "name": "F#3",
          "ticks": 106560,
          "time": 58.938003,
          "velocity": 0.5039370078740157
        },
        {
          "duration": 0.1327432499999972,
          "durationTicks": 240,
          "midi": 52,
          "name": "E3",
          "ticks": 106800,
          "time": 59.070746250000006,
          "velocity": 0.5039370078740157
        },
        {
          "duration": 0.1327432499999972,
          "durationTicks": 240,
          "midi": 55,
          "name": "G3",
          "ticks": 107040,
          "time": 59.2034895,
          "velocity": 0.5039370078740157
        },
        {
          "duration": 0.1327432500000043,
          "durationTicks": 240,
          "midi": 52,
          "name": "E3",
          "ticks": 107280,
          "time": 59.33623275,
          "velocity": 0.5039370078740157
        },
        {
          "duration": 0.1327432499999972,
          "durationTicks": 240,
          "midi": 53,
          "name": "F3",
          "ticks": 107520,
          "time": 59.468976000000005,
          "velocity": 0.5039370078740157
        },
        {
          "duration": 0.1327432500000043,
          "durationTicks": 240,
          "midi": 53,
          "name": "F3",
          "ticks": 107760,
          "time": 59.60171925,
          "velocity": 0.5039370078740157
        },
        {
          "duration": 0.1327432499999972,
          "durationTicks": 240,
          "midi": 57,
          "name": "A3",
          "ticks": 108000,
          "time": 59.73446250000001,
          "velocity": 0.5039370078740157
        },
        {
          "duration": 0.1327432499999972,
          "durationTicks": 240,
          "midi": 53,
          "name": "F3",
          "ticks": 108240,
          "time": 59.867205750000004,
          "velocity": 0.5039370078740157
        },
        {
          "duration": 0.1327432500000043,
          "durationTicks": 240,
          "midi": 55,
          "name": "G3",
          "ticks": 108480,
          "time": 59.999949,
          "velocity": 0.5039370078740157
        },
        {
          "duration": 0.1327432499999972,
          "durationTicks": 240,
          "midi": 53,
          "name": "F3",
          "ticks": 108720,
          "time": 60.132692250000005,
          "velocity": 0.5039370078740157
        },
        {
          "duration": 0.1327432500000043,
          "durationTicks": 240,
          "midi": 57,
          "name": "A3",
          "ticks": 108960,
          "time": 60.2654355,
          "velocity": 0.5039370078740157
        },
        {
          "duration": 0.1327432499999972,
          "durationTicks": 240,
          "midi": 60,
          "name": "C4",
          "ticks": 109200,
          "time": 60.39817875000001,
          "velocity": 0.5039370078740157
        },
        {
          "duration": 0.1327432499999972,
          "durationTicks": 240,
          "midi": 53,
          "name": "F3",
          "ticks": 109440,
          "time": 60.530922000000004,
          "velocity": 0.5039370078740157
        },
        {
          "duration": 0.1327432500000043,
          "durationTicks": 240,
          "midi": 53,
          "name": "F3",
          "ticks": 109680,
          "time": 60.66366525,
          "velocity": 0.5039370078740157
        },
        {
          "duration": 0.1327432499999972,
          "durationTicks": 240,
          "midi": 57,
          "name": "A3",
          "ticks": 109920,
          "time": 60.796408500000005,
          "velocity": 0.5039370078740157
        },
        {
          "duration": 0.1327432499999972,
          "durationTicks": 240,
          "midi": 53,
          "name": "F3",
          "ticks": 110160,
          "time": 60.92915175,
          "velocity": 0.5039370078740157
        },
        {
          "duration": 0.1327432500000043,
          "durationTicks": 240,
          "midi": 55,
          "name": "G3",
          "ticks": 110400,
          "time": 61.061895,
          "velocity": 0.5039370078740157
        },
        {
          "duration": 0.1327432499999972,
          "durationTicks": 240,
          "midi": 53,
          "name": "F3",
          "ticks": 110640,
          "time": 61.194638250000004,
          "velocity": 0.5039370078740157
        },
        {
          "duration": 0.1327432500000043,
          "durationTicks": 240,
          "midi": 57,
          "name": "A3",
          "ticks": 110880,
          "time": 61.3273815,
          "velocity": 0.5039370078740157
        },
        {
          "duration": 0.1327432499999972,
          "durationTicks": 240,
          "midi": 53,
          "name": "F3",
          "ticks": 111120,
          "time": 61.460124750000006,
          "velocity": 0.5039370078740157
        },
        {
          "duration": 0.1327432499999972,
          "durationTicks": 240,
          "midi": 55,
          "name": "G3",
          "ticks": 111360,
          "time": 61.592868,
          "velocity": 0.5039370078740157
        },
        {
          "duration": 0.1327432500000043,
          "durationTicks": 240,
          "midi": 55,
          "name": "G3",
          "ticks": 111600,
          "time": 61.72561125,
          "velocity": 0.5039370078740157
        },
        {
          "duration": 0.1327432499999972,
          "durationTicks": 240,
          "midi": 59,
          "name": "B3",
          "ticks": 111840,
          "time": 61.858354500000004,
          "velocity": 0.5039370078740157
        },
        {
          "duration": 0.1327432500000043,
          "durationTicks": 240,
          "midi": 55,
          "name": "G3",
          "ticks": 112080,
          "time": 61.99109775,
          "velocity": 0.5039370078740157
        },
        {
          "duration": 0.1327432499999972,
          "durationTicks": 240,
          "midi": 57,
          "name": "A3",
          "ticks": 112320,
          "time": 62.123841000000006,
          "velocity": 0.5039370078740157
        },
        {
          "duration": 0.1327432499999972,
          "durationTicks": 240,
          "midi": 55,
          "name": "G3",
          "ticks": 112560,
          "time": 62.25658425,
          "velocity": 0.5039370078740157
        },
        {
          "duration": 0.1327432500000043,
          "durationTicks": 240,
          "midi": 59,
          "name": "B3",
          "ticks": 112800,
          "time": 62.3893275,
          "velocity": 0.5039370078740157
        },
        {
          "duration": 0.1327432499999972,
          "durationTicks": 240,
          "midi": 62,
          "name": "D4",
          "ticks": 113040,
          "time": 62.522070750000005,
          "velocity": 0.5039370078740157
        },
        {
          "duration": 0.1327432500000043,
          "durationTicks": 240,
          "midi": 55,
          "name": "G3",
          "ticks": 113280,
          "time": 62.654814,
          "velocity": 0.5039370078740157
        },
        {
          "duration": 0.1327432499999972,
          "durationTicks": 240,
          "midi": 55,
          "name": "G3",
          "ticks": 113520,
          "time": 62.787557250000006,
          "velocity": 0.5039370078740157
        },
        {
          "duration": 0.1327432499999972,
          "durationTicks": 240,
          "midi": 59,
          "name": "B3",
          "ticks": 113760,
          "time": 62.9203005,
          "velocity": 0.5039370078740157
        },
        {
          "duration": 0.1327432500000043,
          "durationTicks": 240,
          "midi": 55,
          "name": "G3",
          "ticks": 114000,
          "time": 63.05304375,
          "velocity": 0.5039370078740157
        },
        {
          "duration": 0.1327432499999972,
          "durationTicks": 240,
          "midi": 57,
          "name": "A3",
          "ticks": 114240,
          "time": 63.185787000000005,
          "velocity": 0.5039370078740157
        },
        {
          "duration": 0.1327432500000043,
          "durationTicks": 240,
          "midi": 55,
          "name": "G3",
          "ticks": 114480,
          "time": 63.31853025,
          "velocity": 0.5039370078740157
        },
        {
          "duration": 0.1327432499999972,
          "durationTicks": 240,
          "midi": 59,
          "name": "B3",
          "ticks": 114720,
          "time": 63.451273500000006,
          "velocity": 0.5039370078740157
        },
        {
          "duration": 0.1327432499999972,
          "durationTicks": 240,
          "midi": 55,
          "name": "G3",
          "ticks": 114960,
          "time": 63.58401675,
          "velocity": 0.5039370078740157
        },
        {
          "duration": 0.1327432500000043,
          "durationTicks": 240,
          "midi": 52,
          "name": "E3",
          "ticks": 115200,
          "time": 63.71676,
          "velocity": 0.5039370078740157
        },
        {
          "duration": 0.1327432499999972,
          "durationTicks": 240,
          "midi": 52,
          "name": "E3",
          "ticks": 115440,
          "time": 63.849503250000005,
          "velocity": 0.5039370078740157
        },
        {
          "duration": 0.1327432500000043,
          "durationTicks": 240,
          "midi": 55,
          "name": "G3",
          "ticks": 115680,
          "time": 63.9822465,
          "velocity": 0.5039370078740157
        },
        {
          "duration": 0.1327432499999901,
          "durationTicks": 240,
          "midi": 52,
          "name": "E3",
          "ticks": 115920,
          "time": 64.11498975,
          "velocity": 0.5039370078740157
        },
        {
          "duration": 0.1327432500000043,
          "durationTicks": 240,
          "midi": 54,
          "name": "F#3",
          "ticks": 116160,
          "time": 64.247733,
          "velocity": 0.5039370078740157
        },
        {
          "duration": 0.1327432500000043,
          "durationTicks": 240,
          "midi": 52,
          "name": "E3",
          "ticks": 116400,
          "time": 64.38047625,
          "velocity": 0.5039370078740157
        },
        {
          "duration": 0.1327432500000043,
          "durationTicks": 240,
          "midi": 55,
          "name": "G3",
          "ticks": 116640,
          "time": 64.5132195,
          "velocity": 0.5039370078740157
        },
        {
          "duration": 0.1327432499999901,
          "durationTicks": 240,
          "midi": 59,
          "name": "B3",
          "ticks": 116880,
          "time": 64.64596275000001,
          "velocity": 0.5039370078740157
        },
        {
          "duration": 0.1327432500000043,
          "durationTicks": 240,
          "midi": 52,
          "name": "E3",
          "ticks": 117120,
          "time": 64.778706,
          "velocity": 0.5039370078740157
        },
        {
          "duration": 0.1327432500000043,
          "durationTicks": 240,
          "midi": 52,
          "name": "E3",
          "ticks": 117360,
          "time": 64.91144925,
          "velocity": 0.5039370078740157
        },
        {
          "duration": 0.1327432499999901,
          "durationTicks": 240,
          "midi": 55,
          "name": "G3",
          "ticks": 117600,
          "time": 65.04419250000001,
          "velocity": 0.5039370078740157
        },
        {
          "duration": 0.1327432500000043,
          "durationTicks": 240,
          "midi": 52,
          "name": "E3",
          "ticks": 117840,
          "time": 65.17693575,
          "velocity": 0.5039370078740157
        },
        {
          "duration": 0.1327432500000043,
          "durationTicks": 240,
          "midi": 54,
          "name": "F#3",
          "ticks": 118080,
          "time": 65.309679,
          "velocity": 0.5039370078740157
        },
        {
          "duration": 0.1327432499999901,
          "durationTicks": 240,
          "midi": 52,
          "name": "E3",
          "ticks": 118320,
          "time": 65.44242225,
          "velocity": 0.5039370078740157
        },
        {
          "duration": 0.1327432500000043,
          "durationTicks": 240,
          "midi": 55,
          "name": "G3",
          "ticks": 118560,
          "time": 65.5751655,
          "velocity": 0.5039370078740157
        },
        {
          "duration": 0.1327432500000043,
          "durationTicks": 240,
          "midi": 52,
          "name": "E3",
          "ticks": 118800,
          "time": 65.70790875,
          "velocity": 0.5039370078740157
        },
        {
          "duration": 0.1327432500000043,
          "durationTicks": 240,
          "midi": 52,
          "name": "E3",
          "ticks": 119040,
          "time": 65.840652,
          "velocity": 0.5039370078740157
        },
        {
          "duration": 0.1327432499999901,
          "durationTicks": 240,
          "midi": 52,
          "name": "E3",
          "ticks": 119280,
          "time": 65.97339525000001,
          "velocity": 0.5039370078740157
        },
        {
          "duration": 0.1327432500000043,
          "durationTicks": 240,
          "midi": 55,
          "name": "G3",
          "ticks": 119520,
          "time": 66.1061385,
          "velocity": 0.5039370078740157
        },
        {
          "duration": 0.1327432500000043,
          "durationTicks": 240,
          "midi": 52,
          "name": "E3",
          "ticks": 119760,
          "time": 66.23888175,
          "velocity": 0.5039370078740157
        },
        {
          "duration": 0.1327432499999901,
          "durationTicks": 240,
          "midi": 54,
          "name": "F#3",
          "ticks": 120000,
          "time": 66.37162500000001,
          "velocity": 0.5039370078740157
        },
        {
          "duration": 0.1327432500000043,
          "durationTicks": 240,
          "midi": 52,
          "name": "E3",
          "ticks": 120240,
          "time": 66.50436825,
          "velocity": 0.5039370078740157
        },
        {
          "duration": 0.1327432500000043,
          "durationTicks": 240,
          "midi": 55,
          "name": "G3",
          "ticks": 120480,
          "time": 66.6371115,
          "velocity": 0.5039370078740157
        },
        {
          "duration": 0.1327432499999901,
          "durationTicks": 240,
          "midi": 59,
          "name": "B3",
          "ticks": 120720,
          "time": 66.76985475000001,
          "velocity": 0.5039370078740157
        },
        {
          "duration": 0.1327432500000043,
          "durationTicks": 240,
          "midi": 52,
          "name": "E3",
          "ticks": 120960,
          "time": 66.902598,
          "velocity": 0.5039370078740157
        },
        {
          "duration": 0.1327432500000043,
          "durationTicks": 240,
          "midi": 52,
          "name": "E3",
          "ticks": 121200,
          "time": 67.03534125,
          "velocity": 0.5039370078740157
        },
        {
          "duration": 0.1327432500000043,
          "durationTicks": 240,
          "midi": 55,
          "name": "G3",
          "ticks": 121440,
          "time": 67.1680845,
          "velocity": 0.5039370078740157
        },
        {
          "duration": 0.1327432499999901,
          "durationTicks": 240,
          "midi": 52,
          "name": "E3",
          "ticks": 121680,
          "time": 67.30082775000001,
          "velocity": 0.5039370078740157
        },
        {
          "duration": 0.1327432500000043,
          "durationTicks": 240,
          "midi": 54,
          "name": "F#3",
          "ticks": 121920,
          "time": 67.433571,
          "velocity": 0.5039370078740157
        },
        {
          "duration": 0.1327432500000043,
          "durationTicks": 240,
          "midi": 52,
          "name": "E3",
          "ticks": 122160,
          "time": 67.56631425,
          "velocity": 0.5039370078740157
        },
        {
          "duration": 0.1327432499999901,
          "durationTicks": 240,
          "midi": 55,
          "name": "G3",
          "ticks": 122400,
          "time": 67.69905750000001,
          "velocity": 0.5039370078740157
        },
        {
          "duration": 0.1327432500000043,
          "durationTicks": 240,
          "midi": 57,
          "name": "A3",
          "ticks": 122640,
          "time": 67.83180075,
          "velocity": 0.5039370078740157
        },
        {
          "duration": 0.1327432500000043,
          "durationTicks": 240,
          "midi": 57,
          "name": "A3",
          "ticks": 122880,
          "time": 67.964544,
          "velocity": 0.5039370078740157
        },
        {
          "duration": 0.1327432499999901,
          "durationTicks": 240,
          "midi": 45,
          "name": "A2",
          "ticks": 123120,
          "time": 68.09728725000001,
          "velocity": 0.5039370078740157
        },
        {
          "duration": 0.1327432500000043,
          "durationTicks": 240,
          "midi": 60,
          "name": "C4",
          "ticks": 123360,
          "time": 68.2300305,
          "velocity": 0.5039370078740157
        },
        {
          "duration": 0.1327432500000043,
          "durationTicks": 240,
          "midi": 45,
          "name": "A2",
          "ticks": 123600,
          "time": 68.36277375,
          "velocity": 0.5039370078740157
        },
        {
          "duration": 0.1327432499999901,
          "durationTicks": 240,
          "midi": 59,
          "name": "B3",
          "ticks": 123840,
          "time": 68.495517,
          "velocity": 0.5039370078740157
        },
        {
          "duration": 0.1327432500000043,
          "durationTicks": 240,
          "midi": 45,
          "name": "A2",
          "ticks": 124080,
          "time": 68.62826025,
          "velocity": 0.5039370078740157
        },
        {
          "duration": 0.1327432500000043,
          "durationTicks": 240,
          "midi": 60,
          "name": "C4",
          "ticks": 124320,
          "time": 68.7610035,
          "velocity": 0.5039370078740157
        },
        {
          "duration": 0.1327432500000043,
          "durationTicks": 240,
          "midi": 64,
          "name": "E4",
          "ticks": 124560,
          "time": 68.89374675,
          "velocity": 0.5039370078740157
        },
        {
          "duration": 0.1327432499999901,
          "durationTicks": 240,
          "midi": 45,
          "name": "A2",
          "ticks": 124800,
          "time": 69.02649000000001,
          "velocity": 0.5039370078740157
        },
        {
          "duration": 0.1327432500000043,
          "durationTicks": 240,
          "midi": 57,
          "name": "A3",
          "ticks": 125040,
          "time": 69.15923325,
          "velocity": 0.5039370078740157
        },
        {
          "duration": 0.1327432500000043,
          "durationTicks": 240,
          "midi": 60,
          "name": "C4",
          "ticks": 125280,
          "time": 69.2919765,
          "velocity": 0.5039370078740157
        },
        {
          "duration": 0.1327432499999901,
          "durationTicks": 240,
          "midi": 45,
          "name": "A2",
          "ticks": 125520,
          "time": 69.42471975000001,
          "velocity": 0.5039370078740157
        },
        {
          "duration": 0.1327432500000043,
          "durationTicks": 240,
          "midi": 59,
          "name": "B3",
          "ticks": 125760,
          "time": 69.557463,
          "velocity": 0.5039370078740157
        },
        {
          "duration": 0.1327432500000043,
          "durationTicks": 240,
          "midi": 45,
          "name": "A2",
          "ticks": 126000,
          "time": 69.69020625,
          "velocity": 0.5039370078740157
        },
        {
          "duration": 0.1327432499999901,
          "durationTicks": 240,
          "midi": 60,
          "name": "C4",
          "ticks": 126240,
          "time": 69.82294950000001,
          "velocity": 0.5039370078740157
        },
        {
          "duration": 0.1327432500000043,
          "durationTicks": 240,
          "midi": 57,
          "name": "A3",
          "ticks": 126480,
          "time": 69.95569275,
          "velocity": 0.5039370078740157
        },
        {
          "duration": 0.1327432500000043,
          "durationTicks": 240,
          "midi": 45,
          "name": "A2",
          "ticks": 126720,
          "time": 70.088436,
          "velocity": 0.5039370078740157
        },
        {
          "duration": 0.1327432500000043,
          "durationTicks": 240,
          "midi": 57,
          "name": "A3",
          "ticks": 126960,
          "time": 70.22117925,
          "velocity": 0.5039370078740157
        },
        {
          "duration": 0.1327432499999901,
          "durationTicks": 240,
          "midi": 60,
          "name": "C4",
          "ticks": 127200,
          "time": 70.35392250000001,
          "velocity": 0.5039370078740157
        },
        {
          "duration": 0.1327432500000043,
          "durationTicks": 240,
          "midi": 45,
          "name": "A2",
          "ticks": 127440,
          "time": 70.48666575,
          "velocity": 0.5039370078740157
        },
        {
          "duration": 0.1327432500000043,
          "durationTicks": 240,
          "midi": 59,
          "name": "B3",
          "ticks": 127680,
          "time": 70.619409,
          "velocity": 0.5039370078740157
        },
        {
          "duration": 0.1327432499999901,
          "durationTicks": 240,
          "midi": 45,
          "name": "A2",
          "ticks": 127920,
          "time": 70.75215225000001,
          "velocity": 0.5039370078740157
        },
        {
          "duration": 0.1327432500000043,
          "durationTicks": 240,
          "midi": 60,
          "name": "C4",
          "ticks": 128160,
          "time": 70.8848955,
          "velocity": 0.5039370078740157
        },
        {
          "duration": 0.1327432500000043,
          "durationTicks": 240,
          "midi": 64,
          "name": "E4",
          "ticks": 128400,
          "time": 71.01763875,
          "velocity": 0.5039370078740157
        },
        {
          "duration": 0.1327432499999901,
          "durationTicks": 240,
          "midi": 45,
          "name": "A2",
          "ticks": 128640,
          "time": 71.15038200000001,
          "velocity": 0.5039370078740157
        },
        {
          "duration": 0.1327432500000043,
          "durationTicks": 240,
          "midi": 57,
          "name": "A3",
          "ticks": 128880,
          "time": 71.28312525,
          "velocity": 0.5039370078740157
        },
        {
          "duration": 0.1327432500000043,
          "durationTicks": 240,
          "midi": 60,
          "name": "C4",
          "ticks": 129120,
          "time": 71.4158685,
          "velocity": 0.5039370078740157
        },
        {
          "duration": 0.1327432500000043,
          "durationTicks": 240,
          "midi": 45,
          "name": "A2",
          "ticks": 129360,
          "time": 71.54861175,
          "velocity": 0.5039370078740157
        },
        {
          "duration": 0.1327432499999901,
          "durationTicks": 240,
          "midi": 59,
          "name": "B3",
          "ticks": 129600,
          "time": 71.68135500000001,
          "velocity": 0.5039370078740157
        },
        {
          "duration": 0.1327432500000043,
          "durationTicks": 240,
          "midi": 45,
          "name": "A2",
          "ticks": 129840,
          "time": 71.81409825,
          "velocity": 0.5039370078740157
        },
        {
          "duration": 0.1327432500000043,
          "durationTicks": 240,
          "midi": 60,
          "name": "C4",
          "ticks": 130080,
          "time": 71.9468415,
          "velocity": 0.5039370078740157
        },
        {
          "duration": 0.1327432499999901,
          "durationTicks": 240,
          "midi": 57,
          "name": "A3",
          "ticks": 130320,
          "time": 72.07958475000001,
          "velocity": 0.5039370078740157
        },
        {
          "duration": 0.1327432500000043,
          "durationTicks": 240,
          "midi": 52,
          "name": "E3",
          "ticks": 130560,
          "time": 72.212328,
          "velocity": 0.5039370078740157
        },
        {
          "duration": 0.1327432500000043,
          "durationTicks": 240,
          "midi": 40,
          "name": "E2",
          "ticks": 130800,
          "time": 72.34507125,
          "velocity": 0.5039370078740157
        },
        {
          "duration": 0.1327432499999901,
          "durationTicks": 240,
          "midi": 55,
          "name": "G3",
          "ticks": 131040,
          "time": 72.47781450000001,
          "velocity": 0.5039370078740157
        },
        {
          "duration": 0.1327432500000043,
          "durationTicks": 240,
          "midi": 40,
          "name": "E2",
          "ticks": 131280,
          "time": 72.61055775,
          "velocity": 0.5039370078740157
        },
        {
          "duration": 0.1327432500000043,
          "durationTicks": 240,
          "midi": 54,
          "name": "F#3",
          "ticks": 131520,
          "time": 72.743301,
          "velocity": 0.5039370078740157
        },
        {
          "duration": 0.1327432499999901,
          "durationTicks": 240,
          "midi": 40,
          "name": "E2",
          "ticks": 131760,
          "time": 72.87604425,
          "velocity": 0.5039370078740157
        },
        {
          "duration": 0.1327432500000043,
          "durationTicks": 240,
          "midi": 55,
          "name": "G3",
          "ticks": 132000,
          "time": 73.0087875,
          "velocity": 0.5039370078740157
        },
        {
          "duration": 0.1327432500000043,
          "durationTicks": 240,
          "midi": 59,
          "name": "B3",
          "ticks": 132240,
          "time": 73.14153075,
          "velocity": 0.5039370078740157
        },
        {
          "duration": 0.1327432500000043,
          "durationTicks": 240,
          "midi": 40,
          "name": "E2",
          "ticks": 132480,
          "time": 73.274274,
          "velocity": 0.5039370078740157
        },
        {
          "duration": 0.1327432499999901,
          "durationTicks": 240,
          "midi": 52,
          "name": "E3",
          "ticks": 132720,
          "time": 73.40701725000001,
          "velocity": 0.5039370078740157
        },
        {
          "duration": 0.1327432500000043,
          "durationTicks": 240,
          "midi": 55,
          "name": "G3",
          "ticks": 132960,
          "time": 73.5397605,
          "velocity": 0.5039370078740157
        },
        {
          "duration": 0.1327432500000043,
          "durationTicks": 240,
          "midi": 40,
          "name": "E2",
          "ticks": 133200,
          "time": 73.67250375,
          "velocity": 0.5039370078740157
        },
        {
          "duration": 0.1327432499999901,
          "durationTicks": 240,
          "midi": 54,
          "name": "F#3",
          "ticks": 133440,
          "time": 73.80524700000001,
          "velocity": 0.5039370078740157
        },
        {
          "duration": 0.1327432500000043,
          "durationTicks": 240,
          "midi": 40,
          "name": "E2",
          "ticks": 133680,
          "time": 73.93799025,
          "velocity": 0.5039370078740157
        },
        {
          "duration": 0.1327432500000043,
          "durationTicks": 240,
          "midi": 55,
          "name": "G3",
          "ticks": 133920,
          "time": 74.0707335,
          "velocity": 0.5039370078740157
        },
        {
          "duration": 0.1327432499999901,
          "durationTicks": 240,
          "midi": 52,
          "name": "E3",
          "ticks": 134160,
          "time": 74.20347675000001,
          "velocity": 0.5039370078740157
        },
        {
          "duration": 0.1327432500000043,
          "durationTicks": 240,
          "midi": 40,
          "name": "E2",
          "ticks": 134400,
          "time": 74.33622,
          "velocity": 0.5039370078740157
        },
        {
          "duration": 0.1327432500000043,
          "durationTicks": 240,
          "midi": 52,
          "name": "E3",
          "ticks": 134640,
          "time": 74.46896325,
          "velocity": 0.5039370078740157
        },
        {
          "duration": 0.1327432500000043,
          "durationTicks": 240,
          "midi": 55,
          "name": "G3",
          "ticks": 134880,
          "time": 74.6017065,
          "velocity": 0.5039370078740157
        },
        {
          "duration": 0.1327432499999901,
          "durationTicks": 240,
          "midi": 40,
          "name": "E2",
          "ticks": 135120,
          "time": 74.73444975000001,
          "velocity": 0.5039370078740157
        },
        {
          "duration": 0.1327432500000043,
          "durationTicks": 240,
          "midi": 54,
          "name": "F#3",
          "ticks": 135360,
          "time": 74.867193,
          "velocity": 0.5039370078740157
        },
        {
          "duration": 0.1327432500000043,
          "durationTicks": 240,
          "midi": 40,
          "name": "E2",
          "ticks": 135600,
          "time": 74.99993625,
          "velocity": 0.5039370078740157
        },
        {
          "duration": 0.1327432499999901,
          "durationTicks": 240,
          "midi": 55,
          "name": "G3",
          "ticks": 135840,
          "time": 75.13267950000001,
          "velocity": 0.5039370078740157
        },
        {
          "duration": 0.1327432500000043,
          "durationTicks": 240,
          "midi": 59,
          "name": "B3",
          "ticks": 136080,
          "time": 75.26542275,
          "velocity": 0.5039370078740157
        },
        {
          "duration": 0.1327432500000043,
          "durationTicks": 240,
          "midi": 40,
          "name": "E2",
          "ticks": 136320,
          "time": 75.398166,
          "velocity": 0.5039370078740157
        },
        {
          "duration": 0.1327432499999901,
          "durationTicks": 240,
          "midi": 52,
          "name": "E3",
          "ticks": 136560,
          "time": 75.53090925000001,
          "velocity": 0.5039370078740157
        },
        {
          "duration": 0.1327432500000043,
          "durationTicks": 240,
          "midi": 55,
          "name": "G3",
          "ticks": 136800,
          "time": 75.6636525,
          "velocity": 0.5039370078740157
        },
        {
          "duration": 0.1327432500000043,
          "durationTicks": 240,
          "midi": 40,
          "name": "E2",
          "ticks": 137040,
          "time": 75.79639575,
          "velocity": 0.5039370078740157
        },
        {
          "duration": 0.1327432500000043,
          "durationTicks": 240,
          "midi": 54,
          "name": "F#3",
          "ticks": 137280,
          "time": 75.929139,
          "velocity": 0.5039370078740157
        },
        {
          "duration": 0.1327432499999901,
          "durationTicks": 240,
          "midi": 40,
          "name": "E2",
          "ticks": 137520,
          "time": 76.06188225000001,
          "velocity": 0.5039370078740157
        },
        {
          "duration": 0.1327432500000043,
          "durationTicks": 240,
          "midi": 55,
          "name": "G3",
          "ticks": 137760,
          "time": 76.1946255,
          "velocity": 0.5039370078740157
        },
        {
          "duration": 0.1327432500000043,
          "durationTicks": 240,
          "midi": 52,
          "name": "E3",
          "ticks": 138000,
          "time": 76.32736875,
          "velocity": 0.5039370078740157
        },
        {
          "duration": 0.1327432499999901,
          "durationTicks": 240,
          "midi": 57,
          "name": "A3",
          "ticks": 138240,
          "time": 76.46011200000001,
          "velocity": 0.5039370078740157
        },
        {
          "duration": 0.1327432500000043,
          "durationTicks": 240,
          "midi": 45,
          "name": "A2",
          "ticks": 138480,
          "time": 76.59285525,
          "velocity": 0.5039370078740157
        },
        {
          "duration": 0.1327432500000043,
          "durationTicks": 240,
          "midi": 60,
          "name": "C4",
          "ticks": 138720,
          "time": 76.7255985,
          "velocity": 0.5039370078740157
        },
        {
          "duration": 0.1327432499999901,
          "durationTicks": 240,
          "midi": 45,
          "name": "A2",
          "ticks": 138960,
          "time": 76.85834175000001,
          "velocity": 0.5039370078740157
        },
        {
          "duration": 0.1327432500000043,
          "durationTicks": 240,
          "midi": 59,
          "name": "B3",
          "ticks": 139200,
          "time": 76.991085,
          "velocity": 0.5039370078740157
        },
        {
          "duration": 0.1327432500000043,
          "durationTicks": 240,
          "midi": 45,
          "name": "A2",
          "ticks": 139440,
          "time": 77.12382825,
          "velocity": 0.5039370078740157
        },
        {
          "duration": 0.1327432500000043,
          "durationTicks": 240,
          "midi": 60,
          "name": "C4",
          "ticks": 139680,
          "time": 77.2565715,
          "velocity": 0.5039370078740157
        },
        {
          "duration": 0.1327432499999901,
          "durationTicks": 240,
          "midi": 64,
          "name": "E4",
          "ticks": 139920,
          "time": 77.38931475000001,
          "velocity": 0.5039370078740157
        },
        {
          "duration": 0.1327432500000043,
          "durationTicks": 240,
          "midi": 45,
          "name": "A2",
          "ticks": 140160,
          "time": 77.522058,
          "velocity": 0.5039370078740157
        },
        {
          "duration": 0.1327432500000043,
          "durationTicks": 240,
          "midi": 57,
          "name": "A3",
          "ticks": 140400,
          "time": 77.65480125,
          "velocity": 0.5039370078740157
        },
        {
          "duration": 0.1327432499999901,
          "durationTicks": 240,
          "midi": 60,
          "name": "C4",
          "ticks": 140640,
          "time": 77.78754450000001,
          "velocity": 0.5039370078740157
        },
        {
          "duration": 0.1327432500000043,
          "durationTicks": 240,
          "midi": 45,
          "name": "A2",
          "ticks": 140880,
          "time": 77.92028775,
          "velocity": 0.5039370078740157
        },
        {
          "duration": 0.1327432500000043,
          "durationTicks": 240,
          "midi": 59,
          "name": "B3",
          "ticks": 141120,
          "time": 78.053031,
          "velocity": 0.5039370078740157
        },
        {
          "duration": 0.1327432499999901,
          "durationTicks": 240,
          "midi": 45,
          "name": "A2",
          "ticks": 141360,
          "time": 78.18577425000001,
          "velocity": 0.5039370078740157
        },
        {
          "duration": 0.1327432500000043,
          "durationTicks": 240,
          "midi": 60,
          "name": "C4",
          "ticks": 141600,
          "time": 78.3185175,
          "velocity": 0.5039370078740157
        },
        {
          "duration": 0.1327432500000043,
          "durationTicks": 240,
          "midi": 57,
          "name": "A3",
          "ticks": 141840,
          "time": 78.45126075,
          "velocity": 0.5039370078740157
        },
        {
          "duration": 0.1327432499999901,
          "durationTicks": 240,
          "midi": 45,
          "name": "A2",
          "ticks": 142080,
          "time": 78.58400400000001,
          "velocity": 0.5039370078740157
        },
        {
          "duration": 0.1327432500000043,
          "durationTicks": 240,
          "midi": 57,
          "name": "A3",
          "ticks": 142320,
          "time": 78.71674725,
          "velocity": 0.5039370078740157
        },
        {
          "duration": 0.1327432500000043,
          "durationTicks": 240,
          "midi": 60,
          "name": "C4",
          "ticks": 142560,
          "time": 78.8494905,
          "velocity": 0.5039370078740157
        },
        {
          "duration": 0.1327432500000043,
          "durationTicks": 240,
          "midi": 45,
          "name": "A2",
          "ticks": 142800,
          "time": 78.98223375,
          "velocity": 0.5039370078740157
        },
        {
          "duration": 0.1327432499999901,
          "durationTicks": 240,
          "midi": 59,
          "name": "B3",
          "ticks": 143040,
          "time": 79.11497700000001,
          "velocity": 0.5039370078740157
        },
        {
          "duration": 0.1327432500000043,
          "durationTicks": 240,
          "midi": 45,
          "name": "A2",
          "ticks": 143280,
          "time": 79.24772025,
          "velocity": 0.5039370078740157
        },
        {
          "duration": 0.1327432500000043,
          "durationTicks": 240,
          "midi": 60,
          "name": "C4",
          "ticks": 143520,
          "time": 79.3804635,
          "velocity": 0.5039370078740157
        },
        {
          "duration": 0.1327432499999901,
          "durationTicks": 240,
          "midi": 64,
          "name": "E4",
          "ticks": 143760,
          "time": 79.51320675000001,
          "velocity": 0.5039370078740157
        },
        {
          "duration": 0.1327432500000043,
          "durationTicks": 240,
          "midi": 45,
          "name": "A2",
          "ticks": 144000,
          "time": 79.64595,
          "velocity": 0.5039370078740157
        },
        {
          "duration": 0.1327432500000043,
          "durationTicks": 240,
          "midi": 57,
          "name": "A3",
          "ticks": 144240,
          "time": 79.77869325,
          "velocity": 0.5039370078740157
        },
        {
          "duration": 0.1327432499999901,
          "durationTicks": 240,
          "midi": 60,
          "name": "C4",
          "ticks": 144480,
          "time": 79.91143650000001,
          "velocity": 0.5039370078740157
        },
        {
          "duration": 0.1327432500000043,
          "durationTicks": 240,
          "midi": 45,
          "name": "A2",
          "ticks": 144720,
          "time": 80.04417975,
          "velocity": 0.5039370078740157
        },
        {
          "duration": 0.1327432500000043,
          "durationTicks": 240,
          "midi": 59,
          "name": "B3",
          "ticks": 144960,
          "time": 80.176923,
          "velocity": 0.5039370078740157
        },
        {
          "duration": 0.1327432500000043,
          "durationTicks": 240,
          "midi": 45,
          "name": "A2",
          "ticks": 145200,
          "time": 80.30966625,
          "velocity": 0.5039370078740157
        },
        {
          "duration": 0.1327432499999901,
          "durationTicks": 240,
          "midi": 60,
          "name": "C4",
          "ticks": 145440,
          "time": 80.44240950000001,
          "velocity": 0.5039370078740157
        },
        {
          "duration": 0.1327432500000043,
          "durationTicks": 240,
          "midi": 57,
          "name": "A3",
          "ticks": 145680,
          "time": 80.57515275,
          "velocity": 0.5039370078740157
        },
        {
          "duration": 0.1327432500000043,
          "durationTicks": 240,
          "midi": 52,
          "name": "E3",
          "ticks": 145920,
          "time": 80.707896,
          "velocity": 0.5039370078740157
        },
        {
          "duration": 0.1327432499999901,
          "durationTicks": 240,
          "midi": 40,
          "name": "E2",
          "ticks": 146160,
          "time": 80.84063925000001,
          "velocity": 0.5039370078740157
        },
        {
          "duration": 0.1327432500000043,
          "durationTicks": 240,
          "midi": 55,
          "name": "G3",
          "ticks": 146400,
          "time": 80.9733825,
          "velocity": 0.5039370078740157
        },
        {
          "duration": 0.1327432500000043,
          "durationTicks": 240,
          "midi": 40,
          "name": "E2",
          "ticks": 146640,
          "time": 81.10612575,
          "velocity": 0.5039370078740157
        },
        {
          "duration": 0.1327432499999901,
          "durationTicks": 240,
          "midi": 54,
          "name": "F#3",
          "ticks": 146880,
          "time": 81.23886900000001,
          "velocity": 0.5039370078740157
        },
        {
          "duration": 0.1327432500000043,
          "durationTicks": 240,
          "midi": 40,
          "name": "E2",
          "ticks": 147120,
          "time": 81.37161225,
          "velocity": 0.5039370078740157
        },
        {
          "duration": 0.1327432500000043,
          "durationTicks": 240,
          "midi": 55,
          "name": "G3",
          "ticks": 147360,
          "time": 81.5043555,
          "velocity": 0.5039370078740157
        },
        {
          "duration": 0.1327432500000043,
          "durationTicks": 240,
          "midi": 59,
          "name": "B3",
          "ticks": 147600,
          "time": 81.63709875,
          "velocity": 0.5039370078740157
        },
        {
          "duration": 0.1327432499999901,
          "durationTicks": 240,
          "midi": 40,
          "name": "E2",
          "ticks": 147840,
          "time": 81.76984200000001,
          "velocity": 0.5039370078740157
        },
        {
          "duration": 0.1327432500000043,
          "durationTicks": 240,
          "midi": 52,
          "name": "E3",
          "ticks": 148080,
          "time": 81.90258525,
          "velocity": 0.5039370078740157
        },
        {
          "duration": 0.1327432500000043,
          "durationTicks": 240,
          "midi": 55,
          "name": "G3",
          "ticks": 148320,
          "time": 82.0353285,
          "velocity": 0.5039370078740157
        },
        {
          "duration": 0.1327432499999901,
          "durationTicks": 240,
          "midi": 40,
          "name": "E2",
          "ticks": 148560,
          "time": 82.16807175000001,
          "velocity": 0.5039370078740157
        },
        {
          "duration": 0.1327432500000043,
          "durationTicks": 240,
          "midi": 54,
          "name": "F#3",
          "ticks": 148800,
          "time": 82.300815,
          "velocity": 0.5039370078740157
        },
        {
          "duration": 0.1327432500000043,
          "durationTicks": 240,
          "midi": 40,
          "name": "E2",
          "ticks": 149040,
          "time": 82.43355825,
          "velocity": 0.5039370078740157
        },
        {
          "duration": 0.1327432499999901,
          "durationTicks": 240,
          "midi": 55,
          "name": "G3",
          "ticks": 149280,
          "time": 82.56630150000001,
          "velocity": 0.5039370078740157
        },
        {
          "duration": 0.1327432500000043,
          "durationTicks": 240,
          "midi": 52,
          "name": "E3",
          "ticks": 149520,
          "time": 82.69904475,
          "velocity": 0.5039370078740157
        },
        {
          "duration": 0.1327432500000043,
          "durationTicks": 240,
          "midi": 40,
          "name": "E2",
          "ticks": 149760,
          "time": 82.831788,
          "velocity": 0.5039370078740157
        },
        {
          "duration": 0.1327432499999901,
          "durationTicks": 240,
          "midi": 52,
          "name": "E3",
          "ticks": 150000,
          "time": 82.96453125000001,
          "velocity": 0.5039370078740157
        },
        {
          "duration": 0.1327432500000043,
          "durationTicks": 240,
          "midi": 55,
          "name": "G3",
          "ticks": 150240,
          "time": 83.0972745,
          "velocity": 0.5039370078740157
        },
        {
          "duration": 0.1327432500000043,
          "durationTicks": 240,
          "midi": 40,
          "name": "E2",
          "ticks": 150480,
          "time": 83.23001775,
          "velocity": 0.5039370078740157
        },
        {
          "duration": 0.1327432500000043,
          "durationTicks": 240,
          "midi": 54,
          "name": "F#3",
          "ticks": 150720,
          "time": 83.362761,
          "velocity": 0.5039370078740157
        },
        {
          "duration": 0.1327432499999901,
          "durationTicks": 240,
          "midi": 40,
          "name": "E2",
          "ticks": 150960,
          "time": 83.49550425000001,
          "velocity": 0.5039370078740157
        },
        {
          "duration": 0.1327432500000043,
          "durationTicks": 240,
          "midi": 55,
          "name": "G3",
          "ticks": 151200,
          "time": 83.6282475,
          "velocity": 0.5039370078740157
        },
        {
          "duration": 0.1327432500000043,
          "durationTicks": 240,
          "midi": 59,
          "name": "B3",
          "ticks": 151440,
          "time": 83.76099075,
          "velocity": 0.5039370078740157
        },
        {
          "duration": 0.1327432499999901,
          "durationTicks": 240,
          "midi": 40,
          "name": "E2",
          "ticks": 151680,
          "time": 83.89373400000001,
          "velocity": 0.5039370078740157
        },
        {
          "duration": 0.1327432500000043,
          "durationTicks": 240,
          "midi": 52,
          "name": "E3",
          "ticks": 151920,
          "time": 84.02647725,
          "velocity": 0.5039370078740157
        },
        {
          "duration": 0.1327432500000043,
          "durationTicks": 240,
          "midi": 55,
          "name": "G3",
          "ticks": 152160,
          "time": 84.1592205,
          "velocity": 0.5039370078740157
        },
        {
          "duration": 0.1327432499999901,
          "durationTicks": 240,
          "midi": 40,
          "name": "E2",
          "ticks": 152400,
          "time": 84.29196375000001,
          "velocity": 0.5039370078740157
        },
        {
          "duration": 0.1327432500000043,
          "durationTicks": 240,
          "midi": 54,
          "name": "F#3",
          "ticks": 152640,
          "time": 84.424707,
          "velocity": 0.5039370078740157
        },
        {
          "duration": 0.1327432500000043,
          "durationTicks": 240,
          "midi": 40,
          "name": "E2",
          "ticks": 152880,
          "time": 84.55745025,
          "velocity": 0.5039370078740157
        },
        {
          "duration": 0.1327432500000043,
          "durationTicks": 240,
          "midi": 55,
          "name": "G3",
          "ticks": 153120,
          "time": 84.6901935,
          "velocity": 0.5039370078740157
        },
        {
          "duration": 0.1327432499999901,
          "durationTicks": 240,
          "midi": 52,
          "name": "E3",
          "ticks": 153360,
          "time": 84.82293675000001,
          "velocity": 0.5039370078740157
        },
        {
          "duration": 0.1327432500000043,
          "durationTicks": 240,
          "midi": 53,
          "name": "F3",
          "ticks": 153600,
          "time": 84.95568,
          "velocity": 0.5039370078740157
        },
        {
          "duration": 0.1327432500000043,
          "durationTicks": 240,
          "midi": 53,
          "name": "F3",
          "ticks": 153840,
          "time": 85.08842325,
          "velocity": 0.5039370078740157
        },
        {
          "duration": 0.1327432499999901,
          "durationTicks": 240,
          "midi": 57,
          "name": "A3",
          "ticks": 154080,
          "time": 85.22116650000001,
          "velocity": 0.5039370078740157
        },
        {
          "duration": 0.1327432500000043,
          "durationTicks": 240,
          "midi": 53,
          "name": "F3",
          "ticks": 154320,
          "time": 85.35390975,
          "velocity": 0.5039370078740157
        },
        {
          "duration": 0.1327432500000043,
          "durationTicks": 240,
          "midi": 55,
          "name": "G3",
          "ticks": 154560,
          "time": 85.486653,
          "velocity": 0.5039370078740157
        },
        {
          "duration": 0.1327432499999901,
          "durationTicks": 240,
          "midi": 53,
          "name": "F3",
          "ticks": 154800,
          "time": 85.61939625000001,
          "velocity": 0.5039370078740157
        },
        {
          "duration": 0.1327432500000043,
          "durationTicks": 240,
          "midi": 57,
          "name": "A3",
          "ticks": 155040,
          "time": 85.7521395,
          "velocity": 0.5039370078740157
        },
        {
          "duration": 0.1327432500000043,
          "durationTicks": 240,
          "midi": 60,
          "name": "C4",
          "ticks": 155280,
          "time": 85.88488275,
          "velocity": 0.5039370078740157
        },
        {
          "duration": 0.1327432500000043,
          "durationTicks": 240,
          "midi": 53,
          "name": "F3",
          "ticks": 155520,
          "time": 86.017626,
          "velocity": 0.5039370078740157
        },
        {
          "duration": 0.1327432499999901,
          "durationTicks": 240,
          "midi": 53,
          "name": "F3",
          "ticks": 155760,
          "time": 86.15036925000001,
          "velocity": 0.5039370078740157
        },
        {
          "duration": 0.1327432500000043,
          "durationTicks": 240,
          "midi": 57,
          "name": "A3",
          "ticks": 156000,
          "time": 86.2831125,
          "velocity": 0.5039370078740157
        },
        {
          "duration": 0.1327432500000043,
          "durationTicks": 240,
          "midi": 53,
          "name": "F3",
          "ticks": 156240,
          "time": 86.41585575,
          "velocity": 0.5039370078740157
        },
        {
          "duration": 0.1327432499999901,
          "durationTicks": 240,
          "midi": 55,
          "name": "G3",
          "ticks": 156480,
          "time": 86.54859900000001,
          "velocity": 0.5039370078740157
        },
        {
          "duration": 0.1327432500000043,
          "durationTicks": 240,
          "midi": 53,
          "name": "F3",
          "ticks": 156720,
          "time": 86.68134225,
          "velocity": 0.5039370078740157
        },
        {
          "duration": 0.1327432500000043,
          "durationTicks": 240,
          "midi": 57,
          "name": "A3",
          "ticks": 156960,
          "time": 86.8140855,
          "velocity": 0.5039370078740157
        },
        {
          "duration": 0.1327432499999901,
          "durationTicks": 240,
          "midi": 53,
          "name": "F3",
          "ticks": 157200,
          "time": 86.94682875000001,
          "velocity": 0.5039370078740157
        },
        {
          "duration": 0.1327432500000043,
          "durationTicks": 240,
          "midi": 55,
          "name": "G3",
          "ticks": 157440,
          "time": 87.079572,
          "velocity": 0.5039370078740157
        },
        {
          "duration": 0.1327432500000043,
          "durationTicks": 240,
          "midi": 55,
          "name": "G3",
          "ticks": 157680,
          "time": 87.21231525,
          "velocity": 0.5039370078740157
        },
        {
          "duration": 0.1327432499999901,
          "durationTicks": 240,
          "midi": 59,
          "name": "B3",
          "ticks": 157920,
          "time": 87.34505850000001,
          "velocity": 0.5039370078740157
        },
        {
          "duration": 0.1327432500000043,
          "durationTicks": 240,
          "midi": 55,
          "name": "G3",
          "ticks": 158160,
          "time": 87.47780175,
          "velocity": 0.5039370078740157
        },
        {
          "duration": 0.1327432500000043,
          "durationTicks": 240,
          "midi": 57,
          "name": "A3",
          "ticks": 158400,
          "time": 87.610545,
          "velocity": 0.5039370078740157
        },
        {
          "duration": 0.1327432500000043,
          "durationTicks": 240,
          "midi": 55,
          "name": "G3",
          "ticks": 158640,
          "time": 87.74328825,
          "velocity": 0.5039370078740157
        },
        {
          "duration": 0.1327432499999901,
          "durationTicks": 240,
          "midi": 59,
          "name": "B3",
          "ticks": 158880,
          "time": 87.87603150000001,
          "velocity": 0.5039370078740157
        },
        {
          "duration": 0.1327432500000043,
          "durationTicks": 240,
          "midi": 62,
          "name": "D4",
          "ticks": 159120,
          "time": 88.00877475,
          "velocity": 0.5039370078740157
        },
        {
          "duration": 0.1327432500000043,
          "durationTicks": 240,
          "midi": 55,
          "name": "G3",
          "ticks": 159360,
          "time": 88.141518,
          "velocity": 0.5039370078740157
        },
        {
          "duration": 0.1327432499999901,
          "durationTicks": 240,
          "midi": 55,
          "name": "G3",
          "ticks": 159600,
          "time": 88.27426125000001,
          "velocity": 0.5039370078740157
        },
        {
          "duration": 0.1327432500000043,
          "durationTicks": 240,
          "midi": 59,
          "name": "B3",
          "ticks": 159840,
          "time": 88.4070045,
          "velocity": 0.5039370078740157
        },
        {
          "duration": 0.1327432500000043,
          "durationTicks": 240,
          "midi": 55,
          "name": "G3",
          "ticks": 160080,
          "time": 88.53974775,
          "velocity": 0.5039370078740157
        },
        {
          "duration": 0.1327432499999901,
          "durationTicks": 240,
          "midi": 57,
          "name": "A3",
          "ticks": 160320,
          "time": 88.67249100000001,
          "velocity": 0.5039370078740157
        },
        {
          "duration": 0.1327432500000043,
          "durationTicks": 240,
          "midi": 55,
          "name": "G3",
          "ticks": 160560,
          "time": 88.80523425,
          "velocity": 0.5039370078740157
        },
        {
          "duration": 0.1327432500000043,
          "durationTicks": 240,
          "midi": 59,
          "name": "B3",
          "ticks": 160800,
          "time": 88.9379775,
          "velocity": 0.5039370078740157
        },
        {
          "duration": 0.1327432500000043,
          "durationTicks": 240,
          "midi": 55,
          "name": "G3",
          "ticks": 161040,
          "time": 89.07072075,
          "velocity": 0.5039370078740157
        },
        {
          "duration": 0.1327432499999901,
          "durationTicks": 240,
          "midi": 50,
          "name": "D3",
          "ticks": 161280,
          "time": 89.20346400000001,
          "velocity": 0.5039370078740157
        },
        {
          "duration": 0.1327432500000043,
          "durationTicks": 240,
          "midi": 50,
          "name": "D3",
          "ticks": 161520,
          "time": 89.33620725,
          "velocity": 0.5039370078740157
        },
        {
          "duration": 0.1327432500000043,
          "durationTicks": 240,
          "midi": 53,
          "name": "F3",
          "ticks": 161760,
          "time": 89.4689505,
          "velocity": 0.5039370078740157
        },
        {
          "duration": 0.1327432499999901,
          "durationTicks": 240,
          "midi": 50,
          "name": "D3",
          "ticks": 162000,
          "time": 89.60169375000001,
          "velocity": 0.5039370078740157
        },
        {
          "duration": 0.1327432500000043,
          "durationTicks": 240,
          "midi": 52,
          "name": "E3",
          "ticks": 162240,
          "time": 89.734437,
          "velocity": 0.5039370078740157
        },
        {
          "duration": 0.1327432500000043,
          "durationTicks": 240,
          "midi": 50,
          "name": "D3",
          "ticks": 162480,
          "time": 89.86718025,
          "velocity": 0.5039370078740157
        },
        {
          "duration": 0.1327432499999901,
          "durationTicks": 240,
          "midi": 53,
          "name": "F3",
          "ticks": 162720,
          "time": 89.99992350000001,
          "velocity": 0.5039370078740157
        },
        {
          "duration": 0.1327432500000043,
          "durationTicks": 240,
          "midi": 57,
          "name": "A3",
          "ticks": 162960,
          "time": 90.13266675,
          "velocity": 0.5039370078740157
        },
        {
          "duration": 0.1327432500000043,
          "durationTicks": 240,
          "midi": 50,
          "name": "D3",
          "ticks": 163200,
          "time": 90.26541,
          "velocity": 0.5039370078740157
        },
        {
          "duration": 0.1327432500000043,
          "durationTicks": 240,
          "midi": 50,
          "name": "D3",
          "ticks": 163440,
          "time": 90.39815325000001,
          "velocity": 0.5039370078740157
        },
        {
          "duration": 0.1327432499999901,
          "durationTicks": 240,
          "midi": 53,
          "name": "F3",
          "ticks": 163680,
          "time": 90.53089650000001,
          "velocity": 0.5039370078740157
        },
        {
          "duration": 0.1327432500000043,
          "durationTicks": 240,
          "midi": 50,
          "name": "D3",
          "ticks": 163920,
          "time": 90.66363975,
          "velocity": 0.5039370078740157
        },
        {
          "duration": 0.1327432500000043,
          "durationTicks": 240,
          "midi": 52,
          "name": "E3",
          "ticks": 164160,
          "time": 90.796383,
          "velocity": 0.5039370078740157
        },
        {
          "duration": 0.1327432499999901,
          "durationTicks": 240,
          "midi": 50,
          "name": "D3",
          "ticks": 164400,
          "time": 90.92912625000001,
          "velocity": 0.5039370078740157
        },
        {
          "duration": 0.1327432500000043,
          "durationTicks": 240,
          "midi": 53,
          "name": "F3",
          "ticks": 164640,
          "time": 91.0618695,
          "velocity": 0.5039370078740157
        },
        {
          "duration": 0.1327432500000043,
          "durationTicks": 240,
          "midi": 50,
          "name": "D3",
          "ticks": 164880,
          "time": 91.19461275,
          "velocity": 0.5039370078740157
        },
        {
          "duration": 0.1327432499999901,
          "durationTicks": 240,
          "midi": 52,
          "name": "E3",
          "ticks": 165120,
          "time": 91.32735600000001,
          "velocity": 0.5039370078740157
        },
        {
          "duration": 0.1327432500000043,
          "durationTicks": 240,
          "midi": 52,
          "name": "E3",
          "ticks": 165360,
          "time": 91.46009925,
          "velocity": 0.5039370078740157
        },
        {
          "duration": 0.1327432500000043,
          "durationTicks": 240,
          "midi": 55,
          "name": "G3",
          "ticks": 165600,
          "time": 91.5928425,
          "velocity": 0.5039370078740157
        },
        {
          "duration": 0.1327432500000043,
          "durationTicks": 240,
          "midi": 52,
          "name": "E3",
          "ticks": 165840,
          "time": 91.72558575000001,
          "velocity": 0.5039370078740157
        },
        {
          "duration": 0.1327432499999901,
          "durationTicks": 240,
          "midi": 54,
          "name": "F#3",
          "ticks": 166080,
          "time": 91.85832900000001,
          "velocity": 0.5039370078740157
        },
        {
          "duration": 0.1327432500000043,
          "durationTicks": 240,
          "midi": 52,
          "name": "E3",
          "ticks": 166320,
          "time": 91.99107225,
          "velocity": 0.5039370078740157
        },
        {
          "duration": 0.1327432500000043,
          "durationTicks": 240,
          "midi": 55,
          "name": "G3",
          "ticks": 166560,
          "time": 92.1238155,
          "velocity": 0.5039370078740157
        },
        {
          "duration": 0.1327432499999901,
          "durationTicks": 240,
          "midi": 59,
          "name": "B3",
          "ticks": 166800,
          "time": 92.25655875000001,
          "velocity": 0.5039370078740157
        },
        {
          "duration": 0.1327432500000043,
          "durationTicks": 240,
          "midi": 52,
          "name": "E3",
          "ticks": 167040,
          "time": 92.389302,
          "velocity": 0.5039370078740157
        },
        {
          "duration": 0.1327432500000043,
          "durationTicks": 240,
          "midi": 52,
          "name": "E3",
          "ticks": 167280,
          "time": 92.52204525,
          "velocity": 0.5039370078740157
        },
        {
          "duration": 0.1327432499999901,
          "durationTicks": 240,
          "midi": 55,
          "name": "G3",
          "ticks": 167520,
          "time": 92.65478850000001,
          "velocity": 0.5039370078740157
        },
        {
          "duration": 0.1327432500000043,
          "durationTicks": 240,
          "midi": 52,
          "name": "E3",
          "ticks": 167760,
          "time": 92.78753175,
          "velocity": 0.5039370078740157
        },
        {
          "duration": 0.1327432500000043,
          "durationTicks": 240,
          "midi": 54,
          "name": "F#3",
          "ticks": 168000,
          "time": 92.920275,
          "velocity": 0.5039370078740157
        },
        {
          "duration": 0.1327432499999901,
          "durationTicks": 240,
          "midi": 52,
          "name": "E3",
          "ticks": 168240,
          "time": 93.05301825000001,
          "velocity": 0.5039370078740157
        },
        {
          "duration": 0.1327432500000043,
          "durationTicks": 240,
          "midi": 55,
          "name": "G3",
          "ticks": 168480,
          "time": 93.1857615,
          "velocity": 0.5039370078740157
        },
        {
          "duration": 0.1327432500000043,
          "durationTicks": 240,
          "midi": 52,
          "name": "E3",
          "ticks": 168720,
          "time": 93.31850475,
          "velocity": 0.5039370078740157
        },
        {
          "duration": 0.1327432500000043,
          "durationTicks": 240,
          "midi": 53,
          "name": "F3",
          "ticks": 168960,
          "time": 93.451248,
          "velocity": 0.5039370078740157
        },
        {
          "duration": 0.1327432499999901,
          "durationTicks": 240,
          "midi": 53,
          "name": "F3",
          "ticks": 169200,
          "time": 93.58399125000001,
          "velocity": 0.5039370078740157
        },
        {
          "duration": 0.1327432500000043,
          "durationTicks": 240,
          "midi": 57,
          "name": "A3",
          "ticks": 169440,
          "time": 93.7167345,
          "velocity": 0.5039370078740157
        },
        {
          "duration": 0.1327432500000043,
          "durationTicks": 240,
          "midi": 53,
          "name": "F3",
          "ticks": 169680,
          "time": 93.84947775,
          "velocity": 0.5039370078740157
        },
        {
          "duration": 0.1327432499999901,
          "durationTicks": 240,
          "midi": 55,
          "name": "G3",
          "ticks": 169920,
          "time": 93.98222100000001,
          "velocity": 0.5039370078740157
        },
        {
          "duration": 0.1327432500000043,
          "durationTicks": 240,
          "midi": 53,
          "name": "F3",
          "ticks": 170160,
          "time": 94.11496425,
          "velocity": 0.5039370078740157
        },
        {
          "duration": 0.1327432500000043,
          "durationTicks": 240,
          "midi": 57,
          "name": "A3",
          "ticks": 170400,
          "time": 94.2477075,
          "velocity": 0.5039370078740157
        },
        {
          "duration": 0.1327432499999901,
          "durationTicks": 240,
          "midi": 60,
          "name": "C4",
          "ticks": 170640,
          "time": 94.38045075000001,
          "velocity": 0.5039370078740157
        },
        {
          "duration": 0.1327432500000043,
          "durationTicks": 240,
          "midi": 53,
          "name": "F3",
          "ticks": 170880,
          "time": 94.513194,
          "velocity": 0.5039370078740157
        },
        {
          "duration": 0.1327432500000043,
          "durationTicks": 240,
          "midi": 53,
          "name": "F3",
          "ticks": 171120,
          "time": 94.64593725,
          "velocity": 0.5039370078740157
        },
        {
          "duration": 0.1327432500000043,
          "durationTicks": 240,
          "midi": 57,
          "name": "A3",
          "ticks": 171360,
          "time": 94.77868050000001,
          "velocity": 0.5039370078740157
        },
        {
          "duration": 0.1327432499999901,
          "durationTicks": 240,
          "midi": 53,
          "name": "F3",
          "ticks": 171600,
          "time": 94.91142375000001,
          "velocity": 0.5039370078740157
        },
        {
          "duration": 0.1327432500000043,
          "durationTicks": 240,
          "midi": 55,
          "name": "G3",
          "ticks": 171840,
          "time": 95.044167,
          "velocity": 0.5039370078740157
        },
        {
          "duration": 0.1327432500000043,
          "durationTicks": 240,
          "midi": 53,
          "name": "F3",
          "ticks": 172080,
          "time": 95.17691025,
          "velocity": 0.5039370078740157
        },
        {
          "duration": 0.1327432499999901,
          "durationTicks": 240,
          "midi": 57,
          "name": "A3",
          "ticks": 172320,
          "time": 95.30965350000001,
          "velocity": 0.5039370078740157
        },
        {
          "duration": 0.1327432500000043,
          "durationTicks": 240,
          "midi": 53,
          "name": "F3",
          "ticks": 172560,
          "time": 95.44239675,
          "velocity": 0.5039370078740157
        },
        {
          "duration": 0.1327432500000043,
          "durationTicks": 240,
          "midi": 55,
          "name": "G3",
          "ticks": 172800,
          "time": 95.57514,
          "velocity": 0.5039370078740157
        },
        {
          "duration": 0.1327432499999901,
          "durationTicks": 240,
          "midi": 55,
          "name": "G3",
          "ticks": 173040,
          "time": 95.70788325000001,
          "velocity": 0.5039370078740157
        },
        {
          "duration": 0.1327432500000043,
          "durationTicks": 240,
          "midi": 59,
          "name": "B3",
          "ticks": 173280,
          "time": 95.8406265,
          "velocity": 0.5039370078740157
        },
        {
          "duration": 0.1327432500000043,
          "durationTicks": 240,
          "midi": 55,
          "name": "G3",
          "ticks": 173520,
          "time": 95.97336975,
          "velocity": 0.5039370078740157
        },
        {
          "duration": 0.1327432500000043,
          "durationTicks": 240,
          "midi": 57,
          "name": "A3",
          "ticks": 173760,
          "time": 96.10611300000001,
          "velocity": 0.5039370078740157
        },
        {
          "duration": 0.1327432499999901,
          "durationTicks": 240,
          "midi": 55,
          "name": "G3",
          "ticks": 174000,
          "time": 96.23885625000001,
          "velocity": 0.5039370078740157
        },
        {
          "duration": 0.1327432500000043,
          "durationTicks": 240,
          "midi": 59,
          "name": "B3",
          "ticks": 174240,
          "time": 96.3715995,
          "velocity": 0.5039370078740157
        },
        {
          "duration": 0.1327432500000043,
          "durationTicks": 240,
          "midi": 62,
          "name": "D4",
          "ticks": 174480,
          "time": 96.50434275,
          "velocity": 0.5039370078740157
        },
        {
          "duration": 0.1327432499999901,
          "durationTicks": 240,
          "midi": 55,
          "name": "G3",
          "ticks": 174720,
          "time": 96.63708600000001,
          "velocity": 0.5039370078740157
        },
        {
          "duration": 0.1327432500000043,
          "durationTicks": 240,
          "midi": 55,
          "name": "G3",
          "ticks": 174960,
          "time": 96.76982925,
          "velocity": 0.5039370078740157
        },
        {
          "duration": 0.1327432500000043,
          "durationTicks": 240,
          "midi": 59,
          "name": "B3",
          "ticks": 175200,
          "time": 96.9025725,
          "velocity": 0.5039370078740157
        },
        {
          "duration": 0.1327432499999901,
          "durationTicks": 240,
          "midi": 55,
          "name": "G3",
          "ticks": 175440,
          "time": 97.03531575000001,
          "velocity": 0.5039370078740157
        },
        {
          "duration": 0.1327432500000043,
          "durationTicks": 240,
          "midi": 57,
          "name": "A3",
          "ticks": 175680,
          "time": 97.168059,
          "velocity": 0.5039370078740157
        },
        {
          "duration": 0.1327432500000043,
          "durationTicks": 240,
          "midi": 55,
          "name": "G3",
          "ticks": 175920,
          "time": 97.30080225,
          "velocity": 0.5039370078740157
        },
        {
          "duration": 0.1327432499999901,
          "durationTicks": 240,
          "midi": 59,
          "name": "B3",
          "ticks": 176160,
          "time": 97.43354550000001,
          "velocity": 0.5039370078740157
        },
        {
          "duration": 0.1327432500000043,
          "durationTicks": 240,
          "midi": 55,
          "name": "G3",
          "ticks": 176400,
          "time": 97.56628875,
          "velocity": 0.5039370078740157
        },
        {
          "duration": 0.1327432500000043,
          "durationTicks": 240,
          "midi": 52,
          "name": "E3",
          "ticks": 176640,
          "time": 97.699032,
          "velocity": 0.5039370078740157
        },
        {
          "duration": 0.1327432500000043,
          "durationTicks": 240,
          "midi": 52,
          "name": "E3",
          "ticks": 176880,
          "time": 97.83177525,
          "velocity": 0.5039370078740157
        },
        {
          "duration": 0.1327432499999901,
          "durationTicks": 240,
          "midi": 55,
          "name": "G3",
          "ticks": 177120,
          "time": 97.96451850000001,
          "velocity": 0.5039370078740157
        },
        {
          "duration": 0.1327432500000043,
          "durationTicks": 240,
          "midi": 52,
          "name": "E3",
          "ticks": 177360,
          "time": 98.09726175,
          "velocity": 0.5039370078740157
        },
        {
          "duration": 0.1327432500000043,
          "durationTicks": 240,
          "midi": 54,
          "name": "F#3",
          "ticks": 177600,
          "time": 98.230005,
          "velocity": 0.5039370078740157
        },
        {
          "duration": 0.1327432499999901,
          "durationTicks": 240,
          "midi": 52,
          "name": "E3",
          "ticks": 177840,
          "time": 98.36274825000001,
          "velocity": 0.5039370078740157
        },
        {
          "duration": 0.1327432500000043,
          "durationTicks": 240,
          "midi": 55,
          "name": "G3",
          "ticks": 178080,
          "time": 98.4954915,
          "velocity": 0.5039370078740157
        },
        {
          "duration": 0.1327432500000043,
          "durationTicks": 240,
          "midi": 59,
          "name": "B3",
          "ticks": 178320,
          "time": 98.62823475,
          "velocity": 0.5039370078740157
        },
        {
          "duration": 0.1327432499999901,
          "durationTicks": 240,
          "midi": 52,
          "name": "E3",
          "ticks": 178560,
          "time": 98.76097800000001,
          "velocity": 0.5039370078740157
        },
        {
          "duration": 0.1327432500000043,
          "durationTicks": 240,
          "midi": 52,
          "name": "E3",
          "ticks": 178800,
          "time": 98.89372125,
          "velocity": 0.5039370078740157
        },
        {
          "duration": 0.1327432500000043,
          "durationTicks": 240,
          "midi": 55,
          "name": "G3",
          "ticks": 179040,
          "time": 99.0264645,
          "velocity": 0.5039370078740157
        },
        {
          "duration": 0.1327432500000043,
          "durationTicks": 240,
          "midi": 52,
          "name": "E3",
          "ticks": 179280,
          "time": 99.15920775000001,
          "velocity": 0.5039370078740157
        },
        {
          "duration": 0.1327432499999901,
          "durationTicks": 240,
          "midi": 54,
          "name": "F#3",
          "ticks": 179520,
          "time": 99.29195100000001,
          "velocity": 0.5039370078740157
        },
        {
          "duration": 0.1327432500000043,
          "durationTicks": 240,
          "midi": 52,
          "name": "E3",
          "ticks": 179760,
          "time": 99.42469425,
          "velocity": 0.5039370078740157
        },
        {
          "duration": 0.1327432500000043,
          "durationTicks": 240,
          "midi": 55,
          "name": "G3",
          "ticks": 180000,
          "time": 99.5574375,
          "velocity": 0.5039370078740157
        },
        {
          "duration": 0.1327432499999901,
          "durationTicks": 240,
          "midi": 52,
          "name": "E3",
          "ticks": 180240,
          "time": 99.69018075000001,
          "velocity": 0.5039370078740157
        },
        {
          "duration": 0.1327432500000043,
          "durationTicks": 240,
          "midi": 52,
          "name": "E3",
          "ticks": 180480,
          "time": 99.822924,
          "velocity": 0.5039370078740157
        },
        {
          "duration": 0.1327432500000043,
          "durationTicks": 240,
          "midi": 52,
          "name": "E3",
          "ticks": 180720,
          "time": 99.95566725,
          "velocity": 0.5039370078740157
        },
        {
          "duration": 0.1327432499999901,
          "durationTicks": 240,
          "midi": 55,
          "name": "G3",
          "ticks": 180960,
          "time": 100.08841050000001,
          "velocity": 0.5039370078740157
        },
        {
          "duration": 0.1327432500000043,
          "durationTicks": 240,
          "midi": 52,
          "name": "E3",
          "ticks": 181200,
          "time": 100.22115375,
          "velocity": 0.5039370078740157
        },
        {
          "duration": 0.1327432500000043,
          "durationTicks": 240,
          "midi": 54,
          "name": "F#3",
          "ticks": 181440,
          "time": 100.353897,
          "velocity": 0.5039370078740157
        },
        {
          "duration": 0.1327432500000043,
          "durationTicks": 240,
          "midi": 52,
          "name": "E3",
          "ticks": 181680,
          "time": 100.48664025000001,
          "velocity": 0.5039370078740157
        },
        {
          "duration": 0.1327432499999901,
          "durationTicks": 240,
          "midi": 55,
          "name": "G3",
          "ticks": 181920,
          "time": 100.61938350000001,
          "velocity": 0.5039370078740157
        },
        {
          "duration": 0.1327432500000043,
          "durationTicks": 240,
          "midi": 59,
          "name": "B3",
          "ticks": 182160,
          "time": 100.75212675,
          "velocity": 0.5039370078740157
        },
        {
          "duration": 0.1327432500000043,
          "durationTicks": 240,
          "midi": 52,
          "name": "E3",
          "ticks": 182400,
          "time": 100.88487,
          "velocity": 0.5039370078740157
        },
        {
          "duration": 0.1327432499999901,
          "durationTicks": 240,
          "midi": 52,
          "name": "E3",
          "ticks": 182640,
          "time": 101.01761325000001,
          "velocity": 0.5039370078740157
        },
        {
          "duration": 0.1327432500000043,
          "durationTicks": 240,
          "midi": 55,
          "name": "G3",
          "ticks": 182880,
          "time": 101.1503565,
          "velocity": 0.5039370078740157
        },
        {
          "duration": 0.1327432500000043,
          "durationTicks": 240,
          "midi": 52,
          "name": "E3",
          "ticks": 183120,
          "time": 101.28309975,
          "velocity": 0.5039370078740157
        },
        {
          "duration": 0.1327432499999901,
          "durationTicks": 240,
          "midi": 54,
          "name": "F#3",
          "ticks": 183360,
          "time": 101.41584300000001,
          "velocity": 0.5039370078740157
        },
        {
          "duration": 0.1327432500000043,
          "durationTicks": 240,
          "midi": 52,
          "name": "E3",
          "ticks": 183600,
          "time": 101.54858625,
          "velocity": 0.5039370078740157
        },
        {
          "duration": 0.1327432500000043,
          "durationTicks": 240,
          "midi": 55,
          "name": "G3",
          "ticks": 183840,
          "time": 101.6813295,
          "velocity": 0.5039370078740157
        },
        {
          "duration": 0.1327432500000043,
          "durationTicks": 240,
          "midi": 57,
          "name": "A3",
          "ticks": 184080,
          "time": 101.81407275000001,
          "velocity": 0.5039370078740157
        },
        {
          "duration": 0.1327432499999901,
          "durationTicks": 240,
          "midi": 57,
          "name": "A3",
          "ticks": 184320,
          "time": 101.94681600000001,
          "velocity": 0.5039370078740157
        },
        {
          "duration": 0.1327432500000043,
          "durationTicks": 240,
          "midi": 45,
          "name": "A2",
          "ticks": 184560,
          "time": 102.07955925,
          "velocity": 0.5039370078740157
        },
        {
          "duration": 0.1327432500000043,
          "durationTicks": 240,
          "midi": 60,
          "name": "C4",
          "ticks": 184800,
          "time": 102.2123025,
          "velocity": 0.5039370078740157
        },
        {
          "duration": 0.1327432499999901,
          "durationTicks": 240,
          "midi": 45,
          "name": "A2",
          "ticks": 185040,
          "time": 102.34504575000001,
          "velocity": 0.5039370078740157
        },
        {
          "duration": 0.1327432500000043,
          "durationTicks": 240,
          "midi": 59,
          "name": "B3",
          "ticks": 185280,
          "time": 102.477789,
          "velocity": 0.5039370078740157
        },
        {
          "duration": 0.1327432500000043,
          "durationTicks": 240,
          "midi": 45,
          "name": "A2",
          "ticks": 185520,
          "time": 102.61053225,
          "velocity": 0.5039370078740157
        },
        {
          "duration": 0.1327432499999901,
          "durationTicks": 240,
          "midi": 60,
          "name": "C4",
          "ticks": 185760,
          "time": 102.74327550000001,
          "velocity": 0.5039370078740157
        },
        {
          "duration": 0.1327432500000043,
          "durationTicks": 240,
          "midi": 64,
          "name": "E4",
          "ticks": 186000,
          "time": 102.87601875,
          "velocity": 0.5039370078740157
        },
        {
          "duration": 0.1327432500000043,
          "durationTicks": 240,
          "midi": 45,
          "name": "A2",
          "ticks": 186240,
          "time": 103.008762,
          "velocity": 0.5039370078740157
        },
        {
          "duration": 0.1327432499999901,
          "durationTicks": 240,
          "midi": 57,
          "name": "A3",
          "ticks": 186480,
          "time": 103.14150525000001,
          "velocity": 0.5039370078740157
        },
        {
          "duration": 0.1327432500000043,
          "durationTicks": 240,
          "midi": 60,
          "name": "C4",
          "ticks": 186720,
          "time": 103.2742485,
          "velocity": 0.5039370078740157
        },
        {
          "duration": 0.1327432500000043,
          "durationTicks": 240,
          "midi": 45,
          "name": "A2",
          "ticks": 186960,
          "time": 103.40699175,
          "velocity": 0.5039370078740157
        },
        {
          "duration": 0.1327432500000043,
          "durationTicks": 240,
          "midi": 59,
          "name": "B3",
          "ticks": 187200,
          "time": 103.53973500000001,
          "velocity": 0.5039370078740157
        },
        {
          "duration": 0.1327432499999901,
          "durationTicks": 240,
          "midi": 45,
          "name": "A2",
          "ticks": 187440,
          "time": 103.67247825000001,
          "velocity": 0.5039370078740157
        },
        {
          "duration": 0.1327432500000043,
          "durationTicks": 240,
          "midi": 60,
          "name": "C4",
          "ticks": 187680,
          "time": 103.8052215,
          "velocity": 0.5039370078740157
        },
        {
          "duration": 0.1327432500000043,
          "durationTicks": 240,
          "midi": 57,
          "name": "A3",
          "ticks": 187920,
          "time": 103.93796475,
          "velocity": 0.5039370078740157
        },
        {
          "duration": 0.1327432499999901,
          "durationTicks": 240,
          "midi": 45,
          "name": "A2",
          "ticks": 188160,
          "time": 104.07070800000001,
          "velocity": 0.5039370078740157
        },
        {
          "duration": 0.1327432500000043,
          "durationTicks": 240,
          "midi": 57,
          "name": "A3",
          "ticks": 188400,
          "time": 104.20345125,
          "velocity": 0.5039370078740157
        },
        {
          "duration": 0.1327432500000043,
          "durationTicks": 240,
          "midi": 60,
          "name": "C4",
          "ticks": 188640,
          "time": 104.3361945,
          "velocity": 0.5039370078740157
        },
        {
          "duration": 0.1327432499999901,
          "durationTicks": 240,
          "midi": 45,
          "name": "A2",
          "ticks": 188880,
          "time": 104.46893775000001,
          "velocity": 0.5039370078740157
        },
        {
          "duration": 0.1327432500000043,
          "durationTicks": 240,
          "midi": 59,
          "name": "B3",
          "ticks": 189120,
          "time": 104.601681,
          "velocity": 0.5039370078740157
        },
        {
          "duration": 0.1327432500000043,
          "durationTicks": 240,
          "midi": 45,
          "name": "A2",
          "ticks": 189360,
          "time": 104.73442425,
          "velocity": 0.5039370078740157
        },
        {
          "duration": 0.1327432500000043,
          "durationTicks": 240,
          "midi": 60,
          "name": "C4",
          "ticks": 189600,
          "time": 104.86716750000001,
          "velocity": 0.5039370078740157
        },
        {
          "duration": 0.1327432499999901,
          "durationTicks": 240,
          "midi": 64,
          "name": "E4",
          "ticks": 189840,
          "time": 104.99991075000001,
          "velocity": 0.5039370078740157
        },
        {
          "duration": 0.1327432500000043,
          "durationTicks": 240,
          "midi": 45,
          "name": "A2",
          "ticks": 190080,
          "time": 105.132654,
          "velocity": 0.5039370078740157
        },
        {
          "duration": 0.1327432500000043,
          "durationTicks": 240,
          "midi": 57,
          "name": "A3",
          "ticks": 190320,
          "time": 105.26539725,
          "velocity": 0.5039370078740157
        },
        {
          "duration": 0.1327432499999901,
          "durationTicks": 240,
          "midi": 60,
          "name": "C4",
          "ticks": 190560,
          "time": 105.39814050000001,
          "velocity": 0.5039370078740157
        },
        {
          "duration": 0.1327432500000043,
          "durationTicks": 240,
          "midi": 45,
          "name": "A2",
          "ticks": 190800,
          "time": 105.53088375,
          "velocity": 0.5039370078740157
        },
        {
          "duration": 0.1327432500000043,
          "durationTicks": 240,
          "midi": 59,
          "name": "B3",
          "ticks": 191040,
          "time": 105.663627,
          "velocity": 0.5039370078740157
        },
        {
          "duration": 0.1327432499999901,
          "durationTicks": 240,
          "midi": 45,
          "name": "A2",
          "ticks": 191280,
          "time": 105.79637025000001,
          "velocity": 0.5039370078740157
        },
        {
          "duration": 0.1327432500000043,
          "durationTicks": 240,
          "midi": 60,
          "name": "C4",
          "ticks": 191520,
          "time": 105.9291135,
          "velocity": 0.5039370078740157
        },
        {
          "duration": 0.1327432500000043,
          "durationTicks": 240,
          "midi": 57,
          "name": "A3",
          "ticks": 191760,
          "time": 106.06185675,
          "velocity": 0.5039370078740157
        },
        {
          "duration": 0.1327432500000043,
          "durationTicks": 240,
          "midi": 52,
          "name": "E3",
          "ticks": 192000,
          "time": 106.19460000000001,
          "velocity": 0.5039370078740157
        },
        {
          "duration": 0.1327432499999901,
          "durationTicks": 240,
          "midi": 40,
          "name": "E2",
          "ticks": 192240,
          "time": 106.32734325000001,
          "velocity": 0.5039370078740157
        },
        {
          "duration": 0.1327432500000043,
          "durationTicks": 240,
          "midi": 55,
          "name": "G3",
          "ticks": 192480,
          "time": 106.4600865,
          "velocity": 0.5039370078740157
        },
        {
          "duration": 0.1327432500000043,
          "durationTicks": 240,
          "midi": 40,
          "name": "E2",
          "ticks": 192720,
          "time": 106.59282975,
          "velocity": 0.5039370078740157
        },
        {
          "duration": 0.1327432499999901,
          "durationTicks": 240,
          "midi": 54,
          "name": "F#3",
          "ticks": 192960,
          "time": 106.72557300000001,
          "velocity": 0.5039370078740157
        },
        {
          "duration": 0.1327432500000043,
          "durationTicks": 240,
          "midi": 40,
          "name": "E2",
          "ticks": 193200,
          "time": 106.85831625,
          "velocity": 0.5039370078740157
        },
        {
          "duration": 0.1327432500000043,
          "durationTicks": 240,
          "midi": 55,
          "name": "G3",
          "ticks": 193440,
          "time": 106.9910595,
          "velocity": 0.5039370078740157
        },
        {
          "duration": 0.1327432499999901,
          "durationTicks": 240,
          "midi": 59,
          "name": "B3",
          "ticks": 193680,
          "time": 107.12380275000001,
          "velocity": 0.5039370078740157
        },
        {
          "duration": 0.1327432500000043,
          "durationTicks": 240,
          "midi": 40,
          "name": "E2",
          "ticks": 193920,
          "time": 107.256546,
          "velocity": 0.5039370078740157
        },
        {
          "duration": 0.1327432500000043,
          "durationTicks": 240,
          "midi": 52,
          "name": "E3",
          "ticks": 194160,
          "time": 107.38928925,
          "velocity": 0.5039370078740157
        },
        {
          "duration": 0.1327432499999901,
          "durationTicks": 240,
          "midi": 55,
          "name": "G3",
          "ticks": 194400,
          "time": 107.52203250000001,
          "velocity": 0.5039370078740157
        },
        {
          "duration": 0.1327432500000043,
          "durationTicks": 240,
          "midi": 40,
          "name": "E2",
          "ticks": 194640,
          "time": 107.65477575,
          "velocity": 0.5039370078740157
        },
        {
          "duration": 0.1327432500000043,
          "durationTicks": 240,
          "midi": 54,
          "name": "F#3",
          "ticks": 194880,
          "time": 107.787519,
          "velocity": 0.5039370078740157
        },
        {
          "duration": 0.1327432500000043,
          "durationTicks": 240,
          "midi": 40,
          "name": "E2",
          "ticks": 195120,
          "time": 107.92026225000001,
          "velocity": 0.5039370078740157
        },
        {
          "duration": 0.1327432499999901,
          "durationTicks": 240,
          "midi": 55,
          "name": "G3",
          "ticks": 195360,
          "time": 108.05300550000001,
          "velocity": 0.5039370078740157
        },
        {
          "duration": 0.1327432500000043,
          "durationTicks": 240,
          "midi": 52,
          "name": "E3",
          "ticks": 195600,
          "time": 108.18574875,
          "velocity": 0.5039370078740157
        },
        {
          "duration": 0.1327432500000043,
          "durationTicks": 240,
          "midi": 40,
          "name": "E2",
          "ticks": 195840,
          "time": 108.318492,
          "velocity": 0.5039370078740157
        },
        {
          "duration": 0.1327432499999901,
          "durationTicks": 240,
          "midi": 52,
          "name": "E3",
          "ticks": 196080,
          "time": 108.45123525000001,
          "velocity": 0.5039370078740157
        },
        {
          "duration": 0.1327432500000043,
          "durationTicks": 240,
          "midi": 55,
          "name": "G3",
          "ticks": 196320,
          "time": 108.5839785,
          "velocity": 0.5039370078740157
        },
        {
          "duration": 0.1327432500000043,
          "durationTicks": 240,
          "midi": 40,
          "name": "E2",
          "ticks": 196560,
          "time": 108.71672175,
          "velocity": 0.5039370078740157
        },
        {
          "duration": 0.1327432499999901,
          "durationTicks": 240,
          "midi": 54,
          "name": "F#3",
          "ticks": 196800,
          "time": 108.84946500000001,
          "velocity": 0.5039370078740157
        },
        {
          "duration": 0.1327432500000043,
          "durationTicks": 240,
          "midi": 40,
          "name": "E2",
          "ticks": 197040,
          "time": 108.98220825,
          "velocity": 0.5039370078740157
        },
        {
          "duration": 0.1327432500000043,
          "durationTicks": 240,
          "midi": 55,
          "name": "G3",
          "ticks": 197280,
          "time": 109.1149515,
          "velocity": 0.5039370078740157
        },
        {
          "duration": 0.1327432500000043,
          "durationTicks": 240,
          "midi": 59,
          "name": "B3",
          "ticks": 197520,
          "time": 109.24769475000001,
          "velocity": 0.5039370078740157
        },
        {
          "duration": 0.1327432499999901,
          "durationTicks": 240,
          "midi": 40,
          "name": "E2",
          "ticks": 197760,
          "time": 109.38043800000001,
          "velocity": 0.5039370078740157
        },
        {
          "duration": 0.1327432500000043,
          "durationTicks": 240,
          "midi": 52,
          "name": "E3",
          "ticks": 198000,
          "time": 109.51318125,
          "velocity": 0.5039370078740157
        },
        {
          "duration": 0.1327432500000043,
          "durationTicks": 240,
          "midi": 55,
          "name": "G3",
          "ticks": 198240,
          "time": 109.6459245,
          "velocity": 0.5039370078740157
        },
        {
          "duration": 0.1327432499999901,
          "durationTicks": 240,
          "midi": 40,
          "name": "E2",
          "ticks": 198480,
          "time": 109.77866775000001,
          "velocity": 0.5039370078740157
        },
        {
          "duration": 0.1327432500000043,
          "durationTicks": 240,
          "midi": 54,
          "name": "F#3",
          "ticks": 198720,
          "time": 109.911411,
          "velocity": 0.5039370078740157
        },
        {
          "duration": 0.1327432500000043,
          "durationTicks": 240,
          "midi": 40,
          "name": "E2",
          "ticks": 198960,
          "time": 110.04415425,
          "velocity": 0.5039370078740157
        },
        {
          "duration": 0.1327432499999901,
          "durationTicks": 240,
          "midi": 55,
          "name": "G3",
          "ticks": 199200,
          "time": 110.17689750000001,
          "velocity": 0.5039370078740157
        },
        {
          "duration": 0.1327432500000043,
          "durationTicks": 240,
          "midi": 52,
          "name": "E3",
          "ticks": 199440,
          "time": 110.30964075,
          "velocity": 0.5039370078740157
        },
        {
          "duration": 0.1327432500000043,
          "durationTicks": 240,
          "midi": 57,
          "name": "A3",
          "ticks": 199680,
          "time": 110.442384,
          "velocity": 0.5039370078740157
        },
        {
          "duration": 0.1327432500000043,
          "durationTicks": 240,
          "midi": 45,
          "name": "A2",
          "ticks": 199920,
          "time": 110.57512725000001,
          "velocity": 0.5039370078740157
        },
        {
          "duration": 0.1327432499999901,
          "durationTicks": 240,
          "midi": 60,
          "name": "C4",
          "ticks": 200160,
          "time": 110.70787050000001,
          "velocity": 0.5039370078740157
        },
        {
          "duration": 0.1327432500000043,
          "durationTicks": 240,
          "midi": 45,
          "name": "A2",
          "ticks": 200400,
          "time": 110.84061375,
          "velocity": 0.5039370078740157
        },
        {
          "duration": 0.1327432500000043,
          "durationTicks": 240,
          "midi": 59,
          "name": "B3",
          "ticks": 200640,
          "time": 110.97335700000001,
          "velocity": 0.5039370078740157
        },
        {
          "duration": 0.1327432499999901,
          "durationTicks": 240,
          "midi": 45,
          "name": "A2",
          "ticks": 200880,
          "time": 111.10610025000001,
          "velocity": 0.5039370078740157
        },
        {
          "duration": 0.1327432500000043,
          "durationTicks": 240,
          "midi": 60,
          "name": "C4",
          "ticks": 201120,
          "time": 111.2388435,
          "velocity": 0.5039370078740157
        },
        {
          "duration": 0.1327432500000043,
          "durationTicks": 240,
          "midi": 64,
          "name": "E4",
          "ticks": 201360,
          "time": 111.37158675,
          "velocity": 0.5039370078740157
        },
        {
          "duration": 0.1327432499999901,
          "durationTicks": 240,
          "midi": 45,
          "name": "A2",
          "ticks": 201600,
          "time": 111.50433000000001,
          "velocity": 0.5039370078740157
        },
        {
          "duration": 0.1327432500000043,
          "durationTicks": 240,
          "midi": 57,
          "name": "A3",
          "ticks": 201840,
          "time": 111.63707325,
          "velocity": 0.5039370078740157
        },
        {
          "duration": 0.1327432500000043,
          "durationTicks": 240,
          "midi": 60,
          "name": "C4",
          "ticks": 202080,
          "time": 111.7698165,
          "velocity": 0.5039370078740157
        },
        {
          "duration": 0.1327432499999901,
          "durationTicks": 240,
          "midi": 45,
          "name": "A2",
          "ticks": 202320,
          "time": 111.90255975000001,
          "velocity": 0.5039370078740157
        },
        {
          "duration": 0.1327432500000043,
          "durationTicks": 240,
          "midi": 59,
          "name": "B3",
          "ticks": 202560,
          "time": 112.035303,
          "velocity": 0.5039370078740157
        },
        {
          "duration": 0.1327432500000043,
          "durationTicks": 240,
          "midi": 45,
          "name": "A2",
          "ticks": 202800,
          "time": 112.16804625,
          "velocity": 0.5039370078740157
        },
        {
          "duration": 0.1327432500000043,
          "durationTicks": 240,
          "midi": 60,
          "name": "C4",
          "ticks": 203040,
          "time": 112.30078950000001,
          "velocity": 0.5039370078740157
        },
        {
          "duration": 0.1327432499999901,
          "durationTicks": 240,
          "midi": 57,
          "name": "A3",
          "ticks": 203280,
          "time": 112.43353275000001,
          "velocity": 0.5039370078740157
        },
        {
          "duration": 0.1327432500000043,
          "durationTicks": 240,
          "midi": 45,
          "name": "A2",
          "ticks": 203520,
          "time": 112.566276,
          "velocity": 0.5039370078740157
        },
        {
          "duration": 0.1327432500000043,
          "durationTicks": 240,
          "midi": 57,
          "name": "A3",
          "ticks": 203760,
          "time": 112.69901925,
          "velocity": 0.5039370078740157
        },
        {
          "duration": 0.1327432499999901,
          "durationTicks": 240,
          "midi": 60,
          "name": "C4",
          "ticks": 204000,
          "time": 112.83176250000001,
          "velocity": 0.5039370078740157
        },
        {
          "duration": 0.1327432500000043,
          "durationTicks": 240,
          "midi": 45,
          "name": "A2",
          "ticks": 204240,
          "time": 112.96450575,
          "velocity": 0.5039370078740157
        },
        {
          "duration": 0.1327432500000043,
          "durationTicks": 240,
          "midi": 59,
          "name": "B3",
          "ticks": 204480,
          "time": 113.097249,
          "velocity": 0.5039370078740157
        },
        {
          "duration": 0.1327432499999901,
          "durationTicks": 240,
          "midi": 45,
          "name": "A2",
          "ticks": 204720,
          "time": 113.22999225000001,
          "velocity": 0.5039370078740157
        },
        {
          "duration": 0.1327432500000043,
          "durationTicks": 240,
          "midi": 60,
          "name": "C4",
          "ticks": 204960,
          "time": 113.3627355,
          "velocity": 0.5039370078740157
        },
        {
          "duration": 0.1327432500000043,
          "durationTicks": 240,
          "midi": 64,
          "name": "E4",
          "ticks": 205200,
          "time": 113.49547875,
          "velocity": 0.5039370078740157
        },
        {
          "duration": 0.1327432500000043,
          "durationTicks": 240,
          "midi": 45,
          "name": "A2",
          "ticks": 205440,
          "time": 113.62822200000001,
          "velocity": 0.5039370078740157
        },
        {
          "duration": 0.1327432499999901,
          "durationTicks": 240,
          "midi": 57,
          "name": "A3",
          "ticks": 205680,
          "time": 113.76096525000001,
          "velocity": 0.5039370078740157
        },
        {
          "duration": 0.1327432500000043,
          "durationTicks": 240,
          "midi": 60,
          "name": "C4",
          "ticks": 205920,
          "time": 113.8937085,
          "velocity": 0.5039370078740157
        },
        {
          "duration": 0.1327432500000043,
          "durationTicks": 240,
          "midi": 45,
          "name": "A2",
          "ticks": 206160,
          "time": 114.02645175,
          "velocity": 0.5039370078740157
        },
        {
          "duration": 0.1327432499999901,
          "durationTicks": 240,
          "midi": 59,
          "name": "B3",
          "ticks": 206400,
          "time": 114.15919500000001,
          "velocity": 0.5039370078740157
        },
        {
          "duration": 0.1327432500000043,
          "durationTicks": 240,
          "midi": 45,
          "name": "A2",
          "ticks": 206640,
          "time": 114.29193825,
          "velocity": 0.5039370078740157
        },
        {
          "duration": 0.1327432500000043,
          "durationTicks": 240,
          "midi": 60,
          "name": "C4",
          "ticks": 206880,
          "time": 114.4246815,
          "velocity": 0.5039370078740157
        },
        {
          "duration": 0.1327432499999901,
          "durationTicks": 240,
          "midi": 57,
          "name": "A3",
          "ticks": 207120,
          "time": 114.55742475000001,
          "velocity": 0.5039370078740157
        },
        {
          "duration": 0.1327432500000043,
          "durationTicks": 240,
          "midi": 52,
          "name": "E3",
          "ticks": 207360,
          "time": 114.690168,
          "velocity": 0.5039370078740157
        },
        {
          "duration": 0.1327432500000043,
          "durationTicks": 240,
          "midi": 40,
          "name": "E2",
          "ticks": 207600,
          "time": 114.82291125,
          "velocity": 0.5039370078740157
        },
        {
          "duration": 0.1327432500000043,
          "durationTicks": 240,
          "midi": 55,
          "name": "G3",
          "ticks": 207840,
          "time": 114.95565450000001,
          "velocity": 0.5039370078740157
        },
        {
          "duration": 0.1327432499999901,
          "durationTicks": 240,
          "midi": 40,
          "name": "E2",
          "ticks": 208080,
          "time": 115.08839775000001,
          "velocity": 0.5039370078740157
        },
        {
          "duration": 0.1327432500000043,
          "durationTicks": 240,
          "midi": 54,
          "name": "F#3",
          "ticks": 208320,
          "time": 115.221141,
          "velocity": 0.5039370078740157
        },
        {
          "duration": 0.1327432500000043,
          "durationTicks": 240,
          "midi": 40,
          "name": "E2",
          "ticks": 208560,
          "time": 115.35388425000001,
          "velocity": 0.5039370078740157
        },
        {
          "duration": 0.1327432499999901,
          "durationTicks": 240,
          "midi": 55,
          "name": "G3",
          "ticks": 208800,
          "time": 115.48662750000001,
          "velocity": 0.5039370078740157
        },
        {
          "duration": 0.1327432500000043,
          "durationTicks": 240,
          "midi": 59,
          "name": "B3",
          "ticks": 209040,
          "time": 115.61937075,
          "velocity": 0.5039370078740157
        },
        {
          "duration": 0.1327432500000043,
          "durationTicks": 240,
          "midi": 40,
          "name": "E2",
          "ticks": 209280,
          "time": 115.752114,
          "velocity": 0.5039370078740157
        },
        {
          "duration": 0.1327432499999901,
          "durationTicks": 240,
          "midi": 52,
          "name": "E3",
          "ticks": 209520,
          "time": 115.88485725000001,
          "velocity": 0.5039370078740157
        },
        {
          "duration": 0.1327432500000043,
          "durationTicks": 240,
          "midi": 55,
          "name": "G3",
          "ticks": 209760,
          "time": 116.0176005,
          "velocity": 0.5039370078740157
        },
        {
          "duration": 0.1327432500000043,
          "durationTicks": 240,
          "midi": 40,
          "name": "E2",
          "ticks": 210000,
          "time": 116.15034375,
          "velocity": 0.5039370078740157
        },
        {
          "duration": 0.1327432500000043,
          "durationTicks": 240,
          "midi": 54,
          "name": "F#3",
          "ticks": 210240,
          "time": 116.28308700000001,
          "velocity": 0.5039370078740157
        },
        {
          "duration": 0.1327432499999901,
          "durationTicks": 240,
          "midi": 40,
          "name": "E2",
          "ticks": 210480,
          "time": 116.41583025000001,
          "velocity": 0.5039370078740157
        },
        {
          "duration": 0.1327432500000043,
          "durationTicks": 240,
          "midi": 55,
          "name": "G3",
          "ticks": 210720,
          "time": 116.5485735,
          "velocity": 0.5039370078740157
        },
        {
          "duration": 0.1327432500000043,
          "durationTicks": 240,
          "midi": 52,
          "name": "E3",
          "ticks": 210960,
          "time": 116.68131675000001,
          "velocity": 0.5039370078740157
        },
        {
          "duration": 0.1327432499999901,
          "durationTicks": 240,
          "midi": 40,
          "name": "E2",
          "ticks": 211200,
          "time": 116.81406000000001,
          "velocity": 0.5039370078740157
        },
        {
          "duration": 0.1327432500000043,
          "durationTicks": 240,
          "midi": 52,
          "name": "E3",
          "ticks": 211440,
          "time": 116.94680325,
          "velocity": 0.5039370078740157
        },
        {
          "duration": 0.1327432500000043,
          "durationTicks": 240,
          "midi": 55,
          "name": "G3",
          "ticks": 211680,
          "time": 117.0795465,
          "velocity": 0.5039370078740157
        },
        {
          "duration": 0.1327432499999901,
          "durationTicks": 240,
          "midi": 40,
          "name": "E2",
          "ticks": 211920,
          "time": 117.21228975000001,
          "velocity": 0.5039370078740157
        },
        {
          "duration": 0.1327432500000043,
          "durationTicks": 240,
          "midi": 54,
          "name": "F#3",
          "ticks": 212160,
          "time": 117.345033,
          "velocity": 0.5039370078740157
        },
        {
          "duration": 0.1327432500000043,
          "durationTicks": 240,
          "midi": 40,
          "name": "E2",
          "ticks": 212400,
          "time": 117.47777625,
          "velocity": 0.5039370078740157
        },
        {
          "duration": 0.1327432499999901,
          "durationTicks": 240,
          "midi": 55,
          "name": "G3",
          "ticks": 212640,
          "time": 117.61051950000001,
          "velocity": 0.5039370078740157
        },
        {
          "duration": 0.1327432500000043,
          "durationTicks": 240,
          "midi": 59,
          "name": "B3",
          "ticks": 212880,
          "time": 117.74326275,
          "velocity": 0.5039370078740157
        },
        {
          "duration": 0.1327432500000043,
          "durationTicks": 240,
          "midi": 40,
          "name": "E2",
          "ticks": 213120,
          "time": 117.876006,
          "velocity": 0.5039370078740157
        },
        {
          "duration": 0.1327432500000043,
          "durationTicks": 240,
          "midi": 52,
          "name": "E3",
          "ticks": 213360,
          "time": 118.00874925000001,
          "velocity": 0.5039370078740157
        },
        {
          "duration": 0.1327432499999901,
          "durationTicks": 240,
          "midi": 55,
          "name": "G3",
          "ticks": 213600,
          "time": 118.14149250000001,
          "velocity": 0.5039370078740157
        },
        {
          "duration": 0.1327432500000043,
          "durationTicks": 240,
          "midi": 40,
          "name": "E2",
          "ticks": 213840,
          "time": 118.27423575,
          "velocity": 0.5039370078740157
        },
        {
          "duration": 0.1327432500000043,
          "durationTicks": 240,
          "midi": 54,
          "name": "F#3",
          "ticks": 214080,
          "time": 118.406979,
          "velocity": 0.5039370078740157
        },
        {
          "duration": 0.1327432499999901,
          "durationTicks": 240,
          "midi": 40,
          "name": "E2",
          "ticks": 214320,
          "time": 118.53972225000001,
          "velocity": 0.5039370078740157
        },
        {
          "duration": 0.1327432500000043,
          "durationTicks": 240,
          "midi": 55,
          "name": "G3",
          "ticks": 214560,
          "time": 118.6724655,
          "velocity": 0.5039370078740157
        },
        {
          "duration": 0.1327432500000043,
          "durationTicks": 240,
          "midi": 52,
          "name": "E3",
          "ticks": 214800,
          "time": 118.80520875,
          "velocity": 0.5039370078740157
        },
        {
          "duration": 0.1327432499999901,
          "durationTicks": 240,
          "midi": 53,
          "name": "F3",
          "ticks": 215040,
          "time": 118.93795200000001,
          "velocity": 0.5039370078740157
        },
        {
          "duration": 0.1327432500000043,
          "durationTicks": 240,
          "midi": 53,
          "name": "F3",
          "ticks": 215280,
          "time": 119.07069525,
          "velocity": 0.5039370078740157
        },
        {
          "duration": 0.1327432500000043,
          "durationTicks": 240,
          "midi": 57,
          "name": "A3",
          "ticks": 215520,
          "time": 119.2034385,
          "velocity": 0.5039370078740157
        },
        {
          "duration": 0.1327432500000043,
          "durationTicks": 240,
          "midi": 53,
          "name": "F3",
          "ticks": 215760,
          "time": 119.33618175000001,
          "velocity": 0.5039370078740157
        },
        {
          "duration": 0.1327432499999901,
          "durationTicks": 240,
          "midi": 55,
          "name": "G3",
          "ticks": 216000,
          "time": 119.46892500000001,
          "velocity": 0.5039370078740157
        },
        {
          "duration": 0.1327432500000043,
          "durationTicks": 240,
          "midi": 53,
          "name": "F3",
          "ticks": 216240,
          "time": 119.60166825,
          "velocity": 0.5039370078740157
        },
        {
          "duration": 0.1327432500000043,
          "durationTicks": 240,
          "midi": 57,
          "name": "A3",
          "ticks": 216480,
          "time": 119.73441150000001,
          "velocity": 0.5039370078740157
        },
        {
          "duration": 0.1327432499999901,
          "durationTicks": 240,
          "midi": 60,
          "name": "C4",
          "ticks": 216720,
          "time": 119.86715475000001,
          "velocity": 0.5039370078740157
        },
        {
          "duration": 0.1327432500000043,
          "durationTicks": 240,
          "midi": 53,
          "name": "F3",
          "ticks": 216960,
          "time": 119.999898,
          "velocity": 0.5039370078740157
        },
        {
          "duration": 0.1327432500000043,
          "durationTicks": 240,
          "midi": 53,
          "name": "F3",
          "ticks": 217200,
          "time": 120.13264125,
          "velocity": 0.5039370078740157
        },
        {
          "duration": 0.1327432499999901,
          "durationTicks": 240,
          "midi": 57,
          "name": "A3",
          "ticks": 217440,
          "time": 120.26538450000001,
          "velocity": 0.5039370078740157
        },
        {
          "duration": 0.1327432500000043,
          "durationTicks": 240,
          "midi": 53,
          "name": "F3",
          "ticks": 217680,
          "time": 120.39812775,
          "velocity": 0.5039370078740157
        },
        {
          "duration": 0.1327432500000043,
          "durationTicks": 240,
          "midi": 55,
          "name": "G3",
          "ticks": 217920,
          "time": 120.530871,
          "velocity": 0.5039370078740157
        },
        {
          "duration": 0.1327432500000043,
          "durationTicks": 240,
          "midi": 53,
          "name": "F3",
          "ticks": 218160,
          "time": 120.66361425000001,
          "velocity": 0.5039370078740157
        },
        {
          "duration": 0.1327432499999901,
          "durationTicks": 240,
          "midi": 57,
          "name": "A3",
          "ticks": 218400,
          "time": 120.79635750000001,
          "velocity": 0.5039370078740157
        },
        {
          "duration": 0.1327432500000043,
          "durationTicks": 240,
          "midi": 53,
          "name": "F3",
          "ticks": 218640,
          "time": 120.92910075,
          "velocity": 0.5039370078740157
        },
        {
          "duration": 0.1327432500000043,
          "durationTicks": 240,
          "midi": 55,
          "name": "G3",
          "ticks": 218880,
          "time": 121.06184400000001,
          "velocity": 0.5039370078740157
        },
        {
          "duration": 0.1327432499999901,
          "durationTicks": 240,
          "midi": 55,
          "name": "G3",
          "ticks": 219120,
          "time": 121.19458725000001,
          "velocity": 0.5039370078740157
        },
        {
          "duration": 0.1327432500000043,
          "durationTicks": 240,
          "midi": 59,
          "name": "B3",
          "ticks": 219360,
          "time": 121.3273305,
          "velocity": 0.5039370078740157
        },
        {
          "duration": 0.1327432500000043,
          "durationTicks": 240,
          "midi": 55,
          "name": "G3",
          "ticks": 219600,
          "time": 121.46007375,
          "velocity": 0.5039370078740157
        },
        {
          "duration": 0.1327432499999901,
          "durationTicks": 240,
          "midi": 57,
          "name": "A3",
          "ticks": 219840,
          "time": 121.59281700000001,
          "velocity": 0.5039370078740157
        },
        {
          "duration": 0.1327432500000043,
          "durationTicks": 240,
          "midi": 55,
          "name": "G3",
          "ticks": 220080,
          "time": 121.72556025,
          "velocity": 0.5039370078740157
        },
        {
          "duration": 0.1327432500000043,
          "durationTicks": 240,
          "midi": 59,
          "name": "B3",
          "ticks": 220320,
          "time": 121.8583035,
          "velocity": 0.5039370078740157
        },
        {
          "duration": 0.1327432499999901,
          "durationTicks": 240,
          "midi": 62,
          "name": "D4",
          "ticks": 220560,
          "time": 121.99104675000001,
          "velocity": 0.5039370078740157
        },
        {
          "duration": 0.1327432500000043,
          "durationTicks": 240,
          "midi": 55,
          "name": "G3",
          "ticks": 220800,
          "time": 122.12379,
          "velocity": 0.5039370078740157
        },
        {
          "duration": 0.1327432500000043,
          "durationTicks": 240,
          "midi": 55,
          "name": "G3",
          "ticks": 221040,
          "time": 122.25653325,
          "velocity": 0.5039370078740157
        },
        {
          "duration": 0.1327432500000043,
          "durationTicks": 240,
          "midi": 59,
          "name": "B3",
          "ticks": 221280,
          "time": 122.38927650000001,
          "velocity": 0.5039370078740157
        },
        {
          "duration": 0.1327432499999901,
          "durationTicks": 240,
          "midi": 55,
          "name": "G3",
          "ticks": 221520,
          "time": 122.52201975000001,
          "velocity": 0.5039370078740157
        },
        {
          "duration": 0.1327432500000043,
          "durationTicks": 240,
          "midi": 57,
          "name": "A3",
          "ticks": 221760,
          "time": 122.654763,
          "velocity": 0.5039370078740157
        },
        {
          "duration": 0.1327432500000043,
          "durationTicks": 240,
          "midi": 55,
          "name": "G3",
          "ticks": 222000,
          "time": 122.78750625,
          "velocity": 0.5039370078740157
        },
        {
          "duration": 0.1327432499999901,
          "durationTicks": 240,
          "midi": 59,
          "name": "B3",
          "ticks": 222240,
          "time": 122.92024950000001,
          "velocity": 0.5039370078740157
        },
        {
          "duration": 0.1327432500000043,
          "durationTicks": 240,
          "midi": 55,
          "name": "G3",
          "ticks": 222480,
          "time": 123.05299275,
          "velocity": 0.5039370078740157
        },
        {
          "duration": 0.1327432500000043,
          "durationTicks": 240,
          "midi": 50,
          "name": "D3",
          "ticks": 222720,
          "time": 123.185736,
          "velocity": 0.5039370078740157
        },
        {
          "duration": 0.1327432499999901,
          "durationTicks": 240,
          "midi": 50,
          "name": "D3",
          "ticks": 222960,
          "time": 123.31847925000001,
          "velocity": 0.5039370078740157
        },
        {
          "duration": 0.1327432500000043,
          "durationTicks": 240,
          "midi": 53,
          "name": "F3",
          "ticks": 223200,
          "time": 123.4512225,
          "velocity": 0.5039370078740157
        },
        {
          "duration": 0.1327432500000043,
          "durationTicks": 240,
          "midi": 50,
          "name": "D3",
          "ticks": 223440,
          "time": 123.58396575,
          "velocity": 0.5039370078740157
        },
        {
          "duration": 0.1327432500000043,
          "durationTicks": 240,
          "midi": 52,
          "name": "E3",
          "ticks": 223680,
          "time": 123.71670900000001,
          "velocity": 0.5039370078740157
        },
        {
          "duration": 0.1327432499999901,
          "durationTicks": 240,
          "midi": 50,
          "name": "D3",
          "ticks": 223920,
          "time": 123.84945225000001,
          "velocity": 0.5039370078740157
        },
        {
          "duration": 0.1327432500000043,
          "durationTicks": 240,
          "midi": 53,
          "name": "F3",
          "ticks": 224160,
          "time": 123.9821955,
          "velocity": 0.5039370078740157
        },
        {
          "duration": 0.1327432500000043,
          "durationTicks": 240,
          "midi": 57,
          "name": "A3",
          "ticks": 224400,
          "time": 124.11493875000001,
          "velocity": 0.5039370078740157
        },
        {
          "duration": 0.1327432499999901,
          "durationTicks": 240,
          "midi": 50,
          "name": "D3",
          "ticks": 224640,
          "time": 124.24768200000001,
          "velocity": 0.5039370078740157
        },
        {
          "duration": 0.1327432500000043,
          "durationTicks": 240,
          "midi": 50,
          "name": "D3",
          "ticks": 224880,
          "time": 124.38042525,
          "velocity": 0.5039370078740157
        },
        {
          "duration": 0.1327432500000043,
          "durationTicks": 240,
          "midi": 53,
          "name": "F3",
          "ticks": 225120,
          "time": 124.5131685,
          "velocity": 0.5039370078740157
        },
        {
          "duration": 0.1327432499999901,
          "durationTicks": 240,
          "midi": 50,
          "name": "D3",
          "ticks": 225360,
          "time": 124.64591175000001,
          "velocity": 0.5039370078740157
        },
        {
          "duration": 0.1327432500000043,
          "durationTicks": 240,
          "midi": 52,
          "name": "E3",
          "ticks": 225600,
          "time": 124.778655,
          "velocity": 0.5039370078740157
        },
        {
          "duration": 0.1327432500000043,
          "durationTicks": 240,
          "midi": 50,
          "name": "D3",
          "ticks": 225840,
          "time": 124.91139825,
          "velocity": 0.5039370078740157
        },
        {
          "duration": 0.1327432500000043,
          "durationTicks": 240,
          "midi": 53,
          "name": "F3",
          "ticks": 226080,
          "time": 125.04414150000001,
          "velocity": 0.5039370078740157
        },
        {
          "duration": 0.1327432499999901,
          "durationTicks": 240,
          "midi": 50,
          "name": "D3",
          "ticks": 226320,
          "time": 125.17688475000001,
          "velocity": 0.5039370078740157
        },
        {
          "duration": 0.1327432500000043,
          "durationTicks": 240,
          "midi": 52,
          "name": "E3",
          "ticks": 226560,
          "time": 125.309628,
          "velocity": 0.5039370078740157
        },
        {
          "duration": 0.1327432500000043,
          "durationTicks": 240,
          "midi": 52,
          "name": "E3",
          "ticks": 226800,
          "time": 125.44237125000001,
          "velocity": 0.5039370078740157
        },
        {
          "duration": 0.1327432499999901,
          "durationTicks": 240,
          "midi": 55,
          "name": "G3",
          "ticks": 227040,
          "time": 125.57511450000001,
          "velocity": 0.5039370078740157
        },
        {
          "duration": 0.1327432500000043,
          "durationTicks": 240,
          "midi": 52,
          "name": "E3",
          "ticks": 227280,
          "time": 125.70785775,
          "velocity": 0.5039370078740157
        },
        {
          "duration": 0.1327432500000043,
          "durationTicks": 240,
          "midi": 54,
          "name": "F#3",
          "ticks": 227520,
          "time": 125.840601,
          "velocity": 0.5039370078740157
        },
        {
          "duration": 0.1327432499999901,
          "durationTicks": 240,
          "midi": 52,
          "name": "E3",
          "ticks": 227760,
          "time": 125.97334425000001,
          "velocity": 0.5039370078740157
        },
        {
          "duration": 0.1327432500000043,
          "durationTicks": 240,
          "midi": 55,
          "name": "G3",
          "ticks": 228000,
          "time": 126.1060875,
          "velocity": 0.5039370078740157
        },
        {
          "duration": 0.1327432500000043,
          "durationTicks": 240,
          "midi": 59,
          "name": "B3",
          "ticks": 228240,
          "time": 126.23883075,
          "velocity": 0.5039370078740157
        },
        {
          "duration": 0.1327432499999901,
          "durationTicks": 240,
          "midi": 52,
          "name": "E3",
          "ticks": 228480,
          "time": 126.37157400000001,
          "velocity": 0.5039370078740157
        },
        {
          "duration": 0.1327432500000043,
          "durationTicks": 240,
          "midi": 52,
          "name": "E3",
          "ticks": 228720,
          "time": 126.50431725,
          "velocity": 0.5039370078740157
        },
        {
          "duration": 0.1327432500000043,
          "durationTicks": 240,
          "midi": 55,
          "name": "G3",
          "ticks": 228960,
          "time": 126.6370605,
          "velocity": 0.5039370078740157
        },
        {
          "duration": 0.1327432500000043,
          "durationTicks": 240,
          "midi": 52,
          "name": "E3",
          "ticks": 229200,
          "time": 126.76980375000001,
          "velocity": 0.5039370078740157
        },
        {
          "duration": 0.1327432499999901,
          "durationTicks": 240,
          "midi": 54,
          "name": "F#3",
          "ticks": 229440,
          "time": 126.90254700000001,
          "velocity": 0.5039370078740157
        },
        {
          "duration": 0.1327432500000043,
          "durationTicks": 240,
          "midi": 52,
          "name": "E3",
          "ticks": 229680,
          "time": 127.03529025,
          "velocity": 0.5039370078740157
        },
        {
          "duration": 0.1327432500000043,
          "durationTicks": 240,
          "midi": 55,
          "name": "G3",
          "ticks": 229920,
          "time": 127.1680335,
          "velocity": 0.5039370078740157
        },
        {
          "duration": 0.1327432499999901,
          "durationTicks": 240,
          "midi": 52,
          "name": "E3",
          "ticks": 230160,
          "time": 127.30077675000001,
          "velocity": 0.5039370078740157
        },
        {
          "duration": 0.1327432500000043,
          "durationTicks": 240,
          "midi": 53,
          "name": "F3",
          "ticks": 230400,
          "time": 127.43352,
          "velocity": 0.5039370078740157
        },
        {
          "duration": 0.1327432500000043,
          "durationTicks": 240,
          "midi": 53,
          "name": "F3",
          "ticks": 230640,
          "time": 127.56626325,
          "velocity": 0.5039370078740157
        },
        {
          "duration": 0.1327432499999901,
          "durationTicks": 240,
          "midi": 57,
          "name": "A3",
          "ticks": 230880,
          "time": 127.69900650000001,
          "velocity": 0.5039370078740157
        },
        {
          "duration": 0.1327432500000043,
          "durationTicks": 240,
          "midi": 53,
          "name": "F3",
          "ticks": 231120,
          "time": 127.83174975,
          "velocity": 0.5039370078740157
        },
        {
          "duration": 0.1327432500000043,
          "durationTicks": 240,
          "midi": 55,
          "name": "G3",
          "ticks": 231360,
          "time": 127.964493,
          "velocity": 0.5039370078740157
        },
        {
          "duration": 0.1327432500000043,
          "durationTicks": 240,
          "midi": 53,
          "name": "F3",
          "ticks": 231600,
          "time": 128.09723625,
          "velocity": 0.5039370078740157
        },
        {
          "duration": 0.1327432500000043,
          "durationTicks": 240,
          "midi": 57,
          "name": "A3",
          "ticks": 231840,
          "time": 128.2299795,
          "velocity": 0.5039370078740157
        },
        {
          "duration": 0.1327432499999759,
          "durationTicks": 240,
          "midi": 60,
          "name": "C4",
          "ticks": 232080,
          "time": 128.36272275000002,
          "velocity": 0.5039370078740157
        },
        {
          "duration": 0.1327432500000043,
          "durationTicks": 240,
          "midi": 53,
          "name": "F3",
          "ticks": 232320,
          "time": 128.495466,
          "velocity": 0.5039370078740157
        },
        {
          "duration": 0.1327432500000043,
          "durationTicks": 240,
          "midi": 53,
          "name": "F3",
          "ticks": 232560,
          "time": 128.62820925,
          "velocity": 0.5039370078740157
        },
        {
          "duration": 0.1327432500000043,
          "durationTicks": 240,
          "midi": 57,
          "name": "A3",
          "ticks": 232800,
          "time": 128.7609525,
          "velocity": 0.5039370078740157
        },
        {
          "duration": 0.1327432500000043,
          "durationTicks": 240,
          "midi": 53,
          "name": "F3",
          "ticks": 233040,
          "time": 128.89369575,
          "velocity": 0.5039370078740157
        },
        {
          "duration": 0.1327432500000043,
          "durationTicks": 240,
          "midi": 55,
          "name": "G3",
          "ticks": 233280,
          "time": 129.026439,
          "velocity": 0.5039370078740157
        },
        {
          "duration": 0.1327432500000043,
          "durationTicks": 240,
          "midi": 53,
          "name": "F3",
          "ticks": 233520,
          "time": 129.15918225000001,
          "velocity": 0.5039370078740157
        },
        {
          "duration": 0.1327432499999759,
          "durationTicks": 240,
          "midi": 57,
          "name": "A3",
          "ticks": 233760,
          "time": 129.29192550000002,
          "velocity": 0.5039370078740157
        },
        {
          "duration": 0.1327432500000043,
          "durationTicks": 240,
          "midi": 53,
          "name": "F3",
          "ticks": 234000,
          "time": 129.42466875,
          "velocity": 0.5039370078740157
        },
        {
          "duration": 0.1327432500000043,
          "durationTicks": 240,
          "midi": 55,
          "name": "G3",
          "ticks": 234240,
          "time": 129.557412,
          "velocity": 0.5039370078740157
        },
        {
          "duration": 0.1327432500000043,
          "durationTicks": 240,
          "midi": 55,
          "name": "G3",
          "ticks": 234480,
          "time": 129.69015525,
          "velocity": 0.5039370078740157
        },
        {
          "duration": 0.1327432500000043,
          "durationTicks": 240,
          "midi": 59,
          "name": "B3",
          "ticks": 234720,
          "time": 129.8228985,
          "velocity": 0.5039370078740157
        },
        {
          "duration": 0.1327432500000043,
          "durationTicks": 240,
          "midi": 55,
          "name": "G3",
          "ticks": 234960,
          "time": 129.95564175,
          "velocity": 0.5039370078740157
        },
        {
          "duration": 0.1327432500000043,
          "durationTicks": 240,
          "midi": 57,
          "name": "A3",
          "ticks": 235200,
          "time": 130.08838500000002,
          "velocity": 0.5039370078740157
        },
        {
          "duration": 0.1327432499999759,
          "durationTicks": 240,
          "midi": 55,
          "name": "G3",
          "ticks": 235440,
          "time": 130.22112825000002,
          "velocity": 0.5039370078740157
        },
        {
          "duration": 0.1327432500000043,
          "durationTicks": 240,
          "midi": 59,
          "name": "B3",
          "ticks": 235680,
          "time": 130.3538715,
          "velocity": 0.5039370078740157
        },
        {
          "duration": 0.1327432500000043,
          "durationTicks": 240,
          "midi": 62,
          "name": "D4",
          "ticks": 235920,
          "time": 130.48661475,
          "velocity": 0.5039370078740157
        },
        {
          "duration": 0.1327432500000043,
          "durationTicks": 240,
          "midi": 55,
          "name": "G3",
          "ticks": 236160,
          "time": 130.619358,
          "velocity": 0.5039370078740157
        },
        {
          "duration": 0.1327432500000043,
          "durationTicks": 240,
          "midi": 55,
          "name": "G3",
          "ticks": 236400,
          "time": 130.75210125,
          "velocity": 0.5039370078740157
        },
        {
          "duration": 0.1327432500000043,
          "durationTicks": 240,
          "midi": 59,
          "name": "B3",
          "ticks": 236640,
          "time": 130.8848445,
          "velocity": 0.5039370078740157
        },
        {
          "duration": 0.1327432499999759,
          "durationTicks": 240,
          "midi": 55,
          "name": "G3",
          "ticks": 236880,
          "time": 131.01758775000002,
          "velocity": 0.5039370078740157
        },
        {
          "duration": 0.1327432500000043,
          "durationTicks": 240,
          "midi": 57,
          "name": "A3",
          "ticks": 237120,
          "time": 131.150331,
          "velocity": 0.5039370078740157
        },
        {
          "duration": 0.1327432500000043,
          "durationTicks": 240,
          "midi": 55,
          "name": "G3",
          "ticks": 237360,
          "time": 131.28307425,
          "velocity": 0.5039370078740157
        },
        {
          "duration": 0.1327432500000043,
          "durationTicks": 240,
          "midi": 59,
          "name": "B3",
          "ticks": 237600,
          "time": 131.4158175,
          "velocity": 0.5039370078740157
        },
        {
          "duration": 0.1327432500000043,
          "durationTicks": 240,
          "midi": 55,
          "name": "G3",
          "ticks": 237840,
          "time": 131.54856075,
          "velocity": 0.5039370078740157
        },
        {
          "duration": 0.1327432500000043,
          "durationTicks": 240,
          "midi": 52,
          "name": "E3",
          "ticks": 238080,
          "time": 131.681304,
          "velocity": 0.5039370078740157
        },
        {
          "duration": 0.1327432500000043,
          "durationTicks": 240,
          "midi": 52,
          "name": "E3",
          "ticks": 238320,
          "time": 131.81404725000002,
          "velocity": 0.5039370078740157
        },
        {
          "duration": 0.1327432499999759,
          "durationTicks": 240,
          "midi": 55,
          "name": "G3",
          "ticks": 238560,
          "time": 131.94679050000002,
          "velocity": 0.5039370078740157
        },
        {
          "duration": 0.1327432500000043,
          "durationTicks": 240,
          "midi": 52,
          "name": "E3",
          "ticks": 238800,
          "time": 132.07953375,
          "velocity": 0.5039370078740157
        },
        {
          "duration": 0.1327432500000043,
          "durationTicks": 240,
          "midi": 54,
          "name": "F#3",
          "ticks": 239040,
          "time": 132.212277,
          "velocity": 0.5039370078740157
        },
        {
          "duration": 0.1327432500000043,
          "durationTicks": 240,
          "midi": 52,
          "name": "E3",
          "ticks": 239280,
          "time": 132.34502025,
          "velocity": 0.5039370078740157
        },
        {
          "duration": 0.1327432500000043,
          "durationTicks": 240,
          "midi": 55,
          "name": "G3",
          "ticks": 239520,
          "time": 132.4777635,
          "velocity": 0.5039370078740157
        },
        {
          "duration": 0.1327432500000043,
          "durationTicks": 240,
          "midi": 59,
          "name": "B3",
          "ticks": 239760,
          "time": 132.61050675,
          "velocity": 0.5039370078740157
        },
        {
          "duration": 0.1327432499999759,
          "durationTicks": 240,
          "midi": 52,
          "name": "E3",
          "ticks": 240000,
          "time": 132.74325000000002,
          "velocity": 0.5039370078740157
        },
        {
          "duration": 0.1327432500000043,
          "durationTicks": 240,
          "midi": 52,
          "name": "E3",
          "ticks": 240240,
          "time": 132.87599325,
          "velocity": 0.5039370078740157
        },
        {
          "duration": 0.1327432500000043,
          "durationTicks": 240,
          "midi": 55,
          "name": "G3",
          "ticks": 240480,
          "time": 133.0087365,
          "velocity": 0.5039370078740157
        },
        {
          "duration": 0.1327432500000043,
          "durationTicks": 240,
          "midi": 52,
          "name": "E3",
          "ticks": 240720,
          "time": 133.14147975,
          "velocity": 0.5039370078740157
        },
        {
          "duration": 0.1327432500000043,
          "durationTicks": 240,
          "midi": 54,
          "name": "F#3",
          "ticks": 240960,
          "time": 133.274223,
          "velocity": 0.5039370078740157
        },
        {
          "duration": 0.1327432500000043,
          "durationTicks": 240,
          "midi": 52,
          "name": "E3",
          "ticks": 241200,
          "time": 133.40696625,
          "velocity": 0.5039370078740157
        },
        {
          "duration": 0.1327432500000043,
          "durationTicks": 240,
          "midi": 55,
          "name": "G3",
          "ticks": 241440,
          "time": 133.53970950000001,
          "velocity": 0.5039370078740157
        },
        {
          "duration": 0.1327432499999759,
          "durationTicks": 240,
          "midi": 52,
          "name": "E3",
          "ticks": 241680,
          "time": 133.67245275000002,
          "velocity": 0.5039370078740157
        },
        {
          "duration": 0.1327432500000043,
          "durationTicks": 240,
          "midi": 52,
          "name": "E3",
          "ticks": 241920,
          "time": 133.805196,
          "velocity": 0.5039370078740157
        },
        {
          "duration": 0.1327432500000043,
          "durationTicks": 240,
          "midi": 52,
          "name": "E3",
          "ticks": 242160,
          "time": 133.93793925,
          "velocity": 0.5039370078740157
        },
        {
          "duration": 0.1327432500000043,
          "durationTicks": 240,
          "midi": 55,
          "name": "G3",
          "ticks": 242400,
          "time": 134.0706825,
          "velocity": 0.5039370078740157
        },
        {
          "duration": 0.1327432500000043,
          "durationTicks": 240,
          "midi": 52,
          "name": "E3",
          "ticks": 242640,
          "time": 134.20342575,
          "velocity": 0.5039370078740157
        },
        {
          "duration": 0.1327432500000043,
          "durationTicks": 240,
          "midi": 54,
          "name": "F#3",
          "ticks": 242880,
          "time": 134.336169,
          "velocity": 0.5039370078740157
        },
        {
          "duration": 0.1327432500000043,
          "durationTicks": 240,
          "midi": 52,
          "name": "E3",
          "ticks": 243120,
          "time": 134.46891225000002,
          "velocity": 0.5039370078740157
        },
        {
          "duration": 0.1327432499999759,
          "durationTicks": 240,
          "midi": 55,
          "name": "G3",
          "ticks": 243360,
          "time": 134.60165550000002,
          "velocity": 0.5039370078740157
        },
        {
          "duration": 0.1327432500000043,
          "durationTicks": 240,
          "midi": 59,
          "name": "B3",
          "ticks": 243600,
          "time": 134.73439875,
          "velocity": 0.5039370078740157
        },
        {
          "duration": 0.1327432500000043,
          "durationTicks": 240,
          "midi": 52,
          "name": "E3",
          "ticks": 243840,
          "time": 134.867142,
          "velocity": 0.5039370078740157
        },
        {
          "duration": 0.1327432500000043,
          "durationTicks": 240,
          "midi": 52,
          "name": "E3",
          "ticks": 244080,
          "time": 134.99988525,
          "velocity": 0.5039370078740157
        },
        {
          "duration": 0.1327432500000043,
          "durationTicks": 240,
          "midi": 55,
          "name": "G3",
          "ticks": 244320,
          "time": 135.1326285,
          "velocity": 0.5039370078740157
        },
        {
          "duration": 0.1327432500000043,
          "durationTicks": 240,
          "midi": 52,
          "name": "E3",
          "ticks": 244560,
          "time": 135.26537175,
          "velocity": 0.5039370078740157
        },
        {
          "duration": 0.1327432499999759,
          "durationTicks": 240,
          "midi": 54,
          "name": "F#3",
          "ticks": 244800,
          "time": 135.39811500000002,
          "velocity": 0.5039370078740157
        },
        {
          "duration": 0.1327432500000043,
          "durationTicks": 240,
          "midi": 52,
          "name": "E3",
          "ticks": 245040,
          "time": 135.53085825,
          "velocity": 0.5039370078740157
        },
        {
          "duration": 0.1327432500000043,
          "durationTicks": 240,
          "midi": 55,
          "name": "G3",
          "ticks": 245280,
          "time": 135.6636015,
          "velocity": 0.5039370078740157
        },
        {
          "duration": 0.1327432500000043,
          "durationTicks": 240,
          "midi": 57,
          "name": "A3",
          "ticks": 245520,
          "time": 135.79634475,
          "velocity": 0.5039370078740157
        }
      ]
    }
  ]
}