{
  "header": {
    "keySignatures": [],
    "meta": {
      "title": "Dreamscape",
      "artist": "009 Sound System",
      "creator": "unknown"
    },
    "name": "",
    "ppq": 1000,
    "tempos": [
      {
        "bpm": 123.00022140039852,
        "ticks": 0
      }
    ],
    "timeSignatures": [
      {
        "ticks": 0,
        "timeSignature": [
          4,
          4
        ],
        "measures": 0
      }
    ]
  },
  "tracks": [
    {
      "channel": 0,
      "controlChanges": {
        "0": [
          {
            "number": 0,
            "ticks": 0,
            "time": 0,
            "value": 0
          }
        ]
      },
      "pitchBends": [],
      "instrument": {
        "family": "piano",
        "number": 0,
        "name": "acoustic grand piano"
      },
      "name": "vrvrvrvrvrv",
      "notes": [],
      "endOfTrackTicks": 256000
    },
    {
      "channel": 0,
      "controlChanges": {},
      "pitchBends": [],
      "instrument": {
        "family": "synth lead",
        "number": 80,
        "name": "lead 1 (square)"
      },
      "name": "",
      "notes": [
        {
          "duration": 0.487804,
          "durationTicks": 1000,
          "midi": 63,
          "name": "D#4",
          "ticks": 0,
          "time": 0,
          "velocity": 1
        },
        {
          "duration": 0.487804,
          "durationTicks": 1000,
          "midi": 63,
          "name": "D#4",
          "ticks": 1000,
          "time": 0.487804,
          "velocity": 1
        },
        {
          "duration": 0.4878039999999999,
          "durationTicks": 1000,
          "midi": 63,
          "name": "D#4",
          "ticks": 2000,
          "time": 0.975608,
          "velocity": 1
        },
        {
          "duration": 0.4878040000000001,
          "durationTicks": 1000,
          "midi": 63,
          "name": "D#4",
          "ticks": 3000,
          "time": 1.463412,
          "velocity": 1
        },
        {
          "duration": 0.4878040000000001,
          "durationTicks": 1000,
          "midi": 66,
          "name": "F#4",
          "ticks": 4000,
          "time": 1.951216,
          "velocity": 1
        },
        {
          "duration": 0.4878039999999997,
          "durationTicks": 1000,
          "midi": 66,
          "name": "F#4",
          "ticks": 5000,
          "time": 2.43902,
          "velocity": 1
        },
        {
          "duration": 0.4878040000000001,
          "durationTicks": 1000,
          "midi": 66,
          "name": "F#4",
          "ticks": 6000,
          "time": 2.926824,
          "velocity": 1
        },
        {
          "duration": 0.4878040000000001,
          "durationTicks": 1000,
          "midi": 66,
          "name": "F#4",
          "ticks": 7000,
          "time": 3.414628,
          "velocity": 1
        },
        {
          "duration": 0.4878039999999997,
          "durationTicks": 1000,
          "midi": 63,
          "name": "D#4",
          "ticks": 8000,
          "time": 3.902432,
          "velocity": 1
        },
        {
          "duration": 0.48780400000000057,
          "durationTicks": 1000,
          "midi": 63,
          "name": "D#4",
          "ticks": 9000,
          "time": 4.390236,
          "velocity": 1
        },
        {
          "duration": 0.4878039999999997,
          "durationTicks": 1000,
          "midi": 63,
          "name": "D#4",
          "ticks": 10000,
          "time": 4.87804,
          "velocity": 1
        },
        {
          "duration": 0.4878039999999997,
          "durationTicks": 1000,
          "midi": 63,
          "name": "D#4",
          "ticks": 11000,
          "time": 5.365844,
          "velocity": 1
        },
        {
          "duration": 0.48780400000000057,
          "durationTicks": 1000,
          "midi": 63,
          "name": "D#4",
          "ticks": 12000,
          "time": 5.853648,
          "velocity": 1
        },
        {
          "duration": 0.4878039999999997,
          "durationTicks": 1000,
          "midi": 63,
          "name": "D#4",
          "ticks": 13000,
          "time": 6.341452,
          "velocity": 1
        },
        {
          "duration": 0.48780400000000057,
          "durationTicks": 1000,
          "midi": 63,
          "name": "D#4",
          "ticks": 14000,
          "time": 6.829256,
          "velocity": 1
        },
        {
          "duration": 0.4878039999999997,
          "durationTicks": 1000,
          "midi": 61,
          "name": "C#4",
          "ticks": 15000,
          "time": 7.317060000000001,
          "velocity": 1
        },
        {
          "duration": 0.48780400000000057,
          "durationTicks": 1000,
          "midi": 63,
          "name": "D#4",
          "ticks": 16000,
          "time": 7.804864,
          "velocity": 1
        },
        {
          "duration": 0.4878039999999988,
          "durationTicks": 1000,
          "midi": 63,
          "name": "D#4",
          "ticks": 17000,
          "time": 8.292668,
          "velocity": 1
        },
        {
          "duration": 0.48780400000000057,
          "durationTicks": 1000,
          "midi": 63,
          "name": "D#4",
          "ticks": 18000,
          "time": 8.780472,
          "velocity": 1
        },
        {
          "duration": 0.48780400000000057,
          "durationTicks": 1000,
          "midi": 63,
          "name": "D#4",
          "ticks": 19000,
          "time": 9.268276,
          "velocity": 1
        },
        {
          "duration": 0.4878039999999988,
          "durationTicks": 1000,
          "midi": 66,
          "name": "F#4",
          "ticks": 20000,
          "time": 9.75608,
          "velocity": 1
        },
        {
          "duration": 0.48780400000000057,
          "durationTicks": 1000,
          "midi": 66,
          "name": "F#4",
          "ticks": 21000,
          "time": 10.243884,
          "velocity": 1
        },
        {
          "duration": 0.48780400000000057,
          "durationTicks": 1000,
          "midi": 66,
          "name": "F#4",
          "ticks": 22000,
          "time": 10.731688,
          "velocity": 1
        },
        {
          "duration": 0.4878039999999988,
          "durationTicks": 1000,
          "midi": 66,
          "name": "F#4",
          "ticks": 23000,
          "time": 11.219492,
          "velocity": 1
        },
        {
          "duration": 0.48780400000000057,
          "durationTicks": 1000,
          "midi": 63,
          "name": "D#4",
          "ticks": 24000,
          "time": 11.707296,
          "velocity": 1
        },
        {
          "duration": 0.48780400000000057,
          "durationTicks": 1000,
          "midi": 63,
          "name": "D#4",
          "ticks": 25000,
          "time": 12.1951,
          "velocity": 1
        },
        {
          "duration": 0.48780400000000057,
          "durationTicks": 1000,
          "midi": 63,
          "name": "D#4",
          "ticks": 26000,
          "time": 12.682904,
          "velocity": 1
        },
        {
          "duration": 0.4878039999999988,
          "durationTicks": 1000,
          "midi": 63,
          "name": "D#4",
          "ticks": 27000,
          "time": 13.170708000000001,
          "velocity": 1
        },
        {
          "duration": 0.48780400000000057,
          "durationTicks": 1000,
          "midi": 63,
          "name": "D#4",
          "ticks": 28000,
          "time": 13.658512,
          "velocity": 1
        },
        {
          "duration": 0.48780400000000057,
          "durationTicks": 1000,
          "midi": 63,
          "name": "D#4",
          "ticks": 29000,
          "time": 14.146316,
          "velocity": 1
        },
        {
          "duration": 0.4878039999999988,
          "durationTicks": 1000,
          "midi": 63,
          "name": "D#4",
          "ticks": 30000,
          "time": 14.634120000000001,
          "velocity": 1
        },
        {
          "duration": 0.48780400000000057,
          "durationTicks": 1000,
          "midi": 61,
          "name": "C#4",
          "ticks": 31000,
          "time": 15.121924,
          "velocity": 1
        },
        {
          "duration": 0.48780400000000057,
          "durationTicks": 1000,
          "midi": 63,
          "name": "D#4",
          "ticks": 32000,
          "time": 15.609728,
          "velocity": 1
        },
        {
          "duration": 0.48780400000000057,
          "durationTicks": 1000,
          "midi": 63,
          "name": "D#4",
          "ticks": 33000,
          "time": 16.097532,
          "velocity": 1
        },
        {
          "duration": 0.48780400000000057,
          "durationTicks": 1000,
          "midi": 63,
          "name": "D#4",
          "ticks": 34000,
          "time": 16.585336,
          "velocity": 1
        },
        {
          "duration": 0.487803999999997,
          "durationTicks": 1000,
          "midi": 63,
          "name": "D#4",
          "ticks": 35000,
          "time": 17.073140000000002,
          "velocity": 1
        },
        {
          "duration": 0.48780400000000057,
          "durationTicks": 1000,
          "midi": 66,
          "name": "F#4",
          "ticks": 36000,
          "time": 17.560944,
          "velocity": 1
        },
        {
          "duration": 0.48780400000000057,
          "durationTicks": 1000,
          "midi": 66,
          "name": "F#4",
          "ticks": 37000,
          "time": 18.048748,
          "velocity": 1
        },
        {
          "duration": 0.48780400000000057,
          "durationTicks": 1000,
          "midi": 66,
          "name": "F#4",
          "ticks": 38000,
          "time": 18.536552,
          "velocity": 1
        },
        {
          "duration": 0.48780400000000057,
          "durationTicks": 1000,
          "midi": 66,
          "name": "F#4",
          "ticks": 39000,
          "time": 19.024356,
          "velocity": 1
        },
        {
          "duration": 0.48780400000000057,
          "durationTicks": 1000,
          "midi": 63,
          "name": "D#4",
          "ticks": 40000,
          "time": 19.51216,
          "velocity": 1
        },
        {
          "duration": 0.487803999999997,
          "durationTicks": 1000,
          "midi": 63,
          "name": "D#4",
          "ticks": 41000,
          "time": 19.999964000000002,
          "velocity": 1
        },
        {
          "duration": 0.48780400000000057,
          "durationTicks": 1000,
          "midi": 63,
          "name": "D#4",
          "ticks": 42000,
          "time": 20.487768,
          "velocity": 1
        },
        {
          "duration": 0.48780400000000057,
          "durationTicks": 1000,
          "midi": 63,
          "name": "D#4",
          "ticks": 43000,
          "time": 20.975572,
          "velocity": 1
        },
        {
          "duration": 0.48780400000000057,
          "durationTicks": 1000,
          "midi": 63,
          "name": "D#4",
          "ticks": 44000,
          "time": 21.463376,
          "velocity": 1
        },
        {
          "duration": 0.48780400000000057,
          "durationTicks": 1000,
          "midi": 63,
          "name": "D#4",
          "ticks": 45000,
          "time": 21.95118,
          "velocity": 1
        },
        {
          "duration": 0.48780400000000057,
          "durationTicks": 1000,
          "midi": 63,
          "name": "D#4",
          "ticks": 46000,
          "time": 22.438984,
          "velocity": 1
        },
        {
          "duration": 0.487803999999997,
          "durationTicks": 1000,
          "midi": 61,
          "name": "C#4",
          "ticks": 47000,
          "time": 22.926788000000002,
          "velocity": 1
        },
        {
          "duration": 0.48780400000000057,
          "durationTicks": 1000,
          "midi": 63,
          "name": "D#4",
          "ticks": 48000,
          "time": 23.414592,
          "velocity": 1
        },
        {
          "duration": 0.48780400000000057,
          "durationTicks": 1000,
          "midi": 63,
          "name": "D#4",
          "ticks": 49000,
          "time": 23.902396,
          "velocity": 1
        },
        {
          "duration": 0.48780400000000057,
          "durationTicks": 1000,
          "midi": 63,
          "name": "D#4",
          "ticks": 50000,
          "time": 24.3902,
          "velocity": 1
        },
        {
          "duration": 0.48780400000000057,
          "durationTicks": 1000,
          "midi": 63,
          "name": "D#4",
          "ticks": 51000,
          "time": 24.878004,
          "velocity": 1
        },
        {
          "duration": 0.48780400000000057,
          "durationTicks": 1000,
          "midi": 66,
          "name": "F#4",
          "ticks": 52000,
          "time": 25.365808,
          "velocity": 1
        },
        {
          "duration": 0.48780400000000057,
          "durationTicks": 1000,
          "midi": 66,
          "name": "F#4",
          "ticks": 53000,
          "time": 25.853612000000002,
          "velocity": 1
        },
        {
          "duration": 0.487803999999997,
          "durationTicks": 1000,
          "midi": 66,
          "name": "F#4",
          "ticks": 54000,
          "time": 26.341416000000002,
          "velocity": 1
        },
        {
          "duration": 0.48780400000000057,
          "durationTicks": 1000,
          "midi": 66,
          "name": "F#4",
          "ticks": 55000,
          "time": 26.82922,
          "velocity": 1
        },
        {
          "duration": 0.48780400000000057,
          "durationTicks": 1000,
          "midi": 63,
          "name": "D#4",
          "ticks": 56000,
          "time": 27.317024,
          "velocity": 1
        },
        {
          "duration": 0.48780400000000057,
          "durationTicks": 1000,
          "midi": 63,
          "name": "D#4",
          "ticks": 57000,
          "time": 27.804828,
          "velocity": 1
        },
        {
          "duration": 0.48780400000000057,
          "durationTicks": 1000,
          "midi": 63,
          "name": "D#4",
          "ticks": 58000,
          "time": 28.292632,
          "velocity": 1
        },
        {
          "duration": 0.48780400000000057,
          "durationTicks": 1000,
          "midi": 63,
          "name": "D#4",
          "ticks": 59000,
          "time": 28.780436,
          "velocity": 1
        },
        {
          "duration": 0.487803999999997,
          "durationTicks": 1000,
          "midi": 63,
          "name": "D#4",
          "ticks": 60000,
          "time": 29.268240000000002,
          "velocity": 1
        },
        {
          "duration": 0.48780400000000057,
          "durationTicks": 1000,
          "midi": 63,
          "name": "D#4",
          "ticks": 61000,
          "time": 29.756044,
          "velocity": 1
        },
        {
          "duration": 0.48780400000000057,
          "durationTicks": 1000,
          "midi": 63,
          "name": "D#4",
          "ticks": 62000,
          "time": 30.243848,
          "velocity": 1
        },
        {
          "duration": 0.48780400000000057,
          "durationTicks": 1000,
          "midi": 61,
          "name": "C#4",
          "ticks": 63000,
          "time": 30.731652,
          "velocity": 1
        },
        {
          "duration": 0.48780400000001123,
          "durationTicks": 1000,
          "midi": 63,
          "name": "D#4",
          "ticks": 192000,
          "time": 93.658368,
          "velocity": 1
        },
        {
          "duration": 0.487803999999997,
          "durationTicks": 1000,
          "midi": 63,
          "name": "D#4",
          "ticks": 193000,
          "time": 94.146172,
          "velocity": 1
        },
        {
          "duration": 0.487803999999997,
          "durationTicks": 1000,
          "midi": 63,
          "name": "D#4",
          "ticks": 194000,
          "time": 94.633976,
          "velocity": 1
        },
        {
          "duration": 0.487803999999997,
          "durationTicks": 1000,
          "midi": 63,
          "name": "D#4",
          "ticks": 195000,
          "time": 95.12178,
          "velocity": 1
        },
        {
          "duration": 0.48780400000001123,
          "durationTicks": 1000,
          "midi": 66,
          "name": "F#4",
          "ticks": 196000,
          "time": 95.609584,
          "velocity": 1
        },
        {
          "duration": 0.487803999999997,
          "durationTicks": 1000,
          "midi": 66,
          "name": "F#4",
          "ticks": 197000,
          "time": 96.09738800000001,
          "velocity": 1
        },
        {
          "duration": 0.487803999999997,
          "durationTicks": 1000,
          "midi": 66,
          "name": "F#4",
          "ticks": 198000,
          "time": 96.585192,
          "velocity": 1
        },
        {
          "duration": 0.487803999999997,
          "durationTicks": 1000,
          "midi": 66,
          "name": "F#4",
          "ticks": 199000,
          "time": 97.072996,
          "velocity": 1
        },
        {
          "duration": 0.487803999999997,
          "durationTicks": 1000,
          "midi": 63,
          "name": "D#4",
          "ticks": 200000,
          "time": 97.5608,
          "velocity": 1
        },
        {
          "duration": 0.48780400000001123,
          "durationTicks": 1000,
          "midi": 63,
          "name": "D#4",
          "ticks": 201000,
          "time": 98.048604,
          "velocity": 1
        },
        {
          "duration": 0.487803999999997,
          "durationTicks": 1000,
          "midi": 63,
          "name": "D#4",
          "ticks": 202000,
          "time": 98.53640800000001,
          "velocity": 1
        },
        {
          "duration": 0.487803999999997,
          "durationTicks": 1000,
          "midi": 63,
          "name": "D#4",
          "ticks": 203000,
          "time": 99.024212,
          "velocity": 1
        },
        {
          "duration": 0.487803999999997,
          "durationTicks": 1000,
          "midi": 63,
          "name": "D#4",
          "ticks": 204000,
          "time": 99.512016,
          "velocity": 1
        },
        {
          "duration": 0.487803999999997,
          "durationTicks": 1000,
          "midi": 63,
          "name": "D#4",
          "ticks": 205000,
          "time": 99.99982,
          "velocity": 1
        },
        {
          "duration": 0.48780400000001123,
          "durationTicks": 1000,
          "midi": 63,
          "name": "D#4",
          "ticks": 206000,
          "time": 100.487624,
          "velocity": 1
        },
        {
          "duration": 0.487803999999997,
          "durationTicks": 1000,
          "midi": 61,
          "name": "C#4",
          "ticks": 207000,
          "time": 100.97542800000001,
          "velocity": 1
        },
        {
          "duration": 0.487803999999997,
          "durationTicks": 1000,
          "midi": 63,
          "name": "D#4",
          "ticks": 208000,
          "time": 101.463232,
          "velocity": 1
        },
        {
          "duration": 0.487803999999997,
          "durationTicks": 1000,
          "midi": 63,
          "name": "D#4",
          "ticks": 209000,
          "time": 101.951036,
          "velocity": 1
        },
        {
          "duration": 0.48780400000001123,
          "durationTicks": 1000,
          "midi": 63,
          "name": "D#4",
          "ticks": 210000,
          "time": 102.43884,
          "velocity": 1
        },
        {
          "duration": 0.487803999999997,
          "durationTicks": 1000,
          "midi": 63,
          "name": "D#4",
          "ticks": 211000,
          "time": 102.92664400000001,
          "velocity": 1
        },
        {
          "duration": 0.487803999999997,
          "durationTicks": 1000,
          "midi": 66,
          "name": "F#4",
          "ticks": 212000,
          "time": 103.41444800000001,
          "velocity": 1
        },
        {
          "duration": 0.487803999999997,
          "durationTicks": 1000,
          "midi": 66,
          "name": "F#4",
          "ticks": 213000,
          "time": 103.902252,
          "velocity": 1
        },
        {
          "duration": 0.487803999999997,
          "durationTicks": 1000,
          "midi": 66,
          "name": "F#4",
          "ticks": 214000,
          "time": 104.390056,
          "velocity": 1
        },
        {
          "duration": 0.48780400000001123,
          "durationTicks": 1000,
          "midi": 66,
          "name": "F#4",
          "ticks": 215000,
          "time": 104.87786,
          "velocity": 1
        },
        {
          "duration": 0.487803999999997,
          "durationTicks": 1000,
          "midi": 63,
          "name": "D#4",
          "ticks": 216000,
          "time": 105.36566400000001,
          "velocity": 1
        },
        {
          "duration": 0.487803999999997,
          "durationTicks": 1000,
          "midi": 63,
          "name": "D#4",
          "ticks": 217000,
          "time": 105.853468,
          "velocity": 1
        },
        {
          "duration": 0.487803999999997,
          "durationTicks": 1000,
          "midi": 63,
          "name": "D#4",
          "ticks": 218000,
          "time": 106.341272,
          "velocity": 1
        },
        {
          "duration": 0.487803999999997,
          "durationTicks": 1000,
          "midi": 63,
          "name": "D#4",
          "ticks": 219000,
          "time": 106.829076,
          "velocity": 1
        },
        {
          "duration": 0.48780400000001123,
          "durationTicks": 1000,
          "midi": 63,
          "name": "D#4",
          "ticks": 220000,
          "time": 107.31688,
          "velocity": 1
        },
        {
          "duration": 0.487803999999997,
          "durationTicks": 1000,
          "midi": 63,
          "name": "D#4",
          "ticks": 221000,
          "time": 107.80468400000001,
          "velocity": 1
        },
        {
          "duration": 0.487803999999997,
          "durationTicks": 1000,
          "midi": 63,
          "name": "D#4",
          "ticks": 222000,
          "time": 108.292488,
          "velocity": 1
        },
        {
          "duration": 0.487803999999997,
          "durationTicks": 1000,
          "midi": 61,
          "name": "C#4",
          "ticks": 223000,
          "time": 108.780292,
          "velocity": 1
        },
        {
          "duration": 0.487803999999997,
          "durationTicks": 1000,
          "midi": 63,
          "name": "D#4",
          "ticks": 224000,
          "time": 109.268096,
          "velocity": 1
        },
        {
          "duration": 0.48780400000001123,
          "durationTicks": 1000,
          "midi": 63,
          "name": "D#4",
          "ticks": 225000,
          "time": 109.7559,
          "velocity": 1
        },
        {
          "duration": 0.487803999999997,
          "durationTicks": 1000,
          "midi": 63,
          "name": "D#4",
          "ticks": 226000,
          "time": 110.24370400000001,
          "velocity": 1
        },
        {
          "duration": 0.487803999999997,
          "durationTicks": 1000,
          "midi": 63,
          "name": "D#4",
          "ticks": 227000,
          "time": 110.731508,
          "velocity": 1
        },
        {
          "duration": 0.487803999999997,
          "durationTicks": 1000,
          "midi": 66,
          "name": "F#4",
          "ticks": 228000,
          "time": 111.219312,
          "velocity": 1
        },
        {
          "duration": 0.48780400000001123,
          "durationTicks": 1000,
          "midi": 66,
          "name": "F#4",
          "ticks": 229000,
          "time": 111.707116,
          "velocity": 1
        },
        {
          "duration": 0.487803999999997,
          "durationTicks": 1000,
          "midi": 66,
          "name": "F#4",
          "ticks": 230000,
          "time": 112.19492000000001,
          "velocity": 1
        },
        {
          "duration": 0.487803999999997,
          "durationTicks": 1000,
          "midi": 66,
          "name": "F#4",
          "ticks": 231000,
          "time": 112.68272400000001,
          "velocity": 1
        },
        {
          "duration": 0.487803999999997,
          "durationTicks": 1000,
          "midi": 63,
          "name": "D#4",
          "ticks": 232000,
          "time": 113.170528,
          "velocity": 1
        },
        {
          "duration": 0.487803999999997,
          "durationTicks": 1000,
          "midi": 63,
          "name": "D#4",
          "ticks": 233000,
          "time": 113.658332,
          "velocity": 1
        },
        {
          "duration": 0.48780400000001123,
          "durationTicks": 1000,
          "midi": 63,
          "name": "D#4",
          "ticks": 234000,
          "time": 114.146136,
          "velocity": 1
        },
        {
          "duration": 0.487803999999997,
          "durationTicks": 1000,
          "midi": 63,
          "name": "D#4",
          "ticks": 235000,
          "time": 114.63394000000001,
          "velocity": 1
        },
        {
          "duration": 0.487803999999997,
          "durationTicks": 1000,
          "midi": 63,
          "name": "D#4",
          "ticks": 236000,
          "time": 115.121744,
          "velocity": 1
        },
        {
          "duration": 0.487803999999997,
          "durationTicks": 1000,
          "midi": 63,
          "name": "D#4",
          "ticks": 237000,
          "time": 115.609548,
          "velocity": 1
        },
        {
          "duration": 0.487803999999997,
          "durationTicks": 1000,
          "midi": 63,
          "name": "D#4",
          "ticks": 238000,
          "time": 116.097352,
          "velocity": 1
        },
        {
          "duration": 0.48780400000001123,
          "durationTicks": 1000,
          "midi": 61,
          "name": "C#4",
          "ticks": 239000,
          "time": 116.585156,
          "velocity": 1
        },
        {
          "duration": 0.487803999999997,
          "durationTicks": 1000,
          "midi": 63,
          "name": "D#4",
          "ticks": 240000,
          "time": 117.07296000000001,
          "velocity": 1
        },
        {
          "duration": 0.487803999999997,
          "durationTicks": 1000,
          "midi": 63,
          "name": "D#4",
          "ticks": 241000,
          "time": 117.560764,
          "velocity": 1
        },
        {
          "duration": 0.487803999999997,
          "durationTicks": 1000,
          "midi": 63,
          "name": "D#4",
          "ticks": 242000,
          "time": 118.048568,
          "velocity": 1
        },
        {
          "duration": 0.487803999999997,
          "durationTicks": 1000,
          "midi": 63,
          "name": "D#4",
          "ticks": 243000,
          "time": 118.536372,
          "velocity": 1
        },
        {
          "duration": 0.48780400000001123,
          "durationTicks": 1000,
          "midi": 66,
          "name": "F#4",
          "ticks": 244000,
          "time": 119.024176,
          "velocity": 1
        },
        {
          "duration": 0.487803999999997,
          "durationTicks": 1000,
          "midi": 66,
          "name": "F#4",
          "ticks": 245000,
          "time": 119.51198000000001,
          "velocity": 1
        },
        {
          "duration": 0.487803999999997,
          "durationTicks": 1000,
          "midi": 66,
          "name": "F#4",
          "ticks": 246000,
          "time": 119.999784,
          "velocity": 1
        },
        {
          "duration": 0.487803999999997,
          "durationTicks": 1000,
          "midi": 66,
          "name": "F#4",
          "ticks": 247000,
          "time": 120.487588,
          "velocity": 1
        },
        {
          "duration": 0.48780400000001123,
          "durationTicks": 1000,
          "midi": 63,
          "name": "D#4",
          "ticks": 248000,
          "time": 120.975392,
          "velocity": 1
        },
        {
          "duration": 0.487803999999997,
          "durationTicks": 1000,
          "midi": 63,
          "name": "D#4",
          "ticks": 249000,
          "time": 121.46319600000001,
          "velocity": 1
        },
        {
          "duration": 0.487803999999997,
          "durationTicks": 1000,
          "midi": 63,
          "name": "D#4",
          "ticks": 250000,
          "time": 121.95100000000001,
          "velocity": 1
        },
        {
          "duration": 0.487803999999997,
          "durationTicks": 1000,
          "midi": 63,
          "name": "D#4",
          "ticks": 251000,
          "time": 122.438804,
          "velocity": 1
        },
        {
          "duration": 0.487803999999997,
          "durationTicks": 1000,
          "midi": 63,
          "name": "D#4",
          "ticks": 252000,
          "time": 122.926608,
          "velocity": 1
        },
        {
          "duration": 0.48780400000001123,
          "durationTicks": 1000,
          "midi": 63,
          "name": "D#4",
          "ticks": 253000,
          "time": 123.414412,
          "velocity": 1
        },
        {
          "duration": 0.487803999999997,
          "durationTicks": 1000,
          "midi": 63,
          "name": "D#4",
          "ticks": 254000,
          "time": 123.90221600000001,
          "velocity": 1
        },
        {
          "duration": 0.487803999999997,
          "durationTicks": 1000,
          "midi": 61,
          "name": "C#4",
          "ticks": 255000,
          "time": 124.39002,
          "velocity": 1
        }
      ]
    },
    {
      "channel": 0,
      "controlChanges": {
        "0": [
          {
            "number": 0,
            "ticks": 0,
            "time": 0,
            "value": 0
          }
        ]
      },
      "pitchBends": [],
      "instrument": {
        "family": "piano",
        "number": 0,
        "name": "acoustic grand piano"
      },
      "name": "vrrrrrrrrrrr",
      "notes": [],
      "endOfTrackTicks": 256500
    },
    {
      "channel": 1,
      "controlChanges": {},
      "pitchBends": [],
      "instrument": {
        "family": "guitar",
        "number": 30,
        "name": "distortion guitar"
      },
      "name": "",
      "notes": [
        {
          "duration": 0.48780399999999996,
          "durationTicks": 1000,
          "midi": 39,
          "name": "D#2",
          "ticks": 500,
          "time": 0.243902,
          "velocity": 1
        },
        {
          "duration": 0.4878040000000001,
          "durationTicks": 1000,
          "midi": 39,
          "name": "D#2",
          "ticks": 1500,
          "time": 0.731706,
          "velocity": 1
        },
        {
          "duration": 0.4878039999999999,
          "durationTicks": 1000,
          "midi": 39,
          "name": "D#2",
          "ticks": 2500,
          "time": 1.21951,
          "velocity": 1
        },
        {
          "duration": 0.4878039999999999,
          "durationTicks": 1000,
          "midi": 39,
          "name": "D#2",
          "ticks": 3500,
          "time": 1.707314,
          "velocity": 1
        },
        {
          "duration": 0.4878040000000001,
          "durationTicks": 1000,
          "midi": 42,
          "name": "F#2",
          "ticks": 4500,
          "time": 2.195118,
          "velocity": 1
        },
        {
          "duration": 0.4878040000000001,
          "durationTicks": 1000,
          "midi": 42,
          "name": "F#2",
          "ticks": 5500,
          "time": 2.682922,
          "velocity": 1
        },
        {
          "duration": 0.4878040000000001,
          "durationTicks": 1000,
          "midi": 42,
          "name": "F#2",
          "ticks": 6500,
          "time": 3.170726,
          "velocity": 1
        },
        {
          "duration": 0.4878040000000001,
          "durationTicks": 1000,
          "midi": 42,
          "name": "F#2",
          "ticks": 7500,
          "time": 3.6585300000000003,
          "velocity": 1
        },
        {
          "duration": 0.4878039999999997,
          "durationTicks": 1000,
          "midi": 39,
          "name": "D#2",
          "ticks": 8500,
          "time": 4.146334,
          "velocity": 1
        },
        {
          "duration": 0.4878039999999997,
          "durationTicks": 1000,
          "midi": 39,
          "name": "D#2",
          "ticks": 9500,
          "time": 4.634138,
          "velocity": 1
        },
        {
          "duration": 0.48780400000000057,
          "durationTicks": 1000,
          "midi": 39,
          "name": "D#2",
          "ticks": 10500,
          "time": 5.121942,
          "velocity": 1
        },
        {
          "duration": 0.4878039999999997,
          "durationTicks": 1000,
          "midi": 39,
          "name": "D#2",
          "ticks": 11500,
          "time": 5.609746,
          "velocity": 1
        },
        {
          "duration": 0.48780400000000057,
          "durationTicks": 1000,
          "midi": 39,
          "name": "D#2",
          "ticks": 12500,
          "time": 6.09755,
          "velocity": 1
        },
        {
          "duration": 0.4878039999999997,
          "durationTicks": 1000,
          "midi": 39,
          "name": "D#2",
          "ticks": 13500,
          "time": 6.585354000000001,
          "velocity": 1
        },
        {
          "duration": 0.4878039999999997,
          "durationTicks": 1000,
          "midi": 39,
          "name": "D#2",
          "ticks": 14500,
          "time": 7.073158,
          "velocity": 1
        },
        {
          "duration": 0.48780400000000057,
          "durationTicks": 1000,
          "midi": 37,
          "name": "C#2",
          "ticks": 15500,
          "time": 7.560962,
          "velocity": 1
        },
        {
          "duration": 0.48780400000000057,
          "durationTicks": 1000,
          "midi": 39,
          "name": "D#2",
          "ticks": 16500,
          "time": 8.048766,
          "velocity": 1
        },
        {
          "duration": 0.4878039999999988,
          "durationTicks": 1000,
          "midi": 39,
          "name": "D#2",
          "ticks": 17500,
          "time": 8.536570000000001,
          "velocity": 1
        },
        {
          "duration": 0.48780400000000057,
          "durationTicks": 1000,
          "midi": 39,
          "name": "D#2",
          "ticks": 18500,
          "time": 9.024374,
          "velocity": 1
        },
        {
          "duration": 0.48780400000000057,
          "durationTicks": 1000,
          "midi": 39,
          "name": "D#2",
          "ticks": 19500,
          "time": 9.512178,
          "velocity": 1
        },
        {
          "duration": 0.4878039999999988,
          "durationTicks": 1000,
          "midi": 42,
          "name": "F#2",
          "ticks": 20500,
          "time": 9.999982000000001,
          "velocity": 1
        },
        {
          "duration": 0.48780400000000057,
          "durationTicks": 1000,
          "midi": 42,
          "name": "F#2",
          "ticks": 21500,
          "time": 10.487786,
          "velocity": 1
        },
        {
          "duration": 0.48780400000000057,
          "durationTicks": 1000,
          "midi": 42,
          "name": "F#2",
          "ticks": 22500,
          "time": 10.97559,
          "velocity": 1
        },
        {
          "duration": 0.4878039999999988,
          "durationTicks": 1000,
          "midi": 42,
          "name": "F#2",
          "ticks": 23500,
          "time": 11.463394000000001,
          "velocity": 1
        },
        {
          "duration": 0.48780400000000057,
          "durationTicks": 1000,
          "midi": 39,
          "name": "D#2",
          "ticks": 24500,
          "time": 11.951198,
          "velocity": 1
        },
        {
          "duration": 0.48780400000000057,
          "durationTicks": 1000,
          "midi": 39,
          "name": "D#2",
          "ticks": 25500,
          "time": 12.439002,
          "velocity": 1
        },
        {
          "duration": 0.4878039999999988,
          "durationTicks": 1000,
          "midi": 39,
          "name": "D#2",
          "ticks": 26500,
          "time": 12.926806000000001,
          "velocity": 1
        },
        {
          "duration": 0.48780400000000057,
          "durationTicks": 1000,
          "midi": 39,
          "name": "D#2",
          "ticks": 27500,
          "time": 13.41461,
          "velocity": 1
        },
        {
          "duration": 0.48780400000000057,
          "durationTicks": 1000,
          "midi": 39,
          "name": "D#2",
          "ticks": 28500,
          "time": 13.902414,
          "velocity": 1
        },
        {
          "duration": 0.4878039999999988,
          "durationTicks": 1000,
          "midi": 39,
          "name": "D#2",
          "ticks": 29500,
          "time": 14.390218,
          "velocity": 1
        },
        {
          "duration": 0.48780400000000057,
          "durationTicks": 1000,
          "midi": 39,
          "name": "D#2",
          "ticks": 30500,
          "time": 14.878022,
          "velocity": 1
        },
        {
          "duration": 0.48780400000000057,
          "durationTicks": 1000,
          "midi": 37,
          "name": "C#2",
          "ticks": 31500,
          "time": 15.365826,
          "velocity": 1
        },
        {
          "duration": 0.4878039999999988,
          "durationTicks": 1000,
          "midi": 39,
          "name": "D#2",
          "ticks": 32500,
          "time": 15.85363,
          "velocity": 1
        },
        {
          "duration": 0.48780400000000057,
          "durationTicks": 1000,
          "midi": 39,
          "name": "D#2",
          "ticks": 33500,
          "time": 16.341434,
          "velocity": 1
        },
        {
          "duration": 0.48780400000000057,
          "durationTicks": 1000,
          "midi": 39,
          "name": "D#2",
          "ticks": 34500,
          "time": 16.829238,
          "velocity": 1
        },
        {
          "duration": 0.48780400000000057,
          "durationTicks": 1000,
          "midi": 39,
          "name": "D#2",
          "ticks": 35500,
          "time": 17.317042,
          "velocity": 1
        },
        {
          "duration": 0.48780400000000057,
          "durationTicks": 1000,
          "midi": 42,
          "name": "F#2",
          "ticks": 36500,
          "time": 17.804846,
          "velocity": 1
        },
        {
          "duration": 0.487803999999997,
          "durationTicks": 1000,
          "midi": 42,
          "name": "F#2",
          "ticks": 37500,
          "time": 18.292650000000002,
          "velocity": 1
        },
        {
          "duration": 0.48780400000000057,
          "durationTicks": 1000,
          "midi": 42,
          "name": "F#2",
          "ticks": 38500,
          "time": 18.780454,
          "velocity": 1
        },
        {
          "duration": 0.48780400000000057,
          "durationTicks": 1000,
          "midi": 42,
          "name": "F#2",
          "ticks": 39500,
          "time": 19.268258,
          "velocity": 1
        },
        {
          "duration": 0.48780400000000057,
          "durationTicks": 1000,
          "midi": 39,
          "name": "D#2",
          "ticks": 40500,
          "time": 19.756062,
          "velocity": 1
        },
        {
          "duration": 0.48780400000000057,
          "durationTicks": 1000,
          "midi": 39,
          "name": "D#2",
          "ticks": 41500,
          "time": 20.243866,
          "velocity": 1
        },
        {
          "duration": 0.48780400000000057,
          "durationTicks": 1000,
          "midi": 39,
          "name": "D#2",
          "ticks": 42500,
          "time": 20.73167,
          "velocity": 1
        },
        {
          "duration": 0.48780400000000057,
          "durationTicks": 1000,
          "midi": 39,
          "name": "D#2",
          "ticks": 43500,
          "time": 21.219474,
          "velocity": 1
        },
        {
          "duration": 0.487803999999997,
          "durationTicks": 1000,
          "midi": 39,
          "name": "D#2",
          "ticks": 44500,
          "time": 21.707278000000002,
          "velocity": 1
        },
        {
          "duration": 0.48780400000000057,
          "durationTicks": 1000,
          "midi": 39,
          "name": "D#2",
          "ticks": 45500,
          "time": 22.195082,
          "velocity": 1
        },
        {
          "duration": 0.48780400000000057,
          "durationTicks": 1000,
          "midi": 39,
          "name": "D#2",
          "ticks": 46500,
          "time": 22.682886,
          "velocity": 1
        },
        {
          "duration": 0.48780400000000057,
          "durationTicks": 1000,
          "midi": 37,
          "name": "C#2",
          "ticks": 47500,
          "time": 23.17069,
          "velocity": 1
        },
        {
          "duration": 0.48780400000000057,
          "durationTicks": 1000,
          "midi": 39,
          "name": "D#2",
          "ticks": 48500,
          "time": 23.658494,
          "velocity": 1
        },
        {
          "duration": 0.48780400000000057,
          "durationTicks": 1000,
          "midi": 39,
          "name": "D#2",
          "ticks": 49500,
          "time": 24.146298,
          "velocity": 1
        },
        {
          "duration": 0.487803999999997,
          "durationTicks": 1000,
          "midi": 39,
          "name": "D#2",
          "ticks": 50500,
          "time": 24.634102000000002,
          "velocity": 1
        },
        {
          "duration": 0.48780400000000057,
          "durationTicks": 1000,
          "midi": 39,
          "name": "D#2",
          "ticks": 51500,
          "time": 25.121906,
          "velocity": 1
        },
        {
          "duration": 0.48780400000000057,
          "durationTicks": 1000,
          "midi": 42,
          "name": "F#2",
          "ticks": 52500,
          "time": 25.60971,
          "velocity": 1
        },
        {
          "duration": 0.48780400000000057,
          "durationTicks": 1000,
          "midi": 42,
          "name": "F#2",
          "ticks": 53500,
          "time": 26.097514,
          "velocity": 1
        },
        {
          "duration": 0.48780400000000057,
          "durationTicks": 1000,
          "midi": 42,
          "name": "F#2",
          "ticks": 54500,
          "time": 26.585318,
          "velocity": 1
        },
        {
          "duration": 0.48780400000000057,
          "durationTicks": 1000,
          "midi": 42,
          "name": "F#2",
          "ticks": 55500,
          "time": 27.073122,
          "velocity": 1
        },
        {
          "duration": 0.48780400000000057,
          "durationTicks": 1000,
          "midi": 39,
          "name": "D#2",
          "ticks": 56500,
          "time": 27.560926000000002,
          "velocity": 1
        },
        {
          "duration": 0.487803999999997,
          "durationTicks": 1000,
          "midi": 39,
          "name": "D#2",
          "ticks": 57500,
          "time": 28.048730000000003,
          "velocity": 1
        },
        {
          "duration": 0.48780400000000057,
          "durationTicks": 1000,
          "midi": 39,
          "name": "D#2",
          "ticks": 58500,
          "time": 28.536534,
          "velocity": 1
        },
        {
          "duration": 0.48780400000000057,
          "durationTicks": 1000,
          "midi": 39,
          "name": "D#2",
          "ticks": 59500,
          "time": 29.024338,
          "velocity": 1
        },
        {
          "duration": 0.48780400000000057,
          "durationTicks": 1000,
          "midi": 39,
          "name": "D#2",
          "ticks": 60500,
          "time": 29.512142,
          "velocity": 1
        },
        {
          "duration": 0.48780400000000057,
          "durationTicks": 1000,
          "midi": 39,
          "name": "D#2",
          "ticks": 61500,
          "time": 29.999946,
          "velocity": 1
        },
        {
          "duration": 0.48780400000000057,
          "durationTicks": 1000,
          "midi": 39,
          "name": "D#2",
          "ticks": 62500,
          "time": 30.487750000000002,
          "velocity": 1
        },
        {
          "duration": 0.487803999999997,
          "durationTicks": 1000,
          "midi": 37,
          "name": "C#2",
          "ticks": 63500,
          "time": 30.975554000000002,
          "velocity": 1
        },
        {
          "duration": 0.48780400000000057,
          "durationTicks": 1000,
          "midi": 39,
          "name": "D#2",
          "ticks": 64500,
          "time": 31.463358,
          "velocity": 1
        },
        {
          "duration": 0.48780400000000057,
          "durationTicks": 1000,
          "midi": 39,
          "name": "D#2",
          "ticks": 65500,
          "time": 31.951162,
          "velocity": 1
        },
        {
          "duration": 0.487803999999997,
          "durationTicks": 1000,
          "midi": 39,
          "name": "D#2",
          "ticks": 66500,
          "time": 32.438966,
          "velocity": 1
        },
        {
          "duration": 0.4878040000000041,
          "durationTicks": 1000,
          "midi": 39,
          "name": "D#2",
          "ticks": 67500,
          "time": 32.92677,
          "velocity": 1
        },
        {
          "duration": 0.487803999999997,
          "durationTicks": 1000,
          "midi": 42,
          "name": "F#2",
          "ticks": 68500,
          "time": 33.414574,
          "velocity": 1
        },
        {
          "duration": 0.4878040000000041,
          "durationTicks": 1000,
          "midi": 42,
          "name": "F#2",
          "ticks": 69500,
          "time": 33.902378,
          "velocity": 1
        },
        {
          "duration": 0.487803999999997,
          "durationTicks": 1000,
          "midi": 42,
          "name": "F#2",
          "ticks": 70500,
          "time": 34.390182,
          "velocity": 1
        },
        {
          "duration": 0.4878040000000041,
          "durationTicks": 1000,
          "midi": 42,
          "name": "F#2",
          "ticks": 71500,
          "time": 34.877986,
          "velocity": 1
        },
        {
          "duration": 0.487803999999997,
          "durationTicks": 1000,
          "midi": 39,
          "name": "D#2",
          "ticks": 72500,
          "time": 35.365790000000004,
          "velocity": 1
        },
        {
          "duration": 0.487803999999997,
          "durationTicks": 1000,
          "midi": 39,
          "name": "D#2",
          "ticks": 73500,
          "time": 35.853594,
          "velocity": 1
        },
        {
          "duration": 0.4878040000000041,
          "durationTicks": 1000,
          "midi": 39,
          "name": "D#2",
          "ticks": 74500,
          "time": 36.341398,
          "velocity": 1
        },
        {
          "duration": 0.487803999999997,
          "durationTicks": 1000,
          "midi": 39,
          "name": "D#2",
          "ticks": 75500,
          "time": 36.829202,
          "velocity": 1
        },
        {
          "duration": 0.4878040000000041,
          "durationTicks": 1000,
          "midi": 39,
          "name": "D#2",
          "ticks": 76500,
          "time": 37.317006,
          "velocity": 1
        },
        {
          "duration": 0.487803999999997,
          "durationTicks": 1000,
          "midi": 39,
          "name": "D#2",
          "ticks": 77500,
          "time": 37.80481,
          "velocity": 1
        },
        {
          "duration": 0.4878040000000041,
          "durationTicks": 1000,
          "midi": 39,
          "name": "D#2",
          "ticks": 78500,
          "time": 38.292614,
          "velocity": 1
        },
        {
          "duration": 0.487803999999997,
          "durationTicks": 1000,
          "midi": 37,
          "name": "C#2",
          "ticks": 79500,
          "time": 38.780418000000004,
          "velocity": 1
        },
        {
          "duration": 0.487803999999997,
          "durationTicks": 1000,
          "midi": 39,
          "name": "D#2",
          "ticks": 80500,
          "time": 39.268222,
          "velocity": 1
        },
        {
          "duration": 0.4878040000000041,
          "durationTicks": 1000,
          "midi": 39,
          "name": "D#2",
          "ticks": 81500,
          "time": 39.756026,
          "velocity": 1
        },
        {
          "duration": 0.487803999999997,
          "durationTicks": 1000,
          "midi": 39,
          "name": "D#2",
          "ticks": 82500,
          "time": 40.24383,
          "velocity": 1
        },
        {
          "duration": 0.4878040000000041,
          "durationTicks": 1000,
          "midi": 39,
          "name": "D#2",
          "ticks": 83500,
          "time": 40.731634,
          "velocity": 1
        },
        {
          "duration": 0.487803999999997,
          "durationTicks": 1000,
          "midi": 42,
          "name": "F#2",
          "ticks": 84500,
          "time": 41.219438000000004,
          "velocity": 1
        },
        {
          "duration": 0.487803999999997,
          "durationTicks": 1000,
          "midi": 42,
          "name": "F#2",
          "ticks": 85500,
          "time": 41.707242,
          "velocity": 1
        },
        {
          "duration": 0.4878040000000041,
          "durationTicks": 1000,
          "midi": 42,
          "name": "F#2",
          "ticks": 86500,
          "time": 42.195046,
          "velocity": 1
        },
        {
          "duration": 0.487803999999997,
          "durationTicks": 1000,
          "midi": 42,
          "name": "F#2",
          "ticks": 87500,
          "time": 42.68285,
          "velocity": 1
        },
        {
          "duration": 0.4878040000000041,
          "durationTicks": 1000,
          "midi": 39,
          "name": "D#2",
          "ticks": 88500,
          "time": 43.170654,
          "velocity": 1
        },
        {
          "duration": 0.487803999999997,
          "durationTicks": 1000,
          "midi": 39,
          "name": "D#2",
          "ticks": 89500,
          "time": 43.658458,
          "velocity": 1
        },
        {
          "duration": 0.4878040000000041,
          "durationTicks": 1000,
          "midi": 39,
          "name": "D#2",
          "ticks": 90500,
          "time": 44.146262,
          "velocity": 1
        },
        {
          "duration": 0.487803999999997,
          "durationTicks": 1000,
          "midi": 39,
          "name": "D#2",
          "ticks": 91500,
          "time": 44.634066000000004,
          "velocity": 1
        },
        {
          "duration": 0.487803999999997,
          "durationTicks": 1000,
          "midi": 39,
          "name": "D#2",
          "ticks": 92500,
          "time": 45.12187,
          "velocity": 1
        },
        {
          "duration": 0.4878040000000041,
          "durationTicks": 1000,
          "midi": 39,
          "name": "D#2",
          "ticks": 93500,
          "time": 45.609674,
          "velocity": 1
        },
        {
          "duration": 0.487803999999997,
          "durationTicks": 1000,
          "midi": 39,
          "name": "D#2",
          "ticks": 94500,
          "time": 46.097478,
          "velocity": 1
        },
        {
          "duration": 0.4878040000000041,
          "durationTicks": 1000,
          "midi": 37,
          "name": "C#2",
          "ticks": 95500,
          "time": 46.585282,
          "velocity": 1
        },
        {
          "duration": 0.487803999999997,
          "durationTicks": 1000,
          "midi": 39,
          "name": "D#2",
          "ticks": 96500,
          "time": 47.073086,
          "velocity": 1
        },
        {
          "duration": 0.4878040000000041,
          "durationTicks": 1000,
          "midi": 39,
          "name": "D#2",
          "ticks": 97500,
          "time": 47.56089,
          "velocity": 1
        },
        {
          "duration": 0.487803999999997,
          "durationTicks": 1000,
          "midi": 39,
          "name": "D#2",
          "ticks": 98500,
          "time": 48.048694000000005,
          "velocity": 1
        },
        {
          "duration": 0.487803999999997,
          "durationTicks": 1000,
          "midi": 39,
          "name": "D#2",
          "ticks": 99500,
          "time": 48.536498,
          "velocity": 1
        },
        {
          "duration": 0.4878040000000041,
          "durationTicks": 1000,
          "midi": 42,
          "name": "F#2",
          "ticks": 100500,
          "time": 49.024302,
          "velocity": 1
        },
        {
          "duration": 0.487803999999997,
          "durationTicks": 1000,
          "midi": 42,
          "name": "F#2",
          "ticks": 101500,
          "time": 49.512106,
          "velocity": 1
        },
        {
          "duration": 0.4878040000000041,
          "durationTicks": 1000,
          "midi": 42,
          "name": "F#2",
          "ticks": 102500,
          "time": 49.99991,
          "velocity": 1
        },
        {
          "duration": 0.487803999999997,
          "durationTicks": 1000,
          "midi": 42,
          "name": "F#2",
          "ticks": 103500,
          "time": 50.487714000000004,
          "velocity": 1
        },
        {
          "duration": 0.4878040000000041,
          "durationTicks": 1000,
          "midi": 39,
          "name": "D#2",
          "ticks": 104500,
          "time": 50.975518,
          "velocity": 1
        },
        {
          "duration": 0.487803999999997,
          "durationTicks": 1000,
          "midi": 39,
          "name": "D#2",
          "ticks": 105500,
          "time": 51.463322000000005,
          "velocity": 1
        },
        {
          "duration": 0.487803999999997,
          "durationTicks": 1000,
          "midi": 39,
          "name": "D#2",
          "ticks": 106500,
          "time": 51.951126,
          "velocity": 1
        },
        {
          "duration": 0.4878040000000041,
          "durationTicks": 1000,
          "midi": 39,
          "name": "D#2",
          "ticks": 107500,
          "time": 52.43893,
          "velocity": 1
        },
        {
          "duration": 0.487803999999997,
          "durationTicks": 1000,
          "midi": 39,
          "name": "D#2",
          "ticks": 108500,
          "time": 52.926734,
          "velocity": 1
        },
        {
          "duration": 0.4878040000000041,
          "durationTicks": 1000,
          "midi": 39,
          "name": "D#2",
          "ticks": 109500,
          "time": 53.414538,
          "velocity": 1
        },
        {
          "duration": 0.487803999999997,
          "durationTicks": 1000,
          "midi": 39,
          "name": "D#2",
          "ticks": 110500,
          "time": 53.902342000000004,
          "velocity": 1
        },
        {
          "duration": 0.487803999999997,
          "durationTicks": 1000,
          "midi": 37,
          "name": "C#2",
          "ticks": 111500,
          "time": 54.390146,
          "velocity": 1
        },
        {
          "duration": 0.4878040000000041,
          "durationTicks": 1000,
          "midi": 39,
          "name": "D#2",
          "ticks": 112500,
          "time": 54.87795,
          "velocity": 1
        },
        {
          "duration": 0.487803999999997,
          "durationTicks": 1000,
          "midi": 39,
          "name": "D#2",
          "ticks": 113500,
          "time": 55.365754,
          "velocity": 1
        },
        {
          "duration": 0.4878040000000041,
          "durationTicks": 1000,
          "midi": 39,
          "name": "D#2",
          "ticks": 114500,
          "time": 55.853558,
          "velocity": 1
        },
        {
          "duration": 0.487803999999997,
          "durationTicks": 1000,
          "midi": 39,
          "name": "D#2",
          "ticks": 115500,
          "time": 56.341362000000004,
          "velocity": 1
        },
        {
          "duration": 0.4878040000000041,
          "durationTicks": 1000,
          "midi": 42,
          "name": "F#2",
          "ticks": 116500,
          "time": 56.829166,
          "velocity": 1
        },
        {
          "duration": 0.487803999999997,
          "durationTicks": 1000,
          "midi": 42,
          "name": "F#2",
          "ticks": 117500,
          "time": 57.316970000000005,
          "velocity": 1
        },
        {
          "duration": 0.487803999999997,
          "durationTicks": 1000,
          "midi": 42,
          "name": "F#2",
          "ticks": 118500,
          "time": 57.804774,
          "velocity": 1
        },
        {
          "duration": 0.4878040000000041,
          "durationTicks": 1000,
          "midi": 42,
          "name": "F#2",
          "ticks": 119500,
          "time": 58.292578,
          "velocity": 1
        },
        {
          "duration": 0.487803999999997,
          "durationTicks": 1000,
          "midi": 39,
          "name": "D#2",
          "ticks": 120500,
          "time": 58.780382,
          "velocity": 1
        },
        {
          "duration": 0.4878040000000041,
          "durationTicks": 1000,
          "midi": 39,
          "name": "D#2",
          "ticks": 121500,
          "time": 59.268186,
          "velocity": 1
        },
        {
          "duration": 0.487803999999997,
          "durationTicks": 1000,
          "midi": 39,
          "name": "D#2",
          "ticks": 122500,
          "time": 59.755990000000004,
          "velocity": 1
        },
        {
          "duration": 0.4878040000000041,
          "durationTicks": 1000,
          "midi": 39,
          "name": "D#2",
          "ticks": 123500,
          "time": 60.243794,
          "velocity": 1
        },
        {
          "duration": 0.487803999999997,
          "durationTicks": 1000,
          "midi": 39,
          "name": "D#2",
          "ticks": 124500,
          "time": 60.731598000000005,
          "velocity": 1
        },
        {
          "duration": 0.487803999999997,
          "durationTicks": 1000,
          "midi": 39,
          "name": "D#2",
          "ticks": 125500,
          "time": 61.219402,
          "velocity": 1
        },
        {
          "duration": 0.4878040000000041,
          "durationTicks": 1000,
          "midi": 39,
          "name": "D#2",
          "ticks": 126500,
          "time": 61.707206,
          "velocity": 1
        },
        {
          "duration": 0.487803999999997,
          "durationTicks": 1000,
          "midi": 37,
          "name": "C#2",
          "ticks": 127500,
          "time": 62.19501,
          "velocity": 1
        },
        {
          "duration": 0.4878040000000041,
          "durationTicks": 1000,
          "midi": 39,
          "name": "D#2",
          "ticks": 128500,
          "time": 62.682814,
          "velocity": 1
        },
        {
          "duration": 0.487803999999997,
          "durationTicks": 1000,
          "midi": 39,
          "name": "D#2",
          "ticks": 129500,
          "time": 63.170618000000005,
          "velocity": 1
        },
        {
          "duration": 0.487803999999997,
          "durationTicks": 1000,
          "midi": 39,
          "name": "D#2",
          "ticks": 130500,
          "time": 63.658422,
          "velocity": 1
        },
        {
          "duration": 0.487803999999997,
          "durationTicks": 1000,
          "midi": 39,
          "name": "D#2",
          "ticks": 131500,
          "time": 64.146226,
          "velocity": 1
        },
        {
          "duration": 0.48780400000001123,
          "durationTicks": 1000,
          "midi": 42,
          "name": "F#2",
          "ticks": 132500,
          "time": 64.63403,
          "velocity": 1
        },
        {
          "duration": 0.487803999999997,
          "durationTicks": 1000,
          "midi": 42,
          "name": "F#2",
          "ticks": 133500,
          "time": 65.121834,
          "velocity": 1
        },
        {
          "duration": 0.487803999999997,
          "durationTicks": 1000,
          "midi": 42,
          "name": "F#2",
          "ticks": 134500,
          "time": 65.609638,
          "velocity": 1
        },
        {
          "duration": 0.487803999999997,
          "durationTicks": 1000,
          "midi": 42,
          "name": "F#2",
          "ticks": 135500,
          "time": 66.097442,
          "velocity": 1
        },
        {
          "duration": 0.48780400000001123,
          "durationTicks": 1000,
          "midi": 39,
          "name": "D#2",
          "ticks": 136500,
          "time": 66.585246,
          "velocity": 1
        },
        {
          "duration": 0.487803999999997,
          "durationTicks": 1000,
          "midi": 39,
          "name": "D#2",
          "ticks": 137500,
          "time": 67.07305000000001,
          "velocity": 1
        },
        {
          "duration": 0.487803999999997,
          "durationTicks": 1000,
          "midi": 39,
          "name": "D#2",
          "ticks": 138500,
          "time": 67.560854,
          "velocity": 1
        },
        {
          "duration": 0.487803999999997,
          "durationTicks": 1000,
          "midi": 39,
          "name": "D#2",
          "ticks": 139500,
          "time": 68.048658,
          "velocity": 1
        },
        {
          "duration": 0.487803999999997,
          "durationTicks": 1000,
          "midi": 39,
          "name": "D#2",
          "ticks": 140500,
          "time": 68.536462,
          "velocity": 1
        },
        {
          "duration": 0.48780400000001123,
          "durationTicks": 1000,
          "midi": 39,
          "name": "D#2",
          "ticks": 141500,
          "time": 69.024266,
          "velocity": 1
        },
        {
          "duration": 0.487803999999997,
          "durationTicks": 1000,
          "midi": 39,
          "name": "D#2",
          "ticks": 142500,
          "time": 69.51207000000001,
          "velocity": 1
        },
        {
          "duration": 0.487803999999997,
          "durationTicks": 1000,
          "midi": 37,
          "name": "C#2",
          "ticks": 143500,
          "time": 69.999874,
          "velocity": 1
        },
        {
          "duration": 0.487803999999997,
          "durationTicks": 1000,
          "midi": 39,
          "name": "D#2",
          "ticks": 144500,
          "time": 70.487678,
          "velocity": 1
        },
        {
          "duration": 0.487803999999997,
          "durationTicks": 1000,
          "midi": 39,
          "name": "D#2",
          "ticks": 145500,
          "time": 70.975482,
          "velocity": 1
        },
        {
          "duration": 0.48780400000001123,
          "durationTicks": 1000,
          "midi": 39,
          "name": "D#2",
          "ticks": 146500,
          "time": 71.463286,
          "velocity": 1
        },
        {
          "duration": 0.487803999999997,
          "durationTicks": 1000,
          "midi": 39,
          "name": "D#2",
          "ticks": 147500,
          "time": 71.95109000000001,
          "velocity": 1
        },
        {
          "duration": 0.487803999999997,
          "durationTicks": 1000,
          "midi": 42,
          "name": "F#2",
          "ticks": 148500,
          "time": 72.438894,
          "velocity": 1
        },
        {
          "duration": 0.487803999999997,
          "durationTicks": 1000,
          "midi": 42,
          "name": "F#2",
          "ticks": 149500,
          "time": 72.926698,
          "velocity": 1
        },
        {
          "duration": 0.487803999999997,
          "durationTicks": 1000,
          "midi": 42,
          "name": "F#2",
          "ticks": 150500,
          "time": 73.414502,
          "velocity": 1
        },
        {
          "duration": 0.48780400000001123,
          "durationTicks": 1000,
          "midi": 42,
          "name": "F#2",
          "ticks": 151500,
          "time": 73.902306,
          "velocity": 1
        },
        {
          "duration": 0.487803999999997,
          "durationTicks": 1000,
          "midi": 39,
          "name": "D#2",
          "ticks": 152500,
          "time": 74.39011,
          "velocity": 1
        },
        {
          "duration": 0.487803999999997,
          "durationTicks": 1000,
          "midi": 39,
          "name": "D#2",
          "ticks": 153500,
          "time": 74.877914,
          "velocity": 1
        },
        {
          "duration": 0.487803999999997,
          "durationTicks": 1000,
          "midi": 39,
          "name": "D#2",
          "ticks": 154500,
          "time": 75.365718,
          "velocity": 1
        },
        {
          "duration": 0.48780400000001123,
          "durationTicks": 1000,
          "midi": 39,
          "name": "D#2",
          "ticks": 155500,
          "time": 75.853522,
          "velocity": 1
        },
        {
          "duration": 0.487803999999997,
          "durationTicks": 1000,
          "midi": 39,
          "name": "D#2",
          "ticks": 156500,
          "time": 76.34132600000001,
          "velocity": 1
        },
        {
          "duration": 0.487803999999997,
          "durationTicks": 1000,
          "midi": 39,
          "name": "D#2",
          "ticks": 157500,
          "time": 76.82913,
          "velocity": 1
        },
        {
          "duration": 0.487803999999997,
          "durationTicks": 1000,
          "midi": 39,
          "name": "D#2",
          "ticks": 158500,
          "time": 77.316934,
          "velocity": 1
        },
        {
          "duration": 0.487803999999997,
          "durationTicks": 1000,
          "midi": 37,
          "name": "C#2",
          "ticks": 159500,
          "time": 77.804738,
          "velocity": 1
        },
        {
          "duration": 0.48780400000001123,
          "durationTicks": 1000,
          "midi": 39,
          "name": "D#2",
          "ticks": 160500,
          "time": 78.292542,
          "velocity": 1
        },
        {
          "duration": 0.487803999999997,
          "durationTicks": 1000,
          "midi": 39,
          "name": "D#2",
          "ticks": 161500,
          "time": 78.78034600000001,
          "velocity": 1
        },
        {
          "duration": 0.487803999999997,
          "durationTicks": 1000,
          "midi": 39,
          "name": "D#2",
          "ticks": 162500,
          "time": 79.26815,
          "velocity": 1
        },
        {
          "duration": 0.487803999999997,
          "durationTicks": 1000,
          "midi": 39,
          "name": "D#2",
          "ticks": 163500,
          "time": 79.755954,
          "velocity": 1
        },
        {
          "duration": 0.487803999999997,
          "durationTicks": 1000,
          "midi": 42,
          "name": "F#2",
          "ticks": 164500,
          "time": 80.243758,
          "velocity": 1
        },
        {
          "duration": 0.48780400000001123,
          "durationTicks": 1000,
          "midi": 42,
          "name": "F#2",
          "ticks": 165500,
          "time": 80.731562,
          "velocity": 1
        },
        {
          "duration": 0.487803999999997,
          "durationTicks": 1000,
          "midi": 42,
          "name": "F#2",
          "ticks": 166500,
          "time": 81.21936600000001,
          "velocity": 1
        },
        {
          "duration": 0.487803999999997,
          "durationTicks": 1000,
          "midi": 42,
          "name": "F#2",
          "ticks": 167500,
          "time": 81.70717,
          "velocity": 1
        },
        {
          "duration": 0.487803999999997,
          "durationTicks": 1000,
          "midi": 39,
          "name": "D#2",
          "ticks": 168500,
          "time": 82.194974,
          "velocity": 1
        },
        {
          "duration": 0.487803999999997,
          "durationTicks": 1000,
          "midi": 39,
          "name": "D#2",
          "ticks": 169500,
          "time": 82.682778,
          "velocity": 1
        },
        {
          "duration": 0.48780400000001123,
          "durationTicks": 1000,
          "midi": 39,
          "name": "D#2",
          "ticks": 170500,
          "time": 83.170582,
          "velocity": 1
        },
        {
          "duration": 0.487803999999997,
          "durationTicks": 1000,
          "midi": 39,
          "name": "D#2",
          "ticks": 171500,
          "time": 83.65838600000001,
          "velocity": 1
        },
        {
          "duration": 0.487803999999997,
          "durationTicks": 1000,
          "midi": 39,
          "name": "D#2",
          "ticks": 172500,
          "time": 84.14619,
          "velocity": 1
        },
        {
          "duration": 0.487803999999997,
          "durationTicks": 1000,
          "midi": 39,
          "name": "D#2",
          "ticks": 173500,
          "time": 84.633994,
          "velocity": 1
        },
        {
          "duration": 0.48780400000001123,
          "durationTicks": 1000,
          "midi": 39,
          "name": "D#2",
          "ticks": 174500,
          "time": 85.121798,
          "velocity": 1
        },
        {
          "duration": 0.487803999999997,
          "durationTicks": 1000,
          "midi": 37,
          "name": "C#2",
          "ticks": 175500,
          "time": 85.60960200000001,
          "velocity": 1
        },
        {
          "duration": 0.487803999999997,
          "durationTicks": 1000,
          "midi": 39,
          "name": "D#2",
          "ticks": 176500,
          "time": 86.097406,
          "velocity": 1
        },
        {
          "duration": 0.487803999999997,
          "durationTicks": 1000,
          "midi": 39,
          "name": "D#2",
          "ticks": 177500,
          "time": 86.58521,
          "velocity": 1
        },
        {
          "duration": 0.487803999999997,
          "durationTicks": 1000,
          "midi": 39,
          "name": "D#2",
          "ticks": 178500,
          "time": 87.073014,
          "velocity": 1
        },
        {
          "duration": 0.48780400000001123,
          "durationTicks": 1000,
          "midi": 39,
          "name": "D#2",
          "ticks": 179500,
          "time": 87.560818,
          "velocity": 1
        },
        {
          "duration": 0.487803999999997,
          "durationTicks": 1000,
          "midi": 42,
          "name": "F#2",
          "ticks": 180500,
          "time": 88.04862200000001,
          "velocity": 1
        },
        {
          "duration": 0.487803999999997,
          "durationTicks": 1000,
          "midi": 42,
          "name": "F#2",
          "ticks": 181500,
          "time": 88.536426,
          "velocity": 1
        },
        {
          "duration": 0.487803999999997,
          "durationTicks": 1000,
          "midi": 42,
          "name": "F#2",
          "ticks": 182500,
          "time": 89.02423,
          "velocity": 1
        },
        {
          "duration": 0.487803999999997,
          "durationTicks": 1000,
          "midi": 42,
          "name": "F#2",
          "ticks": 183500,
          "time": 89.512034,
          "velocity": 1
        },
        {
          "duration": 0.48780400000001123,
          "durationTicks": 1000,
          "midi": 39,
          "name": "D#2",
          "ticks": 184500,
          "time": 89.999838,
          "velocity": 1
        },
        {
          "duration": 0.487803999999997,
          "durationTicks": 1000,
          "midi": 39,
          "name": "D#2",
          "ticks": 185500,
          "time": 90.48764200000001,
          "velocity": 1
        },
        {
          "duration": 0.487803999999997,
          "durationTicks": 1000,
          "midi": 39,
          "name": "D#2",
          "ticks": 186500,
          "time": 90.975446,
          "velocity": 1
        },
        {
          "duration": 0.487803999999997,
          "durationTicks": 1000,
          "midi": 39,
          "name": "D#2",
          "ticks": 187500,
          "time": 91.46325,
          "velocity": 1
        },
        {
          "duration": 0.487803999999997,
          "durationTicks": 1000,
          "midi": 39,
          "name": "D#2",
          "ticks": 188500,
          "time": 91.951054,
          "velocity": 1
        },
        {
          "duration": 0.48780400000001123,
          "durationTicks": 1000,
          "midi": 39,
          "name": "D#2",
          "ticks": 189500,
          "time": 92.438858,
          "velocity": 1
        },
        {
          "duration": 0.487803999999997,
          "durationTicks": 1000,
          "midi": 39,
          "name": "D#2",
          "ticks": 190500,
          "time": 92.92666200000001,
          "velocity": 1
        },
        {
          "duration": 0.487803999999997,
          "durationTicks": 1000,
          "midi": 37,
          "name": "C#2",
          "ticks": 191500,
          "time": 93.414466,
          "velocity": 1
        },
        {
          "duration": 0.487803999999997,
          "durationTicks": 1000,
          "midi": 39,
          "name": "D#2",
          "ticks": 192500,
          "time": 93.90227,
          "velocity": 1
        },
        {
          "duration": 0.48780400000001123,
          "durationTicks": 1000,
          "midi": 39,
          "name": "D#2",
          "ticks": 193500,
          "time": 94.390074,
          "velocity": 1
        },
        {
          "duration": 0.487803999999997,
          "durationTicks": 1000,
          "midi": 39,
          "name": "D#2",
          "ticks": 194500,
          "time": 94.87787800000001,
          "velocity": 1
        },
        {
          "duration": 0.487803999999997,
          "durationTicks": 1000,
          "midi": 39,
          "name": "D#2",
          "ticks": 195500,
          "time": 95.365682,
          "velocity": 1
        },
        {
          "duration": 0.487803999999997,
          "durationTicks": 1000,
          "midi": 42,
          "name": "F#2",
          "ticks": 196500,
          "time": 95.853486,
          "velocity": 1
        },
        {
          "duration": 0.487803999999997,
          "durationTicks": 1000,
          "midi": 42,
          "name": "F#2",
          "ticks": 197500,
          "time": 96.34129,
          "velocity": 1
        },
        {
          "duration": 0.48780400000001123,
          "durationTicks": 1000,
          "midi": 42,
          "name": "F#2",
          "ticks": 198500,
          "time": 96.829094,
          "velocity": 1
        },
        {
          "duration": 0.487803999999997,
          "durationTicks": 1000,
          "midi": 42,
          "name": "F#2",
          "ticks": 199500,
          "time": 97.31689800000001,
          "velocity": 1
        },
        {
          "duration": 0.487803999999997,
          "durationTicks": 1000,
          "midi": 39,
          "name": "D#2",
          "ticks": 200500,
          "time": 97.804702,
          "velocity": 1
        },
        {
          "duration": 0.487803999999997,
          "durationTicks": 1000,
          "midi": 39,
          "name": "D#2",
          "ticks": 201500,
          "time": 98.292506,
          "velocity": 1
        },
        {
          "duration": 0.487803999999997,
          "durationTicks": 1000,
          "midi": 39,
          "name": "D#2",
          "ticks": 202500,
          "time": 98.78031,
          "velocity": 1
        },
        {
          "duration": 0.48780400000001123,
          "durationTicks": 1000,
          "midi": 39,
          "name": "D#2",
          "ticks": 203500,
          "time": 99.268114,
          "velocity": 1
        },
        {
          "duration": 0.487803999999997,
          "durationTicks": 1000,
          "midi": 39,
          "name": "D#2",
          "ticks": 204500,
          "time": 99.75591800000001,
          "velocity": 1
        },
        {
          "duration": 0.487803999999997,
          "durationTicks": 1000,
          "midi": 39,
          "name": "D#2",
          "ticks": 205500,
          "time": 100.243722,
          "velocity": 1
        },
        {
          "duration": 0.487803999999997,
          "durationTicks": 1000,
          "midi": 39,
          "name": "D#2",
          "ticks": 206500,
          "time": 100.731526,
          "velocity": 1
        },
        {
          "duration": 0.487803999999997,
          "durationTicks": 1000,
          "midi": 37,
          "name": "C#2",
          "ticks": 207500,
          "time": 101.21933,
          "velocity": 1
        },
        {
          "duration": 0.48780400000001123,
          "durationTicks": 1000,
          "midi": 39,
          "name": "D#2",
          "ticks": 208500,
          "time": 101.707134,
          "velocity": 1
        },
        {
          "duration": 0.487803999999997,
          "durationTicks": 1000,
          "midi": 39,
          "name": "D#2",
          "ticks": 209500,
          "time": 102.19493800000001,
          "velocity": 1
        },
        {
          "duration": 0.487803999999997,
          "durationTicks": 1000,
          "midi": 39,
          "name": "D#2",
          "ticks": 210500,
          "time": 102.682742,
          "velocity": 1
        },
        {
          "duration": 0.487803999999997,
          "durationTicks": 1000,
          "midi": 39,
          "name": "D#2",
          "ticks": 211500,
          "time": 103.170546,
          "velocity": 1
        },
        {
          "duration": 0.48780400000001123,
          "durationTicks": 1000,
          "midi": 42,
          "name": "F#2",
          "ticks": 212500,
          "time": 103.65835,
          "velocity": 1
        },
        {
          "duration": 0.487803999999997,
          "durationTicks": 1000,
          "midi": 42,
          "name": "F#2",
          "ticks": 213500,
          "time": 104.14615400000001,
          "velocity": 1
        },
        {
          "duration": 0.487803999999997,
          "durationTicks": 1000,
          "midi": 42,
          "name": "F#2",
          "ticks": 214500,
          "time": 104.633958,
          "velocity": 1
        },
        {
          "duration": 0.487803999999997,
          "durationTicks": 1000,
          "midi": 42,
          "name": "F#2",
          "ticks": 215500,
          "time": 105.121762,
          "velocity": 1
        },
        {
          "duration": 0.487803999999997,
          "durationTicks": 1000,
          "midi": 39,
          "name": "D#2",
          "ticks": 216500,
          "time": 105.609566,
          "velocity": 1
        },
        {
          "duration": 0.48780400000001123,
          "durationTicks": 1000,
          "midi": 39,
          "name": "D#2",
          "ticks": 217500,
          "time": 106.09737,
          "velocity": 1
        },
        {
          "duration": 0.487803999999997,
          "durationTicks": 1000,
          "midi": 39,
          "name": "D#2",
          "ticks": 218500,
          "time": 106.58517400000001,
          "velocity": 1
        },
        {
          "duration": 0.487803999999997,
          "durationTicks": 1000,
          "midi": 39,
          "name": "D#2",
          "ticks": 219500,
          "time": 107.072978,
          "velocity": 1
        },
        {
          "duration": 0.487803999999997,
          "durationTicks": 1000,
          "midi": 39,
          "name": "D#2",
          "ticks": 220500,
          "time": 107.560782,
          "velocity": 1
        },
        {
          "duration": 0.487803999999997,
          "durationTicks": 1000,
          "midi": 39,
          "name": "D#2",
          "ticks": 221500,
          "time": 108.048586,
          "velocity": 1
        },
        {
          "duration": 0.48780400000001123,
          "durationTicks": 1000,
          "midi": 39,
          "name": "D#2",
          "ticks": 222500,
          "time": 108.53639,
          "velocity": 1
        },
        {
          "duration": 0.487803999999997,
          "durationTicks": 1000,
          "midi": 37,
          "name": "C#2",
          "ticks": 223500,
          "time": 109.02419400000001,
          "velocity": 1
        },
        {
          "duration": 0.487803999999997,
          "durationTicks": 1000,
          "midi": 39,
          "name": "D#2",
          "ticks": 224500,
          "time": 109.511998,
          "velocity": 1
        },
        {
          "duration": 0.487803999999997,
          "durationTicks": 1000,
          "midi": 39,
          "name": "D#2",
          "ticks": 225500,
          "time": 109.999802,
          "velocity": 1
        },
        {
          "duration": 0.487803999999997,
          "durationTicks": 1000,
          "midi": 39,
          "name": "D#2",
          "ticks": 226500,
          "time": 110.487606,
          "velocity": 1
        },
        {
          "duration": 0.48780400000001123,
          "durationTicks": 1000,
          "midi": 39,
          "name": "D#2",
          "ticks": 227500,
          "time": 110.97541,
          "velocity": 1
        },
        {
          "duration": 0.487803999999997,
          "durationTicks": 1000,
          "midi": 42,
          "name": "F#2",
          "ticks": 228500,
          "time": 111.46321400000001,
          "velocity": 1
        },
        {
          "duration": 0.487803999999997,
          "durationTicks": 1000,
          "midi": 42,
          "name": "F#2",
          "ticks": 229500,
          "time": 111.951018,
          "velocity": 1
        },
        {
          "duration": 0.487803999999997,
          "durationTicks": 1000,
          "midi": 42,
          "name": "F#2",
          "ticks": 230500,
          "time": 112.438822,
          "velocity": 1
        },
        {
          "duration": 0.48780400000001123,
          "durationTicks": 1000,
          "midi": 42,
          "name": "F#2",
          "ticks": 231500,
          "time": 112.926626,
          "velocity": 1
        },
        {
          "duration": 0.487803999999997,
          "durationTicks": 1000,
          "midi": 39,
          "name": "D#2",
          "ticks": 232500,
          "time": 113.41443000000001,
          "velocity": 1
        },
        {
          "duration": 0.487803999999997,
          "durationTicks": 1000,
          "midi": 39,
          "name": "D#2",
          "ticks": 233500,
          "time": 113.902234,
          "velocity": 1
        },
        {
          "duration": 0.487803999999997,
          "durationTicks": 1000,
          "midi": 39,
          "name": "D#2",
          "ticks": 234500,
          "time": 114.390038,
          "velocity": 1
        },
        {
          "duration": 0.487803999999997,
          "durationTicks": 1000,
          "midi": 39,
          "name": "D#2",
          "ticks": 235500,
          "time": 114.877842,
          "velocity": 1
        },
        {
          "duration": 0.48780400000001123,
          "durationTicks": 1000,
          "midi": 39,
          "name": "D#2",
          "ticks": 236500,
          "time": 115.365646,
          "velocity": 1
        },
        {
          "duration": 0.487803999999997,
          "durationTicks": 1000,
          "midi": 39,
          "name": "D#2",
          "ticks": 237500,
          "time": 115.85345000000001,
          "velocity": 1
        },
        {
          "duration": 0.487803999999997,
          "durationTicks": 1000,
          "midi": 39,
          "name": "D#2",
          "ticks": 238500,
          "time": 116.341254,
          "velocity": 1
        },
        {
          "duration": 0.487803999999997,
          "durationTicks": 1000,
          "midi": 37,
          "name": "C#2",
          "ticks": 239500,
          "time": 116.829058,
          "velocity": 1
        },
        {
          "duration": 0.487803999999997,
          "durationTicks": 1000,
          "midi": 39,
          "name": "D#2",
          "ticks": 240500,
          "time": 117.316862,
          "velocity": 1
        },
        {
          "duration": 0.48780400000001123,
          "durationTicks": 1000,
          "midi": 39,
          "name": "D#2",
          "ticks": 241500,
          "time": 117.804666,
          "velocity": 1
        },
        {
          "duration": 0.487803999999997,
          "durationTicks": 1000,
          "midi": 39,
          "name": "D#2",
          "ticks": 242500,
          "time": 118.29247000000001,
          "velocity": 1
        },
        {
          "duration": 0.487803999999997,
          "durationTicks": 1000,
          "midi": 39,
          "name": "D#2",
          "ticks": 243500,
          "time": 118.780274,
          "velocity": 1
        },
        {
          "duration": 0.487803999999997,
          "durationTicks": 1000,
          "midi": 42,
          "name": "F#2",
          "ticks": 244500,
          "time": 119.268078,
          "velocity": 1
        },
        {
          "duration": 0.487803999999997,
          "durationTicks": 1000,
          "midi": 42,
          "name": "F#2",
          "ticks": 245500,
          "time": 119.755882,
          "velocity": 1
        },
        {
          "duration": 0.48780400000001123,
          "durationTicks": 1000,
          "midi": 42,
          "name": "F#2",
          "ticks": 246500,
          "time": 120.243686,
          "velocity": 1
        },
        {
          "duration": 0.487803999999997,
          "durationTicks": 1000,
          "midi": 42,
          "name": "F#2",
          "ticks": 247500,
          "time": 120.73149000000001,
          "velocity": 1
        },
        {
          "duration": 0.487803999999997,
          "durationTicks": 1000,
          "midi": 39,
          "name": "D#2",
          "ticks": 248500,
          "time": 121.219294,
          "velocity": 1
        },
        {
          "duration": 0.487803999999997,
          "durationTicks": 1000,
          "midi": 39,
          "name": "D#2",
          "ticks": 249500,
          "time": 121.707098,
          "velocity": 1
        },
        {
          "duration": 0.48780400000001123,
          "durationTicks": 1000,
          "midi": 39,
          "name": "D#2",
          "ticks": 250500,
          "time": 122.194902,
          "velocity": 1
        },
        {
          "duration": 0.487803999999997,
          "durationTicks": 1000,
          "midi": 39,
          "name": "D#2",
          "ticks": 251500,
          "time": 122.68270600000001,
          "velocity": 1
        },
        {
          "duration": 0.487803999999997,
          "durationTicks": 1000,
          "midi": 39,
          "name": "D#2",
          "ticks": 252500,
          "time": 123.17051000000001,
          "velocity": 1
        },
        {
          "duration": 0.487803999999997,
          "durationTicks": 1000,
          "midi": 39,
          "name": "D#2",
          "ticks": 253500,
          "time": 123.658314,
          "velocity": 1
        },
        {
          "duration": 0.487803999999997,
          "durationTicks": 1000,
          "midi": 39,
          "name": "D#2",
          "ticks": 254500,
          "time": 124.146118,
          "velocity": 1
        },
        {
          "duration": 0.48780400000001123,
          "durationTicks": 1000,
          "midi": 37,
          "name": "C#2",
          "ticks": 255500,
          "time": 124.633922,
          "velocity": 1
        }
      ]
    },
    {
      "channel": 0,
      "controlChanges": {
        "0": [
          {
            "number": 0,
            "ticks": 0,
            "time": 0,
            "value": 0
          }
        ]
      },
      "pitchBends": [],
      "instrument": {
        "family": "piano",
        "number": 0,
        "name": "acoustic grand piano"
      },
      "name": "you can do anything you want to",
      "notes": [],
      "endOfTrackTicks": 185000
    },
    {
      "channel": 2,
      "controlChanges": {},
      "pitchBends": [],
      "instrument": {
        "family": "ensemble",
        "number": 54,
        "name": "synth voice"
      },
      "name": "",
      "notes": [
        {
          "duration": 0.9756080000000011,
          "durationTicks": 2000,
          "midi": 70,
          "name": "A#4",
          "ticks": 128000,
          "time": 62.438912,
          "velocity": 1
        },
        {
          "duration": 0.3658530000000013,
          "durationTicks": 750,
          "midi": 68,
          "name": "G#4",
          "ticks": 130000,
          "time": 63.41452,
          "velocity": 1
        },
        {
          "duration": 0.24390200000000561,
          "durationTicks": 500,
          "midi": 66,
          "name": "F#4",
          "ticks": 132500,
          "time": 64.63403,
          "velocity": 1
        },
        {
          "duration": 0.24390200000000561,
          "durationTicks": 500,
          "midi": 66,
          "name": "F#4",
          "ticks": 133000,
          "time": 64.877932,
          "velocity": 1
        },
        {
          "duration": 0.24390200000000561,
          "durationTicks": 500,
          "midi": 66,
          "name": "F#4",
          "ticks": 134000,
          "time": 65.365736,
          "velocity": 1
        },
        {
          "duration": 0.2439019999999914,
          "durationTicks": 500,
          "midi": 68,
          "name": "G#4",
          "ticks": 134500,
          "time": 65.609638,
          "velocity": 1
        },
        {
          "duration": 0.24390200000000561,
          "durationTicks": 500,
          "midi": 68,
          "name": "G#4",
          "ticks": 135500,
          "time": 66.097442,
          "velocity": 1
        },
        {
          "duration": 0.24390200000000561,
          "durationTicks": 500,
          "midi": 70,
          "name": "A#4",
          "ticks": 136500,
          "time": 66.585246,
          "velocity": 1
        },
        {
          "duration": 0.24390200000000561,
          "durationTicks": 500,
          "midi": 70,
          "name": "A#4",
          "ticks": 139000,
          "time": 67.804756,
          "velocity": 1
        },
        {
          "duration": 0.24390200000000561,
          "durationTicks": 500,
          "midi": 70,
          "name": "A#4",
          "ticks": 139500,
          "time": 68.048658,
          "velocity": 1
        },
        {
          "duration": 0.24390200000000561,
          "durationTicks": 500,
          "midi": 68,
          "name": "G#4",
          "ticks": 140500,
          "time": 68.536462,
          "velocity": 1
        },
        {
          "duration": 0.2439019999999914,
          "durationTicks": 500,
          "midi": 68,
          "name": "G#4",
          "ticks": 141000,
          "time": 68.780364,
          "velocity": 1
        },
        {
          "duration": 0.9756080000000082,
          "durationTicks": 2000,
          "midi": 70,
          "name": "A#4",
          "ticks": 144000,
          "time": 70.243776,
          "velocity": 1
        },
        {
          "duration": 0.3658530000000013,
          "durationTicks": 750,
          "midi": 68,
          "name": "G#4",
          "ticks": 146000,
          "time": 71.219384,
          "velocity": 1
        },
        {
          "duration": 0.2439019999999914,
          "durationTicks": 500,
          "midi": 66,
          "name": "F#4",
          "ticks": 148500,
          "time": 72.438894,
          "velocity": 1
        },
        {
          "duration": 0.24390200000000561,
          "durationTicks": 500,
          "midi": 66,
          "name": "F#4",
          "ticks": 149000,
          "time": 72.682796,
          "velocity": 1
        },
        {
          "duration": 0.2439019999999914,
          "durationTicks": 500,
          "midi": 66,
          "name": "F#4",
          "ticks": 150000,
          "time": 73.17060000000001,
          "velocity": 1
        },
        {
          "duration": 0.24390200000000561,
          "durationTicks": 500,
          "midi": 68,
          "name": "G#4",
          "ticks": 150500,
          "time": 73.414502,
          "velocity": 1
        },
        {
          "duration": 0.24390200000000561,
          "durationTicks": 500,
          "midi": 68,
          "name": "G#4",
          "ticks": 151500,
          "time": 73.902306,
          "velocity": 1
        },
        {
          "duration": 0.2439019999999914,
          "durationTicks": 500,
          "midi": 70,
          "name": "A#4",
          "ticks": 152500,
          "time": 74.39011,
          "velocity": 1
        },
        {
          "duration": 0.975607999999994,
          "durationTicks": 2000,
          "midi": 70,
          "name": "A#4",
          "ticks": 160000,
          "time": 78.04864,
          "velocity": 1
        },
        {
          "duration": 0.3658530000000013,
          "durationTicks": 750,
          "midi": 68,
          "name": "G#4",
          "ticks": 162000,
          "time": 79.024248,
          "velocity": 1
        },
        {
          "duration": 0.24390200000000561,
          "durationTicks": 500,
          "midi": 66,
          "name": "F#4",
          "ticks": 164500,
          "time": 80.243758,
          "velocity": 1
        },
        {
          "duration": 0.2439019999999914,
          "durationTicks": 500,
          "midi": 66,
          "name": "F#4",
          "ticks": 165000,
          "time": 80.48766,
          "velocity": 1
        },
        {
          "duration": 0.24390200000000561,
          "durationTicks": 500,
          "midi": 66,
          "name": "F#4",
          "ticks": 166000,
          "time": 80.975464,
          "velocity": 1
        },
        {
          "duration": 0.2439019999999914,
          "durationTicks": 500,
          "midi": 68,
          "name": "G#4",
          "ticks": 166500,
          "time": 81.21936600000001,
          "velocity": 1
        },
        {
          "duration": 0.2439019999999914,
          "durationTicks": 500,
          "midi": 68,
          "name": "G#4",
          "ticks": 167500,
          "time": 81.70717,
          "velocity": 1
        },
        {
          "duration": 0.24390200000000561,
          "durationTicks": 500,
          "midi": 70,
          "name": "A#4",
          "ticks": 168500,
          "time": 82.194974,
          "velocity": 1
        },
        {
          "duration": 0.24390200000000561,
          "durationTicks": 500,
          "midi": 70,
          "name": "A#4",
          "ticks": 171000,
          "time": 83.414484,
          "velocity": 1
        },
        {
          "duration": 0.2439019999999914,
          "durationTicks": 500,
          "midi": 70,
          "name": "A#4",
          "ticks": 171500,
          "time": 83.65838600000001,
          "velocity": 1
        },
        {
          "duration": 0.2439019999999914,
          "durationTicks": 500,
          "midi": 68,
          "name": "G#4",
          "ticks": 172500,
          "time": 84.14619,
          "velocity": 1
        },
        {
          "duration": 0.24390200000000561,
          "durationTicks": 500,
          "midi": 68,
          "name": "G#4",
          "ticks": 173000,
          "time": 84.390092,
          "velocity": 1
        },
        {
          "duration": 0.9756080000000082,
          "durationTicks": 2000,
          "midi": 70,
          "name": "A#4",
          "ticks": 176000,
          "time": 85.853504,
          "velocity": 1
        },
        {
          "duration": 0.3658529999999871,
          "durationTicks": 750,
          "midi": 68,
          "name": "G#4",
          "ticks": 178000,
          "time": 86.82911200000001,
          "velocity": 1
        },
        {
          "duration": 0.2439019999999914,
          "durationTicks": 500,
          "midi": 66,
          "name": "F#4",
          "ticks": 180500,
          "time": 88.04862200000001,
          "velocity": 1
        },
        {
          "duration": 0.24390200000000561,
          "durationTicks": 500,
          "midi": 66,
          "name": "F#4",
          "ticks": 181000,
          "time": 88.292524,
          "velocity": 1
        },
        {
          "duration": 0.24390200000000561,
          "durationTicks": 500,
          "midi": 66,
          "name": "F#4",
          "ticks": 182000,
          "time": 88.780328,
          "velocity": 1
        },
        {
          "duration": 0.24390200000000561,
          "durationTicks": 500,
          "midi": 68,
          "name": "G#4",
          "ticks": 182500,
          "time": 89.02423,
          "velocity": 1
        },
        {
          "duration": 0.24390200000000561,
          "durationTicks": 500,
          "midi": 68,
          "name": "G#4",
          "ticks": 183500,
          "time": 89.512034,
          "velocity": 1
        },
        {
          "duration": 0.24390200000000561,
          "durationTicks": 500,
          "midi": 70,
          "name": "A#4",
          "ticks": 184500,
          "time": 89.999838,
          "velocity": 1
        }
      ]
    },
    {
      "channel": 0,
      "controlChanges": {
        "0": [
          {
            "number": 0,
            "ticks": 0,
            "time": 0,
            "value": 0
          }
        ]
      },
      "pitchBends": [],
      "instrument": {
        "family": "piano",
        "number": 0,
        "name": "acoustic grand piano"
      },
      "name": "eeeyoweeeyeeoooo",
      "notes": [],
      "endOfTrackTicks": 128000
    },
    {
      "channel": 3,
      "controlChanges": {},
      "pitchBends": [],
      "instrument": {
        "family": "guitar",
        "number": 29,
        "name": "overdriven guitar"
      },
      "name": "",
      "notes": [
        {
          "duration": 0.2439019999999985,
          "durationTicks": 500,
          "midi": 78,
          "name": "F#5",
          "ticks": 65000,
          "time": 31.70726,
          "velocity": 1
        },
        {
          "duration": 0.24390200000000206,
          "durationTicks": 500,
          "midi": 75,
          "name": "D#5",
          "ticks": 65500,
          "time": 31.951162,
          "velocity": 1
        },
        {
          "duration": 0.487803999999997,
          "durationTicks": 1000,
          "midi": 78,
          "name": "F#5",
          "ticks": 66000,
          "time": 32.195064,
          "velocity": 1
        },
        {
          "duration": 0.2439019999999985,
          "durationTicks": 500,
          "midi": 77,
          "name": "F5",
          "ticks": 67000,
          "time": 32.682868,
          "velocity": 1
        },
        {
          "duration": 0.7317060000000026,
          "durationTicks": 1500,
          "midi": 75,
          "name": "D#5",
          "ticks": 67500,
          "time": 32.92677,
          "velocity": 1
        },
        {
          "duration": 0.2439019999999985,
          "durationTicks": 500,
          "midi": 78,
          "name": "F#5",
          "ticks": 69000,
          "time": 33.658476,
          "velocity": 1
        },
        {
          "duration": 0.24390200000000561,
          "durationTicks": 500,
          "midi": 75,
          "name": "D#5",
          "ticks": 69500,
          "time": 33.902378,
          "velocity": 1
        },
        {
          "duration": 0.487803999999997,
          "durationTicks": 1000,
          "midi": 78,
          "name": "F#5",
          "ticks": 70000,
          "time": 34.146280000000004,
          "velocity": 1
        },
        {
          "duration": 0.2439019999999985,
          "durationTicks": 500,
          "midi": 77,
          "name": "F5",
          "ticks": 71000,
          "time": 34.634084,
          "velocity": 1
        },
        {
          "duration": 0.4878040000000041,
          "durationTicks": 1000,
          "midi": 73,
          "name": "C#5",
          "ticks": 71500,
          "time": 34.877986,
          "velocity": 1
        },
        {
          "duration": 3.658529999999999,
          "durationTicks": 7500,
          "midi": 71,
          "name": "B4",
          "ticks": 72500,
          "time": 35.365790000000004,
          "velocity": 1
        },
        {
          "duration": 0.2439019999999985,
          "durationTicks": 500,
          "midi": 78,
          "name": "F#5",
          "ticks": 81000,
          "time": 39.512124,
          "velocity": 1
        },
        {
          "duration": 0.24390200000000561,
          "durationTicks": 500,
          "midi": 75,
          "name": "D#5",
          "ticks": 81500,
          "time": 39.756026,
          "velocity": 1
        },
        {
          "duration": 0.487803999999997,
          "durationTicks": 1000,
          "midi": 78,
          "name": "F#5",
          "ticks": 82000,
          "time": 39.999928000000004,
          "velocity": 1
        },
        {
          "duration": 0.2439019999999985,
          "durationTicks": 500,
          "midi": 77,
          "name": "F5",
          "ticks": 83000,
          "time": 40.487732,
          "velocity": 1
        },
        {
          "duration": 0.7317060000000026,
          "durationTicks": 1500,
          "midi": 75,
          "name": "D#5",
          "ticks": 83500,
          "time": 40.731634,
          "velocity": 1
        },
        {
          "duration": 0.2439019999999985,
          "durationTicks": 500,
          "midi": 78,
          "name": "F#5",
          "ticks": 85000,
          "time": 41.46334,
          "velocity": 1
        },
        {
          "duration": 0.2439019999999985,
          "durationTicks": 500,
          "midi": 75,
          "name": "D#5",
          "ticks": 85500,
          "time": 41.707242,
          "velocity": 1
        },
        {
          "duration": 0.4878040000000041,
          "durationTicks": 1000,
          "midi": 78,
          "name": "F#5",
          "ticks": 86000,
          "time": 41.951144,
          "velocity": 1
        },
        {
          "duration": 0.2439019999999985,
          "durationTicks": 500,
          "midi": 77,
          "name": "F5",
          "ticks": 87000,
          "time": 42.438948,
          "velocity": 1
        },
        {
          "duration": 0.487803999999997,
          "durationTicks": 1000,
          "midi": 73,
          "name": "C#5",
          "ticks": 87500,
          "time": 42.68285,
          "velocity": 1
        },
        {
          "duration": 3.658529999999999,
          "durationTicks": 7500,
          "midi": 71,
          "name": "B4",
          "ticks": 88500,
          "time": 43.170654,
          "velocity": 1
        },
        {
          "duration": 0.2439019999999985,
          "durationTicks": 500,
          "midi": 78,
          "name": "F#5",
          "ticks": 97000,
          "time": 47.316988,
          "velocity": 1
        },
        {
          "duration": 0.2439019999999985,
          "durationTicks": 500,
          "midi": 75,
          "name": "D#5",
          "ticks": 97500,
          "time": 47.56089,
          "velocity": 1
        },
        {
          "duration": 0.4878040000000041,
          "durationTicks": 1000,
          "midi": 78,
          "name": "F#5",
          "ticks": 98000,
          "time": 47.804792,
          "velocity": 1
        },
        {
          "duration": 0.2439019999999985,
          "durationTicks": 500,
          "midi": 77,
          "name": "F5",
          "ticks": 99000,
          "time": 48.292596,
          "velocity": 1
        },
        {
          "duration": 0.7317060000000026,
          "durationTicks": 1500,
          "midi": 75,
          "name": "D#5",
          "ticks": 99500,
          "time": 48.536498,
          "velocity": 1
        },
        {
          "duration": 0.2439019999999985,
          "durationTicks": 500,
          "midi": 78,
          "name": "F#5",
          "ticks": 101000,
          "time": 49.268204000000004,
          "velocity": 1
        },
        {
          "duration": 0.2439019999999985,
          "durationTicks": 500,
          "midi": 75,
          "name": "D#5",
          "ticks": 101500,
          "time": 49.512106,
          "velocity": 1
        },
        {
          "duration": 0.487803999999997,
          "durationTicks": 1000,
          "midi": 78,
          "name": "F#5",
          "ticks": 102000,
          "time": 49.756008,
          "velocity": 1
        },
        {
          "duration": 0.24390200000000561,
          "durationTicks": 500,
          "midi": 77,
          "name": "F5",
          "ticks": 103000,
          "time": 50.243812,
          "velocity": 1
        },
        {
          "duration": 0.487803999999997,
          "durationTicks": 1000,
          "midi": 73,
          "name": "C#5",
          "ticks": 103500,
          "time": 50.487714000000004,
          "velocity": 1
        },
        {
          "duration": 3.658529999999999,
          "durationTicks": 7500,
          "midi": 71,
          "name": "B4",
          "ticks": 104500,
          "time": 50.975518,
          "velocity": 1
        },
        {
          "duration": 0.2439019999999985,
          "durationTicks": 500,
          "midi": 78,
          "name": "F#5",
          "ticks": 113000,
          "time": 55.121852000000004,
          "velocity": 1
        },
        {
          "duration": 0.2439019999999985,
          "durationTicks": 500,
          "midi": 75,
          "name": "D#5",
          "ticks": 113500,
          "time": 55.365754,
          "velocity": 1
        },
        {
          "duration": 0.4878040000000041,
          "durationTicks": 1000,
          "midi": 78,
          "name": "F#5",
          "ticks": 114000,
          "time": 55.609656,
          "velocity": 1
        },
        {
          "duration": 0.2439019999999985,
          "durationTicks": 500,
          "midi": 77,
          "name": "F5",
          "ticks": 115000,
          "time": 56.097460000000005,
          "velocity": 1
        },
        {
          "duration": 0.7317059999999955,
          "durationTicks": 1500,
          "midi": 75,
          "name": "D#5",
          "ticks": 115500,
          "time": 56.341362000000004,
          "velocity": 1
        },
        {
          "duration": 0.24390200000000561,
          "durationTicks": 500,
          "midi": 78,
          "name": "F#5",
          "ticks": 117000,
          "time": 57.073068,
          "velocity": 1
        },
        {
          "duration": 0.2439019999999985,
          "durationTicks": 500,
          "midi": 75,
          "name": "D#5",
          "ticks": 117500,
          "time": 57.316970000000005,
          "velocity": 1
        },
        {
          "duration": 0.487803999999997,
          "durationTicks": 1000,
          "midi": 78,
          "name": "F#5",
          "ticks": 118000,
          "time": 57.560872,
          "velocity": 1
        },
        {
          "duration": 0.2439019999999985,
          "durationTicks": 500,
          "midi": 77,
          "name": "F5",
          "ticks": 119000,
          "time": 58.048676,
          "velocity": 1
        },
        {
          "duration": 0.4878040000000041,
          "durationTicks": 1000,
          "midi": 73,
          "name": "C#5",
          "ticks": 119500,
          "time": 58.292578,
          "velocity": 1
        },
        {
          "duration": 3.658529999999999,
          "durationTicks": 7500,
          "midi": 71,
          "name": "B4",
          "ticks": 120500,
          "time": 58.780382,
          "velocity": 1
        }
      ]
    },
    {
      "channel": 0,
      "controlChanges": {
        "0": [
          {
            "number": 0,
            "ticks": 0,
            "time": 0,
            "value": 0
          }
        ]
      },
      "pitchBends": [],
      "instrument": {
        "family": "piano",
        "number": 0,
        "name": "acoustic grand piano"
      },
      "name": "AAAAAAAAAAAAAAAA",
      "notes": [],
      "endOfTrackTicks": 64874
    },
    {
      "channel": 4,
      "controlChanges": {},
      "pitchBends": [],
      "instrument": {
        "family": "ensemble",
        "number": 52,
        "name": "choir aahs"
      },
      "name": "",
      "notes": [
        {
          "duration": 3.4751156959999996,
          "durationTicks": 7124,
          "midi": 68,
          "name": "G#4",
          "ticks": 57000,
          "time": 27.804828,
          "velocity": 1
        },
        {
          "duration": 3.8409686959999974,
          "durationTicks": 7874,
          "midi": 64,
          "name": "E4",
          "ticks": 57000,
          "time": 27.804828,
          "velocity": 1
        },
        {
          "duration": 3.048774999999999,
          "durationTicks": 6250,
          "midi": 61,
          "name": "C#4",
          "ticks": 57000,
          "time": 27.804828,
          "velocity": 1
        }
      ]
    },
    {
      "channel": 9,
      "controlChanges": {},
      "pitchBends": [],
      "instrument": {
        "family": "drums",
        "number": 26
      },
      "name": "Dance Kit",
      "notes": [
        {
          "duration": 0.487804,
          "durationTicks": 1000,
          "midi": 46,
          "name": "A#2",
          "ticks": 0,
          "time": 0,
          "velocity": 1
        },
        {
          "duration": 0.487804,
          "durationTicks": 1000,
          "midi": 39,
          "name": "D#2",
          "ticks": 1000,
          "time": 0.487804,
          "velocity": 1
        },
        {
          "duration": 0.12195099999999992,
          "durationTicks": 250,
          "midi": 44,
          "name": "G#2",
          "ticks": 2000,
          "time": 0.975608,
          "velocity": 1
        },
        {
          "duration": 0.12195100000000014,
          "durationTicks": 250,
          "midi": 46,
          "name": "A#2",
          "ticks": 2250,
          "time": 1.097559,
          "velocity": 1
        },
        {
          "duration": 0.24390199999999984,
          "durationTicks": 500,
          "midi": 46,
          "name": "A#2",
          "ticks": 2500,
          "time": 1.21951,
          "velocity": 1
        },
        {
          "duration": 0.4868283920000003,
          "durationTicks": 998,
          "midi": 39,
          "name": "D#2",
          "ticks": 3000,
          "time": 1.463412,
          "velocity": 1
        },
        {
          "duration": 0.4878040000000001,
          "durationTicks": 1000,
          "midi": 46,
          "name": "A#2",
          "ticks": 4000,
          "time": 1.951216,
          "velocity": 1
        },
        {
          "duration": 0.4878039999999997,
          "durationTicks": 1000,
          "midi": 39,
          "name": "D#2",
          "ticks": 5000,
          "time": 2.43902,
          "velocity": 1
        },
        {
          "duration": 0.12195100000000014,
          "durationTicks": 250,
          "midi": 44,
          "name": "G#2",
          "ticks": 6000,
          "time": 2.926824,
          "velocity": 1
        },
        {
          "duration": 0.12195100000000014,
          "durationTicks": 250,
          "midi": 46,
          "name": "A#2",
          "ticks": 6250,
          "time": 3.048775,
          "velocity": 1
        },
        {
          "duration": 0.24390199999999984,
          "durationTicks": 500,
          "midi": 46,
          "name": "A#2",
          "ticks": 6500,
          "time": 3.170726,
          "velocity": 1
        },
        {
          "duration": 0.48682839200000005,
          "durationTicks": 998,
          "midi": 39,
          "name": "D#2",
          "ticks": 7000,
          "time": 3.414628,
          "velocity": 1
        },
        {
          "duration": 0.4878039999999997,
          "durationTicks": 1000,
          "midi": 46,
          "name": "A#2",
          "ticks": 8000,
          "time": 3.902432,
          "velocity": 1
        },
        {
          "duration": 0.48780400000000057,
          "durationTicks": 1000,
          "midi": 39,
          "name": "D#2",
          "ticks": 9000,
          "time": 4.390236,
          "velocity": 1
        },
        {
          "duration": 0.12195100000000014,
          "durationTicks": 250,
          "midi": 44,
          "name": "G#2",
          "ticks": 10000,
          "time": 4.87804,
          "velocity": 1
        },
        {
          "duration": 0.12195099999999925,
          "durationTicks": 250,
          "midi": 46,
          "name": "A#2",
          "ticks": 10250,
          "time": 4.9999910000000005,
          "velocity": 1
        },
        {
          "duration": 0.24390200000000029,
          "durationTicks": 500,
          "midi": 46,
          "name": "A#2",
          "ticks": 10500,
          "time": 5.121942,
          "velocity": 1
        },
        {
          "duration": 0.4868283919999996,
          "durationTicks": 998,
          "midi": 39,
          "name": "D#2",
          "ticks": 11000,
          "time": 5.365844,
          "velocity": 1
        },
        {
          "duration": 0.48780400000000057,
          "durationTicks": 1000,
          "midi": 46,
          "name": "A#2",
          "ticks": 12000,
          "time": 5.853648,
          "velocity": 1
        },
        {
          "duration": 0.4878039999999997,
          "durationTicks": 1000,
          "midi": 39,
          "name": "D#2",
          "ticks": 13000,
          "time": 6.341452,
          "velocity": 1
        },
        {
          "duration": 0.12195100000000014,
          "durationTicks": 250,
          "midi": 44,
          "name": "G#2",
          "ticks": 14000,
          "time": 6.829256,
          "velocity": 1
        },
        {
          "duration": 0.12195100000000014,
          "durationTicks": 250,
          "midi": 46,
          "name": "A#2",
          "ticks": 14250,
          "time": 6.951207,
          "velocity": 1
        },
        {
          "duration": 0.24390200000000029,
          "durationTicks": 500,
          "midi": 46,
          "name": "A#2",
          "ticks": 14500,
          "time": 7.073158,
          "velocity": 1
        },
        {
          "duration": 0.4868283919999996,
          "durationTicks": 998,
          "midi": 39,
          "name": "D#2",
          "ticks": 15000,
          "time": 7.317060000000001,
          "velocity": 1
        },
        {
          "duration": 0.48780400000000057,
          "durationTicks": 1000,
          "midi": 46,
          "name": "A#2",
          "ticks": 16000,
          "time": 7.804864,
          "velocity": 1
        },
        {
          "duration": 0.4878039999999988,
          "durationTicks": 1000,
          "midi": 39,
          "name": "D#2",
          "ticks": 17000,
          "time": 8.292668,
          "velocity": 1
        },
        {
          "duration": 0.12195100000000103,
          "durationTicks": 250,
          "midi": 44,
          "name": "G#2",
          "ticks": 18000,
          "time": 8.780472,
          "velocity": 1
        },
        {
          "duration": 0.12195099999999925,
          "durationTicks": 250,
          "midi": 46,
          "name": "A#2",
          "ticks": 18250,
          "time": 8.902423,
          "velocity": 1
        },
        {
          "duration": 0.24390200000000029,
          "durationTicks": 500,
          "midi": 46,
          "name": "A#2",
          "ticks": 18500,
          "time": 9.024374,
          "velocity": 1
        },
        {
          "duration": 0.4868283920000014,
          "durationTicks": 998,
          "midi": 39,
          "name": "D#2",
          "ticks": 19000,
          "time": 9.268276,
          "velocity": 1
        },
        {
          "duration": 0.4878039999999988,
          "durationTicks": 1000,
          "midi": 46,
          "name": "A#2",
          "ticks": 20000,
          "time": 9.75608,
          "velocity": 1
        },
        {
          "duration": 0.48780400000000057,
          "durationTicks": 1000,
          "midi": 39,
          "name": "D#2",
          "ticks": 21000,
          "time": 10.243884,
          "velocity": 1
        },
        {
          "duration": 0.12195100000000103,
          "durationTicks": 250,
          "midi": 44,
          "name": "G#2",
          "ticks": 22000,
          "time": 10.731688,
          "velocity": 1
        },
        {
          "duration": 0.12195099999999925,
          "durationTicks": 250,
          "midi": 46,
          "name": "A#2",
          "ticks": 22250,
          "time": 10.853639000000001,
          "velocity": 1
        },
        {
          "duration": 0.24390200000000029,
          "durationTicks": 500,
          "midi": 46,
          "name": "A#2",
          "ticks": 22500,
          "time": 10.97559,
          "velocity": 1
        },
        {
          "duration": 0.4868283919999996,
          "durationTicks": 998,
          "midi": 39,
          "name": "D#2",
          "ticks": 23000,
          "time": 11.219492,
          "velocity": 1
        },
        {
          "duration": 0.48780400000000057,
          "durationTicks": 1000,
          "midi": 46,
          "name": "A#2",
          "ticks": 24000,
          "time": 11.707296,
          "velocity": 1
        },
        {
          "duration": 0.48780400000000057,
          "durationTicks": 1000,
          "midi": 39,
          "name": "D#2",
          "ticks": 25000,
          "time": 12.1951,
          "velocity": 1
        },
        {
          "duration": 0.12195099999999925,
          "durationTicks": 250,
          "midi": 44,
          "name": "G#2",
          "ticks": 26000,
          "time": 12.682904,
          "velocity": 1
        },
        {
          "duration": 0.12195100000000103,
          "durationTicks": 250,
          "midi": 46,
          "name": "A#2",
          "ticks": 26250,
          "time": 12.804855,
          "velocity": 1
        },
        {
          "duration": 0.24390200000000029,
          "durationTicks": 500,
          "midi": 46,
          "name": "A#2",
          "ticks": 26500,
          "time": 12.926806000000001,
          "velocity": 1
        },
        {
          "duration": 0.4868283919999996,
          "durationTicks": 998,
          "midi": 39,
          "name": "D#2",
          "ticks": 27000,
          "time": 13.170708000000001,
          "velocity": 1
        },
        {
          "duration": 0.48780400000000057,
          "durationTicks": 1000,
          "midi": 46,
          "name": "A#2",
          "ticks": 28000,
          "time": 13.658512,
          "velocity": 1
        },
        {
          "duration": 0.48780400000000057,
          "durationTicks": 1000,
          "midi": 39,
          "name": "D#2",
          "ticks": 29000,
          "time": 14.146316,
          "velocity": 1
        },
        {
          "duration": 0.12195099999999925,
          "durationTicks": 250,
          "midi": 44,
          "name": "G#2",
          "ticks": 30000,
          "time": 14.634120000000001,
          "velocity": 1
        },
        {
          "duration": 0.12195099999999925,
          "durationTicks": 250,
          "midi": 46,
          "name": "A#2",
          "ticks": 30250,
          "time": 14.756071,
          "velocity": 1
        },
        {
          "duration": 0.24390200000000029,
          "durationTicks": 500,
          "midi": 46,
          "name": "A#2",
          "ticks": 30500,
          "time": 14.878022,
          "velocity": 1
        },
        {
          "duration": 0.4868283920000014,
          "durationTicks": 998,
          "midi": 39,
          "name": "D#2",
          "ticks": 31000,
          "time": 15.121924,
          "velocity": 1
        },
        {
          "duration": 0.48780400000000057,
          "durationTicks": 1000,
          "midi": 46,
          "name": "A#2",
          "ticks": 32000,
          "time": 15.609728,
          "velocity": 1
        },
        {
          "duration": 0.48780400000000057,
          "durationTicks": 1000,
          "midi": 39,
          "name": "D#2",
          "ticks": 33000,
          "time": 16.097532,
          "velocity": 1
        },
        {
          "duration": 0.12195099999999925,
          "durationTicks": 250,
          "midi": 44,
          "name": "G#2",
          "ticks": 34000,
          "time": 16.585336,
          "velocity": 1
        },
        {
          "duration": 0.12195099999999925,
          "durationTicks": 250,
          "midi": 46,
          "name": "A#2",
          "ticks": 34250,
          "time": 16.707287,
          "velocity": 1
        },
        {
          "duration": 0.24390200000000206,
          "durationTicks": 500,
          "midi": 46,
          "name": "A#2",
          "ticks": 34500,
          "time": 16.829238,
          "velocity": 1
        },
        {
          "duration": 0.48682839199999606,
          "durationTicks": 998,
          "midi": 39,
          "name": "D#2",
          "ticks": 35000,
          "time": 17.073140000000002,
          "velocity": 1
        },
        {
          "duration": 0.48780400000000057,
          "durationTicks": 1000,
          "midi": 46,
          "name": "A#2",
          "ticks": 36000,
          "time": 17.560944,
          "velocity": 1
        },
        {
          "duration": 0.48780400000000057,
          "durationTicks": 1000,
          "midi": 39,
          "name": "D#2",
          "ticks": 37000,
          "time": 18.048748,
          "velocity": 1
        },
        {
          "duration": 0.12195099999999925,
          "durationTicks": 250,
          "midi": 44,
          "name": "G#2",
          "ticks": 38000,
          "time": 18.536552,
          "velocity": 1
        },
        {
          "duration": 0.12195099999999925,
          "durationTicks": 250,
          "midi": 46,
          "name": "A#2",
          "ticks": 38250,
          "time": 18.658503,
          "velocity": 1
        },
        {
          "duration": 0.24390200000000206,
          "durationTicks": 500,
          "midi": 46,
          "name": "A#2",
          "ticks": 38500,
          "time": 18.780454,
          "velocity": 1
        },
        {
          "duration": 0.4868283919999996,
          "durationTicks": 998,
          "midi": 39,
          "name": "D#2",
          "ticks": 39000,
          "time": 19.024356,
          "velocity": 1
        },
        {
          "duration": 0.48780400000000057,
          "durationTicks": 1000,
          "midi": 46,
          "name": "A#2",
          "ticks": 40000,
          "time": 19.51216,
          "velocity": 1
        },
        {
          "duration": 0.487803999999997,
          "durationTicks": 1000,
          "midi": 39,
          "name": "D#2",
          "ticks": 41000,
          "time": 19.999964000000002,
          "velocity": 1
        },
        {
          "duration": 0.12195100000000281,
          "durationTicks": 250,
          "midi": 44,
          "name": "G#2",
          "ticks": 42000,
          "time": 20.487768,
          "velocity": 1
        },
        {
          "duration": 0.12195099999999925,
          "durationTicks": 250,
          "midi": 46,
          "name": "A#2",
          "ticks": 42250,
          "time": 20.609719000000002,
          "velocity": 1
        },
        {
          "duration": 0.2439019999999985,
          "durationTicks": 500,
          "midi": 46,
          "name": "A#2",
          "ticks": 42500,
          "time": 20.73167,
          "velocity": 1
        },
        {
          "duration": 0.4868283919999996,
          "durationTicks": 998,
          "midi": 39,
          "name": "D#2",
          "ticks": 43000,
          "time": 20.975572,
          "velocity": 1
        },
        {
          "duration": 0.48780400000000057,
          "durationTicks": 1000,
          "midi": 46,
          "name": "A#2",
          "ticks": 44000,
          "time": 21.463376,
          "velocity": 1
        },
        {
          "duration": 0.48780400000000057,
          "durationTicks": 1000,
          "midi": 39,
          "name": "D#2",
          "ticks": 45000,
          "time": 21.95118,
          "velocity": 1
        },
        {
          "duration": 0.12195099999999925,
          "durationTicks": 250,
          "midi": 44,
          "name": "G#2",
          "ticks": 46000,
          "time": 22.438984,
          "velocity": 1
        },
        {
          "duration": 0.12195099999999925,
          "durationTicks": 250,
          "midi": 46,
          "name": "A#2",
          "ticks": 46250,
          "time": 22.560935,
          "velocity": 1
        },
        {
          "duration": 0.24390200000000206,
          "durationTicks": 500,
          "midi": 46,
          "name": "A#2",
          "ticks": 46500,
          "time": 22.682886,
          "velocity": 1
        },
        {
          "duration": 0.48682839199999606,
          "durationTicks": 998,
          "midi": 39,
          "name": "D#2",
          "ticks": 47000,
          "time": 22.926788000000002,
          "velocity": 1
        },
        {
          "duration": 0.48780400000000057,
          "durationTicks": 1000,
          "midi": 46,
          "name": "A#2",
          "ticks": 48000,
          "time": 23.414592,
          "velocity": 1
        },
        {
          "duration": 0.48780400000000057,
          "durationTicks": 1000,
          "midi": 39,
          "name": "D#2",
          "ticks": 49000,
          "time": 23.902396,
          "velocity": 1
        },
        {
          "duration": 0.12195099999999925,
          "durationTicks": 250,
          "midi": 44,
          "name": "G#2",
          "ticks": 50000,
          "time": 24.3902,
          "velocity": 1
        },
        {
          "duration": 0.12195100000000281,
          "durationTicks": 250,
          "midi": 46,
          "name": "A#2",
          "ticks": 50250,
          "time": 24.512151,
          "velocity": 1
        },
        {
          "duration": 0.2439019999999985,
          "durationTicks": 500,
          "midi": 46,
          "name": "A#2",
          "ticks": 50500,
          "time": 24.634102000000002,
          "velocity": 1
        },
        {
          "duration": 0.4868283919999996,
          "durationTicks": 998,
          "midi": 39,
          "name": "D#2",
          "ticks": 51000,
          "time": 24.878004,
          "velocity": 1
        },
        {
          "duration": 0.48780400000000057,
          "durationTicks": 1000,
          "midi": 46,
          "name": "A#2",
          "ticks": 52000,
          "time": 25.365808,
          "velocity": 1
        },
        {
          "duration": 0.48780400000000057,
          "durationTicks": 1000,
          "midi": 39,
          "name": "D#2",
          "ticks": 53000,
          "time": 25.853612000000002,
          "velocity": 1
        },
        {
          "duration": 0.12195099999999925,
          "durationTicks": 250,
          "midi": 44,
          "name": "G#2",
          "ticks": 54000,
          "time": 26.341416000000002,
          "velocity": 1
        },
        {
          "duration": 0.12195099999999925,
          "durationTicks": 250,
          "midi": 46,
          "name": "A#2",
          "ticks": 54250,
          "time": 26.463367,
          "velocity": 1
        },
        {
          "duration": 0.2439019999999985,
          "durationTicks": 500,
          "midi": 46,
          "name": "A#2",
          "ticks": 54500,
          "time": 26.585318,
          "velocity": 1
        },
        {
          "duration": 0.4868283919999996,
          "durationTicks": 998,
          "midi": 39,
          "name": "D#2",
          "ticks": 55000,
          "time": 26.82922,
          "velocity": 1
        },
        {
          "duration": 0.48780400000000057,
          "durationTicks": 1000,
          "midi": 46,
          "name": "A#2",
          "ticks": 56000,
          "time": 27.317024,
          "velocity": 1
        },
        {
          "duration": 0.48780400000000057,
          "durationTicks": 1000,
          "midi": 39,
          "name": "D#2",
          "ticks": 57000,
          "time": 27.804828,
          "velocity": 1
        },
        {
          "duration": 0.12195099999999925,
          "durationTicks": 250,
          "midi": 44,
          "name": "G#2",
          "ticks": 58000,
          "time": 28.292632,
          "velocity": 1
        },
        {
          "duration": 0.12195099999999925,
          "durationTicks": 250,
          "midi": 46,
          "name": "A#2",
          "ticks": 58250,
          "time": 28.414583,
          "velocity": 1
        },
        {
          "duration": 0.24390200000000206,
          "durationTicks": 500,
          "midi": 46,
          "name": "A#2",
          "ticks": 58500,
          "time": 28.536534,
          "velocity": 1
        },
        {
          "duration": 0.4868283919999996,
          "durationTicks": 998,
          "midi": 39,
          "name": "D#2",
          "ticks": 59000,
          "time": 28.780436,
          "velocity": 1
        },
        {
          "duration": 0.487803999999997,
          "durationTicks": 1000,
          "midi": 46,
          "name": "A#2",
          "ticks": 60000,
          "time": 29.268240000000002,
          "velocity": 1
        },
        {
          "duration": 0.48780400000000057,
          "durationTicks": 1000,
          "midi": 39,
          "name": "D#2",
          "ticks": 61000,
          "time": 29.756044,
          "velocity": 1
        },
        {
          "duration": 0.12195100000000281,
          "durationTicks": 250,
          "midi": 44,
          "name": "G#2",
          "ticks": 62000,
          "time": 30.243848,
          "velocity": 1
        },
        {
          "duration": 0.12195099999999925,
          "durationTicks": 250,
          "midi": 46,
          "name": "A#2",
          "ticks": 62250,
          "time": 30.365799000000003,
          "velocity": 1
        },
        {
          "duration": 0.2439019999999985,
          "durationTicks": 500,
          "midi": 46,
          "name": "A#2",
          "ticks": 62500,
          "time": 30.487750000000002,
          "velocity": 1
        },
        {
          "duration": 0.4868283919999996,
          "durationTicks": 998,
          "midi": 39,
          "name": "D#2",
          "ticks": 63000,
          "time": 30.731652,
          "velocity": 1
        },
        {
          "duration": 0.48780400000000057,
          "durationTicks": 1000,
          "midi": 46,
          "name": "A#2",
          "ticks": 64000,
          "time": 31.219456,
          "velocity": 1
        },
        {
          "duration": 0.48780400000000057,
          "durationTicks": 1000,
          "midi": 39,
          "name": "D#2",
          "ticks": 65000,
          "time": 31.70726,
          "velocity": 1
        },
        {
          "duration": 0.1219509999999957,
          "durationTicks": 250,
          "midi": 44,
          "name": "G#2",
          "ticks": 66000,
          "time": 32.195064,
          "velocity": 1
        },
        {
          "duration": 0.12195100000000281,
          "durationTicks": 250,
          "midi": 46,
          "name": "A#2",
          "ticks": 66250,
          "time": 32.317015,
          "velocity": 1
        },
        {
          "duration": 0.2439019999999985,
          "durationTicks": 500,
          "midi": 46,
          "name": "A#2",
          "ticks": 66500,
          "time": 32.438966,
          "velocity": 1
        },
        {
          "duration": 0.4868283920000067,
          "durationTicks": 998,
          "midi": 39,
          "name": "D#2",
          "ticks": 67000,
          "time": 32.682868,
          "velocity": 1
        },
        {
          "duration": 0.487803999999997,
          "durationTicks": 1000,
          "midi": 46,
          "name": "A#2",
          "ticks": 68000,
          "time": 33.170672,
          "velocity": 1
        },
        {
          "duration": 0.4878040000000041,
          "durationTicks": 1000,
          "midi": 39,
          "name": "D#2",
          "ticks": 69000,
          "time": 33.658476,
          "velocity": 1
        },
        {
          "duration": 0.1219509999999957,
          "durationTicks": 250,
          "midi": 44,
          "name": "G#2",
          "ticks": 70000,
          "time": 34.146280000000004,
          "velocity": 1
        },
        {
          "duration": 0.12195100000000281,
          "durationTicks": 250,
          "midi": 46,
          "name": "A#2",
          "ticks": 70250,
          "time": 34.268231,
          "velocity": 1
        },
        {
          "duration": 0.2439019999999985,
          "durationTicks": 500,
          "midi": 46,
          "name": "A#2",
          "ticks": 70500,
          "time": 34.390182,
          "velocity": 1
        },
        {
          "duration": 0.4868283919999996,
          "durationTicks": 998,
          "midi": 39,
          "name": "D#2",
          "ticks": 71000,
          "time": 34.634084,
          "velocity": 1
        },
        {
          "duration": 0.4878040000000041,
          "durationTicks": 1000,
          "midi": 46,
          "name": "A#2",
          "ticks": 72000,
          "time": 35.121888,
          "velocity": 1
        },
        {
          "duration": 0.487803999999997,
          "durationTicks": 1000,
          "midi": 39,
          "name": "D#2",
          "ticks": 73000,
          "time": 35.609692,
          "velocity": 1
        },
        {
          "duration": 0.12195100000000281,
          "durationTicks": 250,
          "midi": 44,
          "name": "G#2",
          "ticks": 74000,
          "time": 36.097496,
          "velocity": 1
        },
        {
          "duration": 0.1219509999999957,
          "durationTicks": 250,
          "midi": 46,
          "name": "A#2",
          "ticks": 74250,
          "time": 36.219447,
          "velocity": 1
        },
        {
          "duration": 0.24390200000000561,
          "durationTicks": 500,
          "midi": 46,
          "name": "A#2",
          "ticks": 74500,
          "time": 36.341398,
          "velocity": 1
        },
        {
          "duration": 0.4868283919999996,
          "durationTicks": 998,
          "midi": 39,
          "name": "D#2",
          "ticks": 75000,
          "time": 36.585300000000004,
          "velocity": 1
        },
        {
          "duration": 0.487803999999997,
          "durationTicks": 1000,
          "midi": 46,
          "name": "A#2",
          "ticks": 76000,
          "time": 37.073104,
          "velocity": 1
        },
        {
          "duration": 0.4878040000000041,
          "durationTicks": 1000,
          "midi": 39,
          "name": "D#2",
          "ticks": 77000,
          "time": 37.560908,
          "velocity": 1
        },
        {
          "duration": 0.12195100000000281,
          "durationTicks": 250,
          "midi": 44,
          "name": "G#2",
          "ticks": 78000,
          "time": 38.048712,
          "velocity": 1
        },
        {
          "duration": 0.1219509999999957,
          "durationTicks": 250,
          "midi": 46,
          "name": "A#2",
          "ticks": 78250,
          "time": 38.170663000000005,
          "velocity": 1
        },
        {
          "duration": 0.2439019999999985,
          "durationTicks": 500,
          "midi": 46,
          "name": "A#2",
          "ticks": 78500,
          "time": 38.292614,
          "velocity": 1
        },
        {
          "duration": 0.4868283920000067,
          "durationTicks": 998,
          "midi": 39,
          "name": "D#2",
          "ticks": 79000,
          "time": 38.536516,
          "velocity": 1
        },
        {
          "duration": 0.487803999999997,
          "durationTicks": 1000,
          "midi": 46,
          "name": "A#2",
          "ticks": 80000,
          "time": 39.02432,
          "velocity": 1
        },
        {
          "duration": 0.4878040000000041,
          "durationTicks": 1000,
          "midi": 39,
          "name": "D#2",
          "ticks": 81000,
          "time": 39.512124,
          "velocity": 1
        },
        {
          "duration": 0.1219509999999957,
          "durationTicks": 250,
          "midi": 44,
          "name": "G#2",
          "ticks": 82000,
          "time": 39.999928000000004,
          "velocity": 1
        },
        {
          "duration": 0.12195100000000281,
          "durationTicks": 250,
          "midi": 46,
          "name": "A#2",
          "ticks": 82250,
          "time": 40.121879,
          "velocity": 1
        },
        {
          "duration": 0.2439019999999985,
          "durationTicks": 500,
          "midi": 46,
          "name": "A#2",
          "ticks": 82500,
          "time": 40.24383,
          "velocity": 1
        },
        {
          "duration": 0.4868283919999996,
          "durationTicks": 998,
          "midi": 39,
          "name": "D#2",
          "ticks": 83000,
          "time": 40.487732,
          "velocity": 1
        },
        {
          "duration": 0.4878040000000041,
          "durationTicks": 1000,
          "midi": 46,
          "name": "A#2",
          "ticks": 84000,
          "time": 40.975536,
          "velocity": 1
        },
        {
          "duration": 0.487803999999997,
          "durationTicks": 1000,
          "midi": 39,
          "name": "D#2",
          "ticks": 85000,
          "time": 41.46334,
          "velocity": 1
        },
        {
          "duration": 0.12195100000000281,
          "durationTicks": 250,
          "midi": 44,
          "name": "G#2",
          "ticks": 86000,
          "time": 41.951144,
          "velocity": 1
        },
        {
          "duration": 0.1219509999999957,
          "durationTicks": 250,
          "midi": 46,
          "name": "A#2",
          "ticks": 86250,
          "time": 42.073095,
          "velocity": 1
        },
        {
          "duration": 0.24390200000000561,
          "durationTicks": 500,
          "midi": 46,
          "name": "A#2",
          "ticks": 86500,
          "time": 42.195046,
          "velocity": 1
        },
        {
          "duration": 0.4868283919999996,
          "durationTicks": 998,
          "midi": 39,
          "name": "D#2",
          "ticks": 87000,
          "time": 42.438948,
          "velocity": 1
        },
        {
          "duration": 0.4878040000000041,
          "durationTicks": 1000,
          "midi": 46,
          "name": "A#2",
          "ticks": 88000,
          "time": 42.926752,
          "velocity": 1
        },
        {
          "duration": 0.487803999999997,
          "durationTicks": 1000,
          "midi": 39,
          "name": "D#2",
          "ticks": 89000,
          "time": 43.414556000000005,
          "velocity": 1
        },
        {
          "duration": 0.12195100000000281,
          "durationTicks": 250,
          "midi": 44,
          "name": "G#2",
          "ticks": 90000,
          "time": 43.90236,
          "velocity": 1
        },
        {
          "duration": 0.1219509999999957,
          "durationTicks": 250,
          "midi": 46,
          "name": "A#2",
          "ticks": 90250,
          "time": 44.024311000000004,
          "velocity": 1
        },
        {
          "duration": 0.2439019999999985,
          "durationTicks": 500,
          "midi": 46,
          "name": "A#2",
          "ticks": 90500,
          "time": 44.146262,
          "velocity": 1
        },
        {
          "duration": 0.4868283920000067,
          "durationTicks": 998,
          "midi": 39,
          "name": "D#2",
          "ticks": 91000,
          "time": 44.390164,
          "velocity": 1
        },
        {
          "duration": 0.487803999999997,
          "durationTicks": 1000,
          "midi": 46,
          "name": "A#2",
          "ticks": 92000,
          "time": 44.877968,
          "velocity": 1
        },
        {
          "duration": 0.4878040000000041,
          "durationTicks": 1000,
          "midi": 39,
          "name": "D#2",
          "ticks": 93000,
          "time": 45.365772,
          "velocity": 1
        },
        {
          "duration": 0.1219509999999957,
          "durationTicks": 250,
          "midi": 44,
          "name": "G#2",
          "ticks": 94000,
          "time": 45.853576000000004,
          "velocity": 1
        },
        {
          "duration": 0.12195100000000281,
          "durationTicks": 250,
          "midi": 46,
          "name": "A#2",
          "ticks": 94250,
          "time": 45.975527,
          "velocity": 1
        },
        {
          "duration": 0.2439019999999985,
          "durationTicks": 500,
          "midi": 46,
          "name": "A#2",
          "ticks": 94500,
          "time": 46.097478,
          "velocity": 1
        },
        {
          "duration": 0.4868283919999996,
          "durationTicks": 998,
          "midi": 39,
          "name": "D#2",
          "ticks": 95000,
          "time": 46.34138,
          "velocity": 1
        },
        {
          "duration": 0.4878040000000041,
          "durationTicks": 1000,
          "midi": 46,
          "name": "A#2",
          "ticks": 96000,
          "time": 46.829184,
          "velocity": 1
        },
        {
          "duration": 0.487803999999997,
          "durationTicks": 1000,
          "midi": 39,
          "name": "D#2",
          "ticks": 97000,
          "time": 47.316988,
          "velocity": 1
        },
        {
          "duration": 0.12195100000000281,
          "durationTicks": 250,
          "midi": 44,
          "name": "G#2",
          "ticks": 98000,
          "time": 47.804792,
          "velocity": 1
        },
        {
          "duration": 0.12195100000000281,
          "durationTicks": 250,
          "midi": 46,
          "name": "A#2",
          "ticks": 98250,
          "time": 47.926743,
          "velocity": 1
        },
        {
          "duration": 0.2439019999999985,
          "durationTicks": 500,
          "midi": 46,
          "name": "A#2",
          "ticks": 98500,
          "time": 48.048694000000005,
          "velocity": 1
        },
        {
          "duration": 0.4868283919999996,
          "durationTicks": 998,
          "midi": 39,
          "name": "D#2",
          "ticks": 99000,
          "time": 48.292596,
          "velocity": 1
        },
        {
          "duration": 0.4878040000000041,
          "durationTicks": 1000,
          "midi": 46,
          "name": "A#2",
          "ticks": 100000,
          "time": 48.7804,
          "velocity": 1
        },
        {
          "duration": 0.487803999999997,
          "durationTicks": 1000,
          "midi": 39,
          "name": "D#2",
          "ticks": 101000,
          "time": 49.268204000000004,
          "velocity": 1
        },
        {
          "duration": 0.12195100000000281,
          "durationTicks": 250,
          "midi": 44,
          "name": "G#2",
          "ticks": 102000,
          "time": 49.756008,
          "velocity": 1
        },
        {
          "duration": 0.1219509999999957,
          "durationTicks": 250,
          "midi": 46,
          "name": "A#2",
          "ticks": 102250,
          "time": 49.877959000000004,
          "velocity": 1
        },
        {
          "duration": 0.2439019999999985,
          "durationTicks": 500,
          "midi": 46,
          "name": "A#2",
          "ticks": 102500,
          "time": 49.99991,
          "velocity": 1
        },
        {
          "duration": 0.4868283920000067,
          "durationTicks": 998,
          "midi": 39,
          "name": "D#2",
          "ticks": 103000,
          "time": 50.243812,
          "velocity": 1
        },
        {
          "duration": 0.487803999999997,
          "durationTicks": 1000,
          "midi": 46,
          "name": "A#2",
          "ticks": 104000,
          "time": 50.731616,
          "velocity": 1
        },
        {
          "duration": 0.4878040000000041,
          "durationTicks": 1000,
          "midi": 39,
          "name": "D#2",
          "ticks": 105000,
          "time": 51.21942,
          "velocity": 1
        },
        {
          "duration": 0.1219509999999957,
          "durationTicks": 250,
          "midi": 44,
          "name": "G#2",
          "ticks": 106000,
          "time": 51.707224000000004,
          "velocity": 1
        },
        {
          "duration": 0.12195100000000281,
          "durationTicks": 250,
          "midi": 46,
          "name": "A#2",
          "ticks": 106250,
          "time": 51.829175,
          "velocity": 1
        },
        {
          "duration": 0.2439019999999985,
          "durationTicks": 500,
          "midi": 46,
          "name": "A#2",
          "ticks": 106500,
          "time": 51.951126,
          "velocity": 1
        },
        {
          "duration": 0.4868283920000067,
          "durationTicks": 998,
          "midi": 39,
          "name": "D#2",
          "ticks": 107000,
          "time": 52.195028,
          "velocity": 1
        },
        {
          "duration": 0.487803999999997,
          "durationTicks": 1000,
          "midi": 46,
          "name": "A#2",
          "ticks": 108000,
          "time": 52.682832000000005,
          "velocity": 1
        },
        {
          "duration": 0.487803999999997,
          "durationTicks": 1000,
          "midi": 39,
          "name": "D#2",
          "ticks": 109000,
          "time": 53.170636,
          "velocity": 1
        },
        {
          "duration": 0.12195100000000281,
          "durationTicks": 250,
          "midi": 44,
          "name": "G#2",
          "ticks": 110000,
          "time": 53.65844,
          "velocity": 1
        },
        {
          "duration": 0.12195100000000281,
          "durationTicks": 250,
          "midi": 46,
          "name": "A#2",
          "ticks": 110250,
          "time": 53.780391,
          "velocity": 1
        },
        {
          "duration": 0.2439019999999985,
          "durationTicks": 500,
          "midi": 46,
          "name": "A#2",
          "ticks": 110500,
          "time": 53.902342000000004,
          "velocity": 1
        },
        {
          "duration": 0.4868283919999996,
          "durationTicks": 998,
          "midi": 39,
          "name": "D#2",
          "ticks": 111000,
          "time": 54.146244,
          "velocity": 1
        },
        {
          "duration": 0.4878040000000041,
          "durationTicks": 1000,
          "midi": 46,
          "name": "A#2",
          "ticks": 112000,
          "time": 54.634048,
          "velocity": 1
        },
        {
          "duration": 0.487803999999997,
          "durationTicks": 1000,
          "midi": 39,
          "name": "D#2",
          "ticks": 113000,
          "time": 55.121852000000004,
          "velocity": 1
        },
        {
          "duration": 0.12195100000000281,
          "durationTicks": 250,
          "midi": 44,
          "name": "G#2",
          "ticks": 114000,
          "time": 55.609656,
          "velocity": 1
        },
        {
          "duration": 0.1219509999999957,
          "durationTicks": 250,
          "midi": 46,
          "name": "A#2",
          "ticks": 114250,
          "time": 55.731607000000004,
          "velocity": 1
        },
        {
          "duration": 0.24390200000000561,
          "durationTicks": 500,
          "midi": 46,
          "name": "A#2",
          "ticks": 114500,
          "time": 55.853558,
          "velocity": 1
        },
        {
          "duration": 0.4868283919999996,
          "durationTicks": 998,
          "midi": 39,
          "name": "D#2",
          "ticks": 115000,
          "time": 56.097460000000005,
          "velocity": 1
        },
        {
          "duration": 0.487803999999997,
          "durationTicks": 1000,
          "midi": 46,
          "name": "A#2",
          "ticks": 116000,
          "time": 56.585264,
          "velocity": 1
        },
        {
          "duration": 0.4878040000000041,
          "durationTicks": 1000,
          "midi": 39,
          "name": "D#2",
          "ticks": 117000,
          "time": 57.073068,
          "velocity": 1
        },
        {
          "duration": 0.1219509999999957,
          "durationTicks": 250,
          "midi": 44,
          "name": "G#2",
          "ticks": 118000,
          "time": 57.560872,
          "velocity": 1
        },
        {
          "duration": 0.12195100000000281,
          "durationTicks": 250,
          "midi": 46,
          "name": "A#2",
          "ticks": 118250,
          "time": 57.682823,
          "velocity": 1
        },
        {
          "duration": 0.2439019999999985,
          "durationTicks": 500,
          "midi": 46,
          "name": "A#2",
          "ticks": 118500,
          "time": 57.804774,
          "velocity": 1
        },
        {
          "duration": 0.4868283920000067,
          "durationTicks": 998,
          "midi": 39,
          "name": "D#2",
          "ticks": 119000,
          "time": 58.048676,
          "velocity": 1
        },
        {
          "duration": 0.487803999999997,
          "durationTicks": 1000,
          "midi": 46,
          "name": "A#2",
          "ticks": 120000,
          "time": 58.536480000000005,
          "velocity": 1
        },
        {
          "duration": 0.487803999999997,
          "durationTicks": 1000,
          "midi": 39,
          "name": "D#2",
          "ticks": 121000,
          "time": 59.024284,
          "velocity": 1
        },
        {
          "duration": 0.12195100000000281,
          "durationTicks": 250,
          "midi": 44,
          "name": "G#2",
          "ticks": 122000,
          "time": 59.512088,
          "velocity": 1
        },
        {
          "duration": 0.12195100000000281,
          "durationTicks": 250,
          "midi": 46,
          "name": "A#2",
          "ticks": 122250,
          "time": 59.634039,
          "velocity": 1
        },
        {
          "duration": 0.2439019999999985,
          "durationTicks": 500,
          "midi": 46,
          "name": "A#2",
          "ticks": 122500,
          "time": 59.755990000000004,
          "velocity": 1
        },
        {
          "duration": 0.4868283919999996,
          "durationTicks": 998,
          "midi": 39,
          "name": "D#2",
          "ticks": 123000,
          "time": 59.999892,
          "velocity": 1
        },
        {
          "duration": 0.4878040000000041,
          "durationTicks": 1000,
          "midi": 46,
          "name": "A#2",
          "ticks": 124000,
          "time": 60.487696,
          "velocity": 1
        },
        {
          "duration": 0.487803999999997,
          "durationTicks": 1000,
          "midi": 39,
          "name": "D#2",
          "ticks": 125000,
          "time": 60.975500000000004,
          "velocity": 1
        },
        {
          "duration": 0.12195100000000281,
          "durationTicks": 250,
          "midi": 44,
          "name": "G#2",
          "ticks": 126000,
          "time": 61.463304,
          "velocity": 1
        },
        {
          "duration": 0.1219509999999957,
          "durationTicks": 250,
          "midi": 46,
          "name": "A#2",
          "ticks": 126250,
          "time": 61.585255000000004,
          "velocity": 1
        },
        {
          "duration": 0.24390200000000561,
          "durationTicks": 500,
          "midi": 46,
          "name": "A#2",
          "ticks": 126500,
          "time": 61.707206,
          "velocity": 1
        },
        {
          "duration": 0.4868283919999996,
          "durationTicks": 998,
          "midi": 39,
          "name": "D#2",
          "ticks": 127000,
          "time": 61.951108000000005,
          "velocity": 1
        },
        {
          "duration": 0.487803999999997,
          "durationTicks": 1000,
          "midi": 46,
          "name": "A#2",
          "ticks": 128000,
          "time": 62.438912,
          "velocity": 1
        },
        {
          "duration": 0.4878040000000041,
          "durationTicks": 1000,
          "midi": 39,
          "name": "D#2",
          "ticks": 129000,
          "time": 62.926716,
          "velocity": 1
        },
        {
          "duration": 0.1219509999999957,
          "durationTicks": 250,
          "midi": 44,
          "name": "G#2",
          "ticks": 130000,
          "time": 63.41452,
          "velocity": 1
        },
        {
          "duration": 0.12195100000000281,
          "durationTicks": 250,
          "midi": 46,
          "name": "A#2",
          "ticks": 130250,
          "time": 63.536471,
          "velocity": 1
        },
        {
          "duration": 0.2439019999999985,
          "durationTicks": 500,
          "midi": 46,
          "name": "A#2",
          "ticks": 130500,
          "time": 63.658422,
          "velocity": 1
        },
        {
          "duration": 0.4868283919999996,
          "durationTicks": 998,
          "midi": 39,
          "name": "D#2",
          "ticks": 131000,
          "time": 63.902324,
          "velocity": 1
        },
        {
          "duration": 0.487803999999997,
          "durationTicks": 1000,
          "midi": 46,
          "name": "A#2",
          "ticks": 132000,
          "time": 64.390128,
          "velocity": 1
        },
        {
          "duration": 0.487803999999997,
          "durationTicks": 1000,
          "midi": 39,
          "name": "D#2",
          "ticks": 133000,
          "time": 64.877932,
          "velocity": 1
        },
        {
          "duration": 0.12195100000000991,
          "durationTicks": 250,
          "midi": 44,
          "name": "G#2",
          "ticks": 134000,
          "time": 65.365736,
          "velocity": 1
        },
        {
          "duration": 0.1219509999999957,
          "durationTicks": 250,
          "midi": 46,
          "name": "A#2",
          "ticks": 134250,
          "time": 65.48768700000001,
          "velocity": 1
        },
        {
          "duration": 0.2439019999999914,
          "durationTicks": 500,
          "midi": 46,
          "name": "A#2",
          "ticks": 134500,
          "time": 65.609638,
          "velocity": 1
        },
        {
          "duration": 0.4868283920000067,
          "durationTicks": 998,
          "midi": 39,
          "name": "D#2",
          "ticks": 135000,
          "time": 65.85354,
          "velocity": 1
        },
        {
          "duration": 0.487803999999997,
          "durationTicks": 1000,
          "midi": 46,
          "name": "A#2",
          "ticks": 136000,
          "time": 66.341344,
          "velocity": 1
        },
        {
          "duration": 0.487803999999997,
          "durationTicks": 1000,
          "midi": 39,
          "name": "D#2",
          "ticks": 137000,
          "time": 66.829148,
          "velocity": 1
        },
        {
          "duration": 0.1219509999999957,
          "durationTicks": 250,
          "midi": 44,
          "name": "G#2",
          "ticks": 138000,
          "time": 67.316952,
          "velocity": 1
        },
        {
          "duration": 0.12195100000000991,
          "durationTicks": 250,
          "midi": 46,
          "name": "A#2",
          "ticks": 138250,
          "time": 67.438903,
          "velocity": 1
        },
        {
          "duration": 0.2439019999999914,
          "durationTicks": 500,
          "midi": 46,
          "name": "A#2",
          "ticks": 138500,
          "time": 67.560854,
          "velocity": 1
        },
        {
          "duration": 0.4868283920000067,
          "durationTicks": 998,
          "midi": 39,
          "name": "D#2",
          "ticks": 139000,
          "time": 67.804756,
          "velocity": 1
        },
        {
          "duration": 0.487803999999997,
          "durationTicks": 1000,
          "midi": 46,
          "name": "A#2",
          "ticks": 140000,
          "time": 68.29256000000001,
          "velocity": 1
        },
        {
          "duration": 0.487803999999997,
          "durationTicks": 1000,
          "midi": 39,
          "name": "D#2",
          "ticks": 141000,
          "time": 68.780364,
          "velocity": 1
        },
        {
          "duration": 0.1219509999999957,
          "durationTicks": 250,
          "midi": 44,
          "name": "G#2",
          "ticks": 142000,
          "time": 69.268168,
          "velocity": 1
        },
        {
          "duration": 0.12195100000000991,
          "durationTicks": 250,
          "midi": 46,
          "name": "A#2",
          "ticks": 142250,
          "time": 69.390119,
          "velocity": 1
        },
        {
          "duration": 0.2439019999999914,
          "durationTicks": 500,
          "midi": 46,
          "name": "A#2",
          "ticks": 142500,
          "time": 69.51207000000001,
          "velocity": 1
        },
        {
          "duration": 0.4868283919999925,
          "durationTicks": 998,
          "midi": 39,
          "name": "D#2",
          "ticks": 143000,
          "time": 69.755972,
          "velocity": 1
        },
        {
          "duration": 0.48780400000001123,
          "durationTicks": 1000,
          "midi": 46,
          "name": "A#2",
          "ticks": 144000,
          "time": 70.243776,
          "velocity": 1
        },
        {
          "duration": 0.487803999999997,
          "durationTicks": 1000,
          "midi": 39,
          "name": "D#2",
          "ticks": 145000,
          "time": 70.73158000000001,
          "velocity": 1
        },
        {
          "duration": 0.1219509999999957,
          "durationTicks": 250,
          "midi": 44,
          "name": "G#2",
          "ticks": 146000,
          "time": 71.219384,
          "velocity": 1
        },
        {
          "duration": 0.1219509999999957,
          "durationTicks": 250,
          "midi": 46,
          "name": "A#2",
          "ticks": 146250,
          "time": 71.341335,
          "velocity": 1
        },
        {
          "duration": 0.24390200000000561,
          "durationTicks": 500,
          "midi": 46,
          "name": "A#2",
          "ticks": 146500,
          "time": 71.463286,
          "velocity": 1
        },
        {
          "duration": 0.4868283919999925,
          "durationTicks": 998,
          "midi": 39,
          "name": "D#2",
          "ticks": 147000,
          "time": 71.707188,
          "velocity": 1
        },
        {
          "duration": 0.487803999999997,
          "durationTicks": 1000,
          "midi": 46,
          "name": "A#2",
          "ticks": 148000,
          "time": 72.194992,
          "velocity": 1
        },
        {
          "duration": 0.48780400000001123,
          "durationTicks": 1000,
          "midi": 39,
          "name": "D#2",
          "ticks": 149000,
          "time": 72.682796,
          "velocity": 1
        },
        {
          "duration": 0.1219509999999957,
          "durationTicks": 250,
          "midi": 44,
          "name": "G#2",
          "ticks": 150000,
          "time": 73.17060000000001,
          "velocity": 1
        },
        {
          "duration": 0.1219509999999957,
          "durationTicks": 250,
          "midi": 46,
          "name": "A#2",
          "ticks": 150250,
          "time": 73.292551,
          "velocity": 1
        },
        {
          "duration": 0.24390200000000561,
          "durationTicks": 500,
          "midi": 46,
          "name": "A#2",
          "ticks": 150500,
          "time": 73.414502,
          "velocity": 1
        },
        {
          "duration": 0.4868283919999925,
          "durationTicks": 998,
          "midi": 39,
          "name": "D#2",
          "ticks": 151000,
          "time": 73.658404,
          "velocity": 1
        },
        {
          "duration": 0.487803999999997,
          "durationTicks": 1000,
          "midi": 46,
          "name": "A#2",
          "ticks": 152000,
          "time": 74.146208,
          "velocity": 1
        },
        {
          "duration": 0.487803999999997,
          "durationTicks": 1000,
          "midi": 39,
          "name": "D#2",
          "ticks": 153000,
          "time": 74.634012,
          "velocity": 1
        },
        {
          "duration": 0.12195100000000991,
          "durationTicks": 250,
          "midi": 44,
          "name": "G#2",
          "ticks": 154000,
          "time": 75.121816,
          "velocity": 1
        },
        {
          "duration": 0.1219509999999957,
          "durationTicks": 250,
          "midi": 46,
          "name": "A#2",
          "ticks": 154250,
          "time": 75.243767,
          "velocity": 1
        },
        {
          "duration": 0.24390200000000561,
          "durationTicks": 500,
          "midi": 46,
          "name": "A#2",
          "ticks": 154500,
          "time": 75.365718,
          "velocity": 1
        },
        {
          "duration": 0.4868283919999925,
          "durationTicks": 998,
          "midi": 39,
          "name": "D#2",
          "ticks": 155000,
          "time": 75.60962,
          "velocity": 1
        },
        {
          "duration": 0.487803999999997,
          "durationTicks": 1000,
          "midi": 46,
          "name": "A#2",
          "ticks": 156000,
          "time": 76.097424,
          "velocity": 1
        },
        {
          "duration": 0.487803999999997,
          "durationTicks": 1000,
          "midi": 39,
          "name": "D#2",
          "ticks": 157000,
          "time": 76.585228,
          "velocity": 1
        },
        {
          "duration": 0.12195100000000991,
          "durationTicks": 250,
          "midi": 44,
          "name": "G#2",
          "ticks": 158000,
          "time": 77.073032,
          "velocity": 1
        },
        {
          "duration": 0.1219509999999957,
          "durationTicks": 250,
          "midi": 46,
          "name": "A#2",
          "ticks": 158250,
          "time": 77.19498300000001,
          "velocity": 1
        },
        {
          "duration": 0.24390200000000561,
          "durationTicks": 500,
          "midi": 46,
          "name": "A#2",
          "ticks": 158500,
          "time": 77.316934,
          "velocity": 1
        },
        {
          "duration": 0.4868283919999925,
          "durationTicks": 998,
          "midi": 39,
          "name": "D#2",
          "ticks": 159000,
          "time": 77.56083600000001,
          "velocity": 1
        },
        {
          "duration": 0.487803999999997,
          "durationTicks": 1000,
          "midi": 46,
          "name": "A#2",
          "ticks": 160000,
          "time": 78.04864,
          "velocity": 1
        },
        {
          "duration": 0.487803999999997,
          "durationTicks": 1000,
          "midi": 39,
          "name": "D#2",
          "ticks": 161000,
          "time": 78.536444,
          "velocity": 1
        },
        {
          "duration": 0.1219509999999957,
          "durationTicks": 250,
          "midi": 44,
          "name": "G#2",
          "ticks": 162000,
          "time": 79.024248,
          "velocity": 1
        },
        {
          "duration": 0.12195100000000991,
          "durationTicks": 250,
          "midi": 46,
          "name": "A#2",
          "ticks": 162250,
          "time": 79.146199,
          "velocity": 1
        },
        {
          "duration": 0.2439019999999914,
          "durationTicks": 500,
          "midi": 46,
          "name": "A#2",
          "ticks": 162500,
          "time": 79.26815,
          "velocity": 1
        },
        {
          "duration": 0.4868283920000067,
          "durationTicks": 998,
          "midi": 39,
          "name": "D#2",
          "ticks": 163000,
          "time": 79.512052,
          "velocity": 1
        },
        {
          "duration": 0.487803999999997,
          "durationTicks": 1000,
          "midi": 46,
          "name": "A#2",
          "ticks": 164000,
          "time": 79.99985600000001,
          "velocity": 1
        },
        {
          "duration": 0.487803999999997,
          "durationTicks": 1000,
          "midi": 39,
          "name": "D#2",
          "ticks": 165000,
          "time": 80.48766,
          "velocity": 1
        },
        {
          "duration": 0.1219509999999957,
          "durationTicks": 250,
          "midi": 44,
          "name": "G#2",
          "ticks": 166000,
          "time": 80.975464,
          "velocity": 1
        },
        {
          "duration": 0.12195100000000991,
          "durationTicks": 250,
          "midi": 46,
          "name": "A#2",
          "ticks": 166250,
          "time": 81.097415,
          "velocity": 1
        },
        {
          "duration": 0.2439019999999914,
          "durationTicks": 500,
          "midi": 46,
          "name": "A#2",
          "ticks": 166500,
          "time": 81.21936600000001,
          "velocity": 1
        },
        {
          "duration": 0.4868283919999925,
          "durationTicks": 998,
          "midi": 39,
          "name": "D#2",
          "ticks": 167000,
          "time": 81.463268,
          "velocity": 1
        },
        {
          "duration": 0.48780400000001123,
          "durationTicks": 1000,
          "midi": 46,
          "name": "A#2",
          "ticks": 168000,
          "time": 81.951072,
          "velocity": 1
        },
        {
          "duration": 0.487803999999997,
          "durationTicks": 1000,
          "midi": 39,
          "name": "D#2",
          "ticks": 169000,
          "time": 82.43887600000001,
          "velocity": 1
        },
        {
          "duration": 0.1219509999999957,
          "durationTicks": 250,
          "midi": 44,
          "name": "G#2",
          "ticks": 170000,
          "time": 82.92668,
          "velocity": 1
        },
        {
          "duration": 0.1219509999999957,
          "durationTicks": 250,
          "midi": 46,
          "name": "A#2",
          "ticks": 170250,
          "time": 83.048631,
          "velocity": 1
        },
        {
          "duration": 0.24390200000000561,
          "durationTicks": 500,
          "midi": 46,
          "name": "A#2",
          "ticks": 170500,
          "time": 83.170582,
          "velocity": 1
        },
        {
          "duration": 0.4868283919999925,
          "durationTicks": 998,
          "midi": 39,
          "name": "D#2",
          "ticks": 171000,
          "time": 83.414484,
          "velocity": 1
        },
        {
          "duration": 0.487803999999997,
          "durationTicks": 1000,
          "midi": 46,
          "name": "A#2",
          "ticks": 172000,
          "time": 83.902288,
          "velocity": 1
        },
        {
          "duration": 0.48780400000001123,
          "durationTicks": 1000,
          "midi": 39,
          "name": "D#2",
          "ticks": 173000,
          "time": 84.390092,
          "velocity": 1
        },
        {
          "duration": 0.1219509999999957,
          "durationTicks": 250,
          "midi": 44,
          "name": "G#2",
          "ticks": 174000,
          "time": 84.877896,
          "velocity": 1
        },
        {
          "duration": 0.1219509999999957,
          "durationTicks": 250,
          "midi": 46,
          "name": "A#2",
          "ticks": 174250,
          "time": 84.999847,
          "velocity": 1
        },
        {
          "duration": 0.24390200000000561,
          "durationTicks": 500,
          "midi": 46,
          "name": "A#2",
          "ticks": 174500,
          "time": 85.121798,
          "velocity": 1
        },
        {
          "duration": 0.4868283919999925,
          "durationTicks": 998,
          "midi": 39,
          "name": "D#2",
          "ticks": 175000,
          "time": 85.3657,
          "velocity": 1
        },
        {
          "duration": 0.487803999999997,
          "durationTicks": 1000,
          "midi": 46,
          "name": "A#2",
          "ticks": 176000,
          "time": 85.853504,
          "velocity": 1
        },
        {
          "duration": 0.48780400000001123,
          "durationTicks": 1000,
          "midi": 39,
          "name": "D#2",
          "ticks": 177000,
          "time": 86.341308,
          "velocity": 1
        },
        {
          "duration": 0.1219509999999957,
          "durationTicks": 250,
          "midi": 44,
          "name": "G#2",
          "ticks": 178000,
          "time": 86.82911200000001,
          "velocity": 1
        },
        {
          "duration": 0.1219509999999957,
          "durationTicks": 250,
          "midi": 46,
          "name": "A#2",
          "ticks": 178250,
          "time": 86.951063,
          "velocity": 1
        },
        {
          "duration": 0.24390200000000561,
          "durationTicks": 500,
          "midi": 46,
          "name": "A#2",
          "ticks": 178500,
          "time": 87.073014,
          "velocity": 1
        },
        {
          "duration": 0.4868283919999925,
          "durationTicks": 998,
          "midi": 39,
          "name": "D#2",
          "ticks": 179000,
          "time": 87.316916,
          "velocity": 1
        },
        {
          "duration": 0.487803999999997,
          "durationTicks": 1000,
          "midi": 46,
          "name": "A#2",
          "ticks": 180000,
          "time": 87.80472,
          "velocity": 1
        },
        {
          "duration": 0.487803999999997,
          "durationTicks": 1000,
          "midi": 39,
          "name": "D#2",
          "ticks": 181000,
          "time": 88.292524,
          "velocity": 1
        },
        {
          "duration": 0.12195100000000991,
          "durationTicks": 250,
          "midi": 44,
          "name": "G#2",
          "ticks": 182000,
          "time": 88.780328,
          "velocity": 1
        },
        {
          "duration": 0.1219509999999957,
          "durationTicks": 250,
          "midi": 46,
          "name": "A#2",
          "ticks": 182250,
          "time": 88.90227900000001,
          "velocity": 1
        },
        {
          "duration": 0.24390200000000561,
          "durationTicks": 500,
          "midi": 46,
          "name": "A#2",
          "ticks": 182500,
          "time": 89.02423,
          "velocity": 1
        },
        {
          "duration": 0.4868283919999925,
          "durationTicks": 998,
          "midi": 39,
          "name": "D#2",
          "ticks": 183000,
          "time": 89.26813200000001,
          "velocity": 1
        },
        {
          "duration": 0.487803999999997,
          "durationTicks": 1000,
          "midi": 46,
          "name": "A#2",
          "ticks": 184000,
          "time": 89.755936,
          "velocity": 1
        },
        {
          "duration": 0.487803999999997,
          "durationTicks": 1000,
          "midi": 39,
          "name": "D#2",
          "ticks": 185000,
          "time": 90.24374,
          "velocity": 1
        },
        {
          "duration": 0.12195100000000991,
          "durationTicks": 250,
          "midi": 44,
          "name": "G#2",
          "ticks": 186000,
          "time": 90.731544,
          "velocity": 1
        },
        {
          "duration": 0.1219509999999957,
          "durationTicks": 250,
          "midi": 46,
          "name": "A#2",
          "ticks": 186250,
          "time": 90.85349500000001,
          "velocity": 1
        },
        {
          "duration": 0.2439019999999914,
          "durationTicks": 500,
          "midi": 46,
          "name": "A#2",
          "ticks": 186500,
          "time": 90.975446,
          "velocity": 1
        },
        {
          "duration": 0.4868283920000067,
          "durationTicks": 998,
          "midi": 39,
          "name": "D#2",
          "ticks": 187000,
          "time": 91.219348,
          "velocity": 1
        },
        {
          "duration": 0.487803999999997,
          "durationTicks": 1000,
          "midi": 46,
          "name": "A#2",
          "ticks": 188000,
          "time": 91.70715200000001,
          "velocity": 1
        },
        {
          "duration": 0.487803999999997,
          "durationTicks": 1000,
          "midi": 39,
          "name": "D#2",
          "ticks": 189000,
          "time": 92.194956,
          "velocity": 1
        },
        {
          "duration": 0.1219509999999957,
          "durationTicks": 250,
          "midi": 44,
          "name": "G#2",
          "ticks": 190000,
          "time": 92.68276,
          "velocity": 1
        },
        {
          "duration": 0.12195100000000991,
          "durationTicks": 250,
          "midi": 46,
          "name": "A#2",
          "ticks": 190250,
          "time": 92.804711,
          "velocity": 1
        },
        {
          "duration": 0.2439019999999914,
          "durationTicks": 500,
          "midi": 46,
          "name": "A#2",
          "ticks": 190500,
          "time": 92.92666200000001,
          "velocity": 1
        },
        {
          "duration": 0.4868283919999925,
          "durationTicks": 998,
          "midi": 39,
          "name": "D#2",
          "ticks": 191000,
          "time": 93.170564,
          "velocity": 1
        },
        {
          "duration": 0.48780400000001123,
          "durationTicks": 1000,
          "midi": 46,
          "name": "A#2",
          "ticks": 192000,
          "time": 93.658368,
          "velocity": 1
        },
        {
          "duration": 0.487803999999997,
          "durationTicks": 1000,
          "midi": 39,
          "name": "D#2",
          "ticks": 193000,
          "time": 94.146172,
          "velocity": 1
        },
        {
          "duration": 0.1219509999999957,
          "durationTicks": 250,
          "midi": 44,
          "name": "G#2",
          "ticks": 194000,
          "time": 94.633976,
          "velocity": 1
        },
        {
          "duration": 0.12195100000000991,
          "durationTicks": 250,
          "midi": 46,
          "name": "A#2",
          "ticks": 194250,
          "time": 94.755927,
          "velocity": 1
        },
        {
          "duration": 0.2439019999999914,
          "durationTicks": 500,
          "midi": 46,
          "name": "A#2",
          "ticks": 194500,
          "time": 94.87787800000001,
          "velocity": 1
        },
        {
          "duration": 0.4868283919999925,
          "durationTicks": 998,
          "midi": 39,
          "name": "D#2",
          "ticks": 195000,
          "time": 95.12178,
          "velocity": 1
        },
        {
          "duration": 0.48780400000001123,
          "durationTicks": 1000,
          "midi": 46,
          "name": "A#2",
          "ticks": 196000,
          "time": 95.609584,
          "velocity": 1
        },
        {
          "duration": 0.487803999999997,
          "durationTicks": 1000,
          "midi": 39,
          "name": "D#2",
          "ticks": 197000,
          "time": 96.09738800000001,
          "velocity": 1
        },
        {
          "duration": 0.1219509999999957,
          "durationTicks": 250,
          "midi": 44,
          "name": "G#2",
          "ticks": 198000,
          "time": 96.585192,
          "velocity": 1
        },
        {
          "duration": 0.1219509999999957,
          "durationTicks": 250,
          "midi": 46,
          "name": "A#2",
          "ticks": 198250,
          "time": 96.707143,
          "velocity": 1
        },
        {
          "duration": 0.24390200000000561,
          "durationTicks": 500,
          "midi": 46,
          "name": "A#2",
          "ticks": 198500,
          "time": 96.829094,
          "velocity": 1
        },
        {
          "duration": 0.4868283919999925,
          "durationTicks": 998,
          "midi": 39,
          "name": "D#2",
          "ticks": 199000,
          "time": 97.072996,
          "velocity": 1
        },
        {
          "duration": 0.487803999999997,
          "durationTicks": 1000,
          "midi": 46,
          "name": "A#2",
          "ticks": 200000,
          "time": 97.5608,
          "velocity": 1
        },
        {
          "duration": 0.48780400000001123,
          "durationTicks": 1000,
          "midi": 39,
          "name": "D#2",
          "ticks": 201000,
          "time": 98.048604,
          "velocity": 1
        },
        {
          "duration": 0.1219509999999957,
          "durationTicks": 250,
          "midi": 44,
          "name": "G#2",
          "ticks": 202000,
          "time": 98.53640800000001,
          "velocity": 1
        },
        {
          "duration": 0.1219509999999957,
          "durationTicks": 250,
          "midi": 46,
          "name": "A#2",
          "ticks": 202250,
          "time": 98.658359,
          "velocity": 1
        },
        {
          "duration": 0.24390200000000561,
          "durationTicks": 500,
          "midi": 46,
          "name": "A#2",
          "ticks": 202500,
          "time": 98.78031,
          "velocity": 1
        },
        {
          "duration": 0.4868283919999925,
          "durationTicks": 998,
          "midi": 39,
          "name": "D#2",
          "ticks": 203000,
          "time": 99.024212,
          "velocity": 1
        },
        {
          "duration": 0.487803999999997,
          "durationTicks": 1000,
          "midi": 46,
          "name": "A#2",
          "ticks": 204000,
          "time": 99.512016,
          "velocity": 1
        },
        {
          "duration": 0.487803999999997,
          "durationTicks": 1000,
          "midi": 39,
          "name": "D#2",
          "ticks": 205000,
          "time": 99.99982,
          "velocity": 1
        },
        {
          "duration": 0.12195100000000991,
          "durationTicks": 250,
          "midi": 44,
          "name": "G#2",
          "ticks": 206000,
          "time": 100.487624,
          "velocity": 1
        },
        {
          "duration": 0.1219509999999957,
          "durationTicks": 250,
          "midi": 46,
          "name": "A#2",
          "ticks": 206250,
          "time": 100.609575,
          "velocity": 1
        },
        {
          "duration": 0.24390200000000561,
          "durationTicks": 500,
          "midi": 46,
          "name": "A#2",
          "ticks": 206500,
          "time": 100.731526,
          "velocity": 1
        },
        {
          "duration": 0.4868283919999925,
          "durationTicks": 998,
          "midi": 39,
          "name": "D#2",
          "ticks": 207000,
          "time": 100.97542800000001,
          "velocity": 1
        },
        {
          "duration": 0.487803999999997,
          "durationTicks": 1000,
          "midi": 46,
          "name": "A#2",
          "ticks": 208000,
          "time": 101.463232,
          "velocity": 1
        },
        {
          "duration": 0.487803999999997,
          "durationTicks": 1000,
          "midi": 39,
          "name": "D#2",
          "ticks": 209000,
          "time": 101.951036,
          "velocity": 1
        },
        {
          "duration": 0.12195100000000991,
          "durationTicks": 250,
          "midi": 44,
          "name": "G#2",
          "ticks": 210000,
          "time": 102.43884,
          "velocity": 1
        },
        {
          "duration": 0.1219509999999957,
          "durationTicks": 250,
          "midi": 46,
          "name": "A#2",
          "ticks": 210250,
          "time": 102.56079100000001,
          "velocity": 1
        },
        {
          "duration": 0.24390200000000561,
          "durationTicks": 500,
          "midi": 46,
          "name": "A#2",
          "ticks": 210500,
          "time": 102.682742,
          "velocity": 1
        },
        {
          "duration": 0.4868283919999925,
          "durationTicks": 998,
          "midi": 39,
          "name": "D#2",
          "ticks": 211000,
          "time": 102.92664400000001,
          "velocity": 1
        },
        {
          "duration": 0.487803999999997,
          "durationTicks": 1000,
          "midi": 46,
          "name": "A#2",
          "ticks": 212000,
          "time": 103.41444800000001,
          "velocity": 1
        },
        {
          "duration": 0.487803999999997,
          "durationTicks": 1000,
          "midi": 39,
          "name": "D#2",
          "ticks": 213000,
          "time": 103.902252,
          "velocity": 1
        },
        {
          "duration": 0.1219509999999957,
          "durationTicks": 250,
          "midi": 44,
          "name": "G#2",
          "ticks": 214000,
          "time": 104.390056,
          "velocity": 1
        },
        {
          "duration": 0.12195100000000991,
          "durationTicks": 250,
          "midi": 46,
          "name": "A#2",
          "ticks": 214250,
          "time": 104.512007,
          "velocity": 1
        },
        {
          "duration": 0.2439019999999914,
          "durationTicks": 500,
          "midi": 46,
          "name": "A#2",
          "ticks": 214500,
          "time": 104.633958,
          "velocity": 1
        },
        {
          "duration": 0.4868283920000067,
          "durationTicks": 998,
          "midi": 39,
          "name": "D#2",
          "ticks": 215000,
          "time": 104.87786,
          "velocity": 1
        },
        {
          "duration": 0.487803999999997,
          "durationTicks": 1000,
          "midi": 46,
          "name": "A#2",
          "ticks": 216000,
          "time": 105.36566400000001,
          "velocity": 1
        },
        {
          "duration": 0.487803999999997,
          "durationTicks": 1000,
          "midi": 39,
          "name": "D#2",
          "ticks": 217000,
          "time": 105.853468,
          "velocity": 1
        },
        {
          "duration": 0.1219509999999957,
          "durationTicks": 250,
          "midi": 44,
          "name": "G#2",
          "ticks": 218000,
          "time": 106.341272,
          "velocity": 1
        },
        {
          "duration": 0.12195100000000991,
          "durationTicks": 250,
          "midi": 46,
          "name": "A#2",
          "ticks": 218250,
          "time": 106.463223,
          "velocity": 1
        },
        {
          "duration": 0.2439019999999914,
          "durationTicks": 500,
          "midi": 46,
          "name": "A#2",
          "ticks": 218500,
          "time": 106.58517400000001,
          "velocity": 1
        },
        {
          "duration": 0.4868283919999925,
          "durationTicks": 998,
          "midi": 39,
          "name": "D#2",
          "ticks": 219000,
          "time": 106.829076,
          "velocity": 1
        },
        {
          "duration": 0.48780400000001123,
          "durationTicks": 1000,
          "midi": 46,
          "name": "A#2",
          "ticks": 220000,
          "time": 107.31688,
          "velocity": 1
        },
        {
          "duration": 0.487803999999997,
          "durationTicks": 1000,
          "midi": 39,
          "name": "D#2",
          "ticks": 221000,
          "time": 107.80468400000001,
          "velocity": 1
        },
        {
          "duration": 0.1219509999999957,
          "durationTicks": 250,
          "midi": 44,
          "name": "G#2",
          "ticks": 222000,
          "time": 108.292488,
          "velocity": 1
        },
        {
          "duration": 0.1219509999999957,
          "durationTicks": 250,
          "midi": 46,
          "name": "A#2",
          "ticks": 222250,
          "time": 108.414439,
          "velocity": 1
        },
        {
          "duration": 0.24390200000000561,
          "durationTicks": 500,
          "midi": 46,
          "name": "A#2",
          "ticks": 222500,
          "time": 108.53639,
          "velocity": 1
        },
        {
          "duration": 0.4868283919999925,
          "durationTicks": 998,
          "midi": 39,
          "name": "D#2",
          "ticks": 223000,
          "time": 108.780292,
          "velocity": 1
        },
        {
          "duration": 0.487803999999997,
          "durationTicks": 1000,
          "midi": 46,
          "name": "A#2",
          "ticks": 224000,
          "time": 109.268096,
          "velocity": 1
        },
        {
          "duration": 0.48780400000001123,
          "durationTicks": 1000,
          "midi": 39,
          "name": "D#2",
          "ticks": 225000,
          "time": 109.7559,
          "velocity": 1
        },
        {
          "duration": 0.1219509999999957,
          "durationTicks": 250,
          "midi": 44,
          "name": "G#2",
          "ticks": 226000,
          "time": 110.24370400000001,
          "velocity": 1
        },
        {
          "duration": 0.1219509999999957,
          "durationTicks": 250,
          "midi": 46,
          "name": "A#2",
          "ticks": 226250,
          "time": 110.365655,
          "velocity": 1
        },
        {
          "duration": 0.24390200000000561,
          "durationTicks": 500,
          "midi": 46,
          "name": "A#2",
          "ticks": 226500,
          "time": 110.487606,
          "velocity": 1
        },
        {
          "duration": 0.4868283919999925,
          "durationTicks": 998,
          "midi": 39,
          "name": "D#2",
          "ticks": 227000,
          "time": 110.731508,
          "velocity": 1
        },
        {
          "duration": 0.487803999999997,
          "durationTicks": 1000,
          "midi": 46,
          "name": "A#2",
          "ticks": 228000,
          "time": 111.219312,
          "velocity": 1
        },
        {
          "duration": 0.48780400000001123,
          "durationTicks": 1000,
          "midi": 39,
          "name": "D#2",
          "ticks": 229000,
          "time": 111.707116,
          "velocity": 1
        },
        {
          "duration": 0.1219509999999957,
          "durationTicks": 250,
          "midi": 44,
          "name": "G#2",
          "ticks": 230000,
          "time": 112.19492000000001,
          "velocity": 1
        },
        {
          "duration": 0.1219509999999957,
          "durationTicks": 250,
          "midi": 46,
          "name": "A#2",
          "ticks": 230250,
          "time": 112.316871,
          "velocity": 1
        },
        {
          "duration": 0.24390200000000561,
          "durationTicks": 500,
          "midi": 46,
          "name": "A#2",
          "ticks": 230500,
          "time": 112.438822,
          "velocity": 1
        },
        {
          "duration": 0.4868283919999925,
          "durationTicks": 998,
          "midi": 39,
          "name": "D#2",
          "ticks": 231000,
          "time": 112.68272400000001,
          "velocity": 1
        },
        {
          "duration": 0.487803999999997,
          "durationTicks": 1000,
          "midi": 46,
          "name": "A#2",
          "ticks": 232000,
          "time": 113.170528,
          "velocity": 1
        },
        {
          "duration": 0.487803999999997,
          "durationTicks": 1000,
          "midi": 39,
          "name": "D#2",
          "ticks": 233000,
          "time": 113.658332,
          "velocity": 1
        },
        {
          "duration": 0.12195100000000991,
          "durationTicks": 250,
          "midi": 44,
          "name": "G#2",
          "ticks": 234000,
          "time": 114.146136,
          "velocity": 1
        },
        {
          "duration": 0.1219509999999957,
          "durationTicks": 250,
          "midi": 46,
          "name": "A#2",
          "ticks": 234250,
          "time": 114.26808700000001,
          "velocity": 1
        },
        {
          "duration": 0.24390200000000561,
          "durationTicks": 500,
          "midi": 46,
          "name": "A#2",
          "ticks": 234500,
          "time": 114.390038,
          "velocity": 1
        },
        {
          "duration": 0.4868283919999925,
          "durationTicks": 998,
          "midi": 39,
          "name": "D#2",
          "ticks": 235000,
          "time": 114.63394000000001,
          "velocity": 1
        },
        {
          "duration": 0.487803999999997,
          "durationTicks": 1000,
          "midi": 46,
          "name": "A#2",
          "ticks": 236000,
          "time": 115.121744,
          "velocity": 1
        },
        {
          "duration": 0.487803999999997,
          "durationTicks": 1000,
          "midi": 39,
          "name": "D#2",
          "ticks": 237000,
          "time": 115.609548,
          "velocity": 1
        },
        {
          "duration": 0.12195100000000991,
          "durationTicks": 250,
          "midi": 44,
          "name": "G#2",
          "ticks": 238000,
          "time": 116.097352,
          "velocity": 1
        },
        {
          "duration": 0.1219509999999957,
          "durationTicks": 250,
          "midi": 46,
          "name": "A#2",
          "ticks": 238250,
          "time": 116.21930300000001,
          "velocity": 1
        },
        {
          "duration": 0.2439019999999914,
          "durationTicks": 500,
          "midi": 46,
          "name": "A#2",
          "ticks": 238500,
          "time": 116.341254,
          "velocity": 1
        },
        {
          "duration": 0.4868283920000067,
          "durationTicks": 998,
          "midi": 39,
          "name": "D#2",
          "ticks": 239000,
          "time": 116.585156,
          "velocity": 1
        },
        {
          "duration": 0.487803999999997,
          "durationTicks": 1000,
          "midi": 46,
          "name": "A#2",
          "ticks": 240000,
          "time": 117.07296000000001,
          "velocity": 1
        },
        {
          "duration": 0.487803999999997,
          "durationTicks": 1000,
          "midi": 39,
          "name": "D#2",
          "ticks": 241000,
          "time": 117.560764,
          "velocity": 1
        },
        {
          "duration": 0.1219509999999957,
          "durationTicks": 250,
          "midi": 44,
          "name": "G#2",
          "ticks": 242000,
          "time": 118.048568,
          "velocity": 1
        },
        {
          "duration": 0.12195100000000991,
          "durationTicks": 250,
          "midi": 46,
          "name": "A#2",
          "ticks": 242250,
          "time": 118.170519,
          "velocity": 1
        },
        {
          "duration": 0.2439019999999914,
          "durationTicks": 500,
          "midi": 46,
          "name": "A#2",
          "ticks": 242500,
          "time": 118.29247000000001,
          "velocity": 1
        },
        {
          "duration": 0.4868283919999925,
          "durationTicks": 998,
          "midi": 39,
          "name": "D#2",
          "ticks": 243000,
          "time": 118.536372,
          "velocity": 1
        },
        {
          "duration": 0.48780400000001123,
          "durationTicks": 1000,
          "midi": 46,
          "name": "A#2",
          "ticks": 244000,
          "time": 119.024176,
          "velocity": 1
        },
        {
          "duration": 0.487803999999997,
          "durationTicks": 1000,
          "midi": 39,
          "name": "D#2",
          "ticks": 245000,
          "time": 119.51198000000001,
          "velocity": 1
        },
        {
          "duration": 0.1219509999999957,
          "durationTicks": 250,
          "midi": 44,
          "name": "G#2",
          "ticks": 246000,
          "time": 119.999784,
          "velocity": 1
        },
        {
          "duration": 0.1219509999999957,
          "durationTicks": 250,
          "midi": 46,
          "name": "A#2",
          "ticks": 246250,
          "time": 120.121735,
          "velocity": 1
        },
        {
          "duration": 0.24390200000000561,
          "durationTicks": 500,
          "midi": 46,
          "name": "A#2",
          "ticks": 246500,
          "time": 120.243686,
          "velocity": 1
        },
        {
          "duration": 0.4868283919999925,
          "durationTicks": 998,
          "midi": 39,
          "name": "D#2",
          "ticks": 247000,
          "time": 120.487588,
          "velocity": 1
        },
        {
          "duration": 0.48780400000001123,
          "durationTicks": 1000,
          "midi": 46,
          "name": "A#2",
          "ticks": 248000,
          "time": 120.975392,
          "velocity": 1
        },
        {
          "duration": 0.487803999999997,
          "durationTicks": 1000,
          "midi": 39,
          "name": "D#2",
          "ticks": 249000,
          "time": 121.46319600000001,
          "velocity": 1
        },
        {
          "duration": 0.1219509999999957,
          "durationTicks": 250,
          "midi": 44,
          "name": "G#2",
          "ticks": 250000,
          "time": 121.95100000000001,
          "velocity": 1
        },
        {
          "duration": 0.1219509999999957,
          "durationTicks": 250,
          "midi": 46,
          "name": "A#2",
          "ticks": 250250,
          "time": 122.072951,
          "velocity": 1
        },
        {
          "duration": 0.24390200000000561,
          "durationTicks": 500,
          "midi": 46,
          "name": "A#2",
          "ticks": 250500,
          "time": 122.194902,
          "velocity": 1
        },
        {
          "duration": 0.4868283919999925,
          "durationTicks": 998,
          "midi": 39,
          "name": "D#2",
          "ticks": 251000,
          "time": 122.438804,
          "velocity": 1
        },
        {
          "duration": 0.487803999999997,
          "durationTicks": 1000,
          "midi": 46,
          "name": "A#2",
          "ticks": 252000,
          "time": 122.926608,
          "velocity": 1
        },
        {
          "duration": 0.48780400000001123,
          "durationTicks": 1000,
          "midi": 39,
          "name": "D#2",
          "ticks": 253000,
          "time": 123.414412,
          "velocity": 1
        },
        {
          "duration": 0.1219509999999957,
          "durationTicks": 250,
          "midi": 44,
          "name": "G#2",
          "ticks": 254000,
          "time": 123.90221600000001,
          "velocity": 1
        },
        {
          "duration": 0.1219509999999957,
          "durationTicks": 250,
          "midi": 46,
          "name": "A#2",
          "ticks": 254250,
          "time": 124.024167,
          "velocity": 1
        },
        {
          "duration": 0.24390200000000561,
          "durationTicks": 500,
          "midi": 46,
          "name": "A#2",
          "ticks": 254500,
          "time": 124.146118,
          "velocity": 1
        },
        {
          "duration": 0.4868283919999925,
          "durationTicks": 998,
          "midi": 39,
          "name": "D#2",
          "ticks": 255000,
          "time": 124.39002,
          "velocity": 1
        }
      ],
      "endOfTrackTicks": 255998
    }
  ]
}