{
  "header": {
    "keySignatures": [
      {
        "key": "G",
        "scale": "major",
        "ticks": 0
      }
    ],
    "meta": {
      "title": "Feel This Moment",
      "artist": "Pitbull ft. Christina Aguilera",
      "creator": "Midi Hits"
    },
    "originalMeta": [
      {
        "text": "Feel This Moment",
        "ticks": 0,
        "type": "marker"
      },
      {
        "text": "© Midi Hits",
        "ticks": 9600,
        "type": "marker"
      }
    ],
    "name": "",
    "ppq": 120,
    "tempos": [
      {
        "bpm": 136.0001450668214,
        "ticks": 0
      }
    ],
    "timeSignatures": [
      {
        "ticks": 0,
        "timeSignature": [
          4,
          4
        ],
        "measures": 0
      }
    ]
  },
  "tracks": [
    {
      "channel": 3,
      "controlChanges": {
        "1": [
          {
            "number": 1,
            "ticks": 182,
            "time": 0.6691169333333333,
            "value": 0
          }
        ],
        "7": [
          {
            "number": 7,
            "ticks": 0,
            "time": 0,
            "value": 0.84251968503937
          }
        ],
        "10": [
          {
            "number": 10,
            "ticks": 0,
            "time": 0,
            "value": 0.5039370078740157
          }
        ],
        "11": [
          {
            "number": 11,
            "ticks": 157,
            "time": 0.5772052666666667,
            "value": 1
          }
        ],
        "64": [
          {
            "number": 64,
            "ticks": 193,
            "time": 0.7095580666666668,
            "value": 0
          }
        ],
        "76": [
          {
            "number": 76,
            "ticks": 218,
            "time": 0.8014697333333334,
            "value": 0.5511811023622047
          }
        ],
        "77": [
          {
            "number": 77,
            "ticks": 240,
            "time": 0.882352,
            "value": 0.5511811023622047
          }
        ],
        "78": [
          {
            "number": 78,
            "ticks": 265,
            "time": 0.9742636666666667,
            "value": 0.5826771653543307
          }
        ],
        "91": [
          {
            "number": 91,
            "ticks": 13,
            "time": 0.04779406666666667,
            "value": 0.47244094488188976
          }
        ],
        "93": [
          {
            "number": 93,
            "ticks": 120,
            "time": 0.441176,
            "value": 0.23622047244094488
          }
        ],
        "94": [
          {
            "number": 94,
            "ticks": 136,
            "time": 0.49999946666666667,
            "value": 0.15748031496062992
          }
        ],
        "121": [
          {
            "number": 121,
            "ticks": 0,
            "time": 0,
            "value": 0
          }
        ]
      },
      "pitchBends": [
        {
          "ticks": 203,
          "time": 0.7463227333333333,
          "value": 0
        }
      ],
      "instrument": {
        "family": "reed",
        "number": 64,
        "name": "soprano sax"
      },
      "name": "Vocal",
      "notes": [
        {
          "duration": 0.22058799999999978,
          "durationTicks": 60,
          "midi": 52,
          "name": "E3",
          "ticks": 600,
          "time": 2.20588,
          "velocity": 0.8661417322834646
        },
        {
          "duration": 0.14705866666666667,
          "durationTicks": 40,
          "midi": 52,
          "name": "E3",
          "ticks": 671,
          "time": 2.4669091333333335,
          "velocity": 0.8346456692913385
        },
        {
          "duration": 0.13970573333333336,
          "durationTicks": 38,
          "midi": 52,
          "name": "E3",
          "ticks": 720,
          "time": 2.647056,
          "velocity": 0.8346456692913385
        },
        {
          "duration": 0.1617645333333333,
          "durationTicks": 44,
          "midi": 52,
          "name": "E3",
          "ticks": 765,
          "time": 2.812497,
          "velocity": 0.8661417322834646
        },
        {
          "duration": 0.18749979999999988,
          "durationTicks": 51,
          "midi": 50,
          "name": "D3",
          "ticks": 1020,
          "time": 3.7499960000000003,
          "velocity": 0.8661417322834646
        },
        {
          "duration": 0.2352938666666664,
          "durationTicks": 64,
          "midi": 50,
          "name": "D3",
          "ticks": 1080,
          "time": 3.970584,
          "velocity": 0.8503937007874016
        },
        {
          "duration": 0.14705866666666711,
          "durationTicks": 40,
          "midi": 50,
          "name": "D3",
          "ticks": 1153,
          "time": 4.238966066666666,
          "velocity": 0.8661417322834646
        },
        {
          "duration": 0.44117599999999957,
          "durationTicks": 120,
          "midi": 50,
          "name": "D3",
          "ticks": 1200,
          "time": 4.41176,
          "velocity": 0.8661417322834646
        },
        {
          "duration": 0.3088231999999991,
          "durationTicks": 84,
          "midi": 50,
          "name": "D3",
          "ticks": 1500,
          "time": 5.5147,
          "velocity": 0.8661417322834646
        },
        {
          "duration": 0.08823519999999974,
          "durationTicks": 24,
          "midi": 50,
          "name": "D3",
          "ticks": 1590,
          "time": 5.845582,
          "velocity": 0.8503937007874016
        },
        {
          "duration": 0.22058800000000023,
          "durationTicks": 60,
          "midi": 50,
          "name": "D3",
          "ticks": 1620,
          "time": 5.955876,
          "velocity": 0.8661417322834646
        },
        {
          "duration": 0.22058800000000023,
          "durationTicks": 60,
          "midi": 52,
          "name": "E3",
          "ticks": 1680,
          "time": 6.176464,
          "velocity": 0.8661417322834646
        },
        {
          "duration": 0.18749980000000033,
          "durationTicks": 51,
          "midi": 52,
          "name": "E3",
          "ticks": 1980,
          "time": 7.279404,
          "velocity": 0.8346456692913385
        },
        {
          "duration": 0.13602926666666626,
          "durationTicks": 37,
          "midi": 52,
          "name": "E3",
          "ticks": 2040,
          "time": 7.499992000000001,
          "velocity": 0.8346456692913385
        },
        {
          "duration": 0.24999973333333347,
          "durationTicks": 68,
          "midi": 52,
          "name": "E3",
          "ticks": 2085,
          "time": 7.665433,
          "velocity": 0.8503937007874016
        },
        {
          "duration": 0.44117599999999957,
          "durationTicks": 120,
          "midi": 52,
          "name": "E3",
          "ticks": 2160,
          "time": 7.941168,
          "velocity": 0.8661417322834646
        },
        {
          "duration": 0.18749980000000122,
          "durationTicks": 51,
          "midi": 52,
          "name": "E3",
          "ticks": 2478,
          "time": 9.1102844,
          "velocity": 0.8661417322834646
        },
        {
          "duration": 0.12132339999999964,
          "durationTicks": 33,
          "midi": 52,
          "name": "E3",
          "ticks": 2538,
          "time": 9.3308724,
          "velocity": 0.8661417322834646
        },
        {
          "duration": 0.1801468666666679,
          "durationTicks": 49,
          "midi": 52,
          "name": "E3",
          "ticks": 2580,
          "time": 9.485284,
          "velocity": 0.8661417322834646
        },
        {
          "duration": 0.1801468666666679,
          "durationTicks": 49,
          "midi": 52,
          "name": "E3",
          "ticks": 2640,
          "time": 9.705872,
          "velocity": 0.8661417322834646
        },
        {
          "duration": 0.22058799999999934,
          "durationTicks": 60,
          "midi": 52,
          "name": "E3",
          "ticks": 2700,
          "time": 9.92646,
          "velocity": 0.8661417322834646
        },
        {
          "duration": 0.11029399999999967,
          "durationTicks": 30,
          "midi": 50,
          "name": "D3",
          "ticks": 2910,
          "time": 10.698518,
          "velocity": 0.8110236220472441
        },
        {
          "duration": 0.22058800000000112,
          "durationTicks": 60,
          "midi": 52,
          "name": "E3",
          "ticks": 2940,
          "time": 10.808812,
          "velocity": 0.8661417322834646
        },
        {
          "duration": 0.22058799999999934,
          "durationTicks": 60,
          "midi": 54,
          "name": "F#3",
          "ticks": 3000,
          "time": 11.0294,
          "velocity": 0.8110236220472441
        },
        {
          "duration": 0.22058800000000112,
          "durationTicks": 60,
          "midi": 50,
          "name": "D3",
          "ticks": 3060,
          "time": 11.249988,
          "velocity": 0.8267716535433071
        },
        {
          "duration": 0.4411759999999987,
          "durationTicks": 120,
          "midi": 52,
          "name": "E3",
          "ticks": 3120,
          "time": 11.470576000000001,
          "velocity": 0.8661417322834646
        },
        {
          "duration": 0.18749980000000122,
          "durationTicks": 51,
          "midi": 52,
          "name": "E3",
          "ticks": 3420,
          "time": 12.573516,
          "velocity": 0.8661417322834646
        },
        {
          "duration": 0.09191166666666639,
          "durationTicks": 25,
          "midi": 50,
          "name": "D3",
          "ticks": 3480,
          "time": 12.794104,
          "velocity": 0.7952755905511811
        },
        {
          "duration": 0.08455873333333308,
          "durationTicks": 23,
          "midi": 50,
          "name": "D3",
          "ticks": 3510,
          "time": 12.904398,
          "velocity": 0.8110236220472441
        },
        {
          "duration": 0.19485273333333275,
          "durationTicks": 53,
          "midi": 50,
          "name": "D3",
          "ticks": 3540,
          "time": 13.014692,
          "velocity": 0.8661417322834646
        },
        {
          "duration": 0.19117626666666787,
          "durationTicks": 52,
          "midi": 52,
          "name": "E3",
          "ticks": 3600,
          "time": 13.23528,
          "velocity": 0.8661417322834646
        },
        {
          "duration": 0.22058799999999934,
          "durationTicks": 60,
          "midi": 50,
          "name": "D3",
          "ticks": 3660,
          "time": 13.455868,
          "velocity": 0.8661417322834646
        },
        {
          "duration": 0.18749979999999944,
          "durationTicks": 51,
          "midi": 50,
          "name": "D3",
          "ticks": 3900,
          "time": 14.33822,
          "velocity": 0.8188976377952756
        },
        {
          "duration": 0.18749979999999766,
          "durationTicks": 51,
          "midi": 50,
          "name": "D3",
          "ticks": 3960,
          "time": 14.558808,
          "velocity": 0.8661417322834646
        },
        {
          "duration": 0.18749979999999944,
          "durationTicks": 51,
          "midi": 47,
          "name": "B2",
          "ticks": 4020,
          "time": 14.779396,
          "velocity": 0.8661417322834646
        },
        {
          "duration": 0.18749979999999766,
          "durationTicks": 51,
          "midi": 47,
          "name": "B2",
          "ticks": 4080,
          "time": 14.999984000000001,
          "velocity": 0.8661417322834646
        },
        {
          "duration": 0.39338193333333216,
          "durationTicks": 107,
          "midi": 64,
          "name": "E4",
          "ticks": 4320,
          "time": 15.882336,
          "velocity": 0.8976377952755905
        },
        {
          "duration": 0.4411759999999987,
          "durationTicks": 120,
          "midi": 64,
          "name": "E4",
          "ticks": 4440,
          "time": 16.323512,
          "velocity": 0.8110236220472441
        },
        {
          "duration": 0.44117600000000223,
          "durationTicks": 120,
          "midi": 72,
          "name": "C5",
          "ticks": 4560,
          "time": 16.764688,
          "velocity": 0.8661417322834646
        },
        {
          "duration": 0.22058799999999934,
          "durationTicks": 60,
          "midi": 71,
          "name": "B4",
          "ticks": 4680,
          "time": 17.205864000000002,
          "velocity": 0.8503937007874016
        },
        {
          "duration": 0.661763999999998,
          "durationTicks": 180,
          "midi": 69,
          "name": "A4",
          "ticks": 4740,
          "time": 17.426452,
          "velocity": 0.889763779527559
        },
        {
          "duration": 0.2205880000000029,
          "durationTicks": 60,
          "midi": 67,
          "name": "G4",
          "ticks": 4920,
          "time": 18.088216,
          "velocity": 0.8267716535433071
        },
        {
          "duration": 0.661763999999998,
          "durationTicks": 180,
          "midi": 66,
          "name": "F#4",
          "ticks": 4980,
          "time": 18.308804000000002,
          "velocity": 0.8582677165354331
        },
        {
          "duration": 0.22058799999999934,
          "durationTicks": 60,
          "midi": 67,
          "name": "G4",
          "ticks": 5160,
          "time": 18.970568,
          "velocity": 0.8661417322834646
        },
        {
          "duration": 0.39338193333333393,
          "durationTicks": 107,
          "midi": 62,
          "name": "D4",
          "ticks": 5280,
          "time": 19.411744,
          "velocity": 0.8661417322834646
        },
        {
          "duration": 0.4411759999999987,
          "durationTicks": 120,
          "midi": 62,
          "name": "D4",
          "ticks": 5400,
          "time": 19.85292,
          "velocity": 0.8582677165354331
        },
        {
          "duration": 0.44117600000000223,
          "durationTicks": 120,
          "midi": 71,
          "name": "B4",
          "ticks": 5520,
          "time": 20.294096,
          "velocity": 0.84251968503937
        },
        {
          "duration": 0.22058799999999934,
          "durationTicks": 60,
          "midi": 69,
          "name": "A4",
          "ticks": 5640,
          "time": 20.735272000000002,
          "velocity": 0.8031496062992126
        },
        {
          "duration": 0.661763999999998,
          "durationTicks": 180,
          "midi": 67,
          "name": "G4",
          "ticks": 5700,
          "time": 20.95586,
          "velocity": 0.889763779527559
        },
        {
          "duration": 0.2205880000000029,
          "durationTicks": 60,
          "midi": 66,
          "name": "F#4",
          "ticks": 5880,
          "time": 21.617624,
          "velocity": 0.84251968503937
        },
        {
          "duration": 0.661763999999998,
          "durationTicks": 180,
          "midi": 64,
          "name": "E4",
          "ticks": 5940,
          "time": 21.838212000000002,
          "velocity": 0.8503937007874016
        },
        {
          "duration": 0.22058799999999934,
          "durationTicks": 60,
          "midi": 62,
          "name": "D4",
          "ticks": 6120,
          "time": 22.499976,
          "velocity": 0.8976377952755905
        },
        {
          "duration": 0.3933819333333304,
          "durationTicks": 107,
          "midi": 64,
          "name": "E4",
          "ticks": 6240,
          "time": 22.941152000000002,
          "velocity": 0.8976377952755905
        },
        {
          "duration": 0.4411759999999987,
          "durationTicks": 120,
          "midi": 64,
          "name": "E4",
          "ticks": 6360,
          "time": 23.382328,
          "velocity": 0.8976377952755905
        },
        {
          "duration": 0.44117600000000223,
          "durationTicks": 120,
          "midi": 72,
          "name": "C5",
          "ticks": 6480,
          "time": 23.823504,
          "velocity": 0.889763779527559
        },
        {
          "duration": 0.22058799999999934,
          "durationTicks": 60,
          "midi": 71,
          "name": "B4",
          "ticks": 6600,
          "time": 24.264680000000002,
          "velocity": 0.8346456692913385
        },
        {
          "duration": 0.661763999999998,
          "durationTicks": 180,
          "midi": 69,
          "name": "A4",
          "ticks": 6660,
          "time": 24.485268,
          "velocity": 0.889763779527559
        },
        {
          "duration": 0.2205880000000029,
          "durationTicks": 60,
          "midi": 67,
          "name": "G4",
          "ticks": 6840,
          "time": 25.147032,
          "velocity": 0.8267716535433071
        },
        {
          "duration": 0.661763999999998,
          "durationTicks": 180,
          "midi": 66,
          "name": "F#4",
          "ticks": 6900,
          "time": 25.367620000000002,
          "velocity": 0.889763779527559
        },
        {
          "duration": 0.22058799999999934,
          "durationTicks": 60,
          "midi": 67,
          "name": "G4",
          "ticks": 7080,
          "time": 26.029384,
          "velocity": 0.9212598425196851
        },
        {
          "duration": 0.39338193333333393,
          "durationTicks": 107,
          "midi": 62,
          "name": "D4",
          "ticks": 7200,
          "time": 26.47056,
          "velocity": 0.9133858267716536
        },
        {
          "duration": 0.4411759999999987,
          "durationTicks": 120,
          "midi": 62,
          "name": "D4",
          "ticks": 7320,
          "time": 26.911736,
          "velocity": 0.889763779527559
        },
        {
          "duration": 0.44117600000000223,
          "durationTicks": 120,
          "midi": 71,
          "name": "B4",
          "ticks": 7440,
          "time": 27.352912,
          "velocity": 0.905511811023622
        },
        {
          "duration": 0.22058799999999934,
          "durationTicks": 60,
          "midi": 69,
          "name": "A4",
          "ticks": 7560,
          "time": 27.794088000000002,
          "velocity": 0.8188976377952756
        },
        {
          "duration": 0.661763999999998,
          "durationTicks": 180,
          "midi": 67,
          "name": "G4",
          "ticks": 7620,
          "time": 28.014676,
          "velocity": 0.8976377952755905
        },
        {
          "duration": 0.44117600000000223,
          "durationTicks": 120,
          "midi": 66,
          "name": "F#4",
          "ticks": 7800,
          "time": 28.67644,
          "velocity": 0.8346456692913385
        },
        {
          "duration": 0.4411759999999987,
          "durationTicks": 120,
          "midi": 64,
          "name": "E4",
          "ticks": 7920,
          "time": 29.117616,
          "velocity": 0.8503937007874016
        },
        {
          "duration": 0.22058799999999934,
          "durationTicks": 60,
          "midi": 62,
          "name": "D4",
          "ticks": 8040,
          "time": 29.558792,
          "velocity": 0.8582677165354331
        },
        {
          "duration": 0.3933819333333375,
          "durationTicks": 107,
          "midi": 62,
          "name": "D4",
          "ticks": 9120,
          "time": 33.529376,
          "velocity": 0.9291338582677166
        },
        {
          "duration": 0.4411760000000058,
          "durationTicks": 120,
          "midi": 62,
          "name": "D4",
          "ticks": 9240,
          "time": 33.970552,
          "velocity": 0.905511811023622
        },
        {
          "duration": 0.4411759999999987,
          "durationTicks": 120,
          "midi": 71,
          "name": "B4",
          "ticks": 9360,
          "time": 34.411728000000004,
          "velocity": 0.9212598425196851
        },
        {
          "duration": 0.22058799999999934,
          "durationTicks": 60,
          "midi": 69,
          "name": "A4",
          "ticks": 9480,
          "time": 34.852904,
          "velocity": 0.8582677165354331
        },
        {
          "duration": 0.661763999999998,
          "durationTicks": 180,
          "midi": 67,
          "name": "G4",
          "ticks": 9540,
          "time": 35.073492,
          "velocity": 0.9212598425196851
        },
        {
          "duration": 0.4411759999999987,
          "durationTicks": 120,
          "midi": 66,
          "name": "F#4",
          "ticks": 9720,
          "time": 35.735256,
          "velocity": 0.8818897637795275
        },
        {
          "duration": 0.4411760000000058,
          "durationTicks": 120,
          "midi": 64,
          "name": "E4",
          "ticks": 9840,
          "time": 36.176432,
          "velocity": 0.8503937007874016
        },
        {
          "duration": 0.22058799999999934,
          "durationTicks": 60,
          "midi": 62,
          "name": "D4",
          "ticks": 9960,
          "time": 36.617608000000004,
          "velocity": 0.905511811023622
        },
        {
          "duration": 0.3933819333333375,
          "durationTicks": 107,
          "midi": 62,
          "name": "D4",
          "ticks": 11040,
          "time": 40.588192,
          "velocity": 0.9212598425196851
        },
        {
          "duration": 0.4411760000000058,
          "durationTicks": 120,
          "midi": 62,
          "name": "D4",
          "ticks": 11160,
          "time": 41.029368,
          "velocity": 0.9133858267716536
        },
        {
          "duration": 0.4411759999999987,
          "durationTicks": 120,
          "midi": 71,
          "name": "B4",
          "ticks": 11280,
          "time": 41.470544000000004,
          "velocity": 0.9133858267716536
        },
        {
          "duration": 0.22058799999999934,
          "durationTicks": 60,
          "midi": 69,
          "name": "A4",
          "ticks": 11400,
          "time": 41.91172,
          "velocity": 0.8976377952755905
        },
        {
          "duration": 0.661763999999998,
          "durationTicks": 180,
          "midi": 67,
          "name": "G4",
          "ticks": 11460,
          "time": 42.132308,
          "velocity": 0.905511811023622
        },
        {
          "duration": 0.4411759999999987,
          "durationTicks": 120,
          "midi": 66,
          "name": "F#4",
          "ticks": 11640,
          "time": 42.794072,
          "velocity": 0.8661417322834646
        },
        {
          "duration": 0.4411760000000058,
          "durationTicks": 120,
          "midi": 64,
          "name": "E4",
          "ticks": 11760,
          "time": 43.235248,
          "velocity": 0.889763779527559
        },
        {
          "duration": 0.22058799999999934,
          "durationTicks": 60,
          "midi": 62,
          "name": "D4",
          "ticks": 11880,
          "time": 43.676424000000004,
          "velocity": 0.937007874015748
        },
        {
          "duration": 0.07720579999999444,
          "durationTicks": 21,
          "midi": 62,
          "name": "D4",
          "ticks": 12720,
          "time": 46.764656,
          "velocity": 0.8740157480314961
        },
        {
          "duration": 0.07720580000000155,
          "durationTicks": 21,
          "midi": 62,
          "name": "D4",
          "ticks": 12750,
          "time": 46.87495,
          "velocity": 0.8818897637795275
        },
        {
          "duration": 0.17647039999999947,
          "durationTicks": 48,
          "midi": 62,
          "name": "D4",
          "ticks": 12780,
          "time": 46.985244,
          "velocity": 0.8740157480314961
        },
        {
          "duration": 0.4411759999999987,
          "durationTicks": 120,
          "midi": 62,
          "name": "D4",
          "ticks": 12840,
          "time": 47.205832,
          "velocity": 0.905511811023622
        },
        {
          "duration": 0.17647040000000658,
          "durationTicks": 48,
          "midi": 57,
          "name": "A3",
          "ticks": 13620,
          "time": 50.073476,
          "velocity": 0.7874015748031497
        },
        {
          "duration": 0.11029400000000322,
          "durationTicks": 30,
          "midi": 60,
          "name": "C4",
          "ticks": 13680,
          "time": 50.294064,
          "velocity": 0.8346456692913385
        },
        {
          "duration": 0.07720580000000155,
          "durationTicks": 21,
          "midi": 57,
          "name": "A3",
          "ticks": 13710,
          "time": 50.404358,
          "velocity": 0.7874015748031497
        },
        {
          "duration": 0.07720580000000155,
          "durationTicks": 21,
          "midi": 57,
          "name": "A3",
          "ticks": 13740,
          "time": 50.514652,
          "velocity": 0.7874015748031497
        },
        {
          "duration": 0.07720580000000155,
          "durationTicks": 21,
          "midi": 57,
          "name": "A3",
          "ticks": 13770,
          "time": 50.624946,
          "velocity": 0.8503937007874016
        },
        {
          "duration": 0.17647039999999947,
          "durationTicks": 48,
          "midi": 57,
          "name": "A3",
          "ticks": 13800,
          "time": 50.735240000000005,
          "velocity": 0.8582677165354331
        },
        {
          "duration": 0.17647039999999947,
          "durationTicks": 48,
          "midi": 57,
          "name": "A3",
          "ticks": 13860,
          "time": 50.955828000000004,
          "velocity": 0.8346456692913385
        },
        {
          "duration": 0.07720579999999444,
          "durationTicks": 21,
          "midi": 57,
          "name": "A3",
          "ticks": 14520,
          "time": 53.382296000000004,
          "velocity": 0.8503937007874016
        },
        {
          "duration": 0.07720580000000865,
          "durationTicks": 21,
          "midi": 57,
          "name": "A3",
          "ticks": 14560,
          "time": 53.52935466666666,
          "velocity": 0.8503937007874016
        },
        {
          "duration": 0.07720580000000155,
          "durationTicks": 21,
          "midi": 57,
          "name": "A3",
          "ticks": 14600,
          "time": 53.676413333333336,
          "velocity": 0.8503937007874016
        },
        {
          "duration": 0.20588213333333272,
          "durationTicks": 56,
          "midi": 62,
          "name": "D4",
          "ticks": 14640,
          "time": 53.823472,
          "velocity": 0.8503937007874016
        },
        {
          "duration": 0.22426446666666777,
          "durationTicks": 61,
          "midi": 57,
          "name": "A3",
          "ticks": 14700,
          "time": 54.04406,
          "velocity": 0.8503937007874016
        },
        {
          "duration": 0.3933819333333375,
          "durationTicks": 107,
          "midi": 62,
          "name": "D4",
          "ticks": 14880,
          "time": 54.705824,
          "velocity": 0.9133858267716536
        },
        {
          "duration": 0.4411760000000058,
          "durationTicks": 120,
          "midi": 62,
          "name": "D4",
          "ticks": 15000,
          "time": 55.147,
          "velocity": 0.8503937007874016
        },
        {
          "duration": 0.4411759999999987,
          "durationTicks": 120,
          "midi": 71,
          "name": "B4",
          "ticks": 15120,
          "time": 55.588176000000004,
          "velocity": 0.9133858267716536
        },
        {
          "duration": 0.22058799999999934,
          "durationTicks": 60,
          "midi": 69,
          "name": "A4",
          "ticks": 15240,
          "time": 56.029352,
          "velocity": 0.8503937007874016
        },
        {
          "duration": 0.661763999999998,
          "durationTicks": 180,
          "midi": 67,
          "name": "G4",
          "ticks": 15300,
          "time": 56.24994,
          "velocity": 0.9133858267716536
        },
        {
          "duration": 0.4411759999999987,
          "durationTicks": 120,
          "midi": 66,
          "name": "F#4",
          "ticks": 15480,
          "time": 56.911704,
          "velocity": 0.9133858267716536
        },
        {
          "duration": 0.4411760000000058,
          "durationTicks": 120,
          "midi": 64,
          "name": "E4",
          "ticks": 15600,
          "time": 57.35288,
          "velocity": 0.9133858267716536
        },
        {
          "duration": 0.40073486666666014,
          "durationTicks": 109,
          "midi": 62,
          "name": "D4",
          "ticks": 15720,
          "time": 57.794056000000005,
          "velocity": 0.8740157480314961
        },
        {
          "duration": 0.21323506666666248,
          "durationTicks": 58,
          "midi": 74,
          "name": "D5",
          "ticks": 16680,
          "time": 61.323464,
          "velocity": 0.8661417322834646
        },
        {
          "duration": 0.21323506666666248,
          "durationTicks": 58,
          "midi": 74,
          "name": "D5",
          "ticks": 16800,
          "time": 61.76464,
          "velocity": 0.7244094488188977
        },
        {
          "duration": 0.21323506666666248,
          "durationTicks": 58,
          "midi": 74,
          "name": "D5",
          "ticks": 16920,
          "time": 62.205816,
          "velocity": 0.5511811023622047
        },
        {
          "duration": 0.29411733333333245,
          "durationTicks": 80,
          "midi": 48,
          "name": "C3",
          "ticks": 19200,
          "time": 70.58816,
          "velocity": 0.8661417322834646
        },
        {
          "duration": 0.29411733333333245,
          "durationTicks": 80,
          "midi": 48,
          "name": "C3",
          "ticks": 19320,
          "time": 71.029336,
          "velocity": 0.8661417322834646
        },
        {
          "duration": 0.29411733333333245,
          "durationTicks": 80,
          "midi": 47,
          "name": "B2",
          "ticks": 19440,
          "time": 71.470512,
          "velocity": 0.8661417322834646
        },
        {
          "duration": 0.29411733333333245,
          "durationTicks": 80,
          "midi": 40,
          "name": "E2",
          "ticks": 19560,
          "time": 71.911688,
          "velocity": 0.8661417322834646
        },
        {
          "duration": 0.07720580000000155,
          "durationTicks": 21,
          "midi": 59,
          "name": "B3",
          "ticks": 19770,
          "time": 72.683746,
          "velocity": 0.8110236220472441
        },
        {
          "duration": 0.19485273333333453,
          "durationTicks": 53,
          "midi": 59,
          "name": "B3",
          "ticks": 19800,
          "time": 72.79404,
          "velocity": 0.8661417322834646
        },
        {
          "duration": 0.08823519999999974,
          "durationTicks": 24,
          "midi": 59,
          "name": "B3",
          "ticks": 19860,
          "time": 73.014628,
          "velocity": 0.8188976377952756
        },
        {
          "duration": 0.33088200000000256,
          "durationTicks": 90,
          "midi": 59,
          "name": "B3",
          "ticks": 19890,
          "time": 73.124922,
          "velocity": 0.8661417322834646
        },
        {
          "duration": 0.08455873333333841,
          "durationTicks": 23,
          "midi": 59,
          "name": "B3",
          "ticks": 20100,
          "time": 73.89698,
          "velocity": 0.8031496062992126
        },
        {
          "duration": 0.08455873333333841,
          "durationTicks": 23,
          "midi": 59,
          "name": "B3",
          "ticks": 20130,
          "time": 74.007274,
          "velocity": 0.8661417322834646
        },
        {
          "duration": 0.0845587333333242,
          "durationTicks": 23,
          "midi": 59,
          "name": "B3",
          "ticks": 20160,
          "time": 74.117568,
          "velocity": 0.8188976377952756
        },
        {
          "duration": 0.19485273333333453,
          "durationTicks": 53,
          "midi": 59,
          "name": "B3",
          "ticks": 20190,
          "time": 74.227862,
          "velocity": 0.8661417322834646
        },
        {
          "duration": 0.19485273333332032,
          "durationTicks": 53,
          "midi": 59,
          "name": "B3",
          "ticks": 20250,
          "time": 74.44845000000001,
          "velocity": 0.8661417322834646
        },
        {
          "duration": 0.08455873333333841,
          "durationTicks": 23,
          "midi": 59,
          "name": "B3",
          "ticks": 20310,
          "time": 74.669038,
          "velocity": 0.8031496062992126
        },
        {
          "duration": 0.19485273333333453,
          "durationTicks": 53,
          "midi": 59,
          "name": "B3",
          "ticks": 20340,
          "time": 74.779332,
          "velocity": 0.8188976377952756
        },
        {
          "duration": 0.19485273333333453,
          "durationTicks": 53,
          "midi": 60,
          "name": "C4",
          "ticks": 20400,
          "time": 74.99992,
          "velocity": 0.8661417322834646
        },
        {
          "duration": 0.08455873333333841,
          "durationTicks": 23,
          "midi": 59,
          "name": "B3",
          "ticks": 20460,
          "time": 75.220508,
          "velocity": 0.7952755905511811
        },
        {
          "duration": 0.19485273333333453,
          "durationTicks": 53,
          "midi": 60,
          "name": "C4",
          "ticks": 20490,
          "time": 75.330802,
          "velocity": 0.8661417322834646
        },
        {
          "duration": 0.19485273333333453,
          "durationTicks": 53,
          "midi": 59,
          "name": "B3",
          "ticks": 20640,
          "time": 75.882272,
          "velocity": 0.8031496062992126
        },
        {
          "duration": 0.4191171999999881,
          "durationTicks": 114,
          "midi": 59,
          "name": "B3",
          "ticks": 20700,
          "time": 76.10286,
          "velocity": 0.8661417322834646
        },
        {
          "duration": 0.0845587333333242,
          "durationTicks": 23,
          "midi": 59,
          "name": "B3",
          "ticks": 20820,
          "time": 76.544036,
          "velocity": 0.8031496062992126
        },
        {
          "duration": 0.08455873333333841,
          "durationTicks": 23,
          "midi": 59,
          "name": "B3",
          "ticks": 20850,
          "time": 76.65433,
          "velocity": 0.8188976377952756
        },
        {
          "duration": 0.19485273333333453,
          "durationTicks": 53,
          "midi": 59,
          "name": "B3",
          "ticks": 20880,
          "time": 76.764624,
          "velocity": 0.8661417322834646
        },
        {
          "duration": 0.4191171999999881,
          "durationTicks": 114,
          "midi": 59,
          "name": "B3",
          "ticks": 20940,
          "time": 76.985212,
          "velocity": 0.8661417322834646
        },
        {
          "duration": 0.19485273333333453,
          "durationTicks": 53,
          "midi": 60,
          "name": "C4",
          "ticks": 21120,
          "time": 77.646976,
          "velocity": 0.8661417322834646
        },
        {
          "duration": 0.08455873333333841,
          "durationTicks": 23,
          "midi": 59,
          "name": "B3",
          "ticks": 21180,
          "time": 77.867564,
          "velocity": 0.7952755905511811
        },
        {
          "duration": 0.3088232000000062,
          "durationTicks": 84,
          "midi": 59,
          "name": "B3",
          "ticks": 21210,
          "time": 77.977858,
          "velocity": 0.8661417322834646
        },
        {
          "duration": 0.08455873333333841,
          "durationTicks": 23,
          "midi": 59,
          "name": "B3",
          "ticks": 21300,
          "time": 78.30874,
          "velocity": 0.7874015748031497
        },
        {
          "duration": 0.19485273333332032,
          "durationTicks": 53,
          "midi": 59,
          "name": "B3",
          "ticks": 21360,
          "time": 78.529328,
          "velocity": 0.8661417322834646
        },
        {
          "duration": 0.4191172000000023,
          "durationTicks": 114,
          "midi": 59,
          "name": "B3",
          "ticks": 21420,
          "time": 78.749916,
          "velocity": 0.8661417322834646
        },
        {
          "duration": 0.30882319999999197,
          "durationTicks": 84,
          "midi": 59,
          "name": "B3",
          "ticks": 21600,
          "time": 79.41168,
          "velocity": 0.8661417322834646
        },
        {
          "duration": 0.19485273333332032,
          "durationTicks": 53,
          "midi": 59,
          "name": "B3",
          "ticks": 21690,
          "time": 79.742562,
          "velocity": 0.8661417322834646
        },
        {
          "duration": 0.08455873333333841,
          "durationTicks": 23,
          "midi": 59,
          "name": "B3",
          "ticks": 21750,
          "time": 79.96315,
          "velocity": 0.8267716535433071
        },
        {
          "duration": 0.30882319999999197,
          "durationTicks": 84,
          "midi": 59,
          "name": "B3",
          "ticks": 21840,
          "time": 80.294032,
          "velocity": 0.8661417322834646
        },
        {
          "duration": 0.33088200000000256,
          "durationTicks": 90,
          "midi": 59,
          "name": "B3",
          "ticks": 21930,
          "time": 80.624914,
          "velocity": 0.8031496062992126
        },
        {
          "duration": 0.11029400000001033,
          "durationTicks": 30,
          "midi": 60,
          "name": "C4",
          "ticks": 22080,
          "time": 81.176384,
          "velocity": 0.8188976377952756
        },
        {
          "duration": 0.19485273333332032,
          "durationTicks": 53,
          "midi": 59,
          "name": "B3",
          "ticks": 22110,
          "time": 81.28667800000001,
          "velocity": 0.8661417322834646
        },
        {
          "duration": 0.30882319999999197,
          "durationTicks": 84,
          "midi": 59,
          "name": "B3",
          "ticks": 22170,
          "time": 81.507266,
          "velocity": 0.8661417322834646
        },
        {
          "duration": 0.19485273333333453,
          "durationTicks": 53,
          "midi": 59,
          "name": "B3",
          "ticks": 22320,
          "time": 82.058736,
          "velocity": 0.8661417322834646
        },
        {
          "duration": 0.4191171999999881,
          "durationTicks": 114,
          "midi": 59,
          "name": "B3",
          "ticks": 22380,
          "time": 82.279324,
          "velocity": 0.8661417322834646
        },
        {
          "duration": 0.19485273333333453,
          "durationTicks": 53,
          "midi": 59,
          "name": "B3",
          "ticks": 22500,
          "time": 82.7205,
          "velocity": 0.8661417322834646
        },
        {
          "duration": 0.11029399999999612,
          "durationTicks": 30,
          "midi": 59,
          "name": "B3",
          "ticks": 22560,
          "time": 82.94108800000001,
          "velocity": 0.8661417322834646
        },
        {
          "duration": 0.11029399999999612,
          "durationTicks": 30,
          "midi": 59,
          "name": "B3",
          "ticks": 22620,
          "time": 83.161676,
          "velocity": 0.8267716535433071
        },
        {
          "duration": 0.11029399999999612,
          "durationTicks": 30,
          "midi": 59,
          "name": "B3",
          "ticks": 22680,
          "time": 83.382264,
          "velocity": 0.8661417322834646
        },
        {
          "duration": 0.11029400000001033,
          "durationTicks": 30,
          "midi": 59,
          "name": "B3",
          "ticks": 22740,
          "time": 83.602852,
          "velocity": 0.8267716535433071
        },
        {
          "duration": 0.2904408666666569,
          "durationTicks": 79,
          "midi": 59,
          "name": "B3",
          "ticks": 22800,
          "time": 83.82344,
          "velocity": 0.8661417322834646
        },
        {
          "duration": 0.2904408666666569,
          "durationTicks": 79,
          "midi": 59,
          "name": "B3",
          "ticks": 22890,
          "time": 84.15432200000001,
          "velocity": 0.8661417322834646
        },
        {
          "duration": 0.19485273333333453,
          "durationTicks": 53,
          "midi": 59,
          "name": "B3",
          "ticks": 22980,
          "time": 84.485204,
          "velocity": 0.8661417322834646
        },
        {
          "duration": 0.11029399999999612,
          "durationTicks": 30,
          "midi": 59,
          "name": "B3",
          "ticks": 23040,
          "time": 84.705792,
          "velocity": 0.8661417322834646
        },
        {
          "duration": 0.11029399999999612,
          "durationTicks": 30,
          "midi": 59,
          "name": "B3",
          "ticks": 23100,
          "time": 84.92638000000001,
          "velocity": 0.8661417322834646
        },
        {
          "duration": 0.11029399999999612,
          "durationTicks": 30,
          "midi": 59,
          "name": "B3",
          "ticks": 23160,
          "time": 85.146968,
          "velocity": 0.8661417322834646
        },
        {
          "duration": 0.11029399999999612,
          "durationTicks": 30,
          "midi": 59,
          "name": "B3",
          "ticks": 23220,
          "time": 85.36755600000001,
          "velocity": 0.8661417322834646
        },
        {
          "duration": 0.2904408666666711,
          "durationTicks": 79,
          "midi": 59,
          "name": "B3",
          "ticks": 23280,
          "time": 85.588144,
          "velocity": 0.8661417322834646
        },
        {
          "duration": 0.2904408666666711,
          "durationTicks": 79,
          "midi": 59,
          "name": "B3",
          "ticks": 23370,
          "time": 85.919026,
          "velocity": 0.8661417322834646
        },
        {
          "duration": 0.07720580000000155,
          "durationTicks": 21,
          "midi": 60,
          "name": "C4",
          "ticks": 23610,
          "time": 86.801378,
          "velocity": 0.8031496062992126
        },
        {
          "duration": 0.19485273333333453,
          "durationTicks": 53,
          "midi": 60,
          "name": "C4",
          "ticks": 23640,
          "time": 86.911672,
          "velocity": 0.8661417322834646
        },
        {
          "duration": 0.4411759999999987,
          "durationTicks": 120,
          "midi": 60,
          "name": "C4",
          "ticks": 23700,
          "time": 87.13226,
          "velocity": 0.8661417322834646
        },
        {
          "duration": 0.08455873333333841,
          "durationTicks": 23,
          "midi": 59,
          "name": "B3",
          "ticks": 23850,
          "time": 87.68373,
          "velocity": 0.8110236220472441
        },
        {
          "duration": 0.0845587333333242,
          "durationTicks": 23,
          "midi": 59,
          "name": "B3",
          "ticks": 23880,
          "time": 87.79402400000001,
          "velocity": 0.8110236220472441
        },
        {
          "duration": 0.0845587333333242,
          "durationTicks": 23,
          "midi": 59,
          "name": "B3",
          "ticks": 23910,
          "time": 87.904318,
          "velocity": 0.7874015748031497
        },
        {
          "duration": 0.10294106666665925,
          "durationTicks": 28,
          "midi": 59,
          "name": "B3",
          "ticks": 23940,
          "time": 88.014612,
          "velocity": 0.8661417322834646
        },
        {
          "duration": 0.10294106666667346,
          "durationTicks": 28,
          "midi": 59,
          "name": "B3",
          "ticks": 23970,
          "time": 88.124906,
          "velocity": 0.7795275590551181
        },
        {
          "duration": 0.19485273333333453,
          "durationTicks": 53,
          "midi": 59,
          "name": "B3",
          "ticks": 24000,
          "time": 88.2352,
          "velocity": 0.8661417322834646
        },
        {
          "duration": 0.19485273333333453,
          "durationTicks": 53,
          "midi": 59,
          "name": "B3",
          "ticks": 24060,
          "time": 88.455788,
          "velocity": 0.8661417322834646
        },
        {
          "duration": 0.4411759999999987,
          "durationTicks": 120,
          "midi": 59,
          "name": "B3",
          "ticks": 24120,
          "time": 88.676376,
          "velocity": 0.8661417322834646
        },
        {
          "duration": 0.19485273333333453,
          "durationTicks": 53,
          "midi": 57,
          "name": "A3",
          "ticks": 24240,
          "time": 89.117552,
          "velocity": 0.8661417322834646
        },
        {
          "duration": 0.19852919999999585,
          "durationTicks": 54,
          "midi": 59,
          "name": "B3",
          "ticks": 24300,
          "time": 89.33814,
          "velocity": 0.8661417322834646
        },
        {
          "duration": 0.19485273333333453,
          "durationTicks": 53,
          "midi": 59,
          "name": "B3",
          "ticks": 24360,
          "time": 89.558728,
          "velocity": 0.8661417322834646
        },
        {
          "duration": 0.12132339999999431,
          "durationTicks": 33,
          "midi": 59,
          "name": "B3",
          "ticks": 24560,
          "time": 90.29402133333333,
          "velocity": 0.7716535433070866
        },
        {
          "duration": 0.12132340000000852,
          "durationTicks": 33,
          "midi": 59,
          "name": "B3",
          "ticks": 24600,
          "time": 90.44108,
          "velocity": 0.8661417322834646
        },
        {
          "duration": 0.11397046666665744,
          "durationTicks": 31,
          "midi": 59,
          "name": "B3",
          "ticks": 24640,
          "time": 90.58813866666668,
          "velocity": 0.8031496062992126
        },
        {
          "duration": 0.2610291333333379,
          "durationTicks": 71,
          "midi": 59,
          "name": "B3",
          "ticks": 24680,
          "time": 90.73519733333333,
          "velocity": 0.8661417322834646
        },
        {
          "duration": 0.19485273333332032,
          "durationTicks": 53,
          "midi": 59,
          "name": "B3",
          "ticks": 24760,
          "time": 91.02931466666668,
          "velocity": 0.8661417322834646
        },
        {
          "duration": 0.0845587333333242,
          "durationTicks": 23,
          "midi": 59,
          "name": "B3",
          "ticks": 24900,
          "time": 91.54402,
          "velocity": 0.8031496062992126
        },
        {
          "duration": 0.08455873333333841,
          "durationTicks": 23,
          "midi": 59,
          "name": "B3",
          "ticks": 24930,
          "time": 91.654314,
          "velocity": 0.8031496062992126
        },
        {
          "duration": 0.10294106666665925,
          "durationTicks": 28,
          "midi": 60,
          "name": "C4",
          "ticks": 24960,
          "time": 91.76460800000001,
          "velocity": 0.8661417322834646
        },
        {
          "duration": 0.10294106666665925,
          "durationTicks": 28,
          "midi": 60,
          "name": "C4",
          "ticks": 24990,
          "time": 91.874902,
          "velocity": 0.8661417322834646
        },
        {
          "duration": 0.08455873333333841,
          "durationTicks": 23,
          "midi": 59,
          "name": "B3",
          "ticks": 25020,
          "time": 91.985196,
          "velocity": 0.7952755905511811
        },
        {
          "duration": 0.11029400000001033,
          "durationTicks": 30,
          "midi": 59,
          "name": "B3",
          "ticks": 25050,
          "time": 92.09549,
          "velocity": 0.7952755905511811
        },
        {
          "duration": 0.19852919999999585,
          "durationTicks": 54,
          "midi": 60,
          "name": "C4",
          "ticks": 25080,
          "time": 92.20578400000001,
          "velocity": 0.8661417322834646
        },
        {
          "duration": 0.08455873333333841,
          "durationTicks": 23,
          "midi": 59,
          "name": "B3",
          "ticks": 25140,
          "time": 92.426372,
          "velocity": 0.7952755905511811
        },
        {
          "duration": 0.08455873333333841,
          "durationTicks": 23,
          "midi": 59,
          "name": "B3",
          "ticks": 25170,
          "time": 92.536666,
          "velocity": 0.8110236220472441
        },
        {
          "duration": 0.19485273333332032,
          "durationTicks": 53,
          "midi": 59,
          "name": "B3",
          "ticks": 25200,
          "time": 92.64696,
          "velocity": 0.8661417322834646
        },
        {
          "duration": 0.19485273333333453,
          "durationTicks": 53,
          "midi": 59,
          "name": "B3",
          "ticks": 25260,
          "time": 92.867548,
          "velocity": 0.8661417322834646
        },
        {
          "duration": 0.33088200000000256,
          "durationTicks": 90,
          "midi": 59,
          "name": "B3",
          "ticks": 25320,
          "time": 93.088136,
          "velocity": 0.8661417322834646
        },
        {
          "duration": 0.11029399999999612,
          "durationTicks": 30,
          "midi": 60,
          "name": "C4",
          "ticks": 25410,
          "time": 93.41901800000001,
          "velocity": 0.84251968503937
        },
        {
          "duration": 0.19485273333333453,
          "durationTicks": 53,
          "midi": 60,
          "name": "C4",
          "ticks": 25560,
          "time": 93.970488,
          "velocity": 0.8661417322834646
        },
        {
          "duration": 0.11029399999999612,
          "durationTicks": 30,
          "midi": 59,
          "name": "B3",
          "ticks": 25620,
          "time": 94.19107600000001,
          "velocity": 0.8661417322834646
        },
        {
          "duration": 0.22058799999999223,
          "durationTicks": 60,
          "midi": 60,
          "name": "C4",
          "ticks": 25650,
          "time": 94.30137,
          "velocity": 0.8661417322834646
        },
        {
          "duration": 0.22058800000000645,
          "durationTicks": 60,
          "midi": 59,
          "name": "B3",
          "ticks": 25710,
          "time": 94.521958,
          "velocity": 0.8661417322834646
        },
        {
          "duration": 0.11029399999999612,
          "durationTicks": 30,
          "midi": 57,
          "name": "A3",
          "ticks": 25770,
          "time": 94.742546,
          "velocity": 0.8661417322834646
        },
        {
          "duration": 0.22058800000000645,
          "durationTicks": 60,
          "midi": 59,
          "name": "B3",
          "ticks": 25800,
          "time": 94.85284,
          "velocity": 0.8661417322834646
        },
        {
          "duration": 0.11029399999999612,
          "durationTicks": 30,
          "midi": 55,
          "name": "G3",
          "ticks": 25860,
          "time": 95.073428,
          "velocity": 0.7874015748031497
        },
        {
          "duration": 0.19485273333333453,
          "durationTicks": 53,
          "midi": 57,
          "name": "A3",
          "ticks": 25980,
          "time": 95.514604,
          "velocity": 0.8661417322834646
        },
        {
          "duration": 0.19852919999999585,
          "durationTicks": 54,
          "midi": 59,
          "name": "B3",
          "ticks": 26040,
          "time": 95.735192,
          "velocity": 0.8661417322834646
        },
        {
          "duration": 0.19485273333333453,
          "durationTicks": 53,
          "midi": 57,
          "name": "A3",
          "ticks": 26100,
          "time": 95.95578,
          "velocity": 0.8267716535433071
        },
        {
          "duration": 0.19485273333333453,
          "durationTicks": 53,
          "midi": 59,
          "name": "B3",
          "ticks": 26160,
          "time": 96.176368,
          "velocity": 0.8661417322834646
        },
        {
          "duration": 0.22058800000000645,
          "durationTicks": 60,
          "midi": 59,
          "name": "B3",
          "ticks": 26220,
          "time": 96.396956,
          "velocity": 0.8661417322834646
        },
        {
          "duration": 0.08823519999999974,
          "durationTicks": 24,
          "midi": 57,
          "name": "A3",
          "ticks": 26340,
          "time": 96.838132,
          "velocity": 0.7874015748031497
        },
        {
          "duration": 0.08455873333333841,
          "durationTicks": 23,
          "midi": 57,
          "name": "A3",
          "ticks": 26370,
          "time": 96.948426,
          "velocity": 0.8267716535433071
        },
        {
          "duration": 0.08823519999998553,
          "durationTicks": 24,
          "midi": 59,
          "name": "B3",
          "ticks": 26400,
          "time": 97.05872000000001,
          "velocity": 0.8661417322834646
        },
        {
          "duration": 0.08823519999999974,
          "durationTicks": 24,
          "midi": 59,
          "name": "B3",
          "ticks": 26430,
          "time": 97.169014,
          "velocity": 0.8188976377952756
        },
        {
          "duration": 0.1911762666666732,
          "durationTicks": 52,
          "midi": 59,
          "name": "B3",
          "ticks": 26460,
          "time": 97.279308,
          "velocity": 0.8661417322834646
        },
        {
          "duration": 0.191176266666659,
          "durationTicks": 52,
          "midi": 59,
          "name": "B3",
          "ticks": 26520,
          "time": 97.499896,
          "velocity": 0.8661417322834646
        },
        {
          "duration": 0.1911762666666732,
          "durationTicks": 52,
          "midi": 57,
          "name": "A3",
          "ticks": 26580,
          "time": 97.720484,
          "velocity": 0.8188976377952756
        },
        {
          "duration": 0.22058799999999223,
          "durationTicks": 60,
          "midi": 59,
          "name": "B3",
          "ticks": 26640,
          "time": 97.941072,
          "velocity": 0.8661417322834646
        },
        {
          "duration": 0.11029400000001033,
          "durationTicks": 30,
          "midi": 55,
          "name": "G3",
          "ticks": 26700,
          "time": 98.16166,
          "velocity": 0.8031496062992126
        },
        {
          "duration": 0.19485273333333453,
          "durationTicks": 53,
          "midi": 55,
          "name": "G3",
          "ticks": 26820,
          "time": 98.602836,
          "velocity": 0.8661417322834646
        },
        {
          "duration": 0.11029399999999612,
          "durationTicks": 30,
          "midi": 57,
          "name": "A3",
          "ticks": 26880,
          "time": 98.823424,
          "velocity": 0.8661417322834646
        },
        {
          "duration": 0.11029399999999612,
          "durationTicks": 30,
          "midi": 57,
          "name": "A3",
          "ticks": 26940,
          "time": 99.04401200000001,
          "velocity": 0.7874015748031497
        },
        {
          "duration": 0.11029399999999612,
          "durationTicks": 30,
          "midi": 57,
          "name": "A3",
          "ticks": 27000,
          "time": 99.2646,
          "velocity": 0.8661417322834646
        },
        {
          "duration": 0.08088226666666287,
          "durationTicks": 22,
          "midi": 55,
          "name": "G3",
          "ticks": 27060,
          "time": 99.48518800000001,
          "velocity": 0.7952755905511811
        },
        {
          "duration": 0.08088226666666287,
          "durationTicks": 22,
          "midi": 55,
          "name": "G3",
          "ticks": 27090,
          "time": 99.595482,
          "velocity": 0.8267716535433071
        },
        {
          "duration": 0.17647039999999947,
          "durationTicks": 48,
          "midi": 55,
          "name": "G3",
          "ticks": 27120,
          "time": 99.705776,
          "velocity": 0.8661417322834646
        },
        {
          "duration": 0.17647039999999947,
          "durationTicks": 48,
          "midi": 55,
          "name": "G3",
          "ticks": 27180,
          "time": 99.926364,
          "velocity": 0.8661417322834646
        },
        {
          "duration": 0.22058800000000645,
          "durationTicks": 60,
          "midi": 55,
          "name": "G3",
          "ticks": 27240,
          "time": 100.146952,
          "velocity": 0.8661417322834646
        },
        {
          "duration": 0.11029399999999612,
          "durationTicks": 30,
          "midi": 50,
          "name": "D3",
          "ticks": 27300,
          "time": 100.36754,
          "velocity": 0.8661417322834646
        },
        {
          "duration": 0.3933819333333446,
          "durationTicks": 107,
          "midi": 64,
          "name": "E4",
          "ticks": 27360,
          "time": 100.588128,
          "velocity": 0.9212598425196851
        },
        {
          "duration": 0.4411760000000129,
          "durationTicks": 120,
          "midi": 64,
          "name": "E4",
          "ticks": 27480,
          "time": 101.029304,
          "velocity": 0.9212598425196851
        },
        {
          "duration": 0.4411759999999987,
          "durationTicks": 120,
          "midi": 72,
          "name": "C5",
          "ticks": 27600,
          "time": 101.47048000000001,
          "velocity": 0.9212598425196851
        },
        {
          "duration": 0.22058799999999223,
          "durationTicks": 60,
          "midi": 71,
          "name": "B4",
          "ticks": 27720,
          "time": 101.91165600000001,
          "velocity": 0.8740157480314961
        },
        {
          "duration": 0.6617640000000051,
          "durationTicks": 180,
          "midi": 69,
          "name": "A4",
          "ticks": 27780,
          "time": 102.132244,
          "velocity": 0.9212598425196851
        },
        {
          "duration": 0.22058799999999223,
          "durationTicks": 60,
          "midi": 67,
          "name": "G4",
          "ticks": 27960,
          "time": 102.794008,
          "velocity": 0.8661417322834646
        },
        {
          "duration": 0.6617640000000051,
          "durationTicks": 180,
          "midi": 66,
          "name": "F#4",
          "ticks": 28020,
          "time": 103.014596,
          "velocity": 0.9212598425196851
        },
        {
          "duration": 0.22058800000000645,
          "durationTicks": 60,
          "midi": 67,
          "name": "G4",
          "ticks": 28200,
          "time": 103.67636,
          "velocity": 0.9133858267716536
        },
        {
          "duration": 0.3933819333333446,
          "durationTicks": 107,
          "midi": 62,
          "name": "D4",
          "ticks": 28320,
          "time": 104.117536,
          "velocity": 0.937007874015748
        },
        {
          "duration": 0.4411759999999987,
          "durationTicks": 120,
          "midi": 62,
          "name": "D4",
          "ticks": 28440,
          "time": 104.558712,
          "velocity": 0.937007874015748
        },
        {
          "duration": 0.4411759999999987,
          "durationTicks": 120,
          "midi": 71,
          "name": "B4",
          "ticks": 28560,
          "time": 104.999888,
          "velocity": 0.937007874015748
        },
        {
          "duration": 0.22058800000000645,
          "durationTicks": 60,
          "midi": 69,
          "name": "A4",
          "ticks": 28680,
          "time": 105.441064,
          "velocity": 0.937007874015748
        },
        {
          "duration": 0.6617640000000051,
          "durationTicks": 180,
          "midi": 67,
          "name": "G4",
          "ticks": 28740,
          "time": 105.661652,
          "velocity": 0.937007874015748
        },
        {
          "duration": 0.22058799999999223,
          "durationTicks": 60,
          "midi": 66,
          "name": "F#4",
          "ticks": 28920,
          "time": 106.32341600000001,
          "velocity": 0.937007874015748
        },
        {
          "duration": 0.6617640000000051,
          "durationTicks": 180,
          "midi": 64,
          "name": "E4",
          "ticks": 28980,
          "time": 106.544004,
          "velocity": 0.937007874015748
        },
        {
          "duration": 0.22058799999999223,
          "durationTicks": 60,
          "midi": 62,
          "name": "D4",
          "ticks": 29160,
          "time": 107.205768,
          "velocity": 0.937007874015748
        },
        {
          "duration": 0.3933819333333304,
          "durationTicks": 107,
          "midi": 64,
          "name": "E4",
          "ticks": 29280,
          "time": 107.646944,
          "velocity": 0.8818897637795275
        },
        {
          "duration": 0.4411759999999987,
          "durationTicks": 120,
          "midi": 64,
          "name": "E4",
          "ticks": 29400,
          "time": 108.08812,
          "velocity": 0.937007874015748
        },
        {
          "duration": 0.4411759999999987,
          "durationTicks": 120,
          "midi": 72,
          "name": "C5",
          "ticks": 29520,
          "time": 108.529296,
          "velocity": 0.937007874015748
        },
        {
          "duration": 0.22058800000000645,
          "durationTicks": 60,
          "midi": 71,
          "name": "B4",
          "ticks": 29640,
          "time": 108.970472,
          "velocity": 0.8976377952755905
        },
        {
          "duration": 0.6617639999999909,
          "durationTicks": 180,
          "midi": 69,
          "name": "A4",
          "ticks": 29700,
          "time": 109.19106000000001,
          "velocity": 0.937007874015748
        },
        {
          "duration": 0.22058800000000645,
          "durationTicks": 60,
          "midi": 67,
          "name": "G4",
          "ticks": 29880,
          "time": 109.852824,
          "velocity": 0.937007874015748
        },
        {
          "duration": 0.6617640000000051,
          "durationTicks": 180,
          "midi": 66,
          "name": "F#4",
          "ticks": 29940,
          "time": 110.073412,
          "velocity": 0.937007874015748
        },
        {
          "duration": 0.22058799999999223,
          "durationTicks": 60,
          "midi": 67,
          "name": "G4",
          "ticks": 30120,
          "time": 110.73517600000001,
          "velocity": 0.8818897637795275
        },
        {
          "duration": 0.3933819333333304,
          "durationTicks": 107,
          "midi": 62,
          "name": "D4",
          "ticks": 30240,
          "time": 111.17635200000001,
          "velocity": 0.937007874015748
        },
        {
          "duration": 0.4411759999999987,
          "durationTicks": 120,
          "midi": 62,
          "name": "D4",
          "ticks": 30360,
          "time": 111.61752800000001,
          "velocity": 0.937007874015748
        },
        {
          "duration": 0.4411759999999987,
          "durationTicks": 120,
          "midi": 71,
          "name": "B4",
          "ticks": 30480,
          "time": 112.058704,
          "velocity": 0.937007874015748
        },
        {
          "duration": 0.22058799999999223,
          "durationTicks": 60,
          "midi": 69,
          "name": "A4",
          "ticks": 30600,
          "time": 112.49988,
          "velocity": 0.8740157480314961
        },
        {
          "duration": 0.6617640000000051,
          "durationTicks": 180,
          "midi": 67,
          "name": "G4",
          "ticks": 30660,
          "time": 112.720468,
          "velocity": 0.937007874015748
        },
        {
          "duration": 0.4411759999999987,
          "durationTicks": 120,
          "midi": 66,
          "name": "F#4",
          "ticks": 30840,
          "time": 113.382232,
          "velocity": 0.968503937007874
        },
        {
          "duration": 0.4411759999999987,
          "durationTicks": 120,
          "midi": 64,
          "name": "E4",
          "ticks": 30960,
          "time": 113.823408,
          "velocity": 0.9291338582677166
        },
        {
          "duration": 0.22058800000000645,
          "durationTicks": 60,
          "midi": 62,
          "name": "D4",
          "ticks": 31080,
          "time": 114.264584,
          "velocity": 0.905511811023622
        },
        {
          "duration": 0.3933819333333304,
          "durationTicks": 107,
          "midi": 62,
          "name": "D4",
          "ticks": 32160,
          "time": 118.235168,
          "velocity": 0.9133858267716536
        },
        {
          "duration": 0.4411759999999987,
          "durationTicks": 120,
          "midi": 62,
          "name": "D4",
          "ticks": 32280,
          "time": 118.676344,
          "velocity": 0.9133858267716536
        },
        {
          "duration": 0.4411759999999987,
          "durationTicks": 120,
          "midi": 71,
          "name": "B4",
          "ticks": 32400,
          "time": 119.11752,
          "velocity": 0.9133858267716536
        },
        {
          "duration": 0.22058800000000645,
          "durationTicks": 60,
          "midi": 69,
          "name": "A4",
          "ticks": 32520,
          "time": 119.558696,
          "velocity": 0.905511811023622
        },
        {
          "duration": 0.6617640000000051,
          "durationTicks": 180,
          "midi": 67,
          "name": "G4",
          "ticks": 32580,
          "time": 119.779284,
          "velocity": 0.905511811023622
        },
        {
          "duration": 0.4411759999999987,
          "durationTicks": 120,
          "midi": 66,
          "name": "F#4",
          "ticks": 32760,
          "time": 120.44104800000001,
          "velocity": 0.905511811023622
        },
        {
          "duration": 0.4411759999999987,
          "durationTicks": 120,
          "midi": 64,
          "name": "E4",
          "ticks": 32880,
          "time": 120.88222400000001,
          "velocity": 0.9133858267716536
        },
        {
          "duration": 0.22058799999999223,
          "durationTicks": 60,
          "midi": 62,
          "name": "D4",
          "ticks": 33000,
          "time": 121.3234,
          "velocity": 0.8976377952755905
        },
        {
          "duration": 0.39338193333331617,
          "durationTicks": 107,
          "midi": 62,
          "name": "D4",
          "ticks": 34080,
          "time": 125.29398400000001,
          "velocity": 0.9291338582677166
        },
        {
          "duration": 0.4411759999999987,
          "durationTicks": 120,
          "midi": 62,
          "name": "D4",
          "ticks": 34200,
          "time": 125.73516000000001,
          "velocity": 0.9291338582677166
        },
        {
          "duration": 0.4411759999999987,
          "durationTicks": 120,
          "midi": 71,
          "name": "B4",
          "ticks": 34320,
          "time": 126.176336,
          "velocity": 0.9291338582677166
        },
        {
          "duration": 0.22058799999999223,
          "durationTicks": 60,
          "midi": 69,
          "name": "A4",
          "ticks": 34440,
          "time": 126.617512,
          "velocity": 0.8661417322834646
        },
        {
          "duration": 0.6617640000000051,
          "durationTicks": 180,
          "midi": 67,
          "name": "G4",
          "ticks": 34500,
          "time": 126.8381,
          "velocity": 0.9291338582677166
        },
        {
          "duration": 0.4411759999999987,
          "durationTicks": 120,
          "midi": 66,
          "name": "F#4",
          "ticks": 34680,
          "time": 127.499864,
          "velocity": 0.9291338582677166
        },
        {
          "duration": 0.4411759999999987,
          "durationTicks": 120,
          "midi": 64,
          "name": "E4",
          "ticks": 34800,
          "time": 127.94104,
          "velocity": 0.9291338582677166
        },
        {
          "duration": 0.22058799999999223,
          "durationTicks": 60,
          "midi": 62,
          "name": "D4",
          "ticks": 34920,
          "time": 128.382216,
          "velocity": 0.9291338582677166
        },
        {
          "duration": 0.07720580000002997,
          "durationTicks": 21,
          "midi": 64,
          "name": "E4",
          "ticks": 38280,
          "time": 140.735144,
          "velocity": 0.8267716535433071
        },
        {
          "duration": 0.20220566666665718,
          "durationTicks": 55,
          "midi": 60,
          "name": "C4",
          "ticks": 38310,
          "time": 140.845438,
          "velocity": 0.8267716535433071
        },
        {
          "duration": 0.29411733333333245,
          "durationTicks": 80,
          "midi": 48,
          "name": "C3",
          "ticks": 38400,
          "time": 141.17632,
          "velocity": 0.8661417322834646
        },
        {
          "duration": 0.29411733333333245,
          "durationTicks": 80,
          "midi": 48,
          "name": "C3",
          "ticks": 38520,
          "time": 141.61749600000002,
          "velocity": 0.8661417322834646
        },
        {
          "duration": 0.29411733333333245,
          "durationTicks": 80,
          "midi": 47,
          "name": "B2",
          "ticks": 38640,
          "time": 142.058672,
          "velocity": 0.8661417322834646
        },
        {
          "duration": 0.29411733333333245,
          "durationTicks": 80,
          "midi": 40,
          "name": "E2",
          "ticks": 38760,
          "time": 142.49984800000001,
          "velocity": 0.8661417322834646
        },
        {
          "duration": 0.07720580000000155,
          "durationTicks": 21,
          "midi": 57,
          "name": "A3",
          "ticks": 38970,
          "time": 143.271906,
          "velocity": 0.8267716535433071
        },
        {
          "duration": 0.0845587333333242,
          "durationTicks": 23,
          "midi": 60,
          "name": "C4",
          "ticks": 39000,
          "time": 143.3822,
          "velocity": 0.8661417322834646
        },
        {
          "duration": 0.08455873333335262,
          "durationTicks": 23,
          "midi": 57,
          "name": "A3",
          "ticks": 39030,
          "time": 143.492494,
          "velocity": 0.8267716535433071
        },
        {
          "duration": 0.1911762666666732,
          "durationTicks": 52,
          "midi": 60,
          "name": "C4",
          "ticks": 39060,
          "time": 143.602788,
          "velocity": 0.8661417322834646
        },
        {
          "duration": 0.22058800000002066,
          "durationTicks": 60,
          "midi": 57,
          "name": "A3",
          "ticks": 39120,
          "time": 143.823376,
          "velocity": 0.8661417322834646
        },
        {
          "duration": 0.0845587333333242,
          "durationTicks": 23,
          "midi": 57,
          "name": "A3",
          "ticks": 39210,
          "time": 144.154258,
          "velocity": 0.8031496062992126
        },
        {
          "duration": 0.0845587333333242,
          "durationTicks": 23,
          "midi": 59,
          "name": "B3",
          "ticks": 39240,
          "time": 144.264552,
          "velocity": 0.8661417322834646
        },
        {
          "duration": 0.0845587333333242,
          "durationTicks": 23,
          "midi": 59,
          "name": "B3",
          "ticks": 39300,
          "time": 144.48514,
          "velocity": 0.8031496062992126
        },
        {
          "duration": 0.0845587333333242,
          "durationTicks": 23,
          "midi": 57,
          "name": "A3",
          "ticks": 39330,
          "time": 144.595434,
          "velocity": 0.8110236220472441
        },
        {
          "duration": 0.19485273333333453,
          "durationTicks": 53,
          "midi": 59,
          "name": "B3",
          "ticks": 39360,
          "time": 144.705728,
          "velocity": 0.8661417322834646
        },
        {
          "duration": 0.0845587333333242,
          "durationTicks": 23,
          "midi": 59,
          "name": "B3",
          "ticks": 39420,
          "time": 144.926316,
          "velocity": 0.8661417322834646
        },
        {
          "duration": 0.0845587333333242,
          "durationTicks": 23,
          "midi": 59,
          "name": "B3",
          "ticks": 39480,
          "time": 145.146904,
          "velocity": 0.8661417322834646
        },
        {
          "duration": 0.0845587333333242,
          "durationTicks": 23,
          "midi": 59,
          "name": "B3",
          "ticks": 39540,
          "time": 145.367492,
          "velocity": 0.8661417322834646
        },
        {
          "duration": 0.19485273333333453,
          "durationTicks": 53,
          "midi": 59,
          "name": "B3",
          "ticks": 39600,
          "time": 145.58808,
          "velocity": 0.8661417322834646
        },
        {
          "duration": 0.0845587333333242,
          "durationTicks": 23,
          "midi": 59,
          "name": "B3",
          "ticks": 39660,
          "time": 145.808668,
          "velocity": 0.8661417322834646
        },
        {
          "duration": 0.19485273333333453,
          "durationTicks": 53,
          "midi": 55,
          "name": "G3",
          "ticks": 39720,
          "time": 146.029256,
          "velocity": 0.8661417322834646
        },
        {
          "duration": 0.08455873333335262,
          "durationTicks": 23,
          "midi": 59,
          "name": "B3",
          "ticks": 39930,
          "time": 146.801314,
          "velocity": 0.8031496062992126
        },
        {
          "duration": 0.11029400000001033,
          "durationTicks": 30,
          "midi": 59,
          "name": "B3",
          "ticks": 39960,
          "time": 146.911608,
          "velocity": 0.8661417322834646
        },
        {
          "duration": 0.19485273333333453,
          "durationTicks": 53,
          "midi": 59,
          "name": "B3",
          "ticks": 40020,
          "time": 147.132196,
          "velocity": 0.8661417322834646
        },
        {
          "duration": 0.0845587333333242,
          "durationTicks": 23,
          "midi": 59,
          "name": "B3",
          "ticks": 40080,
          "time": 147.352784,
          "velocity": 0.7952755905511811
        },
        {
          "duration": 0.08455873333335262,
          "durationTicks": 23,
          "midi": 57,
          "name": "A3",
          "ticks": 40110,
          "time": 147.463078,
          "velocity": 0.8031496062992126
        },
        {
          "duration": 0.11029400000001033,
          "durationTicks": 30,
          "midi": 59,
          "name": "B3",
          "ticks": 40140,
          "time": 147.573372,
          "velocity": 0.8661417322834646
        },
        {
          "duration": 0.0845587333333242,
          "durationTicks": 23,
          "midi": 59,
          "name": "B3",
          "ticks": 40200,
          "time": 147.79396,
          "velocity": 0.8661417322834646
        },
        {
          "duration": 0.0845587333333242,
          "durationTicks": 23,
          "midi": 59,
          "name": "B3",
          "ticks": 40230,
          "time": 147.904254,
          "velocity": 0.8661417322834646
        },
        {
          "duration": 0.11029400000001033,
          "durationTicks": 30,
          "midi": 59,
          "name": "B3",
          "ticks": 40260,
          "time": 148.014548,
          "velocity": 0.8661417322834646
        },
        {
          "duration": 0.19485273333333453,
          "durationTicks": 53,
          "midi": 55,
          "name": "G3",
          "ticks": 40320,
          "time": 148.235136,
          "velocity": 0.8110236220472441
        },
        {
          "duration": 0.0845587333333242,
          "durationTicks": 23,
          "midi": 60,
          "name": "C4",
          "ticks": 40380,
          "time": 148.455724,
          "velocity": 0.8188976377952756
        },
        {
          "duration": 0.0845587333333242,
          "durationTicks": 23,
          "midi": 60,
          "name": "C4",
          "ticks": 40410,
          "time": 148.566018,
          "velocity": 0.8661417322834646
        },
        {
          "duration": 0.19852919999999585,
          "durationTicks": 54,
          "midi": 60,
          "name": "C4",
          "ticks": 40440,
          "time": 148.676312,
          "velocity": 0.8661417322834646
        },
        {
          "duration": 0.0845587333333242,
          "durationTicks": 23,
          "midi": 60,
          "name": "C4",
          "ticks": 40500,
          "time": 148.89690000000002,
          "velocity": 0.8661417322834646
        },
        {
          "duration": 0.08455873333335262,
          "durationTicks": 23,
          "midi": 60,
          "name": "C4",
          "ticks": 40590,
          "time": 149.227782,
          "velocity": 0.8661417322834646
        },
        {
          "duration": 0.19852919999999585,
          "durationTicks": 54,
          "midi": 60,
          "name": "C4",
          "ticks": 40620,
          "time": 149.338076,
          "velocity": 0.8661417322834646
        },
        {
          "duration": 0.19852919999999585,
          "durationTicks": 54,
          "midi": 60,
          "name": "C4",
          "ticks": 40680,
          "time": 149.558664,
          "velocity": 0.8661417322834646
        },
        {
          "duration": 0.0845587333333242,
          "durationTicks": 23,
          "midi": 60,
          "name": "C4",
          "ticks": 40740,
          "time": 149.779252,
          "velocity": 0.8661417322834646
        },
        {
          "duration": 0.1102939999999819,
          "durationTicks": 30,
          "midi": 57,
          "name": "A3",
          "ticks": 40890,
          "time": 150.330722,
          "velocity": 0.8110236220472441
        },
        {
          "duration": 0.08455873333335262,
          "durationTicks": 23,
          "midi": 60,
          "name": "C4",
          "ticks": 40920,
          "time": 150.441016,
          "velocity": 0.8661417322834646
        },
        {
          "duration": 0.0845587333333242,
          "durationTicks": 23,
          "midi": 57,
          "name": "A3",
          "ticks": 40950,
          "time": 150.55131,
          "velocity": 0.8188976377952756
        },
        {
          "duration": 0.0845587333333242,
          "durationTicks": 23,
          "midi": 57,
          "name": "A3",
          "ticks": 40980,
          "time": 150.661604,
          "velocity": 0.8661417322834646
        },
        {
          "duration": 0.22058799999999223,
          "durationTicks": 60,
          "midi": 60,
          "name": "C4",
          "ticks": 41040,
          "time": 150.882192,
          "velocity": 0.8661417322834646
        },
        {
          "duration": 0.22058800000002066,
          "durationTicks": 60,
          "midi": 57,
          "name": "A3",
          "ticks": 41100,
          "time": 151.10278,
          "velocity": 0.8661417322834646
        },
        {
          "duration": 0.22058799999999223,
          "durationTicks": 60,
          "midi": 57,
          "name": "A3",
          "ticks": 41220,
          "time": 151.543956,
          "velocity": 0.8661417322834646
        },
        {
          "duration": 0.22058799999999223,
          "durationTicks": 60,
          "midi": 60,
          "name": "C4",
          "ticks": 41280,
          "time": 151.764544,
          "velocity": 0.8661417322834646
        },
        {
          "duration": 0.08455873333335262,
          "durationTicks": 23,
          "midi": 57,
          "name": "A3",
          "ticks": 41340,
          "time": 151.985132,
          "velocity": 0.7952755905511811
        },
        {
          "duration": 0.0845587333333242,
          "durationTicks": 23,
          "midi": 57,
          "name": "A3",
          "ticks": 41370,
          "time": 152.095426,
          "velocity": 0.7874015748031497
        },
        {
          "duration": 0.0845587333333242,
          "durationTicks": 23,
          "midi": 60,
          "name": "C4",
          "ticks": 41400,
          "time": 152.20572,
          "velocity": 0.8346456692913385
        },
        {
          "duration": 0.11029400000001033,
          "durationTicks": 30,
          "midi": 60,
          "name": "C4",
          "ticks": 41430,
          "time": 152.316014,
          "velocity": 0.8661417322834646
        },
        {
          "duration": 0.08823519999998553,
          "durationTicks": 24,
          "midi": 57,
          "name": "A3",
          "ticks": 41460,
          "time": 152.426308,
          "velocity": 0.8188976377952756
        },
        {
          "duration": 0.19485273333333453,
          "durationTicks": 53,
          "midi": 60,
          "name": "C4",
          "ticks": 41520,
          "time": 152.646896,
          "velocity": 0.8661417322834646
        },
        {
          "duration": 0.11029400000001033,
          "durationTicks": 30,
          "midi": 59,
          "name": "B3",
          "ticks": 41580,
          "time": 152.867484,
          "velocity": 0.8188976377952756
        },
        {
          "duration": 0.11029400000001033,
          "durationTicks": 30,
          "midi": 57,
          "name": "A3",
          "ticks": 41610,
          "time": 152.977778,
          "velocity": 0.8661417322834646
        },
        {
          "duration": 0.19852919999999585,
          "durationTicks": 54,
          "midi": 60,
          "name": "C4",
          "ticks": 41640,
          "time": 153.088072,
          "velocity": 0.8661417322834646
        },
        {
          "duration": 0.11029400000001033,
          "durationTicks": 30,
          "midi": 57,
          "name": "A3",
          "ticks": 41700,
          "time": 153.30866,
          "velocity": 0.8661417322834646
        },
        {
          "duration": 0.11029400000001033,
          "durationTicks": 30,
          "midi": 55,
          "name": "G3",
          "ticks": 41850,
          "time": 153.86013,
          "velocity": 0.8031496062992126
        },
        {
          "duration": 0.22058799999999223,
          "durationTicks": 60,
          "midi": 59,
          "name": "B3",
          "ticks": 41880,
          "time": 153.970424,
          "velocity": 0.8661417322834646
        },
        {
          "duration": 0.11029400000001033,
          "durationTicks": 30,
          "midi": 57,
          "name": "A3",
          "ticks": 41940,
          "time": 154.191012,
          "velocity": 0.8031496062992126
        },
        {
          "duration": 0.1102939999999819,
          "durationTicks": 30,
          "midi": 55,
          "name": "G3",
          "ticks": 41970,
          "time": 154.301306,
          "velocity": 0.8661417322834646
        },
        {
          "duration": 0.11029400000001033,
          "durationTicks": 30,
          "midi": 55,
          "name": "G3",
          "ticks": 42090,
          "time": 154.742482,
          "velocity": 0.7795275590551181
        },
        {
          "duration": 0.22058799999999223,
          "durationTicks": 60,
          "midi": 59,
          "name": "B3",
          "ticks": 42120,
          "time": 154.852776,
          "velocity": 0.8661417322834646
        },
        {
          "duration": 0.07720580000000155,
          "durationTicks": 21,
          "midi": 57,
          "name": "A3",
          "ticks": 42180,
          "time": 155.073364,
          "velocity": 0.7716535433070866
        },
        {
          "duration": 0.1102939999999819,
          "durationTicks": 30,
          "midi": 57,
          "name": "A3",
          "ticks": 42210,
          "time": 155.183658,
          "velocity": 0.8661417322834646
        },
        {
          "duration": 0.07720580000000155,
          "durationTicks": 21,
          "midi": 55,
          "name": "G3",
          "ticks": 42270,
          "time": 155.404246,
          "velocity": 0.8031496062992126
        },
        {
          "duration": 0.1102939999999819,
          "durationTicks": 30,
          "midi": 55,
          "name": "G3",
          "ticks": 42300,
          "time": 155.51454,
          "velocity": 0.8661417322834646
        },
        {
          "duration": 0.11029400000001033,
          "durationTicks": 30,
          "midi": 59,
          "name": "B3",
          "ticks": 42360,
          "time": 155.735128,
          "velocity": 0.8661417322834646
        },
        {
          "duration": 0.11029400000001033,
          "durationTicks": 30,
          "midi": 57,
          "name": "A3",
          "ticks": 42400,
          "time": 155.88218666666666,
          "velocity": 0.7952755905511811
        },
        {
          "duration": 0.11029400000001033,
          "durationTicks": 30,
          "midi": 55,
          "name": "G3",
          "ticks": 42440,
          "time": 156.02924533333334,
          "velocity": 0.8661417322834646
        },
        {
          "duration": 0.10661753333332058,
          "durationTicks": 29,
          "midi": 59,
          "name": "B3",
          "ticks": 42480,
          "time": 156.17630400000002,
          "velocity": 0.8661417322834646
        },
        {
          "duration": 0.10661753333332058,
          "durationTicks": 29,
          "midi": 57,
          "name": "A3",
          "ticks": 42520,
          "time": 156.32336266666667,
          "velocity": 0.8188976377952756
        },
        {
          "duration": 0.10661753333332058,
          "durationTicks": 29,
          "midi": 57,
          "name": "A3",
          "ticks": 42560,
          "time": 156.47042133333335,
          "velocity": 0.8661417322834646
        },
        {
          "duration": 0.22058799999999223,
          "durationTicks": 60,
          "midi": 59,
          "name": "B3",
          "ticks": 42600,
          "time": 156.61748,
          "velocity": 0.8661417322834646
        },
        {
          "duration": 0.11029400000001033,
          "durationTicks": 30,
          "midi": 57,
          "name": "A3",
          "ticks": 42660,
          "time": 156.838068,
          "velocity": 0.8188976377952756
        },
        {
          "duration": 0.22058799999999223,
          "durationTicks": 60,
          "midi": 57,
          "name": "A3",
          "ticks": 42780,
          "time": 157.279244,
          "velocity": 0.8661417322834646
        },
        {
          "duration": 0.19485273333333453,
          "durationTicks": 53,
          "midi": 60,
          "name": "C4",
          "ticks": 42840,
          "time": 157.499832,
          "velocity": 0.8661417322834646
        },
        {
          "duration": 0.22058799999999223,
          "durationTicks": 60,
          "midi": 57,
          "name": "A3",
          "ticks": 42900,
          "time": 157.72042000000002,
          "velocity": 0.8661417322834646
        },
        {
          "duration": 0.22058799999999223,
          "durationTicks": 60,
          "midi": 60,
          "name": "C4",
          "ticks": 42960,
          "time": 157.941008,
          "velocity": 0.8661417322834646
        },
        {
          "duration": 0.19485273333333453,
          "durationTicks": 53,
          "midi": 57,
          "name": "A3",
          "ticks": 43140,
          "time": 158.60277200000002,
          "velocity": 0.8661417322834646
        },
        {
          "duration": 0.19485273333333453,
          "durationTicks": 53,
          "midi": 59,
          "name": "B3",
          "ticks": 43200,
          "time": 158.82336,
          "velocity": 0.8661417322834646
        },
        {
          "duration": 0.11029400000001033,
          "durationTicks": 30,
          "midi": 59,
          "name": "B3",
          "ticks": 43260,
          "time": 159.043948,
          "velocity": 0.8110236220472441
        },
        {
          "duration": 0.19852919999999585,
          "durationTicks": 54,
          "midi": 59,
          "name": "B3",
          "ticks": 43320,
          "time": 159.264536,
          "velocity": 0.8661417322834646
        },
        {
          "duration": 0.0845587333333242,
          "durationTicks": 23,
          "midi": 59,
          "name": "B3",
          "ticks": 43380,
          "time": 159.485124,
          "velocity": 0.7716535433070866
        },
        {
          "duration": 0.08455873333335262,
          "durationTicks": 23,
          "midi": 59,
          "name": "B3",
          "ticks": 43410,
          "time": 159.595418,
          "velocity": 0.7716535433070866
        },
        {
          "duration": 0.19485273333333453,
          "durationTicks": 53,
          "midi": 59,
          "name": "B3",
          "ticks": 43440,
          "time": 159.705712,
          "velocity": 0.8661417322834646
        },
        {
          "duration": 0.19852919999999585,
          "durationTicks": 54,
          "midi": 59,
          "name": "B3",
          "ticks": 43500,
          "time": 159.9263,
          "velocity": 0.7637795275590551
        },
        {
          "duration": 0.1948527333333061,
          "durationTicks": 53,
          "midi": 59,
          "name": "B3",
          "ticks": 43560,
          "time": 160.14688800000002,
          "velocity": 0.8661417322834646
        },
        {
          "duration": 0.0845587333333242,
          "durationTicks": 23,
          "midi": 59,
          "name": "B3",
          "ticks": 43800,
          "time": 161.02924000000002,
          "velocity": 0.7952755905511811
        },
        {
          "duration": 0.08455873333335262,
          "durationTicks": 23,
          "midi": 59,
          "name": "B3",
          "ticks": 43830,
          "time": 161.139534,
          "velocity": 0.8661417322834646
        },
        {
          "duration": 0.11029400000001033,
          "durationTicks": 30,
          "midi": 60,
          "name": "C4",
          "ticks": 43860,
          "time": 161.249828,
          "velocity": 0.8031496062992126
        },
        {
          "duration": 0.0845587333333242,
          "durationTicks": 23,
          "midi": 59,
          "name": "B3",
          "ticks": 43890,
          "time": 161.36012200000002,
          "velocity": 0.8188976377952756
        },
        {
          "duration": 0.19485273333333453,
          "durationTicks": 53,
          "midi": 60,
          "name": "C4",
          "ticks": 43920,
          "time": 161.470416,
          "velocity": 0.8661417322834646
        },
        {
          "duration": 0.11029400000001033,
          "durationTicks": 30,
          "midi": 59,
          "name": "B3",
          "ticks": 43980,
          "time": 161.691004,
          "velocity": 0.8661417322834646
        },
        {
          "duration": 0.11029400000001033,
          "durationTicks": 30,
          "midi": 57,
          "name": "A3",
          "ticks": 44010,
          "time": 161.801298,
          "velocity": 0.8031496062992126
        },
        {
          "duration": 0.19485273333333453,
          "durationTicks": 53,
          "midi": 60,
          "name": "C4",
          "ticks": 44040,
          "time": 161.911592,
          "velocity": 0.8661417322834646
        },
        {
          "duration": 0.1102939999999819,
          "durationTicks": 30,
          "midi": 57,
          "name": "A3",
          "ticks": 44130,
          "time": 162.24247400000002,
          "velocity": 0.7874015748031497
        },
        {
          "duration": 0.11029400000001033,
          "durationTicks": 30,
          "midi": 60,
          "name": "C4",
          "ticks": 44160,
          "time": 162.352768,
          "velocity": 0.8661417322834646
        },
        {
          "duration": 0.0845587333333242,
          "durationTicks": 23,
          "midi": 59,
          "name": "B3",
          "ticks": 44190,
          "time": 162.463062,
          "velocity": 0.8110236220472441
        },
        {
          "duration": 0.22058799999999223,
          "durationTicks": 60,
          "midi": 59,
          "name": "B3",
          "ticks": 44220,
          "time": 162.57335600000002,
          "velocity": 0.8661417322834646
        },
        {
          "duration": 0.33088200000000256,
          "durationTicks": 90,
          "midi": 60,
          "name": "C4",
          "ticks": 44280,
          "time": 162.793944,
          "velocity": 0.8661417322834646
        },
        {
          "duration": 0.0845587333333242,
          "durationTicks": 23,
          "midi": 59,
          "name": "B3",
          "ticks": 44370,
          "time": 163.124826,
          "velocity": 0.7952755905511811
        },
        {
          "duration": 0.14705866666668044,
          "durationTicks": 40,
          "midi": 60,
          "name": "C4",
          "ticks": 44400,
          "time": 163.23512,
          "velocity": 0.8661417322834646
        },
        {
          "duration": 0.14705866666668044,
          "durationTicks": 40,
          "midi": 59,
          "name": "B3",
          "ticks": 44440,
          "time": 163.38217866666668,
          "velocity": 0.8188976377952756
        },
        {
          "duration": 0.14705866666665202,
          "durationTicks": 40,
          "midi": 57,
          "name": "A3",
          "ticks": 44480,
          "time": 163.52923733333336,
          "velocity": 0.8661417322834646
        },
        {
          "duration": 0.2499997333333397,
          "durationTicks": 68,
          "midi": 60,
          "name": "C4",
          "ticks": 44520,
          "time": 163.676296,
          "velocity": 0.8661417322834646
        },
        {
          "duration": 0.22058799999999223,
          "durationTicks": 60,
          "midi": 59,
          "name": "B3",
          "ticks": 44760,
          "time": 164.558648,
          "velocity": 0.8661417322834646
        },
        {
          "duration": 0.11029400000001033,
          "durationTicks": 30,
          "midi": 57,
          "name": "A3",
          "ticks": 44820,
          "time": 164.779236,
          "velocity": 0.8110236220472441
        },
        {
          "duration": 0.22058799999999223,
          "durationTicks": 60,
          "midi": 59,
          "name": "B3",
          "ticks": 44880,
          "time": 164.99982400000002,
          "velocity": 0.8661417322834646
        },
        {
          "duration": 0.1102939999999819,
          "durationTicks": 30,
          "midi": 57,
          "name": "A3",
          "ticks": 44940,
          "time": 165.220412,
          "velocity": 0.8661417322834646
        },
        {
          "duration": 0.0808822666666913,
          "durationTicks": 22,
          "midi": 57,
          "name": "A3",
          "ticks": 45060,
          "time": 165.661588,
          "velocity": 0.7795275590551181
        },
        {
          "duration": 0.08088226666666287,
          "durationTicks": 22,
          "midi": 57,
          "name": "A3",
          "ticks": 45090,
          "time": 165.771882,
          "velocity": 0.7795275590551181
        },
        {
          "duration": 0.22058799999999223,
          "durationTicks": 60,
          "midi": 59,
          "name": "B3",
          "ticks": 45120,
          "time": 165.88217600000002,
          "velocity": 0.8661417322834646
        },
        {
          "duration": 0.19485273333333453,
          "durationTicks": 53,
          "midi": 57,
          "name": "A3",
          "ticks": 45180,
          "time": 166.102764,
          "velocity": 0.7716535433070866
        },
        {
          "duration": 0.19852919999999585,
          "durationTicks": 54,
          "midi": 59,
          "name": "B3",
          "ticks": 45240,
          "time": 166.323352,
          "velocity": 0.8661417322834646
        },
        {
          "duration": 0.11029400000001033,
          "durationTicks": 30,
          "midi": 57,
          "name": "A3",
          "ticks": 45300,
          "time": 166.54394,
          "velocity": 0.8661417322834646
        },
        {
          "duration": 0.19485273333333453,
          "durationTicks": 53,
          "midi": 59,
          "name": "B3",
          "ticks": 45360,
          "time": 166.764528,
          "velocity": 0.8661417322834646
        },
        {
          "duration": 0.11029400000001033,
          "durationTicks": 30,
          "midi": 57,
          "name": "A3",
          "ticks": 45420,
          "time": 166.985116,
          "velocity": 0.8661417322834646
        },
        {
          "duration": 0.19485273333333453,
          "durationTicks": 53,
          "midi": 55,
          "name": "G3",
          "ticks": 45480,
          "time": 167.205704,
          "velocity": 0.8661417322834646
        },
        {
          "duration": 0.08823519999998553,
          "durationTicks": 24,
          "midi": 55,
          "name": "G3",
          "ticks": 45600,
          "time": 167.64688,
          "velocity": 0.7401574803149606
        },
        {
          "duration": 0.08823520000001395,
          "durationTicks": 24,
          "midi": 55,
          "name": "G3",
          "ticks": 45630,
          "time": 167.757174,
          "velocity": 0.7716535433070866
        },
        {
          "duration": 0.1911762666666732,
          "durationTicks": 52,
          "midi": 55,
          "name": "G3",
          "ticks": 45660,
          "time": 167.867468,
          "velocity": 0.8031496062992126
        },
        {
          "duration": 0.1911762666666732,
          "durationTicks": 52,
          "midi": 55,
          "name": "G3",
          "ticks": 45750,
          "time": 168.19835,
          "velocity": 0.8346456692913385
        },
        {
          "duration": 0.11029400000001033,
          "durationTicks": 30,
          "midi": 57,
          "name": "A3",
          "ticks": 45840,
          "time": 168.529232,
          "velocity": 0.8661417322834646
        },
        {
          "duration": 0.11029400000001033,
          "durationTicks": 30,
          "midi": 57,
          "name": "A3",
          "ticks": 45900,
          "time": 168.74982,
          "velocity": 0.7874015748031497
        },
        {
          "duration": 0.33088200000000256,
          "durationTicks": 90,
          "midi": 57,
          "name": "A3",
          "ticks": 45960,
          "time": 168.970408,
          "velocity": 0.8661417322834646
        },
        {
          "duration": 0.08088226666666287,
          "durationTicks": 22,
          "midi": 52,
          "name": "E3",
          "ticks": 46140,
          "time": 169.632172,
          "velocity": 0.7559055118110236
        },
        {
          "duration": 0.08088226666666287,
          "durationTicks": 22,
          "midi": 52,
          "name": "E3",
          "ticks": 46170,
          "time": 169.742466,
          "velocity": 0.7874015748031497
        },
        {
          "duration": 0.17647039999997105,
          "durationTicks": 48,
          "midi": 55,
          "name": "G3",
          "ticks": 46200,
          "time": 169.85276000000002,
          "velocity": 0.8267716535433071
        },
        {
          "duration": 0.17647039999997105,
          "durationTicks": 48,
          "midi": 52,
          "name": "E3",
          "ticks": 46260,
          "time": 170.073348,
          "velocity": 0.8661417322834646
        },
        {
          "duration": 0.22058799999999223,
          "durationTicks": 60,
          "midi": 52,
          "name": "E3",
          "ticks": 46320,
          "time": 170.293936,
          "velocity": 0.8661417322834646
        },
        {
          "duration": 0.11029400000001033,
          "durationTicks": 30,
          "midi": 50,
          "name": "D3",
          "ticks": 46380,
          "time": 170.514524,
          "velocity": 0.7795275590551181
        },
        {
          "duration": 0.22058799999999223,
          "durationTicks": 60,
          "midi": 52,
          "name": "E3",
          "ticks": 46440,
          "time": 170.73511200000002,
          "velocity": 0.8661417322834646
        },
        {
          "duration": 0.11029400000001033,
          "durationTicks": 30,
          "midi": 50,
          "name": "D3",
          "ticks": 46500,
          "time": 170.9557,
          "velocity": 0.7716535433070866
        },
        {
          "duration": 0.3933819333333304,
          "durationTicks": 107,
          "midi": 64,
          "name": "E4",
          "ticks": 46560,
          "time": 171.176288,
          "velocity": 0.9606299212598425
        },
        {
          "duration": 0.44117599999998447,
          "durationTicks": 120,
          "midi": 64,
          "name": "E4",
          "ticks": 46680,
          "time": 171.617464,
          "velocity": 0.9606299212598425
        },
        {
          "duration": 0.4411760000000129,
          "durationTicks": 120,
          "midi": 72,
          "name": "C5",
          "ticks": 46800,
          "time": 172.05864,
          "velocity": 0.9606299212598425
        },
        {
          "duration": 0.22058799999999223,
          "durationTicks": 60,
          "midi": 71,
          "name": "B4",
          "ticks": 46920,
          "time": 172.499816,
          "velocity": 0.952755905511811
        },
        {
          "duration": 0.6617640000000051,
          "durationTicks": 180,
          "midi": 69,
          "name": "A4",
          "ticks": 46980,
          "time": 172.720404,
          "velocity": 0.952755905511811
        },
        {
          "duration": 0.22058799999999223,
          "durationTicks": 60,
          "midi": 67,
          "name": "G4",
          "ticks": 47160,
          "time": 173.382168,
          "velocity": 0.8818897637795275
        },
        {
          "duration": 0.6617640000000051,
          "durationTicks": 180,
          "midi": 66,
          "name": "F#4",
          "ticks": 47220,
          "time": 173.602756,
          "velocity": 0.9448818897637795
        },
        {
          "duration": 0.22058799999999223,
          "durationTicks": 60,
          "midi": 67,
          "name": "G4",
          "ticks": 47400,
          "time": 174.26452,
          "velocity": 0.9448818897637795
        },
        {
          "duration": 0.39338193333330196,
          "durationTicks": 107,
          "midi": 62,
          "name": "D4",
          "ticks": 47520,
          "time": 174.70569600000002,
          "velocity": 0.9448818897637795
        },
        {
          "duration": 0.4411760000000129,
          "durationTicks": 120,
          "midi": 62,
          "name": "D4",
          "ticks": 47640,
          "time": 175.146872,
          "velocity": 0.937007874015748
        },
        {
          "duration": 0.44117599999998447,
          "durationTicks": 120,
          "midi": 71,
          "name": "B4",
          "ticks": 47760,
          "time": 175.58804800000001,
          "velocity": 0.937007874015748
        },
        {
          "duration": 0.22058799999999223,
          "durationTicks": 60,
          "midi": 69,
          "name": "A4",
          "ticks": 47880,
          "time": 176.029224,
          "velocity": 0.8818897637795275
        },
        {
          "duration": 0.6617640000000051,
          "durationTicks": 180,
          "midi": 67,
          "name": "G4",
          "ticks": 47940,
          "time": 176.249812,
          "velocity": 0.9212598425196851
        },
        {
          "duration": 0.22058800000002066,
          "durationTicks": 60,
          "midi": 66,
          "name": "F#4",
          "ticks": 48120,
          "time": 176.911576,
          "velocity": 0.8740157480314961
        },
        {
          "duration": 0.6617639999999767,
          "durationTicks": 180,
          "midi": 64,
          "name": "E4",
          "ticks": 48180,
          "time": 177.13216400000002,
          "velocity": 0.9212598425196851
        },
        {
          "duration": 0.22058800000002066,
          "durationTicks": 60,
          "midi": 62,
          "name": "D4",
          "ticks": 48360,
          "time": 177.793928,
          "velocity": 0.9212598425196851
        },
        {
          "duration": 0.3933819333333304,
          "durationTicks": 107,
          "midi": 64,
          "name": "E4",
          "ticks": 48480,
          "time": 178.235104,
          "velocity": 0.9212598425196851
        },
        {
          "duration": 0.4411760000000129,
          "durationTicks": 120,
          "midi": 64,
          "name": "E4",
          "ticks": 48600,
          "time": 178.67628,
          "velocity": 0.9212598425196851
        },
        {
          "duration": 0.4411760000000129,
          "durationTicks": 120,
          "midi": 72,
          "name": "C5",
          "ticks": 48720,
          "time": 179.117456,
          "velocity": 0.9212598425196851
        },
        {
          "duration": 0.22058799999999223,
          "durationTicks": 60,
          "midi": 71,
          "name": "B4",
          "ticks": 48840,
          "time": 179.55863200000002,
          "velocity": 0.8740157480314961
        },
        {
          "duration": 0.6617640000000051,
          "durationTicks": 180,
          "midi": 69,
          "name": "A4",
          "ticks": 48900,
          "time": 179.77922,
          "velocity": 0.9212598425196851
        },
        {
          "duration": 0.22058799999999223,
          "durationTicks": 60,
          "midi": 67,
          "name": "G4",
          "ticks": 49080,
          "time": 180.44098400000001,
          "velocity": 0.8976377952755905
        },
        {
          "duration": 0.6617640000000051,
          "durationTicks": 180,
          "midi": 66,
          "name": "F#4",
          "ticks": 49140,
          "time": 180.661572,
          "velocity": 0.9212598425196851
        },
        {
          "duration": 0.22058799999999223,
          "durationTicks": 60,
          "midi": 67,
          "name": "G4",
          "ticks": 49320,
          "time": 181.323336,
          "velocity": 0.9212598425196851
        },
        {
          "duration": 0.3933819333333304,
          "durationTicks": 107,
          "midi": 62,
          "name": "D4",
          "ticks": 49440,
          "time": 181.764512,
          "velocity": 0.9212598425196851
        },
        {
          "duration": 0.44117599999998447,
          "durationTicks": 120,
          "midi": 62,
          "name": "D4",
          "ticks": 49560,
          "time": 182.205688,
          "velocity": 0.9212598425196851
        },
        {
          "duration": 0.4411760000000129,
          "durationTicks": 120,
          "midi": 71,
          "name": "B4",
          "ticks": 49680,
          "time": 182.646864,
          "velocity": 0.9212598425196851
        },
        {
          "duration": 0.22058799999999223,
          "durationTicks": 60,
          "midi": 69,
          "name": "A4",
          "ticks": 49800,
          "time": 183.08804,
          "velocity": 0.8582677165354331
        },
        {
          "duration": 0.6617640000000051,
          "durationTicks": 180,
          "midi": 67,
          "name": "G4",
          "ticks": 49860,
          "time": 183.308628,
          "velocity": 0.9212598425196851
        },
        {
          "duration": 0.4411760000000129,
          "durationTicks": 120,
          "midi": 66,
          "name": "F#4",
          "ticks": 50040,
          "time": 183.970392,
          "velocity": 0.9212598425196851
        },
        {
          "duration": 0.44117599999998447,
          "durationTicks": 120,
          "midi": 64,
          "name": "E4",
          "ticks": 50160,
          "time": 184.41156800000002,
          "velocity": 0.8976377952755905
        },
        {
          "duration": 0.22058799999999223,
          "durationTicks": 60,
          "midi": 62,
          "name": "D4",
          "ticks": 50280,
          "time": 184.852744,
          "velocity": 0.9212598425196851
        },
        {
          "duration": 0.3933819333333304,
          "durationTicks": 107,
          "midi": 62,
          "name": "D4",
          "ticks": 51360,
          "time": 188.823328,
          "velocity": 0.9212598425196851
        },
        {
          "duration": 0.44117599999998447,
          "durationTicks": 120,
          "midi": 62,
          "name": "D4",
          "ticks": 51480,
          "time": 189.26450400000002,
          "velocity": 0.889763779527559
        },
        {
          "duration": 0.4411760000000129,
          "durationTicks": 120,
          "midi": 71,
          "name": "B4",
          "ticks": 51600,
          "time": 189.70568,
          "velocity": 0.9212598425196851
        },
        {
          "duration": 0.22058799999999223,
          "durationTicks": 60,
          "midi": 69,
          "name": "A4",
          "ticks": 51720,
          "time": 190.146856,
          "velocity": 0.8740157480314961
        },
        {
          "duration": 0.6617640000000051,
          "durationTicks": 180,
          "midi": 67,
          "name": "G4",
          "ticks": 51780,
          "time": 190.367444,
          "velocity": 0.9212598425196851
        },
        {
          "duration": 0.44117599999998447,
          "durationTicks": 120,
          "midi": 66,
          "name": "F#4",
          "ticks": 51960,
          "time": 191.029208,
          "velocity": 0.9133858267716536
        },
        {
          "duration": 0.4411760000000129,
          "durationTicks": 120,
          "midi": 64,
          "name": "E4",
          "ticks": 52080,
          "time": 191.470384,
          "velocity": 0.9133858267716536
        },
        {
          "duration": 0.22058799999999223,
          "durationTicks": 60,
          "midi": 62,
          "name": "D4",
          "ticks": 52200,
          "time": 191.91156,
          "velocity": 0.8976377952755905
        },
        {
          "duration": 0.14705866666665202,
          "durationTicks": 40,
          "midi": 69,
          "name": "A4",
          "ticks": 52920,
          "time": 194.558616,
          "velocity": 0.9133858267716536
        },
        {
          "duration": 0.14705866666668044,
          "durationTicks": 40,
          "midi": 67,
          "name": "G4",
          "ticks": 52960,
          "time": 194.70567466666665,
          "velocity": 0.8661417322834646
        },
        {
          "duration": 0.14705866666668044,
          "durationTicks": 40,
          "midi": 69,
          "name": "A4",
          "ticks": 53000,
          "time": 194.85273333333333,
          "velocity": 0.9133858267716536
        },
        {
          "duration": 0.11397046666664323,
          "durationTicks": 31,
          "midi": 71,
          "name": "B4",
          "ticks": 53040,
          "time": 194.999792,
          "velocity": 0.9133858267716536
        },
        {
          "duration": 0.29411733333333245,
          "durationTicks": 80,
          "midi": 71,
          "name": "B4",
          "ticks": 53080,
          "time": 195.14685066666667,
          "velocity": 0.9133858267716536
        },
        {
          "duration": 0.3933819333333304,
          "durationTicks": 107,
          "midi": 62,
          "name": "D4",
          "ticks": 53280,
          "time": 195.882144,
          "velocity": 0.9133858267716536
        },
        {
          "duration": 0.4411760000000129,
          "durationTicks": 120,
          "midi": 62,
          "name": "D4",
          "ticks": 53400,
          "time": 196.32332,
          "velocity": 0.8503937007874016
        },
        {
          "duration": 0.44117599999998447,
          "durationTicks": 120,
          "midi": 71,
          "name": "B4",
          "ticks": 53520,
          "time": 196.764496,
          "velocity": 0.9133858267716536
        },
        {
          "duration": 0.22058800000002066,
          "durationTicks": 60,
          "midi": 69,
          "name": "A4",
          "ticks": 53640,
          "time": 197.205672,
          "velocity": 0.9133858267716536
        },
        {
          "duration": 0.6617640000000051,
          "durationTicks": 180,
          "midi": 67,
          "name": "G4",
          "ticks": 53700,
          "time": 197.42626,
          "velocity": 0.9133858267716536
        },
        {
          "duration": 0.44117599999998447,
          "durationTicks": 120,
          "midi": 66,
          "name": "F#4",
          "ticks": 53880,
          "time": 198.08802400000002,
          "velocity": 0.9133858267716536
        },
        {
          "duration": 0.4411760000000129,
          "durationTicks": 120,
          "midi": 64,
          "name": "E4",
          "ticks": 54000,
          "time": 198.5292,
          "velocity": 0.9133858267716536
        },
        {
          "duration": 0.22058799999999223,
          "durationTicks": 60,
          "midi": 62,
          "name": "D4",
          "ticks": 54120,
          "time": 198.97037600000002,
          "velocity": 0.9133858267716536
        },
        {
          "duration": 0.3933819333333304,
          "durationTicks": 107,
          "midi": 62,
          "name": "D4",
          "ticks": 59040,
          "time": 217.058592,
          "velocity": 0.9606299212598425
        },
        {
          "duration": 0.44117599999998447,
          "durationTicks": 120,
          "midi": 62,
          "name": "D4",
          "ticks": 59160,
          "time": 217.49976800000002,
          "velocity": 0.9606299212598425
        },
        {
          "duration": 0.4411760000000129,
          "durationTicks": 120,
          "midi": 71,
          "name": "B4",
          "ticks": 59280,
          "time": 217.940944,
          "velocity": 0.9606299212598425
        },
        {
          "duration": 0.22058799999999223,
          "durationTicks": 60,
          "midi": 69,
          "name": "A4",
          "ticks": 59400,
          "time": 218.38212000000001,
          "velocity": 0.8818897637795275
        },
        {
          "duration": 0.6617640000000051,
          "durationTicks": 180,
          "midi": 67,
          "name": "G4",
          "ticks": 59460,
          "time": 218.602708,
          "velocity": 0.952755905511811
        },
        {
          "duration": 0.44117599999998447,
          "durationTicks": 120,
          "midi": 66,
          "name": "F#4",
          "ticks": 59640,
          "time": 219.264472,
          "velocity": 0.952755905511811
        },
        {
          "duration": 0.4411760000000129,
          "durationTicks": 120,
          "midi": 64,
          "name": "E4",
          "ticks": 59760,
          "time": 219.705648,
          "velocity": 0.952755905511811
        },
        {
          "duration": 0.22058799999999223,
          "durationTicks": 60,
          "midi": 62,
          "name": "D4",
          "ticks": 59880,
          "time": 220.146824,
          "velocity": 0.9448818897637795
        },
        {
          "duration": 0.3933819333333304,
          "durationTicks": 107,
          "midi": 62,
          "name": "D4",
          "ticks": 60960,
          "time": 224.117408,
          "velocity": 0.8818897637795275
        },
        {
          "duration": 0.4411760000000129,
          "durationTicks": 120,
          "midi": 62,
          "name": "D4",
          "ticks": 61080,
          "time": 224.558584,
          "velocity": 0.9291338582677166
        },
        {
          "duration": 0.44117599999998447,
          "durationTicks": 120,
          "midi": 71,
          "name": "B4",
          "ticks": 61200,
          "time": 224.99976,
          "velocity": 0.8503937007874016
        },
        {
          "duration": 0.22058800000002066,
          "durationTicks": 60,
          "midi": 69,
          "name": "A4",
          "ticks": 61320,
          "time": 225.440936,
          "velocity": 0.8661417322834646
        },
        {
          "duration": 0.6617640000000051,
          "durationTicks": 180,
          "midi": 67,
          "name": "G4",
          "ticks": 61380,
          "time": 225.66152400000001,
          "velocity": 0.9212598425196851
        },
        {
          "duration": 0.44117599999998447,
          "durationTicks": 120,
          "midi": 66,
          "name": "F#4",
          "ticks": 61560,
          "time": 226.32328800000002,
          "velocity": 0.9212598425196851
        },
        {
          "duration": 0.4411760000000129,
          "durationTicks": 120,
          "midi": 64,
          "name": "E4",
          "ticks": 61680,
          "time": 226.764464,
          "velocity": 0.9212598425196851
        },
        {
          "duration": 0.22058799999999223,
          "durationTicks": 60,
          "midi": 62,
          "name": "D4",
          "ticks": 61800,
          "time": 227.20564000000002,
          "velocity": 0.8818897637795275
        }
      ],
      "endOfTrackTicks": 61860
    },
    {
      "channel": 1,
      "controlChanges": {
        "7": [
          {
            "number": 7,
            "ticks": 0,
            "time": 0,
            "value": 0.7874015748031497
          }
        ],
        "10": [
          {
            "number": 10,
            "ticks": 0,
            "time": 0,
            "value": 0.31496062992125984
          }
        ],
        "11": [
          {
            "number": 11,
            "ticks": 2,
            "time": 0.007352933333333333,
            "value": 1
          }
        ],
        "73": [
          {
            "number": 73,
            "ticks": 25,
            "time": 0.09191166666666667,
            "value": 0.5826771653543307
          }
        ],
        "75": [
          {
            "number": 75,
            "ticks": 47,
            "time": 0.17279393333333334,
            "value": 0.6614173228346457
          }
        ],
        "76": [
          {
            "number": 76,
            "ticks": 54,
            "time": 0.19852920000000002,
            "value": 0.5275590551181102
          }
        ],
        "77": [
          {
            "number": 77,
            "ticks": 58,
            "time": 0.21323506666666667,
            "value": 0.5433070866141733
          }
        ],
        "91": [
          {
            "number": 91,
            "ticks": 4,
            "time": 0.014705866666666666,
            "value": 0.31496062992125984
          }
        ],
        "93": [
          {
            "number": 93,
            "ticks": 10,
            "time": 0.03676466666666667,
            "value": 0.15748031496062992
          }
        ]
      },
      "pitchBends": [],
      "instrument": {
        "family": "ensemble",
        "number": 53,
        "name": "voice oohs"
      },
      "name": "Backup Vocals",
      "notes": [
        {
          "duration": 0.8823519999999974,
          "durationTicks": 240,
          "midi": 64,
          "name": "E4",
          "ticks": 8160,
          "time": 29.999968000000003,
          "velocity": 0.7086614173228346
        },
        {
          "duration": 0.44117600000000223,
          "durationTicks": 120,
          "midi": 72,
          "name": "C5",
          "ticks": 8400,
          "time": 30.88232,
          "velocity": 0.7874015748031497
        },
        {
          "duration": 0.22058799999999934,
          "durationTicks": 60,
          "midi": 71,
          "name": "B4",
          "ticks": 8520,
          "time": 31.323496000000002,
          "velocity": 0.6692913385826772
        },
        {
          "duration": 1.3235279999999996,
          "durationTicks": 360,
          "midi": 69,
          "name": "A4",
          "ticks": 8580,
          "time": 31.544084,
          "velocity": 0.7874015748031497
        },
        {
          "duration": 0.3933819333333375,
          "durationTicks": 107,
          "midi": 59,
          "name": "B3",
          "ticks": 9120,
          "time": 33.529376,
          "velocity": 0.7086614173228346
        },
        {
          "duration": 0.3933819333333375,
          "durationTicks": 107,
          "midi": 67,
          "name": "G4",
          "ticks": 9120,
          "time": 33.529376,
          "velocity": 0.7086614173228346
        },
        {
          "duration": 0.4080878000000041,
          "durationTicks": 111,
          "midi": 59,
          "name": "B3",
          "ticks": 9240,
          "time": 33.970552,
          "velocity": 0.7795275590551181
        },
        {
          "duration": 0.4080878000000041,
          "durationTicks": 111,
          "midi": 67,
          "name": "G4",
          "ticks": 9240,
          "time": 33.970552,
          "velocity": 0.7795275590551181
        },
        {
          "duration": 0.4411759999999987,
          "durationTicks": 120,
          "midi": 67,
          "name": "G4",
          "ticks": 9360,
          "time": 34.411728000000004,
          "velocity": 0.7086614173228346
        },
        {
          "duration": 0.4411759999999987,
          "durationTicks": 120,
          "midi": 74,
          "name": "D5",
          "ticks": 9360,
          "time": 34.411728000000004,
          "velocity": 0.7086614173228346
        },
        {
          "duration": 0.22058799999999934,
          "durationTicks": 60,
          "midi": 66,
          "name": "F#4",
          "ticks": 9480,
          "time": 34.852904,
          "velocity": 0.6535433070866141
        },
        {
          "duration": 0.22058799999999934,
          "durationTicks": 60,
          "midi": 72,
          "name": "C5",
          "ticks": 9480,
          "time": 34.852904,
          "velocity": 0.6535433070866141
        },
        {
          "duration": 0.661763999999998,
          "durationTicks": 180,
          "midi": 64,
          "name": "E4",
          "ticks": 9540,
          "time": 35.073492,
          "velocity": 0.7559055118110236
        },
        {
          "duration": 0.661763999999998,
          "durationTicks": 180,
          "midi": 71,
          "name": "B4",
          "ticks": 9540,
          "time": 35.073492,
          "velocity": 0.7559055118110236
        },
        {
          "duration": 0.4411759999999987,
          "durationTicks": 120,
          "midi": 62,
          "name": "D4",
          "ticks": 9720,
          "time": 35.735256,
          "velocity": 0.7480314960629921
        },
        {
          "duration": 0.4411759999999987,
          "durationTicks": 120,
          "midi": 69,
          "name": "A4",
          "ticks": 9720,
          "time": 35.735256,
          "velocity": 0.7480314960629921
        },
        {
          "duration": 0.4080878000000041,
          "durationTicks": 111,
          "midi": 60,
          "name": "C4",
          "ticks": 9840,
          "time": 36.176432,
          "velocity": 0.6771653543307087
        },
        {
          "duration": 0.4080878000000041,
          "durationTicks": 111,
          "midi": 67,
          "name": "G4",
          "ticks": 9840,
          "time": 36.176432,
          "velocity": 0.6771653543307087
        },
        {
          "duration": 0.22058799999999934,
          "durationTicks": 60,
          "midi": 59,
          "name": "B3",
          "ticks": 9960,
          "time": 36.617608000000004,
          "velocity": 0.7086614173228346
        },
        {
          "duration": 0.22058799999999934,
          "durationTicks": 60,
          "midi": 67,
          "name": "G4",
          "ticks": 9960,
          "time": 36.617608000000004,
          "velocity": 0.7086614173228346
        },
        {
          "duration": 0.8823519999999974,
          "durationTicks": 240,
          "midi": 64,
          "name": "E4",
          "ticks": 10080,
          "time": 37.058784,
          "velocity": 0.7637795275590551
        },
        {
          "duration": 0.4411759999999987,
          "durationTicks": 120,
          "midi": 72,
          "name": "C5",
          "ticks": 10320,
          "time": 37.941136,
          "velocity": 0.7559055118110236
        },
        {
          "duration": 0.22058799999999934,
          "durationTicks": 60,
          "midi": 71,
          "name": "B4",
          "ticks": 10440,
          "time": 38.382312,
          "velocity": 0.6692913385826772
        },
        {
          "duration": 1.3235280000000031,
          "durationTicks": 360,
          "midi": 69,
          "name": "A4",
          "ticks": 10500,
          "time": 38.6029,
          "velocity": 0.7716535433070866
        },
        {
          "duration": 0.08088226666666998,
          "durationTicks": 22,
          "midi": 62,
          "name": "D4",
          "ticks": 14760,
          "time": 54.264648,
          "velocity": 0.8661417322834646
        },
        {
          "duration": 0.13602926666666804,
          "durationTicks": 37,
          "midi": 62,
          "name": "D4",
          "ticks": 14790,
          "time": 54.374942000000004,
          "velocity": 0.8661417322834646
        },
        {
          "duration": 0.13602926666666804,
          "durationTicks": 37,
          "midi": 62,
          "name": "D4",
          "ticks": 14880,
          "time": 54.705824,
          "velocity": 0.8661417322834646
        },
        {
          "duration": 0.13602926666666804,
          "durationTicks": 37,
          "midi": 59,
          "name": "B3",
          "ticks": 14940,
          "time": 54.926412,
          "velocity": 0.8661417322834646
        },
        {
          "duration": 0.08088226666666287,
          "durationTicks": 22,
          "midi": 57,
          "name": "A3",
          "ticks": 15060,
          "time": 55.367588000000005,
          "velocity": 0.8661417322834646
        },
        {
          "duration": 0.08088226666666998,
          "durationTicks": 22,
          "midi": 57,
          "name": "A3",
          "ticks": 15090,
          "time": 55.477882,
          "velocity": 0.8661417322834646
        },
        {
          "duration": 0.08088226666666287,
          "durationTicks": 22,
          "midi": 57,
          "name": "A3",
          "ticks": 15120,
          "time": 55.588176000000004,
          "velocity": 0.8661417322834646
        },
        {
          "duration": 0.08088226666666287,
          "durationTicks": 22,
          "midi": 57,
          "name": "A3",
          "ticks": 15180,
          "time": 55.808764000000004,
          "velocity": 0.8661417322834646
        },
        {
          "duration": 0.08088226666666998,
          "durationTicks": 22,
          "midi": 57,
          "name": "A3",
          "ticks": 15210,
          "time": 55.919058,
          "velocity": 0.8661417322834646
        },
        {
          "duration": 0.08088226666666998,
          "durationTicks": 22,
          "midi": 57,
          "name": "A3",
          "ticks": 15240,
          "time": 56.029352,
          "velocity": 0.8661417322834646
        },
        {
          "duration": 0.08088226666666998,
          "durationTicks": 22,
          "midi": 57,
          "name": "A3",
          "ticks": 15270,
          "time": 56.139646,
          "velocity": 0.8661417322834646
        },
        {
          "duration": 0.35294080000000605,
          "durationTicks": 96,
          "midi": 50,
          "name": "D3",
          "ticks": 15330,
          "time": 56.360234,
          "velocity": 0.8661417322834646
        },
        {
          "duration": 1.323527999999996,
          "durationTicks": 360,
          "midi": 76,
          "name": "E5",
          "ticks": 19200,
          "time": 70.58816,
          "velocity": 0.7874015748031497
        },
        {
          "duration": 0.4411759999999987,
          "durationTicks": 120,
          "midi": 79,
          "name": "G5",
          "ticks": 19560,
          "time": 71.911688,
          "velocity": 0.7874015748031497
        },
        {
          "duration": 0.8823520000000116,
          "durationTicks": 240,
          "midi": 64,
          "name": "E4",
          "ticks": 31200,
          "time": 114.70576,
          "velocity": 0.7874015748031497
        },
        {
          "duration": 0.4411759999999987,
          "durationTicks": 120,
          "midi": 72,
          "name": "C5",
          "ticks": 31440,
          "time": 115.58811200000001,
          "velocity": 0.7874015748031497
        },
        {
          "duration": 0.22058799999999223,
          "durationTicks": 60,
          "midi": 71,
          "name": "B4",
          "ticks": 31560,
          "time": 116.02928800000001,
          "velocity": 0.7007874015748031
        },
        {
          "duration": 1.323527999999996,
          "durationTicks": 360,
          "midi": 69,
          "name": "A4",
          "ticks": 31620,
          "time": 116.249876,
          "velocity": 0.7874015748031497
        },
        {
          "duration": 0.3933819333333304,
          "durationTicks": 107,
          "midi": 59,
          "name": "B3",
          "ticks": 32160,
          "time": 118.235168,
          "velocity": 0.7401574803149606
        },
        {
          "duration": 0.3933819333333304,
          "durationTicks": 107,
          "midi": 67,
          "name": "G4",
          "ticks": 32160,
          "time": 118.235168,
          "velocity": 0.7401574803149606
        },
        {
          "duration": 0.4080878000000041,
          "durationTicks": 111,
          "midi": 59,
          "name": "B3",
          "ticks": 32280,
          "time": 118.676344,
          "velocity": 0.7874015748031497
        },
        {
          "duration": 0.4080878000000041,
          "durationTicks": 111,
          "midi": 67,
          "name": "G4",
          "ticks": 32280,
          "time": 118.676344,
          "velocity": 0.7874015748031497
        },
        {
          "duration": 0.4411759999999987,
          "durationTicks": 120,
          "midi": 74,
          "name": "D5",
          "ticks": 32400,
          "time": 119.11752,
          "velocity": 0.7874015748031497
        },
        {
          "duration": 0.4411759999999987,
          "durationTicks": 120,
          "midi": 67,
          "name": "G4",
          "ticks": 32400,
          "time": 119.11752,
          "velocity": 0.7874015748031497
        },
        {
          "duration": 0.22058800000000645,
          "durationTicks": 60,
          "midi": 66,
          "name": "F#4",
          "ticks": 32520,
          "time": 119.558696,
          "velocity": 0.7165354330708661
        },
        {
          "duration": 0.22058800000000645,
          "durationTicks": 60,
          "midi": 72,
          "name": "C5",
          "ticks": 32520,
          "time": 119.558696,
          "velocity": 0.7165354330708661
        },
        {
          "duration": 0.6617640000000051,
          "durationTicks": 180,
          "midi": 64,
          "name": "E4",
          "ticks": 32580,
          "time": 119.779284,
          "velocity": 0.7874015748031497
        },
        {
          "duration": 0.6617640000000051,
          "durationTicks": 180,
          "midi": 71,
          "name": "B4",
          "ticks": 32580,
          "time": 119.779284,
          "velocity": 0.7874015748031497
        },
        {
          "duration": 0.4411759999999987,
          "durationTicks": 120,
          "midi": 69,
          "name": "A4",
          "ticks": 32760,
          "time": 120.44104800000001,
          "velocity": 0.7874015748031497
        },
        {
          "duration": 0.4411759999999987,
          "durationTicks": 120,
          "midi": 62,
          "name": "D4",
          "ticks": 32760,
          "time": 120.44104800000001,
          "velocity": 0.7874015748031497
        },
        {
          "duration": 0.4080878000000041,
          "durationTicks": 111,
          "midi": 60,
          "name": "C4",
          "ticks": 32880,
          "time": 120.88222400000001,
          "velocity": 0.7480314960629921
        },
        {
          "duration": 0.4080878000000041,
          "durationTicks": 111,
          "midi": 67,
          "name": "G4",
          "ticks": 32880,
          "time": 120.88222400000001,
          "velocity": 0.7480314960629921
        },
        {
          "duration": 0.22058799999999223,
          "durationTicks": 60,
          "midi": 59,
          "name": "B3",
          "ticks": 33000,
          "time": 121.3234,
          "velocity": 0.7874015748031497
        },
        {
          "duration": 0.22058799999999223,
          "durationTicks": 60,
          "midi": 67,
          "name": "G4",
          "ticks": 33000,
          "time": 121.3234,
          "velocity": 0.7874015748031497
        },
        {
          "duration": 0.8823519999999974,
          "durationTicks": 240,
          "midi": 64,
          "name": "E4",
          "ticks": 33120,
          "time": 121.764576,
          "velocity": 0.7874015748031497
        },
        {
          "duration": 0.4411759999999987,
          "durationTicks": 120,
          "midi": 72,
          "name": "C5",
          "ticks": 33360,
          "time": 122.646928,
          "velocity": 0.7874015748031497
        },
        {
          "duration": 0.22058800000000645,
          "durationTicks": 60,
          "midi": 71,
          "name": "B4",
          "ticks": 33480,
          "time": 123.088104,
          "velocity": 0.7244094488188977
        },
        {
          "duration": 1.323527999999996,
          "durationTicks": 360,
          "midi": 69,
          "name": "A4",
          "ticks": 33540,
          "time": 123.30869200000001,
          "velocity": 0.7874015748031497
        },
        {
          "duration": 1.319851533333349,
          "durationTicks": 359,
          "midi": 76,
          "name": "E5",
          "ticks": 38400,
          "time": 141.17632,
          "velocity": 0.8740157480314961
        },
        {
          "duration": 0.4044113333333428,
          "durationTicks": 110,
          "midi": 79,
          "name": "G5",
          "ticks": 38760,
          "time": 142.49984800000001,
          "velocity": 0.8740157480314961
        },
        {
          "duration": 0.8823519999999974,
          "durationTicks": 240,
          "midi": 64,
          "name": "E4",
          "ticks": 50400,
          "time": 185.29392,
          "velocity": 0.7874015748031497
        },
        {
          "duration": 0.44117599999998447,
          "durationTicks": 120,
          "midi": 72,
          "name": "C5",
          "ticks": 50640,
          "time": 186.176272,
          "velocity": 0.7874015748031497
        },
        {
          "duration": 0.22058800000002066,
          "durationTicks": 60,
          "midi": 71,
          "name": "B4",
          "ticks": 50760,
          "time": 186.617448,
          "velocity": 0.7165354330708661
        },
        {
          "duration": 1.3235279999999818,
          "durationTicks": 360,
          "midi": 69,
          "name": "A4",
          "ticks": 50820,
          "time": 186.83803600000002,
          "velocity": 0.7874015748031497
        },
        {
          "duration": 0.3933819333333304,
          "durationTicks": 107,
          "midi": 59,
          "name": "B3",
          "ticks": 51360,
          "time": 188.823328,
          "velocity": 0.7874015748031497
        },
        {
          "duration": 0.3933819333333304,
          "durationTicks": 107,
          "midi": 67,
          "name": "G4",
          "ticks": 51360,
          "time": 188.823328,
          "velocity": 0.7874015748031497
        },
        {
          "duration": 0.4080878000000041,
          "durationTicks": 111,
          "midi": 67,
          "name": "G4",
          "ticks": 51480,
          "time": 189.26450400000002,
          "velocity": 0.7165354330708661
        },
        {
          "duration": 0.4080878000000041,
          "durationTicks": 111,
          "midi": 59,
          "name": "B3",
          "ticks": 51480,
          "time": 189.26450400000002,
          "velocity": 0.7165354330708661
        },
        {
          "duration": 0.4411760000000129,
          "durationTicks": 120,
          "midi": 67,
          "name": "G4",
          "ticks": 51600,
          "time": 189.70568,
          "velocity": 0.7874015748031497
        },
        {
          "duration": 0.4411760000000129,
          "durationTicks": 120,
          "midi": 74,
          "name": "D5",
          "ticks": 51600,
          "time": 189.70568,
          "velocity": 0.7874015748031497
        },
        {
          "duration": 0.22058799999999223,
          "durationTicks": 60,
          "midi": 66,
          "name": "F#4",
          "ticks": 51720,
          "time": 190.146856,
          "velocity": 0.7165354330708661
        },
        {
          "duration": 0.22058799999999223,
          "durationTicks": 60,
          "midi": 72,
          "name": "C5",
          "ticks": 51720,
          "time": 190.146856,
          "velocity": 0.7165354330708661
        },
        {
          "duration": 0.6617640000000051,
          "durationTicks": 180,
          "midi": 71,
          "name": "B4",
          "ticks": 51780,
          "time": 190.367444,
          "velocity": 0.7874015748031497
        },
        {
          "duration": 0.6617640000000051,
          "durationTicks": 180,
          "midi": 64,
          "name": "E4",
          "ticks": 51780,
          "time": 190.367444,
          "velocity": 0.7874015748031497
        },
        {
          "duration": 0.44117599999998447,
          "durationTicks": 120,
          "midi": 62,
          "name": "D4",
          "ticks": 51960,
          "time": 191.029208,
          "velocity": 0.7874015748031497
        },
        {
          "duration": 0.44117599999998447,
          "durationTicks": 120,
          "midi": 69,
          "name": "A4",
          "ticks": 51960,
          "time": 191.029208,
          "velocity": 0.7874015748031497
        },
        {
          "duration": 0.4080878000000041,
          "durationTicks": 111,
          "midi": 60,
          "name": "C4",
          "ticks": 52080,
          "time": 191.470384,
          "velocity": 0.7086614173228346
        },
        {
          "duration": 0.4080878000000041,
          "durationTicks": 111,
          "midi": 67,
          "name": "G4",
          "ticks": 52080,
          "time": 191.470384,
          "velocity": 0.7086614173228346
        },
        {
          "duration": 0.22058799999999223,
          "durationTicks": 60,
          "midi": 67,
          "name": "G4",
          "ticks": 52200,
          "time": 191.91156,
          "velocity": 0.7874015748031497
        },
        {
          "duration": 0.22058799999999223,
          "durationTicks": 60,
          "midi": 59,
          "name": "B3",
          "ticks": 52200,
          "time": 191.91156,
          "velocity": 0.7874015748031497
        },
        {
          "duration": 0.8823520000000258,
          "durationTicks": 240,
          "midi": 64,
          "name": "E4",
          "ticks": 52320,
          "time": 192.352736,
          "velocity": 0.7874015748031497
        },
        {
          "duration": 0.44117599999998447,
          "durationTicks": 120,
          "midi": 72,
          "name": "C5",
          "ticks": 52560,
          "time": 193.23508800000002,
          "velocity": 0.7874015748031497
        },
        {
          "duration": 0.22058799999999223,
          "durationTicks": 60,
          "midi": 71,
          "name": "B4",
          "ticks": 52680,
          "time": 193.676264,
          "velocity": 0.7165354330708661
        },
        {
          "duration": 1.3235280000000103,
          "durationTicks": 360,
          "midi": 69,
          "name": "A4",
          "ticks": 52740,
          "time": 193.896852,
          "velocity": 0.8031496062992126
        },
        {
          "duration": 0.29044086666669955,
          "durationTicks": 79,
          "midi": 48,
          "name": "C3",
          "ticks": 57600,
          "time": 211.76448,
          "velocity": 0.937007874015748
        },
        {
          "duration": 0.3124996666666675,
          "durationTicks": 85,
          "midi": 48,
          "name": "C3",
          "ticks": 57720,
          "time": 212.205656,
          "velocity": 0.937007874015748
        },
        {
          "duration": 0.3014702666666551,
          "durationTicks": 82,
          "midi": 47,
          "name": "B2",
          "ticks": 57840,
          "time": 212.64683200000002,
          "velocity": 0.937007874015748
        },
        {
          "duration": 0.35294079999999894,
          "durationTicks": 96,
          "midi": 40,
          "name": "E2",
          "ticks": 57960,
          "time": 213.088008,
          "velocity": 0.937007874015748
        },
        {
          "duration": 0.8823519999999974,
          "durationTicks": 240,
          "midi": 64,
          "name": "E4",
          "ticks": 58080,
          "time": 213.52918400000001,
          "velocity": 0.7874015748031497
        },
        {
          "duration": 0.44117599999998447,
          "durationTicks": 120,
          "midi": 72,
          "name": "C5",
          "ticks": 58320,
          "time": 214.411536,
          "velocity": 0.7874015748031497
        },
        {
          "duration": 0.22058800000002066,
          "durationTicks": 60,
          "midi": 71,
          "name": "B4",
          "ticks": 58440,
          "time": 214.852712,
          "velocity": 0.7401574803149606
        },
        {
          "duration": 1.3235279999999818,
          "durationTicks": 360,
          "midi": 69,
          "name": "A4",
          "ticks": 58500,
          "time": 215.07330000000002,
          "velocity": 0.7874015748031497
        },
        {
          "duration": 0.3933819333333304,
          "durationTicks": 107,
          "midi": 59,
          "name": "B3",
          "ticks": 59040,
          "time": 217.058592,
          "velocity": 0.7874015748031497
        },
        {
          "duration": 0.3933819333333304,
          "durationTicks": 107,
          "midi": 67,
          "name": "G4",
          "ticks": 59040,
          "time": 217.058592,
          "velocity": 0.7874015748031497
        },
        {
          "duration": 0.4080878000000041,
          "durationTicks": 111,
          "midi": 67,
          "name": "G4",
          "ticks": 59160,
          "time": 217.49976800000002,
          "velocity": 0.7559055118110236
        },
        {
          "duration": 0.4080878000000041,
          "durationTicks": 111,
          "midi": 59,
          "name": "B3",
          "ticks": 59160,
          "time": 217.49976800000002,
          "velocity": 0.7559055118110236
        },
        {
          "duration": 0.4411760000000129,
          "durationTicks": 120,
          "midi": 67,
          "name": "G4",
          "ticks": 59280,
          "time": 217.940944,
          "velocity": 0.7874015748031497
        },
        {
          "duration": 0.4411760000000129,
          "durationTicks": 120,
          "midi": 74,
          "name": "D5",
          "ticks": 59280,
          "time": 217.940944,
          "velocity": 0.7874015748031497
        },
        {
          "duration": 0.22058799999999223,
          "durationTicks": 60,
          "midi": 66,
          "name": "F#4",
          "ticks": 59400,
          "time": 218.38212000000001,
          "velocity": 0.7007874015748031
        },
        {
          "duration": 0.22058799999999223,
          "durationTicks": 60,
          "midi": 72,
          "name": "C5",
          "ticks": 59400,
          "time": 218.38212000000001,
          "velocity": 0.7007874015748031
        },
        {
          "duration": 0.6617640000000051,
          "durationTicks": 180,
          "midi": 71,
          "name": "B4",
          "ticks": 59460,
          "time": 218.602708,
          "velocity": 0.7874015748031497
        },
        {
          "duration": 0.6617640000000051,
          "durationTicks": 180,
          "midi": 64,
          "name": "E4",
          "ticks": 59460,
          "time": 218.602708,
          "velocity": 0.7874015748031497
        },
        {
          "duration": 0.44117599999998447,
          "durationTicks": 120,
          "midi": 62,
          "name": "D4",
          "ticks": 59640,
          "time": 219.264472,
          "velocity": 0.7874015748031497
        },
        {
          "duration": 0.44117599999998447,
          "durationTicks": 120,
          "midi": 69,
          "name": "A4",
          "ticks": 59640,
          "time": 219.264472,
          "velocity": 0.7874015748031497
        },
        {
          "duration": 0.4080878000000041,
          "durationTicks": 111,
          "midi": 60,
          "name": "C4",
          "ticks": 59760,
          "time": 219.705648,
          "velocity": 0.7401574803149606
        },
        {
          "duration": 0.4080878000000041,
          "durationTicks": 111,
          "midi": 67,
          "name": "G4",
          "ticks": 59760,
          "time": 219.705648,
          "velocity": 0.7401574803149606
        },
        {
          "duration": 0.22058799999999223,
          "durationTicks": 60,
          "midi": 67,
          "name": "G4",
          "ticks": 59880,
          "time": 220.146824,
          "velocity": 0.7874015748031497
        },
        {
          "duration": 0.22058799999999223,
          "durationTicks": 60,
          "midi": 59,
          "name": "B3",
          "ticks": 59880,
          "time": 220.146824,
          "velocity": 0.7874015748031497
        },
        {
          "duration": 0.8823520000000258,
          "durationTicks": 240,
          "midi": 64,
          "name": "E4",
          "ticks": 60000,
          "time": 220.588,
          "velocity": 0.7874015748031497
        },
        {
          "duration": 0.44117599999998447,
          "durationTicks": 120,
          "midi": 72,
          "name": "C5",
          "ticks": 60240,
          "time": 221.47035200000002,
          "velocity": 0.7874015748031497
        },
        {
          "duration": 0.22058799999999223,
          "durationTicks": 60,
          "midi": 71,
          "name": "B4",
          "ticks": 60360,
          "time": 221.911528,
          "velocity": 0.7401574803149606
        },
        {
          "duration": 1.3235280000000103,
          "durationTicks": 360,
          "midi": 69,
          "name": "A4",
          "ticks": 60420,
          "time": 222.132116,
          "velocity": 0.7637795275590551
        }
      ],
      "endOfTrackTicks": 60780
    },
    {
      "channel": 2,
      "controlChanges": {
        "1": [
          {
            "number": 1,
            "ticks": 182,
            "time": 0.6691169333333333,
            "value": 0
          }
        ],
        "5": [
          {
            "number": 5,
            "ticks": 231,
            "time": 0.8492638,
            "value": 0
          }
        ],
        "7": [
          {
            "number": 7,
            "ticks": 0,
            "time": 0,
            "value": 0.905511811023622
          }
        ],
        "10": [
          {
            "number": 10,
            "ticks": 0,
            "time": 0,
            "value": 0.5039370078740157
          }
        ],
        "11": [
          {
            "number": 11,
            "ticks": 157,
            "time": 0.5772052666666667,
            "value": 1
          }
        ],
        "64": [
          {
            "number": 64,
            "ticks": 193,
            "time": 0.7095580666666668,
            "value": 0
          }
        ],
        "65": [
          {
            "number": 65,
            "ticks": 218,
            "time": 0.8014697333333334,
            "value": 0
          }
        ],
        "91": [
          {
            "number": 91,
            "ticks": 13,
            "time": 0.04779406666666667,
            "value": 0
          }
        ],
        "93": [
          {
            "number": 93,
            "ticks": 120,
            "time": 0.441176,
            "value": 0
          }
        ],
        "94": [
          {
            "number": 94,
            "ticks": 136,
            "time": 0.49999946666666667,
            "value": 0
          }
        ],
        "121": [
          {
            "number": 121,
            "ticks": 0,
            "time": 0,
            "value": 0
          }
        ]
      },
      "pitchBends": [
        {
          "ticks": 203,
          "time": 0.7463227333333333,
          "value": 0
        }
      ],
      "instrument": {
        "family": "bass",
        "number": 38,
        "name": "synth bass 1"
      },
      "name": "Bass",
      "notes": [
        {
          "duration": 0.1911762666666661,
          "durationTicks": 52,
          "midi": 33,
          "name": "A1",
          "ticks": 15840,
          "time": 58.235232,
          "velocity": 0.8818897637795275
        },
        {
          "duration": 0.22058799999999934,
          "durationTicks": 60,
          "midi": 33,
          "name": "A1",
          "ticks": 15900,
          "time": 58.45582,
          "velocity": 0.7874015748031497
        },
        {
          "duration": 0.22058799999999934,
          "durationTicks": 60,
          "midi": 33,
          "name": "A1",
          "ticks": 16020,
          "time": 58.896996,
          "velocity": 0.8188976377952756
        },
        {
          "duration": 0.22058799999999934,
          "durationTicks": 60,
          "midi": 33,
          "name": "A1",
          "ticks": 16140,
          "time": 59.338172,
          "velocity": 0.7874015748031497
        },
        {
          "duration": 0.22058800000000645,
          "durationTicks": 60,
          "midi": 26,
          "name": "D1",
          "ticks": 16260,
          "time": 59.779348,
          "velocity": 0.8503937007874016
        },
        {
          "duration": 0.22058799999999934,
          "durationTicks": 60,
          "midi": 26,
          "name": "D1",
          "ticks": 16380,
          "time": 60.220524000000005,
          "velocity": 0.7874015748031497
        },
        {
          "duration": 0.22058799999999934,
          "durationTicks": 60,
          "midi": 38,
          "name": "D2",
          "ticks": 16500,
          "time": 60.6617,
          "velocity": 0.8346456692913385
        },
        {
          "duration": 0.22058799999999934,
          "durationTicks": 60,
          "midi": 38,
          "name": "D2",
          "ticks": 16620,
          "time": 61.102876,
          "velocity": 0.7874015748031497
        },
        {
          "duration": 0.216911533333338,
          "durationTicks": 59,
          "midi": 38,
          "name": "D2",
          "ticks": 16740,
          "time": 61.544052,
          "velocity": 0.7874015748031497
        },
        {
          "duration": 0.17647040000000658,
          "durationTicks": 48,
          "midi": 31,
          "name": "G1",
          "ticks": 16800,
          "time": 61.76464,
          "velocity": 0.7874015748031497
        },
        {
          "duration": 0.22058799999999934,
          "durationTicks": 60,
          "midi": 31,
          "name": "G1",
          "ticks": 16860,
          "time": 61.985228,
          "velocity": 0.7874015748031497
        },
        {
          "duration": 0.22058799999999934,
          "durationTicks": 60,
          "midi": 31,
          "name": "G1",
          "ticks": 16980,
          "time": 62.426404000000005,
          "velocity": 0.8503937007874016
        },
        {
          "duration": 0.22058799999999934,
          "durationTicks": 60,
          "midi": 31,
          "name": "G1",
          "ticks": 17100,
          "time": 62.867580000000004,
          "velocity": 0.84251968503937
        },
        {
          "duration": 0.22058799999999934,
          "durationTicks": 60,
          "midi": 24,
          "name": "C1",
          "ticks": 17220,
          "time": 63.308756,
          "velocity": 0.8188976377952756
        },
        {
          "duration": 0.22058799999999934,
          "durationTicks": 60,
          "midi": 24,
          "name": "C1",
          "ticks": 17340,
          "time": 63.749932,
          "velocity": 0.8188976377952756
        },
        {
          "duration": 0.22058800000000645,
          "durationTicks": 60,
          "midi": 35,
          "name": "B1",
          "ticks": 17460,
          "time": 64.191108,
          "velocity": 0.8188976377952756
        },
        {
          "duration": 0.22058800000000645,
          "durationTicks": 60,
          "midi": 35,
          "name": "B1",
          "ticks": 17580,
          "time": 64.632284,
          "velocity": 0.7874015748031497
        },
        {
          "duration": 0.22058800000000645,
          "durationTicks": 60,
          "midi": 35,
          "name": "B1",
          "ticks": 17700,
          "time": 65.07346,
          "velocity": 0.8188976377952756
        },
        {
          "duration": 0.1911762666666732,
          "durationTicks": 52,
          "midi": 33,
          "name": "A1",
          "ticks": 17760,
          "time": 65.294048,
          "velocity": 0.84251968503937
        },
        {
          "duration": 0.22058800000000645,
          "durationTicks": 60,
          "midi": 33,
          "name": "A1",
          "ticks": 17820,
          "time": 65.514636,
          "velocity": 0.7874015748031497
        },
        {
          "duration": 0.22058799999999223,
          "durationTicks": 60,
          "midi": 33,
          "name": "A1",
          "ticks": 17940,
          "time": 65.95581200000001,
          "velocity": 0.8267716535433071
        },
        {
          "duration": 0.22058799999999223,
          "durationTicks": 60,
          "midi": 33,
          "name": "A1",
          "ticks": 18060,
          "time": 66.39698800000001,
          "velocity": 0.8188976377952756
        },
        {
          "duration": 0.22058799999999223,
          "durationTicks": 60,
          "midi": 26,
          "name": "D1",
          "ticks": 18180,
          "time": 66.838164,
          "velocity": 0.8267716535433071
        },
        {
          "duration": 0.22058799999999223,
          "durationTicks": 60,
          "midi": 26,
          "name": "D1",
          "ticks": 18300,
          "time": 67.27934,
          "velocity": 0.8267716535433071
        },
        {
          "duration": 0.22058799999999223,
          "durationTicks": 60,
          "midi": 38,
          "name": "D2",
          "ticks": 18420,
          "time": 67.720516,
          "velocity": 0.8031496062992126
        },
        {
          "duration": 0.22058800000000645,
          "durationTicks": 60,
          "midi": 38,
          "name": "D2",
          "ticks": 18540,
          "time": 68.161692,
          "velocity": 0.8110236220472441
        },
        {
          "duration": 0.2169115333333309,
          "durationTicks": 59,
          "midi": 38,
          "name": "D2",
          "ticks": 18660,
          "time": 68.602868,
          "velocity": 0.8267716535433071
        },
        {
          "duration": 0.17647039999999947,
          "durationTicks": 48,
          "midi": 31,
          "name": "G1",
          "ticks": 18720,
          "time": 68.82345600000001,
          "velocity": 0.7874015748031497
        },
        {
          "duration": 0.22058800000000645,
          "durationTicks": 60,
          "midi": 31,
          "name": "G1",
          "ticks": 18780,
          "time": 69.044044,
          "velocity": 0.8346456692913385
        },
        {
          "duration": 0.22058800000000645,
          "durationTicks": 60,
          "midi": 31,
          "name": "G1",
          "ticks": 18900,
          "time": 69.48522,
          "velocity": 0.8661417322834646
        },
        {
          "duration": 0.22058800000000645,
          "durationTicks": 60,
          "midi": 31,
          "name": "G1",
          "ticks": 19020,
          "time": 69.926396,
          "velocity": 0.8503937007874016
        },
        {
          "duration": 0.22058800000000645,
          "durationTicks": 60,
          "midi": 36,
          "name": "C2",
          "ticks": 19140,
          "time": 70.367572,
          "velocity": 0.8503937007874016
        },
        {
          "duration": 0.1911762666666732,
          "durationTicks": 52,
          "midi": 33,
          "name": "A1",
          "ticks": 35040,
          "time": 128.823392,
          "velocity": 0.8110236220472441
        },
        {
          "duration": 0.22058799999999223,
          "durationTicks": 60,
          "midi": 33,
          "name": "A1",
          "ticks": 35100,
          "time": 129.04398,
          "velocity": 0.8267716535433071
        },
        {
          "duration": 0.22058799999999223,
          "durationTicks": 60,
          "midi": 33,
          "name": "A1",
          "ticks": 35220,
          "time": 129.48515600000002,
          "velocity": 0.8188976377952756
        },
        {
          "duration": 0.22058799999999223,
          "durationTicks": 60,
          "midi": 33,
          "name": "A1",
          "ticks": 35340,
          "time": 129.926332,
          "velocity": 0.84251968503937
        },
        {
          "duration": 0.22058799999999223,
          "durationTicks": 60,
          "midi": 26,
          "name": "D1",
          "ticks": 35460,
          "time": 130.36750800000002,
          "velocity": 0.8188976377952756
        },
        {
          "duration": 0.22058799999999223,
          "durationTicks": 60,
          "midi": 26,
          "name": "D1",
          "ticks": 35580,
          "time": 130.808684,
          "velocity": 0.8110236220472441
        },
        {
          "duration": 0.22058799999999223,
          "durationTicks": 60,
          "midi": 38,
          "name": "D2",
          "ticks": 35700,
          "time": 131.24986,
          "velocity": 0.8188976377952756
        },
        {
          "duration": 0.22058800000002066,
          "durationTicks": 60,
          "midi": 38,
          "name": "D2",
          "ticks": 35820,
          "time": 131.691036,
          "velocity": 0.7952755905511811
        },
        {
          "duration": 0.2169115333333309,
          "durationTicks": 59,
          "midi": 38,
          "name": "D2",
          "ticks": 35940,
          "time": 132.132212,
          "velocity": 0.7874015748031497
        },
        {
          "duration": 0.17647039999999947,
          "durationTicks": 48,
          "midi": 31,
          "name": "G1",
          "ticks": 36000,
          "time": 132.3528,
          "velocity": 0.8661417322834646
        },
        {
          "duration": 0.22058800000002066,
          "durationTicks": 60,
          "midi": 31,
          "name": "G1",
          "ticks": 36060,
          "time": 132.573388,
          "velocity": 0.8188976377952756
        },
        {
          "duration": 0.22058799999999223,
          "durationTicks": 60,
          "midi": 31,
          "name": "G1",
          "ticks": 36180,
          "time": 133.014564,
          "velocity": 0.8188976377952756
        },
        {
          "duration": 0.22058800000002066,
          "durationTicks": 60,
          "midi": 31,
          "name": "G1",
          "ticks": 36300,
          "time": 133.45574,
          "velocity": 0.8188976377952756
        },
        {
          "duration": 0.22058799999999223,
          "durationTicks": 60,
          "midi": 24,
          "name": "C1",
          "ticks": 36420,
          "time": 133.896916,
          "velocity": 0.8188976377952756
        },
        {
          "duration": 0.22058799999999223,
          "durationTicks": 60,
          "midi": 24,
          "name": "C1",
          "ticks": 36540,
          "time": 134.33809200000002,
          "velocity": 0.7874015748031497
        },
        {
          "duration": 0.22058799999999223,
          "durationTicks": 60,
          "midi": 35,
          "name": "B1",
          "ticks": 36660,
          "time": 134.779268,
          "velocity": 0.8267716535433071
        },
        {
          "duration": 0.22058799999999223,
          "durationTicks": 60,
          "midi": 35,
          "name": "B1",
          "ticks": 36780,
          "time": 135.22044400000001,
          "velocity": 0.7874015748031497
        },
        {
          "duration": 0.22058799999999223,
          "durationTicks": 60,
          "midi": 35,
          "name": "B1",
          "ticks": 36900,
          "time": 135.66162,
          "velocity": 0.7874015748031497
        },
        {
          "duration": 0.1911762666666732,
          "durationTicks": 52,
          "midi": 33,
          "name": "A1",
          "ticks": 36960,
          "time": 135.882208,
          "velocity": 0.7874015748031497
        },
        {
          "duration": 0.22058799999999223,
          "durationTicks": 60,
          "midi": 33,
          "name": "A1",
          "ticks": 37020,
          "time": 136.102796,
          "velocity": 0.8346456692913385
        },
        {
          "duration": 0.22058800000002066,
          "durationTicks": 60,
          "midi": 33,
          "name": "A1",
          "ticks": 37140,
          "time": 136.543972,
          "velocity": 0.84251968503937
        },
        {
          "duration": 0.22058799999999223,
          "durationTicks": 60,
          "midi": 33,
          "name": "A1",
          "ticks": 37260,
          "time": 136.985148,
          "velocity": 0.7874015748031497
        },
        {
          "duration": 0.22058800000002066,
          "durationTicks": 60,
          "midi": 26,
          "name": "D1",
          "ticks": 37380,
          "time": 137.426324,
          "velocity": 0.8188976377952756
        },
        {
          "duration": 0.22058799999999223,
          "durationTicks": 60,
          "midi": 26,
          "name": "D1",
          "ticks": 37500,
          "time": 137.8675,
          "velocity": 0.7874015748031497
        },
        {
          "duration": 0.22058800000002066,
          "durationTicks": 60,
          "midi": 38,
          "name": "D2",
          "ticks": 37620,
          "time": 138.308676,
          "velocity": 0.8188976377952756
        },
        {
          "duration": 0.22058799999999223,
          "durationTicks": 60,
          "midi": 38,
          "name": "D2",
          "ticks": 37740,
          "time": 138.749852,
          "velocity": 0.7874015748031497
        },
        {
          "duration": 0.2169115333333309,
          "durationTicks": 59,
          "midi": 38,
          "name": "D2",
          "ticks": 37860,
          "time": 139.19102800000002,
          "velocity": 0.8346456692913385
        },
        {
          "duration": 0.17647039999997105,
          "durationTicks": 48,
          "midi": 31,
          "name": "G1",
          "ticks": 37920,
          "time": 139.411616,
          "velocity": 0.8346456692913385
        },
        {
          "duration": 0.22058799999999223,
          "durationTicks": 60,
          "midi": 31,
          "name": "G1",
          "ticks": 37980,
          "time": 139.632204,
          "velocity": 0.7874015748031497
        },
        {
          "duration": 0.22058799999999223,
          "durationTicks": 60,
          "midi": 31,
          "name": "G1",
          "ticks": 38100,
          "time": 140.07338000000001,
          "velocity": 0.8188976377952756
        },
        {
          "duration": 0.22058799999999223,
          "durationTicks": 60,
          "midi": 31,
          "name": "G1",
          "ticks": 38220,
          "time": 140.514556,
          "velocity": 0.8267716535433071
        },
        {
          "duration": 0.22058799999999223,
          "durationTicks": 60,
          "midi": 36,
          "name": "C2",
          "ticks": 38340,
          "time": 140.955732,
          "velocity": 0.8267716535433071
        },
        {
          "duration": 0.1911762666666732,
          "durationTicks": 52,
          "midi": 33,
          "name": "A1",
          "ticks": 54240,
          "time": 199.411552,
          "velocity": 0.8661417322834646
        },
        {
          "duration": 0.22058800000002066,
          "durationTicks": 60,
          "midi": 33,
          "name": "A1",
          "ticks": 54300,
          "time": 199.63214,
          "velocity": 0.84251968503937
        },
        {
          "duration": 0.22058799999999223,
          "durationTicks": 60,
          "midi": 33,
          "name": "A1",
          "ticks": 54420,
          "time": 200.073316,
          "velocity": 0.8267716535433071
        },
        {
          "duration": 0.22058799999999223,
          "durationTicks": 60,
          "midi": 33,
          "name": "A1",
          "ticks": 54540,
          "time": 200.51449200000002,
          "velocity": 0.7874015748031497
        },
        {
          "duration": 0.22058799999999223,
          "durationTicks": 60,
          "midi": 26,
          "name": "D1",
          "ticks": 54660,
          "time": 200.955668,
          "velocity": 0.8267716535433071
        },
        {
          "duration": 0.22058799999999223,
          "durationTicks": 60,
          "midi": 26,
          "name": "D1",
          "ticks": 54780,
          "time": 201.39684400000002,
          "velocity": 0.8582677165354331
        },
        {
          "duration": 0.22058799999999223,
          "durationTicks": 60,
          "midi": 38,
          "name": "D2",
          "ticks": 54900,
          "time": 201.83802,
          "velocity": 0.84251968503937
        },
        {
          "duration": 0.22058799999999223,
          "durationTicks": 60,
          "midi": 38,
          "name": "D2",
          "ticks": 55020,
          "time": 202.279196,
          "velocity": 0.8661417322834646
        },
        {
          "duration": 0.2169115333333309,
          "durationTicks": 59,
          "midi": 38,
          "name": "D2",
          "ticks": 55140,
          "time": 202.720372,
          "velocity": 0.8661417322834646
        },
        {
          "duration": 0.17647039999997105,
          "durationTicks": 48,
          "midi": 31,
          "name": "G1",
          "ticks": 55200,
          "time": 202.94096000000002,
          "velocity": 0.8110236220472441
        },
        {
          "duration": 0.22058799999999223,
          "durationTicks": 60,
          "midi": 31,
          "name": "G1",
          "ticks": 55260,
          "time": 203.161548,
          "velocity": 0.8582677165354331
        },
        {
          "duration": 0.22058800000002066,
          "durationTicks": 60,
          "midi": 31,
          "name": "G1",
          "ticks": 55380,
          "time": 203.602724,
          "velocity": 0.8503937007874016
        },
        {
          "duration": 0.22058799999999223,
          "durationTicks": 60,
          "midi": 31,
          "name": "G1",
          "ticks": 55500,
          "time": 204.0439,
          "velocity": 0.7874015748031497
        },
        {
          "duration": 0.22058800000002066,
          "durationTicks": 60,
          "midi": 24,
          "name": "C1",
          "ticks": 55620,
          "time": 204.485076,
          "velocity": 0.7874015748031497
        },
        {
          "duration": 0.22058799999999223,
          "durationTicks": 60,
          "midi": 24,
          "name": "C1",
          "ticks": 55740,
          "time": 204.926252,
          "velocity": 0.8346456692913385
        },
        {
          "duration": 0.22058799999999223,
          "durationTicks": 60,
          "midi": 35,
          "name": "B1",
          "ticks": 55860,
          "time": 205.36742800000002,
          "velocity": 0.8503937007874016
        },
        {
          "duration": 0.22058799999999223,
          "durationTicks": 60,
          "midi": 35,
          "name": "B1",
          "ticks": 55980,
          "time": 205.808604,
          "velocity": 0.7874015748031497
        },
        {
          "duration": 0.22058799999999223,
          "durationTicks": 60,
          "midi": 35,
          "name": "B1",
          "ticks": 56100,
          "time": 206.24978000000002,
          "velocity": 0.8582677165354331
        },
        {
          "duration": 0.1911762666666732,
          "durationTicks": 52,
          "midi": 33,
          "name": "A1",
          "ticks": 56160,
          "time": 206.470368,
          "velocity": 0.7874015748031497
        },
        {
          "duration": 0.22058799999999223,
          "durationTicks": 60,
          "midi": 33,
          "name": "A1",
          "ticks": 56220,
          "time": 206.690956,
          "velocity": 0.8661417322834646
        },
        {
          "duration": 0.22058799999999223,
          "durationTicks": 60,
          "midi": 33,
          "name": "A1",
          "ticks": 56340,
          "time": 207.132132,
          "velocity": 0.84251968503937
        },
        {
          "duration": 0.22058800000002066,
          "durationTicks": 60,
          "midi": 33,
          "name": "A1",
          "ticks": 56460,
          "time": 207.573308,
          "velocity": 0.8346456692913385
        },
        {
          "duration": 0.22058799999999223,
          "durationTicks": 60,
          "midi": 26,
          "name": "D1",
          "ticks": 56580,
          "time": 208.014484,
          "velocity": 0.8582677165354331
        },
        {
          "duration": 0.22058800000002066,
          "durationTicks": 60,
          "midi": 26,
          "name": "D1",
          "ticks": 56700,
          "time": 208.45566,
          "velocity": 0.8661417322834646
        },
        {
          "duration": 0.22058799999999223,
          "durationTicks": 60,
          "midi": 38,
          "name": "D2",
          "ticks": 56820,
          "time": 208.896836,
          "velocity": 0.8346456692913385
        },
        {
          "duration": 0.22058800000002066,
          "durationTicks": 60,
          "midi": 38,
          "name": "D2",
          "ticks": 56940,
          "time": 209.338012,
          "velocity": 0.8346456692913385
        },
        {
          "duration": 0.2169115333333309,
          "durationTicks": 59,
          "midi": 38,
          "name": "D2",
          "ticks": 57060,
          "time": 209.779188,
          "velocity": 0.84251968503937
        },
        {
          "duration": 0.17647039999999947,
          "durationTicks": 48,
          "midi": 31,
          "name": "G1",
          "ticks": 57120,
          "time": 209.999776,
          "velocity": 0.7874015748031497
        },
        {
          "duration": 0.22058799999999223,
          "durationTicks": 60,
          "midi": 31,
          "name": "G1",
          "ticks": 57180,
          "time": 210.22036400000002,
          "velocity": 0.8740157480314961
        },
        {
          "duration": 0.22058799999999223,
          "durationTicks": 60,
          "midi": 31,
          "name": "G1",
          "ticks": 57300,
          "time": 210.66154,
          "velocity": 0.8346456692913385
        },
        {
          "duration": 0.22058799999999223,
          "durationTicks": 60,
          "midi": 31,
          "name": "G1",
          "ticks": 57420,
          "time": 211.10271600000002,
          "velocity": 0.8267716535433071
        },
        {
          "duration": 0.22058799999999223,
          "durationTicks": 60,
          "midi": 36,
          "name": "C2",
          "ticks": 57540,
          "time": 211.543892,
          "velocity": 0.84251968503937
        },
        {
          "duration": 0.1911762666666732,
          "durationTicks": 52,
          "midi": 33,
          "name": "A1",
          "ticks": 58080,
          "time": 213.52918400000001,
          "velocity": 0.8976377952755905
        },
        {
          "duration": 0.22058799999999223,
          "durationTicks": 60,
          "midi": 33,
          "name": "A1",
          "ticks": 58140,
          "time": 213.749772,
          "velocity": 0.8503937007874016
        },
        {
          "duration": 0.22058799999999223,
          "durationTicks": 60,
          "midi": 33,
          "name": "A1",
          "ticks": 58260,
          "time": 214.19094800000002,
          "velocity": 0.8503937007874016
        },
        {
          "duration": 0.22058799999999223,
          "durationTicks": 60,
          "midi": 33,
          "name": "A1",
          "ticks": 58380,
          "time": 214.632124,
          "velocity": 0.8582677165354331
        },
        {
          "duration": 0.22058799999999223,
          "durationTicks": 60,
          "midi": 26,
          "name": "D1",
          "ticks": 58500,
          "time": 215.07330000000002,
          "velocity": 0.84251968503937
        },
        {
          "duration": 0.22058799999999223,
          "durationTicks": 60,
          "midi": 26,
          "name": "D1",
          "ticks": 58620,
          "time": 215.514476,
          "velocity": 0.84251968503937
        },
        {
          "duration": 0.22058799999999223,
          "durationTicks": 60,
          "midi": 38,
          "name": "D2",
          "ticks": 58740,
          "time": 215.95565200000001,
          "velocity": 0.8267716535433071
        },
        {
          "duration": 0.22058800000002066,
          "durationTicks": 60,
          "midi": 38,
          "name": "D2",
          "ticks": 58860,
          "time": 216.396828,
          "velocity": 0.8267716535433071
        },
        {
          "duration": 0.2169115333333309,
          "durationTicks": 59,
          "midi": 38,
          "name": "D2",
          "ticks": 58980,
          "time": 216.838004,
          "velocity": 0.7874015748031497
        },
        {
          "duration": 0.17647039999999947,
          "durationTicks": 48,
          "midi": 31,
          "name": "G1",
          "ticks": 59040,
          "time": 217.058592,
          "velocity": 0.8346456692913385
        },
        {
          "duration": 0.22058800000002066,
          "durationTicks": 60,
          "midi": 31,
          "name": "G1",
          "ticks": 59100,
          "time": 217.27918,
          "velocity": 0.8503937007874016
        },
        {
          "duration": 0.22058799999999223,
          "durationTicks": 60,
          "midi": 31,
          "name": "G1",
          "ticks": 59220,
          "time": 217.720356,
          "velocity": 0.8031496062992126
        },
        {
          "duration": 0.22058800000002066,
          "durationTicks": 60,
          "midi": 31,
          "name": "G1",
          "ticks": 59340,
          "time": 218.161532,
          "velocity": 0.7874015748031497
        },
        {
          "duration": 0.22058799999999223,
          "durationTicks": 60,
          "midi": 24,
          "name": "C1",
          "ticks": 59460,
          "time": 218.602708,
          "velocity": 0.7874015748031497
        },
        {
          "duration": 0.22058799999999223,
          "durationTicks": 60,
          "midi": 24,
          "name": "C1",
          "ticks": 59580,
          "time": 219.04388400000002,
          "velocity": 0.8503937007874016
        },
        {
          "duration": 0.22058799999999223,
          "durationTicks": 60,
          "midi": 35,
          "name": "B1",
          "ticks": 59700,
          "time": 219.48506,
          "velocity": 0.84251968503937
        },
        {
          "duration": 0.22058799999999223,
          "durationTicks": 60,
          "midi": 35,
          "name": "B1",
          "ticks": 59820,
          "time": 219.92623600000002,
          "velocity": 0.84251968503937
        },
        {
          "duration": 0.22058799999999223,
          "durationTicks": 60,
          "midi": 35,
          "name": "B1",
          "ticks": 59940,
          "time": 220.367412,
          "velocity": 0.8267716535433071
        },
        {
          "duration": 0.1911762666666732,
          "durationTicks": 52,
          "midi": 33,
          "name": "A1",
          "ticks": 60000,
          "time": 220.588,
          "velocity": 0.7874015748031497
        },
        {
          "duration": 0.22058799999999223,
          "durationTicks": 60,
          "midi": 33,
          "name": "A1",
          "ticks": 60060,
          "time": 220.80858800000001,
          "velocity": 0.8582677165354331
        },
        {
          "duration": 0.22058800000002066,
          "durationTicks": 60,
          "midi": 33,
          "name": "A1",
          "ticks": 60180,
          "time": 221.249764,
          "velocity": 0.8661417322834646
        },
        {
          "duration": 0.22058799999999223,
          "durationTicks": 60,
          "midi": 33,
          "name": "A1",
          "ticks": 60300,
          "time": 221.69094,
          "velocity": 0.8503937007874016
        },
        {
          "duration": 0.22058800000002066,
          "durationTicks": 60,
          "midi": 26,
          "name": "D1",
          "ticks": 60420,
          "time": 222.132116,
          "velocity": 0.8582677165354331
        },
        {
          "duration": 0.22058799999999223,
          "durationTicks": 60,
          "midi": 26,
          "name": "D1",
          "ticks": 60540,
          "time": 222.573292,
          "velocity": 0.8661417322834646
        },
        {
          "duration": 0.22058800000002066,
          "durationTicks": 60,
          "midi": 38,
          "name": "D2",
          "ticks": 60660,
          "time": 223.014468,
          "velocity": 0.7874015748031497
        },
        {
          "duration": 0.22058799999999223,
          "durationTicks": 60,
          "midi": 38,
          "name": "D2",
          "ticks": 60780,
          "time": 223.455644,
          "velocity": 0.7874015748031497
        },
        {
          "duration": 0.2169115333333309,
          "durationTicks": 59,
          "midi": 38,
          "name": "D2",
          "ticks": 60900,
          "time": 223.89682000000002,
          "velocity": 0.8346456692913385
        },
        {
          "duration": 0.17647039999997105,
          "durationTicks": 48,
          "midi": 31,
          "name": "G1",
          "ticks": 60960,
          "time": 224.117408,
          "velocity": 0.8661417322834646
        },
        {
          "duration": 0.22058799999999223,
          "durationTicks": 60,
          "midi": 31,
          "name": "G1",
          "ticks": 61020,
          "time": 224.337996,
          "velocity": 0.84251968503937
        },
        {
          "duration": 0.22058799999999223,
          "durationTicks": 60,
          "midi": 31,
          "name": "G1",
          "ticks": 61140,
          "time": 224.77917200000002,
          "velocity": 0.7874015748031497
        },
        {
          "duration": 0.22058799999999223,
          "durationTicks": 60,
          "midi": 31,
          "name": "G1",
          "ticks": 61260,
          "time": 225.220348,
          "velocity": 0.8188976377952756
        },
        {
          "duration": 0.22058799999999223,
          "durationTicks": 60,
          "midi": 36,
          "name": "C2",
          "ticks": 61380,
          "time": 225.66152400000001,
          "velocity": 0.889763779527559
        },
        {
          "duration": 0.22058800000002066,
          "durationTicks": 60,
          "midi": 36,
          "name": "C2",
          "ticks": 61500,
          "time": 226.1027,
          "velocity": 0.84251968503937
        },
        {
          "duration": 0.22058799999999223,
          "durationTicks": 60,
          "midi": 35,
          "name": "B1",
          "ticks": 61620,
          "time": 226.543876,
          "velocity": 0.8346456692913385
        },
        {
          "duration": 0.22058800000002066,
          "durationTicks": 60,
          "midi": 35,
          "name": "B1",
          "ticks": 61740,
          "time": 226.985052,
          "velocity": 0.84251968503937
        },
        {
          "duration": 0.6580875333333438,
          "durationTicks": 179,
          "midi": 35,
          "name": "B1",
          "ticks": 61860,
          "time": 227.426228,
          "velocity": 0.84251968503937
        },
        {
          "duration": 0.43749953333335156,
          "durationTicks": 119,
          "midi": 31,
          "name": "G1",
          "ticks": 62160,
          "time": 228.529168,
          "velocity": 0.7874015748031497
        }
      ],
      "endOfTrackTicks": 62279
    },
    {
      "channel": 0,
      "controlChanges": {
        "1": [
          {
            "number": 1,
            "ticks": 182,
            "time": 0.6691169333333333,
            "value": 0
          }
        ],
        "5": [
          {
            "number": 5,
            "ticks": 231,
            "time": 0.8492638,
            "value": 0
          }
        ],
        "7": [
          {
            "number": 7,
            "ticks": 0,
            "time": 0,
            "value": 0.7322834645669292
          }
        ],
        "10": [
          {
            "number": 10,
            "ticks": 0,
            "time": 0,
            "value": 0.3937007874015748
          }
        ],
        "11": [
          {
            "number": 11,
            "ticks": 157,
            "time": 0.5772052666666667,
            "value": 1
          }
        ],
        "64": [
          {
            "number": 64,
            "ticks": 193,
            "time": 0.7095580666666668,
            "value": 0
          }
        ],
        "65": [
          {
            "number": 65,
            "ticks": 218,
            "time": 0.8014697333333334,
            "value": 0
          }
        ],
        "91": [
          {
            "number": 91,
            "ticks": 13,
            "time": 0.04779406666666667,
            "value": 0.3937007874015748
          }
        ],
        "93": [
          {
            "number": 93,
            "ticks": 120,
            "time": 0.441176,
            "value": 0.23622047244094488
          }
        ],
        "94": [
          {
            "number": 94,
            "ticks": 136,
            "time": 0.49999946666666667,
            "value": 0.07874015748031496
          }
        ],
        "121": [
          {
            "number": 121,
            "ticks": 0,
            "time": 0,
            "value": 0
          }
        ]
      },
      "pitchBends": [
        {
          "ticks": 203,
          "time": 0.7463227333333333,
          "value": 0
        }
      ],
      "instrument": {
        "family": "piano",
        "number": 0,
        "name": "acoustic grand piano"
      },
      "name": "Piano",
      "notes": [
        {
          "duration": 1.7426452000000001,
          "durationTicks": 474,
          "midi": 45,
          "name": "A2",
          "ticks": 480,
          "time": 1.764704,
          "velocity": 0.6535433070866141
        },
        {
          "duration": 1.7426452000000001,
          "durationTicks": 474,
          "midi": 57,
          "name": "A3",
          "ticks": 480,
          "time": 1.764704,
          "velocity": 0.6535433070866141
        },
        {
          "duration": 1.7426452000000001,
          "durationTicks": 474,
          "midi": 60,
          "name": "C4",
          "ticks": 480,
          "time": 1.764704,
          "velocity": 0.6535433070866141
        },
        {
          "duration": 1.7426452000000001,
          "durationTicks": 474,
          "midi": 64,
          "name": "E4",
          "ticks": 480,
          "time": 1.764704,
          "velocity": 0.6535433070866141
        },
        {
          "duration": 1.7426452000000001,
          "durationTicks": 474,
          "midi": 50,
          "name": "D3",
          "ticks": 960,
          "time": 3.529408,
          "velocity": 0.6456692913385826
        },
        {
          "duration": 1.7426452000000001,
          "durationTicks": 474,
          "midi": 57,
          "name": "A3",
          "ticks": 960,
          "time": 3.529408,
          "velocity": 0.6456692913385826
        },
        {
          "duration": 1.7426452000000001,
          "durationTicks": 474,
          "midi": 62,
          "name": "D4",
          "ticks": 960,
          "time": 3.529408,
          "velocity": 0.6456692913385826
        },
        {
          "duration": 1.7426452000000001,
          "durationTicks": 474,
          "midi": 66,
          "name": "F#4",
          "ticks": 960,
          "time": 3.529408,
          "velocity": 0.6456692913385826
        },
        {
          "duration": 1.7426452000000001,
          "durationTicks": 474,
          "midi": 43,
          "name": "G2",
          "ticks": 1440,
          "time": 5.294112,
          "velocity": 0.6456692913385826
        },
        {
          "duration": 1.7426452000000001,
          "durationTicks": 474,
          "midi": 59,
          "name": "B3",
          "ticks": 1440,
          "time": 5.294112,
          "velocity": 0.6456692913385826
        },
        {
          "duration": 1.7426452000000001,
          "durationTicks": 474,
          "midi": 62,
          "name": "D4",
          "ticks": 1440,
          "time": 5.294112,
          "velocity": 0.6456692913385826
        },
        {
          "duration": 1.7426452000000001,
          "durationTicks": 474,
          "midi": 67,
          "name": "G4",
          "ticks": 1440,
          "time": 5.294112,
          "velocity": 0.6456692913385826
        },
        {
          "duration": 1.3235279999999996,
          "durationTicks": 360,
          "midi": 48,
          "name": "C3",
          "ticks": 1920,
          "time": 7.058816,
          "velocity": 0.6535433070866141
        },
        {
          "duration": 1.297792733333333,
          "durationTicks": 353,
          "midi": 55,
          "name": "G3",
          "ticks": 1920,
          "time": 7.058816,
          "velocity": 0.6535433070866141
        },
        {
          "duration": 1.297792733333333,
          "durationTicks": 353,
          "midi": 60,
          "name": "C4",
          "ticks": 1920,
          "time": 7.058816,
          "velocity": 0.6535433070866141
        },
        {
          "duration": 1.297792733333333,
          "durationTicks": 353,
          "midi": 64,
          "name": "E4",
          "ticks": 1920,
          "time": 7.058816,
          "velocity": 0.6535433070866141
        },
        {
          "duration": 0.4191172000000005,
          "durationTicks": 114,
          "midi": 47,
          "name": "B2",
          "ticks": 2280,
          "time": 8.382344,
          "velocity": 0.6535433070866141
        },
        {
          "duration": 0.4191172000000005,
          "durationTicks": 114,
          "midi": 59,
          "name": "B3",
          "ticks": 2280,
          "time": 8.382344,
          "velocity": 0.6535433070866141
        },
        {
          "duration": 0.4191172000000005,
          "durationTicks": 114,
          "midi": 62,
          "name": "D4",
          "ticks": 2280,
          "time": 8.382344,
          "velocity": 0.6535433070866141
        },
        {
          "duration": 1.7426452000000001,
          "durationTicks": 474,
          "midi": 45,
          "name": "A2",
          "ticks": 2400,
          "time": 8.82352,
          "velocity": 0.6535433070866141
        },
        {
          "duration": 1.7426452000000001,
          "durationTicks": 474,
          "midi": 57,
          "name": "A3",
          "ticks": 2400,
          "time": 8.82352,
          "velocity": 0.6535433070866141
        },
        {
          "duration": 1.7426452000000001,
          "durationTicks": 474,
          "midi": 60,
          "name": "C4",
          "ticks": 2400,
          "time": 8.82352,
          "velocity": 0.6535433070866141
        },
        {
          "duration": 0.8823519999999991,
          "durationTicks": 240,
          "midi": 64,
          "name": "E4",
          "ticks": 2400,
          "time": 8.82352,
          "velocity": 0.6535433070866141
        },
        {
          "duration": 0.860293200000001,
          "durationTicks": 234,
          "midi": 69,
          "name": "A4",
          "ticks": 2640,
          "time": 9.705872,
          "velocity": 0.6535433070866141
        },
        {
          "duration": 1.7426452000000001,
          "durationTicks": 474,
          "midi": 50,
          "name": "D3",
          "ticks": 2880,
          "time": 10.588224,
          "velocity": 0.6456692913385826
        },
        {
          "duration": 1.7426452000000001,
          "durationTicks": 474,
          "midi": 57,
          "name": "A3",
          "ticks": 2880,
          "time": 10.588224,
          "velocity": 0.6456692913385826
        },
        {
          "duration": 1.7426452000000001,
          "durationTicks": 474,
          "midi": 62,
          "name": "D4",
          "ticks": 2880,
          "time": 10.588224,
          "velocity": 0.6456692913385826
        },
        {
          "duration": 1.7426452000000001,
          "durationTicks": 474,
          "midi": 66,
          "name": "F#4",
          "ticks": 2880,
          "time": 10.588224,
          "velocity": 0.6456692913385826
        },
        {
          "duration": 1.7426452000000001,
          "durationTicks": 474,
          "midi": 43,
          "name": "G2",
          "ticks": 3360,
          "time": 12.352928,
          "velocity": 0.6456692913385826
        },
        {
          "duration": 0.8566167333333325,
          "durationTicks": 233,
          "midi": 59,
          "name": "B3",
          "ticks": 3360,
          "time": 12.352928,
          "velocity": 0.6456692913385826
        },
        {
          "duration": 1.7426452000000001,
          "durationTicks": 474,
          "midi": 62,
          "name": "D4",
          "ticks": 3360,
          "time": 12.352928,
          "velocity": 0.6456692913385826
        },
        {
          "duration": 1.7426452000000001,
          "durationTicks": 474,
          "midi": 67,
          "name": "G4",
          "ticks": 3360,
          "time": 12.352928,
          "velocity": 0.6456692913385826
        },
        {
          "duration": 0.860293200000001,
          "durationTicks": 234,
          "midi": 59,
          "name": "B3",
          "ticks": 3600,
          "time": 13.23528,
          "velocity": 0.6456692913385826
        },
        {
          "duration": 1.7426452000000001,
          "durationTicks": 474,
          "midi": 45,
          "name": "A2",
          "ticks": 4320,
          "time": 15.882336,
          "velocity": 0.6535433070866141
        },
        {
          "duration": 1.7426452000000001,
          "durationTicks": 474,
          "midi": 57,
          "name": "A3",
          "ticks": 4320,
          "time": 15.882336,
          "velocity": 0.6535433070866141
        },
        {
          "duration": 1.7426452000000001,
          "durationTicks": 474,
          "midi": 60,
          "name": "C4",
          "ticks": 4320,
          "time": 15.882336,
          "velocity": 0.6535433070866141
        },
        {
          "duration": 1.7426452000000001,
          "durationTicks": 474,
          "midi": 64,
          "name": "E4",
          "ticks": 4320,
          "time": 15.882336,
          "velocity": 0.6535433070866141
        },
        {
          "duration": 1.742645200000002,
          "durationTicks": 474,
          "midi": 50,
          "name": "D3",
          "ticks": 4800,
          "time": 17.64704,
          "velocity": 0.6456692913385826
        },
        {
          "duration": 1.742645200000002,
          "durationTicks": 474,
          "midi": 57,
          "name": "A3",
          "ticks": 4800,
          "time": 17.64704,
          "velocity": 0.6456692913385826
        },
        {
          "duration": 1.742645200000002,
          "durationTicks": 474,
          "midi": 62,
          "name": "D4",
          "ticks": 4800,
          "time": 17.64704,
          "velocity": 0.6456692913385826
        },
        {
          "duration": 1.742645200000002,
          "durationTicks": 474,
          "midi": 66,
          "name": "F#4",
          "ticks": 4800,
          "time": 17.64704,
          "velocity": 0.6456692913385826
        },
        {
          "duration": 1.742645200000002,
          "durationTicks": 474,
          "midi": 43,
          "name": "G2",
          "ticks": 5280,
          "time": 19.411744,
          "velocity": 0.6456692913385826
        },
        {
          "duration": 1.742645200000002,
          "durationTicks": 474,
          "midi": 59,
          "name": "B3",
          "ticks": 5280,
          "time": 19.411744,
          "velocity": 0.6456692913385826
        },
        {
          "duration": 1.742645200000002,
          "durationTicks": 474,
          "midi": 62,
          "name": "D4",
          "ticks": 5280,
          "time": 19.411744,
          "velocity": 0.6456692913385826
        },
        {
          "duration": 1.742645200000002,
          "durationTicks": 474,
          "midi": 67,
          "name": "G4",
          "ticks": 5280,
          "time": 19.411744,
          "velocity": 0.6456692913385826
        },
        {
          "duration": 1.3235279999999996,
          "durationTicks": 360,
          "midi": 48,
          "name": "C3",
          "ticks": 5760,
          "time": 21.176448,
          "velocity": 0.6535433070866141
        },
        {
          "duration": 1.2977927333333348,
          "durationTicks": 353,
          "midi": 55,
          "name": "G3",
          "ticks": 5760,
          "time": 21.176448,
          "velocity": 0.6535433070866141
        },
        {
          "duration": 1.2977927333333348,
          "durationTicks": 353,
          "midi": 60,
          "name": "C4",
          "ticks": 5760,
          "time": 21.176448,
          "velocity": 0.6535433070866141
        },
        {
          "duration": 1.2977927333333348,
          "durationTicks": 353,
          "midi": 64,
          "name": "E4",
          "ticks": 5760,
          "time": 21.176448,
          "velocity": 0.6535433070866141
        },
        {
          "duration": 0.4191172000000023,
          "durationTicks": 114,
          "midi": 47,
          "name": "B2",
          "ticks": 6120,
          "time": 22.499976,
          "velocity": 0.5275590551181102
        },
        {
          "duration": 0.4191172000000023,
          "durationTicks": 114,
          "midi": 59,
          "name": "B3",
          "ticks": 6120,
          "time": 22.499976,
          "velocity": 0.5275590551181102
        },
        {
          "duration": 0.4191172000000023,
          "durationTicks": 114,
          "midi": 62,
          "name": "D4",
          "ticks": 6120,
          "time": 22.499976,
          "velocity": 0.5275590551181102
        },
        {
          "duration": 1.7426451999999983,
          "durationTicks": 474,
          "midi": 45,
          "name": "A2",
          "ticks": 6240,
          "time": 22.941152000000002,
          "velocity": 0.6535433070866141
        },
        {
          "duration": 1.7426451999999983,
          "durationTicks": 474,
          "midi": 57,
          "name": "A3",
          "ticks": 6240,
          "time": 22.941152000000002,
          "velocity": 0.6535433070866141
        },
        {
          "duration": 1.7426451999999983,
          "durationTicks": 474,
          "midi": 60,
          "name": "C4",
          "ticks": 6240,
          "time": 22.941152000000002,
          "velocity": 0.6535433070866141
        },
        {
          "duration": 0.8823519999999974,
          "durationTicks": 240,
          "midi": 64,
          "name": "E4",
          "ticks": 6240,
          "time": 22.941152000000002,
          "velocity": 0.6535433070866141
        },
        {
          "duration": 0.860293200000001,
          "durationTicks": 234,
          "midi": 69,
          "name": "A4",
          "ticks": 6480,
          "time": 23.823504,
          "velocity": 0.6535433070866141
        },
        {
          "duration": 1.742645200000002,
          "durationTicks": 474,
          "midi": 50,
          "name": "D3",
          "ticks": 6720,
          "time": 24.705856,
          "velocity": 0.6456692913385826
        },
        {
          "duration": 1.742645200000002,
          "durationTicks": 474,
          "midi": 57,
          "name": "A3",
          "ticks": 6720,
          "time": 24.705856,
          "velocity": 0.6456692913385826
        },
        {
          "duration": 1.742645200000002,
          "durationTicks": 474,
          "midi": 62,
          "name": "D4",
          "ticks": 6720,
          "time": 24.705856,
          "velocity": 0.6456692913385826
        },
        {
          "duration": 1.742645200000002,
          "durationTicks": 474,
          "midi": 66,
          "name": "F#4",
          "ticks": 6720,
          "time": 24.705856,
          "velocity": 0.6456692913385826
        },
        {
          "duration": 1.742645200000002,
          "durationTicks": 474,
          "midi": 43,
          "name": "G2",
          "ticks": 7200,
          "time": 26.47056,
          "velocity": 0.6456692913385826
        },
        {
          "duration": 0.8566167333333361,
          "durationTicks": 233,
          "midi": 59,
          "name": "B3",
          "ticks": 7200,
          "time": 26.47056,
          "velocity": 0.6456692913385826
        },
        {
          "duration": 1.742645200000002,
          "durationTicks": 474,
          "midi": 62,
          "name": "D4",
          "ticks": 7200,
          "time": 26.47056,
          "velocity": 0.6456692913385826
        },
        {
          "duration": 1.742645200000002,
          "durationTicks": 474,
          "midi": 67,
          "name": "G4",
          "ticks": 7200,
          "time": 26.47056,
          "velocity": 0.6456692913385826
        },
        {
          "duration": 0.860293200000001,
          "durationTicks": 234,
          "midi": 59,
          "name": "B3",
          "ticks": 7440,
          "time": 27.352912,
          "velocity": 0.6456692913385826
        },
        {
          "duration": 1.3235279999999996,
          "durationTicks": 360,
          "midi": 48,
          "name": "C3",
          "ticks": 7680,
          "time": 28.235264,
          "velocity": 0.6535433070866141
        },
        {
          "duration": 1.2977927333333312,
          "durationTicks": 353,
          "midi": 55,
          "name": "G3",
          "ticks": 7680,
          "time": 28.235264,
          "velocity": 0.6535433070866141
        },
        {
          "duration": 1.2977927333333312,
          "durationTicks": 353,
          "midi": 60,
          "name": "C4",
          "ticks": 7680,
          "time": 28.235264,
          "velocity": 0.6535433070866141
        },
        {
          "duration": 1.2977927333333312,
          "durationTicks": 353,
          "midi": 64,
          "name": "E4",
          "ticks": 7680,
          "time": 28.235264,
          "velocity": 0.6535433070866141
        },
        {
          "duration": 0.4191172000000023,
          "durationTicks": 114,
          "midi": 47,
          "name": "B2",
          "ticks": 8040,
          "time": 29.558792,
          "velocity": 0.5590551181102362
        },
        {
          "duration": 0.4191172000000023,
          "durationTicks": 114,
          "midi": 59,
          "name": "B3",
          "ticks": 8040,
          "time": 29.558792,
          "velocity": 0.5590551181102362
        },
        {
          "duration": 0.4191172000000023,
          "durationTicks": 114,
          "midi": 62,
          "name": "D4",
          "ticks": 8040,
          "time": 29.558792,
          "velocity": 0.5590551181102362
        },
        {
          "duration": 1.7426451999999983,
          "durationTicks": 474,
          "midi": 45,
          "name": "A2",
          "ticks": 8160,
          "time": 29.999968000000003,
          "velocity": 0.7007874015748031
        },
        {
          "duration": 0.6397051999999981,
          "durationTicks": 174,
          "midi": 57,
          "name": "A3",
          "ticks": 8160,
          "time": 29.999968000000003,
          "velocity": 0.7007874015748031
        },
        {
          "duration": 0.860293200000001,
          "durationTicks": 234,
          "midi": 60,
          "name": "C4",
          "ticks": 8160,
          "time": 29.999968000000003,
          "velocity": 0.7007874015748031
        },
        {
          "duration": 0.860293200000001,
          "durationTicks": 234,
          "midi": 64,
          "name": "E4",
          "ticks": 8160,
          "time": 29.999968000000003,
          "velocity": 0.7007874015748031
        },
        {
          "duration": 1.073528266666667,
          "durationTicks": 292,
          "midi": 57,
          "name": "A3",
          "ticks": 8340,
          "time": 30.661732,
          "velocity": 0.7007874015748031
        },
        {
          "duration": 0.860293200000001,
          "durationTicks": 234,
          "midi": 69,
          "name": "A4",
          "ticks": 8400,
          "time": 30.88232,
          "velocity": 0.7007874015748031
        },
        {
          "duration": 0.860293200000001,
          "durationTicks": 234,
          "midi": 60,
          "name": "C4",
          "ticks": 8400,
          "time": 30.88232,
          "velocity": 0.7007874015748031
        },
        {
          "duration": 0.860293200000001,
          "durationTicks": 234,
          "midi": 64,
          "name": "E4",
          "ticks": 8400,
          "time": 30.88232,
          "velocity": 0.7007874015748031
        },
        {
          "duration": 0.6397051999999981,
          "durationTicks": 174,
          "midi": 50,
          "name": "D3",
          "ticks": 8640,
          "time": 31.764672,
          "velocity": 0.6929133858267716
        },
        {
          "duration": 0.41911719999999875,
          "durationTicks": 114,
          "midi": 57,
          "name": "A3",
          "ticks": 8640,
          "time": 31.764672,
          "velocity": 0.6929133858267716
        },
        {
          "duration": 1.742645200000002,
          "durationTicks": 474,
          "midi": 62,
          "name": "D4",
          "ticks": 8640,
          "time": 31.764672,
          "velocity": 0.6929133858267716
        },
        {
          "duration": 1.742645200000002,
          "durationTicks": 474,
          "midi": 66,
          "name": "F#4",
          "ticks": 8640,
          "time": 31.764672,
          "velocity": 0.6929133858267716
        },
        {
          "duration": 0.4411759999999987,
          "durationTicks": 120,
          "midi": 57,
          "name": "A3",
          "ticks": 8760,
          "time": 32.205848,
          "velocity": 0.6929133858267716
        },
        {
          "duration": 1.0808812000000003,
          "durationTicks": 294,
          "midi": 50,
          "name": "D3",
          "ticks": 8820,
          "time": 32.426436,
          "velocity": 0.6929133858267716
        },
        {
          "duration": 0.4411759999999987,
          "durationTicks": 120,
          "midi": 59,
          "name": "B3",
          "ticks": 8880,
          "time": 32.647024,
          "velocity": 0.6929133858267716
        },
        {
          "duration": 0.4191172000000023,
          "durationTicks": 114,
          "midi": 60,
          "name": "C4",
          "ticks": 9000,
          "time": 33.0882,
          "velocity": 0.6929133858267716
        },
        {
          "duration": 0.6360287333333332,
          "durationTicks": 173,
          "midi": 55,
          "name": "G3",
          "ticks": 9060,
          "time": 33.308788,
          "velocity": 0.6929133858267716
        },
        {
          "duration": 1.7426452000000054,
          "durationTicks": 474,
          "midi": 43,
          "name": "G2",
          "ticks": 9120,
          "time": 33.529376,
          "velocity": 0.6929133858267716
        },
        {
          "duration": 0.8823520000000045,
          "durationTicks": 240,
          "midi": 59,
          "name": "B3",
          "ticks": 9120,
          "time": 33.529376,
          "velocity": 0.6929133858267716
        },
        {
          "duration": 1.7426452000000054,
          "durationTicks": 474,
          "midi": 62,
          "name": "D4",
          "ticks": 9120,
          "time": 33.529376,
          "velocity": 0.6929133858267716
        },
        {
          "duration": 1.7426452000000054,
          "durationTicks": 474,
          "midi": 67,
          "name": "G4",
          "ticks": 9120,
          "time": 33.529376,
          "velocity": 0.6929133858267716
        },
        {
          "duration": 1.3014692000000068,
          "durationTicks": 354,
          "midi": 55,
          "name": "G3",
          "ticks": 9240,
          "time": 33.970552,
          "velocity": 0.6929133858267716
        },
        {
          "duration": 1.0808812000000003,
          "durationTicks": 294,
          "midi": 47,
          "name": "B2",
          "ticks": 9300,
          "time": 34.191140000000004,
          "velocity": 0.6929133858267716
        },
        {
          "duration": 0.860293200000001,
          "durationTicks": 234,
          "midi": 57,
          "name": "A3",
          "ticks": 9360,
          "time": 34.411728000000004,
          "velocity": 0.6929133858267716
        },
        {
          "duration": 1.3235280000000031,
          "durationTicks": 360,
          "midi": 48,
          "name": "C3",
          "ticks": 9600,
          "time": 35.29408,
          "velocity": 0.7007874015748031
        },
        {
          "duration": 1.2977927333333312,
          "durationTicks": 353,
          "midi": 55,
          "name": "G3",
          "ticks": 9600,
          "time": 35.29408,
          "velocity": 0.7007874015748031
        },
        {
          "duration": 0.6323522666666719,
          "durationTicks": 172,
          "midi": 60,
          "name": "C4",
          "ticks": 9600,
          "time": 35.29408,
          "velocity": 0.7007874015748031
        },
        {
          "duration": 1.2977927333333312,
          "durationTicks": 353,
          "midi": 64,
          "name": "E4",
          "ticks": 9600,
          "time": 35.29408,
          "velocity": 0.7007874015748031
        },
        {
          "duration": 0.6360287333333332,
          "durationTicks": 173,
          "midi": 60,
          "name": "C4",
          "ticks": 9780,
          "time": 35.955844,
          "velocity": 0.7007874015748031
        },
        {
          "duration": 0.4191172000000023,
          "durationTicks": 114,
          "midi": 72,
          "name": "C5",
          "ticks": 9840,
          "time": 36.176432,
          "velocity": 0.7007874015748031
        },
        {
          "duration": 0.4191171999999952,
          "durationTicks": 114,
          "midi": 47,
          "name": "B2",
          "ticks": 9960,
          "time": 36.617608000000004,
          "velocity": 0.7007874015748031
        },
        {
          "duration": 0.4191171999999952,
          "durationTicks": 114,
          "midi": 59,
          "name": "B3",
          "ticks": 9960,
          "time": 36.617608000000004,
          "velocity": 0.7007874015748031
        },
        {
          "duration": 0.4191171999999952,
          "durationTicks": 114,
          "midi": 71,
          "name": "B4",
          "ticks": 9960,
          "time": 36.617608000000004,
          "velocity": 0.7007874015748031
        },
        {
          "duration": 1.7426451999999983,
          "durationTicks": 474,
          "midi": 45,
          "name": "A2",
          "ticks": 10080,
          "time": 37.058784,
          "velocity": 0.7007874015748031
        },
        {
          "duration": 0.8529402666666641,
          "durationTicks": 232,
          "midi": 60,
          "name": "C4",
          "ticks": 10080,
          "time": 37.058784,
          "velocity": 0.7007874015748031
        },
        {
          "duration": 0.8529402666666641,
          "durationTicks": 232,
          "midi": 64,
          "name": "E4",
          "ticks": 10080,
          "time": 37.058784,
          "velocity": 0.7007874015748031
        },
        {
          "duration": 0.8529402666666641,
          "durationTicks": 232,
          "midi": 69,
          "name": "A4",
          "ticks": 10080,
          "time": 37.058784,
          "velocity": 0.7007874015748031
        },
        {
          "duration": 0.4191172000000023,
          "durationTicks": 114,
          "midi": 57,
          "name": "A3",
          "ticks": 10200,
          "time": 37.49996,
          "velocity": 0.7007874015748031
        },
        {
          "duration": 0.19485273333333453,
          "durationTicks": 53,
          "midi": 52,
          "name": "E3",
          "ticks": 10260,
          "time": 37.720548,
          "velocity": 0.7007874015748031
        },
        {
          "duration": 0.860293200000001,
          "durationTicks": 234,
          "midi": 48,
          "name": "C3",
          "ticks": 10320,
          "time": 37.941136,
          "velocity": 0.7007874015748031
        },
        {
          "duration": 0.6323522666666719,
          "durationTicks": 172,
          "midi": 52,
          "name": "E3",
          "ticks": 10320,
          "time": 37.941136,
          "velocity": 0.7007874015748031
        },
        {
          "duration": 0.41176426666667254,
          "durationTicks": 112,
          "midi": 57,
          "name": "A3",
          "ticks": 10320,
          "time": 37.941136,
          "velocity": 0.7007874015748031
        },
        {
          "duration": 0.4191172000000023,
          "durationTicks": 114,
          "midi": 57,
          "name": "A3",
          "ticks": 10440,
          "time": 38.382312,
          "velocity": 0.7007874015748031
        },
        {
          "duration": 0.19852920000000296,
          "durationTicks": 54,
          "midi": 52,
          "name": "E3",
          "ticks": 10500,
          "time": 38.6029,
          "velocity": 0.7007874015748031
        },
        {
          "duration": 1.7426452000000054,
          "durationTicks": 474,
          "midi": 38,
          "name": "D2",
          "ticks": 10560,
          "time": 38.823488,
          "velocity": 0.6929133858267716
        },
        {
          "duration": 0.4411760000000058,
          "durationTicks": 120,
          "midi": 57,
          "name": "A3",
          "ticks": 10560,
          "time": 38.823488,
          "velocity": 0.6929133858267716
        },
        {
          "duration": 1.2977927333333383,
          "durationTicks": 353,
          "midi": 62,
          "name": "D4",
          "ticks": 10560,
          "time": 38.823488,
          "velocity": 0.6929133858267716
        },
        {
          "duration": 1.3235280000000031,
          "durationTicks": 360,
          "midi": 66,
          "name": "F#4",
          "ticks": 10560,
          "time": 38.823488,
          "velocity": 0.6929133858267716
        },
        {
          "duration": 0.41176426666666543,
          "durationTicks": 112,
          "midi": 59,
          "name": "B3",
          "ticks": 10680,
          "time": 39.264664,
          "velocity": 0.6929133858267716
        },
        {
          "duration": 0.4411759999999987,
          "durationTicks": 120,
          "midi": 59,
          "name": "B3",
          "ticks": 10800,
          "time": 39.70584,
          "velocity": 0.6929133858267716
        },
        {
          "duration": 0.4191172000000023,
          "durationTicks": 114,
          "midi": 60,
          "name": "C4",
          "ticks": 10920,
          "time": 40.147016,
          "velocity": 0.6929133858267716
        },
        {
          "duration": 0.4191172000000023,
          "durationTicks": 114,
          "midi": 62,
          "name": "D4",
          "ticks": 10920,
          "time": 40.147016,
          "velocity": 0.6929133858267716
        },
        {
          "duration": 0.4191172000000023,
          "durationTicks": 114,
          "midi": 67,
          "name": "G4",
          "ticks": 10920,
          "time": 40.147016,
          "velocity": 0.6929133858267716
        },
        {
          "duration": 1.3235280000000031,
          "durationTicks": 360,
          "midi": 43,
          "name": "G2",
          "ticks": 11040,
          "time": 40.588192,
          "velocity": 0.6929133858267716
        },
        {
          "duration": 1.7426452000000054,
          "durationTicks": 474,
          "midi": 59,
          "name": "B3",
          "ticks": 11040,
          "time": 40.588192,
          "velocity": 0.6929133858267716
        },
        {
          "duration": 1.7426452000000054,
          "durationTicks": 474,
          "midi": 62,
          "name": "D4",
          "ticks": 11040,
          "time": 40.588192,
          "velocity": 0.6929133858267716
        },
        {
          "duration": 1.7426452000000054,
          "durationTicks": 474,
          "midi": 67,
          "name": "G4",
          "ticks": 11040,
          "time": 40.588192,
          "velocity": 0.6929133858267716
        },
        {
          "duration": 1.069851799999995,
          "durationTicks": 291,
          "midi": 55,
          "name": "G3",
          "ticks": 11220,
          "time": 41.249956000000005,
          "velocity": 0.6929133858267716
        },
        {
          "duration": 0.4191172000000023,
          "durationTicks": 114,
          "midi": 47,
          "name": "B2",
          "ticks": 11400,
          "time": 41.91172,
          "velocity": 0.6929133858267716
        },
        {
          "duration": 0.8566167333333325,
          "durationTicks": 233,
          "midi": 48,
          "name": "C3",
          "ticks": 11520,
          "time": 42.352896,
          "velocity": 0.7007874015748031
        },
        {
          "duration": 1.2977927333333312,
          "durationTicks": 353,
          "midi": 55,
          "name": "G3",
          "ticks": 11520,
          "time": 42.352896,
          "velocity": 0.7007874015748031
        },
        {
          "duration": 1.2977927333333312,
          "durationTicks": 353,
          "midi": 60,
          "name": "C4",
          "ticks": 11520,
          "time": 42.352896,
          "velocity": 0.7007874015748031
        },
        {
          "duration": 1.2977927333333312,
          "durationTicks": 353,
          "midi": 64,
          "name": "E4",
          "ticks": 11520,
          "time": 42.352896,
          "velocity": 0.7007874015748031
        },
        {
          "duration": 0.4411760000000058,
          "durationTicks": 120,
          "midi": 48,
          "name": "C3",
          "ticks": 11760,
          "time": 43.235248,
          "velocity": 0.7007874015748031
        },
        {
          "duration": 0.4191172000000023,
          "durationTicks": 114,
          "midi": 72,
          "name": "C5",
          "ticks": 11760,
          "time": 43.235248,
          "velocity": 0.7007874015748031
        },
        {
          "duration": 0.4191171999999952,
          "durationTicks": 114,
          "midi": 47,
          "name": "B2",
          "ticks": 11880,
          "time": 43.676424000000004,
          "velocity": 0.7007874015748031
        },
        {
          "duration": 0.4191171999999952,
          "durationTicks": 114,
          "midi": 59,
          "name": "B3",
          "ticks": 11880,
          "time": 43.676424000000004,
          "velocity": 0.7007874015748031
        },
        {
          "duration": 0.4191171999999952,
          "durationTicks": 114,
          "midi": 71,
          "name": "B4",
          "ticks": 11880,
          "time": 43.676424000000004,
          "velocity": 0.7007874015748031
        },
        {
          "duration": 1.7426451999999983,
          "durationTicks": 474,
          "midi": 50,
          "name": "D3",
          "ticks": 20160,
          "time": 74.117568,
          "velocity": 0.6929133858267716
        },
        {
          "duration": 1.7426451999999983,
          "durationTicks": 474,
          "midi": 57,
          "name": "A3",
          "ticks": 20160,
          "time": 74.117568,
          "velocity": 0.6929133858267716
        },
        {
          "duration": 1.7426451999999983,
          "durationTicks": 474,
          "midi": 62,
          "name": "D4",
          "ticks": 20160,
          "time": 74.117568,
          "velocity": 0.6929133858267716
        },
        {
          "duration": 1.7426451999999983,
          "durationTicks": 474,
          "midi": 66,
          "name": "F#4",
          "ticks": 20160,
          "time": 74.117568,
          "velocity": 0.6929133858267716
        },
        {
          "duration": 1.7426451999999983,
          "durationTicks": 474,
          "midi": 43,
          "name": "G2",
          "ticks": 20640,
          "time": 75.882272,
          "velocity": 0.6929133858267716
        },
        {
          "duration": 1.7426451999999983,
          "durationTicks": 474,
          "midi": 59,
          "name": "B3",
          "ticks": 20640,
          "time": 75.882272,
          "velocity": 0.6929133858267716
        },
        {
          "duration": 1.7426451999999983,
          "durationTicks": 474,
          "midi": 62,
          "name": "D4",
          "ticks": 20640,
          "time": 75.882272,
          "velocity": 0.6929133858267716
        },
        {
          "duration": 1.7426451999999983,
          "durationTicks": 474,
          "midi": 67,
          "name": "G4",
          "ticks": 20640,
          "time": 75.882272,
          "velocity": 0.6929133858267716
        },
        {
          "duration": 1.3235280000000103,
          "durationTicks": 360,
          "midi": 48,
          "name": "C3",
          "ticks": 21120,
          "time": 77.646976,
          "velocity": 0.7007874015748031
        },
        {
          "duration": 1.2977927333333383,
          "durationTicks": 353,
          "midi": 55,
          "name": "G3",
          "ticks": 21120,
          "time": 77.646976,
          "velocity": 0.7007874015748031
        },
        {
          "duration": 1.2977927333333383,
          "durationTicks": 353,
          "midi": 60,
          "name": "C4",
          "ticks": 21120,
          "time": 77.646976,
          "velocity": 0.7007874015748031
        },
        {
          "duration": 1.2977927333333383,
          "durationTicks": 353,
          "midi": 64,
          "name": "E4",
          "ticks": 21120,
          "time": 77.646976,
          "velocity": 0.7007874015748031
        },
        {
          "duration": 0.4191171999999881,
          "durationTicks": 114,
          "midi": 47,
          "name": "B2",
          "ticks": 21480,
          "time": 78.970504,
          "velocity": 0.7007874015748031
        },
        {
          "duration": 0.4191171999999881,
          "durationTicks": 114,
          "midi": 59,
          "name": "B3",
          "ticks": 21480,
          "time": 78.970504,
          "velocity": 0.7007874015748031
        },
        {
          "duration": 0.4191171999999881,
          "durationTicks": 114,
          "midi": 62,
          "name": "D4",
          "ticks": 21480,
          "time": 78.970504,
          "velocity": 0.7007874015748031
        },
        {
          "duration": 1.7426451999999983,
          "durationTicks": 474,
          "midi": 45,
          "name": "A2",
          "ticks": 21600,
          "time": 79.41168,
          "velocity": 0.7007874015748031
        },
        {
          "duration": 1.7279393333333246,
          "durationTicks": 470,
          "midi": 60,
          "name": "C4",
          "ticks": 21600,
          "time": 79.41168,
          "velocity": 0.7007874015748031
        },
        {
          "duration": 1.7279393333333246,
          "durationTicks": 470,
          "midi": 52,
          "name": "E3",
          "ticks": 21600,
          "time": 79.41168,
          "velocity": 0.7007874015748031
        },
        {
          "duration": 1.7279393333333246,
          "durationTicks": 470,
          "midi": 57,
          "name": "A3",
          "ticks": 21600,
          "time": 79.41168,
          "velocity": 0.7007874015748031
        },
        {
          "duration": 0.8566167333333397,
          "durationTicks": 233,
          "midi": 69,
          "name": "A4",
          "ticks": 21840,
          "time": 80.294032,
          "velocity": 0.7007874015748031
        },
        {
          "duration": 1.7426451999999983,
          "durationTicks": 474,
          "midi": 38,
          "name": "D2",
          "ticks": 22080,
          "time": 81.176384,
          "velocity": 0.6929133858267716
        },
        {
          "duration": 1.7352922666666757,
          "durationTicks": 472,
          "midi": 57,
          "name": "A3",
          "ticks": 22080,
          "time": 81.176384,
          "velocity": 0.6929133858267716
        },
        {
          "duration": 1.7279393333333388,
          "durationTicks": 470,
          "midi": 62,
          "name": "D4",
          "ticks": 22080,
          "time": 81.176384,
          "velocity": 0.6929133858267716
        },
        {
          "duration": 1.7352922666666757,
          "durationTicks": 472,
          "midi": 66,
          "name": "F#4",
          "ticks": 22080,
          "time": 81.176384,
          "velocity": 0.6929133858267716
        },
        {
          "duration": 1.7426451999999841,
          "durationTicks": 474,
          "midi": 43,
          "name": "G2",
          "ticks": 22560,
          "time": 82.94108800000001,
          "velocity": 0.6929133858267716
        },
        {
          "duration": 1.7426451999999841,
          "durationTicks": 474,
          "midi": 59,
          "name": "B3",
          "ticks": 22560,
          "time": 82.94108800000001,
          "velocity": 0.6929133858267716
        },
        {
          "duration": 1.7426451999999841,
          "durationTicks": 474,
          "midi": 62,
          "name": "D4",
          "ticks": 22560,
          "time": 82.94108800000001,
          "velocity": 0.6929133858267716
        },
        {
          "duration": 1.7426451999999841,
          "durationTicks": 474,
          "midi": 67,
          "name": "G4",
          "ticks": 22560,
          "time": 82.94108800000001,
          "velocity": 0.6929133858267716
        },
        {
          "duration": 1.7426451999999983,
          "durationTicks": 474,
          "midi": 45,
          "name": "A2",
          "ticks": 23520,
          "time": 86.470496,
          "velocity": 0.7007874015748031
        },
        {
          "duration": 0.6397051999999945,
          "durationTicks": 174,
          "midi": 57,
          "name": "A3",
          "ticks": 23520,
          "time": 86.470496,
          "velocity": 0.7007874015748031
        },
        {
          "duration": 0.860293200000001,
          "durationTicks": 234,
          "midi": 60,
          "name": "C4",
          "ticks": 23520,
          "time": 86.470496,
          "velocity": 0.7007874015748031
        },
        {
          "duration": 0.860293200000001,
          "durationTicks": 234,
          "midi": 64,
          "name": "E4",
          "ticks": 23520,
          "time": 86.470496,
          "velocity": 0.7007874015748031
        },
        {
          "duration": 1.0735282666666706,
          "durationTicks": 292,
          "midi": 57,
          "name": "A3",
          "ticks": 23700,
          "time": 87.13226,
          "velocity": 0.7007874015748031
        },
        {
          "duration": 0.8602931999999868,
          "durationTicks": 234,
          "midi": 69,
          "name": "A4",
          "ticks": 23760,
          "time": 87.35284800000001,
          "velocity": 0.7007874015748031
        },
        {
          "duration": 0.8602931999999868,
          "durationTicks": 234,
          "midi": 60,
          "name": "C4",
          "ticks": 23760,
          "time": 87.35284800000001,
          "velocity": 0.7007874015748031
        },
        {
          "duration": 0.8602931999999868,
          "durationTicks": 234,
          "midi": 64,
          "name": "E4",
          "ticks": 23760,
          "time": 87.35284800000001,
          "velocity": 0.7007874015748031
        },
        {
          "duration": 0.6397051999999945,
          "durationTicks": 174,
          "midi": 50,
          "name": "D3",
          "ticks": 24000,
          "time": 88.2352,
          "velocity": 0.6929133858267716
        },
        {
          "duration": 0.4191171999999881,
          "durationTicks": 114,
          "midi": 57,
          "name": "A3",
          "ticks": 24000,
          "time": 88.2352,
          "velocity": 0.6929133858267716
        },
        {
          "duration": 1.7426451999999983,
          "durationTicks": 474,
          "midi": 62,
          "name": "D4",
          "ticks": 24000,
          "time": 88.2352,
          "velocity": 0.6929133858267716
        },
        {
          "duration": 1.7426451999999983,
          "durationTicks": 474,
          "midi": 66,
          "name": "F#4",
          "ticks": 24000,
          "time": 88.2352,
          "velocity": 0.6929133858267716
        },
        {
          "duration": 0.4411759999999987,
          "durationTicks": 120,
          "midi": 57,
          "name": "A3",
          "ticks": 24120,
          "time": 88.676376,
          "velocity": 0.6929133858267716
        },
        {
          "duration": 1.0808812000000074,
          "durationTicks": 294,
          "midi": 50,
          "name": "D3",
          "ticks": 24180,
          "time": 88.896964,
          "velocity": 0.6929133858267716
        },
        {
          "duration": 0.4411759999999987,
          "durationTicks": 120,
          "midi": 59,
          "name": "B3",
          "ticks": 24240,
          "time": 89.117552,
          "velocity": 0.6929133858267716
        },
        {
          "duration": 0.4191172000000023,
          "durationTicks": 114,
          "midi": 60,
          "name": "C4",
          "ticks": 24360,
          "time": 89.558728,
          "velocity": 0.6929133858267716
        },
        {
          "duration": 0.636028733333319,
          "durationTicks": 173,
          "midi": 55,
          "name": "G3",
          "ticks": 24420,
          "time": 89.77931600000001,
          "velocity": 0.6929133858267716
        },
        {
          "duration": 1.7426451999999983,
          "durationTicks": 474,
          "midi": 43,
          "name": "G2",
          "ticks": 24480,
          "time": 89.999904,
          "velocity": 0.6929133858267716
        },
        {
          "duration": 0.8823519999999974,
          "durationTicks": 240,
          "midi": 59,
          "name": "B3",
          "ticks": 24480,
          "time": 89.999904,
          "velocity": 0.6929133858267716
        },
        {
          "duration": 1.7426451999999983,
          "durationTicks": 474,
          "midi": 62,
          "name": "D4",
          "ticks": 24480,
          "time": 89.999904,
          "velocity": 0.6929133858267716
        },
        {
          "duration": 1.7426451999999983,
          "durationTicks": 474,
          "midi": 67,
          "name": "G4",
          "ticks": 24480,
          "time": 89.999904,
          "velocity": 0.6929133858267716
        },
        {
          "duration": 1.0772047333333319,
          "durationTicks": 293,
          "midi": 55,
          "name": "G3",
          "ticks": 24600,
          "time": 90.44108,
          "velocity": 0.6929133858267716
        },
        {
          "duration": 1.0808811999999932,
          "durationTicks": 294,
          "midi": 47,
          "name": "B2",
          "ticks": 24660,
          "time": 90.661668,
          "velocity": 0.6929133858267716
        },
        {
          "duration": 0.6360287333333332,
          "durationTicks": 173,
          "midi": 57,
          "name": "A3",
          "ticks": 24720,
          "time": 90.882256,
          "velocity": 0.6929133858267716
        },
        {
          "duration": 1.5183807333333306,
          "durationTicks": 413,
          "midi": 55,
          "name": "G3",
          "ticks": 24900,
          "time": 91.54402,
          "velocity": 0.7007874015748031
        },
        {
          "duration": 0.742646266666668,
          "durationTicks": 202,
          "midi": 60,
          "name": "C4",
          "ticks": 24930,
          "time": 91.654314,
          "velocity": 0.7007874015748031
        },
        {
          "duration": 1.323527999999996,
          "durationTicks": 360,
          "midi": 48,
          "name": "C3",
          "ticks": 24960,
          "time": 91.76460800000001,
          "velocity": 0.7007874015748031
        },
        {
          "duration": 0.8602931999999868,
          "durationTicks": 234,
          "midi": 64,
          "name": "E4",
          "ticks": 24960,
          "time": 91.76460800000001,
          "velocity": 0.7007874015748031
        },
        {
          "duration": 0.19852919999999585,
          "durationTicks": 54,
          "midi": 60,
          "name": "C4",
          "ticks": 25140,
          "time": 92.426372,
          "velocity": 0.7007874015748031
        },
        {
          "duration": 0.41544073333332676,
          "durationTicks": 113,
          "midi": 60,
          "name": "C4",
          "ticks": 25200,
          "time": 92.64696,
          "velocity": 0.7007874015748031
        },
        {
          "duration": 0.41544073333332676,
          "durationTicks": 113,
          "midi": 64,
          "name": "E4",
          "ticks": 25200,
          "time": 92.64696,
          "velocity": 0.7007874015748031
        },
        {
          "duration": 0.4191171999999881,
          "durationTicks": 114,
          "midi": 47,
          "name": "B2",
          "ticks": 25320,
          "time": 93.088136,
          "velocity": 0.7007874015748031
        },
        {
          "duration": 0.4191171999999881,
          "durationTicks": 114,
          "midi": 59,
          "name": "B3",
          "ticks": 25320,
          "time": 93.088136,
          "velocity": 0.7007874015748031
        },
        {
          "duration": 0.4191171999999881,
          "durationTicks": 114,
          "midi": 62,
          "name": "D4",
          "ticks": 25320,
          "time": 93.088136,
          "velocity": 0.7007874015748031
        },
        {
          "duration": 1.7426451999999983,
          "durationTicks": 474,
          "midi": 45,
          "name": "A2",
          "ticks": 25440,
          "time": 93.529312,
          "velocity": 0.7007874015748031
        },
        {
          "duration": 0.8602931999999868,
          "durationTicks": 234,
          "midi": 57,
          "name": "A3",
          "ticks": 25440,
          "time": 93.529312,
          "velocity": 0.7007874015748031
        },
        {
          "duration": 0.6249993333333208,
          "durationTicks": 170,
          "midi": 60,
          "name": "C4",
          "ticks": 25440,
          "time": 93.529312,
          "velocity": 0.7007874015748031
        },
        {
          "duration": 0.6213228666666595,
          "durationTicks": 169,
          "midi": 64,
          "name": "E4",
          "ticks": 25440,
          "time": 93.529312,
          "velocity": 0.7007874015748031
        },
        {
          "duration": 0.9926459999999935,
          "durationTicks": 270,
          "midi": 60,
          "name": "C4",
          "ticks": 25620,
          "time": 94.19107600000001,
          "velocity": 0.7007874015748031
        },
        {
          "duration": 0.8823519999999974,
          "durationTicks": 240,
          "midi": 64,
          "name": "E4",
          "ticks": 25650,
          "time": 94.30137,
          "velocity": 0.7007874015748031
        },
        {
          "duration": 0.8639696666666765,
          "durationTicks": 235,
          "midi": 69,
          "name": "A4",
          "ticks": 25680,
          "time": 94.411664,
          "velocity": 0.7007874015748031
        },
        {
          "duration": 0.6433816666666701,
          "durationTicks": 175,
          "midi": 57,
          "name": "A3",
          "ticks": 25860,
          "time": 95.073428,
          "velocity": 0.7007874015748031
        },
        {
          "duration": 0.30882319999999197,
          "durationTicks": 84,
          "midi": 62,
          "name": "D4",
          "ticks": 25890,
          "time": 95.183722,
          "velocity": 0.7007874015748031
        },
        {
          "duration": 1.7426451999999983,
          "durationTicks": 474,
          "midi": 38,
          "name": "D2",
          "ticks": 25920,
          "time": 95.294016,
          "velocity": 0.6929133858267716
        },
        {
          "duration": 0.8455873333333273,
          "durationTicks": 230,
          "midi": 66,
          "name": "F#4",
          "ticks": 25920,
          "time": 95.294016,
          "velocity": 0.6929133858267716
        },
        {
          "duration": 0.41176426666666543,
          "durationTicks": 112,
          "midi": 62,
          "name": "D4",
          "ticks": 25980,
          "time": 95.514604,
          "velocity": 0.6929133858267716
        },
        {
          "duration": 0.8823520000000116,
          "durationTicks": 240,
          "midi": 57,
          "name": "A3",
          "ticks": 26040,
          "time": 95.735192,
          "velocity": 0.6929133858267716
        },
        {
          "duration": 0.6360287333333332,
          "durationTicks": 173,
          "midi": 62,
          "name": "D4",
          "ticks": 26100,
          "time": 95.95578,
          "velocity": 0.6929133858267716
        },
        {
          "duration": 0.4411760000000129,
          "durationTicks": 120,
          "midi": 66,
          "name": "F#4",
          "ticks": 26160,
          "time": 96.176368,
          "velocity": 0.6929133858267716
        },
        {
          "duration": 0.4191171999999881,
          "durationTicks": 114,
          "midi": 60,
          "name": "C4",
          "ticks": 26280,
          "time": 96.61754400000001,
          "velocity": 0.6929133858267716
        },
        {
          "duration": 0.4191171999999881,
          "durationTicks": 114,
          "midi": 62,
          "name": "D4",
          "ticks": 26280,
          "time": 96.61754400000001,
          "velocity": 0.6929133858267716
        },
        {
          "duration": 0.4191171999999881,
          "durationTicks": 114,
          "midi": 67,
          "name": "G4",
          "ticks": 26280,
          "time": 96.61754400000001,
          "velocity": 0.6929133858267716
        },
        {
          "duration": 1.323527999999996,
          "durationTicks": 360,
          "midi": 43,
          "name": "G2",
          "ticks": 26400,
          "time": 97.05872000000001,
          "velocity": 0.6929133858267716
        },
        {
          "duration": 1.7426451999999841,
          "durationTicks": 474,
          "midi": 59,
          "name": "B3",
          "ticks": 26400,
          "time": 97.05872000000001,
          "velocity": 0.6929133858267716
        },
        {
          "duration": 1.7426451999999841,
          "durationTicks": 474,
          "midi": 62,
          "name": "D4",
          "ticks": 26400,
          "time": 97.05872000000001,
          "velocity": 0.6929133858267716
        },
        {
          "duration": 1.7426451999999841,
          "durationTicks": 474,
          "midi": 67,
          "name": "G4",
          "ticks": 26400,
          "time": 97.05872000000001,
          "velocity": 0.6929133858267716
        },
        {
          "duration": 1.0698518000000092,
          "durationTicks": 291,
          "midi": 55,
          "name": "G3",
          "ticks": 26580,
          "time": 97.720484,
          "velocity": 0.6929133858267716
        },
        {
          "duration": 0.4191171999999881,
          "durationTicks": 114,
          "midi": 47,
          "name": "B2",
          "ticks": 26760,
          "time": 98.382248,
          "velocity": 0.6929133858267716
        },
        {
          "duration": 1.7426451999999983,
          "durationTicks": 474,
          "midi": 45,
          "name": "A2",
          "ticks": 38880,
          "time": 142.941024,
          "velocity": 0.6929133858267716
        },
        {
          "duration": 1.7426451999999983,
          "durationTicks": 474,
          "midi": 57,
          "name": "A3",
          "ticks": 38880,
          "time": 142.941024,
          "velocity": 0.6929133858267716
        },
        {
          "duration": 1.7426451999999983,
          "durationTicks": 474,
          "midi": 60,
          "name": "C4",
          "ticks": 38880,
          "time": 142.941024,
          "velocity": 0.6929133858267716
        },
        {
          "duration": 1.7426451999999983,
          "durationTicks": 474,
          "midi": 64,
          "name": "E4",
          "ticks": 38880,
          "time": 142.941024,
          "velocity": 0.6929133858267716
        },
        {
          "duration": 1.3235280000000103,
          "durationTicks": 360,
          "midi": 38,
          "name": "D2",
          "ticks": 39360,
          "time": 144.705728,
          "velocity": 0.6929133858267716
        },
        {
          "duration": 1.3235280000000103,
          "durationTicks": 360,
          "midi": 57,
          "name": "A3",
          "ticks": 39360,
          "time": 144.705728,
          "velocity": 0.6929133858267716
        },
        {
          "duration": 1.3235280000000103,
          "durationTicks": 360,
          "midi": 62,
          "name": "D4",
          "ticks": 39360,
          "time": 144.705728,
          "velocity": 0.6929133858267716
        },
        {
          "duration": 1.3235280000000103,
          "durationTicks": 360,
          "midi": 66,
          "name": "F#4",
          "ticks": 39360,
          "time": 144.705728,
          "velocity": 0.6929133858267716
        },
        {
          "duration": 1.74264519999997,
          "durationTicks": 474,
          "midi": 43,
          "name": "G2",
          "ticks": 39840,
          "time": 146.47043200000002,
          "velocity": 0.6929133858267716
        },
        {
          "duration": 1.74264519999997,
          "durationTicks": 474,
          "midi": 59,
          "name": "B3",
          "ticks": 39840,
          "time": 146.47043200000002,
          "velocity": 0.6929133858267716
        },
        {
          "duration": 1.74264519999997,
          "durationTicks": 474,
          "midi": 62,
          "name": "D4",
          "ticks": 39840,
          "time": 146.47043200000002,
          "velocity": 0.6929133858267716
        },
        {
          "duration": 1.74264519999997,
          "durationTicks": 474,
          "midi": 67,
          "name": "G4",
          "ticks": 39840,
          "time": 146.47043200000002,
          "velocity": 0.6929133858267716
        },
        {
          "duration": 0.6617640000000051,
          "durationTicks": 180,
          "midi": 48,
          "name": "C3",
          "ticks": 40320,
          "time": 148.235136,
          "velocity": 0.7007874015748031
        },
        {
          "duration": 0.6617640000000051,
          "durationTicks": 180,
          "midi": 55,
          "name": "G3",
          "ticks": 40320,
          "time": 148.235136,
          "velocity": 0.7007874015748031
        },
        {
          "duration": 0.6617640000000051,
          "durationTicks": 180,
          "midi": 60,
          "name": "C4",
          "ticks": 40320,
          "time": 148.235136,
          "velocity": 0.7007874015748031
        },
        {
          "duration": 0.6617640000000051,
          "durationTicks": 180,
          "midi": 64,
          "name": "E4",
          "ticks": 40320,
          "time": 148.235136,
          "velocity": 0.7007874015748031
        },
        {
          "duration": 1.7426451999999983,
          "durationTicks": 474,
          "midi": 45,
          "name": "A2",
          "ticks": 40800,
          "time": 149.99984,
          "velocity": 0.7007874015748031
        },
        {
          "duration": 1.727939333333353,
          "durationTicks": 470,
          "midi": 52,
          "name": "E3",
          "ticks": 40800,
          "time": 149.99984,
          "velocity": 0.7007874015748031
        },
        {
          "duration": 1.727939333333353,
          "durationTicks": 470,
          "midi": 57,
          "name": "A3",
          "ticks": 40800,
          "time": 149.99984,
          "velocity": 0.7007874015748031
        },
        {
          "duration": 1.727939333333353,
          "durationTicks": 470,
          "midi": 60,
          "name": "C4",
          "ticks": 40800,
          "time": 149.99984,
          "velocity": 0.7007874015748031
        },
        {
          "duration": 0.8566167333333397,
          "durationTicks": 233,
          "midi": 69,
          "name": "A4",
          "ticks": 41040,
          "time": 150.882192,
          "velocity": 0.7007874015748031
        },
        {
          "duration": 1.7426451999999983,
          "durationTicks": 474,
          "midi": 38,
          "name": "D2",
          "ticks": 41280,
          "time": 151.764544,
          "velocity": 0.6929133858267716
        },
        {
          "duration": 1.7352922666666757,
          "durationTicks": 472,
          "midi": 57,
          "name": "A3",
          "ticks": 41280,
          "time": 151.764544,
          "velocity": 0.6929133858267716
        },
        {
          "duration": 1.727939333333353,
          "durationTicks": 470,
          "midi": 62,
          "name": "D4",
          "ticks": 41280,
          "time": 151.764544,
          "velocity": 0.6929133858267716
        },
        {
          "duration": 1.7352922666666757,
          "durationTicks": 472,
          "midi": 66,
          "name": "F#4",
          "ticks": 41280,
          "time": 151.764544,
          "velocity": 0.6929133858267716
        },
        {
          "duration": 1.7426451999999983,
          "durationTicks": 474,
          "midi": 43,
          "name": "G2",
          "ticks": 41760,
          "time": 153.529248,
          "velocity": 0.6929133858267716
        },
        {
          "duration": 0.849263800000017,
          "durationTicks": 231,
          "midi": 59,
          "name": "B3",
          "ticks": 41760,
          "time": 153.529248,
          "velocity": 0.6929133858267716
        },
        {
          "duration": 0.6323522666666861,
          "durationTicks": 172,
          "midi": 62,
          "name": "D4",
          "ticks": 41760,
          "time": 153.529248,
          "velocity": 0.6929133858267716
        },
        {
          "duration": 1.7426451999999983,
          "durationTicks": 474,
          "midi": 67,
          "name": "G4",
          "ticks": 41760,
          "time": 153.529248,
          "velocity": 0.6929133858267716
        },
        {
          "duration": 1.0808811999999932,
          "durationTicks": 294,
          "midi": 62,
          "name": "D4",
          "ticks": 41940,
          "time": 154.191012,
          "velocity": 0.6929133858267716
        },
        {
          "duration": 0.860293200000001,
          "durationTicks": 234,
          "midi": 59,
          "name": "B3",
          "ticks": 42000,
          "time": 154.4116,
          "velocity": 0.6929133858267716
        },
        {
          "duration": 1.3235280000000103,
          "durationTicks": 360,
          "midi": 48,
          "name": "C3",
          "ticks": 42240,
          "time": 155.293952,
          "velocity": 0.7007874015748031
        },
        {
          "duration": 1.2977927333333525,
          "durationTicks": 353,
          "midi": 55,
          "name": "G3",
          "ticks": 42240,
          "time": 155.293952,
          "velocity": 0.7007874015748031
        },
        {
          "duration": 1.2977927333333525,
          "durationTicks": 353,
          "midi": 60,
          "name": "C4",
          "ticks": 42240,
          "time": 155.293952,
          "velocity": 0.7007874015748031
        },
        {
          "duration": 1.2977927333333525,
          "durationTicks": 353,
          "midi": 64,
          "name": "E4",
          "ticks": 42240,
          "time": 155.293952,
          "velocity": 0.7007874015748031
        },
        {
          "duration": 0.4191171999999881,
          "durationTicks": 114,
          "midi": 47,
          "name": "B2",
          "ticks": 42600,
          "time": 156.61748,
          "velocity": 0.7007874015748031
        },
        {
          "duration": 0.4191171999999881,
          "durationTicks": 114,
          "midi": 55,
          "name": "G3",
          "ticks": 42600,
          "time": 156.61748,
          "velocity": 0.7007874015748031
        },
        {
          "duration": 0.4191171999999881,
          "durationTicks": 114,
          "midi": 59,
          "name": "B3",
          "ticks": 42600,
          "time": 156.61748,
          "velocity": 0.7007874015748031
        },
        {
          "duration": 0.4191171999999881,
          "durationTicks": 114,
          "midi": 62,
          "name": "D4",
          "ticks": 42600,
          "time": 156.61748,
          "velocity": 0.7007874015748031
        },
        {
          "duration": 1.7426451999999983,
          "durationTicks": 474,
          "midi": 45,
          "name": "A2",
          "ticks": 42720,
          "time": 157.058656,
          "velocity": 0.7007874015748031
        },
        {
          "duration": 0.6397051999999803,
          "durationTicks": 174,
          "midi": 57,
          "name": "A3",
          "ticks": 42720,
          "time": 157.058656,
          "velocity": 0.7007874015748031
        },
        {
          "duration": 0.8602931999999726,
          "durationTicks": 234,
          "midi": 60,
          "name": "C4",
          "ticks": 42720,
          "time": 157.058656,
          "velocity": 0.7007874015748031
        },
        {
          "duration": 0.8602931999999726,
          "durationTicks": 234,
          "midi": 64,
          "name": "E4",
          "ticks": 42720,
          "time": 157.058656,
          "velocity": 0.7007874015748031
        },
        {
          "duration": 1.0735282666666421,
          "durationTicks": 292,
          "midi": 57,
          "name": "A3",
          "ticks": 42900,
          "time": 157.72042000000002,
          "velocity": 0.7007874015748031
        },
        {
          "duration": 0.860293200000001,
          "durationTicks": 234,
          "midi": 60,
          "name": "C4",
          "ticks": 42960,
          "time": 157.941008,
          "velocity": 0.7007874015748031
        },
        {
          "duration": 0.860293200000001,
          "durationTicks": 234,
          "midi": 64,
          "name": "E4",
          "ticks": 42960,
          "time": 157.941008,
          "velocity": 0.7007874015748031
        },
        {
          "duration": 0.860293200000001,
          "durationTicks": 234,
          "midi": 69,
          "name": "A4",
          "ticks": 42960,
          "time": 157.941008,
          "velocity": 0.7007874015748031
        },
        {
          "duration": 0.6397051999999803,
          "durationTicks": 174,
          "midi": 50,
          "name": "D3",
          "ticks": 43200,
          "time": 158.82336,
          "velocity": 0.6929133858267716
        },
        {
          "duration": 0.4191171999999881,
          "durationTicks": 114,
          "midi": 57,
          "name": "A3",
          "ticks": 43200,
          "time": 158.82336,
          "velocity": 0.6929133858267716
        },
        {
          "duration": 1.7426451999999983,
          "durationTicks": 474,
          "midi": 62,
          "name": "D4",
          "ticks": 43200,
          "time": 158.82336,
          "velocity": 0.6929133858267716
        },
        {
          "duration": 1.7426451999999983,
          "durationTicks": 474,
          "midi": 66,
          "name": "F#4",
          "ticks": 43200,
          "time": 158.82336,
          "velocity": 0.6929133858267716
        },
        {
          "duration": 0.4411760000000129,
          "durationTicks": 120,
          "midi": 57,
          "name": "A3",
          "ticks": 43320,
          "time": 159.264536,
          "velocity": 0.6929133858267716
        },
        {
          "duration": 1.0808811999999932,
          "durationTicks": 294,
          "midi": 50,
          "name": "D3",
          "ticks": 43380,
          "time": 159.485124,
          "velocity": 0.6929133858267716
        },
        {
          "duration": 0.4411760000000129,
          "durationTicks": 120,
          "midi": 59,
          "name": "B3",
          "ticks": 43440,
          "time": 159.705712,
          "velocity": 0.6929133858267716
        },
        {
          "duration": 0.4191171999999881,
          "durationTicks": 114,
          "midi": 60,
          "name": "C4",
          "ticks": 43560,
          "time": 160.14688800000002,
          "velocity": 0.6929133858267716
        },
        {
          "duration": 0.636028733333319,
          "durationTicks": 173,
          "midi": 55,
          "name": "G3",
          "ticks": 43620,
          "time": 160.367476,
          "velocity": 0.6929133858267716
        },
        {
          "duration": 1.7426451999999983,
          "durationTicks": 474,
          "midi": 43,
          "name": "G2",
          "ticks": 43680,
          "time": 160.588064,
          "velocity": 0.6929133858267716
        },
        {
          "duration": 0.8823519999999974,
          "durationTicks": 240,
          "midi": 59,
          "name": "B3",
          "ticks": 43680,
          "time": 160.588064,
          "velocity": 0.6929133858267716
        },
        {
          "duration": 1.7426451999999983,
          "durationTicks": 474,
          "midi": 62,
          "name": "D4",
          "ticks": 43680,
          "time": 160.588064,
          "velocity": 0.6929133858267716
        },
        {
          "duration": 1.7426451999999983,
          "durationTicks": 474,
          "midi": 67,
          "name": "G4",
          "ticks": 43680,
          "time": 160.588064,
          "velocity": 0.6929133858267716
        },
        {
          "duration": 1.0772047333333319,
          "durationTicks": 293,
          "midi": 55,
          "name": "G3",
          "ticks": 43800,
          "time": 161.02924000000002,
          "velocity": 0.6929133858267716
        },
        {
          "duration": 0.4191171999999881,
          "durationTicks": 114,
          "midi": 55,
          "name": "G3",
          "ticks": 44100,
          "time": 162.13218,
          "velocity": 0.7007874015748031
        },
        {
          "duration": 0.772057999999987,
          "durationTicks": 210,
          "midi": 60,
          "name": "C4",
          "ticks": 44130,
          "time": 162.24247400000002,
          "velocity": 0.7007874015748031
        },
        {
          "duration": 0.8345579333333433,
          "durationTicks": 227,
          "midi": 48,
          "name": "C3",
          "ticks": 44160,
          "time": 162.352768,
          "velocity": 0.7007874015748031
        },
        {
          "duration": 0.4191171999999881,
          "durationTicks": 114,
          "midi": 64,
          "name": "E4",
          "ticks": 44160,
          "time": 162.352768,
          "velocity": 0.7007874015748031
        },
        {
          "duration": 0.6139699333333226,
          "durationTicks": 167,
          "midi": 55,
          "name": "G3",
          "ticks": 44220,
          "time": 162.57335600000002,
          "velocity": 0.7007874015748031
        },
        {
          "duration": 0.22058799999999223,
          "durationTicks": 60,
          "midi": 64,
          "name": "E4",
          "ticks": 44280,
          "time": 162.793944,
          "velocity": 0.7007874015748031
        },
        {
          "duration": 0.19852919999999585,
          "durationTicks": 54,
          "midi": 59,
          "name": "B3",
          "ticks": 44340,
          "time": 163.014532,
          "velocity": 0.7007874015748031
        },
        {
          "duration": 0.19852919999999585,
          "durationTicks": 54,
          "midi": 62,
          "name": "D4",
          "ticks": 44340,
          "time": 163.014532,
          "velocity": 0.7007874015748031
        },
        {
          "duration": 1.7426451999999983,
          "durationTicks": 474,
          "midi": 45,
          "name": "A2",
          "ticks": 44640,
          "time": 164.117472,
          "velocity": 0.7007874015748031
        },
        {
          "duration": 0.860293200000001,
          "durationTicks": 234,
          "midi": 57,
          "name": "A3",
          "ticks": 44640,
          "time": 164.117472,
          "velocity": 0.7007874015748031
        },
        {
          "duration": 0.6433816666666701,
          "durationTicks": 175,
          "midi": 60,
          "name": "C4",
          "ticks": 44640,
          "time": 164.117472,
          "velocity": 0.7007874015748031
        },
        {
          "duration": 0.6397052000000087,
          "durationTicks": 174,
          "midi": 64,
          "name": "E4",
          "ticks": 44640,
          "time": 164.117472,
          "velocity": 0.7007874015748031
        },
        {
          "duration": 0.9926460000000077,
          "durationTicks": 270,
          "midi": 60,
          "name": "C4",
          "ticks": 44820,
          "time": 164.779236,
          "velocity": 0.7007874015748031
        },
        {
          "duration": 0.8823519999999974,
          "durationTicks": 240,
          "midi": 64,
          "name": "E4",
          "ticks": 44850,
          "time": 164.88953,
          "velocity": 0.7007874015748031
        },
        {
          "duration": 0.8639696666666339,
          "durationTicks": 235,
          "midi": 69,
          "name": "A4",
          "ticks": 44880,
          "time": 164.99982400000002,
          "velocity": 0.7007874015748031
        },
        {
          "duration": 0.6433816666666701,
          "durationTicks": 175,
          "midi": 57,
          "name": "A3",
          "ticks": 45060,
          "time": 165.661588,
          "velocity": 0.7007874015748031
        },
        {
          "duration": 0.3088232000000062,
          "durationTicks": 84,
          "midi": 62,
          "name": "D4",
          "ticks": 45090,
          "time": 165.771882,
          "velocity": 0.7007874015748031
        },
        {
          "duration": 1.7426451999999983,
          "durationTicks": 474,
          "midi": 38,
          "name": "D2",
          "ticks": 45120,
          "time": 165.88217600000002,
          "velocity": 0.6929133858267716
        },
        {
          "duration": 0.8455873333333273,
          "durationTicks": 230,
          "midi": 66,
          "name": "F#4",
          "ticks": 45120,
          "time": 165.88217600000002,
          "velocity": 0.6929133858267716
        },
        {
          "duration": 0.41176426666666543,
          "durationTicks": 112,
          "midi": 62,
          "name": "D4",
          "ticks": 45180,
          "time": 166.102764,
          "velocity": 0.6929133858267716
        },
        {
          "duration": 0.8823519999999974,
          "durationTicks": 240,
          "midi": 57,
          "name": "A3",
          "ticks": 45240,
          "time": 166.323352,
          "velocity": 0.6929133858267716
        },
        {
          "duration": 0.6360287333333474,
          "durationTicks": 173,
          "midi": 62,
          "name": "D4",
          "ticks": 45300,
          "time": 166.54394,
          "velocity": 0.6929133858267716
        },
        {
          "duration": 0.44117599999998447,
          "durationTicks": 120,
          "midi": 66,
          "name": "F#4",
          "ticks": 45360,
          "time": 166.764528,
          "velocity": 0.6929133858267716
        },
        {
          "duration": 0.4191172000000165,
          "durationTicks": 114,
          "midi": 60,
          "name": "C4",
          "ticks": 45480,
          "time": 167.205704,
          "velocity": 0.6929133858267716
        },
        {
          "duration": 0.4191172000000165,
          "durationTicks": 114,
          "midi": 62,
          "name": "D4",
          "ticks": 45480,
          "time": 167.205704,
          "velocity": 0.6929133858267716
        },
        {
          "duration": 0.4191172000000165,
          "durationTicks": 114,
          "midi": 67,
          "name": "G4",
          "ticks": 45480,
          "time": 167.205704,
          "velocity": 0.6929133858267716
        },
        {
          "duration": 1.7647039999999947,
          "durationTicks": 480,
          "midi": 43,
          "name": "G2",
          "ticks": 45600,
          "time": 167.64688,
          "velocity": 0.6929133858267716
        },
        {
          "duration": 1.7426451999999983,
          "durationTicks": 474,
          "midi": 59,
          "name": "B3",
          "ticks": 45600,
          "time": 167.64688,
          "velocity": 0.6929133858267716
        },
        {
          "duration": 1.7426451999999983,
          "durationTicks": 474,
          "midi": 62,
          "name": "D4",
          "ticks": 45600,
          "time": 167.64688,
          "velocity": 0.6929133858267716
        },
        {
          "duration": 1.7426451999999983,
          "durationTicks": 474,
          "midi": 67,
          "name": "G4",
          "ticks": 45600,
          "time": 167.64688,
          "velocity": 0.6929133858267716
        },
        {
          "duration": 1.0698517999999808,
          "durationTicks": 291,
          "midi": 55,
          "name": "G3",
          "ticks": 45780,
          "time": 168.30864400000002,
          "velocity": 0.6929133858267716
        },
        {
          "duration": 0.2904408666666711,
          "durationTicks": 79,
          "midi": 67,
          "name": "G4",
          "ticks": 62160,
          "time": 228.529168,
          "velocity": 0.7874015748031497
        },
        {
          "duration": 0.2904408666666711,
          "durationTicks": 79,
          "midi": 55,
          "name": "G3",
          "ticks": 62160,
          "time": 228.529168,
          "velocity": 0.7874015748031497
        }
      ],
      "endOfTrackTicks": 62239
    },
    {
      "channel": 4,
      "controlChanges": {
        "1": [
          {
            "number": 1,
            "ticks": 182,
            "time": 0.6691169333333333,
            "value": 0
          }
        ],
        "5": [
          {
            "number": 5,
            "ticks": 231,
            "time": 0.8492638,
            "value": 0
          }
        ],
        "7": [
          {
            "number": 7,
            "ticks": 0,
            "time": 0,
            "value": 0.6299212598425197
          }
        ],
        "10": [
          {
            "number": 10,
            "ticks": 53995,
            "time": 198.51081766666667,
            "value": 0
          },
          {
            "number": 10,
            "ticks": 53996,
            "time": 198.51449413333333,
            "value": 0.007874015748031496
          },
          {
            "number": 10,
            "ticks": 53998,
            "time": 198.52184706666668,
            "value": 0.015748031496062992
          },
          {
            "number": 10,
            "ticks": 54000,
            "time": 198.5292,
            "value": 0.023622047244094488
          },
          {
            "number": 10,
            "ticks": 54002,
            "time": 198.53655293333333,
            "value": 0.031496062992125984
          },
          {
            "number": 10,
            "ticks": 54004,
            "time": 198.54390586666668,
            "value": 0.03937007874015748
          },
          {
            "number": 10,
            "ticks": 54005,
            "time": 198.54758233333334,
            "value": 0.047244094488188976
          },
          {
            "number": 10,
            "ticks": 54007,
            "time": 198.55493526666666,
            "value": 0.05511811023622047
          },
          {
            "number": 10,
            "ticks": 54009,
            "time": 198.5622882,
            "value": 0.06299212598425197
          },
          {
            "number": 10,
            "ticks": 54011,
            "time": 198.56964113333333,
            "value": 0.07086614173228346
          },
          {
            "number": 10,
            "ticks": 54013,
            "time": 198.57699406666669,
            "value": 0.07874015748031496
          },
          {
            "number": 10,
            "ticks": 54014,
            "time": 198.58067053333335,
            "value": 0.08661417322834646
          },
          {
            "number": 10,
            "ticks": 54016,
            "time": 198.58802346666667,
            "value": 0.09448818897637795
          },
          {
            "number": 10,
            "ticks": 54018,
            "time": 198.5953764,
            "value": 0.10236220472440945
          },
          {
            "number": 10,
            "ticks": 54020,
            "time": 198.60272933333334,
            "value": 0.11023622047244094
          },
          {
            "number": 10,
            "ticks": 54022,
            "time": 198.61008226666667,
            "value": 0.11811023622047244
          },
          {
            "number": 10,
            "ticks": 54023,
            "time": 198.61375873333333,
            "value": 0.12598425196850394
          },
          {
            "number": 10,
            "ticks": 54025,
            "time": 198.62111166666665,
            "value": 0.13385826771653545
          },
          {
            "number": 10,
            "ticks": 54027,
            "time": 198.62846460000003,
            "value": 0.14173228346456693
          },
          {
            "number": 10,
            "ticks": 54029,
            "time": 198.63581753333335,
            "value": 0.14960629921259844
          },
          {
            "number": 10,
            "ticks": 54031,
            "time": 198.64317046666667,
            "value": 0.15748031496062992
          },
          {
            "number": 10,
            "ticks": 54033,
            "time": 198.6505234,
            "value": 0.16535433070866143
          },
          {
            "number": 10,
            "ticks": 54034,
            "time": 198.6541998666667,
            "value": 0.1732283464566929
          },
          {
            "number": 10,
            "ticks": 54036,
            "time": 198.6615528,
            "value": 0.18110236220472442
          },
          {
            "number": 10,
            "ticks": 54038,
            "time": 198.66890573333333,
            "value": 0.1889763779527559
          },
          {
            "number": 10,
            "ticks": 54040,
            "time": 198.67625866666666,
            "value": 0.1968503937007874
          },
          {
            "number": 10,
            "ticks": 54042,
            "time": 198.6836116,
            "value": 0.2047244094488189
          },
          {
            "number": 10,
            "ticks": 54043,
            "time": 198.68728806666667,
            "value": 0.2125984251968504
          },
          {
            "number": 10,
            "ticks": 54045,
            "time": 198.69464100000002,
            "value": 0.2204724409448819
          },
          {
            "number": 10,
            "ticks": 54047,
            "time": 198.70199393333334,
            "value": 0.2283464566929134
          },
          {
            "number": 10,
            "ticks": 54049,
            "time": 198.7093468666667,
            "value": 0.23622047244094488
          },
          {
            "number": 10,
            "ticks": 54051,
            "time": 198.71669980000001,
            "value": 0.2440944881889764
          },
          {
            "number": 10,
            "ticks": 54052,
            "time": 198.72037626666668,
            "value": 0.25196850393700787
          },
          {
            "number": 10,
            "ticks": 54054,
            "time": 198.7277292,
            "value": 0.25984251968503935
          },
          {
            "number": 10,
            "ticks": 54056,
            "time": 198.73508213333332,
            "value": 0.2677165354330709
          },
          {
            "number": 10,
            "ticks": 54058,
            "time": 198.74243506666667,
            "value": 0.2755905511811024
          },
          {
            "number": 10,
            "ticks": 54060,
            "time": 198.749788,
            "value": 0.28346456692913385
          },
          {
            "number": 10,
            "ticks": 54062,
            "time": 198.75714093333335,
            "value": 0.29133858267716534
          },
          {
            "number": 10,
            "ticks": 54063,
            "time": 198.7608174,
            "value": 0.2992125984251969
          },
          {
            "number": 10,
            "ticks": 54065,
            "time": 198.76817033333336,
            "value": 0.30708661417322836
          },
          {
            "number": 10,
            "ticks": 54067,
            "time": 198.77552326666668,
            "value": 0.31496062992125984
          },
          {
            "number": 10,
            "ticks": 54069,
            "time": 198.7828762,
            "value": 0.3228346456692913
          },
          {
            "number": 10,
            "ticks": 54071,
            "time": 198.79022913333333,
            "value": 0.33070866141732286
          },
          {
            "number": 10,
            "ticks": 54072,
            "time": 198.79390560000002,
            "value": 0.33858267716535434
          },
          {
            "number": 10,
            "ticks": 54074,
            "time": 198.80125853333334,
            "value": 0.3464566929133858
          },
          {
            "number": 10,
            "ticks": 54076,
            "time": 198.80861146666666,
            "value": 0.3543307086614173
          },
          {
            "number": 10,
            "ticks": 54078,
            "time": 198.81596439999998,
            "value": 0.36220472440944884
          },
          {
            "number": 10,
            "ticks": 54080,
            "time": 198.82331733333334,
            "value": 0.3700787401574803
          },
          {
            "number": 10,
            "ticks": 54081,
            "time": 198.8269938,
            "value": 0.3779527559055118
          },
          {
            "number": 10,
            "ticks": 54083,
            "time": 198.83434673333335,
            "value": 0.3858267716535433
          },
          {
            "number": 10,
            "ticks": 54085,
            "time": 198.84169966666667,
            "value": 0.3937007874015748
          },
          {
            "number": 10,
            "ticks": 54087,
            "time": 198.84905260000002,
            "value": 0.4015748031496063
          },
          {
            "number": 10,
            "ticks": 54089,
            "time": 198.85640553333334,
            "value": 0.4094488188976378
          },
          {
            "number": 10,
            "ticks": 54090,
            "time": 198.860082,
            "value": 0.41732283464566927
          },
          {
            "number": 10,
            "ticks": 54092,
            "time": 198.86743493333333,
            "value": 0.4251968503937008
          },
          {
            "number": 10,
            "ticks": 54094,
            "time": 198.87478786666668,
            "value": 0.4330708661417323
          },
          {
            "number": 10,
            "ticks": 54096,
            "time": 198.8821408,
            "value": 0.4409448818897638
          },
          {
            "number": 10,
            "ticks": 54098,
            "time": 198.88949373333332,
            "value": 0.44881889763779526
          },
          {
            "number": 10,
            "ticks": 54100,
            "time": 198.89684666666668,
            "value": 0.4566929133858268
          },
          {
            "number": 10,
            "ticks": 54101,
            "time": 198.90052313333334,
            "value": 0.4645669291338583
          },
          {
            "number": 10,
            "ticks": 54103,
            "time": 198.9078760666667,
            "value": 0.47244094488188976
          },
          {
            "number": 10,
            "ticks": 54105,
            "time": 198.915229,
            "value": 0.48031496062992124
          },
          {
            "number": 10,
            "ticks": 54107,
            "time": 198.92258193333333,
            "value": 0.4881889763779528
          },
          {
            "number": 10,
            "ticks": 54109,
            "time": 198.92993486666668,
            "value": 0.49606299212598426
          },
          {
            "number": 10,
            "ticks": 54110,
            "time": 198.93361133333335,
            "value": 0.5039370078740157
          },
          {
            "number": 10,
            "ticks": 54112,
            "time": 198.94096426666667,
            "value": 0.5118110236220472
          },
          {
            "number": 10,
            "ticks": 54114,
            "time": 198.9483172,
            "value": 0.5196850393700787
          },
          {
            "number": 10,
            "ticks": 54116,
            "time": 198.9556701333333,
            "value": 0.5275590551181102
          },
          {
            "number": 10,
            "ticks": 54118,
            "time": 198.9630230666667,
            "value": 0.5354330708661418
          },
          {
            "number": 10,
            "ticks": 54119,
            "time": 198.96669953333335,
            "value": 0.5433070866141733
          },
          {
            "number": 10,
            "ticks": 54121,
            "time": 198.97405246666668,
            "value": 0.5511811023622047
          },
          {
            "number": 10,
            "ticks": 54123,
            "time": 198.9814054,
            "value": 0.5590551181102362
          },
          {
            "number": 10,
            "ticks": 54125,
            "time": 198.98875833333335,
            "value": 0.5669291338582677
          },
          {
            "number": 10,
            "ticks": 54127,
            "time": 198.99611126666667,
            "value": 0.5748031496062992
          },
          {
            "number": 10,
            "ticks": 54129,
            "time": 199.0034642,
            "value": 0.5826771653543307
          },
          {
            "number": 10,
            "ticks": 54130,
            "time": 199.00714066666666,
            "value": 0.5905511811023622
          },
          {
            "number": 10,
            "ticks": 54132,
            "time": 199.0144936,
            "value": 0.5984251968503937
          },
          {
            "number": 10,
            "ticks": 54134,
            "time": 199.02184653333333,
            "value": 0.6062992125984252
          },
          {
            "number": 10,
            "ticks": 54136,
            "time": 199.02919946666668,
            "value": 0.6141732283464567
          },
          {
            "number": 10,
            "ticks": 54138,
            "time": 199.0365524,
            "value": 0.6220472440944882
          },
          {
            "number": 10,
            "ticks": 54139,
            "time": 199.0402288666667,
            "value": 0.6299212598425197
          },
          {
            "number": 10,
            "ticks": 54141,
            "time": 199.04758180000002,
            "value": 0.6377952755905512
          },
          {
            "number": 10,
            "ticks": 54143,
            "time": 199.05493473333334,
            "value": 0.6456692913385826
          },
          {
            "number": 10,
            "ticks": 54145,
            "time": 199.06228766666666,
            "value": 0.6535433070866141
          },
          {
            "number": 10,
            "ticks": 54147,
            "time": 199.0696406,
            "value": 0.6614173228346457
          },
          {
            "number": 10,
            "ticks": 54148,
            "time": 199.07331706666668,
            "value": 0.6692913385826772
          },
          {
            "number": 10,
            "ticks": 54150,
            "time": 199.08067,
            "value": 0.6771653543307087
          },
          {
            "number": 10,
            "ticks": 54152,
            "time": 199.08802293333332,
            "value": 0.6850393700787402
          },
          {
            "number": 10,
            "ticks": 54154,
            "time": 199.09537586666667,
            "value": 0.6929133858267716
          },
          {
            "number": 10,
            "ticks": 54156,
            "time": 199.10272880000002,
            "value": 0.7007874015748031
          },
          {
            "number": 10,
            "ticks": 54157,
            "time": 199.10640526666668,
            "value": 0.7086614173228346
          },
          {
            "number": 10,
            "ticks": 54159,
            "time": 199.1137582,
            "value": 0.7165354330708661
          },
          {
            "number": 10,
            "ticks": 54161,
            "time": 199.12111113333333,
            "value": 0.7244094488188977
          },
          {
            "number": 10,
            "ticks": 54163,
            "time": 199.12846406666668,
            "value": 0.7322834645669292
          },
          {
            "number": 10,
            "ticks": 54165,
            "time": 199.135817,
            "value": 0.7401574803149606
          },
          {
            "number": 10,
            "ticks": 54167,
            "time": 199.14316993333333,
            "value": 0.7480314960629921
          },
          {
            "number": 10,
            "ticks": 54168,
            "time": 199.1468464,
            "value": 0.7559055118110236
          },
          {
            "number": 10,
            "ticks": 54170,
            "time": 199.15419933333334,
            "value": 0.7637795275590551
          },
          {
            "number": 10,
            "ticks": 54172,
            "time": 199.16155226666666,
            "value": 0.7716535433070866
          },
          {
            "number": 10,
            "ticks": 54174,
            "time": 199.1689052,
            "value": 0.7795275590551181
          },
          {
            "number": 10,
            "ticks": 54176,
            "time": 199.17625813333333,
            "value": 0.7874015748031497
          },
          {
            "number": 10,
            "ticks": 54177,
            "time": 199.17993460000002,
            "value": 0.7952755905511811
          },
          {
            "number": 10,
            "ticks": 54179,
            "time": 199.18728753333335,
            "value": 0.8031496062992126
          },
          {
            "number": 10,
            "ticks": 54181,
            "time": 199.19464046666667,
            "value": 0.8110236220472441
          },
          {
            "number": 10,
            "ticks": 54183,
            "time": 199.2019934,
            "value": 0.8188976377952756
          },
          {
            "number": 10,
            "ticks": 54185,
            "time": 199.20934633333334,
            "value": 0.8267716535433071
          },
          {
            "number": 10,
            "ticks": 54186,
            "time": 199.2130228,
            "value": 0.8346456692913385
          },
          {
            "number": 10,
            "ticks": 54188,
            "time": 199.22037573333333,
            "value": 0.84251968503937
          },
          {
            "number": 10,
            "ticks": 54190,
            "time": 199.22772866666665,
            "value": 0.8503937007874016
          },
          {
            "number": 10,
            "ticks": 54192,
            "time": 199.23508160000003,
            "value": 0.8582677165354331
          },
          {
            "number": 10,
            "ticks": 54194,
            "time": 199.24243453333335,
            "value": 0.8661417322834646
          },
          {
            "number": 10,
            "ticks": 54196,
            "time": 199.24978746666667,
            "value": 0.8740157480314961
          },
          {
            "number": 10,
            "ticks": 54197,
            "time": 199.25346393333334,
            "value": 0.8818897637795275
          },
          {
            "number": 10,
            "ticks": 54199,
            "time": 199.2608168666667,
            "value": 0.889763779527559
          },
          {
            "number": 10,
            "ticks": 54201,
            "time": 199.2681698,
            "value": 0.8976377952755905
          },
          {
            "number": 10,
            "ticks": 54203,
            "time": 199.27552273333333,
            "value": 0.905511811023622
          },
          {
            "number": 10,
            "ticks": 54205,
            "time": 199.28287566666665,
            "value": 0.9133858267716536
          },
          {
            "number": 10,
            "ticks": 54206,
            "time": 199.28655213333332,
            "value": 0.9212598425196851
          },
          {
            "number": 10,
            "ticks": 54208,
            "time": 199.29390506666667,
            "value": 0.9291338582677166
          },
          {
            "number": 10,
            "ticks": 54210,
            "time": 199.30125800000002,
            "value": 0.937007874015748
          },
          {
            "number": 10,
            "ticks": 54212,
            "time": 199.30861093333334,
            "value": 0.9448818897637795
          },
          {
            "number": 10,
            "ticks": 54214,
            "time": 199.3159638666667,
            "value": 0.952755905511811
          },
          {
            "number": 10,
            "ticks": 54215,
            "time": 199.31964033333335,
            "value": 0.9606299212598425
          },
          {
            "number": 10,
            "ticks": 54217,
            "time": 199.32699326666668,
            "value": 0.968503937007874
          },
          {
            "number": 10,
            "ticks": 54219,
            "time": 199.3343462,
            "value": 0.9763779527559056
          },
          {
            "number": 10,
            "ticks": 54221,
            "time": 199.34169913333332,
            "value": 0.984251968503937
          },
          {
            "number": 10,
            "ticks": 54223,
            "time": 199.34905206666667,
            "value": 0.9921259842519685
          },
          {
            "number": 10,
            "ticks": 54225,
            "time": 199.356405,
            "value": 1
          }
        ],
        "11": [
          {
            "number": 11,
            "ticks": 157,
            "time": 0.5772052666666667,
            "value": 1
          }
        ],
        "64": [
          {
            "number": 64,
            "ticks": 193,
            "time": 0.7095580666666668,
            "value": 0
          }
        ],
        "65": [
          {
            "number": 65,
            "ticks": 218,
            "time": 0.8014697333333334,
            "value": 0
          }
        ],
        "91": [
          {
            "number": 91,
            "ticks": 13,
            "time": 0.04779406666666667,
            "value": 0.3937007874015748
          }
        ],
        "93": [
          {
            "number": 93,
            "ticks": 120,
            "time": 0.441176,
            "value": 0.23622047244094488
          }
        ],
        "94": [
          {
            "number": 94,
            "ticks": 136,
            "time": 0.49999946666666667,
            "value": 0.15748031496062992
          }
        ],
        "121": [
          {
            "number": 121,
            "ticks": 0,
            "time": 0,
            "value": 0
          }
        ]
      },
      "pitchBends": [
        {
          "ticks": 203,
          "time": 0.7463227333333333,
          "value": 0
        }
      ],
      "instrument": {
        "family": "strings",
        "number": 46,
        "name": "orchestral harp"
      },
      "name": "Harp",
      "notes": [
        {
          "duration": 0.055147000000005164,
          "durationTicks": 15,
          "midi": 91,
          "name": "G6",
          "ticks": 54000,
          "time": 198.5292,
          "velocity": 0.7874015748031497
        },
        {
          "duration": 0.055147000000005164,
          "durationTicks": 15,
          "midi": 88,
          "name": "E6",
          "ticks": 54015,
          "time": 198.584347,
          "velocity": 0.7874015748031497
        },
        {
          "duration": 0.055147000000005164,
          "durationTicks": 15,
          "midi": 86,
          "name": "D6",
          "ticks": 54030,
          "time": 198.639494,
          "velocity": 0.7874015748031497
        },
        {
          "duration": 0.05514699999997674,
          "durationTicks": 15,
          "midi": 83,
          "name": "B5",
          "ticks": 54045,
          "time": 198.69464100000002,
          "velocity": 0.7874015748031497
        },
        {
          "duration": 0.055147000000005164,
          "durationTicks": 15,
          "midi": 81,
          "name": "A5",
          "ticks": 54060,
          "time": 198.749788,
          "velocity": 0.7874015748031497
        },
        {
          "duration": 0.055147000000005164,
          "durationTicks": 15,
          "midi": 79,
          "name": "G5",
          "ticks": 54075,
          "time": 198.804935,
          "velocity": 0.7874015748031497
        },
        {
          "duration": 0.055147000000005164,
          "durationTicks": 15,
          "midi": 76,
          "name": "E5",
          "ticks": 54090,
          "time": 198.860082,
          "velocity": 0.7874015748031497
        },
        {
          "duration": 0.055147000000005164,
          "durationTicks": 15,
          "midi": 74,
          "name": "D5",
          "ticks": 54105,
          "time": 198.915229,
          "velocity": 0.7874015748031497
        },
        {
          "duration": 0.05514699999997674,
          "durationTicks": 15,
          "midi": 79,
          "name": "G5",
          "ticks": 54120,
          "time": 198.97037600000002,
          "velocity": 0.7874015748031497
        },
        {
          "duration": 0.055147000000005164,
          "durationTicks": 15,
          "midi": 76,
          "name": "E5",
          "ticks": 54135,
          "time": 199.025523,
          "velocity": 0.7874015748031497
        },
        {
          "duration": 0.055147000000005164,
          "durationTicks": 15,
          "midi": 74,
          "name": "D5",
          "ticks": 54150,
          "time": 199.08067,
          "velocity": 0.7874015748031497
        },
        {
          "duration": 0.055147000000005164,
          "durationTicks": 15,
          "midi": 71,
          "name": "B4",
          "ticks": 54165,
          "time": 199.135817,
          "velocity": 0.7874015748031497
        },
        {
          "duration": 0.055147000000005164,
          "durationTicks": 15,
          "midi": 69,
          "name": "A4",
          "ticks": 54180,
          "time": 199.190964,
          "velocity": 0.7874015748031497
        },
        {
          "duration": 0.055147000000005164,
          "durationTicks": 15,
          "midi": 67,
          "name": "G4",
          "ticks": 54195,
          "time": 199.246111,
          "velocity": 0.7874015748031497
        },
        {
          "duration": 0.05514699999997674,
          "durationTicks": 15,
          "midi": 64,
          "name": "E4",
          "ticks": 54210,
          "time": 199.30125800000002,
          "velocity": 0.7874015748031497
        },
        {
          "duration": 0.055147000000005164,
          "durationTicks": 15,
          "midi": 62,
          "name": "D4",
          "ticks": 54225,
          "time": 199.356405,
          "velocity": 0.7874015748031497
        }
      ],
      "endOfTrackTicks": 54240
    },
    {
      "channel": 5,
      "controlChanges": {
        "1": [
          {
            "number": 1,
            "ticks": 182,
            "time": 0.6691169333333333,
            "value": 0
          }
        ],
        "5": [
          {
            "number": 5,
            "ticks": 231,
            "time": 0.8492638,
            "value": 0
          }
        ],
        "7": [
          {
            "number": 7,
            "ticks": 0,
            "time": 0,
            "value": 0.6456692913385826
          }
        ],
        "10": [
          {
            "number": 10,
            "ticks": 0,
            "time": 0,
            "value": 0.4881889763779528
          }
        ],
        "11": [
          {
            "number": 11,
            "ticks": 157,
            "time": 0.5772052666666667,
            "value": 1
          }
        ],
        "64": [
          {
            "number": 64,
            "ticks": 193,
            "time": 0.7095580666666668,
            "value": 0
          }
        ],
        "65": [
          {
            "number": 65,
            "ticks": 218,
            "time": 0.8014697333333334,
            "value": 0
          }
        ],
        "91": [
          {
            "number": 91,
            "ticks": 13,
            "time": 0.04779406666666667,
            "value": 0.23622047244094488
          }
        ],
        "93": [
          {
            "number": 93,
            "ticks": 120,
            "time": 0.441176,
            "value": 0.15748031496062992
          }
        ],
        "94": [
          {
            "number": 94,
            "ticks": 136,
            "time": 0.49999946666666667,
            "value": 0
          }
        ],
        "121": [
          {
            "number": 121,
            "ticks": 0,
            "time": 0,
            "value": 0
          }
        ]
      },
      "pitchBends": [
        {
          "ticks": 203,
          "time": 0.7463227333333333,
          "value": 0
        }
      ],
      "instrument": {
        "family": "ensemble",
        "number": 48,
        "name": "string ensemble 1"
      },
      "name": "Strings",
      "notes": [
        {
          "duration": 0.4411759999999987,
          "durationTicks": 120,
          "midi": 57,
          "name": "A3",
          "ticks": 15840,
          "time": 58.235232,
          "velocity": 0.5118110236220472
        },
        {
          "duration": 0.4411759999999987,
          "durationTicks": 120,
          "midi": 64,
          "name": "E4",
          "ticks": 15840,
          "time": 58.235232,
          "velocity": 0.5118110236220472
        },
        {
          "duration": 0.33088200000000256,
          "durationTicks": 90,
          "midi": 57,
          "name": "A3",
          "ticks": 16020,
          "time": 58.896996,
          "velocity": 0.5118110236220472
        },
        {
          "duration": 0.33088200000000256,
          "durationTicks": 90,
          "midi": 64,
          "name": "E4",
          "ticks": 16020,
          "time": 58.896996,
          "velocity": 0.5118110236220472
        },
        {
          "duration": 0.22058799999999934,
          "durationTicks": 60,
          "midi": 57,
          "name": "A3",
          "ticks": 16140,
          "time": 59.338172,
          "velocity": 0.5118110236220472
        },
        {
          "duration": 0.22058799999999934,
          "durationTicks": 60,
          "midi": 64,
          "name": "E4",
          "ticks": 16140,
          "time": 59.338172,
          "velocity": 0.5118110236220472
        },
        {
          "duration": 0.33088200000000256,
          "durationTicks": 90,
          "midi": 57,
          "name": "A3",
          "ticks": 16260,
          "time": 59.779348,
          "velocity": 0.5118110236220472
        },
        {
          "duration": 0.33088200000000256,
          "durationTicks": 90,
          "midi": 62,
          "name": "D4",
          "ticks": 16260,
          "time": 59.779348,
          "velocity": 0.5118110236220472
        },
        {
          "duration": 0.22058799999999934,
          "durationTicks": 60,
          "midi": 57,
          "name": "A3",
          "ticks": 16380,
          "time": 60.220524000000005,
          "velocity": 0.5118110236220472
        },
        {
          "duration": 0.22058799999999934,
          "durationTicks": 60,
          "midi": 62,
          "name": "D4",
          "ticks": 16380,
          "time": 60.220524000000005,
          "velocity": 0.5118110236220472
        },
        {
          "duration": 0.33088199999999546,
          "durationTicks": 90,
          "midi": 57,
          "name": "A3",
          "ticks": 16500,
          "time": 60.6617,
          "velocity": 0.5118110236220472
        },
        {
          "duration": 0.33088199999999546,
          "durationTicks": 90,
          "midi": 62,
          "name": "D4",
          "ticks": 16500,
          "time": 60.6617,
          "velocity": 0.5118110236220472
        },
        {
          "duration": 0.22058799999999934,
          "durationTicks": 60,
          "midi": 57,
          "name": "A3",
          "ticks": 16620,
          "time": 61.102876,
          "velocity": 0.5118110236220472
        },
        {
          "duration": 0.22058799999999934,
          "durationTicks": 60,
          "midi": 62,
          "name": "D4",
          "ticks": 16620,
          "time": 61.102876,
          "velocity": 0.5118110236220472
        },
        {
          "duration": 0.33088200000000256,
          "durationTicks": 90,
          "midi": 55,
          "name": "G3",
          "ticks": 16740,
          "time": 61.544052,
          "velocity": 0.5118110236220472
        },
        {
          "duration": 0.33088200000000256,
          "durationTicks": 90,
          "midi": 62,
          "name": "D4",
          "ticks": 16740,
          "time": 61.544052,
          "velocity": 0.5118110236220472
        },
        {
          "duration": 0.22058799999999934,
          "durationTicks": 60,
          "midi": 55,
          "name": "G3",
          "ticks": 16860,
          "time": 61.985228,
          "velocity": 0.5118110236220472
        },
        {
          "duration": 0.22058799999999934,
          "durationTicks": 60,
          "midi": 62,
          "name": "D4",
          "ticks": 16860,
          "time": 61.985228,
          "velocity": 0.5118110236220472
        },
        {
          "duration": 0.33088199999999546,
          "durationTicks": 90,
          "midi": 55,
          "name": "G3",
          "ticks": 16980,
          "time": 62.426404000000005,
          "velocity": 0.5118110236220472
        },
        {
          "duration": 0.33088199999999546,
          "durationTicks": 90,
          "midi": 62,
          "name": "D4",
          "ticks": 16980,
          "time": 62.426404000000005,
          "velocity": 0.5118110236220472
        },
        {
          "duration": 0.22058799999999934,
          "durationTicks": 60,
          "midi": 55,
          "name": "G3",
          "ticks": 17100,
          "time": 62.867580000000004,
          "velocity": 0.5118110236220472
        },
        {
          "duration": 0.22058799999999934,
          "durationTicks": 60,
          "midi": 62,
          "name": "D4",
          "ticks": 17100,
          "time": 62.867580000000004,
          "velocity": 0.5118110236220472
        },
        {
          "duration": 0.33088200000000256,
          "durationTicks": 90,
          "midi": 55,
          "name": "G3",
          "ticks": 17220,
          "time": 63.308756,
          "velocity": 0.5118110236220472
        },
        {
          "duration": 0.33088200000000256,
          "durationTicks": 90,
          "midi": 64,
          "name": "E4",
          "ticks": 17220,
          "time": 63.308756,
          "velocity": 0.5118110236220472
        },
        {
          "duration": 0.22058799999999934,
          "durationTicks": 60,
          "midi": 55,
          "name": "G3",
          "ticks": 17340,
          "time": 63.749932,
          "velocity": 0.5118110236220472
        },
        {
          "duration": 0.22058799999999934,
          "durationTicks": 60,
          "midi": 64,
          "name": "E4",
          "ticks": 17340,
          "time": 63.749932,
          "velocity": 0.5118110236220472
        },
        {
          "duration": 0.33088200000000256,
          "durationTicks": 90,
          "midi": 55,
          "name": "G3",
          "ticks": 17460,
          "time": 64.191108,
          "velocity": 0.5118110236220472
        },
        {
          "duration": 0.33088200000000256,
          "durationTicks": 90,
          "midi": 62,
          "name": "D4",
          "ticks": 17460,
          "time": 64.191108,
          "velocity": 0.5118110236220472
        },
        {
          "duration": 0.22058800000000645,
          "durationTicks": 60,
          "midi": 55,
          "name": "G3",
          "ticks": 17580,
          "time": 64.632284,
          "velocity": 0.5118110236220472
        },
        {
          "duration": 0.22058800000000645,
          "durationTicks": 60,
          "midi": 62,
          "name": "D4",
          "ticks": 17580,
          "time": 64.632284,
          "velocity": 0.5118110236220472
        },
        {
          "duration": 0.4411759999999987,
          "durationTicks": 120,
          "midi": 57,
          "name": "A3",
          "ticks": 17760,
          "time": 65.294048,
          "velocity": 0.5118110236220472
        },
        {
          "duration": 0.4411759999999987,
          "durationTicks": 120,
          "midi": 64,
          "name": "E4",
          "ticks": 17760,
          "time": 65.294048,
          "velocity": 0.5118110236220472
        },
        {
          "duration": 0.33088199999998835,
          "durationTicks": 90,
          "midi": 57,
          "name": "A3",
          "ticks": 17940,
          "time": 65.95581200000001,
          "velocity": 0.5118110236220472
        },
        {
          "duration": 0.33088199999998835,
          "durationTicks": 90,
          "midi": 64,
          "name": "E4",
          "ticks": 17940,
          "time": 65.95581200000001,
          "velocity": 0.5118110236220472
        },
        {
          "duration": 0.22058799999999223,
          "durationTicks": 60,
          "midi": 57,
          "name": "A3",
          "ticks": 18060,
          "time": 66.39698800000001,
          "velocity": 0.5118110236220472
        },
        {
          "duration": 0.22058799999999223,
          "durationTicks": 60,
          "midi": 64,
          "name": "E4",
          "ticks": 18060,
          "time": 66.39698800000001,
          "velocity": 0.5118110236220472
        },
        {
          "duration": 0.33088200000000256,
          "durationTicks": 90,
          "midi": 57,
          "name": "A3",
          "ticks": 18180,
          "time": 66.838164,
          "velocity": 0.5118110236220472
        },
        {
          "duration": 0.33088200000000256,
          "durationTicks": 90,
          "midi": 62,
          "name": "D4",
          "ticks": 18180,
          "time": 66.838164,
          "velocity": 0.5118110236220472
        },
        {
          "duration": 0.22058799999999223,
          "durationTicks": 60,
          "midi": 57,
          "name": "A3",
          "ticks": 18300,
          "time": 67.27934,
          "velocity": 0.5118110236220472
        },
        {
          "duration": 0.22058799999999223,
          "durationTicks": 60,
          "midi": 62,
          "name": "D4",
          "ticks": 18300,
          "time": 67.27934,
          "velocity": 0.5118110236220472
        },
        {
          "duration": 0.33088200000000256,
          "durationTicks": 90,
          "midi": 57,
          "name": "A3",
          "ticks": 18420,
          "time": 67.720516,
          "velocity": 0.5118110236220472
        },
        {
          "duration": 0.33088200000000256,
          "durationTicks": 90,
          "midi": 62,
          "name": "D4",
          "ticks": 18420,
          "time": 67.720516,
          "velocity": 0.5118110236220472
        },
        {
          "duration": 0.22058800000000645,
          "durationTicks": 60,
          "midi": 57,
          "name": "A3",
          "ticks": 18540,
          "time": 68.161692,
          "velocity": 0.5118110236220472
        },
        {
          "duration": 0.22058800000000645,
          "durationTicks": 60,
          "midi": 62,
          "name": "D4",
          "ticks": 18540,
          "time": 68.161692,
          "velocity": 0.5118110236220472
        },
        {
          "duration": 0.33088200000000256,
          "durationTicks": 90,
          "midi": 55,
          "name": "G3",
          "ticks": 18660,
          "time": 68.602868,
          "velocity": 0.5118110236220472
        },
        {
          "duration": 0.33088200000000256,
          "durationTicks": 90,
          "midi": 62,
          "name": "D4",
          "ticks": 18660,
          "time": 68.602868,
          "velocity": 0.5118110236220472
        },
        {
          "duration": 0.22058800000000645,
          "durationTicks": 60,
          "midi": 55,
          "name": "G3",
          "ticks": 18780,
          "time": 69.044044,
          "velocity": 0.5118110236220472
        },
        {
          "duration": 0.22058800000000645,
          "durationTicks": 60,
          "midi": 62,
          "name": "D4",
          "ticks": 18780,
          "time": 69.044044,
          "velocity": 0.5118110236220472
        },
        {
          "duration": 0.33088200000000256,
          "durationTicks": 90,
          "midi": 55,
          "name": "G3",
          "ticks": 18900,
          "time": 69.48522,
          "velocity": 0.5118110236220472
        },
        {
          "duration": 0.33088200000000256,
          "durationTicks": 90,
          "midi": 62,
          "name": "D4",
          "ticks": 18900,
          "time": 69.48522,
          "velocity": 0.5118110236220472
        },
        {
          "duration": 0.22058800000000645,
          "durationTicks": 60,
          "midi": 55,
          "name": "G3",
          "ticks": 19020,
          "time": 69.926396,
          "velocity": 0.5118110236220472
        },
        {
          "duration": 0.22058800000000645,
          "durationTicks": 60,
          "midi": 62,
          "name": "D4",
          "ticks": 19020,
          "time": 69.926396,
          "velocity": 0.5118110236220472
        },
        {
          "duration": 0.22058800000000645,
          "durationTicks": 60,
          "midi": 55,
          "name": "G3",
          "ticks": 19140,
          "time": 70.367572,
          "velocity": 0.5118110236220472
        },
        {
          "duration": 0.22058800000000645,
          "durationTicks": 60,
          "midi": 64,
          "name": "E4",
          "ticks": 19140,
          "time": 70.367572,
          "velocity": 0.5118110236220472
        },
        {
          "duration": 0.19485273333333453,
          "durationTicks": 53,
          "midi": 76,
          "name": "E5",
          "ticks": 27360,
          "time": 100.588128,
          "velocity": 0.6614173228346457
        },
        {
          "duration": 0.22058799999999223,
          "durationTicks": 60,
          "midi": 76,
          "name": "E5",
          "ticks": 27420,
          "time": 100.808716,
          "velocity": 0.6614173228346457
        },
        {
          "duration": 0.20588213333334693,
          "durationTicks": 56,
          "midi": 72,
          "name": "C5",
          "ticks": 27480,
          "time": 101.029304,
          "velocity": 0.6614173228346457
        },
        {
          "duration": 0.22058800000000645,
          "durationTicks": 60,
          "midi": 69,
          "name": "A4",
          "ticks": 27540,
          "time": 101.249892,
          "velocity": 0.6614173228346457
        },
        {
          "duration": 0.22058800000000645,
          "durationTicks": 60,
          "midi": 69,
          "name": "A4",
          "ticks": 27660,
          "time": 101.691068,
          "velocity": 0.6614173228346457
        },
        {
          "duration": 0.22058800000000645,
          "durationTicks": 60,
          "midi": 74,
          "name": "D5",
          "ticks": 27780,
          "time": 102.132244,
          "velocity": 0.6614173228346457
        },
        {
          "duration": 0.22058800000000645,
          "durationTicks": 60,
          "midi": 74,
          "name": "D5",
          "ticks": 27900,
          "time": 102.57342,
          "velocity": 0.6614173228346457
        },
        {
          "duration": 0.22058800000000645,
          "durationTicks": 60,
          "midi": 74,
          "name": "D5",
          "ticks": 28020,
          "time": 103.014596,
          "velocity": 0.6614173228346457
        },
        {
          "duration": 0.19485273333333453,
          "durationTicks": 53,
          "midi": 78,
          "name": "F#5",
          "ticks": 28080,
          "time": 103.235184,
          "velocity": 0.6614173228346457
        },
        {
          "duration": 0.22058800000000645,
          "durationTicks": 60,
          "midi": 78,
          "name": "F#5",
          "ticks": 28140,
          "time": 103.455772,
          "velocity": 0.6614173228346457
        },
        {
          "duration": 0.22058800000000645,
          "durationTicks": 60,
          "midi": 79,
          "name": "G5",
          "ticks": 28200,
          "time": 103.67636,
          "velocity": 0.6614173228346457
        },
        {
          "duration": 0.22058799999999223,
          "durationTicks": 60,
          "midi": 81,
          "name": "A5",
          "ticks": 28260,
          "time": 103.89694800000001,
          "velocity": 0.6614173228346457
        },
        {
          "duration": 0.18382333333333634,
          "durationTicks": 50,
          "midi": 79,
          "name": "G5",
          "ticks": 28320,
          "time": 104.117536,
          "velocity": 0.6614173228346457
        },
        {
          "duration": 0.18382333333332213,
          "durationTicks": 50,
          "midi": 79,
          "name": "G5",
          "ticks": 28380,
          "time": 104.33812400000001,
          "velocity": 0.6614173228346457
        },
        {
          "duration": 0.22058800000000645,
          "durationTicks": 60,
          "midi": 79,
          "name": "G5",
          "ticks": 28440,
          "time": 104.558712,
          "velocity": 0.6614173228346457
        },
        {
          "duration": 0.22058799999999223,
          "durationTicks": 60,
          "midi": 74,
          "name": "D5",
          "ticks": 28500,
          "time": 104.7793,
          "velocity": 0.6614173228346457
        },
        {
          "duration": 0.22058799999999223,
          "durationTicks": 60,
          "midi": 72,
          "name": "C5",
          "ticks": 28620,
          "time": 105.220476,
          "velocity": 0.6614173228346457
        },
        {
          "duration": 0.22058799999999223,
          "durationTicks": 60,
          "midi": 76,
          "name": "E5",
          "ticks": 28740,
          "time": 105.661652,
          "velocity": 0.6614173228346457
        },
        {
          "duration": 0.22058800000000645,
          "durationTicks": 60,
          "midi": 76,
          "name": "E5",
          "ticks": 28860,
          "time": 106.102828,
          "velocity": 0.6614173228346457
        },
        {
          "duration": 0.22058800000000645,
          "durationTicks": 60,
          "midi": 76,
          "name": "E5",
          "ticks": 28980,
          "time": 106.544004,
          "velocity": 0.6614173228346457
        },
        {
          "duration": 0.191176266666659,
          "durationTicks": 52,
          "midi": 74,
          "name": "D5",
          "ticks": 29040,
          "time": 106.76459200000001,
          "velocity": 0.6614173228346457
        },
        {
          "duration": 0.22058800000000645,
          "durationTicks": 60,
          "midi": 74,
          "name": "D5",
          "ticks": 29100,
          "time": 106.98518,
          "velocity": 0.6614173228346457
        },
        {
          "duration": 0.22058799999999223,
          "durationTicks": 60,
          "midi": 76,
          "name": "E5",
          "ticks": 29160,
          "time": 107.205768,
          "velocity": 0.6614173228346457
        },
        {
          "duration": 0.22058800000000645,
          "durationTicks": 60,
          "midi": 74,
          "name": "D5",
          "ticks": 29220,
          "time": 107.426356,
          "velocity": 0.6614173228346457
        },
        {
          "duration": 0.19485273333333453,
          "durationTicks": 53,
          "midi": 76,
          "name": "E5",
          "ticks": 29280,
          "time": 107.646944,
          "velocity": 0.6614173228346457
        },
        {
          "duration": 0.22058800000000645,
          "durationTicks": 60,
          "midi": 76,
          "name": "E5",
          "ticks": 29340,
          "time": 107.867532,
          "velocity": 0.6614173228346457
        },
        {
          "duration": 0.20588213333333272,
          "durationTicks": 56,
          "midi": 72,
          "name": "C5",
          "ticks": 29400,
          "time": 108.08812,
          "velocity": 0.6614173228346457
        },
        {
          "duration": 0.22058799999999223,
          "durationTicks": 60,
          "midi": 69,
          "name": "A4",
          "ticks": 29460,
          "time": 108.30870800000001,
          "velocity": 0.6614173228346457
        },
        {
          "duration": 0.22058799999999223,
          "durationTicks": 60,
          "midi": 69,
          "name": "A4",
          "ticks": 29580,
          "time": 108.74988400000001,
          "velocity": 0.6614173228346457
        },
        {
          "duration": 0.22058799999999223,
          "durationTicks": 60,
          "midi": 74,
          "name": "D5",
          "ticks": 29700,
          "time": 109.19106000000001,
          "velocity": 0.6614173228346457
        },
        {
          "duration": 0.22058799999999223,
          "durationTicks": 60,
          "midi": 74,
          "name": "D5",
          "ticks": 29820,
          "time": 109.632236,
          "velocity": 0.6614173228346457
        },
        {
          "duration": 0.22058799999999223,
          "durationTicks": 60,
          "midi": 74,
          "name": "D5",
          "ticks": 29940,
          "time": 110.073412,
          "velocity": 0.6614173228346457
        },
        {
          "duration": 0.19485273333333453,
          "durationTicks": 53,
          "midi": 78,
          "name": "F#5",
          "ticks": 30000,
          "time": 110.294,
          "velocity": 0.6614173228346457
        },
        {
          "duration": 0.22058800000000645,
          "durationTicks": 60,
          "midi": 78,
          "name": "F#5",
          "ticks": 30060,
          "time": 110.514588,
          "velocity": 0.6614173228346457
        },
        {
          "duration": 0.22058799999999223,
          "durationTicks": 60,
          "midi": 79,
          "name": "G5",
          "ticks": 30120,
          "time": 110.73517600000001,
          "velocity": 0.6614173228346457
        },
        {
          "duration": 0.22058800000000645,
          "durationTicks": 60,
          "midi": 81,
          "name": "A5",
          "ticks": 30180,
          "time": 110.955764,
          "velocity": 0.6614173228346457
        },
        {
          "duration": 0.18382333333332213,
          "durationTicks": 50,
          "midi": 79,
          "name": "G5",
          "ticks": 30240,
          "time": 111.17635200000001,
          "velocity": 0.6614173228346457
        },
        {
          "duration": 0.18382333333333634,
          "durationTicks": 50,
          "midi": 79,
          "name": "G5",
          "ticks": 30300,
          "time": 111.39694,
          "velocity": 0.6614173228346457
        },
        {
          "duration": 0.22058799999999223,
          "durationTicks": 60,
          "midi": 79,
          "name": "G5",
          "ticks": 30360,
          "time": 111.61752800000001,
          "velocity": 0.6614173228346457
        },
        {
          "duration": 0.22058800000000645,
          "durationTicks": 60,
          "midi": 74,
          "name": "D5",
          "ticks": 30420,
          "time": 111.838116,
          "velocity": 0.6614173228346457
        },
        {
          "duration": 0.22058800000000645,
          "durationTicks": 60,
          "midi": 72,
          "name": "C5",
          "ticks": 30540,
          "time": 112.279292,
          "velocity": 0.6614173228346457
        },
        {
          "duration": 0.22058800000000645,
          "durationTicks": 60,
          "midi": 76,
          "name": "E5",
          "ticks": 30660,
          "time": 112.720468,
          "velocity": 0.6614173228346457
        },
        {
          "duration": 0.22058799999999223,
          "durationTicks": 60,
          "midi": 76,
          "name": "E5",
          "ticks": 30780,
          "time": 113.16164400000001,
          "velocity": 0.6614173228346457
        },
        {
          "duration": 0.22058799999999223,
          "durationTicks": 60,
          "midi": 76,
          "name": "E5",
          "ticks": 30900,
          "time": 113.60282000000001,
          "velocity": 0.6614173228346457
        },
        {
          "duration": 0.17647039999999947,
          "durationTicks": 48,
          "midi": 74,
          "name": "D5",
          "ticks": 30960,
          "time": 113.823408,
          "velocity": 0.6614173228346457
        },
        {
          "duration": 0.22058799999999223,
          "durationTicks": 60,
          "midi": 74,
          "name": "D5",
          "ticks": 31020,
          "time": 114.043996,
          "velocity": 0.6614173228346457
        },
        {
          "duration": 0.19485273333333453,
          "durationTicks": 53,
          "midi": 76,
          "name": "E5",
          "ticks": 31200,
          "time": 114.70576,
          "velocity": 0.7401574803149606
        },
        {
          "duration": 0.22058799999999223,
          "durationTicks": 60,
          "midi": 76,
          "name": "E5",
          "ticks": 31260,
          "time": 114.926348,
          "velocity": 0.7401574803149606
        },
        {
          "duration": 0.20588213333333272,
          "durationTicks": 56,
          "midi": 72,
          "name": "C5",
          "ticks": 31320,
          "time": 115.146936,
          "velocity": 0.7401574803149606
        },
        {
          "duration": 0.22058800000000645,
          "durationTicks": 60,
          "midi": 69,
          "name": "A4",
          "ticks": 31380,
          "time": 115.367524,
          "velocity": 0.7401574803149606
        },
        {
          "duration": 0.22058800000000645,
          "durationTicks": 60,
          "midi": 69,
          "name": "A4",
          "ticks": 31500,
          "time": 115.8087,
          "velocity": 0.7401574803149606
        },
        {
          "duration": 0.22058800000000645,
          "durationTicks": 60,
          "midi": 74,
          "name": "D5",
          "ticks": 31620,
          "time": 116.249876,
          "velocity": 0.7401574803149606
        },
        {
          "duration": 0.22058800000000645,
          "durationTicks": 60,
          "midi": 74,
          "name": "D5",
          "ticks": 31740,
          "time": 116.691052,
          "velocity": 0.7401574803149606
        },
        {
          "duration": 0.22058800000000645,
          "durationTicks": 60,
          "midi": 74,
          "name": "D5",
          "ticks": 31860,
          "time": 117.132228,
          "velocity": 0.7401574803149606
        },
        {
          "duration": 0.19485273333333453,
          "durationTicks": 53,
          "midi": 78,
          "name": "F#5",
          "ticks": 31920,
          "time": 117.352816,
          "velocity": 0.7401574803149606
        },
        {
          "duration": 0.22058800000000645,
          "durationTicks": 60,
          "midi": 78,
          "name": "F#5",
          "ticks": 31980,
          "time": 117.573404,
          "velocity": 0.7401574803149606
        },
        {
          "duration": 0.22058800000000645,
          "durationTicks": 60,
          "midi": 79,
          "name": "G5",
          "ticks": 32040,
          "time": 117.793992,
          "velocity": 0.7401574803149606
        },
        {
          "duration": 0.22058799999999223,
          "durationTicks": 60,
          "midi": 81,
          "name": "A5",
          "ticks": 32100,
          "time": 118.01458000000001,
          "velocity": 0.7401574803149606
        },
        {
          "duration": 0.18382333333335055,
          "durationTicks": 50,
          "midi": 79,
          "name": "G5",
          "ticks": 32160,
          "time": 118.235168,
          "velocity": 0.7401574803149606
        },
        {
          "duration": 0.18382333333333634,
          "durationTicks": 50,
          "midi": 79,
          "name": "G5",
          "ticks": 32220,
          "time": 118.45575600000001,
          "velocity": 0.7401574803149606
        },
        {
          "duration": 0.22058800000000645,
          "durationTicks": 60,
          "midi": 79,
          "name": "G5",
          "ticks": 32280,
          "time": 118.676344,
          "velocity": 0.7401574803149606
        },
        {
          "duration": 0.22058799999999223,
          "durationTicks": 60,
          "midi": 74,
          "name": "D5",
          "ticks": 32340,
          "time": 118.896932,
          "velocity": 0.7401574803149606
        },
        {
          "duration": 0.22058799999999223,
          "durationTicks": 60,
          "midi": 72,
          "name": "C5",
          "ticks": 32460,
          "time": 119.338108,
          "velocity": 0.7401574803149606
        },
        {
          "duration": 0.22058800000000645,
          "durationTicks": 60,
          "midi": 76,
          "name": "E5",
          "ticks": 32580,
          "time": 119.779284,
          "velocity": 0.7401574803149606
        },
        {
          "duration": 0.22058800000000645,
          "durationTicks": 60,
          "midi": 76,
          "name": "E5",
          "ticks": 32700,
          "time": 120.22046,
          "velocity": 0.7401574803149606
        },
        {
          "duration": 0.22058800000000645,
          "durationTicks": 60,
          "midi": 76,
          "name": "E5",
          "ticks": 32820,
          "time": 120.661636,
          "velocity": 0.7401574803149606
        },
        {
          "duration": 0.191176266666659,
          "durationTicks": 52,
          "midi": 74,
          "name": "D5",
          "ticks": 32880,
          "time": 120.88222400000001,
          "velocity": 0.7401574803149606
        },
        {
          "duration": 0.22058800000000645,
          "durationTicks": 60,
          "midi": 74,
          "name": "D5",
          "ticks": 32940,
          "time": 121.102812,
          "velocity": 0.7401574803149606
        },
        {
          "duration": 0.22058799999999223,
          "durationTicks": 60,
          "midi": 76,
          "name": "E5",
          "ticks": 33000,
          "time": 121.3234,
          "velocity": 0.7401574803149606
        },
        {
          "duration": 0.22058800000000645,
          "durationTicks": 60,
          "midi": 74,
          "name": "D5",
          "ticks": 33060,
          "time": 121.543988,
          "velocity": 0.7401574803149606
        },
        {
          "duration": 0.19485273333333453,
          "durationTicks": 53,
          "midi": 76,
          "name": "E5",
          "ticks": 33120,
          "time": 121.764576,
          "velocity": 0.7401574803149606
        },
        {
          "duration": 0.22058800000000645,
          "durationTicks": 60,
          "midi": 76,
          "name": "E5",
          "ticks": 33180,
          "time": 121.985164,
          "velocity": 0.7401574803149606
        },
        {
          "duration": 0.2058821333333185,
          "durationTicks": 56,
          "midi": 72,
          "name": "C5",
          "ticks": 33240,
          "time": 122.205752,
          "velocity": 0.7401574803149606
        },
        {
          "duration": 0.22058799999999223,
          "durationTicks": 60,
          "midi": 69,
          "name": "A4",
          "ticks": 33300,
          "time": 122.42634000000001,
          "velocity": 0.7401574803149606
        },
        {
          "duration": 0.22058799999999223,
          "durationTicks": 60,
          "midi": 69,
          "name": "A4",
          "ticks": 33420,
          "time": 122.86751600000001,
          "velocity": 0.7401574803149606
        },
        {
          "duration": 0.22058799999999223,
          "durationTicks": 60,
          "midi": 74,
          "name": "D5",
          "ticks": 33540,
          "time": 123.30869200000001,
          "velocity": 0.7401574803149606
        },
        {
          "duration": 0.22058799999999223,
          "durationTicks": 60,
          "midi": 74,
          "name": "D5",
          "ticks": 33660,
          "time": 123.749868,
          "velocity": 0.7401574803149606
        },
        {
          "duration": 0.22058799999999223,
          "durationTicks": 60,
          "midi": 74,
          "name": "D5",
          "ticks": 33780,
          "time": 124.191044,
          "velocity": 0.7401574803149606
        },
        {
          "duration": 0.19485273333333453,
          "durationTicks": 53,
          "midi": 78,
          "name": "F#5",
          "ticks": 33840,
          "time": 124.411632,
          "velocity": 0.7401574803149606
        },
        {
          "duration": 0.22058800000000645,
          "durationTicks": 60,
          "midi": 78,
          "name": "F#5",
          "ticks": 33900,
          "time": 124.63222,
          "velocity": 0.7401574803149606
        },
        {
          "duration": 0.22058799999999223,
          "durationTicks": 60,
          "midi": 79,
          "name": "G5",
          "ticks": 33960,
          "time": 124.85280800000001,
          "velocity": 0.7401574803149606
        },
        {
          "duration": 0.22058800000000645,
          "durationTicks": 60,
          "midi": 81,
          "name": "A5",
          "ticks": 34020,
          "time": 125.073396,
          "velocity": 0.7401574803149606
        },
        {
          "duration": 0.18382333333333634,
          "durationTicks": 50,
          "midi": 79,
          "name": "G5",
          "ticks": 34080,
          "time": 125.29398400000001,
          "velocity": 0.7401574803149606
        },
        {
          "duration": 0.18382333333335055,
          "durationTicks": 50,
          "midi": 79,
          "name": "G5",
          "ticks": 34140,
          "time": 125.514572,
          "velocity": 0.7401574803149606
        },
        {
          "duration": 0.22058799999999223,
          "durationTicks": 60,
          "midi": 79,
          "name": "G5",
          "ticks": 34200,
          "time": 125.73516000000001,
          "velocity": 0.7401574803149606
        },
        {
          "duration": 0.22058800000000645,
          "durationTicks": 60,
          "midi": 74,
          "name": "D5",
          "ticks": 34260,
          "time": 125.955748,
          "velocity": 0.7401574803149606
        },
        {
          "duration": 0.22058800000000645,
          "durationTicks": 60,
          "midi": 72,
          "name": "C5",
          "ticks": 34380,
          "time": 126.396924,
          "velocity": 0.7401574803149606
        },
        {
          "duration": 0.22058800000000645,
          "durationTicks": 60,
          "midi": 76,
          "name": "E5",
          "ticks": 34500,
          "time": 126.8381,
          "velocity": 0.7401574803149606
        },
        {
          "duration": 0.22058799999999223,
          "durationTicks": 60,
          "midi": 76,
          "name": "E5",
          "ticks": 34620,
          "time": 127.27927600000001,
          "velocity": 0.7401574803149606
        },
        {
          "duration": 0.22058799999999223,
          "durationTicks": 60,
          "midi": 76,
          "name": "E5",
          "ticks": 34740,
          "time": 127.72045200000001,
          "velocity": 0.7401574803149606
        },
        {
          "duration": 0.44117599999998447,
          "durationTicks": 120,
          "midi": 57,
          "name": "A3",
          "ticks": 35040,
          "time": 128.823392,
          "velocity": 0.5118110236220472
        },
        {
          "duration": 0.44117599999998447,
          "durationTicks": 120,
          "midi": 64,
          "name": "E4",
          "ticks": 35040,
          "time": 128.823392,
          "velocity": 0.5118110236220472
        },
        {
          "duration": 0.33088199999997414,
          "durationTicks": 90,
          "midi": 57,
          "name": "A3",
          "ticks": 35220,
          "time": 129.48515600000002,
          "velocity": 0.5118110236220472
        },
        {
          "duration": 0.33088199999997414,
          "durationTicks": 90,
          "midi": 64,
          "name": "E4",
          "ticks": 35220,
          "time": 129.48515600000002,
          "velocity": 0.5118110236220472
        },
        {
          "duration": 0.22058799999999223,
          "durationTicks": 60,
          "midi": 57,
          "name": "A3",
          "ticks": 35340,
          "time": 129.926332,
          "velocity": 0.5118110236220472
        },
        {
          "duration": 0.22058799999999223,
          "durationTicks": 60,
          "midi": 64,
          "name": "E4",
          "ticks": 35340,
          "time": 129.926332,
          "velocity": 0.5118110236220472
        },
        {
          "duration": 0.33088200000000256,
          "durationTicks": 90,
          "midi": 57,
          "name": "A3",
          "ticks": 35460,
          "time": 130.36750800000002,
          "velocity": 0.5118110236220472
        },
        {
          "duration": 0.33088200000000256,
          "durationTicks": 90,
          "midi": 62,
          "name": "D4",
          "ticks": 35460,
          "time": 130.36750800000002,
          "velocity": 0.5118110236220472
        },
        {
          "duration": 0.22058799999999223,
          "durationTicks": 60,
          "midi": 57,
          "name": "A3",
          "ticks": 35580,
          "time": 130.808684,
          "velocity": 0.5118110236220472
        },
        {
          "duration": 0.22058799999999223,
          "durationTicks": 60,
          "midi": 62,
          "name": "D4",
          "ticks": 35580,
          "time": 130.808684,
          "velocity": 0.5118110236220472
        },
        {
          "duration": 0.33088200000000256,
          "durationTicks": 90,
          "midi": 57,
          "name": "A3",
          "ticks": 35700,
          "time": 131.24986,
          "velocity": 0.5118110236220472
        },
        {
          "duration": 0.33088200000000256,
          "durationTicks": 90,
          "midi": 62,
          "name": "D4",
          "ticks": 35700,
          "time": 131.24986,
          "velocity": 0.5118110236220472
        },
        {
          "duration": 0.22058800000002066,
          "durationTicks": 60,
          "midi": 57,
          "name": "A3",
          "ticks": 35820,
          "time": 131.691036,
          "velocity": 0.5118110236220472
        },
        {
          "duration": 0.22058800000002066,
          "durationTicks": 60,
          "midi": 62,
          "name": "D4",
          "ticks": 35820,
          "time": 131.691036,
          "velocity": 0.5118110236220472
        },
        {
          "duration": 0.33088200000000256,
          "durationTicks": 90,
          "midi": 55,
          "name": "G3",
          "ticks": 35940,
          "time": 132.132212,
          "velocity": 0.5118110236220472
        },
        {
          "duration": 0.33088200000000256,
          "durationTicks": 90,
          "midi": 62,
          "name": "D4",
          "ticks": 35940,
          "time": 132.132212,
          "velocity": 0.5118110236220472
        },
        {
          "duration": 0.22058800000002066,
          "durationTicks": 60,
          "midi": 55,
          "name": "G3",
          "ticks": 36060,
          "time": 132.573388,
          "velocity": 0.5118110236220472
        },
        {
          "duration": 0.22058800000002066,
          "durationTicks": 60,
          "midi": 62,
          "name": "D4",
          "ticks": 36060,
          "time": 132.573388,
          "velocity": 0.5118110236220472
        },
        {
          "duration": 0.33088200000000256,
          "durationTicks": 90,
          "midi": 55,
          "name": "G3",
          "ticks": 36180,
          "time": 133.014564,
          "velocity": 0.5118110236220472
        },
        {
          "duration": 0.33088200000000256,
          "durationTicks": 90,
          "midi": 62,
          "name": "D4",
          "ticks": 36180,
          "time": 133.014564,
          "velocity": 0.5118110236220472
        },
        {
          "duration": 0.22058800000002066,
          "durationTicks": 60,
          "midi": 55,
          "name": "G3",
          "ticks": 36300,
          "time": 133.45574,
          "velocity": 0.5118110236220472
        },
        {
          "duration": 0.22058800000002066,
          "durationTicks": 60,
          "midi": 62,
          "name": "D4",
          "ticks": 36300,
          "time": 133.45574,
          "velocity": 0.5118110236220472
        },
        {
          "duration": 0.33088200000000256,
          "durationTicks": 90,
          "midi": 55,
          "name": "G3",
          "ticks": 36420,
          "time": 133.896916,
          "velocity": 0.5118110236220472
        },
        {
          "duration": 0.33088200000000256,
          "durationTicks": 90,
          "midi": 64,
          "name": "E4",
          "ticks": 36420,
          "time": 133.896916,
          "velocity": 0.5118110236220472
        },
        {
          "duration": 0.22058799999999223,
          "durationTicks": 60,
          "midi": 55,
          "name": "G3",
          "ticks": 36540,
          "time": 134.33809200000002,
          "velocity": 0.5118110236220472
        },
        {
          "duration": 0.22058799999999223,
          "durationTicks": 60,
          "midi": 64,
          "name": "E4",
          "ticks": 36540,
          "time": 134.33809200000002,
          "velocity": 0.5118110236220472
        },
        {
          "duration": 0.33088200000000256,
          "durationTicks": 90,
          "midi": 55,
          "name": "G3",
          "ticks": 36660,
          "time": 134.779268,
          "velocity": 0.5118110236220472
        },
        {
          "duration": 0.33088200000000256,
          "durationTicks": 90,
          "midi": 62,
          "name": "D4",
          "ticks": 36660,
          "time": 134.779268,
          "velocity": 0.5118110236220472
        },
        {
          "duration": 0.22058799999999223,
          "durationTicks": 60,
          "midi": 55,
          "name": "G3",
          "ticks": 36780,
          "time": 135.22044400000001,
          "velocity": 0.5118110236220472
        },
        {
          "duration": 0.22058799999999223,
          "durationTicks": 60,
          "midi": 62,
          "name": "D4",
          "ticks": 36780,
          "time": 135.22044400000001,
          "velocity": 0.5118110236220472
        },
        {
          "duration": 0.4411760000000129,
          "durationTicks": 120,
          "midi": 57,
          "name": "A3",
          "ticks": 36960,
          "time": 135.882208,
          "velocity": 0.5118110236220472
        },
        {
          "duration": 0.4411760000000129,
          "durationTicks": 120,
          "midi": 64,
          "name": "E4",
          "ticks": 36960,
          "time": 135.882208,
          "velocity": 0.5118110236220472
        },
        {
          "duration": 0.33088200000000256,
          "durationTicks": 90,
          "midi": 57,
          "name": "A3",
          "ticks": 37140,
          "time": 136.543972,
          "velocity": 0.5118110236220472
        },
        {
          "duration": 0.33088200000000256,
          "durationTicks": 90,
          "midi": 64,
          "name": "E4",
          "ticks": 37140,
          "time": 136.543972,
          "velocity": 0.5118110236220472
        },
        {
          "duration": 0.22058799999999223,
          "durationTicks": 60,
          "midi": 57,
          "name": "A3",
          "ticks": 37260,
          "time": 136.985148,
          "velocity": 0.5118110236220472
        },
        {
          "duration": 0.22058799999999223,
          "durationTicks": 60,
          "midi": 64,
          "name": "E4",
          "ticks": 37260,
          "time": 136.985148,
          "velocity": 0.5118110236220472
        },
        {
          "duration": 0.33088200000000256,
          "durationTicks": 90,
          "midi": 57,
          "name": "A3",
          "ticks": 37380,
          "time": 137.426324,
          "velocity": 0.5118110236220472
        },
        {
          "duration": 0.33088200000000256,
          "durationTicks": 90,
          "midi": 62,
          "name": "D4",
          "ticks": 37380,
          "time": 137.426324,
          "velocity": 0.5118110236220472
        },
        {
          "duration": 0.22058799999999223,
          "durationTicks": 60,
          "midi": 57,
          "name": "A3",
          "ticks": 37500,
          "time": 137.8675,
          "velocity": 0.5118110236220472
        },
        {
          "duration": 0.22058799999999223,
          "durationTicks": 60,
          "midi": 62,
          "name": "D4",
          "ticks": 37500,
          "time": 137.8675,
          "velocity": 0.5118110236220472
        },
        {
          "duration": 0.33088200000000256,
          "durationTicks": 90,
          "midi": 57,
          "name": "A3",
          "ticks": 37620,
          "time": 138.308676,
          "velocity": 0.5118110236220472
        },
        {
          "duration": 0.33088200000000256,
          "durationTicks": 90,
          "midi": 62,
          "name": "D4",
          "ticks": 37620,
          "time": 138.308676,
          "velocity": 0.5118110236220472
        },
        {
          "duration": 0.22058799999999223,
          "durationTicks": 60,
          "midi": 57,
          "name": "A3",
          "ticks": 37740,
          "time": 138.749852,
          "velocity": 0.5118110236220472
        },
        {
          "duration": 0.22058799999999223,
          "durationTicks": 60,
          "midi": 62,
          "name": "D4",
          "ticks": 37740,
          "time": 138.749852,
          "velocity": 0.5118110236220472
        },
        {
          "duration": 0.33088199999997414,
          "durationTicks": 90,
          "midi": 55,
          "name": "G3",
          "ticks": 37860,
          "time": 139.19102800000002,
          "velocity": 0.5118110236220472
        },
        {
          "duration": 0.33088199999997414,
          "durationTicks": 90,
          "midi": 62,
          "name": "D4",
          "ticks": 37860,
          "time": 139.19102800000002,
          "velocity": 0.5118110236220472
        },
        {
          "duration": 0.22058799999999223,
          "durationTicks": 60,
          "midi": 55,
          "name": "G3",
          "ticks": 37980,
          "time": 139.632204,
          "velocity": 0.5118110236220472
        },
        {
          "duration": 0.22058799999999223,
          "durationTicks": 60,
          "midi": 62,
          "name": "D4",
          "ticks": 37980,
          "time": 139.632204,
          "velocity": 0.5118110236220472
        },
        {
          "duration": 0.33088200000000256,
          "durationTicks": 90,
          "midi": 55,
          "name": "G3",
          "ticks": 38100,
          "time": 140.07338000000001,
          "velocity": 0.5118110236220472
        },
        {
          "duration": 0.33088200000000256,
          "durationTicks": 90,
          "midi": 62,
          "name": "D4",
          "ticks": 38100,
          "time": 140.07338000000001,
          "velocity": 0.5118110236220472
        },
        {
          "duration": 0.22058799999999223,
          "durationTicks": 60,
          "midi": 55,
          "name": "G3",
          "ticks": 38220,
          "time": 140.514556,
          "velocity": 0.5118110236220472
        },
        {
          "duration": 0.22058799999999223,
          "durationTicks": 60,
          "midi": 62,
          "name": "D4",
          "ticks": 38220,
          "time": 140.514556,
          "velocity": 0.5118110236220472
        },
        {
          "duration": 0.22058799999999223,
          "durationTicks": 60,
          "midi": 55,
          "name": "G3",
          "ticks": 38340,
          "time": 140.955732,
          "velocity": 0.5118110236220472
        },
        {
          "duration": 0.22058799999999223,
          "durationTicks": 60,
          "midi": 64,
          "name": "E4",
          "ticks": 38340,
          "time": 140.955732,
          "velocity": 0.5118110236220472
        },
        {
          "duration": 1.7426451999999983,
          "durationTicks": 474,
          "midi": 43,
          "name": "G2",
          "ticks": 41760,
          "time": 153.529248,
          "velocity": 0.4251968503937008
        },
        {
          "duration": 1.7426451999999983,
          "durationTicks": 474,
          "midi": 55,
          "name": "G3",
          "ticks": 41760,
          "time": 153.529248,
          "velocity": 0.4251968503937008
        },
        {
          "duration": 1.7426451999999983,
          "durationTicks": 474,
          "midi": 59,
          "name": "B3",
          "ticks": 41760,
          "time": 153.529248,
          "velocity": 0.4251968503937008
        },
        {
          "duration": 1.7426451999999983,
          "durationTicks": 474,
          "midi": 62,
          "name": "D4",
          "ticks": 41760,
          "time": 153.529248,
          "velocity": 0.4251968503937008
        },
        {
          "duration": 1.3235280000000103,
          "durationTicks": 360,
          "midi": 48,
          "name": "C3",
          "ticks": 42240,
          "time": 155.293952,
          "velocity": 0.5196850393700787
        },
        {
          "duration": 1.2977927333333525,
          "durationTicks": 353,
          "midi": 55,
          "name": "G3",
          "ticks": 42240,
          "time": 155.293952,
          "velocity": 0.5196850393700787
        },
        {
          "duration": 1.2977927333333525,
          "durationTicks": 353,
          "midi": 60,
          "name": "C4",
          "ticks": 42240,
          "time": 155.293952,
          "velocity": 0.5196850393700787
        },
        {
          "duration": 1.2977927333333525,
          "durationTicks": 353,
          "midi": 64,
          "name": "E4",
          "ticks": 42240,
          "time": 155.293952,
          "velocity": 0.5196850393700787
        },
        {
          "duration": 0.4191171999999881,
          "durationTicks": 114,
          "midi": 47,
          "name": "B2",
          "ticks": 42600,
          "time": 156.61748,
          "velocity": 0.5590551181102362
        },
        {
          "duration": 0.4191171999999881,
          "durationTicks": 114,
          "midi": 55,
          "name": "G3",
          "ticks": 42600,
          "time": 156.61748,
          "velocity": 0.5590551181102362
        },
        {
          "duration": 0.4191171999999881,
          "durationTicks": 114,
          "midi": 59,
          "name": "B3",
          "ticks": 42600,
          "time": 156.61748,
          "velocity": 0.5590551181102362
        },
        {
          "duration": 0.4191171999999881,
          "durationTicks": 114,
          "midi": 62,
          "name": "D4",
          "ticks": 42600,
          "time": 156.61748,
          "velocity": 0.5590551181102362
        },
        {
          "duration": 1.7426451999999983,
          "durationTicks": 474,
          "midi": 45,
          "name": "A2",
          "ticks": 42720,
          "time": 157.058656,
          "velocity": 0.5984251968503937
        },
        {
          "duration": 1.7426451999999983,
          "durationTicks": 474,
          "midi": 57,
          "name": "A3",
          "ticks": 42720,
          "time": 157.058656,
          "velocity": 0.5984251968503937
        },
        {
          "duration": 1.7426451999999983,
          "durationTicks": 474,
          "midi": 60,
          "name": "C4",
          "ticks": 42720,
          "time": 157.058656,
          "velocity": 0.5984251968503937
        },
        {
          "duration": 1.7426451999999983,
          "durationTicks": 474,
          "midi": 64,
          "name": "E4",
          "ticks": 42720,
          "time": 157.058656,
          "velocity": 0.5984251968503937
        },
        {
          "duration": 1.7426451999999983,
          "durationTicks": 474,
          "midi": 50,
          "name": "D3",
          "ticks": 43200,
          "time": 158.82336,
          "velocity": 0.6062992125984252
        },
        {
          "duration": 1.7426451999999983,
          "durationTicks": 474,
          "midi": 57,
          "name": "A3",
          "ticks": 43200,
          "time": 158.82336,
          "velocity": 0.6062992125984252
        },
        {
          "duration": 1.7426451999999983,
          "durationTicks": 474,
          "midi": 62,
          "name": "D4",
          "ticks": 43200,
          "time": 158.82336,
          "velocity": 0.6062992125984252
        },
        {
          "duration": 1.7426451999999983,
          "durationTicks": 474,
          "midi": 66,
          "name": "F#4",
          "ticks": 43200,
          "time": 158.82336,
          "velocity": 0.6062992125984252
        },
        {
          "duration": 1.7426451999999983,
          "durationTicks": 474,
          "midi": 43,
          "name": "G2",
          "ticks": 43680,
          "time": 160.588064,
          "velocity": 0.6220472440944882
        },
        {
          "duration": 1.7426451999999983,
          "durationTicks": 474,
          "midi": 59,
          "name": "B3",
          "ticks": 43680,
          "time": 160.588064,
          "velocity": 0.6220472440944882
        },
        {
          "duration": 1.7426451999999983,
          "durationTicks": 474,
          "midi": 62,
          "name": "D4",
          "ticks": 43680,
          "time": 160.588064,
          "velocity": 0.6220472440944882
        },
        {
          "duration": 1.7426451999999983,
          "durationTicks": 474,
          "midi": 67,
          "name": "G4",
          "ticks": 43680,
          "time": 160.588064,
          "velocity": 0.6220472440944882
        },
        {
          "duration": 0.8823519999999974,
          "durationTicks": 240,
          "midi": 48,
          "name": "C3",
          "ticks": 44160,
          "time": 162.352768,
          "velocity": 0.6299212598425197
        },
        {
          "duration": 0.8823519999999974,
          "durationTicks": 240,
          "midi": 55,
          "name": "G3",
          "ticks": 44160,
          "time": 162.352768,
          "velocity": 0.6299212598425197
        },
        {
          "duration": 0.8823519999999974,
          "durationTicks": 240,
          "midi": 60,
          "name": "C4",
          "ticks": 44160,
          "time": 162.352768,
          "velocity": 0.6299212598425197
        },
        {
          "duration": 0.8823519999999974,
          "durationTicks": 240,
          "midi": 64,
          "name": "E4",
          "ticks": 44160,
          "time": 162.352768,
          "velocity": 0.6299212598425197
        },
        {
          "duration": 1.7426451999999983,
          "durationTicks": 474,
          "midi": 45,
          "name": "A2",
          "ticks": 44640,
          "time": 164.117472,
          "velocity": 0.6299212598425197
        },
        {
          "duration": 1.7426451999999983,
          "durationTicks": 474,
          "midi": 57,
          "name": "A3",
          "ticks": 44640,
          "time": 164.117472,
          "velocity": 0.6299212598425197
        },
        {
          "duration": 1.7426451999999983,
          "durationTicks": 474,
          "midi": 60,
          "name": "C4",
          "ticks": 44640,
          "time": 164.117472,
          "velocity": 0.6299212598425197
        },
        {
          "duration": 1.7647040000000231,
          "durationTicks": 480,
          "midi": 64,
          "name": "E4",
          "ticks": 44640,
          "time": 164.117472,
          "velocity": 0.6299212598425197
        },
        {
          "duration": 1.7426451999999983,
          "durationTicks": 474,
          "midi": 50,
          "name": "D3",
          "ticks": 45120,
          "time": 165.88217600000002,
          "velocity": 0.6220472440944882
        },
        {
          "duration": 1.7426451999999983,
          "durationTicks": 474,
          "midi": 57,
          "name": "A3",
          "ticks": 45120,
          "time": 165.88217600000002,
          "velocity": 0.6220472440944882
        },
        {
          "duration": 1.7426451999999983,
          "durationTicks": 474,
          "midi": 62,
          "name": "D4",
          "ticks": 45120,
          "time": 165.88217600000002,
          "velocity": 0.6220472440944882
        },
        {
          "duration": 1.7426451999999983,
          "durationTicks": 474,
          "midi": 66,
          "name": "F#4",
          "ticks": 45120,
          "time": 165.88217600000002,
          "velocity": 0.6220472440944882
        },
        {
          "duration": 1.5441160000000025,
          "durationTicks": 420,
          "midi": 43,
          "name": "G2",
          "ticks": 45600,
          "time": 167.64688,
          "velocity": 0.6220472440944882
        },
        {
          "duration": 0.8566167333333397,
          "durationTicks": 233,
          "midi": 59,
          "name": "B3",
          "ticks": 45600,
          "time": 167.64688,
          "velocity": 0.6220472440944882
        },
        {
          "duration": 1.5441160000000025,
          "durationTicks": 420,
          "midi": 62,
          "name": "D4",
          "ticks": 45600,
          "time": 167.64688,
          "velocity": 0.6220472440944882
        },
        {
          "duration": 1.5441160000000025,
          "durationTicks": 420,
          "midi": 67,
          "name": "G4",
          "ticks": 45600,
          "time": 167.64688,
          "velocity": 0.6220472440944882
        },
        {
          "duration": 0.22058799999999223,
          "durationTicks": 60,
          "midi": 48,
          "name": "C3",
          "ticks": 46020,
          "time": 169.190996,
          "velocity": 0.6220472440944882
        },
        {
          "duration": 0.22058799999999223,
          "durationTicks": 60,
          "midi": 55,
          "name": "G3",
          "ticks": 46020,
          "time": 169.190996,
          "velocity": 0.6220472440944882
        },
        {
          "duration": 0.22058799999999223,
          "durationTicks": 60,
          "midi": 60,
          "name": "C4",
          "ticks": 46020,
          "time": 169.190996,
          "velocity": 0.6220472440944882
        },
        {
          "duration": 0.22058799999999223,
          "durationTicks": 60,
          "midi": 64,
          "name": "E4",
          "ticks": 46020,
          "time": 169.190996,
          "velocity": 0.6220472440944882
        },
        {
          "duration": 0.19485273333333453,
          "durationTicks": 53,
          "midi": 76,
          "name": "E5",
          "ticks": 46560,
          "time": 171.176288,
          "velocity": 0.6614173228346457
        },
        {
          "duration": 0.22058800000002066,
          "durationTicks": 60,
          "midi": 76,
          "name": "E5",
          "ticks": 46620,
          "time": 171.396876,
          "velocity": 0.6614173228346457
        },
        {
          "duration": 0.2058821333333185,
          "durationTicks": 56,
          "midi": 72,
          "name": "C5",
          "ticks": 46680,
          "time": 171.617464,
          "velocity": 0.6614173228346457
        },
        {
          "duration": 0.22058799999999223,
          "durationTicks": 60,
          "midi": 69,
          "name": "A4",
          "ticks": 46740,
          "time": 171.838052,
          "velocity": 0.6614173228346457
        },
        {
          "duration": 0.22058799999999223,
          "durationTicks": 60,
          "midi": 69,
          "name": "A4",
          "ticks": 46860,
          "time": 172.27922800000002,
          "velocity": 0.6614173228346457
        },
        {
          "duration": 0.22058799999999223,
          "durationTicks": 60,
          "midi": 74,
          "name": "D5",
          "ticks": 46980,
          "time": 172.720404,
          "velocity": 0.6614173228346457
        },
        {
          "duration": 0.22058799999999223,
          "durationTicks": 60,
          "midi": 74,
          "name": "D5",
          "ticks": 47100,
          "time": 173.16158000000001,
          "velocity": 0.6614173228346457
        },
        {
          "duration": 0.22058799999999223,
          "durationTicks": 60,
          "midi": 74,
          "name": "D5",
          "ticks": 47220,
          "time": 173.602756,
          "velocity": 0.6614173228346457
        },
        {
          "duration": 0.19485273333333453,
          "durationTicks": 53,
          "midi": 78,
          "name": "F#5",
          "ticks": 47280,
          "time": 173.823344,
          "velocity": 0.6614173228346457
        },
        {
          "duration": 0.22058799999999223,
          "durationTicks": 60,
          "midi": 78,
          "name": "F#5",
          "ticks": 47340,
          "time": 174.043932,
          "velocity": 0.6614173228346457
        },
        {
          "duration": 0.22058799999999223,
          "durationTicks": 60,
          "midi": 79,
          "name": "G5",
          "ticks": 47400,
          "time": 174.26452,
          "velocity": 0.6614173228346457
        },
        {
          "duration": 0.22058800000002066,
          "durationTicks": 60,
          "midi": 81,
          "name": "A5",
          "ticks": 47460,
          "time": 174.485108,
          "velocity": 0.6614173228346457
        },
        {
          "duration": 0.18382333333332213,
          "durationTicks": 50,
          "midi": 79,
          "name": "G5",
          "ticks": 47520,
          "time": 174.70569600000002,
          "velocity": 0.6614173228346457
        },
        {
          "duration": 0.18382333333335055,
          "durationTicks": 50,
          "midi": 79,
          "name": "G5",
          "ticks": 47580,
          "time": 174.926284,
          "velocity": 0.6614173228346457
        },
        {
          "duration": 0.22058799999999223,
          "durationTicks": 60,
          "midi": 79,
          "name": "G5",
          "ticks": 47640,
          "time": 175.146872,
          "velocity": 0.6614173228346457
        },
        {
          "duration": 0.22058800000002066,
          "durationTicks": 60,
          "midi": 74,
          "name": "D5",
          "ticks": 47700,
          "time": 175.36746,
          "velocity": 0.6614173228346457
        },
        {
          "duration": 0.22058799999999223,
          "durationTicks": 60,
          "midi": 72,
          "name": "C5",
          "ticks": 47820,
          "time": 175.808636,
          "velocity": 0.6614173228346457
        },
        {
          "duration": 0.22058800000002066,
          "durationTicks": 60,
          "midi": 76,
          "name": "E5",
          "ticks": 47940,
          "time": 176.249812,
          "velocity": 0.6614173228346457
        },
        {
          "duration": 0.22058799999999223,
          "durationTicks": 60,
          "midi": 76,
          "name": "E5",
          "ticks": 48060,
          "time": 176.690988,
          "velocity": 0.6614173228346457
        },
        {
          "duration": 0.22058799999999223,
          "durationTicks": 60,
          "midi": 76,
          "name": "E5",
          "ticks": 48180,
          "time": 177.13216400000002,
          "velocity": 0.6614173228346457
        },
        {
          "duration": 0.1911762666666732,
          "durationTicks": 52,
          "midi": 74,
          "name": "D5",
          "ticks": 48240,
          "time": 177.352752,
          "velocity": 0.6614173228346457
        },
        {
          "duration": 0.22058799999999223,
          "durationTicks": 60,
          "midi": 74,
          "name": "D5",
          "ticks": 48300,
          "time": 177.57334,
          "velocity": 0.6614173228346457
        },
        {
          "duration": 0.22058800000002066,
          "durationTicks": 60,
          "midi": 76,
          "name": "E5",
          "ticks": 48360,
          "time": 177.793928,
          "velocity": 0.6614173228346457
        },
        {
          "duration": 0.22058799999999223,
          "durationTicks": 60,
          "midi": 74,
          "name": "D5",
          "ticks": 48420,
          "time": 178.01451600000001,
          "velocity": 0.6614173228346457
        },
        {
          "duration": 0.19485273333333453,
          "durationTicks": 53,
          "midi": 76,
          "name": "E5",
          "ticks": 48480,
          "time": 178.235104,
          "velocity": 0.6614173228346457
        },
        {
          "duration": 0.22058799999999223,
          "durationTicks": 60,
          "midi": 76,
          "name": "E5",
          "ticks": 48540,
          "time": 178.455692,
          "velocity": 0.6614173228346457
        },
        {
          "duration": 0.20588213333334693,
          "durationTicks": 56,
          "midi": 72,
          "name": "C5",
          "ticks": 48600,
          "time": 178.67628,
          "velocity": 0.6614173228346457
        },
        {
          "duration": 0.22058799999999223,
          "durationTicks": 60,
          "midi": 69,
          "name": "A4",
          "ticks": 48660,
          "time": 178.896868,
          "velocity": 0.6614173228346457
        },
        {
          "duration": 0.22058800000002066,
          "durationTicks": 60,
          "midi": 69,
          "name": "A4",
          "ticks": 48780,
          "time": 179.338044,
          "velocity": 0.6614173228346457
        },
        {
          "duration": 0.22058799999999223,
          "durationTicks": 60,
          "midi": 74,
          "name": "D5",
          "ticks": 48900,
          "time": 179.77922,
          "velocity": 0.6614173228346457
        },
        {
          "duration": 0.22058800000002066,
          "durationTicks": 60,
          "midi": 74,
          "name": "D5",
          "ticks": 49020,
          "time": 180.220396,
          "velocity": 0.6614173228346457
        },
        {
          "duration": 0.22058799999999223,
          "durationTicks": 60,
          "midi": 74,
          "name": "D5",
          "ticks": 49140,
          "time": 180.661572,
          "velocity": 0.6614173228346457
        },
        {
          "duration": 0.19485273333333453,
          "durationTicks": 53,
          "midi": 78,
          "name": "F#5",
          "ticks": 49200,
          "time": 180.88216,
          "velocity": 0.6614173228346457
        },
        {
          "duration": 0.22058800000002066,
          "durationTicks": 60,
          "midi": 78,
          "name": "F#5",
          "ticks": 49260,
          "time": 181.102748,
          "velocity": 0.6614173228346457
        },
        {
          "duration": 0.22058799999999223,
          "durationTicks": 60,
          "midi": 79,
          "name": "G5",
          "ticks": 49320,
          "time": 181.323336,
          "velocity": 0.6614173228346457
        },
        {
          "duration": 0.22058799999999223,
          "durationTicks": 60,
          "midi": 81,
          "name": "A5",
          "ticks": 49380,
          "time": 181.543924,
          "velocity": 0.6614173228346457
        },
        {
          "duration": 0.18382333333335055,
          "durationTicks": 50,
          "midi": 79,
          "name": "G5",
          "ticks": 49440,
          "time": 181.764512,
          "velocity": 0.6614173228346457
        },
        {
          "duration": 0.18382333333332213,
          "durationTicks": 50,
          "midi": 79,
          "name": "G5",
          "ticks": 49500,
          "time": 181.98510000000002,
          "velocity": 0.6614173228346457
        },
        {
          "duration": 0.22058799999999223,
          "durationTicks": 60,
          "midi": 79,
          "name": "G5",
          "ticks": 49560,
          "time": 182.205688,
          "velocity": 0.6614173228346457
        },
        {
          "duration": 0.22058799999999223,
          "durationTicks": 60,
          "midi": 74,
          "name": "D5",
          "ticks": 49620,
          "time": 182.426276,
          "velocity": 0.6614173228346457
        },
        {
          "duration": 0.22058799999999223,
          "durationTicks": 60,
          "midi": 72,
          "name": "C5",
          "ticks": 49740,
          "time": 182.86745200000001,
          "velocity": 0.6614173228346457
        },
        {
          "duration": 0.22058800000002066,
          "durationTicks": 60,
          "midi": 76,
          "name": "E5",
          "ticks": 49860,
          "time": 183.308628,
          "velocity": 0.6614173228346457
        },
        {
          "duration": 0.22058799999999223,
          "durationTicks": 60,
          "midi": 76,
          "name": "E5",
          "ticks": 49980,
          "time": 183.749804,
          "velocity": 0.6614173228346457
        },
        {
          "duration": 0.22058800000002066,
          "durationTicks": 60,
          "midi": 76,
          "name": "E5",
          "ticks": 50100,
          "time": 184.19098,
          "velocity": 0.6614173228346457
        },
        {
          "duration": 0.17647039999997105,
          "durationTicks": 48,
          "midi": 74,
          "name": "D5",
          "ticks": 50160,
          "time": 184.41156800000002,
          "velocity": 0.6614173228346457
        },
        {
          "duration": 0.22058799999999223,
          "durationTicks": 60,
          "midi": 74,
          "name": "D5",
          "ticks": 50220,
          "time": 184.632156,
          "velocity": 0.6614173228346457
        },
        {
          "duration": 0.19485273333333453,
          "durationTicks": 53,
          "midi": 76,
          "name": "E5",
          "ticks": 50400,
          "time": 185.29392,
          "velocity": 0.6614173228346457
        },
        {
          "duration": 0.22058799999999223,
          "durationTicks": 60,
          "midi": 76,
          "name": "E5",
          "ticks": 50460,
          "time": 185.514508,
          "velocity": 0.6614173228346457
        },
        {
          "duration": 0.2058821333333185,
          "durationTicks": 56,
          "midi": 72,
          "name": "C5",
          "ticks": 50520,
          "time": 185.735096,
          "velocity": 0.6614173228346457
        },
        {
          "duration": 0.22058799999999223,
          "durationTicks": 60,
          "midi": 69,
          "name": "A4",
          "ticks": 50580,
          "time": 185.95568400000002,
          "velocity": 0.6614173228346457
        },
        {
          "duration": 0.22058799999999223,
          "durationTicks": 60,
          "midi": 69,
          "name": "A4",
          "ticks": 50700,
          "time": 186.39686,
          "velocity": 0.6614173228346457
        },
        {
          "duration": 0.22058799999999223,
          "durationTicks": 60,
          "midi": 74,
          "name": "D5",
          "ticks": 50820,
          "time": 186.83803600000002,
          "velocity": 0.6614173228346457
        },
        {
          "duration": 0.22058799999999223,
          "durationTicks": 60,
          "midi": 74,
          "name": "D5",
          "ticks": 50940,
          "time": 187.279212,
          "velocity": 0.6614173228346457
        },
        {
          "duration": 0.22058799999999223,
          "durationTicks": 60,
          "midi": 74,
          "name": "D5",
          "ticks": 51060,
          "time": 187.720388,
          "velocity": 0.6614173228346457
        },
        {
          "duration": 0.19485273333333453,
          "durationTicks": 53,
          "midi": 78,
          "name": "F#5",
          "ticks": 51120,
          "time": 187.940976,
          "velocity": 0.6614173228346457
        },
        {
          "duration": 0.22058800000002066,
          "durationTicks": 60,
          "midi": 78,
          "name": "F#5",
          "ticks": 51180,
          "time": 188.161564,
          "velocity": 0.6614173228346457
        },
        {
          "duration": 0.22058799999999223,
          "durationTicks": 60,
          "midi": 79,
          "name": "G5",
          "ticks": 51240,
          "time": 188.38215200000002,
          "velocity": 0.6614173228346457
        },
        {
          "duration": 0.22058799999999223,
          "durationTicks": 60,
          "midi": 81,
          "name": "A5",
          "ticks": 51300,
          "time": 188.60274,
          "velocity": 0.6614173228346457
        },
        {
          "duration": 0.18382333333335055,
          "durationTicks": 50,
          "midi": 79,
          "name": "G5",
          "ticks": 51360,
          "time": 188.823328,
          "velocity": 0.6614173228346457
        },
        {
          "duration": 0.18382333333335055,
          "durationTicks": 50,
          "midi": 79,
          "name": "G5",
          "ticks": 51420,
          "time": 189.043916,
          "velocity": 0.6614173228346457
        },
        {
          "duration": 0.22058799999999223,
          "durationTicks": 60,
          "midi": 79,
          "name": "G5",
          "ticks": 51480,
          "time": 189.26450400000002,
          "velocity": 0.6614173228346457
        },
        {
          "duration": 0.22058799999999223,
          "durationTicks": 60,
          "midi": 74,
          "name": "D5",
          "ticks": 51540,
          "time": 189.485092,
          "velocity": 0.6614173228346457
        },
        {
          "duration": 0.22058800000002066,
          "durationTicks": 60,
          "midi": 72,
          "name": "C5",
          "ticks": 51660,
          "time": 189.926268,
          "velocity": 0.6614173228346457
        },
        {
          "duration": 0.22058799999999223,
          "durationTicks": 60,
          "midi": 76,
          "name": "E5",
          "ticks": 51780,
          "time": 190.367444,
          "velocity": 0.6614173228346457
        },
        {
          "duration": 0.22058799999999223,
          "durationTicks": 60,
          "midi": 76,
          "name": "E5",
          "ticks": 51900,
          "time": 190.80862000000002,
          "velocity": 0.6614173228346457
        },
        {
          "duration": 0.22058799999999223,
          "durationTicks": 60,
          "midi": 76,
          "name": "E5",
          "ticks": 52020,
          "time": 191.249796,
          "velocity": 0.6614173228346457
        },
        {
          "duration": 0.1911762666666732,
          "durationTicks": 52,
          "midi": 74,
          "name": "D5",
          "ticks": 52080,
          "time": 191.470384,
          "velocity": 0.6614173228346457
        },
        {
          "duration": 0.22058799999999223,
          "durationTicks": 60,
          "midi": 74,
          "name": "D5",
          "ticks": 52140,
          "time": 191.69097200000002,
          "velocity": 0.6614173228346457
        },
        {
          "duration": 0.22058799999999223,
          "durationTicks": 60,
          "midi": 76,
          "name": "E5",
          "ticks": 52200,
          "time": 191.91156,
          "velocity": 0.6614173228346457
        },
        {
          "duration": 0.22058799999999223,
          "durationTicks": 60,
          "midi": 74,
          "name": "D5",
          "ticks": 52260,
          "time": 192.132148,
          "velocity": 0.6614173228346457
        },
        {
          "duration": 0.19485273333333453,
          "durationTicks": 53,
          "midi": 76,
          "name": "E5",
          "ticks": 52320,
          "time": 192.352736,
          "velocity": 0.6614173228346457
        },
        {
          "duration": 0.22058799999999223,
          "durationTicks": 60,
          "midi": 76,
          "name": "E5",
          "ticks": 52380,
          "time": 192.573324,
          "velocity": 0.6614173228346457
        },
        {
          "duration": 0.2058821333333185,
          "durationTicks": 56,
          "midi": 72,
          "name": "C5",
          "ticks": 52440,
          "time": 192.793912,
          "velocity": 0.6614173228346457
        },
        {
          "duration": 0.22058800000002066,
          "durationTicks": 60,
          "midi": 69,
          "name": "A4",
          "ticks": 52500,
          "time": 193.0145,
          "velocity": 0.6614173228346457
        },
        {
          "duration": 0.22058799999999223,
          "durationTicks": 60,
          "midi": 69,
          "name": "A4",
          "ticks": 52620,
          "time": 193.455676,
          "velocity": 0.6614173228346457
        },
        {
          "duration": 0.22058800000002066,
          "durationTicks": 60,
          "midi": 74,
          "name": "D5",
          "ticks": 52740,
          "time": 193.896852,
          "velocity": 0.6614173228346457
        },
        {
          "duration": 0.22058799999999223,
          "durationTicks": 60,
          "midi": 74,
          "name": "D5",
          "ticks": 52860,
          "time": 194.338028,
          "velocity": 0.6614173228346457
        },
        {
          "duration": 0.22058800000002066,
          "durationTicks": 60,
          "midi": 74,
          "name": "D5",
          "ticks": 52980,
          "time": 194.779204,
          "velocity": 0.6614173228346457
        },
        {
          "duration": 0.19485273333333453,
          "durationTicks": 53,
          "midi": 78,
          "name": "F#5",
          "ticks": 53040,
          "time": 194.999792,
          "velocity": 0.6614173228346457
        },
        {
          "duration": 0.22058799999999223,
          "durationTicks": 60,
          "midi": 78,
          "name": "F#5",
          "ticks": 53100,
          "time": 195.22038,
          "velocity": 0.6614173228346457
        },
        {
          "duration": 0.22058800000002066,
          "durationTicks": 60,
          "midi": 79,
          "name": "G5",
          "ticks": 53160,
          "time": 195.440968,
          "velocity": 0.6614173228346457
        },
        {
          "duration": 0.22058799999999223,
          "durationTicks": 60,
          "midi": 81,
          "name": "A5",
          "ticks": 53220,
          "time": 195.66155600000002,
          "velocity": 0.6614173228346457
        },
        {
          "duration": 0.18382333333335055,
          "durationTicks": 50,
          "midi": 79,
          "name": "G5",
          "ticks": 53280,
          "time": 195.882144,
          "velocity": 0.6614173228346457
        },
        {
          "duration": 0.18382333333335055,
          "durationTicks": 50,
          "midi": 79,
          "name": "G5",
          "ticks": 53340,
          "time": 196.102732,
          "velocity": 0.6614173228346457
        },
        {
          "duration": 0.22058800000002066,
          "durationTicks": 60,
          "midi": 79,
          "name": "G5",
          "ticks": 53400,
          "time": 196.32332,
          "velocity": 0.6614173228346457
        },
        {
          "duration": 0.22058799999999223,
          "durationTicks": 60,
          "midi": 74,
          "name": "D5",
          "ticks": 53460,
          "time": 196.54390800000002,
          "velocity": 0.6614173228346457
        },
        {
          "duration": 0.22058799999999223,
          "durationTicks": 60,
          "midi": 72,
          "name": "C5",
          "ticks": 53580,
          "time": 196.985084,
          "velocity": 0.6614173228346457
        },
        {
          "duration": 0.22058799999999223,
          "durationTicks": 60,
          "midi": 76,
          "name": "E5",
          "ticks": 53700,
          "time": 197.42626,
          "velocity": 0.6614173228346457
        },
        {
          "duration": 0.22058800000002066,
          "durationTicks": 60,
          "midi": 76,
          "name": "E5",
          "ticks": 53820,
          "time": 197.867436,
          "velocity": 0.6614173228346457
        },
        {
          "duration": 0.22058799999999223,
          "durationTicks": 60,
          "midi": 76,
          "name": "E5",
          "ticks": 53940,
          "time": 198.308612,
          "velocity": 0.6614173228346457
        },
        {
          "duration": 0.4411760000000129,
          "durationTicks": 120,
          "midi": 57,
          "name": "A3",
          "ticks": 54240,
          "time": 199.411552,
          "velocity": 0.5118110236220472
        },
        {
          "duration": 0.4411760000000129,
          "durationTicks": 120,
          "midi": 64,
          "name": "E4",
          "ticks": 54240,
          "time": 199.411552,
          "velocity": 0.5118110236220472
        },
        {
          "duration": 0.33088200000000256,
          "durationTicks": 90,
          "midi": 57,
          "name": "A3",
          "ticks": 54420,
          "time": 200.073316,
          "velocity": 0.5118110236220472
        },
        {
          "duration": 0.33088200000000256,
          "durationTicks": 90,
          "midi": 64,
          "name": "E4",
          "ticks": 54420,
          "time": 200.073316,
          "velocity": 0.5118110236220472
        },
        {
          "duration": 0.22058799999999223,
          "durationTicks": 60,
          "midi": 57,
          "name": "A3",
          "ticks": 54540,
          "time": 200.51449200000002,
          "velocity": 0.5118110236220472
        },
        {
          "duration": 0.22058799999999223,
          "durationTicks": 60,
          "midi": 64,
          "name": "E4",
          "ticks": 54540,
          "time": 200.51449200000002,
          "velocity": 0.5118110236220472
        },
        {
          "duration": 0.33088200000000256,
          "durationTicks": 90,
          "midi": 57,
          "name": "A3",
          "ticks": 54660,
          "time": 200.955668,
          "velocity": 0.5118110236220472
        },
        {
          "duration": 0.33088200000000256,
          "durationTicks": 90,
          "midi": 62,
          "name": "D4",
          "ticks": 54660,
          "time": 200.955668,
          "velocity": 0.5118110236220472
        },
        {
          "duration": 0.22058799999999223,
          "durationTicks": 60,
          "midi": 57,
          "name": "A3",
          "ticks": 54780,
          "time": 201.39684400000002,
          "velocity": 0.5118110236220472
        },
        {
          "duration": 0.22058799999999223,
          "durationTicks": 60,
          "midi": 62,
          "name": "D4",
          "ticks": 54780,
          "time": 201.39684400000002,
          "velocity": 0.5118110236220472
        },
        {
          "duration": 0.33088200000000256,
          "durationTicks": 90,
          "midi": 57,
          "name": "A3",
          "ticks": 54900,
          "time": 201.83802,
          "velocity": 0.5118110236220472
        },
        {
          "duration": 0.33088200000000256,
          "durationTicks": 90,
          "midi": 62,
          "name": "D4",
          "ticks": 54900,
          "time": 201.83802,
          "velocity": 0.5118110236220472
        },
        {
          "duration": 0.22058799999999223,
          "durationTicks": 60,
          "midi": 57,
          "name": "A3",
          "ticks": 55020,
          "time": 202.279196,
          "velocity": 0.5118110236220472
        },
        {
          "duration": 0.22058799999999223,
          "durationTicks": 60,
          "midi": 62,
          "name": "D4",
          "ticks": 55020,
          "time": 202.279196,
          "velocity": 0.5118110236220472
        },
        {
          "duration": 0.33088200000000256,
          "durationTicks": 90,
          "midi": 55,
          "name": "G3",
          "ticks": 55140,
          "time": 202.720372,
          "velocity": 0.5118110236220472
        },
        {
          "duration": 0.33088200000000256,
          "durationTicks": 90,
          "midi": 62,
          "name": "D4",
          "ticks": 55140,
          "time": 202.720372,
          "velocity": 0.5118110236220472
        },
        {
          "duration": 0.22058799999999223,
          "durationTicks": 60,
          "midi": 55,
          "name": "G3",
          "ticks": 55260,
          "time": 203.161548,
          "velocity": 0.5118110236220472
        },
        {
          "duration": 0.22058799999999223,
          "durationTicks": 60,
          "midi": 62,
          "name": "D4",
          "ticks": 55260,
          "time": 203.161548,
          "velocity": 0.5118110236220472
        },
        {
          "duration": 0.33088200000000256,
          "durationTicks": 90,
          "midi": 55,
          "name": "G3",
          "ticks": 55380,
          "time": 203.602724,
          "velocity": 0.5118110236220472
        },
        {
          "duration": 0.33088200000000256,
          "durationTicks": 90,
          "midi": 62,
          "name": "D4",
          "ticks": 55380,
          "time": 203.602724,
          "velocity": 0.5118110236220472
        },
        {
          "duration": 0.22058799999999223,
          "durationTicks": 60,
          "midi": 55,
          "name": "G3",
          "ticks": 55500,
          "time": 204.0439,
          "velocity": 0.5118110236220472
        },
        {
          "duration": 0.22058799999999223,
          "durationTicks": 60,
          "midi": 62,
          "name": "D4",
          "ticks": 55500,
          "time": 204.0439,
          "velocity": 0.5118110236220472
        },
        {
          "duration": 0.33088200000000256,
          "durationTicks": 90,
          "midi": 55,
          "name": "G3",
          "ticks": 55620,
          "time": 204.485076,
          "velocity": 0.5118110236220472
        },
        {
          "duration": 0.33088200000000256,
          "durationTicks": 90,
          "midi": 64,
          "name": "E4",
          "ticks": 55620,
          "time": 204.485076,
          "velocity": 0.5118110236220472
        },
        {
          "duration": 0.22058799999999223,
          "durationTicks": 60,
          "midi": 55,
          "name": "G3",
          "ticks": 55740,
          "time": 204.926252,
          "velocity": 0.5118110236220472
        },
        {
          "duration": 0.22058799999999223,
          "durationTicks": 60,
          "midi": 64,
          "name": "E4",
          "ticks": 55740,
          "time": 204.926252,
          "velocity": 0.5118110236220472
        },
        {
          "duration": 0.33088199999997414,
          "durationTicks": 90,
          "midi": 55,
          "name": "G3",
          "ticks": 55860,
          "time": 205.36742800000002,
          "velocity": 0.5118110236220472
        },
        {
          "duration": 0.33088199999997414,
          "durationTicks": 90,
          "midi": 62,
          "name": "D4",
          "ticks": 55860,
          "time": 205.36742800000002,
          "velocity": 0.5118110236220472
        },
        {
          "duration": 0.22058799999999223,
          "durationTicks": 60,
          "midi": 55,
          "name": "G3",
          "ticks": 55980,
          "time": 205.808604,
          "velocity": 0.5118110236220472
        },
        {
          "duration": 0.22058799999999223,
          "durationTicks": 60,
          "midi": 62,
          "name": "D4",
          "ticks": 55980,
          "time": 205.808604,
          "velocity": 0.5118110236220472
        },
        {
          "duration": 0.44117599999998447,
          "durationTicks": 120,
          "midi": 57,
          "name": "A3",
          "ticks": 56160,
          "time": 206.470368,
          "velocity": 0.5118110236220472
        },
        {
          "duration": 0.44117599999998447,
          "durationTicks": 120,
          "midi": 64,
          "name": "E4",
          "ticks": 56160,
          "time": 206.470368,
          "velocity": 0.5118110236220472
        },
        {
          "duration": 0.33088200000000256,
          "durationTicks": 90,
          "midi": 57,
          "name": "A3",
          "ticks": 56340,
          "time": 207.132132,
          "velocity": 0.5118110236220472
        },
        {
          "duration": 0.33088200000000256,
          "durationTicks": 90,
          "midi": 64,
          "name": "E4",
          "ticks": 56340,
          "time": 207.132132,
          "velocity": 0.5118110236220472
        },
        {
          "duration": 0.22058800000002066,
          "durationTicks": 60,
          "midi": 57,
          "name": "A3",
          "ticks": 56460,
          "time": 207.573308,
          "velocity": 0.5118110236220472
        },
        {
          "duration": 0.22058800000002066,
          "durationTicks": 60,
          "midi": 64,
          "name": "E4",
          "ticks": 56460,
          "time": 207.573308,
          "velocity": 0.5118110236220472
        },
        {
          "duration": 0.33088200000000256,
          "durationTicks": 90,
          "midi": 57,
          "name": "A3",
          "ticks": 56580,
          "time": 208.014484,
          "velocity": 0.5118110236220472
        },
        {
          "duration": 0.33088200000000256,
          "durationTicks": 90,
          "midi": 62,
          "name": "D4",
          "ticks": 56580,
          "time": 208.014484,
          "velocity": 0.5118110236220472
        },
        {
          "duration": 0.22058800000002066,
          "durationTicks": 60,
          "midi": 57,
          "name": "A3",
          "ticks": 56700,
          "time": 208.45566,
          "velocity": 0.5118110236220472
        },
        {
          "duration": 0.22058800000002066,
          "durationTicks": 60,
          "midi": 62,
          "name": "D4",
          "ticks": 56700,
          "time": 208.45566,
          "velocity": 0.5118110236220472
        },
        {
          "duration": 0.33088200000000256,
          "durationTicks": 90,
          "midi": 57,
          "name": "A3",
          "ticks": 56820,
          "time": 208.896836,
          "velocity": 0.5118110236220472
        },
        {
          "duration": 0.33088200000000256,
          "durationTicks": 90,
          "midi": 62,
          "name": "D4",
          "ticks": 56820,
          "time": 208.896836,
          "velocity": 0.5118110236220472
        },
        {
          "duration": 0.22058800000002066,
          "durationTicks": 60,
          "midi": 57,
          "name": "A3",
          "ticks": 56940,
          "time": 209.338012,
          "velocity": 0.5118110236220472
        },
        {
          "duration": 0.22058800000002066,
          "durationTicks": 60,
          "midi": 62,
          "name": "D4",
          "ticks": 56940,
          "time": 209.338012,
          "velocity": 0.5118110236220472
        },
        {
          "duration": 0.33088200000000256,
          "durationTicks": 90,
          "midi": 55,
          "name": "G3",
          "ticks": 57060,
          "time": 209.779188,
          "velocity": 0.5118110236220472
        },
        {
          "duration": 0.33088200000000256,
          "durationTicks": 90,
          "midi": 62,
          "name": "D4",
          "ticks": 57060,
          "time": 209.779188,
          "velocity": 0.5118110236220472
        },
        {
          "duration": 0.22058799999999223,
          "durationTicks": 60,
          "midi": 55,
          "name": "G3",
          "ticks": 57180,
          "time": 210.22036400000002,
          "velocity": 0.5118110236220472
        },
        {
          "duration": 0.22058799999999223,
          "durationTicks": 60,
          "midi": 62,
          "name": "D4",
          "ticks": 57180,
          "time": 210.22036400000002,
          "velocity": 0.5118110236220472
        },
        {
          "duration": 0.33088200000000256,
          "durationTicks": 90,
          "midi": 55,
          "name": "G3",
          "ticks": 57300,
          "time": 210.66154,
          "velocity": 0.5118110236220472
        },
        {
          "duration": 0.33088200000000256,
          "durationTicks": 90,
          "midi": 62,
          "name": "D4",
          "ticks": 57300,
          "time": 210.66154,
          "velocity": 0.5118110236220472
        },
        {
          "duration": 0.22058799999999223,
          "durationTicks": 60,
          "midi": 55,
          "name": "G3",
          "ticks": 57420,
          "time": 211.10271600000002,
          "velocity": 0.5118110236220472
        },
        {
          "duration": 0.22058799999999223,
          "durationTicks": 60,
          "midi": 62,
          "name": "D4",
          "ticks": 57420,
          "time": 211.10271600000002,
          "velocity": 0.5118110236220472
        },
        {
          "duration": 0.22058799999999223,
          "durationTicks": 60,
          "midi": 55,
          "name": "G3",
          "ticks": 57540,
          "time": 211.543892,
          "velocity": 0.5118110236220472
        },
        {
          "duration": 0.22058799999999223,
          "durationTicks": 60,
          "midi": 64,
          "name": "E4",
          "ticks": 57540,
          "time": 211.543892,
          "velocity": 0.5118110236220472
        },
        {
          "duration": 0.22058799999999223,
          "durationTicks": 60,
          "midi": 55,
          "name": "G3",
          "ticks": 57660,
          "time": 211.985068,
          "velocity": 0.5118110236220472
        },
        {
          "duration": 0.22058799999999223,
          "durationTicks": 60,
          "midi": 64,
          "name": "E4",
          "ticks": 57660,
          "time": 211.985068,
          "velocity": 0.5118110236220472
        },
        {
          "duration": 0.33088200000000256,
          "durationTicks": 90,
          "midi": 55,
          "name": "G3",
          "ticks": 57780,
          "time": 212.426244,
          "velocity": 0.5118110236220472
        },
        {
          "duration": 0.33088200000000256,
          "durationTicks": 90,
          "midi": 62,
          "name": "D4",
          "ticks": 57780,
          "time": 212.426244,
          "velocity": 0.5118110236220472
        },
        {
          "duration": 0.22058799999999223,
          "durationTicks": 60,
          "midi": 55,
          "name": "G3",
          "ticks": 57900,
          "time": 212.86742,
          "velocity": 0.5118110236220472
        },
        {
          "duration": 0.22058799999999223,
          "durationTicks": 60,
          "midi": 62,
          "name": "D4",
          "ticks": 57900,
          "time": 212.86742,
          "velocity": 0.5118110236220472
        },
        {
          "duration": 0.44117599999998447,
          "durationTicks": 120,
          "midi": 57,
          "name": "A3",
          "ticks": 58080,
          "time": 213.52918400000001,
          "velocity": 0.5118110236220472
        },
        {
          "duration": 0.44117599999998447,
          "durationTicks": 120,
          "midi": 64,
          "name": "E4",
          "ticks": 58080,
          "time": 213.52918400000001,
          "velocity": 0.5118110236220472
        },
        {
          "duration": 0.33088199999997414,
          "durationTicks": 90,
          "midi": 57,
          "name": "A3",
          "ticks": 58260,
          "time": 214.19094800000002,
          "velocity": 0.5118110236220472
        },
        {
          "duration": 0.33088199999997414,
          "durationTicks": 90,
          "midi": 64,
          "name": "E4",
          "ticks": 58260,
          "time": 214.19094800000002,
          "velocity": 0.5118110236220472
        },
        {
          "duration": 0.22058799999999223,
          "durationTicks": 60,
          "midi": 57,
          "name": "A3",
          "ticks": 58380,
          "time": 214.632124,
          "velocity": 0.5118110236220472
        },
        {
          "duration": 0.22058799999999223,
          "durationTicks": 60,
          "midi": 64,
          "name": "E4",
          "ticks": 58380,
          "time": 214.632124,
          "velocity": 0.5118110236220472
        },
        {
          "duration": 0.33088200000000256,
          "durationTicks": 90,
          "midi": 57,
          "name": "A3",
          "ticks": 58500,
          "time": 215.07330000000002,
          "velocity": 0.5118110236220472
        },
        {
          "duration": 0.33088200000000256,
          "durationTicks": 90,
          "midi": 62,
          "name": "D4",
          "ticks": 58500,
          "time": 215.07330000000002,
          "velocity": 0.5118110236220472
        },
        {
          "duration": 0.22058799999999223,
          "durationTicks": 60,
          "midi": 57,
          "name": "A3",
          "ticks": 58620,
          "time": 215.514476,
          "velocity": 0.5118110236220472
        },
        {
          "duration": 0.22058799999999223,
          "durationTicks": 60,
          "midi": 62,
          "name": "D4",
          "ticks": 58620,
          "time": 215.514476,
          "velocity": 0.5118110236220472
        },
        {
          "duration": 0.33088200000000256,
          "durationTicks": 90,
          "midi": 57,
          "name": "A3",
          "ticks": 58740,
          "time": 215.95565200000001,
          "velocity": 0.5118110236220472
        },
        {
          "duration": 0.33088200000000256,
          "durationTicks": 90,
          "midi": 62,
          "name": "D4",
          "ticks": 58740,
          "time": 215.95565200000001,
          "velocity": 0.5118110236220472
        },
        {
          "duration": 0.22058800000002066,
          "durationTicks": 60,
          "midi": 57,
          "name": "A3",
          "ticks": 58860,
          "time": 216.396828,
          "velocity": 0.5118110236220472
        },
        {
          "duration": 0.22058800000002066,
          "durationTicks": 60,
          "midi": 62,
          "name": "D4",
          "ticks": 58860,
          "time": 216.396828,
          "velocity": 0.5118110236220472
        },
        {
          "duration": 0.33088200000000256,
          "durationTicks": 90,
          "midi": 55,
          "name": "G3",
          "ticks": 58980,
          "time": 216.838004,
          "velocity": 0.5118110236220472
        },
        {
          "duration": 0.33088200000000256,
          "durationTicks": 90,
          "midi": 62,
          "name": "D4",
          "ticks": 58980,
          "time": 216.838004,
          "velocity": 0.5118110236220472
        },
        {
          "duration": 0.22058800000002066,
          "durationTicks": 60,
          "midi": 55,
          "name": "G3",
          "ticks": 59100,
          "time": 217.27918,
          "velocity": 0.5118110236220472
        },
        {
          "duration": 0.22058800000002066,
          "durationTicks": 60,
          "midi": 62,
          "name": "D4",
          "ticks": 59100,
          "time": 217.27918,
          "velocity": 0.5118110236220472
        },
        {
          "duration": 0.33088200000000256,
          "durationTicks": 90,
          "midi": 55,
          "name": "G3",
          "ticks": 59220,
          "time": 217.720356,
          "velocity": 0.5118110236220472
        },
        {
          "duration": 0.33088200000000256,
          "durationTicks": 90,
          "midi": 62,
          "name": "D4",
          "ticks": 59220,
          "time": 217.720356,
          "velocity": 0.5118110236220472
        },
        {
          "duration": 0.22058800000002066,
          "durationTicks": 60,
          "midi": 55,
          "name": "G3",
          "ticks": 59340,
          "time": 218.161532,
          "velocity": 0.5118110236220472
        },
        {
          "duration": 0.22058800000002066,
          "durationTicks": 60,
          "midi": 62,
          "name": "D4",
          "ticks": 59340,
          "time": 218.161532,
          "velocity": 0.5118110236220472
        },
        {
          "duration": 0.33088200000000256,
          "durationTicks": 90,
          "midi": 55,
          "name": "G3",
          "ticks": 59460,
          "time": 218.602708,
          "velocity": 0.5118110236220472
        },
        {
          "duration": 0.33088200000000256,
          "durationTicks": 90,
          "midi": 64,
          "name": "E4",
          "ticks": 59460,
          "time": 218.602708,
          "velocity": 0.5118110236220472
        },
        {
          "duration": 0.22058799999999223,
          "durationTicks": 60,
          "midi": 55,
          "name": "G3",
          "ticks": 59580,
          "time": 219.04388400000002,
          "velocity": 0.5118110236220472
        },
        {
          "duration": 0.22058799999999223,
          "durationTicks": 60,
          "midi": 64,
          "name": "E4",
          "ticks": 59580,
          "time": 219.04388400000002,
          "velocity": 0.5118110236220472
        },
        {
          "duration": 0.33088200000000256,
          "durationTicks": 90,
          "midi": 55,
          "name": "G3",
          "ticks": 59700,
          "time": 219.48506,
          "velocity": 0.5118110236220472
        },
        {
          "duration": 0.33088200000000256,
          "durationTicks": 90,
          "midi": 62,
          "name": "D4",
          "ticks": 59700,
          "time": 219.48506,
          "velocity": 0.5118110236220472
        },
        {
          "duration": 0.22058799999999223,
          "durationTicks": 60,
          "midi": 55,
          "name": "G3",
          "ticks": 59820,
          "time": 219.92623600000002,
          "velocity": 0.5118110236220472
        },
        {
          "duration": 0.22058799999999223,
          "durationTicks": 60,
          "midi": 62,
          "name": "D4",
          "ticks": 59820,
          "time": 219.92623600000002,
          "velocity": 0.5118110236220472
        },
        {
          "duration": 0.4411760000000129,
          "durationTicks": 120,
          "midi": 57,
          "name": "A3",
          "ticks": 60000,
          "time": 220.588,
          "velocity": 0.5118110236220472
        },
        {
          "duration": 0.4411760000000129,
          "durationTicks": 120,
          "midi": 64,
          "name": "E4",
          "ticks": 60000,
          "time": 220.588,
          "velocity": 0.5118110236220472
        },
        {
          "duration": 0.33088200000000256,
          "durationTicks": 90,
          "midi": 57,
          "name": "A3",
          "ticks": 60180,
          "time": 221.249764,
          "velocity": 0.5118110236220472
        },
        {
          "duration": 0.33088200000000256,
          "durationTicks": 90,
          "midi": 64,
          "name": "E4",
          "ticks": 60180,
          "time": 221.249764,
          "velocity": 0.5118110236220472
        },
        {
          "duration": 0.22058799999999223,
          "durationTicks": 60,
          "midi": 57,
          "name": "A3",
          "ticks": 60300,
          "time": 221.69094,
          "velocity": 0.5118110236220472
        },
        {
          "duration": 0.22058799999999223,
          "durationTicks": 60,
          "midi": 64,
          "name": "E4",
          "ticks": 60300,
          "time": 221.69094,
          "velocity": 0.5118110236220472
        },
        {
          "duration": 0.33088200000000256,
          "durationTicks": 90,
          "midi": 57,
          "name": "A3",
          "ticks": 60420,
          "time": 222.132116,
          "velocity": 0.5118110236220472
        },
        {
          "duration": 0.33088200000000256,
          "durationTicks": 90,
          "midi": 62,
          "name": "D4",
          "ticks": 60420,
          "time": 222.132116,
          "velocity": 0.5118110236220472
        },
        {
          "duration": 0.22058799999999223,
          "durationTicks": 60,
          "midi": 57,
          "name": "A3",
          "ticks": 60540,
          "time": 222.573292,
          "velocity": 0.5118110236220472
        },
        {
          "duration": 0.22058799999999223,
          "durationTicks": 60,
          "midi": 62,
          "name": "D4",
          "ticks": 60540,
          "time": 222.573292,
          "velocity": 0.5118110236220472
        },
        {
          "duration": 0.33088200000000256,
          "durationTicks": 90,
          "midi": 57,
          "name": "A3",
          "ticks": 60660,
          "time": 223.014468,
          "velocity": 0.5118110236220472
        },
        {
          "duration": 0.33088200000000256,
          "durationTicks": 90,
          "midi": 62,
          "name": "D4",
          "ticks": 60660,
          "time": 223.014468,
          "velocity": 0.5118110236220472
        },
        {
          "duration": 0.22058799999999223,
          "durationTicks": 60,
          "midi": 57,
          "name": "A3",
          "ticks": 60780,
          "time": 223.455644,
          "velocity": 0.5118110236220472
        },
        {
          "duration": 0.22058799999999223,
          "durationTicks": 60,
          "midi": 62,
          "name": "D4",
          "ticks": 60780,
          "time": 223.455644,
          "velocity": 0.5118110236220472
        },
        {
          "duration": 0.33088199999997414,
          "durationTicks": 90,
          "midi": 55,
          "name": "G3",
          "ticks": 60900,
          "time": 223.89682000000002,
          "velocity": 0.5118110236220472
        },
        {
          "duration": 0.33088199999997414,
          "durationTicks": 90,
          "midi": 62,
          "name": "D4",
          "ticks": 60900,
          "time": 223.89682000000002,
          "velocity": 0.5118110236220472
        },
        {
          "duration": 0.22058799999999223,
          "durationTicks": 60,
          "midi": 55,
          "name": "G3",
          "ticks": 61020,
          "time": 224.337996,
          "velocity": 0.5118110236220472
        },
        {
          "duration": 0.22058799999999223,
          "durationTicks": 60,
          "midi": 62,
          "name": "D4",
          "ticks": 61020,
          "time": 224.337996,
          "velocity": 0.5118110236220472
        },
        {
          "duration": 0.33088200000000256,
          "durationTicks": 90,
          "midi": 55,
          "name": "G3",
          "ticks": 61140,
          "time": 224.77917200000002,
          "velocity": 0.5118110236220472
        },
        {
          "duration": 0.33088200000000256,
          "durationTicks": 90,
          "midi": 62,
          "name": "D4",
          "ticks": 61140,
          "time": 224.77917200000002,
          "velocity": 0.5118110236220472
        },
        {
          "duration": 0.22058799999999223,
          "durationTicks": 60,
          "midi": 55,
          "name": "G3",
          "ticks": 61260,
          "time": 225.220348,
          "velocity": 0.5118110236220472
        },
        {
          "duration": 0.22058799999999223,
          "durationTicks": 60,
          "midi": 62,
          "name": "D4",
          "ticks": 61260,
          "time": 225.220348,
          "velocity": 0.5118110236220472
        },
        {
          "duration": 0.22058799999999223,
          "durationTicks": 60,
          "midi": 55,
          "name": "G3",
          "ticks": 61380,
          "time": 225.66152400000001,
          "velocity": 0.5118110236220472
        },
        {
          "duration": 0.22058799999999223,
          "durationTicks": 60,
          "midi": 64,
          "name": "E4",
          "ticks": 61380,
          "time": 225.66152400000001,
          "velocity": 0.5118110236220472
        },
        {
          "duration": 0.22058800000002066,
          "durationTicks": 60,
          "midi": 55,
          "name": "G3",
          "ticks": 61500,
          "time": 226.1027,
          "velocity": 0.5118110236220472
        },
        {
          "duration": 0.22058800000002066,
          "durationTicks": 60,
          "midi": 64,
          "name": "E4",
          "ticks": 61500,
          "time": 226.1027,
          "velocity": 0.5118110236220472
        },
        {
          "duration": 0.33088200000000256,
          "durationTicks": 90,
          "midi": 55,
          "name": "G3",
          "ticks": 61620,
          "time": 226.543876,
          "velocity": 0.5118110236220472
        },
        {
          "duration": 0.33088200000000256,
          "durationTicks": 90,
          "midi": 62,
          "name": "D4",
          "ticks": 61620,
          "time": 226.543876,
          "velocity": 0.5118110236220472
        },
        {
          "duration": 0.22058800000002066,
          "durationTicks": 60,
          "midi": 55,
          "name": "G3",
          "ticks": 61740,
          "time": 226.985052,
          "velocity": 0.5118110236220472
        },
        {
          "duration": 0.22058800000002066,
          "durationTicks": 60,
          "midi": 62,
          "name": "D4",
          "ticks": 61740,
          "time": 226.985052,
          "velocity": 0.5118110236220472
        }
      ],
      "endOfTrackTicks": 61800
    },
    {
      "channel": 6,
      "controlChanges": {
        "1": [
          {
            "number": 1,
            "ticks": 182,
            "time": 0.6691169333333333,
            "value": 0
          }
        ],
        "5": [
          {
            "number": 5,
            "ticks": 231,
            "time": 0.8492638,
            "value": 0
          }
        ],
        "7": [
          {
            "number": 7,
            "ticks": 0,
            "time": 0,
            "value": 0.6377952755905512
          }
        ],
        "10": [
          {
            "number": 10,
            "ticks": 0,
            "time": 0,
            "value": 0.5196850393700787
          }
        ],
        "11": [
          {
            "number": 11,
            "ticks": 157,
            "time": 0.5772052666666667,
            "value": 1
          }
        ],
        "64": [
          {
            "number": 64,
            "ticks": 193,
            "time": 0.7095580666666668,
            "value": 0
          }
        ],
        "65": [
          {
            "number": 65,
            "ticks": 218,
            "time": 0.8014697333333334,
            "value": 0
          }
        ],
        "91": [
          {
            "number": 91,
            "ticks": 13,
            "time": 0.04779406666666667,
            "value": 0.47244094488188976
          }
        ],
        "93": [
          {
            "number": 93,
            "ticks": 120,
            "time": 0.441176,
            "value": 0
          }
        ],
        "94": [
          {
            "number": 94,
            "ticks": 136,
            "time": 0.49999946666666667,
            "value": 0
          }
        ],
        "121": [
          {
            "number": 121,
            "ticks": 0,
            "time": 0,
            "value": 0
          }
        ]
      },
      "pitchBends": [
        {
          "ticks": 203,
          "time": 0.7463227333333333,
          "value": 0
        }
      ],
      "instrument": {
        "family": "ensemble",
        "number": 51,
        "name": "synthstrings 2"
      },
      "name": "Strings ",
      "notes": [
        {
          "duration": 1.7426452000000001,
          "durationTicks": 474,
          "midi": 57,
          "name": "A3",
          "ticks": 480,
          "time": 1.764704,
          "velocity": 0.5511811023622047
        },
        {
          "duration": 1.7426452000000001,
          "durationTicks": 474,
          "midi": 69,
          "name": "A4",
          "ticks": 480,
          "time": 1.764704,
          "velocity": 0.5511811023622047
        },
        {
          "duration": 1.7426452000000001,
          "durationTicks": 474,
          "midi": 72,
          "name": "C5",
          "ticks": 480,
          "time": 1.764704,
          "velocity": 0.5511811023622047
        },
        {
          "duration": 1.7426452000000001,
          "durationTicks": 474,
          "midi": 64,
          "name": "E4",
          "ticks": 480,
          "time": 1.764704,
          "velocity": 0.5511811023622047
        },
        {
          "duration": 1.7426452000000001,
          "durationTicks": 474,
          "midi": 62,
          "name": "D4",
          "ticks": 960,
          "time": 3.529408,
          "velocity": 0.5433070866141733
        },
        {
          "duration": 1.7426452000000001,
          "durationTicks": 474,
          "midi": 69,
          "name": "A4",
          "ticks": 960,
          "time": 3.529408,
          "velocity": 0.5433070866141733
        },
        {
          "duration": 1.7426452000000001,
          "durationTicks": 474,
          "midi": 50,
          "name": "D3",
          "ticks": 960,
          "time": 3.529408,
          "velocity": 0.5433070866141733
        },
        {
          "duration": 1.7426452000000001,
          "durationTicks": 474,
          "midi": 66,
          "name": "F#4",
          "ticks": 960,
          "time": 3.529408,
          "velocity": 0.5433070866141733
        },
        {
          "duration": 1.7426452000000001,
          "durationTicks": 474,
          "midi": 55,
          "name": "G3",
          "ticks": 1440,
          "time": 5.294112,
          "velocity": 0.5433070866141733
        },
        {
          "duration": 1.7426452000000001,
          "durationTicks": 474,
          "midi": 71,
          "name": "B4",
          "ticks": 1440,
          "time": 5.294112,
          "velocity": 0.5433070866141733
        },
        {
          "duration": 1.7426452000000001,
          "durationTicks": 474,
          "midi": 62,
          "name": "D4",
          "ticks": 1440,
          "time": 5.294112,
          "velocity": 0.5433070866141733
        },
        {
          "duration": 1.7426452000000001,
          "durationTicks": 474,
          "midi": 67,
          "name": "G4",
          "ticks": 1440,
          "time": 5.294112,
          "velocity": 0.5433070866141733
        },
        {
          "duration": 1.7463216666666668,
          "durationTicks": 475,
          "midi": 60,
          "name": "C4",
          "ticks": 1920,
          "time": 7.058816,
          "velocity": 0.5511811023622047
        },
        {
          "duration": 1.7426452000000001,
          "durationTicks": 474,
          "midi": 67,
          "name": "G4",
          "ticks": 1920,
          "time": 7.058816,
          "velocity": 0.5511811023622047
        },
        {
          "duration": 1.7426452000000001,
          "durationTicks": 474,
          "midi": 48,
          "name": "C3",
          "ticks": 1920,
          "time": 7.058816,
          "velocity": 0.5511811023622047
        },
        {
          "duration": 1.7426452000000001,
          "durationTicks": 474,
          "midi": 64,
          "name": "E4",
          "ticks": 1920,
          "time": 7.058816,
          "velocity": 0.5511811023622047
        },
        {
          "duration": 1.7426452000000001,
          "durationTicks": 474,
          "midi": 57,
          "name": "A3",
          "ticks": 2400,
          "time": 8.82352,
          "velocity": 0.5511811023622047
        },
        {
          "duration": 1.7426452000000001,
          "durationTicks": 474,
          "midi": 64,
          "name": "E4",
          "ticks": 2400,
          "time": 8.82352,
          "velocity": 0.5511811023622047
        },
        {
          "duration": 1.7426452000000001,
          "durationTicks": 474,
          "midi": 69,
          "name": "A4",
          "ticks": 2400,
          "time": 8.82352,
          "velocity": 0.5511811023622047
        },
        {
          "duration": 1.7426452000000001,
          "durationTicks": 474,
          "midi": 72,
          "name": "C5",
          "ticks": 2400,
          "time": 8.82352,
          "velocity": 0.5511811023622047
        },
        {
          "duration": 1.7426452000000001,
          "durationTicks": 474,
          "midi": 50,
          "name": "D3",
          "ticks": 2880,
          "time": 10.588224,
          "velocity": 0.5433070866141733
        },
        {
          "duration": 1.7426452000000001,
          "durationTicks": 474,
          "midi": 62,
          "name": "D4",
          "ticks": 2880,
          "time": 10.588224,
          "velocity": 0.5433070866141733
        },
        {
          "duration": 1.7426452000000001,
          "durationTicks": 474,
          "midi": 66,
          "name": "F#4",
          "ticks": 2880,
          "time": 10.588224,
          "velocity": 0.5433070866141733
        },
        {
          "duration": 1.7426452000000001,
          "durationTicks": 474,
          "midi": 69,
          "name": "A4",
          "ticks": 2880,
          "time": 10.588224,
          "velocity": 0.5433070866141733
        },
        {
          "duration": 1.7426452000000001,
          "durationTicks": 474,
          "midi": 55,
          "name": "G3",
          "ticks": 3360,
          "time": 12.352928,
          "velocity": 0.5433070866141733
        },
        {
          "duration": 1.7426452000000001,
          "durationTicks": 474,
          "midi": 62,
          "name": "D4",
          "ticks": 3360,
          "time": 12.352928,
          "velocity": 0.5433070866141733
        },
        {
          "duration": 1.7426452000000001,
          "durationTicks": 474,
          "midi": 67,
          "name": "G4",
          "ticks": 3360,
          "time": 12.352928,
          "velocity": 0.5433070866141733
        },
        {
          "duration": 1.7426452000000001,
          "durationTicks": 474,
          "midi": 71,
          "name": "B4",
          "ticks": 3360,
          "time": 12.352928,
          "velocity": 0.5433070866141733
        },
        {
          "duration": 0.4411759999999987,
          "durationTicks": 120,
          "midi": 57,
          "name": "A3",
          "ticks": 15840,
          "time": 58.235232,
          "velocity": 0.7480314960629921
        },
        {
          "duration": 0.4411759999999987,
          "durationTicks": 120,
          "midi": 64,
          "name": "E4",
          "ticks": 15840,
          "time": 58.235232,
          "velocity": 0.7480314960629921
        },
        {
          "duration": 0.33088200000000256,
          "durationTicks": 90,
          "midi": 57,
          "name": "A3",
          "ticks": 16020,
          "time": 58.896996,
          "velocity": 0.7480314960629921
        },
        {
          "duration": 0.33088200000000256,
          "durationTicks": 90,
          "midi": 64,
          "name": "E4",
          "ticks": 16020,
          "time": 58.896996,
          "velocity": 0.7480314960629921
        },
        {
          "duration": 0.22058799999999934,
          "durationTicks": 60,
          "midi": 57,
          "name": "A3",
          "ticks": 16140,
          "time": 59.338172,
          "velocity": 0.7480314960629921
        },
        {
          "duration": 0.22058799999999934,
          "durationTicks": 60,
          "midi": 64,
          "name": "E4",
          "ticks": 16140,
          "time": 59.338172,
          "velocity": 0.7480314960629921
        },
        {
          "duration": 0.33088200000000256,
          "durationTicks": 90,
          "midi": 57,
          "name": "A3",
          "ticks": 16260,
          "time": 59.779348,
          "velocity": 0.7480314960629921
        },
        {
          "duration": 0.33088200000000256,
          "durationTicks": 90,
          "midi": 62,
          "name": "D4",
          "ticks": 16260,
          "time": 59.779348,
          "velocity": 0.7480314960629921
        },
        {
          "duration": 0.22058799999999934,
          "durationTicks": 60,
          "midi": 57,
          "name": "A3",
          "ticks": 16380,
          "time": 60.220524000000005,
          "velocity": 0.7480314960629921
        },
        {
          "duration": 0.22058799999999934,
          "durationTicks": 60,
          "midi": 62,
          "name": "D4",
          "ticks": 16380,
          "time": 60.220524000000005,
          "velocity": 0.7480314960629921
        },
        {
          "duration": 0.33088199999999546,
          "durationTicks": 90,
          "midi": 57,
          "name": "A3",
          "ticks": 16500,
          "time": 60.6617,
          "velocity": 0.7480314960629921
        },
        {
          "duration": 0.33088199999999546,
          "durationTicks": 90,
          "midi": 62,
          "name": "D4",
          "ticks": 16500,
          "time": 60.6617,
          "velocity": 0.7480314960629921
        },
        {
          "duration": 0.22058799999999934,
          "durationTicks": 60,
          "midi": 57,
          "name": "A3",
          "ticks": 16620,
          "time": 61.102876,
          "velocity": 0.7480314960629921
        },
        {
          "duration": 0.22058799999999934,
          "durationTicks": 60,
          "midi": 62,
          "name": "D4",
          "ticks": 16620,
          "time": 61.102876,
          "velocity": 0.7480314960629921
        },
        {
          "duration": 0.33088200000000256,
          "durationTicks": 90,
          "midi": 55,
          "name": "G3",
          "ticks": 16740,
          "time": 61.544052,
          "velocity": 0.7480314960629921
        },
        {
          "duration": 0.33088200000000256,
          "durationTicks": 90,
          "midi": 62,
          "name": "D4",
          "ticks": 16740,
          "time": 61.544052,
          "velocity": 0.7480314960629921
        },
        {
          "duration": 0.22058799999999934,
          "durationTicks": 60,
          "midi": 55,
          "name": "G3",
          "ticks": 16860,
          "time": 61.985228,
          "velocity": 0.7480314960629921
        },
        {
          "duration": 0.22058799999999934,
          "durationTicks": 60,
          "midi": 62,
          "name": "D4",
          "ticks": 16860,
          "time": 61.985228,
          "velocity": 0.7480314960629921
        },
        {
          "duration": 0.33088199999999546,
          "durationTicks": 90,
          "midi": 55,
          "name": "G3",
          "ticks": 16980,
          "time": 62.426404000000005,
          "velocity": 0.7480314960629921
        },
        {
          "duration": 0.33088199999999546,
          "durationTicks": 90,
          "midi": 62,
          "name": "D4",
          "ticks": 16980,
          "time": 62.426404000000005,
          "velocity": 0.7480314960629921
        },
        {
          "duration": 0.22058799999999934,
          "durationTicks": 60,
          "midi": 55,
          "name": "G3",
          "ticks": 17100,
          "time": 62.867580000000004,
          "velocity": 0.7480314960629921
        },
        {
          "duration": 0.22058799999999934,
          "durationTicks": 60,
          "midi": 62,
          "name": "D4",
          "ticks": 17100,
          "time": 62.867580000000004,
          "velocity": 0.7480314960629921
        },
        {
          "duration": 0.33088200000000256,
          "durationTicks": 90,
          "midi": 55,
          "name": "G3",
          "ticks": 17220,
          "time": 63.308756,
          "velocity": 0.7480314960629921
        },
        {
          "duration": 0.33088200000000256,
          "durationTicks": 90,
          "midi": 64,
          "name": "E4",
          "ticks": 17220,
          "time": 63.308756,
          "velocity": 0.7480314960629921
        },
        {
          "duration": 0.22058799999999934,
          "durationTicks": 60,
          "midi": 55,
          "name": "G3",
          "ticks": 17340,
          "time": 63.749932,
          "velocity": 0.7480314960629921
        },
        {
          "duration": 0.22058799999999934,
          "durationTicks": 60,
          "midi": 64,
          "name": "E4",
          "ticks": 17340,
          "time": 63.749932,
          "velocity": 0.7480314960629921
        },
        {
          "duration": 0.33088200000000256,
          "durationTicks": 90,
          "midi": 55,
          "name": "G3",
          "ticks": 17460,
          "time": 64.191108,
          "velocity": 0.7480314960629921
        },
        {
          "duration": 0.33088200000000256,
          "durationTicks": 90,
          "midi": 62,
          "name": "D4",
          "ticks": 17460,
          "time": 64.191108,
          "velocity": 0.7480314960629921
        },
        {
          "duration": 0.22058800000000645,
          "durationTicks": 60,
          "midi": 55,
          "name": "G3",
          "ticks": 17580,
          "time": 64.632284,
          "velocity": 0.7480314960629921
        },
        {
          "duration": 0.22058800000000645,
          "durationTicks": 60,
          "midi": 62,
          "name": "D4",
          "ticks": 17580,
          "time": 64.632284,
          "velocity": 0.7480314960629921
        },
        {
          "duration": 0.4411759999999987,
          "durationTicks": 120,
          "midi": 57,
          "name": "A3",
          "ticks": 17760,
          "time": 65.294048,
          "velocity": 0.7480314960629921
        },
        {
          "duration": 0.4411759999999987,
          "durationTicks": 120,
          "midi": 64,
          "name": "E4",
          "ticks": 17760,
          "time": 65.294048,
          "velocity": 0.7480314960629921
        },
        {
          "duration": 0.33088199999998835,
          "durationTicks": 90,
          "midi": 57,
          "name": "A3",
          "ticks": 17940,
          "time": 65.95581200000001,
          "velocity": 0.7480314960629921
        },
        {
          "duration": 0.33088199999998835,
          "durationTicks": 90,
          "midi": 64,
          "name": "E4",
          "ticks": 17940,
          "time": 65.95581200000001,
          "velocity": 0.7480314960629921
        },
        {
          "duration": 0.22058799999999223,
          "durationTicks": 60,
          "midi": 57,
          "name": "A3",
          "ticks": 18060,
          "time": 66.39698800000001,
          "velocity": 0.7480314960629921
        },
        {
          "duration": 0.22058799999999223,
          "durationTicks": 60,
          "midi": 64,
          "name": "E4",
          "ticks": 18060,
          "time": 66.39698800000001,
          "velocity": 0.7480314960629921
        },
        {
          "duration": 0.33088200000000256,
          "durationTicks": 90,
          "midi": 57,
          "name": "A3",
          "ticks": 18180,
          "time": 66.838164,
          "velocity": 0.7480314960629921
        },
        {
          "duration": 0.33088200000000256,
          "durationTicks": 90,
          "midi": 62,
          "name": "D4",
          "ticks": 18180,
          "time": 66.838164,
          "velocity": 0.7480314960629921
        },
        {
          "duration": 0.22058799999999223,
          "durationTicks": 60,
          "midi": 57,
          "name": "A3",
          "ticks": 18300,
          "time": 67.27934,
          "velocity": 0.7480314960629921
        },
        {
          "duration": 0.22058799999999223,
          "durationTicks": 60,
          "midi": 62,
          "name": "D4",
          "ticks": 18300,
          "time": 67.27934,
          "velocity": 0.7480314960629921
        },
        {
          "duration": 0.33088200000000256,
          "durationTicks": 90,
          "midi": 57,
          "name": "A3",
          "ticks": 18420,
          "time": 67.720516,
          "velocity": 0.7480314960629921
        },
        {
          "duration": 0.33088200000000256,
          "durationTicks": 90,
          "midi": 62,
          "name": "D4",
          "ticks": 18420,
          "time": 67.720516,
          "velocity": 0.7480314960629921
        },
        {
          "duration": 0.22058800000000645,
          "durationTicks": 60,
          "midi": 57,
          "name": "A3",
          "ticks": 18540,
          "time": 68.161692,
          "velocity": 0.7480314960629921
        },
        {
          "duration": 0.22058800000000645,
          "durationTicks": 60,
          "midi": 62,
          "name": "D4",
          "ticks": 18540,
          "time": 68.161692,
          "velocity": 0.7480314960629921
        },
        {
          "duration": 0.33088200000000256,
          "durationTicks": 90,
          "midi": 55,
          "name": "G3",
          "ticks": 18660,
          "time": 68.602868,
          "velocity": 0.7480314960629921
        },
        {
          "duration": 0.33088200000000256,
          "durationTicks": 90,
          "midi": 62,
          "name": "D4",
          "ticks": 18660,
          "time": 68.602868,
          "velocity": 0.7480314960629921
        },
        {
          "duration": 0.22058800000000645,
          "durationTicks": 60,
          "midi": 55,
          "name": "G3",
          "ticks": 18780,
          "time": 69.044044,
          "velocity": 0.7480314960629921
        },
        {
          "duration": 0.22058800000000645,
          "durationTicks": 60,
          "midi": 62,
          "name": "D4",
          "ticks": 18780,
          "time": 69.044044,
          "velocity": 0.7480314960629921
        },
        {
          "duration": 0.33088200000000256,
          "durationTicks": 90,
          "midi": 55,
          "name": "G3",
          "ticks": 18900,
          "time": 69.48522,
          "velocity": 0.7480314960629921
        },
        {
          "duration": 0.33088200000000256,
          "durationTicks": 90,
          "midi": 62,
          "name": "D4",
          "ticks": 18900,
          "time": 69.48522,
          "velocity": 0.7480314960629921
        },
        {
          "duration": 0.22058800000000645,
          "durationTicks": 60,
          "midi": 55,
          "name": "G3",
          "ticks": 19020,
          "time": 69.926396,
          "velocity": 0.7480314960629921
        },
        {
          "duration": 0.22058800000000645,
          "durationTicks": 60,
          "midi": 62,
          "name": "D4",
          "ticks": 19020,
          "time": 69.926396,
          "velocity": 0.7480314960629921
        },
        {
          "duration": 0.22058800000000645,
          "durationTicks": 60,
          "midi": 55,
          "name": "G3",
          "ticks": 19140,
          "time": 70.367572,
          "velocity": 0.7480314960629921
        },
        {
          "duration": 0.22058800000000645,
          "durationTicks": 60,
          "midi": 64,
          "name": "E4",
          "ticks": 19140,
          "time": 70.367572,
          "velocity": 0.7480314960629921
        },
        {
          "duration": 0.44117599999998447,
          "durationTicks": 120,
          "midi": 57,
          "name": "A3",
          "ticks": 35040,
          "time": 128.823392,
          "velocity": 0.7480314960629921
        },
        {
          "duration": 0.44117599999998447,
          "durationTicks": 120,
          "midi": 64,
          "name": "E4",
          "ticks": 35040,
          "time": 128.823392,
          "velocity": 0.7480314960629921
        },
        {
          "duration": 0.33088199999997414,
          "durationTicks": 90,
          "midi": 57,
          "name": "A3",
          "ticks": 35220,
          "time": 129.48515600000002,
          "velocity": 0.7480314960629921
        },
        {
          "duration": 0.33088199999997414,
          "durationTicks": 90,
          "midi": 64,
          "name": "E4",
          "ticks": 35220,
          "time": 129.48515600000002,
          "velocity": 0.7480314960629921
        },
        {
          "duration": 0.22058799999999223,
          "durationTicks": 60,
          "midi": 57,
          "name": "A3",
          "ticks": 35340,
          "time": 129.926332,
          "velocity": 0.7480314960629921
        },
        {
          "duration": 0.22058799999999223,
          "durationTicks": 60,
          "midi": 64,
          "name": "E4",
          "ticks": 35340,
          "time": 129.926332,
          "velocity": 0.7480314960629921
        },
        {
          "duration": 0.33088200000000256,
          "durationTicks": 90,
          "midi": 57,
          "name": "A3",
          "ticks": 35460,
          "time": 130.36750800000002,
          "velocity": 0.7480314960629921
        },
        {
          "duration": 0.33088200000000256,
          "durationTicks": 90,
          "midi": 62,
          "name": "D4",
          "ticks": 35460,
          "time": 130.36750800000002,
          "velocity": 0.7480314960629921
        },
        {
          "duration": 0.22058799999999223,
          "durationTicks": 60,
          "midi": 57,
          "name": "A3",
          "ticks": 35580,
          "time": 130.808684,
          "velocity": 0.7480314960629921
        },
        {
          "duration": 0.22058799999999223,
          "durationTicks": 60,
          "midi": 62,
          "name": "D4",
          "ticks": 35580,
          "time": 130.808684,
          "velocity": 0.7480314960629921
        },
        {
          "duration": 0.33088200000000256,
          "durationTicks": 90,
          "midi": 57,
          "name": "A3",
          "ticks": 35700,
          "time": 131.24986,
          "velocity": 0.7480314960629921
        },
        {
          "duration": 0.33088200000000256,
          "durationTicks": 90,
          "midi": 62,
          "name": "D4",
          "ticks": 35700,
          "time": 131.24986,
          "velocity": 0.7480314960629921
        },
        {
          "duration": 0.22058800000002066,
          "durationTicks": 60,
          "midi": 57,
          "name": "A3",
          "ticks": 35820,
          "time": 131.691036,
          "velocity": 0.7480314960629921
        },
        {
          "duration": 0.22058800000002066,
          "durationTicks": 60,
          "midi": 62,
          "name": "D4",
          "ticks": 35820,
          "time": 131.691036,
          "velocity": 0.7480314960629921
        },
        {
          "duration": 0.33088200000000256,
          "durationTicks": 90,
          "midi": 55,
          "name": "G3",
          "ticks": 35940,
          "time": 132.132212,
          "velocity": 0.7480314960629921
        },
        {
          "duration": 0.33088200000000256,
          "durationTicks": 90,
          "midi": 62,
          "name": "D4",
          "ticks": 35940,
          "time": 132.132212,
          "velocity": 0.7480314960629921
        },
        {
          "duration": 0.22058800000002066,
          "durationTicks": 60,
          "midi": 55,
          "name": "G3",
          "ticks": 36060,
          "time": 132.573388,
          "velocity": 0.7480314960629921
        },
        {
          "duration": 0.22058800000002066,
          "durationTicks": 60,
          "midi": 62,
          "name": "D4",
          "ticks": 36060,
          "time": 132.573388,
          "velocity": 0.7480314960629921
        },
        {
          "duration": 0.33088200000000256,
          "durationTicks": 90,
          "midi": 55,
          "name": "G3",
          "ticks": 36180,
          "time": 133.014564,
          "velocity": 0.7480314960629921
        },
        {
          "duration": 0.33088200000000256,
          "durationTicks": 90,
          "midi": 62,
          "name": "D4",
          "ticks": 36180,
          "time": 133.014564,
          "velocity": 0.7480314960629921
        },
        {
          "duration": 0.22058800000002066,
          "durationTicks": 60,
          "midi": 55,
          "name": "G3",
          "ticks": 36300,
          "time": 133.45574,
          "velocity": 0.7480314960629921
        },
        {
          "duration": 0.22058800000002066,
          "durationTicks": 60,
          "midi": 62,
          "name": "D4",
          "ticks": 36300,
          "time": 133.45574,
          "velocity": 0.7480314960629921
        },
        {
          "duration": 0.33088200000000256,
          "durationTicks": 90,
          "midi": 55,
          "name": "G3",
          "ticks": 36420,
          "time": 133.896916,
          "velocity": 0.7480314960629921
        },
        {
          "duration": 0.33088200000000256,
          "durationTicks": 90,
          "midi": 64,
          "name": "E4",
          "ticks": 36420,
          "time": 133.896916,
          "velocity": 0.7480314960629921
        },
        {
          "duration": 0.22058799999999223,
          "durationTicks": 60,
          "midi": 55,
          "name": "G3",
          "ticks": 36540,
          "time": 134.33809200000002,
          "velocity": 0.7480314960629921
        },
        {
          "duration": 0.22058799999999223,
          "durationTicks": 60,
          "midi": 64,
          "name": "E4",
          "ticks": 36540,
          "time": 134.33809200000002,
          "velocity": 0.7480314960629921
        },
        {
          "duration": 0.33088200000000256,
          "durationTicks": 90,
          "midi": 55,
          "name": "G3",
          "ticks": 36660,
          "time": 134.779268,
          "velocity": 0.7480314960629921
        },
        {
          "duration": 0.33088200000000256,
          "durationTicks": 90,
          "midi": 62,
          "name": "D4",
          "ticks": 36660,
          "time": 134.779268,
          "velocity": 0.7480314960629921
        },
        {
          "duration": 0.22058799999999223,
          "durationTicks": 60,
          "midi": 55,
          "name": "G3",
          "ticks": 36780,
          "time": 135.22044400000001,
          "velocity": 0.7480314960629921
        },
        {
          "duration": 0.22058799999999223,
          "durationTicks": 60,
          "midi": 62,
          "name": "D4",
          "ticks": 36780,
          "time": 135.22044400000001,
          "velocity": 0.7480314960629921
        },
        {
          "duration": 0.4411760000000129,
          "durationTicks": 120,
          "midi": 57,
          "name": "A3",
          "ticks": 36960,
          "time": 135.882208,
          "velocity": 0.7480314960629921
        },
        {
          "duration": 0.4411760000000129,
          "durationTicks": 120,
          "midi": 64,
          "name": "E4",
          "ticks": 36960,
          "time": 135.882208,
          "velocity": 0.7480314960629921
        },
        {
          "duration": 0.33088200000000256,
          "durationTicks": 90,
          "midi": 57,
          "name": "A3",
          "ticks": 37140,
          "time": 136.543972,
          "velocity": 0.7480314960629921
        },
        {
          "duration": 0.33088200000000256,
          "durationTicks": 90,
          "midi": 64,
          "name": "E4",
          "ticks": 37140,
          "time": 136.543972,
          "velocity": 0.7480314960629921
        },
        {
          "duration": 0.22058799999999223,
          "durationTicks": 60,
          "midi": 57,
          "name": "A3",
          "ticks": 37260,
          "time": 136.985148,
          "velocity": 0.7480314960629921
        },
        {
          "duration": 0.22058799999999223,
          "durationTicks": 60,
          "midi": 64,
          "name": "E4",
          "ticks": 37260,
          "time": 136.985148,
          "velocity": 0.7480314960629921
        },
        {
          "duration": 0.33088200000000256,
          "durationTicks": 90,
          "midi": 57,
          "name": "A3",
          "ticks": 37380,
          "time": 137.426324,
          "velocity": 0.7480314960629921
        },
        {
          "duration": 0.33088200000000256,
          "durationTicks": 90,
          "midi": 62,
          "name": "D4",
          "ticks": 37380,
          "time": 137.426324,
          "velocity": 0.7480314960629921
        },
        {
          "duration": 0.22058799999999223,
          "durationTicks": 60,
          "midi": 57,
          "name": "A3",
          "ticks": 37500,
          "time": 137.8675,
          "velocity": 0.7480314960629921
        },
        {
          "duration": 0.22058799999999223,
          "durationTicks": 60,
          "midi": 62,
          "name": "D4",
          "ticks": 37500,
          "time": 137.8675,
          "velocity": 0.7480314960629921
        },
        {
          "duration": 0.33088200000000256,
          "durationTicks": 90,
          "midi": 57,
          "name": "A3",
          "ticks": 37620,
          "time": 138.308676,
          "velocity": 0.7480314960629921
        },
        {
          "duration": 0.33088200000000256,
          "durationTicks": 90,
          "midi": 62,
          "name": "D4",
          "ticks": 37620,
          "time": 138.308676,
          "velocity": 0.7480314960629921
        },
        {
          "duration": 0.22058799999999223,
          "durationTicks": 60,
          "midi": 57,
          "name": "A3",
          "ticks": 37740,
          "time": 138.749852,
          "velocity": 0.7480314960629921
        },
        {
          "duration": 0.22058799999999223,
          "durationTicks": 60,
          "midi": 62,
          "name": "D4",
          "ticks": 37740,
          "time": 138.749852,
          "velocity": 0.7480314960629921
        },
        {
          "duration": 0.33088199999997414,
          "durationTicks": 90,
          "midi": 55,
          "name": "G3",
          "ticks": 37860,
          "time": 139.19102800000002,
          "velocity": 0.7480314960629921
        },
        {
          "duration": 0.33088199999997414,
          "durationTicks": 90,
          "midi": 62,
          "name": "D4",
          "ticks": 37860,
          "time": 139.19102800000002,
          "velocity": 0.7480314960629921
        },
        {
          "duration": 0.22058799999999223,
          "durationTicks": 60,
          "midi": 55,
          "name": "G3",
          "ticks": 37980,
          "time": 139.632204,
          "velocity": 0.7480314960629921
        },
        {
          "duration": 0.22058799999999223,
          "durationTicks": 60,
          "midi": 62,
          "name": "D4",
          "ticks": 37980,
          "time": 139.632204,
          "velocity": 0.7480314960629921
        },
        {
          "duration": 0.33088200000000256,
          "durationTicks": 90,
          "midi": 55,
          "name": "G3",
          "ticks": 38100,
          "time": 140.07338000000001,
          "velocity": 0.7480314960629921
        },
        {
          "duration": 0.33088200000000256,
          "durationTicks": 90,
          "midi": 62,
          "name": "D4",
          "ticks": 38100,
          "time": 140.07338000000001,
          "velocity": 0.7480314960629921
        },
        {
          "duration": 0.22058799999999223,
          "durationTicks": 60,
          "midi": 55,
          "name": "G3",
          "ticks": 38220,
          "time": 140.514556,
          "velocity": 0.7480314960629921
        },
        {
          "duration": 0.22058799999999223,
          "durationTicks": 60,
          "midi": 62,
          "name": "D4",
          "ticks": 38220,
          "time": 140.514556,
          "velocity": 0.7480314960629921
        },
        {
          "duration": 0.22058799999999223,
          "durationTicks": 60,
          "midi": 55,
          "name": "G3",
          "ticks": 38340,
          "time": 140.955732,
          "velocity": 0.7480314960629921
        },
        {
          "duration": 0.22058799999999223,
          "durationTicks": 60,
          "midi": 64,
          "name": "E4",
          "ticks": 38340,
          "time": 140.955732,
          "velocity": 0.7480314960629921
        },
        {
          "duration": 1.7426451999999983,
          "durationTicks": 474,
          "midi": 45,
          "name": "A2",
          "ticks": 46560,
          "time": 171.176288,
          "velocity": 0.5590551181102362
        },
        {
          "duration": 1.7426451999999983,
          "durationTicks": 474,
          "midi": 57,
          "name": "A3",
          "ticks": 46560,
          "time": 171.176288,
          "velocity": 0.5590551181102362
        },
        {
          "duration": 1.7426451999999983,
          "durationTicks": 474,
          "midi": 60,
          "name": "C4",
          "ticks": 46560,
          "time": 171.176288,
          "velocity": 0.5590551181102362
        },
        {
          "duration": 1.7426451999999983,
          "durationTicks": 474,
          "midi": 64,
          "name": "E4",
          "ticks": 46560,
          "time": 171.176288,
          "velocity": 0.5590551181102362
        },
        {
          "duration": 1.7426451999999983,
          "durationTicks": 474,
          "midi": 50,
          "name": "D3",
          "ticks": 47040,
          "time": 172.940992,
          "velocity": 0.5511811023622047
        },
        {
          "duration": 1.7426451999999983,
          "durationTicks": 474,
          "midi": 57,
          "name": "A3",
          "ticks": 47040,
          "time": 172.940992,
          "velocity": 0.5511811023622047
        },
        {
          "duration": 1.7426451999999983,
          "durationTicks": 474,
          "midi": 62,
          "name": "D4",
          "ticks": 47040,
          "time": 172.940992,
          "velocity": 0.5511811023622047
        },
        {
          "duration": 1.7426451999999983,
          "durationTicks": 474,
          "midi": 66,
          "name": "F#4",
          "ticks": 47040,
          "time": 172.940992,
          "velocity": 0.5511811023622047
        },
        {
          "duration": 1.74264519999997,
          "durationTicks": 474,
          "midi": 43,
          "name": "G2",
          "ticks": 47520,
          "time": 174.70569600000002,
          "velocity": 0.5511811023622047
        },
        {
          "duration": 1.74264519999997,
          "durationTicks": 474,
          "midi": 59,
          "name": "B3",
          "ticks": 47520,
          "time": 174.70569600000002,
          "velocity": 0.5511811023622047
        },
        {
          "duration": 1.74264519999997,
          "durationTicks": 474,
          "midi": 62,
          "name": "D4",
          "ticks": 47520,
          "time": 174.70569600000002,
          "velocity": 0.5511811023622047
        },
        {
          "duration": 1.74264519999997,
          "durationTicks": 474,
          "midi": 67,
          "name": "G4",
          "ticks": 47520,
          "time": 174.70569600000002,
          "velocity": 0.5511811023622047
        },
        {
          "duration": 0.8823519999999974,
          "durationTicks": 240,
          "midi": 36,
          "name": "C2",
          "ticks": 48000,
          "time": 176.4704,
          "velocity": 0.5590551181102362
        },
        {
          "duration": 0.8345579333333148,
          "durationTicks": 227,
          "midi": 55,
          "name": "G3",
          "ticks": 48000,
          "time": 176.4704,
          "velocity": 0.5590551181102362
        },
        {
          "duration": 0.8823519999999974,
          "durationTicks": 240,
          "midi": 60,
          "name": "C4",
          "ticks": 48000,
          "time": 176.4704,
          "velocity": 0.5590551181102362
        },
        {
          "duration": 0.8823519999999974,
          "durationTicks": 240,
          "midi": 64,
          "name": "E4",
          "ticks": 48000,
          "time": 176.4704,
          "velocity": 0.5590551181102362
        },
        {
          "duration": 0.8823519999999974,
          "durationTicks": 240,
          "midi": 35,
          "name": "B1",
          "ticks": 48240,
          "time": 177.352752,
          "velocity": 0.5590551181102362
        },
        {
          "duration": 0.8823519999999974,
          "durationTicks": 240,
          "midi": 55,
          "name": "G3",
          "ticks": 48240,
          "time": 177.352752,
          "velocity": 0.5590551181102362
        },
        {
          "duration": 0.8823519999999974,
          "durationTicks": 240,
          "midi": 59,
          "name": "B3",
          "ticks": 48240,
          "time": 177.352752,
          "velocity": 0.5590551181102362
        },
        {
          "duration": 0.8823519999999974,
          "durationTicks": 240,
          "midi": 62,
          "name": "D4",
          "ticks": 48240,
          "time": 177.352752,
          "velocity": 0.5590551181102362
        },
        {
          "duration": 1.7426451999999983,
          "durationTicks": 474,
          "midi": 45,
          "name": "A2",
          "ticks": 48480,
          "time": 178.235104,
          "velocity": 0.5590551181102362
        },
        {
          "duration": 1.7426451999999983,
          "durationTicks": 474,
          "midi": 57,
          "name": "A3",
          "ticks": 48480,
          "time": 178.235104,
          "velocity": 0.5590551181102362
        },
        {
          "duration": 1.7426451999999983,
          "durationTicks": 474,
          "midi": 60,
          "name": "C4",
          "ticks": 48480,
          "time": 178.235104,
          "velocity": 0.5590551181102362
        },
        {
          "duration": 1.7647039999999947,
          "durationTicks": 480,
          "midi": 64,
          "name": "E4",
          "ticks": 48480,
          "time": 178.235104,
          "velocity": 0.5590551181102362
        },
        {
          "duration": 1.7426451999999983,
          "durationTicks": 474,
          "midi": 50,
          "name": "D3",
          "ticks": 48960,
          "time": 179.999808,
          "velocity": 0.5511811023622047
        },
        {
          "duration": 1.7426451999999983,
          "durationTicks": 474,
          "midi": 57,
          "name": "A3",
          "ticks": 48960,
          "time": 179.999808,
          "velocity": 0.5511811023622047
        },
        {
          "duration": 1.7426451999999983,
          "durationTicks": 474,
          "midi": 62,
          "name": "D4",
          "ticks": 48960,
          "time": 179.999808,
          "velocity": 0.5511811023622047
        },
        {
          "duration": 1.7426451999999983,
          "durationTicks": 474,
          "midi": 66,
          "name": "F#4",
          "ticks": 48960,
          "time": 179.999808,
          "velocity": 0.5511811023622047
        },
        {
          "duration": 1.7647040000000231,
          "durationTicks": 480,
          "midi": 43,
          "name": "G2",
          "ticks": 49440,
          "time": 181.764512,
          "velocity": 0.5511811023622047
        },
        {
          "duration": 1.7647040000000231,
          "durationTicks": 480,
          "midi": 59,
          "name": "B3",
          "ticks": 49440,
          "time": 181.764512,
          "velocity": 0.5511811023622047
        },
        {
          "duration": 1.7647040000000231,
          "durationTicks": 480,
          "midi": 62,
          "name": "D4",
          "ticks": 49440,
          "time": 181.764512,
          "velocity": 0.5511811023622047
        },
        {
          "duration": 1.7647040000000231,
          "durationTicks": 480,
          "midi": 67,
          "name": "G4",
          "ticks": 49440,
          "time": 181.764512,
          "velocity": 0.5511811023622047
        },
        {
          "duration": 0.8823519999999974,
          "durationTicks": 240,
          "midi": 36,
          "name": "C2",
          "ticks": 49920,
          "time": 183.52921600000002,
          "velocity": 0.5590551181102362
        },
        {
          "duration": 0.8345579333333148,
          "durationTicks": 227,
          "midi": 55,
          "name": "G3",
          "ticks": 49920,
          "time": 183.52921600000002,
          "velocity": 0.5590551181102362
        },
        {
          "duration": 0.8823519999999974,
          "durationTicks": 240,
          "midi": 60,
          "name": "C4",
          "ticks": 49920,
          "time": 183.52921600000002,
          "velocity": 0.5590551181102362
        },
        {
          "duration": 0.8823519999999974,
          "durationTicks": 240,
          "midi": 64,
          "name": "E4",
          "ticks": 49920,
          "time": 183.52921600000002,
          "velocity": 0.5590551181102362
        },
        {
          "duration": 0.8823519999999974,
          "durationTicks": 240,
          "midi": 35,
          "name": "B1",
          "ticks": 50160,
          "time": 184.41156800000002,
          "velocity": 0.5590551181102362
        },
        {
          "duration": 0.8823519999999974,
          "durationTicks": 240,
          "midi": 55,
          "name": "G3",
          "ticks": 50160,
          "time": 184.41156800000002,
          "velocity": 0.5590551181102362
        },
        {
          "duration": 0.8823519999999974,
          "durationTicks": 240,
          "midi": 59,
          "name": "B3",
          "ticks": 50160,
          "time": 184.41156800000002,
          "velocity": 0.5590551181102362
        },
        {
          "duration": 0.8823519999999974,
          "durationTicks": 240,
          "midi": 62,
          "name": "D4",
          "ticks": 50160,
          "time": 184.41156800000002,
          "velocity": 0.5590551181102362
        },
        {
          "duration": 1.7426451999999983,
          "durationTicks": 474,
          "midi": 45,
          "name": "A2",
          "ticks": 50400,
          "time": 185.29392,
          "velocity": 0.5590551181102362
        },
        {
          "duration": 1.7426451999999983,
          "durationTicks": 474,
          "midi": 57,
          "name": "A3",
          "ticks": 50400,
          "time": 185.29392,
          "velocity": 0.5590551181102362
        },
        {
          "duration": 1.7426451999999983,
          "durationTicks": 474,
          "midi": 60,
          "name": "C4",
          "ticks": 50400,
          "time": 185.29392,
          "velocity": 0.5590551181102362
        },
        {
          "duration": 1.7426451999999983,
          "durationTicks": 474,
          "midi": 64,
          "name": "E4",
          "ticks": 50400,
          "time": 185.29392,
          "velocity": 0.5590551181102362
        },
        {
          "duration": 1.7426451999999983,
          "durationTicks": 474,
          "midi": 50,
          "name": "D3",
          "ticks": 50880,
          "time": 187.058624,
          "velocity": 0.5511811023622047
        },
        {
          "duration": 1.7426451999999983,
          "durationTicks": 474,
          "midi": 57,
          "name": "A3",
          "ticks": 50880,
          "time": 187.058624,
          "velocity": 0.5511811023622047
        },
        {
          "duration": 1.7426451999999983,
          "durationTicks": 474,
          "midi": 62,
          "name": "D4",
          "ticks": 50880,
          "time": 187.058624,
          "velocity": 0.5511811023622047
        },
        {
          "duration": 1.7426451999999983,
          "durationTicks": 474,
          "midi": 66,
          "name": "F#4",
          "ticks": 50880,
          "time": 187.058624,
          "velocity": 0.5511811023622047
        },
        {
          "duration": 1.7426451999999983,
          "durationTicks": 474,
          "midi": 43,
          "name": "G2",
          "ticks": 51360,
          "time": 188.823328,
          "velocity": 0.5511811023622047
        },
        {
          "duration": 1.7426451999999983,
          "durationTicks": 474,
          "midi": 59,
          "name": "B3",
          "ticks": 51360,
          "time": 188.823328,
          "velocity": 0.5511811023622047
        },
        {
          "duration": 1.7426451999999983,
          "durationTicks": 474,
          "midi": 62,
          "name": "D4",
          "ticks": 51360,
          "time": 188.823328,
          "velocity": 0.5511811023622047
        },
        {
          "duration": 1.7426451999999983,
          "durationTicks": 474,
          "midi": 67,
          "name": "G4",
          "ticks": 51360,
          "time": 188.823328,
          "velocity": 0.5511811023622047
        },
        {
          "duration": 0.8823519999999974,
          "durationTicks": 240,
          "midi": 48,
          "name": "C3",
          "ticks": 51840,
          "time": 190.588032,
          "velocity": 0.5590551181102362
        },
        {
          "duration": 0.8345579333333433,
          "durationTicks": 227,
          "midi": 55,
          "name": "G3",
          "ticks": 51840,
          "time": 190.588032,
          "velocity": 0.5590551181102362
        },
        {
          "duration": 0.8823519999999974,
          "durationTicks": 240,
          "midi": 60,
          "name": "C4",
          "ticks": 51840,
          "time": 190.588032,
          "velocity": 0.5590551181102362
        },
        {
          "duration": 0.8823519999999974,
          "durationTicks": 240,
          "midi": 64,
          "name": "E4",
          "ticks": 51840,
          "time": 190.588032,
          "velocity": 0.5590551181102362
        },
        {
          "duration": 0.8823519999999974,
          "durationTicks": 240,
          "midi": 47,
          "name": "B2",
          "ticks": 52080,
          "time": 191.470384,
          "velocity": 0.5590551181102362
        },
        {
          "duration": 0.8823519999999974,
          "durationTicks": 240,
          "midi": 55,
          "name": "G3",
          "ticks": 52080,
          "time": 191.470384,
          "velocity": 0.5590551181102362
        },
        {
          "duration": 0.8823519999999974,
          "durationTicks": 240,
          "midi": 59,
          "name": "B3",
          "ticks": 52080,
          "time": 191.470384,
          "velocity": 0.5590551181102362
        },
        {
          "duration": 0.8823519999999974,
          "durationTicks": 240,
          "midi": 62,
          "name": "D4",
          "ticks": 52080,
          "time": 191.470384,
          "velocity": 0.5590551181102362
        },
        {
          "duration": 1.7426451999999983,
          "durationTicks": 474,
          "midi": 45,
          "name": "A2",
          "ticks": 52320,
          "time": 192.352736,
          "velocity": 0.5590551181102362
        },
        {
          "duration": 1.7426451999999983,
          "durationTicks": 474,
          "midi": 57,
          "name": "A3",
          "ticks": 52320,
          "time": 192.352736,
          "velocity": 0.5590551181102362
        },
        {
          "duration": 1.7426451999999983,
          "durationTicks": 474,
          "midi": 60,
          "name": "C4",
          "ticks": 52320,
          "time": 192.352736,
          "velocity": 0.5590551181102362
        },
        {
          "duration": 1.7647040000000231,
          "durationTicks": 480,
          "midi": 64,
          "name": "E4",
          "ticks": 52320,
          "time": 192.352736,
          "velocity": 0.5590551181102362
        },
        {
          "duration": 1.7426451999999983,
          "durationTicks": 474,
          "midi": 50,
          "name": "D3",
          "ticks": 52800,
          "time": 194.11744000000002,
          "velocity": 0.5511811023622047
        },
        {
          "duration": 1.7426451999999983,
          "durationTicks": 474,
          "midi": 57,
          "name": "A3",
          "ticks": 52800,
          "time": 194.11744000000002,
          "velocity": 0.5511811023622047
        },
        {
          "duration": 1.7426451999999983,
          "durationTicks": 474,
          "midi": 62,
          "name": "D4",
          "ticks": 52800,
          "time": 194.11744000000002,
          "velocity": 0.5511811023622047
        },
        {
          "duration": 1.7426451999999983,
          "durationTicks": 474,
          "midi": 66,
          "name": "F#4",
          "ticks": 52800,
          "time": 194.11744000000002,
          "velocity": 0.5511811023622047
        },
        {
          "duration": 1.7647039999999947,
          "durationTicks": 480,
          "midi": 43,
          "name": "G2",
          "ticks": 53280,
          "time": 195.882144,
          "velocity": 0.5511811023622047
        },
        {
          "duration": 1.7647039999999947,
          "durationTicks": 480,
          "midi": 59,
          "name": "B3",
          "ticks": 53280,
          "time": 195.882144,
          "velocity": 0.5511811023622047
        },
        {
          "duration": 1.7647039999999947,
          "durationTicks": 480,
          "midi": 62,
          "name": "D4",
          "ticks": 53280,
          "time": 195.882144,
          "velocity": 0.5511811023622047
        },
        {
          "duration": 1.7647039999999947,
          "durationTicks": 480,
          "midi": 67,
          "name": "G4",
          "ticks": 53280,
          "time": 195.882144,
          "velocity": 0.5511811023622047
        },
        {
          "duration": 0.8823519999999974,
          "durationTicks": 240,
          "midi": 48,
          "name": "C3",
          "ticks": 53760,
          "time": 197.646848,
          "velocity": 0.5590551181102362
        },
        {
          "duration": 0.8345579333333148,
          "durationTicks": 227,
          "midi": 55,
          "name": "G3",
          "ticks": 53760,
          "time": 197.646848,
          "velocity": 0.5590551181102362
        },
        {
          "duration": 0.8823519999999974,
          "durationTicks": 240,
          "midi": 60,
          "name": "C4",
          "ticks": 53760,
          "time": 197.646848,
          "velocity": 0.5590551181102362
        },
        {
          "duration": 0.8823519999999974,
          "durationTicks": 240,
          "midi": 64,
          "name": "E4",
          "ticks": 53760,
          "time": 197.646848,
          "velocity": 0.5590551181102362
        },
        {
          "duration": 0.4411760000000129,
          "durationTicks": 120,
          "midi": 57,
          "name": "A3",
          "ticks": 54240,
          "time": 199.411552,
          "velocity": 0.7480314960629921
        },
        {
          "duration": 0.4411760000000129,
          "durationTicks": 120,
          "midi": 64,
          "name": "E4",
          "ticks": 54240,
          "time": 199.411552,
          "velocity": 0.7480314960629921
        },
        {
          "duration": 0.33088200000000256,
          "durationTicks": 90,
          "midi": 57,
          "name": "A3",
          "ticks": 54420,
          "time": 200.073316,
          "velocity": 0.7480314960629921
        },
        {
          "duration": 0.33088200000000256,
          "durationTicks": 90,
          "midi": 64,
          "name": "E4",
          "ticks": 54420,
          "time": 200.073316,
          "velocity": 0.7480314960629921
        },
        {
          "duration": 0.22058799999999223,
          "durationTicks": 60,
          "midi": 57,
          "name": "A3",
          "ticks": 54540,
          "time": 200.51449200000002,
          "velocity": 0.7480314960629921
        },
        {
          "duration": 0.22058799999999223,
          "durationTicks": 60,
          "midi": 64,
          "name": "E4",
          "ticks": 54540,
          "time": 200.51449200000002,
          "velocity": 0.7480314960629921
        },
        {
          "duration": 0.33088200000000256,
          "durationTicks": 90,
          "midi": 57,
          "name": "A3",
          "ticks": 54660,
          "time": 200.955668,
          "velocity": 0.7480314960629921
        },
        {
          "duration": 0.33088200000000256,
          "durationTicks": 90,
          "midi": 62,
          "name": "D4",
          "ticks": 54660,
          "time": 200.955668,
          "velocity": 0.7480314960629921
        },
        {
          "duration": 0.22058799999999223,
          "durationTicks": 60,
          "midi": 57,
          "name": "A3",
          "ticks": 54780,
          "time": 201.39684400000002,
          "velocity": 0.7480314960629921
        },
        {
          "duration": 0.22058799999999223,
          "durationTicks": 60,
          "midi": 62,
          "name": "D4",
          "ticks": 54780,
          "time": 201.39684400000002,
          "velocity": 0.7480314960629921
        },
        {
          "duration": 0.33088200000000256,
          "durationTicks": 90,
          "midi": 57,
          "name": "A3",
          "ticks": 54900,
          "time": 201.83802,
          "velocity": 0.7480314960629921
        },
        {
          "duration": 0.33088200000000256,
          "durationTicks": 90,
          "midi": 62,
          "name": "D4",
          "ticks": 54900,
          "time": 201.83802,
          "velocity": 0.7480314960629921
        },
        {
          "duration": 0.22058799999999223,
          "durationTicks": 60,
          "midi": 57,
          "name": "A3",
          "ticks": 55020,
          "time": 202.279196,
          "velocity": 0.7480314960629921
        },
        {
          "duration": 0.22058799999999223,
          "durationTicks": 60,
          "midi": 62,
          "name": "D4",
          "ticks": 55020,
          "time": 202.279196,
          "velocity": 0.7480314960629921
        },
        {
          "duration": 0.33088200000000256,
          "durationTicks": 90,
          "midi": 55,
          "name": "G3",
          "ticks": 55140,
          "time": 202.720372,
          "velocity": 0.7480314960629921
        },
        {
          "duration": 0.33088200000000256,
          "durationTicks": 90,
          "midi": 62,
          "name": "D4",
          "ticks": 55140,
          "time": 202.720372,
          "velocity": 0.7480314960629921
        },
        {
          "duration": 0.22058799999999223,
          "durationTicks": 60,
          "midi": 55,
          "name": "G3",
          "ticks": 55260,
          "time": 203.161548,
          "velocity": 0.7480314960629921
        },
        {
          "duration": 0.22058799999999223,
          "durationTicks": 60,
          "midi": 62,
          "name": "D4",
          "ticks": 55260,
          "time": 203.161548,
          "velocity": 0.7480314960629921
        },
        {
          "duration": 0.33088200000000256,
          "durationTicks": 90,
          "midi": 55,
          "name": "G3",
          "ticks": 55380,
          "time": 203.602724,
          "velocity": 0.7480314960629921
        },
        {
          "duration": 0.33088200000000256,
          "durationTicks": 90,
          "midi": 62,
          "name": "D4",
          "ticks": 55380,
          "time": 203.602724,
          "velocity": 0.7480314960629921
        },
        {
          "duration": 0.22058799999999223,
          "durationTicks": 60,
          "midi": 55,
          "name": "G3",
          "ticks": 55500,
          "time": 204.0439,
          "velocity": 0.7480314960629921
        },
        {
          "duration": 0.22058799999999223,
          "durationTicks": 60,
          "midi": 62,
          "name": "D4",
          "ticks": 55500,
          "time": 204.0439,
          "velocity": 0.7480314960629921
        },
        {
          "duration": 0.33088200000000256,
          "durationTicks": 90,
          "midi": 55,
          "name": "G3",
          "ticks": 55620,
          "time": 204.485076,
          "velocity": 0.7480314960629921
        },
        {
          "duration": 0.33088200000000256,
          "durationTicks": 90,
          "midi": 64,
          "name": "E4",
          "ticks": 55620,
          "time": 204.485076,
          "velocity": 0.7480314960629921
        },
        {
          "duration": 0.22058799999999223,
          "durationTicks": 60,
          "midi": 55,
          "name": "G3",
          "ticks": 55740,
          "time": 204.926252,
          "velocity": 0.7480314960629921
        },
        {
          "duration": 0.22058799999999223,
          "durationTicks": 60,
          "midi": 64,
          "name": "E4",
          "ticks": 55740,
          "time": 204.926252,
          "velocity": 0.7480314960629921
        },
        {
          "duration": 0.33088199999997414,
          "durationTicks": 90,
          "midi": 55,
          "name": "G3",
          "ticks": 55860,
          "time": 205.36742800000002,
          "velocity": 0.7480314960629921
        },
        {
          "duration": 0.33088199999997414,
          "durationTicks": 90,
          "midi": 62,
          "name": "D4",
          "ticks": 55860,
          "time": 205.36742800000002,
          "velocity": 0.7480314960629921
        },
        {
          "duration": 0.22058799999999223,
          "durationTicks": 60,
          "midi": 55,
          "name": "G3",
          "ticks": 55980,
          "time": 205.808604,
          "velocity": 0.7480314960629921
        },
        {
          "duration": 0.22058799999999223,
          "durationTicks": 60,
          "midi": 62,
          "name": "D4",
          "ticks": 55980,
          "time": 205.808604,
          "velocity": 0.7480314960629921
        },
        {
          "duration": 0.44117599999998447,
          "durationTicks": 120,
          "midi": 57,
          "name": "A3",
          "ticks": 56160,
          "time": 206.470368,
          "velocity": 0.7480314960629921
        },
        {
          "duration": 0.44117599999998447,
          "durationTicks": 120,
          "midi": 64,
          "name": "E4",
          "ticks": 56160,
          "time": 206.470368,
          "velocity": 0.7480314960629921
        },
        {
          "duration": 0.33088200000000256,
          "durationTicks": 90,
          "midi": 57,
          "name": "A3",
          "ticks": 56340,
          "time": 207.132132,
          "velocity": 0.7480314960629921
        },
        {
          "duration": 0.33088200000000256,
          "durationTicks": 90,
          "midi": 64,
          "name": "E4",
          "ticks": 56340,
          "time": 207.132132,
          "velocity": 0.7480314960629921
        },
        {
          "duration": 0.22058800000002066,
          "durationTicks": 60,
          "midi": 57,
          "name": "A3",
          "ticks": 56460,
          "time": 207.573308,
          "velocity": 0.7480314960629921
        },
        {
          "duration": 0.22058800000002066,
          "durationTicks": 60,
          "midi": 64,
          "name": "E4",
          "ticks": 56460,
          "time": 207.573308,
          "velocity": 0.7480314960629921
        },
        {
          "duration": 0.33088200000000256,
          "durationTicks": 90,
          "midi": 57,
          "name": "A3",
          "ticks": 56580,
          "time": 208.014484,
          "velocity": 0.7480314960629921
        },
        {
          "duration": 0.33088200000000256,
          "durationTicks": 90,
          "midi": 62,
          "name": "D4",
          "ticks": 56580,
          "time": 208.014484,
          "velocity": 0.7480314960629921
        },
        {
          "duration": 0.22058800000002066,
          "durationTicks": 60,
          "midi": 57,
          "name": "A3",
          "ticks": 56700,
          "time": 208.45566,
          "velocity": 0.7480314960629921
        },
        {
          "duration": 0.22058800000002066,
          "durationTicks": 60,
          "midi": 62,
          "name": "D4",
          "ticks": 56700,
          "time": 208.45566,
          "velocity": 0.7480314960629921
        },
        {
          "duration": 0.33088200000000256,
          "durationTicks": 90,
          "midi": 57,
          "name": "A3",
          "ticks": 56820,
          "time": 208.896836,
          "velocity": 0.7480314960629921
        },
        {
          "duration": 0.33088200000000256,
          "durationTicks": 90,
          "midi": 62,
          "name": "D4",
          "ticks": 56820,
          "time": 208.896836,
          "velocity": 0.7480314960629921
        },
        {
          "duration": 0.22058800000002066,
          "durationTicks": 60,
          "midi": 57,
          "name": "A3",
          "ticks": 56940,
          "time": 209.338012,
          "velocity": 0.7480314960629921
        },
        {
          "duration": 0.22058800000002066,
          "durationTicks": 60,
          "midi": 62,
          "name": "D4",
          "ticks": 56940,
          "time": 209.338012,
          "velocity": 0.7480314960629921
        },
        {
          "duration": 0.33088200000000256,
          "durationTicks": 90,
          "midi": 55,
          "name": "G3",
          "ticks": 57060,
          "time": 209.779188,
          "velocity": 0.7480314960629921
        },
        {
          "duration": 0.33088200000000256,
          "durationTicks": 90,
          "midi": 62,
          "name": "D4",
          "ticks": 57060,
          "time": 209.779188,
          "velocity": 0.7480314960629921
        },
        {
          "duration": 0.22058799999999223,
          "durationTicks": 60,
          "midi": 55,
          "name": "G3",
          "ticks": 57180,
          "time": 210.22036400000002,
          "velocity": 0.7480314960629921
        },
        {
          "duration": 0.22058799999999223,
          "durationTicks": 60,
          "midi": 62,
          "name": "D4",
          "ticks": 57180,
          "time": 210.22036400000002,
          "velocity": 0.7480314960629921
        },
        {
          "duration": 0.33088200000000256,
          "durationTicks": 90,
          "midi": 55,
          "name": "G3",
          "ticks": 57300,
          "time": 210.66154,
          "velocity": 0.7480314960629921
        },
        {
          "duration": 0.33088200000000256,
          "durationTicks": 90,
          "midi": 62,
          "name": "D4",
          "ticks": 57300,
          "time": 210.66154,
          "velocity": 0.7480314960629921
        },
        {
          "duration": 0.22058799999999223,
          "durationTicks": 60,
          "midi": 55,
          "name": "G3",
          "ticks": 57420,
          "time": 211.10271600000002,
          "velocity": 0.7480314960629921
        },
        {
          "duration": 0.22058799999999223,
          "durationTicks": 60,
          "midi": 62,
          "name": "D4",
          "ticks": 57420,
          "time": 211.10271600000002,
          "velocity": 0.7480314960629921
        },
        {
          "duration": 0.22058799999999223,
          "durationTicks": 60,
          "midi": 55,
          "name": "G3",
          "ticks": 57540,
          "time": 211.543892,
          "velocity": 0.7480314960629921
        },
        {
          "duration": 0.22058799999999223,
          "durationTicks": 60,
          "midi": 64,
          "name": "E4",
          "ticks": 57540,
          "time": 211.543892,
          "velocity": 0.7480314960629921
        },
        {
          "duration": 0.22058799999999223,
          "durationTicks": 60,
          "midi": 55,
          "name": "G3",
          "ticks": 57660,
          "time": 211.985068,
          "velocity": 0.7480314960629921
        },
        {
          "duration": 0.22058799999999223,
          "durationTicks": 60,
          "midi": 64,
          "name": "E4",
          "ticks": 57660,
          "time": 211.985068,
          "velocity": 0.7480314960629921
        },
        {
          "duration": 0.33088200000000256,
          "durationTicks": 90,
          "midi": 55,
          "name": "G3",
          "ticks": 57780,
          "time": 212.426244,
          "velocity": 0.7480314960629921
        },
        {
          "duration": 0.33088200000000256,
          "durationTicks": 90,
          "midi": 62,
          "name": "D4",
          "ticks": 57780,
          "time": 212.426244,
          "velocity": 0.7480314960629921
        },
        {
          "duration": 0.22058799999999223,
          "durationTicks": 60,
          "midi": 55,
          "name": "G3",
          "ticks": 57900,
          "time": 212.86742,
          "velocity": 0.7480314960629921
        },
        {
          "duration": 0.22058799999999223,
          "durationTicks": 60,
          "midi": 62,
          "name": "D4",
          "ticks": 57900,
          "time": 212.86742,
          "velocity": 0.7480314960629921
        },
        {
          "duration": 0.44117599999998447,
          "durationTicks": 120,
          "midi": 57,
          "name": "A3",
          "ticks": 58080,
          "time": 213.52918400000001,
          "velocity": 0.7480314960629921
        },
        {
          "duration": 0.44117599999998447,
          "durationTicks": 120,
          "midi": 64,
          "name": "E4",
          "ticks": 58080,
          "time": 213.52918400000001,
          "velocity": 0.7480314960629921
        },
        {
          "duration": 0.33088199999997414,
          "durationTicks": 90,
          "midi": 57,
          "name": "A3",
          "ticks": 58260,
          "time": 214.19094800000002,
          "velocity": 0.7480314960629921
        },
        {
          "duration": 0.33088199999997414,
          "durationTicks": 90,
          "midi": 64,
          "name": "E4",
          "ticks": 58260,
          "time": 214.19094800000002,
          "velocity": 0.7480314960629921
        },
        {
          "duration": 0.22058799999999223,
          "durationTicks": 60,
          "midi": 57,
          "name": "A3",
          "ticks": 58380,
          "time": 214.632124,
          "velocity": 0.7480314960629921
        },
        {
          "duration": 0.22058799999999223,
          "durationTicks": 60,
          "midi": 64,
          "name": "E4",
          "ticks": 58380,
          "time": 214.632124,
          "velocity": 0.7480314960629921
        },
        {
          "duration": 0.33088200000000256,
          "durationTicks": 90,
          "midi": 57,
          "name": "A3",
          "ticks": 58500,
          "time": 215.07330000000002,
          "velocity": 0.7480314960629921
        },
        {
          "duration": 0.33088200000000256,
          "durationTicks": 90,
          "midi": 62,
          "name": "D4",
          "ticks": 58500,
          "time": 215.07330000000002,
          "velocity": 0.7480314960629921
        },
        {
          "duration": 0.22058799999999223,
          "durationTicks": 60,
          "midi": 57,
          "name": "A3",
          "ticks": 58620,
          "time": 215.514476,
          "velocity": 0.7480314960629921
        },
        {
          "duration": 0.22058799999999223,
          "durationTicks": 60,
          "midi": 62,
          "name": "D4",
          "ticks": 58620,
          "time": 215.514476,
          "velocity": 0.7480314960629921
        },
        {
          "duration": 0.33088200000000256,
          "durationTicks": 90,
          "midi": 57,
          "name": "A3",
          "ticks": 58740,
          "time": 215.95565200000001,
          "velocity": 0.7480314960629921
        },
        {
          "duration": 0.33088200000000256,
          "durationTicks": 90,
          "midi": 62,
          "name": "D4",
          "ticks": 58740,
          "time": 215.95565200000001,
          "velocity": 0.7480314960629921
        },
        {
          "duration": 0.22058800000002066,
          "durationTicks": 60,
          "midi": 57,
          "name": "A3",
          "ticks": 58860,
          "time": 216.396828,
          "velocity": 0.7480314960629921
        },
        {
          "duration": 0.22058800000002066,
          "durationTicks": 60,
          "midi": 62,
          "name": "D4",
          "ticks": 58860,
          "time": 216.396828,
          "velocity": 0.7480314960629921
        },
        {
          "duration": 0.33088200000000256,
          "durationTicks": 90,
          "midi": 55,
          "name": "G3",
          "ticks": 58980,
          "time": 216.838004,
          "velocity": 0.7480314960629921
        },
        {
          "duration": 0.33088200000000256,
          "durationTicks": 90,
          "midi": 62,
          "name": "D4",
          "ticks": 58980,
          "time": 216.838004,
          "velocity": 0.7480314960629921
        },
        {
          "duration": 0.22058800000002066,
          "durationTicks": 60,
          "midi": 55,
          "name": "G3",
          "ticks": 59100,
          "time": 217.27918,
          "velocity": 0.7480314960629921
        },
        {
          "duration": 0.22058800000002066,
          "durationTicks": 60,
          "midi": 62,
          "name": "D4",
          "ticks": 59100,
          "time": 217.27918,
          "velocity": 0.7480314960629921
        },
        {
          "duration": 0.33088200000000256,
          "durationTicks": 90,
          "midi": 55,
          "name": "G3",
          "ticks": 59220,
          "time": 217.720356,
          "velocity": 0.7480314960629921
        },
        {
          "duration": 0.33088200000000256,
          "durationTicks": 90,
          "midi": 62,
          "name": "D4",
          "ticks": 59220,
          "time": 217.720356,
          "velocity": 0.7480314960629921
        },
        {
          "duration": 0.22058800000002066,
          "durationTicks": 60,
          "midi": 55,
          "name": "G3",
          "ticks": 59340,
          "time": 218.161532,
          "velocity": 0.7480314960629921
        },
        {
          "duration": 0.22058800000002066,
          "durationTicks": 60,
          "midi": 62,
          "name": "D4",
          "ticks": 59340,
          "time": 218.161532,
          "velocity": 0.7480314960629921
        },
        {
          "duration": 0.33088200000000256,
          "durationTicks": 90,
          "midi": 55,
          "name": "G3",
          "ticks": 59460,
          "time": 218.602708,
          "velocity": 0.7480314960629921
        },
        {
          "duration": 0.33088200000000256,
          "durationTicks": 90,
          "midi": 64,
          "name": "E4",
          "ticks": 59460,
          "time": 218.602708,
          "velocity": 0.7480314960629921
        },
        {
          "duration": 0.22058799999999223,
          "durationTicks": 60,
          "midi": 55,
          "name": "G3",
          "ticks": 59580,
          "time": 219.04388400000002,
          "velocity": 0.7480314960629921
        },
        {
          "duration": 0.22058799999999223,
          "durationTicks": 60,
          "midi": 64,
          "name": "E4",
          "ticks": 59580,
          "time": 219.04388400000002,
          "velocity": 0.7480314960629921
        },
        {
          "duration": 0.33088200000000256,
          "durationTicks": 90,
          "midi": 55,
          "name": "G3",
          "ticks": 59700,
          "time": 219.48506,
          "velocity": 0.7480314960629921
        },
        {
          "duration": 0.33088200000000256,
          "durationTicks": 90,
          "midi": 62,
          "name": "D4",
          "ticks": 59700,
          "time": 219.48506,
          "velocity": 0.7480314960629921
        },
        {
          "duration": 0.22058799999999223,
          "durationTicks": 60,
          "midi": 55,
          "name": "G3",
          "ticks": 59820,
          "time": 219.92623600000002,
          "velocity": 0.7480314960629921
        },
        {
          "duration": 0.22058799999999223,
          "durationTicks": 60,
          "midi": 62,
          "name": "D4",
          "ticks": 59820,
          "time": 219.92623600000002,
          "velocity": 0.7480314960629921
        },
        {
          "duration": 0.4411760000000129,
          "durationTicks": 120,
          "midi": 57,
          "name": "A3",
          "ticks": 60000,
          "time": 220.588,
          "velocity": 0.7480314960629921
        },
        {
          "duration": 0.4411760000000129,
          "durationTicks": 120,
          "midi": 64,
          "name": "E4",
          "ticks": 60000,
          "time": 220.588,
          "velocity": 0.7480314960629921
        },
        {
          "duration": 0.33088200000000256,
          "durationTicks": 90,
          "midi": 57,
          "name": "A3",
          "ticks": 60180,
          "time": 221.249764,
          "velocity": 0.7480314960629921
        },
        {
          "duration": 0.33088200000000256,
          "durationTicks": 90,
          "midi": 64,
          "name": "E4",
          "ticks": 60180,
          "time": 221.249764,
          "velocity": 0.7480314960629921
        },
        {
          "duration": 0.22058799999999223,
          "durationTicks": 60,
          "midi": 57,
          "name": "A3",
          "ticks": 60300,
          "time": 221.69094,
          "velocity": 0.7480314960629921
        },
        {
          "duration": 0.22058799999999223,
          "durationTicks": 60,
          "midi": 64,
          "name": "E4",
          "ticks": 60300,
          "time": 221.69094,
          "velocity": 0.7480314960629921
        },
        {
          "duration": 0.33088200000000256,
          "durationTicks": 90,
          "midi": 57,
          "name": "A3",
          "ticks": 60420,
          "time": 222.132116,
          "velocity": 0.7480314960629921
        },
        {
          "duration": 0.33088200000000256,
          "durationTicks": 90,
          "midi": 62,
          "name": "D4",
          "ticks": 60420,
          "time": 222.132116,
          "velocity": 0.7480314960629921
        },
        {
          "duration": 0.22058799999999223,
          "durationTicks": 60,
          "midi": 57,
          "name": "A3",
          "ticks": 60540,
          "time": 222.573292,
          "velocity": 0.7480314960629921
        },
        {
          "duration": 0.22058799999999223,
          "durationTicks": 60,
          "midi": 62,
          "name": "D4",
          "ticks": 60540,
          "time": 222.573292,
          "velocity": 0.7480314960629921
        },
        {
          "duration": 0.33088200000000256,
          "durationTicks": 90,
          "midi": 57,
          "name": "A3",
          "ticks": 60660,
          "time": 223.014468,
          "velocity": 0.7480314960629921
        },
        {
          "duration": 0.33088200000000256,
          "durationTicks": 90,
          "midi": 62,
          "name": "D4",
          "ticks": 60660,
          "time": 223.014468,
          "velocity": 0.7480314960629921
        },
        {
          "duration": 0.22058799999999223,
          "durationTicks": 60,
          "midi": 57,
          "name": "A3",
          "ticks": 60780,
          "time": 223.455644,
          "velocity": 0.7480314960629921
        },
        {
          "duration": 0.22058799999999223,
          "durationTicks": 60,
          "midi": 62,
          "name": "D4",
          "ticks": 60780,
          "time": 223.455644,
          "velocity": 0.7480314960629921
        },
        {
          "duration": 0.33088199999997414,
          "durationTicks": 90,
          "midi": 55,
          "name": "G3",
          "ticks": 60900,
          "time": 223.89682000000002,
          "velocity": 0.7480314960629921
        },
        {
          "duration": 0.33088199999997414,
          "durationTicks": 90,
          "midi": 62,
          "name": "D4",
          "ticks": 60900,
          "time": 223.89682000000002,
          "velocity": 0.7480314960629921
        },
        {
          "duration": 0.22058799999999223,
          "durationTicks": 60,
          "midi": 55,
          "name": "G3",
          "ticks": 61020,
          "time": 224.337996,
          "velocity": 0.7480314960629921
        },
        {
          "duration": 0.22058799999999223,
          "durationTicks": 60,
          "midi": 62,
          "name": "D4",
          "ticks": 61020,
          "time": 224.337996,
          "velocity": 0.7480314960629921
        },
        {
          "duration": 0.33088200000000256,
          "durationTicks": 90,
          "midi": 55,
          "name": "G3",
          "ticks": 61140,
          "time": 224.77917200000002,
          "velocity": 0.7480314960629921
        },
        {
          "duration": 0.33088200000000256,
          "durationTicks": 90,
          "midi": 62,
          "name": "D4",
          "ticks": 61140,
          "time": 224.77917200000002,
          "velocity": 0.7480314960629921
        },
        {
          "duration": 0.22058799999999223,
          "durationTicks": 60,
          "midi": 55,
          "name": "G3",
          "ticks": 61260,
          "time": 225.220348,
          "velocity": 0.7480314960629921
        },
        {
          "duration": 0.22058799999999223,
          "durationTicks": 60,
          "midi": 62,
          "name": "D4",
          "ticks": 61260,
          "time": 225.220348,
          "velocity": 0.7480314960629921
        },
        {
          "duration": 0.22058799999999223,
          "durationTicks": 60,
          "midi": 55,
          "name": "G3",
          "ticks": 61380,
          "time": 225.66152400000001,
          "velocity": 0.7480314960629921
        },
        {
          "duration": 0.22058799999999223,
          "durationTicks": 60,
          "midi": 64,
          "name": "E4",
          "ticks": 61380,
          "time": 225.66152400000001,
          "velocity": 0.7480314960629921
        },
        {
          "duration": 0.22058800000002066,
          "durationTicks": 60,
          "midi": 55,
          "name": "G3",
          "ticks": 61500,
          "time": 226.1027,
          "velocity": 0.7480314960629921
        },
        {
          "duration": 0.22058800000002066,
          "durationTicks": 60,
          "midi": 64,
          "name": "E4",
          "ticks": 61500,
          "time": 226.1027,
          "velocity": 0.7480314960629921
        },
        {
          "duration": 0.33088200000000256,
          "durationTicks": 90,
          "midi": 55,
          "name": "G3",
          "ticks": 61620,
          "time": 226.543876,
          "velocity": 0.7480314960629921
        },
        {
          "duration": 0.33088200000000256,
          "durationTicks": 90,
          "midi": 62,
          "name": "D4",
          "ticks": 61620,
          "time": 226.543876,
          "velocity": 0.7480314960629921
        },
        {
          "duration": 0.22058800000002066,
          "durationTicks": 60,
          "midi": 55,
          "name": "G3",
          "ticks": 61740,
          "time": 226.985052,
          "velocity": 0.7480314960629921
        },
        {
          "duration": 0.22058800000002066,
          "durationTicks": 60,
          "midi": 62,
          "name": "D4",
          "ticks": 61740,
          "time": 226.985052,
          "velocity": 0.7480314960629921
        }
      ],
      "endOfTrackTicks": 61800
    },
    {
      "channel": 7,
      "controlChanges": {
        "1": [
          {
            "number": 1,
            "ticks": 182,
            "time": 0.6691169333333333,
            "value": 0
          }
        ],
        "5": [
          {
            "number": 5,
            "ticks": 231,
            "time": 0.8492638,
            "value": 0
          }
        ],
        "7": [
          {
            "number": 7,
            "ticks": 0,
            "time": 0,
            "value": 0.5354330708661418
          }
        ],
        "10": [
          {
            "number": 10,
            "ticks": 0,
            "time": 0,
            "value": 0.5039370078740157
          }
        ],
        "11": [
          {
            "number": 11,
            "ticks": 157,
            "time": 0.5772052666666667,
            "value": 1
          }
        ],
        "64": [
          {
            "number": 64,
            "ticks": 193,
            "time": 0.7095580666666668,
            "value": 0
          }
        ],
        "65": [
          {
            "number": 65,
            "ticks": 218,
            "time": 0.8014697333333334,
            "value": 0
          }
        ],
        "91": [
          {
            "number": 91,
            "ticks": 13,
            "time": 0.04779406666666667,
            "value": 0.23622047244094488
          }
        ],
        "93": [
          {
            "number": 93,
            "ticks": 120,
            "time": 0.441176,
            "value": 0.15748031496062992
          }
        ],
        "94": [
          {
            "number": 94,
            "ticks": 136,
            "time": 0.49999946666666667,
            "value": 0
          }
        ],
        "121": [
          {
            "number": 121,
            "ticks": 0,
            "time": 0,
            "value": 0
          }
        ]
      },
      "pitchBends": [
        {
          "ticks": 203,
          "time": 0.7463227333333333,
          "value": 0
        }
      ],
      "instrument": {
        "family": "synth pad",
        "number": 89,
        "name": "pad 2 (warm)"
      },
      "name": "Warm Strings",
      "notes": [
        {
          "duration": 1.7426451999999983,
          "durationTicks": 474,
          "midi": 57,
          "name": "A3",
          "ticks": 27360,
          "time": 100.588128,
          "velocity": 0.5590551181102362
        },
        {
          "duration": 1.7426451999999983,
          "durationTicks": 474,
          "midi": 69,
          "name": "A4",
          "ticks": 27360,
          "time": 100.588128,
          "velocity": 0.5590551181102362
        },
        {
          "duration": 1.7426451999999983,
          "durationTicks": 474,
          "midi": 72,
          "name": "C5",
          "ticks": 27360,
          "time": 100.588128,
          "velocity": 0.5590551181102362
        },
        {
          "duration": 1.7426451999999983,
          "durationTicks": 474,
          "midi": 76,
          "name": "E5",
          "ticks": 27360,
          "time": 100.588128,
          "velocity": 0.5590551181102362
        },
        {
          "duration": 1.7426451999999983,
          "durationTicks": 474,
          "midi": 62,
          "name": "D4",
          "ticks": 27840,
          "time": 102.352832,
          "velocity": 0.5511811023622047
        },
        {
          "duration": 1.7426451999999983,
          "durationTicks": 474,
          "midi": 69,
          "name": "A4",
          "ticks": 27840,
          "time": 102.352832,
          "velocity": 0.5511811023622047
        },
        {
          "duration": 1.7426451999999983,
          "durationTicks": 474,
          "midi": 74,
          "name": "D5",
          "ticks": 27840,
          "time": 102.352832,
          "velocity": 0.5511811023622047
        },
        {
          "duration": 1.7426451999999983,
          "durationTicks": 474,
          "midi": 78,
          "name": "F#5",
          "ticks": 27840,
          "time": 102.352832,
          "velocity": 0.5511811023622047
        },
        {
          "duration": 1.7426451999999983,
          "durationTicks": 474,
          "midi": 55,
          "name": "G3",
          "ticks": 28320,
          "time": 104.117536,
          "velocity": 0.5511811023622047
        },
        {
          "duration": 1.7426451999999983,
          "durationTicks": 474,
          "midi": 71,
          "name": "B4",
          "ticks": 28320,
          "time": 104.117536,
          "velocity": 0.5511811023622047
        },
        {
          "duration": 1.7426451999999983,
          "durationTicks": 474,
          "midi": 74,
          "name": "D5",
          "ticks": 28320,
          "time": 104.117536,
          "velocity": 0.5511811023622047
        },
        {
          "duration": 1.7426451999999983,
          "durationTicks": 474,
          "midi": 79,
          "name": "G5",
          "ticks": 28320,
          "time": 104.117536,
          "velocity": 0.5511811023622047
        },
        {
          "duration": 0.8823520000000116,
          "durationTicks": 240,
          "midi": 60,
          "name": "C4",
          "ticks": 28800,
          "time": 105.88224,
          "velocity": 0.5590551181102362
        },
        {
          "duration": 0.8345579333333433,
          "durationTicks": 227,
          "midi": 67,
          "name": "G4",
          "ticks": 28800,
          "time": 105.88224,
          "velocity": 0.5590551181102362
        },
        {
          "duration": 0.8823520000000116,
          "durationTicks": 240,
          "midi": 72,
          "name": "C5",
          "ticks": 28800,
          "time": 105.88224,
          "velocity": 0.5590551181102362
        },
        {
          "duration": 0.8823520000000116,
          "durationTicks": 240,
          "midi": 76,
          "name": "E5",
          "ticks": 28800,
          "time": 105.88224,
          "velocity": 0.5590551181102362
        },
        {
          "duration": 0.8823519999999974,
          "durationTicks": 240,
          "midi": 59,
          "name": "B3",
          "ticks": 29040,
          "time": 106.76459200000001,
          "velocity": 0.5590551181102362
        },
        {
          "duration": 0.8823519999999974,
          "durationTicks": 240,
          "midi": 67,
          "name": "G4",
          "ticks": 29040,
          "time": 106.76459200000001,
          "velocity": 0.5590551181102362
        },
        {
          "duration": 0.8823519999999974,
          "durationTicks": 240,
          "midi": 71,
          "name": "B4",
          "ticks": 29040,
          "time": 106.76459200000001,
          "velocity": 0.5590551181102362
        },
        {
          "duration": 0.8823519999999974,
          "durationTicks": 240,
          "midi": 74,
          "name": "D5",
          "ticks": 29040,
          "time": 106.76459200000001,
          "velocity": 0.5590551181102362
        },
        {
          "duration": 1.7426451999999983,
          "durationTicks": 474,
          "midi": 57,
          "name": "A3",
          "ticks": 29280,
          "time": 107.646944,
          "velocity": 0.5590551181102362
        },
        {
          "duration": 1.7426451999999983,
          "durationTicks": 474,
          "midi": 69,
          "name": "A4",
          "ticks": 29280,
          "time": 107.646944,
          "velocity": 0.5590551181102362
        },
        {
          "duration": 1.7426451999999983,
          "durationTicks": 474,
          "midi": 72,
          "name": "C5",
          "ticks": 29280,
          "time": 107.646944,
          "velocity": 0.5590551181102362
        },
        {
          "duration": 1.7647039999999947,
          "durationTicks": 480,
          "midi": 76,
          "name": "E5",
          "ticks": 29280,
          "time": 107.646944,
          "velocity": 0.5590551181102362
        },
        {
          "duration": 1.7426451999999983,
          "durationTicks": 474,
          "midi": 62,
          "name": "D4",
          "ticks": 29760,
          "time": 109.411648,
          "velocity": 0.5511811023622047
        },
        {
          "duration": 1.7426451999999983,
          "durationTicks": 474,
          "midi": 69,
          "name": "A4",
          "ticks": 29760,
          "time": 109.411648,
          "velocity": 0.5511811023622047
        },
        {
          "duration": 1.7426451999999983,
          "durationTicks": 474,
          "midi": 74,
          "name": "D5",
          "ticks": 29760,
          "time": 109.411648,
          "velocity": 0.5511811023622047
        },
        {
          "duration": 1.7426451999999983,
          "durationTicks": 474,
          "midi": 78,
          "name": "F#5",
          "ticks": 29760,
          "time": 109.411648,
          "velocity": 0.5511811023622047
        },
        {
          "duration": 1.7647039999999947,
          "durationTicks": 480,
          "midi": 55,
          "name": "G3",
          "ticks": 30240,
          "time": 111.17635200000001,
          "velocity": 0.5511811023622047
        },
        {
          "duration": 1.7647039999999947,
          "durationTicks": 480,
          "midi": 71,
          "name": "B4",
          "ticks": 30240,
          "time": 111.17635200000001,
          "velocity": 0.5511811023622047
        },
        {
          "duration": 1.7647039999999947,
          "durationTicks": 480,
          "midi": 74,
          "name": "D5",
          "ticks": 30240,
          "time": 111.17635200000001,
          "velocity": 0.5511811023622047
        },
        {
          "duration": 1.7647039999999947,
          "durationTicks": 480,
          "midi": 79,
          "name": "G5",
          "ticks": 30240,
          "time": 111.17635200000001,
          "velocity": 0.5511811023622047
        },
        {
          "duration": 0.8823519999999974,
          "durationTicks": 240,
          "midi": 60,
          "name": "C4",
          "ticks": 30720,
          "time": 112.941056,
          "velocity": 0.5590551181102362
        },
        {
          "duration": 0.8345579333333291,
          "durationTicks": 227,
          "midi": 67,
          "name": "G4",
          "ticks": 30720,
          "time": 112.941056,
          "velocity": 0.5590551181102362
        },
        {
          "duration": 0.8823519999999974,
          "durationTicks": 240,
          "midi": 72,
          "name": "C5",
          "ticks": 30720,
          "time": 112.941056,
          "velocity": 0.5590551181102362
        },
        {
          "duration": 0.8823519999999974,
          "durationTicks": 240,
          "midi": 76,
          "name": "E5",
          "ticks": 30720,
          "time": 112.941056,
          "velocity": 0.5590551181102362
        },
        {
          "duration": 0.8823519999999974,
          "durationTicks": 240,
          "midi": 59,
          "name": "B3",
          "ticks": 30960,
          "time": 113.823408,
          "velocity": 0.5590551181102362
        },
        {
          "duration": 0.8823519999999974,
          "durationTicks": 240,
          "midi": 67,
          "name": "G4",
          "ticks": 30960,
          "time": 113.823408,
          "velocity": 0.5590551181102362
        },
        {
          "duration": 0.8823519999999974,
          "durationTicks": 240,
          "midi": 71,
          "name": "B4",
          "ticks": 30960,
          "time": 113.823408,
          "velocity": 0.5590551181102362
        },
        {
          "duration": 0.8823519999999974,
          "durationTicks": 240,
          "midi": 74,
          "name": "D5",
          "ticks": 30960,
          "time": 113.823408,
          "velocity": 0.5590551181102362
        },
        {
          "duration": 1.7426451999999983,
          "durationTicks": 474,
          "midi": 57,
          "name": "A3",
          "ticks": 31200,
          "time": 114.70576,
          "velocity": 0.5590551181102362
        },
        {
          "duration": 1.7426451999999983,
          "durationTicks": 474,
          "midi": 69,
          "name": "A4",
          "ticks": 31200,
          "time": 114.70576,
          "velocity": 0.5590551181102362
        },
        {
          "duration": 1.7426451999999983,
          "durationTicks": 474,
          "midi": 72,
          "name": "C5",
          "ticks": 31200,
          "time": 114.70576,
          "velocity": 0.5590551181102362
        },
        {
          "duration": 1.7426451999999983,
          "durationTicks": 474,
          "midi": 76,
          "name": "E5",
          "ticks": 31200,
          "time": 114.70576,
          "velocity": 0.5590551181102362
        },
        {
          "duration": 1.7426451999999983,
          "durationTicks": 474,
          "midi": 62,
          "name": "D4",
          "ticks": 31680,
          "time": 116.470464,
          "velocity": 0.5511811023622047
        },
        {
          "duration": 1.7426451999999983,
          "durationTicks": 474,
          "midi": 69,
          "name": "A4",
          "ticks": 31680,
          "time": 116.470464,
          "velocity": 0.5511811023622047
        },
        {
          "duration": 1.7426451999999983,
          "durationTicks": 474,
          "midi": 74,
          "name": "D5",
          "ticks": 31680,
          "time": 116.470464,
          "velocity": 0.5511811023622047
        },
        {
          "duration": 1.7426451999999983,
          "durationTicks": 474,
          "midi": 78,
          "name": "F#5",
          "ticks": 31680,
          "time": 116.470464,
          "velocity": 0.5511811023622047
        },
        {
          "duration": 1.7426451999999983,
          "durationTicks": 474,
          "midi": 55,
          "name": "G3",
          "ticks": 32160,
          "time": 118.235168,
          "velocity": 0.5511811023622047
        },
        {
          "duration": 1.7426451999999983,
          "durationTicks": 474,
          "midi": 71,
          "name": "B4",
          "ticks": 32160,
          "time": 118.235168,
          "velocity": 0.5511811023622047
        },
        {
          "duration": 1.7426451999999983,
          "durationTicks": 474,
          "midi": 74,
          "name": "D5",
          "ticks": 32160,
          "time": 118.235168,
          "velocity": 0.5511811023622047
        },
        {
          "duration": 1.7426451999999983,
          "durationTicks": 474,
          "midi": 79,
          "name": "G5",
          "ticks": 32160,
          "time": 118.235168,
          "velocity": 0.5511811023622047
        },
        {
          "duration": 0.8823519999999974,
          "durationTicks": 240,
          "midi": 60,
          "name": "C4",
          "ticks": 32640,
          "time": 119.99987200000001,
          "velocity": 0.5590551181102362
        },
        {
          "duration": 0.8345579333333148,
          "durationTicks": 227,
          "midi": 67,
          "name": "G4",
          "ticks": 32640,
          "time": 119.99987200000001,
          "velocity": 0.5590551181102362
        },
        {
          "duration": 0.8823519999999974,
          "durationTicks": 240,
          "midi": 72,
          "name": "C5",
          "ticks": 32640,
          "time": 119.99987200000001,
          "velocity": 0.5590551181102362
        },
        {
          "duration": 0.8823519999999974,
          "durationTicks": 240,
          "midi": 76,
          "name": "E5",
          "ticks": 32640,
          "time": 119.99987200000001,
          "velocity": 0.5590551181102362
        },
        {
          "duration": 0.8823519999999974,
          "durationTicks": 240,
          "midi": 59,
          "name": "B3",
          "ticks": 32880,
          "time": 120.88222400000001,
          "velocity": 0.5590551181102362
        },
        {
          "duration": 0.8823519999999974,
          "durationTicks": 240,
          "midi": 67,
          "name": "G4",
          "ticks": 32880,
          "time": 120.88222400000001,
          "velocity": 0.5590551181102362
        },
        {
          "duration": 0.8823519999999974,
          "durationTicks": 240,
          "midi": 71,
          "name": "B4",
          "ticks": 32880,
          "time": 120.88222400000001,
          "velocity": 0.5590551181102362
        },
        {
          "duration": 0.8823519999999974,
          "durationTicks": 240,
          "midi": 74,
          "name": "D5",
          "ticks": 32880,
          "time": 120.88222400000001,
          "velocity": 0.5590551181102362
        },
        {
          "duration": 1.7426451999999983,
          "durationTicks": 474,
          "midi": 57,
          "name": "A3",
          "ticks": 33120,
          "time": 121.764576,
          "velocity": 0.5590551181102362
        },
        {
          "duration": 1.7426451999999983,
          "durationTicks": 474,
          "midi": 69,
          "name": "A4",
          "ticks": 33120,
          "time": 121.764576,
          "velocity": 0.5590551181102362
        },
        {
          "duration": 1.7426451999999983,
          "durationTicks": 474,
          "midi": 72,
          "name": "C5",
          "ticks": 33120,
          "time": 121.764576,
          "velocity": 0.5590551181102362
        },
        {
          "duration": 1.7647039999999947,
          "durationTicks": 480,
          "midi": 76,
          "name": "E5",
          "ticks": 33120,
          "time": 121.764576,
          "velocity": 0.5590551181102362
        },
        {
          "duration": 1.7426451999999983,
          "durationTicks": 474,
          "midi": 62,
          "name": "D4",
          "ticks": 33600,
          "time": 123.52928,
          "velocity": 0.5511811023622047
        },
        {
          "duration": 1.7426451999999983,
          "durationTicks": 474,
          "midi": 69,
          "name": "A4",
          "ticks": 33600,
          "time": 123.52928,
          "velocity": 0.5511811023622047
        },
        {
          "duration": 1.7426451999999983,
          "durationTicks": 474,
          "midi": 74,
          "name": "D5",
          "ticks": 33600,
          "time": 123.52928,
          "velocity": 0.5511811023622047
        },
        {
          "duration": 1.7426451999999983,
          "durationTicks": 474,
          "midi": 78,
          "name": "F#5",
          "ticks": 33600,
          "time": 123.52928,
          "velocity": 0.5511811023622047
        },
        {
          "duration": 1.7647039999999947,
          "durationTicks": 480,
          "midi": 55,
          "name": "G3",
          "ticks": 34080,
          "time": 125.29398400000001,
          "velocity": 0.5511811023622047
        },
        {
          "duration": 1.7647039999999947,
          "durationTicks": 480,
          "midi": 71,
          "name": "B4",
          "ticks": 34080,
          "time": 125.29398400000001,
          "velocity": 0.5511811023622047
        },
        {
          "duration": 1.7647039999999947,
          "durationTicks": 480,
          "midi": 74,
          "name": "D5",
          "ticks": 34080,
          "time": 125.29398400000001,
          "velocity": 0.5511811023622047
        },
        {
          "duration": 1.7647039999999947,
          "durationTicks": 480,
          "midi": 79,
          "name": "G5",
          "ticks": 34080,
          "time": 125.29398400000001,
          "velocity": 0.5511811023622047
        },
        {
          "duration": 0.8823519999999974,
          "durationTicks": 240,
          "midi": 60,
          "name": "C4",
          "ticks": 34560,
          "time": 127.058688,
          "velocity": 0.5590551181102362
        },
        {
          "duration": 0.8823519999999974,
          "durationTicks": 240,
          "midi": 67,
          "name": "G4",
          "ticks": 34560,
          "time": 127.058688,
          "velocity": 0.5590551181102362
        },
        {
          "duration": 0.8823519999999974,
          "durationTicks": 240,
          "midi": 72,
          "name": "C5",
          "ticks": 34560,
          "time": 127.058688,
          "velocity": 0.5590551181102362
        },
        {
          "duration": 0.8823519999999974,
          "durationTicks": 240,
          "midi": 76,
          "name": "E5",
          "ticks": 34560,
          "time": 127.058688,
          "velocity": 0.5590551181102362
        },
        {
          "duration": 1.7426451999999983,
          "durationTicks": 474,
          "midi": 57,
          "name": "A3",
          "ticks": 46560,
          "time": 171.176288,
          "velocity": 0.5590551181102362
        },
        {
          "duration": 1.7426451999999983,
          "durationTicks": 474,
          "midi": 69,
          "name": "A4",
          "ticks": 46560,
          "time": 171.176288,
          "velocity": 0.5590551181102362
        },
        {
          "duration": 1.7426451999999983,
          "durationTicks": 474,
          "midi": 72,
          "name": "C5",
          "ticks": 46560,
          "time": 171.176288,
          "velocity": 0.5590551181102362
        },
        {
          "duration": 1.7426451999999983,
          "durationTicks": 474,
          "midi": 76,
          "name": "E5",
          "ticks": 46560,
          "time": 171.176288,
          "velocity": 0.5590551181102362
        },
        {
          "duration": 1.7426451999999983,
          "durationTicks": 474,
          "midi": 62,
          "name": "D4",
          "ticks": 47040,
          "time": 172.940992,
          "velocity": 0.5511811023622047
        },
        {
          "duration": 1.7426451999999983,
          "durationTicks": 474,
          "midi": 69,
          "name": "A4",
          "ticks": 47040,
          "time": 172.940992,
          "velocity": 0.5511811023622047
        },
        {
          "duration": 1.7426451999999983,
          "durationTicks": 474,
          "midi": 74,
          "name": "D5",
          "ticks": 47040,
          "time": 172.940992,
          "velocity": 0.5511811023622047
        },
        {
          "duration": 1.7426451999999983,
          "durationTicks": 474,
          "midi": 78,
          "name": "F#5",
          "ticks": 47040,
          "time": 172.940992,
          "velocity": 0.5511811023622047
        },
        {
          "duration": 1.74264519999997,
          "durationTicks": 474,
          "midi": 55,
          "name": "G3",
          "ticks": 47520,
          "time": 174.70569600000002,
          "velocity": 0.5511811023622047
        },
        {
          "duration": 1.74264519999997,
          "durationTicks": 474,
          "midi": 71,
          "name": "B4",
          "ticks": 47520,
          "time": 174.70569600000002,
          "velocity": 0.5511811023622047
        },
        {
          "duration": 1.74264519999997,
          "durationTicks": 474,
          "midi": 74,
          "name": "D5",
          "ticks": 47520,
          "time": 174.70569600000002,
          "velocity": 0.5511811023622047
        },
        {
          "duration": 1.74264519999997,
          "durationTicks": 474,
          "midi": 79,
          "name": "G5",
          "ticks": 47520,
          "time": 174.70569600000002,
          "velocity": 0.5511811023622047
        },
        {
          "duration": 0.8823519999999974,
          "durationTicks": 240,
          "midi": 60,
          "name": "C4",
          "ticks": 48000,
          "time": 176.4704,
          "velocity": 0.5590551181102362
        },
        {
          "duration": 0.8345579333333148,
          "durationTicks": 227,
          "midi": 67,
          "name": "G4",
          "ticks": 48000,
          "time": 176.4704,
          "velocity": 0.5590551181102362
        },
        {
          "duration": 0.8823519999999974,
          "durationTicks": 240,
          "midi": 72,
          "name": "C5",
          "ticks": 48000,
          "time": 176.4704,
          "velocity": 0.5590551181102362
        },
        {
          "duration": 0.8823519999999974,
          "durationTicks": 240,
          "midi": 76,
          "name": "E5",
          "ticks": 48000,
          "time": 176.4704,
          "velocity": 0.5590551181102362
        },
        {
          "duration": 0.8823519999999974,
          "durationTicks": 240,
          "midi": 59,
          "name": "B3",
          "ticks": 48240,
          "time": 177.352752,
          "velocity": 0.5590551181102362
        },
        {
          "duration": 0.8823519999999974,
          "durationTicks": 240,
          "midi": 67,
          "name": "G4",
          "ticks": 48240,
          "time": 177.352752,
          "velocity": 0.5590551181102362
        },
        {
          "duration": 0.8823519999999974,
          "durationTicks": 240,
          "midi": 71,
          "name": "B4",
          "ticks": 48240,
          "time": 177.352752,
          "velocity": 0.5590551181102362
        },
        {
          "duration": 0.8823519999999974,
          "durationTicks": 240,
          "midi": 74,
          "name": "D5",
          "ticks": 48240,
          "time": 177.352752,
          "velocity": 0.5590551181102362
        },
        {
          "duration": 1.7426451999999983,
          "durationTicks": 474,
          "midi": 57,
          "name": "A3",
          "ticks": 48480,
          "time": 178.235104,
          "velocity": 0.5590551181102362
        },
        {
          "duration": 1.7426451999999983,
          "durationTicks": 474,
          "midi": 69,
          "name": "A4",
          "ticks": 48480,
          "time": 178.235104,
          "velocity": 0.5590551181102362
        },
        {
          "duration": 1.7426451999999983,
          "durationTicks": 474,
          "midi": 72,
          "name": "C5",
          "ticks": 48480,
          "time": 178.235104,
          "velocity": 0.5590551181102362
        },
        {
          "duration": 1.7647039999999947,
          "durationTicks": 480,
          "midi": 76,
          "name": "E5",
          "ticks": 48480,
          "time": 178.235104,
          "velocity": 0.5590551181102362
        },
        {
          "duration": 1.7426451999999983,
          "durationTicks": 474,
          "midi": 62,
          "name": "D4",
          "ticks": 48960,
          "time": 179.999808,
          "velocity": 0.5511811023622047
        },
        {
          "duration": 1.7426451999999983,
          "durationTicks": 474,
          "midi": 69,
          "name": "A4",
          "ticks": 48960,
          "time": 179.999808,
          "velocity": 0.5511811023622047
        },
        {
          "duration": 1.7426451999999983,
          "durationTicks": 474,
          "midi": 74,
          "name": "D5",
          "ticks": 48960,
          "time": 179.999808,
          "velocity": 0.5511811023622047
        },
        {
          "duration": 1.7426451999999983,
          "durationTicks": 474,
          "midi": 78,
          "name": "F#5",
          "ticks": 48960,
          "time": 179.999808,
          "velocity": 0.5511811023622047
        },
        {
          "duration": 1.7647040000000231,
          "durationTicks": 480,
          "midi": 55,
          "name": "G3",
          "ticks": 49440,
          "time": 181.764512,
          "velocity": 0.5511811023622047
        },
        {
          "duration": 1.7647040000000231,
          "durationTicks": 480,
          "midi": 71,
          "name": "B4",
          "ticks": 49440,
          "time": 181.764512,
          "velocity": 0.5511811023622047
        },
        {
          "duration": 1.7647040000000231,
          "durationTicks": 480,
          "midi": 74,
          "name": "D5",
          "ticks": 49440,
          "time": 181.764512,
          "velocity": 0.5511811023622047
        },
        {
          "duration": 1.7647040000000231,
          "durationTicks": 480,
          "midi": 79,
          "name": "G5",
          "ticks": 49440,
          "time": 181.764512,
          "velocity": 0.5511811023622047
        },
        {
          "duration": 0.8823519999999974,
          "durationTicks": 240,
          "midi": 60,
          "name": "C4",
          "ticks": 49920,
          "time": 183.52921600000002,
          "velocity": 0.5590551181102362
        },
        {
          "duration": 0.8345579333333148,
          "durationTicks": 227,
          "midi": 67,
          "name": "G4",
          "ticks": 49920,
          "time": 183.52921600000002,
          "velocity": 0.5590551181102362
        },
        {
          "duration": 0.8823519999999974,
          "durationTicks": 240,
          "midi": 72,
          "name": "C5",
          "ticks": 49920,
          "time": 183.52921600000002,
          "velocity": 0.5590551181102362
        },
        {
          "duration": 0.8823519999999974,
          "durationTicks": 240,
          "midi": 76,
          "name": "E5",
          "ticks": 49920,
          "time": 183.52921600000002,
          "velocity": 0.5590551181102362
        },
        {
          "duration": 0.8823519999999974,
          "durationTicks": 240,
          "midi": 59,
          "name": "B3",
          "ticks": 50160,
          "time": 184.41156800000002,
          "velocity": 0.5590551181102362
        },
        {
          "duration": 0.8823519999999974,
          "durationTicks": 240,
          "midi": 67,
          "name": "G4",
          "ticks": 50160,
          "time": 184.41156800000002,
          "velocity": 0.5590551181102362
        },
        {
          "duration": 0.8823519999999974,
          "durationTicks": 240,
          "midi": 71,
          "name": "B4",
          "ticks": 50160,
          "time": 184.41156800000002,
          "velocity": 0.5590551181102362
        },
        {
          "duration": 0.8823519999999974,
          "durationTicks": 240,
          "midi": 74,
          "name": "D5",
          "ticks": 50160,
          "time": 184.41156800000002,
          "velocity": 0.5590551181102362
        },
        {
          "duration": 1.7426451999999983,
          "durationTicks": 474,
          "midi": 57,
          "name": "A3",
          "ticks": 50400,
          "time": 185.29392,
          "velocity": 0.5590551181102362
        },
        {
          "duration": 1.7426451999999983,
          "durationTicks": 474,
          "midi": 69,
          "name": "A4",
          "ticks": 50400,
          "time": 185.29392,
          "velocity": 0.5590551181102362
        },
        {
          "duration": 1.7426451999999983,
          "durationTicks": 474,
          "midi": 72,
          "name": "C5",
          "ticks": 50400,
          "time": 185.29392,
          "velocity": 0.5590551181102362
        },
        {
          "duration": 1.7426451999999983,
          "durationTicks": 474,
          "midi": 76,
          "name": "E5",
          "ticks": 50400,
          "time": 185.29392,
          "velocity": 0.5590551181102362
        },
        {
          "duration": 1.7426451999999983,
          "durationTicks": 474,
          "midi": 62,
          "name": "D4",
          "ticks": 50880,
          "time": 187.058624,
          "velocity": 0.5511811023622047
        },
        {
          "duration": 1.7426451999999983,
          "durationTicks": 474,
          "midi": 69,
          "name": "A4",
          "ticks": 50880,
          "time": 187.058624,
          "velocity": 0.5511811023622047
        },
        {
          "duration": 1.7426451999999983,
          "durationTicks": 474,
          "midi": 74,
          "name": "D5",
          "ticks": 50880,
          "time": 187.058624,
          "velocity": 0.5511811023622047
        },
        {
          "duration": 1.7426451999999983,
          "durationTicks": 474,
          "midi": 78,
          "name": "F#5",
          "ticks": 50880,
          "time": 187.058624,
          "velocity": 0.5511811023622047
        },
        {
          "duration": 1.7426451999999983,
          "durationTicks": 474,
          "midi": 55,
          "name": "G3",
          "ticks": 51360,
          "time": 188.823328,
          "velocity": 0.5511811023622047
        },
        {
          "duration": 1.7426451999999983,
          "durationTicks": 474,
          "midi": 71,
          "name": "B4",
          "ticks": 51360,
          "time": 188.823328,
          "velocity": 0.5511811023622047
        },
        {
          "duration": 1.7426451999999983,
          "durationTicks": 474,
          "midi": 74,
          "name": "D5",
          "ticks": 51360,
          "time": 188.823328,
          "velocity": 0.5511811023622047
        },
        {
          "duration": 1.7426451999999983,
          "durationTicks": 474,
          "midi": 79,
          "name": "G5",
          "ticks": 51360,
          "time": 188.823328,
          "velocity": 0.5511811023622047
        },
        {
          "duration": 0.8823519999999974,
          "durationTicks": 240,
          "midi": 60,
          "name": "C4",
          "ticks": 51840,
          "time": 190.588032,
          "velocity": 0.5590551181102362
        },
        {
          "duration": 0.8345579333333433,
          "durationTicks": 227,
          "midi": 67,
          "name": "G4",
          "ticks": 51840,
          "time": 190.588032,
          "velocity": 0.5590551181102362
        },
        {
          "duration": 0.8823519999999974,
          "durationTicks": 240,
          "midi": 72,
          "name": "C5",
          "ticks": 51840,
          "time": 190.588032,
          "velocity": 0.5590551181102362
        },
        {
          "duration": 0.8823519999999974,
          "durationTicks": 240,
          "midi": 76,
          "name": "E5",
          "ticks": 51840,
          "time": 190.588032,
          "velocity": 0.5590551181102362
        },
        {
          "duration": 0.8823519999999974,
          "durationTicks": 240,
          "midi": 59,
          "name": "B3",
          "ticks": 52080,
          "time": 191.470384,
          "velocity": 0.5590551181102362
        },
        {
          "duration": 0.8823519999999974,
          "durationTicks": 240,
          "midi": 67,
          "name": "G4",
          "ticks": 52080,
          "time": 191.470384,
          "velocity": 0.5590551181102362
        },
        {
          "duration": 0.8823519999999974,
          "durationTicks": 240,
          "midi": 71,
          "name": "B4",
          "ticks": 52080,
          "time": 191.470384,
          "velocity": 0.5590551181102362
        },
        {
          "duration": 0.8823519999999974,
          "durationTicks": 240,
          "midi": 74,
          "name": "D5",
          "ticks": 52080,
          "time": 191.470384,
          "velocity": 0.5590551181102362
        },
        {
          "duration": 1.7426451999999983,
          "durationTicks": 474,
          "midi": 57,
          "name": "A3",
          "ticks": 52320,
          "time": 192.352736,
          "velocity": 0.5590551181102362
        },
        {
          "duration": 1.7426451999999983,
          "durationTicks": 474,
          "midi": 69,
          "name": "A4",
          "ticks": 52320,
          "time": 192.352736,
          "velocity": 0.5590551181102362
        },
        {
          "duration": 1.7426451999999983,
          "durationTicks": 474,
          "midi": 72,
          "name": "C5",
          "ticks": 52320,
          "time": 192.352736,
          "velocity": 0.5590551181102362
        },
        {
          "duration": 1.7647040000000231,
          "durationTicks": 480,
          "midi": 76,
          "name": "E5",
          "ticks": 52320,
          "time": 192.352736,
          "velocity": 0.5590551181102362
        },
        {
          "duration": 1.7426451999999983,
          "durationTicks": 474,
          "midi": 62,
          "name": "D4",
          "ticks": 52800,
          "time": 194.11744000000002,
          "velocity": 0.5511811023622047
        },
        {
          "duration": 1.7426451999999983,
          "durationTicks": 474,
          "midi": 69,
          "name": "A4",
          "ticks": 52800,
          "time": 194.11744000000002,
          "velocity": 0.5511811023622047
        },
        {
          "duration": 1.7426451999999983,
          "durationTicks": 474,
          "midi": 74,
          "name": "D5",
          "ticks": 52800,
          "time": 194.11744000000002,
          "velocity": 0.5511811023622047
        },
        {
          "duration": 1.7426451999999983,
          "durationTicks": 474,
          "midi": 78,
          "name": "F#5",
          "ticks": 52800,
          "time": 194.11744000000002,
          "velocity": 0.5511811023622047
        },
        {
          "duration": 1.7647039999999947,
          "durationTicks": 480,
          "midi": 55,
          "name": "G3",
          "ticks": 53280,
          "time": 195.882144,
          "velocity": 0.5511811023622047
        },
        {
          "duration": 1.7647039999999947,
          "durationTicks": 480,
          "midi": 71,
          "name": "B4",
          "ticks": 53280,
          "time": 195.882144,
          "velocity": 0.5511811023622047
        },
        {
          "duration": 1.7647039999999947,
          "durationTicks": 480,
          "midi": 74,
          "name": "D5",
          "ticks": 53280,
          "time": 195.882144,
          "velocity": 0.5511811023622047
        },
        {
          "duration": 1.7647039999999947,
          "durationTicks": 480,
          "midi": 79,
          "name": "G5",
          "ticks": 53280,
          "time": 195.882144,
          "velocity": 0.5511811023622047
        },
        {
          "duration": 0.8823519999999974,
          "durationTicks": 240,
          "midi": 60,
          "name": "C4",
          "ticks": 53760,
          "time": 197.646848,
          "velocity": 0.5590551181102362
        },
        {
          "duration": 0.8823519999999974,
          "durationTicks": 240,
          "midi": 67,
          "name": "G4",
          "ticks": 53760,
          "time": 197.646848,
          "velocity": 0.5590551181102362
        },
        {
          "duration": 0.8823519999999974,
          "durationTicks": 240,
          "midi": 72,
          "name": "C5",
          "ticks": 53760,
          "time": 197.646848,
          "velocity": 0.5590551181102362
        },
        {
          "duration": 0.8823519999999974,
          "durationTicks": 240,
          "midi": 76,
          "name": "E5",
          "ticks": 53760,
          "time": 197.646848,
          "velocity": 0.5590551181102362
        }
      ],
      "endOfTrackTicks": 54000
    },
    {
      "channel": 8,
      "controlChanges": {
        "1": [
          {
            "number": 1,
            "ticks": 182,
            "time": 0.6691169333333333,
            "value": 0
          }
        ],
        "5": [
          {
            "number": 5,
            "ticks": 231,
            "time": 0.8492638,
            "value": 0
          }
        ],
        "7": [
          {
            "number": 7,
            "ticks": 0,
            "time": 0,
            "value": 0.7165354330708661
          }
        ],
        "10": [
          {
            "number": 10,
            "ticks": 0,
            "time": 0,
            "value": 0.3464566929133858
          }
        ],
        "11": [
          {
            "number": 11,
            "ticks": 157,
            "time": 0.5772052666666667,
            "value": 1
          }
        ],
        "64": [
          {
            "number": 64,
            "ticks": 193,
            "time": 0.7095580666666668,
            "value": 0
          }
        ],
        "65": [
          {
            "number": 65,
            "ticks": 218,
            "time": 0.8014697333333334,
            "value": 0
          }
        ],
        "91": [
          {
            "number": 91,
            "ticks": 13,
            "time": 0.04779406666666667,
            "value": 0.3937007874015748
          }
        ],
        "93": [
          {
            "number": 93,
            "ticks": 120,
            "time": 0.441176,
            "value": 0.15748031496062992
          }
        ],
        "94": [
          {
            "number": 94,
            "ticks": 136,
            "time": 0.49999946666666667,
            "value": 0
          }
        ],
        "121": [
          {
            "number": 121,
            "ticks": 0,
            "time": 0,
            "value": 0
          }
        ]
      },
      "pitchBends": [
        {
          "ticks": 203,
          "time": 0.7463227333333333,
          "value": 0
        },
        {
          "ticks": 46063,
          "time": 169.34908406666668,
          "value": -0.032470703125
        },
        {
          "ticks": 46069,
          "time": 169.37114286666667,
          "value": -0.064697265625
        },
        {
          "ticks": 46075,
          "time": 169.39320166666667,
          "value": -0.129150390625
        },
        {
          "ticks": 46093,
          "time": 169.4593780666667,
          "value": -0.1937255859375
        },
        {
          "ticks": 46106,
          "time": 169.5071721333333,
          "value": -0.2581787109375
        },
        {
          "ticks": 46115,
          "time": 169.54026033333335,
          "value": -0.32275390625
        },
        {
          "ticks": 46121,
          "time": 169.56231913333332,
          "value": -0.38720703125
        },
        {
          "ticks": 46130,
          "time": 169.59540733333336,
          "value": -0.4517822265625
        },
        {
          "ticks": 46133,
          "time": 169.60643673333334,
          "value": -0.5162353515625
        },
        {
          "ticks": 46139,
          "time": 169.62849553333334,
          "value": -0.580810546875
        },
        {
          "ticks": 46142,
          "time": 169.63952493333332,
          "value": -0.645263671875
        },
        {
          "ticks": 46149,
          "time": 169.6652602,
          "value": -0.7742919921875
        },
        {
          "ticks": 46155,
          "time": 169.687319,
          "value": -0.645263671875
        },
        {
          "ticks": 46158,
          "time": 169.6983484,
          "value": -0.5162353515625
        },
        {
          "ticks": 46161,
          "time": 169.7093778,
          "value": -0.2581787109375
        },
        {
          "ticks": 46164,
          "time": 169.7204072,
          "value": 0
        }
      ],
      "instrument": {
        "family": "synth lead",
        "number": 81,
        "name": "lead 2 (sawtooth)"
      },
      "name": "Sawtooth",
      "notes": [
        {
          "duration": 0.19485273333332742,
          "durationTicks": 53,
          "midi": 76,
          "name": "E5",
          "ticks": 12000,
          "time": 44.1176,
          "velocity": 0.84251968503937
        },
        {
          "duration": 0.22058799999999934,
          "durationTicks": 60,
          "midi": 76,
          "name": "E5",
          "ticks": 12060,
          "time": 44.338188,
          "velocity": 0.7086614173228346
        },
        {
          "duration": 0.20588213333333272,
          "durationTicks": 56,
          "midi": 72,
          "name": "C5",
          "ticks": 12120,
          "time": 44.558776,
          "velocity": 0.8188976377952756
        },
        {
          "duration": 0.22058799999999934,
          "durationTicks": 60,
          "midi": 69,
          "name": "A4",
          "ticks": 12180,
          "time": 44.779364,
          "velocity": 0.7401574803149606
        },
        {
          "duration": 0.22058799999999934,
          "durationTicks": 60,
          "midi": 69,
          "name": "A4",
          "ticks": 12300,
          "time": 45.22054,
          "velocity": 0.7322834645669292
        },
        {
          "duration": 0.22058800000000645,
          "durationTicks": 60,
          "midi": 74,
          "name": "D5",
          "ticks": 12420,
          "time": 45.661716,
          "velocity": 0.7165354330708661
        },
        {
          "duration": 0.22058799999999934,
          "durationTicks": 60,
          "midi": 74,
          "name": "D5",
          "ticks": 12540,
          "time": 46.102892000000004,
          "velocity": 0.7401574803149606
        },
        {
          "duration": 0.22058799999999934,
          "durationTicks": 60,
          "midi": 74,
          "name": "D5",
          "ticks": 12660,
          "time": 46.544068,
          "velocity": 0.7165354330708661
        },
        {
          "duration": 0.19485273333332742,
          "durationTicks": 53,
          "midi": 78,
          "name": "F#5",
          "ticks": 12720,
          "time": 46.764656,
          "velocity": 0.8110236220472441
        },
        {
          "duration": 0.22058799999999934,
          "durationTicks": 60,
          "midi": 78,
          "name": "F#5",
          "ticks": 12780,
          "time": 46.985244,
          "velocity": 0.7244094488188977
        },
        {
          "duration": 0.22058799999999934,
          "durationTicks": 60,
          "midi": 79,
          "name": "G5",
          "ticks": 12840,
          "time": 47.205832,
          "velocity": 0.7952755905511811
        },
        {
          "duration": 0.22058799999999934,
          "durationTicks": 60,
          "midi": 81,
          "name": "A5",
          "ticks": 12900,
          "time": 47.42642,
          "velocity": 0.7244094488188977
        },
        {
          "duration": 0.18382333333333634,
          "durationTicks": 50,
          "midi": 79,
          "name": "G5",
          "ticks": 12960,
          "time": 47.647008,
          "velocity": 0.84251968503937
        },
        {
          "duration": 0.18382333333333634,
          "durationTicks": 50,
          "midi": 79,
          "name": "G5",
          "ticks": 13020,
          "time": 47.867596,
          "velocity": 0.7086614173228346
        },
        {
          "duration": 0.22058800000000645,
          "durationTicks": 60,
          "midi": 79,
          "name": "G5",
          "ticks": 13080,
          "time": 48.088184,
          "velocity": 0.8188976377952756
        },
        {
          "duration": 0.22058799999999934,
          "durationTicks": 60,
          "midi": 74,
          "name": "D5",
          "ticks": 13140,
          "time": 48.308772000000005,
          "velocity": 0.7401574803149606
        },
        {
          "duration": 0.22058799999999934,
          "durationTicks": 60,
          "midi": 72,
          "name": "C5",
          "ticks": 13260,
          "time": 48.749948,
          "velocity": 0.7322834645669292
        },
        {
          "duration": 0.22058799999999934,
          "durationTicks": 60,
          "midi": 76,
          "name": "E5",
          "ticks": 13380,
          "time": 49.191124,
          "velocity": 0.7165354330708661
        },
        {
          "duration": 0.22058799999999934,
          "durationTicks": 60,
          "midi": 76,
          "name": "E5",
          "ticks": 13500,
          "time": 49.6323,
          "velocity": 0.7401574803149606
        },
        {
          "duration": 0.22058799999999934,
          "durationTicks": 60,
          "midi": 76,
          "name": "E5",
          "ticks": 13620,
          "time": 50.073476,
          "velocity": 0.7165354330708661
        },
        {
          "duration": 0.1911762666666732,
          "durationTicks": 52,
          "midi": 74,
          "name": "D5",
          "ticks": 13680,
          "time": 50.294064,
          "velocity": 0.8110236220472441
        },
        {
          "duration": 0.22058800000000645,
          "durationTicks": 60,
          "midi": 74,
          "name": "D5",
          "ticks": 13740,
          "time": 50.514652,
          "velocity": 0.7244094488188977
        },
        {
          "duration": 0.22058799999999934,
          "durationTicks": 60,
          "midi": 76,
          "name": "E5",
          "ticks": 13800,
          "time": 50.735240000000005,
          "velocity": 0.7952755905511811
        },
        {
          "duration": 0.22058799999999934,
          "durationTicks": 60,
          "midi": 74,
          "name": "D5",
          "ticks": 13860,
          "time": 50.955828000000004,
          "velocity": 0.7244094488188977
        },
        {
          "duration": 0.19485273333332742,
          "durationTicks": 53,
          "midi": 76,
          "name": "E5",
          "ticks": 13920,
          "time": 51.176416,
          "velocity": 0.84251968503937
        },
        {
          "duration": 0.22058799999999934,
          "durationTicks": 60,
          "midi": 76,
          "name": "E5",
          "ticks": 13980,
          "time": 51.397004,
          "velocity": 0.7086614173228346
        },
        {
          "duration": 0.20588213333333272,
          "durationTicks": 56,
          "midi": 72,
          "name": "C5",
          "ticks": 14040,
          "time": 51.617592,
          "velocity": 0.8188976377952756
        },
        {
          "duration": 0.22058799999999934,
          "durationTicks": 60,
          "midi": 69,
          "name": "A4",
          "ticks": 14100,
          "time": 51.83818,
          "velocity": 0.7401574803149606
        },
        {
          "duration": 0.22058799999999934,
          "durationTicks": 60,
          "midi": 69,
          "name": "A4",
          "ticks": 14220,
          "time": 52.279356,
          "velocity": 0.7322834645669292
        },
        {
          "duration": 0.22058799999999934,
          "durationTicks": 60,
          "midi": 74,
          "name": "D5",
          "ticks": 14340,
          "time": 52.720532,
          "velocity": 0.7165354330708661
        },
        {
          "duration": 0.22058799999999934,
          "durationTicks": 60,
          "midi": 74,
          "name": "D5",
          "ticks": 14460,
          "time": 53.161708000000004,
          "velocity": 0.7401574803149606
        },
        {
          "duration": 0.22058799999999934,
          "durationTicks": 60,
          "midi": 74,
          "name": "D5",
          "ticks": 14580,
          "time": 53.602884,
          "velocity": 0.7165354330708661
        },
        {
          "duration": 0.19485273333332742,
          "durationTicks": 53,
          "midi": 78,
          "name": "F#5",
          "ticks": 14640,
          "time": 53.823472,
          "velocity": 0.8110236220472441
        },
        {
          "duration": 0.22058799999999934,
          "durationTicks": 60,
          "midi": 78,
          "name": "F#5",
          "ticks": 14700,
          "time": 54.04406,
          "velocity": 0.7244094488188977
        },
        {
          "duration": 0.22058799999999934,
          "durationTicks": 60,
          "midi": 79,
          "name": "G5",
          "ticks": 14760,
          "time": 54.264648,
          "velocity": 0.7952755905511811
        },
        {
          "duration": 0.22058799999999934,
          "durationTicks": 60,
          "midi": 81,
          "name": "A5",
          "ticks": 14820,
          "time": 54.485236,
          "velocity": 0.7244094488188977
        },
        {
          "duration": 0.18382333333333634,
          "durationTicks": 50,
          "midi": 79,
          "name": "G5",
          "ticks": 14880,
          "time": 54.705824,
          "velocity": 0.84251968503937
        },
        {
          "duration": 0.18382333333333634,
          "durationTicks": 50,
          "midi": 79,
          "name": "G5",
          "ticks": 14940,
          "time": 54.926412,
          "velocity": 0.7086614173228346
        },
        {
          "duration": 0.22058800000000645,
          "durationTicks": 60,
          "midi": 79,
          "name": "G5",
          "ticks": 15000,
          "time": 55.147,
          "velocity": 0.8188976377952756
        },
        {
          "duration": 0.22058799999999934,
          "durationTicks": 60,
          "midi": 74,
          "name": "D5",
          "ticks": 15060,
          "time": 55.367588000000005,
          "velocity": 0.7401574803149606
        },
        {
          "duration": 0.22058799999999934,
          "durationTicks": 60,
          "midi": 72,
          "name": "C5",
          "ticks": 15180,
          "time": 55.808764000000004,
          "velocity": 0.7322834645669292
        },
        {
          "duration": 0.22058799999999934,
          "durationTicks": 60,
          "midi": 76,
          "name": "E5",
          "ticks": 15300,
          "time": 56.24994,
          "velocity": 0.7165354330708661
        },
        {
          "duration": 0.22058799999999934,
          "durationTicks": 60,
          "midi": 76,
          "name": "E5",
          "ticks": 15420,
          "time": 56.691116,
          "velocity": 0.7401574803149606
        },
        {
          "duration": 0.22058799999999934,
          "durationTicks": 60,
          "midi": 76,
          "name": "E5",
          "ticks": 15540,
          "time": 57.132292,
          "velocity": 0.7165354330708661
        },
        {
          "duration": 0.1911762666666732,
          "durationTicks": 52,
          "midi": 74,
          "name": "D5",
          "ticks": 15600,
          "time": 57.35288,
          "velocity": 0.8110236220472441
        },
        {
          "duration": 0.22058800000000645,
          "durationTicks": 60,
          "midi": 74,
          "name": "D5",
          "ticks": 15660,
          "time": 57.573468,
          "velocity": 0.7244094488188977
        },
        {
          "duration": 0.22058799999999934,
          "durationTicks": 60,
          "midi": 76,
          "name": "E5",
          "ticks": 15720,
          "time": 57.794056000000005,
          "velocity": 0.7952755905511811
        },
        {
          "duration": 0.22058799999999934,
          "durationTicks": 60,
          "midi": 74,
          "name": "D5",
          "ticks": 15780,
          "time": 58.014644000000004,
          "velocity": 0.7244094488188977
        },
        {
          "duration": 0.19485273333332742,
          "durationTicks": 53,
          "midi": 88,
          "name": "E6",
          "ticks": 15840,
          "time": 58.235232,
          "velocity": 0.84251968503937
        },
        {
          "duration": 0.22058799999999934,
          "durationTicks": 60,
          "midi": 88,
          "name": "E6",
          "ticks": 15900,
          "time": 58.45582,
          "velocity": 0.7086614173228346
        },
        {
          "duration": 0.20588213333333272,
          "durationTicks": 56,
          "midi": 84,
          "name": "C6",
          "ticks": 15960,
          "time": 58.676408,
          "velocity": 0.8188976377952756
        },
        {
          "duration": 0.22058799999999934,
          "durationTicks": 60,
          "midi": 81,
          "name": "A5",
          "ticks": 16020,
          "time": 58.896996,
          "velocity": 0.7401574803149606
        },
        {
          "duration": 0.22058799999999934,
          "durationTicks": 60,
          "midi": 81,
          "name": "A5",
          "ticks": 16140,
          "time": 59.338172,
          "velocity": 0.7322834645669292
        },
        {
          "duration": 0.22058800000000645,
          "durationTicks": 60,
          "midi": 86,
          "name": "D6",
          "ticks": 16260,
          "time": 59.779348,
          "velocity": 0.7165354330708661
        },
        {
          "duration": 0.22058799999999934,
          "durationTicks": 60,
          "midi": 86,
          "name": "D6",
          "ticks": 16380,
          "time": 60.220524000000005,
          "velocity": 0.7401574803149606
        },
        {
          "duration": 0.22058799999999934,
          "durationTicks": 60,
          "midi": 86,
          "name": "D6",
          "ticks": 16500,
          "time": 60.6617,
          "velocity": 0.7165354330708661
        },
        {
          "duration": 0.19485273333332742,
          "durationTicks": 53,
          "midi": 90,
          "name": "F#6",
          "ticks": 16560,
          "time": 60.882288,
          "velocity": 0.8110236220472441
        },
        {
          "duration": 0.22058799999999934,
          "durationTicks": 60,
          "midi": 90,
          "name": "F#6",
          "ticks": 16620,
          "time": 61.102876,
          "velocity": 0.7244094488188977
        },
        {
          "duration": 0.22058799999999934,
          "durationTicks": 60,
          "midi": 91,
          "name": "G6",
          "ticks": 16680,
          "time": 61.323464,
          "velocity": 0.7952755905511811
        },
        {
          "duration": 0.22058799999999934,
          "durationTicks": 60,
          "midi": 93,
          "name": "A6",
          "ticks": 16740,
          "time": 61.544052,
          "velocity": 0.7244094488188977
        },
        {
          "duration": 0.18382333333332923,
          "durationTicks": 50,
          "midi": 91,
          "name": "G6",
          "ticks": 16800,
          "time": 61.76464,
          "velocity": 0.84251968503937
        },
        {
          "duration": 0.18382333333332923,
          "durationTicks": 50,
          "midi": 91,
          "name": "G6",
          "ticks": 16860,
          "time": 61.985228,
          "velocity": 0.7086614173228346
        },
        {
          "duration": 0.22058800000000645,
          "durationTicks": 60,
          "midi": 91,
          "name": "G6",
          "ticks": 16920,
          "time": 62.205816,
          "velocity": 0.8188976377952756
        },
        {
          "duration": 0.22058799999999934,
          "durationTicks": 60,
          "midi": 86,
          "name": "D6",
          "ticks": 16980,
          "time": 62.426404000000005,
          "velocity": 0.7401574803149606
        },
        {
          "duration": 0.22058799999999934,
          "durationTicks": 60,
          "midi": 84,
          "name": "C6",
          "ticks": 17100,
          "time": 62.867580000000004,
          "velocity": 0.7322834645669292
        },
        {
          "duration": 0.22058799999999934,
          "durationTicks": 60,
          "midi": 88,
          "name": "E6",
          "ticks": 17220,
          "time": 63.308756,
          "velocity": 0.7165354330708661
        },
        {
          "duration": 0.22058799999999934,
          "durationTicks": 60,
          "midi": 88,
          "name": "E6",
          "ticks": 17340,
          "time": 63.749932,
          "velocity": 0.7401574803149606
        },
        {
          "duration": 0.22058800000000645,
          "durationTicks": 60,
          "midi": 88,
          "name": "E6",
          "ticks": 17460,
          "time": 64.191108,
          "velocity": 0.7165354330708661
        },
        {
          "duration": 0.191176266666659,
          "durationTicks": 52,
          "midi": 86,
          "name": "D6",
          "ticks": 17520,
          "time": 64.411696,
          "velocity": 0.8110236220472441
        },
        {
          "duration": 0.22058800000000645,
          "durationTicks": 60,
          "midi": 86,
          "name": "D6",
          "ticks": 17580,
          "time": 64.632284,
          "velocity": 0.7244094488188977
        },
        {
          "duration": 0.22058799999999223,
          "durationTicks": 60,
          "midi": 88,
          "name": "E6",
          "ticks": 17640,
          "time": 64.852872,
          "velocity": 0.7952755905511811
        },
        {
          "duration": 0.22058800000000645,
          "durationTicks": 60,
          "midi": 86,
          "name": "D6",
          "ticks": 17700,
          "time": 65.07346,
          "velocity": 0.7244094488188977
        },
        {
          "duration": 0.19485273333333453,
          "durationTicks": 53,
          "midi": 88,
          "name": "E6",
          "ticks": 17760,
          "time": 65.294048,
          "velocity": 0.84251968503937
        },
        {
          "duration": 0.22058800000000645,
          "durationTicks": 60,
          "midi": 88,
          "name": "E6",
          "ticks": 17820,
          "time": 65.514636,
          "velocity": 0.7086614173228346
        },
        {
          "duration": 0.20588213333333272,
          "durationTicks": 56,
          "midi": 84,
          "name": "C6",
          "ticks": 17880,
          "time": 65.735224,
          "velocity": 0.8188976377952756
        },
        {
          "duration": 0.22058799999999223,
          "durationTicks": 60,
          "midi": 81,
          "name": "A5",
          "ticks": 17940,
          "time": 65.95581200000001,
          "velocity": 0.7401574803149606
        },
        {
          "duration": 0.22058799999999223,
          "durationTicks": 60,
          "midi": 81,
          "name": "A5",
          "ticks": 18060,
          "time": 66.39698800000001,
          "velocity": 0.7322834645669292
        },
        {
          "duration": 0.22058799999999223,
          "durationTicks": 60,
          "midi": 86,
          "name": "D6",
          "ticks": 18180,
          "time": 66.838164,
          "velocity": 0.7165354330708661
        },
        {
          "duration": 0.22058799999999223,
          "durationTicks": 60,
          "midi": 86,
          "name": "D6",
          "ticks": 18300,
          "time": 67.27934,
          "velocity": 0.7401574803149606
        },
        {
          "duration": 0.22058799999999223,
          "durationTicks": 60,
          "midi": 86,
          "name": "D6",
          "ticks": 18420,
          "time": 67.720516,
          "velocity": 0.7165354330708661
        },
        {
          "duration": 0.19485273333333453,
          "durationTicks": 53,
          "midi": 90,
          "name": "F#6",
          "ticks": 18480,
          "time": 67.941104,
          "velocity": 0.8110236220472441
        },
        {
          "duration": 0.22058800000000645,
          "durationTicks": 60,
          "midi": 90,
          "name": "F#6",
          "ticks": 18540,
          "time": 68.161692,
          "velocity": 0.7244094488188977
        },
        {
          "duration": 0.22058799999999223,
          "durationTicks": 60,
          "midi": 91,
          "name": "G6",
          "ticks": 18600,
          "time": 68.38228000000001,
          "velocity": 0.7952755905511811
        },
        {
          "duration": 0.22058800000000645,
          "durationTicks": 60,
          "midi": 93,
          "name": "A6",
          "ticks": 18660,
          "time": 68.602868,
          "velocity": 0.7244094488188977
        },
        {
          "duration": 0.18382333333332213,
          "durationTicks": 50,
          "midi": 91,
          "name": "G6",
          "ticks": 18720,
          "time": 68.82345600000001,
          "velocity": 0.84251968503937
        },
        {
          "duration": 0.18382333333333634,
          "durationTicks": 50,
          "midi": 91,
          "name": "G6",
          "ticks": 18780,
          "time": 69.044044,
          "velocity": 0.7086614173228346
        },
        {
          "duration": 0.22058799999999223,
          "durationTicks": 60,
          "midi": 91,
          "name": "G6",
          "ticks": 18840,
          "time": 69.264632,
          "velocity": 0.8188976377952756
        },
        {
          "duration": 0.22058800000000645,
          "durationTicks": 60,
          "midi": 86,
          "name": "D6",
          "ticks": 18900,
          "time": 69.48522,
          "velocity": 0.7401574803149606
        },
        {
          "duration": 0.22058800000000645,
          "durationTicks": 60,
          "midi": 84,
          "name": "C6",
          "ticks": 19020,
          "time": 69.926396,
          "velocity": 0.7322834645669292
        },
        {
          "duration": 0.22058800000000645,
          "durationTicks": 60,
          "midi": 88,
          "name": "E6",
          "ticks": 19140,
          "time": 70.367572,
          "velocity": 0.7165354330708661
        },
        {
          "duration": 0.19485273333333453,
          "durationTicks": 53,
          "midi": 76,
          "name": "E5",
          "ticks": 31200,
          "time": 114.70576,
          "velocity": 0.6456692913385826
        },
        {
          "duration": 0.22058799999999223,
          "durationTicks": 60,
          "midi": 76,
          "name": "E5",
          "ticks": 31260,
          "time": 114.926348,
          "velocity": 0.5118110236220472
        },
        {
          "duration": 0.20588213333333272,
          "durationTicks": 56,
          "midi": 72,
          "name": "C5",
          "ticks": 31320,
          "time": 115.146936,
          "velocity": 0.6299212598425197
        },
        {
          "duration": 0.22058800000000645,
          "durationTicks": 60,
          "midi": 69,
          "name": "A4",
          "ticks": 31380,
          "time": 115.367524,
          "velocity": 0.5354330708661418
        },
        {
          "duration": 0.22058800000000645,
          "durationTicks": 60,
          "midi": 69,
          "name": "A4",
          "ticks": 31500,
          "time": 115.8087,
          "velocity": 0.5354330708661418
        },
        {
          "duration": 0.22058800000000645,
          "durationTicks": 60,
          "midi": 74,
          "name": "D5",
          "ticks": 31620,
          "time": 116.249876,
          "velocity": 0.5118110236220472
        },
        {
          "duration": 0.22058800000000645,
          "durationTicks": 60,
          "midi": 74,
          "name": "D5",
          "ticks": 31740,
          "time": 116.691052,
          "velocity": 0.5433070866141733
        },
        {
          "duration": 0.22058800000000645,
          "durationTicks": 60,
          "midi": 74,
          "name": "D5",
          "ticks": 31860,
          "time": 117.132228,
          "velocity": 0.5196850393700787
        },
        {
          "duration": 0.19485273333333453,
          "durationTicks": 53,
          "midi": 78,
          "name": "F#5",
          "ticks": 31920,
          "time": 117.352816,
          "velocity": 0.6299212598425197
        },
        {
          "duration": 0.22058800000000645,
          "durationTicks": 60,
          "midi": 78,
          "name": "F#5",
          "ticks": 31980,
          "time": 117.573404,
          "velocity": 0.5275590551181102
        },
        {
          "duration": 0.22058800000000645,
          "durationTicks": 60,
          "midi": 79,
          "name": "G5",
          "ticks": 32040,
          "time": 117.793992,
          "velocity": 0.6141732283464567
        },
        {
          "duration": 0.22058799999999223,
          "durationTicks": 60,
          "midi": 81,
          "name": "A5",
          "ticks": 32100,
          "time": 118.01458000000001,
          "velocity": 0.5275590551181102
        },
        {
          "duration": 0.18382333333335055,
          "durationTicks": 50,
          "midi": 79,
          "name": "G5",
          "ticks": 32160,
          "time": 118.235168,
          "velocity": 0.6614173228346457
        },
        {
          "duration": 0.18382333333333634,
          "durationTicks": 50,
          "midi": 79,
          "name": "G5",
          "ticks": 32220,
          "time": 118.45575600000001,
          "velocity": 0.5275590551181102
        },
        {
          "duration": 0.22058800000000645,
          "durationTicks": 60,
          "midi": 79,
          "name": "G5",
          "ticks": 32280,
          "time": 118.676344,
          "velocity": 0.6377952755905512
        },
        {
          "duration": 0.22058799999999223,
          "durationTicks": 60,
          "midi": 74,
          "name": "D5",
          "ticks": 32340,
          "time": 118.896932,
          "velocity": 0.5511811023622047
        },
        {
          "duration": 0.22058799999999223,
          "durationTicks": 60,
          "midi": 72,
          "name": "C5",
          "ticks": 32460,
          "time": 119.338108,
          "velocity": 0.5511811023622047
        },
        {
          "duration": 0.22058800000000645,
          "durationTicks": 60,
          "midi": 76,
          "name": "E5",
          "ticks": 32580,
          "time": 119.779284,
          "velocity": 0.5433070866141733
        },
        {
          "duration": 0.22058800000000645,
          "durationTicks": 60,
          "midi": 76,
          "name": "E5",
          "ticks": 32700,
          "time": 120.22046,
          "velocity": 0.5669291338582677
        },
        {
          "duration": 0.22058800000000645,
          "durationTicks": 60,
          "midi": 76,
          "name": "E5",
          "ticks": 32820,
          "time": 120.661636,
          "velocity": 0.5590551181102362
        },
        {
          "duration": 0.191176266666659,
          "durationTicks": 52,
          "midi": 74,
          "name": "D5",
          "ticks": 32880,
          "time": 120.88222400000001,
          "velocity": 0.6535433070866141
        },
        {
          "duration": 0.22058800000000645,
          "durationTicks": 60,
          "midi": 74,
          "name": "D5",
          "ticks": 32940,
          "time": 121.102812,
          "velocity": 0.5669291338582677
        },
        {
          "duration": 0.22058799999999223,
          "durationTicks": 60,
          "midi": 76,
          "name": "E5",
          "ticks": 33000,
          "time": 121.3234,
          "velocity": 0.6456692913385826
        },
        {
          "duration": 0.22058800000000645,
          "durationTicks": 60,
          "midi": 74,
          "name": "D5",
          "ticks": 33060,
          "time": 121.543988,
          "velocity": 0.5748031496062992
        },
        {
          "duration": 0.19485273333333453,
          "durationTicks": 53,
          "midi": 76,
          "name": "E5",
          "ticks": 33120,
          "time": 121.764576,
          "velocity": 0.6929133858267716
        },
        {
          "duration": 0.22058800000000645,
          "durationTicks": 60,
          "midi": 76,
          "name": "E5",
          "ticks": 33180,
          "time": 121.985164,
          "velocity": 0.5669291338582677
        },
        {
          "duration": 0.2058821333333185,
          "durationTicks": 56,
          "midi": 72,
          "name": "C5",
          "ticks": 33240,
          "time": 122.205752,
          "velocity": 0.6771653543307087
        },
        {
          "duration": 0.22058799999999223,
          "durationTicks": 60,
          "midi": 69,
          "name": "A4",
          "ticks": 33300,
          "time": 122.42634000000001,
          "velocity": 0.5905511811023622
        },
        {
          "duration": 0.22058799999999223,
          "durationTicks": 60,
          "midi": 69,
          "name": "A4",
          "ticks": 33420,
          "time": 122.86751600000001,
          "velocity": 0.6062992125984252
        },
        {
          "duration": 0.22058799999999223,
          "durationTicks": 60,
          "midi": 74,
          "name": "D5",
          "ticks": 33540,
          "time": 123.30869200000001,
          "velocity": 0.5905511811023622
        },
        {
          "duration": 0.22058799999999223,
          "durationTicks": 60,
          "midi": 74,
          "name": "D5",
          "ticks": 33660,
          "time": 123.749868,
          "velocity": 0.6220472440944882
        },
        {
          "duration": 0.22058799999999223,
          "durationTicks": 60,
          "midi": 74,
          "name": "D5",
          "ticks": 33780,
          "time": 124.191044,
          "velocity": 0.6141732283464567
        },
        {
          "duration": 0.19485273333333453,
          "durationTicks": 53,
          "midi": 78,
          "name": "F#5",
          "ticks": 33840,
          "time": 124.411632,
          "velocity": 0.7165354330708661
        },
        {
          "duration": 0.22058800000000645,
          "durationTicks": 60,
          "midi": 78,
          "name": "F#5",
          "ticks": 33900,
          "time": 124.63222,
          "velocity": 0.6220472440944882
        },
        {
          "duration": 0.22058799999999223,
          "durationTicks": 60,
          "midi": 79,
          "name": "G5",
          "ticks": 33960,
          "time": 124.85280800000001,
          "velocity": 0.7007874015748031
        },
        {
          "duration": 0.22058800000000645,
          "durationTicks": 60,
          "midi": 81,
          "name": "A5",
          "ticks": 34020,
          "time": 125.073396,
          "velocity": 0.6377952755905512
        },
        {
          "duration": 0.18382333333333634,
          "durationTicks": 50,
          "midi": 79,
          "name": "G5",
          "ticks": 34080,
          "time": 125.29398400000001,
          "velocity": 0.7559055118110236
        },
        {
          "duration": 0.18382333333335055,
          "durationTicks": 50,
          "midi": 79,
          "name": "G5",
          "ticks": 34140,
          "time": 125.514572,
          "velocity": 0.6220472440944882
        },
        {
          "duration": 0.22058799999999223,
          "durationTicks": 60,
          "midi": 79,
          "name": "G5",
          "ticks": 34200,
          "time": 125.73516000000001,
          "velocity": 0.7401574803149606
        },
        {
          "duration": 0.22058800000000645,
          "durationTicks": 60,
          "midi": 74,
          "name": "D5",
          "ticks": 34260,
          "time": 125.955748,
          "velocity": 0.6614173228346457
        },
        {
          "duration": 0.22058800000000645,
          "durationTicks": 60,
          "midi": 72,
          "name": "C5",
          "ticks": 34380,
          "time": 126.396924,
          "velocity": 0.6771653543307087
        },
        {
          "duration": 0.22058800000000645,
          "durationTicks": 60,
          "midi": 76,
          "name": "E5",
          "ticks": 34500,
          "time": 126.8381,
          "velocity": 0.6692913385826772
        },
        {
          "duration": 0.22058799999999223,
          "durationTicks": 60,
          "midi": 76,
          "name": "E5",
          "ticks": 34620,
          "time": 127.27927600000001,
          "velocity": 0.7086614173228346
        },
        {
          "duration": 0.22058799999999223,
          "durationTicks": 60,
          "midi": 76,
          "name": "E5",
          "ticks": 34740,
          "time": 127.72045200000001,
          "velocity": 0.6929133858267716
        },
        {
          "duration": 0.19485273333333453,
          "durationTicks": 53,
          "midi": 88,
          "name": "E6",
          "ticks": 35040,
          "time": 128.823392,
          "velocity": 0.84251968503937
        },
        {
          "duration": 0.22058799999999223,
          "durationTicks": 60,
          "midi": 88,
          "name": "E6",
          "ticks": 35100,
          "time": 129.04398,
          "velocity": 0.7086614173228346
        },
        {
          "duration": 0.2058821333333185,
          "durationTicks": 56,
          "midi": 84,
          "name": "C6",
          "ticks": 35160,
          "time": 129.264568,
          "velocity": 0.8188976377952756
        },
        {
          "duration": 0.22058799999999223,
          "durationTicks": 60,
          "midi": 81,
          "name": "A5",
          "ticks": 35220,
          "time": 129.48515600000002,
          "velocity": 0.7401574803149606
        },
        {
          "duration": 0.22058799999999223,
          "durationTicks": 60,
          "midi": 81,
          "name": "A5",
          "ticks": 35340,
          "time": 129.926332,
          "velocity": 0.7322834645669292
        },
        {
          "duration": 0.22058799999999223,
          "durationTicks": 60,
          "midi": 86,
          "name": "D6",
          "ticks": 35460,
          "time": 130.36750800000002,
          "velocity": 0.7165354330708661
        },
        {
          "duration": 0.22058799999999223,
          "durationTicks": 60,
          "midi": 86,
          "name": "D6",
          "ticks": 35580,
          "time": 130.808684,
          "velocity": 0.7401574803149606
        },
        {
          "duration": 0.22058799999999223,
          "durationTicks": 60,
          "midi": 86,
          "name": "D6",
          "ticks": 35700,
          "time": 131.24986,
          "velocity": 0.7165354330708661
        },
        {
          "duration": 0.19485273333333453,
          "durationTicks": 53,
          "midi": 90,
          "name": "F#6",
          "ticks": 35760,
          "time": 131.470448,
          "velocity": 0.8110236220472441
        },
        {
          "duration": 0.22058800000002066,
          "durationTicks": 60,
          "midi": 90,
          "name": "F#6",
          "ticks": 35820,
          "time": 131.691036,
          "velocity": 0.7244094488188977
        },
        {
          "duration": 0.22058799999999223,
          "durationTicks": 60,
          "midi": 91,
          "name": "G6",
          "ticks": 35880,
          "time": 131.91162400000002,
          "velocity": 0.7952755905511811
        },
        {
          "duration": 0.22058799999999223,
          "durationTicks": 60,
          "midi": 93,
          "name": "A6",
          "ticks": 35940,
          "time": 132.132212,
          "velocity": 0.7244094488188977
        },
        {
          "duration": 0.18382333333335055,
          "durationTicks": 50,
          "midi": 91,
          "name": "G6",
          "ticks": 36000,
          "time": 132.3528,
          "velocity": 0.84251968503937
        },
        {
          "duration": 0.18382333333335055,
          "durationTicks": 50,
          "midi": 91,
          "name": "G6",
          "ticks": 36060,
          "time": 132.573388,
          "velocity": 0.7086614173228346
        },
        {
          "duration": 0.22058799999999223,
          "durationTicks": 60,
          "midi": 91,
          "name": "G6",
          "ticks": 36120,
          "time": 132.79397600000001,
          "velocity": 0.8188976377952756
        },
        {
          "duration": 0.22058799999999223,
          "durationTicks": 60,
          "midi": 86,
          "name": "D6",
          "ticks": 36180,
          "time": 133.014564,
          "velocity": 0.7401574803149606
        },
        {
          "duration": 0.22058800000002066,
          "durationTicks": 60,
          "midi": 84,
          "name": "C6",
          "ticks": 36300,
          "time": 133.45574,
          "velocity": 0.7322834645669292
        },
        {
          "duration": 0.22058799999999223,
          "durationTicks": 60,
          "midi": 88,
          "name": "E6",
          "ticks": 36420,
          "time": 133.896916,
          "velocity": 0.7165354330708661
        },
        {
          "duration": 0.22058799999999223,
          "durationTicks": 60,
          "midi": 88,
          "name": "E6",
          "ticks": 36540,
          "time": 134.33809200000002,
          "velocity": 0.7401574803149606
        },
        {
          "duration": 0.22058799999999223,
          "durationTicks": 60,
          "midi": 88,
          "name": "E6",
          "ticks": 36660,
          "time": 134.779268,
          "velocity": 0.7165354330708661
        },
        {
          "duration": 0.1911762666666732,
          "durationTicks": 52,
          "midi": 86,
          "name": "D6",
          "ticks": 36720,
          "time": 134.999856,
          "velocity": 0.8110236220472441
        },
        {
          "duration": 0.22058799999999223,
          "durationTicks": 60,
          "midi": 86,
          "name": "D6",
          "ticks": 36780,
          "time": 135.22044400000001,
          "velocity": 0.7244094488188977
        },
        {
          "duration": 0.22058799999999223,
          "durationTicks": 60,
          "midi": 88,
          "name": "E6",
          "ticks": 36840,
          "time": 135.441032,
          "velocity": 0.7952755905511811
        },
        {
          "duration": 0.22058799999999223,
          "durationTicks": 60,
          "midi": 86,
          "name": "D6",
          "ticks": 36900,
          "time": 135.66162,
          "velocity": 0.7244094488188977
        },
        {
          "duration": 0.19485273333333453,
          "durationTicks": 53,
          "midi": 88,
          "name": "E6",
          "ticks": 36960,
          "time": 135.882208,
          "velocity": 0.84251968503937
        },
        {
          "duration": 0.22058799999999223,
          "durationTicks": 60,
          "midi": 88,
          "name": "E6",
          "ticks": 37020,
          "time": 136.102796,
          "velocity": 0.7086614173228346
        },
        {
          "duration": 0.2058821333333185,
          "durationTicks": 56,
          "midi": 84,
          "name": "C6",
          "ticks": 37080,
          "time": 136.323384,
          "velocity": 0.8188976377952756
        },
        {
          "duration": 0.22058800000002066,
          "durationTicks": 60,
          "midi": 81,
          "name": "A5",
          "ticks": 37140,
          "time": 136.543972,
          "velocity": 0.7401574803149606
        },
        {
          "duration": 0.22058799999999223,
          "durationTicks": 60,
          "midi": 81,
          "name": "A5",
          "ticks": 37260,
          "time": 136.985148,
          "velocity": 0.7322834645669292
        },
        {
          "duration": 0.22058800000002066,
          "durationTicks": 60,
          "midi": 86,
          "name": "D6",
          "ticks": 37380,
          "time": 137.426324,
          "velocity": 0.7165354330708661
        },
        {
          "duration": 0.22058799999999223,
          "durationTicks": 60,
          "midi": 86,
          "name": "D6",
          "ticks": 37500,
          "time": 137.8675,
          "velocity": 0.7401574803149606
        },
        {
          "duration": 0.22058800000002066,
          "durationTicks": 60,
          "midi": 86,
          "name": "D6",
          "ticks": 37620,
          "time": 138.308676,
          "velocity": 0.7165354330708661
        },
        {
          "duration": 0.19485273333333453,
          "durationTicks": 53,
          "midi": 90,
          "name": "F#6",
          "ticks": 37680,
          "time": 138.529264,
          "velocity": 0.8110236220472441
        },
        {
          "duration": 0.22058799999999223,
          "durationTicks": 60,
          "midi": 90,
          "name": "F#6",
          "ticks": 37740,
          "time": 138.749852,
          "velocity": 0.7244094488188977
        },
        {
          "duration": 0.22058800000002066,
          "durationTicks": 60,
          "midi": 91,
          "name": "G6",
          "ticks": 37800,
          "time": 138.97044,
          "velocity": 0.7952755905511811
        },
        {
          "duration": 0.22058799999999223,
          "durationTicks": 60,
          "midi": 93,
          "name": "A6",
          "ticks": 37860,
          "time": 139.19102800000002,
          "velocity": 0.7244094488188977
        },
        {
          "duration": 0.18382333333335055,
          "durationTicks": 50,
          "midi": 91,
          "name": "G6",
          "ticks": 37920,
          "time": 139.411616,
          "velocity": 0.84251968503937
        },
        {
          "duration": 0.18382333333335055,
          "durationTicks": 50,
          "midi": 91,
          "name": "G6",
          "ticks": 37980,
          "time": 139.632204,
          "velocity": 0.7086614173228346
        },
        {
          "duration": 0.22058800000002066,
          "durationTicks": 60,
          "midi": 91,
          "name": "G6",
          "ticks": 38040,
          "time": 139.852792,
          "velocity": 0.8188976377952756
        },
        {
          "duration": 0.22058799999999223,
          "durationTicks": 60,
          "midi": 86,
          "name": "D6",
          "ticks": 38100,
          "time": 140.07338000000001,
          "velocity": 0.7401574803149606
        },
        {
          "duration": 0.22058799999999223,
          "durationTicks": 60,
          "midi": 84,
          "name": "C6",
          "ticks": 38220,
          "time": 140.514556,
          "velocity": 0.7322834645669292
        },
        {
          "duration": 0.22058799999999223,
          "durationTicks": 60,
          "midi": 88,
          "name": "E6",
          "ticks": 38340,
          "time": 140.955732,
          "velocity": 0.7165354330708661
        },
        {
          "duration": 0.19485273333333453,
          "durationTicks": 53,
          "midi": 76,
          "name": "E5",
          "ticks": 44640,
          "time": 164.117472,
          "velocity": 0.6456692913385826
        },
        {
          "duration": 0.22058799999999223,
          "durationTicks": 60,
          "midi": 76,
          "name": "E5",
          "ticks": 44700,
          "time": 164.33806,
          "velocity": 0.5118110236220472
        },
        {
          "duration": 0.2058821333333185,
          "durationTicks": 56,
          "midi": 72,
          "name": "C5",
          "ticks": 44760,
          "time": 164.558648,
          "velocity": 0.6299212598425197
        },
        {
          "duration": 0.22058800000002066,
          "durationTicks": 60,
          "midi": 69,
          "name": "A4",
          "ticks": 44820,
          "time": 164.779236,
          "velocity": 0.5354330708661418
        },
        {
          "duration": 0.22058799999999223,
          "durationTicks": 60,
          "midi": 69,
          "name": "A4",
          "ticks": 44940,
          "time": 165.220412,
          "velocity": 0.5354330708661418
        },
        {
          "duration": 0.22058800000002066,
          "durationTicks": 60,
          "midi": 74,
          "name": "D5",
          "ticks": 45060,
          "time": 165.661588,
          "velocity": 0.5118110236220472
        },
        {
          "duration": 0.22058799999999223,
          "durationTicks": 60,
          "midi": 74,
          "name": "D5",
          "ticks": 45180,
          "time": 166.102764,
          "velocity": 0.5433070866141733
        },
        {
          "duration": 0.22058800000002066,
          "durationTicks": 60,
          "midi": 74,
          "name": "D5",
          "ticks": 45300,
          "time": 166.54394,
          "velocity": 0.5196850393700787
        },
        {
          "duration": 0.19485273333333453,
          "durationTicks": 53,
          "midi": 78,
          "name": "F#5",
          "ticks": 45360,
          "time": 166.764528,
          "velocity": 0.6299212598425197
        },
        {
          "duration": 0.22058799999999223,
          "durationTicks": 60,
          "midi": 78,
          "name": "F#5",
          "ticks": 45420,
          "time": 166.985116,
          "velocity": 0.5275590551181102
        },
        {
          "duration": 0.22058800000002066,
          "durationTicks": 60,
          "midi": 79,
          "name": "G5",
          "ticks": 45480,
          "time": 167.205704,
          "velocity": 0.6141732283464567
        },
        {
          "duration": 0.22058799999999223,
          "durationTicks": 60,
          "midi": 81,
          "name": "A5",
          "ticks": 45540,
          "time": 167.42629200000002,
          "velocity": 0.5275590551181102
        },
        {
          "duration": 0.18382333333335055,
          "durationTicks": 50,
          "midi": 79,
          "name": "G5",
          "ticks": 45600,
          "time": 167.64688,
          "velocity": 0.6614173228346457
        },
        {
          "duration": 0.18382333333335055,
          "durationTicks": 50,
          "midi": 79,
          "name": "G5",
          "ticks": 45660,
          "time": 167.867468,
          "velocity": 0.5275590551181102
        },
        {
          "duration": 0.22058800000002066,
          "durationTicks": 60,
          "midi": 79,
          "name": "G5",
          "ticks": 45720,
          "time": 168.088056,
          "velocity": 0.6377952755905512
        },
        {
          "duration": 0.22058799999999223,
          "durationTicks": 60,
          "midi": 74,
          "name": "D5",
          "ticks": 45780,
          "time": 168.30864400000002,
          "velocity": 0.5511811023622047
        },
        {
          "duration": 0.22058799999999223,
          "durationTicks": 60,
          "midi": 72,
          "name": "C5",
          "ticks": 45900,
          "time": 168.74982,
          "velocity": 0.5511811023622047
        },
        {
          "duration": 0.4669112666666706,
          "durationTicks": 127,
          "midi": 76,
          "name": "E5",
          "ticks": 46020,
          "time": 169.190996,
          "velocity": 0.5433070866141733
        },
        {
          "duration": 0.19485273333333453,
          "durationTicks": 53,
          "midi": 76,
          "name": "E5",
          "ticks": 50400,
          "time": 185.29392,
          "velocity": 0.6456692913385826
        },
        {
          "duration": 0.22058799999999223,
          "durationTicks": 60,
          "midi": 76,
          "name": "E5",
          "ticks": 50460,
          "time": 185.514508,
          "velocity": 0.5118110236220472
        },
        {
          "duration": 0.2058821333333185,
          "durationTicks": 56,
          "midi": 72,
          "name": "C5",
          "ticks": 50520,
          "time": 185.735096,
          "velocity": 0.6299212598425197
        },
        {
          "duration": 0.22058799999999223,
          "durationTicks": 60,
          "midi": 69,
          "name": "A4",
          "ticks": 50580,
          "time": 185.95568400000002,
          "velocity": 0.5354330708661418
        },
        {
          "duration": 0.22058799999999223,
          "durationTicks": 60,
          "midi": 69,
          "name": "A4",
          "ticks": 50700,
          "time": 186.39686,
          "velocity": 0.5354330708661418
        },
        {
          "duration": 0.22058799999999223,
          "durationTicks": 60,
          "midi": 74,
          "name": "D5",
          "ticks": 50820,
          "time": 186.83803600000002,
          "velocity": 0.5118110236220472
        },
        {
          "duration": 0.22058799999999223,
          "durationTicks": 60,
          "midi": 74,
          "name": "D5",
          "ticks": 50940,
          "time": 187.279212,
          "velocity": 0.5433070866141733
        },
        {
          "duration": 0.22058799999999223,
          "durationTicks": 60,
          "midi": 74,
          "name": "D5",
          "ticks": 51060,
          "time": 187.720388,
          "velocity": 0.5196850393700787
        },
        {
          "duration": 0.19485273333333453,
          "durationTicks": 53,
          "midi": 78,
          "name": "F#5",
          "ticks": 51120,
          "time": 187.940976,
          "velocity": 0.6299212598425197
        },
        {
          "duration": 0.22058800000002066,
          "durationTicks": 60,
          "midi": 78,
          "name": "F#5",
          "ticks": 51180,
          "time": 188.161564,
          "velocity": 0.5275590551181102
        },
        {
          "duration": 0.22058799999999223,
          "durationTicks": 60,
          "midi": 79,
          "name": "G5",
          "ticks": 51240,
          "time": 188.38215200000002,
          "velocity": 0.6141732283464567
        },
        {
          "duration": 0.22058799999999223,
          "durationTicks": 60,
          "midi": 81,
          "name": "A5",
          "ticks": 51300,
          "time": 188.60274,
          "velocity": 0.5275590551181102
        },
        {
          "duration": 0.18382333333335055,
          "durationTicks": 50,
          "midi": 79,
          "name": "G5",
          "ticks": 51360,
          "time": 188.823328,
          "velocity": 0.6614173228346457
        },
        {
          "duration": 0.18382333333335055,
          "durationTicks": 50,
          "midi": 79,
          "name": "G5",
          "ticks": 51420,
          "time": 189.043916,
          "velocity": 0.5275590551181102
        },
        {
          "duration": 0.22058799999999223,
          "durationTicks": 60,
          "midi": 79,
          "name": "G5",
          "ticks": 51480,
          "time": 189.26450400000002,
          "velocity": 0.6377952755905512
        },
        {
          "duration": 0.22058799999999223,
          "durationTicks": 60,
          "midi": 74,
          "name": "D5",
          "ticks": 51540,
          "time": 189.485092,
          "velocity": 0.5511811023622047
        },
        {
          "duration": 0.22058800000002066,
          "durationTicks": 60,
          "midi": 72,
          "name": "C5",
          "ticks": 51660,
          "time": 189.926268,
          "velocity": 0.5511811023622047
        },
        {
          "duration": 0.22058799999999223,
          "durationTicks": 60,
          "midi": 76,
          "name": "E5",
          "ticks": 51780,
          "time": 190.367444,
          "velocity": 0.5433070866141733
        },
        {
          "duration": 0.22058799999999223,
          "durationTicks": 60,
          "midi": 76,
          "name": "E5",
          "ticks": 51900,
          "time": 190.80862000000002,
          "velocity": 0.5669291338582677
        },
        {
          "duration": 0.22058799999999223,
          "durationTicks": 60,
          "midi": 76,
          "name": "E5",
          "ticks": 52020,
          "time": 191.249796,
          "velocity": 0.5590551181102362
        },
        {
          "duration": 0.1911762666666732,
          "durationTicks": 52,
          "midi": 74,
          "name": "D5",
          "ticks": 52080,
          "time": 191.470384,
          "velocity": 0.6535433070866141
        },
        {
          "duration": 0.22058799999999223,
          "durationTicks": 60,
          "midi": 74,
          "name": "D5",
          "ticks": 52140,
          "time": 191.69097200000002,
          "velocity": 0.5669291338582677
        },
        {
          "duration": 0.22058799999999223,
          "durationTicks": 60,
          "midi": 76,
          "name": "E5",
          "ticks": 52200,
          "time": 191.91156,
          "velocity": 0.6456692913385826
        },
        {
          "duration": 0.22058799999999223,
          "durationTicks": 60,
          "midi": 74,
          "name": "D5",
          "ticks": 52260,
          "time": 192.132148,
          "velocity": 0.5748031496062992
        },
        {
          "duration": 0.19485273333333453,
          "durationTicks": 53,
          "midi": 76,
          "name": "E5",
          "ticks": 52320,
          "time": 192.352736,
          "velocity": 0.6929133858267716
        },
        {
          "duration": 0.22058799999999223,
          "durationTicks": 60,
          "midi": 76,
          "name": "E5",
          "ticks": 52380,
          "time": 192.573324,
          "velocity": 0.5669291338582677
        },
        {
          "duration": 0.2058821333333185,
          "durationTicks": 56,
          "midi": 72,
          "name": "C5",
          "ticks": 52440,
          "time": 192.793912,
          "velocity": 0.6771653543307087
        },
        {
          "duration": 0.22058800000002066,
          "durationTicks": 60,
          "midi": 69,
          "name": "A4",
          "ticks": 52500,
          "time": 193.0145,
          "velocity": 0.5905511811023622
        },
        {
          "duration": 0.22058799999999223,
          "durationTicks": 60,
          "midi": 69,
          "name": "A4",
          "ticks": 52620,
          "time": 193.455676,
          "velocity": 0.6062992125984252
        },
        {
          "duration": 0.22058800000002066,
          "durationTicks": 60,
          "midi": 74,
          "name": "D5",
          "ticks": 52740,
          "time": 193.896852,
          "velocity": 0.5905511811023622
        },
        {
          "duration": 0.22058799999999223,
          "durationTicks": 60,
          "midi": 74,
          "name": "D5",
          "ticks": 52860,
          "time": 194.338028,
          "velocity": 0.6220472440944882
        },
        {
          "duration": 0.22058800000002066,
          "durationTicks": 60,
          "midi": 74,
          "name": "D5",
          "ticks": 52980,
          "time": 194.779204,
          "velocity": 0.6141732283464567
        },
        {
          "duration": 0.19485273333333453,
          "durationTicks": 53,
          "midi": 78,
          "name": "F#5",
          "ticks": 53040,
          "time": 194.999792,
          "velocity": 0.7165354330708661
        },
        {
          "duration": 0.22058799999999223,
          "durationTicks": 60,
          "midi": 78,
          "name": "F#5",
          "ticks": 53100,
          "time": 195.22038,
          "velocity": 0.6220472440944882
        },
        {
          "duration": 0.22058800000002066,
          "durationTicks": 60,
          "midi": 79,
          "name": "G5",
          "ticks": 53160,
          "time": 195.440968,
          "velocity": 0.7007874015748031
        },
        {
          "duration": 0.22058799999999223,
          "durationTicks": 60,
          "midi": 81,
          "name": "A5",
          "ticks": 53220,
          "time": 195.66155600000002,
          "velocity": 0.6377952755905512
        },
        {
          "duration": 0.18382333333335055,
          "durationTicks": 50,
          "midi": 79,
          "name": "G5",
          "ticks": 53280,
          "time": 195.882144,
          "velocity": 0.7559055118110236
        },
        {
          "duration": 0.18382333333335055,
          "durationTicks": 50,
          "midi": 79,
          "name": "G5",
          "ticks": 53340,
          "time": 196.102732,
          "velocity": 0.6220472440944882
        },
        {
          "duration": 0.22058800000002066,
          "durationTicks": 60,
          "midi": 79,
          "name": "G5",
          "ticks": 53400,
          "time": 196.32332,
          "velocity": 0.7401574803149606
        },
        {
          "duration": 0.22058799999999223,
          "durationTicks": 60,
          "midi": 74,
          "name": "D5",
          "ticks": 53460,
          "time": 196.54390800000002,
          "velocity": 0.6614173228346457
        },
        {
          "duration": 0.22058799999999223,
          "durationTicks": 60,
          "midi": 72,
          "name": "C5",
          "ticks": 53580,
          "time": 196.985084,
          "velocity": 0.6771653543307087
        },
        {
          "duration": 0.22058799999999223,
          "durationTicks": 60,
          "midi": 76,
          "name": "E5",
          "ticks": 53700,
          "time": 197.42626,
          "velocity": 0.6692913385826772
        },
        {
          "duration": 0.22058800000002066,
          "durationTicks": 60,
          "midi": 76,
          "name": "E5",
          "ticks": 53820,
          "time": 197.867436,
          "velocity": 0.7086614173228346
        },
        {
          "duration": 0.22058799999999223,
          "durationTicks": 60,
          "midi": 76,
          "name": "E5",
          "ticks": 53940,
          "time": 198.308612,
          "velocity": 0.6929133858267716
        },
        {
          "duration": 0.19485273333333453,
          "durationTicks": 53,
          "midi": 88,
          "name": "E6",
          "ticks": 54240,
          "time": 199.411552,
          "velocity": 0.84251968503937
        },
        {
          "duration": 0.22058800000002066,
          "durationTicks": 60,
          "midi": 88,
          "name": "E6",
          "ticks": 54300,
          "time": 199.63214,
          "velocity": 0.7086614173228346
        },
        {
          "duration": 0.2058821333333185,
          "durationTicks": 56,
          "midi": 84,
          "name": "C6",
          "ticks": 54360,
          "time": 199.852728,
          "velocity": 0.8188976377952756
        },
        {
          "duration": 0.22058799999999223,
          "durationTicks": 60,
          "midi": 81,
          "name": "A5",
          "ticks": 54420,
          "time": 200.073316,
          "velocity": 0.7401574803149606
        },
        {
          "duration": 0.22058799999999223,
          "durationTicks": 60,
          "midi": 81,
          "name": "A5",
          "ticks": 54540,
          "time": 200.51449200000002,
          "velocity": 0.7322834645669292
        },
        {
          "duration": 0.22058799999999223,
          "durationTicks": 60,
          "midi": 86,
          "name": "D6",
          "ticks": 54660,
          "time": 200.955668,
          "velocity": 0.7165354330708661
        },
        {
          "duration": 0.22058799999999223,
          "durationTicks": 60,
          "midi": 86,
          "name": "D6",
          "ticks": 54780,
          "time": 201.39684400000002,
          "velocity": 0.7401574803149606
        },
        {
          "duration": 0.22058799999999223,
          "durationTicks": 60,
          "midi": 86,
          "name": "D6",
          "ticks": 54900,
          "time": 201.83802,
          "velocity": 0.7165354330708661
        },
        {
          "duration": 0.19485273333333453,
          "durationTicks": 53,
          "midi": 90,
          "name": "F#6",
          "ticks": 54960,
          "time": 202.058608,
          "velocity": 0.8110236220472441
        },
        {
          "duration": 0.22058799999999223,
          "durationTicks": 60,
          "midi": 90,
          "name": "F#6",
          "ticks": 55020,
          "time": 202.279196,
          "velocity": 0.7244094488188977
        },
        {
          "duration": 0.22058799999999223,
          "durationTicks": 60,
          "midi": 91,
          "name": "G6",
          "ticks": 55080,
          "time": 202.499784,
          "velocity": 0.7952755905511811
        },
        {
          "duration": 0.22058800000002066,
          "durationTicks": 60,
          "midi": 93,
          "name": "A6",
          "ticks": 55140,
          "time": 202.720372,
          "velocity": 0.7244094488188977
        },
        {
          "duration": 0.18382333333332213,
          "durationTicks": 50,
          "midi": 91,
          "name": "G6",
          "ticks": 55200,
          "time": 202.94096000000002,
          "velocity": 0.84251968503937
        },
        {
          "duration": 0.18382333333335055,
          "durationTicks": 50,
          "midi": 91,
          "name": "G6",
          "ticks": 55260,
          "time": 203.161548,
          "velocity": 0.7086614173228346
        },
        {
          "duration": 0.22058799999999223,
          "durationTicks": 60,
          "midi": 91,
          "name": "G6",
          "ticks": 55320,
          "time": 203.382136,
          "velocity": 0.8188976377952756
        },
        {
          "duration": 0.22058800000002066,
          "durationTicks": 60,
          "midi": 86,
          "name": "D6",
          "ticks": 55380,
          "time": 203.602724,
          "velocity": 0.7401574803149606
        },
        {
          "duration": 0.22058799999999223,
          "durationTicks": 60,
          "midi": 84,
          "name": "C6",
          "ticks": 55500,
          "time": 204.0439,
          "velocity": 0.7322834645669292
        },
        {
          "duration": 0.22058800000002066,
          "durationTicks": 60,
          "midi": 88,
          "name": "E6",
          "ticks": 55620,
          "time": 204.485076,
          "velocity": 0.7165354330708661
        },
        {
          "duration": 0.22058799999999223,
          "durationTicks": 60,
          "midi": 88,
          "name": "E6",
          "ticks": 55740,
          "time": 204.926252,
          "velocity": 0.7401574803149606
        },
        {
          "duration": 0.22058799999999223,
          "durationTicks": 60,
          "midi": 88,
          "name": "E6",
          "ticks": 55860,
          "time": 205.36742800000002,
          "velocity": 0.7165354330708661
        },
        {
          "duration": 0.1911762666666732,
          "durationTicks": 52,
          "midi": 86,
          "name": "D6",
          "ticks": 55920,
          "time": 205.588016,
          "velocity": 0.8110236220472441
        },
        {
          "duration": 0.22058799999999223,
          "durationTicks": 60,
          "midi": 86,
          "name": "D6",
          "ticks": 55980,
          "time": 205.808604,
          "velocity": 0.7244094488188977
        },
        {
          "duration": 0.22058800000002066,
          "durationTicks": 60,
          "midi": 88,
          "name": "E6",
          "ticks": 56040,
          "time": 206.029192,
          "velocity": 0.7952755905511811
        },
        {
          "duration": 0.22058799999999223,
          "durationTicks": 60,
          "midi": 86,
          "name": "D6",
          "ticks": 56100,
          "time": 206.24978000000002,
          "velocity": 0.7244094488188977
        },
        {
          "duration": 0.19485273333333453,
          "durationTicks": 53,
          "midi": 88,
          "name": "E6",
          "ticks": 56160,
          "time": 206.470368,
          "velocity": 0.84251968503937
        },
        {
          "duration": 0.22058799999999223,
          "durationTicks": 60,
          "midi": 88,
          "name": "E6",
          "ticks": 56220,
          "time": 206.690956,
          "velocity": 0.7086614173228346
        },
        {
          "duration": 0.20588213333334693,
          "durationTicks": 56,
          "midi": 84,
          "name": "C6",
          "ticks": 56280,
          "time": 206.911544,
          "velocity": 0.8188976377952756
        },
        {
          "duration": 0.22058799999999223,
          "durationTicks": 60,
          "midi": 81,
          "name": "A5",
          "ticks": 56340,
          "time": 207.132132,
          "velocity": 0.7401574803149606
        },
        {
          "duration": 0.22058800000002066,
          "durationTicks": 60,
          "midi": 81,
          "name": "A5",
          "ticks": 56460,
          "time": 207.573308,
          "velocity": 0.7322834645669292
        },
        {
          "duration": 0.22058799999999223,
          "durationTicks": 60,
          "midi": 86,
          "name": "D6",
          "ticks": 56580,
          "time": 208.014484,
          "velocity": 0.7165354330708661
        },
        {
          "duration": 0.22058800000002066,
          "durationTicks": 60,
          "midi": 86,
          "name": "D6",
          "ticks": 56700,
          "time": 208.45566,
          "velocity": 0.7401574803149606
        },
        {
          "duration": 0.22058799999999223,
          "durationTicks": 60,
          "midi": 86,
          "name": "D6",
          "ticks": 56820,
          "time": 208.896836,
          "velocity": 0.7165354330708661
        },
        {
          "duration": 0.19485273333333453,
          "durationTicks": 53,
          "midi": 90,
          "name": "F#6",
          "ticks": 56880,
          "time": 209.117424,
          "velocity": 0.8110236220472441
        },
        {
          "duration": 0.22058800000002066,
          "durationTicks": 60,
          "midi": 90,
          "name": "F#6",
          "ticks": 56940,
          "time": 209.338012,
          "velocity": 0.7244094488188977
        },
        {
          "duration": 0.22058799999999223,
          "durationTicks": 60,
          "midi": 91,
          "name": "G6",
          "ticks": 57000,
          "time": 209.5586,
          "velocity": 0.7952755905511811
        },
        {
          "duration": 0.22058799999999223,
          "durationTicks": 60,
          "midi": 93,
          "name": "A6",
          "ticks": 57060,
          "time": 209.779188,
          "velocity": 0.7244094488188977
        },
        {
          "duration": 0.18382333333335055,
          "durationTicks": 50,
          "midi": 91,
          "name": "G6",
          "ticks": 57120,
          "time": 209.999776,
          "velocity": 0.84251968503937
        },
        {
          "duration": 0.18382333333332213,
          "durationTicks": 50,
          "midi": 91,
          "name": "G6",
          "ticks": 57180,
          "time": 210.22036400000002,
          "velocity": 0.7086614173228346
        },
        {
          "duration": 0.22058799999999223,
          "durationTicks": 60,
          "midi": 91,
          "name": "G6",
          "ticks": 57240,
          "time": 210.440952,
          "velocity": 0.8188976377952756
        },
        {
          "duration": 0.22058799999999223,
          "durationTicks": 60,
          "midi": 86,
          "name": "D6",
          "ticks": 57300,
          "time": 210.66154,
          "velocity": 0.7401574803149606
        },
        {
          "duration": 0.22058799999999223,
          "durationTicks": 60,
          "midi": 84,
          "name": "C6",
          "ticks": 57420,
          "time": 211.10271600000002,
          "velocity": 0.7322834645669292
        },
        {
          "duration": 0.22058799999999223,
          "durationTicks": 60,
          "midi": 88,
          "name": "E6",
          "ticks": 57540,
          "time": 211.543892,
          "velocity": 0.7165354330708661
        },
        {
          "duration": 0.22058799999999223,
          "durationTicks": 60,
          "midi": 88,
          "name": "E6",
          "ticks": 57660,
          "time": 211.985068,
          "velocity": 0.7401574803149606
        },
        {
          "duration": 0.22058800000002066,
          "durationTicks": 60,
          "midi": 88,
          "name": "E6",
          "ticks": 57780,
          "time": 212.426244,
          "velocity": 0.7165354330708661
        },
        {
          "duration": 0.19117626666664478,
          "durationTicks": 52,
          "midi": 86,
          "name": "D6",
          "ticks": 57840,
          "time": 212.64683200000002,
          "velocity": 0.8110236220472441
        },
        {
          "duration": 0.22058799999999223,
          "durationTicks": 60,
          "midi": 86,
          "name": "D6",
          "ticks": 57900,
          "time": 212.86742,
          "velocity": 0.7244094488188977
        },
        {
          "duration": 0.22058799999999223,
          "durationTicks": 60,
          "midi": 88,
          "name": "E6",
          "ticks": 57960,
          "time": 213.088008,
          "velocity": 0.7952755905511811
        },
        {
          "duration": 0.22058800000002066,
          "durationTicks": 60,
          "midi": 86,
          "name": "D6",
          "ticks": 58020,
          "time": 213.308596,
          "velocity": 0.7244094488188977
        },
        {
          "duration": 0.19485273333333453,
          "durationTicks": 53,
          "midi": 88,
          "name": "E6",
          "ticks": 58080,
          "time": 213.52918400000001,
          "velocity": 0.84251968503937
        },
        {
          "duration": 0.22058799999999223,
          "durationTicks": 60,
          "midi": 88,
          "name": "E6",
          "ticks": 58140,
          "time": 213.749772,
          "velocity": 0.7086614173228346
        },
        {
          "duration": 0.2058821333333185,
          "durationTicks": 56,
          "midi": 84,
          "name": "C6",
          "ticks": 58200,
          "time": 213.97036,
          "velocity": 0.8188976377952756
        },
        {
          "duration": 0.22058799999999223,
          "durationTicks": 60,
          "midi": 81,
          "name": "A5",
          "ticks": 58260,
          "time": 214.19094800000002,
          "velocity": 0.7401574803149606
        },
        {
          "duration": 0.22058799999999223,
          "durationTicks": 60,
          "midi": 81,
          "name": "A5",
          "ticks": 58380,
          "time": 214.632124,
          "velocity": 0.7322834645669292
        },
        {
          "duration": 0.22058799999999223,
          "durationTicks": 60,
          "midi": 86,
          "name": "D6",
          "ticks": 58500,
          "time": 215.07330000000002,
          "velocity": 0.7165354330708661
        },
        {
          "duration": 0.22058799999999223,
          "durationTicks": 60,
          "midi": 86,
          "name": "D6",
          "ticks": 58620,
          "time": 215.514476,
          "velocity": 0.7401574803149606
        },
        {
          "duration": 0.22058799999999223,
          "durationTicks": 60,
          "midi": 86,
          "name": "D6",
          "ticks": 58740,
          "time": 215.95565200000001,
          "velocity": 0.7165354330708661
        },
        {
          "duration": 0.19485273333333453,
          "durationTicks": 53,
          "midi": 90,
          "name": "F#6",
          "ticks": 58800,
          "time": 216.17624,
          "velocity": 0.8110236220472441
        },
        {
          "duration": 0.22058800000002066,
          "durationTicks": 60,
          "midi": 90,
          "name": "F#6",
          "ticks": 58860,
          "time": 216.396828,
          "velocity": 0.7244094488188977
        },
        {
          "duration": 0.22058799999999223,
          "durationTicks": 60,
          "midi": 91,
          "name": "G6",
          "ticks": 58920,
          "time": 216.61741600000002,
          "velocity": 0.7952755905511811
        },
        {
          "duration": 0.22058799999999223,
          "durationTicks": 60,
          "midi": 93,
          "name": "A6",
          "ticks": 58980,
          "time": 216.838004,
          "velocity": 0.7244094488188977
        },
        {
          "duration": 0.18382333333335055,
          "durationTicks": 50,
          "midi": 91,
          "name": "G6",
          "ticks": 59040,
          "time": 217.058592,
          "velocity": 0.84251968503937
        },
        {
          "duration": 0.18382333333335055,
          "durationTicks": 50,
          "midi": 91,
          "name": "G6",
          "ticks": 59100,
          "time": 217.27918,
          "velocity": 0.7086614173228346
        },
        {
          "duration": 0.22058799999999223,
          "durationTicks": 60,
          "midi": 91,
          "name": "G6",
          "ticks": 59160,
          "time": 217.49976800000002,
          "velocity": 0.8188976377952756
        },
        {
          "duration": 0.22058799999999223,
          "durationTicks": 60,
          "midi": 86,
          "name": "D6",
          "ticks": 59220,
          "time": 217.720356,
          "velocity": 0.7401574803149606
        },
        {
          "duration": 0.22058800000002066,
          "durationTicks": 60,
          "midi": 84,
          "name": "C6",
          "ticks": 59340,
          "time": 218.161532,
          "velocity": 0.7322834645669292
        },
        {
          "duration": 0.22058799999999223,
          "durationTicks": 60,
          "midi": 88,
          "name": "E6",
          "ticks": 59460,
          "time": 218.602708,
          "velocity": 0.7165354330708661
        },
        {
          "duration": 0.22058799999999223,
          "durationTicks": 60,
          "midi": 88,
          "name": "E6",
          "ticks": 59580,
          "time": 219.04388400000002,
          "velocity": 0.7401574803149606
        },
        {
          "duration": 0.22058799999999223,
          "durationTicks": 60,
          "midi": 88,
          "name": "E6",
          "ticks": 59700,
          "time": 219.48506,
          "velocity": 0.7165354330708661
        },
        {
          "duration": 0.1911762666666732,
          "durationTicks": 52,
          "midi": 86,
          "name": "D6",
          "ticks": 59760,
          "time": 219.705648,
          "velocity": 0.8110236220472441
        },
        {
          "duration": 0.22058799999999223,
          "durationTicks": 60,
          "midi": 86,
          "name": "D6",
          "ticks": 59820,
          "time": 219.92623600000002,
          "velocity": 0.7244094488188977
        },
        {
          "duration": 0.22058799999999223,
          "durationTicks": 60,
          "midi": 88,
          "name": "E6",
          "ticks": 59880,
          "time": 220.146824,
          "velocity": 0.7952755905511811
        },
        {
          "duration": 0.22058799999999223,
          "durationTicks": 60,
          "midi": 86,
          "name": "D6",
          "ticks": 59940,
          "time": 220.367412,
          "velocity": 0.7244094488188977
        },
        {
          "duration": 0.19485273333333453,
          "durationTicks": 53,
          "midi": 88,
          "name": "E6",
          "ticks": 60000,
          "time": 220.588,
          "velocity": 0.84251968503937
        },
        {
          "duration": 0.22058799999999223,
          "durationTicks": 60,
          "midi": 88,
          "name": "E6",
          "ticks": 60060,
          "time": 220.80858800000001,
          "velocity": 0.7086614173228346
        },
        {
          "duration": 0.2058821333333185,
          "durationTicks": 56,
          "midi": 84,
          "name": "C6",
          "ticks": 60120,
          "time": 221.029176,
          "velocity": 0.8188976377952756
        },
        {
          "duration": 0.22058800000002066,
          "durationTicks": 60,
          "midi": 81,
          "name": "A5",
          "ticks": 60180,
          "time": 221.249764,
          "velocity": 0.7401574803149606
        },
        {
          "duration": 0.22058799999999223,
          "durationTicks": 60,
          "midi": 81,
          "name": "A5",
          "ticks": 60300,
          "time": 221.69094,
          "velocity": 0.7322834645669292
        },
        {
          "duration": 0.22058800000002066,
          "durationTicks": 60,
          "midi": 86,
          "name": "D6",
          "ticks": 60420,
          "time": 222.132116,
          "velocity": 0.7165354330708661
        },
        {
          "duration": 0.22058799999999223,
          "durationTicks": 60,
          "midi": 86,
          "name": "D6",
          "ticks": 60540,
          "time": 222.573292,
          "velocity": 0.7401574803149606
        },
        {
          "duration": 0.22058800000002066,
          "durationTicks": 60,
          "midi": 86,
          "name": "D6",
          "ticks": 60660,
          "time": 223.014468,
          "velocity": 0.7165354330708661
        },
        {
          "duration": 0.19485273333333453,
          "durationTicks": 53,
          "midi": 90,
          "name": "F#6",
          "ticks": 60720,
          "time": 223.23505600000001,
          "velocity": 0.8110236220472441
        },
        {
          "duration": 0.22058799999999223,
          "durationTicks": 60,
          "midi": 90,
          "name": "F#6",
          "ticks": 60780,
          "time": 223.455644,
          "velocity": 0.7244094488188977
        },
        {
          "duration": 0.22058800000002066,
          "durationTicks": 60,
          "midi": 91,
          "name": "G6",
          "ticks": 60840,
          "time": 223.676232,
          "velocity": 0.7952755905511811
        },
        {
          "duration": 0.22058799999999223,
          "durationTicks": 60,
          "midi": 93,
          "name": "A6",
          "ticks": 60900,
          "time": 223.89682000000002,
          "velocity": 0.7244094488188977
        },
        {
          "duration": 0.18382333333335055,
          "durationTicks": 50,
          "midi": 91,
          "name": "G6",
          "ticks": 60960,
          "time": 224.117408,
          "velocity": 0.84251968503937
        },
        {
          "duration": 0.18382333333335055,
          "durationTicks": 50,
          "midi": 91,
          "name": "G6",
          "ticks": 61020,
          "time": 224.337996,
          "velocity": 0.7086614173228346
        },
        {
          "duration": 0.22058800000002066,
          "durationTicks": 60,
          "midi": 91,
          "name": "G6",
          "ticks": 61080,
          "time": 224.558584,
          "velocity": 0.8188976377952756
        },
        {
          "duration": 0.22058799999999223,
          "durationTicks": 60,
          "midi": 86,
          "name": "D6",
          "ticks": 61140,
          "time": 224.77917200000002,
          "velocity": 0.7401574803149606
        },
        {
          "duration": 0.22058799999999223,
          "durationTicks": 60,
          "midi": 84,
          "name": "C6",
          "ticks": 61260,
          "time": 225.220348,
          "velocity": 0.7322834645669292
        },
        {
          "duration": 0.22058799999999223,
          "durationTicks": 60,
          "midi": 88,
          "name": "E6",
          "ticks": 61380,
          "time": 225.66152400000001,
          "velocity": 0.7165354330708661
        },
        {
          "duration": 0.22058800000002066,
          "durationTicks": 60,
          "midi": 88,
          "name": "E6",
          "ticks": 61500,
          "time": 226.1027,
          "velocity": 0.7401574803149606
        },
        {
          "duration": 0.22058799999999223,
          "durationTicks": 60,
          "midi": 88,
          "name": "E6",
          "ticks": 61620,
          "time": 226.543876,
          "velocity": 0.7165354330708661
        },
        {
          "duration": 0.19117626666664478,
          "durationTicks": 52,
          "midi": 86,
          "name": "D6",
          "ticks": 61680,
          "time": 226.764464,
          "velocity": 0.8110236220472441
        },
        {
          "duration": 0.22058800000002066,
          "durationTicks": 60,
          "midi": 86,
          "name": "D6",
          "ticks": 61740,
          "time": 226.985052,
          "velocity": 0.7244094488188977
        },
        {
          "duration": 0.22058799999999223,
          "durationTicks": 60,
          "midi": 88,
          "name": "E6",
          "ticks": 61800,
          "time": 227.20564000000002,
          "velocity": 0.7952755905511811
        },
        {
          "duration": 0.22058799999999223,
          "durationTicks": 60,
          "midi": 86,
          "name": "D6",
          "ticks": 61860,
          "time": 227.426228,
          "velocity": 0.7244094488188977
        }
      ],
      "endOfTrackTicks": 61920
    },
    {
      "channel": 10,
      "controlChanges": {
        "1": [
          {
            "number": 1,
            "ticks": 182,
            "time": 0.6691169333333333,
            "value": 0
          }
        ],
        "5": [
          {
            "number": 5,
            "ticks": 231,
            "time": 0.8492638,
            "value": 0
          }
        ],
        "7": [
          {
            "number": 7,
            "ticks": 0,
            "time": 0,
            "value": 0.7322834645669292
          }
        ],
        "10": [
          {
            "number": 10,
            "ticks": 0,
            "time": 0,
            "value": 0.6299212598425197
          }
        ],
        "11": [
          {
            "number": 11,
            "ticks": 157,
            "time": 0.5772052666666667,
            "value": 1
          }
        ],
        "64": [
          {
            "number": 64,
            "ticks": 193,
            "time": 0.7095580666666668,
            "value": 0
          }
        ],
        "65": [
          {
            "number": 65,
            "ticks": 218,
            "time": 0.8014697333333334,
            "value": 0
          }
        ],
        "91": [
          {
            "number": 91,
            "ticks": 13,
            "time": 0.04779406666666667,
            "value": 0.3937007874015748
          }
        ],
        "93": [
          {
            "number": 93,
            "ticks": 120,
            "time": 0.441176,
            "value": 0.15748031496062992
          }
        ],
        "94": [
          {
            "number": 94,
            "ticks": 136,
            "time": 0.49999946666666667,
            "value": 0
          }
        ],
        "121": [
          {
            "number": 121,
            "ticks": 0,
            "time": 0,
            "value": 0
          }
        ]
      },
      "pitchBends": [
        {
          "ticks": 203,
          "time": 0.7463227333333333,
          "value": 0
        },
        {
          "ticks": 46063,
          "time": 169.34908406666668,
          "value": -0.032470703125
        },
        {
          "ticks": 46069,
          "time": 169.37114286666667,
          "value": -0.064697265625
        },
        {
          "ticks": 46075,
          "time": 169.39320166666667,
          "value": -0.129150390625
        },
        {
          "ticks": 46093,
          "time": 169.4593780666667,
          "value": -0.1937255859375
        },
        {
          "ticks": 46106,
          "time": 169.5071721333333,
          "value": -0.2581787109375
        },
        {
          "ticks": 46115,
          "time": 169.54026033333335,
          "value": -0.32275390625
        },
        {
          "ticks": 46121,
          "time": 169.56231913333332,
          "value": -0.38720703125
        },
        {
          "ticks": 46130,
          "time": 169.59540733333336,
          "value": -0.4517822265625
        },
        {
          "ticks": 46133,
          "time": 169.60643673333334,
          "value": -0.5162353515625
        },
        {
          "ticks": 46139,
          "time": 169.62849553333334,
          "value": -0.580810546875
        },
        {
          "ticks": 46142,
          "time": 169.63952493333332,
          "value": -0.645263671875
        },
        {
          "ticks": 46149,
          "time": 169.6652602,
          "value": -0.7742919921875
        },
        {
          "ticks": 46155,
          "time": 169.687319,
          "value": -0.645263671875
        },
        {
          "ticks": 46158,
          "time": 169.6983484,
          "value": -0.5162353515625
        },
        {
          "ticks": 46161,
          "time": 169.7093778,
          "value": -0.2581787109375
        },
        {
          "ticks": 46164,
          "time": 169.7204072,
          "value": 0
        }
      ],
      "instrument": {
        "family": "brass",
        "number": 62,
        "name": "synthbrass 1"
      },
      "name": "Brass",
      "notes": [
        {
          "duration": 0.19485273333332742,
          "durationTicks": 53,
          "midi": 64,
          "name": "E4",
          "ticks": 12000,
          "time": 44.1176,
          "velocity": 0.84251968503937
        },
        {
          "duration": 0.22058799999999934,
          "durationTicks": 60,
          "midi": 64,
          "name": "E4",
          "ticks": 12060,
          "time": 44.338188,
          "velocity": 0.7086614173228346
        },
        {
          "duration": 0.20588213333333272,
          "durationTicks": 56,
          "midi": 60,
          "name": "C4",
          "ticks": 12120,
          "time": 44.558776,
          "velocity": 0.8188976377952756
        },
        {
          "duration": 0.22058799999999934,
          "durationTicks": 60,
          "midi": 57,
          "name": "A3",
          "ticks": 12180,
          "time": 44.779364,
          "velocity": 0.7401574803149606
        },
        {
          "duration": 0.22058799999999934,
          "durationTicks": 60,
          "midi": 57,
          "name": "A3",
          "ticks": 12300,
          "time": 45.22054,
          "velocity": 0.7322834645669292
        },
        {
          "duration": 0.22058800000000645,
          "durationTicks": 60,
          "midi": 62,
          "name": "D4",
          "ticks": 12420,
          "time": 45.661716,
          "velocity": 0.7165354330708661
        },
        {
          "duration": 0.22058799999999934,
          "durationTicks": 60,
          "midi": 62,
          "name": "D4",
          "ticks": 12540,
          "time": 46.102892000000004,
          "velocity": 0.7401574803149606
        },
        {
          "duration": 0.22058799999999934,
          "durationTicks": 60,
          "midi": 62,
          "name": "D4",
          "ticks": 12660,
          "time": 46.544068,
          "velocity": 0.7165354330708661
        },
        {
          "duration": 0.19485273333332742,
          "durationTicks": 53,
          "midi": 66,
          "name": "F#4",
          "ticks": 12720,
          "time": 46.764656,
          "velocity": 0.8110236220472441
        },
        {
          "duration": 0.22058799999999934,
          "durationTicks": 60,
          "midi": 66,
          "name": "F#4",
          "ticks": 12780,
          "time": 46.985244,
          "velocity": 0.7244094488188977
        },
        {
          "duration": 0.22058799999999934,
          "durationTicks": 60,
          "midi": 67,
          "name": "G4",
          "ticks": 12840,
          "time": 47.205832,
          "velocity": 0.7952755905511811
        },
        {
          "duration": 0.22058799999999934,
          "durationTicks": 60,
          "midi": 69,
          "name": "A4",
          "ticks": 12900,
          "time": 47.42642,
          "velocity": 0.7244094488188977
        },
        {
          "duration": 0.18382333333333634,
          "durationTicks": 50,
          "midi": 67,
          "name": "G4",
          "ticks": 12960,
          "time": 47.647008,
          "velocity": 0.84251968503937
        },
        {
          "duration": 0.18382333333333634,
          "durationTicks": 50,
          "midi": 67,
          "name": "G4",
          "ticks": 13020,
          "time": 47.867596,
          "velocity": 0.7086614173228346
        },
        {
          "duration": 0.22058800000000645,
          "durationTicks": 60,
          "midi": 67,
          "name": "G4",
          "ticks": 13080,
          "time": 48.088184,
          "velocity": 0.8188976377952756
        },
        {
          "duration": 0.22058799999999934,
          "durationTicks": 60,
          "midi": 62,
          "name": "D4",
          "ticks": 13140,
          "time": 48.308772000000005,
          "velocity": 0.7401574803149606
        },
        {
          "duration": 0.22058799999999934,
          "durationTicks": 60,
          "midi": 60,
          "name": "C4",
          "ticks": 13260,
          "time": 48.749948,
          "velocity": 0.7322834645669292
        },
        {
          "duration": 0.22058799999999934,
          "durationTicks": 60,
          "midi": 64,
          "name": "E4",
          "ticks": 13380,
          "time": 49.191124,
          "velocity": 0.7165354330708661
        },
        {
          "duration": 0.22058799999999934,
          "durationTicks": 60,
          "midi": 64,
          "name": "E4",
          "ticks": 13500,
          "time": 49.6323,
          "velocity": 0.7401574803149606
        },
        {
          "duration": 0.22058799999999934,
          "durationTicks": 60,
          "midi": 64,
          "name": "E4",
          "ticks": 13620,
          "time": 50.073476,
          "velocity": 0.7165354330708661
        },
        {
          "duration": 0.1911762666666732,
          "durationTicks": 52,
          "midi": 62,
          "name": "D4",
          "ticks": 13680,
          "time": 50.294064,
          "velocity": 0.8110236220472441
        },
        {
          "duration": 0.22058800000000645,
          "durationTicks": 60,
          "midi": 62,
          "name": "D4",
          "ticks": 13740,
          "time": 50.514652,
          "velocity": 0.7244094488188977
        },
        {
          "duration": 0.22058799999999934,
          "durationTicks": 60,
          "midi": 64,
          "name": "E4",
          "ticks": 13800,
          "time": 50.735240000000005,
          "velocity": 0.7952755905511811
        },
        {
          "duration": 0.22058799999999934,
          "durationTicks": 60,
          "midi": 62,
          "name": "D4",
          "ticks": 13860,
          "time": 50.955828000000004,
          "velocity": 0.7244094488188977
        },
        {
          "duration": 0.19485273333332742,
          "durationTicks": 53,
          "midi": 64,
          "name": "E4",
          "ticks": 13920,
          "time": 51.176416,
          "velocity": 0.84251968503937
        },
        {
          "duration": 0.22058799999999934,
          "durationTicks": 60,
          "midi": 64,
          "name": "E4",
          "ticks": 13980,
          "time": 51.397004,
          "velocity": 0.7086614173228346
        },
        {
          "duration": 0.20588213333333272,
          "durationTicks": 56,
          "midi": 60,
          "name": "C4",
          "ticks": 14040,
          "time": 51.617592,
          "velocity": 0.8188976377952756
        },
        {
          "duration": 0.22058799999999934,
          "durationTicks": 60,
          "midi": 57,
          "name": "A3",
          "ticks": 14100,
          "time": 51.83818,
          "velocity": 0.7401574803149606
        },
        {
          "duration": 0.22058799999999934,
          "durationTicks": 60,
          "midi": 57,
          "name": "A3",
          "ticks": 14220,
          "time": 52.279356,
          "velocity": 0.7322834645669292
        },
        {
          "duration": 0.22058799999999934,
          "durationTicks": 60,
          "midi": 62,
          "name": "D4",
          "ticks": 14340,
          "time": 52.720532,
          "velocity": 0.7165354330708661
        },
        {
          "duration": 0.22058799999999934,
          "durationTicks": 60,
          "midi": 62,
          "name": "D4",
          "ticks": 14460,
          "time": 53.161708000000004,
          "velocity": 0.7401574803149606
        },
        {
          "duration": 0.22058799999999934,
          "durationTicks": 60,
          "midi": 62,
          "name": "D4",
          "ticks": 14580,
          "time": 53.602884,
          "velocity": 0.7165354330708661
        },
        {
          "duration": 0.19485273333332742,
          "durationTicks": 53,
          "midi": 66,
          "name": "F#4",
          "ticks": 14640,
          "time": 53.823472,
          "velocity": 0.8110236220472441
        },
        {
          "duration": 0.22058799999999934,
          "durationTicks": 60,
          "midi": 66,
          "name": "F#4",
          "ticks": 14700,
          "time": 54.04406,
          "velocity": 0.7244094488188977
        },
        {
          "duration": 0.22058799999999934,
          "durationTicks": 60,
          "midi": 67,
          "name": "G4",
          "ticks": 14760,
          "time": 54.264648,
          "velocity": 0.7952755905511811
        },
        {
          "duration": 0.22058799999999934,
          "durationTicks": 60,
          "midi": 69,
          "name": "A4",
          "ticks": 14820,
          "time": 54.485236,
          "velocity": 0.7244094488188977
        },
        {
          "duration": 0.18382333333333634,
          "durationTicks": 50,
          "midi": 67,
          "name": "G4",
          "ticks": 14880,
          "time": 54.705824,
          "velocity": 0.84251968503937
        },
        {
          "duration": 0.18382333333333634,
          "durationTicks": 50,
          "midi": 67,
          "name": "G4",
          "ticks": 14940,
          "time": 54.926412,
          "velocity": 0.7086614173228346
        },
        {
          "duration": 0.22058800000000645,
          "durationTicks": 60,
          "midi": 67,
          "name": "G4",
          "ticks": 15000,
          "time": 55.147,
          "velocity": 0.8188976377952756
        },
        {
          "duration": 0.22058799999999934,
          "durationTicks": 60,
          "midi": 62,
          "name": "D4",
          "ticks": 15060,
          "time": 55.367588000000005,
          "velocity": 0.7401574803149606
        },
        {
          "duration": 0.22058799999999934,
          "durationTicks": 60,
          "midi": 60,
          "name": "C4",
          "ticks": 15180,
          "time": 55.808764000000004,
          "velocity": 0.7322834645669292
        },
        {
          "duration": 0.22058799999999934,
          "durationTicks": 60,
          "midi": 64,
          "name": "E4",
          "ticks": 15300,
          "time": 56.24994,
          "velocity": 0.7165354330708661
        },
        {
          "duration": 0.22058799999999934,
          "durationTicks": 60,
          "midi": 64,
          "name": "E4",
          "ticks": 15420,
          "time": 56.691116,
          "velocity": 0.7401574803149606
        },
        {
          "duration": 0.22058799999999934,
          "durationTicks": 60,
          "midi": 64,
          "name": "E4",
          "ticks": 15540,
          "time": 57.132292,
          "velocity": 0.7165354330708661
        },
        {
          "duration": 0.1911762666666732,
          "durationTicks": 52,
          "midi": 62,
          "name": "D4",
          "ticks": 15600,
          "time": 57.35288,
          "velocity": 0.8110236220472441
        },
        {
          "duration": 0.22058800000000645,
          "durationTicks": 60,
          "midi": 62,
          "name": "D4",
          "ticks": 15660,
          "time": 57.573468,
          "velocity": 0.7244094488188977
        },
        {
          "duration": 0.22058799999999934,
          "durationTicks": 60,
          "midi": 64,
          "name": "E4",
          "ticks": 15720,
          "time": 57.794056000000005,
          "velocity": 0.7952755905511811
        },
        {
          "duration": 0.22058799999999934,
          "durationTicks": 60,
          "midi": 62,
          "name": "D4",
          "ticks": 15780,
          "time": 58.014644000000004,
          "velocity": 0.7244094488188977
        },
        {
          "duration": 0.19485273333332742,
          "durationTicks": 53,
          "midi": 76,
          "name": "E5",
          "ticks": 15840,
          "time": 58.235232,
          "velocity": 0.84251968503937
        },
        {
          "duration": 0.22058799999999934,
          "durationTicks": 60,
          "midi": 76,
          "name": "E5",
          "ticks": 15900,
          "time": 58.45582,
          "velocity": 0.7086614173228346
        },
        {
          "duration": 0.20588213333333272,
          "durationTicks": 56,
          "midi": 72,
          "name": "C5",
          "ticks": 15960,
          "time": 58.676408,
          "velocity": 0.8188976377952756
        },
        {
          "duration": 0.22058799999999934,
          "durationTicks": 60,
          "midi": 69,
          "name": "A4",
          "ticks": 16020,
          "time": 58.896996,
          "velocity": 0.7401574803149606
        },
        {
          "duration": 0.22058799999999934,
          "durationTicks": 60,
          "midi": 69,
          "name": "A4",
          "ticks": 16140,
          "time": 59.338172,
          "velocity": 0.7322834645669292
        },
        {
          "duration": 0.22058800000000645,
          "durationTicks": 60,
          "midi": 74,
          "name": "D5",
          "ticks": 16260,
          "time": 59.779348,
          "velocity": 0.7165354330708661
        },
        {
          "duration": 0.22058799999999934,
          "durationTicks": 60,
          "midi": 74,
          "name": "D5",
          "ticks": 16380,
          "time": 60.220524000000005,
          "velocity": 0.7401574803149606
        },
        {
          "duration": 0.22058799999999934,
          "durationTicks": 60,
          "midi": 74,
          "name": "D5",
          "ticks": 16500,
          "time": 60.6617,
          "velocity": 0.7165354330708661
        },
        {
          "duration": 0.19485273333332742,
          "durationTicks": 53,
          "midi": 78,
          "name": "F#5",
          "ticks": 16560,
          "time": 60.882288,
          "velocity": 0.8110236220472441
        },
        {
          "duration": 0.22058799999999934,
          "durationTicks": 60,
          "midi": 78,
          "name": "F#5",
          "ticks": 16620,
          "time": 61.102876,
          "velocity": 0.7244094488188977
        },
        {
          "duration": 0.22058799999999934,
          "durationTicks": 60,
          "midi": 79,
          "name": "G5",
          "ticks": 16680,
          "time": 61.323464,
          "velocity": 0.7952755905511811
        },
        {
          "duration": 0.22058799999999934,
          "durationTicks": 60,
          "midi": 81,
          "name": "A5",
          "ticks": 16740,
          "time": 61.544052,
          "velocity": 0.7244094488188977
        },
        {
          "duration": 0.18382333333332923,
          "durationTicks": 50,
          "midi": 79,
          "name": "G5",
          "ticks": 16800,
          "time": 61.76464,
          "velocity": 0.84251968503937
        },
        {
          "duration": 0.18382333333332923,
          "durationTicks": 50,
          "midi": 79,
          "name": "G5",
          "ticks": 16860,
          "time": 61.985228,
          "velocity": 0.7086614173228346
        },
        {
          "duration": 0.22058800000000645,
          "durationTicks": 60,
          "midi": 79,
          "name": "G5",
          "ticks": 16920,
          "time": 62.205816,
          "velocity": 0.8188976377952756
        },
        {
          "duration": 0.22058799999999934,
          "durationTicks": 60,
          "midi": 74,
          "name": "D5",
          "ticks": 16980,
          "time": 62.426404000000005,
          "velocity": 0.7401574803149606
        },
        {
          "duration": 0.22058799999999934,
          "durationTicks": 60,
          "midi": 72,
          "name": "C5",
          "ticks": 17100,
          "time": 62.867580000000004,
          "velocity": 0.7322834645669292
        },
        {
          "duration": 0.22058799999999934,
          "durationTicks": 60,
          "midi": 76,
          "name": "E5",
          "ticks": 17220,
          "time": 63.308756,
          "velocity": 0.7165354330708661
        },
        {
          "duration": 0.22058799999999934,
          "durationTicks": 60,
          "midi": 76,
          "name": "E5",
          "ticks": 17340,
          "time": 63.749932,
          "velocity": 0.7401574803149606
        },
        {
          "duration": 0.22058800000000645,
          "durationTicks": 60,
          "midi": 76,
          "name": "E5",
          "ticks": 17460,
          "time": 64.191108,
          "velocity": 0.7165354330708661
        },
        {
          "duration": 0.191176266666659,
          "durationTicks": 52,
          "midi": 74,
          "name": "D5",
          "ticks": 17520,
          "time": 64.411696,
          "velocity": 0.8110236220472441
        },
        {
          "duration": 0.22058800000000645,
          "durationTicks": 60,
          "midi": 74,
          "name": "D5",
          "ticks": 17580,
          "time": 64.632284,
          "velocity": 0.7244094488188977
        },
        {
          "duration": 0.22058799999999223,
          "durationTicks": 60,
          "midi": 76,
          "name": "E5",
          "ticks": 17640,
          "time": 64.852872,
          "velocity": 0.7952755905511811
        },
        {
          "duration": 0.22058800000000645,
          "durationTicks": 60,
          "midi": 74,
          "name": "D5",
          "ticks": 17700,
          "time": 65.07346,
          "velocity": 0.7244094488188977
        },
        {
          "duration": 0.19485273333333453,
          "durationTicks": 53,
          "midi": 76,
          "name": "E5",
          "ticks": 17760,
          "time": 65.294048,
          "velocity": 0.84251968503937
        },
        {
          "duration": 0.22058800000000645,
          "durationTicks": 60,
          "midi": 76,
          "name": "E5",
          "ticks": 17820,
          "time": 65.514636,
          "velocity": 0.7086614173228346
        },
        {
          "duration": 0.20588213333333272,
          "durationTicks": 56,
          "midi": 72,
          "name": "C5",
          "ticks": 17880,
          "time": 65.735224,
          "velocity": 0.8188976377952756
        },
        {
          "duration": 0.22058799999999223,
          "durationTicks": 60,
          "midi": 69,
          "name": "A4",
          "ticks": 17940,
          "time": 65.95581200000001,
          "velocity": 0.7401574803149606
        },
        {
          "duration": 0.22058799999999223,
          "durationTicks": 60,
          "midi": 69,
          "name": "A4",
          "ticks": 18060,
          "time": 66.39698800000001,
          "velocity": 0.7322834645669292
        },
        {
          "duration": 0.22058799999999223,
          "durationTicks": 60,
          "midi": 74,
          "name": "D5",
          "ticks": 18180,
          "time": 66.838164,
          "velocity": 0.7165354330708661
        },
        {
          "duration": 0.22058799999999223,
          "durationTicks": 60,
          "midi": 74,
          "name": "D5",
          "ticks": 18300,
          "time": 67.27934,
          "velocity": 0.7401574803149606
        },
        {
          "duration": 0.22058799999999223,
          "durationTicks": 60,
          "midi": 74,
          "name": "D5",
          "ticks": 18420,
          "time": 67.720516,
          "velocity": 0.7165354330708661
        },
        {
          "duration": 0.19485273333333453,
          "durationTicks": 53,
          "midi": 78,
          "name": "F#5",
          "ticks": 18480,
          "time": 67.941104,
          "velocity": 0.8110236220472441
        },
        {
          "duration": 0.22058800000000645,
          "durationTicks": 60,
          "midi": 78,
          "name": "F#5",
          "ticks": 18540,
          "time": 68.161692,
          "velocity": 0.7244094488188977
        },
        {
          "duration": 0.22058799999999223,
          "durationTicks": 60,
          "midi": 79,
          "name": "G5",
          "ticks": 18600,
          "time": 68.38228000000001,
          "velocity": 0.7952755905511811
        },
        {
          "duration": 0.22058800000000645,
          "durationTicks": 60,
          "midi": 81,
          "name": "A5",
          "ticks": 18660,
          "time": 68.602868,
          "velocity": 0.7244094488188977
        },
        {
          "duration": 0.18382333333332213,
          "durationTicks": 50,
          "midi": 79,
          "name": "G5",
          "ticks": 18720,
          "time": 68.82345600000001,
          "velocity": 0.84251968503937
        },
        {
          "duration": 0.18382333333333634,
          "durationTicks": 50,
          "midi": 79,
          "name": "G5",
          "ticks": 18780,
          "time": 69.044044,
          "velocity": 0.7086614173228346
        },
        {
          "duration": 0.22058799999999223,
          "durationTicks": 60,
          "midi": 79,
          "name": "G5",
          "ticks": 18840,
          "time": 69.264632,
          "velocity": 0.8188976377952756
        },
        {
          "duration": 0.22058800000000645,
          "durationTicks": 60,
          "midi": 74,
          "name": "D5",
          "ticks": 18900,
          "time": 69.48522,
          "velocity": 0.7401574803149606
        },
        {
          "duration": 0.22058800000000645,
          "durationTicks": 60,
          "midi": 72,
          "name": "C5",
          "ticks": 19020,
          "time": 69.926396,
          "velocity": 0.7322834645669292
        },
        {
          "duration": 0.22058800000000645,
          "durationTicks": 60,
          "midi": 76,
          "name": "E5",
          "ticks": 19140,
          "time": 70.367572,
          "velocity": 0.7165354330708661
        },
        {
          "duration": 0.19485273333333453,
          "durationTicks": 53,
          "midi": 76,
          "name": "E5",
          "ticks": 31200,
          "time": 114.70576,
          "velocity": 0.6456692913385826
        },
        {
          "duration": 0.22058799999999223,
          "durationTicks": 60,
          "midi": 76,
          "name": "E5",
          "ticks": 31260,
          "time": 114.926348,
          "velocity": 0.5118110236220472
        },
        {
          "duration": 0.20588213333333272,
          "durationTicks": 56,
          "midi": 72,
          "name": "C5",
          "ticks": 31320,
          "time": 115.146936,
          "velocity": 0.6299212598425197
        },
        {
          "duration": 0.22058800000000645,
          "durationTicks": 60,
          "midi": 69,
          "name": "A4",
          "ticks": 31380,
          "time": 115.367524,
          "velocity": 0.5354330708661418
        },
        {
          "duration": 0.22058800000000645,
          "durationTicks": 60,
          "midi": 69,
          "name": "A4",
          "ticks": 31500,
          "time": 115.8087,
          "velocity": 0.5354330708661418
        },
        {
          "duration": 0.22058800000000645,
          "durationTicks": 60,
          "midi": 74,
          "name": "D5",
          "ticks": 31620,
          "time": 116.249876,
          "velocity": 0.5118110236220472
        },
        {
          "duration": 0.22058800000000645,
          "durationTicks": 60,
          "midi": 74,
          "name": "D5",
          "ticks": 31740,
          "time": 116.691052,
          "velocity": 0.5433070866141733
        },
        {
          "duration": 0.22058800000000645,
          "durationTicks": 60,
          "midi": 74,
          "name": "D5",
          "ticks": 31860,
          "time": 117.132228,
          "velocity": 0.5196850393700787
        },
        {
          "duration": 0.19485273333333453,
          "durationTicks": 53,
          "midi": 78,
          "name": "F#5",
          "ticks": 31920,
          "time": 117.352816,
          "velocity": 0.6299212598425197
        },
        {
          "duration": 0.22058800000000645,
          "durationTicks": 60,
          "midi": 78,
          "name": "F#5",
          "ticks": 31980,
          "time": 117.573404,
          "velocity": 0.5275590551181102
        },
        {
          "duration": 0.22058800000000645,
          "durationTicks": 60,
          "midi": 79,
          "name": "G5",
          "ticks": 32040,
          "time": 117.793992,
          "velocity": 0.6141732283464567
        },
        {
          "duration": 0.22058799999999223,
          "durationTicks": 60,
          "midi": 81,
          "name": "A5",
          "ticks": 32100,
          "time": 118.01458000000001,
          "velocity": 0.5275590551181102
        },
        {
          "duration": 0.18382333333335055,
          "durationTicks": 50,
          "midi": 79,
          "name": "G5",
          "ticks": 32160,
          "time": 118.235168,
          "velocity": 0.6614173228346457
        },
        {
          "duration": 0.18382333333333634,
          "durationTicks": 50,
          "midi": 79,
          "name": "G5",
          "ticks": 32220,
          "time": 118.45575600000001,
          "velocity": 0.5275590551181102
        },
        {
          "duration": 0.22058800000000645,
          "durationTicks": 60,
          "midi": 79,
          "name": "G5",
          "ticks": 32280,
          "time": 118.676344,
          "velocity": 0.6377952755905512
        },
        {
          "duration": 0.22058799999999223,
          "durationTicks": 60,
          "midi": 74,
          "name": "D5",
          "ticks": 32340,
          "time": 118.896932,
          "velocity": 0.5511811023622047
        },
        {
          "duration": 0.22058799999999223,
          "durationTicks": 60,
          "midi": 72,
          "name": "C5",
          "ticks": 32460,
          "time": 119.338108,
          "velocity": 0.5511811023622047
        },
        {
          "duration": 0.22058800000000645,
          "durationTicks": 60,
          "midi": 76,
          "name": "E5",
          "ticks": 32580,
          "time": 119.779284,
          "velocity": 0.5433070866141733
        },
        {
          "duration": 0.22058800000000645,
          "durationTicks": 60,
          "midi": 76,
          "name": "E5",
          "ticks": 32700,
          "time": 120.22046,
          "velocity": 0.5669291338582677
        },
        {
          "duration": 0.22058800000000645,
          "durationTicks": 60,
          "midi": 76,
          "name": "E5",
          "ticks": 32820,
          "time": 120.661636,
          "velocity": 0.5590551181102362
        },
        {
          "duration": 0.191176266666659,
          "durationTicks": 52,
          "midi": 74,
          "name": "D5",
          "ticks": 32880,
          "time": 120.88222400000001,
          "velocity": 0.6535433070866141
        },
        {
          "duration": 0.22058800000000645,
          "durationTicks": 60,
          "midi": 74,
          "name": "D5",
          "ticks": 32940,
          "time": 121.102812,
          "velocity": 0.5669291338582677
        },
        {
          "duration": 0.22058799999999223,
          "durationTicks": 60,
          "midi": 76,
          "name": "E5",
          "ticks": 33000,
          "time": 121.3234,
          "velocity": 0.6456692913385826
        },
        {
          "duration": 0.22058800000000645,
          "durationTicks": 60,
          "midi": 74,
          "name": "D5",
          "ticks": 33060,
          "time": 121.543988,
          "velocity": 0.5748031496062992
        },
        {
          "duration": 0.19485273333333453,
          "durationTicks": 53,
          "midi": 76,
          "name": "E5",
          "ticks": 33120,
          "time": 121.764576,
          "velocity": 0.6929133858267716
        },
        {
          "duration": 0.22058800000000645,
          "durationTicks": 60,
          "midi": 76,
          "name": "E5",
          "ticks": 33180,
          "time": 121.985164,
          "velocity": 0.5669291338582677
        },
        {
          "duration": 0.2058821333333185,
          "durationTicks": 56,
          "midi": 72,
          "name": "C5",
          "ticks": 33240,
          "time": 122.205752,
          "velocity": 0.6771653543307087
        },
        {
          "duration": 0.22058799999999223,
          "durationTicks": 60,
          "midi": 69,
          "name": "A4",
          "ticks": 33300,
          "time": 122.42634000000001,
          "velocity": 0.5905511811023622
        },
        {
          "duration": 0.22058799999999223,
          "durationTicks": 60,
          "midi": 69,
          "name": "A4",
          "ticks": 33420,
          "time": 122.86751600000001,
          "velocity": 0.6062992125984252
        },
        {
          "duration": 0.22058799999999223,
          "durationTicks": 60,
          "midi": 74,
          "name": "D5",
          "ticks": 33540,
          "time": 123.30869200000001,
          "velocity": 0.5905511811023622
        },
        {
          "duration": 0.22058799999999223,
          "durationTicks": 60,
          "midi": 74,
          "name": "D5",
          "ticks": 33660,
          "time": 123.749868,
          "velocity": 0.6220472440944882
        },
        {
          "duration": 0.22058799999999223,
          "durationTicks": 60,
          "midi": 74,
          "name": "D5",
          "ticks": 33780,
          "time": 124.191044,
          "velocity": 0.6141732283464567
        },
        {
          "duration": 0.19485273333333453,
          "durationTicks": 53,
          "midi": 78,
          "name": "F#5",
          "ticks": 33840,
          "time": 124.411632,
          "velocity": 0.7165354330708661
        },
        {
          "duration": 0.22058800000000645,
          "durationTicks": 60,
          "midi": 78,
          "name": "F#5",
          "ticks": 33900,
          "time": 124.63222,
          "velocity": 0.6220472440944882
        },
        {
          "duration": 0.22058799999999223,
          "durationTicks": 60,
          "midi": 79,
          "name": "G5",
          "ticks": 33960,
          "time": 124.85280800000001,
          "velocity": 0.7007874015748031
        },
        {
          "duration": 0.22058800000000645,
          "durationTicks": 60,
          "midi": 81,
          "name": "A5",
          "ticks": 34020,
          "time": 125.073396,
          "velocity": 0.6377952755905512
        },
        {
          "duration": 0.18382333333333634,
          "durationTicks": 50,
          "midi": 79,
          "name": "G5",
          "ticks": 34080,
          "time": 125.29398400000001,
          "velocity": 0.7559055118110236
        },
        {
          "duration": 0.18382333333335055,
          "durationTicks": 50,
          "midi": 79,
          "name": "G5",
          "ticks": 34140,
          "time": 125.514572,
          "velocity": 0.6220472440944882
        },
        {
          "duration": 0.22058799999999223,
          "durationTicks": 60,
          "midi": 79,
          "name": "G5",
          "ticks": 34200,
          "time": 125.73516000000001,
          "velocity": 0.7401574803149606
        },
        {
          "duration": 0.22058800000000645,
          "durationTicks": 60,
          "midi": 74,
          "name": "D5",
          "ticks": 34260,
          "time": 125.955748,
          "velocity": 0.6614173228346457
        },
        {
          "duration": 0.22058800000000645,
          "durationTicks": 60,
          "midi": 72,
          "name": "C5",
          "ticks": 34380,
          "time": 126.396924,
          "velocity": 0.6771653543307087
        },
        {
          "duration": 0.22058800000000645,
          "durationTicks": 60,
          "midi": 76,
          "name": "E5",
          "ticks": 34500,
          "time": 126.8381,
          "velocity": 0.6692913385826772
        },
        {
          "duration": 0.22058799999999223,
          "durationTicks": 60,
          "midi": 76,
          "name": "E5",
          "ticks": 34620,
          "time": 127.27927600000001,
          "velocity": 0.7086614173228346
        },
        {
          "duration": 0.22058799999999223,
          "durationTicks": 60,
          "midi": 76,
          "name": "E5",
          "ticks": 34740,
          "time": 127.72045200000001,
          "velocity": 0.6929133858267716
        },
        {
          "duration": 0.19485273333333453,
          "durationTicks": 53,
          "midi": 76,
          "name": "E5",
          "ticks": 35040,
          "time": 128.823392,
          "velocity": 0.84251968503937
        },
        {
          "duration": 0.22058799999999223,
          "durationTicks": 60,
          "midi": 76,
          "name": "E5",
          "ticks": 35100,
          "time": 129.04398,
          "velocity": 0.7086614173228346
        },
        {
          "duration": 0.2058821333333185,
          "durationTicks": 56,
          "midi": 72,
          "name": "C5",
          "ticks": 35160,
          "time": 129.264568,
          "velocity": 0.8188976377952756
        },
        {
          "duration": 0.22058799999999223,
          "durationTicks": 60,
          "midi": 69,
          "name": "A4",
          "ticks": 35220,
          "time": 129.48515600000002,
          "velocity": 0.7401574803149606
        },
        {
          "duration": 0.22058799999999223,
          "durationTicks": 60,
          "midi": 69,
          "name": "A4",
          "ticks": 35340,
          "time": 129.926332,
          "velocity": 0.7322834645669292
        },
        {
          "duration": 0.22058799999999223,
          "durationTicks": 60,
          "midi": 74,
          "name": "D5",
          "ticks": 35460,
          "time": 130.36750800000002,
          "velocity": 0.7165354330708661
        },
        {
          "duration": 0.22058799999999223,
          "durationTicks": 60,
          "midi": 74,
          "name": "D5",
          "ticks": 35580,
          "time": 130.808684,
          "velocity": 0.7401574803149606
        },
        {
          "duration": 0.22058799999999223,
          "durationTicks": 60,
          "midi": 74,
          "name": "D5",
          "ticks": 35700,
          "time": 131.24986,
          "velocity": 0.7165354330708661
        },
        {
          "duration": 0.19485273333333453,
          "durationTicks": 53,
          "midi": 78,
          "name": "F#5",
          "ticks": 35760,
          "time": 131.470448,
          "velocity": 0.8110236220472441
        },
        {
          "duration": 0.22058800000002066,
          "durationTicks": 60,
          "midi": 78,
          "name": "F#5",
          "ticks": 35820,
          "time": 131.691036,
          "velocity": 0.7244094488188977
        },
        {
          "duration": 0.22058799999999223,
          "durationTicks": 60,
          "midi": 79,
          "name": "G5",
          "ticks": 35880,
          "time": 131.91162400000002,
          "velocity": 0.7952755905511811
        },
        {
          "duration": 0.22058799999999223,
          "durationTicks": 60,
          "midi": 81,
          "name": "A5",
          "ticks": 35940,
          "time": 132.132212,
          "velocity": 0.7244094488188977
        },
        {
          "duration": 0.18382333333335055,
          "durationTicks": 50,
          "midi": 79,
          "name": "G5",
          "ticks": 36000,
          "time": 132.3528,
          "velocity": 0.84251968503937
        },
        {
          "duration": 0.18382333333335055,
          "durationTicks": 50,
          "midi": 79,
          "name": "G5",
          "ticks": 36060,
          "time": 132.573388,
          "velocity": 0.7086614173228346
        },
        {
          "duration": 0.22058799999999223,
          "durationTicks": 60,
          "midi": 79,
          "name": "G5",
          "ticks": 36120,
          "time": 132.79397600000001,
          "velocity": 0.8188976377952756
        },
        {
          "duration": 0.22058799999999223,
          "durationTicks": 60,
          "midi": 74,
          "name": "D5",
          "ticks": 36180,
          "time": 133.014564,
          "velocity": 0.7401574803149606
        },
        {
          "duration": 0.22058800000002066,
          "durationTicks": 60,
          "midi": 72,
          "name": "C5",
          "ticks": 36300,
          "time": 133.45574,
          "velocity": 0.7322834645669292
        },
        {
          "duration": 0.22058799999999223,
          "durationTicks": 60,
          "midi": 76,
          "name": "E5",
          "ticks": 36420,
          "time": 133.896916,
          "velocity": 0.7165354330708661
        },
        {
          "duration": 0.22058799999999223,
          "durationTicks": 60,
          "midi": 76,
          "name": "E5",
          "ticks": 36540,
          "time": 134.33809200000002,
          "velocity": 0.7401574803149606
        },
        {
          "duration": 0.22058799999999223,
          "durationTicks": 60,
          "midi": 76,
          "name": "E5",
          "ticks": 36660,
          "time": 134.779268,
          "velocity": 0.7165354330708661
        },
        {
          "duration": 0.1911762666666732,
          "durationTicks": 52,
          "midi": 74,
          "name": "D5",
          "ticks": 36720,
          "time": 134.999856,
          "velocity": 0.8110236220472441
        },
        {
          "duration": 0.22058799999999223,
          "durationTicks": 60,
          "midi": 74,
          "name": "D5",
          "ticks": 36780,
          "time": 135.22044400000001,
          "velocity": 0.7244094488188977
        },
        {
          "duration": 0.22058799999999223,
          "durationTicks": 60,
          "midi": 76,
          "name": "E5",
          "ticks": 36840,
          "time": 135.441032,
          "velocity": 0.7952755905511811
        },
        {
          "duration": 0.22058799999999223,
          "durationTicks": 60,
          "midi": 74,
          "name": "D5",
          "ticks": 36900,
          "time": 135.66162,
          "velocity": 0.7244094488188977
        },
        {
          "duration": 0.19485273333333453,
          "durationTicks": 53,
          "midi": 76,
          "name": "E5",
          "ticks": 36960,
          "time": 135.882208,
          "velocity": 0.84251968503937
        },
        {
          "duration": 0.22058799999999223,
          "durationTicks": 60,
          "midi": 76,
          "name": "E5",
          "ticks": 37020,
          "time": 136.102796,
          "velocity": 0.7086614173228346
        },
        {
          "duration": 0.2058821333333185,
          "durationTicks": 56,
          "midi": 72,
          "name": "C5",
          "ticks": 37080,
          "time": 136.323384,
          "velocity": 0.8188976377952756
        },
        {
          "duration": 0.22058800000002066,
          "durationTicks": 60,
          "midi": 69,
          "name": "A4",
          "ticks": 37140,
          "time": 136.543972,
          "velocity": 0.7401574803149606
        },
        {
          "duration": 0.22058799999999223,
          "durationTicks": 60,
          "midi": 69,
          "name": "A4",
          "ticks": 37260,
          "time": 136.985148,
          "velocity": 0.7322834645669292
        },
        {
          "duration": 0.22058800000002066,
          "durationTicks": 60,
          "midi": 74,
          "name": "D5",
          "ticks": 37380,
          "time": 137.426324,
          "velocity": 0.7165354330708661
        },
        {
          "duration": 0.22058799999999223,
          "durationTicks": 60,
          "midi": 74,
          "name": "D5",
          "ticks": 37500,
          "time": 137.8675,
          "velocity": 0.7401574803149606
        },
        {
          "duration": 0.22058800000002066,
          "durationTicks": 60,
          "midi": 74,
          "name": "D5",
          "ticks": 37620,
          "time": 138.308676,
          "velocity": 0.7165354330708661
        },
        {
          "duration": 0.19485273333333453,
          "durationTicks": 53,
          "midi": 78,
          "name": "F#5",
          "ticks": 37680,
          "time": 138.529264,
          "velocity": 0.8110236220472441
        },
        {
          "duration": 0.22058799999999223,
          "durationTicks": 60,
          "midi": 78,
          "name": "F#5",
          "ticks": 37740,
          "time": 138.749852,
          "velocity": 0.7244094488188977
        },
        {
          "duration": 0.22058800000002066,
          "durationTicks": 60,
          "midi": 79,
          "name": "G5",
          "ticks": 37800,
          "time": 138.97044,
          "velocity": 0.7952755905511811
        },
        {
          "duration": 0.22058799999999223,
          "durationTicks": 60,
          "midi": 81,
          "name": "A5",
          "ticks": 37860,
          "time": 139.19102800000002,
          "velocity": 0.7244094488188977
        },
        {
          "duration": 0.18382333333335055,
          "durationTicks": 50,
          "midi": 79,
          "name": "G5",
          "ticks": 37920,
          "time": 139.411616,
          "velocity": 0.84251968503937
        },
        {
          "duration": 0.18382333333335055,
          "durationTicks": 50,
          "midi": 79,
          "name": "G5",
          "ticks": 37980,
          "time": 139.632204,
          "velocity": 0.7086614173228346
        },
        {
          "duration": 0.22058800000002066,
          "durationTicks": 60,
          "midi": 79,
          "name": "G5",
          "ticks": 38040,
          "time": 139.852792,
          "velocity": 0.8188976377952756
        },
        {
          "duration": 0.22058799999999223,
          "durationTicks": 60,
          "midi": 74,
          "name": "D5",
          "ticks": 38100,
          "time": 140.07338000000001,
          "velocity": 0.7401574803149606
        },
        {
          "duration": 0.22058799999999223,
          "durationTicks": 60,
          "midi": 72,
          "name": "C5",
          "ticks": 38220,
          "time": 140.514556,
          "velocity": 0.7322834645669292
        },
        {
          "duration": 0.22058799999999223,
          "durationTicks": 60,
          "midi": 76,
          "name": "E5",
          "ticks": 38340,
          "time": 140.955732,
          "velocity": 0.7165354330708661
        },
        {
          "duration": 0.19485273333333453,
          "durationTicks": 53,
          "midi": 76,
          "name": "E5",
          "ticks": 44640,
          "time": 164.117472,
          "velocity": 0.6456692913385826
        },
        {
          "duration": 0.22058799999999223,
          "durationTicks": 60,
          "midi": 76,
          "name": "E5",
          "ticks": 44700,
          "time": 164.33806,
          "velocity": 0.5118110236220472
        },
        {
          "duration": 0.2058821333333185,
          "durationTicks": 56,
          "midi": 72,
          "name": "C5",
          "ticks": 44760,
          "time": 164.558648,
          "velocity": 0.6299212598425197
        },
        {
          "duration": 0.22058800000002066,
          "durationTicks": 60,
          "midi": 69,
          "name": "A4",
          "ticks": 44820,
          "time": 164.779236,
          "velocity": 0.5354330708661418
        },
        {
          "duration": 0.22058799999999223,
          "durationTicks": 60,
          "midi": 69,
          "name": "A4",
          "ticks": 44940,
          "time": 165.220412,
          "velocity": 0.5354330708661418
        },
        {
          "duration": 0.22058800000002066,
          "durationTicks": 60,
          "midi": 74,
          "name": "D5",
          "ticks": 45060,
          "time": 165.661588,
          "velocity": 0.5118110236220472
        },
        {
          "duration": 0.22058799999999223,
          "durationTicks": 60,
          "midi": 74,
          "name": "D5",
          "ticks": 45180,
          "time": 166.102764,
          "velocity": 0.5433070866141733
        },
        {
          "duration": 0.22058800000002066,
          "durationTicks": 60,
          "midi": 74,
          "name": "D5",
          "ticks": 45300,
          "time": 166.54394,
          "velocity": 0.5196850393700787
        },
        {
          "duration": 0.19485273333333453,
          "durationTicks": 53,
          "midi": 78,
          "name": "F#5",
          "ticks": 45360,
          "time": 166.764528,
          "velocity": 0.6299212598425197
        },
        {
          "duration": 0.22058799999999223,
          "durationTicks": 60,
          "midi": 78,
          "name": "F#5",
          "ticks": 45420,
          "time": 166.985116,
          "velocity": 0.5275590551181102
        },
        {
          "duration": 0.22058800000002066,
          "durationTicks": 60,
          "midi": 79,
          "name": "G5",
          "ticks": 45480,
          "time": 167.205704,
          "velocity": 0.6141732283464567
        },
        {
          "duration": 0.22058799999999223,
          "durationTicks": 60,
          "midi": 81,
          "name": "A5",
          "ticks": 45540,
          "time": 167.42629200000002,
          "velocity": 0.5275590551181102
        },
        {
          "duration": 0.18382333333335055,
          "durationTicks": 50,
          "midi": 79,
          "name": "G5",
          "ticks": 45600,
          "time": 167.64688,
          "velocity": 0.6614173228346457
        },
        {
          "duration": 0.18382333333335055,
          "durationTicks": 50,
          "midi": 79,
          "name": "G5",
          "ticks": 45660,
          "time": 167.867468,
          "velocity": 0.5275590551181102
        },
        {
          "duration": 0.22058800000002066,
          "durationTicks": 60,
          "midi": 79,
          "name": "G5",
          "ticks": 45720,
          "time": 168.088056,
          "velocity": 0.6377952755905512
        },
        {
          "duration": 0.22058799999999223,
          "durationTicks": 60,
          "midi": 74,
          "name": "D5",
          "ticks": 45780,
          "time": 168.30864400000002,
          "velocity": 0.5511811023622047
        },
        {
          "duration": 0.22058799999999223,
          "durationTicks": 60,
          "midi": 72,
          "name": "C5",
          "ticks": 45900,
          "time": 168.74982,
          "velocity": 0.5511811023622047
        },
        {
          "duration": 0.4705877333333319,
          "durationTicks": 128,
          "midi": 76,
          "name": "E5",
          "ticks": 46020,
          "time": 169.190996,
          "velocity": 0.5433070866141733
        },
        {
          "duration": 0.19485273333333453,
          "durationTicks": 53,
          "midi": 76,
          "name": "E5",
          "ticks": 50400,
          "time": 185.29392,
          "velocity": 0.6456692913385826
        },
        {
          "duration": 0.22058799999999223,
          "durationTicks": 60,
          "midi": 76,
          "name": "E5",
          "ticks": 50460,
          "time": 185.514508,
          "velocity": 0.5118110236220472
        },
        {
          "duration": 0.2058821333333185,
          "durationTicks": 56,
          "midi": 72,
          "name": "C5",
          "ticks": 50520,
          "time": 185.735096,
          "velocity": 0.6299212598425197
        },
        {
          "duration": 0.22058799999999223,
          "durationTicks": 60,
          "midi": 69,
          "name": "A4",
          "ticks": 50580,
          "time": 185.95568400000002,
          "velocity": 0.5354330708661418
        },
        {
          "duration": 0.22058799999999223,
          "durationTicks": 60,
          "midi": 69,
          "name": "A4",
          "ticks": 50700,
          "time": 186.39686,
          "velocity": 0.5354330708661418
        },
        {
          "duration": 0.22058799999999223,
          "durationTicks": 60,
          "midi": 74,
          "name": "D5",
          "ticks": 50820,
          "time": 186.83803600000002,
          "velocity": 0.5118110236220472
        },
        {
          "duration": 0.22058799999999223,
          "durationTicks": 60,
          "midi": 74,
          "name": "D5",
          "ticks": 50940,
          "time": 187.279212,
          "velocity": 0.5433070866141733
        },
        {
          "duration": 0.22058799999999223,
          "durationTicks": 60,
          "midi": 74,
          "name": "D5",
          "ticks": 51060,
          "time": 187.720388,
          "velocity": 0.5196850393700787
        },
        {
          "duration": 0.19485273333333453,
          "durationTicks": 53,
          "midi": 78,
          "name": "F#5",
          "ticks": 51120,
          "time": 187.940976,
          "velocity": 0.6299212598425197
        },
        {
          "duration": 0.22058800000002066,
          "durationTicks": 60,
          "midi": 78,
          "name": "F#5",
          "ticks": 51180,
          "time": 188.161564,
          "velocity": 0.5275590551181102
        },
        {
          "duration": 0.22058799999999223,
          "durationTicks": 60,
          "midi": 79,
          "name": "G5",
          "ticks": 51240,
          "time": 188.38215200000002,
          "velocity": 0.6141732283464567
        },
        {
          "duration": 0.22058799999999223,
          "durationTicks": 60,
          "midi": 81,
          "name": "A5",
          "ticks": 51300,
          "time": 188.60274,
          "velocity": 0.5275590551181102
        },
        {
          "duration": 0.18382333333335055,
          "durationTicks": 50,
          "midi": 79,
          "name": "G5",
          "ticks": 51360,
          "time": 188.823328,
          "velocity": 0.6614173228346457
        },
        {
          "duration": 0.18382333333335055,
          "durationTicks": 50,
          "midi": 79,
          "name": "G5",
          "ticks": 51420,
          "time": 189.043916,
          "velocity": 0.5275590551181102
        },
        {
          "duration": 0.22058799999999223,
          "durationTicks": 60,
          "midi": 79,
          "name": "G5",
          "ticks": 51480,
          "time": 189.26450400000002,
          "velocity": 0.6377952755905512
        },
        {
          "duration": 0.22058799999999223,
          "durationTicks": 60,
          "midi": 74,
          "name": "D5",
          "ticks": 51540,
          "time": 189.485092,
          "velocity": 0.5511811023622047
        },
        {
          "duration": 0.22058800000002066,
          "durationTicks": 60,
          "midi": 72,
          "name": "C5",
          "ticks": 51660,
          "time": 189.926268,
          "velocity": 0.5511811023622047
        },
        {
          "duration": 0.22058799999999223,
          "durationTicks": 60,
          "midi": 76,
          "name": "E5",
          "ticks": 51780,
          "time": 190.367444,
          "velocity": 0.5433070866141733
        },
        {
          "duration": 0.22058799999999223,
          "durationTicks": 60,
          "midi": 76,
          "name": "E5",
          "ticks": 51900,
          "time": 190.80862000000002,
          "velocity": 0.5669291338582677
        },
        {
          "duration": 0.22058799999999223,
          "durationTicks": 60,
          "midi": 76,
          "name": "E5",
          "ticks": 52020,
          "time": 191.249796,
          "velocity": 0.5590551181102362
        },
        {
          "duration": 0.1911762666666732,
          "durationTicks": 52,
          "midi": 74,
          "name": "D5",
          "ticks": 52080,
          "time": 191.470384,
          "velocity": 0.6535433070866141
        },
        {
          "duration": 0.22058799999999223,
          "durationTicks": 60,
          "midi": 74,
          "name": "D5",
          "ticks": 52140,
          "time": 191.69097200000002,
          "velocity": 0.5669291338582677
        },
        {
          "duration": 0.22058799999999223,
          "durationTicks": 60,
          "midi": 76,
          "name": "E5",
          "ticks": 52200,
          "time": 191.91156,
          "velocity": 0.6456692913385826
        },
        {
          "duration": 0.22058799999999223,
          "durationTicks": 60,
          "midi": 74,
          "name": "D5",
          "ticks": 52260,
          "time": 192.132148,
          "velocity": 0.5748031496062992
        },
        {
          "duration": 0.19485273333333453,
          "durationTicks": 53,
          "midi": 76,
          "name": "E5",
          "ticks": 52320,
          "time": 192.352736,
          "velocity": 0.6929133858267716
        },
        {
          "duration": 0.22058799999999223,
          "durationTicks": 60,
          "midi": 76,
          "name": "E5",
          "ticks": 52380,
          "time": 192.573324,
          "velocity": 0.5669291338582677
        },
        {
          "duration": 0.2058821333333185,
          "durationTicks": 56,
          "midi": 72,
          "name": "C5",
          "ticks": 52440,
          "time": 192.793912,
          "velocity": 0.6771653543307087
        },
        {
          "duration": 0.22058800000002066,
          "durationTicks": 60,
          "midi": 69,
          "name": "A4",
          "ticks": 52500,
          "time": 193.0145,
          "velocity": 0.5905511811023622
        },
        {
          "duration": 0.22058799999999223,
          "durationTicks": 60,
          "midi": 69,
          "name": "A4",
          "ticks": 52620,
          "time": 193.455676,
          "velocity": 0.6062992125984252
        },
        {
          "duration": 0.22058800000002066,
          "durationTicks": 60,
          "midi": 74,
          "name": "D5",
          "ticks": 52740,
          "time": 193.896852,
          "velocity": 0.5905511811023622
        },
        {
          "duration": 0.22058799999999223,
          "durationTicks": 60,
          "midi": 74,
          "name": "D5",
          "ticks": 52860,
          "time": 194.338028,
          "velocity": 0.6220472440944882
        },
        {
          "duration": 0.22058800000002066,
          "durationTicks": 60,
          "midi": 74,
          "name": "D5",
          "ticks": 52980,
          "time": 194.779204,
          "velocity": 0.6141732283464567
        },
        {
          "duration": 0.19485273333333453,
          "durationTicks": 53,
          "midi": 78,
          "name": "F#5",
          "ticks": 53040,
          "time": 194.999792,
          "velocity": 0.7165354330708661
        },
        {
          "duration": 0.22058799999999223,
          "durationTicks": 60,
          "midi": 78,
          "name": "F#5",
          "ticks": 53100,
          "time": 195.22038,
          "velocity": 0.6220472440944882
        },
        {
          "duration": 0.22058800000002066,
          "durationTicks": 60,
          "midi": 79,
          "name": "G5",
          "ticks": 53160,
          "time": 195.440968,
          "velocity": 0.7007874015748031
        },
        {
          "duration": 0.22058799999999223,
          "durationTicks": 60,
          "midi": 81,
          "name": "A5",
          "ticks": 53220,
          "time": 195.66155600000002,
          "velocity": 0.6377952755905512
        },
        {
          "duration": 0.18382333333335055,
          "durationTicks": 50,
          "midi": 79,
          "name": "G5",
          "ticks": 53280,
          "time": 195.882144,
          "velocity": 0.7559055118110236
        },
        {
          "duration": 0.18382333333335055,
          "durationTicks": 50,
          "midi": 79,
          "name": "G5",
          "ticks": 53340,
          "time": 196.102732,
          "velocity": 0.6220472440944882
        },
        {
          "duration": 0.22058800000002066,
          "durationTicks": 60,
          "midi": 79,
          "name": "G5",
          "ticks": 53400,
          "time": 196.32332,
          "velocity": 0.7401574803149606
        },
        {
          "duration": 0.22058799999999223,
          "durationTicks": 60,
          "midi": 74,
          "name": "D5",
          "ticks": 53460,
          "time": 196.54390800000002,
          "velocity": 0.6614173228346457
        },
        {
          "duration": 0.22058799999999223,
          "durationTicks": 60,
          "midi": 72,
          "name": "C5",
          "ticks": 53580,
          "time": 196.985084,
          "velocity": 0.6771653543307087
        },
        {
          "duration": 0.22058799999999223,
          "durationTicks": 60,
          "midi": 76,
          "name": "E5",
          "ticks": 53700,
          "time": 197.42626,
          "velocity": 0.6692913385826772
        },
        {
          "duration": 0.22058800000002066,
          "durationTicks": 60,
          "midi": 76,
          "name": "E5",
          "ticks": 53820,
          "time": 197.867436,
          "velocity": 0.7086614173228346
        },
        {
          "duration": 0.22058799999999223,
          "durationTicks": 60,
          "midi": 76,
          "name": "E5",
          "ticks": 53940,
          "time": 198.308612,
          "velocity": 0.6929133858267716
        },
        {
          "duration": 0.19485273333333453,
          "durationTicks": 53,
          "midi": 76,
          "name": "E5",
          "ticks": 54240,
          "time": 199.411552,
          "velocity": 0.84251968503937
        },
        {
          "duration": 0.22058800000002066,
          "durationTicks": 60,
          "midi": 76,
          "name": "E5",
          "ticks": 54300,
          "time": 199.63214,
          "velocity": 0.7086614173228346
        },
        {
          "duration": 0.2058821333333185,
          "durationTicks": 56,
          "midi": 72,
          "name": "C5",
          "ticks": 54360,
          "time": 199.852728,
          "velocity": 0.8188976377952756
        },
        {
          "duration": 0.22058799999999223,
          "durationTicks": 60,
          "midi": 69,
          "name": "A4",
          "ticks": 54420,
          "time": 200.073316,
          "velocity": 0.7401574803149606
        },
        {
          "duration": 0.22058799999999223,
          "durationTicks": 60,
          "midi": 69,
          "name": "A4",
          "ticks": 54540,
          "time": 200.51449200000002,
          "velocity": 0.7322834645669292
        },
        {
          "duration": 0.22058799999999223,
          "durationTicks": 60,
          "midi": 74,
          "name": "D5",
          "ticks": 54660,
          "time": 200.955668,
          "velocity": 0.7165354330708661
        },
        {
          "duration": 0.22058799999999223,
          "durationTicks": 60,
          "midi": 74,
          "name": "D5",
          "ticks": 54780,
          "time": 201.39684400000002,
          "velocity": 0.7401574803149606
        },
        {
          "duration": 0.22058799999999223,
          "durationTicks": 60,
          "midi": 74,
          "name": "D5",
          "ticks": 54900,
          "time": 201.83802,
          "velocity": 0.7165354330708661
        },
        {
          "duration": 0.19485273333333453,
          "durationTicks": 53,
          "midi": 78,
          "name": "F#5",
          "ticks": 54960,
          "time": 202.058608,
          "velocity": 0.8110236220472441
        },
        {
          "duration": 0.22058799999999223,
          "durationTicks": 60,
          "midi": 78,
          "name": "F#5",
          "ticks": 55020,
          "time": 202.279196,
          "velocity": 0.7244094488188977
        },
        {
          "duration": 0.22058799999999223,
          "durationTicks": 60,
          "midi": 79,
          "name": "G5",
          "ticks": 55080,
          "time": 202.499784,
          "velocity": 0.7952755905511811
        },
        {
          "duration": 0.22058800000002066,
          "durationTicks": 60,
          "midi": 81,
          "name": "A5",
          "ticks": 55140,
          "time": 202.720372,
          "velocity": 0.7244094488188977
        },
        {
          "duration": 0.18382333333332213,
          "durationTicks": 50,
          "midi": 79,
          "name": "G5",
          "ticks": 55200,
          "time": 202.94096000000002,
          "velocity": 0.84251968503937
        },
        {
          "duration": 0.18382333333335055,
          "durationTicks": 50,
          "midi": 79,
          "name": "G5",
          "ticks": 55260,
          "time": 203.161548,
          "velocity": 0.7086614173228346
        },
        {
          "duration": 0.22058799999999223,
          "durationTicks": 60,
          "midi": 79,
          "name": "G5",
          "ticks": 55320,
          "time": 203.382136,
          "velocity": 0.8188976377952756
        },
        {
          "duration": 0.22058800000002066,
          "durationTicks": 60,
          "midi": 74,
          "name": "D5",
          "ticks": 55380,
          "time": 203.602724,
          "velocity": 0.7401574803149606
        },
        {
          "duration": 0.22058799999999223,
          "durationTicks": 60,
          "midi": 72,
          "name": "C5",
          "ticks": 55500,
          "time": 204.0439,
          "velocity": 0.7322834645669292
        },
        {
          "duration": 0.22058800000002066,
          "durationTicks": 60,
          "midi": 76,
          "name": "E5",
          "ticks": 55620,
          "time": 204.485076,
          "velocity": 0.7165354330708661
        },
        {
          "duration": 0.22058799999999223,
          "durationTicks": 60,
          "midi": 76,
          "name": "E5",
          "ticks": 55740,
          "time": 204.926252,
          "velocity": 0.7401574803149606
        },
        {
          "duration": 0.22058799999999223,
          "durationTicks": 60,
          "midi": 76,
          "name": "E5",
          "ticks": 55860,
          "time": 205.36742800000002,
          "velocity": 0.7165354330708661
        },
        {
          "duration": 0.1911762666666732,
          "durationTicks": 52,
          "midi": 74,
          "name": "D5",
          "ticks": 55920,
          "time": 205.588016,
          "velocity": 0.8110236220472441
        },
        {
          "duration": 0.22058799999999223,
          "durationTicks": 60,
          "midi": 74,
          "name": "D5",
          "ticks": 55980,
          "time": 205.808604,
          "velocity": 0.7244094488188977
        },
        {
          "duration": 0.22058800000002066,
          "durationTicks": 60,
          "midi": 76,
          "name": "E5",
          "ticks": 56040,
          "time": 206.029192,
          "velocity": 0.7952755905511811
        },
        {
          "duration": 0.22058799999999223,
          "durationTicks": 60,
          "midi": 74,
          "name": "D5",
          "ticks": 56100,
          "time": 206.24978000000002,
          "velocity": 0.7244094488188977
        },
        {
          "duration": 0.19485273333333453,
          "durationTicks": 53,
          "midi": 76,
          "name": "E5",
          "ticks": 56160,
          "time": 206.470368,
          "velocity": 0.84251968503937
        },
        {
          "duration": 0.22058799999999223,
          "durationTicks": 60,
          "midi": 76,
          "name": "E5",
          "ticks": 56220,
          "time": 206.690956,
          "velocity": 0.7086614173228346
        },
        {
          "duration": 0.20588213333334693,
          "durationTicks": 56,
          "midi": 72,
          "name": "C5",
          "ticks": 56280,
          "time": 206.911544,
          "velocity": 0.8188976377952756
        },
        {
          "duration": 0.22058799999999223,
          "durationTicks": 60,
          "midi": 69,
          "name": "A4",
          "ticks": 56340,
          "time": 207.132132,
          "velocity": 0.7401574803149606
        },
        {
          "duration": 0.22058800000002066,
          "durationTicks": 60,
          "midi": 69,
          "name": "A4",
          "ticks": 56460,
          "time": 207.573308,
          "velocity": 0.7322834645669292
        },
        {
          "duration": 0.22058799999999223,
          "durationTicks": 60,
          "midi": 74,
          "name": "D5",
          "ticks": 56580,
          "time": 208.014484,
          "velocity": 0.7165354330708661
        },
        {
          "duration": 0.22058800000002066,
          "durationTicks": 60,
          "midi": 74,
          "name": "D5",
          "ticks": 56700,
          "time": 208.45566,
          "velocity": 0.7401574803149606
        },
        {
          "duration": 0.22058799999999223,
          "durationTicks": 60,
          "midi": 74,
          "name": "D5",
          "ticks": 56820,
          "time": 208.896836,
          "velocity": 0.7165354330708661
        },
        {
          "duration": 0.19485273333333453,
          "durationTicks": 53,
          "midi": 78,
          "name": "F#5",
          "ticks": 56880,
          "time": 209.117424,
          "velocity": 0.8110236220472441
        },
        {
          "duration": 0.22058800000002066,
          "durationTicks": 60,
          "midi": 78,
          "name": "F#5",
          "ticks": 56940,
          "time": 209.338012,
          "velocity": 0.7244094488188977
        },
        {
          "duration": 0.22058799999999223,
          "durationTicks": 60,
          "midi": 79,
          "name": "G5",
          "ticks": 57000,
          "time": 209.5586,
          "velocity": 0.7952755905511811
        },
        {
          "duration": 0.22058799999999223,
          "durationTicks": 60,
          "midi": 81,
          "name": "A5",
          "ticks": 57060,
          "time": 209.779188,
          "velocity": 0.7244094488188977
        },
        {
          "duration": 0.18382333333335055,
          "durationTicks": 50,
          "midi": 79,
          "name": "G5",
          "ticks": 57120,
          "time": 209.999776,
          "velocity": 0.84251968503937
        },
        {
          "duration": 0.18382333333332213,
          "durationTicks": 50,
          "midi": 79,
          "name": "G5",
          "ticks": 57180,
          "time": 210.22036400000002,
          "velocity": 0.7086614173228346
        },
        {
          "duration": 0.22058799999999223,
          "durationTicks": 60,
          "midi": 79,
          "name": "G5",
          "ticks": 57240,
          "time": 210.440952,
          "velocity": 0.8188976377952756
        },
        {
          "duration": 0.22058799999999223,
          "durationTicks": 60,
          "midi": 74,
          "name": "D5",
          "ticks": 57300,
          "time": 210.66154,
          "velocity": 0.7401574803149606
        },
        {
          "duration": 0.22058799999999223,
          "durationTicks": 60,
          "midi": 72,
          "name": "C5",
          "ticks": 57420,
          "time": 211.10271600000002,
          "velocity": 0.7322834645669292
        },
        {
          "duration": 0.22058799999999223,
          "durationTicks": 60,
          "midi": 76,
          "name": "E5",
          "ticks": 57540,
          "time": 211.543892,
          "velocity": 0.7165354330708661
        },
        {
          "duration": 0.22058799999999223,
          "durationTicks": 60,
          "midi": 76,
          "name": "E5",
          "ticks": 57660,
          "time": 211.985068,
          "velocity": 0.7401574803149606
        },
        {
          "duration": 0.22058800000002066,
          "durationTicks": 60,
          "midi": 76,
          "name": "E5",
          "ticks": 57780,
          "time": 212.426244,
          "velocity": 0.7165354330708661
        },
        {
          "duration": 0.19117626666664478,
          "durationTicks": 52,
          "midi": 74,
          "name": "D5",
          "ticks": 57840,
          "time": 212.64683200000002,
          "velocity": 0.8110236220472441
        },
        {
          "duration": 0.22058799999999223,
          "durationTicks": 60,
          "midi": 74,
          "name": "D5",
          "ticks": 57900,
          "time": 212.86742,
          "velocity": 0.7244094488188977
        },
        {
          "duration": 0.22058799999999223,
          "durationTicks": 60,
          "midi": 76,
          "name": "E5",
          "ticks": 57960,
          "time": 213.088008,
          "velocity": 0.7952755905511811
        },
        {
          "duration": 0.22058800000002066,
          "durationTicks": 60,
          "midi": 74,
          "name": "D5",
          "ticks": 58020,
          "time": 213.308596,
          "velocity": 0.7244094488188977
        },
        {
          "duration": 0.19485273333333453,
          "durationTicks": 53,
          "midi": 76,
          "name": "E5",
          "ticks": 58080,
          "time": 213.52918400000001,
          "velocity": 0.84251968503937
        },
        {
          "duration": 0.22058799999999223,
          "durationTicks": 60,
          "midi": 76,
          "name": "E5",
          "ticks": 58140,
          "time": 213.749772,
          "velocity": 0.7086614173228346
        },
        {
          "duration": 0.2058821333333185,
          "durationTicks": 56,
          "midi": 72,
          "name": "C5",
          "ticks": 58200,
          "time": 213.97036,
          "velocity": 0.8188976377952756
        },
        {
          "duration": 0.22058799999999223,
          "durationTicks": 60,
          "midi": 69,
          "name": "A4",
          "ticks": 58260,
          "time": 214.19094800000002,
          "velocity": 0.7401574803149606
        },
        {
          "duration": 0.22058799999999223,
          "durationTicks": 60,
          "midi": 69,
          "name": "A4",
          "ticks": 58380,
          "time": 214.632124,
          "velocity": 0.7322834645669292
        },
        {
          "duration": 0.22058799999999223,
          "durationTicks": 60,
          "midi": 74,
          "name": "D5",
          "ticks": 58500,
          "time": 215.07330000000002,
          "velocity": 0.7165354330708661
        },
        {
          "duration": 0.22058799999999223,
          "durationTicks": 60,
          "midi": 74,
          "name": "D5",
          "ticks": 58620,
          "time": 215.514476,
          "velocity": 0.7401574803149606
        },
        {
          "duration": 0.22058799999999223,
          "durationTicks": 60,
          "midi": 74,
          "name": "D5",
          "ticks": 58740,
          "time": 215.95565200000001,
          "velocity": 0.7165354330708661
        },
        {
          "duration": 0.19485273333333453,
          "durationTicks": 53,
          "midi": 78,
          "name": "F#5",
          "ticks": 58800,
          "time": 216.17624,
          "velocity": 0.8110236220472441
        },
        {
          "duration": 0.22058800000002066,
          "durationTicks": 60,
          "midi": 78,
          "name": "F#5",
          "ticks": 58860,
          "time": 216.396828,
          "velocity": 0.7244094488188977
        },
        {
          "duration": 0.22058799999999223,
          "durationTicks": 60,
          "midi": 79,
          "name": "G5",
          "ticks": 58920,
          "time": 216.61741600000002,
          "velocity": 0.7952755905511811
        },
        {
          "duration": 0.22058799999999223,
          "durationTicks": 60,
          "midi": 81,
          "name": "A5",
          "ticks": 58980,
          "time": 216.838004,
          "velocity": 0.7244094488188977
        },
        {
          "duration": 0.18382333333335055,
          "durationTicks": 50,
          "midi": 79,
          "name": "G5",
          "ticks": 59040,
          "time": 217.058592,
          "velocity": 0.84251968503937
        },
        {
          "duration": 0.18382333333335055,
          "durationTicks": 50,
          "midi": 79,
          "name": "G5",
          "ticks": 59100,
          "time": 217.27918,
          "velocity": 0.7086614173228346
        },
        {
          "duration": 0.22058799999999223,
          "durationTicks": 60,
          "midi": 79,
          "name": "G5",
          "ticks": 59160,
          "time": 217.49976800000002,
          "velocity": 0.8188976377952756
        },
        {
          "duration": 0.22058799999999223,
          "durationTicks": 60,
          "midi": 74,
          "name": "D5",
          "ticks": 59220,
          "time": 217.720356,
          "velocity": 0.7401574803149606
        },
        {
          "duration": 0.22058800000002066,
          "durationTicks": 60,
          "midi": 72,
          "name": "C5",
          "ticks": 59340,
          "time": 218.161532,
          "velocity": 0.7322834645669292
        },
        {
          "duration": 0.22058799999999223,
          "durationTicks": 60,
          "midi": 76,
          "name": "E5",
          "ticks": 59460,
          "time": 218.602708,
          "velocity": 0.7165354330708661
        },
        {
          "duration": 0.22058799999999223,
          "durationTicks": 60,
          "midi": 76,
          "name": "E5",
          "ticks": 59580,
          "time": 219.04388400000002,
          "velocity": 0.7401574803149606
        },
        {
          "duration": 0.22058799999999223,
          "durationTicks": 60,
          "midi": 76,
          "name": "E5",
          "ticks": 59700,
          "time": 219.48506,
          "velocity": 0.7165354330708661
        },
        {
          "duration": 0.1911762666666732,
          "durationTicks": 52,
          "midi": 74,
          "name": "D5",
          "ticks": 59760,
          "time": 219.705648,
          "velocity": 0.8110236220472441
        },
        {
          "duration": 0.22058799999999223,
          "durationTicks": 60,
          "midi": 74,
          "name": "D5",
          "ticks": 59820,
          "time": 219.92623600000002,
          "velocity": 0.7244094488188977
        },
        {
          "duration": 0.22058799999999223,
          "durationTicks": 60,
          "midi": 76,
          "name": "E5",
          "ticks": 59880,
          "time": 220.146824,
          "velocity": 0.7952755905511811
        },
        {
          "duration": 0.22058799999999223,
          "durationTicks": 60,
          "midi": 74,
          "name": "D5",
          "ticks": 59940,
          "time": 220.367412,
          "velocity": 0.7244094488188977
        },
        {
          "duration": 0.19485273333333453,
          "durationTicks": 53,
          "midi": 76,
          "name": "E5",
          "ticks": 60000,
          "time": 220.588,
          "velocity": 0.84251968503937
        },
        {
          "duration": 0.22058799999999223,
          "durationTicks": 60,
          "midi": 76,
          "name": "E5",
          "ticks": 60060,
          "time": 220.80858800000001,
          "velocity": 0.7086614173228346
        },
        {
          "duration": 0.2058821333333185,
          "durationTicks": 56,
          "midi": 72,
          "name": "C5",
          "ticks": 60120,
          "time": 221.029176,
          "velocity": 0.8188976377952756
        },
        {
          "duration": 0.22058800000002066,
          "durationTicks": 60,
          "midi": 69,
          "name": "A4",
          "ticks": 60180,
          "time": 221.249764,
          "velocity": 0.7401574803149606
        },
        {
          "duration": 0.22058799999999223,
          "durationTicks": 60,
          "midi": 69,
          "name": "A4",
          "ticks": 60300,
          "time": 221.69094,
          "velocity": 0.7322834645669292
        },
        {
          "duration": 0.22058800000002066,
          "durationTicks": 60,
          "midi": 74,
          "name": "D5",
          "ticks": 60420,
          "time": 222.132116,
          "velocity": 0.7165354330708661
        },
        {
          "duration": 0.22058799999999223,
          "durationTicks": 60,
          "midi": 74,
          "name": "D5",
          "ticks": 60540,
          "time": 222.573292,
          "velocity": 0.7401574803149606
        },
        {
          "duration": 0.22058800000002066,
          "durationTicks": 60,
          "midi": 74,
          "name": "D5",
          "ticks": 60660,
          "time": 223.014468,
          "velocity": 0.7165354330708661
        },
        {
          "duration": 0.19485273333333453,
          "durationTicks": 53,
          "midi": 78,
          "name": "F#5",
          "ticks": 60720,
          "time": 223.23505600000001,
          "velocity": 0.8110236220472441
        },
        {
          "duration": 0.22058799999999223,
          "durationTicks": 60,
          "midi": 78,
          "name": "F#5",
          "ticks": 60780,
          "time": 223.455644,
          "velocity": 0.7244094488188977
        },
        {
          "duration": 0.22058800000002066,
          "durationTicks": 60,
          "midi": 79,
          "name": "G5",
          "ticks": 60840,
          "time": 223.676232,
          "velocity": 0.7952755905511811
        },
        {
          "duration": 0.22058799999999223,
          "durationTicks": 60,
          "midi": 81,
          "name": "A5",
          "ticks": 60900,
          "time": 223.89682000000002,
          "velocity": 0.7244094488188977
        },
        {
          "duration": 0.18382333333335055,
          "durationTicks": 50,
          "midi": 79,
          "name": "G5",
          "ticks": 60960,
          "time": 224.117408,
          "velocity": 0.84251968503937
        },
        {
          "duration": 0.18382333333335055,
          "durationTicks": 50,
          "midi": 79,
          "name": "G5",
          "ticks": 61020,
          "time": 224.337996,
          "velocity": 0.7086614173228346
        },
        {
          "duration": 0.22058800000002066,
          "durationTicks": 60,
          "midi": 79,
          "name": "G5",
          "ticks": 61080,
          "time": 224.558584,
          "velocity": 0.8188976377952756
        },
        {
          "duration": 0.22058799999999223,
          "durationTicks": 60,
          "midi": 74,
          "name": "D5",
          "ticks": 61140,
          "time": 224.77917200000002,
          "velocity": 0.7401574803149606
        },
        {
          "duration": 0.22058799999999223,
          "durationTicks": 60,
          "midi": 72,
          "name": "C5",
          "ticks": 61260,
          "time": 225.220348,
          "velocity": 0.7322834645669292
        },
        {
          "duration": 0.22058799999999223,
          "durationTicks": 60,
          "midi": 76,
          "name": "E5",
          "ticks": 61380,
          "time": 225.66152400000001,
          "velocity": 0.7165354330708661
        },
        {
          "duration": 0.22058800000002066,
          "durationTicks": 60,
          "midi": 76,
          "name": "E5",
          "ticks": 61500,
          "time": 226.1027,
          "velocity": 0.7401574803149606
        },
        {
          "duration": 0.22058799999999223,
          "durationTicks": 60,
          "midi": 76,
          "name": "E5",
          "ticks": 61620,
          "time": 226.543876,
          "velocity": 0.7165354330708661
        },
        {
          "duration": 0.19117626666664478,
          "durationTicks": 52,
          "midi": 74,
          "name": "D5",
          "ticks": 61680,
          "time": 226.764464,
          "velocity": 0.8110236220472441
        },
        {
          "duration": 0.22058800000002066,
          "durationTicks": 60,
          "midi": 74,
          "name": "D5",
          "ticks": 61740,
          "time": 226.985052,
          "velocity": 0.7244094488188977
        },
        {
          "duration": 0.22058799999999223,
          "durationTicks": 60,
          "midi": 76,
          "name": "E5",
          "ticks": 61800,
          "time": 227.20564000000002,
          "velocity": 0.7952755905511811
        },
        {
          "duration": 0.22058799999999223,
          "durationTicks": 60,
          "midi": 74,
          "name": "D5",
          "ticks": 61860,
          "time": 227.426228,
          "velocity": 0.7244094488188977
        },
        {
          "duration": 0.25367620000002944,
          "durationTicks": 69,
          "midi": 67,
          "name": "G4",
          "ticks": 62160,
          "time": 228.529168,
          "velocity": 0.7874015748031497
        }
      ],
      "endOfTrackTicks": 62229
    },
    {
      "channel": 11,
      "controlChanges": {
        "1": [
          {
            "number": 1,
            "ticks": 182,
            "time": 0.6691169333333333,
            "value": 0
          }
        ],
        "5": [
          {
            "number": 5,
            "ticks": 231,
            "time": 0.8492638,
            "value": 0
          }
        ],
        "7": [
          {
            "number": 7,
            "ticks": 0,
            "time": 0,
            "value": 0.7086614173228346
          }
        ],
        "10": [
          {
            "number": 10,
            "ticks": 3846,
            "time": 14.139690799999999,
            "value": 0
          },
          {
            "number": 10,
            "ticks": 3851,
            "time": 14.158073133333335,
            "value": 0.015748031496062992
          },
          {
            "number": 10,
            "ticks": 3855,
            "time": 14.172779,
            "value": 0.031496062992125984
          },
          {
            "number": 10,
            "ticks": 3859,
            "time": 14.187484866666667,
            "value": 0.047244094488188976
          },
          {
            "number": 10,
            "ticks": 3864,
            "time": 14.205867200000002,
            "value": 0.07086614173228346
          },
          {
            "number": 10,
            "ticks": 3868,
            "time": 14.220573066666667,
            "value": 0.08661417322834646
          },
          {
            "number": 10,
            "ticks": 3872,
            "time": 14.235278933333333,
            "value": 0.10236220472440945
          },
          {
            "number": 10,
            "ticks": 3876,
            "time": 14.2499848,
            "value": 0.11811023622047244
          },
          {
            "number": 10,
            "ticks": 3881,
            "time": 14.268367133333335,
            "value": 0.14173228346456693
          },
          {
            "number": 10,
            "ticks": 3885,
            "time": 14.283073,
            "value": 0.15748031496062992
          },
          {
            "number": 10,
            "ticks": 3889,
            "time": 14.297778866666667,
            "value": 0.1732283464566929
          },
          {
            "number": 10,
            "ticks": 3894,
            "time": 14.316161200000002,
            "value": 0.1889763779527559
          },
          {
            "number": 10,
            "ticks": 3898,
            "time": 14.330867066666668,
            "value": 0.2125984251968504
          },
          {
            "number": 10,
            "ticks": 3902,
            "time": 14.345572933333333,
            "value": 0.2283464566929134
          },
          {
            "number": 10,
            "ticks": 3906,
            "time": 14.3602788,
            "value": 0.2440944881889764
          },
          {
            "number": 10,
            "ticks": 3911,
            "time": 14.378661133333335,
            "value": 0.2677165354330709
          },
          {
            "number": 10,
            "ticks": 3915,
            "time": 14.393367,
            "value": 0.28346456692913385
          },
          {
            "number": 10,
            "ticks": 3919,
            "time": 14.408072866666666,
            "value": 0.2992125984251969
          },
          {
            "number": 10,
            "ticks": 3924,
            "time": 14.426455200000001,
            "value": 0.31496062992125984
          },
          {
            "number": 10,
            "ticks": 3928,
            "time": 14.441161066666668,
            "value": 0.33858267716535434
          },
          {
            "number": 10,
            "ticks": 3932,
            "time": 14.455866933333333,
            "value": 0.3543307086614173
          },
          {
            "number": 10,
            "ticks": 3936,
            "time": 14.4705728,
            "value": 0.3700787401574803
          },
          {
            "number": 10,
            "ticks": 3941,
            "time": 14.488955133333334,
            "value": 0.3858267716535433
          },
          {
            "number": 10,
            "ticks": 3945,
            "time": 14.503661000000001,
            "value": 0.4094488188976378
          },
          {
            "number": 10,
            "ticks": 3949,
            "time": 14.518366866666666,
            "value": 0.4251968503937008
          },
          {
            "number": 10,
            "ticks": 3954,
            "time": 14.536749200000001,
            "value": 0.4409448818897638
          },
          {
            "number": 10,
            "ticks": 3958,
            "time": 14.551455066666668,
            "value": 0.4566929133858268
          },
          {
            "number": 10,
            "ticks": 3962,
            "time": 14.566160933333334,
            "value": 0.48031496062992124
          },
          {
            "number": 10,
            "ticks": 3966,
            "time": 14.580866799999999,
            "value": 0.49606299212598426
          },
          {
            "number": 10,
            "ticks": 3971,
            "time": 14.599249133333334,
            "value": 0.5118110236220472
          },
          {
            "number": 10,
            "ticks": 3975,
            "time": 14.613955,
            "value": 0.5354330708661418
          },
          {
            "number": 10,
            "ticks": 3979,
            "time": 14.628660866666666,
            "value": 0.5511811023622047
          },
          {
            "number": 10,
            "ticks": 3984,
            "time": 14.647043200000002,
            "value": 0.5669291338582677
          },
          {
            "number": 10,
            "ticks": 3988,
            "time": 14.661749066666667,
            "value": 0.5826771653543307
          },
          {
            "number": 10,
            "ticks": 3992,
            "time": 14.676454933333334,
            "value": 0.6062992125984252
          },
          {
            "number": 10,
            "ticks": 3996,
            "time": 14.691160799999999,
            "value": 0.6220472440944882
          },
          {
            "number": 10,
            "ticks": 4001,
            "time": 14.709543133333334,
            "value": 0.6377952755905512
          },
          {
            "number": 10,
            "ticks": 4005,
            "time": 14.724249,
            "value": 0.6535433070866141
          },
          {
            "number": 10,
            "ticks": 4009,
            "time": 14.738954866666667,
            "value": 0.6771653543307087
          },
          {
            "number": 10,
            "ticks": 4014,
            "time": 14.757337200000002,
            "value": 0.6929133858267716
          },
          {
            "number": 10,
            "ticks": 4018,
            "time": 14.772043066666667,
            "value": 0.7086614173228346
          },
          {
            "number": 10,
            "ticks": 4022,
            "time": 14.786748933333334,
            "value": 0.7244094488188977
          },
          {
            "number": 10,
            "ticks": 4026,
            "time": 14.801454799999998,
            "value": 0.7480314960629921
          },
          {
            "number": 10,
            "ticks": 4031,
            "time": 14.819837133333335,
            "value": 0.7637795275590551
          },
          {
            "number": 10,
            "ticks": 4035,
            "time": 14.834543,
            "value": 0.7795275590551181
          },
          {
            "number": 10,
            "ticks": 4039,
            "time": 14.849248866666667,
            "value": 0.8031496062992126
          },
          {
            "number": 10,
            "ticks": 4044,
            "time": 14.867631200000002,
            "value": 0.8188976377952756
          },
          {
            "number": 10,
            "ticks": 4048,
            "time": 14.882337066666668,
            "value": 0.8346456692913385
          },
          {
            "number": 10,
            "ticks": 4052,
            "time": 14.897042933333333,
            "value": 0.8503937007874016
          },
          {
            "number": 10,
            "ticks": 4056,
            "time": 14.9117488,
            "value": 0.8740157480314961
          },
          {
            "number": 10,
            "ticks": 4061,
            "time": 14.930131133333335,
            "value": 0.889763779527559
          },
          {
            "number": 10,
            "ticks": 4065,
            "time": 14.944837,
            "value": 0.905511811023622
          },
          {
            "number": 10,
            "ticks": 4069,
            "time": 14.959542866666666,
            "value": 0.9212598425196851
          },
          {
            "number": 10,
            "ticks": 4074,
            "time": 14.977925200000001,
            "value": 0.9448818897637795
          },
          {
            "number": 10,
            "ticks": 4078,
            "time": 14.992631066666668,
            "value": 0.9606299212598425
          },
          {
            "number": 10,
            "ticks": 4082,
            "time": 15.007336933333333,
            "value": 0.9763779527559056
          },
          {
            "number": 10,
            "ticks": 4086,
            "time": 15.0220428,
            "value": 0.9921259842519685
          },
          {
            "number": 10,
            "ticks": 4091,
            "time": 15.040425133333335,
            "value": 0.9763779527559056
          },
          {
            "number": 10,
            "ticks": 4095,
            "time": 15.055131000000001,
            "value": 0.9606299212598425
          },
          {
            "number": 10,
            "ticks": 4099,
            "time": 15.069836866666666,
            "value": 0.9448818897637795
          },
          {
            "number": 10,
            "ticks": 4104,
            "time": 15.088219200000001,
            "value": 0.9212598425196851
          },
          {
            "number": 10,
            "ticks": 4108,
            "time": 15.102925066666668,
            "value": 0.905511811023622
          },
          {
            "number": 10,
            "ticks": 4112,
            "time": 15.117630933333333,
            "value": 0.889763779527559
          },
          {
            "number": 10,
            "ticks": 4116,
            "time": 15.1323368,
            "value": 0.8661417322834646
          },
          {
            "number": 10,
            "ticks": 4121,
            "time": 15.150719133333334,
            "value": 0.8503937007874016
          },
          {
            "number": 10,
            "ticks": 4125,
            "time": 15.165425,
            "value": 0.8346456692913385
          },
          {
            "number": 10,
            "ticks": 4129,
            "time": 15.180130866666666,
            "value": 0.8188976377952756
          },
          {
            "number": 10,
            "ticks": 4134,
            "time": 15.198513200000002,
            "value": 0.7952755905511811
          },
          {
            "number": 10,
            "ticks": 4138,
            "time": 15.213219066666667,
            "value": 0.7795275590551181
          },
          {
            "number": 10,
            "ticks": 4142,
            "time": 15.227924933333334,
            "value": 0.7637795275590551
          },
          {
            "number": 10,
            "ticks": 4146,
            "time": 15.242630799999999,
            "value": 0.7401574803149606
          },
          {
            "number": 10,
            "ticks": 4151,
            "time": 15.261013133333334,
            "value": 0.7244094488188977
          },
          {
            "number": 10,
            "ticks": 4155,
            "time": 15.275719,
            "value": 0.7086614173228346
          },
          {
            "number": 10,
            "ticks": 4159,
            "time": 15.290424866666667,
            "value": 0.6929133858267716
          },
          {
            "number": 10,
            "ticks": 4164,
            "time": 15.308807200000002,
            "value": 0.6692913385826772
          },
          {
            "number": 10,
            "ticks": 4168,
            "time": 15.323513066666667,
            "value": 0.6535433070866141
          },
          {
            "number": 10,
            "ticks": 4172,
            "time": 15.338218933333334,
            "value": 0.6377952755905512
          },
          {
            "number": 10,
            "ticks": 4176,
            "time": 15.352924799999998,
            "value": 0.6141732283464567
          },
          {
            "number": 10,
            "ticks": 4181,
            "time": 15.371307133333335,
            "value": 0.5984251968503937
          },
          {
            "number": 10,
            "ticks": 4185,
            "time": 15.386013,
            "value": 0.5826771653543307
          },
          {
            "number": 10,
            "ticks": 4189,
            "time": 15.400718866666667,
            "value": 0.5669291338582677
          },
          {
            "number": 10,
            "ticks": 4194,
            "time": 15.419101200000002,
            "value": 0.5433070866141733
          },
          {
            "number": 10,
            "ticks": 4198,
            "time": 15.433807066666667,
            "value": 0.5275590551181102
          },
          {
            "number": 10,
            "ticks": 4202,
            "time": 15.448512933333333,
            "value": 0.5118110236220472
          },
          {
            "number": 10,
            "ticks": 4206,
            "time": 15.4632188,
            "value": 0.4881889763779528
          },
          {
            "number": 10,
            "ticks": 4211,
            "time": 15.481601133333335,
            "value": 0.47244094488188976
          },
          {
            "number": 10,
            "ticks": 4215,
            "time": 15.496307,
            "value": 0.4566929133858268
          },
          {
            "number": 10,
            "ticks": 4219,
            "time": 15.511012866666666,
            "value": 0.4330708661417323
          },
          {
            "number": 10,
            "ticks": 4224,
            "time": 15.529395200000002,
            "value": 0.41732283464566927
          },
          {
            "number": 10,
            "ticks": 4228,
            "time": 15.544101066666668,
            "value": 0.4015748031496063
          },
          {
            "number": 10,
            "ticks": 4232,
            "time": 15.558806933333333,
            "value": 0.3858267716535433
          },
          {
            "number": 10,
            "ticks": 4236,
            "time": 15.5735128,
            "value": 0.36220472440944884
          },
          {
            "number": 10,
            "ticks": 4241,
            "time": 15.591895133333335,
            "value": 0.3464566929133858
          },
          {
            "number": 10,
            "ticks": 4245,
            "time": 15.606601000000001,
            "value": 0.33070866141732286
          },
          {
            "number": 10,
            "ticks": 4249,
            "time": 15.621306866666666,
            "value": 0.30708661417322836
          },
          {
            "number": 10,
            "ticks": 4254,
            "time": 15.639689200000001,
            "value": 0.29133858267716534
          },
          {
            "number": 10,
            "ticks": 4258,
            "time": 15.654395066666668,
            "value": 0.2755905511811024
          },
          {
            "number": 10,
            "ticks": 4262,
            "time": 15.669100933333333,
            "value": 0.25984251968503935
          },
          {
            "number": 10,
            "ticks": 4266,
            "time": 15.6838068,
            "value": 0.23622047244094488
          },
          {
            "number": 10,
            "ticks": 4271,
            "time": 15.702189133333334,
            "value": 0.2204724409448819
          },
          {
            "number": 10,
            "ticks": 4275,
            "time": 15.716895000000001,
            "value": 0.2047244094488189
          },
          {
            "number": 10,
            "ticks": 4279,
            "time": 15.731600866666666,
            "value": 0.18110236220472442
          },
          {
            "number": 10,
            "ticks": 4284,
            "time": 15.7499832,
            "value": 0.16535433070866143
          },
          {
            "number": 10,
            "ticks": 4288,
            "time": 15.764689066666667,
            "value": 0.14960629921259844
          },
          {
            "number": 10,
            "ticks": 4292,
            "time": 15.779394933333334,
            "value": 0.13385826771653545
          },
          {
            "number": 10,
            "ticks": 4296,
            "time": 15.794100799999999,
            "value": 0.11023622047244094
          },
          {
            "number": 10,
            "ticks": 4301,
            "time": 15.812483133333334,
            "value": 0.09448818897637795
          },
          {
            "number": 10,
            "ticks": 4305,
            "time": 15.827189,
            "value": 0.07874015748031496
          },
          {
            "number": 10,
            "ticks": 4309,
            "time": 15.841894866666665,
            "value": 0.05511811023622047
          },
          {
            "number": 10,
            "ticks": 4314,
            "time": 15.860277200000002,
            "value": 0.03937007874015748
          },
          {
            "number": 10,
            "ticks": 4318,
            "time": 15.874983066666667,
            "value": 0.023622047244094488
          },
          {
            "number": 10,
            "ticks": 4322,
            "time": 15.889688933333334,
            "value": 0
          },
          {
            "number": 10,
            "ticks": 7929,
            "time": 29.150704200000003,
            "value": 0
          },
          {
            "number": 10,
            "ticks": 7933,
            "time": 29.165410066666666,
            "value": 0.015748031496062992
          },
          {
            "number": 10,
            "ticks": 7938,
            "time": 29.183792400000005,
            "value": 0.03937007874015748
          },
          {
            "number": 10,
            "ticks": 7942,
            "time": 29.198498266666668,
            "value": 0.07086614173228346
          },
          {
            "number": 10,
            "ticks": 7946,
            "time": 29.213204133333335,
            "value": 0.09448818897637795
          },
          {
            "number": 10,
            "ticks": 7950,
            "time": 29.22791,
            "value": 0.12598425196850394
          },
          {
            "number": 10,
            "ticks": 7955,
            "time": 29.246292333333336,
            "value": 0.14960629921259844
          },
          {
            "number": 10,
            "ticks": 7959,
            "time": 29.260998200000003,
            "value": 0.18110236220472442
          },
          {
            "number": 10,
            "ticks": 7963,
            "time": 29.27570406666667,
            "value": 0.2047244094488189
          },
          {
            "number": 10,
            "ticks": 7968,
            "time": 29.294086400000005,
            "value": 0.23622047244094488
          },
          {
            "number": 10,
            "ticks": 7972,
            "time": 29.308792266666668,
            "value": 0.25984251968503935
          },
          {
            "number": 10,
            "ticks": 7976,
            "time": 29.323498133333334,
            "value": 0.29133858267716534
          },
          {
            "number": 10,
            "ticks": 7980,
            "time": 29.338204,
            "value": 0.31496062992125984
          },
          {
            "number": 10,
            "ticks": 7985,
            "time": 29.356586333333336,
            "value": 0.33858267716535434
          },
          {
            "number": 10,
            "ticks": 7989,
            "time": 29.371292200000003,
            "value": 0.3700787401574803
          },
          {
            "number": 10,
            "ticks": 7993,
            "time": 29.38599806666667,
            "value": 0.3937007874015748
          },
          {
            "number": 10,
            "ticks": 7998,
            "time": 29.404380400000004,
            "value": 0.4251968503937008
          },
          {
            "number": 10,
            "ticks": 8002,
            "time": 29.419086266666667,
            "value": 0.44881889763779526
          },
          {
            "number": 10,
            "ticks": 8006,
            "time": 29.433792133333334,
            "value": 0.48031496062992124
          },
          {
            "number": 10,
            "ticks": 8010,
            "time": 29.448498,
            "value": 0.5039370078740157
          },
          {
            "number": 10,
            "ticks": 8015,
            "time": 29.466880333333336,
            "value": 0.5354330708661418
          },
          {
            "number": 10,
            "ticks": 8019,
            "time": 29.481586200000002,
            "value": 0.5590551181102362
          },
          {
            "number": 10,
            "ticks": 8023,
            "time": 29.49629206666667,
            "value": 0.5905511811023622
          },
          {
            "number": 10,
            "ticks": 8028,
            "time": 29.514674400000004,
            "value": 0.6141732283464567
          },
          {
            "number": 10,
            "ticks": 8032,
            "time": 29.52938026666667,
            "value": 0.6456692913385826
          },
          {
            "number": 10,
            "ticks": 8036,
            "time": 29.544086133333334,
            "value": 0.6692913385826772
          },
          {
            "number": 10,
            "ticks": 8040,
            "time": 29.558792,
            "value": 0.6929133858267716
          },
          {
            "number": 10,
            "ticks": 8045,
            "time": 29.577174333333335,
            "value": 0.7244094488188977
          },
          {
            "number": 10,
            "ticks": 8049,
            "time": 29.591880200000002,
            "value": 0.7480314960629921
          },
          {
            "number": 10,
            "ticks": 8053,
            "time": 29.60658606666667,
            "value": 0.7795275590551181
          },
          {
            "number": 10,
            "ticks": 8058,
            "time": 29.624968400000004,
            "value": 0.8031496062992126
          },
          {
            "number": 10,
            "ticks": 8062,
            "time": 29.63967426666667,
            "value": 0.8346456692913385
          },
          {
            "number": 10,
            "ticks": 8066,
            "time": 29.654380133333333,
            "value": 0.8582677165354331
          },
          {
            "number": 10,
            "ticks": 8070,
            "time": 29.669086,
            "value": 0.889763779527559
          },
          {
            "number": 10,
            "ticks": 8075,
            "time": 29.687468333333335,
            "value": 0.9133858267716536
          },
          {
            "number": 10,
            "ticks": 8079,
            "time": 29.7021742,
            "value": 0.9448818897637795
          },
          {
            "number": 10,
            "ticks": 8083,
            "time": 29.71688006666667,
            "value": 0.968503937007874
          },
          {
            "number": 10,
            "ticks": 8088,
            "time": 29.735262400000003,
            "value": 1
          },
          {
            "number": 10,
            "ticks": 15368,
            "time": 56.499939733333335,
            "value": 0.984251968503937
          },
          {
            "number": 10,
            "ticks": 15372,
            "time": 56.5146456,
            "value": 0.968503937007874
          },
          {
            "number": 10,
            "ticks": 15376,
            "time": 56.52935146666667,
            "value": 0.952755905511811
          },
          {
            "number": 10,
            "ticks": 15380,
            "time": 56.54405733333333,
            "value": 0.9291338582677166
          },
          {
            "number": 10,
            "ticks": 15385,
            "time": 56.56243966666667,
            "value": 0.9133858267716536
          },
          {
            "number": 10,
            "ticks": 15389,
            "time": 56.577145533333336,
            "value": 0.889763779527559
          },
          {
            "number": 10,
            "ticks": 15393,
            "time": 56.5918514,
            "value": 0.8740157480314961
          },
          {
            "number": 10,
            "ticks": 15398,
            "time": 56.61023373333333,
            "value": 0.8503937007874016
          },
          {
            "number": 10,
            "ticks": 15402,
            "time": 56.6249396,
            "value": 0.8346456692913385
          },
          {
            "number": 10,
            "ticks": 15406,
            "time": 56.639645466666664,
            "value": 0.8188976377952756
          },
          {
            "number": 10,
            "ticks": 15410,
            "time": 56.65435133333333,
            "value": 0.7952755905511811
          },
          {
            "number": 10,
            "ticks": 15415,
            "time": 56.67273366666667,
            "value": 0.7795275590551181
          },
          {
            "number": 10,
            "ticks": 15419,
            "time": 56.68743953333334,
            "value": 0.7559055118110236
          },
          {
            "number": 10,
            "ticks": 15423,
            "time": 56.702145400000006,
            "value": 0.7401574803149606
          },
          {
            "number": 10,
            "ticks": 15428,
            "time": 56.720527733333334,
            "value": 0.7165354330708661
          },
          {
            "number": 10,
            "ticks": 15432,
            "time": 56.7352336,
            "value": 0.7007874015748031
          },
          {
            "number": 10,
            "ticks": 15436,
            "time": 56.74993946666667,
            "value": 0.6850393700787402
          },
          {
            "number": 10,
            "ticks": 15440,
            "time": 56.764645333333334,
            "value": 0.6614173228346457
          },
          {
            "number": 10,
            "ticks": 15445,
            "time": 56.78302766666667,
            "value": 0.6456692913385826
          },
          {
            "number": 10,
            "ticks": 15449,
            "time": 56.797733533333336,
            "value": 0.6220472440944882
          },
          {
            "number": 10,
            "ticks": 15453,
            "time": 56.8124394,
            "value": 0.6062992125984252
          },
          {
            "number": 10,
            "ticks": 15458,
            "time": 56.83082173333333,
            "value": 0.5826771653543307
          },
          {
            "number": 10,
            "ticks": 15462,
            "time": 56.8455276,
            "value": 0.5669291338582677
          },
          {
            "number": 10,
            "ticks": 15466,
            "time": 56.860233466666664,
            "value": 0.5511811023622047
          },
          {
            "number": 10,
            "ticks": 15470,
            "time": 56.87493933333333,
            "value": 0.5275590551181102
          },
          {
            "number": 10,
            "ticks": 15475,
            "time": 56.89332166666667,
            "value": 0.5118110236220472
          },
          {
            "number": 10,
            "ticks": 15479,
            "time": 56.90802753333334,
            "value": 0.4881889763779528
          },
          {
            "number": 10,
            "ticks": 15483,
            "time": 56.922733400000006,
            "value": 0.47244094488188976
          },
          {
            "number": 10,
            "ticks": 15488,
            "time": 56.94111573333333,
            "value": 0.44881889763779526
          },
          {
            "number": 10,
            "ticks": 15492,
            "time": 56.9558216,
            "value": 0.4330708661417323
          },
          {
            "number": 10,
            "ticks": 15496,
            "time": 56.97052746666667,
            "value": 0.41732283464566927
          },
          {
            "number": 10,
            "ticks": 15500,
            "time": 56.98523333333333,
            "value": 0.3937007874015748
          },
          {
            "number": 10,
            "ticks": 15505,
            "time": 57.003615666666676,
            "value": 0.3779527559055118
          },
          {
            "number": 10,
            "ticks": 15509,
            "time": 57.018321533333335,
            "value": 0.3543307086614173
          },
          {
            "number": 10,
            "ticks": 15513,
            "time": 57.0330274,
            "value": 0.33858267716535434
          },
          {
            "number": 10,
            "ticks": 15518,
            "time": 57.05140973333334,
            "value": 0.31496062992125984
          },
          {
            "number": 10,
            "ticks": 15522,
            "time": 57.066115599999996,
            "value": 0.2992125984251969
          },
          {
            "number": 10,
            "ticks": 15526,
            "time": 57.08082146666666,
            "value": 0.28346456692913385
          },
          {
            "number": 10,
            "ticks": 15530,
            "time": 57.09552733333333,
            "value": 0.25984251968503935
          },
          {
            "number": 10,
            "ticks": 15535,
            "time": 57.11390966666667,
            "value": 0.2440944881889764
          },
          {
            "number": 10,
            "ticks": 15539,
            "time": 57.12861553333334,
            "value": 0.2204724409448819
          },
          {
            "number": 10,
            "ticks": 15543,
            "time": 57.143321400000005,
            "value": 0.2047244094488189
          },
          {
            "number": 10,
            "ticks": 15548,
            "time": 57.16170373333333,
            "value": 0.18110236220472442
          },
          {
            "number": 10,
            "ticks": 15552,
            "time": 57.1764096,
            "value": 0.16535433070866143
          },
          {
            "number": 10,
            "ticks": 15556,
            "time": 57.191115466666666,
            "value": 0.14960629921259844
          },
          {
            "number": 10,
            "ticks": 15560,
            "time": 57.20582133333333,
            "value": 0.12598425196850394
          },
          {
            "number": 10,
            "ticks": 15565,
            "time": 57.224203666666675,
            "value": 0.11023622047244094
          },
          {
            "number": 10,
            "ticks": 15569,
            "time": 57.23890953333334,
            "value": 0.08661417322834646
          },
          {
            "number": 10,
            "ticks": 15573,
            "time": 57.2536154,
            "value": 0.07086614173228346
          },
          {
            "number": 10,
            "ticks": 15578,
            "time": 57.271997733333336,
            "value": 0.047244094488188976
          },
          {
            "number": 10,
            "ticks": 15582,
            "time": 57.286703599999996,
            "value": 0.031496062992125984
          },
          {
            "number": 10,
            "ticks": 15586,
            "time": 57.30140946666666,
            "value": 0.023622047244094488
          },
          {
            "number": 10,
            "ticks": 15590,
            "time": 57.31611533333333,
            "value": 0.03937007874015748
          },
          {
            "number": 10,
            "ticks": 15595,
            "time": 57.33449766666667,
            "value": 0.05511811023622047
          },
          {
            "number": 10,
            "ticks": 15599,
            "time": 57.34920353333334,
            "value": 0.07874015748031496
          },
          {
            "number": 10,
            "ticks": 15603,
            "time": 57.363909400000004,
            "value": 0.09448818897637795
          },
          {
            "number": 10,
            "ticks": 15608,
            "time": 57.38229173333333,
            "value": 0.11811023622047244
          },
          {
            "number": 10,
            "ticks": 15612,
            "time": 57.3969976,
            "value": 0.13385826771653545
          },
          {
            "number": 10,
            "ticks": 15616,
            "time": 57.411703466666665,
            "value": 0.15748031496062992
          },
          {
            "number": 10,
            "ticks": 15620,
            "time": 57.42640933333333,
            "value": 0.1732283464566929
          },
          {
            "number": 10,
            "ticks": 15625,
            "time": 57.444791666666674,
            "value": 0.1968503937007874
          },
          {
            "number": 10,
            "ticks": 15629,
            "time": 57.45949753333334,
            "value": 0.2125984251968504
          },
          {
            "number": 10,
            "ticks": 15633,
            "time": 57.47420340000001,
            "value": 0.23622047244094488
          },
          {
            "number": 10,
            "ticks": 15638,
            "time": 57.492585733333335,
            "value": 0.25196850393700787
          },
          {
            "number": 10,
            "ticks": 15642,
            "time": 57.5072916,
            "value": 0.2755905511811024
          },
          {
            "number": 10,
            "ticks": 15646,
            "time": 57.52199746666666,
            "value": 0.29133858267716534
          },
          {
            "number": 10,
            "ticks": 15650,
            "time": 57.53670333333333,
            "value": 0.31496062992125984
          },
          {
            "number": 10,
            "ticks": 15655,
            "time": 57.55508566666667,
            "value": 0.33070866141732286
          },
          {
            "number": 10,
            "ticks": 15659,
            "time": 57.56979153333334,
            "value": 0.3543307086614173
          },
          {
            "number": 10,
            "ticks": 15663,
            "time": 57.584497400000004,
            "value": 0.3700787401574803
          },
          {
            "number": 10,
            "ticks": 15668,
            "time": 57.60287973333333,
            "value": 0.3937007874015748
          },
          {
            "number": 10,
            "ticks": 15672,
            "time": 57.6175856,
            "value": 0.4094488188976378
          },
          {
            "number": 10,
            "ticks": 15676,
            "time": 57.632291466666665,
            "value": 0.4330708661417323
          },
          {
            "number": 10,
            "ticks": 15680,
            "time": 57.64699733333333,
            "value": 0.44881889763779526
          },
          {
            "number": 10,
            "ticks": 15685,
            "time": 57.665379666666674,
            "value": 0.47244094488188976
          },
          {
            "number": 10,
            "ticks": 15689,
            "time": 57.68008553333334,
            "value": 0.4881889763779528
          },
          {
            "number": 10,
            "ticks": 15693,
            "time": 57.69479140000001,
            "value": 0.5118110236220472
          },
          {
            "number": 10,
            "ticks": 15698,
            "time": 57.713173733333335,
            "value": 0.5275590551181102
          },
          {
            "number": 10,
            "ticks": 15702,
            "time": 57.7278796,
            "value": 0.5511811023622047
          },
          {
            "number": 10,
            "ticks": 15706,
            "time": 57.74258546666667,
            "value": 0.5669291338582677
          },
          {
            "number": 10,
            "ticks": 15710,
            "time": 57.75729133333333,
            "value": 0.5905511811023622
          },
          {
            "number": 10,
            "ticks": 15715,
            "time": 57.77567366666667,
            "value": 0.6062992125984252
          },
          {
            "number": 10,
            "ticks": 15719,
            "time": 57.790379533333336,
            "value": 0.6299212598425197
          },
          {
            "number": 10,
            "ticks": 15723,
            "time": 57.8050854,
            "value": 0.6456692913385826
          },
          {
            "number": 10,
            "ticks": 15728,
            "time": 57.82346773333333,
            "value": 0.6692913385826772
          },
          {
            "number": 10,
            "ticks": 15732,
            "time": 57.8381736,
            "value": 0.6850393700787402
          },
          {
            "number": 10,
            "ticks": 15736,
            "time": 57.852879466666664,
            "value": 0.7086614173228346
          },
          {
            "number": 10,
            "ticks": 15740,
            "time": 57.86758533333333,
            "value": 0.7244094488188977
          },
          {
            "number": 10,
            "ticks": 15745,
            "time": 57.88596766666667,
            "value": 0.7480314960629921
          },
          {
            "number": 10,
            "ticks": 15749,
            "time": 57.90067353333334,
            "value": 0.7637795275590551
          },
          {
            "number": 10,
            "ticks": 15753,
            "time": 57.915379400000006,
            "value": 0.7874015748031497
          },
          {
            "number": 10,
            "ticks": 15758,
            "time": 57.933761733333334,
            "value": 0.8031496062992126
          },
          {
            "number": 10,
            "ticks": 15762,
            "time": 57.9484676,
            "value": 0.8267716535433071
          },
          {
            "number": 10,
            "ticks": 15766,
            "time": 57.96317346666667,
            "value": 0.84251968503937
          },
          {
            "number": 10,
            "ticks": 15770,
            "time": 57.977879333333334,
            "value": 0.8661417322834646
          },
          {
            "number": 10,
            "ticks": 15775,
            "time": 57.99626166666667,
            "value": 0.8818897637795275
          },
          {
            "number": 10,
            "ticks": 15779,
            "time": 58.010967533333336,
            "value": 0.905511811023622
          },
          {
            "number": 10,
            "ticks": 15783,
            "time": 58.0256734,
            "value": 0.9212598425196851
          },
          {
            "number": 10,
            "ticks": 15788,
            "time": 58.04405573333333,
            "value": 0.9448818897637795
          },
          {
            "number": 10,
            "ticks": 19430,
            "time": 71.43374733333333,
            "value": 0
          },
          {
            "number": 10,
            "ticks": 19434,
            "time": 71.4484532,
            "value": 0.015748031496062992
          },
          {
            "number": 10,
            "ticks": 19438,
            "time": 71.46315906666666,
            "value": 0.031496062992125984
          },
          {
            "number": 10,
            "ticks": 19443,
            "time": 71.4815414,
            "value": 0.05511811023622047
          },
          {
            "number": 10,
            "ticks": 19447,
            "time": 71.49624726666667,
            "value": 0.07086614173228346
          },
          {
            "number": 10,
            "ticks": 19451,
            "time": 71.51095313333333,
            "value": 0.09448818897637795
          },
          {
            "number": 10,
            "ticks": 19455,
            "time": 71.525659,
            "value": 0.11023622047244094
          },
          {
            "number": 10,
            "ticks": 19460,
            "time": 71.54404133333333,
            "value": 0.13385826771653545
          },
          {
            "number": 10,
            "ticks": 19464,
            "time": 71.5587472,
            "value": 0.14960629921259844
          },
          {
            "number": 10,
            "ticks": 19468,
            "time": 71.57345306666666,
            "value": 0.1732283464566929
          },
          {
            "number": 10,
            "ticks": 19473,
            "time": 71.59183540000001,
            "value": 0.1889763779527559
          },
          {
            "number": 10,
            "ticks": 19477,
            "time": 71.60654126666667,
            "value": 0.2047244094488189
          },
          {
            "number": 10,
            "ticks": 19481,
            "time": 71.62124713333334,
            "value": 0.2283464566929134
          },
          {
            "number": 10,
            "ticks": 19485,
            "time": 71.635953,
            "value": 0.2440944881889764
          },
          {
            "number": 10,
            "ticks": 19490,
            "time": 71.65433533333334,
            "value": 0.2677165354330709
          },
          {
            "number": 10,
            "ticks": 19494,
            "time": 71.6690412,
            "value": 0.28346456692913385
          },
          {
            "number": 10,
            "ticks": 19498,
            "time": 71.68374706666667,
            "value": 0.30708661417322836
          },
          {
            "number": 10,
            "ticks": 19503,
            "time": 71.7021294,
            "value": 0.3228346456692913
          },
          {
            "number": 10,
            "ticks": 19507,
            "time": 71.71683526666666,
            "value": 0.3464566929133858
          },
          {
            "number": 10,
            "ticks": 19511,
            "time": 71.73154113333334,
            "value": 0.36220472440944884
          },
          {
            "number": 10,
            "ticks": 19515,
            "time": 71.746247,
            "value": 0.3858267716535433
          },
          {
            "number": 10,
            "ticks": 19520,
            "time": 71.76462933333333,
            "value": 0.4015748031496063
          },
          {
            "number": 10,
            "ticks": 19524,
            "time": 71.77933519999999,
            "value": 0.41732283464566927
          },
          {
            "number": 10,
            "ticks": 19528,
            "time": 71.79404106666667,
            "value": 0.4409448818897638
          },
          {
            "number": 10,
            "ticks": 19533,
            "time": 71.8124234,
            "value": 0.4566929133858268
          },
          {
            "number": 10,
            "ticks": 19537,
            "time": 71.82712926666667,
            "value": 0.48031496062992124
          },
          {
            "number": 10,
            "ticks": 19541,
            "time": 71.84183513333333,
            "value": 0.49606299212598426
          },
          {
            "number": 10,
            "ticks": 19545,
            "time": 71.856541,
            "value": 0.5196850393700787
          },
          {
            "number": 10,
            "ticks": 19550,
            "time": 71.87492333333333,
            "value": 0.5354330708661418
          },
          {
            "number": 10,
            "ticks": 19554,
            "time": 71.8896292,
            "value": 0.5590551181102362
          },
          {
            "number": 10,
            "ticks": 19558,
            "time": 71.90433506666666,
            "value": 0.5748031496062992
          },
          {
            "number": 10,
            "ticks": 19563,
            "time": 71.92271740000001,
            "value": 0.5905511811023622
          },
          {
            "number": 10,
            "ticks": 19567,
            "time": 71.93742326666667,
            "value": 0.6141732283464567
          },
          {
            "number": 10,
            "ticks": 19571,
            "time": 71.95212913333333,
            "value": 0.6299212598425197
          },
          {
            "number": 10,
            "ticks": 19575,
            "time": 71.966835,
            "value": 0.6535433070866141
          },
          {
            "number": 10,
            "ticks": 19580,
            "time": 71.98521733333334,
            "value": 0.6692913385826772
          },
          {
            "number": 10,
            "ticks": 19584,
            "time": 71.9999232,
            "value": 0.6929133858267716
          },
          {
            "number": 10,
            "ticks": 19588,
            "time": 72.01462906666666,
            "value": 0.7086614173228346
          },
          {
            "number": 10,
            "ticks": 19593,
            "time": 72.0330114,
            "value": 0.7322834645669292
          },
          {
            "number": 10,
            "ticks": 19597,
            "time": 72.04771726666667,
            "value": 0.7480314960629921
          },
          {
            "number": 10,
            "ticks": 19601,
            "time": 72.06242313333334,
            "value": 0.7716535433070866
          },
          {
            "number": 10,
            "ticks": 19605,
            "time": 72.077129,
            "value": 0.7874015748031497
          },
          {
            "number": 10,
            "ticks": 19610,
            "time": 72.09551133333333,
            "value": 0.8031496062992126
          },
          {
            "number": 10,
            "ticks": 19614,
            "time": 72.1102172,
            "value": 0.8267716535433071
          },
          {
            "number": 10,
            "ticks": 19618,
            "time": 72.12492306666667,
            "value": 0.84251968503937
          },
          {
            "number": 10,
            "ticks": 19623,
            "time": 72.1433054,
            "value": 0.8661417322834646
          },
          {
            "number": 10,
            "ticks": 19627,
            "time": 72.15801126666668,
            "value": 0.8818897637795275
          },
          {
            "number": 10,
            "ticks": 19631,
            "time": 72.17271713333334,
            "value": 0.905511811023622
          },
          {
            "number": 10,
            "ticks": 19635,
            "time": 72.187423,
            "value": 0.9212598425196851
          },
          {
            "number": 10,
            "ticks": 19640,
            "time": 72.20580533333333,
            "value": 0.9448818897637795
          },
          {
            "number": 10,
            "ticks": 19644,
            "time": 72.22051119999999,
            "value": 0.9606299212598425
          },
          {
            "number": 10,
            "ticks": 19648,
            "time": 72.23521706666666,
            "value": 0.984251968503937
          },
          {
            "number": 10,
            "ticks": 19653,
            "time": 72.2535994,
            "value": 0.968503937007874
          },
          {
            "number": 10,
            "ticks": 19657,
            "time": 72.26830526666667,
            "value": 0.952755905511811
          },
          {
            "number": 10,
            "ticks": 19661,
            "time": 72.28301113333333,
            "value": 0.9291338582677166
          },
          {
            "number": 10,
            "ticks": 19665,
            "time": 72.297717,
            "value": 0.905511811023622
          },
          {
            "number": 10,
            "ticks": 19670,
            "time": 72.31609933333333,
            "value": 0.8818897637795275
          },
          {
            "number": 10,
            "ticks": 19674,
            "time": 72.3308052,
            "value": 0.8582677165354331
          },
          {
            "number": 10,
            "ticks": 19678,
            "time": 72.34551106666666,
            "value": 0.8346456692913385
          },
          {
            "number": 10,
            "ticks": 19683,
            "time": 72.36389340000001,
            "value": 0.8110236220472441
          },
          {
            "number": 10,
            "ticks": 19687,
            "time": 72.37859926666667,
            "value": 0.7874015748031497
          },
          {
            "number": 10,
            "ticks": 19691,
            "time": 72.39330513333334,
            "value": 0.7637795275590551
          },
          {
            "number": 10,
            "ticks": 19695,
            "time": 72.408011,
            "value": 0.7401574803149606
          },
          {
            "number": 10,
            "ticks": 19700,
            "time": 72.42639333333334,
            "value": 0.7165354330708661
          },
          {
            "number": 10,
            "ticks": 19704,
            "time": 72.4410992,
            "value": 0.6929133858267716
          },
          {
            "number": 10,
            "ticks": 19708,
            "time": 72.45580506666666,
            "value": 0.6692913385826772
          },
          {
            "number": 10,
            "ticks": 19713,
            "time": 72.4741874,
            "value": 0.6456692913385826
          },
          {
            "number": 10,
            "ticks": 19717,
            "time": 72.48889326666666,
            "value": 0.6299212598425197
          },
          {
            "number": 10,
            "ticks": 19721,
            "time": 72.50359913333334,
            "value": 0.6062992125984252
          },
          {
            "number": 10,
            "ticks": 19725,
            "time": 72.518305,
            "value": 0.5826771653543307
          },
          {
            "number": 10,
            "ticks": 19730,
            "time": 72.53668733333333,
            "value": 0.5590551181102362
          },
          {
            "number": 10,
            "ticks": 19734,
            "time": 72.55139319999999,
            "value": 0.5354330708661418
          },
          {
            "number": 10,
            "ticks": 19738,
            "time": 72.56609906666667,
            "value": 0.5118110236220472
          },
          {
            "number": 10,
            "ticks": 19743,
            "time": 72.5844814,
            "value": 0.4881889763779528
          },
          {
            "number": 10,
            "ticks": 19747,
            "time": 72.59918726666668,
            "value": 0.4645669291338583
          },
          {
            "number": 10,
            "ticks": 19751,
            "time": 72.61389313333333,
            "value": 0.4409448818897638
          },
          {
            "number": 10,
            "ticks": 19755,
            "time": 72.62859900000001,
            "value": 0.41732283464566927
          },
          {
            "number": 10,
            "ticks": 19760,
            "time": 72.64698133333333,
            "value": 0.3937007874015748
          },
          {
            "number": 10,
            "ticks": 19764,
            "time": 72.6616872,
            "value": 0.3700787401574803
          },
          {
            "number": 10,
            "ticks": 19768,
            "time": 72.67639306666666,
            "value": 0.3464566929133858
          },
          {
            "number": 10,
            "ticks": 19773,
            "time": 72.6947754,
            "value": 0.3228346456692913
          },
          {
            "number": 10,
            "ticks": 19777,
            "time": 72.70948126666667,
            "value": 0.30708661417322836
          },
          {
            "number": 10,
            "ticks": 19781,
            "time": 72.72418713333333,
            "value": 0.28346456692913385
          },
          {
            "number": 10,
            "ticks": 19785,
            "time": 72.738893,
            "value": 0.25984251968503935
          },
          {
            "number": 10,
            "ticks": 19790,
            "time": 72.75727533333333,
            "value": 0.23622047244094488
          },
          {
            "number": 10,
            "ticks": 19794,
            "time": 72.7719812,
            "value": 0.2125984251968504
          },
          {
            "number": 10,
            "ticks": 19798,
            "time": 72.78668706666666,
            "value": 0.1889763779527559
          },
          {
            "number": 10,
            "ticks": 19803,
            "time": 72.80506940000001,
            "value": 0.16535433070866143
          },
          {
            "number": 10,
            "ticks": 19807,
            "time": 72.81977526666667,
            "value": 0.14173228346456693
          },
          {
            "number": 10,
            "ticks": 19811,
            "time": 72.83448113333334,
            "value": 0.11811023622047244
          },
          {
            "number": 10,
            "ticks": 19815,
            "time": 72.849187,
            "value": 0.09448818897637795
          },
          {
            "number": 10,
            "ticks": 19820,
            "time": 72.86756933333334,
            "value": 0.07086614173228346
          },
          {
            "number": 10,
            "ticks": 19824,
            "time": 72.8822752,
            "value": 0.047244094488188976
          },
          {
            "number": 10,
            "ticks": 19828,
            "time": 72.89698106666667,
            "value": 0.023622047244094488
          },
          {
            "number": 10,
            "ticks": 19833,
            "time": 72.9153634,
            "value": 0
          },
          {
            "number": 10,
            "ticks": 19935,
            "time": 73.290363,
            "value": 0.015748031496062992
          },
          {
            "number": 10,
            "ticks": 19940,
            "time": 73.30874533333333,
            "value": 0.03937007874015748
          },
          {
            "number": 10,
            "ticks": 19944,
            "time": 73.3234512,
            "value": 0.06299212598425197
          },
          {
            "number": 10,
            "ticks": 19948,
            "time": 73.33815706666667,
            "value": 0.09448818897637795
          },
          {
            "number": 10,
            "ticks": 19953,
            "time": 73.3565394,
            "value": 0.11811023622047244
          },
          {
            "number": 10,
            "ticks": 19957,
            "time": 73.37124526666668,
            "value": 0.14960629921259844
          },
          {
            "number": 10,
            "ticks": 19961,
            "time": 73.38595113333334,
            "value": 0.1732283464566929
          },
          {
            "number": 10,
            "ticks": 19965,
            "time": 73.400657,
            "value": 0.2047244094488189
          },
          {
            "number": 10,
            "ticks": 19970,
            "time": 73.41903933333333,
            "value": 0.2283464566929134
          },
          {
            "number": 10,
            "ticks": 19974,
            "time": 73.4337452,
            "value": 0.25984251968503935
          },
          {
            "number": 10,
            "ticks": 19978,
            "time": 73.44845106666666,
            "value": 0.28346456692913385
          },
          {
            "number": 10,
            "ticks": 19983,
            "time": 73.4668334,
            "value": 0.31496062992125984
          },
          {
            "number": 10,
            "ticks": 19987,
            "time": 73.48153926666667,
            "value": 0.33858267716535434
          },
          {
            "number": 10,
            "ticks": 19991,
            "time": 73.49624513333333,
            "value": 0.3700787401574803
          },
          {
            "number": 10,
            "ticks": 19995,
            "time": 73.510951,
            "value": 0.3937007874015748
          },
          {
            "number": 10,
            "ticks": 20000,
            "time": 73.52933333333333,
            "value": 0.4251968503937008
          },
          {
            "number": 10,
            "ticks": 20004,
            "time": 73.5440392,
            "value": 0.44881889763779526
          },
          {
            "number": 10,
            "ticks": 20008,
            "time": 73.55874506666666,
            "value": 0.48031496062992124
          },
          {
            "number": 10,
            "ticks": 20013,
            "time": 73.57712740000001,
            "value": 0.5039370078740157
          },
          {
            "number": 10,
            "ticks": 20017,
            "time": 73.59183326666667,
            "value": 0.5275590551181102
          },
          {
            "number": 10,
            "ticks": 20021,
            "time": 73.60653913333334,
            "value": 0.5590551181102362
          },
          {
            "number": 10,
            "ticks": 20025,
            "time": 73.621245,
            "value": 0.5826771653543307
          },
          {
            "number": 10,
            "ticks": 20030,
            "time": 73.63962733333334,
            "value": 0.6141732283464567
          },
          {
            "number": 10,
            "ticks": 20034,
            "time": 73.6543332,
            "value": 0.6377952755905512
          },
          {
            "number": 10,
            "ticks": 20038,
            "time": 73.66903906666666,
            "value": 0.6692913385826772
          },
          {
            "number": 10,
            "ticks": 20043,
            "time": 73.6874214,
            "value": 0.6929133858267716
          },
          {
            "number": 10,
            "ticks": 20047,
            "time": 73.70212726666666,
            "value": 0.7244094488188977
          },
          {
            "number": 10,
            "ticks": 20051,
            "time": 73.71683313333334,
            "value": 0.7480314960629921
          },
          {
            "number": 10,
            "ticks": 20055,
            "time": 73.731539,
            "value": 0.7795275590551181
          },
          {
            "number": 10,
            "ticks": 20060,
            "time": 73.74992133333333,
            "value": 0.8031496062992126
          },
          {
            "number": 10,
            "ticks": 20064,
            "time": 73.76462719999999,
            "value": 0.8346456692913385
          },
          {
            "number": 10,
            "ticks": 20068,
            "time": 73.77933306666667,
            "value": 0.8582677165354331
          },
          {
            "number": 10,
            "ticks": 20073,
            "time": 73.7977154,
            "value": 0.889763779527559
          },
          {
            "number": 10,
            "ticks": 20077,
            "time": 73.81242126666668,
            "value": 0.9133858267716536
          },
          {
            "number": 10,
            "ticks": 20081,
            "time": 73.82712713333333,
            "value": 0.9448818897637795
          },
          {
            "number": 10,
            "ticks": 20085,
            "time": 73.84183300000001,
            "value": 0.968503937007874
          },
          {
            "number": 10,
            "ticks": 20090,
            "time": 73.86021533333333,
            "value": 1
          },
          {
            "number": 10,
            "ticks": 34080,
            "time": 125.29398400000001,
            "value": 0.9763779527559056
          },
          {
            "number": 10,
            "ticks": 34085,
            "time": 125.31236633333334,
            "value": 0.9606299212598425
          },
          {
            "number": 10,
            "ticks": 34089,
            "time": 125.3270722,
            "value": 0.9448818897637795
          },
          {
            "number": 10,
            "ticks": 34093,
            "time": 125.34177806666668,
            "value": 0.9291338582677166
          },
          {
            "number": 10,
            "ticks": 34098,
            "time": 125.3601604,
            "value": 0.9133858267716536
          },
          {
            "number": 10,
            "ticks": 34102,
            "time": 125.37486626666667,
            "value": 0.889763779527559
          },
          {
            "number": 10,
            "ticks": 34106,
            "time": 125.38957213333333,
            "value": 0.8740157480314961
          },
          {
            "number": 10,
            "ticks": 34110,
            "time": 125.404278,
            "value": 0.8582677165354331
          },
          {
            "number": 10,
            "ticks": 34115,
            "time": 125.42266033333334,
            "value": 0.84251968503937
          },
          {
            "number": 10,
            "ticks": 34119,
            "time": 125.4373662,
            "value": 0.8267716535433071
          },
          {
            "number": 10,
            "ticks": 34123,
            "time": 125.45207206666667,
            "value": 0.8031496062992126
          },
          {
            "number": 10,
            "ticks": 34128,
            "time": 125.4704544,
            "value": 0.7874015748031497
          },
          {
            "number": 10,
            "ticks": 34132,
            "time": 125.48516026666667,
            "value": 0.7716535433070866
          },
          {
            "number": 10,
            "ticks": 34136,
            "time": 125.49986613333333,
            "value": 0.7559055118110236
          },
          {
            "number": 10,
            "ticks": 34140,
            "time": 125.514572,
            "value": 0.7322834645669292
          },
          {
            "number": 10,
            "ticks": 34145,
            "time": 125.53295433333335,
            "value": 0.7165354330708661
          },
          {
            "number": 10,
            "ticks": 34149,
            "time": 125.5476602,
            "value": 0.7007874015748031
          },
          {
            "number": 10,
            "ticks": 34153,
            "time": 125.56236606666668,
            "value": 0.6850393700787402
          },
          {
            "number": 10,
            "ticks": 34158,
            "time": 125.58074839999999,
            "value": 0.6692913385826772
          },
          {
            "number": 10,
            "ticks": 34162,
            "time": 125.59545426666668,
            "value": 0.6456692913385826
          },
          {
            "number": 10,
            "ticks": 34166,
            "time": 125.61016013333332,
            "value": 0.6299212598425197
          },
          {
            "number": 10,
            "ticks": 34170,
            "time": 125.624866,
            "value": 0.6141732283464567
          },
          {
            "number": 10,
            "ticks": 34175,
            "time": 125.64324833333335,
            "value": 0.5984251968503937
          },
          {
            "number": 10,
            "ticks": 34179,
            "time": 125.65795419999999,
            "value": 0.5748031496062992
          },
          {
            "number": 10,
            "ticks": 34183,
            "time": 125.67266006666668,
            "value": 0.5590551181102362
          },
          {
            "number": 10,
            "ticks": 34188,
            "time": 125.6910424,
            "value": 0.5433070866141733
          },
          {
            "number": 10,
            "ticks": 34192,
            "time": 125.70574826666667,
            "value": 0.5275590551181102
          },
          {
            "number": 10,
            "ticks": 34196,
            "time": 125.72045413333332,
            "value": 0.5118110236220472
          },
          {
            "number": 10,
            "ticks": 34200,
            "time": 125.73516000000001,
            "value": 0.4881889763779528
          },
          {
            "number": 10,
            "ticks": 34205,
            "time": 125.75354233333334,
            "value": 0.47244094488188976
          },
          {
            "number": 10,
            "ticks": 34209,
            "time": 125.7682482,
            "value": 0.4566929133858268
          },
          {
            "number": 10,
            "ticks": 34213,
            "time": 125.78295406666668,
            "value": 0.4409448818897638
          },
          {
            "number": 10,
            "ticks": 34218,
            "time": 125.8013364,
            "value": 0.4251968503937008
          },
          {
            "number": 10,
            "ticks": 34222,
            "time": 125.81604226666667,
            "value": 0.4015748031496063
          },
          {
            "number": 10,
            "ticks": 34226,
            "time": 125.83074813333333,
            "value": 0.3858267716535433
          },
          {
            "number": 10,
            "ticks": 34230,
            "time": 125.845454,
            "value": 0.3700787401574803
          },
          {
            "number": 10,
            "ticks": 34235,
            "time": 125.86383633333334,
            "value": 0.3543307086614173
          },
          {
            "number": 10,
            "ticks": 34239,
            "time": 125.8785422,
            "value": 0.33070866141732286
          },
          {
            "number": 10,
            "ticks": 34243,
            "time": 125.89324806666667,
            "value": 0.31496062992125984
          },
          {
            "number": 10,
            "ticks": 34248,
            "time": 125.91163039999999,
            "value": 0.2992125984251969
          },
          {
            "number": 10,
            "ticks": 34252,
            "time": 125.92633626666667,
            "value": 0.28346456692913385
          },
          {
            "number": 10,
            "ticks": 34256,
            "time": 125.94104213333333,
            "value": 0.2677165354330709
          },
          {
            "number": 10,
            "ticks": 34260,
            "time": 125.955748,
            "value": 0.2440944881889764
          },
          {
            "number": 10,
            "ticks": 34265,
            "time": 125.97413033333335,
            "value": 0.2283464566929134
          },
          {
            "number": 10,
            "ticks": 34269,
            "time": 125.9888362,
            "value": 0.2125984251968504
          },
          {
            "number": 10,
            "ticks": 34273,
            "time": 126.00354206666668,
            "value": 0.1968503937007874
          },
          {
            "number": 10,
            "ticks": 34278,
            "time": 126.02192439999999,
            "value": 0.1732283464566929
          },
          {
            "number": 10,
            "ticks": 34282,
            "time": 126.03663026666668,
            "value": 0.15748031496062992
          },
          {
            "number": 10,
            "ticks": 34286,
            "time": 126.05133613333332,
            "value": 0.14173228346456693
          },
          {
            "number": 10,
            "ticks": 34290,
            "time": 126.06604200000001,
            "value": 0.12598425196850394
          },
          {
            "number": 10,
            "ticks": 34295,
            "time": 126.08442433333335,
            "value": 0.11023622047244094
          },
          {
            "number": 10,
            "ticks": 34299,
            "time": 126.0991302,
            "value": 0.08661417322834646
          },
          {
            "number": 10,
            "ticks": 34303,
            "time": 126.11383606666668,
            "value": 0.07086614173228346
          },
          {
            "number": 10,
            "ticks": 34308,
            "time": 126.1322184,
            "value": 0.05511811023622047
          },
          {
            "number": 10,
            "ticks": 34312,
            "time": 126.14692426666667,
            "value": 0.03937007874015748
          },
          {
            "number": 10,
            "ticks": 34316,
            "time": 126.16163013333332,
            "value": 0.023622047244094488
          },
          {
            "number": 10,
            "ticks": 34320,
            "time": 126.176336,
            "value": 0.047244094488188976
          },
          {
            "number": 10,
            "ticks": 34325,
            "time": 126.19471833333334,
            "value": 0.07874015748031496
          },
          {
            "number": 10,
            "ticks": 34329,
            "time": 126.2094242,
            "value": 0.10236220472440945
          },
          {
            "number": 10,
            "ticks": 34333,
            "time": 126.22413006666667,
            "value": 0.13385826771653545
          },
          {
            "number": 10,
            "ticks": 34338,
            "time": 126.2425124,
            "value": 0.15748031496062992
          },
          {
            "number": 10,
            "ticks": 34342,
            "time": 126.25721826666667,
            "value": 0.1889763779527559
          },
          {
            "number": 10,
            "ticks": 34346,
            "time": 126.27192413333333,
            "value": 0.2125984251968504
          },
          {
            "number": 10,
            "ticks": 34350,
            "time": 126.28663,
            "value": 0.2440944881889764
          },
          {
            "number": 10,
            "ticks": 34355,
            "time": 126.30501233333335,
            "value": 0.2677165354330709
          },
          {
            "number": 10,
            "ticks": 34359,
            "time": 126.3197182,
            "value": 0.2992125984251969
          },
          {
            "number": 10,
            "ticks": 34363,
            "time": 126.33442406666667,
            "value": 0.3228346456692913
          },
          {
            "number": 10,
            "ticks": 34368,
            "time": 126.35280639999999,
            "value": 0.3543307086614173
          },
          {
            "number": 10,
            "ticks": 34372,
            "time": 126.36751226666667,
            "value": 0.3779527559055118
          },
          {
            "number": 10,
            "ticks": 34376,
            "time": 126.38221813333332,
            "value": 0.4094488188976378
          },
          {
            "number": 10,
            "ticks": 34380,
            "time": 126.396924,
            "value": 0.4330708661417323
          },
          {
            "number": 10,
            "ticks": 34385,
            "time": 126.41530633333335,
            "value": 0.4645669291338583
          },
          {
            "number": 10,
            "ticks": 34389,
            "time": 126.4300122,
            "value": 0.4881889763779528
          },
          {
            "number": 10,
            "ticks": 34393,
            "time": 126.44471806666668,
            "value": 0.5196850393700787
          },
          {
            "number": 10,
            "ticks": 34398,
            "time": 126.46310039999999,
            "value": 0.5433070866141733
          },
          {
            "number": 10,
            "ticks": 34402,
            "time": 126.47780626666668,
            "value": 0.5748031496062992
          },
          {
            "number": 10,
            "ticks": 34406,
            "time": 126.49251213333332,
            "value": 0.5984251968503937
          },
          {
            "number": 10,
            "ticks": 34410,
            "time": 126.50721800000001,
            "value": 0.6299212598425197
          },
          {
            "number": 10,
            "ticks": 34415,
            "time": 126.52560033333334,
            "value": 0.6535433070866141
          },
          {
            "number": 10,
            "ticks": 34419,
            "time": 126.5403062,
            "value": 0.6850393700787402
          },
          {
            "number": 10,
            "ticks": 34423,
            "time": 126.55501206666668,
            "value": 0.7086614173228346
          },
          {
            "number": 10,
            "ticks": 34428,
            "time": 126.5733944,
            "value": 0.7401574803149606
          },
          {
            "number": 10,
            "ticks": 34432,
            "time": 126.58810026666667,
            "value": 0.7637795275590551
          },
          {
            "number": 10,
            "ticks": 34436,
            "time": 126.60280613333333,
            "value": 0.7952755905511811
          },
          {
            "number": 10,
            "ticks": 34440,
            "time": 126.617512,
            "value": 0.8188976377952756
          },
          {
            "number": 10,
            "ticks": 34445,
            "time": 126.63589433333334,
            "value": 0.8503937007874016
          },
          {
            "number": 10,
            "ticks": 34449,
            "time": 126.6506002,
            "value": 0.8740157480314961
          },
          {
            "number": 10,
            "ticks": 34453,
            "time": 126.66530606666667,
            "value": 0.905511811023622
          },
          {
            "number": 10,
            "ticks": 34458,
            "time": 126.6836884,
            "value": 0.9291338582677166
          },
          {
            "number": 10,
            "ticks": 34462,
            "time": 126.69839426666667,
            "value": 0.9606299212598425
          },
          {
            "number": 10,
            "ticks": 34466,
            "time": 126.71310013333333,
            "value": 0.9921259842519685
          },
          {
            "number": 10,
            "ticks": 34556,
            "time": 127.04398213333333,
            "value": 1
          },
          {
            "number": 10,
            "ticks": 34560,
            "time": 127.058688,
            "value": 0.968503937007874
          },
          {
            "number": 10,
            "ticks": 34565,
            "time": 127.07707033333334,
            "value": 0.937007874015748
          },
          {
            "number": 10,
            "ticks": 34569,
            "time": 127.0917762,
            "value": 0.8976377952755905
          },
          {
            "number": 10,
            "ticks": 34573,
            "time": 127.10648206666667,
            "value": 0.8661417322834646
          },
          {
            "number": 10,
            "ticks": 34578,
            "time": 127.12486439999999,
            "value": 0.8346456692913385
          },
          {
            "number": 10,
            "ticks": 34582,
            "time": 127.13957026666667,
            "value": 0.7952755905511811
          },
          {
            "number": 10,
            "ticks": 34586,
            "time": 127.15427613333333,
            "value": 0.7637795275590551
          },
          {
            "number": 10,
            "ticks": 34590,
            "time": 127.168982,
            "value": 0.7244094488188977
          },
          {
            "number": 10,
            "ticks": 34595,
            "time": 127.18736433333335,
            "value": 0.6929133858267716
          },
          {
            "number": 10,
            "ticks": 34599,
            "time": 127.2020702,
            "value": 0.6614173228346457
          },
          {
            "number": 10,
            "ticks": 34603,
            "time": 127.21677606666668,
            "value": 0.6220472440944882
          },
          {
            "number": 10,
            "ticks": 34608,
            "time": 127.23515839999999,
            "value": 0.5905511811023622
          },
          {
            "number": 10,
            "ticks": 34612,
            "time": 127.24986426666668,
            "value": 0.5590551181102362
          },
          {
            "number": 10,
            "ticks": 34616,
            "time": 127.26457013333332,
            "value": 0.5196850393700787
          },
          {
            "number": 10,
            "ticks": 34620,
            "time": 127.27927600000001,
            "value": 0.4881889763779528
          },
          {
            "number": 10,
            "ticks": 34625,
            "time": 127.29765833333335,
            "value": 0.44881889763779526
          },
          {
            "number": 10,
            "ticks": 34629,
            "time": 127.3123642,
            "value": 0.41732283464566927
          },
          {
            "number": 10,
            "ticks": 34633,
            "time": 127.32707006666668,
            "value": 0.3858267716535433
          },
          {
            "number": 10,
            "ticks": 34638,
            "time": 127.3454524,
            "value": 0.3464566929133858
          },
          {
            "number": 10,
            "ticks": 34642,
            "time": 127.36015826666667,
            "value": 0.31496062992125984
          },
          {
            "number": 10,
            "ticks": 34646,
            "time": 127.37486413333332,
            "value": 0.28346456692913385
          },
          {
            "number": 10,
            "ticks": 34650,
            "time": 127.38957,
            "value": 0.2440944881889764
          },
          {
            "number": 10,
            "ticks": 34655,
            "time": 127.40795233333334,
            "value": 0.2125984251968504
          },
          {
            "number": 10,
            "ticks": 34659,
            "time": 127.4226582,
            "value": 0.1732283464566929
          },
          {
            "number": 10,
            "ticks": 34663,
            "time": 127.43736406666667,
            "value": 0.14173228346456693
          },
          {
            "number": 10,
            "ticks": 34668,
            "time": 127.4557464,
            "value": 0.11023622047244094
          },
          {
            "number": 10,
            "ticks": 34672,
            "time": 127.47045226666667,
            "value": 0.07086614173228346
          },
          {
            "number": 10,
            "ticks": 34676,
            "time": 127.48515813333333,
            "value": 0.03937007874015748
          },
          {
            "number": 10,
            "ticks": 34680,
            "time": 127.499864,
            "value": 0
          },
          {
            "number": 10,
            "ticks": 38391,
            "time": 141.1432318,
            "value": 0
          },
          {
            "number": 10,
            "ticks": 38395,
            "time": 141.15793766666667,
            "value": 0
          },
          {
            "number": 10,
            "ticks": 38399,
            "time": 141.17264353333334,
            "value": 0.007874015748031496
          },
          {
            "number": 10,
            "ticks": 38404,
            "time": 141.19102586666668,
            "value": 0.031496062992125984
          },
          {
            "number": 10,
            "ticks": 38408,
            "time": 141.20573173333332,
            "value": 0.047244094488188976
          },
          {
            "number": 10,
            "ticks": 38412,
            "time": 141.22043760000003,
            "value": 0.07086614173228346
          },
          {
            "number": 10,
            "ticks": 38416,
            "time": 141.23514346666667,
            "value": 0.08661417322834646
          },
          {
            "number": 10,
            "ticks": 38421,
            "time": 141.2535258,
            "value": 0.10236220472440945
          },
          {
            "number": 10,
            "ticks": 38425,
            "time": 141.26823166666665,
            "value": 0.12598425196850394
          },
          {
            "number": 10,
            "ticks": 38429,
            "time": 141.28293753333335,
            "value": 0.14173228346456693
          },
          {
            "number": 10,
            "ticks": 38434,
            "time": 141.3013198666667,
            "value": 0.16535433070866143
          },
          {
            "number": 10,
            "ticks": 38438,
            "time": 141.31602573333333,
            "value": 0.18110236220472442
          },
          {
            "number": 10,
            "ticks": 38442,
            "time": 141.3307316,
            "value": 0.1968503937007874
          },
          {
            "number": 10,
            "ticks": 38446,
            "time": 141.34543746666668,
            "value": 0.2204724409448819
          },
          {
            "number": 10,
            "ticks": 38451,
            "time": 141.36381980000002,
            "value": 0.23622047244094488
          },
          {
            "number": 10,
            "ticks": 38455,
            "time": 141.37852566666666,
            "value": 0.25984251968503935
          },
          {
            "number": 10,
            "ticks": 38459,
            "time": 141.39323153333333,
            "value": 0.2755905511811024
          },
          {
            "number": 10,
            "ticks": 38464,
            "time": 141.41161386666667,
            "value": 0.29133858267716534
          },
          {
            "number": 10,
            "ticks": 38468,
            "time": 141.42631973333334,
            "value": 0.31496062992125984
          },
          {
            "number": 10,
            "ticks": 38472,
            "time": 141.44102560000002,
            "value": 0.33070866141732286
          },
          {
            "number": 10,
            "ticks": 38476,
            "time": 141.45573146666666,
            "value": 0.3543307086614173
          },
          {
            "number": 10,
            "ticks": 38481,
            "time": 141.4741138,
            "value": 0.3700787401574803
          },
          {
            "number": 10,
            "ticks": 38485,
            "time": 141.48881966666667,
            "value": 0.3858267716535433
          },
          {
            "number": 10,
            "ticks": 38489,
            "time": 141.50352553333335,
            "value": 0.4094488188976378
          },
          {
            "number": 10,
            "ticks": 38494,
            "time": 141.52190786666668,
            "value": 0.4251968503937008
          },
          {
            "number": 10,
            "ticks": 38498,
            "time": 141.53661373333333,
            "value": 0.44881889763779526
          },
          {
            "number": 10,
            "ticks": 38502,
            "time": 141.55131960000003,
            "value": 0.4645669291338583
          },
          {
            "number": 10,
            "ticks": 38506,
            "time": 141.56602546666667,
            "value": 0.4881889763779528
          },
          {
            "number": 10,
            "ticks": 38511,
            "time": 141.5844078,
            "value": 0.5039370078740157
          },
          {
            "number": 10,
            "ticks": 38515,
            "time": 141.59911366666665,
            "value": 0.5196850393700787
          },
          {
            "number": 10,
            "ticks": 38519,
            "time": 141.61381953333333,
            "value": 0.5433070866141733
          },
          {
            "number": 10,
            "ticks": 38524,
            "time": 141.6322018666667,
            "value": 0.5590551181102362
          },
          {
            "number": 10,
            "ticks": 38528,
            "time": 141.64690773333334,
            "value": 0.5826771653543307
          },
          {
            "number": 10,
            "ticks": 38532,
            "time": 141.6616136,
            "value": 0.5984251968503937
          },
          {
            "number": 10,
            "ticks": 38536,
            "time": 141.67631946666665,
            "value": 0.6141732283464567
          },
          {
            "number": 10,
            "ticks": 38541,
            "time": 141.69470180000002,
            "value": 0.6377952755905512
          },
          {
            "number": 10,
            "ticks": 38545,
            "time": 141.70940766666666,
            "value": 0.6535433070866141
          },
          {
            "number": 10,
            "ticks": 38549,
            "time": 141.72411353333334,
            "value": 0.6771653543307087
          },
          {
            "number": 10,
            "ticks": 38554,
            "time": 141.74249586666667,
            "value": 0.6929133858267716
          },
          {
            "number": 10,
            "ticks": 38558,
            "time": 141.75720173333335,
            "value": 0.7086614173228346
          },
          {
            "number": 10,
            "ticks": 38562,
            "time": 141.77190760000002,
            "value": 0.7322834645669292
          },
          {
            "number": 10,
            "ticks": 38566,
            "time": 141.78661346666667,
            "value": 0.7480314960629921
          },
          {
            "number": 10,
            "ticks": 38571,
            "time": 141.8049958,
            "value": 0.7716535433070866
          },
          {
            "number": 10,
            "ticks": 38575,
            "time": 141.81970166666667,
            "value": 0.7874015748031497
          },
          {
            "number": 10,
            "ticks": 38579,
            "time": 141.83440753333335,
            "value": 0.8031496062992126
          },
          {
            "number": 10,
            "ticks": 38584,
            "time": 141.85278986666668,
            "value": 0.8267716535433071
          },
          {
            "number": 10,
            "ticks": 38588,
            "time": 141.86749573333333,
            "value": 0.84251968503937
          },
          {
            "number": 10,
            "ticks": 38592,
            "time": 141.8822016,
            "value": 0.8661417322834646
          },
          {
            "number": 10,
            "ticks": 38596,
            "time": 141.89690746666668,
            "value": 0.8818897637795275
          },
          {
            "number": 10,
            "ticks": 38601,
            "time": 141.9152898,
            "value": 0.8976377952755905
          },
          {
            "number": 10,
            "ticks": 38605,
            "time": 141.92999566666666,
            "value": 0.9212598425196851
          },
          {
            "number": 10,
            "ticks": 38609,
            "time": 141.94470153333333,
            "value": 0.937007874015748
          },
          {
            "number": 10,
            "ticks": 38614,
            "time": 141.9630838666667,
            "value": 0.9606299212598425
          },
          {
            "number": 10,
            "ticks": 38618,
            "time": 141.97778973333334,
            "value": 0.9763779527559056
          },
          {
            "number": 10,
            "ticks": 38622,
            "time": 141.9924956,
            "value": 1
          },
          {
            "number": 10,
            "ticks": 38626,
            "time": 142.00720146666666,
            "value": 0.968503937007874
          },
          {
            "number": 10,
            "ticks": 38631,
            "time": 142.02558380000002,
            "value": 0.9448818897637795
          },
          {
            "number": 10,
            "ticks": 38635,
            "time": 142.04028966666667,
            "value": 0.9212598425196851
          },
          {
            "number": 10,
            "ticks": 38639,
            "time": 142.05499553333334,
            "value": 0.8976377952755905
          },
          {
            "number": 10,
            "ticks": 38644,
            "time": 142.07337786666668,
            "value": 0.8661417322834646
          },
          {
            "number": 10,
            "ticks": 38648,
            "time": 142.08808373333335,
            "value": 0.84251968503937
          },
          {
            "number": 10,
            "ticks": 38652,
            "time": 142.10278960000002,
            "value": 0.8188976377952756
          },
          {
            "number": 10,
            "ticks": 38656,
            "time": 142.11749546666667,
            "value": 0.7874015748031497
          },
          {
            "number": 10,
            "ticks": 38661,
            "time": 142.1358778,
            "value": 0.7637795275590551
          },
          {
            "number": 10,
            "ticks": 38665,
            "time": 142.15058366666665,
            "value": 0.7401574803149606
          },
          {
            "number": 10,
            "ticks": 38669,
            "time": 142.16528953333335,
            "value": 0.7086614173228346
          },
          {
            "number": 10,
            "ticks": 38674,
            "time": 142.18367186666669,
            "value": 0.6850393700787402
          },
          {
            "number": 10,
            "ticks": 38678,
            "time": 142.19837773333333,
            "value": 0.6614173228346457
          },
          {
            "number": 10,
            "ticks": 38682,
            "time": 142.2130836,
            "value": 0.6299212598425197
          },
          {
            "number": 10,
            "ticks": 38686,
            "time": 142.22778946666668,
            "value": 0.6062992125984252
          },
          {
            "number": 10,
            "ticks": 38691,
            "time": 142.2461718,
            "value": 0.5826771653543307
          },
          {
            "number": 10,
            "ticks": 38695,
            "time": 142.26087766666666,
            "value": 0.5511811023622047
          },
          {
            "number": 10,
            "ticks": 38699,
            "time": 142.27558353333333,
            "value": 0.5275590551181102
          },
          {
            "number": 10,
            "ticks": 38704,
            "time": 142.2939658666667,
            "value": 0.5039370078740157
          },
          {
            "number": 10,
            "ticks": 38708,
            "time": 142.30867173333334,
            "value": 0.47244094488188976
          },
          {
            "number": 10,
            "ticks": 38712,
            "time": 142.32337760000001,
            "value": 0.44881889763779526
          },
          {
            "number": 10,
            "ticks": 38716,
            "time": 142.33808346666666,
            "value": 0.4251968503937008
          },
          {
            "number": 10,
            "ticks": 38721,
            "time": 142.3564658,
            "value": 0.3937007874015748
          },
          {
            "number": 10,
            "ticks": 38725,
            "time": 142.37117166666667,
            "value": 0.3700787401574803
          },
          {
            "number": 10,
            "ticks": 38729,
            "time": 142.38587753333334,
            "value": 0.3464566929133858
          },
          {
            "number": 10,
            "ticks": 38734,
            "time": 142.40425986666668,
            "value": 0.31496062992125984
          },
          {
            "number": 10,
            "ticks": 38738,
            "time": 142.41896573333332,
            "value": 0.29133858267716534
          },
          {
            "number": 10,
            "ticks": 38742,
            "time": 142.43367160000003,
            "value": 0.2677165354330709
          },
          {
            "number": 10,
            "ticks": 38746,
            "time": 142.44837746666667,
            "value": 0.23622047244094488
          },
          {
            "number": 10,
            "ticks": 38751,
            "time": 142.4667598,
            "value": 0.2125984251968504
          },
          {
            "number": 10,
            "ticks": 38755,
            "time": 142.48146566666665,
            "value": 0.1889763779527559
          },
          {
            "number": 10,
            "ticks": 38759,
            "time": 142.49617153333335,
            "value": 0.15748031496062992
          },
          {
            "number": 10,
            "ticks": 38764,
            "time": 142.5145538666667,
            "value": 0.13385826771653545
          },
          {
            "number": 10,
            "ticks": 38768,
            "time": 142.52925973333333,
            "value": 0.11023622047244094
          },
          {
            "number": 10,
            "ticks": 38772,
            "time": 142.5439656,
            "value": 0.07874015748031496
          },
          {
            "number": 10,
            "ticks": 38776,
            "time": 142.55867146666668,
            "value": 0.05511811023622047
          },
          {
            "number": 10,
            "ticks": 38781,
            "time": 142.57705380000002,
            "value": 0.031496062992125984
          },
          {
            "number": 10,
            "ticks": 38785,
            "time": 142.59175966666666,
            "value": 0
          },
          {
            "number": 10,
            "ticks": 49905,
            "time": 183.47406900000001,
            "value": 0.9606299212598425
          },
          {
            "number": 10,
            "ticks": 49909,
            "time": 183.4887748666667,
            "value": 0.9448818897637795
          },
          {
            "number": 10,
            "ticks": 49914,
            "time": 183.5071572,
            "value": 0.9212598425196851
          },
          {
            "number": 10,
            "ticks": 49918,
            "time": 183.52186306666667,
            "value": 0.905511811023622
          },
          {
            "number": 10,
            "ticks": 49922,
            "time": 183.53656893333334,
            "value": 0.8818897637795275
          },
          {
            "number": 10,
            "ticks": 49926,
            "time": 183.55127480000002,
            "value": 0.8582677165354331
          },
          {
            "number": 10,
            "ticks": 49931,
            "time": 183.56965713333332,
            "value": 0.84251968503937
          },
          {
            "number": 10,
            "ticks": 49935,
            "time": 183.584363,
            "value": 0.8188976377952756
          },
          {
            "number": 10,
            "ticks": 49939,
            "time": 183.59906886666667,
            "value": 0.7952755905511811
          },
          {
            "number": 10,
            "ticks": 49944,
            "time": 183.6174512,
            "value": 0.7795275590551181
          },
          {
            "number": 10,
            "ticks": 49948,
            "time": 183.63215706666668,
            "value": 0.7559055118110236
          },
          {
            "number": 10,
            "ticks": 49952,
            "time": 183.64686293333332,
            "value": 0.7322834645669292
          },
          {
            "number": 10,
            "ticks": 49956,
            "time": 183.6615688,
            "value": 0.7165354330708661
          },
          {
            "number": 10,
            "ticks": 49961,
            "time": 183.67995113333333,
            "value": 0.6929133858267716
          },
          {
            "number": 10,
            "ticks": 49965,
            "time": 183.694657,
            "value": 0.6692913385826772
          },
          {
            "number": 10,
            "ticks": 49969,
            "time": 183.70936286666668,
            "value": 0.6535433070866141
          },
          {
            "number": 10,
            "ticks": 49974,
            "time": 183.7277452,
            "value": 0.6299212598425197
          },
          {
            "number": 10,
            "ticks": 49978,
            "time": 183.7424510666667,
            "value": 0.6062992125984252
          },
          {
            "number": 10,
            "ticks": 49982,
            "time": 183.75715693333333,
            "value": 0.5905511811023622
          },
          {
            "number": 10,
            "ticks": 49986,
            "time": 183.7718628,
            "value": 0.5669291338582677
          },
          {
            "number": 10,
            "ticks": 49991,
            "time": 183.79024513333331,
            "value": 0.5433070866141733
          },
          {
            "number": 10,
            "ticks": 49995,
            "time": 183.80495100000002,
            "value": 0.5275590551181102
          },
          {
            "number": 10,
            "ticks": 49999,
            "time": 183.8196568666667,
            "value": 0.5039370078740157
          },
          {
            "number": 10,
            "ticks": 50004,
            "time": 183.8380392,
            "value": 0.48031496062992124
          },
          {
            "number": 10,
            "ticks": 50008,
            "time": 183.85274506666667,
            "value": 0.4645669291338583
          },
          {
            "number": 10,
            "ticks": 50012,
            "time": 183.86745093333334,
            "value": 0.4409448818897638
          },
          {
            "number": 10,
            "ticks": 50016,
            "time": 183.88215680000002,
            "value": 0.4251968503937008
          },
          {
            "number": 10,
            "ticks": 50021,
            "time": 183.90053913333333,
            "value": 0.4015748031496063
          },
          {
            "number": 10,
            "ticks": 50025,
            "time": 183.915245,
            "value": 0.3779527559055118
          },
          {
            "number": 10,
            "ticks": 50029,
            "time": 183.92995086666667,
            "value": 0.36220472440944884
          },
          {
            "number": 10,
            "ticks": 50034,
            "time": 183.9483332,
            "value": 0.33858267716535434
          },
          {
            "number": 10,
            "ticks": 50038,
            "time": 183.96303906666668,
            "value": 0.31496062992125984
          },
          {
            "number": 10,
            "ticks": 50042,
            "time": 183.97774493333333,
            "value": 0.2992125984251969
          },
          {
            "number": 10,
            "ticks": 50046,
            "time": 183.9924508,
            "value": 0.2755905511811024
          },
          {
            "number": 10,
            "ticks": 50051,
            "time": 184.01083313333334,
            "value": 0.25196850393700787
          },
          {
            "number": 10,
            "ticks": 50055,
            "time": 184.025539,
            "value": 0.23622047244094488
          },
          {
            "number": 10,
            "ticks": 50059,
            "time": 184.04024486666668,
            "value": 0.2125984251968504
          },
          {
            "number": 10,
            "ticks": 50064,
            "time": 184.0586272,
            "value": 0.1889763779527559
          },
          {
            "number": 10,
            "ticks": 50068,
            "time": 184.0733330666667,
            "value": 0.1732283464566929
          },
          {
            "number": 10,
            "ticks": 50072,
            "time": 184.08803893333334,
            "value": 0.14960629921259844
          },
          {
            "number": 10,
            "ticks": 50076,
            "time": 184.1027448,
            "value": 0.12598425196850394
          },
          {
            "number": 10,
            "ticks": 50081,
            "time": 184.12112713333332,
            "value": 0.11023622047244094
          },
          {
            "number": 10,
            "ticks": 50085,
            "time": 184.13583300000002,
            "value": 0.08661417322834646
          },
          {
            "number": 10,
            "ticks": 50089,
            "time": 184.1505388666667,
            "value": 0.06299212598425197
          },
          {
            "number": 10,
            "ticks": 50094,
            "time": 184.1689212,
            "value": 0.047244094488188976
          },
          {
            "number": 10,
            "ticks": 50098,
            "time": 184.18362706666667,
            "value": 0.023622047244094488
          },
          {
            "number": 10,
            "ticks": 50102,
            "time": 184.19833293333332,
            "value": 0
          },
          {
            "number": 10,
            "ticks": 50106,
            "time": 184.21303880000002,
            "value": 0
          },
          {
            "number": 10,
            "ticks": 50111,
            "time": 184.23142113333333,
            "value": 0
          },
          {
            "number": 10,
            "ticks": 50115,
            "time": 184.246127,
            "value": 0.023622047244094488
          },
          {
            "number": 10,
            "ticks": 50119,
            "time": 184.26083286666668,
            "value": 0.05511811023622047
          },
          {
            "number": 10,
            "ticks": 50124,
            "time": 184.2792152,
            "value": 0.07874015748031496
          },
          {
            "number": 10,
            "ticks": 50128,
            "time": 184.29392106666668,
            "value": 0.11023622047244094
          },
          {
            "number": 10,
            "ticks": 50132,
            "time": 184.30862693333333,
            "value": 0.13385826771653545
          },
          {
            "number": 10,
            "ticks": 50136,
            "time": 184.3233328,
            "value": 0.16535433070866143
          },
          {
            "number": 10,
            "ticks": 50141,
            "time": 184.34171513333334,
            "value": 0.1889763779527559
          },
          {
            "number": 10,
            "ticks": 50145,
            "time": 184.356421,
            "value": 0.2204724409448819
          },
          {
            "number": 10,
            "ticks": 50149,
            "time": 184.37112686666669,
            "value": 0.2440944881889764
          },
          {
            "number": 10,
            "ticks": 50154,
            "time": 184.3895092,
            "value": 0.2755905511811024
          },
          {
            "number": 10,
            "ticks": 50158,
            "time": 184.40421506666667,
            "value": 0.2992125984251969
          },
          {
            "number": 10,
            "ticks": 50162,
            "time": 184.41892093333334,
            "value": 0.3228346456692913
          },
          {
            "number": 10,
            "ticks": 50166,
            "time": 184.4336268,
            "value": 0.3543307086614173
          },
          {
            "number": 10,
            "ticks": 50171,
            "time": 184.45200913333332,
            "value": 0.3779527559055118
          },
          {
            "number": 10,
            "ticks": 50175,
            "time": 184.466715,
            "value": 0.4094488188976378
          },
          {
            "number": 10,
            "ticks": 50179,
            "time": 184.4814208666667,
            "value": 0.4330708661417323
          },
          {
            "number": 10,
            "ticks": 50184,
            "time": 184.4998032,
            "value": 0.4645669291338583
          },
          {
            "number": 10,
            "ticks": 50188,
            "time": 184.51450906666668,
            "value": 0.4881889763779528
          },
          {
            "number": 10,
            "ticks": 50192,
            "time": 184.52921493333332,
            "value": 0.5196850393700787
          },
          {
            "number": 10,
            "ticks": 50196,
            "time": 184.54392080000002,
            "value": 0.5433070866141733
          },
          {
            "number": 10,
            "ticks": 50201,
            "time": 184.56230313333333,
            "value": 0.5748031496062992
          },
          {
            "number": 10,
            "ticks": 50205,
            "time": 184.577009,
            "value": 0.5984251968503937
          },
          {
            "number": 10,
            "ticks": 50209,
            "time": 184.59171486666668,
            "value": 0.6299212598425197
          },
          {
            "number": 10,
            "ticks": 50214,
            "time": 184.6100972,
            "value": 0.6535433070866141
          },
          {
            "number": 10,
            "ticks": 50218,
            "time": 184.6248030666667,
            "value": 0.6771653543307087
          },
          {
            "number": 10,
            "ticks": 50222,
            "time": 184.63950893333333,
            "value": 0.7086614173228346
          },
          {
            "number": 10,
            "ticks": 50226,
            "time": 184.6542148,
            "value": 0.7322834645669292
          },
          {
            "number": 10,
            "ticks": 50231,
            "time": 184.67259713333334,
            "value": 0.7637795275590551
          },
          {
            "number": 10,
            "ticks": 50235,
            "time": 184.687303,
            "value": 0.7874015748031497
          },
          {
            "number": 10,
            "ticks": 50239,
            "time": 184.7020088666667,
            "value": 0.8188976377952756
          },
          {
            "number": 10,
            "ticks": 50244,
            "time": 184.7203912,
            "value": 0.84251968503937
          },
          {
            "number": 10,
            "ticks": 50248,
            "time": 184.73509706666667,
            "value": 0.8740157480314961
          },
          {
            "number": 10,
            "ticks": 50252,
            "time": 184.74980293333334,
            "value": 0.8976377952755905
          },
          {
            "number": 10,
            "ticks": 50256,
            "time": 184.76450880000002,
            "value": 0.9291338582677166
          },
          {
            "number": 10,
            "ticks": 50261,
            "time": 184.78289113333332,
            "value": 0.952755905511811
          },
          {
            "number": 10,
            "ticks": 50265,
            "time": 184.797597,
            "value": 0.984251968503937
          }
        ],
        "11": [
          {
            "number": 11,
            "ticks": 157,
            "time": 0.5772052666666667,
            "value": 1
          }
        ],
        "64": [
          {
            "number": 64,
            "ticks": 193,
            "time": 0.7095580666666668,
            "value": 0
          }
        ],
        "65": [
          {
            "number": 65,
            "ticks": 218,
            "time": 0.8014697333333334,
            "value": 0
          }
        ],
        "91": [
          {
            "number": 91,
            "ticks": 13,
            "time": 0.04779406666666667,
            "value": 0.5511811023622047
          }
        ],
        "93": [
          {
            "number": 93,
            "ticks": 120,
            "time": 0.441176,
            "value": 0.23622047244094488
          }
        ],
        "94": [
          {
            "number": 94,
            "ticks": 136,
            "time": 0.49999946666666667,
            "value": 0.23622047244094488
          }
        ],
        "121": [
          {
            "number": 121,
            "ticks": 0,
            "time": 0,
            "value": 0
          }
        ]
      },
      "pitchBends": [
        {
          "ticks": 203,
          "time": 0.7463227333333333,
          "value": 0
        }
      ],
      "instrument": {
        "family": "percussive",
        "number": 119,
        "name": "reverse cymbal"
      },
      "name": "Rverse Cymbal",
      "notes": [
        {
          "duration": 1.8014686666666684,
          "durationTicks": 490,
          "midi": 81,
          "name": "A5",
          "ticks": 3840,
          "time": 14.117632,
          "velocity": 0.7322834645669292
        },
        {
          "duration": 0.8455873333333344,
          "durationTicks": 230,
          "midi": 69,
          "name": "A4",
          "ticks": 7920,
          "time": 29.117616,
          "velocity": 0.7322834645669292
        },
        {
          "duration": 1.801468666666672,
          "durationTicks": 490,
          "midi": 69,
          "name": "A4",
          "ticks": 15360,
          "time": 56.470528,
          "velocity": 0.7322834645669292
        },
        {
          "duration": 1.6727923333333337,
          "durationTicks": 455,
          "midi": 81,
          "name": "A5",
          "ticks": 19440,
          "time": 71.470512,
          "velocity": 0.7086614173228346
        },
        {
          "duration": 0.8455873333333273,
          "durationTicks": 230,
          "midi": 69,
          "name": "A4",
          "ticks": 19920,
          "time": 73.23521600000001,
          "velocity": 0.6692913385826772
        },
        {
          "duration": 1.6874981999999932,
          "durationTicks": 459,
          "midi": 81,
          "name": "A5",
          "ticks": 34080,
          "time": 125.29398400000001,
          "velocity": 0.7322834645669292
        },
        {
          "duration": 0.8639696666666623,
          "durationTicks": 235,
          "midi": 81,
          "name": "A5",
          "ticks": 34560,
          "time": 127.058688,
          "velocity": 0.7322834645669292
        },
        {
          "duration": 1.6727923333333479,
          "durationTicks": 455,
          "midi": 81,
          "name": "A5",
          "ticks": 38400,
          "time": 141.17632,
          "velocity": 0.7086614173228346
        },
        {
          "duration": 1.7610275333333334,
          "durationTicks": 479,
          "midi": 81,
          "name": "A5",
          "ticks": 49920,
          "time": 183.52921600000002,
          "velocity": 0.7322834645669292
        },
        {
          "duration": 0.9154402000000346,
          "durationTicks": 249,
          "midi": 51,
          "name": "D#3",
          "ticks": 61920,
          "time": 227.646816,
          "velocity": 0.9448818897637795
        },
        {
          "duration": 0.9154402000000346,
          "durationTicks": 249,
          "midi": 56,
          "name": "G#3",
          "ticks": 61920,
          "time": 227.646816,
          "velocity": 0.9448818897637795
        }
      ],
      "endOfTrackTicks": 62169
    },
    {
      "channel": 9,
      "controlChanges": {
        "1": [
          {
            "number": 1,
            "ticks": 54,
            "time": 0.19852920000000002,
            "value": 0
          }
        ],
        "6": [
          {
            "number": 6,
            "ticks": 106,
            "time": 0.38970546666666667,
            "value": 0
          },
          {
            "number": 6,
            "ticks": 217,
            "time": 0.7977932666666667,
            "value": 0.5039370078740157
          },
          {
            "number": 6,
            "ticks": 236,
            "time": 0.8676461333333333,
            "value": 0
          },
          {
            "number": 6,
            "ticks": 252,
            "time": 0.9264696000000001,
            "value": 0
          },
          {
            "number": 6,
            "ticks": 281,
            "time": 1.0330871333333334,
            "value": 0.3228346456692913
          },
          {
            "number": 6,
            "ticks": 301,
            "time": 1.1066164666666667,
            "value": 0.7165354330708661
          },
          {
            "number": 6,
            "ticks": 325,
            "time": 1.1948516666666669,
            "value": 0.5590551181102362
          },
          {
            "number": 6,
            "ticks": 380,
            "time": 1.3970573333333334,
            "value": 0.6062992125984252
          },
          {
            "number": 6,
            "ticks": 426,
            "time": 1.5661748,
            "value": 0.3937007874015748
          },
          {
            "number": 6,
            "ticks": 457,
            "time": 1.6801452666666665,
            "value": 0.4645669291338583
          },
          {
            "number": 6,
            "ticks": 473,
            "time": 1.7389687333333335,
            "value": 0.5039370078740157
          }
        ],
        "7": [
          {
            "number": 7,
            "ticks": 0,
            "time": 0,
            "value": 0.8661417322834646
          }
        ],
        "10": [
          {
            "number": 10,
            "ticks": 0,
            "time": 0,
            "value": 0.5039370078740157
          }
        ],
        "11": [
          {
            "number": 11,
            "ticks": 47,
            "time": 0.17279393333333334,
            "value": 1
          }
        ],
        "91": [
          {
            "number": 91,
            "ticks": 13,
            "time": 0.04779406666666667,
            "value": 0.3464566929133858
          }
        ],
        "93": [
          {
            "number": 93,
            "ticks": 24,
            "time": 0.08823520000000001,
            "value": 0
          }
        ],
        "94": [
          {
            "number": 94,
            "ticks": 32,
            "time": 0.11764693333333333,
            "value": 0
          }
        ],
        "98": [
          {
            "number": 98,
            "ticks": 96,
            "time": 0.35294080000000005,
            "value": 0.3858267716535433
          },
          {
            "number": 98,
            "ticks": 212,
            "time": 0.7794109333333333,
            "value": 0.2755905511811024
          },
          {
            "number": 98,
            "ticks": 231,
            "time": 0.8492638,
            "value": 0.31496062992125984
          },
          {
            "number": 98,
            "ticks": 245,
            "time": 0.9007343333333333,
            "value": 0.2755905511811024
          },
          {
            "number": 98,
            "ticks": 272,
            "time": 0.9999989333333333,
            "value": 0.49606299212598426
          },
          {
            "number": 98,
            "ticks": 296,
            "time": 1.0882341333333334,
            "value": 0.5039370078740157
          },
          {
            "number": 98,
            "ticks": 319,
            "time": 1.1727928666666667,
            "value": 0.6456692913385826
          },
          {
            "number": 98,
            "ticks": 372,
            "time": 1.3676456000000001,
            "value": 0.2204724409448819
          },
          {
            "number": 98,
            "ticks": 417,
            "time": 1.5330866,
            "value": 0.2204724409448819
          },
          {
            "number": 98,
            "ticks": 451,
            "time": 1.6580864666666666,
            "value": 0.4409448818897638
          },
          {
            "number": 98,
            "ticks": 470,
            "time": 1.7279393333333333,
            "value": 0.31496062992125984
          }
        ],
        "99": [
          {
            "number": 99,
            "ticks": 88,
            "time": 0.32352906666666664,
            "value": 0.2204724409448819
          },
          {
            "number": 99,
            "ticks": 207,
            "time": 0.7610286,
            "value": 0.1889763779527559
          },
          {
            "number": 99,
            "ticks": 218,
            "time": 0.8014697333333334,
            "value": 0.2283464566929134
          },
          {
            "number": 99,
            "ticks": 240,
            "time": 0.882352,
            "value": 0.2283464566929134
          },
          {
            "number": 99,
            "ticks": 263,
            "time": 0.9669107333333334,
            "value": 0.2204724409448819
          },
          {
            "number": 99,
            "ticks": 289,
            "time": 1.0624988666666666,
            "value": 0.2204724409448819
          },
          {
            "number": 99,
            "ticks": 312,
            "time": 1.1470576000000001,
            "value": 0.2204724409448819
          },
          {
            "number": 99,
            "ticks": 360,
            "time": 1.323528,
            "value": 0.2204724409448819
          },
          {
            "number": 99,
            "ticks": 405,
            "time": 1.488969,
            "value": 0.2204724409448819
          },
          {
            "number": 99,
            "ticks": 447,
            "time": 1.6433806000000002,
            "value": 0.2204724409448819
          },
          {
            "number": 99,
            "ticks": 467,
            "time": 1.7169099333333333,
            "value": 0.1889763779527559
          }
        ]
      },
      "pitchBends": [
        {
          "ticks": 63,
          "time": 0.23161740000000003,
          "value": 0
        }
      ],
      "instrument": {
        "family": "drums",
        "number": 25,
        "name": "tr-808 kit"
      },
      "name": "Drums",
      "notes": [
        {
          "duration": 0.0036764666666666665,
          "durationTicks": 1,
          "midi": 44,
          "name": "G#2",
          "ticks": 0,
          "time": 0,
          "velocity": 0.8661417322834646
        },
        {
          "duration": 0.0036764666666666557,
          "durationTicks": 1,
          "midi": 44,
          "name": "G#2",
          "ticks": 120,
          "time": 0.441176,
          "velocity": 1
        },
        {
          "duration": 0.0036764666666666557,
          "durationTicks": 1,
          "midi": 46,
          "name": "A#2",
          "ticks": 240,
          "time": 0.882352,
          "velocity": 0.6299212598425197
        },
        {
          "duration": 0.0036764666666666557,
          "durationTicks": 1,
          "midi": 44,
          "name": "G#2",
          "ticks": 360,
          "time": 1.323528,
          "velocity": 0.8661417322834646
        },
        {
          "duration": 0.0036764666666668777,
          "durationTicks": 1,
          "midi": 39,
          "name": "D#2",
          "ticks": 480,
          "time": 1.764704,
          "velocity": 0.7874015748031497
        },
        {
          "duration": 0.0036764666666666557,
          "durationTicks": 1,
          "midi": 39,
          "name": "D#2",
          "ticks": 600,
          "time": 2.20588,
          "velocity": 0.7874015748031497
        },
        {
          "duration": 0.0036764666666666557,
          "durationTicks": 1,
          "midi": 39,
          "name": "D#2",
          "ticks": 720,
          "time": 2.647056,
          "velocity": 0.7874015748031497
        },
        {
          "duration": 0.0036764666666666557,
          "durationTicks": 1,
          "midi": 39,
          "name": "D#2",
          "ticks": 840,
          "time": 3.088232,
          "velocity": 0.7874015748031497
        },
        {
          "duration": 0.0036764666666666557,
          "durationTicks": 1,
          "midi": 39,
          "name": "D#2",
          "ticks": 960,
          "time": 3.529408,
          "velocity": 0.7874015748031497
        },
        {
          "duration": 0.0036764666666666557,
          "durationTicks": 1,
          "midi": 39,
          "name": "D#2",
          "ticks": 1080,
          "time": 3.970584,
          "velocity": 0.7874015748031497
        },
        {
          "duration": 0.0036764666666666557,
          "durationTicks": 1,
          "midi": 39,
          "name": "D#2",
          "ticks": 1200,
          "time": 4.41176,
          "velocity": 0.7874015748031497
        },
        {
          "duration": 0.0036764666666666557,
          "durationTicks": 1,
          "midi": 39,
          "name": "D#2",
          "ticks": 1320,
          "time": 4.852936,
          "velocity": 0.7874015748031497
        },
        {
          "duration": 0.0036764666666666557,
          "durationTicks": 1,
          "midi": 39,
          "name": "D#2",
          "ticks": 1440,
          "time": 5.294112,
          "velocity": 0.7874015748031497
        },
        {
          "duration": 0.0036764666666657675,
          "durationTicks": 1,
          "midi": 39,
          "name": "D#2",
          "ticks": 1560,
          "time": 5.735288000000001,
          "velocity": 0.7874015748031497
        },
        {
          "duration": 0.0036764666666666557,
          "durationTicks": 1,
          "midi": 39,
          "name": "D#2",
          "ticks": 1680,
          "time": 6.176464,
          "velocity": 0.7874015748031497
        },
        {
          "duration": 0.0036764666666666557,
          "durationTicks": 1,
          "midi": 39,
          "name": "D#2",
          "ticks": 1800,
          "time": 6.61764,
          "velocity": 0.7874015748031497
        },
        {
          "duration": 0.0036764666666666557,
          "durationTicks": 1,
          "midi": 39,
          "name": "D#2",
          "ticks": 1920,
          "time": 7.058816,
          "velocity": 0.7874015748031497
        },
        {
          "duration": 0.0036764666666657675,
          "durationTicks": 1,
          "midi": 39,
          "name": "D#2",
          "ticks": 2040,
          "time": 7.499992000000001,
          "velocity": 0.7874015748031497
        },
        {
          "duration": 0.0036764666666666557,
          "durationTicks": 1,
          "midi": 39,
          "name": "D#2",
          "ticks": 2160,
          "time": 7.941168,
          "velocity": 0.7874015748031497
        },
        {
          "duration": 0.0036764666666666557,
          "durationTicks": 1,
          "midi": 39,
          "name": "D#2",
          "ticks": 2280,
          "time": 8.382344,
          "velocity": 0.7874015748031497
        },
        {
          "duration": 0.0036764666666666557,
          "durationTicks": 1,
          "midi": 39,
          "name": "D#2",
          "ticks": 2400,
          "time": 8.82352,
          "velocity": 0.7874015748031497
        },
        {
          "duration": 0.0036764666666666557,
          "durationTicks": 1,
          "midi": 39,
          "name": "D#2",
          "ticks": 2520,
          "time": 9.264696,
          "velocity": 0.7874015748031497
        },
        {
          "duration": 0.0036764666666666557,
          "durationTicks": 1,
          "midi": 39,
          "name": "D#2",
          "ticks": 2640,
          "time": 9.705872,
          "velocity": 0.7874015748031497
        },
        {
          "duration": 0.0036764666666666557,
          "durationTicks": 1,
          "midi": 39,
          "name": "D#2",
          "ticks": 2760,
          "time": 10.147048,
          "velocity": 0.7874015748031497
        },
        {
          "duration": 0.0036764666666666557,
          "durationTicks": 1,
          "midi": 39,
          "name": "D#2",
          "ticks": 2880,
          "time": 10.588224,
          "velocity": 0.7874015748031497
        },
        {
          "duration": 0.0036764666666666557,
          "durationTicks": 1,
          "midi": 39,
          "name": "D#2",
          "ticks": 3000,
          "time": 11.0294,
          "velocity": 0.7874015748031497
        },
        {
          "duration": 0.0036764666666648793,
          "durationTicks": 1,
          "midi": 39,
          "name": "D#2",
          "ticks": 3120,
          "time": 11.470576000000001,
          "velocity": 0.7874015748031497
        },
        {
          "duration": 0.0036764666666666557,
          "durationTicks": 1,
          "midi": 39,
          "name": "D#2",
          "ticks": 3240,
          "time": 11.911752,
          "velocity": 0.7874015748031497
        },
        {
          "duration": 0.0036764666666666557,
          "durationTicks": 1,
          "midi": 39,
          "name": "D#2",
          "ticks": 3360,
          "time": 12.352928,
          "velocity": 0.7874015748031497
        },
        {
          "duration": 0.0036764666666666557,
          "durationTicks": 1,
          "midi": 39,
          "name": "D#2",
          "ticks": 3480,
          "time": 12.794104,
          "velocity": 0.7874015748031497
        },
        {
          "duration": 0.0036764666666666557,
          "durationTicks": 1,
          "midi": 39,
          "name": "D#2",
          "ticks": 3600,
          "time": 13.23528,
          "velocity": 0.7874015748031497
        },
        {
          "duration": 0.0036764666666666557,
          "durationTicks": 1,
          "midi": 39,
          "name": "D#2",
          "ticks": 3720,
          "time": 13.676456,
          "velocity": 0.7874015748031497
        },
        {
          "duration": 0.0036764666666666557,
          "durationTicks": 1,
          "midi": 52,
          "name": "E3",
          "ticks": 3840,
          "time": 14.117632,
          "velocity": 0.41732283464566927
        },
        {
          "duration": 0.0036764666666666557,
          "durationTicks": 1,
          "midi": 52,
          "name": "E3",
          "ticks": 3855,
          "time": 14.172779,
          "velocity": 0.4251968503937008
        },
        {
          "duration": 0.0036764666666666557,
          "durationTicks": 1,
          "midi": 52,
          "name": "E3",
          "ticks": 3870,
          "time": 14.227926,
          "velocity": 0.4330708661417323
        },
        {
          "duration": 0.0036764666666666557,
          "durationTicks": 1,
          "midi": 52,
          "name": "E3",
          "ticks": 3885,
          "time": 14.283073,
          "velocity": 0.44881889763779526
        },
        {
          "duration": 0.0036764666666666557,
          "durationTicks": 1,
          "midi": 52,
          "name": "E3",
          "ticks": 3900,
          "time": 14.33822,
          "velocity": 0.4566929133858268
        },
        {
          "duration": 0.0036764666666666557,
          "durationTicks": 1,
          "midi": 52,
          "name": "E3",
          "ticks": 3915,
          "time": 14.393367,
          "velocity": 0.47244094488188976
        },
        {
          "duration": 0.0036764666666648793,
          "durationTicks": 1,
          "midi": 52,
          "name": "E3",
          "ticks": 3930,
          "time": 14.448514000000001,
          "velocity": 0.48031496062992124
        },
        {
          "duration": 0.0036764666666666557,
          "durationTicks": 1,
          "midi": 52,
          "name": "E3",
          "ticks": 3945,
          "time": 14.503661000000001,
          "velocity": 0.4881889763779528
        },
        {
          "duration": 0.0036764666666666557,
          "durationTicks": 1,
          "midi": 52,
          "name": "E3",
          "ticks": 3960,
          "time": 14.558808,
          "velocity": 0.5118110236220472
        },
        {
          "duration": 0.0036764666666666557,
          "durationTicks": 1,
          "midi": 52,
          "name": "E3",
          "ticks": 3975,
          "time": 14.613955,
          "velocity": 0.5196850393700787
        },
        {
          "duration": 0.0036764666666666557,
          "durationTicks": 1,
          "midi": 52,
          "name": "E3",
          "ticks": 3990,
          "time": 14.669102,
          "velocity": 0.5354330708661418
        },
        {
          "duration": 0.0036764666666666557,
          "durationTicks": 1,
          "midi": 52,
          "name": "E3",
          "ticks": 4005,
          "time": 14.724249,
          "velocity": 0.5433070866141733
        },
        {
          "duration": 0.0036764666666666557,
          "durationTicks": 1,
          "midi": 52,
          "name": "E3",
          "ticks": 4020,
          "time": 14.779396,
          "velocity": 0.5511811023622047
        },
        {
          "duration": 0.0036764666666666557,
          "durationTicks": 1,
          "midi": 52,
          "name": "E3",
          "ticks": 4035,
          "time": 14.834543,
          "velocity": 0.5669291338582677
        },
        {
          "duration": 0.0036764666666666557,
          "durationTicks": 1,
          "midi": 52,
          "name": "E3",
          "ticks": 4050,
          "time": 14.88969,
          "velocity": 0.5748031496062992
        },
        {
          "duration": 0.0036764666666666557,
          "durationTicks": 1,
          "midi": 52,
          "name": "E3",
          "ticks": 4065,
          "time": 14.944837,
          "velocity": 0.5905511811023622
        },
        {
          "duration": 0.0036764666666648793,
          "durationTicks": 1,
          "midi": 52,
          "name": "E3",
          "ticks": 4080,
          "time": 14.999984000000001,
          "velocity": 0.5984251968503937
        },
        {
          "duration": 0.0036764666666648793,
          "durationTicks": 1,
          "midi": 52,
          "name": "E3",
          "ticks": 4095,
          "time": 15.055131000000001,
          "velocity": 0.6062992125984252
        },
        {
          "duration": 0.0036764666666666557,
          "durationTicks": 1,
          "midi": 52,
          "name": "E3",
          "ticks": 4110,
          "time": 15.110278000000001,
          "velocity": 0.6299212598425197
        },
        {
          "duration": 0.0036764666666666557,
          "durationTicks": 1,
          "midi": 52,
          "name": "E3",
          "ticks": 4125,
          "time": 15.165425,
          "velocity": 0.6377952755905512
        },
        {
          "duration": 0.0036764666666666557,
          "durationTicks": 1,
          "midi": 52,
          "name": "E3",
          "ticks": 4140,
          "time": 15.220572,
          "velocity": 0.6535433070866141
        },
        {
          "duration": 0.0036764666666666557,
          "durationTicks": 1,
          "midi": 52,
          "name": "E3",
          "ticks": 4155,
          "time": 15.275719,
          "velocity": 0.6614173228346457
        },
        {
          "duration": 0.0036764666666666557,
          "durationTicks": 1,
          "midi": 52,
          "name": "E3",
          "ticks": 4170,
          "time": 15.330866,
          "velocity": 0.6692913385826772
        },
        {
          "duration": 0.0036764666666666557,
          "durationTicks": 1,
          "midi": 52,
          "name": "E3",
          "ticks": 4185,
          "time": 15.386013,
          "velocity": 0.6850393700787402
        },
        {
          "duration": 0.0036764666666666557,
          "durationTicks": 1,
          "midi": 52,
          "name": "E3",
          "ticks": 4200,
          "time": 15.44116,
          "velocity": 0.6929133858267716
        },
        {
          "duration": 0.0036764666666666557,
          "durationTicks": 1,
          "midi": 52,
          "name": "E3",
          "ticks": 4215,
          "time": 15.496307,
          "velocity": 0.7086614173228346
        },
        {
          "duration": 0.0036764666666666557,
          "durationTicks": 1,
          "midi": 52,
          "name": "E3",
          "ticks": 4230,
          "time": 15.551454,
          "velocity": 0.7165354330708661
        },
        {
          "duration": 0.0036764666666648793,
          "durationTicks": 1,
          "midi": 52,
          "name": "E3",
          "ticks": 4245,
          "time": 15.606601000000001,
          "velocity": 0.7244094488188977
        },
        {
          "duration": 0.0036764666666666557,
          "durationTicks": 1,
          "midi": 52,
          "name": "E3",
          "ticks": 4260,
          "time": 15.661748000000001,
          "velocity": 0.7401574803149606
        },
        {
          "duration": 0.0036764666666666557,
          "durationTicks": 1,
          "midi": 52,
          "name": "E3",
          "ticks": 4275,
          "time": 15.716895000000001,
          "velocity": 0.7559055118110236
        },
        {
          "duration": 0.0036764666666666557,
          "durationTicks": 1,
          "midi": 52,
          "name": "E3",
          "ticks": 4290,
          "time": 15.772042,
          "velocity": 0.7716535433070866
        },
        {
          "duration": 0.0036764666666666557,
          "durationTicks": 1,
          "midi": 52,
          "name": "E3",
          "ticks": 4305,
          "time": 15.827189,
          "velocity": 0.7795275590551181
        },
        {
          "duration": 0.0036764666666666557,
          "durationTicks": 1,
          "midi": 57,
          "name": "A3",
          "ticks": 4320,
          "time": 15.882336,
          "velocity": 0.7874015748031497
        },
        {
          "duration": 0.003676466666668432,
          "durationTicks": 1,
          "midi": 36,
          "name": "C2",
          "ticks": 9120,
          "time": 33.529376,
          "velocity": 0.11811023622047244
        },
        {
          "duration": 0.003676466666668432,
          "durationTicks": 1,
          "midi": 36,
          "name": "C2",
          "ticks": 9150,
          "time": 33.63967,
          "velocity": 0.12598425196850394
        },
        {
          "duration": 0.0036764666666755375,
          "durationTicks": 1,
          "midi": 36,
          "name": "C2",
          "ticks": 9180,
          "time": 33.749964,
          "velocity": 0.13385826771653545
        },
        {
          "duration": 0.003676466666668432,
          "durationTicks": 1,
          "midi": 36,
          "name": "C2",
          "ticks": 9210,
          "time": 33.860258,
          "velocity": 0.13385826771653545
        },
        {
          "duration": 0.0036764666666755375,
          "durationTicks": 1,
          "midi": 36,
          "name": "C2",
          "ticks": 9240,
          "time": 33.970552,
          "velocity": 0.14173228346456693
        },
        {
          "duration": 0.003676466666668432,
          "durationTicks": 1,
          "midi": 36,
          "name": "C2",
          "ticks": 9270,
          "time": 34.080846,
          "velocity": 0.14960629921259844
        },
        {
          "duration": 0.003676466666668432,
          "durationTicks": 1,
          "midi": 36,
          "name": "C2",
          "ticks": 9300,
          "time": 34.191140000000004,
          "velocity": 0.15748031496062992
        },
        {
          "duration": 0.003676466666668432,
          "durationTicks": 1,
          "midi": 36,
          "name": "C2",
          "ticks": 9330,
          "time": 34.301434,
          "velocity": 0.16535433070866143
        },
        {
          "duration": 0.003676466666668432,
          "durationTicks": 1,
          "midi": 36,
          "name": "C2",
          "ticks": 9360,
          "time": 34.411728000000004,
          "velocity": 0.1732283464566929
        },
        {
          "duration": 0.003676466666668432,
          "durationTicks": 1,
          "midi": 36,
          "name": "C2",
          "ticks": 9390,
          "time": 34.522022,
          "velocity": 0.1732283464566929
        },
        {
          "duration": 0.003676466666668432,
          "durationTicks": 1,
          "midi": 36,
          "name": "C2",
          "ticks": 9420,
          "time": 34.632316,
          "velocity": 0.18110236220472442
        },
        {
          "duration": 0.003676466666668432,
          "durationTicks": 1,
          "midi": 36,
          "name": "C2",
          "ticks": 9450,
          "time": 34.74261,
          "velocity": 0.1889763779527559
        },
        {
          "duration": 0.003676466666668432,
          "durationTicks": 1,
          "midi": 36,
          "name": "C2",
          "ticks": 9480,
          "time": 34.852904,
          "velocity": 0.1968503937007874
        },
        {
          "duration": 0.0036764666666755375,
          "durationTicks": 1,
          "midi": 36,
          "name": "C2",
          "ticks": 9510,
          "time": 34.963198,
          "velocity": 0.2047244094488189
        },
        {
          "duration": 0.003676466666668432,
          "durationTicks": 1,
          "midi": 36,
          "name": "C2",
          "ticks": 9540,
          "time": 35.073492,
          "velocity": 0.2047244094488189
        },
        {
          "duration": 0.0036764666666755375,
          "durationTicks": 1,
          "midi": 36,
          "name": "C2",
          "ticks": 9570,
          "time": 35.183786,
          "velocity": 0.2125984251968504
        },
        {
          "duration": 0.003676466666668432,
          "durationTicks": 1,
          "midi": 36,
          "name": "C2",
          "ticks": 9600,
          "time": 35.29408,
          "velocity": 0.2204724409448819
        },
        {
          "duration": 0.003676466666668432,
          "durationTicks": 1,
          "midi": 36,
          "name": "C2",
          "ticks": 9630,
          "time": 35.404374000000004,
          "velocity": 0.2283464566929134
        },
        {
          "duration": 0.003676466666668432,
          "durationTicks": 1,
          "midi": 36,
          "name": "C2",
          "ticks": 9660,
          "time": 35.514668,
          "velocity": 0.23622047244094488
        },
        {
          "duration": 0.003676466666668432,
          "durationTicks": 1,
          "midi": 36,
          "name": "C2",
          "ticks": 9690,
          "time": 35.624962000000004,
          "velocity": 0.23622047244094488
        },
        {
          "duration": 0.003676466666668432,
          "durationTicks": 1,
          "midi": 36,
          "name": "C2",
          "ticks": 9720,
          "time": 35.735256,
          "velocity": 0.2440944881889764
        },
        {
          "duration": 0.003676466666668432,
          "durationTicks": 1,
          "midi": 36,
          "name": "C2",
          "ticks": 9750,
          "time": 35.84555,
          "velocity": 0.25196850393700787
        },
        {
          "duration": 0.003676466666668432,
          "durationTicks": 1,
          "midi": 36,
          "name": "C2",
          "ticks": 9780,
          "time": 35.955844,
          "velocity": 0.25984251968503935
        },
        {
          "duration": 0.003676466666668432,
          "durationTicks": 1,
          "midi": 36,
          "name": "C2",
          "ticks": 9810,
          "time": 36.066138,
          "velocity": 0.2677165354330709
        },
        {
          "duration": 0.0036764666666755375,
          "durationTicks": 1,
          "midi": 36,
          "name": "C2",
          "ticks": 9840,
          "time": 36.176432,
          "velocity": 0.2677165354330709
        },
        {
          "duration": 0.003676466666668432,
          "durationTicks": 1,
          "midi": 36,
          "name": "C2",
          "ticks": 9870,
          "time": 36.286726,
          "velocity": 0.2755905511811024
        },
        {
          "duration": 0.0036764666666755375,
          "durationTicks": 1,
          "midi": 36,
          "name": "C2",
          "ticks": 9900,
          "time": 36.39702,
          "velocity": 0.28346456692913385
        },
        {
          "duration": 0.003676466666668432,
          "durationTicks": 1,
          "midi": 36,
          "name": "C2",
          "ticks": 9930,
          "time": 36.507314,
          "velocity": 0.29133858267716534
        },
        {
          "duration": 0.003676466666668432,
          "durationTicks": 1,
          "midi": 36,
          "name": "C2",
          "ticks": 9960,
          "time": 36.617608000000004,
          "velocity": 0.2992125984251969
        },
        {
          "duration": 0.003676466666668432,
          "durationTicks": 1,
          "midi": 36,
          "name": "C2",
          "ticks": 9990,
          "time": 36.727902,
          "velocity": 0.2992125984251969
        },
        {
          "duration": 0.003676466666668432,
          "durationTicks": 1,
          "midi": 36,
          "name": "C2",
          "ticks": 10020,
          "time": 36.838196,
          "velocity": 0.30708661417322836
        },
        {
          "duration": 0.003676466666668432,
          "durationTicks": 1,
          "midi": 36,
          "name": "C2",
          "ticks": 10050,
          "time": 36.94849,
          "velocity": 0.31496062992125984
        },
        {
          "duration": 0.003676466666668432,
          "durationTicks": 1,
          "midi": 36,
          "name": "C2",
          "ticks": 10080,
          "time": 37.058784,
          "velocity": 0.3779527559055118
        },
        {
          "duration": 0.003676466666668432,
          "durationTicks": 1,
          "midi": 35,
          "name": "B1",
          "ticks": 10080,
          "time": 37.058784,
          "velocity": 0.6299212598425197
        },
        {
          "duration": 0.003676466666668432,
          "durationTicks": 1,
          "midi": 36,
          "name": "C2",
          "ticks": 10110,
          "time": 37.169078,
          "velocity": 0.3779527559055118
        },
        {
          "duration": 0.003676466666668432,
          "durationTicks": 1,
          "midi": 36,
          "name": "C2",
          "ticks": 10140,
          "time": 37.279372,
          "velocity": 0.3779527559055118
        },
        {
          "duration": 0.0036764666666755375,
          "durationTicks": 1,
          "midi": 36,
          "name": "C2",
          "ticks": 10170,
          "time": 37.389666,
          "velocity": 0.3779527559055118
        },
        {
          "duration": 0.003676466666668432,
          "durationTicks": 1,
          "midi": 36,
          "name": "C2",
          "ticks": 10200,
          "time": 37.49996,
          "velocity": 0.3779527559055118
        },
        {
          "duration": 0.003676466666668432,
          "durationTicks": 1,
          "midi": 35,
          "name": "B1",
          "ticks": 10200,
          "time": 37.49996,
          "velocity": 0.6299212598425197
        },
        {
          "duration": 0.0036764666666755375,
          "durationTicks": 1,
          "midi": 36,
          "name": "C2",
          "ticks": 10230,
          "time": 37.610254,
          "velocity": 0.3779527559055118
        },
        {
          "duration": 0.003676466666668432,
          "durationTicks": 1,
          "midi": 36,
          "name": "C2",
          "ticks": 10260,
          "time": 37.720548,
          "velocity": 0.3779527559055118
        },
        {
          "duration": 0.003676466666668432,
          "durationTicks": 1,
          "midi": 36,
          "name": "C2",
          "ticks": 10290,
          "time": 37.830842000000004,
          "velocity": 0.3779527559055118
        },
        {
          "duration": 0.003676466666668432,
          "durationTicks": 1,
          "midi": 36,
          "name": "C2",
          "ticks": 10320,
          "time": 37.941136,
          "velocity": 0.3779527559055118
        },
        {
          "duration": 0.003676466666668432,
          "durationTicks": 1,
          "midi": 35,
          "name": "B1",
          "ticks": 10320,
          "time": 37.941136,
          "velocity": 0.6299212598425197
        },
        {
          "duration": 0.003676466666668432,
          "durationTicks": 1,
          "midi": 36,
          "name": "C2",
          "ticks": 10350,
          "time": 38.05143,
          "velocity": 0.3779527559055118
        },
        {
          "duration": 0.003676466666668432,
          "durationTicks": 1,
          "midi": 36,
          "name": "C2",
          "ticks": 10380,
          "time": 38.161724,
          "velocity": 0.3779527559055118
        },
        {
          "duration": 0.003676466666668432,
          "durationTicks": 1,
          "midi": 36,
          "name": "C2",
          "ticks": 10410,
          "time": 38.272018,
          "velocity": 0.3779527559055118
        },
        {
          "duration": 0.003676466666668432,
          "durationTicks": 1,
          "midi": 36,
          "name": "C2",
          "ticks": 10440,
          "time": 38.382312,
          "velocity": 0.3779527559055118
        },
        {
          "duration": 0.003676466666668432,
          "durationTicks": 1,
          "midi": 35,
          "name": "B1",
          "ticks": 10440,
          "time": 38.382312,
          "velocity": 0.6299212598425197
        },
        {
          "duration": 0.003676466666668432,
          "durationTicks": 1,
          "midi": 36,
          "name": "C2",
          "ticks": 10470,
          "time": 38.492606,
          "velocity": 0.3779527559055118
        },
        {
          "duration": 0.0036764666666755375,
          "durationTicks": 1,
          "midi": 36,
          "name": "C2",
          "ticks": 10500,
          "time": 38.6029,
          "velocity": 0.3779527559055118
        },
        {
          "duration": 0.003676466666668432,
          "durationTicks": 1,
          "midi": 36,
          "name": "C2",
          "ticks": 10530,
          "time": 38.713194,
          "velocity": 0.3779527559055118
        },
        {
          "duration": 0.0036764666666755375,
          "durationTicks": 1,
          "midi": 36,
          "name": "C2",
          "ticks": 10560,
          "time": 38.823488,
          "velocity": 0.4330708661417323
        },
        {
          "duration": 0.0036764666666755375,
          "durationTicks": 1,
          "midi": 35,
          "name": "B1",
          "ticks": 10560,
          "time": 38.823488,
          "velocity": 0.6299212598425197
        },
        {
          "duration": 0.003676466666668432,
          "durationTicks": 1,
          "midi": 36,
          "name": "C2",
          "ticks": 10590,
          "time": 38.933782,
          "velocity": 0.4330708661417323
        },
        {
          "duration": 0.003676466666668432,
          "durationTicks": 1,
          "midi": 36,
          "name": "C2",
          "ticks": 10620,
          "time": 39.044076000000004,
          "velocity": 0.4330708661417323
        },
        {
          "duration": 0.003676466666668432,
          "durationTicks": 1,
          "midi": 36,
          "name": "C2",
          "ticks": 10650,
          "time": 39.15437,
          "velocity": 0.4330708661417323
        },
        {
          "duration": 0.003676466666668432,
          "durationTicks": 1,
          "midi": 36,
          "name": "C2",
          "ticks": 10680,
          "time": 39.264664,
          "velocity": 0.4330708661417323
        },
        {
          "duration": 0.003676466666668432,
          "durationTicks": 1,
          "midi": 35,
          "name": "B1",
          "ticks": 10680,
          "time": 39.264664,
          "velocity": 0.6299212598425197
        },
        {
          "duration": 0.003676466666668432,
          "durationTicks": 1,
          "midi": 36,
          "name": "C2",
          "ticks": 10710,
          "time": 39.374958,
          "velocity": 0.4330708661417323
        },
        {
          "duration": 0.003676466666668432,
          "durationTicks": 1,
          "midi": 36,
          "name": "C2",
          "ticks": 10740,
          "time": 39.485252,
          "velocity": 0.4330708661417323
        },
        {
          "duration": 0.003676466666668432,
          "durationTicks": 1,
          "midi": 36,
          "name": "C2",
          "ticks": 10770,
          "time": 39.595546,
          "velocity": 0.4330708661417323
        },
        {
          "duration": 0.003676466666668432,
          "durationTicks": 1,
          "midi": 36,
          "name": "C2",
          "ticks": 10800,
          "time": 39.70584,
          "velocity": 0.4330708661417323
        },
        {
          "duration": 0.003676466666668432,
          "durationTicks": 1,
          "midi": 35,
          "name": "B1",
          "ticks": 10800,
          "time": 39.70584,
          "velocity": 0.6299212598425197
        },
        {
          "duration": 0.0036764666666755375,
          "durationTicks": 1,
          "midi": 36,
          "name": "C2",
          "ticks": 10830,
          "time": 39.816134,
          "velocity": 0.4330708661417323
        },
        {
          "duration": 0.003676466666668432,
          "durationTicks": 1,
          "midi": 36,
          "name": "C2",
          "ticks": 10860,
          "time": 39.926428,
          "velocity": 0.4330708661417323
        },
        {
          "duration": 0.003676466666668432,
          "durationTicks": 1,
          "midi": 36,
          "name": "C2",
          "ticks": 10890,
          "time": 40.036722000000005,
          "velocity": 0.4330708661417323
        },
        {
          "duration": 0.003676466666668432,
          "durationTicks": 1,
          "midi": 36,
          "name": "C2",
          "ticks": 10920,
          "time": 40.147016,
          "velocity": 0.4330708661417323
        },
        {
          "duration": 0.003676466666668432,
          "durationTicks": 1,
          "midi": 35,
          "name": "B1",
          "ticks": 10920,
          "time": 40.147016,
          "velocity": 0.6299212598425197
        },
        {
          "duration": 0.003676466666668432,
          "durationTicks": 1,
          "midi": 36,
          "name": "C2",
          "ticks": 10950,
          "time": 40.257310000000004,
          "velocity": 0.4330708661417323
        },
        {
          "duration": 0.003676466666668432,
          "durationTicks": 1,
          "midi": 36,
          "name": "C2",
          "ticks": 10980,
          "time": 40.367604,
          "velocity": 0.4330708661417323
        },
        {
          "duration": 0.003676466666668432,
          "durationTicks": 1,
          "midi": 36,
          "name": "C2",
          "ticks": 11010,
          "time": 40.477898,
          "velocity": 0.4330708661417323
        },
        {
          "duration": 0.003676466666668432,
          "durationTicks": 1,
          "midi": 36,
          "name": "C2",
          "ticks": 11040,
          "time": 40.588192,
          "velocity": 0.5511811023622047
        },
        {
          "duration": 0.003676466666668432,
          "durationTicks": 1,
          "midi": 38,
          "name": "D2",
          "ticks": 11040,
          "time": 40.588192,
          "velocity": 0.4881889763779528
        },
        {
          "duration": 0.003676466666668432,
          "durationTicks": 1,
          "midi": 36,
          "name": "C2",
          "ticks": 11070,
          "time": 40.698486,
          "velocity": 0.5511811023622047
        },
        {
          "duration": 0.003676466666668432,
          "durationTicks": 1,
          "midi": 38,
          "name": "D2",
          "ticks": 11070,
          "time": 40.698486,
          "velocity": 0.2283464566929134
        },
        {
          "duration": 0.0036764666666755375,
          "durationTicks": 1,
          "midi": 36,
          "name": "C2",
          "ticks": 11100,
          "time": 40.80878,
          "velocity": 0.5511811023622047
        },
        {
          "duration": 0.0036764666666755375,
          "durationTicks": 1,
          "midi": 38,
          "name": "D2",
          "ticks": 11100,
          "time": 40.80878,
          "velocity": 0.4881889763779528
        },
        {
          "duration": 0.003676466666668432,
          "durationTicks": 1,
          "midi": 36,
          "name": "C2",
          "ticks": 11130,
          "time": 40.919074,
          "velocity": 0.5511811023622047
        },
        {
          "duration": 0.003676466666668432,
          "durationTicks": 1,
          "midi": 38,
          "name": "D2",
          "ticks": 11130,
          "time": 40.919074,
          "velocity": 0.2440944881889764
        },
        {
          "duration": 0.0036764666666755375,
          "durationTicks": 1,
          "midi": 36,
          "name": "C2",
          "ticks": 11160,
          "time": 41.029368,
          "velocity": 0.5511811023622047
        },
        {
          "duration": 0.0036764666666755375,
          "durationTicks": 1,
          "midi": 38,
          "name": "D2",
          "ticks": 11160,
          "time": 41.029368,
          "velocity": 0.4881889763779528
        },
        {
          "duration": 0.003676466666668432,
          "durationTicks": 1,
          "midi": 36,
          "name": "C2",
          "ticks": 11190,
          "time": 41.139662,
          "velocity": 0.5511811023622047
        },
        {
          "duration": 0.003676466666668432,
          "durationTicks": 1,
          "midi": 38,
          "name": "D2",
          "ticks": 11190,
          "time": 41.139662,
          "velocity": 0.2283464566929134
        },
        {
          "duration": 0.003676466666668432,
          "durationTicks": 1,
          "midi": 36,
          "name": "C2",
          "ticks": 11220,
          "time": 41.249956000000005,
          "velocity": 0.5511811023622047
        },
        {
          "duration": 0.003676466666668432,
          "durationTicks": 1,
          "midi": 38,
          "name": "D2",
          "ticks": 11220,
          "time": 41.249956000000005,
          "velocity": 0.4881889763779528
        },
        {
          "duration": 0.003676466666668432,
          "durationTicks": 1,
          "midi": 36,
          "name": "C2",
          "ticks": 11250,
          "time": 41.36025,
          "velocity": 0.5511811023622047
        },
        {
          "duration": 0.003676466666668432,
          "durationTicks": 1,
          "midi": 38,
          "name": "D2",
          "ticks": 11250,
          "time": 41.36025,
          "velocity": 0.2440944881889764
        },
        {
          "duration": 0.003676466666668432,
          "durationTicks": 1,
          "midi": 36,
          "name": "C2",
          "ticks": 11280,
          "time": 41.470544000000004,
          "velocity": 0.5511811023622047
        },
        {
          "duration": 0.003676466666668432,
          "durationTicks": 1,
          "midi": 38,
          "name": "D2",
          "ticks": 11280,
          "time": 41.470544000000004,
          "velocity": 0.5511811023622047
        },
        {
          "duration": 0.003676466666668432,
          "durationTicks": 1,
          "midi": 36,
          "name": "C2",
          "ticks": 11310,
          "time": 41.580838,
          "velocity": 0.5511811023622047
        },
        {
          "duration": 0.003676466666668432,
          "durationTicks": 1,
          "midi": 38,
          "name": "D2",
          "ticks": 11310,
          "time": 41.580838,
          "velocity": 0.29133858267716534
        },
        {
          "duration": 0.003676466666668432,
          "durationTicks": 1,
          "midi": 36,
          "name": "C2",
          "ticks": 11340,
          "time": 41.691132,
          "velocity": 0.5511811023622047
        },
        {
          "duration": 0.003676466666668432,
          "durationTicks": 1,
          "midi": 38,
          "name": "D2",
          "ticks": 11340,
          "time": 41.691132,
          "velocity": 0.5511811023622047
        },
        {
          "duration": 0.003676466666668432,
          "durationTicks": 1,
          "midi": 36,
          "name": "C2",
          "ticks": 11370,
          "time": 41.801426,
          "velocity": 0.5511811023622047
        },
        {
          "duration": 0.003676466666668432,
          "durationTicks": 1,
          "midi": 38,
          "name": "D2",
          "ticks": 11370,
          "time": 41.801426,
          "velocity": 0.30708661417322836
        },
        {
          "duration": 0.003676466666668432,
          "durationTicks": 1,
          "midi": 36,
          "name": "C2",
          "ticks": 11400,
          "time": 41.91172,
          "velocity": 0.5511811023622047
        },
        {
          "duration": 0.003676466666668432,
          "durationTicks": 1,
          "midi": 38,
          "name": "D2",
          "ticks": 11400,
          "time": 41.91172,
          "velocity": 0.5511811023622047
        },
        {
          "duration": 0.0036764666666755375,
          "durationTicks": 1,
          "midi": 36,
          "name": "C2",
          "ticks": 11430,
          "time": 42.022014,
          "velocity": 0.5511811023622047
        },
        {
          "duration": 0.0036764666666755375,
          "durationTicks": 1,
          "midi": 38,
          "name": "D2",
          "ticks": 11430,
          "time": 42.022014,
          "velocity": 0.29133858267716534
        },
        {
          "duration": 0.003676466666668432,
          "durationTicks": 1,
          "midi": 36,
          "name": "C2",
          "ticks": 11460,
          "time": 42.132308,
          "velocity": 0.5511811023622047
        },
        {
          "duration": 0.003676466666668432,
          "durationTicks": 1,
          "midi": 38,
          "name": "D2",
          "ticks": 11460,
          "time": 42.132308,
          "velocity": 0.5511811023622047
        },
        {
          "duration": 0.0036764666666755375,
          "durationTicks": 1,
          "midi": 36,
          "name": "C2",
          "ticks": 11490,
          "time": 42.242602,
          "velocity": 0.5511811023622047
        },
        {
          "duration": 0.0036764666666755375,
          "durationTicks": 1,
          "midi": 38,
          "name": "D2",
          "ticks": 11490,
          "time": 42.242602,
          "velocity": 0.30708661417322836
        },
        {
          "duration": 0.003676466666668432,
          "durationTicks": 1,
          "midi": 36,
          "name": "C2",
          "ticks": 11520,
          "time": 42.352896,
          "velocity": 0.5984251968503937
        },
        {
          "duration": 0.003676466666668432,
          "durationTicks": 1,
          "midi": 38,
          "name": "D2",
          "ticks": 11520,
          "time": 42.352896,
          "velocity": 0.6141732283464567
        },
        {
          "duration": 0.003676466666668432,
          "durationTicks": 1,
          "midi": 36,
          "name": "C2",
          "ticks": 11550,
          "time": 42.463190000000004,
          "velocity": 0.5984251968503937
        },
        {
          "duration": 0.003676466666668432,
          "durationTicks": 1,
          "midi": 38,
          "name": "D2",
          "ticks": 11550,
          "time": 42.463190000000004,
          "velocity": 0.3543307086614173
        },
        {
          "duration": 0.003676466666668432,
          "durationTicks": 1,
          "midi": 36,
          "name": "C2",
          "ticks": 11580,
          "time": 42.573484,
          "velocity": 0.5984251968503937
        },
        {
          "duration": 0.003676466666668432,
          "durationTicks": 1,
          "midi": 38,
          "name": "D2",
          "ticks": 11580,
          "time": 42.573484,
          "velocity": 0.6141732283464567
        },
        {
          "duration": 0.003676466666668432,
          "durationTicks": 1,
          "midi": 36,
          "name": "C2",
          "ticks": 11610,
          "time": 42.683778000000004,
          "velocity": 0.5984251968503937
        },
        {
          "duration": 0.003676466666668432,
          "durationTicks": 1,
          "midi": 38,
          "name": "D2",
          "ticks": 11610,
          "time": 42.683778000000004,
          "velocity": 0.3700787401574803
        },
        {
          "duration": 0.003676466666668432,
          "durationTicks": 1,
          "midi": 36,
          "name": "C2",
          "ticks": 11640,
          "time": 42.794072,
          "velocity": 0.5984251968503937
        },
        {
          "duration": 0.003676466666668432,
          "durationTicks": 1,
          "midi": 38,
          "name": "D2",
          "ticks": 11640,
          "time": 42.794072,
          "velocity": 0.6692913385826772
        },
        {
          "duration": 0.003676466666668432,
          "durationTicks": 1,
          "midi": 36,
          "name": "C2",
          "ticks": 11670,
          "time": 42.904366,
          "velocity": 0.5984251968503937
        },
        {
          "duration": 0.003676466666668432,
          "durationTicks": 1,
          "midi": 38,
          "name": "D2",
          "ticks": 11670,
          "time": 42.904366,
          "velocity": 0.4094488188976378
        },
        {
          "duration": 0.003676466666668432,
          "durationTicks": 1,
          "midi": 36,
          "name": "C2",
          "ticks": 11700,
          "time": 43.01466,
          "velocity": 0.5984251968503937
        },
        {
          "duration": 0.003676466666668432,
          "durationTicks": 1,
          "midi": 38,
          "name": "D2",
          "ticks": 11700,
          "time": 43.01466,
          "velocity": 0.6692913385826772
        },
        {
          "duration": 0.003676466666668432,
          "durationTicks": 1,
          "midi": 36,
          "name": "C2",
          "ticks": 11730,
          "time": 43.124954,
          "velocity": 0.6062992125984252
        },
        {
          "duration": 0.003676466666668432,
          "durationTicks": 1,
          "midi": 38,
          "name": "D2",
          "ticks": 11730,
          "time": 43.124954,
          "velocity": 0.4251968503937008
        },
        {
          "duration": 0.0036764666666755375,
          "durationTicks": 1,
          "midi": 36,
          "name": "C2",
          "ticks": 11760,
          "time": 43.235248,
          "velocity": 0.5984251968503937
        },
        {
          "duration": 0.0036764666666755375,
          "durationTicks": 1,
          "midi": 38,
          "name": "D2",
          "ticks": 11760,
          "time": 43.235248,
          "velocity": 0.7322834645669292
        },
        {
          "duration": 0.003676466666668432,
          "durationTicks": 1,
          "midi": 36,
          "name": "C2",
          "ticks": 11790,
          "time": 43.345542,
          "velocity": 0.5984251968503937
        },
        {
          "duration": 0.003676466666668432,
          "durationTicks": 1,
          "midi": 38,
          "name": "D2",
          "ticks": 11790,
          "time": 43.345542,
          "velocity": 0.47244094488188976
        },
        {
          "duration": 0.0036764666666755375,
          "durationTicks": 1,
          "midi": 36,
          "name": "C2",
          "ticks": 11820,
          "time": 43.455836,
          "velocity": 0.5984251968503937
        },
        {
          "duration": 0.0036764666666755375,
          "durationTicks": 1,
          "midi": 38,
          "name": "D2",
          "ticks": 11820,
          "time": 43.455836,
          "velocity": 0.7322834645669292
        },
        {
          "duration": 0.003676466666668432,
          "durationTicks": 1,
          "midi": 36,
          "name": "C2",
          "ticks": 11850,
          "time": 43.56613,
          "velocity": 0.5984251968503937
        },
        {
          "duration": 0.003676466666668432,
          "durationTicks": 1,
          "midi": 38,
          "name": "D2",
          "ticks": 11850,
          "time": 43.56613,
          "velocity": 0.4881889763779528
        },
        {
          "duration": 0.003676466666668432,
          "durationTicks": 1,
          "midi": 36,
          "name": "C2",
          "ticks": 11880,
          "time": 43.676424000000004,
          "velocity": 0.5984251968503937
        },
        {
          "duration": 0.003676466666668432,
          "durationTicks": 1,
          "midi": 38,
          "name": "D2",
          "ticks": 11880,
          "time": 43.676424000000004,
          "velocity": 0.5748031496062992
        },
        {
          "duration": 0.003676466666668432,
          "durationTicks": 1,
          "midi": 38,
          "name": "D2",
          "ticks": 11895,
          "time": 43.731571,
          "velocity": 0.6062992125984252
        },
        {
          "duration": 0.003676466666668432,
          "durationTicks": 1,
          "midi": 36,
          "name": "C2",
          "ticks": 11910,
          "time": 43.786718,
          "velocity": 0.5984251968503937
        },
        {
          "duration": 0.003676466666668432,
          "durationTicks": 1,
          "midi": 38,
          "name": "D2",
          "ticks": 11910,
          "time": 43.786718,
          "velocity": 0.6535433070866141
        },
        {
          "duration": 0.0036764666666755375,
          "durationTicks": 1,
          "midi": 38,
          "name": "D2",
          "ticks": 11925,
          "time": 43.841865,
          "velocity": 0.6850393700787402
        },
        {
          "duration": 0.003676466666668432,
          "durationTicks": 1,
          "midi": 36,
          "name": "C2",
          "ticks": 11940,
          "time": 43.897012000000004,
          "velocity": 0.5984251968503937
        },
        {
          "duration": 0.003676466666668432,
          "durationTicks": 1,
          "midi": 38,
          "name": "D2",
          "ticks": 11940,
          "time": 43.897012000000004,
          "velocity": 0.7086614173228346
        },
        {
          "duration": 0.003676466666668432,
          "durationTicks": 1,
          "midi": 38,
          "name": "D2",
          "ticks": 11955,
          "time": 43.952159,
          "velocity": 0.7401574803149606
        },
        {
          "duration": 0.003676466666668432,
          "durationTicks": 1,
          "midi": 36,
          "name": "C2",
          "ticks": 11970,
          "time": 44.007306,
          "velocity": 0.6062992125984252
        },
        {
          "duration": 0.003676466666668432,
          "durationTicks": 1,
          "midi": 38,
          "name": "D2",
          "ticks": 11970,
          "time": 44.007306,
          "velocity": 0.7874015748031497
        },
        {
          "duration": 0.0036764666666755375,
          "durationTicks": 1,
          "midi": 38,
          "name": "D2",
          "ticks": 11985,
          "time": 44.062453,
          "velocity": 0.7874015748031497
        },
        {
          "duration": 0.003676466666668432,
          "durationTicks": 1,
          "midi": 36,
          "name": "C2",
          "ticks": 13920,
          "time": 51.176416,
          "velocity": 0.7874015748031497
        },
        {
          "duration": 0.003676466666668432,
          "durationTicks": 1,
          "midi": 39,
          "name": "D#2",
          "ticks": 13920,
          "time": 51.176416,
          "velocity": 0.7874015748031497
        },
        {
          "duration": 0.003676466666668432,
          "durationTicks": 1,
          "midi": 36,
          "name": "C2",
          "ticks": 14040,
          "time": 51.617592,
          "velocity": 0.7874015748031497
        },
        {
          "duration": 0.003676466666668432,
          "durationTicks": 1,
          "midi": 39,
          "name": "D#2",
          "ticks": 14040,
          "time": 51.617592,
          "velocity": 0.7874015748031497
        },
        {
          "duration": 0.003676466666668432,
          "durationTicks": 1,
          "midi": 36,
          "name": "C2",
          "ticks": 14160,
          "time": 52.058768,
          "velocity": 0.7874015748031497
        },
        {
          "duration": 0.003676466666668432,
          "durationTicks": 1,
          "midi": 39,
          "name": "D#2",
          "ticks": 14160,
          "time": 52.058768,
          "velocity": 0.7874015748031497
        },
        {
          "duration": 0.003676466666668432,
          "durationTicks": 1,
          "midi": 36,
          "name": "C2",
          "ticks": 14280,
          "time": 52.499944,
          "velocity": 0.7874015748031497
        },
        {
          "duration": 0.003676466666668432,
          "durationTicks": 1,
          "midi": 39,
          "name": "D#2",
          "ticks": 14280,
          "time": 52.499944,
          "velocity": 0.7874015748031497
        },
        {
          "duration": 0.0036764666666755375,
          "durationTicks": 1,
          "midi": 36,
          "name": "C2",
          "ticks": 14400,
          "time": 52.94112,
          "velocity": 0.7874015748031497
        },
        {
          "duration": 0.0036764666666755375,
          "durationTicks": 1,
          "midi": 39,
          "name": "D#2",
          "ticks": 14400,
          "time": 52.94112,
          "velocity": 0.7874015748031497
        },
        {
          "duration": 0.003676466666668432,
          "durationTicks": 1,
          "midi": 36,
          "name": "C2",
          "ticks": 14520,
          "time": 53.382296000000004,
          "velocity": 0.7874015748031497
        },
        {
          "duration": 0.003676466666668432,
          "durationTicks": 1,
          "midi": 39,
          "name": "D#2",
          "ticks": 14520,
          "time": 53.382296000000004,
          "velocity": 0.7874015748031497
        },
        {
          "duration": 0.003676466666668432,
          "durationTicks": 1,
          "midi": 36,
          "name": "C2",
          "ticks": 14640,
          "time": 53.823472,
          "velocity": 0.7874015748031497
        },
        {
          "duration": 0.003676466666668432,
          "durationTicks": 1,
          "midi": 39,
          "name": "D#2",
          "ticks": 14640,
          "time": 53.823472,
          "velocity": 0.7874015748031497
        },
        {
          "duration": 0.003676466666668432,
          "durationTicks": 1,
          "midi": 36,
          "name": "C2",
          "ticks": 14760,
          "time": 54.264648,
          "velocity": 0.7874015748031497
        },
        {
          "duration": 0.003676466666668432,
          "durationTicks": 1,
          "midi": 39,
          "name": "D#2",
          "ticks": 14760,
          "time": 54.264648,
          "velocity": 0.7874015748031497
        },
        {
          "duration": 0.003676466666668432,
          "durationTicks": 1,
          "midi": 36,
          "name": "C2",
          "ticks": 14880,
          "time": 54.705824,
          "velocity": 0.7874015748031497
        },
        {
          "duration": 0.003676466666668432,
          "durationTicks": 1,
          "midi": 40,
          "name": "E2",
          "ticks": 14880,
          "time": 54.705824,
          "velocity": 0.7874015748031497
        },
        {
          "duration": 0.0036764666666755375,
          "durationTicks": 1,
          "midi": 40,
          "name": "E2",
          "ticks": 14940,
          "time": 54.926412,
          "velocity": 0.7874015748031497
        },
        {
          "duration": 0.0036764666666755375,
          "durationTicks": 1,
          "midi": 40,
          "name": "E2",
          "ticks": 15000,
          "time": 55.147,
          "velocity": 0.7874015748031497
        },
        {
          "duration": 0.003676466666668432,
          "durationTicks": 1,
          "midi": 40,
          "name": "E2",
          "ticks": 15060,
          "time": 55.367588000000005,
          "velocity": 0.7874015748031497
        },
        {
          "duration": 0.003676466666668432,
          "durationTicks": 1,
          "midi": 40,
          "name": "E2",
          "ticks": 15120,
          "time": 55.588176000000004,
          "velocity": 0.7874015748031497
        },
        {
          "duration": 0.003676466666668432,
          "durationTicks": 1,
          "midi": 40,
          "name": "E2",
          "ticks": 15180,
          "time": 55.808764000000004,
          "velocity": 0.7874015748031497
        },
        {
          "duration": 0.003676466666668432,
          "durationTicks": 1,
          "midi": 40,
          "name": "E2",
          "ticks": 15240,
          "time": 56.029352,
          "velocity": 0.7874015748031497
        },
        {
          "duration": 0.003676466666668432,
          "durationTicks": 1,
          "midi": 40,
          "name": "E2",
          "ticks": 15300,
          "time": 56.24994,
          "velocity": 0.7874015748031497
        },
        {
          "duration": 0.0036764666666613266,
          "durationTicks": 1,
          "midi": 40,
          "name": "E2",
          "ticks": 15360,
          "time": 56.470528,
          "velocity": 0.7874015748031497
        },
        {
          "duration": 0.0036764666666613266,
          "durationTicks": 1,
          "midi": 49,
          "name": "C#3",
          "ticks": 15360,
          "time": 56.470528,
          "velocity": 0.3700787401574803
        },
        {
          "duration": 0.003676466666668432,
          "durationTicks": 1,
          "midi": 49,
          "name": "C#3",
          "ticks": 15375,
          "time": 56.525675,
          "velocity": 0.3858267716535433
        },
        {
          "duration": 0.0036764666666613266,
          "durationTicks": 1,
          "midi": 49,
          "name": "C#3",
          "ticks": 15390,
          "time": 56.580822000000005,
          "velocity": 0.4094488188976378
        },
        {
          "duration": 0.0036764666666613266,
          "durationTicks": 1,
          "midi": 49,
          "name": "C#3",
          "ticks": 15405,
          "time": 56.635969,
          "velocity": 0.4251968503937008
        },
        {
          "duration": 0.0036764666666613266,
          "durationTicks": 1,
          "midi": 40,
          "name": "E2",
          "ticks": 15420,
          "time": 56.691116,
          "velocity": 0.7874015748031497
        },
        {
          "duration": 0.0036764666666613266,
          "durationTicks": 1,
          "midi": 49,
          "name": "C#3",
          "ticks": 15420,
          "time": 56.691116,
          "velocity": 0.44881889763779526
        },
        {
          "duration": 0.003676466666668432,
          "durationTicks": 1,
          "midi": 49,
          "name": "C#3",
          "ticks": 15435,
          "time": 56.746263,
          "velocity": 0.4645669291338583
        },
        {
          "duration": 0.0036764666666613266,
          "durationTicks": 1,
          "midi": 49,
          "name": "C#3",
          "ticks": 15450,
          "time": 56.801410000000004,
          "velocity": 0.48031496062992124
        },
        {
          "duration": 0.0036764666666613266,
          "durationTicks": 1,
          "midi": 49,
          "name": "C#3",
          "ticks": 15465,
          "time": 56.856557,
          "velocity": 0.49606299212598426
        },
        {
          "duration": 0.0036764666666613266,
          "durationTicks": 1,
          "midi": 40,
          "name": "E2",
          "ticks": 15480,
          "time": 56.911704,
          "velocity": 0.7874015748031497
        },
        {
          "duration": 0.0036764666666613266,
          "durationTicks": 1,
          "midi": 49,
          "name": "C#3",
          "ticks": 15480,
          "time": 56.911704,
          "velocity": 0.5118110236220472
        },
        {
          "duration": 0.003676466666668432,
          "durationTicks": 1,
          "midi": 49,
          "name": "C#3",
          "ticks": 15495,
          "time": 56.966851,
          "velocity": 0.5354330708661418
        },
        {
          "duration": 0.0036764666666613266,
          "durationTicks": 1,
          "midi": 49,
          "name": "C#3",
          "ticks": 15510,
          "time": 57.021998,
          "velocity": 0.5511811023622047
        },
        {
          "duration": 0.0036764666666613266,
          "durationTicks": 1,
          "midi": 49,
          "name": "C#3",
          "ticks": 15525,
          "time": 57.077145,
          "velocity": 0.5748031496062992
        },
        {
          "duration": 0.003676466666668432,
          "durationTicks": 1,
          "midi": 40,
          "name": "E2",
          "ticks": 15540,
          "time": 57.132292,
          "velocity": 0.7874015748031497
        },
        {
          "duration": 0.003676466666668432,
          "durationTicks": 1,
          "midi": 49,
          "name": "C#3",
          "ticks": 15540,
          "time": 57.132292,
          "velocity": 0.5905511811023622
        },
        {
          "duration": 0.0036764666666613266,
          "durationTicks": 1,
          "midi": 49,
          "name": "C#3",
          "ticks": 15555,
          "time": 57.187439000000005,
          "velocity": 0.6062992125984252
        },
        {
          "duration": 0.0036764666666613266,
          "durationTicks": 1,
          "midi": 49,
          "name": "C#3",
          "ticks": 15570,
          "time": 57.242586,
          "velocity": 0.6220472440944882
        },
        {
          "duration": 0.0036764666666613266,
          "durationTicks": 1,
          "midi": 49,
          "name": "C#3",
          "ticks": 15585,
          "time": 57.297733,
          "velocity": 0.6456692913385826
        },
        {
          "duration": 0.003676466666668432,
          "durationTicks": 1,
          "midi": 40,
          "name": "E2",
          "ticks": 15600,
          "time": 57.35288,
          "velocity": 0.7874015748031497
        },
        {
          "duration": 0.003676466666668432,
          "durationTicks": 1,
          "midi": 49,
          "name": "C#3",
          "ticks": 15600,
          "time": 57.35288,
          "velocity": 0.6614173228346457
        },
        {
          "duration": 0.0036764666666613266,
          "durationTicks": 1,
          "midi": 49,
          "name": "C#3",
          "ticks": 15615,
          "time": 57.408027000000004,
          "velocity": 0.6850393700787402
        },
        {
          "duration": 0.0036764666666613266,
          "durationTicks": 1,
          "midi": 49,
          "name": "C#3",
          "ticks": 15630,
          "time": 57.463174,
          "velocity": 0.7007874015748031
        },
        {
          "duration": 0.0036764666666613266,
          "durationTicks": 1,
          "midi": 49,
          "name": "C#3",
          "ticks": 15645,
          "time": 57.518321,
          "velocity": 0.7086614173228346
        },
        {
          "duration": 0.003676466666668432,
          "durationTicks": 1,
          "midi": 40,
          "name": "E2",
          "ticks": 15660,
          "time": 57.573468,
          "velocity": 0.7874015748031497
        },
        {
          "duration": 0.003676466666668432,
          "durationTicks": 1,
          "midi": 49,
          "name": "C#3",
          "ticks": 15660,
          "time": 57.573468,
          "velocity": 0.7322834645669292
        },
        {
          "duration": 0.0036764666666613266,
          "durationTicks": 1,
          "midi": 49,
          "name": "C#3",
          "ticks": 15675,
          "time": 57.628615,
          "velocity": 0.7480314960629921
        },
        {
          "duration": 0.0036764666666613266,
          "durationTicks": 1,
          "midi": 49,
          "name": "C#3",
          "ticks": 15690,
          "time": 57.683762,
          "velocity": 0.7716535433070866
        },
        {
          "duration": 0.003676466666668432,
          "durationTicks": 1,
          "midi": 49,
          "name": "C#3",
          "ticks": 15705,
          "time": 57.738909,
          "velocity": 0.7874015748031497
        },
        {
          "duration": 0.0036764666666613266,
          "durationTicks": 1,
          "midi": 36,
          "name": "C2",
          "ticks": 15720,
          "time": 57.794056000000005,
          "velocity": 0.7874015748031497
        },
        {
          "duration": 0.0036764666666613266,
          "durationTicks": 1,
          "midi": 40,
          "name": "E2",
          "ticks": 15720,
          "time": 57.794056000000005,
          "velocity": 0.7874015748031497
        },
        {
          "duration": 0.0036764666666613266,
          "durationTicks": 1,
          "midi": 39,
          "name": "D#2",
          "ticks": 15720,
          "time": 57.794056000000005,
          "velocity": 0.7874015748031497
        },
        {
          "duration": 0.0036764666666613266,
          "durationTicks": 1,
          "midi": 49,
          "name": "C#3",
          "ticks": 15720,
          "time": 57.794056000000005,
          "velocity": 0.8110236220472441
        },
        {
          "duration": 0.003676466666668432,
          "durationTicks": 1,
          "midi": 57,
          "name": "A3",
          "ticks": 15839,
          "time": 58.231555533333335,
          "velocity": 0.7874015748031497
        },
        {
          "duration": 0.0036764666666613266,
          "durationTicks": 1,
          "midi": 36,
          "name": "C2",
          "ticks": 15840,
          "time": 58.235232,
          "velocity": 0.7874015748031497
        },
        {
          "duration": 0.0036764666666613266,
          "durationTicks": 1,
          "midi": 42,
          "name": "F#2",
          "ticks": 15900,
          "time": 58.45582,
          "velocity": 0.7874015748031497
        },
        {
          "duration": 0.0036764666666613266,
          "durationTicks": 1,
          "midi": 36,
          "name": "C2",
          "ticks": 15960,
          "time": 58.676408,
          "velocity": 0.7874015748031497
        },
        {
          "duration": 0.0036764666666613266,
          "durationTicks": 1,
          "midi": 38,
          "name": "D2",
          "ticks": 15960,
          "time": 58.676408,
          "velocity": 0.7874015748031497
        },
        {
          "duration": 0.0036764666666613266,
          "durationTicks": 1,
          "midi": 39,
          "name": "D#2",
          "ticks": 15960,
          "time": 58.676408,
          "velocity": 0.7874015748031497
        },
        {
          "duration": 0.0036764666666613266,
          "durationTicks": 1,
          "midi": 42,
          "name": "F#2",
          "ticks": 15960,
          "time": 58.676408,
          "velocity": 0.7874015748031497
        },
        {
          "duration": 0.0036764666666613266,
          "durationTicks": 1,
          "midi": 42,
          "name": "F#2",
          "ticks": 16020,
          "time": 58.896996,
          "velocity": 0.7874015748031497
        },
        {
          "duration": 0.0036764666666613266,
          "durationTicks": 1,
          "midi": 36,
          "name": "C2",
          "ticks": 16080,
          "time": 59.117584,
          "velocity": 0.7874015748031497
        },
        {
          "duration": 0.0036764666666613266,
          "durationTicks": 1,
          "midi": 42,
          "name": "F#2",
          "ticks": 16080,
          "time": 59.117584,
          "velocity": 0.7874015748031497
        },
        {
          "duration": 0.0036764666666613266,
          "durationTicks": 1,
          "midi": 42,
          "name": "F#2",
          "ticks": 16140,
          "time": 59.338172,
          "velocity": 0.7874015748031497
        },
        {
          "duration": 0.003676466666668432,
          "durationTicks": 1,
          "midi": 36,
          "name": "C2",
          "ticks": 16200,
          "time": 59.55876,
          "velocity": 0.7874015748031497
        },
        {
          "duration": 0.003676466666668432,
          "durationTicks": 1,
          "midi": 38,
          "name": "D2",
          "ticks": 16200,
          "time": 59.55876,
          "velocity": 0.7874015748031497
        },
        {
          "duration": 0.003676466666668432,
          "durationTicks": 1,
          "midi": 39,
          "name": "D#2",
          "ticks": 16200,
          "time": 59.55876,
          "velocity": 0.7874015748031497
        },
        {
          "duration": 0.003676466666668432,
          "durationTicks": 1,
          "midi": 42,
          "name": "F#2",
          "ticks": 16200,
          "time": 59.55876,
          "velocity": 0.7874015748031497
        },
        {
          "duration": 0.003676466666668432,
          "durationTicks": 1,
          "midi": 42,
          "name": "F#2",
          "ticks": 16260,
          "time": 59.779348,
          "velocity": 0.7874015748031497
        },
        {
          "duration": 0.0036764666666613266,
          "durationTicks": 1,
          "midi": 36,
          "name": "C2",
          "ticks": 16320,
          "time": 59.999936000000005,
          "velocity": 0.7874015748031497
        },
        {
          "duration": 0.0036764666666613266,
          "durationTicks": 1,
          "midi": 42,
          "name": "F#2",
          "ticks": 16320,
          "time": 59.999936000000005,
          "velocity": 0.7874015748031497
        },
        {
          "duration": 0.0036764666666613266,
          "durationTicks": 1,
          "midi": 42,
          "name": "F#2",
          "ticks": 16380,
          "time": 60.220524000000005,
          "velocity": 0.7874015748031497
        },
        {
          "duration": 0.0036764666666613266,
          "durationTicks": 1,
          "midi": 36,
          "name": "C2",
          "ticks": 16440,
          "time": 60.441112000000004,
          "velocity": 0.7874015748031497
        },
        {
          "duration": 0.0036764666666613266,
          "durationTicks": 1,
          "midi": 38,
          "name": "D2",
          "ticks": 16440,
          "time": 60.441112000000004,
          "velocity": 0.7874015748031497
        },
        {
          "duration": 0.0036764666666613266,
          "durationTicks": 1,
          "midi": 39,
          "name": "D#2",
          "ticks": 16440,
          "time": 60.441112000000004,
          "velocity": 0.7874015748031497
        },
        {
          "duration": 0.0036764666666613266,
          "durationTicks": 1,
          "midi": 42,
          "name": "F#2",
          "ticks": 16440,
          "time": 60.441112000000004,
          "velocity": 0.7874015748031497
        },
        {
          "duration": 0.0036764666666613266,
          "durationTicks": 1,
          "midi": 42,
          "name": "F#2",
          "ticks": 16500,
          "time": 60.6617,
          "velocity": 0.7874015748031497
        },
        {
          "duration": 0.0036764666666613266,
          "durationTicks": 1,
          "midi": 36,
          "name": "C2",
          "ticks": 16560,
          "time": 60.882288,
          "velocity": 0.7874015748031497
        },
        {
          "duration": 0.0036764666666613266,
          "durationTicks": 1,
          "midi": 42,
          "name": "F#2",
          "ticks": 16560,
          "time": 60.882288,
          "velocity": 0.7874015748031497
        },
        {
          "duration": 0.0036764666666613266,
          "durationTicks": 1,
          "midi": 42,
          "name": "F#2",
          "ticks": 16620,
          "time": 61.102876,
          "velocity": 0.7874015748031497
        },
        {
          "duration": 0.0036764666666613266,
          "durationTicks": 1,
          "midi": 36,
          "name": "C2",
          "ticks": 16680,
          "time": 61.323464,
          "velocity": 0.7874015748031497
        },
        {
          "duration": 0.0036764666666613266,
          "durationTicks": 1,
          "midi": 38,
          "name": "D2",
          "ticks": 16680,
          "time": 61.323464,
          "velocity": 0.7874015748031497
        },
        {
          "duration": 0.0036764666666613266,
          "durationTicks": 1,
          "midi": 39,
          "name": "D#2",
          "ticks": 16680,
          "time": 61.323464,
          "velocity": 0.7874015748031497
        },
        {
          "duration": 0.0036764666666613266,
          "durationTicks": 1,
          "midi": 42,
          "name": "F#2",
          "ticks": 16680,
          "time": 61.323464,
          "velocity": 0.7874015748031497
        },
        {
          "duration": 0.0036764666666613266,
          "durationTicks": 1,
          "midi": 42,
          "name": "F#2",
          "ticks": 16740,
          "time": 61.544052,
          "velocity": 0.7874015748031497
        },
        {
          "duration": 0.003676466666668432,
          "durationTicks": 1,
          "midi": 36,
          "name": "C2",
          "ticks": 16800,
          "time": 61.76464,
          "velocity": 0.7874015748031497
        },
        {
          "duration": 0.003676466666668432,
          "durationTicks": 1,
          "midi": 42,
          "name": "F#2",
          "ticks": 16800,
          "time": 61.76464,
          "velocity": 0.7874015748031497
        },
        {
          "duration": 0.003676466666668432,
          "durationTicks": 1,
          "midi": 42,
          "name": "F#2",
          "ticks": 16860,
          "time": 61.985228,
          "velocity": 0.7874015748031497
        },
        {
          "duration": 0.003676466666668432,
          "durationTicks": 1,
          "midi": 36,
          "name": "C2",
          "ticks": 16920,
          "time": 62.205816,
          "velocity": 0.7874015748031497
        },
        {
          "duration": 0.003676466666668432,
          "durationTicks": 1,
          "midi": 38,
          "name": "D2",
          "ticks": 16920,
          "time": 62.205816,
          "velocity": 0.7874015748031497
        },
        {
          "duration": 0.003676466666668432,
          "durationTicks": 1,
          "midi": 39,
          "name": "D#2",
          "ticks": 16920,
          "time": 62.205816,
          "velocity": 0.7874015748031497
        },
        {
          "duration": 0.003676466666668432,
          "durationTicks": 1,
          "midi": 42,
          "name": "F#2",
          "ticks": 16920,
          "time": 62.205816,
          "velocity": 0.7874015748031497
        },
        {
          "duration": 0.0036764666666613266,
          "durationTicks": 1,
          "midi": 42,
          "name": "F#2",
          "ticks": 16980,
          "time": 62.426404000000005,
          "velocity": 0.7874015748031497
        },
        {
          "duration": 0.0036764666666613266,
          "durationTicks": 1,
          "midi": 36,
          "name": "C2",
          "ticks": 17040,
          "time": 62.646992000000004,
          "velocity": 0.7874015748031497
        },
        {
          "duration": 0.0036764666666613266,
          "durationTicks": 1,
          "midi": 42,
          "name": "F#2",
          "ticks": 17040,
          "time": 62.646992000000004,
          "velocity": 0.7874015748031497
        },
        {
          "duration": 0.0036764666666613266,
          "durationTicks": 1,
          "midi": 42,
          "name": "F#2",
          "ticks": 17100,
          "time": 62.867580000000004,
          "velocity": 0.7874015748031497
        },
        {
          "duration": 0.0036764666666613266,
          "durationTicks": 1,
          "midi": 36,
          "name": "C2",
          "ticks": 17160,
          "time": 63.088168,
          "velocity": 0.7874015748031497
        },
        {
          "duration": 0.0036764666666613266,
          "durationTicks": 1,
          "midi": 38,
          "name": "D2",
          "ticks": 17160,
          "time": 63.088168,
          "velocity": 0.7874015748031497
        },
        {
          "duration": 0.0036764666666613266,
          "durationTicks": 1,
          "midi": 39,
          "name": "D#2",
          "ticks": 17160,
          "time": 63.088168,
          "velocity": 0.7874015748031497
        },
        {
          "duration": 0.0036764666666613266,
          "durationTicks": 1,
          "midi": 42,
          "name": "F#2",
          "ticks": 17160,
          "time": 63.088168,
          "velocity": 0.7874015748031497
        },
        {
          "duration": 0.0036764666666613266,
          "durationTicks": 1,
          "midi": 42,
          "name": "F#2",
          "ticks": 17220,
          "time": 63.308756,
          "velocity": 0.7874015748031497
        },
        {
          "duration": 0.0036764666666613266,
          "durationTicks": 1,
          "midi": 36,
          "name": "C2",
          "ticks": 17280,
          "time": 63.529344,
          "velocity": 0.7874015748031497
        },
        {
          "duration": 0.0036764666666613266,
          "durationTicks": 1,
          "midi": 42,
          "name": "F#2",
          "ticks": 17280,
          "time": 63.529344,
          "velocity": 0.7874015748031497
        },
        {
          "duration": 0.0036764666666613266,
          "durationTicks": 1,
          "midi": 42,
          "name": "F#2",
          "ticks": 17340,
          "time": 63.749932,
          "velocity": 0.7874015748031497
        },
        {
          "duration": 0.0036764666666613266,
          "durationTicks": 1,
          "midi": 36,
          "name": "C2",
          "ticks": 17400,
          "time": 63.97052,
          "velocity": 0.7874015748031497
        },
        {
          "duration": 0.0036764666666613266,
          "durationTicks": 1,
          "midi": 38,
          "name": "D2",
          "ticks": 17400,
          "time": 63.97052,
          "velocity": 0.7874015748031497
        },
        {
          "duration": 0.0036764666666613266,
          "durationTicks": 1,
          "midi": 39,
          "name": "D#2",
          "ticks": 17400,
          "time": 63.97052,
          "velocity": 0.7874015748031497
        },
        {
          "duration": 0.0036764666666613266,
          "durationTicks": 1,
          "midi": 42,
          "name": "F#2",
          "ticks": 17400,
          "time": 63.97052,
          "velocity": 0.7874015748031497
        },
        {
          "duration": 0.0036764666666613266,
          "durationTicks": 1,
          "midi": 42,
          "name": "F#2",
          "ticks": 17460,
          "time": 64.191108,
          "velocity": 0.7874015748031497
        },
        {
          "duration": 0.0036764666666613266,
          "durationTicks": 1,
          "midi": 36,
          "name": "C2",
          "ticks": 17520,
          "time": 64.411696,
          "velocity": 0.7874015748031497
        },
        {
          "duration": 0.0036764666666613266,
          "durationTicks": 1,
          "midi": 42,
          "name": "F#2",
          "ticks": 17520,
          "time": 64.411696,
          "velocity": 0.7874015748031497
        },
        {
          "duration": 0.0036764666666613266,
          "durationTicks": 1,
          "midi": 42,
          "name": "F#2",
          "ticks": 17580,
          "time": 64.632284,
          "velocity": 0.7874015748031497
        },
        {
          "duration": 0.0036764666666613266,
          "durationTicks": 1,
          "midi": 36,
          "name": "C2",
          "ticks": 17640,
          "time": 64.852872,
          "velocity": 0.7874015748031497
        },
        {
          "duration": 0.0036764666666613266,
          "durationTicks": 1,
          "midi": 38,
          "name": "D2",
          "ticks": 17640,
          "time": 64.852872,
          "velocity": 0.7874015748031497
        },
        {
          "duration": 0.0036764666666613266,
          "durationTicks": 1,
          "midi": 39,
          "name": "D#2",
          "ticks": 17640,
          "time": 64.852872,
          "velocity": 0.7874015748031497
        },
        {
          "duration": 0.0036764666666613266,
          "durationTicks": 1,
          "midi": 42,
          "name": "F#2",
          "ticks": 17640,
          "time": 64.852872,
          "velocity": 0.7874015748031497
        },
        {
          "duration": 0.0036764666666613266,
          "durationTicks": 1,
          "midi": 42,
          "name": "F#2",
          "ticks": 17700,
          "time": 65.07346,
          "velocity": 0.7874015748031497
        },
        {
          "duration": 0.0036764666666613266,
          "durationTicks": 1,
          "midi": 46,
          "name": "A#2",
          "ticks": 17730,
          "time": 65.18375400000001,
          "velocity": 0.7874015748031497
        },
        {
          "duration": 0.0036764666666613266,
          "durationTicks": 1,
          "midi": 36,
          "name": "C2",
          "ticks": 17760,
          "time": 65.294048,
          "velocity": 0.7874015748031497
        },
        {
          "duration": 0.0036764666666613266,
          "durationTicks": 1,
          "midi": 42,
          "name": "F#2",
          "ticks": 17760,
          "time": 65.294048,
          "velocity": 0.7874015748031497
        },
        {
          "duration": 0.0036764666666755375,
          "durationTicks": 1,
          "midi": 42,
          "name": "F#2",
          "ticks": 17820,
          "time": 65.514636,
          "velocity": 0.7874015748031497
        },
        {
          "duration": 0.0036764666666613266,
          "durationTicks": 1,
          "midi": 36,
          "name": "C2",
          "ticks": 17880,
          "time": 65.735224,
          "velocity": 0.7874015748031497
        },
        {
          "duration": 0.0036764666666613266,
          "durationTicks": 1,
          "midi": 38,
          "name": "D2",
          "ticks": 17880,
          "time": 65.735224,
          "velocity": 0.7874015748031497
        },
        {
          "duration": 0.0036764666666613266,
          "durationTicks": 1,
          "midi": 39,
          "name": "D#2",
          "ticks": 17880,
          "time": 65.735224,
          "velocity": 0.7874015748031497
        },
        {
          "duration": 0.0036764666666613266,
          "durationTicks": 1,
          "midi": 42,
          "name": "F#2",
          "ticks": 17880,
          "time": 65.735224,
          "velocity": 0.7874015748031497
        },
        {
          "duration": 0.0036764666666613266,
          "durationTicks": 1,
          "midi": 42,
          "name": "F#2",
          "ticks": 17940,
          "time": 65.95581200000001,
          "velocity": 0.7874015748031497
        },
        {
          "duration": 0.0036764666666613266,
          "durationTicks": 1,
          "midi": 36,
          "name": "C2",
          "ticks": 18000,
          "time": 66.1764,
          "velocity": 0.7874015748031497
        },
        {
          "duration": 0.0036764666666613266,
          "durationTicks": 1,
          "midi": 42,
          "name": "F#2",
          "ticks": 18000,
          "time": 66.1764,
          "velocity": 0.7874015748031497
        },
        {
          "duration": 0.0036764666666613266,
          "durationTicks": 1,
          "midi": 42,
          "name": "F#2",
          "ticks": 18060,
          "time": 66.39698800000001,
          "velocity": 0.7874015748031497
        },
        {
          "duration": 0.0036764666666613266,
          "durationTicks": 1,
          "midi": 36,
          "name": "C2",
          "ticks": 18120,
          "time": 66.617576,
          "velocity": 0.7874015748031497
        },
        {
          "duration": 0.0036764666666613266,
          "durationTicks": 1,
          "midi": 38,
          "name": "D2",
          "ticks": 18120,
          "time": 66.617576,
          "velocity": 0.7874015748031497
        },
        {
          "duration": 0.0036764666666613266,
          "durationTicks": 1,
          "midi": 39,
          "name": "D#2",
          "ticks": 18120,
          "time": 66.617576,
          "velocity": 0.7874015748031497
        },
        {
          "duration": 0.0036764666666613266,
          "durationTicks": 1,
          "midi": 42,
          "name": "F#2",
          "ticks": 18120,
          "time": 66.617576,
          "velocity": 0.7874015748031497
        },
        {
          "duration": 0.0036764666666613266,
          "durationTicks": 1,
          "midi": 42,
          "name": "F#2",
          "ticks": 18180,
          "time": 66.838164,
          "velocity": 0.7874015748031497
        },
        {
          "duration": 0.0036764666666613266,
          "durationTicks": 1,
          "midi": 36,
          "name": "C2",
          "ticks": 18240,
          "time": 67.058752,
          "velocity": 0.7874015748031497
        },
        {
          "duration": 0.0036764666666613266,
          "durationTicks": 1,
          "midi": 42,
          "name": "F#2",
          "ticks": 18240,
          "time": 67.058752,
          "velocity": 0.7874015748031497
        },
        {
          "duration": 0.0036764666666613266,
          "durationTicks": 1,
          "midi": 42,
          "name": "F#2",
          "ticks": 18300,
          "time": 67.27934,
          "velocity": 0.7874015748031497
        },
        {
          "duration": 0.0036764666666613266,
          "durationTicks": 1,
          "midi": 36,
          "name": "C2",
          "ticks": 18360,
          "time": 67.499928,
          "velocity": 0.7874015748031497
        },
        {
          "duration": 0.0036764666666613266,
          "durationTicks": 1,
          "midi": 38,
          "name": "D2",
          "ticks": 18360,
          "time": 67.499928,
          "velocity": 0.7874015748031497
        },
        {
          "duration": 0.0036764666666613266,
          "durationTicks": 1,
          "midi": 39,
          "name": "D#2",
          "ticks": 18360,
          "time": 67.499928,
          "velocity": 0.7874015748031497
        },
        {
          "duration": 0.0036764666666613266,
          "durationTicks": 1,
          "midi": 42,
          "name": "F#2",
          "ticks": 18360,
          "time": 67.499928,
          "velocity": 0.7874015748031497
        },
        {
          "duration": 0.0036764666666613266,
          "durationTicks": 1,
          "midi": 42,
          "name": "F#2",
          "ticks": 18420,
          "time": 67.720516,
          "velocity": 0.7874015748031497
        },
        {
          "duration": 0.0036764666666755375,
          "durationTicks": 1,
          "midi": 36,
          "name": "C2",
          "ticks": 18480,
          "time": 67.941104,
          "velocity": 0.7874015748031497
        },
        {
          "duration": 0.0036764666666755375,
          "durationTicks": 1,
          "midi": 42,
          "name": "F#2",
          "ticks": 18480,
          "time": 67.941104,
          "velocity": 0.7874015748031497
        },
        {
          "duration": 0.0036764666666613266,
          "durationTicks": 1,
          "midi": 42,
          "name": "F#2",
          "ticks": 18540,
          "time": 68.161692,
          "velocity": 0.7874015748031497
        },
        {
          "duration": 0.0036764666666613266,
          "durationTicks": 1,
          "midi": 36,
          "name": "C2",
          "ticks": 18600,
          "time": 68.38228000000001,
          "velocity": 0.7874015748031497
        },
        {
          "duration": 0.0036764666666613266,
          "durationTicks": 1,
          "midi": 38,
          "name": "D2",
          "ticks": 18600,
          "time": 68.38228000000001,
          "velocity": 0.7874015748031497
        },
        {
          "duration": 0.0036764666666613266,
          "durationTicks": 1,
          "midi": 39,
          "name": "D#2",
          "ticks": 18600,
          "time": 68.38228000000001,
          "velocity": 0.7874015748031497
        },
        {
          "duration": 0.0036764666666613266,
          "durationTicks": 1,
          "midi": 42,
          "name": "F#2",
          "ticks": 18600,
          "time": 68.38228000000001,
          "velocity": 0.7874015748031497
        },
        {
          "duration": 0.0036764666666613266,
          "durationTicks": 1,
          "midi": 42,
          "name": "F#2",
          "ticks": 18660,
          "time": 68.602868,
          "velocity": 0.7874015748031497
        },
        {
          "duration": 0.0036764666666613266,
          "durationTicks": 1,
          "midi": 36,
          "name": "C2",
          "ticks": 18720,
          "time": 68.82345600000001,
          "velocity": 0.7874015748031497
        },
        {
          "duration": 0.0036764666666613266,
          "durationTicks": 1,
          "midi": 42,
          "name": "F#2",
          "ticks": 18720,
          "time": 68.82345600000001,
          "velocity": 0.7874015748031497
        },
        {
          "duration": 0.0036764666666613266,
          "durationTicks": 1,
          "midi": 42,
          "name": "F#2",
          "ticks": 18780,
          "time": 69.044044,
          "velocity": 0.7874015748031497
        },
        {
          "duration": 0.0036764666666613266,
          "durationTicks": 1,
          "midi": 36,
          "name": "C2",
          "ticks": 18840,
          "time": 69.264632,
          "velocity": 0.7874015748031497
        },
        {
          "duration": 0.0036764666666613266,
          "durationTicks": 1,
          "midi": 38,
          "name": "D2",
          "ticks": 18840,
          "time": 69.264632,
          "velocity": 0.7874015748031497
        },
        {
          "duration": 0.0036764666666613266,
          "durationTicks": 1,
          "midi": 39,
          "name": "D#2",
          "ticks": 18840,
          "time": 69.264632,
          "velocity": 0.7874015748031497
        },
        {
          "duration": 0.0036764666666613266,
          "durationTicks": 1,
          "midi": 42,
          "name": "F#2",
          "ticks": 18840,
          "time": 69.264632,
          "velocity": 0.7874015748031497
        },
        {
          "duration": 0.0036764666666613266,
          "durationTicks": 1,
          "midi": 42,
          "name": "F#2",
          "ticks": 18900,
          "time": 69.48522,
          "velocity": 0.7874015748031497
        },
        {
          "duration": 0.0036764666666613266,
          "durationTicks": 1,
          "midi": 36,
          "name": "C2",
          "ticks": 18960,
          "time": 69.705808,
          "velocity": 0.7874015748031497
        },
        {
          "duration": 0.0036764666666613266,
          "durationTicks": 1,
          "midi": 42,
          "name": "F#2",
          "ticks": 18960,
          "time": 69.705808,
          "velocity": 0.7874015748031497
        },
        {
          "duration": 0.0036764666666613266,
          "durationTicks": 1,
          "midi": 42,
          "name": "F#2",
          "ticks": 19020,
          "time": 69.926396,
          "velocity": 0.7874015748031497
        },
        {
          "duration": 0.0036764666666613266,
          "durationTicks": 1,
          "midi": 36,
          "name": "C2",
          "ticks": 19080,
          "time": 70.146984,
          "velocity": 0.7874015748031497
        },
        {
          "duration": 0.0036764666666613266,
          "durationTicks": 1,
          "midi": 38,
          "name": "D2",
          "ticks": 19080,
          "time": 70.146984,
          "velocity": 0.7874015748031497
        },
        {
          "duration": 0.0036764666666613266,
          "durationTicks": 1,
          "midi": 39,
          "name": "D#2",
          "ticks": 19080,
          "time": 70.146984,
          "velocity": 0.7874015748031497
        },
        {
          "duration": 0.0036764666666613266,
          "durationTicks": 1,
          "midi": 42,
          "name": "F#2",
          "ticks": 19080,
          "time": 70.146984,
          "velocity": 0.7874015748031497
        },
        {
          "duration": 0.0036764666666755375,
          "durationTicks": 1,
          "midi": 42,
          "name": "F#2",
          "ticks": 19140,
          "time": 70.367572,
          "velocity": 0.7874015748031497
        },
        {
          "duration": 0.0036764666666613266,
          "durationTicks": 1,
          "midi": 29,
          "name": "F1",
          "ticks": 19260,
          "time": 70.80874800000001,
          "velocity": 0.7874015748031497
        },
        {
          "duration": 0.0036764666666613266,
          "durationTicks": 1,
          "midi": 30,
          "name": "F#1",
          "ticks": 19320,
          "time": 71.029336,
          "velocity": 0.7874015748031497
        },
        {
          "duration": 0.0036764666666755375,
          "durationTicks": 1,
          "midi": 30,
          "name": "F#1",
          "ticks": 19350,
          "time": 71.13963,
          "velocity": 0.7874015748031497
        },
        {
          "duration": 0.0036764666666613266,
          "durationTicks": 1,
          "midi": 29,
          "name": "F1",
          "ticks": 19380,
          "time": 71.24992400000001,
          "velocity": 0.7874015748031497
        },
        {
          "duration": 0.0036764666666613266,
          "durationTicks": 1,
          "midi": 30,
          "name": "F#1",
          "ticks": 19410,
          "time": 71.360218,
          "velocity": 0.7874015748031497
        },
        {
          "duration": 0.0036764666666613266,
          "durationTicks": 1,
          "midi": 28,
          "name": "E1",
          "ticks": 19440,
          "time": 71.470512,
          "velocity": 0.7874015748031497
        },
        {
          "duration": 0.0036764666666755375,
          "durationTicks": 1,
          "midi": 36,
          "name": "C2",
          "ticks": 19680,
          "time": 72.352864,
          "velocity": 0.7874015748031497
        },
        {
          "duration": 0.0036764666666755375,
          "durationTicks": 1,
          "midi": 41,
          "name": "F2",
          "ticks": 19680,
          "time": 72.352864,
          "velocity": 0.7874015748031497
        },
        {
          "duration": 0.0036764666666755375,
          "durationTicks": 1,
          "midi": 87,
          "name": "D#6",
          "ticks": 19680,
          "time": 72.352864,
          "velocity": 0.7874015748031497
        },
        {
          "duration": 0.0036764666666613266,
          "durationTicks": 1,
          "midi": 38,
          "name": "D2",
          "ticks": 20040,
          "time": 73.676392,
          "velocity": 0.7874015748031497
        },
        {
          "duration": 0.0036764666666613266,
          "durationTicks": 1,
          "midi": 39,
          "name": "D#2",
          "ticks": 20040,
          "time": 73.676392,
          "velocity": 0.7874015748031497
        },
        {
          "duration": 0.0036764666666613266,
          "durationTicks": 1,
          "midi": 36,
          "name": "C2",
          "ticks": 20160,
          "time": 74.117568,
          "velocity": 0.7874015748031497
        },
        {
          "duration": 0.0036764666666613266,
          "durationTicks": 1,
          "midi": 36,
          "name": "C2",
          "ticks": 20250,
          "time": 74.44845000000001,
          "velocity": 0.7874015748031497
        },
        {
          "duration": 0.0036764666666613266,
          "durationTicks": 1,
          "midi": 38,
          "name": "D2",
          "ticks": 20280,
          "time": 74.558744,
          "velocity": 0.7874015748031497
        },
        {
          "duration": 0.0036764666666613266,
          "durationTicks": 1,
          "midi": 39,
          "name": "D#2",
          "ticks": 20280,
          "time": 74.558744,
          "velocity": 0.7874015748031497
        },
        {
          "duration": 0.0036764666666755375,
          "durationTicks": 1,
          "midi": 36,
          "name": "C2",
          "ticks": 20340,
          "time": 74.779332,
          "velocity": 0.7874015748031497
        },
        {
          "duration": 0.0036764666666755375,
          "durationTicks": 1,
          "midi": 36,
          "name": "C2",
          "ticks": 20460,
          "time": 75.220508,
          "velocity": 0.7874015748031497
        },
        {
          "duration": 0.0036764666666613266,
          "durationTicks": 1,
          "midi": 38,
          "name": "D2",
          "ticks": 20520,
          "time": 75.441096,
          "velocity": 0.7874015748031497
        },
        {
          "duration": 0.0036764666666613266,
          "durationTicks": 1,
          "midi": 39,
          "name": "D#2",
          "ticks": 20520,
          "time": 75.441096,
          "velocity": 0.7874015748031497
        },
        {
          "duration": 0.0036764666666613266,
          "durationTicks": 1,
          "midi": 36,
          "name": "C2",
          "ticks": 20550,
          "time": 75.55139,
          "velocity": 0.7874015748031497
        },
        {
          "duration": 0.0036764666666613266,
          "durationTicks": 1,
          "midi": 36,
          "name": "C2",
          "ticks": 20640,
          "time": 75.882272,
          "velocity": 0.7874015748031497
        },
        {
          "duration": 0.0036764666666613266,
          "durationTicks": 1,
          "midi": 38,
          "name": "D2",
          "ticks": 20760,
          "time": 76.323448,
          "velocity": 0.7874015748031497
        },
        {
          "duration": 0.0036764666666613266,
          "durationTicks": 1,
          "midi": 39,
          "name": "D#2",
          "ticks": 20760,
          "time": 76.323448,
          "velocity": 0.7874015748031497
        },
        {
          "duration": 0.0036764666666613266,
          "durationTicks": 1,
          "midi": 36,
          "name": "C2",
          "ticks": 20820,
          "time": 76.544036,
          "velocity": 0.7874015748031497
        },
        {
          "duration": 0.0036764666666755375,
          "durationTicks": 1,
          "midi": 38,
          "name": "D2",
          "ticks": 21000,
          "time": 77.2058,
          "velocity": 0.7874015748031497
        },
        {
          "duration": 0.0036764666666755375,
          "durationTicks": 1,
          "midi": 39,
          "name": "D#2",
          "ticks": 21000,
          "time": 77.2058,
          "velocity": 0.7874015748031497
        },
        {
          "duration": 0.0036764666666613266,
          "durationTicks": 1,
          "midi": 36,
          "name": "C2",
          "ticks": 21060,
          "time": 77.426388,
          "velocity": 0.7086614173228346
        },
        {
          "duration": 0.0036764666666613266,
          "durationTicks": 1,
          "midi": 36,
          "name": "C2",
          "ticks": 21090,
          "time": 77.536682,
          "velocity": 0.7322834645669292
        },
        {
          "duration": 0.0036764666666755375,
          "durationTicks": 1,
          "midi": 36,
          "name": "C2",
          "ticks": 21120,
          "time": 77.646976,
          "velocity": 0.7874015748031497
        },
        {
          "duration": 0.0036764666666613266,
          "durationTicks": 1,
          "midi": 36,
          "name": "C2",
          "ticks": 21210,
          "time": 77.977858,
          "velocity": 0.7874015748031497
        },
        {
          "duration": 0.0036764666666613266,
          "durationTicks": 1,
          "midi": 38,
          "name": "D2",
          "ticks": 21240,
          "time": 78.08815200000001,
          "velocity": 0.7874015748031497
        },
        {
          "duration": 0.0036764666666613266,
          "durationTicks": 1,
          "midi": 39,
          "name": "D#2",
          "ticks": 21240,
          "time": 78.08815200000001,
          "velocity": 0.7874015748031497
        },
        {
          "duration": 0.0036764666666613266,
          "durationTicks": 1,
          "midi": 36,
          "name": "C2",
          "ticks": 21300,
          "time": 78.30874,
          "velocity": 0.7874015748031497
        },
        {
          "duration": 0.0036764666666613266,
          "durationTicks": 1,
          "midi": 36,
          "name": "C2",
          "ticks": 21420,
          "time": 78.749916,
          "velocity": 0.7874015748031497
        },
        {
          "duration": 0.0036764666666613266,
          "durationTicks": 1,
          "midi": 38,
          "name": "D2",
          "ticks": 21480,
          "time": 78.970504,
          "velocity": 0.7874015748031497
        },
        {
          "duration": 0.0036764666666613266,
          "durationTicks": 1,
          "midi": 39,
          "name": "D#2",
          "ticks": 21480,
          "time": 78.970504,
          "velocity": 0.7874015748031497
        },
        {
          "duration": 0.0036764666666613266,
          "durationTicks": 1,
          "midi": 36,
          "name": "C2",
          "ticks": 21510,
          "time": 79.080798,
          "velocity": 0.7874015748031497
        },
        {
          "duration": 0.0036764666666613266,
          "durationTicks": 1,
          "midi": 36,
          "name": "C2",
          "ticks": 21600,
          "time": 79.41168,
          "velocity": 0.7874015748031497
        },
        {
          "duration": 0.0036764666666613266,
          "durationTicks": 1,
          "midi": 38,
          "name": "D2",
          "ticks": 21720,
          "time": 79.852856,
          "velocity": 0.7874015748031497
        },
        {
          "duration": 0.0036764666666613266,
          "durationTicks": 1,
          "midi": 39,
          "name": "D#2",
          "ticks": 21720,
          "time": 79.852856,
          "velocity": 0.7874015748031497
        },
        {
          "duration": 0.0036764666666613266,
          "durationTicks": 1,
          "midi": 36,
          "name": "C2",
          "ticks": 21780,
          "time": 80.07344400000001,
          "velocity": 0.7874015748031497
        },
        {
          "duration": 0.0036764666666613266,
          "durationTicks": 1,
          "midi": 38,
          "name": "D2",
          "ticks": 21960,
          "time": 80.735208,
          "velocity": 0.7874015748031497
        },
        {
          "duration": 0.0036764666666613266,
          "durationTicks": 1,
          "midi": 39,
          "name": "D#2",
          "ticks": 21960,
          "time": 80.735208,
          "velocity": 0.7874015748031497
        },
        {
          "duration": 0.0036764666666613266,
          "durationTicks": 1,
          "midi": 36,
          "name": "C2",
          "ticks": 22080,
          "time": 81.176384,
          "velocity": 0.7874015748031497
        },
        {
          "duration": 0.0036764666666613266,
          "durationTicks": 1,
          "midi": 36,
          "name": "C2",
          "ticks": 22170,
          "time": 81.507266,
          "velocity": 0.7874015748031497
        },
        {
          "duration": 0.0036764666666613266,
          "durationTicks": 1,
          "midi": 38,
          "name": "D2",
          "ticks": 22200,
          "time": 81.61756,
          "velocity": 0.7874015748031497
        },
        {
          "duration": 0.0036764666666613266,
          "durationTicks": 1,
          "midi": 39,
          "name": "D#2",
          "ticks": 22200,
          "time": 81.61756,
          "velocity": 0.7874015748031497
        },
        {
          "duration": 0.0036764666666613266,
          "durationTicks": 1,
          "midi": 36,
          "name": "C2",
          "ticks": 22260,
          "time": 81.838148,
          "velocity": 0.7874015748031497
        },
        {
          "duration": 0.0036764666666613266,
          "durationTicks": 1,
          "midi": 36,
          "name": "C2",
          "ticks": 22380,
          "time": 82.279324,
          "velocity": 0.7874015748031497
        },
        {
          "duration": 0.0036764666666613266,
          "durationTicks": 1,
          "midi": 38,
          "name": "D2",
          "ticks": 22440,
          "time": 82.49991200000001,
          "velocity": 0.7874015748031497
        },
        {
          "duration": 0.0036764666666613266,
          "durationTicks": 1,
          "midi": 39,
          "name": "D#2",
          "ticks": 22440,
          "time": 82.49991200000001,
          "velocity": 0.7874015748031497
        },
        {
          "duration": 0.0036764666666613266,
          "durationTicks": 1,
          "midi": 36,
          "name": "C2",
          "ticks": 22470,
          "time": 82.610206,
          "velocity": 0.7874015748031497
        },
        {
          "duration": 0.0036764666666613266,
          "durationTicks": 1,
          "midi": 36,
          "name": "C2",
          "ticks": 22560,
          "time": 82.94108800000001,
          "velocity": 0.7874015748031497
        },
        {
          "duration": 0.0036764666666613266,
          "durationTicks": 1,
          "midi": 38,
          "name": "D2",
          "ticks": 22680,
          "time": 83.382264,
          "velocity": 0.7874015748031497
        },
        {
          "duration": 0.0036764666666613266,
          "durationTicks": 1,
          "midi": 39,
          "name": "D#2",
          "ticks": 22680,
          "time": 83.382264,
          "velocity": 0.7874015748031497
        },
        {
          "duration": 0.0036764666666613266,
          "durationTicks": 1,
          "midi": 36,
          "name": "C2",
          "ticks": 22740,
          "time": 83.602852,
          "velocity": 0.7874015748031497
        },
        {
          "duration": 0.0036764666666613266,
          "durationTicks": 1,
          "midi": 38,
          "name": "D2",
          "ticks": 22920,
          "time": 84.264616,
          "velocity": 0.7874015748031497
        },
        {
          "duration": 0.0036764666666613266,
          "durationTicks": 1,
          "midi": 39,
          "name": "D#2",
          "ticks": 22920,
          "time": 84.264616,
          "velocity": 0.7874015748031497
        },
        {
          "duration": 0.0036764666666755375,
          "durationTicks": 1,
          "midi": 36,
          "name": "C2",
          "ticks": 22980,
          "time": 84.485204,
          "velocity": 0.7086614173228346
        },
        {
          "duration": 0.0036764666666613266,
          "durationTicks": 1,
          "midi": 36,
          "name": "C2",
          "ticks": 23010,
          "time": 84.595498,
          "velocity": 0.7322834645669292
        },
        {
          "duration": 0.0036764666666755375,
          "durationTicks": 1,
          "midi": 36,
          "name": "C2",
          "ticks": 23520,
          "time": 86.470496,
          "velocity": 0.7874015748031497
        },
        {
          "duration": 0.0036764666666755375,
          "durationTicks": 1,
          "midi": 42,
          "name": "F#2",
          "ticks": 23520,
          "time": 86.470496,
          "velocity": 0.7874015748031497
        },
        {
          "duration": 0.0036764666666613266,
          "durationTicks": 1,
          "midi": 42,
          "name": "F#2",
          "ticks": 23580,
          "time": 86.691084,
          "velocity": 0.7874015748031497
        },
        {
          "duration": 0.0036764666666755375,
          "durationTicks": 1,
          "midi": 38,
          "name": "D2",
          "ticks": 23640,
          "time": 86.911672,
          "velocity": 0.7874015748031497
        },
        {
          "duration": 0.0036764666666755375,
          "durationTicks": 1,
          "midi": 39,
          "name": "D#2",
          "ticks": 23640,
          "time": 86.911672,
          "velocity": 0.7874015748031497
        },
        {
          "duration": 0.0036764666666755375,
          "durationTicks": 1,
          "midi": 42,
          "name": "F#2",
          "ticks": 23640,
          "time": 86.911672,
          "velocity": 0.7874015748031497
        },
        {
          "duration": 0.0036764666666613266,
          "durationTicks": 1,
          "midi": 36,
          "name": "C2",
          "ticks": 23700,
          "time": 87.13226,
          "velocity": 0.7874015748031497
        },
        {
          "duration": 0.0036764666666613266,
          "durationTicks": 1,
          "midi": 42,
          "name": "F#2",
          "ticks": 23700,
          "time": 87.13226,
          "velocity": 0.7874015748031497
        },
        {
          "duration": 0.0036764666666613266,
          "durationTicks": 1,
          "midi": 42,
          "name": "F#2",
          "ticks": 23760,
          "time": 87.35284800000001,
          "velocity": 0.7874015748031497
        },
        {
          "duration": 0.0036764666666613266,
          "durationTicks": 1,
          "midi": 42,
          "name": "F#2",
          "ticks": 23820,
          "time": 87.573436,
          "velocity": 0.7874015748031497
        },
        {
          "duration": 0.0036764666666613266,
          "durationTicks": 1,
          "midi": 38,
          "name": "D2",
          "ticks": 23880,
          "time": 87.79402400000001,
          "velocity": 0.7874015748031497
        },
        {
          "duration": 0.0036764666666613266,
          "durationTicks": 1,
          "midi": 39,
          "name": "D#2",
          "ticks": 23880,
          "time": 87.79402400000001,
          "velocity": 0.7874015748031497
        },
        {
          "duration": 0.0036764666666613266,
          "durationTicks": 1,
          "midi": 42,
          "name": "F#2",
          "ticks": 23880,
          "time": 87.79402400000001,
          "velocity": 0.7874015748031497
        },
        {
          "duration": 0.0036764666666613266,
          "durationTicks": 1,
          "midi": 42,
          "name": "F#2",
          "ticks": 23940,
          "time": 88.014612,
          "velocity": 0.7874015748031497
        },
        {
          "duration": 0.0036764666666755375,
          "durationTicks": 1,
          "midi": 42,
          "name": "F#2",
          "ticks": 23970,
          "time": 88.124906,
          "velocity": 0.6929133858267716
        },
        {
          "duration": 0.0036764666666613266,
          "durationTicks": 1,
          "midi": 36,
          "name": "C2",
          "ticks": 24000,
          "time": 88.2352,
          "velocity": 0.7874015748031497
        },
        {
          "duration": 0.0036764666666613266,
          "durationTicks": 1,
          "midi": 42,
          "name": "F#2",
          "ticks": 24000,
          "time": 88.2352,
          "velocity": 0.7874015748031497
        },
        {
          "duration": 0.0036764666666613266,
          "durationTicks": 1,
          "midi": 42,
          "name": "F#2",
          "ticks": 24060,
          "time": 88.455788,
          "velocity": 0.7874015748031497
        },
        {
          "duration": 0.0036764666666613266,
          "durationTicks": 1,
          "midi": 36,
          "name": "C2",
          "ticks": 24090,
          "time": 88.56608200000001,
          "velocity": 0.7874015748031497
        },
        {
          "duration": 0.0036764666666613266,
          "durationTicks": 1,
          "midi": 38,
          "name": "D2",
          "ticks": 24120,
          "time": 88.676376,
          "velocity": 0.7874015748031497
        },
        {
          "duration": 0.0036764666666613266,
          "durationTicks": 1,
          "midi": 39,
          "name": "D#2",
          "ticks": 24120,
          "time": 88.676376,
          "velocity": 0.7874015748031497
        },
        {
          "duration": 0.0036764666666613266,
          "durationTicks": 1,
          "midi": 42,
          "name": "F#2",
          "ticks": 24120,
          "time": 88.676376,
          "velocity": 0.7874015748031497
        },
        {
          "duration": 0.0036764666666755375,
          "durationTicks": 1,
          "midi": 36,
          "name": "C2",
          "ticks": 24180,
          "time": 88.896964,
          "velocity": 0.7874015748031497
        },
        {
          "duration": 0.0036764666666755375,
          "durationTicks": 1,
          "midi": 42,
          "name": "F#2",
          "ticks": 24180,
          "time": 88.896964,
          "velocity": 0.7874015748031497
        },
        {
          "duration": 0.0036764666666613266,
          "durationTicks": 1,
          "midi": 42,
          "name": "F#2",
          "ticks": 24240,
          "time": 89.117552,
          "velocity": 0.7874015748031497
        },
        {
          "duration": 0.0036764666666755375,
          "durationTicks": 1,
          "midi": 36,
          "name": "C2",
          "ticks": 24300,
          "time": 89.33814,
          "velocity": 0.7874015748031497
        },
        {
          "duration": 0.0036764666666755375,
          "durationTicks": 1,
          "midi": 42,
          "name": "F#2",
          "ticks": 24300,
          "time": 89.33814,
          "velocity": 0.7874015748031497
        },
        {
          "duration": 0.0036764666666613266,
          "durationTicks": 1,
          "midi": 38,
          "name": "D2",
          "ticks": 24360,
          "time": 89.558728,
          "velocity": 0.7874015748031497
        },
        {
          "duration": 0.0036764666666613266,
          "durationTicks": 1,
          "midi": 39,
          "name": "D#2",
          "ticks": 24360,
          "time": 89.558728,
          "velocity": 0.7874015748031497
        },
        {
          "duration": 0.0036764666666613266,
          "durationTicks": 1,
          "midi": 42,
          "name": "F#2",
          "ticks": 24360,
          "time": 89.558728,
          "velocity": 0.7874015748031497
        },
        {
          "duration": 0.0036764666666613266,
          "durationTicks": 1,
          "midi": 36,
          "name": "C2",
          "ticks": 24390,
          "time": 89.669022,
          "velocity": 0.7874015748031497
        },
        {
          "duration": 0.0036764666666613266,
          "durationTicks": 1,
          "midi": 42,
          "name": "F#2",
          "ticks": 24420,
          "time": 89.77931600000001,
          "velocity": 0.7874015748031497
        },
        {
          "duration": 0.0036764666666613266,
          "durationTicks": 1,
          "midi": 36,
          "name": "C2",
          "ticks": 24480,
          "time": 89.999904,
          "velocity": 0.7874015748031497
        },
        {
          "duration": 0.0036764666666613266,
          "durationTicks": 1,
          "midi": 42,
          "name": "F#2",
          "ticks": 24480,
          "time": 89.999904,
          "velocity": 0.7874015748031497
        },
        {
          "duration": 0.0036764666666613266,
          "durationTicks": 1,
          "midi": 42,
          "name": "F#2",
          "ticks": 24540,
          "time": 90.22049200000001,
          "velocity": 0.7874015748031497
        },
        {
          "duration": 0.0036764666666613266,
          "durationTicks": 1,
          "midi": 38,
          "name": "D2",
          "ticks": 24600,
          "time": 90.44108,
          "velocity": 0.7874015748031497
        },
        {
          "duration": 0.0036764666666613266,
          "durationTicks": 1,
          "midi": 39,
          "name": "D#2",
          "ticks": 24600,
          "time": 90.44108,
          "velocity": 0.7874015748031497
        },
        {
          "duration": 0.0036764666666613266,
          "durationTicks": 1,
          "midi": 42,
          "name": "F#2",
          "ticks": 24600,
          "time": 90.44108,
          "velocity": 0.7874015748031497
        },
        {
          "duration": 0.0036764666666613266,
          "durationTicks": 1,
          "midi": 36,
          "name": "C2",
          "ticks": 24660,
          "time": 90.661668,
          "velocity": 0.7874015748031497
        },
        {
          "duration": 0.0036764666666613266,
          "durationTicks": 1,
          "midi": 42,
          "name": "F#2",
          "ticks": 24660,
          "time": 90.661668,
          "velocity": 0.7874015748031497
        },
        {
          "duration": 0.0036764666666613266,
          "durationTicks": 1,
          "midi": 42,
          "name": "F#2",
          "ticks": 24720,
          "time": 90.882256,
          "velocity": 0.7874015748031497
        },
        {
          "duration": 0.0036764666666613266,
          "durationTicks": 1,
          "midi": 42,
          "name": "F#2",
          "ticks": 24780,
          "time": 91.102844,
          "velocity": 0.7874015748031497
        },
        {
          "duration": 0.0036764666666755375,
          "durationTicks": 1,
          "midi": 38,
          "name": "D2",
          "ticks": 24840,
          "time": 91.323432,
          "velocity": 0.7874015748031497
        },
        {
          "duration": 0.0036764666666755375,
          "durationTicks": 1,
          "midi": 39,
          "name": "D#2",
          "ticks": 24840,
          "time": 91.323432,
          "velocity": 0.7874015748031497
        },
        {
          "duration": 0.0036764666666755375,
          "durationTicks": 1,
          "midi": 42,
          "name": "F#2",
          "ticks": 24840,
          "time": 91.323432,
          "velocity": 0.7874015748031497
        },
        {
          "duration": 0.0036764666666613266,
          "durationTicks": 1,
          "midi": 36,
          "name": "C2",
          "ticks": 24900,
          "time": 91.54402,
          "velocity": 0.7086614173228346
        },
        {
          "duration": 0.0036764666666613266,
          "durationTicks": 1,
          "midi": 42,
          "name": "F#2",
          "ticks": 24900,
          "time": 91.54402,
          "velocity": 0.7874015748031497
        },
        {
          "duration": 0.0036764666666613266,
          "durationTicks": 1,
          "midi": 36,
          "name": "C2",
          "ticks": 24930,
          "time": 91.654314,
          "velocity": 0.7322834645669292
        },
        {
          "duration": 0.0036764666666613266,
          "durationTicks": 1,
          "midi": 36,
          "name": "C2",
          "ticks": 24960,
          "time": 91.76460800000001,
          "velocity": 0.7874015748031497
        },
        {
          "duration": 0.0036764666666613266,
          "durationTicks": 1,
          "midi": 42,
          "name": "F#2",
          "ticks": 24960,
          "time": 91.76460800000001,
          "velocity": 0.7874015748031497
        },
        {
          "duration": 0.0036764666666613266,
          "durationTicks": 1,
          "midi": 42,
          "name": "F#2",
          "ticks": 25020,
          "time": 91.985196,
          "velocity": 0.7874015748031497
        },
        {
          "duration": 0.0036764666666613266,
          "durationTicks": 1,
          "midi": 36,
          "name": "C2",
          "ticks": 25050,
          "time": 92.09549,
          "velocity": 0.7874015748031497
        },
        {
          "duration": 0.0036764666666613266,
          "durationTicks": 1,
          "midi": 38,
          "name": "D2",
          "ticks": 25080,
          "time": 92.20578400000001,
          "velocity": 0.7874015748031497
        },
        {
          "duration": 0.0036764666666613266,
          "durationTicks": 1,
          "midi": 39,
          "name": "D#2",
          "ticks": 25080,
          "time": 92.20578400000001,
          "velocity": 0.7874015748031497
        },
        {
          "duration": 0.0036764666666613266,
          "durationTicks": 1,
          "midi": 42,
          "name": "F#2",
          "ticks": 25080,
          "time": 92.20578400000001,
          "velocity": 0.7874015748031497
        },
        {
          "duration": 0.0036764666666613266,
          "durationTicks": 1,
          "midi": 36,
          "name": "C2",
          "ticks": 25140,
          "time": 92.426372,
          "velocity": 0.7874015748031497
        },
        {
          "duration": 0.0036764666666613266,
          "durationTicks": 1,
          "midi": 42,
          "name": "F#2",
          "ticks": 25140,
          "time": 92.426372,
          "velocity": 0.7874015748031497
        },
        {
          "duration": 0.0036764666666613266,
          "durationTicks": 1,
          "midi": 42,
          "name": "F#2",
          "ticks": 25200,
          "time": 92.64696,
          "velocity": 0.7874015748031497
        },
        {
          "duration": 0.0036764666666613266,
          "durationTicks": 1,
          "midi": 36,
          "name": "C2",
          "ticks": 25260,
          "time": 92.867548,
          "velocity": 0.7874015748031497
        },
        {
          "duration": 0.0036764666666613266,
          "durationTicks": 1,
          "midi": 42,
          "name": "F#2",
          "ticks": 25260,
          "time": 92.867548,
          "velocity": 0.7874015748031497
        },
        {
          "duration": 0.0036764666666613266,
          "durationTicks": 1,
          "midi": 38,
          "name": "D2",
          "ticks": 25320,
          "time": 93.088136,
          "velocity": 0.7874015748031497
        },
        {
          "duration": 0.0036764666666613266,
          "durationTicks": 1,
          "midi": 39,
          "name": "D#2",
          "ticks": 25320,
          "time": 93.088136,
          "velocity": 0.7874015748031497
        },
        {
          "duration": 0.0036764666666613266,
          "durationTicks": 1,
          "midi": 42,
          "name": "F#2",
          "ticks": 25320,
          "time": 93.088136,
          "velocity": 0.7874015748031497
        },
        {
          "duration": 0.0036764666666613266,
          "durationTicks": 1,
          "midi": 36,
          "name": "C2",
          "ticks": 25350,
          "time": 93.19843,
          "velocity": 0.7874015748031497
        },
        {
          "duration": 0.0036764666666613266,
          "durationTicks": 1,
          "midi": 42,
          "name": "F#2",
          "ticks": 25380,
          "time": 93.308724,
          "velocity": 0.7874015748031497
        },
        {
          "duration": 0.0036764666666613266,
          "durationTicks": 1,
          "midi": 36,
          "name": "C2",
          "ticks": 25440,
          "time": 93.529312,
          "velocity": 0.7874015748031497
        },
        {
          "duration": 0.0036764666666613266,
          "durationTicks": 1,
          "midi": 42,
          "name": "F#2",
          "ticks": 25440,
          "time": 93.529312,
          "velocity": 0.7874015748031497
        },
        {
          "duration": 0.0036764666666755375,
          "durationTicks": 1,
          "midi": 42,
          "name": "F#2",
          "ticks": 25500,
          "time": 93.7499,
          "velocity": 0.7874015748031497
        },
        {
          "duration": 0.0036764666666613266,
          "durationTicks": 1,
          "midi": 38,
          "name": "D2",
          "ticks": 25560,
          "time": 93.970488,
          "velocity": 0.7874015748031497
        },
        {
          "duration": 0.0036764666666613266,
          "durationTicks": 1,
          "midi": 39,
          "name": "D#2",
          "ticks": 25560,
          "time": 93.970488,
          "velocity": 0.7874015748031497
        },
        {
          "duration": 0.0036764666666613266,
          "durationTicks": 1,
          "midi": 42,
          "name": "F#2",
          "ticks": 25560,
          "time": 93.970488,
          "velocity": 0.7874015748031497
        },
        {
          "duration": 0.0036764666666613266,
          "durationTicks": 1,
          "midi": 36,
          "name": "C2",
          "ticks": 25620,
          "time": 94.19107600000001,
          "velocity": 0.7874015748031497
        },
        {
          "duration": 0.0036764666666613266,
          "durationTicks": 1,
          "midi": 42,
          "name": "F#2",
          "ticks": 25620,
          "time": 94.19107600000001,
          "velocity": 0.7874015748031497
        },
        {
          "duration": 0.0036764666666613266,
          "durationTicks": 1,
          "midi": 42,
          "name": "F#2",
          "ticks": 25680,
          "time": 94.411664,
          "velocity": 0.7874015748031497
        },
        {
          "duration": 0.0036764666666613266,
          "durationTicks": 1,
          "midi": 42,
          "name": "F#2",
          "ticks": 25740,
          "time": 94.63225200000001,
          "velocity": 0.7874015748031497
        },
        {
          "duration": 0.0036764666666613266,
          "durationTicks": 1,
          "midi": 38,
          "name": "D2",
          "ticks": 25800,
          "time": 94.85284,
          "velocity": 0.7874015748031497
        },
        {
          "duration": 0.0036764666666613266,
          "durationTicks": 1,
          "midi": 39,
          "name": "D#2",
          "ticks": 25800,
          "time": 94.85284,
          "velocity": 0.7874015748031497
        },
        {
          "duration": 0.0036764666666613266,
          "durationTicks": 1,
          "midi": 42,
          "name": "F#2",
          "ticks": 25800,
          "time": 94.85284,
          "velocity": 0.7874015748031497
        },
        {
          "duration": 0.0036764666666613266,
          "durationTicks": 1,
          "midi": 42,
          "name": "F#2",
          "ticks": 25860,
          "time": 95.073428,
          "velocity": 0.7874015748031497
        },
        {
          "duration": 0.0036764666666613266,
          "durationTicks": 1,
          "midi": 42,
          "name": "F#2",
          "ticks": 25890,
          "time": 95.183722,
          "velocity": 0.6929133858267716
        },
        {
          "duration": 0.0036764666666613266,
          "durationTicks": 1,
          "midi": 36,
          "name": "C2",
          "ticks": 25920,
          "time": 95.294016,
          "velocity": 0.7874015748031497
        },
        {
          "duration": 0.0036764666666613266,
          "durationTicks": 1,
          "midi": 42,
          "name": "F#2",
          "ticks": 25920,
          "time": 95.294016,
          "velocity": 0.7874015748031497
        },
        {
          "duration": 0.0036764666666613266,
          "durationTicks": 1,
          "midi": 42,
          "name": "F#2",
          "ticks": 25980,
          "time": 95.514604,
          "velocity": 0.7874015748031497
        },
        {
          "duration": 0.0036764666666613266,
          "durationTicks": 1,
          "midi": 36,
          "name": "C2",
          "ticks": 26010,
          "time": 95.624898,
          "velocity": 0.7874015748031497
        },
        {
          "duration": 0.0036764666666613266,
          "durationTicks": 1,
          "midi": 38,
          "name": "D2",
          "ticks": 26040,
          "time": 95.735192,
          "velocity": 0.7874015748031497
        },
        {
          "duration": 0.0036764666666613266,
          "durationTicks": 1,
          "midi": 39,
          "name": "D#2",
          "ticks": 26040,
          "time": 95.735192,
          "velocity": 0.7874015748031497
        },
        {
          "duration": 0.0036764666666613266,
          "durationTicks": 1,
          "midi": 42,
          "name": "F#2",
          "ticks": 26040,
          "time": 95.735192,
          "velocity": 0.7874015748031497
        },
        {
          "duration": 0.0036764666666613266,
          "durationTicks": 1,
          "midi": 36,
          "name": "C2",
          "ticks": 26100,
          "time": 95.95578,
          "velocity": 0.7874015748031497
        },
        {
          "duration": 0.0036764666666613266,
          "durationTicks": 1,
          "midi": 42,
          "name": "F#2",
          "ticks": 26100,
          "time": 95.95578,
          "velocity": 0.7874015748031497
        },
        {
          "duration": 0.0036764666666755375,
          "durationTicks": 1,
          "midi": 42,
          "name": "F#2",
          "ticks": 26160,
          "time": 96.176368,
          "velocity": 0.7874015748031497
        },
        {
          "duration": 0.0036764666666613266,
          "durationTicks": 1,
          "midi": 36,
          "name": "C2",
          "ticks": 26220,
          "time": 96.396956,
          "velocity": 0.7874015748031497
        },
        {
          "duration": 0.0036764666666613266,
          "durationTicks": 1,
          "midi": 42,
          "name": "F#2",
          "ticks": 26220,
          "time": 96.396956,
          "velocity": 0.7874015748031497
        },
        {
          "duration": 0.0036764666666613266,
          "durationTicks": 1,
          "midi": 38,
          "name": "D2",
          "ticks": 26280,
          "time": 96.61754400000001,
          "velocity": 0.7874015748031497
        },
        {
          "duration": 0.0036764666666613266,
          "durationTicks": 1,
          "midi": 39,
          "name": "D#2",
          "ticks": 26280,
          "time": 96.61754400000001,
          "velocity": 0.7874015748031497
        },
        {
          "duration": 0.0036764666666613266,
          "durationTicks": 1,
          "midi": 42,
          "name": "F#2",
          "ticks": 26280,
          "time": 96.61754400000001,
          "velocity": 0.7874015748031497
        },
        {
          "duration": 0.0036764666666613266,
          "durationTicks": 1,
          "midi": 36,
          "name": "C2",
          "ticks": 26310,
          "time": 96.727838,
          "velocity": 0.7874015748031497
        },
        {
          "duration": 0.0036764666666613266,
          "durationTicks": 1,
          "midi": 42,
          "name": "F#2",
          "ticks": 26340,
          "time": 96.838132,
          "velocity": 0.7874015748031497
        },
        {
          "duration": 0.0036764666666613266,
          "durationTicks": 1,
          "midi": 36,
          "name": "C2",
          "ticks": 26400,
          "time": 97.05872000000001,
          "velocity": 0.7874015748031497
        },
        {
          "duration": 0.0036764666666613266,
          "durationTicks": 1,
          "midi": 42,
          "name": "F#2",
          "ticks": 26400,
          "time": 97.05872000000001,
          "velocity": 0.7874015748031497
        },
        {
          "duration": 0.0036764666666613266,
          "durationTicks": 1,
          "midi": 42,
          "name": "F#2",
          "ticks": 26460,
          "time": 97.279308,
          "velocity": 0.7874015748031497
        },
        {
          "duration": 0.0036764666666613266,
          "durationTicks": 1,
          "midi": 38,
          "name": "D2",
          "ticks": 26520,
          "time": 97.499896,
          "velocity": 0.7874015748031497
        },
        {
          "duration": 0.0036764666666613266,
          "durationTicks": 1,
          "midi": 39,
          "name": "D#2",
          "ticks": 26520,
          "time": 97.499896,
          "velocity": 0.7874015748031497
        },
        {
          "duration": 0.0036764666666613266,
          "durationTicks": 1,
          "midi": 42,
          "name": "F#2",
          "ticks": 26520,
          "time": 97.499896,
          "velocity": 0.7874015748031497
        },
        {
          "duration": 0.0036764666666613266,
          "durationTicks": 1,
          "midi": 36,
          "name": "C2",
          "ticks": 26580,
          "time": 97.720484,
          "velocity": 0.7874015748031497
        },
        {
          "duration": 0.0036764666666613266,
          "durationTicks": 1,
          "midi": 42,
          "name": "F#2",
          "ticks": 26580,
          "time": 97.720484,
          "velocity": 0.7874015748031497
        },
        {
          "duration": 0.0036764666666613266,
          "durationTicks": 1,
          "midi": 42,
          "name": "F#2",
          "ticks": 26640,
          "time": 97.941072,
          "velocity": 0.7874015748031497
        },
        {
          "duration": 0.0036764666666613266,
          "durationTicks": 1,
          "midi": 42,
          "name": "F#2",
          "ticks": 26700,
          "time": 98.16166,
          "velocity": 0.7874015748031497
        },
        {
          "duration": 0.0036764666666613266,
          "durationTicks": 1,
          "midi": 38,
          "name": "D2",
          "ticks": 26760,
          "time": 98.382248,
          "velocity": 0.7874015748031497
        },
        {
          "duration": 0.0036764666666613266,
          "durationTicks": 1,
          "midi": 39,
          "name": "D#2",
          "ticks": 26760,
          "time": 98.382248,
          "velocity": 0.7874015748031497
        },
        {
          "duration": 0.0036764666666613266,
          "durationTicks": 1,
          "midi": 42,
          "name": "F#2",
          "ticks": 26760,
          "time": 98.382248,
          "velocity": 0.7874015748031497
        },
        {
          "duration": 0.0036764666666755375,
          "durationTicks": 1,
          "midi": 36,
          "name": "C2",
          "ticks": 26820,
          "time": 98.602836,
          "velocity": 0.7086614173228346
        },
        {
          "duration": 0.0036764666666755375,
          "durationTicks": 1,
          "midi": 42,
          "name": "F#2",
          "ticks": 26820,
          "time": 98.602836,
          "velocity": 0.6929133858267716
        },
        {
          "duration": 0.0036764666666613266,
          "durationTicks": 1,
          "midi": 36,
          "name": "C2",
          "ticks": 26850,
          "time": 98.71313,
          "velocity": 0.7322834645669292
        },
        {
          "duration": 0.0036764666666613266,
          "durationTicks": 1,
          "midi": 42,
          "name": "F#2",
          "ticks": 26850,
          "time": 98.71313,
          "velocity": 0.6456692913385826
        },
        {
          "duration": 0.0036764666666613266,
          "durationTicks": 1,
          "midi": 36,
          "name": "C2",
          "ticks": 26880,
          "time": 98.823424,
          "velocity": 0.7874015748031497
        },
        {
          "duration": 0.0036764666666613266,
          "durationTicks": 1,
          "midi": 42,
          "name": "F#2",
          "ticks": 26880,
          "time": 98.823424,
          "velocity": 0.7874015748031497
        },
        {
          "duration": 0.0036764666666755375,
          "durationTicks": 1,
          "midi": 39,
          "name": "D#2",
          "ticks": 27360,
          "time": 100.588128,
          "velocity": 0.7874015748031497
        },
        {
          "duration": 0.0036764666666755375,
          "durationTicks": 1,
          "midi": 39,
          "name": "D#2",
          "ticks": 27480,
          "time": 101.029304,
          "velocity": 0.7874015748031497
        },
        {
          "duration": 0.0036764666666613266,
          "durationTicks": 1,
          "midi": 39,
          "name": "D#2",
          "ticks": 27600,
          "time": 101.47048000000001,
          "velocity": 0.7874015748031497
        },
        {
          "duration": 0.0036764666666613266,
          "durationTicks": 1,
          "midi": 39,
          "name": "D#2",
          "ticks": 27720,
          "time": 101.91165600000001,
          "velocity": 0.7874015748031497
        },
        {
          "duration": 0.0036764666666613266,
          "durationTicks": 1,
          "midi": 39,
          "name": "D#2",
          "ticks": 27840,
          "time": 102.352832,
          "velocity": 0.7874015748031497
        },
        {
          "duration": 0.0036764666666613266,
          "durationTicks": 1,
          "midi": 39,
          "name": "D#2",
          "ticks": 27960,
          "time": 102.794008,
          "velocity": 0.7874015748031497
        },
        {
          "duration": 0.0036764666666613266,
          "durationTicks": 1,
          "midi": 39,
          "name": "D#2",
          "ticks": 28080,
          "time": 103.235184,
          "velocity": 0.7874015748031497
        },
        {
          "duration": 0.0036764666666613266,
          "durationTicks": 1,
          "midi": 39,
          "name": "D#2",
          "ticks": 28200,
          "time": 103.67636,
          "velocity": 0.7874015748031497
        },
        {
          "duration": 0.0036764666666613266,
          "durationTicks": 1,
          "midi": 39,
          "name": "D#2",
          "ticks": 28320,
          "time": 104.117536,
          "velocity": 0.7874015748031497
        },
        {
          "duration": 0.0036764666666613266,
          "durationTicks": 1,
          "midi": 39,
          "name": "D#2",
          "ticks": 28440,
          "time": 104.558712,
          "velocity": 0.7874015748031497
        },
        {
          "duration": 0.0036764666666613266,
          "durationTicks": 1,
          "midi": 39,
          "name": "D#2",
          "ticks": 28560,
          "time": 104.999888,
          "velocity": 0.7874015748031497
        },
        {
          "duration": 0.0036764666666755375,
          "durationTicks": 1,
          "midi": 39,
          "name": "D#2",
          "ticks": 28680,
          "time": 105.441064,
          "velocity": 0.7874015748031497
        },
        {
          "duration": 0.0036764666666755375,
          "durationTicks": 1,
          "midi": 39,
          "name": "D#2",
          "ticks": 28800,
          "time": 105.88224,
          "velocity": 0.7874015748031497
        },
        {
          "duration": 0.0036764666666613266,
          "durationTicks": 1,
          "midi": 39,
          "name": "D#2",
          "ticks": 28920,
          "time": 106.32341600000001,
          "velocity": 0.7874015748031497
        },
        {
          "duration": 0.0036764666666613266,
          "durationTicks": 1,
          "midi": 39,
          "name": "D#2",
          "ticks": 29040,
          "time": 106.76459200000001,
          "velocity": 0.7874015748031497
        },
        {
          "duration": 0.0036764666666613266,
          "durationTicks": 1,
          "midi": 39,
          "name": "D#2",
          "ticks": 29160,
          "time": 107.205768,
          "velocity": 0.7874015748031497
        },
        {
          "duration": 0.0036764666666613266,
          "durationTicks": 1,
          "midi": 39,
          "name": "D#2",
          "ticks": 29280,
          "time": 107.646944,
          "velocity": 0.7874015748031497
        },
        {
          "duration": 0.0036764666666613266,
          "durationTicks": 1,
          "midi": 39,
          "name": "D#2",
          "ticks": 29400,
          "time": 108.08812,
          "velocity": 0.7874015748031497
        },
        {
          "duration": 0.0036764666666613266,
          "durationTicks": 1,
          "midi": 39,
          "name": "D#2",
          "ticks": 29520,
          "time": 108.529296,
          "velocity": 0.7874015748031497
        },
        {
          "duration": 0.0036764666666613266,
          "durationTicks": 1,
          "midi": 39,
          "name": "D#2",
          "ticks": 29640,
          "time": 108.970472,
          "velocity": 0.7874015748031497
        },
        {
          "duration": 0.0036764666666613266,
          "durationTicks": 1,
          "midi": 39,
          "name": "D#2",
          "ticks": 29760,
          "time": 109.411648,
          "velocity": 0.7874015748031497
        },
        {
          "duration": 0.0036764666666613266,
          "durationTicks": 1,
          "midi": 39,
          "name": "D#2",
          "ticks": 29880,
          "time": 109.852824,
          "velocity": 0.7874015748031497
        },
        {
          "duration": 0.0036764666666755375,
          "durationTicks": 1,
          "midi": 39,
          "name": "D#2",
          "ticks": 30000,
          "time": 110.294,
          "velocity": 0.7874015748031497
        },
        {
          "duration": 0.0036764666666613266,
          "durationTicks": 1,
          "midi": 39,
          "name": "D#2",
          "ticks": 30120,
          "time": 110.73517600000001,
          "velocity": 0.7874015748031497
        },
        {
          "duration": 0.0036764666666613266,
          "durationTicks": 1,
          "midi": 39,
          "name": "D#2",
          "ticks": 30240,
          "time": 111.17635200000001,
          "velocity": 0.7874015748031497
        },
        {
          "duration": 0.0036764666666613266,
          "durationTicks": 1,
          "midi": 39,
          "name": "D#2",
          "ticks": 30360,
          "time": 111.61752800000001,
          "velocity": 0.7874015748031497
        },
        {
          "duration": 0.0036764666666613266,
          "durationTicks": 1,
          "midi": 39,
          "name": "D#2",
          "ticks": 30480,
          "time": 112.058704,
          "velocity": 0.7874015748031497
        },
        {
          "duration": 0.0036764666666613266,
          "durationTicks": 1,
          "midi": 39,
          "name": "D#2",
          "ticks": 30600,
          "time": 112.49988,
          "velocity": 0.7874015748031497
        },
        {
          "duration": 0.0036764666666613266,
          "durationTicks": 1,
          "midi": 39,
          "name": "D#2",
          "ticks": 30720,
          "time": 112.941056,
          "velocity": 0.7874015748031497
        },
        {
          "duration": 0.0036764666666613266,
          "durationTicks": 1,
          "midi": 39,
          "name": "D#2",
          "ticks": 30840,
          "time": 113.382232,
          "velocity": 0.7874015748031497
        },
        {
          "duration": 0.0036764666666613266,
          "durationTicks": 1,
          "midi": 39,
          "name": "D#2",
          "ticks": 30960,
          "time": 113.823408,
          "velocity": 0.7874015748031497
        },
        {
          "duration": 0.0036764666666613266,
          "durationTicks": 1,
          "midi": 39,
          "name": "D#2",
          "ticks": 31080,
          "time": 114.264584,
          "velocity": 0.7874015748031497
        },
        {
          "duration": 0.0036764666666613266,
          "durationTicks": 1,
          "midi": 49,
          "name": "C#3",
          "ticks": 31199,
          "time": 114.70208353333334,
          "velocity": 0.7874015748031497
        },
        {
          "duration": 0.0036764666666755375,
          "durationTicks": 1,
          "midi": 36,
          "name": "C2",
          "ticks": 31200,
          "time": 114.70576,
          "velocity": 0.15748031496062992
        },
        {
          "duration": 0.0036764666666755375,
          "durationTicks": 1,
          "midi": 39,
          "name": "D#2",
          "ticks": 31200,
          "time": 114.70576,
          "velocity": 0.7874015748031497
        },
        {
          "duration": 0.0036764666666613266,
          "durationTicks": 1,
          "midi": 36,
          "name": "C2",
          "ticks": 31230,
          "time": 114.81605400000001,
          "velocity": 0.15748031496062992
        },
        {
          "duration": 0.0036764666666613266,
          "durationTicks": 1,
          "midi": 36,
          "name": "C2",
          "ticks": 31260,
          "time": 114.926348,
          "velocity": 0.15748031496062992
        },
        {
          "duration": 0.0036764666666613266,
          "durationTicks": 1,
          "midi": 36,
          "name": "C2",
          "ticks": 31290,
          "time": 115.036642,
          "velocity": 0.15748031496062992
        },
        {
          "duration": 0.0036764666666755375,
          "durationTicks": 1,
          "midi": 36,
          "name": "C2",
          "ticks": 31320,
          "time": 115.146936,
          "velocity": 0.15748031496062992
        },
        {
          "duration": 0.0036764666666755375,
          "durationTicks": 1,
          "midi": 39,
          "name": "D#2",
          "ticks": 31320,
          "time": 115.146936,
          "velocity": 0.7874015748031497
        },
        {
          "duration": 0.0036764666666613266,
          "durationTicks": 1,
          "midi": 36,
          "name": "C2",
          "ticks": 31350,
          "time": 115.25723,
          "velocity": 0.15748031496062992
        },
        {
          "duration": 0.0036764666666613266,
          "durationTicks": 1,
          "midi": 36,
          "name": "C2",
          "ticks": 31380,
          "time": 115.367524,
          "velocity": 0.15748031496062992
        },
        {
          "duration": 0.0036764666666613266,
          "durationTicks": 1,
          "midi": 36,
          "name": "C2",
          "ticks": 31410,
          "time": 115.477818,
          "velocity": 0.15748031496062992
        },
        {
          "duration": 0.0036764666666613266,
          "durationTicks": 1,
          "midi": 36,
          "name": "C2",
          "ticks": 31440,
          "time": 115.58811200000001,
          "velocity": 0.15748031496062992
        },
        {
          "duration": 0.0036764666666613266,
          "durationTicks": 1,
          "midi": 39,
          "name": "D#2",
          "ticks": 31440,
          "time": 115.58811200000001,
          "velocity": 0.7874015748031497
        },
        {
          "duration": 0.0036764666666613266,
          "durationTicks": 1,
          "midi": 36,
          "name": "C2",
          "ticks": 31470,
          "time": 115.698406,
          "velocity": 0.15748031496062992
        },
        {
          "duration": 0.0036764666666613266,
          "durationTicks": 1,
          "midi": 36,
          "name": "C2",
          "ticks": 31500,
          "time": 115.8087,
          "velocity": 0.15748031496062992
        },
        {
          "duration": 0.0036764666666755375,
          "durationTicks": 1,
          "midi": 36,
          "name": "C2",
          "ticks": 31530,
          "time": 115.918994,
          "velocity": 0.15748031496062992
        },
        {
          "duration": 0.0036764666666613266,
          "durationTicks": 1,
          "midi": 36,
          "name": "C2",
          "ticks": 31560,
          "time": 116.02928800000001,
          "velocity": 0.15748031496062992
        },
        {
          "duration": 0.0036764666666613266,
          "durationTicks": 1,
          "midi": 39,
          "name": "D#2",
          "ticks": 31560,
          "time": 116.02928800000001,
          "velocity": 0.7874015748031497
        },
        {
          "duration": 0.0036764666666613266,
          "durationTicks": 1,
          "midi": 36,
          "name": "C2",
          "ticks": 31590,
          "time": 116.139582,
          "velocity": 0.15748031496062992
        },
        {
          "duration": 0.0036764666666613266,
          "durationTicks": 1,
          "midi": 36,
          "name": "C2",
          "ticks": 31620,
          "time": 116.249876,
          "velocity": 0.15748031496062992
        },
        {
          "duration": 0.0036764666666755375,
          "durationTicks": 1,
          "midi": 36,
          "name": "C2",
          "ticks": 31650,
          "time": 116.36017,
          "velocity": 0.15748031496062992
        },
        {
          "duration": 0.0036764666666613266,
          "durationTicks": 1,
          "midi": 36,
          "name": "C2",
          "ticks": 31680,
          "time": 116.470464,
          "velocity": 0.2283464566929134
        },
        {
          "duration": 0.0036764666666613266,
          "durationTicks": 1,
          "midi": 39,
          "name": "D#2",
          "ticks": 31680,
          "time": 116.470464,
          "velocity": 0.7874015748031497
        },
        {
          "duration": 0.0036764666666613266,
          "durationTicks": 1,
          "midi": 36,
          "name": "C2",
          "ticks": 31710,
          "time": 116.580758,
          "velocity": 0.2283464566929134
        },
        {
          "duration": 0.0036764666666613266,
          "durationTicks": 1,
          "midi": 36,
          "name": "C2",
          "ticks": 31740,
          "time": 116.691052,
          "velocity": 0.2283464566929134
        },
        {
          "duration": 0.0036764666666613266,
          "durationTicks": 1,
          "midi": 36,
          "name": "C2",
          "ticks": 31770,
          "time": 116.80134600000001,
          "velocity": 0.2283464566929134
        },
        {
          "duration": 0.0036764666666613266,
          "durationTicks": 1,
          "midi": 36,
          "name": "C2",
          "ticks": 31800,
          "time": 116.91164,
          "velocity": 0.2283464566929134
        },
        {
          "duration": 0.0036764666666613266,
          "durationTicks": 1,
          "midi": 39,
          "name": "D#2",
          "ticks": 31800,
          "time": 116.91164,
          "velocity": 0.7874015748031497
        },
        {
          "duration": 0.0036764666666613266,
          "durationTicks": 1,
          "midi": 36,
          "name": "C2",
          "ticks": 31830,
          "time": 117.021934,
          "velocity": 0.2283464566929134
        },
        {
          "duration": 0.0036764666666755375,
          "durationTicks": 1,
          "midi": 36,
          "name": "C2",
          "ticks": 31860,
          "time": 117.132228,
          "velocity": 0.2283464566929134
        },
        {
          "duration": 0.0036764666666613266,
          "durationTicks": 1,
          "midi": 36,
          "name": "C2",
          "ticks": 31890,
          "time": 117.24252200000001,
          "velocity": 0.2283464566929134
        },
        {
          "duration": 0.0036764666666613266,
          "durationTicks": 1,
          "midi": 36,
          "name": "C2",
          "ticks": 31920,
          "time": 117.352816,
          "velocity": 0.2283464566929134
        },
        {
          "duration": 0.0036764666666613266,
          "durationTicks": 1,
          "midi": 39,
          "name": "D#2",
          "ticks": 31920,
          "time": 117.352816,
          "velocity": 0.7874015748031497
        },
        {
          "duration": 0.0036764666666613266,
          "durationTicks": 1,
          "midi": 36,
          "name": "C2",
          "ticks": 31950,
          "time": 117.46311,
          "velocity": 0.2283464566929134
        },
        {
          "duration": 0.0036764666666755375,
          "durationTicks": 1,
          "midi": 36,
          "name": "C2",
          "ticks": 31980,
          "time": 117.573404,
          "velocity": 0.2283464566929134
        },
        {
          "duration": 0.0036764666666613266,
          "durationTicks": 1,
          "midi": 36,
          "name": "C2",
          "ticks": 32010,
          "time": 117.683698,
          "velocity": 0.2283464566929134
        },
        {
          "duration": 0.0036764666666613266,
          "durationTicks": 1,
          "midi": 36,
          "name": "C2",
          "ticks": 32040,
          "time": 117.793992,
          "velocity": 0.2283464566929134
        },
        {
          "duration": 0.0036764666666613266,
          "durationTicks": 1,
          "midi": 39,
          "name": "D#2",
          "ticks": 32040,
          "time": 117.793992,
          "velocity": 0.7874015748031497
        },
        {
          "duration": 0.0036764666666613266,
          "durationTicks": 1,
          "midi": 36,
          "name": "C2",
          "ticks": 32070,
          "time": 117.904286,
          "velocity": 0.2283464566929134
        },
        {
          "duration": 0.0036764666666613266,
          "durationTicks": 1,
          "midi": 36,
          "name": "C2",
          "ticks": 32100,
          "time": 118.01458000000001,
          "velocity": 0.2283464566929134
        },
        {
          "duration": 0.0036764666666613266,
          "durationTicks": 1,
          "midi": 36,
          "name": "C2",
          "ticks": 32130,
          "time": 118.124874,
          "velocity": 0.2283464566929134
        },
        {
          "duration": 0.0036764666666613266,
          "durationTicks": 1,
          "midi": 36,
          "name": "C2",
          "ticks": 32160,
          "time": 118.235168,
          "velocity": 0.28346456692913385
        },
        {
          "duration": 0.0036764666666613266,
          "durationTicks": 1,
          "midi": 39,
          "name": "D#2",
          "ticks": 32160,
          "time": 118.235168,
          "velocity": 0.7874015748031497
        },
        {
          "duration": 0.0036764666666755375,
          "durationTicks": 1,
          "midi": 36,
          "name": "C2",
          "ticks": 32190,
          "time": 118.345462,
          "velocity": 0.28346456692913385
        },
        {
          "duration": 0.0036764666666613266,
          "durationTicks": 1,
          "midi": 36,
          "name": "C2",
          "ticks": 32220,
          "time": 118.45575600000001,
          "velocity": 0.28346456692913385
        },
        {
          "duration": 0.0036764666666613266,
          "durationTicks": 1,
          "midi": 36,
          "name": "C2",
          "ticks": 32250,
          "time": 118.56605,
          "velocity": 0.28346456692913385
        },
        {
          "duration": 0.0036764666666613266,
          "durationTicks": 1,
          "midi": 36,
          "name": "C2",
          "ticks": 32280,
          "time": 118.676344,
          "velocity": 0.28346456692913385
        },
        {
          "duration": 0.0036764666666613266,
          "durationTicks": 1,
          "midi": 39,
          "name": "D#2",
          "ticks": 32280,
          "time": 118.676344,
          "velocity": 0.7874015748031497
        },
        {
          "duration": 0.0036764666666755375,
          "durationTicks": 1,
          "midi": 36,
          "name": "C2",
          "ticks": 32310,
          "time": 118.786638,
          "velocity": 0.28346456692913385
        },
        {
          "duration": 0.0036764666666613266,
          "durationTicks": 1,
          "midi": 36,
          "name": "C2",
          "ticks": 32340,
          "time": 118.896932,
          "velocity": 0.28346456692913385
        },
        {
          "duration": 0.0036764666666613266,
          "durationTicks": 1,
          "midi": 36,
          "name": "C2",
          "ticks": 32370,
          "time": 119.007226,
          "velocity": 0.28346456692913385
        },
        {
          "duration": 0.0036764666666613266,
          "durationTicks": 1,
          "midi": 36,
          "name": "C2",
          "ticks": 32400,
          "time": 119.11752,
          "velocity": 0.28346456692913385
        },
        {
          "duration": 0.0036764666666613266,
          "durationTicks": 1,
          "midi": 39,
          "name": "D#2",
          "ticks": 32400,
          "time": 119.11752,
          "velocity": 0.7874015748031497
        },
        {
          "duration": 0.0036764666666613266,
          "durationTicks": 1,
          "midi": 36,
          "name": "C2",
          "ticks": 32430,
          "time": 119.22781400000001,
          "velocity": 0.28346456692913385
        },
        {
          "duration": 0.0036764666666613266,
          "durationTicks": 1,
          "midi": 36,
          "name": "C2",
          "ticks": 32460,
          "time": 119.338108,
          "velocity": 0.28346456692913385
        },
        {
          "duration": 0.0036764666666613266,
          "durationTicks": 1,
          "midi": 36,
          "name": "C2",
          "ticks": 32490,
          "time": 119.448402,
          "velocity": 0.28346456692913385
        },
        {
          "duration": 0.0036764666666755375,
          "durationTicks": 1,
          "midi": 36,
          "name": "C2",
          "ticks": 32520,
          "time": 119.558696,
          "velocity": 0.28346456692913385
        },
        {
          "duration": 0.0036764666666755375,
          "durationTicks": 1,
          "midi": 39,
          "name": "D#2",
          "ticks": 32520,
          "time": 119.558696,
          "velocity": 0.7874015748031497
        },
        {
          "duration": 0.0036764666666613266,
          "durationTicks": 1,
          "midi": 36,
          "name": "C2",
          "ticks": 32550,
          "time": 119.66899000000001,
          "velocity": 0.28346456692913385
        },
        {
          "duration": 0.0036764666666613266,
          "durationTicks": 1,
          "midi": 36,
          "name": "C2",
          "ticks": 32580,
          "time": 119.779284,
          "velocity": 0.28346456692913385
        },
        {
          "duration": 0.0036764666666613266,
          "durationTicks": 1,
          "midi": 36,
          "name": "C2",
          "ticks": 32610,
          "time": 119.889578,
          "velocity": 0.28346456692913385
        },
        {
          "duration": 0.0036764666666613266,
          "durationTicks": 1,
          "midi": 36,
          "name": "C2",
          "ticks": 32640,
          "time": 119.99987200000001,
          "velocity": 0.33858267716535434
        },
        {
          "duration": 0.0036764666666613266,
          "durationTicks": 1,
          "midi": 39,
          "name": "D#2",
          "ticks": 32640,
          "time": 119.99987200000001,
          "velocity": 0.7874015748031497
        },
        {
          "duration": 0.0036764666666613266,
          "durationTicks": 1,
          "midi": 36,
          "name": "C2",
          "ticks": 32670,
          "time": 120.110166,
          "velocity": 0.33858267716535434
        },
        {
          "duration": 0.0036764666666613266,
          "durationTicks": 1,
          "midi": 36,
          "name": "C2",
          "ticks": 32700,
          "time": 120.22046,
          "velocity": 0.33858267716535434
        },
        {
          "duration": 0.0036764666666613266,
          "durationTicks": 1,
          "midi": 36,
          "name": "C2",
          "ticks": 32730,
          "time": 120.330754,
          "velocity": 0.33858267716535434
        },
        {
          "duration": 0.0036764666666613266,
          "durationTicks": 1,
          "midi": 36,
          "name": "C2",
          "ticks": 32760,
          "time": 120.44104800000001,
          "velocity": 0.33858267716535434
        },
        {
          "duration": 0.0036764666666613266,
          "durationTicks": 1,
          "midi": 39,
          "name": "D#2",
          "ticks": 32760,
          "time": 120.44104800000001,
          "velocity": 0.7874015748031497
        },
        {
          "duration": 0.0036764666666613266,
          "durationTicks": 1,
          "midi": 36,
          "name": "C2",
          "ticks": 32790,
          "time": 120.551342,
          "velocity": 0.33858267716535434
        },
        {
          "duration": 0.0036764666666613266,
          "durationTicks": 1,
          "midi": 36,
          "name": "C2",
          "ticks": 32820,
          "time": 120.661636,
          "velocity": 0.33858267716535434
        },
        {
          "duration": 0.0036764666666755375,
          "durationTicks": 1,
          "midi": 36,
          "name": "C2",
          "ticks": 32850,
          "time": 120.77193,
          "velocity": 0.33858267716535434
        },
        {
          "duration": 0.0036764666666613266,
          "durationTicks": 1,
          "midi": 36,
          "name": "C2",
          "ticks": 32880,
          "time": 120.88222400000001,
          "velocity": 0.33858267716535434
        },
        {
          "duration": 0.0036764666666613266,
          "durationTicks": 1,
          "midi": 39,
          "name": "D#2",
          "ticks": 32880,
          "time": 120.88222400000001,
          "velocity": 0.7874015748031497
        },
        {
          "duration": 0.0036764666666613266,
          "durationTicks": 1,
          "midi": 36,
          "name": "C2",
          "ticks": 32910,
          "time": 120.992518,
          "velocity": 0.33858267716535434
        },
        {
          "duration": 0.0036764666666613266,
          "durationTicks": 1,
          "midi": 36,
          "name": "C2",
          "ticks": 32940,
          "time": 121.102812,
          "velocity": 0.33858267716535434
        },
        {
          "duration": 0.0036764666666613266,
          "durationTicks": 1,
          "midi": 36,
          "name": "C2",
          "ticks": 32970,
          "time": 121.21310600000001,
          "velocity": 0.33858267716535434
        },
        {
          "duration": 0.0036764666666613266,
          "durationTicks": 1,
          "midi": 36,
          "name": "C2",
          "ticks": 33000,
          "time": 121.3234,
          "velocity": 0.33858267716535434
        },
        {
          "duration": 0.0036764666666613266,
          "durationTicks": 1,
          "midi": 39,
          "name": "D#2",
          "ticks": 33000,
          "time": 121.3234,
          "velocity": 0.7874015748031497
        },
        {
          "duration": 0.0036764666666613266,
          "durationTicks": 1,
          "midi": 36,
          "name": "C2",
          "ticks": 33030,
          "time": 121.433694,
          "velocity": 0.33858267716535434
        },
        {
          "duration": 0.0036764666666613266,
          "durationTicks": 1,
          "midi": 36,
          "name": "C2",
          "ticks": 33060,
          "time": 121.543988,
          "velocity": 0.33858267716535434
        },
        {
          "duration": 0.0036764666666613266,
          "durationTicks": 1,
          "midi": 36,
          "name": "C2",
          "ticks": 33090,
          "time": 121.65428200000001,
          "velocity": 0.33858267716535434
        },
        {
          "duration": 0.0036764666666613266,
          "durationTicks": 1,
          "midi": 36,
          "name": "C2",
          "ticks": 33120,
          "time": 121.764576,
          "velocity": 0.3779527559055118
        },
        {
          "duration": 0.0036764666666613266,
          "durationTicks": 1,
          "midi": 39,
          "name": "D#2",
          "ticks": 33120,
          "time": 121.764576,
          "velocity": 0.7874015748031497
        },
        {
          "duration": 0.0036764666666613266,
          "durationTicks": 1,
          "midi": 36,
          "name": "C2",
          "ticks": 33150,
          "time": 121.87487,
          "velocity": 0.3779527559055118
        },
        {
          "duration": 0.0036764666666755375,
          "durationTicks": 1,
          "midi": 36,
          "name": "C2",
          "ticks": 33180,
          "time": 121.985164,
          "velocity": 0.3779527559055118
        },
        {
          "duration": 0.0036764666666613266,
          "durationTicks": 1,
          "midi": 36,
          "name": "C2",
          "ticks": 33210,
          "time": 122.09545800000001,
          "velocity": 0.3779527559055118
        },
        {
          "duration": 0.0036764666666613266,
          "durationTicks": 1,
          "midi": 36,
          "name": "C2",
          "ticks": 33240,
          "time": 122.205752,
          "velocity": 0.3779527559055118
        },
        {
          "duration": 0.0036764666666613266,
          "durationTicks": 1,
          "midi": 39,
          "name": "D#2",
          "ticks": 33240,
          "time": 122.205752,
          "velocity": 0.7874015748031497
        },
        {
          "duration": 0.0036764666666613266,
          "durationTicks": 1,
          "midi": 36,
          "name": "C2",
          "ticks": 33270,
          "time": 122.316046,
          "velocity": 0.3779527559055118
        },
        {
          "duration": 0.0036764666666613266,
          "durationTicks": 1,
          "midi": 36,
          "name": "C2",
          "ticks": 33300,
          "time": 122.42634000000001,
          "velocity": 0.3779527559055118
        },
        {
          "duration": 0.0036764666666613266,
          "durationTicks": 1,
          "midi": 36,
          "name": "C2",
          "ticks": 33330,
          "time": 122.536634,
          "velocity": 0.3779527559055118
        },
        {
          "duration": 0.0036764666666613266,
          "durationTicks": 1,
          "midi": 36,
          "name": "C2",
          "ticks": 33360,
          "time": 122.646928,
          "velocity": 0.3779527559055118
        },
        {
          "duration": 0.0036764666666613266,
          "durationTicks": 1,
          "midi": 39,
          "name": "D#2",
          "ticks": 33360,
          "time": 122.646928,
          "velocity": 0.7874015748031497
        },
        {
          "duration": 0.0036764666666613266,
          "durationTicks": 1,
          "midi": 36,
          "name": "C2",
          "ticks": 33390,
          "time": 122.757222,
          "velocity": 0.3779527559055118
        },
        {
          "duration": 0.0036764666666613266,
          "durationTicks": 1,
          "midi": 36,
          "name": "C2",
          "ticks": 33420,
          "time": 122.86751600000001,
          "velocity": 0.3779527559055118
        },
        {
          "duration": 0.0036764666666613266,
          "durationTicks": 1,
          "midi": 36,
          "name": "C2",
          "ticks": 33450,
          "time": 122.97781,
          "velocity": 0.3779527559055118
        },
        {
          "duration": 0.0036764666666613266,
          "durationTicks": 1,
          "midi": 36,
          "name": "C2",
          "ticks": 33480,
          "time": 123.088104,
          "velocity": 0.3779527559055118
        },
        {
          "duration": 0.0036764666666613266,
          "durationTicks": 1,
          "midi": 39,
          "name": "D#2",
          "ticks": 33480,
          "time": 123.088104,
          "velocity": 0.7874015748031497
        },
        {
          "duration": 0.0036764666666755375,
          "durationTicks": 1,
          "midi": 36,
          "name": "C2",
          "ticks": 33510,
          "time": 123.198398,
          "velocity": 0.3779527559055118
        },
        {
          "duration": 0.0036764666666613266,
          "durationTicks": 1,
          "midi": 36,
          "name": "C2",
          "ticks": 33540,
          "time": 123.30869200000001,
          "velocity": 0.3779527559055118
        },
        {
          "duration": 0.0036764666666613266,
          "durationTicks": 1,
          "midi": 36,
          "name": "C2",
          "ticks": 33570,
          "time": 123.418986,
          "velocity": 0.3779527559055118
        },
        {
          "duration": 0.0036764666666613266,
          "durationTicks": 1,
          "midi": 36,
          "name": "C2",
          "ticks": 33600,
          "time": 123.52928,
          "velocity": 0.4330708661417323
        },
        {
          "duration": 0.0036764666666613266,
          "durationTicks": 1,
          "midi": 39,
          "name": "D#2",
          "ticks": 33600,
          "time": 123.52928,
          "velocity": 0.7874015748031497
        },
        {
          "duration": 0.0036764666666613266,
          "durationTicks": 1,
          "midi": 36,
          "name": "C2",
          "ticks": 33630,
          "time": 123.63957400000001,
          "velocity": 0.4330708661417323
        },
        {
          "duration": 0.0036764666666613266,
          "durationTicks": 1,
          "midi": 36,
          "name": "C2",
          "ticks": 33660,
          "time": 123.749868,
          "velocity": 0.4330708661417323
        },
        {
          "duration": 0.0036764666666613266,
          "durationTicks": 1,
          "midi": 36,
          "name": "C2",
          "ticks": 33690,
          "time": 123.860162,
          "velocity": 0.4330708661417323
        },
        {
          "duration": 0.0036764666666613266,
          "durationTicks": 1,
          "midi": 36,
          "name": "C2",
          "ticks": 33720,
          "time": 123.970456,
          "velocity": 0.4330708661417323
        },
        {
          "duration": 0.0036764666666613266,
          "durationTicks": 1,
          "midi": 39,
          "name": "D#2",
          "ticks": 33720,
          "time": 123.970456,
          "velocity": 0.7874015748031497
        },
        {
          "duration": 0.0036764666666613266,
          "durationTicks": 1,
          "midi": 36,
          "name": "C2",
          "ticks": 33750,
          "time": 124.08075000000001,
          "velocity": 0.4330708661417323
        },
        {
          "duration": 0.0036764666666613266,
          "durationTicks": 1,
          "midi": 36,
          "name": "C2",
          "ticks": 33780,
          "time": 124.191044,
          "velocity": 0.4330708661417323
        },
        {
          "duration": 0.0036764666666613266,
          "durationTicks": 1,
          "midi": 36,
          "name": "C2",
          "ticks": 33810,
          "time": 124.301338,
          "velocity": 0.4330708661417323
        },
        {
          "duration": 0.0036764666666755375,
          "durationTicks": 1,
          "midi": 36,
          "name": "C2",
          "ticks": 33840,
          "time": 124.411632,
          "velocity": 0.4330708661417323
        },
        {
          "duration": 0.0036764666666755375,
          "durationTicks": 1,
          "midi": 39,
          "name": "D#2",
          "ticks": 33840,
          "time": 124.411632,
          "velocity": 0.7874015748031497
        },
        {
          "duration": 0.0036764666666613266,
          "durationTicks": 1,
          "midi": 36,
          "name": "C2",
          "ticks": 33870,
          "time": 124.52192600000001,
          "velocity": 0.4330708661417323
        },
        {
          "duration": 0.0036764666666613266,
          "durationTicks": 1,
          "midi": 36,
          "name": "C2",
          "ticks": 33900,
          "time": 124.63222,
          "velocity": 0.4330708661417323
        },
        {
          "duration": 0.0036764666666613266,
          "durationTicks": 1,
          "midi": 36,
          "name": "C2",
          "ticks": 33930,
          "time": 124.742514,
          "velocity": 0.4330708661417323
        },
        {
          "duration": 0.0036764666666613266,
          "durationTicks": 1,
          "midi": 36,
          "name": "C2",
          "ticks": 33960,
          "time": 124.85280800000001,
          "velocity": 0.4330708661417323
        },
        {
          "duration": 0.0036764666666613266,
          "durationTicks": 1,
          "midi": 39,
          "name": "D#2",
          "ticks": 33960,
          "time": 124.85280800000001,
          "velocity": 0.7874015748031497
        },
        {
          "duration": 0.0036764666666613266,
          "durationTicks": 1,
          "midi": 36,
          "name": "C2",
          "ticks": 33990,
          "time": 124.963102,
          "velocity": 0.4330708661417323
        },
        {
          "duration": 0.0036764666666613266,
          "durationTicks": 1,
          "midi": 36,
          "name": "C2",
          "ticks": 34020,
          "time": 125.073396,
          "velocity": 0.4330708661417323
        },
        {
          "duration": 0.0036764666666613266,
          "durationTicks": 1,
          "midi": 36,
          "name": "C2",
          "ticks": 34050,
          "time": 125.18369,
          "velocity": 0.4330708661417323
        },
        {
          "duration": 0.0036764666666613266,
          "durationTicks": 1,
          "midi": 36,
          "name": "C2",
          "ticks": 34080,
          "time": 125.29398400000001,
          "velocity": 0.5511811023622047
        },
        {
          "duration": 0.0036764666666613266,
          "durationTicks": 1,
          "midi": 38,
          "name": "D2",
          "ticks": 34080,
          "time": 125.29398400000001,
          "velocity": 0.7874015748031497
        },
        {
          "duration": 0.0036764666666613266,
          "durationTicks": 1,
          "midi": 39,
          "name": "D#2",
          "ticks": 34080,
          "time": 125.29398400000001,
          "velocity": 0.7874015748031497
        },
        {
          "duration": 0.0036764666666613266,
          "durationTicks": 1,
          "midi": 36,
          "name": "C2",
          "ticks": 34110,
          "time": 125.404278,
          "velocity": 0.5511811023622047
        },
        {
          "duration": 0.0036764666666613266,
          "durationTicks": 1,
          "midi": 38,
          "name": "D2",
          "ticks": 34110,
          "time": 125.404278,
          "velocity": 0.5275590551181102
        },
        {
          "duration": 0.0036764666666613266,
          "durationTicks": 1,
          "midi": 36,
          "name": "C2",
          "ticks": 34140,
          "time": 125.514572,
          "velocity": 0.5511811023622047
        },
        {
          "duration": 0.0036764666666613266,
          "durationTicks": 1,
          "midi": 38,
          "name": "D2",
          "ticks": 34140,
          "time": 125.514572,
          "velocity": 0.7874015748031497
        },
        {
          "duration": 0.0036764666666755375,
          "durationTicks": 1,
          "midi": 36,
          "name": "C2",
          "ticks": 34170,
          "time": 125.624866,
          "velocity": 0.5511811023622047
        },
        {
          "duration": 0.0036764666666755375,
          "durationTicks": 1,
          "midi": 38,
          "name": "D2",
          "ticks": 34170,
          "time": 125.624866,
          "velocity": 0.5433070866141733
        },
        {
          "duration": 0.0036764666666613266,
          "durationTicks": 1,
          "midi": 36,
          "name": "C2",
          "ticks": 34200,
          "time": 125.73516000000001,
          "velocity": 0.5511811023622047
        },
        {
          "duration": 0.0036764666666613266,
          "durationTicks": 1,
          "midi": 38,
          "name": "D2",
          "ticks": 34200,
          "time": 125.73516000000001,
          "velocity": 0.7874015748031497
        },
        {
          "duration": 0.0036764666666613266,
          "durationTicks": 1,
          "midi": 39,
          "name": "D#2",
          "ticks": 34200,
          "time": 125.73516000000001,
          "velocity": 0.7874015748031497
        },
        {
          "duration": 0.0036764666666613266,
          "durationTicks": 1,
          "midi": 36,
          "name": "C2",
          "ticks": 34230,
          "time": 125.845454,
          "velocity": 0.5511811023622047
        },
        {
          "duration": 0.0036764666666613266,
          "durationTicks": 1,
          "midi": 38,
          "name": "D2",
          "ticks": 34230,
          "time": 125.845454,
          "velocity": 0.5275590551181102
        },
        {
          "duration": 0.0036764666666613266,
          "durationTicks": 1,
          "midi": 36,
          "name": "C2",
          "ticks": 34260,
          "time": 125.955748,
          "velocity": 0.5511811023622047
        },
        {
          "duration": 0.0036764666666613266,
          "durationTicks": 1,
          "midi": 38,
          "name": "D2",
          "ticks": 34260,
          "time": 125.955748,
          "velocity": 0.7874015748031497
        },
        {
          "duration": 0.0036764666666613266,
          "durationTicks": 1,
          "midi": 36,
          "name": "C2",
          "ticks": 34290,
          "time": 126.06604200000001,
          "velocity": 0.5511811023622047
        },
        {
          "duration": 0.0036764666666613266,
          "durationTicks": 1,
          "midi": 38,
          "name": "D2",
          "ticks": 34290,
          "time": 126.06604200000001,
          "velocity": 0.5433070866141733
        },
        {
          "duration": 0.0036764666666613266,
          "durationTicks": 1,
          "midi": 36,
          "name": "C2",
          "ticks": 34320,
          "time": 126.176336,
          "velocity": 0.5511811023622047
        },
        {
          "duration": 0.0036764666666613266,
          "durationTicks": 1,
          "midi": 38,
          "name": "D2",
          "ticks": 34320,
          "time": 126.176336,
          "velocity": 0.7874015748031497
        },
        {
          "duration": 0.0036764666666613266,
          "durationTicks": 1,
          "midi": 39,
          "name": "D#2",
          "ticks": 34320,
          "time": 126.176336,
          "velocity": 0.7874015748031497
        },
        {
          "duration": 0.0036764666666613266,
          "durationTicks": 1,
          "midi": 36,
          "name": "C2",
          "ticks": 34350,
          "time": 126.28663,
          "velocity": 0.5511811023622047
        },
        {
          "duration": 0.0036764666666613266,
          "durationTicks": 1,
          "midi": 38,
          "name": "D2",
          "ticks": 34350,
          "time": 126.28663,
          "velocity": 0.5275590551181102
        },
        {
          "duration": 0.0036764666666613266,
          "durationTicks": 1,
          "midi": 36,
          "name": "C2",
          "ticks": 34380,
          "time": 126.396924,
          "velocity": 0.5511811023622047
        },
        {
          "duration": 0.0036764666666613266,
          "durationTicks": 1,
          "midi": 38,
          "name": "D2",
          "ticks": 34380,
          "time": 126.396924,
          "velocity": 0.7874015748031497
        },
        {
          "duration": 0.0036764666666613266,
          "durationTicks": 1,
          "midi": 36,
          "name": "C2",
          "ticks": 34410,
          "time": 126.50721800000001,
          "velocity": 0.5511811023622047
        },
        {
          "duration": 0.0036764666666613266,
          "durationTicks": 1,
          "midi": 38,
          "name": "D2",
          "ticks": 34410,
          "time": 126.50721800000001,
          "velocity": 0.5433070866141733
        },
        {
          "duration": 0.0036764666666613266,
          "durationTicks": 1,
          "midi": 36,
          "name": "C2",
          "ticks": 34440,
          "time": 126.617512,
          "velocity": 0.5511811023622047
        },
        {
          "duration": 0.0036764666666613266,
          "durationTicks": 1,
          "midi": 38,
          "name": "D2",
          "ticks": 34440,
          "time": 126.617512,
          "velocity": 0.7874015748031497
        },
        {
          "duration": 0.0036764666666613266,
          "durationTicks": 1,
          "midi": 39,
          "name": "D#2",
          "ticks": 34440,
          "time": 126.617512,
          "velocity": 0.7874015748031497
        },
        {
          "duration": 0.0036764666666613266,
          "durationTicks": 1,
          "midi": 36,
          "name": "C2",
          "ticks": 34470,
          "time": 126.727806,
          "velocity": 0.5511811023622047
        },
        {
          "duration": 0.0036764666666613266,
          "durationTicks": 1,
          "midi": 38,
          "name": "D2",
          "ticks": 34470,
          "time": 126.727806,
          "velocity": 0.5275590551181102
        },
        {
          "duration": 0.0036764666666755375,
          "durationTicks": 1,
          "midi": 36,
          "name": "C2",
          "ticks": 34500,
          "time": 126.8381,
          "velocity": 0.5511811023622047
        },
        {
          "duration": 0.0036764666666755375,
          "durationTicks": 1,
          "midi": 38,
          "name": "D2",
          "ticks": 34500,
          "time": 126.8381,
          "velocity": 0.7874015748031497
        },
        {
          "duration": 0.0036764666666613266,
          "durationTicks": 1,
          "midi": 36,
          "name": "C2",
          "ticks": 34530,
          "time": 126.94839400000001,
          "velocity": 0.5511811023622047
        },
        {
          "duration": 0.0036764666666613266,
          "durationTicks": 1,
          "midi": 38,
          "name": "D2",
          "ticks": 34530,
          "time": 126.94839400000001,
          "velocity": 0.5433070866141733
        },
        {
          "duration": 0.0036764666666613266,
          "durationTicks": 1,
          "midi": 36,
          "name": "C2",
          "ticks": 34560,
          "time": 127.058688,
          "velocity": 0.5511811023622047
        },
        {
          "duration": 0.0036764666666613266,
          "durationTicks": 1,
          "midi": 38,
          "name": "D2",
          "ticks": 34560,
          "time": 127.058688,
          "velocity": 0.7874015748031497
        },
        {
          "duration": 0.0036764666666613266,
          "durationTicks": 1,
          "midi": 39,
          "name": "D#2",
          "ticks": 34560,
          "time": 127.058688,
          "velocity": 0.7874015748031497
        },
        {
          "duration": 0.0036764666666613266,
          "durationTicks": 1,
          "midi": 36,
          "name": "C2",
          "ticks": 34590,
          "time": 127.168982,
          "velocity": 0.5511811023622047
        },
        {
          "duration": 0.0036764666666613266,
          "durationTicks": 1,
          "midi": 38,
          "name": "D2",
          "ticks": 34590,
          "time": 127.168982,
          "velocity": 0.5275590551181102
        },
        {
          "duration": 0.0036764666666613266,
          "durationTicks": 1,
          "midi": 36,
          "name": "C2",
          "ticks": 34620,
          "time": 127.27927600000001,
          "velocity": 0.5511811023622047
        },
        {
          "duration": 0.0036764666666613266,
          "durationTicks": 1,
          "midi": 38,
          "name": "D2",
          "ticks": 34620,
          "time": 127.27927600000001,
          "velocity": 0.7874015748031497
        },
        {
          "duration": 0.0036764666666613266,
          "durationTicks": 1,
          "midi": 36,
          "name": "C2",
          "ticks": 34650,
          "time": 127.38957,
          "velocity": 0.5511811023622047
        },
        {
          "duration": 0.0036764666666613266,
          "durationTicks": 1,
          "midi": 38,
          "name": "D2",
          "ticks": 34650,
          "time": 127.38957,
          "velocity": 0.5433070866141733
        },
        {
          "duration": 0.0036764666666613266,
          "durationTicks": 1,
          "midi": 36,
          "name": "C2",
          "ticks": 34680,
          "time": 127.499864,
          "velocity": 0.5511811023622047
        },
        {
          "duration": 0.0036764666666613266,
          "durationTicks": 1,
          "midi": 38,
          "name": "D2",
          "ticks": 34680,
          "time": 127.499864,
          "velocity": 0.7874015748031497
        },
        {
          "duration": 0.0036764666666613266,
          "durationTicks": 1,
          "midi": 39,
          "name": "D#2",
          "ticks": 34680,
          "time": 127.499864,
          "velocity": 0.7874015748031497
        },
        {
          "duration": 0.0036764666666613266,
          "durationTicks": 1,
          "midi": 38,
          "name": "D2",
          "ticks": 34695,
          "time": 127.55501100000001,
          "velocity": 0.7874015748031497
        },
        {
          "duration": 0.0036764666666755375,
          "durationTicks": 1,
          "midi": 36,
          "name": "C2",
          "ticks": 34710,
          "time": 127.610158,
          "velocity": 0.5511811023622047
        },
        {
          "duration": 0.0036764666666755375,
          "durationTicks": 1,
          "midi": 38,
          "name": "D2",
          "ticks": 34710,
          "time": 127.610158,
          "velocity": 0.7874015748031497
        },
        {
          "duration": 0.0036764666666613266,
          "durationTicks": 1,
          "midi": 38,
          "name": "D2",
          "ticks": 34725,
          "time": 127.665305,
          "velocity": 0.7874015748031497
        },
        {
          "duration": 0.0036764666666613266,
          "durationTicks": 1,
          "midi": 36,
          "name": "C2",
          "ticks": 34740,
          "time": 127.72045200000001,
          "velocity": 0.5511811023622047
        },
        {
          "duration": 0.0036764666666613266,
          "durationTicks": 1,
          "midi": 38,
          "name": "D2",
          "ticks": 34740,
          "time": 127.72045200000001,
          "velocity": 0.7874015748031497
        },
        {
          "duration": 0.0036764666666613266,
          "durationTicks": 1,
          "midi": 38,
          "name": "D2",
          "ticks": 34755,
          "time": 127.775599,
          "velocity": 0.7874015748031497
        },
        {
          "duration": 0.0036764666666613266,
          "durationTicks": 1,
          "midi": 36,
          "name": "C2",
          "ticks": 34770,
          "time": 127.830746,
          "velocity": 0.5590551181102362
        },
        {
          "duration": 0.0036764666666613266,
          "durationTicks": 1,
          "midi": 38,
          "name": "D2",
          "ticks": 34770,
          "time": 127.830746,
          "velocity": 0.7874015748031497
        },
        {
          "duration": 0.0036764666666613266,
          "durationTicks": 1,
          "midi": 38,
          "name": "D2",
          "ticks": 34785,
          "time": 127.88589300000001,
          "velocity": 0.7874015748031497
        },
        {
          "duration": 0.0036764666666613266,
          "durationTicks": 1,
          "midi": 57,
          "name": "A3",
          "ticks": 35039,
          "time": 128.81971553333335,
          "velocity": 0.7874015748031497
        },
        {
          "duration": 0.0036764666666613266,
          "durationTicks": 1,
          "midi": 36,
          "name": "C2",
          "ticks": 35040,
          "time": 128.823392,
          "velocity": 0.7874015748031497
        },
        {
          "duration": 0.0036764666666613266,
          "durationTicks": 1,
          "midi": 42,
          "name": "F#2",
          "ticks": 35100,
          "time": 129.04398,
          "velocity": 0.7874015748031497
        },
        {
          "duration": 0.0036764666666613266,
          "durationTicks": 1,
          "midi": 36,
          "name": "C2",
          "ticks": 35160,
          "time": 129.264568,
          "velocity": 0.7874015748031497
        },
        {
          "duration": 0.0036764666666613266,
          "durationTicks": 1,
          "midi": 38,
          "name": "D2",
          "ticks": 35160,
          "time": 129.264568,
          "velocity": 0.7874015748031497
        },
        {
          "duration": 0.0036764666666613266,
          "durationTicks": 1,
          "midi": 39,
          "name": "D#2",
          "ticks": 35160,
          "time": 129.264568,
          "velocity": 0.7874015748031497
        },
        {
          "duration": 0.0036764666666613266,
          "durationTicks": 1,
          "midi": 42,
          "name": "F#2",
          "ticks": 35160,
          "time": 129.264568,
          "velocity": 0.7874015748031497
        },
        {
          "duration": 0.0036764666666613266,
          "durationTicks": 1,
          "midi": 42,
          "name": "F#2",
          "ticks": 35220,
          "time": 129.48515600000002,
          "velocity": 0.7874015748031497
        },
        {
          "duration": 0.0036764666666613266,
          "durationTicks": 1,
          "midi": 36,
          "name": "C2",
          "ticks": 35280,
          "time": 129.705744,
          "velocity": 0.7874015748031497
        },
        {
          "duration": 0.0036764666666613266,
          "durationTicks": 1,
          "midi": 42,
          "name": "F#2",
          "ticks": 35280,
          "time": 129.705744,
          "velocity": 0.7874015748031497
        },
        {
          "duration": 0.0036764666666613266,
          "durationTicks": 1,
          "midi": 42,
          "name": "F#2",
          "ticks": 35340,
          "time": 129.926332,
          "velocity": 0.7874015748031497
        },
        {
          "duration": 0.0036764666666613266,
          "durationTicks": 1,
          "midi": 36,
          "name": "C2",
          "ticks": 35400,
          "time": 130.14692,
          "velocity": 0.7874015748031497
        },
        {
          "duration": 0.0036764666666613266,
          "durationTicks": 1,
          "midi": 38,
          "name": "D2",
          "ticks": 35400,
          "time": 130.14692,
          "velocity": 0.7874015748031497
        },
        {
          "duration": 0.0036764666666613266,
          "durationTicks": 1,
          "midi": 39,
          "name": "D#2",
          "ticks": 35400,
          "time": 130.14692,
          "velocity": 0.7874015748031497
        },
        {
          "duration": 0.0036764666666613266,
          "durationTicks": 1,
          "midi": 42,
          "name": "F#2",
          "ticks": 35400,
          "time": 130.14692,
          "velocity": 0.7874015748031497
        },
        {
          "duration": 0.0036764666666613266,
          "durationTicks": 1,
          "midi": 42,
          "name": "F#2",
          "ticks": 35460,
          "time": 130.36750800000002,
          "velocity": 0.7874015748031497
        },
        {
          "duration": 0.0036764666666613266,
          "durationTicks": 1,
          "midi": 36,
          "name": "C2",
          "ticks": 35520,
          "time": 130.588096,
          "velocity": 0.7874015748031497
        },
        {
          "duration": 0.0036764666666613266,
          "durationTicks": 1,
          "midi": 42,
          "name": "F#2",
          "ticks": 35520,
          "time": 130.588096,
          "velocity": 0.7874015748031497
        },
        {
          "duration": 0.0036764666666613266,
          "durationTicks": 1,
          "midi": 42,
          "name": "F#2",
          "ticks": 35580,
          "time": 130.808684,
          "velocity": 0.7874015748031497
        },
        {
          "duration": 0.0036764666666613266,
          "durationTicks": 1,
          "midi": 36,
          "name": "C2",
          "ticks": 35640,
          "time": 131.029272,
          "velocity": 0.7874015748031497
        },
        {
          "duration": 0.0036764666666613266,
          "durationTicks": 1,
          "midi": 38,
          "name": "D2",
          "ticks": 35640,
          "time": 131.029272,
          "velocity": 0.7874015748031497
        },
        {
          "duration": 0.0036764666666613266,
          "durationTicks": 1,
          "midi": 39,
          "name": "D#2",
          "ticks": 35640,
          "time": 131.029272,
          "velocity": 0.7874015748031497
        },
        {
          "duration": 0.0036764666666613266,
          "durationTicks": 1,
          "midi": 42,
          "name": "F#2",
          "ticks": 35640,
          "time": 131.029272,
          "velocity": 0.7874015748031497
        },
        {
          "duration": 0.0036764666666613266,
          "durationTicks": 1,
          "midi": 42,
          "name": "F#2",
          "ticks": 35700,
          "time": 131.24986,
          "velocity": 0.7874015748031497
        },
        {
          "duration": 0.0036764666666613266,
          "durationTicks": 1,
          "midi": 36,
          "name": "C2",
          "ticks": 35760,
          "time": 131.470448,
          "velocity": 0.7874015748031497
        },
        {
          "duration": 0.0036764666666613266,
          "durationTicks": 1,
          "midi": 42,
          "name": "F#2",
          "ticks": 35760,
          "time": 131.470448,
          "velocity": 0.7874015748031497
        },
        {
          "duration": 0.0036764666666613266,
          "durationTicks": 1,
          "midi": 42,
          "name": "F#2",
          "ticks": 35820,
          "time": 131.691036,
          "velocity": 0.7874015748031497
        },
        {
          "duration": 0.0036764666666613266,
          "durationTicks": 1,
          "midi": 36,
          "name": "C2",
          "ticks": 35880,
          "time": 131.91162400000002,
          "velocity": 0.7874015748031497
        },
        {
          "duration": 0.0036764666666613266,
          "durationTicks": 1,
          "midi": 38,
          "name": "D2",
          "ticks": 35880,
          "time": 131.91162400000002,
          "velocity": 0.7874015748031497
        },
        {
          "duration": 0.0036764666666613266,
          "durationTicks": 1,
          "midi": 39,
          "name": "D#2",
          "ticks": 35880,
          "time": 131.91162400000002,
          "velocity": 0.7874015748031497
        },
        {
          "duration": 0.0036764666666613266,
          "durationTicks": 1,
          "midi": 42,
          "name": "F#2",
          "ticks": 35880,
          "time": 131.91162400000002,
          "velocity": 0.7874015748031497
        },
        {
          "duration": 0.0036764666666613266,
          "durationTicks": 1,
          "midi": 42,
          "name": "F#2",
          "ticks": 35940,
          "time": 132.132212,
          "velocity": 0.7874015748031497
        },
        {
          "duration": 0.0036764666666613266,
          "durationTicks": 1,
          "midi": 36,
          "name": "C2",
          "ticks": 36000,
          "time": 132.3528,
          "velocity": 0.7874015748031497
        },
        {
          "duration": 0.0036764666666613266,
          "durationTicks": 1,
          "midi": 42,
          "name": "F#2",
          "ticks": 36000,
          "time": 132.3528,
          "velocity": 0.7874015748031497
        },
        {
          "duration": 0.0036764666666613266,
          "durationTicks": 1,
          "midi": 42,
          "name": "F#2",
          "ticks": 36060,
          "time": 132.573388,
          "velocity": 0.7874015748031497
        },
        {
          "duration": 0.0036764666666613266,
          "durationTicks": 1,
          "midi": 36,
          "name": "C2",
          "ticks": 36120,
          "time": 132.79397600000001,
          "velocity": 0.7874015748031497
        },
        {
          "duration": 0.0036764666666613266,
          "durationTicks": 1,
          "midi": 38,
          "name": "D2",
          "ticks": 36120,
          "time": 132.79397600000001,
          "velocity": 0.7874015748031497
        },
        {
          "duration": 0.0036764666666613266,
          "durationTicks": 1,
          "midi": 39,
          "name": "D#2",
          "ticks": 36120,
          "time": 132.79397600000001,
          "velocity": 0.7874015748031497
        },
        {
          "duration": 0.0036764666666613266,
          "durationTicks": 1,
          "midi": 42,
          "name": "F#2",
          "ticks": 36120,
          "time": 132.79397600000001,
          "velocity": 0.7874015748031497
        },
        {
          "duration": 0.0036764666666613266,
          "durationTicks": 1,
          "midi": 42,
          "name": "F#2",
          "ticks": 36180,
          "time": 133.014564,
          "velocity": 0.7874015748031497
        },
        {
          "duration": 0.0036764666666613266,
          "durationTicks": 1,
          "midi": 36,
          "name": "C2",
          "ticks": 36240,
          "time": 133.235152,
          "velocity": 0.7874015748031497
        },
        {
          "duration": 0.0036764666666613266,
          "durationTicks": 1,
          "midi": 42,
          "name": "F#2",
          "ticks": 36240,
          "time": 133.235152,
          "velocity": 0.7874015748031497
        },
        {
          "duration": 0.0036764666666613266,
          "durationTicks": 1,
          "midi": 42,
          "name": "F#2",
          "ticks": 36300,
          "time": 133.45574,
          "velocity": 0.7874015748031497
        },
        {
          "duration": 0.0036764666666613266,
          "durationTicks": 1,
          "midi": 36,
          "name": "C2",
          "ticks": 36360,
          "time": 133.676328,
          "velocity": 0.7874015748031497
        },
        {
          "duration": 0.0036764666666613266,
          "durationTicks": 1,
          "midi": 38,
          "name": "D2",
          "ticks": 36360,
          "time": 133.676328,
          "velocity": 0.7874015748031497
        },
        {
          "duration": 0.0036764666666613266,
          "durationTicks": 1,
          "midi": 39,
          "name": "D#2",
          "ticks": 36360,
          "time": 133.676328,
          "velocity": 0.7874015748031497
        },
        {
          "duration": 0.0036764666666613266,
          "durationTicks": 1,
          "midi": 42,
          "name": "F#2",
          "ticks": 36360,
          "time": 133.676328,
          "velocity": 0.7874015748031497
        },
        {
          "duration": 0.0036764666666613266,
          "durationTicks": 1,
          "midi": 42,
          "name": "F#2",
          "ticks": 36420,
          "time": 133.896916,
          "velocity": 0.7874015748031497
        },
        {
          "duration": 0.0036764666666613266,
          "durationTicks": 1,
          "midi": 36,
          "name": "C2",
          "ticks": 36480,
          "time": 134.117504,
          "velocity": 0.7874015748031497
        },
        {
          "duration": 0.0036764666666613266,
          "durationTicks": 1,
          "midi": 42,
          "name": "F#2",
          "ticks": 36480,
          "time": 134.117504,
          "velocity": 0.7874015748031497
        },
        {
          "duration": 0.0036764666666613266,
          "durationTicks": 1,
          "midi": 42,
          "name": "F#2",
          "ticks": 36540,
          "time": 134.33809200000002,
          "velocity": 0.7874015748031497
        },
        {
          "duration": 0.0036764666666613266,
          "durationTicks": 1,
          "midi": 36,
          "name": "C2",
          "ticks": 36600,
          "time": 134.55868,
          "velocity": 0.7874015748031497
        },
        {
          "duration": 0.0036764666666613266,
          "durationTicks": 1,
          "midi": 38,
          "name": "D2",
          "ticks": 36600,
          "time": 134.55868,
          "velocity": 0.7874015748031497
        },
        {
          "duration": 0.0036764666666613266,
          "durationTicks": 1,
          "midi": 39,
          "name": "D#2",
          "ticks": 36600,
          "time": 134.55868,
          "velocity": 0.7874015748031497
        },
        {
          "duration": 0.0036764666666613266,
          "durationTicks": 1,
          "midi": 42,
          "name": "F#2",
          "ticks": 36600,
          "time": 134.55868,
          "velocity": 0.7874015748031497
        },
        {
          "duration": 0.0036764666666613266,
          "durationTicks": 1,
          "midi": 42,
          "name": "F#2",
          "ticks": 36660,
          "time": 134.779268,
          "velocity": 0.7874015748031497
        },
        {
          "duration": 0.0036764666666613266,
          "durationTicks": 1,
          "midi": 36,
          "name": "C2",
          "ticks": 36720,
          "time": 134.999856,
          "velocity": 0.7874015748031497
        },
        {
          "duration": 0.0036764666666613266,
          "durationTicks": 1,
          "midi": 42,
          "name": "F#2",
          "ticks": 36720,
          "time": 134.999856,
          "velocity": 0.7874015748031497
        },
        {
          "duration": 0.0036764666666613266,
          "durationTicks": 1,
          "midi": 42,
          "name": "F#2",
          "ticks": 36780,
          "time": 135.22044400000001,
          "velocity": 0.7874015748031497
        },
        {
          "duration": 0.0036764666666613266,
          "durationTicks": 1,
          "midi": 36,
          "name": "C2",
          "ticks": 36840,
          "time": 135.441032,
          "velocity": 0.7874015748031497
        },
        {
          "duration": 0.0036764666666613266,
          "durationTicks": 1,
          "midi": 38,
          "name": "D2",
          "ticks": 36840,
          "time": 135.441032,
          "velocity": 0.7874015748031497
        },
        {
          "duration": 0.0036764666666613266,
          "durationTicks": 1,
          "midi": 39,
          "name": "D#2",
          "ticks": 36840,
          "time": 135.441032,
          "velocity": 0.7874015748031497
        },
        {
          "duration": 0.0036764666666613266,
          "durationTicks": 1,
          "midi": 42,
          "name": "F#2",
          "ticks": 36840,
          "time": 135.441032,
          "velocity": 0.7874015748031497
        },
        {
          "duration": 0.0036764666666613266,
          "durationTicks": 1,
          "midi": 42,
          "name": "F#2",
          "ticks": 36900,
          "time": 135.66162,
          "velocity": 0.7874015748031497
        },
        {
          "duration": 0.0036764666666613266,
          "durationTicks": 1,
          "midi": 46,
          "name": "A#2",
          "ticks": 36930,
          "time": 135.771914,
          "velocity": 0.7874015748031497
        },
        {
          "duration": 0.0036764666666897483,
          "durationTicks": 1,
          "midi": 36,
          "name": "C2",
          "ticks": 36960,
          "time": 135.882208,
          "velocity": 0.7874015748031497
        },
        {
          "duration": 0.0036764666666897483,
          "durationTicks": 1,
          "midi": 42,
          "name": "F#2",
          "ticks": 36960,
          "time": 135.882208,
          "velocity": 0.7874015748031497
        },
        {
          "duration": 0.0036764666666613266,
          "durationTicks": 1,
          "midi": 42,
          "name": "F#2",
          "ticks": 37020,
          "time": 136.102796,
          "velocity": 0.7874015748031497
        },
        {
          "duration": 0.0036764666666613266,
          "durationTicks": 1,
          "midi": 36,
          "name": "C2",
          "ticks": 37080,
          "time": 136.323384,
          "velocity": 0.7874015748031497
        },
        {
          "duration": 0.0036764666666613266,
          "durationTicks": 1,
          "midi": 38,
          "name": "D2",
          "ticks": 37080,
          "time": 136.323384,
          "velocity": 0.7874015748031497
        },
        {
          "duration": 0.0036764666666613266,
          "durationTicks": 1,
          "midi": 39,
          "name": "D#2",
          "ticks": 37080,
          "time": 136.323384,
          "velocity": 0.7874015748031497
        },
        {
          "duration": 0.0036764666666613266,
          "durationTicks": 1,
          "midi": 42,
          "name": "F#2",
          "ticks": 37080,
          "time": 136.323384,
          "velocity": 0.7874015748031497
        },
        {
          "duration": 0.0036764666666613266,
          "durationTicks": 1,
          "midi": 42,
          "name": "F#2",
          "ticks": 37140,
          "time": 136.543972,
          "velocity": 0.7874015748031497
        },
        {
          "duration": 0.0036764666666613266,
          "durationTicks": 1,
          "midi": 36,
          "name": "C2",
          "ticks": 37200,
          "time": 136.76456000000002,
          "velocity": 0.7874015748031497
        },
        {
          "duration": 0.0036764666666613266,
          "durationTicks": 1,
          "midi": 42,
          "name": "F#2",
          "ticks": 37200,
          "time": 136.76456000000002,
          "velocity": 0.7874015748031497
        },
        {
          "duration": 0.0036764666666613266,
          "durationTicks": 1,
          "midi": 42,
          "name": "F#2",
          "ticks": 37260,
          "time": 136.985148,
          "velocity": 0.7874015748031497
        },
        {
          "duration": 0.0036764666666613266,
          "durationTicks": 1,
          "midi": 36,
          "name": "C2",
          "ticks": 37320,
          "time": 137.205736,
          "velocity": 0.7874015748031497
        },
        {
          "duration": 0.0036764666666613266,
          "durationTicks": 1,
          "midi": 38,
          "name": "D2",
          "ticks": 37320,
          "time": 137.205736,
          "velocity": 0.7874015748031497
        },
        {
          "duration": 0.0036764666666613266,
          "durationTicks": 1,
          "midi": 39,
          "name": "D#2",
          "ticks": 37320,
          "time": 137.205736,
          "velocity": 0.7874015748031497
        },
        {
          "duration": 0.0036764666666613266,
          "durationTicks": 1,
          "midi": 42,
          "name": "F#2",
          "ticks": 37320,
          "time": 137.205736,
          "velocity": 0.7874015748031497
        },
        {
          "duration": 0.0036764666666613266,
          "durationTicks": 1,
          "midi": 42,
          "name": "F#2",
          "ticks": 37380,
          "time": 137.426324,
          "velocity": 0.7874015748031497
        },
        {
          "duration": 0.0036764666666613266,
          "durationTicks": 1,
          "midi": 36,
          "name": "C2",
          "ticks": 37440,
          "time": 137.64691200000001,
          "velocity": 0.7874015748031497
        },
        {
          "duration": 0.0036764666666613266,
          "durationTicks": 1,
          "midi": 42,
          "name": "F#2",
          "ticks": 37440,
          "time": 137.64691200000001,
          "velocity": 0.7874015748031497
        },
        {
          "duration": 0.0036764666666613266,
          "durationTicks": 1,
          "midi": 42,
          "name": "F#2",
          "ticks": 37500,
          "time": 137.8675,
          "velocity": 0.7874015748031497
        },
        {
          "duration": 0.0036764666666613266,
          "durationTicks": 1,
          "midi": 36,
          "name": "C2",
          "ticks": 37560,
          "time": 138.088088,
          "velocity": 0.7874015748031497
        },
        {
          "duration": 0.0036764666666613266,
          "durationTicks": 1,
          "midi": 38,
          "name": "D2",
          "ticks": 37560,
          "time": 138.088088,
          "velocity": 0.7874015748031497
        },
        {
          "duration": 0.0036764666666613266,
          "durationTicks": 1,
          "midi": 39,
          "name": "D#2",
          "ticks": 37560,
          "time": 138.088088,
          "velocity": 0.7874015748031497
        },
        {
          "duration": 0.0036764666666613266,
          "durationTicks": 1,
          "midi": 42,
          "name": "F#2",
          "ticks": 37560,
          "time": 138.088088,
          "velocity": 0.7874015748031497
        },
        {
          "duration": 0.0036764666666897483,
          "durationTicks": 1,
          "midi": 42,
          "name": "F#2",
          "ticks": 37620,
          "time": 138.308676,
          "velocity": 0.7874015748031497
        },
        {
          "duration": 0.0036764666666613266,
          "durationTicks": 1,
          "midi": 36,
          "name": "C2",
          "ticks": 37680,
          "time": 138.529264,
          "velocity": 0.7874015748031497
        },
        {
          "duration": 0.0036764666666613266,
          "durationTicks": 1,
          "midi": 42,
          "name": "F#2",
          "ticks": 37680,
          "time": 138.529264,
          "velocity": 0.7874015748031497
        },
        {
          "duration": 0.0036764666666613266,
          "durationTicks": 1,
          "midi": 42,
          "name": "F#2",
          "ticks": 37740,
          "time": 138.749852,
          "velocity": 0.7874015748031497
        },
        {
          "duration": 0.0036764666666613266,
          "durationTicks": 1,
          "midi": 36,
          "name": "C2",
          "ticks": 37800,
          "time": 138.97044,
          "velocity": 0.7874015748031497
        },
        {
          "duration": 0.0036764666666613266,
          "durationTicks": 1,
          "midi": 38,
          "name": "D2",
          "ticks": 37800,
          "time": 138.97044,
          "velocity": 0.7874015748031497
        },
        {
          "duration": 0.0036764666666613266,
          "durationTicks": 1,
          "midi": 39,
          "name": "D#2",
          "ticks": 37800,
          "time": 138.97044,
          "velocity": 0.7874015748031497
        },
        {
          "duration": 0.0036764666666613266,
          "durationTicks": 1,
          "midi": 42,
          "name": "F#2",
          "ticks": 37800,
          "time": 138.97044,
          "velocity": 0.7874015748031497
        },
        {
          "duration": 0.0036764666666613266,
          "durationTicks": 1,
          "midi": 42,
          "name": "F#2",
          "ticks": 37860,
          "time": 139.19102800000002,
          "velocity": 0.7874015748031497
        },
        {
          "duration": 0.0036764666666613266,
          "durationTicks": 1,
          "midi": 36,
          "name": "C2",
          "ticks": 37920,
          "time": 139.411616,
          "velocity": 0.7874015748031497
        },
        {
          "duration": 0.0036764666666613266,
          "durationTicks": 1,
          "midi": 42,
          "name": "F#2",
          "ticks": 37920,
          "time": 139.411616,
          "velocity": 0.7874015748031497
        },
        {
          "duration": 0.0036764666666613266,
          "durationTicks": 1,
          "midi": 42,
          "name": "F#2",
          "ticks": 37980,
          "time": 139.632204,
          "velocity": 0.7874015748031497
        },
        {
          "duration": 0.0036764666666613266,
          "durationTicks": 1,
          "midi": 36,
          "name": "C2",
          "ticks": 38040,
          "time": 139.852792,
          "velocity": 0.7874015748031497
        },
        {
          "duration": 0.0036764666666613266,
          "durationTicks": 1,
          "midi": 38,
          "name": "D2",
          "ticks": 38040,
          "time": 139.852792,
          "velocity": 0.7874015748031497
        },
        {
          "duration": 0.0036764666666613266,
          "durationTicks": 1,
          "midi": 39,
          "name": "D#2",
          "ticks": 38040,
          "time": 139.852792,
          "velocity": 0.7874015748031497
        },
        {
          "duration": 0.0036764666666613266,
          "durationTicks": 1,
          "midi": 42,
          "name": "F#2",
          "ticks": 38040,
          "time": 139.852792,
          "velocity": 0.7874015748031497
        },
        {
          "duration": 0.0036764666666613266,
          "durationTicks": 1,
          "midi": 42,
          "name": "F#2",
          "ticks": 38100,
          "time": 140.07338000000001,
          "velocity": 0.7874015748031497
        },
        {
          "duration": 0.0036764666666613266,
          "durationTicks": 1,
          "midi": 36,
          "name": "C2",
          "ticks": 38160,
          "time": 140.293968,
          "velocity": 0.7874015748031497
        },
        {
          "duration": 0.0036764666666613266,
          "durationTicks": 1,
          "midi": 42,
          "name": "F#2",
          "ticks": 38160,
          "time": 140.293968,
          "velocity": 0.7874015748031497
        },
        {
          "duration": 0.0036764666666613266,
          "durationTicks": 1,
          "midi": 42,
          "name": "F#2",
          "ticks": 38220,
          "time": 140.514556,
          "velocity": 0.7874015748031497
        },
        {
          "duration": 0.0036764666666897483,
          "durationTicks": 1,
          "midi": 36,
          "name": "C2",
          "ticks": 38280,
          "time": 140.735144,
          "velocity": 0.7874015748031497
        },
        {
          "duration": 0.0036764666666897483,
          "durationTicks": 1,
          "midi": 38,
          "name": "D2",
          "ticks": 38280,
          "time": 140.735144,
          "velocity": 0.7874015748031497
        },
        {
          "duration": 0.0036764666666897483,
          "durationTicks": 1,
          "midi": 39,
          "name": "D#2",
          "ticks": 38280,
          "time": 140.735144,
          "velocity": 0.7874015748031497
        },
        {
          "duration": 0.0036764666666897483,
          "durationTicks": 1,
          "midi": 42,
          "name": "F#2",
          "ticks": 38280,
          "time": 140.735144,
          "velocity": 0.7874015748031497
        },
        {
          "duration": 0.0036764666666613266,
          "durationTicks": 1,
          "midi": 42,
          "name": "F#2",
          "ticks": 38340,
          "time": 140.955732,
          "velocity": 0.7874015748031497
        },
        {
          "duration": 0.0036764666666613266,
          "durationTicks": 1,
          "midi": 30,
          "name": "F#1",
          "ticks": 38520,
          "time": 141.61749600000002,
          "velocity": 0.7874015748031497
        },
        {
          "duration": 0.0036764666666613266,
          "durationTicks": 1,
          "midi": 29,
          "name": "F1",
          "ticks": 38550,
          "time": 141.72779,
          "velocity": 0.7874015748031497
        },
        {
          "duration": 0.0036764666666613266,
          "durationTicks": 1,
          "midi": 30,
          "name": "F#1",
          "ticks": 38580,
          "time": 141.838084,
          "velocity": 0.7874015748031497
        },
        {
          "duration": 0.0036764666666897483,
          "durationTicks": 1,
          "midi": 29,
          "name": "F1",
          "ticks": 38610,
          "time": 141.948378,
          "velocity": 0.7874015748031497
        },
        {
          "duration": 0.0036764666666613266,
          "durationTicks": 1,
          "midi": 28,
          "name": "E1",
          "ticks": 38640,
          "time": 142.058672,
          "velocity": 0.7874015748031497
        },
        {
          "duration": 0.0036764666666613266,
          "durationTicks": 1,
          "midi": 36,
          "name": "C2",
          "ticks": 38880,
          "time": 142.941024,
          "velocity": 0.7874015748031497
        },
        {
          "duration": 0.0036764666666613266,
          "durationTicks": 1,
          "midi": 38,
          "name": "D2",
          "ticks": 39000,
          "time": 143.3822,
          "velocity": 0.7874015748031497
        },
        {
          "duration": 0.0036764666666613266,
          "durationTicks": 1,
          "midi": 39,
          "name": "D#2",
          "ticks": 39000,
          "time": 143.3822,
          "velocity": 0.7874015748031497
        },
        {
          "duration": 0.0036764666666613266,
          "durationTicks": 1,
          "midi": 36,
          "name": "C2",
          "ticks": 39060,
          "time": 143.602788,
          "velocity": 0.7874015748031497
        },
        {
          "duration": 0.0036764666666613266,
          "durationTicks": 1,
          "midi": 38,
          "name": "D2",
          "ticks": 39240,
          "time": 144.264552,
          "velocity": 0.7874015748031497
        },
        {
          "duration": 0.0036764666666613266,
          "durationTicks": 1,
          "midi": 39,
          "name": "D#2",
          "ticks": 39240,
          "time": 144.264552,
          "velocity": 0.7874015748031497
        },
        {
          "duration": 0.0036764666666613266,
          "durationTicks": 1,
          "midi": 36,
          "name": "C2",
          "ticks": 39360,
          "time": 144.705728,
          "velocity": 0.7874015748031497
        },
        {
          "duration": 0.0036764666666613266,
          "durationTicks": 1,
          "midi": 36,
          "name": "C2",
          "ticks": 39450,
          "time": 145.03661,
          "velocity": 0.7874015748031497
        },
        {
          "duration": 0.0036764666666613266,
          "durationTicks": 1,
          "midi": 38,
          "name": "D2",
          "ticks": 39480,
          "time": 145.146904,
          "velocity": 0.7874015748031497
        },
        {
          "duration": 0.0036764666666613266,
          "durationTicks": 1,
          "midi": 39,
          "name": "D#2",
          "ticks": 39480,
          "time": 145.146904,
          "velocity": 0.7874015748031497
        },
        {
          "duration": 0.0036764666666613266,
          "durationTicks": 1,
          "midi": 36,
          "name": "C2",
          "ticks": 39540,
          "time": 145.367492,
          "velocity": 0.7874015748031497
        },
        {
          "duration": 0.0036764666666613266,
          "durationTicks": 1,
          "midi": 36,
          "name": "C2",
          "ticks": 39660,
          "time": 145.808668,
          "velocity": 0.7874015748031497
        },
        {
          "duration": 0.0036764666666613266,
          "durationTicks": 1,
          "midi": 36,
          "name": "C2",
          "ticks": 39840,
          "time": 146.47043200000002,
          "velocity": 0.7874015748031497
        },
        {
          "duration": 0.0036764666666613266,
          "durationTicks": 1,
          "midi": 38,
          "name": "D2",
          "ticks": 39960,
          "time": 146.911608,
          "velocity": 0.7874015748031497
        },
        {
          "duration": 0.0036764666666613266,
          "durationTicks": 1,
          "midi": 39,
          "name": "D#2",
          "ticks": 39960,
          "time": 146.911608,
          "velocity": 0.7874015748031497
        },
        {
          "duration": 0.0036764666666613266,
          "durationTicks": 1,
          "midi": 36,
          "name": "C2",
          "ticks": 40020,
          "time": 147.132196,
          "velocity": 0.7874015748031497
        },
        {
          "duration": 0.0036764666666613266,
          "durationTicks": 1,
          "midi": 38,
          "name": "D2",
          "ticks": 40200,
          "time": 147.79396,
          "velocity": 0.7874015748031497
        },
        {
          "duration": 0.0036764666666613266,
          "durationTicks": 1,
          "midi": 39,
          "name": "D#2",
          "ticks": 40200,
          "time": 147.79396,
          "velocity": 0.7874015748031497
        },
        {
          "duration": 0.0036764666666897483,
          "durationTicks": 1,
          "midi": 36,
          "name": "C2",
          "ticks": 40260,
          "time": 148.014548,
          "velocity": 0.7086614173228346
        },
        {
          "duration": 0.0036764666666613266,
          "durationTicks": 1,
          "midi": 36,
          "name": "C2",
          "ticks": 40290,
          "time": 148.124842,
          "velocity": 0.7322834645669292
        },
        {
          "duration": 0.0036764666666613266,
          "durationTicks": 1,
          "midi": 36,
          "name": "C2",
          "ticks": 40320,
          "time": 148.235136,
          "velocity": 0.7874015748031497
        },
        {
          "duration": 0.0036764666666613266,
          "durationTicks": 1,
          "midi": 36,
          "name": "C2",
          "ticks": 40410,
          "time": 148.566018,
          "velocity": 0.7874015748031497
        },
        {
          "duration": 0.0036764666666613266,
          "durationTicks": 1,
          "midi": 38,
          "name": "D2",
          "ticks": 40440,
          "time": 148.676312,
          "velocity": 0.7874015748031497
        },
        {
          "duration": 0.0036764666666613266,
          "durationTicks": 1,
          "midi": 39,
          "name": "D#2",
          "ticks": 40440,
          "time": 148.676312,
          "velocity": 0.7874015748031497
        },
        {
          "duration": 0.0036764666666613266,
          "durationTicks": 1,
          "midi": 36,
          "name": "C2",
          "ticks": 40500,
          "time": 148.89690000000002,
          "velocity": 0.7874015748031497
        },
        {
          "duration": 0.0036764666666613266,
          "durationTicks": 1,
          "midi": 36,
          "name": "C2",
          "ticks": 40800,
          "time": 149.99984,
          "velocity": 0.7874015748031497
        },
        {
          "duration": 0.0036764666666897483,
          "durationTicks": 1,
          "midi": 38,
          "name": "D2",
          "ticks": 40920,
          "time": 150.441016,
          "velocity": 0.7874015748031497
        },
        {
          "duration": 0.0036764666666897483,
          "durationTicks": 1,
          "midi": 39,
          "name": "D#2",
          "ticks": 40920,
          "time": 150.441016,
          "velocity": 0.7874015748031497
        },
        {
          "duration": 0.0036764666666613266,
          "durationTicks": 1,
          "midi": 36,
          "name": "C2",
          "ticks": 40980,
          "time": 150.661604,
          "velocity": 0.7874015748031497
        },
        {
          "duration": 0.0036764666666613266,
          "durationTicks": 1,
          "midi": 38,
          "name": "D2",
          "ticks": 41160,
          "time": 151.32336800000002,
          "velocity": 0.7874015748031497
        },
        {
          "duration": 0.0036764666666613266,
          "durationTicks": 1,
          "midi": 39,
          "name": "D#2",
          "ticks": 41160,
          "time": 151.32336800000002,
          "velocity": 0.7874015748031497
        },
        {
          "duration": 0.0036764666666613266,
          "durationTicks": 1,
          "midi": 36,
          "name": "C2",
          "ticks": 41280,
          "time": 151.764544,
          "velocity": 0.7874015748031497
        },
        {
          "duration": 0.0036764666666613266,
          "durationTicks": 1,
          "midi": 36,
          "name": "C2",
          "ticks": 41370,
          "time": 152.095426,
          "velocity": 0.7874015748031497
        },
        {
          "duration": 0.0036764666666613266,
          "durationTicks": 1,
          "midi": 38,
          "name": "D2",
          "ticks": 41400,
          "time": 152.20572,
          "velocity": 0.7874015748031497
        },
        {
          "duration": 0.0036764666666613266,
          "durationTicks": 1,
          "midi": 39,
          "name": "D#2",
          "ticks": 41400,
          "time": 152.20572,
          "velocity": 0.7874015748031497
        },
        {
          "duration": 0.0036764666666613266,
          "durationTicks": 1,
          "midi": 36,
          "name": "C2",
          "ticks": 41460,
          "time": 152.426308,
          "velocity": 0.7874015748031497
        },
        {
          "duration": 0.0036764666666897483,
          "durationTicks": 1,
          "midi": 36,
          "name": "C2",
          "ticks": 41580,
          "time": 152.867484,
          "velocity": 0.7874015748031497
        },
        {
          "duration": 0.0036764666666613266,
          "durationTicks": 1,
          "midi": 38,
          "name": "D2",
          "ticks": 41640,
          "time": 153.088072,
          "velocity": 0.7874015748031497
        },
        {
          "duration": 0.0036764666666613266,
          "durationTicks": 1,
          "midi": 39,
          "name": "D#2",
          "ticks": 41640,
          "time": 153.088072,
          "velocity": 0.7874015748031497
        },
        {
          "duration": 0.0036764666666613266,
          "durationTicks": 1,
          "midi": 36,
          "name": "C2",
          "ticks": 41670,
          "time": 153.198366,
          "velocity": 0.7874015748031497
        },
        {
          "duration": 0.0036764666666613266,
          "durationTicks": 1,
          "midi": 36,
          "name": "C2",
          "ticks": 41760,
          "time": 153.529248,
          "velocity": 0.7874015748031497
        },
        {
          "duration": 0.0036764666666613266,
          "durationTicks": 1,
          "midi": 38,
          "name": "D2",
          "ticks": 41880,
          "time": 153.970424,
          "velocity": 0.7874015748031497
        },
        {
          "duration": 0.0036764666666613266,
          "durationTicks": 1,
          "midi": 39,
          "name": "D#2",
          "ticks": 41880,
          "time": 153.970424,
          "velocity": 0.7874015748031497
        },
        {
          "duration": 0.0036764666666613266,
          "durationTicks": 1,
          "midi": 36,
          "name": "C2",
          "ticks": 41940,
          "time": 154.191012,
          "velocity": 0.7874015748031497
        },
        {
          "duration": 0.0036764666666613266,
          "durationTicks": 1,
          "midi": 38,
          "name": "D2",
          "ticks": 42120,
          "time": 154.852776,
          "velocity": 0.7874015748031497
        },
        {
          "duration": 0.0036764666666613266,
          "durationTicks": 1,
          "midi": 39,
          "name": "D#2",
          "ticks": 42120,
          "time": 154.852776,
          "velocity": 0.7874015748031497
        },
        {
          "duration": 0.0036764666666613266,
          "durationTicks": 1,
          "midi": 36,
          "name": "C2",
          "ticks": 42180,
          "time": 155.073364,
          "velocity": 0.7086614173228346
        },
        {
          "duration": 0.0036764666666613266,
          "durationTicks": 1,
          "midi": 36,
          "name": "C2",
          "ticks": 42210,
          "time": 155.183658,
          "velocity": 0.7322834645669292
        },
        {
          "duration": 0.0036764666666897483,
          "durationTicks": 1,
          "midi": 36,
          "name": "C2",
          "ticks": 42240,
          "time": 155.293952,
          "velocity": 0.7874015748031497
        },
        {
          "duration": 0.0036764666666613266,
          "durationTicks": 1,
          "midi": 36,
          "name": "C2",
          "ticks": 42330,
          "time": 155.624834,
          "velocity": 0.7874015748031497
        },
        {
          "duration": 0.0036764666666613266,
          "durationTicks": 1,
          "midi": 38,
          "name": "D2",
          "ticks": 42360,
          "time": 155.735128,
          "velocity": 0.7874015748031497
        },
        {
          "duration": 0.0036764666666613266,
          "durationTicks": 1,
          "midi": 39,
          "name": "D#2",
          "ticks": 42360,
          "time": 155.735128,
          "velocity": 0.7874015748031497
        },
        {
          "duration": 0.0036764666666613266,
          "durationTicks": 1,
          "midi": 36,
          "name": "C2",
          "ticks": 42420,
          "time": 155.955716,
          "velocity": 0.7874015748031497
        },
        {
          "duration": 0.0036764666666613266,
          "durationTicks": 1,
          "midi": 36,
          "name": "C2",
          "ticks": 42540,
          "time": 156.396892,
          "velocity": 0.7874015748031497
        },
        {
          "duration": 0.0036764666666613266,
          "durationTicks": 1,
          "midi": 38,
          "name": "D2",
          "ticks": 42600,
          "time": 156.61748,
          "velocity": 0.7874015748031497
        },
        {
          "duration": 0.0036764666666613266,
          "durationTicks": 1,
          "midi": 39,
          "name": "D#2",
          "ticks": 42600,
          "time": 156.61748,
          "velocity": 0.7874015748031497
        },
        {
          "duration": 0.0036764666666613266,
          "durationTicks": 1,
          "midi": 36,
          "name": "C2",
          "ticks": 42630,
          "time": 156.727774,
          "velocity": 0.7874015748031497
        },
        {
          "duration": 0.0036764666666613266,
          "durationTicks": 1,
          "midi": 36,
          "name": "C2",
          "ticks": 42720,
          "time": 157.058656,
          "velocity": 0.7874015748031497
        },
        {
          "duration": 0.0036764666666613266,
          "durationTicks": 1,
          "midi": 42,
          "name": "F#2",
          "ticks": 42720,
          "time": 157.058656,
          "velocity": 0.7874015748031497
        },
        {
          "duration": 0.0036764666666613266,
          "durationTicks": 1,
          "midi": 42,
          "name": "F#2",
          "ticks": 42780,
          "time": 157.279244,
          "velocity": 0.7874015748031497
        },
        {
          "duration": 0.0036764666666613266,
          "durationTicks": 1,
          "midi": 38,
          "name": "D2",
          "ticks": 42840,
          "time": 157.499832,
          "velocity": 0.7874015748031497
        },
        {
          "duration": 0.0036764666666613266,
          "durationTicks": 1,
          "midi": 39,
          "name": "D#2",
          "ticks": 42840,
          "time": 157.499832,
          "velocity": 0.7874015748031497
        },
        {
          "duration": 0.0036764666666613266,
          "durationTicks": 1,
          "midi": 42,
          "name": "F#2",
          "ticks": 42840,
          "time": 157.499832,
          "velocity": 0.7874015748031497
        },
        {
          "duration": 0.0036764666666613266,
          "durationTicks": 1,
          "midi": 36,
          "name": "C2",
          "ticks": 42900,
          "time": 157.72042000000002,
          "velocity": 0.7874015748031497
        },
        {
          "duration": 0.0036764666666613266,
          "durationTicks": 1,
          "midi": 42,
          "name": "F#2",
          "ticks": 42900,
          "time": 157.72042000000002,
          "velocity": 0.7874015748031497
        },
        {
          "duration": 0.0036764666666613266,
          "durationTicks": 1,
          "midi": 42,
          "name": "F#2",
          "ticks": 42960,
          "time": 157.941008,
          "velocity": 0.7874015748031497
        },
        {
          "duration": 0.0036764666666613266,
          "durationTicks": 1,
          "midi": 42,
          "name": "F#2",
          "ticks": 43020,
          "time": 158.161596,
          "velocity": 0.7874015748031497
        },
        {
          "duration": 0.0036764666666613266,
          "durationTicks": 1,
          "midi": 38,
          "name": "D2",
          "ticks": 43080,
          "time": 158.382184,
          "velocity": 0.7874015748031497
        },
        {
          "duration": 0.0036764666666613266,
          "durationTicks": 1,
          "midi": 39,
          "name": "D#2",
          "ticks": 43080,
          "time": 158.382184,
          "velocity": 0.7874015748031497
        },
        {
          "duration": 0.0036764666666613266,
          "durationTicks": 1,
          "midi": 42,
          "name": "F#2",
          "ticks": 43080,
          "time": 158.382184,
          "velocity": 0.7874015748031497
        },
        {
          "duration": 0.0036764666666613266,
          "durationTicks": 1,
          "midi": 42,
          "name": "F#2",
          "ticks": 43140,
          "time": 158.60277200000002,
          "velocity": 0.7874015748031497
        },
        {
          "duration": 0.0036764666666613266,
          "durationTicks": 1,
          "midi": 42,
          "name": "F#2",
          "ticks": 43170,
          "time": 158.713066,
          "velocity": 0.6929133858267716
        },
        {
          "duration": 0.0036764666666613266,
          "durationTicks": 1,
          "midi": 36,
          "name": "C2",
          "ticks": 43200,
          "time": 158.82336,
          "velocity": 0.7874015748031497
        },
        {
          "duration": 0.0036764666666613266,
          "durationTicks": 1,
          "midi": 42,
          "name": "F#2",
          "ticks": 43200,
          "time": 158.82336,
          "velocity": 0.7874015748031497
        },
        {
          "duration": 0.0036764666666613266,
          "durationTicks": 1,
          "midi": 42,
          "name": "F#2",
          "ticks": 43260,
          "time": 159.043948,
          "velocity": 0.7874015748031497
        },
        {
          "duration": 0.0036764666666613266,
          "durationTicks": 1,
          "midi": 36,
          "name": "C2",
          "ticks": 43290,
          "time": 159.154242,
          "velocity": 0.7874015748031497
        },
        {
          "duration": 0.0036764666666613266,
          "durationTicks": 1,
          "midi": 38,
          "name": "D2",
          "ticks": 43320,
          "time": 159.264536,
          "velocity": 0.7874015748031497
        },
        {
          "duration": 0.0036764666666613266,
          "durationTicks": 1,
          "midi": 39,
          "name": "D#2",
          "ticks": 43320,
          "time": 159.264536,
          "velocity": 0.7874015748031497
        },
        {
          "duration": 0.0036764666666613266,
          "durationTicks": 1,
          "midi": 42,
          "name": "F#2",
          "ticks": 43320,
          "time": 159.264536,
          "velocity": 0.7874015748031497
        },
        {
          "duration": 0.0036764666666613266,
          "durationTicks": 1,
          "midi": 36,
          "name": "C2",
          "ticks": 43380,
          "time": 159.485124,
          "velocity": 0.7874015748031497
        },
        {
          "duration": 0.0036764666666613266,
          "durationTicks": 1,
          "midi": 42,
          "name": "F#2",
          "ticks": 43380,
          "time": 159.485124,
          "velocity": 0.7874015748031497
        },
        {
          "duration": 0.0036764666666613266,
          "durationTicks": 1,
          "midi": 42,
          "name": "F#2",
          "ticks": 43440,
          "time": 159.705712,
          "velocity": 0.7874015748031497
        },
        {
          "duration": 0.0036764666666613266,
          "durationTicks": 1,
          "midi": 36,
          "name": "C2",
          "ticks": 43500,
          "time": 159.9263,
          "velocity": 0.7874015748031497
        },
        {
          "duration": 0.0036764666666613266,
          "durationTicks": 1,
          "midi": 42,
          "name": "F#2",
          "ticks": 43500,
          "time": 159.9263,
          "velocity": 0.7874015748031497
        },
        {
          "duration": 0.0036764666666613266,
          "durationTicks": 1,
          "midi": 38,
          "name": "D2",
          "ticks": 43560,
          "time": 160.14688800000002,
          "velocity": 0.7874015748031497
        },
        {
          "duration": 0.0036764666666613266,
          "durationTicks": 1,
          "midi": 39,
          "name": "D#2",
          "ticks": 43560,
          "time": 160.14688800000002,
          "velocity": 0.7874015748031497
        },
        {
          "duration": 0.0036764666666613266,
          "durationTicks": 1,
          "midi": 42,
          "name": "F#2",
          "ticks": 43560,
          "time": 160.14688800000002,
          "velocity": 0.7874015748031497
        },
        {
          "duration": 0.0036764666666613266,
          "durationTicks": 1,
          "midi": 36,
          "name": "C2",
          "ticks": 43590,
          "time": 160.257182,
          "velocity": 0.7874015748031497
        },
        {
          "duration": 0.0036764666666613266,
          "durationTicks": 1,
          "midi": 42,
          "name": "F#2",
          "ticks": 43620,
          "time": 160.367476,
          "velocity": 0.7874015748031497
        },
        {
          "duration": 0.0036764666666613266,
          "durationTicks": 1,
          "midi": 36,
          "name": "C2",
          "ticks": 43680,
          "time": 160.588064,
          "velocity": 0.7874015748031497
        },
        {
          "duration": 0.0036764666666613266,
          "durationTicks": 1,
          "midi": 42,
          "name": "F#2",
          "ticks": 43680,
          "time": 160.588064,
          "velocity": 0.7874015748031497
        },
        {
          "duration": 0.0036764666666613266,
          "durationTicks": 1,
          "midi": 42,
          "name": "F#2",
          "ticks": 43740,
          "time": 160.808652,
          "velocity": 0.7874015748031497
        },
        {
          "duration": 0.0036764666666613266,
          "durationTicks": 1,
          "midi": 38,
          "name": "D2",
          "ticks": 43800,
          "time": 161.02924000000002,
          "velocity": 0.7874015748031497
        },
        {
          "duration": 0.0036764666666613266,
          "durationTicks": 1,
          "midi": 39,
          "name": "D#2",
          "ticks": 43800,
          "time": 161.02924000000002,
          "velocity": 0.7874015748031497
        },
        {
          "duration": 0.0036764666666613266,
          "durationTicks": 1,
          "midi": 42,
          "name": "F#2",
          "ticks": 43800,
          "time": 161.02924000000002,
          "velocity": 0.7874015748031497
        },
        {
          "duration": 0.0036764666666613266,
          "durationTicks": 1,
          "midi": 36,
          "name": "C2",
          "ticks": 43860,
          "time": 161.249828,
          "velocity": 0.7874015748031497
        },
        {
          "duration": 0.0036764666666613266,
          "durationTicks": 1,
          "midi": 42,
          "name": "F#2",
          "ticks": 43860,
          "time": 161.249828,
          "velocity": 0.7874015748031497
        },
        {
          "duration": 0.0036764666666613266,
          "durationTicks": 1,
          "midi": 42,
          "name": "F#2",
          "ticks": 43920,
          "time": 161.470416,
          "velocity": 0.7874015748031497
        },
        {
          "duration": 0.0036764666666613266,
          "durationTicks": 1,
          "midi": 42,
          "name": "F#2",
          "ticks": 43980,
          "time": 161.691004,
          "velocity": 0.7874015748031497
        },
        {
          "duration": 0.0036764666666613266,
          "durationTicks": 1,
          "midi": 38,
          "name": "D2",
          "ticks": 44040,
          "time": 161.911592,
          "velocity": 0.7874015748031497
        },
        {
          "duration": 0.0036764666666613266,
          "durationTicks": 1,
          "midi": 39,
          "name": "D#2",
          "ticks": 44040,
          "time": 161.911592,
          "velocity": 0.7874015748031497
        },
        {
          "duration": 0.0036764666666613266,
          "durationTicks": 1,
          "midi": 42,
          "name": "F#2",
          "ticks": 44040,
          "time": 161.911592,
          "velocity": 0.7874015748031497
        },
        {
          "duration": 0.0036764666666613266,
          "durationTicks": 1,
          "midi": 36,
          "name": "C2",
          "ticks": 44100,
          "time": 162.13218,
          "velocity": 0.7086614173228346
        },
        {
          "duration": 0.0036764666666613266,
          "durationTicks": 1,
          "midi": 42,
          "name": "F#2",
          "ticks": 44100,
          "time": 162.13218,
          "velocity": 0.7874015748031497
        },
        {
          "duration": 0.0036764666666613266,
          "durationTicks": 1,
          "midi": 36,
          "name": "C2",
          "ticks": 44130,
          "time": 162.24247400000002,
          "velocity": 0.7322834645669292
        },
        {
          "duration": 0.0036764666666613266,
          "durationTicks": 1,
          "midi": 36,
          "name": "C2",
          "ticks": 44160,
          "time": 162.352768,
          "velocity": 0.7874015748031497
        },
        {
          "duration": 0.0036764666666613266,
          "durationTicks": 1,
          "midi": 42,
          "name": "F#2",
          "ticks": 44160,
          "time": 162.352768,
          "velocity": 0.7874015748031497
        },
        {
          "duration": 0.0036764666666613266,
          "durationTicks": 1,
          "midi": 42,
          "name": "F#2",
          "ticks": 44220,
          "time": 162.57335600000002,
          "velocity": 0.7874015748031497
        },
        {
          "duration": 0.0036764666666613266,
          "durationTicks": 1,
          "midi": 36,
          "name": "C2",
          "ticks": 44250,
          "time": 162.68365,
          "velocity": 0.7874015748031497
        },
        {
          "duration": 0.0036764666666613266,
          "durationTicks": 1,
          "midi": 38,
          "name": "D2",
          "ticks": 44280,
          "time": 162.793944,
          "velocity": 0.7874015748031497
        },
        {
          "duration": 0.0036764666666613266,
          "durationTicks": 1,
          "midi": 39,
          "name": "D#2",
          "ticks": 44280,
          "time": 162.793944,
          "velocity": 0.7874015748031497
        },
        {
          "duration": 0.0036764666666613266,
          "durationTicks": 1,
          "midi": 42,
          "name": "F#2",
          "ticks": 44280,
          "time": 162.793944,
          "velocity": 0.7874015748031497
        },
        {
          "duration": 0.0036764666666613266,
          "durationTicks": 1,
          "midi": 36,
          "name": "C2",
          "ticks": 44340,
          "time": 163.014532,
          "velocity": 0.7874015748031497
        },
        {
          "duration": 0.0036764666666613266,
          "durationTicks": 1,
          "midi": 42,
          "name": "F#2",
          "ticks": 44340,
          "time": 163.014532,
          "velocity": 0.7874015748031497
        },
        {
          "duration": 0.0036764666666897483,
          "durationTicks": 1,
          "midi": 36,
          "name": "C2",
          "ticks": 44640,
          "time": 164.117472,
          "velocity": 0.7874015748031497
        },
        {
          "duration": 0.0036764666666897483,
          "durationTicks": 1,
          "midi": 42,
          "name": "F#2",
          "ticks": 44640,
          "time": 164.117472,
          "velocity": 0.7874015748031497
        },
        {
          "duration": 0.0036764666666613266,
          "durationTicks": 1,
          "midi": 42,
          "name": "F#2",
          "ticks": 44700,
          "time": 164.33806,
          "velocity": 0.7874015748031497
        },
        {
          "duration": 0.0036764666666613266,
          "durationTicks": 1,
          "midi": 38,
          "name": "D2",
          "ticks": 44760,
          "time": 164.558648,
          "velocity": 0.7874015748031497
        },
        {
          "duration": 0.0036764666666613266,
          "durationTicks": 1,
          "midi": 39,
          "name": "D#2",
          "ticks": 44760,
          "time": 164.558648,
          "velocity": 0.7874015748031497
        },
        {
          "duration": 0.0036764666666613266,
          "durationTicks": 1,
          "midi": 42,
          "name": "F#2",
          "ticks": 44760,
          "time": 164.558648,
          "velocity": 0.7874015748031497
        },
        {
          "duration": 0.0036764666666613266,
          "durationTicks": 1,
          "midi": 36,
          "name": "C2",
          "ticks": 44820,
          "time": 164.779236,
          "velocity": 0.7874015748031497
        },
        {
          "duration": 0.0036764666666613266,
          "durationTicks": 1,
          "midi": 42,
          "name": "F#2",
          "ticks": 44820,
          "time": 164.779236,
          "velocity": 0.7874015748031497
        },
        {
          "duration": 0.0036764666666613266,
          "durationTicks": 1,
          "midi": 42,
          "name": "F#2",
          "ticks": 44880,
          "time": 164.99982400000002,
          "velocity": 0.7874015748031497
        },
        {
          "duration": 0.0036764666666613266,
          "durationTicks": 1,
          "midi": 42,
          "name": "F#2",
          "ticks": 44940,
          "time": 165.220412,
          "velocity": 0.7874015748031497
        },
        {
          "duration": 0.0036764666666613266,
          "durationTicks": 1,
          "midi": 38,
          "name": "D2",
          "ticks": 45000,
          "time": 165.441,
          "velocity": 0.7874015748031497
        },
        {
          "duration": 0.0036764666666613266,
          "durationTicks": 1,
          "midi": 39,
          "name": "D#2",
          "ticks": 45000,
          "time": 165.441,
          "velocity": 0.7874015748031497
        },
        {
          "duration": 0.0036764666666613266,
          "durationTicks": 1,
          "midi": 42,
          "name": "F#2",
          "ticks": 45000,
          "time": 165.441,
          "velocity": 0.7874015748031497
        },
        {
          "duration": 0.0036764666666613266,
          "durationTicks": 1,
          "midi": 42,
          "name": "F#2",
          "ticks": 45060,
          "time": 165.661588,
          "velocity": 0.7874015748031497
        },
        {
          "duration": 0.0036764666666613266,
          "durationTicks": 1,
          "midi": 42,
          "name": "F#2",
          "ticks": 45090,
          "time": 165.771882,
          "velocity": 0.6929133858267716
        },
        {
          "duration": 0.0036764666666613266,
          "durationTicks": 1,
          "midi": 36,
          "name": "C2",
          "ticks": 45120,
          "time": 165.88217600000002,
          "velocity": 0.7874015748031497
        },
        {
          "duration": 0.0036764666666613266,
          "durationTicks": 1,
          "midi": 42,
          "name": "F#2",
          "ticks": 45120,
          "time": 165.88217600000002,
          "velocity": 0.7874015748031497
        },
        {
          "duration": 0.0036764666666613266,
          "durationTicks": 1,
          "midi": 42,
          "name": "F#2",
          "ticks": 45180,
          "time": 166.102764,
          "velocity": 0.7874015748031497
        },
        {
          "duration": 0.0036764666666613266,
          "durationTicks": 1,
          "midi": 36,
          "name": "C2",
          "ticks": 45210,
          "time": 166.21305800000002,
          "velocity": 0.7874015748031497
        },
        {
          "duration": 0.0036764666666613266,
          "durationTicks": 1,
          "midi": 38,
          "name": "D2",
          "ticks": 45240,
          "time": 166.323352,
          "velocity": 0.7874015748031497
        },
        {
          "duration": 0.0036764666666613266,
          "durationTicks": 1,
          "midi": 39,
          "name": "D#2",
          "ticks": 45240,
          "time": 166.323352,
          "velocity": 0.7874015748031497
        },
        {
          "duration": 0.0036764666666613266,
          "durationTicks": 1,
          "midi": 42,
          "name": "F#2",
          "ticks": 45240,
          "time": 166.323352,
          "velocity": 0.7874015748031497
        },
        {
          "duration": 0.0036764666666897483,
          "durationTicks": 1,
          "midi": 36,
          "name": "C2",
          "ticks": 45300,
          "time": 166.54394,
          "velocity": 0.7874015748031497
        },
        {
          "duration": 0.0036764666666897483,
          "durationTicks": 1,
          "midi": 42,
          "name": "F#2",
          "ticks": 45300,
          "time": 166.54394,
          "velocity": 0.7874015748031497
        },
        {
          "duration": 0.0036764666666613266,
          "durationTicks": 1,
          "midi": 42,
          "name": "F#2",
          "ticks": 45360,
          "time": 166.764528,
          "velocity": 0.7874015748031497
        },
        {
          "duration": 0.0036764666666613266,
          "durationTicks": 1,
          "midi": 36,
          "name": "C2",
          "ticks": 45420,
          "time": 166.985116,
          "velocity": 0.7874015748031497
        },
        {
          "duration": 0.0036764666666613266,
          "durationTicks": 1,
          "midi": 42,
          "name": "F#2",
          "ticks": 45420,
          "time": 166.985116,
          "velocity": 0.7874015748031497
        },
        {
          "duration": 0.0036764666666613266,
          "durationTicks": 1,
          "midi": 38,
          "name": "D2",
          "ticks": 45480,
          "time": 167.205704,
          "velocity": 0.7874015748031497
        },
        {
          "duration": 0.0036764666666613266,
          "durationTicks": 1,
          "midi": 39,
          "name": "D#2",
          "ticks": 45480,
          "time": 167.205704,
          "velocity": 0.7874015748031497
        },
        {
          "duration": 0.0036764666666613266,
          "durationTicks": 1,
          "midi": 42,
          "name": "F#2",
          "ticks": 45480,
          "time": 167.205704,
          "velocity": 0.7874015748031497
        },
        {
          "duration": 0.0036764666666613266,
          "durationTicks": 1,
          "midi": 36,
          "name": "C2",
          "ticks": 45510,
          "time": 167.315998,
          "velocity": 0.7874015748031497
        },
        {
          "duration": 0.0036764666666613266,
          "durationTicks": 1,
          "midi": 42,
          "name": "F#2",
          "ticks": 45540,
          "time": 167.42629200000002,
          "velocity": 0.7874015748031497
        },
        {
          "duration": 0.0036764666666613266,
          "durationTicks": 1,
          "midi": 36,
          "name": "C2",
          "ticks": 45600,
          "time": 167.64688,
          "velocity": 0.7874015748031497
        },
        {
          "duration": 0.0036764666666613266,
          "durationTicks": 1,
          "midi": 42,
          "name": "F#2",
          "ticks": 45600,
          "time": 167.64688,
          "velocity": 0.7874015748031497
        },
        {
          "duration": 0.0036764666666613266,
          "durationTicks": 1,
          "midi": 42,
          "name": "F#2",
          "ticks": 45660,
          "time": 167.867468,
          "velocity": 0.7874015748031497
        },
        {
          "duration": 0.0036764666666613266,
          "durationTicks": 1,
          "midi": 38,
          "name": "D2",
          "ticks": 45720,
          "time": 168.088056,
          "velocity": 0.7874015748031497
        },
        {
          "duration": 0.0036764666666613266,
          "durationTicks": 1,
          "midi": 39,
          "name": "D#2",
          "ticks": 45720,
          "time": 168.088056,
          "velocity": 0.7874015748031497
        },
        {
          "duration": 0.0036764666666613266,
          "durationTicks": 1,
          "midi": 42,
          "name": "F#2",
          "ticks": 45720,
          "time": 168.088056,
          "velocity": 0.7874015748031497
        },
        {
          "duration": 0.0036764666666613266,
          "durationTicks": 1,
          "midi": 36,
          "name": "C2",
          "ticks": 45780,
          "time": 168.30864400000002,
          "velocity": 0.7874015748031497
        },
        {
          "duration": 0.0036764666666613266,
          "durationTicks": 1,
          "midi": 42,
          "name": "F#2",
          "ticks": 45780,
          "time": 168.30864400000002,
          "velocity": 0.7874015748031497
        },
        {
          "duration": 0.0036764666666613266,
          "durationTicks": 1,
          "midi": 42,
          "name": "F#2",
          "ticks": 45840,
          "time": 168.529232,
          "velocity": 0.7874015748031497
        },
        {
          "duration": 0.0036764666666613266,
          "durationTicks": 1,
          "midi": 42,
          "name": "F#2",
          "ticks": 45900,
          "time": 168.74982,
          "velocity": 0.7874015748031497
        },
        {
          "duration": 0.0036764666666897483,
          "durationTicks": 1,
          "midi": 38,
          "name": "D2",
          "ticks": 45960,
          "time": 168.970408,
          "velocity": 0.7874015748031497
        },
        {
          "duration": 0.0036764666666897483,
          "durationTicks": 1,
          "midi": 39,
          "name": "D#2",
          "ticks": 45960,
          "time": 168.970408,
          "velocity": 0.7874015748031497
        },
        {
          "duration": 0.0036764666666897483,
          "durationTicks": 1,
          "midi": 42,
          "name": "F#2",
          "ticks": 45960,
          "time": 168.970408,
          "velocity": 0.7874015748031497
        },
        {
          "duration": 0.0036764666666613266,
          "durationTicks": 1,
          "midi": 36,
          "name": "C2",
          "ticks": 46020,
          "time": 169.190996,
          "velocity": 0.7086614173228346
        },
        {
          "duration": 0.0036764666666613266,
          "durationTicks": 1,
          "midi": 42,
          "name": "F#2",
          "ticks": 46020,
          "time": 169.190996,
          "velocity": 0.6929133858267716
        },
        {
          "duration": 0.0036764666666613266,
          "durationTicks": 1,
          "midi": 36,
          "name": "C2",
          "ticks": 46050,
          "time": 169.30129,
          "velocity": 0.7007874015748031
        },
        {
          "duration": 0.0036764666666613266,
          "durationTicks": 1,
          "midi": 42,
          "name": "F#2",
          "ticks": 46050,
          "time": 169.30129,
          "velocity": 0.6456692913385826
        },
        {
          "duration": 0.0036764666666613266,
          "durationTicks": 1,
          "midi": 36,
          "name": "C2",
          "ticks": 46080,
          "time": 169.411584,
          "velocity": 0.7874015748031497
        },
        {
          "duration": 0.0036764666666613266,
          "durationTicks": 1,
          "midi": 38,
          "name": "D2",
          "ticks": 50400,
          "time": 185.29392,
          "velocity": 0.08661417322834646
        },
        {
          "duration": 0.0036764666666613266,
          "durationTicks": 1,
          "midi": 38,
          "name": "D2",
          "ticks": 50430,
          "time": 185.404214,
          "velocity": 0.08661417322834646
        },
        {
          "duration": 0.0036764666666613266,
          "durationTicks": 1,
          "midi": 38,
          "name": "D2",
          "ticks": 50460,
          "time": 185.514508,
          "velocity": 0.09448818897637795
        },
        {
          "duration": 0.0036764666666613266,
          "durationTicks": 1,
          "midi": 38,
          "name": "D2",
          "ticks": 50490,
          "time": 185.62480200000002,
          "velocity": 0.09448818897637795
        },
        {
          "duration": 0.0036764666666613266,
          "durationTicks": 1,
          "midi": 38,
          "name": "D2",
          "ticks": 50520,
          "time": 185.735096,
          "velocity": 0.10236220472440945
        },
        {
          "duration": 0.0036764666666613266,
          "durationTicks": 1,
          "midi": 38,
          "name": "D2",
          "ticks": 50550,
          "time": 185.84539,
          "velocity": 0.10236220472440945
        },
        {
          "duration": 0.0036764666666613266,
          "durationTicks": 1,
          "midi": 38,
          "name": "D2",
          "ticks": 50580,
          "time": 185.95568400000002,
          "velocity": 0.11023622047244094
        },
        {
          "duration": 0.0036764666666613266,
          "durationTicks": 1,
          "midi": 38,
          "name": "D2",
          "ticks": 50610,
          "time": 186.065978,
          "velocity": 0.11023622047244094
        },
        {
          "duration": 0.0036764666666613266,
          "durationTicks": 1,
          "midi": 38,
          "name": "D2",
          "ticks": 50640,
          "time": 186.176272,
          "velocity": 0.11811023622047244
        },
        {
          "duration": 0.0036764666666613266,
          "durationTicks": 1,
          "midi": 38,
          "name": "D2",
          "ticks": 50670,
          "time": 186.286566,
          "velocity": 0.11811023622047244
        },
        {
          "duration": 0.0036764666666613266,
          "durationTicks": 1,
          "midi": 38,
          "name": "D2",
          "ticks": 50700,
          "time": 186.39686,
          "velocity": 0.12598425196850394
        },
        {
          "duration": 0.0036764666666613266,
          "durationTicks": 1,
          "midi": 38,
          "name": "D2",
          "ticks": 50730,
          "time": 186.507154,
          "velocity": 0.12598425196850394
        },
        {
          "duration": 0.0036764666666613266,
          "durationTicks": 1,
          "midi": 38,
          "name": "D2",
          "ticks": 50760,
          "time": 186.617448,
          "velocity": 0.13385826771653545
        },
        {
          "duration": 0.0036764666666613266,
          "durationTicks": 1,
          "midi": 38,
          "name": "D2",
          "ticks": 50790,
          "time": 186.727742,
          "velocity": 0.13385826771653545
        },
        {
          "duration": 0.0036764666666613266,
          "durationTicks": 1,
          "midi": 38,
          "name": "D2",
          "ticks": 50820,
          "time": 186.83803600000002,
          "velocity": 0.14173228346456693
        },
        {
          "duration": 0.0036764666666613266,
          "durationTicks": 1,
          "midi": 38,
          "name": "D2",
          "ticks": 50850,
          "time": 186.94833,
          "velocity": 0.14173228346456693
        },
        {
          "duration": 0.0036764666666613266,
          "durationTicks": 1,
          "midi": 38,
          "name": "D2",
          "ticks": 50880,
          "time": 187.058624,
          "velocity": 0.14960629921259844
        },
        {
          "duration": 0.0036764666666613266,
          "durationTicks": 1,
          "midi": 38,
          "name": "D2",
          "ticks": 50910,
          "time": 187.16891800000002,
          "velocity": 0.14960629921259844
        },
        {
          "duration": 0.0036764666666613266,
          "durationTicks": 1,
          "midi": 38,
          "name": "D2",
          "ticks": 50940,
          "time": 187.279212,
          "velocity": 0.15748031496062992
        },
        {
          "duration": 0.0036764666666613266,
          "durationTicks": 1,
          "midi": 38,
          "name": "D2",
          "ticks": 50970,
          "time": 187.389506,
          "velocity": 0.15748031496062992
        },
        {
          "duration": 0.0036764666666613266,
          "durationTicks": 1,
          "midi": 38,
          "name": "D2",
          "ticks": 51000,
          "time": 187.4998,
          "velocity": 0.16535433070866143
        },
        {
          "duration": 0.0036764666666613266,
          "durationTicks": 1,
          "midi": 38,
          "name": "D2",
          "ticks": 51030,
          "time": 187.610094,
          "velocity": 0.16535433070866143
        },
        {
          "duration": 0.0036764666666613266,
          "durationTicks": 1,
          "midi": 38,
          "name": "D2",
          "ticks": 51060,
          "time": 187.720388,
          "velocity": 0.1732283464566929
        },
        {
          "duration": 0.0036764666666613266,
          "durationTicks": 1,
          "midi": 38,
          "name": "D2",
          "ticks": 51090,
          "time": 187.830682,
          "velocity": 0.1732283464566929
        },
        {
          "duration": 0.0036764666666613266,
          "durationTicks": 1,
          "midi": 38,
          "name": "D2",
          "ticks": 51120,
          "time": 187.940976,
          "velocity": 0.18110236220472442
        },
        {
          "duration": 0.0036764666666613266,
          "durationTicks": 1,
          "midi": 38,
          "name": "D2",
          "ticks": 51150,
          "time": 188.05127000000002,
          "velocity": 0.1889763779527559
        },
        {
          "duration": 0.0036764666666613266,
          "durationTicks": 1,
          "midi": 38,
          "name": "D2",
          "ticks": 51180,
          "time": 188.161564,
          "velocity": 0.1889763779527559
        },
        {
          "duration": 0.0036764666666613266,
          "durationTicks": 1,
          "midi": 38,
          "name": "D2",
          "ticks": 51210,
          "time": 188.271858,
          "velocity": 0.1968503937007874
        },
        {
          "duration": 0.0036764666666613266,
          "durationTicks": 1,
          "midi": 38,
          "name": "D2",
          "ticks": 51240,
          "time": 188.38215200000002,
          "velocity": 0.1968503937007874
        },
        {
          "duration": 0.0036764666666613266,
          "durationTicks": 1,
          "midi": 38,
          "name": "D2",
          "ticks": 51270,
          "time": 188.492446,
          "velocity": 0.2047244094488189
        },
        {
          "duration": 0.0036764666666613266,
          "durationTicks": 1,
          "midi": 38,
          "name": "D2",
          "ticks": 51300,
          "time": 188.60274,
          "velocity": 0.2047244094488189
        },
        {
          "duration": 0.0036764666666613266,
          "durationTicks": 1,
          "midi": 38,
          "name": "D2",
          "ticks": 51330,
          "time": 188.713034,
          "velocity": 0.2125984251968504
        },
        {
          "duration": 0.0036764666666613266,
          "durationTicks": 1,
          "midi": 38,
          "name": "D2",
          "ticks": 51360,
          "time": 188.823328,
          "velocity": 0.2125984251968504
        },
        {
          "duration": 0.0036764666666613266,
          "durationTicks": 1,
          "midi": 38,
          "name": "D2",
          "ticks": 51390,
          "time": 188.933622,
          "velocity": 0.2204724409448819
        },
        {
          "duration": 0.0036764666666613266,
          "durationTicks": 1,
          "midi": 38,
          "name": "D2",
          "ticks": 51420,
          "time": 189.043916,
          "velocity": 0.2204724409448819
        },
        {
          "duration": 0.0036764666666613266,
          "durationTicks": 1,
          "midi": 38,
          "name": "D2",
          "ticks": 51450,
          "time": 189.15421,
          "velocity": 0.2283464566929134
        },
        {
          "duration": 0.0036764666666613266,
          "durationTicks": 1,
          "midi": 38,
          "name": "D2",
          "ticks": 51480,
          "time": 189.26450400000002,
          "velocity": 0.2283464566929134
        },
        {
          "duration": 0.0036764666666613266,
          "durationTicks": 1,
          "midi": 38,
          "name": "D2",
          "ticks": 51510,
          "time": 189.374798,
          "velocity": 0.23622047244094488
        },
        {
          "duration": 0.0036764666666613266,
          "durationTicks": 1,
          "midi": 38,
          "name": "D2",
          "ticks": 51540,
          "time": 189.485092,
          "velocity": 0.23622047244094488
        },
        {
          "duration": 0.0036764666666613266,
          "durationTicks": 1,
          "midi": 38,
          "name": "D2",
          "ticks": 51570,
          "time": 189.59538600000002,
          "velocity": 0.2440944881889764
        },
        {
          "duration": 0.0036764666666613266,
          "durationTicks": 1,
          "midi": 38,
          "name": "D2",
          "ticks": 51600,
          "time": 189.70568,
          "velocity": 0.2440944881889764
        },
        {
          "duration": 0.0036764666666613266,
          "durationTicks": 1,
          "midi": 38,
          "name": "D2",
          "ticks": 51630,
          "time": 189.815974,
          "velocity": 0.25196850393700787
        },
        {
          "duration": 0.0036764666666613266,
          "durationTicks": 1,
          "midi": 38,
          "name": "D2",
          "ticks": 51660,
          "time": 189.926268,
          "velocity": 0.25196850393700787
        },
        {
          "duration": 0.0036764666666613266,
          "durationTicks": 1,
          "midi": 38,
          "name": "D2",
          "ticks": 51690,
          "time": 190.036562,
          "velocity": 0.25984251968503935
        },
        {
          "duration": 0.0036764666666613266,
          "durationTicks": 1,
          "midi": 38,
          "name": "D2",
          "ticks": 51720,
          "time": 190.146856,
          "velocity": 0.25984251968503935
        },
        {
          "duration": 0.0036764666666613266,
          "durationTicks": 1,
          "midi": 38,
          "name": "D2",
          "ticks": 51750,
          "time": 190.25715,
          "velocity": 0.2677165354330709
        },
        {
          "duration": 0.0036764666666613266,
          "durationTicks": 1,
          "midi": 38,
          "name": "D2",
          "ticks": 51780,
          "time": 190.367444,
          "velocity": 0.2677165354330709
        },
        {
          "duration": 0.0036764666666613266,
          "durationTicks": 1,
          "midi": 38,
          "name": "D2",
          "ticks": 51810,
          "time": 190.47773800000002,
          "velocity": 0.2755905511811024
        },
        {
          "duration": 0.0036764666666613266,
          "durationTicks": 1,
          "midi": 38,
          "name": "D2",
          "ticks": 51840,
          "time": 190.588032,
          "velocity": 0.28346456692913385
        },
        {
          "duration": 0.0036764666666613266,
          "durationTicks": 1,
          "midi": 38,
          "name": "D2",
          "ticks": 51870,
          "time": 190.698326,
          "velocity": 0.28346456692913385
        },
        {
          "duration": 0.0036764666666613266,
          "durationTicks": 1,
          "midi": 38,
          "name": "D2",
          "ticks": 51900,
          "time": 190.80862000000002,
          "velocity": 0.29133858267716534
        },
        {
          "duration": 0.0036764666666613266,
          "durationTicks": 1,
          "midi": 38,
          "name": "D2",
          "ticks": 51930,
          "time": 190.918914,
          "velocity": 0.29133858267716534
        },
        {
          "duration": 0.0036764666666613266,
          "durationTicks": 1,
          "midi": 38,
          "name": "D2",
          "ticks": 51960,
          "time": 191.029208,
          "velocity": 0.2992125984251969
        },
        {
          "duration": 0.0036764666666897483,
          "durationTicks": 1,
          "midi": 38,
          "name": "D2",
          "ticks": 51990,
          "time": 191.139502,
          "velocity": 0.2992125984251969
        },
        {
          "duration": 0.0036764666666613266,
          "durationTicks": 1,
          "midi": 38,
          "name": "D2",
          "ticks": 52020,
          "time": 191.249796,
          "velocity": 0.30708661417322836
        },
        {
          "duration": 0.0036764666666613266,
          "durationTicks": 1,
          "midi": 38,
          "name": "D2",
          "ticks": 52050,
          "time": 191.36009,
          "velocity": 0.30708661417322836
        },
        {
          "duration": 0.0036764666666613266,
          "durationTicks": 1,
          "midi": 38,
          "name": "D2",
          "ticks": 52080,
          "time": 191.470384,
          "velocity": 0.31496062992125984
        },
        {
          "duration": 0.0036764666666613266,
          "durationTicks": 1,
          "midi": 38,
          "name": "D2",
          "ticks": 52110,
          "time": 191.580678,
          "velocity": 0.31496062992125984
        },
        {
          "duration": 0.0036764666666613266,
          "durationTicks": 1,
          "midi": 38,
          "name": "D2",
          "ticks": 52140,
          "time": 191.69097200000002,
          "velocity": 0.3228346456692913
        },
        {
          "duration": 0.0036764666666613266,
          "durationTicks": 1,
          "midi": 38,
          "name": "D2",
          "ticks": 52170,
          "time": 191.801266,
          "velocity": 0.3228346456692913
        },
        {
          "duration": 0.0036764666666613266,
          "durationTicks": 1,
          "midi": 38,
          "name": "D2",
          "ticks": 52200,
          "time": 191.91156,
          "velocity": 0.33070866141732286
        },
        {
          "duration": 0.0036764666666613266,
          "durationTicks": 1,
          "midi": 38,
          "name": "D2",
          "ticks": 52230,
          "time": 192.02185400000002,
          "velocity": 0.33070866141732286
        },
        {
          "duration": 0.0036764666666613266,
          "durationTicks": 1,
          "midi": 38,
          "name": "D2",
          "ticks": 52260,
          "time": 192.132148,
          "velocity": 0.33858267716535434
        },
        {
          "duration": 0.0036764666666613266,
          "durationTicks": 1,
          "midi": 38,
          "name": "D2",
          "ticks": 52290,
          "time": 192.242442,
          "velocity": 0.33858267716535434
        },
        {
          "duration": 0.0036764666666897483,
          "durationTicks": 1,
          "midi": 35,
          "name": "B1",
          "ticks": 52320,
          "time": 192.352736,
          "velocity": 0.5039370078740157
        },
        {
          "duration": 0.0036764666666897483,
          "durationTicks": 1,
          "midi": 38,
          "name": "D2",
          "ticks": 52320,
          "time": 192.352736,
          "velocity": 0.5590551181102362
        },
        {
          "duration": 0.0036764666666613266,
          "durationTicks": 1,
          "midi": 38,
          "name": "D2",
          "ticks": 52350,
          "time": 192.46303,
          "velocity": 0.2992125984251969
        },
        {
          "duration": 0.0036764666666613266,
          "durationTicks": 1,
          "midi": 38,
          "name": "D2",
          "ticks": 52380,
          "time": 192.573324,
          "velocity": 0.5590551181102362
        },
        {
          "duration": 0.0036764666666613266,
          "durationTicks": 1,
          "midi": 38,
          "name": "D2",
          "ticks": 52410,
          "time": 192.683618,
          "velocity": 0.31496062992125984
        },
        {
          "duration": 0.0036764666666613266,
          "durationTicks": 1,
          "midi": 35,
          "name": "B1",
          "ticks": 52440,
          "time": 192.793912,
          "velocity": 0.5039370078740157
        },
        {
          "duration": 0.0036764666666613266,
          "durationTicks": 1,
          "midi": 38,
          "name": "D2",
          "ticks": 52440,
          "time": 192.793912,
          "velocity": 0.5590551181102362
        },
        {
          "duration": 0.0036764666666613266,
          "durationTicks": 1,
          "midi": 38,
          "name": "D2",
          "ticks": 52470,
          "time": 192.90420600000002,
          "velocity": 0.2992125984251969
        },
        {
          "duration": 0.0036764666666613266,
          "durationTicks": 1,
          "midi": 38,
          "name": "D2",
          "ticks": 52500,
          "time": 193.0145,
          "velocity": 0.5590551181102362
        },
        {
          "duration": 0.0036764666666613266,
          "durationTicks": 1,
          "midi": 38,
          "name": "D2",
          "ticks": 52530,
          "time": 193.124794,
          "velocity": 0.31496062992125984
        },
        {
          "duration": 0.0036764666666613266,
          "durationTicks": 1,
          "midi": 35,
          "name": "B1",
          "ticks": 52560,
          "time": 193.23508800000002,
          "velocity": 0.5039370078740157
        },
        {
          "duration": 0.0036764666666613266,
          "durationTicks": 1,
          "midi": 38,
          "name": "D2",
          "ticks": 52560,
          "time": 193.23508800000002,
          "velocity": 0.5590551181102362
        },
        {
          "duration": 0.0036764666666613266,
          "durationTicks": 1,
          "midi": 38,
          "name": "D2",
          "ticks": 52590,
          "time": 193.345382,
          "velocity": 0.2992125984251969
        },
        {
          "duration": 0.0036764666666613266,
          "durationTicks": 1,
          "midi": 38,
          "name": "D2",
          "ticks": 52620,
          "time": 193.455676,
          "velocity": 0.5590551181102362
        },
        {
          "duration": 0.0036764666666897483,
          "durationTicks": 1,
          "midi": 38,
          "name": "D2",
          "ticks": 52650,
          "time": 193.56597,
          "velocity": 0.31496062992125984
        },
        {
          "duration": 0.0036764666666613266,
          "durationTicks": 1,
          "midi": 35,
          "name": "B1",
          "ticks": 52680,
          "time": 193.676264,
          "velocity": 0.5039370078740157
        },
        {
          "duration": 0.0036764666666613266,
          "durationTicks": 1,
          "midi": 38,
          "name": "D2",
          "ticks": 52680,
          "time": 193.676264,
          "velocity": 0.5590551181102362
        },
        {
          "duration": 0.0036764666666613266,
          "durationTicks": 1,
          "midi": 38,
          "name": "D2",
          "ticks": 52710,
          "time": 193.786558,
          "velocity": 0.2992125984251969
        },
        {
          "duration": 0.0036764666666613266,
          "durationTicks": 1,
          "midi": 38,
          "name": "D2",
          "ticks": 52740,
          "time": 193.896852,
          "velocity": 0.5590551181102362
        },
        {
          "duration": 0.0036764666666613266,
          "durationTicks": 1,
          "midi": 38,
          "name": "D2",
          "ticks": 52770,
          "time": 194.007146,
          "velocity": 0.31496062992125984
        },
        {
          "duration": 0.0036764666666613266,
          "durationTicks": 1,
          "midi": 35,
          "name": "B1",
          "ticks": 52800,
          "time": 194.11744000000002,
          "velocity": 0.5039370078740157
        },
        {
          "duration": 0.0036764666666613266,
          "durationTicks": 1,
          "midi": 38,
          "name": "D2",
          "ticks": 52800,
          "time": 194.11744000000002,
          "velocity": 0.6377952755905512
        },
        {
          "duration": 0.0036764666666613266,
          "durationTicks": 1,
          "midi": 38,
          "name": "D2",
          "ticks": 52830,
          "time": 194.227734,
          "velocity": 0.3779527559055118
        },
        {
          "duration": 0.0036764666666613266,
          "durationTicks": 1,
          "midi": 38,
          "name": "D2",
          "ticks": 52860,
          "time": 194.338028,
          "velocity": 0.6377952755905512
        },
        {
          "duration": 0.0036764666666613266,
          "durationTicks": 1,
          "midi": 38,
          "name": "D2",
          "ticks": 52890,
          "time": 194.44832200000002,
          "velocity": 0.3937007874015748
        },
        {
          "duration": 0.0036764666666613266,
          "durationTicks": 1,
          "midi": 35,
          "name": "B1",
          "ticks": 52920,
          "time": 194.558616,
          "velocity": 0.5039370078740157
        },
        {
          "duration": 0.0036764666666613266,
          "durationTicks": 1,
          "midi": 38,
          "name": "D2",
          "ticks": 52920,
          "time": 194.558616,
          "velocity": 0.6377952755905512
        },
        {
          "duration": 0.0036764666666613266,
          "durationTicks": 1,
          "midi": 38,
          "name": "D2",
          "ticks": 52950,
          "time": 194.66891,
          "velocity": 0.3779527559055118
        },
        {
          "duration": 0.0036764666666897483,
          "durationTicks": 1,
          "midi": 38,
          "name": "D2",
          "ticks": 52980,
          "time": 194.779204,
          "velocity": 0.6377952755905512
        },
        {
          "duration": 0.0036764666666613266,
          "durationTicks": 1,
          "midi": 38,
          "name": "D2",
          "ticks": 53010,
          "time": 194.889498,
          "velocity": 0.3937007874015748
        },
        {
          "duration": 0.0036764666666613266,
          "durationTicks": 1,
          "midi": 35,
          "name": "B1",
          "ticks": 53040,
          "time": 194.999792,
          "velocity": 0.5039370078740157
        },
        {
          "duration": 0.0036764666666613266,
          "durationTicks": 1,
          "midi": 38,
          "name": "D2",
          "ticks": 53040,
          "time": 194.999792,
          "velocity": 0.6377952755905512
        },
        {
          "duration": 0.0036764666666613266,
          "durationTicks": 1,
          "midi": 38,
          "name": "D2",
          "ticks": 53070,
          "time": 195.110086,
          "velocity": 0.3779527559055118
        },
        {
          "duration": 0.0036764666666613266,
          "durationTicks": 1,
          "midi": 38,
          "name": "D2",
          "ticks": 53100,
          "time": 195.22038,
          "velocity": 0.6377952755905512
        },
        {
          "duration": 0.0036764666666613266,
          "durationTicks": 1,
          "midi": 38,
          "name": "D2",
          "ticks": 53130,
          "time": 195.33067400000002,
          "velocity": 0.3937007874015748
        },
        {
          "duration": 0.0036764666666613266,
          "durationTicks": 1,
          "midi": 35,
          "name": "B1",
          "ticks": 53160,
          "time": 195.440968,
          "velocity": 0.5039370078740157
        },
        {
          "duration": 0.0036764666666613266,
          "durationTicks": 1,
          "midi": 38,
          "name": "D2",
          "ticks": 53160,
          "time": 195.440968,
          "velocity": 0.6377952755905512
        },
        {
          "duration": 0.0036764666666613266,
          "durationTicks": 1,
          "midi": 38,
          "name": "D2",
          "ticks": 53190,
          "time": 195.551262,
          "velocity": 0.3779527559055118
        },
        {
          "duration": 0.0036764666666613266,
          "durationTicks": 1,
          "midi": 38,
          "name": "D2",
          "ticks": 53220,
          "time": 195.66155600000002,
          "velocity": 0.6377952755905512
        },
        {
          "duration": 0.0036764666666613266,
          "durationTicks": 1,
          "midi": 38,
          "name": "D2",
          "ticks": 53250,
          "time": 195.77185,
          "velocity": 0.3937007874015748
        },
        {
          "duration": 0.0036764666666613266,
          "durationTicks": 1,
          "midi": 35,
          "name": "B1",
          "ticks": 53280,
          "time": 195.882144,
          "velocity": 0.5039370078740157
        },
        {
          "duration": 0.0036764666666613266,
          "durationTicks": 1,
          "midi": 38,
          "name": "D2",
          "ticks": 53280,
          "time": 195.882144,
          "velocity": 0.7165354330708661
        },
        {
          "duration": 0.0036764666666897483,
          "durationTicks": 1,
          "midi": 38,
          "name": "D2",
          "ticks": 53310,
          "time": 195.992438,
          "velocity": 0.4566929133858268
        },
        {
          "duration": 0.0036764666666613266,
          "durationTicks": 1,
          "midi": 38,
          "name": "D2",
          "ticks": 53340,
          "time": 196.102732,
          "velocity": 0.7165354330708661
        },
        {
          "duration": 0.0036764666666613266,
          "durationTicks": 1,
          "midi": 38,
          "name": "D2",
          "ticks": 53370,
          "time": 196.213026,
          "velocity": 0.47244094488188976
        },
        {
          "duration": 0.0036764666666613266,
          "durationTicks": 1,
          "midi": 35,
          "name": "B1",
          "ticks": 53400,
          "time": 196.32332,
          "velocity": 0.5039370078740157
        },
        {
          "duration": 0.0036764666666613266,
          "durationTicks": 1,
          "midi": 38,
          "name": "D2",
          "ticks": 53400,
          "time": 196.32332,
          "velocity": 0.7165354330708661
        },
        {
          "duration": 0.0036764666666613266,
          "durationTicks": 1,
          "midi": 38,
          "name": "D2",
          "ticks": 53430,
          "time": 196.433614,
          "velocity": 0.4566929133858268
        },
        {
          "duration": 0.0036764666666613266,
          "durationTicks": 1,
          "midi": 38,
          "name": "D2",
          "ticks": 53460,
          "time": 196.54390800000002,
          "velocity": 0.7165354330708661
        },
        {
          "duration": 0.0036764666666613266,
          "durationTicks": 1,
          "midi": 38,
          "name": "D2",
          "ticks": 53490,
          "time": 196.654202,
          "velocity": 0.47244094488188976
        },
        {
          "duration": 0.0036764666666613266,
          "durationTicks": 1,
          "midi": 35,
          "name": "B1",
          "ticks": 53520,
          "time": 196.764496,
          "velocity": 0.5039370078740157
        },
        {
          "duration": 0.0036764666666613266,
          "durationTicks": 1,
          "midi": 38,
          "name": "D2",
          "ticks": 53520,
          "time": 196.764496,
          "velocity": 0.7165354330708661
        },
        {
          "duration": 0.0036764666666613266,
          "durationTicks": 1,
          "midi": 38,
          "name": "D2",
          "ticks": 53550,
          "time": 196.87479000000002,
          "velocity": 0.5275590551181102
        },
        {
          "duration": 0.0036764666666613266,
          "durationTicks": 1,
          "midi": 38,
          "name": "D2",
          "ticks": 53580,
          "time": 196.985084,
          "velocity": 0.7874015748031497
        },
        {
          "duration": 0.0036764666666613266,
          "durationTicks": 1,
          "midi": 38,
          "name": "D2",
          "ticks": 53610,
          "time": 197.095378,
          "velocity": 0.5433070866141733
        },
        {
          "duration": 0.0036764666666897483,
          "durationTicks": 1,
          "midi": 35,
          "name": "B1",
          "ticks": 53640,
          "time": 197.205672,
          "velocity": 0.5039370078740157
        },
        {
          "duration": 0.0036764666666897483,
          "durationTicks": 1,
          "midi": 38,
          "name": "D2",
          "ticks": 53640,
          "time": 197.205672,
          "velocity": 0.7874015748031497
        },
        {
          "duration": 0.0036764666666613266,
          "durationTicks": 1,
          "midi": 38,
          "name": "D2",
          "ticks": 53670,
          "time": 197.315966,
          "velocity": 0.5275590551181102
        },
        {
          "duration": 0.0036764666666613266,
          "durationTicks": 1,
          "midi": 38,
          "name": "D2",
          "ticks": 53700,
          "time": 197.42626,
          "velocity": 0.7874015748031497
        },
        {
          "duration": 0.0036764666666613266,
          "durationTicks": 1,
          "midi": 38,
          "name": "D2",
          "ticks": 53730,
          "time": 197.536554,
          "velocity": 0.5433070866141733
        },
        {
          "duration": 0.0036764666666613266,
          "durationTicks": 1,
          "midi": 29,
          "name": "F1",
          "ticks": 53760,
          "time": 197.646848,
          "velocity": 0.7874015748031497
        },
        {
          "duration": 0.0036764666666613266,
          "durationTicks": 1,
          "midi": 29,
          "name": "F1",
          "ticks": 53790,
          "time": 197.75714200000002,
          "velocity": 0.7874015748031497
        },
        {
          "duration": 0.0036764666666613266,
          "durationTicks": 1,
          "midi": 29,
          "name": "F1",
          "ticks": 53820,
          "time": 197.867436,
          "velocity": 0.7874015748031497
        },
        {
          "duration": 0.0036764666666613266,
          "durationTicks": 1,
          "midi": 29,
          "name": "F1",
          "ticks": 53850,
          "time": 197.97773,
          "velocity": 0.7874015748031497
        },
        {
          "duration": 0.0036764666666613266,
          "durationTicks": 1,
          "midi": 30,
          "name": "F#1",
          "ticks": 53880,
          "time": 198.08802400000002,
          "velocity": 0.7874015748031497
        },
        {
          "duration": 0.0036764666666613266,
          "durationTicks": 1,
          "midi": 30,
          "name": "F#1",
          "ticks": 53910,
          "time": 198.198318,
          "velocity": 0.7874015748031497
        },
        {
          "duration": 0.0036764666666613266,
          "durationTicks": 1,
          "midi": 30,
          "name": "F#1",
          "ticks": 53940,
          "time": 198.308612,
          "velocity": 0.7874015748031497
        },
        {
          "duration": 0.0036764666666897483,
          "durationTicks": 1,
          "midi": 30,
          "name": "F#1",
          "ticks": 53970,
          "time": 198.418906,
          "velocity": 0.7874015748031497
        },
        {
          "duration": 0.0036764666666613266,
          "durationTicks": 1,
          "midi": 57,
          "name": "A3",
          "ticks": 54239,
          "time": 199.40787553333334,
          "velocity": 0.7874015748031497
        },
        {
          "duration": 0.0036764666666613266,
          "durationTicks": 1,
          "midi": 36,
          "name": "C2",
          "ticks": 54240,
          "time": 199.411552,
          "velocity": 0.7874015748031497
        },
        {
          "duration": 0.0036764666666897483,
          "durationTicks": 1,
          "midi": 42,
          "name": "F#2",
          "ticks": 54300,
          "time": 199.63214,
          "velocity": 0.7874015748031497
        },
        {
          "duration": 0.0036764666666613266,
          "durationTicks": 1,
          "midi": 36,
          "name": "C2",
          "ticks": 54360,
          "time": 199.852728,
          "velocity": 0.7874015748031497
        },
        {
          "duration": 0.0036764666666613266,
          "durationTicks": 1,
          "midi": 38,
          "name": "D2",
          "ticks": 54360,
          "time": 199.852728,
          "velocity": 0.7874015748031497
        },
        {
          "duration": 0.0036764666666613266,
          "durationTicks": 1,
          "midi": 39,
          "name": "D#2",
          "ticks": 54360,
          "time": 199.852728,
          "velocity": 0.7874015748031497
        },
        {
          "duration": 0.0036764666666613266,
          "durationTicks": 1,
          "midi": 42,
          "name": "F#2",
          "ticks": 54360,
          "time": 199.852728,
          "velocity": 0.7874015748031497
        },
        {
          "duration": 0.0036764666666613266,
          "durationTicks": 1,
          "midi": 42,
          "name": "F#2",
          "ticks": 54420,
          "time": 200.073316,
          "velocity": 0.7874015748031497
        },
        {
          "duration": 0.0036764666666613266,
          "durationTicks": 1,
          "midi": 36,
          "name": "C2",
          "ticks": 54480,
          "time": 200.293904,
          "velocity": 0.7874015748031497
        },
        {
          "duration": 0.0036764666666613266,
          "durationTicks": 1,
          "midi": 42,
          "name": "F#2",
          "ticks": 54480,
          "time": 200.293904,
          "velocity": 0.7874015748031497
        },
        {
          "duration": 0.0036764666666613266,
          "durationTicks": 1,
          "midi": 42,
          "name": "F#2",
          "ticks": 54540,
          "time": 200.51449200000002,
          "velocity": 0.7874015748031497
        },
        {
          "duration": 0.0036764666666613266,
          "durationTicks": 1,
          "midi": 36,
          "name": "C2",
          "ticks": 54600,
          "time": 200.73508,
          "velocity": 0.7874015748031497
        },
        {
          "duration": 0.0036764666666613266,
          "durationTicks": 1,
          "midi": 38,
          "name": "D2",
          "ticks": 54600,
          "time": 200.73508,
          "velocity": 0.7874015748031497
        },
        {
          "duration": 0.0036764666666613266,
          "durationTicks": 1,
          "midi": 39,
          "name": "D#2",
          "ticks": 54600,
          "time": 200.73508,
          "velocity": 0.7874015748031497
        },
        {
          "duration": 0.0036764666666613266,
          "durationTicks": 1,
          "midi": 42,
          "name": "F#2",
          "ticks": 54600,
          "time": 200.73508,
          "velocity": 0.7874015748031497
        },
        {
          "duration": 0.0036764666666613266,
          "durationTicks": 1,
          "midi": 42,
          "name": "F#2",
          "ticks": 54660,
          "time": 200.955668,
          "velocity": 0.7874015748031497
        },
        {
          "duration": 0.0036764666666613266,
          "durationTicks": 1,
          "midi": 36,
          "name": "C2",
          "ticks": 54720,
          "time": 201.176256,
          "velocity": 0.7874015748031497
        },
        {
          "duration": 0.0036764666666613266,
          "durationTicks": 1,
          "midi": 42,
          "name": "F#2",
          "ticks": 54720,
          "time": 201.176256,
          "velocity": 0.7874015748031497
        },
        {
          "duration": 0.0036764666666613266,
          "durationTicks": 1,
          "midi": 42,
          "name": "F#2",
          "ticks": 54780,
          "time": 201.39684400000002,
          "velocity": 0.7874015748031497
        },
        {
          "duration": 0.0036764666666613266,
          "durationTicks": 1,
          "midi": 36,
          "name": "C2",
          "ticks": 54840,
          "time": 201.617432,
          "velocity": 0.7874015748031497
        },
        {
          "duration": 0.0036764666666613266,
          "durationTicks": 1,
          "midi": 38,
          "name": "D2",
          "ticks": 54840,
          "time": 201.617432,
          "velocity": 0.7874015748031497
        },
        {
          "duration": 0.0036764666666613266,
          "durationTicks": 1,
          "midi": 39,
          "name": "D#2",
          "ticks": 54840,
          "time": 201.617432,
          "velocity": 0.7874015748031497
        },
        {
          "duration": 0.0036764666666613266,
          "durationTicks": 1,
          "midi": 42,
          "name": "F#2",
          "ticks": 54840,
          "time": 201.617432,
          "velocity": 0.7874015748031497
        },
        {
          "duration": 0.0036764666666613266,
          "durationTicks": 1,
          "midi": 42,
          "name": "F#2",
          "ticks": 54900,
          "time": 201.83802,
          "velocity": 0.7874015748031497
        },
        {
          "duration": 0.0036764666666897483,
          "durationTicks": 1,
          "midi": 36,
          "name": "C2",
          "ticks": 54960,
          "time": 202.058608,
          "velocity": 0.7874015748031497
        },
        {
          "duration": 0.0036764666666897483,
          "durationTicks": 1,
          "midi": 42,
          "name": "F#2",
          "ticks": 54960,
          "time": 202.058608,
          "velocity": 0.7874015748031497
        },
        {
          "duration": 0.0036764666666613266,
          "durationTicks": 1,
          "midi": 42,
          "name": "F#2",
          "ticks": 55020,
          "time": 202.279196,
          "velocity": 0.7874015748031497
        },
        {
          "duration": 0.0036764666666613266,
          "durationTicks": 1,
          "midi": 36,
          "name": "C2",
          "ticks": 55080,
          "time": 202.499784,
          "velocity": 0.7874015748031497
        },
        {
          "duration": 0.0036764666666613266,
          "durationTicks": 1,
          "midi": 38,
          "name": "D2",
          "ticks": 55080,
          "time": 202.499784,
          "velocity": 0.7874015748031497
        },
        {
          "duration": 0.0036764666666613266,
          "durationTicks": 1,
          "midi": 39,
          "name": "D#2",
          "ticks": 55080,
          "time": 202.499784,
          "velocity": 0.7874015748031497
        },
        {
          "duration": 0.0036764666666613266,
          "durationTicks": 1,
          "midi": 42,
          "name": "F#2",
          "ticks": 55080,
          "time": 202.499784,
          "velocity": 0.7874015748031497
        },
        {
          "duration": 0.0036764666666613266,
          "durationTicks": 1,
          "midi": 42,
          "name": "F#2",
          "ticks": 55140,
          "time": 202.720372,
          "velocity": 0.7874015748031497
        },
        {
          "duration": 0.0036764666666613266,
          "durationTicks": 1,
          "midi": 36,
          "name": "C2",
          "ticks": 55200,
          "time": 202.94096000000002,
          "velocity": 0.7874015748031497
        },
        {
          "duration": 0.0036764666666613266,
          "durationTicks": 1,
          "midi": 42,
          "name": "F#2",
          "ticks": 55200,
          "time": 202.94096000000002,
          "velocity": 0.7874015748031497
        },
        {
          "duration": 0.0036764666666613266,
          "durationTicks": 1,
          "midi": 42,
          "name": "F#2",
          "ticks": 55260,
          "time": 203.161548,
          "velocity": 0.7874015748031497
        },
        {
          "duration": 0.0036764666666613266,
          "durationTicks": 1,
          "midi": 36,
          "name": "C2",
          "ticks": 55320,
          "time": 203.382136,
          "velocity": 0.7874015748031497
        },
        {
          "duration": 0.0036764666666613266,
          "durationTicks": 1,
          "midi": 38,
          "name": "D2",
          "ticks": 55320,
          "time": 203.382136,
          "velocity": 0.7874015748031497
        },
        {
          "duration": 0.0036764666666613266,
          "durationTicks": 1,
          "midi": 39,
          "name": "D#2",
          "ticks": 55320,
          "time": 203.382136,
          "velocity": 0.7874015748031497
        },
        {
          "duration": 0.0036764666666613266,
          "durationTicks": 1,
          "midi": 42,
          "name": "F#2",
          "ticks": 55320,
          "time": 203.382136,
          "velocity": 0.7874015748031497
        },
        {
          "duration": 0.0036764666666613266,
          "durationTicks": 1,
          "midi": 42,
          "name": "F#2",
          "ticks": 55380,
          "time": 203.602724,
          "velocity": 0.7874015748031497
        },
        {
          "duration": 0.0036764666666613266,
          "durationTicks": 1,
          "midi": 36,
          "name": "C2",
          "ticks": 55440,
          "time": 203.82331200000002,
          "velocity": 0.7874015748031497
        },
        {
          "duration": 0.0036764666666613266,
          "durationTicks": 1,
          "midi": 42,
          "name": "F#2",
          "ticks": 55440,
          "time": 203.82331200000002,
          "velocity": 0.7874015748031497
        },
        {
          "duration": 0.0036764666666613266,
          "durationTicks": 1,
          "midi": 42,
          "name": "F#2",
          "ticks": 55500,
          "time": 204.0439,
          "velocity": 0.7874015748031497
        },
        {
          "duration": 0.0036764666666613266,
          "durationTicks": 1,
          "midi": 36,
          "name": "C2",
          "ticks": 55560,
          "time": 204.264488,
          "velocity": 0.7874015748031497
        },
        {
          "duration": 0.0036764666666613266,
          "durationTicks": 1,
          "midi": 38,
          "name": "D2",
          "ticks": 55560,
          "time": 204.264488,
          "velocity": 0.7874015748031497
        },
        {
          "duration": 0.0036764666666613266,
          "durationTicks": 1,
          "midi": 39,
          "name": "D#2",
          "ticks": 55560,
          "time": 204.264488,
          "velocity": 0.7874015748031497
        },
        {
          "duration": 0.0036764666666613266,
          "durationTicks": 1,
          "midi": 42,
          "name": "F#2",
          "ticks": 55560,
          "time": 204.264488,
          "velocity": 0.7874015748031497
        },
        {
          "duration": 0.0036764666666897483,
          "durationTicks": 1,
          "midi": 42,
          "name": "F#2",
          "ticks": 55620,
          "time": 204.485076,
          "velocity": 0.7874015748031497
        },
        {
          "duration": 0.0036764666666613266,
          "durationTicks": 1,
          "midi": 36,
          "name": "C2",
          "ticks": 55680,
          "time": 204.705664,
          "velocity": 0.7874015748031497
        },
        {
          "duration": 0.0036764666666613266,
          "durationTicks": 1,
          "midi": 42,
          "name": "F#2",
          "ticks": 55680,
          "time": 204.705664,
          "velocity": 0.7874015748031497
        },
        {
          "duration": 0.0036764666666613266,
          "durationTicks": 1,
          "midi": 42,
          "name": "F#2",
          "ticks": 55740,
          "time": 204.926252,
          "velocity": 0.7874015748031497
        },
        {
          "duration": 0.0036764666666613266,
          "durationTicks": 1,
          "midi": 36,
          "name": "C2",
          "ticks": 55800,
          "time": 205.14684,
          "velocity": 0.7874015748031497
        },
        {
          "duration": 0.0036764666666613266,
          "durationTicks": 1,
          "midi": 38,
          "name": "D2",
          "ticks": 55800,
          "time": 205.14684,
          "velocity": 0.7874015748031497
        },
        {
          "duration": 0.0036764666666613266,
          "durationTicks": 1,
          "midi": 39,
          "name": "D#2",
          "ticks": 55800,
          "time": 205.14684,
          "velocity": 0.7874015748031497
        },
        {
          "duration": 0.0036764666666613266,
          "durationTicks": 1,
          "midi": 42,
          "name": "F#2",
          "ticks": 55800,
          "time": 205.14684,
          "velocity": 0.7874015748031497
        },
        {
          "duration": 0.0036764666666613266,
          "durationTicks": 1,
          "midi": 42,
          "name": "F#2",
          "ticks": 55860,
          "time": 205.36742800000002,
          "velocity": 0.7874015748031497
        },
        {
          "duration": 0.0036764666666613266,
          "durationTicks": 1,
          "midi": 36,
          "name": "C2",
          "ticks": 55920,
          "time": 205.588016,
          "velocity": 0.7874015748031497
        },
        {
          "duration": 0.0036764666666613266,
          "durationTicks": 1,
          "midi": 42,
          "name": "F#2",
          "ticks": 55920,
          "time": 205.588016,
          "velocity": 0.7874015748031497
        },
        {
          "duration": 0.0036764666666613266,
          "durationTicks": 1,
          "midi": 42,
          "name": "F#2",
          "ticks": 55980,
          "time": 205.808604,
          "velocity": 0.7874015748031497
        },
        {
          "duration": 0.0036764666666613266,
          "durationTicks": 1,
          "midi": 36,
          "name": "C2",
          "ticks": 56040,
          "time": 206.029192,
          "velocity": 0.7874015748031497
        },
        {
          "duration": 0.0036764666666613266,
          "durationTicks": 1,
          "midi": 38,
          "name": "D2",
          "ticks": 56040,
          "time": 206.029192,
          "velocity": 0.7874015748031497
        },
        {
          "duration": 0.0036764666666613266,
          "durationTicks": 1,
          "midi": 39,
          "name": "D#2",
          "ticks": 56040,
          "time": 206.029192,
          "velocity": 0.7874015748031497
        },
        {
          "duration": 0.0036764666666613266,
          "durationTicks": 1,
          "midi": 42,
          "name": "F#2",
          "ticks": 56040,
          "time": 206.029192,
          "velocity": 0.7874015748031497
        },
        {
          "duration": 0.0036764666666613266,
          "durationTicks": 1,
          "midi": 42,
          "name": "F#2",
          "ticks": 56100,
          "time": 206.24978000000002,
          "velocity": 0.7874015748031497
        },
        {
          "duration": 0.0036764666666613266,
          "durationTicks": 1,
          "midi": 46,
          "name": "A#2",
          "ticks": 56130,
          "time": 206.360074,
          "velocity": 0.7874015748031497
        },
        {
          "duration": 0.0036764666666613266,
          "durationTicks": 1,
          "midi": 36,
          "name": "C2",
          "ticks": 56160,
          "time": 206.470368,
          "velocity": 0.7874015748031497
        },
        {
          "duration": 0.0036764666666613266,
          "durationTicks": 1,
          "midi": 42,
          "name": "F#2",
          "ticks": 56160,
          "time": 206.470368,
          "velocity": 0.7874015748031497
        },
        {
          "duration": 0.0036764666666613266,
          "durationTicks": 1,
          "midi": 42,
          "name": "F#2",
          "ticks": 56220,
          "time": 206.690956,
          "velocity": 0.7874015748031497
        },
        {
          "duration": 0.0036764666666897483,
          "durationTicks": 1,
          "midi": 36,
          "name": "C2",
          "ticks": 56280,
          "time": 206.911544,
          "velocity": 0.7874015748031497
        },
        {
          "duration": 0.0036764666666897483,
          "durationTicks": 1,
          "midi": 38,
          "name": "D2",
          "ticks": 56280,
          "time": 206.911544,
          "velocity": 0.7874015748031497
        },
        {
          "duration": 0.0036764666666897483,
          "durationTicks": 1,
          "midi": 39,
          "name": "D#2",
          "ticks": 56280,
          "time": 206.911544,
          "velocity": 0.7874015748031497
        },
        {
          "duration": 0.0036764666666897483,
          "durationTicks": 1,
          "midi": 42,
          "name": "F#2",
          "ticks": 56280,
          "time": 206.911544,
          "velocity": 0.7874015748031497
        },
        {
          "duration": 0.0036764666666613266,
          "durationTicks": 1,
          "midi": 42,
          "name": "F#2",
          "ticks": 56340,
          "time": 207.132132,
          "velocity": 0.7874015748031497
        },
        {
          "duration": 0.0036764666666613266,
          "durationTicks": 1,
          "midi": 36,
          "name": "C2",
          "ticks": 56400,
          "time": 207.35272,
          "velocity": 0.7874015748031497
        },
        {
          "duration": 0.0036764666666613266,
          "durationTicks": 1,
          "midi": 42,
          "name": "F#2",
          "ticks": 56400,
          "time": 207.35272,
          "velocity": 0.7874015748031497
        },
        {
          "duration": 0.0036764666666613266,
          "durationTicks": 1,
          "midi": 42,
          "name": "F#2",
          "ticks": 56460,
          "time": 207.573308,
          "velocity": 0.7874015748031497
        },
        {
          "duration": 0.0036764666666613266,
          "durationTicks": 1,
          "midi": 36,
          "name": "C2",
          "ticks": 56520,
          "time": 207.79389600000002,
          "velocity": 0.7874015748031497
        },
        {
          "duration": 0.0036764666666613266,
          "durationTicks": 1,
          "midi": 38,
          "name": "D2",
          "ticks": 56520,
          "time": 207.79389600000002,
          "velocity": 0.7874015748031497
        },
        {
          "duration": 0.0036764666666613266,
          "durationTicks": 1,
          "midi": 39,
          "name": "D#2",
          "ticks": 56520,
          "time": 207.79389600000002,
          "velocity": 0.7874015748031497
        },
        {
          "duration": 0.0036764666666613266,
          "durationTicks": 1,
          "midi": 42,
          "name": "F#2",
          "ticks": 56520,
          "time": 207.79389600000002,
          "velocity": 0.7874015748031497
        },
        {
          "duration": 0.0036764666666613266,
          "durationTicks": 1,
          "midi": 42,
          "name": "F#2",
          "ticks": 56580,
          "time": 208.014484,
          "velocity": 0.7874015748031497
        },
        {
          "duration": 0.0036764666666613266,
          "durationTicks": 1,
          "midi": 36,
          "name": "C2",
          "ticks": 56640,
          "time": 208.235072,
          "velocity": 0.7874015748031497
        },
        {
          "duration": 0.0036764666666613266,
          "durationTicks": 1,
          "midi": 42,
          "name": "F#2",
          "ticks": 56640,
          "time": 208.235072,
          "velocity": 0.7874015748031497
        },
        {
          "duration": 0.0036764666666613266,
          "durationTicks": 1,
          "midi": 42,
          "name": "F#2",
          "ticks": 56700,
          "time": 208.45566,
          "velocity": 0.7874015748031497
        },
        {
          "duration": 0.0036764666666613266,
          "durationTicks": 1,
          "midi": 36,
          "name": "C2",
          "ticks": 56760,
          "time": 208.67624800000002,
          "velocity": 0.7874015748031497
        },
        {
          "duration": 0.0036764666666613266,
          "durationTicks": 1,
          "midi": 38,
          "name": "D2",
          "ticks": 56760,
          "time": 208.67624800000002,
          "velocity": 0.7874015748031497
        },
        {
          "duration": 0.0036764666666613266,
          "durationTicks": 1,
          "midi": 39,
          "name": "D#2",
          "ticks": 56760,
          "time": 208.67624800000002,
          "velocity": 0.7874015748031497
        },
        {
          "duration": 0.0036764666666613266,
          "durationTicks": 1,
          "midi": 42,
          "name": "F#2",
          "ticks": 56760,
          "time": 208.67624800000002,
          "velocity": 0.7874015748031497
        },
        {
          "duration": 0.0036764666666613266,
          "durationTicks": 1,
          "midi": 42,
          "name": "F#2",
          "ticks": 56820,
          "time": 208.896836,
          "velocity": 0.7874015748031497
        },
        {
          "duration": 0.0036764666666613266,
          "durationTicks": 1,
          "midi": 36,
          "name": "C2",
          "ticks": 56880,
          "time": 209.117424,
          "velocity": 0.7874015748031497
        },
        {
          "duration": 0.0036764666666613266,
          "durationTicks": 1,
          "midi": 42,
          "name": "F#2",
          "ticks": 56880,
          "time": 209.117424,
          "velocity": 0.7874015748031497
        },
        {
          "duration": 0.0036764666666897483,
          "durationTicks": 1,
          "midi": 42,
          "name": "F#2",
          "ticks": 56940,
          "time": 209.338012,
          "velocity": 0.7874015748031497
        },
        {
          "duration": 0.0036764666666613266,
          "durationTicks": 1,
          "midi": 36,
          "name": "C2",
          "ticks": 57000,
          "time": 209.5586,
          "velocity": 0.7874015748031497
        },
        {
          "duration": 0.0036764666666613266,
          "durationTicks": 1,
          "midi": 38,
          "name": "D2",
          "ticks": 57000,
          "time": 209.5586,
          "velocity": 0.7874015748031497
        },
        {
          "duration": 0.0036764666666613266,
          "durationTicks": 1,
          "midi": 39,
          "name": "D#2",
          "ticks": 57000,
          "time": 209.5586,
          "velocity": 0.7874015748031497
        },
        {
          "duration": 0.0036764666666613266,
          "durationTicks": 1,
          "midi": 42,
          "name": "F#2",
          "ticks": 57000,
          "time": 209.5586,
          "velocity": 0.7874015748031497
        },
        {
          "duration": 0.0036764666666613266,
          "durationTicks": 1,
          "midi": 42,
          "name": "F#2",
          "ticks": 57060,
          "time": 209.779188,
          "velocity": 0.7874015748031497
        },
        {
          "duration": 0.0036764666666613266,
          "durationTicks": 1,
          "midi": 36,
          "name": "C2",
          "ticks": 57120,
          "time": 209.999776,
          "velocity": 0.7874015748031497
        },
        {
          "duration": 0.0036764666666613266,
          "durationTicks": 1,
          "midi": 42,
          "name": "F#2",
          "ticks": 57120,
          "time": 209.999776,
          "velocity": 0.7874015748031497
        },
        {
          "duration": 0.0036764666666613266,
          "durationTicks": 1,
          "midi": 42,
          "name": "F#2",
          "ticks": 57180,
          "time": 210.22036400000002,
          "velocity": 0.7874015748031497
        },
        {
          "duration": 0.0036764666666613266,
          "durationTicks": 1,
          "midi": 36,
          "name": "C2",
          "ticks": 57240,
          "time": 210.440952,
          "velocity": 0.7874015748031497
        },
        {
          "duration": 0.0036764666666613266,
          "durationTicks": 1,
          "midi": 38,
          "name": "D2",
          "ticks": 57240,
          "time": 210.440952,
          "velocity": 0.7874015748031497
        },
        {
          "duration": 0.0036764666666613266,
          "durationTicks": 1,
          "midi": 39,
          "name": "D#2",
          "ticks": 57240,
          "time": 210.440952,
          "velocity": 0.7874015748031497
        },
        {
          "duration": 0.0036764666666613266,
          "durationTicks": 1,
          "midi": 42,
          "name": "F#2",
          "ticks": 57240,
          "time": 210.440952,
          "velocity": 0.7874015748031497
        },
        {
          "duration": 0.0036764666666613266,
          "durationTicks": 1,
          "midi": 42,
          "name": "F#2",
          "ticks": 57300,
          "time": 210.66154,
          "velocity": 0.7874015748031497
        },
        {
          "duration": 0.0036764666666613266,
          "durationTicks": 1,
          "midi": 36,
          "name": "C2",
          "ticks": 57360,
          "time": 210.882128,
          "velocity": 0.7874015748031497
        },
        {
          "duration": 0.0036764666666613266,
          "durationTicks": 1,
          "midi": 42,
          "name": "F#2",
          "ticks": 57360,
          "time": 210.882128,
          "velocity": 0.7874015748031497
        },
        {
          "duration": 0.0036764666666613266,
          "durationTicks": 1,
          "midi": 42,
          "name": "F#2",
          "ticks": 57420,
          "time": 211.10271600000002,
          "velocity": 0.7874015748031497
        },
        {
          "duration": 0.0036764666666613266,
          "durationTicks": 1,
          "midi": 36,
          "name": "C2",
          "ticks": 57480,
          "time": 211.323304,
          "velocity": 0.7874015748031497
        },
        {
          "duration": 0.0036764666666613266,
          "durationTicks": 1,
          "midi": 38,
          "name": "D2",
          "ticks": 57480,
          "time": 211.323304,
          "velocity": 0.7874015748031497
        },
        {
          "duration": 0.0036764666666613266,
          "durationTicks": 1,
          "midi": 39,
          "name": "D#2",
          "ticks": 57480,
          "time": 211.323304,
          "velocity": 0.7874015748031497
        },
        {
          "duration": 0.0036764666666613266,
          "durationTicks": 1,
          "midi": 42,
          "name": "F#2",
          "ticks": 57480,
          "time": 211.323304,
          "velocity": 0.7874015748031497
        },
        {
          "duration": 0.0036764666666613266,
          "durationTicks": 1,
          "midi": 42,
          "name": "F#2",
          "ticks": 57540,
          "time": 211.543892,
          "velocity": 0.7874015748031497
        },
        {
          "duration": 0.0036764666666897483,
          "durationTicks": 1,
          "midi": 42,
          "name": "F#2",
          "ticks": 57600,
          "time": 211.76448,
          "velocity": 0.7874015748031497
        },
        {
          "duration": 0.0036764666666613266,
          "durationTicks": 1,
          "midi": 42,
          "name": "F#2",
          "ticks": 57660,
          "time": 211.985068,
          "velocity": 0.7874015748031497
        },
        {
          "duration": 0.0036764666666613266,
          "durationTicks": 1,
          "midi": 38,
          "name": "D2",
          "ticks": 57720,
          "time": 212.205656,
          "velocity": 0.7874015748031497
        },
        {
          "duration": 0.0036764666666613266,
          "durationTicks": 1,
          "midi": 39,
          "name": "D#2",
          "ticks": 57720,
          "time": 212.205656,
          "velocity": 0.7874015748031497
        },
        {
          "duration": 0.0036764666666613266,
          "durationTicks": 1,
          "midi": 42,
          "name": "F#2",
          "ticks": 57720,
          "time": 212.205656,
          "velocity": 0.7874015748031497
        },
        {
          "duration": 0.0036764666666613266,
          "durationTicks": 1,
          "midi": 30,
          "name": "F#1",
          "ticks": 57720,
          "time": 212.205656,
          "velocity": 0.7874015748031497
        },
        {
          "duration": 0.0036764666666613266,
          "durationTicks": 1,
          "midi": 29,
          "name": "F1",
          "ticks": 57750,
          "time": 212.31595000000002,
          "velocity": 0.7874015748031497
        },
        {
          "duration": 0.0036764666666613266,
          "durationTicks": 1,
          "midi": 42,
          "name": "F#2",
          "ticks": 57780,
          "time": 212.426244,
          "velocity": 0.7874015748031497
        },
        {
          "duration": 0.0036764666666613266,
          "durationTicks": 1,
          "midi": 30,
          "name": "F#1",
          "ticks": 57780,
          "time": 212.426244,
          "velocity": 0.7874015748031497
        },
        {
          "duration": 0.0036764666666613266,
          "durationTicks": 1,
          "midi": 29,
          "name": "F1",
          "ticks": 57810,
          "time": 212.536538,
          "velocity": 0.7874015748031497
        },
        {
          "duration": 0.0036764666666613266,
          "durationTicks": 1,
          "midi": 28,
          "name": "E1",
          "ticks": 57840,
          "time": 212.64683200000002,
          "velocity": 0.7874015748031497
        },
        {
          "duration": 0.0036764666666613266,
          "durationTicks": 1,
          "midi": 38,
          "name": "D2",
          "ticks": 57917,
          "time": 212.92991993333334,
          "velocity": 0.7874015748031497
        },
        {
          "duration": 0.0036764666666613266,
          "durationTicks": 1,
          "midi": 38,
          "name": "D2",
          "ticks": 57936,
          "time": 212.99977280000002,
          "velocity": 0.7874015748031497
        },
        {
          "duration": 0.0036764666666613266,
          "durationTicks": 1,
          "midi": 45,
          "name": "A2",
          "ticks": 57960,
          "time": 213.088008,
          "velocity": 0.7874015748031497
        },
        {
          "duration": 0.0036764666666613266,
          "durationTicks": 1,
          "midi": 43,
          "name": "G2",
          "ticks": 58020,
          "time": 213.308596,
          "velocity": 0.7874015748031497
        },
        {
          "duration": 0.0036764666666613266,
          "durationTicks": 1,
          "midi": 57,
          "name": "A3",
          "ticks": 58079,
          "time": 213.52550753333335,
          "velocity": 0.7874015748031497
        },
        {
          "duration": 0.0036764666666613266,
          "durationTicks": 1,
          "midi": 36,
          "name": "C2",
          "ticks": 58080,
          "time": 213.52918400000001,
          "velocity": 0.7874015748031497
        },
        {
          "duration": 0.0036764666666613266,
          "durationTicks": 1,
          "midi": 42,
          "name": "F#2",
          "ticks": 58140,
          "time": 213.749772,
          "velocity": 0.7874015748031497
        },
        {
          "duration": 0.0036764666666613266,
          "durationTicks": 1,
          "midi": 36,
          "name": "C2",
          "ticks": 58200,
          "time": 213.97036,
          "velocity": 0.7874015748031497
        },
        {
          "duration": 0.0036764666666613266,
          "durationTicks": 1,
          "midi": 38,
          "name": "D2",
          "ticks": 58200,
          "time": 213.97036,
          "velocity": 0.7874015748031497
        },
        {
          "duration": 0.0036764666666613266,
          "durationTicks": 1,
          "midi": 39,
          "name": "D#2",
          "ticks": 58200,
          "time": 213.97036,
          "velocity": 0.7874015748031497
        },
        {
          "duration": 0.0036764666666613266,
          "durationTicks": 1,
          "midi": 42,
          "name": "F#2",
          "ticks": 58200,
          "time": 213.97036,
          "velocity": 0.7874015748031497
        },
        {
          "duration": 0.0036764666666613266,
          "durationTicks": 1,
          "midi": 42,
          "name": "F#2",
          "ticks": 58260,
          "time": 214.19094800000002,
          "velocity": 0.7874015748031497
        },
        {
          "duration": 0.0036764666666613266,
          "durationTicks": 1,
          "midi": 36,
          "name": "C2",
          "ticks": 58320,
          "time": 214.411536,
          "velocity": 0.7874015748031497
        },
        {
          "duration": 0.0036764666666613266,
          "durationTicks": 1,
          "midi": 42,
          "name": "F#2",
          "ticks": 58320,
          "time": 214.411536,
          "velocity": 0.7874015748031497
        },
        {
          "duration": 0.0036764666666613266,
          "durationTicks": 1,
          "midi": 42,
          "name": "F#2",
          "ticks": 58380,
          "time": 214.632124,
          "velocity": 0.7874015748031497
        },
        {
          "duration": 0.0036764666666613266,
          "durationTicks": 1,
          "midi": 36,
          "name": "C2",
          "ticks": 58440,
          "time": 214.852712,
          "velocity": 0.7874015748031497
        },
        {
          "duration": 0.0036764666666613266,
          "durationTicks": 1,
          "midi": 38,
          "name": "D2",
          "ticks": 58440,
          "time": 214.852712,
          "velocity": 0.7874015748031497
        },
        {
          "duration": 0.0036764666666613266,
          "durationTicks": 1,
          "midi": 39,
          "name": "D#2",
          "ticks": 58440,
          "time": 214.852712,
          "velocity": 0.7874015748031497
        },
        {
          "duration": 0.0036764666666613266,
          "durationTicks": 1,
          "midi": 42,
          "name": "F#2",
          "ticks": 58440,
          "time": 214.852712,
          "velocity": 0.7874015748031497
        },
        {
          "duration": 0.0036764666666613266,
          "durationTicks": 1,
          "midi": 42,
          "name": "F#2",
          "ticks": 58500,
          "time": 215.07330000000002,
          "velocity": 0.7874015748031497
        },
        {
          "duration": 0.0036764666666613266,
          "durationTicks": 1,
          "midi": 36,
          "name": "C2",
          "ticks": 58560,
          "time": 215.293888,
          "velocity": 0.7874015748031497
        },
        {
          "duration": 0.0036764666666613266,
          "durationTicks": 1,
          "midi": 42,
          "name": "F#2",
          "ticks": 58560,
          "time": 215.293888,
          "velocity": 0.7874015748031497
        },
        {
          "duration": 0.0036764666666613266,
          "durationTicks": 1,
          "midi": 42,
          "name": "F#2",
          "ticks": 58620,
          "time": 215.514476,
          "velocity": 0.7874015748031497
        },
        {
          "duration": 0.0036764666666613266,
          "durationTicks": 1,
          "midi": 36,
          "name": "C2",
          "ticks": 58680,
          "time": 215.735064,
          "velocity": 0.7874015748031497
        },
        {
          "duration": 0.0036764666666613266,
          "durationTicks": 1,
          "midi": 38,
          "name": "D2",
          "ticks": 58680,
          "time": 215.735064,
          "velocity": 0.7874015748031497
        },
        {
          "duration": 0.0036764666666613266,
          "durationTicks": 1,
          "midi": 39,
          "name": "D#2",
          "ticks": 58680,
          "time": 215.735064,
          "velocity": 0.7874015748031497
        },
        {
          "duration": 0.0036764666666613266,
          "durationTicks": 1,
          "midi": 42,
          "name": "F#2",
          "ticks": 58680,
          "time": 215.735064,
          "velocity": 0.7874015748031497
        },
        {
          "duration": 0.0036764666666613266,
          "durationTicks": 1,
          "midi": 42,
          "name": "F#2",
          "ticks": 58740,
          "time": 215.95565200000001,
          "velocity": 0.7874015748031497
        },
        {
          "duration": 0.0036764666666613266,
          "durationTicks": 1,
          "midi": 36,
          "name": "C2",
          "ticks": 58800,
          "time": 216.17624,
          "velocity": 0.7874015748031497
        },
        {
          "duration": 0.0036764666666613266,
          "durationTicks": 1,
          "midi": 42,
          "name": "F#2",
          "ticks": 58800,
          "time": 216.17624,
          "velocity": 0.7874015748031497
        },
        {
          "duration": 0.0036764666666613266,
          "durationTicks": 1,
          "midi": 42,
          "name": "F#2",
          "ticks": 58860,
          "time": 216.396828,
          "velocity": 0.7874015748031497
        },
        {
          "duration": 0.0036764666666613266,
          "durationTicks": 1,
          "midi": 36,
          "name": "C2",
          "ticks": 58920,
          "time": 216.61741600000002,
          "velocity": 0.7874015748031497
        },
        {
          "duration": 0.0036764666666613266,
          "durationTicks": 1,
          "midi": 38,
          "name": "D2",
          "ticks": 58920,
          "time": 216.61741600000002,
          "velocity": 0.7874015748031497
        },
        {
          "duration": 0.0036764666666613266,
          "durationTicks": 1,
          "midi": 39,
          "name": "D#2",
          "ticks": 58920,
          "time": 216.61741600000002,
          "velocity": 0.7874015748031497
        },
        {
          "duration": 0.0036764666666613266,
          "durationTicks": 1,
          "midi": 42,
          "name": "F#2",
          "ticks": 58920,
          "time": 216.61741600000002,
          "velocity": 0.7874015748031497
        },
        {
          "duration": 0.0036764666666613266,
          "durationTicks": 1,
          "midi": 42,
          "name": "F#2",
          "ticks": 58980,
          "time": 216.838004,
          "velocity": 0.7874015748031497
        },
        {
          "duration": 0.0036764666666613266,
          "durationTicks": 1,
          "midi": 36,
          "name": "C2",
          "ticks": 59040,
          "time": 217.058592,
          "velocity": 0.7874015748031497
        },
        {
          "duration": 0.0036764666666613266,
          "durationTicks": 1,
          "midi": 42,
          "name": "F#2",
          "ticks": 59040,
          "time": 217.058592,
          "velocity": 0.7874015748031497
        },
        {
          "duration": 0.0036764666666613266,
          "durationTicks": 1,
          "midi": 42,
          "name": "F#2",
          "ticks": 59100,
          "time": 217.27918,
          "velocity": 0.7874015748031497
        },
        {
          "duration": 0.0036764666666613266,
          "durationTicks": 1,
          "midi": 36,
          "name": "C2",
          "ticks": 59160,
          "time": 217.49976800000002,
          "velocity": 0.7874015748031497
        },
        {
          "duration": 0.0036764666666613266,
          "durationTicks": 1,
          "midi": 38,
          "name": "D2",
          "ticks": 59160,
          "time": 217.49976800000002,
          "velocity": 0.7874015748031497
        },
        {
          "duration": 0.0036764666666613266,
          "durationTicks": 1,
          "midi": 39,
          "name": "D#2",
          "ticks": 59160,
          "time": 217.49976800000002,
          "velocity": 0.7874015748031497
        },
        {
          "duration": 0.0036764666666613266,
          "durationTicks": 1,
          "midi": 42,
          "name": "F#2",
          "ticks": 59160,
          "time": 217.49976800000002,
          "velocity": 0.7874015748031497
        },
        {
          "duration": 0.0036764666666613266,
          "durationTicks": 1,
          "midi": 42,
          "name": "F#2",
          "ticks": 59220,
          "time": 217.720356,
          "velocity": 0.7874015748031497
        },
        {
          "duration": 0.0036764666666613266,
          "durationTicks": 1,
          "midi": 36,
          "name": "C2",
          "ticks": 59280,
          "time": 217.940944,
          "velocity": 0.7874015748031497
        },
        {
          "duration": 0.0036764666666613266,
          "durationTicks": 1,
          "midi": 42,
          "name": "F#2",
          "ticks": 59280,
          "time": 217.940944,
          "velocity": 0.7874015748031497
        },
        {
          "duration": 0.0036764666666613266,
          "durationTicks": 1,
          "midi": 42,
          "name": "F#2",
          "ticks": 59340,
          "time": 218.161532,
          "velocity": 0.7874015748031497
        },
        {
          "duration": 0.0036764666666613266,
          "durationTicks": 1,
          "midi": 36,
          "name": "C2",
          "ticks": 59400,
          "time": 218.38212000000001,
          "velocity": 0.7874015748031497
        },
        {
          "duration": 0.0036764666666613266,
          "durationTicks": 1,
          "midi": 38,
          "name": "D2",
          "ticks": 59400,
          "time": 218.38212000000001,
          "velocity": 0.7874015748031497
        },
        {
          "duration": 0.0036764666666613266,
          "durationTicks": 1,
          "midi": 39,
          "name": "D#2",
          "ticks": 59400,
          "time": 218.38212000000001,
          "velocity": 0.7874015748031497
        },
        {
          "duration": 0.0036764666666613266,
          "durationTicks": 1,
          "midi": 42,
          "name": "F#2",
          "ticks": 59400,
          "time": 218.38212000000001,
          "velocity": 0.7874015748031497
        },
        {
          "duration": 0.0036764666666613266,
          "durationTicks": 1,
          "midi": 42,
          "name": "F#2",
          "ticks": 59460,
          "time": 218.602708,
          "velocity": 0.7874015748031497
        },
        {
          "duration": 0.0036764666666613266,
          "durationTicks": 1,
          "midi": 36,
          "name": "C2",
          "ticks": 59520,
          "time": 218.823296,
          "velocity": 0.7874015748031497
        },
        {
          "duration": 0.0036764666666613266,
          "durationTicks": 1,
          "midi": 42,
          "name": "F#2",
          "ticks": 59520,
          "time": 218.823296,
          "velocity": 0.7874015748031497
        },
        {
          "duration": 0.0036764666666613266,
          "durationTicks": 1,
          "midi": 42,
          "name": "F#2",
          "ticks": 59580,
          "time": 219.04388400000002,
          "velocity": 0.7874015748031497
        },
        {
          "duration": 0.0036764666666613266,
          "durationTicks": 1,
          "midi": 36,
          "name": "C2",
          "ticks": 59640,
          "time": 219.264472,
          "velocity": 0.7874015748031497
        },
        {
          "duration": 0.0036764666666613266,
          "durationTicks": 1,
          "midi": 38,
          "name": "D2",
          "ticks": 59640,
          "time": 219.264472,
          "velocity": 0.7874015748031497
        },
        {
          "duration": 0.0036764666666613266,
          "durationTicks": 1,
          "midi": 39,
          "name": "D#2",
          "ticks": 59640,
          "time": 219.264472,
          "velocity": 0.7874015748031497
        },
        {
          "duration": 0.0036764666666613266,
          "durationTicks": 1,
          "midi": 42,
          "name": "F#2",
          "ticks": 59640,
          "time": 219.264472,
          "velocity": 0.7874015748031497
        },
        {
          "duration": 0.0036764666666613266,
          "durationTicks": 1,
          "midi": 42,
          "name": "F#2",
          "ticks": 59700,
          "time": 219.48506,
          "velocity": 0.7874015748031497
        },
        {
          "duration": 0.0036764666666613266,
          "durationTicks": 1,
          "midi": 36,
          "name": "C2",
          "ticks": 59760,
          "time": 219.705648,
          "velocity": 0.7874015748031497
        },
        {
          "duration": 0.0036764666666613266,
          "durationTicks": 1,
          "midi": 42,
          "name": "F#2",
          "ticks": 59760,
          "time": 219.705648,
          "velocity": 0.7874015748031497
        },
        {
          "duration": 0.0036764666666613266,
          "durationTicks": 1,
          "midi": 42,
          "name": "F#2",
          "ticks": 59820,
          "time": 219.92623600000002,
          "velocity": 0.7874015748031497
        },
        {
          "duration": 0.0036764666666613266,
          "durationTicks": 1,
          "midi": 36,
          "name": "C2",
          "ticks": 59880,
          "time": 220.146824,
          "velocity": 0.7874015748031497
        },
        {
          "duration": 0.0036764666666613266,
          "durationTicks": 1,
          "midi": 38,
          "name": "D2",
          "ticks": 59880,
          "time": 220.146824,
          "velocity": 0.7874015748031497
        },
        {
          "duration": 0.0036764666666613266,
          "durationTicks": 1,
          "midi": 39,
          "name": "D#2",
          "ticks": 59880,
          "time": 220.146824,
          "velocity": 0.7874015748031497
        },
        {
          "duration": 0.0036764666666613266,
          "durationTicks": 1,
          "midi": 42,
          "name": "F#2",
          "ticks": 59880,
          "time": 220.146824,
          "velocity": 0.7874015748031497
        },
        {
          "duration": 0.0036764666666613266,
          "durationTicks": 1,
          "midi": 42,
          "name": "F#2",
          "ticks": 59940,
          "time": 220.367412,
          "velocity": 0.7874015748031497
        },
        {
          "duration": 0.0036764666666613266,
          "durationTicks": 1,
          "midi": 46,
          "name": "A#2",
          "ticks": 59970,
          "time": 220.477706,
          "velocity": 0.7874015748031497
        },
        {
          "duration": 0.0036764666666897483,
          "durationTicks": 1,
          "midi": 36,
          "name": "C2",
          "ticks": 60000,
          "time": 220.588,
          "velocity": 0.7874015748031497
        },
        {
          "duration": 0.0036764666666897483,
          "durationTicks": 1,
          "midi": 42,
          "name": "F#2",
          "ticks": 60000,
          "time": 220.588,
          "velocity": 0.7874015748031497
        },
        {
          "duration": 0.0036764666666613266,
          "durationTicks": 1,
          "midi": 42,
          "name": "F#2",
          "ticks": 60060,
          "time": 220.80858800000001,
          "velocity": 0.7874015748031497
        },
        {
          "duration": 0.0036764666666613266,
          "durationTicks": 1,
          "midi": 36,
          "name": "C2",
          "ticks": 60120,
          "time": 221.029176,
          "velocity": 0.7874015748031497
        },
        {
          "duration": 0.0036764666666613266,
          "durationTicks": 1,
          "midi": 38,
          "name": "D2",
          "ticks": 60120,
          "time": 221.029176,
          "velocity": 0.7874015748031497
        },
        {
          "duration": 0.0036764666666613266,
          "durationTicks": 1,
          "midi": 39,
          "name": "D#2",
          "ticks": 60120,
          "time": 221.029176,
          "velocity": 0.7874015748031497
        },
        {
          "duration": 0.0036764666666613266,
          "durationTicks": 1,
          "midi": 42,
          "name": "F#2",
          "ticks": 60120,
          "time": 221.029176,
          "velocity": 0.7874015748031497
        },
        {
          "duration": 0.0036764666666613266,
          "durationTicks": 1,
          "midi": 42,
          "name": "F#2",
          "ticks": 60180,
          "time": 221.249764,
          "velocity": 0.7874015748031497
        },
        {
          "duration": 0.0036764666666613266,
          "durationTicks": 1,
          "midi": 36,
          "name": "C2",
          "ticks": 60240,
          "time": 221.47035200000002,
          "velocity": 0.7874015748031497
        },
        {
          "duration": 0.0036764666666613266,
          "durationTicks": 1,
          "midi": 42,
          "name": "F#2",
          "ticks": 60240,
          "time": 221.47035200000002,
          "velocity": 0.7874015748031497
        },
        {
          "duration": 0.0036764666666613266,
          "durationTicks": 1,
          "midi": 42,
          "name": "F#2",
          "ticks": 60300,
          "time": 221.69094,
          "velocity": 0.7874015748031497
        },
        {
          "duration": 0.0036764666666613266,
          "durationTicks": 1,
          "midi": 36,
          "name": "C2",
          "ticks": 60360,
          "time": 221.911528,
          "velocity": 0.7874015748031497
        },
        {
          "duration": 0.0036764666666613266,
          "durationTicks": 1,
          "midi": 38,
          "name": "D2",
          "ticks": 60360,
          "time": 221.911528,
          "velocity": 0.7874015748031497
        },
        {
          "duration": 0.0036764666666613266,
          "durationTicks": 1,
          "midi": 39,
          "name": "D#2",
          "ticks": 60360,
          "time": 221.911528,
          "velocity": 0.7874015748031497
        },
        {
          "duration": 0.0036764666666613266,
          "durationTicks": 1,
          "midi": 42,
          "name": "F#2",
          "ticks": 60360,
          "time": 221.911528,
          "velocity": 0.7874015748031497
        },
        {
          "duration": 0.0036764666666613266,
          "durationTicks": 1,
          "midi": 42,
          "name": "F#2",
          "ticks": 60420,
          "time": 222.132116,
          "velocity": 0.7874015748031497
        },
        {
          "duration": 0.0036764666666613266,
          "durationTicks": 1,
          "midi": 36,
          "name": "C2",
          "ticks": 60480,
          "time": 222.35270400000002,
          "velocity": 0.7874015748031497
        },
        {
          "duration": 0.0036764666666613266,
          "durationTicks": 1,
          "midi": 42,
          "name": "F#2",
          "ticks": 60480,
          "time": 222.35270400000002,
          "velocity": 0.7874015748031497
        },
        {
          "duration": 0.0036764666666613266,
          "durationTicks": 1,
          "midi": 42,
          "name": "F#2",
          "ticks": 60540,
          "time": 222.573292,
          "velocity": 0.7874015748031497
        },
        {
          "duration": 0.0036764666666613266,
          "durationTicks": 1,
          "midi": 36,
          "name": "C2",
          "ticks": 60600,
          "time": 222.79388,
          "velocity": 0.7874015748031497
        },
        {
          "duration": 0.0036764666666613266,
          "durationTicks": 1,
          "midi": 38,
          "name": "D2",
          "ticks": 60600,
          "time": 222.79388,
          "velocity": 0.7874015748031497
        },
        {
          "duration": 0.0036764666666613266,
          "durationTicks": 1,
          "midi": 39,
          "name": "D#2",
          "ticks": 60600,
          "time": 222.79388,
          "velocity": 0.7874015748031497
        },
        {
          "duration": 0.0036764666666613266,
          "durationTicks": 1,
          "midi": 42,
          "name": "F#2",
          "ticks": 60600,
          "time": 222.79388,
          "velocity": 0.7874015748031497
        },
        {
          "duration": 0.0036764666666897483,
          "durationTicks": 1,
          "midi": 42,
          "name": "F#2",
          "ticks": 60660,
          "time": 223.014468,
          "velocity": 0.7874015748031497
        },
        {
          "duration": 0.0036764666666613266,
          "durationTicks": 1,
          "midi": 36,
          "name": "C2",
          "ticks": 60720,
          "time": 223.23505600000001,
          "velocity": 0.7874015748031497
        },
        {
          "duration": 0.0036764666666613266,
          "durationTicks": 1,
          "midi": 42,
          "name": "F#2",
          "ticks": 60720,
          "time": 223.23505600000001,
          "velocity": 0.7874015748031497
        },
        {
          "duration": 0.0036764666666613266,
          "durationTicks": 1,
          "midi": 42,
          "name": "F#2",
          "ticks": 60780,
          "time": 223.455644,
          "velocity": 0.7874015748031497
        },
        {
          "duration": 0.0036764666666613266,
          "durationTicks": 1,
          "midi": 36,
          "name": "C2",
          "ticks": 60840,
          "time": 223.676232,
          "velocity": 0.7874015748031497
        },
        {
          "duration": 0.0036764666666613266,
          "durationTicks": 1,
          "midi": 38,
          "name": "D2",
          "ticks": 60840,
          "time": 223.676232,
          "velocity": 0.7874015748031497
        },
        {
          "duration": 0.0036764666666613266,
          "durationTicks": 1,
          "midi": 39,
          "name": "D#2",
          "ticks": 60840,
          "time": 223.676232,
          "velocity": 0.7874015748031497
        },
        {
          "duration": 0.0036764666666613266,
          "durationTicks": 1,
          "midi": 42,
          "name": "F#2",
          "ticks": 60840,
          "time": 223.676232,
          "velocity": 0.7874015748031497
        },
        {
          "duration": 0.0036764666666613266,
          "durationTicks": 1,
          "midi": 42,
          "name": "F#2",
          "ticks": 60900,
          "time": 223.89682000000002,
          "velocity": 0.7874015748031497
        },
        {
          "duration": 0.0036764666666613266,
          "durationTicks": 1,
          "midi": 36,
          "name": "C2",
          "ticks": 60960,
          "time": 224.117408,
          "velocity": 0.7874015748031497
        },
        {
          "duration": 0.0036764666666613266,
          "durationTicks": 1,
          "midi": 42,
          "name": "F#2",
          "ticks": 60960,
          "time": 224.117408,
          "velocity": 0.7874015748031497
        },
        {
          "duration": 0.0036764666666613266,
          "durationTicks": 1,
          "midi": 42,
          "name": "F#2",
          "ticks": 61020,
          "time": 224.337996,
          "velocity": 0.7874015748031497
        },
        {
          "duration": 0.0036764666666613266,
          "durationTicks": 1,
          "midi": 36,
          "name": "C2",
          "ticks": 61080,
          "time": 224.558584,
          "velocity": 0.7874015748031497
        },
        {
          "duration": 0.0036764666666613266,
          "durationTicks": 1,
          "midi": 38,
          "name": "D2",
          "ticks": 61080,
          "time": 224.558584,
          "velocity": 0.7874015748031497
        },
        {
          "duration": 0.0036764666666613266,
          "durationTicks": 1,
          "midi": 39,
          "name": "D#2",
          "ticks": 61080,
          "time": 224.558584,
          "velocity": 0.7874015748031497
        },
        {
          "duration": 0.0036764666666613266,
          "durationTicks": 1,
          "midi": 42,
          "name": "F#2",
          "ticks": 61080,
          "time": 224.558584,
          "velocity": 0.7874015748031497
        },
        {
          "duration": 0.0036764666666613266,
          "durationTicks": 1,
          "midi": 42,
          "name": "F#2",
          "ticks": 61140,
          "time": 224.77917200000002,
          "velocity": 0.7874015748031497
        },
        {
          "duration": 0.0036764666666613266,
          "durationTicks": 1,
          "midi": 36,
          "name": "C2",
          "ticks": 61200,
          "time": 224.99976,
          "velocity": 0.7874015748031497
        },
        {
          "duration": 0.0036764666666613266,
          "durationTicks": 1,
          "midi": 42,
          "name": "F#2",
          "ticks": 61200,
          "time": 224.99976,
          "velocity": 0.7874015748031497
        },
        {
          "duration": 0.0036764666666613266,
          "durationTicks": 1,
          "midi": 42,
          "name": "F#2",
          "ticks": 61260,
          "time": 225.220348,
          "velocity": 0.7874015748031497
        },
        {
          "duration": 0.0036764666666897483,
          "durationTicks": 1,
          "midi": 36,
          "name": "C2",
          "ticks": 61320,
          "time": 225.440936,
          "velocity": 0.7874015748031497
        },
        {
          "duration": 0.0036764666666897483,
          "durationTicks": 1,
          "midi": 38,
          "name": "D2",
          "ticks": 61320,
          "time": 225.440936,
          "velocity": 0.7874015748031497
        },
        {
          "duration": 0.0036764666666897483,
          "durationTicks": 1,
          "midi": 39,
          "name": "D#2",
          "ticks": 61320,
          "time": 225.440936,
          "velocity": 0.7874015748031497
        },
        {
          "duration": 0.0036764666666897483,
          "durationTicks": 1,
          "midi": 42,
          "name": "F#2",
          "ticks": 61320,
          "time": 225.440936,
          "velocity": 0.7874015748031497
        },
        {
          "duration": 0.0036764666666613266,
          "durationTicks": 1,
          "midi": 42,
          "name": "F#2",
          "ticks": 61380,
          "time": 225.66152400000001,
          "velocity": 0.7874015748031497
        },
        {
          "duration": 0.0036764666666613266,
          "durationTicks": 1,
          "midi": 36,
          "name": "C2",
          "ticks": 61440,
          "time": 225.882112,
          "velocity": 0.7874015748031497
        },
        {
          "duration": 0.0036764666666613266,
          "durationTicks": 1,
          "midi": 42,
          "name": "F#2",
          "ticks": 61440,
          "time": 225.882112,
          "velocity": 0.7874015748031497
        },
        {
          "duration": 0.0036764666666613266,
          "durationTicks": 1,
          "midi": 42,
          "name": "F#2",
          "ticks": 61500,
          "time": 226.1027,
          "velocity": 0.7874015748031497
        },
        {
          "duration": 0.0036764666666613266,
          "durationTicks": 1,
          "midi": 36,
          "name": "C2",
          "ticks": 61560,
          "time": 226.32328800000002,
          "velocity": 0.7874015748031497
        },
        {
          "duration": 0.0036764666666613266,
          "durationTicks": 1,
          "midi": 38,
          "name": "D2",
          "ticks": 61560,
          "time": 226.32328800000002,
          "velocity": 0.7874015748031497
        },
        {
          "duration": 0.0036764666666613266,
          "durationTicks": 1,
          "midi": 39,
          "name": "D#2",
          "ticks": 61560,
          "time": 226.32328800000002,
          "velocity": 0.7874015748031497
        },
        {
          "duration": 0.0036764666666613266,
          "durationTicks": 1,
          "midi": 42,
          "name": "F#2",
          "ticks": 61560,
          "time": 226.32328800000002,
          "velocity": 0.7874015748031497
        },
        {
          "duration": 0.0036764666666613266,
          "durationTicks": 1,
          "midi": 42,
          "name": "F#2",
          "ticks": 61620,
          "time": 226.543876,
          "velocity": 0.7874015748031497
        },
        {
          "duration": 0.0036764666666613266,
          "durationTicks": 1,
          "midi": 36,
          "name": "C2",
          "ticks": 61680,
          "time": 226.764464,
          "velocity": 0.7874015748031497
        },
        {
          "duration": 0.0036764666666613266,
          "durationTicks": 1,
          "midi": 42,
          "name": "F#2",
          "ticks": 61680,
          "time": 226.764464,
          "velocity": 0.7874015748031497
        },
        {
          "duration": 0.0036764666666613266,
          "durationTicks": 1,
          "midi": 42,
          "name": "F#2",
          "ticks": 61740,
          "time": 226.985052,
          "velocity": 0.7874015748031497
        },
        {
          "duration": 0.0036764666666613266,
          "durationTicks": 1,
          "midi": 36,
          "name": "C2",
          "ticks": 61800,
          "time": 227.20564000000002,
          "velocity": 0.7874015748031497
        },
        {
          "duration": 0.0036764666666613266,
          "durationTicks": 1,
          "midi": 38,
          "name": "D2",
          "ticks": 61800,
          "time": 227.20564000000002,
          "velocity": 0.7874015748031497
        },
        {
          "duration": 0.0036764666666613266,
          "durationTicks": 1,
          "midi": 39,
          "name": "D#2",
          "ticks": 61800,
          "time": 227.20564000000002,
          "velocity": 0.7874015748031497
        },
        {
          "duration": 0.0036764666666613266,
          "durationTicks": 1,
          "midi": 42,
          "name": "F#2",
          "ticks": 61800,
          "time": 227.20564000000002,
          "velocity": 0.7874015748031497
        },
        {
          "duration": 0.0036764666666613266,
          "durationTicks": 1,
          "midi": 42,
          "name": "F#2",
          "ticks": 61860,
          "time": 227.426228,
          "velocity": 0.7874015748031497
        },
        {
          "duration": 0.0036764666666613266,
          "durationTicks": 1,
          "midi": 30,
          "name": "F#1",
          "ticks": 61920,
          "time": 227.646816,
          "velocity": 0.7874015748031497
        },
        {
          "duration": 0.0036764666666613266,
          "durationTicks": 1,
          "midi": 29,
          "name": "F1",
          "ticks": 61950,
          "time": 227.75711,
          "velocity": 0.6692913385826772
        },
        {
          "duration": 0.0036764666666613266,
          "durationTicks": 1,
          "midi": 30,
          "name": "F#1",
          "ticks": 61990,
          "time": 227.9041686666667,
          "velocity": 0.7874015748031497
        },
        {
          "duration": 0.0036764666666613266,
          "durationTicks": 1,
          "midi": 29,
          "name": "F1",
          "ticks": 62030,
          "time": 228.05122733333332,
          "velocity": 0.6141732283464567
        },
        {
          "duration": 0.0036764666666613266,
          "durationTicks": 1,
          "midi": 35,
          "name": "B1",
          "ticks": 62160,
          "time": 228.529168,
          "velocity": 0.7874015748031497
        }
      ],
      "endOfTrackTicks": 62161
    }
  ]
}