{
  "header": {
    "keySignatures": [
      {
        "key": "Eb",
        "scale": "major",
        "ticks": 0
      },
      {
        "key": "E",
        "scale": "major",
        "ticks": 401408
      }
    ],
    "meta": {
      "title": "Rage Your Dream",
      "artist": "Move",
      "creator": "unknown"
    },
    "name": "",
    "ppq": 1024,
    "tempos": [
      {
        "bpm": 120,
        "ticks": 0
      }
    ],
    "timeSignatures": [
      {
        "ticks": 0,
        "timeSignature": [
          4,
          4
        ],
        "measures": 0
      }
    ]
  },
  "tracks": [
    {
      "channel": 0,
      "controlChanges": {},
      "pitchBends": [],
      "instrument": {
        "family": "piano",
        "number": 0,
        "name": "acoustic grand piano"
      },
      "name": "Acoustic Grand Piano",
      "notes": [
        {
          "duration": 0.25,
          "durationTicks": 512,
          "midi": 67,
          "name": "G4",
          "ticks": 3072,
          "time": 1.5,
          "velocity": 0.5039370078740157
        },
        {
          "duration": 0.25,
          "durationTicks": 512,
          "midi": 70,
          "name": "A#4",
          "ticks": 3584,
          "time": 1.75,
          "velocity": 0.5039370078740157
        },
        {
          "duration": 0.5,
          "durationTicks": 1024,
          "midi": 72,
          "name": "C5",
          "ticks": 4096,
          "time": 2,
          "velocity": 0.7874015748031497
        },
        {
          "duration": 0.75,
          "durationTicks": 1536,
          "midi": 48,
          "name": "C3",
          "ticks": 4096,
          "time": 2,
          "velocity": 0.7874015748031497
        },
        {
          "duration": 0.25,
          "durationTicks": 512,
          "midi": 51,
          "name": "D#3",
          "ticks": 4096,
          "time": 2,
          "velocity": 0.5039370078740157
        },
        {
          "duration": 0.5,
          "durationTicks": 1024,
          "midi": 55,
          "name": "G3",
          "ticks": 4608,
          "time": 2.25,
          "velocity": 0.7874015748031497
        },
        {
          "duration": 0.25,
          "durationTicks": 512,
          "midi": 72,
          "name": "C5",
          "ticks": 5120,
          "time": 2.5,
          "velocity": 0.7874015748031497
        },
        {
          "duration": 0.5,
          "durationTicks": 1024,
          "midi": 63,
          "name": "D#4",
          "ticks": 5120,
          "time": 2.5,
          "velocity": 0.7874015748031497
        },
        {
          "duration": 0.25,
          "durationTicks": 512,
          "midi": 75,
          "name": "D#5",
          "ticks": 5632,
          "time": 2.75,
          "velocity": 0.7874015748031497
        },
        {
          "duration": 0.25,
          "durationTicks": 512,
          "midi": 60,
          "name": "C4",
          "ticks": 5632,
          "time": 2.75,
          "velocity": 0.7874015748031497
        },
        {
          "duration": 0.75,
          "durationTicks": 1536,
          "midi": 72,
          "name": "C5",
          "ticks": 6144,
          "time": 3,
          "velocity": 0.7874015748031497
        },
        {
          "duration": 0.75,
          "durationTicks": 1536,
          "midi": 44,
          "name": "G#2",
          "ticks": 6144,
          "time": 3,
          "velocity": 0.7874015748031497
        },
        {
          "duration": 0.5,
          "durationTicks": 1024,
          "midi": 56,
          "name": "G#3",
          "ticks": 6144,
          "time": 3,
          "velocity": 0.7874015748031497
        },
        {
          "duration": 0.5,
          "durationTicks": 1024,
          "midi": 51,
          "name": "D#3",
          "ticks": 6656,
          "time": 3.25,
          "velocity": 0.7874015748031497
        },
        {
          "duration": 0.5,
          "durationTicks": 1024,
          "midi": 63,
          "name": "D#4",
          "ticks": 7168,
          "time": 3.5,
          "velocity": 0.7874015748031497
        },
        {
          "duration": 0.25,
          "durationTicks": 512,
          "midi": 75,
          "name": "D#5",
          "ticks": 7680,
          "time": 3.75,
          "velocity": 0.7874015748031497
        },
        {
          "duration": 0.25,
          "durationTicks": 512,
          "midi": 60,
          "name": "C4",
          "ticks": 7680,
          "time": 3.75,
          "velocity": 0.7874015748031497
        },
        {
          "duration": 0.5,
          "durationTicks": 1024,
          "midi": 74,
          "name": "D5",
          "ticks": 8192,
          "time": 4,
          "velocity": 0.7874015748031497
        },
        {
          "duration": 0.75,
          "durationTicks": 1536,
          "midi": 46,
          "name": "A#2",
          "ticks": 8192,
          "time": 4,
          "velocity": 0.7874015748031497
        },
        {
          "duration": 0.5,
          "durationTicks": 1024,
          "midi": 58,
          "name": "A#3",
          "ticks": 8192,
          "time": 4,
          "velocity": 0.7874015748031497
        },
        {
          "duration": 0.5,
          "durationTicks": 1024,
          "midi": 55,
          "name": "G3",
          "ticks": 8704,
          "time": 4.25,
          "velocity": 0.7874015748031497
        },
        {
          "duration": 0.25,
          "durationTicks": 512,
          "midi": 70,
          "name": "A#4",
          "ticks": 9216,
          "time": 4.5,
          "velocity": 0.7874015748031497
        },
        {
          "duration": 0.5,
          "durationTicks": 1024,
          "midi": 65,
          "name": "F4",
          "ticks": 9216,
          "time": 4.5,
          "velocity": 0.7874015748031497
        },
        {
          "duration": 0.25,
          "durationTicks": 512,
          "midi": 67,
          "name": "G4",
          "ticks": 9728,
          "time": 4.75,
          "velocity": 0.7874015748031497
        },
        {
          "duration": 0.25,
          "durationTicks": 512,
          "midi": 62,
          "name": "D4",
          "ticks": 9728,
          "time": 4.75,
          "velocity": 0.7874015748031497
        },
        {
          "duration": 0.5,
          "durationTicks": 1024,
          "midi": 70,
          "name": "A#4",
          "ticks": 10240,
          "time": 5,
          "velocity": 0.7874015748031497
        },
        {
          "duration": 0.75,
          "durationTicks": 1536,
          "midi": 43,
          "name": "G2",
          "ticks": 10240,
          "time": 5,
          "velocity": 0.7874015748031497
        },
        {
          "duration": 0.5,
          "durationTicks": 1024,
          "midi": 55,
          "name": "G3",
          "ticks": 10752,
          "time": 5.25,
          "velocity": 0.7874015748031497
        },
        {
          "duration": 0.25,
          "durationTicks": 512,
          "midi": 68,
          "name": "G#4",
          "ticks": 11264,
          "time": 5.5,
          "velocity": 0.7874015748031497
        },
        {
          "duration": 0.5,
          "durationTicks": 1024,
          "midi": 62,
          "name": "D4",
          "ticks": 11264,
          "time": 5.5,
          "velocity": 0.7874015748031497
        },
        {
          "duration": 0.25,
          "durationTicks": 512,
          "midi": 70,
          "name": "A#4",
          "ticks": 11776,
          "time": 5.75,
          "velocity": 0.7874015748031497
        },
        {
          "duration": 0.25,
          "durationTicks": 512,
          "midi": 58,
          "name": "A#3",
          "ticks": 11776,
          "time": 5.75,
          "velocity": 0.7874015748031497
        },
        {
          "duration": 0.5,
          "durationTicks": 1024,
          "midi": 68,
          "name": "G#4",
          "ticks": 12288,
          "time": 6,
          "velocity": 0.7874015748031497
        },
        {
          "duration": 0.5,
          "durationTicks": 1024,
          "midi": 72,
          "name": "C5",
          "ticks": 12288,
          "time": 6,
          "velocity": 0.7874015748031497
        },
        {
          "duration": 0.875,
          "durationTicks": 1792,
          "midi": 44,
          "name": "G#2",
          "ticks": 12288,
          "time": 6,
          "velocity": 0.7874015748031497
        },
        {
          "duration": 0.5,
          "durationTicks": 1024,
          "midi": 56,
          "name": "G#3",
          "ticks": 12288,
          "time": 6,
          "velocity": 0.7874015748031497
        },
        {
          "duration": 0.5,
          "durationTicks": 1024,
          "midi": 51,
          "name": "D#3",
          "ticks": 12800,
          "time": 6.25,
          "velocity": 0.7874015748031497
        },
        {
          "duration": 0.5,
          "durationTicks": 1024,
          "midi": 63,
          "name": "D#4",
          "ticks": 13312,
          "time": 6.5,
          "velocity": 0.7874015748031497
        },
        {
          "duration": 0.5,
          "durationTicks": 1024,
          "midi": 63,
          "name": "D#4",
          "ticks": 13312,
          "time": 6.5,
          "velocity": 0.7874015748031497
        },
        {
          "duration": 0.25,
          "durationTicks": 512,
          "midi": 72,
          "name": "C5",
          "ticks": 13824,
          "time": 6.75,
          "velocity": 0.7874015748031497
        },
        {
          "duration": 0.25,
          "durationTicks": 512,
          "midi": 60,
          "name": "C4",
          "ticks": 13824,
          "time": 6.75,
          "velocity": 0.7874015748031497
        },
        {
          "duration": 0.5,
          "durationTicks": 1024,
          "midi": 65,
          "name": "F4",
          "ticks": 14336,
          "time": 7,
          "velocity": 0.7874015748031497
        },
        {
          "duration": 0.75,
          "durationTicks": 1536,
          "midi": 41,
          "name": "F2",
          "ticks": 14336,
          "time": 7,
          "velocity": 0.7874015748031497
        },
        {
          "duration": 0.5,
          "durationTicks": 1024,
          "midi": 53,
          "name": "F3",
          "ticks": 14336,
          "time": 7,
          "velocity": 0.7874015748031497
        },
        {
          "duration": 0.5,
          "durationTicks": 1024,
          "midi": 48,
          "name": "C3",
          "ticks": 14848,
          "time": 7.25,
          "velocity": 0.7874015748031497
        },
        {
          "duration": 0.25,
          "durationTicks": 512,
          "midi": 63,
          "name": "D#4",
          "ticks": 15360,
          "time": 7.5,
          "velocity": 0.7874015748031497
        },
        {
          "duration": 0.5,
          "durationTicks": 1024,
          "midi": 60,
          "name": "C4",
          "ticks": 15360,
          "time": 7.5,
          "velocity": 0.7874015748031497
        },
        {
          "duration": 0.25,
          "durationTicks": 512,
          "midi": 65,
          "name": "F4",
          "ticks": 15872,
          "time": 7.75,
          "velocity": 0.7874015748031497
        },
        {
          "duration": 0.25,
          "durationTicks": 512,
          "midi": 56,
          "name": "G#3",
          "ticks": 15872,
          "time": 7.75,
          "velocity": 0.7874015748031497
        },
        {
          "duration": 0.5,
          "durationTicks": 1024,
          "midi": 67,
          "name": "G4",
          "ticks": 16384,
          "time": 8,
          "velocity": 0.7874015748031497
        },
        {
          "duration": 1.625,
          "durationTicks": 3328,
          "midi": 43,
          "name": "G2",
          "ticks": 16384,
          "time": 8,
          "velocity": 0.7874015748031497
        },
        {
          "duration": 0.5,
          "durationTicks": 1024,
          "midi": 55,
          "name": "G3",
          "ticks": 16384,
          "time": 8,
          "velocity": 0.7874015748031497
        },
        {
          "duration": 0.5,
          "durationTicks": 1024,
          "midi": 58,
          "name": "A#3",
          "ticks": 16896,
          "time": 8.25,
          "velocity": 0.7874015748031497
        },
        {
          "duration": 0.25,
          "durationTicks": 512,
          "midi": 74,
          "name": "D5",
          "ticks": 17408,
          "time": 8.5,
          "velocity": 0.7874015748031497
        },
        {
          "duration": 0.5,
          "durationTicks": 1024,
          "midi": 62,
          "name": "D4",
          "ticks": 17408,
          "time": 8.5,
          "velocity": 0.7874015748031497
        },
        {
          "duration": 0.25,
          "durationTicks": 512,
          "midi": 70,
          "name": "A#4",
          "ticks": 17920,
          "time": 8.75,
          "velocity": 0.7874015748031497
        },
        {
          "duration": 0.5,
          "durationTicks": 1024,
          "midi": 65,
          "name": "F4",
          "ticks": 17920,
          "time": 8.75,
          "velocity": 0.7874015748031497
        },
        {
          "duration": 0.5,
          "durationTicks": 1024,
          "midi": 70,
          "name": "A#4",
          "ticks": 18432,
          "time": 9,
          "velocity": 0.7874015748031497
        },
        {
          "duration": 0.5,
          "durationTicks": 1024,
          "midi": 67,
          "name": "G4",
          "ticks": 18432,
          "time": 9,
          "velocity": 0.7874015748031497
        },
        {
          "duration": 0.5,
          "durationTicks": 1024,
          "midi": 62,
          "name": "D4",
          "ticks": 18944,
          "time": 9.25,
          "velocity": 0.7874015748031497
        },
        {
          "duration": 0.25,
          "durationTicks": 512,
          "midi": 67,
          "name": "G4",
          "ticks": 19456,
          "time": 9.5,
          "velocity": 0.7874015748031497
        },
        {
          "duration": 0.5,
          "durationTicks": 1024,
          "midi": 58,
          "name": "A#3",
          "ticks": 19456,
          "time": 9.5,
          "velocity": 0.7874015748031497
        },
        {
          "duration": 0.25,
          "durationTicks": 512,
          "midi": 70,
          "name": "A#4",
          "ticks": 19968,
          "time": 9.75,
          "velocity": 0.7874015748031497
        },
        {
          "duration": 0.125,
          "durationTicks": 256,
          "midi": 55,
          "name": "G3",
          "ticks": 19968,
          "time": 9.75,
          "velocity": 0.7874015748031497
        },
        {
          "duration": 0.5,
          "durationTicks": 1024,
          "midi": 72,
          "name": "C5",
          "ticks": 20480,
          "time": 10,
          "velocity": 0.7874015748031497
        },
        {
          "duration": 0.75,
          "durationTicks": 1536,
          "midi": 48,
          "name": "C3",
          "ticks": 20480,
          "time": 10,
          "velocity": 0.7874015748031497
        },
        {
          "duration": 0.25,
          "durationTicks": 512,
          "midi": 51,
          "name": "D#3",
          "ticks": 20480,
          "time": 10,
          "velocity": 0.5039370078740157
        },
        {
          "duration": 0.5,
          "durationTicks": 1024,
          "midi": 55,
          "name": "G3",
          "ticks": 20992,
          "time": 10.25,
          "velocity": 0.7874015748031497
        },
        {
          "duration": 0.25,
          "durationTicks": 512,
          "midi": 72,
          "name": "C5",
          "ticks": 21504,
          "time": 10.5,
          "velocity": 0.7874015748031497
        },
        {
          "duration": 0.5,
          "durationTicks": 1024,
          "midi": 63,
          "name": "D#4",
          "ticks": 21504,
          "time": 10.5,
          "velocity": 0.7874015748031497
        },
        {
          "duration": 0.25,
          "durationTicks": 512,
          "midi": 75,
          "name": "D#5",
          "ticks": 22016,
          "time": 10.75,
          "velocity": 0.7874015748031497
        },
        {
          "duration": 0.25,
          "durationTicks": 512,
          "midi": 60,
          "name": "C4",
          "ticks": 22016,
          "time": 10.75,
          "velocity": 0.7874015748031497
        },
        {
          "duration": 0.75,
          "durationTicks": 1536,
          "midi": 72,
          "name": "C5",
          "ticks": 22528,
          "time": 11,
          "velocity": 0.7874015748031497
        },
        {
          "duration": 0.75,
          "durationTicks": 1536,
          "midi": 44,
          "name": "G#2",
          "ticks": 22528,
          "time": 11,
          "velocity": 0.7874015748031497
        },
        {
          "duration": 0.5,
          "durationTicks": 1024,
          "midi": 56,
          "name": "G#3",
          "ticks": 22528,
          "time": 11,
          "velocity": 0.7874015748031497
        },
        {
          "duration": 0.5,
          "durationTicks": 1024,
          "midi": 51,
          "name": "D#3",
          "ticks": 23040,
          "time": 11.25,
          "velocity": 0.7874015748031497
        },
        {
          "duration": 0.5,
          "durationTicks": 1024,
          "midi": 63,
          "name": "D#4",
          "ticks": 23552,
          "time": 11.5,
          "velocity": 0.7874015748031497
        },
        {
          "duration": 0.25,
          "durationTicks": 512,
          "midi": 75,
          "name": "D#5",
          "ticks": 24064,
          "time": 11.75,
          "velocity": 0.7874015748031497
        },
        {
          "duration": 0.25,
          "durationTicks": 512,
          "midi": 60,
          "name": "C4",
          "ticks": 24064,
          "time": 11.75,
          "velocity": 0.7874015748031497
        },
        {
          "duration": 0.25,
          "durationTicks": 512,
          "midi": 74,
          "name": "D5",
          "ticks": 24576,
          "time": 12,
          "velocity": 0.7874015748031497
        },
        {
          "duration": 0.75,
          "durationTicks": 1536,
          "midi": 46,
          "name": "A#2",
          "ticks": 24576,
          "time": 12,
          "velocity": 0.7874015748031497
        },
        {
          "duration": 0.5,
          "durationTicks": 1024,
          "midi": 58,
          "name": "A#3",
          "ticks": 24576,
          "time": 12,
          "velocity": 0.7874015748031497
        },
        {
          "duration": 0.25,
          "durationTicks": 512,
          "midi": 70,
          "name": "A#4",
          "ticks": 25088,
          "time": 12.25,
          "velocity": 0.7874015748031497
        },
        {
          "duration": 0.5,
          "durationTicks": 1024,
          "midi": 55,
          "name": "G3",
          "ticks": 25088,
          "time": 12.25,
          "velocity": 0.7874015748031497
        },
        {
          "duration": 0.25,
          "durationTicks": 512,
          "midi": 70,
          "name": "A#4",
          "ticks": 25600,
          "time": 12.5,
          "velocity": 0.7874015748031497
        },
        {
          "duration": 0.5,
          "durationTicks": 1024,
          "midi": 65,
          "name": "F4",
          "ticks": 25600,
          "time": 12.5,
          "velocity": 0.7874015748031497
        },
        {
          "duration": 0.25,
          "durationTicks": 512,
          "midi": 67,
          "name": "G4",
          "ticks": 26112,
          "time": 12.75,
          "velocity": 0.7874015748031497
        },
        {
          "duration": 0.25,
          "durationTicks": 512,
          "midi": 62,
          "name": "D4",
          "ticks": 26112,
          "time": 12.75,
          "velocity": 0.7874015748031497
        },
        {
          "duration": 0.5,
          "durationTicks": 1024,
          "midi": 70,
          "name": "A#4",
          "ticks": 26624,
          "time": 13,
          "velocity": 0.7874015748031497
        },
        {
          "duration": 0.75,
          "durationTicks": 1536,
          "midi": 43,
          "name": "G2",
          "ticks": 26624,
          "time": 13,
          "velocity": 0.7874015748031497
        },
        {
          "duration": 0.5,
          "durationTicks": 1024,
          "midi": 55,
          "name": "G3",
          "ticks": 27136,
          "time": 13.25,
          "velocity": 0.7874015748031497
        },
        {
          "duration": 0.5,
          "durationTicks": 1024,
          "midi": 67,
          "name": "G4",
          "ticks": 27648,
          "time": 13.5,
          "velocity": 0.7874015748031497
        },
        {
          "duration": 0.5,
          "durationTicks": 1024,
          "midi": 62,
          "name": "D4",
          "ticks": 27648,
          "time": 13.5,
          "velocity": 0.7874015748031497
        },
        {
          "duration": 0.25,
          "durationTicks": 512,
          "midi": 58,
          "name": "A#3",
          "ticks": 28160,
          "time": 13.75,
          "velocity": 0.7874015748031497
        },
        {
          "duration": 0.75,
          "durationTicks": 1536,
          "midi": 68,
          "name": "G#4",
          "ticks": 28672,
          "time": 14,
          "velocity": 0.7874015748031497
        },
        {
          "duration": 0.75,
          "durationTicks": 1536,
          "midi": 41,
          "name": "F2",
          "ticks": 28672,
          "time": 14,
          "velocity": 0.7874015748031497
        },
        {
          "duration": 0.375,
          "durationTicks": 768,
          "midi": 51,
          "name": "D#3",
          "ticks": 29184,
          "time": 14.25,
          "velocity": 0.7874015748031497
        },
        {
          "duration": 0.375,
          "durationTicks": 768,
          "midi": 60,
          "name": "C4",
          "ticks": 29440,
          "time": 14.375,
          "velocity": 0.7874015748031497
        },
        {
          "duration": 0.375,
          "durationTicks": 768,
          "midi": 51,
          "name": "D#3",
          "ticks": 29952,
          "time": 14.625,
          "velocity": 0.7874015748031497
        },
        {
          "duration": 0.25,
          "durationTicks": 512,
          "midi": 68,
          "name": "G#4",
          "ticks": 30208,
          "time": 14.75,
          "velocity": 0.7874015748031497
        },
        {
          "duration": 0.375,
          "durationTicks": 768,
          "midi": 56,
          "name": "G#3",
          "ticks": 30208,
          "time": 14.75,
          "velocity": 0.7874015748031497
        },
        {
          "duration": 0.5,
          "durationTicks": 1024,
          "midi": 70,
          "name": "A#4",
          "ticks": 30720,
          "time": 15,
          "velocity": 0.7874015748031497
        },
        {
          "duration": 0.75,
          "durationTicks": 1536,
          "midi": 46,
          "name": "A#2",
          "ticks": 30720,
          "time": 15,
          "velocity": 0.7874015748031497
        },
        {
          "duration": 0.5,
          "durationTicks": 1024,
          "midi": 53,
          "name": "F3",
          "ticks": 30720,
          "time": 15,
          "velocity": 0.7874015748031497
        },
        {
          "duration": 0.375,
          "durationTicks": 768,
          "midi": 58,
          "name": "A#3",
          "ticks": 30720,
          "time": 15,
          "velocity": 0.7874015748031497
        },
        {
          "duration": 0.5,
          "durationTicks": 1024,
          "midi": 56,
          "name": "G#3",
          "ticks": 31232,
          "time": 15.25,
          "velocity": 0.7874015748031497
        },
        {
          "duration": 0.5,
          "durationTicks": 1024,
          "midi": 70,
          "name": "A#4",
          "ticks": 31744,
          "time": 15.5,
          "velocity": 0.7874015748031497
        },
        {
          "duration": 0.5,
          "durationTicks": 1024,
          "midi": 60,
          "name": "C4",
          "ticks": 31744,
          "time": 15.5,
          "velocity": 0.7874015748031497
        },
        {
          "duration": 0.25,
          "durationTicks": 512,
          "midi": 56,
          "name": "G#3",
          "ticks": 32256,
          "time": 15.75,
          "velocity": 0.7874015748031497
        },
        {
          "duration": 0.75,
          "durationTicks": 1536,
          "midi": 75,
          "name": "D#5",
          "ticks": 32768,
          "time": 16,
          "velocity": 0.7874015748031497
        },
        {
          "duration": 0.875,
          "durationTicks": 1792,
          "midi": 51,
          "name": "D#3",
          "ticks": 32768,
          "time": 16,
          "velocity": 0.7874015748031497
        },
        {
          "duration": 0.5,
          "durationTicks": 1024,
          "midi": 56,
          "name": "G#3",
          "ticks": 33280,
          "time": 16.25,
          "velocity": 0.7874015748031497
        },
        {
          "duration": 0.5,
          "durationTicks": 1024,
          "midi": 58,
          "name": "A#3",
          "ticks": 33536,
          "time": 16.375,
          "velocity": 0.7874015748031497
        },
        {
          "duration": 0.5,
          "durationTicks": 1024,
          "midi": 68,
          "name": "G#4",
          "ticks": 34048,
          "time": 16.625,
          "velocity": 0.7874015748031497
        },
        {
          "duration": 0.25,
          "durationTicks": 512,
          "midi": 75,
          "name": "D#5",
          "ticks": 34304,
          "time": 16.75,
          "velocity": 0.7874015748031497
        },
        {
          "duration": 0.5,
          "durationTicks": 1024,
          "midi": 70,
          "name": "A#4",
          "ticks": 34304,
          "time": 16.75,
          "velocity": 0.7874015748031497
        },
        {
          "duration": 1,
          "durationTicks": 2048,
          "midi": 75,
          "name": "D#5",
          "ticks": 34816,
          "time": 17,
          "velocity": 0.7874015748031497
        },
        {
          "duration": 1,
          "durationTicks": 2048,
          "midi": 65,
          "name": "F4",
          "ticks": 34816,
          "time": 17,
          "velocity": 0.5039370078740157
        },
        {
          "duration": 1,
          "durationTicks": 2048,
          "midi": 67,
          "name": "G4",
          "ticks": 34816,
          "time": 17,
          "velocity": 0.7874015748031497
        },
        {
          "duration": 0.0625,
          "durationTicks": 128,
          "midi": 36,
          "name": "C2",
          "ticks": 37888,
          "time": 18.5,
          "velocity": 0.5039370078740157
        },
        {
          "duration": 0.0625,
          "durationTicks": 128,
          "midi": 39,
          "name": "D#2",
          "ticks": 38016,
          "time": 18.5625,
          "velocity": 0.5039370078740157
        },
        {
          "duration": 0.0625,
          "durationTicks": 128,
          "midi": 41,
          "name": "F2",
          "ticks": 38144,
          "time": 18.625,
          "velocity": 0.5039370078740157
        },
        {
          "duration": 0.0625,
          "durationTicks": 128,
          "midi": 43,
          "name": "G2",
          "ticks": 38272,
          "time": 18.6875,
          "velocity": 0.5039370078740157
        },
        {
          "duration": 0.0625,
          "durationTicks": 128,
          "midi": 46,
          "name": "A#2",
          "ticks": 38400,
          "time": 18.75,
          "velocity": 0.5039370078740157
        },
        {
          "duration": 0.0625,
          "durationTicks": 128,
          "midi": 48,
          "name": "C3",
          "ticks": 38528,
          "time": 18.8125,
          "velocity": 0.5039370078740157
        },
        {
          "duration": 0.0625,
          "durationTicks": 128,
          "midi": 51,
          "name": "D#3",
          "ticks": 38656,
          "time": 18.875,
          "velocity": 0.5039370078740157
        },
        {
          "duration": 0.0625,
          "durationTicks": 128,
          "midi": 53,
          "name": "F3",
          "ticks": 38784,
          "time": 18.9375,
          "velocity": 0.5039370078740157
        },
        {
          "duration": 0.0625,
          "durationTicks": 128,
          "midi": 55,
          "name": "G3",
          "ticks": 38912,
          "time": 19,
          "velocity": 0.5039370078740157
        },
        {
          "duration": 0.0625,
          "durationTicks": 128,
          "midi": 58,
          "name": "A#3",
          "ticks": 39040,
          "time": 19.0625,
          "velocity": 0.5039370078740157
        },
        {
          "duration": 0.0625,
          "durationTicks": 128,
          "midi": 60,
          "name": "C4",
          "ticks": 39168,
          "time": 19.125,
          "velocity": 0.5039370078740157
        },
        {
          "duration": 0.0625,
          "durationTicks": 128,
          "midi": 63,
          "name": "D#4",
          "ticks": 39296,
          "time": 19.1875,
          "velocity": 0.5039370078740157
        },
        {
          "duration": 0.0625,
          "durationTicks": 128,
          "midi": 65,
          "name": "F4",
          "ticks": 39424,
          "time": 19.25,
          "velocity": 0.5039370078740157
        },
        {
          "duration": 0.0625,
          "durationTicks": 128,
          "midi": 67,
          "name": "G4",
          "ticks": 39552,
          "time": 19.3125,
          "velocity": 0.5039370078740157
        },
        {
          "duration": 0.0625,
          "durationTicks": 128,
          "midi": 70,
          "name": "A#4",
          "ticks": 39680,
          "time": 19.375,
          "velocity": 0.5039370078740157
        },
        {
          "duration": 0.0625,
          "durationTicks": 128,
          "midi": 72,
          "name": "C5",
          "ticks": 39808,
          "time": 19.4375,
          "velocity": 0.5039370078740157
        },
        {
          "duration": 0.0625,
          "durationTicks": 128,
          "midi": 75,
          "name": "D#5",
          "ticks": 39936,
          "time": 19.5,
          "velocity": 0.5039370078740157
        },
        {
          "duration": 0.0625,
          "durationTicks": 128,
          "midi": 77,
          "name": "F5",
          "ticks": 40064,
          "time": 19.5625,
          "velocity": 0.5039370078740157
        },
        {
          "duration": 0.0625,
          "durationTicks": 128,
          "midi": 79,
          "name": "G5",
          "ticks": 40192,
          "time": 19.625,
          "velocity": 0.5039370078740157
        },
        {
          "duration": 0.0625,
          "durationTicks": 128,
          "midi": 82,
          "name": "A#5",
          "ticks": 40320,
          "time": 19.6875,
          "velocity": 0.5039370078740157
        },
        {
          "duration": 0.0625,
          "durationTicks": 128,
          "midi": 84,
          "name": "C6",
          "ticks": 40448,
          "time": 19.75,
          "velocity": 0.5039370078740157
        },
        {
          "duration": 0.0625,
          "durationTicks": 128,
          "midi": 87,
          "name": "D#6",
          "ticks": 40576,
          "time": 19.8125,
          "velocity": 0.5039370078740157
        },
        {
          "duration": 0.0625,
          "durationTicks": 128,
          "midi": 89,
          "name": "F6",
          "ticks": 40704,
          "time": 19.875,
          "velocity": 0.5039370078740157
        },
        {
          "duration": 0.0625,
          "durationTicks": 128,
          "midi": 91,
          "name": "G6",
          "ticks": 40832,
          "time": 19.9375,
          "velocity": 0.5039370078740157
        },
        {
          "duration": 0.25,
          "durationTicks": 512,
          "midi": 75,
          "name": "D#5",
          "ticks": 40960,
          "time": 20,
          "velocity": 0.7874015748031497
        },
        {
          "duration": 0.25,
          "durationTicks": 512,
          "midi": 79,
          "name": "G5",
          "ticks": 40960,
          "time": 20,
          "velocity": 0.7874015748031497
        },
        {
          "duration": 0.25,
          "durationTicks": 512,
          "midi": 84,
          "name": "C6",
          "ticks": 40960,
          "time": 20,
          "velocity": 0.7874015748031497
        },
        {
          "duration": 0.25,
          "durationTicks": 512,
          "midi": 36,
          "name": "C2",
          "ticks": 40960,
          "time": 20,
          "velocity": 0.7874015748031497
        },
        {
          "duration": 0.25,
          "durationTicks": 512,
          "midi": 36,
          "name": "C2",
          "ticks": 41472,
          "time": 20.25,
          "velocity": 0.7874015748031497
        },
        {
          "duration": 0.25,
          "durationTicks": 512,
          "midi": 75,
          "name": "D#5",
          "ticks": 41984,
          "time": 20.5,
          "velocity": 0.7874015748031497
        },
        {
          "duration": 0.25,
          "durationTicks": 512,
          "midi": 79,
          "name": "G5",
          "ticks": 41984,
          "time": 20.5,
          "velocity": 0.7874015748031497
        },
        {
          "duration": 0.25,
          "durationTicks": 512,
          "midi": 84,
          "name": "C6",
          "ticks": 41984,
          "time": 20.5,
          "velocity": 0.7874015748031497
        },
        {
          "duration": 0.25,
          "durationTicks": 512,
          "midi": 36,
          "name": "C2",
          "ticks": 41984,
          "time": 20.5,
          "velocity": 0.7874015748031497
        },
        {
          "duration": 0.03125,
          "durationTicks": 64,
          "midi": 79,
          "name": "G5",
          "ticks": 42496,
          "time": 20.75,
          "velocity": 0.7874015748031497
        },
        {
          "duration": 0.03125,
          "durationTicks": 64,
          "midi": 84,
          "name": "C6",
          "ticks": 42496,
          "time": 20.75,
          "velocity": 0.7874015748031497
        },
        {
          "duration": 0.0625,
          "durationTicks": 128,
          "midi": 36,
          "name": "C2",
          "ticks": 42496,
          "time": 20.75,
          "velocity": 0.7874015748031497
        },
        {
          "duration": 0.25,
          "durationTicks": 512,
          "midi": 75,
          "name": "D#5",
          "ticks": 42752,
          "time": 20.875,
          "velocity": 0.7874015748031497
        },
        {
          "duration": 0.25,
          "durationTicks": 512,
          "midi": 80,
          "name": "G#5",
          "ticks": 42752,
          "time": 20.875,
          "velocity": 0.7874015748031497
        },
        {
          "duration": 0.25,
          "durationTicks": 512,
          "midi": 84,
          "name": "C6",
          "ticks": 42752,
          "time": 20.875,
          "velocity": 0.7874015748031497
        },
        {
          "duration": 0.25,
          "durationTicks": 512,
          "midi": 32,
          "name": "G#1",
          "ticks": 42752,
          "time": 20.875,
          "velocity": 0.7874015748031497
        },
        {
          "duration": 0.125,
          "durationTicks": 256,
          "midi": 75,
          "name": "D#5",
          "ticks": 43264,
          "time": 21.125,
          "velocity": 0.7874015748031497
        },
        {
          "duration": 0.125,
          "durationTicks": 256,
          "midi": 80,
          "name": "G#5",
          "ticks": 43264,
          "time": 21.125,
          "velocity": 0.7874015748031497
        },
        {
          "duration": 0.125,
          "durationTicks": 256,
          "midi": 84,
          "name": "C6",
          "ticks": 43264,
          "time": 21.125,
          "velocity": 0.7874015748031497
        },
        {
          "duration": 0.125,
          "durationTicks": 256,
          "midi": 32,
          "name": "G#1",
          "ticks": 43264,
          "time": 21.125,
          "velocity": 0.7874015748031497
        },
        {
          "duration": 0.25,
          "durationTicks": 512,
          "midi": 75,
          "name": "D#5",
          "ticks": 43520,
          "time": 21.25,
          "velocity": 0.7874015748031497
        },
        {
          "duration": 0.25,
          "durationTicks": 512,
          "midi": 80,
          "name": "G#5",
          "ticks": 43520,
          "time": 21.25,
          "velocity": 0.7874015748031497
        },
        {
          "duration": 0.25,
          "durationTicks": 512,
          "midi": 84,
          "name": "C6",
          "ticks": 43520,
          "time": 21.25,
          "velocity": 0.7874015748031497
        },
        {
          "duration": 0.25,
          "durationTicks": 512,
          "midi": 32,
          "name": "G#1",
          "ticks": 43520,
          "time": 21.25,
          "velocity": 0.7874015748031497
        },
        {
          "duration": 0.25,
          "durationTicks": 512,
          "midi": 75,
          "name": "D#5",
          "ticks": 44032,
          "time": 21.5,
          "velocity": 0.7874015748031497
        },
        {
          "duration": 0.25,
          "durationTicks": 512,
          "midi": 80,
          "name": "G#5",
          "ticks": 44032,
          "time": 21.5,
          "velocity": 0.7874015748031497
        },
        {
          "duration": 0.25,
          "durationTicks": 512,
          "midi": 84,
          "name": "C6",
          "ticks": 44032,
          "time": 21.5,
          "velocity": 0.7874015748031497
        },
        {
          "duration": 0.25,
          "durationTicks": 512,
          "midi": 32,
          "name": "G#1",
          "ticks": 44032,
          "time": 21.5,
          "velocity": 0.7874015748031497
        },
        {
          "duration": 0.25,
          "durationTicks": 512,
          "midi": 75,
          "name": "D#5",
          "ticks": 44544,
          "time": 21.75,
          "velocity": 0.7874015748031497
        },
        {
          "duration": 0.25,
          "durationTicks": 512,
          "midi": 80,
          "name": "G#5",
          "ticks": 44544,
          "time": 21.75,
          "velocity": 0.7874015748031497
        },
        {
          "duration": 0.25,
          "durationTicks": 512,
          "midi": 84,
          "name": "C6",
          "ticks": 44544,
          "time": 21.75,
          "velocity": 0.7874015748031497
        },
        {
          "duration": 0.25,
          "durationTicks": 512,
          "midi": 32,
          "name": "G#1",
          "ticks": 44544,
          "time": 21.75,
          "velocity": 0.7874015748031497
        },
        {
          "duration": 0.25,
          "durationTicks": 512,
          "midi": 77,
          "name": "F5",
          "ticks": 45056,
          "time": 22,
          "velocity": 0.7874015748031497
        },
        {
          "duration": 0.25,
          "durationTicks": 512,
          "midi": 82,
          "name": "A#5",
          "ticks": 45056,
          "time": 22,
          "velocity": 0.7874015748031497
        },
        {
          "duration": 0.25,
          "durationTicks": 512,
          "midi": 86,
          "name": "D6",
          "ticks": 45056,
          "time": 22,
          "velocity": 0.7874015748031497
        },
        {
          "duration": 0.25,
          "durationTicks": 512,
          "midi": 34,
          "name": "A#1",
          "ticks": 45056,
          "time": 22,
          "velocity": 0.7874015748031497
        },
        {
          "duration": 0.25,
          "durationTicks": 512,
          "midi": 34,
          "name": "A#1",
          "ticks": 45568,
          "time": 22.25,
          "velocity": 0.7874015748031497
        },
        {
          "duration": 0.25,
          "durationTicks": 512,
          "midi": 77,
          "name": "F5",
          "ticks": 46080,
          "time": 22.5,
          "velocity": 0.7874015748031497
        },
        {
          "duration": 0.25,
          "durationTicks": 512,
          "midi": 82,
          "name": "A#5",
          "ticks": 46080,
          "time": 22.5,
          "velocity": 0.7874015748031497
        },
        {
          "duration": 0.25,
          "durationTicks": 512,
          "midi": 34,
          "name": "A#1",
          "ticks": 46080,
          "time": 22.5,
          "velocity": 0.7874015748031497
        },
        {
          "duration": 0.04150390625,
          "durationTicks": 85,
          "midi": 77,
          "name": "F5",
          "ticks": 46592,
          "time": 22.75,
          "velocity": 0.7874015748031497
        },
        {
          "duration": 0.04150390625,
          "durationTicks": 85,
          "midi": 82,
          "name": "A#5",
          "ticks": 46592,
          "time": 22.75,
          "velocity": 0.7874015748031497
        },
        {
          "duration": 0.07275390625,
          "durationTicks": 149,
          "midi": 34,
          "name": "A#1",
          "ticks": 46592,
          "time": 22.75,
          "velocity": 0.7874015748031497
        },
        {
          "duration": 0.3330078125,
          "durationTicks": 682,
          "midi": 74,
          "name": "D5",
          "ticks": 46848,
          "time": 22.875,
          "velocity": 0.7874015748031497
        },
        {
          "duration": 0.25,
          "durationTicks": 512,
          "midi": 77,
          "name": "F5",
          "ticks": 46848,
          "time": 22.875,
          "velocity": 0.7874015748031497
        },
        {
          "duration": 0.25,
          "durationTicks": 512,
          "midi": 82,
          "name": "A#5",
          "ticks": 46848,
          "time": 22.875,
          "velocity": 0.7874015748031497
        },
        {
          "duration": 0.25,
          "durationTicks": 512,
          "midi": 31,
          "name": "G1",
          "ticks": 46848,
          "time": 22.875,
          "velocity": 0.7874015748031497
        },
        {
          "duration": 0.125,
          "durationTicks": 256,
          "midi": 31,
          "name": "G1",
          "ticks": 47360,
          "time": 23.125,
          "velocity": 0.7874015748031497
        },
        {
          "duration": 0.25,
          "durationTicks": 512,
          "midi": 74,
          "name": "D5",
          "ticks": 47616,
          "time": 23.25,
          "velocity": 0.7874015748031497
        },
        {
          "duration": 0.25,
          "durationTicks": 512,
          "midi": 77,
          "name": "F5",
          "ticks": 47616,
          "time": 23.25,
          "velocity": 0.7874015748031497
        },
        {
          "duration": 0.25,
          "durationTicks": 512,
          "midi": 82,
          "name": "A#5",
          "ticks": 47616,
          "time": 23.25,
          "velocity": 0.7874015748031497
        },
        {
          "duration": 0.25,
          "durationTicks": 512,
          "midi": 31,
          "name": "G1",
          "ticks": 47616,
          "time": 23.25,
          "velocity": 0.7874015748031497
        },
        {
          "duration": 0.25,
          "durationTicks": 512,
          "midi": 74,
          "name": "D5",
          "ticks": 48128,
          "time": 23.5,
          "velocity": 0.7874015748031497
        },
        {
          "duration": 0.25,
          "durationTicks": 512,
          "midi": 77,
          "name": "F5",
          "ticks": 48128,
          "time": 23.5,
          "velocity": 0.7874015748031497
        },
        {
          "duration": 0.25,
          "durationTicks": 512,
          "midi": 79,
          "name": "G5",
          "ticks": 48128,
          "time": 23.5,
          "velocity": 0.7874015748031497
        },
        {
          "duration": 0.25,
          "durationTicks": 512,
          "midi": 29,
          "name": "F1",
          "ticks": 48128,
          "time": 23.5,
          "velocity": 0.7874015748031497
        },
        {
          "duration": 0.25,
          "durationTicks": 512,
          "midi": 74,
          "name": "D5",
          "ticks": 48640,
          "time": 23.75,
          "velocity": 0.7874015748031497
        },
        {
          "duration": 0.25,
          "durationTicks": 512,
          "midi": 77,
          "name": "F5",
          "ticks": 48640,
          "time": 23.75,
          "velocity": 0.7874015748031497
        },
        {
          "duration": 0.25,
          "durationTicks": 512,
          "midi": 82,
          "name": "A#5",
          "ticks": 48640,
          "time": 23.75,
          "velocity": 0.7874015748031497
        },
        {
          "duration": 0.25,
          "durationTicks": 512,
          "midi": 31,
          "name": "G1",
          "ticks": 48640,
          "time": 23.75,
          "velocity": 0.7874015748031497
        },
        {
          "duration": 0.25,
          "durationTicks": 512,
          "midi": 72,
          "name": "C5",
          "ticks": 49152,
          "time": 24,
          "velocity": 0.7874015748031497
        },
        {
          "duration": 0.25,
          "durationTicks": 512,
          "midi": 75,
          "name": "D#5",
          "ticks": 49152,
          "time": 24,
          "velocity": 0.7874015748031497
        },
        {
          "duration": 0.25,
          "durationTicks": 512,
          "midi": 80,
          "name": "G#5",
          "ticks": 49152,
          "time": 24,
          "velocity": 0.7874015748031497
        },
        {
          "duration": 0.25,
          "durationTicks": 512,
          "midi": 32,
          "name": "G#1",
          "ticks": 49152,
          "time": 24,
          "velocity": 0.7874015748031497
        },
        {
          "duration": 0.25,
          "durationTicks": 512,
          "midi": 32,
          "name": "G#1",
          "ticks": 49664,
          "time": 24.25,
          "velocity": 0.7874015748031497
        },
        {
          "duration": 0.25,
          "durationTicks": 512,
          "midi": 72,
          "name": "C5",
          "ticks": 50176,
          "time": 24.5,
          "velocity": 0.7874015748031497
        },
        {
          "duration": 0.25,
          "durationTicks": 512,
          "midi": 75,
          "name": "D#5",
          "ticks": 50176,
          "time": 24.5,
          "velocity": 0.7874015748031497
        },
        {
          "duration": 0.25,
          "durationTicks": 512,
          "midi": 80,
          "name": "G#5",
          "ticks": 50176,
          "time": 24.5,
          "velocity": 0.7874015748031497
        },
        {
          "duration": 0.25,
          "durationTicks": 512,
          "midi": 32,
          "name": "G#1",
          "ticks": 50176,
          "time": 24.5,
          "velocity": 0.7874015748031497
        },
        {
          "duration": 0.07275390625,
          "durationTicks": 149,
          "midi": 32,
          "name": "G#1",
          "ticks": 50688,
          "time": 24.75,
          "velocity": 0.7874015748031497
        },
        {
          "duration": 0.375,
          "durationTicks": 768,
          "midi": 72,
          "name": "C5",
          "ticks": 50944,
          "time": 24.875,
          "velocity": 0.7874015748031497
        },
        {
          "duration": 0.375,
          "durationTicks": 768,
          "midi": 75,
          "name": "D#5",
          "ticks": 50944,
          "time": 24.875,
          "velocity": 0.7874015748031497
        },
        {
          "duration": 0.375,
          "durationTicks": 768,
          "midi": 77,
          "name": "F5",
          "ticks": 50944,
          "time": 24.875,
          "velocity": 0.7874015748031497
        },
        {
          "duration": 0.25,
          "durationTicks": 512,
          "midi": 29,
          "name": "F1",
          "ticks": 50944,
          "time": 24.875,
          "velocity": 0.7874015748031497
        },
        {
          "duration": 0.125,
          "durationTicks": 256,
          "midi": 29,
          "name": "F1",
          "ticks": 51456,
          "time": 25.125,
          "velocity": 0.7874015748031497
        },
        {
          "duration": 0.25,
          "durationTicks": 512,
          "midi": 72,
          "name": "C5",
          "ticks": 51712,
          "time": 25.25,
          "velocity": 0.7874015748031497
        },
        {
          "duration": 0.25,
          "durationTicks": 512,
          "midi": 75,
          "name": "D#5",
          "ticks": 51712,
          "time": 25.25,
          "velocity": 0.7874015748031497
        },
        {
          "duration": 0.25,
          "durationTicks": 512,
          "midi": 77,
          "name": "F5",
          "ticks": 51712,
          "time": 25.25,
          "velocity": 0.7874015748031497
        },
        {
          "duration": 0.25,
          "durationTicks": 512,
          "midi": 29,
          "name": "F1",
          "ticks": 51712,
          "time": 25.25,
          "velocity": 0.7874015748031497
        },
        {
          "duration": 0.25,
          "durationTicks": 512,
          "midi": 68,
          "name": "G#4",
          "ticks": 52224,
          "time": 25.5,
          "velocity": 0.7874015748031497
        },
        {
          "duration": 0.25,
          "durationTicks": 512,
          "midi": 72,
          "name": "C5",
          "ticks": 52224,
          "time": 25.5,
          "velocity": 0.7874015748031497
        },
        {
          "duration": 0.25,
          "durationTicks": 512,
          "midi": 75,
          "name": "D#5",
          "ticks": 52224,
          "time": 25.5,
          "velocity": 0.7874015748031497
        },
        {
          "duration": 0.25,
          "durationTicks": 512,
          "midi": 26,
          "name": "D1",
          "ticks": 52224,
          "time": 25.5,
          "velocity": 0.7874015748031497
        },
        {
          "duration": 0.25,
          "durationTicks": 512,
          "midi": 72,
          "name": "C5",
          "ticks": 52736,
          "time": 25.75,
          "velocity": 0.7874015748031497
        },
        {
          "duration": 0.25,
          "durationTicks": 512,
          "midi": 75,
          "name": "D#5",
          "ticks": 52736,
          "time": 25.75,
          "velocity": 0.7874015748031497
        },
        {
          "duration": 0.25,
          "durationTicks": 512,
          "midi": 77,
          "name": "F5",
          "ticks": 52736,
          "time": 25.75,
          "velocity": 0.7874015748031497
        },
        {
          "duration": 0.25,
          "durationTicks": 512,
          "midi": 29,
          "name": "F1",
          "ticks": 52736,
          "time": 25.75,
          "velocity": 0.7874015748031497
        },
        {
          "duration": 0.25,
          "durationTicks": 512,
          "midi": 70,
          "name": "A#4",
          "ticks": 53248,
          "time": 26,
          "velocity": 0.7874015748031497
        },
        {
          "duration": 0.25,
          "durationTicks": 512,
          "midi": 74,
          "name": "D5",
          "ticks": 53248,
          "time": 26,
          "velocity": 0.7874015748031497
        },
        {
          "duration": 0.25,
          "durationTicks": 512,
          "midi": 79,
          "name": "G5",
          "ticks": 53248,
          "time": 26,
          "velocity": 0.7874015748031497
        },
        {
          "duration": 0.25,
          "durationTicks": 512,
          "midi": 31,
          "name": "G1",
          "ticks": 53248,
          "time": 26,
          "velocity": 0.7874015748031497
        },
        {
          "duration": 0.25,
          "durationTicks": 512,
          "midi": 31,
          "name": "G1",
          "ticks": 53760,
          "time": 26.25,
          "velocity": 0.7874015748031497
        },
        {
          "duration": 0.25,
          "durationTicks": 512,
          "midi": 74,
          "name": "D5",
          "ticks": 54272,
          "time": 26.5,
          "velocity": 0.7874015748031497
        },
        {
          "duration": 0.25,
          "durationTicks": 512,
          "midi": 79,
          "name": "G5",
          "ticks": 54272,
          "time": 26.5,
          "velocity": 0.7874015748031497
        },
        {
          "duration": 0.25,
          "durationTicks": 512,
          "midi": 82,
          "name": "A#5",
          "ticks": 54272,
          "time": 26.5,
          "velocity": 0.7874015748031497
        },
        {
          "duration": 0.25,
          "durationTicks": 512,
          "midi": 31,
          "name": "G1",
          "ticks": 54272,
          "time": 26.5,
          "velocity": 0.7874015748031497
        },
        {
          "duration": 0.07275390625,
          "durationTicks": 149,
          "midi": 31,
          "name": "G1",
          "ticks": 54784,
          "time": 26.75,
          "velocity": 0.7874015748031497
        },
        {
          "duration": 0.375,
          "durationTicks": 768,
          "midi": 74,
          "name": "D5",
          "ticks": 55040,
          "time": 26.875,
          "velocity": 0.7874015748031497
        },
        {
          "duration": 0.375,
          "durationTicks": 768,
          "midi": 79,
          "name": "G5",
          "ticks": 55040,
          "time": 26.875,
          "velocity": 0.7874015748031497
        },
        {
          "duration": 0.375,
          "durationTicks": 768,
          "midi": 82,
          "name": "A#5",
          "ticks": 55040,
          "time": 26.875,
          "velocity": 0.7874015748031497
        },
        {
          "duration": 0.25,
          "durationTicks": 512,
          "midi": 34,
          "name": "A#1",
          "ticks": 55040,
          "time": 26.875,
          "velocity": 0.7874015748031497
        },
        {
          "duration": 0.125,
          "durationTicks": 256,
          "midi": 34,
          "name": "A#1",
          "ticks": 55552,
          "time": 27.125,
          "velocity": 0.7874015748031497
        },
        {
          "duration": 0.25,
          "durationTicks": 512,
          "midi": 74,
          "name": "D5",
          "ticks": 55808,
          "time": 27.25,
          "velocity": 0.7874015748031497
        },
        {
          "duration": 0.25,
          "durationTicks": 512,
          "midi": 79,
          "name": "G5",
          "ticks": 55808,
          "time": 27.25,
          "velocity": 0.7874015748031497
        },
        {
          "duration": 0.25,
          "durationTicks": 512,
          "midi": 82,
          "name": "A#5",
          "ticks": 55808,
          "time": 27.25,
          "velocity": 0.7874015748031497
        },
        {
          "duration": 0.25,
          "durationTicks": 512,
          "midi": 34,
          "name": "A#1",
          "ticks": 55808,
          "time": 27.25,
          "velocity": 0.7874015748031497
        },
        {
          "duration": 0.25,
          "durationTicks": 512,
          "midi": 70,
          "name": "A#4",
          "ticks": 56320,
          "time": 27.5,
          "velocity": 0.7874015748031497
        },
        {
          "duration": 0.25,
          "durationTicks": 512,
          "midi": 74,
          "name": "D5",
          "ticks": 56320,
          "time": 27.5,
          "velocity": 0.7874015748031497
        },
        {
          "duration": 0.25,
          "durationTicks": 512,
          "midi": 79,
          "name": "G5",
          "ticks": 56320,
          "time": 27.5,
          "velocity": 0.7874015748031497
        },
        {
          "duration": 0.25,
          "durationTicks": 512,
          "midi": 31,
          "name": "G1",
          "ticks": 56320,
          "time": 27.5,
          "velocity": 0.7874015748031497
        },
        {
          "duration": 0.25,
          "durationTicks": 512,
          "midi": 74,
          "name": "D5",
          "ticks": 56832,
          "time": 27.75,
          "velocity": 0.7874015748031497
        },
        {
          "duration": 0.25,
          "durationTicks": 512,
          "midi": 79,
          "name": "G5",
          "ticks": 56832,
          "time": 27.75,
          "velocity": 0.7874015748031497
        },
        {
          "duration": 0.25,
          "durationTicks": 512,
          "midi": 82,
          "name": "A#5",
          "ticks": 56832,
          "time": 27.75,
          "velocity": 0.7874015748031497
        },
        {
          "duration": 0.25,
          "durationTicks": 512,
          "midi": 34,
          "name": "A#1",
          "ticks": 56832,
          "time": 27.75,
          "velocity": 0.7874015748031497
        },
        {
          "duration": 0.25,
          "durationTicks": 512,
          "midi": 75,
          "name": "D#5",
          "ticks": 57344,
          "time": 28,
          "velocity": 0.7874015748031497
        },
        {
          "duration": 0.25,
          "durationTicks": 512,
          "midi": 79,
          "name": "G5",
          "ticks": 57344,
          "time": 28,
          "velocity": 0.7874015748031497
        },
        {
          "duration": 0.25,
          "durationTicks": 512,
          "midi": 84,
          "name": "C6",
          "ticks": 57344,
          "time": 28,
          "velocity": 0.7874015748031497
        },
        {
          "duration": 0.25,
          "durationTicks": 512,
          "midi": 36,
          "name": "C2",
          "ticks": 57344,
          "time": 28,
          "velocity": 0.7874015748031497
        },
        {
          "duration": 0.25,
          "durationTicks": 512,
          "midi": 36,
          "name": "C2",
          "ticks": 57856,
          "time": 28.25,
          "velocity": 0.7874015748031497
        },
        {
          "duration": 0.25,
          "durationTicks": 512,
          "midi": 75,
          "name": "D#5",
          "ticks": 58368,
          "time": 28.5,
          "velocity": 0.7874015748031497
        },
        {
          "duration": 0.25,
          "durationTicks": 512,
          "midi": 79,
          "name": "G5",
          "ticks": 58368,
          "time": 28.5,
          "velocity": 0.7874015748031497
        },
        {
          "duration": 0.25,
          "durationTicks": 512,
          "midi": 84,
          "name": "C6",
          "ticks": 58368,
          "time": 28.5,
          "velocity": 0.7874015748031497
        },
        {
          "duration": 0.25,
          "durationTicks": 512,
          "midi": 36,
          "name": "C2",
          "ticks": 58368,
          "time": 28.5,
          "velocity": 0.7874015748031497
        },
        {
          "duration": 0.03125,
          "durationTicks": 64,
          "midi": 79,
          "name": "G5",
          "ticks": 58880,
          "time": 28.75,
          "velocity": 0.7874015748031497
        },
        {
          "duration": 0.03125,
          "durationTicks": 64,
          "midi": 84,
          "name": "C6",
          "ticks": 58880,
          "time": 28.75,
          "velocity": 0.7874015748031497
        },
        {
          "duration": 0.07275390625,
          "durationTicks": 149,
          "midi": 36,
          "name": "C2",
          "ticks": 58880,
          "time": 28.75,
          "velocity": 0.7874015748031497
        },
        {
          "duration": 0.25,
          "durationTicks": 512,
          "midi": 75,
          "name": "D#5",
          "ticks": 59136,
          "time": 28.875,
          "velocity": 0.7874015748031497
        },
        {
          "duration": 0.25,
          "durationTicks": 512,
          "midi": 80,
          "name": "G#5",
          "ticks": 59136,
          "time": 28.875,
          "velocity": 0.7874015748031497
        },
        {
          "duration": 0.25,
          "durationTicks": 512,
          "midi": 84,
          "name": "C6",
          "ticks": 59136,
          "time": 28.875,
          "velocity": 0.7874015748031497
        },
        {
          "duration": 0.25,
          "durationTicks": 512,
          "midi": 32,
          "name": "G#1",
          "ticks": 59136,
          "time": 28.875,
          "velocity": 0.7874015748031497
        },
        {
          "duration": 0.125,
          "durationTicks": 256,
          "midi": 75,
          "name": "D#5",
          "ticks": 59648,
          "time": 29.125,
          "velocity": 0.7874015748031497
        },
        {
          "duration": 0.125,
          "durationTicks": 256,
          "midi": 80,
          "name": "G#5",
          "ticks": 59648,
          "time": 29.125,
          "velocity": 0.7874015748031497
        },
        {
          "duration": 0.125,
          "durationTicks": 256,
          "midi": 84,
          "name": "C6",
          "ticks": 59648,
          "time": 29.125,
          "velocity": 0.7874015748031497
        },
        {
          "duration": 0.125,
          "durationTicks": 256,
          "midi": 32,
          "name": "G#1",
          "ticks": 59648,
          "time": 29.125,
          "velocity": 0.7874015748031497
        },
        {
          "duration": 0.25,
          "durationTicks": 512,
          "midi": 75,
          "name": "D#5",
          "ticks": 59904,
          "time": 29.25,
          "velocity": 0.7874015748031497
        },
        {
          "duration": 0.25,
          "durationTicks": 512,
          "midi": 80,
          "name": "G#5",
          "ticks": 59904,
          "time": 29.25,
          "velocity": 0.7874015748031497
        },
        {
          "duration": 0.25,
          "durationTicks": 512,
          "midi": 84,
          "name": "C6",
          "ticks": 59904,
          "time": 29.25,
          "velocity": 0.7874015748031497
        },
        {
          "duration": 0.25,
          "durationTicks": 512,
          "midi": 32,
          "name": "G#1",
          "ticks": 59904,
          "time": 29.25,
          "velocity": 0.7874015748031497
        },
        {
          "duration": 0.25,
          "durationTicks": 512,
          "midi": 75,
          "name": "D#5",
          "ticks": 60416,
          "time": 29.5,
          "velocity": 0.7874015748031497
        },
        {
          "duration": 0.25,
          "durationTicks": 512,
          "midi": 80,
          "name": "G#5",
          "ticks": 60416,
          "time": 29.5,
          "velocity": 0.7874015748031497
        },
        {
          "duration": 0.25,
          "durationTicks": 512,
          "midi": 84,
          "name": "C6",
          "ticks": 60416,
          "time": 29.5,
          "velocity": 0.7874015748031497
        },
        {
          "duration": 0.25,
          "durationTicks": 512,
          "midi": 32,
          "name": "G#1",
          "ticks": 60416,
          "time": 29.5,
          "velocity": 0.7874015748031497
        },
        {
          "duration": 0.25,
          "durationTicks": 512,
          "midi": 75,
          "name": "D#5",
          "ticks": 60928,
          "time": 29.75,
          "velocity": 0.7874015748031497
        },
        {
          "duration": 0.25,
          "durationTicks": 512,
          "midi": 80,
          "name": "G#5",
          "ticks": 60928,
          "time": 29.75,
          "velocity": 0.7874015748031497
        },
        {
          "duration": 0.25,
          "durationTicks": 512,
          "midi": 84,
          "name": "C6",
          "ticks": 60928,
          "time": 29.75,
          "velocity": 0.7874015748031497
        },
        {
          "duration": 0.25,
          "durationTicks": 512,
          "midi": 32,
          "name": "G#1",
          "ticks": 60928,
          "time": 29.75,
          "velocity": 0.7874015748031497
        },
        {
          "duration": 0.25,
          "durationTicks": 512,
          "midi": 77,
          "name": "F5",
          "ticks": 61440,
          "time": 30,
          "velocity": 0.7874015748031497
        },
        {
          "duration": 0.25,
          "durationTicks": 512,
          "midi": 82,
          "name": "A#5",
          "ticks": 61440,
          "time": 30,
          "velocity": 0.7874015748031497
        },
        {
          "duration": 0.25,
          "durationTicks": 512,
          "midi": 86,
          "name": "D6",
          "ticks": 61440,
          "time": 30,
          "velocity": 0.7874015748031497
        },
        {
          "duration": 0.25,
          "durationTicks": 512,
          "midi": 34,
          "name": "A#1",
          "ticks": 61440,
          "time": 30,
          "velocity": 0.7874015748031497
        },
        {
          "duration": 0.25,
          "durationTicks": 512,
          "midi": 34,
          "name": "A#1",
          "ticks": 61952,
          "time": 30.25,
          "velocity": 0.7874015748031497
        },
        {
          "duration": 0.25,
          "durationTicks": 512,
          "midi": 77,
          "name": "F5",
          "ticks": 62464,
          "time": 30.5,
          "velocity": 0.7874015748031497
        },
        {
          "duration": 0.25,
          "durationTicks": 512,
          "midi": 82,
          "name": "A#5",
          "ticks": 62464,
          "time": 30.5,
          "velocity": 0.7874015748031497
        },
        {
          "duration": 0.25,
          "durationTicks": 512,
          "midi": 34,
          "name": "A#1",
          "ticks": 62464,
          "time": 30.5,
          "velocity": 0.7874015748031497
        },
        {
          "duration": 0.04150390625,
          "durationTicks": 85,
          "midi": 77,
          "name": "F5",
          "ticks": 62976,
          "time": 30.75,
          "velocity": 0.7874015748031497
        },
        {
          "duration": 0.04150390625,
          "durationTicks": 85,
          "midi": 82,
          "name": "A#5",
          "ticks": 62976,
          "time": 30.75,
          "velocity": 0.7874015748031497
        },
        {
          "duration": 0.07275390625,
          "durationTicks": 149,
          "midi": 34,
          "name": "A#1",
          "ticks": 62976,
          "time": 30.75,
          "velocity": 0.7874015748031497
        },
        {
          "duration": 0.3330078125,
          "durationTicks": 682,
          "midi": 74,
          "name": "D5",
          "ticks": 63232,
          "time": 30.875,
          "velocity": 0.7874015748031497
        },
        {
          "duration": 0.25,
          "durationTicks": 512,
          "midi": 77,
          "name": "F5",
          "ticks": 63232,
          "time": 30.875,
          "velocity": 0.7874015748031497
        },
        {
          "duration": 0.25,
          "durationTicks": 512,
          "midi": 82,
          "name": "A#5",
          "ticks": 63232,
          "time": 30.875,
          "velocity": 0.7874015748031497
        },
        {
          "duration": 0.25,
          "durationTicks": 512,
          "midi": 31,
          "name": "G1",
          "ticks": 63232,
          "time": 30.875,
          "velocity": 0.7874015748031497
        },
        {
          "duration": 0.125,
          "durationTicks": 256,
          "midi": 31,
          "name": "G1",
          "ticks": 63744,
          "time": 31.125,
          "velocity": 0.7874015748031497
        },
        {
          "duration": 0.25,
          "durationTicks": 512,
          "midi": 74,
          "name": "D5",
          "ticks": 64000,
          "time": 31.25,
          "velocity": 0.7874015748031497
        },
        {
          "duration": 0.25,
          "durationTicks": 512,
          "midi": 77,
          "name": "F5",
          "ticks": 64000,
          "time": 31.25,
          "velocity": 0.7874015748031497
        },
        {
          "duration": 0.25,
          "durationTicks": 512,
          "midi": 82,
          "name": "A#5",
          "ticks": 64000,
          "time": 31.25,
          "velocity": 0.7874015748031497
        },
        {
          "duration": 0.25,
          "durationTicks": 512,
          "midi": 31,
          "name": "G1",
          "ticks": 64000,
          "time": 31.25,
          "velocity": 0.7874015748031497
        },
        {
          "duration": 0.25,
          "durationTicks": 512,
          "midi": 74,
          "name": "D5",
          "ticks": 64512,
          "time": 31.5,
          "velocity": 0.7874015748031497
        },
        {
          "duration": 0.25,
          "durationTicks": 512,
          "midi": 77,
          "name": "F5",
          "ticks": 64512,
          "time": 31.5,
          "velocity": 0.7874015748031497
        },
        {
          "duration": 0.25,
          "durationTicks": 512,
          "midi": 79,
          "name": "G5",
          "ticks": 64512,
          "time": 31.5,
          "velocity": 0.7874015748031497
        },
        {
          "duration": 0.25,
          "durationTicks": 512,
          "midi": 31,
          "name": "G1",
          "ticks": 64512,
          "time": 31.5,
          "velocity": 0.7874015748031497
        },
        {
          "duration": 0.25,
          "durationTicks": 512,
          "midi": 74,
          "name": "D5",
          "ticks": 65024,
          "time": 31.75,
          "velocity": 0.7874015748031497
        },
        {
          "duration": 0.25,
          "durationTicks": 512,
          "midi": 77,
          "name": "F5",
          "ticks": 65024,
          "time": 31.75,
          "velocity": 0.7874015748031497
        },
        {
          "duration": 0.25,
          "durationTicks": 512,
          "midi": 82,
          "name": "A#5",
          "ticks": 65024,
          "time": 31.75,
          "velocity": 0.7874015748031497
        },
        {
          "duration": 0.25,
          "durationTicks": 512,
          "midi": 31,
          "name": "G1",
          "ticks": 65024,
          "time": 31.75,
          "velocity": 0.7874015748031497
        },
        {
          "duration": 0.25,
          "durationTicks": 512,
          "midi": 72,
          "name": "C5",
          "ticks": 65536,
          "time": 32,
          "velocity": 0.7874015748031497
        },
        {
          "duration": 0.25,
          "durationTicks": 512,
          "midi": 75,
          "name": "D#5",
          "ticks": 65536,
          "time": 32,
          "velocity": 0.7874015748031497
        },
        {
          "duration": 0.25,
          "durationTicks": 512,
          "midi": 80,
          "name": "G#5",
          "ticks": 65536,
          "time": 32,
          "velocity": 0.7874015748031497
        },
        {
          "duration": 0.25,
          "durationTicks": 512,
          "midi": 29,
          "name": "F1",
          "ticks": 65536,
          "time": 32,
          "velocity": 0.7874015748031497
        },
        {
          "duration": 0.25,
          "durationTicks": 512,
          "midi": 29,
          "name": "F1",
          "ticks": 66048,
          "time": 32.25,
          "velocity": 0.7874015748031497
        },
        {
          "duration": 0.25,
          "durationTicks": 512,
          "midi": 72,
          "name": "C5",
          "ticks": 66560,
          "time": 32.5,
          "velocity": 0.7874015748031497
        },
        {
          "duration": 0.25,
          "durationTicks": 512,
          "midi": 75,
          "name": "D#5",
          "ticks": 66560,
          "time": 32.5,
          "velocity": 0.7874015748031497
        },
        {
          "duration": 0.25,
          "durationTicks": 512,
          "midi": 80,
          "name": "G#5",
          "ticks": 66560,
          "time": 32.5,
          "velocity": 0.7874015748031497
        },
        {
          "duration": 0.25,
          "durationTicks": 512,
          "midi": 29,
          "name": "F1",
          "ticks": 66560,
          "time": 32.5,
          "velocity": 0.7874015748031497
        },
        {
          "duration": 0.07275390625,
          "durationTicks": 149,
          "midi": 29,
          "name": "F1",
          "ticks": 67072,
          "time": 32.75,
          "velocity": 0.7874015748031497
        },
        {
          "duration": 0.375,
          "durationTicks": 768,
          "midi": 74,
          "name": "D5",
          "ticks": 67328,
          "time": 32.875,
          "velocity": 0.7874015748031497
        },
        {
          "duration": 0.375,
          "durationTicks": 768,
          "midi": 77,
          "name": "F5",
          "ticks": 67328,
          "time": 32.875,
          "velocity": 0.7874015748031497
        },
        {
          "duration": 0.375,
          "durationTicks": 768,
          "midi": 82,
          "name": "A#5",
          "ticks": 67328,
          "time": 32.875,
          "velocity": 0.7874015748031497
        },
        {
          "duration": 0.25,
          "durationTicks": 512,
          "midi": 34,
          "name": "A#1",
          "ticks": 67328,
          "time": 32.875,
          "velocity": 0.7874015748031497
        },
        {
          "duration": 0.125,
          "durationTicks": 256,
          "midi": 34,
          "name": "A#1",
          "ticks": 67840,
          "time": 33.125,
          "velocity": 0.7874015748031497
        },
        {
          "duration": 0.25,
          "durationTicks": 512,
          "midi": 74,
          "name": "D5",
          "ticks": 68096,
          "time": 33.25,
          "velocity": 0.7874015748031497
        },
        {
          "duration": 0.25,
          "durationTicks": 512,
          "midi": 77,
          "name": "F5",
          "ticks": 68096,
          "time": 33.25,
          "velocity": 0.7874015748031497
        },
        {
          "duration": 0.25,
          "durationTicks": 512,
          "midi": 82,
          "name": "A#5",
          "ticks": 68096,
          "time": 33.25,
          "velocity": 0.7874015748031497
        },
        {
          "duration": 0.25,
          "durationTicks": 512,
          "midi": 34,
          "name": "A#1",
          "ticks": 68096,
          "time": 33.25,
          "velocity": 0.7874015748031497
        },
        {
          "duration": 0.25,
          "durationTicks": 512,
          "midi": 70,
          "name": "A#4",
          "ticks": 68608,
          "time": 33.5,
          "velocity": 0.7874015748031497
        },
        {
          "duration": 0.25,
          "durationTicks": 512,
          "midi": 74,
          "name": "D5",
          "ticks": 68608,
          "time": 33.5,
          "velocity": 0.7874015748031497
        },
        {
          "duration": 0.25,
          "durationTicks": 512,
          "midi": 77,
          "name": "F5",
          "ticks": 68608,
          "time": 33.5,
          "velocity": 0.7874015748031497
        },
        {
          "duration": 0.25,
          "durationTicks": 512,
          "midi": 34,
          "name": "A#1",
          "ticks": 68608,
          "time": 33.5,
          "velocity": 0.7874015748031497
        },
        {
          "duration": 0.25,
          "durationTicks": 512,
          "midi": 74,
          "name": "D5",
          "ticks": 69120,
          "time": 33.75,
          "velocity": 0.7874015748031497
        },
        {
          "duration": 0.25,
          "durationTicks": 512,
          "midi": 77,
          "name": "F5",
          "ticks": 69120,
          "time": 33.75,
          "velocity": 0.7874015748031497
        },
        {
          "duration": 0.25,
          "durationTicks": 512,
          "midi": 79,
          "name": "G5",
          "ticks": 69120,
          "time": 33.75,
          "velocity": 0.7874015748031497
        },
        {
          "duration": 0.25,
          "durationTicks": 512,
          "midi": 34,
          "name": "A#1",
          "ticks": 69120,
          "time": 33.75,
          "velocity": 0.7874015748031497
        },
        {
          "duration": 0.25,
          "durationTicks": 512,
          "midi": 70,
          "name": "A#4",
          "ticks": 69632,
          "time": 34,
          "velocity": 0.7874015748031497
        },
        {
          "duration": 0.25,
          "durationTicks": 512,
          "midi": 75,
          "name": "D#5",
          "ticks": 69632,
          "time": 34,
          "velocity": 0.7874015748031497
        },
        {
          "duration": 0.25,
          "durationTicks": 512,
          "midi": 79,
          "name": "G5",
          "ticks": 69632,
          "time": 34,
          "velocity": 0.7874015748031497
        },
        {
          "duration": 0.25,
          "durationTicks": 512,
          "midi": 39,
          "name": "D#2",
          "ticks": 69632,
          "time": 34,
          "velocity": 0.7874015748031497
        },
        {
          "duration": 0.0205078125,
          "durationTicks": 42,
          "midi": 39,
          "name": "D#2",
          "ticks": 70144,
          "time": 34.25,
          "velocity": 0.7874015748031497
        },
        {
          "duration": 0.25,
          "durationTicks": 512,
          "midi": 70,
          "name": "A#4",
          "ticks": 70400,
          "time": 34.375,
          "velocity": 0.7874015748031497
        },
        {
          "duration": 0.25,
          "durationTicks": 512,
          "midi": 75,
          "name": "D#5",
          "ticks": 70400,
          "time": 34.375,
          "velocity": 0.7874015748031497
        },
        {
          "duration": 0.25,
          "durationTicks": 512,
          "midi": 79,
          "name": "G5",
          "ticks": 70400,
          "time": 34.375,
          "velocity": 0.7874015748031497
        },
        {
          "duration": 0.25,
          "durationTicks": 512,
          "midi": 39,
          "name": "D#2",
          "ticks": 70400,
          "time": 34.375,
          "velocity": 0.7874015748031497
        },
        {
          "duration": 0.0205078125,
          "durationTicks": 42,
          "midi": 39,
          "name": "D#2",
          "ticks": 70912,
          "time": 34.625,
          "velocity": 0.7874015748031497
        },
        {
          "duration": 0.25,
          "durationTicks": 512,
          "midi": 70,
          "name": "A#4",
          "ticks": 71168,
          "time": 34.75,
          "velocity": 0.7874015748031497
        },
        {
          "duration": 0.25,
          "durationTicks": 512,
          "midi": 75,
          "name": "D#5",
          "ticks": 71168,
          "time": 34.75,
          "velocity": 0.7874015748031497
        },
        {
          "duration": 0.25,
          "durationTicks": 512,
          "midi": 79,
          "name": "G5",
          "ticks": 71168,
          "time": 34.75,
          "velocity": 0.7874015748031497
        },
        {
          "duration": 0.25,
          "durationTicks": 512,
          "midi": 39,
          "name": "D#2",
          "ticks": 71168,
          "time": 34.75,
          "velocity": 0.7874015748031497
        },
        {
          "duration": 0.0205078125,
          "durationTicks": 42,
          "midi": 39,
          "name": "D#2",
          "ticks": 71680,
          "time": 35,
          "velocity": 0.7874015748031497
        },
        {
          "duration": 0.25,
          "durationTicks": 512,
          "midi": 70,
          "name": "A#4",
          "ticks": 71936,
          "time": 35.125,
          "velocity": 0.7874015748031497
        },
        {
          "duration": 0.25,
          "durationTicks": 512,
          "midi": 75,
          "name": "D#5",
          "ticks": 71936,
          "time": 35.125,
          "velocity": 0.7874015748031497
        },
        {
          "duration": 0.25,
          "durationTicks": 512,
          "midi": 79,
          "name": "G5",
          "ticks": 71936,
          "time": 35.125,
          "velocity": 0.7874015748031497
        },
        {
          "duration": 0.25,
          "durationTicks": 512,
          "midi": 39,
          "name": "D#2",
          "ticks": 71936,
          "time": 35.125,
          "velocity": 0.7874015748031497
        },
        {
          "duration": 0.0205078125,
          "durationTicks": 42,
          "midi": 39,
          "name": "D#2",
          "ticks": 72448,
          "time": 35.375,
          "velocity": 0.7874015748031497
        },
        {
          "duration": 0.25,
          "durationTicks": 512,
          "midi": 70,
          "name": "A#4",
          "ticks": 72704,
          "time": 35.5,
          "velocity": 0.7874015748031497
        },
        {
          "duration": 0.25,
          "durationTicks": 512,
          "midi": 75,
          "name": "D#5",
          "ticks": 72704,
          "time": 35.5,
          "velocity": 0.7874015748031497
        },
        {
          "duration": 0.25,
          "durationTicks": 512,
          "midi": 79,
          "name": "G5",
          "ticks": 72704,
          "time": 35.5,
          "velocity": 0.7874015748031497
        },
        {
          "duration": 0.25,
          "durationTicks": 512,
          "midi": 39,
          "name": "D#2",
          "ticks": 72704,
          "time": 35.5,
          "velocity": 0.7874015748031497
        },
        {
          "duration": 0.25,
          "durationTicks": 512,
          "midi": 70,
          "name": "A#4",
          "ticks": 73216,
          "time": 35.75,
          "velocity": 0.7874015748031497
        },
        {
          "duration": 0.25,
          "durationTicks": 512,
          "midi": 75,
          "name": "D#5",
          "ticks": 73216,
          "time": 35.75,
          "velocity": 0.7874015748031497
        },
        {
          "duration": 0.25,
          "durationTicks": 512,
          "midi": 79,
          "name": "G5",
          "ticks": 73216,
          "time": 35.75,
          "velocity": 0.7874015748031497
        },
        {
          "duration": 0.25,
          "durationTicks": 512,
          "midi": 39,
          "name": "D#2",
          "ticks": 73216,
          "time": 35.75,
          "velocity": 0.7874015748031497
        },
        {
          "duration": 0.375,
          "durationTicks": 768,
          "midi": 63,
          "name": "D#4",
          "ticks": 73728,
          "time": 36,
          "velocity": 0.7874015748031497
        },
        {
          "duration": 0.375,
          "durationTicks": 768,
          "midi": 67,
          "name": "G4",
          "ticks": 73728,
          "time": 36,
          "velocity": 0.7874015748031497
        },
        {
          "duration": 0.375,
          "durationTicks": 768,
          "midi": 72,
          "name": "C5",
          "ticks": 73728,
          "time": 36,
          "velocity": 0.7874015748031497
        },
        {
          "duration": 0.2080078125,
          "durationTicks": 426,
          "midi": 36,
          "name": "C2",
          "ticks": 73728,
          "time": 36,
          "velocity": 0.7874015748031497
        },
        {
          "duration": 0.2080078125,
          "durationTicks": 426,
          "midi": 36,
          "name": "C2",
          "ticks": 74240,
          "time": 36.25,
          "velocity": 0.7874015748031497
        },
        {
          "duration": 0.25,
          "durationTicks": 512,
          "midi": 63,
          "name": "D#4",
          "ticks": 74752,
          "time": 36.5,
          "velocity": 0.7874015748031497
        },
        {
          "duration": 0.25,
          "durationTicks": 512,
          "midi": 67,
          "name": "G4",
          "ticks": 74752,
          "time": 36.5,
          "velocity": 0.7874015748031497
        },
        {
          "duration": 0.25,
          "durationTicks": 512,
          "midi": 72,
          "name": "C5",
          "ticks": 74752,
          "time": 36.5,
          "velocity": 0.7874015748031497
        },
        {
          "duration": 0.2080078125,
          "durationTicks": 426,
          "midi": 36,
          "name": "C2",
          "ticks": 74752,
          "time": 36.5,
          "velocity": 0.7874015748031497
        },
        {
          "duration": 0.2080078125,
          "durationTicks": 426,
          "midi": 36,
          "name": "C2",
          "ticks": 75264,
          "time": 36.75,
          "velocity": 0.7874015748031497
        },
        {
          "duration": 0.125,
          "durationTicks": 256,
          "midi": 63,
          "name": "D#4",
          "ticks": 75520,
          "time": 36.875,
          "velocity": 0.7874015748031497
        },
        {
          "duration": 0.125,
          "durationTicks": 256,
          "midi": 67,
          "name": "G4",
          "ticks": 75520,
          "time": 36.875,
          "velocity": 0.7874015748031497
        },
        {
          "duration": 0.125,
          "durationTicks": 256,
          "midi": 72,
          "name": "C5",
          "ticks": 75520,
          "time": 36.875,
          "velocity": 0.7874015748031497
        },
        {
          "duration": 0.2080078125,
          "durationTicks": 426,
          "midi": 36,
          "name": "C2",
          "ticks": 75776,
          "time": 37,
          "velocity": 0.7874015748031497
        },
        {
          "duration": 0.25,
          "durationTicks": 512,
          "midi": 63,
          "name": "D#4",
          "ticks": 76032,
          "time": 37.125,
          "velocity": 0.7874015748031497
        },
        {
          "duration": 0.25,
          "durationTicks": 512,
          "midi": 67,
          "name": "G4",
          "ticks": 76032,
          "time": 37.125,
          "velocity": 0.7874015748031497
        },
        {
          "duration": 0.25,
          "durationTicks": 512,
          "midi": 72,
          "name": "C5",
          "ticks": 76032,
          "time": 37.125,
          "velocity": 0.7874015748031497
        },
        {
          "duration": 0.2080078125,
          "durationTicks": 426,
          "midi": 36,
          "name": "C2",
          "ticks": 76288,
          "time": 37.25,
          "velocity": 0.7874015748031497
        },
        {
          "duration": 0.375,
          "durationTicks": 768,
          "midi": 63,
          "name": "D#4",
          "ticks": 76800,
          "time": 37.5,
          "velocity": 0.7874015748031497
        },
        {
          "duration": 0.375,
          "durationTicks": 768,
          "midi": 67,
          "name": "G4",
          "ticks": 76800,
          "time": 37.5,
          "velocity": 0.7874015748031497
        },
        {
          "duration": 0.375,
          "durationTicks": 768,
          "midi": 72,
          "name": "C5",
          "ticks": 76800,
          "time": 37.5,
          "velocity": 0.7874015748031497
        },
        {
          "duration": 0.2080078125,
          "durationTicks": 426,
          "midi": 36,
          "name": "C2",
          "ticks": 76800,
          "time": 37.5,
          "velocity": 0.7874015748031497
        },
        {
          "duration": 0.2080078125,
          "durationTicks": 426,
          "midi": 36,
          "name": "C2",
          "ticks": 77312,
          "time": 37.75,
          "velocity": 0.7874015748031497
        },
        {
          "duration": 0.375,
          "durationTicks": 768,
          "midi": 63,
          "name": "D#4",
          "ticks": 77824,
          "time": 38,
          "velocity": 0.7874015748031497
        },
        {
          "duration": 0.375,
          "durationTicks": 768,
          "midi": 67,
          "name": "G4",
          "ticks": 77824,
          "time": 38,
          "velocity": 0.7874015748031497
        },
        {
          "duration": 0.375,
          "durationTicks": 768,
          "midi": 72,
          "name": "C5",
          "ticks": 77824,
          "time": 38,
          "velocity": 0.7874015748031497
        },
        {
          "duration": 0.2080078125,
          "durationTicks": 426,
          "midi": 36,
          "name": "C2",
          "ticks": 77824,
          "time": 38,
          "velocity": 0.7874015748031497
        },
        {
          "duration": 0.2080078125,
          "durationTicks": 426,
          "midi": 36,
          "name": "C2",
          "ticks": 78336,
          "time": 38.25,
          "velocity": 0.7874015748031497
        },
        {
          "duration": 0.25,
          "durationTicks": 512,
          "midi": 63,
          "name": "D#4",
          "ticks": 78848,
          "time": 38.5,
          "velocity": 0.7874015748031497
        },
        {
          "duration": 0.25,
          "durationTicks": 512,
          "midi": 67,
          "name": "G4",
          "ticks": 78848,
          "time": 38.5,
          "velocity": 0.7874015748031497
        },
        {
          "duration": 0.25,
          "durationTicks": 512,
          "midi": 72,
          "name": "C5",
          "ticks": 78848,
          "time": 38.5,
          "velocity": 0.7874015748031497
        },
        {
          "duration": 0.2080078125,
          "durationTicks": 426,
          "midi": 36,
          "name": "C2",
          "ticks": 78848,
          "time": 38.5,
          "velocity": 0.7874015748031497
        },
        {
          "duration": 0.2080078125,
          "durationTicks": 426,
          "midi": 36,
          "name": "C2",
          "ticks": 79360,
          "time": 38.75,
          "velocity": 0.7874015748031497
        },
        {
          "duration": 0.125,
          "durationTicks": 256,
          "midi": 63,
          "name": "D#4",
          "ticks": 79616,
          "time": 38.875,
          "velocity": 0.7874015748031497
        },
        {
          "duration": 0.125,
          "durationTicks": 256,
          "midi": 67,
          "name": "G4",
          "ticks": 79616,
          "time": 38.875,
          "velocity": 0.7874015748031497
        },
        {
          "duration": 0.125,
          "durationTicks": 256,
          "midi": 72,
          "name": "C5",
          "ticks": 79616,
          "time": 38.875,
          "velocity": 0.7874015748031497
        },
        {
          "duration": 0.2080078125,
          "durationTicks": 426,
          "midi": 36,
          "name": "C2",
          "ticks": 79872,
          "time": 39,
          "velocity": 0.7874015748031497
        },
        {
          "duration": 0.25,
          "durationTicks": 512,
          "midi": 63,
          "name": "D#4",
          "ticks": 80128,
          "time": 39.125,
          "velocity": 0.7874015748031497
        },
        {
          "duration": 0.25,
          "durationTicks": 512,
          "midi": 67,
          "name": "G4",
          "ticks": 80128,
          "time": 39.125,
          "velocity": 0.7874015748031497
        },
        {
          "duration": 0.25,
          "durationTicks": 512,
          "midi": 72,
          "name": "C5",
          "ticks": 80128,
          "time": 39.125,
          "velocity": 0.7874015748031497
        },
        {
          "duration": 0.2080078125,
          "durationTicks": 426,
          "midi": 36,
          "name": "C2",
          "ticks": 80384,
          "time": 39.25,
          "velocity": 0.7874015748031497
        },
        {
          "duration": 0.375,
          "durationTicks": 768,
          "midi": 63,
          "name": "D#4",
          "ticks": 80896,
          "time": 39.5,
          "velocity": 0.7874015748031497
        },
        {
          "duration": 0.375,
          "durationTicks": 768,
          "midi": 67,
          "name": "G4",
          "ticks": 80896,
          "time": 39.5,
          "velocity": 0.7874015748031497
        },
        {
          "duration": 0.375,
          "durationTicks": 768,
          "midi": 72,
          "name": "C5",
          "ticks": 80896,
          "time": 39.5,
          "velocity": 0.7874015748031497
        },
        {
          "duration": 0.2080078125,
          "durationTicks": 426,
          "midi": 36,
          "name": "C2",
          "ticks": 80896,
          "time": 39.5,
          "velocity": 0.7874015748031497
        },
        {
          "duration": 0.2080078125,
          "durationTicks": 426,
          "midi": 36,
          "name": "C2",
          "ticks": 81408,
          "time": 39.75,
          "velocity": 0.7874015748031497
        },
        {
          "duration": 0.375,
          "durationTicks": 768,
          "midi": 63,
          "name": "D#4",
          "ticks": 81920,
          "time": 40,
          "velocity": 0.7874015748031497
        },
        {
          "duration": 0.375,
          "durationTicks": 768,
          "midi": 67,
          "name": "G4",
          "ticks": 81920,
          "time": 40,
          "velocity": 0.7874015748031497
        },
        {
          "duration": 0.375,
          "durationTicks": 768,
          "midi": 72,
          "name": "C5",
          "ticks": 81920,
          "time": 40,
          "velocity": 0.7874015748031497
        },
        {
          "duration": 0.2080078125,
          "durationTicks": 426,
          "midi": 36,
          "name": "C2",
          "ticks": 81920,
          "time": 40,
          "velocity": 0.7874015748031497
        },
        {
          "duration": 0.2080078125,
          "durationTicks": 426,
          "midi": 36,
          "name": "C2",
          "ticks": 82432,
          "time": 40.25,
          "velocity": 0.7874015748031497
        },
        {
          "duration": 0.25,
          "durationTicks": 512,
          "midi": 63,
          "name": "D#4",
          "ticks": 82944,
          "time": 40.5,
          "velocity": 0.7874015748031497
        },
        {
          "duration": 0.25,
          "durationTicks": 512,
          "midi": 67,
          "name": "G4",
          "ticks": 82944,
          "time": 40.5,
          "velocity": 0.7874015748031497
        },
        {
          "duration": 0.25,
          "durationTicks": 512,
          "midi": 72,
          "name": "C5",
          "ticks": 82944,
          "time": 40.5,
          "velocity": 0.7874015748031497
        },
        {
          "duration": 0.2080078125,
          "durationTicks": 426,
          "midi": 36,
          "name": "C2",
          "ticks": 82944,
          "time": 40.5,
          "velocity": 0.7874015748031497
        },
        {
          "duration": 0.2080078125,
          "durationTicks": 426,
          "midi": 36,
          "name": "C2",
          "ticks": 83456,
          "time": 40.75,
          "velocity": 0.7874015748031497
        },
        {
          "duration": 0.125,
          "durationTicks": 256,
          "midi": 63,
          "name": "D#4",
          "ticks": 83712,
          "time": 40.875,
          "velocity": 0.7874015748031497
        },
        {
          "duration": 0.125,
          "durationTicks": 256,
          "midi": 67,
          "name": "G4",
          "ticks": 83712,
          "time": 40.875,
          "velocity": 0.7874015748031497
        },
        {
          "duration": 0.125,
          "durationTicks": 256,
          "midi": 72,
          "name": "C5",
          "ticks": 83712,
          "time": 40.875,
          "velocity": 0.7874015748031497
        },
        {
          "duration": 0.2080078125,
          "durationTicks": 426,
          "midi": 36,
          "name": "C2",
          "ticks": 83968,
          "time": 41,
          "velocity": 0.7874015748031497
        },
        {
          "duration": 0.25,
          "durationTicks": 512,
          "midi": 63,
          "name": "D#4",
          "ticks": 84224,
          "time": 41.125,
          "velocity": 0.7874015748031497
        },
        {
          "duration": 0.25,
          "durationTicks": 512,
          "midi": 67,
          "name": "G4",
          "ticks": 84224,
          "time": 41.125,
          "velocity": 0.7874015748031497
        },
        {
          "duration": 0.25,
          "durationTicks": 512,
          "midi": 72,
          "name": "C5",
          "ticks": 84224,
          "time": 41.125,
          "velocity": 0.7874015748031497
        },
        {
          "duration": 0.2080078125,
          "durationTicks": 426,
          "midi": 36,
          "name": "C2",
          "ticks": 84480,
          "time": 41.25,
          "velocity": 0.7874015748031497
        },
        {
          "duration": 0.375,
          "durationTicks": 768,
          "midi": 63,
          "name": "D#4",
          "ticks": 84992,
          "time": 41.5,
          "velocity": 0.7874015748031497
        },
        {
          "duration": 0.375,
          "durationTicks": 768,
          "midi": 67,
          "name": "G4",
          "ticks": 84992,
          "time": 41.5,
          "velocity": 0.7874015748031497
        },
        {
          "duration": 0.375,
          "durationTicks": 768,
          "midi": 72,
          "name": "C5",
          "ticks": 84992,
          "time": 41.5,
          "velocity": 0.7874015748031497
        },
        {
          "duration": 0.2080078125,
          "durationTicks": 426,
          "midi": 36,
          "name": "C2",
          "ticks": 84992,
          "time": 41.5,
          "velocity": 0.7874015748031497
        },
        {
          "duration": 0.2080078125,
          "durationTicks": 426,
          "midi": 36,
          "name": "C2",
          "ticks": 85504,
          "time": 41.75,
          "velocity": 0.7874015748031497
        },
        {
          "duration": 0.125,
          "durationTicks": 256,
          "midi": 60,
          "name": "C4",
          "ticks": 86016,
          "time": 42,
          "velocity": 0.7874015748031497
        },
        {
          "duration": 0.2080078125,
          "durationTicks": 426,
          "midi": 36,
          "name": "C2",
          "ticks": 86016,
          "time": 42,
          "velocity": 0.7874015748031497
        },
        {
          "duration": 0.125,
          "durationTicks": 256,
          "midi": 55,
          "name": "G3",
          "ticks": 86272,
          "time": 42.125,
          "velocity": 0.7874015748031497
        },
        {
          "duration": 0.125,
          "durationTicks": 256,
          "midi": 67,
          "name": "G4",
          "ticks": 86528,
          "time": 42.25,
          "velocity": 0.7874015748031497
        },
        {
          "duration": 0.125,
          "durationTicks": 256,
          "midi": 60,
          "name": "C4",
          "ticks": 86784,
          "time": 42.375,
          "velocity": 0.7874015748031497
        },
        {
          "duration": 0.125,
          "durationTicks": 256,
          "midi": 72,
          "name": "C5",
          "ticks": 87040,
          "time": 42.5,
          "velocity": 0.7874015748031497
        },
        {
          "duration": 0.125,
          "durationTicks": 256,
          "midi": 55,
          "name": "G3",
          "ticks": 87296,
          "time": 42.625,
          "velocity": 0.7874015748031497
        },
        {
          "duration": 0.125,
          "durationTicks": 256,
          "midi": 60,
          "name": "C4",
          "ticks": 87552,
          "time": 42.75,
          "velocity": 0.7874015748031497
        },
        {
          "duration": 0.125,
          "durationTicks": 256,
          "midi": 67,
          "name": "G4",
          "ticks": 87808,
          "time": 42.875,
          "velocity": 0.7874015748031497
        },
        {
          "duration": 0.125,
          "durationTicks": 256,
          "midi": 60,
          "name": "C4",
          "ticks": 88064,
          "time": 43,
          "velocity": 0.7874015748031497
        },
        {
          "duration": 0.125,
          "durationTicks": 256,
          "midi": 55,
          "name": "G3",
          "ticks": 88320,
          "time": 43.125,
          "velocity": 0.7874015748031497
        },
        {
          "duration": 0.125,
          "durationTicks": 256,
          "midi": 72,
          "name": "C5",
          "ticks": 88576,
          "time": 43.25,
          "velocity": 0.7874015748031497
        },
        {
          "duration": 0.75,
          "durationTicks": 1536,
          "midi": 51,
          "name": "D#3",
          "ticks": 88576,
          "time": 43.25,
          "velocity": 0.7874015748031497
        },
        {
          "duration": 0.75,
          "durationTicks": 1536,
          "midi": 55,
          "name": "G3",
          "ticks": 88576,
          "time": 43.25,
          "velocity": 0.5039370078740157
        },
        {
          "duration": 0.125,
          "durationTicks": 256,
          "midi": 60,
          "name": "C4",
          "ticks": 88832,
          "time": 43.375,
          "velocity": 0.7874015748031497
        },
        {
          "duration": 0.125,
          "durationTicks": 256,
          "midi": 72,
          "name": "C5",
          "ticks": 89088,
          "time": 43.5,
          "velocity": 0.7874015748031497
        },
        {
          "duration": 0.125,
          "durationTicks": 256,
          "midi": 60,
          "name": "C4",
          "ticks": 89344,
          "time": 43.625,
          "velocity": 0.7874015748031497
        },
        {
          "duration": 0.125,
          "durationTicks": 256,
          "midi": 67,
          "name": "G4",
          "ticks": 89600,
          "time": 43.75,
          "velocity": 0.7874015748031497
        },
        {
          "duration": 0.125,
          "durationTicks": 256,
          "midi": 60,
          "name": "C4",
          "ticks": 89856,
          "time": 43.875,
          "velocity": 0.7874015748031497
        },
        {
          "duration": 0.25,
          "durationTicks": 512,
          "midi": 63,
          "name": "D#4",
          "ticks": 90112,
          "time": 44,
          "velocity": 0.7874015748031497
        },
        {
          "duration": 0.25,
          "durationTicks": 512,
          "midi": 67,
          "name": "G4",
          "ticks": 90112,
          "time": 44,
          "velocity": 0.5039370078740157
        },
        {
          "duration": 0.25,
          "durationTicks": 512,
          "midi": 72,
          "name": "C5",
          "ticks": 90112,
          "time": 44,
          "velocity": 0.5039370078740157
        },
        {
          "duration": 0.25,
          "durationTicks": 512,
          "midi": 36,
          "name": "C2",
          "ticks": 90112,
          "time": 44,
          "velocity": 0.7874015748031497
        },
        {
          "duration": 0.25,
          "durationTicks": 512,
          "midi": 72,
          "name": "C5",
          "ticks": 90624,
          "time": 44.25,
          "velocity": 0.7874015748031497
        },
        {
          "duration": 0.25,
          "durationTicks": 512,
          "midi": 36,
          "name": "C2",
          "ticks": 90624,
          "time": 44.25,
          "velocity": 0.7874015748031497
        },
        {
          "duration": 0.25,
          "durationTicks": 512,
          "midi": 72,
          "name": "C5",
          "ticks": 91136,
          "time": 44.5,
          "velocity": 0.7874015748031497
        },
        {
          "duration": 0.25,
          "durationTicks": 512,
          "midi": 36,
          "name": "C2",
          "ticks": 91136,
          "time": 44.5,
          "velocity": 0.7874015748031497
        },
        {
          "duration": 0.125,
          "durationTicks": 256,
          "midi": 72,
          "name": "C5",
          "ticks": 91648,
          "time": 44.75,
          "velocity": 0.7874015748031497
        },
        {
          "duration": 0.125,
          "durationTicks": 256,
          "midi": 36,
          "name": "C2",
          "ticks": 91648,
          "time": 44.75,
          "velocity": 0.7874015748031497
        },
        {
          "duration": 0.25,
          "durationTicks": 512,
          "midi": 72,
          "name": "C5",
          "ticks": 91904,
          "time": 44.875,
          "velocity": 0.7874015748031497
        },
        {
          "duration": 0.25,
          "durationTicks": 512,
          "midi": 36,
          "name": "C2",
          "ticks": 91904,
          "time": 44.875,
          "velocity": 0.7874015748031497
        },
        {
          "duration": 0.125,
          "durationTicks": 256,
          "midi": 72,
          "name": "C5",
          "ticks": 92416,
          "time": 45.125,
          "velocity": 0.7874015748031497
        },
        {
          "duration": 0.125,
          "durationTicks": 256,
          "midi": 36,
          "name": "C2",
          "ticks": 92416,
          "time": 45.125,
          "velocity": 0.7874015748031497
        },
        {
          "duration": 0.25,
          "durationTicks": 512,
          "midi": 72,
          "name": "C5",
          "ticks": 92672,
          "time": 45.25,
          "velocity": 0.7874015748031497
        },
        {
          "duration": 0.25,
          "durationTicks": 512,
          "midi": 36,
          "name": "C2",
          "ticks": 92672,
          "time": 45.25,
          "velocity": 0.7874015748031497
        },
        {
          "duration": 0.375,
          "durationTicks": 768,
          "midi": 63,
          "name": "D#4",
          "ticks": 93184,
          "time": 45.5,
          "velocity": 0.7874015748031497
        },
        {
          "duration": 0.5,
          "durationTicks": 1024,
          "midi": 67,
          "name": "G4",
          "ticks": 93184,
          "time": 45.5,
          "velocity": 0.5039370078740157
        },
        {
          "duration": 0.5,
          "durationTicks": 1024,
          "midi": 72,
          "name": "C5",
          "ticks": 93184,
          "time": 45.5,
          "velocity": 0.5039370078740157
        },
        {
          "duration": 0.25,
          "durationTicks": 512,
          "midi": 36,
          "name": "C2",
          "ticks": 93184,
          "time": 45.5,
          "velocity": 0.7874015748031497
        },
        {
          "duration": 0.25,
          "durationTicks": 512,
          "midi": 36,
          "name": "C2",
          "ticks": 93696,
          "time": 45.75,
          "velocity": 0.7874015748031497
        },
        {
          "duration": 0.25,
          "durationTicks": 512,
          "midi": 67,
          "name": "G4",
          "ticks": 94208,
          "time": 46,
          "velocity": 0.7874015748031497
        },
        {
          "duration": 0.25,
          "durationTicks": 512,
          "midi": 70,
          "name": "A#4",
          "ticks": 94208,
          "time": 46,
          "velocity": 0.5039370078740157
        },
        {
          "duration": 0.25,
          "durationTicks": 512,
          "midi": 75,
          "name": "D#5",
          "ticks": 94208,
          "time": 46,
          "velocity": 0.5039370078740157
        },
        {
          "duration": 0.25,
          "durationTicks": 512,
          "midi": 39,
          "name": "D#2",
          "ticks": 94208,
          "time": 46,
          "velocity": 0.7874015748031497
        },
        {
          "duration": 0.25,
          "durationTicks": 512,
          "midi": 75,
          "name": "D#5",
          "ticks": 94720,
          "time": 46.25,
          "velocity": 0.7874015748031497
        },
        {
          "duration": 0.25,
          "durationTicks": 512,
          "midi": 39,
          "name": "D#2",
          "ticks": 94720,
          "time": 46.25,
          "velocity": 0.7874015748031497
        },
        {
          "duration": 0.25,
          "durationTicks": 512,
          "midi": 75,
          "name": "D#5",
          "ticks": 95232,
          "time": 46.5,
          "velocity": 0.7874015748031497
        },
        {
          "duration": 0.25,
          "durationTicks": 512,
          "midi": 39,
          "name": "D#2",
          "ticks": 95232,
          "time": 46.5,
          "velocity": 0.7874015748031497
        },
        {
          "duration": 0.125,
          "durationTicks": 256,
          "midi": 75,
          "name": "D#5",
          "ticks": 95744,
          "time": 46.75,
          "velocity": 0.7874015748031497
        },
        {
          "duration": 0.125,
          "durationTicks": 256,
          "midi": 39,
          "name": "D#2",
          "ticks": 95744,
          "time": 46.75,
          "velocity": 0.7874015748031497
        },
        {
          "duration": 0.25,
          "durationTicks": 512,
          "midi": 77,
          "name": "F5",
          "ticks": 96000,
          "time": 46.875,
          "velocity": 0.7874015748031497
        },
        {
          "duration": 0.25,
          "durationTicks": 512,
          "midi": 41,
          "name": "F2",
          "ticks": 96000,
          "time": 46.875,
          "velocity": 0.7874015748031497
        },
        {
          "duration": 0.125,
          "durationTicks": 256,
          "midi": 70,
          "name": "A#4",
          "ticks": 96256,
          "time": 47,
          "velocity": 0.7874015748031497
        },
        {
          "duration": 0.125,
          "durationTicks": 256,
          "midi": 74,
          "name": "D5",
          "ticks": 96256,
          "time": 47,
          "velocity": 0.5039370078740157
        },
        {
          "duration": 0.125,
          "durationTicks": 256,
          "midi": 77,
          "name": "F5",
          "ticks": 96512,
          "time": 47.125,
          "velocity": 0.7874015748031497
        },
        {
          "duration": 0.125,
          "durationTicks": 256,
          "midi": 41,
          "name": "F2",
          "ticks": 96512,
          "time": 47.125,
          "velocity": 0.7874015748031497
        },
        {
          "duration": 0.125,
          "durationTicks": 256,
          "midi": 77,
          "name": "F5",
          "ticks": 96768,
          "time": 47.25,
          "velocity": 0.7874015748031497
        },
        {
          "duration": 0.25,
          "durationTicks": 512,
          "midi": 41,
          "name": "F2",
          "ticks": 96768,
          "time": 47.25,
          "velocity": 0.7874015748031497
        },
        {
          "duration": 0.375,
          "durationTicks": 768,
          "midi": 77,
          "name": "F5",
          "ticks": 97280,
          "time": 47.5,
          "velocity": 0.7874015748031497
        },
        {
          "duration": 0.25,
          "durationTicks": 512,
          "midi": 41,
          "name": "F2",
          "ticks": 97280,
          "time": 47.5,
          "velocity": 0.7874015748031497
        },
        {
          "duration": 0.25,
          "durationTicks": 512,
          "midi": 41,
          "name": "F2",
          "ticks": 97792,
          "time": 47.75,
          "velocity": 0.7874015748031497
        },
        {
          "duration": 0.25,
          "durationTicks": 512,
          "midi": 63,
          "name": "D#4",
          "ticks": 98304,
          "time": 48,
          "velocity": 0.7874015748031497
        },
        {
          "duration": 0.25,
          "durationTicks": 512,
          "midi": 67,
          "name": "G4",
          "ticks": 98304,
          "time": 48,
          "velocity": 0.5039370078740157
        },
        {
          "duration": 0.25,
          "durationTicks": 512,
          "midi": 72,
          "name": "C5",
          "ticks": 98304,
          "time": 48,
          "velocity": 0.5039370078740157
        },
        {
          "duration": 0.25,
          "durationTicks": 512,
          "midi": 36,
          "name": "C2",
          "ticks": 98304,
          "time": 48,
          "velocity": 0.7874015748031497
        },
        {
          "duration": 0.25,
          "durationTicks": 512,
          "midi": 72,
          "name": "C5",
          "ticks": 98816,
          "time": 48.25,
          "velocity": 0.7874015748031497
        },
        {
          "duration": 0.25,
          "durationTicks": 512,
          "midi": 36,
          "name": "C2",
          "ticks": 98816,
          "time": 48.25,
          "velocity": 0.7874015748031497
        },
        {
          "duration": 0.25,
          "durationTicks": 512,
          "midi": 72,
          "name": "C5",
          "ticks": 99328,
          "time": 48.5,
          "velocity": 0.7874015748031497
        },
        {
          "duration": 0.25,
          "durationTicks": 512,
          "midi": 36,
          "name": "C2",
          "ticks": 99328,
          "time": 48.5,
          "velocity": 0.7874015748031497
        },
        {
          "duration": 0.125,
          "durationTicks": 256,
          "midi": 72,
          "name": "C5",
          "ticks": 99840,
          "time": 48.75,
          "velocity": 0.7874015748031497
        },
        {
          "duration": 0.125,
          "durationTicks": 256,
          "midi": 36,
          "name": "C2",
          "ticks": 99840,
          "time": 48.75,
          "velocity": 0.7874015748031497
        },
        {
          "duration": 0.25,
          "durationTicks": 512,
          "midi": 72,
          "name": "C5",
          "ticks": 100096,
          "time": 48.875,
          "velocity": 0.7874015748031497
        },
        {
          "duration": 0.25,
          "durationTicks": 512,
          "midi": 36,
          "name": "C2",
          "ticks": 100096,
          "time": 48.875,
          "velocity": 0.7874015748031497
        },
        {
          "duration": 0.125,
          "durationTicks": 256,
          "midi": 72,
          "name": "C5",
          "ticks": 100608,
          "time": 49.125,
          "velocity": 0.7874015748031497
        },
        {
          "duration": 0.125,
          "durationTicks": 256,
          "midi": 36,
          "name": "C2",
          "ticks": 100608,
          "time": 49.125,
          "velocity": 0.7874015748031497
        },
        {
          "duration": 0.25,
          "durationTicks": 512,
          "midi": 72,
          "name": "C5",
          "ticks": 100864,
          "time": 49.25,
          "velocity": 0.7874015748031497
        },
        {
          "duration": 0.25,
          "durationTicks": 512,
          "midi": 36,
          "name": "C2",
          "ticks": 100864,
          "time": 49.25,
          "velocity": 0.7874015748031497
        },
        {
          "duration": 0.375,
          "durationTicks": 768,
          "midi": 63,
          "name": "D#4",
          "ticks": 101376,
          "time": 49.5,
          "velocity": 0.7874015748031497
        },
        {
          "duration": 0.5,
          "durationTicks": 1024,
          "midi": 67,
          "name": "G4",
          "ticks": 101376,
          "time": 49.5,
          "velocity": 0.5039370078740157
        },
        {
          "duration": 0.5,
          "durationTicks": 1024,
          "midi": 72,
          "name": "C5",
          "ticks": 101376,
          "time": 49.5,
          "velocity": 0.5039370078740157
        },
        {
          "duration": 0.25,
          "durationTicks": 512,
          "midi": 36,
          "name": "C2",
          "ticks": 101376,
          "time": 49.5,
          "velocity": 0.7874015748031497
        },
        {
          "duration": 0.25,
          "durationTicks": 512,
          "midi": 36,
          "name": "C2",
          "ticks": 101888,
          "time": 49.75,
          "velocity": 0.7874015748031497
        },
        {
          "duration": 0.25,
          "durationTicks": 512,
          "midi": 67,
          "name": "G4",
          "ticks": 102400,
          "time": 50,
          "velocity": 0.7874015748031497
        },
        {
          "duration": 0.25,
          "durationTicks": 512,
          "midi": 70,
          "name": "A#4",
          "ticks": 102400,
          "time": 50,
          "velocity": 0.5039370078740157
        },
        {
          "duration": 0.25,
          "durationTicks": 512,
          "midi": 75,
          "name": "D#5",
          "ticks": 102400,
          "time": 50,
          "velocity": 0.5039370078740157
        },
        {
          "duration": 0.25,
          "durationTicks": 512,
          "midi": 39,
          "name": "D#2",
          "ticks": 102400,
          "time": 50,
          "velocity": 0.7874015748031497
        },
        {
          "duration": 0.25,
          "durationTicks": 512,
          "midi": 75,
          "name": "D#5",
          "ticks": 102912,
          "time": 50.25,
          "velocity": 0.7874015748031497
        },
        {
          "duration": 0.25,
          "durationTicks": 512,
          "midi": 39,
          "name": "D#2",
          "ticks": 102912,
          "time": 50.25,
          "velocity": 0.7874015748031497
        },
        {
          "duration": 0.25,
          "durationTicks": 512,
          "midi": 75,
          "name": "D#5",
          "ticks": 103424,
          "time": 50.5,
          "velocity": 0.7874015748031497
        },
        {
          "duration": 0.25,
          "durationTicks": 512,
          "midi": 39,
          "name": "D#2",
          "ticks": 103424,
          "time": 50.5,
          "velocity": 0.7874015748031497
        },
        {
          "duration": 0.125,
          "durationTicks": 256,
          "midi": 75,
          "name": "D#5",
          "ticks": 103936,
          "time": 50.75,
          "velocity": 0.7874015748031497
        },
        {
          "duration": 0.125,
          "durationTicks": 256,
          "midi": 39,
          "name": "D#2",
          "ticks": 103936,
          "time": 50.75,
          "velocity": 0.7874015748031497
        },
        {
          "duration": 0.25,
          "durationTicks": 512,
          "midi": 77,
          "name": "F5",
          "ticks": 104192,
          "time": 50.875,
          "velocity": 0.7874015748031497
        },
        {
          "duration": 0.25,
          "durationTicks": 512,
          "midi": 34,
          "name": "A#1",
          "ticks": 104192,
          "time": 50.875,
          "velocity": 0.7874015748031497
        },
        {
          "duration": 0.125,
          "durationTicks": 256,
          "midi": 70,
          "name": "A#4",
          "ticks": 104448,
          "time": 51,
          "velocity": 0.7874015748031497
        },
        {
          "duration": 0.125,
          "durationTicks": 256,
          "midi": 74,
          "name": "D5",
          "ticks": 104448,
          "time": 51,
          "velocity": 0.5039370078740157
        },
        {
          "duration": 0.125,
          "durationTicks": 256,
          "midi": 77,
          "name": "F5",
          "ticks": 104704,
          "time": 51.125,
          "velocity": 0.7874015748031497
        },
        {
          "duration": 0.125,
          "durationTicks": 256,
          "midi": 34,
          "name": "A#1",
          "ticks": 104704,
          "time": 51.125,
          "velocity": 0.7874015748031497
        },
        {
          "duration": 0.125,
          "durationTicks": 256,
          "midi": 77,
          "name": "F5",
          "ticks": 104960,
          "time": 51.25,
          "velocity": 0.7874015748031497
        },
        {
          "duration": 0.25,
          "durationTicks": 512,
          "midi": 34,
          "name": "A#1",
          "ticks": 104960,
          "time": 51.25,
          "velocity": 0.7874015748031497
        },
        {
          "duration": 0.375,
          "durationTicks": 768,
          "midi": 77,
          "name": "F5",
          "ticks": 105472,
          "time": 51.5,
          "velocity": 0.7874015748031497
        },
        {
          "duration": 0.25,
          "durationTicks": 512,
          "midi": 34,
          "name": "A#1",
          "ticks": 105472,
          "time": 51.5,
          "velocity": 0.7874015748031497
        },
        {
          "duration": 0.25,
          "durationTicks": 512,
          "midi": 34,
          "name": "A#1",
          "ticks": 105984,
          "time": 51.75,
          "velocity": 0.7874015748031497
        },
        {
          "duration": 0.25,
          "durationTicks": 512,
          "midi": 63,
          "name": "D#4",
          "ticks": 106496,
          "time": 52,
          "velocity": 0.7874015748031497
        },
        {
          "duration": 0.25,
          "durationTicks": 512,
          "midi": 67,
          "name": "G4",
          "ticks": 106496,
          "time": 52,
          "velocity": 0.5039370078740157
        },
        {
          "duration": 0.25,
          "durationTicks": 512,
          "midi": 72,
          "name": "C5",
          "ticks": 106496,
          "time": 52,
          "velocity": 0.5039370078740157
        },
        {
          "duration": 0.25,
          "durationTicks": 512,
          "midi": 36,
          "name": "C2",
          "ticks": 106496,
          "time": 52,
          "velocity": 0.7874015748031497
        },
        {
          "duration": 0.25,
          "durationTicks": 512,
          "midi": 72,
          "name": "C5",
          "ticks": 107008,
          "time": 52.25,
          "velocity": 0.7874015748031497
        },
        {
          "duration": 0.25,
          "durationTicks": 512,
          "midi": 36,
          "name": "C2",
          "ticks": 107008,
          "time": 52.25,
          "velocity": 0.7874015748031497
        },
        {
          "duration": 0.25,
          "durationTicks": 512,
          "midi": 72,
          "name": "C5",
          "ticks": 107520,
          "time": 52.5,
          "velocity": 0.7874015748031497
        },
        {
          "duration": 0.25,
          "durationTicks": 512,
          "midi": 36,
          "name": "C2",
          "ticks": 107520,
          "time": 52.5,
          "velocity": 0.7874015748031497
        },
        {
          "duration": 0.125,
          "durationTicks": 256,
          "midi": 72,
          "name": "C5",
          "ticks": 108032,
          "time": 52.75,
          "velocity": 0.7874015748031497
        },
        {
          "duration": 0.125,
          "durationTicks": 256,
          "midi": 36,
          "name": "C2",
          "ticks": 108032,
          "time": 52.75,
          "velocity": 0.7874015748031497
        },
        {
          "duration": 0.25,
          "durationTicks": 512,
          "midi": 72,
          "name": "C5",
          "ticks": 108288,
          "time": 52.875,
          "velocity": 0.7874015748031497
        },
        {
          "duration": 0.25,
          "durationTicks": 512,
          "midi": 36,
          "name": "C2",
          "ticks": 108288,
          "time": 52.875,
          "velocity": 0.7874015748031497
        },
        {
          "duration": 0.125,
          "durationTicks": 256,
          "midi": 72,
          "name": "C5",
          "ticks": 108800,
          "time": 53.125,
          "velocity": 0.7874015748031497
        },
        {
          "duration": 0.125,
          "durationTicks": 256,
          "midi": 36,
          "name": "C2",
          "ticks": 108800,
          "time": 53.125,
          "velocity": 0.7874015748031497
        },
        {
          "duration": 0.25,
          "durationTicks": 512,
          "midi": 72,
          "name": "C5",
          "ticks": 109056,
          "time": 53.25,
          "velocity": 0.7874015748031497
        },
        {
          "duration": 0.25,
          "durationTicks": 512,
          "midi": 36,
          "name": "C2",
          "ticks": 109056,
          "time": 53.25,
          "velocity": 0.7874015748031497
        },
        {
          "duration": 0.375,
          "durationTicks": 768,
          "midi": 63,
          "name": "D#4",
          "ticks": 109568,
          "time": 53.5,
          "velocity": 0.7874015748031497
        },
        {
          "duration": 0.5,
          "durationTicks": 1024,
          "midi": 67,
          "name": "G4",
          "ticks": 109568,
          "time": 53.5,
          "velocity": 0.5039370078740157
        },
        {
          "duration": 0.5,
          "durationTicks": 1024,
          "midi": 72,
          "name": "C5",
          "ticks": 109568,
          "time": 53.5,
          "velocity": 0.5039370078740157
        },
        {
          "duration": 0.25,
          "durationTicks": 512,
          "midi": 36,
          "name": "C2",
          "ticks": 109568,
          "time": 53.5,
          "velocity": 0.7874015748031497
        },
        {
          "duration": 0.25,
          "durationTicks": 512,
          "midi": 36,
          "name": "C2",
          "ticks": 110080,
          "time": 53.75,
          "velocity": 0.7874015748031497
        },
        {
          "duration": 0.25,
          "durationTicks": 512,
          "midi": 67,
          "name": "G4",
          "ticks": 110592,
          "time": 54,
          "velocity": 0.7874015748031497
        },
        {
          "duration": 0.25,
          "durationTicks": 512,
          "midi": 70,
          "name": "A#4",
          "ticks": 110592,
          "time": 54,
          "velocity": 0.5039370078740157
        },
        {
          "duration": 0.25,
          "durationTicks": 512,
          "midi": 75,
          "name": "D#5",
          "ticks": 110592,
          "time": 54,
          "velocity": 0.5039370078740157
        },
        {
          "duration": 0.25,
          "durationTicks": 512,
          "midi": 39,
          "name": "D#2",
          "ticks": 110592,
          "time": 54,
          "velocity": 0.7874015748031497
        },
        {
          "duration": 0.25,
          "durationTicks": 512,
          "midi": 75,
          "name": "D#5",
          "ticks": 111104,
          "time": 54.25,
          "velocity": 0.7874015748031497
        },
        {
          "duration": 0.25,
          "durationTicks": 512,
          "midi": 39,
          "name": "D#2",
          "ticks": 111104,
          "time": 54.25,
          "velocity": 0.7874015748031497
        },
        {
          "duration": 0.25,
          "durationTicks": 512,
          "midi": 75,
          "name": "D#5",
          "ticks": 111616,
          "time": 54.5,
          "velocity": 0.7874015748031497
        },
        {
          "duration": 0.25,
          "durationTicks": 512,
          "midi": 39,
          "name": "D#2",
          "ticks": 111616,
          "time": 54.5,
          "velocity": 0.7874015748031497
        },
        {
          "duration": 0.125,
          "durationTicks": 256,
          "midi": 75,
          "name": "D#5",
          "ticks": 112128,
          "time": 54.75,
          "velocity": 0.7874015748031497
        },
        {
          "duration": 0.125,
          "durationTicks": 256,
          "midi": 39,
          "name": "D#2",
          "ticks": 112128,
          "time": 54.75,
          "velocity": 0.7874015748031497
        },
        {
          "duration": 0.25,
          "durationTicks": 512,
          "midi": 77,
          "name": "F5",
          "ticks": 112384,
          "time": 54.875,
          "velocity": 0.7874015748031497
        },
        {
          "duration": 0.25,
          "durationTicks": 512,
          "midi": 41,
          "name": "F2",
          "ticks": 112384,
          "time": 54.875,
          "velocity": 0.7874015748031497
        },
        {
          "duration": 0.125,
          "durationTicks": 256,
          "midi": 70,
          "name": "A#4",
          "ticks": 112640,
          "time": 55,
          "velocity": 0.7874015748031497
        },
        {
          "duration": 0.125,
          "durationTicks": 256,
          "midi": 74,
          "name": "D5",
          "ticks": 112640,
          "time": 55,
          "velocity": 0.5039370078740157
        },
        {
          "duration": 0.125,
          "durationTicks": 256,
          "midi": 77,
          "name": "F5",
          "ticks": 112896,
          "time": 55.125,
          "velocity": 0.7874015748031497
        },
        {
          "duration": 0.125,
          "durationTicks": 256,
          "midi": 41,
          "name": "F2",
          "ticks": 112896,
          "time": 55.125,
          "velocity": 0.7874015748031497
        },
        {
          "duration": 0.125,
          "durationTicks": 256,
          "midi": 77,
          "name": "F5",
          "ticks": 113152,
          "time": 55.25,
          "velocity": 0.7874015748031497
        },
        {
          "duration": 0.25,
          "durationTicks": 512,
          "midi": 41,
          "name": "F2",
          "ticks": 113152,
          "time": 55.25,
          "velocity": 0.7874015748031497
        },
        {
          "duration": 0.5,
          "durationTicks": 1024,
          "midi": 74,
          "name": "D5",
          "ticks": 113664,
          "time": 55.5,
          "velocity": 0.7874015748031497
        },
        {
          "duration": 0.5,
          "durationTicks": 1024,
          "midi": 77,
          "name": "F5",
          "ticks": 113664,
          "time": 55.5,
          "velocity": 0.7874015748031497
        },
        {
          "duration": 0.5,
          "durationTicks": 1024,
          "midi": 81,
          "name": "A5",
          "ticks": 113664,
          "time": 55.5,
          "velocity": 0.7874015748031497
        },
        {
          "duration": 0.25,
          "durationTicks": 512,
          "midi": 41,
          "name": "F2",
          "ticks": 113664,
          "time": 55.5,
          "velocity": 0.7874015748031497
        },
        {
          "duration": 0.25,
          "durationTicks": 512,
          "midi": 41,
          "name": "F2",
          "ticks": 114176,
          "time": 55.75,
          "velocity": 0.7874015748031497
        },
        {
          "duration": 0.25,
          "durationTicks": 512,
          "midi": 72,
          "name": "C5",
          "ticks": 114688,
          "time": 56,
          "velocity": 0.7874015748031497
        },
        {
          "duration": 0.25,
          "durationTicks": 512,
          "midi": 75,
          "name": "D#5",
          "ticks": 114688,
          "time": 56,
          "velocity": 0.7874015748031497
        },
        {
          "duration": 0.25,
          "durationTicks": 512,
          "midi": 80,
          "name": "G#5",
          "ticks": 114688,
          "time": 56,
          "velocity": 0.7874015748031497
        },
        {
          "duration": 0.25,
          "durationTicks": 512,
          "midi": 32,
          "name": "G#1",
          "ticks": 114688,
          "time": 56,
          "velocity": 0.7874015748031497
        },
        {
          "duration": 0.25,
          "durationTicks": 512,
          "midi": 75,
          "name": "D#5",
          "ticks": 115200,
          "time": 56.25,
          "velocity": 0.7874015748031497
        },
        {
          "duration": 0.25,
          "durationTicks": 512,
          "midi": 32,
          "name": "G#1",
          "ticks": 115200,
          "time": 56.25,
          "velocity": 0.7874015748031497
        },
        {
          "duration": 0.25,
          "durationTicks": 512,
          "midi": 75,
          "name": "D#5",
          "ticks": 115712,
          "time": 56.5,
          "velocity": 0.7874015748031497
        },
        {
          "duration": 0.25,
          "durationTicks": 512,
          "midi": 32,
          "name": "G#1",
          "ticks": 115712,
          "time": 56.5,
          "velocity": 0.7874015748031497
        },
        {
          "duration": 0.125,
          "durationTicks": 256,
          "midi": 75,
          "name": "D#5",
          "ticks": 116224,
          "time": 56.75,
          "velocity": 0.7874015748031497
        },
        {
          "duration": 0.125,
          "durationTicks": 256,
          "midi": 32,
          "name": "G#1",
          "ticks": 116224,
          "time": 56.75,
          "velocity": 0.7874015748031497
        },
        {
          "duration": 0.25,
          "durationTicks": 512,
          "midi": 77,
          "name": "F5",
          "ticks": 116480,
          "time": 56.875,
          "velocity": 0.7874015748031497
        },
        {
          "duration": 0.25,
          "durationTicks": 512,
          "midi": 34,
          "name": "A#1",
          "ticks": 116480,
          "time": 56.875,
          "velocity": 0.7874015748031497
        },
        {
          "duration": 0.125,
          "durationTicks": 256,
          "midi": 70,
          "name": "A#4",
          "ticks": 116736,
          "time": 57,
          "velocity": 0.7874015748031497
        },
        {
          "duration": 0.125,
          "durationTicks": 256,
          "midi": 74,
          "name": "D5",
          "ticks": 116736,
          "time": 57,
          "velocity": 0.7874015748031497
        },
        {
          "duration": 0.125,
          "durationTicks": 256,
          "midi": 77,
          "name": "F5",
          "ticks": 116992,
          "time": 57.125,
          "velocity": 0.7874015748031497
        },
        {
          "duration": 0.125,
          "durationTicks": 256,
          "midi": 34,
          "name": "A#1",
          "ticks": 116992,
          "time": 57.125,
          "velocity": 0.7874015748031497
        },
        {
          "duration": 0.25,
          "durationTicks": 512,
          "midi": 77,
          "name": "F5",
          "ticks": 117248,
          "time": 57.25,
          "velocity": 0.7874015748031497
        },
        {
          "duration": 0.25,
          "durationTicks": 512,
          "midi": 34,
          "name": "A#1",
          "ticks": 117248,
          "time": 57.25,
          "velocity": 0.7874015748031497
        },
        {
          "duration": 0.25,
          "durationTicks": 512,
          "midi": 75,
          "name": "D#5",
          "ticks": 117760,
          "time": 57.5,
          "velocity": 0.7874015748031497
        },
        {
          "duration": 0.25,
          "durationTicks": 512,
          "midi": 34,
          "name": "A#1",
          "ticks": 117760,
          "time": 57.5,
          "velocity": 0.7874015748031497
        },
        {
          "duration": 0.25,
          "durationTicks": 512,
          "midi": 77,
          "name": "F5",
          "ticks": 118272,
          "time": 57.75,
          "velocity": 0.7874015748031497
        },
        {
          "duration": 0.25,
          "durationTicks": 512,
          "midi": 34,
          "name": "A#1",
          "ticks": 118272,
          "time": 57.75,
          "velocity": 0.7874015748031497
        },
        {
          "duration": 0.25,
          "durationTicks": 512,
          "midi": 63,
          "name": "D#4",
          "ticks": 118784,
          "time": 58,
          "velocity": 0.7874015748031497
        },
        {
          "duration": 0.25,
          "durationTicks": 512,
          "midi": 67,
          "name": "G4",
          "ticks": 118784,
          "time": 58,
          "velocity": 0.5039370078740157
        },
        {
          "duration": 0.25,
          "durationTicks": 512,
          "midi": 72,
          "name": "C5",
          "ticks": 118784,
          "time": 58,
          "velocity": 0.5039370078740157
        },
        {
          "duration": 0.25,
          "durationTicks": 512,
          "midi": 75,
          "name": "D#5",
          "ticks": 118784,
          "time": 58,
          "velocity": 0.5039370078740157
        },
        {
          "duration": 0.25,
          "durationTicks": 512,
          "midi": 36,
          "name": "C2",
          "ticks": 118784,
          "time": 58,
          "velocity": 0.7874015748031497
        },
        {
          "duration": 0.25,
          "durationTicks": 512,
          "midi": 72,
          "name": "C5",
          "ticks": 119296,
          "time": 58.25,
          "velocity": 0.7874015748031497
        },
        {
          "duration": 0.25,
          "durationTicks": 512,
          "midi": 36,
          "name": "C2",
          "ticks": 119296,
          "time": 58.25,
          "velocity": 0.7874015748031497
        },
        {
          "duration": 0.25,
          "durationTicks": 512,
          "midi": 72,
          "name": "C5",
          "ticks": 119808,
          "time": 58.5,
          "velocity": 0.7874015748031497
        },
        {
          "duration": 0.25,
          "durationTicks": 512,
          "midi": 36,
          "name": "C2",
          "ticks": 119808,
          "time": 58.5,
          "velocity": 0.7874015748031497
        },
        {
          "duration": 0.125,
          "durationTicks": 256,
          "midi": 70,
          "name": "A#4",
          "ticks": 120320,
          "time": 58.75,
          "velocity": 0.7874015748031497
        },
        {
          "duration": 0.125,
          "durationTicks": 256,
          "midi": 36,
          "name": "C2",
          "ticks": 120320,
          "time": 58.75,
          "velocity": 0.7874015748031497
        },
        {
          "duration": 0.625,
          "durationTicks": 1280,
          "midi": 72,
          "name": "C5",
          "ticks": 120576,
          "time": 58.875,
          "velocity": 0.7874015748031497
        },
        {
          "duration": 0.25,
          "durationTicks": 512,
          "midi": 36,
          "name": "C2",
          "ticks": 120576,
          "time": 58.875,
          "velocity": 0.7874015748031497
        },
        {
          "duration": 0.5,
          "durationTicks": 1024,
          "midi": 63,
          "name": "D#4",
          "ticks": 120832,
          "time": 59,
          "velocity": 0.7874015748031497
        },
        {
          "duration": 0.5,
          "durationTicks": 1024,
          "midi": 67,
          "name": "G4",
          "ticks": 120832,
          "time": 59,
          "velocity": 0.7874015748031497
        },
        {
          "duration": 0.5,
          "durationTicks": 1024,
          "midi": 70,
          "name": "A#4",
          "ticks": 120832,
          "time": 59,
          "velocity": 0.7874015748031497
        },
        {
          "duration": 0.125,
          "durationTicks": 256,
          "midi": 36,
          "name": "C2",
          "ticks": 121088,
          "time": 59.125,
          "velocity": 0.7874015748031497
        },
        {
          "duration": 0.25,
          "durationTicks": 512,
          "midi": 36,
          "name": "C2",
          "ticks": 121344,
          "time": 59.25,
          "velocity": 0.7874015748031497
        },
        {
          "duration": 0.5,
          "durationTicks": 1024,
          "midi": 63,
          "name": "D#4",
          "ticks": 121856,
          "time": 59.5,
          "velocity": 0.7874015748031497
        },
        {
          "duration": 0.5,
          "durationTicks": 1024,
          "midi": 67,
          "name": "G4",
          "ticks": 121856,
          "time": 59.5,
          "velocity": 0.7874015748031497
        },
        {
          "duration": 0.5,
          "durationTicks": 1024,
          "midi": 72,
          "name": "C5",
          "ticks": 121856,
          "time": 59.5,
          "velocity": 0.7874015748031497
        },
        {
          "duration": 0.25,
          "durationTicks": 512,
          "midi": 36,
          "name": "C2",
          "ticks": 121856,
          "time": 59.5,
          "velocity": 0.7874015748031497
        },
        {
          "duration": 0.25,
          "durationTicks": 512,
          "midi": 36,
          "name": "C2",
          "ticks": 122368,
          "time": 59.75,
          "velocity": 0.7874015748031497
        },
        {
          "duration": 0.5,
          "durationTicks": 1024,
          "midi": 68,
          "name": "G#4",
          "ticks": 122880,
          "time": 60,
          "velocity": 0.7874015748031497
        },
        {
          "duration": 0.5,
          "durationTicks": 1024,
          "midi": 72,
          "name": "C5",
          "ticks": 122880,
          "time": 60,
          "velocity": 0.5039370078740157
        },
        {
          "duration": 0.5,
          "durationTicks": 1024,
          "midi": 80,
          "name": "G#5",
          "ticks": 122880,
          "time": 60,
          "velocity": 0.5039370078740157
        },
        {
          "duration": 0.25,
          "durationTicks": 512,
          "midi": 32,
          "name": "G#1",
          "ticks": 122880,
          "time": 60,
          "velocity": 0.7874015748031497
        },
        {
          "duration": 0.25,
          "durationTicks": 512,
          "midi": 32,
          "name": "G#1",
          "ticks": 123392,
          "time": 60.25,
          "velocity": 0.7874015748031497
        },
        {
          "duration": 0.25,
          "durationTicks": 512,
          "midi": 32,
          "name": "G#1",
          "ticks": 123904,
          "time": 60.5,
          "velocity": 0.7874015748031497
        },
        {
          "duration": 0.75,
          "durationTicks": 1536,
          "midi": 65,
          "name": "F4",
          "ticks": 124416,
          "time": 60.75,
          "velocity": 0.7874015748031497
        },
        {
          "duration": 0.75,
          "durationTicks": 1536,
          "midi": 70,
          "name": "A#4",
          "ticks": 124416,
          "time": 60.75,
          "velocity": 0.5039370078740157
        },
        {
          "duration": 0.75,
          "durationTicks": 1536,
          "midi": 74,
          "name": "D5",
          "ticks": 124416,
          "time": 60.75,
          "velocity": 0.5039370078740157
        },
        {
          "duration": 0.75,
          "durationTicks": 1536,
          "midi": 77,
          "name": "F5",
          "ticks": 124416,
          "time": 60.75,
          "velocity": 0.5039370078740157
        },
        {
          "duration": 0.125,
          "durationTicks": 256,
          "midi": 32,
          "name": "G#1",
          "ticks": 124416,
          "time": 60.75,
          "velocity": 0.7874015748031497
        },
        {
          "duration": 0.25,
          "durationTicks": 512,
          "midi": 34,
          "name": "A#1",
          "ticks": 124672,
          "time": 60.875,
          "velocity": 0.7874015748031497
        },
        {
          "duration": 0.125,
          "durationTicks": 256,
          "midi": 34,
          "name": "A#1",
          "ticks": 125184,
          "time": 61.125,
          "velocity": 0.7874015748031497
        },
        {
          "duration": 0.25,
          "durationTicks": 512,
          "midi": 34,
          "name": "A#1",
          "ticks": 125440,
          "time": 61.25,
          "velocity": 0.7874015748031497
        },
        {
          "duration": 0.5,
          "durationTicks": 1024,
          "midi": 74,
          "name": "D5",
          "ticks": 125952,
          "time": 61.5,
          "velocity": 0.7874015748031497
        },
        {
          "duration": 0.25,
          "durationTicks": 512,
          "midi": 34,
          "name": "A#1",
          "ticks": 125952,
          "time": 61.5,
          "velocity": 0.7874015748031497
        },
        {
          "duration": 0.25,
          "durationTicks": 512,
          "midi": 34,
          "name": "A#1",
          "ticks": 126464,
          "time": 61.75,
          "velocity": 0.7874015748031497
        },
        {
          "duration": 0.5,
          "durationTicks": 1024,
          "midi": 65,
          "name": "F4",
          "ticks": 126976,
          "time": 62,
          "velocity": 0.7874015748031497
        },
        {
          "duration": 0.5,
          "durationTicks": 1024,
          "midi": 70,
          "name": "A#4",
          "ticks": 126976,
          "time": 62,
          "velocity": 0.7874015748031497
        },
        {
          "duration": 0.5,
          "durationTicks": 1024,
          "midi": 74,
          "name": "D5",
          "ticks": 126976,
          "time": 62,
          "velocity": 0.7874015748031497
        },
        {
          "duration": 0.25,
          "durationTicks": 512,
          "midi": 31,
          "name": "G1",
          "ticks": 126976,
          "time": 62,
          "velocity": 0.7874015748031497
        },
        {
          "duration": 0.25,
          "durationTicks": 512,
          "midi": 31,
          "name": "G1",
          "ticks": 127488,
          "time": 62.25,
          "velocity": 0.7874015748031497
        },
        {
          "duration": 0.25,
          "durationTicks": 512,
          "midi": 77,
          "name": "F5",
          "ticks": 128000,
          "time": 62.5,
          "velocity": 0.7874015748031497
        },
        {
          "duration": 0.25,
          "durationTicks": 512,
          "midi": 31,
          "name": "G1",
          "ticks": 128000,
          "time": 62.5,
          "velocity": 0.7874015748031497
        },
        {
          "duration": 0.75,
          "durationTicks": 1536,
          "midi": 63,
          "name": "D#4",
          "ticks": 128512,
          "time": 62.75,
          "velocity": 0.7874015748031497
        },
        {
          "duration": 0.75,
          "durationTicks": 1536,
          "midi": 67,
          "name": "G4",
          "ticks": 128512,
          "time": 62.75,
          "velocity": 0.7874015748031497
        },
        {
          "duration": 0.75,
          "durationTicks": 1536,
          "midi": 72,
          "name": "C5",
          "ticks": 128512,
          "time": 62.75,
          "velocity": 0.7874015748031497
        },
        {
          "duration": 0.75,
          "durationTicks": 1536,
          "midi": 75,
          "name": "D#5",
          "ticks": 128512,
          "time": 62.75,
          "velocity": 0.5039370078740157
        },
        {
          "duration": 0.125,
          "durationTicks": 256,
          "midi": 31,
          "name": "G1",
          "ticks": 128512,
          "time": 62.75,
          "velocity": 0.7874015748031497
        },
        {
          "duration": 0.25,
          "durationTicks": 512,
          "midi": 36,
          "name": "C2",
          "ticks": 128768,
          "time": 62.875,
          "velocity": 0.7874015748031497
        },
        {
          "duration": 0.125,
          "durationTicks": 256,
          "midi": 36,
          "name": "C2",
          "ticks": 129280,
          "time": 63.125,
          "velocity": 0.7874015748031497
        },
        {
          "duration": 0.25,
          "durationTicks": 512,
          "midi": 36,
          "name": "C2",
          "ticks": 129536,
          "time": 63.25,
          "velocity": 0.7874015748031497
        },
        {
          "duration": 0.25,
          "durationTicks": 512,
          "midi": 65,
          "name": "F4",
          "ticks": 130048,
          "time": 63.5,
          "velocity": 0.7874015748031497
        },
        {
          "duration": 0.25,
          "durationTicks": 512,
          "midi": 67,
          "name": "G4",
          "ticks": 130048,
          "time": 63.5,
          "velocity": 0.7874015748031497
        },
        {
          "duration": 0.25,
          "durationTicks": 512,
          "midi": 72,
          "name": "C5",
          "ticks": 130048,
          "time": 63.5,
          "velocity": 0.7874015748031497
        },
        {
          "duration": 0.25,
          "durationTicks": 512,
          "midi": 75,
          "name": "D#5",
          "ticks": 130048,
          "time": 63.5,
          "velocity": 0.7874015748031497
        },
        {
          "duration": 0.25,
          "durationTicks": 512,
          "midi": 77,
          "name": "F5",
          "ticks": 130048,
          "time": 63.5,
          "velocity": 0.5039370078740157
        },
        {
          "duration": 0.25,
          "durationTicks": 512,
          "midi": 34,
          "name": "A#1",
          "ticks": 130048,
          "time": 63.5,
          "velocity": 0.7874015748031497
        },
        {
          "duration": 0.25,
          "durationTicks": 512,
          "midi": 79,
          "name": "G5",
          "ticks": 130560,
          "time": 63.75,
          "velocity": 0.7874015748031497
        },
        {
          "duration": 0.25,
          "durationTicks": 512,
          "midi": 34,
          "name": "A#1",
          "ticks": 130560,
          "time": 63.75,
          "velocity": 0.7874015748031497
        },
        {
          "duration": 0.5,
          "durationTicks": 1024,
          "midi": 68,
          "name": "G#4",
          "ticks": 131072,
          "time": 64,
          "velocity": 0.7874015748031497
        },
        {
          "duration": 0.5,
          "durationTicks": 1024,
          "midi": 72,
          "name": "C5",
          "ticks": 131072,
          "time": 64,
          "velocity": 0.5039370078740157
        },
        {
          "duration": 0.5,
          "durationTicks": 1024,
          "midi": 80,
          "name": "G#5",
          "ticks": 131072,
          "time": 64,
          "velocity": 0.5039370078740157
        },
        {
          "duration": 0.25,
          "durationTicks": 512,
          "midi": 32,
          "name": "G#1",
          "ticks": 131072,
          "time": 64,
          "velocity": 0.7874015748031497
        },
        {
          "duration": 0.25,
          "durationTicks": 512,
          "midi": 32,
          "name": "G#1",
          "ticks": 131584,
          "time": 64.25,
          "velocity": 0.7874015748031497
        },
        {
          "duration": 0.25,
          "durationTicks": 512,
          "midi": 32,
          "name": "G#1",
          "ticks": 132096,
          "time": 64.5,
          "velocity": 0.7874015748031497
        },
        {
          "duration": 0.75,
          "durationTicks": 1536,
          "midi": 65,
          "name": "F4",
          "ticks": 132608,
          "time": 64.75,
          "velocity": 0.7874015748031497
        },
        {
          "duration": 0.75,
          "durationTicks": 1536,
          "midi": 70,
          "name": "A#4",
          "ticks": 132608,
          "time": 64.75,
          "velocity": 0.5039370078740157
        },
        {
          "duration": 0.75,
          "durationTicks": 1536,
          "midi": 74,
          "name": "D5",
          "ticks": 132608,
          "time": 64.75,
          "velocity": 0.5039370078740157
        },
        {
          "duration": 0.75,
          "durationTicks": 1536,
          "midi": 77,
          "name": "F5",
          "ticks": 132608,
          "time": 64.75,
          "velocity": 0.5039370078740157
        },
        {
          "duration": 0.125,
          "durationTicks": 256,
          "midi": 32,
          "name": "G#1",
          "ticks": 132608,
          "time": 64.75,
          "velocity": 0.7874015748031497
        },
        {
          "duration": 0.25,
          "durationTicks": 512,
          "midi": 34,
          "name": "A#1",
          "ticks": 132864,
          "time": 64.875,
          "velocity": 0.7874015748031497
        },
        {
          "duration": 0.125,
          "durationTicks": 256,
          "midi": 34,
          "name": "A#1",
          "ticks": 133376,
          "time": 65.125,
          "velocity": 0.7874015748031497
        },
        {
          "duration": 0.25,
          "durationTicks": 512,
          "midi": 34,
          "name": "A#1",
          "ticks": 133632,
          "time": 65.25,
          "velocity": 0.7874015748031497
        },
        {
          "duration": 0.5,
          "durationTicks": 1024,
          "midi": 74,
          "name": "D5",
          "ticks": 134144,
          "time": 65.5,
          "velocity": 0.7874015748031497
        },
        {
          "duration": 0.25,
          "durationTicks": 512,
          "midi": 34,
          "name": "A#1",
          "ticks": 134144,
          "time": 65.5,
          "velocity": 0.7874015748031497
        },
        {
          "duration": 0.25,
          "durationTicks": 512,
          "midi": 34,
          "name": "A#1",
          "ticks": 134656,
          "time": 65.75,
          "velocity": 0.7874015748031497
        },
        {
          "duration": 0.5,
          "durationTicks": 1024,
          "midi": 65,
          "name": "F4",
          "ticks": 135168,
          "time": 66,
          "velocity": 0.7874015748031497
        },
        {
          "duration": 0.5,
          "durationTicks": 1024,
          "midi": 70,
          "name": "A#4",
          "ticks": 135168,
          "time": 66,
          "velocity": 0.7874015748031497
        },
        {
          "duration": 0.5,
          "durationTicks": 1024,
          "midi": 74,
          "name": "D5",
          "ticks": 135168,
          "time": 66,
          "velocity": 0.7874015748031497
        },
        {
          "duration": 0.25,
          "durationTicks": 512,
          "midi": 31,
          "name": "G1",
          "ticks": 135168,
          "time": 66,
          "velocity": 0.7874015748031497
        },
        {
          "duration": 0.25,
          "durationTicks": 512,
          "midi": 31,
          "name": "G1",
          "ticks": 135680,
          "time": 66.25,
          "velocity": 0.7874015748031497
        },
        {
          "duration": 0.25,
          "durationTicks": 512,
          "midi": 77,
          "name": "F5",
          "ticks": 136192,
          "time": 66.5,
          "velocity": 0.7874015748031497
        },
        {
          "duration": 0.25,
          "durationTicks": 512,
          "midi": 31,
          "name": "G1",
          "ticks": 136192,
          "time": 66.5,
          "velocity": 0.7874015748031497
        },
        {
          "duration": 0.75,
          "durationTicks": 1536,
          "midi": 63,
          "name": "D#4",
          "ticks": 136704,
          "time": 66.75,
          "velocity": 0.7874015748031497
        },
        {
          "duration": 0.75,
          "durationTicks": 1536,
          "midi": 67,
          "name": "G4",
          "ticks": 136704,
          "time": 66.75,
          "velocity": 0.7874015748031497
        },
        {
          "duration": 0.75,
          "durationTicks": 1536,
          "midi": 72,
          "name": "C5",
          "ticks": 136704,
          "time": 66.75,
          "velocity": 0.7874015748031497
        },
        {
          "duration": 0.75,
          "durationTicks": 1536,
          "midi": 75,
          "name": "D#5",
          "ticks": 136704,
          "time": 66.75,
          "velocity": 0.5039370078740157
        },
        {
          "duration": 0.125,
          "durationTicks": 256,
          "midi": 31,
          "name": "G1",
          "ticks": 136704,
          "time": 66.75,
          "velocity": 0.7874015748031497
        },
        {
          "duration": 0.25,
          "durationTicks": 512,
          "midi": 36,
          "name": "C2",
          "ticks": 136960,
          "time": 66.875,
          "velocity": 0.7874015748031497
        },
        {
          "duration": 0.125,
          "durationTicks": 256,
          "midi": 36,
          "name": "C2",
          "ticks": 137472,
          "time": 67.125,
          "velocity": 0.7874015748031497
        },
        {
          "duration": 0.25,
          "durationTicks": 512,
          "midi": 36,
          "name": "C2",
          "ticks": 137728,
          "time": 67.25,
          "velocity": 0.7874015748031497
        },
        {
          "duration": 0.5,
          "durationTicks": 1024,
          "midi": 65,
          "name": "F4",
          "ticks": 138240,
          "time": 67.5,
          "velocity": 0.7874015748031497
        },
        {
          "duration": 0.5,
          "durationTicks": 1024,
          "midi": 67,
          "name": "G4",
          "ticks": 138240,
          "time": 67.5,
          "velocity": 0.7874015748031497
        },
        {
          "duration": 0.5,
          "durationTicks": 1024,
          "midi": 72,
          "name": "C5",
          "ticks": 138240,
          "time": 67.5,
          "velocity": 0.7874015748031497
        },
        {
          "duration": 0.5,
          "durationTicks": 1024,
          "midi": 75,
          "name": "D#5",
          "ticks": 138240,
          "time": 67.5,
          "velocity": 0.7874015748031497
        },
        {
          "duration": 0.25,
          "durationTicks": 512,
          "midi": 34,
          "name": "A#1",
          "ticks": 138240,
          "time": 67.5,
          "velocity": 0.7874015748031497
        },
        {
          "duration": 0.25,
          "durationTicks": 512,
          "midi": 34,
          "name": "A#1",
          "ticks": 138752,
          "time": 67.75,
          "velocity": 0.7874015748031497
        },
        {
          "duration": 0.5,
          "durationTicks": 1024,
          "midi": 68,
          "name": "G#4",
          "ticks": 139264,
          "time": 68,
          "velocity": 0.7874015748031497
        },
        {
          "duration": 0.5,
          "durationTicks": 1024,
          "midi": 72,
          "name": "C5",
          "ticks": 139264,
          "time": 68,
          "velocity": 0.5039370078740157
        },
        {
          "duration": 0.5,
          "durationTicks": 1024,
          "midi": 80,
          "name": "G#5",
          "ticks": 139264,
          "time": 68,
          "velocity": 0.5039370078740157
        },
        {
          "duration": 0.25,
          "durationTicks": 512,
          "midi": 32,
          "name": "G#1",
          "ticks": 139264,
          "time": 68,
          "velocity": 0.7874015748031497
        },
        {
          "duration": 0.25,
          "durationTicks": 512,
          "midi": 32,
          "name": "G#1",
          "ticks": 139776,
          "time": 68.25,
          "velocity": 0.7874015748031497
        },
        {
          "duration": 0.25,
          "durationTicks": 512,
          "midi": 32,
          "name": "G#1",
          "ticks": 140288,
          "time": 68.5,
          "velocity": 0.7874015748031497
        },
        {
          "duration": 0.75,
          "durationTicks": 1536,
          "midi": 65,
          "name": "F4",
          "ticks": 140800,
          "time": 68.75,
          "velocity": 0.7874015748031497
        },
        {
          "duration": 0.75,
          "durationTicks": 1536,
          "midi": 70,
          "name": "A#4",
          "ticks": 140800,
          "time": 68.75,
          "velocity": 0.5039370078740157
        },
        {
          "duration": 0.75,
          "durationTicks": 1536,
          "midi": 74,
          "name": "D5",
          "ticks": 140800,
          "time": 68.75,
          "velocity": 0.5039370078740157
        },
        {
          "duration": 0.75,
          "durationTicks": 1536,
          "midi": 77,
          "name": "F5",
          "ticks": 140800,
          "time": 68.75,
          "velocity": 0.5039370078740157
        },
        {
          "duration": 0.125,
          "durationTicks": 256,
          "midi": 32,
          "name": "G#1",
          "ticks": 140800,
          "time": 68.75,
          "velocity": 0.7874015748031497
        },
        {
          "duration": 0.25,
          "durationTicks": 512,
          "midi": 34,
          "name": "A#1",
          "ticks": 141056,
          "time": 68.875,
          "velocity": 0.7874015748031497
        },
        {
          "duration": 0.125,
          "durationTicks": 256,
          "midi": 34,
          "name": "A#1",
          "ticks": 141568,
          "time": 69.125,
          "velocity": 0.7874015748031497
        },
        {
          "duration": 0.25,
          "durationTicks": 512,
          "midi": 34,
          "name": "A#1",
          "ticks": 141824,
          "time": 69.25,
          "velocity": 0.7874015748031497
        },
        {
          "duration": 0.5,
          "durationTicks": 1024,
          "midi": 74,
          "name": "D5",
          "ticks": 142336,
          "time": 69.5,
          "velocity": 0.7874015748031497
        },
        {
          "duration": 0.25,
          "durationTicks": 512,
          "midi": 34,
          "name": "A#1",
          "ticks": 142336,
          "time": 69.5,
          "velocity": 0.7874015748031497
        },
        {
          "duration": 0.25,
          "durationTicks": 512,
          "midi": 34,
          "name": "A#1",
          "ticks": 142848,
          "time": 69.75,
          "velocity": 0.7874015748031497
        },
        {
          "duration": 0.5,
          "durationTicks": 1024,
          "midi": 70,
          "name": "A#4",
          "ticks": 143360,
          "time": 70,
          "velocity": 0.7874015748031497
        },
        {
          "duration": 0.25,
          "durationTicks": 512,
          "midi": 31,
          "name": "G1",
          "ticks": 143360,
          "time": 70,
          "velocity": 0.7874015748031497
        },
        {
          "duration": 0.25,
          "durationTicks": 512,
          "midi": 31,
          "name": "G1",
          "ticks": 143872,
          "time": 70.25,
          "velocity": 0.7874015748031497
        },
        {
          "duration": 0.25,
          "durationTicks": 512,
          "midi": 77,
          "name": "F5",
          "ticks": 144384,
          "time": 70.5,
          "velocity": 0.7874015748031497
        },
        {
          "duration": 0.25,
          "durationTicks": 512,
          "midi": 31,
          "name": "G1",
          "ticks": 144384,
          "time": 70.5,
          "velocity": 0.7874015748031497
        },
        {
          "duration": 0.5,
          "durationTicks": 1024,
          "midi": 75,
          "name": "D#5",
          "ticks": 144896,
          "time": 70.75,
          "velocity": 0.7874015748031497
        },
        {
          "duration": 0.125,
          "durationTicks": 256,
          "midi": 31,
          "name": "G1",
          "ticks": 144896,
          "time": 70.75,
          "velocity": 0.7874015748031497
        },
        {
          "duration": 0.25,
          "durationTicks": 512,
          "midi": 36,
          "name": "C2",
          "ticks": 145152,
          "time": 70.875,
          "velocity": 0.7874015748031497
        },
        {
          "duration": 0.125,
          "durationTicks": 256,
          "midi": 36,
          "name": "C2",
          "ticks": 145664,
          "time": 71.125,
          "velocity": 0.7874015748031497
        },
        {
          "duration": 0.25,
          "durationTicks": 512,
          "midi": 72,
          "name": "C5",
          "ticks": 145920,
          "time": 71.25,
          "velocity": 0.7874015748031497
        },
        {
          "duration": 0.25,
          "durationTicks": 512,
          "midi": 36,
          "name": "C2",
          "ticks": 145920,
          "time": 71.25,
          "velocity": 0.7874015748031497
        },
        {
          "duration": 0.25,
          "durationTicks": 512,
          "midi": 72,
          "name": "C5",
          "ticks": 146432,
          "time": 71.5,
          "velocity": 0.7874015748031497
        },
        {
          "duration": 0.25,
          "durationTicks": 512,
          "midi": 34,
          "name": "A#1",
          "ticks": 146432,
          "time": 71.5,
          "velocity": 0.7874015748031497
        },
        {
          "duration": 0.25,
          "durationTicks": 512,
          "midi": 74,
          "name": "D5",
          "ticks": 146944,
          "time": 71.75,
          "velocity": 0.7874015748031497
        },
        {
          "duration": 0.25,
          "durationTicks": 512,
          "midi": 34,
          "name": "A#1",
          "ticks": 146944,
          "time": 71.75,
          "velocity": 0.7874015748031497
        },
        {
          "duration": 0.375,
          "durationTicks": 768,
          "midi": 75,
          "name": "D#5",
          "ticks": 147456,
          "time": 72,
          "velocity": 0.7874015748031497
        },
        {
          "duration": 0.25,
          "durationTicks": 512,
          "midi": 29,
          "name": "F1",
          "ticks": 147456,
          "time": 72,
          "velocity": 0.7874015748031497
        },
        {
          "duration": 0.25,
          "durationTicks": 512,
          "midi": 29,
          "name": "F1",
          "ticks": 147968,
          "time": 72.25,
          "velocity": 0.7874015748031497
        },
        {
          "duration": 0.375,
          "durationTicks": 768,
          "midi": 72,
          "name": "C5",
          "ticks": 148224,
          "time": 72.375,
          "velocity": 0.7874015748031497
        },
        {
          "duration": 0.25,
          "durationTicks": 512,
          "midi": 29,
          "name": "F1",
          "ticks": 148480,
          "time": 72.5,
          "velocity": 0.7874015748031497
        },
        {
          "duration": 0.25,
          "durationTicks": 512,
          "midi": 75,
          "name": "D#5",
          "ticks": 148992,
          "time": 72.75,
          "velocity": 0.7874015748031497
        },
        {
          "duration": 0.125,
          "durationTicks": 256,
          "midi": 29,
          "name": "F1",
          "ticks": 148992,
          "time": 72.75,
          "velocity": 0.7874015748031497
        },
        {
          "duration": 0.25,
          "durationTicks": 512,
          "midi": 31,
          "name": "G1",
          "ticks": 149248,
          "time": 72.875,
          "velocity": 0.7874015748031497
        },
        {
          "duration": 0.375,
          "durationTicks": 768,
          "midi": 77,
          "name": "F5",
          "ticks": 149504,
          "time": 73,
          "velocity": 0.7874015748031497
        },
        {
          "duration": 0.125,
          "durationTicks": 256,
          "midi": 31,
          "name": "G1",
          "ticks": 149760,
          "time": 73.125,
          "velocity": 0.7874015748031497
        },
        {
          "duration": 0.25,
          "durationTicks": 512,
          "midi": 31,
          "name": "G1",
          "ticks": 150016,
          "time": 73.25,
          "velocity": 0.7874015748031497
        },
        {
          "duration": 0.375,
          "durationTicks": 768,
          "midi": 74,
          "name": "D5",
          "ticks": 150272,
          "time": 73.375,
          "velocity": 0.7874015748031497
        },
        {
          "duration": 0.25,
          "durationTicks": 512,
          "midi": 31,
          "name": "G1",
          "ticks": 150528,
          "time": 73.5,
          "velocity": 0.7874015748031497
        },
        {
          "duration": 0.25,
          "durationTicks": 512,
          "midi": 77,
          "name": "F5",
          "ticks": 151040,
          "time": 73.75,
          "velocity": 0.7874015748031497
        },
        {
          "duration": 0.125,
          "durationTicks": 256,
          "midi": 31,
          "name": "G1",
          "ticks": 151040,
          "time": 73.75,
          "velocity": 0.7874015748031497
        },
        {
          "duration": 0.125,
          "durationTicks": 256,
          "midi": 32,
          "name": "G#1",
          "ticks": 151296,
          "time": 73.875,
          "velocity": 0.7874015748031497
        },
        {
          "duration": 0.375,
          "durationTicks": 768,
          "midi": 79,
          "name": "G5",
          "ticks": 151552,
          "time": 74,
          "velocity": 0.7874015748031497
        },
        {
          "duration": 0.125,
          "durationTicks": 256,
          "midi": 32,
          "name": "G#1",
          "ticks": 151552,
          "time": 74,
          "velocity": 0.7874015748031497
        },
        {
          "duration": 0.125,
          "durationTicks": 256,
          "midi": 32,
          "name": "G#1",
          "ticks": 151808,
          "time": 74.125,
          "velocity": 0.7874015748031497
        },
        {
          "duration": 0.25,
          "durationTicks": 512,
          "midi": 32,
          "name": "G#1",
          "ticks": 152064,
          "time": 74.25,
          "velocity": 0.7874015748031497
        },
        {
          "duration": 0.375,
          "durationTicks": 768,
          "midi": 75,
          "name": "D#5",
          "ticks": 152320,
          "time": 74.375,
          "velocity": 0.7874015748031497
        },
        {
          "duration": 0.25,
          "durationTicks": 512,
          "midi": 32,
          "name": "G#1",
          "ticks": 152576,
          "time": 74.5,
          "velocity": 0.7874015748031497
        },
        {
          "duration": 0.25,
          "durationTicks": 512,
          "midi": 79,
          "name": "G5",
          "ticks": 153088,
          "time": 74.75,
          "velocity": 0.7874015748031497
        },
        {
          "duration": 0.125,
          "durationTicks": 256,
          "midi": 32,
          "name": "G#1",
          "ticks": 153088,
          "time": 74.75,
          "velocity": 0.7874015748031497
        },
        {
          "duration": 0.25,
          "durationTicks": 512,
          "midi": 34,
          "name": "A#1",
          "ticks": 153344,
          "time": 74.875,
          "velocity": 0.7874015748031497
        },
        {
          "duration": 0.25,
          "durationTicks": 512,
          "midi": 82,
          "name": "A#5",
          "ticks": 153600,
          "time": 75,
          "velocity": 0.7874015748031497
        },
        {
          "duration": 0.125,
          "durationTicks": 256,
          "midi": 34,
          "name": "A#1",
          "ticks": 153856,
          "time": 75.125,
          "velocity": 0.7874015748031497
        },
        {
          "duration": 0.25,
          "durationTicks": 512,
          "midi": 34,
          "name": "A#1",
          "ticks": 154112,
          "time": 75.25,
          "velocity": 0.7874015748031497
        },
        {
          "duration": 0.25,
          "durationTicks": 512,
          "midi": 75,
          "name": "D#5",
          "ticks": 154624,
          "time": 75.5,
          "velocity": 0.7874015748031497
        },
        {
          "duration": 0.25,
          "durationTicks": 512,
          "midi": 79,
          "name": "G5",
          "ticks": 154624,
          "time": 75.5,
          "velocity": 0.7874015748031497
        },
        {
          "duration": 0.25,
          "durationTicks": 512,
          "midi": 31,
          "name": "G1",
          "ticks": 154624,
          "time": 75.5,
          "velocity": 0.7874015748031497
        },
        {
          "duration": 0.25,
          "durationTicks": 512,
          "midi": 79,
          "name": "G5",
          "ticks": 155136,
          "time": 75.75,
          "velocity": 0.7874015748031497
        },
        {
          "duration": 0.25,
          "durationTicks": 512,
          "midi": 82,
          "name": "A#5",
          "ticks": 155136,
          "time": 75.75,
          "velocity": 0.7874015748031497
        },
        {
          "duration": 0.25,
          "durationTicks": 512,
          "midi": 34,
          "name": "A#1",
          "ticks": 155136,
          "time": 75.75,
          "velocity": 0.7874015748031497
        },
        {
          "duration": 0.25,
          "durationTicks": 512,
          "midi": 79,
          "name": "G5",
          "ticks": 155648,
          "time": 76,
          "velocity": 0.7874015748031497
        },
        {
          "duration": 0.25,
          "durationTicks": 512,
          "midi": 84,
          "name": "C6",
          "ticks": 155648,
          "time": 76,
          "velocity": 0.7874015748031497
        },
        {
          "duration": 0.25,
          "durationTicks": 512,
          "midi": 36,
          "name": "C2",
          "ticks": 155648,
          "time": 76,
          "velocity": 0.7874015748031497
        },
        {
          "duration": 0.25,
          "durationTicks": 512,
          "midi": 36,
          "name": "C2",
          "ticks": 156160,
          "time": 76.25,
          "velocity": 0.7874015748031497
        },
        {
          "duration": 0.25,
          "durationTicks": 512,
          "midi": 79,
          "name": "G5",
          "ticks": 156672,
          "time": 76.5,
          "velocity": 0.7874015748031497
        },
        {
          "duration": 0.25,
          "durationTicks": 512,
          "midi": 84,
          "name": "C6",
          "ticks": 156672,
          "time": 76.5,
          "velocity": 0.7874015748031497
        },
        {
          "duration": 0.25,
          "durationTicks": 512,
          "midi": 36,
          "name": "C2",
          "ticks": 156672,
          "time": 76.5,
          "velocity": 0.7874015748031497
        },
        {
          "duration": 0.125,
          "durationTicks": 256,
          "midi": 82,
          "name": "A#5",
          "ticks": 157184,
          "time": 76.75,
          "velocity": 0.7874015748031497
        },
        {
          "duration": 0.125,
          "durationTicks": 256,
          "midi": 87,
          "name": "D#6",
          "ticks": 157184,
          "time": 76.75,
          "velocity": 0.7874015748031497
        },
        {
          "duration": 0.0625,
          "durationTicks": 128,
          "midi": 36,
          "name": "C2",
          "ticks": 157184,
          "time": 76.75,
          "velocity": 0.7874015748031497
        },
        {
          "duration": 0.375,
          "durationTicks": 768,
          "midi": 80,
          "name": "G#5",
          "ticks": 157440,
          "time": 76.875,
          "velocity": 0.7874015748031497
        },
        {
          "duration": 0.375,
          "durationTicks": 768,
          "midi": 84,
          "name": "C6",
          "ticks": 157440,
          "time": 76.875,
          "velocity": 0.7874015748031497
        },
        {
          "duration": 0.25,
          "durationTicks": 512,
          "midi": 32,
          "name": "G#1",
          "ticks": 157440,
          "time": 76.875,
          "velocity": 0.7874015748031497
        },
        {
          "duration": 0.125,
          "durationTicks": 256,
          "midi": 32,
          "name": "G#1",
          "ticks": 157952,
          "time": 77.125,
          "velocity": 0.7874015748031497
        },
        {
          "duration": 0.25,
          "durationTicks": 512,
          "midi": 32,
          "name": "G#1",
          "ticks": 158208,
          "time": 77.25,
          "velocity": 0.7874015748031497
        },
        {
          "duration": 0.25,
          "durationTicks": 512,
          "midi": 82,
          "name": "A#5",
          "ticks": 158720,
          "time": 77.5,
          "velocity": 0.7874015748031497
        },
        {
          "duration": 0.25,
          "durationTicks": 512,
          "midi": 84,
          "name": "C6",
          "ticks": 158720,
          "time": 77.5,
          "velocity": 0.7874015748031497
        },
        {
          "duration": 0.25,
          "durationTicks": 512,
          "midi": 32,
          "name": "G#1",
          "ticks": 158720,
          "time": 77.5,
          "velocity": 0.7874015748031497
        },
        {
          "duration": 0.25,
          "durationTicks": 512,
          "midi": 84,
          "name": "C6",
          "ticks": 159232,
          "time": 77.75,
          "velocity": 0.7874015748031497
        },
        {
          "duration": 0.25,
          "durationTicks": 512,
          "midi": 87,
          "name": "D#6",
          "ticks": 159232,
          "time": 77.75,
          "velocity": 0.7874015748031497
        },
        {
          "duration": 0.25,
          "durationTicks": 512,
          "midi": 32,
          "name": "G#1",
          "ticks": 159232,
          "time": 77.75,
          "velocity": 0.7874015748031497
        },
        {
          "duration": 0.25,
          "durationTicks": 512,
          "midi": 82,
          "name": "A#5",
          "ticks": 159744,
          "time": 78,
          "velocity": 0.7874015748031497
        },
        {
          "duration": 0.25,
          "durationTicks": 512,
          "midi": 86,
          "name": "D6",
          "ticks": 159744,
          "time": 78,
          "velocity": 0.7874015748031497
        },
        {
          "duration": 0.25,
          "durationTicks": 512,
          "midi": 34,
          "name": "A#1",
          "ticks": 159744,
          "time": 78,
          "velocity": 0.7874015748031497
        },
        {
          "duration": 0.125,
          "durationTicks": 256,
          "midi": 79,
          "name": "G5",
          "ticks": 160256,
          "time": 78.25,
          "velocity": 0.7874015748031497
        },
        {
          "duration": 0.125,
          "durationTicks": 256,
          "midi": 82,
          "name": "A#5",
          "ticks": 160256,
          "time": 78.25,
          "velocity": 0.7874015748031497
        },
        {
          "duration": 0.25,
          "durationTicks": 512,
          "midi": 34,
          "name": "A#1",
          "ticks": 160256,
          "time": 78.25,
          "velocity": 0.7874015748031497
        },
        {
          "duration": 0.25,
          "durationTicks": 512,
          "midi": 79,
          "name": "G5",
          "ticks": 160768,
          "time": 78.5,
          "velocity": 0.7874015748031497
        },
        {
          "duration": 0.25,
          "durationTicks": 512,
          "midi": 82,
          "name": "A#5",
          "ticks": 160768,
          "time": 78.5,
          "velocity": 0.7874015748031497
        },
        {
          "duration": 0.25,
          "durationTicks": 512,
          "midi": 34,
          "name": "A#1",
          "ticks": 160768,
          "time": 78.5,
          "velocity": 0.7874015748031497
        },
        {
          "duration": 0.125,
          "durationTicks": 256,
          "midi": 75,
          "name": "D#5",
          "ticks": 161280,
          "time": 78.75,
          "velocity": 0.7874015748031497
        },
        {
          "duration": 0.125,
          "durationTicks": 256,
          "midi": 79,
          "name": "G5",
          "ticks": 161280,
          "time": 78.75,
          "velocity": 0.7874015748031497
        },
        {
          "duration": 0.07275390625,
          "durationTicks": 149,
          "midi": 34,
          "name": "A#1",
          "ticks": 161280,
          "time": 78.75,
          "velocity": 0.7874015748031497
        },
        {
          "duration": 0.5,
          "durationTicks": 1024,
          "midi": 79,
          "name": "G5",
          "ticks": 161536,
          "time": 78.875,
          "velocity": 0.7874015748031497
        },
        {
          "duration": 0.5,
          "durationTicks": 1024,
          "midi": 82,
          "name": "A#5",
          "ticks": 161536,
          "time": 78.875,
          "velocity": 0.7874015748031497
        },
        {
          "duration": 0.25,
          "durationTicks": 512,
          "midi": 31,
          "name": "G1",
          "ticks": 161536,
          "time": 78.875,
          "velocity": 0.7874015748031497
        },
        {
          "duration": 0.125,
          "durationTicks": 256,
          "midi": 31,
          "name": "G1",
          "ticks": 162048,
          "time": 79.125,
          "velocity": 0.7874015748031497
        },
        {
          "duration": 0.25,
          "durationTicks": 512,
          "midi": 31,
          "name": "G1",
          "ticks": 162304,
          "time": 79.25,
          "velocity": 0.7874015748031497
        },
        {
          "duration": 0.25,
          "durationTicks": 512,
          "midi": 77,
          "name": "F5",
          "ticks": 162816,
          "time": 79.5,
          "velocity": 0.7874015748031497
        },
        {
          "duration": 0.25,
          "durationTicks": 512,
          "midi": 80,
          "name": "G#5",
          "ticks": 162816,
          "time": 79.5,
          "velocity": 0.7874015748031497
        },
        {
          "duration": 0.25,
          "durationTicks": 512,
          "midi": 29,
          "name": "F1",
          "ticks": 162816,
          "time": 79.5,
          "velocity": 0.7874015748031497
        },
        {
          "duration": 0.25,
          "durationTicks": 512,
          "midi": 79,
          "name": "G5",
          "ticks": 163328,
          "time": 79.75,
          "velocity": 0.7874015748031497
        },
        {
          "duration": 0.25,
          "durationTicks": 512,
          "midi": 82,
          "name": "A#5",
          "ticks": 163328,
          "time": 79.75,
          "velocity": 0.7874015748031497
        },
        {
          "duration": 0.25,
          "durationTicks": 512,
          "midi": 31,
          "name": "G1",
          "ticks": 163328,
          "time": 79.75,
          "velocity": 0.7874015748031497
        },
        {
          "duration": 0.25,
          "durationTicks": 512,
          "midi": 75,
          "name": "D#5",
          "ticks": 163840,
          "time": 80,
          "velocity": 0.7874015748031497
        },
        {
          "duration": 0.25,
          "durationTicks": 512,
          "midi": 80,
          "name": "G#5",
          "ticks": 163840,
          "time": 80,
          "velocity": 0.7874015748031497
        },
        {
          "duration": 0.25,
          "durationTicks": 512,
          "midi": 32,
          "name": "G#1",
          "ticks": 163840,
          "time": 80,
          "velocity": 0.7874015748031497
        },
        {
          "duration": 0.25,
          "durationTicks": 512,
          "midi": 32,
          "name": "G#1",
          "ticks": 164352,
          "time": 80.25,
          "velocity": 0.7874015748031497
        },
        {
          "duration": 0.25,
          "durationTicks": 512,
          "midi": 75,
          "name": "D#5",
          "ticks": 164864,
          "time": 80.5,
          "velocity": 0.7874015748031497
        },
        {
          "duration": 0.25,
          "durationTicks": 512,
          "midi": 80,
          "name": "G#5",
          "ticks": 164864,
          "time": 80.5,
          "velocity": 0.7874015748031497
        },
        {
          "duration": 0.25,
          "durationTicks": 512,
          "midi": 32,
          "name": "G#1",
          "ticks": 164864,
          "time": 80.5,
          "velocity": 0.7874015748031497
        },
        {
          "duration": 0.125,
          "durationTicks": 256,
          "midi": 77,
          "name": "F5",
          "ticks": 165376,
          "time": 80.75,
          "velocity": 0.7874015748031497
        },
        {
          "duration": 0.125,
          "durationTicks": 256,
          "midi": 82,
          "name": "A#5",
          "ticks": 165376,
          "time": 80.75,
          "velocity": 0.7874015748031497
        },
        {
          "duration": 0.07275390625,
          "durationTicks": 149,
          "midi": 32,
          "name": "G#1",
          "ticks": 165376,
          "time": 80.75,
          "velocity": 0.7874015748031497
        },
        {
          "duration": 0.5,
          "durationTicks": 1024,
          "midi": 72,
          "name": "C5",
          "ticks": 165632,
          "time": 80.875,
          "velocity": 0.7874015748031497
        },
        {
          "duration": 0.5,
          "durationTicks": 1024,
          "midi": 77,
          "name": "F5",
          "ticks": 165632,
          "time": 80.875,
          "velocity": 0.7874015748031497
        },
        {
          "duration": 0.25,
          "durationTicks": 512,
          "midi": 29,
          "name": "F1",
          "ticks": 165632,
          "time": 80.875,
          "velocity": 0.7874015748031497
        },
        {
          "duration": 0.125,
          "durationTicks": 256,
          "midi": 29,
          "name": "F1",
          "ticks": 166144,
          "time": 81.125,
          "velocity": 0.7874015748031497
        },
        {
          "duration": 0.25,
          "durationTicks": 512,
          "midi": 29,
          "name": "F1",
          "ticks": 166400,
          "time": 81.25,
          "velocity": 0.7874015748031497
        },
        {
          "duration": 0.25,
          "durationTicks": 512,
          "midi": 70,
          "name": "A#4",
          "ticks": 166912,
          "time": 81.5,
          "velocity": 0.7874015748031497
        },
        {
          "duration": 0.25,
          "durationTicks": 512,
          "midi": 75,
          "name": "D#5",
          "ticks": 166912,
          "time": 81.5,
          "velocity": 0.7874015748031497
        },
        {
          "duration": 0.25,
          "durationTicks": 512,
          "midi": 26,
          "name": "D1",
          "ticks": 166912,
          "time": 81.5,
          "velocity": 0.7874015748031497
        },
        {
          "duration": 0.25,
          "durationTicks": 512,
          "midi": 72,
          "name": "C5",
          "ticks": 167424,
          "time": 81.75,
          "velocity": 0.7874015748031497
        },
        {
          "duration": 0.25,
          "durationTicks": 512,
          "midi": 77,
          "name": "F5",
          "ticks": 167424,
          "time": 81.75,
          "velocity": 0.7874015748031497
        },
        {
          "duration": 0.25,
          "durationTicks": 512,
          "midi": 29,
          "name": "F1",
          "ticks": 167424,
          "time": 81.75,
          "velocity": 0.7874015748031497
        },
        {
          "duration": 0.25,
          "durationTicks": 512,
          "midi": 74,
          "name": "D5",
          "ticks": 167936,
          "time": 82,
          "velocity": 0.7874015748031497
        },
        {
          "duration": 0.25,
          "durationTicks": 512,
          "midi": 79,
          "name": "G5",
          "ticks": 167936,
          "time": 82,
          "velocity": 0.7874015748031497
        },
        {
          "duration": 0.25,
          "durationTicks": 512,
          "midi": 31,
          "name": "G1",
          "ticks": 167936,
          "time": 82,
          "velocity": 0.7874015748031497
        },
        {
          "duration": 0.25,
          "durationTicks": 512,
          "midi": 31,
          "name": "G1",
          "ticks": 168448,
          "time": 82.25,
          "velocity": 0.7874015748031497
        },
        {
          "duration": 0.5,
          "durationTicks": 1024,
          "midi": 79,
          "name": "G5",
          "ticks": 168960,
          "time": 82.5,
          "velocity": 0.7874015748031497
        },
        {
          "duration": 0.5,
          "durationTicks": 1024,
          "midi": 86,
          "name": "D6",
          "ticks": 168960,
          "time": 82.5,
          "velocity": 0.7874015748031497
        },
        {
          "duration": 0.25,
          "durationTicks": 512,
          "midi": 31,
          "name": "G1",
          "ticks": 168960,
          "time": 82.5,
          "velocity": 0.7874015748031497
        },
        {
          "duration": 0.07275390625,
          "durationTicks": 149,
          "midi": 31,
          "name": "G1",
          "ticks": 169472,
          "time": 82.75,
          "velocity": 0.7874015748031497
        },
        {
          "duration": 0.25,
          "durationTicks": 512,
          "midi": 34,
          "name": "A#1",
          "ticks": 169728,
          "time": 82.875,
          "velocity": 0.7874015748031497
        },
        {
          "duration": 0.375,
          "durationTicks": 768,
          "midi": 74,
          "name": "D5",
          "ticks": 169984,
          "time": 83,
          "velocity": 0.7874015748031497
        },
        {
          "duration": 0.375,
          "durationTicks": 768,
          "midi": 82,
          "name": "A#5",
          "ticks": 169984,
          "time": 83,
          "velocity": 0.7874015748031497
        },
        {
          "duration": 0.125,
          "durationTicks": 256,
          "midi": 34,
          "name": "A#1",
          "ticks": 170240,
          "time": 83.125,
          "velocity": 0.7874015748031497
        },
        {
          "duration": 0.25,
          "durationTicks": 512,
          "midi": 34,
          "name": "A#1",
          "ticks": 170496,
          "time": 83.25,
          "velocity": 0.7874015748031497
        },
        {
          "duration": 0.25,
          "durationTicks": 512,
          "midi": 75,
          "name": "D#5",
          "ticks": 171008,
          "time": 83.5,
          "velocity": 0.7874015748031497
        },
        {
          "duration": 0.25,
          "durationTicks": 512,
          "midi": 79,
          "name": "G5",
          "ticks": 171008,
          "time": 83.5,
          "velocity": 0.7874015748031497
        },
        {
          "duration": 0.25,
          "durationTicks": 512,
          "midi": 31,
          "name": "G1",
          "ticks": 171008,
          "time": 83.5,
          "velocity": 0.7874015748031497
        },
        {
          "duration": 0.25,
          "durationTicks": 512,
          "midi": 79,
          "name": "G5",
          "ticks": 171520,
          "time": 83.75,
          "velocity": 0.7874015748031497
        },
        {
          "duration": 0.25,
          "durationTicks": 512,
          "midi": 82,
          "name": "A#5",
          "ticks": 171520,
          "time": 83.75,
          "velocity": 0.7874015748031497
        },
        {
          "duration": 0.25,
          "durationTicks": 512,
          "midi": 34,
          "name": "A#1",
          "ticks": 171520,
          "time": 83.75,
          "velocity": 0.7874015748031497
        },
        {
          "duration": 0.25,
          "durationTicks": 512,
          "midi": 79,
          "name": "G5",
          "ticks": 172032,
          "time": 84,
          "velocity": 0.7874015748031497
        },
        {
          "duration": 0.25,
          "durationTicks": 512,
          "midi": 84,
          "name": "C6",
          "ticks": 172032,
          "time": 84,
          "velocity": 0.7874015748031497
        },
        {
          "duration": 0.25,
          "durationTicks": 512,
          "midi": 36,
          "name": "C2",
          "ticks": 172032,
          "time": 84,
          "velocity": 0.7874015748031497
        },
        {
          "duration": 0.25,
          "durationTicks": 512,
          "midi": 36,
          "name": "C2",
          "ticks": 172544,
          "time": 84.25,
          "velocity": 0.7874015748031497
        },
        {
          "duration": 0.25,
          "durationTicks": 512,
          "midi": 79,
          "name": "G5",
          "ticks": 173056,
          "time": 84.5,
          "velocity": 0.7874015748031497
        },
        {
          "duration": 0.25,
          "durationTicks": 512,
          "midi": 84,
          "name": "C6",
          "ticks": 173056,
          "time": 84.5,
          "velocity": 0.7874015748031497
        },
        {
          "duration": 0.25,
          "durationTicks": 512,
          "midi": 36,
          "name": "C2",
          "ticks": 173056,
          "time": 84.5,
          "velocity": 0.7874015748031497
        },
        {
          "duration": 0.125,
          "durationTicks": 256,
          "midi": 82,
          "name": "A#5",
          "ticks": 173568,
          "time": 84.75,
          "velocity": 0.7874015748031497
        },
        {
          "duration": 0.125,
          "durationTicks": 256,
          "midi": 87,
          "name": "D#6",
          "ticks": 173568,
          "time": 84.75,
          "velocity": 0.7874015748031497
        },
        {
          "duration": 0.07275390625,
          "durationTicks": 149,
          "midi": 36,
          "name": "C2",
          "ticks": 173568,
          "time": 84.75,
          "velocity": 0.7874015748031497
        },
        {
          "duration": 0.375,
          "durationTicks": 768,
          "midi": 80,
          "name": "G#5",
          "ticks": 173824,
          "time": 84.875,
          "velocity": 0.7874015748031497
        },
        {
          "duration": 0.375,
          "durationTicks": 768,
          "midi": 84,
          "name": "C6",
          "ticks": 173824,
          "time": 84.875,
          "velocity": 0.7874015748031497
        },
        {
          "duration": 0.25,
          "durationTicks": 512,
          "midi": 32,
          "name": "G#1",
          "ticks": 173824,
          "time": 84.875,
          "velocity": 0.7874015748031497
        },
        {
          "duration": 0.125,
          "durationTicks": 256,
          "midi": 32,
          "name": "G#1",
          "ticks": 174336,
          "time": 85.125,
          "velocity": 0.7874015748031497
        },
        {
          "duration": 0.25,
          "durationTicks": 512,
          "midi": 32,
          "name": "G#1",
          "ticks": 174592,
          "time": 85.25,
          "velocity": 0.7874015748031497
        },
        {
          "duration": 0.25,
          "durationTicks": 512,
          "midi": 82,
          "name": "A#5",
          "ticks": 175104,
          "time": 85.5,
          "velocity": 0.7874015748031497
        },
        {
          "duration": 0.25,
          "durationTicks": 512,
          "midi": 84,
          "name": "C6",
          "ticks": 175104,
          "time": 85.5,
          "velocity": 0.7874015748031497
        },
        {
          "duration": 0.25,
          "durationTicks": 512,
          "midi": 32,
          "name": "G#1",
          "ticks": 175104,
          "time": 85.5,
          "velocity": 0.7874015748031497
        },
        {
          "duration": 0.25,
          "durationTicks": 512,
          "midi": 84,
          "name": "C6",
          "ticks": 175616,
          "time": 85.75,
          "velocity": 0.7874015748031497
        },
        {
          "duration": 0.25,
          "durationTicks": 512,
          "midi": 87,
          "name": "D#6",
          "ticks": 175616,
          "time": 85.75,
          "velocity": 0.7874015748031497
        },
        {
          "duration": 0.25,
          "durationTicks": 512,
          "midi": 32,
          "name": "G#1",
          "ticks": 175616,
          "time": 85.75,
          "velocity": 0.7874015748031497
        },
        {
          "duration": 0.25,
          "durationTicks": 512,
          "midi": 82,
          "name": "A#5",
          "ticks": 176128,
          "time": 86,
          "velocity": 0.7874015748031497
        },
        {
          "duration": 0.25,
          "durationTicks": 512,
          "midi": 86,
          "name": "D6",
          "ticks": 176128,
          "time": 86,
          "velocity": 0.7874015748031497
        },
        {
          "duration": 0.25,
          "durationTicks": 512,
          "midi": 34,
          "name": "A#1",
          "ticks": 176128,
          "time": 86,
          "velocity": 0.7874015748031497
        },
        {
          "duration": 0.125,
          "durationTicks": 256,
          "midi": 79,
          "name": "G5",
          "ticks": 176640,
          "time": 86.25,
          "velocity": 0.7874015748031497
        },
        {
          "duration": 0.125,
          "durationTicks": 256,
          "midi": 82,
          "name": "A#5",
          "ticks": 176640,
          "time": 86.25,
          "velocity": 0.7874015748031497
        },
        {
          "duration": 0.25,
          "durationTicks": 512,
          "midi": 34,
          "name": "A#1",
          "ticks": 176640,
          "time": 86.25,
          "velocity": 0.7874015748031497
        },
        {
          "duration": 0.25,
          "durationTicks": 512,
          "midi": 79,
          "name": "G5",
          "ticks": 177152,
          "time": 86.5,
          "velocity": 0.7874015748031497
        },
        {
          "duration": 0.25,
          "durationTicks": 512,
          "midi": 82,
          "name": "A#5",
          "ticks": 177152,
          "time": 86.5,
          "velocity": 0.7874015748031497
        },
        {
          "duration": 0.25,
          "durationTicks": 512,
          "midi": 34,
          "name": "A#1",
          "ticks": 177152,
          "time": 86.5,
          "velocity": 0.7874015748031497
        },
        {
          "duration": 0.125,
          "durationTicks": 256,
          "midi": 75,
          "name": "D#5",
          "ticks": 177664,
          "time": 86.75,
          "velocity": 0.7874015748031497
        },
        {
          "duration": 0.125,
          "durationTicks": 256,
          "midi": 79,
          "name": "G5",
          "ticks": 177664,
          "time": 86.75,
          "velocity": 0.7874015748031497
        },
        {
          "duration": 0.07275390625,
          "durationTicks": 149,
          "midi": 34,
          "name": "A#1",
          "ticks": 177664,
          "time": 86.75,
          "velocity": 0.7874015748031497
        },
        {
          "duration": 0.5,
          "durationTicks": 1024,
          "midi": 79,
          "name": "G5",
          "ticks": 177920,
          "time": 86.875,
          "velocity": 0.7874015748031497
        },
        {
          "duration": 0.5,
          "durationTicks": 1024,
          "midi": 82,
          "name": "A#5",
          "ticks": 177920,
          "time": 86.875,
          "velocity": 0.7874015748031497
        },
        {
          "duration": 0.25,
          "durationTicks": 512,
          "midi": 31,
          "name": "G1",
          "ticks": 177920,
          "time": 86.875,
          "velocity": 0.7874015748031497
        },
        {
          "duration": 0.125,
          "durationTicks": 256,
          "midi": 31,
          "name": "G1",
          "ticks": 178432,
          "time": 87.125,
          "velocity": 0.7874015748031497
        },
        {
          "duration": 0.25,
          "durationTicks": 512,
          "midi": 31,
          "name": "G1",
          "ticks": 178688,
          "time": 87.25,
          "velocity": 0.7874015748031497
        },
        {
          "duration": 0.25,
          "durationTicks": 512,
          "midi": 77,
          "name": "F5",
          "ticks": 179200,
          "time": 87.5,
          "velocity": 0.7874015748031497
        },
        {
          "duration": 0.25,
          "durationTicks": 512,
          "midi": 80,
          "name": "G#5",
          "ticks": 179200,
          "time": 87.5,
          "velocity": 0.7874015748031497
        },
        {
          "duration": 0.25,
          "durationTicks": 512,
          "midi": 31,
          "name": "G1",
          "ticks": 179200,
          "time": 87.5,
          "velocity": 0.7874015748031497
        },
        {
          "duration": 0.25,
          "durationTicks": 512,
          "midi": 79,
          "name": "G5",
          "ticks": 179712,
          "time": 87.75,
          "velocity": 0.7874015748031497
        },
        {
          "duration": 0.25,
          "durationTicks": 512,
          "midi": 82,
          "name": "A#5",
          "ticks": 179712,
          "time": 87.75,
          "velocity": 0.7874015748031497
        },
        {
          "duration": 0.25,
          "durationTicks": 512,
          "midi": 31,
          "name": "G1",
          "ticks": 179712,
          "time": 87.75,
          "velocity": 0.7874015748031497
        },
        {
          "duration": 0.25,
          "durationTicks": 512,
          "midi": 77,
          "name": "F5",
          "ticks": 180224,
          "time": 88,
          "velocity": 0.7874015748031497
        },
        {
          "duration": 0.25,
          "durationTicks": 512,
          "midi": 80,
          "name": "G#5",
          "ticks": 180224,
          "time": 88,
          "velocity": 0.7874015748031497
        },
        {
          "duration": 0.25,
          "durationTicks": 512,
          "midi": 29,
          "name": "F1",
          "ticks": 180224,
          "time": 88,
          "velocity": 0.7874015748031497
        },
        {
          "duration": 0.25,
          "durationTicks": 512,
          "midi": 29,
          "name": "F1",
          "ticks": 180736,
          "time": 88.25,
          "velocity": 0.7874015748031497
        },
        {
          "duration": 0.25,
          "durationTicks": 512,
          "midi": 77,
          "name": "F5",
          "ticks": 181248,
          "time": 88.5,
          "velocity": 0.7874015748031497
        },
        {
          "duration": 0.25,
          "durationTicks": 512,
          "midi": 80,
          "name": "G#5",
          "ticks": 181248,
          "time": 88.5,
          "velocity": 0.7874015748031497
        },
        {
          "duration": 0.25,
          "durationTicks": 512,
          "midi": 29,
          "name": "F1",
          "ticks": 181248,
          "time": 88.5,
          "velocity": 0.7874015748031497
        },
        {
          "duration": 0.125,
          "durationTicks": 256,
          "midi": 79,
          "name": "G5",
          "ticks": 181760,
          "time": 88.75,
          "velocity": 0.7874015748031497
        },
        {
          "duration": 0.125,
          "durationTicks": 256,
          "midi": 82,
          "name": "A#5",
          "ticks": 181760,
          "time": 88.75,
          "velocity": 0.7874015748031497
        },
        {
          "duration": 0.07275390625,
          "durationTicks": 149,
          "midi": 29,
          "name": "F1",
          "ticks": 181760,
          "time": 88.75,
          "velocity": 0.7874015748031497
        },
        {
          "duration": 0.5,
          "durationTicks": 1024,
          "midi": 74,
          "name": "D5",
          "ticks": 182016,
          "time": 88.875,
          "velocity": 0.7874015748031497
        },
        {
          "duration": 0.5,
          "durationTicks": 1024,
          "midi": 77,
          "name": "F5",
          "ticks": 182016,
          "time": 88.875,
          "velocity": 0.7874015748031497
        },
        {
          "duration": 0.25,
          "durationTicks": 512,
          "midi": 34,
          "name": "A#1",
          "ticks": 182016,
          "time": 88.875,
          "velocity": 0.7874015748031497
        },
        {
          "duration": 0.125,
          "durationTicks": 256,
          "midi": 34,
          "name": "A#1",
          "ticks": 182528,
          "time": 89.125,
          "velocity": 0.7874015748031497
        },
        {
          "duration": 0.25,
          "durationTicks": 512,
          "midi": 34,
          "name": "A#1",
          "ticks": 182784,
          "time": 89.25,
          "velocity": 0.7874015748031497
        },
        {
          "duration": 0.25,
          "durationTicks": 512,
          "midi": 72,
          "name": "C5",
          "ticks": 183296,
          "time": 89.5,
          "velocity": 0.7874015748031497
        },
        {
          "duration": 0.25,
          "durationTicks": 512,
          "midi": 77,
          "name": "F5",
          "ticks": 183296,
          "time": 89.5,
          "velocity": 0.7874015748031497
        },
        {
          "duration": 0.25,
          "durationTicks": 512,
          "midi": 34,
          "name": "A#1",
          "ticks": 183296,
          "time": 89.5,
          "velocity": 0.7874015748031497
        },
        {
          "duration": 0.25,
          "durationTicks": 512,
          "midi": 74,
          "name": "D5",
          "ticks": 183808,
          "time": 89.75,
          "velocity": 0.7874015748031497
        },
        {
          "duration": 0.25,
          "durationTicks": 512,
          "midi": 79,
          "name": "G5",
          "ticks": 183808,
          "time": 89.75,
          "velocity": 0.7874015748031497
        },
        {
          "duration": 0.25,
          "durationTicks": 512,
          "midi": 34,
          "name": "A#1",
          "ticks": 183808,
          "time": 89.75,
          "velocity": 0.7874015748031497
        },
        {
          "duration": 0.25,
          "durationTicks": 512,
          "midi": 72,
          "name": "C5",
          "ticks": 184320,
          "time": 90,
          "velocity": 0.7874015748031497
        },
        {
          "duration": 0.25,
          "durationTicks": 512,
          "midi": 77,
          "name": "F5",
          "ticks": 184320,
          "time": 90,
          "velocity": 0.7874015748031497
        },
        {
          "duration": 0.25,
          "durationTicks": 512,
          "midi": 27,
          "name": "D#1",
          "ticks": 184320,
          "time": 90,
          "velocity": 0.7874015748031497
        },
        {
          "duration": 0.125,
          "durationTicks": 256,
          "midi": 70,
          "name": "A#4",
          "ticks": 184832,
          "time": 90.25,
          "velocity": 0.7874015748031497
        },
        {
          "duration": 0.125,
          "durationTicks": 256,
          "midi": 75,
          "name": "D#5",
          "ticks": 184832,
          "time": 90.25,
          "velocity": 0.7874015748031497
        },
        {
          "duration": 0.0205078125,
          "durationTicks": 42,
          "midi": 27,
          "name": "D#1",
          "ticks": 184832,
          "time": 90.25,
          "velocity": 0.7874015748031497
        },
        {
          "duration": 1,
          "durationTicks": 2048,
          "midi": 70,
          "name": "A#4",
          "ticks": 185088,
          "time": 90.375,
          "velocity": 0.7874015748031497
        },
        {
          "duration": 1,
          "durationTicks": 2048,
          "midi": 75,
          "name": "D#5",
          "ticks": 185088,
          "time": 90.375,
          "velocity": 0.7874015748031497
        },
        {
          "duration": 0.25,
          "durationTicks": 512,
          "midi": 27,
          "name": "D#1",
          "ticks": 185088,
          "time": 90.375,
          "velocity": 0.7874015748031497
        },
        {
          "duration": 0.0205078125,
          "durationTicks": 42,
          "midi": 27,
          "name": "D#1",
          "ticks": 185600,
          "time": 90.625,
          "velocity": 0.7874015748031497
        },
        {
          "duration": 0.25,
          "durationTicks": 512,
          "midi": 27,
          "name": "D#1",
          "ticks": 185856,
          "time": 90.75,
          "velocity": 0.7874015748031497
        },
        {
          "duration": 0.0205078125,
          "durationTicks": 42,
          "midi": 27,
          "name": "D#1",
          "ticks": 186368,
          "time": 91,
          "velocity": 0.7874015748031497
        },
        {
          "duration": 0.25,
          "durationTicks": 512,
          "midi": 27,
          "name": "D#1",
          "ticks": 186624,
          "time": 91.125,
          "velocity": 0.7874015748031497
        },
        {
          "duration": 0.0205078125,
          "durationTicks": 42,
          "midi": 27,
          "name": "D#1",
          "ticks": 187136,
          "time": 91.375,
          "velocity": 0.7874015748031497
        },
        {
          "duration": 0.25,
          "durationTicks": 512,
          "midi": 75,
          "name": "D#5",
          "ticks": 187392,
          "time": 91.5,
          "velocity": 0.7874015748031497
        },
        {
          "duration": 0.25,
          "durationTicks": 512,
          "midi": 79,
          "name": "G5",
          "ticks": 187392,
          "time": 91.5,
          "velocity": 0.7874015748031497
        },
        {
          "duration": 0.25,
          "durationTicks": 512,
          "midi": 27,
          "name": "D#1",
          "ticks": 187392,
          "time": 91.5,
          "velocity": 0.7874015748031497
        },
        {
          "duration": 0.25,
          "durationTicks": 512,
          "midi": 79,
          "name": "G5",
          "ticks": 187904,
          "time": 91.75,
          "velocity": 0.7874015748031497
        },
        {
          "duration": 0.25,
          "durationTicks": 512,
          "midi": 82,
          "name": "A#5",
          "ticks": 187904,
          "time": 91.75,
          "velocity": 0.7874015748031497
        },
        {
          "duration": 0.25,
          "durationTicks": 512,
          "midi": 27,
          "name": "D#1",
          "ticks": 187904,
          "time": 91.75,
          "velocity": 0.7874015748031497
        },
        {
          "duration": 0.25,
          "durationTicks": 512,
          "midi": 79,
          "name": "G5",
          "ticks": 188416,
          "time": 92,
          "velocity": 0.7874015748031497
        },
        {
          "duration": 0.25,
          "durationTicks": 512,
          "midi": 84,
          "name": "C6",
          "ticks": 188416,
          "time": 92,
          "velocity": 0.7874015748031497
        },
        {
          "duration": 0.25,
          "durationTicks": 512,
          "midi": 36,
          "name": "C2",
          "ticks": 188416,
          "time": 92,
          "velocity": 0.7874015748031497
        },
        {
          "duration": 0.25,
          "durationTicks": 512,
          "midi": 36,
          "name": "C2",
          "ticks": 188928,
          "time": 92.25,
          "velocity": 0.7874015748031497
        },
        {
          "duration": 0.25,
          "durationTicks": 512,
          "midi": 79,
          "name": "G5",
          "ticks": 189440,
          "time": 92.5,
          "velocity": 0.7874015748031497
        },
        {
          "duration": 0.25,
          "durationTicks": 512,
          "midi": 84,
          "name": "C6",
          "ticks": 189440,
          "time": 92.5,
          "velocity": 0.7874015748031497
        },
        {
          "duration": 0.25,
          "durationTicks": 512,
          "midi": 36,
          "name": "C2",
          "ticks": 189440,
          "time": 92.5,
          "velocity": 0.7874015748031497
        },
        {
          "duration": 0.125,
          "durationTicks": 256,
          "midi": 82,
          "name": "A#5",
          "ticks": 189952,
          "time": 92.75,
          "velocity": 0.7874015748031497
        },
        {
          "duration": 0.125,
          "durationTicks": 256,
          "midi": 87,
          "name": "D#6",
          "ticks": 189952,
          "time": 92.75,
          "velocity": 0.7874015748031497
        },
        {
          "duration": 0.0625,
          "durationTicks": 128,
          "midi": 36,
          "name": "C2",
          "ticks": 189952,
          "time": 92.75,
          "velocity": 0.7874015748031497
        },
        {
          "duration": 0.375,
          "durationTicks": 768,
          "midi": 80,
          "name": "G#5",
          "ticks": 190208,
          "time": 92.875,
          "velocity": 0.7874015748031497
        },
        {
          "duration": 0.375,
          "durationTicks": 768,
          "midi": 84,
          "name": "C6",
          "ticks": 190208,
          "time": 92.875,
          "velocity": 0.7874015748031497
        },
        {
          "duration": 0.25,
          "durationTicks": 512,
          "midi": 32,
          "name": "G#1",
          "ticks": 190208,
          "time": 92.875,
          "velocity": 0.7874015748031497
        },
        {
          "duration": 0.125,
          "durationTicks": 256,
          "midi": 32,
          "name": "G#1",
          "ticks": 190720,
          "time": 93.125,
          "velocity": 0.7874015748031497
        },
        {
          "duration": 0.25,
          "durationTicks": 512,
          "midi": 32,
          "name": "G#1",
          "ticks": 190976,
          "time": 93.25,
          "velocity": 0.7874015748031497
        },
        {
          "duration": 0.25,
          "durationTicks": 512,
          "midi": 82,
          "name": "A#5",
          "ticks": 191488,
          "time": 93.5,
          "velocity": 0.7874015748031497
        },
        {
          "duration": 0.25,
          "durationTicks": 512,
          "midi": 84,
          "name": "C6",
          "ticks": 191488,
          "time": 93.5,
          "velocity": 0.7874015748031497
        },
        {
          "duration": 0.25,
          "durationTicks": 512,
          "midi": 32,
          "name": "G#1",
          "ticks": 191488,
          "time": 93.5,
          "velocity": 0.7874015748031497
        },
        {
          "duration": 0.25,
          "durationTicks": 512,
          "midi": 84,
          "name": "C6",
          "ticks": 192000,
          "time": 93.75,
          "velocity": 0.7874015748031497
        },
        {
          "duration": 0.25,
          "durationTicks": 512,
          "midi": 87,
          "name": "D#6",
          "ticks": 192000,
          "time": 93.75,
          "velocity": 0.7874015748031497
        },
        {
          "duration": 0.25,
          "durationTicks": 512,
          "midi": 32,
          "name": "G#1",
          "ticks": 192000,
          "time": 93.75,
          "velocity": 0.7874015748031497
        },
        {
          "duration": 0.25,
          "durationTicks": 512,
          "midi": 82,
          "name": "A#5",
          "ticks": 192512,
          "time": 94,
          "velocity": 0.7874015748031497
        },
        {
          "duration": 0.25,
          "durationTicks": 512,
          "midi": 86,
          "name": "D6",
          "ticks": 192512,
          "time": 94,
          "velocity": 0.7874015748031497
        },
        {
          "duration": 0.25,
          "durationTicks": 512,
          "midi": 34,
          "name": "A#1",
          "ticks": 192512,
          "time": 94,
          "velocity": 0.7874015748031497
        },
        {
          "duration": 0.125,
          "durationTicks": 256,
          "midi": 79,
          "name": "G5",
          "ticks": 193024,
          "time": 94.25,
          "velocity": 0.7874015748031497
        },
        {
          "duration": 0.125,
          "durationTicks": 256,
          "midi": 82,
          "name": "A#5",
          "ticks": 193024,
          "time": 94.25,
          "velocity": 0.7874015748031497
        },
        {
          "duration": 0.25,
          "durationTicks": 512,
          "midi": 34,
          "name": "A#1",
          "ticks": 193024,
          "time": 94.25,
          "velocity": 0.7874015748031497
        },
        {
          "duration": 0.25,
          "durationTicks": 512,
          "midi": 79,
          "name": "G5",
          "ticks": 193536,
          "time": 94.5,
          "velocity": 0.7874015748031497
        },
        {
          "duration": 0.25,
          "durationTicks": 512,
          "midi": 82,
          "name": "A#5",
          "ticks": 193536,
          "time": 94.5,
          "velocity": 0.7874015748031497
        },
        {
          "duration": 0.25,
          "durationTicks": 512,
          "midi": 34,
          "name": "A#1",
          "ticks": 193536,
          "time": 94.5,
          "velocity": 0.7874015748031497
        },
        {
          "duration": 0.125,
          "durationTicks": 256,
          "midi": 75,
          "name": "D#5",
          "ticks": 194048,
          "time": 94.75,
          "velocity": 0.7874015748031497
        },
        {
          "duration": 0.125,
          "durationTicks": 256,
          "midi": 79,
          "name": "G5",
          "ticks": 194048,
          "time": 94.75,
          "velocity": 0.7874015748031497
        },
        {
          "duration": 0.07275390625,
          "durationTicks": 149,
          "midi": 34,
          "name": "A#1",
          "ticks": 194048,
          "time": 94.75,
          "velocity": 0.7874015748031497
        },
        {
          "duration": 0.5,
          "durationTicks": 1024,
          "midi": 79,
          "name": "G5",
          "ticks": 194304,
          "time": 94.875,
          "velocity": 0.7874015748031497
        },
        {
          "duration": 0.5,
          "durationTicks": 1024,
          "midi": 82,
          "name": "A#5",
          "ticks": 194304,
          "time": 94.875,
          "velocity": 0.7874015748031497
        },
        {
          "duration": 0.25,
          "durationTicks": 512,
          "midi": 31,
          "name": "G1",
          "ticks": 194304,
          "time": 94.875,
          "velocity": 0.7874015748031497
        },
        {
          "duration": 0.125,
          "durationTicks": 256,
          "midi": 31,
          "name": "G1",
          "ticks": 194816,
          "time": 95.125,
          "velocity": 0.7874015748031497
        },
        {
          "duration": 0.25,
          "durationTicks": 512,
          "midi": 31,
          "name": "G1",
          "ticks": 195072,
          "time": 95.25,
          "velocity": 0.7874015748031497
        },
        {
          "duration": 0.25,
          "durationTicks": 512,
          "midi": 77,
          "name": "F5",
          "ticks": 195584,
          "time": 95.5,
          "velocity": 0.7874015748031497
        },
        {
          "duration": 0.25,
          "durationTicks": 512,
          "midi": 80,
          "name": "G#5",
          "ticks": 195584,
          "time": 95.5,
          "velocity": 0.7874015748031497
        },
        {
          "duration": 0.25,
          "durationTicks": 512,
          "midi": 29,
          "name": "F1",
          "ticks": 195584,
          "time": 95.5,
          "velocity": 0.7874015748031497
        },
        {
          "duration": 0.25,
          "durationTicks": 512,
          "midi": 79,
          "name": "G5",
          "ticks": 196096,
          "time": 95.75,
          "velocity": 0.7874015748031497
        },
        {
          "duration": 0.25,
          "durationTicks": 512,
          "midi": 82,
          "name": "A#5",
          "ticks": 196096,
          "time": 95.75,
          "velocity": 0.7874015748031497
        },
        {
          "duration": 0.25,
          "durationTicks": 512,
          "midi": 31,
          "name": "G1",
          "ticks": 196096,
          "time": 95.75,
          "velocity": 0.7874015748031497
        },
        {
          "duration": 0.25,
          "durationTicks": 512,
          "midi": 75,
          "name": "D#5",
          "ticks": 196608,
          "time": 96,
          "velocity": 0.7874015748031497
        },
        {
          "duration": 0.25,
          "durationTicks": 512,
          "midi": 80,
          "name": "G#5",
          "ticks": 196608,
          "time": 96,
          "velocity": 0.7874015748031497
        },
        {
          "duration": 0.25,
          "durationTicks": 512,
          "midi": 32,
          "name": "G#1",
          "ticks": 196608,
          "time": 96,
          "velocity": 0.7874015748031497
        },
        {
          "duration": 0.25,
          "durationTicks": 512,
          "midi": 32,
          "name": "G#1",
          "ticks": 197120,
          "time": 96.25,
          "velocity": 0.7874015748031497
        },
        {
          "duration": 0.25,
          "durationTicks": 512,
          "midi": 75,
          "name": "D#5",
          "ticks": 197632,
          "time": 96.5,
          "velocity": 0.7874015748031497
        },
        {
          "duration": 0.25,
          "durationTicks": 512,
          "midi": 80,
          "name": "G#5",
          "ticks": 197632,
          "time": 96.5,
          "velocity": 0.7874015748031497
        },
        {
          "duration": 0.25,
          "durationTicks": 512,
          "midi": 32,
          "name": "G#1",
          "ticks": 197632,
          "time": 96.5,
          "velocity": 0.7874015748031497
        },
        {
          "duration": 0.125,
          "durationTicks": 256,
          "midi": 77,
          "name": "F5",
          "ticks": 198144,
          "time": 96.75,
          "velocity": 0.7874015748031497
        },
        {
          "duration": 0.125,
          "durationTicks": 256,
          "midi": 82,
          "name": "A#5",
          "ticks": 198144,
          "time": 96.75,
          "velocity": 0.7874015748031497
        },
        {
          "duration": 0.07275390625,
          "durationTicks": 149,
          "midi": 32,
          "name": "G#1",
          "ticks": 198144,
          "time": 96.75,
          "velocity": 0.7874015748031497
        },
        {
          "duration": 0.5,
          "durationTicks": 1024,
          "midi": 72,
          "name": "C5",
          "ticks": 198400,
          "time": 96.875,
          "velocity": 0.7874015748031497
        },
        {
          "duration": 0.5,
          "durationTicks": 1024,
          "midi": 77,
          "name": "F5",
          "ticks": 198400,
          "time": 96.875,
          "velocity": 0.7874015748031497
        },
        {
          "duration": 0.25,
          "durationTicks": 512,
          "midi": 29,
          "name": "F1",
          "ticks": 198400,
          "time": 96.875,
          "velocity": 0.7874015748031497
        },
        {
          "duration": 0.125,
          "durationTicks": 256,
          "midi": 29,
          "name": "F1",
          "ticks": 198912,
          "time": 97.125,
          "velocity": 0.7874015748031497
        },
        {
          "duration": 0.25,
          "durationTicks": 512,
          "midi": 29,
          "name": "F1",
          "ticks": 199168,
          "time": 97.25,
          "velocity": 0.7874015748031497
        },
        {
          "duration": 0.25,
          "durationTicks": 512,
          "midi": 70,
          "name": "A#4",
          "ticks": 199680,
          "time": 97.5,
          "velocity": 0.7874015748031497
        },
        {
          "duration": 0.25,
          "durationTicks": 512,
          "midi": 75,
          "name": "D#5",
          "ticks": 199680,
          "time": 97.5,
          "velocity": 0.7874015748031497
        },
        {
          "duration": 0.25,
          "durationTicks": 512,
          "midi": 26,
          "name": "D1",
          "ticks": 199680,
          "time": 97.5,
          "velocity": 0.7874015748031497
        },
        {
          "duration": 0.25,
          "durationTicks": 512,
          "midi": 72,
          "name": "C5",
          "ticks": 200192,
          "time": 97.75,
          "velocity": 0.7874015748031497
        },
        {
          "duration": 0.25,
          "durationTicks": 512,
          "midi": 77,
          "name": "F5",
          "ticks": 200192,
          "time": 97.75,
          "velocity": 0.7874015748031497
        },
        {
          "duration": 0.25,
          "durationTicks": 512,
          "midi": 29,
          "name": "F1",
          "ticks": 200192,
          "time": 97.75,
          "velocity": 0.7874015748031497
        },
        {
          "duration": 0.25,
          "durationTicks": 512,
          "midi": 74,
          "name": "D5",
          "ticks": 200704,
          "time": 98,
          "velocity": 0.7874015748031497
        },
        {
          "duration": 0.25,
          "durationTicks": 512,
          "midi": 79,
          "name": "G5",
          "ticks": 200704,
          "time": 98,
          "velocity": 0.7874015748031497
        },
        {
          "duration": 0.25,
          "durationTicks": 512,
          "midi": 31,
          "name": "G1",
          "ticks": 200704,
          "time": 98,
          "velocity": 0.7874015748031497
        },
        {
          "duration": 0.25,
          "durationTicks": 512,
          "midi": 31,
          "name": "G1",
          "ticks": 201216,
          "time": 98.25,
          "velocity": 0.7874015748031497
        },
        {
          "duration": 0.5,
          "durationTicks": 1024,
          "midi": 79,
          "name": "G5",
          "ticks": 201728,
          "time": 98.5,
          "velocity": 0.7874015748031497
        },
        {
          "duration": 0.5,
          "durationTicks": 1024,
          "midi": 86,
          "name": "D6",
          "ticks": 201728,
          "time": 98.5,
          "velocity": 0.7874015748031497
        },
        {
          "duration": 0.25,
          "durationTicks": 512,
          "midi": 31,
          "name": "G1",
          "ticks": 201728,
          "time": 98.5,
          "velocity": 0.7874015748031497
        },
        {
          "duration": 0.07275390625,
          "durationTicks": 149,
          "midi": 31,
          "name": "G1",
          "ticks": 202240,
          "time": 98.75,
          "velocity": 0.7874015748031497
        },
        {
          "duration": 0.25,
          "durationTicks": 512,
          "midi": 34,
          "name": "A#1",
          "ticks": 202496,
          "time": 98.875,
          "velocity": 0.7874015748031497
        },
        {
          "duration": 0.375,
          "durationTicks": 768,
          "midi": 74,
          "name": "D5",
          "ticks": 202752,
          "time": 99,
          "velocity": 0.7874015748031497
        },
        {
          "duration": 0.375,
          "durationTicks": 768,
          "midi": 82,
          "name": "A#5",
          "ticks": 202752,
          "time": 99,
          "velocity": 0.7874015748031497
        },
        {
          "duration": 0.125,
          "durationTicks": 256,
          "midi": 34,
          "name": "A#1",
          "ticks": 203008,
          "time": 99.125,
          "velocity": 0.7874015748031497
        },
        {
          "duration": 0.25,
          "durationTicks": 512,
          "midi": 34,
          "name": "A#1",
          "ticks": 203264,
          "time": 99.25,
          "velocity": 0.7874015748031497
        },
        {
          "duration": 0.25,
          "durationTicks": 512,
          "midi": 75,
          "name": "D#5",
          "ticks": 203776,
          "time": 99.5,
          "velocity": 0.7874015748031497
        },
        {
          "duration": 0.25,
          "durationTicks": 512,
          "midi": 79,
          "name": "G5",
          "ticks": 203776,
          "time": 99.5,
          "velocity": 0.7874015748031497
        },
        {
          "duration": 0.25,
          "durationTicks": 512,
          "midi": 31,
          "name": "G1",
          "ticks": 203776,
          "time": 99.5,
          "velocity": 0.7874015748031497
        },
        {
          "duration": 0.25,
          "durationTicks": 512,
          "midi": 79,
          "name": "G5",
          "ticks": 204288,
          "time": 99.75,
          "velocity": 0.7874015748031497
        },
        {
          "duration": 0.25,
          "durationTicks": 512,
          "midi": 82,
          "name": "A#5",
          "ticks": 204288,
          "time": 99.75,
          "velocity": 0.7874015748031497
        },
        {
          "duration": 0.25,
          "durationTicks": 512,
          "midi": 34,
          "name": "A#1",
          "ticks": 204288,
          "time": 99.75,
          "velocity": 0.7874015748031497
        },
        {
          "duration": 0.25,
          "durationTicks": 512,
          "midi": 79,
          "name": "G5",
          "ticks": 204800,
          "time": 100,
          "velocity": 0.7874015748031497
        },
        {
          "duration": 0.25,
          "durationTicks": 512,
          "midi": 84,
          "name": "C6",
          "ticks": 204800,
          "time": 100,
          "velocity": 0.7874015748031497
        },
        {
          "duration": 0.25,
          "durationTicks": 512,
          "midi": 36,
          "name": "C2",
          "ticks": 204800,
          "time": 100,
          "velocity": 0.7874015748031497
        },
        {
          "duration": 0.25,
          "durationTicks": 512,
          "midi": 36,
          "name": "C2",
          "ticks": 205312,
          "time": 100.25,
          "velocity": 0.7874015748031497
        },
        {
          "duration": 0.25,
          "durationTicks": 512,
          "midi": 79,
          "name": "G5",
          "ticks": 205824,
          "time": 100.5,
          "velocity": 0.7874015748031497
        },
        {
          "duration": 0.25,
          "durationTicks": 512,
          "midi": 84,
          "name": "C6",
          "ticks": 205824,
          "time": 100.5,
          "velocity": 0.7874015748031497
        },
        {
          "duration": 0.25,
          "durationTicks": 512,
          "midi": 36,
          "name": "C2",
          "ticks": 205824,
          "time": 100.5,
          "velocity": 0.7874015748031497
        },
        {
          "duration": 0.125,
          "durationTicks": 256,
          "midi": 82,
          "name": "A#5",
          "ticks": 206336,
          "time": 100.75,
          "velocity": 0.7874015748031497
        },
        {
          "duration": 0.125,
          "durationTicks": 256,
          "midi": 87,
          "name": "D#6",
          "ticks": 206336,
          "time": 100.75,
          "velocity": 0.7874015748031497
        },
        {
          "duration": 0.07275390625,
          "durationTicks": 149,
          "midi": 36,
          "name": "C2",
          "ticks": 206336,
          "time": 100.75,
          "velocity": 0.7874015748031497
        },
        {
          "duration": 0.375,
          "durationTicks": 768,
          "midi": 80,
          "name": "G#5",
          "ticks": 206592,
          "time": 100.875,
          "velocity": 0.7874015748031497
        },
        {
          "duration": 0.375,
          "durationTicks": 768,
          "midi": 84,
          "name": "C6",
          "ticks": 206592,
          "time": 100.875,
          "velocity": 0.7874015748031497
        },
        {
          "duration": 0.25,
          "durationTicks": 512,
          "midi": 32,
          "name": "G#1",
          "ticks": 206592,
          "time": 100.875,
          "velocity": 0.7874015748031497
        },
        {
          "duration": 0.125,
          "durationTicks": 256,
          "midi": 32,
          "name": "G#1",
          "ticks": 207104,
          "time": 101.125,
          "velocity": 0.7874015748031497
        },
        {
          "duration": 0.25,
          "durationTicks": 512,
          "midi": 32,
          "name": "G#1",
          "ticks": 207360,
          "time": 101.25,
          "velocity": 0.7874015748031497
        },
        {
          "duration": 0.25,
          "durationTicks": 512,
          "midi": 82,
          "name": "A#5",
          "ticks": 207872,
          "time": 101.5,
          "velocity": 0.7874015748031497
        },
        {
          "duration": 0.25,
          "durationTicks": 512,
          "midi": 84,
          "name": "C6",
          "ticks": 207872,
          "time": 101.5,
          "velocity": 0.7874015748031497
        },
        {
          "duration": 0.25,
          "durationTicks": 512,
          "midi": 32,
          "name": "G#1",
          "ticks": 207872,
          "time": 101.5,
          "velocity": 0.7874015748031497
        },
        {
          "duration": 0.25,
          "durationTicks": 512,
          "midi": 84,
          "name": "C6",
          "ticks": 208384,
          "time": 101.75,
          "velocity": 0.7874015748031497
        },
        {
          "duration": 0.25,
          "durationTicks": 512,
          "midi": 87,
          "name": "D#6",
          "ticks": 208384,
          "time": 101.75,
          "velocity": 0.7874015748031497
        },
        {
          "duration": 0.25,
          "durationTicks": 512,
          "midi": 32,
          "name": "G#1",
          "ticks": 208384,
          "time": 101.75,
          "velocity": 0.7874015748031497
        },
        {
          "duration": 0.25,
          "durationTicks": 512,
          "midi": 82,
          "name": "A#5",
          "ticks": 208896,
          "time": 102,
          "velocity": 0.7874015748031497
        },
        {
          "duration": 0.25,
          "durationTicks": 512,
          "midi": 86,
          "name": "D6",
          "ticks": 208896,
          "time": 102,
          "velocity": 0.7874015748031497
        },
        {
          "duration": 0.25,
          "durationTicks": 512,
          "midi": 34,
          "name": "A#1",
          "ticks": 208896,
          "time": 102,
          "velocity": 0.7874015748031497
        },
        {
          "duration": 0.125,
          "durationTicks": 256,
          "midi": 79,
          "name": "G5",
          "ticks": 209408,
          "time": 102.25,
          "velocity": 0.7874015748031497
        },
        {
          "duration": 0.125,
          "durationTicks": 256,
          "midi": 82,
          "name": "A#5",
          "ticks": 209408,
          "time": 102.25,
          "velocity": 0.7874015748031497
        },
        {
          "duration": 0.25,
          "durationTicks": 512,
          "midi": 34,
          "name": "A#1",
          "ticks": 209408,
          "time": 102.25,
          "velocity": 0.7874015748031497
        },
        {
          "duration": 0.25,
          "durationTicks": 512,
          "midi": 79,
          "name": "G5",
          "ticks": 209920,
          "time": 102.5,
          "velocity": 0.7874015748031497
        },
        {
          "duration": 0.25,
          "durationTicks": 512,
          "midi": 82,
          "name": "A#5",
          "ticks": 209920,
          "time": 102.5,
          "velocity": 0.7874015748031497
        },
        {
          "duration": 0.25,
          "durationTicks": 512,
          "midi": 34,
          "name": "A#1",
          "ticks": 209920,
          "time": 102.5,
          "velocity": 0.7874015748031497
        },
        {
          "duration": 0.125,
          "durationTicks": 256,
          "midi": 75,
          "name": "D#5",
          "ticks": 210432,
          "time": 102.75,
          "velocity": 0.7874015748031497
        },
        {
          "duration": 0.125,
          "durationTicks": 256,
          "midi": 79,
          "name": "G5",
          "ticks": 210432,
          "time": 102.75,
          "velocity": 0.7874015748031497
        },
        {
          "duration": 0.07275390625,
          "durationTicks": 149,
          "midi": 34,
          "name": "A#1",
          "ticks": 210432,
          "time": 102.75,
          "velocity": 0.7874015748031497
        },
        {
          "duration": 0.5,
          "durationTicks": 1024,
          "midi": 79,
          "name": "G5",
          "ticks": 210688,
          "time": 102.875,
          "velocity": 0.7874015748031497
        },
        {
          "duration": 0.5,
          "durationTicks": 1024,
          "midi": 82,
          "name": "A#5",
          "ticks": 210688,
          "time": 102.875,
          "velocity": 0.7874015748031497
        },
        {
          "duration": 0.25,
          "durationTicks": 512,
          "midi": 31,
          "name": "G1",
          "ticks": 210688,
          "time": 102.875,
          "velocity": 0.7874015748031497
        },
        {
          "duration": 0.125,
          "durationTicks": 256,
          "midi": 31,
          "name": "G1",
          "ticks": 211200,
          "time": 103.125,
          "velocity": 0.7874015748031497
        },
        {
          "duration": 0.25,
          "durationTicks": 512,
          "midi": 31,
          "name": "G1",
          "ticks": 211456,
          "time": 103.25,
          "velocity": 0.7874015748031497
        },
        {
          "duration": 0.25,
          "durationTicks": 512,
          "midi": 77,
          "name": "F5",
          "ticks": 211968,
          "time": 103.5,
          "velocity": 0.7874015748031497
        },
        {
          "duration": 0.25,
          "durationTicks": 512,
          "midi": 80,
          "name": "G#5",
          "ticks": 211968,
          "time": 103.5,
          "velocity": 0.7874015748031497
        },
        {
          "duration": 0.25,
          "durationTicks": 512,
          "midi": 31,
          "name": "G1",
          "ticks": 211968,
          "time": 103.5,
          "velocity": 0.7874015748031497
        },
        {
          "duration": 0.25,
          "durationTicks": 512,
          "midi": 79,
          "name": "G5",
          "ticks": 212480,
          "time": 103.75,
          "velocity": 0.7874015748031497
        },
        {
          "duration": 0.25,
          "durationTicks": 512,
          "midi": 82,
          "name": "A#5",
          "ticks": 212480,
          "time": 103.75,
          "velocity": 0.7874015748031497
        },
        {
          "duration": 0.25,
          "durationTicks": 512,
          "midi": 31,
          "name": "G1",
          "ticks": 212480,
          "time": 103.75,
          "velocity": 0.7874015748031497
        },
        {
          "duration": 0.25,
          "durationTicks": 512,
          "midi": 77,
          "name": "F5",
          "ticks": 212992,
          "time": 104,
          "velocity": 0.7874015748031497
        },
        {
          "duration": 0.25,
          "durationTicks": 512,
          "midi": 80,
          "name": "G#5",
          "ticks": 212992,
          "time": 104,
          "velocity": 0.7874015748031497
        },
        {
          "duration": 0.25,
          "durationTicks": 512,
          "midi": 29,
          "name": "F1",
          "ticks": 212992,
          "time": 104,
          "velocity": 0.7874015748031497
        },
        {
          "duration": 0.25,
          "durationTicks": 512,
          "midi": 29,
          "name": "F1",
          "ticks": 213504,
          "time": 104.25,
          "velocity": 0.7874015748031497
        },
        {
          "duration": 0.25,
          "durationTicks": 512,
          "midi": 77,
          "name": "F5",
          "ticks": 214016,
          "time": 104.5,
          "velocity": 0.7874015748031497
        },
        {
          "duration": 0.25,
          "durationTicks": 512,
          "midi": 80,
          "name": "G#5",
          "ticks": 214016,
          "time": 104.5,
          "velocity": 0.7874015748031497
        },
        {
          "duration": 0.25,
          "durationTicks": 512,
          "midi": 29,
          "name": "F1",
          "ticks": 214016,
          "time": 104.5,
          "velocity": 0.7874015748031497
        },
        {
          "duration": 0.125,
          "durationTicks": 256,
          "midi": 79,
          "name": "G5",
          "ticks": 214528,
          "time": 104.75,
          "velocity": 0.7874015748031497
        },
        {
          "duration": 0.125,
          "durationTicks": 256,
          "midi": 82,
          "name": "A#5",
          "ticks": 214528,
          "time": 104.75,
          "velocity": 0.7874015748031497
        },
        {
          "duration": 0.07275390625,
          "durationTicks": 149,
          "midi": 29,
          "name": "F1",
          "ticks": 214528,
          "time": 104.75,
          "velocity": 0.7874015748031497
        },
        {
          "duration": 0.5,
          "durationTicks": 1024,
          "midi": 74,
          "name": "D5",
          "ticks": 214784,
          "time": 104.875,
          "velocity": 0.7874015748031497
        },
        {
          "duration": 0.5,
          "durationTicks": 1024,
          "midi": 77,
          "name": "F5",
          "ticks": 214784,
          "time": 104.875,
          "velocity": 0.7874015748031497
        },
        {
          "duration": 0.25,
          "durationTicks": 512,
          "midi": 34,
          "name": "A#1",
          "ticks": 214784,
          "time": 104.875,
          "velocity": 0.7874015748031497
        },
        {
          "duration": 0.125,
          "durationTicks": 256,
          "midi": 34,
          "name": "A#1",
          "ticks": 215296,
          "time": 105.125,
          "velocity": 0.7874015748031497
        },
        {
          "duration": 0.25,
          "durationTicks": 512,
          "midi": 34,
          "name": "A#1",
          "ticks": 215552,
          "time": 105.25,
          "velocity": 0.7874015748031497
        },
        {
          "duration": 0.25,
          "durationTicks": 512,
          "midi": 72,
          "name": "C5",
          "ticks": 216064,
          "time": 105.5,
          "velocity": 0.7874015748031497
        },
        {
          "duration": 0.25,
          "durationTicks": 512,
          "midi": 77,
          "name": "F5",
          "ticks": 216064,
          "time": 105.5,
          "velocity": 0.7874015748031497
        },
        {
          "duration": 0.25,
          "durationTicks": 512,
          "midi": 34,
          "name": "A#1",
          "ticks": 216064,
          "time": 105.5,
          "velocity": 0.7874015748031497
        },
        {
          "duration": 0.25,
          "durationTicks": 512,
          "midi": 74,
          "name": "D5",
          "ticks": 216576,
          "time": 105.75,
          "velocity": 0.7874015748031497
        },
        {
          "duration": 0.25,
          "durationTicks": 512,
          "midi": 79,
          "name": "G5",
          "ticks": 216576,
          "time": 105.75,
          "velocity": 0.7874015748031497
        },
        {
          "duration": 0.25,
          "durationTicks": 512,
          "midi": 34,
          "name": "A#1",
          "ticks": 216576,
          "time": 105.75,
          "velocity": 0.7874015748031497
        },
        {
          "duration": 0.25,
          "durationTicks": 512,
          "midi": 72,
          "name": "C5",
          "ticks": 217088,
          "time": 106,
          "velocity": 0.7874015748031497
        },
        {
          "duration": 0.25,
          "durationTicks": 512,
          "midi": 77,
          "name": "F5",
          "ticks": 217088,
          "time": 106,
          "velocity": 0.7874015748031497
        },
        {
          "duration": 0.25,
          "durationTicks": 512,
          "midi": 27,
          "name": "D#1",
          "ticks": 217088,
          "time": 106,
          "velocity": 0.7874015748031497
        },
        {
          "duration": 0.125,
          "durationTicks": 256,
          "midi": 70,
          "name": "A#4",
          "ticks": 217600,
          "time": 106.25,
          "velocity": 0.7874015748031497
        },
        {
          "duration": 0.125,
          "durationTicks": 256,
          "midi": 75,
          "name": "D#5",
          "ticks": 217600,
          "time": 106.25,
          "velocity": 0.7874015748031497
        },
        {
          "duration": 0.0205078125,
          "durationTicks": 42,
          "midi": 27,
          "name": "D#1",
          "ticks": 217600,
          "time": 106.25,
          "velocity": 0.7874015748031497
        },
        {
          "duration": 0.625,
          "durationTicks": 1280,
          "midi": 70,
          "name": "A#4",
          "ticks": 217856,
          "time": 106.375,
          "velocity": 0.7874015748031497
        },
        {
          "duration": 0.625,
          "durationTicks": 1280,
          "midi": 75,
          "name": "D#5",
          "ticks": 217856,
          "time": 106.375,
          "velocity": 0.7874015748031497
        },
        {
          "duration": 0.125,
          "durationTicks": 256,
          "midi": 27,
          "name": "D#1",
          "ticks": 217856,
          "time": 106.375,
          "velocity": 0.7874015748031497
        },
        {
          "duration": 0.0625,
          "durationTicks": 128,
          "midi": 36,
          "name": "C2",
          "ticks": 218112,
          "time": 106.5,
          "velocity": 0.5039370078740157
        },
        {
          "duration": 0.0625,
          "durationTicks": 128,
          "midi": 39,
          "name": "D#2",
          "ticks": 218240,
          "time": 106.5625,
          "velocity": 0.5039370078740157
        },
        {
          "duration": 0.0625,
          "durationTicks": 128,
          "midi": 41,
          "name": "F2",
          "ticks": 218368,
          "time": 106.625,
          "velocity": 0.5039370078740157
        },
        {
          "duration": 0.0625,
          "durationTicks": 128,
          "midi": 43,
          "name": "G2",
          "ticks": 218496,
          "time": 106.6875,
          "velocity": 0.5039370078740157
        },
        {
          "duration": 0.0625,
          "durationTicks": 128,
          "midi": 46,
          "name": "A#2",
          "ticks": 218624,
          "time": 106.75,
          "velocity": 0.5039370078740157
        },
        {
          "duration": 0.0625,
          "durationTicks": 128,
          "midi": 48,
          "name": "C3",
          "ticks": 218752,
          "time": 106.8125,
          "velocity": 0.5039370078740157
        },
        {
          "duration": 0.0625,
          "durationTicks": 128,
          "midi": 51,
          "name": "D#3",
          "ticks": 218880,
          "time": 106.875,
          "velocity": 0.5039370078740157
        },
        {
          "duration": 0.0625,
          "durationTicks": 128,
          "midi": 53,
          "name": "F3",
          "ticks": 219008,
          "time": 106.9375,
          "velocity": 0.5039370078740157
        },
        {
          "duration": 0.0625,
          "durationTicks": 128,
          "midi": 55,
          "name": "G3",
          "ticks": 219136,
          "time": 107,
          "velocity": 0.5039370078740157
        },
        {
          "duration": 0.0625,
          "durationTicks": 128,
          "midi": 58,
          "name": "A#3",
          "ticks": 219264,
          "time": 107.0625,
          "velocity": 0.5039370078740157
        },
        {
          "duration": 0.0625,
          "durationTicks": 128,
          "midi": 60,
          "name": "C4",
          "ticks": 219392,
          "time": 107.125,
          "velocity": 0.5039370078740157
        },
        {
          "duration": 0.0625,
          "durationTicks": 128,
          "midi": 63,
          "name": "D#4",
          "ticks": 219520,
          "time": 107.1875,
          "velocity": 0.5039370078740157
        },
        {
          "duration": 0.0625,
          "durationTicks": 128,
          "midi": 65,
          "name": "F4",
          "ticks": 219648,
          "time": 107.25,
          "velocity": 0.5039370078740157
        },
        {
          "duration": 0.0625,
          "durationTicks": 128,
          "midi": 67,
          "name": "G4",
          "ticks": 219776,
          "time": 107.3125,
          "velocity": 0.5039370078740157
        },
        {
          "duration": 0.0625,
          "durationTicks": 128,
          "midi": 70,
          "name": "A#4",
          "ticks": 219904,
          "time": 107.375,
          "velocity": 0.5039370078740157
        },
        {
          "duration": 0.0625,
          "durationTicks": 128,
          "midi": 72,
          "name": "C5",
          "ticks": 220032,
          "time": 107.4375,
          "velocity": 0.5039370078740157
        },
        {
          "duration": 0.0625,
          "durationTicks": 128,
          "midi": 75,
          "name": "D#5",
          "ticks": 220160,
          "time": 107.5,
          "velocity": 0.5039370078740157
        },
        {
          "duration": 0.0625,
          "durationTicks": 128,
          "midi": 77,
          "name": "F5",
          "ticks": 220288,
          "time": 107.5625,
          "velocity": 0.5039370078740157
        },
        {
          "duration": 0.0625,
          "durationTicks": 128,
          "midi": 79,
          "name": "G5",
          "ticks": 220416,
          "time": 107.625,
          "velocity": 0.5039370078740157
        },
        {
          "duration": 0.0625,
          "durationTicks": 128,
          "midi": 82,
          "name": "A#5",
          "ticks": 220544,
          "time": 107.6875,
          "velocity": 0.5039370078740157
        },
        {
          "duration": 0.0625,
          "durationTicks": 128,
          "midi": 84,
          "name": "C6",
          "ticks": 220672,
          "time": 107.75,
          "velocity": 0.5039370078740157
        },
        {
          "duration": 0.0625,
          "durationTicks": 128,
          "midi": 87,
          "name": "D#6",
          "ticks": 220800,
          "time": 107.8125,
          "velocity": 0.5039370078740157
        },
        {
          "duration": 0.0625,
          "durationTicks": 128,
          "midi": 89,
          "name": "F6",
          "ticks": 220928,
          "time": 107.875,
          "velocity": 0.5039370078740157
        },
        {
          "duration": 0.0625,
          "durationTicks": 128,
          "midi": 91,
          "name": "G6",
          "ticks": 221056,
          "time": 107.9375,
          "velocity": 0.5039370078740157
        },
        {
          "duration": 0.25,
          "durationTicks": 512,
          "midi": 84,
          "name": "C6",
          "ticks": 221184,
          "time": 108,
          "velocity": 0.7874015748031497
        },
        {
          "duration": 0.2080078125,
          "durationTicks": 426,
          "midi": 36,
          "name": "C2",
          "ticks": 221184,
          "time": 108,
          "velocity": 0.7874015748031497
        },
        {
          "duration": 0.2080078125,
          "durationTicks": 426,
          "midi": 36,
          "name": "C2",
          "ticks": 221696,
          "time": 108.25,
          "velocity": 0.7874015748031497
        },
        {
          "duration": 0.125,
          "durationTicks": 256,
          "midi": 79,
          "name": "G5",
          "ticks": 221952,
          "time": 108.375,
          "velocity": 0.7874015748031497
        },
        {
          "duration": 0.2080078125,
          "durationTicks": 426,
          "midi": 36,
          "name": "C2",
          "ticks": 222208,
          "time": 108.5,
          "velocity": 0.7874015748031497
        },
        {
          "duration": 0.125,
          "durationTicks": 256,
          "midi": 79,
          "name": "G5",
          "ticks": 222464,
          "time": 108.625,
          "velocity": 0.7874015748031497
        },
        {
          "duration": 0.2080078125,
          "durationTicks": 426,
          "midi": 36,
          "name": "C2",
          "ticks": 222720,
          "time": 108.75,
          "velocity": 0.7874015748031497
        },
        {
          "duration": 0.125,
          "durationTicks": 256,
          "midi": 79,
          "name": "G5",
          "ticks": 222976,
          "time": 108.875,
          "velocity": 0.7874015748031497
        },
        {
          "duration": 0.2080078125,
          "durationTicks": 426,
          "midi": 36,
          "name": "C2",
          "ticks": 223232,
          "time": 109,
          "velocity": 0.7874015748031497
        },
        {
          "duration": 0.125,
          "durationTicks": 256,
          "midi": 79,
          "name": "G5",
          "ticks": 223488,
          "time": 109.125,
          "velocity": 0.7874015748031497
        },
        {
          "duration": 0.5,
          "durationTicks": 1024,
          "midi": 80,
          "name": "G#5",
          "ticks": 223744,
          "time": 109.25,
          "velocity": 0.7874015748031497
        },
        {
          "duration": 0.2080078125,
          "durationTicks": 426,
          "midi": 36,
          "name": "C2",
          "ticks": 223744,
          "time": 109.25,
          "velocity": 0.7874015748031497
        },
        {
          "duration": 0.2080078125,
          "durationTicks": 426,
          "midi": 36,
          "name": "C2",
          "ticks": 224256,
          "time": 109.5,
          "velocity": 0.7874015748031497
        },
        {
          "duration": 0.25,
          "durationTicks": 512,
          "midi": 82,
          "name": "A#5",
          "ticks": 224768,
          "time": 109.75,
          "velocity": 0.7874015748031497
        },
        {
          "duration": 0.2080078125,
          "durationTicks": 426,
          "midi": 36,
          "name": "C2",
          "ticks": 224768,
          "time": 109.75,
          "velocity": 0.7874015748031497
        },
        {
          "duration": 0.25,
          "durationTicks": 512,
          "midi": 84,
          "name": "C6",
          "ticks": 225280,
          "time": 110,
          "velocity": 0.7874015748031497
        },
        {
          "duration": 0.2080078125,
          "durationTicks": 426,
          "midi": 36,
          "name": "C2",
          "ticks": 225280,
          "time": 110,
          "velocity": 0.7874015748031497
        },
        {
          "duration": 0.2080078125,
          "durationTicks": 426,
          "midi": 36,
          "name": "C2",
          "ticks": 225792,
          "time": 110.25,
          "velocity": 0.7874015748031497
        },
        {
          "duration": 0.125,
          "durationTicks": 256,
          "midi": 79,
          "name": "G5",
          "ticks": 226048,
          "time": 110.375,
          "velocity": 0.7874015748031497
        },
        {
          "duration": 0.2080078125,
          "durationTicks": 426,
          "midi": 36,
          "name": "C2",
          "ticks": 226304,
          "time": 110.5,
          "velocity": 0.7874015748031497
        },
        {
          "duration": 0.125,
          "durationTicks": 256,
          "midi": 79,
          "name": "G5",
          "ticks": 226560,
          "time": 110.625,
          "velocity": 0.7874015748031497
        },
        {
          "duration": 0.2080078125,
          "durationTicks": 426,
          "midi": 36,
          "name": "C2",
          "ticks": 226816,
          "time": 110.75,
          "velocity": 0.7874015748031497
        },
        {
          "duration": 0.125,
          "durationTicks": 256,
          "midi": 79,
          "name": "G5",
          "ticks": 227072,
          "time": 110.875,
          "velocity": 0.7874015748031497
        },
        {
          "duration": 0.2080078125,
          "durationTicks": 426,
          "midi": 36,
          "name": "C2",
          "ticks": 227328,
          "time": 111,
          "velocity": 0.7874015748031497
        },
        {
          "duration": 0.125,
          "durationTicks": 256,
          "midi": 79,
          "name": "G5",
          "ticks": 227584,
          "time": 111.125,
          "velocity": 0.7874015748031497
        },
        {
          "duration": 0.5,
          "durationTicks": 1024,
          "midi": 80,
          "name": "G#5",
          "ticks": 227840,
          "time": 111.25,
          "velocity": 0.7874015748031497
        },
        {
          "duration": 0.2080078125,
          "durationTicks": 426,
          "midi": 36,
          "name": "C2",
          "ticks": 227840,
          "time": 111.25,
          "velocity": 0.7874015748031497
        },
        {
          "duration": 0.2080078125,
          "durationTicks": 426,
          "midi": 36,
          "name": "C2",
          "ticks": 228352,
          "time": 111.5,
          "velocity": 0.7874015748031497
        },
        {
          "duration": 0.25,
          "durationTicks": 512,
          "midi": 82,
          "name": "A#5",
          "ticks": 228864,
          "time": 111.75,
          "velocity": 0.7874015748031497
        },
        {
          "duration": 0.2080078125,
          "durationTicks": 426,
          "midi": 36,
          "name": "C2",
          "ticks": 228864,
          "time": 111.75,
          "velocity": 0.7874015748031497
        },
        {
          "duration": 0.25,
          "durationTicks": 512,
          "midi": 84,
          "name": "C6",
          "ticks": 229376,
          "time": 112,
          "velocity": 0.7874015748031497
        },
        {
          "duration": 0.2080078125,
          "durationTicks": 426,
          "midi": 36,
          "name": "C2",
          "ticks": 229376,
          "time": 112,
          "velocity": 0.7874015748031497
        },
        {
          "duration": 0.2080078125,
          "durationTicks": 426,
          "midi": 36,
          "name": "C2",
          "ticks": 229888,
          "time": 112.25,
          "velocity": 0.7874015748031497
        },
        {
          "duration": 0.125,
          "durationTicks": 256,
          "midi": 79,
          "name": "G5",
          "ticks": 230144,
          "time": 112.375,
          "velocity": 0.7874015748031497
        },
        {
          "duration": 0.2080078125,
          "durationTicks": 426,
          "midi": 36,
          "name": "C2",
          "ticks": 230400,
          "time": 112.5,
          "velocity": 0.7874015748031497
        },
        {
          "duration": 0.125,
          "durationTicks": 256,
          "midi": 79,
          "name": "G5",
          "ticks": 230656,
          "time": 112.625,
          "velocity": 0.7874015748031497
        },
        {
          "duration": 0.2080078125,
          "durationTicks": 426,
          "midi": 36,
          "name": "C2",
          "ticks": 230912,
          "time": 112.75,
          "velocity": 0.7874015748031497
        },
        {
          "duration": 0.125,
          "durationTicks": 256,
          "midi": 79,
          "name": "G5",
          "ticks": 231168,
          "time": 112.875,
          "velocity": 0.7874015748031497
        },
        {
          "duration": 0.2080078125,
          "durationTicks": 426,
          "midi": 36,
          "name": "C2",
          "ticks": 231424,
          "time": 113,
          "velocity": 0.7874015748031497
        },
        {
          "duration": 0.125,
          "durationTicks": 256,
          "midi": 79,
          "name": "G5",
          "ticks": 231680,
          "time": 113.125,
          "velocity": 0.7874015748031497
        },
        {
          "duration": 0.5,
          "durationTicks": 1024,
          "midi": 80,
          "name": "G#5",
          "ticks": 231936,
          "time": 113.25,
          "velocity": 0.7874015748031497
        },
        {
          "duration": 0.2080078125,
          "durationTicks": 426,
          "midi": 36,
          "name": "C2",
          "ticks": 231936,
          "time": 113.25,
          "velocity": 0.7874015748031497
        },
        {
          "duration": 0.2080078125,
          "durationTicks": 426,
          "midi": 36,
          "name": "C2",
          "ticks": 232448,
          "time": 113.5,
          "velocity": 0.7874015748031497
        },
        {
          "duration": 0.25,
          "durationTicks": 512,
          "midi": 82,
          "name": "A#5",
          "ticks": 232960,
          "time": 113.75,
          "velocity": 0.7874015748031497
        },
        {
          "duration": 0.2080078125,
          "durationTicks": 426,
          "midi": 36,
          "name": "C2",
          "ticks": 232960,
          "time": 113.75,
          "velocity": 0.7874015748031497
        },
        {
          "duration": 0.25,
          "durationTicks": 512,
          "midi": 84,
          "name": "C6",
          "ticks": 233472,
          "time": 114,
          "velocity": 0.7874015748031497
        },
        {
          "duration": 0.2080078125,
          "durationTicks": 426,
          "midi": 36,
          "name": "C2",
          "ticks": 233472,
          "time": 114,
          "velocity": 0.7874015748031497
        },
        {
          "duration": 0.2080078125,
          "durationTicks": 426,
          "midi": 36,
          "name": "C2",
          "ticks": 233984,
          "time": 114.25,
          "velocity": 0.7874015748031497
        },
        {
          "duration": 0.125,
          "durationTicks": 256,
          "midi": 79,
          "name": "G5",
          "ticks": 234240,
          "time": 114.375,
          "velocity": 0.7874015748031497
        },
        {
          "duration": 0.2080078125,
          "durationTicks": 426,
          "midi": 36,
          "name": "C2",
          "ticks": 234496,
          "time": 114.5,
          "velocity": 0.7874015748031497
        },
        {
          "duration": 0.125,
          "durationTicks": 256,
          "midi": 79,
          "name": "G5",
          "ticks": 234752,
          "time": 114.625,
          "velocity": 0.7874015748031497
        },
        {
          "duration": 0.2080078125,
          "durationTicks": 426,
          "midi": 36,
          "name": "C2",
          "ticks": 235008,
          "time": 114.75,
          "velocity": 0.7874015748031497
        },
        {
          "duration": 0.125,
          "durationTicks": 256,
          "midi": 79,
          "name": "G5",
          "ticks": 235264,
          "time": 114.875,
          "velocity": 0.7874015748031497
        },
        {
          "duration": 0.2080078125,
          "durationTicks": 426,
          "midi": 36,
          "name": "C2",
          "ticks": 235520,
          "time": 115,
          "velocity": 0.7874015748031497
        },
        {
          "duration": 0.125,
          "durationTicks": 256,
          "midi": 79,
          "name": "G5",
          "ticks": 235776,
          "time": 115.125,
          "velocity": 0.7874015748031497
        },
        {
          "duration": 0.5,
          "durationTicks": 1024,
          "midi": 80,
          "name": "G#5",
          "ticks": 236032,
          "time": 115.25,
          "velocity": 0.7874015748031497
        },
        {
          "duration": 0.2080078125,
          "durationTicks": 426,
          "midi": 36,
          "name": "C2",
          "ticks": 236032,
          "time": 115.25,
          "velocity": 0.7874015748031497
        },
        {
          "duration": 0.2080078125,
          "durationTicks": 426,
          "midi": 36,
          "name": "C2",
          "ticks": 236544,
          "time": 115.5,
          "velocity": 0.7874015748031497
        },
        {
          "duration": 0.25,
          "durationTicks": 512,
          "midi": 82,
          "name": "A#5",
          "ticks": 237056,
          "time": 115.75,
          "velocity": 0.7874015748031497
        },
        {
          "duration": 0.2080078125,
          "durationTicks": 426,
          "midi": 36,
          "name": "C2",
          "ticks": 237056,
          "time": 115.75,
          "velocity": 0.7874015748031497
        },
        {
          "duration": 0.25,
          "durationTicks": 512,
          "midi": 84,
          "name": "C6",
          "ticks": 237568,
          "time": 116,
          "velocity": 0.7874015748031497
        },
        {
          "duration": 0.2080078125,
          "durationTicks": 426,
          "midi": 36,
          "name": "C2",
          "ticks": 237568,
          "time": 116,
          "velocity": 0.7874015748031497
        },
        {
          "duration": 0.2080078125,
          "durationTicks": 426,
          "midi": 36,
          "name": "C2",
          "ticks": 238080,
          "time": 116.25,
          "velocity": 0.7874015748031497
        },
        {
          "duration": 0.125,
          "durationTicks": 256,
          "midi": 79,
          "name": "G5",
          "ticks": 238336,
          "time": 116.375,
          "velocity": 0.7874015748031497
        },
        {
          "duration": 0.2080078125,
          "durationTicks": 426,
          "midi": 36,
          "name": "C2",
          "ticks": 238592,
          "time": 116.5,
          "velocity": 0.7874015748031497
        },
        {
          "duration": 0.125,
          "durationTicks": 256,
          "midi": 79,
          "name": "G5",
          "ticks": 238848,
          "time": 116.625,
          "velocity": 0.7874015748031497
        },
        {
          "duration": 0.2080078125,
          "durationTicks": 426,
          "midi": 36,
          "name": "C2",
          "ticks": 239104,
          "time": 116.75,
          "velocity": 0.7874015748031497
        },
        {
          "duration": 0.125,
          "durationTicks": 256,
          "midi": 79,
          "name": "G5",
          "ticks": 239360,
          "time": 116.875,
          "velocity": 0.7874015748031497
        },
        {
          "duration": 0.2080078125,
          "durationTicks": 426,
          "midi": 36,
          "name": "C2",
          "ticks": 239616,
          "time": 117,
          "velocity": 0.7874015748031497
        },
        {
          "duration": 0.125,
          "durationTicks": 256,
          "midi": 79,
          "name": "G5",
          "ticks": 239872,
          "time": 117.125,
          "velocity": 0.7874015748031497
        },
        {
          "duration": 0.5,
          "durationTicks": 1024,
          "midi": 80,
          "name": "G#5",
          "ticks": 240128,
          "time": 117.25,
          "velocity": 0.7874015748031497
        },
        {
          "duration": 0.2080078125,
          "durationTicks": 426,
          "midi": 36,
          "name": "C2",
          "ticks": 240128,
          "time": 117.25,
          "velocity": 0.7874015748031497
        },
        {
          "duration": 0.2080078125,
          "durationTicks": 426,
          "midi": 36,
          "name": "C2",
          "ticks": 240640,
          "time": 117.5,
          "velocity": 0.7874015748031497
        },
        {
          "duration": 0.25,
          "durationTicks": 512,
          "midi": 82,
          "name": "A#5",
          "ticks": 241152,
          "time": 117.75,
          "velocity": 0.7874015748031497
        },
        {
          "duration": 0.2080078125,
          "durationTicks": 426,
          "midi": 36,
          "name": "C2",
          "ticks": 241152,
          "time": 117.75,
          "velocity": 0.7874015748031497
        },
        {
          "duration": 0.25,
          "durationTicks": 512,
          "midi": 84,
          "name": "C6",
          "ticks": 241664,
          "time": 118,
          "velocity": 0.7874015748031497
        },
        {
          "duration": 0.2080078125,
          "durationTicks": 426,
          "midi": 36,
          "name": "C2",
          "ticks": 241664,
          "time": 118,
          "velocity": 0.7874015748031497
        },
        {
          "duration": 0.2080078125,
          "durationTicks": 426,
          "midi": 36,
          "name": "C2",
          "ticks": 242176,
          "time": 118.25,
          "velocity": 0.7874015748031497
        },
        {
          "duration": 0.125,
          "durationTicks": 256,
          "midi": 79,
          "name": "G5",
          "ticks": 242432,
          "time": 118.375,
          "velocity": 0.7874015748031497
        },
        {
          "duration": 0.2080078125,
          "durationTicks": 426,
          "midi": 36,
          "name": "C2",
          "ticks": 242688,
          "time": 118.5,
          "velocity": 0.7874015748031497
        },
        {
          "duration": 0.125,
          "durationTicks": 256,
          "midi": 79,
          "name": "G5",
          "ticks": 242944,
          "time": 118.625,
          "velocity": 0.7874015748031497
        },
        {
          "duration": 0.2080078125,
          "durationTicks": 426,
          "midi": 36,
          "name": "C2",
          "ticks": 243200,
          "time": 118.75,
          "velocity": 0.7874015748031497
        },
        {
          "duration": 0.125,
          "durationTicks": 256,
          "midi": 79,
          "name": "G5",
          "ticks": 243456,
          "time": 118.875,
          "velocity": 0.7874015748031497
        },
        {
          "duration": 0.2080078125,
          "durationTicks": 426,
          "midi": 36,
          "name": "C2",
          "ticks": 243712,
          "time": 119,
          "velocity": 0.7874015748031497
        },
        {
          "duration": 0.125,
          "durationTicks": 256,
          "midi": 79,
          "name": "G5",
          "ticks": 243968,
          "time": 119.125,
          "velocity": 0.7874015748031497
        },
        {
          "duration": 0.5,
          "durationTicks": 1024,
          "midi": 80,
          "name": "G#5",
          "ticks": 244224,
          "time": 119.25,
          "velocity": 0.7874015748031497
        },
        {
          "duration": 0.2080078125,
          "durationTicks": 426,
          "midi": 36,
          "name": "C2",
          "ticks": 244224,
          "time": 119.25,
          "velocity": 0.7874015748031497
        },
        {
          "duration": 0.2080078125,
          "durationTicks": 426,
          "midi": 36,
          "name": "C2",
          "ticks": 244736,
          "time": 119.5,
          "velocity": 0.7874015748031497
        },
        {
          "duration": 0.25,
          "durationTicks": 512,
          "midi": 82,
          "name": "A#5",
          "ticks": 245248,
          "time": 119.75,
          "velocity": 0.7874015748031497
        },
        {
          "duration": 0.2080078125,
          "durationTicks": 426,
          "midi": 36,
          "name": "C2",
          "ticks": 245248,
          "time": 119.75,
          "velocity": 0.7874015748031497
        },
        {
          "duration": 0.25,
          "durationTicks": 512,
          "midi": 84,
          "name": "C6",
          "ticks": 245760,
          "time": 120,
          "velocity": 0.7874015748031497
        },
        {
          "duration": 0.2080078125,
          "durationTicks": 426,
          "midi": 36,
          "name": "C2",
          "ticks": 245760,
          "time": 120,
          "velocity": 0.7874015748031497
        },
        {
          "duration": 0.2080078125,
          "durationTicks": 426,
          "midi": 36,
          "name": "C2",
          "ticks": 246272,
          "time": 120.25,
          "velocity": 0.7874015748031497
        },
        {
          "duration": 0.125,
          "durationTicks": 256,
          "midi": 79,
          "name": "G5",
          "ticks": 246528,
          "time": 120.375,
          "velocity": 0.7874015748031497
        },
        {
          "duration": 0.2080078125,
          "durationTicks": 426,
          "midi": 36,
          "name": "C2",
          "ticks": 246784,
          "time": 120.5,
          "velocity": 0.7874015748031497
        },
        {
          "duration": 0.125,
          "durationTicks": 256,
          "midi": 79,
          "name": "G5",
          "ticks": 247040,
          "time": 120.625,
          "velocity": 0.7874015748031497
        },
        {
          "duration": 0.2080078125,
          "durationTicks": 426,
          "midi": 36,
          "name": "C2",
          "ticks": 247296,
          "time": 120.75,
          "velocity": 0.7874015748031497
        },
        {
          "duration": 0.125,
          "durationTicks": 256,
          "midi": 79,
          "name": "G5",
          "ticks": 247552,
          "time": 120.875,
          "velocity": 0.7874015748031497
        },
        {
          "duration": 0.2080078125,
          "durationTicks": 426,
          "midi": 36,
          "name": "C2",
          "ticks": 247808,
          "time": 121,
          "velocity": 0.7874015748031497
        },
        {
          "duration": 0.125,
          "durationTicks": 256,
          "midi": 79,
          "name": "G5",
          "ticks": 248064,
          "time": 121.125,
          "velocity": 0.7874015748031497
        },
        {
          "duration": 0.5,
          "durationTicks": 1024,
          "midi": 80,
          "name": "G#5",
          "ticks": 248320,
          "time": 121.25,
          "velocity": 0.7874015748031497
        },
        {
          "duration": 0.2080078125,
          "durationTicks": 426,
          "midi": 36,
          "name": "C2",
          "ticks": 248320,
          "time": 121.25,
          "velocity": 0.7874015748031497
        },
        {
          "duration": 0.2080078125,
          "durationTicks": 426,
          "midi": 36,
          "name": "C2",
          "ticks": 248832,
          "time": 121.5,
          "velocity": 0.7874015748031497
        },
        {
          "duration": 0.25,
          "durationTicks": 512,
          "midi": 82,
          "name": "A#5",
          "ticks": 249344,
          "time": 121.75,
          "velocity": 0.7874015748031497
        },
        {
          "duration": 0.2080078125,
          "durationTicks": 426,
          "midi": 36,
          "name": "C2",
          "ticks": 249344,
          "time": 121.75,
          "velocity": 0.7874015748031497
        },
        {
          "duration": 0.25,
          "durationTicks": 512,
          "midi": 84,
          "name": "C6",
          "ticks": 249856,
          "time": 122,
          "velocity": 0.7874015748031497
        },
        {
          "duration": 0.2080078125,
          "durationTicks": 426,
          "midi": 36,
          "name": "C2",
          "ticks": 249856,
          "time": 122,
          "velocity": 0.7874015748031497
        },
        {
          "duration": 0.25,
          "durationTicks": 512,
          "midi": 63,
          "name": "D#4",
          "ticks": 253952,
          "time": 124,
          "velocity": 0.7874015748031497
        },
        {
          "duration": 0.25,
          "durationTicks": 512,
          "midi": 67,
          "name": "G4",
          "ticks": 253952,
          "time": 124,
          "velocity": 0.5039370078740157
        },
        {
          "duration": 0.25,
          "durationTicks": 512,
          "midi": 72,
          "name": "C5",
          "ticks": 253952,
          "time": 124,
          "velocity": 0.5039370078740157
        },
        {
          "duration": 0.25,
          "durationTicks": 512,
          "midi": 36,
          "name": "C2",
          "ticks": 253952,
          "time": 124,
          "velocity": 0.7874015748031497
        },
        {
          "duration": 0.25,
          "durationTicks": 512,
          "midi": 72,
          "name": "C5",
          "ticks": 254464,
          "time": 124.25,
          "velocity": 0.7874015748031497
        },
        {
          "duration": 0.25,
          "durationTicks": 512,
          "midi": 36,
          "name": "C2",
          "ticks": 254464,
          "time": 124.25,
          "velocity": 0.7874015748031497
        },
        {
          "duration": 0.25,
          "durationTicks": 512,
          "midi": 72,
          "name": "C5",
          "ticks": 254976,
          "time": 124.5,
          "velocity": 0.7874015748031497
        },
        {
          "duration": 0.25,
          "durationTicks": 512,
          "midi": 36,
          "name": "C2",
          "ticks": 254976,
          "time": 124.5,
          "velocity": 0.7874015748031497
        },
        {
          "duration": 0.125,
          "durationTicks": 256,
          "midi": 72,
          "name": "C5",
          "ticks": 255488,
          "time": 124.75,
          "velocity": 0.7874015748031497
        },
        {
          "duration": 0.125,
          "durationTicks": 256,
          "midi": 36,
          "name": "C2",
          "ticks": 255488,
          "time": 124.75,
          "velocity": 0.7874015748031497
        },
        {
          "duration": 0.25,
          "durationTicks": 512,
          "midi": 72,
          "name": "C5",
          "ticks": 255744,
          "time": 124.875,
          "velocity": 0.7874015748031497
        },
        {
          "duration": 0.25,
          "durationTicks": 512,
          "midi": 36,
          "name": "C2",
          "ticks": 255744,
          "time": 124.875,
          "velocity": 0.7874015748031497
        },
        {
          "duration": 0.125,
          "durationTicks": 256,
          "midi": 72,
          "name": "C5",
          "ticks": 256256,
          "time": 125.125,
          "velocity": 0.7874015748031497
        },
        {
          "duration": 0.125,
          "durationTicks": 256,
          "midi": 36,
          "name": "C2",
          "ticks": 256256,
          "time": 125.125,
          "velocity": 0.7874015748031497
        },
        {
          "duration": 0.25,
          "durationTicks": 512,
          "midi": 72,
          "name": "C5",
          "ticks": 256512,
          "time": 125.25,
          "velocity": 0.7874015748031497
        },
        {
          "duration": 0.25,
          "durationTicks": 512,
          "midi": 36,
          "name": "C2",
          "ticks": 256512,
          "time": 125.25,
          "velocity": 0.7874015748031497
        },
        {
          "duration": 0.375,
          "durationTicks": 768,
          "midi": 63,
          "name": "D#4",
          "ticks": 257024,
          "time": 125.5,
          "velocity": 0.7874015748031497
        },
        {
          "duration": 0.5,
          "durationTicks": 1024,
          "midi": 67,
          "name": "G4",
          "ticks": 257024,
          "time": 125.5,
          "velocity": 0.5039370078740157
        },
        {
          "duration": 0.5,
          "durationTicks": 1024,
          "midi": 72,
          "name": "C5",
          "ticks": 257024,
          "time": 125.5,
          "velocity": 0.5039370078740157
        },
        {
          "duration": 0.25,
          "durationTicks": 512,
          "midi": 36,
          "name": "C2",
          "ticks": 257024,
          "time": 125.5,
          "velocity": 0.7874015748031497
        },
        {
          "duration": 0.25,
          "durationTicks": 512,
          "midi": 36,
          "name": "C2",
          "ticks": 257536,
          "time": 125.75,
          "velocity": 0.7874015748031497
        },
        {
          "duration": 0.25,
          "durationTicks": 512,
          "midi": 67,
          "name": "G4",
          "ticks": 258048,
          "time": 126,
          "velocity": 0.7874015748031497
        },
        {
          "duration": 0.25,
          "durationTicks": 512,
          "midi": 70,
          "name": "A#4",
          "ticks": 258048,
          "time": 126,
          "velocity": 0.5039370078740157
        },
        {
          "duration": 0.25,
          "durationTicks": 512,
          "midi": 75,
          "name": "D#5",
          "ticks": 258048,
          "time": 126,
          "velocity": 0.5039370078740157
        },
        {
          "duration": 0.25,
          "durationTicks": 512,
          "midi": 39,
          "name": "D#2",
          "ticks": 258048,
          "time": 126,
          "velocity": 0.7874015748031497
        },
        {
          "duration": 0.25,
          "durationTicks": 512,
          "midi": 75,
          "name": "D#5",
          "ticks": 258560,
          "time": 126.25,
          "velocity": 0.7874015748031497
        },
        {
          "duration": 0.25,
          "durationTicks": 512,
          "midi": 39,
          "name": "D#2",
          "ticks": 258560,
          "time": 126.25,
          "velocity": 0.7874015748031497
        },
        {
          "duration": 0.25,
          "durationTicks": 512,
          "midi": 75,
          "name": "D#5",
          "ticks": 259072,
          "time": 126.5,
          "velocity": 0.7874015748031497
        },
        {
          "duration": 0.25,
          "durationTicks": 512,
          "midi": 39,
          "name": "D#2",
          "ticks": 259072,
          "time": 126.5,
          "velocity": 0.7874015748031497
        },
        {
          "duration": 0.125,
          "durationTicks": 256,
          "midi": 75,
          "name": "D#5",
          "ticks": 259584,
          "time": 126.75,
          "velocity": 0.7874015748031497
        },
        {
          "duration": 0.125,
          "durationTicks": 256,
          "midi": 39,
          "name": "D#2",
          "ticks": 259584,
          "time": 126.75,
          "velocity": 0.7874015748031497
        },
        {
          "duration": 0.25,
          "durationTicks": 512,
          "midi": 77,
          "name": "F5",
          "ticks": 259840,
          "time": 126.875,
          "velocity": 0.7874015748031497
        },
        {
          "duration": 0.25,
          "durationTicks": 512,
          "midi": 41,
          "name": "F2",
          "ticks": 259840,
          "time": 126.875,
          "velocity": 0.7874015748031497
        },
        {
          "duration": 0.125,
          "durationTicks": 256,
          "midi": 70,
          "name": "A#4",
          "ticks": 260096,
          "time": 127,
          "velocity": 0.7874015748031497
        },
        {
          "duration": 0.125,
          "durationTicks": 256,
          "midi": 74,
          "name": "D5",
          "ticks": 260096,
          "time": 127,
          "velocity": 0.5039370078740157
        },
        {
          "duration": 0.125,
          "durationTicks": 256,
          "midi": 77,
          "name": "F5",
          "ticks": 260352,
          "time": 127.125,
          "velocity": 0.7874015748031497
        },
        {
          "duration": 0.125,
          "durationTicks": 256,
          "midi": 41,
          "name": "F2",
          "ticks": 260352,
          "time": 127.125,
          "velocity": 0.7874015748031497
        },
        {
          "duration": 0.125,
          "durationTicks": 256,
          "midi": 77,
          "name": "F5",
          "ticks": 260608,
          "time": 127.25,
          "velocity": 0.7874015748031497
        },
        {
          "duration": 0.25,
          "durationTicks": 512,
          "midi": 41,
          "name": "F2",
          "ticks": 260608,
          "time": 127.25,
          "velocity": 0.7874015748031497
        },
        {
          "duration": 0.375,
          "durationTicks": 768,
          "midi": 77,
          "name": "F5",
          "ticks": 261120,
          "time": 127.5,
          "velocity": 0.7874015748031497
        },
        {
          "duration": 0.25,
          "durationTicks": 512,
          "midi": 41,
          "name": "F2",
          "ticks": 261120,
          "time": 127.5,
          "velocity": 0.7874015748031497
        },
        {
          "duration": 0.25,
          "durationTicks": 512,
          "midi": 41,
          "name": "F2",
          "ticks": 261632,
          "time": 127.75,
          "velocity": 0.7874015748031497
        },
        {
          "duration": 0.25,
          "durationTicks": 512,
          "midi": 63,
          "name": "D#4",
          "ticks": 262144,
          "time": 128,
          "velocity": 0.7874015748031497
        },
        {
          "duration": 0.25,
          "durationTicks": 512,
          "midi": 67,
          "name": "G4",
          "ticks": 262144,
          "time": 128,
          "velocity": 0.5039370078740157
        },
        {
          "duration": 0.25,
          "durationTicks": 512,
          "midi": 72,
          "name": "C5",
          "ticks": 262144,
          "time": 128,
          "velocity": 0.5039370078740157
        },
        {
          "duration": 0.25,
          "durationTicks": 512,
          "midi": 36,
          "name": "C2",
          "ticks": 262144,
          "time": 128,
          "velocity": 0.7874015748031497
        },
        {
          "duration": 0.25,
          "durationTicks": 512,
          "midi": 72,
          "name": "C5",
          "ticks": 262656,
          "time": 128.25,
          "velocity": 0.7874015748031497
        },
        {
          "duration": 0.25,
          "durationTicks": 512,
          "midi": 36,
          "name": "C2",
          "ticks": 262656,
          "time": 128.25,
          "velocity": 0.7874015748031497
        },
        {
          "duration": 0.25,
          "durationTicks": 512,
          "midi": 72,
          "name": "C5",
          "ticks": 263168,
          "time": 128.5,
          "velocity": 0.7874015748031497
        },
        {
          "duration": 0.25,
          "durationTicks": 512,
          "midi": 36,
          "name": "C2",
          "ticks": 263168,
          "time": 128.5,
          "velocity": 0.7874015748031497
        },
        {
          "duration": 0.125,
          "durationTicks": 256,
          "midi": 72,
          "name": "C5",
          "ticks": 263680,
          "time": 128.75,
          "velocity": 0.7874015748031497
        },
        {
          "duration": 0.125,
          "durationTicks": 256,
          "midi": 36,
          "name": "C2",
          "ticks": 263680,
          "time": 128.75,
          "velocity": 0.7874015748031497
        },
        {
          "duration": 0.25,
          "durationTicks": 512,
          "midi": 72,
          "name": "C5",
          "ticks": 263936,
          "time": 128.875,
          "velocity": 0.7874015748031497
        },
        {
          "duration": 0.25,
          "durationTicks": 512,
          "midi": 36,
          "name": "C2",
          "ticks": 263936,
          "time": 128.875,
          "velocity": 0.7874015748031497
        },
        {
          "duration": 0.125,
          "durationTicks": 256,
          "midi": 72,
          "name": "C5",
          "ticks": 264448,
          "time": 129.125,
          "velocity": 0.7874015748031497
        },
        {
          "duration": 0.125,
          "durationTicks": 256,
          "midi": 36,
          "name": "C2",
          "ticks": 264448,
          "time": 129.125,
          "velocity": 0.7874015748031497
        },
        {
          "duration": 0.25,
          "durationTicks": 512,
          "midi": 72,
          "name": "C5",
          "ticks": 264704,
          "time": 129.25,
          "velocity": 0.7874015748031497
        },
        {
          "duration": 0.25,
          "durationTicks": 512,
          "midi": 36,
          "name": "C2",
          "ticks": 264704,
          "time": 129.25,
          "velocity": 0.7874015748031497
        },
        {
          "duration": 0.375,
          "durationTicks": 768,
          "midi": 63,
          "name": "D#4",
          "ticks": 265216,
          "time": 129.5,
          "velocity": 0.7874015748031497
        },
        {
          "duration": 0.5,
          "durationTicks": 1024,
          "midi": 67,
          "name": "G4",
          "ticks": 265216,
          "time": 129.5,
          "velocity": 0.5039370078740157
        },
        {
          "duration": 0.5,
          "durationTicks": 1024,
          "midi": 72,
          "name": "C5",
          "ticks": 265216,
          "time": 129.5,
          "velocity": 0.5039370078740157
        },
        {
          "duration": 0.25,
          "durationTicks": 512,
          "midi": 36,
          "name": "C2",
          "ticks": 265216,
          "time": 129.5,
          "velocity": 0.7874015748031497
        },
        {
          "duration": 0.25,
          "durationTicks": 512,
          "midi": 36,
          "name": "C2",
          "ticks": 265728,
          "time": 129.75,
          "velocity": 0.7874015748031497
        },
        {
          "duration": 0.25,
          "durationTicks": 512,
          "midi": 67,
          "name": "G4",
          "ticks": 266240,
          "time": 130,
          "velocity": 0.7874015748031497
        },
        {
          "duration": 0.25,
          "durationTicks": 512,
          "midi": 70,
          "name": "A#4",
          "ticks": 266240,
          "time": 130,
          "velocity": 0.5039370078740157
        },
        {
          "duration": 0.25,
          "durationTicks": 512,
          "midi": 75,
          "name": "D#5",
          "ticks": 266240,
          "time": 130,
          "velocity": 0.5039370078740157
        },
        {
          "duration": 0.25,
          "durationTicks": 512,
          "midi": 39,
          "name": "D#2",
          "ticks": 266240,
          "time": 130,
          "velocity": 0.7874015748031497
        },
        {
          "duration": 0.25,
          "durationTicks": 512,
          "midi": 75,
          "name": "D#5",
          "ticks": 266752,
          "time": 130.25,
          "velocity": 0.7874015748031497
        },
        {
          "duration": 0.25,
          "durationTicks": 512,
          "midi": 39,
          "name": "D#2",
          "ticks": 266752,
          "time": 130.25,
          "velocity": 0.7874015748031497
        },
        {
          "duration": 0.25,
          "durationTicks": 512,
          "midi": 75,
          "name": "D#5",
          "ticks": 267264,
          "time": 130.5,
          "velocity": 0.7874015748031497
        },
        {
          "duration": 0.25,
          "durationTicks": 512,
          "midi": 39,
          "name": "D#2",
          "ticks": 267264,
          "time": 130.5,
          "velocity": 0.7874015748031497
        },
        {
          "duration": 0.125,
          "durationTicks": 256,
          "midi": 75,
          "name": "D#5",
          "ticks": 267776,
          "time": 130.75,
          "velocity": 0.7874015748031497
        },
        {
          "duration": 0.125,
          "durationTicks": 256,
          "midi": 39,
          "name": "D#2",
          "ticks": 267776,
          "time": 130.75,
          "velocity": 0.7874015748031497
        },
        {
          "duration": 0.25,
          "durationTicks": 512,
          "midi": 77,
          "name": "F5",
          "ticks": 268032,
          "time": 130.875,
          "velocity": 0.7874015748031497
        },
        {
          "duration": 0.25,
          "durationTicks": 512,
          "midi": 34,
          "name": "A#1",
          "ticks": 268032,
          "time": 130.875,
          "velocity": 0.7874015748031497
        },
        {
          "duration": 0.125,
          "durationTicks": 256,
          "midi": 70,
          "name": "A#4",
          "ticks": 268288,
          "time": 131,
          "velocity": 0.7874015748031497
        },
        {
          "duration": 0.125,
          "durationTicks": 256,
          "midi": 74,
          "name": "D5",
          "ticks": 268288,
          "time": 131,
          "velocity": 0.5039370078740157
        },
        {
          "duration": 0.125,
          "durationTicks": 256,
          "midi": 77,
          "name": "F5",
          "ticks": 268544,
          "time": 131.125,
          "velocity": 0.7874015748031497
        },
        {
          "duration": 0.125,
          "durationTicks": 256,
          "midi": 34,
          "name": "A#1",
          "ticks": 268544,
          "time": 131.125,
          "velocity": 0.7874015748031497
        },
        {
          "duration": 0.125,
          "durationTicks": 256,
          "midi": 77,
          "name": "F5",
          "ticks": 268800,
          "time": 131.25,
          "velocity": 0.7874015748031497
        },
        {
          "duration": 0.25,
          "durationTicks": 512,
          "midi": 34,
          "name": "A#1",
          "ticks": 268800,
          "time": 131.25,
          "velocity": 0.7874015748031497
        },
        {
          "duration": 0.375,
          "durationTicks": 768,
          "midi": 77,
          "name": "F5",
          "ticks": 269312,
          "time": 131.5,
          "velocity": 0.7874015748031497
        },
        {
          "duration": 0.25,
          "durationTicks": 512,
          "midi": 34,
          "name": "A#1",
          "ticks": 269312,
          "time": 131.5,
          "velocity": 0.7874015748031497
        },
        {
          "duration": 0.25,
          "durationTicks": 512,
          "midi": 34,
          "name": "A#1",
          "ticks": 269824,
          "time": 131.75,
          "velocity": 0.7874015748031497
        },
        {
          "duration": 0.25,
          "durationTicks": 512,
          "midi": 63,
          "name": "D#4",
          "ticks": 270336,
          "time": 132,
          "velocity": 0.7874015748031497
        },
        {
          "duration": 0.25,
          "durationTicks": 512,
          "midi": 67,
          "name": "G4",
          "ticks": 270336,
          "time": 132,
          "velocity": 0.5039370078740157
        },
        {
          "duration": 0.25,
          "durationTicks": 512,
          "midi": 72,
          "name": "C5",
          "ticks": 270336,
          "time": 132,
          "velocity": 0.5039370078740157
        },
        {
          "duration": 0.25,
          "durationTicks": 512,
          "midi": 36,
          "name": "C2",
          "ticks": 270336,
          "time": 132,
          "velocity": 0.7874015748031497
        },
        {
          "duration": 0.25,
          "durationTicks": 512,
          "midi": 72,
          "name": "C5",
          "ticks": 270848,
          "time": 132.25,
          "velocity": 0.7874015748031497
        },
        {
          "duration": 0.25,
          "durationTicks": 512,
          "midi": 36,
          "name": "C2",
          "ticks": 270848,
          "time": 132.25,
          "velocity": 0.7874015748031497
        },
        {
          "duration": 0.25,
          "durationTicks": 512,
          "midi": 72,
          "name": "C5",
          "ticks": 271360,
          "time": 132.5,
          "velocity": 0.7874015748031497
        },
        {
          "duration": 0.25,
          "durationTicks": 512,
          "midi": 36,
          "name": "C2",
          "ticks": 271360,
          "time": 132.5,
          "velocity": 0.7874015748031497
        },
        {
          "duration": 0.125,
          "durationTicks": 256,
          "midi": 72,
          "name": "C5",
          "ticks": 271872,
          "time": 132.75,
          "velocity": 0.7874015748031497
        },
        {
          "duration": 0.125,
          "durationTicks": 256,
          "midi": 36,
          "name": "C2",
          "ticks": 271872,
          "time": 132.75,
          "velocity": 0.7874015748031497
        },
        {
          "duration": 0.25,
          "durationTicks": 512,
          "midi": 72,
          "name": "C5",
          "ticks": 272128,
          "time": 132.875,
          "velocity": 0.7874015748031497
        },
        {
          "duration": 0.25,
          "durationTicks": 512,
          "midi": 36,
          "name": "C2",
          "ticks": 272128,
          "time": 132.875,
          "velocity": 0.7874015748031497
        },
        {
          "duration": 0.125,
          "durationTicks": 256,
          "midi": 72,
          "name": "C5",
          "ticks": 272640,
          "time": 133.125,
          "velocity": 0.7874015748031497
        },
        {
          "duration": 0.125,
          "durationTicks": 256,
          "midi": 36,
          "name": "C2",
          "ticks": 272640,
          "time": 133.125,
          "velocity": 0.7874015748031497
        },
        {
          "duration": 0.25,
          "durationTicks": 512,
          "midi": 72,
          "name": "C5",
          "ticks": 272896,
          "time": 133.25,
          "velocity": 0.7874015748031497
        },
        {
          "duration": 0.25,
          "durationTicks": 512,
          "midi": 36,
          "name": "C2",
          "ticks": 272896,
          "time": 133.25,
          "velocity": 0.7874015748031497
        },
        {
          "duration": 0.375,
          "durationTicks": 768,
          "midi": 63,
          "name": "D#4",
          "ticks": 273408,
          "time": 133.5,
          "velocity": 0.7874015748031497
        },
        {
          "duration": 0.5,
          "durationTicks": 1024,
          "midi": 67,
          "name": "G4",
          "ticks": 273408,
          "time": 133.5,
          "velocity": 0.5039370078740157
        },
        {
          "duration": 0.5,
          "durationTicks": 1024,
          "midi": 72,
          "name": "C5",
          "ticks": 273408,
          "time": 133.5,
          "velocity": 0.5039370078740157
        },
        {
          "duration": 0.25,
          "durationTicks": 512,
          "midi": 36,
          "name": "C2",
          "ticks": 273408,
          "time": 133.5,
          "velocity": 0.7874015748031497
        },
        {
          "duration": 0.25,
          "durationTicks": 512,
          "midi": 36,
          "name": "C2",
          "ticks": 273920,
          "time": 133.75,
          "velocity": 0.7874015748031497
        },
        {
          "duration": 0.25,
          "durationTicks": 512,
          "midi": 67,
          "name": "G4",
          "ticks": 274432,
          "time": 134,
          "velocity": 0.7874015748031497
        },
        {
          "duration": 0.25,
          "durationTicks": 512,
          "midi": 70,
          "name": "A#4",
          "ticks": 274432,
          "time": 134,
          "velocity": 0.5039370078740157
        },
        {
          "duration": 0.25,
          "durationTicks": 512,
          "midi": 75,
          "name": "D#5",
          "ticks": 274432,
          "time": 134,
          "velocity": 0.5039370078740157
        },
        {
          "duration": 0.25,
          "durationTicks": 512,
          "midi": 39,
          "name": "D#2",
          "ticks": 274432,
          "time": 134,
          "velocity": 0.7874015748031497
        },
        {
          "duration": 0.25,
          "durationTicks": 512,
          "midi": 75,
          "name": "D#5",
          "ticks": 274944,
          "time": 134.25,
          "velocity": 0.7874015748031497
        },
        {
          "duration": 0.25,
          "durationTicks": 512,
          "midi": 39,
          "name": "D#2",
          "ticks": 274944,
          "time": 134.25,
          "velocity": 0.7874015748031497
        },
        {
          "duration": 0.25,
          "durationTicks": 512,
          "midi": 75,
          "name": "D#5",
          "ticks": 275456,
          "time": 134.5,
          "velocity": 0.7874015748031497
        },
        {
          "duration": 0.25,
          "durationTicks": 512,
          "midi": 39,
          "name": "D#2",
          "ticks": 275456,
          "time": 134.5,
          "velocity": 0.7874015748031497
        },
        {
          "duration": 0.125,
          "durationTicks": 256,
          "midi": 75,
          "name": "D#5",
          "ticks": 275968,
          "time": 134.75,
          "velocity": 0.7874015748031497
        },
        {
          "duration": 0.125,
          "durationTicks": 256,
          "midi": 39,
          "name": "D#2",
          "ticks": 275968,
          "time": 134.75,
          "velocity": 0.7874015748031497
        },
        {
          "duration": 0.25,
          "durationTicks": 512,
          "midi": 77,
          "name": "F5",
          "ticks": 276224,
          "time": 134.875,
          "velocity": 0.7874015748031497
        },
        {
          "duration": 0.25,
          "durationTicks": 512,
          "midi": 41,
          "name": "F2",
          "ticks": 276224,
          "time": 134.875,
          "velocity": 0.7874015748031497
        },
        {
          "duration": 0.125,
          "durationTicks": 256,
          "midi": 70,
          "name": "A#4",
          "ticks": 276480,
          "time": 135,
          "velocity": 0.7874015748031497
        },
        {
          "duration": 0.125,
          "durationTicks": 256,
          "midi": 74,
          "name": "D5",
          "ticks": 276480,
          "time": 135,
          "velocity": 0.5039370078740157
        },
        {
          "duration": 0.125,
          "durationTicks": 256,
          "midi": 77,
          "name": "F5",
          "ticks": 276736,
          "time": 135.125,
          "velocity": 0.7874015748031497
        },
        {
          "duration": 0.125,
          "durationTicks": 256,
          "midi": 41,
          "name": "F2",
          "ticks": 276736,
          "time": 135.125,
          "velocity": 0.7874015748031497
        },
        {
          "duration": 0.125,
          "durationTicks": 256,
          "midi": 77,
          "name": "F5",
          "ticks": 276992,
          "time": 135.25,
          "velocity": 0.7874015748031497
        },
        {
          "duration": 0.25,
          "durationTicks": 512,
          "midi": 41,
          "name": "F2",
          "ticks": 276992,
          "time": 135.25,
          "velocity": 0.7874015748031497
        },
        {
          "duration": 0.5,
          "durationTicks": 1024,
          "midi": 74,
          "name": "D5",
          "ticks": 277504,
          "time": 135.5,
          "velocity": 0.7874015748031497
        },
        {
          "duration": 0.5,
          "durationTicks": 1024,
          "midi": 77,
          "name": "F5",
          "ticks": 277504,
          "time": 135.5,
          "velocity": 0.7874015748031497
        },
        {
          "duration": 0.5,
          "durationTicks": 1024,
          "midi": 81,
          "name": "A5",
          "ticks": 277504,
          "time": 135.5,
          "velocity": 0.7874015748031497
        },
        {
          "duration": 0.25,
          "durationTicks": 512,
          "midi": 41,
          "name": "F2",
          "ticks": 277504,
          "time": 135.5,
          "velocity": 0.7874015748031497
        },
        {
          "duration": 0.25,
          "durationTicks": 512,
          "midi": 41,
          "name": "F2",
          "ticks": 278016,
          "time": 135.75,
          "velocity": 0.7874015748031497
        },
        {
          "duration": 0.25,
          "durationTicks": 512,
          "midi": 72,
          "name": "C5",
          "ticks": 278528,
          "time": 136,
          "velocity": 0.7874015748031497
        },
        {
          "duration": 0.25,
          "durationTicks": 512,
          "midi": 75,
          "name": "D#5",
          "ticks": 278528,
          "time": 136,
          "velocity": 0.7874015748031497
        },
        {
          "duration": 0.25,
          "durationTicks": 512,
          "midi": 80,
          "name": "G#5",
          "ticks": 278528,
          "time": 136,
          "velocity": 0.7874015748031497
        },
        {
          "duration": 0.25,
          "durationTicks": 512,
          "midi": 32,
          "name": "G#1",
          "ticks": 278528,
          "time": 136,
          "velocity": 0.7874015748031497
        },
        {
          "duration": 0.25,
          "durationTicks": 512,
          "midi": 75,
          "name": "D#5",
          "ticks": 279040,
          "time": 136.25,
          "velocity": 0.7874015748031497
        },
        {
          "duration": 0.25,
          "durationTicks": 512,
          "midi": 32,
          "name": "G#1",
          "ticks": 279040,
          "time": 136.25,
          "velocity": 0.7874015748031497
        },
        {
          "duration": 0.25,
          "durationTicks": 512,
          "midi": 75,
          "name": "D#5",
          "ticks": 279552,
          "time": 136.5,
          "velocity": 0.7874015748031497
        },
        {
          "duration": 0.25,
          "durationTicks": 512,
          "midi": 32,
          "name": "G#1",
          "ticks": 279552,
          "time": 136.5,
          "velocity": 0.7874015748031497
        },
        {
          "duration": 0.125,
          "durationTicks": 256,
          "midi": 75,
          "name": "D#5",
          "ticks": 280064,
          "time": 136.75,
          "velocity": 0.7874015748031497
        },
        {
          "duration": 0.125,
          "durationTicks": 256,
          "midi": 32,
          "name": "G#1",
          "ticks": 280064,
          "time": 136.75,
          "velocity": 0.7874015748031497
        },
        {
          "duration": 0.25,
          "durationTicks": 512,
          "midi": 77,
          "name": "F5",
          "ticks": 280320,
          "time": 136.875,
          "velocity": 0.7874015748031497
        },
        {
          "duration": 0.25,
          "durationTicks": 512,
          "midi": 34,
          "name": "A#1",
          "ticks": 280320,
          "time": 136.875,
          "velocity": 0.7874015748031497
        },
        {
          "duration": 0.125,
          "durationTicks": 256,
          "midi": 70,
          "name": "A#4",
          "ticks": 280576,
          "time": 137,
          "velocity": 0.7874015748031497
        },
        {
          "duration": 0.125,
          "durationTicks": 256,
          "midi": 74,
          "name": "D5",
          "ticks": 280576,
          "time": 137,
          "velocity": 0.7874015748031497
        },
        {
          "duration": 0.125,
          "durationTicks": 256,
          "midi": 77,
          "name": "F5",
          "ticks": 280832,
          "time": 137.125,
          "velocity": 0.7874015748031497
        },
        {
          "duration": 0.125,
          "durationTicks": 256,
          "midi": 34,
          "name": "A#1",
          "ticks": 280832,
          "time": 137.125,
          "velocity": 0.7874015748031497
        },
        {
          "duration": 0.25,
          "durationTicks": 512,
          "midi": 77,
          "name": "F5",
          "ticks": 281088,
          "time": 137.25,
          "velocity": 0.7874015748031497
        },
        {
          "duration": 0.25,
          "durationTicks": 512,
          "midi": 34,
          "name": "A#1",
          "ticks": 281088,
          "time": 137.25,
          "velocity": 0.7874015748031497
        },
        {
          "duration": 0.25,
          "durationTicks": 512,
          "midi": 75,
          "name": "D#5",
          "ticks": 281600,
          "time": 137.5,
          "velocity": 0.7874015748031497
        },
        {
          "duration": 0.25,
          "durationTicks": 512,
          "midi": 34,
          "name": "A#1",
          "ticks": 281600,
          "time": 137.5,
          "velocity": 0.7874015748031497
        },
        {
          "duration": 0.25,
          "durationTicks": 512,
          "midi": 77,
          "name": "F5",
          "ticks": 282112,
          "time": 137.75,
          "velocity": 0.7874015748031497
        },
        {
          "duration": 0.25,
          "durationTicks": 512,
          "midi": 34,
          "name": "A#1",
          "ticks": 282112,
          "time": 137.75,
          "velocity": 0.7874015748031497
        },
        {
          "duration": 0.25,
          "durationTicks": 512,
          "midi": 63,
          "name": "D#4",
          "ticks": 282624,
          "time": 138,
          "velocity": 0.7874015748031497
        },
        {
          "duration": 0.25,
          "durationTicks": 512,
          "midi": 67,
          "name": "G4",
          "ticks": 282624,
          "time": 138,
          "velocity": 0.5039370078740157
        },
        {
          "duration": 0.25,
          "durationTicks": 512,
          "midi": 72,
          "name": "C5",
          "ticks": 282624,
          "time": 138,
          "velocity": 0.5039370078740157
        },
        {
          "duration": 0.25,
          "durationTicks": 512,
          "midi": 75,
          "name": "D#5",
          "ticks": 282624,
          "time": 138,
          "velocity": 0.5039370078740157
        },
        {
          "duration": 0.25,
          "durationTicks": 512,
          "midi": 36,
          "name": "C2",
          "ticks": 282624,
          "time": 138,
          "velocity": 0.7874015748031497
        },
        {
          "duration": 0.25,
          "durationTicks": 512,
          "midi": 72,
          "name": "C5",
          "ticks": 283136,
          "time": 138.25,
          "velocity": 0.7874015748031497
        },
        {
          "duration": 0.25,
          "durationTicks": 512,
          "midi": 36,
          "name": "C2",
          "ticks": 283136,
          "time": 138.25,
          "velocity": 0.7874015748031497
        },
        {
          "duration": 0.25,
          "durationTicks": 512,
          "midi": 72,
          "name": "C5",
          "ticks": 283648,
          "time": 138.5,
          "velocity": 0.7874015748031497
        },
        {
          "duration": 0.25,
          "durationTicks": 512,
          "midi": 36,
          "name": "C2",
          "ticks": 283648,
          "time": 138.5,
          "velocity": 0.7874015748031497
        },
        {
          "duration": 0.125,
          "durationTicks": 256,
          "midi": 70,
          "name": "A#4",
          "ticks": 284160,
          "time": 138.75,
          "velocity": 0.7874015748031497
        },
        {
          "duration": 0.125,
          "durationTicks": 256,
          "midi": 36,
          "name": "C2",
          "ticks": 284160,
          "time": 138.75,
          "velocity": 0.7874015748031497
        },
        {
          "duration": 0.625,
          "durationTicks": 1280,
          "midi": 72,
          "name": "C5",
          "ticks": 284416,
          "time": 138.875,
          "velocity": 0.7874015748031497
        },
        {
          "duration": 0.25,
          "durationTicks": 512,
          "midi": 36,
          "name": "C2",
          "ticks": 284416,
          "time": 138.875,
          "velocity": 0.7874015748031497
        },
        {
          "duration": 0.5,
          "durationTicks": 1024,
          "midi": 63,
          "name": "D#4",
          "ticks": 284672,
          "time": 139,
          "velocity": 0.7874015748031497
        },
        {
          "duration": 0.5,
          "durationTicks": 1024,
          "midi": 67,
          "name": "G4",
          "ticks": 284672,
          "time": 139,
          "velocity": 0.7874015748031497
        },
        {
          "duration": 0.5,
          "durationTicks": 1024,
          "midi": 70,
          "name": "A#4",
          "ticks": 284672,
          "time": 139,
          "velocity": 0.7874015748031497
        },
        {
          "duration": 0.125,
          "durationTicks": 256,
          "midi": 36,
          "name": "C2",
          "ticks": 284928,
          "time": 139.125,
          "velocity": 0.7874015748031497
        },
        {
          "duration": 0.25,
          "durationTicks": 512,
          "midi": 36,
          "name": "C2",
          "ticks": 285184,
          "time": 139.25,
          "velocity": 0.7874015748031497
        },
        {
          "duration": 0.5,
          "durationTicks": 1024,
          "midi": 63,
          "name": "D#4",
          "ticks": 285696,
          "time": 139.5,
          "velocity": 0.7874015748031497
        },
        {
          "duration": 0.5,
          "durationTicks": 1024,
          "midi": 67,
          "name": "G4",
          "ticks": 285696,
          "time": 139.5,
          "velocity": 0.7874015748031497
        },
        {
          "duration": 0.5,
          "durationTicks": 1024,
          "midi": 72,
          "name": "C5",
          "ticks": 285696,
          "time": 139.5,
          "velocity": 0.7874015748031497
        },
        {
          "duration": 0.25,
          "durationTicks": 512,
          "midi": 36,
          "name": "C2",
          "ticks": 285696,
          "time": 139.5,
          "velocity": 0.7874015748031497
        },
        {
          "duration": 0.25,
          "durationTicks": 512,
          "midi": 36,
          "name": "C2",
          "ticks": 286208,
          "time": 139.75,
          "velocity": 0.7874015748031497
        },
        {
          "duration": 0.5,
          "durationTicks": 1024,
          "midi": 68,
          "name": "G#4",
          "ticks": 286720,
          "time": 140,
          "velocity": 0.7874015748031497
        },
        {
          "duration": 0.5,
          "durationTicks": 1024,
          "midi": 72,
          "name": "C5",
          "ticks": 286720,
          "time": 140,
          "velocity": 0.5039370078740157
        },
        {
          "duration": 0.5,
          "durationTicks": 1024,
          "midi": 80,
          "name": "G#5",
          "ticks": 286720,
          "time": 140,
          "velocity": 0.5039370078740157
        },
        {
          "duration": 0.25,
          "durationTicks": 512,
          "midi": 32,
          "name": "G#1",
          "ticks": 286720,
          "time": 140,
          "velocity": 0.7874015748031497
        },
        {
          "duration": 0.25,
          "durationTicks": 512,
          "midi": 32,
          "name": "G#1",
          "ticks": 287232,
          "time": 140.25,
          "velocity": 0.7874015748031497
        },
        {
          "duration": 0.25,
          "durationTicks": 512,
          "midi": 32,
          "name": "G#1",
          "ticks": 287744,
          "time": 140.5,
          "velocity": 0.7874015748031497
        },
        {
          "duration": 0.75,
          "durationTicks": 1536,
          "midi": 65,
          "name": "F4",
          "ticks": 288256,
          "time": 140.75,
          "velocity": 0.7874015748031497
        },
        {
          "duration": 0.75,
          "durationTicks": 1536,
          "midi": 70,
          "name": "A#4",
          "ticks": 288256,
          "time": 140.75,
          "velocity": 0.5039370078740157
        },
        {
          "duration": 0.75,
          "durationTicks": 1536,
          "midi": 74,
          "name": "D5",
          "ticks": 288256,
          "time": 140.75,
          "velocity": 0.5039370078740157
        },
        {
          "duration": 0.75,
          "durationTicks": 1536,
          "midi": 77,
          "name": "F5",
          "ticks": 288256,
          "time": 140.75,
          "velocity": 0.5039370078740157
        },
        {
          "duration": 0.125,
          "durationTicks": 256,
          "midi": 32,
          "name": "G#1",
          "ticks": 288256,
          "time": 140.75,
          "velocity": 0.7874015748031497
        },
        {
          "duration": 0.25,
          "durationTicks": 512,
          "midi": 34,
          "name": "A#1",
          "ticks": 288512,
          "time": 140.875,
          "velocity": 0.7874015748031497
        },
        {
          "duration": 0.125,
          "durationTicks": 256,
          "midi": 34,
          "name": "A#1",
          "ticks": 289024,
          "time": 141.125,
          "velocity": 0.7874015748031497
        },
        {
          "duration": 0.25,
          "durationTicks": 512,
          "midi": 34,
          "name": "A#1",
          "ticks": 289280,
          "time": 141.25,
          "velocity": 0.7874015748031497
        },
        {
          "duration": 0.5,
          "durationTicks": 1024,
          "midi": 74,
          "name": "D5",
          "ticks": 289792,
          "time": 141.5,
          "velocity": 0.7874015748031497
        },
        {
          "duration": 0.25,
          "durationTicks": 512,
          "midi": 34,
          "name": "A#1",
          "ticks": 289792,
          "time": 141.5,
          "velocity": 0.7874015748031497
        },
        {
          "duration": 0.25,
          "durationTicks": 512,
          "midi": 34,
          "name": "A#1",
          "ticks": 290304,
          "time": 141.75,
          "velocity": 0.7874015748031497
        },
        {
          "duration": 0.5,
          "durationTicks": 1024,
          "midi": 65,
          "name": "F4",
          "ticks": 290816,
          "time": 142,
          "velocity": 0.7874015748031497
        },
        {
          "duration": 0.5,
          "durationTicks": 1024,
          "midi": 70,
          "name": "A#4",
          "ticks": 290816,
          "time": 142,
          "velocity": 0.7874015748031497
        },
        {
          "duration": 0.5,
          "durationTicks": 1024,
          "midi": 74,
          "name": "D5",
          "ticks": 290816,
          "time": 142,
          "velocity": 0.7874015748031497
        },
        {
          "duration": 0.25,
          "durationTicks": 512,
          "midi": 31,
          "name": "G1",
          "ticks": 290816,
          "time": 142,
          "velocity": 0.7874015748031497
        },
        {
          "duration": 0.25,
          "durationTicks": 512,
          "midi": 31,
          "name": "G1",
          "ticks": 291328,
          "time": 142.25,
          "velocity": 0.7874015748031497
        },
        {
          "duration": 0.25,
          "durationTicks": 512,
          "midi": 77,
          "name": "F5",
          "ticks": 291840,
          "time": 142.5,
          "velocity": 0.7874015748031497
        },
        {
          "duration": 0.25,
          "durationTicks": 512,
          "midi": 31,
          "name": "G1",
          "ticks": 291840,
          "time": 142.5,
          "velocity": 0.7874015748031497
        },
        {
          "duration": 0.75,
          "durationTicks": 1536,
          "midi": 63,
          "name": "D#4",
          "ticks": 292352,
          "time": 142.75,
          "velocity": 0.7874015748031497
        },
        {
          "duration": 0.75,
          "durationTicks": 1536,
          "midi": 67,
          "name": "G4",
          "ticks": 292352,
          "time": 142.75,
          "velocity": 0.7874015748031497
        },
        {
          "duration": 0.75,
          "durationTicks": 1536,
          "midi": 72,
          "name": "C5",
          "ticks": 292352,
          "time": 142.75,
          "velocity": 0.7874015748031497
        },
        {
          "duration": 0.75,
          "durationTicks": 1536,
          "midi": 75,
          "name": "D#5",
          "ticks": 292352,
          "time": 142.75,
          "velocity": 0.5039370078740157
        },
        {
          "duration": 0.125,
          "durationTicks": 256,
          "midi": 31,
          "name": "G1",
          "ticks": 292352,
          "time": 142.75,
          "velocity": 0.7874015748031497
        },
        {
          "duration": 0.25,
          "durationTicks": 512,
          "midi": 36,
          "name": "C2",
          "ticks": 292608,
          "time": 142.875,
          "velocity": 0.7874015748031497
        },
        {
          "duration": 0.125,
          "durationTicks": 256,
          "midi": 36,
          "name": "C2",
          "ticks": 293120,
          "time": 143.125,
          "velocity": 0.7874015748031497
        },
        {
          "duration": 0.25,
          "durationTicks": 512,
          "midi": 36,
          "name": "C2",
          "ticks": 293376,
          "time": 143.25,
          "velocity": 0.7874015748031497
        },
        {
          "duration": 0.25,
          "durationTicks": 512,
          "midi": 65,
          "name": "F4",
          "ticks": 293888,
          "time": 143.5,
          "velocity": 0.7874015748031497
        },
        {
          "duration": 0.25,
          "durationTicks": 512,
          "midi": 67,
          "name": "G4",
          "ticks": 293888,
          "time": 143.5,
          "velocity": 0.7874015748031497
        },
        {
          "duration": 0.25,
          "durationTicks": 512,
          "midi": 72,
          "name": "C5",
          "ticks": 293888,
          "time": 143.5,
          "velocity": 0.7874015748031497
        },
        {
          "duration": 0.25,
          "durationTicks": 512,
          "midi": 75,
          "name": "D#5",
          "ticks": 293888,
          "time": 143.5,
          "velocity": 0.7874015748031497
        },
        {
          "duration": 0.25,
          "durationTicks": 512,
          "midi": 77,
          "name": "F5",
          "ticks": 293888,
          "time": 143.5,
          "velocity": 0.5039370078740157
        },
        {
          "duration": 0.25,
          "durationTicks": 512,
          "midi": 34,
          "name": "A#1",
          "ticks": 293888,
          "time": 143.5,
          "velocity": 0.7874015748031497
        },
        {
          "duration": 0.25,
          "durationTicks": 512,
          "midi": 79,
          "name": "G5",
          "ticks": 294400,
          "time": 143.75,
          "velocity": 0.7874015748031497
        },
        {
          "duration": 0.25,
          "durationTicks": 512,
          "midi": 34,
          "name": "A#1",
          "ticks": 294400,
          "time": 143.75,
          "velocity": 0.7874015748031497
        },
        {
          "duration": 0.5,
          "durationTicks": 1024,
          "midi": 68,
          "name": "G#4",
          "ticks": 294912,
          "time": 144,
          "velocity": 0.7874015748031497
        },
        {
          "duration": 0.5,
          "durationTicks": 1024,
          "midi": 72,
          "name": "C5",
          "ticks": 294912,
          "time": 144,
          "velocity": 0.5039370078740157
        },
        {
          "duration": 0.5,
          "durationTicks": 1024,
          "midi": 80,
          "name": "G#5",
          "ticks": 294912,
          "time": 144,
          "velocity": 0.5039370078740157
        },
        {
          "duration": 0.25,
          "durationTicks": 512,
          "midi": 32,
          "name": "G#1",
          "ticks": 294912,
          "time": 144,
          "velocity": 0.7874015748031497
        },
        {
          "duration": 0.25,
          "durationTicks": 512,
          "midi": 32,
          "name": "G#1",
          "ticks": 295424,
          "time": 144.25,
          "velocity": 0.7874015748031497
        },
        {
          "duration": 0.25,
          "durationTicks": 512,
          "midi": 32,
          "name": "G#1",
          "ticks": 295936,
          "time": 144.5,
          "velocity": 0.7874015748031497
        },
        {
          "duration": 0.75,
          "durationTicks": 1536,
          "midi": 65,
          "name": "F4",
          "ticks": 296448,
          "time": 144.75,
          "velocity": 0.7874015748031497
        },
        {
          "duration": 0.75,
          "durationTicks": 1536,
          "midi": 70,
          "name": "A#4",
          "ticks": 296448,
          "time": 144.75,
          "velocity": 0.5039370078740157
        },
        {
          "duration": 0.75,
          "durationTicks": 1536,
          "midi": 74,
          "name": "D5",
          "ticks": 296448,
          "time": 144.75,
          "velocity": 0.5039370078740157
        },
        {
          "duration": 0.75,
          "durationTicks": 1536,
          "midi": 77,
          "name": "F5",
          "ticks": 296448,
          "time": 144.75,
          "velocity": 0.5039370078740157
        },
        {
          "duration": 0.125,
          "durationTicks": 256,
          "midi": 32,
          "name": "G#1",
          "ticks": 296448,
          "time": 144.75,
          "velocity": 0.7874015748031497
        },
        {
          "duration": 0.25,
          "durationTicks": 512,
          "midi": 34,
          "name": "A#1",
          "ticks": 296704,
          "time": 144.875,
          "velocity": 0.7874015748031497
        },
        {
          "duration": 0.125,
          "durationTicks": 256,
          "midi": 34,
          "name": "A#1",
          "ticks": 297216,
          "time": 145.125,
          "velocity": 0.7874015748031497
        },
        {
          "duration": 0.25,
          "durationTicks": 512,
          "midi": 34,
          "name": "A#1",
          "ticks": 297472,
          "time": 145.25,
          "velocity": 0.7874015748031497
        },
        {
          "duration": 0.5,
          "durationTicks": 1024,
          "midi": 74,
          "name": "D5",
          "ticks": 297984,
          "time": 145.5,
          "velocity": 0.7874015748031497
        },
        {
          "duration": 0.25,
          "durationTicks": 512,
          "midi": 34,
          "name": "A#1",
          "ticks": 297984,
          "time": 145.5,
          "velocity": 0.7874015748031497
        },
        {
          "duration": 0.25,
          "durationTicks": 512,
          "midi": 34,
          "name": "A#1",
          "ticks": 298496,
          "time": 145.75,
          "velocity": 0.7874015748031497
        },
        {
          "duration": 0.5,
          "durationTicks": 1024,
          "midi": 65,
          "name": "F4",
          "ticks": 299008,
          "time": 146,
          "velocity": 0.7874015748031497
        },
        {
          "duration": 0.5,
          "durationTicks": 1024,
          "midi": 70,
          "name": "A#4",
          "ticks": 299008,
          "time": 146,
          "velocity": 0.7874015748031497
        },
        {
          "duration": 0.5,
          "durationTicks": 1024,
          "midi": 74,
          "name": "D5",
          "ticks": 299008,
          "time": 146,
          "velocity": 0.7874015748031497
        },
        {
          "duration": 0.25,
          "durationTicks": 512,
          "midi": 31,
          "name": "G1",
          "ticks": 299008,
          "time": 146,
          "velocity": 0.7874015748031497
        },
        {
          "duration": 0.25,
          "durationTicks": 512,
          "midi": 31,
          "name": "G1",
          "ticks": 299520,
          "time": 146.25,
          "velocity": 0.7874015748031497
        },
        {
          "duration": 0.25,
          "durationTicks": 512,
          "midi": 77,
          "name": "F5",
          "ticks": 300032,
          "time": 146.5,
          "velocity": 0.7874015748031497
        },
        {
          "duration": 0.25,
          "durationTicks": 512,
          "midi": 31,
          "name": "G1",
          "ticks": 300032,
          "time": 146.5,
          "velocity": 0.7874015748031497
        },
        {
          "duration": 0.75,
          "durationTicks": 1536,
          "midi": 63,
          "name": "D#4",
          "ticks": 300544,
          "time": 146.75,
          "velocity": 0.7874015748031497
        },
        {
          "duration": 0.75,
          "durationTicks": 1536,
          "midi": 67,
          "name": "G4",
          "ticks": 300544,
          "time": 146.75,
          "velocity": 0.7874015748031497
        },
        {
          "duration": 0.75,
          "durationTicks": 1536,
          "midi": 72,
          "name": "C5",
          "ticks": 300544,
          "time": 146.75,
          "velocity": 0.7874015748031497
        },
        {
          "duration": 0.75,
          "durationTicks": 1536,
          "midi": 75,
          "name": "D#5",
          "ticks": 300544,
          "time": 146.75,
          "velocity": 0.5039370078740157
        },
        {
          "duration": 0.125,
          "durationTicks": 256,
          "midi": 31,
          "name": "G1",
          "ticks": 300544,
          "time": 146.75,
          "velocity": 0.7874015748031497
        },
        {
          "duration": 0.25,
          "durationTicks": 512,
          "midi": 36,
          "name": "C2",
          "ticks": 300800,
          "time": 146.875,
          "velocity": 0.7874015748031497
        },
        {
          "duration": 0.125,
          "durationTicks": 256,
          "midi": 36,
          "name": "C2",
          "ticks": 301312,
          "time": 147.125,
          "velocity": 0.7874015748031497
        },
        {
          "duration": 0.25,
          "durationTicks": 512,
          "midi": 36,
          "name": "C2",
          "ticks": 301568,
          "time": 147.25,
          "velocity": 0.7874015748031497
        },
        {
          "duration": 0.5,
          "durationTicks": 1024,
          "midi": 65,
          "name": "F4",
          "ticks": 302080,
          "time": 147.5,
          "velocity": 0.7874015748031497
        },
        {
          "duration": 0.5,
          "durationTicks": 1024,
          "midi": 67,
          "name": "G4",
          "ticks": 302080,
          "time": 147.5,
          "velocity": 0.7874015748031497
        },
        {
          "duration": 0.5,
          "durationTicks": 1024,
          "midi": 72,
          "name": "C5",
          "ticks": 302080,
          "time": 147.5,
          "velocity": 0.7874015748031497
        },
        {
          "duration": 0.5,
          "durationTicks": 1024,
          "midi": 75,
          "name": "D#5",
          "ticks": 302080,
          "time": 147.5,
          "velocity": 0.7874015748031497
        },
        {
          "duration": 0.25,
          "durationTicks": 512,
          "midi": 34,
          "name": "A#1",
          "ticks": 302080,
          "time": 147.5,
          "velocity": 0.7874015748031497
        },
        {
          "duration": 0.25,
          "durationTicks": 512,
          "midi": 34,
          "name": "A#1",
          "ticks": 302592,
          "time": 147.75,
          "velocity": 0.7874015748031497
        },
        {
          "duration": 0.5,
          "durationTicks": 1024,
          "midi": 68,
          "name": "G#4",
          "ticks": 303104,
          "time": 148,
          "velocity": 0.7874015748031497
        },
        {
          "duration": 0.5,
          "durationTicks": 1024,
          "midi": 72,
          "name": "C5",
          "ticks": 303104,
          "time": 148,
          "velocity": 0.5039370078740157
        },
        {
          "duration": 0.5,
          "durationTicks": 1024,
          "midi": 80,
          "name": "G#5",
          "ticks": 303104,
          "time": 148,
          "velocity": 0.5039370078740157
        },
        {
          "duration": 0.25,
          "durationTicks": 512,
          "midi": 32,
          "name": "G#1",
          "ticks": 303104,
          "time": 148,
          "velocity": 0.7874015748031497
        },
        {
          "duration": 0.25,
          "durationTicks": 512,
          "midi": 32,
          "name": "G#1",
          "ticks": 303616,
          "time": 148.25,
          "velocity": 0.7874015748031497
        },
        {
          "duration": 0.25,
          "durationTicks": 512,
          "midi": 32,
          "name": "G#1",
          "ticks": 304128,
          "time": 148.5,
          "velocity": 0.7874015748031497
        },
        {
          "duration": 0.75,
          "durationTicks": 1536,
          "midi": 65,
          "name": "F4",
          "ticks": 304640,
          "time": 148.75,
          "velocity": 0.7874015748031497
        },
        {
          "duration": 0.75,
          "durationTicks": 1536,
          "midi": 70,
          "name": "A#4",
          "ticks": 304640,
          "time": 148.75,
          "velocity": 0.5039370078740157
        },
        {
          "duration": 0.75,
          "durationTicks": 1536,
          "midi": 74,
          "name": "D5",
          "ticks": 304640,
          "time": 148.75,
          "velocity": 0.5039370078740157
        },
        {
          "duration": 0.75,
          "durationTicks": 1536,
          "midi": 77,
          "name": "F5",
          "ticks": 304640,
          "time": 148.75,
          "velocity": 0.5039370078740157
        },
        {
          "duration": 0.125,
          "durationTicks": 256,
          "midi": 32,
          "name": "G#1",
          "ticks": 304640,
          "time": 148.75,
          "velocity": 0.7874015748031497
        },
        {
          "duration": 0.25,
          "durationTicks": 512,
          "midi": 34,
          "name": "A#1",
          "ticks": 304896,
          "time": 148.875,
          "velocity": 0.7874015748031497
        },
        {
          "duration": 0.125,
          "durationTicks": 256,
          "midi": 34,
          "name": "A#1",
          "ticks": 305408,
          "time": 149.125,
          "velocity": 0.7874015748031497
        },
        {
          "duration": 0.25,
          "durationTicks": 512,
          "midi": 34,
          "name": "A#1",
          "ticks": 305664,
          "time": 149.25,
          "velocity": 0.7874015748031497
        },
        {
          "duration": 0.5,
          "durationTicks": 1024,
          "midi": 74,
          "name": "D5",
          "ticks": 306176,
          "time": 149.5,
          "velocity": 0.7874015748031497
        },
        {
          "duration": 0.25,
          "durationTicks": 512,
          "midi": 34,
          "name": "A#1",
          "ticks": 306176,
          "time": 149.5,
          "velocity": 0.7874015748031497
        },
        {
          "duration": 0.25,
          "durationTicks": 512,
          "midi": 34,
          "name": "A#1",
          "ticks": 306688,
          "time": 149.75,
          "velocity": 0.7874015748031497
        },
        {
          "duration": 0.5,
          "durationTicks": 1024,
          "midi": 70,
          "name": "A#4",
          "ticks": 307200,
          "time": 150,
          "velocity": 0.7874015748031497
        },
        {
          "duration": 0.25,
          "durationTicks": 512,
          "midi": 31,
          "name": "G1",
          "ticks": 307200,
          "time": 150,
          "velocity": 0.7874015748031497
        },
        {
          "duration": 0.25,
          "durationTicks": 512,
          "midi": 31,
          "name": "G1",
          "ticks": 307712,
          "time": 150.25,
          "velocity": 0.7874015748031497
        },
        {
          "duration": 0.25,
          "durationTicks": 512,
          "midi": 77,
          "name": "F5",
          "ticks": 308224,
          "time": 150.5,
          "velocity": 0.7874015748031497
        },
        {
          "duration": 0.25,
          "durationTicks": 512,
          "midi": 31,
          "name": "G1",
          "ticks": 308224,
          "time": 150.5,
          "velocity": 0.7874015748031497
        },
        {
          "duration": 0.5,
          "durationTicks": 1024,
          "midi": 75,
          "name": "D#5",
          "ticks": 308736,
          "time": 150.75,
          "velocity": 0.7874015748031497
        },
        {
          "duration": 0.125,
          "durationTicks": 256,
          "midi": 31,
          "name": "G1",
          "ticks": 308736,
          "time": 150.75,
          "velocity": 0.7874015748031497
        },
        {
          "duration": 0.25,
          "durationTicks": 512,
          "midi": 36,
          "name": "C2",
          "ticks": 308992,
          "time": 150.875,
          "velocity": 0.7874015748031497
        },
        {
          "duration": 0.125,
          "durationTicks": 256,
          "midi": 36,
          "name": "C2",
          "ticks": 309504,
          "time": 151.125,
          "velocity": 0.7874015748031497
        },
        {
          "duration": 0.25,
          "durationTicks": 512,
          "midi": 72,
          "name": "C5",
          "ticks": 309760,
          "time": 151.25,
          "velocity": 0.7874015748031497
        },
        {
          "duration": 0.25,
          "durationTicks": 512,
          "midi": 36,
          "name": "C2",
          "ticks": 309760,
          "time": 151.25,
          "velocity": 0.7874015748031497
        },
        {
          "duration": 0.25,
          "durationTicks": 512,
          "midi": 72,
          "name": "C5",
          "ticks": 310272,
          "time": 151.5,
          "velocity": 0.7874015748031497
        },
        {
          "duration": 0.25,
          "durationTicks": 512,
          "midi": 34,
          "name": "A#1",
          "ticks": 310272,
          "time": 151.5,
          "velocity": 0.7874015748031497
        },
        {
          "duration": 0.25,
          "durationTicks": 512,
          "midi": 74,
          "name": "D5",
          "ticks": 310784,
          "time": 151.75,
          "velocity": 0.7874015748031497
        },
        {
          "duration": 0.25,
          "durationTicks": 512,
          "midi": 34,
          "name": "A#1",
          "ticks": 310784,
          "time": 151.75,
          "velocity": 0.7874015748031497
        },
        {
          "duration": 0.375,
          "durationTicks": 768,
          "midi": 75,
          "name": "D#5",
          "ticks": 311296,
          "time": 152,
          "velocity": 0.7874015748031497
        },
        {
          "duration": 0.25,
          "durationTicks": 512,
          "midi": 29,
          "name": "F1",
          "ticks": 311296,
          "time": 152,
          "velocity": 0.7874015748031497
        },
        {
          "duration": 0.25,
          "durationTicks": 512,
          "midi": 29,
          "name": "F1",
          "ticks": 311808,
          "time": 152.25,
          "velocity": 0.7874015748031497
        },
        {
          "duration": 0.375,
          "durationTicks": 768,
          "midi": 72,
          "name": "C5",
          "ticks": 312064,
          "time": 152.375,
          "velocity": 0.7874015748031497
        },
        {
          "duration": 0.25,
          "durationTicks": 512,
          "midi": 29,
          "name": "F1",
          "ticks": 312320,
          "time": 152.5,
          "velocity": 0.7874015748031497
        },
        {
          "duration": 0.25,
          "durationTicks": 512,
          "midi": 75,
          "name": "D#5",
          "ticks": 312832,
          "time": 152.75,
          "velocity": 0.7874015748031497
        },
        {
          "duration": 0.125,
          "durationTicks": 256,
          "midi": 29,
          "name": "F1",
          "ticks": 312832,
          "time": 152.75,
          "velocity": 0.7874015748031497
        },
        {
          "duration": 0.25,
          "durationTicks": 512,
          "midi": 31,
          "name": "G1",
          "ticks": 313088,
          "time": 152.875,
          "velocity": 0.7874015748031497
        },
        {
          "duration": 0.375,
          "durationTicks": 768,
          "midi": 77,
          "name": "F5",
          "ticks": 313344,
          "time": 153,
          "velocity": 0.7874015748031497
        },
        {
          "duration": 0.125,
          "durationTicks": 256,
          "midi": 31,
          "name": "G1",
          "ticks": 313600,
          "time": 153.125,
          "velocity": 0.7874015748031497
        },
        {
          "duration": 0.25,
          "durationTicks": 512,
          "midi": 31,
          "name": "G1",
          "ticks": 313856,
          "time": 153.25,
          "velocity": 0.7874015748031497
        },
        {
          "duration": 0.375,
          "durationTicks": 768,
          "midi": 74,
          "name": "D5",
          "ticks": 314112,
          "time": 153.375,
          "velocity": 0.7874015748031497
        },
        {
          "duration": 0.25,
          "durationTicks": 512,
          "midi": 31,
          "name": "G1",
          "ticks": 314368,
          "time": 153.5,
          "velocity": 0.7874015748031497
        },
        {
          "duration": 0.25,
          "durationTicks": 512,
          "midi": 77,
          "name": "F5",
          "ticks": 314880,
          "time": 153.75,
          "velocity": 0.7874015748031497
        },
        {
          "duration": 0.125,
          "durationTicks": 256,
          "midi": 31,
          "name": "G1",
          "ticks": 314880,
          "time": 153.75,
          "velocity": 0.7874015748031497
        },
        {
          "duration": 0.125,
          "durationTicks": 256,
          "midi": 32,
          "name": "G#1",
          "ticks": 315136,
          "time": 153.875,
          "velocity": 0.7874015748031497
        },
        {
          "duration": 0.375,
          "durationTicks": 768,
          "midi": 79,
          "name": "G5",
          "ticks": 315392,
          "time": 154,
          "velocity": 0.7874015748031497
        },
        {
          "duration": 0.125,
          "durationTicks": 256,
          "midi": 32,
          "name": "G#1",
          "ticks": 315392,
          "time": 154,
          "velocity": 0.7874015748031497
        },
        {
          "duration": 0.125,
          "durationTicks": 256,
          "midi": 32,
          "name": "G#1",
          "ticks": 315648,
          "time": 154.125,
          "velocity": 0.7874015748031497
        },
        {
          "duration": 0.25,
          "durationTicks": 512,
          "midi": 32,
          "name": "G#1",
          "ticks": 315904,
          "time": 154.25,
          "velocity": 0.7874015748031497
        },
        {
          "duration": 0.375,
          "durationTicks": 768,
          "midi": 75,
          "name": "D#5",
          "ticks": 316160,
          "time": 154.375,
          "velocity": 0.7874015748031497
        },
        {
          "duration": 0.25,
          "durationTicks": 512,
          "midi": 32,
          "name": "G#1",
          "ticks": 316416,
          "time": 154.5,
          "velocity": 0.7874015748031497
        },
        {
          "duration": 0.25,
          "durationTicks": 512,
          "midi": 79,
          "name": "G5",
          "ticks": 316928,
          "time": 154.75,
          "velocity": 0.7874015748031497
        },
        {
          "duration": 0.125,
          "durationTicks": 256,
          "midi": 32,
          "name": "G#1",
          "ticks": 316928,
          "time": 154.75,
          "velocity": 0.7874015748031497
        },
        {
          "duration": 0.25,
          "durationTicks": 512,
          "midi": 34,
          "name": "A#1",
          "ticks": 317184,
          "time": 154.875,
          "velocity": 0.7874015748031497
        },
        {
          "duration": 0.25,
          "durationTicks": 512,
          "midi": 82,
          "name": "A#5",
          "ticks": 317440,
          "time": 155,
          "velocity": 0.7874015748031497
        },
        {
          "duration": 0.125,
          "durationTicks": 256,
          "midi": 34,
          "name": "A#1",
          "ticks": 317696,
          "time": 155.125,
          "velocity": 0.7874015748031497
        },
        {
          "duration": 0.25,
          "durationTicks": 512,
          "midi": 34,
          "name": "A#1",
          "ticks": 317952,
          "time": 155.25,
          "velocity": 0.7874015748031497
        },
        {
          "duration": 0.25,
          "durationTicks": 512,
          "midi": 75,
          "name": "D#5",
          "ticks": 318464,
          "time": 155.5,
          "velocity": 0.7874015748031497
        },
        {
          "duration": 0.25,
          "durationTicks": 512,
          "midi": 79,
          "name": "G5",
          "ticks": 318464,
          "time": 155.5,
          "velocity": 0.7874015748031497
        },
        {
          "duration": 0.25,
          "durationTicks": 512,
          "midi": 31,
          "name": "G1",
          "ticks": 318464,
          "time": 155.5,
          "velocity": 0.7874015748031497
        },
        {
          "duration": 0.25,
          "durationTicks": 512,
          "midi": 79,
          "name": "G5",
          "ticks": 318976,
          "time": 155.75,
          "velocity": 0.7874015748031497
        },
        {
          "duration": 0.25,
          "durationTicks": 512,
          "midi": 82,
          "name": "A#5",
          "ticks": 318976,
          "time": 155.75,
          "velocity": 0.7874015748031497
        },
        {
          "duration": 0.25,
          "durationTicks": 512,
          "midi": 34,
          "name": "A#1",
          "ticks": 318976,
          "time": 155.75,
          "velocity": 0.7874015748031497
        },
        {
          "duration": 0.25,
          "durationTicks": 512,
          "midi": 79,
          "name": "G5",
          "ticks": 319488,
          "time": 156,
          "velocity": 0.7874015748031497
        },
        {
          "duration": 0.25,
          "durationTicks": 512,
          "midi": 84,
          "name": "C6",
          "ticks": 319488,
          "time": 156,
          "velocity": 0.7874015748031497
        },
        {
          "duration": 0.25,
          "durationTicks": 512,
          "midi": 36,
          "name": "C2",
          "ticks": 319488,
          "time": 156,
          "velocity": 0.7874015748031497
        },
        {
          "duration": 0.25,
          "durationTicks": 512,
          "midi": 36,
          "name": "C2",
          "ticks": 320000,
          "time": 156.25,
          "velocity": 0.7874015748031497
        },
        {
          "duration": 0.25,
          "durationTicks": 512,
          "midi": 79,
          "name": "G5",
          "ticks": 320512,
          "time": 156.5,
          "velocity": 0.7874015748031497
        },
        {
          "duration": 0.25,
          "durationTicks": 512,
          "midi": 84,
          "name": "C6",
          "ticks": 320512,
          "time": 156.5,
          "velocity": 0.7874015748031497
        },
        {
          "duration": 0.25,
          "durationTicks": 512,
          "midi": 36,
          "name": "C2",
          "ticks": 320512,
          "time": 156.5,
          "velocity": 0.7874015748031497
        },
        {
          "duration": 0.125,
          "durationTicks": 256,
          "midi": 82,
          "name": "A#5",
          "ticks": 321024,
          "time": 156.75,
          "velocity": 0.7874015748031497
        },
        {
          "duration": 0.125,
          "durationTicks": 256,
          "midi": 87,
          "name": "D#6",
          "ticks": 321024,
          "time": 156.75,
          "velocity": 0.7874015748031497
        },
        {
          "duration": 0.0625,
          "durationTicks": 128,
          "midi": 36,
          "name": "C2",
          "ticks": 321024,
          "time": 156.75,
          "velocity": 0.7874015748031497
        },
        {
          "duration": 0.375,
          "durationTicks": 768,
          "midi": 80,
          "name": "G#5",
          "ticks": 321280,
          "time": 156.875,
          "velocity": 0.7874015748031497
        },
        {
          "duration": 0.375,
          "durationTicks": 768,
          "midi": 84,
          "name": "C6",
          "ticks": 321280,
          "time": 156.875,
          "velocity": 0.7874015748031497
        },
        {
          "duration": 0.25,
          "durationTicks": 512,
          "midi": 32,
          "name": "G#1",
          "ticks": 321280,
          "time": 156.875,
          "velocity": 0.7874015748031497
        },
        {
          "duration": 0.125,
          "durationTicks": 256,
          "midi": 32,
          "name": "G#1",
          "ticks": 321792,
          "time": 157.125,
          "velocity": 0.7874015748031497
        },
        {
          "duration": 0.25,
          "durationTicks": 512,
          "midi": 32,
          "name": "G#1",
          "ticks": 322048,
          "time": 157.25,
          "velocity": 0.7874015748031497
        },
        {
          "duration": 0.25,
          "durationTicks": 512,
          "midi": 82,
          "name": "A#5",
          "ticks": 322560,
          "time": 157.5,
          "velocity": 0.7874015748031497
        },
        {
          "duration": 0.25,
          "durationTicks": 512,
          "midi": 84,
          "name": "C6",
          "ticks": 322560,
          "time": 157.5,
          "velocity": 0.7874015748031497
        },
        {
          "duration": 0.25,
          "durationTicks": 512,
          "midi": 32,
          "name": "G#1",
          "ticks": 322560,
          "time": 157.5,
          "velocity": 0.7874015748031497
        },
        {
          "duration": 0.25,
          "durationTicks": 512,
          "midi": 84,
          "name": "C6",
          "ticks": 323072,
          "time": 157.75,
          "velocity": 0.7874015748031497
        },
        {
          "duration": 0.25,
          "durationTicks": 512,
          "midi": 87,
          "name": "D#6",
          "ticks": 323072,
          "time": 157.75,
          "velocity": 0.7874015748031497
        },
        {
          "duration": 0.25,
          "durationTicks": 512,
          "midi": 32,
          "name": "G#1",
          "ticks": 323072,
          "time": 157.75,
          "velocity": 0.7874015748031497
        },
        {
          "duration": 0.25,
          "durationTicks": 512,
          "midi": 82,
          "name": "A#5",
          "ticks": 323584,
          "time": 158,
          "velocity": 0.7874015748031497
        },
        {
          "duration": 0.25,
          "durationTicks": 512,
          "midi": 86,
          "name": "D6",
          "ticks": 323584,
          "time": 158,
          "velocity": 0.7874015748031497
        },
        {
          "duration": 0.25,
          "durationTicks": 512,
          "midi": 34,
          "name": "A#1",
          "ticks": 323584,
          "time": 158,
          "velocity": 0.7874015748031497
        },
        {
          "duration": 0.125,
          "durationTicks": 256,
          "midi": 79,
          "name": "G5",
          "ticks": 324096,
          "time": 158.25,
          "velocity": 0.7874015748031497
        },
        {
          "duration": 0.125,
          "durationTicks": 256,
          "midi": 82,
          "name": "A#5",
          "ticks": 324096,
          "time": 158.25,
          "velocity": 0.7874015748031497
        },
        {
          "duration": 0.25,
          "durationTicks": 512,
          "midi": 34,
          "name": "A#1",
          "ticks": 324096,
          "time": 158.25,
          "velocity": 0.7874015748031497
        },
        {
          "duration": 0.25,
          "durationTicks": 512,
          "midi": 79,
          "name": "G5",
          "ticks": 324608,
          "time": 158.5,
          "velocity": 0.7874015748031497
        },
        {
          "duration": 0.25,
          "durationTicks": 512,
          "midi": 82,
          "name": "A#5",
          "ticks": 324608,
          "time": 158.5,
          "velocity": 0.7874015748031497
        },
        {
          "duration": 0.25,
          "durationTicks": 512,
          "midi": 34,
          "name": "A#1",
          "ticks": 324608,
          "time": 158.5,
          "velocity": 0.7874015748031497
        },
        {
          "duration": 0.125,
          "durationTicks": 256,
          "midi": 75,
          "name": "D#5",
          "ticks": 325120,
          "time": 158.75,
          "velocity": 0.7874015748031497
        },
        {
          "duration": 0.125,
          "durationTicks": 256,
          "midi": 79,
          "name": "G5",
          "ticks": 325120,
          "time": 158.75,
          "velocity": 0.7874015748031497
        },
        {
          "duration": 0.07275390625,
          "durationTicks": 149,
          "midi": 34,
          "name": "A#1",
          "ticks": 325120,
          "time": 158.75,
          "velocity": 0.7874015748031497
        },
        {
          "duration": 0.5,
          "durationTicks": 1024,
          "midi": 79,
          "name": "G5",
          "ticks": 325376,
          "time": 158.875,
          "velocity": 0.7874015748031497
        },
        {
          "duration": 0.5,
          "durationTicks": 1024,
          "midi": 82,
          "name": "A#5",
          "ticks": 325376,
          "time": 158.875,
          "velocity": 0.7874015748031497
        },
        {
          "duration": 0.25,
          "durationTicks": 512,
          "midi": 31,
          "name": "G1",
          "ticks": 325376,
          "time": 158.875,
          "velocity": 0.7874015748031497
        },
        {
          "duration": 0.125,
          "durationTicks": 256,
          "midi": 31,
          "name": "G1",
          "ticks": 325888,
          "time": 159.125,
          "velocity": 0.7874015748031497
        },
        {
          "duration": 0.25,
          "durationTicks": 512,
          "midi": 31,
          "name": "G1",
          "ticks": 326144,
          "time": 159.25,
          "velocity": 0.7874015748031497
        },
        {
          "duration": 0.25,
          "durationTicks": 512,
          "midi": 77,
          "name": "F5",
          "ticks": 326656,
          "time": 159.5,
          "velocity": 0.7874015748031497
        },
        {
          "duration": 0.25,
          "durationTicks": 512,
          "midi": 80,
          "name": "G#5",
          "ticks": 326656,
          "time": 159.5,
          "velocity": 0.7874015748031497
        },
        {
          "duration": 0.25,
          "durationTicks": 512,
          "midi": 29,
          "name": "F1",
          "ticks": 326656,
          "time": 159.5,
          "velocity": 0.7874015748031497
        },
        {
          "duration": 0.25,
          "durationTicks": 512,
          "midi": 79,
          "name": "G5",
          "ticks": 327168,
          "time": 159.75,
          "velocity": 0.7874015748031497
        },
        {
          "duration": 0.25,
          "durationTicks": 512,
          "midi": 82,
          "name": "A#5",
          "ticks": 327168,
          "time": 159.75,
          "velocity": 0.7874015748031497
        },
        {
          "duration": 0.25,
          "durationTicks": 512,
          "midi": 31,
          "name": "G1",
          "ticks": 327168,
          "time": 159.75,
          "velocity": 0.7874015748031497
        },
        {
          "duration": 0.25,
          "durationTicks": 512,
          "midi": 75,
          "name": "D#5",
          "ticks": 327680,
          "time": 160,
          "velocity": 0.7874015748031497
        },
        {
          "duration": 0.25,
          "durationTicks": 512,
          "midi": 80,
          "name": "G#5",
          "ticks": 327680,
          "time": 160,
          "velocity": 0.7874015748031497
        },
        {
          "duration": 0.25,
          "durationTicks": 512,
          "midi": 32,
          "name": "G#1",
          "ticks": 327680,
          "time": 160,
          "velocity": 0.7874015748031497
        },
        {
          "duration": 0.25,
          "durationTicks": 512,
          "midi": 32,
          "name": "G#1",
          "ticks": 328192,
          "time": 160.25,
          "velocity": 0.7874015748031497
        },
        {
          "duration": 0.25,
          "durationTicks": 512,
          "midi": 75,
          "name": "D#5",
          "ticks": 328704,
          "time": 160.5,
          "velocity": 0.7874015748031497
        },
        {
          "duration": 0.25,
          "durationTicks": 512,
          "midi": 80,
          "name": "G#5",
          "ticks": 328704,
          "time": 160.5,
          "velocity": 0.7874015748031497
        },
        {
          "duration": 0.25,
          "durationTicks": 512,
          "midi": 32,
          "name": "G#1",
          "ticks": 328704,
          "time": 160.5,
          "velocity": 0.7874015748031497
        },
        {
          "duration": 0.125,
          "durationTicks": 256,
          "midi": 77,
          "name": "F5",
          "ticks": 329216,
          "time": 160.75,
          "velocity": 0.7874015748031497
        },
        {
          "duration": 0.125,
          "durationTicks": 256,
          "midi": 82,
          "name": "A#5",
          "ticks": 329216,
          "time": 160.75,
          "velocity": 0.7874015748031497
        },
        {
          "duration": 0.07275390625,
          "durationTicks": 149,
          "midi": 32,
          "name": "G#1",
          "ticks": 329216,
          "time": 160.75,
          "velocity": 0.7874015748031497
        },
        {
          "duration": 0.5,
          "durationTicks": 1024,
          "midi": 72,
          "name": "C5",
          "ticks": 329472,
          "time": 160.875,
          "velocity": 0.7874015748031497
        },
        {
          "duration": 0.5,
          "durationTicks": 1024,
          "midi": 77,
          "name": "F5",
          "ticks": 329472,
          "time": 160.875,
          "velocity": 0.7874015748031497
        },
        {
          "duration": 0.25,
          "durationTicks": 512,
          "midi": 29,
          "name": "F1",
          "ticks": 329472,
          "time": 160.875,
          "velocity": 0.7874015748031497
        },
        {
          "duration": 0.125,
          "durationTicks": 256,
          "midi": 29,
          "name": "F1",
          "ticks": 329984,
          "time": 161.125,
          "velocity": 0.7874015748031497
        },
        {
          "duration": 0.25,
          "durationTicks": 512,
          "midi": 29,
          "name": "F1",
          "ticks": 330240,
          "time": 161.25,
          "velocity": 0.7874015748031497
        },
        {
          "duration": 0.25,
          "durationTicks": 512,
          "midi": 70,
          "name": "A#4",
          "ticks": 330752,
          "time": 161.5,
          "velocity": 0.7874015748031497
        },
        {
          "duration": 0.25,
          "durationTicks": 512,
          "midi": 75,
          "name": "D#5",
          "ticks": 330752,
          "time": 161.5,
          "velocity": 0.7874015748031497
        },
        {
          "duration": 0.25,
          "durationTicks": 512,
          "midi": 26,
          "name": "D1",
          "ticks": 330752,
          "time": 161.5,
          "velocity": 0.7874015748031497
        },
        {
          "duration": 0.25,
          "durationTicks": 512,
          "midi": 72,
          "name": "C5",
          "ticks": 331264,
          "time": 161.75,
          "velocity": 0.7874015748031497
        },
        {
          "duration": 0.25,
          "durationTicks": 512,
          "midi": 77,
          "name": "F5",
          "ticks": 331264,
          "time": 161.75,
          "velocity": 0.7874015748031497
        },
        {
          "duration": 0.25,
          "durationTicks": 512,
          "midi": 29,
          "name": "F1",
          "ticks": 331264,
          "time": 161.75,
          "velocity": 0.7874015748031497
        },
        {
          "duration": 0.25,
          "durationTicks": 512,
          "midi": 74,
          "name": "D5",
          "ticks": 331776,
          "time": 162,
          "velocity": 0.7874015748031497
        },
        {
          "duration": 0.25,
          "durationTicks": 512,
          "midi": 79,
          "name": "G5",
          "ticks": 331776,
          "time": 162,
          "velocity": 0.7874015748031497
        },
        {
          "duration": 0.25,
          "durationTicks": 512,
          "midi": 31,
          "name": "G1",
          "ticks": 331776,
          "time": 162,
          "velocity": 0.7874015748031497
        },
        {
          "duration": 0.25,
          "durationTicks": 512,
          "midi": 31,
          "name": "G1",
          "ticks": 332288,
          "time": 162.25,
          "velocity": 0.7874015748031497
        },
        {
          "duration": 0.5,
          "durationTicks": 1024,
          "midi": 79,
          "name": "G5",
          "ticks": 332800,
          "time": 162.5,
          "velocity": 0.7874015748031497
        },
        {
          "duration": 0.5,
          "durationTicks": 1024,
          "midi": 86,
          "name": "D6",
          "ticks": 332800,
          "time": 162.5,
          "velocity": 0.7874015748031497
        },
        {
          "duration": 0.25,
          "durationTicks": 512,
          "midi": 31,
          "name": "G1",
          "ticks": 332800,
          "time": 162.5,
          "velocity": 0.7874015748031497
        },
        {
          "duration": 0.07275390625,
          "durationTicks": 149,
          "midi": 31,
          "name": "G1",
          "ticks": 333312,
          "time": 162.75,
          "velocity": 0.7874015748031497
        },
        {
          "duration": 0.25,
          "durationTicks": 512,
          "midi": 34,
          "name": "A#1",
          "ticks": 333568,
          "time": 162.875,
          "velocity": 0.7874015748031497
        },
        {
          "duration": 0.375,
          "durationTicks": 768,
          "midi": 74,
          "name": "D5",
          "ticks": 333824,
          "time": 163,
          "velocity": 0.7874015748031497
        },
        {
          "duration": 0.375,
          "durationTicks": 768,
          "midi": 82,
          "name": "A#5",
          "ticks": 333824,
          "time": 163,
          "velocity": 0.7874015748031497
        },
        {
          "duration": 0.125,
          "durationTicks": 256,
          "midi": 34,
          "name": "A#1",
          "ticks": 334080,
          "time": 163.125,
          "velocity": 0.7874015748031497
        },
        {
          "duration": 0.25,
          "durationTicks": 512,
          "midi": 34,
          "name": "A#1",
          "ticks": 334336,
          "time": 163.25,
          "velocity": 0.7874015748031497
        },
        {
          "duration": 0.25,
          "durationTicks": 512,
          "midi": 75,
          "name": "D#5",
          "ticks": 334848,
          "time": 163.5,
          "velocity": 0.7874015748031497
        },
        {
          "duration": 0.25,
          "durationTicks": 512,
          "midi": 79,
          "name": "G5",
          "ticks": 334848,
          "time": 163.5,
          "velocity": 0.7874015748031497
        },
        {
          "duration": 0.25,
          "durationTicks": 512,
          "midi": 31,
          "name": "G1",
          "ticks": 334848,
          "time": 163.5,
          "velocity": 0.7874015748031497
        },
        {
          "duration": 0.25,
          "durationTicks": 512,
          "midi": 79,
          "name": "G5",
          "ticks": 335360,
          "time": 163.75,
          "velocity": 0.7874015748031497
        },
        {
          "duration": 0.25,
          "durationTicks": 512,
          "midi": 82,
          "name": "A#5",
          "ticks": 335360,
          "time": 163.75,
          "velocity": 0.7874015748031497
        },
        {
          "duration": 0.25,
          "durationTicks": 512,
          "midi": 34,
          "name": "A#1",
          "ticks": 335360,
          "time": 163.75,
          "velocity": 0.7874015748031497
        },
        {
          "duration": 0.25,
          "durationTicks": 512,
          "midi": 79,
          "name": "G5",
          "ticks": 335872,
          "time": 164,
          "velocity": 0.7874015748031497
        },
        {
          "duration": 0.25,
          "durationTicks": 512,
          "midi": 84,
          "name": "C6",
          "ticks": 335872,
          "time": 164,
          "velocity": 0.7874015748031497
        },
        {
          "duration": 0.25,
          "durationTicks": 512,
          "midi": 36,
          "name": "C2",
          "ticks": 335872,
          "time": 164,
          "velocity": 0.7874015748031497
        },
        {
          "duration": 0.25,
          "durationTicks": 512,
          "midi": 36,
          "name": "C2",
          "ticks": 336384,
          "time": 164.25,
          "velocity": 0.7874015748031497
        },
        {
          "duration": 0.25,
          "durationTicks": 512,
          "midi": 79,
          "name": "G5",
          "ticks": 336896,
          "time": 164.5,
          "velocity": 0.7874015748031497
        },
        {
          "duration": 0.25,
          "durationTicks": 512,
          "midi": 84,
          "name": "C6",
          "ticks": 336896,
          "time": 164.5,
          "velocity": 0.7874015748031497
        },
        {
          "duration": 0.25,
          "durationTicks": 512,
          "midi": 36,
          "name": "C2",
          "ticks": 336896,
          "time": 164.5,
          "velocity": 0.7874015748031497
        },
        {
          "duration": 0.125,
          "durationTicks": 256,
          "midi": 82,
          "name": "A#5",
          "ticks": 337408,
          "time": 164.75,
          "velocity": 0.7874015748031497
        },
        {
          "duration": 0.125,
          "durationTicks": 256,
          "midi": 87,
          "name": "D#6",
          "ticks": 337408,
          "time": 164.75,
          "velocity": 0.7874015748031497
        },
        {
          "duration": 0.07275390625,
          "durationTicks": 149,
          "midi": 36,
          "name": "C2",
          "ticks": 337408,
          "time": 164.75,
          "velocity": 0.7874015748031497
        },
        {
          "duration": 0.375,
          "durationTicks": 768,
          "midi": 80,
          "name": "G#5",
          "ticks": 337664,
          "time": 164.875,
          "velocity": 0.7874015748031497
        },
        {
          "duration": 0.375,
          "durationTicks": 768,
          "midi": 84,
          "name": "C6",
          "ticks": 337664,
          "time": 164.875,
          "velocity": 0.7874015748031497
        },
        {
          "duration": 0.25,
          "durationTicks": 512,
          "midi": 32,
          "name": "G#1",
          "ticks": 337664,
          "time": 164.875,
          "velocity": 0.7874015748031497
        },
        {
          "duration": 0.125,
          "durationTicks": 256,
          "midi": 32,
          "name": "G#1",
          "ticks": 338176,
          "time": 165.125,
          "velocity": 0.7874015748031497
        },
        {
          "duration": 0.25,
          "durationTicks": 512,
          "midi": 32,
          "name": "G#1",
          "ticks": 338432,
          "time": 165.25,
          "velocity": 0.7874015748031497
        },
        {
          "duration": 0.25,
          "durationTicks": 512,
          "midi": 82,
          "name": "A#5",
          "ticks": 338944,
          "time": 165.5,
          "velocity": 0.7874015748031497
        },
        {
          "duration": 0.25,
          "durationTicks": 512,
          "midi": 84,
          "name": "C6",
          "ticks": 338944,
          "time": 165.5,
          "velocity": 0.7874015748031497
        },
        {
          "duration": 0.25,
          "durationTicks": 512,
          "midi": 32,
          "name": "G#1",
          "ticks": 338944,
          "time": 165.5,
          "velocity": 0.7874015748031497
        },
        {
          "duration": 0.25,
          "durationTicks": 512,
          "midi": 84,
          "name": "C6",
          "ticks": 339456,
          "time": 165.75,
          "velocity": 0.7874015748031497
        },
        {
          "duration": 0.25,
          "durationTicks": 512,
          "midi": 87,
          "name": "D#6",
          "ticks": 339456,
          "time": 165.75,
          "velocity": 0.7874015748031497
        },
        {
          "duration": 0.25,
          "durationTicks": 512,
          "midi": 32,
          "name": "G#1",
          "ticks": 339456,
          "time": 165.75,
          "velocity": 0.7874015748031497
        },
        {
          "duration": 0.25,
          "durationTicks": 512,
          "midi": 82,
          "name": "A#5",
          "ticks": 339968,
          "time": 166,
          "velocity": 0.7874015748031497
        },
        {
          "duration": 0.25,
          "durationTicks": 512,
          "midi": 86,
          "name": "D6",
          "ticks": 339968,
          "time": 166,
          "velocity": 0.7874015748031497
        },
        {
          "duration": 0.25,
          "durationTicks": 512,
          "midi": 34,
          "name": "A#1",
          "ticks": 339968,
          "time": 166,
          "velocity": 0.7874015748031497
        },
        {
          "duration": 0.125,
          "durationTicks": 256,
          "midi": 79,
          "name": "G5",
          "ticks": 340480,
          "time": 166.25,
          "velocity": 0.7874015748031497
        },
        {
          "duration": 0.125,
          "durationTicks": 256,
          "midi": 82,
          "name": "A#5",
          "ticks": 340480,
          "time": 166.25,
          "velocity": 0.7874015748031497
        },
        {
          "duration": 0.25,
          "durationTicks": 512,
          "midi": 34,
          "name": "A#1",
          "ticks": 340480,
          "time": 166.25,
          "velocity": 0.7874015748031497
        },
        {
          "duration": 0.25,
          "durationTicks": 512,
          "midi": 79,
          "name": "G5",
          "ticks": 340992,
          "time": 166.5,
          "velocity": 0.7874015748031497
        },
        {
          "duration": 0.25,
          "durationTicks": 512,
          "midi": 82,
          "name": "A#5",
          "ticks": 340992,
          "time": 166.5,
          "velocity": 0.7874015748031497
        },
        {
          "duration": 0.25,
          "durationTicks": 512,
          "midi": 34,
          "name": "A#1",
          "ticks": 340992,
          "time": 166.5,
          "velocity": 0.7874015748031497
        },
        {
          "duration": 0.125,
          "durationTicks": 256,
          "midi": 75,
          "name": "D#5",
          "ticks": 341504,
          "time": 166.75,
          "velocity": 0.7874015748031497
        },
        {
          "duration": 0.125,
          "durationTicks": 256,
          "midi": 79,
          "name": "G5",
          "ticks": 341504,
          "time": 166.75,
          "velocity": 0.7874015748031497
        },
        {
          "duration": 0.07275390625,
          "durationTicks": 149,
          "midi": 34,
          "name": "A#1",
          "ticks": 341504,
          "time": 166.75,
          "velocity": 0.7874015748031497
        },
        {
          "duration": 0.5,
          "durationTicks": 1024,
          "midi": 79,
          "name": "G5",
          "ticks": 341760,
          "time": 166.875,
          "velocity": 0.7874015748031497
        },
        {
          "duration": 0.5,
          "durationTicks": 1024,
          "midi": 82,
          "name": "A#5",
          "ticks": 341760,
          "time": 166.875,
          "velocity": 0.7874015748031497
        },
        {
          "duration": 0.25,
          "durationTicks": 512,
          "midi": 31,
          "name": "G1",
          "ticks": 341760,
          "time": 166.875,
          "velocity": 0.7874015748031497
        },
        {
          "duration": 0.125,
          "durationTicks": 256,
          "midi": 31,
          "name": "G1",
          "ticks": 342272,
          "time": 167.125,
          "velocity": 0.7874015748031497
        },
        {
          "duration": 0.25,
          "durationTicks": 512,
          "midi": 31,
          "name": "G1",
          "ticks": 342528,
          "time": 167.25,
          "velocity": 0.7874015748031497
        },
        {
          "duration": 0.25,
          "durationTicks": 512,
          "midi": 77,
          "name": "F5",
          "ticks": 343040,
          "time": 167.5,
          "velocity": 0.7874015748031497
        },
        {
          "duration": 0.25,
          "durationTicks": 512,
          "midi": 80,
          "name": "G#5",
          "ticks": 343040,
          "time": 167.5,
          "velocity": 0.7874015748031497
        },
        {
          "duration": 0.25,
          "durationTicks": 512,
          "midi": 31,
          "name": "G1",
          "ticks": 343040,
          "time": 167.5,
          "velocity": 0.7874015748031497
        },
        {
          "duration": 0.25,
          "durationTicks": 512,
          "midi": 79,
          "name": "G5",
          "ticks": 343552,
          "time": 167.75,
          "velocity": 0.7874015748031497
        },
        {
          "duration": 0.25,
          "durationTicks": 512,
          "midi": 82,
          "name": "A#5",
          "ticks": 343552,
          "time": 167.75,
          "velocity": 0.7874015748031497
        },
        {
          "duration": 0.25,
          "durationTicks": 512,
          "midi": 31,
          "name": "G1",
          "ticks": 343552,
          "time": 167.75,
          "velocity": 0.7874015748031497
        },
        {
          "duration": 0.25,
          "durationTicks": 512,
          "midi": 77,
          "name": "F5",
          "ticks": 344064,
          "time": 168,
          "velocity": 0.7874015748031497
        },
        {
          "duration": 0.25,
          "durationTicks": 512,
          "midi": 80,
          "name": "G#5",
          "ticks": 344064,
          "time": 168,
          "velocity": 0.7874015748031497
        },
        {
          "duration": 0.25,
          "durationTicks": 512,
          "midi": 29,
          "name": "F1",
          "ticks": 344064,
          "time": 168,
          "velocity": 0.7874015748031497
        },
        {
          "duration": 0.25,
          "durationTicks": 512,
          "midi": 29,
          "name": "F1",
          "ticks": 344576,
          "time": 168.25,
          "velocity": 0.7874015748031497
        },
        {
          "duration": 0.25,
          "durationTicks": 512,
          "midi": 77,
          "name": "F5",
          "ticks": 345088,
          "time": 168.5,
          "velocity": 0.7874015748031497
        },
        {
          "duration": 0.25,
          "durationTicks": 512,
          "midi": 80,
          "name": "G#5",
          "ticks": 345088,
          "time": 168.5,
          "velocity": 0.7874015748031497
        },
        {
          "duration": 0.25,
          "durationTicks": 512,
          "midi": 29,
          "name": "F1",
          "ticks": 345088,
          "time": 168.5,
          "velocity": 0.7874015748031497
        },
        {
          "duration": 0.125,
          "durationTicks": 256,
          "midi": 79,
          "name": "G5",
          "ticks": 345600,
          "time": 168.75,
          "velocity": 0.7874015748031497
        },
        {
          "duration": 0.125,
          "durationTicks": 256,
          "midi": 82,
          "name": "A#5",
          "ticks": 345600,
          "time": 168.75,
          "velocity": 0.7874015748031497
        },
        {
          "duration": 0.07275390625,
          "durationTicks": 149,
          "midi": 29,
          "name": "F1",
          "ticks": 345600,
          "time": 168.75,
          "velocity": 0.7874015748031497
        },
        {
          "duration": 0.5,
          "durationTicks": 1024,
          "midi": 74,
          "name": "D5",
          "ticks": 345856,
          "time": 168.875,
          "velocity": 0.7874015748031497
        },
        {
          "duration": 0.5,
          "durationTicks": 1024,
          "midi": 77,
          "name": "F5",
          "ticks": 345856,
          "time": 168.875,
          "velocity": 0.7874015748031497
        },
        {
          "duration": 0.25,
          "durationTicks": 512,
          "midi": 34,
          "name": "A#1",
          "ticks": 345856,
          "time": 168.875,
          "velocity": 0.7874015748031497
        },
        {
          "duration": 0.125,
          "durationTicks": 256,
          "midi": 34,
          "name": "A#1",
          "ticks": 346368,
          "time": 169.125,
          "velocity": 0.7874015748031497
        },
        {
          "duration": 0.25,
          "durationTicks": 512,
          "midi": 34,
          "name": "A#1",
          "ticks": 346624,
          "time": 169.25,
          "velocity": 0.7874015748031497
        },
        {
          "duration": 0.25,
          "durationTicks": 512,
          "midi": 72,
          "name": "C5",
          "ticks": 347136,
          "time": 169.5,
          "velocity": 0.7874015748031497
        },
        {
          "duration": 0.25,
          "durationTicks": 512,
          "midi": 77,
          "name": "F5",
          "ticks": 347136,
          "time": 169.5,
          "velocity": 0.7874015748031497
        },
        {
          "duration": 0.25,
          "durationTicks": 512,
          "midi": 34,
          "name": "A#1",
          "ticks": 347136,
          "time": 169.5,
          "velocity": 0.7874015748031497
        },
        {
          "duration": 0.25,
          "durationTicks": 512,
          "midi": 74,
          "name": "D5",
          "ticks": 347648,
          "time": 169.75,
          "velocity": 0.7874015748031497
        },
        {
          "duration": 0.25,
          "durationTicks": 512,
          "midi": 79,
          "name": "G5",
          "ticks": 347648,
          "time": 169.75,
          "velocity": 0.7874015748031497
        },
        {
          "duration": 0.25,
          "durationTicks": 512,
          "midi": 34,
          "name": "A#1",
          "ticks": 347648,
          "time": 169.75,
          "velocity": 0.7874015748031497
        },
        {
          "duration": 0.25,
          "durationTicks": 512,
          "midi": 72,
          "name": "C5",
          "ticks": 348160,
          "time": 170,
          "velocity": 0.7874015748031497
        },
        {
          "duration": 0.25,
          "durationTicks": 512,
          "midi": 77,
          "name": "F5",
          "ticks": 348160,
          "time": 170,
          "velocity": 0.7874015748031497
        },
        {
          "duration": 0.25,
          "durationTicks": 512,
          "midi": 27,
          "name": "D#1",
          "ticks": 348160,
          "time": 170,
          "velocity": 0.7874015748031497
        },
        {
          "duration": 0.125,
          "durationTicks": 256,
          "midi": 70,
          "name": "A#4",
          "ticks": 348672,
          "time": 170.25,
          "velocity": 0.7874015748031497
        },
        {
          "duration": 0.125,
          "durationTicks": 256,
          "midi": 75,
          "name": "D#5",
          "ticks": 348672,
          "time": 170.25,
          "velocity": 0.7874015748031497
        },
        {
          "duration": 0.0205078125,
          "durationTicks": 42,
          "midi": 27,
          "name": "D#1",
          "ticks": 348672,
          "time": 170.25,
          "velocity": 0.7874015748031497
        },
        {
          "duration": 1,
          "durationTicks": 2048,
          "midi": 70,
          "name": "A#4",
          "ticks": 348928,
          "time": 170.375,
          "velocity": 0.7874015748031497
        },
        {
          "duration": 1,
          "durationTicks": 2048,
          "midi": 75,
          "name": "D#5",
          "ticks": 348928,
          "time": 170.375,
          "velocity": 0.7874015748031497
        },
        {
          "duration": 0.25,
          "durationTicks": 512,
          "midi": 27,
          "name": "D#1",
          "ticks": 348928,
          "time": 170.375,
          "velocity": 0.7874015748031497
        },
        {
          "duration": 0.0205078125,
          "durationTicks": 42,
          "midi": 27,
          "name": "D#1",
          "ticks": 349440,
          "time": 170.625,
          "velocity": 0.7874015748031497
        },
        {
          "duration": 0.25,
          "durationTicks": 512,
          "midi": 27,
          "name": "D#1",
          "ticks": 349696,
          "time": 170.75,
          "velocity": 0.7874015748031497
        },
        {
          "duration": 0.0205078125,
          "durationTicks": 42,
          "midi": 27,
          "name": "D#1",
          "ticks": 350208,
          "time": 171,
          "velocity": 0.7874015748031497
        },
        {
          "duration": 0.25,
          "durationTicks": 512,
          "midi": 27,
          "name": "D#1",
          "ticks": 350464,
          "time": 171.125,
          "velocity": 0.7874015748031497
        },
        {
          "duration": 0.0205078125,
          "durationTicks": 42,
          "midi": 27,
          "name": "D#1",
          "ticks": 350976,
          "time": 171.375,
          "velocity": 0.7874015748031497
        },
        {
          "duration": 0.25,
          "durationTicks": 512,
          "midi": 75,
          "name": "D#5",
          "ticks": 351232,
          "time": 171.5,
          "velocity": 0.7874015748031497
        },
        {
          "duration": 0.25,
          "durationTicks": 512,
          "midi": 79,
          "name": "G5",
          "ticks": 351232,
          "time": 171.5,
          "velocity": 0.7874015748031497
        },
        {
          "duration": 0.25,
          "durationTicks": 512,
          "midi": 27,
          "name": "D#1",
          "ticks": 351232,
          "time": 171.5,
          "velocity": 0.7874015748031497
        },
        {
          "duration": 0.25,
          "durationTicks": 512,
          "midi": 79,
          "name": "G5",
          "ticks": 351744,
          "time": 171.75,
          "velocity": 0.7874015748031497
        },
        {
          "duration": 0.25,
          "durationTicks": 512,
          "midi": 82,
          "name": "A#5",
          "ticks": 351744,
          "time": 171.75,
          "velocity": 0.7874015748031497
        },
        {
          "duration": 0.25,
          "durationTicks": 512,
          "midi": 27,
          "name": "D#1",
          "ticks": 351744,
          "time": 171.75,
          "velocity": 0.7874015748031497
        },
        {
          "duration": 0.25,
          "durationTicks": 512,
          "midi": 79,
          "name": "G5",
          "ticks": 352256,
          "time": 172,
          "velocity": 0.7874015748031497
        },
        {
          "duration": 0.25,
          "durationTicks": 512,
          "midi": 84,
          "name": "C6",
          "ticks": 352256,
          "time": 172,
          "velocity": 0.7874015748031497
        },
        {
          "duration": 0.25,
          "durationTicks": 512,
          "midi": 36,
          "name": "C2",
          "ticks": 352256,
          "time": 172,
          "velocity": 0.7874015748031497
        },
        {
          "duration": 0.25,
          "durationTicks": 512,
          "midi": 36,
          "name": "C2",
          "ticks": 352768,
          "time": 172.25,
          "velocity": 0.7874015748031497
        },
        {
          "duration": 0.25,
          "durationTicks": 512,
          "midi": 79,
          "name": "G5",
          "ticks": 353280,
          "time": 172.5,
          "velocity": 0.7874015748031497
        },
        {
          "duration": 0.25,
          "durationTicks": 512,
          "midi": 84,
          "name": "C6",
          "ticks": 353280,
          "time": 172.5,
          "velocity": 0.7874015748031497
        },
        {
          "duration": 0.25,
          "durationTicks": 512,
          "midi": 36,
          "name": "C2",
          "ticks": 353280,
          "time": 172.5,
          "velocity": 0.7874015748031497
        },
        {
          "duration": 0.125,
          "durationTicks": 256,
          "midi": 82,
          "name": "A#5",
          "ticks": 353792,
          "time": 172.75,
          "velocity": 0.7874015748031497
        },
        {
          "duration": 0.125,
          "durationTicks": 256,
          "midi": 87,
          "name": "D#6",
          "ticks": 353792,
          "time": 172.75,
          "velocity": 0.7874015748031497
        },
        {
          "duration": 0.0625,
          "durationTicks": 128,
          "midi": 36,
          "name": "C2",
          "ticks": 353792,
          "time": 172.75,
          "velocity": 0.7874015748031497
        },
        {
          "duration": 0.375,
          "durationTicks": 768,
          "midi": 80,
          "name": "G#5",
          "ticks": 354048,
          "time": 172.875,
          "velocity": 0.7874015748031497
        },
        {
          "duration": 0.375,
          "durationTicks": 768,
          "midi": 84,
          "name": "C6",
          "ticks": 354048,
          "time": 172.875,
          "velocity": 0.7874015748031497
        },
        {
          "duration": 0.25,
          "durationTicks": 512,
          "midi": 32,
          "name": "G#1",
          "ticks": 354048,
          "time": 172.875,
          "velocity": 0.7874015748031497
        },
        {
          "duration": 0.125,
          "durationTicks": 256,
          "midi": 32,
          "name": "G#1",
          "ticks": 354560,
          "time": 173.125,
          "velocity": 0.7874015748031497
        },
        {
          "duration": 0.25,
          "durationTicks": 512,
          "midi": 32,
          "name": "G#1",
          "ticks": 354816,
          "time": 173.25,
          "velocity": 0.7874015748031497
        },
        {
          "duration": 0.25,
          "durationTicks": 512,
          "midi": 82,
          "name": "A#5",
          "ticks": 355328,
          "time": 173.5,
          "velocity": 0.7874015748031497
        },
        {
          "duration": 0.25,
          "durationTicks": 512,
          "midi": 84,
          "name": "C6",
          "ticks": 355328,
          "time": 173.5,
          "velocity": 0.7874015748031497
        },
        {
          "duration": 0.25,
          "durationTicks": 512,
          "midi": 32,
          "name": "G#1",
          "ticks": 355328,
          "time": 173.5,
          "velocity": 0.7874015748031497
        },
        {
          "duration": 0.25,
          "durationTicks": 512,
          "midi": 84,
          "name": "C6",
          "ticks": 355840,
          "time": 173.75,
          "velocity": 0.7874015748031497
        },
        {
          "duration": 0.25,
          "durationTicks": 512,
          "midi": 87,
          "name": "D#6",
          "ticks": 355840,
          "time": 173.75,
          "velocity": 0.7874015748031497
        },
        {
          "duration": 0.25,
          "durationTicks": 512,
          "midi": 32,
          "name": "G#1",
          "ticks": 355840,
          "time": 173.75,
          "velocity": 0.7874015748031497
        },
        {
          "duration": 0.25,
          "durationTicks": 512,
          "midi": 82,
          "name": "A#5",
          "ticks": 356352,
          "time": 174,
          "velocity": 0.7874015748031497
        },
        {
          "duration": 0.25,
          "durationTicks": 512,
          "midi": 86,
          "name": "D6",
          "ticks": 356352,
          "time": 174,
          "velocity": 0.7874015748031497
        },
        {
          "duration": 0.25,
          "durationTicks": 512,
          "midi": 34,
          "name": "A#1",
          "ticks": 356352,
          "time": 174,
          "velocity": 0.7874015748031497
        },
        {
          "duration": 0.125,
          "durationTicks": 256,
          "midi": 79,
          "name": "G5",
          "ticks": 356864,
          "time": 174.25,
          "velocity": 0.7874015748031497
        },
        {
          "duration": 0.125,
          "durationTicks": 256,
          "midi": 82,
          "name": "A#5",
          "ticks": 356864,
          "time": 174.25,
          "velocity": 0.7874015748031497
        },
        {
          "duration": 0.25,
          "durationTicks": 512,
          "midi": 34,
          "name": "A#1",
          "ticks": 356864,
          "time": 174.25,
          "velocity": 0.7874015748031497
        },
        {
          "duration": 0.25,
          "durationTicks": 512,
          "midi": 79,
          "name": "G5",
          "ticks": 357376,
          "time": 174.5,
          "velocity": 0.7874015748031497
        },
        {
          "duration": 0.25,
          "durationTicks": 512,
          "midi": 82,
          "name": "A#5",
          "ticks": 357376,
          "time": 174.5,
          "velocity": 0.7874015748031497
        },
        {
          "duration": 0.25,
          "durationTicks": 512,
          "midi": 34,
          "name": "A#1",
          "ticks": 357376,
          "time": 174.5,
          "velocity": 0.7874015748031497
        },
        {
          "duration": 0.125,
          "durationTicks": 256,
          "midi": 75,
          "name": "D#5",
          "ticks": 357888,
          "time": 174.75,
          "velocity": 0.7874015748031497
        },
        {
          "duration": 0.125,
          "durationTicks": 256,
          "midi": 79,
          "name": "G5",
          "ticks": 357888,
          "time": 174.75,
          "velocity": 0.7874015748031497
        },
        {
          "duration": 0.07275390625,
          "durationTicks": 149,
          "midi": 34,
          "name": "A#1",
          "ticks": 357888,
          "time": 174.75,
          "velocity": 0.7874015748031497
        },
        {
          "duration": 0.5,
          "durationTicks": 1024,
          "midi": 79,
          "name": "G5",
          "ticks": 358144,
          "time": 174.875,
          "velocity": 0.7874015748031497
        },
        {
          "duration": 0.5,
          "durationTicks": 1024,
          "midi": 82,
          "name": "A#5",
          "ticks": 358144,
          "time": 174.875,
          "velocity": 0.7874015748031497
        },
        {
          "duration": 0.25,
          "durationTicks": 512,
          "midi": 31,
          "name": "G1",
          "ticks": 358144,
          "time": 174.875,
          "velocity": 0.7874015748031497
        },
        {
          "duration": 0.125,
          "durationTicks": 256,
          "midi": 31,
          "name": "G1",
          "ticks": 358656,
          "time": 175.125,
          "velocity": 0.7874015748031497
        },
        {
          "duration": 0.25,
          "durationTicks": 512,
          "midi": 31,
          "name": "G1",
          "ticks": 358912,
          "time": 175.25,
          "velocity": 0.7874015748031497
        },
        {
          "duration": 0.25,
          "durationTicks": 512,
          "midi": 77,
          "name": "F5",
          "ticks": 359424,
          "time": 175.5,
          "velocity": 0.7874015748031497
        },
        {
          "duration": 0.25,
          "durationTicks": 512,
          "midi": 80,
          "name": "G#5",
          "ticks": 359424,
          "time": 175.5,
          "velocity": 0.7874015748031497
        },
        {
          "duration": 0.25,
          "durationTicks": 512,
          "midi": 29,
          "name": "F1",
          "ticks": 359424,
          "time": 175.5,
          "velocity": 0.7874015748031497
        },
        {
          "duration": 0.25,
          "durationTicks": 512,
          "midi": 79,
          "name": "G5",
          "ticks": 359936,
          "time": 175.75,
          "velocity": 0.7874015748031497
        },
        {
          "duration": 0.25,
          "durationTicks": 512,
          "midi": 82,
          "name": "A#5",
          "ticks": 359936,
          "time": 175.75,
          "velocity": 0.7874015748031497
        },
        {
          "duration": 0.25,
          "durationTicks": 512,
          "midi": 31,
          "name": "G1",
          "ticks": 359936,
          "time": 175.75,
          "velocity": 0.7874015748031497
        },
        {
          "duration": 0.25,
          "durationTicks": 512,
          "midi": 75,
          "name": "D#5",
          "ticks": 360448,
          "time": 176,
          "velocity": 0.7874015748031497
        },
        {
          "duration": 0.25,
          "durationTicks": 512,
          "midi": 80,
          "name": "G#5",
          "ticks": 360448,
          "time": 176,
          "velocity": 0.7874015748031497
        },
        {
          "duration": 0.25,
          "durationTicks": 512,
          "midi": 32,
          "name": "G#1",
          "ticks": 360448,
          "time": 176,
          "velocity": 0.7874015748031497
        },
        {
          "duration": 0.25,
          "durationTicks": 512,
          "midi": 32,
          "name": "G#1",
          "ticks": 360960,
          "time": 176.25,
          "velocity": 0.7874015748031497
        },
        {
          "duration": 0.25,
          "durationTicks": 512,
          "midi": 75,
          "name": "D#5",
          "ticks": 361472,
          "time": 176.5,
          "velocity": 0.7874015748031497
        },
        {
          "duration": 0.25,
          "durationTicks": 512,
          "midi": 80,
          "name": "G#5",
          "ticks": 361472,
          "time": 176.5,
          "velocity": 0.7874015748031497
        },
        {
          "duration": 0.25,
          "durationTicks": 512,
          "midi": 32,
          "name": "G#1",
          "ticks": 361472,
          "time": 176.5,
          "velocity": 0.7874015748031497
        },
        {
          "duration": 0.125,
          "durationTicks": 256,
          "midi": 77,
          "name": "F5",
          "ticks": 361984,
          "time": 176.75,
          "velocity": 0.7874015748031497
        },
        {
          "duration": 0.125,
          "durationTicks": 256,
          "midi": 82,
          "name": "A#5",
          "ticks": 361984,
          "time": 176.75,
          "velocity": 0.7874015748031497
        },
        {
          "duration": 0.07275390625,
          "durationTicks": 149,
          "midi": 32,
          "name": "G#1",
          "ticks": 361984,
          "time": 176.75,
          "velocity": 0.7874015748031497
        },
        {
          "duration": 0.5,
          "durationTicks": 1024,
          "midi": 72,
          "name": "C5",
          "ticks": 362240,
          "time": 176.875,
          "velocity": 0.7874015748031497
        },
        {
          "duration": 0.5,
          "durationTicks": 1024,
          "midi": 77,
          "name": "F5",
          "ticks": 362240,
          "time": 176.875,
          "velocity": 0.7874015748031497
        },
        {
          "duration": 0.25,
          "durationTicks": 512,
          "midi": 29,
          "name": "F1",
          "ticks": 362240,
          "time": 176.875,
          "velocity": 0.7874015748031497
        },
        {
          "duration": 0.125,
          "durationTicks": 256,
          "midi": 29,
          "name": "F1",
          "ticks": 362752,
          "time": 177.125,
          "velocity": 0.7874015748031497
        },
        {
          "duration": 0.25,
          "durationTicks": 512,
          "midi": 29,
          "name": "F1",
          "ticks": 363008,
          "time": 177.25,
          "velocity": 0.7874015748031497
        },
        {
          "duration": 0.25,
          "durationTicks": 512,
          "midi": 70,
          "name": "A#4",
          "ticks": 363520,
          "time": 177.5,
          "velocity": 0.7874015748031497
        },
        {
          "duration": 0.25,
          "durationTicks": 512,
          "midi": 75,
          "name": "D#5",
          "ticks": 363520,
          "time": 177.5,
          "velocity": 0.7874015748031497
        },
        {
          "duration": 0.25,
          "durationTicks": 512,
          "midi": 26,
          "name": "D1",
          "ticks": 363520,
          "time": 177.5,
          "velocity": 0.7874015748031497
        },
        {
          "duration": 0.25,
          "durationTicks": 512,
          "midi": 72,
          "name": "C5",
          "ticks": 364032,
          "time": 177.75,
          "velocity": 0.7874015748031497
        },
        {
          "duration": 0.25,
          "durationTicks": 512,
          "midi": 77,
          "name": "F5",
          "ticks": 364032,
          "time": 177.75,
          "velocity": 0.7874015748031497
        },
        {
          "duration": 0.25,
          "durationTicks": 512,
          "midi": 29,
          "name": "F1",
          "ticks": 364032,
          "time": 177.75,
          "velocity": 0.7874015748031497
        },
        {
          "duration": 0.25,
          "durationTicks": 512,
          "midi": 74,
          "name": "D5",
          "ticks": 364544,
          "time": 178,
          "velocity": 0.7874015748031497
        },
        {
          "duration": 0.25,
          "durationTicks": 512,
          "midi": 79,
          "name": "G5",
          "ticks": 364544,
          "time": 178,
          "velocity": 0.7874015748031497
        },
        {
          "duration": 0.25,
          "durationTicks": 512,
          "midi": 31,
          "name": "G1",
          "ticks": 364544,
          "time": 178,
          "velocity": 0.7874015748031497
        },
        {
          "duration": 0.25,
          "durationTicks": 512,
          "midi": 31,
          "name": "G1",
          "ticks": 365056,
          "time": 178.25,
          "velocity": 0.7874015748031497
        },
        {
          "duration": 0.5,
          "durationTicks": 1024,
          "midi": 79,
          "name": "G5",
          "ticks": 365568,
          "time": 178.5,
          "velocity": 0.7874015748031497
        },
        {
          "duration": 0.5,
          "durationTicks": 1024,
          "midi": 86,
          "name": "D6",
          "ticks": 365568,
          "time": 178.5,
          "velocity": 0.7874015748031497
        },
        {
          "duration": 0.25,
          "durationTicks": 512,
          "midi": 31,
          "name": "G1",
          "ticks": 365568,
          "time": 178.5,
          "velocity": 0.7874015748031497
        },
        {
          "duration": 0.07275390625,
          "durationTicks": 149,
          "midi": 31,
          "name": "G1",
          "ticks": 366080,
          "time": 178.75,
          "velocity": 0.7874015748031497
        },
        {
          "duration": 0.25,
          "durationTicks": 512,
          "midi": 34,
          "name": "A#1",
          "ticks": 366336,
          "time": 178.875,
          "velocity": 0.7874015748031497
        },
        {
          "duration": 0.375,
          "durationTicks": 768,
          "midi": 74,
          "name": "D5",
          "ticks": 366592,
          "time": 179,
          "velocity": 0.7874015748031497
        },
        {
          "duration": 0.375,
          "durationTicks": 768,
          "midi": 82,
          "name": "A#5",
          "ticks": 366592,
          "time": 179,
          "velocity": 0.7874015748031497
        },
        {
          "duration": 0.125,
          "durationTicks": 256,
          "midi": 34,
          "name": "A#1",
          "ticks": 366848,
          "time": 179.125,
          "velocity": 0.7874015748031497
        },
        {
          "duration": 0.25,
          "durationTicks": 512,
          "midi": 34,
          "name": "A#1",
          "ticks": 367104,
          "time": 179.25,
          "velocity": 0.7874015748031497
        },
        {
          "duration": 0.25,
          "durationTicks": 512,
          "midi": 75,
          "name": "D#5",
          "ticks": 367616,
          "time": 179.5,
          "velocity": 0.7874015748031497
        },
        {
          "duration": 0.25,
          "durationTicks": 512,
          "midi": 79,
          "name": "G5",
          "ticks": 367616,
          "time": 179.5,
          "velocity": 0.7874015748031497
        },
        {
          "duration": 0.25,
          "durationTicks": 512,
          "midi": 31,
          "name": "G1",
          "ticks": 367616,
          "time": 179.5,
          "velocity": 0.7874015748031497
        },
        {
          "duration": 0.25,
          "durationTicks": 512,
          "midi": 79,
          "name": "G5",
          "ticks": 368128,
          "time": 179.75,
          "velocity": 0.7874015748031497
        },
        {
          "duration": 0.25,
          "durationTicks": 512,
          "midi": 82,
          "name": "A#5",
          "ticks": 368128,
          "time": 179.75,
          "velocity": 0.7874015748031497
        },
        {
          "duration": 0.25,
          "durationTicks": 512,
          "midi": 34,
          "name": "A#1",
          "ticks": 368128,
          "time": 179.75,
          "velocity": 0.7874015748031497
        },
        {
          "duration": 0.25,
          "durationTicks": 512,
          "midi": 79,
          "name": "G5",
          "ticks": 368640,
          "time": 180,
          "velocity": 0.7874015748031497
        },
        {
          "duration": 0.25,
          "durationTicks": 512,
          "midi": 84,
          "name": "C6",
          "ticks": 368640,
          "time": 180,
          "velocity": 0.7874015748031497
        },
        {
          "duration": 0.25,
          "durationTicks": 512,
          "midi": 36,
          "name": "C2",
          "ticks": 368640,
          "time": 180,
          "velocity": 0.7874015748031497
        },
        {
          "duration": 0.25,
          "durationTicks": 512,
          "midi": 36,
          "name": "C2",
          "ticks": 369152,
          "time": 180.25,
          "velocity": 0.7874015748031497
        },
        {
          "duration": 0.25,
          "durationTicks": 512,
          "midi": 79,
          "name": "G5",
          "ticks": 369664,
          "time": 180.5,
          "velocity": 0.7874015748031497
        },
        {
          "duration": 0.25,
          "durationTicks": 512,
          "midi": 84,
          "name": "C6",
          "ticks": 369664,
          "time": 180.5,
          "velocity": 0.7874015748031497
        },
        {
          "duration": 0.25,
          "durationTicks": 512,
          "midi": 36,
          "name": "C2",
          "ticks": 369664,
          "time": 180.5,
          "velocity": 0.7874015748031497
        },
        {
          "duration": 0.125,
          "durationTicks": 256,
          "midi": 82,
          "name": "A#5",
          "ticks": 370176,
          "time": 180.75,
          "velocity": 0.7874015748031497
        },
        {
          "duration": 0.125,
          "durationTicks": 256,
          "midi": 87,
          "name": "D#6",
          "ticks": 370176,
          "time": 180.75,
          "velocity": 0.7874015748031497
        },
        {
          "duration": 0.07275390625,
          "durationTicks": 149,
          "midi": 36,
          "name": "C2",
          "ticks": 370176,
          "time": 180.75,
          "velocity": 0.7874015748031497
        },
        {
          "duration": 0.375,
          "durationTicks": 768,
          "midi": 80,
          "name": "G#5",
          "ticks": 370432,
          "time": 180.875,
          "velocity": 0.7874015748031497
        },
        {
          "duration": 0.375,
          "durationTicks": 768,
          "midi": 84,
          "name": "C6",
          "ticks": 370432,
          "time": 180.875,
          "velocity": 0.7874015748031497
        },
        {
          "duration": 0.25,
          "durationTicks": 512,
          "midi": 32,
          "name": "G#1",
          "ticks": 370432,
          "time": 180.875,
          "velocity": 0.7874015748031497
        },
        {
          "duration": 0.125,
          "durationTicks": 256,
          "midi": 32,
          "name": "G#1",
          "ticks": 370944,
          "time": 181.125,
          "velocity": 0.7874015748031497
        },
        {
          "duration": 0.25,
          "durationTicks": 512,
          "midi": 32,
          "name": "G#1",
          "ticks": 371200,
          "time": 181.25,
          "velocity": 0.7874015748031497
        },
        {
          "duration": 0.25,
          "durationTicks": 512,
          "midi": 82,
          "name": "A#5",
          "ticks": 371712,
          "time": 181.5,
          "velocity": 0.7874015748031497
        },
        {
          "duration": 0.25,
          "durationTicks": 512,
          "midi": 84,
          "name": "C6",
          "ticks": 371712,
          "time": 181.5,
          "velocity": 0.7874015748031497
        },
        {
          "duration": 0.25,
          "durationTicks": 512,
          "midi": 32,
          "name": "G#1",
          "ticks": 371712,
          "time": 181.5,
          "velocity": 0.7874015748031497
        },
        {
          "duration": 0.25,
          "durationTicks": 512,
          "midi": 84,
          "name": "C6",
          "ticks": 372224,
          "time": 181.75,
          "velocity": 0.7874015748031497
        },
        {
          "duration": 0.25,
          "durationTicks": 512,
          "midi": 87,
          "name": "D#6",
          "ticks": 372224,
          "time": 181.75,
          "velocity": 0.7874015748031497
        },
        {
          "duration": 0.25,
          "durationTicks": 512,
          "midi": 32,
          "name": "G#1",
          "ticks": 372224,
          "time": 181.75,
          "velocity": 0.7874015748031497
        },
        {
          "duration": 0.25,
          "durationTicks": 512,
          "midi": 82,
          "name": "A#5",
          "ticks": 372736,
          "time": 182,
          "velocity": 0.7874015748031497
        },
        {
          "duration": 0.25,
          "durationTicks": 512,
          "midi": 86,
          "name": "D6",
          "ticks": 372736,
          "time": 182,
          "velocity": 0.7874015748031497
        },
        {
          "duration": 0.25,
          "durationTicks": 512,
          "midi": 34,
          "name": "A#1",
          "ticks": 372736,
          "time": 182,
          "velocity": 0.7874015748031497
        },
        {
          "duration": 0.125,
          "durationTicks": 256,
          "midi": 79,
          "name": "G5",
          "ticks": 373248,
          "time": 182.25,
          "velocity": 0.7874015748031497
        },
        {
          "duration": 0.125,
          "durationTicks": 256,
          "midi": 82,
          "name": "A#5",
          "ticks": 373248,
          "time": 182.25,
          "velocity": 0.7874015748031497
        },
        {
          "duration": 0.25,
          "durationTicks": 512,
          "midi": 34,
          "name": "A#1",
          "ticks": 373248,
          "time": 182.25,
          "velocity": 0.7874015748031497
        },
        {
          "duration": 0.25,
          "durationTicks": 512,
          "midi": 79,
          "name": "G5",
          "ticks": 373760,
          "time": 182.5,
          "velocity": 0.7874015748031497
        },
        {
          "duration": 0.25,
          "durationTicks": 512,
          "midi": 82,
          "name": "A#5",
          "ticks": 373760,
          "time": 182.5,
          "velocity": 0.7874015748031497
        },
        {
          "duration": 0.25,
          "durationTicks": 512,
          "midi": 34,
          "name": "A#1",
          "ticks": 373760,
          "time": 182.5,
          "velocity": 0.7874015748031497
        },
        {
          "duration": 0.125,
          "durationTicks": 256,
          "midi": 75,
          "name": "D#5",
          "ticks": 374272,
          "time": 182.75,
          "velocity": 0.7874015748031497
        },
        {
          "duration": 0.125,
          "durationTicks": 256,
          "midi": 79,
          "name": "G5",
          "ticks": 374272,
          "time": 182.75,
          "velocity": 0.7874015748031497
        },
        {
          "duration": 0.07275390625,
          "durationTicks": 149,
          "midi": 34,
          "name": "A#1",
          "ticks": 374272,
          "time": 182.75,
          "velocity": 0.7874015748031497
        },
        {
          "duration": 0.5,
          "durationTicks": 1024,
          "midi": 79,
          "name": "G5",
          "ticks": 374528,
          "time": 182.875,
          "velocity": 0.7874015748031497
        },
        {
          "duration": 0.5,
          "durationTicks": 1024,
          "midi": 82,
          "name": "A#5",
          "ticks": 374528,
          "time": 182.875,
          "velocity": 0.7874015748031497
        },
        {
          "duration": 0.25,
          "durationTicks": 512,
          "midi": 31,
          "name": "G1",
          "ticks": 374528,
          "time": 182.875,
          "velocity": 0.7874015748031497
        },
        {
          "duration": 0.125,
          "durationTicks": 256,
          "midi": 31,
          "name": "G1",
          "ticks": 375040,
          "time": 183.125,
          "velocity": 0.7874015748031497
        },
        {
          "duration": 0.25,
          "durationTicks": 512,
          "midi": 31,
          "name": "G1",
          "ticks": 375296,
          "time": 183.25,
          "velocity": 0.7874015748031497
        },
        {
          "duration": 0.25,
          "durationTicks": 512,
          "midi": 77,
          "name": "F5",
          "ticks": 375808,
          "time": 183.5,
          "velocity": 0.7874015748031497
        },
        {
          "duration": 0.25,
          "durationTicks": 512,
          "midi": 80,
          "name": "G#5",
          "ticks": 375808,
          "time": 183.5,
          "velocity": 0.7874015748031497
        },
        {
          "duration": 0.25,
          "durationTicks": 512,
          "midi": 31,
          "name": "G1",
          "ticks": 375808,
          "time": 183.5,
          "velocity": 0.7874015748031497
        },
        {
          "duration": 0.25,
          "durationTicks": 512,
          "midi": 79,
          "name": "G5",
          "ticks": 376320,
          "time": 183.75,
          "velocity": 0.7874015748031497
        },
        {
          "duration": 0.25,
          "durationTicks": 512,
          "midi": 82,
          "name": "A#5",
          "ticks": 376320,
          "time": 183.75,
          "velocity": 0.7874015748031497
        },
        {
          "duration": 0.25,
          "durationTicks": 512,
          "midi": 31,
          "name": "G1",
          "ticks": 376320,
          "time": 183.75,
          "velocity": 0.7874015748031497
        },
        {
          "duration": 0.25,
          "durationTicks": 512,
          "midi": 77,
          "name": "F5",
          "ticks": 376832,
          "time": 184,
          "velocity": 0.7874015748031497
        },
        {
          "duration": 0.25,
          "durationTicks": 512,
          "midi": 80,
          "name": "G#5",
          "ticks": 376832,
          "time": 184,
          "velocity": 0.7874015748031497
        },
        {
          "duration": 0.25,
          "durationTicks": 512,
          "midi": 29,
          "name": "F1",
          "ticks": 376832,
          "time": 184,
          "velocity": 0.7874015748031497
        },
        {
          "duration": 0.25,
          "durationTicks": 512,
          "midi": 29,
          "name": "F1",
          "ticks": 377344,
          "time": 184.25,
          "velocity": 0.7874015748031497
        },
        {
          "duration": 0.25,
          "durationTicks": 512,
          "midi": 77,
          "name": "F5",
          "ticks": 377856,
          "time": 184.5,
          "velocity": 0.7874015748031497
        },
        {
          "duration": 0.25,
          "durationTicks": 512,
          "midi": 80,
          "name": "G#5",
          "ticks": 377856,
          "time": 184.5,
          "velocity": 0.7874015748031497
        },
        {
          "duration": 0.25,
          "durationTicks": 512,
          "midi": 29,
          "name": "F1",
          "ticks": 377856,
          "time": 184.5,
          "velocity": 0.7874015748031497
        },
        {
          "duration": 0.125,
          "durationTicks": 256,
          "midi": 79,
          "name": "G5",
          "ticks": 378368,
          "time": 184.75,
          "velocity": 0.7874015748031497
        },
        {
          "duration": 0.125,
          "durationTicks": 256,
          "midi": 82,
          "name": "A#5",
          "ticks": 378368,
          "time": 184.75,
          "velocity": 0.7874015748031497
        },
        {
          "duration": 0.07275390625,
          "durationTicks": 149,
          "midi": 29,
          "name": "F1",
          "ticks": 378368,
          "time": 184.75,
          "velocity": 0.7874015748031497
        },
        {
          "duration": 0.5,
          "durationTicks": 1024,
          "midi": 74,
          "name": "D5",
          "ticks": 378624,
          "time": 184.875,
          "velocity": 0.7874015748031497
        },
        {
          "duration": 0.5,
          "durationTicks": 1024,
          "midi": 77,
          "name": "F5",
          "ticks": 378624,
          "time": 184.875,
          "velocity": 0.7874015748031497
        },
        {
          "duration": 0.25,
          "durationTicks": 512,
          "midi": 34,
          "name": "A#1",
          "ticks": 378624,
          "time": 184.875,
          "velocity": 0.7874015748031497
        },
        {
          "duration": 0.125,
          "durationTicks": 256,
          "midi": 34,
          "name": "A#1",
          "ticks": 379136,
          "time": 185.125,
          "velocity": 0.7874015748031497
        },
        {
          "duration": 0.25,
          "durationTicks": 512,
          "midi": 34,
          "name": "A#1",
          "ticks": 379392,
          "time": 185.25,
          "velocity": 0.7874015748031497
        },
        {
          "duration": 0.25,
          "durationTicks": 512,
          "midi": 72,
          "name": "C5",
          "ticks": 379904,
          "time": 185.5,
          "velocity": 0.7874015748031497
        },
        {
          "duration": 0.25,
          "durationTicks": 512,
          "midi": 77,
          "name": "F5",
          "ticks": 379904,
          "time": 185.5,
          "velocity": 0.7874015748031497
        },
        {
          "duration": 0.25,
          "durationTicks": 512,
          "midi": 34,
          "name": "A#1",
          "ticks": 379904,
          "time": 185.5,
          "velocity": 0.7874015748031497
        },
        {
          "duration": 0.25,
          "durationTicks": 512,
          "midi": 74,
          "name": "D5",
          "ticks": 380416,
          "time": 185.75,
          "velocity": 0.7874015748031497
        },
        {
          "duration": 0.25,
          "durationTicks": 512,
          "midi": 79,
          "name": "G5",
          "ticks": 380416,
          "time": 185.75,
          "velocity": 0.7874015748031497
        },
        {
          "duration": 0.25,
          "durationTicks": 512,
          "midi": 34,
          "name": "A#1",
          "ticks": 380416,
          "time": 185.75,
          "velocity": 0.7874015748031497
        },
        {
          "duration": 0.25,
          "durationTicks": 512,
          "midi": 72,
          "name": "C5",
          "ticks": 380928,
          "time": 186,
          "velocity": 0.7874015748031497
        },
        {
          "duration": 0.25,
          "durationTicks": 512,
          "midi": 77,
          "name": "F5",
          "ticks": 380928,
          "time": 186,
          "velocity": 0.7874015748031497
        },
        {
          "duration": 0.25,
          "durationTicks": 512,
          "midi": 27,
          "name": "D#1",
          "ticks": 380928,
          "time": 186,
          "velocity": 0.7874015748031497
        },
        {
          "duration": 0.125,
          "durationTicks": 256,
          "midi": 70,
          "name": "A#4",
          "ticks": 381440,
          "time": 186.25,
          "velocity": 0.7874015748031497
        },
        {
          "duration": 0.125,
          "durationTicks": 256,
          "midi": 75,
          "name": "D#5",
          "ticks": 381440,
          "time": 186.25,
          "velocity": 0.7874015748031497
        },
        {
          "duration": 0.0205078125,
          "durationTicks": 42,
          "midi": 27,
          "name": "D#1",
          "ticks": 381440,
          "time": 186.25,
          "velocity": 0.7874015748031497
        },
        {
          "duration": 0.625,
          "durationTicks": 1280,
          "midi": 70,
          "name": "A#4",
          "ticks": 381696,
          "time": 186.375,
          "velocity": 0.7874015748031497
        },
        {
          "duration": 0.625,
          "durationTicks": 1280,
          "midi": 75,
          "name": "D#5",
          "ticks": 381696,
          "time": 186.375,
          "velocity": 0.7874015748031497
        },
        {
          "duration": 0.125,
          "durationTicks": 256,
          "midi": 27,
          "name": "D#1",
          "ticks": 381696,
          "time": 186.375,
          "velocity": 0.7874015748031497
        },
        {
          "duration": 0.0625,
          "durationTicks": 128,
          "midi": 36,
          "name": "C2",
          "ticks": 381952,
          "time": 186.5,
          "velocity": 0.5039370078740157
        },
        {
          "duration": 0.0625,
          "durationTicks": 128,
          "midi": 39,
          "name": "D#2",
          "ticks": 382080,
          "time": 186.5625,
          "velocity": 0.5039370078740157
        },
        {
          "duration": 0.0625,
          "durationTicks": 128,
          "midi": 41,
          "name": "F2",
          "ticks": 382208,
          "time": 186.625,
          "velocity": 0.5039370078740157
        },
        {
          "duration": 0.0625,
          "durationTicks": 128,
          "midi": 43,
          "name": "G2",
          "ticks": 382336,
          "time": 186.6875,
          "velocity": 0.5039370078740157
        },
        {
          "duration": 0.0625,
          "durationTicks": 128,
          "midi": 46,
          "name": "A#2",
          "ticks": 382464,
          "time": 186.75,
          "velocity": 0.5039370078740157
        },
        {
          "duration": 0.0625,
          "durationTicks": 128,
          "midi": 48,
          "name": "C3",
          "ticks": 382592,
          "time": 186.8125,
          "velocity": 0.5039370078740157
        },
        {
          "duration": 0.0625,
          "durationTicks": 128,
          "midi": 51,
          "name": "D#3",
          "ticks": 382720,
          "time": 186.875,
          "velocity": 0.5039370078740157
        },
        {
          "duration": 0.0625,
          "durationTicks": 128,
          "midi": 53,
          "name": "F3",
          "ticks": 382848,
          "time": 186.9375,
          "velocity": 0.5039370078740157
        },
        {
          "duration": 0.0625,
          "durationTicks": 128,
          "midi": 55,
          "name": "G3",
          "ticks": 382976,
          "time": 187,
          "velocity": 0.5039370078740157
        },
        {
          "duration": 0.0625,
          "durationTicks": 128,
          "midi": 58,
          "name": "A#3",
          "ticks": 383104,
          "time": 187.0625,
          "velocity": 0.5039370078740157
        },
        {
          "duration": 0.0625,
          "durationTicks": 128,
          "midi": 60,
          "name": "C4",
          "ticks": 383232,
          "time": 187.125,
          "velocity": 0.5039370078740157
        },
        {
          "duration": 0.0625,
          "durationTicks": 128,
          "midi": 63,
          "name": "D#4",
          "ticks": 383360,
          "time": 187.1875,
          "velocity": 0.5039370078740157
        },
        {
          "duration": 0.0625,
          "durationTicks": 128,
          "midi": 65,
          "name": "F4",
          "ticks": 383488,
          "time": 187.25,
          "velocity": 0.5039370078740157
        },
        {
          "duration": 0.0625,
          "durationTicks": 128,
          "midi": 67,
          "name": "G4",
          "ticks": 383616,
          "time": 187.3125,
          "velocity": 0.5039370078740157
        },
        {
          "duration": 0.0625,
          "durationTicks": 128,
          "midi": 70,
          "name": "A#4",
          "ticks": 383744,
          "time": 187.375,
          "velocity": 0.5039370078740157
        },
        {
          "duration": 0.0625,
          "durationTicks": 128,
          "midi": 72,
          "name": "C5",
          "ticks": 383872,
          "time": 187.4375,
          "velocity": 0.5039370078740157
        },
        {
          "duration": 0.0625,
          "durationTicks": 128,
          "midi": 75,
          "name": "D#5",
          "ticks": 384000,
          "time": 187.5,
          "velocity": 0.5039370078740157
        },
        {
          "duration": 0.0625,
          "durationTicks": 128,
          "midi": 77,
          "name": "F5",
          "ticks": 384128,
          "time": 187.5625,
          "velocity": 0.5039370078740157
        },
        {
          "duration": 0.0625,
          "durationTicks": 128,
          "midi": 79,
          "name": "G5",
          "ticks": 384256,
          "time": 187.625,
          "velocity": 0.5039370078740157
        },
        {
          "duration": 0.0625,
          "durationTicks": 128,
          "midi": 82,
          "name": "A#5",
          "ticks": 384384,
          "time": 187.6875,
          "velocity": 0.5039370078740157
        },
        {
          "duration": 0.0625,
          "durationTicks": 128,
          "midi": 84,
          "name": "C6",
          "ticks": 384512,
          "time": 187.75,
          "velocity": 0.5039370078740157
        },
        {
          "duration": 0.0625,
          "durationTicks": 128,
          "midi": 87,
          "name": "D#6",
          "ticks": 384640,
          "time": 187.8125,
          "velocity": 0.5039370078740157
        },
        {
          "duration": 0.0625,
          "durationTicks": 128,
          "midi": 89,
          "name": "F6",
          "ticks": 384768,
          "time": 187.875,
          "velocity": 0.5039370078740157
        },
        {
          "duration": 0.0625,
          "durationTicks": 128,
          "midi": 91,
          "name": "G6",
          "ticks": 384896,
          "time": 187.9375,
          "velocity": 0.5039370078740157
        },
        {
          "duration": 0.5,
          "durationTicks": 1024,
          "midi": 72,
          "name": "C5",
          "ticks": 385024,
          "time": 188,
          "velocity": 0.7874015748031497
        },
        {
          "duration": 0.75,
          "durationTicks": 1536,
          "midi": 48,
          "name": "C3",
          "ticks": 385024,
          "time": 188,
          "velocity": 0.7874015748031497
        },
        {
          "duration": 0.25,
          "durationTicks": 512,
          "midi": 51,
          "name": "D#3",
          "ticks": 385024,
          "time": 188,
          "velocity": 0.5039370078740157
        },
        {
          "duration": 0.5,
          "durationTicks": 1024,
          "midi": 55,
          "name": "G3",
          "ticks": 385536,
          "time": 188.25,
          "velocity": 0.7874015748031497
        },
        {
          "duration": 0.25,
          "durationTicks": 512,
          "midi": 72,
          "name": "C5",
          "ticks": 386048,
          "time": 188.5,
          "velocity": 0.7874015748031497
        },
        {
          "duration": 0.5,
          "durationTicks": 1024,
          "midi": 63,
          "name": "D#4",
          "ticks": 386048,
          "time": 188.5,
          "velocity": 0.7874015748031497
        },
        {
          "duration": 0.25,
          "durationTicks": 512,
          "midi": 75,
          "name": "D#5",
          "ticks": 386560,
          "time": 188.75,
          "velocity": 0.7874015748031497
        },
        {
          "duration": 0.25,
          "durationTicks": 512,
          "midi": 60,
          "name": "C4",
          "ticks": 386560,
          "time": 188.75,
          "velocity": 0.7874015748031497
        },
        {
          "duration": 0.75,
          "durationTicks": 1536,
          "midi": 72,
          "name": "C5",
          "ticks": 387072,
          "time": 189,
          "velocity": 0.7874015748031497
        },
        {
          "duration": 0.75,
          "durationTicks": 1536,
          "midi": 44,
          "name": "G#2",
          "ticks": 387072,
          "time": 189,
          "velocity": 0.7874015748031497
        },
        {
          "duration": 0.5,
          "durationTicks": 1024,
          "midi": 56,
          "name": "G#3",
          "ticks": 387072,
          "time": 189,
          "velocity": 0.7874015748031497
        },
        {
          "duration": 0.5,
          "durationTicks": 1024,
          "midi": 51,
          "name": "D#3",
          "ticks": 387584,
          "time": 189.25,
          "velocity": 0.7874015748031497
        },
        {
          "duration": 0.5,
          "durationTicks": 1024,
          "midi": 63,
          "name": "D#4",
          "ticks": 388096,
          "time": 189.5,
          "velocity": 0.7874015748031497
        },
        {
          "duration": 0.25,
          "durationTicks": 512,
          "midi": 75,
          "name": "D#5",
          "ticks": 388608,
          "time": 189.75,
          "velocity": 0.7874015748031497
        },
        {
          "duration": 0.25,
          "durationTicks": 512,
          "midi": 60,
          "name": "C4",
          "ticks": 388608,
          "time": 189.75,
          "velocity": 0.7874015748031497
        },
        {
          "duration": 0.5,
          "durationTicks": 1024,
          "midi": 74,
          "name": "D5",
          "ticks": 389120,
          "time": 190,
          "velocity": 0.7874015748031497
        },
        {
          "duration": 0.75,
          "durationTicks": 1536,
          "midi": 46,
          "name": "A#2",
          "ticks": 389120,
          "time": 190,
          "velocity": 0.7874015748031497
        },
        {
          "duration": 0.5,
          "durationTicks": 1024,
          "midi": 58,
          "name": "A#3",
          "ticks": 389120,
          "time": 190,
          "velocity": 0.7874015748031497
        },
        {
          "duration": 0.5,
          "durationTicks": 1024,
          "midi": 55,
          "name": "G3",
          "ticks": 389632,
          "time": 190.25,
          "velocity": 0.7874015748031497
        },
        {
          "duration": 0.25,
          "durationTicks": 512,
          "midi": 70,
          "name": "A#4",
          "ticks": 390144,
          "time": 190.5,
          "velocity": 0.7874015748031497
        },
        {
          "duration": 0.5,
          "durationTicks": 1024,
          "midi": 65,
          "name": "F4",
          "ticks": 390144,
          "time": 190.5,
          "velocity": 0.7874015748031497
        },
        {
          "duration": 0.25,
          "durationTicks": 512,
          "midi": 67,
          "name": "G4",
          "ticks": 390656,
          "time": 190.75,
          "velocity": 0.7874015748031497
        },
        {
          "duration": 0.25,
          "durationTicks": 512,
          "midi": 62,
          "name": "D4",
          "ticks": 390656,
          "time": 190.75,
          "velocity": 0.7874015748031497
        },
        {
          "duration": 0.5,
          "durationTicks": 1024,
          "midi": 70,
          "name": "A#4",
          "ticks": 391168,
          "time": 191,
          "velocity": 0.7874015748031497
        },
        {
          "duration": 0.75,
          "durationTicks": 1536,
          "midi": 43,
          "name": "G2",
          "ticks": 391168,
          "time": 191,
          "velocity": 0.7874015748031497
        },
        {
          "duration": 0.5,
          "durationTicks": 1024,
          "midi": 55,
          "name": "G3",
          "ticks": 391680,
          "time": 191.25,
          "velocity": 0.7874015748031497
        },
        {
          "duration": 0.25,
          "durationTicks": 512,
          "midi": 68,
          "name": "G#4",
          "ticks": 392192,
          "time": 191.5,
          "velocity": 0.7874015748031497
        },
        {
          "duration": 0.5,
          "durationTicks": 1024,
          "midi": 62,
          "name": "D4",
          "ticks": 392192,
          "time": 191.5,
          "velocity": 0.7874015748031497
        },
        {
          "duration": 0.25,
          "durationTicks": 512,
          "midi": 70,
          "name": "A#4",
          "ticks": 392704,
          "time": 191.75,
          "velocity": 0.7874015748031497
        },
        {
          "duration": 0.25,
          "durationTicks": 512,
          "midi": 58,
          "name": "A#3",
          "ticks": 392704,
          "time": 191.75,
          "velocity": 0.7874015748031497
        },
        {
          "duration": 0.5,
          "durationTicks": 1024,
          "midi": 68,
          "name": "G#4",
          "ticks": 393216,
          "time": 192,
          "velocity": 0.7874015748031497
        },
        {
          "duration": 0.5,
          "durationTicks": 1024,
          "midi": 72,
          "name": "C5",
          "ticks": 393216,
          "time": 192,
          "velocity": 0.7874015748031497
        },
        {
          "duration": 0.875,
          "durationTicks": 1792,
          "midi": 44,
          "name": "G#2",
          "ticks": 393216,
          "time": 192,
          "velocity": 0.7874015748031497
        },
        {
          "duration": 0.5,
          "durationTicks": 1024,
          "midi": 56,
          "name": "G#3",
          "ticks": 393216,
          "time": 192,
          "velocity": 0.7874015748031497
        },
        {
          "duration": 0.5,
          "durationTicks": 1024,
          "midi": 51,
          "name": "D#3",
          "ticks": 393728,
          "time": 192.25,
          "velocity": 0.7874015748031497
        },
        {
          "duration": 0.5,
          "durationTicks": 1024,
          "midi": 63,
          "name": "D#4",
          "ticks": 394240,
          "time": 192.5,
          "velocity": 0.7874015748031497
        },
        {
          "duration": 0.5,
          "durationTicks": 1024,
          "midi": 63,
          "name": "D#4",
          "ticks": 394240,
          "time": 192.5,
          "velocity": 0.7874015748031497
        },
        {
          "duration": 0.25,
          "durationTicks": 512,
          "midi": 72,
          "name": "C5",
          "ticks": 394752,
          "time": 192.75,
          "velocity": 0.7874015748031497
        },
        {
          "duration": 0.25,
          "durationTicks": 512,
          "midi": 60,
          "name": "C4",
          "ticks": 394752,
          "time": 192.75,
          "velocity": 0.7874015748031497
        },
        {
          "duration": 0.5,
          "durationTicks": 1024,
          "midi": 65,
          "name": "F4",
          "ticks": 395264,
          "time": 193,
          "velocity": 0.7874015748031497
        },
        {
          "duration": 0.75,
          "durationTicks": 1536,
          "midi": 41,
          "name": "F2",
          "ticks": 395264,
          "time": 193,
          "velocity": 0.7874015748031497
        },
        {
          "duration": 0.5,
          "durationTicks": 1024,
          "midi": 53,
          "name": "F3",
          "ticks": 395264,
          "time": 193,
          "velocity": 0.7874015748031497
        },
        {
          "duration": 0.5,
          "durationTicks": 1024,
          "midi": 48,
          "name": "C3",
          "ticks": 395776,
          "time": 193.25,
          "velocity": 0.7874015748031497
        },
        {
          "duration": 0.25,
          "durationTicks": 512,
          "midi": 63,
          "name": "D#4",
          "ticks": 396288,
          "time": 193.5,
          "velocity": 0.7874015748031497
        },
        {
          "duration": 0.5,
          "durationTicks": 1024,
          "midi": 60,
          "name": "C4",
          "ticks": 396288,
          "time": 193.5,
          "velocity": 0.7874015748031497
        },
        {
          "duration": 0.25,
          "durationTicks": 512,
          "midi": 65,
          "name": "F4",
          "ticks": 396800,
          "time": 193.75,
          "velocity": 0.7874015748031497
        },
        {
          "duration": 0.25,
          "durationTicks": 512,
          "midi": 56,
          "name": "G#3",
          "ticks": 396800,
          "time": 193.75,
          "velocity": 0.7874015748031497
        },
        {
          "duration": 0.5,
          "durationTicks": 1024,
          "midi": 67,
          "name": "G4",
          "ticks": 397312,
          "time": 194,
          "velocity": 0.7874015748031497
        },
        {
          "duration": 1.625,
          "durationTicks": 3328,
          "midi": 43,
          "name": "G2",
          "ticks": 397312,
          "time": 194,
          "velocity": 0.7874015748031497
        },
        {
          "duration": 0.5,
          "durationTicks": 1024,
          "midi": 55,
          "name": "G3",
          "ticks": 397312,
          "time": 194,
          "velocity": 0.7874015748031497
        },
        {
          "duration": 0.5,
          "durationTicks": 1024,
          "midi": 58,
          "name": "A#3",
          "ticks": 397824,
          "time": 194.25,
          "velocity": 0.7874015748031497
        },
        {
          "duration": 0.25,
          "durationTicks": 512,
          "midi": 74,
          "name": "D5",
          "ticks": 398336,
          "time": 194.5,
          "velocity": 0.7874015748031497
        },
        {
          "duration": 0.5,
          "durationTicks": 1024,
          "midi": 62,
          "name": "D4",
          "ticks": 398336,
          "time": 194.5,
          "velocity": 0.7874015748031497
        },
        {
          "duration": 0.25,
          "durationTicks": 512,
          "midi": 70,
          "name": "A#4",
          "ticks": 398848,
          "time": 194.75,
          "velocity": 0.7874015748031497
        },
        {
          "duration": 0.5,
          "durationTicks": 1024,
          "midi": 65,
          "name": "F4",
          "ticks": 398848,
          "time": 194.75,
          "velocity": 0.7874015748031497
        },
        {
          "duration": 0.5,
          "durationTicks": 1024,
          "midi": 70,
          "name": "A#4",
          "ticks": 399360,
          "time": 195,
          "velocity": 0.7874015748031497
        },
        {
          "duration": 0.5,
          "durationTicks": 1024,
          "midi": 67,
          "name": "G4",
          "ticks": 399360,
          "time": 195,
          "velocity": 0.7874015748031497
        },
        {
          "duration": 0.5,
          "durationTicks": 1024,
          "midi": 62,
          "name": "D4",
          "ticks": 399872,
          "time": 195.25,
          "velocity": 0.7874015748031497
        },
        {
          "duration": 0.25,
          "durationTicks": 512,
          "midi": 68,
          "name": "G#4",
          "ticks": 400384,
          "time": 195.5,
          "velocity": 0.7874015748031497
        },
        {
          "duration": 0.5,
          "durationTicks": 1024,
          "midi": 58,
          "name": "A#3",
          "ticks": 400384,
          "time": 195.5,
          "velocity": 0.7874015748031497
        },
        {
          "duration": 0.25,
          "durationTicks": 512,
          "midi": 71,
          "name": "B4",
          "ticks": 400896,
          "time": 195.75,
          "velocity": 0.7874015748031497
        },
        {
          "duration": 0.125,
          "durationTicks": 256,
          "midi": 55,
          "name": "G3",
          "ticks": 400896,
          "time": 195.75,
          "velocity": 0.7874015748031497
        },
        {
          "duration": 0.5,
          "durationTicks": 1024,
          "midi": 73,
          "name": "C#5",
          "ticks": 401408,
          "time": 196,
          "velocity": 0.7874015748031497
        },
        {
          "duration": 0.75,
          "durationTicks": 1536,
          "midi": 49,
          "name": "C#3",
          "ticks": 401408,
          "time": 196,
          "velocity": 0.7874015748031497
        },
        {
          "duration": 0.5,
          "durationTicks": 1024,
          "midi": 52,
          "name": "E3",
          "ticks": 401408,
          "time": 196,
          "velocity": 0.7874015748031497
        },
        {
          "duration": 0.25,
          "durationTicks": 512,
          "midi": 61,
          "name": "C#4",
          "ticks": 401408,
          "time": 196,
          "velocity": 0.5039370078740157
        },
        {
          "duration": 0.5,
          "durationTicks": 1024,
          "midi": 56,
          "name": "G#3",
          "ticks": 401920,
          "time": 196.25,
          "velocity": 0.7874015748031497
        },
        {
          "duration": 0.25,
          "durationTicks": 512,
          "midi": 73,
          "name": "C#5",
          "ticks": 402432,
          "time": 196.5,
          "velocity": 0.7874015748031497
        },
        {
          "duration": 0.5,
          "durationTicks": 1024,
          "midi": 64,
          "name": "E4",
          "ticks": 402432,
          "time": 196.5,
          "velocity": 0.7874015748031497
        },
        {
          "duration": 0.25,
          "durationTicks": 512,
          "midi": 76,
          "name": "E5",
          "ticks": 402944,
          "time": 196.75,
          "velocity": 0.7874015748031497
        },
        {
          "duration": 0.25,
          "durationTicks": 512,
          "midi": 61,
          "name": "C#4",
          "ticks": 402944,
          "time": 196.75,
          "velocity": 0.7874015748031497
        },
        {
          "duration": 0.75,
          "durationTicks": 1536,
          "midi": 73,
          "name": "C#5",
          "ticks": 403456,
          "time": 197,
          "velocity": 0.7874015748031497
        },
        {
          "duration": 0.75,
          "durationTicks": 1536,
          "midi": 45,
          "name": "A2",
          "ticks": 403456,
          "time": 197,
          "velocity": 0.7874015748031497
        },
        {
          "duration": 0.5,
          "durationTicks": 1024,
          "midi": 57,
          "name": "A3",
          "ticks": 403456,
          "time": 197,
          "velocity": 0.7874015748031497
        },
        {
          "duration": 0.5,
          "durationTicks": 1024,
          "midi": 52,
          "name": "E3",
          "ticks": 403968,
          "time": 197.25,
          "velocity": 0.7874015748031497
        },
        {
          "duration": 0.5,
          "durationTicks": 1024,
          "midi": 64,
          "name": "E4",
          "ticks": 404480,
          "time": 197.5,
          "velocity": 0.7874015748031497
        },
        {
          "duration": 0.25,
          "durationTicks": 512,
          "midi": 76,
          "name": "E5",
          "ticks": 404992,
          "time": 197.75,
          "velocity": 0.7874015748031497
        },
        {
          "duration": 0.25,
          "durationTicks": 512,
          "midi": 61,
          "name": "C#4",
          "ticks": 404992,
          "time": 197.75,
          "velocity": 0.7874015748031497
        },
        {
          "duration": 0.25,
          "durationTicks": 512,
          "midi": 75,
          "name": "D#5",
          "ticks": 405504,
          "time": 198,
          "velocity": 0.7874015748031497
        },
        {
          "duration": 0.75,
          "durationTicks": 1536,
          "midi": 47,
          "name": "B2",
          "ticks": 405504,
          "time": 198,
          "velocity": 0.7874015748031497
        },
        {
          "duration": 0.5,
          "durationTicks": 1024,
          "midi": 59,
          "name": "B3",
          "ticks": 405504,
          "time": 198,
          "velocity": 0.7874015748031497
        },
        {
          "duration": 0.25,
          "durationTicks": 512,
          "midi": 71,
          "name": "B4",
          "ticks": 406016,
          "time": 198.25,
          "velocity": 0.7874015748031497
        },
        {
          "duration": 0.5,
          "durationTicks": 1024,
          "midi": 56,
          "name": "G#3",
          "ticks": 406016,
          "time": 198.25,
          "velocity": 0.7874015748031497
        },
        {
          "duration": 0.25,
          "durationTicks": 512,
          "midi": 71,
          "name": "B4",
          "ticks": 406528,
          "time": 198.5,
          "velocity": 0.7874015748031497
        },
        {
          "duration": 0.5,
          "durationTicks": 1024,
          "midi": 66,
          "name": "F#4",
          "ticks": 406528,
          "time": 198.5,
          "velocity": 0.7874015748031497
        },
        {
          "duration": 0.25,
          "durationTicks": 512,
          "midi": 68,
          "name": "G#4",
          "ticks": 407040,
          "time": 198.75,
          "velocity": 0.7874015748031497
        },
        {
          "duration": 0.25,
          "durationTicks": 512,
          "midi": 63,
          "name": "D#4",
          "ticks": 407040,
          "time": 198.75,
          "velocity": 0.7874015748031497
        },
        {
          "duration": 0.5,
          "durationTicks": 1024,
          "midi": 71,
          "name": "B4",
          "ticks": 407552,
          "time": 199,
          "velocity": 0.7874015748031497
        },
        {
          "duration": 0.75,
          "durationTicks": 1536,
          "midi": 44,
          "name": "G#2",
          "ticks": 407552,
          "time": 199,
          "velocity": 0.7874015748031497
        },
        {
          "duration": 0.25,
          "durationTicks": 512,
          "midi": 47,
          "name": "B2",
          "ticks": 407552,
          "time": 199,
          "velocity": 0.5039370078740157
        },
        {
          "duration": 0.5,
          "durationTicks": 1024,
          "midi": 56,
          "name": "G#3",
          "ticks": 408064,
          "time": 199.25,
          "velocity": 0.7874015748031497
        },
        {
          "duration": 0.5,
          "durationTicks": 1024,
          "midi": 68,
          "name": "G#4",
          "ticks": 408576,
          "time": 199.5,
          "velocity": 0.7874015748031497
        },
        {
          "duration": 0.5,
          "durationTicks": 1024,
          "midi": 63,
          "name": "D#4",
          "ticks": 408576,
          "time": 199.5,
          "velocity": 0.7874015748031497
        },
        {
          "duration": 0.25,
          "durationTicks": 512,
          "midi": 59,
          "name": "B3",
          "ticks": 409088,
          "time": 199.75,
          "velocity": 0.7874015748031497
        },
        {
          "duration": 0.75,
          "durationTicks": 1536,
          "midi": 69,
          "name": "A4",
          "ticks": 409600,
          "time": 200,
          "velocity": 0.7874015748031497
        },
        {
          "duration": 0.75,
          "durationTicks": 1536,
          "midi": 42,
          "name": "F#2",
          "ticks": 409600,
          "time": 200,
          "velocity": 0.7874015748031497
        },
        {
          "duration": 0.25,
          "durationTicks": 512,
          "midi": 52,
          "name": "E3",
          "ticks": 409600,
          "time": 200,
          "velocity": 0.5039370078740157
        },
        {
          "duration": 0.375,
          "durationTicks": 768,
          "midi": 52,
          "name": "E3",
          "ticks": 410112,
          "time": 200.25,
          "velocity": 0.7874015748031497
        },
        {
          "duration": 0.375,
          "durationTicks": 768,
          "midi": 61,
          "name": "C#4",
          "ticks": 410368,
          "time": 200.375,
          "velocity": 0.7874015748031497
        },
        {
          "duration": 0.375,
          "durationTicks": 768,
          "midi": 52,
          "name": "E3",
          "ticks": 410880,
          "time": 200.625,
          "velocity": 0.7874015748031497
        },
        {
          "duration": 0.25,
          "durationTicks": 512,
          "midi": 69,
          "name": "A4",
          "ticks": 411136,
          "time": 200.75,
          "velocity": 0.7874015748031497
        },
        {
          "duration": 0.375,
          "durationTicks": 768,
          "midi": 57,
          "name": "A3",
          "ticks": 411136,
          "time": 200.75,
          "velocity": 0.7874015748031497
        },
        {
          "duration": 0.5,
          "durationTicks": 1024,
          "midi": 71,
          "name": "B4",
          "ticks": 411648,
          "time": 201,
          "velocity": 0.7874015748031497
        },
        {
          "duration": 0.75,
          "durationTicks": 1536,
          "midi": 47,
          "name": "B2",
          "ticks": 411648,
          "time": 201,
          "velocity": 0.7874015748031497
        },
        {
          "duration": 0.5,
          "durationTicks": 1024,
          "midi": 54,
          "name": "F#3",
          "ticks": 411648,
          "time": 201,
          "velocity": 0.7874015748031497
        },
        {
          "duration": 0.375,
          "durationTicks": 768,
          "midi": 59,
          "name": "B3",
          "ticks": 411648,
          "time": 201,
          "velocity": 0.7874015748031497
        },
        {
          "duration": 0.5,
          "durationTicks": 1024,
          "midi": 57,
          "name": "A3",
          "ticks": 412160,
          "time": 201.25,
          "velocity": 0.7874015748031497
        },
        {
          "duration": 0.5,
          "durationTicks": 1024,
          "midi": 71,
          "name": "B4",
          "ticks": 412672,
          "time": 201.5,
          "velocity": 0.7874015748031497
        },
        {
          "duration": 0.5,
          "durationTicks": 1024,
          "midi": 61,
          "name": "C#4",
          "ticks": 412672,
          "time": 201.5,
          "velocity": 0.7874015748031497
        },
        {
          "duration": 0.25,
          "durationTicks": 512,
          "midi": 57,
          "name": "A3",
          "ticks": 413184,
          "time": 201.75,
          "velocity": 0.7874015748031497
        },
        {
          "duration": 0.75,
          "durationTicks": 1536,
          "midi": 76,
          "name": "E5",
          "ticks": 413696,
          "time": 202,
          "velocity": 0.7874015748031497
        },
        {
          "duration": 0.875,
          "durationTicks": 1792,
          "midi": 52,
          "name": "E3",
          "ticks": 413696,
          "time": 202,
          "velocity": 0.7874015748031497
        },
        {
          "duration": 0.5,
          "durationTicks": 1024,
          "midi": 57,
          "name": "A3",
          "ticks": 414208,
          "time": 202.25,
          "velocity": 0.7874015748031497
        },
        {
          "duration": 0.5,
          "durationTicks": 1024,
          "midi": 59,
          "name": "B3",
          "ticks": 414464,
          "time": 202.375,
          "velocity": 0.7874015748031497
        },
        {
          "duration": 0.5,
          "durationTicks": 1024,
          "midi": 69,
          "name": "A4",
          "ticks": 414976,
          "time": 202.625,
          "velocity": 0.7874015748031497
        },
        {
          "duration": 0.25,
          "durationTicks": 512,
          "midi": 76,
          "name": "E5",
          "ticks": 415232,
          "time": 202.75,
          "velocity": 0.7874015748031497
        },
        {
          "duration": 0.5,
          "durationTicks": 1024,
          "midi": 71,
          "name": "B4",
          "ticks": 415232,
          "time": 202.75,
          "velocity": 0.7874015748031497
        },
        {
          "duration": 1,
          "durationTicks": 2048,
          "midi": 76,
          "name": "E5",
          "ticks": 415744,
          "time": 203,
          "velocity": 0.7874015748031497
        },
        {
          "duration": 1,
          "durationTicks": 2048,
          "midi": 66,
          "name": "F#4",
          "ticks": 415744,
          "time": 203,
          "velocity": 0.5039370078740157
        },
        {
          "duration": 1,
          "durationTicks": 2048,
          "midi": 68,
          "name": "G#4",
          "ticks": 415744,
          "time": 203,
          "velocity": 0.7874015748031497
        },
        {
          "duration": 0.25,
          "durationTicks": 512,
          "midi": 80,
          "name": "G#5",
          "ticks": 417792,
          "time": 204,
          "velocity": 0.7874015748031497
        },
        {
          "duration": 0.25,
          "durationTicks": 512,
          "midi": 85,
          "name": "C#6",
          "ticks": 417792,
          "time": 204,
          "velocity": 0.7874015748031497
        },
        {
          "duration": 0.25,
          "durationTicks": 512,
          "midi": 37,
          "name": "C#2",
          "ticks": 417792,
          "time": 204,
          "velocity": 0.7874015748031497
        },
        {
          "duration": 0.25,
          "durationTicks": 512,
          "midi": 37,
          "name": "C#2",
          "ticks": 418304,
          "time": 204.25,
          "velocity": 0.7874015748031497
        },
        {
          "duration": 0.25,
          "durationTicks": 512,
          "midi": 80,
          "name": "G#5",
          "ticks": 418816,
          "time": 204.5,
          "velocity": 0.7874015748031497
        },
        {
          "duration": 0.25,
          "durationTicks": 512,
          "midi": 85,
          "name": "C#6",
          "ticks": 418816,
          "time": 204.5,
          "velocity": 0.7874015748031497
        },
        {
          "duration": 0.25,
          "durationTicks": 512,
          "midi": 37,
          "name": "C#2",
          "ticks": 418816,
          "time": 204.5,
          "velocity": 0.7874015748031497
        },
        {
          "duration": 0.125,
          "durationTicks": 256,
          "midi": 83,
          "name": "B5",
          "ticks": 419328,
          "time": 204.75,
          "velocity": 0.7874015748031497
        },
        {
          "duration": 0.125,
          "durationTicks": 256,
          "midi": 88,
          "name": "E6",
          "ticks": 419328,
          "time": 204.75,
          "velocity": 0.7874015748031497
        },
        {
          "duration": 0.0625,
          "durationTicks": 128,
          "midi": 37,
          "name": "C#2",
          "ticks": 419328,
          "time": 204.75,
          "velocity": 0.7874015748031497
        },
        {
          "duration": 0.375,
          "durationTicks": 768,
          "midi": 81,
          "name": "A5",
          "ticks": 419584,
          "time": 204.875,
          "velocity": 0.7874015748031497
        },
        {
          "duration": 0.375,
          "durationTicks": 768,
          "midi": 85,
          "name": "C#6",
          "ticks": 419584,
          "time": 204.875,
          "velocity": 0.7874015748031497
        },
        {
          "duration": 0.25,
          "durationTicks": 512,
          "midi": 33,
          "name": "A1",
          "ticks": 419584,
          "time": 204.875,
          "velocity": 0.7874015748031497
        },
        {
          "duration": 0.125,
          "durationTicks": 256,
          "midi": 33,
          "name": "A1",
          "ticks": 420096,
          "time": 205.125,
          "velocity": 0.7874015748031497
        },
        {
          "duration": 0.25,
          "durationTicks": 512,
          "midi": 33,
          "name": "A1",
          "ticks": 420352,
          "time": 205.25,
          "velocity": 0.7874015748031497
        },
        {
          "duration": 0.25,
          "durationTicks": 512,
          "midi": 83,
          "name": "B5",
          "ticks": 420864,
          "time": 205.5,
          "velocity": 0.7874015748031497
        },
        {
          "duration": 0.25,
          "durationTicks": 512,
          "midi": 85,
          "name": "C#6",
          "ticks": 420864,
          "time": 205.5,
          "velocity": 0.7874015748031497
        },
        {
          "duration": 0.25,
          "durationTicks": 512,
          "midi": 33,
          "name": "A1",
          "ticks": 420864,
          "time": 205.5,
          "velocity": 0.7874015748031497
        },
        {
          "duration": 0.25,
          "durationTicks": 512,
          "midi": 85,
          "name": "C#6",
          "ticks": 421376,
          "time": 205.75,
          "velocity": 0.7874015748031497
        },
        {
          "duration": 0.25,
          "durationTicks": 512,
          "midi": 88,
          "name": "E6",
          "ticks": 421376,
          "time": 205.75,
          "velocity": 0.7874015748031497
        },
        {
          "duration": 0.25,
          "durationTicks": 512,
          "midi": 33,
          "name": "A1",
          "ticks": 421376,
          "time": 205.75,
          "velocity": 0.7874015748031497
        },
        {
          "duration": 0.25,
          "durationTicks": 512,
          "midi": 83,
          "name": "B5",
          "ticks": 421888,
          "time": 206,
          "velocity": 0.7874015748031497
        },
        {
          "duration": 0.25,
          "durationTicks": 512,
          "midi": 87,
          "name": "D#6",
          "ticks": 421888,
          "time": 206,
          "velocity": 0.7874015748031497
        },
        {
          "duration": 0.25,
          "durationTicks": 512,
          "midi": 35,
          "name": "B1",
          "ticks": 421888,
          "time": 206,
          "velocity": 0.7874015748031497
        },
        {
          "duration": 0.125,
          "durationTicks": 256,
          "midi": 80,
          "name": "G#5",
          "ticks": 422400,
          "time": 206.25,
          "velocity": 0.7874015748031497
        },
        {
          "duration": 0.125,
          "durationTicks": 256,
          "midi": 83,
          "name": "B5",
          "ticks": 422400,
          "time": 206.25,
          "velocity": 0.7874015748031497
        },
        {
          "duration": 0.25,
          "durationTicks": 512,
          "midi": 35,
          "name": "B1",
          "ticks": 422400,
          "time": 206.25,
          "velocity": 0.7874015748031497
        },
        {
          "duration": 0.25,
          "durationTicks": 512,
          "midi": 80,
          "name": "G#5",
          "ticks": 422912,
          "time": 206.5,
          "velocity": 0.7874015748031497
        },
        {
          "duration": 0.25,
          "durationTicks": 512,
          "midi": 83,
          "name": "B5",
          "ticks": 422912,
          "time": 206.5,
          "velocity": 0.7874015748031497
        },
        {
          "duration": 0.25,
          "durationTicks": 512,
          "midi": 35,
          "name": "B1",
          "ticks": 422912,
          "time": 206.5,
          "velocity": 0.7874015748031497
        },
        {
          "duration": 0.125,
          "durationTicks": 256,
          "midi": 76,
          "name": "E5",
          "ticks": 423424,
          "time": 206.75,
          "velocity": 0.7874015748031497
        },
        {
          "duration": 0.125,
          "durationTicks": 256,
          "midi": 80,
          "name": "G#5",
          "ticks": 423424,
          "time": 206.75,
          "velocity": 0.7874015748031497
        },
        {
          "duration": 0.07275390625,
          "durationTicks": 149,
          "midi": 35,
          "name": "B1",
          "ticks": 423424,
          "time": 206.75,
          "velocity": 0.7874015748031497
        },
        {
          "duration": 0.5,
          "durationTicks": 1024,
          "midi": 80,
          "name": "G#5",
          "ticks": 423680,
          "time": 206.875,
          "velocity": 0.7874015748031497
        },
        {
          "duration": 0.5,
          "durationTicks": 1024,
          "midi": 83,
          "name": "B5",
          "ticks": 423680,
          "time": 206.875,
          "velocity": 0.7874015748031497
        },
        {
          "duration": 0.25,
          "durationTicks": 512,
          "midi": 32,
          "name": "G#1",
          "ticks": 423680,
          "time": 206.875,
          "velocity": 0.7874015748031497
        },
        {
          "duration": 0.125,
          "durationTicks": 256,
          "midi": 32,
          "name": "G#1",
          "ticks": 424192,
          "time": 207.125,
          "velocity": 0.7874015748031497
        },
        {
          "duration": 0.25,
          "durationTicks": 512,
          "midi": 32,
          "name": "G#1",
          "ticks": 424448,
          "time": 207.25,
          "velocity": 0.7874015748031497
        },
        {
          "duration": 0.25,
          "durationTicks": 512,
          "midi": 78,
          "name": "F#5",
          "ticks": 424960,
          "time": 207.5,
          "velocity": 0.7874015748031497
        },
        {
          "duration": 0.25,
          "durationTicks": 512,
          "midi": 81,
          "name": "A5",
          "ticks": 424960,
          "time": 207.5,
          "velocity": 0.7874015748031497
        },
        {
          "duration": 0.25,
          "durationTicks": 512,
          "midi": 30,
          "name": "F#1",
          "ticks": 424960,
          "time": 207.5,
          "velocity": 0.7874015748031497
        },
        {
          "duration": 0.25,
          "durationTicks": 512,
          "midi": 80,
          "name": "G#5",
          "ticks": 425472,
          "time": 207.75,
          "velocity": 0.7874015748031497
        },
        {
          "duration": 0.25,
          "durationTicks": 512,
          "midi": 83,
          "name": "B5",
          "ticks": 425472,
          "time": 207.75,
          "velocity": 0.7874015748031497
        },
        {
          "duration": 0.25,
          "durationTicks": 512,
          "midi": 32,
          "name": "G#1",
          "ticks": 425472,
          "time": 207.75,
          "velocity": 0.7874015748031497
        },
        {
          "duration": 0.25,
          "durationTicks": 512,
          "midi": 76,
          "name": "E5",
          "ticks": 425984,
          "time": 208,
          "velocity": 0.7874015748031497
        },
        {
          "duration": 0.25,
          "durationTicks": 512,
          "midi": 81,
          "name": "A5",
          "ticks": 425984,
          "time": 208,
          "velocity": 0.7874015748031497
        },
        {
          "duration": 0.25,
          "durationTicks": 512,
          "midi": 33,
          "name": "A1",
          "ticks": 425984,
          "time": 208,
          "velocity": 0.7874015748031497
        },
        {
          "duration": 0.25,
          "durationTicks": 512,
          "midi": 33,
          "name": "A1",
          "ticks": 426496,
          "time": 208.25,
          "velocity": 0.7874015748031497
        },
        {
          "duration": 0.25,
          "durationTicks": 512,
          "midi": 76,
          "name": "E5",
          "ticks": 427008,
          "time": 208.5,
          "velocity": 0.7874015748031497
        },
        {
          "duration": 0.25,
          "durationTicks": 512,
          "midi": 81,
          "name": "A5",
          "ticks": 427008,
          "time": 208.5,
          "velocity": 0.7874015748031497
        },
        {
          "duration": 0.25,
          "durationTicks": 512,
          "midi": 33,
          "name": "A1",
          "ticks": 427008,
          "time": 208.5,
          "velocity": 0.7874015748031497
        },
        {
          "duration": 0.125,
          "durationTicks": 256,
          "midi": 78,
          "name": "F#5",
          "ticks": 427520,
          "time": 208.75,
          "velocity": 0.7874015748031497
        },
        {
          "duration": 0.125,
          "durationTicks": 256,
          "midi": 83,
          "name": "B5",
          "ticks": 427520,
          "time": 208.75,
          "velocity": 0.7874015748031497
        },
        {
          "duration": 0.07275390625,
          "durationTicks": 149,
          "midi": 33,
          "name": "A1",
          "ticks": 427520,
          "time": 208.75,
          "velocity": 0.7874015748031497
        },
        {
          "duration": 0.5,
          "durationTicks": 1024,
          "midi": 73,
          "name": "C#5",
          "ticks": 427776,
          "time": 208.875,
          "velocity": 0.7874015748031497
        },
        {
          "duration": 0.5,
          "durationTicks": 1024,
          "midi": 78,
          "name": "F#5",
          "ticks": 427776,
          "time": 208.875,
          "velocity": 0.7874015748031497
        },
        {
          "duration": 0.25,
          "durationTicks": 512,
          "midi": 30,
          "name": "F#1",
          "ticks": 427776,
          "time": 208.875,
          "velocity": 0.7874015748031497
        },
        {
          "duration": 0.125,
          "durationTicks": 256,
          "midi": 30,
          "name": "F#1",
          "ticks": 428288,
          "time": 209.125,
          "velocity": 0.7874015748031497
        },
        {
          "duration": 0.25,
          "durationTicks": 512,
          "midi": 30,
          "name": "F#1",
          "ticks": 428544,
          "time": 209.25,
          "velocity": 0.7874015748031497
        },
        {
          "duration": 0.25,
          "durationTicks": 512,
          "midi": 71,
          "name": "B4",
          "ticks": 429056,
          "time": 209.5,
          "velocity": 0.7874015748031497
        },
        {
          "duration": 0.25,
          "durationTicks": 512,
          "midi": 76,
          "name": "E5",
          "ticks": 429056,
          "time": 209.5,
          "velocity": 0.7874015748031497
        },
        {
          "duration": 0.25,
          "durationTicks": 512,
          "midi": 27,
          "name": "D#1",
          "ticks": 429056,
          "time": 209.5,
          "velocity": 0.7874015748031497
        },
        {
          "duration": 0.25,
          "durationTicks": 512,
          "midi": 73,
          "name": "C#5",
          "ticks": 429568,
          "time": 209.75,
          "velocity": 0.7874015748031497
        },
        {
          "duration": 0.25,
          "durationTicks": 512,
          "midi": 78,
          "name": "F#5",
          "ticks": 429568,
          "time": 209.75,
          "velocity": 0.7874015748031497
        },
        {
          "duration": 0.25,
          "durationTicks": 512,
          "midi": 30,
          "name": "F#1",
          "ticks": 429568,
          "time": 209.75,
          "velocity": 0.7874015748031497
        },
        {
          "duration": 0.25,
          "durationTicks": 512,
          "midi": 75,
          "name": "D#5",
          "ticks": 430080,
          "time": 210,
          "velocity": 0.7874015748031497
        },
        {
          "duration": 0.25,
          "durationTicks": 512,
          "midi": 80,
          "name": "G#5",
          "ticks": 430080,
          "time": 210,
          "velocity": 0.7874015748031497
        },
        {
          "duration": 0.25,
          "durationTicks": 512,
          "midi": 32,
          "name": "G#1",
          "ticks": 430080,
          "time": 210,
          "velocity": 0.7874015748031497
        },
        {
          "duration": 0.25,
          "durationTicks": 512,
          "midi": 32,
          "name": "G#1",
          "ticks": 430592,
          "time": 210.25,
          "velocity": 0.7874015748031497
        },
        {
          "duration": 0.5,
          "durationTicks": 1024,
          "midi": 80,
          "name": "G#5",
          "ticks": 431104,
          "time": 210.5,
          "velocity": 0.7874015748031497
        },
        {
          "duration": 0.5,
          "durationTicks": 1024,
          "midi": 87,
          "name": "D#6",
          "ticks": 431104,
          "time": 210.5,
          "velocity": 0.7874015748031497
        },
        {
          "duration": 0.25,
          "durationTicks": 512,
          "midi": 32,
          "name": "G#1",
          "ticks": 431104,
          "time": 210.5,
          "velocity": 0.7874015748031497
        },
        {
          "duration": 0.07275390625,
          "durationTicks": 149,
          "midi": 32,
          "name": "G#1",
          "ticks": 431616,
          "time": 210.75,
          "velocity": 0.7874015748031497
        },
        {
          "duration": 0.25,
          "durationTicks": 512,
          "midi": 35,
          "name": "B1",
          "ticks": 431872,
          "time": 210.875,
          "velocity": 0.7874015748031497
        },
        {
          "duration": 0.375,
          "durationTicks": 768,
          "midi": 75,
          "name": "D#5",
          "ticks": 432128,
          "time": 211,
          "velocity": 0.7874015748031497
        },
        {
          "duration": 0.375,
          "durationTicks": 768,
          "midi": 83,
          "name": "B5",
          "ticks": 432128,
          "time": 211,
          "velocity": 0.7874015748031497
        },
        {
          "duration": 0.125,
          "durationTicks": 256,
          "midi": 35,
          "name": "B1",
          "ticks": 432384,
          "time": 211.125,
          "velocity": 0.7874015748031497
        },
        {
          "duration": 0.25,
          "durationTicks": 512,
          "midi": 35,
          "name": "B1",
          "ticks": 432640,
          "time": 211.25,
          "velocity": 0.7874015748031497
        },
        {
          "duration": 0.25,
          "durationTicks": 512,
          "midi": 76,
          "name": "E5",
          "ticks": 433152,
          "time": 211.5,
          "velocity": 0.7874015748031497
        },
        {
          "duration": 0.25,
          "durationTicks": 512,
          "midi": 80,
          "name": "G#5",
          "ticks": 433152,
          "time": 211.5,
          "velocity": 0.7874015748031497
        },
        {
          "duration": 0.25,
          "durationTicks": 512,
          "midi": 32,
          "name": "G#1",
          "ticks": 433152,
          "time": 211.5,
          "velocity": 0.7874015748031497
        },
        {
          "duration": 0.25,
          "durationTicks": 512,
          "midi": 80,
          "name": "G#5",
          "ticks": 433664,
          "time": 211.75,
          "velocity": 0.7874015748031497
        },
        {
          "duration": 0.25,
          "durationTicks": 512,
          "midi": 83,
          "name": "B5",
          "ticks": 433664,
          "time": 211.75,
          "velocity": 0.7874015748031497
        },
        {
          "duration": 0.25,
          "durationTicks": 512,
          "midi": 35,
          "name": "B1",
          "ticks": 433664,
          "time": 211.75,
          "velocity": 0.7874015748031497
        },
        {
          "duration": 0.25,
          "durationTicks": 512,
          "midi": 80,
          "name": "G#5",
          "ticks": 434176,
          "time": 212,
          "velocity": 0.7874015748031497
        },
        {
          "duration": 0.25,
          "durationTicks": 512,
          "midi": 85,
          "name": "C#6",
          "ticks": 434176,
          "time": 212,
          "velocity": 0.7874015748031497
        },
        {
          "duration": 0.25,
          "durationTicks": 512,
          "midi": 37,
          "name": "C#2",
          "ticks": 434176,
          "time": 212,
          "velocity": 0.7874015748031497
        },
        {
          "duration": 0.25,
          "durationTicks": 512,
          "midi": 37,
          "name": "C#2",
          "ticks": 434688,
          "time": 212.25,
          "velocity": 0.7874015748031497
        },
        {
          "duration": 0.25,
          "durationTicks": 512,
          "midi": 80,
          "name": "G#5",
          "ticks": 435200,
          "time": 212.5,
          "velocity": 0.7874015748031497
        },
        {
          "duration": 0.25,
          "durationTicks": 512,
          "midi": 85,
          "name": "C#6",
          "ticks": 435200,
          "time": 212.5,
          "velocity": 0.7874015748031497
        },
        {
          "duration": 0.25,
          "durationTicks": 512,
          "midi": 37,
          "name": "C#2",
          "ticks": 435200,
          "time": 212.5,
          "velocity": 0.7874015748031497
        },
        {
          "duration": 0.125,
          "durationTicks": 256,
          "midi": 83,
          "name": "B5",
          "ticks": 435712,
          "time": 212.75,
          "velocity": 0.7874015748031497
        },
        {
          "duration": 0.125,
          "durationTicks": 256,
          "midi": 88,
          "name": "E6",
          "ticks": 435712,
          "time": 212.75,
          "velocity": 0.7874015748031497
        },
        {
          "duration": 0.07275390625,
          "durationTicks": 149,
          "midi": 37,
          "name": "C#2",
          "ticks": 435712,
          "time": 212.75,
          "velocity": 0.7874015748031497
        },
        {
          "duration": 0.375,
          "durationTicks": 768,
          "midi": 81,
          "name": "A5",
          "ticks": 435968,
          "time": 212.875,
          "velocity": 0.7874015748031497
        },
        {
          "duration": 0.375,
          "durationTicks": 768,
          "midi": 85,
          "name": "C#6",
          "ticks": 435968,
          "time": 212.875,
          "velocity": 0.7874015748031497
        },
        {
          "duration": 0.25,
          "durationTicks": 512,
          "midi": 33,
          "name": "A1",
          "ticks": 435968,
          "time": 212.875,
          "velocity": 0.7874015748031497
        },
        {
          "duration": 0.125,
          "durationTicks": 256,
          "midi": 33,
          "name": "A1",
          "ticks": 436480,
          "time": 213.125,
          "velocity": 0.7874015748031497
        },
        {
          "duration": 0.25,
          "durationTicks": 512,
          "midi": 33,
          "name": "A1",
          "ticks": 436736,
          "time": 213.25,
          "velocity": 0.7874015748031497
        },
        {
          "duration": 0.25,
          "durationTicks": 512,
          "midi": 83,
          "name": "B5",
          "ticks": 437248,
          "time": 213.5,
          "velocity": 0.7874015748031497
        },
        {
          "duration": 0.25,
          "durationTicks": 512,
          "midi": 85,
          "name": "C#6",
          "ticks": 437248,
          "time": 213.5,
          "velocity": 0.7874015748031497
        },
        {
          "duration": 0.25,
          "durationTicks": 512,
          "midi": 33,
          "name": "A1",
          "ticks": 437248,
          "time": 213.5,
          "velocity": 0.7874015748031497
        },
        {
          "duration": 0.25,
          "durationTicks": 512,
          "midi": 85,
          "name": "C#6",
          "ticks": 437760,
          "time": 213.75,
          "velocity": 0.7874015748031497
        },
        {
          "duration": 0.25,
          "durationTicks": 512,
          "midi": 88,
          "name": "E6",
          "ticks": 437760,
          "time": 213.75,
          "velocity": 0.7874015748031497
        },
        {
          "duration": 0.25,
          "durationTicks": 512,
          "midi": 33,
          "name": "A1",
          "ticks": 437760,
          "time": 213.75,
          "velocity": 0.7874015748031497
        },
        {
          "duration": 0.25,
          "durationTicks": 512,
          "midi": 83,
          "name": "B5",
          "ticks": 438272,
          "time": 214,
          "velocity": 0.7874015748031497
        },
        {
          "duration": 0.25,
          "durationTicks": 512,
          "midi": 87,
          "name": "D#6",
          "ticks": 438272,
          "time": 214,
          "velocity": 0.7874015748031497
        },
        {
          "duration": 0.25,
          "durationTicks": 512,
          "midi": 35,
          "name": "B1",
          "ticks": 438272,
          "time": 214,
          "velocity": 0.7874015748031497
        },
        {
          "duration": 0.125,
          "durationTicks": 256,
          "midi": 80,
          "name": "G#5",
          "ticks": 438784,
          "time": 214.25,
          "velocity": 0.7874015748031497
        },
        {
          "duration": 0.125,
          "durationTicks": 256,
          "midi": 83,
          "name": "B5",
          "ticks": 438784,
          "time": 214.25,
          "velocity": 0.7874015748031497
        },
        {
          "duration": 0.25,
          "durationTicks": 512,
          "midi": 35,
          "name": "B1",
          "ticks": 438784,
          "time": 214.25,
          "velocity": 0.7874015748031497
        },
        {
          "duration": 0.25,
          "durationTicks": 512,
          "midi": 80,
          "name": "G#5",
          "ticks": 439296,
          "time": 214.5,
          "velocity": 0.7874015748031497
        },
        {
          "duration": 0.25,
          "durationTicks": 512,
          "midi": 83,
          "name": "B5",
          "ticks": 439296,
          "time": 214.5,
          "velocity": 0.7874015748031497
        },
        {
          "duration": 0.25,
          "durationTicks": 512,
          "midi": 35,
          "name": "B1",
          "ticks": 439296,
          "time": 214.5,
          "velocity": 0.7874015748031497
        },
        {
          "duration": 0.125,
          "durationTicks": 256,
          "midi": 76,
          "name": "E5",
          "ticks": 439808,
          "time": 214.75,
          "velocity": 0.7874015748031497
        },
        {
          "duration": 0.125,
          "durationTicks": 256,
          "midi": 80,
          "name": "G#5",
          "ticks": 439808,
          "time": 214.75,
          "velocity": 0.7874015748031497
        },
        {
          "duration": 0.07275390625,
          "durationTicks": 149,
          "midi": 35,
          "name": "B1",
          "ticks": 439808,
          "time": 214.75,
          "velocity": 0.7874015748031497
        },
        {
          "duration": 0.5,
          "durationTicks": 1024,
          "midi": 80,
          "name": "G#5",
          "ticks": 440064,
          "time": 214.875,
          "velocity": 0.7874015748031497
        },
        {
          "duration": 0.5,
          "durationTicks": 1024,
          "midi": 83,
          "name": "B5",
          "ticks": 440064,
          "time": 214.875,
          "velocity": 0.7874015748031497
        },
        {
          "duration": 0.25,
          "durationTicks": 512,
          "midi": 32,
          "name": "G#1",
          "ticks": 440064,
          "time": 214.875,
          "velocity": 0.7874015748031497
        },
        {
          "duration": 0.125,
          "durationTicks": 256,
          "midi": 32,
          "name": "G#1",
          "ticks": 440576,
          "time": 215.125,
          "velocity": 0.7874015748031497
        },
        {
          "duration": 0.25,
          "durationTicks": 512,
          "midi": 32,
          "name": "G#1",
          "ticks": 440832,
          "time": 215.25,
          "velocity": 0.7874015748031497
        },
        {
          "duration": 0.25,
          "durationTicks": 512,
          "midi": 78,
          "name": "F#5",
          "ticks": 441344,
          "time": 215.5,
          "velocity": 0.7874015748031497
        },
        {
          "duration": 0.25,
          "durationTicks": 512,
          "midi": 81,
          "name": "A5",
          "ticks": 441344,
          "time": 215.5,
          "velocity": 0.7874015748031497
        },
        {
          "duration": 0.25,
          "durationTicks": 512,
          "midi": 32,
          "name": "G#1",
          "ticks": 441344,
          "time": 215.5,
          "velocity": 0.7874015748031497
        },
        {
          "duration": 0.25,
          "durationTicks": 512,
          "midi": 80,
          "name": "G#5",
          "ticks": 441856,
          "time": 215.75,
          "velocity": 0.7874015748031497
        },
        {
          "duration": 0.25,
          "durationTicks": 512,
          "midi": 83,
          "name": "B5",
          "ticks": 441856,
          "time": 215.75,
          "velocity": 0.7874015748031497
        },
        {
          "duration": 0.25,
          "durationTicks": 512,
          "midi": 32,
          "name": "G#1",
          "ticks": 441856,
          "time": 215.75,
          "velocity": 0.7874015748031497
        },
        {
          "duration": 0.25,
          "durationTicks": 512,
          "midi": 78,
          "name": "F#5",
          "ticks": 442368,
          "time": 216,
          "velocity": 0.7874015748031497
        },
        {
          "duration": 0.25,
          "durationTicks": 512,
          "midi": 81,
          "name": "A5",
          "ticks": 442368,
          "time": 216,
          "velocity": 0.7874015748031497
        },
        {
          "duration": 0.25,
          "durationTicks": 512,
          "midi": 30,
          "name": "F#1",
          "ticks": 442368,
          "time": 216,
          "velocity": 0.7874015748031497
        },
        {
          "duration": 0.25,
          "durationTicks": 512,
          "midi": 30,
          "name": "F#1",
          "ticks": 442880,
          "time": 216.25,
          "velocity": 0.7874015748031497
        },
        {
          "duration": 0.25,
          "durationTicks": 512,
          "midi": 78,
          "name": "F#5",
          "ticks": 443392,
          "time": 216.5,
          "velocity": 0.7874015748031497
        },
        {
          "duration": 0.25,
          "durationTicks": 512,
          "midi": 81,
          "name": "A5",
          "ticks": 443392,
          "time": 216.5,
          "velocity": 0.7874015748031497
        },
        {
          "duration": 0.25,
          "durationTicks": 512,
          "midi": 30,
          "name": "F#1",
          "ticks": 443392,
          "time": 216.5,
          "velocity": 0.7874015748031497
        },
        {
          "duration": 0.125,
          "durationTicks": 256,
          "midi": 80,
          "name": "G#5",
          "ticks": 443904,
          "time": 216.75,
          "velocity": 0.7874015748031497
        },
        {
          "duration": 0.125,
          "durationTicks": 256,
          "midi": 83,
          "name": "B5",
          "ticks": 443904,
          "time": 216.75,
          "velocity": 0.7874015748031497
        },
        {
          "duration": 0.07275390625,
          "durationTicks": 149,
          "midi": 30,
          "name": "F#1",
          "ticks": 443904,
          "time": 216.75,
          "velocity": 0.7874015748031497
        },
        {
          "duration": 0.5,
          "durationTicks": 1024,
          "midi": 75,
          "name": "D#5",
          "ticks": 444160,
          "time": 216.875,
          "velocity": 0.7874015748031497
        },
        {
          "duration": 0.5,
          "durationTicks": 1024,
          "midi": 78,
          "name": "F#5",
          "ticks": 444160,
          "time": 216.875,
          "velocity": 0.7874015748031497
        },
        {
          "duration": 0.25,
          "durationTicks": 512,
          "midi": 35,
          "name": "B1",
          "ticks": 444160,
          "time": 216.875,
          "velocity": 0.7874015748031497
        },
        {
          "duration": 0.125,
          "durationTicks": 256,
          "midi": 35,
          "name": "B1",
          "ticks": 444672,
          "time": 217.125,
          "velocity": 0.7874015748031497
        },
        {
          "duration": 0.25,
          "durationTicks": 512,
          "midi": 35,
          "name": "B1",
          "ticks": 444928,
          "time": 217.25,
          "velocity": 0.7874015748031497
        },
        {
          "duration": 0.25,
          "durationTicks": 512,
          "midi": 73,
          "name": "C#5",
          "ticks": 445440,
          "time": 217.5,
          "velocity": 0.7874015748031497
        },
        {
          "duration": 0.25,
          "durationTicks": 512,
          "midi": 78,
          "name": "F#5",
          "ticks": 445440,
          "time": 217.5,
          "velocity": 0.7874015748031497
        },
        {
          "duration": 0.25,
          "durationTicks": 512,
          "midi": 35,
          "name": "B1",
          "ticks": 445440,
          "time": 217.5,
          "velocity": 0.7874015748031497
        },
        {
          "duration": 0.25,
          "durationTicks": 512,
          "midi": 75,
          "name": "D#5",
          "ticks": 445952,
          "time": 217.75,
          "velocity": 0.7874015748031497
        },
        {
          "duration": 0.25,
          "durationTicks": 512,
          "midi": 80,
          "name": "G#5",
          "ticks": 445952,
          "time": 217.75,
          "velocity": 0.7874015748031497
        },
        {
          "duration": 0.25,
          "durationTicks": 512,
          "midi": 35,
          "name": "B1",
          "ticks": 445952,
          "time": 217.75,
          "velocity": 0.7874015748031497
        },
        {
          "duration": 0.25,
          "durationTicks": 512,
          "midi": 73,
          "name": "C#5",
          "ticks": 446464,
          "time": 218,
          "velocity": 0.7874015748031497
        },
        {
          "duration": 0.25,
          "durationTicks": 512,
          "midi": 78,
          "name": "F#5",
          "ticks": 446464,
          "time": 218,
          "velocity": 0.7874015748031497
        },
        {
          "duration": 0.25,
          "durationTicks": 512,
          "midi": 28,
          "name": "E1",
          "ticks": 446464,
          "time": 218,
          "velocity": 0.7874015748031497
        },
        {
          "duration": 0.125,
          "durationTicks": 256,
          "midi": 71,
          "name": "B4",
          "ticks": 446976,
          "time": 218.25,
          "velocity": 0.7874015748031497
        },
        {
          "duration": 0.125,
          "durationTicks": 256,
          "midi": 76,
          "name": "E5",
          "ticks": 446976,
          "time": 218.25,
          "velocity": 0.7874015748031497
        },
        {
          "duration": 0.0205078125,
          "durationTicks": 42,
          "midi": 28,
          "name": "E1",
          "ticks": 446976,
          "time": 218.25,
          "velocity": 0.7874015748031497
        },
        {
          "duration": 1,
          "durationTicks": 2048,
          "midi": 71,
          "name": "B4",
          "ticks": 447232,
          "time": 218.375,
          "velocity": 0.7874015748031497
        },
        {
          "duration": 1,
          "durationTicks": 2048,
          "midi": 76,
          "name": "E5",
          "ticks": 447232,
          "time": 218.375,
          "velocity": 0.7874015748031497
        },
        {
          "duration": 0.25,
          "durationTicks": 512,
          "midi": 28,
          "name": "E1",
          "ticks": 447232,
          "time": 218.375,
          "velocity": 0.7874015748031497
        },
        {
          "duration": 0.0205078125,
          "durationTicks": 42,
          "midi": 28,
          "name": "E1",
          "ticks": 447744,
          "time": 218.625,
          "velocity": 0.7874015748031497
        },
        {
          "duration": 0.25,
          "durationTicks": 512,
          "midi": 28,
          "name": "E1",
          "ticks": 448000,
          "time": 218.75,
          "velocity": 0.7874015748031497
        },
        {
          "duration": 0.0205078125,
          "durationTicks": 42,
          "midi": 28,
          "name": "E1",
          "ticks": 448512,
          "time": 219,
          "velocity": 0.7874015748031497
        },
        {
          "duration": 0.25,
          "durationTicks": 512,
          "midi": 28,
          "name": "E1",
          "ticks": 448768,
          "time": 219.125,
          "velocity": 0.7874015748031497
        },
        {
          "duration": 0.0205078125,
          "durationTicks": 42,
          "midi": 28,
          "name": "E1",
          "ticks": 449280,
          "time": 219.375,
          "velocity": 0.7874015748031497
        },
        {
          "duration": 0.25,
          "durationTicks": 512,
          "midi": 76,
          "name": "E5",
          "ticks": 449536,
          "time": 219.5,
          "velocity": 0.7874015748031497
        },
        {
          "duration": 0.25,
          "durationTicks": 512,
          "midi": 80,
          "name": "G#5",
          "ticks": 449536,
          "time": 219.5,
          "velocity": 0.7874015748031497
        },
        {
          "duration": 0.25,
          "durationTicks": 512,
          "midi": 28,
          "name": "E1",
          "ticks": 449536,
          "time": 219.5,
          "velocity": 0.7874015748031497
        },
        {
          "duration": 0.25,
          "durationTicks": 512,
          "midi": 80,
          "name": "G#5",
          "ticks": 450048,
          "time": 219.75,
          "velocity": 0.7874015748031497
        },
        {
          "duration": 0.25,
          "durationTicks": 512,
          "midi": 83,
          "name": "B5",
          "ticks": 450048,
          "time": 219.75,
          "velocity": 0.7874015748031497
        },
        {
          "duration": 0.25,
          "durationTicks": 512,
          "midi": 28,
          "name": "E1",
          "ticks": 450048,
          "time": 219.75,
          "velocity": 0.7874015748031497
        },
        {
          "duration": 0.25,
          "durationTicks": 512,
          "midi": 80,
          "name": "G#5",
          "ticks": 450560,
          "time": 220,
          "velocity": 0.7874015748031497
        },
        {
          "duration": 0.25,
          "durationTicks": 512,
          "midi": 85,
          "name": "C#6",
          "ticks": 450560,
          "time": 220,
          "velocity": 0.7874015748031497
        },
        {
          "duration": 0.25,
          "durationTicks": 512,
          "midi": 37,
          "name": "C#2",
          "ticks": 450560,
          "time": 220,
          "velocity": 0.7874015748031497
        },
        {
          "duration": 0.25,
          "durationTicks": 512,
          "midi": 37,
          "name": "C#2",
          "ticks": 451072,
          "time": 220.25,
          "velocity": 0.7874015748031497
        },
        {
          "duration": 0.25,
          "durationTicks": 512,
          "midi": 80,
          "name": "G#5",
          "ticks": 451584,
          "time": 220.5,
          "velocity": 0.7874015748031497
        },
        {
          "duration": 0.25,
          "durationTicks": 512,
          "midi": 85,
          "name": "C#6",
          "ticks": 451584,
          "time": 220.5,
          "velocity": 0.7874015748031497
        },
        {
          "duration": 0.25,
          "durationTicks": 512,
          "midi": 37,
          "name": "C#2",
          "ticks": 451584,
          "time": 220.5,
          "velocity": 0.7874015748031497
        },
        {
          "duration": 0.125,
          "durationTicks": 256,
          "midi": 83,
          "name": "B5",
          "ticks": 452096,
          "time": 220.75,
          "velocity": 0.7874015748031497
        },
        {
          "duration": 0.125,
          "durationTicks": 256,
          "midi": 88,
          "name": "E6",
          "ticks": 452096,
          "time": 220.75,
          "velocity": 0.7874015748031497
        },
        {
          "duration": 0.0625,
          "durationTicks": 128,
          "midi": 37,
          "name": "C#2",
          "ticks": 452096,
          "time": 220.75,
          "velocity": 0.7874015748031497
        },
        {
          "duration": 0.375,
          "durationTicks": 768,
          "midi": 81,
          "name": "A5",
          "ticks": 452352,
          "time": 220.875,
          "velocity": 0.7874015748031497
        },
        {
          "duration": 0.375,
          "durationTicks": 768,
          "midi": 85,
          "name": "C#6",
          "ticks": 452352,
          "time": 220.875,
          "velocity": 0.7874015748031497
        },
        {
          "duration": 0.25,
          "durationTicks": 512,
          "midi": 33,
          "name": "A1",
          "ticks": 452352,
          "time": 220.875,
          "velocity": 0.7874015748031497
        },
        {
          "duration": 0.125,
          "durationTicks": 256,
          "midi": 33,
          "name": "A1",
          "ticks": 452864,
          "time": 221.125,
          "velocity": 0.7874015748031497
        },
        {
          "duration": 0.25,
          "durationTicks": 512,
          "midi": 33,
          "name": "A1",
          "ticks": 453120,
          "time": 221.25,
          "velocity": 0.7874015748031497
        },
        {
          "duration": 0.25,
          "durationTicks": 512,
          "midi": 83,
          "name": "B5",
          "ticks": 453632,
          "time": 221.5,
          "velocity": 0.7874015748031497
        },
        {
          "duration": 0.25,
          "durationTicks": 512,
          "midi": 85,
          "name": "C#6",
          "ticks": 453632,
          "time": 221.5,
          "velocity": 0.7874015748031497
        },
        {
          "duration": 0.25,
          "durationTicks": 512,
          "midi": 33,
          "name": "A1",
          "ticks": 453632,
          "time": 221.5,
          "velocity": 0.7874015748031497
        },
        {
          "duration": 0.25,
          "durationTicks": 512,
          "midi": 85,
          "name": "C#6",
          "ticks": 454144,
          "time": 221.75,
          "velocity": 0.7874015748031497
        },
        {
          "duration": 0.25,
          "durationTicks": 512,
          "midi": 88,
          "name": "E6",
          "ticks": 454144,
          "time": 221.75,
          "velocity": 0.7874015748031497
        },
        {
          "duration": 0.25,
          "durationTicks": 512,
          "midi": 33,
          "name": "A1",
          "ticks": 454144,
          "time": 221.75,
          "velocity": 0.7874015748031497
        },
        {
          "duration": 0.25,
          "durationTicks": 512,
          "midi": 83,
          "name": "B5",
          "ticks": 454656,
          "time": 222,
          "velocity": 0.7874015748031497
        },
        {
          "duration": 0.25,
          "durationTicks": 512,
          "midi": 87,
          "name": "D#6",
          "ticks": 454656,
          "time": 222,
          "velocity": 0.7874015748031497
        },
        {
          "duration": 0.25,
          "durationTicks": 512,
          "midi": 35,
          "name": "B1",
          "ticks": 454656,
          "time": 222,
          "velocity": 0.7874015748031497
        },
        {
          "duration": 0.125,
          "durationTicks": 256,
          "midi": 80,
          "name": "G#5",
          "ticks": 455168,
          "time": 222.25,
          "velocity": 0.7874015748031497
        },
        {
          "duration": 0.125,
          "durationTicks": 256,
          "midi": 83,
          "name": "B5",
          "ticks": 455168,
          "time": 222.25,
          "velocity": 0.7874015748031497
        },
        {
          "duration": 0.25,
          "durationTicks": 512,
          "midi": 35,
          "name": "B1",
          "ticks": 455168,
          "time": 222.25,
          "velocity": 0.7874015748031497
        },
        {
          "duration": 0.25,
          "durationTicks": 512,
          "midi": 80,
          "name": "G#5",
          "ticks": 455680,
          "time": 222.5,
          "velocity": 0.7874015748031497
        },
        {
          "duration": 0.25,
          "durationTicks": 512,
          "midi": 83,
          "name": "B5",
          "ticks": 455680,
          "time": 222.5,
          "velocity": 0.7874015748031497
        },
        {
          "duration": 0.25,
          "durationTicks": 512,
          "midi": 35,
          "name": "B1",
          "ticks": 455680,
          "time": 222.5,
          "velocity": 0.7874015748031497
        },
        {
          "duration": 0.125,
          "durationTicks": 256,
          "midi": 76,
          "name": "E5",
          "ticks": 456192,
          "time": 222.75,
          "velocity": 0.7874015748031497
        },
        {
          "duration": 0.125,
          "durationTicks": 256,
          "midi": 80,
          "name": "G#5",
          "ticks": 456192,
          "time": 222.75,
          "velocity": 0.7874015748031497
        },
        {
          "duration": 0.07275390625,
          "durationTicks": 149,
          "midi": 35,
          "name": "B1",
          "ticks": 456192,
          "time": 222.75,
          "velocity": 0.7874015748031497
        },
        {
          "duration": 0.5,
          "durationTicks": 1024,
          "midi": 80,
          "name": "G#5",
          "ticks": 456448,
          "time": 222.875,
          "velocity": 0.7874015748031497
        },
        {
          "duration": 0.5,
          "durationTicks": 1024,
          "midi": 83,
          "name": "B5",
          "ticks": 456448,
          "time": 222.875,
          "velocity": 0.7874015748031497
        },
        {
          "duration": 0.25,
          "durationTicks": 512,
          "midi": 32,
          "name": "G#1",
          "ticks": 456448,
          "time": 222.875,
          "velocity": 0.7874015748031497
        },
        {
          "duration": 0.125,
          "durationTicks": 256,
          "midi": 32,
          "name": "G#1",
          "ticks": 456960,
          "time": 223.125,
          "velocity": 0.7874015748031497
        },
        {
          "duration": 0.25,
          "durationTicks": 512,
          "midi": 32,
          "name": "G#1",
          "ticks": 457216,
          "time": 223.25,
          "velocity": 0.7874015748031497
        },
        {
          "duration": 0.25,
          "durationTicks": 512,
          "midi": 78,
          "name": "F#5",
          "ticks": 457728,
          "time": 223.5,
          "velocity": 0.7874015748031497
        },
        {
          "duration": 0.25,
          "durationTicks": 512,
          "midi": 81,
          "name": "A5",
          "ticks": 457728,
          "time": 223.5,
          "velocity": 0.7874015748031497
        },
        {
          "duration": 0.25,
          "durationTicks": 512,
          "midi": 30,
          "name": "F#1",
          "ticks": 457728,
          "time": 223.5,
          "velocity": 0.7874015748031497
        },
        {
          "duration": 0.25,
          "durationTicks": 512,
          "midi": 80,
          "name": "G#5",
          "ticks": 458240,
          "time": 223.75,
          "velocity": 0.7874015748031497
        },
        {
          "duration": 0.25,
          "durationTicks": 512,
          "midi": 83,
          "name": "B5",
          "ticks": 458240,
          "time": 223.75,
          "velocity": 0.7874015748031497
        },
        {
          "duration": 0.25,
          "durationTicks": 512,
          "midi": 32,
          "name": "G#1",
          "ticks": 458240,
          "time": 223.75,
          "velocity": 0.7874015748031497
        },
        {
          "duration": 0.25,
          "durationTicks": 512,
          "midi": 76,
          "name": "E5",
          "ticks": 458752,
          "time": 224,
          "velocity": 0.7874015748031497
        },
        {
          "duration": 0.25,
          "durationTicks": 512,
          "midi": 81,
          "name": "A5",
          "ticks": 458752,
          "time": 224,
          "velocity": 0.7874015748031497
        },
        {
          "duration": 0.25,
          "durationTicks": 512,
          "midi": 33,
          "name": "A1",
          "ticks": 458752,
          "time": 224,
          "velocity": 0.7874015748031497
        },
        {
          "duration": 0.25,
          "durationTicks": 512,
          "midi": 33,
          "name": "A1",
          "ticks": 459264,
          "time": 224.25,
          "velocity": 0.7874015748031497
        },
        {
          "duration": 0.25,
          "durationTicks": 512,
          "midi": 76,
          "name": "E5",
          "ticks": 459776,
          "time": 224.5,
          "velocity": 0.7874015748031497
        },
        {
          "duration": 0.25,
          "durationTicks": 512,
          "midi": 81,
          "name": "A5",
          "ticks": 459776,
          "time": 224.5,
          "velocity": 0.7874015748031497
        },
        {
          "duration": 0.25,
          "durationTicks": 512,
          "midi": 33,
          "name": "A1",
          "ticks": 459776,
          "time": 224.5,
          "velocity": 0.7874015748031497
        },
        {
          "duration": 0.125,
          "durationTicks": 256,
          "midi": 78,
          "name": "F#5",
          "ticks": 460288,
          "time": 224.75,
          "velocity": 0.7874015748031497
        },
        {
          "duration": 0.125,
          "durationTicks": 256,
          "midi": 83,
          "name": "B5",
          "ticks": 460288,
          "time": 224.75,
          "velocity": 0.7874015748031497
        },
        {
          "duration": 0.07275390625,
          "durationTicks": 149,
          "midi": 33,
          "name": "A1",
          "ticks": 460288,
          "time": 224.75,
          "velocity": 0.7874015748031497
        },
        {
          "duration": 0.5,
          "durationTicks": 1024,
          "midi": 73,
          "name": "C#5",
          "ticks": 460544,
          "time": 224.875,
          "velocity": 0.7874015748031497
        },
        {
          "duration": 0.5,
          "durationTicks": 1024,
          "midi": 78,
          "name": "F#5",
          "ticks": 460544,
          "time": 224.875,
          "velocity": 0.7874015748031497
        },
        {
          "duration": 0.25,
          "durationTicks": 512,
          "midi": 30,
          "name": "F#1",
          "ticks": 460544,
          "time": 224.875,
          "velocity": 0.7874015748031497
        },
        {
          "duration": 0.125,
          "durationTicks": 256,
          "midi": 30,
          "name": "F#1",
          "ticks": 461056,
          "time": 225.125,
          "velocity": 0.7874015748031497
        },
        {
          "duration": 0.25,
          "durationTicks": 512,
          "midi": 30,
          "name": "F#1",
          "ticks": 461312,
          "time": 225.25,
          "velocity": 0.7874015748031497
        },
        {
          "duration": 0.25,
          "durationTicks": 512,
          "midi": 71,
          "name": "B4",
          "ticks": 461824,
          "time": 225.5,
          "velocity": 0.7874015748031497
        },
        {
          "duration": 0.25,
          "durationTicks": 512,
          "midi": 76,
          "name": "E5",
          "ticks": 461824,
          "time": 225.5,
          "velocity": 0.7874015748031497
        },
        {
          "duration": 0.25,
          "durationTicks": 512,
          "midi": 27,
          "name": "D#1",
          "ticks": 461824,
          "time": 225.5,
          "velocity": 0.7874015748031497
        },
        {
          "duration": 0.25,
          "durationTicks": 512,
          "midi": 73,
          "name": "C#5",
          "ticks": 462336,
          "time": 225.75,
          "velocity": 0.7874015748031497
        },
        {
          "duration": 0.25,
          "durationTicks": 512,
          "midi": 78,
          "name": "F#5",
          "ticks": 462336,
          "time": 225.75,
          "velocity": 0.7874015748031497
        },
        {
          "duration": 0.25,
          "durationTicks": 512,
          "midi": 30,
          "name": "F#1",
          "ticks": 462336,
          "time": 225.75,
          "velocity": 0.7874015748031497
        },
        {
          "duration": 0.25,
          "durationTicks": 512,
          "midi": 75,
          "name": "D#5",
          "ticks": 462848,
          "time": 226,
          "velocity": 0.7874015748031497
        },
        {
          "duration": 0.25,
          "durationTicks": 512,
          "midi": 80,
          "name": "G#5",
          "ticks": 462848,
          "time": 226,
          "velocity": 0.7874015748031497
        },
        {
          "duration": 0.25,
          "durationTicks": 512,
          "midi": 32,
          "name": "G#1",
          "ticks": 462848,
          "time": 226,
          "velocity": 0.7874015748031497
        },
        {
          "duration": 0.25,
          "durationTicks": 512,
          "midi": 32,
          "name": "G#1",
          "ticks": 463360,
          "time": 226.25,
          "velocity": 0.7874015748031497
        },
        {
          "duration": 0.5,
          "durationTicks": 1024,
          "midi": 80,
          "name": "G#5",
          "ticks": 463872,
          "time": 226.5,
          "velocity": 0.7874015748031497
        },
        {
          "duration": 0.5,
          "durationTicks": 1024,
          "midi": 87,
          "name": "D#6",
          "ticks": 463872,
          "time": 226.5,
          "velocity": 0.7874015748031497
        },
        {
          "duration": 0.25,
          "durationTicks": 512,
          "midi": 32,
          "name": "G#1",
          "ticks": 463872,
          "time": 226.5,
          "velocity": 0.7874015748031497
        },
        {
          "duration": 0.07275390625,
          "durationTicks": 149,
          "midi": 32,
          "name": "G#1",
          "ticks": 464384,
          "time": 226.75,
          "velocity": 0.7874015748031497
        },
        {
          "duration": 0.25,
          "durationTicks": 512,
          "midi": 35,
          "name": "B1",
          "ticks": 464640,
          "time": 226.875,
          "velocity": 0.7874015748031497
        },
        {
          "duration": 0.375,
          "durationTicks": 768,
          "midi": 75,
          "name": "D#5",
          "ticks": 464896,
          "time": 227,
          "velocity": 0.7874015748031497
        },
        {
          "duration": 0.375,
          "durationTicks": 768,
          "midi": 83,
          "name": "B5",
          "ticks": 464896,
          "time": 227,
          "velocity": 0.7874015748031497
        },
        {
          "duration": 0.125,
          "durationTicks": 256,
          "midi": 35,
          "name": "B1",
          "ticks": 465152,
          "time": 227.125,
          "velocity": 0.7874015748031497
        },
        {
          "duration": 0.25,
          "durationTicks": 512,
          "midi": 35,
          "name": "B1",
          "ticks": 465408,
          "time": 227.25,
          "velocity": 0.7874015748031497
        },
        {
          "duration": 0.25,
          "durationTicks": 512,
          "midi": 76,
          "name": "E5",
          "ticks": 465920,
          "time": 227.5,
          "velocity": 0.7874015748031497
        },
        {
          "duration": 0.25,
          "durationTicks": 512,
          "midi": 80,
          "name": "G#5",
          "ticks": 465920,
          "time": 227.5,
          "velocity": 0.7874015748031497
        },
        {
          "duration": 0.25,
          "durationTicks": 512,
          "midi": 32,
          "name": "G#1",
          "ticks": 465920,
          "time": 227.5,
          "velocity": 0.7874015748031497
        },
        {
          "duration": 0.25,
          "durationTicks": 512,
          "midi": 80,
          "name": "G#5",
          "ticks": 466432,
          "time": 227.75,
          "velocity": 0.7874015748031497
        },
        {
          "duration": 0.25,
          "durationTicks": 512,
          "midi": 83,
          "name": "B5",
          "ticks": 466432,
          "time": 227.75,
          "velocity": 0.7874015748031497
        },
        {
          "duration": 0.25,
          "durationTicks": 512,
          "midi": 35,
          "name": "B1",
          "ticks": 466432,
          "time": 227.75,
          "velocity": 0.7874015748031497
        },
        {
          "duration": 0.25,
          "durationTicks": 512,
          "midi": 80,
          "name": "G#5",
          "ticks": 466944,
          "time": 228,
          "velocity": 0.7874015748031497
        },
        {
          "duration": 0.25,
          "durationTicks": 512,
          "midi": 85,
          "name": "C#6",
          "ticks": 466944,
          "time": 228,
          "velocity": 0.7874015748031497
        },
        {
          "duration": 0.25,
          "durationTicks": 512,
          "midi": 37,
          "name": "C#2",
          "ticks": 466944,
          "time": 228,
          "velocity": 0.7874015748031497
        },
        {
          "duration": 0.25,
          "durationTicks": 512,
          "midi": 37,
          "name": "C#2",
          "ticks": 467456,
          "time": 228.25,
          "velocity": 0.7874015748031497
        },
        {
          "duration": 0.25,
          "durationTicks": 512,
          "midi": 80,
          "name": "G#5",
          "ticks": 467968,
          "time": 228.5,
          "velocity": 0.7874015748031497
        },
        {
          "duration": 0.25,
          "durationTicks": 512,
          "midi": 85,
          "name": "C#6",
          "ticks": 467968,
          "time": 228.5,
          "velocity": 0.7874015748031497
        },
        {
          "duration": 0.25,
          "durationTicks": 512,
          "midi": 37,
          "name": "C#2",
          "ticks": 467968,
          "time": 228.5,
          "velocity": 0.7874015748031497
        },
        {
          "duration": 0.125,
          "durationTicks": 256,
          "midi": 83,
          "name": "B5",
          "ticks": 468480,
          "time": 228.75,
          "velocity": 0.7874015748031497
        },
        {
          "duration": 0.125,
          "durationTicks": 256,
          "midi": 88,
          "name": "E6",
          "ticks": 468480,
          "time": 228.75,
          "velocity": 0.7874015748031497
        },
        {
          "duration": 0.07275390625,
          "durationTicks": 149,
          "midi": 37,
          "name": "C#2",
          "ticks": 468480,
          "time": 228.75,
          "velocity": 0.7874015748031497
        },
        {
          "duration": 0.375,
          "durationTicks": 768,
          "midi": 81,
          "name": "A5",
          "ticks": 468736,
          "time": 228.875,
          "velocity": 0.7874015748031497
        },
        {
          "duration": 0.375,
          "durationTicks": 768,
          "midi": 85,
          "name": "C#6",
          "ticks": 468736,
          "time": 228.875,
          "velocity": 0.7874015748031497
        },
        {
          "duration": 0.25,
          "durationTicks": 512,
          "midi": 33,
          "name": "A1",
          "ticks": 468736,
          "time": 228.875,
          "velocity": 0.7874015748031497
        },
        {
          "duration": 0.125,
          "durationTicks": 256,
          "midi": 33,
          "name": "A1",
          "ticks": 469248,
          "time": 229.125,
          "velocity": 0.7874015748031497
        },
        {
          "duration": 0.25,
          "durationTicks": 512,
          "midi": 33,
          "name": "A1",
          "ticks": 469504,
          "time": 229.25,
          "velocity": 0.7874015748031497
        },
        {
          "duration": 0.25,
          "durationTicks": 512,
          "midi": 83,
          "name": "B5",
          "ticks": 470016,
          "time": 229.5,
          "velocity": 0.7874015748031497
        },
        {
          "duration": 0.25,
          "durationTicks": 512,
          "midi": 85,
          "name": "C#6",
          "ticks": 470016,
          "time": 229.5,
          "velocity": 0.7874015748031497
        },
        {
          "duration": 0.25,
          "durationTicks": 512,
          "midi": 33,
          "name": "A1",
          "ticks": 470016,
          "time": 229.5,
          "velocity": 0.7874015748031497
        },
        {
          "duration": 0.25,
          "durationTicks": 512,
          "midi": 85,
          "name": "C#6",
          "ticks": 470528,
          "time": 229.75,
          "velocity": 0.7874015748031497
        },
        {
          "duration": 0.25,
          "durationTicks": 512,
          "midi": 88,
          "name": "E6",
          "ticks": 470528,
          "time": 229.75,
          "velocity": 0.7874015748031497
        },
        {
          "duration": 0.25,
          "durationTicks": 512,
          "midi": 33,
          "name": "A1",
          "ticks": 470528,
          "time": 229.75,
          "velocity": 0.7874015748031497
        },
        {
          "duration": 0.25,
          "durationTicks": 512,
          "midi": 83,
          "name": "B5",
          "ticks": 471040,
          "time": 230,
          "velocity": 0.7874015748031497
        },
        {
          "duration": 0.25,
          "durationTicks": 512,
          "midi": 87,
          "name": "D#6",
          "ticks": 471040,
          "time": 230,
          "velocity": 0.7874015748031497
        },
        {
          "duration": 0.25,
          "durationTicks": 512,
          "midi": 35,
          "name": "B1",
          "ticks": 471040,
          "time": 230,
          "velocity": 0.7874015748031497
        },
        {
          "duration": 0.125,
          "durationTicks": 256,
          "midi": 80,
          "name": "G#5",
          "ticks": 471552,
          "time": 230.25,
          "velocity": 0.7874015748031497
        },
        {
          "duration": 0.125,
          "durationTicks": 256,
          "midi": 83,
          "name": "B5",
          "ticks": 471552,
          "time": 230.25,
          "velocity": 0.7874015748031497
        },
        {
          "duration": 0.25,
          "durationTicks": 512,
          "midi": 35,
          "name": "B1",
          "ticks": 471552,
          "time": 230.25,
          "velocity": 0.7874015748031497
        },
        {
          "duration": 0.25,
          "durationTicks": 512,
          "midi": 80,
          "name": "G#5",
          "ticks": 472064,
          "time": 230.5,
          "velocity": 0.7874015748031497
        },
        {
          "duration": 0.25,
          "durationTicks": 512,
          "midi": 83,
          "name": "B5",
          "ticks": 472064,
          "time": 230.5,
          "velocity": 0.7874015748031497
        },
        {
          "duration": 0.25,
          "durationTicks": 512,
          "midi": 35,
          "name": "B1",
          "ticks": 472064,
          "time": 230.5,
          "velocity": 0.7874015748031497
        },
        {
          "duration": 0.125,
          "durationTicks": 256,
          "midi": 76,
          "name": "E5",
          "ticks": 472576,
          "time": 230.75,
          "velocity": 0.7874015748031497
        },
        {
          "duration": 0.125,
          "durationTicks": 256,
          "midi": 80,
          "name": "G#5",
          "ticks": 472576,
          "time": 230.75,
          "velocity": 0.7874015748031497
        },
        {
          "duration": 0.07275390625,
          "durationTicks": 149,
          "midi": 35,
          "name": "B1",
          "ticks": 472576,
          "time": 230.75,
          "velocity": 0.7874015748031497
        },
        {
          "duration": 0.5,
          "durationTicks": 1024,
          "midi": 80,
          "name": "G#5",
          "ticks": 472832,
          "time": 230.875,
          "velocity": 0.7874015748031497
        },
        {
          "duration": 0.5,
          "durationTicks": 1024,
          "midi": 83,
          "name": "B5",
          "ticks": 472832,
          "time": 230.875,
          "velocity": 0.7874015748031497
        },
        {
          "duration": 0.25,
          "durationTicks": 512,
          "midi": 32,
          "name": "G#1",
          "ticks": 472832,
          "time": 230.875,
          "velocity": 0.7874015748031497
        },
        {
          "duration": 0.125,
          "durationTicks": 256,
          "midi": 32,
          "name": "G#1",
          "ticks": 473344,
          "time": 231.125,
          "velocity": 0.7874015748031497
        },
        {
          "duration": 0.25,
          "durationTicks": 512,
          "midi": 32,
          "name": "G#1",
          "ticks": 473600,
          "time": 231.25,
          "velocity": 0.7874015748031497
        },
        {
          "duration": 0.25,
          "durationTicks": 512,
          "midi": 78,
          "name": "F#5",
          "ticks": 474112,
          "time": 231.5,
          "velocity": 0.7874015748031497
        },
        {
          "duration": 0.25,
          "durationTicks": 512,
          "midi": 81,
          "name": "A5",
          "ticks": 474112,
          "time": 231.5,
          "velocity": 0.7874015748031497
        },
        {
          "duration": 0.25,
          "durationTicks": 512,
          "midi": 32,
          "name": "G#1",
          "ticks": 474112,
          "time": 231.5,
          "velocity": 0.7874015748031497
        },
        {
          "duration": 0.25,
          "durationTicks": 512,
          "midi": 80,
          "name": "G#5",
          "ticks": 474624,
          "time": 231.75,
          "velocity": 0.7874015748031497
        },
        {
          "duration": 0.25,
          "durationTicks": 512,
          "midi": 83,
          "name": "B5",
          "ticks": 474624,
          "time": 231.75,
          "velocity": 0.7874015748031497
        },
        {
          "duration": 0.25,
          "durationTicks": 512,
          "midi": 32,
          "name": "G#1",
          "ticks": 474624,
          "time": 231.75,
          "velocity": 0.7874015748031497
        },
        {
          "duration": 0.25,
          "durationTicks": 512,
          "midi": 78,
          "name": "F#5",
          "ticks": 475136,
          "time": 232,
          "velocity": 0.7874015748031497
        },
        {
          "duration": 0.25,
          "durationTicks": 512,
          "midi": 81,
          "name": "A5",
          "ticks": 475136,
          "time": 232,
          "velocity": 0.7874015748031497
        },
        {
          "duration": 0.25,
          "durationTicks": 512,
          "midi": 30,
          "name": "F#1",
          "ticks": 475136,
          "time": 232,
          "velocity": 0.7874015748031497
        },
        {
          "duration": 0.25,
          "durationTicks": 512,
          "midi": 30,
          "name": "F#1",
          "ticks": 475648,
          "time": 232.25,
          "velocity": 0.7874015748031497
        },
        {
          "duration": 0.25,
          "durationTicks": 512,
          "midi": 78,
          "name": "F#5",
          "ticks": 476160,
          "time": 232.5,
          "velocity": 0.7874015748031497
        },
        {
          "duration": 0.25,
          "durationTicks": 512,
          "midi": 81,
          "name": "A5",
          "ticks": 476160,
          "time": 232.5,
          "velocity": 0.7874015748031497
        },
        {
          "duration": 0.25,
          "durationTicks": 512,
          "midi": 30,
          "name": "F#1",
          "ticks": 476160,
          "time": 232.5,
          "velocity": 0.7874015748031497
        },
        {
          "duration": 0.125,
          "durationTicks": 256,
          "midi": 80,
          "name": "G#5",
          "ticks": 476672,
          "time": 232.75,
          "velocity": 0.7874015748031497
        },
        {
          "duration": 0.125,
          "durationTicks": 256,
          "midi": 83,
          "name": "B5",
          "ticks": 476672,
          "time": 232.75,
          "velocity": 0.7874015748031497
        },
        {
          "duration": 0.07275390625,
          "durationTicks": 149,
          "midi": 30,
          "name": "F#1",
          "ticks": 476672,
          "time": 232.75,
          "velocity": 0.7874015748031497
        },
        {
          "duration": 0.5,
          "durationTicks": 1024,
          "midi": 75,
          "name": "D#5",
          "ticks": 476928,
          "time": 232.875,
          "velocity": 0.7874015748031497
        },
        {
          "duration": 0.5,
          "durationTicks": 1024,
          "midi": 78,
          "name": "F#5",
          "ticks": 476928,
          "time": 232.875,
          "velocity": 0.7874015748031497
        },
        {
          "duration": 0.25,
          "durationTicks": 512,
          "midi": 35,
          "name": "B1",
          "ticks": 476928,
          "time": 232.875,
          "velocity": 0.7874015748031497
        },
        {
          "duration": 0.125,
          "durationTicks": 256,
          "midi": 35,
          "name": "B1",
          "ticks": 477440,
          "time": 233.125,
          "velocity": 0.7874015748031497
        },
        {
          "duration": 0.25,
          "durationTicks": 512,
          "midi": 35,
          "name": "B1",
          "ticks": 477696,
          "time": 233.25,
          "velocity": 0.7874015748031497
        },
        {
          "duration": 0.25,
          "durationTicks": 512,
          "midi": 73,
          "name": "C#5",
          "ticks": 478208,
          "time": 233.5,
          "velocity": 0.7874015748031497
        },
        {
          "duration": 0.25,
          "durationTicks": 512,
          "midi": 78,
          "name": "F#5",
          "ticks": 478208,
          "time": 233.5,
          "velocity": 0.7874015748031497
        },
        {
          "duration": 0.25,
          "durationTicks": 512,
          "midi": 35,
          "name": "B1",
          "ticks": 478208,
          "time": 233.5,
          "velocity": 0.7874015748031497
        },
        {
          "duration": 0.25,
          "durationTicks": 512,
          "midi": 75,
          "name": "D#5",
          "ticks": 478720,
          "time": 233.75,
          "velocity": 0.7874015748031497
        },
        {
          "duration": 0.25,
          "durationTicks": 512,
          "midi": 80,
          "name": "G#5",
          "ticks": 478720,
          "time": 233.75,
          "velocity": 0.7874015748031497
        },
        {
          "duration": 0.25,
          "durationTicks": 512,
          "midi": 35,
          "name": "B1",
          "ticks": 478720,
          "time": 233.75,
          "velocity": 0.7874015748031497
        },
        {
          "duration": 0.25,
          "durationTicks": 512,
          "midi": 73,
          "name": "C#5",
          "ticks": 479232,
          "time": 234,
          "velocity": 0.7874015748031497
        },
        {
          "duration": 0.25,
          "durationTicks": 512,
          "midi": 78,
          "name": "F#5",
          "ticks": 479232,
          "time": 234,
          "velocity": 0.7874015748031497
        },
        {
          "duration": 0.25,
          "durationTicks": 512,
          "midi": 28,
          "name": "E1",
          "ticks": 479232,
          "time": 234,
          "velocity": 0.7874015748031497
        },
        {
          "duration": 0.125,
          "durationTicks": 256,
          "midi": 71,
          "name": "B4",
          "ticks": 479744,
          "time": 234.25,
          "velocity": 0.7874015748031497
        },
        {
          "duration": 0.125,
          "durationTicks": 256,
          "midi": 76,
          "name": "E5",
          "ticks": 479744,
          "time": 234.25,
          "velocity": 0.7874015748031497
        },
        {
          "duration": 0.0205078125,
          "durationTicks": 42,
          "midi": 28,
          "name": "E1",
          "ticks": 479744,
          "time": 234.25,
          "velocity": 0.7874015748031497
        },
        {
          "duration": 0.625,
          "durationTicks": 1280,
          "midi": 71,
          "name": "B4",
          "ticks": 480000,
          "time": 234.375,
          "velocity": 0.7874015748031497
        },
        {
          "duration": 0.625,
          "durationTicks": 1280,
          "midi": 76,
          "name": "E5",
          "ticks": 480000,
          "time": 234.375,
          "velocity": 0.7874015748031497
        },
        {
          "duration": 0.125,
          "durationTicks": 256,
          "midi": 28,
          "name": "E1",
          "ticks": 480000,
          "time": 234.375,
          "velocity": 0.7874015748031497
        },
        {
          "duration": 0.0625,
          "durationTicks": 128,
          "midi": 37,
          "name": "C#2",
          "ticks": 480256,
          "time": 234.5,
          "velocity": 0.5039370078740157
        },
        {
          "duration": 0.0625,
          "durationTicks": 128,
          "midi": 40,
          "name": "E2",
          "ticks": 480384,
          "time": 234.5625,
          "velocity": 0.5039370078740157
        },
        {
          "duration": 0.0625,
          "durationTicks": 128,
          "midi": 42,
          "name": "F#2",
          "ticks": 480512,
          "time": 234.625,
          "velocity": 0.5039370078740157
        },
        {
          "duration": 0.0625,
          "durationTicks": 128,
          "midi": 44,
          "name": "G#2",
          "ticks": 480640,
          "time": 234.6875,
          "velocity": 0.5039370078740157
        },
        {
          "duration": 0.0625,
          "durationTicks": 128,
          "midi": 47,
          "name": "B2",
          "ticks": 480768,
          "time": 234.75,
          "velocity": 0.5039370078740157
        },
        {
          "duration": 0.0625,
          "durationTicks": 128,
          "midi": 49,
          "name": "C#3",
          "ticks": 480896,
          "time": 234.8125,
          "velocity": 0.5039370078740157
        },
        {
          "duration": 0.0625,
          "durationTicks": 128,
          "midi": 52,
          "name": "E3",
          "ticks": 481024,
          "time": 234.875,
          "velocity": 0.5039370078740157
        },
        {
          "duration": 0.0625,
          "durationTicks": 128,
          "midi": 54,
          "name": "F#3",
          "ticks": 481152,
          "time": 234.9375,
          "velocity": 0.5039370078740157
        },
        {
          "duration": 0.0625,
          "durationTicks": 128,
          "midi": 56,
          "name": "G#3",
          "ticks": 481280,
          "time": 235,
          "velocity": 0.5039370078740157
        },
        {
          "duration": 0.0625,
          "durationTicks": 128,
          "midi": 59,
          "name": "B3",
          "ticks": 481408,
          "time": 235.0625,
          "velocity": 0.5039370078740157
        },
        {
          "duration": 0.0625,
          "durationTicks": 128,
          "midi": 61,
          "name": "C#4",
          "ticks": 481536,
          "time": 235.125,
          "velocity": 0.5039370078740157
        },
        {
          "duration": 0.0625,
          "durationTicks": 128,
          "midi": 64,
          "name": "E4",
          "ticks": 481664,
          "time": 235.1875,
          "velocity": 0.5039370078740157
        },
        {
          "duration": 0.0625,
          "durationTicks": 128,
          "midi": 66,
          "name": "F#4",
          "ticks": 481792,
          "time": 235.25,
          "velocity": 0.5039370078740157
        },
        {
          "duration": 0.0625,
          "durationTicks": 128,
          "midi": 68,
          "name": "G#4",
          "ticks": 481920,
          "time": 235.3125,
          "velocity": 0.5039370078740157
        },
        {
          "duration": 0.0625,
          "durationTicks": 128,
          "midi": 71,
          "name": "B4",
          "ticks": 482048,
          "time": 235.375,
          "velocity": 0.5039370078740157
        },
        {
          "duration": 0.0625,
          "durationTicks": 128,
          "midi": 73,
          "name": "C#5",
          "ticks": 482176,
          "time": 235.4375,
          "velocity": 0.5039370078740157
        },
        {
          "duration": 0.0625,
          "durationTicks": 128,
          "midi": 76,
          "name": "E5",
          "ticks": 482304,
          "time": 235.5,
          "velocity": 0.5039370078740157
        },
        {
          "duration": 0.0625,
          "durationTicks": 128,
          "midi": 78,
          "name": "F#5",
          "ticks": 482432,
          "time": 235.5625,
          "velocity": 0.5039370078740157
        },
        {
          "duration": 0.0625,
          "durationTicks": 128,
          "midi": 81,
          "name": "A5",
          "ticks": 482560,
          "time": 235.625,
          "velocity": 0.5039370078740157
        },
        {
          "duration": 0.0625,
          "durationTicks": 128,
          "midi": 83,
          "name": "B5",
          "ticks": 482688,
          "time": 235.6875,
          "velocity": 0.5039370078740157
        },
        {
          "duration": 0.0625,
          "durationTicks": 128,
          "midi": 85,
          "name": "C#6",
          "ticks": 482816,
          "time": 235.75,
          "velocity": 0.5039370078740157
        },
        {
          "duration": 0.0625,
          "durationTicks": 128,
          "midi": 88,
          "name": "E6",
          "ticks": 482944,
          "time": 235.8125,
          "velocity": 0.5039370078740157
        },
        {
          "duration": 0.0625,
          "durationTicks": 128,
          "midi": 90,
          "name": "F#6",
          "ticks": 483072,
          "time": 235.875,
          "velocity": 0.5039370078740157
        },
        {
          "duration": 0.0625,
          "durationTicks": 128,
          "midi": 92,
          "name": "G#6",
          "ticks": 483200,
          "time": 235.9375,
          "velocity": 0.5039370078740157
        },
        {
          "duration": 0.16650390625,
          "durationTicks": 341,
          "midi": 57,
          "name": "A3",
          "ticks": 483328,
          "time": 236,
          "velocity": 1
        },
        {
          "duration": 0.25,
          "durationTicks": 512,
          "midi": 37,
          "name": "C#2",
          "ticks": 483328,
          "time": 236,
          "velocity": 0.7874015748031497
        },
        {
          "duration": 0.1669921875,
          "durationTicks": 342,
          "midi": 59,
          "name": "B3",
          "ticks": 483669,
          "time": 236.16650390625,
          "velocity": 1
        },
        {
          "duration": 0.25,
          "durationTicks": 512,
          "midi": 37,
          "name": "C#2",
          "ticks": 483840,
          "time": 236.25,
          "velocity": 0.7874015748031497
        },
        {
          "duration": 0.16650390625,
          "durationTicks": 341,
          "midi": 61,
          "name": "C#4",
          "ticks": 484011,
          "time": 236.33349609375,
          "velocity": 1
        },
        {
          "duration": 0.16650390625,
          "durationTicks": 341,
          "midi": 63,
          "name": "D#4",
          "ticks": 484352,
          "time": 236.5,
          "velocity": 1
        },
        {
          "duration": 0.25,
          "durationTicks": 512,
          "midi": 37,
          "name": "C#2",
          "ticks": 484352,
          "time": 236.5,
          "velocity": 0.7874015748031497
        },
        {
          "duration": 0.1669921875,
          "durationTicks": 342,
          "midi": 64,
          "name": "E4",
          "ticks": 484693,
          "time": 236.66650390625,
          "velocity": 1
        },
        {
          "duration": 0.0625,
          "durationTicks": 128,
          "midi": 37,
          "name": "C#2",
          "ticks": 484864,
          "time": 236.75,
          "velocity": 0.7874015748031497
        },
        {
          "duration": 0.16650390625,
          "durationTicks": 341,
          "midi": 66,
          "name": "F#4",
          "ticks": 485035,
          "time": 236.83349609375,
          "velocity": 1
        },
        {
          "duration": 0.25,
          "durationTicks": 512,
          "midi": 33,
          "name": "A1",
          "ticks": 485120,
          "time": 236.875,
          "velocity": 0.7874015748031497
        },
        {
          "duration": 0.16650390625,
          "durationTicks": 341,
          "midi": 68,
          "name": "G#4",
          "ticks": 485376,
          "time": 237,
          "velocity": 1
        },
        {
          "duration": 0.125,
          "durationTicks": 256,
          "midi": 33,
          "name": "A1",
          "ticks": 485632,
          "time": 237.125,
          "velocity": 0.7874015748031497
        },
        {
          "duration": 0.33349609375,
          "durationTicks": 683,
          "midi": 71,
          "name": "B4",
          "ticks": 485717,
          "time": 237.16650390625,
          "velocity": 1
        },
        {
          "duration": 0.25,
          "durationTicks": 512,
          "midi": 33,
          "name": "A1",
          "ticks": 485888,
          "time": 237.25,
          "velocity": 0.7874015748031497
        },
        {
          "duration": 0.16650390625,
          "durationTicks": 341,
          "midi": 68,
          "name": "G#4",
          "ticks": 486400,
          "time": 237.5,
          "velocity": 1
        },
        {
          "duration": 0.25,
          "durationTicks": 512,
          "midi": 33,
          "name": "A1",
          "ticks": 486400,
          "time": 237.5,
          "velocity": 0.7874015748031497
        },
        {
          "duration": 0.1669921875,
          "durationTicks": 342,
          "midi": 69,
          "name": "A4",
          "ticks": 486741,
          "time": 237.66650390625,
          "velocity": 1
        },
        {
          "duration": 0.25,
          "durationTicks": 512,
          "midi": 33,
          "name": "A1",
          "ticks": 486912,
          "time": 237.75,
          "velocity": 0.7874015748031497
        },
        {
          "duration": 0.16650390625,
          "durationTicks": 341,
          "midi": 71,
          "name": "B4",
          "ticks": 487083,
          "time": 237.83349609375,
          "velocity": 1
        },
        {
          "duration": 0.33349609375,
          "durationTicks": 683,
          "midi": 66,
          "name": "F#4",
          "ticks": 487424,
          "time": 238,
          "velocity": 1
        },
        {
          "duration": 0.25,
          "durationTicks": 512,
          "midi": 35,
          "name": "B1",
          "ticks": 487424,
          "time": 238,
          "velocity": 0.7874015748031497
        },
        {
          "duration": 0.25,
          "durationTicks": 512,
          "midi": 35,
          "name": "B1",
          "ticks": 487936,
          "time": 238.25,
          "velocity": 0.7874015748031497
        },
        {
          "duration": 0.3330078125,
          "durationTicks": 682,
          "midi": 64,
          "name": "E4",
          "ticks": 488107,
          "time": 238.33349609375,
          "velocity": 1
        },
        {
          "duration": 0.25,
          "durationTicks": 512,
          "midi": 35,
          "name": "B1",
          "ticks": 488448,
          "time": 238.5,
          "velocity": 0.7874015748031497
        },
        {
          "duration": 0.25,
          "durationTicks": 512,
          "midi": 66,
          "name": "F#4",
          "ticks": 488789,
          "time": 238.66650390625,
          "velocity": 1
        },
        {
          "duration": 0.07275390625,
          "durationTicks": 149,
          "midi": 35,
          "name": "B1",
          "ticks": 488960,
          "time": 238.75,
          "velocity": 0.7874015748031497
        },
        {
          "duration": 0.25,
          "durationTicks": 512,
          "midi": 32,
          "name": "G#1",
          "ticks": 489216,
          "time": 238.875,
          "velocity": 0.7874015748031497
        },
        {
          "duration": 0.33349609375,
          "durationTicks": 683,
          "midi": 68,
          "name": "G#4",
          "ticks": 489472,
          "time": 239,
          "velocity": 1
        },
        {
          "duration": 0.125,
          "durationTicks": 256,
          "midi": 32,
          "name": "G#1",
          "ticks": 489728,
          "time": 239.125,
          "velocity": 0.7874015748031497
        },
        {
          "duration": 0.25,
          "durationTicks": 512,
          "midi": 32,
          "name": "G#1",
          "ticks": 489984,
          "time": 239.25,
          "velocity": 0.7874015748031497
        },
        {
          "duration": 0.16650390625,
          "durationTicks": 341,
          "midi": 66,
          "name": "F#4",
          "ticks": 490155,
          "time": 239.33349609375,
          "velocity": 1
        },
        {
          "duration": 0.25,
          "durationTicks": 512,
          "midi": 30,
          "name": "F#1",
          "ticks": 490496,
          "time": 239.5,
          "velocity": 0.7874015748031497
        },
        {
          "duration": 0.25,
          "durationTicks": 512,
          "midi": 32,
          "name": "G#1",
          "ticks": 491008,
          "time": 239.75,
          "velocity": 0.7874015748031497
        },
        {
          "duration": 0.25,
          "durationTicks": 512,
          "midi": 33,
          "name": "A1",
          "ticks": 491520,
          "time": 240,
          "velocity": 0.7874015748031497
        },
        {
          "duration": 0.75,
          "durationTicks": 1536,
          "midi": 73,
          "name": "C#5",
          "ticks": 492032,
          "time": 240.25,
          "velocity": 1
        },
        {
          "duration": 0.25,
          "durationTicks": 512,
          "midi": 33,
          "name": "A1",
          "ticks": 492032,
          "time": 240.25,
          "velocity": 0.7874015748031497
        },
        {
          "duration": 0.25,
          "durationTicks": 512,
          "midi": 33,
          "name": "A1",
          "ticks": 492544,
          "time": 240.5,
          "velocity": 0.7874015748031497
        },
        {
          "duration": 0.07275390625,
          "durationTicks": 149,
          "midi": 33,
          "name": "A1",
          "ticks": 493056,
          "time": 240.75,
          "velocity": 0.7874015748031497
        },
        {
          "duration": 0.25,
          "durationTicks": 512,
          "midi": 30,
          "name": "F#1",
          "ticks": 493312,
          "time": 240.875,
          "velocity": 0.7874015748031497
        },
        {
          "duration": 0.16650390625,
          "durationTicks": 341,
          "midi": 73,
          "name": "C#5",
          "ticks": 493568,
          "time": 241,
          "velocity": 1
        },
        {
          "duration": 0.125,
          "durationTicks": 256,
          "midi": 30,
          "name": "F#1",
          "ticks": 493824,
          "time": 241.125,
          "velocity": 0.7874015748031497
        },
        {
          "duration": 0.1669921875,
          "durationTicks": 342,
          "midi": 68,
          "name": "G#4",
          "ticks": 493909,
          "time": 241.16650390625,
          "velocity": 1
        },
        {
          "duration": 0.25,
          "durationTicks": 512,
          "midi": 30,
          "name": "F#1",
          "ticks": 494080,
          "time": 241.25,
          "velocity": 0.7874015748031497
        },
        {
          "duration": 0.16650390625,
          "durationTicks": 341,
          "midi": 75,
          "name": "D#5",
          "ticks": 494251,
          "time": 241.33349609375,
          "velocity": 1
        },
        {
          "duration": 0.16650390625,
          "durationTicks": 341,
          "midi": 68,
          "name": "G#4",
          "ticks": 494592,
          "time": 241.5,
          "velocity": 1
        },
        {
          "duration": 0.25,
          "durationTicks": 512,
          "midi": 27,
          "name": "D#1",
          "ticks": 494592,
          "time": 241.5,
          "velocity": 0.7874015748031497
        },
        {
          "duration": 0.1669921875,
          "durationTicks": 342,
          "midi": 76,
          "name": "E5",
          "ticks": 494933,
          "time": 241.66650390625,
          "velocity": 1
        },
        {
          "duration": 0.25,
          "durationTicks": 512,
          "midi": 30,
          "name": "F#1",
          "ticks": 495104,
          "time": 241.75,
          "velocity": 0.7874015748031497
        },
        {
          "duration": 0.16650390625,
          "durationTicks": 341,
          "midi": 68,
          "name": "G#4",
          "ticks": 495275,
          "time": 241.83349609375,
          "velocity": 1
        },
        {
          "duration": 0.5,
          "durationTicks": 1024,
          "midi": 78,
          "name": "F#5",
          "ticks": 495616,
          "time": 242,
          "velocity": 1
        },
        {
          "duration": 0.25,
          "durationTicks": 512,
          "midi": 32,
          "name": "G#1",
          "ticks": 495616,
          "time": 242,
          "velocity": 0.7874015748031497
        },
        {
          "duration": 0.25,
          "durationTicks": 512,
          "midi": 32,
          "name": "G#1",
          "ticks": 496128,
          "time": 242.25,
          "velocity": 0.7874015748031497
        },
        {
          "duration": 0.16650390625,
          "durationTicks": 341,
          "midi": 75,
          "name": "D#5",
          "ticks": 496640,
          "time": 242.5,
          "velocity": 1
        },
        {
          "duration": 0.25,
          "durationTicks": 512,
          "midi": 32,
          "name": "G#1",
          "ticks": 496640,
          "time": 242.5,
          "velocity": 0.7874015748031497
        },
        {
          "duration": 0.1669921875,
          "durationTicks": 342,
          "midi": 76,
          "name": "E5",
          "ticks": 496981,
          "time": 242.66650390625,
          "velocity": 1
        },
        {
          "duration": 0.07275390625,
          "durationTicks": 149,
          "midi": 32,
          "name": "G#1",
          "ticks": 497152,
          "time": 242.75,
          "velocity": 0.7874015748031497
        },
        {
          "duration": 0.16650390625,
          "durationTicks": 341,
          "midi": 78,
          "name": "F#5",
          "ticks": 497323,
          "time": 242.83349609375,
          "velocity": 1
        },
        {
          "duration": 0.25,
          "durationTicks": 512,
          "midi": 35,
          "name": "B1",
          "ticks": 497408,
          "time": 242.875,
          "velocity": 0.7874015748031497
        },
        {
          "duration": 1,
          "durationTicks": 2048,
          "midi": 71,
          "name": "B4",
          "ticks": 497664,
          "time": 243,
          "velocity": 1
        },
        {
          "duration": 0.125,
          "durationTicks": 256,
          "midi": 35,
          "name": "B1",
          "ticks": 497920,
          "time": 243.125,
          "velocity": 0.7874015748031497
        },
        {
          "duration": 0.25,
          "durationTicks": 512,
          "midi": 35,
          "name": "B1",
          "ticks": 498176,
          "time": 243.25,
          "velocity": 0.7874015748031497
        },
        {
          "duration": 0.25,
          "durationTicks": 512,
          "midi": 32,
          "name": "G#1",
          "ticks": 498688,
          "time": 243.5,
          "velocity": 0.7874015748031497
        },
        {
          "duration": 0.25,
          "durationTicks": 512,
          "midi": 35,
          "name": "B1",
          "ticks": 499200,
          "time": 243.75,
          "velocity": 0.7874015748031497
        },
        {
          "duration": 0.16650390625,
          "durationTicks": 341,
          "midi": 73,
          "name": "C#5",
          "ticks": 499712,
          "time": 244,
          "velocity": 1
        },
        {
          "duration": 0.25,
          "durationTicks": 512,
          "midi": 30,
          "name": "F#1",
          "ticks": 499712,
          "time": 244,
          "velocity": 0.7874015748031497
        },
        {
          "duration": 0.1669921875,
          "durationTicks": 342,
          "midi": 76,
          "name": "E5",
          "ticks": 500053,
          "time": 244.16650390625,
          "velocity": 1
        },
        {
          "duration": 0.25,
          "durationTicks": 512,
          "midi": 30,
          "name": "F#1",
          "ticks": 500224,
          "time": 244.25,
          "velocity": 0.7874015748031497
        },
        {
          "duration": 0.16650390625,
          "durationTicks": 341,
          "midi": 73,
          "name": "C#5",
          "ticks": 500395,
          "time": 244.33349609375,
          "velocity": 1
        },
        {
          "duration": 0.16650390625,
          "durationTicks": 341,
          "midi": 75,
          "name": "D#5",
          "ticks": 500736,
          "time": 244.5,
          "velocity": 1
        },
        {
          "duration": 0.25,
          "durationTicks": 512,
          "midi": 30,
          "name": "F#1",
          "ticks": 500736,
          "time": 244.5,
          "velocity": 0.7874015748031497
        },
        {
          "duration": 0.1669921875,
          "durationTicks": 342,
          "midi": 78,
          "name": "F#5",
          "ticks": 501077,
          "time": 244.66650390625,
          "velocity": 1
        },
        {
          "duration": 0.07275390625,
          "durationTicks": 149,
          "midi": 30,
          "name": "F#1",
          "ticks": 501248,
          "time": 244.75,
          "velocity": 0.7874015748031497
        },
        {
          "duration": 0.16650390625,
          "durationTicks": 341,
          "midi": 75,
          "name": "D#5",
          "ticks": 501419,
          "time": 244.83349609375,
          "velocity": 1
        },
        {
          "duration": 0.25,
          "durationTicks": 512,
          "midi": 35,
          "name": "B1",
          "ticks": 501504,
          "time": 244.875,
          "velocity": 0.7874015748031497
        },
        {
          "duration": 0.16650390625,
          "durationTicks": 341,
          "midi": 76,
          "name": "E5",
          "ticks": 501760,
          "time": 245,
          "velocity": 1
        },
        {
          "duration": 0.125,
          "durationTicks": 256,
          "midi": 35,
          "name": "B1",
          "ticks": 502016,
          "time": 245.125,
          "velocity": 0.7874015748031497
        },
        {
          "duration": 0.1669921875,
          "durationTicks": 342,
          "midi": 80,
          "name": "G#5",
          "ticks": 502101,
          "time": 245.16650390625,
          "velocity": 1
        },
        {
          "duration": 0.25,
          "durationTicks": 512,
          "midi": 35,
          "name": "B1",
          "ticks": 502272,
          "time": 245.25,
          "velocity": 0.7874015748031497
        },
        {
          "duration": 0.16650390625,
          "durationTicks": 341,
          "midi": 76,
          "name": "E5",
          "ticks": 502443,
          "time": 245.33349609375,
          "velocity": 1
        },
        {
          "duration": 0.16650390625,
          "durationTicks": 341,
          "midi": 83,
          "name": "B5",
          "ticks": 502784,
          "time": 245.5,
          "velocity": 1
        },
        {
          "duration": 0.25,
          "durationTicks": 512,
          "midi": 35,
          "name": "B1",
          "ticks": 502784,
          "time": 245.5,
          "velocity": 0.7874015748031497
        },
        {
          "duration": 0.1669921875,
          "durationTicks": 342,
          "midi": 81,
          "name": "A5",
          "ticks": 503125,
          "time": 245.66650390625,
          "velocity": 1
        },
        {
          "duration": 0.25,
          "durationTicks": 512,
          "midi": 35,
          "name": "B1",
          "ticks": 503296,
          "time": 245.75,
          "velocity": 0.7874015748031497
        },
        {
          "duration": 0.16650390625,
          "durationTicks": 341,
          "midi": 80,
          "name": "G#5",
          "ticks": 503467,
          "time": 245.83349609375,
          "velocity": 1
        },
        {
          "duration": 0.16650390625,
          "durationTicks": 341,
          "midi": 78,
          "name": "F#5",
          "ticks": 503808,
          "time": 246,
          "velocity": 1
        },
        {
          "duration": 0.25,
          "durationTicks": 512,
          "midi": 28,
          "name": "E1",
          "ticks": 503808,
          "time": 246,
          "velocity": 0.7874015748031497
        },
        {
          "duration": 0.1669921875,
          "durationTicks": 342,
          "midi": 80,
          "name": "G#5",
          "ticks": 504149,
          "time": 246.16650390625,
          "velocity": 1
        },
        {
          "duration": 0.0205078125,
          "durationTicks": 42,
          "midi": 28,
          "name": "E1",
          "ticks": 504320,
          "time": 246.25,
          "velocity": 0.7874015748031497
        },
        {
          "duration": 0.16650390625,
          "durationTicks": 341,
          "midi": 76,
          "name": "E5",
          "ticks": 504491,
          "time": 246.33349609375,
          "velocity": 1
        },
        {
          "duration": 0.125,
          "durationTicks": 256,
          "midi": 28,
          "name": "E1",
          "ticks": 504576,
          "time": 246.375,
          "velocity": 0.7874015748031497
        },
        {
          "duration": 0.16650390625,
          "durationTicks": 341,
          "midi": 69,
          "name": "A4",
          "ticks": 504832,
          "time": 246.5,
          "velocity": 1
        },
        {
          "duration": 0.0625,
          "durationTicks": 128,
          "midi": 37,
          "name": "C#2",
          "ticks": 504832,
          "time": 246.5,
          "velocity": 0.5039370078740157
        },
        {
          "duration": 0.0625,
          "durationTicks": 128,
          "midi": 40,
          "name": "E2",
          "ticks": 504960,
          "time": 246.5625,
          "velocity": 0.5039370078740157
        },
        {
          "duration": 0.0625,
          "durationTicks": 128,
          "midi": 42,
          "name": "F#2",
          "ticks": 505088,
          "time": 246.625,
          "velocity": 0.5039370078740157
        },
        {
          "duration": 0.33349609375,
          "durationTicks": 683,
          "midi": 68,
          "name": "G#4",
          "ticks": 505173,
          "time": 246.66650390625,
          "velocity": 1
        },
        {
          "duration": 0.0625,
          "durationTicks": 128,
          "midi": 44,
          "name": "G#2",
          "ticks": 505216,
          "time": 246.6875,
          "velocity": 0.5039370078740157
        },
        {
          "duration": 0.0625,
          "durationTicks": 128,
          "midi": 47,
          "name": "B2",
          "ticks": 505344,
          "time": 246.75,
          "velocity": 0.5039370078740157
        },
        {
          "duration": 0.0625,
          "durationTicks": 128,
          "midi": 49,
          "name": "C#3",
          "ticks": 505472,
          "time": 246.8125,
          "velocity": 0.5039370078740157
        },
        {
          "duration": 0.0625,
          "durationTicks": 128,
          "midi": 52,
          "name": "E3",
          "ticks": 505600,
          "time": 246.875,
          "velocity": 0.5039370078740157
        },
        {
          "duration": 0.0625,
          "durationTicks": 128,
          "midi": 54,
          "name": "F#3",
          "ticks": 505728,
          "time": 246.9375,
          "velocity": 0.5039370078740157
        },
        {
          "duration": 0.0625,
          "durationTicks": 128,
          "midi": 56,
          "name": "G#3",
          "ticks": 505856,
          "time": 247,
          "velocity": 0.5039370078740157
        },
        {
          "duration": 0.0625,
          "durationTicks": 128,
          "midi": 59,
          "name": "B3",
          "ticks": 505984,
          "time": 247.0625,
          "velocity": 0.5039370078740157
        },
        {
          "duration": 0.0625,
          "durationTicks": 128,
          "midi": 61,
          "name": "C#4",
          "ticks": 506112,
          "time": 247.125,
          "velocity": 0.5039370078740157
        },
        {
          "duration": 0.0625,
          "durationTicks": 128,
          "midi": 64,
          "name": "E4",
          "ticks": 506240,
          "time": 247.1875,
          "velocity": 0.5039370078740157
        },
        {
          "duration": 0.0625,
          "durationTicks": 128,
          "midi": 66,
          "name": "F#4",
          "ticks": 506368,
          "time": 247.25,
          "velocity": 0.5039370078740157
        },
        {
          "duration": 0.0625,
          "durationTicks": 128,
          "midi": 68,
          "name": "G#4",
          "ticks": 506496,
          "time": 247.3125,
          "velocity": 0.5039370078740157
        },
        {
          "duration": 0.0625,
          "durationTicks": 128,
          "midi": 71,
          "name": "B4",
          "ticks": 506624,
          "time": 247.375,
          "velocity": 0.5039370078740157
        },
        {
          "duration": 0.0625,
          "durationTicks": 128,
          "midi": 73,
          "name": "C#5",
          "ticks": 506752,
          "time": 247.4375,
          "velocity": 0.5039370078740157
        },
        {
          "duration": 0.0625,
          "durationTicks": 128,
          "midi": 76,
          "name": "E5",
          "ticks": 506880,
          "time": 247.5,
          "velocity": 0.5039370078740157
        },
        {
          "duration": 0.0625,
          "durationTicks": 128,
          "midi": 78,
          "name": "F#5",
          "ticks": 507008,
          "time": 247.5625,
          "velocity": 0.5039370078740157
        },
        {
          "duration": 0.0625,
          "durationTicks": 128,
          "midi": 81,
          "name": "A5",
          "ticks": 507136,
          "time": 247.625,
          "velocity": 0.5039370078740157
        },
        {
          "duration": 0.0625,
          "durationTicks": 128,
          "midi": 83,
          "name": "B5",
          "ticks": 507264,
          "time": 247.6875,
          "velocity": 0.5039370078740157
        },
        {
          "duration": 0.0625,
          "durationTicks": 128,
          "midi": 85,
          "name": "C#6",
          "ticks": 507392,
          "time": 247.75,
          "velocity": 0.5039370078740157
        },
        {
          "duration": 0.0625,
          "durationTicks": 128,
          "midi": 88,
          "name": "E6",
          "ticks": 507520,
          "time": 247.8125,
          "velocity": 0.5039370078740157
        },
        {
          "duration": 0.0625,
          "durationTicks": 128,
          "midi": 90,
          "name": "F#6",
          "ticks": 507648,
          "time": 247.875,
          "velocity": 0.5039370078740157
        },
        {
          "duration": 0.0625,
          "durationTicks": 128,
          "midi": 92,
          "name": "G#6",
          "ticks": 507776,
          "time": 247.9375,
          "velocity": 0.5039370078740157
        },
        {
          "duration": 0.5,
          "durationTicks": 1024,
          "midi": 73,
          "name": "C#5",
          "ticks": 507904,
          "time": 248,
          "velocity": 0.7874015748031497
        },
        {
          "duration": 0.75,
          "durationTicks": 1536,
          "midi": 49,
          "name": "C#3",
          "ticks": 507904,
          "time": 248,
          "velocity": 0.7874015748031497
        },
        {
          "duration": 0.5,
          "durationTicks": 1024,
          "midi": 61,
          "name": "C#4",
          "ticks": 507904,
          "time": 248,
          "velocity": 0.7874015748031497
        },
        {
          "duration": 0.5,
          "durationTicks": 1024,
          "midi": 64,
          "name": "E4",
          "ticks": 507904,
          "time": 248,
          "velocity": 0.7874015748031497
        },
        {
          "duration": 0.5,
          "durationTicks": 1024,
          "midi": 56,
          "name": "G#3",
          "ticks": 508416,
          "time": 248.25,
          "velocity": 0.7874015748031497
        },
        {
          "duration": 0.25,
          "durationTicks": 512,
          "midi": 73,
          "name": "C#5",
          "ticks": 508928,
          "time": 248.5,
          "velocity": 0.7874015748031497
        },
        {
          "duration": 0.5,
          "durationTicks": 1024,
          "midi": 64,
          "name": "E4",
          "ticks": 508928,
          "time": 248.5,
          "velocity": 0.7874015748031497
        },
        {
          "duration": 0.25,
          "durationTicks": 512,
          "midi": 76,
          "name": "E5",
          "ticks": 509440,
          "time": 248.75,
          "velocity": 0.7874015748031497
        },
        {
          "duration": 0.25,
          "durationTicks": 512,
          "midi": 61,
          "name": "C#4",
          "ticks": 509440,
          "time": 248.75,
          "velocity": 0.7874015748031497
        },
        {
          "duration": 0.75,
          "durationTicks": 1536,
          "midi": 73,
          "name": "C#5",
          "ticks": 509952,
          "time": 249,
          "velocity": 0.7874015748031497
        },
        {
          "duration": 0.75,
          "durationTicks": 1536,
          "midi": 45,
          "name": "A2",
          "ticks": 509952,
          "time": 249,
          "velocity": 0.7874015748031497
        },
        {
          "duration": 0.5,
          "durationTicks": 1024,
          "midi": 57,
          "name": "A3",
          "ticks": 509952,
          "time": 249,
          "velocity": 0.7874015748031497
        },
        {
          "duration": 0.5,
          "durationTicks": 1024,
          "midi": 52,
          "name": "E3",
          "ticks": 510464,
          "time": 249.25,
          "velocity": 0.7874015748031497
        },
        {
          "duration": 0.5,
          "durationTicks": 1024,
          "midi": 64,
          "name": "E4",
          "ticks": 510976,
          "time": 249.5,
          "velocity": 0.7874015748031497
        },
        {
          "duration": 0.25,
          "durationTicks": 512,
          "midi": 76,
          "name": "E5",
          "ticks": 511488,
          "time": 249.75,
          "velocity": 0.7874015748031497
        },
        {
          "duration": 0.25,
          "durationTicks": 512,
          "midi": 61,
          "name": "C#4",
          "ticks": 511488,
          "time": 249.75,
          "velocity": 0.7874015748031497
        },
        {
          "duration": 0.5,
          "durationTicks": 1024,
          "midi": 75,
          "name": "D#5",
          "ticks": 512000,
          "time": 250,
          "velocity": 0.7874015748031497
        },
        {
          "duration": 0.75,
          "durationTicks": 1536,
          "midi": 47,
          "name": "B2",
          "ticks": 512000,
          "time": 250,
          "velocity": 0.7874015748031497
        },
        {
          "duration": 0.5,
          "durationTicks": 1024,
          "midi": 59,
          "name": "B3",
          "ticks": 512000,
          "time": 250,
          "velocity": 0.7874015748031497
        },
        {
          "duration": 0.5,
          "durationTicks": 1024,
          "midi": 56,
          "name": "G#3",
          "ticks": 512512,
          "time": 250.25,
          "velocity": 0.7874015748031497
        },
        {
          "duration": 0.25,
          "durationTicks": 512,
          "midi": 71,
          "name": "B4",
          "ticks": 513024,
          "time": 250.5,
          "velocity": 0.7874015748031497
        },
        {
          "duration": 0.5,
          "durationTicks": 1024,
          "midi": 66,
          "name": "F#4",
          "ticks": 513024,
          "time": 250.5,
          "velocity": 0.7874015748031497
        },
        {
          "duration": 0.25,
          "durationTicks": 512,
          "midi": 68,
          "name": "G#4",
          "ticks": 513536,
          "time": 250.75,
          "velocity": 0.7874015748031497
        },
        {
          "duration": 0.25,
          "durationTicks": 512,
          "midi": 63,
          "name": "D#4",
          "ticks": 513536,
          "time": 250.75,
          "velocity": 0.7874015748031497
        },
        {
          "duration": 0.5,
          "durationTicks": 1024,
          "midi": 71,
          "name": "B4",
          "ticks": 514048,
          "time": 251,
          "velocity": 0.7874015748031497
        },
        {
          "duration": 0.75,
          "durationTicks": 1536,
          "midi": 44,
          "name": "G#2",
          "ticks": 514048,
          "time": 251,
          "velocity": 0.7874015748031497
        },
        {
          "duration": 0.5,
          "durationTicks": 1024,
          "midi": 59,
          "name": "B3",
          "ticks": 514048,
          "time": 251,
          "velocity": 0.7874015748031497
        },
        {
          "duration": 0.5,
          "durationTicks": 1024,
          "midi": 56,
          "name": "G#3",
          "ticks": 514560,
          "time": 251.25,
          "velocity": 0.7874015748031497
        },
        {
          "duration": 0.25,
          "durationTicks": 512,
          "midi": 69,
          "name": "A4",
          "ticks": 515072,
          "time": 251.5,
          "velocity": 0.7874015748031497
        },
        {
          "duration": 0.5,
          "durationTicks": 1024,
          "midi": 63,
          "name": "D#4",
          "ticks": 515072,
          "time": 251.5,
          "velocity": 0.7874015748031497
        },
        {
          "duration": 0.25,
          "durationTicks": 512,
          "midi": 71,
          "name": "B4",
          "ticks": 515584,
          "time": 251.75,
          "velocity": 0.7874015748031497
        },
        {
          "duration": 0.25,
          "durationTicks": 512,
          "midi": 59,
          "name": "B3",
          "ticks": 515584,
          "time": 251.75,
          "velocity": 0.7874015748031497
        },
        {
          "duration": 0.5,
          "durationTicks": 1024,
          "midi": 69,
          "name": "A4",
          "ticks": 516096,
          "time": 252,
          "velocity": 0.7874015748031497
        },
        {
          "duration": 0.5,
          "durationTicks": 1024,
          "midi": 73,
          "name": "C#5",
          "ticks": 516096,
          "time": 252,
          "velocity": 0.7874015748031497
        },
        {
          "duration": 0.875,
          "durationTicks": 1792,
          "midi": 45,
          "name": "A2",
          "ticks": 516096,
          "time": 252,
          "velocity": 0.7874015748031497
        },
        {
          "duration": 0.5,
          "durationTicks": 1024,
          "midi": 57,
          "name": "A3",
          "ticks": 516096,
          "time": 252,
          "velocity": 0.7874015748031497
        },
        {
          "duration": 0.5,
          "durationTicks": 1024,
          "midi": 52,
          "name": "E3",
          "ticks": 516608,
          "time": 252.25,
          "velocity": 0.7874015748031497
        },
        {
          "duration": 0.5,
          "durationTicks": 1024,
          "midi": 64,
          "name": "E4",
          "ticks": 517120,
          "time": 252.5,
          "velocity": 0.7874015748031497
        },
        {
          "duration": 0.5,
          "durationTicks": 1024,
          "midi": 64,
          "name": "E4",
          "ticks": 517120,
          "time": 252.5,
          "velocity": 0.7874015748031497
        },
        {
          "duration": 0.25,
          "durationTicks": 512,
          "midi": 73,
          "name": "C#5",
          "ticks": 517632,
          "time": 252.75,
          "velocity": 0.7874015748031497
        },
        {
          "duration": 0.25,
          "durationTicks": 512,
          "midi": 61,
          "name": "C#4",
          "ticks": 517632,
          "time": 252.75,
          "velocity": 0.7874015748031497
        },
        {
          "duration": 0.5,
          "durationTicks": 1024,
          "midi": 66,
          "name": "F#4",
          "ticks": 518144,
          "time": 253,
          "velocity": 0.7874015748031497
        },
        {
          "duration": 0.75,
          "durationTicks": 1536,
          "midi": 42,
          "name": "F#2",
          "ticks": 518144,
          "time": 253,
          "velocity": 0.7874015748031497
        },
        {
          "duration": 0.5,
          "durationTicks": 1024,
          "midi": 54,
          "name": "F#3",
          "ticks": 518144,
          "time": 253,
          "velocity": 0.7874015748031497
        },
        {
          "duration": 0.5,
          "durationTicks": 1024,
          "midi": 49,
          "name": "C#3",
          "ticks": 518656,
          "time": 253.25,
          "velocity": 0.7874015748031497
        },
        {
          "duration": 0.25,
          "durationTicks": 512,
          "midi": 64,
          "name": "E4",
          "ticks": 519168,
          "time": 253.5,
          "velocity": 0.7874015748031497
        },
        {
          "duration": 0.5,
          "durationTicks": 1024,
          "midi": 61,
          "name": "C#4",
          "ticks": 519168,
          "time": 253.5,
          "velocity": 0.7874015748031497
        },
        {
          "duration": 0.25,
          "durationTicks": 512,
          "midi": 66,
          "name": "F#4",
          "ticks": 519680,
          "time": 253.75,
          "velocity": 0.7874015748031497
        },
        {
          "duration": 0.25,
          "durationTicks": 512,
          "midi": 57,
          "name": "A3",
          "ticks": 519680,
          "time": 253.75,
          "velocity": 0.7874015748031497
        },
        {
          "duration": 0.5,
          "durationTicks": 1024,
          "midi": 68,
          "name": "G#4",
          "ticks": 520192,
          "time": 254,
          "velocity": 0.7874015748031497
        },
        {
          "duration": 1.625,
          "durationTicks": 3328,
          "midi": 44,
          "name": "G#2",
          "ticks": 520192,
          "time": 254,
          "velocity": 0.7874015748031497
        },
        {
          "duration": 0.5,
          "durationTicks": 1024,
          "midi": 56,
          "name": "G#3",
          "ticks": 520192,
          "time": 254,
          "velocity": 0.7874015748031497
        },
        {
          "duration": 0.5,
          "durationTicks": 1024,
          "midi": 59,
          "name": "B3",
          "ticks": 520704,
          "time": 254.25,
          "velocity": 0.7874015748031497
        },
        {
          "duration": 0.25,
          "durationTicks": 512,
          "midi": 75,
          "name": "D#5",
          "ticks": 521216,
          "time": 254.5,
          "velocity": 0.7874015748031497
        },
        {
          "duration": 0.5,
          "durationTicks": 1024,
          "midi": 63,
          "name": "D#4",
          "ticks": 521216,
          "time": 254.5,
          "velocity": 0.7874015748031497
        },
        {
          "duration": 0.25,
          "durationTicks": 512,
          "midi": 71,
          "name": "B4",
          "ticks": 521728,
          "time": 254.75,
          "velocity": 0.7874015748031497
        },
        {
          "duration": 0.5,
          "durationTicks": 1024,
          "midi": 66,
          "name": "F#4",
          "ticks": 521728,
          "time": 254.75,
          "velocity": 0.7874015748031497
        },
        {
          "duration": 0.5,
          "durationTicks": 1024,
          "midi": 71,
          "name": "B4",
          "ticks": 522240,
          "time": 255,
          "velocity": 0.7874015748031497
        },
        {
          "duration": 0.5,
          "durationTicks": 1024,
          "midi": 68,
          "name": "G#4",
          "ticks": 522240,
          "time": 255,
          "velocity": 0.7874015748031497
        },
        {
          "duration": 0.5,
          "durationTicks": 1024,
          "midi": 63,
          "name": "D#4",
          "ticks": 522752,
          "time": 255.25,
          "velocity": 0.7874015748031497
        },
        {
          "duration": 0.25,
          "durationTicks": 512,
          "midi": 68,
          "name": "G#4",
          "ticks": 523264,
          "time": 255.5,
          "velocity": 0.7874015748031497
        },
        {
          "duration": 0.5,
          "durationTicks": 1024,
          "midi": 59,
          "name": "B3",
          "ticks": 523264,
          "time": 255.5,
          "velocity": 0.7874015748031497
        },
        {
          "duration": 0.25,
          "durationTicks": 512,
          "midi": 71,
          "name": "B4",
          "ticks": 523776,
          "time": 255.75,
          "velocity": 0.7874015748031497
        },
        {
          "duration": 0.125,
          "durationTicks": 256,
          "midi": 56,
          "name": "G#3",
          "ticks": 523776,
          "time": 255.75,
          "velocity": 0.7874015748031497
        },
        {
          "duration": 0.5,
          "durationTicks": 1024,
          "midi": 73,
          "name": "C#5",
          "ticks": 524288,
          "time": 256,
          "velocity": 0.7874015748031497
        },
        {
          "duration": 0.75,
          "durationTicks": 1536,
          "midi": 49,
          "name": "C#3",
          "ticks": 524288,
          "time": 256,
          "velocity": 0.7874015748031497
        },
        {
          "duration": 0.5,
          "durationTicks": 1024,
          "midi": 61,
          "name": "C#4",
          "ticks": 524288,
          "time": 256,
          "velocity": 0.7874015748031497
        },
        {
          "duration": 0.5,
          "durationTicks": 1024,
          "midi": 64,
          "name": "E4",
          "ticks": 524288,
          "time": 256,
          "velocity": 0.7874015748031497
        },
        {
          "duration": 0.5,
          "durationTicks": 1024,
          "midi": 56,
          "name": "G#3",
          "ticks": 524800,
          "time": 256.25,
          "velocity": 0.7874015748031497
        },
        {
          "duration": 0.25,
          "durationTicks": 512,
          "midi": 73,
          "name": "C#5",
          "ticks": 525312,
          "time": 256.5,
          "velocity": 0.7874015748031497
        },
        {
          "duration": 0.5,
          "durationTicks": 1024,
          "midi": 64,
          "name": "E4",
          "ticks": 525312,
          "time": 256.5,
          "velocity": 0.7874015748031497
        },
        {
          "duration": 0.25,
          "durationTicks": 512,
          "midi": 76,
          "name": "E5",
          "ticks": 525824,
          "time": 256.75,
          "velocity": 0.7874015748031497
        },
        {
          "duration": 0.25,
          "durationTicks": 512,
          "midi": 61,
          "name": "C#4",
          "ticks": 525824,
          "time": 256.75,
          "velocity": 0.7874015748031497
        },
        {
          "duration": 0.75,
          "durationTicks": 1536,
          "midi": 73,
          "name": "C#5",
          "ticks": 526336,
          "time": 257,
          "velocity": 0.7874015748031497
        },
        {
          "duration": 0.75,
          "durationTicks": 1536,
          "midi": 45,
          "name": "A2",
          "ticks": 526336,
          "time": 257,
          "velocity": 0.7874015748031497
        },
        {
          "duration": 0.5,
          "durationTicks": 1024,
          "midi": 57,
          "name": "A3",
          "ticks": 526336,
          "time": 257,
          "velocity": 0.7874015748031497
        },
        {
          "duration": 0.5,
          "durationTicks": 1024,
          "midi": 52,
          "name": "E3",
          "ticks": 526848,
          "time": 257.25,
          "velocity": 0.7874015748031497
        },
        {
          "duration": 0.5,
          "durationTicks": 1024,
          "midi": 64,
          "name": "E4",
          "ticks": 527360,
          "time": 257.5,
          "velocity": 0.7874015748031497
        },
        {
          "duration": 0.25,
          "durationTicks": 512,
          "midi": 76,
          "name": "E5",
          "ticks": 527872,
          "time": 257.75,
          "velocity": 0.7874015748031497
        },
        {
          "duration": 0.25,
          "durationTicks": 512,
          "midi": 61,
          "name": "C#4",
          "ticks": 527872,
          "time": 257.75,
          "velocity": 0.7874015748031497
        },
        {
          "duration": 0.25,
          "durationTicks": 512,
          "midi": 75,
          "name": "D#5",
          "ticks": 528384,
          "time": 258,
          "velocity": 0.7874015748031497
        },
        {
          "duration": 0.75,
          "durationTicks": 1536,
          "midi": 47,
          "name": "B2",
          "ticks": 528384,
          "time": 258,
          "velocity": 0.7874015748031497
        },
        {
          "duration": 0.5,
          "durationTicks": 1024,
          "midi": 59,
          "name": "B3",
          "ticks": 528384,
          "time": 258,
          "velocity": 0.7874015748031497
        },
        {
          "duration": 0.25,
          "durationTicks": 512,
          "midi": 71,
          "name": "B4",
          "ticks": 528896,
          "time": 258.25,
          "velocity": 0.7874015748031497
        },
        {
          "duration": 0.5,
          "durationTicks": 1024,
          "midi": 56,
          "name": "G#3",
          "ticks": 528896,
          "time": 258.25,
          "velocity": 0.7874015748031497
        },
        {
          "duration": 0.25,
          "durationTicks": 512,
          "midi": 71,
          "name": "B4",
          "ticks": 529408,
          "time": 258.5,
          "velocity": 0.7874015748031497
        },
        {
          "duration": 0.5,
          "durationTicks": 1024,
          "midi": 66,
          "name": "F#4",
          "ticks": 529408,
          "time": 258.5,
          "velocity": 0.7874015748031497
        },
        {
          "duration": 0.25,
          "durationTicks": 512,
          "midi": 68,
          "name": "G#4",
          "ticks": 529920,
          "time": 258.75,
          "velocity": 0.7874015748031497
        },
        {
          "duration": 0.25,
          "durationTicks": 512,
          "midi": 63,
          "name": "D#4",
          "ticks": 529920,
          "time": 258.75,
          "velocity": 0.7874015748031497
        },
        {
          "duration": 0.5,
          "durationTicks": 1024,
          "midi": 71,
          "name": "B4",
          "ticks": 530432,
          "time": 259,
          "velocity": 0.7874015748031497
        },
        {
          "duration": 0.75,
          "durationTicks": 1536,
          "midi": 44,
          "name": "G#2",
          "ticks": 530432,
          "time": 259,
          "velocity": 0.7874015748031497
        },
        {
          "duration": 0.5,
          "durationTicks": 1024,
          "midi": 59,
          "name": "B3",
          "ticks": 530432,
          "time": 259,
          "velocity": 0.7874015748031497
        },
        {
          "duration": 0.5,
          "durationTicks": 1024,
          "midi": 56,
          "name": "G#3",
          "ticks": 530944,
          "time": 259.25,
          "velocity": 0.7874015748031497
        },
        {
          "duration": 0.5,
          "durationTicks": 1024,
          "midi": 68,
          "name": "G#4",
          "ticks": 531456,
          "time": 259.5,
          "velocity": 0.7874015748031497
        },
        {
          "duration": 0.5,
          "durationTicks": 1024,
          "midi": 63,
          "name": "D#4",
          "ticks": 531456,
          "time": 259.5,
          "velocity": 0.7874015748031497
        },
        {
          "duration": 0.25,
          "durationTicks": 512,
          "midi": 59,
          "name": "B3",
          "ticks": 531968,
          "time": 259.75,
          "velocity": 0.7874015748031497
        },
        {
          "duration": 0.75,
          "durationTicks": 1536,
          "midi": 69,
          "name": "A4",
          "ticks": 532480,
          "time": 260,
          "velocity": 0.7874015748031497
        },
        {
          "duration": 0.75,
          "durationTicks": 1536,
          "midi": 42,
          "name": "F#2",
          "ticks": 532480,
          "time": 260,
          "velocity": 0.7874015748031497
        },
        {
          "duration": 0.375,
          "durationTicks": 768,
          "midi": 52,
          "name": "E3",
          "ticks": 532992,
          "time": 260.25,
          "velocity": 0.7874015748031497
        },
        {
          "duration": 0.375,
          "durationTicks": 768,
          "midi": 61,
          "name": "C#4",
          "ticks": 533248,
          "time": 260.375,
          "velocity": 0.7874015748031497
        },
        {
          "duration": 0.375,
          "durationTicks": 768,
          "midi": 52,
          "name": "E3",
          "ticks": 533760,
          "time": 260.625,
          "velocity": 0.7874015748031497
        },
        {
          "duration": 0.25,
          "durationTicks": 512,
          "midi": 69,
          "name": "A4",
          "ticks": 534016,
          "time": 260.75,
          "velocity": 0.7874015748031497
        },
        {
          "duration": 0.375,
          "durationTicks": 768,
          "midi": 57,
          "name": "A3",
          "ticks": 534016,
          "time": 260.75,
          "velocity": 0.7874015748031497
        },
        {
          "duration": 0.5,
          "durationTicks": 1024,
          "midi": 71,
          "name": "B4",
          "ticks": 534528,
          "time": 261,
          "velocity": 0.7874015748031497
        },
        {
          "duration": 0.75,
          "durationTicks": 1536,
          "midi": 47,
          "name": "B2",
          "ticks": 534528,
          "time": 261,
          "velocity": 0.7874015748031497
        },
        {
          "duration": 0.5,
          "durationTicks": 1024,
          "midi": 54,
          "name": "F#3",
          "ticks": 534528,
          "time": 261,
          "velocity": 0.7874015748031497
        },
        {
          "duration": 0.375,
          "durationTicks": 768,
          "midi": 59,
          "name": "B3",
          "ticks": 534528,
          "time": 261,
          "velocity": 0.7874015748031497
        },
        {
          "duration": 0.5,
          "durationTicks": 1024,
          "midi": 57,
          "name": "A3",
          "ticks": 535040,
          "time": 261.25,
          "velocity": 0.7874015748031497
        },
        {
          "duration": 0.5,
          "durationTicks": 1024,
          "midi": 71,
          "name": "B4",
          "ticks": 535552,
          "time": 261.5,
          "velocity": 0.7874015748031497
        },
        {
          "duration": 0.5,
          "durationTicks": 1024,
          "midi": 61,
          "name": "C#4",
          "ticks": 535552,
          "time": 261.5,
          "velocity": 0.7874015748031497
        },
        {
          "duration": 0.25,
          "durationTicks": 512,
          "midi": 57,
          "name": "A3",
          "ticks": 536064,
          "time": 261.75,
          "velocity": 0.7874015748031497
        },
        {
          "duration": 0.75,
          "durationTicks": 1536,
          "midi": 76,
          "name": "E5",
          "ticks": 536576,
          "time": 262,
          "velocity": 0.7874015748031497
        },
        {
          "duration": 0.875,
          "durationTicks": 1792,
          "midi": 52,
          "name": "E3",
          "ticks": 536576,
          "time": 262,
          "velocity": 0.7874015748031497
        },
        {
          "duration": 0.5,
          "durationTicks": 1024,
          "midi": 57,
          "name": "A3",
          "ticks": 537088,
          "time": 262.25,
          "velocity": 0.7874015748031497
        },
        {
          "duration": 0.5,
          "durationTicks": 1024,
          "midi": 59,
          "name": "B3",
          "ticks": 537344,
          "time": 262.375,
          "velocity": 0.7874015748031497
        },
        {
          "duration": 0.5,
          "durationTicks": 1024,
          "midi": 69,
          "name": "A4",
          "ticks": 537856,
          "time": 262.625,
          "velocity": 0.7874015748031497
        },
        {
          "duration": 0.25,
          "durationTicks": 512,
          "midi": 76,
          "name": "E5",
          "ticks": 538112,
          "time": 262.75,
          "velocity": 0.7874015748031497
        },
        {
          "duration": 0.5,
          "durationTicks": 1024,
          "midi": 71,
          "name": "B4",
          "ticks": 538112,
          "time": 262.75,
          "velocity": 0.7874015748031497
        },
        {
          "duration": 1,
          "durationTicks": 2048,
          "midi": 76,
          "name": "E5",
          "ticks": 538624,
          "time": 263,
          "velocity": 0.7874015748031497
        },
        {
          "duration": 2,
          "durationTicks": 4096,
          "midi": 66,
          "name": "F#4",
          "ticks": 538624,
          "time": 263,
          "velocity": 0.5039370078740157
        },
        {
          "duration": 2,
          "durationTicks": 4096,
          "midi": 68,
          "name": "G#4",
          "ticks": 538624,
          "time": 263,
          "velocity": 0.7874015748031497
        }
      ],
      "endOfTrackTicks": 542721
    }
  ]
}