{
  "header": {
    "keySignatures": [],
    "meta": {
      "title": "International Love",
      "artist": "Pitbull ft. Chris Brown",
      "creator": "David Francia"
    },
    "name": "INTERNATIONAL LOVE MIDI by RUSYAIDI seq. by David Francia",
    "ppq": 96,
    "tempos": [
      {
        "bpm": 120,
        "ticks": 0
      },
      {
        "bpm": 120,
        "ticks": 0
      },
      {
        "bpm": 120,
        "ticks": 0
      },
      {
        "bpm": 120,
        "ticks": 0
      },
      {
        "bpm": 120,
        "ticks": 34176
      }
    ],
    "timeSignatures": [
      {
        "ticks": 0,
        "timeSignature": [
          4,
          4
        ],
        "measures": 0
      }
    ]
  },
  "tracks": [
    {
      "channel": 0,
      "controlChanges": {},
      "pitchBends": [],
      "instrument": {
        "family": "piano",
        "number": 0,
        "name": "acoustic grand piano"
      },
      "name": "Soft karaoke",
      "notes": [],
      "endOfTrackTicks": 0
    },
    {
      "channel": 0,
      "controlChanges": {},
      "pitchBends": [],
      "instrument": {
        "family": "piano",
        "number": 0,
        "name": "acoustic grand piano"
      },
      "name": "Words",
      "notes": [],
      "endOfTrackTicks": 33792
    },
    {
      "channel": 0,
      "controlChanges": {},
      "pitchBends": [],
      "instrument": {
        "family": "piano",
        "number": 0,
        "name": "acoustic grand piano"
      },
      "name": "",
      "notes": [],
      "endOfTrackTicks": 34195
    },
    {
      "channel": 0,
      "controlChanges": {
        "6": [
          {
            "number": 6,
            "ticks": 0,
            "time": 0,
            "value": 0.09448818897637795
          },
          {
            "number": 6,
            "ticks": 0,
            "time": 0,
            "value": 0.09448818897637795
          },
          {
            "number": 6,
            "ticks": 0,
            "time": 0,
            "value": 0.09448818897637795
          }
        ],
        "7": [
          {
            "number": 7,
            "ticks": 0,
            "time": 0,
            "value": 1
          },
          {
            "number": 7,
            "ticks": 0,
            "time": 0,
            "value": 1
          },
          {
            "number": 7,
            "ticks": 0,
            "time": 0,
            "value": 1
          },
          {
            "number": 7,
            "ticks": 0,
            "time": 0,
            "value": 1
          },
          {
            "number": 7,
            "ticks": 0,
            "time": 0,
            "value": 1
          },
          {
            "number": 7,
            "ticks": 0,
            "time": 0,
            "value": 1
          }
        ],
        "10": [
          {
            "number": 10,
            "ticks": 0,
            "time": 0,
            "value": 0.5039370078740157
          },
          {
            "number": 10,
            "ticks": 0,
            "time": 0,
            "value": 0.5039370078740157
          },
          {
            "number": 10,
            "ticks": 0,
            "time": 0,
            "value": 0.5039370078740157
          },
          {
            "number": 10,
            "ticks": 0,
            "time": 0,
            "value": 0.5039370078740157
          },
          {
            "number": 10,
            "ticks": 0,
            "time": 0,
            "value": 0.5039370078740157
          },
          {
            "number": 10,
            "ticks": 0,
            "time": 0,
            "value": 0.5039370078740157
          }
        ],
        "100": [
          {
            "number": 100,
            "ticks": 0,
            "time": 0,
            "value": 0
          },
          {
            "number": 100,
            "ticks": 0,
            "time": 0,
            "value": 0
          },
          {
            "number": 100,
            "ticks": 0,
            "time": 0,
            "value": 0
          }
        ],
        "101": [
          {
            "number": 101,
            "ticks": 0,
            "time": 0,
            "value": 0
          },
          {
            "number": 101,
            "ticks": 0,
            "time": 0,
            "value": 0
          },
          {
            "number": 101,
            "ticks": 0,
            "time": 0,
            "value": 0
          }
        ]
      },
      "pitchBends": [
        {
          "ticks": 0,
          "time": 0,
          "value": 0
        },
        {
          "ticks": 0,
          "time": 0,
          "value": 0
        },
        {
          "ticks": 0,
          "time": 0,
          "value": 0
        },
        {
          "ticks": 0,
          "time": 0,
          "value": 0
        }
      ],
      "instrument": {
        "family": "piano",
        "number": 0,
        "name": "acoustic grand piano"
      },
      "name": "Steel String Guitar",
      "notes": [],
      "endOfTrackTicks": 34195
    },
    {
      "channel": 0,
      "controlChanges": {
        "6": [
          {
            "number": 6,
            "ticks": 34176,
            "time": 178,
            "value": 0.09448818897637795
          },
          {
            "number": 6,
            "ticks": 34177,
            "time": 178.00520833333334,
            "value": 0.09448818897637795
          }
        ],
        "7": [
          {
            "number": 7,
            "ticks": 34176,
            "time": 178,
            "value": 1
          },
          {
            "number": 7,
            "ticks": 34176,
            "time": 178,
            "value": 1
          },
          {
            "number": 7,
            "ticks": 34177,
            "time": 178.00520833333334,
            "value": 1
          }
        ],
        "10": [
          {
            "number": 10,
            "ticks": 34176,
            "time": 178,
            "value": 0.5039370078740157
          },
          {
            "number": 10,
            "ticks": 34176,
            "time": 178,
            "value": 0.5039370078740157
          },
          {
            "number": 10,
            "ticks": 34177,
            "time": 178.00520833333334,
            "value": 0.5039370078740157
          }
        ],
        "100": [
          {
            "number": 100,
            "ticks": 34176,
            "time": 178,
            "value": 0
          },
          {
            "number": 100,
            "ticks": 34177,
            "time": 178.00520833333334,
            "value": 0
          }
        ],
        "101": [
          {
            "number": 101,
            "ticks": 34176,
            "time": 178,
            "value": 0
          },
          {
            "number": 101,
            "ticks": 34177,
            "time": 178.00520833333334,
            "value": 0
          }
        ]
      },
      "pitchBends": [
        {
          "ticks": 34176,
          "time": 178,
          "value": 0
        },
        {
          "ticks": 34177,
          "time": 178.00520833333334,
          "value": 0
        }
      ],
      "instrument": {
        "family": "guitar",
        "number": 25,
        "name": "acoustic guitar (steel)"
      },
      "name": "",
      "notes": [
        {
          "duration": 0.36979166666666674,
          "durationTicks": 71,
          "midi": 79,
          "name": "G5",
          "ticks": 192,
          "time": 1,
          "velocity": 0.8661417322834646
        },
        {
          "duration": 0.36979166666666674,
          "durationTicks": 71,
          "midi": 79,
          "name": "G5",
          "ticks": 264,
          "time": 1.375,
          "velocity": 0.8661417322834646
        },
        {
          "duration": 0.11979166666666674,
          "durationTicks": 23,
          "midi": 79,
          "name": "G5",
          "ticks": 336,
          "time": 1.75,
          "velocity": 0.8661417322834646
        },
        {
          "duration": 0.11979166666666674,
          "durationTicks": 23,
          "midi": 79,
          "name": "G5",
          "ticks": 360,
          "time": 1.875,
          "velocity": 0.8661417322834646
        },
        {
          "duration": 0.3697916666666665,
          "durationTicks": 71,
          "midi": 80,
          "name": "G#5",
          "ticks": 384,
          "time": 2,
          "velocity": 0.8661417322834646
        },
        {
          "duration": 0.3697916666666665,
          "durationTicks": 71,
          "midi": 80,
          "name": "G#5",
          "ticks": 456,
          "time": 2.375,
          "velocity": 0.8661417322834646
        },
        {
          "duration": 0.11979166666666652,
          "durationTicks": 23,
          "midi": 80,
          "name": "G#5",
          "ticks": 528,
          "time": 2.75,
          "velocity": 0.8661417322834646
        },
        {
          "duration": 0.11979166666666652,
          "durationTicks": 23,
          "midi": 80,
          "name": "G#5",
          "ticks": 552,
          "time": 2.875,
          "velocity": 0.8661417322834646
        },
        {
          "duration": 0.3697916666666665,
          "durationTicks": 71,
          "midi": 79,
          "name": "G5",
          "ticks": 576,
          "time": 3,
          "velocity": 0.8661417322834646
        },
        {
          "duration": 0.3697916666666665,
          "durationTicks": 71,
          "midi": 79,
          "name": "G5",
          "ticks": 648,
          "time": 3.375,
          "velocity": 0.8661417322834646
        },
        {
          "duration": 0.11979166666666652,
          "durationTicks": 23,
          "midi": 79,
          "name": "G5",
          "ticks": 720,
          "time": 3.75,
          "velocity": 0.8661417322834646
        },
        {
          "duration": 0.11979166666666652,
          "durationTicks": 23,
          "midi": 79,
          "name": "G5",
          "ticks": 744,
          "time": 3.875,
          "velocity": 0.8661417322834646
        },
        {
          "duration": 0.36979166666666696,
          "durationTicks": 71,
          "midi": 77,
          "name": "F5",
          "ticks": 768,
          "time": 4,
          "velocity": 0.8661417322834646
        },
        {
          "duration": 0.36979166666666696,
          "durationTicks": 71,
          "midi": 77,
          "name": "F5",
          "ticks": 840,
          "time": 4.375,
          "velocity": 0.8661417322834646
        },
        {
          "duration": 0.11979166666666696,
          "durationTicks": 23,
          "midi": 77,
          "name": "F5",
          "ticks": 912,
          "time": 4.75,
          "velocity": 0.8661417322834646
        },
        {
          "duration": 0.11979166666666696,
          "durationTicks": 23,
          "midi": 77,
          "name": "F5",
          "ticks": 936,
          "time": 4.875,
          "velocity": 0.8661417322834646
        },
        {
          "duration": 0.36979166666666696,
          "durationTicks": 71,
          "midi": 79,
          "name": "G5",
          "ticks": 960,
          "time": 5,
          "velocity": 0.8661417322834646
        },
        {
          "duration": 0.36979166666666696,
          "durationTicks": 71,
          "midi": 79,
          "name": "G5",
          "ticks": 1032,
          "time": 5.375,
          "velocity": 0.8661417322834646
        },
        {
          "duration": 0.11979166666666696,
          "durationTicks": 23,
          "midi": 79,
          "name": "G5",
          "ticks": 1104,
          "time": 5.75,
          "velocity": 0.8661417322834646
        },
        {
          "duration": 0.11979166666666696,
          "durationTicks": 23,
          "midi": 79,
          "name": "G5",
          "ticks": 1128,
          "time": 5.875,
          "velocity": 0.8661417322834646
        },
        {
          "duration": 0.36979166666666696,
          "durationTicks": 71,
          "midi": 80,
          "name": "G#5",
          "ticks": 1152,
          "time": 6,
          "velocity": 0.8661417322834646
        },
        {
          "duration": 0.36979166666666696,
          "durationTicks": 71,
          "midi": 80,
          "name": "G#5",
          "ticks": 1224,
          "time": 6.375,
          "velocity": 0.8661417322834646
        },
        {
          "duration": 0.11979166666666696,
          "durationTicks": 23,
          "midi": 80,
          "name": "G#5",
          "ticks": 1296,
          "time": 6.75,
          "velocity": 0.8661417322834646
        },
        {
          "duration": 0.11979166666666696,
          "durationTicks": 23,
          "midi": 80,
          "name": "G#5",
          "ticks": 1320,
          "time": 6.875,
          "velocity": 0.8661417322834646
        },
        {
          "duration": 0.36979166666666696,
          "durationTicks": 71,
          "midi": 79,
          "name": "G5",
          "ticks": 1344,
          "time": 7,
          "velocity": 0.8661417322834646
        },
        {
          "duration": 0.36979166666666696,
          "durationTicks": 71,
          "midi": 79,
          "name": "G5",
          "ticks": 1416,
          "time": 7.375,
          "velocity": 0.8661417322834646
        },
        {
          "duration": 0.11979166666666696,
          "durationTicks": 23,
          "midi": 79,
          "name": "G5",
          "ticks": 1488,
          "time": 7.75,
          "velocity": 0.8661417322834646
        },
        {
          "duration": 0.11979166666666696,
          "durationTicks": 23,
          "midi": 79,
          "name": "G5",
          "ticks": 1512,
          "time": 7.875,
          "velocity": 0.8661417322834646
        },
        {
          "duration": 0.3697916666666661,
          "durationTicks": 71,
          "midi": 82,
          "name": "A#5",
          "ticks": 1536,
          "time": 8,
          "velocity": 0.8661417322834646
        },
        {
          "duration": 0.3697916666666661,
          "durationTicks": 71,
          "midi": 82,
          "name": "A#5",
          "ticks": 1608,
          "time": 8.375,
          "velocity": 0.8661417322834646
        },
        {
          "duration": 0.11979166666666607,
          "durationTicks": 23,
          "midi": 82,
          "name": "A#5",
          "ticks": 1680,
          "time": 8.75,
          "velocity": 0.8661417322834646
        },
        {
          "duration": 0.11979166666666607,
          "durationTicks": 23,
          "midi": 82,
          "name": "A#5",
          "ticks": 1704,
          "time": 8.875,
          "velocity": 0.8661417322834646
        },
        {
          "duration": 0.3697916666666661,
          "durationTicks": 71,
          "midi": 79,
          "name": "G5",
          "ticks": 1728,
          "time": 9,
          "velocity": 0.8661417322834646
        },
        {
          "duration": 0.3697916666666661,
          "durationTicks": 71,
          "midi": 79,
          "name": "G5",
          "ticks": 1800,
          "time": 9.375,
          "velocity": 0.8661417322834646
        },
        {
          "duration": 0.11979166666666607,
          "durationTicks": 23,
          "midi": 79,
          "name": "G5",
          "ticks": 1872,
          "time": 9.75,
          "velocity": 0.8661417322834646
        },
        {
          "duration": 0.11979166666666607,
          "durationTicks": 23,
          "midi": 79,
          "name": "G5",
          "ticks": 1896,
          "time": 9.875,
          "velocity": 0.8661417322834646
        },
        {
          "duration": 0.3697916666666661,
          "durationTicks": 71,
          "midi": 80,
          "name": "G#5",
          "ticks": 1920,
          "time": 10,
          "velocity": 0.8661417322834646
        },
        {
          "duration": 0.3697916666666661,
          "durationTicks": 71,
          "midi": 80,
          "name": "G#5",
          "ticks": 1992,
          "time": 10.375,
          "velocity": 0.8661417322834646
        },
        {
          "duration": 0.11979166666666607,
          "durationTicks": 23,
          "midi": 80,
          "name": "G#5",
          "ticks": 2064,
          "time": 10.75,
          "velocity": 0.8661417322834646
        },
        {
          "duration": 0.11979166666666607,
          "durationTicks": 23,
          "midi": 80,
          "name": "G#5",
          "ticks": 2088,
          "time": 10.875,
          "velocity": 0.8661417322834646
        },
        {
          "duration": 0.3697916666666661,
          "durationTicks": 71,
          "midi": 79,
          "name": "G5",
          "ticks": 2112,
          "time": 11,
          "velocity": 0.8661417322834646
        },
        {
          "duration": 0.3697916666666661,
          "durationTicks": 71,
          "midi": 79,
          "name": "G5",
          "ticks": 2184,
          "time": 11.375,
          "velocity": 0.8661417322834646
        },
        {
          "duration": 0.11979166666666607,
          "durationTicks": 23,
          "midi": 79,
          "name": "G5",
          "ticks": 2256,
          "time": 11.75,
          "velocity": 0.8661417322834646
        },
        {
          "duration": 0.11979166666666607,
          "durationTicks": 23,
          "midi": 79,
          "name": "G5",
          "ticks": 2280,
          "time": 11.875,
          "velocity": 0.8661417322834646
        },
        {
          "duration": 0.3697916666666661,
          "durationTicks": 71,
          "midi": 77,
          "name": "F5",
          "ticks": 2304,
          "time": 12,
          "velocity": 0.8661417322834646
        },
        {
          "duration": 0.3697916666666661,
          "durationTicks": 71,
          "midi": 77,
          "name": "F5",
          "ticks": 2376,
          "time": 12.375,
          "velocity": 0.8661417322834646
        },
        {
          "duration": 0.11979166666666607,
          "durationTicks": 23,
          "midi": 77,
          "name": "F5",
          "ticks": 2448,
          "time": 12.75,
          "velocity": 0.8661417322834646
        },
        {
          "duration": 0.11979166666666607,
          "durationTicks": 23,
          "midi": 77,
          "name": "F5",
          "ticks": 2472,
          "time": 12.875,
          "velocity": 0.8661417322834646
        },
        {
          "duration": 0.3697916666666661,
          "durationTicks": 71,
          "midi": 79,
          "name": "G5",
          "ticks": 2496,
          "time": 13,
          "velocity": 0.8661417322834646
        },
        {
          "duration": 0.3697916666666661,
          "durationTicks": 71,
          "midi": 79,
          "name": "G5",
          "ticks": 2568,
          "time": 13.375,
          "velocity": 0.8661417322834646
        },
        {
          "duration": 0.11979166666666607,
          "durationTicks": 23,
          "midi": 79,
          "name": "G5",
          "ticks": 2640,
          "time": 13.75,
          "velocity": 0.8661417322834646
        },
        {
          "duration": 0.11979166666666607,
          "durationTicks": 23,
          "midi": 79,
          "name": "G5",
          "ticks": 2664,
          "time": 13.875,
          "velocity": 0.8661417322834646
        },
        {
          "duration": 0.3697916666666661,
          "durationTicks": 71,
          "midi": 80,
          "name": "G#5",
          "ticks": 2688,
          "time": 14,
          "velocity": 0.8661417322834646
        },
        {
          "duration": 0.3697916666666661,
          "durationTicks": 71,
          "midi": 80,
          "name": "G#5",
          "ticks": 2760,
          "time": 14.375,
          "velocity": 0.8661417322834646
        },
        {
          "duration": 0.11979166666666607,
          "durationTicks": 23,
          "midi": 80,
          "name": "G#5",
          "ticks": 2832,
          "time": 14.75,
          "velocity": 0.8661417322834646
        },
        {
          "duration": 0.11979166666666607,
          "durationTicks": 23,
          "midi": 80,
          "name": "G#5",
          "ticks": 2856,
          "time": 14.875,
          "velocity": 0.8661417322834646
        },
        {
          "duration": 0.3697916666666661,
          "durationTicks": 71,
          "midi": 79,
          "name": "G5",
          "ticks": 2880,
          "time": 15,
          "velocity": 0.8661417322834646
        },
        {
          "duration": 0.3697916666666661,
          "durationTicks": 71,
          "midi": 79,
          "name": "G5",
          "ticks": 2952,
          "time": 15.375,
          "velocity": 0.8661417322834646
        },
        {
          "duration": 0.11979166666666607,
          "durationTicks": 23,
          "midi": 79,
          "name": "G5",
          "ticks": 3024,
          "time": 15.75,
          "velocity": 0.8661417322834646
        },
        {
          "duration": 0.11979166666666607,
          "durationTicks": 23,
          "midi": 79,
          "name": "G5",
          "ticks": 3048,
          "time": 15.875,
          "velocity": 0.8661417322834646
        },
        {
          "duration": 0.36979166666666785,
          "durationTicks": 71,
          "midi": 82,
          "name": "A#5",
          "ticks": 3072,
          "time": 16,
          "velocity": 0.8661417322834646
        },
        {
          "duration": 0.36979166666666785,
          "durationTicks": 71,
          "midi": 82,
          "name": "A#5",
          "ticks": 3144,
          "time": 16.375,
          "velocity": 0.8661417322834646
        },
        {
          "duration": 0.11979166666666785,
          "durationTicks": 23,
          "midi": 82,
          "name": "A#5",
          "ticks": 3216,
          "time": 16.75,
          "velocity": 0.8661417322834646
        },
        {
          "duration": 0.11979166666666785,
          "durationTicks": 23,
          "midi": 82,
          "name": "A#5",
          "ticks": 3240,
          "time": 16.875,
          "velocity": 0.8661417322834646
        },
        {
          "duration": 0.36979166666666785,
          "durationTicks": 71,
          "midi": 79,
          "name": "G5",
          "ticks": 3264,
          "time": 17,
          "velocity": 0.8661417322834646
        },
        {
          "duration": 0.36979166666666785,
          "durationTicks": 71,
          "midi": 79,
          "name": "G5",
          "ticks": 3336,
          "time": 17.375,
          "velocity": 0.8661417322834646
        },
        {
          "duration": 0.11979166666666785,
          "durationTicks": 23,
          "midi": 79,
          "name": "G5",
          "ticks": 3408,
          "time": 17.75,
          "velocity": 0.8661417322834646
        },
        {
          "duration": 0.11979166666666785,
          "durationTicks": 23,
          "midi": 79,
          "name": "G5",
          "ticks": 3432,
          "time": 17.875,
          "velocity": 0.8661417322834646
        },
        {
          "duration": 0.36979166666666785,
          "durationTicks": 71,
          "midi": 80,
          "name": "G#5",
          "ticks": 3456,
          "time": 18,
          "velocity": 0.8661417322834646
        },
        {
          "duration": 0.36979166666666785,
          "durationTicks": 71,
          "midi": 80,
          "name": "G#5",
          "ticks": 3528,
          "time": 18.375,
          "velocity": 0.8661417322834646
        },
        {
          "duration": 0.11979166666666785,
          "durationTicks": 23,
          "midi": 80,
          "name": "G#5",
          "ticks": 3600,
          "time": 18.75,
          "velocity": 0.8661417322834646
        },
        {
          "duration": 0.11979166666666785,
          "durationTicks": 23,
          "midi": 80,
          "name": "G#5",
          "ticks": 3624,
          "time": 18.875,
          "velocity": 0.8661417322834646
        },
        {
          "duration": 0.36979166666666785,
          "durationTicks": 71,
          "midi": 79,
          "name": "G5",
          "ticks": 3648,
          "time": 19,
          "velocity": 0.8661417322834646
        },
        {
          "duration": 0.36979166666666785,
          "durationTicks": 71,
          "midi": 79,
          "name": "G5",
          "ticks": 3720,
          "time": 19.375,
          "velocity": 0.8661417322834646
        },
        {
          "duration": 0.11979166666666785,
          "durationTicks": 23,
          "midi": 79,
          "name": "G5",
          "ticks": 3792,
          "time": 19.75,
          "velocity": 0.8661417322834646
        },
        {
          "duration": 0.11979166666666785,
          "durationTicks": 23,
          "midi": 79,
          "name": "G5",
          "ticks": 3816,
          "time": 19.875,
          "velocity": 0.8661417322834646
        },
        {
          "duration": 0.36979166666666785,
          "durationTicks": 71,
          "midi": 82,
          "name": "A#5",
          "ticks": 3840,
          "time": 20,
          "velocity": 0.8661417322834646
        },
        {
          "duration": 0.36979166666666785,
          "durationTicks": 71,
          "midi": 82,
          "name": "A#5",
          "ticks": 3912,
          "time": 20.375,
          "velocity": 0.8661417322834646
        },
        {
          "duration": 0.11979166666666785,
          "durationTicks": 23,
          "midi": 82,
          "name": "A#5",
          "ticks": 3984,
          "time": 20.75,
          "velocity": 0.8661417322834646
        },
        {
          "duration": 0.11979166666666785,
          "durationTicks": 23,
          "midi": 82,
          "name": "A#5",
          "ticks": 4008,
          "time": 20.875,
          "velocity": 0.8661417322834646
        },
        {
          "duration": 0.3697916666666643,
          "durationTicks": 71,
          "midi": 79,
          "name": "G5",
          "ticks": 7104,
          "time": 37,
          "velocity": 0.8661417322834646
        },
        {
          "duration": 0.3697916666666643,
          "durationTicks": 71,
          "midi": 79,
          "name": "G5",
          "ticks": 7176,
          "time": 37.375,
          "velocity": 0.8661417322834646
        },
        {
          "duration": 0.1197916666666643,
          "durationTicks": 23,
          "midi": 79,
          "name": "G5",
          "ticks": 7248,
          "time": 37.75,
          "velocity": 0.8661417322834646
        },
        {
          "duration": 0.1197916666666643,
          "durationTicks": 23,
          "midi": 79,
          "name": "G5",
          "ticks": 7272,
          "time": 37.875,
          "velocity": 0.8661417322834646
        },
        {
          "duration": 0.3697916666666643,
          "durationTicks": 71,
          "midi": 80,
          "name": "G#5",
          "ticks": 7296,
          "time": 38,
          "velocity": 0.8661417322834646
        },
        {
          "duration": 0.3697916666666643,
          "durationTicks": 71,
          "midi": 80,
          "name": "G#5",
          "ticks": 7368,
          "time": 38.375,
          "velocity": 0.8661417322834646
        },
        {
          "duration": 0.1197916666666643,
          "durationTicks": 23,
          "midi": 80,
          "name": "G#5",
          "ticks": 7440,
          "time": 38.75,
          "velocity": 0.8661417322834646
        },
        {
          "duration": 0.1197916666666643,
          "durationTicks": 23,
          "midi": 80,
          "name": "G#5",
          "ticks": 7464,
          "time": 38.875,
          "velocity": 0.8661417322834646
        },
        {
          "duration": 0.3697916666666643,
          "durationTicks": 71,
          "midi": 79,
          "name": "G5",
          "ticks": 7488,
          "time": 39,
          "velocity": 0.8661417322834646
        },
        {
          "duration": 0.3697916666666643,
          "durationTicks": 71,
          "midi": 79,
          "name": "G5",
          "ticks": 7560,
          "time": 39.375,
          "velocity": 0.8661417322834646
        },
        {
          "duration": 0.1197916666666643,
          "durationTicks": 23,
          "midi": 79,
          "name": "G5",
          "ticks": 7632,
          "time": 39.75,
          "velocity": 0.8661417322834646
        },
        {
          "duration": 0.1197916666666643,
          "durationTicks": 23,
          "midi": 79,
          "name": "G5",
          "ticks": 7656,
          "time": 39.875,
          "velocity": 0.8661417322834646
        },
        {
          "duration": 0.3697916666666643,
          "durationTicks": 71,
          "midi": 77,
          "name": "F5",
          "ticks": 7680,
          "time": 40,
          "velocity": 0.8661417322834646
        },
        {
          "duration": 0.3697916666666643,
          "durationTicks": 71,
          "midi": 77,
          "name": "F5",
          "ticks": 7752,
          "time": 40.375,
          "velocity": 0.8661417322834646
        },
        {
          "duration": 0.1197916666666643,
          "durationTicks": 23,
          "midi": 77,
          "name": "F5",
          "ticks": 7824,
          "time": 40.75,
          "velocity": 0.8661417322834646
        },
        {
          "duration": 0.1197916666666643,
          "durationTicks": 23,
          "midi": 77,
          "name": "F5",
          "ticks": 7848,
          "time": 40.875,
          "velocity": 0.8661417322834646
        },
        {
          "duration": 0.3697916666666643,
          "durationTicks": 71,
          "midi": 79,
          "name": "G5",
          "ticks": 7872,
          "time": 41,
          "velocity": 0.8661417322834646
        },
        {
          "duration": 0.3697916666666643,
          "durationTicks": 71,
          "midi": 79,
          "name": "G5",
          "ticks": 7944,
          "time": 41.375,
          "velocity": 0.8661417322834646
        },
        {
          "duration": 0.1197916666666643,
          "durationTicks": 23,
          "midi": 79,
          "name": "G5",
          "ticks": 8016,
          "time": 41.75,
          "velocity": 0.8661417322834646
        },
        {
          "duration": 0.1197916666666643,
          "durationTicks": 23,
          "midi": 79,
          "name": "G5",
          "ticks": 8040,
          "time": 41.875,
          "velocity": 0.8661417322834646
        },
        {
          "duration": 0.3697916666666643,
          "durationTicks": 71,
          "midi": 80,
          "name": "G#5",
          "ticks": 8064,
          "time": 42,
          "velocity": 0.8661417322834646
        },
        {
          "duration": 0.3697916666666643,
          "durationTicks": 71,
          "midi": 80,
          "name": "G#5",
          "ticks": 8136,
          "time": 42.375,
          "velocity": 0.8661417322834646
        },
        {
          "duration": 0.1197916666666643,
          "durationTicks": 23,
          "midi": 80,
          "name": "G#5",
          "ticks": 8208,
          "time": 42.75,
          "velocity": 0.8661417322834646
        },
        {
          "duration": 0.1197916666666643,
          "durationTicks": 23,
          "midi": 80,
          "name": "G#5",
          "ticks": 8232,
          "time": 42.875,
          "velocity": 0.8661417322834646
        },
        {
          "duration": 0.3697916666666643,
          "durationTicks": 71,
          "midi": 79,
          "name": "G5",
          "ticks": 8256,
          "time": 43,
          "velocity": 0.8661417322834646
        },
        {
          "duration": 0.3697916666666643,
          "durationTicks": 71,
          "midi": 79,
          "name": "G5",
          "ticks": 8328,
          "time": 43.375,
          "velocity": 0.8661417322834646
        },
        {
          "duration": 0.1197916666666643,
          "durationTicks": 23,
          "midi": 79,
          "name": "G5",
          "ticks": 8400,
          "time": 43.75,
          "velocity": 0.8661417322834646
        },
        {
          "duration": 0.1197916666666643,
          "durationTicks": 23,
          "midi": 79,
          "name": "G5",
          "ticks": 8424,
          "time": 43.875,
          "velocity": 0.8661417322834646
        },
        {
          "duration": 0.3697916666666643,
          "durationTicks": 71,
          "midi": 82,
          "name": "A#5",
          "ticks": 8448,
          "time": 44,
          "velocity": 0.8661417322834646
        },
        {
          "duration": 0.3697916666666643,
          "durationTicks": 71,
          "midi": 82,
          "name": "A#5",
          "ticks": 8520,
          "time": 44.375,
          "velocity": 0.8661417322834646
        },
        {
          "duration": 0.1197916666666643,
          "durationTicks": 23,
          "midi": 82,
          "name": "A#5",
          "ticks": 8592,
          "time": 44.75,
          "velocity": 0.8661417322834646
        },
        {
          "duration": 0.1197916666666643,
          "durationTicks": 23,
          "midi": 82,
          "name": "A#5",
          "ticks": 8616,
          "time": 44.875,
          "velocity": 0.8661417322834646
        },
        {
          "duration": 0.3697916666666643,
          "durationTicks": 71,
          "midi": 79,
          "name": "G5",
          "ticks": 8640,
          "time": 45,
          "velocity": 0.8661417322834646
        },
        {
          "duration": 0.3697916666666643,
          "durationTicks": 71,
          "midi": 79,
          "name": "G5",
          "ticks": 8712,
          "time": 45.375,
          "velocity": 0.8661417322834646
        },
        {
          "duration": 0.1197916666666643,
          "durationTicks": 23,
          "midi": 79,
          "name": "G5",
          "ticks": 8784,
          "time": 45.75,
          "velocity": 0.8661417322834646
        },
        {
          "duration": 0.1197916666666643,
          "durationTicks": 23,
          "midi": 79,
          "name": "G5",
          "ticks": 8808,
          "time": 45.875,
          "velocity": 0.8661417322834646
        },
        {
          "duration": 0.3697916666666643,
          "durationTicks": 71,
          "midi": 80,
          "name": "G#5",
          "ticks": 8832,
          "time": 46,
          "velocity": 0.8661417322834646
        },
        {
          "duration": 0.3697916666666643,
          "durationTicks": 71,
          "midi": 80,
          "name": "G#5",
          "ticks": 8904,
          "time": 46.375,
          "velocity": 0.8661417322834646
        },
        {
          "duration": 0.1197916666666643,
          "durationTicks": 23,
          "midi": 80,
          "name": "G#5",
          "ticks": 8976,
          "time": 46.75,
          "velocity": 0.8661417322834646
        },
        {
          "duration": 0.1197916666666643,
          "durationTicks": 23,
          "midi": 80,
          "name": "G#5",
          "ticks": 9000,
          "time": 46.875,
          "velocity": 0.8661417322834646
        },
        {
          "duration": 0.3697916666666643,
          "durationTicks": 71,
          "midi": 79,
          "name": "G5",
          "ticks": 9024,
          "time": 47,
          "velocity": 0.8661417322834646
        },
        {
          "duration": 0.3697916666666643,
          "durationTicks": 71,
          "midi": 79,
          "name": "G5",
          "ticks": 9096,
          "time": 47.375,
          "velocity": 0.8661417322834646
        },
        {
          "duration": 0.1197916666666643,
          "durationTicks": 23,
          "midi": 79,
          "name": "G5",
          "ticks": 9168,
          "time": 47.75,
          "velocity": 0.8661417322834646
        },
        {
          "duration": 0.1197916666666643,
          "durationTicks": 23,
          "midi": 79,
          "name": "G5",
          "ticks": 9192,
          "time": 47.875,
          "velocity": 0.8661417322834646
        },
        {
          "duration": 0.3697916666666643,
          "durationTicks": 71,
          "midi": 77,
          "name": "F5",
          "ticks": 9216,
          "time": 48,
          "velocity": 0.8661417322834646
        },
        {
          "duration": 0.3697916666666643,
          "durationTicks": 71,
          "midi": 77,
          "name": "F5",
          "ticks": 9288,
          "time": 48.375,
          "velocity": 0.8661417322834646
        },
        {
          "duration": 0.1197916666666643,
          "durationTicks": 23,
          "midi": 77,
          "name": "F5",
          "ticks": 9360,
          "time": 48.75,
          "velocity": 0.8661417322834646
        },
        {
          "duration": 0.1197916666666643,
          "durationTicks": 23,
          "midi": 77,
          "name": "F5",
          "ticks": 9384,
          "time": 48.875,
          "velocity": 0.8661417322834646
        },
        {
          "duration": 0.3697916666666643,
          "durationTicks": 71,
          "midi": 79,
          "name": "G5",
          "ticks": 9408,
          "time": 49,
          "velocity": 0.8661417322834646
        },
        {
          "duration": 0.3697916666666643,
          "durationTicks": 71,
          "midi": 79,
          "name": "G5",
          "ticks": 9480,
          "time": 49.375,
          "velocity": 0.8661417322834646
        },
        {
          "duration": 0.1197916666666643,
          "durationTicks": 23,
          "midi": 79,
          "name": "G5",
          "ticks": 9552,
          "time": 49.75,
          "velocity": 0.8661417322834646
        },
        {
          "duration": 0.1197916666666643,
          "durationTicks": 23,
          "midi": 79,
          "name": "G5",
          "ticks": 9576,
          "time": 49.875,
          "velocity": 0.8661417322834646
        },
        {
          "duration": 0.3697916666666643,
          "durationTicks": 71,
          "midi": 80,
          "name": "G#5",
          "ticks": 9600,
          "time": 50,
          "velocity": 0.8661417322834646
        },
        {
          "duration": 0.3697916666666643,
          "durationTicks": 71,
          "midi": 80,
          "name": "G#5",
          "ticks": 9672,
          "time": 50.375,
          "velocity": 0.8661417322834646
        },
        {
          "duration": 0.1197916666666643,
          "durationTicks": 23,
          "midi": 80,
          "name": "G#5",
          "ticks": 9744,
          "time": 50.75,
          "velocity": 0.8661417322834646
        },
        {
          "duration": 0.1197916666666643,
          "durationTicks": 23,
          "midi": 80,
          "name": "G#5",
          "ticks": 9768,
          "time": 50.875,
          "velocity": 0.8661417322834646
        },
        {
          "duration": 0.3697916666666643,
          "durationTicks": 71,
          "midi": 79,
          "name": "G5",
          "ticks": 9792,
          "time": 51,
          "velocity": 0.8661417322834646
        },
        {
          "duration": 0.3697916666666643,
          "durationTicks": 71,
          "midi": 79,
          "name": "G5",
          "ticks": 9864,
          "time": 51.375,
          "velocity": 0.8661417322834646
        },
        {
          "duration": 0.1197916666666643,
          "durationTicks": 23,
          "midi": 79,
          "name": "G5",
          "ticks": 9936,
          "time": 51.75,
          "velocity": 0.8661417322834646
        },
        {
          "duration": 0.1197916666666643,
          "durationTicks": 23,
          "midi": 79,
          "name": "G5",
          "ticks": 9960,
          "time": 51.875,
          "velocity": 0.8661417322834646
        },
        {
          "duration": 0.3697916666666643,
          "durationTicks": 71,
          "midi": 82,
          "name": "A#5",
          "ticks": 9984,
          "time": 52,
          "velocity": 0.8661417322834646
        },
        {
          "duration": 0.3697916666666643,
          "durationTicks": 71,
          "midi": 82,
          "name": "A#5",
          "ticks": 10056,
          "time": 52.375,
          "velocity": 0.8661417322834646
        },
        {
          "duration": 0.1197916666666643,
          "durationTicks": 23,
          "midi": 82,
          "name": "A#5",
          "ticks": 10128,
          "time": 52.75,
          "velocity": 0.8661417322834646
        },
        {
          "duration": 0.1197916666666643,
          "durationTicks": 23,
          "midi": 82,
          "name": "A#5",
          "ticks": 10152,
          "time": 52.875,
          "velocity": 0.8661417322834646
        },
        {
          "duration": 0.3697916666666643,
          "durationTicks": 71,
          "midi": 79,
          "name": "G5",
          "ticks": 10176,
          "time": 53,
          "velocity": 0.8661417322834646
        },
        {
          "duration": 0.3697916666666643,
          "durationTicks": 71,
          "midi": 79,
          "name": "G5",
          "ticks": 10248,
          "time": 53.375,
          "velocity": 0.8661417322834646
        },
        {
          "duration": 0.1197916666666643,
          "durationTicks": 23,
          "midi": 79,
          "name": "G5",
          "ticks": 10320,
          "time": 53.75,
          "velocity": 0.8661417322834646
        },
        {
          "duration": 0.1197916666666643,
          "durationTicks": 23,
          "midi": 79,
          "name": "G5",
          "ticks": 10344,
          "time": 53.875,
          "velocity": 0.8661417322834646
        },
        {
          "duration": 0.3697916666666643,
          "durationTicks": 71,
          "midi": 80,
          "name": "G#5",
          "ticks": 10368,
          "time": 54,
          "velocity": 0.8661417322834646
        },
        {
          "duration": 0.3697916666666643,
          "durationTicks": 71,
          "midi": 80,
          "name": "G#5",
          "ticks": 10440,
          "time": 54.375,
          "velocity": 0.8661417322834646
        },
        {
          "duration": 0.1197916666666643,
          "durationTicks": 23,
          "midi": 80,
          "name": "G#5",
          "ticks": 10512,
          "time": 54.75,
          "velocity": 0.8661417322834646
        },
        {
          "duration": 0.1197916666666643,
          "durationTicks": 23,
          "midi": 80,
          "name": "G#5",
          "ticks": 10536,
          "time": 54.875,
          "velocity": 0.8661417322834646
        },
        {
          "duration": 0.3697916666666643,
          "durationTicks": 71,
          "midi": 79,
          "name": "G5",
          "ticks": 10560,
          "time": 55,
          "velocity": 0.8661417322834646
        },
        {
          "duration": 0.3697916666666643,
          "durationTicks": 71,
          "midi": 79,
          "name": "G5",
          "ticks": 10632,
          "time": 55.375,
          "velocity": 0.8661417322834646
        },
        {
          "duration": 0.1197916666666643,
          "durationTicks": 23,
          "midi": 79,
          "name": "G5",
          "ticks": 10704,
          "time": 55.75,
          "velocity": 0.8661417322834646
        },
        {
          "duration": 0.1197916666666643,
          "durationTicks": 23,
          "midi": 79,
          "name": "G5",
          "ticks": 10728,
          "time": 55.875,
          "velocity": 0.8661417322834646
        },
        {
          "duration": 0.3697916666666643,
          "durationTicks": 71,
          "midi": 82,
          "name": "A#5",
          "ticks": 10752,
          "time": 56,
          "velocity": 0.8661417322834646
        },
        {
          "duration": 0.3697916666666643,
          "durationTicks": 71,
          "midi": 82,
          "name": "A#5",
          "ticks": 10824,
          "time": 56.375,
          "velocity": 0.8661417322834646
        },
        {
          "duration": 0.1197916666666643,
          "durationTicks": 23,
          "midi": 82,
          "name": "A#5",
          "ticks": 10896,
          "time": 56.75,
          "velocity": 0.8661417322834646
        },
        {
          "duration": 0.1197916666666643,
          "durationTicks": 23,
          "midi": 82,
          "name": "A#5",
          "ticks": 10920,
          "time": 56.875,
          "velocity": 0.8661417322834646
        },
        {
          "duration": 0.3697916666666714,
          "durationTicks": 71,
          "midi": 79,
          "name": "G5",
          "ticks": 14016,
          "time": 73,
          "velocity": 0.8661417322834646
        },
        {
          "duration": 0.3697916666666714,
          "durationTicks": 71,
          "midi": 79,
          "name": "G5",
          "ticks": 14088,
          "time": 73.375,
          "velocity": 0.8661417322834646
        },
        {
          "duration": 0.1197916666666714,
          "durationTicks": 23,
          "midi": 79,
          "name": "G5",
          "ticks": 14160,
          "time": 73.75,
          "velocity": 0.8661417322834646
        },
        {
          "duration": 0.1197916666666714,
          "durationTicks": 23,
          "midi": 79,
          "name": "G5",
          "ticks": 14184,
          "time": 73.875,
          "velocity": 0.8661417322834646
        },
        {
          "duration": 0.3697916666666714,
          "durationTicks": 71,
          "midi": 80,
          "name": "G#5",
          "ticks": 14208,
          "time": 74,
          "velocity": 0.8661417322834646
        },
        {
          "duration": 0.3697916666666714,
          "durationTicks": 71,
          "midi": 80,
          "name": "G#5",
          "ticks": 14280,
          "time": 74.375,
          "velocity": 0.8661417322834646
        },
        {
          "duration": 0.1197916666666714,
          "durationTicks": 23,
          "midi": 80,
          "name": "G#5",
          "ticks": 14352,
          "time": 74.75,
          "velocity": 0.8661417322834646
        },
        {
          "duration": 0.1197916666666714,
          "durationTicks": 23,
          "midi": 80,
          "name": "G#5",
          "ticks": 14376,
          "time": 74.875,
          "velocity": 0.8661417322834646
        },
        {
          "duration": 0.3697916666666714,
          "durationTicks": 71,
          "midi": 79,
          "name": "G5",
          "ticks": 14400,
          "time": 75,
          "velocity": 0.8661417322834646
        },
        {
          "duration": 0.3697916666666714,
          "durationTicks": 71,
          "midi": 79,
          "name": "G5",
          "ticks": 14472,
          "time": 75.375,
          "velocity": 0.8661417322834646
        },
        {
          "duration": 0.1197916666666714,
          "durationTicks": 23,
          "midi": 79,
          "name": "G5",
          "ticks": 14544,
          "time": 75.75,
          "velocity": 0.8661417322834646
        },
        {
          "duration": 0.1197916666666714,
          "durationTicks": 23,
          "midi": 79,
          "name": "G5",
          "ticks": 14568,
          "time": 75.875,
          "velocity": 0.8661417322834646
        },
        {
          "duration": 0.3697916666666714,
          "durationTicks": 71,
          "midi": 77,
          "name": "F5",
          "ticks": 14592,
          "time": 76,
          "velocity": 0.8661417322834646
        },
        {
          "duration": 0.3697916666666714,
          "durationTicks": 71,
          "midi": 77,
          "name": "F5",
          "ticks": 14664,
          "time": 76.375,
          "velocity": 0.8661417322834646
        },
        {
          "duration": 0.1197916666666714,
          "durationTicks": 23,
          "midi": 77,
          "name": "F5",
          "ticks": 14736,
          "time": 76.75,
          "velocity": 0.8661417322834646
        },
        {
          "duration": 0.1197916666666714,
          "durationTicks": 23,
          "midi": 77,
          "name": "F5",
          "ticks": 14760,
          "time": 76.875,
          "velocity": 0.8661417322834646
        },
        {
          "duration": 0.3697916666666714,
          "durationTicks": 71,
          "midi": 79,
          "name": "G5",
          "ticks": 14784,
          "time": 77,
          "velocity": 0.8661417322834646
        },
        {
          "duration": 0.3697916666666714,
          "durationTicks": 71,
          "midi": 79,
          "name": "G5",
          "ticks": 14856,
          "time": 77.375,
          "velocity": 0.8661417322834646
        },
        {
          "duration": 0.1197916666666714,
          "durationTicks": 23,
          "midi": 79,
          "name": "G5",
          "ticks": 14928,
          "time": 77.75,
          "velocity": 0.8661417322834646
        },
        {
          "duration": 0.1197916666666714,
          "durationTicks": 23,
          "midi": 79,
          "name": "G5",
          "ticks": 14952,
          "time": 77.875,
          "velocity": 0.8661417322834646
        },
        {
          "duration": 0.3697916666666714,
          "durationTicks": 71,
          "midi": 80,
          "name": "G#5",
          "ticks": 14976,
          "time": 78,
          "velocity": 0.8661417322834646
        },
        {
          "duration": 0.3697916666666714,
          "durationTicks": 71,
          "midi": 80,
          "name": "G#5",
          "ticks": 15048,
          "time": 78.375,
          "velocity": 0.8661417322834646
        },
        {
          "duration": 0.1197916666666714,
          "durationTicks": 23,
          "midi": 80,
          "name": "G#5",
          "ticks": 15120,
          "time": 78.75,
          "velocity": 0.8661417322834646
        },
        {
          "duration": 0.1197916666666714,
          "durationTicks": 23,
          "midi": 80,
          "name": "G#5",
          "ticks": 15144,
          "time": 78.875,
          "velocity": 0.8661417322834646
        },
        {
          "duration": 0.3697916666666714,
          "durationTicks": 71,
          "midi": 79,
          "name": "G5",
          "ticks": 15168,
          "time": 79,
          "velocity": 0.8661417322834646
        },
        {
          "duration": 0.3697916666666714,
          "durationTicks": 71,
          "midi": 79,
          "name": "G5",
          "ticks": 15240,
          "time": 79.375,
          "velocity": 0.8661417322834646
        },
        {
          "duration": 0.1197916666666714,
          "durationTicks": 23,
          "midi": 79,
          "name": "G5",
          "ticks": 15312,
          "time": 79.75,
          "velocity": 0.8661417322834646
        },
        {
          "duration": 0.1197916666666714,
          "durationTicks": 23,
          "midi": 79,
          "name": "G5",
          "ticks": 15336,
          "time": 79.875,
          "velocity": 0.8661417322834646
        },
        {
          "duration": 0.3697916666666714,
          "durationTicks": 71,
          "midi": 82,
          "name": "A#5",
          "ticks": 15360,
          "time": 80,
          "velocity": 0.8661417322834646
        },
        {
          "duration": 0.3697916666666714,
          "durationTicks": 71,
          "midi": 82,
          "name": "A#5",
          "ticks": 15432,
          "time": 80.375,
          "velocity": 0.8661417322834646
        },
        {
          "duration": 0.1197916666666714,
          "durationTicks": 23,
          "midi": 82,
          "name": "A#5",
          "ticks": 15504,
          "time": 80.75,
          "velocity": 0.8661417322834646
        },
        {
          "duration": 0.1197916666666714,
          "durationTicks": 23,
          "midi": 82,
          "name": "A#5",
          "ticks": 15528,
          "time": 80.875,
          "velocity": 0.8661417322834646
        },
        {
          "duration": 0.3697916666666714,
          "durationTicks": 71,
          "midi": 79,
          "name": "G5",
          "ticks": 15552,
          "time": 81,
          "velocity": 0.8661417322834646
        },
        {
          "duration": 0.3697916666666714,
          "durationTicks": 71,
          "midi": 79,
          "name": "G5",
          "ticks": 15624,
          "time": 81.375,
          "velocity": 0.8661417322834646
        },
        {
          "duration": 0.1197916666666714,
          "durationTicks": 23,
          "midi": 79,
          "name": "G5",
          "ticks": 15696,
          "time": 81.75,
          "velocity": 0.8661417322834646
        },
        {
          "duration": 0.1197916666666714,
          "durationTicks": 23,
          "midi": 79,
          "name": "G5",
          "ticks": 15720,
          "time": 81.875,
          "velocity": 0.8661417322834646
        },
        {
          "duration": 0.3697916666666714,
          "durationTicks": 71,
          "midi": 80,
          "name": "G#5",
          "ticks": 15744,
          "time": 82,
          "velocity": 0.8661417322834646
        },
        {
          "duration": 0.3697916666666714,
          "durationTicks": 71,
          "midi": 80,
          "name": "G#5",
          "ticks": 15816,
          "time": 82.375,
          "velocity": 0.8661417322834646
        },
        {
          "duration": 0.1197916666666714,
          "durationTicks": 23,
          "midi": 80,
          "name": "G#5",
          "ticks": 15888,
          "time": 82.75,
          "velocity": 0.8661417322834646
        },
        {
          "duration": 0.1197916666666714,
          "durationTicks": 23,
          "midi": 80,
          "name": "G#5",
          "ticks": 15912,
          "time": 82.875,
          "velocity": 0.8661417322834646
        },
        {
          "duration": 0.3697916666666714,
          "durationTicks": 71,
          "midi": 79,
          "name": "G5",
          "ticks": 15936,
          "time": 83,
          "velocity": 0.8661417322834646
        },
        {
          "duration": 0.3697916666666714,
          "durationTicks": 71,
          "midi": 79,
          "name": "G5",
          "ticks": 16008,
          "time": 83.375,
          "velocity": 0.8661417322834646
        },
        {
          "duration": 0.1197916666666714,
          "durationTicks": 23,
          "midi": 79,
          "name": "G5",
          "ticks": 16080,
          "time": 83.75,
          "velocity": 0.8661417322834646
        },
        {
          "duration": 0.1197916666666714,
          "durationTicks": 23,
          "midi": 79,
          "name": "G5",
          "ticks": 16104,
          "time": 83.875,
          "velocity": 0.8661417322834646
        },
        {
          "duration": 0.3697916666666714,
          "durationTicks": 71,
          "midi": 77,
          "name": "F5",
          "ticks": 16128,
          "time": 84,
          "velocity": 0.8661417322834646
        },
        {
          "duration": 0.3697916666666714,
          "durationTicks": 71,
          "midi": 77,
          "name": "F5",
          "ticks": 16200,
          "time": 84.375,
          "velocity": 0.8661417322834646
        },
        {
          "duration": 0.1197916666666714,
          "durationTicks": 23,
          "midi": 77,
          "name": "F5",
          "ticks": 16272,
          "time": 84.75,
          "velocity": 0.8661417322834646
        },
        {
          "duration": 0.1197916666666714,
          "durationTicks": 23,
          "midi": 77,
          "name": "F5",
          "ticks": 16296,
          "time": 84.875,
          "velocity": 0.8661417322834646
        },
        {
          "duration": 0.3697916666666714,
          "durationTicks": 71,
          "midi": 79,
          "name": "G5",
          "ticks": 16320,
          "time": 85,
          "velocity": 0.8661417322834646
        },
        {
          "duration": 0.3697916666666714,
          "durationTicks": 71,
          "midi": 79,
          "name": "G5",
          "ticks": 16392,
          "time": 85.375,
          "velocity": 0.8661417322834646
        },
        {
          "duration": 0.1197916666666714,
          "durationTicks": 23,
          "midi": 79,
          "name": "G5",
          "ticks": 16464,
          "time": 85.75,
          "velocity": 0.8661417322834646
        },
        {
          "duration": 0.1197916666666714,
          "durationTicks": 23,
          "midi": 79,
          "name": "G5",
          "ticks": 16488,
          "time": 85.875,
          "velocity": 0.8661417322834646
        },
        {
          "duration": 0.3697916666666714,
          "durationTicks": 71,
          "midi": 80,
          "name": "G#5",
          "ticks": 16512,
          "time": 86,
          "velocity": 0.8661417322834646
        },
        {
          "duration": 0.3697916666666714,
          "durationTicks": 71,
          "midi": 80,
          "name": "G#5",
          "ticks": 16584,
          "time": 86.375,
          "velocity": 0.8661417322834646
        },
        {
          "duration": 0.1197916666666714,
          "durationTicks": 23,
          "midi": 80,
          "name": "G#5",
          "ticks": 16656,
          "time": 86.75,
          "velocity": 0.8661417322834646
        },
        {
          "duration": 0.1197916666666714,
          "durationTicks": 23,
          "midi": 80,
          "name": "G#5",
          "ticks": 16680,
          "time": 86.875,
          "velocity": 0.8661417322834646
        },
        {
          "duration": 0.3697916666666714,
          "durationTicks": 71,
          "midi": 79,
          "name": "G5",
          "ticks": 16704,
          "time": 87,
          "velocity": 0.8661417322834646
        },
        {
          "duration": 0.3697916666666714,
          "durationTicks": 71,
          "midi": 79,
          "name": "G5",
          "ticks": 16776,
          "time": 87.375,
          "velocity": 0.8661417322834646
        },
        {
          "duration": 0.1197916666666714,
          "durationTicks": 23,
          "midi": 79,
          "name": "G5",
          "ticks": 16848,
          "time": 87.75,
          "velocity": 0.8661417322834646
        },
        {
          "duration": 0.1197916666666714,
          "durationTicks": 23,
          "midi": 79,
          "name": "G5",
          "ticks": 16872,
          "time": 87.875,
          "velocity": 0.8661417322834646
        },
        {
          "duration": 0.3697916666666714,
          "durationTicks": 71,
          "midi": 82,
          "name": "A#5",
          "ticks": 16896,
          "time": 88,
          "velocity": 0.8661417322834646
        },
        {
          "duration": 0.3697916666666714,
          "durationTicks": 71,
          "midi": 82,
          "name": "A#5",
          "ticks": 16968,
          "time": 88.375,
          "velocity": 0.8661417322834646
        },
        {
          "duration": 0.1197916666666714,
          "durationTicks": 23,
          "midi": 82,
          "name": "A#5",
          "ticks": 17040,
          "time": 88.75,
          "velocity": 0.8661417322834646
        },
        {
          "duration": 0.1197916666666714,
          "durationTicks": 23,
          "midi": 82,
          "name": "A#5",
          "ticks": 17064,
          "time": 88.875,
          "velocity": 0.8661417322834646
        },
        {
          "duration": 0.3697916666666714,
          "durationTicks": 71,
          "midi": 79,
          "name": "G5",
          "ticks": 17088,
          "time": 89,
          "velocity": 0.8661417322834646
        },
        {
          "duration": 0.3697916666666714,
          "durationTicks": 71,
          "midi": 79,
          "name": "G5",
          "ticks": 17160,
          "time": 89.375,
          "velocity": 0.8661417322834646
        },
        {
          "duration": 0.1197916666666714,
          "durationTicks": 23,
          "midi": 79,
          "name": "G5",
          "ticks": 17232,
          "time": 89.75,
          "velocity": 0.8661417322834646
        },
        {
          "duration": 0.1197916666666714,
          "durationTicks": 23,
          "midi": 79,
          "name": "G5",
          "ticks": 17256,
          "time": 89.875,
          "velocity": 0.8661417322834646
        },
        {
          "duration": 0.3697916666666714,
          "durationTicks": 71,
          "midi": 80,
          "name": "G#5",
          "ticks": 17280,
          "time": 90,
          "velocity": 0.8661417322834646
        },
        {
          "duration": 0.3697916666666714,
          "durationTicks": 71,
          "midi": 80,
          "name": "G#5",
          "ticks": 17352,
          "time": 90.375,
          "velocity": 0.8661417322834646
        },
        {
          "duration": 0.1197916666666714,
          "durationTicks": 23,
          "midi": 80,
          "name": "G#5",
          "ticks": 17424,
          "time": 90.75,
          "velocity": 0.8661417322834646
        },
        {
          "duration": 0.1197916666666714,
          "durationTicks": 23,
          "midi": 80,
          "name": "G#5",
          "ticks": 17448,
          "time": 90.875,
          "velocity": 0.8661417322834646
        },
        {
          "duration": 0.3697916666666714,
          "durationTicks": 71,
          "midi": 79,
          "name": "G5",
          "ticks": 17472,
          "time": 91,
          "velocity": 0.8661417322834646
        },
        {
          "duration": 0.3697916666666714,
          "durationTicks": 71,
          "midi": 79,
          "name": "G5",
          "ticks": 17544,
          "time": 91.375,
          "velocity": 0.8661417322834646
        },
        {
          "duration": 0.1197916666666714,
          "durationTicks": 23,
          "midi": 79,
          "name": "G5",
          "ticks": 17616,
          "time": 91.75,
          "velocity": 0.8661417322834646
        },
        {
          "duration": 0.1197916666666714,
          "durationTicks": 23,
          "midi": 79,
          "name": "G5",
          "ticks": 17640,
          "time": 91.875,
          "velocity": 0.8661417322834646
        },
        {
          "duration": 0.3697916666666714,
          "durationTicks": 71,
          "midi": 79,
          "name": "G5",
          "ticks": 22464,
          "time": 117,
          "velocity": 0.8661417322834646
        },
        {
          "duration": 0.3697916666666714,
          "durationTicks": 71,
          "midi": 79,
          "name": "G5",
          "ticks": 22536,
          "time": 117.375,
          "velocity": 0.8661417322834646
        },
        {
          "duration": 0.1197916666666714,
          "durationTicks": 23,
          "midi": 79,
          "name": "G5",
          "ticks": 22608,
          "time": 117.75,
          "velocity": 0.8661417322834646
        },
        {
          "duration": 0.1197916666666714,
          "durationTicks": 23,
          "midi": 79,
          "name": "G5",
          "ticks": 22632,
          "time": 117.875,
          "velocity": 0.8661417322834646
        },
        {
          "duration": 0.3697916666666714,
          "durationTicks": 71,
          "midi": 80,
          "name": "G#5",
          "ticks": 22656,
          "time": 118,
          "velocity": 0.8661417322834646
        },
        {
          "duration": 0.3697916666666714,
          "durationTicks": 71,
          "midi": 80,
          "name": "G#5",
          "ticks": 22728,
          "time": 118.375,
          "velocity": 0.8661417322834646
        },
        {
          "duration": 0.1197916666666714,
          "durationTicks": 23,
          "midi": 80,
          "name": "G#5",
          "ticks": 22800,
          "time": 118.75,
          "velocity": 0.8661417322834646
        },
        {
          "duration": 0.1197916666666714,
          "durationTicks": 23,
          "midi": 80,
          "name": "G#5",
          "ticks": 22824,
          "time": 118.875,
          "velocity": 0.8661417322834646
        },
        {
          "duration": 0.3697916666666714,
          "durationTicks": 71,
          "midi": 79,
          "name": "G5",
          "ticks": 22848,
          "time": 119,
          "velocity": 0.8661417322834646
        },
        {
          "duration": 0.3697916666666714,
          "durationTicks": 71,
          "midi": 79,
          "name": "G5",
          "ticks": 22920,
          "time": 119.375,
          "velocity": 0.8661417322834646
        },
        {
          "duration": 0.1197916666666714,
          "durationTicks": 23,
          "midi": 79,
          "name": "G5",
          "ticks": 22992,
          "time": 119.75,
          "velocity": 0.8661417322834646
        },
        {
          "duration": 0.1197916666666714,
          "durationTicks": 23,
          "midi": 79,
          "name": "G5",
          "ticks": 23016,
          "time": 119.875,
          "velocity": 0.8661417322834646
        },
        {
          "duration": 0.3697916666666714,
          "durationTicks": 71,
          "midi": 77,
          "name": "F5",
          "ticks": 23040,
          "time": 120,
          "velocity": 0.8661417322834646
        },
        {
          "duration": 0.3697916666666714,
          "durationTicks": 71,
          "midi": 77,
          "name": "F5",
          "ticks": 23112,
          "time": 120.375,
          "velocity": 0.8661417322834646
        },
        {
          "duration": 0.1197916666666714,
          "durationTicks": 23,
          "midi": 77,
          "name": "F5",
          "ticks": 23184,
          "time": 120.75,
          "velocity": 0.8661417322834646
        },
        {
          "duration": 0.1197916666666714,
          "durationTicks": 23,
          "midi": 77,
          "name": "F5",
          "ticks": 23208,
          "time": 120.875,
          "velocity": 0.8661417322834646
        },
        {
          "duration": 0.3697916666666714,
          "durationTicks": 71,
          "midi": 79,
          "name": "G5",
          "ticks": 23232,
          "time": 121,
          "velocity": 0.8661417322834646
        },
        {
          "duration": 0.3697916666666714,
          "durationTicks": 71,
          "midi": 79,
          "name": "G5",
          "ticks": 23304,
          "time": 121.375,
          "velocity": 0.8661417322834646
        },
        {
          "duration": 0.1197916666666714,
          "durationTicks": 23,
          "midi": 79,
          "name": "G5",
          "ticks": 23376,
          "time": 121.75,
          "velocity": 0.8661417322834646
        },
        {
          "duration": 0.1197916666666714,
          "durationTicks": 23,
          "midi": 79,
          "name": "G5",
          "ticks": 23400,
          "time": 121.875,
          "velocity": 0.8661417322834646
        },
        {
          "duration": 0.3697916666666714,
          "durationTicks": 71,
          "midi": 80,
          "name": "G#5",
          "ticks": 23424,
          "time": 122,
          "velocity": 0.8661417322834646
        },
        {
          "duration": 0.3697916666666714,
          "durationTicks": 71,
          "midi": 80,
          "name": "G#5",
          "ticks": 23496,
          "time": 122.375,
          "velocity": 0.8661417322834646
        },
        {
          "duration": 0.1197916666666714,
          "durationTicks": 23,
          "midi": 80,
          "name": "G#5",
          "ticks": 23568,
          "time": 122.75,
          "velocity": 0.8661417322834646
        },
        {
          "duration": 0.1197916666666714,
          "durationTicks": 23,
          "midi": 80,
          "name": "G#5",
          "ticks": 23592,
          "time": 122.875,
          "velocity": 0.8661417322834646
        },
        {
          "duration": 0.3697916666666714,
          "durationTicks": 71,
          "midi": 79,
          "name": "G5",
          "ticks": 23616,
          "time": 123,
          "velocity": 0.8661417322834646
        },
        {
          "duration": 0.3697916666666714,
          "durationTicks": 71,
          "midi": 79,
          "name": "G5",
          "ticks": 23688,
          "time": 123.375,
          "velocity": 0.8661417322834646
        },
        {
          "duration": 0.1197916666666714,
          "durationTicks": 23,
          "midi": 79,
          "name": "G5",
          "ticks": 23760,
          "time": 123.75,
          "velocity": 0.8661417322834646
        },
        {
          "duration": 0.1197916666666714,
          "durationTicks": 23,
          "midi": 79,
          "name": "G5",
          "ticks": 23784,
          "time": 123.875,
          "velocity": 0.8661417322834646
        },
        {
          "duration": 0.3697916666666714,
          "durationTicks": 71,
          "midi": 82,
          "name": "A#5",
          "ticks": 23808,
          "time": 124,
          "velocity": 0.8661417322834646
        },
        {
          "duration": 0.3697916666666714,
          "durationTicks": 71,
          "midi": 82,
          "name": "A#5",
          "ticks": 23880,
          "time": 124.375,
          "velocity": 0.8661417322834646
        },
        {
          "duration": 0.1197916666666714,
          "durationTicks": 23,
          "midi": 82,
          "name": "A#5",
          "ticks": 23952,
          "time": 124.75,
          "velocity": 0.8661417322834646
        },
        {
          "duration": 0.1197916666666714,
          "durationTicks": 23,
          "midi": 82,
          "name": "A#5",
          "ticks": 23976,
          "time": 124.875,
          "velocity": 0.8661417322834646
        },
        {
          "duration": 0.3697916666666714,
          "durationTicks": 71,
          "midi": 79,
          "name": "G5",
          "ticks": 24000,
          "time": 125,
          "velocity": 0.8661417322834646
        },
        {
          "duration": 0.3697916666666714,
          "durationTicks": 71,
          "midi": 79,
          "name": "G5",
          "ticks": 24072,
          "time": 125.375,
          "velocity": 0.8661417322834646
        },
        {
          "duration": 0.1197916666666714,
          "durationTicks": 23,
          "midi": 79,
          "name": "G5",
          "ticks": 24144,
          "time": 125.75,
          "velocity": 0.8661417322834646
        },
        {
          "duration": 0.1197916666666714,
          "durationTicks": 23,
          "midi": 79,
          "name": "G5",
          "ticks": 24168,
          "time": 125.875,
          "velocity": 0.8661417322834646
        },
        {
          "duration": 0.3697916666666714,
          "durationTicks": 71,
          "midi": 80,
          "name": "G#5",
          "ticks": 24192,
          "time": 126,
          "velocity": 0.8661417322834646
        },
        {
          "duration": 0.3697916666666714,
          "durationTicks": 71,
          "midi": 80,
          "name": "G#5",
          "ticks": 24264,
          "time": 126.375,
          "velocity": 0.8661417322834646
        },
        {
          "duration": 0.1197916666666714,
          "durationTicks": 23,
          "midi": 80,
          "name": "G#5",
          "ticks": 24336,
          "time": 126.75,
          "velocity": 0.8661417322834646
        },
        {
          "duration": 0.1197916666666714,
          "durationTicks": 23,
          "midi": 80,
          "name": "G#5",
          "ticks": 24360,
          "time": 126.875,
          "velocity": 0.8661417322834646
        },
        {
          "duration": 0.3697916666666714,
          "durationTicks": 71,
          "midi": 79,
          "name": "G5",
          "ticks": 24384,
          "time": 127,
          "velocity": 0.8661417322834646
        },
        {
          "duration": 0.3697916666666714,
          "durationTicks": 71,
          "midi": 79,
          "name": "G5",
          "ticks": 24456,
          "time": 127.375,
          "velocity": 0.8661417322834646
        },
        {
          "duration": 0.1197916666666714,
          "durationTicks": 23,
          "midi": 79,
          "name": "G5",
          "ticks": 24528,
          "time": 127.75,
          "velocity": 0.8661417322834646
        },
        {
          "duration": 0.1197916666666714,
          "durationTicks": 23,
          "midi": 79,
          "name": "G5",
          "ticks": 24552,
          "time": 127.875,
          "velocity": 0.8661417322834646
        },
        {
          "duration": 0.3697916666666572,
          "durationTicks": 71,
          "midi": 77,
          "name": "F5",
          "ticks": 24576,
          "time": 128,
          "velocity": 0.8661417322834646
        },
        {
          "duration": 0.3697916666666572,
          "durationTicks": 71,
          "midi": 77,
          "name": "F5",
          "ticks": 24648,
          "time": 128.375,
          "velocity": 0.8661417322834646
        },
        {
          "duration": 0.11979166666665719,
          "durationTicks": 23,
          "midi": 77,
          "name": "F5",
          "ticks": 24720,
          "time": 128.75,
          "velocity": 0.8661417322834646
        },
        {
          "duration": 0.11979166666665719,
          "durationTicks": 23,
          "midi": 77,
          "name": "F5",
          "ticks": 24744,
          "time": 128.875,
          "velocity": 0.8661417322834646
        },
        {
          "duration": 0.3697916666666572,
          "durationTicks": 71,
          "midi": 79,
          "name": "G5",
          "ticks": 24768,
          "time": 129,
          "velocity": 0.8661417322834646
        },
        {
          "duration": 0.3697916666666572,
          "durationTicks": 71,
          "midi": 79,
          "name": "G5",
          "ticks": 24840,
          "time": 129.375,
          "velocity": 0.8661417322834646
        },
        {
          "duration": 0.11979166666665719,
          "durationTicks": 23,
          "midi": 79,
          "name": "G5",
          "ticks": 24912,
          "time": 129.75,
          "velocity": 0.8661417322834646
        },
        {
          "duration": 0.11979166666665719,
          "durationTicks": 23,
          "midi": 79,
          "name": "G5",
          "ticks": 24936,
          "time": 129.875,
          "velocity": 0.8661417322834646
        },
        {
          "duration": 0.3697916666666572,
          "durationTicks": 71,
          "midi": 80,
          "name": "G#5",
          "ticks": 24960,
          "time": 130,
          "velocity": 0.8661417322834646
        },
        {
          "duration": 0.3697916666666572,
          "durationTicks": 71,
          "midi": 80,
          "name": "G#5",
          "ticks": 25032,
          "time": 130.375,
          "velocity": 0.8661417322834646
        },
        {
          "duration": 0.11979166666665719,
          "durationTicks": 23,
          "midi": 80,
          "name": "G#5",
          "ticks": 25104,
          "time": 130.75,
          "velocity": 0.8661417322834646
        },
        {
          "duration": 0.11979166666665719,
          "durationTicks": 23,
          "midi": 80,
          "name": "G#5",
          "ticks": 25128,
          "time": 130.875,
          "velocity": 0.8661417322834646
        },
        {
          "duration": 0.3697916666666572,
          "durationTicks": 71,
          "midi": 79,
          "name": "G5",
          "ticks": 25152,
          "time": 131,
          "velocity": 0.8661417322834646
        },
        {
          "duration": 0.3697916666666572,
          "durationTicks": 71,
          "midi": 79,
          "name": "G5",
          "ticks": 25224,
          "time": 131.375,
          "velocity": 0.8661417322834646
        },
        {
          "duration": 0.11979166666665719,
          "durationTicks": 23,
          "midi": 79,
          "name": "G5",
          "ticks": 25296,
          "time": 131.75,
          "velocity": 0.8661417322834646
        },
        {
          "duration": 0.11979166666665719,
          "durationTicks": 23,
          "midi": 79,
          "name": "G5",
          "ticks": 25320,
          "time": 131.875,
          "velocity": 0.8661417322834646
        },
        {
          "duration": 0.3697916666666572,
          "durationTicks": 71,
          "midi": 82,
          "name": "A#5",
          "ticks": 25344,
          "time": 132,
          "velocity": 0.8661417322834646
        },
        {
          "duration": 0.3697916666666572,
          "durationTicks": 71,
          "midi": 82,
          "name": "A#5",
          "ticks": 25416,
          "time": 132.375,
          "velocity": 0.8661417322834646
        },
        {
          "duration": 0.11979166666665719,
          "durationTicks": 23,
          "midi": 82,
          "name": "A#5",
          "ticks": 25488,
          "time": 132.75,
          "velocity": 0.8661417322834646
        },
        {
          "duration": 0.11979166666665719,
          "durationTicks": 23,
          "midi": 82,
          "name": "A#5",
          "ticks": 25512,
          "time": 132.875,
          "velocity": 0.8661417322834646
        },
        {
          "duration": 0.3697916666666572,
          "durationTicks": 71,
          "midi": 79,
          "name": "G5",
          "ticks": 25536,
          "time": 133,
          "velocity": 0.8661417322834646
        },
        {
          "duration": 0.3697916666666572,
          "durationTicks": 71,
          "midi": 79,
          "name": "G5",
          "ticks": 25608,
          "time": 133.375,
          "velocity": 0.8661417322834646
        },
        {
          "duration": 0.11979166666665719,
          "durationTicks": 23,
          "midi": 79,
          "name": "G5",
          "ticks": 25680,
          "time": 133.75,
          "velocity": 0.8661417322834646
        },
        {
          "duration": 0.11979166666665719,
          "durationTicks": 23,
          "midi": 79,
          "name": "G5",
          "ticks": 25704,
          "time": 133.875,
          "velocity": 0.8661417322834646
        },
        {
          "duration": 0.3697916666666572,
          "durationTicks": 71,
          "midi": 80,
          "name": "G#5",
          "ticks": 25728,
          "time": 134,
          "velocity": 0.8661417322834646
        },
        {
          "duration": 0.3697916666666572,
          "durationTicks": 71,
          "midi": 80,
          "name": "G#5",
          "ticks": 25800,
          "time": 134.375,
          "velocity": 0.8661417322834646
        },
        {
          "duration": 0.11979166666665719,
          "durationTicks": 23,
          "midi": 80,
          "name": "G#5",
          "ticks": 25872,
          "time": 134.75,
          "velocity": 0.8661417322834646
        },
        {
          "duration": 0.11979166666665719,
          "durationTicks": 23,
          "midi": 80,
          "name": "G#5",
          "ticks": 25896,
          "time": 134.875,
          "velocity": 0.8661417322834646
        },
        {
          "duration": 0.3697916666666572,
          "durationTicks": 71,
          "midi": 79,
          "name": "G5",
          "ticks": 25920,
          "time": 135,
          "velocity": 0.8661417322834646
        },
        {
          "duration": 0.3697916666666572,
          "durationTicks": 71,
          "midi": 79,
          "name": "G5",
          "ticks": 25992,
          "time": 135.375,
          "velocity": 0.8661417322834646
        },
        {
          "duration": 0.11979166666665719,
          "durationTicks": 23,
          "midi": 79,
          "name": "G5",
          "ticks": 26064,
          "time": 135.75,
          "velocity": 0.8661417322834646
        },
        {
          "duration": 0.11979166666665719,
          "durationTicks": 23,
          "midi": 79,
          "name": "G5",
          "ticks": 26088,
          "time": 135.875,
          "velocity": 0.8661417322834646
        },
        {
          "duration": 0.3697916666666572,
          "durationTicks": 71,
          "midi": 82,
          "name": "A#5",
          "ticks": 26112,
          "time": 136,
          "velocity": 0.8661417322834646
        },
        {
          "duration": 0.3697916666666572,
          "durationTicks": 71,
          "midi": 82,
          "name": "A#5",
          "ticks": 26184,
          "time": 136.375,
          "velocity": 0.8661417322834646
        },
        {
          "duration": 0.11979166666665719,
          "durationTicks": 23,
          "midi": 82,
          "name": "A#5",
          "ticks": 26256,
          "time": 136.75,
          "velocity": 0.8661417322834646
        },
        {
          "duration": 0.11979166666665719,
          "durationTicks": 23,
          "midi": 82,
          "name": "A#5",
          "ticks": 26280,
          "time": 136.875,
          "velocity": 0.8661417322834646
        },
        {
          "duration": 0.3697916666666572,
          "durationTicks": 71,
          "midi": 79,
          "name": "G5",
          "ticks": 26304,
          "time": 137,
          "velocity": 0.8661417322834646
        },
        {
          "duration": 0.3697916666666572,
          "durationTicks": 71,
          "midi": 79,
          "name": "G5",
          "ticks": 26376,
          "time": 137.375,
          "velocity": 0.8661417322834646
        },
        {
          "duration": 0.11979166666665719,
          "durationTicks": 23,
          "midi": 79,
          "name": "G5",
          "ticks": 26448,
          "time": 137.75,
          "velocity": 0.8661417322834646
        },
        {
          "duration": 0.11979166666665719,
          "durationTicks": 23,
          "midi": 79,
          "name": "G5",
          "ticks": 26472,
          "time": 137.875,
          "velocity": 0.8661417322834646
        },
        {
          "duration": 0.3697916666666572,
          "durationTicks": 71,
          "midi": 80,
          "name": "G#5",
          "ticks": 26496,
          "time": 138,
          "velocity": 0.8661417322834646
        },
        {
          "duration": 0.3697916666666572,
          "durationTicks": 71,
          "midi": 80,
          "name": "G#5",
          "ticks": 26568,
          "time": 138.375,
          "velocity": 0.8661417322834646
        },
        {
          "duration": 0.11979166666665719,
          "durationTicks": 23,
          "midi": 80,
          "name": "G#5",
          "ticks": 26640,
          "time": 138.75,
          "velocity": 0.8661417322834646
        },
        {
          "duration": 0.11979166666665719,
          "durationTicks": 23,
          "midi": 80,
          "name": "G#5",
          "ticks": 26664,
          "time": 138.875,
          "velocity": 0.8661417322834646
        },
        {
          "duration": 0.3697916666666572,
          "durationTicks": 71,
          "midi": 79,
          "name": "G5",
          "ticks": 26688,
          "time": 139,
          "velocity": 0.8661417322834646
        },
        {
          "duration": 0.3697916666666572,
          "durationTicks": 71,
          "midi": 79,
          "name": "G5",
          "ticks": 26760,
          "time": 139.375,
          "velocity": 0.8661417322834646
        },
        {
          "duration": 0.11979166666665719,
          "durationTicks": 23,
          "midi": 79,
          "name": "G5",
          "ticks": 26832,
          "time": 139.75,
          "velocity": 0.8661417322834646
        },
        {
          "duration": 0.11979166666665719,
          "durationTicks": 23,
          "midi": 79,
          "name": "G5",
          "ticks": 26856,
          "time": 139.875,
          "velocity": 0.8661417322834646
        },
        {
          "duration": 0.3697916666666572,
          "durationTicks": 71,
          "midi": 77,
          "name": "F5",
          "ticks": 26880,
          "time": 140,
          "velocity": 0.8661417322834646
        },
        {
          "duration": 0.3697916666666572,
          "durationTicks": 71,
          "midi": 77,
          "name": "F5",
          "ticks": 26952,
          "time": 140.375,
          "velocity": 0.8661417322834646
        },
        {
          "duration": 0.11979166666665719,
          "durationTicks": 23,
          "midi": 77,
          "name": "F5",
          "ticks": 27024,
          "time": 140.75,
          "velocity": 0.8661417322834646
        },
        {
          "duration": 0.11979166666665719,
          "durationTicks": 23,
          "midi": 77,
          "name": "F5",
          "ticks": 27048,
          "time": 140.875,
          "velocity": 0.8661417322834646
        },
        {
          "duration": 0.3697916666666572,
          "durationTicks": 71,
          "midi": 79,
          "name": "G5",
          "ticks": 27072,
          "time": 141,
          "velocity": 0.8661417322834646
        },
        {
          "duration": 0.3697916666666572,
          "durationTicks": 71,
          "midi": 79,
          "name": "G5",
          "ticks": 27144,
          "time": 141.375,
          "velocity": 0.8661417322834646
        },
        {
          "duration": 0.11979166666665719,
          "durationTicks": 23,
          "midi": 79,
          "name": "G5",
          "ticks": 27216,
          "time": 141.75,
          "velocity": 0.8661417322834646
        },
        {
          "duration": 0.11979166666665719,
          "durationTicks": 23,
          "midi": 79,
          "name": "G5",
          "ticks": 27240,
          "time": 141.875,
          "velocity": 0.8661417322834646
        },
        {
          "duration": 0.3697916666666572,
          "durationTicks": 71,
          "midi": 80,
          "name": "G#5",
          "ticks": 27264,
          "time": 142,
          "velocity": 0.8661417322834646
        },
        {
          "duration": 0.3697916666666572,
          "durationTicks": 71,
          "midi": 80,
          "name": "G#5",
          "ticks": 27336,
          "time": 142.375,
          "velocity": 0.8661417322834646
        },
        {
          "duration": 0.11979166666665719,
          "durationTicks": 23,
          "midi": 80,
          "name": "G#5",
          "ticks": 27408,
          "time": 142.75,
          "velocity": 0.8661417322834646
        },
        {
          "duration": 0.11979166666665719,
          "durationTicks": 23,
          "midi": 80,
          "name": "G#5",
          "ticks": 27432,
          "time": 142.875,
          "velocity": 0.8661417322834646
        },
        {
          "duration": 0.3697916666666572,
          "durationTicks": 71,
          "midi": 79,
          "name": "G5",
          "ticks": 27456,
          "time": 143,
          "velocity": 0.8661417322834646
        },
        {
          "duration": 0.3697916666666572,
          "durationTicks": 71,
          "midi": 79,
          "name": "G5",
          "ticks": 27528,
          "time": 143.375,
          "velocity": 0.8661417322834646
        },
        {
          "duration": 0.11979166666665719,
          "durationTicks": 23,
          "midi": 79,
          "name": "G5",
          "ticks": 27600,
          "time": 143.75,
          "velocity": 0.8661417322834646
        },
        {
          "duration": 0.11979166666665719,
          "durationTicks": 23,
          "midi": 79,
          "name": "G5",
          "ticks": 27624,
          "time": 143.875,
          "velocity": 0.8661417322834646
        },
        {
          "duration": 0.3697916666666572,
          "durationTicks": 71,
          "midi": 82,
          "name": "A#5",
          "ticks": 27648,
          "time": 144,
          "velocity": 0.8661417322834646
        },
        {
          "duration": 0.3697916666666572,
          "durationTicks": 71,
          "midi": 82,
          "name": "A#5",
          "ticks": 27720,
          "time": 144.375,
          "velocity": 0.8661417322834646
        },
        {
          "duration": 0.11979166666665719,
          "durationTicks": 23,
          "midi": 82,
          "name": "A#5",
          "ticks": 27792,
          "time": 144.75,
          "velocity": 0.8661417322834646
        },
        {
          "duration": 0.11979166666665719,
          "durationTicks": 23,
          "midi": 82,
          "name": "A#5",
          "ticks": 27816,
          "time": 144.875,
          "velocity": 0.8661417322834646
        },
        {
          "duration": 0.3697916666666572,
          "durationTicks": 71,
          "midi": 79,
          "name": "G5",
          "ticks": 27840,
          "time": 145,
          "velocity": 0.8661417322834646
        },
        {
          "duration": 0.3697916666666572,
          "durationTicks": 71,
          "midi": 79,
          "name": "G5",
          "ticks": 27912,
          "time": 145.375,
          "velocity": 0.8661417322834646
        },
        {
          "duration": 0.11979166666665719,
          "durationTicks": 23,
          "midi": 79,
          "name": "G5",
          "ticks": 27984,
          "time": 145.75,
          "velocity": 0.8661417322834646
        },
        {
          "duration": 0.11979166666665719,
          "durationTicks": 23,
          "midi": 79,
          "name": "G5",
          "ticks": 28008,
          "time": 145.875,
          "velocity": 0.8661417322834646
        },
        {
          "duration": 0.3697916666666572,
          "durationTicks": 71,
          "midi": 80,
          "name": "G#5",
          "ticks": 28032,
          "time": 146,
          "velocity": 0.8661417322834646
        },
        {
          "duration": 0.3697916666666572,
          "durationTicks": 71,
          "midi": 80,
          "name": "G#5",
          "ticks": 28104,
          "time": 146.375,
          "velocity": 0.8661417322834646
        },
        {
          "duration": 0.11979166666665719,
          "durationTicks": 23,
          "midi": 80,
          "name": "G#5",
          "ticks": 28176,
          "time": 146.75,
          "velocity": 0.8661417322834646
        },
        {
          "duration": 0.11979166666665719,
          "durationTicks": 23,
          "midi": 80,
          "name": "G#5",
          "ticks": 28200,
          "time": 146.875,
          "velocity": 0.8661417322834646
        },
        {
          "duration": 0.3697916666666572,
          "durationTicks": 71,
          "midi": 79,
          "name": "G5",
          "ticks": 28224,
          "time": 147,
          "velocity": 0.8661417322834646
        },
        {
          "duration": 0.3697916666666572,
          "durationTicks": 71,
          "midi": 79,
          "name": "G5",
          "ticks": 28296,
          "time": 147.375,
          "velocity": 0.8661417322834646
        },
        {
          "duration": 0.11979166666665719,
          "durationTicks": 23,
          "midi": 79,
          "name": "G5",
          "ticks": 28368,
          "time": 147.75,
          "velocity": 0.8661417322834646
        },
        {
          "duration": 0.11979166666665719,
          "durationTicks": 23,
          "midi": 79,
          "name": "G5",
          "ticks": 28392,
          "time": 147.875,
          "velocity": 0.8661417322834646
        },
        {
          "duration": 0.3697916666666572,
          "durationTicks": 71,
          "midi": 77,
          "name": "F5",
          "ticks": 28416,
          "time": 148,
          "velocity": 0.8661417322834646
        },
        {
          "duration": 0.3697916666666572,
          "durationTicks": 71,
          "midi": 77,
          "name": "F5",
          "ticks": 28488,
          "time": 148.375,
          "velocity": 0.8661417322834646
        },
        {
          "duration": 0.11979166666665719,
          "durationTicks": 23,
          "midi": 77,
          "name": "F5",
          "ticks": 28560,
          "time": 148.75,
          "velocity": 0.8661417322834646
        },
        {
          "duration": 0.11979166666665719,
          "durationTicks": 23,
          "midi": 77,
          "name": "F5",
          "ticks": 28584,
          "time": 148.875,
          "velocity": 0.8661417322834646
        },
        {
          "duration": 0.3697916666666572,
          "durationTicks": 71,
          "midi": 79,
          "name": "G5",
          "ticks": 28608,
          "time": 149,
          "velocity": 0.8661417322834646
        },
        {
          "duration": 0.3697916666666572,
          "durationTicks": 71,
          "midi": 79,
          "name": "G5",
          "ticks": 28680,
          "time": 149.375,
          "velocity": 0.8661417322834646
        },
        {
          "duration": 0.11979166666665719,
          "durationTicks": 23,
          "midi": 79,
          "name": "G5",
          "ticks": 28752,
          "time": 149.75,
          "velocity": 0.8661417322834646
        },
        {
          "duration": 0.11979166666665719,
          "durationTicks": 23,
          "midi": 79,
          "name": "G5",
          "ticks": 28776,
          "time": 149.875,
          "velocity": 0.8661417322834646
        },
        {
          "duration": 0.3697916666666572,
          "durationTicks": 71,
          "midi": 80,
          "name": "G#5",
          "ticks": 28800,
          "time": 150,
          "velocity": 0.8661417322834646
        },
        {
          "duration": 0.3697916666666572,
          "durationTicks": 71,
          "midi": 80,
          "name": "G#5",
          "ticks": 28872,
          "time": 150.375,
          "velocity": 0.8661417322834646
        },
        {
          "duration": 0.11979166666665719,
          "durationTicks": 23,
          "midi": 80,
          "name": "G#5",
          "ticks": 28944,
          "time": 150.75,
          "velocity": 0.8661417322834646
        },
        {
          "duration": 0.11979166666665719,
          "durationTicks": 23,
          "midi": 80,
          "name": "G#5",
          "ticks": 28968,
          "time": 150.875,
          "velocity": 0.8661417322834646
        },
        {
          "duration": 0.3697916666666572,
          "durationTicks": 71,
          "midi": 79,
          "name": "G5",
          "ticks": 28992,
          "time": 151,
          "velocity": 0.8661417322834646
        },
        {
          "duration": 0.3697916666666572,
          "durationTicks": 71,
          "midi": 79,
          "name": "G5",
          "ticks": 29064,
          "time": 151.375,
          "velocity": 0.8661417322834646
        },
        {
          "duration": 0.11979166666665719,
          "durationTicks": 23,
          "midi": 79,
          "name": "G5",
          "ticks": 29136,
          "time": 151.75,
          "velocity": 0.8661417322834646
        },
        {
          "duration": 0.11979166666665719,
          "durationTicks": 23,
          "midi": 79,
          "name": "G5",
          "ticks": 29160,
          "time": 151.875,
          "velocity": 0.8661417322834646
        },
        {
          "duration": 0.3697916666666572,
          "durationTicks": 71,
          "midi": 82,
          "name": "A#5",
          "ticks": 29184,
          "time": 152,
          "velocity": 0.8661417322834646
        },
        {
          "duration": 0.3697916666666572,
          "durationTicks": 71,
          "midi": 82,
          "name": "A#5",
          "ticks": 29256,
          "time": 152.375,
          "velocity": 0.8661417322834646
        },
        {
          "duration": 0.11979166666665719,
          "durationTicks": 23,
          "midi": 82,
          "name": "A#5",
          "ticks": 29328,
          "time": 152.75,
          "velocity": 0.8661417322834646
        },
        {
          "duration": 0.11979166666665719,
          "durationTicks": 23,
          "midi": 82,
          "name": "A#5",
          "ticks": 29352,
          "time": 152.875,
          "velocity": 0.8661417322834646
        },
        {
          "duration": 0.3697916666666572,
          "durationTicks": 71,
          "midi": 79,
          "name": "G5",
          "ticks": 29376,
          "time": 153,
          "velocity": 0.8661417322834646
        },
        {
          "duration": 0.3697916666666572,
          "durationTicks": 71,
          "midi": 79,
          "name": "G5",
          "ticks": 29448,
          "time": 153.375,
          "velocity": 0.8661417322834646
        },
        {
          "duration": 0.11979166666665719,
          "durationTicks": 23,
          "midi": 79,
          "name": "G5",
          "ticks": 29520,
          "time": 153.75,
          "velocity": 0.8661417322834646
        },
        {
          "duration": 0.11979166666665719,
          "durationTicks": 23,
          "midi": 79,
          "name": "G5",
          "ticks": 29544,
          "time": 153.875,
          "velocity": 0.8661417322834646
        },
        {
          "duration": 0.3697916666666572,
          "durationTicks": 71,
          "midi": 80,
          "name": "G#5",
          "ticks": 29568,
          "time": 154,
          "velocity": 0.8661417322834646
        },
        {
          "duration": 0.3697916666666572,
          "durationTicks": 71,
          "midi": 80,
          "name": "G#5",
          "ticks": 29640,
          "time": 154.375,
          "velocity": 0.8661417322834646
        },
        {
          "duration": 0.11979166666665719,
          "durationTicks": 23,
          "midi": 80,
          "name": "G#5",
          "ticks": 29712,
          "time": 154.75,
          "velocity": 0.8661417322834646
        },
        {
          "duration": 0.11979166666665719,
          "durationTicks": 23,
          "midi": 80,
          "name": "G#5",
          "ticks": 29736,
          "time": 154.875,
          "velocity": 0.8661417322834646
        },
        {
          "duration": 0.3697916666666572,
          "durationTicks": 71,
          "midi": 79,
          "name": "G5",
          "ticks": 29760,
          "time": 155,
          "velocity": 0.8661417322834646
        },
        {
          "duration": 0.3697916666666572,
          "durationTicks": 71,
          "midi": 79,
          "name": "G5",
          "ticks": 29832,
          "time": 155.375,
          "velocity": 0.8661417322834646
        },
        {
          "duration": 0.11979166666665719,
          "durationTicks": 23,
          "midi": 79,
          "name": "G5",
          "ticks": 29904,
          "time": 155.75,
          "velocity": 0.8661417322834646
        },
        {
          "duration": 0.11979166666665719,
          "durationTicks": 23,
          "midi": 79,
          "name": "G5",
          "ticks": 29928,
          "time": 155.875,
          "velocity": 0.8661417322834646
        },
        {
          "duration": 0.3697916666666572,
          "durationTicks": 71,
          "midi": 82,
          "name": "A#5",
          "ticks": 29952,
          "time": 156,
          "velocity": 0.8661417322834646
        },
        {
          "duration": 0.3697916666666572,
          "durationTicks": 71,
          "midi": 82,
          "name": "A#5",
          "ticks": 30024,
          "time": 156.375,
          "velocity": 0.8661417322834646
        },
        {
          "duration": 0.11979166666665719,
          "durationTicks": 23,
          "midi": 82,
          "name": "A#5",
          "ticks": 30096,
          "time": 156.75,
          "velocity": 0.8661417322834646
        },
        {
          "duration": 0.11979166666665719,
          "durationTicks": 23,
          "midi": 82,
          "name": "A#5",
          "ticks": 30120,
          "time": 156.875,
          "velocity": 0.8661417322834646
        },
        {
          "duration": 0.3697916666666572,
          "durationTicks": 71,
          "midi": 79,
          "name": "G5",
          "ticks": 30144,
          "time": 157,
          "velocity": 0.8661417322834646
        },
        {
          "duration": 0.3697916666666572,
          "durationTicks": 71,
          "midi": 79,
          "name": "G5",
          "ticks": 30216,
          "time": 157.375,
          "velocity": 0.8661417322834646
        },
        {
          "duration": 0.11979166666665719,
          "durationTicks": 23,
          "midi": 79,
          "name": "G5",
          "ticks": 30288,
          "time": 157.75,
          "velocity": 0.8661417322834646
        },
        {
          "duration": 0.11979166666665719,
          "durationTicks": 23,
          "midi": 79,
          "name": "G5",
          "ticks": 30312,
          "time": 157.875,
          "velocity": 0.8661417322834646
        },
        {
          "duration": 0.3697916666666572,
          "durationTicks": 71,
          "midi": 80,
          "name": "G#5",
          "ticks": 30336,
          "time": 158,
          "velocity": 0.8661417322834646
        },
        {
          "duration": 0.3697916666666572,
          "durationTicks": 71,
          "midi": 80,
          "name": "G#5",
          "ticks": 30408,
          "time": 158.375,
          "velocity": 0.8661417322834646
        },
        {
          "duration": 0.11979166666665719,
          "durationTicks": 23,
          "midi": 80,
          "name": "G#5",
          "ticks": 30480,
          "time": 158.75,
          "velocity": 0.8661417322834646
        },
        {
          "duration": 0.11979166666665719,
          "durationTicks": 23,
          "midi": 80,
          "name": "G#5",
          "ticks": 30504,
          "time": 158.875,
          "velocity": 0.8661417322834646
        },
        {
          "duration": 0.3697916666666572,
          "durationTicks": 71,
          "midi": 79,
          "name": "G5",
          "ticks": 30528,
          "time": 159,
          "velocity": 0.8661417322834646
        },
        {
          "duration": 0.3697916666666572,
          "durationTicks": 71,
          "midi": 79,
          "name": "G5",
          "ticks": 30600,
          "time": 159.375,
          "velocity": 0.8661417322834646
        },
        {
          "duration": 0.11979166666665719,
          "durationTicks": 23,
          "midi": 79,
          "name": "G5",
          "ticks": 30672,
          "time": 159.75,
          "velocity": 0.8661417322834646
        },
        {
          "duration": 0.11979166666665719,
          "durationTicks": 23,
          "midi": 79,
          "name": "G5",
          "ticks": 30696,
          "time": 159.875,
          "velocity": 0.8661417322834646
        },
        {
          "duration": 0.3697916666666572,
          "durationTicks": 71,
          "midi": 77,
          "name": "F5",
          "ticks": 30720,
          "time": 160,
          "velocity": 0.8661417322834646
        },
        {
          "duration": 0.3697916666666572,
          "durationTicks": 71,
          "midi": 77,
          "name": "F5",
          "ticks": 30792,
          "time": 160.375,
          "velocity": 0.8661417322834646
        },
        {
          "duration": 0.11979166666665719,
          "durationTicks": 23,
          "midi": 77,
          "name": "F5",
          "ticks": 30864,
          "time": 160.75,
          "velocity": 0.8661417322834646
        },
        {
          "duration": 0.11979166666665719,
          "durationTicks": 23,
          "midi": 77,
          "name": "F5",
          "ticks": 30888,
          "time": 160.875,
          "velocity": 0.8661417322834646
        },
        {
          "duration": 0.3697916666666572,
          "durationTicks": 71,
          "midi": 79,
          "name": "G5",
          "ticks": 30912,
          "time": 161,
          "velocity": 0.8661417322834646
        },
        {
          "duration": 0.3697916666666572,
          "durationTicks": 71,
          "midi": 79,
          "name": "G5",
          "ticks": 30984,
          "time": 161.375,
          "velocity": 0.8661417322834646
        },
        {
          "duration": 0.11979166666665719,
          "durationTicks": 23,
          "midi": 79,
          "name": "G5",
          "ticks": 31056,
          "time": 161.75,
          "velocity": 0.8661417322834646
        },
        {
          "duration": 0.11979166666665719,
          "durationTicks": 23,
          "midi": 79,
          "name": "G5",
          "ticks": 31080,
          "time": 161.875,
          "velocity": 0.8661417322834646
        },
        {
          "duration": 0.3697916666666572,
          "durationTicks": 71,
          "midi": 80,
          "name": "G#5",
          "ticks": 31104,
          "time": 162,
          "velocity": 0.8661417322834646
        },
        {
          "duration": 0.3697916666666572,
          "durationTicks": 71,
          "midi": 80,
          "name": "G#5",
          "ticks": 31176,
          "time": 162.375,
          "velocity": 0.8661417322834646
        },
        {
          "duration": 0.11979166666665719,
          "durationTicks": 23,
          "midi": 80,
          "name": "G#5",
          "ticks": 31248,
          "time": 162.75,
          "velocity": 0.8661417322834646
        },
        {
          "duration": 0.11979166666665719,
          "durationTicks": 23,
          "midi": 80,
          "name": "G#5",
          "ticks": 31272,
          "time": 162.875,
          "velocity": 0.8661417322834646
        },
        {
          "duration": 0.3697916666666572,
          "durationTicks": 71,
          "midi": 79,
          "name": "G5",
          "ticks": 31296,
          "time": 163,
          "velocity": 0.8661417322834646
        },
        {
          "duration": 0.3697916666666572,
          "durationTicks": 71,
          "midi": 79,
          "name": "G5",
          "ticks": 31368,
          "time": 163.375,
          "velocity": 0.8661417322834646
        },
        {
          "duration": 0.11979166666665719,
          "durationTicks": 23,
          "midi": 79,
          "name": "G5",
          "ticks": 31440,
          "time": 163.75,
          "velocity": 0.8661417322834646
        },
        {
          "duration": 0.11979166666665719,
          "durationTicks": 23,
          "midi": 79,
          "name": "G5",
          "ticks": 31464,
          "time": 163.875,
          "velocity": 0.8661417322834646
        },
        {
          "duration": 0.3697916666666572,
          "durationTicks": 71,
          "midi": 82,
          "name": "A#5",
          "ticks": 31488,
          "time": 164,
          "velocity": 0.8661417322834646
        },
        {
          "duration": 0.3697916666666572,
          "durationTicks": 71,
          "midi": 82,
          "name": "A#5",
          "ticks": 31560,
          "time": 164.375,
          "velocity": 0.8661417322834646
        },
        {
          "duration": 0.11979166666665719,
          "durationTicks": 23,
          "midi": 82,
          "name": "A#5",
          "ticks": 31632,
          "time": 164.75,
          "velocity": 0.8661417322834646
        },
        {
          "duration": 0.11979166666665719,
          "durationTicks": 23,
          "midi": 82,
          "name": "A#5",
          "ticks": 31656,
          "time": 164.875,
          "velocity": 0.8661417322834646
        },
        {
          "duration": 0.3697916666666572,
          "durationTicks": 71,
          "midi": 79,
          "name": "G5",
          "ticks": 31680,
          "time": 165,
          "velocity": 0.8661417322834646
        },
        {
          "duration": 0.3697916666666572,
          "durationTicks": 71,
          "midi": 79,
          "name": "G5",
          "ticks": 31752,
          "time": 165.375,
          "velocity": 0.8661417322834646
        },
        {
          "duration": 0.11979166666665719,
          "durationTicks": 23,
          "midi": 79,
          "name": "G5",
          "ticks": 31824,
          "time": 165.75,
          "velocity": 0.8661417322834646
        },
        {
          "duration": 0.11979166666665719,
          "durationTicks": 23,
          "midi": 79,
          "name": "G5",
          "ticks": 31848,
          "time": 165.875,
          "velocity": 0.8661417322834646
        },
        {
          "duration": 0.3697916666666572,
          "durationTicks": 71,
          "midi": 80,
          "name": "G#5",
          "ticks": 31872,
          "time": 166,
          "velocity": 0.8661417322834646
        },
        {
          "duration": 0.3697916666666572,
          "durationTicks": 71,
          "midi": 80,
          "name": "G#5",
          "ticks": 31944,
          "time": 166.375,
          "velocity": 0.8661417322834646
        },
        {
          "duration": 0.11979166666665719,
          "durationTicks": 23,
          "midi": 80,
          "name": "G#5",
          "ticks": 32016,
          "time": 166.75,
          "velocity": 0.8661417322834646
        },
        {
          "duration": 0.11979166666665719,
          "durationTicks": 23,
          "midi": 80,
          "name": "G#5",
          "ticks": 32040,
          "time": 166.875,
          "velocity": 0.8661417322834646
        },
        {
          "duration": 0.3697916666666572,
          "durationTicks": 71,
          "midi": 79,
          "name": "G5",
          "ticks": 32064,
          "time": 167,
          "velocity": 0.8661417322834646
        },
        {
          "duration": 0.3697916666666572,
          "durationTicks": 71,
          "midi": 79,
          "name": "G5",
          "ticks": 32136,
          "time": 167.375,
          "velocity": 0.8661417322834646
        },
        {
          "duration": 0.11979166666665719,
          "durationTicks": 23,
          "midi": 79,
          "name": "G5",
          "ticks": 32208,
          "time": 167.75,
          "velocity": 0.8661417322834646
        },
        {
          "duration": 0.11979166666665719,
          "durationTicks": 23,
          "midi": 79,
          "name": "G5",
          "ticks": 32232,
          "time": 167.875,
          "velocity": 0.8661417322834646
        },
        {
          "duration": 0.3697916666666572,
          "durationTicks": 71,
          "midi": 77,
          "name": "F5",
          "ticks": 32256,
          "time": 168,
          "velocity": 0.8661417322834646
        },
        {
          "duration": 0.3697916666666572,
          "durationTicks": 71,
          "midi": 77,
          "name": "F5",
          "ticks": 32328,
          "time": 168.375,
          "velocity": 0.8661417322834646
        },
        {
          "duration": 0.11979166666665719,
          "durationTicks": 23,
          "midi": 77,
          "name": "F5",
          "ticks": 32400,
          "time": 168.75,
          "velocity": 0.8661417322834646
        },
        {
          "duration": 0.11979166666665719,
          "durationTicks": 23,
          "midi": 77,
          "name": "F5",
          "ticks": 32424,
          "time": 168.875,
          "velocity": 0.8661417322834646
        },
        {
          "duration": 0.3697916666666572,
          "durationTicks": 71,
          "midi": 79,
          "name": "G5",
          "ticks": 32448,
          "time": 169,
          "velocity": 0.8661417322834646
        },
        {
          "duration": 0.3697916666666572,
          "durationTicks": 71,
          "midi": 79,
          "name": "G5",
          "ticks": 32520,
          "time": 169.375,
          "velocity": 0.8661417322834646
        },
        {
          "duration": 0.11979166666665719,
          "durationTicks": 23,
          "midi": 79,
          "name": "G5",
          "ticks": 32592,
          "time": 169.75,
          "velocity": 0.8661417322834646
        },
        {
          "duration": 0.11979166666665719,
          "durationTicks": 23,
          "midi": 79,
          "name": "G5",
          "ticks": 32616,
          "time": 169.875,
          "velocity": 0.8661417322834646
        },
        {
          "duration": 0.3697916666666572,
          "durationTicks": 71,
          "midi": 80,
          "name": "G#5",
          "ticks": 32640,
          "time": 170,
          "velocity": 0.8661417322834646
        },
        {
          "duration": 0.3697916666666572,
          "durationTicks": 71,
          "midi": 80,
          "name": "G#5",
          "ticks": 32712,
          "time": 170.375,
          "velocity": 0.8661417322834646
        },
        {
          "duration": 0.11979166666665719,
          "durationTicks": 23,
          "midi": 80,
          "name": "G#5",
          "ticks": 32784,
          "time": 170.75,
          "velocity": 0.8661417322834646
        },
        {
          "duration": 0.11979166666665719,
          "durationTicks": 23,
          "midi": 80,
          "name": "G#5",
          "ticks": 32808,
          "time": 170.875,
          "velocity": 0.8661417322834646
        },
        {
          "duration": 0.3697916666666572,
          "durationTicks": 71,
          "midi": 79,
          "name": "G5",
          "ticks": 32832,
          "time": 171,
          "velocity": 0.8661417322834646
        },
        {
          "duration": 0.3697916666666572,
          "durationTicks": 71,
          "midi": 79,
          "name": "G5",
          "ticks": 32904,
          "time": 171.375,
          "velocity": 0.8661417322834646
        },
        {
          "duration": 0.11979166666665719,
          "durationTicks": 23,
          "midi": 79,
          "name": "G5",
          "ticks": 32976,
          "time": 171.75,
          "velocity": 0.8661417322834646
        },
        {
          "duration": 0.11979166666665719,
          "durationTicks": 23,
          "midi": 79,
          "name": "G5",
          "ticks": 33000,
          "time": 171.875,
          "velocity": 0.8661417322834646
        },
        {
          "duration": 0.3697916666666572,
          "durationTicks": 71,
          "midi": 82,
          "name": "A#5",
          "ticks": 33024,
          "time": 172,
          "velocity": 0.8661417322834646
        },
        {
          "duration": 0.3697916666666572,
          "durationTicks": 71,
          "midi": 82,
          "name": "A#5",
          "ticks": 33096,
          "time": 172.375,
          "velocity": 0.8661417322834646
        },
        {
          "duration": 0.11979166666665719,
          "durationTicks": 23,
          "midi": 82,
          "name": "A#5",
          "ticks": 33168,
          "time": 172.75,
          "velocity": 0.8661417322834646
        },
        {
          "duration": 0.11979166666665719,
          "durationTicks": 23,
          "midi": 82,
          "name": "A#5",
          "ticks": 33192,
          "time": 172.875,
          "velocity": 0.8661417322834646
        },
        {
          "duration": 0.3697916666666572,
          "durationTicks": 71,
          "midi": 79,
          "name": "G5",
          "ticks": 33216,
          "time": 173,
          "velocity": 0.8661417322834646
        },
        {
          "duration": 0.3697916666666572,
          "durationTicks": 71,
          "midi": 79,
          "name": "G5",
          "ticks": 33288,
          "time": 173.375,
          "velocity": 0.8661417322834646
        },
        {
          "duration": 0.11979166666665719,
          "durationTicks": 23,
          "midi": 79,
          "name": "G5",
          "ticks": 33360,
          "time": 173.75,
          "velocity": 0.8661417322834646
        },
        {
          "duration": 0.11979166666665719,
          "durationTicks": 23,
          "midi": 79,
          "name": "G5",
          "ticks": 33384,
          "time": 173.875,
          "velocity": 0.8661417322834646
        },
        {
          "duration": 0.3697916666666572,
          "durationTicks": 71,
          "midi": 80,
          "name": "G#5",
          "ticks": 33408,
          "time": 174,
          "velocity": 0.8661417322834646
        },
        {
          "duration": 0.3697916666666572,
          "durationTicks": 71,
          "midi": 80,
          "name": "G#5",
          "ticks": 33480,
          "time": 174.375,
          "velocity": 0.8661417322834646
        },
        {
          "duration": 0.11979166666665719,
          "durationTicks": 23,
          "midi": 80,
          "name": "G#5",
          "ticks": 33552,
          "time": 174.75,
          "velocity": 0.8661417322834646
        },
        {
          "duration": 0.11979166666665719,
          "durationTicks": 23,
          "midi": 80,
          "name": "G#5",
          "ticks": 33576,
          "time": 174.875,
          "velocity": 0.8661417322834646
        },
        {
          "duration": 0.3697916666666572,
          "durationTicks": 71,
          "midi": 79,
          "name": "G5",
          "ticks": 33600,
          "time": 175,
          "velocity": 0.8661417322834646
        },
        {
          "duration": 0.3697916666666572,
          "durationTicks": 71,
          "midi": 79,
          "name": "G5",
          "ticks": 33672,
          "time": 175.375,
          "velocity": 0.8661417322834646
        },
        {
          "duration": 0.11979166666665719,
          "durationTicks": 23,
          "midi": 79,
          "name": "G5",
          "ticks": 33744,
          "time": 175.75,
          "velocity": 0.8661417322834646
        },
        {
          "duration": 0.11979166666665719,
          "durationTicks": 23,
          "midi": 79,
          "name": "G5",
          "ticks": 33768,
          "time": 175.875,
          "velocity": 0.8661417322834646
        },
        {
          "duration": 0.4166666666666572,
          "durationTicks": 80,
          "midi": 82,
          "name": "A#5",
          "ticks": 33792,
          "time": 176,
          "velocity": 0.8661417322834646
        }
      ]
    },
    {
      "channel": 0,
      "controlChanges": {
        "6": [
          {
            "number": 6,
            "ticks": 0,
            "time": 0,
            "value": 0.09448818897637795
          },
          {
            "number": 6,
            "ticks": 0,
            "time": 0,
            "value": 0.09448818897637795
          },
          {
            "number": 6,
            "ticks": 0,
            "time": 0,
            "value": 0.09448818897637795
          }
        ],
        "7": [
          {
            "number": 7,
            "ticks": 0,
            "time": 0,
            "value": 1
          },
          {
            "number": 7,
            "ticks": 0,
            "time": 0,
            "value": 1
          },
          {
            "number": 7,
            "ticks": 0,
            "time": 0,
            "value": 1
          },
          {
            "number": 7,
            "ticks": 0,
            "time": 0,
            "value": 1
          },
          {
            "number": 7,
            "ticks": 0,
            "time": 0,
            "value": 1
          },
          {
            "number": 7,
            "ticks": 0,
            "time": 0,
            "value": 1
          }
        ],
        "10": [
          {
            "number": 10,
            "ticks": 0,
            "time": 0,
            "value": 0.5039370078740157
          },
          {
            "number": 10,
            "ticks": 0,
            "time": 0,
            "value": 0.5039370078740157
          },
          {
            "number": 10,
            "ticks": 0,
            "time": 0,
            "value": 0.5039370078740157
          },
          {
            "number": 10,
            "ticks": 0,
            "time": 0,
            "value": 0.5039370078740157
          },
          {
            "number": 10,
            "ticks": 0,
            "time": 0,
            "value": 0.5039370078740157
          },
          {
            "number": 10,
            "ticks": 0,
            "time": 0,
            "value": 0.5039370078740157
          }
        ],
        "100": [
          {
            "number": 100,
            "ticks": 0,
            "time": 0,
            "value": 0
          },
          {
            "number": 100,
            "ticks": 0,
            "time": 0,
            "value": 0
          },
          {
            "number": 100,
            "ticks": 0,
            "time": 0,
            "value": 0
          }
        ],
        "101": [
          {
            "number": 101,
            "ticks": 0,
            "time": 0,
            "value": 0
          },
          {
            "number": 101,
            "ticks": 0,
            "time": 0,
            "value": 0
          },
          {
            "number": 101,
            "ticks": 0,
            "time": 0,
            "value": 0
          }
        ]
      },
      "pitchBends": [
        {
          "ticks": 0,
          "time": 0,
          "value": 0
        },
        {
          "ticks": 0,
          "time": 0,
          "value": 0
        },
        {
          "ticks": 0,
          "time": 0,
          "value": 0
        },
        {
          "ticks": 0,
          "time": 0,
          "value": 0
        }
      ],
      "instrument": {
        "family": "piano",
        "number": 0,
        "name": "acoustic grand piano"
      },
      "name": "Solo Vox",
      "notes": [],
      "endOfTrackTicks": 34195
    },
    {
      "channel": 1,
      "controlChanges": {
        "6": [
          {
            "number": 6,
            "ticks": 34176,
            "time": 178,
            "value": 0.09448818897637795
          },
          {
            "number": 6,
            "ticks": 34177,
            "time": 178.00520833333334,
            "value": 0.09448818897637795
          }
        ],
        "7": [
          {
            "number": 7,
            "ticks": 34176,
            "time": 178,
            "value": 1
          },
          {
            "number": 7,
            "ticks": 34176,
            "time": 178,
            "value": 1
          },
          {
            "number": 7,
            "ticks": 34177,
            "time": 178.00520833333334,
            "value": 1
          }
        ],
        "10": [
          {
            "number": 10,
            "ticks": 34176,
            "time": 178,
            "value": 0.5039370078740157
          },
          {
            "number": 10,
            "ticks": 34176,
            "time": 178,
            "value": 0.5039370078740157
          },
          {
            "number": 10,
            "ticks": 34177,
            "time": 178.00520833333334,
            "value": 0.5039370078740157
          }
        ],
        "100": [
          {
            "number": 100,
            "ticks": 34176,
            "time": 178,
            "value": 0
          },
          {
            "number": 100,
            "ticks": 34177,
            "time": 178.00520833333334,
            "value": 0
          }
        ],
        "101": [
          {
            "number": 101,
            "ticks": 34176,
            "time": 178,
            "value": 0
          },
          {
            "number": 101,
            "ticks": 34177,
            "time": 178.00520833333334,
            "value": 0
          }
        ]
      },
      "pitchBends": [
        {
          "ticks": 34176,
          "time": 178,
          "value": 0
        },
        {
          "ticks": 34177,
          "time": 178.00520833333334,
          "value": 0
        }
      ],
      "instrument": {
        "family": "synth lead",
        "number": 85,
        "name": "lead 6 (voice)"
      },
      "name": "",
      "notes": [
        {
          "duration": 0.24479166666666669,
          "durationTicks": 47,
          "midi": 72,
          "name": "C5",
          "ticks": 48,
          "time": 0.25,
          "velocity": 0.8661417322834646
        },
        {
          "duration": 0.24479166666666663,
          "durationTicks": 47,
          "midi": 75,
          "name": "D#5",
          "ticks": 96,
          "time": 0.5,
          "velocity": 0.8661417322834646
        },
        {
          "duration": 0.24479166666666663,
          "durationTicks": 47,
          "midi": 77,
          "name": "F5",
          "ticks": 144,
          "time": 0.75,
          "velocity": 0.8661417322834646
        },
        {
          "duration": 0.41666666666666674,
          "durationTicks": 80,
          "midi": 79,
          "name": "G5",
          "ticks": 192,
          "time": 1,
          "velocity": 0.8661417322834646
        },
        {
          "duration": 0.41666666666666674,
          "durationTicks": 80,
          "midi": 79,
          "name": "G5",
          "ticks": 288,
          "time": 1.5,
          "velocity": 0.8661417322834646
        },
        {
          "duration": 0.3697916666666665,
          "durationTicks": 71,
          "midi": 80,
          "name": "G#5",
          "ticks": 384,
          "time": 2,
          "velocity": 0.8661417322834646
        },
        {
          "duration": 0.3697916666666665,
          "durationTicks": 71,
          "midi": 80,
          "name": "G#5",
          "ticks": 456,
          "time": 2.375,
          "velocity": 0.8661417322834646
        },
        {
          "duration": 0.4947916666666665,
          "durationTicks": 95,
          "midi": 79,
          "name": "G5",
          "ticks": 528,
          "time": 2.75,
          "velocity": 0.8661417322834646
        },
        {
          "duration": 0.4947916666666665,
          "durationTicks": 95,
          "midi": 79,
          "name": "G5",
          "ticks": 624,
          "time": 3.25,
          "velocity": 0.8661417322834646
        },
        {
          "duration": 0.24479166666666652,
          "durationTicks": 47,
          "midi": 75,
          "name": "D#5",
          "ticks": 720,
          "time": 3.75,
          "velocity": 0.8661417322834646
        },
        {
          "duration": 0.24479166666666696,
          "durationTicks": 47,
          "midi": 75,
          "name": "D#5",
          "ticks": 768,
          "time": 4,
          "velocity": 0.8661417322834646
        },
        {
          "duration": 0.24479166666666696,
          "durationTicks": 47,
          "midi": 74,
          "name": "D5",
          "ticks": 816,
          "time": 4.25,
          "velocity": 0.8661417322834646
        },
        {
          "duration": 0.41666666666666696,
          "durationTicks": 80,
          "midi": 74,
          "name": "D5",
          "ticks": 864,
          "time": 4.5,
          "velocity": 0.8661417322834646
        },
        {
          "duration": 0.41666666666666696,
          "durationTicks": 80,
          "midi": 79,
          "name": "G5",
          "ticks": 960,
          "time": 5,
          "velocity": 0.8661417322834646
        },
        {
          "duration": 0.41666666666666696,
          "durationTicks": 80,
          "midi": 79,
          "name": "G5",
          "ticks": 1056,
          "time": 5.5,
          "velocity": 0.8661417322834646
        },
        {
          "duration": 0.36979166666666696,
          "durationTicks": 71,
          "midi": 80,
          "name": "G#5",
          "ticks": 1152,
          "time": 6,
          "velocity": 0.8661417322834646
        },
        {
          "duration": 0.36979166666666696,
          "durationTicks": 71,
          "midi": 80,
          "name": "G#5",
          "ticks": 1224,
          "time": 6.375,
          "velocity": 0.8661417322834646
        },
        {
          "duration": 0.49479166666666696,
          "durationTicks": 95,
          "midi": 79,
          "name": "G5",
          "ticks": 1296,
          "time": 6.75,
          "velocity": 0.8661417322834646
        },
        {
          "duration": 0.49479166666666696,
          "durationTicks": 95,
          "midi": 79,
          "name": "G5",
          "ticks": 1392,
          "time": 7.25,
          "velocity": 0.8661417322834646
        },
        {
          "duration": 0.24479166666666696,
          "durationTicks": 47,
          "midi": 75,
          "name": "D#5",
          "ticks": 1488,
          "time": 7.75,
          "velocity": 0.8661417322834646
        },
        {
          "duration": 0.24479166666666607,
          "durationTicks": 47,
          "midi": 75,
          "name": "D#5",
          "ticks": 1536,
          "time": 8,
          "velocity": 0.8661417322834646
        },
        {
          "duration": 0.24479166666666607,
          "durationTicks": 47,
          "midi": 74,
          "name": "D5",
          "ticks": 1584,
          "time": 8.25,
          "velocity": 0.8661417322834646
        },
        {
          "duration": 0.4166666666666661,
          "durationTicks": 80,
          "midi": 74,
          "name": "D5",
          "ticks": 1632,
          "time": 8.5,
          "velocity": 0.8661417322834646
        },
        {
          "duration": 0.4166666666666661,
          "durationTicks": 80,
          "midi": 79,
          "name": "G5",
          "ticks": 1728,
          "time": 9,
          "velocity": 0.8661417322834646
        },
        {
          "duration": 0.4166666666666661,
          "durationTicks": 80,
          "midi": 79,
          "name": "G5",
          "ticks": 1824,
          "time": 9.5,
          "velocity": 0.8661417322834646
        },
        {
          "duration": 0.3697916666666661,
          "durationTicks": 71,
          "midi": 80,
          "name": "G#5",
          "ticks": 1920,
          "time": 10,
          "velocity": 0.8661417322834646
        },
        {
          "duration": 0.3697916666666661,
          "durationTicks": 71,
          "midi": 80,
          "name": "G#5",
          "ticks": 1992,
          "time": 10.375,
          "velocity": 0.8661417322834646
        },
        {
          "duration": 0.4947916666666661,
          "durationTicks": 95,
          "midi": 79,
          "name": "G5",
          "ticks": 2064,
          "time": 10.75,
          "velocity": 0.8661417322834646
        },
        {
          "duration": 0.4947916666666661,
          "durationTicks": 95,
          "midi": 79,
          "name": "G5",
          "ticks": 2160,
          "time": 11.25,
          "velocity": 0.8661417322834646
        },
        {
          "duration": 0.24479166666666607,
          "durationTicks": 47,
          "midi": 75,
          "name": "D#5",
          "ticks": 2256,
          "time": 11.75,
          "velocity": 0.8661417322834646
        },
        {
          "duration": 0.24479166666666607,
          "durationTicks": 47,
          "midi": 75,
          "name": "D#5",
          "ticks": 2304,
          "time": 12,
          "velocity": 0.8661417322834646
        },
        {
          "duration": 0.24479166666666607,
          "durationTicks": 47,
          "midi": 74,
          "name": "D5",
          "ticks": 2352,
          "time": 12.25,
          "velocity": 0.8661417322834646
        },
        {
          "duration": 0.4166666666666661,
          "durationTicks": 80,
          "midi": 74,
          "name": "D5",
          "ticks": 2400,
          "time": 12.5,
          "velocity": 0.8661417322834646
        },
        {
          "duration": 0.3697916666666661,
          "durationTicks": 71,
          "midi": 72,
          "name": "C5",
          "ticks": 2496,
          "time": 13,
          "velocity": 0.8661417322834646
        },
        {
          "duration": 0.3697916666666661,
          "durationTicks": 71,
          "midi": 75,
          "name": "D#5",
          "ticks": 2568,
          "time": 13.375,
          "velocity": 0.8661417322834646
        },
        {
          "duration": 0.24479166666666607,
          "durationTicks": 47,
          "midi": 72,
          "name": "C5",
          "ticks": 2640,
          "time": 13.75,
          "velocity": 0.8661417322834646
        },
        {
          "duration": 0.24479166666666607,
          "durationTicks": 47,
          "midi": 77,
          "name": "F5",
          "ticks": 2688,
          "time": 14,
          "velocity": 0.8661417322834646
        },
        {
          "duration": 0.24479166666666607,
          "durationTicks": 47,
          "midi": 72,
          "name": "C5",
          "ticks": 2736,
          "time": 14.25,
          "velocity": 0.8661417322834646
        },
        {
          "duration": 0.24479166666666607,
          "durationTicks": 47,
          "midi": 72,
          "name": "C5",
          "ticks": 2784,
          "time": 14.5,
          "velocity": 0.8661417322834646
        },
        {
          "duration": 0.24479166666666607,
          "durationTicks": 47,
          "midi": 70,
          "name": "A#4",
          "ticks": 2832,
          "time": 14.75,
          "velocity": 0.8661417322834646
        },
        {
          "duration": 0.24479166666666607,
          "durationTicks": 47,
          "midi": 72,
          "name": "C5",
          "ticks": 2880,
          "time": 15,
          "velocity": 0.8661417322834646
        },
        {
          "duration": 0.11979166666666607,
          "durationTicks": 23,
          "midi": 72,
          "name": "C5",
          "ticks": 2928,
          "time": 15.25,
          "velocity": 0.8661417322834646
        },
        {
          "duration": 0.24479166666666607,
          "durationTicks": 47,
          "midi": 75,
          "name": "D#5",
          "ticks": 2952,
          "time": 15.375,
          "velocity": 0.8661417322834646
        },
        {
          "duration": 0.11979166666666607,
          "durationTicks": 23,
          "midi": 75,
          "name": "D#5",
          "ticks": 3000,
          "time": 15.625,
          "velocity": 0.8661417322834646
        },
        {
          "duration": 0.24479166666666607,
          "durationTicks": 47,
          "midi": 79,
          "name": "G5",
          "ticks": 3024,
          "time": 15.75,
          "velocity": 0.8661417322834646
        },
        {
          "duration": 0.24479166666666785,
          "durationTicks": 47,
          "midi": 77,
          "name": "F5",
          "ticks": 3072,
          "time": 16,
          "velocity": 0.8661417322834646
        },
        {
          "duration": 0.49479166666666785,
          "durationTicks": 95,
          "midi": 75,
          "name": "D#5",
          "ticks": 3120,
          "time": 16.25,
          "velocity": 0.8661417322834646
        },
        {
          "duration": 0.24479166666666785,
          "durationTicks": 47,
          "midi": 74,
          "name": "D5",
          "ticks": 3216,
          "time": 16.75,
          "velocity": 0.8661417322834646
        },
        {
          "duration": 0.36979166666666785,
          "durationTicks": 71,
          "midi": 72,
          "name": "C5",
          "ticks": 3264,
          "time": 17,
          "velocity": 0.8661417322834646
        },
        {
          "duration": 0.36979166666666785,
          "durationTicks": 71,
          "midi": 75,
          "name": "D#5",
          "ticks": 3336,
          "time": 17.375,
          "velocity": 0.8661417322834646
        },
        {
          "duration": 0.24479166666666785,
          "durationTicks": 47,
          "midi": 72,
          "name": "C5",
          "ticks": 3408,
          "time": 17.75,
          "velocity": 0.8661417322834646
        },
        {
          "duration": 0.41666666666666785,
          "durationTicks": 80,
          "midi": 75,
          "name": "D#5",
          "ticks": 3456,
          "time": 18,
          "velocity": 0.8661417322834646
        },
        {
          "duration": 0.24479166666666785,
          "durationTicks": 47,
          "midi": 70,
          "name": "A#4",
          "ticks": 3552,
          "time": 18.5,
          "velocity": 0.8661417322834646
        },
        {
          "duration": 0.11979166666666785,
          "durationTicks": 23,
          "midi": 72,
          "name": "C5",
          "ticks": 3600,
          "time": 18.75,
          "velocity": 0.8661417322834646
        },
        {
          "duration": 0.11979166666666785,
          "durationTicks": 23,
          "midi": 72,
          "name": "C5",
          "ticks": 3624,
          "time": 18.875,
          "velocity": 0.8661417322834646
        },
        {
          "duration": 0.24479166666666785,
          "durationTicks": 47,
          "midi": 79,
          "name": "G5",
          "ticks": 3648,
          "time": 19,
          "velocity": 0.8661417322834646
        },
        {
          "duration": 0.11979166666666785,
          "durationTicks": 23,
          "midi": 79,
          "name": "G5",
          "ticks": 3696,
          "time": 19.25,
          "velocity": 0.8661417322834646
        },
        {
          "duration": 0.24479166666666785,
          "durationTicks": 47,
          "midi": 79,
          "name": "G5",
          "ticks": 3720,
          "time": 19.375,
          "velocity": 0.8661417322834646
        },
        {
          "duration": 0.11979166666666785,
          "durationTicks": 23,
          "midi": 79,
          "name": "G5",
          "ticks": 3768,
          "time": 19.625,
          "velocity": 0.8661417322834646
        },
        {
          "duration": 0.24479166666666785,
          "durationTicks": 47,
          "midi": 75,
          "name": "D#5",
          "ticks": 3792,
          "time": 19.75,
          "velocity": 0.8661417322834646
        },
        {
          "duration": 0.875,
          "durationTicks": 168,
          "midi": 77,
          "name": "F5",
          "ticks": 3840,
          "time": 20,
          "velocity": 0.8661417322834646
        },
        {
          "duration": 0.2447916666666643,
          "durationTicks": 47,
          "midi": 72,
          "name": "C5",
          "ticks": 6960,
          "time": 36.25,
          "velocity": 0.8661417322834646
        },
        {
          "duration": 0.2447916666666643,
          "durationTicks": 47,
          "midi": 75,
          "name": "D#5",
          "ticks": 7008,
          "time": 36.5,
          "velocity": 0.8661417322834646
        },
        {
          "duration": 0.2447916666666643,
          "durationTicks": 47,
          "midi": 77,
          "name": "F5",
          "ticks": 7056,
          "time": 36.75,
          "velocity": 0.8661417322834646
        },
        {
          "duration": 0.4166666666666643,
          "durationTicks": 80,
          "midi": 79,
          "name": "G5",
          "ticks": 7104,
          "time": 37,
          "velocity": 0.8661417322834646
        },
        {
          "duration": 0.4166666666666643,
          "durationTicks": 80,
          "midi": 79,
          "name": "G5",
          "ticks": 7200,
          "time": 37.5,
          "velocity": 0.8661417322834646
        },
        {
          "duration": 0.3697916666666643,
          "durationTicks": 71,
          "midi": 80,
          "name": "G#5",
          "ticks": 7296,
          "time": 38,
          "velocity": 0.8661417322834646
        },
        {
          "duration": 0.3697916666666643,
          "durationTicks": 71,
          "midi": 80,
          "name": "G#5",
          "ticks": 7368,
          "time": 38.375,
          "velocity": 0.8661417322834646
        },
        {
          "duration": 0.4947916666666643,
          "durationTicks": 95,
          "midi": 79,
          "name": "G5",
          "ticks": 7440,
          "time": 38.75,
          "velocity": 0.8661417322834646
        },
        {
          "duration": 0.4947916666666643,
          "durationTicks": 95,
          "midi": 79,
          "name": "G5",
          "ticks": 7536,
          "time": 39.25,
          "velocity": 0.8661417322834646
        },
        {
          "duration": 0.2447916666666643,
          "durationTicks": 47,
          "midi": 75,
          "name": "D#5",
          "ticks": 7632,
          "time": 39.75,
          "velocity": 0.8661417322834646
        },
        {
          "duration": 0.2447916666666643,
          "durationTicks": 47,
          "midi": 75,
          "name": "D#5",
          "ticks": 7680,
          "time": 40,
          "velocity": 0.8661417322834646
        },
        {
          "duration": 0.2447916666666643,
          "durationTicks": 47,
          "midi": 74,
          "name": "D5",
          "ticks": 7728,
          "time": 40.25,
          "velocity": 0.8661417322834646
        },
        {
          "duration": 0.4166666666666643,
          "durationTicks": 80,
          "midi": 74,
          "name": "D5",
          "ticks": 7776,
          "time": 40.5,
          "velocity": 0.8661417322834646
        },
        {
          "duration": 0.4166666666666643,
          "durationTicks": 80,
          "midi": 79,
          "name": "G5",
          "ticks": 7872,
          "time": 41,
          "velocity": 0.8661417322834646
        },
        {
          "duration": 0.4166666666666643,
          "durationTicks": 80,
          "midi": 79,
          "name": "G5",
          "ticks": 7968,
          "time": 41.5,
          "velocity": 0.8661417322834646
        },
        {
          "duration": 0.3697916666666643,
          "durationTicks": 71,
          "midi": 80,
          "name": "G#5",
          "ticks": 8064,
          "time": 42,
          "velocity": 0.8661417322834646
        },
        {
          "duration": 0.3697916666666643,
          "durationTicks": 71,
          "midi": 80,
          "name": "G#5",
          "ticks": 8136,
          "time": 42.375,
          "velocity": 0.8661417322834646
        },
        {
          "duration": 0.4947916666666643,
          "durationTicks": 95,
          "midi": 79,
          "name": "G5",
          "ticks": 8208,
          "time": 42.75,
          "velocity": 0.8661417322834646
        },
        {
          "duration": 0.4947916666666643,
          "durationTicks": 95,
          "midi": 79,
          "name": "G5",
          "ticks": 8304,
          "time": 43.25,
          "velocity": 0.8661417322834646
        },
        {
          "duration": 0.2447916666666643,
          "durationTicks": 47,
          "midi": 75,
          "name": "D#5",
          "ticks": 8400,
          "time": 43.75,
          "velocity": 0.8661417322834646
        },
        {
          "duration": 0.2447916666666643,
          "durationTicks": 47,
          "midi": 75,
          "name": "D#5",
          "ticks": 8448,
          "time": 44,
          "velocity": 0.8661417322834646
        },
        {
          "duration": 0.2447916666666643,
          "durationTicks": 47,
          "midi": 74,
          "name": "D5",
          "ticks": 8496,
          "time": 44.25,
          "velocity": 0.8661417322834646
        },
        {
          "duration": 0.4166666666666643,
          "durationTicks": 80,
          "midi": 74,
          "name": "D5",
          "ticks": 8544,
          "time": 44.5,
          "velocity": 0.8661417322834646
        },
        {
          "duration": 0.4166666666666643,
          "durationTicks": 80,
          "midi": 79,
          "name": "G5",
          "ticks": 8640,
          "time": 45,
          "velocity": 0.8661417322834646
        },
        {
          "duration": 0.4166666666666643,
          "durationTicks": 80,
          "midi": 79,
          "name": "G5",
          "ticks": 8736,
          "time": 45.5,
          "velocity": 0.8661417322834646
        },
        {
          "duration": 0.3697916666666643,
          "durationTicks": 71,
          "midi": 80,
          "name": "G#5",
          "ticks": 8832,
          "time": 46,
          "velocity": 0.8661417322834646
        },
        {
          "duration": 0.3697916666666643,
          "durationTicks": 71,
          "midi": 80,
          "name": "G#5",
          "ticks": 8904,
          "time": 46.375,
          "velocity": 0.8661417322834646
        },
        {
          "duration": 0.4947916666666643,
          "durationTicks": 95,
          "midi": 79,
          "name": "G5",
          "ticks": 8976,
          "time": 46.75,
          "velocity": 0.8661417322834646
        },
        {
          "duration": 0.4947916666666643,
          "durationTicks": 95,
          "midi": 79,
          "name": "G5",
          "ticks": 9072,
          "time": 47.25,
          "velocity": 0.8661417322834646
        },
        {
          "duration": 0.2447916666666643,
          "durationTicks": 47,
          "midi": 75,
          "name": "D#5",
          "ticks": 9168,
          "time": 47.75,
          "velocity": 0.8661417322834646
        },
        {
          "duration": 0.2447916666666643,
          "durationTicks": 47,
          "midi": 75,
          "name": "D#5",
          "ticks": 9216,
          "time": 48,
          "velocity": 0.8661417322834646
        },
        {
          "duration": 0.2447916666666643,
          "durationTicks": 47,
          "midi": 74,
          "name": "D5",
          "ticks": 9264,
          "time": 48.25,
          "velocity": 0.8661417322834646
        },
        {
          "duration": 0.4166666666666643,
          "durationTicks": 80,
          "midi": 74,
          "name": "D5",
          "ticks": 9312,
          "time": 48.5,
          "velocity": 0.8661417322834646
        },
        {
          "duration": 0.3697916666666643,
          "durationTicks": 71,
          "midi": 72,
          "name": "C5",
          "ticks": 9408,
          "time": 49,
          "velocity": 0.8661417322834646
        },
        {
          "duration": 0.3697916666666643,
          "durationTicks": 71,
          "midi": 75,
          "name": "D#5",
          "ticks": 9480,
          "time": 49.375,
          "velocity": 0.8661417322834646
        },
        {
          "duration": 0.2447916666666643,
          "durationTicks": 47,
          "midi": 72,
          "name": "C5",
          "ticks": 9552,
          "time": 49.75,
          "velocity": 0.8661417322834646
        },
        {
          "duration": 0.2447916666666643,
          "durationTicks": 47,
          "midi": 77,
          "name": "F5",
          "ticks": 9600,
          "time": 50,
          "velocity": 0.8661417322834646
        },
        {
          "duration": 0.2447916666666643,
          "durationTicks": 47,
          "midi": 72,
          "name": "C5",
          "ticks": 9648,
          "time": 50.25,
          "velocity": 0.8661417322834646
        },
        {
          "duration": 0.2447916666666643,
          "durationTicks": 47,
          "midi": 72,
          "name": "C5",
          "ticks": 9696,
          "time": 50.5,
          "velocity": 0.8661417322834646
        },
        {
          "duration": 0.2447916666666643,
          "durationTicks": 47,
          "midi": 70,
          "name": "A#4",
          "ticks": 9744,
          "time": 50.75,
          "velocity": 0.8661417322834646
        },
        {
          "duration": 0.2447916666666643,
          "durationTicks": 47,
          "midi": 72,
          "name": "C5",
          "ticks": 9792,
          "time": 51,
          "velocity": 0.8661417322834646
        },
        {
          "duration": 0.1197916666666643,
          "durationTicks": 23,
          "midi": 72,
          "name": "C5",
          "ticks": 9840,
          "time": 51.25,
          "velocity": 0.8661417322834646
        },
        {
          "duration": 0.2447916666666643,
          "durationTicks": 47,
          "midi": 75,
          "name": "D#5",
          "ticks": 9864,
          "time": 51.375,
          "velocity": 0.8661417322834646
        },
        {
          "duration": 0.1197916666666643,
          "durationTicks": 23,
          "midi": 75,
          "name": "D#5",
          "ticks": 9912,
          "time": 51.625,
          "velocity": 0.8661417322834646
        },
        {
          "duration": 0.2447916666666643,
          "durationTicks": 47,
          "midi": 79,
          "name": "G5",
          "ticks": 9936,
          "time": 51.75,
          "velocity": 0.8661417322834646
        },
        {
          "duration": 0.2447916666666643,
          "durationTicks": 47,
          "midi": 77,
          "name": "F5",
          "ticks": 9984,
          "time": 52,
          "velocity": 0.8661417322834646
        },
        {
          "duration": 0.4947916666666643,
          "durationTicks": 95,
          "midi": 75,
          "name": "D#5",
          "ticks": 10032,
          "time": 52.25,
          "velocity": 0.8661417322834646
        },
        {
          "duration": 0.2447916666666643,
          "durationTicks": 47,
          "midi": 74,
          "name": "D5",
          "ticks": 10128,
          "time": 52.75,
          "velocity": 0.8661417322834646
        },
        {
          "duration": 0.3697916666666643,
          "durationTicks": 71,
          "midi": 72,
          "name": "C5",
          "ticks": 10176,
          "time": 53,
          "velocity": 0.8661417322834646
        },
        {
          "duration": 0.3697916666666643,
          "durationTicks": 71,
          "midi": 75,
          "name": "D#5",
          "ticks": 10248,
          "time": 53.375,
          "velocity": 0.8661417322834646
        },
        {
          "duration": 0.2447916666666643,
          "durationTicks": 47,
          "midi": 72,
          "name": "C5",
          "ticks": 10320,
          "time": 53.75,
          "velocity": 0.8661417322834646
        },
        {
          "duration": 0.4166666666666643,
          "durationTicks": 80,
          "midi": 75,
          "name": "D#5",
          "ticks": 10368,
          "time": 54,
          "velocity": 0.8661417322834646
        },
        {
          "duration": 0.2447916666666643,
          "durationTicks": 47,
          "midi": 70,
          "name": "A#4",
          "ticks": 10464,
          "time": 54.5,
          "velocity": 0.8661417322834646
        },
        {
          "duration": 0.1197916666666643,
          "durationTicks": 23,
          "midi": 72,
          "name": "C5",
          "ticks": 10512,
          "time": 54.75,
          "velocity": 0.8661417322834646
        },
        {
          "duration": 0.1197916666666643,
          "durationTicks": 23,
          "midi": 72,
          "name": "C5",
          "ticks": 10536,
          "time": 54.875,
          "velocity": 0.8661417322834646
        },
        {
          "duration": 0.2447916666666643,
          "durationTicks": 47,
          "midi": 79,
          "name": "G5",
          "ticks": 10560,
          "time": 55,
          "velocity": 0.8661417322834646
        },
        {
          "duration": 0.1197916666666643,
          "durationTicks": 23,
          "midi": 79,
          "name": "G5",
          "ticks": 10608,
          "time": 55.25,
          "velocity": 0.8661417322834646
        },
        {
          "duration": 0.2447916666666643,
          "durationTicks": 47,
          "midi": 79,
          "name": "G5",
          "ticks": 10632,
          "time": 55.375,
          "velocity": 0.8661417322834646
        },
        {
          "duration": 0.1197916666666643,
          "durationTicks": 23,
          "midi": 79,
          "name": "G5",
          "ticks": 10680,
          "time": 55.625,
          "velocity": 0.8661417322834646
        },
        {
          "duration": 0.2447916666666643,
          "durationTicks": 47,
          "midi": 75,
          "name": "D#5",
          "ticks": 10704,
          "time": 55.75,
          "velocity": 0.8661417322834646
        },
        {
          "duration": 0.875,
          "durationTicks": 168,
          "midi": 77,
          "name": "F5",
          "ticks": 10752,
          "time": 56,
          "velocity": 0.8661417322834646
        },
        {
          "duration": 0.2447916666666714,
          "durationTicks": 47,
          "midi": 72,
          "name": "C5",
          "ticks": 13872,
          "time": 72.25,
          "velocity": 0.8661417322834646
        },
        {
          "duration": 0.2447916666666714,
          "durationTicks": 47,
          "midi": 75,
          "name": "D#5",
          "ticks": 13920,
          "time": 72.5,
          "velocity": 0.8661417322834646
        },
        {
          "duration": 0.2447916666666714,
          "durationTicks": 47,
          "midi": 77,
          "name": "F5",
          "ticks": 13968,
          "time": 72.75,
          "velocity": 0.8661417322834646
        },
        {
          "duration": 0.4166666666666714,
          "durationTicks": 80,
          "midi": 79,
          "name": "G5",
          "ticks": 14016,
          "time": 73,
          "velocity": 0.8661417322834646
        },
        {
          "duration": 0.4166666666666714,
          "durationTicks": 80,
          "midi": 79,
          "name": "G5",
          "ticks": 14112,
          "time": 73.5,
          "velocity": 0.8661417322834646
        },
        {
          "duration": 0.3697916666666714,
          "durationTicks": 71,
          "midi": 80,
          "name": "G#5",
          "ticks": 14208,
          "time": 74,
          "velocity": 0.8661417322834646
        },
        {
          "duration": 0.3697916666666714,
          "durationTicks": 71,
          "midi": 80,
          "name": "G#5",
          "ticks": 14280,
          "time": 74.375,
          "velocity": 0.8661417322834646
        },
        {
          "duration": 0.4947916666666714,
          "durationTicks": 95,
          "midi": 79,
          "name": "G5",
          "ticks": 14352,
          "time": 74.75,
          "velocity": 0.8661417322834646
        },
        {
          "duration": 0.4947916666666714,
          "durationTicks": 95,
          "midi": 79,
          "name": "G5",
          "ticks": 14448,
          "time": 75.25,
          "velocity": 0.8661417322834646
        },
        {
          "duration": 0.2447916666666714,
          "durationTicks": 47,
          "midi": 75,
          "name": "D#5",
          "ticks": 14544,
          "time": 75.75,
          "velocity": 0.8661417322834646
        },
        {
          "duration": 0.2447916666666714,
          "durationTicks": 47,
          "midi": 75,
          "name": "D#5",
          "ticks": 14592,
          "time": 76,
          "velocity": 0.8661417322834646
        },
        {
          "duration": 0.2447916666666714,
          "durationTicks": 47,
          "midi": 74,
          "name": "D5",
          "ticks": 14640,
          "time": 76.25,
          "velocity": 0.8661417322834646
        },
        {
          "duration": 0.4166666666666714,
          "durationTicks": 80,
          "midi": 74,
          "name": "D5",
          "ticks": 14688,
          "time": 76.5,
          "velocity": 0.8661417322834646
        },
        {
          "duration": 0.4166666666666714,
          "durationTicks": 80,
          "midi": 79,
          "name": "G5",
          "ticks": 14784,
          "time": 77,
          "velocity": 0.8661417322834646
        },
        {
          "duration": 0.4166666666666714,
          "durationTicks": 80,
          "midi": 79,
          "name": "G5",
          "ticks": 14880,
          "time": 77.5,
          "velocity": 0.8661417322834646
        },
        {
          "duration": 0.3697916666666714,
          "durationTicks": 71,
          "midi": 80,
          "name": "G#5",
          "ticks": 14976,
          "time": 78,
          "velocity": 0.8661417322834646
        },
        {
          "duration": 0.3697916666666714,
          "durationTicks": 71,
          "midi": 80,
          "name": "G#5",
          "ticks": 15048,
          "time": 78.375,
          "velocity": 0.8661417322834646
        },
        {
          "duration": 0.4947916666666714,
          "durationTicks": 95,
          "midi": 79,
          "name": "G5",
          "ticks": 15120,
          "time": 78.75,
          "velocity": 0.8661417322834646
        },
        {
          "duration": 0.4947916666666714,
          "durationTicks": 95,
          "midi": 79,
          "name": "G5",
          "ticks": 15216,
          "time": 79.25,
          "velocity": 0.8661417322834646
        },
        {
          "duration": 0.2447916666666714,
          "durationTicks": 47,
          "midi": 75,
          "name": "D#5",
          "ticks": 15312,
          "time": 79.75,
          "velocity": 0.8661417322834646
        },
        {
          "duration": 0.2447916666666714,
          "durationTicks": 47,
          "midi": 75,
          "name": "D#5",
          "ticks": 15360,
          "time": 80,
          "velocity": 0.8661417322834646
        },
        {
          "duration": 0.2447916666666714,
          "durationTicks": 47,
          "midi": 74,
          "name": "D5",
          "ticks": 15408,
          "time": 80.25,
          "velocity": 0.8661417322834646
        },
        {
          "duration": 0.4166666666666714,
          "durationTicks": 80,
          "midi": 74,
          "name": "D5",
          "ticks": 15456,
          "time": 80.5,
          "velocity": 0.8661417322834646
        },
        {
          "duration": 0.4166666666666714,
          "durationTicks": 80,
          "midi": 79,
          "name": "G5",
          "ticks": 15552,
          "time": 81,
          "velocity": 0.8661417322834646
        },
        {
          "duration": 0.4166666666666714,
          "durationTicks": 80,
          "midi": 79,
          "name": "G5",
          "ticks": 15648,
          "time": 81.5,
          "velocity": 0.8661417322834646
        },
        {
          "duration": 0.3697916666666714,
          "durationTicks": 71,
          "midi": 80,
          "name": "G#5",
          "ticks": 15744,
          "time": 82,
          "velocity": 0.8661417322834646
        },
        {
          "duration": 0.3697916666666714,
          "durationTicks": 71,
          "midi": 80,
          "name": "G#5",
          "ticks": 15816,
          "time": 82.375,
          "velocity": 0.8661417322834646
        },
        {
          "duration": 0.4947916666666714,
          "durationTicks": 95,
          "midi": 79,
          "name": "G5",
          "ticks": 15888,
          "time": 82.75,
          "velocity": 0.8661417322834646
        },
        {
          "duration": 0.4947916666666714,
          "durationTicks": 95,
          "midi": 79,
          "name": "G5",
          "ticks": 15984,
          "time": 83.25,
          "velocity": 0.8661417322834646
        },
        {
          "duration": 0.2447916666666714,
          "durationTicks": 47,
          "midi": 75,
          "name": "D#5",
          "ticks": 16080,
          "time": 83.75,
          "velocity": 0.8661417322834646
        },
        {
          "duration": 0.2447916666666714,
          "durationTicks": 47,
          "midi": 75,
          "name": "D#5",
          "ticks": 16128,
          "time": 84,
          "velocity": 0.8661417322834646
        },
        {
          "duration": 0.2447916666666714,
          "durationTicks": 47,
          "midi": 74,
          "name": "D5",
          "ticks": 16176,
          "time": 84.25,
          "velocity": 0.8661417322834646
        },
        {
          "duration": 0.4166666666666714,
          "durationTicks": 80,
          "midi": 74,
          "name": "D5",
          "ticks": 16224,
          "time": 84.5,
          "velocity": 0.8661417322834646
        },
        {
          "duration": 0.3697916666666714,
          "durationTicks": 71,
          "midi": 72,
          "name": "C5",
          "ticks": 16320,
          "time": 85,
          "velocity": 0.8661417322834646
        },
        {
          "duration": 0.3697916666666714,
          "durationTicks": 71,
          "midi": 75,
          "name": "D#5",
          "ticks": 16392,
          "time": 85.375,
          "velocity": 0.8661417322834646
        },
        {
          "duration": 0.2447916666666714,
          "durationTicks": 47,
          "midi": 72,
          "name": "C5",
          "ticks": 16464,
          "time": 85.75,
          "velocity": 0.8661417322834646
        },
        {
          "duration": 0.2447916666666714,
          "durationTicks": 47,
          "midi": 77,
          "name": "F5",
          "ticks": 16512,
          "time": 86,
          "velocity": 0.8661417322834646
        },
        {
          "duration": 0.2447916666666714,
          "durationTicks": 47,
          "midi": 72,
          "name": "C5",
          "ticks": 16560,
          "time": 86.25,
          "velocity": 0.8661417322834646
        },
        {
          "duration": 0.2447916666666714,
          "durationTicks": 47,
          "midi": 72,
          "name": "C5",
          "ticks": 16608,
          "time": 86.5,
          "velocity": 0.8661417322834646
        },
        {
          "duration": 0.2447916666666714,
          "durationTicks": 47,
          "midi": 70,
          "name": "A#4",
          "ticks": 16656,
          "time": 86.75,
          "velocity": 0.8661417322834646
        },
        {
          "duration": 0.2447916666666714,
          "durationTicks": 47,
          "midi": 72,
          "name": "C5",
          "ticks": 16704,
          "time": 87,
          "velocity": 0.8661417322834646
        },
        {
          "duration": 0.1197916666666714,
          "durationTicks": 23,
          "midi": 72,
          "name": "C5",
          "ticks": 16752,
          "time": 87.25,
          "velocity": 0.8661417322834646
        },
        {
          "duration": 0.2447916666666714,
          "durationTicks": 47,
          "midi": 75,
          "name": "D#5",
          "ticks": 16776,
          "time": 87.375,
          "velocity": 0.8661417322834646
        },
        {
          "duration": 0.1197916666666714,
          "durationTicks": 23,
          "midi": 75,
          "name": "D#5",
          "ticks": 16824,
          "time": 87.625,
          "velocity": 0.8661417322834646
        },
        {
          "duration": 0.2447916666666714,
          "durationTicks": 47,
          "midi": 79,
          "name": "G5",
          "ticks": 16848,
          "time": 87.75,
          "velocity": 0.8661417322834646
        },
        {
          "duration": 0.2447916666666714,
          "durationTicks": 47,
          "midi": 77,
          "name": "F5",
          "ticks": 16896,
          "time": 88,
          "velocity": 0.8661417322834646
        },
        {
          "duration": 0.4947916666666714,
          "durationTicks": 95,
          "midi": 75,
          "name": "D#5",
          "ticks": 16944,
          "time": 88.25,
          "velocity": 0.8661417322834646
        },
        {
          "duration": 0.2447916666666714,
          "durationTicks": 47,
          "midi": 74,
          "name": "D5",
          "ticks": 17040,
          "time": 88.75,
          "velocity": 0.8661417322834646
        },
        {
          "duration": 0.3697916666666714,
          "durationTicks": 71,
          "midi": 72,
          "name": "C5",
          "ticks": 17088,
          "time": 89,
          "velocity": 0.8661417322834646
        },
        {
          "duration": 0.3697916666666714,
          "durationTicks": 71,
          "midi": 75,
          "name": "D#5",
          "ticks": 17160,
          "time": 89.375,
          "velocity": 0.8661417322834646
        },
        {
          "duration": 0.2447916666666714,
          "durationTicks": 47,
          "midi": 72,
          "name": "C5",
          "ticks": 17232,
          "time": 89.75,
          "velocity": 0.8661417322834646
        },
        {
          "duration": 0.4166666666666714,
          "durationTicks": 80,
          "midi": 75,
          "name": "D#5",
          "ticks": 17280,
          "time": 90,
          "velocity": 0.8661417322834646
        },
        {
          "duration": 0.2447916666666714,
          "durationTicks": 47,
          "midi": 70,
          "name": "A#4",
          "ticks": 17376,
          "time": 90.5,
          "velocity": 0.8661417322834646
        },
        {
          "duration": 0.1197916666666714,
          "durationTicks": 23,
          "midi": 72,
          "name": "C5",
          "ticks": 17424,
          "time": 90.75,
          "velocity": 0.8661417322834646
        },
        {
          "duration": 0.1197916666666714,
          "durationTicks": 23,
          "midi": 72,
          "name": "C5",
          "ticks": 17448,
          "time": 90.875,
          "velocity": 0.8661417322834646
        },
        {
          "duration": 0.2447916666666714,
          "durationTicks": 47,
          "midi": 79,
          "name": "G5",
          "ticks": 17472,
          "time": 91,
          "velocity": 0.8661417322834646
        },
        {
          "duration": 0.1197916666666714,
          "durationTicks": 23,
          "midi": 79,
          "name": "G5",
          "ticks": 17520,
          "time": 91.25,
          "velocity": 0.8661417322834646
        },
        {
          "duration": 0.2447916666666714,
          "durationTicks": 47,
          "midi": 79,
          "name": "G5",
          "ticks": 17544,
          "time": 91.375,
          "velocity": 0.8661417322834646
        },
        {
          "duration": 0.1197916666666714,
          "durationTicks": 23,
          "midi": 79,
          "name": "G5",
          "ticks": 17592,
          "time": 91.625,
          "velocity": 0.8661417322834646
        },
        {
          "duration": 0.2447916666666714,
          "durationTicks": 47,
          "midi": 75,
          "name": "D#5",
          "ticks": 17616,
          "time": 91.75,
          "velocity": 0.8661417322834646
        },
        {
          "duration": 0.875,
          "durationTicks": 168,
          "midi": 77,
          "name": "F5",
          "ticks": 17664,
          "time": 92,
          "velocity": 0.8661417322834646
        },
        {
          "duration": 1.2447916666666714,
          "durationTicks": 239,
          "midi": 72,
          "name": "C5",
          "ticks": 17856,
          "time": 93,
          "velocity": 0.8661417322834646
        },
        {
          "duration": 0.2447916666666714,
          "durationTicks": 47,
          "midi": 72,
          "name": "C5",
          "ticks": 18096,
          "time": 94.25,
          "velocity": 0.8661417322834646
        },
        {
          "duration": 0.2447916666666714,
          "durationTicks": 47,
          "midi": 74,
          "name": "D5",
          "ticks": 18144,
          "time": 94.5,
          "velocity": 0.8661417322834646
        },
        {
          "duration": 0.4947916666666714,
          "durationTicks": 95,
          "midi": 75,
          "name": "D#5",
          "ticks": 18192,
          "time": 94.75,
          "velocity": 0.8661417322834646
        },
        {
          "duration": 0.6666666666666714,
          "durationTicks": 128,
          "midi": 72,
          "name": "C5",
          "ticks": 18288,
          "time": 95.25,
          "velocity": 0.8661417322834646
        },
        {
          "duration": 0.2447916666666714,
          "durationTicks": 47,
          "midi": 75,
          "name": "D#5",
          "ticks": 18528,
          "time": 96.5,
          "velocity": 0.8661417322834646
        },
        {
          "duration": 0.2447916666666714,
          "durationTicks": 47,
          "midi": 77,
          "name": "F5",
          "ticks": 18576,
          "time": 96.75,
          "velocity": 0.8661417322834646
        },
        {
          "duration": 0.4166666666666714,
          "durationTicks": 80,
          "midi": 79,
          "name": "G5",
          "ticks": 18624,
          "time": 97,
          "velocity": 0.8661417322834646
        },
        {
          "duration": 0.2447916666666714,
          "durationTicks": 47,
          "midi": 79,
          "name": "G5",
          "ticks": 18720,
          "time": 97.5,
          "velocity": 0.8661417322834646
        },
        {
          "duration": 0.2447916666666714,
          "durationTicks": 47,
          "midi": 79,
          "name": "G5",
          "ticks": 18768,
          "time": 97.75,
          "velocity": 0.8661417322834646
        },
        {
          "duration": 0.4166666666666714,
          "durationTicks": 80,
          "midi": 79,
          "name": "G5",
          "ticks": 18816,
          "time": 98,
          "velocity": 0.8661417322834646
        },
        {
          "duration": 0.2447916666666714,
          "durationTicks": 47,
          "midi": 75,
          "name": "D#5",
          "ticks": 18912,
          "time": 98.5,
          "velocity": 0.8661417322834646
        },
        {
          "duration": 0.6666666666666714,
          "durationTicks": 128,
          "midi": 77,
          "name": "F5",
          "ticks": 18960,
          "time": 98.75,
          "velocity": 0.8661417322834646
        },
        {
          "duration": 0.2447916666666714,
          "durationTicks": 47,
          "midi": 72,
          "name": "C5",
          "ticks": 19104,
          "time": 99.5,
          "velocity": 0.8661417322834646
        },
        {
          "duration": 0.1197916666666714,
          "durationTicks": 23,
          "midi": 70,
          "name": "A#4",
          "ticks": 19152,
          "time": 99.75,
          "velocity": 0.8661417322834646
        },
        {
          "duration": 0.4947916666666714,
          "durationTicks": 95,
          "midi": 72,
          "name": "C5",
          "ticks": 19176,
          "time": 99.875,
          "velocity": 0.8661417322834646
        },
        {
          "duration": 0.1197916666666714,
          "durationTicks": 23,
          "midi": 70,
          "name": "A#4",
          "ticks": 19272,
          "time": 100.375,
          "velocity": 0.8661417322834646
        },
        {
          "duration": 0.2447916666666714,
          "durationTicks": 47,
          "midi": 67,
          "name": "G4",
          "ticks": 19296,
          "time": 100.5,
          "velocity": 0.8661417322834646
        },
        {
          "duration": 0.2447916666666714,
          "durationTicks": 47,
          "midi": 70,
          "name": "A#4",
          "ticks": 19344,
          "time": 100.75,
          "velocity": 0.8661417322834646
        },
        {
          "duration": 0.3697916666666714,
          "durationTicks": 71,
          "midi": 72,
          "name": "C5",
          "ticks": 19392,
          "time": 101,
          "velocity": 0.8661417322834646
        },
        {
          "duration": 0.1197916666666714,
          "durationTicks": 23,
          "midi": 70,
          "name": "A#4",
          "ticks": 19464,
          "time": 101.375,
          "velocity": 0.8661417322834646
        },
        {
          "duration": 0.7447916666666714,
          "durationTicks": 143,
          "midi": 68,
          "name": "G#4",
          "ticks": 19488,
          "time": 101.5,
          "velocity": 0.8661417322834646
        },
        {
          "duration": 0.2447916666666714,
          "durationTicks": 47,
          "midi": 72,
          "name": "C5",
          "ticks": 19632,
          "time": 102.25,
          "velocity": 0.8661417322834646
        },
        {
          "duration": 0.2447916666666714,
          "durationTicks": 47,
          "midi": 74,
          "name": "D5",
          "ticks": 19680,
          "time": 102.5,
          "velocity": 0.8661417322834646
        },
        {
          "duration": 0.2447916666666714,
          "durationTicks": 47,
          "midi": 77,
          "name": "F5",
          "ticks": 19728,
          "time": 102.75,
          "velocity": 0.8661417322834646
        },
        {
          "duration": 0.4166666666666714,
          "durationTicks": 80,
          "midi": 75,
          "name": "D#5",
          "ticks": 19776,
          "time": 103,
          "velocity": 0.8661417322834646
        },
        {
          "duration": 0.4166666666666714,
          "durationTicks": 80,
          "midi": 72,
          "name": "C5",
          "ticks": 19872,
          "time": 103.5,
          "velocity": 0.8661417322834646
        },
        {
          "duration": 0.2447916666666714,
          "durationTicks": 47,
          "midi": 75,
          "name": "D#5",
          "ticks": 20016,
          "time": 104.25,
          "velocity": 0.8661417322834646
        },
        {
          "duration": 0.2447916666666714,
          "durationTicks": 47,
          "midi": 75,
          "name": "D#5",
          "ticks": 20064,
          "time": 104.5,
          "velocity": 0.8661417322834646
        },
        {
          "duration": 0.2447916666666714,
          "durationTicks": 47,
          "midi": 77,
          "name": "F5",
          "ticks": 20112,
          "time": 104.75,
          "velocity": 0.8661417322834646
        },
        {
          "duration": 0.4166666666666714,
          "durationTicks": 80,
          "midi": 79,
          "name": "G5",
          "ticks": 20160,
          "time": 105,
          "velocity": 0.8661417322834646
        },
        {
          "duration": 0.2447916666666714,
          "durationTicks": 47,
          "midi": 79,
          "name": "G5",
          "ticks": 20256,
          "time": 105.5,
          "velocity": 0.8661417322834646
        },
        {
          "duration": 0.2447916666666714,
          "durationTicks": 47,
          "midi": 79,
          "name": "G5",
          "ticks": 20304,
          "time": 105.75,
          "velocity": 0.8661417322834646
        },
        {
          "duration": 0.4166666666666714,
          "durationTicks": 80,
          "midi": 82,
          "name": "A#5",
          "ticks": 20352,
          "time": 106,
          "velocity": 0.8661417322834646
        },
        {
          "duration": 0.2447916666666714,
          "durationTicks": 47,
          "midi": 75,
          "name": "D#5",
          "ticks": 20448,
          "time": 106.5,
          "velocity": 0.8661417322834646
        },
        {
          "duration": 0.2447916666666714,
          "durationTicks": 47,
          "midi": 79,
          "name": "G5",
          "ticks": 20496,
          "time": 106.75,
          "velocity": 0.8661417322834646
        },
        {
          "duration": 0.3697916666666714,
          "durationTicks": 71,
          "midi": 77,
          "name": "F5",
          "ticks": 20544,
          "time": 107,
          "velocity": 0.8661417322834646
        },
        {
          "duration": 0.3697916666666714,
          "durationTicks": 71,
          "midi": 77,
          "name": "F5",
          "ticks": 20616,
          "time": 107.375,
          "velocity": 0.8661417322834646
        },
        {
          "duration": 0.1197916666666714,
          "durationTicks": 23,
          "midi": 75,
          "name": "D#5",
          "ticks": 20688,
          "time": 107.75,
          "velocity": 0.8661417322834646
        },
        {
          "duration": 0.2447916666666714,
          "durationTicks": 47,
          "midi": 74,
          "name": "D5",
          "ticks": 20712,
          "time": 107.875,
          "velocity": 0.8661417322834646
        },
        {
          "duration": 0.1197916666666714,
          "durationTicks": 23,
          "midi": 72,
          "name": "C5",
          "ticks": 20760,
          "time": 108.125,
          "velocity": 0.8661417322834646
        },
        {
          "duration": 0.2447916666666714,
          "durationTicks": 47,
          "midi": 74,
          "name": "D5",
          "ticks": 20784,
          "time": 108.25,
          "velocity": 0.8661417322834646
        },
        {
          "duration": 0.9166666666666714,
          "durationTicks": 176,
          "midi": 72,
          "name": "C5",
          "ticks": 20832,
          "time": 108.5,
          "velocity": 0.8661417322834646
        },
        {
          "duration": 0.4166666666666714,
          "durationTicks": 80,
          "midi": 79,
          "name": "G5",
          "ticks": 21216,
          "time": 110.5,
          "velocity": 0.8661417322834646
        },
        {
          "duration": 0.4166666666666714,
          "durationTicks": 80,
          "midi": 82,
          "name": "A#5",
          "ticks": 21312,
          "time": 111,
          "velocity": 0.8661417322834646
        },
        {
          "duration": 0.2447916666666714,
          "durationTicks": 47,
          "midi": 77,
          "name": "F5",
          "ticks": 21600,
          "time": 112.5,
          "velocity": 0.8661417322834646
        },
        {
          "duration": 0.2447916666666714,
          "durationTicks": 47,
          "midi": 74,
          "name": "D5",
          "ticks": 21648,
          "time": 112.75,
          "velocity": 0.8661417322834646
        },
        {
          "duration": 0.2447916666666714,
          "durationTicks": 47,
          "midi": 74,
          "name": "D5",
          "ticks": 21696,
          "time": 113,
          "velocity": 0.8661417322834646
        },
        {
          "duration": 0.1197916666666714,
          "durationTicks": 23,
          "midi": 75,
          "name": "D#5",
          "ticks": 21744,
          "time": 113.25,
          "velocity": 0.8661417322834646
        },
        {
          "duration": 0.1197916666666714,
          "durationTicks": 23,
          "midi": 74,
          "name": "D5",
          "ticks": 21768,
          "time": 113.375,
          "velocity": 0.8661417322834646
        },
        {
          "duration": 0.7447916666666714,
          "durationTicks": 143,
          "midi": 72,
          "name": "C5",
          "ticks": 21792,
          "time": 113.5,
          "velocity": 0.8661417322834646
        },
        {
          "duration": 0.1197916666666714,
          "durationTicks": 23,
          "midi": 70,
          "name": "A#4",
          "ticks": 21936,
          "time": 114.25,
          "velocity": 0.8661417322834646
        },
        {
          "duration": 0.1197916666666714,
          "durationTicks": 23,
          "midi": 67,
          "name": "G4",
          "ticks": 21960,
          "time": 114.375,
          "velocity": 0.8661417322834646
        },
        {
          "duration": 0.2447916666666714,
          "durationTicks": 47,
          "midi": 72,
          "name": "C5",
          "ticks": 22320,
          "time": 116.25,
          "velocity": 0.8661417322834646
        },
        {
          "duration": 0.2447916666666714,
          "durationTicks": 47,
          "midi": 75,
          "name": "D#5",
          "ticks": 22368,
          "time": 116.5,
          "velocity": 0.8661417322834646
        },
        {
          "duration": 0.2447916666666714,
          "durationTicks": 47,
          "midi": 77,
          "name": "F5",
          "ticks": 22416,
          "time": 116.75,
          "velocity": 0.8661417322834646
        },
        {
          "duration": 0.4166666666666714,
          "durationTicks": 80,
          "midi": 79,
          "name": "G5",
          "ticks": 22464,
          "time": 117,
          "velocity": 0.8661417322834646
        },
        {
          "duration": 0.4166666666666714,
          "durationTicks": 80,
          "midi": 79,
          "name": "G5",
          "ticks": 22560,
          "time": 117.5,
          "velocity": 0.8661417322834646
        },
        {
          "duration": 0.3697916666666714,
          "durationTicks": 71,
          "midi": 80,
          "name": "G#5",
          "ticks": 22656,
          "time": 118,
          "velocity": 0.8661417322834646
        },
        {
          "duration": 0.3697916666666714,
          "durationTicks": 71,
          "midi": 80,
          "name": "G#5",
          "ticks": 22728,
          "time": 118.375,
          "velocity": 0.8661417322834646
        },
        {
          "duration": 0.4947916666666714,
          "durationTicks": 95,
          "midi": 79,
          "name": "G5",
          "ticks": 22800,
          "time": 118.75,
          "velocity": 0.8661417322834646
        },
        {
          "duration": 0.4947916666666714,
          "durationTicks": 95,
          "midi": 79,
          "name": "G5",
          "ticks": 22896,
          "time": 119.25,
          "velocity": 0.8661417322834646
        },
        {
          "duration": 0.2447916666666714,
          "durationTicks": 47,
          "midi": 75,
          "name": "D#5",
          "ticks": 22992,
          "time": 119.75,
          "velocity": 0.8661417322834646
        },
        {
          "duration": 0.2447916666666714,
          "durationTicks": 47,
          "midi": 75,
          "name": "D#5",
          "ticks": 23040,
          "time": 120,
          "velocity": 0.8661417322834646
        },
        {
          "duration": 0.2447916666666714,
          "durationTicks": 47,
          "midi": 74,
          "name": "D5",
          "ticks": 23088,
          "time": 120.25,
          "velocity": 0.8661417322834646
        },
        {
          "duration": 0.4166666666666714,
          "durationTicks": 80,
          "midi": 74,
          "name": "D5",
          "ticks": 23136,
          "time": 120.5,
          "velocity": 0.8661417322834646
        },
        {
          "duration": 0.4166666666666714,
          "durationTicks": 80,
          "midi": 79,
          "name": "G5",
          "ticks": 23232,
          "time": 121,
          "velocity": 0.8661417322834646
        },
        {
          "duration": 0.4166666666666714,
          "durationTicks": 80,
          "midi": 79,
          "name": "G5",
          "ticks": 23328,
          "time": 121.5,
          "velocity": 0.8661417322834646
        },
        {
          "duration": 0.3697916666666714,
          "durationTicks": 71,
          "midi": 80,
          "name": "G#5",
          "ticks": 23424,
          "time": 122,
          "velocity": 0.8661417322834646
        },
        {
          "duration": 0.3697916666666714,
          "durationTicks": 71,
          "midi": 80,
          "name": "G#5",
          "ticks": 23496,
          "time": 122.375,
          "velocity": 0.8661417322834646
        },
        {
          "duration": 0.4947916666666714,
          "durationTicks": 95,
          "midi": 79,
          "name": "G5",
          "ticks": 23568,
          "time": 122.75,
          "velocity": 0.8661417322834646
        },
        {
          "duration": 0.4947916666666714,
          "durationTicks": 95,
          "midi": 79,
          "name": "G5",
          "ticks": 23664,
          "time": 123.25,
          "velocity": 0.8661417322834646
        },
        {
          "duration": 0.2447916666666714,
          "durationTicks": 47,
          "midi": 75,
          "name": "D#5",
          "ticks": 23760,
          "time": 123.75,
          "velocity": 0.8661417322834646
        },
        {
          "duration": 0.2447916666666714,
          "durationTicks": 47,
          "midi": 75,
          "name": "D#5",
          "ticks": 23808,
          "time": 124,
          "velocity": 0.8661417322834646
        },
        {
          "duration": 0.2447916666666714,
          "durationTicks": 47,
          "midi": 74,
          "name": "D5",
          "ticks": 23856,
          "time": 124.25,
          "velocity": 0.8661417322834646
        },
        {
          "duration": 0.4166666666666714,
          "durationTicks": 80,
          "midi": 74,
          "name": "D5",
          "ticks": 23904,
          "time": 124.5,
          "velocity": 0.8661417322834646
        },
        {
          "duration": 0.4166666666666714,
          "durationTicks": 80,
          "midi": 79,
          "name": "G5",
          "ticks": 24000,
          "time": 125,
          "velocity": 0.8661417322834646
        },
        {
          "duration": 0.4166666666666714,
          "durationTicks": 80,
          "midi": 79,
          "name": "G5",
          "ticks": 24096,
          "time": 125.5,
          "velocity": 0.8661417322834646
        },
        {
          "duration": 0.3697916666666714,
          "durationTicks": 71,
          "midi": 80,
          "name": "G#5",
          "ticks": 24192,
          "time": 126,
          "velocity": 0.8661417322834646
        },
        {
          "duration": 0.3697916666666714,
          "durationTicks": 71,
          "midi": 80,
          "name": "G#5",
          "ticks": 24264,
          "time": 126.375,
          "velocity": 0.8661417322834646
        },
        {
          "duration": 0.4947916666666714,
          "durationTicks": 95,
          "midi": 79,
          "name": "G5",
          "ticks": 24336,
          "time": 126.75,
          "velocity": 0.8661417322834646
        },
        {
          "duration": 0.4947916666666714,
          "durationTicks": 95,
          "midi": 79,
          "name": "G5",
          "ticks": 24432,
          "time": 127.25,
          "velocity": 0.8661417322834646
        },
        {
          "duration": 0.2447916666666714,
          "durationTicks": 47,
          "midi": 75,
          "name": "D#5",
          "ticks": 24528,
          "time": 127.75,
          "velocity": 0.8661417322834646
        },
        {
          "duration": 0.2447916666666572,
          "durationTicks": 47,
          "midi": 75,
          "name": "D#5",
          "ticks": 24576,
          "time": 128,
          "velocity": 0.8661417322834646
        },
        {
          "duration": 0.2447916666666572,
          "durationTicks": 47,
          "midi": 74,
          "name": "D5",
          "ticks": 24624,
          "time": 128.25,
          "velocity": 0.8661417322834646
        },
        {
          "duration": 0.4166666666666572,
          "durationTicks": 80,
          "midi": 74,
          "name": "D5",
          "ticks": 24672,
          "time": 128.5,
          "velocity": 0.8661417322834646
        },
        {
          "duration": 0.3697916666666572,
          "durationTicks": 71,
          "midi": 72,
          "name": "C5",
          "ticks": 24768,
          "time": 129,
          "velocity": 0.8661417322834646
        },
        {
          "duration": 0.3697916666666572,
          "durationTicks": 71,
          "midi": 75,
          "name": "D#5",
          "ticks": 24840,
          "time": 129.375,
          "velocity": 0.8661417322834646
        },
        {
          "duration": 0.2447916666666572,
          "durationTicks": 47,
          "midi": 72,
          "name": "C5",
          "ticks": 24912,
          "time": 129.75,
          "velocity": 0.8661417322834646
        },
        {
          "duration": 0.4166666666666572,
          "durationTicks": 80,
          "midi": 75,
          "name": "D#5",
          "ticks": 24960,
          "time": 130,
          "velocity": 0.8661417322834646
        },
        {
          "duration": 0.2447916666666572,
          "durationTicks": 47,
          "midi": 70,
          "name": "A#4",
          "ticks": 25104,
          "time": 130.75,
          "velocity": 0.8661417322834646
        },
        {
          "duration": 0.2447916666666572,
          "durationTicks": 47,
          "midi": 72,
          "name": "C5",
          "ticks": 25152,
          "time": 131,
          "velocity": 0.8661417322834646
        },
        {
          "duration": 0.11979166666665719,
          "durationTicks": 23,
          "midi": 72,
          "name": "C5",
          "ticks": 25200,
          "time": 131.25,
          "velocity": 0.8661417322834646
        },
        {
          "duration": 0.2447916666666572,
          "durationTicks": 47,
          "midi": 75,
          "name": "D#5",
          "ticks": 25224,
          "time": 131.375,
          "velocity": 0.8661417322834646
        },
        {
          "duration": 0.11979166666665719,
          "durationTicks": 23,
          "midi": 75,
          "name": "D#5",
          "ticks": 25272,
          "time": 131.625,
          "velocity": 0.8661417322834646
        },
        {
          "duration": 0.2447916666666572,
          "durationTicks": 47,
          "midi": 79,
          "name": "G5",
          "ticks": 25296,
          "time": 131.75,
          "velocity": 0.8661417322834646
        },
        {
          "duration": 0.2447916666666572,
          "durationTicks": 47,
          "midi": 77,
          "name": "F5",
          "ticks": 25344,
          "time": 132,
          "velocity": 0.8661417322834646
        },
        {
          "duration": 0.4947916666666572,
          "durationTicks": 95,
          "midi": 75,
          "name": "D#5",
          "ticks": 25392,
          "time": 132.25,
          "velocity": 0.8661417322834646
        },
        {
          "duration": 0.2447916666666572,
          "durationTicks": 47,
          "midi": 74,
          "name": "D5",
          "ticks": 25488,
          "time": 132.75,
          "velocity": 0.8661417322834646
        },
        {
          "duration": 0.3697916666666572,
          "durationTicks": 71,
          "midi": 72,
          "name": "C5",
          "ticks": 25536,
          "time": 133,
          "velocity": 0.8661417322834646
        },
        {
          "duration": 0.3697916666666572,
          "durationTicks": 71,
          "midi": 75,
          "name": "D#5",
          "ticks": 25608,
          "time": 133.375,
          "velocity": 0.8661417322834646
        },
        {
          "duration": 0.2447916666666572,
          "durationTicks": 47,
          "midi": 72,
          "name": "C5",
          "ticks": 25680,
          "time": 133.75,
          "velocity": 0.8661417322834646
        },
        {
          "duration": 0.4166666666666572,
          "durationTicks": 80,
          "midi": 75,
          "name": "D#5",
          "ticks": 25728,
          "time": 134,
          "velocity": 0.8661417322834646
        },
        {
          "duration": 0.2447916666666572,
          "durationTicks": 47,
          "midi": 75,
          "name": "D#5",
          "ticks": 25824,
          "time": 134.5,
          "velocity": 0.8661417322834646
        },
        {
          "duration": 0.11979166666665719,
          "durationTicks": 23,
          "midi": 77,
          "name": "F5",
          "ticks": 25872,
          "time": 134.75,
          "velocity": 0.8661417322834646
        },
        {
          "duration": 0.11979166666665719,
          "durationTicks": 23,
          "midi": 72,
          "name": "C5",
          "ticks": 25896,
          "time": 134.875,
          "velocity": 0.8661417322834646
        },
        {
          "duration": 0.2447916666666572,
          "durationTicks": 47,
          "midi": 79,
          "name": "G5",
          "ticks": 25920,
          "time": 135,
          "velocity": 0.8661417322834646
        },
        {
          "duration": 0.11979166666665719,
          "durationTicks": 23,
          "midi": 79,
          "name": "G5",
          "ticks": 25968,
          "time": 135.25,
          "velocity": 0.8661417322834646
        },
        {
          "duration": 0.2447916666666572,
          "durationTicks": 47,
          "midi": 79,
          "name": "G5",
          "ticks": 25992,
          "time": 135.375,
          "velocity": 0.8661417322834646
        },
        {
          "duration": 0.11979166666665719,
          "durationTicks": 23,
          "midi": 79,
          "name": "G5",
          "ticks": 26040,
          "time": 135.625,
          "velocity": 0.8661417322834646
        },
        {
          "duration": 0.2447916666666572,
          "durationTicks": 47,
          "midi": 75,
          "name": "D#5",
          "ticks": 26064,
          "time": 135.75,
          "velocity": 0.8661417322834646
        },
        {
          "duration": 0.2447916666666572,
          "durationTicks": 47,
          "midi": 77,
          "name": "F5",
          "ticks": 26112,
          "time": 136,
          "velocity": 0.8661417322834646
        },
        {
          "duration": 0.2447916666666572,
          "durationTicks": 47,
          "midi": 72,
          "name": "C5",
          "ticks": 26160,
          "time": 136.25,
          "velocity": 0.8661417322834646
        },
        {
          "duration": 0.2447916666666572,
          "durationTicks": 47,
          "midi": 75,
          "name": "D#5",
          "ticks": 26208,
          "time": 136.5,
          "velocity": 0.8661417322834646
        },
        {
          "duration": 0.2447916666666572,
          "durationTicks": 47,
          "midi": 77,
          "name": "F5",
          "ticks": 26256,
          "time": 136.75,
          "velocity": 0.8661417322834646
        },
        {
          "duration": 0.4166666666666572,
          "durationTicks": 80,
          "midi": 79,
          "name": "G5",
          "ticks": 26304,
          "time": 137,
          "velocity": 0.8661417322834646
        },
        {
          "duration": 0.4166666666666572,
          "durationTicks": 80,
          "midi": 79,
          "name": "G5",
          "ticks": 26400,
          "time": 137.5,
          "velocity": 0.8661417322834646
        },
        {
          "duration": 0.3697916666666572,
          "durationTicks": 71,
          "midi": 80,
          "name": "G#5",
          "ticks": 26496,
          "time": 138,
          "velocity": 0.8661417322834646
        },
        {
          "duration": 0.3697916666666572,
          "durationTicks": 71,
          "midi": 80,
          "name": "G#5",
          "ticks": 26568,
          "time": 138.375,
          "velocity": 0.8661417322834646
        },
        {
          "duration": 0.4947916666666572,
          "durationTicks": 95,
          "midi": 79,
          "name": "G5",
          "ticks": 26640,
          "time": 138.75,
          "velocity": 0.8661417322834646
        },
        {
          "duration": 0.4947916666666572,
          "durationTicks": 95,
          "midi": 79,
          "name": "G5",
          "ticks": 26736,
          "time": 139.25,
          "velocity": 0.8661417322834646
        },
        {
          "duration": 0.2447916666666572,
          "durationTicks": 47,
          "midi": 75,
          "name": "D#5",
          "ticks": 26832,
          "time": 139.75,
          "velocity": 0.8661417322834646
        },
        {
          "duration": 0.2447916666666572,
          "durationTicks": 47,
          "midi": 75,
          "name": "D#5",
          "ticks": 26880,
          "time": 140,
          "velocity": 0.8661417322834646
        },
        {
          "duration": 0.2447916666666572,
          "durationTicks": 47,
          "midi": 74,
          "name": "D5",
          "ticks": 26928,
          "time": 140.25,
          "velocity": 0.8661417322834646
        },
        {
          "duration": 0.4166666666666572,
          "durationTicks": 80,
          "midi": 74,
          "name": "D5",
          "ticks": 26976,
          "time": 140.5,
          "velocity": 0.8661417322834646
        },
        {
          "duration": 0.4166666666666572,
          "durationTicks": 80,
          "midi": 79,
          "name": "G5",
          "ticks": 27072,
          "time": 141,
          "velocity": 0.8661417322834646
        },
        {
          "duration": 0.4166666666666572,
          "durationTicks": 80,
          "midi": 79,
          "name": "G5",
          "ticks": 27168,
          "time": 141.5,
          "velocity": 0.8661417322834646
        },
        {
          "duration": 0.3697916666666572,
          "durationTicks": 71,
          "midi": 80,
          "name": "G#5",
          "ticks": 27264,
          "time": 142,
          "velocity": 0.8661417322834646
        },
        {
          "duration": 0.3697916666666572,
          "durationTicks": 71,
          "midi": 80,
          "name": "G#5",
          "ticks": 27336,
          "time": 142.375,
          "velocity": 0.8661417322834646
        },
        {
          "duration": 0.4947916666666572,
          "durationTicks": 95,
          "midi": 79,
          "name": "G5",
          "ticks": 27408,
          "time": 142.75,
          "velocity": 0.8661417322834646
        },
        {
          "duration": 0.4947916666666572,
          "durationTicks": 95,
          "midi": 79,
          "name": "G5",
          "ticks": 27504,
          "time": 143.25,
          "velocity": 0.8661417322834646
        },
        {
          "duration": 0.2447916666666572,
          "durationTicks": 47,
          "midi": 75,
          "name": "D#5",
          "ticks": 27600,
          "time": 143.75,
          "velocity": 0.8661417322834646
        },
        {
          "duration": 0.2447916666666572,
          "durationTicks": 47,
          "midi": 75,
          "name": "D#5",
          "ticks": 27648,
          "time": 144,
          "velocity": 0.8661417322834646
        },
        {
          "duration": 0.2447916666666572,
          "durationTicks": 47,
          "midi": 74,
          "name": "D5",
          "ticks": 27696,
          "time": 144.25,
          "velocity": 0.8661417322834646
        },
        {
          "duration": 0.4166666666666572,
          "durationTicks": 80,
          "midi": 74,
          "name": "D5",
          "ticks": 27744,
          "time": 144.5,
          "velocity": 0.8661417322834646
        },
        {
          "duration": 0.4166666666666572,
          "durationTicks": 80,
          "midi": 79,
          "name": "G5",
          "ticks": 27840,
          "time": 145,
          "velocity": 0.8661417322834646
        },
        {
          "duration": 0.4166666666666572,
          "durationTicks": 80,
          "midi": 79,
          "name": "G5",
          "ticks": 27936,
          "time": 145.5,
          "velocity": 0.8661417322834646
        },
        {
          "duration": 0.3697916666666572,
          "durationTicks": 71,
          "midi": 80,
          "name": "G#5",
          "ticks": 28032,
          "time": 146,
          "velocity": 0.8661417322834646
        },
        {
          "duration": 0.3697916666666572,
          "durationTicks": 71,
          "midi": 80,
          "name": "G#5",
          "ticks": 28104,
          "time": 146.375,
          "velocity": 0.8661417322834646
        },
        {
          "duration": 0.4947916666666572,
          "durationTicks": 95,
          "midi": 79,
          "name": "G5",
          "ticks": 28176,
          "time": 146.75,
          "velocity": 0.8661417322834646
        },
        {
          "duration": 0.4947916666666572,
          "durationTicks": 95,
          "midi": 79,
          "name": "G5",
          "ticks": 28272,
          "time": 147.25,
          "velocity": 0.8661417322834646
        },
        {
          "duration": 0.2447916666666572,
          "durationTicks": 47,
          "midi": 75,
          "name": "D#5",
          "ticks": 28368,
          "time": 147.75,
          "velocity": 0.8661417322834646
        },
        {
          "duration": 0.2447916666666572,
          "durationTicks": 47,
          "midi": 75,
          "name": "D#5",
          "ticks": 28416,
          "time": 148,
          "velocity": 0.8661417322834646
        },
        {
          "duration": 0.2447916666666572,
          "durationTicks": 47,
          "midi": 74,
          "name": "D5",
          "ticks": 28464,
          "time": 148.25,
          "velocity": 0.8661417322834646
        },
        {
          "duration": 0.4166666666666572,
          "durationTicks": 80,
          "midi": 74,
          "name": "D5",
          "ticks": 28512,
          "time": 148.5,
          "velocity": 0.8661417322834646
        },
        {
          "duration": 0.3697916666666572,
          "durationTicks": 71,
          "midi": 72,
          "name": "C5",
          "ticks": 28608,
          "time": 149,
          "velocity": 0.8661417322834646
        },
        {
          "duration": 0.3697916666666572,
          "durationTicks": 71,
          "midi": 75,
          "name": "D#5",
          "ticks": 28680,
          "time": 149.375,
          "velocity": 0.8661417322834646
        },
        {
          "duration": 0.2447916666666572,
          "durationTicks": 47,
          "midi": 72,
          "name": "C5",
          "ticks": 28752,
          "time": 149.75,
          "velocity": 0.8661417322834646
        },
        {
          "duration": 0.4166666666666572,
          "durationTicks": 80,
          "midi": 75,
          "name": "D#5",
          "ticks": 28800,
          "time": 150,
          "velocity": 0.8661417322834646
        },
        {
          "duration": 0.2447916666666572,
          "durationTicks": 47,
          "midi": 75,
          "name": "D#5",
          "ticks": 28896,
          "time": 150.5,
          "velocity": 0.8661417322834646
        },
        {
          "duration": 0.2447916666666572,
          "durationTicks": 47,
          "midi": 70,
          "name": "A#4",
          "ticks": 28944,
          "time": 150.75,
          "velocity": 0.8661417322834646
        },
        {
          "duration": 0.2447916666666572,
          "durationTicks": 47,
          "midi": 72,
          "name": "C5",
          "ticks": 28992,
          "time": 151,
          "velocity": 0.8661417322834646
        },
        {
          "duration": 0.11979166666665719,
          "durationTicks": 23,
          "midi": 72,
          "name": "C5",
          "ticks": 29040,
          "time": 151.25,
          "velocity": 0.8661417322834646
        },
        {
          "duration": 0.2447916666666572,
          "durationTicks": 47,
          "midi": 75,
          "name": "D#5",
          "ticks": 29064,
          "time": 151.375,
          "velocity": 0.8661417322834646
        },
        {
          "duration": 0.11979166666665719,
          "durationTicks": 23,
          "midi": 75,
          "name": "D#5",
          "ticks": 29112,
          "time": 151.625,
          "velocity": 0.8661417322834646
        },
        {
          "duration": 0.2447916666666572,
          "durationTicks": 47,
          "midi": 79,
          "name": "G5",
          "ticks": 29136,
          "time": 151.75,
          "velocity": 0.8661417322834646
        },
        {
          "duration": 0.2447916666666572,
          "durationTicks": 47,
          "midi": 77,
          "name": "F5",
          "ticks": 29184,
          "time": 152,
          "velocity": 0.8661417322834646
        },
        {
          "duration": 0.4947916666666572,
          "durationTicks": 95,
          "midi": 75,
          "name": "D#5",
          "ticks": 29232,
          "time": 152.25,
          "velocity": 0.8661417322834646
        },
        {
          "duration": 0.2447916666666572,
          "durationTicks": 47,
          "midi": 74,
          "name": "D5",
          "ticks": 29328,
          "time": 152.75,
          "velocity": 0.8661417322834646
        },
        {
          "duration": 0.3697916666666572,
          "durationTicks": 71,
          "midi": 72,
          "name": "C5",
          "ticks": 29376,
          "time": 153,
          "velocity": 0.8661417322834646
        },
        {
          "duration": 0.3697916666666572,
          "durationTicks": 71,
          "midi": 75,
          "name": "D#5",
          "ticks": 29448,
          "time": 153.375,
          "velocity": 0.8661417322834646
        },
        {
          "duration": 0.2447916666666572,
          "durationTicks": 47,
          "midi": 72,
          "name": "C5",
          "ticks": 29520,
          "time": 153.75,
          "velocity": 0.8661417322834646
        },
        {
          "duration": 0.4166666666666572,
          "durationTicks": 80,
          "midi": 75,
          "name": "D#5",
          "ticks": 29568,
          "time": 154,
          "velocity": 0.8661417322834646
        },
        {
          "duration": 0.2447916666666572,
          "durationTicks": 47,
          "midi": 70,
          "name": "A#4",
          "ticks": 29664,
          "time": 154.5,
          "velocity": 0.8661417322834646
        },
        {
          "duration": 0.11979166666665719,
          "durationTicks": 23,
          "midi": 72,
          "name": "C5",
          "ticks": 29712,
          "time": 154.75,
          "velocity": 0.8661417322834646
        },
        {
          "duration": 0.11979166666665719,
          "durationTicks": 23,
          "midi": 72,
          "name": "C5",
          "ticks": 29736,
          "time": 154.875,
          "velocity": 0.8661417322834646
        },
        {
          "duration": 0.2447916666666572,
          "durationTicks": 47,
          "midi": 79,
          "name": "G5",
          "ticks": 29760,
          "time": 155,
          "velocity": 0.8661417322834646
        },
        {
          "duration": 0.11979166666665719,
          "durationTicks": 23,
          "midi": 79,
          "name": "G5",
          "ticks": 29808,
          "time": 155.25,
          "velocity": 0.8661417322834646
        },
        {
          "duration": 0.2447916666666572,
          "durationTicks": 47,
          "midi": 79,
          "name": "G5",
          "ticks": 29832,
          "time": 155.375,
          "velocity": 0.8661417322834646
        },
        {
          "duration": 0.11979166666665719,
          "durationTicks": 23,
          "midi": 79,
          "name": "G5",
          "ticks": 29880,
          "time": 155.625,
          "velocity": 0.8661417322834646
        },
        {
          "duration": 0.2447916666666572,
          "durationTicks": 47,
          "midi": 75,
          "name": "D#5",
          "ticks": 29904,
          "time": 155.75,
          "velocity": 0.8661417322834646
        },
        {
          "duration": 0.875,
          "durationTicks": 168,
          "midi": 77,
          "name": "F5",
          "ticks": 29952,
          "time": 156,
          "velocity": 0.8661417322834646
        },
        {
          "duration": 0.875,
          "durationTicks": 168,
          "midi": 79,
          "name": "G5",
          "ticks": 30144,
          "time": 157,
          "velocity": 0.8661417322834646
        },
        {
          "duration": 0.875,
          "durationTicks": 168,
          "midi": 80,
          "name": "G#5",
          "ticks": 30336,
          "time": 158,
          "velocity": 0.8661417322834646
        },
        {
          "duration": 1.875,
          "durationTicks": 360,
          "midi": 79,
          "name": "G5",
          "ticks": 30528,
          "time": 159,
          "velocity": 0.8661417322834646
        },
        {
          "duration": 0.875,
          "durationTicks": 168,
          "midi": 79,
          "name": "G5",
          "ticks": 30912,
          "time": 161,
          "velocity": 0.8661417322834646
        },
        {
          "duration": 0.875,
          "durationTicks": 168,
          "midi": 80,
          "name": "G#5",
          "ticks": 31104,
          "time": 162,
          "velocity": 0.8661417322834646
        },
        {
          "duration": 1.875,
          "durationTicks": 360,
          "midi": 79,
          "name": "G5",
          "ticks": 31296,
          "time": 163,
          "velocity": 0.8661417322834646
        },
        {
          "duration": 0.875,
          "durationTicks": 168,
          "midi": 79,
          "name": "G5",
          "ticks": 31680,
          "time": 165,
          "velocity": 0.8661417322834646
        },
        {
          "duration": 0.875,
          "durationTicks": 168,
          "midi": 80,
          "name": "G#5",
          "ticks": 31872,
          "time": 166,
          "velocity": 0.8661417322834646
        },
        {
          "duration": 1.875,
          "durationTicks": 360,
          "midi": 79,
          "name": "G5",
          "ticks": 32064,
          "time": 167,
          "velocity": 0.8661417322834646
        },
        {
          "duration": 0.3697916666666572,
          "durationTicks": 71,
          "midi": 75,
          "name": "D#5",
          "ticks": 32448,
          "time": 169,
          "velocity": 0.8661417322834646
        },
        {
          "duration": 0.3697916666666572,
          "durationTicks": 71,
          "midi": 75,
          "name": "D#5",
          "ticks": 32520,
          "time": 169.375,
          "velocity": 0.8661417322834646
        },
        {
          "duration": 0.2447916666666572,
          "durationTicks": 47,
          "midi": 74,
          "name": "D5",
          "ticks": 32592,
          "time": 169.75,
          "velocity": 0.8661417322834646
        },
        {
          "duration": 0.3697916666666572,
          "durationTicks": 71,
          "midi": 75,
          "name": "D#5",
          "ticks": 32640,
          "time": 170,
          "velocity": 0.8661417322834646
        },
        {
          "duration": 0.3697916666666572,
          "durationTicks": 71,
          "midi": 75,
          "name": "D#5",
          "ticks": 32712,
          "time": 170.375,
          "velocity": 0.8661417322834646
        },
        {
          "duration": 0.2447916666666572,
          "durationTicks": 47,
          "midi": 74,
          "name": "D5",
          "ticks": 32784,
          "time": 170.75,
          "velocity": 0.8661417322834646
        },
        {
          "duration": 0.2447916666666572,
          "durationTicks": 47,
          "midi": 75,
          "name": "D#5",
          "ticks": 32832,
          "time": 171,
          "velocity": 0.8661417322834646
        },
        {
          "duration": 0.11979166666665719,
          "durationTicks": 23,
          "midi": 75,
          "name": "D#5",
          "ticks": 32880,
          "time": 171.25,
          "velocity": 0.8661417322834646
        },
        {
          "duration": 0.2447916666666572,
          "durationTicks": 47,
          "midi": 75,
          "name": "D#5",
          "ticks": 32904,
          "time": 171.375,
          "velocity": 0.8661417322834646
        },
        {
          "duration": 0.11979166666665719,
          "durationTicks": 23,
          "midi": 75,
          "name": "D#5",
          "ticks": 32952,
          "time": 171.625,
          "velocity": 0.8661417322834646
        },
        {
          "duration": 0.2447916666666572,
          "durationTicks": 47,
          "midi": 75,
          "name": "D#5",
          "ticks": 32976,
          "time": 171.75,
          "velocity": 0.8661417322834646
        },
        {
          "duration": 0.875,
          "durationTicks": 168,
          "midi": 82,
          "name": "A#5",
          "ticks": 33024,
          "time": 172,
          "velocity": 0.8661417322834646
        },
        {
          "duration": 0.3697916666666572,
          "durationTicks": 71,
          "midi": 75,
          "name": "D#5",
          "ticks": 33216,
          "time": 173,
          "velocity": 0.8661417322834646
        },
        {
          "duration": 0.3697916666666572,
          "durationTicks": 71,
          "midi": 75,
          "name": "D#5",
          "ticks": 33288,
          "time": 173.375,
          "velocity": 0.8661417322834646
        },
        {
          "duration": 0.2447916666666572,
          "durationTicks": 47,
          "midi": 74,
          "name": "D5",
          "ticks": 33360,
          "time": 173.75,
          "velocity": 0.8661417322834646
        },
        {
          "duration": 0.3697916666666572,
          "durationTicks": 71,
          "midi": 75,
          "name": "D#5",
          "ticks": 33408,
          "time": 174,
          "velocity": 0.8661417322834646
        },
        {
          "duration": 0.3697916666666572,
          "durationTicks": 71,
          "midi": 75,
          "name": "D#5",
          "ticks": 33480,
          "time": 174.375,
          "velocity": 0.8661417322834646
        },
        {
          "duration": 0.2447916666666572,
          "durationTicks": 47,
          "midi": 74,
          "name": "D5",
          "ticks": 33552,
          "time": 174.75,
          "velocity": 0.8661417322834646
        },
        {
          "duration": 0.2447916666666572,
          "durationTicks": 47,
          "midi": 75,
          "name": "D#5",
          "ticks": 33600,
          "time": 175,
          "velocity": 0.8661417322834646
        },
        {
          "duration": 0.11979166666665719,
          "durationTicks": 23,
          "midi": 75,
          "name": "D#5",
          "ticks": 33648,
          "time": 175.25,
          "velocity": 0.8661417322834646
        },
        {
          "duration": 0.2447916666666572,
          "durationTicks": 47,
          "midi": 75,
          "name": "D#5",
          "ticks": 33672,
          "time": 175.375,
          "velocity": 0.8661417322834646
        },
        {
          "duration": 0.11979166666665719,
          "durationTicks": 23,
          "midi": 75,
          "name": "D#5",
          "ticks": 33720,
          "time": 175.625,
          "velocity": 0.8661417322834646
        },
        {
          "duration": 0.2447916666666572,
          "durationTicks": 47,
          "midi": 75,
          "name": "D#5",
          "ticks": 33744,
          "time": 175.75,
          "velocity": 0.8661417322834646
        },
        {
          "duration": 0.875,
          "durationTicks": 168,
          "midi": 82,
          "name": "A#5",
          "ticks": 33792,
          "time": 176,
          "velocity": 0.8661417322834646
        }
      ]
    },
    {
      "channel": 0,
      "controlChanges": {
        "6": [
          {
            "number": 6,
            "ticks": 0,
            "time": 0,
            "value": 0.09448818897637795
          },
          {
            "number": 6,
            "ticks": 0,
            "time": 0,
            "value": 0.09448818897637795
          },
          {
            "number": 6,
            "ticks": 0,
            "time": 0,
            "value": 0.09448818897637795
          }
        ],
        "7": [
          {
            "number": 7,
            "ticks": 0,
            "time": 0,
            "value": 1
          },
          {
            "number": 7,
            "ticks": 0,
            "time": 0,
            "value": 1
          },
          {
            "number": 7,
            "ticks": 0,
            "time": 0,
            "value": 1
          },
          {
            "number": 7,
            "ticks": 0,
            "time": 0,
            "value": 1
          },
          {
            "number": 7,
            "ticks": 0,
            "time": 0,
            "value": 1
          },
          {
            "number": 7,
            "ticks": 0,
            "time": 0,
            "value": 1
          }
        ],
        "10": [
          {
            "number": 10,
            "ticks": 0,
            "time": 0,
            "value": 0.5039370078740157
          },
          {
            "number": 10,
            "ticks": 0,
            "time": 0,
            "value": 0.5039370078740157
          },
          {
            "number": 10,
            "ticks": 0,
            "time": 0,
            "value": 0.5039370078740157
          },
          {
            "number": 10,
            "ticks": 0,
            "time": 0,
            "value": 0.5039370078740157
          },
          {
            "number": 10,
            "ticks": 0,
            "time": 0,
            "value": 0.5039370078740157
          },
          {
            "number": 10,
            "ticks": 0,
            "time": 0,
            "value": 0.5039370078740157
          }
        ],
        "100": [
          {
            "number": 100,
            "ticks": 0,
            "time": 0,
            "value": 0
          },
          {
            "number": 100,
            "ticks": 0,
            "time": 0,
            "value": 0
          },
          {
            "number": 100,
            "ticks": 0,
            "time": 0,
            "value": 0
          }
        ],
        "101": [
          {
            "number": 101,
            "ticks": 0,
            "time": 0,
            "value": 0
          },
          {
            "number": 101,
            "ticks": 0,
            "time": 0,
            "value": 0
          },
          {
            "number": 101,
            "ticks": 0,
            "time": 0,
            "value": 0
          }
        ]
      },
      "pitchBends": [
        {
          "ticks": 0,
          "time": 0,
          "value": 0
        },
        {
          "ticks": 0,
          "time": 0,
          "value": 0
        },
        {
          "ticks": 0,
          "time": 0,
          "value": 0
        },
        {
          "ticks": 0,
          "time": 0,
          "value": 0
        }
      ],
      "instrument": {
        "family": "piano",
        "number": 0,
        "name": "acoustic grand piano"
      },
      "name": "Synth Strings",
      "notes": [],
      "endOfTrackTicks": 34195
    },
    {
      "channel": 2,
      "controlChanges": {
        "6": [
          {
            "number": 6,
            "ticks": 34176,
            "time": 178,
            "value": 0.09448818897637795
          },
          {
            "number": 6,
            "ticks": 34177,
            "time": 178.00520833333334,
            "value": 0.09448818897637795
          }
        ],
        "7": [
          {
            "number": 7,
            "ticks": 34176,
            "time": 178,
            "value": 1
          },
          {
            "number": 7,
            "ticks": 34176,
            "time": 178,
            "value": 1
          },
          {
            "number": 7,
            "ticks": 34177,
            "time": 178.00520833333334,
            "value": 1
          }
        ],
        "10": [
          {
            "number": 10,
            "ticks": 34176,
            "time": 178,
            "value": 0.5039370078740157
          },
          {
            "number": 10,
            "ticks": 34176,
            "time": 178,
            "value": 0.5039370078740157
          },
          {
            "number": 10,
            "ticks": 34177,
            "time": 178.00520833333334,
            "value": 0.5039370078740157
          }
        ],
        "100": [
          {
            "number": 100,
            "ticks": 34176,
            "time": 178,
            "value": 0
          },
          {
            "number": 100,
            "ticks": 34177,
            "time": 178.00520833333334,
            "value": 0
          }
        ],
        "101": [
          {
            "number": 101,
            "ticks": 34176,
            "time": 178,
            "value": 0
          },
          {
            "number": 101,
            "ticks": 34177,
            "time": 178.00520833333334,
            "value": 0
          }
        ]
      },
      "pitchBends": [
        {
          "ticks": 34176,
          "time": 178,
          "value": 0
        },
        {
          "ticks": 34177,
          "time": 178.00520833333334,
          "value": 0
        }
      ],
      "instrument": {
        "family": "ensemble",
        "number": 50,
        "name": "synthstrings 1"
      },
      "name": "",
      "notes": [
        {
          "duration": 1,
          "durationTicks": 192,
          "midi": 60,
          "name": "C4",
          "ticks": 192,
          "time": 1,
          "velocity": 0.8661417322834646
        },
        {
          "duration": 1,
          "durationTicks": 192,
          "midi": 63,
          "name": "D#4",
          "ticks": 192,
          "time": 1,
          "velocity": 0.8661417322834646
        },
        {
          "duration": 1,
          "durationTicks": 192,
          "midi": 67,
          "name": "G4",
          "ticks": 192,
          "time": 1,
          "velocity": 0.8661417322834646
        },
        {
          "duration": 1,
          "durationTicks": 192,
          "midi": 60,
          "name": "C4",
          "ticks": 384,
          "time": 2,
          "velocity": 0.8661417322834646
        },
        {
          "duration": 1,
          "durationTicks": 192,
          "midi": 63,
          "name": "D#4",
          "ticks": 384,
          "time": 2,
          "velocity": 0.8661417322834646
        },
        {
          "duration": 1,
          "durationTicks": 192,
          "midi": 68,
          "name": "G#4",
          "ticks": 384,
          "time": 2,
          "velocity": 0.8661417322834646
        },
        {
          "duration": 1,
          "durationTicks": 192,
          "midi": 58,
          "name": "A#3",
          "ticks": 576,
          "time": 3,
          "velocity": 0.8661417322834646
        },
        {
          "duration": 1,
          "durationTicks": 192,
          "midi": 63,
          "name": "D#4",
          "ticks": 576,
          "time": 3,
          "velocity": 0.8661417322834646
        },
        {
          "duration": 1,
          "durationTicks": 192,
          "midi": 67,
          "name": "G4",
          "ticks": 576,
          "time": 3,
          "velocity": 0.8661417322834646
        },
        {
          "duration": 1,
          "durationTicks": 192,
          "midi": 58,
          "name": "A#3",
          "ticks": 768,
          "time": 4,
          "velocity": 0.8661417322834646
        },
        {
          "duration": 1,
          "durationTicks": 192,
          "midi": 62,
          "name": "D4",
          "ticks": 768,
          "time": 4,
          "velocity": 0.8661417322834646
        },
        {
          "duration": 1,
          "durationTicks": 192,
          "midi": 65,
          "name": "F4",
          "ticks": 768,
          "time": 4,
          "velocity": 0.8661417322834646
        },
        {
          "duration": 1,
          "durationTicks": 192,
          "midi": 60,
          "name": "C4",
          "ticks": 960,
          "time": 5,
          "velocity": 0.8661417322834646
        },
        {
          "duration": 1,
          "durationTicks": 192,
          "midi": 63,
          "name": "D#4",
          "ticks": 960,
          "time": 5,
          "velocity": 0.8661417322834646
        },
        {
          "duration": 1,
          "durationTicks": 192,
          "midi": 67,
          "name": "G4",
          "ticks": 960,
          "time": 5,
          "velocity": 0.8661417322834646
        },
        {
          "duration": 1,
          "durationTicks": 192,
          "midi": 60,
          "name": "C4",
          "ticks": 1152,
          "time": 6,
          "velocity": 0.8661417322834646
        },
        {
          "duration": 1,
          "durationTicks": 192,
          "midi": 63,
          "name": "D#4",
          "ticks": 1152,
          "time": 6,
          "velocity": 0.8661417322834646
        },
        {
          "duration": 1,
          "durationTicks": 192,
          "midi": 68,
          "name": "G#4",
          "ticks": 1152,
          "time": 6,
          "velocity": 0.8661417322834646
        },
        {
          "duration": 1,
          "durationTicks": 192,
          "midi": 58,
          "name": "A#3",
          "ticks": 1344,
          "time": 7,
          "velocity": 0.8661417322834646
        },
        {
          "duration": 1,
          "durationTicks": 192,
          "midi": 63,
          "name": "D#4",
          "ticks": 1344,
          "time": 7,
          "velocity": 0.8661417322834646
        },
        {
          "duration": 1,
          "durationTicks": 192,
          "midi": 67,
          "name": "G4",
          "ticks": 1344,
          "time": 7,
          "velocity": 0.8661417322834646
        },
        {
          "duration": 1,
          "durationTicks": 192,
          "midi": 58,
          "name": "A#3",
          "ticks": 1536,
          "time": 8,
          "velocity": 0.8661417322834646
        },
        {
          "duration": 1,
          "durationTicks": 192,
          "midi": 62,
          "name": "D4",
          "ticks": 1536,
          "time": 8,
          "velocity": 0.8661417322834646
        },
        {
          "duration": 1,
          "durationTicks": 192,
          "midi": 65,
          "name": "F4",
          "ticks": 1536,
          "time": 8,
          "velocity": 0.8661417322834646
        },
        {
          "duration": 1,
          "durationTicks": 192,
          "midi": 60,
          "name": "C4",
          "ticks": 1728,
          "time": 9,
          "velocity": 0.8661417322834646
        },
        {
          "duration": 1,
          "durationTicks": 192,
          "midi": 63,
          "name": "D#4",
          "ticks": 1728,
          "time": 9,
          "velocity": 0.8661417322834646
        },
        {
          "duration": 1,
          "durationTicks": 192,
          "midi": 67,
          "name": "G4",
          "ticks": 1728,
          "time": 9,
          "velocity": 0.8661417322834646
        },
        {
          "duration": 1,
          "durationTicks": 192,
          "midi": 60,
          "name": "C4",
          "ticks": 1920,
          "time": 10,
          "velocity": 0.8661417322834646
        },
        {
          "duration": 1,
          "durationTicks": 192,
          "midi": 63,
          "name": "D#4",
          "ticks": 1920,
          "time": 10,
          "velocity": 0.8661417322834646
        },
        {
          "duration": 1,
          "durationTicks": 192,
          "midi": 68,
          "name": "G#4",
          "ticks": 1920,
          "time": 10,
          "velocity": 0.8661417322834646
        },
        {
          "duration": 1,
          "durationTicks": 192,
          "midi": 58,
          "name": "A#3",
          "ticks": 2112,
          "time": 11,
          "velocity": 0.8661417322834646
        },
        {
          "duration": 1,
          "durationTicks": 192,
          "midi": 63,
          "name": "D#4",
          "ticks": 2112,
          "time": 11,
          "velocity": 0.8661417322834646
        },
        {
          "duration": 1,
          "durationTicks": 192,
          "midi": 67,
          "name": "G4",
          "ticks": 2112,
          "time": 11,
          "velocity": 0.8661417322834646
        },
        {
          "duration": 1,
          "durationTicks": 192,
          "midi": 58,
          "name": "A#3",
          "ticks": 2304,
          "time": 12,
          "velocity": 0.8661417322834646
        },
        {
          "duration": 1,
          "durationTicks": 192,
          "midi": 62,
          "name": "D4",
          "ticks": 2304,
          "time": 12,
          "velocity": 0.8661417322834646
        },
        {
          "duration": 1,
          "durationTicks": 192,
          "midi": 65,
          "name": "F4",
          "ticks": 2304,
          "time": 12,
          "velocity": 0.8661417322834646
        },
        {
          "duration": 1,
          "durationTicks": 192,
          "midi": 60,
          "name": "C4",
          "ticks": 2496,
          "time": 13,
          "velocity": 0.8661417322834646
        },
        {
          "duration": 1,
          "durationTicks": 192,
          "midi": 63,
          "name": "D#4",
          "ticks": 2496,
          "time": 13,
          "velocity": 0.8661417322834646
        },
        {
          "duration": 1,
          "durationTicks": 192,
          "midi": 67,
          "name": "G4",
          "ticks": 2496,
          "time": 13,
          "velocity": 0.8661417322834646
        },
        {
          "duration": 1,
          "durationTicks": 192,
          "midi": 60,
          "name": "C4",
          "ticks": 2688,
          "time": 14,
          "velocity": 0.8661417322834646
        },
        {
          "duration": 1,
          "durationTicks": 192,
          "midi": 63,
          "name": "D#4",
          "ticks": 2688,
          "time": 14,
          "velocity": 0.8661417322834646
        },
        {
          "duration": 1,
          "durationTicks": 192,
          "midi": 68,
          "name": "G#4",
          "ticks": 2688,
          "time": 14,
          "velocity": 0.8661417322834646
        },
        {
          "duration": 1,
          "durationTicks": 192,
          "midi": 58,
          "name": "A#3",
          "ticks": 2880,
          "time": 15,
          "velocity": 0.8661417322834646
        },
        {
          "duration": 1,
          "durationTicks": 192,
          "midi": 63,
          "name": "D#4",
          "ticks": 2880,
          "time": 15,
          "velocity": 0.8661417322834646
        },
        {
          "duration": 1,
          "durationTicks": 192,
          "midi": 67,
          "name": "G4",
          "ticks": 2880,
          "time": 15,
          "velocity": 0.8661417322834646
        },
        {
          "duration": 1,
          "durationTicks": 192,
          "midi": 58,
          "name": "A#3",
          "ticks": 3072,
          "time": 16,
          "velocity": 0.8661417322834646
        },
        {
          "duration": 1,
          "durationTicks": 192,
          "midi": 62,
          "name": "D4",
          "ticks": 3072,
          "time": 16,
          "velocity": 0.8661417322834646
        },
        {
          "duration": 1,
          "durationTicks": 192,
          "midi": 65,
          "name": "F4",
          "ticks": 3072,
          "time": 16,
          "velocity": 0.8661417322834646
        },
        {
          "duration": 1,
          "durationTicks": 192,
          "midi": 60,
          "name": "C4",
          "ticks": 3264,
          "time": 17,
          "velocity": 0.8661417322834646
        },
        {
          "duration": 1,
          "durationTicks": 192,
          "midi": 63,
          "name": "D#4",
          "ticks": 3264,
          "time": 17,
          "velocity": 0.8661417322834646
        },
        {
          "duration": 1,
          "durationTicks": 192,
          "midi": 67,
          "name": "G4",
          "ticks": 3264,
          "time": 17,
          "velocity": 0.8661417322834646
        },
        {
          "duration": 1,
          "durationTicks": 192,
          "midi": 60,
          "name": "C4",
          "ticks": 3456,
          "time": 18,
          "velocity": 0.8661417322834646
        },
        {
          "duration": 1,
          "durationTicks": 192,
          "midi": 63,
          "name": "D#4",
          "ticks": 3456,
          "time": 18,
          "velocity": 0.8661417322834646
        },
        {
          "duration": 1,
          "durationTicks": 192,
          "midi": 68,
          "name": "G#4",
          "ticks": 3456,
          "time": 18,
          "velocity": 0.8661417322834646
        },
        {
          "duration": 1,
          "durationTicks": 192,
          "midi": 58,
          "name": "A#3",
          "ticks": 3648,
          "time": 19,
          "velocity": 0.8661417322834646
        },
        {
          "duration": 1,
          "durationTicks": 192,
          "midi": 63,
          "name": "D#4",
          "ticks": 3648,
          "time": 19,
          "velocity": 0.8661417322834646
        },
        {
          "duration": 1,
          "durationTicks": 192,
          "midi": 67,
          "name": "G4",
          "ticks": 3648,
          "time": 19,
          "velocity": 0.8661417322834646
        },
        {
          "duration": 1,
          "durationTicks": 192,
          "midi": 58,
          "name": "A#3",
          "ticks": 3840,
          "time": 20,
          "velocity": 0.8661417322834646
        },
        {
          "duration": 1,
          "durationTicks": 192,
          "midi": 62,
          "name": "D4",
          "ticks": 3840,
          "time": 20,
          "velocity": 0.8661417322834646
        },
        {
          "duration": 1,
          "durationTicks": 192,
          "midi": 65,
          "name": "F4",
          "ticks": 3840,
          "time": 20,
          "velocity": 0.8661417322834646
        },
        {
          "duration": 0.9947916666666679,
          "durationTicks": 191,
          "midi": 55,
          "name": "G3",
          "ticks": 4032,
          "time": 21,
          "velocity": 0.8661417322834646
        },
        {
          "duration": 0.9947916666666679,
          "durationTicks": 191,
          "midi": 60,
          "name": "C4",
          "ticks": 4032,
          "time": 21,
          "velocity": 0.8661417322834646
        },
        {
          "duration": 0.9947916666666679,
          "durationTicks": 191,
          "midi": 51,
          "name": "D#3",
          "ticks": 4224,
          "time": 22,
          "velocity": 0.8661417322834646
        },
        {
          "duration": 0.9947916666666679,
          "durationTicks": 191,
          "midi": 56,
          "name": "G#3",
          "ticks": 4224,
          "time": 22,
          "velocity": 0.8661417322834646
        },
        {
          "duration": 0.9947916666666679,
          "durationTicks": 191,
          "midi": 58,
          "name": "A#3",
          "ticks": 4416,
          "time": 23,
          "velocity": 0.8661417322834646
        },
        {
          "duration": 0.9947916666666679,
          "durationTicks": 191,
          "midi": 63,
          "name": "D#4",
          "ticks": 4416,
          "time": 23,
          "velocity": 0.8661417322834646
        },
        {
          "duration": 0.9947916666666679,
          "durationTicks": 191,
          "midi": 58,
          "name": "A#3",
          "ticks": 4608,
          "time": 24,
          "velocity": 0.8661417322834646
        },
        {
          "duration": 0.9947916666666679,
          "durationTicks": 191,
          "midi": 53,
          "name": "F3",
          "ticks": 4608,
          "time": 24,
          "velocity": 0.8661417322834646
        },
        {
          "duration": 0.9947916666666679,
          "durationTicks": 191,
          "midi": 55,
          "name": "G3",
          "ticks": 4800,
          "time": 25,
          "velocity": 0.8661417322834646
        },
        {
          "duration": 0.9947916666666679,
          "durationTicks": 191,
          "midi": 60,
          "name": "C4",
          "ticks": 4800,
          "time": 25,
          "velocity": 0.8661417322834646
        },
        {
          "duration": 0.9947916666666679,
          "durationTicks": 191,
          "midi": 51,
          "name": "D#3",
          "ticks": 4992,
          "time": 26,
          "velocity": 0.8661417322834646
        },
        {
          "duration": 0.9947916666666679,
          "durationTicks": 191,
          "midi": 56,
          "name": "G#3",
          "ticks": 4992,
          "time": 26,
          "velocity": 0.8661417322834646
        },
        {
          "duration": 0.9947916666666679,
          "durationTicks": 191,
          "midi": 58,
          "name": "A#3",
          "ticks": 5184,
          "time": 27,
          "velocity": 0.8661417322834646
        },
        {
          "duration": 0.9947916666666679,
          "durationTicks": 191,
          "midi": 63,
          "name": "D#4",
          "ticks": 5184,
          "time": 27,
          "velocity": 0.8661417322834646
        },
        {
          "duration": 0.9947916666666679,
          "durationTicks": 191,
          "midi": 58,
          "name": "A#3",
          "ticks": 5376,
          "time": 28,
          "velocity": 0.8661417322834646
        },
        {
          "duration": 0.9947916666666679,
          "durationTicks": 191,
          "midi": 53,
          "name": "F3",
          "ticks": 5376,
          "time": 28,
          "velocity": 0.8661417322834646
        },
        {
          "duration": 0.9947916666666679,
          "durationTicks": 191,
          "midi": 60,
          "name": "C4",
          "ticks": 5568,
          "time": 29,
          "velocity": 0.8661417322834646
        },
        {
          "duration": 0.9947916666666679,
          "durationTicks": 191,
          "midi": 55,
          "name": "G3",
          "ticks": 5568,
          "time": 29,
          "velocity": 0.8661417322834646
        },
        {
          "duration": 0.9947916666666679,
          "durationTicks": 191,
          "midi": 51,
          "name": "D#3",
          "ticks": 5760,
          "time": 30,
          "velocity": 0.8661417322834646
        },
        {
          "duration": 0.9947916666666679,
          "durationTicks": 191,
          "midi": 56,
          "name": "G#3",
          "ticks": 5760,
          "time": 30,
          "velocity": 0.8661417322834646
        },
        {
          "duration": 0.9947916666666679,
          "durationTicks": 191,
          "midi": 63,
          "name": "D#4",
          "ticks": 5952,
          "time": 31,
          "velocity": 0.8661417322834646
        },
        {
          "duration": 0.9947916666666679,
          "durationTicks": 191,
          "midi": 58,
          "name": "A#3",
          "ticks": 5952,
          "time": 31,
          "velocity": 0.8661417322834646
        },
        {
          "duration": 0.9947916666666643,
          "durationTicks": 191,
          "midi": 58,
          "name": "A#3",
          "ticks": 6144,
          "time": 32,
          "velocity": 0.8661417322834646
        },
        {
          "duration": 0.9947916666666643,
          "durationTicks": 191,
          "midi": 53,
          "name": "F3",
          "ticks": 6144,
          "time": 32,
          "velocity": 0.8661417322834646
        },
        {
          "duration": 0.9947916666666643,
          "durationTicks": 191,
          "midi": 55,
          "name": "G3",
          "ticks": 6336,
          "time": 33,
          "velocity": 0.8661417322834646
        },
        {
          "duration": 0.9947916666666643,
          "durationTicks": 191,
          "midi": 60,
          "name": "C4",
          "ticks": 6336,
          "time": 33,
          "velocity": 0.8661417322834646
        },
        {
          "duration": 0.9947916666666643,
          "durationTicks": 191,
          "midi": 51,
          "name": "D#3",
          "ticks": 6528,
          "time": 34,
          "velocity": 0.8661417322834646
        },
        {
          "duration": 0.9947916666666643,
          "durationTicks": 191,
          "midi": 56,
          "name": "G#3",
          "ticks": 6528,
          "time": 34,
          "velocity": 0.8661417322834646
        },
        {
          "duration": 0.9947916666666643,
          "durationTicks": 191,
          "midi": 58,
          "name": "A#3",
          "ticks": 6720,
          "time": 35,
          "velocity": 0.8661417322834646
        },
        {
          "duration": 0.9947916666666643,
          "durationTicks": 191,
          "midi": 63,
          "name": "D#4",
          "ticks": 6720,
          "time": 35,
          "velocity": 0.8661417322834646
        },
        {
          "duration": 0.9947916666666643,
          "durationTicks": 191,
          "midi": 58,
          "name": "A#3",
          "ticks": 6912,
          "time": 36,
          "velocity": 0.8661417322834646
        },
        {
          "duration": 0.9947916666666643,
          "durationTicks": 191,
          "midi": 53,
          "name": "F3",
          "ticks": 6912,
          "time": 36,
          "velocity": 0.8661417322834646
        },
        {
          "duration": 1,
          "durationTicks": 192,
          "midi": 60,
          "name": "C4",
          "ticks": 7104,
          "time": 37,
          "velocity": 0.8661417322834646
        },
        {
          "duration": 1,
          "durationTicks": 192,
          "midi": 63,
          "name": "D#4",
          "ticks": 7104,
          "time": 37,
          "velocity": 0.8661417322834646
        },
        {
          "duration": 1,
          "durationTicks": 192,
          "midi": 67,
          "name": "G4",
          "ticks": 7104,
          "time": 37,
          "velocity": 0.8661417322834646
        },
        {
          "duration": 1,
          "durationTicks": 192,
          "midi": 60,
          "name": "C4",
          "ticks": 7296,
          "time": 38,
          "velocity": 0.8661417322834646
        },
        {
          "duration": 1,
          "durationTicks": 192,
          "midi": 63,
          "name": "D#4",
          "ticks": 7296,
          "time": 38,
          "velocity": 0.8661417322834646
        },
        {
          "duration": 1,
          "durationTicks": 192,
          "midi": 68,
          "name": "G#4",
          "ticks": 7296,
          "time": 38,
          "velocity": 0.8661417322834646
        },
        {
          "duration": 1,
          "durationTicks": 192,
          "midi": 58,
          "name": "A#3",
          "ticks": 7488,
          "time": 39,
          "velocity": 0.8661417322834646
        },
        {
          "duration": 1,
          "durationTicks": 192,
          "midi": 63,
          "name": "D#4",
          "ticks": 7488,
          "time": 39,
          "velocity": 0.8661417322834646
        },
        {
          "duration": 1,
          "durationTicks": 192,
          "midi": 67,
          "name": "G4",
          "ticks": 7488,
          "time": 39,
          "velocity": 0.8661417322834646
        },
        {
          "duration": 1,
          "durationTicks": 192,
          "midi": 58,
          "name": "A#3",
          "ticks": 7680,
          "time": 40,
          "velocity": 0.8661417322834646
        },
        {
          "duration": 1,
          "durationTicks": 192,
          "midi": 62,
          "name": "D4",
          "ticks": 7680,
          "time": 40,
          "velocity": 0.8661417322834646
        },
        {
          "duration": 1,
          "durationTicks": 192,
          "midi": 65,
          "name": "F4",
          "ticks": 7680,
          "time": 40,
          "velocity": 0.8661417322834646
        },
        {
          "duration": 1,
          "durationTicks": 192,
          "midi": 60,
          "name": "C4",
          "ticks": 7872,
          "time": 41,
          "velocity": 0.8661417322834646
        },
        {
          "duration": 1,
          "durationTicks": 192,
          "midi": 63,
          "name": "D#4",
          "ticks": 7872,
          "time": 41,
          "velocity": 0.8661417322834646
        },
        {
          "duration": 1,
          "durationTicks": 192,
          "midi": 67,
          "name": "G4",
          "ticks": 7872,
          "time": 41,
          "velocity": 0.8661417322834646
        },
        {
          "duration": 1,
          "durationTicks": 192,
          "midi": 60,
          "name": "C4",
          "ticks": 8064,
          "time": 42,
          "velocity": 0.8661417322834646
        },
        {
          "duration": 1,
          "durationTicks": 192,
          "midi": 63,
          "name": "D#4",
          "ticks": 8064,
          "time": 42,
          "velocity": 0.8661417322834646
        },
        {
          "duration": 1,
          "durationTicks": 192,
          "midi": 68,
          "name": "G#4",
          "ticks": 8064,
          "time": 42,
          "velocity": 0.8661417322834646
        },
        {
          "duration": 1,
          "durationTicks": 192,
          "midi": 58,
          "name": "A#3",
          "ticks": 8256,
          "time": 43,
          "velocity": 0.8661417322834646
        },
        {
          "duration": 1,
          "durationTicks": 192,
          "midi": 63,
          "name": "D#4",
          "ticks": 8256,
          "time": 43,
          "velocity": 0.8661417322834646
        },
        {
          "duration": 1,
          "durationTicks": 192,
          "midi": 67,
          "name": "G4",
          "ticks": 8256,
          "time": 43,
          "velocity": 0.8661417322834646
        },
        {
          "duration": 1,
          "durationTicks": 192,
          "midi": 58,
          "name": "A#3",
          "ticks": 8448,
          "time": 44,
          "velocity": 0.8661417322834646
        },
        {
          "duration": 1,
          "durationTicks": 192,
          "midi": 62,
          "name": "D4",
          "ticks": 8448,
          "time": 44,
          "velocity": 0.8661417322834646
        },
        {
          "duration": 1,
          "durationTicks": 192,
          "midi": 65,
          "name": "F4",
          "ticks": 8448,
          "time": 44,
          "velocity": 0.8661417322834646
        },
        {
          "duration": 1,
          "durationTicks": 192,
          "midi": 60,
          "name": "C4",
          "ticks": 8640,
          "time": 45,
          "velocity": 0.8661417322834646
        },
        {
          "duration": 1,
          "durationTicks": 192,
          "midi": 63,
          "name": "D#4",
          "ticks": 8640,
          "time": 45,
          "velocity": 0.8661417322834646
        },
        {
          "duration": 1,
          "durationTicks": 192,
          "midi": 67,
          "name": "G4",
          "ticks": 8640,
          "time": 45,
          "velocity": 0.8661417322834646
        },
        {
          "duration": 1,
          "durationTicks": 192,
          "midi": 60,
          "name": "C4",
          "ticks": 8832,
          "time": 46,
          "velocity": 0.8661417322834646
        },
        {
          "duration": 1,
          "durationTicks": 192,
          "midi": 63,
          "name": "D#4",
          "ticks": 8832,
          "time": 46,
          "velocity": 0.8661417322834646
        },
        {
          "duration": 1,
          "durationTicks": 192,
          "midi": 68,
          "name": "G#4",
          "ticks": 8832,
          "time": 46,
          "velocity": 0.8661417322834646
        },
        {
          "duration": 1,
          "durationTicks": 192,
          "midi": 58,
          "name": "A#3",
          "ticks": 9024,
          "time": 47,
          "velocity": 0.8661417322834646
        },
        {
          "duration": 1,
          "durationTicks": 192,
          "midi": 63,
          "name": "D#4",
          "ticks": 9024,
          "time": 47,
          "velocity": 0.8661417322834646
        },
        {
          "duration": 1,
          "durationTicks": 192,
          "midi": 67,
          "name": "G4",
          "ticks": 9024,
          "time": 47,
          "velocity": 0.8661417322834646
        },
        {
          "duration": 1,
          "durationTicks": 192,
          "midi": 58,
          "name": "A#3",
          "ticks": 9216,
          "time": 48,
          "velocity": 0.8661417322834646
        },
        {
          "duration": 1,
          "durationTicks": 192,
          "midi": 62,
          "name": "D4",
          "ticks": 9216,
          "time": 48,
          "velocity": 0.8661417322834646
        },
        {
          "duration": 1,
          "durationTicks": 192,
          "midi": 65,
          "name": "F4",
          "ticks": 9216,
          "time": 48,
          "velocity": 0.8661417322834646
        },
        {
          "duration": 1,
          "durationTicks": 192,
          "midi": 60,
          "name": "C4",
          "ticks": 9408,
          "time": 49,
          "velocity": 0.8661417322834646
        },
        {
          "duration": 1,
          "durationTicks": 192,
          "midi": 63,
          "name": "D#4",
          "ticks": 9408,
          "time": 49,
          "velocity": 0.8661417322834646
        },
        {
          "duration": 1,
          "durationTicks": 192,
          "midi": 67,
          "name": "G4",
          "ticks": 9408,
          "time": 49,
          "velocity": 0.8661417322834646
        },
        {
          "duration": 1,
          "durationTicks": 192,
          "midi": 60,
          "name": "C4",
          "ticks": 9600,
          "time": 50,
          "velocity": 0.8661417322834646
        },
        {
          "duration": 1,
          "durationTicks": 192,
          "midi": 63,
          "name": "D#4",
          "ticks": 9600,
          "time": 50,
          "velocity": 0.8661417322834646
        },
        {
          "duration": 1,
          "durationTicks": 192,
          "midi": 68,
          "name": "G#4",
          "ticks": 9600,
          "time": 50,
          "velocity": 0.8661417322834646
        },
        {
          "duration": 1,
          "durationTicks": 192,
          "midi": 58,
          "name": "A#3",
          "ticks": 9792,
          "time": 51,
          "velocity": 0.8661417322834646
        },
        {
          "duration": 1,
          "durationTicks": 192,
          "midi": 63,
          "name": "D#4",
          "ticks": 9792,
          "time": 51,
          "velocity": 0.8661417322834646
        },
        {
          "duration": 1,
          "durationTicks": 192,
          "midi": 67,
          "name": "G4",
          "ticks": 9792,
          "time": 51,
          "velocity": 0.8661417322834646
        },
        {
          "duration": 1,
          "durationTicks": 192,
          "midi": 58,
          "name": "A#3",
          "ticks": 9984,
          "time": 52,
          "velocity": 0.8661417322834646
        },
        {
          "duration": 1,
          "durationTicks": 192,
          "midi": 62,
          "name": "D4",
          "ticks": 9984,
          "time": 52,
          "velocity": 0.8661417322834646
        },
        {
          "duration": 1,
          "durationTicks": 192,
          "midi": 65,
          "name": "F4",
          "ticks": 9984,
          "time": 52,
          "velocity": 0.8661417322834646
        },
        {
          "duration": 1,
          "durationTicks": 192,
          "midi": 60,
          "name": "C4",
          "ticks": 10176,
          "time": 53,
          "velocity": 0.8661417322834646
        },
        {
          "duration": 1,
          "durationTicks": 192,
          "midi": 63,
          "name": "D#4",
          "ticks": 10176,
          "time": 53,
          "velocity": 0.8661417322834646
        },
        {
          "duration": 1,
          "durationTicks": 192,
          "midi": 67,
          "name": "G4",
          "ticks": 10176,
          "time": 53,
          "velocity": 0.8661417322834646
        },
        {
          "duration": 1,
          "durationTicks": 192,
          "midi": 60,
          "name": "C4",
          "ticks": 10368,
          "time": 54,
          "velocity": 0.8661417322834646
        },
        {
          "duration": 1,
          "durationTicks": 192,
          "midi": 63,
          "name": "D#4",
          "ticks": 10368,
          "time": 54,
          "velocity": 0.8661417322834646
        },
        {
          "duration": 1,
          "durationTicks": 192,
          "midi": 68,
          "name": "G#4",
          "ticks": 10368,
          "time": 54,
          "velocity": 0.8661417322834646
        },
        {
          "duration": 1,
          "durationTicks": 192,
          "midi": 58,
          "name": "A#3",
          "ticks": 10560,
          "time": 55,
          "velocity": 0.8661417322834646
        },
        {
          "duration": 1,
          "durationTicks": 192,
          "midi": 63,
          "name": "D#4",
          "ticks": 10560,
          "time": 55,
          "velocity": 0.8661417322834646
        },
        {
          "duration": 1,
          "durationTicks": 192,
          "midi": 67,
          "name": "G4",
          "ticks": 10560,
          "time": 55,
          "velocity": 0.8661417322834646
        },
        {
          "duration": 1,
          "durationTicks": 192,
          "midi": 65,
          "name": "F4",
          "ticks": 10752,
          "time": 56,
          "velocity": 0.8661417322834646
        },
        {
          "duration": 1,
          "durationTicks": 192,
          "midi": 62,
          "name": "D4",
          "ticks": 10752,
          "time": 56,
          "velocity": 0.8661417322834646
        },
        {
          "duration": 1,
          "durationTicks": 192,
          "midi": 58,
          "name": "A#3",
          "ticks": 10752,
          "time": 56,
          "velocity": 0.8661417322834646
        },
        {
          "duration": 0.9947916666666643,
          "durationTicks": 191,
          "midi": 55,
          "name": "G3",
          "ticks": 10944,
          "time": 57,
          "velocity": 0.8661417322834646
        },
        {
          "duration": 0.9947916666666643,
          "durationTicks": 191,
          "midi": 60,
          "name": "C4",
          "ticks": 10944,
          "time": 57,
          "velocity": 0.8661417322834646
        },
        {
          "duration": 0.9947916666666643,
          "durationTicks": 191,
          "midi": 51,
          "name": "D#3",
          "ticks": 11136,
          "time": 58,
          "velocity": 0.8661417322834646
        },
        {
          "duration": 0.9947916666666643,
          "durationTicks": 191,
          "midi": 56,
          "name": "G#3",
          "ticks": 11136,
          "time": 58,
          "velocity": 0.8661417322834646
        },
        {
          "duration": 0.9947916666666643,
          "durationTicks": 191,
          "midi": 58,
          "name": "A#3",
          "ticks": 11328,
          "time": 59,
          "velocity": 0.8661417322834646
        },
        {
          "duration": 0.9947916666666643,
          "durationTicks": 191,
          "midi": 63,
          "name": "D#4",
          "ticks": 11328,
          "time": 59,
          "velocity": 0.8661417322834646
        },
        {
          "duration": 0.9947916666666643,
          "durationTicks": 191,
          "midi": 58,
          "name": "A#3",
          "ticks": 11520,
          "time": 60,
          "velocity": 0.8661417322834646
        },
        {
          "duration": 0.9947916666666643,
          "durationTicks": 191,
          "midi": 53,
          "name": "F3",
          "ticks": 11520,
          "time": 60,
          "velocity": 0.8661417322834646
        },
        {
          "duration": 0.9947916666666643,
          "durationTicks": 191,
          "midi": 55,
          "name": "G3",
          "ticks": 11712,
          "time": 61,
          "velocity": 0.8661417322834646
        },
        {
          "duration": 0.9947916666666643,
          "durationTicks": 191,
          "midi": 60,
          "name": "C4",
          "ticks": 11712,
          "time": 61,
          "velocity": 0.8661417322834646
        },
        {
          "duration": 0.9947916666666643,
          "durationTicks": 191,
          "midi": 51,
          "name": "D#3",
          "ticks": 11904,
          "time": 62,
          "velocity": 0.8661417322834646
        },
        {
          "duration": 0.9947916666666643,
          "durationTicks": 191,
          "midi": 56,
          "name": "G#3",
          "ticks": 11904,
          "time": 62,
          "velocity": 0.8661417322834646
        },
        {
          "duration": 0.9947916666666643,
          "durationTicks": 191,
          "midi": 58,
          "name": "A#3",
          "ticks": 12096,
          "time": 63,
          "velocity": 0.8661417322834646
        },
        {
          "duration": 0.9947916666666643,
          "durationTicks": 191,
          "midi": 63,
          "name": "D#4",
          "ticks": 12096,
          "time": 63,
          "velocity": 0.8661417322834646
        },
        {
          "duration": 0.9947916666666714,
          "durationTicks": 191,
          "midi": 58,
          "name": "A#3",
          "ticks": 12288,
          "time": 64,
          "velocity": 0.8661417322834646
        },
        {
          "duration": 0.9947916666666714,
          "durationTicks": 191,
          "midi": 53,
          "name": "F3",
          "ticks": 12288,
          "time": 64,
          "velocity": 0.8661417322834646
        },
        {
          "duration": 0.9947916666666714,
          "durationTicks": 191,
          "midi": 60,
          "name": "C4",
          "ticks": 12480,
          "time": 65,
          "velocity": 0.8661417322834646
        },
        {
          "duration": 0.9947916666666714,
          "durationTicks": 191,
          "midi": 55,
          "name": "G3",
          "ticks": 12480,
          "time": 65,
          "velocity": 0.8661417322834646
        },
        {
          "duration": 0.9947916666666714,
          "durationTicks": 191,
          "midi": 51,
          "name": "D#3",
          "ticks": 12672,
          "time": 66,
          "velocity": 0.8661417322834646
        },
        {
          "duration": 0.9947916666666714,
          "durationTicks": 191,
          "midi": 56,
          "name": "G#3",
          "ticks": 12672,
          "time": 66,
          "velocity": 0.8661417322834646
        },
        {
          "duration": 0.9947916666666714,
          "durationTicks": 191,
          "midi": 63,
          "name": "D#4",
          "ticks": 12864,
          "time": 67,
          "velocity": 0.8661417322834646
        },
        {
          "duration": 0.9947916666666714,
          "durationTicks": 191,
          "midi": 58,
          "name": "A#3",
          "ticks": 12864,
          "time": 67,
          "velocity": 0.8661417322834646
        },
        {
          "duration": 0.9947916666666714,
          "durationTicks": 191,
          "midi": 58,
          "name": "A#3",
          "ticks": 13056,
          "time": 68,
          "velocity": 0.8661417322834646
        },
        {
          "duration": 0.9947916666666714,
          "durationTicks": 191,
          "midi": 53,
          "name": "F3",
          "ticks": 13056,
          "time": 68,
          "velocity": 0.8661417322834646
        },
        {
          "duration": 0.9947916666666714,
          "durationTicks": 191,
          "midi": 55,
          "name": "G3",
          "ticks": 13248,
          "time": 69,
          "velocity": 0.8661417322834646
        },
        {
          "duration": 0.9947916666666714,
          "durationTicks": 191,
          "midi": 60,
          "name": "C4",
          "ticks": 13248,
          "time": 69,
          "velocity": 0.8661417322834646
        },
        {
          "duration": 0.9947916666666714,
          "durationTicks": 191,
          "midi": 51,
          "name": "D#3",
          "ticks": 13440,
          "time": 70,
          "velocity": 0.8661417322834646
        },
        {
          "duration": 0.9947916666666714,
          "durationTicks": 191,
          "midi": 56,
          "name": "G#3",
          "ticks": 13440,
          "time": 70,
          "velocity": 0.8661417322834646
        },
        {
          "duration": 0.9947916666666714,
          "durationTicks": 191,
          "midi": 58,
          "name": "A#3",
          "ticks": 13632,
          "time": 71,
          "velocity": 0.8661417322834646
        },
        {
          "duration": 0.9947916666666714,
          "durationTicks": 191,
          "midi": 63,
          "name": "D#4",
          "ticks": 13632,
          "time": 71,
          "velocity": 0.8661417322834646
        },
        {
          "duration": 0.9947916666666714,
          "durationTicks": 191,
          "midi": 58,
          "name": "A#3",
          "ticks": 13824,
          "time": 72,
          "velocity": 0.8661417322834646
        },
        {
          "duration": 0.9947916666666714,
          "durationTicks": 191,
          "midi": 53,
          "name": "F3",
          "ticks": 13824,
          "time": 72,
          "velocity": 0.8661417322834646
        },
        {
          "duration": 1,
          "durationTicks": 192,
          "midi": 60,
          "name": "C4",
          "ticks": 14016,
          "time": 73,
          "velocity": 0.8661417322834646
        },
        {
          "duration": 1,
          "durationTicks": 192,
          "midi": 63,
          "name": "D#4",
          "ticks": 14016,
          "time": 73,
          "velocity": 0.8661417322834646
        },
        {
          "duration": 1,
          "durationTicks": 192,
          "midi": 67,
          "name": "G4",
          "ticks": 14016,
          "time": 73,
          "velocity": 0.8661417322834646
        },
        {
          "duration": 1,
          "durationTicks": 192,
          "midi": 60,
          "name": "C4",
          "ticks": 14208,
          "time": 74,
          "velocity": 0.8661417322834646
        },
        {
          "duration": 1,
          "durationTicks": 192,
          "midi": 63,
          "name": "D#4",
          "ticks": 14208,
          "time": 74,
          "velocity": 0.8661417322834646
        },
        {
          "duration": 1,
          "durationTicks": 192,
          "midi": 68,
          "name": "G#4",
          "ticks": 14208,
          "time": 74,
          "velocity": 0.8661417322834646
        },
        {
          "duration": 1,
          "durationTicks": 192,
          "midi": 58,
          "name": "A#3",
          "ticks": 14400,
          "time": 75,
          "velocity": 0.8661417322834646
        },
        {
          "duration": 1,
          "durationTicks": 192,
          "midi": 63,
          "name": "D#4",
          "ticks": 14400,
          "time": 75,
          "velocity": 0.8661417322834646
        },
        {
          "duration": 1,
          "durationTicks": 192,
          "midi": 67,
          "name": "G4",
          "ticks": 14400,
          "time": 75,
          "velocity": 0.8661417322834646
        },
        {
          "duration": 1,
          "durationTicks": 192,
          "midi": 58,
          "name": "A#3",
          "ticks": 14592,
          "time": 76,
          "velocity": 0.8661417322834646
        },
        {
          "duration": 1,
          "durationTicks": 192,
          "midi": 62,
          "name": "D4",
          "ticks": 14592,
          "time": 76,
          "velocity": 0.8661417322834646
        },
        {
          "duration": 1,
          "durationTicks": 192,
          "midi": 65,
          "name": "F4",
          "ticks": 14592,
          "time": 76,
          "velocity": 0.8661417322834646
        },
        {
          "duration": 1,
          "durationTicks": 192,
          "midi": 60,
          "name": "C4",
          "ticks": 14784,
          "time": 77,
          "velocity": 0.8661417322834646
        },
        {
          "duration": 1,
          "durationTicks": 192,
          "midi": 63,
          "name": "D#4",
          "ticks": 14784,
          "time": 77,
          "velocity": 0.8661417322834646
        },
        {
          "duration": 1,
          "durationTicks": 192,
          "midi": 67,
          "name": "G4",
          "ticks": 14784,
          "time": 77,
          "velocity": 0.8661417322834646
        },
        {
          "duration": 1,
          "durationTicks": 192,
          "midi": 60,
          "name": "C4",
          "ticks": 14976,
          "time": 78,
          "velocity": 0.8661417322834646
        },
        {
          "duration": 1,
          "durationTicks": 192,
          "midi": 63,
          "name": "D#4",
          "ticks": 14976,
          "time": 78,
          "velocity": 0.8661417322834646
        },
        {
          "duration": 1,
          "durationTicks": 192,
          "midi": 68,
          "name": "G#4",
          "ticks": 14976,
          "time": 78,
          "velocity": 0.8661417322834646
        },
        {
          "duration": 1,
          "durationTicks": 192,
          "midi": 58,
          "name": "A#3",
          "ticks": 15168,
          "time": 79,
          "velocity": 0.8661417322834646
        },
        {
          "duration": 1,
          "durationTicks": 192,
          "midi": 63,
          "name": "D#4",
          "ticks": 15168,
          "time": 79,
          "velocity": 0.8661417322834646
        },
        {
          "duration": 1,
          "durationTicks": 192,
          "midi": 67,
          "name": "G4",
          "ticks": 15168,
          "time": 79,
          "velocity": 0.8661417322834646
        },
        {
          "duration": 1,
          "durationTicks": 192,
          "midi": 58,
          "name": "A#3",
          "ticks": 15360,
          "time": 80,
          "velocity": 0.8661417322834646
        },
        {
          "duration": 1,
          "durationTicks": 192,
          "midi": 62,
          "name": "D4",
          "ticks": 15360,
          "time": 80,
          "velocity": 0.8661417322834646
        },
        {
          "duration": 1,
          "durationTicks": 192,
          "midi": 65,
          "name": "F4",
          "ticks": 15360,
          "time": 80,
          "velocity": 0.8661417322834646
        },
        {
          "duration": 1,
          "durationTicks": 192,
          "midi": 60,
          "name": "C4",
          "ticks": 15552,
          "time": 81,
          "velocity": 0.8661417322834646
        },
        {
          "duration": 1,
          "durationTicks": 192,
          "midi": 63,
          "name": "D#4",
          "ticks": 15552,
          "time": 81,
          "velocity": 0.8661417322834646
        },
        {
          "duration": 1,
          "durationTicks": 192,
          "midi": 67,
          "name": "G4",
          "ticks": 15552,
          "time": 81,
          "velocity": 0.8661417322834646
        },
        {
          "duration": 1,
          "durationTicks": 192,
          "midi": 60,
          "name": "C4",
          "ticks": 15744,
          "time": 82,
          "velocity": 0.8661417322834646
        },
        {
          "duration": 1,
          "durationTicks": 192,
          "midi": 63,
          "name": "D#4",
          "ticks": 15744,
          "time": 82,
          "velocity": 0.8661417322834646
        },
        {
          "duration": 1,
          "durationTicks": 192,
          "midi": 68,
          "name": "G#4",
          "ticks": 15744,
          "time": 82,
          "velocity": 0.8661417322834646
        },
        {
          "duration": 1,
          "durationTicks": 192,
          "midi": 58,
          "name": "A#3",
          "ticks": 15936,
          "time": 83,
          "velocity": 0.8661417322834646
        },
        {
          "duration": 1,
          "durationTicks": 192,
          "midi": 63,
          "name": "D#4",
          "ticks": 15936,
          "time": 83,
          "velocity": 0.8661417322834646
        },
        {
          "duration": 1,
          "durationTicks": 192,
          "midi": 67,
          "name": "G4",
          "ticks": 15936,
          "time": 83,
          "velocity": 0.8661417322834646
        },
        {
          "duration": 1,
          "durationTicks": 192,
          "midi": 58,
          "name": "A#3",
          "ticks": 16128,
          "time": 84,
          "velocity": 0.8661417322834646
        },
        {
          "duration": 1,
          "durationTicks": 192,
          "midi": 62,
          "name": "D4",
          "ticks": 16128,
          "time": 84,
          "velocity": 0.8661417322834646
        },
        {
          "duration": 1,
          "durationTicks": 192,
          "midi": 65,
          "name": "F4",
          "ticks": 16128,
          "time": 84,
          "velocity": 0.8661417322834646
        },
        {
          "duration": 1,
          "durationTicks": 192,
          "midi": 60,
          "name": "C4",
          "ticks": 16320,
          "time": 85,
          "velocity": 0.8661417322834646
        },
        {
          "duration": 1,
          "durationTicks": 192,
          "midi": 63,
          "name": "D#4",
          "ticks": 16320,
          "time": 85,
          "velocity": 0.8661417322834646
        },
        {
          "duration": 1,
          "durationTicks": 192,
          "midi": 67,
          "name": "G4",
          "ticks": 16320,
          "time": 85,
          "velocity": 0.8661417322834646
        },
        {
          "duration": 1,
          "durationTicks": 192,
          "midi": 60,
          "name": "C4",
          "ticks": 16512,
          "time": 86,
          "velocity": 0.8661417322834646
        },
        {
          "duration": 1,
          "durationTicks": 192,
          "midi": 63,
          "name": "D#4",
          "ticks": 16512,
          "time": 86,
          "velocity": 0.8661417322834646
        },
        {
          "duration": 1,
          "durationTicks": 192,
          "midi": 68,
          "name": "G#4",
          "ticks": 16512,
          "time": 86,
          "velocity": 0.8661417322834646
        },
        {
          "duration": 1,
          "durationTicks": 192,
          "midi": 58,
          "name": "A#3",
          "ticks": 16704,
          "time": 87,
          "velocity": 0.8661417322834646
        },
        {
          "duration": 1,
          "durationTicks": 192,
          "midi": 63,
          "name": "D#4",
          "ticks": 16704,
          "time": 87,
          "velocity": 0.8661417322834646
        },
        {
          "duration": 1,
          "durationTicks": 192,
          "midi": 67,
          "name": "G4",
          "ticks": 16704,
          "time": 87,
          "velocity": 0.8661417322834646
        },
        {
          "duration": 1,
          "durationTicks": 192,
          "midi": 58,
          "name": "A#3",
          "ticks": 16896,
          "time": 88,
          "velocity": 0.8661417322834646
        },
        {
          "duration": 1,
          "durationTicks": 192,
          "midi": 62,
          "name": "D4",
          "ticks": 16896,
          "time": 88,
          "velocity": 0.8661417322834646
        },
        {
          "duration": 1,
          "durationTicks": 192,
          "midi": 65,
          "name": "F4",
          "ticks": 16896,
          "time": 88,
          "velocity": 0.8661417322834646
        },
        {
          "duration": 1,
          "durationTicks": 192,
          "midi": 60,
          "name": "C4",
          "ticks": 17088,
          "time": 89,
          "velocity": 0.8661417322834646
        },
        {
          "duration": 1,
          "durationTicks": 192,
          "midi": 63,
          "name": "D#4",
          "ticks": 17088,
          "time": 89,
          "velocity": 0.8661417322834646
        },
        {
          "duration": 1,
          "durationTicks": 192,
          "midi": 67,
          "name": "G4",
          "ticks": 17088,
          "time": 89,
          "velocity": 0.8661417322834646
        },
        {
          "duration": 1,
          "durationTicks": 192,
          "midi": 60,
          "name": "C4",
          "ticks": 17280,
          "time": 90,
          "velocity": 0.8661417322834646
        },
        {
          "duration": 1,
          "durationTicks": 192,
          "midi": 63,
          "name": "D#4",
          "ticks": 17280,
          "time": 90,
          "velocity": 0.8661417322834646
        },
        {
          "duration": 1,
          "durationTicks": 192,
          "midi": 68,
          "name": "G#4",
          "ticks": 17280,
          "time": 90,
          "velocity": 0.8661417322834646
        },
        {
          "duration": 1,
          "durationTicks": 192,
          "midi": 58,
          "name": "A#3",
          "ticks": 17472,
          "time": 91,
          "velocity": 0.8661417322834646
        },
        {
          "duration": 1,
          "durationTicks": 192,
          "midi": 63,
          "name": "D#4",
          "ticks": 17472,
          "time": 91,
          "velocity": 0.8661417322834646
        },
        {
          "duration": 1,
          "durationTicks": 192,
          "midi": 67,
          "name": "G4",
          "ticks": 17472,
          "time": 91,
          "velocity": 0.8661417322834646
        },
        {
          "duration": 1,
          "durationTicks": 192,
          "midi": 58,
          "name": "A#3",
          "ticks": 17664,
          "time": 92,
          "velocity": 0.8661417322834646
        },
        {
          "duration": 1,
          "durationTicks": 192,
          "midi": 62,
          "name": "D4",
          "ticks": 17664,
          "time": 92,
          "velocity": 0.8661417322834646
        },
        {
          "duration": 1,
          "durationTicks": 192,
          "midi": 65,
          "name": "F4",
          "ticks": 17664,
          "time": 92,
          "velocity": 0.8661417322834646
        },
        {
          "duration": 1,
          "durationTicks": 192,
          "midi": 60,
          "name": "C4",
          "ticks": 20928,
          "time": 109,
          "velocity": 0.8661417322834646
        },
        {
          "duration": 1,
          "durationTicks": 192,
          "midi": 63,
          "name": "D#4",
          "ticks": 20928,
          "time": 109,
          "velocity": 0.8661417322834646
        },
        {
          "duration": 1,
          "durationTicks": 192,
          "midi": 67,
          "name": "G4",
          "ticks": 20928,
          "time": 109,
          "velocity": 0.8661417322834646
        },
        {
          "duration": 1,
          "durationTicks": 192,
          "midi": 60,
          "name": "C4",
          "ticks": 21120,
          "time": 110,
          "velocity": 0.8661417322834646
        },
        {
          "duration": 1,
          "durationTicks": 192,
          "midi": 63,
          "name": "D#4",
          "ticks": 21120,
          "time": 110,
          "velocity": 0.8661417322834646
        },
        {
          "duration": 1,
          "durationTicks": 192,
          "midi": 68,
          "name": "G#4",
          "ticks": 21120,
          "time": 110,
          "velocity": 0.8661417322834646
        },
        {
          "duration": 1,
          "durationTicks": 192,
          "midi": 58,
          "name": "A#3",
          "ticks": 21312,
          "time": 111,
          "velocity": 0.8661417322834646
        },
        {
          "duration": 1,
          "durationTicks": 192,
          "midi": 63,
          "name": "D#4",
          "ticks": 21312,
          "time": 111,
          "velocity": 0.8661417322834646
        },
        {
          "duration": 1,
          "durationTicks": 192,
          "midi": 67,
          "name": "G4",
          "ticks": 21312,
          "time": 111,
          "velocity": 0.8661417322834646
        },
        {
          "duration": 1,
          "durationTicks": 192,
          "midi": 58,
          "name": "A#3",
          "ticks": 21504,
          "time": 112,
          "velocity": 0.8661417322834646
        },
        {
          "duration": 1,
          "durationTicks": 192,
          "midi": 62,
          "name": "D4",
          "ticks": 21504,
          "time": 112,
          "velocity": 0.8661417322834646
        },
        {
          "duration": 1,
          "durationTicks": 192,
          "midi": 65,
          "name": "F4",
          "ticks": 21504,
          "time": 112,
          "velocity": 0.8661417322834646
        },
        {
          "duration": 1,
          "durationTicks": 192,
          "midi": 60,
          "name": "C4",
          "ticks": 21696,
          "time": 113,
          "velocity": 0.8661417322834646
        },
        {
          "duration": 1,
          "durationTicks": 192,
          "midi": 63,
          "name": "D#4",
          "ticks": 21696,
          "time": 113,
          "velocity": 0.8661417322834646
        },
        {
          "duration": 1,
          "durationTicks": 192,
          "midi": 67,
          "name": "G4",
          "ticks": 21696,
          "time": 113,
          "velocity": 0.8661417322834646
        },
        {
          "duration": 1,
          "durationTicks": 192,
          "midi": 60,
          "name": "C4",
          "ticks": 21888,
          "time": 114,
          "velocity": 0.8661417322834646
        },
        {
          "duration": 1,
          "durationTicks": 192,
          "midi": 63,
          "name": "D#4",
          "ticks": 21888,
          "time": 114,
          "velocity": 0.8661417322834646
        },
        {
          "duration": 1,
          "durationTicks": 192,
          "midi": 68,
          "name": "G#4",
          "ticks": 21888,
          "time": 114,
          "velocity": 0.8661417322834646
        },
        {
          "duration": 1,
          "durationTicks": 192,
          "midi": 58,
          "name": "A#3",
          "ticks": 22080,
          "time": 115,
          "velocity": 0.8661417322834646
        },
        {
          "duration": 1,
          "durationTicks": 192,
          "midi": 63,
          "name": "D#4",
          "ticks": 22080,
          "time": 115,
          "velocity": 0.8661417322834646
        },
        {
          "duration": 1,
          "durationTicks": 192,
          "midi": 67,
          "name": "G4",
          "ticks": 22080,
          "time": 115,
          "velocity": 0.8661417322834646
        },
        {
          "duration": 1,
          "durationTicks": 192,
          "midi": 58,
          "name": "A#3",
          "ticks": 22272,
          "time": 116,
          "velocity": 0.8661417322834646
        },
        {
          "duration": 1,
          "durationTicks": 192,
          "midi": 62,
          "name": "D4",
          "ticks": 22272,
          "time": 116,
          "velocity": 0.8661417322834646
        },
        {
          "duration": 1,
          "durationTicks": 192,
          "midi": 65,
          "name": "F4",
          "ticks": 22272,
          "time": 116,
          "velocity": 0.8661417322834646
        },
        {
          "duration": 1,
          "durationTicks": 192,
          "midi": 60,
          "name": "C4",
          "ticks": 22464,
          "time": 117,
          "velocity": 0.8661417322834646
        },
        {
          "duration": 1,
          "durationTicks": 192,
          "midi": 63,
          "name": "D#4",
          "ticks": 22464,
          "time": 117,
          "velocity": 0.8661417322834646
        },
        {
          "duration": 1,
          "durationTicks": 192,
          "midi": 67,
          "name": "G4",
          "ticks": 22464,
          "time": 117,
          "velocity": 0.8661417322834646
        },
        {
          "duration": 1,
          "durationTicks": 192,
          "midi": 60,
          "name": "C4",
          "ticks": 22656,
          "time": 118,
          "velocity": 0.8661417322834646
        },
        {
          "duration": 1,
          "durationTicks": 192,
          "midi": 63,
          "name": "D#4",
          "ticks": 22656,
          "time": 118,
          "velocity": 0.8661417322834646
        },
        {
          "duration": 1,
          "durationTicks": 192,
          "midi": 68,
          "name": "G#4",
          "ticks": 22656,
          "time": 118,
          "velocity": 0.8661417322834646
        },
        {
          "duration": 1,
          "durationTicks": 192,
          "midi": 58,
          "name": "A#3",
          "ticks": 22848,
          "time": 119,
          "velocity": 0.8661417322834646
        },
        {
          "duration": 1,
          "durationTicks": 192,
          "midi": 63,
          "name": "D#4",
          "ticks": 22848,
          "time": 119,
          "velocity": 0.8661417322834646
        },
        {
          "duration": 1,
          "durationTicks": 192,
          "midi": 67,
          "name": "G4",
          "ticks": 22848,
          "time": 119,
          "velocity": 0.8661417322834646
        },
        {
          "duration": 1,
          "durationTicks": 192,
          "midi": 58,
          "name": "A#3",
          "ticks": 23040,
          "time": 120,
          "velocity": 0.8661417322834646
        },
        {
          "duration": 1,
          "durationTicks": 192,
          "midi": 62,
          "name": "D4",
          "ticks": 23040,
          "time": 120,
          "velocity": 0.8661417322834646
        },
        {
          "duration": 1,
          "durationTicks": 192,
          "midi": 65,
          "name": "F4",
          "ticks": 23040,
          "time": 120,
          "velocity": 0.8661417322834646
        },
        {
          "duration": 1,
          "durationTicks": 192,
          "midi": 60,
          "name": "C4",
          "ticks": 23232,
          "time": 121,
          "velocity": 0.8661417322834646
        },
        {
          "duration": 1,
          "durationTicks": 192,
          "midi": 63,
          "name": "D#4",
          "ticks": 23232,
          "time": 121,
          "velocity": 0.8661417322834646
        },
        {
          "duration": 1,
          "durationTicks": 192,
          "midi": 67,
          "name": "G4",
          "ticks": 23232,
          "time": 121,
          "velocity": 0.8661417322834646
        },
        {
          "duration": 1,
          "durationTicks": 192,
          "midi": 60,
          "name": "C4",
          "ticks": 23424,
          "time": 122,
          "velocity": 0.8661417322834646
        },
        {
          "duration": 1,
          "durationTicks": 192,
          "midi": 63,
          "name": "D#4",
          "ticks": 23424,
          "time": 122,
          "velocity": 0.8661417322834646
        },
        {
          "duration": 1,
          "durationTicks": 192,
          "midi": 68,
          "name": "G#4",
          "ticks": 23424,
          "time": 122,
          "velocity": 0.8661417322834646
        },
        {
          "duration": 1,
          "durationTicks": 192,
          "midi": 58,
          "name": "A#3",
          "ticks": 23616,
          "time": 123,
          "velocity": 0.8661417322834646
        },
        {
          "duration": 1,
          "durationTicks": 192,
          "midi": 63,
          "name": "D#4",
          "ticks": 23616,
          "time": 123,
          "velocity": 0.8661417322834646
        },
        {
          "duration": 1,
          "durationTicks": 192,
          "midi": 67,
          "name": "G4",
          "ticks": 23616,
          "time": 123,
          "velocity": 0.8661417322834646
        },
        {
          "duration": 1,
          "durationTicks": 192,
          "midi": 58,
          "name": "A#3",
          "ticks": 23808,
          "time": 124,
          "velocity": 0.8661417322834646
        },
        {
          "duration": 1,
          "durationTicks": 192,
          "midi": 62,
          "name": "D4",
          "ticks": 23808,
          "time": 124,
          "velocity": 0.8661417322834646
        },
        {
          "duration": 1,
          "durationTicks": 192,
          "midi": 65,
          "name": "F4",
          "ticks": 23808,
          "time": 124,
          "velocity": 0.8661417322834646
        },
        {
          "duration": 1,
          "durationTicks": 192,
          "midi": 60,
          "name": "C4",
          "ticks": 24000,
          "time": 125,
          "velocity": 0.8661417322834646
        },
        {
          "duration": 1,
          "durationTicks": 192,
          "midi": 63,
          "name": "D#4",
          "ticks": 24000,
          "time": 125,
          "velocity": 0.8661417322834646
        },
        {
          "duration": 1,
          "durationTicks": 192,
          "midi": 67,
          "name": "G4",
          "ticks": 24000,
          "time": 125,
          "velocity": 0.8661417322834646
        },
        {
          "duration": 1,
          "durationTicks": 192,
          "midi": 60,
          "name": "C4",
          "ticks": 24192,
          "time": 126,
          "velocity": 0.8661417322834646
        },
        {
          "duration": 1,
          "durationTicks": 192,
          "midi": 63,
          "name": "D#4",
          "ticks": 24192,
          "time": 126,
          "velocity": 0.8661417322834646
        },
        {
          "duration": 1,
          "durationTicks": 192,
          "midi": 68,
          "name": "G#4",
          "ticks": 24192,
          "time": 126,
          "velocity": 0.8661417322834646
        },
        {
          "duration": 1,
          "durationTicks": 192,
          "midi": 58,
          "name": "A#3",
          "ticks": 24384,
          "time": 127,
          "velocity": 0.8661417322834646
        },
        {
          "duration": 1,
          "durationTicks": 192,
          "midi": 63,
          "name": "D#4",
          "ticks": 24384,
          "time": 127,
          "velocity": 0.8661417322834646
        },
        {
          "duration": 1,
          "durationTicks": 192,
          "midi": 67,
          "name": "G4",
          "ticks": 24384,
          "time": 127,
          "velocity": 0.8661417322834646
        },
        {
          "duration": 1,
          "durationTicks": 192,
          "midi": 58,
          "name": "A#3",
          "ticks": 24576,
          "time": 128,
          "velocity": 0.8661417322834646
        },
        {
          "duration": 1,
          "durationTicks": 192,
          "midi": 62,
          "name": "D4",
          "ticks": 24576,
          "time": 128,
          "velocity": 0.8661417322834646
        },
        {
          "duration": 1,
          "durationTicks": 192,
          "midi": 65,
          "name": "F4",
          "ticks": 24576,
          "time": 128,
          "velocity": 0.8661417322834646
        },
        {
          "duration": 1,
          "durationTicks": 192,
          "midi": 60,
          "name": "C4",
          "ticks": 24768,
          "time": 129,
          "velocity": 0.8661417322834646
        },
        {
          "duration": 1,
          "durationTicks": 192,
          "midi": 63,
          "name": "D#4",
          "ticks": 24768,
          "time": 129,
          "velocity": 0.8661417322834646
        },
        {
          "duration": 1,
          "durationTicks": 192,
          "midi": 67,
          "name": "G4",
          "ticks": 24768,
          "time": 129,
          "velocity": 0.8661417322834646
        },
        {
          "duration": 1,
          "durationTicks": 192,
          "midi": 60,
          "name": "C4",
          "ticks": 24960,
          "time": 130,
          "velocity": 0.8661417322834646
        },
        {
          "duration": 1,
          "durationTicks": 192,
          "midi": 63,
          "name": "D#4",
          "ticks": 24960,
          "time": 130,
          "velocity": 0.8661417322834646
        },
        {
          "duration": 1,
          "durationTicks": 192,
          "midi": 68,
          "name": "G#4",
          "ticks": 24960,
          "time": 130,
          "velocity": 0.8661417322834646
        },
        {
          "duration": 1,
          "durationTicks": 192,
          "midi": 58,
          "name": "A#3",
          "ticks": 25152,
          "time": 131,
          "velocity": 0.8661417322834646
        },
        {
          "duration": 1,
          "durationTicks": 192,
          "midi": 63,
          "name": "D#4",
          "ticks": 25152,
          "time": 131,
          "velocity": 0.8661417322834646
        },
        {
          "duration": 1,
          "durationTicks": 192,
          "midi": 67,
          "name": "G4",
          "ticks": 25152,
          "time": 131,
          "velocity": 0.8661417322834646
        },
        {
          "duration": 1,
          "durationTicks": 192,
          "midi": 58,
          "name": "A#3",
          "ticks": 25344,
          "time": 132,
          "velocity": 0.8661417322834646
        },
        {
          "duration": 1,
          "durationTicks": 192,
          "midi": 62,
          "name": "D4",
          "ticks": 25344,
          "time": 132,
          "velocity": 0.8661417322834646
        },
        {
          "duration": 1,
          "durationTicks": 192,
          "midi": 65,
          "name": "F4",
          "ticks": 25344,
          "time": 132,
          "velocity": 0.8661417322834646
        },
        {
          "duration": 1,
          "durationTicks": 192,
          "midi": 60,
          "name": "C4",
          "ticks": 25536,
          "time": 133,
          "velocity": 0.8661417322834646
        },
        {
          "duration": 1,
          "durationTicks": 192,
          "midi": 63,
          "name": "D#4",
          "ticks": 25536,
          "time": 133,
          "velocity": 0.8661417322834646
        },
        {
          "duration": 1,
          "durationTicks": 192,
          "midi": 67,
          "name": "G4",
          "ticks": 25536,
          "time": 133,
          "velocity": 0.8661417322834646
        },
        {
          "duration": 1,
          "durationTicks": 192,
          "midi": 60,
          "name": "C4",
          "ticks": 25728,
          "time": 134,
          "velocity": 0.8661417322834646
        },
        {
          "duration": 1,
          "durationTicks": 192,
          "midi": 63,
          "name": "D#4",
          "ticks": 25728,
          "time": 134,
          "velocity": 0.8661417322834646
        },
        {
          "duration": 1,
          "durationTicks": 192,
          "midi": 68,
          "name": "G#4",
          "ticks": 25728,
          "time": 134,
          "velocity": 0.8661417322834646
        },
        {
          "duration": 1,
          "durationTicks": 192,
          "midi": 58,
          "name": "A#3",
          "ticks": 25920,
          "time": 135,
          "velocity": 0.8661417322834646
        },
        {
          "duration": 1,
          "durationTicks": 192,
          "midi": 63,
          "name": "D#4",
          "ticks": 25920,
          "time": 135,
          "velocity": 0.8661417322834646
        },
        {
          "duration": 1,
          "durationTicks": 192,
          "midi": 67,
          "name": "G4",
          "ticks": 25920,
          "time": 135,
          "velocity": 0.8661417322834646
        },
        {
          "duration": 1,
          "durationTicks": 192,
          "midi": 58,
          "name": "A#3",
          "ticks": 26112,
          "time": 136,
          "velocity": 0.8661417322834646
        },
        {
          "duration": 1,
          "durationTicks": 192,
          "midi": 62,
          "name": "D4",
          "ticks": 26112,
          "time": 136,
          "velocity": 0.8661417322834646
        },
        {
          "duration": 1,
          "durationTicks": 192,
          "midi": 65,
          "name": "F4",
          "ticks": 26112,
          "time": 136,
          "velocity": 0.8661417322834646
        },
        {
          "duration": 1,
          "durationTicks": 192,
          "midi": 60,
          "name": "C4",
          "ticks": 26304,
          "time": 137,
          "velocity": 0.8661417322834646
        },
        {
          "duration": 1,
          "durationTicks": 192,
          "midi": 63,
          "name": "D#4",
          "ticks": 26304,
          "time": 137,
          "velocity": 0.8661417322834646
        },
        {
          "duration": 1,
          "durationTicks": 192,
          "midi": 67,
          "name": "G4",
          "ticks": 26304,
          "time": 137,
          "velocity": 0.8661417322834646
        },
        {
          "duration": 1,
          "durationTicks": 192,
          "midi": 60,
          "name": "C4",
          "ticks": 26496,
          "time": 138,
          "velocity": 0.8661417322834646
        },
        {
          "duration": 1,
          "durationTicks": 192,
          "midi": 63,
          "name": "D#4",
          "ticks": 26496,
          "time": 138,
          "velocity": 0.8661417322834646
        },
        {
          "duration": 1,
          "durationTicks": 192,
          "midi": 68,
          "name": "G#4",
          "ticks": 26496,
          "time": 138,
          "velocity": 0.8661417322834646
        },
        {
          "duration": 1,
          "durationTicks": 192,
          "midi": 58,
          "name": "A#3",
          "ticks": 26688,
          "time": 139,
          "velocity": 0.8661417322834646
        },
        {
          "duration": 1,
          "durationTicks": 192,
          "midi": 63,
          "name": "D#4",
          "ticks": 26688,
          "time": 139,
          "velocity": 0.8661417322834646
        },
        {
          "duration": 1,
          "durationTicks": 192,
          "midi": 67,
          "name": "G4",
          "ticks": 26688,
          "time": 139,
          "velocity": 0.8661417322834646
        },
        {
          "duration": 1,
          "durationTicks": 192,
          "midi": 58,
          "name": "A#3",
          "ticks": 26880,
          "time": 140,
          "velocity": 0.8661417322834646
        },
        {
          "duration": 1,
          "durationTicks": 192,
          "midi": 62,
          "name": "D4",
          "ticks": 26880,
          "time": 140,
          "velocity": 0.8661417322834646
        },
        {
          "duration": 1,
          "durationTicks": 192,
          "midi": 65,
          "name": "F4",
          "ticks": 26880,
          "time": 140,
          "velocity": 0.8661417322834646
        },
        {
          "duration": 1,
          "durationTicks": 192,
          "midi": 60,
          "name": "C4",
          "ticks": 27072,
          "time": 141,
          "velocity": 0.8661417322834646
        },
        {
          "duration": 1,
          "durationTicks": 192,
          "midi": 63,
          "name": "D#4",
          "ticks": 27072,
          "time": 141,
          "velocity": 0.8661417322834646
        },
        {
          "duration": 1,
          "durationTicks": 192,
          "midi": 67,
          "name": "G4",
          "ticks": 27072,
          "time": 141,
          "velocity": 0.8661417322834646
        },
        {
          "duration": 1,
          "durationTicks": 192,
          "midi": 60,
          "name": "C4",
          "ticks": 27264,
          "time": 142,
          "velocity": 0.8661417322834646
        },
        {
          "duration": 1,
          "durationTicks": 192,
          "midi": 63,
          "name": "D#4",
          "ticks": 27264,
          "time": 142,
          "velocity": 0.8661417322834646
        },
        {
          "duration": 1,
          "durationTicks": 192,
          "midi": 68,
          "name": "G#4",
          "ticks": 27264,
          "time": 142,
          "velocity": 0.8661417322834646
        },
        {
          "duration": 1,
          "durationTicks": 192,
          "midi": 58,
          "name": "A#3",
          "ticks": 27456,
          "time": 143,
          "velocity": 0.8661417322834646
        },
        {
          "duration": 1,
          "durationTicks": 192,
          "midi": 63,
          "name": "D#4",
          "ticks": 27456,
          "time": 143,
          "velocity": 0.8661417322834646
        },
        {
          "duration": 1,
          "durationTicks": 192,
          "midi": 67,
          "name": "G4",
          "ticks": 27456,
          "time": 143,
          "velocity": 0.8661417322834646
        },
        {
          "duration": 1,
          "durationTicks": 192,
          "midi": 58,
          "name": "A#3",
          "ticks": 27648,
          "time": 144,
          "velocity": 0.8661417322834646
        },
        {
          "duration": 1,
          "durationTicks": 192,
          "midi": 62,
          "name": "D4",
          "ticks": 27648,
          "time": 144,
          "velocity": 0.8661417322834646
        },
        {
          "duration": 1,
          "durationTicks": 192,
          "midi": 65,
          "name": "F4",
          "ticks": 27648,
          "time": 144,
          "velocity": 0.8661417322834646
        },
        {
          "duration": 1,
          "durationTicks": 192,
          "midi": 60,
          "name": "C4",
          "ticks": 27840,
          "time": 145,
          "velocity": 0.8661417322834646
        },
        {
          "duration": 1,
          "durationTicks": 192,
          "midi": 63,
          "name": "D#4",
          "ticks": 27840,
          "time": 145,
          "velocity": 0.8661417322834646
        },
        {
          "duration": 1,
          "durationTicks": 192,
          "midi": 67,
          "name": "G4",
          "ticks": 27840,
          "time": 145,
          "velocity": 0.8661417322834646
        },
        {
          "duration": 1,
          "durationTicks": 192,
          "midi": 60,
          "name": "C4",
          "ticks": 28032,
          "time": 146,
          "velocity": 0.8661417322834646
        },
        {
          "duration": 1,
          "durationTicks": 192,
          "midi": 63,
          "name": "D#4",
          "ticks": 28032,
          "time": 146,
          "velocity": 0.8661417322834646
        },
        {
          "duration": 1,
          "durationTicks": 192,
          "midi": 68,
          "name": "G#4",
          "ticks": 28032,
          "time": 146,
          "velocity": 0.8661417322834646
        },
        {
          "duration": 1,
          "durationTicks": 192,
          "midi": 58,
          "name": "A#3",
          "ticks": 28224,
          "time": 147,
          "velocity": 0.8661417322834646
        },
        {
          "duration": 1,
          "durationTicks": 192,
          "midi": 63,
          "name": "D#4",
          "ticks": 28224,
          "time": 147,
          "velocity": 0.8661417322834646
        },
        {
          "duration": 1,
          "durationTicks": 192,
          "midi": 67,
          "name": "G4",
          "ticks": 28224,
          "time": 147,
          "velocity": 0.8661417322834646
        },
        {
          "duration": 1,
          "durationTicks": 192,
          "midi": 58,
          "name": "A#3",
          "ticks": 28416,
          "time": 148,
          "velocity": 0.8661417322834646
        },
        {
          "duration": 1,
          "durationTicks": 192,
          "midi": 62,
          "name": "D4",
          "ticks": 28416,
          "time": 148,
          "velocity": 0.8661417322834646
        },
        {
          "duration": 1,
          "durationTicks": 192,
          "midi": 65,
          "name": "F4",
          "ticks": 28416,
          "time": 148,
          "velocity": 0.8661417322834646
        },
        {
          "duration": 1,
          "durationTicks": 192,
          "midi": 60,
          "name": "C4",
          "ticks": 28608,
          "time": 149,
          "velocity": 0.8661417322834646
        },
        {
          "duration": 1,
          "durationTicks": 192,
          "midi": 63,
          "name": "D#4",
          "ticks": 28608,
          "time": 149,
          "velocity": 0.8661417322834646
        },
        {
          "duration": 1,
          "durationTicks": 192,
          "midi": 67,
          "name": "G4",
          "ticks": 28608,
          "time": 149,
          "velocity": 0.8661417322834646
        },
        {
          "duration": 1,
          "durationTicks": 192,
          "midi": 60,
          "name": "C4",
          "ticks": 28800,
          "time": 150,
          "velocity": 0.8661417322834646
        },
        {
          "duration": 1,
          "durationTicks": 192,
          "midi": 63,
          "name": "D#4",
          "ticks": 28800,
          "time": 150,
          "velocity": 0.8661417322834646
        },
        {
          "duration": 1,
          "durationTicks": 192,
          "midi": 68,
          "name": "G#4",
          "ticks": 28800,
          "time": 150,
          "velocity": 0.8661417322834646
        },
        {
          "duration": 1,
          "durationTicks": 192,
          "midi": 58,
          "name": "A#3",
          "ticks": 28992,
          "time": 151,
          "velocity": 0.8661417322834646
        },
        {
          "duration": 1,
          "durationTicks": 192,
          "midi": 63,
          "name": "D#4",
          "ticks": 28992,
          "time": 151,
          "velocity": 0.8661417322834646
        },
        {
          "duration": 1,
          "durationTicks": 192,
          "midi": 67,
          "name": "G4",
          "ticks": 28992,
          "time": 151,
          "velocity": 0.8661417322834646
        },
        {
          "duration": 1,
          "durationTicks": 192,
          "midi": 58,
          "name": "A#3",
          "ticks": 29184,
          "time": 152,
          "velocity": 0.8661417322834646
        },
        {
          "duration": 1,
          "durationTicks": 192,
          "midi": 62,
          "name": "D4",
          "ticks": 29184,
          "time": 152,
          "velocity": 0.8661417322834646
        },
        {
          "duration": 1,
          "durationTicks": 192,
          "midi": 65,
          "name": "F4",
          "ticks": 29184,
          "time": 152,
          "velocity": 0.8661417322834646
        },
        {
          "duration": 1,
          "durationTicks": 192,
          "midi": 60,
          "name": "C4",
          "ticks": 29376,
          "time": 153,
          "velocity": 0.8661417322834646
        },
        {
          "duration": 1,
          "durationTicks": 192,
          "midi": 63,
          "name": "D#4",
          "ticks": 29376,
          "time": 153,
          "velocity": 0.8661417322834646
        },
        {
          "duration": 1,
          "durationTicks": 192,
          "midi": 67,
          "name": "G4",
          "ticks": 29376,
          "time": 153,
          "velocity": 0.8661417322834646
        },
        {
          "duration": 1,
          "durationTicks": 192,
          "midi": 60,
          "name": "C4",
          "ticks": 29568,
          "time": 154,
          "velocity": 0.8661417322834646
        },
        {
          "duration": 1,
          "durationTicks": 192,
          "midi": 63,
          "name": "D#4",
          "ticks": 29568,
          "time": 154,
          "velocity": 0.8661417322834646
        },
        {
          "duration": 1,
          "durationTicks": 192,
          "midi": 68,
          "name": "G#4",
          "ticks": 29568,
          "time": 154,
          "velocity": 0.8661417322834646
        },
        {
          "duration": 1,
          "durationTicks": 192,
          "midi": 58,
          "name": "A#3",
          "ticks": 29760,
          "time": 155,
          "velocity": 0.8661417322834646
        },
        {
          "duration": 1,
          "durationTicks": 192,
          "midi": 63,
          "name": "D#4",
          "ticks": 29760,
          "time": 155,
          "velocity": 0.8661417322834646
        },
        {
          "duration": 1,
          "durationTicks": 192,
          "midi": 67,
          "name": "G4",
          "ticks": 29760,
          "time": 155,
          "velocity": 0.8661417322834646
        },
        {
          "duration": 1,
          "durationTicks": 192,
          "midi": 58,
          "name": "A#3",
          "ticks": 29952,
          "time": 156,
          "velocity": 0.8661417322834646
        },
        {
          "duration": 1,
          "durationTicks": 192,
          "midi": 62,
          "name": "D4",
          "ticks": 29952,
          "time": 156,
          "velocity": 0.8661417322834646
        },
        {
          "duration": 1,
          "durationTicks": 192,
          "midi": 65,
          "name": "F4",
          "ticks": 29952,
          "time": 156,
          "velocity": 0.8661417322834646
        },
        {
          "duration": 1,
          "durationTicks": 192,
          "midi": 60,
          "name": "C4",
          "ticks": 30144,
          "time": 157,
          "velocity": 0.8661417322834646
        },
        {
          "duration": 1,
          "durationTicks": 192,
          "midi": 63,
          "name": "D#4",
          "ticks": 30144,
          "time": 157,
          "velocity": 0.8661417322834646
        },
        {
          "duration": 1,
          "durationTicks": 192,
          "midi": 67,
          "name": "G4",
          "ticks": 30144,
          "time": 157,
          "velocity": 0.8661417322834646
        },
        {
          "duration": 1,
          "durationTicks": 192,
          "midi": 60,
          "name": "C4",
          "ticks": 30336,
          "time": 158,
          "velocity": 0.8661417322834646
        },
        {
          "duration": 1,
          "durationTicks": 192,
          "midi": 63,
          "name": "D#4",
          "ticks": 30336,
          "time": 158,
          "velocity": 0.8661417322834646
        },
        {
          "duration": 1,
          "durationTicks": 192,
          "midi": 68,
          "name": "G#4",
          "ticks": 30336,
          "time": 158,
          "velocity": 0.8661417322834646
        },
        {
          "duration": 1,
          "durationTicks": 192,
          "midi": 58,
          "name": "A#3",
          "ticks": 30528,
          "time": 159,
          "velocity": 0.8661417322834646
        },
        {
          "duration": 1,
          "durationTicks": 192,
          "midi": 63,
          "name": "D#4",
          "ticks": 30528,
          "time": 159,
          "velocity": 0.8661417322834646
        },
        {
          "duration": 1,
          "durationTicks": 192,
          "midi": 67,
          "name": "G4",
          "ticks": 30528,
          "time": 159,
          "velocity": 0.8661417322834646
        },
        {
          "duration": 1,
          "durationTicks": 192,
          "midi": 58,
          "name": "A#3",
          "ticks": 30720,
          "time": 160,
          "velocity": 0.8661417322834646
        },
        {
          "duration": 1,
          "durationTicks": 192,
          "midi": 62,
          "name": "D4",
          "ticks": 30720,
          "time": 160,
          "velocity": 0.8661417322834646
        },
        {
          "duration": 1,
          "durationTicks": 192,
          "midi": 65,
          "name": "F4",
          "ticks": 30720,
          "time": 160,
          "velocity": 0.8661417322834646
        },
        {
          "duration": 1,
          "durationTicks": 192,
          "midi": 60,
          "name": "C4",
          "ticks": 30912,
          "time": 161,
          "velocity": 0.8661417322834646
        },
        {
          "duration": 1,
          "durationTicks": 192,
          "midi": 63,
          "name": "D#4",
          "ticks": 30912,
          "time": 161,
          "velocity": 0.8661417322834646
        },
        {
          "duration": 1,
          "durationTicks": 192,
          "midi": 67,
          "name": "G4",
          "ticks": 30912,
          "time": 161,
          "velocity": 0.8661417322834646
        },
        {
          "duration": 1,
          "durationTicks": 192,
          "midi": 60,
          "name": "C4",
          "ticks": 31104,
          "time": 162,
          "velocity": 0.8661417322834646
        },
        {
          "duration": 1,
          "durationTicks": 192,
          "midi": 63,
          "name": "D#4",
          "ticks": 31104,
          "time": 162,
          "velocity": 0.8661417322834646
        },
        {
          "duration": 1,
          "durationTicks": 192,
          "midi": 68,
          "name": "G#4",
          "ticks": 31104,
          "time": 162,
          "velocity": 0.8661417322834646
        },
        {
          "duration": 1,
          "durationTicks": 192,
          "midi": 58,
          "name": "A#3",
          "ticks": 31296,
          "time": 163,
          "velocity": 0.8661417322834646
        },
        {
          "duration": 1,
          "durationTicks": 192,
          "midi": 63,
          "name": "D#4",
          "ticks": 31296,
          "time": 163,
          "velocity": 0.8661417322834646
        },
        {
          "duration": 1,
          "durationTicks": 192,
          "midi": 67,
          "name": "G4",
          "ticks": 31296,
          "time": 163,
          "velocity": 0.8661417322834646
        },
        {
          "duration": 1,
          "durationTicks": 192,
          "midi": 58,
          "name": "A#3",
          "ticks": 31488,
          "time": 164,
          "velocity": 0.8661417322834646
        },
        {
          "duration": 1,
          "durationTicks": 192,
          "midi": 62,
          "name": "D4",
          "ticks": 31488,
          "time": 164,
          "velocity": 0.8661417322834646
        },
        {
          "duration": 1,
          "durationTicks": 192,
          "midi": 65,
          "name": "F4",
          "ticks": 31488,
          "time": 164,
          "velocity": 0.8661417322834646
        },
        {
          "duration": 1,
          "durationTicks": 192,
          "midi": 60,
          "name": "C4",
          "ticks": 31680,
          "time": 165,
          "velocity": 0.8661417322834646
        },
        {
          "duration": 1,
          "durationTicks": 192,
          "midi": 63,
          "name": "D#4",
          "ticks": 31680,
          "time": 165,
          "velocity": 0.8661417322834646
        },
        {
          "duration": 1,
          "durationTicks": 192,
          "midi": 67,
          "name": "G4",
          "ticks": 31680,
          "time": 165,
          "velocity": 0.8661417322834646
        },
        {
          "duration": 1,
          "durationTicks": 192,
          "midi": 60,
          "name": "C4",
          "ticks": 31872,
          "time": 166,
          "velocity": 0.8661417322834646
        },
        {
          "duration": 1,
          "durationTicks": 192,
          "midi": 63,
          "name": "D#4",
          "ticks": 31872,
          "time": 166,
          "velocity": 0.8661417322834646
        },
        {
          "duration": 1,
          "durationTicks": 192,
          "midi": 68,
          "name": "G#4",
          "ticks": 31872,
          "time": 166,
          "velocity": 0.8661417322834646
        },
        {
          "duration": 1,
          "durationTicks": 192,
          "midi": 58,
          "name": "A#3",
          "ticks": 32064,
          "time": 167,
          "velocity": 0.8661417322834646
        },
        {
          "duration": 1,
          "durationTicks": 192,
          "midi": 63,
          "name": "D#4",
          "ticks": 32064,
          "time": 167,
          "velocity": 0.8661417322834646
        },
        {
          "duration": 1,
          "durationTicks": 192,
          "midi": 67,
          "name": "G4",
          "ticks": 32064,
          "time": 167,
          "velocity": 0.8661417322834646
        },
        {
          "duration": 1,
          "durationTicks": 192,
          "midi": 58,
          "name": "A#3",
          "ticks": 32256,
          "time": 168,
          "velocity": 0.8661417322834646
        },
        {
          "duration": 1,
          "durationTicks": 192,
          "midi": 62,
          "name": "D4",
          "ticks": 32256,
          "time": 168,
          "velocity": 0.8661417322834646
        },
        {
          "duration": 1,
          "durationTicks": 192,
          "midi": 65,
          "name": "F4",
          "ticks": 32256,
          "time": 168,
          "velocity": 0.8661417322834646
        },
        {
          "duration": 1,
          "durationTicks": 192,
          "midi": 60,
          "name": "C4",
          "ticks": 32448,
          "time": 169,
          "velocity": 0.8661417322834646
        },
        {
          "duration": 1,
          "durationTicks": 192,
          "midi": 63,
          "name": "D#4",
          "ticks": 32448,
          "time": 169,
          "velocity": 0.8661417322834646
        },
        {
          "duration": 1,
          "durationTicks": 192,
          "midi": 67,
          "name": "G4",
          "ticks": 32448,
          "time": 169,
          "velocity": 0.8661417322834646
        },
        {
          "duration": 1,
          "durationTicks": 192,
          "midi": 60,
          "name": "C4",
          "ticks": 32640,
          "time": 170,
          "velocity": 0.8661417322834646
        },
        {
          "duration": 1,
          "durationTicks": 192,
          "midi": 63,
          "name": "D#4",
          "ticks": 32640,
          "time": 170,
          "velocity": 0.8661417322834646
        },
        {
          "duration": 1,
          "durationTicks": 192,
          "midi": 68,
          "name": "G#4",
          "ticks": 32640,
          "time": 170,
          "velocity": 0.8661417322834646
        },
        {
          "duration": 1,
          "durationTicks": 192,
          "midi": 58,
          "name": "A#3",
          "ticks": 32832,
          "time": 171,
          "velocity": 0.8661417322834646
        },
        {
          "duration": 1,
          "durationTicks": 192,
          "midi": 63,
          "name": "D#4",
          "ticks": 32832,
          "time": 171,
          "velocity": 0.8661417322834646
        },
        {
          "duration": 1,
          "durationTicks": 192,
          "midi": 67,
          "name": "G4",
          "ticks": 32832,
          "time": 171,
          "velocity": 0.8661417322834646
        },
        {
          "duration": 1,
          "durationTicks": 192,
          "midi": 58,
          "name": "A#3",
          "ticks": 33024,
          "time": 172,
          "velocity": 0.8661417322834646
        },
        {
          "duration": 1,
          "durationTicks": 192,
          "midi": 62,
          "name": "D4",
          "ticks": 33024,
          "time": 172,
          "velocity": 0.8661417322834646
        },
        {
          "duration": 1,
          "durationTicks": 192,
          "midi": 65,
          "name": "F4",
          "ticks": 33024,
          "time": 172,
          "velocity": 0.8661417322834646
        },
        {
          "duration": 1,
          "durationTicks": 192,
          "midi": 60,
          "name": "C4",
          "ticks": 33216,
          "time": 173,
          "velocity": 0.8661417322834646
        },
        {
          "duration": 1,
          "durationTicks": 192,
          "midi": 63,
          "name": "D#4",
          "ticks": 33216,
          "time": 173,
          "velocity": 0.8661417322834646
        },
        {
          "duration": 1,
          "durationTicks": 192,
          "midi": 67,
          "name": "G4",
          "ticks": 33216,
          "time": 173,
          "velocity": 0.8661417322834646
        },
        {
          "duration": 1,
          "durationTicks": 192,
          "midi": 60,
          "name": "C4",
          "ticks": 33408,
          "time": 174,
          "velocity": 0.8661417322834646
        },
        {
          "duration": 1,
          "durationTicks": 192,
          "midi": 63,
          "name": "D#4",
          "ticks": 33408,
          "time": 174,
          "velocity": 0.8661417322834646
        },
        {
          "duration": 1,
          "durationTicks": 192,
          "midi": 68,
          "name": "G#4",
          "ticks": 33408,
          "time": 174,
          "velocity": 0.8661417322834646
        },
        {
          "duration": 1,
          "durationTicks": 192,
          "midi": 58,
          "name": "A#3",
          "ticks": 33600,
          "time": 175,
          "velocity": 0.8661417322834646
        },
        {
          "duration": 1,
          "durationTicks": 192,
          "midi": 63,
          "name": "D#4",
          "ticks": 33600,
          "time": 175,
          "velocity": 0.8661417322834646
        },
        {
          "duration": 1,
          "durationTicks": 192,
          "midi": 67,
          "name": "G4",
          "ticks": 33600,
          "time": 175,
          "velocity": 0.8661417322834646
        },
        {
          "duration": 1,
          "durationTicks": 192,
          "midi": 58,
          "name": "A#3",
          "ticks": 33792,
          "time": 176,
          "velocity": 0.8661417322834646
        },
        {
          "duration": 1,
          "durationTicks": 192,
          "midi": 62,
          "name": "D4",
          "ticks": 33792,
          "time": 176,
          "velocity": 0.8661417322834646
        },
        {
          "duration": 1,
          "durationTicks": 192,
          "midi": 65,
          "name": "F4",
          "ticks": 33792,
          "time": 176,
          "velocity": 0.8661417322834646
        }
      ]
    },
    {
      "channel": 0,
      "controlChanges": {
        "6": [
          {
            "number": 6,
            "ticks": 0,
            "time": 0,
            "value": 0.09448818897637795
          },
          {
            "number": 6,
            "ticks": 0,
            "time": 0,
            "value": 0.09448818897637795
          },
          {
            "number": 6,
            "ticks": 0,
            "time": 0,
            "value": 0.09448818897637795
          }
        ],
        "7": [
          {
            "number": 7,
            "ticks": 0,
            "time": 0,
            "value": 1
          },
          {
            "number": 7,
            "ticks": 0,
            "time": 0,
            "value": 1
          },
          {
            "number": 7,
            "ticks": 0,
            "time": 0,
            "value": 1
          },
          {
            "number": 7,
            "ticks": 0,
            "time": 0,
            "value": 1
          },
          {
            "number": 7,
            "ticks": 0,
            "time": 0,
            "value": 1
          },
          {
            "number": 7,
            "ticks": 0,
            "time": 0,
            "value": 1
          }
        ],
        "10": [
          {
            "number": 10,
            "ticks": 0,
            "time": 0,
            "value": 0.5039370078740157
          },
          {
            "number": 10,
            "ticks": 0,
            "time": 0,
            "value": 0.5039370078740157
          },
          {
            "number": 10,
            "ticks": 0,
            "time": 0,
            "value": 0.5039370078740157
          },
          {
            "number": 10,
            "ticks": 0,
            "time": 0,
            "value": 0.5039370078740157
          },
          {
            "number": 10,
            "ticks": 0,
            "time": 0,
            "value": 0.5039370078740157
          },
          {
            "number": 10,
            "ticks": 0,
            "time": 0,
            "value": 0.5039370078740157
          }
        ],
        "100": [
          {
            "number": 100,
            "ticks": 0,
            "time": 0,
            "value": 0
          },
          {
            "number": 100,
            "ticks": 0,
            "time": 0,
            "value": 0
          },
          {
            "number": 100,
            "ticks": 0,
            "time": 0,
            "value": 0
          }
        ],
        "101": [
          {
            "number": 101,
            "ticks": 0,
            "time": 0,
            "value": 0
          },
          {
            "number": 101,
            "ticks": 0,
            "time": 0,
            "value": 0
          },
          {
            "number": 101,
            "ticks": 0,
            "time": 0,
            "value": 0
          }
        ]
      },
      "pitchBends": [
        {
          "ticks": 0,
          "time": 0,
          "value": 0
        },
        {
          "ticks": 0,
          "time": 0,
          "value": 0
        },
        {
          "ticks": 0,
          "time": 0,
          "value": 0
        },
        {
          "ticks": 0,
          "time": 0,
          "value": 0
        }
      ],
      "instrument": {
        "family": "piano",
        "number": 0,
        "name": "acoustic grand piano"
      },
      "name": "Synth Bass",
      "notes": [],
      "endOfTrackTicks": 34195
    },
    {
      "channel": 3,
      "controlChanges": {
        "6": [
          {
            "number": 6,
            "ticks": 34176,
            "time": 178,
            "value": 0.09448818897637795
          },
          {
            "number": 6,
            "ticks": 34177,
            "time": 178.00520833333334,
            "value": 0.09448818897637795
          }
        ],
        "7": [
          {
            "number": 7,
            "ticks": 34176,
            "time": 178,
            "value": 1
          },
          {
            "number": 7,
            "ticks": 34176,
            "time": 178,
            "value": 1
          },
          {
            "number": 7,
            "ticks": 34177,
            "time": 178.00520833333334,
            "value": 1
          }
        ],
        "10": [
          {
            "number": 10,
            "ticks": 34176,
            "time": 178,
            "value": 0.5039370078740157
          },
          {
            "number": 10,
            "ticks": 34176,
            "time": 178,
            "value": 0.5039370078740157
          },
          {
            "number": 10,
            "ticks": 34177,
            "time": 178.00520833333334,
            "value": 0.5039370078740157
          }
        ],
        "100": [
          {
            "number": 100,
            "ticks": 34176,
            "time": 178,
            "value": 0
          },
          {
            "number": 100,
            "ticks": 34177,
            "time": 178.00520833333334,
            "value": 0
          }
        ],
        "101": [
          {
            "number": 101,
            "ticks": 34176,
            "time": 178,
            "value": 0
          },
          {
            "number": 101,
            "ticks": 34177,
            "time": 178.00520833333334,
            "value": 0
          }
        ]
      },
      "pitchBends": [
        {
          "ticks": 34176,
          "time": 178,
          "value": 0
        },
        {
          "ticks": 34177,
          "time": 178.00520833333334,
          "value": 0
        }
      ],
      "instrument": {
        "family": "bass",
        "number": 39,
        "name": "synth bass 2"
      },
      "name": "",
      "notes": [
        {
          "duration": 0.24479166666666785,
          "durationTicks": 47,
          "midi": 36,
          "name": "C2",
          "ticks": 4032,
          "time": 21,
          "velocity": 0.8661417322834646
        },
        {
          "duration": 0.24479166666666785,
          "durationTicks": 47,
          "midi": 48,
          "name": "C3",
          "ticks": 4080,
          "time": 21.25,
          "velocity": 0.8661417322834646
        },
        {
          "duration": 0.24479166666666785,
          "durationTicks": 47,
          "midi": 43,
          "name": "G2",
          "ticks": 4080,
          "time": 21.25,
          "velocity": 0.8661417322834646
        },
        {
          "duration": 0.24479166666666785,
          "durationTicks": 47,
          "midi": 48,
          "name": "C3",
          "ticks": 4176,
          "time": 21.75,
          "velocity": 0.8661417322834646
        },
        {
          "duration": 0.24479166666666785,
          "durationTicks": 47,
          "midi": 43,
          "name": "G2",
          "ticks": 4176,
          "time": 21.75,
          "velocity": 0.8661417322834646
        },
        {
          "duration": 0.24479166666666785,
          "durationTicks": 47,
          "midi": 32,
          "name": "G#1",
          "ticks": 4224,
          "time": 22,
          "velocity": 0.8661417322834646
        },
        {
          "duration": 0.24479166666666785,
          "durationTicks": 47,
          "midi": 44,
          "name": "G#2",
          "ticks": 4272,
          "time": 22.25,
          "velocity": 0.8661417322834646
        },
        {
          "duration": 0.24479166666666785,
          "durationTicks": 47,
          "midi": 39,
          "name": "D#2",
          "ticks": 4272,
          "time": 22.25,
          "velocity": 0.8661417322834646
        },
        {
          "duration": 0.24479166666666785,
          "durationTicks": 47,
          "midi": 44,
          "name": "G#2",
          "ticks": 4368,
          "time": 22.75,
          "velocity": 0.8661417322834646
        },
        {
          "duration": 0.24479166666666785,
          "durationTicks": 47,
          "midi": 39,
          "name": "D#2",
          "ticks": 4368,
          "time": 22.75,
          "velocity": 0.8661417322834646
        },
        {
          "duration": 0.24479166666666785,
          "durationTicks": 47,
          "midi": 39,
          "name": "D#2",
          "ticks": 4416,
          "time": 23,
          "velocity": 0.8661417322834646
        },
        {
          "duration": 0.24479166666666785,
          "durationTicks": 47,
          "midi": 51,
          "name": "D#3",
          "ticks": 4464,
          "time": 23.25,
          "velocity": 0.8661417322834646
        },
        {
          "duration": 0.24479166666666785,
          "durationTicks": 47,
          "midi": 46,
          "name": "A#2",
          "ticks": 4464,
          "time": 23.25,
          "velocity": 0.8661417322834646
        },
        {
          "duration": 0.24479166666666785,
          "durationTicks": 47,
          "midi": 51,
          "name": "D#3",
          "ticks": 4560,
          "time": 23.75,
          "velocity": 0.8661417322834646
        },
        {
          "duration": 0.24479166666666785,
          "durationTicks": 47,
          "midi": 46,
          "name": "A#2",
          "ticks": 4560,
          "time": 23.75,
          "velocity": 0.8661417322834646
        },
        {
          "duration": 0.24479166666666785,
          "durationTicks": 47,
          "midi": 34,
          "name": "A#1",
          "ticks": 4608,
          "time": 24,
          "velocity": 0.8661417322834646
        },
        {
          "duration": 0.24479166666666785,
          "durationTicks": 47,
          "midi": 41,
          "name": "F2",
          "ticks": 4656,
          "time": 24.25,
          "velocity": 0.8661417322834646
        },
        {
          "duration": 0.24479166666666785,
          "durationTicks": 47,
          "midi": 46,
          "name": "A#2",
          "ticks": 4656,
          "time": 24.25,
          "velocity": 0.8661417322834646
        },
        {
          "duration": 0.24479166666666785,
          "durationTicks": 47,
          "midi": 41,
          "name": "F2",
          "ticks": 4752,
          "time": 24.75,
          "velocity": 0.8661417322834646
        },
        {
          "duration": 0.24479166666666785,
          "durationTicks": 47,
          "midi": 46,
          "name": "A#2",
          "ticks": 4752,
          "time": 24.75,
          "velocity": 0.8661417322834646
        },
        {
          "duration": 0.24479166666666785,
          "durationTicks": 47,
          "midi": 36,
          "name": "C2",
          "ticks": 4800,
          "time": 25,
          "velocity": 0.8661417322834646
        },
        {
          "duration": 0.24479166666666785,
          "durationTicks": 47,
          "midi": 43,
          "name": "G2",
          "ticks": 4848,
          "time": 25.25,
          "velocity": 0.8661417322834646
        },
        {
          "duration": 0.24479166666666785,
          "durationTicks": 47,
          "midi": 48,
          "name": "C3",
          "ticks": 4848,
          "time": 25.25,
          "velocity": 0.8661417322834646
        },
        {
          "duration": 0.24479166666666785,
          "durationTicks": 47,
          "midi": 48,
          "name": "C3",
          "ticks": 4944,
          "time": 25.75,
          "velocity": 0.8661417322834646
        },
        {
          "duration": 0.24479166666666785,
          "durationTicks": 47,
          "midi": 43,
          "name": "G2",
          "ticks": 4944,
          "time": 25.75,
          "velocity": 0.8661417322834646
        },
        {
          "duration": 0.24479166666666785,
          "durationTicks": 47,
          "midi": 32,
          "name": "G#1",
          "ticks": 4992,
          "time": 26,
          "velocity": 0.8661417322834646
        },
        {
          "duration": 0.24479166666666785,
          "durationTicks": 47,
          "midi": 39,
          "name": "D#2",
          "ticks": 5040,
          "time": 26.25,
          "velocity": 0.8661417322834646
        },
        {
          "duration": 0.24479166666666785,
          "durationTicks": 47,
          "midi": 44,
          "name": "G#2",
          "ticks": 5040,
          "time": 26.25,
          "velocity": 0.8661417322834646
        },
        {
          "duration": 0.24479166666666785,
          "durationTicks": 47,
          "midi": 39,
          "name": "D#2",
          "ticks": 5136,
          "time": 26.75,
          "velocity": 0.8661417322834646
        },
        {
          "duration": 0.24479166666666785,
          "durationTicks": 47,
          "midi": 44,
          "name": "G#2",
          "ticks": 5136,
          "time": 26.75,
          "velocity": 0.8661417322834646
        },
        {
          "duration": 0.24479166666666785,
          "durationTicks": 47,
          "midi": 39,
          "name": "D#2",
          "ticks": 5184,
          "time": 27,
          "velocity": 0.8661417322834646
        },
        {
          "duration": 0.24479166666666785,
          "durationTicks": 47,
          "midi": 51,
          "name": "D#3",
          "ticks": 5232,
          "time": 27.25,
          "velocity": 0.8661417322834646
        },
        {
          "duration": 0.24479166666666785,
          "durationTicks": 47,
          "midi": 46,
          "name": "A#2",
          "ticks": 5232,
          "time": 27.25,
          "velocity": 0.8661417322834646
        },
        {
          "duration": 0.24479166666666785,
          "durationTicks": 47,
          "midi": 51,
          "name": "D#3",
          "ticks": 5328,
          "time": 27.75,
          "velocity": 0.8661417322834646
        },
        {
          "duration": 0.24479166666666785,
          "durationTicks": 47,
          "midi": 46,
          "name": "A#2",
          "ticks": 5328,
          "time": 27.75,
          "velocity": 0.8661417322834646
        },
        {
          "duration": 0.24479166666666785,
          "durationTicks": 47,
          "midi": 34,
          "name": "A#1",
          "ticks": 5376,
          "time": 28,
          "velocity": 0.8661417322834646
        },
        {
          "duration": 0.24479166666666785,
          "durationTicks": 47,
          "midi": 41,
          "name": "F2",
          "ticks": 5424,
          "time": 28.25,
          "velocity": 0.8661417322834646
        },
        {
          "duration": 0.24479166666666785,
          "durationTicks": 47,
          "midi": 46,
          "name": "A#2",
          "ticks": 5424,
          "time": 28.25,
          "velocity": 0.8661417322834646
        },
        {
          "duration": 0.24479166666666785,
          "durationTicks": 47,
          "midi": 41,
          "name": "F2",
          "ticks": 5520,
          "time": 28.75,
          "velocity": 0.8661417322834646
        },
        {
          "duration": 0.24479166666666785,
          "durationTicks": 47,
          "midi": 46,
          "name": "A#2",
          "ticks": 5520,
          "time": 28.75,
          "velocity": 0.8661417322834646
        },
        {
          "duration": 0.24479166666666785,
          "durationTicks": 47,
          "midi": 36,
          "name": "C2",
          "ticks": 5568,
          "time": 29,
          "velocity": 0.8661417322834646
        },
        {
          "duration": 0.24479166666666785,
          "durationTicks": 47,
          "midi": 48,
          "name": "C3",
          "ticks": 5616,
          "time": 29.25,
          "velocity": 0.8661417322834646
        },
        {
          "duration": 0.24479166666666785,
          "durationTicks": 47,
          "midi": 43,
          "name": "G2",
          "ticks": 5616,
          "time": 29.25,
          "velocity": 0.8661417322834646
        },
        {
          "duration": 0.24479166666666785,
          "durationTicks": 47,
          "midi": 48,
          "name": "C3",
          "ticks": 5712,
          "time": 29.75,
          "velocity": 0.8661417322834646
        },
        {
          "duration": 0.24479166666666785,
          "durationTicks": 47,
          "midi": 43,
          "name": "G2",
          "ticks": 5712,
          "time": 29.75,
          "velocity": 0.8661417322834646
        },
        {
          "duration": 0.24479166666666785,
          "durationTicks": 47,
          "midi": 32,
          "name": "G#1",
          "ticks": 5760,
          "time": 30,
          "velocity": 0.8661417322834646
        },
        {
          "duration": 0.24479166666666785,
          "durationTicks": 47,
          "midi": 39,
          "name": "D#2",
          "ticks": 5808,
          "time": 30.25,
          "velocity": 0.8661417322834646
        },
        {
          "duration": 0.24479166666666785,
          "durationTicks": 47,
          "midi": 44,
          "name": "G#2",
          "ticks": 5808,
          "time": 30.25,
          "velocity": 0.8661417322834646
        },
        {
          "duration": 0.24479166666666785,
          "durationTicks": 47,
          "midi": 44,
          "name": "G#2",
          "ticks": 5904,
          "time": 30.75,
          "velocity": 0.8661417322834646
        },
        {
          "duration": 0.24479166666666785,
          "durationTicks": 47,
          "midi": 39,
          "name": "D#2",
          "ticks": 5904,
          "time": 30.75,
          "velocity": 0.8661417322834646
        },
        {
          "duration": 0.24479166666666785,
          "durationTicks": 47,
          "midi": 39,
          "name": "D#2",
          "ticks": 5952,
          "time": 31,
          "velocity": 0.8661417322834646
        },
        {
          "duration": 0.24479166666666785,
          "durationTicks": 47,
          "midi": 46,
          "name": "A#2",
          "ticks": 6000,
          "time": 31.25,
          "velocity": 0.8661417322834646
        },
        {
          "duration": 0.24479166666666785,
          "durationTicks": 47,
          "midi": 51,
          "name": "D#3",
          "ticks": 6000,
          "time": 31.25,
          "velocity": 0.8661417322834646
        },
        {
          "duration": 0.24479166666666785,
          "durationTicks": 47,
          "midi": 51,
          "name": "D#3",
          "ticks": 6096,
          "time": 31.75,
          "velocity": 0.8661417322834646
        },
        {
          "duration": 0.24479166666666785,
          "durationTicks": 47,
          "midi": 46,
          "name": "A#2",
          "ticks": 6096,
          "time": 31.75,
          "velocity": 0.8661417322834646
        },
        {
          "duration": 0.2447916666666643,
          "durationTicks": 47,
          "midi": 34,
          "name": "A#1",
          "ticks": 6144,
          "time": 32,
          "velocity": 0.8661417322834646
        },
        {
          "duration": 0.2447916666666643,
          "durationTicks": 47,
          "midi": 41,
          "name": "F2",
          "ticks": 6192,
          "time": 32.25,
          "velocity": 0.8661417322834646
        },
        {
          "duration": 0.2447916666666643,
          "durationTicks": 47,
          "midi": 46,
          "name": "A#2",
          "ticks": 6192,
          "time": 32.25,
          "velocity": 0.8661417322834646
        },
        {
          "duration": 0.2447916666666643,
          "durationTicks": 47,
          "midi": 46,
          "name": "A#2",
          "ticks": 6288,
          "time": 32.75,
          "velocity": 0.8661417322834646
        },
        {
          "duration": 0.2447916666666643,
          "durationTicks": 47,
          "midi": 41,
          "name": "F2",
          "ticks": 6288,
          "time": 32.75,
          "velocity": 0.8661417322834646
        },
        {
          "duration": 0.2447916666666643,
          "durationTicks": 47,
          "midi": 36,
          "name": "C2",
          "ticks": 6336,
          "time": 33,
          "velocity": 0.8661417322834646
        },
        {
          "duration": 0.2447916666666643,
          "durationTicks": 47,
          "midi": 43,
          "name": "G2",
          "ticks": 6384,
          "time": 33.25,
          "velocity": 0.8661417322834646
        },
        {
          "duration": 0.2447916666666643,
          "durationTicks": 47,
          "midi": 48,
          "name": "C3",
          "ticks": 6384,
          "time": 33.25,
          "velocity": 0.8661417322834646
        },
        {
          "duration": 0.2447916666666643,
          "durationTicks": 47,
          "midi": 48,
          "name": "C3",
          "ticks": 6480,
          "time": 33.75,
          "velocity": 0.8661417322834646
        },
        {
          "duration": 0.2447916666666643,
          "durationTicks": 47,
          "midi": 43,
          "name": "G2",
          "ticks": 6480,
          "time": 33.75,
          "velocity": 0.8661417322834646
        },
        {
          "duration": 0.2447916666666643,
          "durationTicks": 47,
          "midi": 32,
          "name": "G#1",
          "ticks": 6528,
          "time": 34,
          "velocity": 0.8661417322834646
        },
        {
          "duration": 0.2447916666666643,
          "durationTicks": 47,
          "midi": 39,
          "name": "D#2",
          "ticks": 6576,
          "time": 34.25,
          "velocity": 0.8661417322834646
        },
        {
          "duration": 0.2447916666666643,
          "durationTicks": 47,
          "midi": 44,
          "name": "G#2",
          "ticks": 6576,
          "time": 34.25,
          "velocity": 0.8661417322834646
        },
        {
          "duration": 0.2447916666666643,
          "durationTicks": 47,
          "midi": 39,
          "name": "D#2",
          "ticks": 6672,
          "time": 34.75,
          "velocity": 0.8661417322834646
        },
        {
          "duration": 0.2447916666666643,
          "durationTicks": 47,
          "midi": 44,
          "name": "G#2",
          "ticks": 6672,
          "time": 34.75,
          "velocity": 0.8661417322834646
        },
        {
          "duration": 0.2447916666666643,
          "durationTicks": 47,
          "midi": 39,
          "name": "D#2",
          "ticks": 6720,
          "time": 35,
          "velocity": 0.8661417322834646
        },
        {
          "duration": 0.2447916666666643,
          "durationTicks": 47,
          "midi": 46,
          "name": "A#2",
          "ticks": 6768,
          "time": 35.25,
          "velocity": 0.8661417322834646
        },
        {
          "duration": 0.2447916666666643,
          "durationTicks": 47,
          "midi": 51,
          "name": "D#3",
          "ticks": 6768,
          "time": 35.25,
          "velocity": 0.8661417322834646
        },
        {
          "duration": 0.2447916666666643,
          "durationTicks": 47,
          "midi": 51,
          "name": "D#3",
          "ticks": 6864,
          "time": 35.75,
          "velocity": 0.8661417322834646
        },
        {
          "duration": 0.2447916666666643,
          "durationTicks": 47,
          "midi": 46,
          "name": "A#2",
          "ticks": 6864,
          "time": 35.75,
          "velocity": 0.8661417322834646
        },
        {
          "duration": 0.2447916666666643,
          "durationTicks": 47,
          "midi": 34,
          "name": "A#1",
          "ticks": 6912,
          "time": 36,
          "velocity": 0.8661417322834646
        },
        {
          "duration": 0.2447916666666643,
          "durationTicks": 47,
          "midi": 46,
          "name": "A#2",
          "ticks": 6960,
          "time": 36.25,
          "velocity": 0.8661417322834646
        },
        {
          "duration": 0.2447916666666643,
          "durationTicks": 47,
          "midi": 41,
          "name": "F2",
          "ticks": 6960,
          "time": 36.25,
          "velocity": 0.8661417322834646
        },
        {
          "duration": 0.2447916666666643,
          "durationTicks": 47,
          "midi": 46,
          "name": "A#2",
          "ticks": 7056,
          "time": 36.75,
          "velocity": 0.8661417322834646
        },
        {
          "duration": 0.2447916666666643,
          "durationTicks": 47,
          "midi": 41,
          "name": "F2",
          "ticks": 7056,
          "time": 36.75,
          "velocity": 0.8661417322834646
        },
        {
          "duration": 0.875,
          "durationTicks": 168,
          "midi": 36,
          "name": "C2",
          "ticks": 7104,
          "time": 37,
          "velocity": 0.8661417322834646
        },
        {
          "duration": 0.875,
          "durationTicks": 168,
          "midi": 32,
          "name": "G#1",
          "ticks": 7296,
          "time": 38,
          "velocity": 0.8661417322834646
        },
        {
          "duration": 0.875,
          "durationTicks": 168,
          "midi": 39,
          "name": "D#2",
          "ticks": 7488,
          "time": 39,
          "velocity": 0.8661417322834646
        },
        {
          "duration": 0.875,
          "durationTicks": 168,
          "midi": 34,
          "name": "A#1",
          "ticks": 7680,
          "time": 40,
          "velocity": 0.8661417322834646
        },
        {
          "duration": 0.875,
          "durationTicks": 168,
          "midi": 36,
          "name": "C2",
          "ticks": 7872,
          "time": 41,
          "velocity": 0.8661417322834646
        },
        {
          "duration": 0.875,
          "durationTicks": 168,
          "midi": 32,
          "name": "G#1",
          "ticks": 8064,
          "time": 42,
          "velocity": 0.8661417322834646
        },
        {
          "duration": 0.875,
          "durationTicks": 168,
          "midi": 39,
          "name": "D#2",
          "ticks": 8256,
          "time": 43,
          "velocity": 0.8661417322834646
        },
        {
          "duration": 0.875,
          "durationTicks": 168,
          "midi": 34,
          "name": "A#1",
          "ticks": 8448,
          "time": 44,
          "velocity": 0.8661417322834646
        },
        {
          "duration": 0.875,
          "durationTicks": 168,
          "midi": 36,
          "name": "C2",
          "ticks": 8640,
          "time": 45,
          "velocity": 0.8661417322834646
        },
        {
          "duration": 0.875,
          "durationTicks": 168,
          "midi": 32,
          "name": "G#1",
          "ticks": 8832,
          "time": 46,
          "velocity": 0.8661417322834646
        },
        {
          "duration": 0.875,
          "durationTicks": 168,
          "midi": 39,
          "name": "D#2",
          "ticks": 9024,
          "time": 47,
          "velocity": 0.8661417322834646
        },
        {
          "duration": 0.875,
          "durationTicks": 168,
          "midi": 34,
          "name": "A#1",
          "ticks": 9216,
          "time": 48,
          "velocity": 0.8661417322834646
        },
        {
          "duration": 0.875,
          "durationTicks": 168,
          "midi": 36,
          "name": "C2",
          "ticks": 9408,
          "time": 49,
          "velocity": 0.8661417322834646
        },
        {
          "duration": 0.875,
          "durationTicks": 168,
          "midi": 32,
          "name": "G#1",
          "ticks": 9600,
          "time": 50,
          "velocity": 0.8661417322834646
        },
        {
          "duration": 0.875,
          "durationTicks": 168,
          "midi": 39,
          "name": "D#2",
          "ticks": 9792,
          "time": 51,
          "velocity": 0.8661417322834646
        },
        {
          "duration": 0.875,
          "durationTicks": 168,
          "midi": 34,
          "name": "A#1",
          "ticks": 9984,
          "time": 52,
          "velocity": 0.8661417322834646
        },
        {
          "duration": 0.875,
          "durationTicks": 168,
          "midi": 36,
          "name": "C2",
          "ticks": 10176,
          "time": 53,
          "velocity": 0.8661417322834646
        },
        {
          "duration": 0.875,
          "durationTicks": 168,
          "midi": 32,
          "name": "G#1",
          "ticks": 10368,
          "time": 54,
          "velocity": 0.8661417322834646
        },
        {
          "duration": 0.875,
          "durationTicks": 168,
          "midi": 39,
          "name": "D#2",
          "ticks": 10560,
          "time": 55,
          "velocity": 0.8661417322834646
        },
        {
          "duration": 0.875,
          "durationTicks": 168,
          "midi": 34,
          "name": "A#1",
          "ticks": 10752,
          "time": 56,
          "velocity": 0.8661417322834646
        },
        {
          "duration": 0.2447916666666643,
          "durationTicks": 47,
          "midi": 36,
          "name": "C2",
          "ticks": 10944,
          "time": 57,
          "velocity": 0.8661417322834646
        },
        {
          "duration": 0.2447916666666643,
          "durationTicks": 47,
          "midi": 43,
          "name": "G2",
          "ticks": 10992,
          "time": 57.25,
          "velocity": 0.8661417322834646
        },
        {
          "duration": 0.2447916666666643,
          "durationTicks": 47,
          "midi": 48,
          "name": "C3",
          "ticks": 10992,
          "time": 57.25,
          "velocity": 0.8661417322834646
        },
        {
          "duration": 0.2447916666666643,
          "durationTicks": 47,
          "midi": 43,
          "name": "G2",
          "ticks": 11088,
          "time": 57.75,
          "velocity": 0.8661417322834646
        },
        {
          "duration": 0.2447916666666643,
          "durationTicks": 47,
          "midi": 48,
          "name": "C3",
          "ticks": 11088,
          "time": 57.75,
          "velocity": 0.8661417322834646
        },
        {
          "duration": 0.2447916666666643,
          "durationTicks": 47,
          "midi": 32,
          "name": "G#1",
          "ticks": 11136,
          "time": 58,
          "velocity": 0.8661417322834646
        },
        {
          "duration": 0.2447916666666643,
          "durationTicks": 47,
          "midi": 39,
          "name": "D#2",
          "ticks": 11184,
          "time": 58.25,
          "velocity": 0.8661417322834646
        },
        {
          "duration": 0.2447916666666643,
          "durationTicks": 47,
          "midi": 44,
          "name": "G#2",
          "ticks": 11184,
          "time": 58.25,
          "velocity": 0.8661417322834646
        },
        {
          "duration": 0.2447916666666643,
          "durationTicks": 47,
          "midi": 44,
          "name": "G#2",
          "ticks": 11280,
          "time": 58.75,
          "velocity": 0.8661417322834646
        },
        {
          "duration": 0.2447916666666643,
          "durationTicks": 47,
          "midi": 39,
          "name": "D#2",
          "ticks": 11280,
          "time": 58.75,
          "velocity": 0.8661417322834646
        },
        {
          "duration": 0.2447916666666643,
          "durationTicks": 47,
          "midi": 39,
          "name": "D#2",
          "ticks": 11328,
          "time": 59,
          "velocity": 0.8661417322834646
        },
        {
          "duration": 0.2447916666666643,
          "durationTicks": 47,
          "midi": 51,
          "name": "D#3",
          "ticks": 11376,
          "time": 59.25,
          "velocity": 0.8661417322834646
        },
        {
          "duration": 0.2447916666666643,
          "durationTicks": 47,
          "midi": 46,
          "name": "A#2",
          "ticks": 11376,
          "time": 59.25,
          "velocity": 0.8661417322834646
        },
        {
          "duration": 0.2447916666666643,
          "durationTicks": 47,
          "midi": 46,
          "name": "A#2",
          "ticks": 11472,
          "time": 59.75,
          "velocity": 0.8661417322834646
        },
        {
          "duration": 0.2447916666666643,
          "durationTicks": 47,
          "midi": 51,
          "name": "D#3",
          "ticks": 11472,
          "time": 59.75,
          "velocity": 0.8661417322834646
        },
        {
          "duration": 0.2447916666666643,
          "durationTicks": 47,
          "midi": 34,
          "name": "A#1",
          "ticks": 11520,
          "time": 60,
          "velocity": 0.8661417322834646
        },
        {
          "duration": 0.2447916666666643,
          "durationTicks": 47,
          "midi": 46,
          "name": "A#2",
          "ticks": 11568,
          "time": 60.25,
          "velocity": 0.8661417322834646
        },
        {
          "duration": 0.2447916666666643,
          "durationTicks": 47,
          "midi": 41,
          "name": "F2",
          "ticks": 11568,
          "time": 60.25,
          "velocity": 0.8661417322834646
        },
        {
          "duration": 0.2447916666666643,
          "durationTicks": 47,
          "midi": 41,
          "name": "F2",
          "ticks": 11664,
          "time": 60.75,
          "velocity": 0.8661417322834646
        },
        {
          "duration": 0.2447916666666643,
          "durationTicks": 47,
          "midi": 46,
          "name": "A#2",
          "ticks": 11664,
          "time": 60.75,
          "velocity": 0.8661417322834646
        },
        {
          "duration": 0.2447916666666643,
          "durationTicks": 47,
          "midi": 36,
          "name": "C2",
          "ticks": 11712,
          "time": 61,
          "velocity": 0.8661417322834646
        },
        {
          "duration": 0.2447916666666643,
          "durationTicks": 47,
          "midi": 43,
          "name": "G2",
          "ticks": 11760,
          "time": 61.25,
          "velocity": 0.8661417322834646
        },
        {
          "duration": 0.2447916666666643,
          "durationTicks": 47,
          "midi": 48,
          "name": "C3",
          "ticks": 11760,
          "time": 61.25,
          "velocity": 0.8661417322834646
        },
        {
          "duration": 0.2447916666666643,
          "durationTicks": 47,
          "midi": 48,
          "name": "C3",
          "ticks": 11856,
          "time": 61.75,
          "velocity": 0.8661417322834646
        },
        {
          "duration": 0.2447916666666643,
          "durationTicks": 47,
          "midi": 43,
          "name": "G2",
          "ticks": 11856,
          "time": 61.75,
          "velocity": 0.8661417322834646
        },
        {
          "duration": 0.2447916666666643,
          "durationTicks": 47,
          "midi": 32,
          "name": "G#1",
          "ticks": 11904,
          "time": 62,
          "velocity": 0.8661417322834646
        },
        {
          "duration": 0.2447916666666643,
          "durationTicks": 47,
          "midi": 39,
          "name": "D#2",
          "ticks": 11952,
          "time": 62.25,
          "velocity": 0.8661417322834646
        },
        {
          "duration": 0.2447916666666643,
          "durationTicks": 47,
          "midi": 44,
          "name": "G#2",
          "ticks": 11952,
          "time": 62.25,
          "velocity": 0.8661417322834646
        },
        {
          "duration": 0.2447916666666643,
          "durationTicks": 47,
          "midi": 39,
          "name": "D#2",
          "ticks": 12048,
          "time": 62.75,
          "velocity": 0.8661417322834646
        },
        {
          "duration": 0.2447916666666643,
          "durationTicks": 47,
          "midi": 44,
          "name": "G#2",
          "ticks": 12048,
          "time": 62.75,
          "velocity": 0.8661417322834646
        },
        {
          "duration": 0.2447916666666643,
          "durationTicks": 47,
          "midi": 39,
          "name": "D#2",
          "ticks": 12096,
          "time": 63,
          "velocity": 0.8661417322834646
        },
        {
          "duration": 0.2447916666666643,
          "durationTicks": 47,
          "midi": 46,
          "name": "A#2",
          "ticks": 12144,
          "time": 63.25,
          "velocity": 0.8661417322834646
        },
        {
          "duration": 0.2447916666666643,
          "durationTicks": 47,
          "midi": 51,
          "name": "D#3",
          "ticks": 12144,
          "time": 63.25,
          "velocity": 0.8661417322834646
        },
        {
          "duration": 0.2447916666666643,
          "durationTicks": 47,
          "midi": 46,
          "name": "A#2",
          "ticks": 12240,
          "time": 63.75,
          "velocity": 0.8661417322834646
        },
        {
          "duration": 0.2447916666666643,
          "durationTicks": 47,
          "midi": 51,
          "name": "D#3",
          "ticks": 12240,
          "time": 63.75,
          "velocity": 0.8661417322834646
        },
        {
          "duration": 0.2447916666666714,
          "durationTicks": 47,
          "midi": 34,
          "name": "A#1",
          "ticks": 12288,
          "time": 64,
          "velocity": 0.8661417322834646
        },
        {
          "duration": 0.2447916666666714,
          "durationTicks": 47,
          "midi": 46,
          "name": "A#2",
          "ticks": 12336,
          "time": 64.25,
          "velocity": 0.8661417322834646
        },
        {
          "duration": 0.2447916666666714,
          "durationTicks": 47,
          "midi": 41,
          "name": "F2",
          "ticks": 12336,
          "time": 64.25,
          "velocity": 0.8661417322834646
        },
        {
          "duration": 0.2447916666666714,
          "durationTicks": 47,
          "midi": 41,
          "name": "F2",
          "ticks": 12432,
          "time": 64.75,
          "velocity": 0.8661417322834646
        },
        {
          "duration": 0.2447916666666714,
          "durationTicks": 47,
          "midi": 46,
          "name": "A#2",
          "ticks": 12432,
          "time": 64.75,
          "velocity": 0.8661417322834646
        },
        {
          "duration": 0.2447916666666714,
          "durationTicks": 47,
          "midi": 36,
          "name": "C2",
          "ticks": 12480,
          "time": 65,
          "velocity": 0.8661417322834646
        },
        {
          "duration": 0.2447916666666714,
          "durationTicks": 47,
          "midi": 48,
          "name": "C3",
          "ticks": 12528,
          "time": 65.25,
          "velocity": 0.8661417322834646
        },
        {
          "duration": 0.2447916666666714,
          "durationTicks": 47,
          "midi": 43,
          "name": "G2",
          "ticks": 12528,
          "time": 65.25,
          "velocity": 0.8661417322834646
        },
        {
          "duration": 0.2447916666666714,
          "durationTicks": 47,
          "midi": 48,
          "name": "C3",
          "ticks": 12624,
          "time": 65.75,
          "velocity": 0.8661417322834646
        },
        {
          "duration": 0.2447916666666714,
          "durationTicks": 47,
          "midi": 43,
          "name": "G2",
          "ticks": 12624,
          "time": 65.75,
          "velocity": 0.8661417322834646
        },
        {
          "duration": 0.2447916666666714,
          "durationTicks": 47,
          "midi": 32,
          "name": "G#1",
          "ticks": 12672,
          "time": 66,
          "velocity": 0.8661417322834646
        },
        {
          "duration": 0.2447916666666714,
          "durationTicks": 47,
          "midi": 44,
          "name": "G#2",
          "ticks": 12720,
          "time": 66.25,
          "velocity": 0.8661417322834646
        },
        {
          "duration": 0.2447916666666714,
          "durationTicks": 47,
          "midi": 39,
          "name": "D#2",
          "ticks": 12720,
          "time": 66.25,
          "velocity": 0.8661417322834646
        },
        {
          "duration": 0.2447916666666714,
          "durationTicks": 47,
          "midi": 44,
          "name": "G#2",
          "ticks": 12816,
          "time": 66.75,
          "velocity": 0.8661417322834646
        },
        {
          "duration": 0.2447916666666714,
          "durationTicks": 47,
          "midi": 39,
          "name": "D#2",
          "ticks": 12816,
          "time": 66.75,
          "velocity": 0.8661417322834646
        },
        {
          "duration": 0.2447916666666714,
          "durationTicks": 47,
          "midi": 39,
          "name": "D#2",
          "ticks": 12864,
          "time": 67,
          "velocity": 0.8661417322834646
        },
        {
          "duration": 0.2447916666666714,
          "durationTicks": 47,
          "midi": 51,
          "name": "D#3",
          "ticks": 12912,
          "time": 67.25,
          "velocity": 0.8661417322834646
        },
        {
          "duration": 0.2447916666666714,
          "durationTicks": 47,
          "midi": 46,
          "name": "A#2",
          "ticks": 12912,
          "time": 67.25,
          "velocity": 0.8661417322834646
        },
        {
          "duration": 0.2447916666666714,
          "durationTicks": 47,
          "midi": 51,
          "name": "D#3",
          "ticks": 13008,
          "time": 67.75,
          "velocity": 0.8661417322834646
        },
        {
          "duration": 0.2447916666666714,
          "durationTicks": 47,
          "midi": 46,
          "name": "A#2",
          "ticks": 13008,
          "time": 67.75,
          "velocity": 0.8661417322834646
        },
        {
          "duration": 0.2447916666666714,
          "durationTicks": 47,
          "midi": 34,
          "name": "A#1",
          "ticks": 13056,
          "time": 68,
          "velocity": 0.8661417322834646
        },
        {
          "duration": 0.2447916666666714,
          "durationTicks": 47,
          "midi": 46,
          "name": "A#2",
          "ticks": 13104,
          "time": 68.25,
          "velocity": 0.8661417322834646
        },
        {
          "duration": 0.2447916666666714,
          "durationTicks": 47,
          "midi": 41,
          "name": "F2",
          "ticks": 13104,
          "time": 68.25,
          "velocity": 0.8661417322834646
        },
        {
          "duration": 0.2447916666666714,
          "durationTicks": 47,
          "midi": 46,
          "name": "A#2",
          "ticks": 13200,
          "time": 68.75,
          "velocity": 0.8661417322834646
        },
        {
          "duration": 0.2447916666666714,
          "durationTicks": 47,
          "midi": 41,
          "name": "F2",
          "ticks": 13200,
          "time": 68.75,
          "velocity": 0.8661417322834646
        },
        {
          "duration": 0.2447916666666714,
          "durationTicks": 47,
          "midi": 36,
          "name": "C2",
          "ticks": 13248,
          "time": 69,
          "velocity": 0.8661417322834646
        },
        {
          "duration": 0.2447916666666714,
          "durationTicks": 47,
          "midi": 48,
          "name": "C3",
          "ticks": 13296,
          "time": 69.25,
          "velocity": 0.8661417322834646
        },
        {
          "duration": 0.2447916666666714,
          "durationTicks": 47,
          "midi": 43,
          "name": "G2",
          "ticks": 13296,
          "time": 69.25,
          "velocity": 0.8661417322834646
        },
        {
          "duration": 0.2447916666666714,
          "durationTicks": 47,
          "midi": 48,
          "name": "C3",
          "ticks": 13392,
          "time": 69.75,
          "velocity": 0.8661417322834646
        },
        {
          "duration": 0.2447916666666714,
          "durationTicks": 47,
          "midi": 43,
          "name": "G2",
          "ticks": 13392,
          "time": 69.75,
          "velocity": 0.8661417322834646
        },
        {
          "duration": 0.2447916666666714,
          "durationTicks": 47,
          "midi": 32,
          "name": "G#1",
          "ticks": 13440,
          "time": 70,
          "velocity": 0.8661417322834646
        },
        {
          "duration": 0.2447916666666714,
          "durationTicks": 47,
          "midi": 44,
          "name": "G#2",
          "ticks": 13488,
          "time": 70.25,
          "velocity": 0.8661417322834646
        },
        {
          "duration": 0.2447916666666714,
          "durationTicks": 47,
          "midi": 39,
          "name": "D#2",
          "ticks": 13488,
          "time": 70.25,
          "velocity": 0.8661417322834646
        },
        {
          "duration": 0.2447916666666714,
          "durationTicks": 47,
          "midi": 44,
          "name": "G#2",
          "ticks": 13584,
          "time": 70.75,
          "velocity": 0.8661417322834646
        },
        {
          "duration": 0.2447916666666714,
          "durationTicks": 47,
          "midi": 39,
          "name": "D#2",
          "ticks": 13584,
          "time": 70.75,
          "velocity": 0.8661417322834646
        },
        {
          "duration": 0.2447916666666714,
          "durationTicks": 47,
          "midi": 39,
          "name": "D#2",
          "ticks": 13632,
          "time": 71,
          "velocity": 0.8661417322834646
        },
        {
          "duration": 0.2447916666666714,
          "durationTicks": 47,
          "midi": 46,
          "name": "A#2",
          "ticks": 13680,
          "time": 71.25,
          "velocity": 0.8661417322834646
        },
        {
          "duration": 0.2447916666666714,
          "durationTicks": 47,
          "midi": 51,
          "name": "D#3",
          "ticks": 13680,
          "time": 71.25,
          "velocity": 0.8661417322834646
        },
        {
          "duration": 0.2447916666666714,
          "durationTicks": 47,
          "midi": 51,
          "name": "D#3",
          "ticks": 13776,
          "time": 71.75,
          "velocity": 0.8661417322834646
        },
        {
          "duration": 0.2447916666666714,
          "durationTicks": 47,
          "midi": 46,
          "name": "A#2",
          "ticks": 13776,
          "time": 71.75,
          "velocity": 0.8661417322834646
        },
        {
          "duration": 0.2447916666666714,
          "durationTicks": 47,
          "midi": 34,
          "name": "A#1",
          "ticks": 13824,
          "time": 72,
          "velocity": 0.8661417322834646
        },
        {
          "duration": 0.2447916666666714,
          "durationTicks": 47,
          "midi": 46,
          "name": "A#2",
          "ticks": 13872,
          "time": 72.25,
          "velocity": 0.8661417322834646
        },
        {
          "duration": 0.2447916666666714,
          "durationTicks": 47,
          "midi": 41,
          "name": "F2",
          "ticks": 13872,
          "time": 72.25,
          "velocity": 0.8661417322834646
        },
        {
          "duration": 0.2447916666666714,
          "durationTicks": 47,
          "midi": 41,
          "name": "F2",
          "ticks": 13968,
          "time": 72.75,
          "velocity": 0.8661417322834646
        },
        {
          "duration": 0.2447916666666714,
          "durationTicks": 47,
          "midi": 46,
          "name": "A#2",
          "ticks": 13968,
          "time": 72.75,
          "velocity": 0.8661417322834646
        },
        {
          "duration": 0.875,
          "durationTicks": 168,
          "midi": 36,
          "name": "C2",
          "ticks": 14016,
          "time": 73,
          "velocity": 0.8661417322834646
        },
        {
          "duration": 0.875,
          "durationTicks": 168,
          "midi": 32,
          "name": "G#1",
          "ticks": 14208,
          "time": 74,
          "velocity": 0.8661417322834646
        },
        {
          "duration": 0.875,
          "durationTicks": 168,
          "midi": 39,
          "name": "D#2",
          "ticks": 14400,
          "time": 75,
          "velocity": 0.8661417322834646
        },
        {
          "duration": 0.875,
          "durationTicks": 168,
          "midi": 34,
          "name": "A#1",
          "ticks": 14592,
          "time": 76,
          "velocity": 0.8661417322834646
        },
        {
          "duration": 0.875,
          "durationTicks": 168,
          "midi": 36,
          "name": "C2",
          "ticks": 14784,
          "time": 77,
          "velocity": 0.8661417322834646
        },
        {
          "duration": 0.875,
          "durationTicks": 168,
          "midi": 32,
          "name": "G#1",
          "ticks": 14976,
          "time": 78,
          "velocity": 0.8661417322834646
        },
        {
          "duration": 0.875,
          "durationTicks": 168,
          "midi": 39,
          "name": "D#2",
          "ticks": 15168,
          "time": 79,
          "velocity": 0.8661417322834646
        },
        {
          "duration": 0.875,
          "durationTicks": 168,
          "midi": 34,
          "name": "A#1",
          "ticks": 15360,
          "time": 80,
          "velocity": 0.8661417322834646
        },
        {
          "duration": 0.875,
          "durationTicks": 168,
          "midi": 36,
          "name": "C2",
          "ticks": 15552,
          "time": 81,
          "velocity": 0.8661417322834646
        },
        {
          "duration": 0.875,
          "durationTicks": 168,
          "midi": 32,
          "name": "G#1",
          "ticks": 15744,
          "time": 82,
          "velocity": 0.8661417322834646
        },
        {
          "duration": 0.875,
          "durationTicks": 168,
          "midi": 39,
          "name": "D#2",
          "ticks": 15936,
          "time": 83,
          "velocity": 0.8661417322834646
        },
        {
          "duration": 0.875,
          "durationTicks": 168,
          "midi": 34,
          "name": "A#1",
          "ticks": 16128,
          "time": 84,
          "velocity": 0.8661417322834646
        },
        {
          "duration": 0.875,
          "durationTicks": 168,
          "midi": 36,
          "name": "C2",
          "ticks": 16320,
          "time": 85,
          "velocity": 0.8661417322834646
        },
        {
          "duration": 0.875,
          "durationTicks": 168,
          "midi": 32,
          "name": "G#1",
          "ticks": 16512,
          "time": 86,
          "velocity": 0.8661417322834646
        },
        {
          "duration": 0.875,
          "durationTicks": 168,
          "midi": 39,
          "name": "D#2",
          "ticks": 16704,
          "time": 87,
          "velocity": 0.8661417322834646
        },
        {
          "duration": 0.875,
          "durationTicks": 168,
          "midi": 34,
          "name": "A#1",
          "ticks": 16896,
          "time": 88,
          "velocity": 0.8661417322834646
        },
        {
          "duration": 0.875,
          "durationTicks": 168,
          "midi": 36,
          "name": "C2",
          "ticks": 17088,
          "time": 89,
          "velocity": 0.8661417322834646
        },
        {
          "duration": 0.875,
          "durationTicks": 168,
          "midi": 32,
          "name": "G#1",
          "ticks": 17280,
          "time": 90,
          "velocity": 0.8661417322834646
        },
        {
          "duration": 0.875,
          "durationTicks": 168,
          "midi": 39,
          "name": "D#2",
          "ticks": 17472,
          "time": 91,
          "velocity": 0.8661417322834646
        },
        {
          "duration": 0.875,
          "durationTicks": 168,
          "midi": 34,
          "name": "A#1",
          "ticks": 17664,
          "time": 92,
          "velocity": 0.8661417322834646
        },
        {
          "duration": 0.875,
          "durationTicks": 168,
          "midi": 36,
          "name": "C2",
          "ticks": 20928,
          "time": 109,
          "velocity": 0.8661417322834646
        },
        {
          "duration": 0.875,
          "durationTicks": 168,
          "midi": 32,
          "name": "G#1",
          "ticks": 21120,
          "time": 110,
          "velocity": 0.8661417322834646
        },
        {
          "duration": 0.875,
          "durationTicks": 168,
          "midi": 39,
          "name": "D#2",
          "ticks": 21312,
          "time": 111,
          "velocity": 0.8661417322834646
        },
        {
          "duration": 0.875,
          "durationTicks": 168,
          "midi": 34,
          "name": "A#1",
          "ticks": 21504,
          "time": 112,
          "velocity": 0.8661417322834646
        },
        {
          "duration": 0.875,
          "durationTicks": 168,
          "midi": 36,
          "name": "C2",
          "ticks": 21696,
          "time": 113,
          "velocity": 0.8661417322834646
        },
        {
          "duration": 0.875,
          "durationTicks": 168,
          "midi": 32,
          "name": "G#1",
          "ticks": 21888,
          "time": 114,
          "velocity": 0.8661417322834646
        },
        {
          "duration": 0.875,
          "durationTicks": 168,
          "midi": 39,
          "name": "D#2",
          "ticks": 22080,
          "time": 115,
          "velocity": 0.8661417322834646
        },
        {
          "duration": 0.875,
          "durationTicks": 168,
          "midi": 34,
          "name": "A#1",
          "ticks": 22272,
          "time": 116,
          "velocity": 0.8661417322834646
        },
        {
          "duration": 0.875,
          "durationTicks": 168,
          "midi": 36,
          "name": "C2",
          "ticks": 22464,
          "time": 117,
          "velocity": 0.8661417322834646
        },
        {
          "duration": 0.875,
          "durationTicks": 168,
          "midi": 32,
          "name": "G#1",
          "ticks": 22656,
          "time": 118,
          "velocity": 0.8661417322834646
        },
        {
          "duration": 0.875,
          "durationTicks": 168,
          "midi": 39,
          "name": "D#2",
          "ticks": 22848,
          "time": 119,
          "velocity": 0.8661417322834646
        },
        {
          "duration": 0.875,
          "durationTicks": 168,
          "midi": 34,
          "name": "A#1",
          "ticks": 23040,
          "time": 120,
          "velocity": 0.8661417322834646
        },
        {
          "duration": 0.875,
          "durationTicks": 168,
          "midi": 36,
          "name": "C2",
          "ticks": 23232,
          "time": 121,
          "velocity": 0.8661417322834646
        },
        {
          "duration": 0.875,
          "durationTicks": 168,
          "midi": 32,
          "name": "G#1",
          "ticks": 23424,
          "time": 122,
          "velocity": 0.8661417322834646
        },
        {
          "duration": 0.875,
          "durationTicks": 168,
          "midi": 39,
          "name": "D#2",
          "ticks": 23616,
          "time": 123,
          "velocity": 0.8661417322834646
        },
        {
          "duration": 0.875,
          "durationTicks": 168,
          "midi": 34,
          "name": "A#1",
          "ticks": 23808,
          "time": 124,
          "velocity": 0.8661417322834646
        },
        {
          "duration": 0.875,
          "durationTicks": 168,
          "midi": 36,
          "name": "C2",
          "ticks": 24000,
          "time": 125,
          "velocity": 0.8661417322834646
        },
        {
          "duration": 0.875,
          "durationTicks": 168,
          "midi": 32,
          "name": "G#1",
          "ticks": 24192,
          "time": 126,
          "velocity": 0.8661417322834646
        },
        {
          "duration": 0.875,
          "durationTicks": 168,
          "midi": 39,
          "name": "D#2",
          "ticks": 24384,
          "time": 127,
          "velocity": 0.8661417322834646
        },
        {
          "duration": 0.875,
          "durationTicks": 168,
          "midi": 34,
          "name": "A#1",
          "ticks": 24576,
          "time": 128,
          "velocity": 0.8661417322834646
        },
        {
          "duration": 0.875,
          "durationTicks": 168,
          "midi": 36,
          "name": "C2",
          "ticks": 24768,
          "time": 129,
          "velocity": 0.8661417322834646
        },
        {
          "duration": 0.875,
          "durationTicks": 168,
          "midi": 32,
          "name": "G#1",
          "ticks": 24960,
          "time": 130,
          "velocity": 0.8661417322834646
        },
        {
          "duration": 0.875,
          "durationTicks": 168,
          "midi": 39,
          "name": "D#2",
          "ticks": 25152,
          "time": 131,
          "velocity": 0.8661417322834646
        },
        {
          "duration": 0.875,
          "durationTicks": 168,
          "midi": 34,
          "name": "A#1",
          "ticks": 25344,
          "time": 132,
          "velocity": 0.8661417322834646
        },
        {
          "duration": 0.875,
          "durationTicks": 168,
          "midi": 36,
          "name": "C2",
          "ticks": 25536,
          "time": 133,
          "velocity": 0.8661417322834646
        },
        {
          "duration": 0.875,
          "durationTicks": 168,
          "midi": 32,
          "name": "G#1",
          "ticks": 25728,
          "time": 134,
          "velocity": 0.8661417322834646
        },
        {
          "duration": 0.875,
          "durationTicks": 168,
          "midi": 39,
          "name": "D#2",
          "ticks": 25920,
          "time": 135,
          "velocity": 0.8661417322834646
        },
        {
          "duration": 0.875,
          "durationTicks": 168,
          "midi": 34,
          "name": "A#1",
          "ticks": 26112,
          "time": 136,
          "velocity": 0.8661417322834646
        },
        {
          "duration": 0.875,
          "durationTicks": 168,
          "midi": 36,
          "name": "C2",
          "ticks": 26304,
          "time": 137,
          "velocity": 0.8661417322834646
        },
        {
          "duration": 0.875,
          "durationTicks": 168,
          "midi": 32,
          "name": "G#1",
          "ticks": 26496,
          "time": 138,
          "velocity": 0.8661417322834646
        },
        {
          "duration": 0.875,
          "durationTicks": 168,
          "midi": 39,
          "name": "D#2",
          "ticks": 26688,
          "time": 139,
          "velocity": 0.8661417322834646
        },
        {
          "duration": 0.875,
          "durationTicks": 168,
          "midi": 34,
          "name": "A#1",
          "ticks": 26880,
          "time": 140,
          "velocity": 0.8661417322834646
        },
        {
          "duration": 0.875,
          "durationTicks": 168,
          "midi": 36,
          "name": "C2",
          "ticks": 27072,
          "time": 141,
          "velocity": 0.8661417322834646
        },
        {
          "duration": 0.875,
          "durationTicks": 168,
          "midi": 32,
          "name": "G#1",
          "ticks": 27264,
          "time": 142,
          "velocity": 0.8661417322834646
        },
        {
          "duration": 0.875,
          "durationTicks": 168,
          "midi": 39,
          "name": "D#2",
          "ticks": 27456,
          "time": 143,
          "velocity": 0.8661417322834646
        },
        {
          "duration": 0.875,
          "durationTicks": 168,
          "midi": 34,
          "name": "A#1",
          "ticks": 27648,
          "time": 144,
          "velocity": 0.8661417322834646
        },
        {
          "duration": 0.875,
          "durationTicks": 168,
          "midi": 36,
          "name": "C2",
          "ticks": 27840,
          "time": 145,
          "velocity": 0.8661417322834646
        },
        {
          "duration": 0.875,
          "durationTicks": 168,
          "midi": 32,
          "name": "G#1",
          "ticks": 28032,
          "time": 146,
          "velocity": 0.8661417322834646
        },
        {
          "duration": 0.875,
          "durationTicks": 168,
          "midi": 39,
          "name": "D#2",
          "ticks": 28224,
          "time": 147,
          "velocity": 0.8661417322834646
        },
        {
          "duration": 0.875,
          "durationTicks": 168,
          "midi": 34,
          "name": "A#1",
          "ticks": 28416,
          "time": 148,
          "velocity": 0.8661417322834646
        },
        {
          "duration": 0.875,
          "durationTicks": 168,
          "midi": 36,
          "name": "C2",
          "ticks": 28608,
          "time": 149,
          "velocity": 0.8661417322834646
        },
        {
          "duration": 0.875,
          "durationTicks": 168,
          "midi": 32,
          "name": "G#1",
          "ticks": 28800,
          "time": 150,
          "velocity": 0.8661417322834646
        },
        {
          "duration": 0.875,
          "durationTicks": 168,
          "midi": 39,
          "name": "D#2",
          "ticks": 28992,
          "time": 151,
          "velocity": 0.8661417322834646
        },
        {
          "duration": 0.875,
          "durationTicks": 168,
          "midi": 34,
          "name": "A#1",
          "ticks": 29184,
          "time": 152,
          "velocity": 0.8661417322834646
        },
        {
          "duration": 0.875,
          "durationTicks": 168,
          "midi": 36,
          "name": "C2",
          "ticks": 29376,
          "time": 153,
          "velocity": 0.8661417322834646
        },
        {
          "duration": 0.875,
          "durationTicks": 168,
          "midi": 32,
          "name": "G#1",
          "ticks": 29568,
          "time": 154,
          "velocity": 0.8661417322834646
        },
        {
          "duration": 0.875,
          "durationTicks": 168,
          "midi": 39,
          "name": "D#2",
          "ticks": 29760,
          "time": 155,
          "velocity": 0.8661417322834646
        },
        {
          "duration": 0.875,
          "durationTicks": 168,
          "midi": 34,
          "name": "A#1",
          "ticks": 29952,
          "time": 156,
          "velocity": 0.8661417322834646
        },
        {
          "duration": 0.875,
          "durationTicks": 168,
          "midi": 36,
          "name": "C2",
          "ticks": 30144,
          "time": 157,
          "velocity": 0.8661417322834646
        },
        {
          "duration": 0.875,
          "durationTicks": 168,
          "midi": 32,
          "name": "G#1",
          "ticks": 30336,
          "time": 158,
          "velocity": 0.8661417322834646
        },
        {
          "duration": 0.875,
          "durationTicks": 168,
          "midi": 39,
          "name": "D#2",
          "ticks": 30528,
          "time": 159,
          "velocity": 0.8661417322834646
        },
        {
          "duration": 0.875,
          "durationTicks": 168,
          "midi": 34,
          "name": "A#1",
          "ticks": 30720,
          "time": 160,
          "velocity": 0.8661417322834646
        },
        {
          "duration": 0.875,
          "durationTicks": 168,
          "midi": 36,
          "name": "C2",
          "ticks": 30912,
          "time": 161,
          "velocity": 0.8661417322834646
        },
        {
          "duration": 0.875,
          "durationTicks": 168,
          "midi": 32,
          "name": "G#1",
          "ticks": 31104,
          "time": 162,
          "velocity": 0.8661417322834646
        },
        {
          "duration": 0.875,
          "durationTicks": 168,
          "midi": 39,
          "name": "D#2",
          "ticks": 31296,
          "time": 163,
          "velocity": 0.8661417322834646
        },
        {
          "duration": 0.875,
          "durationTicks": 168,
          "midi": 34,
          "name": "A#1",
          "ticks": 31488,
          "time": 164,
          "velocity": 0.8661417322834646
        },
        {
          "duration": 0.875,
          "durationTicks": 168,
          "midi": 36,
          "name": "C2",
          "ticks": 31680,
          "time": 165,
          "velocity": 0.8661417322834646
        },
        {
          "duration": 0.875,
          "durationTicks": 168,
          "midi": 32,
          "name": "G#1",
          "ticks": 31872,
          "time": 166,
          "velocity": 0.8661417322834646
        },
        {
          "duration": 0.875,
          "durationTicks": 168,
          "midi": 39,
          "name": "D#2",
          "ticks": 32064,
          "time": 167,
          "velocity": 0.8661417322834646
        },
        {
          "duration": 0.875,
          "durationTicks": 168,
          "midi": 34,
          "name": "A#1",
          "ticks": 32256,
          "time": 168,
          "velocity": 0.8661417322834646
        },
        {
          "duration": 0.875,
          "durationTicks": 168,
          "midi": 36,
          "name": "C2",
          "ticks": 32448,
          "time": 169,
          "velocity": 0.8661417322834646
        },
        {
          "duration": 0.875,
          "durationTicks": 168,
          "midi": 32,
          "name": "G#1",
          "ticks": 32640,
          "time": 170,
          "velocity": 0.8661417322834646
        },
        {
          "duration": 0.875,
          "durationTicks": 168,
          "midi": 39,
          "name": "D#2",
          "ticks": 32832,
          "time": 171,
          "velocity": 0.8661417322834646
        },
        {
          "duration": 0.875,
          "durationTicks": 168,
          "midi": 34,
          "name": "A#1",
          "ticks": 33024,
          "time": 172,
          "velocity": 0.8661417322834646
        },
        {
          "duration": 0.875,
          "durationTicks": 168,
          "midi": 36,
          "name": "C2",
          "ticks": 33216,
          "time": 173,
          "velocity": 0.8661417322834646
        },
        {
          "duration": 0.875,
          "durationTicks": 168,
          "midi": 32,
          "name": "G#1",
          "ticks": 33408,
          "time": 174,
          "velocity": 0.8661417322834646
        },
        {
          "duration": 0.875,
          "durationTicks": 168,
          "midi": 39,
          "name": "D#2",
          "ticks": 33600,
          "time": 175,
          "velocity": 0.8661417322834646
        },
        {
          "duration": 0.875,
          "durationTicks": 168,
          "midi": 34,
          "name": "A#1",
          "ticks": 33792,
          "time": 176,
          "velocity": 0.8661417322834646
        }
      ]
    },
    {
      "channel": 0,
      "controlChanges": {
        "6": [
          {
            "number": 6,
            "ticks": 0,
            "time": 0,
            "value": 0.09448818897637795
          },
          {
            "number": 6,
            "ticks": 0,
            "time": 0,
            "value": 0.09448818897637795
          },
          {
            "number": 6,
            "ticks": 0,
            "time": 0,
            "value": 0.09448818897637795
          }
        ],
        "7": [
          {
            "number": 7,
            "ticks": 0,
            "time": 0,
            "value": 1
          },
          {
            "number": 7,
            "ticks": 0,
            "time": 0,
            "value": 1
          },
          {
            "number": 7,
            "ticks": 0,
            "time": 0,
            "value": 1
          },
          {
            "number": 7,
            "ticks": 0,
            "time": 0,
            "value": 1
          },
          {
            "number": 7,
            "ticks": 0,
            "time": 0,
            "value": 1
          },
          {
            "number": 7,
            "ticks": 0,
            "time": 0,
            "value": 1
          }
        ],
        "10": [
          {
            "number": 10,
            "ticks": 0,
            "time": 0,
            "value": 0.5039370078740157
          },
          {
            "number": 10,
            "ticks": 0,
            "time": 0,
            "value": 0.5039370078740157
          },
          {
            "number": 10,
            "ticks": 0,
            "time": 0,
            "value": 0.5039370078740157
          },
          {
            "number": 10,
            "ticks": 0,
            "time": 0,
            "value": 0.5039370078740157
          },
          {
            "number": 10,
            "ticks": 0,
            "time": 0,
            "value": 0.5039370078740157
          },
          {
            "number": 10,
            "ticks": 0,
            "time": 0,
            "value": 0.5039370078740157
          }
        ],
        "100": [
          {
            "number": 100,
            "ticks": 0,
            "time": 0,
            "value": 0
          },
          {
            "number": 100,
            "ticks": 0,
            "time": 0,
            "value": 0
          },
          {
            "number": 100,
            "ticks": 0,
            "time": 0,
            "value": 0
          }
        ],
        "101": [
          {
            "number": 101,
            "ticks": 0,
            "time": 0,
            "value": 0
          },
          {
            "number": 101,
            "ticks": 0,
            "time": 0,
            "value": 0
          },
          {
            "number": 101,
            "ticks": 0,
            "time": 0,
            "value": 0
          }
        ]
      },
      "pitchBends": [
        {
          "ticks": 0,
          "time": 0,
          "value": 0
        },
        {
          "ticks": 0,
          "time": 0,
          "value": 0
        },
        {
          "ticks": 0,
          "time": 0,
          "value": 0
        },
        {
          "ticks": 0,
          "time": 0,
          "value": 0
        }
      ],
      "instrument": {
        "family": "piano",
        "number": 0,
        "name": "acoustic grand piano"
      },
      "name": "Drum Kit (Electronic)",
      "notes": [],
      "endOfTrackTicks": 34195
    },
    {
      "channel": 9,
      "controlChanges": {
        "6": [
          {
            "number": 6,
            "ticks": 34176,
            "time": 178,
            "value": 0.09448818897637795
          },
          {
            "number": 6,
            "ticks": 34177,
            "time": 178.00520833333334,
            "value": 0.09448818897637795
          }
        ],
        "7": [
          {
            "number": 7,
            "ticks": 34176,
            "time": 178,
            "value": 1
          },
          {
            "number": 7,
            "ticks": 34176,
            "time": 178,
            "value": 1
          },
          {
            "number": 7,
            "ticks": 34177,
            "time": 178.00520833333334,
            "value": 1
          }
        ],
        "10": [
          {
            "number": 10,
            "ticks": 34176,
            "time": 178,
            "value": 0.5039370078740157
          },
          {
            "number": 10,
            "ticks": 34176,
            "time": 178,
            "value": 0.5039370078740157
          },
          {
            "number": 10,
            "ticks": 34177,
            "time": 178.00520833333334,
            "value": 0.5039370078740157
          }
        ],
        "100": [
          {
            "number": 100,
            "ticks": 34176,
            "time": 178,
            "value": 0
          },
          {
            "number": 100,
            "ticks": 34177,
            "time": 178.00520833333334,
            "value": 0
          }
        ],
        "101": [
          {
            "number": 101,
            "ticks": 34176,
            "time": 178,
            "value": 0
          },
          {
            "number": 101,
            "ticks": 34177,
            "time": 178.00520833333334,
            "value": 0
          }
        ]
      },
      "pitchBends": [
        {
          "ticks": 34176,
          "time": 178,
          "value": 0
        },
        {
          "ticks": 34177,
          "time": 178.00520833333334,
          "value": 0
        }
      ],
      "instrument": {
        "family": "drums",
        "number": 24,
        "name": "electronic kit"
      },
      "name": "",
      "notes": [
        {
          "duration": 0.5,
          "durationTicks": 96,
          "midi": 44,
          "name": "G#2",
          "ticks": 192,
          "time": 1,
          "velocity": 0.7874015748031497
        },
        {
          "duration": 0.5,
          "durationTicks": 96,
          "midi": 44,
          "name": "G#2",
          "ticks": 384,
          "time": 2,
          "velocity": 0.7874015748031497
        },
        {
          "duration": 0.5,
          "durationTicks": 96,
          "midi": 44,
          "name": "G#2",
          "ticks": 576,
          "time": 3,
          "velocity": 0.7874015748031497
        },
        {
          "duration": 0.5,
          "durationTicks": 96,
          "midi": 44,
          "name": "G#2",
          "ticks": 768,
          "time": 4,
          "velocity": 0.7874015748031497
        },
        {
          "duration": 0.5,
          "durationTicks": 96,
          "midi": 44,
          "name": "G#2",
          "ticks": 960,
          "time": 5,
          "velocity": 0.7874015748031497
        },
        {
          "duration": 0.5,
          "durationTicks": 96,
          "midi": 44,
          "name": "G#2",
          "ticks": 1152,
          "time": 6,
          "velocity": 0.7874015748031497
        },
        {
          "duration": 0.5,
          "durationTicks": 96,
          "midi": 44,
          "name": "G#2",
          "ticks": 1344,
          "time": 7,
          "velocity": 0.7874015748031497
        },
        {
          "duration": 0.5,
          "durationTicks": 96,
          "midi": 44,
          "name": "G#2",
          "ticks": 1536,
          "time": 8,
          "velocity": 0.7874015748031497
        },
        {
          "duration": 0.4166666666666661,
          "durationTicks": 80,
          "midi": 39,
          "name": "D#2",
          "ticks": 1728,
          "time": 9,
          "velocity": 0.8661417322834646
        },
        {
          "duration": 0.5,
          "durationTicks": 96,
          "midi": 44,
          "name": "G#2",
          "ticks": 1728,
          "time": 9,
          "velocity": 0.7874015748031497
        },
        {
          "duration": 0.5,
          "durationTicks": 96,
          "midi": 37,
          "name": "C#2",
          "ticks": 1824,
          "time": 9.5,
          "velocity": 0.7874015748031497
        },
        {
          "duration": 0.4166666666666661,
          "durationTicks": 80,
          "midi": 39,
          "name": "D#2",
          "ticks": 1824,
          "time": 9.5,
          "velocity": 0.8661417322834646
        },
        {
          "duration": 0.4166666666666661,
          "durationTicks": 80,
          "midi": 39,
          "name": "D#2",
          "ticks": 1920,
          "time": 10,
          "velocity": 0.8661417322834646
        },
        {
          "duration": 0.5,
          "durationTicks": 96,
          "midi": 44,
          "name": "G#2",
          "ticks": 1920,
          "time": 10,
          "velocity": 0.7874015748031497
        },
        {
          "duration": 0.5,
          "durationTicks": 96,
          "midi": 37,
          "name": "C#2",
          "ticks": 2016,
          "time": 10.5,
          "velocity": 0.7874015748031497
        },
        {
          "duration": 0.4166666666666661,
          "durationTicks": 80,
          "midi": 39,
          "name": "D#2",
          "ticks": 2016,
          "time": 10.5,
          "velocity": 0.8661417322834646
        },
        {
          "duration": 0.4166666666666661,
          "durationTicks": 80,
          "midi": 39,
          "name": "D#2",
          "ticks": 2112,
          "time": 11,
          "velocity": 0.8661417322834646
        },
        {
          "duration": 0.5,
          "durationTicks": 96,
          "midi": 44,
          "name": "G#2",
          "ticks": 2112,
          "time": 11,
          "velocity": 0.7874015748031497
        },
        {
          "duration": 0.5,
          "durationTicks": 96,
          "midi": 37,
          "name": "C#2",
          "ticks": 2208,
          "time": 11.5,
          "velocity": 0.7874015748031497
        },
        {
          "duration": 0.4166666666666661,
          "durationTicks": 80,
          "midi": 39,
          "name": "D#2",
          "ticks": 2208,
          "time": 11.5,
          "velocity": 0.8661417322834646
        },
        {
          "duration": 0.4166666666666661,
          "durationTicks": 80,
          "midi": 39,
          "name": "D#2",
          "ticks": 2304,
          "time": 12,
          "velocity": 0.8661417322834646
        },
        {
          "duration": 0.5,
          "durationTicks": 96,
          "midi": 44,
          "name": "G#2",
          "ticks": 2304,
          "time": 12,
          "velocity": 0.7874015748031497
        },
        {
          "duration": 0.5,
          "durationTicks": 96,
          "midi": 37,
          "name": "C#2",
          "ticks": 2400,
          "time": 12.5,
          "velocity": 0.7874015748031497
        },
        {
          "duration": 0.4166666666666661,
          "durationTicks": 80,
          "midi": 39,
          "name": "D#2",
          "ticks": 2400,
          "time": 12.5,
          "velocity": 0.8661417322834646
        },
        {
          "duration": 0.4166666666666661,
          "durationTicks": 80,
          "midi": 39,
          "name": "D#2",
          "ticks": 2496,
          "time": 13,
          "velocity": 0.8661417322834646
        },
        {
          "duration": 0.5,
          "durationTicks": 96,
          "midi": 44,
          "name": "G#2",
          "ticks": 2496,
          "time": 13,
          "velocity": 0.7874015748031497
        },
        {
          "duration": 0.5,
          "durationTicks": 96,
          "midi": 37,
          "name": "C#2",
          "ticks": 2592,
          "time": 13.5,
          "velocity": 0.7874015748031497
        },
        {
          "duration": 0.4166666666666661,
          "durationTicks": 80,
          "midi": 39,
          "name": "D#2",
          "ticks": 2592,
          "time": 13.5,
          "velocity": 0.8661417322834646
        },
        {
          "duration": 0.4166666666666661,
          "durationTicks": 80,
          "midi": 39,
          "name": "D#2",
          "ticks": 2688,
          "time": 14,
          "velocity": 0.8661417322834646
        },
        {
          "duration": 0.5,
          "durationTicks": 96,
          "midi": 44,
          "name": "G#2",
          "ticks": 2688,
          "time": 14,
          "velocity": 0.7874015748031497
        },
        {
          "duration": 0.5,
          "durationTicks": 96,
          "midi": 37,
          "name": "C#2",
          "ticks": 2784,
          "time": 14.5,
          "velocity": 0.7874015748031497
        },
        {
          "duration": 0.4166666666666661,
          "durationTicks": 80,
          "midi": 39,
          "name": "D#2",
          "ticks": 2784,
          "time": 14.5,
          "velocity": 0.8661417322834646
        },
        {
          "duration": 0.4166666666666661,
          "durationTicks": 80,
          "midi": 39,
          "name": "D#2",
          "ticks": 2880,
          "time": 15,
          "velocity": 0.8661417322834646
        },
        {
          "duration": 0.5,
          "durationTicks": 96,
          "midi": 44,
          "name": "G#2",
          "ticks": 2880,
          "time": 15,
          "velocity": 0.7874015748031497
        },
        {
          "duration": 0.5,
          "durationTicks": 96,
          "midi": 37,
          "name": "C#2",
          "ticks": 2976,
          "time": 15.5,
          "velocity": 0.7874015748031497
        },
        {
          "duration": 0.4166666666666661,
          "durationTicks": 80,
          "midi": 39,
          "name": "D#2",
          "ticks": 2976,
          "time": 15.5,
          "velocity": 0.8661417322834646
        },
        {
          "duration": 0.41666666666666785,
          "durationTicks": 80,
          "midi": 39,
          "name": "D#2",
          "ticks": 3072,
          "time": 16,
          "velocity": 0.8661417322834646
        },
        {
          "duration": 0.5,
          "durationTicks": 96,
          "midi": 44,
          "name": "G#2",
          "ticks": 3072,
          "time": 16,
          "velocity": 0.7874015748031497
        },
        {
          "duration": 0.5,
          "durationTicks": 96,
          "midi": 37,
          "name": "C#2",
          "ticks": 3168,
          "time": 16.5,
          "velocity": 0.7874015748031497
        },
        {
          "duration": 0.41666666666666785,
          "durationTicks": 80,
          "midi": 39,
          "name": "D#2",
          "ticks": 3168,
          "time": 16.5,
          "velocity": 0.8661417322834646
        },
        {
          "duration": 0.41666666666666785,
          "durationTicks": 80,
          "midi": 39,
          "name": "D#2",
          "ticks": 3264,
          "time": 17,
          "velocity": 0.8661417322834646
        },
        {
          "duration": 0.5,
          "durationTicks": 96,
          "midi": 44,
          "name": "G#2",
          "ticks": 3264,
          "time": 17,
          "velocity": 0.7874015748031497
        },
        {
          "duration": 0.5,
          "durationTicks": 96,
          "midi": 37,
          "name": "C#2",
          "ticks": 3360,
          "time": 17.5,
          "velocity": 0.7874015748031497
        },
        {
          "duration": 0.41666666666666785,
          "durationTicks": 80,
          "midi": 39,
          "name": "D#2",
          "ticks": 3360,
          "time": 17.5,
          "velocity": 0.8661417322834646
        },
        {
          "duration": 0.41666666666666785,
          "durationTicks": 80,
          "midi": 39,
          "name": "D#2",
          "ticks": 3456,
          "time": 18,
          "velocity": 0.8661417322834646
        },
        {
          "duration": 0.5,
          "durationTicks": 96,
          "midi": 44,
          "name": "G#2",
          "ticks": 3456,
          "time": 18,
          "velocity": 0.7874015748031497
        },
        {
          "duration": 0.5,
          "durationTicks": 96,
          "midi": 37,
          "name": "C#2",
          "ticks": 3552,
          "time": 18.5,
          "velocity": 0.7874015748031497
        },
        {
          "duration": 0.41666666666666785,
          "durationTicks": 80,
          "midi": 39,
          "name": "D#2",
          "ticks": 3552,
          "time": 18.5,
          "velocity": 0.8661417322834646
        },
        {
          "duration": 0.41666666666666785,
          "durationTicks": 80,
          "midi": 39,
          "name": "D#2",
          "ticks": 3648,
          "time": 19,
          "velocity": 0.8661417322834646
        },
        {
          "duration": 0.5,
          "durationTicks": 96,
          "midi": 44,
          "name": "G#2",
          "ticks": 3648,
          "time": 19,
          "velocity": 0.7874015748031497
        },
        {
          "duration": 0.5,
          "durationTicks": 96,
          "midi": 37,
          "name": "C#2",
          "ticks": 3744,
          "time": 19.5,
          "velocity": 0.7874015748031497
        },
        {
          "duration": 0.5,
          "durationTicks": 96,
          "midi": 44,
          "name": "G#2",
          "ticks": 3744,
          "time": 19.5,
          "velocity": 0.7874015748031497
        },
        {
          "duration": 0.41666666666666785,
          "durationTicks": 80,
          "midi": 39,
          "name": "D#2",
          "ticks": 3744,
          "time": 19.5,
          "velocity": 0.8661417322834646
        },
        {
          "duration": 0.5,
          "durationTicks": 96,
          "midi": 46,
          "name": "A#2",
          "ticks": 3840,
          "time": 20,
          "velocity": 0.7874015748031497
        },
        {
          "duration": 0.41666666666666785,
          "durationTicks": 80,
          "midi": 39,
          "name": "D#2",
          "ticks": 3840,
          "time": 20,
          "velocity": 0.8661417322834646
        },
        {
          "duration": 0.5,
          "durationTicks": 96,
          "midi": 37,
          "name": "C#2",
          "ticks": 3936,
          "time": 20.5,
          "velocity": 0.7874015748031497
        },
        {
          "duration": 0.5,
          "durationTicks": 96,
          "midi": 44,
          "name": "G#2",
          "ticks": 3936,
          "time": 20.5,
          "velocity": 0.7874015748031497
        },
        {
          "duration": 0.41666666666666785,
          "durationTicks": 80,
          "midi": 39,
          "name": "D#2",
          "ticks": 3936,
          "time": 20.5,
          "velocity": 0.8661417322834646
        },
        {
          "duration": 0.5,
          "durationTicks": 96,
          "midi": 35,
          "name": "B1",
          "ticks": 4032,
          "time": 21,
          "velocity": 0.7874015748031497
        },
        {
          "duration": 0.5,
          "durationTicks": 96,
          "midi": 51,
          "name": "D#3",
          "ticks": 4032,
          "time": 21,
          "velocity": 0.7874015748031497
        },
        {
          "duration": 0.41666666666666785,
          "durationTicks": 80,
          "midi": 39,
          "name": "D#2",
          "ticks": 4032,
          "time": 21,
          "velocity": 0.8661417322834646
        },
        {
          "duration": 0.5,
          "durationTicks": 96,
          "midi": 49,
          "name": "C#3",
          "ticks": 4032,
          "time": 21,
          "velocity": 0.7874015748031497
        },
        {
          "duration": 0.41666666666666785,
          "durationTicks": 80,
          "midi": 39,
          "name": "D#2",
          "ticks": 4128,
          "time": 21.5,
          "velocity": 0.8661417322834646
        },
        {
          "duration": 0.5,
          "durationTicks": 96,
          "midi": 38,
          "name": "D2",
          "ticks": 4128,
          "time": 21.5,
          "velocity": 0.7874015748031497
        },
        {
          "duration": 0.5,
          "durationTicks": 96,
          "midi": 46,
          "name": "A#2",
          "ticks": 4128,
          "time": 21.5,
          "velocity": 0.7874015748031497
        },
        {
          "duration": 0.25,
          "durationTicks": 48,
          "midi": 44,
          "name": "G#2",
          "ticks": 4224,
          "time": 22,
          "velocity": 0.7874015748031497
        },
        {
          "duration": 0.25,
          "durationTicks": 48,
          "midi": 36,
          "name": "C2",
          "ticks": 4224,
          "time": 22,
          "velocity": 0.7874015748031497
        },
        {
          "duration": 0.41666666666666785,
          "durationTicks": 80,
          "midi": 39,
          "name": "D#2",
          "ticks": 4224,
          "time": 22,
          "velocity": 0.8661417322834646
        },
        {
          "duration": 0.125,
          "durationTicks": 24,
          "midi": 36,
          "name": "C2",
          "ticks": 4272,
          "time": 22.25,
          "velocity": 0.7874015748031497
        },
        {
          "duration": 0.25,
          "durationTicks": 48,
          "midi": 44,
          "name": "G#2",
          "ticks": 4272,
          "time": 22.25,
          "velocity": 0.7874015748031497
        },
        {
          "duration": 0.125,
          "durationTicks": 24,
          "midi": 36,
          "name": "C2",
          "ticks": 4296,
          "time": 22.375,
          "velocity": 0.7874015748031497
        },
        {
          "duration": 0.41666666666666785,
          "durationTicks": 80,
          "midi": 39,
          "name": "D#2",
          "ticks": 4320,
          "time": 22.5,
          "velocity": 0.8661417322834646
        },
        {
          "duration": 0.5,
          "durationTicks": 96,
          "midi": 38,
          "name": "D2",
          "ticks": 4320,
          "time": 22.5,
          "velocity": 0.7874015748031497
        },
        {
          "duration": 0.5,
          "durationTicks": 96,
          "midi": 51,
          "name": "D#3",
          "ticks": 4320,
          "time": 22.5,
          "velocity": 0.7874015748031497
        },
        {
          "duration": 0.5,
          "durationTicks": 96,
          "midi": 35,
          "name": "B1",
          "ticks": 4416,
          "time": 23,
          "velocity": 0.7874015748031497
        },
        {
          "duration": 0.5,
          "durationTicks": 96,
          "midi": 51,
          "name": "D#3",
          "ticks": 4416,
          "time": 23,
          "velocity": 0.7874015748031497
        },
        {
          "duration": 0.41666666666666785,
          "durationTicks": 80,
          "midi": 39,
          "name": "D#2",
          "ticks": 4416,
          "time": 23,
          "velocity": 0.8661417322834646
        },
        {
          "duration": 0.5,
          "durationTicks": 96,
          "midi": 38,
          "name": "D2",
          "ticks": 4512,
          "time": 23.5,
          "velocity": 0.7874015748031497
        },
        {
          "duration": 0.41666666666666785,
          "durationTicks": 80,
          "midi": 39,
          "name": "D#2",
          "ticks": 4512,
          "time": 23.5,
          "velocity": 0.8661417322834646
        },
        {
          "duration": 0.5,
          "durationTicks": 96,
          "midi": 46,
          "name": "A#2",
          "ticks": 4512,
          "time": 23.5,
          "velocity": 0.7874015748031497
        },
        {
          "duration": 0.25,
          "durationTicks": 48,
          "midi": 36,
          "name": "C2",
          "ticks": 4608,
          "time": 24,
          "velocity": 0.7874015748031497
        },
        {
          "duration": 0.41666666666666785,
          "durationTicks": 80,
          "midi": 39,
          "name": "D#2",
          "ticks": 4608,
          "time": 24,
          "velocity": 0.8661417322834646
        },
        {
          "duration": 0.25,
          "durationTicks": 48,
          "midi": 44,
          "name": "G#2",
          "ticks": 4608,
          "time": 24,
          "velocity": 0.7874015748031497
        },
        {
          "duration": 0.125,
          "durationTicks": 24,
          "midi": 36,
          "name": "C2",
          "ticks": 4656,
          "time": 24.25,
          "velocity": 0.7874015748031497
        },
        {
          "duration": 0.25,
          "durationTicks": 48,
          "midi": 44,
          "name": "G#2",
          "ticks": 4656,
          "time": 24.25,
          "velocity": 0.7874015748031497
        },
        {
          "duration": 0.125,
          "durationTicks": 24,
          "midi": 36,
          "name": "C2",
          "ticks": 4680,
          "time": 24.375,
          "velocity": 0.7874015748031497
        },
        {
          "duration": 0.5,
          "durationTicks": 96,
          "midi": 38,
          "name": "D2",
          "ticks": 4704,
          "time": 24.5,
          "velocity": 0.7874015748031497
        },
        {
          "duration": 0.41666666666666785,
          "durationTicks": 80,
          "midi": 39,
          "name": "D#2",
          "ticks": 4704,
          "time": 24.5,
          "velocity": 0.8661417322834646
        },
        {
          "duration": 0.5,
          "durationTicks": 96,
          "midi": 51,
          "name": "D#3",
          "ticks": 4704,
          "time": 24.5,
          "velocity": 0.7874015748031497
        },
        {
          "duration": 0.5,
          "durationTicks": 96,
          "midi": 35,
          "name": "B1",
          "ticks": 4800,
          "time": 25,
          "velocity": 0.7874015748031497
        },
        {
          "duration": 0.5,
          "durationTicks": 96,
          "midi": 51,
          "name": "D#3",
          "ticks": 4800,
          "time": 25,
          "velocity": 0.7874015748031497
        },
        {
          "duration": 0.41666666666666785,
          "durationTicks": 80,
          "midi": 39,
          "name": "D#2",
          "ticks": 4800,
          "time": 25,
          "velocity": 0.8661417322834646
        },
        {
          "duration": 0.5,
          "durationTicks": 96,
          "midi": 38,
          "name": "D2",
          "ticks": 4896,
          "time": 25.5,
          "velocity": 0.7874015748031497
        },
        {
          "duration": 0.41666666666666785,
          "durationTicks": 80,
          "midi": 39,
          "name": "D#2",
          "ticks": 4896,
          "time": 25.5,
          "velocity": 0.8661417322834646
        },
        {
          "duration": 0.5,
          "durationTicks": 96,
          "midi": 46,
          "name": "A#2",
          "ticks": 4896,
          "time": 25.5,
          "velocity": 0.7874015748031497
        },
        {
          "duration": 0.25,
          "durationTicks": 48,
          "midi": 44,
          "name": "G#2",
          "ticks": 4992,
          "time": 26,
          "velocity": 0.7874015748031497
        },
        {
          "duration": 0.25,
          "durationTicks": 48,
          "midi": 36,
          "name": "C2",
          "ticks": 4992,
          "time": 26,
          "velocity": 0.7874015748031497
        },
        {
          "duration": 0.41666666666666785,
          "durationTicks": 80,
          "midi": 39,
          "name": "D#2",
          "ticks": 4992,
          "time": 26,
          "velocity": 0.8661417322834646
        },
        {
          "duration": 0.25,
          "durationTicks": 48,
          "midi": 44,
          "name": "G#2",
          "ticks": 5040,
          "time": 26.25,
          "velocity": 0.7874015748031497
        },
        {
          "duration": 0.125,
          "durationTicks": 24,
          "midi": 36,
          "name": "C2",
          "ticks": 5040,
          "time": 26.25,
          "velocity": 0.7874015748031497
        },
        {
          "duration": 0.125,
          "durationTicks": 24,
          "midi": 36,
          "name": "C2",
          "ticks": 5064,
          "time": 26.375,
          "velocity": 0.7874015748031497
        },
        {
          "duration": 0.5,
          "durationTicks": 96,
          "midi": 38,
          "name": "D2",
          "ticks": 5088,
          "time": 26.5,
          "velocity": 0.7874015748031497
        },
        {
          "duration": 0.5,
          "durationTicks": 96,
          "midi": 51,
          "name": "D#3",
          "ticks": 5088,
          "time": 26.5,
          "velocity": 0.7874015748031497
        },
        {
          "duration": 0.41666666666666785,
          "durationTicks": 80,
          "midi": 39,
          "name": "D#2",
          "ticks": 5088,
          "time": 26.5,
          "velocity": 0.8661417322834646
        },
        {
          "duration": 0.5,
          "durationTicks": 96,
          "midi": 51,
          "name": "D#3",
          "ticks": 5184,
          "time": 27,
          "velocity": 0.7874015748031497
        },
        {
          "duration": 0.5,
          "durationTicks": 96,
          "midi": 35,
          "name": "B1",
          "ticks": 5184,
          "time": 27,
          "velocity": 0.7874015748031497
        },
        {
          "duration": 0.41666666666666785,
          "durationTicks": 80,
          "midi": 39,
          "name": "D#2",
          "ticks": 5184,
          "time": 27,
          "velocity": 0.8661417322834646
        },
        {
          "duration": 0.5,
          "durationTicks": 96,
          "midi": 38,
          "name": "D2",
          "ticks": 5280,
          "time": 27.5,
          "velocity": 0.7874015748031497
        },
        {
          "duration": 0.41666666666666785,
          "durationTicks": 80,
          "midi": 39,
          "name": "D#2",
          "ticks": 5280,
          "time": 27.5,
          "velocity": 0.8661417322834646
        },
        {
          "duration": 0.5,
          "durationTicks": 96,
          "midi": 46,
          "name": "A#2",
          "ticks": 5280,
          "time": 27.5,
          "velocity": 0.7874015748031497
        },
        {
          "duration": 0.41666666666666785,
          "durationTicks": 80,
          "midi": 39,
          "name": "D#2",
          "ticks": 5376,
          "time": 28,
          "velocity": 0.8661417322834646
        },
        {
          "duration": 0.25,
          "durationTicks": 48,
          "midi": 44,
          "name": "G#2",
          "ticks": 5376,
          "time": 28,
          "velocity": 0.7874015748031497
        },
        {
          "duration": 0.25,
          "durationTicks": 48,
          "midi": 36,
          "name": "C2",
          "ticks": 5376,
          "time": 28,
          "velocity": 0.7874015748031497
        },
        {
          "duration": 0.125,
          "durationTicks": 24,
          "midi": 36,
          "name": "C2",
          "ticks": 5424,
          "time": 28.25,
          "velocity": 0.7874015748031497
        },
        {
          "duration": 0.25,
          "durationTicks": 48,
          "midi": 44,
          "name": "G#2",
          "ticks": 5424,
          "time": 28.25,
          "velocity": 0.7874015748031497
        },
        {
          "duration": 0.125,
          "durationTicks": 24,
          "midi": 36,
          "name": "C2",
          "ticks": 5448,
          "time": 28.375,
          "velocity": 0.7874015748031497
        },
        {
          "duration": 0.5,
          "durationTicks": 96,
          "midi": 38,
          "name": "D2",
          "ticks": 5472,
          "time": 28.5,
          "velocity": 0.7874015748031497
        },
        {
          "duration": 0.41666666666666785,
          "durationTicks": 80,
          "midi": 39,
          "name": "D#2",
          "ticks": 5472,
          "time": 28.5,
          "velocity": 0.8661417322834646
        },
        {
          "duration": 0.5,
          "durationTicks": 96,
          "midi": 51,
          "name": "D#3",
          "ticks": 5472,
          "time": 28.5,
          "velocity": 0.7874015748031497
        },
        {
          "duration": 0.5,
          "durationTicks": 96,
          "midi": 51,
          "name": "D#3",
          "ticks": 5568,
          "time": 29,
          "velocity": 0.7874015748031497
        },
        {
          "duration": 0.5,
          "durationTicks": 96,
          "midi": 35,
          "name": "B1",
          "ticks": 5568,
          "time": 29,
          "velocity": 0.7874015748031497
        },
        {
          "duration": 0.41666666666666785,
          "durationTicks": 80,
          "midi": 39,
          "name": "D#2",
          "ticks": 5568,
          "time": 29,
          "velocity": 0.8661417322834646
        },
        {
          "duration": 0.5,
          "durationTicks": 96,
          "midi": 46,
          "name": "A#2",
          "ticks": 5664,
          "time": 29.5,
          "velocity": 0.7874015748031497
        },
        {
          "duration": 0.41666666666666785,
          "durationTicks": 80,
          "midi": 39,
          "name": "D#2",
          "ticks": 5664,
          "time": 29.5,
          "velocity": 0.8661417322834646
        },
        {
          "duration": 0.5,
          "durationTicks": 96,
          "midi": 38,
          "name": "D2",
          "ticks": 5664,
          "time": 29.5,
          "velocity": 0.7874015748031497
        },
        {
          "duration": 0.25,
          "durationTicks": 48,
          "midi": 44,
          "name": "G#2",
          "ticks": 5760,
          "time": 30,
          "velocity": 0.7874015748031497
        },
        {
          "duration": 0.25,
          "durationTicks": 48,
          "midi": 36,
          "name": "C2",
          "ticks": 5760,
          "time": 30,
          "velocity": 0.7874015748031497
        },
        {
          "duration": 0.41666666666666785,
          "durationTicks": 80,
          "midi": 39,
          "name": "D#2",
          "ticks": 5760,
          "time": 30,
          "velocity": 0.8661417322834646
        },
        {
          "duration": 0.25,
          "durationTicks": 48,
          "midi": 44,
          "name": "G#2",
          "ticks": 5808,
          "time": 30.25,
          "velocity": 0.7874015748031497
        },
        {
          "duration": 0.125,
          "durationTicks": 24,
          "midi": 36,
          "name": "C2",
          "ticks": 5808,
          "time": 30.25,
          "velocity": 0.7874015748031497
        },
        {
          "duration": 0.125,
          "durationTicks": 24,
          "midi": 36,
          "name": "C2",
          "ticks": 5832,
          "time": 30.375,
          "velocity": 0.7874015748031497
        },
        {
          "duration": 0.5,
          "durationTicks": 96,
          "midi": 51,
          "name": "D#3",
          "ticks": 5856,
          "time": 30.5,
          "velocity": 0.7874015748031497
        },
        {
          "duration": 0.41666666666666785,
          "durationTicks": 80,
          "midi": 39,
          "name": "D#2",
          "ticks": 5856,
          "time": 30.5,
          "velocity": 0.8661417322834646
        },
        {
          "duration": 0.5,
          "durationTicks": 96,
          "midi": 38,
          "name": "D2",
          "ticks": 5856,
          "time": 30.5,
          "velocity": 0.7874015748031497
        },
        {
          "duration": 0.5,
          "durationTicks": 96,
          "midi": 35,
          "name": "B1",
          "ticks": 5952,
          "time": 31,
          "velocity": 0.7874015748031497
        },
        {
          "duration": 0.5,
          "durationTicks": 96,
          "midi": 51,
          "name": "D#3",
          "ticks": 5952,
          "time": 31,
          "velocity": 0.7874015748031497
        },
        {
          "duration": 0.41666666666666785,
          "durationTicks": 80,
          "midi": 39,
          "name": "D#2",
          "ticks": 5952,
          "time": 31,
          "velocity": 0.8661417322834646
        },
        {
          "duration": 0.5,
          "durationTicks": 96,
          "midi": 38,
          "name": "D2",
          "ticks": 6048,
          "time": 31.5,
          "velocity": 0.7874015748031497
        },
        {
          "duration": 0.41666666666666785,
          "durationTicks": 80,
          "midi": 39,
          "name": "D#2",
          "ticks": 6048,
          "time": 31.5,
          "velocity": 0.8661417322834646
        },
        {
          "duration": 0.5,
          "durationTicks": 96,
          "midi": 46,
          "name": "A#2",
          "ticks": 6048,
          "time": 31.5,
          "velocity": 0.7874015748031497
        },
        {
          "duration": 0.25,
          "durationTicks": 48,
          "midi": 36,
          "name": "C2",
          "ticks": 6144,
          "time": 32,
          "velocity": 0.7874015748031497
        },
        {
          "duration": 0.4166666666666643,
          "durationTicks": 80,
          "midi": 39,
          "name": "D#2",
          "ticks": 6144,
          "time": 32,
          "velocity": 0.8661417322834646
        },
        {
          "duration": 0.25,
          "durationTicks": 48,
          "midi": 44,
          "name": "G#2",
          "ticks": 6144,
          "time": 32,
          "velocity": 0.7874015748031497
        },
        {
          "duration": 0.25,
          "durationTicks": 48,
          "midi": 44,
          "name": "G#2",
          "ticks": 6192,
          "time": 32.25,
          "velocity": 0.7874015748031497
        },
        {
          "duration": 0.125,
          "durationTicks": 24,
          "midi": 36,
          "name": "C2",
          "ticks": 6192,
          "time": 32.25,
          "velocity": 0.7874015748031497
        },
        {
          "duration": 0.125,
          "durationTicks": 24,
          "midi": 36,
          "name": "C2",
          "ticks": 6216,
          "time": 32.375,
          "velocity": 0.7874015748031497
        },
        {
          "duration": 0.5,
          "durationTicks": 96,
          "midi": 38,
          "name": "D2",
          "ticks": 6240,
          "time": 32.5,
          "velocity": 0.7874015748031497
        },
        {
          "duration": 0.5,
          "durationTicks": 96,
          "midi": 51,
          "name": "D#3",
          "ticks": 6240,
          "time": 32.5,
          "velocity": 0.7874015748031497
        },
        {
          "duration": 0.4166666666666643,
          "durationTicks": 80,
          "midi": 39,
          "name": "D#2",
          "ticks": 6240,
          "time": 32.5,
          "velocity": 0.8661417322834646
        },
        {
          "duration": 0.5,
          "durationTicks": 96,
          "midi": 35,
          "name": "B1",
          "ticks": 6336,
          "time": 33,
          "velocity": 0.7874015748031497
        },
        {
          "duration": 0.5,
          "durationTicks": 96,
          "midi": 51,
          "name": "D#3",
          "ticks": 6336,
          "time": 33,
          "velocity": 0.7874015748031497
        },
        {
          "duration": 0.4166666666666643,
          "durationTicks": 80,
          "midi": 39,
          "name": "D#2",
          "ticks": 6336,
          "time": 33,
          "velocity": 0.8661417322834646
        },
        {
          "duration": 0.5,
          "durationTicks": 96,
          "midi": 46,
          "name": "A#2",
          "ticks": 6432,
          "time": 33.5,
          "velocity": 0.7874015748031497
        },
        {
          "duration": 0.4166666666666643,
          "durationTicks": 80,
          "midi": 39,
          "name": "D#2",
          "ticks": 6432,
          "time": 33.5,
          "velocity": 0.8661417322834646
        },
        {
          "duration": 0.5,
          "durationTicks": 96,
          "midi": 38,
          "name": "D2",
          "ticks": 6432,
          "time": 33.5,
          "velocity": 0.7874015748031497
        },
        {
          "duration": 0.25,
          "durationTicks": 48,
          "midi": 44,
          "name": "G#2",
          "ticks": 6528,
          "time": 34,
          "velocity": 0.7874015748031497
        },
        {
          "duration": 0.25,
          "durationTicks": 48,
          "midi": 36,
          "name": "C2",
          "ticks": 6528,
          "time": 34,
          "velocity": 0.7874015748031497
        },
        {
          "duration": 0.4166666666666643,
          "durationTicks": 80,
          "midi": 39,
          "name": "D#2",
          "ticks": 6528,
          "time": 34,
          "velocity": 0.8661417322834646
        },
        {
          "duration": 0.125,
          "durationTicks": 24,
          "midi": 36,
          "name": "C2",
          "ticks": 6576,
          "time": 34.25,
          "velocity": 0.7874015748031497
        },
        {
          "duration": 0.25,
          "durationTicks": 48,
          "midi": 44,
          "name": "G#2",
          "ticks": 6576,
          "time": 34.25,
          "velocity": 0.7874015748031497
        },
        {
          "duration": 0.125,
          "durationTicks": 24,
          "midi": 36,
          "name": "C2",
          "ticks": 6600,
          "time": 34.375,
          "velocity": 0.7874015748031497
        },
        {
          "duration": 0.4166666666666643,
          "durationTicks": 80,
          "midi": 39,
          "name": "D#2",
          "ticks": 6624,
          "time": 34.5,
          "velocity": 0.8661417322834646
        },
        {
          "duration": 0.5,
          "durationTicks": 96,
          "midi": 51,
          "name": "D#3",
          "ticks": 6624,
          "time": 34.5,
          "velocity": 0.7874015748031497
        },
        {
          "duration": 0.5,
          "durationTicks": 96,
          "midi": 38,
          "name": "D2",
          "ticks": 6624,
          "time": 34.5,
          "velocity": 0.7874015748031497
        },
        {
          "duration": 0.5,
          "durationTicks": 96,
          "midi": 35,
          "name": "B1",
          "ticks": 6720,
          "time": 35,
          "velocity": 0.7874015748031497
        },
        {
          "duration": 0.5,
          "durationTicks": 96,
          "midi": 51,
          "name": "D#3",
          "ticks": 6720,
          "time": 35,
          "velocity": 0.7874015748031497
        },
        {
          "duration": 0.4166666666666643,
          "durationTicks": 80,
          "midi": 39,
          "name": "D#2",
          "ticks": 6720,
          "time": 35,
          "velocity": 0.8661417322834646
        },
        {
          "duration": 0.5,
          "durationTicks": 96,
          "midi": 38,
          "name": "D2",
          "ticks": 6816,
          "time": 35.5,
          "velocity": 0.7874015748031497
        },
        {
          "duration": 0.4166666666666643,
          "durationTicks": 80,
          "midi": 39,
          "name": "D#2",
          "ticks": 6816,
          "time": 35.5,
          "velocity": 0.8661417322834646
        },
        {
          "duration": 0.5,
          "durationTicks": 96,
          "midi": 46,
          "name": "A#2",
          "ticks": 6816,
          "time": 35.5,
          "velocity": 0.7874015748031497
        },
        {
          "duration": 0.4166666666666643,
          "durationTicks": 80,
          "midi": 39,
          "name": "D#2",
          "ticks": 6912,
          "time": 36,
          "velocity": 0.8661417322834646
        },
        {
          "duration": 0.25,
          "durationTicks": 48,
          "midi": 44,
          "name": "G#2",
          "ticks": 6912,
          "time": 36,
          "velocity": 0.7874015748031497
        },
        {
          "duration": 0.25,
          "durationTicks": 48,
          "midi": 36,
          "name": "C2",
          "ticks": 6912,
          "time": 36,
          "velocity": 0.7874015748031497
        },
        {
          "duration": 0.125,
          "durationTicks": 24,
          "midi": 36,
          "name": "C2",
          "ticks": 6960,
          "time": 36.25,
          "velocity": 0.7874015748031497
        },
        {
          "duration": 0.25,
          "durationTicks": 48,
          "midi": 44,
          "name": "G#2",
          "ticks": 6960,
          "time": 36.25,
          "velocity": 0.7874015748031497
        },
        {
          "duration": 0.125,
          "durationTicks": 24,
          "midi": 36,
          "name": "C2",
          "ticks": 6984,
          "time": 36.375,
          "velocity": 0.7874015748031497
        },
        {
          "duration": 0.4166666666666643,
          "durationTicks": 80,
          "midi": 39,
          "name": "D#2",
          "ticks": 7008,
          "time": 36.5,
          "velocity": 0.8661417322834646
        },
        {
          "duration": 0.5,
          "durationTicks": 96,
          "midi": 51,
          "name": "D#3",
          "ticks": 7008,
          "time": 36.5,
          "velocity": 0.7874015748031497
        },
        {
          "duration": 0.5,
          "durationTicks": 96,
          "midi": 38,
          "name": "D2",
          "ticks": 7008,
          "time": 36.5,
          "velocity": 0.7874015748031497
        },
        {
          "duration": 0.5,
          "durationTicks": 96,
          "midi": 51,
          "name": "D#3",
          "ticks": 7104,
          "time": 37,
          "velocity": 0.7874015748031497
        },
        {
          "duration": 0.5,
          "durationTicks": 96,
          "midi": 49,
          "name": "C#3",
          "ticks": 7104,
          "time": 37,
          "velocity": 0.7874015748031497
        },
        {
          "duration": 0.5,
          "durationTicks": 96,
          "midi": 35,
          "name": "B1",
          "ticks": 7104,
          "time": 37,
          "velocity": 0.7874015748031497
        },
        {
          "duration": 0.4166666666666643,
          "durationTicks": 80,
          "midi": 39,
          "name": "D#2",
          "ticks": 7104,
          "time": 37,
          "velocity": 0.8661417322834646
        },
        {
          "duration": 0.5,
          "durationTicks": 96,
          "midi": 38,
          "name": "D2",
          "ticks": 7200,
          "time": 37.5,
          "velocity": 0.7874015748031497
        },
        {
          "duration": 0.5,
          "durationTicks": 96,
          "midi": 46,
          "name": "A#2",
          "ticks": 7200,
          "time": 37.5,
          "velocity": 0.7874015748031497
        },
        {
          "duration": 0.5,
          "durationTicks": 96,
          "midi": 40,
          "name": "E2",
          "ticks": 7200,
          "time": 37.5,
          "velocity": 0.7874015748031497
        },
        {
          "duration": 0.4166666666666643,
          "durationTicks": 80,
          "midi": 39,
          "name": "D#2",
          "ticks": 7200,
          "time": 37.5,
          "velocity": 0.8661417322834646
        },
        {
          "duration": 0.4166666666666643,
          "durationTicks": 80,
          "midi": 39,
          "name": "D#2",
          "ticks": 7296,
          "time": 38,
          "velocity": 0.8661417322834646
        },
        {
          "duration": 0.25,
          "durationTicks": 48,
          "midi": 36,
          "name": "C2",
          "ticks": 7296,
          "time": 38,
          "velocity": 0.7874015748031497
        },
        {
          "duration": 0.25,
          "durationTicks": 48,
          "midi": 44,
          "name": "G#2",
          "ticks": 7296,
          "time": 38,
          "velocity": 0.7874015748031497
        },
        {
          "duration": 0.125,
          "durationTicks": 24,
          "midi": 36,
          "name": "C2",
          "ticks": 7344,
          "time": 38.25,
          "velocity": 0.7874015748031497
        },
        {
          "duration": 0.25,
          "durationTicks": 48,
          "midi": 44,
          "name": "G#2",
          "ticks": 7344,
          "time": 38.25,
          "velocity": 0.7874015748031497
        },
        {
          "duration": 0.125,
          "durationTicks": 24,
          "midi": 36,
          "name": "C2",
          "ticks": 7368,
          "time": 38.375,
          "velocity": 0.7874015748031497
        },
        {
          "duration": 0.5,
          "durationTicks": 96,
          "midi": 51,
          "name": "D#3",
          "ticks": 7392,
          "time": 38.5,
          "velocity": 0.7874015748031497
        },
        {
          "duration": 0.5,
          "durationTicks": 96,
          "midi": 40,
          "name": "E2",
          "ticks": 7392,
          "time": 38.5,
          "velocity": 0.7874015748031497
        },
        {
          "duration": 0.4166666666666643,
          "durationTicks": 80,
          "midi": 39,
          "name": "D#2",
          "ticks": 7392,
          "time": 38.5,
          "velocity": 0.8661417322834646
        },
        {
          "duration": 0.5,
          "durationTicks": 96,
          "midi": 38,
          "name": "D2",
          "ticks": 7392,
          "time": 38.5,
          "velocity": 0.7874015748031497
        },
        {
          "duration": 0.4166666666666643,
          "durationTicks": 80,
          "midi": 39,
          "name": "D#2",
          "ticks": 7488,
          "time": 39,
          "velocity": 0.8661417322834646
        },
        {
          "duration": 0.5,
          "durationTicks": 96,
          "midi": 35,
          "name": "B1",
          "ticks": 7488,
          "time": 39,
          "velocity": 0.7874015748031497
        },
        {
          "duration": 0.5,
          "durationTicks": 96,
          "midi": 51,
          "name": "D#3",
          "ticks": 7488,
          "time": 39,
          "velocity": 0.7874015748031497
        },
        {
          "duration": 0.5,
          "durationTicks": 96,
          "midi": 38,
          "name": "D2",
          "ticks": 7584,
          "time": 39.5,
          "velocity": 0.7874015748031497
        },
        {
          "duration": 0.4166666666666643,
          "durationTicks": 80,
          "midi": 39,
          "name": "D#2",
          "ticks": 7584,
          "time": 39.5,
          "velocity": 0.8661417322834646
        },
        {
          "duration": 0.5,
          "durationTicks": 96,
          "midi": 40,
          "name": "E2",
          "ticks": 7584,
          "time": 39.5,
          "velocity": 0.7874015748031497
        },
        {
          "duration": 0.5,
          "durationTicks": 96,
          "midi": 46,
          "name": "A#2",
          "ticks": 7584,
          "time": 39.5,
          "velocity": 0.7874015748031497
        },
        {
          "duration": 0.25,
          "durationTicks": 48,
          "midi": 36,
          "name": "C2",
          "ticks": 7680,
          "time": 40,
          "velocity": 0.7874015748031497
        },
        {
          "duration": 0.25,
          "durationTicks": 48,
          "midi": 44,
          "name": "G#2",
          "ticks": 7680,
          "time": 40,
          "velocity": 0.7874015748031497
        },
        {
          "duration": 0.4166666666666643,
          "durationTicks": 80,
          "midi": 39,
          "name": "D#2",
          "ticks": 7680,
          "time": 40,
          "velocity": 0.8661417322834646
        },
        {
          "duration": 0.25,
          "durationTicks": 48,
          "midi": 44,
          "name": "G#2",
          "ticks": 7728,
          "time": 40.25,
          "velocity": 0.7874015748031497
        },
        {
          "duration": 0.125,
          "durationTicks": 24,
          "midi": 36,
          "name": "C2",
          "ticks": 7728,
          "time": 40.25,
          "velocity": 0.7874015748031497
        },
        {
          "duration": 0.125,
          "durationTicks": 24,
          "midi": 36,
          "name": "C2",
          "ticks": 7752,
          "time": 40.375,
          "velocity": 0.7874015748031497
        },
        {
          "duration": 0.5,
          "durationTicks": 96,
          "midi": 38,
          "name": "D2",
          "ticks": 7776,
          "time": 40.5,
          "velocity": 0.7874015748031497
        },
        {
          "duration": 0.5,
          "durationTicks": 96,
          "midi": 51,
          "name": "D#3",
          "ticks": 7776,
          "time": 40.5,
          "velocity": 0.7874015748031497
        },
        {
          "duration": 0.5,
          "durationTicks": 96,
          "midi": 40,
          "name": "E2",
          "ticks": 7776,
          "time": 40.5,
          "velocity": 0.7874015748031497
        },
        {
          "duration": 0.4166666666666643,
          "durationTicks": 80,
          "midi": 39,
          "name": "D#2",
          "ticks": 7776,
          "time": 40.5,
          "velocity": 0.8661417322834646
        },
        {
          "duration": 0.4166666666666643,
          "durationTicks": 80,
          "midi": 39,
          "name": "D#2",
          "ticks": 7872,
          "time": 41,
          "velocity": 0.8661417322834646
        },
        {
          "duration": 0.5,
          "durationTicks": 96,
          "midi": 35,
          "name": "B1",
          "ticks": 7872,
          "time": 41,
          "velocity": 0.7874015748031497
        },
        {
          "duration": 0.5,
          "durationTicks": 96,
          "midi": 51,
          "name": "D#3",
          "ticks": 7872,
          "time": 41,
          "velocity": 0.7874015748031497
        },
        {
          "duration": 0.5,
          "durationTicks": 96,
          "midi": 38,
          "name": "D2",
          "ticks": 7968,
          "time": 41.5,
          "velocity": 0.7874015748031497
        },
        {
          "duration": 0.4166666666666643,
          "durationTicks": 80,
          "midi": 39,
          "name": "D#2",
          "ticks": 7968,
          "time": 41.5,
          "velocity": 0.8661417322834646
        },
        {
          "duration": 0.5,
          "durationTicks": 96,
          "midi": 46,
          "name": "A#2",
          "ticks": 7968,
          "time": 41.5,
          "velocity": 0.7874015748031497
        },
        {
          "duration": 0.5,
          "durationTicks": 96,
          "midi": 40,
          "name": "E2",
          "ticks": 7968,
          "time": 41.5,
          "velocity": 0.7874015748031497
        },
        {
          "duration": 0.25,
          "durationTicks": 48,
          "midi": 36,
          "name": "C2",
          "ticks": 8064,
          "time": 42,
          "velocity": 0.7874015748031497
        },
        {
          "duration": 0.25,
          "durationTicks": 48,
          "midi": 44,
          "name": "G#2",
          "ticks": 8064,
          "time": 42,
          "velocity": 0.7874015748031497
        },
        {
          "duration": 0.4166666666666643,
          "durationTicks": 80,
          "midi": 39,
          "name": "D#2",
          "ticks": 8064,
          "time": 42,
          "velocity": 0.8661417322834646
        },
        {
          "duration": 0.25,
          "durationTicks": 48,
          "midi": 44,
          "name": "G#2",
          "ticks": 8112,
          "time": 42.25,
          "velocity": 0.7874015748031497
        },
        {
          "duration": 0.125,
          "durationTicks": 24,
          "midi": 36,
          "name": "C2",
          "ticks": 8112,
          "time": 42.25,
          "velocity": 0.7874015748031497
        },
        {
          "duration": 0.125,
          "durationTicks": 24,
          "midi": 36,
          "name": "C2",
          "ticks": 8136,
          "time": 42.375,
          "velocity": 0.7874015748031497
        },
        {
          "duration": 0.5,
          "durationTicks": 96,
          "midi": 38,
          "name": "D2",
          "ticks": 8160,
          "time": 42.5,
          "velocity": 0.7874015748031497
        },
        {
          "duration": 0.4166666666666643,
          "durationTicks": 80,
          "midi": 39,
          "name": "D#2",
          "ticks": 8160,
          "time": 42.5,
          "velocity": 0.8661417322834646
        },
        {
          "duration": 0.5,
          "durationTicks": 96,
          "midi": 51,
          "name": "D#3",
          "ticks": 8160,
          "time": 42.5,
          "velocity": 0.7874015748031497
        },
        {
          "duration": 0.5,
          "durationTicks": 96,
          "midi": 40,
          "name": "E2",
          "ticks": 8160,
          "time": 42.5,
          "velocity": 0.7874015748031497
        },
        {
          "duration": 0.5,
          "durationTicks": 96,
          "midi": 35,
          "name": "B1",
          "ticks": 8256,
          "time": 43,
          "velocity": 0.7874015748031497
        },
        {
          "duration": 0.5,
          "durationTicks": 96,
          "midi": 51,
          "name": "D#3",
          "ticks": 8256,
          "time": 43,
          "velocity": 0.7874015748031497
        },
        {
          "duration": 0.4166666666666643,
          "durationTicks": 80,
          "midi": 39,
          "name": "D#2",
          "ticks": 8256,
          "time": 43,
          "velocity": 0.8661417322834646
        },
        {
          "duration": 0.5,
          "durationTicks": 96,
          "midi": 38,
          "name": "D2",
          "ticks": 8352,
          "time": 43.5,
          "velocity": 0.7874015748031497
        },
        {
          "duration": 0.4166666666666643,
          "durationTicks": 80,
          "midi": 39,
          "name": "D#2",
          "ticks": 8352,
          "time": 43.5,
          "velocity": 0.8661417322834646
        },
        {
          "duration": 0.5,
          "durationTicks": 96,
          "midi": 40,
          "name": "E2",
          "ticks": 8352,
          "time": 43.5,
          "velocity": 0.7874015748031497
        },
        {
          "duration": 0.5,
          "durationTicks": 96,
          "midi": 46,
          "name": "A#2",
          "ticks": 8352,
          "time": 43.5,
          "velocity": 0.7874015748031497
        },
        {
          "duration": 0.25,
          "durationTicks": 48,
          "midi": 36,
          "name": "C2",
          "ticks": 8448,
          "time": 44,
          "velocity": 0.7874015748031497
        },
        {
          "duration": 0.25,
          "durationTicks": 48,
          "midi": 44,
          "name": "G#2",
          "ticks": 8448,
          "time": 44,
          "velocity": 0.7874015748031497
        },
        {
          "duration": 0.4166666666666643,
          "durationTicks": 80,
          "midi": 39,
          "name": "D#2",
          "ticks": 8448,
          "time": 44,
          "velocity": 0.8661417322834646
        },
        {
          "duration": 0.25,
          "durationTicks": 48,
          "midi": 44,
          "name": "G#2",
          "ticks": 8496,
          "time": 44.25,
          "velocity": 0.7874015748031497
        },
        {
          "duration": 0.125,
          "durationTicks": 24,
          "midi": 36,
          "name": "C2",
          "ticks": 8496,
          "time": 44.25,
          "velocity": 0.7874015748031497
        },
        {
          "duration": 0.125,
          "durationTicks": 24,
          "midi": 36,
          "name": "C2",
          "ticks": 8520,
          "time": 44.375,
          "velocity": 0.7874015748031497
        },
        {
          "duration": 0.5,
          "durationTicks": 96,
          "midi": 38,
          "name": "D2",
          "ticks": 8544,
          "time": 44.5,
          "velocity": 0.7874015748031497
        },
        {
          "duration": 0.4166666666666643,
          "durationTicks": 80,
          "midi": 39,
          "name": "D#2",
          "ticks": 8544,
          "time": 44.5,
          "velocity": 0.8661417322834646
        },
        {
          "duration": 0.5,
          "durationTicks": 96,
          "midi": 40,
          "name": "E2",
          "ticks": 8544,
          "time": 44.5,
          "velocity": 0.7874015748031497
        },
        {
          "duration": 0.5,
          "durationTicks": 96,
          "midi": 51,
          "name": "D#3",
          "ticks": 8544,
          "time": 44.5,
          "velocity": 0.7874015748031497
        },
        {
          "duration": 0.5,
          "durationTicks": 96,
          "midi": 51,
          "name": "D#3",
          "ticks": 8640,
          "time": 45,
          "velocity": 0.7874015748031497
        },
        {
          "duration": 0.5,
          "durationTicks": 96,
          "midi": 35,
          "name": "B1",
          "ticks": 8640,
          "time": 45,
          "velocity": 0.7874015748031497
        },
        {
          "duration": 0.4166666666666643,
          "durationTicks": 80,
          "midi": 39,
          "name": "D#2",
          "ticks": 8640,
          "time": 45,
          "velocity": 0.8661417322834646
        },
        {
          "duration": 0.5,
          "durationTicks": 96,
          "midi": 46,
          "name": "A#2",
          "ticks": 8736,
          "time": 45.5,
          "velocity": 0.7874015748031497
        },
        {
          "duration": 0.5,
          "durationTicks": 96,
          "midi": 40,
          "name": "E2",
          "ticks": 8736,
          "time": 45.5,
          "velocity": 0.7874015748031497
        },
        {
          "duration": 0.4166666666666643,
          "durationTicks": 80,
          "midi": 39,
          "name": "D#2",
          "ticks": 8736,
          "time": 45.5,
          "velocity": 0.8661417322834646
        },
        {
          "duration": 0.5,
          "durationTicks": 96,
          "midi": 38,
          "name": "D2",
          "ticks": 8736,
          "time": 45.5,
          "velocity": 0.7874015748031497
        },
        {
          "duration": 0.25,
          "durationTicks": 48,
          "midi": 44,
          "name": "G#2",
          "ticks": 8832,
          "time": 46,
          "velocity": 0.7874015748031497
        },
        {
          "duration": 0.4166666666666643,
          "durationTicks": 80,
          "midi": 39,
          "name": "D#2",
          "ticks": 8832,
          "time": 46,
          "velocity": 0.8661417322834646
        },
        {
          "duration": 0.25,
          "durationTicks": 48,
          "midi": 36,
          "name": "C2",
          "ticks": 8832,
          "time": 46,
          "velocity": 0.7874015748031497
        },
        {
          "duration": 0.125,
          "durationTicks": 24,
          "midi": 36,
          "name": "C2",
          "ticks": 8880,
          "time": 46.25,
          "velocity": 0.7874015748031497
        },
        {
          "duration": 0.25,
          "durationTicks": 48,
          "midi": 44,
          "name": "G#2",
          "ticks": 8880,
          "time": 46.25,
          "velocity": 0.7874015748031497
        },
        {
          "duration": 0.125,
          "durationTicks": 24,
          "midi": 36,
          "name": "C2",
          "ticks": 8904,
          "time": 46.375,
          "velocity": 0.7874015748031497
        },
        {
          "duration": 0.5,
          "durationTicks": 96,
          "midi": 51,
          "name": "D#3",
          "ticks": 8928,
          "time": 46.5,
          "velocity": 0.7874015748031497
        },
        {
          "duration": 0.5,
          "durationTicks": 96,
          "midi": 40,
          "name": "E2",
          "ticks": 8928,
          "time": 46.5,
          "velocity": 0.7874015748031497
        },
        {
          "duration": 0.4166666666666643,
          "durationTicks": 80,
          "midi": 39,
          "name": "D#2",
          "ticks": 8928,
          "time": 46.5,
          "velocity": 0.8661417322834646
        },
        {
          "duration": 0.5,
          "durationTicks": 96,
          "midi": 38,
          "name": "D2",
          "ticks": 8928,
          "time": 46.5,
          "velocity": 0.7874015748031497
        },
        {
          "duration": 0.4166666666666643,
          "durationTicks": 80,
          "midi": 39,
          "name": "D#2",
          "ticks": 9024,
          "time": 47,
          "velocity": 0.8661417322834646
        },
        {
          "duration": 0.5,
          "durationTicks": 96,
          "midi": 35,
          "name": "B1",
          "ticks": 9024,
          "time": 47,
          "velocity": 0.7874015748031497
        },
        {
          "duration": 0.5,
          "durationTicks": 96,
          "midi": 51,
          "name": "D#3",
          "ticks": 9024,
          "time": 47,
          "velocity": 0.7874015748031497
        },
        {
          "duration": 0.5,
          "durationTicks": 96,
          "midi": 40,
          "name": "E2",
          "ticks": 9120,
          "time": 47.5,
          "velocity": 0.7874015748031497
        },
        {
          "duration": 0.5,
          "durationTicks": 96,
          "midi": 46,
          "name": "A#2",
          "ticks": 9120,
          "time": 47.5,
          "velocity": 0.7874015748031497
        },
        {
          "duration": 0.4166666666666643,
          "durationTicks": 80,
          "midi": 39,
          "name": "D#2",
          "ticks": 9120,
          "time": 47.5,
          "velocity": 0.8661417322834646
        },
        {
          "duration": 0.5,
          "durationTicks": 96,
          "midi": 38,
          "name": "D2",
          "ticks": 9120,
          "time": 47.5,
          "velocity": 0.7874015748031497
        },
        {
          "duration": 0.25,
          "durationTicks": 48,
          "midi": 36,
          "name": "C2",
          "ticks": 9216,
          "time": 48,
          "velocity": 0.7874015748031497
        },
        {
          "duration": 0.25,
          "durationTicks": 48,
          "midi": 44,
          "name": "G#2",
          "ticks": 9216,
          "time": 48,
          "velocity": 0.7874015748031497
        },
        {
          "duration": 0.4166666666666643,
          "durationTicks": 80,
          "midi": 39,
          "name": "D#2",
          "ticks": 9216,
          "time": 48,
          "velocity": 0.8661417322834646
        },
        {
          "duration": 0.125,
          "durationTicks": 24,
          "midi": 36,
          "name": "C2",
          "ticks": 9264,
          "time": 48.25,
          "velocity": 0.7874015748031497
        },
        {
          "duration": 0.25,
          "durationTicks": 48,
          "midi": 44,
          "name": "G#2",
          "ticks": 9264,
          "time": 48.25,
          "velocity": 0.7874015748031497
        },
        {
          "duration": 0.125,
          "durationTicks": 24,
          "midi": 36,
          "name": "C2",
          "ticks": 9288,
          "time": 48.375,
          "velocity": 0.7874015748031497
        },
        {
          "duration": 0.5,
          "durationTicks": 96,
          "midi": 51,
          "name": "D#3",
          "ticks": 9312,
          "time": 48.5,
          "velocity": 0.7874015748031497
        },
        {
          "duration": 0.5,
          "durationTicks": 96,
          "midi": 40,
          "name": "E2",
          "ticks": 9312,
          "time": 48.5,
          "velocity": 0.7874015748031497
        },
        {
          "duration": 0.4166666666666643,
          "durationTicks": 80,
          "midi": 39,
          "name": "D#2",
          "ticks": 9312,
          "time": 48.5,
          "velocity": 0.8661417322834646
        },
        {
          "duration": 0.5,
          "durationTicks": 96,
          "midi": 38,
          "name": "D2",
          "ticks": 9312,
          "time": 48.5,
          "velocity": 0.7874015748031497
        },
        {
          "duration": 0.5,
          "durationTicks": 96,
          "midi": 35,
          "name": "B1",
          "ticks": 9408,
          "time": 49,
          "velocity": 0.7874015748031497
        },
        {
          "duration": 0.5,
          "durationTicks": 96,
          "midi": 51,
          "name": "D#3",
          "ticks": 9408,
          "time": 49,
          "velocity": 0.7874015748031497
        },
        {
          "duration": 0.4166666666666643,
          "durationTicks": 80,
          "midi": 39,
          "name": "D#2",
          "ticks": 9408,
          "time": 49,
          "velocity": 0.8661417322834646
        },
        {
          "duration": 0.5,
          "durationTicks": 96,
          "midi": 38,
          "name": "D2",
          "ticks": 9504,
          "time": 49.5,
          "velocity": 0.7874015748031497
        },
        {
          "duration": 0.4166666666666643,
          "durationTicks": 80,
          "midi": 39,
          "name": "D#2",
          "ticks": 9504,
          "time": 49.5,
          "velocity": 0.8661417322834646
        },
        {
          "duration": 0.5,
          "durationTicks": 96,
          "midi": 46,
          "name": "A#2",
          "ticks": 9504,
          "time": 49.5,
          "velocity": 0.7874015748031497
        },
        {
          "duration": 0.5,
          "durationTicks": 96,
          "midi": 40,
          "name": "E2",
          "ticks": 9504,
          "time": 49.5,
          "velocity": 0.7874015748031497
        },
        {
          "duration": 0.25,
          "durationTicks": 48,
          "midi": 36,
          "name": "C2",
          "ticks": 9600,
          "time": 50,
          "velocity": 0.7874015748031497
        },
        {
          "duration": 0.25,
          "durationTicks": 48,
          "midi": 44,
          "name": "G#2",
          "ticks": 9600,
          "time": 50,
          "velocity": 0.7874015748031497
        },
        {
          "duration": 0.4166666666666643,
          "durationTicks": 80,
          "midi": 39,
          "name": "D#2",
          "ticks": 9600,
          "time": 50,
          "velocity": 0.8661417322834646
        },
        {
          "duration": 0.125,
          "durationTicks": 24,
          "midi": 36,
          "name": "C2",
          "ticks": 9648,
          "time": 50.25,
          "velocity": 0.7874015748031497
        },
        {
          "duration": 0.25,
          "durationTicks": 48,
          "midi": 44,
          "name": "G#2",
          "ticks": 9648,
          "time": 50.25,
          "velocity": 0.7874015748031497
        },
        {
          "duration": 0.125,
          "durationTicks": 24,
          "midi": 36,
          "name": "C2",
          "ticks": 9672,
          "time": 50.375,
          "velocity": 0.7874015748031497
        },
        {
          "duration": 0.5,
          "durationTicks": 96,
          "midi": 38,
          "name": "D2",
          "ticks": 9696,
          "time": 50.5,
          "velocity": 0.7874015748031497
        },
        {
          "duration": 0.4166666666666643,
          "durationTicks": 80,
          "midi": 39,
          "name": "D#2",
          "ticks": 9696,
          "time": 50.5,
          "velocity": 0.8661417322834646
        },
        {
          "duration": 0.5,
          "durationTicks": 96,
          "midi": 51,
          "name": "D#3",
          "ticks": 9696,
          "time": 50.5,
          "velocity": 0.7874015748031497
        },
        {
          "duration": 0.5,
          "durationTicks": 96,
          "midi": 40,
          "name": "E2",
          "ticks": 9696,
          "time": 50.5,
          "velocity": 0.7874015748031497
        },
        {
          "duration": 0.5,
          "durationTicks": 96,
          "midi": 35,
          "name": "B1",
          "ticks": 9792,
          "time": 51,
          "velocity": 0.7874015748031497
        },
        {
          "duration": 0.5,
          "durationTicks": 96,
          "midi": 51,
          "name": "D#3",
          "ticks": 9792,
          "time": 51,
          "velocity": 0.7874015748031497
        },
        {
          "duration": 0.4166666666666643,
          "durationTicks": 80,
          "midi": 39,
          "name": "D#2",
          "ticks": 9792,
          "time": 51,
          "velocity": 0.8661417322834646
        },
        {
          "duration": 0.5,
          "durationTicks": 96,
          "midi": 38,
          "name": "D2",
          "ticks": 9888,
          "time": 51.5,
          "velocity": 0.7874015748031497
        },
        {
          "duration": 0.4166666666666643,
          "durationTicks": 80,
          "midi": 39,
          "name": "D#2",
          "ticks": 9888,
          "time": 51.5,
          "velocity": 0.8661417322834646
        },
        {
          "duration": 0.5,
          "durationTicks": 96,
          "midi": 46,
          "name": "A#2",
          "ticks": 9888,
          "time": 51.5,
          "velocity": 0.7874015748031497
        },
        {
          "duration": 0.5,
          "durationTicks": 96,
          "midi": 40,
          "name": "E2",
          "ticks": 9888,
          "time": 51.5,
          "velocity": 0.7874015748031497
        },
        {
          "duration": 0.25,
          "durationTicks": 48,
          "midi": 36,
          "name": "C2",
          "ticks": 9984,
          "time": 52,
          "velocity": 0.7874015748031497
        },
        {
          "duration": 0.25,
          "durationTicks": 48,
          "midi": 44,
          "name": "G#2",
          "ticks": 9984,
          "time": 52,
          "velocity": 0.7874015748031497
        },
        {
          "duration": 0.4166666666666643,
          "durationTicks": 80,
          "midi": 39,
          "name": "D#2",
          "ticks": 9984,
          "time": 52,
          "velocity": 0.8661417322834646
        },
        {
          "duration": 0.25,
          "durationTicks": 48,
          "midi": 44,
          "name": "G#2",
          "ticks": 10032,
          "time": 52.25,
          "velocity": 0.7874015748031497
        },
        {
          "duration": 0.125,
          "durationTicks": 24,
          "midi": 36,
          "name": "C2",
          "ticks": 10032,
          "time": 52.25,
          "velocity": 0.7874015748031497
        },
        {
          "duration": 0.125,
          "durationTicks": 24,
          "midi": 36,
          "name": "C2",
          "ticks": 10056,
          "time": 52.375,
          "velocity": 0.7874015748031497
        },
        {
          "duration": 0.5,
          "durationTicks": 96,
          "midi": 38,
          "name": "D2",
          "ticks": 10080,
          "time": 52.5,
          "velocity": 0.7874015748031497
        },
        {
          "duration": 0.4166666666666643,
          "durationTicks": 80,
          "midi": 39,
          "name": "D#2",
          "ticks": 10080,
          "time": 52.5,
          "velocity": 0.8661417322834646
        },
        {
          "duration": 0.5,
          "durationTicks": 96,
          "midi": 40,
          "name": "E2",
          "ticks": 10080,
          "time": 52.5,
          "velocity": 0.7874015748031497
        },
        {
          "duration": 0.5,
          "durationTicks": 96,
          "midi": 51,
          "name": "D#3",
          "ticks": 10080,
          "time": 52.5,
          "velocity": 0.7874015748031497
        },
        {
          "duration": 0.4166666666666643,
          "durationTicks": 80,
          "midi": 39,
          "name": "D#2",
          "ticks": 10176,
          "time": 53,
          "velocity": 0.8661417322834646
        },
        {
          "duration": 0.5,
          "durationTicks": 96,
          "midi": 35,
          "name": "B1",
          "ticks": 10176,
          "time": 53,
          "velocity": 0.7874015748031497
        },
        {
          "duration": 0.5,
          "durationTicks": 96,
          "midi": 51,
          "name": "D#3",
          "ticks": 10176,
          "time": 53,
          "velocity": 0.7874015748031497
        },
        {
          "duration": 0.5,
          "durationTicks": 96,
          "midi": 38,
          "name": "D2",
          "ticks": 10272,
          "time": 53.5,
          "velocity": 0.7874015748031497
        },
        {
          "duration": 0.4166666666666643,
          "durationTicks": 80,
          "midi": 39,
          "name": "D#2",
          "ticks": 10272,
          "time": 53.5,
          "velocity": 0.8661417322834646
        },
        {
          "duration": 0.5,
          "durationTicks": 96,
          "midi": 46,
          "name": "A#2",
          "ticks": 10272,
          "time": 53.5,
          "velocity": 0.7874015748031497
        },
        {
          "duration": 0.5,
          "durationTicks": 96,
          "midi": 40,
          "name": "E2",
          "ticks": 10272,
          "time": 53.5,
          "velocity": 0.7874015748031497
        },
        {
          "duration": 0.25,
          "durationTicks": 48,
          "midi": 36,
          "name": "C2",
          "ticks": 10368,
          "time": 54,
          "velocity": 0.7874015748031497
        },
        {
          "duration": 0.25,
          "durationTicks": 48,
          "midi": 44,
          "name": "G#2",
          "ticks": 10368,
          "time": 54,
          "velocity": 0.7874015748031497
        },
        {
          "duration": 0.4166666666666643,
          "durationTicks": 80,
          "midi": 39,
          "name": "D#2",
          "ticks": 10368,
          "time": 54,
          "velocity": 0.8661417322834646
        },
        {
          "duration": 0.125,
          "durationTicks": 24,
          "midi": 36,
          "name": "C2",
          "ticks": 10416,
          "time": 54.25,
          "velocity": 0.7874015748031497
        },
        {
          "duration": 0.25,
          "durationTicks": 48,
          "midi": 44,
          "name": "G#2",
          "ticks": 10416,
          "time": 54.25,
          "velocity": 0.7874015748031497
        },
        {
          "duration": 0.125,
          "durationTicks": 24,
          "midi": 36,
          "name": "C2",
          "ticks": 10440,
          "time": 54.375,
          "velocity": 0.7874015748031497
        },
        {
          "duration": 0.5,
          "durationTicks": 96,
          "midi": 38,
          "name": "D2",
          "ticks": 10464,
          "time": 54.5,
          "velocity": 0.7874015748031497
        },
        {
          "duration": 0.4166666666666643,
          "durationTicks": 80,
          "midi": 39,
          "name": "D#2",
          "ticks": 10464,
          "time": 54.5,
          "velocity": 0.8661417322834646
        },
        {
          "duration": 0.5,
          "durationTicks": 96,
          "midi": 51,
          "name": "D#3",
          "ticks": 10464,
          "time": 54.5,
          "velocity": 0.7874015748031497
        },
        {
          "duration": 0.5,
          "durationTicks": 96,
          "midi": 40,
          "name": "E2",
          "ticks": 10464,
          "time": 54.5,
          "velocity": 0.7874015748031497
        },
        {
          "duration": 0.5,
          "durationTicks": 96,
          "midi": 35,
          "name": "B1",
          "ticks": 10560,
          "time": 55,
          "velocity": 0.7874015748031497
        },
        {
          "duration": 0.5,
          "durationTicks": 96,
          "midi": 51,
          "name": "D#3",
          "ticks": 10560,
          "time": 55,
          "velocity": 0.7874015748031497
        },
        {
          "duration": 0.4166666666666643,
          "durationTicks": 80,
          "midi": 39,
          "name": "D#2",
          "ticks": 10560,
          "time": 55,
          "velocity": 0.8661417322834646
        },
        {
          "duration": 0.5,
          "durationTicks": 96,
          "midi": 38,
          "name": "D2",
          "ticks": 10656,
          "time": 55.5,
          "velocity": 0.7874015748031497
        },
        {
          "duration": 0.4166666666666643,
          "durationTicks": 80,
          "midi": 39,
          "name": "D#2",
          "ticks": 10656,
          "time": 55.5,
          "velocity": 0.8661417322834646
        },
        {
          "duration": 0.5,
          "durationTicks": 96,
          "midi": 40,
          "name": "E2",
          "ticks": 10656,
          "time": 55.5,
          "velocity": 0.7874015748031497
        },
        {
          "duration": 0.5,
          "durationTicks": 96,
          "midi": 46,
          "name": "A#2",
          "ticks": 10656,
          "time": 55.5,
          "velocity": 0.7874015748031497
        },
        {
          "duration": 0.4166666666666643,
          "durationTicks": 80,
          "midi": 39,
          "name": "D#2",
          "ticks": 10752,
          "time": 56,
          "velocity": 0.8661417322834646
        },
        {
          "duration": 0.25,
          "durationTicks": 48,
          "midi": 44,
          "name": "G#2",
          "ticks": 10752,
          "time": 56,
          "velocity": 0.7874015748031497
        },
        {
          "duration": 0.25,
          "durationTicks": 48,
          "midi": 36,
          "name": "C2",
          "ticks": 10752,
          "time": 56,
          "velocity": 0.7874015748031497
        },
        {
          "duration": 0.25,
          "durationTicks": 48,
          "midi": 44,
          "name": "G#2",
          "ticks": 10800,
          "time": 56.25,
          "velocity": 0.7874015748031497
        },
        {
          "duration": 0.125,
          "durationTicks": 24,
          "midi": 36,
          "name": "C2",
          "ticks": 10800,
          "time": 56.25,
          "velocity": 0.7874015748031497
        },
        {
          "duration": 0.125,
          "durationTicks": 24,
          "midi": 36,
          "name": "C2",
          "ticks": 10824,
          "time": 56.375,
          "velocity": 0.7874015748031497
        },
        {
          "duration": 0.5,
          "durationTicks": 96,
          "midi": 40,
          "name": "E2",
          "ticks": 10848,
          "time": 56.5,
          "velocity": 0.7874015748031497
        },
        {
          "duration": 0.5,
          "durationTicks": 96,
          "midi": 51,
          "name": "D#3",
          "ticks": 10848,
          "time": 56.5,
          "velocity": 0.7874015748031497
        },
        {
          "duration": 0.4166666666666643,
          "durationTicks": 80,
          "midi": 39,
          "name": "D#2",
          "ticks": 10848,
          "time": 56.5,
          "velocity": 0.8661417322834646
        },
        {
          "duration": 0.5,
          "durationTicks": 96,
          "midi": 38,
          "name": "D2",
          "ticks": 10848,
          "time": 56.5,
          "velocity": 0.7874015748031497
        },
        {
          "duration": 0.4166666666666643,
          "durationTicks": 80,
          "midi": 39,
          "name": "D#2",
          "ticks": 10944,
          "time": 57,
          "velocity": 0.8661417322834646
        },
        {
          "duration": 0.5,
          "durationTicks": 96,
          "midi": 35,
          "name": "B1",
          "ticks": 10944,
          "time": 57,
          "velocity": 0.7874015748031497
        },
        {
          "duration": 0.5,
          "durationTicks": 96,
          "midi": 49,
          "name": "C#3",
          "ticks": 10944,
          "time": 57,
          "velocity": 0.7874015748031497
        },
        {
          "duration": 0.5,
          "durationTicks": 96,
          "midi": 51,
          "name": "D#3",
          "ticks": 10944,
          "time": 57,
          "velocity": 0.7874015748031497
        },
        {
          "duration": 0.5,
          "durationTicks": 96,
          "midi": 46,
          "name": "A#2",
          "ticks": 11040,
          "time": 57.5,
          "velocity": 0.7874015748031497
        },
        {
          "duration": 0.5,
          "durationTicks": 96,
          "midi": 40,
          "name": "E2",
          "ticks": 11040,
          "time": 57.5,
          "velocity": 0.7874015748031497
        },
        {
          "duration": 0.4166666666666643,
          "durationTicks": 80,
          "midi": 39,
          "name": "D#2",
          "ticks": 11040,
          "time": 57.5,
          "velocity": 0.8661417322834646
        },
        {
          "duration": 0.4166666666666643,
          "durationTicks": 80,
          "midi": 39,
          "name": "D#2",
          "ticks": 11136,
          "time": 58,
          "velocity": 0.8661417322834646
        },
        {
          "duration": 0.25,
          "durationTicks": 48,
          "midi": 44,
          "name": "G#2",
          "ticks": 11136,
          "time": 58,
          "velocity": 0.7874015748031497
        },
        {
          "duration": 0.25,
          "durationTicks": 48,
          "midi": 36,
          "name": "C2",
          "ticks": 11136,
          "time": 58,
          "velocity": 0.7874015748031497
        },
        {
          "duration": 0.25,
          "durationTicks": 48,
          "midi": 44,
          "name": "G#2",
          "ticks": 11184,
          "time": 58.25,
          "velocity": 0.7874015748031497
        },
        {
          "duration": 0.125,
          "durationTicks": 24,
          "midi": 36,
          "name": "C2",
          "ticks": 11184,
          "time": 58.25,
          "velocity": 0.7874015748031497
        },
        {
          "duration": 0.125,
          "durationTicks": 24,
          "midi": 36,
          "name": "C2",
          "ticks": 11208,
          "time": 58.375,
          "velocity": 0.7874015748031497
        },
        {
          "duration": 0.5,
          "durationTicks": 96,
          "midi": 51,
          "name": "D#3",
          "ticks": 11232,
          "time": 58.5,
          "velocity": 0.7874015748031497
        },
        {
          "duration": 0.5,
          "durationTicks": 96,
          "midi": 40,
          "name": "E2",
          "ticks": 11232,
          "time": 58.5,
          "velocity": 0.7874015748031497
        },
        {
          "duration": 0.4166666666666643,
          "durationTicks": 80,
          "midi": 39,
          "name": "D#2",
          "ticks": 11232,
          "time": 58.5,
          "velocity": 0.8661417322834646
        },
        {
          "duration": 0.5,
          "durationTicks": 96,
          "midi": 51,
          "name": "D#3",
          "ticks": 11328,
          "time": 59,
          "velocity": 0.7874015748031497
        },
        {
          "duration": 0.4166666666666643,
          "durationTicks": 80,
          "midi": 39,
          "name": "D#2",
          "ticks": 11328,
          "time": 59,
          "velocity": 0.8661417322834646
        },
        {
          "duration": 0.5,
          "durationTicks": 96,
          "midi": 35,
          "name": "B1",
          "ticks": 11328,
          "time": 59,
          "velocity": 0.7874015748031497
        },
        {
          "duration": 0.5,
          "durationTicks": 96,
          "midi": 40,
          "name": "E2",
          "ticks": 11424,
          "time": 59.5,
          "velocity": 0.7874015748031497
        },
        {
          "duration": 0.5,
          "durationTicks": 96,
          "midi": 46,
          "name": "A#2",
          "ticks": 11424,
          "time": 59.5,
          "velocity": 0.7874015748031497
        },
        {
          "duration": 0.4166666666666643,
          "durationTicks": 80,
          "midi": 39,
          "name": "D#2",
          "ticks": 11424,
          "time": 59.5,
          "velocity": 0.8661417322834646
        },
        {
          "duration": 0.25,
          "durationTicks": 48,
          "midi": 44,
          "name": "G#2",
          "ticks": 11520,
          "time": 60,
          "velocity": 0.7874015748031497
        },
        {
          "duration": 0.4166666666666643,
          "durationTicks": 80,
          "midi": 39,
          "name": "D#2",
          "ticks": 11520,
          "time": 60,
          "velocity": 0.8661417322834646
        },
        {
          "duration": 0.25,
          "durationTicks": 48,
          "midi": 36,
          "name": "C2",
          "ticks": 11520,
          "time": 60,
          "velocity": 0.7874015748031497
        },
        {
          "duration": 0.25,
          "durationTicks": 48,
          "midi": 44,
          "name": "G#2",
          "ticks": 11568,
          "time": 60.25,
          "velocity": 0.7874015748031497
        },
        {
          "duration": 0.125,
          "durationTicks": 24,
          "midi": 36,
          "name": "C2",
          "ticks": 11568,
          "time": 60.25,
          "velocity": 0.7874015748031497
        },
        {
          "duration": 0.125,
          "durationTicks": 24,
          "midi": 36,
          "name": "C2",
          "ticks": 11592,
          "time": 60.375,
          "velocity": 0.7874015748031497
        },
        {
          "duration": 0.4166666666666643,
          "durationTicks": 80,
          "midi": 39,
          "name": "D#2",
          "ticks": 11616,
          "time": 60.5,
          "velocity": 0.8661417322834646
        },
        {
          "duration": 0.5,
          "durationTicks": 96,
          "midi": 40,
          "name": "E2",
          "ticks": 11616,
          "time": 60.5,
          "velocity": 0.7874015748031497
        },
        {
          "duration": 0.5,
          "durationTicks": 96,
          "midi": 51,
          "name": "D#3",
          "ticks": 11616,
          "time": 60.5,
          "velocity": 0.7874015748031497
        },
        {
          "duration": 0.5,
          "durationTicks": 96,
          "midi": 35,
          "name": "B1",
          "ticks": 11712,
          "time": 61,
          "velocity": 0.7874015748031497
        },
        {
          "duration": 0.4166666666666643,
          "durationTicks": 80,
          "midi": 39,
          "name": "D#2",
          "ticks": 11712,
          "time": 61,
          "velocity": 0.8661417322834646
        },
        {
          "duration": 0.5,
          "durationTicks": 96,
          "midi": 51,
          "name": "D#3",
          "ticks": 11712,
          "time": 61,
          "velocity": 0.7874015748031497
        },
        {
          "duration": 0.5,
          "durationTicks": 96,
          "midi": 40,
          "name": "E2",
          "ticks": 11808,
          "time": 61.5,
          "velocity": 0.7874015748031497
        },
        {
          "duration": 0.5,
          "durationTicks": 96,
          "midi": 46,
          "name": "A#2",
          "ticks": 11808,
          "time": 61.5,
          "velocity": 0.7874015748031497
        },
        {
          "duration": 0.4166666666666643,
          "durationTicks": 80,
          "midi": 39,
          "name": "D#2",
          "ticks": 11808,
          "time": 61.5,
          "velocity": 0.8661417322834646
        },
        {
          "duration": 0.4166666666666643,
          "durationTicks": 80,
          "midi": 39,
          "name": "D#2",
          "ticks": 11904,
          "time": 62,
          "velocity": 0.8661417322834646
        },
        {
          "duration": 0.25,
          "durationTicks": 48,
          "midi": 44,
          "name": "G#2",
          "ticks": 11904,
          "time": 62,
          "velocity": 0.7874015748031497
        },
        {
          "duration": 0.25,
          "durationTicks": 48,
          "midi": 36,
          "name": "C2",
          "ticks": 11904,
          "time": 62,
          "velocity": 0.7874015748031497
        },
        {
          "duration": 0.125,
          "durationTicks": 24,
          "midi": 36,
          "name": "C2",
          "ticks": 11952,
          "time": 62.25,
          "velocity": 0.7874015748031497
        },
        {
          "duration": 0.25,
          "durationTicks": 48,
          "midi": 44,
          "name": "G#2",
          "ticks": 11952,
          "time": 62.25,
          "velocity": 0.7874015748031497
        },
        {
          "duration": 0.125,
          "durationTicks": 24,
          "midi": 36,
          "name": "C2",
          "ticks": 11976,
          "time": 62.375,
          "velocity": 0.7874015748031497
        },
        {
          "duration": 0.5,
          "durationTicks": 96,
          "midi": 40,
          "name": "E2",
          "ticks": 12000,
          "time": 62.5,
          "velocity": 0.7874015748031497
        },
        {
          "duration": 0.5,
          "durationTicks": 96,
          "midi": 51,
          "name": "D#3",
          "ticks": 12000,
          "time": 62.5,
          "velocity": 0.7874015748031497
        },
        {
          "duration": 0.4166666666666643,
          "durationTicks": 80,
          "midi": 39,
          "name": "D#2",
          "ticks": 12000,
          "time": 62.5,
          "velocity": 0.8661417322834646
        },
        {
          "duration": 0.4166666666666643,
          "durationTicks": 80,
          "midi": 39,
          "name": "D#2",
          "ticks": 12096,
          "time": 63,
          "velocity": 0.8661417322834646
        },
        {
          "duration": 0.5,
          "durationTicks": 96,
          "midi": 51,
          "name": "D#3",
          "ticks": 12096,
          "time": 63,
          "velocity": 0.7874015748031497
        },
        {
          "duration": 0.5,
          "durationTicks": 96,
          "midi": 35,
          "name": "B1",
          "ticks": 12096,
          "time": 63,
          "velocity": 0.7874015748031497
        },
        {
          "duration": 0.5,
          "durationTicks": 96,
          "midi": 46,
          "name": "A#2",
          "ticks": 12192,
          "time": 63.5,
          "velocity": 0.7874015748031497
        },
        {
          "duration": 0.5,
          "durationTicks": 96,
          "midi": 40,
          "name": "E2",
          "ticks": 12192,
          "time": 63.5,
          "velocity": 0.7874015748031497
        },
        {
          "duration": 0.4166666666666643,
          "durationTicks": 80,
          "midi": 39,
          "name": "D#2",
          "ticks": 12192,
          "time": 63.5,
          "velocity": 0.8661417322834646
        },
        {
          "duration": 0.4166666666666714,
          "durationTicks": 80,
          "midi": 39,
          "name": "D#2",
          "ticks": 12288,
          "time": 64,
          "velocity": 0.8661417322834646
        },
        {
          "duration": 0.25,
          "durationTicks": 48,
          "midi": 44,
          "name": "G#2",
          "ticks": 12288,
          "time": 64,
          "velocity": 0.7874015748031497
        },
        {
          "duration": 0.25,
          "durationTicks": 48,
          "midi": 36,
          "name": "C2",
          "ticks": 12288,
          "time": 64,
          "velocity": 0.7874015748031497
        },
        {
          "duration": 0.25,
          "durationTicks": 48,
          "midi": 44,
          "name": "G#2",
          "ticks": 12336,
          "time": 64.25,
          "velocity": 0.7874015748031497
        },
        {
          "duration": 0.125,
          "durationTicks": 24,
          "midi": 36,
          "name": "C2",
          "ticks": 12336,
          "time": 64.25,
          "velocity": 0.7874015748031497
        },
        {
          "duration": 0.125,
          "durationTicks": 24,
          "midi": 36,
          "name": "C2",
          "ticks": 12360,
          "time": 64.375,
          "velocity": 0.7874015748031497
        },
        {
          "duration": 0.5,
          "durationTicks": 96,
          "midi": 51,
          "name": "D#3",
          "ticks": 12384,
          "time": 64.5,
          "velocity": 0.7874015748031497
        },
        {
          "duration": 0.5,
          "durationTicks": 96,
          "midi": 40,
          "name": "E2",
          "ticks": 12384,
          "time": 64.5,
          "velocity": 0.7874015748031497
        },
        {
          "duration": 0.4166666666666714,
          "durationTicks": 80,
          "midi": 39,
          "name": "D#2",
          "ticks": 12384,
          "time": 64.5,
          "velocity": 0.8661417322834646
        },
        {
          "duration": 0.4166666666666714,
          "durationTicks": 80,
          "midi": 39,
          "name": "D#2",
          "ticks": 12480,
          "time": 65,
          "velocity": 0.8661417322834646
        },
        {
          "duration": 0.5,
          "durationTicks": 96,
          "midi": 51,
          "name": "D#3",
          "ticks": 12480,
          "time": 65,
          "velocity": 0.7874015748031497
        },
        {
          "duration": 0.5,
          "durationTicks": 96,
          "midi": 35,
          "name": "B1",
          "ticks": 12480,
          "time": 65,
          "velocity": 0.7874015748031497
        },
        {
          "duration": 0.5,
          "durationTicks": 96,
          "midi": 46,
          "name": "A#2",
          "ticks": 12576,
          "time": 65.5,
          "velocity": 0.7874015748031497
        },
        {
          "duration": 0.5,
          "durationTicks": 96,
          "midi": 40,
          "name": "E2",
          "ticks": 12576,
          "time": 65.5,
          "velocity": 0.7874015748031497
        },
        {
          "duration": 0.4166666666666714,
          "durationTicks": 80,
          "midi": 39,
          "name": "D#2",
          "ticks": 12576,
          "time": 65.5,
          "velocity": 0.8661417322834646
        },
        {
          "duration": 0.4166666666666714,
          "durationTicks": 80,
          "midi": 39,
          "name": "D#2",
          "ticks": 12672,
          "time": 66,
          "velocity": 0.8661417322834646
        },
        {
          "duration": 0.25,
          "durationTicks": 48,
          "midi": 44,
          "name": "G#2",
          "ticks": 12672,
          "time": 66,
          "velocity": 0.7874015748031497
        },
        {
          "duration": 0.25,
          "durationTicks": 48,
          "midi": 36,
          "name": "C2",
          "ticks": 12672,
          "time": 66,
          "velocity": 0.7874015748031497
        },
        {
          "duration": 0.25,
          "durationTicks": 48,
          "midi": 44,
          "name": "G#2",
          "ticks": 12720,
          "time": 66.25,
          "velocity": 0.7874015748031497
        },
        {
          "duration": 0.125,
          "durationTicks": 24,
          "midi": 36,
          "name": "C2",
          "ticks": 12720,
          "time": 66.25,
          "velocity": 0.7874015748031497
        },
        {
          "duration": 0.125,
          "durationTicks": 24,
          "midi": 36,
          "name": "C2",
          "ticks": 12744,
          "time": 66.375,
          "velocity": 0.7874015748031497
        },
        {
          "duration": 0.5,
          "durationTicks": 96,
          "midi": 51,
          "name": "D#3",
          "ticks": 12768,
          "time": 66.5,
          "velocity": 0.7874015748031497
        },
        {
          "duration": 0.5,
          "durationTicks": 96,
          "midi": 40,
          "name": "E2",
          "ticks": 12768,
          "time": 66.5,
          "velocity": 0.7874015748031497
        },
        {
          "duration": 0.4166666666666714,
          "durationTicks": 80,
          "midi": 39,
          "name": "D#2",
          "ticks": 12768,
          "time": 66.5,
          "velocity": 0.8661417322834646
        },
        {
          "duration": 0.5,
          "durationTicks": 96,
          "midi": 35,
          "name": "B1",
          "ticks": 12864,
          "time": 67,
          "velocity": 0.7874015748031497
        },
        {
          "duration": 0.4166666666666714,
          "durationTicks": 80,
          "midi": 39,
          "name": "D#2",
          "ticks": 12864,
          "time": 67,
          "velocity": 0.8661417322834646
        },
        {
          "duration": 0.5,
          "durationTicks": 96,
          "midi": 51,
          "name": "D#3",
          "ticks": 12864,
          "time": 67,
          "velocity": 0.7874015748031497
        },
        {
          "duration": 0.5,
          "durationTicks": 96,
          "midi": 40,
          "name": "E2",
          "ticks": 12960,
          "time": 67.5,
          "velocity": 0.7874015748031497
        },
        {
          "duration": 0.5,
          "durationTicks": 96,
          "midi": 46,
          "name": "A#2",
          "ticks": 12960,
          "time": 67.5,
          "velocity": 0.7874015748031497
        },
        {
          "duration": 0.4166666666666714,
          "durationTicks": 80,
          "midi": 39,
          "name": "D#2",
          "ticks": 12960,
          "time": 67.5,
          "velocity": 0.8661417322834646
        },
        {
          "duration": 0.25,
          "durationTicks": 48,
          "midi": 36,
          "name": "C2",
          "ticks": 13056,
          "time": 68,
          "velocity": 0.7874015748031497
        },
        {
          "duration": 0.4166666666666714,
          "durationTicks": 80,
          "midi": 39,
          "name": "D#2",
          "ticks": 13056,
          "time": 68,
          "velocity": 0.8661417322834646
        },
        {
          "duration": 0.25,
          "durationTicks": 48,
          "midi": 44,
          "name": "G#2",
          "ticks": 13056,
          "time": 68,
          "velocity": 0.7874015748031497
        },
        {
          "duration": 0.125,
          "durationTicks": 24,
          "midi": 36,
          "name": "C2",
          "ticks": 13104,
          "time": 68.25,
          "velocity": 0.7874015748031497
        },
        {
          "duration": 0.25,
          "durationTicks": 48,
          "midi": 44,
          "name": "G#2",
          "ticks": 13104,
          "time": 68.25,
          "velocity": 0.7874015748031497
        },
        {
          "duration": 0.125,
          "durationTicks": 24,
          "midi": 36,
          "name": "C2",
          "ticks": 13128,
          "time": 68.375,
          "velocity": 0.7874015748031497
        },
        {
          "duration": 0.5,
          "durationTicks": 96,
          "midi": 51,
          "name": "D#3",
          "ticks": 13152,
          "time": 68.5,
          "velocity": 0.7874015748031497
        },
        {
          "duration": 0.5,
          "durationTicks": 96,
          "midi": 40,
          "name": "E2",
          "ticks": 13152,
          "time": 68.5,
          "velocity": 0.7874015748031497
        },
        {
          "duration": 0.4166666666666714,
          "durationTicks": 80,
          "midi": 39,
          "name": "D#2",
          "ticks": 13152,
          "time": 68.5,
          "velocity": 0.8661417322834646
        },
        {
          "duration": 0.4166666666666714,
          "durationTicks": 80,
          "midi": 39,
          "name": "D#2",
          "ticks": 13248,
          "time": 69,
          "velocity": 0.8661417322834646
        },
        {
          "duration": 0.5,
          "durationTicks": 96,
          "midi": 51,
          "name": "D#3",
          "ticks": 13248,
          "time": 69,
          "velocity": 0.7874015748031497
        },
        {
          "duration": 0.5,
          "durationTicks": 96,
          "midi": 35,
          "name": "B1",
          "ticks": 13248,
          "time": 69,
          "velocity": 0.7874015748031497
        },
        {
          "duration": 0.5,
          "durationTicks": 96,
          "midi": 40,
          "name": "E2",
          "ticks": 13344,
          "time": 69.5,
          "velocity": 0.7874015748031497
        },
        {
          "duration": 0.5,
          "durationTicks": 96,
          "midi": 46,
          "name": "A#2",
          "ticks": 13344,
          "time": 69.5,
          "velocity": 0.7874015748031497
        },
        {
          "duration": 0.4166666666666714,
          "durationTicks": 80,
          "midi": 39,
          "name": "D#2",
          "ticks": 13344,
          "time": 69.5,
          "velocity": 0.8661417322834646
        },
        {
          "duration": 0.4166666666666714,
          "durationTicks": 80,
          "midi": 39,
          "name": "D#2",
          "ticks": 13440,
          "time": 70,
          "velocity": 0.8661417322834646
        },
        {
          "duration": 0.25,
          "durationTicks": 48,
          "midi": 44,
          "name": "G#2",
          "ticks": 13440,
          "time": 70,
          "velocity": 0.7874015748031497
        },
        {
          "duration": 0.25,
          "durationTicks": 48,
          "midi": 36,
          "name": "C2",
          "ticks": 13440,
          "time": 70,
          "velocity": 0.7874015748031497
        },
        {
          "duration": 0.25,
          "durationTicks": 48,
          "midi": 44,
          "name": "G#2",
          "ticks": 13488,
          "time": 70.25,
          "velocity": 0.7874015748031497
        },
        {
          "duration": 0.125,
          "durationTicks": 24,
          "midi": 36,
          "name": "C2",
          "ticks": 13488,
          "time": 70.25,
          "velocity": 0.7874015748031497
        },
        {
          "duration": 0.125,
          "durationTicks": 24,
          "midi": 36,
          "name": "C2",
          "ticks": 13512,
          "time": 70.375,
          "velocity": 0.7874015748031497
        },
        {
          "duration": 0.5,
          "durationTicks": 96,
          "midi": 40,
          "name": "E2",
          "ticks": 13536,
          "time": 70.5,
          "velocity": 0.7874015748031497
        },
        {
          "duration": 0.5,
          "durationTicks": 96,
          "midi": 51,
          "name": "D#3",
          "ticks": 13536,
          "time": 70.5,
          "velocity": 0.7874015748031497
        },
        {
          "duration": 0.4166666666666714,
          "durationTicks": 80,
          "midi": 39,
          "name": "D#2",
          "ticks": 13536,
          "time": 70.5,
          "velocity": 0.8661417322834646
        },
        {
          "duration": 0.4166666666666714,
          "durationTicks": 80,
          "midi": 39,
          "name": "D#2",
          "ticks": 13632,
          "time": 71,
          "velocity": 0.8661417322834646
        },
        {
          "duration": 0.5,
          "durationTicks": 96,
          "midi": 51,
          "name": "D#3",
          "ticks": 13632,
          "time": 71,
          "velocity": 0.7874015748031497
        },
        {
          "duration": 0.5,
          "durationTicks": 96,
          "midi": 35,
          "name": "B1",
          "ticks": 13632,
          "time": 71,
          "velocity": 0.7874015748031497
        },
        {
          "duration": 0.5,
          "durationTicks": 96,
          "midi": 40,
          "name": "E2",
          "ticks": 13728,
          "time": 71.5,
          "velocity": 0.7874015748031497
        },
        {
          "duration": 0.5,
          "durationTicks": 96,
          "midi": 46,
          "name": "A#2",
          "ticks": 13728,
          "time": 71.5,
          "velocity": 0.7874015748031497
        },
        {
          "duration": 0.4166666666666714,
          "durationTicks": 80,
          "midi": 39,
          "name": "D#2",
          "ticks": 13728,
          "time": 71.5,
          "velocity": 0.8661417322834646
        },
        {
          "duration": 0.25,
          "durationTicks": 48,
          "midi": 36,
          "name": "C2",
          "ticks": 13824,
          "time": 72,
          "velocity": 0.7874015748031497
        },
        {
          "duration": 0.25,
          "durationTicks": 48,
          "midi": 44,
          "name": "G#2",
          "ticks": 13824,
          "time": 72,
          "velocity": 0.7874015748031497
        },
        {
          "duration": 0.4166666666666714,
          "durationTicks": 80,
          "midi": 39,
          "name": "D#2",
          "ticks": 13824,
          "time": 72,
          "velocity": 0.8661417322834646
        },
        {
          "duration": 0.125,
          "durationTicks": 24,
          "midi": 36,
          "name": "C2",
          "ticks": 13872,
          "time": 72.25,
          "velocity": 0.7874015748031497
        },
        {
          "duration": 0.25,
          "durationTicks": 48,
          "midi": 44,
          "name": "G#2",
          "ticks": 13872,
          "time": 72.25,
          "velocity": 0.7874015748031497
        },
        {
          "duration": 0.125,
          "durationTicks": 24,
          "midi": 36,
          "name": "C2",
          "ticks": 13896,
          "time": 72.375,
          "velocity": 0.7874015748031497
        },
        {
          "duration": 0.4166666666666714,
          "durationTicks": 80,
          "midi": 39,
          "name": "D#2",
          "ticks": 13920,
          "time": 72.5,
          "velocity": 0.8661417322834646
        },
        {
          "duration": 0.5,
          "durationTicks": 96,
          "midi": 40,
          "name": "E2",
          "ticks": 13920,
          "time": 72.5,
          "velocity": 0.7874015748031497
        },
        {
          "duration": 0.5,
          "durationTicks": 96,
          "midi": 51,
          "name": "D#3",
          "ticks": 13920,
          "time": 72.5,
          "velocity": 0.7874015748031497
        },
        {
          "duration": 0.5,
          "durationTicks": 96,
          "midi": 49,
          "name": "C#3",
          "ticks": 14016,
          "time": 73,
          "velocity": 0.7874015748031497
        },
        {
          "duration": 0.5,
          "durationTicks": 96,
          "midi": 35,
          "name": "B1",
          "ticks": 14016,
          "time": 73,
          "velocity": 0.7874015748031497
        },
        {
          "duration": 0.5,
          "durationTicks": 96,
          "midi": 51,
          "name": "D#3",
          "ticks": 14016,
          "time": 73,
          "velocity": 0.7874015748031497
        },
        {
          "duration": 0.4166666666666714,
          "durationTicks": 80,
          "midi": 39,
          "name": "D#2",
          "ticks": 14016,
          "time": 73,
          "velocity": 0.8661417322834646
        },
        {
          "duration": 0.4166666666666714,
          "durationTicks": 80,
          "midi": 39,
          "name": "D#2",
          "ticks": 14112,
          "time": 73.5,
          "velocity": 0.8661417322834646
        },
        {
          "duration": 0.5,
          "durationTicks": 96,
          "midi": 46,
          "name": "A#2",
          "ticks": 14112,
          "time": 73.5,
          "velocity": 0.7874015748031497
        },
        {
          "duration": 0.5,
          "durationTicks": 96,
          "midi": 40,
          "name": "E2",
          "ticks": 14112,
          "time": 73.5,
          "velocity": 0.7874015748031497
        },
        {
          "duration": 0.5,
          "durationTicks": 96,
          "midi": 38,
          "name": "D2",
          "ticks": 14112,
          "time": 73.5,
          "velocity": 0.7874015748031497
        },
        {
          "duration": 0.25,
          "durationTicks": 48,
          "midi": 36,
          "name": "C2",
          "ticks": 14208,
          "time": 74,
          "velocity": 0.7874015748031497
        },
        {
          "duration": 0.25,
          "durationTicks": 48,
          "midi": 44,
          "name": "G#2",
          "ticks": 14208,
          "time": 74,
          "velocity": 0.7874015748031497
        },
        {
          "duration": 0.4166666666666714,
          "durationTicks": 80,
          "midi": 39,
          "name": "D#2",
          "ticks": 14208,
          "time": 74,
          "velocity": 0.8661417322834646
        },
        {
          "duration": 0.25,
          "durationTicks": 48,
          "midi": 44,
          "name": "G#2",
          "ticks": 14256,
          "time": 74.25,
          "velocity": 0.7874015748031497
        },
        {
          "duration": 0.125,
          "durationTicks": 24,
          "midi": 36,
          "name": "C2",
          "ticks": 14256,
          "time": 74.25,
          "velocity": 0.7874015748031497
        },
        {
          "duration": 0.125,
          "durationTicks": 24,
          "midi": 36,
          "name": "C2",
          "ticks": 14280,
          "time": 74.375,
          "velocity": 0.7874015748031497
        },
        {
          "duration": 0.5,
          "durationTicks": 96,
          "midi": 38,
          "name": "D2",
          "ticks": 14304,
          "time": 74.5,
          "velocity": 0.7874015748031497
        },
        {
          "duration": 0.5,
          "durationTicks": 96,
          "midi": 40,
          "name": "E2",
          "ticks": 14304,
          "time": 74.5,
          "velocity": 0.7874015748031497
        },
        {
          "duration": 0.5,
          "durationTicks": 96,
          "midi": 51,
          "name": "D#3",
          "ticks": 14304,
          "time": 74.5,
          "velocity": 0.7874015748031497
        },
        {
          "duration": 0.4166666666666714,
          "durationTicks": 80,
          "midi": 39,
          "name": "D#2",
          "ticks": 14304,
          "time": 74.5,
          "velocity": 0.8661417322834646
        },
        {
          "duration": 0.5,
          "durationTicks": 96,
          "midi": 35,
          "name": "B1",
          "ticks": 14400,
          "time": 75,
          "velocity": 0.7874015748031497
        },
        {
          "duration": 0.5,
          "durationTicks": 96,
          "midi": 51,
          "name": "D#3",
          "ticks": 14400,
          "time": 75,
          "velocity": 0.7874015748031497
        },
        {
          "duration": 0.4166666666666714,
          "durationTicks": 80,
          "midi": 39,
          "name": "D#2",
          "ticks": 14400,
          "time": 75,
          "velocity": 0.8661417322834646
        },
        {
          "duration": 0.5,
          "durationTicks": 96,
          "midi": 38,
          "name": "D2",
          "ticks": 14496,
          "time": 75.5,
          "velocity": 0.7874015748031497
        },
        {
          "duration": 0.5,
          "durationTicks": 96,
          "midi": 46,
          "name": "A#2",
          "ticks": 14496,
          "time": 75.5,
          "velocity": 0.7874015748031497
        },
        {
          "duration": 0.5,
          "durationTicks": 96,
          "midi": 40,
          "name": "E2",
          "ticks": 14496,
          "time": 75.5,
          "velocity": 0.7874015748031497
        },
        {
          "duration": 0.4166666666666714,
          "durationTicks": 80,
          "midi": 39,
          "name": "D#2",
          "ticks": 14496,
          "time": 75.5,
          "velocity": 0.8661417322834646
        },
        {
          "duration": 0.25,
          "durationTicks": 48,
          "midi": 36,
          "name": "C2",
          "ticks": 14592,
          "time": 76,
          "velocity": 0.7874015748031497
        },
        {
          "duration": 0.25,
          "durationTicks": 48,
          "midi": 44,
          "name": "G#2",
          "ticks": 14592,
          "time": 76,
          "velocity": 0.7874015748031497
        },
        {
          "duration": 0.4166666666666714,
          "durationTicks": 80,
          "midi": 39,
          "name": "D#2",
          "ticks": 14592,
          "time": 76,
          "velocity": 0.8661417322834646
        },
        {
          "duration": 0.125,
          "durationTicks": 24,
          "midi": 36,
          "name": "C2",
          "ticks": 14640,
          "time": 76.25,
          "velocity": 0.7874015748031497
        },
        {
          "duration": 0.25,
          "durationTicks": 48,
          "midi": 44,
          "name": "G#2",
          "ticks": 14640,
          "time": 76.25,
          "velocity": 0.7874015748031497
        },
        {
          "duration": 0.125,
          "durationTicks": 24,
          "midi": 36,
          "name": "C2",
          "ticks": 14664,
          "time": 76.375,
          "velocity": 0.7874015748031497
        },
        {
          "duration": 0.4166666666666714,
          "durationTicks": 80,
          "midi": 39,
          "name": "D#2",
          "ticks": 14688,
          "time": 76.5,
          "velocity": 0.8661417322834646
        },
        {
          "duration": 0.5,
          "durationTicks": 96,
          "midi": 51,
          "name": "D#3",
          "ticks": 14688,
          "time": 76.5,
          "velocity": 0.7874015748031497
        },
        {
          "duration": 0.5,
          "durationTicks": 96,
          "midi": 40,
          "name": "E2",
          "ticks": 14688,
          "time": 76.5,
          "velocity": 0.7874015748031497
        },
        {
          "duration": 0.5,
          "durationTicks": 96,
          "midi": 38,
          "name": "D2",
          "ticks": 14688,
          "time": 76.5,
          "velocity": 0.7874015748031497
        },
        {
          "duration": 0.5,
          "durationTicks": 96,
          "midi": 35,
          "name": "B1",
          "ticks": 14784,
          "time": 77,
          "velocity": 0.7874015748031497
        },
        {
          "duration": 0.5,
          "durationTicks": 96,
          "midi": 51,
          "name": "D#3",
          "ticks": 14784,
          "time": 77,
          "velocity": 0.7874015748031497
        },
        {
          "duration": 0.4166666666666714,
          "durationTicks": 80,
          "midi": 39,
          "name": "D#2",
          "ticks": 14784,
          "time": 77,
          "velocity": 0.8661417322834646
        },
        {
          "duration": 0.5,
          "durationTicks": 96,
          "midi": 46,
          "name": "A#2",
          "ticks": 14880,
          "time": 77.5,
          "velocity": 0.7874015748031497
        },
        {
          "duration": 0.5,
          "durationTicks": 96,
          "midi": 40,
          "name": "E2",
          "ticks": 14880,
          "time": 77.5,
          "velocity": 0.7874015748031497
        },
        {
          "duration": 0.4166666666666714,
          "durationTicks": 80,
          "midi": 39,
          "name": "D#2",
          "ticks": 14880,
          "time": 77.5,
          "velocity": 0.8661417322834646
        },
        {
          "duration": 0.5,
          "durationTicks": 96,
          "midi": 38,
          "name": "D2",
          "ticks": 14880,
          "time": 77.5,
          "velocity": 0.7874015748031497
        },
        {
          "duration": 0.25,
          "durationTicks": 48,
          "midi": 36,
          "name": "C2",
          "ticks": 14976,
          "time": 78,
          "velocity": 0.7874015748031497
        },
        {
          "duration": 0.25,
          "durationTicks": 48,
          "midi": 44,
          "name": "G#2",
          "ticks": 14976,
          "time": 78,
          "velocity": 0.7874015748031497
        },
        {
          "duration": 0.4166666666666714,
          "durationTicks": 80,
          "midi": 39,
          "name": "D#2",
          "ticks": 14976,
          "time": 78,
          "velocity": 0.8661417322834646
        },
        {
          "duration": 0.125,
          "durationTicks": 24,
          "midi": 36,
          "name": "C2",
          "ticks": 15024,
          "time": 78.25,
          "velocity": 0.7874015748031497
        },
        {
          "duration": 0.25,
          "durationTicks": 48,
          "midi": 44,
          "name": "G#2",
          "ticks": 15024,
          "time": 78.25,
          "velocity": 0.7874015748031497
        },
        {
          "duration": 0.125,
          "durationTicks": 24,
          "midi": 36,
          "name": "C2",
          "ticks": 15048,
          "time": 78.375,
          "velocity": 0.7874015748031497
        },
        {
          "duration": 0.4166666666666714,
          "durationTicks": 80,
          "midi": 39,
          "name": "D#2",
          "ticks": 15072,
          "time": 78.5,
          "velocity": 0.8661417322834646
        },
        {
          "duration": 0.5,
          "durationTicks": 96,
          "midi": 40,
          "name": "E2",
          "ticks": 15072,
          "time": 78.5,
          "velocity": 0.7874015748031497
        },
        {
          "duration": 0.5,
          "durationTicks": 96,
          "midi": 51,
          "name": "D#3",
          "ticks": 15072,
          "time": 78.5,
          "velocity": 0.7874015748031497
        },
        {
          "duration": 0.5,
          "durationTicks": 96,
          "midi": 38,
          "name": "D2",
          "ticks": 15072,
          "time": 78.5,
          "velocity": 0.7874015748031497
        },
        {
          "duration": 0.5,
          "durationTicks": 96,
          "midi": 35,
          "name": "B1",
          "ticks": 15168,
          "time": 79,
          "velocity": 0.7874015748031497
        },
        {
          "duration": 0.4166666666666714,
          "durationTicks": 80,
          "midi": 39,
          "name": "D#2",
          "ticks": 15168,
          "time": 79,
          "velocity": 0.8661417322834646
        },
        {
          "duration": 0.5,
          "durationTicks": 96,
          "midi": 51,
          "name": "D#3",
          "ticks": 15168,
          "time": 79,
          "velocity": 0.7874015748031497
        },
        {
          "duration": 0.4166666666666714,
          "durationTicks": 80,
          "midi": 39,
          "name": "D#2",
          "ticks": 15264,
          "time": 79.5,
          "velocity": 0.8661417322834646
        },
        {
          "duration": 0.5,
          "durationTicks": 96,
          "midi": 46,
          "name": "A#2",
          "ticks": 15264,
          "time": 79.5,
          "velocity": 0.7874015748031497
        },
        {
          "duration": 0.5,
          "durationTicks": 96,
          "midi": 40,
          "name": "E2",
          "ticks": 15264,
          "time": 79.5,
          "velocity": 0.7874015748031497
        },
        {
          "duration": 0.5,
          "durationTicks": 96,
          "midi": 38,
          "name": "D2",
          "ticks": 15264,
          "time": 79.5,
          "velocity": 0.7874015748031497
        },
        {
          "duration": 0.25,
          "durationTicks": 48,
          "midi": 36,
          "name": "C2",
          "ticks": 15360,
          "time": 80,
          "velocity": 0.7874015748031497
        },
        {
          "duration": 0.4166666666666714,
          "durationTicks": 80,
          "midi": 39,
          "name": "D#2",
          "ticks": 15360,
          "time": 80,
          "velocity": 0.8661417322834646
        },
        {
          "duration": 0.25,
          "durationTicks": 48,
          "midi": 44,
          "name": "G#2",
          "ticks": 15360,
          "time": 80,
          "velocity": 0.7874015748031497
        },
        {
          "duration": 0.25,
          "durationTicks": 48,
          "midi": 44,
          "name": "G#2",
          "ticks": 15408,
          "time": 80.25,
          "velocity": 0.7874015748031497
        },
        {
          "duration": 0.125,
          "durationTicks": 24,
          "midi": 36,
          "name": "C2",
          "ticks": 15408,
          "time": 80.25,
          "velocity": 0.7874015748031497
        },
        {
          "duration": 0.125,
          "durationTicks": 24,
          "midi": 36,
          "name": "C2",
          "ticks": 15432,
          "time": 80.375,
          "velocity": 0.7874015748031497
        },
        {
          "duration": 0.5,
          "durationTicks": 96,
          "midi": 38,
          "name": "D2",
          "ticks": 15456,
          "time": 80.5,
          "velocity": 0.7874015748031497
        },
        {
          "duration": 0.4166666666666714,
          "durationTicks": 80,
          "midi": 39,
          "name": "D#2",
          "ticks": 15456,
          "time": 80.5,
          "velocity": 0.8661417322834646
        },
        {
          "duration": 0.5,
          "durationTicks": 96,
          "midi": 40,
          "name": "E2",
          "ticks": 15456,
          "time": 80.5,
          "velocity": 0.7874015748031497
        },
        {
          "duration": 0.5,
          "durationTicks": 96,
          "midi": 51,
          "name": "D#3",
          "ticks": 15456,
          "time": 80.5,
          "velocity": 0.7874015748031497
        },
        {
          "duration": 0.5,
          "durationTicks": 96,
          "midi": 35,
          "name": "B1",
          "ticks": 15552,
          "time": 81,
          "velocity": 0.7874015748031497
        },
        {
          "duration": 0.4166666666666714,
          "durationTicks": 80,
          "midi": 39,
          "name": "D#2",
          "ticks": 15552,
          "time": 81,
          "velocity": 0.8661417322834646
        },
        {
          "duration": 0.5,
          "durationTicks": 96,
          "midi": 51,
          "name": "D#3",
          "ticks": 15552,
          "time": 81,
          "velocity": 0.7874015748031497
        },
        {
          "duration": 0.4166666666666714,
          "durationTicks": 80,
          "midi": 39,
          "name": "D#2",
          "ticks": 15648,
          "time": 81.5,
          "velocity": 0.8661417322834646
        },
        {
          "duration": 0.5,
          "durationTicks": 96,
          "midi": 40,
          "name": "E2",
          "ticks": 15648,
          "time": 81.5,
          "velocity": 0.7874015748031497
        },
        {
          "duration": 0.5,
          "durationTicks": 96,
          "midi": 46,
          "name": "A#2",
          "ticks": 15648,
          "time": 81.5,
          "velocity": 0.7874015748031497
        },
        {
          "duration": 0.5,
          "durationTicks": 96,
          "midi": 38,
          "name": "D2",
          "ticks": 15648,
          "time": 81.5,
          "velocity": 0.7874015748031497
        },
        {
          "duration": 0.25,
          "durationTicks": 48,
          "midi": 36,
          "name": "C2",
          "ticks": 15744,
          "time": 82,
          "velocity": 0.7874015748031497
        },
        {
          "duration": 0.25,
          "durationTicks": 48,
          "midi": 44,
          "name": "G#2",
          "ticks": 15744,
          "time": 82,
          "velocity": 0.7874015748031497
        },
        {
          "duration": 0.4166666666666714,
          "durationTicks": 80,
          "midi": 39,
          "name": "D#2",
          "ticks": 15744,
          "time": 82,
          "velocity": 0.8661417322834646
        },
        {
          "duration": 0.125,
          "durationTicks": 24,
          "midi": 36,
          "name": "C2",
          "ticks": 15792,
          "time": 82.25,
          "velocity": 0.7874015748031497
        },
        {
          "duration": 0.25,
          "durationTicks": 48,
          "midi": 44,
          "name": "G#2",
          "ticks": 15792,
          "time": 82.25,
          "velocity": 0.7874015748031497
        },
        {
          "duration": 0.125,
          "durationTicks": 24,
          "midi": 36,
          "name": "C2",
          "ticks": 15816,
          "time": 82.375,
          "velocity": 0.7874015748031497
        },
        {
          "duration": 0.5,
          "durationTicks": 96,
          "midi": 51,
          "name": "D#3",
          "ticks": 15840,
          "time": 82.5,
          "velocity": 0.7874015748031497
        },
        {
          "duration": 0.5,
          "durationTicks": 96,
          "midi": 40,
          "name": "E2",
          "ticks": 15840,
          "time": 82.5,
          "velocity": 0.7874015748031497
        },
        {
          "duration": 0.4166666666666714,
          "durationTicks": 80,
          "midi": 39,
          "name": "D#2",
          "ticks": 15840,
          "time": 82.5,
          "velocity": 0.8661417322834646
        },
        {
          "duration": 0.5,
          "durationTicks": 96,
          "midi": 38,
          "name": "D2",
          "ticks": 15840,
          "time": 82.5,
          "velocity": 0.7874015748031497
        },
        {
          "duration": 0.5,
          "durationTicks": 96,
          "midi": 35,
          "name": "B1",
          "ticks": 15936,
          "time": 83,
          "velocity": 0.7874015748031497
        },
        {
          "duration": 0.4166666666666714,
          "durationTicks": 80,
          "midi": 39,
          "name": "D#2",
          "ticks": 15936,
          "time": 83,
          "velocity": 0.8661417322834646
        },
        {
          "duration": 0.5,
          "durationTicks": 96,
          "midi": 51,
          "name": "D#3",
          "ticks": 15936,
          "time": 83,
          "velocity": 0.7874015748031497
        },
        {
          "duration": 0.5,
          "durationTicks": 96,
          "midi": 38,
          "name": "D2",
          "ticks": 16032,
          "time": 83.5,
          "velocity": 0.7874015748031497
        },
        {
          "duration": 0.5,
          "durationTicks": 96,
          "midi": 40,
          "name": "E2",
          "ticks": 16032,
          "time": 83.5,
          "velocity": 0.7874015748031497
        },
        {
          "duration": 0.5,
          "durationTicks": 96,
          "midi": 46,
          "name": "A#2",
          "ticks": 16032,
          "time": 83.5,
          "velocity": 0.7874015748031497
        },
        {
          "duration": 0.4166666666666714,
          "durationTicks": 80,
          "midi": 39,
          "name": "D#2",
          "ticks": 16032,
          "time": 83.5,
          "velocity": 0.8661417322834646
        },
        {
          "duration": 0.25,
          "durationTicks": 48,
          "midi": 36,
          "name": "C2",
          "ticks": 16128,
          "time": 84,
          "velocity": 0.7874015748031497
        },
        {
          "duration": 0.4166666666666714,
          "durationTicks": 80,
          "midi": 39,
          "name": "D#2",
          "ticks": 16128,
          "time": 84,
          "velocity": 0.8661417322834646
        },
        {
          "duration": 0.25,
          "durationTicks": 48,
          "midi": 44,
          "name": "G#2",
          "ticks": 16128,
          "time": 84,
          "velocity": 0.7874015748031497
        },
        {
          "duration": 0.25,
          "durationTicks": 48,
          "midi": 44,
          "name": "G#2",
          "ticks": 16176,
          "time": 84.25,
          "velocity": 0.7874015748031497
        },
        {
          "duration": 0.125,
          "durationTicks": 24,
          "midi": 36,
          "name": "C2",
          "ticks": 16176,
          "time": 84.25,
          "velocity": 0.7874015748031497
        },
        {
          "duration": 0.125,
          "durationTicks": 24,
          "midi": 36,
          "name": "C2",
          "ticks": 16200,
          "time": 84.375,
          "velocity": 0.7874015748031497
        },
        {
          "duration": 0.4166666666666714,
          "durationTicks": 80,
          "midi": 39,
          "name": "D#2",
          "ticks": 16224,
          "time": 84.5,
          "velocity": 0.8661417322834646
        },
        {
          "duration": 0.5,
          "durationTicks": 96,
          "midi": 40,
          "name": "E2",
          "ticks": 16224,
          "time": 84.5,
          "velocity": 0.7874015748031497
        },
        {
          "duration": 0.5,
          "durationTicks": 96,
          "midi": 51,
          "name": "D#3",
          "ticks": 16224,
          "time": 84.5,
          "velocity": 0.7874015748031497
        },
        {
          "duration": 0.5,
          "durationTicks": 96,
          "midi": 38,
          "name": "D2",
          "ticks": 16224,
          "time": 84.5,
          "velocity": 0.7874015748031497
        },
        {
          "duration": 0.4166666666666714,
          "durationTicks": 80,
          "midi": 39,
          "name": "D#2",
          "ticks": 16320,
          "time": 85,
          "velocity": 0.8661417322834646
        },
        {
          "duration": 0.5,
          "durationTicks": 96,
          "midi": 35,
          "name": "B1",
          "ticks": 16320,
          "time": 85,
          "velocity": 0.7874015748031497
        },
        {
          "duration": 0.5,
          "durationTicks": 96,
          "midi": 51,
          "name": "D#3",
          "ticks": 16320,
          "time": 85,
          "velocity": 0.7874015748031497
        },
        {
          "duration": 0.5,
          "durationTicks": 96,
          "midi": 38,
          "name": "D2",
          "ticks": 16416,
          "time": 85.5,
          "velocity": 0.7874015748031497
        },
        {
          "duration": 0.5,
          "durationTicks": 96,
          "midi": 46,
          "name": "A#2",
          "ticks": 16416,
          "time": 85.5,
          "velocity": 0.7874015748031497
        },
        {
          "duration": 0.5,
          "durationTicks": 96,
          "midi": 40,
          "name": "E2",
          "ticks": 16416,
          "time": 85.5,
          "velocity": 0.7874015748031497
        },
        {
          "duration": 0.4166666666666714,
          "durationTicks": 80,
          "midi": 39,
          "name": "D#2",
          "ticks": 16416,
          "time": 85.5,
          "velocity": 0.8661417322834646
        },
        {
          "duration": 0.25,
          "durationTicks": 48,
          "midi": 36,
          "name": "C2",
          "ticks": 16512,
          "time": 86,
          "velocity": 0.7874015748031497
        },
        {
          "duration": 0.25,
          "durationTicks": 48,
          "midi": 44,
          "name": "G#2",
          "ticks": 16512,
          "time": 86,
          "velocity": 0.7874015748031497
        },
        {
          "duration": 0.4166666666666714,
          "durationTicks": 80,
          "midi": 39,
          "name": "D#2",
          "ticks": 16512,
          "time": 86,
          "velocity": 0.8661417322834646
        },
        {
          "duration": 0.125,
          "durationTicks": 24,
          "midi": 36,
          "name": "C2",
          "ticks": 16560,
          "time": 86.25,
          "velocity": 0.7874015748031497
        },
        {
          "duration": 0.25,
          "durationTicks": 48,
          "midi": 44,
          "name": "G#2",
          "ticks": 16560,
          "time": 86.25,
          "velocity": 0.7874015748031497
        },
        {
          "duration": 0.125,
          "durationTicks": 24,
          "midi": 36,
          "name": "C2",
          "ticks": 16584,
          "time": 86.375,
          "velocity": 0.7874015748031497
        },
        {
          "duration": 0.5,
          "durationTicks": 96,
          "midi": 38,
          "name": "D2",
          "ticks": 16608,
          "time": 86.5,
          "velocity": 0.7874015748031497
        },
        {
          "duration": 0.5,
          "durationTicks": 96,
          "midi": 51,
          "name": "D#3",
          "ticks": 16608,
          "time": 86.5,
          "velocity": 0.7874015748031497
        },
        {
          "duration": 0.5,
          "durationTicks": 96,
          "midi": 40,
          "name": "E2",
          "ticks": 16608,
          "time": 86.5,
          "velocity": 0.7874015748031497
        },
        {
          "duration": 0.4166666666666714,
          "durationTicks": 80,
          "midi": 39,
          "name": "D#2",
          "ticks": 16608,
          "time": 86.5,
          "velocity": 0.8661417322834646
        },
        {
          "duration": 0.4166666666666714,
          "durationTicks": 80,
          "midi": 39,
          "name": "D#2",
          "ticks": 16704,
          "time": 87,
          "velocity": 0.8661417322834646
        },
        {
          "duration": 0.5,
          "durationTicks": 96,
          "midi": 35,
          "name": "B1",
          "ticks": 16704,
          "time": 87,
          "velocity": 0.7874015748031497
        },
        {
          "duration": 0.5,
          "durationTicks": 96,
          "midi": 51,
          "name": "D#3",
          "ticks": 16704,
          "time": 87,
          "velocity": 0.7874015748031497
        },
        {
          "duration": 0.5,
          "durationTicks": 96,
          "midi": 38,
          "name": "D2",
          "ticks": 16800,
          "time": 87.5,
          "velocity": 0.7874015748031497
        },
        {
          "duration": 0.4166666666666714,
          "durationTicks": 80,
          "midi": 39,
          "name": "D#2",
          "ticks": 16800,
          "time": 87.5,
          "velocity": 0.8661417322834646
        },
        {
          "duration": 0.5,
          "durationTicks": 96,
          "midi": 46,
          "name": "A#2",
          "ticks": 16800,
          "time": 87.5,
          "velocity": 0.7874015748031497
        },
        {
          "duration": 0.5,
          "durationTicks": 96,
          "midi": 40,
          "name": "E2",
          "ticks": 16800,
          "time": 87.5,
          "velocity": 0.7874015748031497
        },
        {
          "duration": 0.25,
          "durationTicks": 48,
          "midi": 44,
          "name": "G#2",
          "ticks": 16896,
          "time": 88,
          "velocity": 0.7874015748031497
        },
        {
          "duration": 0.25,
          "durationTicks": 48,
          "midi": 36,
          "name": "C2",
          "ticks": 16896,
          "time": 88,
          "velocity": 0.7874015748031497
        },
        {
          "duration": 0.4166666666666714,
          "durationTicks": 80,
          "midi": 39,
          "name": "D#2",
          "ticks": 16896,
          "time": 88,
          "velocity": 0.8661417322834646
        },
        {
          "duration": 0.25,
          "durationTicks": 48,
          "midi": 44,
          "name": "G#2",
          "ticks": 16944,
          "time": 88.25,
          "velocity": 0.7874015748031497
        },
        {
          "duration": 0.125,
          "durationTicks": 24,
          "midi": 36,
          "name": "C2",
          "ticks": 16944,
          "time": 88.25,
          "velocity": 0.7874015748031497
        },
        {
          "duration": 0.125,
          "durationTicks": 24,
          "midi": 36,
          "name": "C2",
          "ticks": 16968,
          "time": 88.375,
          "velocity": 0.7874015748031497
        },
        {
          "duration": 0.4166666666666714,
          "durationTicks": 80,
          "midi": 39,
          "name": "D#2",
          "ticks": 16992,
          "time": 88.5,
          "velocity": 0.8661417322834646
        },
        {
          "duration": 0.5,
          "durationTicks": 96,
          "midi": 40,
          "name": "E2",
          "ticks": 16992,
          "time": 88.5,
          "velocity": 0.7874015748031497
        },
        {
          "duration": 0.5,
          "durationTicks": 96,
          "midi": 51,
          "name": "D#3",
          "ticks": 16992,
          "time": 88.5,
          "velocity": 0.7874015748031497
        },
        {
          "duration": 0.5,
          "durationTicks": 96,
          "midi": 38,
          "name": "D2",
          "ticks": 16992,
          "time": 88.5,
          "velocity": 0.7874015748031497
        },
        {
          "duration": 0.4166666666666714,
          "durationTicks": 80,
          "midi": 39,
          "name": "D#2",
          "ticks": 17088,
          "time": 89,
          "velocity": 0.8661417322834646
        },
        {
          "duration": 0.5,
          "durationTicks": 96,
          "midi": 35,
          "name": "B1",
          "ticks": 17088,
          "time": 89,
          "velocity": 0.7874015748031497
        },
        {
          "duration": 0.5,
          "durationTicks": 96,
          "midi": 51,
          "name": "D#3",
          "ticks": 17088,
          "time": 89,
          "velocity": 0.7874015748031497
        },
        {
          "duration": 0.5,
          "durationTicks": 96,
          "midi": 38,
          "name": "D2",
          "ticks": 17184,
          "time": 89.5,
          "velocity": 0.7874015748031497
        },
        {
          "duration": 0.4166666666666714,
          "durationTicks": 80,
          "midi": 39,
          "name": "D#2",
          "ticks": 17184,
          "time": 89.5,
          "velocity": 0.8661417322834646
        },
        {
          "duration": 0.5,
          "durationTicks": 96,
          "midi": 40,
          "name": "E2",
          "ticks": 17184,
          "time": 89.5,
          "velocity": 0.7874015748031497
        },
        {
          "duration": 0.5,
          "durationTicks": 96,
          "midi": 46,
          "name": "A#2",
          "ticks": 17184,
          "time": 89.5,
          "velocity": 0.7874015748031497
        },
        {
          "duration": 0.25,
          "durationTicks": 48,
          "midi": 36,
          "name": "C2",
          "ticks": 17280,
          "time": 90,
          "velocity": 0.7874015748031497
        },
        {
          "duration": 0.25,
          "durationTicks": 48,
          "midi": 44,
          "name": "G#2",
          "ticks": 17280,
          "time": 90,
          "velocity": 0.7874015748031497
        },
        {
          "duration": 0.4166666666666714,
          "durationTicks": 80,
          "midi": 39,
          "name": "D#2",
          "ticks": 17280,
          "time": 90,
          "velocity": 0.8661417322834646
        },
        {
          "duration": 0.125,
          "durationTicks": 24,
          "midi": 36,
          "name": "C2",
          "ticks": 17328,
          "time": 90.25,
          "velocity": 0.7874015748031497
        },
        {
          "duration": 0.25,
          "durationTicks": 48,
          "midi": 44,
          "name": "G#2",
          "ticks": 17328,
          "time": 90.25,
          "velocity": 0.7874015748031497
        },
        {
          "duration": 0.125,
          "durationTicks": 24,
          "midi": 36,
          "name": "C2",
          "ticks": 17352,
          "time": 90.375,
          "velocity": 0.7874015748031497
        },
        {
          "duration": 0.5,
          "durationTicks": 96,
          "midi": 38,
          "name": "D2",
          "ticks": 17376,
          "time": 90.5,
          "velocity": 0.7874015748031497
        },
        {
          "duration": 0.4166666666666714,
          "durationTicks": 80,
          "midi": 39,
          "name": "D#2",
          "ticks": 17376,
          "time": 90.5,
          "velocity": 0.8661417322834646
        },
        {
          "duration": 0.5,
          "durationTicks": 96,
          "midi": 40,
          "name": "E2",
          "ticks": 17376,
          "time": 90.5,
          "velocity": 0.7874015748031497
        },
        {
          "duration": 0.5,
          "durationTicks": 96,
          "midi": 51,
          "name": "D#3",
          "ticks": 17376,
          "time": 90.5,
          "velocity": 0.7874015748031497
        },
        {
          "duration": 0.4166666666666714,
          "durationTicks": 80,
          "midi": 39,
          "name": "D#2",
          "ticks": 17472,
          "time": 91,
          "velocity": 0.8661417322834646
        },
        {
          "duration": 0.5,
          "durationTicks": 96,
          "midi": 35,
          "name": "B1",
          "ticks": 17472,
          "time": 91,
          "velocity": 0.7874015748031497
        },
        {
          "duration": 0.5,
          "durationTicks": 96,
          "midi": 51,
          "name": "D#3",
          "ticks": 17472,
          "time": 91,
          "velocity": 0.7874015748031497
        },
        {
          "duration": 0.5,
          "durationTicks": 96,
          "midi": 38,
          "name": "D2",
          "ticks": 17568,
          "time": 91.5,
          "velocity": 0.7874015748031497
        },
        {
          "duration": 0.4166666666666714,
          "durationTicks": 80,
          "midi": 39,
          "name": "D#2",
          "ticks": 17568,
          "time": 91.5,
          "velocity": 0.8661417322834646
        },
        {
          "duration": 0.5,
          "durationTicks": 96,
          "midi": 46,
          "name": "A#2",
          "ticks": 17568,
          "time": 91.5,
          "velocity": 0.7874015748031497
        },
        {
          "duration": 0.5,
          "durationTicks": 96,
          "midi": 40,
          "name": "E2",
          "ticks": 17568,
          "time": 91.5,
          "velocity": 0.7874015748031497
        },
        {
          "duration": 0.4166666666666714,
          "durationTicks": 80,
          "midi": 39,
          "name": "D#2",
          "ticks": 17664,
          "time": 92,
          "velocity": 0.8661417322834646
        },
        {
          "duration": 0.25,
          "durationTicks": 48,
          "midi": 36,
          "name": "C2",
          "ticks": 17664,
          "time": 92,
          "velocity": 0.7874015748031497
        },
        {
          "duration": 0.25,
          "durationTicks": 48,
          "midi": 44,
          "name": "G#2",
          "ticks": 17664,
          "time": 92,
          "velocity": 0.7874015748031497
        },
        {
          "duration": 0.125,
          "durationTicks": 24,
          "midi": 36,
          "name": "C2",
          "ticks": 17712,
          "time": 92.25,
          "velocity": 0.7874015748031497
        },
        {
          "duration": 0.25,
          "durationTicks": 48,
          "midi": 44,
          "name": "G#2",
          "ticks": 17712,
          "time": 92.25,
          "velocity": 0.7874015748031497
        },
        {
          "duration": 0.125,
          "durationTicks": 24,
          "midi": 36,
          "name": "C2",
          "ticks": 17736,
          "time": 92.375,
          "velocity": 0.7874015748031497
        },
        {
          "duration": 0.5,
          "durationTicks": 96,
          "midi": 38,
          "name": "D2",
          "ticks": 17760,
          "time": 92.5,
          "velocity": 0.7874015748031497
        },
        {
          "duration": 0.5,
          "durationTicks": 96,
          "midi": 51,
          "name": "D#3",
          "ticks": 17760,
          "time": 92.5,
          "velocity": 0.7874015748031497
        },
        {
          "duration": 0.5,
          "durationTicks": 96,
          "midi": 40,
          "name": "E2",
          "ticks": 17760,
          "time": 92.5,
          "velocity": 0.7874015748031497
        },
        {
          "duration": 0.4166666666666714,
          "durationTicks": 80,
          "midi": 39,
          "name": "D#2",
          "ticks": 17760,
          "time": 92.5,
          "velocity": 0.8661417322834646
        },
        {
          "duration": 1,
          "durationTicks": 192,
          "midi": 44,
          "name": "G#2",
          "ticks": 17856,
          "time": 93,
          "velocity": 0.7874015748031497
        },
        {
          "duration": 1,
          "durationTicks": 192,
          "midi": 49,
          "name": "C#3",
          "ticks": 17856,
          "time": 93,
          "velocity": 0.7874015748031497
        },
        {
          "duration": 1,
          "durationTicks": 192,
          "midi": 44,
          "name": "G#2",
          "ticks": 18048,
          "time": 94,
          "velocity": 0.7874015748031497
        },
        {
          "duration": 1,
          "durationTicks": 192,
          "midi": 46,
          "name": "A#2",
          "ticks": 18240,
          "time": 95,
          "velocity": 0.7874015748031497
        },
        {
          "duration": 1,
          "durationTicks": 192,
          "midi": 44,
          "name": "G#2",
          "ticks": 18432,
          "time": 96,
          "velocity": 0.7874015748031497
        },
        {
          "duration": 1,
          "durationTicks": 192,
          "midi": 44,
          "name": "G#2",
          "ticks": 18624,
          "time": 97,
          "velocity": 0.7874015748031497
        },
        {
          "duration": 1,
          "durationTicks": 192,
          "midi": 44,
          "name": "G#2",
          "ticks": 18816,
          "time": 98,
          "velocity": 0.7874015748031497
        },
        {
          "duration": 1,
          "durationTicks": 192,
          "midi": 46,
          "name": "A#2",
          "ticks": 19008,
          "time": 99,
          "velocity": 0.7874015748031497
        },
        {
          "duration": 1,
          "durationTicks": 192,
          "midi": 44,
          "name": "G#2",
          "ticks": 19200,
          "time": 100,
          "velocity": 0.7874015748031497
        },
        {
          "duration": 1,
          "durationTicks": 192,
          "midi": 44,
          "name": "G#2",
          "ticks": 19392,
          "time": 101,
          "velocity": 0.7874015748031497
        },
        {
          "duration": 1,
          "durationTicks": 192,
          "midi": 44,
          "name": "G#2",
          "ticks": 19584,
          "time": 102,
          "velocity": 0.7874015748031497
        },
        {
          "duration": 1,
          "durationTicks": 192,
          "midi": 46,
          "name": "A#2",
          "ticks": 19776,
          "time": 103,
          "velocity": 0.7874015748031497
        },
        {
          "duration": 1,
          "durationTicks": 192,
          "midi": 44,
          "name": "G#2",
          "ticks": 19968,
          "time": 104,
          "velocity": 0.7874015748031497
        },
        {
          "duration": 0.5,
          "durationTicks": 96,
          "midi": 39,
          "name": "D#2",
          "ticks": 20160,
          "time": 105,
          "velocity": 0.7874015748031497
        },
        {
          "duration": 1,
          "durationTicks": 192,
          "midi": 44,
          "name": "G#2",
          "ticks": 20160,
          "time": 105,
          "velocity": 0.7874015748031497
        },
        {
          "duration": 0.5,
          "durationTicks": 96,
          "midi": 39,
          "name": "D#2",
          "ticks": 20256,
          "time": 105.5,
          "velocity": 0.7874015748031497
        },
        {
          "duration": 0.5,
          "durationTicks": 96,
          "midi": 39,
          "name": "D#2",
          "ticks": 20352,
          "time": 106,
          "velocity": 0.7874015748031497
        },
        {
          "duration": 1,
          "durationTicks": 192,
          "midi": 44,
          "name": "G#2",
          "ticks": 20352,
          "time": 106,
          "velocity": 0.7874015748031497
        },
        {
          "duration": 0.5,
          "durationTicks": 96,
          "midi": 39,
          "name": "D#2",
          "ticks": 20448,
          "time": 106.5,
          "velocity": 0.7874015748031497
        },
        {
          "duration": 0.5,
          "durationTicks": 96,
          "midi": 39,
          "name": "D#2",
          "ticks": 20544,
          "time": 107,
          "velocity": 0.7874015748031497
        },
        {
          "duration": 1,
          "durationTicks": 192,
          "midi": 46,
          "name": "A#2",
          "ticks": 20544,
          "time": 107,
          "velocity": 0.7874015748031497
        },
        {
          "duration": 0.5,
          "durationTicks": 96,
          "midi": 39,
          "name": "D#2",
          "ticks": 20640,
          "time": 107.5,
          "velocity": 0.7874015748031497
        },
        {
          "duration": 0.5,
          "durationTicks": 96,
          "midi": 39,
          "name": "D#2",
          "ticks": 20736,
          "time": 108,
          "velocity": 0.7874015748031497
        },
        {
          "duration": 1,
          "durationTicks": 192,
          "midi": 44,
          "name": "G#2",
          "ticks": 20736,
          "time": 108,
          "velocity": 0.7874015748031497
        },
        {
          "duration": 0.5,
          "durationTicks": 96,
          "midi": 39,
          "name": "D#2",
          "ticks": 20832,
          "time": 108.5,
          "velocity": 0.7874015748031497
        },
        {
          "duration": 1,
          "durationTicks": 192,
          "midi": 40,
          "name": "E2",
          "ticks": 20928,
          "time": 109,
          "velocity": 0.7874015748031497
        },
        {
          "duration": 0.5,
          "durationTicks": 96,
          "midi": 37,
          "name": "C#2",
          "ticks": 20928,
          "time": 109,
          "velocity": 0.7874015748031497
        },
        {
          "duration": 0.5,
          "durationTicks": 96,
          "midi": 37,
          "name": "C#2",
          "ticks": 21024,
          "time": 109.5,
          "velocity": 0.7874015748031497
        },
        {
          "duration": 1,
          "durationTicks": 192,
          "midi": 40,
          "name": "E2",
          "ticks": 21120,
          "time": 110,
          "velocity": 0.7874015748031497
        },
        {
          "duration": 0.5,
          "durationTicks": 96,
          "midi": 37,
          "name": "C#2",
          "ticks": 21120,
          "time": 110,
          "velocity": 0.7874015748031497
        },
        {
          "duration": 0.5,
          "durationTicks": 96,
          "midi": 37,
          "name": "C#2",
          "ticks": 21216,
          "time": 110.5,
          "velocity": 0.7874015748031497
        },
        {
          "duration": 1,
          "durationTicks": 192,
          "midi": 40,
          "name": "E2",
          "ticks": 21312,
          "time": 111,
          "velocity": 0.7874015748031497
        },
        {
          "duration": 0.5,
          "durationTicks": 96,
          "midi": 37,
          "name": "C#2",
          "ticks": 21312,
          "time": 111,
          "velocity": 0.7874015748031497
        },
        {
          "duration": 0.5,
          "durationTicks": 96,
          "midi": 37,
          "name": "C#2",
          "ticks": 21408,
          "time": 111.5,
          "velocity": 0.7874015748031497
        },
        {
          "duration": 1,
          "durationTicks": 192,
          "midi": 40,
          "name": "E2",
          "ticks": 21504,
          "time": 112,
          "velocity": 0.7874015748031497
        },
        {
          "duration": 0.5,
          "durationTicks": 96,
          "midi": 37,
          "name": "C#2",
          "ticks": 21504,
          "time": 112,
          "velocity": 0.7874015748031497
        },
        {
          "duration": 0.5,
          "durationTicks": 96,
          "midi": 37,
          "name": "C#2",
          "ticks": 21600,
          "time": 112.5,
          "velocity": 0.7874015748031497
        },
        {
          "duration": 1,
          "durationTicks": 192,
          "midi": 40,
          "name": "E2",
          "ticks": 21696,
          "time": 113,
          "velocity": 0.7874015748031497
        },
        {
          "duration": 0.5,
          "durationTicks": 96,
          "midi": 37,
          "name": "C#2",
          "ticks": 21696,
          "time": 113,
          "velocity": 0.7874015748031497
        },
        {
          "duration": 0.5,
          "durationTicks": 96,
          "midi": 37,
          "name": "C#2",
          "ticks": 21792,
          "time": 113.5,
          "velocity": 0.7874015748031497
        },
        {
          "duration": 1,
          "durationTicks": 192,
          "midi": 40,
          "name": "E2",
          "ticks": 21888,
          "time": 114,
          "velocity": 0.7874015748031497
        },
        {
          "duration": 0.5,
          "durationTicks": 96,
          "midi": 37,
          "name": "C#2",
          "ticks": 21888,
          "time": 114,
          "velocity": 0.7874015748031497
        },
        {
          "duration": 0.5,
          "durationTicks": 96,
          "midi": 37,
          "name": "C#2",
          "ticks": 21984,
          "time": 114.5,
          "velocity": 0.7874015748031497
        },
        {
          "duration": 1,
          "durationTicks": 192,
          "midi": 40,
          "name": "E2",
          "ticks": 22080,
          "time": 115,
          "velocity": 0.7874015748031497
        },
        {
          "duration": 0.5,
          "durationTicks": 96,
          "midi": 37,
          "name": "C#2",
          "ticks": 22080,
          "time": 115,
          "velocity": 0.7874015748031497
        },
        {
          "duration": 0.5,
          "durationTicks": 96,
          "midi": 37,
          "name": "C#2",
          "ticks": 22176,
          "time": 115.5,
          "velocity": 0.7874015748031497
        },
        {
          "duration": 1,
          "durationTicks": 192,
          "midi": 40,
          "name": "E2",
          "ticks": 22272,
          "time": 116,
          "velocity": 0.7874015748031497
        },
        {
          "duration": 0.5,
          "durationTicks": 96,
          "midi": 37,
          "name": "C#2",
          "ticks": 22272,
          "time": 116,
          "velocity": 0.7874015748031497
        },
        {
          "duration": 0.5,
          "durationTicks": 96,
          "midi": 37,
          "name": "C#2",
          "ticks": 22368,
          "time": 116.5,
          "velocity": 0.7874015748031497
        },
        {
          "duration": 0.5,
          "durationTicks": 96,
          "midi": 35,
          "name": "B1",
          "ticks": 22464,
          "time": 117,
          "velocity": 0.7874015748031497
        },
        {
          "duration": 0.4166666666666714,
          "durationTicks": 80,
          "midi": 39,
          "name": "D#2",
          "ticks": 22464,
          "time": 117,
          "velocity": 0.8661417322834646
        },
        {
          "duration": 0.5,
          "durationTicks": 96,
          "midi": 51,
          "name": "D#3",
          "ticks": 22464,
          "time": 117,
          "velocity": 0.7874015748031497
        },
        {
          "duration": 0.5,
          "durationTicks": 96,
          "midi": 49,
          "name": "C#3",
          "ticks": 22464,
          "time": 117,
          "velocity": 0.7874015748031497
        },
        {
          "duration": 0.5,
          "durationTicks": 96,
          "midi": 38,
          "name": "D2",
          "ticks": 22560,
          "time": 117.5,
          "velocity": 0.7874015748031497
        },
        {
          "duration": 0.4166666666666714,
          "durationTicks": 80,
          "midi": 39,
          "name": "D#2",
          "ticks": 22560,
          "time": 117.5,
          "velocity": 0.8661417322834646
        },
        {
          "duration": 0.5,
          "durationTicks": 96,
          "midi": 40,
          "name": "E2",
          "ticks": 22560,
          "time": 117.5,
          "velocity": 0.7874015748031497
        },
        {
          "duration": 0.5,
          "durationTicks": 96,
          "midi": 46,
          "name": "A#2",
          "ticks": 22560,
          "time": 117.5,
          "velocity": 0.7874015748031497
        },
        {
          "duration": 0.25,
          "durationTicks": 48,
          "midi": 36,
          "name": "C2",
          "ticks": 22656,
          "time": 118,
          "velocity": 0.7874015748031497
        },
        {
          "duration": 0.25,
          "durationTicks": 48,
          "midi": 44,
          "name": "G#2",
          "ticks": 22656,
          "time": 118,
          "velocity": 0.7874015748031497
        },
        {
          "duration": 0.4166666666666714,
          "durationTicks": 80,
          "midi": 39,
          "name": "D#2",
          "ticks": 22656,
          "time": 118,
          "velocity": 0.8661417322834646
        },
        {
          "duration": 0.25,
          "durationTicks": 48,
          "midi": 44,
          "name": "G#2",
          "ticks": 22704,
          "time": 118.25,
          "velocity": 0.7874015748031497
        },
        {
          "duration": 0.125,
          "durationTicks": 24,
          "midi": 36,
          "name": "C2",
          "ticks": 22704,
          "time": 118.25,
          "velocity": 0.7874015748031497
        },
        {
          "duration": 0.125,
          "durationTicks": 24,
          "midi": 36,
          "name": "C2",
          "ticks": 22728,
          "time": 118.375,
          "velocity": 0.7874015748031497
        },
        {
          "duration": 0.4166666666666714,
          "durationTicks": 80,
          "midi": 39,
          "name": "D#2",
          "ticks": 22752,
          "time": 118.5,
          "velocity": 0.8661417322834646
        },
        {
          "duration": 0.5,
          "durationTicks": 96,
          "midi": 51,
          "name": "D#3",
          "ticks": 22752,
          "time": 118.5,
          "velocity": 0.7874015748031497
        },
        {
          "duration": 0.5,
          "durationTicks": 96,
          "midi": 40,
          "name": "E2",
          "ticks": 22752,
          "time": 118.5,
          "velocity": 0.7874015748031497
        },
        {
          "duration": 0.5,
          "durationTicks": 96,
          "midi": 38,
          "name": "D2",
          "ticks": 22752,
          "time": 118.5,
          "velocity": 0.7874015748031497
        },
        {
          "duration": 0.5,
          "durationTicks": 96,
          "midi": 35,
          "name": "B1",
          "ticks": 22848,
          "time": 119,
          "velocity": 0.7874015748031497
        },
        {
          "duration": 0.4166666666666714,
          "durationTicks": 80,
          "midi": 39,
          "name": "D#2",
          "ticks": 22848,
          "time": 119,
          "velocity": 0.8661417322834646
        },
        {
          "duration": 0.5,
          "durationTicks": 96,
          "midi": 51,
          "name": "D#3",
          "ticks": 22848,
          "time": 119,
          "velocity": 0.7874015748031497
        },
        {
          "duration": 0.5,
          "durationTicks": 96,
          "midi": 38,
          "name": "D2",
          "ticks": 22944,
          "time": 119.5,
          "velocity": 0.7874015748031497
        },
        {
          "duration": 0.4166666666666714,
          "durationTicks": 80,
          "midi": 39,
          "name": "D#2",
          "ticks": 22944,
          "time": 119.5,
          "velocity": 0.8661417322834646
        },
        {
          "duration": 0.5,
          "durationTicks": 96,
          "midi": 40,
          "name": "E2",
          "ticks": 22944,
          "time": 119.5,
          "velocity": 0.7874015748031497
        },
        {
          "duration": 0.5,
          "durationTicks": 96,
          "midi": 46,
          "name": "A#2",
          "ticks": 22944,
          "time": 119.5,
          "velocity": 0.7874015748031497
        },
        {
          "duration": 0.25,
          "durationTicks": 48,
          "midi": 36,
          "name": "C2",
          "ticks": 23040,
          "time": 120,
          "velocity": 0.7874015748031497
        },
        {
          "duration": 0.25,
          "durationTicks": 48,
          "midi": 44,
          "name": "G#2",
          "ticks": 23040,
          "time": 120,
          "velocity": 0.7874015748031497
        },
        {
          "duration": 0.4166666666666714,
          "durationTicks": 80,
          "midi": 39,
          "name": "D#2",
          "ticks": 23040,
          "time": 120,
          "velocity": 0.8661417322834646
        },
        {
          "duration": 0.25,
          "durationTicks": 48,
          "midi": 44,
          "name": "G#2",
          "ticks": 23088,
          "time": 120.25,
          "velocity": 0.7874015748031497
        },
        {
          "duration": 0.125,
          "durationTicks": 24,
          "midi": 36,
          "name": "C2",
          "ticks": 23088,
          "time": 120.25,
          "velocity": 0.7874015748031497
        },
        {
          "duration": 0.125,
          "durationTicks": 24,
          "midi": 36,
          "name": "C2",
          "ticks": 23112,
          "time": 120.375,
          "velocity": 0.7874015748031497
        },
        {
          "duration": 0.4166666666666714,
          "durationTicks": 80,
          "midi": 39,
          "name": "D#2",
          "ticks": 23136,
          "time": 120.5,
          "velocity": 0.8661417322834646
        },
        {
          "duration": 0.5,
          "durationTicks": 96,
          "midi": 40,
          "name": "E2",
          "ticks": 23136,
          "time": 120.5,
          "velocity": 0.7874015748031497
        },
        {
          "duration": 0.5,
          "durationTicks": 96,
          "midi": 51,
          "name": "D#3",
          "ticks": 23136,
          "time": 120.5,
          "velocity": 0.7874015748031497
        },
        {
          "duration": 0.5,
          "durationTicks": 96,
          "midi": 38,
          "name": "D2",
          "ticks": 23136,
          "time": 120.5,
          "velocity": 0.7874015748031497
        },
        {
          "duration": 0.5,
          "durationTicks": 96,
          "midi": 35,
          "name": "B1",
          "ticks": 23232,
          "time": 121,
          "velocity": 0.7874015748031497
        },
        {
          "duration": 0.4166666666666714,
          "durationTicks": 80,
          "midi": 39,
          "name": "D#2",
          "ticks": 23232,
          "time": 121,
          "velocity": 0.8661417322834646
        },
        {
          "duration": 0.5,
          "durationTicks": 96,
          "midi": 51,
          "name": "D#3",
          "ticks": 23232,
          "time": 121,
          "velocity": 0.7874015748031497
        },
        {
          "duration": 0.5,
          "durationTicks": 96,
          "midi": 38,
          "name": "D2",
          "ticks": 23328,
          "time": 121.5,
          "velocity": 0.7874015748031497
        },
        {
          "duration": 0.4166666666666714,
          "durationTicks": 80,
          "midi": 39,
          "name": "D#2",
          "ticks": 23328,
          "time": 121.5,
          "velocity": 0.8661417322834646
        },
        {
          "duration": 0.5,
          "durationTicks": 96,
          "midi": 40,
          "name": "E2",
          "ticks": 23328,
          "time": 121.5,
          "velocity": 0.7874015748031497
        },
        {
          "duration": 0.5,
          "durationTicks": 96,
          "midi": 46,
          "name": "A#2",
          "ticks": 23328,
          "time": 121.5,
          "velocity": 0.7874015748031497
        },
        {
          "duration": 0.25,
          "durationTicks": 48,
          "midi": 36,
          "name": "C2",
          "ticks": 23424,
          "time": 122,
          "velocity": 0.7874015748031497
        },
        {
          "duration": 0.25,
          "durationTicks": 48,
          "midi": 44,
          "name": "G#2",
          "ticks": 23424,
          "time": 122,
          "velocity": 0.7874015748031497
        },
        {
          "duration": 0.4166666666666714,
          "durationTicks": 80,
          "midi": 39,
          "name": "D#2",
          "ticks": 23424,
          "time": 122,
          "velocity": 0.8661417322834646
        },
        {
          "duration": 0.25,
          "durationTicks": 48,
          "midi": 44,
          "name": "G#2",
          "ticks": 23472,
          "time": 122.25,
          "velocity": 0.7874015748031497
        },
        {
          "duration": 0.125,
          "durationTicks": 24,
          "midi": 36,
          "name": "C2",
          "ticks": 23472,
          "time": 122.25,
          "velocity": 0.7874015748031497
        },
        {
          "duration": 0.125,
          "durationTicks": 24,
          "midi": 36,
          "name": "C2",
          "ticks": 23496,
          "time": 122.375,
          "velocity": 0.7874015748031497
        },
        {
          "duration": 0.4166666666666714,
          "durationTicks": 80,
          "midi": 39,
          "name": "D#2",
          "ticks": 23520,
          "time": 122.5,
          "velocity": 0.8661417322834646
        },
        {
          "duration": 0.5,
          "durationTicks": 96,
          "midi": 51,
          "name": "D#3",
          "ticks": 23520,
          "time": 122.5,
          "velocity": 0.7874015748031497
        },
        {
          "duration": 0.5,
          "durationTicks": 96,
          "midi": 40,
          "name": "E2",
          "ticks": 23520,
          "time": 122.5,
          "velocity": 0.7874015748031497
        },
        {
          "duration": 0.5,
          "durationTicks": 96,
          "midi": 38,
          "name": "D2",
          "ticks": 23520,
          "time": 122.5,
          "velocity": 0.7874015748031497
        },
        {
          "duration": 0.5,
          "durationTicks": 96,
          "midi": 35,
          "name": "B1",
          "ticks": 23616,
          "time": 123,
          "velocity": 0.7874015748031497
        },
        {
          "duration": 0.4166666666666714,
          "durationTicks": 80,
          "midi": 39,
          "name": "D#2",
          "ticks": 23616,
          "time": 123,
          "velocity": 0.8661417322834646
        },
        {
          "duration": 0.5,
          "durationTicks": 96,
          "midi": 51,
          "name": "D#3",
          "ticks": 23616,
          "time": 123,
          "velocity": 0.7874015748031497
        },
        {
          "duration": 0.5,
          "durationTicks": 96,
          "midi": 38,
          "name": "D2",
          "ticks": 23712,
          "time": 123.5,
          "velocity": 0.7874015748031497
        },
        {
          "duration": 0.4166666666666714,
          "durationTicks": 80,
          "midi": 39,
          "name": "D#2",
          "ticks": 23712,
          "time": 123.5,
          "velocity": 0.8661417322834646
        },
        {
          "duration": 0.5,
          "durationTicks": 96,
          "midi": 40,
          "name": "E2",
          "ticks": 23712,
          "time": 123.5,
          "velocity": 0.7874015748031497
        },
        {
          "duration": 0.5,
          "durationTicks": 96,
          "midi": 46,
          "name": "A#2",
          "ticks": 23712,
          "time": 123.5,
          "velocity": 0.7874015748031497
        },
        {
          "duration": 0.25,
          "durationTicks": 48,
          "midi": 36,
          "name": "C2",
          "ticks": 23808,
          "time": 124,
          "velocity": 0.7874015748031497
        },
        {
          "duration": 0.25,
          "durationTicks": 48,
          "midi": 44,
          "name": "G#2",
          "ticks": 23808,
          "time": 124,
          "velocity": 0.7874015748031497
        },
        {
          "duration": 0.4166666666666714,
          "durationTicks": 80,
          "midi": 39,
          "name": "D#2",
          "ticks": 23808,
          "time": 124,
          "velocity": 0.8661417322834646
        },
        {
          "duration": 0.25,
          "durationTicks": 48,
          "midi": 44,
          "name": "G#2",
          "ticks": 23856,
          "time": 124.25,
          "velocity": 0.7874015748031497
        },
        {
          "duration": 0.125,
          "durationTicks": 24,
          "midi": 36,
          "name": "C2",
          "ticks": 23856,
          "time": 124.25,
          "velocity": 0.7874015748031497
        },
        {
          "duration": 0.125,
          "durationTicks": 24,
          "midi": 36,
          "name": "C2",
          "ticks": 23880,
          "time": 124.375,
          "velocity": 0.7874015748031497
        },
        {
          "duration": 0.4166666666666714,
          "durationTicks": 80,
          "midi": 39,
          "name": "D#2",
          "ticks": 23904,
          "time": 124.5,
          "velocity": 0.8661417322834646
        },
        {
          "duration": 0.5,
          "durationTicks": 96,
          "midi": 51,
          "name": "D#3",
          "ticks": 23904,
          "time": 124.5,
          "velocity": 0.7874015748031497
        },
        {
          "duration": 0.5,
          "durationTicks": 96,
          "midi": 40,
          "name": "E2",
          "ticks": 23904,
          "time": 124.5,
          "velocity": 0.7874015748031497
        },
        {
          "duration": 0.5,
          "durationTicks": 96,
          "midi": 38,
          "name": "D2",
          "ticks": 23904,
          "time": 124.5,
          "velocity": 0.7874015748031497
        },
        {
          "duration": 0.5,
          "durationTicks": 96,
          "midi": 51,
          "name": "D#3",
          "ticks": 24000,
          "time": 125,
          "velocity": 0.7874015748031497
        },
        {
          "duration": 0.5,
          "durationTicks": 96,
          "midi": 35,
          "name": "B1",
          "ticks": 24000,
          "time": 125,
          "velocity": 0.7874015748031497
        },
        {
          "duration": 0.4166666666666714,
          "durationTicks": 80,
          "midi": 39,
          "name": "D#2",
          "ticks": 24000,
          "time": 125,
          "velocity": 0.8661417322834646
        },
        {
          "duration": 0.5,
          "durationTicks": 96,
          "midi": 40,
          "name": "E2",
          "ticks": 24096,
          "time": 125.5,
          "velocity": 0.7874015748031497
        },
        {
          "duration": 0.5,
          "durationTicks": 96,
          "midi": 46,
          "name": "A#2",
          "ticks": 24096,
          "time": 125.5,
          "velocity": 0.7874015748031497
        },
        {
          "duration": 0.4166666666666714,
          "durationTicks": 80,
          "midi": 39,
          "name": "D#2",
          "ticks": 24096,
          "time": 125.5,
          "velocity": 0.8661417322834646
        },
        {
          "duration": 0.5,
          "durationTicks": 96,
          "midi": 38,
          "name": "D2",
          "ticks": 24096,
          "time": 125.5,
          "velocity": 0.7874015748031497
        },
        {
          "duration": 0.4166666666666714,
          "durationTicks": 80,
          "midi": 39,
          "name": "D#2",
          "ticks": 24192,
          "time": 126,
          "velocity": 0.8661417322834646
        },
        {
          "duration": 0.25,
          "durationTicks": 48,
          "midi": 36,
          "name": "C2",
          "ticks": 24192,
          "time": 126,
          "velocity": 0.7874015748031497
        },
        {
          "duration": 0.25,
          "durationTicks": 48,
          "midi": 44,
          "name": "G#2",
          "ticks": 24192,
          "time": 126,
          "velocity": 0.7874015748031497
        },
        {
          "duration": 0.125,
          "durationTicks": 24,
          "midi": 36,
          "name": "C2",
          "ticks": 24240,
          "time": 126.25,
          "velocity": 0.7874015748031497
        },
        {
          "duration": 0.25,
          "durationTicks": 48,
          "midi": 44,
          "name": "G#2",
          "ticks": 24240,
          "time": 126.25,
          "velocity": 0.7874015748031497
        },
        {
          "duration": 0.125,
          "durationTicks": 24,
          "midi": 36,
          "name": "C2",
          "ticks": 24264,
          "time": 126.375,
          "velocity": 0.7874015748031497
        },
        {
          "duration": 0.5,
          "durationTicks": 96,
          "midi": 38,
          "name": "D2",
          "ticks": 24288,
          "time": 126.5,
          "velocity": 0.7874015748031497
        },
        {
          "duration": 0.5,
          "durationTicks": 96,
          "midi": 51,
          "name": "D#3",
          "ticks": 24288,
          "time": 126.5,
          "velocity": 0.7874015748031497
        },
        {
          "duration": 0.5,
          "durationTicks": 96,
          "midi": 40,
          "name": "E2",
          "ticks": 24288,
          "time": 126.5,
          "velocity": 0.7874015748031497
        },
        {
          "duration": 0.4166666666666714,
          "durationTicks": 80,
          "midi": 39,
          "name": "D#2",
          "ticks": 24288,
          "time": 126.5,
          "velocity": 0.8661417322834646
        },
        {
          "duration": 0.5,
          "durationTicks": 96,
          "midi": 35,
          "name": "B1",
          "ticks": 24384,
          "time": 127,
          "velocity": 0.7874015748031497
        },
        {
          "duration": 0.4166666666666714,
          "durationTicks": 80,
          "midi": 39,
          "name": "D#2",
          "ticks": 24384,
          "time": 127,
          "velocity": 0.8661417322834646
        },
        {
          "duration": 0.5,
          "durationTicks": 96,
          "midi": 51,
          "name": "D#3",
          "ticks": 24384,
          "time": 127,
          "velocity": 0.7874015748031497
        },
        {
          "duration": 0.5,
          "durationTicks": 96,
          "midi": 38,
          "name": "D2",
          "ticks": 24480,
          "time": 127.5,
          "velocity": 0.7874015748031497
        },
        {
          "duration": 0.4166666666666714,
          "durationTicks": 80,
          "midi": 39,
          "name": "D#2",
          "ticks": 24480,
          "time": 127.5,
          "velocity": 0.8661417322834646
        },
        {
          "duration": 0.5,
          "durationTicks": 96,
          "midi": 46,
          "name": "A#2",
          "ticks": 24480,
          "time": 127.5,
          "velocity": 0.7874015748031497
        },
        {
          "duration": 0.5,
          "durationTicks": 96,
          "midi": 40,
          "name": "E2",
          "ticks": 24480,
          "time": 127.5,
          "velocity": 0.7874015748031497
        },
        {
          "duration": 0.25,
          "durationTicks": 48,
          "midi": 36,
          "name": "C2",
          "ticks": 24576,
          "time": 128,
          "velocity": 0.7874015748031497
        },
        {
          "duration": 0.25,
          "durationTicks": 48,
          "midi": 44,
          "name": "G#2",
          "ticks": 24576,
          "time": 128,
          "velocity": 0.7874015748031497
        },
        {
          "duration": 0.4166666666666572,
          "durationTicks": 80,
          "midi": 39,
          "name": "D#2",
          "ticks": 24576,
          "time": 128,
          "velocity": 0.8661417322834646
        },
        {
          "duration": 0.25,
          "durationTicks": 48,
          "midi": 44,
          "name": "G#2",
          "ticks": 24624,
          "time": 128.25,
          "velocity": 0.7874015748031497
        },
        {
          "duration": 0.125,
          "durationTicks": 24,
          "midi": 36,
          "name": "C2",
          "ticks": 24624,
          "time": 128.25,
          "velocity": 0.7874015748031497
        },
        {
          "duration": 0.125,
          "durationTicks": 24,
          "midi": 36,
          "name": "C2",
          "ticks": 24648,
          "time": 128.375,
          "velocity": 0.7874015748031497
        },
        {
          "duration": 0.4166666666666572,
          "durationTicks": 80,
          "midi": 39,
          "name": "D#2",
          "ticks": 24672,
          "time": 128.5,
          "velocity": 0.8661417322834646
        },
        {
          "duration": 0.5,
          "durationTicks": 96,
          "midi": 51,
          "name": "D#3",
          "ticks": 24672,
          "time": 128.5,
          "velocity": 0.7874015748031497
        },
        {
          "duration": 0.5,
          "durationTicks": 96,
          "midi": 40,
          "name": "E2",
          "ticks": 24672,
          "time": 128.5,
          "velocity": 0.7874015748031497
        },
        {
          "duration": 0.5,
          "durationTicks": 96,
          "midi": 38,
          "name": "D2",
          "ticks": 24672,
          "time": 128.5,
          "velocity": 0.7874015748031497
        },
        {
          "duration": 0.4166666666666572,
          "durationTicks": 80,
          "midi": 39,
          "name": "D#2",
          "ticks": 24768,
          "time": 129,
          "velocity": 0.8661417322834646
        },
        {
          "duration": 0.5,
          "durationTicks": 96,
          "midi": 35,
          "name": "B1",
          "ticks": 24768,
          "time": 129,
          "velocity": 0.7874015748031497
        },
        {
          "duration": 0.5,
          "durationTicks": 96,
          "midi": 51,
          "name": "D#3",
          "ticks": 24768,
          "time": 129,
          "velocity": 0.7874015748031497
        },
        {
          "duration": 0.4166666666666572,
          "durationTicks": 80,
          "midi": 39,
          "name": "D#2",
          "ticks": 24864,
          "time": 129.5,
          "velocity": 0.8661417322834646
        },
        {
          "duration": 0.5,
          "durationTicks": 96,
          "midi": 40,
          "name": "E2",
          "ticks": 24864,
          "time": 129.5,
          "velocity": 0.7874015748031497
        },
        {
          "duration": 0.5,
          "durationTicks": 96,
          "midi": 46,
          "name": "A#2",
          "ticks": 24864,
          "time": 129.5,
          "velocity": 0.7874015748031497
        },
        {
          "duration": 0.5,
          "durationTicks": 96,
          "midi": 38,
          "name": "D2",
          "ticks": 24864,
          "time": 129.5,
          "velocity": 0.7874015748031497
        },
        {
          "duration": 0.25,
          "durationTicks": 48,
          "midi": 36,
          "name": "C2",
          "ticks": 24960,
          "time": 130,
          "velocity": 0.7874015748031497
        },
        {
          "duration": 0.25,
          "durationTicks": 48,
          "midi": 44,
          "name": "G#2",
          "ticks": 24960,
          "time": 130,
          "velocity": 0.7874015748031497
        },
        {
          "duration": 0.4166666666666572,
          "durationTicks": 80,
          "midi": 39,
          "name": "D#2",
          "ticks": 24960,
          "time": 130,
          "velocity": 0.8661417322834646
        },
        {
          "duration": 0.125,
          "durationTicks": 24,
          "midi": 36,
          "name": "C2",
          "ticks": 25008,
          "time": 130.25,
          "velocity": 0.7874015748031497
        },
        {
          "duration": 0.25,
          "durationTicks": 48,
          "midi": 44,
          "name": "G#2",
          "ticks": 25008,
          "time": 130.25,
          "velocity": 0.7874015748031497
        },
        {
          "duration": 0.125,
          "durationTicks": 24,
          "midi": 36,
          "name": "C2",
          "ticks": 25032,
          "time": 130.375,
          "velocity": 0.7874015748031497
        },
        {
          "duration": 0.4166666666666572,
          "durationTicks": 80,
          "midi": 39,
          "name": "D#2",
          "ticks": 25056,
          "time": 130.5,
          "velocity": 0.8661417322834646
        },
        {
          "duration": 0.5,
          "durationTicks": 96,
          "midi": 40,
          "name": "E2",
          "ticks": 25056,
          "time": 130.5,
          "velocity": 0.7874015748031497
        },
        {
          "duration": 0.5,
          "durationTicks": 96,
          "midi": 51,
          "name": "D#3",
          "ticks": 25056,
          "time": 130.5,
          "velocity": 0.7874015748031497
        },
        {
          "duration": 0.5,
          "durationTicks": 96,
          "midi": 38,
          "name": "D2",
          "ticks": 25056,
          "time": 130.5,
          "velocity": 0.7874015748031497
        },
        {
          "duration": 0.4166666666666572,
          "durationTicks": 80,
          "midi": 39,
          "name": "D#2",
          "ticks": 25152,
          "time": 131,
          "velocity": 0.8661417322834646
        },
        {
          "duration": 0.5,
          "durationTicks": 96,
          "midi": 35,
          "name": "B1",
          "ticks": 25152,
          "time": 131,
          "velocity": 0.7874015748031497
        },
        {
          "duration": 0.5,
          "durationTicks": 96,
          "midi": 51,
          "name": "D#3",
          "ticks": 25152,
          "time": 131,
          "velocity": 0.7874015748031497
        },
        {
          "duration": 0.4166666666666572,
          "durationTicks": 80,
          "midi": 39,
          "name": "D#2",
          "ticks": 25248,
          "time": 131.5,
          "velocity": 0.8661417322834646
        },
        {
          "duration": 0.5,
          "durationTicks": 96,
          "midi": 40,
          "name": "E2",
          "ticks": 25248,
          "time": 131.5,
          "velocity": 0.7874015748031497
        },
        {
          "duration": 0.5,
          "durationTicks": 96,
          "midi": 46,
          "name": "A#2",
          "ticks": 25248,
          "time": 131.5,
          "velocity": 0.7874015748031497
        },
        {
          "duration": 0.5,
          "durationTicks": 96,
          "midi": 38,
          "name": "D2",
          "ticks": 25248,
          "time": 131.5,
          "velocity": 0.7874015748031497
        },
        {
          "duration": 0.25,
          "durationTicks": 48,
          "midi": 36,
          "name": "C2",
          "ticks": 25344,
          "time": 132,
          "velocity": 0.7874015748031497
        },
        {
          "duration": 0.25,
          "durationTicks": 48,
          "midi": 44,
          "name": "G#2",
          "ticks": 25344,
          "time": 132,
          "velocity": 0.7874015748031497
        },
        {
          "duration": 0.4166666666666572,
          "durationTicks": 80,
          "midi": 39,
          "name": "D#2",
          "ticks": 25344,
          "time": 132,
          "velocity": 0.8661417322834646
        },
        {
          "duration": 0.125,
          "durationTicks": 24,
          "midi": 36,
          "name": "C2",
          "ticks": 25392,
          "time": 132.25,
          "velocity": 0.7874015748031497
        },
        {
          "duration": 0.25,
          "durationTicks": 48,
          "midi": 44,
          "name": "G#2",
          "ticks": 25392,
          "time": 132.25,
          "velocity": 0.7874015748031497
        },
        {
          "duration": 0.125,
          "durationTicks": 24,
          "midi": 36,
          "name": "C2",
          "ticks": 25416,
          "time": 132.375,
          "velocity": 0.7874015748031497
        },
        {
          "duration": 0.4166666666666572,
          "durationTicks": 80,
          "midi": 39,
          "name": "D#2",
          "ticks": 25440,
          "time": 132.5,
          "velocity": 0.8661417322834646
        },
        {
          "duration": 0.5,
          "durationTicks": 96,
          "midi": 51,
          "name": "D#3",
          "ticks": 25440,
          "time": 132.5,
          "velocity": 0.7874015748031497
        },
        {
          "duration": 0.5,
          "durationTicks": 96,
          "midi": 40,
          "name": "E2",
          "ticks": 25440,
          "time": 132.5,
          "velocity": 0.7874015748031497
        },
        {
          "duration": 0.5,
          "durationTicks": 96,
          "midi": 38,
          "name": "D2",
          "ticks": 25440,
          "time": 132.5,
          "velocity": 0.7874015748031497
        },
        {
          "duration": 0.4166666666666572,
          "durationTicks": 80,
          "midi": 39,
          "name": "D#2",
          "ticks": 25536,
          "time": 133,
          "velocity": 0.8661417322834646
        },
        {
          "duration": 0.5,
          "durationTicks": 96,
          "midi": 35,
          "name": "B1",
          "ticks": 25536,
          "time": 133,
          "velocity": 0.7874015748031497
        },
        {
          "duration": 0.5,
          "durationTicks": 96,
          "midi": 51,
          "name": "D#3",
          "ticks": 25536,
          "time": 133,
          "velocity": 0.7874015748031497
        },
        {
          "duration": 0.4166666666666572,
          "durationTicks": 80,
          "midi": 39,
          "name": "D#2",
          "ticks": 25632,
          "time": 133.5,
          "velocity": 0.8661417322834646
        },
        {
          "duration": 0.5,
          "durationTicks": 96,
          "midi": 46,
          "name": "A#2",
          "ticks": 25632,
          "time": 133.5,
          "velocity": 0.7874015748031497
        },
        {
          "duration": 0.5,
          "durationTicks": 96,
          "midi": 40,
          "name": "E2",
          "ticks": 25632,
          "time": 133.5,
          "velocity": 0.7874015748031497
        },
        {
          "duration": 0.5,
          "durationTicks": 96,
          "midi": 38,
          "name": "D2",
          "ticks": 25632,
          "time": 133.5,
          "velocity": 0.7874015748031497
        },
        {
          "duration": 0.25,
          "durationTicks": 48,
          "midi": 36,
          "name": "C2",
          "ticks": 25728,
          "time": 134,
          "velocity": 0.7874015748031497
        },
        {
          "duration": 0.4166666666666572,
          "durationTicks": 80,
          "midi": 39,
          "name": "D#2",
          "ticks": 25728,
          "time": 134,
          "velocity": 0.8661417322834646
        },
        {
          "duration": 0.25,
          "durationTicks": 48,
          "midi": 44,
          "name": "G#2",
          "ticks": 25728,
          "time": 134,
          "velocity": 0.7874015748031497
        },
        {
          "duration": 0.125,
          "durationTicks": 24,
          "midi": 36,
          "name": "C2",
          "ticks": 25776,
          "time": 134.25,
          "velocity": 0.7874015748031497
        },
        {
          "duration": 0.25,
          "durationTicks": 48,
          "midi": 44,
          "name": "G#2",
          "ticks": 25776,
          "time": 134.25,
          "velocity": 0.7874015748031497
        },
        {
          "duration": 0.125,
          "durationTicks": 24,
          "midi": 36,
          "name": "C2",
          "ticks": 25800,
          "time": 134.375,
          "velocity": 0.7874015748031497
        },
        {
          "duration": 0.5,
          "durationTicks": 96,
          "midi": 40,
          "name": "E2",
          "ticks": 25824,
          "time": 134.5,
          "velocity": 0.7874015748031497
        },
        {
          "duration": 0.5,
          "durationTicks": 96,
          "midi": 51,
          "name": "D#3",
          "ticks": 25824,
          "time": 134.5,
          "velocity": 0.7874015748031497
        },
        {
          "duration": 0.4166666666666572,
          "durationTicks": 80,
          "midi": 39,
          "name": "D#2",
          "ticks": 25824,
          "time": 134.5,
          "velocity": 0.8661417322834646
        },
        {
          "duration": 0.5,
          "durationTicks": 96,
          "midi": 38,
          "name": "D2",
          "ticks": 25824,
          "time": 134.5,
          "velocity": 0.7874015748031497
        },
        {
          "duration": 0.5,
          "durationTicks": 96,
          "midi": 51,
          "name": "D#3",
          "ticks": 25920,
          "time": 135,
          "velocity": 0.7874015748031497
        },
        {
          "duration": 0.4166666666666572,
          "durationTicks": 80,
          "midi": 39,
          "name": "D#2",
          "ticks": 25920,
          "time": 135,
          "velocity": 0.8661417322834646
        },
        {
          "duration": 0.5,
          "durationTicks": 96,
          "midi": 35,
          "name": "B1",
          "ticks": 25920,
          "time": 135,
          "velocity": 0.7874015748031497
        },
        {
          "duration": 0.4166666666666572,
          "durationTicks": 80,
          "midi": 39,
          "name": "D#2",
          "ticks": 26016,
          "time": 135.5,
          "velocity": 0.8661417322834646
        },
        {
          "duration": 0.5,
          "durationTicks": 96,
          "midi": 40,
          "name": "E2",
          "ticks": 26016,
          "time": 135.5,
          "velocity": 0.7874015748031497
        },
        {
          "duration": 0.5,
          "durationTicks": 96,
          "midi": 46,
          "name": "A#2",
          "ticks": 26016,
          "time": 135.5,
          "velocity": 0.7874015748031497
        },
        {
          "duration": 0.5,
          "durationTicks": 96,
          "midi": 38,
          "name": "D2",
          "ticks": 26016,
          "time": 135.5,
          "velocity": 0.7874015748031497
        },
        {
          "duration": 0.25,
          "durationTicks": 48,
          "midi": 36,
          "name": "C2",
          "ticks": 26112,
          "time": 136,
          "velocity": 0.7874015748031497
        },
        {
          "duration": 0.4166666666666572,
          "durationTicks": 80,
          "midi": 39,
          "name": "D#2",
          "ticks": 26112,
          "time": 136,
          "velocity": 0.8661417322834646
        },
        {
          "duration": 0.25,
          "durationTicks": 48,
          "midi": 44,
          "name": "G#2",
          "ticks": 26112,
          "time": 136,
          "velocity": 0.7874015748031497
        },
        {
          "duration": 0.125,
          "durationTicks": 24,
          "midi": 36,
          "name": "C2",
          "ticks": 26160,
          "time": 136.25,
          "velocity": 0.7874015748031497
        },
        {
          "duration": 0.25,
          "durationTicks": 48,
          "midi": 44,
          "name": "G#2",
          "ticks": 26160,
          "time": 136.25,
          "velocity": 0.7874015748031497
        },
        {
          "duration": 0.125,
          "durationTicks": 24,
          "midi": 36,
          "name": "C2",
          "ticks": 26184,
          "time": 136.375,
          "velocity": 0.7874015748031497
        },
        {
          "duration": 0.5,
          "durationTicks": 96,
          "midi": 38,
          "name": "D2",
          "ticks": 26208,
          "time": 136.5,
          "velocity": 0.7874015748031497
        },
        {
          "duration": 0.5,
          "durationTicks": 96,
          "midi": 51,
          "name": "D#3",
          "ticks": 26208,
          "time": 136.5,
          "velocity": 0.7874015748031497
        },
        {
          "duration": 0.5,
          "durationTicks": 96,
          "midi": 40,
          "name": "E2",
          "ticks": 26208,
          "time": 136.5,
          "velocity": 0.7874015748031497
        },
        {
          "duration": 0.4166666666666572,
          "durationTicks": 80,
          "midi": 39,
          "name": "D#2",
          "ticks": 26208,
          "time": 136.5,
          "velocity": 0.8661417322834646
        },
        {
          "duration": 0.4166666666666572,
          "durationTicks": 80,
          "midi": 39,
          "name": "D#2",
          "ticks": 26304,
          "time": 137,
          "velocity": 0.8661417322834646
        },
        {
          "duration": 0.5,
          "durationTicks": 96,
          "midi": 35,
          "name": "B1",
          "ticks": 26304,
          "time": 137,
          "velocity": 0.7874015748031497
        },
        {
          "duration": 0.5,
          "durationTicks": 96,
          "midi": 51,
          "name": "D#3",
          "ticks": 26304,
          "time": 137,
          "velocity": 0.7874015748031497
        },
        {
          "duration": 0.5,
          "durationTicks": 96,
          "midi": 49,
          "name": "C#3",
          "ticks": 26304,
          "time": 137,
          "velocity": 0.7874015748031497
        },
        {
          "duration": 0.5,
          "durationTicks": 96,
          "midi": 38,
          "name": "D2",
          "ticks": 26400,
          "time": 137.5,
          "velocity": 0.7874015748031497
        },
        {
          "duration": 0.4166666666666572,
          "durationTicks": 80,
          "midi": 39,
          "name": "D#2",
          "ticks": 26400,
          "time": 137.5,
          "velocity": 0.8661417322834646
        },
        {
          "duration": 0.5,
          "durationTicks": 96,
          "midi": 40,
          "name": "E2",
          "ticks": 26400,
          "time": 137.5,
          "velocity": 0.7874015748031497
        },
        {
          "duration": 0.5,
          "durationTicks": 96,
          "midi": 46,
          "name": "A#2",
          "ticks": 26400,
          "time": 137.5,
          "velocity": 0.7874015748031497
        },
        {
          "duration": 0.25,
          "durationTicks": 48,
          "midi": 44,
          "name": "G#2",
          "ticks": 26496,
          "time": 138,
          "velocity": 0.7874015748031497
        },
        {
          "duration": 0.25,
          "durationTicks": 48,
          "midi": 36,
          "name": "C2",
          "ticks": 26496,
          "time": 138,
          "velocity": 0.7874015748031497
        },
        {
          "duration": 0.4166666666666572,
          "durationTicks": 80,
          "midi": 39,
          "name": "D#2",
          "ticks": 26496,
          "time": 138,
          "velocity": 0.8661417322834646
        },
        {
          "duration": 0.125,
          "durationTicks": 24,
          "midi": 36,
          "name": "C2",
          "ticks": 26544,
          "time": 138.25,
          "velocity": 0.7874015748031497
        },
        {
          "duration": 0.25,
          "durationTicks": 48,
          "midi": 44,
          "name": "G#2",
          "ticks": 26544,
          "time": 138.25,
          "velocity": 0.7874015748031497
        },
        {
          "duration": 0.125,
          "durationTicks": 24,
          "midi": 36,
          "name": "C2",
          "ticks": 26568,
          "time": 138.375,
          "velocity": 0.7874015748031497
        },
        {
          "duration": 0.5,
          "durationTicks": 96,
          "midi": 38,
          "name": "D2",
          "ticks": 26592,
          "time": 138.5,
          "velocity": 0.7874015748031497
        },
        {
          "duration": 0.4166666666666572,
          "durationTicks": 80,
          "midi": 39,
          "name": "D#2",
          "ticks": 26592,
          "time": 138.5,
          "velocity": 0.8661417322834646
        },
        {
          "duration": 0.5,
          "durationTicks": 96,
          "midi": 51,
          "name": "D#3",
          "ticks": 26592,
          "time": 138.5,
          "velocity": 0.7874015748031497
        },
        {
          "duration": 0.5,
          "durationTicks": 96,
          "midi": 40,
          "name": "E2",
          "ticks": 26592,
          "time": 138.5,
          "velocity": 0.7874015748031497
        },
        {
          "duration": 0.5,
          "durationTicks": 96,
          "midi": 51,
          "name": "D#3",
          "ticks": 26688,
          "time": 139,
          "velocity": 0.7874015748031497
        },
        {
          "duration": 0.5,
          "durationTicks": 96,
          "midi": 35,
          "name": "B1",
          "ticks": 26688,
          "time": 139,
          "velocity": 0.7874015748031497
        },
        {
          "duration": 0.4166666666666572,
          "durationTicks": 80,
          "midi": 39,
          "name": "D#2",
          "ticks": 26688,
          "time": 139,
          "velocity": 0.8661417322834646
        },
        {
          "duration": 0.5,
          "durationTicks": 96,
          "midi": 38,
          "name": "D2",
          "ticks": 26784,
          "time": 139.5,
          "velocity": 0.7874015748031497
        },
        {
          "duration": 0.4166666666666572,
          "durationTicks": 80,
          "midi": 39,
          "name": "D#2",
          "ticks": 26784,
          "time": 139.5,
          "velocity": 0.8661417322834646
        },
        {
          "duration": 0.5,
          "durationTicks": 96,
          "midi": 40,
          "name": "E2",
          "ticks": 26784,
          "time": 139.5,
          "velocity": 0.7874015748031497
        },
        {
          "duration": 0.5,
          "durationTicks": 96,
          "midi": 46,
          "name": "A#2",
          "ticks": 26784,
          "time": 139.5,
          "velocity": 0.7874015748031497
        },
        {
          "duration": 0.25,
          "durationTicks": 48,
          "midi": 44,
          "name": "G#2",
          "ticks": 26880,
          "time": 140,
          "velocity": 0.7874015748031497
        },
        {
          "duration": 0.25,
          "durationTicks": 48,
          "midi": 36,
          "name": "C2",
          "ticks": 26880,
          "time": 140,
          "velocity": 0.7874015748031497
        },
        {
          "duration": 0.4166666666666572,
          "durationTicks": 80,
          "midi": 39,
          "name": "D#2",
          "ticks": 26880,
          "time": 140,
          "velocity": 0.8661417322834646
        },
        {
          "duration": 0.125,
          "durationTicks": 24,
          "midi": 36,
          "name": "C2",
          "ticks": 26928,
          "time": 140.25,
          "velocity": 0.7874015748031497
        },
        {
          "duration": 0.25,
          "durationTicks": 48,
          "midi": 44,
          "name": "G#2",
          "ticks": 26928,
          "time": 140.25,
          "velocity": 0.7874015748031497
        },
        {
          "duration": 0.125,
          "durationTicks": 24,
          "midi": 36,
          "name": "C2",
          "ticks": 26952,
          "time": 140.375,
          "velocity": 0.7874015748031497
        },
        {
          "duration": 0.5,
          "durationTicks": 96,
          "midi": 38,
          "name": "D2",
          "ticks": 26976,
          "time": 140.5,
          "velocity": 0.7874015748031497
        },
        {
          "duration": 0.4166666666666572,
          "durationTicks": 80,
          "midi": 39,
          "name": "D#2",
          "ticks": 26976,
          "time": 140.5,
          "velocity": 0.8661417322834646
        },
        {
          "duration": 0.5,
          "durationTicks": 96,
          "midi": 40,
          "name": "E2",
          "ticks": 26976,
          "time": 140.5,
          "velocity": 0.7874015748031497
        },
        {
          "duration": 0.5,
          "durationTicks": 96,
          "midi": 51,
          "name": "D#3",
          "ticks": 26976,
          "time": 140.5,
          "velocity": 0.7874015748031497
        },
        {
          "duration": 0.5,
          "durationTicks": 96,
          "midi": 51,
          "name": "D#3",
          "ticks": 27072,
          "time": 141,
          "velocity": 0.7874015748031497
        },
        {
          "duration": 0.5,
          "durationTicks": 96,
          "midi": 35,
          "name": "B1",
          "ticks": 27072,
          "time": 141,
          "velocity": 0.7874015748031497
        },
        {
          "duration": 0.4166666666666572,
          "durationTicks": 80,
          "midi": 39,
          "name": "D#2",
          "ticks": 27072,
          "time": 141,
          "velocity": 0.8661417322834646
        },
        {
          "duration": 0.5,
          "durationTicks": 96,
          "midi": 38,
          "name": "D2",
          "ticks": 27168,
          "time": 141.5,
          "velocity": 0.7874015748031497
        },
        {
          "duration": 0.4166666666666572,
          "durationTicks": 80,
          "midi": 39,
          "name": "D#2",
          "ticks": 27168,
          "time": 141.5,
          "velocity": 0.8661417322834646
        },
        {
          "duration": 0.5,
          "durationTicks": 96,
          "midi": 40,
          "name": "E2",
          "ticks": 27168,
          "time": 141.5,
          "velocity": 0.7874015748031497
        },
        {
          "duration": 0.5,
          "durationTicks": 96,
          "midi": 46,
          "name": "A#2",
          "ticks": 27168,
          "time": 141.5,
          "velocity": 0.7874015748031497
        },
        {
          "duration": 0.25,
          "durationTicks": 48,
          "midi": 44,
          "name": "G#2",
          "ticks": 27264,
          "time": 142,
          "velocity": 0.7874015748031497
        },
        {
          "duration": 0.25,
          "durationTicks": 48,
          "midi": 36,
          "name": "C2",
          "ticks": 27264,
          "time": 142,
          "velocity": 0.7874015748031497
        },
        {
          "duration": 0.4166666666666572,
          "durationTicks": 80,
          "midi": 39,
          "name": "D#2",
          "ticks": 27264,
          "time": 142,
          "velocity": 0.8661417322834646
        },
        {
          "duration": 0.125,
          "durationTicks": 24,
          "midi": 36,
          "name": "C2",
          "ticks": 27312,
          "time": 142.25,
          "velocity": 0.7874015748031497
        },
        {
          "duration": 0.25,
          "durationTicks": 48,
          "midi": 44,
          "name": "G#2",
          "ticks": 27312,
          "time": 142.25,
          "velocity": 0.7874015748031497
        },
        {
          "duration": 0.125,
          "durationTicks": 24,
          "midi": 36,
          "name": "C2",
          "ticks": 27336,
          "time": 142.375,
          "velocity": 0.7874015748031497
        },
        {
          "duration": 0.5,
          "durationTicks": 96,
          "midi": 38,
          "name": "D2",
          "ticks": 27360,
          "time": 142.5,
          "velocity": 0.7874015748031497
        },
        {
          "duration": 0.4166666666666572,
          "durationTicks": 80,
          "midi": 39,
          "name": "D#2",
          "ticks": 27360,
          "time": 142.5,
          "velocity": 0.8661417322834646
        },
        {
          "duration": 0.5,
          "durationTicks": 96,
          "midi": 51,
          "name": "D#3",
          "ticks": 27360,
          "time": 142.5,
          "velocity": 0.7874015748031497
        },
        {
          "duration": 0.5,
          "durationTicks": 96,
          "midi": 40,
          "name": "E2",
          "ticks": 27360,
          "time": 142.5,
          "velocity": 0.7874015748031497
        },
        {
          "duration": 0.5,
          "durationTicks": 96,
          "midi": 51,
          "name": "D#3",
          "ticks": 27456,
          "time": 143,
          "velocity": 0.7874015748031497
        },
        {
          "duration": 0.5,
          "durationTicks": 96,
          "midi": 35,
          "name": "B1",
          "ticks": 27456,
          "time": 143,
          "velocity": 0.7874015748031497
        },
        {
          "duration": 0.4166666666666572,
          "durationTicks": 80,
          "midi": 39,
          "name": "D#2",
          "ticks": 27456,
          "time": 143,
          "velocity": 0.8661417322834646
        },
        {
          "duration": 0.5,
          "durationTicks": 96,
          "midi": 38,
          "name": "D2",
          "ticks": 27552,
          "time": 143.5,
          "velocity": 0.7874015748031497
        },
        {
          "duration": 0.4166666666666572,
          "durationTicks": 80,
          "midi": 39,
          "name": "D#2",
          "ticks": 27552,
          "time": 143.5,
          "velocity": 0.8661417322834646
        },
        {
          "duration": 0.5,
          "durationTicks": 96,
          "midi": 40,
          "name": "E2",
          "ticks": 27552,
          "time": 143.5,
          "velocity": 0.7874015748031497
        },
        {
          "duration": 0.5,
          "durationTicks": 96,
          "midi": 46,
          "name": "A#2",
          "ticks": 27552,
          "time": 143.5,
          "velocity": 0.7874015748031497
        },
        {
          "duration": 0.25,
          "durationTicks": 48,
          "midi": 44,
          "name": "G#2",
          "ticks": 27648,
          "time": 144,
          "velocity": 0.7874015748031497
        },
        {
          "duration": 0.25,
          "durationTicks": 48,
          "midi": 36,
          "name": "C2",
          "ticks": 27648,
          "time": 144,
          "velocity": 0.7874015748031497
        },
        {
          "duration": 0.4166666666666572,
          "durationTicks": 80,
          "midi": 39,
          "name": "D#2",
          "ticks": 27648,
          "time": 144,
          "velocity": 0.8661417322834646
        },
        {
          "duration": 0.125,
          "durationTicks": 24,
          "midi": 36,
          "name": "C2",
          "ticks": 27696,
          "time": 144.25,
          "velocity": 0.7874015748031497
        },
        {
          "duration": 0.25,
          "durationTicks": 48,
          "midi": 44,
          "name": "G#2",
          "ticks": 27696,
          "time": 144.25,
          "velocity": 0.7874015748031497
        },
        {
          "duration": 0.125,
          "durationTicks": 24,
          "midi": 36,
          "name": "C2",
          "ticks": 27720,
          "time": 144.375,
          "velocity": 0.7874015748031497
        },
        {
          "duration": 0.5,
          "durationTicks": 96,
          "midi": 38,
          "name": "D2",
          "ticks": 27744,
          "time": 144.5,
          "velocity": 0.7874015748031497
        },
        {
          "duration": 0.4166666666666572,
          "durationTicks": 80,
          "midi": 39,
          "name": "D#2",
          "ticks": 27744,
          "time": 144.5,
          "velocity": 0.8661417322834646
        },
        {
          "duration": 0.5,
          "durationTicks": 96,
          "midi": 51,
          "name": "D#3",
          "ticks": 27744,
          "time": 144.5,
          "velocity": 0.7874015748031497
        },
        {
          "duration": 0.5,
          "durationTicks": 96,
          "midi": 40,
          "name": "E2",
          "ticks": 27744,
          "time": 144.5,
          "velocity": 0.7874015748031497
        },
        {
          "duration": 0.5,
          "durationTicks": 96,
          "midi": 51,
          "name": "D#3",
          "ticks": 27840,
          "time": 145,
          "velocity": 0.7874015748031497
        },
        {
          "duration": 0.5,
          "durationTicks": 96,
          "midi": 35,
          "name": "B1",
          "ticks": 27840,
          "time": 145,
          "velocity": 0.7874015748031497
        },
        {
          "duration": 0.4166666666666572,
          "durationTicks": 80,
          "midi": 39,
          "name": "D#2",
          "ticks": 27840,
          "time": 145,
          "velocity": 0.8661417322834646
        },
        {
          "duration": 0.5,
          "durationTicks": 96,
          "midi": 38,
          "name": "D2",
          "ticks": 27936,
          "time": 145.5,
          "velocity": 0.7874015748031497
        },
        {
          "duration": 0.4166666666666572,
          "durationTicks": 80,
          "midi": 39,
          "name": "D#2",
          "ticks": 27936,
          "time": 145.5,
          "velocity": 0.8661417322834646
        },
        {
          "duration": 0.5,
          "durationTicks": 96,
          "midi": 46,
          "name": "A#2",
          "ticks": 27936,
          "time": 145.5,
          "velocity": 0.7874015748031497
        },
        {
          "duration": 0.5,
          "durationTicks": 96,
          "midi": 40,
          "name": "E2",
          "ticks": 27936,
          "time": 145.5,
          "velocity": 0.7874015748031497
        },
        {
          "duration": 0.4166666666666572,
          "durationTicks": 80,
          "midi": 39,
          "name": "D#2",
          "ticks": 28032,
          "time": 146,
          "velocity": 0.8661417322834646
        },
        {
          "duration": 0.25,
          "durationTicks": 48,
          "midi": 36,
          "name": "C2",
          "ticks": 28032,
          "time": 146,
          "velocity": 0.7874015748031497
        },
        {
          "duration": 0.25,
          "durationTicks": 48,
          "midi": 44,
          "name": "G#2",
          "ticks": 28032,
          "time": 146,
          "velocity": 0.7874015748031497
        },
        {
          "duration": 0.125,
          "durationTicks": 24,
          "midi": 36,
          "name": "C2",
          "ticks": 28080,
          "time": 146.25,
          "velocity": 0.7874015748031497
        },
        {
          "duration": 0.25,
          "durationTicks": 48,
          "midi": 44,
          "name": "G#2",
          "ticks": 28080,
          "time": 146.25,
          "velocity": 0.7874015748031497
        },
        {
          "duration": 0.125,
          "durationTicks": 24,
          "midi": 36,
          "name": "C2",
          "ticks": 28104,
          "time": 146.375,
          "velocity": 0.7874015748031497
        },
        {
          "duration": 0.5,
          "durationTicks": 96,
          "midi": 38,
          "name": "D2",
          "ticks": 28128,
          "time": 146.5,
          "velocity": 0.7874015748031497
        },
        {
          "duration": 0.5,
          "durationTicks": 96,
          "midi": 51,
          "name": "D#3",
          "ticks": 28128,
          "time": 146.5,
          "velocity": 0.7874015748031497
        },
        {
          "duration": 0.5,
          "durationTicks": 96,
          "midi": 40,
          "name": "E2",
          "ticks": 28128,
          "time": 146.5,
          "velocity": 0.7874015748031497
        },
        {
          "duration": 0.4166666666666572,
          "durationTicks": 80,
          "midi": 39,
          "name": "D#2",
          "ticks": 28128,
          "time": 146.5,
          "velocity": 0.8661417322834646
        },
        {
          "duration": 0.4166666666666572,
          "durationTicks": 80,
          "midi": 39,
          "name": "D#2",
          "ticks": 28224,
          "time": 147,
          "velocity": 0.8661417322834646
        },
        {
          "duration": 0.5,
          "durationTicks": 96,
          "midi": 35,
          "name": "B1",
          "ticks": 28224,
          "time": 147,
          "velocity": 0.7874015748031497
        },
        {
          "duration": 0.5,
          "durationTicks": 96,
          "midi": 51,
          "name": "D#3",
          "ticks": 28224,
          "time": 147,
          "velocity": 0.7874015748031497
        },
        {
          "duration": 0.5,
          "durationTicks": 96,
          "midi": 38,
          "name": "D2",
          "ticks": 28320,
          "time": 147.5,
          "velocity": 0.7874015748031497
        },
        {
          "duration": 0.5,
          "durationTicks": 96,
          "midi": 40,
          "name": "E2",
          "ticks": 28320,
          "time": 147.5,
          "velocity": 0.7874015748031497
        },
        {
          "duration": 0.5,
          "durationTicks": 96,
          "midi": 46,
          "name": "A#2",
          "ticks": 28320,
          "time": 147.5,
          "velocity": 0.7874015748031497
        },
        {
          "duration": 0.4166666666666572,
          "durationTicks": 80,
          "midi": 39,
          "name": "D#2",
          "ticks": 28320,
          "time": 147.5,
          "velocity": 0.8661417322834646
        },
        {
          "duration": 0.4166666666666572,
          "durationTicks": 80,
          "midi": 39,
          "name": "D#2",
          "ticks": 28416,
          "time": 148,
          "velocity": 0.8661417322834646
        },
        {
          "duration": 0.25,
          "durationTicks": 48,
          "midi": 36,
          "name": "C2",
          "ticks": 28416,
          "time": 148,
          "velocity": 0.7874015748031497
        },
        {
          "duration": 0.25,
          "durationTicks": 48,
          "midi": 44,
          "name": "G#2",
          "ticks": 28416,
          "time": 148,
          "velocity": 0.7874015748031497
        },
        {
          "duration": 0.125,
          "durationTicks": 24,
          "midi": 36,
          "name": "C2",
          "ticks": 28464,
          "time": 148.25,
          "velocity": 0.7874015748031497
        },
        {
          "duration": 0.25,
          "durationTicks": 48,
          "midi": 44,
          "name": "G#2",
          "ticks": 28464,
          "time": 148.25,
          "velocity": 0.7874015748031497
        },
        {
          "duration": 0.125,
          "durationTicks": 24,
          "midi": 36,
          "name": "C2",
          "ticks": 28488,
          "time": 148.375,
          "velocity": 0.7874015748031497
        },
        {
          "duration": 0.5,
          "durationTicks": 96,
          "midi": 38,
          "name": "D2",
          "ticks": 28512,
          "time": 148.5,
          "velocity": 0.7874015748031497
        },
        {
          "duration": 0.5,
          "durationTicks": 96,
          "midi": 40,
          "name": "E2",
          "ticks": 28512,
          "time": 148.5,
          "velocity": 0.7874015748031497
        },
        {
          "duration": 0.5,
          "durationTicks": 96,
          "midi": 51,
          "name": "D#3",
          "ticks": 28512,
          "time": 148.5,
          "velocity": 0.7874015748031497
        },
        {
          "duration": 0.4166666666666572,
          "durationTicks": 80,
          "midi": 39,
          "name": "D#2",
          "ticks": 28512,
          "time": 148.5,
          "velocity": 0.8661417322834646
        },
        {
          "duration": 0.5,
          "durationTicks": 96,
          "midi": 51,
          "name": "D#3",
          "ticks": 28608,
          "time": 149,
          "velocity": 0.7874015748031497
        },
        {
          "duration": 0.4166666666666572,
          "durationTicks": 80,
          "midi": 39,
          "name": "D#2",
          "ticks": 28608,
          "time": 149,
          "velocity": 0.8661417322834646
        },
        {
          "duration": 0.5,
          "durationTicks": 96,
          "midi": 35,
          "name": "B1",
          "ticks": 28608,
          "time": 149,
          "velocity": 0.7874015748031497
        },
        {
          "duration": 0.5,
          "durationTicks": 96,
          "midi": 38,
          "name": "D2",
          "ticks": 28704,
          "time": 149.5,
          "velocity": 0.7874015748031497
        },
        {
          "duration": 0.5,
          "durationTicks": 96,
          "midi": 46,
          "name": "A#2",
          "ticks": 28704,
          "time": 149.5,
          "velocity": 0.7874015748031497
        },
        {
          "duration": 0.5,
          "durationTicks": 96,
          "midi": 40,
          "name": "E2",
          "ticks": 28704,
          "time": 149.5,
          "velocity": 0.7874015748031497
        },
        {
          "duration": 0.4166666666666572,
          "durationTicks": 80,
          "midi": 39,
          "name": "D#2",
          "ticks": 28704,
          "time": 149.5,
          "velocity": 0.8661417322834646
        },
        {
          "duration": 0.4166666666666572,
          "durationTicks": 80,
          "midi": 39,
          "name": "D#2",
          "ticks": 28800,
          "time": 150,
          "velocity": 0.8661417322834646
        },
        {
          "duration": 0.25,
          "durationTicks": 48,
          "midi": 36,
          "name": "C2",
          "ticks": 28800,
          "time": 150,
          "velocity": 0.7874015748031497
        },
        {
          "duration": 0.25,
          "durationTicks": 48,
          "midi": 44,
          "name": "G#2",
          "ticks": 28800,
          "time": 150,
          "velocity": 0.7874015748031497
        },
        {
          "duration": 0.125,
          "durationTicks": 24,
          "midi": 36,
          "name": "C2",
          "ticks": 28848,
          "time": 150.25,
          "velocity": 0.7874015748031497
        },
        {
          "duration": 0.25,
          "durationTicks": 48,
          "midi": 44,
          "name": "G#2",
          "ticks": 28848,
          "time": 150.25,
          "velocity": 0.7874015748031497
        },
        {
          "duration": 0.125,
          "durationTicks": 24,
          "midi": 36,
          "name": "C2",
          "ticks": 28872,
          "time": 150.375,
          "velocity": 0.7874015748031497
        },
        {
          "duration": 0.5,
          "durationTicks": 96,
          "midi": 38,
          "name": "D2",
          "ticks": 28896,
          "time": 150.5,
          "velocity": 0.7874015748031497
        },
        {
          "duration": 0.5,
          "durationTicks": 96,
          "midi": 51,
          "name": "D#3",
          "ticks": 28896,
          "time": 150.5,
          "velocity": 0.7874015748031497
        },
        {
          "duration": 0.5,
          "durationTicks": 96,
          "midi": 40,
          "name": "E2",
          "ticks": 28896,
          "time": 150.5,
          "velocity": 0.7874015748031497
        },
        {
          "duration": 0.4166666666666572,
          "durationTicks": 80,
          "midi": 39,
          "name": "D#2",
          "ticks": 28896,
          "time": 150.5,
          "velocity": 0.8661417322834646
        },
        {
          "duration": 0.5,
          "durationTicks": 96,
          "midi": 35,
          "name": "B1",
          "ticks": 28992,
          "time": 151,
          "velocity": 0.7874015748031497
        },
        {
          "duration": 0.5,
          "durationTicks": 96,
          "midi": 51,
          "name": "D#3",
          "ticks": 28992,
          "time": 151,
          "velocity": 0.7874015748031497
        },
        {
          "duration": 0.4166666666666572,
          "durationTicks": 80,
          "midi": 39,
          "name": "D#2",
          "ticks": 28992,
          "time": 151,
          "velocity": 0.8661417322834646
        },
        {
          "duration": 0.4166666666666572,
          "durationTicks": 80,
          "midi": 39,
          "name": "D#2",
          "ticks": 29088,
          "time": 151.5,
          "velocity": 0.8661417322834646
        },
        {
          "duration": 0.5,
          "durationTicks": 96,
          "midi": 40,
          "name": "E2",
          "ticks": 29088,
          "time": 151.5,
          "velocity": 0.7874015748031497
        },
        {
          "duration": 0.5,
          "durationTicks": 96,
          "midi": 46,
          "name": "A#2",
          "ticks": 29088,
          "time": 151.5,
          "velocity": 0.7874015748031497
        },
        {
          "duration": 0.5,
          "durationTicks": 96,
          "midi": 38,
          "name": "D2",
          "ticks": 29088,
          "time": 151.5,
          "velocity": 0.7874015748031497
        },
        {
          "duration": 0.4166666666666572,
          "durationTicks": 80,
          "midi": 39,
          "name": "D#2",
          "ticks": 29184,
          "time": 152,
          "velocity": 0.8661417322834646
        },
        {
          "duration": 0.25,
          "durationTicks": 48,
          "midi": 36,
          "name": "C2",
          "ticks": 29184,
          "time": 152,
          "velocity": 0.7874015748031497
        },
        {
          "duration": 0.25,
          "durationTicks": 48,
          "midi": 44,
          "name": "G#2",
          "ticks": 29184,
          "time": 152,
          "velocity": 0.7874015748031497
        },
        {
          "duration": 0.25,
          "durationTicks": 48,
          "midi": 44,
          "name": "G#2",
          "ticks": 29232,
          "time": 152.25,
          "velocity": 0.7874015748031497
        },
        {
          "duration": 0.125,
          "durationTicks": 24,
          "midi": 36,
          "name": "C2",
          "ticks": 29232,
          "time": 152.25,
          "velocity": 0.7874015748031497
        },
        {
          "duration": 0.125,
          "durationTicks": 24,
          "midi": 36,
          "name": "C2",
          "ticks": 29256,
          "time": 152.375,
          "velocity": 0.7874015748031497
        },
        {
          "duration": 0.5,
          "durationTicks": 96,
          "midi": 38,
          "name": "D2",
          "ticks": 29280,
          "time": 152.5,
          "velocity": 0.7874015748031497
        },
        {
          "duration": 0.5,
          "durationTicks": 96,
          "midi": 40,
          "name": "E2",
          "ticks": 29280,
          "time": 152.5,
          "velocity": 0.7874015748031497
        },
        {
          "duration": 0.5,
          "durationTicks": 96,
          "midi": 51,
          "name": "D#3",
          "ticks": 29280,
          "time": 152.5,
          "velocity": 0.7874015748031497
        },
        {
          "duration": 0.4166666666666572,
          "durationTicks": 80,
          "midi": 39,
          "name": "D#2",
          "ticks": 29280,
          "time": 152.5,
          "velocity": 0.8661417322834646
        },
        {
          "duration": 0.5,
          "durationTicks": 96,
          "midi": 35,
          "name": "B1",
          "ticks": 29376,
          "time": 153,
          "velocity": 0.7874015748031497
        },
        {
          "duration": 0.5,
          "durationTicks": 96,
          "midi": 51,
          "name": "D#3",
          "ticks": 29376,
          "time": 153,
          "velocity": 0.7874015748031497
        },
        {
          "duration": 0.4166666666666572,
          "durationTicks": 80,
          "midi": 39,
          "name": "D#2",
          "ticks": 29376,
          "time": 153,
          "velocity": 0.8661417322834646
        },
        {
          "duration": 0.4166666666666572,
          "durationTicks": 80,
          "midi": 39,
          "name": "D#2",
          "ticks": 29472,
          "time": 153.5,
          "velocity": 0.8661417322834646
        },
        {
          "duration": 0.5,
          "durationTicks": 96,
          "midi": 46,
          "name": "A#2",
          "ticks": 29472,
          "time": 153.5,
          "velocity": 0.7874015748031497
        },
        {
          "duration": 0.5,
          "durationTicks": 96,
          "midi": 40,
          "name": "E2",
          "ticks": 29472,
          "time": 153.5,
          "velocity": 0.7874015748031497
        },
        {
          "duration": 0.5,
          "durationTicks": 96,
          "midi": 38,
          "name": "D2",
          "ticks": 29472,
          "time": 153.5,
          "velocity": 0.7874015748031497
        },
        {
          "duration": 0.4166666666666572,
          "durationTicks": 80,
          "midi": 39,
          "name": "D#2",
          "ticks": 29568,
          "time": 154,
          "velocity": 0.8661417322834646
        },
        {
          "duration": 0.25,
          "durationTicks": 48,
          "midi": 36,
          "name": "C2",
          "ticks": 29568,
          "time": 154,
          "velocity": 0.7874015748031497
        },
        {
          "duration": 0.25,
          "durationTicks": 48,
          "midi": 44,
          "name": "G#2",
          "ticks": 29568,
          "time": 154,
          "velocity": 0.7874015748031497
        },
        {
          "duration": 0.25,
          "durationTicks": 48,
          "midi": 44,
          "name": "G#2",
          "ticks": 29616,
          "time": 154.25,
          "velocity": 0.7874015748031497
        },
        {
          "duration": 0.125,
          "durationTicks": 24,
          "midi": 36,
          "name": "C2",
          "ticks": 29616,
          "time": 154.25,
          "velocity": 0.7874015748031497
        },
        {
          "duration": 0.125,
          "durationTicks": 24,
          "midi": 36,
          "name": "C2",
          "ticks": 29640,
          "time": 154.375,
          "velocity": 0.7874015748031497
        },
        {
          "duration": 0.5,
          "durationTicks": 96,
          "midi": 38,
          "name": "D2",
          "ticks": 29664,
          "time": 154.5,
          "velocity": 0.7874015748031497
        },
        {
          "duration": 0.5,
          "durationTicks": 96,
          "midi": 40,
          "name": "E2",
          "ticks": 29664,
          "time": 154.5,
          "velocity": 0.7874015748031497
        },
        {
          "duration": 0.5,
          "durationTicks": 96,
          "midi": 51,
          "name": "D#3",
          "ticks": 29664,
          "time": 154.5,
          "velocity": 0.7874015748031497
        },
        {
          "duration": 0.4166666666666572,
          "durationTicks": 80,
          "midi": 39,
          "name": "D#2",
          "ticks": 29664,
          "time": 154.5,
          "velocity": 0.8661417322834646
        },
        {
          "duration": 0.5,
          "durationTicks": 96,
          "midi": 35,
          "name": "B1",
          "ticks": 29760,
          "time": 155,
          "velocity": 0.7874015748031497
        },
        {
          "duration": 0.5,
          "durationTicks": 96,
          "midi": 51,
          "name": "D#3",
          "ticks": 29760,
          "time": 155,
          "velocity": 0.7874015748031497
        },
        {
          "duration": 0.4166666666666572,
          "durationTicks": 80,
          "midi": 39,
          "name": "D#2",
          "ticks": 29760,
          "time": 155,
          "velocity": 0.8661417322834646
        },
        {
          "duration": 0.4166666666666572,
          "durationTicks": 80,
          "midi": 39,
          "name": "D#2",
          "ticks": 29856,
          "time": 155.5,
          "velocity": 0.8661417322834646
        },
        {
          "duration": 0.5,
          "durationTicks": 96,
          "midi": 40,
          "name": "E2",
          "ticks": 29856,
          "time": 155.5,
          "velocity": 0.7874015748031497
        },
        {
          "duration": 0.5,
          "durationTicks": 96,
          "midi": 46,
          "name": "A#2",
          "ticks": 29856,
          "time": 155.5,
          "velocity": 0.7874015748031497
        },
        {
          "duration": 0.5,
          "durationTicks": 96,
          "midi": 38,
          "name": "D2",
          "ticks": 29856,
          "time": 155.5,
          "velocity": 0.7874015748031497
        },
        {
          "duration": 0.4166666666666572,
          "durationTicks": 80,
          "midi": 39,
          "name": "D#2",
          "ticks": 29952,
          "time": 156,
          "velocity": 0.8661417322834646
        },
        {
          "duration": 0.25,
          "durationTicks": 48,
          "midi": 36,
          "name": "C2",
          "ticks": 29952,
          "time": 156,
          "velocity": 0.7874015748031497
        },
        {
          "duration": 0.25,
          "durationTicks": 48,
          "midi": 44,
          "name": "G#2",
          "ticks": 29952,
          "time": 156,
          "velocity": 0.7874015748031497
        },
        {
          "duration": 0.25,
          "durationTicks": 48,
          "midi": 44,
          "name": "G#2",
          "ticks": 30000,
          "time": 156.25,
          "velocity": 0.7874015748031497
        },
        {
          "duration": 0.125,
          "durationTicks": 24,
          "midi": 36,
          "name": "C2",
          "ticks": 30000,
          "time": 156.25,
          "velocity": 0.7874015748031497
        },
        {
          "duration": 0.125,
          "durationTicks": 24,
          "midi": 36,
          "name": "C2",
          "ticks": 30024,
          "time": 156.375,
          "velocity": 0.7874015748031497
        },
        {
          "duration": 0.5,
          "durationTicks": 96,
          "midi": 38,
          "name": "D2",
          "ticks": 30048,
          "time": 156.5,
          "velocity": 0.7874015748031497
        },
        {
          "duration": 0.4166666666666572,
          "durationTicks": 80,
          "midi": 39,
          "name": "D#2",
          "ticks": 30048,
          "time": 156.5,
          "velocity": 0.8661417322834646
        },
        {
          "duration": 0.5,
          "durationTicks": 96,
          "midi": 40,
          "name": "E2",
          "ticks": 30048,
          "time": 156.5,
          "velocity": 0.7874015748031497
        },
        {
          "duration": 0.5,
          "durationTicks": 96,
          "midi": 51,
          "name": "D#3",
          "ticks": 30048,
          "time": 156.5,
          "velocity": 0.7874015748031497
        },
        {
          "duration": 0.5,
          "durationTicks": 96,
          "midi": 51,
          "name": "D#3",
          "ticks": 30144,
          "time": 157,
          "velocity": 0.7874015748031497
        },
        {
          "duration": 0.5,
          "durationTicks": 96,
          "midi": 49,
          "name": "C#3",
          "ticks": 30144,
          "time": 157,
          "velocity": 0.7874015748031497
        },
        {
          "duration": 0.4166666666666572,
          "durationTicks": 80,
          "midi": 39,
          "name": "D#2",
          "ticks": 30144,
          "time": 157,
          "velocity": 0.8661417322834646
        },
        {
          "duration": 0.5,
          "durationTicks": 96,
          "midi": 35,
          "name": "B1",
          "ticks": 30144,
          "time": 157,
          "velocity": 0.7874015748031497
        },
        {
          "duration": 0.5,
          "durationTicks": 96,
          "midi": 38,
          "name": "D2",
          "ticks": 30240,
          "time": 157.5,
          "velocity": 0.7874015748031497
        },
        {
          "duration": 0.5,
          "durationTicks": 96,
          "midi": 40,
          "name": "E2",
          "ticks": 30240,
          "time": 157.5,
          "velocity": 0.7874015748031497
        },
        {
          "duration": 0.5,
          "durationTicks": 96,
          "midi": 46,
          "name": "A#2",
          "ticks": 30240,
          "time": 157.5,
          "velocity": 0.7874015748031497
        },
        {
          "duration": 0.4166666666666572,
          "durationTicks": 80,
          "midi": 39,
          "name": "D#2",
          "ticks": 30240,
          "time": 157.5,
          "velocity": 0.8661417322834646
        },
        {
          "duration": 0.25,
          "durationTicks": 48,
          "midi": 36,
          "name": "C2",
          "ticks": 30336,
          "time": 158,
          "velocity": 0.7874015748031497
        },
        {
          "duration": 0.25,
          "durationTicks": 48,
          "midi": 44,
          "name": "G#2",
          "ticks": 30336,
          "time": 158,
          "velocity": 0.7874015748031497
        },
        {
          "duration": 0.4166666666666572,
          "durationTicks": 80,
          "midi": 39,
          "name": "D#2",
          "ticks": 30336,
          "time": 158,
          "velocity": 0.8661417322834646
        },
        {
          "duration": 0.125,
          "durationTicks": 24,
          "midi": 36,
          "name": "C2",
          "ticks": 30384,
          "time": 158.25,
          "velocity": 0.7874015748031497
        },
        {
          "duration": 0.25,
          "durationTicks": 48,
          "midi": 44,
          "name": "G#2",
          "ticks": 30384,
          "time": 158.25,
          "velocity": 0.7874015748031497
        },
        {
          "duration": 0.125,
          "durationTicks": 24,
          "midi": 36,
          "name": "C2",
          "ticks": 30408,
          "time": 158.375,
          "velocity": 0.7874015748031497
        },
        {
          "duration": 0.5,
          "durationTicks": 96,
          "midi": 38,
          "name": "D2",
          "ticks": 30432,
          "time": 158.5,
          "velocity": 0.7874015748031497
        },
        {
          "duration": 0.5,
          "durationTicks": 96,
          "midi": 51,
          "name": "D#3",
          "ticks": 30432,
          "time": 158.5,
          "velocity": 0.7874015748031497
        },
        {
          "duration": 0.5,
          "durationTicks": 96,
          "midi": 40,
          "name": "E2",
          "ticks": 30432,
          "time": 158.5,
          "velocity": 0.7874015748031497
        },
        {
          "duration": 0.4166666666666572,
          "durationTicks": 80,
          "midi": 39,
          "name": "D#2",
          "ticks": 30432,
          "time": 158.5,
          "velocity": 0.8661417322834646
        },
        {
          "duration": 0.5,
          "durationTicks": 96,
          "midi": 35,
          "name": "B1",
          "ticks": 30528,
          "time": 159,
          "velocity": 0.7874015748031497
        },
        {
          "duration": 0.5,
          "durationTicks": 96,
          "midi": 51,
          "name": "D#3",
          "ticks": 30528,
          "time": 159,
          "velocity": 0.7874015748031497
        },
        {
          "duration": 0.4166666666666572,
          "durationTicks": 80,
          "midi": 39,
          "name": "D#2",
          "ticks": 30528,
          "time": 159,
          "velocity": 0.8661417322834646
        },
        {
          "duration": 0.5,
          "durationTicks": 96,
          "midi": 38,
          "name": "D2",
          "ticks": 30624,
          "time": 159.5,
          "velocity": 0.7874015748031497
        },
        {
          "duration": 0.5,
          "durationTicks": 96,
          "midi": 40,
          "name": "E2",
          "ticks": 30624,
          "time": 159.5,
          "velocity": 0.7874015748031497
        },
        {
          "duration": 0.5,
          "durationTicks": 96,
          "midi": 46,
          "name": "A#2",
          "ticks": 30624,
          "time": 159.5,
          "velocity": 0.7874015748031497
        },
        {
          "duration": 0.4166666666666572,
          "durationTicks": 80,
          "midi": 39,
          "name": "D#2",
          "ticks": 30624,
          "time": 159.5,
          "velocity": 0.8661417322834646
        },
        {
          "duration": 0.25,
          "durationTicks": 48,
          "midi": 36,
          "name": "C2",
          "ticks": 30720,
          "time": 160,
          "velocity": 0.7874015748031497
        },
        {
          "duration": 0.25,
          "durationTicks": 48,
          "midi": 44,
          "name": "G#2",
          "ticks": 30720,
          "time": 160,
          "velocity": 0.7874015748031497
        },
        {
          "duration": 0.4166666666666572,
          "durationTicks": 80,
          "midi": 39,
          "name": "D#2",
          "ticks": 30720,
          "time": 160,
          "velocity": 0.8661417322834646
        },
        {
          "duration": 0.125,
          "durationTicks": 24,
          "midi": 36,
          "name": "C2",
          "ticks": 30768,
          "time": 160.25,
          "velocity": 0.7874015748031497
        },
        {
          "duration": 0.25,
          "durationTicks": 48,
          "midi": 44,
          "name": "G#2",
          "ticks": 30768,
          "time": 160.25,
          "velocity": 0.7874015748031497
        },
        {
          "duration": 0.125,
          "durationTicks": 24,
          "midi": 36,
          "name": "C2",
          "ticks": 30792,
          "time": 160.375,
          "velocity": 0.7874015748031497
        },
        {
          "duration": 0.5,
          "durationTicks": 96,
          "midi": 38,
          "name": "D2",
          "ticks": 30816,
          "time": 160.5,
          "velocity": 0.7874015748031497
        },
        {
          "duration": 0.5,
          "durationTicks": 96,
          "midi": 40,
          "name": "E2",
          "ticks": 30816,
          "time": 160.5,
          "velocity": 0.7874015748031497
        },
        {
          "duration": 0.5,
          "durationTicks": 96,
          "midi": 51,
          "name": "D#3",
          "ticks": 30816,
          "time": 160.5,
          "velocity": 0.7874015748031497
        },
        {
          "duration": 0.4166666666666572,
          "durationTicks": 80,
          "midi": 39,
          "name": "D#2",
          "ticks": 30816,
          "time": 160.5,
          "velocity": 0.8661417322834646
        },
        {
          "duration": 0.4166666666666572,
          "durationTicks": 80,
          "midi": 39,
          "name": "D#2",
          "ticks": 30912,
          "time": 161,
          "velocity": 0.8661417322834646
        },
        {
          "duration": 0.5,
          "durationTicks": 96,
          "midi": 35,
          "name": "B1",
          "ticks": 30912,
          "time": 161,
          "velocity": 0.7874015748031497
        },
        {
          "duration": 0.5,
          "durationTicks": 96,
          "midi": 51,
          "name": "D#3",
          "ticks": 30912,
          "time": 161,
          "velocity": 0.7874015748031497
        },
        {
          "duration": 0.5,
          "durationTicks": 96,
          "midi": 38,
          "name": "D2",
          "ticks": 31008,
          "time": 161.5,
          "velocity": 0.7874015748031497
        },
        {
          "duration": 0.5,
          "durationTicks": 96,
          "midi": 40,
          "name": "E2",
          "ticks": 31008,
          "time": 161.5,
          "velocity": 0.7874015748031497
        },
        {
          "duration": 0.5,
          "durationTicks": 96,
          "midi": 46,
          "name": "A#2",
          "ticks": 31008,
          "time": 161.5,
          "velocity": 0.7874015748031497
        },
        {
          "duration": 0.4166666666666572,
          "durationTicks": 80,
          "midi": 39,
          "name": "D#2",
          "ticks": 31008,
          "time": 161.5,
          "velocity": 0.8661417322834646
        },
        {
          "duration": 0.25,
          "durationTicks": 48,
          "midi": 36,
          "name": "C2",
          "ticks": 31104,
          "time": 162,
          "velocity": 0.7874015748031497
        },
        {
          "duration": 0.25,
          "durationTicks": 48,
          "midi": 44,
          "name": "G#2",
          "ticks": 31104,
          "time": 162,
          "velocity": 0.7874015748031497
        },
        {
          "duration": 0.4166666666666572,
          "durationTicks": 80,
          "midi": 39,
          "name": "D#2",
          "ticks": 31104,
          "time": 162,
          "velocity": 0.8661417322834646
        },
        {
          "duration": 0.125,
          "durationTicks": 24,
          "midi": 36,
          "name": "C2",
          "ticks": 31152,
          "time": 162.25,
          "velocity": 0.7874015748031497
        },
        {
          "duration": 0.25,
          "durationTicks": 48,
          "midi": 44,
          "name": "G#2",
          "ticks": 31152,
          "time": 162.25,
          "velocity": 0.7874015748031497
        },
        {
          "duration": 0.125,
          "durationTicks": 24,
          "midi": 36,
          "name": "C2",
          "ticks": 31176,
          "time": 162.375,
          "velocity": 0.7874015748031497
        },
        {
          "duration": 0.5,
          "durationTicks": 96,
          "midi": 38,
          "name": "D2",
          "ticks": 31200,
          "time": 162.5,
          "velocity": 0.7874015748031497
        },
        {
          "duration": 0.5,
          "durationTicks": 96,
          "midi": 51,
          "name": "D#3",
          "ticks": 31200,
          "time": 162.5,
          "velocity": 0.7874015748031497
        },
        {
          "duration": 0.5,
          "durationTicks": 96,
          "midi": 40,
          "name": "E2",
          "ticks": 31200,
          "time": 162.5,
          "velocity": 0.7874015748031497
        },
        {
          "duration": 0.4166666666666572,
          "durationTicks": 80,
          "midi": 39,
          "name": "D#2",
          "ticks": 31200,
          "time": 162.5,
          "velocity": 0.8661417322834646
        },
        {
          "duration": 0.4166666666666572,
          "durationTicks": 80,
          "midi": 39,
          "name": "D#2",
          "ticks": 31296,
          "time": 163,
          "velocity": 0.8661417322834646
        },
        {
          "duration": 0.5,
          "durationTicks": 96,
          "midi": 35,
          "name": "B1",
          "ticks": 31296,
          "time": 163,
          "velocity": 0.7874015748031497
        },
        {
          "duration": 0.5,
          "durationTicks": 96,
          "midi": 51,
          "name": "D#3",
          "ticks": 31296,
          "time": 163,
          "velocity": 0.7874015748031497
        },
        {
          "duration": 0.5,
          "durationTicks": 96,
          "midi": 38,
          "name": "D2",
          "ticks": 31392,
          "time": 163.5,
          "velocity": 0.7874015748031497
        },
        {
          "duration": 0.5,
          "durationTicks": 96,
          "midi": 40,
          "name": "E2",
          "ticks": 31392,
          "time": 163.5,
          "velocity": 0.7874015748031497
        },
        {
          "duration": 0.5,
          "durationTicks": 96,
          "midi": 46,
          "name": "A#2",
          "ticks": 31392,
          "time": 163.5,
          "velocity": 0.7874015748031497
        },
        {
          "duration": 0.4166666666666572,
          "durationTicks": 80,
          "midi": 39,
          "name": "D#2",
          "ticks": 31392,
          "time": 163.5,
          "velocity": 0.8661417322834646
        },
        {
          "duration": 0.25,
          "durationTicks": 48,
          "midi": 36,
          "name": "C2",
          "ticks": 31488,
          "time": 164,
          "velocity": 0.7874015748031497
        },
        {
          "duration": 0.25,
          "durationTicks": 48,
          "midi": 44,
          "name": "G#2",
          "ticks": 31488,
          "time": 164,
          "velocity": 0.7874015748031497
        },
        {
          "duration": 0.4166666666666572,
          "durationTicks": 80,
          "midi": 39,
          "name": "D#2",
          "ticks": 31488,
          "time": 164,
          "velocity": 0.8661417322834646
        },
        {
          "duration": 0.125,
          "durationTicks": 24,
          "midi": 36,
          "name": "C2",
          "ticks": 31536,
          "time": 164.25,
          "velocity": 0.7874015748031497
        },
        {
          "duration": 0.25,
          "durationTicks": 48,
          "midi": 44,
          "name": "G#2",
          "ticks": 31536,
          "time": 164.25,
          "velocity": 0.7874015748031497
        },
        {
          "duration": 0.125,
          "durationTicks": 24,
          "midi": 36,
          "name": "C2",
          "ticks": 31560,
          "time": 164.375,
          "velocity": 0.7874015748031497
        },
        {
          "duration": 0.5,
          "durationTicks": 96,
          "midi": 38,
          "name": "D2",
          "ticks": 31584,
          "time": 164.5,
          "velocity": 0.7874015748031497
        },
        {
          "duration": 0.5,
          "durationTicks": 96,
          "midi": 51,
          "name": "D#3",
          "ticks": 31584,
          "time": 164.5,
          "velocity": 0.7874015748031497
        },
        {
          "duration": 0.5,
          "durationTicks": 96,
          "midi": 40,
          "name": "E2",
          "ticks": 31584,
          "time": 164.5,
          "velocity": 0.7874015748031497
        },
        {
          "duration": 0.4166666666666572,
          "durationTicks": 80,
          "midi": 39,
          "name": "D#2",
          "ticks": 31584,
          "time": 164.5,
          "velocity": 0.8661417322834646
        },
        {
          "duration": 0.4166666666666572,
          "durationTicks": 80,
          "midi": 39,
          "name": "D#2",
          "ticks": 31680,
          "time": 165,
          "velocity": 0.8661417322834646
        },
        {
          "duration": 0.5,
          "durationTicks": 96,
          "midi": 35,
          "name": "B1",
          "ticks": 31680,
          "time": 165,
          "velocity": 0.7874015748031497
        },
        {
          "duration": 0.5,
          "durationTicks": 96,
          "midi": 51,
          "name": "D#3",
          "ticks": 31680,
          "time": 165,
          "velocity": 0.7874015748031497
        },
        {
          "duration": 0.5,
          "durationTicks": 96,
          "midi": 38,
          "name": "D2",
          "ticks": 31776,
          "time": 165.5,
          "velocity": 0.7874015748031497
        },
        {
          "duration": 0.5,
          "durationTicks": 96,
          "midi": 46,
          "name": "A#2",
          "ticks": 31776,
          "time": 165.5,
          "velocity": 0.7874015748031497
        },
        {
          "duration": 0.5,
          "durationTicks": 96,
          "midi": 40,
          "name": "E2",
          "ticks": 31776,
          "time": 165.5,
          "velocity": 0.7874015748031497
        },
        {
          "duration": 0.4166666666666572,
          "durationTicks": 80,
          "midi": 39,
          "name": "D#2",
          "ticks": 31776,
          "time": 165.5,
          "velocity": 0.8661417322834646
        },
        {
          "duration": 0.4166666666666572,
          "durationTicks": 80,
          "midi": 39,
          "name": "D#2",
          "ticks": 31872,
          "time": 166,
          "velocity": 0.8661417322834646
        },
        {
          "duration": 0.25,
          "durationTicks": 48,
          "midi": 36,
          "name": "C2",
          "ticks": 31872,
          "time": 166,
          "velocity": 0.7874015748031497
        },
        {
          "duration": 0.25,
          "durationTicks": 48,
          "midi": 44,
          "name": "G#2",
          "ticks": 31872,
          "time": 166,
          "velocity": 0.7874015748031497
        },
        {
          "duration": 0.125,
          "durationTicks": 24,
          "midi": 36,
          "name": "C2",
          "ticks": 31920,
          "time": 166.25,
          "velocity": 0.7874015748031497
        },
        {
          "duration": 0.25,
          "durationTicks": 48,
          "midi": 44,
          "name": "G#2",
          "ticks": 31920,
          "time": 166.25,
          "velocity": 0.7874015748031497
        },
        {
          "duration": 0.125,
          "durationTicks": 24,
          "midi": 36,
          "name": "C2",
          "ticks": 31944,
          "time": 166.375,
          "velocity": 0.7874015748031497
        },
        {
          "duration": 0.5,
          "durationTicks": 96,
          "midi": 38,
          "name": "D2",
          "ticks": 31968,
          "time": 166.5,
          "velocity": 0.7874015748031497
        },
        {
          "duration": 0.5,
          "durationTicks": 96,
          "midi": 40,
          "name": "E2",
          "ticks": 31968,
          "time": 166.5,
          "velocity": 0.7874015748031497
        },
        {
          "duration": 0.5,
          "durationTicks": 96,
          "midi": 51,
          "name": "D#3",
          "ticks": 31968,
          "time": 166.5,
          "velocity": 0.7874015748031497
        },
        {
          "duration": 0.4166666666666572,
          "durationTicks": 80,
          "midi": 39,
          "name": "D#2",
          "ticks": 31968,
          "time": 166.5,
          "velocity": 0.8661417322834646
        },
        {
          "duration": 0.5,
          "durationTicks": 96,
          "midi": 35,
          "name": "B1",
          "ticks": 32064,
          "time": 167,
          "velocity": 0.7874015748031497
        },
        {
          "duration": 0.5,
          "durationTicks": 96,
          "midi": 51,
          "name": "D#3",
          "ticks": 32064,
          "time": 167,
          "velocity": 0.7874015748031497
        },
        {
          "duration": 0.4166666666666572,
          "durationTicks": 80,
          "midi": 39,
          "name": "D#2",
          "ticks": 32064,
          "time": 167,
          "velocity": 0.8661417322834646
        },
        {
          "duration": 0.5,
          "durationTicks": 96,
          "midi": 38,
          "name": "D2",
          "ticks": 32160,
          "time": 167.5,
          "velocity": 0.7874015748031497
        },
        {
          "duration": 0.5,
          "durationTicks": 96,
          "midi": 46,
          "name": "A#2",
          "ticks": 32160,
          "time": 167.5,
          "velocity": 0.7874015748031497
        },
        {
          "duration": 0.5,
          "durationTicks": 96,
          "midi": 40,
          "name": "E2",
          "ticks": 32160,
          "time": 167.5,
          "velocity": 0.7874015748031497
        },
        {
          "duration": 0.4166666666666572,
          "durationTicks": 80,
          "midi": 39,
          "name": "D#2",
          "ticks": 32160,
          "time": 167.5,
          "velocity": 0.8661417322834646
        },
        {
          "duration": 0.4166666666666572,
          "durationTicks": 80,
          "midi": 39,
          "name": "D#2",
          "ticks": 32256,
          "time": 168,
          "velocity": 0.8661417322834646
        },
        {
          "duration": 0.25,
          "durationTicks": 48,
          "midi": 36,
          "name": "C2",
          "ticks": 32256,
          "time": 168,
          "velocity": 0.7874015748031497
        },
        {
          "duration": 0.25,
          "durationTicks": 48,
          "midi": 44,
          "name": "G#2",
          "ticks": 32256,
          "time": 168,
          "velocity": 0.7874015748031497
        },
        {
          "duration": 0.125,
          "durationTicks": 24,
          "midi": 36,
          "name": "C2",
          "ticks": 32304,
          "time": 168.25,
          "velocity": 0.7874015748031497
        },
        {
          "duration": 0.25,
          "durationTicks": 48,
          "midi": 44,
          "name": "G#2",
          "ticks": 32304,
          "time": 168.25,
          "velocity": 0.7874015748031497
        },
        {
          "duration": 0.125,
          "durationTicks": 24,
          "midi": 36,
          "name": "C2",
          "ticks": 32328,
          "time": 168.375,
          "velocity": 0.7874015748031497
        },
        {
          "duration": 0.5,
          "durationTicks": 96,
          "midi": 38,
          "name": "D2",
          "ticks": 32352,
          "time": 168.5,
          "velocity": 0.7874015748031497
        },
        {
          "duration": 0.5,
          "durationTicks": 96,
          "midi": 51,
          "name": "D#3",
          "ticks": 32352,
          "time": 168.5,
          "velocity": 0.7874015748031497
        },
        {
          "duration": 0.5,
          "durationTicks": 96,
          "midi": 40,
          "name": "E2",
          "ticks": 32352,
          "time": 168.5,
          "velocity": 0.7874015748031497
        },
        {
          "duration": 0.4166666666666572,
          "durationTicks": 80,
          "midi": 39,
          "name": "D#2",
          "ticks": 32352,
          "time": 168.5,
          "velocity": 0.8661417322834646
        },
        {
          "duration": 0.5,
          "durationTicks": 96,
          "midi": 35,
          "name": "B1",
          "ticks": 32448,
          "time": 169,
          "velocity": 0.7874015748031497
        },
        {
          "duration": 0.5,
          "durationTicks": 96,
          "midi": 51,
          "name": "D#3",
          "ticks": 32448,
          "time": 169,
          "velocity": 0.7874015748031497
        },
        {
          "duration": 0.4166666666666572,
          "durationTicks": 80,
          "midi": 39,
          "name": "D#2",
          "ticks": 32448,
          "time": 169,
          "velocity": 0.8661417322834646
        },
        {
          "duration": 0.5,
          "durationTicks": 96,
          "midi": 38,
          "name": "D2",
          "ticks": 32544,
          "time": 169.5,
          "velocity": 0.7874015748031497
        },
        {
          "duration": 0.5,
          "durationTicks": 96,
          "midi": 40,
          "name": "E2",
          "ticks": 32544,
          "time": 169.5,
          "velocity": 0.7874015748031497
        },
        {
          "duration": 0.5,
          "durationTicks": 96,
          "midi": 46,
          "name": "A#2",
          "ticks": 32544,
          "time": 169.5,
          "velocity": 0.7874015748031497
        },
        {
          "duration": 0.4166666666666572,
          "durationTicks": 80,
          "midi": 39,
          "name": "D#2",
          "ticks": 32544,
          "time": 169.5,
          "velocity": 0.8661417322834646
        },
        {
          "duration": 0.4166666666666572,
          "durationTicks": 80,
          "midi": 39,
          "name": "D#2",
          "ticks": 32640,
          "time": 170,
          "velocity": 0.8661417322834646
        },
        {
          "duration": 0.25,
          "durationTicks": 48,
          "midi": 36,
          "name": "C2",
          "ticks": 32640,
          "time": 170,
          "velocity": 0.7874015748031497
        },
        {
          "duration": 0.25,
          "durationTicks": 48,
          "midi": 44,
          "name": "G#2",
          "ticks": 32640,
          "time": 170,
          "velocity": 0.7874015748031497
        },
        {
          "duration": 0.125,
          "durationTicks": 24,
          "midi": 36,
          "name": "C2",
          "ticks": 32688,
          "time": 170.25,
          "velocity": 0.7874015748031497
        },
        {
          "duration": 0.25,
          "durationTicks": 48,
          "midi": 44,
          "name": "G#2",
          "ticks": 32688,
          "time": 170.25,
          "velocity": 0.7874015748031497
        },
        {
          "duration": 0.125,
          "durationTicks": 24,
          "midi": 36,
          "name": "C2",
          "ticks": 32712,
          "time": 170.375,
          "velocity": 0.7874015748031497
        },
        {
          "duration": 0.5,
          "durationTicks": 96,
          "midi": 38,
          "name": "D2",
          "ticks": 32736,
          "time": 170.5,
          "velocity": 0.7874015748031497
        },
        {
          "duration": 0.5,
          "durationTicks": 96,
          "midi": 40,
          "name": "E2",
          "ticks": 32736,
          "time": 170.5,
          "velocity": 0.7874015748031497
        },
        {
          "duration": 0.5,
          "durationTicks": 96,
          "midi": 51,
          "name": "D#3",
          "ticks": 32736,
          "time": 170.5,
          "velocity": 0.7874015748031497
        },
        {
          "duration": 0.4166666666666572,
          "durationTicks": 80,
          "midi": 39,
          "name": "D#2",
          "ticks": 32736,
          "time": 170.5,
          "velocity": 0.8661417322834646
        },
        {
          "duration": 0.5,
          "durationTicks": 96,
          "midi": 51,
          "name": "D#3",
          "ticks": 32832,
          "time": 171,
          "velocity": 0.7874015748031497
        },
        {
          "duration": 0.4166666666666572,
          "durationTicks": 80,
          "midi": 39,
          "name": "D#2",
          "ticks": 32832,
          "time": 171,
          "velocity": 0.8661417322834646
        },
        {
          "duration": 0.5,
          "durationTicks": 96,
          "midi": 35,
          "name": "B1",
          "ticks": 32832,
          "time": 171,
          "velocity": 0.7874015748031497
        },
        {
          "duration": 0.5,
          "durationTicks": 96,
          "midi": 38,
          "name": "D2",
          "ticks": 32928,
          "time": 171.5,
          "velocity": 0.7874015748031497
        },
        {
          "duration": 0.4166666666666572,
          "durationTicks": 80,
          "midi": 39,
          "name": "D#2",
          "ticks": 32928,
          "time": 171.5,
          "velocity": 0.8661417322834646
        },
        {
          "duration": 0.5,
          "durationTicks": 96,
          "midi": 46,
          "name": "A#2",
          "ticks": 32928,
          "time": 171.5,
          "velocity": 0.7874015748031497
        },
        {
          "duration": 0.5,
          "durationTicks": 96,
          "midi": 40,
          "name": "E2",
          "ticks": 32928,
          "time": 171.5,
          "velocity": 0.7874015748031497
        },
        {
          "duration": 0.4166666666666572,
          "durationTicks": 80,
          "midi": 39,
          "name": "D#2",
          "ticks": 33024,
          "time": 172,
          "velocity": 0.8661417322834646
        },
        {
          "duration": 0.25,
          "durationTicks": 48,
          "midi": 36,
          "name": "C2",
          "ticks": 33024,
          "time": 172,
          "velocity": 0.7874015748031497
        },
        {
          "duration": 0.25,
          "durationTicks": 48,
          "midi": 44,
          "name": "G#2",
          "ticks": 33024,
          "time": 172,
          "velocity": 0.7874015748031497
        },
        {
          "duration": 0.125,
          "durationTicks": 24,
          "midi": 36,
          "name": "C2",
          "ticks": 33072,
          "time": 172.25,
          "velocity": 0.7874015748031497
        },
        {
          "duration": 0.25,
          "durationTicks": 48,
          "midi": 44,
          "name": "G#2",
          "ticks": 33072,
          "time": 172.25,
          "velocity": 0.7874015748031497
        },
        {
          "duration": 0.125,
          "durationTicks": 24,
          "midi": 36,
          "name": "C2",
          "ticks": 33096,
          "time": 172.375,
          "velocity": 0.7874015748031497
        },
        {
          "duration": 0.5,
          "durationTicks": 96,
          "midi": 38,
          "name": "D2",
          "ticks": 33120,
          "time": 172.5,
          "velocity": 0.7874015748031497
        },
        {
          "duration": 0.5,
          "durationTicks": 96,
          "midi": 51,
          "name": "D#3",
          "ticks": 33120,
          "time": 172.5,
          "velocity": 0.7874015748031497
        },
        {
          "duration": 0.5,
          "durationTicks": 96,
          "midi": 40,
          "name": "E2",
          "ticks": 33120,
          "time": 172.5,
          "velocity": 0.7874015748031497
        },
        {
          "duration": 0.4166666666666572,
          "durationTicks": 80,
          "midi": 39,
          "name": "D#2",
          "ticks": 33120,
          "time": 172.5,
          "velocity": 0.8661417322834646
        },
        {
          "duration": 0.5,
          "durationTicks": 96,
          "midi": 51,
          "name": "D#3",
          "ticks": 33216,
          "time": 173,
          "velocity": 0.7874015748031497
        },
        {
          "duration": 0.4166666666666572,
          "durationTicks": 80,
          "midi": 39,
          "name": "D#2",
          "ticks": 33216,
          "time": 173,
          "velocity": 0.8661417322834646
        },
        {
          "duration": 0.5,
          "durationTicks": 96,
          "midi": 35,
          "name": "B1",
          "ticks": 33216,
          "time": 173,
          "velocity": 0.7874015748031497
        },
        {
          "duration": 0.5,
          "durationTicks": 96,
          "midi": 38,
          "name": "D2",
          "ticks": 33312,
          "time": 173.5,
          "velocity": 0.7874015748031497
        },
        {
          "duration": 0.4166666666666572,
          "durationTicks": 80,
          "midi": 39,
          "name": "D#2",
          "ticks": 33312,
          "time": 173.5,
          "velocity": 0.8661417322834646
        },
        {
          "duration": 0.5,
          "durationTicks": 96,
          "midi": 40,
          "name": "E2",
          "ticks": 33312,
          "time": 173.5,
          "velocity": 0.7874015748031497
        },
        {
          "duration": 0.5,
          "durationTicks": 96,
          "midi": 46,
          "name": "A#2",
          "ticks": 33312,
          "time": 173.5,
          "velocity": 0.7874015748031497
        },
        {
          "duration": 0.4166666666666572,
          "durationTicks": 80,
          "midi": 39,
          "name": "D#2",
          "ticks": 33408,
          "time": 174,
          "velocity": 0.8661417322834646
        },
        {
          "duration": 0.25,
          "durationTicks": 48,
          "midi": 36,
          "name": "C2",
          "ticks": 33408,
          "time": 174,
          "velocity": 0.7874015748031497
        },
        {
          "duration": 0.25,
          "durationTicks": 48,
          "midi": 44,
          "name": "G#2",
          "ticks": 33408,
          "time": 174,
          "velocity": 0.7874015748031497
        },
        {
          "duration": 0.125,
          "durationTicks": 24,
          "midi": 36,
          "name": "C2",
          "ticks": 33456,
          "time": 174.25,
          "velocity": 0.7874015748031497
        },
        {
          "duration": 0.25,
          "durationTicks": 48,
          "midi": 44,
          "name": "G#2",
          "ticks": 33456,
          "time": 174.25,
          "velocity": 0.7874015748031497
        },
        {
          "duration": 0.125,
          "durationTicks": 24,
          "midi": 36,
          "name": "C2",
          "ticks": 33480,
          "time": 174.375,
          "velocity": 0.7874015748031497
        },
        {
          "duration": 0.5,
          "durationTicks": 96,
          "midi": 38,
          "name": "D2",
          "ticks": 33504,
          "time": 174.5,
          "velocity": 0.7874015748031497
        },
        {
          "duration": 0.5,
          "durationTicks": 96,
          "midi": 51,
          "name": "D#3",
          "ticks": 33504,
          "time": 174.5,
          "velocity": 0.7874015748031497
        },
        {
          "duration": 0.5,
          "durationTicks": 96,
          "midi": 40,
          "name": "E2",
          "ticks": 33504,
          "time": 174.5,
          "velocity": 0.7874015748031497
        },
        {
          "duration": 0.4166666666666572,
          "durationTicks": 80,
          "midi": 39,
          "name": "D#2",
          "ticks": 33504,
          "time": 174.5,
          "velocity": 0.8661417322834646
        },
        {
          "duration": 0.5,
          "durationTicks": 96,
          "midi": 51,
          "name": "D#3",
          "ticks": 33600,
          "time": 175,
          "velocity": 0.7874015748031497
        },
        {
          "duration": 0.4166666666666572,
          "durationTicks": 80,
          "midi": 39,
          "name": "D#2",
          "ticks": 33600,
          "time": 175,
          "velocity": 0.8661417322834646
        },
        {
          "duration": 0.5,
          "durationTicks": 96,
          "midi": 35,
          "name": "B1",
          "ticks": 33600,
          "time": 175,
          "velocity": 0.7874015748031497
        },
        {
          "duration": 0.5,
          "durationTicks": 96,
          "midi": 38,
          "name": "D2",
          "ticks": 33696,
          "time": 175.5,
          "velocity": 0.7874015748031497
        },
        {
          "duration": 0.4166666666666572,
          "durationTicks": 80,
          "midi": 39,
          "name": "D#2",
          "ticks": 33696,
          "time": 175.5,
          "velocity": 0.8661417322834646
        },
        {
          "duration": 0.5,
          "durationTicks": 96,
          "midi": 46,
          "name": "A#2",
          "ticks": 33696,
          "time": 175.5,
          "velocity": 0.7874015748031497
        },
        {
          "duration": 0.5,
          "durationTicks": 96,
          "midi": 40,
          "name": "E2",
          "ticks": 33696,
          "time": 175.5,
          "velocity": 0.7874015748031497
        },
        {
          "duration": 0.5,
          "durationTicks": 96,
          "midi": 39,
          "name": "D#2",
          "ticks": 33792,
          "time": 176,
          "velocity": 0.7874015748031497
        },
        {
          "duration": 0.25,
          "durationTicks": 48,
          "midi": 36,
          "name": "C2",
          "ticks": 33792,
          "time": 176,
          "velocity": 0.7874015748031497
        },
        {
          "duration": 0.25,
          "durationTicks": 48,
          "midi": 44,
          "name": "G#2",
          "ticks": 33792,
          "time": 176,
          "velocity": 0.7874015748031497
        },
        {
          "duration": 0.125,
          "durationTicks": 24,
          "midi": 36,
          "name": "C2",
          "ticks": 33840,
          "time": 176.25,
          "velocity": 0.7874015748031497
        },
        {
          "duration": 0.25,
          "durationTicks": 48,
          "midi": 44,
          "name": "G#2",
          "ticks": 33840,
          "time": 176.25,
          "velocity": 0.7874015748031497
        },
        {
          "duration": 0.125,
          "durationTicks": 24,
          "midi": 36,
          "name": "C2",
          "ticks": 33864,
          "time": 176.375,
          "velocity": 0.7874015748031497
        },
        {
          "duration": 0.5,
          "durationTicks": 96,
          "midi": 40,
          "name": "E2",
          "ticks": 33888,
          "time": 176.5,
          "velocity": 0.7874015748031497
        },
        {
          "duration": 0.5,
          "durationTicks": 96,
          "midi": 51,
          "name": "D#3",
          "ticks": 33888,
          "time": 176.5,
          "velocity": 0.7874015748031497
        },
        {
          "duration": 0.5,
          "durationTicks": 96,
          "midi": 39,
          "name": "D#2",
          "ticks": 33888,
          "time": 176.5,
          "velocity": 0.7874015748031497
        },
        {
          "duration": 0.5,
          "durationTicks": 96,
          "midi": 38,
          "name": "D2",
          "ticks": 33888,
          "time": 176.5,
          "velocity": 0.7874015748031497
        },
        {
          "duration": 0.5,
          "durationTicks": 96,
          "midi": 49,
          "name": "C#3",
          "ticks": 33984,
          "time": 177,
          "velocity": 0.7874015748031497
        }
      ]
    },
    {
      "channel": 0,
      "controlChanges": {
        "6": [
          {
            "number": 6,
            "ticks": 0,
            "time": 0,
            "value": 0.09448818897637795
          },
          {
            "number": 6,
            "ticks": 0,
            "time": 0,
            "value": 0.09448818897637795
          },
          {
            "number": 6,
            "ticks": 0,
            "time": 0,
            "value": 0.09448818897637795
          }
        ],
        "7": [
          {
            "number": 7,
            "ticks": 0,
            "time": 0,
            "value": 1
          },
          {
            "number": 7,
            "ticks": 0,
            "time": 0,
            "value": 1
          },
          {
            "number": 7,
            "ticks": 0,
            "time": 0,
            "value": 1
          },
          {
            "number": 7,
            "ticks": 0,
            "time": 0,
            "value": 1
          },
          {
            "number": 7,
            "ticks": 0,
            "time": 0,
            "value": 1
          },
          {
            "number": 7,
            "ticks": 0,
            "time": 0,
            "value": 1
          }
        ],
        "10": [
          {
            "number": 10,
            "ticks": 0,
            "time": 0,
            "value": 0.5039370078740157
          },
          {
            "number": 10,
            "ticks": 0,
            "time": 0,
            "value": 0.5039370078740157
          },
          {
            "number": 10,
            "ticks": 0,
            "time": 0,
            "value": 0.5039370078740157
          },
          {
            "number": 10,
            "ticks": 0,
            "time": 0,
            "value": 0.5039370078740157
          },
          {
            "number": 10,
            "ticks": 0,
            "time": 0,
            "value": 0.5039370078740157
          },
          {
            "number": 10,
            "ticks": 0,
            "time": 0,
            "value": 0.5039370078740157
          }
        ],
        "100": [
          {
            "number": 100,
            "ticks": 0,
            "time": 0,
            "value": 0
          },
          {
            "number": 100,
            "ticks": 0,
            "time": 0,
            "value": 0
          },
          {
            "number": 100,
            "ticks": 0,
            "time": 0,
            "value": 0
          }
        ],
        "101": [
          {
            "number": 101,
            "ticks": 0,
            "time": 0,
            "value": 0
          },
          {
            "number": 101,
            "ticks": 0,
            "time": 0,
            "value": 0
          },
          {
            "number": 101,
            "ticks": 0,
            "time": 0,
            "value": 0
          }
        ]
      },
      "pitchBends": [
        {
          "ticks": 0,
          "time": 0,
          "value": 0
        },
        {
          "ticks": 0,
          "time": 0,
          "value": 0
        },
        {
          "ticks": 0,
          "time": 0,
          "value": 0
        },
        {
          "ticks": 0,
          "time": 0,
          "value": 0
        }
      ],
      "instrument": {
        "family": "piano",
        "number": 0,
        "name": "acoustic grand piano"
      },
      "name": "Bass & Lead",
      "notes": [],
      "endOfTrackTicks": 34195
    },
    {
      "channel": 4,
      "controlChanges": {
        "6": [
          {
            "number": 6,
            "ticks": 34176,
            "time": 178,
            "value": 0.09448818897637795
          },
          {
            "number": 6,
            "ticks": 34177,
            "time": 178.00520833333334,
            "value": 0.09448818897637795
          }
        ],
        "7": [
          {
            "number": 7,
            "ticks": 34176,
            "time": 178,
            "value": 1
          },
          {
            "number": 7,
            "ticks": 34176,
            "time": 178,
            "value": 1
          },
          {
            "number": 7,
            "ticks": 34177,
            "time": 178.00520833333334,
            "value": 1
          }
        ],
        "10": [
          {
            "number": 10,
            "ticks": 34176,
            "time": 178,
            "value": 0.5039370078740157
          },
          {
            "number": 10,
            "ticks": 34176,
            "time": 178,
            "value": 0.5039370078740157
          },
          {
            "number": 10,
            "ticks": 34177,
            "time": 178.00520833333334,
            "value": 0.5039370078740157
          }
        ],
        "100": [
          {
            "number": 100,
            "ticks": 34176,
            "time": 178,
            "value": 0
          },
          {
            "number": 100,
            "ticks": 34177,
            "time": 178.00520833333334,
            "value": 0
          }
        ],
        "101": [
          {
            "number": 101,
            "ticks": 34176,
            "time": 178,
            "value": 0
          },
          {
            "number": 101,
            "ticks": 34177,
            "time": 178.00520833333334,
            "value": 0
          }
        ]
      },
      "pitchBends": [
        {
          "ticks": 34176,
          "time": 178,
          "value": 0
        },
        {
          "ticks": 34177,
          "time": 178.00520833333334,
          "value": 0
        }
      ],
      "instrument": {
        "family": "synth lead",
        "number": 87,
        "name": "lead 8 (bass + lead)"
      },
      "name": "",
      "notes": [
        {
          "duration": 1,
          "durationTicks": 192,
          "midi": 36,
          "name": "C2",
          "ticks": 192,
          "time": 1,
          "velocity": 0.8661417322834646
        },
        {
          "duration": 1,
          "durationTicks": 192,
          "midi": 32,
          "name": "G#1",
          "ticks": 384,
          "time": 2,
          "velocity": 0.8661417322834646
        },
        {
          "duration": 1,
          "durationTicks": 192,
          "midi": 39,
          "name": "D#2",
          "ticks": 576,
          "time": 3,
          "velocity": 0.8661417322834646
        },
        {
          "duration": 1,
          "durationTicks": 192,
          "midi": 34,
          "name": "A#1",
          "ticks": 768,
          "time": 4,
          "velocity": 0.8661417322834646
        },
        {
          "duration": 1,
          "durationTicks": 192,
          "midi": 36,
          "name": "C2",
          "ticks": 960,
          "time": 5,
          "velocity": 0.8661417322834646
        },
        {
          "duration": 1,
          "durationTicks": 192,
          "midi": 32,
          "name": "G#1",
          "ticks": 1152,
          "time": 6,
          "velocity": 0.8661417322834646
        },
        {
          "duration": 1,
          "durationTicks": 192,
          "midi": 39,
          "name": "D#2",
          "ticks": 1344,
          "time": 7,
          "velocity": 0.8661417322834646
        },
        {
          "duration": 1,
          "durationTicks": 192,
          "midi": 34,
          "name": "A#1",
          "ticks": 1536,
          "time": 8,
          "velocity": 0.8661417322834646
        },
        {
          "duration": 1,
          "durationTicks": 192,
          "midi": 36,
          "name": "C2",
          "ticks": 1728,
          "time": 9,
          "velocity": 0.8661417322834646
        },
        {
          "duration": 1,
          "durationTicks": 192,
          "midi": 32,
          "name": "G#1",
          "ticks": 1920,
          "time": 10,
          "velocity": 0.8661417322834646
        },
        {
          "duration": 1,
          "durationTicks": 192,
          "midi": 39,
          "name": "D#2",
          "ticks": 2112,
          "time": 11,
          "velocity": 0.8661417322834646
        },
        {
          "duration": 1,
          "durationTicks": 192,
          "midi": 34,
          "name": "A#1",
          "ticks": 2304,
          "time": 12,
          "velocity": 0.8661417322834646
        },
        {
          "duration": 1,
          "durationTicks": 192,
          "midi": 36,
          "name": "C2",
          "ticks": 2496,
          "time": 13,
          "velocity": 0.8661417322834646
        },
        {
          "duration": 1,
          "durationTicks": 192,
          "midi": 32,
          "name": "G#1",
          "ticks": 2688,
          "time": 14,
          "velocity": 0.8661417322834646
        },
        {
          "duration": 1,
          "durationTicks": 192,
          "midi": 39,
          "name": "D#2",
          "ticks": 2880,
          "time": 15,
          "velocity": 0.8661417322834646
        },
        {
          "duration": 1,
          "durationTicks": 192,
          "midi": 34,
          "name": "A#1",
          "ticks": 3072,
          "time": 16,
          "velocity": 0.8661417322834646
        },
        {
          "duration": 1,
          "durationTicks": 192,
          "midi": 36,
          "name": "C2",
          "ticks": 3264,
          "time": 17,
          "velocity": 0.8661417322834646
        },
        {
          "duration": 1,
          "durationTicks": 192,
          "midi": 32,
          "name": "G#1",
          "ticks": 3456,
          "time": 18,
          "velocity": 0.8661417322834646
        },
        {
          "duration": 1,
          "durationTicks": 192,
          "midi": 39,
          "name": "D#2",
          "ticks": 3648,
          "time": 19,
          "velocity": 0.8661417322834646
        },
        {
          "duration": 1,
          "durationTicks": 192,
          "midi": 34,
          "name": "A#1",
          "ticks": 3840,
          "time": 20,
          "velocity": 0.8661417322834646
        },
        {
          "duration": 1,
          "durationTicks": 192,
          "midi": 36,
          "name": "C2",
          "ticks": 4032,
          "time": 21,
          "velocity": 0.8661417322834646
        },
        {
          "duration": 1,
          "durationTicks": 192,
          "midi": 32,
          "name": "G#1",
          "ticks": 4224,
          "time": 22,
          "velocity": 0.8661417322834646
        },
        {
          "duration": 1,
          "durationTicks": 192,
          "midi": 39,
          "name": "D#2",
          "ticks": 4416,
          "time": 23,
          "velocity": 0.8661417322834646
        },
        {
          "duration": 1,
          "durationTicks": 192,
          "midi": 34,
          "name": "A#1",
          "ticks": 4608,
          "time": 24,
          "velocity": 0.8661417322834646
        },
        {
          "duration": 1,
          "durationTicks": 192,
          "midi": 36,
          "name": "C2",
          "ticks": 4800,
          "time": 25,
          "velocity": 0.8661417322834646
        },
        {
          "duration": 1,
          "durationTicks": 192,
          "midi": 32,
          "name": "G#1",
          "ticks": 4992,
          "time": 26,
          "velocity": 0.8661417322834646
        },
        {
          "duration": 1,
          "durationTicks": 192,
          "midi": 39,
          "name": "D#2",
          "ticks": 5184,
          "time": 27,
          "velocity": 0.8661417322834646
        },
        {
          "duration": 1,
          "durationTicks": 192,
          "midi": 34,
          "name": "A#1",
          "ticks": 5376,
          "time": 28,
          "velocity": 0.8661417322834646
        },
        {
          "duration": 1,
          "durationTicks": 192,
          "midi": 36,
          "name": "C2",
          "ticks": 5568,
          "time": 29,
          "velocity": 0.8661417322834646
        },
        {
          "duration": 1,
          "durationTicks": 192,
          "midi": 32,
          "name": "G#1",
          "ticks": 5760,
          "time": 30,
          "velocity": 0.8661417322834646
        },
        {
          "duration": 1,
          "durationTicks": 192,
          "midi": 39,
          "name": "D#2",
          "ticks": 5952,
          "time": 31,
          "velocity": 0.8661417322834646
        },
        {
          "duration": 1,
          "durationTicks": 192,
          "midi": 34,
          "name": "A#1",
          "ticks": 6144,
          "time": 32,
          "velocity": 0.8661417322834646
        },
        {
          "duration": 1,
          "durationTicks": 192,
          "midi": 36,
          "name": "C2",
          "ticks": 6336,
          "time": 33,
          "velocity": 0.8661417322834646
        },
        {
          "duration": 1,
          "durationTicks": 192,
          "midi": 32,
          "name": "G#1",
          "ticks": 6528,
          "time": 34,
          "velocity": 0.8661417322834646
        },
        {
          "duration": 1,
          "durationTicks": 192,
          "midi": 39,
          "name": "D#2",
          "ticks": 6720,
          "time": 35,
          "velocity": 0.8661417322834646
        },
        {
          "duration": 1,
          "durationTicks": 192,
          "midi": 34,
          "name": "A#1",
          "ticks": 6912,
          "time": 36,
          "velocity": 0.8661417322834646
        },
        {
          "duration": 1,
          "durationTicks": 192,
          "midi": 36,
          "name": "C2",
          "ticks": 7104,
          "time": 37,
          "velocity": 0.8661417322834646
        },
        {
          "duration": 1,
          "durationTicks": 192,
          "midi": 32,
          "name": "G#1",
          "ticks": 7296,
          "time": 38,
          "velocity": 0.8661417322834646
        },
        {
          "duration": 1,
          "durationTicks": 192,
          "midi": 39,
          "name": "D#2",
          "ticks": 7488,
          "time": 39,
          "velocity": 0.8661417322834646
        },
        {
          "duration": 1,
          "durationTicks": 192,
          "midi": 34,
          "name": "A#1",
          "ticks": 7680,
          "time": 40,
          "velocity": 0.8661417322834646
        },
        {
          "duration": 1,
          "durationTicks": 192,
          "midi": 36,
          "name": "C2",
          "ticks": 7872,
          "time": 41,
          "velocity": 0.8661417322834646
        },
        {
          "duration": 1,
          "durationTicks": 192,
          "midi": 32,
          "name": "G#1",
          "ticks": 8064,
          "time": 42,
          "velocity": 0.8661417322834646
        },
        {
          "duration": 1,
          "durationTicks": 192,
          "midi": 39,
          "name": "D#2",
          "ticks": 8256,
          "time": 43,
          "velocity": 0.8661417322834646
        },
        {
          "duration": 1,
          "durationTicks": 192,
          "midi": 34,
          "name": "A#1",
          "ticks": 8448,
          "time": 44,
          "velocity": 0.8661417322834646
        },
        {
          "duration": 1,
          "durationTicks": 192,
          "midi": 36,
          "name": "C2",
          "ticks": 8640,
          "time": 45,
          "velocity": 0.8661417322834646
        },
        {
          "duration": 1,
          "durationTicks": 192,
          "midi": 32,
          "name": "G#1",
          "ticks": 8832,
          "time": 46,
          "velocity": 0.8661417322834646
        },
        {
          "duration": 1,
          "durationTicks": 192,
          "midi": 39,
          "name": "D#2",
          "ticks": 9024,
          "time": 47,
          "velocity": 0.8661417322834646
        },
        {
          "duration": 1,
          "durationTicks": 192,
          "midi": 34,
          "name": "A#1",
          "ticks": 9216,
          "time": 48,
          "velocity": 0.8661417322834646
        },
        {
          "duration": 1,
          "durationTicks": 192,
          "midi": 36,
          "name": "C2",
          "ticks": 9408,
          "time": 49,
          "velocity": 0.8661417322834646
        },
        {
          "duration": 1,
          "durationTicks": 192,
          "midi": 32,
          "name": "G#1",
          "ticks": 9600,
          "time": 50,
          "velocity": 0.8661417322834646
        },
        {
          "duration": 1,
          "durationTicks": 192,
          "midi": 39,
          "name": "D#2",
          "ticks": 9792,
          "time": 51,
          "velocity": 0.8661417322834646
        },
        {
          "duration": 1,
          "durationTicks": 192,
          "midi": 34,
          "name": "A#1",
          "ticks": 9984,
          "time": 52,
          "velocity": 0.8661417322834646
        },
        {
          "duration": 1,
          "durationTicks": 192,
          "midi": 36,
          "name": "C2",
          "ticks": 10176,
          "time": 53,
          "velocity": 0.8661417322834646
        },
        {
          "duration": 1,
          "durationTicks": 192,
          "midi": 32,
          "name": "G#1",
          "ticks": 10368,
          "time": 54,
          "velocity": 0.8661417322834646
        },
        {
          "duration": 1,
          "durationTicks": 192,
          "midi": 39,
          "name": "D#2",
          "ticks": 10560,
          "time": 55,
          "velocity": 0.8661417322834646
        },
        {
          "duration": 1,
          "durationTicks": 192,
          "midi": 34,
          "name": "A#1",
          "ticks": 10752,
          "time": 56,
          "velocity": 0.8661417322834646
        },
        {
          "duration": 1,
          "durationTicks": 192,
          "midi": 36,
          "name": "C2",
          "ticks": 10944,
          "time": 57,
          "velocity": 0.8661417322834646
        },
        {
          "duration": 1,
          "durationTicks": 192,
          "midi": 32,
          "name": "G#1",
          "ticks": 11136,
          "time": 58,
          "velocity": 0.8661417322834646
        },
        {
          "duration": 1,
          "durationTicks": 192,
          "midi": 39,
          "name": "D#2",
          "ticks": 11328,
          "time": 59,
          "velocity": 0.8661417322834646
        },
        {
          "duration": 1,
          "durationTicks": 192,
          "midi": 34,
          "name": "A#1",
          "ticks": 11520,
          "time": 60,
          "velocity": 0.8661417322834646
        },
        {
          "duration": 1,
          "durationTicks": 192,
          "midi": 36,
          "name": "C2",
          "ticks": 11712,
          "time": 61,
          "velocity": 0.8661417322834646
        },
        {
          "duration": 1,
          "durationTicks": 192,
          "midi": 32,
          "name": "G#1",
          "ticks": 11904,
          "time": 62,
          "velocity": 0.8661417322834646
        },
        {
          "duration": 1,
          "durationTicks": 192,
          "midi": 39,
          "name": "D#2",
          "ticks": 12096,
          "time": 63,
          "velocity": 0.8661417322834646
        },
        {
          "duration": 1,
          "durationTicks": 192,
          "midi": 34,
          "name": "A#1",
          "ticks": 12288,
          "time": 64,
          "velocity": 0.8661417322834646
        },
        {
          "duration": 1,
          "durationTicks": 192,
          "midi": 36,
          "name": "C2",
          "ticks": 12480,
          "time": 65,
          "velocity": 0.8661417322834646
        },
        {
          "duration": 1,
          "durationTicks": 192,
          "midi": 32,
          "name": "G#1",
          "ticks": 12672,
          "time": 66,
          "velocity": 0.8661417322834646
        },
        {
          "duration": 1,
          "durationTicks": 192,
          "midi": 39,
          "name": "D#2",
          "ticks": 12864,
          "time": 67,
          "velocity": 0.8661417322834646
        },
        {
          "duration": 1,
          "durationTicks": 192,
          "midi": 34,
          "name": "A#1",
          "ticks": 13056,
          "time": 68,
          "velocity": 0.8661417322834646
        },
        {
          "duration": 1,
          "durationTicks": 192,
          "midi": 36,
          "name": "C2",
          "ticks": 13248,
          "time": 69,
          "velocity": 0.8661417322834646
        },
        {
          "duration": 1,
          "durationTicks": 192,
          "midi": 32,
          "name": "G#1",
          "ticks": 13440,
          "time": 70,
          "velocity": 0.8661417322834646
        },
        {
          "duration": 1,
          "durationTicks": 192,
          "midi": 39,
          "name": "D#2",
          "ticks": 13632,
          "time": 71,
          "velocity": 0.8661417322834646
        },
        {
          "duration": 1,
          "durationTicks": 192,
          "midi": 34,
          "name": "A#1",
          "ticks": 13824,
          "time": 72,
          "velocity": 0.8661417322834646
        },
        {
          "duration": 1,
          "durationTicks": 192,
          "midi": 36,
          "name": "C2",
          "ticks": 14016,
          "time": 73,
          "velocity": 0.8661417322834646
        },
        {
          "duration": 1,
          "durationTicks": 192,
          "midi": 32,
          "name": "G#1",
          "ticks": 14208,
          "time": 74,
          "velocity": 0.8661417322834646
        },
        {
          "duration": 1,
          "durationTicks": 192,
          "midi": 39,
          "name": "D#2",
          "ticks": 14400,
          "time": 75,
          "velocity": 0.8661417322834646
        },
        {
          "duration": 1,
          "durationTicks": 192,
          "midi": 34,
          "name": "A#1",
          "ticks": 14592,
          "time": 76,
          "velocity": 0.8661417322834646
        },
        {
          "duration": 1,
          "durationTicks": 192,
          "midi": 36,
          "name": "C2",
          "ticks": 14784,
          "time": 77,
          "velocity": 0.8661417322834646
        },
        {
          "duration": 1,
          "durationTicks": 192,
          "midi": 32,
          "name": "G#1",
          "ticks": 14976,
          "time": 78,
          "velocity": 0.8661417322834646
        },
        {
          "duration": 1,
          "durationTicks": 192,
          "midi": 39,
          "name": "D#2",
          "ticks": 15168,
          "time": 79,
          "velocity": 0.8661417322834646
        },
        {
          "duration": 1,
          "durationTicks": 192,
          "midi": 34,
          "name": "A#1",
          "ticks": 15360,
          "time": 80,
          "velocity": 0.8661417322834646
        },
        {
          "duration": 1,
          "durationTicks": 192,
          "midi": 36,
          "name": "C2",
          "ticks": 15552,
          "time": 81,
          "velocity": 0.8661417322834646
        },
        {
          "duration": 1,
          "durationTicks": 192,
          "midi": 32,
          "name": "G#1",
          "ticks": 15744,
          "time": 82,
          "velocity": 0.8661417322834646
        },
        {
          "duration": 1,
          "durationTicks": 192,
          "midi": 39,
          "name": "D#2",
          "ticks": 15936,
          "time": 83,
          "velocity": 0.8661417322834646
        },
        {
          "duration": 1,
          "durationTicks": 192,
          "midi": 34,
          "name": "A#1",
          "ticks": 16128,
          "time": 84,
          "velocity": 0.8661417322834646
        },
        {
          "duration": 1,
          "durationTicks": 192,
          "midi": 36,
          "name": "C2",
          "ticks": 16320,
          "time": 85,
          "velocity": 0.8661417322834646
        },
        {
          "duration": 1,
          "durationTicks": 192,
          "midi": 32,
          "name": "G#1",
          "ticks": 16512,
          "time": 86,
          "velocity": 0.8661417322834646
        },
        {
          "duration": 1,
          "durationTicks": 192,
          "midi": 39,
          "name": "D#2",
          "ticks": 16704,
          "time": 87,
          "velocity": 0.8661417322834646
        },
        {
          "duration": 1,
          "durationTicks": 192,
          "midi": 34,
          "name": "A#1",
          "ticks": 16896,
          "time": 88,
          "velocity": 0.8661417322834646
        },
        {
          "duration": 1,
          "durationTicks": 192,
          "midi": 36,
          "name": "C2",
          "ticks": 17088,
          "time": 89,
          "velocity": 0.8661417322834646
        },
        {
          "duration": 1,
          "durationTicks": 192,
          "midi": 32,
          "name": "G#1",
          "ticks": 17280,
          "time": 90,
          "velocity": 0.8661417322834646
        },
        {
          "duration": 1,
          "durationTicks": 192,
          "midi": 39,
          "name": "D#2",
          "ticks": 17472,
          "time": 91,
          "velocity": 0.8661417322834646
        },
        {
          "duration": 1,
          "durationTicks": 192,
          "midi": 34,
          "name": "A#1",
          "ticks": 17664,
          "time": 92,
          "velocity": 0.8661417322834646
        },
        {
          "duration": 2,
          "durationTicks": 384,
          "midi": 29,
          "name": "F1",
          "ticks": 17856,
          "time": 93,
          "velocity": 0.8661417322834646
        },
        {
          "duration": 2,
          "durationTicks": 384,
          "midi": 32,
          "name": "G#1",
          "ticks": 18240,
          "time": 95,
          "velocity": 0.8661417322834646
        },
        {
          "duration": 2,
          "durationTicks": 384,
          "midi": 39,
          "name": "D#2",
          "ticks": 18624,
          "time": 97,
          "velocity": 0.8661417322834646
        },
        {
          "duration": 2,
          "durationTicks": 384,
          "midi": 36,
          "name": "C2",
          "ticks": 19008,
          "time": 99,
          "velocity": 0.8661417322834646
        },
        {
          "duration": 2,
          "durationTicks": 384,
          "midi": 29,
          "name": "F1",
          "ticks": 19392,
          "time": 101,
          "velocity": 0.8661417322834646
        },
        {
          "duration": 2,
          "durationTicks": 384,
          "midi": 32,
          "name": "G#1",
          "ticks": 19776,
          "time": 103,
          "velocity": 0.8661417322834646
        },
        {
          "duration": 2,
          "durationTicks": 384,
          "midi": 36,
          "name": "C2",
          "ticks": 20160,
          "time": 105,
          "velocity": 0.8661417322834646
        },
        {
          "duration": 2,
          "durationTicks": 384,
          "midi": 34,
          "name": "A#1",
          "ticks": 20544,
          "time": 107,
          "velocity": 0.8661417322834646
        },
        {
          "duration": 1,
          "durationTicks": 192,
          "midi": 36,
          "name": "C2",
          "ticks": 20928,
          "time": 109,
          "velocity": 0.8661417322834646
        },
        {
          "duration": 1,
          "durationTicks": 192,
          "midi": 32,
          "name": "G#1",
          "ticks": 21120,
          "time": 110,
          "velocity": 0.8661417322834646
        },
        {
          "duration": 1,
          "durationTicks": 192,
          "midi": 39,
          "name": "D#2",
          "ticks": 21312,
          "time": 111,
          "velocity": 0.8661417322834646
        },
        {
          "duration": 1,
          "durationTicks": 192,
          "midi": 34,
          "name": "A#1",
          "ticks": 21504,
          "time": 112,
          "velocity": 0.8661417322834646
        },
        {
          "duration": 1,
          "durationTicks": 192,
          "midi": 36,
          "name": "C2",
          "ticks": 21696,
          "time": 113,
          "velocity": 0.8661417322834646
        },
        {
          "duration": 1,
          "durationTicks": 192,
          "midi": 32,
          "name": "G#1",
          "ticks": 21888,
          "time": 114,
          "velocity": 0.8661417322834646
        },
        {
          "duration": 1,
          "durationTicks": 192,
          "midi": 39,
          "name": "D#2",
          "ticks": 22080,
          "time": 115,
          "velocity": 0.8661417322834646
        },
        {
          "duration": 1,
          "durationTicks": 192,
          "midi": 34,
          "name": "A#1",
          "ticks": 22272,
          "time": 116,
          "velocity": 0.8661417322834646
        },
        {
          "duration": 1,
          "durationTicks": 192,
          "midi": 36,
          "name": "C2",
          "ticks": 22464,
          "time": 117,
          "velocity": 0.8661417322834646
        },
        {
          "duration": 1,
          "durationTicks": 192,
          "midi": 32,
          "name": "G#1",
          "ticks": 22656,
          "time": 118,
          "velocity": 0.8661417322834646
        },
        {
          "duration": 1,
          "durationTicks": 192,
          "midi": 39,
          "name": "D#2",
          "ticks": 22848,
          "time": 119,
          "velocity": 0.8661417322834646
        },
        {
          "duration": 1,
          "durationTicks": 192,
          "midi": 34,
          "name": "A#1",
          "ticks": 23040,
          "time": 120,
          "velocity": 0.8661417322834646
        },
        {
          "duration": 1,
          "durationTicks": 192,
          "midi": 36,
          "name": "C2",
          "ticks": 23232,
          "time": 121,
          "velocity": 0.8661417322834646
        },
        {
          "duration": 1,
          "durationTicks": 192,
          "midi": 32,
          "name": "G#1",
          "ticks": 23424,
          "time": 122,
          "velocity": 0.8661417322834646
        },
        {
          "duration": 1,
          "durationTicks": 192,
          "midi": 39,
          "name": "D#2",
          "ticks": 23616,
          "time": 123,
          "velocity": 0.8661417322834646
        },
        {
          "duration": 1,
          "durationTicks": 192,
          "midi": 34,
          "name": "A#1",
          "ticks": 23808,
          "time": 124,
          "velocity": 0.8661417322834646
        },
        {
          "duration": 1,
          "durationTicks": 192,
          "midi": 36,
          "name": "C2",
          "ticks": 24000,
          "time": 125,
          "velocity": 0.8661417322834646
        },
        {
          "duration": 1,
          "durationTicks": 192,
          "midi": 32,
          "name": "G#1",
          "ticks": 24192,
          "time": 126,
          "velocity": 0.8661417322834646
        },
        {
          "duration": 1,
          "durationTicks": 192,
          "midi": 39,
          "name": "D#2",
          "ticks": 24384,
          "time": 127,
          "velocity": 0.8661417322834646
        },
        {
          "duration": 1,
          "durationTicks": 192,
          "midi": 34,
          "name": "A#1",
          "ticks": 24576,
          "time": 128,
          "velocity": 0.8661417322834646
        },
        {
          "duration": 1,
          "durationTicks": 192,
          "midi": 36,
          "name": "C2",
          "ticks": 24768,
          "time": 129,
          "velocity": 0.8661417322834646
        },
        {
          "duration": 1,
          "durationTicks": 192,
          "midi": 32,
          "name": "G#1",
          "ticks": 24960,
          "time": 130,
          "velocity": 0.8661417322834646
        },
        {
          "duration": 1,
          "durationTicks": 192,
          "midi": 39,
          "name": "D#2",
          "ticks": 25152,
          "time": 131,
          "velocity": 0.8661417322834646
        },
        {
          "duration": 1,
          "durationTicks": 192,
          "midi": 34,
          "name": "A#1",
          "ticks": 25344,
          "time": 132,
          "velocity": 0.8661417322834646
        },
        {
          "duration": 1,
          "durationTicks": 192,
          "midi": 36,
          "name": "C2",
          "ticks": 25536,
          "time": 133,
          "velocity": 0.8661417322834646
        },
        {
          "duration": 1,
          "durationTicks": 192,
          "midi": 32,
          "name": "G#1",
          "ticks": 25728,
          "time": 134,
          "velocity": 0.8661417322834646
        },
        {
          "duration": 1,
          "durationTicks": 192,
          "midi": 39,
          "name": "D#2",
          "ticks": 25920,
          "time": 135,
          "velocity": 0.8661417322834646
        },
        {
          "duration": 1,
          "durationTicks": 192,
          "midi": 34,
          "name": "A#1",
          "ticks": 26112,
          "time": 136,
          "velocity": 0.8661417322834646
        },
        {
          "duration": 1,
          "durationTicks": 192,
          "midi": 36,
          "name": "C2",
          "ticks": 26304,
          "time": 137,
          "velocity": 0.8661417322834646
        },
        {
          "duration": 1,
          "durationTicks": 192,
          "midi": 32,
          "name": "G#1",
          "ticks": 26496,
          "time": 138,
          "velocity": 0.8661417322834646
        },
        {
          "duration": 1,
          "durationTicks": 192,
          "midi": 39,
          "name": "D#2",
          "ticks": 26688,
          "time": 139,
          "velocity": 0.8661417322834646
        },
        {
          "duration": 1,
          "durationTicks": 192,
          "midi": 34,
          "name": "A#1",
          "ticks": 26880,
          "time": 140,
          "velocity": 0.8661417322834646
        },
        {
          "duration": 1,
          "durationTicks": 192,
          "midi": 36,
          "name": "C2",
          "ticks": 27072,
          "time": 141,
          "velocity": 0.8661417322834646
        },
        {
          "duration": 1,
          "durationTicks": 192,
          "midi": 32,
          "name": "G#1",
          "ticks": 27264,
          "time": 142,
          "velocity": 0.8661417322834646
        },
        {
          "duration": 1,
          "durationTicks": 192,
          "midi": 39,
          "name": "D#2",
          "ticks": 27456,
          "time": 143,
          "velocity": 0.8661417322834646
        },
        {
          "duration": 1,
          "durationTicks": 192,
          "midi": 34,
          "name": "A#1",
          "ticks": 27648,
          "time": 144,
          "velocity": 0.8661417322834646
        },
        {
          "duration": 1,
          "durationTicks": 192,
          "midi": 36,
          "name": "C2",
          "ticks": 27840,
          "time": 145,
          "velocity": 0.8661417322834646
        },
        {
          "duration": 1,
          "durationTicks": 192,
          "midi": 32,
          "name": "G#1",
          "ticks": 28032,
          "time": 146,
          "velocity": 0.8661417322834646
        },
        {
          "duration": 1,
          "durationTicks": 192,
          "midi": 39,
          "name": "D#2",
          "ticks": 28224,
          "time": 147,
          "velocity": 0.8661417322834646
        },
        {
          "duration": 1,
          "durationTicks": 192,
          "midi": 34,
          "name": "A#1",
          "ticks": 28416,
          "time": 148,
          "velocity": 0.8661417322834646
        },
        {
          "duration": 1,
          "durationTicks": 192,
          "midi": 36,
          "name": "C2",
          "ticks": 28608,
          "time": 149,
          "velocity": 0.8661417322834646
        },
        {
          "duration": 1,
          "durationTicks": 192,
          "midi": 32,
          "name": "G#1",
          "ticks": 28800,
          "time": 150,
          "velocity": 0.8661417322834646
        },
        {
          "duration": 1,
          "durationTicks": 192,
          "midi": 39,
          "name": "D#2",
          "ticks": 28992,
          "time": 151,
          "velocity": 0.8661417322834646
        },
        {
          "duration": 1,
          "durationTicks": 192,
          "midi": 34,
          "name": "A#1",
          "ticks": 29184,
          "time": 152,
          "velocity": 0.8661417322834646
        },
        {
          "duration": 1,
          "durationTicks": 192,
          "midi": 36,
          "name": "C2",
          "ticks": 29376,
          "time": 153,
          "velocity": 0.8661417322834646
        },
        {
          "duration": 1,
          "durationTicks": 192,
          "midi": 32,
          "name": "G#1",
          "ticks": 29568,
          "time": 154,
          "velocity": 0.8661417322834646
        },
        {
          "duration": 1,
          "durationTicks": 192,
          "midi": 39,
          "name": "D#2",
          "ticks": 29760,
          "time": 155,
          "velocity": 0.8661417322834646
        },
        {
          "duration": 1,
          "durationTicks": 192,
          "midi": 34,
          "name": "A#1",
          "ticks": 29952,
          "time": 156,
          "velocity": 0.8661417322834646
        },
        {
          "duration": 1,
          "durationTicks": 192,
          "midi": 36,
          "name": "C2",
          "ticks": 30144,
          "time": 157,
          "velocity": 0.8661417322834646
        },
        {
          "duration": 1,
          "durationTicks": 192,
          "midi": 32,
          "name": "G#1",
          "ticks": 30336,
          "time": 158,
          "velocity": 0.8661417322834646
        },
        {
          "duration": 1,
          "durationTicks": 192,
          "midi": 39,
          "name": "D#2",
          "ticks": 30528,
          "time": 159,
          "velocity": 0.8661417322834646
        },
        {
          "duration": 1,
          "durationTicks": 192,
          "midi": 34,
          "name": "A#1",
          "ticks": 30720,
          "time": 160,
          "velocity": 0.8661417322834646
        },
        {
          "duration": 1,
          "durationTicks": 192,
          "midi": 36,
          "name": "C2",
          "ticks": 30912,
          "time": 161,
          "velocity": 0.8661417322834646
        },
        {
          "duration": 1,
          "durationTicks": 192,
          "midi": 32,
          "name": "G#1",
          "ticks": 31104,
          "time": 162,
          "velocity": 0.8661417322834646
        },
        {
          "duration": 1,
          "durationTicks": 192,
          "midi": 39,
          "name": "D#2",
          "ticks": 31296,
          "time": 163,
          "velocity": 0.8661417322834646
        },
        {
          "duration": 1,
          "durationTicks": 192,
          "midi": 34,
          "name": "A#1",
          "ticks": 31488,
          "time": 164,
          "velocity": 0.8661417322834646
        },
        {
          "duration": 1,
          "durationTicks": 192,
          "midi": 36,
          "name": "C2",
          "ticks": 31680,
          "time": 165,
          "velocity": 0.8661417322834646
        },
        {
          "duration": 1,
          "durationTicks": 192,
          "midi": 32,
          "name": "G#1",
          "ticks": 31872,
          "time": 166,
          "velocity": 0.8661417322834646
        },
        {
          "duration": 1,
          "durationTicks": 192,
          "midi": 39,
          "name": "D#2",
          "ticks": 32064,
          "time": 167,
          "velocity": 0.8661417322834646
        },
        {
          "duration": 1,
          "durationTicks": 192,
          "midi": 34,
          "name": "A#1",
          "ticks": 32256,
          "time": 168,
          "velocity": 0.8661417322834646
        },
        {
          "duration": 1,
          "durationTicks": 192,
          "midi": 36,
          "name": "C2",
          "ticks": 32448,
          "time": 169,
          "velocity": 0.8661417322834646
        },
        {
          "duration": 1,
          "durationTicks": 192,
          "midi": 32,
          "name": "G#1",
          "ticks": 32640,
          "time": 170,
          "velocity": 0.8661417322834646
        },
        {
          "duration": 1,
          "durationTicks": 192,
          "midi": 39,
          "name": "D#2",
          "ticks": 32832,
          "time": 171,
          "velocity": 0.8661417322834646
        },
        {
          "duration": 1,
          "durationTicks": 192,
          "midi": 34,
          "name": "A#1",
          "ticks": 33024,
          "time": 172,
          "velocity": 0.8661417322834646
        },
        {
          "duration": 1,
          "durationTicks": 192,
          "midi": 36,
          "name": "C2",
          "ticks": 33216,
          "time": 173,
          "velocity": 0.8661417322834646
        },
        {
          "duration": 1,
          "durationTicks": 192,
          "midi": 32,
          "name": "G#1",
          "ticks": 33408,
          "time": 174,
          "velocity": 0.8661417322834646
        },
        {
          "duration": 1,
          "durationTicks": 192,
          "midi": 39,
          "name": "D#2",
          "ticks": 33600,
          "time": 175,
          "velocity": 0.8661417322834646
        },
        {
          "duration": 1,
          "durationTicks": 192,
          "midi": 34,
          "name": "A#1",
          "ticks": 33792,
          "time": 176,
          "velocity": 0.8661417322834646
        }
      ]
    },
    {
      "channel": 0,
      "controlChanges": {
        "6": [
          {
            "number": 6,
            "ticks": 0,
            "time": 0,
            "value": 0.09448818897637795
          },
          {
            "number": 6,
            "ticks": 0,
            "time": 0,
            "value": 0.09448818897637795
          },
          {
            "number": 6,
            "ticks": 0,
            "time": 0,
            "value": 0.09448818897637795
          }
        ],
        "7": [
          {
            "number": 7,
            "ticks": 0,
            "time": 0,
            "value": 1
          },
          {
            "number": 7,
            "ticks": 0,
            "time": 0,
            "value": 1
          },
          {
            "number": 7,
            "ticks": 0,
            "time": 0,
            "value": 1
          },
          {
            "number": 7,
            "ticks": 0,
            "time": 0,
            "value": 1
          },
          {
            "number": 7,
            "ticks": 0,
            "time": 0,
            "value": 1
          },
          {
            "number": 7,
            "ticks": 0,
            "time": 0,
            "value": 1
          }
        ],
        "10": [
          {
            "number": 10,
            "ticks": 0,
            "time": 0,
            "value": 0.5039370078740157
          },
          {
            "number": 10,
            "ticks": 0,
            "time": 0,
            "value": 0.5039370078740157
          },
          {
            "number": 10,
            "ticks": 0,
            "time": 0,
            "value": 0.5039370078740157
          },
          {
            "number": 10,
            "ticks": 0,
            "time": 0,
            "value": 0.5039370078740157
          },
          {
            "number": 10,
            "ticks": 0,
            "time": 0,
            "value": 0.5039370078740157
          },
          {
            "number": 10,
            "ticks": 0,
            "time": 0,
            "value": 0.5039370078740157
          }
        ],
        "100": [
          {
            "number": 100,
            "ticks": 0,
            "time": 0,
            "value": 0
          },
          {
            "number": 100,
            "ticks": 0,
            "time": 0,
            "value": 0
          },
          {
            "number": 100,
            "ticks": 0,
            "time": 0,
            "value": 0
          }
        ],
        "101": [
          {
            "number": 101,
            "ticks": 0,
            "time": 0,
            "value": 0
          },
          {
            "number": 101,
            "ticks": 0,
            "time": 0,
            "value": 0
          },
          {
            "number": 101,
            "ticks": 0,
            "time": 0,
            "value": 0
          }
        ]
      },
      "pitchBends": [
        {
          "ticks": 0,
          "time": 0,
          "value": 0
        },
        {
          "ticks": 0,
          "time": 0,
          "value": 0
        },
        {
          "ticks": 0,
          "time": 0,
          "value": 0
        },
        {
          "ticks": 0,
          "time": 0,
          "value": 0
        }
      ],
      "instrument": {
        "family": "piano",
        "number": 0,
        "name": "acoustic grand piano"
      },
      "name": "Synth Voice",
      "notes": [],
      "endOfTrackTicks": 34195
    },
    {
      "channel": 5,
      "controlChanges": {
        "6": [
          {
            "number": 6,
            "ticks": 34176,
            "time": 178,
            "value": 0.09448818897637795
          },
          {
            "number": 6,
            "ticks": 34177,
            "time": 178.00520833333334,
            "value": 0.09448818897637795
          }
        ],
        "7": [
          {
            "number": 7,
            "ticks": 34176,
            "time": 178,
            "value": 1
          },
          {
            "number": 7,
            "ticks": 34176,
            "time": 178,
            "value": 1
          },
          {
            "number": 7,
            "ticks": 34177,
            "time": 178.00520833333334,
            "value": 1
          }
        ],
        "10": [
          {
            "number": 10,
            "ticks": 34176,
            "time": 178,
            "value": 0.5039370078740157
          },
          {
            "number": 10,
            "ticks": 34176,
            "time": 178,
            "value": 0.5039370078740157
          },
          {
            "number": 10,
            "ticks": 34177,
            "time": 178.00520833333334,
            "value": 0.5039370078740157
          }
        ],
        "100": [
          {
            "number": 100,
            "ticks": 34176,
            "time": 178,
            "value": 0
          },
          {
            "number": 100,
            "ticks": 34177,
            "time": 178.00520833333334,
            "value": 0
          }
        ],
        "101": [
          {
            "number": 101,
            "ticks": 34176,
            "time": 178,
            "value": 0
          },
          {
            "number": 101,
            "ticks": 34177,
            "time": 178.00520833333334,
            "value": 0
          }
        ]
      },
      "pitchBends": [
        {
          "ticks": 34176,
          "time": 178,
          "value": 0
        },
        {
          "ticks": 34177,
          "time": 178.00520833333334,
          "value": 0
        }
      ],
      "instrument": {
        "family": "ensemble",
        "number": 54,
        "name": "synth voice"
      },
      "name": "",
      "notes": [
        {
          "duration": 0.41666666666666785,
          "durationTicks": 80,
          "midi": 55,
          "name": "G3",
          "ticks": 4032,
          "time": 21,
          "velocity": 0.8661417322834646
        },
        {
          "duration": 0.41666666666666785,
          "durationTicks": 80,
          "midi": 55,
          "name": "G3",
          "ticks": 4128,
          "time": 21.5,
          "velocity": 0.8661417322834646
        },
        {
          "duration": 0.36979166666666785,
          "durationTicks": 71,
          "midi": 56,
          "name": "G#3",
          "ticks": 4224,
          "time": 22,
          "velocity": 0.8661417322834646
        },
        {
          "duration": 0.36979166666666785,
          "durationTicks": 71,
          "midi": 56,
          "name": "G#3",
          "ticks": 4296,
          "time": 22.375,
          "velocity": 0.8661417322834646
        },
        {
          "duration": 0.49479166666666785,
          "durationTicks": 95,
          "midi": 55,
          "name": "G3",
          "ticks": 4368,
          "time": 22.75,
          "velocity": 0.8661417322834646
        },
        {
          "duration": 0.24479166666666785,
          "durationTicks": 47,
          "midi": 55,
          "name": "G3",
          "ticks": 4464,
          "time": 23.25,
          "velocity": 0.8661417322834646
        },
        {
          "duration": 0.24479166666666785,
          "durationTicks": 47,
          "midi": 51,
          "name": "D#3",
          "ticks": 4560,
          "time": 23.75,
          "velocity": 0.8661417322834646
        },
        {
          "duration": 0.24479166666666785,
          "durationTicks": 47,
          "midi": 51,
          "name": "D#3",
          "ticks": 4608,
          "time": 24,
          "velocity": 0.8661417322834646
        },
        {
          "duration": 0.24479166666666785,
          "durationTicks": 47,
          "midi": 50,
          "name": "D3",
          "ticks": 4656,
          "time": 24.25,
          "velocity": 0.8661417322834646
        },
        {
          "duration": 0.41666666666666785,
          "durationTicks": 80,
          "midi": 50,
          "name": "D3",
          "ticks": 4704,
          "time": 24.5,
          "velocity": 0.8661417322834646
        },
        {
          "duration": 0.41666666666666785,
          "durationTicks": 80,
          "midi": 55,
          "name": "G3",
          "ticks": 4800,
          "time": 25,
          "velocity": 0.8661417322834646
        },
        {
          "duration": 0.41666666666666785,
          "durationTicks": 80,
          "midi": 55,
          "name": "G3",
          "ticks": 4896,
          "time": 25.5,
          "velocity": 0.8661417322834646
        },
        {
          "duration": 0.36979166666666785,
          "durationTicks": 71,
          "midi": 56,
          "name": "G#3",
          "ticks": 4992,
          "time": 26,
          "velocity": 0.8661417322834646
        },
        {
          "duration": 0.36979166666666785,
          "durationTicks": 71,
          "midi": 56,
          "name": "G#3",
          "ticks": 5064,
          "time": 26.375,
          "velocity": 0.8661417322834646
        },
        {
          "duration": 0.49479166666666785,
          "durationTicks": 95,
          "midi": 55,
          "name": "G3",
          "ticks": 5136,
          "time": 26.75,
          "velocity": 0.8661417322834646
        },
        {
          "duration": 0.24479166666666785,
          "durationTicks": 47,
          "midi": 55,
          "name": "G3",
          "ticks": 5232,
          "time": 27.25,
          "velocity": 0.8661417322834646
        },
        {
          "duration": 0.24479166666666785,
          "durationTicks": 47,
          "midi": 51,
          "name": "D#3",
          "ticks": 5328,
          "time": 27.75,
          "velocity": 0.8661417322834646
        },
        {
          "duration": 0.24479166666666785,
          "durationTicks": 47,
          "midi": 51,
          "name": "D#3",
          "ticks": 5376,
          "time": 28,
          "velocity": 0.8661417322834646
        },
        {
          "duration": 0.24479166666666785,
          "durationTicks": 47,
          "midi": 50,
          "name": "D3",
          "ticks": 5424,
          "time": 28.25,
          "velocity": 0.8661417322834646
        },
        {
          "duration": 0.41666666666666785,
          "durationTicks": 80,
          "midi": 50,
          "name": "D3",
          "ticks": 5472,
          "time": 28.5,
          "velocity": 0.8661417322834646
        },
        {
          "duration": 0.41666666666666785,
          "durationTicks": 80,
          "midi": 55,
          "name": "G3",
          "ticks": 5568,
          "time": 29,
          "velocity": 0.8661417322834646
        },
        {
          "duration": 0.41666666666666785,
          "durationTicks": 80,
          "midi": 55,
          "name": "G3",
          "ticks": 5664,
          "time": 29.5,
          "velocity": 0.8661417322834646
        },
        {
          "duration": 0.36979166666666785,
          "durationTicks": 71,
          "midi": 56,
          "name": "G#3",
          "ticks": 5760,
          "time": 30,
          "velocity": 0.8661417322834646
        },
        {
          "duration": 0.36979166666666785,
          "durationTicks": 71,
          "midi": 56,
          "name": "G#3",
          "ticks": 5832,
          "time": 30.375,
          "velocity": 0.8661417322834646
        },
        {
          "duration": 0.49479166666666785,
          "durationTicks": 95,
          "midi": 55,
          "name": "G3",
          "ticks": 5904,
          "time": 30.75,
          "velocity": 0.8661417322834646
        },
        {
          "duration": 0.24479166666666785,
          "durationTicks": 47,
          "midi": 55,
          "name": "G3",
          "ticks": 6000,
          "time": 31.25,
          "velocity": 0.8661417322834646
        },
        {
          "duration": 0.24479166666666785,
          "durationTicks": 47,
          "midi": 51,
          "name": "D#3",
          "ticks": 6096,
          "time": 31.75,
          "velocity": 0.8661417322834646
        },
        {
          "duration": 0.2447916666666643,
          "durationTicks": 47,
          "midi": 51,
          "name": "D#3",
          "ticks": 6144,
          "time": 32,
          "velocity": 0.8661417322834646
        },
        {
          "duration": 0.2447916666666643,
          "durationTicks": 47,
          "midi": 50,
          "name": "D3",
          "ticks": 6192,
          "time": 32.25,
          "velocity": 0.8661417322834646
        },
        {
          "duration": 0.4166666666666643,
          "durationTicks": 80,
          "midi": 50,
          "name": "D3",
          "ticks": 6240,
          "time": 32.5,
          "velocity": 0.8661417322834646
        },
        {
          "duration": 0.4166666666666643,
          "durationTicks": 80,
          "midi": 55,
          "name": "G3",
          "ticks": 6336,
          "time": 33,
          "velocity": 0.8661417322834646
        },
        {
          "duration": 0.4166666666666643,
          "durationTicks": 80,
          "midi": 55,
          "name": "G3",
          "ticks": 6432,
          "time": 33.5,
          "velocity": 0.8661417322834646
        },
        {
          "duration": 0.3697916666666643,
          "durationTicks": 71,
          "midi": 56,
          "name": "G#3",
          "ticks": 6528,
          "time": 34,
          "velocity": 0.8661417322834646
        },
        {
          "duration": 0.3697916666666643,
          "durationTicks": 71,
          "midi": 56,
          "name": "G#3",
          "ticks": 6600,
          "time": 34.375,
          "velocity": 0.8661417322834646
        },
        {
          "duration": 0.4947916666666643,
          "durationTicks": 95,
          "midi": 55,
          "name": "G3",
          "ticks": 6672,
          "time": 34.75,
          "velocity": 0.8661417322834646
        },
        {
          "duration": 0.2447916666666643,
          "durationTicks": 47,
          "midi": 55,
          "name": "G3",
          "ticks": 6768,
          "time": 35.25,
          "velocity": 0.8661417322834646
        },
        {
          "duration": 0.2447916666666643,
          "durationTicks": 47,
          "midi": 51,
          "name": "D#3",
          "ticks": 6864,
          "time": 35.75,
          "velocity": 0.8661417322834646
        },
        {
          "duration": 0.2447916666666643,
          "durationTicks": 47,
          "midi": 51,
          "name": "D#3",
          "ticks": 6912,
          "time": 36,
          "velocity": 0.8661417322834646
        },
        {
          "duration": 0.2447916666666643,
          "durationTicks": 47,
          "midi": 50,
          "name": "D3",
          "ticks": 6960,
          "time": 36.25,
          "velocity": 0.8661417322834646
        },
        {
          "duration": 0.4166666666666643,
          "durationTicks": 80,
          "midi": 50,
          "name": "D3",
          "ticks": 7008,
          "time": 36.5,
          "velocity": 0.8661417322834646
        },
        {
          "duration": 0.4166666666666643,
          "durationTicks": 80,
          "midi": 55,
          "name": "G3",
          "ticks": 10944,
          "time": 57,
          "velocity": 0.8661417322834646
        },
        {
          "duration": 0.4166666666666643,
          "durationTicks": 80,
          "midi": 55,
          "name": "G3",
          "ticks": 11040,
          "time": 57.5,
          "velocity": 0.8661417322834646
        },
        {
          "duration": 0.3697916666666643,
          "durationTicks": 71,
          "midi": 56,
          "name": "G#3",
          "ticks": 11136,
          "time": 58,
          "velocity": 0.8661417322834646
        },
        {
          "duration": 0.3697916666666643,
          "durationTicks": 71,
          "midi": 56,
          "name": "G#3",
          "ticks": 11208,
          "time": 58.375,
          "velocity": 0.8661417322834646
        },
        {
          "duration": 0.4947916666666643,
          "durationTicks": 95,
          "midi": 55,
          "name": "G3",
          "ticks": 11280,
          "time": 58.75,
          "velocity": 0.8661417322834646
        },
        {
          "duration": 0.2447916666666643,
          "durationTicks": 47,
          "midi": 55,
          "name": "G3",
          "ticks": 11376,
          "time": 59.25,
          "velocity": 0.8661417322834646
        },
        {
          "duration": 0.2447916666666643,
          "durationTicks": 47,
          "midi": 51,
          "name": "D#3",
          "ticks": 11472,
          "time": 59.75,
          "velocity": 0.8661417322834646
        },
        {
          "duration": 0.2447916666666643,
          "durationTicks": 47,
          "midi": 51,
          "name": "D#3",
          "ticks": 11520,
          "time": 60,
          "velocity": 0.8661417322834646
        },
        {
          "duration": 0.2447916666666643,
          "durationTicks": 47,
          "midi": 50,
          "name": "D3",
          "ticks": 11568,
          "time": 60.25,
          "velocity": 0.8661417322834646
        },
        {
          "duration": 0.4166666666666643,
          "durationTicks": 80,
          "midi": 50,
          "name": "D3",
          "ticks": 11616,
          "time": 60.5,
          "velocity": 0.8661417322834646
        },
        {
          "duration": 0.4166666666666643,
          "durationTicks": 80,
          "midi": 55,
          "name": "G3",
          "ticks": 11712,
          "time": 61,
          "velocity": 0.8661417322834646
        },
        {
          "duration": 0.4166666666666643,
          "durationTicks": 80,
          "midi": 55,
          "name": "G3",
          "ticks": 11808,
          "time": 61.5,
          "velocity": 0.8661417322834646
        },
        {
          "duration": 0.3697916666666643,
          "durationTicks": 71,
          "midi": 56,
          "name": "G#3",
          "ticks": 11904,
          "time": 62,
          "velocity": 0.8661417322834646
        },
        {
          "duration": 0.3697916666666643,
          "durationTicks": 71,
          "midi": 56,
          "name": "G#3",
          "ticks": 11976,
          "time": 62.375,
          "velocity": 0.8661417322834646
        },
        {
          "duration": 0.4947916666666643,
          "durationTicks": 95,
          "midi": 55,
          "name": "G3",
          "ticks": 12048,
          "time": 62.75,
          "velocity": 0.8661417322834646
        },
        {
          "duration": 0.2447916666666643,
          "durationTicks": 47,
          "midi": 55,
          "name": "G3",
          "ticks": 12144,
          "time": 63.25,
          "velocity": 0.8661417322834646
        },
        {
          "duration": 0.2447916666666643,
          "durationTicks": 47,
          "midi": 51,
          "name": "D#3",
          "ticks": 12240,
          "time": 63.75,
          "velocity": 0.8661417322834646
        },
        {
          "duration": 0.2447916666666714,
          "durationTicks": 47,
          "midi": 51,
          "name": "D#3",
          "ticks": 12288,
          "time": 64,
          "velocity": 0.8661417322834646
        },
        {
          "duration": 0.2447916666666714,
          "durationTicks": 47,
          "midi": 50,
          "name": "D3",
          "ticks": 12336,
          "time": 64.25,
          "velocity": 0.8661417322834646
        },
        {
          "duration": 0.4166666666666714,
          "durationTicks": 80,
          "midi": 50,
          "name": "D3",
          "ticks": 12384,
          "time": 64.5,
          "velocity": 0.8661417322834646
        },
        {
          "duration": 0.4166666666666714,
          "durationTicks": 80,
          "midi": 55,
          "name": "G3",
          "ticks": 12480,
          "time": 65,
          "velocity": 0.8661417322834646
        },
        {
          "duration": 0.4166666666666714,
          "durationTicks": 80,
          "midi": 55,
          "name": "G3",
          "ticks": 12576,
          "time": 65.5,
          "velocity": 0.8661417322834646
        },
        {
          "duration": 0.3697916666666714,
          "durationTicks": 71,
          "midi": 56,
          "name": "G#3",
          "ticks": 12672,
          "time": 66,
          "velocity": 0.8661417322834646
        },
        {
          "duration": 0.3697916666666714,
          "durationTicks": 71,
          "midi": 56,
          "name": "G#3",
          "ticks": 12744,
          "time": 66.375,
          "velocity": 0.8661417322834646
        },
        {
          "duration": 0.4947916666666714,
          "durationTicks": 95,
          "midi": 55,
          "name": "G3",
          "ticks": 12816,
          "time": 66.75,
          "velocity": 0.8661417322834646
        },
        {
          "duration": 0.2447916666666714,
          "durationTicks": 47,
          "midi": 55,
          "name": "G3",
          "ticks": 12912,
          "time": 67.25,
          "velocity": 0.8661417322834646
        },
        {
          "duration": 0.2447916666666714,
          "durationTicks": 47,
          "midi": 51,
          "name": "D#3",
          "ticks": 13008,
          "time": 67.75,
          "velocity": 0.8661417322834646
        },
        {
          "duration": 0.2447916666666714,
          "durationTicks": 47,
          "midi": 51,
          "name": "D#3",
          "ticks": 13056,
          "time": 68,
          "velocity": 0.8661417322834646
        },
        {
          "duration": 0.2447916666666714,
          "durationTicks": 47,
          "midi": 50,
          "name": "D3",
          "ticks": 13104,
          "time": 68.25,
          "velocity": 0.8661417322834646
        },
        {
          "duration": 0.4166666666666714,
          "durationTicks": 80,
          "midi": 50,
          "name": "D3",
          "ticks": 13152,
          "time": 68.5,
          "velocity": 0.8661417322834646
        },
        {
          "duration": 0.4166666666666714,
          "durationTicks": 80,
          "midi": 55,
          "name": "G3",
          "ticks": 13248,
          "time": 69,
          "velocity": 0.8661417322834646
        },
        {
          "duration": 0.4166666666666714,
          "durationTicks": 80,
          "midi": 55,
          "name": "G3",
          "ticks": 13344,
          "time": 69.5,
          "velocity": 0.8661417322834646
        },
        {
          "duration": 0.3697916666666714,
          "durationTicks": 71,
          "midi": 56,
          "name": "G#3",
          "ticks": 13440,
          "time": 70,
          "velocity": 0.8661417322834646
        },
        {
          "duration": 0.3697916666666714,
          "durationTicks": 71,
          "midi": 56,
          "name": "G#3",
          "ticks": 13512,
          "time": 70.375,
          "velocity": 0.8661417322834646
        },
        {
          "duration": 0.4947916666666714,
          "durationTicks": 95,
          "midi": 55,
          "name": "G3",
          "ticks": 13584,
          "time": 70.75,
          "velocity": 0.8661417322834646
        },
        {
          "duration": 0.2447916666666714,
          "durationTicks": 47,
          "midi": 55,
          "name": "G3",
          "ticks": 13680,
          "time": 71.25,
          "velocity": 0.8661417322834646
        },
        {
          "duration": 0.2447916666666714,
          "durationTicks": 47,
          "midi": 51,
          "name": "D#3",
          "ticks": 13776,
          "time": 71.75,
          "velocity": 0.8661417322834646
        },
        {
          "duration": 0.2447916666666714,
          "durationTicks": 47,
          "midi": 51,
          "name": "D#3",
          "ticks": 13824,
          "time": 72,
          "velocity": 0.8661417322834646
        },
        {
          "duration": 0.2447916666666714,
          "durationTicks": 47,
          "midi": 50,
          "name": "D3",
          "ticks": 13872,
          "time": 72.25,
          "velocity": 0.8661417322834646
        },
        {
          "duration": 0.4166666666666714,
          "durationTicks": 80,
          "midi": 50,
          "name": "D3",
          "ticks": 13920,
          "time": 72.5,
          "velocity": 0.8661417322834646
        },
        {
          "duration": 0.2447916666666714,
          "durationTicks": 47,
          "midi": 60,
          "name": "C4",
          "ticks": 22320,
          "time": 116.25,
          "velocity": 0.8661417322834646
        },
        {
          "duration": 0.2447916666666714,
          "durationTicks": 47,
          "midi": 63,
          "name": "D#4",
          "ticks": 22368,
          "time": 116.5,
          "velocity": 0.8661417322834646
        },
        {
          "duration": 0.2447916666666714,
          "durationTicks": 47,
          "midi": 65,
          "name": "F4",
          "ticks": 22416,
          "time": 116.75,
          "velocity": 0.8661417322834646
        },
        {
          "duration": 0.4166666666666714,
          "durationTicks": 80,
          "midi": 67,
          "name": "G4",
          "ticks": 22464,
          "time": 117,
          "velocity": 0.8661417322834646
        },
        {
          "duration": 0.4166666666666714,
          "durationTicks": 80,
          "midi": 67,
          "name": "G4",
          "ticks": 22560,
          "time": 117.5,
          "velocity": 0.8661417322834646
        },
        {
          "duration": 0.3697916666666714,
          "durationTicks": 71,
          "midi": 68,
          "name": "G#4",
          "ticks": 22656,
          "time": 118,
          "velocity": 0.8661417322834646
        },
        {
          "duration": 0.3697916666666714,
          "durationTicks": 71,
          "midi": 68,
          "name": "G#4",
          "ticks": 22728,
          "time": 118.375,
          "velocity": 0.8661417322834646
        },
        {
          "duration": 0.4947916666666714,
          "durationTicks": 95,
          "midi": 67,
          "name": "G4",
          "ticks": 22800,
          "time": 118.75,
          "velocity": 0.8661417322834646
        },
        {
          "duration": 0.4947916666666714,
          "durationTicks": 95,
          "midi": 67,
          "name": "G4",
          "ticks": 22896,
          "time": 119.25,
          "velocity": 0.8661417322834646
        },
        {
          "duration": 0.2447916666666714,
          "durationTicks": 47,
          "midi": 63,
          "name": "D#4",
          "ticks": 22992,
          "time": 119.75,
          "velocity": 0.8661417322834646
        },
        {
          "duration": 0.2447916666666714,
          "durationTicks": 47,
          "midi": 63,
          "name": "D#4",
          "ticks": 23040,
          "time": 120,
          "velocity": 0.8661417322834646
        },
        {
          "duration": 0.2447916666666714,
          "durationTicks": 47,
          "midi": 62,
          "name": "D4",
          "ticks": 23088,
          "time": 120.25,
          "velocity": 0.8661417322834646
        },
        {
          "duration": 0.4166666666666714,
          "durationTicks": 80,
          "midi": 62,
          "name": "D4",
          "ticks": 23136,
          "time": 120.5,
          "velocity": 0.8661417322834646
        },
        {
          "duration": 0.4166666666666714,
          "durationTicks": 80,
          "midi": 67,
          "name": "G4",
          "ticks": 23232,
          "time": 121,
          "velocity": 0.8661417322834646
        },
        {
          "duration": 0.4166666666666714,
          "durationTicks": 80,
          "midi": 67,
          "name": "G4",
          "ticks": 23328,
          "time": 121.5,
          "velocity": 0.8661417322834646
        },
        {
          "duration": 0.3697916666666714,
          "durationTicks": 71,
          "midi": 68,
          "name": "G#4",
          "ticks": 23424,
          "time": 122,
          "velocity": 0.8661417322834646
        },
        {
          "duration": 0.3697916666666714,
          "durationTicks": 71,
          "midi": 68,
          "name": "G#4",
          "ticks": 23496,
          "time": 122.375,
          "velocity": 0.8661417322834646
        },
        {
          "duration": 0.4947916666666714,
          "durationTicks": 95,
          "midi": 67,
          "name": "G4",
          "ticks": 23568,
          "time": 122.75,
          "velocity": 0.8661417322834646
        },
        {
          "duration": 0.4947916666666714,
          "durationTicks": 95,
          "midi": 67,
          "name": "G4",
          "ticks": 23664,
          "time": 123.25,
          "velocity": 0.8661417322834646
        },
        {
          "duration": 0.2447916666666714,
          "durationTicks": 47,
          "midi": 63,
          "name": "D#4",
          "ticks": 23760,
          "time": 123.75,
          "velocity": 0.8661417322834646
        },
        {
          "duration": 0.2447916666666714,
          "durationTicks": 47,
          "midi": 63,
          "name": "D#4",
          "ticks": 23808,
          "time": 124,
          "velocity": 0.8661417322834646
        },
        {
          "duration": 0.2447916666666714,
          "durationTicks": 47,
          "midi": 62,
          "name": "D4",
          "ticks": 23856,
          "time": 124.25,
          "velocity": 0.8661417322834646
        },
        {
          "duration": 0.4166666666666714,
          "durationTicks": 80,
          "midi": 62,
          "name": "D4",
          "ticks": 23904,
          "time": 124.5,
          "velocity": 0.8661417322834646
        },
        {
          "duration": 0.4166666666666714,
          "durationTicks": 80,
          "midi": 67,
          "name": "G4",
          "ticks": 24000,
          "time": 125,
          "velocity": 0.8661417322834646
        },
        {
          "duration": 0.4166666666666714,
          "durationTicks": 80,
          "midi": 67,
          "name": "G4",
          "ticks": 24096,
          "time": 125.5,
          "velocity": 0.8661417322834646
        },
        {
          "duration": 0.3697916666666714,
          "durationTicks": 71,
          "midi": 68,
          "name": "G#4",
          "ticks": 24192,
          "time": 126,
          "velocity": 0.8661417322834646
        },
        {
          "duration": 0.3697916666666714,
          "durationTicks": 71,
          "midi": 68,
          "name": "G#4",
          "ticks": 24264,
          "time": 126.375,
          "velocity": 0.8661417322834646
        },
        {
          "duration": 0.4947916666666714,
          "durationTicks": 95,
          "midi": 67,
          "name": "G4",
          "ticks": 24336,
          "time": 126.75,
          "velocity": 0.8661417322834646
        },
        {
          "duration": 0.4947916666666714,
          "durationTicks": 95,
          "midi": 67,
          "name": "G4",
          "ticks": 24432,
          "time": 127.25,
          "velocity": 0.8661417322834646
        },
        {
          "duration": 0.2447916666666714,
          "durationTicks": 47,
          "midi": 63,
          "name": "D#4",
          "ticks": 24528,
          "time": 127.75,
          "velocity": 0.8661417322834646
        },
        {
          "duration": 0.2447916666666572,
          "durationTicks": 47,
          "midi": 63,
          "name": "D#4",
          "ticks": 24576,
          "time": 128,
          "velocity": 0.8661417322834646
        },
        {
          "duration": 0.2447916666666572,
          "durationTicks": 47,
          "midi": 62,
          "name": "D4",
          "ticks": 24624,
          "time": 128.25,
          "velocity": 0.8661417322834646
        },
        {
          "duration": 0.4166666666666572,
          "durationTicks": 80,
          "midi": 62,
          "name": "D4",
          "ticks": 24672,
          "time": 128.5,
          "velocity": 0.8661417322834646
        },
        {
          "duration": 0.3697916666666572,
          "durationTicks": 71,
          "midi": 60,
          "name": "C4",
          "ticks": 24768,
          "time": 129,
          "velocity": 0.8661417322834646
        },
        {
          "duration": 0.3697916666666572,
          "durationTicks": 71,
          "midi": 63,
          "name": "D#4",
          "ticks": 24840,
          "time": 129.375,
          "velocity": 0.8661417322834646
        },
        {
          "duration": 0.2447916666666572,
          "durationTicks": 47,
          "midi": 60,
          "name": "C4",
          "ticks": 24912,
          "time": 129.75,
          "velocity": 0.8661417322834646
        },
        {
          "duration": 0.4166666666666572,
          "durationTicks": 80,
          "midi": 63,
          "name": "D#4",
          "ticks": 24960,
          "time": 130,
          "velocity": 0.8661417322834646
        },
        {
          "duration": 0.2447916666666572,
          "durationTicks": 47,
          "midi": 58,
          "name": "A#3",
          "ticks": 25104,
          "time": 130.75,
          "velocity": 0.8661417322834646
        },
        {
          "duration": 0.2447916666666572,
          "durationTicks": 47,
          "midi": 60,
          "name": "C4",
          "ticks": 25152,
          "time": 131,
          "velocity": 0.8661417322834646
        },
        {
          "duration": 0.11979166666665719,
          "durationTicks": 23,
          "midi": 60,
          "name": "C4",
          "ticks": 25200,
          "time": 131.25,
          "velocity": 0.8661417322834646
        },
        {
          "duration": 0.2447916666666572,
          "durationTicks": 47,
          "midi": 63,
          "name": "D#4",
          "ticks": 25224,
          "time": 131.375,
          "velocity": 0.8661417322834646
        },
        {
          "duration": 0.11979166666665719,
          "durationTicks": 23,
          "midi": 63,
          "name": "D#4",
          "ticks": 25272,
          "time": 131.625,
          "velocity": 0.8661417322834646
        },
        {
          "duration": 0.2447916666666572,
          "durationTicks": 47,
          "midi": 67,
          "name": "G4",
          "ticks": 25296,
          "time": 131.75,
          "velocity": 0.8661417322834646
        },
        {
          "duration": 0.2447916666666572,
          "durationTicks": 47,
          "midi": 65,
          "name": "F4",
          "ticks": 25344,
          "time": 132,
          "velocity": 0.8661417322834646
        },
        {
          "duration": 0.4947916666666572,
          "durationTicks": 95,
          "midi": 63,
          "name": "D#4",
          "ticks": 25392,
          "time": 132.25,
          "velocity": 0.8661417322834646
        },
        {
          "duration": 0.2447916666666572,
          "durationTicks": 47,
          "midi": 62,
          "name": "D4",
          "ticks": 25488,
          "time": 132.75,
          "velocity": 0.8661417322834646
        },
        {
          "duration": 0.3697916666666572,
          "durationTicks": 71,
          "midi": 60,
          "name": "C4",
          "ticks": 25536,
          "time": 133,
          "velocity": 0.8661417322834646
        },
        {
          "duration": 0.3697916666666572,
          "durationTicks": 71,
          "midi": 63,
          "name": "D#4",
          "ticks": 25608,
          "time": 133.375,
          "velocity": 0.8661417322834646
        },
        {
          "duration": 0.2447916666666572,
          "durationTicks": 47,
          "midi": 60,
          "name": "C4",
          "ticks": 25680,
          "time": 133.75,
          "velocity": 0.8661417322834646
        },
        {
          "duration": 0.4166666666666572,
          "durationTicks": 80,
          "midi": 63,
          "name": "D#4",
          "ticks": 25728,
          "time": 134,
          "velocity": 0.8661417322834646
        },
        {
          "duration": 0.2447916666666572,
          "durationTicks": 47,
          "midi": 63,
          "name": "D#4",
          "ticks": 25824,
          "time": 134.5,
          "velocity": 0.8661417322834646
        },
        {
          "duration": 0.11979166666665719,
          "durationTicks": 23,
          "midi": 65,
          "name": "F4",
          "ticks": 25872,
          "time": 134.75,
          "velocity": 0.8661417322834646
        },
        {
          "duration": 0.11979166666665719,
          "durationTicks": 23,
          "midi": 60,
          "name": "C4",
          "ticks": 25896,
          "time": 134.875,
          "velocity": 0.8661417322834646
        },
        {
          "duration": 0.2447916666666572,
          "durationTicks": 47,
          "midi": 67,
          "name": "G4",
          "ticks": 25920,
          "time": 135,
          "velocity": 0.8661417322834646
        },
        {
          "duration": 0.11979166666665719,
          "durationTicks": 23,
          "midi": 67,
          "name": "G4",
          "ticks": 25968,
          "time": 135.25,
          "velocity": 0.8661417322834646
        },
        {
          "duration": 0.2447916666666572,
          "durationTicks": 47,
          "midi": 67,
          "name": "G4",
          "ticks": 25992,
          "time": 135.375,
          "velocity": 0.8661417322834646
        },
        {
          "duration": 0.11979166666665719,
          "durationTicks": 23,
          "midi": 67,
          "name": "G4",
          "ticks": 26040,
          "time": 135.625,
          "velocity": 0.8661417322834646
        },
        {
          "duration": 0.2447916666666572,
          "durationTicks": 47,
          "midi": 63,
          "name": "D#4",
          "ticks": 26064,
          "time": 135.75,
          "velocity": 0.8661417322834646
        },
        {
          "duration": 0.2447916666666572,
          "durationTicks": 47,
          "midi": 65,
          "name": "F4",
          "ticks": 26112,
          "time": 136,
          "velocity": 0.8661417322834646
        },
        {
          "duration": 0.2447916666666572,
          "durationTicks": 47,
          "midi": 60,
          "name": "C4",
          "ticks": 26160,
          "time": 136.25,
          "velocity": 0.8661417322834646
        },
        {
          "duration": 0.2447916666666572,
          "durationTicks": 47,
          "midi": 63,
          "name": "D#4",
          "ticks": 26208,
          "time": 136.5,
          "velocity": 0.8661417322834646
        },
        {
          "duration": 0.2447916666666572,
          "durationTicks": 47,
          "midi": 65,
          "name": "F4",
          "ticks": 26256,
          "time": 136.75,
          "velocity": 0.8661417322834646
        },
        {
          "duration": 0.4166666666666572,
          "durationTicks": 80,
          "midi": 67,
          "name": "G4",
          "ticks": 26304,
          "time": 137,
          "velocity": 0.8661417322834646
        },
        {
          "duration": 0.4166666666666572,
          "durationTicks": 80,
          "midi": 67,
          "name": "G4",
          "ticks": 26400,
          "time": 137.5,
          "velocity": 0.8661417322834646
        },
        {
          "duration": 0.3697916666666572,
          "durationTicks": 71,
          "midi": 68,
          "name": "G#4",
          "ticks": 26496,
          "time": 138,
          "velocity": 0.8661417322834646
        },
        {
          "duration": 0.3697916666666572,
          "durationTicks": 71,
          "midi": 68,
          "name": "G#4",
          "ticks": 26568,
          "time": 138.375,
          "velocity": 0.8661417322834646
        },
        {
          "duration": 0.4947916666666572,
          "durationTicks": 95,
          "midi": 67,
          "name": "G4",
          "ticks": 26640,
          "time": 138.75,
          "velocity": 0.8661417322834646
        },
        {
          "duration": 0.4947916666666572,
          "durationTicks": 95,
          "midi": 67,
          "name": "G4",
          "ticks": 26736,
          "time": 139.25,
          "velocity": 0.8661417322834646
        },
        {
          "duration": 0.2447916666666572,
          "durationTicks": 47,
          "midi": 63,
          "name": "D#4",
          "ticks": 26832,
          "time": 139.75,
          "velocity": 0.8661417322834646
        },
        {
          "duration": 0.2447916666666572,
          "durationTicks": 47,
          "midi": 63,
          "name": "D#4",
          "ticks": 26880,
          "time": 140,
          "velocity": 0.8661417322834646
        },
        {
          "duration": 0.2447916666666572,
          "durationTicks": 47,
          "midi": 62,
          "name": "D4",
          "ticks": 26928,
          "time": 140.25,
          "velocity": 0.8661417322834646
        },
        {
          "duration": 0.4166666666666572,
          "durationTicks": 80,
          "midi": 62,
          "name": "D4",
          "ticks": 26976,
          "time": 140.5,
          "velocity": 0.8661417322834646
        },
        {
          "duration": 0.4166666666666572,
          "durationTicks": 80,
          "midi": 67,
          "name": "G4",
          "ticks": 27072,
          "time": 141,
          "velocity": 0.8661417322834646
        },
        {
          "duration": 0.4166666666666572,
          "durationTicks": 80,
          "midi": 67,
          "name": "G4",
          "ticks": 27168,
          "time": 141.5,
          "velocity": 0.8661417322834646
        },
        {
          "duration": 0.3697916666666572,
          "durationTicks": 71,
          "midi": 68,
          "name": "G#4",
          "ticks": 27264,
          "time": 142,
          "velocity": 0.8661417322834646
        },
        {
          "duration": 0.3697916666666572,
          "durationTicks": 71,
          "midi": 68,
          "name": "G#4",
          "ticks": 27336,
          "time": 142.375,
          "velocity": 0.8661417322834646
        },
        {
          "duration": 0.4947916666666572,
          "durationTicks": 95,
          "midi": 67,
          "name": "G4",
          "ticks": 27408,
          "time": 142.75,
          "velocity": 0.8661417322834646
        },
        {
          "duration": 0.4947916666666572,
          "durationTicks": 95,
          "midi": 67,
          "name": "G4",
          "ticks": 27504,
          "time": 143.25,
          "velocity": 0.8661417322834646
        },
        {
          "duration": 0.2447916666666572,
          "durationTicks": 47,
          "midi": 63,
          "name": "D#4",
          "ticks": 27600,
          "time": 143.75,
          "velocity": 0.8661417322834646
        },
        {
          "duration": 0.2447916666666572,
          "durationTicks": 47,
          "midi": 63,
          "name": "D#4",
          "ticks": 27648,
          "time": 144,
          "velocity": 0.8661417322834646
        },
        {
          "duration": 0.2447916666666572,
          "durationTicks": 47,
          "midi": 62,
          "name": "D4",
          "ticks": 27696,
          "time": 144.25,
          "velocity": 0.8661417322834646
        },
        {
          "duration": 0.4166666666666572,
          "durationTicks": 80,
          "midi": 62,
          "name": "D4",
          "ticks": 27744,
          "time": 144.5,
          "velocity": 0.8661417322834646
        },
        {
          "duration": 0.4166666666666572,
          "durationTicks": 80,
          "midi": 67,
          "name": "G4",
          "ticks": 27840,
          "time": 145,
          "velocity": 0.8661417322834646
        },
        {
          "duration": 0.4166666666666572,
          "durationTicks": 80,
          "midi": 67,
          "name": "G4",
          "ticks": 27936,
          "time": 145.5,
          "velocity": 0.8661417322834646
        },
        {
          "duration": 0.3697916666666572,
          "durationTicks": 71,
          "midi": 68,
          "name": "G#4",
          "ticks": 28032,
          "time": 146,
          "velocity": 0.8661417322834646
        },
        {
          "duration": 0.3697916666666572,
          "durationTicks": 71,
          "midi": 68,
          "name": "G#4",
          "ticks": 28104,
          "time": 146.375,
          "velocity": 0.8661417322834646
        },
        {
          "duration": 0.4947916666666572,
          "durationTicks": 95,
          "midi": 67,
          "name": "G4",
          "ticks": 28176,
          "time": 146.75,
          "velocity": 0.8661417322834646
        },
        {
          "duration": 0.4947916666666572,
          "durationTicks": 95,
          "midi": 67,
          "name": "G4",
          "ticks": 28272,
          "time": 147.25,
          "velocity": 0.8661417322834646
        },
        {
          "duration": 0.2447916666666572,
          "durationTicks": 47,
          "midi": 63,
          "name": "D#4",
          "ticks": 28368,
          "time": 147.75,
          "velocity": 0.8661417322834646
        },
        {
          "duration": 0.2447916666666572,
          "durationTicks": 47,
          "midi": 63,
          "name": "D#4",
          "ticks": 28416,
          "time": 148,
          "velocity": 0.8661417322834646
        },
        {
          "duration": 0.2447916666666572,
          "durationTicks": 47,
          "midi": 62,
          "name": "D4",
          "ticks": 28464,
          "time": 148.25,
          "velocity": 0.8661417322834646
        },
        {
          "duration": 0.4166666666666572,
          "durationTicks": 80,
          "midi": 62,
          "name": "D4",
          "ticks": 28512,
          "time": 148.5,
          "velocity": 0.8661417322834646
        },
        {
          "duration": 0.3697916666666572,
          "durationTicks": 71,
          "midi": 60,
          "name": "C4",
          "ticks": 28608,
          "time": 149,
          "velocity": 0.8661417322834646
        },
        {
          "duration": 0.3697916666666572,
          "durationTicks": 71,
          "midi": 63,
          "name": "D#4",
          "ticks": 28680,
          "time": 149.375,
          "velocity": 0.8661417322834646
        },
        {
          "duration": 0.2447916666666572,
          "durationTicks": 47,
          "midi": 60,
          "name": "C4",
          "ticks": 28752,
          "time": 149.75,
          "velocity": 0.8661417322834646
        },
        {
          "duration": 0.4166666666666572,
          "durationTicks": 80,
          "midi": 63,
          "name": "D#4",
          "ticks": 28800,
          "time": 150,
          "velocity": 0.8661417322834646
        },
        {
          "duration": 0.2447916666666572,
          "durationTicks": 47,
          "midi": 63,
          "name": "D#4",
          "ticks": 28896,
          "time": 150.5,
          "velocity": 0.8661417322834646
        },
        {
          "duration": 0.2447916666666572,
          "durationTicks": 47,
          "midi": 58,
          "name": "A#3",
          "ticks": 28944,
          "time": 150.75,
          "velocity": 0.8661417322834646
        },
        {
          "duration": 0.2447916666666572,
          "durationTicks": 47,
          "midi": 60,
          "name": "C4",
          "ticks": 28992,
          "time": 151,
          "velocity": 0.8661417322834646
        },
        {
          "duration": 0.11979166666665719,
          "durationTicks": 23,
          "midi": 60,
          "name": "C4",
          "ticks": 29040,
          "time": 151.25,
          "velocity": 0.8661417322834646
        },
        {
          "duration": 0.2447916666666572,
          "durationTicks": 47,
          "midi": 63,
          "name": "D#4",
          "ticks": 29064,
          "time": 151.375,
          "velocity": 0.8661417322834646
        },
        {
          "duration": 0.11979166666665719,
          "durationTicks": 23,
          "midi": 63,
          "name": "D#4",
          "ticks": 29112,
          "time": 151.625,
          "velocity": 0.8661417322834646
        },
        {
          "duration": 0.2447916666666572,
          "durationTicks": 47,
          "midi": 67,
          "name": "G4",
          "ticks": 29136,
          "time": 151.75,
          "velocity": 0.8661417322834646
        },
        {
          "duration": 0.2447916666666572,
          "durationTicks": 47,
          "midi": 65,
          "name": "F4",
          "ticks": 29184,
          "time": 152,
          "velocity": 0.8661417322834646
        },
        {
          "duration": 0.4947916666666572,
          "durationTicks": 95,
          "midi": 63,
          "name": "D#4",
          "ticks": 29232,
          "time": 152.25,
          "velocity": 0.8661417322834646
        },
        {
          "duration": 0.2447916666666572,
          "durationTicks": 47,
          "midi": 62,
          "name": "D4",
          "ticks": 29328,
          "time": 152.75,
          "velocity": 0.8661417322834646
        },
        {
          "duration": 0.3697916666666572,
          "durationTicks": 71,
          "midi": 60,
          "name": "C4",
          "ticks": 29376,
          "time": 153,
          "velocity": 0.8661417322834646
        },
        {
          "duration": 0.3697916666666572,
          "durationTicks": 71,
          "midi": 63,
          "name": "D#4",
          "ticks": 29448,
          "time": 153.375,
          "velocity": 0.8661417322834646
        },
        {
          "duration": 0.2447916666666572,
          "durationTicks": 47,
          "midi": 60,
          "name": "C4",
          "ticks": 29520,
          "time": 153.75,
          "velocity": 0.8661417322834646
        },
        {
          "duration": 0.4166666666666572,
          "durationTicks": 80,
          "midi": 63,
          "name": "D#4",
          "ticks": 29568,
          "time": 154,
          "velocity": 0.8661417322834646
        },
        {
          "duration": 0.2447916666666572,
          "durationTicks": 47,
          "midi": 58,
          "name": "A#3",
          "ticks": 29664,
          "time": 154.5,
          "velocity": 0.8661417322834646
        },
        {
          "duration": 0.11979166666665719,
          "durationTicks": 23,
          "midi": 60,
          "name": "C4",
          "ticks": 29712,
          "time": 154.75,
          "velocity": 0.8661417322834646
        },
        {
          "duration": 0.11979166666665719,
          "durationTicks": 23,
          "midi": 60,
          "name": "C4",
          "ticks": 29736,
          "time": 154.875,
          "velocity": 0.8661417322834646
        },
        {
          "duration": 0.2447916666666572,
          "durationTicks": 47,
          "midi": 67,
          "name": "G4",
          "ticks": 29760,
          "time": 155,
          "velocity": 0.8661417322834646
        },
        {
          "duration": 0.11979166666665719,
          "durationTicks": 23,
          "midi": 67,
          "name": "G4",
          "ticks": 29808,
          "time": 155.25,
          "velocity": 0.8661417322834646
        },
        {
          "duration": 0.2447916666666572,
          "durationTicks": 47,
          "midi": 67,
          "name": "G4",
          "ticks": 29832,
          "time": 155.375,
          "velocity": 0.8661417322834646
        },
        {
          "duration": 0.11979166666665719,
          "durationTicks": 23,
          "midi": 67,
          "name": "G4",
          "ticks": 29880,
          "time": 155.625,
          "velocity": 0.8661417322834646
        },
        {
          "duration": 0.2447916666666572,
          "durationTicks": 47,
          "midi": 63,
          "name": "D#4",
          "ticks": 29904,
          "time": 155.75,
          "velocity": 0.8661417322834646
        },
        {
          "duration": 0.875,
          "durationTicks": 168,
          "midi": 65,
          "name": "F4",
          "ticks": 29952,
          "time": 156,
          "velocity": 0.8661417322834646
        },
        {
          "duration": 0.2447916666666572,
          "durationTicks": 47,
          "midi": 67,
          "name": "G4",
          "ticks": 30528,
          "time": 159,
          "velocity": 0.8661417322834646
        },
        {
          "duration": 0.11979166666665719,
          "durationTicks": 23,
          "midi": 67,
          "name": "G4",
          "ticks": 30576,
          "time": 159.25,
          "velocity": 0.8661417322834646
        },
        {
          "duration": 0.2447916666666572,
          "durationTicks": 47,
          "midi": 67,
          "name": "G4",
          "ticks": 30600,
          "time": 159.375,
          "velocity": 0.8661417322834646
        },
        {
          "duration": 0.11979166666665719,
          "durationTicks": 23,
          "midi": 67,
          "name": "G4",
          "ticks": 30648,
          "time": 159.625,
          "velocity": 0.8661417322834646
        },
        {
          "duration": 0.2447916666666572,
          "durationTicks": 47,
          "midi": 63,
          "name": "D#4",
          "ticks": 30672,
          "time": 159.75,
          "velocity": 0.8661417322834646
        },
        {
          "duration": 0.875,
          "durationTicks": 168,
          "midi": 65,
          "name": "F4",
          "ticks": 30720,
          "time": 160,
          "velocity": 0.8661417322834646
        },
        {
          "duration": 0.2447916666666572,
          "durationTicks": 47,
          "midi": 67,
          "name": "G4",
          "ticks": 31296,
          "time": 163,
          "velocity": 0.8661417322834646
        },
        {
          "duration": 0.11979166666665719,
          "durationTicks": 23,
          "midi": 67,
          "name": "G4",
          "ticks": 31344,
          "time": 163.25,
          "velocity": 0.8661417322834646
        },
        {
          "duration": 0.2447916666666572,
          "durationTicks": 47,
          "midi": 67,
          "name": "G4",
          "ticks": 31368,
          "time": 163.375,
          "velocity": 0.8661417322834646
        },
        {
          "duration": 0.11979166666665719,
          "durationTicks": 23,
          "midi": 67,
          "name": "G4",
          "ticks": 31416,
          "time": 163.625,
          "velocity": 0.8661417322834646
        },
        {
          "duration": 0.2447916666666572,
          "durationTicks": 47,
          "midi": 63,
          "name": "D#4",
          "ticks": 31440,
          "time": 163.75,
          "velocity": 0.8661417322834646
        },
        {
          "duration": 0.875,
          "durationTicks": 168,
          "midi": 65,
          "name": "F4",
          "ticks": 31488,
          "time": 164,
          "velocity": 0.8661417322834646
        },
        {
          "duration": 0.2447916666666572,
          "durationTicks": 47,
          "midi": 67,
          "name": "G4",
          "ticks": 32064,
          "time": 167,
          "velocity": 0.8661417322834646
        },
        {
          "duration": 0.11979166666665719,
          "durationTicks": 23,
          "midi": 67,
          "name": "G4",
          "ticks": 32112,
          "time": 167.25,
          "velocity": 0.8661417322834646
        },
        {
          "duration": 0.2447916666666572,
          "durationTicks": 47,
          "midi": 67,
          "name": "G4",
          "ticks": 32136,
          "time": 167.375,
          "velocity": 0.8661417322834646
        },
        {
          "duration": 0.11979166666665719,
          "durationTicks": 23,
          "midi": 67,
          "name": "G4",
          "ticks": 32184,
          "time": 167.625,
          "velocity": 0.8661417322834646
        },
        {
          "duration": 0.2447916666666572,
          "durationTicks": 47,
          "midi": 63,
          "name": "D#4",
          "ticks": 32208,
          "time": 167.75,
          "velocity": 0.8661417322834646
        },
        {
          "duration": 0.875,
          "durationTicks": 168,
          "midi": 65,
          "name": "F4",
          "ticks": 32256,
          "time": 168,
          "velocity": 0.8661417322834646
        },
        {
          "duration": 0.3697916666666572,
          "durationTicks": 71,
          "midi": 63,
          "name": "D#4",
          "ticks": 32448,
          "time": 169,
          "velocity": 0.8661417322834646
        },
        {
          "duration": 0.3697916666666572,
          "durationTicks": 71,
          "midi": 63,
          "name": "D#4",
          "ticks": 32520,
          "time": 169.375,
          "velocity": 0.8661417322834646
        },
        {
          "duration": 0.2447916666666572,
          "durationTicks": 47,
          "midi": 62,
          "name": "D4",
          "ticks": 32592,
          "time": 169.75,
          "velocity": 0.8661417322834646
        },
        {
          "duration": 0.3697916666666572,
          "durationTicks": 71,
          "midi": 63,
          "name": "D#4",
          "ticks": 32640,
          "time": 170,
          "velocity": 0.8661417322834646
        },
        {
          "duration": 0.3697916666666572,
          "durationTicks": 71,
          "midi": 63,
          "name": "D#4",
          "ticks": 32712,
          "time": 170.375,
          "velocity": 0.8661417322834646
        },
        {
          "duration": 0.2447916666666572,
          "durationTicks": 47,
          "midi": 62,
          "name": "D4",
          "ticks": 32784,
          "time": 170.75,
          "velocity": 0.8661417322834646
        },
        {
          "duration": 0.3697916666666572,
          "durationTicks": 71,
          "midi": 63,
          "name": "D#4",
          "ticks": 33216,
          "time": 173,
          "velocity": 0.8661417322834646
        },
        {
          "duration": 0.3697916666666572,
          "durationTicks": 71,
          "midi": 63,
          "name": "D#4",
          "ticks": 33288,
          "time": 173.375,
          "velocity": 0.8661417322834646
        },
        {
          "duration": 0.2447916666666572,
          "durationTicks": 47,
          "midi": 62,
          "name": "D4",
          "ticks": 33360,
          "time": 173.75,
          "velocity": 0.8661417322834646
        },
        {
          "duration": 0.3697916666666572,
          "durationTicks": 71,
          "midi": 63,
          "name": "D#4",
          "ticks": 33408,
          "time": 174,
          "velocity": 0.8661417322834646
        },
        {
          "duration": 0.3697916666666572,
          "durationTicks": 71,
          "midi": 63,
          "name": "D#4",
          "ticks": 33480,
          "time": 174.375,
          "velocity": 0.8661417322834646
        },
        {
          "duration": 0.2447916666666572,
          "durationTicks": 47,
          "midi": 62,
          "name": "D4",
          "ticks": 33552,
          "time": 174.75,
          "velocity": 0.8661417322834646
        }
      ]
    },
    {
      "channel": 0,
      "controlChanges": {
        "6": [
          {
            "number": 6,
            "ticks": 0,
            "time": 0,
            "value": 0.09448818897637795
          }
        ],
        "7": [
          {
            "number": 7,
            "ticks": 0,
            "time": 0,
            "value": 0.7874015748031497
          },
          {
            "number": 7,
            "ticks": 0,
            "time": 0,
            "value": 0.7874015748031497
          }
        ],
        "10": [
          {
            "number": 10,
            "ticks": 0,
            "time": 0,
            "value": 0.5039370078740157
          },
          {
            "number": 10,
            "ticks": 0,
            "time": 0,
            "value": 0.5039370078740157
          }
        ],
        "100": [
          {
            "number": 100,
            "ticks": 0,
            "time": 0,
            "value": 0
          }
        ],
        "101": [
          {
            "number": 101,
            "ticks": 0,
            "time": 0,
            "value": 0
          }
        ]
      },
      "pitchBends": [
        {
          "ticks": 0,
          "time": 0,
          "value": 0
        },
        {
          "ticks": 0,
          "time": 0,
          "value": 0
        }
      ],
      "instrument": {
        "family": "piano",
        "number": 0,
        "name": "acoustic grand piano"
      },
      "name": "Reverse Cymbal",
      "notes": [],
      "endOfTrackTicks": 34195
    },
    {
      "channel": 6,
      "controlChanges": {
        "6": [
          {
            "number": 6,
            "ticks": 0,
            "time": 0,
            "value": 0.09448818897637795
          },
          {
            "number": 6,
            "ticks": 0,
            "time": 0,
            "value": 0.09448818897637795
          },
          {
            "number": 6,
            "ticks": 34176,
            "time": 178,
            "value": 0.09448818897637795
          },
          {
            "number": 6,
            "ticks": 34177,
            "time": 178.00520833333334,
            "value": 0.09448818897637795
          }
        ],
        "7": [
          {
            "number": 7,
            "ticks": 0,
            "time": 0,
            "value": 0.7874015748031497
          },
          {
            "number": 7,
            "ticks": 0,
            "time": 0,
            "value": 0.7874015748031497
          },
          {
            "number": 7,
            "ticks": 34176,
            "time": 178,
            "value": 0.7874015748031497
          },
          {
            "number": 7,
            "ticks": 34177,
            "time": 178.00520833333334,
            "value": 0.7874015748031497
          }
        ],
        "10": [
          {
            "number": 10,
            "ticks": 0,
            "time": 0,
            "value": 0.5039370078740157
          },
          {
            "number": 10,
            "ticks": 0,
            "time": 0,
            "value": 0.5039370078740157
          },
          {
            "number": 10,
            "ticks": 34176,
            "time": 178,
            "value": 0.5039370078740157
          },
          {
            "number": 10,
            "ticks": 34177,
            "time": 178.00520833333334,
            "value": 0.5039370078740157
          }
        ],
        "100": [
          {
            "number": 100,
            "ticks": 0,
            "time": 0,
            "value": 0
          },
          {
            "number": 100,
            "ticks": 0,
            "time": 0,
            "value": 0
          },
          {
            "number": 100,
            "ticks": 34176,
            "time": 178,
            "value": 0
          },
          {
            "number": 100,
            "ticks": 34177,
            "time": 178.00520833333334,
            "value": 0
          }
        ],
        "101": [
          {
            "number": 101,
            "ticks": 0,
            "time": 0,
            "value": 0
          },
          {
            "number": 101,
            "ticks": 0,
            "time": 0,
            "value": 0
          },
          {
            "number": 101,
            "ticks": 34176,
            "time": 178,
            "value": 0
          },
          {
            "number": 101,
            "ticks": 34177,
            "time": 178.00520833333334,
            "value": 0
          }
        ]
      },
      "pitchBends": [
        {
          "ticks": 0,
          "time": 0,
          "value": 0
        },
        {
          "ticks": 0,
          "time": 0,
          "value": 0
        },
        {
          "ticks": 34176,
          "time": 178,
          "value": 0
        },
        {
          "ticks": 34177,
          "time": 178.00520833333334,
          "value": 0
        }
      ],
      "instrument": {
        "family": "percussive",
        "number": 119,
        "name": "reverse cymbal"
      },
      "name": "",
      "notes": [
        {
          "duration": 0.5,
          "durationTicks": 96,
          "midi": 59,
          "name": "B3",
          "ticks": 96,
          "time": 0.5,
          "velocity": 0.7874015748031497
        },
        {
          "duration": 1,
          "durationTicks": 192,
          "midi": 59,
          "name": "B3",
          "ticks": 3840,
          "time": 20,
          "velocity": 0.7874015748031497
        },
        {
          "duration": 1,
          "durationTicks": 192,
          "midi": 59,
          "name": "B3",
          "ticks": 6912,
          "time": 36,
          "velocity": 0.7874015748031497
        },
        {
          "duration": 1,
          "durationTicks": 192,
          "midi": 59,
          "name": "B3",
          "ticks": 10752,
          "time": 56,
          "velocity": 0.7874015748031497
        },
        {
          "duration": 1,
          "durationTicks": 192,
          "midi": 59,
          "name": "B3",
          "ticks": 13824,
          "time": 72,
          "velocity": 0.7874015748031497
        },
        {
          "duration": 1,
          "durationTicks": 192,
          "midi": 59,
          "name": "B3",
          "ticks": 17664,
          "time": 92,
          "velocity": 0.7874015748031497
        },
        {
          "duration": 1,
          "durationTicks": 192,
          "midi": 59,
          "name": "B3",
          "ticks": 20736,
          "time": 108,
          "velocity": 0.7874015748031497
        },
        {
          "duration": 1,
          "durationTicks": 192,
          "midi": 59,
          "name": "B3",
          "ticks": 22272,
          "time": 116,
          "velocity": 0.7874015748031497
        },
        {
          "duration": 1,
          "durationTicks": 192,
          "midi": 59,
          "name": "B3",
          "ticks": 26112,
          "time": 136,
          "velocity": 0.7874015748031497
        },
        {
          "duration": 1,
          "durationTicks": 192,
          "midi": 59,
          "name": "B3",
          "ticks": 29952,
          "time": 156,
          "velocity": 0.7874015748031497
        },
        {
          "duration": 1,
          "durationTicks": 192,
          "midi": 59,
          "name": "B3",
          "ticks": 33792,
          "time": 176,
          "velocity": 0.7874015748031497
        }
      ]
    }
  ]
}