{
  "header": {
    "keySignatures": [],
    "meta": {
      "title": "Ma Baker",
      "artist": "Boney M.",
      "creator": "unknown"
    },
    "name": "",
    "ppq": 192,
    "tempos": [
      {
        "bpm": 128,
        "ticks": 0
      }
    ],
    "timeSignatures": [
      {
        "ticks": 0,
        "timeSignature": [
          4,
          4
        ],
        "measures": 0
      },
      {
        "ticks": 30720,
        "timeSignature": [
          2,
          4
        ],
        "measures": 40
      },
      {
        "ticks": 31104,
        "timeSignature": [
          4,
          4
        ],
        "measures": 41
      },
      {
        "ticks": 51840,
        "timeSignature": [
          2,
          4
        ],
        "measures": 68
      },
      {
        "ticks": 52224,
        "timeSignature": [
          4,
          4
        ],
        "measures": 69
      },
      {
        "ticks": 94464,
        "timeSignature": [
          2,
          4
        ],
        "measures": 124
      },
      {
        "ticks": 94848,
        "timeSignature": [
          4,
          4
        ],
        "measures": 125
      },
      {
        "ticks": 106368,
        "timeSignature": [
          2,
          4
        ],
        "measures": 140
      },
      {
        "ticks": 106752,
        "timeSignature": [
          4,
          4
        ],
        "measures": 141
      }
    ]
  },
  "tracks": [
    {
      "channel": 0,
      "controlChanges": {},
      "pitchBends": [],
      "instrument": {
        "family": "piano",
        "number": 0,
        "name": "acoustic grand piano"
      },
      "name": "My baker",
      "notes": [],
      "endOfTrackTicks": 112128
    },
    {
      "channel": 0,
      "controlChanges": {
        "0": [
          {
            "number": 0,
            "ticks": 194,
            "time": 0.47363281250000006,
            "value": 0
          }
        ],
        "32": [
          {
            "number": 32,
            "ticks": 196,
            "time": 0.47851562499999994,
            "value": 0
          }
        ],
        "121": [
          {
            "number": 121,
            "ticks": 192,
            "time": 0.46875,
            "value": 0
          }
        ]
      },
      "pitchBends": [],
      "instrument": {
        "family": "piano",
        "number": 0,
        "name": "acoustic grand piano"
      },
      "name": "",
      "notes": [],
      "endOfTrackTicks": 112128
    },
    {
      "channel": 0,
      "controlChanges": {
        "7": [
          {
            "number": 7,
            "ticks": 200,
            "time": 0.48828125000000006,
            "value": 0.7952755905511811
          }
        ],
        "10": [
          {
            "number": 10,
            "ticks": 202,
            "time": 0.49316406249999994,
            "value": 0.3464566929133858
          }
        ],
        "11": [
          {
            "number": 11,
            "ticks": 204,
            "time": 0.498046875,
            "value": 1
          }
        ],
        "91": [
          {
            "number": 91,
            "ticks": 206,
            "time": 0.5029296875,
            "value": 1
          }
        ],
        "93": [
          {
            "number": 93,
            "ticks": 208,
            "time": 0.5078125,
            "value": 0.2755905511811024
          }
        ]
      },
      "pitchBends": [
        {
          "ticks": 4567,
          "time": 11.14990234375,
          "value": -0.171875
        },
        {
          "ticks": 4577,
          "time": 11.17431640625,
          "value": -0.421875
        },
        {
          "ticks": 4588,
          "time": 11.201171875,
          "value": -0.703125
        },
        {
          "ticks": 4600,
          "time": 11.23046875,
          "value": -1
        },
        {
          "ticks": 4608,
          "time": 11.25,
          "value": 0
        },
        {
          "ticks": 5328,
          "time": 13.0078125,
          "value": -0.1875
        },
        {
          "ticks": 5337,
          "time": 13.02978515625,
          "value": -0.4375
        },
        {
          "ticks": 5346,
          "time": 13.0517578125,
          "value": -0.703125
        },
        {
          "ticks": 5358,
          "time": 13.0810546875,
          "value": -1
        },
        {
          "ticks": 5376,
          "time": 13.125,
          "value": 0
        },
        {
          "ticks": 6096,
          "time": 14.8828125,
          "value": -0.234375
        },
        {
          "ticks": 6105,
          "time": 14.90478515625,
          "value": -0.484375
        },
        {
          "ticks": 6117,
          "time": 14.93408203125,
          "value": -0.703125
        },
        {
          "ticks": 6125,
          "time": 14.95361328125,
          "value": -1
        },
        {
          "ticks": 6144,
          "time": 15,
          "value": 0
        },
        {
          "ticks": 6864,
          "time": 16.7578125,
          "value": -0.234375
        },
        {
          "ticks": 6873,
          "time": 16.77978515625,
          "value": -0.40625
        },
        {
          "ticks": 6887,
          "time": 16.81396484375,
          "value": -0.71875
        },
        {
          "ticks": 6898,
          "time": 16.8408203125,
          "value": -1
        },
        {
          "ticks": 6909,
          "time": 16.86767578125,
          "value": 0
        },
        {
          "ticks": 72919,
          "time": 178.02490234375,
          "value": -0.1688232421875
        },
        {
          "ticks": 72929,
          "time": 178.04931640625,
          "value": -0.40673828125
        },
        {
          "ticks": 72940,
          "time": 178.076171875,
          "value": -0.6888427734375
        },
        {
          "ticks": 72952,
          "time": 178.10546875,
          "value": -0.9862060546875
        },
        {
          "ticks": 72960,
          "time": 178.125,
          "value": 0
        },
        {
          "ticks": 73680,
          "time": 179.8828125,
          "value": -0.1741943359375
        },
        {
          "ticks": 73689,
          "time": 179.90478515625,
          "value": -0.4312744140625
        },
        {
          "ticks": 73698,
          "time": 179.9267578125,
          "value": -0.6990966796875
        },
        {
          "ticks": 73710,
          "time": 179.9560546875,
          "value": -1
        },
        {
          "ticks": 73728,
          "time": 180,
          "value": 0
        },
        {
          "ticks": 74448,
          "time": 181.7578125,
          "value": -0.222412109375
        },
        {
          "ticks": 74457,
          "time": 181.77978515625,
          "value": -0.46923828125
        },
        {
          "ticks": 74469,
          "time": 181.80908203125,
          "value": -0.6982421875
        },
        {
          "ticks": 74477,
          "time": 181.82861328125,
          "value": -0.9937744140625
        },
        {
          "ticks": 74496,
          "time": 181.875,
          "value": 0
        },
        {
          "ticks": 75216,
          "time": 183.6328125,
          "value": -0.22509765625
        },
        {
          "ticks": 75225,
          "time": 183.65478515625,
          "value": -0.4005126953125
        },
        {
          "ticks": 75239,
          "time": 183.68896484375,
          "value": -0.7178955078125
        },
        {
          "ticks": 75250,
          "time": 183.7158203125,
          "value": -0.9884033203125
        },
        {
          "ticks": 75261,
          "time": 183.74267578125,
          "value": 0
        }
      ],
      "instrument": {
        "family": "guitar",
        "number": 27,
        "name": "electric guitar (clean)"
      },
      "name": "",
      "notes": [
        {
          "duration": 0.0537109375,
          "durationTicks": 22,
          "midi": 78,
          "name": "F#5",
          "ticks": 4320,
          "time": 10.546875,
          "velocity": 0.6299212598425197
        },
        {
          "duration": 0.029296875,
          "durationTicks": 12,
          "midi": 74,
          "name": "D5",
          "ticks": 4320,
          "time": 10.546875,
          "velocity": 0.6299212598425197
        },
        {
          "duration": 0.029296875,
          "durationTicks": 12,
          "midi": 70,
          "name": "A#4",
          "ticks": 4320,
          "time": 10.546875,
          "velocity": 0.6299212598425197
        },
        {
          "duration": 0.0537109375,
          "durationTicks": 22,
          "midi": 66,
          "name": "F#4",
          "ticks": 4320,
          "time": 10.546875,
          "velocity": 0.6299212598425197
        },
        {
          "duration": 0.0537109375,
          "durationTicks": 22,
          "midi": 78,
          "name": "F#5",
          "ticks": 4368,
          "time": 10.6640625,
          "velocity": 0.6929133858267716
        },
        {
          "duration": 0.01953125,
          "durationTicks": 8,
          "midi": 74,
          "name": "D5",
          "ticks": 4368,
          "time": 10.6640625,
          "velocity": 0.6929133858267716
        },
        {
          "duration": 0.01953125,
          "durationTicks": 8,
          "midi": 70,
          "name": "A#4",
          "ticks": 4368,
          "time": 10.6640625,
          "velocity": 0.6929133858267716
        },
        {
          "duration": 0.0537109375,
          "durationTicks": 22,
          "midi": 66,
          "name": "F#4",
          "ticks": 4368,
          "time": 10.6640625,
          "velocity": 0.6929133858267716
        },
        {
          "duration": 0.46875,
          "durationTicks": 192,
          "midi": 78,
          "name": "F#5",
          "ticks": 4416,
          "time": 10.78125,
          "velocity": 0.7637795275590551
        },
        {
          "duration": 0.46875,
          "durationTicks": 192,
          "midi": 74,
          "name": "D5",
          "ticks": 4416,
          "time": 10.78125,
          "velocity": 0.7637795275590551
        },
        {
          "duration": 0.46875,
          "durationTicks": 192,
          "midi": 70,
          "name": "A#4",
          "ticks": 4416,
          "time": 10.78125,
          "velocity": 0.7637795275590551
        },
        {
          "duration": 0.46875,
          "durationTicks": 192,
          "midi": 66,
          "name": "F#4",
          "ticks": 4416,
          "time": 10.78125,
          "velocity": 0.7637795275590551
        },
        {
          "duration": 0.04150390625,
          "durationTicks": 17,
          "midi": 78,
          "name": "F#5",
          "ticks": 5088,
          "time": 12.421875,
          "velocity": 0.6062992125984252
        },
        {
          "duration": 0.029296875,
          "durationTicks": 12,
          "midi": 74,
          "name": "D5",
          "ticks": 5088,
          "time": 12.421875,
          "velocity": 0.6062992125984252
        },
        {
          "duration": 0.01953125,
          "durationTicks": 8,
          "midi": 70,
          "name": "A#4",
          "ticks": 5088,
          "time": 12.421875,
          "velocity": 0.6062992125984252
        },
        {
          "duration": 0.05859375,
          "durationTicks": 24,
          "midi": 66,
          "name": "F#4",
          "ticks": 5088,
          "time": 12.421875,
          "velocity": 0.6062992125984252
        },
        {
          "duration": 0.06103515625,
          "durationTicks": 25,
          "midi": 78,
          "name": "F#5",
          "ticks": 5136,
          "time": 12.5390625,
          "velocity": 0.6535433070866141
        },
        {
          "duration": 0.02685546875,
          "durationTicks": 11,
          "midi": 74,
          "name": "D5",
          "ticks": 5136,
          "time": 12.5390625,
          "velocity": 0.6535433070866141
        },
        {
          "duration": 0.03173828125,
          "durationTicks": 13,
          "midi": 70,
          "name": "A#4",
          "ticks": 5136,
          "time": 12.5390625,
          "velocity": 0.6535433070866141
        },
        {
          "duration": 0.0634765625,
          "durationTicks": 26,
          "midi": 66,
          "name": "F#4",
          "ticks": 5136,
          "time": 12.5390625,
          "velocity": 0.6535433070866141
        },
        {
          "duration": 0.46875,
          "durationTicks": 192,
          "midi": 78,
          "name": "F#5",
          "ticks": 5184,
          "time": 12.65625,
          "velocity": 0.7086614173228346
        },
        {
          "duration": 0.46875,
          "durationTicks": 192,
          "midi": 74,
          "name": "D5",
          "ticks": 5184,
          "time": 12.65625,
          "velocity": 0.7086614173228346
        },
        {
          "duration": 0.46875,
          "durationTicks": 192,
          "midi": 70,
          "name": "A#4",
          "ticks": 5184,
          "time": 12.65625,
          "velocity": 0.7086614173228346
        },
        {
          "duration": 0.46875,
          "durationTicks": 192,
          "midi": 66,
          "name": "F#4",
          "ticks": 5184,
          "time": 12.65625,
          "velocity": 0.7086614173228346
        },
        {
          "duration": 0.0390625,
          "durationTicks": 16,
          "midi": 77,
          "name": "F5",
          "ticks": 5856,
          "time": 14.296875,
          "velocity": 0.6141732283464567
        },
        {
          "duration": 0.0439453125,
          "durationTicks": 18,
          "midi": 73,
          "name": "C#5",
          "ticks": 5856,
          "time": 14.296875,
          "velocity": 0.6141732283464567
        },
        {
          "duration": 0.0439453125,
          "durationTicks": 18,
          "midi": 70,
          "name": "A#4",
          "ticks": 5856,
          "time": 14.296875,
          "velocity": 0.6141732283464567
        },
        {
          "duration": 0.05126953125,
          "durationTicks": 21,
          "midi": 65,
          "name": "F4",
          "ticks": 5856,
          "time": 14.296875,
          "velocity": 0.6141732283464567
        },
        {
          "duration": 0.04150390625,
          "durationTicks": 17,
          "midi": 77,
          "name": "F5",
          "ticks": 5904,
          "time": 14.4140625,
          "velocity": 0.6456692913385826
        },
        {
          "duration": 0.04150390625,
          "durationTicks": 17,
          "midi": 73,
          "name": "C#5",
          "ticks": 5904,
          "time": 14.4140625,
          "velocity": 0.6456692913385826
        },
        {
          "duration": 0.0390625,
          "durationTicks": 16,
          "midi": 70,
          "name": "A#4",
          "ticks": 5904,
          "time": 14.4140625,
          "velocity": 0.6456692913385826
        },
        {
          "duration": 0.0537109375,
          "durationTicks": 22,
          "midi": 65,
          "name": "F4",
          "ticks": 5904,
          "time": 14.4140625,
          "velocity": 0.6456692913385826
        },
        {
          "duration": 0.46875,
          "durationTicks": 192,
          "midi": 77,
          "name": "F5",
          "ticks": 5952,
          "time": 14.53125,
          "velocity": 0.6850393700787402
        },
        {
          "duration": 0.46875,
          "durationTicks": 192,
          "midi": 73,
          "name": "C#5",
          "ticks": 5952,
          "time": 14.53125,
          "velocity": 0.6850393700787402
        },
        {
          "duration": 0.46875,
          "durationTicks": 192,
          "midi": 70,
          "name": "A#4",
          "ticks": 5952,
          "time": 14.53125,
          "velocity": 0.6850393700787402
        },
        {
          "duration": 0.46875,
          "durationTicks": 192,
          "midi": 65,
          "name": "F4",
          "ticks": 5952,
          "time": 14.53125,
          "velocity": 0.6850393700787402
        },
        {
          "duration": 0.05126953125,
          "durationTicks": 21,
          "midi": 80,
          "name": "G#5",
          "ticks": 6624,
          "time": 16.171875,
          "velocity": 0.6692913385826772
        },
        {
          "duration": 0.0341796875,
          "durationTicks": 14,
          "midi": 77,
          "name": "F5",
          "ticks": 6624,
          "time": 16.171875,
          "velocity": 0.6692913385826772
        },
        {
          "duration": 0.0390625,
          "durationTicks": 16,
          "midi": 74,
          "name": "D5",
          "ticks": 6624,
          "time": 16.171875,
          "velocity": 0.6692913385826772
        },
        {
          "duration": 0.0537109375,
          "durationTicks": 22,
          "midi": 70,
          "name": "A#4",
          "ticks": 6624,
          "time": 16.171875,
          "velocity": 0.6692913385826772
        },
        {
          "duration": 0.04638671875,
          "durationTicks": 19,
          "midi": 80,
          "name": "G#5",
          "ticks": 6672,
          "time": 16.2890625,
          "velocity": 0.6850393700787402
        },
        {
          "duration": 0.0244140625,
          "durationTicks": 10,
          "midi": 77,
          "name": "F5",
          "ticks": 6672,
          "time": 16.2890625,
          "velocity": 0.6850393700787402
        },
        {
          "duration": 0.03662109375,
          "durationTicks": 15,
          "midi": 74,
          "name": "D5",
          "ticks": 6672,
          "time": 16.2890625,
          "velocity": 0.6850393700787402
        },
        {
          "duration": 0.05615234375,
          "durationTicks": 23,
          "midi": 70,
          "name": "A#4",
          "ticks": 6672,
          "time": 16.2890625,
          "velocity": 0.6850393700787402
        },
        {
          "duration": 0.46875,
          "durationTicks": 192,
          "midi": 80,
          "name": "G#5",
          "ticks": 6720,
          "time": 16.40625,
          "velocity": 0.6929133858267716
        },
        {
          "duration": 0.46875,
          "durationTicks": 192,
          "midi": 77,
          "name": "F5",
          "ticks": 6720,
          "time": 16.40625,
          "velocity": 0.6929133858267716
        },
        {
          "duration": 0.46875,
          "durationTicks": 192,
          "midi": 74,
          "name": "D5",
          "ticks": 6720,
          "time": 16.40625,
          "velocity": 0.6929133858267716
        },
        {
          "duration": 0.46875,
          "durationTicks": 192,
          "midi": 70,
          "name": "A#4",
          "ticks": 6720,
          "time": 16.40625,
          "velocity": 0.6929133858267716
        },
        {
          "duration": 0.07080078125,
          "durationTicks": 29,
          "midi": 77,
          "name": "F5",
          "ticks": 7392,
          "time": 18.046875,
          "velocity": 0.6299212598425197
        },
        {
          "duration": 0.06591796875,
          "durationTicks": 27,
          "midi": 73,
          "name": "C#5",
          "ticks": 7392,
          "time": 18.046875,
          "velocity": 0.6299212598425197
        },
        {
          "duration": 0.078125,
          "durationTicks": 32,
          "midi": 68,
          "name": "G#4",
          "ticks": 7392,
          "time": 18.046875,
          "velocity": 0.6299212598425197
        },
        {
          "duration": 0.06103515625,
          "durationTicks": 25,
          "midi": 77,
          "name": "F5",
          "ticks": 7440,
          "time": 18.1640625,
          "velocity": 0.6535433070866141
        },
        {
          "duration": 0.048828125,
          "durationTicks": 20,
          "midi": 73,
          "name": "C#5",
          "ticks": 7440,
          "time": 18.1640625,
          "velocity": 0.6535433070866141
        },
        {
          "duration": 0.06591796875,
          "durationTicks": 27,
          "midi": 68,
          "name": "G#4",
          "ticks": 7440,
          "time": 18.1640625,
          "velocity": 0.6535433070866141
        },
        {
          "duration": 0.29052734375,
          "durationTicks": 119,
          "midi": 77,
          "name": "F5",
          "ticks": 7488,
          "time": 18.28125,
          "velocity": 0.6771653543307087
        },
        {
          "duration": 0.28076171875,
          "durationTicks": 115,
          "midi": 73,
          "name": "C#5",
          "ticks": 7488,
          "time": 18.28125,
          "velocity": 0.6771653543307087
        },
        {
          "duration": 0.29052734375,
          "durationTicks": 119,
          "midi": 68,
          "name": "G#4",
          "ticks": 7488,
          "time": 18.28125,
          "velocity": 0.6771653543307087
        },
        {
          "duration": 0.029296875,
          "durationTicks": 12,
          "midi": 78,
          "name": "F#5",
          "ticks": 8160,
          "time": 19.921875,
          "velocity": 0.6377952755905512
        },
        {
          "duration": 0.0439453125,
          "durationTicks": 18,
          "midi": 75,
          "name": "D#5",
          "ticks": 8160,
          "time": 19.921875,
          "velocity": 0.6377952755905512
        },
        {
          "duration": 0.0439453125,
          "durationTicks": 18,
          "midi": 70,
          "name": "A#4",
          "ticks": 8160,
          "time": 19.921875,
          "velocity": 0.6377952755905512
        },
        {
          "duration": 0.0439453125,
          "durationTicks": 18,
          "midi": 78,
          "name": "F#5",
          "ticks": 8208,
          "time": 20.0390625,
          "velocity": 0.6614173228346457
        },
        {
          "duration": 0.03173828125,
          "durationTicks": 13,
          "midi": 75,
          "name": "D#5",
          "ticks": 8208,
          "time": 20.0390625,
          "velocity": 0.6614173228346457
        },
        {
          "duration": 0.048828125,
          "durationTicks": 20,
          "midi": 70,
          "name": "A#4",
          "ticks": 8208,
          "time": 20.0390625,
          "velocity": 0.6614173228346457
        },
        {
          "duration": 0.10986328125,
          "durationTicks": 45,
          "midi": 78,
          "name": "F#5",
          "ticks": 8256,
          "time": 20.15625,
          "velocity": 0.6850393700787402
        },
        {
          "duration": 0.12939453125,
          "durationTicks": 53,
          "midi": 75,
          "name": "D#5",
          "ticks": 8256,
          "time": 20.15625,
          "velocity": 0.6850393700787402
        },
        {
          "duration": 0.09765625,
          "durationTicks": 40,
          "midi": 70,
          "name": "A#4",
          "ticks": 8256,
          "time": 20.15625,
          "velocity": 0.6850393700787402
        },
        {
          "duration": 0.04150390625,
          "durationTicks": 17,
          "midi": 77,
          "name": "F5",
          "ticks": 8928,
          "time": 21.796875,
          "velocity": 0.6220472440944882
        },
        {
          "duration": 0.04150390625,
          "durationTicks": 17,
          "midi": 73,
          "name": "C#5",
          "ticks": 8928,
          "time": 21.796875,
          "velocity": 0.6220472440944882
        },
        {
          "duration": 0.0537109375,
          "durationTicks": 22,
          "midi": 68,
          "name": "G#4",
          "ticks": 8928,
          "time": 21.796875,
          "velocity": 0.6220472440944882
        },
        {
          "duration": 0.0390625,
          "durationTicks": 16,
          "midi": 77,
          "name": "F5",
          "ticks": 8976,
          "time": 21.9140625,
          "velocity": 0.6377952755905512
        },
        {
          "duration": 0.0390625,
          "durationTicks": 16,
          "midi": 73,
          "name": "C#5",
          "ticks": 8976,
          "time": 21.9140625,
          "velocity": 0.6377952755905512
        },
        {
          "duration": 0.06103515625,
          "durationTicks": 25,
          "midi": 68,
          "name": "G#4",
          "ticks": 8976,
          "time": 21.9140625,
          "velocity": 0.6377952755905512
        },
        {
          "duration": 0.3271484375,
          "durationTicks": 134,
          "midi": 77,
          "name": "F5",
          "ticks": 9024,
          "time": 22.03125,
          "velocity": 0.6614173228346457
        },
        {
          "duration": 0.33203125,
          "durationTicks": 136,
          "midi": 73,
          "name": "C#5",
          "ticks": 9024,
          "time": 22.03125,
          "velocity": 0.6614173228346457
        },
        {
          "duration": 0.33935546875,
          "durationTicks": 139,
          "midi": 68,
          "name": "G#4",
          "ticks": 9024,
          "time": 22.03125,
          "velocity": 0.6614173228346457
        },
        {
          "duration": 0.0390625,
          "durationTicks": 16,
          "midi": 78,
          "name": "F#5",
          "ticks": 9696,
          "time": 23.671875,
          "velocity": 0.6141732283464567
        },
        {
          "duration": 0.0390625,
          "durationTicks": 16,
          "midi": 75,
          "name": "D#5",
          "ticks": 9696,
          "time": 23.671875,
          "velocity": 0.6141732283464567
        },
        {
          "duration": 0.0439453125,
          "durationTicks": 18,
          "midi": 70,
          "name": "A#4",
          "ticks": 9696,
          "time": 23.671875,
          "velocity": 0.6141732283464567
        },
        {
          "duration": 0.0439453125,
          "durationTicks": 18,
          "midi": 78,
          "name": "F#5",
          "ticks": 9744,
          "time": 23.7890625,
          "velocity": 0.6535433070866141
        },
        {
          "duration": 0.029296875,
          "durationTicks": 12,
          "midi": 75,
          "name": "D#5",
          "ticks": 9744,
          "time": 23.7890625,
          "velocity": 0.6535433070866141
        },
        {
          "duration": 0.05126953125,
          "durationTicks": 21,
          "midi": 70,
          "name": "A#4",
          "ticks": 9744,
          "time": 23.7890625,
          "velocity": 0.6535433070866141
        },
        {
          "duration": 0.30029296875,
          "durationTicks": 123,
          "midi": 78,
          "name": "F#5",
          "ticks": 9792,
          "time": 23.90625,
          "velocity": 0.6850393700787402
        },
        {
          "duration": 0.302734375,
          "durationTicks": 124,
          "midi": 75,
          "name": "D#5",
          "ticks": 9792,
          "time": 23.90625,
          "velocity": 0.6850393700787402
        },
        {
          "duration": 0.302734375,
          "durationTicks": 124,
          "midi": 70,
          "name": "A#4",
          "ticks": 9792,
          "time": 23.90625,
          "velocity": 0.6850393700787402
        },
        {
          "duration": 0.0390625,
          "durationTicks": 16,
          "midi": 78,
          "name": "F#5",
          "ticks": 10464,
          "time": 25.546875,
          "velocity": 0.6377952755905512
        },
        {
          "duration": 0.0390625,
          "durationTicks": 16,
          "midi": 75,
          "name": "D#5",
          "ticks": 10464,
          "time": 25.546875,
          "velocity": 0.6377952755905512
        },
        {
          "duration": 0.05859375,
          "durationTicks": 24,
          "midi": 70,
          "name": "A#4",
          "ticks": 10464,
          "time": 25.546875,
          "velocity": 0.6377952755905512
        },
        {
          "duration": 0.0390625,
          "durationTicks": 16,
          "midi": 78,
          "name": "F#5",
          "ticks": 10512,
          "time": 25.6640625,
          "velocity": 0.6614173228346457
        },
        {
          "duration": 0.029296875,
          "durationTicks": 12,
          "midi": 75,
          "name": "D#5",
          "ticks": 10512,
          "time": 25.6640625,
          "velocity": 0.6614173228346457
        },
        {
          "duration": 0.0634765625,
          "durationTicks": 26,
          "midi": 70,
          "name": "A#4",
          "ticks": 10512,
          "time": 25.6640625,
          "velocity": 0.6614173228346457
        },
        {
          "duration": 0.34912109375,
          "durationTicks": 143,
          "midi": 78,
          "name": "F#5",
          "ticks": 10560,
          "time": 25.78125,
          "velocity": 0.6771653543307087
        },
        {
          "duration": 0.33447265625,
          "durationTicks": 137,
          "midi": 75,
          "name": "D#5",
          "ticks": 10560,
          "time": 25.78125,
          "velocity": 0.6771653543307087
        },
        {
          "duration": 0.3564453125,
          "durationTicks": 146,
          "midi": 70,
          "name": "A#4",
          "ticks": 10560,
          "time": 25.78125,
          "velocity": 0.6771653543307087
        },
        {
          "duration": 0.0390625,
          "durationTicks": 16,
          "midi": 78,
          "name": "F#5",
          "ticks": 11232,
          "time": 27.421875,
          "velocity": 0.6141732283464567
        },
        {
          "duration": 0.03662109375,
          "durationTicks": 15,
          "midi": 75,
          "name": "D#5",
          "ticks": 11232,
          "time": 27.421875,
          "velocity": 0.6141732283464567
        },
        {
          "duration": 0.0537109375,
          "durationTicks": 22,
          "midi": 70,
          "name": "A#4",
          "ticks": 11232,
          "time": 27.421875,
          "velocity": 0.6141732283464567
        },
        {
          "duration": 0.0439453125,
          "durationTicks": 18,
          "midi": 78,
          "name": "F#5",
          "ticks": 11280,
          "time": 27.5390625,
          "velocity": 0.6377952755905512
        },
        {
          "duration": 0.029296875,
          "durationTicks": 12,
          "midi": 75,
          "name": "D#5",
          "ticks": 11280,
          "time": 27.5390625,
          "velocity": 0.6377952755905512
        },
        {
          "duration": 0.0537109375,
          "durationTicks": 22,
          "midi": 70,
          "name": "A#4",
          "ticks": 11280,
          "time": 27.5390625,
          "velocity": 0.6377952755905512
        },
        {
          "duration": 0.28076171875,
          "durationTicks": 115,
          "midi": 78,
          "name": "F#5",
          "ticks": 11328,
          "time": 27.65625,
          "velocity": 0.6614173228346457
        },
        {
          "duration": 0.2734375,
          "durationTicks": 112,
          "midi": 75,
          "name": "D#5",
          "ticks": 11328,
          "time": 27.65625,
          "velocity": 0.6614173228346457
        },
        {
          "duration": 0.28564453125,
          "durationTicks": 117,
          "midi": 70,
          "name": "A#4",
          "ticks": 11328,
          "time": 27.65625,
          "velocity": 0.6614173228346457
        },
        {
          "duration": 0.07080078125,
          "durationTicks": 29,
          "midi": 77,
          "name": "F5",
          "ticks": 12000,
          "time": 29.296875,
          "velocity": 0.6220472440944882
        },
        {
          "duration": 0.06591796875,
          "durationTicks": 27,
          "midi": 73,
          "name": "C#5",
          "ticks": 12000,
          "time": 29.296875,
          "velocity": 0.6220472440944882
        },
        {
          "duration": 0.078125,
          "durationTicks": 32,
          "midi": 68,
          "name": "G#4",
          "ticks": 12000,
          "time": 29.296875,
          "velocity": 0.6220472440944882
        },
        {
          "duration": 0.06103515625,
          "durationTicks": 25,
          "midi": 77,
          "name": "F5",
          "ticks": 12048,
          "time": 29.4140625,
          "velocity": 0.6456692913385826
        },
        {
          "duration": 0.048828125,
          "durationTicks": 20,
          "midi": 73,
          "name": "C#5",
          "ticks": 12048,
          "time": 29.4140625,
          "velocity": 0.6456692913385826
        },
        {
          "duration": 0.06591796875,
          "durationTicks": 27,
          "midi": 68,
          "name": "G#4",
          "ticks": 12048,
          "time": 29.4140625,
          "velocity": 0.6456692913385826
        },
        {
          "duration": 0.29052734375,
          "durationTicks": 119,
          "midi": 77,
          "name": "F5",
          "ticks": 12096,
          "time": 29.53125,
          "velocity": 0.6771653543307087
        },
        {
          "duration": 0.28076171875,
          "durationTicks": 115,
          "midi": 73,
          "name": "C#5",
          "ticks": 12096,
          "time": 29.53125,
          "velocity": 0.6771653543307087
        },
        {
          "duration": 0.29052734375,
          "durationTicks": 119,
          "midi": 68,
          "name": "G#4",
          "ticks": 12096,
          "time": 29.53125,
          "velocity": 0.6771653543307087
        },
        {
          "duration": 0.029296875,
          "durationTicks": 12,
          "midi": 78,
          "name": "F#5",
          "ticks": 12768,
          "time": 31.171875,
          "velocity": 0.6456692913385826
        },
        {
          "duration": 0.0439453125,
          "durationTicks": 18,
          "midi": 75,
          "name": "D#5",
          "ticks": 12768,
          "time": 31.171875,
          "velocity": 0.6456692913385826
        },
        {
          "duration": 0.0439453125,
          "durationTicks": 18,
          "midi": 70,
          "name": "A#4",
          "ticks": 12768,
          "time": 31.171875,
          "velocity": 0.6456692913385826
        },
        {
          "duration": 0.0439453125,
          "durationTicks": 18,
          "midi": 78,
          "name": "F#5",
          "ticks": 12816,
          "time": 31.2890625,
          "velocity": 0.6692913385826772
        },
        {
          "duration": 0.03173828124999645,
          "durationTicks": 13,
          "midi": 75,
          "name": "D#5",
          "ticks": 12816,
          "time": 31.2890625,
          "velocity": 0.6692913385826772
        },
        {
          "duration": 0.04882812500000355,
          "durationTicks": 20,
          "midi": 70,
          "name": "A#4",
          "ticks": 12816,
          "time": 31.2890625,
          "velocity": 0.6692913385826772
        },
        {
          "duration": 0.10986328125,
          "durationTicks": 45,
          "midi": 78,
          "name": "F#5",
          "ticks": 12864,
          "time": 31.40625,
          "velocity": 0.6850393700787402
        },
        {
          "duration": 0.12939453125000355,
          "durationTicks": 53,
          "midi": 75,
          "name": "D#5",
          "ticks": 12864,
          "time": 31.40625,
          "velocity": 0.6850393700787402
        },
        {
          "duration": 0.09765624999999645,
          "durationTicks": 40,
          "midi": 70,
          "name": "A#4",
          "ticks": 12864,
          "time": 31.40625,
          "velocity": 0.6850393700787402
        },
        {
          "duration": 0.04150390625,
          "durationTicks": 17,
          "midi": 77,
          "name": "F5",
          "ticks": 13536,
          "time": 33.046875,
          "velocity": 0.6220472440944882
        },
        {
          "duration": 0.04150390625,
          "durationTicks": 17,
          "midi": 73,
          "name": "C#5",
          "ticks": 13536,
          "time": 33.046875,
          "velocity": 0.6220472440944882
        },
        {
          "duration": 0.0537109375,
          "durationTicks": 22,
          "midi": 68,
          "name": "G#4",
          "ticks": 13536,
          "time": 33.046875,
          "velocity": 0.6220472440944882
        },
        {
          "duration": 0.0390625,
          "durationTicks": 16,
          "midi": 77,
          "name": "F5",
          "ticks": 13584,
          "time": 33.1640625,
          "velocity": 0.6535433070866141
        },
        {
          "duration": 0.0390625,
          "durationTicks": 16,
          "midi": 73,
          "name": "C#5",
          "ticks": 13584,
          "time": 33.1640625,
          "velocity": 0.6535433070866141
        },
        {
          "duration": 0.06103515625,
          "durationTicks": 25,
          "midi": 68,
          "name": "G#4",
          "ticks": 13584,
          "time": 33.1640625,
          "velocity": 0.6535433070866141
        },
        {
          "duration": 0.3271484375,
          "durationTicks": 134,
          "midi": 77,
          "name": "F5",
          "ticks": 13632,
          "time": 33.28125,
          "velocity": 0.6850393700787402
        },
        {
          "duration": 0.33203125,
          "durationTicks": 136,
          "midi": 73,
          "name": "C#5",
          "ticks": 13632,
          "time": 33.28125,
          "velocity": 0.6850393700787402
        },
        {
          "duration": 0.33935546875,
          "durationTicks": 139,
          "midi": 68,
          "name": "G#4",
          "ticks": 13632,
          "time": 33.28125,
          "velocity": 0.6850393700787402
        },
        {
          "duration": 0.0390625,
          "durationTicks": 16,
          "midi": 78,
          "name": "F#5",
          "ticks": 14304,
          "time": 34.921875,
          "velocity": 0.6456692913385826
        },
        {
          "duration": 0.0390625,
          "durationTicks": 16,
          "midi": 75,
          "name": "D#5",
          "ticks": 14304,
          "time": 34.921875,
          "velocity": 0.6456692913385826
        },
        {
          "duration": 0.0439453125,
          "durationTicks": 18,
          "midi": 70,
          "name": "A#4",
          "ticks": 14304,
          "time": 34.921875,
          "velocity": 0.6456692913385826
        },
        {
          "duration": 0.0439453125,
          "durationTicks": 18,
          "midi": 78,
          "name": "F#5",
          "ticks": 14352,
          "time": 35.0390625,
          "velocity": 0.6614173228346457
        },
        {
          "duration": 0.029296875,
          "durationTicks": 12,
          "midi": 75,
          "name": "D#5",
          "ticks": 14352,
          "time": 35.0390625,
          "velocity": 0.6614173228346457
        },
        {
          "duration": 0.05126953125,
          "durationTicks": 21,
          "midi": 70,
          "name": "A#4",
          "ticks": 14352,
          "time": 35.0390625,
          "velocity": 0.6614173228346457
        },
        {
          "duration": 0.30029296875,
          "durationTicks": 123,
          "midi": 78,
          "name": "F#5",
          "ticks": 14400,
          "time": 35.15625,
          "velocity": 0.6771653543307087
        },
        {
          "duration": 0.302734375,
          "durationTicks": 124,
          "midi": 75,
          "name": "D#5",
          "ticks": 14400,
          "time": 35.15625,
          "velocity": 0.6771653543307087
        },
        {
          "duration": 0.302734375,
          "durationTicks": 124,
          "midi": 70,
          "name": "A#4",
          "ticks": 14400,
          "time": 35.15625,
          "velocity": 0.6771653543307087
        },
        {
          "duration": 0.0390625,
          "durationTicks": 16,
          "midi": 78,
          "name": "F#5",
          "ticks": 15072,
          "time": 36.796875,
          "velocity": 0.6377952755905512
        },
        {
          "duration": 0.0390625,
          "durationTicks": 16,
          "midi": 75,
          "name": "D#5",
          "ticks": 15072,
          "time": 36.796875,
          "velocity": 0.6377952755905512
        },
        {
          "duration": 0.05859375,
          "durationTicks": 24,
          "midi": 70,
          "name": "A#4",
          "ticks": 15072,
          "time": 36.796875,
          "velocity": 0.6377952755905512
        },
        {
          "duration": 0.0390625,
          "durationTicks": 16,
          "midi": 78,
          "name": "F#5",
          "ticks": 15120,
          "time": 36.9140625,
          "velocity": 0.6535433070866141
        },
        {
          "duration": 0.029296875,
          "durationTicks": 12,
          "midi": 75,
          "name": "D#5",
          "ticks": 15120,
          "time": 36.9140625,
          "velocity": 0.6535433070866141
        },
        {
          "duration": 0.0634765625,
          "durationTicks": 26,
          "midi": 70,
          "name": "A#4",
          "ticks": 15120,
          "time": 36.9140625,
          "velocity": 0.6535433070866141
        },
        {
          "duration": 0.34912109375,
          "durationTicks": 143,
          "midi": 78,
          "name": "F#5",
          "ticks": 15168,
          "time": 37.03125,
          "velocity": 0.6614173228346457
        },
        {
          "duration": 0.33447265625,
          "durationTicks": 137,
          "midi": 75,
          "name": "D#5",
          "ticks": 15168,
          "time": 37.03125,
          "velocity": 0.6614173228346457
        },
        {
          "duration": 0.3564453125,
          "durationTicks": 146,
          "midi": 70,
          "name": "A#4",
          "ticks": 15168,
          "time": 37.03125,
          "velocity": 0.6614173228346457
        },
        {
          "duration": 0.0390625,
          "durationTicks": 16,
          "midi": 78,
          "name": "F#5",
          "ticks": 15840,
          "time": 38.671875,
          "velocity": 0.6299212598425197
        },
        {
          "duration": 0.03662109375,
          "durationTicks": 15,
          "midi": 75,
          "name": "D#5",
          "ticks": 15840,
          "time": 38.671875,
          "velocity": 0.6299212598425197
        },
        {
          "duration": 0.0537109375,
          "durationTicks": 22,
          "midi": 70,
          "name": "A#4",
          "ticks": 15840,
          "time": 38.671875,
          "velocity": 0.6299212598425197
        },
        {
          "duration": 0.0439453125,
          "durationTicks": 18,
          "midi": 78,
          "name": "F#5",
          "ticks": 15888,
          "time": 38.7890625,
          "velocity": 0.6535433070866141
        },
        {
          "duration": 0.029296875,
          "durationTicks": 12,
          "midi": 75,
          "name": "D#5",
          "ticks": 15888,
          "time": 38.7890625,
          "velocity": 0.6535433070866141
        },
        {
          "duration": 0.0537109375,
          "durationTicks": 22,
          "midi": 70,
          "name": "A#4",
          "ticks": 15888,
          "time": 38.7890625,
          "velocity": 0.6535433070866141
        },
        {
          "duration": 0.28076171875,
          "durationTicks": 115,
          "midi": 78,
          "name": "F#5",
          "ticks": 15936,
          "time": 38.90625,
          "velocity": 0.6850393700787402
        },
        {
          "duration": 0.2734375,
          "durationTicks": 112,
          "midi": 75,
          "name": "D#5",
          "ticks": 15936,
          "time": 38.90625,
          "velocity": 0.6850393700787402
        },
        {
          "duration": 0.28564453125,
          "durationTicks": 117,
          "midi": 70,
          "name": "A#4",
          "ticks": 15936,
          "time": 38.90625,
          "velocity": 0.6850393700787402
        },
        {
          "duration": 0.07080078125,
          "durationTicks": 29,
          "midi": 77,
          "name": "F5",
          "ticks": 16608,
          "time": 40.546875,
          "velocity": 0.6692913385826772
        },
        {
          "duration": 0.06591796875,
          "durationTicks": 27,
          "midi": 73,
          "name": "C#5",
          "ticks": 16608,
          "time": 40.546875,
          "velocity": 0.6692913385826772
        },
        {
          "duration": 0.078125,
          "durationTicks": 32,
          "midi": 68,
          "name": "G#4",
          "ticks": 16608,
          "time": 40.546875,
          "velocity": 0.6692913385826772
        },
        {
          "duration": 0.06103515625,
          "durationTicks": 25,
          "midi": 77,
          "name": "F5",
          "ticks": 16656,
          "time": 40.6640625,
          "velocity": 0.6929133858267716
        },
        {
          "duration": 0.048828125,
          "durationTicks": 20,
          "midi": 73,
          "name": "C#5",
          "ticks": 16656,
          "time": 40.6640625,
          "velocity": 0.6929133858267716
        },
        {
          "duration": 0.06591796875,
          "durationTicks": 27,
          "midi": 68,
          "name": "G#4",
          "ticks": 16656,
          "time": 40.6640625,
          "velocity": 0.6929133858267716
        },
        {
          "duration": 0.29052734375,
          "durationTicks": 119,
          "midi": 77,
          "name": "F5",
          "ticks": 16704,
          "time": 40.78125,
          "velocity": 0.7165354330708661
        },
        {
          "duration": 0.28076171875,
          "durationTicks": 115,
          "midi": 73,
          "name": "C#5",
          "ticks": 16704,
          "time": 40.78125,
          "velocity": 0.7165354330708661
        },
        {
          "duration": 0.29052734375,
          "durationTicks": 119,
          "midi": 68,
          "name": "G#4",
          "ticks": 16704,
          "time": 40.78125,
          "velocity": 0.7165354330708661
        },
        {
          "duration": 0.029296875,
          "durationTicks": 12,
          "midi": 78,
          "name": "F#5",
          "ticks": 17376,
          "time": 42.421875,
          "velocity": 0.6692913385826772
        },
        {
          "duration": 0.0439453125,
          "durationTicks": 18,
          "midi": 75,
          "name": "D#5",
          "ticks": 17376,
          "time": 42.421875,
          "velocity": 0.6692913385826772
        },
        {
          "duration": 0.0439453125,
          "durationTicks": 18,
          "midi": 70,
          "name": "A#4",
          "ticks": 17376,
          "time": 42.421875,
          "velocity": 0.6692913385826772
        },
        {
          "duration": 0.0439453125,
          "durationTicks": 18,
          "midi": 78,
          "name": "F#5",
          "ticks": 17424,
          "time": 42.5390625,
          "velocity": 0.6771653543307087
        },
        {
          "duration": 0.03173828125,
          "durationTicks": 13,
          "midi": 75,
          "name": "D#5",
          "ticks": 17424,
          "time": 42.5390625,
          "velocity": 0.6771653543307087
        },
        {
          "duration": 0.048828125,
          "durationTicks": 20,
          "midi": 70,
          "name": "A#4",
          "ticks": 17424,
          "time": 42.5390625,
          "velocity": 0.6771653543307087
        },
        {
          "duration": 0.10986328125,
          "durationTicks": 45,
          "midi": 78,
          "name": "F#5",
          "ticks": 17472,
          "time": 42.65625,
          "velocity": 0.6929133858267716
        },
        {
          "duration": 0.12939453125,
          "durationTicks": 53,
          "midi": 75,
          "name": "D#5",
          "ticks": 17472,
          "time": 42.65625,
          "velocity": 0.6929133858267716
        },
        {
          "duration": 0.09765625,
          "durationTicks": 40,
          "midi": 70,
          "name": "A#4",
          "ticks": 17472,
          "time": 42.65625,
          "velocity": 0.6929133858267716
        },
        {
          "duration": 0.04150390625,
          "durationTicks": 17,
          "midi": 77,
          "name": "F5",
          "ticks": 18144,
          "time": 44.296875,
          "velocity": 0.6614173228346457
        },
        {
          "duration": 0.04150390625,
          "durationTicks": 17,
          "midi": 73,
          "name": "C#5",
          "ticks": 18144,
          "time": 44.296875,
          "velocity": 0.6614173228346457
        },
        {
          "duration": 0.0537109375,
          "durationTicks": 22,
          "midi": 68,
          "name": "G#4",
          "ticks": 18144,
          "time": 44.296875,
          "velocity": 0.6614173228346457
        },
        {
          "duration": 0.0390625,
          "durationTicks": 16,
          "midi": 77,
          "name": "F5",
          "ticks": 18192,
          "time": 44.4140625,
          "velocity": 0.6929133858267716
        },
        {
          "duration": 0.0390625,
          "durationTicks": 16,
          "midi": 73,
          "name": "C#5",
          "ticks": 18192,
          "time": 44.4140625,
          "velocity": 0.6929133858267716
        },
        {
          "duration": 0.06103515625,
          "durationTicks": 25,
          "midi": 68,
          "name": "G#4",
          "ticks": 18192,
          "time": 44.4140625,
          "velocity": 0.6929133858267716
        },
        {
          "duration": 0.3271484375,
          "durationTicks": 134,
          "midi": 77,
          "name": "F5",
          "ticks": 18240,
          "time": 44.53125,
          "velocity": 0.7165354330708661
        },
        {
          "duration": 0.33203125,
          "durationTicks": 136,
          "midi": 73,
          "name": "C#5",
          "ticks": 18240,
          "time": 44.53125,
          "velocity": 0.7165354330708661
        },
        {
          "duration": 0.33935546875,
          "durationTicks": 139,
          "midi": 68,
          "name": "G#4",
          "ticks": 18240,
          "time": 44.53125,
          "velocity": 0.7165354330708661
        },
        {
          "duration": 0.0390625,
          "durationTicks": 16,
          "midi": 78,
          "name": "F#5",
          "ticks": 18912,
          "time": 46.171875,
          "velocity": 0.6535433070866141
        },
        {
          "duration": 0.0390625,
          "durationTicks": 16,
          "midi": 75,
          "name": "D#5",
          "ticks": 18912,
          "time": 46.171875,
          "velocity": 0.6535433070866141
        },
        {
          "duration": 0.0439453125,
          "durationTicks": 18,
          "midi": 70,
          "name": "A#4",
          "ticks": 18912,
          "time": 46.171875,
          "velocity": 0.6535433070866141
        },
        {
          "duration": 0.0439453125,
          "durationTicks": 18,
          "midi": 78,
          "name": "F#5",
          "ticks": 18960,
          "time": 46.2890625,
          "velocity": 0.6771653543307087
        },
        {
          "duration": 0.029296875,
          "durationTicks": 12,
          "midi": 75,
          "name": "D#5",
          "ticks": 18960,
          "time": 46.2890625,
          "velocity": 0.6771653543307087
        },
        {
          "duration": 0.05126953125,
          "durationTicks": 21,
          "midi": 70,
          "name": "A#4",
          "ticks": 18960,
          "time": 46.2890625,
          "velocity": 0.6771653543307087
        },
        {
          "duration": 0.30029296875,
          "durationTicks": 123,
          "midi": 78,
          "name": "F#5",
          "ticks": 19008,
          "time": 46.40625,
          "velocity": 0.6929133858267716
        },
        {
          "duration": 0.302734375,
          "durationTicks": 124,
          "midi": 75,
          "name": "D#5",
          "ticks": 19008,
          "time": 46.40625,
          "velocity": 0.6929133858267716
        },
        {
          "duration": 0.302734375,
          "durationTicks": 124,
          "midi": 70,
          "name": "A#4",
          "ticks": 19008,
          "time": 46.40625,
          "velocity": 0.6929133858267716
        },
        {
          "duration": 0.0390625,
          "durationTicks": 16,
          "midi": 78,
          "name": "F#5",
          "ticks": 19680,
          "time": 48.046875,
          "velocity": 0.6456692913385826
        },
        {
          "duration": 0.0390625,
          "durationTicks": 16,
          "midi": 75,
          "name": "D#5",
          "ticks": 19680,
          "time": 48.046875,
          "velocity": 0.6456692913385826
        },
        {
          "duration": 0.05859375,
          "durationTicks": 24,
          "midi": 70,
          "name": "A#4",
          "ticks": 19680,
          "time": 48.046875,
          "velocity": 0.6456692913385826
        },
        {
          "duration": 0.0390625,
          "durationTicks": 16,
          "midi": 78,
          "name": "F#5",
          "ticks": 19728,
          "time": 48.1640625,
          "velocity": 0.6614173228346457
        },
        {
          "duration": 0.029296875,
          "durationTicks": 12,
          "midi": 75,
          "name": "D#5",
          "ticks": 19728,
          "time": 48.1640625,
          "velocity": 0.6614173228346457
        },
        {
          "duration": 0.0634765625,
          "durationTicks": 26,
          "midi": 70,
          "name": "A#4",
          "ticks": 19728,
          "time": 48.1640625,
          "velocity": 0.6614173228346457
        },
        {
          "duration": 0.34912109375,
          "durationTicks": 143,
          "midi": 78,
          "name": "F#5",
          "ticks": 19776,
          "time": 48.28125,
          "velocity": 0.6771653543307087
        },
        {
          "duration": 0.33447265625,
          "durationTicks": 137,
          "midi": 75,
          "name": "D#5",
          "ticks": 19776,
          "time": 48.28125,
          "velocity": 0.6771653543307087
        },
        {
          "duration": 0.3564453125,
          "durationTicks": 146,
          "midi": 70,
          "name": "A#4",
          "ticks": 19776,
          "time": 48.28125,
          "velocity": 0.6771653543307087
        },
        {
          "duration": 0.0390625,
          "durationTicks": 16,
          "midi": 78,
          "name": "F#5",
          "ticks": 20448,
          "time": 49.921875,
          "velocity": 0.6692913385826772
        },
        {
          "duration": 0.03662109375,
          "durationTicks": 15,
          "midi": 75,
          "name": "D#5",
          "ticks": 20448,
          "time": 49.921875,
          "velocity": 0.6692913385826772
        },
        {
          "duration": 0.0537109375,
          "durationTicks": 22,
          "midi": 70,
          "name": "A#4",
          "ticks": 20448,
          "time": 49.921875,
          "velocity": 0.6692913385826772
        },
        {
          "duration": 0.0439453125,
          "durationTicks": 18,
          "midi": 78,
          "name": "F#5",
          "ticks": 20496,
          "time": 50.0390625,
          "velocity": 0.6850393700787402
        },
        {
          "duration": 0.029296875,
          "durationTicks": 12,
          "midi": 75,
          "name": "D#5",
          "ticks": 20496,
          "time": 50.0390625,
          "velocity": 0.6850393700787402
        },
        {
          "duration": 0.0537109375,
          "durationTicks": 22,
          "midi": 70,
          "name": "A#4",
          "ticks": 20496,
          "time": 50.0390625,
          "velocity": 0.6850393700787402
        },
        {
          "duration": 0.28076171875,
          "durationTicks": 115,
          "midi": 78,
          "name": "F#5",
          "ticks": 20544,
          "time": 50.15625,
          "velocity": 0.7007874015748031
        },
        {
          "duration": 0.2734375,
          "durationTicks": 112,
          "midi": 75,
          "name": "D#5",
          "ticks": 20544,
          "time": 50.15625,
          "velocity": 0.7007874015748031
        },
        {
          "duration": 0.28564453125,
          "durationTicks": 117,
          "midi": 70,
          "name": "A#4",
          "ticks": 20544,
          "time": 50.15625,
          "velocity": 0.7007874015748031
        },
        {
          "duration": 0.04150390625,
          "durationTicks": 17,
          "midi": 77,
          "name": "F5",
          "ticks": 21216,
          "time": 51.796875,
          "velocity": 0.6377952755905512
        },
        {
          "duration": 0.04150390625,
          "durationTicks": 17,
          "midi": 73,
          "name": "C#5",
          "ticks": 21216,
          "time": 51.796875,
          "velocity": 0.6377952755905512
        },
        {
          "duration": 0.0537109375,
          "durationTicks": 22,
          "midi": 68,
          "name": "G#4",
          "ticks": 21216,
          "time": 51.796875,
          "velocity": 0.6377952755905512
        },
        {
          "duration": 0.0390625,
          "durationTicks": 16,
          "midi": 77,
          "name": "F5",
          "ticks": 21264,
          "time": 51.9140625,
          "velocity": 0.6614173228346457
        },
        {
          "duration": 0.0390625,
          "durationTicks": 16,
          "midi": 73,
          "name": "C#5",
          "ticks": 21264,
          "time": 51.9140625,
          "velocity": 0.6614173228346457
        },
        {
          "duration": 0.06103515625,
          "durationTicks": 25,
          "midi": 68,
          "name": "G#4",
          "ticks": 21264,
          "time": 51.9140625,
          "velocity": 0.6614173228346457
        },
        {
          "duration": 0.3271484375,
          "durationTicks": 134,
          "midi": 77,
          "name": "F5",
          "ticks": 21312,
          "time": 52.03125,
          "velocity": 0.6850393700787402
        },
        {
          "duration": 0.33203125,
          "durationTicks": 136,
          "midi": 73,
          "name": "C#5",
          "ticks": 21312,
          "time": 52.03125,
          "velocity": 0.6850393700787402
        },
        {
          "duration": 0.33935546875,
          "durationTicks": 139,
          "midi": 68,
          "name": "G#4",
          "ticks": 21312,
          "time": 52.03125,
          "velocity": 0.6850393700787402
        },
        {
          "duration": 0.0390625,
          "durationTicks": 16,
          "midi": 78,
          "name": "F#5",
          "ticks": 21984,
          "time": 53.671875,
          "velocity": 0.6614173228346457
        },
        {
          "duration": 0.0390625,
          "durationTicks": 16,
          "midi": 75,
          "name": "D#5",
          "ticks": 21984,
          "time": 53.671875,
          "velocity": 0.6614173228346457
        },
        {
          "duration": 0.0439453125,
          "durationTicks": 18,
          "midi": 70,
          "name": "A#4",
          "ticks": 21984,
          "time": 53.671875,
          "velocity": 0.6614173228346457
        },
        {
          "duration": 0.0439453125,
          "durationTicks": 18,
          "midi": 78,
          "name": "F#5",
          "ticks": 22032,
          "time": 53.7890625,
          "velocity": 0.6771653543307087
        },
        {
          "duration": 0.029296875,
          "durationTicks": 12,
          "midi": 75,
          "name": "D#5",
          "ticks": 22032,
          "time": 53.7890625,
          "velocity": 0.6771653543307087
        },
        {
          "duration": 0.05126953125,
          "durationTicks": 21,
          "midi": 70,
          "name": "A#4",
          "ticks": 22032,
          "time": 53.7890625,
          "velocity": 0.6771653543307087
        },
        {
          "duration": 0.30029296875,
          "durationTicks": 123,
          "midi": 78,
          "name": "F#5",
          "ticks": 22080,
          "time": 53.90625,
          "velocity": 0.6850393700787402
        },
        {
          "duration": 0.302734375,
          "durationTicks": 124,
          "midi": 75,
          "name": "D#5",
          "ticks": 22080,
          "time": 53.90625,
          "velocity": 0.6850393700787402
        },
        {
          "duration": 0.302734375,
          "durationTicks": 124,
          "midi": 70,
          "name": "A#4",
          "ticks": 22080,
          "time": 53.90625,
          "velocity": 0.6850393700787402
        },
        {
          "duration": 0.04150390625,
          "durationTicks": 17,
          "midi": 77,
          "name": "F5",
          "ticks": 22752,
          "time": 55.546875,
          "velocity": 0.6535433070866141
        },
        {
          "duration": 0.04150390625,
          "durationTicks": 17,
          "midi": 73,
          "name": "C#5",
          "ticks": 22752,
          "time": 55.546875,
          "velocity": 0.6535433070866141
        },
        {
          "duration": 0.0537109375,
          "durationTicks": 22,
          "midi": 68,
          "name": "G#4",
          "ticks": 22752,
          "time": 55.546875,
          "velocity": 0.6535433070866141
        },
        {
          "duration": 0.0390625,
          "durationTicks": 16,
          "midi": 77,
          "name": "F5",
          "ticks": 22800,
          "time": 55.6640625,
          "velocity": 0.6692913385826772
        },
        {
          "duration": 0.0390625,
          "durationTicks": 16,
          "midi": 73,
          "name": "C#5",
          "ticks": 22800,
          "time": 55.6640625,
          "velocity": 0.6692913385826772
        },
        {
          "duration": 0.06103515625,
          "durationTicks": 25,
          "midi": 68,
          "name": "G#4",
          "ticks": 22800,
          "time": 55.6640625,
          "velocity": 0.6692913385826772
        },
        {
          "duration": 0.3271484375,
          "durationTicks": 134,
          "midi": 77,
          "name": "F5",
          "ticks": 22848,
          "time": 55.78125,
          "velocity": 0.6771653543307087
        },
        {
          "duration": 0.33203125,
          "durationTicks": 136,
          "midi": 73,
          "name": "C#5",
          "ticks": 22848,
          "time": 55.78125,
          "velocity": 0.6771653543307087
        },
        {
          "duration": 0.33935546875,
          "durationTicks": 139,
          "midi": 68,
          "name": "G#4",
          "ticks": 22848,
          "time": 55.78125,
          "velocity": 0.6771653543307087
        },
        {
          "duration": 0.0390625,
          "durationTicks": 16,
          "midi": 78,
          "name": "F#5",
          "ticks": 23520,
          "time": 57.421875,
          "velocity": 0.6377952755905512
        },
        {
          "duration": 0.0390625,
          "durationTicks": 16,
          "midi": 75,
          "name": "D#5",
          "ticks": 23520,
          "time": 57.421875,
          "velocity": 0.6377952755905512
        },
        {
          "duration": 0.0439453125,
          "durationTicks": 18,
          "midi": 70,
          "name": "A#4",
          "ticks": 23520,
          "time": 57.421875,
          "velocity": 0.6377952755905512
        },
        {
          "duration": 0.0439453125,
          "durationTicks": 18,
          "midi": 78,
          "name": "F#5",
          "ticks": 23568,
          "time": 57.5390625,
          "velocity": 0.6535433070866141
        },
        {
          "duration": 0.029296875,
          "durationTicks": 12,
          "midi": 75,
          "name": "D#5",
          "ticks": 23568,
          "time": 57.5390625,
          "velocity": 0.6535433070866141
        },
        {
          "duration": 0.05126953125,
          "durationTicks": 21,
          "midi": 70,
          "name": "A#4",
          "ticks": 23568,
          "time": 57.5390625,
          "velocity": 0.6535433070866141
        },
        {
          "duration": 0.30029296875,
          "durationTicks": 123,
          "midi": 78,
          "name": "F#5",
          "ticks": 23616,
          "time": 57.65625,
          "velocity": 0.6692913385826772
        },
        {
          "duration": 0.302734375,
          "durationTicks": 124,
          "midi": 75,
          "name": "D#5",
          "ticks": 23616,
          "time": 57.65625,
          "velocity": 0.6692913385826772
        },
        {
          "duration": 0.302734375,
          "durationTicks": 124,
          "midi": 70,
          "name": "A#4",
          "ticks": 23616,
          "time": 57.65625,
          "velocity": 0.6692913385826772
        },
        {
          "duration": 0.0390625,
          "durationTicks": 16,
          "midi": 78,
          "name": "F#5",
          "ticks": 24288,
          "time": 59.296875,
          "velocity": 0.6456692913385826
        },
        {
          "duration": 0.0390625,
          "durationTicks": 16,
          "midi": 75,
          "name": "D#5",
          "ticks": 24288,
          "time": 59.296875,
          "velocity": 0.6456692913385826
        },
        {
          "duration": 0.0439453125,
          "durationTicks": 18,
          "midi": 70,
          "name": "A#4",
          "ticks": 24288,
          "time": 59.296875,
          "velocity": 0.6456692913385826
        },
        {
          "duration": 0.0439453125,
          "durationTicks": 18,
          "midi": 78,
          "name": "F#5",
          "ticks": 24336,
          "time": 59.4140625,
          "velocity": 0.6614173228346457
        },
        {
          "duration": 0.029296875,
          "durationTicks": 12,
          "midi": 75,
          "name": "D#5",
          "ticks": 24336,
          "time": 59.4140625,
          "velocity": 0.6614173228346457
        },
        {
          "duration": 0.05126953125,
          "durationTicks": 21,
          "midi": 70,
          "name": "A#4",
          "ticks": 24336,
          "time": 59.4140625,
          "velocity": 0.6614173228346457
        },
        {
          "duration": 0.30029296875,
          "durationTicks": 123,
          "midi": 78,
          "name": "F#5",
          "ticks": 24384,
          "time": 59.53125,
          "velocity": 0.6850393700787402
        },
        {
          "duration": 0.302734375,
          "durationTicks": 124,
          "midi": 75,
          "name": "D#5",
          "ticks": 24384,
          "time": 59.53125,
          "velocity": 0.6850393700787402
        },
        {
          "duration": 0.302734375,
          "durationTicks": 124,
          "midi": 70,
          "name": "A#4",
          "ticks": 24384,
          "time": 59.53125,
          "velocity": 0.6850393700787402
        },
        {
          "duration": 0.039062500000007105,
          "durationTicks": 16,
          "midi": 78,
          "name": "F#5",
          "ticks": 25056,
          "time": 61.171875,
          "velocity": 0.6614173228346457
        },
        {
          "duration": 0.039062500000007105,
          "durationTicks": 16,
          "midi": 75,
          "name": "D#5",
          "ticks": 25056,
          "time": 61.171875,
          "velocity": 0.6614173228346457
        },
        {
          "duration": 0.0439453125,
          "durationTicks": 18,
          "midi": 70,
          "name": "A#4",
          "ticks": 25056,
          "time": 61.171875,
          "velocity": 0.6614173228346457
        },
        {
          "duration": 0.0439453125,
          "durationTicks": 18,
          "midi": 78,
          "name": "F#5",
          "ticks": 25104,
          "time": 61.2890625,
          "velocity": 0.6771653543307087
        },
        {
          "duration": 0.029296875,
          "durationTicks": 12,
          "midi": 75,
          "name": "D#5",
          "ticks": 25104,
          "time": 61.2890625,
          "velocity": 0.6771653543307087
        },
        {
          "duration": 0.05126953125,
          "durationTicks": 21,
          "midi": 70,
          "name": "A#4",
          "ticks": 25104,
          "time": 61.2890625,
          "velocity": 0.6771653543307087
        },
        {
          "duration": 0.30029296875,
          "durationTicks": 123,
          "midi": 78,
          "name": "F#5",
          "ticks": 25152,
          "time": 61.40625,
          "velocity": 0.6850393700787402
        },
        {
          "duration": 0.3027343750000071,
          "durationTicks": 124,
          "midi": 75,
          "name": "D#5",
          "ticks": 25152,
          "time": 61.40625,
          "velocity": 0.6850393700787402
        },
        {
          "duration": 0.3027343750000071,
          "durationTicks": 124,
          "midi": 70,
          "name": "A#4",
          "ticks": 25152,
          "time": 61.40625,
          "velocity": 0.6850393700787402
        },
        {
          "duration": 0.07080078125,
          "durationTicks": 29,
          "midi": 77,
          "name": "F5",
          "ticks": 33120,
          "time": 80.859375,
          "velocity": 0.5984251968503937
        },
        {
          "duration": 0.06591796875,
          "durationTicks": 27,
          "midi": 73,
          "name": "C#5",
          "ticks": 33120,
          "time": 80.859375,
          "velocity": 0.5984251968503937
        },
        {
          "duration": 0.078125,
          "durationTicks": 32,
          "midi": 68,
          "name": "G#4",
          "ticks": 33120,
          "time": 80.859375,
          "velocity": 0.5984251968503937
        },
        {
          "duration": 0.06103515625,
          "durationTicks": 25,
          "midi": 77,
          "name": "F5",
          "ticks": 33168,
          "time": 80.9765625,
          "velocity": 0.6299212598425197
        },
        {
          "duration": 0.048828125,
          "durationTicks": 20,
          "midi": 73,
          "name": "C#5",
          "ticks": 33168,
          "time": 80.9765625,
          "velocity": 0.6299212598425197
        },
        {
          "duration": 0.06591796875,
          "durationTicks": 27,
          "midi": 68,
          "name": "G#4",
          "ticks": 33168,
          "time": 80.9765625,
          "velocity": 0.6299212598425197
        },
        {
          "duration": 0.29052734375,
          "durationTicks": 119,
          "midi": 77,
          "name": "F5",
          "ticks": 33216,
          "time": 81.09375,
          "velocity": 0.6614173228346457
        },
        {
          "duration": 0.28076171875,
          "durationTicks": 115,
          "midi": 73,
          "name": "C#5",
          "ticks": 33216,
          "time": 81.09375,
          "velocity": 0.6614173228346457
        },
        {
          "duration": 0.29052734375,
          "durationTicks": 119,
          "midi": 68,
          "name": "G#4",
          "ticks": 33216,
          "time": 81.09375,
          "velocity": 0.6614173228346457
        },
        {
          "duration": 0.029296875,
          "durationTicks": 12,
          "midi": 78,
          "name": "F#5",
          "ticks": 33888,
          "time": 82.734375,
          "velocity": 0.5984251968503937
        },
        {
          "duration": 0.0439453125,
          "durationTicks": 18,
          "midi": 75,
          "name": "D#5",
          "ticks": 33888,
          "time": 82.734375,
          "velocity": 0.5984251968503937
        },
        {
          "duration": 0.0439453125,
          "durationTicks": 18,
          "midi": 70,
          "name": "A#4",
          "ticks": 33888,
          "time": 82.734375,
          "velocity": 0.5984251968503937
        },
        {
          "duration": 0.0439453125,
          "durationTicks": 18,
          "midi": 78,
          "name": "F#5",
          "ticks": 33936,
          "time": 82.8515625,
          "velocity": 0.6377952755905512
        },
        {
          "duration": 0.03173828125,
          "durationTicks": 13,
          "midi": 75,
          "name": "D#5",
          "ticks": 33936,
          "time": 82.8515625,
          "velocity": 0.6377952755905512
        },
        {
          "duration": 0.048828125,
          "durationTicks": 20,
          "midi": 70,
          "name": "A#4",
          "ticks": 33936,
          "time": 82.8515625,
          "velocity": 0.6377952755905512
        },
        {
          "duration": 0.10986328125,
          "durationTicks": 45,
          "midi": 78,
          "name": "F#5",
          "ticks": 33984,
          "time": 82.96875,
          "velocity": 0.6771653543307087
        },
        {
          "duration": 0.12939453125,
          "durationTicks": 53,
          "midi": 75,
          "name": "D#5",
          "ticks": 33984,
          "time": 82.96875,
          "velocity": 0.6771653543307087
        },
        {
          "duration": 0.09765625,
          "durationTicks": 40,
          "midi": 70,
          "name": "A#4",
          "ticks": 33984,
          "time": 82.96875,
          "velocity": 0.6771653543307087
        },
        {
          "duration": 0.04150390625,
          "durationTicks": 17,
          "midi": 77,
          "name": "F5",
          "ticks": 34656,
          "time": 84.609375,
          "velocity": 0.5826771653543307
        },
        {
          "duration": 0.04150390625,
          "durationTicks": 17,
          "midi": 73,
          "name": "C#5",
          "ticks": 34656,
          "time": 84.609375,
          "velocity": 0.5826771653543307
        },
        {
          "duration": 0.0537109375,
          "durationTicks": 22,
          "midi": 68,
          "name": "G#4",
          "ticks": 34656,
          "time": 84.609375,
          "velocity": 0.5826771653543307
        },
        {
          "duration": 0.0390625,
          "durationTicks": 16,
          "midi": 77,
          "name": "F5",
          "ticks": 34704,
          "time": 84.7265625,
          "velocity": 0.6220472440944882
        },
        {
          "duration": 0.0390625,
          "durationTicks": 16,
          "midi": 73,
          "name": "C#5",
          "ticks": 34704,
          "time": 84.7265625,
          "velocity": 0.6220472440944882
        },
        {
          "duration": 0.06103515625,
          "durationTicks": 25,
          "midi": 68,
          "name": "G#4",
          "ticks": 34704,
          "time": 84.7265625,
          "velocity": 0.6220472440944882
        },
        {
          "duration": 0.3271484375,
          "durationTicks": 134,
          "midi": 77,
          "name": "F5",
          "ticks": 34752,
          "time": 84.84375,
          "velocity": 0.6614173228346457
        },
        {
          "duration": 0.33203125,
          "durationTicks": 136,
          "midi": 73,
          "name": "C#5",
          "ticks": 34752,
          "time": 84.84375,
          "velocity": 0.6614173228346457
        },
        {
          "duration": 0.33935546875,
          "durationTicks": 139,
          "midi": 68,
          "name": "G#4",
          "ticks": 34752,
          "time": 84.84375,
          "velocity": 0.6614173228346457
        },
        {
          "duration": 0.0390625,
          "durationTicks": 16,
          "midi": 78,
          "name": "F#5",
          "ticks": 35424,
          "time": 86.484375,
          "velocity": 0.5984251968503937
        },
        {
          "duration": 0.0390625,
          "durationTicks": 16,
          "midi": 75,
          "name": "D#5",
          "ticks": 35424,
          "time": 86.484375,
          "velocity": 0.5984251968503937
        },
        {
          "duration": 0.0439453125,
          "durationTicks": 18,
          "midi": 70,
          "name": "A#4",
          "ticks": 35424,
          "time": 86.484375,
          "velocity": 0.5984251968503937
        },
        {
          "duration": 0.0439453125,
          "durationTicks": 18,
          "midi": 78,
          "name": "F#5",
          "ticks": 35472,
          "time": 86.6015625,
          "velocity": 0.6141732283464567
        },
        {
          "duration": 0.029296875,
          "durationTicks": 12,
          "midi": 75,
          "name": "D#5",
          "ticks": 35472,
          "time": 86.6015625,
          "velocity": 0.6141732283464567
        },
        {
          "duration": 0.05126953125,
          "durationTicks": 21,
          "midi": 70,
          "name": "A#4",
          "ticks": 35472,
          "time": 86.6015625,
          "velocity": 0.6141732283464567
        },
        {
          "duration": 0.30029296875,
          "durationTicks": 123,
          "midi": 78,
          "name": "F#5",
          "ticks": 35520,
          "time": 86.71875,
          "velocity": 0.6377952755905512
        },
        {
          "duration": 0.302734375,
          "durationTicks": 124,
          "midi": 75,
          "name": "D#5",
          "ticks": 35520,
          "time": 86.71875,
          "velocity": 0.6377952755905512
        },
        {
          "duration": 0.302734375,
          "durationTicks": 124,
          "midi": 70,
          "name": "A#4",
          "ticks": 35520,
          "time": 86.71875,
          "velocity": 0.6377952755905512
        },
        {
          "duration": 0.0390625,
          "durationTicks": 16,
          "midi": 78,
          "name": "F#5",
          "ticks": 36192,
          "time": 88.359375,
          "velocity": 0.5905511811023622
        },
        {
          "duration": 0.0390625,
          "durationTicks": 16,
          "midi": 75,
          "name": "D#5",
          "ticks": 36192,
          "time": 88.359375,
          "velocity": 0.5905511811023622
        },
        {
          "duration": 0.05859375,
          "durationTicks": 24,
          "midi": 70,
          "name": "A#4",
          "ticks": 36192,
          "time": 88.359375,
          "velocity": 0.5905511811023622
        },
        {
          "duration": 0.0390625,
          "durationTicks": 16,
          "midi": 78,
          "name": "F#5",
          "ticks": 36240,
          "time": 88.4765625,
          "velocity": 0.6141732283464567
        },
        {
          "duration": 0.029296875,
          "durationTicks": 12,
          "midi": 75,
          "name": "D#5",
          "ticks": 36240,
          "time": 88.4765625,
          "velocity": 0.6141732283464567
        },
        {
          "duration": 0.0634765625,
          "durationTicks": 26,
          "midi": 70,
          "name": "A#4",
          "ticks": 36240,
          "time": 88.4765625,
          "velocity": 0.6141732283464567
        },
        {
          "duration": 0.34912109375,
          "durationTicks": 143,
          "midi": 78,
          "name": "F#5",
          "ticks": 36288,
          "time": 88.59375,
          "velocity": 0.6377952755905512
        },
        {
          "duration": 0.33447265625,
          "durationTicks": 137,
          "midi": 75,
          "name": "D#5",
          "ticks": 36288,
          "time": 88.59375,
          "velocity": 0.6377952755905512
        },
        {
          "duration": 0.3564453125,
          "durationTicks": 146,
          "midi": 70,
          "name": "A#4",
          "ticks": 36288,
          "time": 88.59375,
          "velocity": 0.6377952755905512
        },
        {
          "duration": 0.0390625,
          "durationTicks": 16,
          "midi": 78,
          "name": "F#5",
          "ticks": 36960,
          "time": 90.234375,
          "velocity": 0.5826771653543307
        },
        {
          "duration": 0.03662109375,
          "durationTicks": 15,
          "midi": 75,
          "name": "D#5",
          "ticks": 36960,
          "time": 90.234375,
          "velocity": 0.5826771653543307
        },
        {
          "duration": 0.0537109375,
          "durationTicks": 22,
          "midi": 70,
          "name": "A#4",
          "ticks": 36960,
          "time": 90.234375,
          "velocity": 0.5826771653543307
        },
        {
          "duration": 0.0439453125,
          "durationTicks": 18,
          "midi": 78,
          "name": "F#5",
          "ticks": 37008,
          "time": 90.3515625,
          "velocity": 0.6062992125984252
        },
        {
          "duration": 0.029296875,
          "durationTicks": 12,
          "midi": 75,
          "name": "D#5",
          "ticks": 37008,
          "time": 90.3515625,
          "velocity": 0.6062992125984252
        },
        {
          "duration": 0.0537109375,
          "durationTicks": 22,
          "midi": 70,
          "name": "A#4",
          "ticks": 37008,
          "time": 90.3515625,
          "velocity": 0.6062992125984252
        },
        {
          "duration": 0.28076171875,
          "durationTicks": 115,
          "midi": 78,
          "name": "F#5",
          "ticks": 37056,
          "time": 90.46875,
          "velocity": 0.6377952755905512
        },
        {
          "duration": 0.2734375,
          "durationTicks": 112,
          "midi": 75,
          "name": "D#5",
          "ticks": 37056,
          "time": 90.46875,
          "velocity": 0.6377952755905512
        },
        {
          "duration": 0.28564453125,
          "durationTicks": 117,
          "midi": 70,
          "name": "A#4",
          "ticks": 37056,
          "time": 90.46875,
          "velocity": 0.6377952755905512
        },
        {
          "duration": 0.07080078125,
          "durationTicks": 29,
          "midi": 77,
          "name": "F5",
          "ticks": 37728,
          "time": 92.109375,
          "velocity": 0.5905511811023622
        },
        {
          "duration": 0.06591796875,
          "durationTicks": 27,
          "midi": 73,
          "name": "C#5",
          "ticks": 37728,
          "time": 92.109375,
          "velocity": 0.5905511811023622
        },
        {
          "duration": 0.078125,
          "durationTicks": 32,
          "midi": 68,
          "name": "G#4",
          "ticks": 37728,
          "time": 92.109375,
          "velocity": 0.5905511811023622
        },
        {
          "duration": 0.06103515625,
          "durationTicks": 25,
          "midi": 77,
          "name": "F5",
          "ticks": 37776,
          "time": 92.2265625,
          "velocity": 0.6220472440944882
        },
        {
          "duration": 0.048828125,
          "durationTicks": 20,
          "midi": 73,
          "name": "C#5",
          "ticks": 37776,
          "time": 92.2265625,
          "velocity": 0.6220472440944882
        },
        {
          "duration": 0.06591796875,
          "durationTicks": 27,
          "midi": 68,
          "name": "G#4",
          "ticks": 37776,
          "time": 92.2265625,
          "velocity": 0.6220472440944882
        },
        {
          "duration": 0.29052734375,
          "durationTicks": 119,
          "midi": 77,
          "name": "F5",
          "ticks": 37824,
          "time": 92.34375,
          "velocity": 0.6535433070866141
        },
        {
          "duration": 0.28076171875,
          "durationTicks": 115,
          "midi": 73,
          "name": "C#5",
          "ticks": 37824,
          "time": 92.34375,
          "velocity": 0.6535433070866141
        },
        {
          "duration": 0.29052734375,
          "durationTicks": 119,
          "midi": 68,
          "name": "G#4",
          "ticks": 37824,
          "time": 92.34375,
          "velocity": 0.6535433070866141
        },
        {
          "duration": 0.029296875,
          "durationTicks": 12,
          "midi": 78,
          "name": "F#5",
          "ticks": 38496,
          "time": 93.984375,
          "velocity": 0.6141732283464567
        },
        {
          "duration": 0.0439453125,
          "durationTicks": 18,
          "midi": 75,
          "name": "D#5",
          "ticks": 38496,
          "time": 93.984375,
          "velocity": 0.6141732283464567
        },
        {
          "duration": 0.0439453125,
          "durationTicks": 18,
          "midi": 70,
          "name": "A#4",
          "ticks": 38496,
          "time": 93.984375,
          "velocity": 0.6141732283464567
        },
        {
          "duration": 0.0439453125,
          "durationTicks": 18,
          "midi": 78,
          "name": "F#5",
          "ticks": 38544,
          "time": 94.1015625,
          "velocity": 0.6456692913385826
        },
        {
          "duration": 0.03173828125,
          "durationTicks": 13,
          "midi": 75,
          "name": "D#5",
          "ticks": 38544,
          "time": 94.1015625,
          "velocity": 0.6456692913385826
        },
        {
          "duration": 0.048828125,
          "durationTicks": 20,
          "midi": 70,
          "name": "A#4",
          "ticks": 38544,
          "time": 94.1015625,
          "velocity": 0.6456692913385826
        },
        {
          "duration": 0.10986328125,
          "durationTicks": 45,
          "midi": 78,
          "name": "F#5",
          "ticks": 38592,
          "time": 94.21875,
          "velocity": 0.6771653543307087
        },
        {
          "duration": 0.12939453125,
          "durationTicks": 53,
          "midi": 75,
          "name": "D#5",
          "ticks": 38592,
          "time": 94.21875,
          "velocity": 0.6771653543307087
        },
        {
          "duration": 0.09765625,
          "durationTicks": 40,
          "midi": 70,
          "name": "A#4",
          "ticks": 38592,
          "time": 94.21875,
          "velocity": 0.6771653543307087
        },
        {
          "duration": 0.04150390625,
          "durationTicks": 17,
          "midi": 77,
          "name": "F5",
          "ticks": 39264,
          "time": 95.859375,
          "velocity": 0.5748031496062992
        },
        {
          "duration": 0.04150390625,
          "durationTicks": 17,
          "midi": 73,
          "name": "C#5",
          "ticks": 39264,
          "time": 95.859375,
          "velocity": 0.5748031496062992
        },
        {
          "duration": 0.0537109375,
          "durationTicks": 22,
          "midi": 68,
          "name": "G#4",
          "ticks": 39264,
          "time": 95.859375,
          "velocity": 0.5748031496062992
        },
        {
          "duration": 0.0390625,
          "durationTicks": 16,
          "midi": 77,
          "name": "F5",
          "ticks": 39312,
          "time": 95.9765625,
          "velocity": 0.6220472440944882
        },
        {
          "duration": 0.0390625,
          "durationTicks": 16,
          "midi": 73,
          "name": "C#5",
          "ticks": 39312,
          "time": 95.9765625,
          "velocity": 0.6220472440944882
        },
        {
          "duration": 0.06103515625,
          "durationTicks": 25,
          "midi": 68,
          "name": "G#4",
          "ticks": 39312,
          "time": 95.9765625,
          "velocity": 0.6220472440944882
        },
        {
          "duration": 0.3271484375,
          "durationTicks": 134,
          "midi": 77,
          "name": "F5",
          "ticks": 39360,
          "time": 96.09375,
          "velocity": 0.6771653543307087
        },
        {
          "duration": 0.33203125,
          "durationTicks": 136,
          "midi": 73,
          "name": "C#5",
          "ticks": 39360,
          "time": 96.09375,
          "velocity": 0.6771653543307087
        },
        {
          "duration": 0.33935546875,
          "durationTicks": 139,
          "midi": 68,
          "name": "G#4",
          "ticks": 39360,
          "time": 96.09375,
          "velocity": 0.6771653543307087
        },
        {
          "duration": 0.0390625,
          "durationTicks": 16,
          "midi": 78,
          "name": "F#5",
          "ticks": 40032,
          "time": 97.734375,
          "velocity": 0.5590551181102362
        },
        {
          "duration": 0.0390625,
          "durationTicks": 16,
          "midi": 75,
          "name": "D#5",
          "ticks": 40032,
          "time": 97.734375,
          "velocity": 0.5590551181102362
        },
        {
          "duration": 0.0439453125,
          "durationTicks": 18,
          "midi": 70,
          "name": "A#4",
          "ticks": 40032,
          "time": 97.734375,
          "velocity": 0.5590551181102362
        },
        {
          "duration": 0.0439453125,
          "durationTicks": 18,
          "midi": 78,
          "name": "F#5",
          "ticks": 40080,
          "time": 97.8515625,
          "velocity": 0.6062992125984252
        },
        {
          "duration": 0.029296875,
          "durationTicks": 12,
          "midi": 75,
          "name": "D#5",
          "ticks": 40080,
          "time": 97.8515625,
          "velocity": 0.6062992125984252
        },
        {
          "duration": 0.05126953125,
          "durationTicks": 21,
          "midi": 70,
          "name": "A#4",
          "ticks": 40080,
          "time": 97.8515625,
          "velocity": 0.6062992125984252
        },
        {
          "duration": 0.30029296875,
          "durationTicks": 123,
          "midi": 78,
          "name": "F#5",
          "ticks": 40128,
          "time": 97.96875,
          "velocity": 0.6614173228346457
        },
        {
          "duration": 0.302734375,
          "durationTicks": 124,
          "midi": 75,
          "name": "D#5",
          "ticks": 40128,
          "time": 97.96875,
          "velocity": 0.6614173228346457
        },
        {
          "duration": 0.302734375,
          "durationTicks": 124,
          "midi": 70,
          "name": "A#4",
          "ticks": 40128,
          "time": 97.96875,
          "velocity": 0.6614173228346457
        },
        {
          "duration": 0.0390625,
          "durationTicks": 16,
          "midi": 78,
          "name": "F#5",
          "ticks": 40800,
          "time": 99.609375,
          "velocity": 0.5748031496062992
        },
        {
          "duration": 0.0390625,
          "durationTicks": 16,
          "midi": 75,
          "name": "D#5",
          "ticks": 40800,
          "time": 99.609375,
          "velocity": 0.5748031496062992
        },
        {
          "duration": 0.05859375,
          "durationTicks": 24,
          "midi": 70,
          "name": "A#4",
          "ticks": 40800,
          "time": 99.609375,
          "velocity": 0.5748031496062992
        },
        {
          "duration": 0.0390625,
          "durationTicks": 16,
          "midi": 78,
          "name": "F#5",
          "ticks": 40848,
          "time": 99.7265625,
          "velocity": 0.5984251968503937
        },
        {
          "duration": 0.029296875,
          "durationTicks": 12,
          "midi": 75,
          "name": "D#5",
          "ticks": 40848,
          "time": 99.7265625,
          "velocity": 0.5984251968503937
        },
        {
          "duration": 0.0634765625,
          "durationTicks": 26,
          "midi": 70,
          "name": "A#4",
          "ticks": 40848,
          "time": 99.7265625,
          "velocity": 0.5984251968503937
        },
        {
          "duration": 0.34912109375,
          "durationTicks": 143,
          "midi": 78,
          "name": "F#5",
          "ticks": 40896,
          "time": 99.84375,
          "velocity": 0.6299212598425197
        },
        {
          "duration": 0.33447265625,
          "durationTicks": 137,
          "midi": 75,
          "name": "D#5",
          "ticks": 40896,
          "time": 99.84375,
          "velocity": 0.6299212598425197
        },
        {
          "duration": 0.3564453125,
          "durationTicks": 146,
          "midi": 70,
          "name": "A#4",
          "ticks": 40896,
          "time": 99.84375,
          "velocity": 0.6299212598425197
        },
        {
          "duration": 0.0390625,
          "durationTicks": 16,
          "midi": 78,
          "name": "F#5",
          "ticks": 41568,
          "time": 101.484375,
          "velocity": 0.5511811023622047
        },
        {
          "duration": 0.03662109375,
          "durationTicks": 15,
          "midi": 75,
          "name": "D#5",
          "ticks": 41568,
          "time": 101.484375,
          "velocity": 0.5511811023622047
        },
        {
          "duration": 0.0537109375,
          "durationTicks": 22,
          "midi": 70,
          "name": "A#4",
          "ticks": 41568,
          "time": 101.484375,
          "velocity": 0.5511811023622047
        },
        {
          "duration": 0.0439453125,
          "durationTicks": 18,
          "midi": 78,
          "name": "F#5",
          "ticks": 41616,
          "time": 101.6015625,
          "velocity": 0.5905511811023622
        },
        {
          "duration": 0.029296875,
          "durationTicks": 12,
          "midi": 75,
          "name": "D#5",
          "ticks": 41616,
          "time": 101.6015625,
          "velocity": 0.5905511811023622
        },
        {
          "duration": 0.0537109375,
          "durationTicks": 22,
          "midi": 70,
          "name": "A#4",
          "ticks": 41616,
          "time": 101.6015625,
          "velocity": 0.5905511811023622
        },
        {
          "duration": 0.28076171875,
          "durationTicks": 115,
          "midi": 78,
          "name": "F#5",
          "ticks": 41664,
          "time": 101.71875,
          "velocity": 0.6377952755905512
        },
        {
          "duration": 0.2734375,
          "durationTicks": 112,
          "midi": 75,
          "name": "D#5",
          "ticks": 41664,
          "time": 101.71875,
          "velocity": 0.6377952755905512
        },
        {
          "duration": 0.28564453125,
          "durationTicks": 117,
          "midi": 70,
          "name": "A#4",
          "ticks": 41664,
          "time": 101.71875,
          "velocity": 0.6377952755905512
        },
        {
          "duration": 0.07080078125,
          "durationTicks": 29,
          "midi": 77,
          "name": "F5",
          "ticks": 42336,
          "time": 103.359375,
          "velocity": 0.5590551181102362
        },
        {
          "duration": 0.06591796875,
          "durationTicks": 27,
          "midi": 73,
          "name": "C#5",
          "ticks": 42336,
          "time": 103.359375,
          "velocity": 0.5590551181102362
        },
        {
          "duration": 0.078125,
          "durationTicks": 32,
          "midi": 68,
          "name": "G#4",
          "ticks": 42336,
          "time": 103.359375,
          "velocity": 0.5590551181102362
        },
        {
          "duration": 0.06103515625,
          "durationTicks": 25,
          "midi": 77,
          "name": "F5",
          "ticks": 42384,
          "time": 103.4765625,
          "velocity": 0.6062992125984252
        },
        {
          "duration": 0.048828125,
          "durationTicks": 20,
          "midi": 73,
          "name": "C#5",
          "ticks": 42384,
          "time": 103.4765625,
          "velocity": 0.6062992125984252
        },
        {
          "duration": 0.06591796875,
          "durationTicks": 27,
          "midi": 68,
          "name": "G#4",
          "ticks": 42384,
          "time": 103.4765625,
          "velocity": 0.6062992125984252
        },
        {
          "duration": 0.29052734375,
          "durationTicks": 119,
          "midi": 77,
          "name": "F5",
          "ticks": 42432,
          "time": 103.59375,
          "velocity": 0.6535433070866141
        },
        {
          "duration": 0.28076171875,
          "durationTicks": 115,
          "midi": 73,
          "name": "C#5",
          "ticks": 42432,
          "time": 103.59375,
          "velocity": 0.6535433070866141
        },
        {
          "duration": 0.29052734375,
          "durationTicks": 119,
          "midi": 68,
          "name": "G#4",
          "ticks": 42432,
          "time": 103.59375,
          "velocity": 0.6535433070866141
        },
        {
          "duration": 0.029296875,
          "durationTicks": 12,
          "midi": 78,
          "name": "F#5",
          "ticks": 43104,
          "time": 105.234375,
          "velocity": 0.5669291338582677
        },
        {
          "duration": 0.0439453125,
          "durationTicks": 18,
          "midi": 75,
          "name": "D#5",
          "ticks": 43104,
          "time": 105.234375,
          "velocity": 0.5669291338582677
        },
        {
          "duration": 0.0439453125,
          "durationTicks": 18,
          "midi": 70,
          "name": "A#4",
          "ticks": 43104,
          "time": 105.234375,
          "velocity": 0.5669291338582677
        },
        {
          "duration": 0.0439453125,
          "durationTicks": 18,
          "midi": 78,
          "name": "F#5",
          "ticks": 43152,
          "time": 105.3515625,
          "velocity": 0.6062992125984252
        },
        {
          "duration": 0.03173828125,
          "durationTicks": 13,
          "midi": 75,
          "name": "D#5",
          "ticks": 43152,
          "time": 105.3515625,
          "velocity": 0.6062992125984252
        },
        {
          "duration": 0.048828125,
          "durationTicks": 20,
          "midi": 70,
          "name": "A#4",
          "ticks": 43152,
          "time": 105.3515625,
          "velocity": 0.6062992125984252
        },
        {
          "duration": 0.10986328125,
          "durationTicks": 45,
          "midi": 78,
          "name": "F#5",
          "ticks": 43200,
          "time": 105.46875,
          "velocity": 0.6456692913385826
        },
        {
          "duration": 0.12939453125,
          "durationTicks": 53,
          "midi": 75,
          "name": "D#5",
          "ticks": 43200,
          "time": 105.46875,
          "velocity": 0.6456692913385826
        },
        {
          "duration": 0.09765625,
          "durationTicks": 40,
          "midi": 70,
          "name": "A#4",
          "ticks": 43200,
          "time": 105.46875,
          "velocity": 0.6456692913385826
        },
        {
          "duration": 0.04150390625,
          "durationTicks": 17,
          "midi": 77,
          "name": "F5",
          "ticks": 43872,
          "time": 107.109375,
          "velocity": 0.5826771653543307
        },
        {
          "duration": 0.04150390625,
          "durationTicks": 17,
          "midi": 73,
          "name": "C#5",
          "ticks": 43872,
          "time": 107.109375,
          "velocity": 0.5826771653543307
        },
        {
          "duration": 0.0537109375,
          "durationTicks": 22,
          "midi": 68,
          "name": "G#4",
          "ticks": 43872,
          "time": 107.109375,
          "velocity": 0.5826771653543307
        },
        {
          "duration": 0.0390625,
          "durationTicks": 16,
          "midi": 77,
          "name": "F5",
          "ticks": 43920,
          "time": 107.2265625,
          "velocity": 0.6141732283464567
        },
        {
          "duration": 0.0390625,
          "durationTicks": 16,
          "midi": 73,
          "name": "C#5",
          "ticks": 43920,
          "time": 107.2265625,
          "velocity": 0.6141732283464567
        },
        {
          "duration": 0.06103515625,
          "durationTicks": 25,
          "midi": 68,
          "name": "G#4",
          "ticks": 43920,
          "time": 107.2265625,
          "velocity": 0.6141732283464567
        },
        {
          "duration": 0.3271484375,
          "durationTicks": 134,
          "midi": 77,
          "name": "F5",
          "ticks": 43968,
          "time": 107.34375,
          "velocity": 0.6456692913385826
        },
        {
          "duration": 0.33203125,
          "durationTicks": 136,
          "midi": 73,
          "name": "C#5",
          "ticks": 43968,
          "time": 107.34375,
          "velocity": 0.6456692913385826
        },
        {
          "duration": 0.33935546875,
          "durationTicks": 139,
          "midi": 68,
          "name": "G#4",
          "ticks": 43968,
          "time": 107.34375,
          "velocity": 0.6456692913385826
        },
        {
          "duration": 0.0390625,
          "durationTicks": 16,
          "midi": 78,
          "name": "F#5",
          "ticks": 44640,
          "time": 108.984375,
          "velocity": 0.5511811023622047
        },
        {
          "duration": 0.0390625,
          "durationTicks": 16,
          "midi": 75,
          "name": "D#5",
          "ticks": 44640,
          "time": 108.984375,
          "velocity": 0.5511811023622047
        },
        {
          "duration": 0.0439453125,
          "durationTicks": 18,
          "midi": 70,
          "name": "A#4",
          "ticks": 44640,
          "time": 108.984375,
          "velocity": 0.5511811023622047
        },
        {
          "duration": 0.0439453125,
          "durationTicks": 18,
          "midi": 78,
          "name": "F#5",
          "ticks": 44688,
          "time": 109.1015625,
          "velocity": 0.5984251968503937
        },
        {
          "duration": 0.029296875,
          "durationTicks": 12,
          "midi": 75,
          "name": "D#5",
          "ticks": 44688,
          "time": 109.1015625,
          "velocity": 0.5984251968503937
        },
        {
          "duration": 0.05126953125,
          "durationTicks": 21,
          "midi": 70,
          "name": "A#4",
          "ticks": 44688,
          "time": 109.1015625,
          "velocity": 0.5984251968503937
        },
        {
          "duration": 0.30029296875,
          "durationTicks": 123,
          "midi": 78,
          "name": "F#5",
          "ticks": 44736,
          "time": 109.21875,
          "velocity": 0.6456692913385826
        },
        {
          "duration": 0.302734375,
          "durationTicks": 124,
          "midi": 75,
          "name": "D#5",
          "ticks": 44736,
          "time": 109.21875,
          "velocity": 0.6456692913385826
        },
        {
          "duration": 0.302734375,
          "durationTicks": 124,
          "midi": 70,
          "name": "A#4",
          "ticks": 44736,
          "time": 109.21875,
          "velocity": 0.6456692913385826
        },
        {
          "duration": 0.0390625,
          "durationTicks": 16,
          "midi": 78,
          "name": "F#5",
          "ticks": 45408,
          "time": 110.859375,
          "velocity": 0.5511811023622047
        },
        {
          "duration": 0.0390625,
          "durationTicks": 16,
          "midi": 75,
          "name": "D#5",
          "ticks": 45408,
          "time": 110.859375,
          "velocity": 0.5511811023622047
        },
        {
          "duration": 0.05859375,
          "durationTicks": 24,
          "midi": 70,
          "name": "A#4",
          "ticks": 45408,
          "time": 110.859375,
          "velocity": 0.5511811023622047
        },
        {
          "duration": 0.0390625,
          "durationTicks": 16,
          "midi": 78,
          "name": "F#5",
          "ticks": 45456,
          "time": 110.9765625,
          "velocity": 0.5905511811023622
        },
        {
          "duration": 0.029296875,
          "durationTicks": 12,
          "midi": 75,
          "name": "D#5",
          "ticks": 45456,
          "time": 110.9765625,
          "velocity": 0.5905511811023622
        },
        {
          "duration": 0.0634765625,
          "durationTicks": 26,
          "midi": 70,
          "name": "A#4",
          "ticks": 45456,
          "time": 110.9765625,
          "velocity": 0.5905511811023622
        },
        {
          "duration": 0.34912109375,
          "durationTicks": 143,
          "midi": 78,
          "name": "F#5",
          "ticks": 45504,
          "time": 111.09375,
          "velocity": 0.6377952755905512
        },
        {
          "duration": 0.33447265625,
          "durationTicks": 137,
          "midi": 75,
          "name": "D#5",
          "ticks": 45504,
          "time": 111.09375,
          "velocity": 0.6377952755905512
        },
        {
          "duration": 0.3564453125,
          "durationTicks": 146,
          "midi": 70,
          "name": "A#4",
          "ticks": 45504,
          "time": 111.09375,
          "velocity": 0.6377952755905512
        },
        {
          "duration": 0.0390625,
          "durationTicks": 16,
          "midi": 78,
          "name": "F#5",
          "ticks": 46176,
          "time": 112.734375,
          "velocity": 0.5590551181102362
        },
        {
          "duration": 0.03662109375,
          "durationTicks": 15,
          "midi": 75,
          "name": "D#5",
          "ticks": 46176,
          "time": 112.734375,
          "velocity": 0.5590551181102362
        },
        {
          "duration": 0.0537109375,
          "durationTicks": 22,
          "midi": 70,
          "name": "A#4",
          "ticks": 46176,
          "time": 112.734375,
          "velocity": 0.5590551181102362
        },
        {
          "duration": 0.0439453125,
          "durationTicks": 18,
          "midi": 78,
          "name": "F#5",
          "ticks": 46224,
          "time": 112.8515625,
          "velocity": 0.5905511811023622
        },
        {
          "duration": 0.029296875,
          "durationTicks": 12,
          "midi": 75,
          "name": "D#5",
          "ticks": 46224,
          "time": 112.8515625,
          "velocity": 0.5905511811023622
        },
        {
          "duration": 0.0537109375,
          "durationTicks": 22,
          "midi": 70,
          "name": "A#4",
          "ticks": 46224,
          "time": 112.8515625,
          "velocity": 0.5905511811023622
        },
        {
          "duration": 0.28076171875,
          "durationTicks": 115,
          "midi": 78,
          "name": "F#5",
          "ticks": 46272,
          "time": 112.96875,
          "velocity": 0.6299212598425197
        },
        {
          "duration": 0.2734375,
          "durationTicks": 112,
          "midi": 75,
          "name": "D#5",
          "ticks": 46272,
          "time": 112.96875,
          "velocity": 0.6299212598425197
        },
        {
          "duration": 0.28564453125,
          "durationTicks": 117,
          "midi": 70,
          "name": "A#4",
          "ticks": 46272,
          "time": 112.96875,
          "velocity": 0.6299212598425197
        },
        {
          "duration": 0.07080078125,
          "durationTicks": 29,
          "midi": 77,
          "name": "F5",
          "ticks": 54240,
          "time": 132.421875,
          "velocity": 0.6299212598425197
        },
        {
          "duration": 0.06591796875,
          "durationTicks": 27,
          "midi": 73,
          "name": "C#5",
          "ticks": 54240,
          "time": 132.421875,
          "velocity": 0.6299212598425197
        },
        {
          "duration": 0.078125,
          "durationTicks": 32,
          "midi": 68,
          "name": "G#4",
          "ticks": 54240,
          "time": 132.421875,
          "velocity": 0.6299212598425197
        },
        {
          "duration": 0.06103515625,
          "durationTicks": 25,
          "midi": 77,
          "name": "F5",
          "ticks": 54288,
          "time": 132.5390625,
          "velocity": 0.5039370078740157
        },
        {
          "duration": 0.048828125,
          "durationTicks": 20,
          "midi": 73,
          "name": "C#5",
          "ticks": 54288,
          "time": 132.5390625,
          "velocity": 0.5039370078740157
        },
        {
          "duration": 0.06591796875,
          "durationTicks": 27,
          "midi": 68,
          "name": "G#4",
          "ticks": 54288,
          "time": 132.5390625,
          "velocity": 0.5039370078740157
        },
        {
          "duration": 0.29052734375,
          "durationTicks": 119,
          "midi": 77,
          "name": "F5",
          "ticks": 54336,
          "time": 132.65625,
          "velocity": 0.6850393700787402
        },
        {
          "duration": 0.28076171875,
          "durationTicks": 115,
          "midi": 73,
          "name": "C#5",
          "ticks": 54336,
          "time": 132.65625,
          "velocity": 0.7007874015748031
        },
        {
          "duration": 0.29052734375,
          "durationTicks": 119,
          "midi": 68,
          "name": "G#4",
          "ticks": 54336,
          "time": 132.65625,
          "velocity": 0.4409448818897638
        },
        {
          "duration": 0.029296875,
          "durationTicks": 12,
          "midi": 78,
          "name": "F#5",
          "ticks": 55008,
          "time": 134.296875,
          "velocity": 0.4881889763779528
        },
        {
          "duration": 0.0439453125,
          "durationTicks": 18,
          "midi": 75,
          "name": "D#5",
          "ticks": 55008,
          "time": 134.296875,
          "velocity": 0.6220472440944882
        },
        {
          "duration": 0.0439453125,
          "durationTicks": 18,
          "midi": 70,
          "name": "A#4",
          "ticks": 55008,
          "time": 134.296875,
          "velocity": 0.44881889763779526
        },
        {
          "duration": 0.0439453125,
          "durationTicks": 18,
          "midi": 78,
          "name": "F#5",
          "ticks": 55056,
          "time": 134.4140625,
          "velocity": 0.5039370078740157
        },
        {
          "duration": 0.03173828125,
          "durationTicks": 13,
          "midi": 75,
          "name": "D#5",
          "ticks": 55056,
          "time": 134.4140625,
          "velocity": 0.5039370078740157
        },
        {
          "duration": 0.048828125,
          "durationTicks": 20,
          "midi": 70,
          "name": "A#4",
          "ticks": 55056,
          "time": 134.4140625,
          "velocity": 0.5039370078740157
        },
        {
          "duration": 0.10986328125,
          "durationTicks": 45,
          "midi": 78,
          "name": "F#5",
          "ticks": 55104,
          "time": 134.53125,
          "velocity": 0.6850393700787402
        },
        {
          "duration": 0.12939453125,
          "durationTicks": 53,
          "midi": 75,
          "name": "D#5",
          "ticks": 55104,
          "time": 134.53125,
          "velocity": 0.6377952755905512
        },
        {
          "duration": 0.09765625,
          "durationTicks": 40,
          "midi": 70,
          "name": "A#4",
          "ticks": 55104,
          "time": 134.53125,
          "velocity": 0.49606299212598426
        },
        {
          "duration": 0.04150390625,
          "durationTicks": 17,
          "midi": 77,
          "name": "F5",
          "ticks": 55776,
          "time": 136.171875,
          "velocity": 0.6299212598425197
        },
        {
          "duration": 0.04150390625,
          "durationTicks": 17,
          "midi": 73,
          "name": "C#5",
          "ticks": 55776,
          "time": 136.171875,
          "velocity": 0.6299212598425197
        },
        {
          "duration": 0.0537109375,
          "durationTicks": 22,
          "midi": 68,
          "name": "G#4",
          "ticks": 55776,
          "time": 136.171875,
          "velocity": 0.6299212598425197
        },
        {
          "duration": 0.0390625,
          "durationTicks": 16,
          "midi": 77,
          "name": "F5",
          "ticks": 55824,
          "time": 136.2890625,
          "velocity": 0.5039370078740157
        },
        {
          "duration": 0.0390625,
          "durationTicks": 16,
          "midi": 73,
          "name": "C#5",
          "ticks": 55824,
          "time": 136.2890625,
          "velocity": 0.5039370078740157
        },
        {
          "duration": 0.06103515625,
          "durationTicks": 25,
          "midi": 68,
          "name": "G#4",
          "ticks": 55824,
          "time": 136.2890625,
          "velocity": 0.5039370078740157
        },
        {
          "duration": 0.3271484375,
          "durationTicks": 134,
          "midi": 77,
          "name": "F5",
          "ticks": 55872,
          "time": 136.40625,
          "velocity": 0.6692913385826772
        },
        {
          "duration": 0.33203125,
          "durationTicks": 136,
          "midi": 73,
          "name": "C#5",
          "ticks": 55872,
          "time": 136.40625,
          "velocity": 0.6692913385826772
        },
        {
          "duration": 0.33935546875,
          "durationTicks": 139,
          "midi": 68,
          "name": "G#4",
          "ticks": 55872,
          "time": 136.40625,
          "velocity": 0.5354330708661418
        },
        {
          "duration": 0.0390625,
          "durationTicks": 16,
          "midi": 78,
          "name": "F#5",
          "ticks": 56544,
          "time": 138.046875,
          "velocity": 0.5275590551181102
        },
        {
          "duration": 0.0390625,
          "durationTicks": 16,
          "midi": 75,
          "name": "D#5",
          "ticks": 56544,
          "time": 138.046875,
          "velocity": 0.5905511811023622
        },
        {
          "duration": 0.0439453125,
          "durationTicks": 18,
          "midi": 70,
          "name": "A#4",
          "ticks": 56544,
          "time": 138.046875,
          "velocity": 0.41732283464566927
        },
        {
          "duration": 0.0439453125,
          "durationTicks": 18,
          "midi": 78,
          "name": "F#5",
          "ticks": 56592,
          "time": 138.1640625,
          "velocity": 0.5590551181102362
        },
        {
          "duration": 0.029296875,
          "durationTicks": 12,
          "midi": 75,
          "name": "D#5",
          "ticks": 56592,
          "time": 138.1640625,
          "velocity": 0.5275590551181102
        },
        {
          "duration": 0.05126953125,
          "durationTicks": 21,
          "midi": 70,
          "name": "A#4",
          "ticks": 56592,
          "time": 138.1640625,
          "velocity": 0.44881889763779526
        },
        {
          "duration": 0.30029296875,
          "durationTicks": 123,
          "midi": 78,
          "name": "F#5",
          "ticks": 56640,
          "time": 138.28125,
          "velocity": 0.5826771653543307
        },
        {
          "duration": 0.302734375,
          "durationTicks": 124,
          "midi": 75,
          "name": "D#5",
          "ticks": 56640,
          "time": 138.28125,
          "velocity": 0.6141732283464567
        },
        {
          "duration": 0.302734375,
          "durationTicks": 124,
          "midi": 70,
          "name": "A#4",
          "ticks": 56640,
          "time": 138.28125,
          "velocity": 0.4409448818897638
        },
        {
          "duration": 0.0390625,
          "durationTicks": 16,
          "midi": 78,
          "name": "F#5",
          "ticks": 57312,
          "time": 139.921875,
          "velocity": 0.5196850393700787
        },
        {
          "duration": 0.0390625,
          "durationTicks": 16,
          "midi": 75,
          "name": "D#5",
          "ticks": 57312,
          "time": 139.921875,
          "velocity": 0.5590551181102362
        },
        {
          "duration": 0.05859375,
          "durationTicks": 24,
          "midi": 70,
          "name": "A#4",
          "ticks": 57312,
          "time": 139.921875,
          "velocity": 0.4566929133858268
        },
        {
          "duration": 0.0390625,
          "durationTicks": 16,
          "midi": 78,
          "name": "F#5",
          "ticks": 57360,
          "time": 140.0390625,
          "velocity": 0.5039370078740157
        },
        {
          "duration": 0.029296875,
          "durationTicks": 12,
          "midi": 75,
          "name": "D#5",
          "ticks": 57360,
          "time": 140.0390625,
          "velocity": 0.5039370078740157
        },
        {
          "duration": 0.0634765625,
          "durationTicks": 26,
          "midi": 70,
          "name": "A#4",
          "ticks": 57360,
          "time": 140.0390625,
          "velocity": 0.5039370078740157
        },
        {
          "duration": 0.34912109375,
          "durationTicks": 143,
          "midi": 78,
          "name": "F#5",
          "ticks": 57408,
          "time": 140.15625,
          "velocity": 0.5669291338582677
        },
        {
          "duration": 0.33447265625,
          "durationTicks": 137,
          "midi": 75,
          "name": "D#5",
          "ticks": 57408,
          "time": 140.15625,
          "velocity": 0.6062992125984252
        },
        {
          "duration": 0.3564453125,
          "durationTicks": 146,
          "midi": 70,
          "name": "A#4",
          "ticks": 57408,
          "time": 140.15625,
          "velocity": 0.41732283464566927
        },
        {
          "duration": 0.0390625,
          "durationTicks": 16,
          "midi": 78,
          "name": "F#5",
          "ticks": 58080,
          "time": 141.796875,
          "velocity": 0.5669291338582677
        },
        {
          "duration": 0.03662109375,
          "durationTicks": 15,
          "midi": 75,
          "name": "D#5",
          "ticks": 58080,
          "time": 141.796875,
          "velocity": 0.6062992125984252
        },
        {
          "duration": 0.0537109375,
          "durationTicks": 22,
          "midi": 70,
          "name": "A#4",
          "ticks": 58080,
          "time": 141.796875,
          "velocity": 0.4566929133858268
        },
        {
          "duration": 0.0439453125,
          "durationTicks": 18,
          "midi": 78,
          "name": "F#5",
          "ticks": 58128,
          "time": 141.9140625,
          "velocity": 0.5354330708661418
        },
        {
          "duration": 0.029296875,
          "durationTicks": 12,
          "midi": 75,
          "name": "D#5",
          "ticks": 58128,
          "time": 141.9140625,
          "velocity": 0.5354330708661418
        },
        {
          "duration": 0.0537109375,
          "durationTicks": 22,
          "midi": 70,
          "name": "A#4",
          "ticks": 58128,
          "time": 141.9140625,
          "velocity": 0.5354330708661418
        },
        {
          "duration": 0.28076171875,
          "durationTicks": 115,
          "midi": 78,
          "name": "F#5",
          "ticks": 58176,
          "time": 142.03125,
          "velocity": 0.6141732283464567
        },
        {
          "duration": 0.2734375,
          "durationTicks": 112,
          "midi": 75,
          "name": "D#5",
          "ticks": 58176,
          "time": 142.03125,
          "velocity": 0.6141732283464567
        },
        {
          "duration": 0.28564453125,
          "durationTicks": 117,
          "midi": 70,
          "name": "A#4",
          "ticks": 58176,
          "time": 142.03125,
          "velocity": 0.41732283464566927
        },
        {
          "duration": 0.07080078125,
          "durationTicks": 29,
          "midi": 77,
          "name": "F5",
          "ticks": 64992,
          "time": 158.671875,
          "velocity": 0.6062992125984252
        },
        {
          "duration": 0.06591796875,
          "durationTicks": 27,
          "midi": 73,
          "name": "C#5",
          "ticks": 64992,
          "time": 158.671875,
          "velocity": 0.6062992125984252
        },
        {
          "duration": 0.078125,
          "durationTicks": 32,
          "midi": 68,
          "name": "G#4",
          "ticks": 64992,
          "time": 158.671875,
          "velocity": 0.6062992125984252
        },
        {
          "duration": 0.06103515625,
          "durationTicks": 25,
          "midi": 77,
          "name": "F5",
          "ticks": 65040,
          "time": 158.7890625,
          "velocity": 0.6535433070866141
        },
        {
          "duration": 0.048828125,
          "durationTicks": 20,
          "midi": 73,
          "name": "C#5",
          "ticks": 65040,
          "time": 158.7890625,
          "velocity": 0.6535433070866141
        },
        {
          "duration": 0.06591796875,
          "durationTicks": 27,
          "midi": 68,
          "name": "G#4",
          "ticks": 65040,
          "time": 158.7890625,
          "velocity": 0.6535433070866141
        },
        {
          "duration": 0.29052734375,
          "durationTicks": 119,
          "midi": 77,
          "name": "F5",
          "ticks": 65088,
          "time": 158.90625,
          "velocity": 0.7086614173228346
        },
        {
          "duration": 0.28076171875,
          "durationTicks": 115,
          "midi": 73,
          "name": "C#5",
          "ticks": 65088,
          "time": 158.90625,
          "velocity": 0.7086614173228346
        },
        {
          "duration": 0.29052734375,
          "durationTicks": 119,
          "midi": 68,
          "name": "G#4",
          "ticks": 65088,
          "time": 158.90625,
          "velocity": 0.7086614173228346
        },
        {
          "duration": 0.029296875,
          "durationTicks": 12,
          "midi": 78,
          "name": "F#5",
          "ticks": 65760,
          "time": 160.546875,
          "velocity": 0.6141732283464567
        },
        {
          "duration": 0.0439453125,
          "durationTicks": 18,
          "midi": 75,
          "name": "D#5",
          "ticks": 65760,
          "time": 160.546875,
          "velocity": 0.6141732283464567
        },
        {
          "duration": 0.0439453125,
          "durationTicks": 18,
          "midi": 70,
          "name": "A#4",
          "ticks": 65760,
          "time": 160.546875,
          "velocity": 0.6141732283464567
        },
        {
          "duration": 0.0439453125,
          "durationTicks": 18,
          "midi": 78,
          "name": "F#5",
          "ticks": 65808,
          "time": 160.6640625,
          "velocity": 0.6456692913385826
        },
        {
          "duration": 0.03173828125,
          "durationTicks": 13,
          "midi": 75,
          "name": "D#5",
          "ticks": 65808,
          "time": 160.6640625,
          "velocity": 0.6456692913385826
        },
        {
          "duration": 0.048828125,
          "durationTicks": 20,
          "midi": 70,
          "name": "A#4",
          "ticks": 65808,
          "time": 160.6640625,
          "velocity": 0.6456692913385826
        },
        {
          "duration": 0.3515625,
          "durationTicks": 144,
          "midi": 78,
          "name": "F#5",
          "ticks": 65856,
          "time": 160.78125,
          "velocity": 0.6850393700787402
        },
        {
          "duration": 0.3515625,
          "durationTicks": 144,
          "midi": 75,
          "name": "D#5",
          "ticks": 65856,
          "time": 160.78125,
          "velocity": 0.6850393700787402
        },
        {
          "duration": 0.3515625,
          "durationTicks": 144,
          "midi": 70,
          "name": "A#4",
          "ticks": 65856,
          "time": 160.78125,
          "velocity": 0.6850393700787402
        },
        {
          "duration": 0.04150390625,
          "durationTicks": 17,
          "midi": 77,
          "name": "F5",
          "ticks": 66528,
          "time": 162.421875,
          "velocity": 0.6299212598425197
        },
        {
          "duration": 0.04150390625,
          "durationTicks": 17,
          "midi": 73,
          "name": "C#5",
          "ticks": 66528,
          "time": 162.421875,
          "velocity": 0.6299212598425197
        },
        {
          "duration": 0.0537109375,
          "durationTicks": 22,
          "midi": 68,
          "name": "G#4",
          "ticks": 66528,
          "time": 162.421875,
          "velocity": 0.6299212598425197
        },
        {
          "duration": 0.0390625,
          "durationTicks": 16,
          "midi": 77,
          "name": "F5",
          "ticks": 66576,
          "time": 162.5390625,
          "velocity": 0.6771653543307087
        },
        {
          "duration": 0.0390625,
          "durationTicks": 16,
          "midi": 73,
          "name": "C#5",
          "ticks": 66576,
          "time": 162.5390625,
          "velocity": 0.6771653543307087
        },
        {
          "duration": 0.06103515625,
          "durationTicks": 25,
          "midi": 68,
          "name": "G#4",
          "ticks": 66576,
          "time": 162.5390625,
          "velocity": 0.6771653543307087
        },
        {
          "duration": 0.3271484375,
          "durationTicks": 134,
          "midi": 77,
          "name": "F5",
          "ticks": 66624,
          "time": 162.65625,
          "velocity": 0.7244094488188977
        },
        {
          "duration": 0.33203125,
          "durationTicks": 136,
          "midi": 73,
          "name": "C#5",
          "ticks": 66624,
          "time": 162.65625,
          "velocity": 0.7244094488188977
        },
        {
          "duration": 0.33935546875,
          "durationTicks": 139,
          "midi": 68,
          "name": "G#4",
          "ticks": 66624,
          "time": 162.65625,
          "velocity": 0.7244094488188977
        },
        {
          "duration": 0.0390625,
          "durationTicks": 16,
          "midi": 78,
          "name": "F#5",
          "ticks": 67296,
          "time": 164.296875,
          "velocity": 0.5748031496062992
        },
        {
          "duration": 0.0390625,
          "durationTicks": 16,
          "midi": 75,
          "name": "D#5",
          "ticks": 67296,
          "time": 164.296875,
          "velocity": 0.5748031496062992
        },
        {
          "duration": 0.0439453125,
          "durationTicks": 18,
          "midi": 70,
          "name": "A#4",
          "ticks": 67296,
          "time": 164.296875,
          "velocity": 0.5748031496062992
        },
        {
          "duration": 0.0439453125,
          "durationTicks": 18,
          "midi": 78,
          "name": "F#5",
          "ticks": 67344,
          "time": 164.4140625,
          "velocity": 0.6299212598425197
        },
        {
          "duration": 0.029296875,
          "durationTicks": 12,
          "midi": 75,
          "name": "D#5",
          "ticks": 67344,
          "time": 164.4140625,
          "velocity": 0.6299212598425197
        },
        {
          "duration": 0.05126953125,
          "durationTicks": 21,
          "midi": 70,
          "name": "A#4",
          "ticks": 67344,
          "time": 164.4140625,
          "velocity": 0.6299212598425197
        },
        {
          "duration": 0.30029296875,
          "durationTicks": 123,
          "midi": 78,
          "name": "F#5",
          "ticks": 67392,
          "time": 164.53125,
          "velocity": 0.6929133858267716
        },
        {
          "duration": 0.302734375,
          "durationTicks": 124,
          "midi": 75,
          "name": "D#5",
          "ticks": 67392,
          "time": 164.53125,
          "velocity": 0.6929133858267716
        },
        {
          "duration": 0.302734375,
          "durationTicks": 124,
          "midi": 70,
          "name": "A#4",
          "ticks": 67392,
          "time": 164.53125,
          "velocity": 0.6929133858267716
        },
        {
          "duration": 0.0390625,
          "durationTicks": 16,
          "midi": 78,
          "name": "F#5",
          "ticks": 68064,
          "time": 166.171875,
          "velocity": 0.5275590551181102
        },
        {
          "duration": 0.0390625,
          "durationTicks": 16,
          "midi": 75,
          "name": "D#5",
          "ticks": 68064,
          "time": 166.171875,
          "velocity": 0.5275590551181102
        },
        {
          "duration": 0.05859375,
          "durationTicks": 24,
          "midi": 70,
          "name": "A#4",
          "ticks": 68064,
          "time": 166.171875,
          "velocity": 0.5275590551181102
        },
        {
          "duration": 0.0390625,
          "durationTicks": 16,
          "midi": 78,
          "name": "F#5",
          "ticks": 68112,
          "time": 166.2890625,
          "velocity": 0.5905511811023622
        },
        {
          "duration": 0.029296875,
          "durationTicks": 12,
          "midi": 75,
          "name": "D#5",
          "ticks": 68112,
          "time": 166.2890625,
          "velocity": 0.5905511811023622
        },
        {
          "duration": 0.0634765625,
          "durationTicks": 26,
          "midi": 70,
          "name": "A#4",
          "ticks": 68112,
          "time": 166.2890625,
          "velocity": 0.5905511811023622
        },
        {
          "duration": 0.34912109375,
          "durationTicks": 143,
          "midi": 78,
          "name": "F#5",
          "ticks": 68160,
          "time": 166.40625,
          "velocity": 0.6535433070866141
        },
        {
          "duration": 0.33447265625,
          "durationTicks": 137,
          "midi": 75,
          "name": "D#5",
          "ticks": 68160,
          "time": 166.40625,
          "velocity": 0.6535433070866141
        },
        {
          "duration": 0.3564453125,
          "durationTicks": 146,
          "midi": 70,
          "name": "A#4",
          "ticks": 68160,
          "time": 166.40625,
          "velocity": 0.6535433070866141
        },
        {
          "duration": 0.0390625,
          "durationTicks": 16,
          "midi": 78,
          "name": "F#5",
          "ticks": 68832,
          "time": 168.046875,
          "velocity": 0.5669291338582677
        },
        {
          "duration": 0.03662109375,
          "durationTicks": 15,
          "midi": 75,
          "name": "D#5",
          "ticks": 68832,
          "time": 168.046875,
          "velocity": 0.5669291338582677
        },
        {
          "duration": 0.0537109375,
          "durationTicks": 22,
          "midi": 70,
          "name": "A#4",
          "ticks": 68832,
          "time": 168.046875,
          "velocity": 0.5669291338582677
        },
        {
          "duration": 0.0439453125,
          "durationTicks": 18,
          "midi": 78,
          "name": "F#5",
          "ticks": 68880,
          "time": 168.1640625,
          "velocity": 0.6299212598425197
        },
        {
          "duration": 0.029296875,
          "durationTicks": 12,
          "midi": 75,
          "name": "D#5",
          "ticks": 68880,
          "time": 168.1640625,
          "velocity": 0.6299212598425197
        },
        {
          "duration": 0.0537109375,
          "durationTicks": 22,
          "midi": 70,
          "name": "A#4",
          "ticks": 68880,
          "time": 168.1640625,
          "velocity": 0.6299212598425197
        },
        {
          "duration": 0.28076171875,
          "durationTicks": 115,
          "midi": 78,
          "name": "F#5",
          "ticks": 68928,
          "time": 168.28125,
          "velocity": 0.7007874015748031
        },
        {
          "duration": 0.2734375,
          "durationTicks": 112,
          "midi": 75,
          "name": "D#5",
          "ticks": 68928,
          "time": 168.28125,
          "velocity": 0.7007874015748031
        },
        {
          "duration": 0.28564453125,
          "durationTicks": 117,
          "midi": 70,
          "name": "A#4",
          "ticks": 68928,
          "time": 168.28125,
          "velocity": 0.7007874015748031
        },
        {
          "duration": 0.0537109375,
          "durationTicks": 22,
          "midi": 78,
          "name": "F#5",
          "ticks": 72672,
          "time": 177.421875,
          "velocity": 0.6456692913385826
        },
        {
          "duration": 0.029296875,
          "durationTicks": 12,
          "midi": 74,
          "name": "D5",
          "ticks": 72672,
          "time": 177.421875,
          "velocity": 0.6456692913385826
        },
        {
          "duration": 0.029296875,
          "durationTicks": 12,
          "midi": 70,
          "name": "A#4",
          "ticks": 72672,
          "time": 177.421875,
          "velocity": 0.6456692913385826
        },
        {
          "duration": 0.0537109375,
          "durationTicks": 22,
          "midi": 66,
          "name": "F#4",
          "ticks": 72672,
          "time": 177.421875,
          "velocity": 0.6456692913385826
        },
        {
          "duration": 0.0537109375,
          "durationTicks": 22,
          "midi": 78,
          "name": "F#5",
          "ticks": 72720,
          "time": 177.5390625,
          "velocity": 0.6929133858267716
        },
        {
          "duration": 0.01953125,
          "durationTicks": 8,
          "midi": 74,
          "name": "D5",
          "ticks": 72720,
          "time": 177.5390625,
          "velocity": 0.6929133858267716
        },
        {
          "duration": 0.01953125,
          "durationTicks": 8,
          "midi": 70,
          "name": "A#4",
          "ticks": 72720,
          "time": 177.5390625,
          "velocity": 0.6929133858267716
        },
        {
          "duration": 0.0537109375,
          "durationTicks": 22,
          "midi": 66,
          "name": "F#4",
          "ticks": 72720,
          "time": 177.5390625,
          "velocity": 0.6929133858267716
        },
        {
          "duration": 0.46875,
          "durationTicks": 192,
          "midi": 78,
          "name": "F#5",
          "ticks": 72768,
          "time": 177.65625,
          "velocity": 0.7559055118110236
        },
        {
          "duration": 0.46875,
          "durationTicks": 192,
          "midi": 74,
          "name": "D5",
          "ticks": 72768,
          "time": 177.65625,
          "velocity": 0.7559055118110236
        },
        {
          "duration": 0.46875,
          "durationTicks": 192,
          "midi": 70,
          "name": "A#4",
          "ticks": 72768,
          "time": 177.65625,
          "velocity": 0.7559055118110236
        },
        {
          "duration": 0.46875,
          "durationTicks": 192,
          "midi": 66,
          "name": "F#4",
          "ticks": 72768,
          "time": 177.65625,
          "velocity": 0.7559055118110236
        },
        {
          "duration": 0.04150390625,
          "durationTicks": 17,
          "midi": 78,
          "name": "F#5",
          "ticks": 73440,
          "time": 179.296875,
          "velocity": 0.5275590551181102
        },
        {
          "duration": 0.029296875,
          "durationTicks": 12,
          "midi": 74,
          "name": "D5",
          "ticks": 73440,
          "time": 179.296875,
          "velocity": 0.6220472440944882
        },
        {
          "duration": 0.01953125,
          "durationTicks": 8,
          "midi": 70,
          "name": "A#4",
          "ticks": 73440,
          "time": 179.296875,
          "velocity": 0.3464566929133858
        },
        {
          "duration": 0.05859375,
          "durationTicks": 24,
          "midi": 66,
          "name": "F#4",
          "ticks": 73440,
          "time": 179.296875,
          "velocity": 0.6377952755905512
        },
        {
          "duration": 0.06103515625,
          "durationTicks": 25,
          "midi": 78,
          "name": "F#5",
          "ticks": 73488,
          "time": 179.4140625,
          "velocity": 0.6614173228346457
        },
        {
          "duration": 0.02685546875,
          "durationTicks": 11,
          "midi": 74,
          "name": "D5",
          "ticks": 73488,
          "time": 179.4140625,
          "velocity": 0.6771653543307087
        },
        {
          "duration": 0.03173828125,
          "durationTicks": 13,
          "midi": 70,
          "name": "A#4",
          "ticks": 73488,
          "time": 179.4140625,
          "velocity": 0.5748031496062992
        },
        {
          "duration": 0.0634765625,
          "durationTicks": 26,
          "midi": 66,
          "name": "F#4",
          "ticks": 73488,
          "time": 179.4140625,
          "velocity": 0.6692913385826772
        },
        {
          "duration": 0.46875,
          "durationTicks": 192,
          "midi": 78,
          "name": "F#5",
          "ticks": 73536,
          "time": 179.53125,
          "velocity": 0.7322834645669292
        },
        {
          "duration": 0.46875,
          "durationTicks": 192,
          "midi": 74,
          "name": "D5",
          "ticks": 73536,
          "time": 179.53125,
          "velocity": 0.7716535433070866
        },
        {
          "duration": 0.46875,
          "durationTicks": 192,
          "midi": 70,
          "name": "A#4",
          "ticks": 73536,
          "time": 179.53125,
          "velocity": 0.7007874015748031
        },
        {
          "duration": 0.46875,
          "durationTicks": 192,
          "midi": 66,
          "name": "F#4",
          "ticks": 73536,
          "time": 179.53125,
          "velocity": 0.6692913385826772
        },
        {
          "duration": 0.0390625,
          "durationTicks": 16,
          "midi": 77,
          "name": "F5",
          "ticks": 74208,
          "time": 181.171875,
          "velocity": 0.7086614173228346
        },
        {
          "duration": 0.0439453125,
          "durationTicks": 18,
          "midi": 73,
          "name": "C#5",
          "ticks": 74208,
          "time": 181.171875,
          "velocity": 0.7795275590551181
        },
        {
          "duration": 0.0439453125,
          "durationTicks": 18,
          "midi": 70,
          "name": "A#4",
          "ticks": 74208,
          "time": 181.171875,
          "velocity": 0.7165354330708661
        },
        {
          "duration": 0.05126953125,
          "durationTicks": 21,
          "midi": 65,
          "name": "F4",
          "ticks": 74208,
          "time": 181.171875,
          "velocity": 0.6771653543307087
        },
        {
          "duration": 0.04150390625,
          "durationTicks": 17,
          "midi": 77,
          "name": "F5",
          "ticks": 74256,
          "time": 181.2890625,
          "velocity": 0.6692913385826772
        },
        {
          "duration": 0.04150390625,
          "durationTicks": 17,
          "midi": 73,
          "name": "C#5",
          "ticks": 74256,
          "time": 181.2890625,
          "velocity": 0.7795275590551181
        },
        {
          "duration": 0.0390625,
          "durationTicks": 16,
          "midi": 70,
          "name": "A#4",
          "ticks": 74256,
          "time": 181.2890625,
          "velocity": 0.6614173228346457
        },
        {
          "duration": 0.0537109375,
          "durationTicks": 22,
          "midi": 65,
          "name": "F4",
          "ticks": 74256,
          "time": 181.2890625,
          "velocity": 0.6299212598425197
        },
        {
          "duration": 0.46875,
          "durationTicks": 192,
          "midi": 77,
          "name": "F5",
          "ticks": 74304,
          "time": 181.40625,
          "velocity": 0.7874015748031497
        },
        {
          "duration": 0.46875,
          "durationTicks": 192,
          "midi": 73,
          "name": "C#5",
          "ticks": 74304,
          "time": 181.40625,
          "velocity": 0.889763779527559
        },
        {
          "duration": 0.46875,
          "durationTicks": 192,
          "midi": 70,
          "name": "A#4",
          "ticks": 74304,
          "time": 181.40625,
          "velocity": 0.7480314960629921
        },
        {
          "duration": 0.46875,
          "durationTicks": 192,
          "midi": 65,
          "name": "F4",
          "ticks": 74304,
          "time": 181.40625,
          "velocity": 0.6692913385826772
        },
        {
          "duration": 0.05126953125,
          "durationTicks": 21,
          "midi": 80,
          "name": "G#5",
          "ticks": 74976,
          "time": 183.046875,
          "velocity": 0.6614173228346457
        },
        {
          "duration": 0.0341796875,
          "durationTicks": 14,
          "midi": 77,
          "name": "F5",
          "ticks": 74976,
          "time": 183.046875,
          "velocity": 0.6614173228346457
        },
        {
          "duration": 0.0390625,
          "durationTicks": 16,
          "midi": 74,
          "name": "D5",
          "ticks": 74976,
          "time": 183.046875,
          "velocity": 0.6614173228346457
        },
        {
          "duration": 0.0537109375,
          "durationTicks": 22,
          "midi": 70,
          "name": "A#4",
          "ticks": 74976,
          "time": 183.046875,
          "velocity": 0.6614173228346457
        },
        {
          "duration": 0.04638671875,
          "durationTicks": 19,
          "midi": 80,
          "name": "G#5",
          "ticks": 75024,
          "time": 183.1640625,
          "velocity": 0.7322834645669292
        },
        {
          "duration": 0.0244140625,
          "durationTicks": 10,
          "midi": 77,
          "name": "F5",
          "ticks": 75024,
          "time": 183.1640625,
          "velocity": 0.7322834645669292
        },
        {
          "duration": 0.03662109375,
          "durationTicks": 15,
          "midi": 74,
          "name": "D5",
          "ticks": 75024,
          "time": 183.1640625,
          "velocity": 0.7322834645669292
        },
        {
          "duration": 0.05615234375,
          "durationTicks": 23,
          "midi": 70,
          "name": "A#4",
          "ticks": 75024,
          "time": 183.1640625,
          "velocity": 0.7322834645669292
        },
        {
          "duration": 0.46875,
          "durationTicks": 192,
          "midi": 80,
          "name": "G#5",
          "ticks": 75072,
          "time": 183.28125,
          "velocity": 0.8031496062992126
        },
        {
          "duration": 0.46875,
          "durationTicks": 192,
          "midi": 77,
          "name": "F5",
          "ticks": 75072,
          "time": 183.28125,
          "velocity": 0.8031496062992126
        },
        {
          "duration": 0.46875,
          "durationTicks": 192,
          "midi": 74,
          "name": "D5",
          "ticks": 75072,
          "time": 183.28125,
          "velocity": 0.8031496062992126
        },
        {
          "duration": 0.46875,
          "durationTicks": 192,
          "midi": 70,
          "name": "A#4",
          "ticks": 75072,
          "time": 183.28125,
          "velocity": 0.8031496062992126
        },
        {
          "duration": 0.07080078125,
          "durationTicks": 29,
          "midi": 77,
          "name": "F5",
          "ticks": 75744,
          "time": 184.921875,
          "velocity": 0.6062992125984252
        },
        {
          "duration": 0.06591796875,
          "durationTicks": 27,
          "midi": 73,
          "name": "C#5",
          "ticks": 75744,
          "time": 184.921875,
          "velocity": 0.6062992125984252
        },
        {
          "duration": 0.078125,
          "durationTicks": 32,
          "midi": 68,
          "name": "G#4",
          "ticks": 75744,
          "time": 184.921875,
          "velocity": 0.6062992125984252
        },
        {
          "duration": 0.06103515625,
          "durationTicks": 25,
          "midi": 77,
          "name": "F5",
          "ticks": 75792,
          "time": 185.0390625,
          "velocity": 0.6771653543307087
        },
        {
          "duration": 0.048828125,
          "durationTicks": 20,
          "midi": 73,
          "name": "C#5",
          "ticks": 75792,
          "time": 185.0390625,
          "velocity": 0.6771653543307087
        },
        {
          "duration": 0.06591796875,
          "durationTicks": 27,
          "midi": 68,
          "name": "G#4",
          "ticks": 75792,
          "time": 185.0390625,
          "velocity": 0.6771653543307087
        },
        {
          "duration": 0.29052734375,
          "durationTicks": 119,
          "midi": 77,
          "name": "F5",
          "ticks": 75840,
          "time": 185.15625,
          "velocity": 0.7637795275590551
        },
        {
          "duration": 0.28076171875,
          "durationTicks": 115,
          "midi": 73,
          "name": "C#5",
          "ticks": 75840,
          "time": 185.15625,
          "velocity": 0.7637795275590551
        },
        {
          "duration": 0.29052734375,
          "durationTicks": 119,
          "midi": 68,
          "name": "G#4",
          "ticks": 75840,
          "time": 185.15625,
          "velocity": 0.7637795275590551
        },
        {
          "duration": 0.029296875,
          "durationTicks": 12,
          "midi": 78,
          "name": "F#5",
          "ticks": 76512,
          "time": 186.796875,
          "velocity": 0.6614173228346457
        },
        {
          "duration": 0.0439453125,
          "durationTicks": 18,
          "midi": 75,
          "name": "D#5",
          "ticks": 76512,
          "time": 186.796875,
          "velocity": 0.6614173228346457
        },
        {
          "duration": 0.0439453125,
          "durationTicks": 18,
          "midi": 70,
          "name": "A#4",
          "ticks": 76512,
          "time": 186.796875,
          "velocity": 0.6614173228346457
        },
        {
          "duration": 0.0439453125,
          "durationTicks": 18,
          "midi": 78,
          "name": "F#5",
          "ticks": 76560,
          "time": 186.9140625,
          "velocity": 0.7322834645669292
        },
        {
          "duration": 0.03173828125,
          "durationTicks": 13,
          "midi": 75,
          "name": "D#5",
          "ticks": 76560,
          "time": 186.9140625,
          "velocity": 0.7322834645669292
        },
        {
          "duration": 0.048828125,
          "durationTicks": 20,
          "midi": 70,
          "name": "A#4",
          "ticks": 76560,
          "time": 186.9140625,
          "velocity": 0.7322834645669292
        },
        {
          "duration": 0.3515625,
          "durationTicks": 144,
          "midi": 78,
          "name": "F#5",
          "ticks": 76608,
          "time": 187.03125,
          "velocity": 0.7874015748031497
        },
        {
          "duration": 0.3515625,
          "durationTicks": 144,
          "midi": 75,
          "name": "D#5",
          "ticks": 76608,
          "time": 187.03125,
          "velocity": 0.7874015748031497
        },
        {
          "duration": 0.3515625,
          "durationTicks": 144,
          "midi": 70,
          "name": "A#4",
          "ticks": 76608,
          "time": 187.03125,
          "velocity": 0.7874015748031497
        },
        {
          "duration": 0.04150390625,
          "durationTicks": 17,
          "midi": 77,
          "name": "F5",
          "ticks": 77280,
          "time": 188.671875,
          "velocity": 0.6141732283464567
        },
        {
          "duration": 0.04150390625,
          "durationTicks": 17,
          "midi": 73,
          "name": "C#5",
          "ticks": 77280,
          "time": 188.671875,
          "velocity": 0.6141732283464567
        },
        {
          "duration": 0.0537109375,
          "durationTicks": 22,
          "midi": 68,
          "name": "G#4",
          "ticks": 77280,
          "time": 188.671875,
          "velocity": 0.6141732283464567
        },
        {
          "duration": 0.0390625,
          "durationTicks": 16,
          "midi": 77,
          "name": "F5",
          "ticks": 77328,
          "time": 188.7890625,
          "velocity": 0.6850393700787402
        },
        {
          "duration": 0.0390625,
          "durationTicks": 16,
          "midi": 73,
          "name": "C#5",
          "ticks": 77328,
          "time": 188.7890625,
          "velocity": 0.6850393700787402
        },
        {
          "duration": 0.06103515625,
          "durationTicks": 25,
          "midi": 68,
          "name": "G#4",
          "ticks": 77328,
          "time": 188.7890625,
          "velocity": 0.6850393700787402
        },
        {
          "duration": 0.3271484375,
          "durationTicks": 134,
          "midi": 77,
          "name": "F5",
          "ticks": 77376,
          "time": 188.90625,
          "velocity": 0.7637795275590551
        },
        {
          "duration": 0.33203125,
          "durationTicks": 136,
          "midi": 73,
          "name": "C#5",
          "ticks": 77376,
          "time": 188.90625,
          "velocity": 0.7637795275590551
        },
        {
          "duration": 0.33935546875,
          "durationTicks": 139,
          "midi": 68,
          "name": "G#4",
          "ticks": 77376,
          "time": 188.90625,
          "velocity": 0.7637795275590551
        },
        {
          "duration": 0.0390625,
          "durationTicks": 16,
          "midi": 78,
          "name": "F#5",
          "ticks": 78048,
          "time": 190.546875,
          "velocity": 0.5826771653543307
        },
        {
          "duration": 0.0390625,
          "durationTicks": 16,
          "midi": 75,
          "name": "D#5",
          "ticks": 78048,
          "time": 190.546875,
          "velocity": 0.5826771653543307
        },
        {
          "duration": 0.0439453125,
          "durationTicks": 18,
          "midi": 70,
          "name": "A#4",
          "ticks": 78048,
          "time": 190.546875,
          "velocity": 0.5826771653543307
        },
        {
          "duration": 0.0439453125,
          "durationTicks": 18,
          "midi": 78,
          "name": "F#5",
          "ticks": 78096,
          "time": 190.6640625,
          "velocity": 0.6692913385826772
        },
        {
          "duration": 0.029296875,
          "durationTicks": 12,
          "midi": 75,
          "name": "D#5",
          "ticks": 78096,
          "time": 190.6640625,
          "velocity": 0.6692913385826772
        },
        {
          "duration": 0.05126953125,
          "durationTicks": 21,
          "midi": 70,
          "name": "A#4",
          "ticks": 78096,
          "time": 190.6640625,
          "velocity": 0.6692913385826772
        },
        {
          "duration": 0.30029296875,
          "durationTicks": 123,
          "midi": 78,
          "name": "F#5",
          "ticks": 78144,
          "time": 190.78125,
          "velocity": 0.7637795275590551
        },
        {
          "duration": 0.302734375,
          "durationTicks": 124,
          "midi": 75,
          "name": "D#5",
          "ticks": 78144,
          "time": 190.78125,
          "velocity": 0.7637795275590551
        },
        {
          "duration": 0.302734375,
          "durationTicks": 124,
          "midi": 70,
          "name": "A#4",
          "ticks": 78144,
          "time": 190.78125,
          "velocity": 0.7637795275590551
        },
        {
          "duration": 0.0390625,
          "durationTicks": 16,
          "midi": 78,
          "name": "F#5",
          "ticks": 78816,
          "time": 192.421875,
          "velocity": 0.5590551181102362
        },
        {
          "duration": 0.0390625,
          "durationTicks": 16,
          "midi": 75,
          "name": "D#5",
          "ticks": 78816,
          "time": 192.421875,
          "velocity": 0.5590551181102362
        },
        {
          "duration": 0.05859375,
          "durationTicks": 24,
          "midi": 70,
          "name": "A#4",
          "ticks": 78816,
          "time": 192.421875,
          "velocity": 0.5590551181102362
        },
        {
          "duration": 0.0390625,
          "durationTicks": 16,
          "midi": 78,
          "name": "F#5",
          "ticks": 78864,
          "time": 192.5390625,
          "velocity": 0.6220472440944882
        },
        {
          "duration": 0.029296875,
          "durationTicks": 12,
          "midi": 75,
          "name": "D#5",
          "ticks": 78864,
          "time": 192.5390625,
          "velocity": 0.6220472440944882
        },
        {
          "duration": 0.0634765625,
          "durationTicks": 26,
          "midi": 70,
          "name": "A#4",
          "ticks": 78864,
          "time": 192.5390625,
          "velocity": 0.6220472440944882
        },
        {
          "duration": 0.34912109375,
          "durationTicks": 143,
          "midi": 78,
          "name": "F#5",
          "ticks": 78912,
          "time": 192.65625,
          "velocity": 0.6929133858267716
        },
        {
          "duration": 0.33447265625,
          "durationTicks": 137,
          "midi": 75,
          "name": "D#5",
          "ticks": 78912,
          "time": 192.65625,
          "velocity": 0.6929133858267716
        },
        {
          "duration": 0.3564453125,
          "durationTicks": 146,
          "midi": 70,
          "name": "A#4",
          "ticks": 78912,
          "time": 192.65625,
          "velocity": 0.6929133858267716
        },
        {
          "duration": 0.0390625,
          "durationTicks": 16,
          "midi": 78,
          "name": "F#5",
          "ticks": 79584,
          "time": 194.296875,
          "velocity": 0.5905511811023622
        },
        {
          "duration": 0.03662109375,
          "durationTicks": 15,
          "midi": 75,
          "name": "D#5",
          "ticks": 79584,
          "time": 194.296875,
          "velocity": 0.5905511811023622
        },
        {
          "duration": 0.0537109375,
          "durationTicks": 22,
          "midi": 70,
          "name": "A#4",
          "ticks": 79584,
          "time": 194.296875,
          "velocity": 0.5905511811023622
        },
        {
          "duration": 0.0439453125,
          "durationTicks": 18,
          "midi": 78,
          "name": "F#5",
          "ticks": 79632,
          "time": 194.4140625,
          "velocity": 0.6535433070866141
        },
        {
          "duration": 0.029296875,
          "durationTicks": 12,
          "midi": 75,
          "name": "D#5",
          "ticks": 79632,
          "time": 194.4140625,
          "velocity": 0.6535433070866141
        },
        {
          "duration": 0.0537109375,
          "durationTicks": 22,
          "midi": 70,
          "name": "A#4",
          "ticks": 79632,
          "time": 194.4140625,
          "velocity": 0.6535433070866141
        },
        {
          "duration": 0.28076171875,
          "durationTicks": 115,
          "midi": 78,
          "name": "F#5",
          "ticks": 79680,
          "time": 194.53125,
          "velocity": 0.7244094488188977
        },
        {
          "duration": 0.2734375,
          "durationTicks": 112,
          "midi": 75,
          "name": "D#5",
          "ticks": 79680,
          "time": 194.53125,
          "velocity": 0.7244094488188977
        },
        {
          "duration": 0.28564453125,
          "durationTicks": 117,
          "midi": 70,
          "name": "A#4",
          "ticks": 79680,
          "time": 194.53125,
          "velocity": 0.7244094488188977
        },
        {
          "duration": 0.07080078125,
          "durationTicks": 29,
          "midi": 77,
          "name": "F5",
          "ticks": 80352,
          "time": 196.171875,
          "velocity": 0.5748031496062992
        },
        {
          "duration": 0.06591796875,
          "durationTicks": 27,
          "midi": 73,
          "name": "C#5",
          "ticks": 80352,
          "time": 196.171875,
          "velocity": 0.5748031496062992
        },
        {
          "duration": 0.078125,
          "durationTicks": 32,
          "midi": 68,
          "name": "G#4",
          "ticks": 80352,
          "time": 196.171875,
          "velocity": 0.5748031496062992
        },
        {
          "duration": 0.06103515625,
          "durationTicks": 25,
          "midi": 77,
          "name": "F5",
          "ticks": 80400,
          "time": 196.2890625,
          "velocity": 0.6535433070866141
        },
        {
          "duration": 0.048828125,
          "durationTicks": 20,
          "midi": 73,
          "name": "C#5",
          "ticks": 80400,
          "time": 196.2890625,
          "velocity": 0.6535433070866141
        },
        {
          "duration": 0.06591796875,
          "durationTicks": 27,
          "midi": 68,
          "name": "G#4",
          "ticks": 80400,
          "time": 196.2890625,
          "velocity": 0.6535433070866141
        },
        {
          "duration": 0.29052734375,
          "durationTicks": 119,
          "midi": 77,
          "name": "F5",
          "ticks": 80448,
          "time": 196.40625,
          "velocity": 0.7244094488188977
        },
        {
          "duration": 0.28076171875,
          "durationTicks": 115,
          "midi": 73,
          "name": "C#5",
          "ticks": 80448,
          "time": 196.40625,
          "velocity": 0.7244094488188977
        },
        {
          "duration": 0.29052734375,
          "durationTicks": 119,
          "midi": 68,
          "name": "G#4",
          "ticks": 80448,
          "time": 196.40625,
          "velocity": 0.7244094488188977
        },
        {
          "duration": 0.029296875,
          "durationTicks": 12,
          "midi": 78,
          "name": "F#5",
          "ticks": 81120,
          "time": 198.046875,
          "velocity": 0.6535433070866141
        },
        {
          "duration": 0.0439453125,
          "durationTicks": 18,
          "midi": 75,
          "name": "D#5",
          "ticks": 81120,
          "time": 198.046875,
          "velocity": 0.6535433070866141
        },
        {
          "duration": 0.0439453125,
          "durationTicks": 18,
          "midi": 70,
          "name": "A#4",
          "ticks": 81120,
          "time": 198.046875,
          "velocity": 0.6535433070866141
        },
        {
          "duration": 0.0439453125,
          "durationTicks": 18,
          "midi": 78,
          "name": "F#5",
          "ticks": 81168,
          "time": 198.1640625,
          "velocity": 0.6929133858267716
        },
        {
          "duration": 0.03173828125,
          "durationTicks": 13,
          "midi": 75,
          "name": "D#5",
          "ticks": 81168,
          "time": 198.1640625,
          "velocity": 0.6929133858267716
        },
        {
          "duration": 0.048828125,
          "durationTicks": 20,
          "midi": 70,
          "name": "A#4",
          "ticks": 81168,
          "time": 198.1640625,
          "velocity": 0.6929133858267716
        },
        {
          "duration": 0.3515625,
          "durationTicks": 144,
          "midi": 78,
          "name": "F#5",
          "ticks": 81216,
          "time": 198.28125,
          "velocity": 0.7322834645669292
        },
        {
          "duration": 0.3515625,
          "durationTicks": 144,
          "midi": 75,
          "name": "D#5",
          "ticks": 81216,
          "time": 198.28125,
          "velocity": 0.7322834645669292
        },
        {
          "duration": 0.3515625,
          "durationTicks": 144,
          "midi": 70,
          "name": "A#4",
          "ticks": 81216,
          "time": 198.28125,
          "velocity": 0.7322834645669292
        },
        {
          "duration": 0.04150390625,
          "durationTicks": 17,
          "midi": 77,
          "name": "F5",
          "ticks": 81888,
          "time": 199.921875,
          "velocity": 0.6141732283464567
        },
        {
          "duration": 0.04150390625,
          "durationTicks": 17,
          "midi": 73,
          "name": "C#5",
          "ticks": 81888,
          "time": 199.921875,
          "velocity": 0.6141732283464567
        },
        {
          "duration": 0.0537109375,
          "durationTicks": 22,
          "midi": 68,
          "name": "G#4",
          "ticks": 81888,
          "time": 199.921875,
          "velocity": 0.6141732283464567
        },
        {
          "duration": 0.0390625,
          "durationTicks": 16,
          "midi": 77,
          "name": "F5",
          "ticks": 81936,
          "time": 200.0390625,
          "velocity": 0.6614173228346457
        },
        {
          "duration": 0.0390625,
          "durationTicks": 16,
          "midi": 73,
          "name": "C#5",
          "ticks": 81936,
          "time": 200.0390625,
          "velocity": 0.6614173228346457
        },
        {
          "duration": 0.06103515625,
          "durationTicks": 25,
          "midi": 68,
          "name": "G#4",
          "ticks": 81936,
          "time": 200.0390625,
          "velocity": 0.6614173228346457
        },
        {
          "duration": 0.3271484375,
          "durationTicks": 134,
          "midi": 77,
          "name": "F5",
          "ticks": 81984,
          "time": 200.15625,
          "velocity": 0.7086614173228346
        },
        {
          "duration": 0.33203125,
          "durationTicks": 136,
          "midi": 73,
          "name": "C#5",
          "ticks": 81984,
          "time": 200.15625,
          "velocity": 0.7086614173228346
        },
        {
          "duration": 0.33935546875,
          "durationTicks": 139,
          "midi": 68,
          "name": "G#4",
          "ticks": 81984,
          "time": 200.15625,
          "velocity": 0.7086614173228346
        },
        {
          "duration": 0.0390625,
          "durationTicks": 16,
          "midi": 78,
          "name": "F#5",
          "ticks": 82656,
          "time": 201.796875,
          "velocity": 0.5905511811023622
        },
        {
          "duration": 0.0390625,
          "durationTicks": 16,
          "midi": 75,
          "name": "D#5",
          "ticks": 82656,
          "time": 201.796875,
          "velocity": 0.5905511811023622
        },
        {
          "duration": 0.0439453125,
          "durationTicks": 18,
          "midi": 70,
          "name": "A#4",
          "ticks": 82656,
          "time": 201.796875,
          "velocity": 0.5905511811023622
        },
        {
          "duration": 0.0439453125,
          "durationTicks": 18,
          "midi": 78,
          "name": "F#5",
          "ticks": 82704,
          "time": 201.9140625,
          "velocity": 0.6456692913385826
        },
        {
          "duration": 0.029296875,
          "durationTicks": 12,
          "midi": 75,
          "name": "D#5",
          "ticks": 82704,
          "time": 201.9140625,
          "velocity": 0.6456692913385826
        },
        {
          "duration": 0.05126953125,
          "durationTicks": 21,
          "midi": 70,
          "name": "A#4",
          "ticks": 82704,
          "time": 201.9140625,
          "velocity": 0.6456692913385826
        },
        {
          "duration": 0.30029296875,
          "durationTicks": 123,
          "midi": 78,
          "name": "F#5",
          "ticks": 82752,
          "time": 202.03125,
          "velocity": 0.6929133858267716
        },
        {
          "duration": 0.302734375,
          "durationTicks": 124,
          "midi": 75,
          "name": "D#5",
          "ticks": 82752,
          "time": 202.03125,
          "velocity": 0.6929133858267716
        },
        {
          "duration": 0.302734375,
          "durationTicks": 124,
          "midi": 70,
          "name": "A#4",
          "ticks": 82752,
          "time": 202.03125,
          "velocity": 0.6929133858267716
        },
        {
          "duration": 0.0390625,
          "durationTicks": 16,
          "midi": 78,
          "name": "F#5",
          "ticks": 83424,
          "time": 203.671875,
          "velocity": 0.5905511811023622
        },
        {
          "duration": 0.0390625,
          "durationTicks": 16,
          "midi": 75,
          "name": "D#5",
          "ticks": 83424,
          "time": 203.671875,
          "velocity": 0.5905511811023622
        },
        {
          "duration": 0.05859375,
          "durationTicks": 24,
          "midi": 70,
          "name": "A#4",
          "ticks": 83424,
          "time": 203.671875,
          "velocity": 0.5905511811023622
        },
        {
          "duration": 0.0390625,
          "durationTicks": 16,
          "midi": 78,
          "name": "F#5",
          "ticks": 83472,
          "time": 203.7890625,
          "velocity": 0.6456692913385826
        },
        {
          "duration": 0.029296875,
          "durationTicks": 12,
          "midi": 75,
          "name": "D#5",
          "ticks": 83472,
          "time": 203.7890625,
          "velocity": 0.6456692913385826
        },
        {
          "duration": 0.0634765625,
          "durationTicks": 26,
          "midi": 70,
          "name": "A#4",
          "ticks": 83472,
          "time": 203.7890625,
          "velocity": 0.6456692913385826
        },
        {
          "duration": 0.34912109375,
          "durationTicks": 143,
          "midi": 78,
          "name": "F#5",
          "ticks": 83520,
          "time": 203.90625,
          "velocity": 0.7086614173228346
        },
        {
          "duration": 0.33447265625,
          "durationTicks": 137,
          "midi": 75,
          "name": "D#5",
          "ticks": 83520,
          "time": 203.90625,
          "velocity": 0.7086614173228346
        },
        {
          "duration": 0.3564453125,
          "durationTicks": 146,
          "midi": 70,
          "name": "A#4",
          "ticks": 83520,
          "time": 203.90625,
          "velocity": 0.7086614173228346
        },
        {
          "duration": 0.0390625,
          "durationTicks": 16,
          "midi": 78,
          "name": "F#5",
          "ticks": 84192,
          "time": 205.546875,
          "velocity": 0.5669291338582677
        },
        {
          "duration": 0.03662109375,
          "durationTicks": 15,
          "midi": 75,
          "name": "D#5",
          "ticks": 84192,
          "time": 205.546875,
          "velocity": 0.5669291338582677
        },
        {
          "duration": 0.0537109375,
          "durationTicks": 22,
          "midi": 70,
          "name": "A#4",
          "ticks": 84192,
          "time": 205.546875,
          "velocity": 0.5669291338582677
        },
        {
          "duration": 0.0439453125,
          "durationTicks": 18,
          "midi": 78,
          "name": "F#5",
          "ticks": 84240,
          "time": 205.6640625,
          "velocity": 0.6220472440944882
        },
        {
          "duration": 0.029296875,
          "durationTicks": 12,
          "midi": 75,
          "name": "D#5",
          "ticks": 84240,
          "time": 205.6640625,
          "velocity": 0.6220472440944882
        },
        {
          "duration": 0.0537109375,
          "durationTicks": 22,
          "midi": 70,
          "name": "A#4",
          "ticks": 84240,
          "time": 205.6640625,
          "velocity": 0.6220472440944882
        },
        {
          "duration": 0.28076171875,
          "durationTicks": 115,
          "midi": 78,
          "name": "F#5",
          "ticks": 84288,
          "time": 205.78125,
          "velocity": 0.6771653543307087
        },
        {
          "duration": 0.2734375,
          "durationTicks": 112,
          "midi": 75,
          "name": "D#5",
          "ticks": 84288,
          "time": 205.78125,
          "velocity": 0.6771653543307087
        },
        {
          "duration": 0.28564453125,
          "durationTicks": 117,
          "midi": 70,
          "name": "A#4",
          "ticks": 84288,
          "time": 205.78125,
          "velocity": 0.6771653543307087
        },
        {
          "duration": 0.07080078125,
          "durationTicks": 29,
          "midi": 77,
          "name": "F5",
          "ticks": 84960,
          "time": 207.421875,
          "velocity": 0.6220472440944882
        },
        {
          "duration": 0.06591796875,
          "durationTicks": 27,
          "midi": 73,
          "name": "C#5",
          "ticks": 84960,
          "time": 207.421875,
          "velocity": 0.6220472440944882
        },
        {
          "duration": 0.078125,
          "durationTicks": 32,
          "midi": 68,
          "name": "G#4",
          "ticks": 84960,
          "time": 207.421875,
          "velocity": 0.6220472440944882
        },
        {
          "duration": 0.06103515625,
          "durationTicks": 25,
          "midi": 77,
          "name": "F5",
          "ticks": 85008,
          "time": 207.5390625,
          "velocity": 0.6614173228346457
        },
        {
          "duration": 0.048828125,
          "durationTicks": 20,
          "midi": 73,
          "name": "C#5",
          "ticks": 85008,
          "time": 207.5390625,
          "velocity": 0.6614173228346457
        },
        {
          "duration": 0.06591796875,
          "durationTicks": 27,
          "midi": 68,
          "name": "G#4",
          "ticks": 85008,
          "time": 207.5390625,
          "velocity": 0.6614173228346457
        },
        {
          "duration": 0.29052734375,
          "durationTicks": 119,
          "midi": 77,
          "name": "F5",
          "ticks": 85056,
          "time": 207.65625,
          "velocity": 0.7165354330708661
        },
        {
          "duration": 0.28076171875,
          "durationTicks": 115,
          "midi": 73,
          "name": "C#5",
          "ticks": 85056,
          "time": 207.65625,
          "velocity": 0.7165354330708661
        },
        {
          "duration": 0.29052734375,
          "durationTicks": 119,
          "midi": 68,
          "name": "G#4",
          "ticks": 85056,
          "time": 207.65625,
          "velocity": 0.7165354330708661
        },
        {
          "duration": 0.029296875,
          "durationTicks": 12,
          "midi": 78,
          "name": "F#5",
          "ticks": 85728,
          "time": 209.296875,
          "velocity": 0.6141732283464567
        },
        {
          "duration": 0.0439453125,
          "durationTicks": 18,
          "midi": 75,
          "name": "D#5",
          "ticks": 85728,
          "time": 209.296875,
          "velocity": 0.6141732283464567
        },
        {
          "duration": 0.0439453125,
          "durationTicks": 18,
          "midi": 70,
          "name": "A#4",
          "ticks": 85728,
          "time": 209.296875,
          "velocity": 0.6141732283464567
        },
        {
          "duration": 0.0439453125,
          "durationTicks": 18,
          "midi": 78,
          "name": "F#5",
          "ticks": 85776,
          "time": 209.4140625,
          "velocity": 0.6692913385826772
        },
        {
          "duration": 0.03173828125,
          "durationTicks": 13,
          "midi": 75,
          "name": "D#5",
          "ticks": 85776,
          "time": 209.4140625,
          "velocity": 0.6692913385826772
        },
        {
          "duration": 0.048828125,
          "durationTicks": 20,
          "midi": 70,
          "name": "A#4",
          "ticks": 85776,
          "time": 209.4140625,
          "velocity": 0.6692913385826772
        },
        {
          "duration": 0.234375,
          "durationTicks": 96,
          "midi": 78,
          "name": "F#5",
          "ticks": 85824,
          "time": 209.53125,
          "velocity": 0.7244094488188977
        },
        {
          "duration": 0.234375,
          "durationTicks": 96,
          "midi": 75,
          "name": "D#5",
          "ticks": 85824,
          "time": 209.53125,
          "velocity": 0.7244094488188977
        },
        {
          "duration": 0.234375,
          "durationTicks": 96,
          "midi": 70,
          "name": "A#4",
          "ticks": 85824,
          "time": 209.53125,
          "velocity": 0.7244094488188977
        },
        {
          "duration": 0.04150390625,
          "durationTicks": 17,
          "midi": 77,
          "name": "F5",
          "ticks": 86496,
          "time": 211.171875,
          "velocity": 0.6220472440944882
        },
        {
          "duration": 0.04150390625,
          "durationTicks": 17,
          "midi": 73,
          "name": "C#5",
          "ticks": 86496,
          "time": 211.171875,
          "velocity": 0.6220472440944882
        },
        {
          "duration": 0.0537109375,
          "durationTicks": 22,
          "midi": 68,
          "name": "G#4",
          "ticks": 86496,
          "time": 211.171875,
          "velocity": 0.6220472440944882
        },
        {
          "duration": 0.0390625,
          "durationTicks": 16,
          "midi": 77,
          "name": "F5",
          "ticks": 86544,
          "time": 211.2890625,
          "velocity": 0.6692913385826772
        },
        {
          "duration": 0.0390625,
          "durationTicks": 16,
          "midi": 73,
          "name": "C#5",
          "ticks": 86544,
          "time": 211.2890625,
          "velocity": 0.6692913385826772
        },
        {
          "duration": 0.06103515625,
          "durationTicks": 25,
          "midi": 68,
          "name": "G#4",
          "ticks": 86544,
          "time": 211.2890625,
          "velocity": 0.6692913385826772
        },
        {
          "duration": 0.3271484375,
          "durationTicks": 134,
          "midi": 77,
          "name": "F5",
          "ticks": 86592,
          "time": 211.40625,
          "velocity": 0.7244094488188977
        },
        {
          "duration": 0.33203125,
          "durationTicks": 136,
          "midi": 73,
          "name": "C#5",
          "ticks": 86592,
          "time": 211.40625,
          "velocity": 0.7244094488188977
        },
        {
          "duration": 0.33935546875,
          "durationTicks": 139,
          "midi": 68,
          "name": "G#4",
          "ticks": 86592,
          "time": 211.40625,
          "velocity": 0.7244094488188977
        },
        {
          "duration": 0.0390625,
          "durationTicks": 16,
          "midi": 78,
          "name": "F#5",
          "ticks": 87264,
          "time": 213.046875,
          "velocity": 0.6299212598425197
        },
        {
          "duration": 0.0390625,
          "durationTicks": 16,
          "midi": 75,
          "name": "D#5",
          "ticks": 87264,
          "time": 213.046875,
          "velocity": 0.6299212598425197
        },
        {
          "duration": 0.0439453125,
          "durationTicks": 18,
          "midi": 70,
          "name": "A#4",
          "ticks": 87264,
          "time": 213.046875,
          "velocity": 0.6299212598425197
        },
        {
          "duration": 0.0439453125,
          "durationTicks": 18,
          "midi": 78,
          "name": "F#5",
          "ticks": 87312,
          "time": 213.1640625,
          "velocity": 0.6692913385826772
        },
        {
          "duration": 0.029296875,
          "durationTicks": 12,
          "midi": 75,
          "name": "D#5",
          "ticks": 87312,
          "time": 213.1640625,
          "velocity": 0.6692913385826772
        },
        {
          "duration": 0.05126953125,
          "durationTicks": 21,
          "midi": 70,
          "name": "A#4",
          "ticks": 87312,
          "time": 213.1640625,
          "velocity": 0.6692913385826772
        },
        {
          "duration": 0.30029296875,
          "durationTicks": 123,
          "midi": 78,
          "name": "F#5",
          "ticks": 87360,
          "time": 213.28125,
          "velocity": 0.7165354330708661
        },
        {
          "duration": 0.302734375,
          "durationTicks": 124,
          "midi": 75,
          "name": "D#5",
          "ticks": 87360,
          "time": 213.28125,
          "velocity": 0.7165354330708661
        },
        {
          "duration": 0.302734375,
          "durationTicks": 124,
          "midi": 70,
          "name": "A#4",
          "ticks": 87360,
          "time": 213.28125,
          "velocity": 0.7165354330708661
        },
        {
          "duration": 0.0390625,
          "durationTicks": 16,
          "midi": 78,
          "name": "F#5",
          "ticks": 88032,
          "time": 214.921875,
          "velocity": 0.5826771653543307
        },
        {
          "duration": 0.0390625,
          "durationTicks": 16,
          "midi": 75,
          "name": "D#5",
          "ticks": 88032,
          "time": 214.921875,
          "velocity": 0.5826771653543307
        },
        {
          "duration": 0.05859375,
          "durationTicks": 24,
          "midi": 70,
          "name": "A#4",
          "ticks": 88032,
          "time": 214.921875,
          "velocity": 0.5826771653543307
        },
        {
          "duration": 0.0390625,
          "durationTicks": 16,
          "midi": 78,
          "name": "F#5",
          "ticks": 88080,
          "time": 215.0390625,
          "velocity": 0.6456692913385826
        },
        {
          "duration": 0.029296875,
          "durationTicks": 12,
          "midi": 75,
          "name": "D#5",
          "ticks": 88080,
          "time": 215.0390625,
          "velocity": 0.6456692913385826
        },
        {
          "duration": 0.0634765625,
          "durationTicks": 26,
          "midi": 70,
          "name": "A#4",
          "ticks": 88080,
          "time": 215.0390625,
          "velocity": 0.6456692913385826
        },
        {
          "duration": 0.34912109375,
          "durationTicks": 143,
          "midi": 78,
          "name": "F#5",
          "ticks": 88128,
          "time": 215.15625,
          "velocity": 0.7165354330708661
        },
        {
          "duration": 0.33447265625,
          "durationTicks": 137,
          "midi": 75,
          "name": "D#5",
          "ticks": 88128,
          "time": 215.15625,
          "velocity": 0.7165354330708661
        },
        {
          "duration": 0.3564453125,
          "durationTicks": 146,
          "midi": 70,
          "name": "A#4",
          "ticks": 88128,
          "time": 215.15625,
          "velocity": 0.7165354330708661
        },
        {
          "duration": 0.0390625,
          "durationTicks": 16,
          "midi": 78,
          "name": "F#5",
          "ticks": 88800,
          "time": 216.796875,
          "velocity": 0.6141732283464567
        },
        {
          "duration": 0.03662109375,
          "durationTicks": 15,
          "midi": 75,
          "name": "D#5",
          "ticks": 88800,
          "time": 216.796875,
          "velocity": 0.6141732283464567
        },
        {
          "duration": 0.0537109375,
          "durationTicks": 22,
          "midi": 70,
          "name": "A#4",
          "ticks": 88800,
          "time": 216.796875,
          "velocity": 0.6141732283464567
        },
        {
          "duration": 0.0439453125,
          "durationTicks": 18,
          "midi": 78,
          "name": "F#5",
          "ticks": 88848,
          "time": 216.9140625,
          "velocity": 0.6535433070866141
        },
        {
          "duration": 0.029296875,
          "durationTicks": 12,
          "midi": 75,
          "name": "D#5",
          "ticks": 88848,
          "time": 216.9140625,
          "velocity": 0.6535433070866141
        },
        {
          "duration": 0.0537109375,
          "durationTicks": 22,
          "midi": 70,
          "name": "A#4",
          "ticks": 88848,
          "time": 216.9140625,
          "velocity": 0.6535433070866141
        },
        {
          "duration": 0.28076171875,
          "durationTicks": 115,
          "midi": 78,
          "name": "F#5",
          "ticks": 88896,
          "time": 217.03125,
          "velocity": 0.7086614173228346
        },
        {
          "duration": 0.2734375,
          "durationTicks": 112,
          "midi": 75,
          "name": "D#5",
          "ticks": 88896,
          "time": 217.03125,
          "velocity": 0.7086614173228346
        },
        {
          "duration": 0.28564453125,
          "durationTicks": 117,
          "midi": 70,
          "name": "A#4",
          "ticks": 88896,
          "time": 217.03125,
          "velocity": 0.7086614173228346
        },
        {
          "duration": 0.07080078125,
          "durationTicks": 29,
          "midi": 77,
          "name": "F5",
          "ticks": 96864,
          "time": 236.484375,
          "velocity": 0.6535433070866141
        },
        {
          "duration": 0.06591796875,
          "durationTicks": 27,
          "midi": 73,
          "name": "C#5",
          "ticks": 96864,
          "time": 236.484375,
          "velocity": 0.6535433070866141
        },
        {
          "duration": 0.078125,
          "durationTicks": 32,
          "midi": 68,
          "name": "G#4",
          "ticks": 96864,
          "time": 236.484375,
          "velocity": 0.6535433070866141
        },
        {
          "duration": 0.06103515625,
          "durationTicks": 25,
          "midi": 77,
          "name": "F5",
          "ticks": 96912,
          "time": 236.6015625,
          "velocity": 0.6692913385826772
        },
        {
          "duration": 0.048828125,
          "durationTicks": 20,
          "midi": 73,
          "name": "C#5",
          "ticks": 96912,
          "time": 236.6015625,
          "velocity": 0.6692913385826772
        },
        {
          "duration": 0.06591796875,
          "durationTicks": 27,
          "midi": 68,
          "name": "G#4",
          "ticks": 96912,
          "time": 236.6015625,
          "velocity": 0.6692913385826772
        },
        {
          "duration": 0.29052734375,
          "durationTicks": 119,
          "midi": 77,
          "name": "F5",
          "ticks": 96960,
          "time": 236.71875,
          "velocity": 0.6850393700787402
        },
        {
          "duration": 0.28076171875,
          "durationTicks": 115,
          "midi": 73,
          "name": "C#5",
          "ticks": 96960,
          "time": 236.71875,
          "velocity": 0.6850393700787402
        },
        {
          "duration": 0.29052734375,
          "durationTicks": 119,
          "midi": 68,
          "name": "G#4",
          "ticks": 96960,
          "time": 236.71875,
          "velocity": 0.6850393700787402
        },
        {
          "duration": 0.029296875,
          "durationTicks": 12,
          "midi": 78,
          "name": "F#5",
          "ticks": 97632,
          "time": 238.359375,
          "velocity": 0.6141732283464567
        },
        {
          "duration": 0.0439453125,
          "durationTicks": 18,
          "midi": 75,
          "name": "D#5",
          "ticks": 97632,
          "time": 238.359375,
          "velocity": 0.6141732283464567
        },
        {
          "duration": 0.0439453125,
          "durationTicks": 18,
          "midi": 70,
          "name": "A#4",
          "ticks": 97632,
          "time": 238.359375,
          "velocity": 0.6141732283464567
        },
        {
          "duration": 0.0439453125,
          "durationTicks": 18,
          "midi": 78,
          "name": "F#5",
          "ticks": 97680,
          "time": 238.4765625,
          "velocity": 0.6377952755905512
        },
        {
          "duration": 0.03173828125,
          "durationTicks": 13,
          "midi": 75,
          "name": "D#5",
          "ticks": 97680,
          "time": 238.4765625,
          "velocity": 0.6377952755905512
        },
        {
          "duration": 0.048828125,
          "durationTicks": 20,
          "midi": 70,
          "name": "A#4",
          "ticks": 97680,
          "time": 238.4765625,
          "velocity": 0.6377952755905512
        },
        {
          "duration": 0.3515625,
          "durationTicks": 144,
          "midi": 78,
          "name": "F#5",
          "ticks": 97728,
          "time": 238.59375,
          "velocity": 0.6692913385826772
        },
        {
          "duration": 0.3515625,
          "durationTicks": 144,
          "midi": 75,
          "name": "D#5",
          "ticks": 97728,
          "time": 238.59375,
          "velocity": 0.6692913385826772
        },
        {
          "duration": 0.3515625,
          "durationTicks": 144,
          "midi": 70,
          "name": "A#4",
          "ticks": 97728,
          "time": 238.59375,
          "velocity": 0.6692913385826772
        },
        {
          "duration": 0.04150390624997158,
          "durationTicks": 17,
          "midi": 77,
          "name": "F5",
          "ticks": 98400,
          "time": 240.234375,
          "velocity": 0.6456692913385826
        },
        {
          "duration": 0.04150390624997158,
          "durationTicks": 17,
          "midi": 73,
          "name": "C#5",
          "ticks": 98400,
          "time": 240.234375,
          "velocity": 0.6456692913385826
        },
        {
          "duration": 0.05371093750002842,
          "durationTicks": 22,
          "midi": 68,
          "name": "G#4",
          "ticks": 98400,
          "time": 240.234375,
          "velocity": 0.6456692913385826
        },
        {
          "duration": 0.03906250000002842,
          "durationTicks": 16,
          "midi": 77,
          "name": "F5",
          "ticks": 98448,
          "time": 240.3515625,
          "velocity": 0.6614173228346457
        },
        {
          "duration": 0.03906250000002842,
          "durationTicks": 16,
          "midi": 73,
          "name": "C#5",
          "ticks": 98448,
          "time": 240.3515625,
          "velocity": 0.6614173228346457
        },
        {
          "duration": 0.06103515625002842,
          "durationTicks": 25,
          "midi": 68,
          "name": "G#4",
          "ticks": 98448,
          "time": 240.3515625,
          "velocity": 0.6614173228346457
        },
        {
          "duration": 0.3271484374999716,
          "durationTicks": 134,
          "midi": 77,
          "name": "F5",
          "ticks": 98496,
          "time": 240.46875,
          "velocity": 0.6692913385826772
        },
        {
          "duration": 0.3320312500000284,
          "durationTicks": 136,
          "midi": 73,
          "name": "C#5",
          "ticks": 98496,
          "time": 240.46875,
          "velocity": 0.6692913385826772
        },
        {
          "duration": 0.3393554687500284,
          "durationTicks": 139,
          "midi": 68,
          "name": "G#4",
          "ticks": 98496,
          "time": 240.46875,
          "velocity": 0.6692913385826772
        },
        {
          "duration": 0.03906250000002842,
          "durationTicks": 16,
          "midi": 78,
          "name": "F#5",
          "ticks": 99168,
          "time": 242.109375,
          "velocity": 0.6220472440944882
        },
        {
          "duration": 0.03906250000002842,
          "durationTicks": 16,
          "midi": 75,
          "name": "D#5",
          "ticks": 99168,
          "time": 242.109375,
          "velocity": 0.6220472440944882
        },
        {
          "duration": 0.0439453125,
          "durationTicks": 18,
          "midi": 70,
          "name": "A#4",
          "ticks": 99168,
          "time": 242.109375,
          "velocity": 0.6220472440944882
        },
        {
          "duration": 0.0439453125,
          "durationTicks": 18,
          "midi": 78,
          "name": "F#5",
          "ticks": 99216,
          "time": 242.2265625,
          "velocity": 0.6377952755905512
        },
        {
          "duration": 0.029296875,
          "durationTicks": 12,
          "midi": 75,
          "name": "D#5",
          "ticks": 99216,
          "time": 242.2265625,
          "velocity": 0.6377952755905512
        },
        {
          "duration": 0.05126953125,
          "durationTicks": 21,
          "midi": 70,
          "name": "A#4",
          "ticks": 99216,
          "time": 242.2265625,
          "velocity": 0.6377952755905512
        },
        {
          "duration": 0.30029296875,
          "durationTicks": 123,
          "midi": 78,
          "name": "F#5",
          "ticks": 99264,
          "time": 242.34375,
          "velocity": 0.6535433070866141
        },
        {
          "duration": 0.3027343750000284,
          "durationTicks": 124,
          "midi": 75,
          "name": "D#5",
          "ticks": 99264,
          "time": 242.34375,
          "velocity": 0.6535433070866141
        },
        {
          "duration": 0.3027343750000284,
          "durationTicks": 124,
          "midi": 70,
          "name": "A#4",
          "ticks": 99264,
          "time": 242.34375,
          "velocity": 0.6535433070866141
        },
        {
          "duration": 0.03906250000002842,
          "durationTicks": 16,
          "midi": 78,
          "name": "F#5",
          "ticks": 99936,
          "time": 243.984375,
          "velocity": 0.5826771653543307
        },
        {
          "duration": 0.03906250000002842,
          "durationTicks": 16,
          "midi": 75,
          "name": "D#5",
          "ticks": 99936,
          "time": 243.984375,
          "velocity": 0.5826771653543307
        },
        {
          "duration": 0.05859375,
          "durationTicks": 24,
          "midi": 70,
          "name": "A#4",
          "ticks": 99936,
          "time": 243.984375,
          "velocity": 0.5826771653543307
        },
        {
          "duration": 0.03906250000002842,
          "durationTicks": 16,
          "midi": 78,
          "name": "F#5",
          "ticks": 99984,
          "time": 244.1015625,
          "velocity": 0.6062992125984252
        },
        {
          "duration": 0.029296875,
          "durationTicks": 12,
          "midi": 75,
          "name": "D#5",
          "ticks": 99984,
          "time": 244.1015625,
          "velocity": 0.6062992125984252
        },
        {
          "duration": 0.06347656249997158,
          "durationTicks": 26,
          "midi": 70,
          "name": "A#4",
          "ticks": 99984,
          "time": 244.1015625,
          "velocity": 0.6062992125984252
        },
        {
          "duration": 0.3491210937499716,
          "durationTicks": 143,
          "midi": 78,
          "name": "F#5",
          "ticks": 100032,
          "time": 244.21875,
          "velocity": 0.6220472440944882
        },
        {
          "duration": 0.3344726562499716,
          "durationTicks": 137,
          "midi": 75,
          "name": "D#5",
          "ticks": 100032,
          "time": 244.21875,
          "velocity": 0.6220472440944882
        },
        {
          "duration": 0.3564453124999716,
          "durationTicks": 146,
          "midi": 70,
          "name": "A#4",
          "ticks": 100032,
          "time": 244.21875,
          "velocity": 0.6220472440944882
        },
        {
          "duration": 0.03906250000002842,
          "durationTicks": 16,
          "midi": 78,
          "name": "F#5",
          "ticks": 100704,
          "time": 245.859375,
          "velocity": 0.6299212598425197
        },
        {
          "duration": 0.03662109375,
          "durationTicks": 15,
          "midi": 75,
          "name": "D#5",
          "ticks": 100704,
          "time": 245.859375,
          "velocity": 0.6299212598425197
        },
        {
          "duration": 0.05371093750002842,
          "durationTicks": 22,
          "midi": 70,
          "name": "A#4",
          "ticks": 100704,
          "time": 245.859375,
          "velocity": 0.6299212598425197
        },
        {
          "duration": 0.0439453125,
          "durationTicks": 18,
          "midi": 78,
          "name": "F#5",
          "ticks": 100752,
          "time": 245.9765625,
          "velocity": 0.6456692913385826
        },
        {
          "duration": 0.029296875,
          "durationTicks": 12,
          "midi": 75,
          "name": "D#5",
          "ticks": 100752,
          "time": 245.9765625,
          "velocity": 0.6456692913385826
        },
        {
          "duration": 0.05371093750002842,
          "durationTicks": 22,
          "midi": 70,
          "name": "A#4",
          "ticks": 100752,
          "time": 245.9765625,
          "velocity": 0.6456692913385826
        },
        {
          "duration": 0.2807617187500284,
          "durationTicks": 115,
          "midi": 78,
          "name": "F#5",
          "ticks": 100800,
          "time": 246.09375,
          "velocity": 0.6614173228346457
        },
        {
          "duration": 0.2734375000000284,
          "durationTicks": 112,
          "midi": 75,
          "name": "D#5",
          "ticks": 100800,
          "time": 246.09375,
          "velocity": 0.6614173228346457
        },
        {
          "duration": 0.28564453125,
          "durationTicks": 117,
          "midi": 70,
          "name": "A#4",
          "ticks": 100800,
          "time": 246.09375,
          "velocity": 0.6614173228346457
        }
      ]
    },
    {
      "channel": 0,
      "controlChanges": {
        "0": [
          {
            "number": 0,
            "ticks": 210,
            "time": 0.5126953125,
            "value": 0
          }
        ],
        "32": [
          {
            "number": 32,
            "ticks": 212,
            "time": 0.517578125,
            "value": 0
          }
        ],
        "121": [
          {
            "number": 121,
            "ticks": 192,
            "time": 0.46875,
            "value": 0
          }
        ]
      },
      "pitchBends": [],
      "instrument": {
        "family": "piano",
        "number": 0,
        "name": "acoustic grand piano"
      },
      "name": "",
      "notes": [],
      "endOfTrackTicks": 112128
    },
    {
      "channel": 1,
      "controlChanges": {
        "6": [
          {
            "number": 6,
            "ticks": 390,
            "time": 0.9521484375,
            "value": 0.33858267716535434
          },
          {
            "number": 6,
            "ticks": 394,
            "time": 0.9619140625000001,
            "value": 0.3700787401574803
          }
        ],
        "7": [
          {
            "number": 7,
            "ticks": 216,
            "time": 0.52734375,
            "value": 0.8740157480314961
          }
        ],
        "10": [
          {
            "number": 10,
            "ticks": 218,
            "time": 0.5322265625,
            "value": 0.5039370078740157
          }
        ],
        "11": [
          {
            "number": 11,
            "ticks": 220,
            "time": 0.537109375,
            "value": 1
          }
        ],
        "91": [
          {
            "number": 91,
            "ticks": 222,
            "time": 0.5419921875,
            "value": 0.2992125984251969
          }
        ],
        "93": [
          {
            "number": 93,
            "ticks": 224,
            "time": 0.546875,
            "value": 0.2755905511811024
          }
        ],
        "98": [
          {
            "number": 98,
            "ticks": 388,
            "time": 0.9472656250000001,
            "value": 0.25196850393700787
          },
          {
            "number": 98,
            "ticks": 392,
            "time": 0.9570312499999999,
            "value": 0.25984251968503935
          }
        ],
        "99": [
          {
            "number": 99,
            "ticks": 386,
            "time": 0.9423828124999999,
            "value": 0.007874015748031496
          }
        ],
        "100": [
          {
            "number": 100,
            "ticks": 396,
            "time": 0.966796875,
            "value": 1
          }
        ],
        "101": [
          {
            "number": 101,
            "ticks": 398,
            "time": 0.9716796874999999,
            "value": 1
          }
        ]
      },
      "pitchBends": [],
      "instrument": {
        "family": "bass",
        "number": 33,
        "name": "electric bass (finger)"
      },
      "name": "",
      "notes": [
        {
          "duration": 0.2001953125,
          "durationTicks": 82,
          "midi": 39,
          "name": "D#2",
          "ticks": 768,
          "time": 1.875,
          "velocity": 0.6929133858267716
        },
        {
          "duration": 0.21728515625,
          "durationTicks": 89,
          "midi": 39,
          "name": "D#2",
          "ticks": 864,
          "time": 2.109375,
          "velocity": 0.7401574803149606
        },
        {
          "duration": 0.23681640625,
          "durationTicks": 97,
          "midi": 34,
          "name": "A#1",
          "ticks": 960,
          "time": 2.34375,
          "velocity": 0.7007874015748031
        },
        {
          "duration": 0.2099609375,
          "durationTicks": 86,
          "midi": 39,
          "name": "D#2",
          "ticks": 1056,
          "time": 2.578125,
          "velocity": 0.7007874015748031
        },
        {
          "duration": 0.205078125,
          "durationTicks": 84,
          "midi": 38,
          "name": "D2",
          "ticks": 1152,
          "time": 2.8125,
          "velocity": 0.7480314960629921
        },
        {
          "duration": 0.2001953125,
          "durationTicks": 82,
          "midi": 38,
          "name": "D2",
          "ticks": 1248,
          "time": 3.046875,
          "velocity": 0.7007874015748031
        },
        {
          "duration": 0.19775390625,
          "durationTicks": 81,
          "midi": 34,
          "name": "A#1",
          "ticks": 1344,
          "time": 3.28125,
          "velocity": 0.7007874015748031
        },
        {
          "duration": 0.1806640625,
          "durationTicks": 74,
          "midi": 38,
          "name": "D2",
          "ticks": 1440,
          "time": 3.515625,
          "velocity": 0.7086614173228346
        },
        {
          "duration": 0.21728515624999956,
          "durationTicks": 89,
          "midi": 37,
          "name": "C#2",
          "ticks": 1536,
          "time": 3.75,
          "velocity": 0.6614173228346457
        },
        {
          "duration": 0.2099609375,
          "durationTicks": 86,
          "midi": 37,
          "name": "C#2",
          "ticks": 1632,
          "time": 3.984375,
          "velocity": 0.7165354330708661
        },
        {
          "duration": 0.2392578125,
          "durationTicks": 98,
          "midi": 34,
          "name": "A#1",
          "ticks": 1728,
          "time": 4.21875,
          "velocity": 0.7480314960629921
        },
        {
          "duration": 0.17333984375,
          "durationTicks": 71,
          "midi": 37,
          "name": "C#2",
          "ticks": 1824,
          "time": 4.453125,
          "velocity": 0.7480314960629921
        },
        {
          "duration": 0.21484375,
          "durationTicks": 88,
          "midi": 38,
          "name": "D2",
          "ticks": 1920,
          "time": 4.6875,
          "velocity": 0.7874015748031497
        },
        {
          "duration": 0.19775390625,
          "durationTicks": 81,
          "midi": 38,
          "name": "D2",
          "ticks": 2016,
          "time": 4.921875,
          "velocity": 0.7795275590551181
        },
        {
          "duration": 0.205078125,
          "durationTicks": 84,
          "midi": 34,
          "name": "A#1",
          "ticks": 2112,
          "time": 5.15625,
          "velocity": 0.7007874015748031
        },
        {
          "duration": 0.17578125,
          "durationTicks": 72,
          "midi": 38,
          "name": "D2",
          "ticks": 2208,
          "time": 5.390625,
          "velocity": 0.7244094488188977
        },
        {
          "duration": 0.2001953125,
          "durationTicks": 82,
          "midi": 39,
          "name": "D#2",
          "ticks": 2304,
          "time": 5.625,
          "velocity": 0.6929133858267716
        },
        {
          "duration": 0.21728515625,
          "durationTicks": 89,
          "midi": 39,
          "name": "D#2",
          "ticks": 2400,
          "time": 5.859375,
          "velocity": 0.7401574803149606
        },
        {
          "duration": 0.21484375,
          "durationTicks": 88,
          "midi": 34,
          "name": "A#1",
          "ticks": 2496,
          "time": 6.09375,
          "velocity": 0.6771653543307087
        },
        {
          "duration": 0.234375,
          "durationTicks": 96,
          "midi": 39,
          "name": "D#2",
          "ticks": 2592,
          "time": 6.328125,
          "velocity": 0.6299212598425197
        },
        {
          "duration": 0.21240234375,
          "durationTicks": 87,
          "midi": 37,
          "name": "C#2",
          "ticks": 2688,
          "time": 6.5625,
          "velocity": 0.7165354330708661
        },
        {
          "duration": 0.2001953125,
          "durationTicks": 82,
          "midi": 37,
          "name": "C#2",
          "ticks": 2784,
          "time": 6.796875,
          "velocity": 0.6771653543307087
        },
        {
          "duration": 0.20263671875,
          "durationTicks": 83,
          "midi": 32,
          "name": "G#1",
          "ticks": 2880,
          "time": 7.03125,
          "velocity": 0.7007874015748031
        },
        {
          "duration": 0.18310546875,
          "durationTicks": 75,
          "midi": 37,
          "name": "C#2",
          "ticks": 2976,
          "time": 7.265625,
          "velocity": 0.7716535433070866
        },
        {
          "duration": 0.205078125,
          "durationTicks": 84,
          "midi": 35,
          "name": "B1",
          "ticks": 3072,
          "time": 7.5,
          "velocity": 0.7007874015748031
        },
        {
          "duration": 0.2148437499999991,
          "durationTicks": 88,
          "midi": 35,
          "name": "B1",
          "ticks": 3168,
          "time": 7.734375,
          "velocity": 0.6456692913385826
        },
        {
          "duration": 0.2099609375,
          "durationTicks": 86,
          "midi": 30,
          "name": "F#1",
          "ticks": 3264,
          "time": 7.96875,
          "velocity": 0.7007874015748031
        },
        {
          "duration": 0.2001953125,
          "durationTicks": 82,
          "midi": 35,
          "name": "B1",
          "ticks": 3360,
          "time": 8.203125,
          "velocity": 0.7874015748031497
        },
        {
          "duration": 0.20751953125,
          "durationTicks": 85,
          "midi": 34,
          "name": "A#1",
          "ticks": 3456,
          "time": 8.4375,
          "velocity": 0.7401574803149606
        },
        {
          "duration": 0.2099609375,
          "durationTicks": 86,
          "midi": 34,
          "name": "A#1",
          "ticks": 3552,
          "time": 8.671875,
          "velocity": 0.6929133858267716
        },
        {
          "duration": 0.19287109375,
          "durationTicks": 79,
          "midi": 29,
          "name": "F1",
          "ticks": 3648,
          "time": 8.90625,
          "velocity": 0.7007874015748031
        },
        {
          "duration": 0.21240234375,
          "durationTicks": 87,
          "midi": 34,
          "name": "A#1",
          "ticks": 3744,
          "time": 9.140625,
          "velocity": 0.7559055118110236
        },
        {
          "duration": 0.2001953125,
          "durationTicks": 82,
          "midi": 39,
          "name": "D#2",
          "ticks": 3840,
          "time": 9.375,
          "velocity": 0.6929133858267716
        },
        {
          "duration": 0.21728515625,
          "durationTicks": 89,
          "midi": 39,
          "name": "D#2",
          "ticks": 3936,
          "time": 9.609375,
          "velocity": 0.7401574803149606
        },
        {
          "duration": 0.23681640625,
          "durationTicks": 97,
          "midi": 34,
          "name": "A#1",
          "ticks": 4032,
          "time": 9.84375,
          "velocity": 0.7007874015748031
        },
        {
          "duration": 0.2099609375,
          "durationTicks": 86,
          "midi": 39,
          "name": "D#2",
          "ticks": 4128,
          "time": 10.078125,
          "velocity": 0.7007874015748031
        },
        {
          "duration": 0.205078125,
          "durationTicks": 84,
          "midi": 38,
          "name": "D2",
          "ticks": 4224,
          "time": 10.3125,
          "velocity": 0.7480314960629921
        },
        {
          "duration": 0.2001953125,
          "durationTicks": 82,
          "midi": 38,
          "name": "D2",
          "ticks": 4320,
          "time": 10.546875,
          "velocity": 0.7007874015748031
        },
        {
          "duration": 0.19775390625,
          "durationTicks": 81,
          "midi": 34,
          "name": "A#1",
          "ticks": 4416,
          "time": 10.78125,
          "velocity": 0.7007874015748031
        },
        {
          "duration": 0.1806640625,
          "durationTicks": 74,
          "midi": 38,
          "name": "D2",
          "ticks": 4512,
          "time": 11.015625,
          "velocity": 0.7086614173228346
        },
        {
          "duration": 0.21728515625,
          "durationTicks": 89,
          "midi": 37,
          "name": "C#2",
          "ticks": 4608,
          "time": 11.25,
          "velocity": 0.6614173228346457
        },
        {
          "duration": 0.2099609375,
          "durationTicks": 86,
          "midi": 37,
          "name": "C#2",
          "ticks": 4704,
          "time": 11.484375,
          "velocity": 0.7165354330708661
        },
        {
          "duration": 0.185546875,
          "durationTicks": 76,
          "midi": 34,
          "name": "A#1",
          "ticks": 4800,
          "time": 11.71875,
          "velocity": 0.7480314960629921
        },
        {
          "duration": 0.17333984375,
          "durationTicks": 71,
          "midi": 37,
          "name": "C#2",
          "ticks": 4896,
          "time": 11.953125,
          "velocity": 0.7480314960629921
        },
        {
          "duration": 0.21484375,
          "durationTicks": 88,
          "midi": 38,
          "name": "D2",
          "ticks": 4992,
          "time": 12.1875,
          "velocity": 0.7874015748031497
        },
        {
          "duration": 0.19775390625,
          "durationTicks": 81,
          "midi": 38,
          "name": "D2",
          "ticks": 5088,
          "time": 12.421875,
          "velocity": 0.7795275590551181
        },
        {
          "duration": 0.205078125,
          "durationTicks": 84,
          "midi": 34,
          "name": "A#1",
          "ticks": 5184,
          "time": 12.65625,
          "velocity": 0.7007874015748031
        },
        {
          "duration": 0.17578125,
          "durationTicks": 72,
          "midi": 38,
          "name": "D2",
          "ticks": 5280,
          "time": 12.890625,
          "velocity": 0.7244094488188977
        },
        {
          "duration": 0.2001953125,
          "durationTicks": 82,
          "midi": 39,
          "name": "D#2",
          "ticks": 5376,
          "time": 13.125,
          "velocity": 0.6929133858267716
        },
        {
          "duration": 0.21728515625,
          "durationTicks": 89,
          "midi": 39,
          "name": "D#2",
          "ticks": 5472,
          "time": 13.359375,
          "velocity": 0.7401574803149606
        },
        {
          "duration": 0.21484375,
          "durationTicks": 88,
          "midi": 34,
          "name": "A#1",
          "ticks": 5568,
          "time": 13.59375,
          "velocity": 0.6771653543307087
        },
        {
          "duration": 0.205078125,
          "durationTicks": 84,
          "midi": 39,
          "name": "D#2",
          "ticks": 5664,
          "time": 13.828125,
          "velocity": 0.6299212598425197
        },
        {
          "duration": 0.21240234375,
          "durationTicks": 87,
          "midi": 37,
          "name": "C#2",
          "ticks": 5760,
          "time": 14.0625,
          "velocity": 0.7165354330708661
        },
        {
          "duration": 0.2001953125,
          "durationTicks": 82,
          "midi": 37,
          "name": "C#2",
          "ticks": 5856,
          "time": 14.296875,
          "velocity": 0.6771653543307087
        },
        {
          "duration": 0.20263671875,
          "durationTicks": 83,
          "midi": 32,
          "name": "G#1",
          "ticks": 5952,
          "time": 14.53125,
          "velocity": 0.7007874015748031
        },
        {
          "duration": 0.18310546875,
          "durationTicks": 75,
          "midi": 37,
          "name": "C#2",
          "ticks": 6048,
          "time": 14.765625,
          "velocity": 0.7716535433070866
        },
        {
          "duration": 0.205078125,
          "durationTicks": 84,
          "midi": 35,
          "name": "B1",
          "ticks": 6144,
          "time": 15,
          "velocity": 0.7007874015748031
        },
        {
          "duration": 0.21484375000000178,
          "durationTicks": 88,
          "midi": 35,
          "name": "B1",
          "ticks": 6240,
          "time": 15.234375,
          "velocity": 0.6456692913385826
        },
        {
          "duration": 0.20996093749999822,
          "durationTicks": 86,
          "midi": 30,
          "name": "F#1",
          "ticks": 6336,
          "time": 15.46875,
          "velocity": 0.7007874015748031
        },
        {
          "duration": 0.20019531250000178,
          "durationTicks": 82,
          "midi": 35,
          "name": "B1",
          "ticks": 6432,
          "time": 15.703125,
          "velocity": 0.7874015748031497
        },
        {
          "duration": 0.20751953125,
          "durationTicks": 85,
          "midi": 34,
          "name": "A#1",
          "ticks": 6528,
          "time": 15.9375,
          "velocity": 0.7401574803149606
        },
        {
          "duration": 0.2099609375,
          "durationTicks": 86,
          "midi": 34,
          "name": "A#1",
          "ticks": 6624,
          "time": 16.171875,
          "velocity": 0.6929133858267716
        },
        {
          "duration": 0.19287109375,
          "durationTicks": 79,
          "midi": 29,
          "name": "F1",
          "ticks": 6720,
          "time": 16.40625,
          "velocity": 0.7007874015748031
        },
        {
          "duration": 0.21240234375,
          "durationTicks": 87,
          "midi": 34,
          "name": "A#1",
          "ticks": 6816,
          "time": 16.640625,
          "velocity": 0.7559055118110236
        },
        {
          "duration": 0.15380859375,
          "durationTicks": 63,
          "midi": 39,
          "name": "D#2",
          "ticks": 6912,
          "time": 16.875,
          "velocity": 0.7874015748031497
        },
        {
          "duration": 0.15625,
          "durationTicks": 64,
          "midi": 39,
          "name": "D#2",
          "ticks": 7008,
          "time": 17.109375,
          "velocity": 0.7401574803149606
        },
        {
          "duration": 0.15869140625,
          "durationTicks": 65,
          "midi": 34,
          "name": "A#1",
          "ticks": 7104,
          "time": 17.34375,
          "velocity": 0.7401574803149606
        },
        {
          "duration": 0.37109375,
          "durationTicks": 152,
          "midi": 37,
          "name": "C#2",
          "ticks": 7200,
          "time": 17.578125,
          "velocity": 0.6614173228346457
        },
        {
          "duration": 0.11962890625,
          "durationTicks": 49,
          "midi": 37,
          "name": "C#2",
          "ticks": 7392,
          "time": 18.046875,
          "velocity": 0.7401574803149606
        },
        {
          "duration": 0.11474609375,
          "durationTicks": 47,
          "midi": 32,
          "name": "G#1",
          "ticks": 7488,
          "time": 18.28125,
          "velocity": 0.7244094488188977
        },
        {
          "duration": 0.10986328125,
          "durationTicks": 45,
          "midi": 37,
          "name": "C#2",
          "ticks": 7584,
          "time": 18.515625,
          "velocity": 0.7244094488188977
        },
        {
          "duration": 0.1220703125,
          "durationTicks": 50,
          "midi": 34,
          "name": "A#1",
          "ticks": 7680,
          "time": 18.75,
          "velocity": 0.6771653543307087
        },
        {
          "duration": 0.107421875,
          "durationTicks": 44,
          "midi": 37,
          "name": "C#2",
          "ticks": 7776,
          "time": 18.984375,
          "velocity": 0.7244094488188977
        },
        {
          "duration": 0.1171875,
          "durationTicks": 48,
          "midi": 34,
          "name": "A#1",
          "ticks": 7872,
          "time": 19.21875,
          "velocity": 0.7244094488188977
        },
        {
          "duration": 0.34912109375,
          "durationTicks": 143,
          "midi": 39,
          "name": "D#2",
          "ticks": 7968,
          "time": 19.453125,
          "velocity": 0.7401574803149606
        },
        {
          "duration": 0.15380859375,
          "durationTicks": 63,
          "midi": 39,
          "name": "D#2",
          "ticks": 8160,
          "time": 19.921875,
          "velocity": 0.7401574803149606
        },
        {
          "duration": 0.13916015625,
          "durationTicks": 57,
          "midi": 34,
          "name": "A#1",
          "ticks": 8256,
          "time": 20.15625,
          "velocity": 0.7401574803149606
        },
        {
          "duration": 0.15869140625,
          "durationTicks": 65,
          "midi": 37,
          "name": "C#2",
          "ticks": 8352,
          "time": 20.390625,
          "velocity": 0.7401574803149606
        },
        {
          "duration": 0.15380859375,
          "durationTicks": 63,
          "midi": 39,
          "name": "D#2",
          "ticks": 8448,
          "time": 20.625,
          "velocity": 0.7086614173228346
        },
        {
          "duration": 0.15625,
          "durationTicks": 64,
          "midi": 34,
          "name": "A#1",
          "ticks": 8544,
          "time": 20.859375,
          "velocity": 0.7401574803149606
        },
        {
          "duration": 0.15869140625,
          "durationTicks": 65,
          "midi": 39,
          "name": "D#2",
          "ticks": 8640,
          "time": 21.09375,
          "velocity": 0.6929133858267716
        },
        {
          "duration": 0.37109375,
          "durationTicks": 152,
          "midi": 37,
          "name": "C#2",
          "ticks": 8736,
          "time": 21.328125,
          "velocity": 0.7086614173228346
        },
        {
          "duration": 0.11962890625,
          "durationTicks": 49,
          "midi": 37,
          "name": "C#2",
          "ticks": 8928,
          "time": 21.796875,
          "velocity": 0.7244094488188977
        },
        {
          "duration": 0.11474609375,
          "durationTicks": 47,
          "midi": 32,
          "name": "G#1",
          "ticks": 9024,
          "time": 22.03125,
          "velocity": 0.7086614173228346
        },
        {
          "duration": 0.10986328125,
          "durationTicks": 45,
          "midi": 37,
          "name": "C#2",
          "ticks": 9120,
          "time": 22.265625,
          "velocity": 0.7244094488188977
        },
        {
          "duration": 0.1220703125,
          "durationTicks": 50,
          "midi": 34,
          "name": "A#1",
          "ticks": 9216,
          "time": 22.5,
          "velocity": 0.6771653543307087
        },
        {
          "duration": 0.107421875,
          "durationTicks": 44,
          "midi": 37,
          "name": "C#2",
          "ticks": 9312,
          "time": 22.734375,
          "velocity": 0.7401574803149606
        },
        {
          "duration": 0.1171875,
          "durationTicks": 48,
          "midi": 34,
          "name": "A#1",
          "ticks": 9408,
          "time": 22.96875,
          "velocity": 0.7086614173228346
        },
        {
          "duration": 0.34912109375,
          "durationTicks": 143,
          "midi": 39,
          "name": "D#2",
          "ticks": 9504,
          "time": 23.203125,
          "velocity": 0.7086614173228346
        },
        {
          "duration": 0.15380859375,
          "durationTicks": 63,
          "midi": 39,
          "name": "D#2",
          "ticks": 9696,
          "time": 23.671875,
          "velocity": 0.6929133858267716
        },
        {
          "duration": 0.13916015625,
          "durationTicks": 57,
          "midi": 34,
          "name": "A#1",
          "ticks": 9792,
          "time": 23.90625,
          "velocity": 0.6299212598425197
        },
        {
          "duration": 0.15869140625,
          "durationTicks": 65,
          "midi": 37,
          "name": "C#2",
          "ticks": 9888,
          "time": 24.140625,
          "velocity": 0.6614173228346457
        },
        {
          "duration": 0.15380859375,
          "durationTicks": 63,
          "midi": 34,
          "name": "A#1",
          "ticks": 9984,
          "time": 24.375,
          "velocity": 0.6771653543307087
        },
        {
          "duration": 0.15625,
          "durationTicks": 64,
          "midi": 37,
          "name": "C#2",
          "ticks": 10080,
          "time": 24.609375,
          "velocity": 0.6929133858267716
        },
        {
          "duration": 0.15869140625,
          "durationTicks": 65,
          "midi": 34,
          "name": "A#1",
          "ticks": 10176,
          "time": 24.84375,
          "velocity": 0.6062992125984252
        },
        {
          "duration": 0.37109375,
          "durationTicks": 152,
          "midi": 39,
          "name": "D#2",
          "ticks": 10272,
          "time": 25.078125,
          "velocity": 0.6929133858267716
        },
        {
          "duration": 0.11962890625,
          "durationTicks": 49,
          "midi": 39,
          "name": "D#2",
          "ticks": 10464,
          "time": 25.546875,
          "velocity": 0.7086614173228346
        },
        {
          "duration": 0.11474609375,
          "durationTicks": 47,
          "midi": 37,
          "name": "C#2",
          "ticks": 10560,
          "time": 25.78125,
          "velocity": 0.6771653543307087
        },
        {
          "duration": 0.10986328125,
          "durationTicks": 45,
          "midi": 35,
          "name": "B1",
          "ticks": 10656,
          "time": 26.015625,
          "velocity": 0.7244094488188977
        },
        {
          "duration": 0.1220703125,
          "durationTicks": 50,
          "midi": 34,
          "name": "A#1",
          "ticks": 10752,
          "time": 26.25,
          "velocity": 0.6771653543307087
        },
        {
          "duration": 0.107421875,
          "durationTicks": 44,
          "midi": 37,
          "name": "C#2",
          "ticks": 10848,
          "time": 26.484375,
          "velocity": 0.6614173228346457
        },
        {
          "duration": 0.1171875,
          "durationTicks": 48,
          "midi": 34,
          "name": "A#1",
          "ticks": 10944,
          "time": 26.71875,
          "velocity": 0.6062992125984252
        },
        {
          "duration": 0.34912109375,
          "durationTicks": 143,
          "midi": 39,
          "name": "D#2",
          "ticks": 11040,
          "time": 26.953125,
          "velocity": 0.7401574803149606
        },
        {
          "duration": 0.15380859375,
          "durationTicks": 63,
          "midi": 39,
          "name": "D#2",
          "ticks": 11232,
          "time": 27.421875,
          "velocity": 0.6929133858267716
        },
        {
          "duration": 0.13916015625,
          "durationTicks": 57,
          "midi": 34,
          "name": "A#1",
          "ticks": 11328,
          "time": 27.65625,
          "velocity": 0.6929133858267716
        },
        {
          "duration": 0.15869140625,
          "durationTicks": 65,
          "midi": 37,
          "name": "C#2",
          "ticks": 11424,
          "time": 27.890625,
          "velocity": 0.6929133858267716
        },
        {
          "duration": 0.15380859375,
          "durationTicks": 63,
          "midi": 39,
          "name": "D#2",
          "ticks": 11520,
          "time": 28.125,
          "velocity": 0.7086614173228346
        },
        {
          "duration": 0.15625,
          "durationTicks": 64,
          "midi": 39,
          "name": "D#2",
          "ticks": 11616,
          "time": 28.359375,
          "velocity": 0.6929133858267716
        },
        {
          "duration": 0.15869140625,
          "durationTicks": 65,
          "midi": 34,
          "name": "A#1",
          "ticks": 11712,
          "time": 28.59375,
          "velocity": 0.7086614173228346
        },
        {
          "duration": 0.37109375,
          "durationTicks": 152,
          "midi": 37,
          "name": "C#2",
          "ticks": 11808,
          "time": 28.828125,
          "velocity": 0.6771653543307087
        },
        {
          "duration": 0.11962890625,
          "durationTicks": 49,
          "midi": 37,
          "name": "C#2",
          "ticks": 12000,
          "time": 29.296875,
          "velocity": 0.6771653543307087
        },
        {
          "duration": 0.11474609375,
          "durationTicks": 47,
          "midi": 32,
          "name": "G#1",
          "ticks": 12096,
          "time": 29.53125,
          "velocity": 0.6929133858267716
        },
        {
          "duration": 0.10986328125,
          "durationTicks": 45,
          "midi": 37,
          "name": "C#2",
          "ticks": 12192,
          "time": 29.765625,
          "velocity": 0.6771653543307087
        },
        {
          "duration": 0.12207031250000355,
          "durationTicks": 50,
          "midi": 34,
          "name": "A#1",
          "ticks": 12288,
          "time": 30,
          "velocity": 0.6771653543307087
        },
        {
          "duration": 0.10742187500000355,
          "durationTicks": 44,
          "midi": 37,
          "name": "C#2",
          "ticks": 12384,
          "time": 30.234375,
          "velocity": 0.6614173228346457
        },
        {
          "duration": 0.1171875,
          "durationTicks": 48,
          "midi": 34,
          "name": "A#1",
          "ticks": 12480,
          "time": 30.46875,
          "velocity": 0.6062992125984252
        },
        {
          "duration": 0.34912109375000355,
          "durationTicks": 143,
          "midi": 39,
          "name": "D#2",
          "ticks": 12576,
          "time": 30.703125,
          "velocity": 0.6614173228346457
        },
        {
          "duration": 0.15380859375,
          "durationTicks": 63,
          "midi": 39,
          "name": "D#2",
          "ticks": 12768,
          "time": 31.171875,
          "velocity": 0.6929133858267716
        },
        {
          "duration": 0.13916015625,
          "durationTicks": 57,
          "midi": 34,
          "name": "A#1",
          "ticks": 12864,
          "time": 31.40625,
          "velocity": 0.7244094488188977
        },
        {
          "duration": 0.15869140625000355,
          "durationTicks": 65,
          "midi": 37,
          "name": "C#2",
          "ticks": 12960,
          "time": 31.640625,
          "velocity": 0.7244094488188977
        },
        {
          "duration": 0.15380859375,
          "durationTicks": 63,
          "midi": 39,
          "name": "D#2",
          "ticks": 13056,
          "time": 31.875,
          "velocity": 0.7086614173228346
        },
        {
          "duration": 0.15625,
          "durationTicks": 64,
          "midi": 34,
          "name": "A#1",
          "ticks": 13152,
          "time": 32.109375,
          "velocity": 0.6929133858267716
        },
        {
          "duration": 0.15869140625,
          "durationTicks": 65,
          "midi": 39,
          "name": "D#2",
          "ticks": 13248,
          "time": 32.34375,
          "velocity": 0.7086614173228346
        },
        {
          "duration": 0.37109375,
          "durationTicks": 152,
          "midi": 37,
          "name": "C#2",
          "ticks": 13344,
          "time": 32.578125,
          "velocity": 0.6929133858267716
        },
        {
          "duration": 0.11962890625,
          "durationTicks": 49,
          "midi": 37,
          "name": "C#2",
          "ticks": 13536,
          "time": 33.046875,
          "velocity": 0.7086614173228346
        },
        {
          "duration": 0.11474609375,
          "durationTicks": 47,
          "midi": 32,
          "name": "G#1",
          "ticks": 13632,
          "time": 33.28125,
          "velocity": 0.6771653543307087
        },
        {
          "duration": 0.10986328125,
          "durationTicks": 45,
          "midi": 37,
          "name": "C#2",
          "ticks": 13728,
          "time": 33.515625,
          "velocity": 0.7244094488188977
        },
        {
          "duration": 0.1220703125,
          "durationTicks": 50,
          "midi": 34,
          "name": "A#1",
          "ticks": 13824,
          "time": 33.75,
          "velocity": 0.6771653543307087
        },
        {
          "duration": 0.107421875,
          "durationTicks": 44,
          "midi": 37,
          "name": "C#2",
          "ticks": 13920,
          "time": 33.984375,
          "velocity": 0.7086614173228346
        },
        {
          "duration": 0.1171875,
          "durationTicks": 48,
          "midi": 34,
          "name": "A#1",
          "ticks": 14016,
          "time": 34.21875,
          "velocity": 0.6062992125984252
        },
        {
          "duration": 0.34912109375,
          "durationTicks": 143,
          "midi": 39,
          "name": "D#2",
          "ticks": 14112,
          "time": 34.453125,
          "velocity": 0.7086614173228346
        },
        {
          "duration": 0.15380859375,
          "durationTicks": 63,
          "midi": 39,
          "name": "D#2",
          "ticks": 14304,
          "time": 34.921875,
          "velocity": 0.6929133858267716
        },
        {
          "duration": 0.13916015625,
          "durationTicks": 57,
          "midi": 34,
          "name": "A#1",
          "ticks": 14400,
          "time": 35.15625,
          "velocity": 0.7244094488188977
        },
        {
          "duration": 0.15869140625,
          "durationTicks": 65,
          "midi": 37,
          "name": "C#2",
          "ticks": 14496,
          "time": 35.390625,
          "velocity": 0.6929133858267716
        },
        {
          "duration": 0.15380859375,
          "durationTicks": 63,
          "midi": 34,
          "name": "A#1",
          "ticks": 14592,
          "time": 35.625,
          "velocity": 0.6929133858267716
        },
        {
          "duration": 0.15625,
          "durationTicks": 64,
          "midi": 37,
          "name": "C#2",
          "ticks": 14688,
          "time": 35.859375,
          "velocity": 0.7086614173228346
        },
        {
          "duration": 0.15869140625,
          "durationTicks": 65,
          "midi": 34,
          "name": "A#1",
          "ticks": 14784,
          "time": 36.09375,
          "velocity": 0.7086614173228346
        },
        {
          "duration": 0.37109375,
          "durationTicks": 152,
          "midi": 39,
          "name": "D#2",
          "ticks": 14880,
          "time": 36.328125,
          "velocity": 0.7086614173228346
        },
        {
          "duration": 0.11962890625,
          "durationTicks": 49,
          "midi": 39,
          "name": "D#2",
          "ticks": 15072,
          "time": 36.796875,
          "velocity": 0.6535433070866141
        },
        {
          "duration": 0.11474609375,
          "durationTicks": 47,
          "midi": 37,
          "name": "C#2",
          "ticks": 15168,
          "time": 37.03125,
          "velocity": 0.5748031496062992
        },
        {
          "duration": 0.10986328125,
          "durationTicks": 45,
          "midi": 35,
          "name": "B1",
          "ticks": 15264,
          "time": 37.265625,
          "velocity": 0.7244094488188977
        },
        {
          "duration": 0.1220703125,
          "durationTicks": 50,
          "midi": 34,
          "name": "A#1",
          "ticks": 15360,
          "time": 37.5,
          "velocity": 0.6771653543307087
        },
        {
          "duration": 0.107421875,
          "durationTicks": 44,
          "midi": 37,
          "name": "C#2",
          "ticks": 15456,
          "time": 37.734375,
          "velocity": 0.6614173228346457
        },
        {
          "duration": 0.1171875,
          "durationTicks": 48,
          "midi": 34,
          "name": "A#1",
          "ticks": 15552,
          "time": 37.96875,
          "velocity": 0.6062992125984252
        },
        {
          "duration": 0.34912109375,
          "durationTicks": 143,
          "midi": 39,
          "name": "D#2",
          "ticks": 15648,
          "time": 38.203125,
          "velocity": 0.7401574803149606
        },
        {
          "duration": 0.15380859375,
          "durationTicks": 63,
          "midi": 39,
          "name": "D#2",
          "ticks": 15840,
          "time": 38.671875,
          "velocity": 0.7401574803149606
        },
        {
          "duration": 0.13916015625,
          "durationTicks": 57,
          "midi": 34,
          "name": "A#1",
          "ticks": 15936,
          "time": 38.90625,
          "velocity": 0.7401574803149606
        },
        {
          "duration": 0.15869140625,
          "durationTicks": 65,
          "midi": 37,
          "name": "C#2",
          "ticks": 16032,
          "time": 39.140625,
          "velocity": 0.7401574803149606
        },
        {
          "duration": 0.15380859375,
          "durationTicks": 63,
          "midi": 39,
          "name": "D#2",
          "ticks": 16128,
          "time": 39.375,
          "velocity": 0.7244094488188977
        },
        {
          "duration": 0.15625,
          "durationTicks": 64,
          "midi": 39,
          "name": "D#2",
          "ticks": 16224,
          "time": 39.609375,
          "velocity": 0.7559055118110236
        },
        {
          "duration": 0.15869140625,
          "durationTicks": 65,
          "midi": 34,
          "name": "A#1",
          "ticks": 16320,
          "time": 39.84375,
          "velocity": 0.7401574803149606
        },
        {
          "duration": 0.37109375,
          "durationTicks": 152,
          "midi": 37,
          "name": "C#2",
          "ticks": 16416,
          "time": 40.078125,
          "velocity": 0.7401574803149606
        },
        {
          "duration": 0.11962890625,
          "durationTicks": 49,
          "midi": 37,
          "name": "C#2",
          "ticks": 16608,
          "time": 40.546875,
          "velocity": 0.7086614173228346
        },
        {
          "duration": 0.11474609375,
          "durationTicks": 47,
          "midi": 32,
          "name": "G#1",
          "ticks": 16704,
          "time": 40.78125,
          "velocity": 0.6929133858267716
        },
        {
          "duration": 0.10986328125,
          "durationTicks": 45,
          "midi": 37,
          "name": "C#2",
          "ticks": 16800,
          "time": 41.015625,
          "velocity": 0.7244094488188977
        },
        {
          "duration": 0.1220703125,
          "durationTicks": 50,
          "midi": 34,
          "name": "A#1",
          "ticks": 16896,
          "time": 41.25,
          "velocity": 0.6771653543307087
        },
        {
          "duration": 0.107421875,
          "durationTicks": 44,
          "midi": 37,
          "name": "C#2",
          "ticks": 16992,
          "time": 41.484375,
          "velocity": 0.6614173228346457
        },
        {
          "duration": 0.1171875,
          "durationTicks": 48,
          "midi": 34,
          "name": "A#1",
          "ticks": 17088,
          "time": 41.71875,
          "velocity": 0.6062992125984252
        },
        {
          "duration": 0.34912109375,
          "durationTicks": 143,
          "midi": 39,
          "name": "D#2",
          "ticks": 17184,
          "time": 41.953125,
          "velocity": 0.6929133858267716
        },
        {
          "duration": 0.15380859375,
          "durationTicks": 63,
          "midi": 39,
          "name": "D#2",
          "ticks": 17376,
          "time": 42.421875,
          "velocity": 0.6929133858267716
        },
        {
          "duration": 0.13916015625,
          "durationTicks": 57,
          "midi": 34,
          "name": "A#1",
          "ticks": 17472,
          "time": 42.65625,
          "velocity": 0.6299212598425197
        },
        {
          "duration": 0.15869140625,
          "durationTicks": 65,
          "midi": 37,
          "name": "C#2",
          "ticks": 17568,
          "time": 42.890625,
          "velocity": 0.6614173228346457
        },
        {
          "duration": 0.15380859375,
          "durationTicks": 63,
          "midi": 39,
          "name": "D#2",
          "ticks": 17664,
          "time": 43.125,
          "velocity": 0.6614173228346457
        },
        {
          "duration": 0.15625,
          "durationTicks": 64,
          "midi": 34,
          "name": "A#1",
          "ticks": 17760,
          "time": 43.359375,
          "velocity": 0.6299212598425197
        },
        {
          "duration": 0.15869140625,
          "durationTicks": 65,
          "midi": 39,
          "name": "D#2",
          "ticks": 17856,
          "time": 43.59375,
          "velocity": 0.6614173228346457
        },
        {
          "duration": 0.37109375,
          "durationTicks": 152,
          "midi": 37,
          "name": "C#2",
          "ticks": 17952,
          "time": 43.828125,
          "velocity": 0.6614173228346457
        },
        {
          "duration": 0.11962890625,
          "durationTicks": 49,
          "midi": 37,
          "name": "C#2",
          "ticks": 18144,
          "time": 44.296875,
          "velocity": 0.7401574803149606
        },
        {
          "duration": 0.11474609375,
          "durationTicks": 47,
          "midi": 32,
          "name": "G#1",
          "ticks": 18240,
          "time": 44.53125,
          "velocity": 0.7559055118110236
        },
        {
          "duration": 0.10986328125,
          "durationTicks": 45,
          "midi": 37,
          "name": "C#2",
          "ticks": 18336,
          "time": 44.765625,
          "velocity": 0.7559055118110236
        },
        {
          "duration": 0.1220703125,
          "durationTicks": 50,
          "midi": 34,
          "name": "A#1",
          "ticks": 18432,
          "time": 45,
          "velocity": 0.7559055118110236
        },
        {
          "duration": 0.107421875,
          "durationTicks": 44,
          "midi": 37,
          "name": "C#2",
          "ticks": 18528,
          "time": 45.234375,
          "velocity": 0.7401574803149606
        },
        {
          "duration": 0.1171875,
          "durationTicks": 48,
          "midi": 34,
          "name": "A#1",
          "ticks": 18624,
          "time": 45.46875,
          "velocity": 0.7244094488188977
        },
        {
          "duration": 0.34912109375,
          "durationTicks": 143,
          "midi": 39,
          "name": "D#2",
          "ticks": 18720,
          "time": 45.703125,
          "velocity": 0.7086614173228346
        },
        {
          "duration": 0.15380859375,
          "durationTicks": 63,
          "midi": 39,
          "name": "D#2",
          "ticks": 18912,
          "time": 46.171875,
          "velocity": 0.6929133858267716
        },
        {
          "duration": 0.13916015625,
          "durationTicks": 57,
          "midi": 34,
          "name": "A#1",
          "ticks": 19008,
          "time": 46.40625,
          "velocity": 0.6299212598425197
        },
        {
          "duration": 0.15869140625,
          "durationTicks": 65,
          "midi": 37,
          "name": "C#2",
          "ticks": 19104,
          "time": 46.640625,
          "velocity": 0.6614173228346457
        },
        {
          "duration": 0.15380859375,
          "durationTicks": 63,
          "midi": 34,
          "name": "A#1",
          "ticks": 19200,
          "time": 46.875,
          "velocity": 0.6929133858267716
        },
        {
          "duration": 0.15625,
          "durationTicks": 64,
          "midi": 37,
          "name": "C#2",
          "ticks": 19296,
          "time": 47.109375,
          "velocity": 0.7244094488188977
        },
        {
          "duration": 0.15869140625,
          "durationTicks": 65,
          "midi": 34,
          "name": "A#1",
          "ticks": 19392,
          "time": 47.34375,
          "velocity": 0.6062992125984252
        },
        {
          "duration": 0.37109375,
          "durationTicks": 152,
          "midi": 39,
          "name": "D#2",
          "ticks": 19488,
          "time": 47.578125,
          "velocity": 0.6456692913385826
        },
        {
          "duration": 0.11962890625,
          "durationTicks": 49,
          "midi": 39,
          "name": "D#2",
          "ticks": 19680,
          "time": 48.046875,
          "velocity": 0.6535433070866141
        },
        {
          "duration": 0.11474609375,
          "durationTicks": 47,
          "midi": 37,
          "name": "C#2",
          "ticks": 19776,
          "time": 48.28125,
          "velocity": 0.5748031496062992
        },
        {
          "duration": 0.10986328125,
          "durationTicks": 45,
          "midi": 35,
          "name": "B1",
          "ticks": 19872,
          "time": 48.515625,
          "velocity": 0.7244094488188977
        },
        {
          "duration": 0.1220703125,
          "durationTicks": 50,
          "midi": 34,
          "name": "A#1",
          "ticks": 19968,
          "time": 48.75,
          "velocity": 0.6771653543307087
        },
        {
          "duration": 0.107421875,
          "durationTicks": 44,
          "midi": 37,
          "name": "C#2",
          "ticks": 20064,
          "time": 48.984375,
          "velocity": 0.6614173228346457
        },
        {
          "duration": 0.1171875,
          "durationTicks": 48,
          "midi": 34,
          "name": "A#1",
          "ticks": 20160,
          "time": 49.21875,
          "velocity": 0.6062992125984252
        },
        {
          "duration": 0.34912109375,
          "durationTicks": 143,
          "midi": 39,
          "name": "D#2",
          "ticks": 20256,
          "time": 49.453125,
          "velocity": 0.7401574803149606
        },
        {
          "duration": 0.15380859375,
          "durationTicks": 63,
          "midi": 39,
          "name": "D#2",
          "ticks": 20448,
          "time": 49.921875,
          "velocity": 0.6929133858267716
        },
        {
          "duration": 0.13916015625,
          "durationTicks": 57,
          "midi": 34,
          "name": "A#1",
          "ticks": 20544,
          "time": 50.15625,
          "velocity": 0.6299212598425197
        },
        {
          "duration": 0.15869140625,
          "durationTicks": 65,
          "midi": 37,
          "name": "C#2",
          "ticks": 20640,
          "time": 50.390625,
          "velocity": 0.6614173228346457
        },
        {
          "duration": 0.15380859375,
          "durationTicks": 63,
          "midi": 39,
          "name": "D#2",
          "ticks": 20736,
          "time": 50.625,
          "velocity": 0.6929133858267716
        },
        {
          "duration": 0.15625,
          "durationTicks": 64,
          "midi": 39,
          "name": "D#2",
          "ticks": 20832,
          "time": 50.859375,
          "velocity": 0.6929133858267716
        },
        {
          "duration": 0.15869140625,
          "durationTicks": 65,
          "midi": 34,
          "name": "A#1",
          "ticks": 20928,
          "time": 51.09375,
          "velocity": 0.6062992125984252
        },
        {
          "duration": 0.37109375,
          "durationTicks": 152,
          "midi": 37,
          "name": "C#2",
          "ticks": 21024,
          "time": 51.328125,
          "velocity": 0.7086614173228346
        },
        {
          "duration": 0.11962890625,
          "durationTicks": 49,
          "midi": 37,
          "name": "C#2",
          "ticks": 21216,
          "time": 51.796875,
          "velocity": 0.7244094488188977
        },
        {
          "duration": 0.11474609375,
          "durationTicks": 47,
          "midi": 32,
          "name": "G#1",
          "ticks": 21312,
          "time": 52.03125,
          "velocity": 0.7401574803149606
        },
        {
          "duration": 0.10986328125,
          "durationTicks": 45,
          "midi": 37,
          "name": "C#2",
          "ticks": 21408,
          "time": 52.265625,
          "velocity": 0.7244094488188977
        },
        {
          "duration": 0.1220703125,
          "durationTicks": 50,
          "midi": 34,
          "name": "A#1",
          "ticks": 21504,
          "time": 52.5,
          "velocity": 0.6771653543307087
        },
        {
          "duration": 0.107421875,
          "durationTicks": 44,
          "midi": 37,
          "name": "C#2",
          "ticks": 21600,
          "time": 52.734375,
          "velocity": 0.6614173228346457
        },
        {
          "duration": 0.1171875,
          "durationTicks": 48,
          "midi": 34,
          "name": "A#1",
          "ticks": 21696,
          "time": 52.96875,
          "velocity": 0.6062992125984252
        },
        {
          "duration": 0.34912109375,
          "durationTicks": 143,
          "midi": 39,
          "name": "D#2",
          "ticks": 21792,
          "time": 53.203125,
          "velocity": 0.6929133858267716
        },
        {
          "duration": 0.15380859375,
          "durationTicks": 63,
          "midi": 39,
          "name": "D#2",
          "ticks": 21984,
          "time": 53.671875,
          "velocity": 0.6929133858267716
        },
        {
          "duration": 0.13916015625,
          "durationTicks": 57,
          "midi": 34,
          "name": "A#1",
          "ticks": 22080,
          "time": 53.90625,
          "velocity": 0.6299212598425197
        },
        {
          "duration": 0.15869140625,
          "durationTicks": 65,
          "midi": 37,
          "name": "C#2",
          "ticks": 22176,
          "time": 54.140625,
          "velocity": 0.6614173228346457
        },
        {
          "duration": 0.15380859375,
          "durationTicks": 63,
          "midi": 39,
          "name": "D#2",
          "ticks": 22272,
          "time": 54.375,
          "velocity": 0.6771653543307087
        },
        {
          "duration": 0.15625,
          "durationTicks": 64,
          "midi": 34,
          "name": "A#1",
          "ticks": 22368,
          "time": 54.609375,
          "velocity": 0.6614173228346457
        },
        {
          "duration": 0.15869140625,
          "durationTicks": 65,
          "midi": 39,
          "name": "D#2",
          "ticks": 22464,
          "time": 54.84375,
          "velocity": 0.6062992125984252
        },
        {
          "duration": 0.37109375,
          "durationTicks": 152,
          "midi": 37,
          "name": "C#2",
          "ticks": 22560,
          "time": 55.078125,
          "velocity": 0.6614173228346457
        },
        {
          "duration": 0.11962890625,
          "durationTicks": 49,
          "midi": 37,
          "name": "C#2",
          "ticks": 22752,
          "time": 55.546875,
          "velocity": 0.6535433070866141
        },
        {
          "duration": 0.11474609375,
          "durationTicks": 47,
          "midi": 32,
          "name": "G#1",
          "ticks": 22848,
          "time": 55.78125,
          "velocity": 0.6771653543307087
        },
        {
          "duration": 0.10986328125,
          "durationTicks": 45,
          "midi": 37,
          "name": "C#2",
          "ticks": 22944,
          "time": 56.015625,
          "velocity": 0.6456692913385826
        },
        {
          "duration": 0.1220703125,
          "durationTicks": 50,
          "midi": 34,
          "name": "A#1",
          "ticks": 23040,
          "time": 56.25,
          "velocity": 0.6771653543307087
        },
        {
          "duration": 0.107421875,
          "durationTicks": 44,
          "midi": 37,
          "name": "C#2",
          "ticks": 23136,
          "time": 56.484375,
          "velocity": 0.6614173228346457
        },
        {
          "duration": 0.1171875,
          "durationTicks": 48,
          "midi": 34,
          "name": "A#1",
          "ticks": 23232,
          "time": 56.71875,
          "velocity": 0.6062992125984252
        },
        {
          "duration": 0.34912109375,
          "durationTicks": 143,
          "midi": 39,
          "name": "D#2",
          "ticks": 23328,
          "time": 56.953125,
          "velocity": 0.6614173228346457
        },
        {
          "duration": 0.15380859375,
          "durationTicks": 63,
          "midi": 39,
          "name": "D#2",
          "ticks": 23520,
          "time": 57.421875,
          "velocity": 0.6929133858267716
        },
        {
          "duration": 0.13916015625,
          "durationTicks": 57,
          "midi": 34,
          "name": "A#1",
          "ticks": 23616,
          "time": 57.65625,
          "velocity": 0.6771653543307087
        },
        {
          "duration": 0.15869140625,
          "durationTicks": 65,
          "midi": 37,
          "name": "C#2",
          "ticks": 23712,
          "time": 57.890625,
          "velocity": 0.6929133858267716
        },
        {
          "duration": 0.15380859375,
          "durationTicks": 63,
          "midi": 34,
          "name": "A#1",
          "ticks": 23808,
          "time": 58.125,
          "velocity": 0.6929133858267716
        },
        {
          "duration": 0.15625,
          "durationTicks": 64,
          "midi": 37,
          "name": "C#2",
          "ticks": 23904,
          "time": 58.359375,
          "velocity": 0.6929133858267716
        },
        {
          "duration": 0.15869140625,
          "durationTicks": 65,
          "midi": 34,
          "name": "A#1",
          "ticks": 24000,
          "time": 58.59375,
          "velocity": 0.7086614173228346
        },
        {
          "duration": 0.37109375,
          "durationTicks": 152,
          "midi": 39,
          "name": "D#2",
          "ticks": 24096,
          "time": 58.828125,
          "velocity": 0.6771653543307087
        },
        {
          "duration": 0.11962890625,
          "durationTicks": 49,
          "midi": 39,
          "name": "D#2",
          "ticks": 24288,
          "time": 59.296875,
          "velocity": 0.6929133858267716
        },
        {
          "duration": 0.11474609375,
          "durationTicks": 47,
          "midi": 37,
          "name": "C#2",
          "ticks": 24384,
          "time": 59.53125,
          "velocity": 0.6929133858267716
        },
        {
          "duration": 0.10986328125,
          "durationTicks": 45,
          "midi": 35,
          "name": "B1",
          "ticks": 24480,
          "time": 59.765625,
          "velocity": 0.7244094488188977
        },
        {
          "duration": 0.1220703124999929,
          "durationTicks": 50,
          "midi": 34,
          "name": "A#1",
          "ticks": 24576,
          "time": 60,
          "velocity": 0.6771653543307087
        },
        {
          "duration": 0.1074218749999929,
          "durationTicks": 44,
          "midi": 37,
          "name": "C#2",
          "ticks": 24672,
          "time": 60.234375,
          "velocity": 0.6614173228346457
        },
        {
          "duration": 0.1171875,
          "durationTicks": 48,
          "midi": 34,
          "name": "A#1",
          "ticks": 24768,
          "time": 60.46875,
          "velocity": 0.6929133858267716
        },
        {
          "duration": 0.3491210937499929,
          "durationTicks": 143,
          "midi": 39,
          "name": "D#2",
          "ticks": 24864,
          "time": 60.703125,
          "velocity": 0.7401574803149606
        },
        {
          "duration": 0.15380859375,
          "durationTicks": 63,
          "midi": 39,
          "name": "D#2",
          "ticks": 25056,
          "time": 61.171875,
          "velocity": 0.6929133858267716
        },
        {
          "duration": 0.13916015625,
          "durationTicks": 57,
          "midi": 34,
          "name": "A#1",
          "ticks": 25152,
          "time": 61.40625,
          "velocity": 0.6299212598425197
        },
        {
          "duration": 0.1586914062499929,
          "durationTicks": 65,
          "midi": 37,
          "name": "C#2",
          "ticks": 25248,
          "time": 61.640625,
          "velocity": 0.6614173228346457
        },
        {
          "duration": 0.1269531250000071,
          "durationTicks": 52,
          "midi": 39,
          "name": "D#2",
          "ticks": 25344,
          "time": 61.875,
          "velocity": 0.6929133858267716
        },
        {
          "duration": 0.1293945312499929,
          "durationTicks": 53,
          "midi": 34,
          "name": "A#1",
          "ticks": 25440,
          "time": 62.109375,
          "velocity": 0.6771653543307087
        },
        {
          "duration": 0.13916015625,
          "durationTicks": 57,
          "midi": 39,
          "name": "D#2",
          "ticks": 25536,
          "time": 62.34375,
          "velocity": 0.5984251968503937
        },
        {
          "duration": 0.3784179687499929,
          "durationTicks": 155,
          "midi": 37,
          "name": "C#2",
          "ticks": 25632,
          "time": 62.578125,
          "velocity": 0.6614173228346457
        },
        {
          "duration": 0.1586914062499929,
          "durationTicks": 65,
          "midi": 37,
          "name": "C#2",
          "ticks": 25824,
          "time": 63.046875,
          "velocity": 0.6929133858267716
        },
        {
          "duration": 0.1049804687500071,
          "durationTicks": 43,
          "midi": 32,
          "name": "G#1",
          "ticks": 25920,
          "time": 63.28125,
          "velocity": 0.6299212598425197
        },
        {
          "duration": 0.1123046875000071,
          "durationTicks": 46,
          "midi": 37,
          "name": "C#2",
          "ticks": 26016,
          "time": 63.515625,
          "velocity": 0.6929133858267716
        },
        {
          "duration": 0.1489257812500071,
          "durationTicks": 61,
          "midi": 35,
          "name": "B1",
          "ticks": 26112,
          "time": 63.75,
          "velocity": 0.7322834645669292
        },
        {
          "duration": 0.126953125,
          "durationTicks": 52,
          "midi": 30,
          "name": "F#1",
          "ticks": 26208,
          "time": 63.984375,
          "velocity": 0.6377952755905512
        },
        {
          "duration": 0.15869140625,
          "durationTicks": 65,
          "midi": 35,
          "name": "B1",
          "ticks": 26304,
          "time": 64.21875,
          "velocity": 0.6614173228346457
        },
        {
          "duration": 0.380859375,
          "durationTicks": 156,
          "midi": 34,
          "name": "A#1",
          "ticks": 26400,
          "time": 64.453125,
          "velocity": 0.6535433070866141
        },
        {
          "duration": 0.13427734375,
          "durationTicks": 55,
          "midi": 34,
          "name": "A#1",
          "ticks": 26592,
          "time": 64.921875,
          "velocity": 0.6299212598425197
        },
        {
          "duration": 0.10498046875,
          "durationTicks": 43,
          "midi": 37,
          "name": "C#2",
          "ticks": 26688,
          "time": 65.15625,
          "velocity": 0.6929133858267716
        },
        {
          "duration": 0.1220703125,
          "durationTicks": 50,
          "midi": 34,
          "name": "A#1",
          "ticks": 26784,
          "time": 65.390625,
          "velocity": 0.6929133858267716
        },
        {
          "duration": 0.1318359375,
          "durationTicks": 54,
          "midi": 39,
          "name": "D#2",
          "ticks": 26880,
          "time": 65.625,
          "velocity": 0.7244094488188977
        },
        {
          "duration": 0.10986328125,
          "durationTicks": 45,
          "midi": 34,
          "name": "A#1",
          "ticks": 26976,
          "time": 65.859375,
          "velocity": 0.6929133858267716
        },
        {
          "duration": 0.15869140625,
          "durationTicks": 65,
          "midi": 39,
          "name": "D#2",
          "ticks": 27072,
          "time": 66.09375,
          "velocity": 0.6614173228346457
        },
        {
          "duration": 0.36376953125,
          "durationTicks": 149,
          "midi": 37,
          "name": "C#2",
          "ticks": 27168,
          "time": 66.328125,
          "velocity": 0.6614173228346457
        },
        {
          "duration": 0.17822265625,
          "durationTicks": 73,
          "midi": 37,
          "name": "C#2",
          "ticks": 27360,
          "time": 66.796875,
          "velocity": 0.6299212598425197
        },
        {
          "duration": 0.11962890625,
          "durationTicks": 49,
          "midi": 32,
          "name": "G#1",
          "ticks": 27456,
          "time": 67.03125,
          "velocity": 0.6535433070866141
        },
        {
          "duration": 0.11962890625,
          "durationTicks": 49,
          "midi": 37,
          "name": "C#2",
          "ticks": 27552,
          "time": 67.265625,
          "velocity": 0.7086614173228346
        },
        {
          "duration": 0.14892578125,
          "durationTicks": 61,
          "midi": 35,
          "name": "B1",
          "ticks": 27648,
          "time": 67.5,
          "velocity": 0.6220472440944882
        },
        {
          "duration": 0.12939453125,
          "durationTicks": 53,
          "midi": 30,
          "name": "F#1",
          "ticks": 27744,
          "time": 67.734375,
          "velocity": 0.6535433070866141
        },
        {
          "duration": 0.18798828125,
          "durationTicks": 77,
          "midi": 35,
          "name": "B1",
          "ticks": 27840,
          "time": 67.96875,
          "velocity": 0.6220472440944882
        },
        {
          "duration": 0.3466796875,
          "durationTicks": 142,
          "midi": 34,
          "name": "A#1",
          "ticks": 27936,
          "time": 68.203125,
          "velocity": 0.6929133858267716
        },
        {
          "duration": 0.1513671875,
          "durationTicks": 62,
          "midi": 34,
          "name": "A#1",
          "ticks": 28128,
          "time": 68.671875,
          "velocity": 0.5826771653543307
        },
        {
          "duration": 0.1123046875,
          "durationTicks": 46,
          "midi": 37,
          "name": "C#2",
          "ticks": 28224,
          "time": 68.90625,
          "velocity": 0.6456692913385826
        },
        {
          "duration": 0.11474609375,
          "durationTicks": 47,
          "midi": 34,
          "name": "A#1",
          "ticks": 28320,
          "time": 69.140625,
          "velocity": 0.6456692913385826
        },
        {
          "duration": 0.185546875,
          "durationTicks": 76,
          "midi": 39,
          "name": "D#2",
          "ticks": 28416,
          "time": 69.375,
          "velocity": 0.6456692913385826
        },
        {
          "duration": 0.1171875,
          "durationTicks": 48,
          "midi": 34,
          "name": "A#1",
          "ticks": 28512,
          "time": 69.609375,
          "velocity": 0.6456692913385826
        },
        {
          "duration": 0.14892578125,
          "durationTicks": 61,
          "midi": 39,
          "name": "D#2",
          "ticks": 28608,
          "time": 69.84375,
          "velocity": 0.7086614173228346
        },
        {
          "duration": 0.34912109375,
          "durationTicks": 143,
          "midi": 37,
          "name": "C#2",
          "ticks": 28704,
          "time": 70.078125,
          "velocity": 0.6456692913385826
        },
        {
          "duration": 0.13916015625,
          "durationTicks": 57,
          "midi": 37,
          "name": "C#2",
          "ticks": 28896,
          "time": 70.546875,
          "velocity": 0.7244094488188977
        },
        {
          "duration": 0.12939453125,
          "durationTicks": 53,
          "midi": 32,
          "name": "G#1",
          "ticks": 28992,
          "time": 70.78125,
          "velocity": 0.7086614173228346
        },
        {
          "duration": 0.14404296875,
          "durationTicks": 59,
          "midi": 37,
          "name": "C#2",
          "ticks": 29088,
          "time": 71.015625,
          "velocity": 0.7086614173228346
        },
        {
          "duration": 0.11962890625,
          "durationTicks": 49,
          "midi": 35,
          "name": "B1",
          "ticks": 29184,
          "time": 71.25,
          "velocity": 0.6141732283464567
        },
        {
          "duration": 0.1318359375,
          "durationTicks": 54,
          "midi": 30,
          "name": "F#1",
          "ticks": 29280,
          "time": 71.484375,
          "velocity": 0.6377952755905512
        },
        {
          "duration": 0.146484375,
          "durationTicks": 60,
          "midi": 35,
          "name": "B1",
          "ticks": 29376,
          "time": 71.71875,
          "velocity": 0.6220472440944882
        },
        {
          "duration": 0.31982421875,
          "durationTicks": 131,
          "midi": 34,
          "name": "A#1",
          "ticks": 29472,
          "time": 71.953125,
          "velocity": 0.6771653543307087
        },
        {
          "duration": 0.16845703125,
          "durationTicks": 69,
          "midi": 34,
          "name": "A#1",
          "ticks": 29664,
          "time": 72.421875,
          "velocity": 0.6929133858267716
        },
        {
          "duration": 0.1123046875,
          "durationTicks": 46,
          "midi": 37,
          "name": "C#2",
          "ticks": 29760,
          "time": 72.65625,
          "velocity": 0.7086614173228346
        },
        {
          "duration": 0.10986328125,
          "durationTicks": 45,
          "midi": 34,
          "name": "A#1",
          "ticks": 29856,
          "time": 72.890625,
          "velocity": 0.7086614173228346
        },
        {
          "duration": 0.15625,
          "durationTicks": 64,
          "midi": 39,
          "name": "D#2",
          "ticks": 29952,
          "time": 73.125,
          "velocity": 0.7086614173228346
        },
        {
          "duration": 0.1220703125,
          "durationTicks": 50,
          "midi": 34,
          "name": "A#1",
          "ticks": 30048,
          "time": 73.359375,
          "velocity": 0.7244094488188977
        },
        {
          "duration": 0.1416015625,
          "durationTicks": 58,
          "midi": 39,
          "name": "D#2",
          "ticks": 30144,
          "time": 73.59375,
          "velocity": 0.7244094488188977
        },
        {
          "duration": 0.3515625,
          "durationTicks": 144,
          "midi": 37,
          "name": "C#2",
          "ticks": 30240,
          "time": 73.828125,
          "velocity": 0.7401574803149606
        },
        {
          "duration": 0.22705078125,
          "durationTicks": 93,
          "midi": 37,
          "name": "C#2",
          "ticks": 30432,
          "time": 74.296875,
          "velocity": 0.7086614173228346
        },
        {
          "duration": 0.16357421875,
          "durationTicks": 67,
          "midi": 32,
          "name": "G#1",
          "ticks": 30528,
          "time": 74.53125,
          "velocity": 0.6929133858267716
        },
        {
          "duration": 0.1513671875,
          "durationTicks": 62,
          "midi": 35,
          "name": "B1",
          "ticks": 30624,
          "time": 74.765625,
          "velocity": 0.6929133858267716
        },
        {
          "duration": 0.16357421875,
          "durationTicks": 67,
          "midi": 37,
          "name": "C#2",
          "ticks": 30720,
          "time": 75,
          "velocity": 0.6929133858267716
        },
        {
          "duration": 0.13671875,
          "durationTicks": 56,
          "midi": 35,
          "name": "B1",
          "ticks": 30816,
          "time": 75.234375,
          "velocity": 0.7086614173228346
        },
        {
          "duration": 0.1513671875,
          "durationTicks": 62,
          "midi": 37,
          "name": "C#2",
          "ticks": 30912,
          "time": 75.46875,
          "velocity": 0.7086614173228346
        },
        {
          "duration": 0.60546875,
          "durationTicks": 248,
          "midi": 39,
          "name": "D#2",
          "ticks": 31008,
          "time": 75.703125,
          "velocity": 0.6929133858267716
        },
        {
          "duration": 0.12451171875,
          "durationTicks": 51,
          "midi": 37,
          "name": "C#2",
          "ticks": 31296,
          "time": 76.40625,
          "velocity": 0.6929133858267716
        },
        {
          "duration": 0.361328125,
          "durationTicks": 148,
          "midi": 39,
          "name": "D#2",
          "ticks": 31392,
          "time": 76.640625,
          "velocity": 0.6929133858267716
        },
        {
          "duration": 0.16845703125,
          "durationTicks": 69,
          "midi": 39,
          "name": "D#2",
          "ticks": 31584,
          "time": 77.109375,
          "velocity": 0.6771653543307087
        },
        {
          "duration": 0.11962890625,
          "durationTicks": 49,
          "midi": 34,
          "name": "A#1",
          "ticks": 31680,
          "time": 77.34375,
          "velocity": 0.6929133858267716
        },
        {
          "duration": 0.13427734375,
          "durationTicks": 55,
          "midi": 37,
          "name": "C#2",
          "ticks": 31776,
          "time": 77.578125,
          "velocity": 0.7086614173228346
        },
        {
          "duration": 0.38330078125,
          "durationTicks": 157,
          "midi": 39,
          "name": "D#2",
          "ticks": 31872,
          "time": 77.8125,
          "velocity": 0.7086614173228346
        },
        {
          "duration": 0.13916015625,
          "durationTicks": 57,
          "midi": 37,
          "name": "C#2",
          "ticks": 32064,
          "time": 78.28125,
          "velocity": 0.7244094488188977
        },
        {
          "duration": 0.36865234375,
          "durationTicks": 151,
          "midi": 39,
          "name": "D#2",
          "ticks": 32160,
          "time": 78.515625,
          "velocity": 0.7086614173228346
        },
        {
          "duration": 0.15380859375,
          "durationTicks": 63,
          "midi": 39,
          "name": "D#2",
          "ticks": 32352,
          "time": 78.984375,
          "velocity": 0.6535433070866141
        },
        {
          "duration": 0.146484375,
          "durationTicks": 60,
          "midi": 34,
          "name": "A#1",
          "ticks": 32448,
          "time": 79.21875,
          "velocity": 0.6614173228346457
        },
        {
          "duration": 0.16845703125,
          "durationTicks": 69,
          "midi": 37,
          "name": "C#2",
          "ticks": 32544,
          "time": 79.453125,
          "velocity": 0.6614173228346457
        },
        {
          "duration": 0.15380859375,
          "durationTicks": 63,
          "midi": 39,
          "name": "D#2",
          "ticks": 32640,
          "time": 79.6875,
          "velocity": 0.6614173228346457
        },
        {
          "duration": 0.15625,
          "durationTicks": 64,
          "midi": 39,
          "name": "D#2",
          "ticks": 32736,
          "time": 79.921875,
          "velocity": 0.6771653543307087
        },
        {
          "duration": 0.15869140625,
          "durationTicks": 65,
          "midi": 34,
          "name": "A#1",
          "ticks": 32832,
          "time": 80.15625,
          "velocity": 0.6771653543307087
        },
        {
          "duration": 0.37109375,
          "durationTicks": 152,
          "midi": 37,
          "name": "C#2",
          "ticks": 32928,
          "time": 80.390625,
          "velocity": 0.6929133858267716
        },
        {
          "duration": 0.11962890625,
          "durationTicks": 49,
          "midi": 37,
          "name": "C#2",
          "ticks": 33120,
          "time": 80.859375,
          "velocity": 0.6535433070866141
        },
        {
          "duration": 0.11474609375,
          "durationTicks": 47,
          "midi": 32,
          "name": "G#1",
          "ticks": 33216,
          "time": 81.09375,
          "velocity": 0.5748031496062992
        },
        {
          "duration": 0.10986328125,
          "durationTicks": 45,
          "midi": 37,
          "name": "C#2",
          "ticks": 33312,
          "time": 81.328125,
          "velocity": 0.7244094488188977
        },
        {
          "duration": 0.1220703125,
          "durationTicks": 50,
          "midi": 34,
          "name": "A#1",
          "ticks": 33408,
          "time": 81.5625,
          "velocity": 0.6771653543307087
        },
        {
          "duration": 0.107421875,
          "durationTicks": 44,
          "midi": 37,
          "name": "C#2",
          "ticks": 33504,
          "time": 81.796875,
          "velocity": 0.6614173228346457
        },
        {
          "duration": 0.1171875,
          "durationTicks": 48,
          "midi": 34,
          "name": "A#1",
          "ticks": 33600,
          "time": 82.03125,
          "velocity": 0.6062992125984252
        },
        {
          "duration": 0.34912109375,
          "durationTicks": 143,
          "midi": 39,
          "name": "D#2",
          "ticks": 33696,
          "time": 82.265625,
          "velocity": 0.7401574803149606
        },
        {
          "duration": 0.15380859375,
          "durationTicks": 63,
          "midi": 39,
          "name": "D#2",
          "ticks": 33888,
          "time": 82.734375,
          "velocity": 0.6929133858267716
        },
        {
          "duration": 0.13916015625,
          "durationTicks": 57,
          "midi": 34,
          "name": "A#1",
          "ticks": 33984,
          "time": 82.96875,
          "velocity": 0.6299212598425197
        },
        {
          "duration": 0.15869140625,
          "durationTicks": 65,
          "midi": 37,
          "name": "C#2",
          "ticks": 34080,
          "time": 83.203125,
          "velocity": 0.6614173228346457
        },
        {
          "duration": 0.15380859375,
          "durationTicks": 63,
          "midi": 39,
          "name": "D#2",
          "ticks": 34176,
          "time": 83.4375,
          "velocity": 0.6929133858267716
        },
        {
          "duration": 0.15625,
          "durationTicks": 64,
          "midi": 34,
          "name": "A#1",
          "ticks": 34272,
          "time": 83.671875,
          "velocity": 0.6299212598425197
        },
        {
          "duration": 0.15869140625,
          "durationTicks": 65,
          "midi": 39,
          "name": "D#2",
          "ticks": 34368,
          "time": 83.90625,
          "velocity": 0.6062992125984252
        },
        {
          "duration": 0.37109375,
          "durationTicks": 152,
          "midi": 37,
          "name": "C#2",
          "ticks": 34464,
          "time": 84.140625,
          "velocity": 0.6771653543307087
        },
        {
          "duration": 0.11962890625,
          "durationTicks": 49,
          "midi": 37,
          "name": "C#2",
          "ticks": 34656,
          "time": 84.609375,
          "velocity": 0.6535433070866141
        },
        {
          "duration": 0.11474609375,
          "durationTicks": 47,
          "midi": 32,
          "name": "G#1",
          "ticks": 34752,
          "time": 84.84375,
          "velocity": 0.5748031496062992
        },
        {
          "duration": 0.10986328125,
          "durationTicks": 45,
          "midi": 37,
          "name": "C#2",
          "ticks": 34848,
          "time": 85.078125,
          "velocity": 0.6614173228346457
        },
        {
          "duration": 0.1220703125,
          "durationTicks": 50,
          "midi": 34,
          "name": "A#1",
          "ticks": 34944,
          "time": 85.3125,
          "velocity": 0.6771653543307087
        },
        {
          "duration": 0.107421875,
          "durationTicks": 44,
          "midi": 37,
          "name": "C#2",
          "ticks": 35040,
          "time": 85.546875,
          "velocity": 0.6614173228346457
        },
        {
          "duration": 0.1171875,
          "durationTicks": 48,
          "midi": 34,
          "name": "A#1",
          "ticks": 35136,
          "time": 85.78125,
          "velocity": 0.6614173228346457
        },
        {
          "duration": 0.34912109375,
          "durationTicks": 143,
          "midi": 39,
          "name": "D#2",
          "ticks": 35232,
          "time": 86.015625,
          "velocity": 0.6456692913385826
        },
        {
          "duration": 0.15380859375,
          "durationTicks": 63,
          "midi": 39,
          "name": "D#2",
          "ticks": 35424,
          "time": 86.484375,
          "velocity": 0.6929133858267716
        },
        {
          "duration": 0.13916015625,
          "durationTicks": 57,
          "midi": 34,
          "name": "A#1",
          "ticks": 35520,
          "time": 86.71875,
          "velocity": 0.6299212598425197
        },
        {
          "duration": 0.15869140625,
          "durationTicks": 65,
          "midi": 37,
          "name": "C#2",
          "ticks": 35616,
          "time": 86.953125,
          "velocity": 0.6614173228346457
        },
        {
          "duration": 0.15380859375,
          "durationTicks": 63,
          "midi": 34,
          "name": "A#1",
          "ticks": 35712,
          "time": 87.1875,
          "velocity": 0.6771653543307087
        },
        {
          "duration": 0.15625,
          "durationTicks": 64,
          "midi": 37,
          "name": "C#2",
          "ticks": 35808,
          "time": 87.421875,
          "velocity": 0.6929133858267716
        },
        {
          "duration": 0.15869140625,
          "durationTicks": 65,
          "midi": 34,
          "name": "A#1",
          "ticks": 35904,
          "time": 87.65625,
          "velocity": 0.6771653543307087
        },
        {
          "duration": 0.37109375,
          "durationTicks": 152,
          "midi": 39,
          "name": "D#2",
          "ticks": 36000,
          "time": 87.890625,
          "velocity": 0.6771653543307087
        },
        {
          "duration": 0.11962890625,
          "durationTicks": 49,
          "midi": 39,
          "name": "D#2",
          "ticks": 36192,
          "time": 88.359375,
          "velocity": 0.6771653543307087
        },
        {
          "duration": 0.11474609375,
          "durationTicks": 47,
          "midi": 37,
          "name": "C#2",
          "ticks": 36288,
          "time": 88.59375,
          "velocity": 0.6771653543307087
        },
        {
          "duration": 0.10986328125,
          "durationTicks": 45,
          "midi": 35,
          "name": "B1",
          "ticks": 36384,
          "time": 88.828125,
          "velocity": 0.7244094488188977
        },
        {
          "duration": 0.1220703125,
          "durationTicks": 50,
          "midi": 34,
          "name": "A#1",
          "ticks": 36480,
          "time": 89.0625,
          "velocity": 0.6771653543307087
        },
        {
          "duration": 0.107421875,
          "durationTicks": 44,
          "midi": 37,
          "name": "C#2",
          "ticks": 36576,
          "time": 89.296875,
          "velocity": 0.6614173228346457
        },
        {
          "duration": 0.1171875,
          "durationTicks": 48,
          "midi": 34,
          "name": "A#1",
          "ticks": 36672,
          "time": 89.53125,
          "velocity": 0.6062992125984252
        },
        {
          "duration": 0.34912109375,
          "durationTicks": 143,
          "midi": 39,
          "name": "D#2",
          "ticks": 36768,
          "time": 89.765625,
          "velocity": 0.6456692913385826
        },
        {
          "duration": 0.15380859375,
          "durationTicks": 63,
          "midi": 39,
          "name": "D#2",
          "ticks": 36960,
          "time": 90.234375,
          "velocity": 0.6929133858267716
        },
        {
          "duration": 0.13916015625,
          "durationTicks": 57,
          "midi": 34,
          "name": "A#1",
          "ticks": 37056,
          "time": 90.46875,
          "velocity": 0.6299212598425197
        },
        {
          "duration": 0.15869140625,
          "durationTicks": 65,
          "midi": 37,
          "name": "C#2",
          "ticks": 37152,
          "time": 90.703125,
          "velocity": 0.6614173228346457
        },
        {
          "duration": 0.15380859375,
          "durationTicks": 63,
          "midi": 39,
          "name": "D#2",
          "ticks": 37248,
          "time": 90.9375,
          "velocity": 0.6771653543307087
        },
        {
          "duration": 0.15625,
          "durationTicks": 64,
          "midi": 39,
          "name": "D#2",
          "ticks": 37344,
          "time": 91.171875,
          "velocity": 0.6771653543307087
        },
        {
          "duration": 0.15869140625,
          "durationTicks": 65,
          "midi": 34,
          "name": "A#1",
          "ticks": 37440,
          "time": 91.40625,
          "velocity": 0.6614173228346457
        },
        {
          "duration": 0.37109375,
          "durationTicks": 152,
          "midi": 37,
          "name": "C#2",
          "ticks": 37536,
          "time": 91.640625,
          "velocity": 0.6614173228346457
        },
        {
          "duration": 0.11962890625,
          "durationTicks": 49,
          "midi": 37,
          "name": "C#2",
          "ticks": 37728,
          "time": 92.109375,
          "velocity": 0.6535433070866141
        },
        {
          "duration": 0.11474609375,
          "durationTicks": 47,
          "midi": 32,
          "name": "G#1",
          "ticks": 37824,
          "time": 92.34375,
          "velocity": 0.5748031496062992
        },
        {
          "duration": 0.10986328125,
          "durationTicks": 45,
          "midi": 37,
          "name": "C#2",
          "ticks": 37920,
          "time": 92.578125,
          "velocity": 0.6771653543307087
        },
        {
          "duration": 0.1220703125,
          "durationTicks": 50,
          "midi": 34,
          "name": "A#1",
          "ticks": 38016,
          "time": 92.8125,
          "velocity": 0.6771653543307087
        },
        {
          "duration": 0.107421875,
          "durationTicks": 44,
          "midi": 37,
          "name": "C#2",
          "ticks": 38112,
          "time": 93.046875,
          "velocity": 0.6614173228346457
        },
        {
          "duration": 0.1171875,
          "durationTicks": 48,
          "midi": 34,
          "name": "A#1",
          "ticks": 38208,
          "time": 93.28125,
          "velocity": 0.6771653543307087
        },
        {
          "duration": 0.34912109375,
          "durationTicks": 143,
          "midi": 39,
          "name": "D#2",
          "ticks": 38304,
          "time": 93.515625,
          "velocity": 0.6614173228346457
        },
        {
          "duration": 0.15380859375,
          "durationTicks": 63,
          "midi": 39,
          "name": "D#2",
          "ticks": 38496,
          "time": 93.984375,
          "velocity": 0.6929133858267716
        },
        {
          "duration": 0.13916015625,
          "durationTicks": 57,
          "midi": 34,
          "name": "A#1",
          "ticks": 38592,
          "time": 94.21875,
          "velocity": 0.6299212598425197
        },
        {
          "duration": 0.15869140625,
          "durationTicks": 65,
          "midi": 37,
          "name": "C#2",
          "ticks": 38688,
          "time": 94.453125,
          "velocity": 0.6614173228346457
        },
        {
          "duration": 0.15380859375,
          "durationTicks": 63,
          "midi": 39,
          "name": "D#2",
          "ticks": 38784,
          "time": 94.6875,
          "velocity": 0.6771653543307087
        },
        {
          "duration": 0.15625,
          "durationTicks": 64,
          "midi": 34,
          "name": "A#1",
          "ticks": 38880,
          "time": 94.921875,
          "velocity": 0.6299212598425197
        },
        {
          "duration": 0.15869140625,
          "durationTicks": 65,
          "midi": 39,
          "name": "D#2",
          "ticks": 38976,
          "time": 95.15625,
          "velocity": 0.6929133858267716
        },
        {
          "duration": 0.37109375,
          "durationTicks": 152,
          "midi": 37,
          "name": "C#2",
          "ticks": 39072,
          "time": 95.390625,
          "velocity": 0.6929133858267716
        },
        {
          "duration": 0.11962890625,
          "durationTicks": 49,
          "midi": 37,
          "name": "C#2",
          "ticks": 39264,
          "time": 95.859375,
          "velocity": 0.6771653543307087
        },
        {
          "duration": 0.11474609375,
          "durationTicks": 47,
          "midi": 32,
          "name": "G#1",
          "ticks": 39360,
          "time": 96.09375,
          "velocity": 0.6771653543307087
        },
        {
          "duration": 0.10986328125,
          "durationTicks": 45,
          "midi": 37,
          "name": "C#2",
          "ticks": 39456,
          "time": 96.328125,
          "velocity": 0.7244094488188977
        },
        {
          "duration": 0.1220703125,
          "durationTicks": 50,
          "midi": 34,
          "name": "A#1",
          "ticks": 39552,
          "time": 96.5625,
          "velocity": 0.6771653543307087
        },
        {
          "duration": 0.107421875,
          "durationTicks": 44,
          "midi": 37,
          "name": "C#2",
          "ticks": 39648,
          "time": 96.796875,
          "velocity": 0.6614173228346457
        },
        {
          "duration": 0.1171875,
          "durationTicks": 48,
          "midi": 34,
          "name": "A#1",
          "ticks": 39744,
          "time": 97.03125,
          "velocity": 0.6062992125984252
        },
        {
          "duration": 0.34912109375,
          "durationTicks": 143,
          "midi": 39,
          "name": "D#2",
          "ticks": 39840,
          "time": 97.265625,
          "velocity": 0.6929133858267716
        },
        {
          "duration": 0.15380859375,
          "durationTicks": 63,
          "midi": 39,
          "name": "D#2",
          "ticks": 40032,
          "time": 97.734375,
          "velocity": 0.6929133858267716
        },
        {
          "duration": 0.13916015625,
          "durationTicks": 57,
          "midi": 34,
          "name": "A#1",
          "ticks": 40128,
          "time": 97.96875,
          "velocity": 0.6299212598425197
        },
        {
          "duration": 0.15869140625,
          "durationTicks": 65,
          "midi": 37,
          "name": "C#2",
          "ticks": 40224,
          "time": 98.203125,
          "velocity": 0.6614173228346457
        },
        {
          "duration": 0.15380859375,
          "durationTicks": 63,
          "midi": 34,
          "name": "A#1",
          "ticks": 40320,
          "time": 98.4375,
          "velocity": 0.6929133858267716
        },
        {
          "duration": 0.15625,
          "durationTicks": 64,
          "midi": 37,
          "name": "C#2",
          "ticks": 40416,
          "time": 98.671875,
          "velocity": 0.6299212598425197
        },
        {
          "duration": 0.15869140625,
          "durationTicks": 65,
          "midi": 34,
          "name": "A#1",
          "ticks": 40512,
          "time": 98.90625,
          "velocity": 0.6062992125984252
        },
        {
          "duration": 0.37109375,
          "durationTicks": 152,
          "midi": 39,
          "name": "D#2",
          "ticks": 40608,
          "time": 99.140625,
          "velocity": 0.6771653543307087
        },
        {
          "duration": 0.11962890625,
          "durationTicks": 49,
          "midi": 39,
          "name": "D#2",
          "ticks": 40800,
          "time": 99.609375,
          "velocity": 0.6771653543307087
        },
        {
          "duration": 0.11474609375,
          "durationTicks": 47,
          "midi": 37,
          "name": "C#2",
          "ticks": 40896,
          "time": 99.84375,
          "velocity": 0.6771653543307087
        },
        {
          "duration": 0.10986328125,
          "durationTicks": 45,
          "midi": 35,
          "name": "B1",
          "ticks": 40992,
          "time": 100.078125,
          "velocity": 0.7244094488188977
        },
        {
          "duration": 0.1220703125,
          "durationTicks": 50,
          "midi": 34,
          "name": "A#1",
          "ticks": 41088,
          "time": 100.3125,
          "velocity": 0.6771653543307087
        },
        {
          "duration": 0.107421875,
          "durationTicks": 44,
          "midi": 37,
          "name": "C#2",
          "ticks": 41184,
          "time": 100.546875,
          "velocity": 0.6614173228346457
        },
        {
          "duration": 0.1171875,
          "durationTicks": 48,
          "midi": 34,
          "name": "A#1",
          "ticks": 41280,
          "time": 100.78125,
          "velocity": 0.6062992125984252
        },
        {
          "duration": 0.34912109375,
          "durationTicks": 143,
          "midi": 39,
          "name": "D#2",
          "ticks": 41376,
          "time": 101.015625,
          "velocity": 0.7401574803149606
        },
        {
          "duration": 0.15380859375,
          "durationTicks": 63,
          "midi": 39,
          "name": "D#2",
          "ticks": 41568,
          "time": 101.484375,
          "velocity": 0.6929133858267716
        },
        {
          "duration": 0.13916015625,
          "durationTicks": 57,
          "midi": 34,
          "name": "A#1",
          "ticks": 41664,
          "time": 101.71875,
          "velocity": 0.6299212598425197
        },
        {
          "duration": 0.15869140625,
          "durationTicks": 65,
          "midi": 37,
          "name": "C#2",
          "ticks": 41760,
          "time": 101.953125,
          "velocity": 0.6614173228346457
        },
        {
          "duration": 0.15380859375,
          "durationTicks": 63,
          "midi": 39,
          "name": "D#2",
          "ticks": 41856,
          "time": 102.1875,
          "velocity": 0.6614173228346457
        },
        {
          "duration": 0.15625,
          "durationTicks": 64,
          "midi": 39,
          "name": "D#2",
          "ticks": 41952,
          "time": 102.421875,
          "velocity": 0.6929133858267716
        },
        {
          "duration": 0.15869140625,
          "durationTicks": 65,
          "midi": 34,
          "name": "A#1",
          "ticks": 42048,
          "time": 102.65625,
          "velocity": 0.7086614173228346
        },
        {
          "duration": 0.37109375,
          "durationTicks": 152,
          "midi": 37,
          "name": "C#2",
          "ticks": 42144,
          "time": 102.890625,
          "velocity": 0.6614173228346457
        },
        {
          "duration": 0.11962890625,
          "durationTicks": 49,
          "midi": 37,
          "name": "C#2",
          "ticks": 42336,
          "time": 103.359375,
          "velocity": 0.6535433070866141
        },
        {
          "duration": 0.11474609375,
          "durationTicks": 47,
          "midi": 32,
          "name": "G#1",
          "ticks": 42432,
          "time": 103.59375,
          "velocity": 0.5748031496062992
        },
        {
          "duration": 0.10986328125,
          "durationTicks": 45,
          "midi": 37,
          "name": "C#2",
          "ticks": 42528,
          "time": 103.828125,
          "velocity": 0.6771653543307087
        },
        {
          "duration": 0.1220703125,
          "durationTicks": 50,
          "midi": 34,
          "name": "A#1",
          "ticks": 42624,
          "time": 104.0625,
          "velocity": 0.6771653543307087
        },
        {
          "duration": 0.107421875,
          "durationTicks": 44,
          "midi": 37,
          "name": "C#2",
          "ticks": 42720,
          "time": 104.296875,
          "velocity": 0.6614173228346457
        },
        {
          "duration": 0.1171875,
          "durationTicks": 48,
          "midi": 34,
          "name": "A#1",
          "ticks": 42816,
          "time": 104.53125,
          "velocity": 0.6062992125984252
        },
        {
          "duration": 0.34912109375,
          "durationTicks": 143,
          "midi": 39,
          "name": "D#2",
          "ticks": 42912,
          "time": 104.765625,
          "velocity": 0.6614173228346457
        },
        {
          "duration": 0.15380859375,
          "durationTicks": 63,
          "midi": 39,
          "name": "D#2",
          "ticks": 43104,
          "time": 105.234375,
          "velocity": 0.6929133858267716
        },
        {
          "duration": 0.13916015625,
          "durationTicks": 57,
          "midi": 34,
          "name": "A#1",
          "ticks": 43200,
          "time": 105.46875,
          "velocity": 0.6299212598425197
        },
        {
          "duration": 0.15869140625,
          "durationTicks": 65,
          "midi": 37,
          "name": "C#2",
          "ticks": 43296,
          "time": 105.703125,
          "velocity": 0.6614173228346457
        },
        {
          "duration": 0.15380859375,
          "durationTicks": 63,
          "midi": 39,
          "name": "D#2",
          "ticks": 43392,
          "time": 105.9375,
          "velocity": 0.6771653543307087
        },
        {
          "duration": 0.15625,
          "durationTicks": 64,
          "midi": 34,
          "name": "A#1",
          "ticks": 43488,
          "time": 106.171875,
          "velocity": 0.6299212598425197
        },
        {
          "duration": 0.15869140625,
          "durationTicks": 65,
          "midi": 39,
          "name": "D#2",
          "ticks": 43584,
          "time": 106.40625,
          "velocity": 0.7086614173228346
        },
        {
          "duration": 0.37109375,
          "durationTicks": 152,
          "midi": 37,
          "name": "C#2",
          "ticks": 43680,
          "time": 106.640625,
          "velocity": 0.6771653543307087
        },
        {
          "duration": 0.11962890625,
          "durationTicks": 49,
          "midi": 37,
          "name": "C#2",
          "ticks": 43872,
          "time": 107.109375,
          "velocity": 0.7086614173228346
        },
        {
          "duration": 0.11474609375,
          "durationTicks": 47,
          "midi": 32,
          "name": "G#1",
          "ticks": 43968,
          "time": 107.34375,
          "velocity": 0.6614173228346457
        },
        {
          "duration": 0.10986328125,
          "durationTicks": 45,
          "midi": 37,
          "name": "C#2",
          "ticks": 44064,
          "time": 107.578125,
          "velocity": 0.7244094488188977
        },
        {
          "duration": 0.1220703125,
          "durationTicks": 50,
          "midi": 34,
          "name": "A#1",
          "ticks": 44160,
          "time": 107.8125,
          "velocity": 0.6771653543307087
        },
        {
          "duration": 0.107421875,
          "durationTicks": 44,
          "midi": 37,
          "name": "C#2",
          "ticks": 44256,
          "time": 108.046875,
          "velocity": 0.6614173228346457
        },
        {
          "duration": 0.1171875,
          "durationTicks": 48,
          "midi": 34,
          "name": "A#1",
          "ticks": 44352,
          "time": 108.28125,
          "velocity": 0.6062992125984252
        },
        {
          "duration": 0.34912109375,
          "durationTicks": 143,
          "midi": 39,
          "name": "D#2",
          "ticks": 44448,
          "time": 108.515625,
          "velocity": 0.6456692913385826
        },
        {
          "duration": 0.15380859375,
          "durationTicks": 63,
          "midi": 39,
          "name": "D#2",
          "ticks": 44640,
          "time": 108.984375,
          "velocity": 0.6929133858267716
        },
        {
          "duration": 0.13916015625,
          "durationTicks": 57,
          "midi": 34,
          "name": "A#1",
          "ticks": 44736,
          "time": 109.21875,
          "velocity": 0.6299212598425197
        },
        {
          "duration": 0.15869140625,
          "durationTicks": 65,
          "midi": 37,
          "name": "C#2",
          "ticks": 44832,
          "time": 109.453125,
          "velocity": 0.6614173228346457
        },
        {
          "duration": 0.15380859375,
          "durationTicks": 63,
          "midi": 34,
          "name": "A#1",
          "ticks": 44928,
          "time": 109.6875,
          "velocity": 0.6771653543307087
        },
        {
          "duration": 0.15625,
          "durationTicks": 64,
          "midi": 37,
          "name": "C#2",
          "ticks": 45024,
          "time": 109.921875,
          "velocity": 0.6929133858267716
        },
        {
          "duration": 0.15869140625,
          "durationTicks": 65,
          "midi": 34,
          "name": "A#1",
          "ticks": 45120,
          "time": 110.15625,
          "velocity": 0.6929133858267716
        },
        {
          "duration": 0.37109375,
          "durationTicks": 152,
          "midi": 39,
          "name": "D#2",
          "ticks": 45216,
          "time": 110.390625,
          "velocity": 0.6929133858267716
        },
        {
          "duration": 0.11962890625,
          "durationTicks": 49,
          "midi": 39,
          "name": "D#2",
          "ticks": 45408,
          "time": 110.859375,
          "velocity": 0.6771653543307087
        },
        {
          "duration": 0.11474609375,
          "durationTicks": 47,
          "midi": 37,
          "name": "C#2",
          "ticks": 45504,
          "time": 111.09375,
          "velocity": 0.6614173228346457
        },
        {
          "duration": 0.10986328125,
          "durationTicks": 45,
          "midi": 35,
          "name": "B1",
          "ticks": 45600,
          "time": 111.328125,
          "velocity": 0.7244094488188977
        },
        {
          "duration": 0.1220703125,
          "durationTicks": 50,
          "midi": 34,
          "name": "A#1",
          "ticks": 45696,
          "time": 111.5625,
          "velocity": 0.6771653543307087
        },
        {
          "duration": 0.107421875,
          "durationTicks": 44,
          "midi": 37,
          "name": "C#2",
          "ticks": 45792,
          "time": 111.796875,
          "velocity": 0.6614173228346457
        },
        {
          "duration": 0.1171875,
          "durationTicks": 48,
          "midi": 34,
          "name": "A#1",
          "ticks": 45888,
          "time": 112.03125,
          "velocity": 0.6062992125984252
        },
        {
          "duration": 0.34912109375,
          "durationTicks": 143,
          "midi": 39,
          "name": "D#2",
          "ticks": 45984,
          "time": 112.265625,
          "velocity": 0.6771653543307087
        },
        {
          "duration": 0.15380859375,
          "durationTicks": 63,
          "midi": 39,
          "name": "D#2",
          "ticks": 46176,
          "time": 112.734375,
          "velocity": 0.6929133858267716
        },
        {
          "duration": 0.13916015625,
          "durationTicks": 57,
          "midi": 34,
          "name": "A#1",
          "ticks": 46272,
          "time": 112.96875,
          "velocity": 0.6299212598425197
        },
        {
          "duration": 0.15869140625,
          "durationTicks": 65,
          "midi": 37,
          "name": "C#2",
          "ticks": 46368,
          "time": 113.203125,
          "velocity": 0.6614173228346457
        },
        {
          "duration": 0.126953125,
          "durationTicks": 52,
          "midi": 39,
          "name": "D#2",
          "ticks": 46464,
          "time": 113.4375,
          "velocity": 0.6614173228346457
        },
        {
          "duration": 0.12939453125,
          "durationTicks": 53,
          "midi": 34,
          "name": "A#1",
          "ticks": 46560,
          "time": 113.671875,
          "velocity": 0.6456692913385826
        },
        {
          "duration": 0.13916015625,
          "durationTicks": 57,
          "midi": 39,
          "name": "D#2",
          "ticks": 46656,
          "time": 113.90625,
          "velocity": 0.6614173228346457
        },
        {
          "duration": 0.37841796875,
          "durationTicks": 155,
          "midi": 37,
          "name": "C#2",
          "ticks": 46752,
          "time": 114.140625,
          "velocity": 0.6535433070866141
        },
        {
          "duration": 0.15869140625,
          "durationTicks": 65,
          "midi": 37,
          "name": "C#2",
          "ticks": 46944,
          "time": 114.609375,
          "velocity": 0.6771653543307087
        },
        {
          "duration": 0.10498046875,
          "durationTicks": 43,
          "midi": 32,
          "name": "G#1",
          "ticks": 47040,
          "time": 114.84375,
          "velocity": 0.6771653543307087
        },
        {
          "duration": 0.1123046875,
          "durationTicks": 46,
          "midi": 37,
          "name": "C#2",
          "ticks": 47136,
          "time": 115.078125,
          "velocity": 0.6929133858267716
        },
        {
          "duration": 0.14892578125,
          "durationTicks": 61,
          "midi": 35,
          "name": "B1",
          "ticks": 47232,
          "time": 115.3125,
          "velocity": 0.6929133858267716
        },
        {
          "duration": 0.126953125,
          "durationTicks": 52,
          "midi": 30,
          "name": "F#1",
          "ticks": 47328,
          "time": 115.546875,
          "velocity": 0.6771653543307087
        },
        {
          "duration": 0.15869140625,
          "durationTicks": 65,
          "midi": 35,
          "name": "B1",
          "ticks": 47424,
          "time": 115.78125,
          "velocity": 0.6141732283464567
        },
        {
          "duration": 0.380859375,
          "durationTicks": 156,
          "midi": 34,
          "name": "A#1",
          "ticks": 47520,
          "time": 116.015625,
          "velocity": 0.6535433070866141
        },
        {
          "duration": 0.13427734375,
          "durationTicks": 55,
          "midi": 34,
          "name": "A#1",
          "ticks": 47712,
          "time": 116.484375,
          "velocity": 0.6299212598425197
        },
        {
          "duration": 0.10498046875,
          "durationTicks": 43,
          "midi": 37,
          "name": "C#2",
          "ticks": 47808,
          "time": 116.71875,
          "velocity": 0.6929133858267716
        },
        {
          "duration": 0.1220703125,
          "durationTicks": 50,
          "midi": 34,
          "name": "A#1",
          "ticks": 47904,
          "time": 116.953125,
          "velocity": 0.6929133858267716
        },
        {
          "duration": 0.1318359375,
          "durationTicks": 54,
          "midi": 39,
          "name": "D#2",
          "ticks": 48000,
          "time": 117.1875,
          "velocity": 0.7244094488188977
        },
        {
          "duration": 0.10986328125,
          "durationTicks": 45,
          "midi": 34,
          "name": "A#1",
          "ticks": 48096,
          "time": 117.421875,
          "velocity": 0.6929133858267716
        },
        {
          "duration": 0.15869140625,
          "durationTicks": 65,
          "midi": 39,
          "name": "D#2",
          "ticks": 48192,
          "time": 117.65625,
          "velocity": 0.6614173228346457
        },
        {
          "duration": 0.36376953125,
          "durationTicks": 149,
          "midi": 37,
          "name": "C#2",
          "ticks": 48288,
          "time": 117.890625,
          "velocity": 0.7086614173228346
        },
        {
          "duration": 0.17822265625,
          "durationTicks": 73,
          "midi": 37,
          "name": "C#2",
          "ticks": 48480,
          "time": 118.359375,
          "velocity": 0.6299212598425197
        },
        {
          "duration": 0.11962890625,
          "durationTicks": 49,
          "midi": 32,
          "name": "G#1",
          "ticks": 48576,
          "time": 118.59375,
          "velocity": 0.6535433070866141
        },
        {
          "duration": 0.11962890625,
          "durationTicks": 49,
          "midi": 37,
          "name": "C#2",
          "ticks": 48672,
          "time": 118.828125,
          "velocity": 0.7086614173228346
        },
        {
          "duration": 0.14892578125,
          "durationTicks": 61,
          "midi": 35,
          "name": "B1",
          "ticks": 48768,
          "time": 119.0625,
          "velocity": 0.6220472440944882
        },
        {
          "duration": 0.12939453125,
          "durationTicks": 53,
          "midi": 30,
          "name": "F#1",
          "ticks": 48864,
          "time": 119.296875,
          "velocity": 0.6535433070866141
        },
        {
          "duration": 0.18798828125,
          "durationTicks": 77,
          "midi": 35,
          "name": "B1",
          "ticks": 48960,
          "time": 119.53125,
          "velocity": 0.6220472440944882
        },
        {
          "duration": 0.3466796874999858,
          "durationTicks": 142,
          "midi": 34,
          "name": "A#1",
          "ticks": 49056,
          "time": 119.765625,
          "velocity": 0.6929133858267716
        },
        {
          "duration": 0.1513671875000142,
          "durationTicks": 62,
          "midi": 34,
          "name": "A#1",
          "ticks": 49248,
          "time": 120.234375,
          "velocity": 0.6771653543307087
        },
        {
          "duration": 0.11230468749998579,
          "durationTicks": 46,
          "midi": 37,
          "name": "C#2",
          "ticks": 49344,
          "time": 120.46875,
          "velocity": 0.6614173228346457
        },
        {
          "duration": 0.11474609375001421,
          "durationTicks": 47,
          "midi": 34,
          "name": "A#1",
          "ticks": 49440,
          "time": 120.703125,
          "velocity": 0.6535433070866141
        },
        {
          "duration": 0.1855468749999858,
          "durationTicks": 76,
          "midi": 39,
          "name": "D#2",
          "ticks": 49536,
          "time": 120.9375,
          "velocity": 0.6456692913385826
        },
        {
          "duration": 0.1171875,
          "durationTicks": 48,
          "midi": 34,
          "name": "A#1",
          "ticks": 49632,
          "time": 121.171875,
          "velocity": 0.6456692913385826
        },
        {
          "duration": 0.1489257812499858,
          "durationTicks": 61,
          "midi": 39,
          "name": "D#2",
          "ticks": 49728,
          "time": 121.40625,
          "velocity": 0.7086614173228346
        },
        {
          "duration": 0.3491210937500142,
          "durationTicks": 143,
          "midi": 37,
          "name": "C#2",
          "ticks": 49824,
          "time": 121.640625,
          "velocity": 0.6771653543307087
        },
        {
          "duration": 0.13916015625,
          "durationTicks": 57,
          "midi": 37,
          "name": "C#2",
          "ticks": 50016,
          "time": 122.109375,
          "velocity": 0.6929133858267716
        },
        {
          "duration": 0.1293945312500142,
          "durationTicks": 53,
          "midi": 32,
          "name": "G#1",
          "ticks": 50112,
          "time": 122.34375,
          "velocity": 0.6062992125984252
        },
        {
          "duration": 0.1440429687500142,
          "durationTicks": 59,
          "midi": 37,
          "name": "C#2",
          "ticks": 50208,
          "time": 122.578125,
          "velocity": 0.6771653543307087
        },
        {
          "duration": 0.11962890624998579,
          "durationTicks": 49,
          "midi": 35,
          "name": "B1",
          "ticks": 50304,
          "time": 122.8125,
          "velocity": 0.6141732283464567
        },
        {
          "duration": 0.1318359375,
          "durationTicks": 54,
          "midi": 30,
          "name": "F#1",
          "ticks": 50400,
          "time": 123.046875,
          "velocity": 0.6377952755905512
        },
        {
          "duration": 0.146484375,
          "durationTicks": 60,
          "midi": 35,
          "name": "B1",
          "ticks": 50496,
          "time": 123.28125,
          "velocity": 0.6220472440944882
        },
        {
          "duration": 0.3198242187500142,
          "durationTicks": 131,
          "midi": 34,
          "name": "A#1",
          "ticks": 50592,
          "time": 123.515625,
          "velocity": 0.6771653543307087
        },
        {
          "duration": 0.16845703125,
          "durationTicks": 69,
          "midi": 34,
          "name": "A#1",
          "ticks": 50784,
          "time": 123.984375,
          "velocity": 0.6062992125984252
        },
        {
          "duration": 0.11230468749998579,
          "durationTicks": 46,
          "midi": 37,
          "name": "C#2",
          "ticks": 50880,
          "time": 124.21875,
          "velocity": 0.6929133858267716
        },
        {
          "duration": 0.10986328125,
          "durationTicks": 45,
          "midi": 34,
          "name": "A#1",
          "ticks": 50976,
          "time": 124.453125,
          "velocity": 0.5984251968503937
        },
        {
          "duration": 0.1562499999999858,
          "durationTicks": 64,
          "midi": 39,
          "name": "D#2",
          "ticks": 51072,
          "time": 124.6875,
          "velocity": 0.6929133858267716
        },
        {
          "duration": 0.12207031250001421,
          "durationTicks": 50,
          "midi": 34,
          "name": "A#1",
          "ticks": 51168,
          "time": 124.921875,
          "velocity": 0.6771653543307087
        },
        {
          "duration": 0.1416015624999858,
          "durationTicks": 58,
          "midi": 39,
          "name": "D#2",
          "ticks": 51264,
          "time": 125.15625,
          "velocity": 0.6929133858267716
        },
        {
          "duration": 0.3515625,
          "durationTicks": 144,
          "midi": 37,
          "name": "C#2",
          "ticks": 51360,
          "time": 125.390625,
          "velocity": 0.6771653543307087
        },
        {
          "duration": 0.22705078125,
          "durationTicks": 93,
          "midi": 37,
          "name": "C#2",
          "ticks": 51552,
          "time": 125.859375,
          "velocity": 0.6141732283464567
        },
        {
          "duration": 0.1635742187499858,
          "durationTicks": 67,
          "midi": 32,
          "name": "G#1",
          "ticks": 51648,
          "time": 126.09375,
          "velocity": 0.6535433070866141
        },
        {
          "duration": 0.1513671875000142,
          "durationTicks": 62,
          "midi": 35,
          "name": "B1",
          "ticks": 51744,
          "time": 126.328125,
          "velocity": 0.6771653543307087
        },
        {
          "duration": 0.1635742187499858,
          "durationTicks": 67,
          "midi": 37,
          "name": "C#2",
          "ticks": 51840,
          "time": 126.5625,
          "velocity": 0.6771653543307087
        },
        {
          "duration": 0.1367187500000142,
          "durationTicks": 56,
          "midi": 35,
          "name": "B1",
          "ticks": 51936,
          "time": 126.796875,
          "velocity": 0.6771653543307087
        },
        {
          "duration": 0.1513671875000142,
          "durationTicks": 62,
          "midi": 37,
          "name": "C#2",
          "ticks": 52032,
          "time": 127.03125,
          "velocity": 0.6771653543307087
        },
        {
          "duration": 0.6054687500000142,
          "durationTicks": 248,
          "midi": 39,
          "name": "D#2",
          "ticks": 52128,
          "time": 127.265625,
          "velocity": 0.6771653543307087
        },
        {
          "duration": 0.12451171875,
          "durationTicks": 51,
          "midi": 37,
          "name": "C#2",
          "ticks": 52416,
          "time": 127.96875,
          "velocity": 0.6929133858267716
        },
        {
          "duration": 0.361328125,
          "durationTicks": 148,
          "midi": 39,
          "name": "D#2",
          "ticks": 52512,
          "time": 128.203125,
          "velocity": 0.6771653543307087
        },
        {
          "duration": 0.16845703125,
          "durationTicks": 69,
          "midi": 39,
          "name": "D#2",
          "ticks": 52704,
          "time": 128.671875,
          "velocity": 0.6929133858267716
        },
        {
          "duration": 0.11962890625,
          "durationTicks": 49,
          "midi": 34,
          "name": "A#1",
          "ticks": 52800,
          "time": 128.90625,
          "velocity": 0.6929133858267716
        },
        {
          "duration": 0.13427734375,
          "durationTicks": 55,
          "midi": 37,
          "name": "C#2",
          "ticks": 52896,
          "time": 129.140625,
          "velocity": 0.6929133858267716
        },
        {
          "duration": 0.38330078125,
          "durationTicks": 157,
          "midi": 39,
          "name": "D#2",
          "ticks": 52992,
          "time": 129.375,
          "velocity": 0.7086614173228346
        },
        {
          "duration": 0.13916015625,
          "durationTicks": 57,
          "midi": 37,
          "name": "C#2",
          "ticks": 53184,
          "time": 129.84375,
          "velocity": 0.7244094488188977
        },
        {
          "duration": 0.36865234375,
          "durationTicks": 151,
          "midi": 39,
          "name": "D#2",
          "ticks": 53280,
          "time": 130.078125,
          "velocity": 0.6929133858267716
        },
        {
          "duration": 0.15380859375,
          "durationTicks": 63,
          "midi": 39,
          "name": "D#2",
          "ticks": 53472,
          "time": 130.546875,
          "velocity": 0.6535433070866141
        },
        {
          "duration": 0.146484375,
          "durationTicks": 60,
          "midi": 34,
          "name": "A#1",
          "ticks": 53568,
          "time": 130.78125,
          "velocity": 0.7086614173228346
        },
        {
          "duration": 0.16845703125,
          "durationTicks": 69,
          "midi": 37,
          "name": "C#2",
          "ticks": 53664,
          "time": 131.015625,
          "velocity": 0.7244094488188977
        },
        {
          "duration": 0.15380859375,
          "durationTicks": 63,
          "midi": 39,
          "name": "D#2",
          "ticks": 53760,
          "time": 131.25,
          "velocity": 0.6614173228346457
        },
        {
          "duration": 0.15625,
          "durationTicks": 64,
          "midi": 39,
          "name": "D#2",
          "ticks": 53856,
          "time": 131.484375,
          "velocity": 0.7244094488188977
        },
        {
          "duration": 0.15869140625,
          "durationTicks": 65,
          "midi": 34,
          "name": "A#1",
          "ticks": 53952,
          "time": 131.71875,
          "velocity": 0.7244094488188977
        },
        {
          "duration": 0.37109375,
          "durationTicks": 152,
          "midi": 37,
          "name": "C#2",
          "ticks": 54048,
          "time": 131.953125,
          "velocity": 0.7086614173228346
        },
        {
          "duration": 0.11962890625,
          "durationTicks": 49,
          "midi": 37,
          "name": "C#2",
          "ticks": 54240,
          "time": 132.421875,
          "velocity": 0.6929133858267716
        },
        {
          "duration": 0.11474609375,
          "durationTicks": 47,
          "midi": 32,
          "name": "G#1",
          "ticks": 54336,
          "time": 132.65625,
          "velocity": 0.6771653543307087
        },
        {
          "duration": 0.10986328125,
          "durationTicks": 45,
          "midi": 37,
          "name": "C#2",
          "ticks": 54432,
          "time": 132.890625,
          "velocity": 0.7244094488188977
        },
        {
          "duration": 0.1220703125,
          "durationTicks": 50,
          "midi": 34,
          "name": "A#1",
          "ticks": 54528,
          "time": 133.125,
          "velocity": 0.6771653543307087
        },
        {
          "duration": 0.107421875,
          "durationTicks": 44,
          "midi": 37,
          "name": "C#2",
          "ticks": 54624,
          "time": 133.359375,
          "velocity": 0.6614173228346457
        },
        {
          "duration": 0.1171875,
          "durationTicks": 48,
          "midi": 34,
          "name": "A#1",
          "ticks": 54720,
          "time": 133.59375,
          "velocity": 0.6614173228346457
        },
        {
          "duration": 0.34912109375,
          "durationTicks": 143,
          "midi": 39,
          "name": "D#2",
          "ticks": 54816,
          "time": 133.828125,
          "velocity": 0.6929133858267716
        },
        {
          "duration": 0.15380859375,
          "durationTicks": 63,
          "midi": 39,
          "name": "D#2",
          "ticks": 55008,
          "time": 134.296875,
          "velocity": 0.6929133858267716
        },
        {
          "duration": 0.13916015625,
          "durationTicks": 57,
          "midi": 34,
          "name": "A#1",
          "ticks": 55104,
          "time": 134.53125,
          "velocity": 0.6929133858267716
        },
        {
          "duration": 0.15869140625,
          "durationTicks": 65,
          "midi": 37,
          "name": "C#2",
          "ticks": 55200,
          "time": 134.765625,
          "velocity": 0.6929133858267716
        },
        {
          "duration": 0.15380859375,
          "durationTicks": 63,
          "midi": 39,
          "name": "D#2",
          "ticks": 55296,
          "time": 135,
          "velocity": 0.6771653543307087
        },
        {
          "duration": 0.15625,
          "durationTicks": 64,
          "midi": 34,
          "name": "A#1",
          "ticks": 55392,
          "time": 135.234375,
          "velocity": 0.6929133858267716
        },
        {
          "duration": 0.15869140625,
          "durationTicks": 65,
          "midi": 39,
          "name": "D#2",
          "ticks": 55488,
          "time": 135.46875,
          "velocity": 0.6771653543307087
        },
        {
          "duration": 0.37109375,
          "durationTicks": 152,
          "midi": 37,
          "name": "C#2",
          "ticks": 55584,
          "time": 135.703125,
          "velocity": 0.6299212598425197
        },
        {
          "duration": 0.11962890625,
          "durationTicks": 49,
          "midi": 37,
          "name": "C#2",
          "ticks": 55776,
          "time": 136.171875,
          "velocity": 0.6614173228346457
        },
        {
          "duration": 0.11474609375,
          "durationTicks": 47,
          "midi": 32,
          "name": "G#1",
          "ticks": 55872,
          "time": 136.40625,
          "velocity": 0.6771653543307087
        },
        {
          "duration": 0.10986328125,
          "durationTicks": 45,
          "midi": 37,
          "name": "C#2",
          "ticks": 55968,
          "time": 136.640625,
          "velocity": 0.7244094488188977
        },
        {
          "duration": 0.1220703125,
          "durationTicks": 50,
          "midi": 34,
          "name": "A#1",
          "ticks": 56064,
          "time": 136.875,
          "velocity": 0.6771653543307087
        },
        {
          "duration": 0.107421875,
          "durationTicks": 44,
          "midi": 37,
          "name": "C#2",
          "ticks": 56160,
          "time": 137.109375,
          "velocity": 0.6614173228346457
        },
        {
          "duration": 0.1171875,
          "durationTicks": 48,
          "midi": 34,
          "name": "A#1",
          "ticks": 56256,
          "time": 137.34375,
          "velocity": 0.6062992125984252
        },
        {
          "duration": 0.34912109375,
          "durationTicks": 143,
          "midi": 39,
          "name": "D#2",
          "ticks": 56352,
          "time": 137.578125,
          "velocity": 0.7401574803149606
        },
        {
          "duration": 0.15380859375,
          "durationTicks": 63,
          "midi": 39,
          "name": "D#2",
          "ticks": 56544,
          "time": 138.046875,
          "velocity": 0.6929133858267716
        },
        {
          "duration": 0.13916015625,
          "durationTicks": 57,
          "midi": 34,
          "name": "A#1",
          "ticks": 56640,
          "time": 138.28125,
          "velocity": 0.6771653543307087
        },
        {
          "duration": 0.15869140625,
          "durationTicks": 65,
          "midi": 37,
          "name": "C#2",
          "ticks": 56736,
          "time": 138.515625,
          "velocity": 0.6614173228346457
        },
        {
          "duration": 0.15380859375,
          "durationTicks": 63,
          "midi": 34,
          "name": "A#1",
          "ticks": 56832,
          "time": 138.75,
          "velocity": 0.6929133858267716
        },
        {
          "duration": 0.15625,
          "durationTicks": 64,
          "midi": 37,
          "name": "C#2",
          "ticks": 56928,
          "time": 138.984375,
          "velocity": 0.6771653543307087
        },
        {
          "duration": 0.15869140625,
          "durationTicks": 65,
          "midi": 34,
          "name": "A#1",
          "ticks": 57024,
          "time": 139.21875,
          "velocity": 0.6771653543307087
        },
        {
          "duration": 0.37109375,
          "durationTicks": 152,
          "midi": 39,
          "name": "D#2",
          "ticks": 57120,
          "time": 139.453125,
          "velocity": 0.6456692913385826
        },
        {
          "duration": 0.11962890625,
          "durationTicks": 49,
          "midi": 39,
          "name": "D#2",
          "ticks": 57312,
          "time": 139.921875,
          "velocity": 0.6929133858267716
        },
        {
          "duration": 0.11474609375,
          "durationTicks": 47,
          "midi": 37,
          "name": "C#2",
          "ticks": 57408,
          "time": 140.15625,
          "velocity": 0.6929133858267716
        },
        {
          "duration": 0.10986328125,
          "durationTicks": 45,
          "midi": 35,
          "name": "B1",
          "ticks": 57504,
          "time": 140.390625,
          "velocity": 0.7244094488188977
        },
        {
          "duration": 0.1220703125,
          "durationTicks": 50,
          "midi": 34,
          "name": "A#1",
          "ticks": 57600,
          "time": 140.625,
          "velocity": 0.7244094488188977
        },
        {
          "duration": 0.107421875,
          "durationTicks": 44,
          "midi": 37,
          "name": "C#2",
          "ticks": 57696,
          "time": 140.859375,
          "velocity": 0.7086614173228346
        },
        {
          "duration": 0.1171875,
          "durationTicks": 48,
          "midi": 34,
          "name": "A#1",
          "ticks": 57792,
          "time": 141.09375,
          "velocity": 0.7086614173228346
        },
        {
          "duration": 0.34912109375,
          "durationTicks": 143,
          "midi": 39,
          "name": "D#2",
          "ticks": 57888,
          "time": 141.328125,
          "velocity": 0.7401574803149606
        },
        {
          "duration": 0.15380859375,
          "durationTicks": 63,
          "midi": 39,
          "name": "D#2",
          "ticks": 58080,
          "time": 141.796875,
          "velocity": 0.6929133858267716
        },
        {
          "duration": 0.13916015625,
          "durationTicks": 57,
          "midi": 34,
          "name": "A#1",
          "ticks": 58176,
          "time": 142.03125,
          "velocity": 0.7401574803149606
        },
        {
          "duration": 0.15869140625,
          "durationTicks": 65,
          "midi": 37,
          "name": "C#2",
          "ticks": 58272,
          "time": 142.265625,
          "velocity": 0.7401574803149606
        },
        {
          "duration": 1.7578125,
          "durationTicks": 720,
          "midi": 39,
          "name": "D#2",
          "ticks": 58368,
          "time": 142.5,
          "velocity": 0.7401574803149606
        },
        {
          "duration": 1.7578125,
          "durationTicks": 720,
          "midi": 37,
          "name": "C#2",
          "ticks": 59136,
          "time": 144.375,
          "velocity": 0.6299212598425197
        },
        {
          "duration": 1.7578125,
          "durationTicks": 720,
          "midi": 39,
          "name": "D#2",
          "ticks": 59904,
          "time": 146.25,
          "velocity": 0.6614173228346457
        },
        {
          "duration": 0.92529296875,
          "durationTicks": 379,
          "midi": 35,
          "name": "B1",
          "ticks": 60672,
          "time": 148.125,
          "velocity": 0.6456692913385826
        },
        {
          "duration": 0.9130859375,
          "durationTicks": 374,
          "midi": 34,
          "name": "A#1",
          "ticks": 61056,
          "time": 149.0625,
          "velocity": 0.6614173228346457
        },
        {
          "duration": 1.7578125,
          "durationTicks": 720,
          "midi": 39,
          "name": "D#2",
          "ticks": 61440,
          "time": 150,
          "velocity": 0.6456692913385826
        },
        {
          "duration": 1.7578125,
          "durationTicks": 720,
          "midi": 37,
          "name": "C#2",
          "ticks": 62208,
          "time": 151.875,
          "velocity": 0.5984251968503937
        },
        {
          "duration": 1.7578125,
          "durationTicks": 720,
          "midi": 39,
          "name": "D#2",
          "ticks": 62976,
          "time": 153.75,
          "velocity": 0.6299212598425197
        },
        {
          "duration": 0.92529296875,
          "durationTicks": 379,
          "midi": 35,
          "name": "B1",
          "ticks": 63744,
          "time": 155.625,
          "velocity": 0.6614173228346457
        },
        {
          "duration": 0.9130859375,
          "durationTicks": 374,
          "midi": 34,
          "name": "A#1",
          "ticks": 64128,
          "time": 156.5625,
          "velocity": 0.6771653543307087
        },
        {
          "duration": 0.15380859375,
          "durationTicks": 63,
          "midi": 39,
          "name": "D#2",
          "ticks": 64512,
          "time": 157.5,
          "velocity": 0.6929133858267716
        },
        {
          "duration": 0.15625,
          "durationTicks": 64,
          "midi": 39,
          "name": "D#2",
          "ticks": 64608,
          "time": 157.734375,
          "velocity": 0.6929133858267716
        },
        {
          "duration": 0.15869140625,
          "durationTicks": 65,
          "midi": 34,
          "name": "A#1",
          "ticks": 64704,
          "time": 157.96875,
          "velocity": 0.7086614173228346
        },
        {
          "duration": 0.37109375,
          "durationTicks": 152,
          "midi": 37,
          "name": "C#2",
          "ticks": 64800,
          "time": 158.203125,
          "velocity": 0.6771653543307087
        },
        {
          "duration": 0.11962890625,
          "durationTicks": 49,
          "midi": 37,
          "name": "C#2",
          "ticks": 64992,
          "time": 158.671875,
          "velocity": 0.7244094488188977
        },
        {
          "duration": 0.11474609375,
          "durationTicks": 47,
          "midi": 32,
          "name": "G#1",
          "ticks": 65088,
          "time": 158.90625,
          "velocity": 0.7086614173228346
        },
        {
          "duration": 0.10986328125,
          "durationTicks": 45,
          "midi": 37,
          "name": "C#2",
          "ticks": 65184,
          "time": 159.140625,
          "velocity": 0.7086614173228346
        },
        {
          "duration": 0.1220703125,
          "durationTicks": 50,
          "midi": 34,
          "name": "A#1",
          "ticks": 65280,
          "time": 159.375,
          "velocity": 0.7086614173228346
        },
        {
          "duration": 0.107421875,
          "durationTicks": 44,
          "midi": 37,
          "name": "C#2",
          "ticks": 65376,
          "time": 159.609375,
          "velocity": 0.6771653543307087
        },
        {
          "duration": 0.1171875,
          "durationTicks": 48,
          "midi": 34,
          "name": "A#1",
          "ticks": 65472,
          "time": 159.84375,
          "velocity": 0.7086614173228346
        },
        {
          "duration": 0.34912109375,
          "durationTicks": 143,
          "midi": 39,
          "name": "D#2",
          "ticks": 65568,
          "time": 160.078125,
          "velocity": 0.6771653543307087
        },
        {
          "duration": 0.15380859375,
          "durationTicks": 63,
          "midi": 39,
          "name": "D#2",
          "ticks": 65760,
          "time": 160.546875,
          "velocity": 0.6929133858267716
        },
        {
          "duration": 0.13916015625,
          "durationTicks": 57,
          "midi": 34,
          "name": "A#1",
          "ticks": 65856,
          "time": 160.78125,
          "velocity": 0.6929133858267716
        },
        {
          "duration": 0.15869140625,
          "durationTicks": 65,
          "midi": 37,
          "name": "C#2",
          "ticks": 65952,
          "time": 161.015625,
          "velocity": 0.7401574803149606
        },
        {
          "duration": 0.15380859375,
          "durationTicks": 63,
          "midi": 39,
          "name": "D#2",
          "ticks": 66048,
          "time": 161.25,
          "velocity": 0.7401574803149606
        },
        {
          "duration": 0.15625,
          "durationTicks": 64,
          "midi": 34,
          "name": "A#1",
          "ticks": 66144,
          "time": 161.484375,
          "velocity": 0.7244094488188977
        },
        {
          "duration": 0.15869140625,
          "durationTicks": 65,
          "midi": 39,
          "name": "D#2",
          "ticks": 66240,
          "time": 161.71875,
          "velocity": 0.7244094488188977
        },
        {
          "duration": 0.37109375,
          "durationTicks": 152,
          "midi": 37,
          "name": "C#2",
          "ticks": 66336,
          "time": 161.953125,
          "velocity": 0.7086614173228346
        },
        {
          "duration": 0.11962890625,
          "durationTicks": 49,
          "midi": 37,
          "name": "C#2",
          "ticks": 66528,
          "time": 162.421875,
          "velocity": 0.7086614173228346
        },
        {
          "duration": 0.11474609375,
          "durationTicks": 47,
          "midi": 32,
          "name": "G#1",
          "ticks": 66624,
          "time": 162.65625,
          "velocity": 0.7086614173228346
        },
        {
          "duration": 0.10986328125,
          "durationTicks": 45,
          "midi": 37,
          "name": "C#2",
          "ticks": 66720,
          "time": 162.890625,
          "velocity": 0.6771653543307087
        },
        {
          "duration": 0.1220703125,
          "durationTicks": 50,
          "midi": 34,
          "name": "A#1",
          "ticks": 66816,
          "time": 163.125,
          "velocity": 0.6771653543307087
        },
        {
          "duration": 0.107421875,
          "durationTicks": 44,
          "midi": 37,
          "name": "C#2",
          "ticks": 66912,
          "time": 163.359375,
          "velocity": 0.6929133858267716
        },
        {
          "duration": 0.1171875,
          "durationTicks": 48,
          "midi": 34,
          "name": "A#1",
          "ticks": 67008,
          "time": 163.59375,
          "velocity": 0.6929133858267716
        },
        {
          "duration": 0.34912109375,
          "durationTicks": 143,
          "midi": 39,
          "name": "D#2",
          "ticks": 67104,
          "time": 163.828125,
          "velocity": 0.6771653543307087
        },
        {
          "duration": 0.15380859375,
          "durationTicks": 63,
          "midi": 39,
          "name": "D#2",
          "ticks": 67296,
          "time": 164.296875,
          "velocity": 0.6929133858267716
        },
        {
          "duration": 0.13916015625,
          "durationTicks": 57,
          "midi": 34,
          "name": "A#1",
          "ticks": 67392,
          "time": 164.53125,
          "velocity": 0.7086614173228346
        },
        {
          "duration": 0.15869140625,
          "durationTicks": 65,
          "midi": 37,
          "name": "C#2",
          "ticks": 67488,
          "time": 164.765625,
          "velocity": 0.7244094488188977
        },
        {
          "duration": 0.15380859375,
          "durationTicks": 63,
          "midi": 34,
          "name": "A#1",
          "ticks": 67584,
          "time": 165,
          "velocity": 0.6771653543307087
        },
        {
          "duration": 0.15625,
          "durationTicks": 64,
          "midi": 37,
          "name": "C#2",
          "ticks": 67680,
          "time": 165.234375,
          "velocity": 0.7086614173228346
        },
        {
          "duration": 0.15869140625,
          "durationTicks": 65,
          "midi": 34,
          "name": "A#1",
          "ticks": 67776,
          "time": 165.46875,
          "velocity": 0.6771653543307087
        },
        {
          "duration": 0.37109375,
          "durationTicks": 152,
          "midi": 39,
          "name": "D#2",
          "ticks": 67872,
          "time": 165.703125,
          "velocity": 0.7244094488188977
        },
        {
          "duration": 0.11962890625,
          "durationTicks": 49,
          "midi": 39,
          "name": "D#2",
          "ticks": 68064,
          "time": 166.171875,
          "velocity": 0.7401574803149606
        },
        {
          "duration": 0.11474609375,
          "durationTicks": 47,
          "midi": 37,
          "name": "C#2",
          "ticks": 68160,
          "time": 166.40625,
          "velocity": 0.7401574803149606
        },
        {
          "duration": 0.10986328125,
          "durationTicks": 45,
          "midi": 35,
          "name": "B1",
          "ticks": 68256,
          "time": 166.640625,
          "velocity": 0.7244094488188977
        },
        {
          "duration": 0.1220703125,
          "durationTicks": 50,
          "midi": 34,
          "name": "A#1",
          "ticks": 68352,
          "time": 166.875,
          "velocity": 0.6771653543307087
        },
        {
          "duration": 0.107421875,
          "durationTicks": 44,
          "midi": 37,
          "name": "C#2",
          "ticks": 68448,
          "time": 167.109375,
          "velocity": 0.7086614173228346
        },
        {
          "duration": 0.1171875,
          "durationTicks": 48,
          "midi": 34,
          "name": "A#1",
          "ticks": 68544,
          "time": 167.34375,
          "velocity": 0.7086614173228346
        },
        {
          "duration": 0.34912109375,
          "durationTicks": 143,
          "midi": 39,
          "name": "D#2",
          "ticks": 68640,
          "time": 167.578125,
          "velocity": 0.6929133858267716
        },
        {
          "duration": 0.15380859375,
          "durationTicks": 63,
          "midi": 39,
          "name": "D#2",
          "ticks": 68832,
          "time": 168.046875,
          "velocity": 0.6929133858267716
        },
        {
          "duration": 0.13916015625,
          "durationTicks": 57,
          "midi": 34,
          "name": "A#1",
          "ticks": 68928,
          "time": 168.28125,
          "velocity": 0.6929133858267716
        },
        {
          "duration": 0.15869140625,
          "durationTicks": 65,
          "midi": 37,
          "name": "C#2",
          "ticks": 69024,
          "time": 168.515625,
          "velocity": 0.6929133858267716
        },
        {
          "duration": 0.2001953125,
          "durationTicks": 82,
          "midi": 39,
          "name": "D#2",
          "ticks": 69120,
          "time": 168.75,
          "velocity": 0.6929133858267716
        },
        {
          "duration": 0.21728515625,
          "durationTicks": 89,
          "midi": 39,
          "name": "D#2",
          "ticks": 69216,
          "time": 168.984375,
          "velocity": 0.7401574803149606
        },
        {
          "duration": 0.21484375,
          "durationTicks": 88,
          "midi": 34,
          "name": "A#1",
          "ticks": 69312,
          "time": 169.21875,
          "velocity": 0.7007874015748031
        },
        {
          "duration": 0.2099609375,
          "durationTicks": 86,
          "midi": 39,
          "name": "D#2",
          "ticks": 69408,
          "time": 169.453125,
          "velocity": 0.7086614173228346
        },
        {
          "duration": 0.205078125,
          "durationTicks": 84,
          "midi": 38,
          "name": "D2",
          "ticks": 69504,
          "time": 169.6875,
          "velocity": 0.6929133858267716
        },
        {
          "duration": 0.2001953125,
          "durationTicks": 82,
          "midi": 38,
          "name": "D2",
          "ticks": 69600,
          "time": 169.921875,
          "velocity": 0.7007874015748031
        },
        {
          "duration": 0.19775390625,
          "durationTicks": 81,
          "midi": 34,
          "name": "A#1",
          "ticks": 69696,
          "time": 170.15625,
          "velocity": 0.7007874015748031
        },
        {
          "duration": 0.1806640625,
          "durationTicks": 74,
          "midi": 38,
          "name": "D2",
          "ticks": 69792,
          "time": 170.390625,
          "velocity": 0.7086614173228346
        },
        {
          "duration": 0.21728515625,
          "durationTicks": 89,
          "midi": 37,
          "name": "C#2",
          "ticks": 69888,
          "time": 170.625,
          "velocity": 0.6614173228346457
        },
        {
          "duration": 0.2099609375,
          "durationTicks": 86,
          "midi": 37,
          "name": "C#2",
          "ticks": 69984,
          "time": 170.859375,
          "velocity": 0.7165354330708661
        },
        {
          "duration": 0.21484375,
          "durationTicks": 88,
          "midi": 34,
          "name": "A#1",
          "ticks": 70080,
          "time": 171.09375,
          "velocity": 0.6929133858267716
        },
        {
          "duration": 0.17333984375,
          "durationTicks": 71,
          "midi": 37,
          "name": "C#2",
          "ticks": 70176,
          "time": 171.328125,
          "velocity": 0.6929133858267716
        },
        {
          "duration": 0.21484375,
          "durationTicks": 88,
          "midi": 38,
          "name": "D2",
          "ticks": 70272,
          "time": 171.5625,
          "velocity": 0.6771653543307087
        },
        {
          "duration": 0.19775390625,
          "durationTicks": 81,
          "midi": 38,
          "name": "D2",
          "ticks": 70368,
          "time": 171.796875,
          "velocity": 0.6771653543307087
        },
        {
          "duration": 0.205078125,
          "durationTicks": 84,
          "midi": 34,
          "name": "A#1",
          "ticks": 70464,
          "time": 172.03125,
          "velocity": 0.7007874015748031
        },
        {
          "duration": 0.17578125,
          "durationTicks": 72,
          "midi": 38,
          "name": "D2",
          "ticks": 70560,
          "time": 172.265625,
          "velocity": 0.6614173228346457
        },
        {
          "duration": 0.205078125,
          "durationTicks": 84,
          "midi": 39,
          "name": "D#2",
          "ticks": 70656,
          "time": 172.5,
          "velocity": 0.7086614173228346
        },
        {
          "duration": 0.2001953125,
          "durationTicks": 82,
          "midi": 39,
          "name": "D#2",
          "ticks": 70752,
          "time": 172.734375,
          "velocity": 0.7007874015748031
        },
        {
          "duration": 0.21484375,
          "durationTicks": 88,
          "midi": 34,
          "name": "A#1",
          "ticks": 70848,
          "time": 172.96875,
          "velocity": 0.6771653543307087
        },
        {
          "duration": 0.25634765625,
          "durationTicks": 105,
          "midi": 39,
          "name": "D#2",
          "ticks": 70944,
          "time": 173.203125,
          "velocity": 0.6929133858267716
        },
        {
          "duration": 0.21240234375,
          "durationTicks": 87,
          "midi": 37,
          "name": "C#2",
          "ticks": 71040,
          "time": 173.4375,
          "velocity": 0.7165354330708661
        },
        {
          "duration": 0.2001953125,
          "durationTicks": 82,
          "midi": 37,
          "name": "C#2",
          "ticks": 71136,
          "time": 173.671875,
          "velocity": 0.6771653543307087
        },
        {
          "duration": 0.20263671875,
          "durationTicks": 83,
          "midi": 32,
          "name": "G#1",
          "ticks": 71232,
          "time": 173.90625,
          "velocity": 0.7086614173228346
        },
        {
          "duration": 0.18310546875,
          "durationTicks": 75,
          "midi": 37,
          "name": "C#2",
          "ticks": 71328,
          "time": 174.140625,
          "velocity": 0.7244094488188977
        },
        {
          "duration": 0.205078125,
          "durationTicks": 84,
          "midi": 35,
          "name": "B1",
          "ticks": 71424,
          "time": 174.375,
          "velocity": 0.7244094488188977
        },
        {
          "duration": 0.21484375,
          "durationTicks": 88,
          "midi": 35,
          "name": "B1",
          "ticks": 71520,
          "time": 174.609375,
          "velocity": 0.7244094488188977
        },
        {
          "duration": 0.2099609375,
          "durationTicks": 86,
          "midi": 30,
          "name": "F#1",
          "ticks": 71616,
          "time": 174.84375,
          "velocity": 0.7244094488188977
        },
        {
          "duration": 0.2001953125,
          "durationTicks": 82,
          "midi": 35,
          "name": "B1",
          "ticks": 71712,
          "time": 175.078125,
          "velocity": 0.7244094488188977
        },
        {
          "duration": 0.20751953125,
          "durationTicks": 85,
          "midi": 34,
          "name": "A#1",
          "ticks": 71808,
          "time": 175.3125,
          "velocity": 0.7401574803149606
        },
        {
          "duration": 0.2099609375,
          "durationTicks": 86,
          "midi": 34,
          "name": "A#1",
          "ticks": 71904,
          "time": 175.546875,
          "velocity": 0.7086614173228346
        },
        {
          "duration": 0.19287109375,
          "durationTicks": 79,
          "midi": 29,
          "name": "F1",
          "ticks": 72000,
          "time": 175.78125,
          "velocity": 0.7007874015748031
        },
        {
          "duration": 0.21240234375,
          "durationTicks": 87,
          "midi": 34,
          "name": "A#1",
          "ticks": 72096,
          "time": 176.015625,
          "velocity": 0.6929133858267716
        },
        {
          "duration": 0.2001953125,
          "durationTicks": 82,
          "midi": 39,
          "name": "D#2",
          "ticks": 72192,
          "time": 176.25,
          "velocity": 0.6929133858267716
        },
        {
          "duration": 0.21728515625,
          "durationTicks": 89,
          "midi": 39,
          "name": "D#2",
          "ticks": 72288,
          "time": 176.484375,
          "velocity": 0.6929133858267716
        },
        {
          "duration": 0.1953125,
          "durationTicks": 80,
          "midi": 34,
          "name": "A#1",
          "ticks": 72384,
          "time": 176.71875,
          "velocity": 0.7007874015748031
        },
        {
          "duration": 0.2099609375,
          "durationTicks": 86,
          "midi": 39,
          "name": "D#2",
          "ticks": 72480,
          "time": 176.953125,
          "velocity": 0.7007874015748031
        },
        {
          "duration": 0.205078125,
          "durationTicks": 84,
          "midi": 38,
          "name": "D2",
          "ticks": 72576,
          "time": 177.1875,
          "velocity": 0.7086614173228346
        },
        {
          "duration": 0.2001953125,
          "durationTicks": 82,
          "midi": 38,
          "name": "D2",
          "ticks": 72672,
          "time": 177.421875,
          "velocity": 0.7007874015748031
        },
        {
          "duration": 0.19775390625,
          "durationTicks": 81,
          "midi": 34,
          "name": "A#1",
          "ticks": 72768,
          "time": 177.65625,
          "velocity": 0.7007874015748031
        },
        {
          "duration": 0.1806640625,
          "durationTicks": 74,
          "midi": 38,
          "name": "D2",
          "ticks": 72864,
          "time": 177.890625,
          "velocity": 0.7086614173228346
        },
        {
          "duration": 0.21728515625,
          "durationTicks": 89,
          "midi": 37,
          "name": "C#2",
          "ticks": 72960,
          "time": 178.125,
          "velocity": 0.6614173228346457
        },
        {
          "duration": 0.2099609375,
          "durationTicks": 86,
          "midi": 37,
          "name": "C#2",
          "ticks": 73056,
          "time": 178.359375,
          "velocity": 0.7165354330708661
        },
        {
          "duration": 0.1953125,
          "durationTicks": 80,
          "midi": 34,
          "name": "A#1",
          "ticks": 73152,
          "time": 178.59375,
          "velocity": 0.7086614173228346
        },
        {
          "duration": 0.17333984375,
          "durationTicks": 71,
          "midi": 37,
          "name": "C#2",
          "ticks": 73248,
          "time": 178.828125,
          "velocity": 0.7480314960629921
        },
        {
          "duration": 0.21484375,
          "durationTicks": 88,
          "midi": 38,
          "name": "D2",
          "ticks": 73344,
          "time": 179.0625,
          "velocity": 0.6929133858267716
        },
        {
          "duration": 0.19775390625,
          "durationTicks": 81,
          "midi": 38,
          "name": "D2",
          "ticks": 73440,
          "time": 179.296875,
          "velocity": 0.7244094488188977
        },
        {
          "duration": 0.205078125,
          "durationTicks": 84,
          "midi": 34,
          "name": "A#1",
          "ticks": 73536,
          "time": 179.53125,
          "velocity": 0.7007874015748031
        },
        {
          "duration": 0.17578125,
          "durationTicks": 72,
          "midi": 38,
          "name": "D2",
          "ticks": 73632,
          "time": 179.765625,
          "velocity": 0.7244094488188977
        },
        {
          "duration": 0.205078125,
          "durationTicks": 84,
          "midi": 39,
          "name": "D#2",
          "ticks": 73728,
          "time": 180,
          "velocity": 0.7086614173228346
        },
        {
          "duration": 0.2001953125,
          "durationTicks": 82,
          "midi": 39,
          "name": "D#2",
          "ticks": 73824,
          "time": 180.234375,
          "velocity": 0.7007874015748031
        },
        {
          "duration": 0.21484375,
          "durationTicks": 88,
          "midi": 34,
          "name": "A#1",
          "ticks": 73920,
          "time": 180.46875,
          "velocity": 0.7244094488188977
        },
        {
          "duration": 0.1953125,
          "durationTicks": 80,
          "midi": 39,
          "name": "D#2",
          "ticks": 74016,
          "time": 180.703125,
          "velocity": 0.7244094488188977
        },
        {
          "duration": 0.21240234375,
          "durationTicks": 87,
          "midi": 37,
          "name": "C#2",
          "ticks": 74112,
          "time": 180.9375,
          "velocity": 0.7244094488188977
        },
        {
          "duration": 0.2001953125,
          "durationTicks": 82,
          "midi": 37,
          "name": "C#2",
          "ticks": 74208,
          "time": 181.171875,
          "velocity": 0.7244094488188977
        },
        {
          "duration": 0.20263671875,
          "durationTicks": 83,
          "midi": 32,
          "name": "G#1",
          "ticks": 74304,
          "time": 181.40625,
          "velocity": 0.7244094488188977
        },
        {
          "duration": 0.18310546875,
          "durationTicks": 75,
          "midi": 37,
          "name": "C#2",
          "ticks": 74400,
          "time": 181.640625,
          "velocity": 0.7244094488188977
        },
        {
          "duration": 0.205078125,
          "durationTicks": 84,
          "midi": 35,
          "name": "B1",
          "ticks": 74496,
          "time": 181.875,
          "velocity": 0.7244094488188977
        },
        {
          "duration": 0.21484375,
          "durationTicks": 88,
          "midi": 35,
          "name": "B1",
          "ticks": 74592,
          "time": 182.109375,
          "velocity": 0.7086614173228346
        },
        {
          "duration": 0.2099609375,
          "durationTicks": 86,
          "midi": 30,
          "name": "F#1",
          "ticks": 74688,
          "time": 182.34375,
          "velocity": 0.7007874015748031
        },
        {
          "duration": 0.2001953125,
          "durationTicks": 82,
          "midi": 35,
          "name": "B1",
          "ticks": 74784,
          "time": 182.578125,
          "velocity": 0.7244094488188977
        },
        {
          "duration": 0.20751953125,
          "durationTicks": 85,
          "midi": 34,
          "name": "A#1",
          "ticks": 74880,
          "time": 182.8125,
          "velocity": 0.7401574803149606
        },
        {
          "duration": 0.2099609375,
          "durationTicks": 86,
          "midi": 34,
          "name": "A#1",
          "ticks": 74976,
          "time": 183.046875,
          "velocity": 0.6929133858267716
        },
        {
          "duration": 0.19287109375,
          "durationTicks": 79,
          "midi": 29,
          "name": "F1",
          "ticks": 75072,
          "time": 183.28125,
          "velocity": 0.7007874015748031
        },
        {
          "duration": 0.21240234375,
          "durationTicks": 87,
          "midi": 34,
          "name": "A#1",
          "ticks": 75168,
          "time": 183.515625,
          "velocity": 0.6771653543307087
        },
        {
          "duration": 0.15380859375,
          "durationTicks": 63,
          "midi": 39,
          "name": "D#2",
          "ticks": 75264,
          "time": 183.75,
          "velocity": 0.6771653543307087
        },
        {
          "duration": 0.15625,
          "durationTicks": 64,
          "midi": 39,
          "name": "D#2",
          "ticks": 75360,
          "time": 183.984375,
          "velocity": 0.6929133858267716
        },
        {
          "duration": 0.15869140625,
          "durationTicks": 65,
          "midi": 34,
          "name": "A#1",
          "ticks": 75456,
          "time": 184.21875,
          "velocity": 0.6929133858267716
        },
        {
          "duration": 0.37109375,
          "durationTicks": 152,
          "midi": 37,
          "name": "C#2",
          "ticks": 75552,
          "time": 184.453125,
          "velocity": 0.6929133858267716
        },
        {
          "duration": 0.11962890625,
          "durationTicks": 49,
          "midi": 37,
          "name": "C#2",
          "ticks": 75744,
          "time": 184.921875,
          "velocity": 0.6771653543307087
        },
        {
          "duration": 0.11474609375,
          "durationTicks": 47,
          "midi": 32,
          "name": "G#1",
          "ticks": 75840,
          "time": 185.15625,
          "velocity": 0.6929133858267716
        },
        {
          "duration": 0.10986328125,
          "durationTicks": 45,
          "midi": 37,
          "name": "C#2",
          "ticks": 75936,
          "time": 185.390625,
          "velocity": 0.6929133858267716
        },
        {
          "duration": 0.1220703125,
          "durationTicks": 50,
          "midi": 34,
          "name": "A#1",
          "ticks": 76032,
          "time": 185.625,
          "velocity": 0.6929133858267716
        },
        {
          "duration": 0.107421875,
          "durationTicks": 44,
          "midi": 37,
          "name": "C#2",
          "ticks": 76128,
          "time": 185.859375,
          "velocity": 0.6614173228346457
        },
        {
          "duration": 0.1171875,
          "durationTicks": 48,
          "midi": 34,
          "name": "A#1",
          "ticks": 76224,
          "time": 186.09375,
          "velocity": 0.6062992125984252
        },
        {
          "duration": 0.34912109375,
          "durationTicks": 143,
          "midi": 39,
          "name": "D#2",
          "ticks": 76320,
          "time": 186.328125,
          "velocity": 0.6771653543307087
        },
        {
          "duration": 0.15380859375,
          "durationTicks": 63,
          "midi": 39,
          "name": "D#2",
          "ticks": 76512,
          "time": 186.796875,
          "velocity": 0.6929133858267716
        },
        {
          "duration": 0.13916015625,
          "durationTicks": 57,
          "midi": 34,
          "name": "A#1",
          "ticks": 76608,
          "time": 187.03125,
          "velocity": 0.6614173228346457
        },
        {
          "duration": 0.15869140625,
          "durationTicks": 65,
          "midi": 37,
          "name": "C#2",
          "ticks": 76704,
          "time": 187.265625,
          "velocity": 0.6614173228346457
        },
        {
          "duration": 0.15380859375,
          "durationTicks": 63,
          "midi": 39,
          "name": "D#2",
          "ticks": 76800,
          "time": 187.5,
          "velocity": 0.6771653543307087
        },
        {
          "duration": 0.15625,
          "durationTicks": 64,
          "midi": 34,
          "name": "A#1",
          "ticks": 76896,
          "time": 187.734375,
          "velocity": 0.6614173228346457
        },
        {
          "duration": 0.15869140625,
          "durationTicks": 65,
          "midi": 39,
          "name": "D#2",
          "ticks": 76992,
          "time": 187.96875,
          "velocity": 0.6771653543307087
        },
        {
          "duration": 0.37109375,
          "durationTicks": 152,
          "midi": 37,
          "name": "C#2",
          "ticks": 77088,
          "time": 188.203125,
          "velocity": 0.6771653543307087
        },
        {
          "duration": 0.11962890625,
          "durationTicks": 49,
          "midi": 37,
          "name": "C#2",
          "ticks": 77280,
          "time": 188.671875,
          "velocity": 0.6771653543307087
        },
        {
          "duration": 0.11474609375,
          "durationTicks": 47,
          "midi": 32,
          "name": "G#1",
          "ticks": 77376,
          "time": 188.90625,
          "velocity": 0.7086614173228346
        },
        {
          "duration": 0.10986328125,
          "durationTicks": 45,
          "midi": 37,
          "name": "C#2",
          "ticks": 77472,
          "time": 189.140625,
          "velocity": 0.6929133858267716
        },
        {
          "duration": 0.1220703125,
          "durationTicks": 50,
          "midi": 34,
          "name": "A#1",
          "ticks": 77568,
          "time": 189.375,
          "velocity": 0.6929133858267716
        },
        {
          "duration": 0.107421875,
          "durationTicks": 44,
          "midi": 37,
          "name": "C#2",
          "ticks": 77664,
          "time": 189.609375,
          "velocity": 0.6929133858267716
        },
        {
          "duration": 0.1171875,
          "durationTicks": 48,
          "midi": 34,
          "name": "A#1",
          "ticks": 77760,
          "time": 189.84375,
          "velocity": 0.6929133858267716
        },
        {
          "duration": 0.34912109375,
          "durationTicks": 143,
          "midi": 39,
          "name": "D#2",
          "ticks": 77856,
          "time": 190.078125,
          "velocity": 0.7401574803149606
        },
        {
          "duration": 0.15380859375,
          "durationTicks": 63,
          "midi": 39,
          "name": "D#2",
          "ticks": 78048,
          "time": 190.546875,
          "velocity": 0.6929133858267716
        },
        {
          "duration": 0.13916015625,
          "durationTicks": 57,
          "midi": 34,
          "name": "A#1",
          "ticks": 78144,
          "time": 190.78125,
          "velocity": 0.6929133858267716
        },
        {
          "duration": 0.15869140625,
          "durationTicks": 65,
          "midi": 37,
          "name": "C#2",
          "ticks": 78240,
          "time": 191.015625,
          "velocity": 0.6929133858267716
        },
        {
          "duration": 0.15380859375,
          "durationTicks": 63,
          "midi": 34,
          "name": "A#1",
          "ticks": 78336,
          "time": 191.25,
          "velocity": 0.6771653543307087
        },
        {
          "duration": 0.15625,
          "durationTicks": 64,
          "midi": 37,
          "name": "C#2",
          "ticks": 78432,
          "time": 191.484375,
          "velocity": 0.7086614173228346
        },
        {
          "duration": 0.15869140625,
          "durationTicks": 65,
          "midi": 34,
          "name": "A#1",
          "ticks": 78528,
          "time": 191.71875,
          "velocity": 0.7244094488188977
        },
        {
          "duration": 0.37109375,
          "durationTicks": 152,
          "midi": 39,
          "name": "D#2",
          "ticks": 78624,
          "time": 191.953125,
          "velocity": 0.7086614173228346
        },
        {
          "duration": 0.11962890625,
          "durationTicks": 49,
          "midi": 39,
          "name": "D#2",
          "ticks": 78816,
          "time": 192.421875,
          "velocity": 0.7086614173228346
        },
        {
          "duration": 0.11474609375,
          "durationTicks": 47,
          "midi": 37,
          "name": "C#2",
          "ticks": 78912,
          "time": 192.65625,
          "velocity": 0.6929133858267716
        },
        {
          "duration": 0.10986328125,
          "durationTicks": 45,
          "midi": 35,
          "name": "B1",
          "ticks": 79008,
          "time": 192.890625,
          "velocity": 0.7244094488188977
        },
        {
          "duration": 0.1220703125,
          "durationTicks": 50,
          "midi": 34,
          "name": "A#1",
          "ticks": 79104,
          "time": 193.125,
          "velocity": 0.7244094488188977
        },
        {
          "duration": 0.107421875,
          "durationTicks": 44,
          "midi": 37,
          "name": "C#2",
          "ticks": 79200,
          "time": 193.359375,
          "velocity": 0.6929133858267716
        },
        {
          "duration": 0.1171875,
          "durationTicks": 48,
          "midi": 34,
          "name": "A#1",
          "ticks": 79296,
          "time": 193.59375,
          "velocity": 0.6771653543307087
        },
        {
          "duration": 0.34912109375,
          "durationTicks": 143,
          "midi": 39,
          "name": "D#2",
          "ticks": 79392,
          "time": 193.828125,
          "velocity": 0.7086614173228346
        },
        {
          "duration": 0.15380859375,
          "durationTicks": 63,
          "midi": 39,
          "name": "D#2",
          "ticks": 79584,
          "time": 194.296875,
          "velocity": 0.6929133858267716
        },
        {
          "duration": 0.13916015625,
          "durationTicks": 57,
          "midi": 34,
          "name": "A#1",
          "ticks": 79680,
          "time": 194.53125,
          "velocity": 0.6299212598425197
        },
        {
          "duration": 0.15869140625,
          "durationTicks": 65,
          "midi": 37,
          "name": "C#2",
          "ticks": 79776,
          "time": 194.765625,
          "velocity": 0.6614173228346457
        },
        {
          "duration": 0.15380859375,
          "durationTicks": 63,
          "midi": 39,
          "name": "D#2",
          "ticks": 79872,
          "time": 195,
          "velocity": 0.6929133858267716
        },
        {
          "duration": 0.15625,
          "durationTicks": 64,
          "midi": 39,
          "name": "D#2",
          "ticks": 79968,
          "time": 195.234375,
          "velocity": 0.6771653543307087
        },
        {
          "duration": 0.15869140625,
          "durationTicks": 65,
          "midi": 34,
          "name": "A#1",
          "ticks": 80064,
          "time": 195.46875,
          "velocity": 0.6929133858267716
        },
        {
          "duration": 0.37109375,
          "durationTicks": 152,
          "midi": 37,
          "name": "C#2",
          "ticks": 80160,
          "time": 195.703125,
          "velocity": 0.6771653543307087
        },
        {
          "duration": 0.11962890625,
          "durationTicks": 49,
          "midi": 37,
          "name": "C#2",
          "ticks": 80352,
          "time": 196.171875,
          "velocity": 0.6535433070866141
        },
        {
          "duration": 0.11474609375,
          "durationTicks": 47,
          "midi": 32,
          "name": "G#1",
          "ticks": 80448,
          "time": 196.40625,
          "velocity": 0.6614173228346457
        },
        {
          "duration": 0.10986328125,
          "durationTicks": 45,
          "midi": 37,
          "name": "C#2",
          "ticks": 80544,
          "time": 196.640625,
          "velocity": 0.6929133858267716
        },
        {
          "duration": 0.1220703125,
          "durationTicks": 50,
          "midi": 34,
          "name": "A#1",
          "ticks": 80640,
          "time": 196.875,
          "velocity": 0.6771653543307087
        },
        {
          "duration": 0.107421875,
          "durationTicks": 44,
          "midi": 37,
          "name": "C#2",
          "ticks": 80736,
          "time": 197.109375,
          "velocity": 0.6771653543307087
        },
        {
          "duration": 0.1171875,
          "durationTicks": 48,
          "midi": 34,
          "name": "A#1",
          "ticks": 80832,
          "time": 197.34375,
          "velocity": 0.6771653543307087
        },
        {
          "duration": 0.34912109375,
          "durationTicks": 143,
          "midi": 39,
          "name": "D#2",
          "ticks": 80928,
          "time": 197.578125,
          "velocity": 0.6929133858267716
        },
        {
          "duration": 0.15380859375,
          "durationTicks": 63,
          "midi": 39,
          "name": "D#2",
          "ticks": 81120,
          "time": 198.046875,
          "velocity": 0.6929133858267716
        },
        {
          "duration": 0.13916015625,
          "durationTicks": 57,
          "midi": 34,
          "name": "A#1",
          "ticks": 81216,
          "time": 198.28125,
          "velocity": 0.6299212598425197
        },
        {
          "duration": 0.15869140625,
          "durationTicks": 65,
          "midi": 37,
          "name": "C#2",
          "ticks": 81312,
          "time": 198.515625,
          "velocity": 0.6614173228346457
        },
        {
          "duration": 0.15380859375,
          "durationTicks": 63,
          "midi": 39,
          "name": "D#2",
          "ticks": 81408,
          "time": 198.75,
          "velocity": 0.6771653543307087
        },
        {
          "duration": 0.15625,
          "durationTicks": 64,
          "midi": 34,
          "name": "A#1",
          "ticks": 81504,
          "time": 198.984375,
          "velocity": 0.6771653543307087
        },
        {
          "duration": 0.15869140625,
          "durationTicks": 65,
          "midi": 39,
          "name": "D#2",
          "ticks": 81600,
          "time": 199.21875,
          "velocity": 0.6771653543307087
        },
        {
          "duration": 0.37109375,
          "durationTicks": 152,
          "midi": 37,
          "name": "C#2",
          "ticks": 81696,
          "time": 199.453125,
          "velocity": 0.6771653543307087
        },
        {
          "duration": 0.11962890625,
          "durationTicks": 49,
          "midi": 37,
          "name": "C#2",
          "ticks": 81888,
          "time": 199.921875,
          "velocity": 0.6535433070866141
        },
        {
          "duration": 0.11474609375,
          "durationTicks": 47,
          "midi": 32,
          "name": "G#1",
          "ticks": 81984,
          "time": 200.15625,
          "velocity": 0.6614173228346457
        },
        {
          "duration": 0.10986328125,
          "durationTicks": 45,
          "midi": 37,
          "name": "C#2",
          "ticks": 82080,
          "time": 200.390625,
          "velocity": 0.6929133858267716
        },
        {
          "duration": 0.1220703125,
          "durationTicks": 50,
          "midi": 34,
          "name": "A#1",
          "ticks": 82176,
          "time": 200.625,
          "velocity": 0.6771653543307087
        },
        {
          "duration": 0.107421875,
          "durationTicks": 44,
          "midi": 37,
          "name": "C#2",
          "ticks": 82272,
          "time": 200.859375,
          "velocity": 0.6929133858267716
        },
        {
          "duration": 0.1171875,
          "durationTicks": 48,
          "midi": 34,
          "name": "A#1",
          "ticks": 82368,
          "time": 201.09375,
          "velocity": 0.6929133858267716
        },
        {
          "duration": 0.34912109375,
          "durationTicks": 143,
          "midi": 39,
          "name": "D#2",
          "ticks": 82464,
          "time": 201.328125,
          "velocity": 0.6929133858267716
        },
        {
          "duration": 0.15380859375,
          "durationTicks": 63,
          "midi": 39,
          "name": "D#2",
          "ticks": 82656,
          "time": 201.796875,
          "velocity": 0.6929133858267716
        },
        {
          "duration": 0.13916015625,
          "durationTicks": 57,
          "midi": 34,
          "name": "A#1",
          "ticks": 82752,
          "time": 202.03125,
          "velocity": 0.6929133858267716
        },
        {
          "duration": 0.15869140625,
          "durationTicks": 65,
          "midi": 37,
          "name": "C#2",
          "ticks": 82848,
          "time": 202.265625,
          "velocity": 0.6929133858267716
        },
        {
          "duration": 0.15380859375,
          "durationTicks": 63,
          "midi": 34,
          "name": "A#1",
          "ticks": 82944,
          "time": 202.5,
          "velocity": 0.6929133858267716
        },
        {
          "duration": 0.15625,
          "durationTicks": 64,
          "midi": 37,
          "name": "C#2",
          "ticks": 83040,
          "time": 202.734375,
          "velocity": 0.6456692913385826
        },
        {
          "duration": 0.15869140625,
          "durationTicks": 65,
          "midi": 34,
          "name": "A#1",
          "ticks": 83136,
          "time": 202.96875,
          "velocity": 0.6614173228346457
        },
        {
          "duration": 0.37109375,
          "durationTicks": 152,
          "midi": 39,
          "name": "D#2",
          "ticks": 83232,
          "time": 203.203125,
          "velocity": 0.6929133858267716
        },
        {
          "duration": 0.11962890625,
          "durationTicks": 49,
          "midi": 39,
          "name": "D#2",
          "ticks": 83424,
          "time": 203.671875,
          "velocity": 0.6771653543307087
        },
        {
          "duration": 0.11474609375,
          "durationTicks": 47,
          "midi": 37,
          "name": "C#2",
          "ticks": 83520,
          "time": 203.90625,
          "velocity": 0.6771653543307087
        },
        {
          "duration": 0.10986328125,
          "durationTicks": 45,
          "midi": 35,
          "name": "B1",
          "ticks": 83616,
          "time": 204.140625,
          "velocity": 0.6929133858267716
        },
        {
          "duration": 0.1220703125,
          "durationTicks": 50,
          "midi": 34,
          "name": "A#1",
          "ticks": 83712,
          "time": 204.375,
          "velocity": 0.6771653543307087
        },
        {
          "duration": 0.107421875,
          "durationTicks": 44,
          "midi": 37,
          "name": "C#2",
          "ticks": 83808,
          "time": 204.609375,
          "velocity": 0.6614173228346457
        },
        {
          "duration": 0.1171875,
          "durationTicks": 48,
          "midi": 34,
          "name": "A#1",
          "ticks": 83904,
          "time": 204.84375,
          "velocity": 0.6614173228346457
        },
        {
          "duration": 0.34912109375,
          "durationTicks": 143,
          "midi": 39,
          "name": "D#2",
          "ticks": 84000,
          "time": 205.078125,
          "velocity": 0.6614173228346457
        },
        {
          "duration": 0.15380859375,
          "durationTicks": 63,
          "midi": 39,
          "name": "D#2",
          "ticks": 84192,
          "time": 205.546875,
          "velocity": 0.6929133858267716
        },
        {
          "duration": 0.13916015625,
          "durationTicks": 57,
          "midi": 34,
          "name": "A#1",
          "ticks": 84288,
          "time": 205.78125,
          "velocity": 0.6771653543307087
        },
        {
          "duration": 0.15869140625,
          "durationTicks": 65,
          "midi": 37,
          "name": "C#2",
          "ticks": 84384,
          "time": 206.015625,
          "velocity": 0.6771653543307087
        },
        {
          "duration": 0.15380859375,
          "durationTicks": 63,
          "midi": 39,
          "name": "D#2",
          "ticks": 84480,
          "time": 206.25,
          "velocity": 0.6771653543307087
        },
        {
          "duration": 0.15625,
          "durationTicks": 64,
          "midi": 39,
          "name": "D#2",
          "ticks": 84576,
          "time": 206.484375,
          "velocity": 0.7086614173228346
        },
        {
          "duration": 0.15869140625,
          "durationTicks": 65,
          "midi": 34,
          "name": "A#1",
          "ticks": 84672,
          "time": 206.71875,
          "velocity": 0.6929133858267716
        },
        {
          "duration": 0.37109375,
          "durationTicks": 152,
          "midi": 37,
          "name": "C#2",
          "ticks": 84768,
          "time": 206.953125,
          "velocity": 0.6929133858267716
        },
        {
          "duration": 0.11962890625,
          "durationTicks": 49,
          "midi": 37,
          "name": "C#2",
          "ticks": 84960,
          "time": 207.421875,
          "velocity": 0.6929133858267716
        },
        {
          "duration": 0.11474609375,
          "durationTicks": 47,
          "midi": 32,
          "name": "G#1",
          "ticks": 85056,
          "time": 207.65625,
          "velocity": 0.6929133858267716
        },
        {
          "duration": 0.10986328125,
          "durationTicks": 45,
          "midi": 37,
          "name": "C#2",
          "ticks": 85152,
          "time": 207.890625,
          "velocity": 0.7244094488188977
        },
        {
          "duration": 0.1220703125,
          "durationTicks": 50,
          "midi": 34,
          "name": "A#1",
          "ticks": 85248,
          "time": 208.125,
          "velocity": 0.6771653543307087
        },
        {
          "duration": 0.107421875,
          "durationTicks": 44,
          "midi": 37,
          "name": "C#2",
          "ticks": 85344,
          "time": 208.359375,
          "velocity": 0.6614173228346457
        },
        {
          "duration": 0.1171875,
          "durationTicks": 48,
          "midi": 34,
          "name": "A#1",
          "ticks": 85440,
          "time": 208.59375,
          "velocity": 0.6614173228346457
        },
        {
          "duration": 0.34912109375,
          "durationTicks": 143,
          "midi": 39,
          "name": "D#2",
          "ticks": 85536,
          "time": 208.828125,
          "velocity": 0.6614173228346457
        },
        {
          "duration": 0.15380859375,
          "durationTicks": 63,
          "midi": 39,
          "name": "D#2",
          "ticks": 85728,
          "time": 209.296875,
          "velocity": 0.7086614173228346
        },
        {
          "duration": 0.13916015625,
          "durationTicks": 57,
          "midi": 34,
          "name": "A#1",
          "ticks": 85824,
          "time": 209.53125,
          "velocity": 0.6771653543307087
        },
        {
          "duration": 0.15869140625,
          "durationTicks": 65,
          "midi": 37,
          "name": "C#2",
          "ticks": 85920,
          "time": 209.765625,
          "velocity": 0.7086614173228346
        },
        {
          "duration": 0.15380859375,
          "durationTicks": 63,
          "midi": 39,
          "name": "D#2",
          "ticks": 86016,
          "time": 210,
          "velocity": 0.6771653543307087
        },
        {
          "duration": 0.15625,
          "durationTicks": 64,
          "midi": 34,
          "name": "A#1",
          "ticks": 86112,
          "time": 210.234375,
          "velocity": 0.6771653543307087
        },
        {
          "duration": 0.15869140625,
          "durationTicks": 65,
          "midi": 39,
          "name": "D#2",
          "ticks": 86208,
          "time": 210.46875,
          "velocity": 0.6614173228346457
        },
        {
          "duration": 0.37109375,
          "durationTicks": 152,
          "midi": 37,
          "name": "C#2",
          "ticks": 86304,
          "time": 210.703125,
          "velocity": 0.6771653543307087
        },
        {
          "duration": 0.11962890625,
          "durationTicks": 49,
          "midi": 37,
          "name": "C#2",
          "ticks": 86496,
          "time": 211.171875,
          "velocity": 0.6614173228346457
        },
        {
          "duration": 0.11474609375,
          "durationTicks": 47,
          "midi": 32,
          "name": "G#1",
          "ticks": 86592,
          "time": 211.40625,
          "velocity": 0.6456692913385826
        },
        {
          "duration": 0.10986328125,
          "durationTicks": 45,
          "midi": 37,
          "name": "C#2",
          "ticks": 86688,
          "time": 211.640625,
          "velocity": 0.6456692913385826
        },
        {
          "duration": 0.1220703125,
          "durationTicks": 50,
          "midi": 34,
          "name": "A#1",
          "ticks": 86784,
          "time": 211.875,
          "velocity": 0.6929133858267716
        },
        {
          "duration": 0.107421875,
          "durationTicks": 44,
          "midi": 37,
          "name": "C#2",
          "ticks": 86880,
          "time": 212.109375,
          "velocity": 0.6929133858267716
        },
        {
          "duration": 0.1171875,
          "durationTicks": 48,
          "midi": 34,
          "name": "A#1",
          "ticks": 86976,
          "time": 212.34375,
          "velocity": 0.6929133858267716
        },
        {
          "duration": 0.34912109375,
          "durationTicks": 143,
          "midi": 39,
          "name": "D#2",
          "ticks": 87072,
          "time": 212.578125,
          "velocity": 0.6771653543307087
        },
        {
          "duration": 0.15380859375,
          "durationTicks": 63,
          "midi": 39,
          "name": "D#2",
          "ticks": 87264,
          "time": 213.046875,
          "velocity": 0.7244094488188977
        },
        {
          "duration": 0.13916015625,
          "durationTicks": 57,
          "midi": 34,
          "name": "A#1",
          "ticks": 87360,
          "time": 213.28125,
          "velocity": 0.7244094488188977
        },
        {
          "duration": 0.15869140625,
          "durationTicks": 65,
          "midi": 37,
          "name": "C#2",
          "ticks": 87456,
          "time": 213.515625,
          "velocity": 0.6929133858267716
        },
        {
          "duration": 0.15380859375,
          "durationTicks": 63,
          "midi": 34,
          "name": "A#1",
          "ticks": 87552,
          "time": 213.75,
          "velocity": 0.7086614173228346
        },
        {
          "duration": 0.15625,
          "durationTicks": 64,
          "midi": 37,
          "name": "C#2",
          "ticks": 87648,
          "time": 213.984375,
          "velocity": 0.6771653543307087
        },
        {
          "duration": 0.15869140625,
          "durationTicks": 65,
          "midi": 34,
          "name": "A#1",
          "ticks": 87744,
          "time": 214.21875,
          "velocity": 0.6614173228346457
        },
        {
          "duration": 0.37109375,
          "durationTicks": 152,
          "midi": 39,
          "name": "D#2",
          "ticks": 87840,
          "time": 214.453125,
          "velocity": 0.6929133858267716
        },
        {
          "duration": 0.11962890625,
          "durationTicks": 49,
          "midi": 39,
          "name": "D#2",
          "ticks": 88032,
          "time": 214.921875,
          "velocity": 0.6535433070866141
        },
        {
          "duration": 0.11474609375,
          "durationTicks": 47,
          "midi": 37,
          "name": "C#2",
          "ticks": 88128,
          "time": 215.15625,
          "velocity": 0.6771653543307087
        },
        {
          "duration": 0.10986328125,
          "durationTicks": 45,
          "midi": 35,
          "name": "B1",
          "ticks": 88224,
          "time": 215.390625,
          "velocity": 0.6614173228346457
        },
        {
          "duration": 0.1220703125,
          "durationTicks": 50,
          "midi": 34,
          "name": "A#1",
          "ticks": 88320,
          "time": 215.625,
          "velocity": 0.6771653543307087
        },
        {
          "duration": 0.107421875,
          "durationTicks": 44,
          "midi": 37,
          "name": "C#2",
          "ticks": 88416,
          "time": 215.859375,
          "velocity": 0.6614173228346457
        },
        {
          "duration": 0.1171875,
          "durationTicks": 48,
          "midi": 34,
          "name": "A#1",
          "ticks": 88512,
          "time": 216.09375,
          "velocity": 0.6614173228346457
        },
        {
          "duration": 0.34912109375,
          "durationTicks": 143,
          "midi": 39,
          "name": "D#2",
          "ticks": 88608,
          "time": 216.328125,
          "velocity": 0.6771653543307087
        },
        {
          "duration": 0.15380859375,
          "durationTicks": 63,
          "midi": 39,
          "name": "D#2",
          "ticks": 88800,
          "time": 216.796875,
          "velocity": 0.6929133858267716
        },
        {
          "duration": 0.13916015625,
          "durationTicks": 57,
          "midi": 34,
          "name": "A#1",
          "ticks": 88896,
          "time": 217.03125,
          "velocity": 0.6299212598425197
        },
        {
          "duration": 0.15869140625,
          "durationTicks": 65,
          "midi": 37,
          "name": "C#2",
          "ticks": 88992,
          "time": 217.265625,
          "velocity": 0.6614173228346457
        },
        {
          "duration": 0.126953125,
          "durationTicks": 52,
          "midi": 39,
          "name": "D#2",
          "ticks": 89088,
          "time": 217.5,
          "velocity": 0.6299212598425197
        },
        {
          "duration": 0.12939453125,
          "durationTicks": 53,
          "midi": 34,
          "name": "A#1",
          "ticks": 89184,
          "time": 217.734375,
          "velocity": 0.6771653543307087
        },
        {
          "duration": 0.13916015625,
          "durationTicks": 57,
          "midi": 39,
          "name": "D#2",
          "ticks": 89280,
          "time": 217.96875,
          "velocity": 0.6771653543307087
        },
        {
          "duration": 0.37841796875,
          "durationTicks": 155,
          "midi": 37,
          "name": "C#2",
          "ticks": 89376,
          "time": 218.203125,
          "velocity": 0.6929133858267716
        },
        {
          "duration": 0.15869140625,
          "durationTicks": 65,
          "midi": 37,
          "name": "C#2",
          "ticks": 89568,
          "time": 218.671875,
          "velocity": 0.6929133858267716
        },
        {
          "duration": 0.10498046875,
          "durationTicks": 43,
          "midi": 32,
          "name": "G#1",
          "ticks": 89664,
          "time": 218.90625,
          "velocity": 0.6771653543307087
        },
        {
          "duration": 0.1123046875,
          "durationTicks": 46,
          "midi": 37,
          "name": "C#2",
          "ticks": 89760,
          "time": 219.140625,
          "velocity": 0.6614173228346457
        },
        {
          "duration": 0.14892578125,
          "durationTicks": 61,
          "midi": 35,
          "name": "B1",
          "ticks": 89856,
          "time": 219.375,
          "velocity": 0.6614173228346457
        },
        {
          "duration": 0.126953125,
          "durationTicks": 52,
          "midi": 30,
          "name": "F#1",
          "ticks": 89952,
          "time": 219.609375,
          "velocity": 0.6771653543307087
        },
        {
          "duration": 0.15869140625,
          "durationTicks": 65,
          "midi": 35,
          "name": "B1",
          "ticks": 90048,
          "time": 219.84375,
          "velocity": 0.6771653543307087
        },
        {
          "duration": 0.380859375,
          "durationTicks": 156,
          "midi": 34,
          "name": "A#1",
          "ticks": 90144,
          "time": 220.078125,
          "velocity": 0.6614173228346457
        },
        {
          "duration": 0.13427734375,
          "durationTicks": 55,
          "midi": 34,
          "name": "A#1",
          "ticks": 90336,
          "time": 220.546875,
          "velocity": 0.6456692913385826
        },
        {
          "duration": 0.10498046875,
          "durationTicks": 43,
          "midi": 37,
          "name": "C#2",
          "ticks": 90432,
          "time": 220.78125,
          "velocity": 0.6614173228346457
        },
        {
          "duration": 0.1220703125,
          "durationTicks": 50,
          "midi": 34,
          "name": "A#1",
          "ticks": 90528,
          "time": 221.015625,
          "velocity": 0.6929133858267716
        },
        {
          "duration": 0.1318359375,
          "durationTicks": 54,
          "midi": 39,
          "name": "D#2",
          "ticks": 90624,
          "time": 221.25,
          "velocity": 0.7244094488188977
        },
        {
          "duration": 0.10986328125,
          "durationTicks": 45,
          "midi": 34,
          "name": "A#1",
          "ticks": 90720,
          "time": 221.484375,
          "velocity": 0.6929133858267716
        },
        {
          "duration": 0.15869140625,
          "durationTicks": 65,
          "midi": 39,
          "name": "D#2",
          "ticks": 90816,
          "time": 221.71875,
          "velocity": 0.6614173228346457
        },
        {
          "duration": 0.36376953125,
          "durationTicks": 149,
          "midi": 37,
          "name": "C#2",
          "ticks": 90912,
          "time": 221.953125,
          "velocity": 0.6456692913385826
        },
        {
          "duration": 0.17822265625,
          "durationTicks": 73,
          "midi": 37,
          "name": "C#2",
          "ticks": 91104,
          "time": 222.421875,
          "velocity": 0.6771653543307087
        },
        {
          "duration": 0.11962890625,
          "durationTicks": 49,
          "midi": 32,
          "name": "G#1",
          "ticks": 91200,
          "time": 222.65625,
          "velocity": 0.6771653543307087
        },
        {
          "duration": 0.11962890625,
          "durationTicks": 49,
          "midi": 37,
          "name": "C#2",
          "ticks": 91296,
          "time": 222.890625,
          "velocity": 0.6771653543307087
        },
        {
          "duration": 0.14892578125,
          "durationTicks": 61,
          "midi": 35,
          "name": "B1",
          "ticks": 91392,
          "time": 223.125,
          "velocity": 0.6614173228346457
        },
        {
          "duration": 0.12939453125,
          "durationTicks": 53,
          "midi": 30,
          "name": "F#1",
          "ticks": 91488,
          "time": 223.359375,
          "velocity": 0.6456692913385826
        },
        {
          "duration": 0.18798828125,
          "durationTicks": 77,
          "midi": 35,
          "name": "B1",
          "ticks": 91584,
          "time": 223.59375,
          "velocity": 0.6614173228346457
        },
        {
          "duration": 0.3466796875,
          "durationTicks": 142,
          "midi": 34,
          "name": "A#1",
          "ticks": 91680,
          "time": 223.828125,
          "velocity": 0.6929133858267716
        },
        {
          "duration": 0.1513671875,
          "durationTicks": 62,
          "midi": 34,
          "name": "A#1",
          "ticks": 91872,
          "time": 224.296875,
          "velocity": 0.6771653543307087
        },
        {
          "duration": 0.1123046875,
          "durationTicks": 46,
          "midi": 37,
          "name": "C#2",
          "ticks": 91968,
          "time": 224.53125,
          "velocity": 0.6771653543307087
        },
        {
          "duration": 0.11474609375,
          "durationTicks": 47,
          "midi": 34,
          "name": "A#1",
          "ticks": 92064,
          "time": 224.765625,
          "velocity": 0.6771653543307087
        },
        {
          "duration": 0.185546875,
          "durationTicks": 76,
          "midi": 39,
          "name": "D#2",
          "ticks": 92160,
          "time": 225,
          "velocity": 0.6771653543307087
        },
        {
          "duration": 0.1171875,
          "durationTicks": 48,
          "midi": 34,
          "name": "A#1",
          "ticks": 92256,
          "time": 225.234375,
          "velocity": 0.6614173228346457
        },
        {
          "duration": 0.14892578125,
          "durationTicks": 61,
          "midi": 39,
          "name": "D#2",
          "ticks": 92352,
          "time": 225.46875,
          "velocity": 0.6929133858267716
        },
        {
          "duration": 0.34912109375,
          "durationTicks": 143,
          "midi": 37,
          "name": "C#2",
          "ticks": 92448,
          "time": 225.703125,
          "velocity": 0.6929133858267716
        },
        {
          "duration": 0.13916015625,
          "durationTicks": 57,
          "midi": 37,
          "name": "C#2",
          "ticks": 92640,
          "time": 226.171875,
          "velocity": 0.6614173228346457
        },
        {
          "duration": 0.12939453125,
          "durationTicks": 53,
          "midi": 32,
          "name": "G#1",
          "ticks": 92736,
          "time": 226.40625,
          "velocity": 0.6929133858267716
        },
        {
          "duration": 0.14404296875,
          "durationTicks": 59,
          "midi": 37,
          "name": "C#2",
          "ticks": 92832,
          "time": 226.640625,
          "velocity": 0.6771653543307087
        },
        {
          "duration": 0.11962890625,
          "durationTicks": 49,
          "midi": 35,
          "name": "B1",
          "ticks": 92928,
          "time": 226.875,
          "velocity": 0.6771653543307087
        },
        {
          "duration": 0.1318359375,
          "durationTicks": 54,
          "midi": 30,
          "name": "F#1",
          "ticks": 93024,
          "time": 227.109375,
          "velocity": 0.6929133858267716
        },
        {
          "duration": 0.146484375,
          "durationTicks": 60,
          "midi": 35,
          "name": "B1",
          "ticks": 93120,
          "time": 227.34375,
          "velocity": 0.6929133858267716
        },
        {
          "duration": 0.31982421875,
          "durationTicks": 131,
          "midi": 34,
          "name": "A#1",
          "ticks": 93216,
          "time": 227.578125,
          "velocity": 0.6771653543307087
        },
        {
          "duration": 0.16845703125,
          "durationTicks": 69,
          "midi": 34,
          "name": "A#1",
          "ticks": 93408,
          "time": 228.046875,
          "velocity": 0.6456692913385826
        },
        {
          "duration": 0.1123046875,
          "durationTicks": 46,
          "midi": 37,
          "name": "C#2",
          "ticks": 93504,
          "time": 228.28125,
          "velocity": 0.6771653543307087
        },
        {
          "duration": 0.10986328125,
          "durationTicks": 45,
          "midi": 34,
          "name": "A#1",
          "ticks": 93600,
          "time": 228.515625,
          "velocity": 0.6771653543307087
        },
        {
          "duration": 0.15625,
          "durationTicks": 64,
          "midi": 39,
          "name": "D#2",
          "ticks": 93696,
          "time": 228.75,
          "velocity": 0.6929133858267716
        },
        {
          "duration": 0.1220703125,
          "durationTicks": 50,
          "midi": 34,
          "name": "A#1",
          "ticks": 93792,
          "time": 228.984375,
          "velocity": 0.6929133858267716
        },
        {
          "duration": 0.1416015625,
          "durationTicks": 58,
          "midi": 39,
          "name": "D#2",
          "ticks": 93888,
          "time": 229.21875,
          "velocity": 0.6771653543307087
        },
        {
          "duration": 0.3515625,
          "durationTicks": 144,
          "midi": 37,
          "name": "C#2",
          "ticks": 93984,
          "time": 229.453125,
          "velocity": 0.6771653543307087
        },
        {
          "duration": 0.22705078125,
          "durationTicks": 93,
          "midi": 37,
          "name": "C#2",
          "ticks": 94176,
          "time": 229.921875,
          "velocity": 0.6929133858267716
        },
        {
          "duration": 0.16357421875,
          "durationTicks": 67,
          "midi": 32,
          "name": "G#1",
          "ticks": 94272,
          "time": 230.15625,
          "velocity": 0.7086614173228346
        },
        {
          "duration": 0.1513671875,
          "durationTicks": 62,
          "midi": 35,
          "name": "B1",
          "ticks": 94368,
          "time": 230.390625,
          "velocity": 0.6929133858267716
        },
        {
          "duration": 0.16357421875,
          "durationTicks": 67,
          "midi": 37,
          "name": "C#2",
          "ticks": 94464,
          "time": 230.625,
          "velocity": 0.6929133858267716
        },
        {
          "duration": 0.13671875,
          "durationTicks": 56,
          "midi": 35,
          "name": "B1",
          "ticks": 94560,
          "time": 230.859375,
          "velocity": 0.6929133858267716
        },
        {
          "duration": 0.1513671875,
          "durationTicks": 62,
          "midi": 37,
          "name": "C#2",
          "ticks": 94656,
          "time": 231.09375,
          "velocity": 0.6929133858267716
        },
        {
          "duration": 0.60546875,
          "durationTicks": 248,
          "midi": 39,
          "name": "D#2",
          "ticks": 94752,
          "time": 231.328125,
          "velocity": 0.6771653543307087
        },
        {
          "duration": 0.12451171875,
          "durationTicks": 51,
          "midi": 37,
          "name": "C#2",
          "ticks": 95040,
          "time": 232.03125,
          "velocity": 0.6771653543307087
        },
        {
          "duration": 0.361328125,
          "durationTicks": 148,
          "midi": 39,
          "name": "D#2",
          "ticks": 95136,
          "time": 232.265625,
          "velocity": 0.6771653543307087
        },
        {
          "duration": 0.16845703125,
          "durationTicks": 69,
          "midi": 39,
          "name": "D#2",
          "ticks": 95328,
          "time": 232.734375,
          "velocity": 0.6771653543307087
        },
        {
          "duration": 0.11962890625,
          "durationTicks": 49,
          "midi": 34,
          "name": "A#1",
          "ticks": 95424,
          "time": 232.96875,
          "velocity": 0.6771653543307087
        },
        {
          "duration": 0.13427734375,
          "durationTicks": 55,
          "midi": 37,
          "name": "C#2",
          "ticks": 95520,
          "time": 233.203125,
          "velocity": 0.6771653543307087
        },
        {
          "duration": 0.38330078125,
          "durationTicks": 157,
          "midi": 39,
          "name": "D#2",
          "ticks": 95616,
          "time": 233.4375,
          "velocity": 0.7086614173228346
        },
        {
          "duration": 0.13916015625,
          "durationTicks": 57,
          "midi": 37,
          "name": "C#2",
          "ticks": 95808,
          "time": 233.90625,
          "velocity": 0.6929133858267716
        },
        {
          "duration": 0.36865234375,
          "durationTicks": 151,
          "midi": 39,
          "name": "D#2",
          "ticks": 95904,
          "time": 234.140625,
          "velocity": 0.6929133858267716
        },
        {
          "duration": 0.15380859375,
          "durationTicks": 63,
          "midi": 39,
          "name": "D#2",
          "ticks": 96096,
          "time": 234.609375,
          "velocity": 0.6929133858267716
        },
        {
          "duration": 0.146484375,
          "durationTicks": 60,
          "midi": 34,
          "name": "A#1",
          "ticks": 96192,
          "time": 234.84375,
          "velocity": 0.7086614173228346
        },
        {
          "duration": 0.16845703125,
          "durationTicks": 69,
          "midi": 37,
          "name": "C#2",
          "ticks": 96288,
          "time": 235.078125,
          "velocity": 0.7086614173228346
        },
        {
          "duration": 0.15380859375,
          "durationTicks": 63,
          "midi": 39,
          "name": "D#2",
          "ticks": 96384,
          "time": 235.3125,
          "velocity": 0.7244094488188977
        },
        {
          "duration": 0.15625,
          "durationTicks": 64,
          "midi": 39,
          "name": "D#2",
          "ticks": 96480,
          "time": 235.546875,
          "velocity": 0.7086614173228346
        },
        {
          "duration": 0.15869140625,
          "durationTicks": 65,
          "midi": 34,
          "name": "A#1",
          "ticks": 96576,
          "time": 235.78125,
          "velocity": 0.6614173228346457
        },
        {
          "duration": 0.37109375,
          "durationTicks": 152,
          "midi": 37,
          "name": "C#2",
          "ticks": 96672,
          "time": 236.015625,
          "velocity": 0.6771653543307087
        },
        {
          "duration": 0.11962890625,
          "durationTicks": 49,
          "midi": 37,
          "name": "C#2",
          "ticks": 96864,
          "time": 236.484375,
          "velocity": 0.6771653543307087
        },
        {
          "duration": 0.11474609375,
          "durationTicks": 47,
          "midi": 32,
          "name": "G#1",
          "ticks": 96960,
          "time": 236.71875,
          "velocity": 0.6771653543307087
        },
        {
          "duration": 0.10986328125,
          "durationTicks": 45,
          "midi": 37,
          "name": "C#2",
          "ticks": 97056,
          "time": 236.953125,
          "velocity": 0.6771653543307087
        },
        {
          "duration": 0.1220703125,
          "durationTicks": 50,
          "midi": 34,
          "name": "A#1",
          "ticks": 97152,
          "time": 237.1875,
          "velocity": 0.6929133858267716
        },
        {
          "duration": 0.107421875,
          "durationTicks": 44,
          "midi": 37,
          "name": "C#2",
          "ticks": 97248,
          "time": 237.421875,
          "velocity": 0.6929133858267716
        },
        {
          "duration": 0.1171875,
          "durationTicks": 48,
          "midi": 34,
          "name": "A#1",
          "ticks": 97344,
          "time": 237.65625,
          "velocity": 0.6929133858267716
        },
        {
          "duration": 0.34912109375,
          "durationTicks": 143,
          "midi": 39,
          "name": "D#2",
          "ticks": 97440,
          "time": 237.890625,
          "velocity": 0.6929133858267716
        },
        {
          "duration": 0.15380859375,
          "durationTicks": 63,
          "midi": 39,
          "name": "D#2",
          "ticks": 97632,
          "time": 238.359375,
          "velocity": 0.6929133858267716
        },
        {
          "duration": 0.13916015625,
          "durationTicks": 57,
          "midi": 34,
          "name": "A#1",
          "ticks": 97728,
          "time": 238.59375,
          "velocity": 0.6929133858267716
        },
        {
          "duration": 0.15869140625,
          "durationTicks": 65,
          "midi": 37,
          "name": "C#2",
          "ticks": 97824,
          "time": 238.828125,
          "velocity": 0.6929133858267716
        },
        {
          "duration": 0.15380859375,
          "durationTicks": 63,
          "midi": 39,
          "name": "D#2",
          "ticks": 97920,
          "time": 239.0625,
          "velocity": 0.6771653543307087
        },
        {
          "duration": 0.15625,
          "durationTicks": 64,
          "midi": 34,
          "name": "A#1",
          "ticks": 98016,
          "time": 239.296875,
          "velocity": 0.7086614173228346
        },
        {
          "duration": 0.15869140625,
          "durationTicks": 65,
          "midi": 39,
          "name": "D#2",
          "ticks": 98112,
          "time": 239.53125,
          "velocity": 0.7086614173228346
        },
        {
          "duration": 0.3710937499999716,
          "durationTicks": 152,
          "midi": 37,
          "name": "C#2",
          "ticks": 98208,
          "time": 239.765625,
          "velocity": 0.7086614173228346
        },
        {
          "duration": 0.11962890625002842,
          "durationTicks": 49,
          "midi": 37,
          "name": "C#2",
          "ticks": 98400,
          "time": 240.234375,
          "velocity": 0.6929133858267716
        },
        {
          "duration": 0.11474609374997158,
          "durationTicks": 47,
          "midi": 32,
          "name": "G#1",
          "ticks": 98496,
          "time": 240.46875,
          "velocity": 0.6929133858267716
        },
        {
          "duration": 0.10986328125,
          "durationTicks": 45,
          "midi": 37,
          "name": "C#2",
          "ticks": 98592,
          "time": 240.703125,
          "velocity": 0.7244094488188977
        },
        {
          "duration": 0.12207031249997158,
          "durationTicks": 50,
          "midi": 34,
          "name": "A#1",
          "ticks": 98688,
          "time": 240.9375,
          "velocity": 0.6771653543307087
        },
        {
          "duration": 0.10742187499997158,
          "durationTicks": 44,
          "midi": 37,
          "name": "C#2",
          "ticks": 98784,
          "time": 241.171875,
          "velocity": 0.7086614173228346
        },
        {
          "duration": 0.1171875,
          "durationTicks": 48,
          "midi": 34,
          "name": "A#1",
          "ticks": 98880,
          "time": 241.40625,
          "velocity": 0.6929133858267716
        },
        {
          "duration": 0.3491210937499716,
          "durationTicks": 143,
          "midi": 39,
          "name": "D#2",
          "ticks": 98976,
          "time": 241.640625,
          "velocity": 0.6929133858267716
        },
        {
          "duration": 0.15380859375,
          "durationTicks": 63,
          "midi": 39,
          "name": "D#2",
          "ticks": 99168,
          "time": 242.109375,
          "velocity": 0.6929133858267716
        },
        {
          "duration": 0.13916015625,
          "durationTicks": 57,
          "midi": 34,
          "name": "A#1",
          "ticks": 99264,
          "time": 242.34375,
          "velocity": 0.6929133858267716
        },
        {
          "duration": 0.15869140624997158,
          "durationTicks": 65,
          "midi": 37,
          "name": "C#2",
          "ticks": 99360,
          "time": 242.578125,
          "velocity": 0.6929133858267716
        },
        {
          "duration": 0.15380859375,
          "durationTicks": 63,
          "midi": 34,
          "name": "A#1",
          "ticks": 99456,
          "time": 242.8125,
          "velocity": 0.6929133858267716
        },
        {
          "duration": 0.15625000000002842,
          "durationTicks": 64,
          "midi": 37,
          "name": "C#2",
          "ticks": 99552,
          "time": 243.046875,
          "velocity": 0.6929133858267716
        },
        {
          "duration": 0.15869140624997158,
          "durationTicks": 65,
          "midi": 34,
          "name": "A#1",
          "ticks": 99648,
          "time": 243.28125,
          "velocity": 0.7244094488188977
        },
        {
          "duration": 0.3710937499999716,
          "durationTicks": 152,
          "midi": 39,
          "name": "D#2",
          "ticks": 99744,
          "time": 243.515625,
          "velocity": 0.6929133858267716
        },
        {
          "duration": 0.11962890625002842,
          "durationTicks": 49,
          "midi": 39,
          "name": "D#2",
          "ticks": 99936,
          "time": 243.984375,
          "velocity": 0.6771653543307087
        },
        {
          "duration": 0.11474609374997158,
          "durationTicks": 47,
          "midi": 37,
          "name": "C#2",
          "ticks": 100032,
          "time": 244.21875,
          "velocity": 0.6771653543307087
        },
        {
          "duration": 0.10986328125,
          "durationTicks": 45,
          "midi": 35,
          "name": "B1",
          "ticks": 100128,
          "time": 244.453125,
          "velocity": 0.7244094488188977
        },
        {
          "duration": 0.12207031249997158,
          "durationTicks": 50,
          "midi": 34,
          "name": "A#1",
          "ticks": 100224,
          "time": 244.6875,
          "velocity": 0.6771653543307087
        },
        {
          "duration": 0.10742187499997158,
          "durationTicks": 44,
          "midi": 37,
          "name": "C#2",
          "ticks": 100320,
          "time": 244.921875,
          "velocity": 0.6929133858267716
        },
        {
          "duration": 0.1171875,
          "durationTicks": 48,
          "midi": 34,
          "name": "A#1",
          "ticks": 100416,
          "time": 245.15625,
          "velocity": 0.7244094488188977
        },
        {
          "duration": 0.3491210937499716,
          "durationTicks": 143,
          "midi": 39,
          "name": "D#2",
          "ticks": 100512,
          "time": 245.390625,
          "velocity": 0.7244094488188977
        },
        {
          "duration": 0.15380859375,
          "durationTicks": 63,
          "midi": 39,
          "name": "D#2",
          "ticks": 100704,
          "time": 245.859375,
          "velocity": 0.6929133858267716
        },
        {
          "duration": 0.13916015625,
          "durationTicks": 57,
          "midi": 34,
          "name": "A#1",
          "ticks": 100800,
          "time": 246.09375,
          "velocity": 0.6929133858267716
        },
        {
          "duration": 0.15869140624997158,
          "durationTicks": 65,
          "midi": 37,
          "name": "C#2",
          "ticks": 100896,
          "time": 246.328125,
          "velocity": 0.7086614173228346
        },
        {
          "duration": 0.12695312500002842,
          "durationTicks": 52,
          "midi": 39,
          "name": "D#2",
          "ticks": 100992,
          "time": 246.5625,
          "velocity": 0.6929133858267716
        },
        {
          "duration": 0.12939453124997158,
          "durationTicks": 53,
          "midi": 34,
          "name": "A#1",
          "ticks": 101088,
          "time": 246.796875,
          "velocity": 0.7244094488188977
        },
        {
          "duration": 0.13916015625,
          "durationTicks": 57,
          "midi": 39,
          "name": "D#2",
          "ticks": 101184,
          "time": 247.03125,
          "velocity": 0.7244094488188977
        },
        {
          "duration": 0.3784179687499716,
          "durationTicks": 155,
          "midi": 37,
          "name": "C#2",
          "ticks": 101280,
          "time": 247.265625,
          "velocity": 0.7086614173228346
        },
        {
          "duration": 0.15869140624997158,
          "durationTicks": 65,
          "midi": 37,
          "name": "C#2",
          "ticks": 101472,
          "time": 247.734375,
          "velocity": 0.6929133858267716
        },
        {
          "duration": 0.10498046875002842,
          "durationTicks": 43,
          "midi": 32,
          "name": "G#1",
          "ticks": 101568,
          "time": 247.96875,
          "velocity": 0.6771653543307087
        },
        {
          "duration": 0.11230468750002842,
          "durationTicks": 46,
          "midi": 37,
          "name": "C#2",
          "ticks": 101664,
          "time": 248.203125,
          "velocity": 0.6929133858267716
        },
        {
          "duration": 0.14892578125002842,
          "durationTicks": 61,
          "midi": 35,
          "name": "B1",
          "ticks": 101760,
          "time": 248.4375,
          "velocity": 0.7322834645669292
        },
        {
          "duration": 0.12695312500002842,
          "durationTicks": 52,
          "midi": 30,
          "name": "F#1",
          "ticks": 101856,
          "time": 248.671875,
          "velocity": 0.7086614173228346
        },
        {
          "duration": 0.15869140624997158,
          "durationTicks": 65,
          "midi": 35,
          "name": "B1",
          "ticks": 101952,
          "time": 248.90625,
          "velocity": 0.6771653543307087
        },
        {
          "duration": 0.380859375,
          "durationTicks": 156,
          "midi": 34,
          "name": "A#1",
          "ticks": 102048,
          "time": 249.140625,
          "velocity": 0.7244094488188977
        },
        {
          "duration": 0.13427734375002842,
          "durationTicks": 55,
          "midi": 34,
          "name": "A#1",
          "ticks": 102240,
          "time": 249.609375,
          "velocity": 0.6929133858267716
        },
        {
          "duration": 0.10498046875002842,
          "durationTicks": 43,
          "midi": 37,
          "name": "C#2",
          "ticks": 102336,
          "time": 249.84375,
          "velocity": 0.6929133858267716
        },
        {
          "duration": 0.12207031249997158,
          "durationTicks": 50,
          "midi": 34,
          "name": "A#1",
          "ticks": 102432,
          "time": 250.078125,
          "velocity": 0.6929133858267716
        },
        {
          "duration": 0.1318359375,
          "durationTicks": 54,
          "midi": 39,
          "name": "D#2",
          "ticks": 102528,
          "time": 250.3125,
          "velocity": 0.7244094488188977
        },
        {
          "duration": 0.10986328125,
          "durationTicks": 45,
          "midi": 34,
          "name": "A#1",
          "ticks": 102624,
          "time": 250.546875,
          "velocity": 0.6929133858267716
        },
        {
          "duration": 0.15869140624997158,
          "durationTicks": 65,
          "midi": 39,
          "name": "D#2",
          "ticks": 102720,
          "time": 250.78125,
          "velocity": 0.6771653543307087
        },
        {
          "duration": 0.3637695312499716,
          "durationTicks": 149,
          "midi": 37,
          "name": "C#2",
          "ticks": 102816,
          "time": 251.015625,
          "velocity": 0.6771653543307087
        },
        {
          "duration": 0.17822265625002842,
          "durationTicks": 73,
          "midi": 37,
          "name": "C#2",
          "ticks": 103008,
          "time": 251.484375,
          "velocity": 0.6299212598425197
        },
        {
          "duration": 0.11962890625002842,
          "durationTicks": 49,
          "midi": 32,
          "name": "G#1",
          "ticks": 103104,
          "time": 251.71875,
          "velocity": 0.6535433070866141
        },
        {
          "duration": 0.11962890625002842,
          "durationTicks": 49,
          "midi": 37,
          "name": "C#2",
          "ticks": 103200,
          "time": 251.953125,
          "velocity": 0.6456692913385826
        },
        {
          "duration": 0.14892578125002842,
          "durationTicks": 61,
          "midi": 35,
          "name": "B1",
          "ticks": 103296,
          "time": 252.1875,
          "velocity": 0.6220472440944882
        },
        {
          "duration": 0.12939453124997158,
          "durationTicks": 53,
          "midi": 30,
          "name": "F#1",
          "ticks": 103392,
          "time": 252.421875,
          "velocity": 0.6456692913385826
        },
        {
          "duration": 0.18798828124997158,
          "durationTicks": 77,
          "midi": 35,
          "name": "B1",
          "ticks": 103488,
          "time": 252.65625,
          "velocity": 0.6456692913385826
        },
        {
          "duration": 0.3466796875000284,
          "durationTicks": 142,
          "midi": 34,
          "name": "A#1",
          "ticks": 103584,
          "time": 252.890625,
          "velocity": 0.6929133858267716
        },
        {
          "duration": 0.15136718749997158,
          "durationTicks": 62,
          "midi": 34,
          "name": "A#1",
          "ticks": 103776,
          "time": 253.359375,
          "velocity": 0.6614173228346457
        },
        {
          "duration": 0.11230468750002842,
          "durationTicks": 46,
          "midi": 37,
          "name": "C#2",
          "ticks": 103872,
          "time": 253.59375,
          "velocity": 0.7244094488188977
        },
        {
          "duration": 0.11474609374997158,
          "durationTicks": 47,
          "midi": 34,
          "name": "A#1",
          "ticks": 103968,
          "time": 253.828125,
          "velocity": 0.6771653543307087
        },
        {
          "duration": 0.18554687500002842,
          "durationTicks": 76,
          "midi": 39,
          "name": "D#2",
          "ticks": 104064,
          "time": 254.0625,
          "velocity": 0.6929133858267716
        },
        {
          "duration": 0.1171875,
          "durationTicks": 48,
          "midi": 34,
          "name": "A#1",
          "ticks": 104160,
          "time": 254.296875,
          "velocity": 0.6929133858267716
        },
        {
          "duration": 0.14892578125002842,
          "durationTicks": 61,
          "midi": 39,
          "name": "D#2",
          "ticks": 104256,
          "time": 254.53125,
          "velocity": 0.6929133858267716
        },
        {
          "duration": 0.3491210937499716,
          "durationTicks": 143,
          "midi": 37,
          "name": "C#2",
          "ticks": 104352,
          "time": 254.765625,
          "velocity": 0.6771653543307087
        },
        {
          "duration": 0.13916015625,
          "durationTicks": 57,
          "midi": 37,
          "name": "C#2",
          "ticks": 104544,
          "time": 255.234375,
          "velocity": 0.7244094488188977
        },
        {
          "duration": 0.12939453124997158,
          "durationTicks": 53,
          "midi": 32,
          "name": "G#1",
          "ticks": 104640,
          "time": 255.46875,
          "velocity": 0.7086614173228346
        },
        {
          "duration": 0.14404296874997158,
          "durationTicks": 59,
          "midi": 37,
          "name": "C#2",
          "ticks": 104736,
          "time": 255.703125,
          "velocity": 0.7401574803149606
        },
        {
          "duration": 0.11962890625,
          "durationTicks": 49,
          "midi": 35,
          "name": "B1",
          "ticks": 104832,
          "time": 255.9375,
          "velocity": 0.6929133858267716
        },
        {
          "duration": 0.1318359375,
          "durationTicks": 54,
          "midi": 30,
          "name": "F#1",
          "ticks": 104928,
          "time": 256.171875,
          "velocity": 0.6771653543307087
        },
        {
          "duration": 0.146484375,
          "durationTicks": 60,
          "midi": 35,
          "name": "B1",
          "ticks": 105024,
          "time": 256.40625,
          "velocity": 0.6929133858267716
        },
        {
          "duration": 0.31982421875,
          "durationTicks": 131,
          "midi": 34,
          "name": "A#1",
          "ticks": 105120,
          "time": 256.640625,
          "velocity": 0.7244094488188977
        },
        {
          "duration": 0.16845703125,
          "durationTicks": 69,
          "midi": 34,
          "name": "A#1",
          "ticks": 105312,
          "time": 257.109375,
          "velocity": 0.7086614173228346
        },
        {
          "duration": 0.1123046875,
          "durationTicks": 46,
          "midi": 37,
          "name": "C#2",
          "ticks": 105408,
          "time": 257.34375,
          "velocity": 0.6929133858267716
        },
        {
          "duration": 0.10986328125,
          "durationTicks": 45,
          "midi": 34,
          "name": "A#1",
          "ticks": 105504,
          "time": 257.578125,
          "velocity": 0.6929133858267716
        },
        {
          "duration": 0.15625,
          "durationTicks": 64,
          "midi": 39,
          "name": "D#2",
          "ticks": 105600,
          "time": 257.8125,
          "velocity": 0.6929133858267716
        },
        {
          "duration": 0.1220703125,
          "durationTicks": 50,
          "midi": 34,
          "name": "A#1",
          "ticks": 105696,
          "time": 258.046875,
          "velocity": 0.6929133858267716
        },
        {
          "duration": 0.1416015625,
          "durationTicks": 58,
          "midi": 39,
          "name": "D#2",
          "ticks": 105792,
          "time": 258.28125,
          "velocity": 0.6771653543307087
        },
        {
          "duration": 0.3515625,
          "durationTicks": 144,
          "midi": 37,
          "name": "C#2",
          "ticks": 105888,
          "time": 258.515625,
          "velocity": 0.6929133858267716
        },
        {
          "duration": 0.22705078125,
          "durationTicks": 93,
          "midi": 37,
          "name": "C#2",
          "ticks": 106080,
          "time": 258.984375,
          "velocity": 0.6771653543307087
        },
        {
          "duration": 0.16357421875,
          "durationTicks": 67,
          "midi": 32,
          "name": "G#1",
          "ticks": 106176,
          "time": 259.21875,
          "velocity": 0.6535433070866141
        },
        {
          "duration": 0.1513671875,
          "durationTicks": 62,
          "midi": 35,
          "name": "B1",
          "ticks": 106272,
          "time": 259.453125,
          "velocity": 0.6771653543307087
        },
        {
          "duration": 0.16357421875,
          "durationTicks": 67,
          "midi": 37,
          "name": "C#2",
          "ticks": 106368,
          "time": 259.6875,
          "velocity": 0.6771653543307087
        },
        {
          "duration": 0.13671875,
          "durationTicks": 56,
          "midi": 35,
          "name": "B1",
          "ticks": 106464,
          "time": 259.921875,
          "velocity": 0.6614173228346457
        },
        {
          "duration": 0.1513671875,
          "durationTicks": 62,
          "midi": 37,
          "name": "C#2",
          "ticks": 106560,
          "time": 260.15625,
          "velocity": 0.6614173228346457
        },
        {
          "duration": 0.60546875,
          "durationTicks": 248,
          "midi": 39,
          "name": "D#2",
          "ticks": 106656,
          "time": 260.390625,
          "velocity": 0.6771653543307087
        },
        {
          "duration": 0.12451171875,
          "durationTicks": 51,
          "midi": 37,
          "name": "C#2",
          "ticks": 106944,
          "time": 261.09375,
          "velocity": 0.6771653543307087
        },
        {
          "duration": 0.361328125,
          "durationTicks": 148,
          "midi": 39,
          "name": "D#2",
          "ticks": 107040,
          "time": 261.328125,
          "velocity": 0.6614173228346457
        },
        {
          "duration": 0.16845703125,
          "durationTicks": 69,
          "midi": 39,
          "name": "D#2",
          "ticks": 107232,
          "time": 261.796875,
          "velocity": 0.6614173228346457
        },
        {
          "duration": 0.11962890625,
          "durationTicks": 49,
          "midi": 34,
          "name": "A#1",
          "ticks": 107328,
          "time": 262.03125,
          "velocity": 0.6614173228346457
        },
        {
          "duration": 0.13427734375,
          "durationTicks": 55,
          "midi": 37,
          "name": "C#2",
          "ticks": 107424,
          "time": 262.265625,
          "velocity": 0.6771653543307087
        },
        {
          "duration": 0.38330078125,
          "durationTicks": 157,
          "midi": 39,
          "name": "D#2",
          "ticks": 107520,
          "time": 262.5,
          "velocity": 0.6771653543307087
        },
        {
          "duration": 0.13916015625,
          "durationTicks": 57,
          "midi": 37,
          "name": "C#2",
          "ticks": 107712,
          "time": 262.96875,
          "velocity": 0.6771653543307087
        },
        {
          "duration": 0.36865234375,
          "durationTicks": 151,
          "midi": 39,
          "name": "D#2",
          "ticks": 107808,
          "time": 263.203125,
          "velocity": 0.6771653543307087
        },
        {
          "duration": 0.15380859375,
          "durationTicks": 63,
          "midi": 39,
          "name": "D#2",
          "ticks": 108000,
          "time": 263.671875,
          "velocity": 0.6771653543307087
        },
        {
          "duration": 0.146484375,
          "durationTicks": 60,
          "midi": 34,
          "name": "A#1",
          "ticks": 108096,
          "time": 263.90625,
          "velocity": 0.6614173228346457
        },
        {
          "duration": 0.16845703125,
          "durationTicks": 69,
          "midi": 37,
          "name": "C#2",
          "ticks": 108192,
          "time": 264.140625,
          "velocity": 0.6614173228346457
        },
        {
          "duration": 0.15380859375,
          "durationTicks": 63,
          "midi": 39,
          "name": "D#2",
          "ticks": 108288,
          "time": 264.375,
          "velocity": 0.6771653543307087
        },
        {
          "duration": 0.15625,
          "durationTicks": 64,
          "midi": 39,
          "name": "D#2",
          "ticks": 108384,
          "time": 264.609375,
          "velocity": 0.6929133858267716
        },
        {
          "duration": 0.15869140625,
          "durationTicks": 65,
          "midi": 34,
          "name": "A#1",
          "ticks": 108480,
          "time": 264.84375,
          "velocity": 0.6614173228346457
        },
        {
          "duration": 0.37109375,
          "durationTicks": 152,
          "midi": 37,
          "name": "C#2",
          "ticks": 108576,
          "time": 265.078125,
          "velocity": 0.6771653543307087
        },
        {
          "duration": 0.11962890625,
          "durationTicks": 49,
          "midi": 37,
          "name": "C#2",
          "ticks": 108768,
          "time": 265.546875,
          "velocity": 0.6535433070866141
        },
        {
          "duration": 0.11474609375,
          "durationTicks": 47,
          "midi": 32,
          "name": "G#1",
          "ticks": 108864,
          "time": 265.78125,
          "velocity": 0.6771653543307087
        },
        {
          "duration": 0.10986328125,
          "durationTicks": 45,
          "midi": 37,
          "name": "C#2",
          "ticks": 108960,
          "time": 266.015625,
          "velocity": 0.6771653543307087
        },
        {
          "duration": 0.1220703125,
          "durationTicks": 50,
          "midi": 34,
          "name": "A#1",
          "ticks": 109056,
          "time": 266.25,
          "velocity": 0.6771653543307087
        },
        {
          "duration": 0.107421875,
          "durationTicks": 44,
          "midi": 37,
          "name": "C#2",
          "ticks": 109152,
          "time": 266.484375,
          "velocity": 0.6771653543307087
        },
        {
          "duration": 0.1171875,
          "durationTicks": 48,
          "midi": 34,
          "name": "A#1",
          "ticks": 109248,
          "time": 266.71875,
          "velocity": 0.6771653543307087
        },
        {
          "duration": 0.34912109375,
          "durationTicks": 143,
          "midi": 39,
          "name": "D#2",
          "ticks": 109344,
          "time": 266.953125,
          "velocity": 0.6929133858267716
        },
        {
          "duration": 0.15380859375,
          "durationTicks": 63,
          "midi": 39,
          "name": "D#2",
          "ticks": 109536,
          "time": 267.421875,
          "velocity": 0.6929133858267716
        },
        {
          "duration": 0.13916015625,
          "durationTicks": 57,
          "midi": 34,
          "name": "A#1",
          "ticks": 109632,
          "time": 267.65625,
          "velocity": 0.7086614173228346
        },
        {
          "duration": 0.15869140625,
          "durationTicks": 65,
          "midi": 37,
          "name": "C#2",
          "ticks": 109728,
          "time": 267.890625,
          "velocity": 0.7244094488188977
        },
        {
          "duration": 0.15380859375,
          "durationTicks": 63,
          "midi": 39,
          "name": "D#2",
          "ticks": 109824,
          "time": 268.125,
          "velocity": 0.7244094488188977
        },
        {
          "duration": 0.15625,
          "durationTicks": 64,
          "midi": 34,
          "name": "A#1",
          "ticks": 109920,
          "time": 268.359375,
          "velocity": 0.7086614173228346
        },
        {
          "duration": 0.15869140625,
          "durationTicks": 65,
          "midi": 39,
          "name": "D#2",
          "ticks": 110016,
          "time": 268.59375,
          "velocity": 0.7086614173228346
        },
        {
          "duration": 0.37109375,
          "durationTicks": 152,
          "midi": 37,
          "name": "C#2",
          "ticks": 110112,
          "time": 268.828125,
          "velocity": 0.6771653543307087
        },
        {
          "duration": 0.11962890625,
          "durationTicks": 49,
          "midi": 37,
          "name": "C#2",
          "ticks": 110304,
          "time": 269.296875,
          "velocity": 0.6771653543307087
        },
        {
          "duration": 0.11474609375,
          "durationTicks": 47,
          "midi": 37,
          "name": "C#2",
          "ticks": 110400,
          "time": 269.53125,
          "velocity": 0.6929133858267716
        },
        {
          "duration": 0.1953125,
          "durationTicks": 80,
          "midi": 34,
          "name": "A#1",
          "ticks": 110592,
          "time": 270,
          "velocity": 0.6771653543307087
        },
        {
          "duration": 0.107421875,
          "durationTicks": 44,
          "midi": 37,
          "name": "C#2",
          "ticks": 110688,
          "time": 270.234375,
          "velocity": 0.6771653543307087
        },
        {
          "duration": 0.1171875,
          "durationTicks": 48,
          "midi": 34,
          "name": "A#1",
          "ticks": 110784,
          "time": 270.46875,
          "velocity": 0.6614173228346457
        },
        {
          "duration": 0.34912109375,
          "durationTicks": 143,
          "midi": 39,
          "name": "D#2",
          "ticks": 110880,
          "time": 270.703125,
          "velocity": 0.6614173228346457
        },
        {
          "duration": 0.15380859375,
          "durationTicks": 63,
          "midi": 34,
          "name": "A#1",
          "ticks": 111072,
          "time": 271.171875,
          "velocity": 0.6614173228346457
        },
        {
          "duration": 0.2490234375,
          "durationTicks": 102,
          "midi": 39,
          "name": "D#2",
          "ticks": 111168,
          "time": 271.40625,
          "velocity": 0.6929133858267716
        }
      ]
    },
    {
      "channel": 0,
      "controlChanges": {
        "0": [
          {
            "number": 0,
            "ticks": 226,
            "time": 0.5517578125,
            "value": 0
          }
        ],
        "32": [
          {
            "number": 32,
            "ticks": 228,
            "time": 0.556640625,
            "value": 0
          }
        ],
        "121": [
          {
            "number": 121,
            "ticks": 192,
            "time": 0.46875,
            "value": 0
          }
        ]
      },
      "pitchBends": [],
      "instrument": {
        "family": "piano",
        "number": 0,
        "name": "acoustic grand piano"
      },
      "name": "",
      "notes": [],
      "endOfTrackTicks": 112128
    },
    {
      "channel": 2,
      "controlChanges": {
        "6": [
          {
            "number": 6,
            "ticks": 404,
            "time": 0.9863281249999999,
            "value": 0.4409448818897638
          }
        ],
        "7": [
          {
            "number": 7,
            "ticks": 232,
            "time": 0.56640625,
            "value": 0.8346456692913385
          }
        ],
        "10": [
          {
            "number": 10,
            "ticks": 234,
            "time": 0.5712890625,
            "value": 0.5826771653543307
          }
        ],
        "11": [
          {
            "number": 11,
            "ticks": 236,
            "time": 0.576171875,
            "value": 1
          }
        ],
        "91": [
          {
            "number": 91,
            "ticks": 238,
            "time": 0.5810546875,
            "value": 1
          }
        ],
        "93": [
          {
            "number": 93,
            "ticks": 240,
            "time": 0.5859375,
            "value": 0.3543307086614173
          }
        ],
        "98": [
          {
            "number": 98,
            "ticks": 402,
            "time": 0.9814453125,
            "value": 0.25984251968503935
          }
        ],
        "99": [
          {
            "number": 99,
            "ticks": 400,
            "time": 0.9765625000000001,
            "value": 0.007874015748031496
          }
        ],
        "100": [
          {
            "number": 100,
            "ticks": 406,
            "time": 0.9912109375000001,
            "value": 1
          }
        ],
        "101": [
          {
            "number": 101,
            "ticks": 408,
            "time": 0.99609375,
            "value": 1
          }
        ]
      },
      "pitchBends": [],
      "instrument": {
        "family": "guitar",
        "number": 27,
        "name": "electric guitar (clean)"
      },
      "name": "",
      "notes": [
        {
          "duration": 0.09765625,
          "durationTicks": 40,
          "midi": 63,
          "name": "D#4",
          "ticks": 3840,
          "time": 9.375,
          "velocity": 0.968503937007874
        },
        {
          "duration": 0.107421875,
          "durationTicks": 44,
          "midi": 58,
          "name": "A#3",
          "ticks": 3984,
          "time": 9.7265625,
          "velocity": 0.6062992125984252
        },
        {
          "duration": 0.12451171875,
          "durationTicks": 51,
          "midi": 62,
          "name": "D4",
          "ticks": 4128,
          "time": 10.078125,
          "velocity": 0.8976377952755905
        },
        {
          "duration": 0.10986328125,
          "durationTicks": 45,
          "midi": 61,
          "name": "C#4",
          "ticks": 4608,
          "time": 11.25,
          "velocity": 0.8740157480314961
        },
        {
          "duration": 0.1025390625,
          "durationTicks": 42,
          "midi": 56,
          "name": "G#3",
          "ticks": 4752,
          "time": 11.6015625,
          "velocity": 0.7244094488188977
        },
        {
          "duration": 0.09765625,
          "durationTicks": 40,
          "midi": 62,
          "name": "D4",
          "ticks": 4896,
          "time": 11.953125,
          "velocity": 0.9448818897637795
        },
        {
          "duration": 0.1416015625,
          "durationTicks": 58,
          "midi": 63,
          "name": "D#4",
          "ticks": 5376,
          "time": 13.125,
          "velocity": 0.8267716535433071
        },
        {
          "duration": 0.1220703125,
          "durationTicks": 50,
          "midi": 58,
          "name": "A#3",
          "ticks": 5520,
          "time": 13.4765625,
          "velocity": 0.7007874015748031
        },
        {
          "duration": 0.1611328125,
          "durationTicks": 66,
          "midi": 61,
          "name": "C#4",
          "ticks": 5664,
          "time": 13.828125,
          "velocity": 0.8740157480314961
        },
        {
          "duration": 0.09033203125,
          "durationTicks": 37,
          "midi": 56,
          "name": "G#3",
          "ticks": 5952,
          "time": 14.53125,
          "velocity": 0.7637795275590551
        },
        {
          "duration": 0.10009765625,
          "durationTicks": 41,
          "midi": 61,
          "name": "C#4",
          "ticks": 6048,
          "time": 14.765625,
          "velocity": 0.905511811023622
        },
        {
          "duration": 0.09521484375,
          "durationTicks": 39,
          "midi": 59,
          "name": "B3",
          "ticks": 6144,
          "time": 15,
          "velocity": 0.8031496062992126
        },
        {
          "duration": 0.10498046875000178,
          "durationTicks": 43,
          "midi": 63,
          "name": "D#4",
          "ticks": 6288,
          "time": 15.3515625,
          "velocity": 0.7480314960629921
        },
        {
          "duration": 0.09521484375,
          "durationTicks": 39,
          "midi": 62,
          "name": "D4",
          "ticks": 6432,
          "time": 15.703125,
          "velocity": 0.8031496062992126
        },
        {
          "duration": 0.1123046875,
          "durationTicks": 46,
          "midi": 65,
          "name": "F4",
          "ticks": 6624,
          "time": 16.171875,
          "velocity": 0.7716535433070866
        },
        {
          "duration": 0.09765625,
          "durationTicks": 40,
          "midi": 62,
          "name": "D4",
          "ticks": 6720,
          "time": 16.40625,
          "velocity": 0.7952755905511811
        },
        {
          "duration": 0.1171875,
          "durationTicks": 48,
          "midi": 63,
          "name": "D#4",
          "ticks": 6816,
          "time": 16.640625,
          "velocity": 0.8740157480314961
        },
        {
          "duration": 0.12939453125,
          "durationTicks": 53,
          "midi": 63,
          "name": "D#4",
          "ticks": 6912,
          "time": 16.875,
          "velocity": 0.8976377952755905
        },
        {
          "duration": 0.126953125,
          "durationTicks": 52,
          "midi": 58,
          "name": "A#3",
          "ticks": 7056,
          "time": 17.2265625,
          "velocity": 0.7795275590551181
        },
        {
          "duration": 0.13427734375,
          "durationTicks": 55,
          "midi": 61,
          "name": "C#4",
          "ticks": 7200,
          "time": 17.578125,
          "velocity": 0.84251968503937
        },
        {
          "duration": 0.0830078125,
          "durationTicks": 34,
          "midi": 61,
          "name": "C#4",
          "ticks": 7392,
          "time": 18.046875,
          "velocity": 0.8582677165354331
        },
        {
          "duration": 0.10009765625,
          "durationTicks": 41,
          "midi": 56,
          "name": "G#3",
          "ticks": 7488,
          "time": 18.28125,
          "velocity": 0.7244094488188977
        },
        {
          "duration": 0.087890625,
          "durationTicks": 36,
          "midi": 61,
          "name": "C#4",
          "ticks": 7584,
          "time": 18.515625,
          "velocity": 0.7559055118110236
        },
        {
          "duration": 0.1025390625,
          "durationTicks": 42,
          "midi": 58,
          "name": "A#3",
          "ticks": 7680,
          "time": 18.75,
          "velocity": 0.7637795275590551
        },
        {
          "duration": 0.09765625,
          "durationTicks": 40,
          "midi": 61,
          "name": "C#4",
          "ticks": 7824,
          "time": 19.1015625,
          "velocity": 0.8110236220472441
        },
        {
          "duration": 0.107421875,
          "durationTicks": 44,
          "midi": 63,
          "name": "D#4",
          "ticks": 7968,
          "time": 19.453125,
          "velocity": 0.7795275590551181
        },
        {
          "duration": 0.07080078125,
          "durationTicks": 29,
          "midi": 63,
          "name": "D#4",
          "ticks": 8160,
          "time": 19.921875,
          "velocity": 0.8267716535433071
        },
        {
          "duration": 0.09765625,
          "durationTicks": 40,
          "midi": 56,
          "name": "G#3",
          "ticks": 8256,
          "time": 20.15625,
          "velocity": 0.6456692913385826
        },
        {
          "duration": 0.08544921875,
          "durationTicks": 35,
          "midi": 61,
          "name": "C#4",
          "ticks": 8352,
          "time": 20.390625,
          "velocity": 0.7401574803149606
        },
        {
          "duration": 0.087890625,
          "durationTicks": 36,
          "midi": 63,
          "name": "D#4",
          "ticks": 8448,
          "time": 20.625,
          "velocity": 0.7637795275590551
        },
        {
          "duration": 0.1025390625,
          "durationTicks": 42,
          "midi": 58,
          "name": "A#3",
          "ticks": 8592,
          "time": 20.9765625,
          "velocity": 0.7952755905511811
        },
        {
          "duration": 0.1025390625,
          "durationTicks": 42,
          "midi": 61,
          "name": "C#4",
          "ticks": 8736,
          "time": 21.328125,
          "velocity": 0.7007874015748031
        },
        {
          "duration": 0.08056640625,
          "durationTicks": 33,
          "midi": 61,
          "name": "C#4",
          "ticks": 8928,
          "time": 21.796875,
          "velocity": 0.7401574803149606
        },
        {
          "duration": 0.09033203125,
          "durationTicks": 37,
          "midi": 56,
          "name": "G#3",
          "ticks": 9024,
          "time": 22.03125,
          "velocity": 0.5984251968503937
        },
        {
          "duration": 0.09033203125,
          "durationTicks": 37,
          "midi": 61,
          "name": "C#4",
          "ticks": 9120,
          "time": 22.265625,
          "velocity": 0.7559055118110236
        },
        {
          "duration": 0.1025390625,
          "durationTicks": 42,
          "midi": 58,
          "name": "A#3",
          "ticks": 9216,
          "time": 22.5,
          "velocity": 0.7480314960629921
        },
        {
          "duration": 0.09765625,
          "durationTicks": 40,
          "midi": 61,
          "name": "C#4",
          "ticks": 9360,
          "time": 22.8515625,
          "velocity": 0.7244094488188977
        },
        {
          "duration": 0.078125,
          "durationTicks": 32,
          "midi": 63,
          "name": "D#4",
          "ticks": 9504,
          "time": 23.203125,
          "velocity": 0.7480314960629921
        },
        {
          "duration": 0.0927734375,
          "durationTicks": 38,
          "midi": 63,
          "name": "D#4",
          "ticks": 9696,
          "time": 23.671875,
          "velocity": 0.7480314960629921
        },
        {
          "duration": 0.08056640625,
          "durationTicks": 33,
          "midi": 56,
          "name": "G#3",
          "ticks": 9792,
          "time": 23.90625,
          "velocity": 0.5590551181102362
        },
        {
          "duration": 0.08544921875,
          "durationTicks": 35,
          "midi": 61,
          "name": "C#4",
          "ticks": 9888,
          "time": 24.140625,
          "velocity": 0.7401574803149606
        },
        {
          "duration": 0.10009765625,
          "durationTicks": 41,
          "midi": 58,
          "name": "A#3",
          "ticks": 9984,
          "time": 24.375,
          "velocity": 0.7401574803149606
        },
        {
          "duration": 0.10498046875,
          "durationTicks": 43,
          "midi": 61,
          "name": "C#4",
          "ticks": 10128,
          "time": 24.7265625,
          "velocity": 0.7244094488188977
        },
        {
          "duration": 0.13916015625,
          "durationTicks": 57,
          "midi": 63,
          "name": "D#4",
          "ticks": 10272,
          "time": 25.078125,
          "velocity": 0.7559055118110236
        },
        {
          "duration": 0.0927734375,
          "durationTicks": 38,
          "midi": 63,
          "name": "D#4",
          "ticks": 10464,
          "time": 25.546875,
          "velocity": 0.8110236220472441
        },
        {
          "duration": 0.09765625,
          "durationTicks": 40,
          "midi": 56,
          "name": "G#3",
          "ticks": 10560,
          "time": 25.78125,
          "velocity": 0.6614173228346457
        },
        {
          "duration": 0.087890625,
          "durationTicks": 36,
          "midi": 61,
          "name": "C#4",
          "ticks": 10656,
          "time": 26.015625,
          "velocity": 0.6929133858267716
        },
        {
          "duration": 0.1025390625,
          "durationTicks": 42,
          "midi": 58,
          "name": "A#3",
          "ticks": 10752,
          "time": 26.25,
          "velocity": 0.7795275590551181
        },
        {
          "duration": 0.09765625,
          "durationTicks": 40,
          "midi": 61,
          "name": "C#4",
          "ticks": 10896,
          "time": 26.6015625,
          "velocity": 0.8110236220472441
        },
        {
          "duration": 0.1171875,
          "durationTicks": 48,
          "midi": 63,
          "name": "D#4",
          "ticks": 11040,
          "time": 26.953125,
          "velocity": 0.7952755905511811
        },
        {
          "duration": 0.09033203125,
          "durationTicks": 37,
          "midi": 63,
          "name": "D#4",
          "ticks": 11232,
          "time": 27.421875,
          "velocity": 0.8503937007874016
        },
        {
          "duration": 0.1025390625,
          "durationTicks": 42,
          "midi": 56,
          "name": "G#3",
          "ticks": 11328,
          "time": 27.65625,
          "velocity": 0.6614173228346457
        },
        {
          "duration": 0.08544921875,
          "durationTicks": 35,
          "midi": 61,
          "name": "C#4",
          "ticks": 11424,
          "time": 27.890625,
          "velocity": 0.8267716535433071
        },
        {
          "duration": 0.12939453125,
          "durationTicks": 53,
          "midi": 63,
          "name": "D#4",
          "ticks": 11520,
          "time": 28.125,
          "velocity": 0.8976377952755905
        },
        {
          "duration": 0.126953125,
          "durationTicks": 52,
          "midi": 58,
          "name": "A#3",
          "ticks": 11664,
          "time": 28.4765625,
          "velocity": 0.7795275590551181
        },
        {
          "duration": 0.13427734375,
          "durationTicks": 55,
          "midi": 61,
          "name": "C#4",
          "ticks": 11808,
          "time": 28.828125,
          "velocity": 0.84251968503937
        },
        {
          "duration": 0.0830078125,
          "durationTicks": 34,
          "midi": 61,
          "name": "C#4",
          "ticks": 12000,
          "time": 29.296875,
          "velocity": 0.8582677165354331
        },
        {
          "duration": 0.10009765625,
          "durationTicks": 41,
          "midi": 56,
          "name": "G#3",
          "ticks": 12096,
          "time": 29.53125,
          "velocity": 0.7244094488188977
        },
        {
          "duration": 0.087890625,
          "durationTicks": 36,
          "midi": 61,
          "name": "C#4",
          "ticks": 12192,
          "time": 29.765625,
          "velocity": 0.7559055118110236
        },
        {
          "duration": 0.1025390625,
          "durationTicks": 42,
          "midi": 58,
          "name": "A#3",
          "ticks": 12288,
          "time": 30,
          "velocity": 0.7637795275590551
        },
        {
          "duration": 0.09765624999999645,
          "durationTicks": 40,
          "midi": 61,
          "name": "C#4",
          "ticks": 12432,
          "time": 30.3515625,
          "velocity": 0.8110236220472441
        },
        {
          "duration": 0.10742187500000355,
          "durationTicks": 44,
          "midi": 63,
          "name": "D#4",
          "ticks": 12576,
          "time": 30.703125,
          "velocity": 0.7795275590551181
        },
        {
          "duration": 0.07080078125000355,
          "durationTicks": 29,
          "midi": 63,
          "name": "D#4",
          "ticks": 12768,
          "time": 31.171875,
          "velocity": 0.8267716535433071
        },
        {
          "duration": 0.09765624999999645,
          "durationTicks": 40,
          "midi": 56,
          "name": "G#3",
          "ticks": 12864,
          "time": 31.40625,
          "velocity": 0.6456692913385826
        },
        {
          "duration": 0.08544921875000355,
          "durationTicks": 35,
          "midi": 61,
          "name": "C#4",
          "ticks": 12960,
          "time": 31.640625,
          "velocity": 0.7401574803149606
        },
        {
          "duration": 0.087890625,
          "durationTicks": 36,
          "midi": 63,
          "name": "D#4",
          "ticks": 13056,
          "time": 31.875,
          "velocity": 0.7637795275590551
        },
        {
          "duration": 0.1025390625,
          "durationTicks": 42,
          "midi": 58,
          "name": "A#3",
          "ticks": 13200,
          "time": 32.2265625,
          "velocity": 0.7952755905511811
        },
        {
          "duration": 0.1025390625,
          "durationTicks": 42,
          "midi": 61,
          "name": "C#4",
          "ticks": 13344,
          "time": 32.578125,
          "velocity": 0.7007874015748031
        },
        {
          "duration": 0.08056640625,
          "durationTicks": 33,
          "midi": 61,
          "name": "C#4",
          "ticks": 13536,
          "time": 33.046875,
          "velocity": 0.7401574803149606
        },
        {
          "duration": 0.09033203125,
          "durationTicks": 37,
          "midi": 56,
          "name": "G#3",
          "ticks": 13632,
          "time": 33.28125,
          "velocity": 0.5984251968503937
        },
        {
          "duration": 0.09033203125,
          "durationTicks": 37,
          "midi": 61,
          "name": "C#4",
          "ticks": 13728,
          "time": 33.515625,
          "velocity": 0.7559055118110236
        },
        {
          "duration": 0.1025390625,
          "durationTicks": 42,
          "midi": 58,
          "name": "A#3",
          "ticks": 13824,
          "time": 33.75,
          "velocity": 0.7480314960629921
        },
        {
          "duration": 0.09765625,
          "durationTicks": 40,
          "midi": 61,
          "name": "C#4",
          "ticks": 13968,
          "time": 34.1015625,
          "velocity": 0.7244094488188977
        },
        {
          "duration": 0.078125,
          "durationTicks": 32,
          "midi": 63,
          "name": "D#4",
          "ticks": 14112,
          "time": 34.453125,
          "velocity": 0.7480314960629921
        },
        {
          "duration": 0.0927734375,
          "durationTicks": 38,
          "midi": 63,
          "name": "D#4",
          "ticks": 14304,
          "time": 34.921875,
          "velocity": 0.7480314960629921
        },
        {
          "duration": 0.08056640625,
          "durationTicks": 33,
          "midi": 56,
          "name": "G#3",
          "ticks": 14400,
          "time": 35.15625,
          "velocity": 0.5590551181102362
        },
        {
          "duration": 0.08544921875,
          "durationTicks": 35,
          "midi": 61,
          "name": "C#4",
          "ticks": 14496,
          "time": 35.390625,
          "velocity": 0.7401574803149606
        },
        {
          "duration": 0.10009765625,
          "durationTicks": 41,
          "midi": 58,
          "name": "A#3",
          "ticks": 14592,
          "time": 35.625,
          "velocity": 0.7401574803149606
        },
        {
          "duration": 0.10498046875,
          "durationTicks": 43,
          "midi": 61,
          "name": "C#4",
          "ticks": 14736,
          "time": 35.9765625,
          "velocity": 0.7244094488188977
        },
        {
          "duration": 0.13916015625,
          "durationTicks": 57,
          "midi": 63,
          "name": "D#4",
          "ticks": 14880,
          "time": 36.328125,
          "velocity": 0.7559055118110236
        },
        {
          "duration": 0.0927734375,
          "durationTicks": 38,
          "midi": 63,
          "name": "D#4",
          "ticks": 15072,
          "time": 36.796875,
          "velocity": 0.8110236220472441
        },
        {
          "duration": 0.09765625,
          "durationTicks": 40,
          "midi": 56,
          "name": "G#3",
          "ticks": 15168,
          "time": 37.03125,
          "velocity": 0.6614173228346457
        },
        {
          "duration": 0.087890625,
          "durationTicks": 36,
          "midi": 61,
          "name": "C#4",
          "ticks": 15264,
          "time": 37.265625,
          "velocity": 0.6929133858267716
        },
        {
          "duration": 0.1025390625,
          "durationTicks": 42,
          "midi": 58,
          "name": "A#3",
          "ticks": 15360,
          "time": 37.5,
          "velocity": 0.7795275590551181
        },
        {
          "duration": 0.09765625,
          "durationTicks": 40,
          "midi": 61,
          "name": "C#4",
          "ticks": 15504,
          "time": 37.8515625,
          "velocity": 0.8110236220472441
        },
        {
          "duration": 0.1171875,
          "durationTicks": 48,
          "midi": 63,
          "name": "D#4",
          "ticks": 15648,
          "time": 38.203125,
          "velocity": 0.7952755905511811
        },
        {
          "duration": 0.09033203125,
          "durationTicks": 37,
          "midi": 63,
          "name": "D#4",
          "ticks": 15840,
          "time": 38.671875,
          "velocity": 0.8503937007874016
        },
        {
          "duration": 0.1025390625,
          "durationTicks": 42,
          "midi": 56,
          "name": "G#3",
          "ticks": 15936,
          "time": 38.90625,
          "velocity": 0.6614173228346457
        },
        {
          "duration": 0.08544921875,
          "durationTicks": 35,
          "midi": 61,
          "name": "C#4",
          "ticks": 16032,
          "time": 39.140625,
          "velocity": 0.8267716535433071
        },
        {
          "duration": 0.12939453125,
          "durationTicks": 53,
          "midi": 63,
          "name": "D#4",
          "ticks": 16128,
          "time": 39.375,
          "velocity": 0.8976377952755905
        },
        {
          "duration": 0.126953125,
          "durationTicks": 52,
          "midi": 58,
          "name": "A#3",
          "ticks": 16272,
          "time": 39.7265625,
          "velocity": 0.7795275590551181
        },
        {
          "duration": 0.13427734375,
          "durationTicks": 55,
          "midi": 61,
          "name": "C#4",
          "ticks": 16416,
          "time": 40.078125,
          "velocity": 0.84251968503937
        },
        {
          "duration": 0.0830078125,
          "durationTicks": 34,
          "midi": 61,
          "name": "C#4",
          "ticks": 16608,
          "time": 40.546875,
          "velocity": 0.8582677165354331
        },
        {
          "duration": 0.10009765625,
          "durationTicks": 41,
          "midi": 56,
          "name": "G#3",
          "ticks": 16704,
          "time": 40.78125,
          "velocity": 0.7244094488188977
        },
        {
          "duration": 0.087890625,
          "durationTicks": 36,
          "midi": 61,
          "name": "C#4",
          "ticks": 16800,
          "time": 41.015625,
          "velocity": 0.7559055118110236
        },
        {
          "duration": 0.1025390625,
          "durationTicks": 42,
          "midi": 58,
          "name": "A#3",
          "ticks": 16896,
          "time": 41.25,
          "velocity": 0.7637795275590551
        },
        {
          "duration": 0.09765625,
          "durationTicks": 40,
          "midi": 61,
          "name": "C#4",
          "ticks": 17040,
          "time": 41.6015625,
          "velocity": 0.8110236220472441
        },
        {
          "duration": 0.107421875,
          "durationTicks": 44,
          "midi": 63,
          "name": "D#4",
          "ticks": 17184,
          "time": 41.953125,
          "velocity": 0.7795275590551181
        },
        {
          "duration": 0.07080078125,
          "durationTicks": 29,
          "midi": 63,
          "name": "D#4",
          "ticks": 17376,
          "time": 42.421875,
          "velocity": 0.8267716535433071
        },
        {
          "duration": 0.09765625,
          "durationTicks": 40,
          "midi": 56,
          "name": "G#3",
          "ticks": 17472,
          "time": 42.65625,
          "velocity": 0.6456692913385826
        },
        {
          "duration": 0.08544921875,
          "durationTicks": 35,
          "midi": 61,
          "name": "C#4",
          "ticks": 17568,
          "time": 42.890625,
          "velocity": 0.7401574803149606
        },
        {
          "duration": 0.087890625,
          "durationTicks": 36,
          "midi": 63,
          "name": "D#4",
          "ticks": 17664,
          "time": 43.125,
          "velocity": 0.7637795275590551
        },
        {
          "duration": 0.1025390625,
          "durationTicks": 42,
          "midi": 58,
          "name": "A#3",
          "ticks": 17808,
          "time": 43.4765625,
          "velocity": 0.7952755905511811
        },
        {
          "duration": 0.1025390625,
          "durationTicks": 42,
          "midi": 61,
          "name": "C#4",
          "ticks": 17952,
          "time": 43.828125,
          "velocity": 0.7007874015748031
        },
        {
          "duration": 0.08056640625,
          "durationTicks": 33,
          "midi": 61,
          "name": "C#4",
          "ticks": 18144,
          "time": 44.296875,
          "velocity": 0.7401574803149606
        },
        {
          "duration": 0.09033203125,
          "durationTicks": 37,
          "midi": 56,
          "name": "G#3",
          "ticks": 18240,
          "time": 44.53125,
          "velocity": 0.5984251968503937
        },
        {
          "duration": 0.09033203125,
          "durationTicks": 37,
          "midi": 61,
          "name": "C#4",
          "ticks": 18336,
          "time": 44.765625,
          "velocity": 0.7559055118110236
        },
        {
          "duration": 0.1025390625,
          "durationTicks": 42,
          "midi": 58,
          "name": "A#3",
          "ticks": 18432,
          "time": 45,
          "velocity": 0.7480314960629921
        },
        {
          "duration": 0.09765625,
          "durationTicks": 40,
          "midi": 61,
          "name": "C#4",
          "ticks": 18576,
          "time": 45.3515625,
          "velocity": 0.7244094488188977
        },
        {
          "duration": 0.078125,
          "durationTicks": 32,
          "midi": 63,
          "name": "D#4",
          "ticks": 18720,
          "time": 45.703125,
          "velocity": 0.7480314960629921
        },
        {
          "duration": 0.0927734375,
          "durationTicks": 38,
          "midi": 63,
          "name": "D#4",
          "ticks": 18912,
          "time": 46.171875,
          "velocity": 0.7480314960629921
        },
        {
          "duration": 0.08056640625,
          "durationTicks": 33,
          "midi": 56,
          "name": "G#3",
          "ticks": 19008,
          "time": 46.40625,
          "velocity": 0.5590551181102362
        },
        {
          "duration": 0.08544921875,
          "durationTicks": 35,
          "midi": 61,
          "name": "C#4",
          "ticks": 19104,
          "time": 46.640625,
          "velocity": 0.7401574803149606
        },
        {
          "duration": 0.10009765625,
          "durationTicks": 41,
          "midi": 58,
          "name": "A#3",
          "ticks": 19200,
          "time": 46.875,
          "velocity": 0.7401574803149606
        },
        {
          "duration": 0.10498046875,
          "durationTicks": 43,
          "midi": 61,
          "name": "C#4",
          "ticks": 19344,
          "time": 47.2265625,
          "velocity": 0.7244094488188977
        },
        {
          "duration": 0.13916015625,
          "durationTicks": 57,
          "midi": 63,
          "name": "D#4",
          "ticks": 19488,
          "time": 47.578125,
          "velocity": 0.7559055118110236
        },
        {
          "duration": 0.0927734375,
          "durationTicks": 38,
          "midi": 63,
          "name": "D#4",
          "ticks": 19680,
          "time": 48.046875,
          "velocity": 0.8110236220472441
        },
        {
          "duration": 0.09765625,
          "durationTicks": 40,
          "midi": 56,
          "name": "G#3",
          "ticks": 19776,
          "time": 48.28125,
          "velocity": 0.6614173228346457
        },
        {
          "duration": 0.087890625,
          "durationTicks": 36,
          "midi": 61,
          "name": "C#4",
          "ticks": 19872,
          "time": 48.515625,
          "velocity": 0.6929133858267716
        },
        {
          "duration": 0.1025390625,
          "durationTicks": 42,
          "midi": 58,
          "name": "A#3",
          "ticks": 19968,
          "time": 48.75,
          "velocity": 0.7795275590551181
        },
        {
          "duration": 0.09765625,
          "durationTicks": 40,
          "midi": 61,
          "name": "C#4",
          "ticks": 20112,
          "time": 49.1015625,
          "velocity": 0.8110236220472441
        },
        {
          "duration": 0.1171875,
          "durationTicks": 48,
          "midi": 63,
          "name": "D#4",
          "ticks": 20256,
          "time": 49.453125,
          "velocity": 0.7952755905511811
        },
        {
          "duration": 0.09033203125,
          "durationTicks": 37,
          "midi": 63,
          "name": "D#4",
          "ticks": 20448,
          "time": 49.921875,
          "velocity": 0.8503937007874016
        },
        {
          "duration": 0.1025390625,
          "durationTicks": 42,
          "midi": 56,
          "name": "G#3",
          "ticks": 20544,
          "time": 50.15625,
          "velocity": 0.6614173228346457
        },
        {
          "duration": 0.08544921875,
          "durationTicks": 35,
          "midi": 61,
          "name": "C#4",
          "ticks": 20640,
          "time": 50.390625,
          "velocity": 0.8267716535433071
        },
        {
          "duration": 0.12939453125,
          "durationTicks": 53,
          "midi": 63,
          "name": "D#4",
          "ticks": 20736,
          "time": 50.625,
          "velocity": 0.8976377952755905
        },
        {
          "duration": 0.126953125,
          "durationTicks": 52,
          "midi": 58,
          "name": "A#3",
          "ticks": 20880,
          "time": 50.9765625,
          "velocity": 0.7795275590551181
        },
        {
          "duration": 0.13427734375,
          "durationTicks": 55,
          "midi": 61,
          "name": "C#4",
          "ticks": 21024,
          "time": 51.328125,
          "velocity": 0.84251968503937
        },
        {
          "duration": 0.0830078125,
          "durationTicks": 34,
          "midi": 61,
          "name": "C#4",
          "ticks": 21216,
          "time": 51.796875,
          "velocity": 0.8582677165354331
        },
        {
          "duration": 0.10009765625,
          "durationTicks": 41,
          "midi": 56,
          "name": "G#3",
          "ticks": 21312,
          "time": 52.03125,
          "velocity": 0.7244094488188977
        },
        {
          "duration": 0.087890625,
          "durationTicks": 36,
          "midi": 61,
          "name": "C#4",
          "ticks": 21408,
          "time": 52.265625,
          "velocity": 0.7559055118110236
        },
        {
          "duration": 0.1025390625,
          "durationTicks": 42,
          "midi": 58,
          "name": "A#3",
          "ticks": 21504,
          "time": 52.5,
          "velocity": 0.7637795275590551
        },
        {
          "duration": 0.09765625,
          "durationTicks": 40,
          "midi": 61,
          "name": "C#4",
          "ticks": 21648,
          "time": 52.8515625,
          "velocity": 0.8110236220472441
        },
        {
          "duration": 0.107421875,
          "durationTicks": 44,
          "midi": 63,
          "name": "D#4",
          "ticks": 21792,
          "time": 53.203125,
          "velocity": 0.7795275590551181
        },
        {
          "duration": 0.07080078125,
          "durationTicks": 29,
          "midi": 63,
          "name": "D#4",
          "ticks": 21984,
          "time": 53.671875,
          "velocity": 0.8267716535433071
        },
        {
          "duration": 0.09765625,
          "durationTicks": 40,
          "midi": 56,
          "name": "G#3",
          "ticks": 22080,
          "time": 53.90625,
          "velocity": 0.6456692913385826
        },
        {
          "duration": 0.08544921875,
          "durationTicks": 35,
          "midi": 61,
          "name": "C#4",
          "ticks": 22176,
          "time": 54.140625,
          "velocity": 0.7401574803149606
        },
        {
          "duration": 0.087890625,
          "durationTicks": 36,
          "midi": 63,
          "name": "D#4",
          "ticks": 22272,
          "time": 54.375,
          "velocity": 0.7637795275590551
        },
        {
          "duration": 0.1025390625,
          "durationTicks": 42,
          "midi": 58,
          "name": "A#3",
          "ticks": 22416,
          "time": 54.7265625,
          "velocity": 0.7952755905511811
        },
        {
          "duration": 0.1025390625,
          "durationTicks": 42,
          "midi": 61,
          "name": "C#4",
          "ticks": 22560,
          "time": 55.078125,
          "velocity": 0.7007874015748031
        },
        {
          "duration": 0.08056640625,
          "durationTicks": 33,
          "midi": 61,
          "name": "C#4",
          "ticks": 22752,
          "time": 55.546875,
          "velocity": 0.7401574803149606
        },
        {
          "duration": 0.09033203125,
          "durationTicks": 37,
          "midi": 56,
          "name": "G#3",
          "ticks": 22848,
          "time": 55.78125,
          "velocity": 0.5984251968503937
        },
        {
          "duration": 0.09033203125,
          "durationTicks": 37,
          "midi": 61,
          "name": "C#4",
          "ticks": 22944,
          "time": 56.015625,
          "velocity": 0.7559055118110236
        },
        {
          "duration": 0.1025390625,
          "durationTicks": 42,
          "midi": 58,
          "name": "A#3",
          "ticks": 23040,
          "time": 56.25,
          "velocity": 0.7480314960629921
        },
        {
          "duration": 0.09765625,
          "durationTicks": 40,
          "midi": 61,
          "name": "C#4",
          "ticks": 23184,
          "time": 56.6015625,
          "velocity": 0.7244094488188977
        },
        {
          "duration": 0.078125,
          "durationTicks": 32,
          "midi": 63,
          "name": "D#4",
          "ticks": 23328,
          "time": 56.953125,
          "velocity": 0.7480314960629921
        },
        {
          "duration": 0.0927734375,
          "durationTicks": 38,
          "midi": 63,
          "name": "D#4",
          "ticks": 23520,
          "time": 57.421875,
          "velocity": 0.7480314960629921
        },
        {
          "duration": 0.08056640625,
          "durationTicks": 33,
          "midi": 56,
          "name": "G#3",
          "ticks": 23616,
          "time": 57.65625,
          "velocity": 0.5590551181102362
        },
        {
          "duration": 0.08544921875,
          "durationTicks": 35,
          "midi": 61,
          "name": "C#4",
          "ticks": 23712,
          "time": 57.890625,
          "velocity": 0.7401574803149606
        },
        {
          "duration": 0.10009765625,
          "durationTicks": 41,
          "midi": 58,
          "name": "A#3",
          "ticks": 23808,
          "time": 58.125,
          "velocity": 0.7401574803149606
        },
        {
          "duration": 0.10498046875,
          "durationTicks": 43,
          "midi": 61,
          "name": "C#4",
          "ticks": 23952,
          "time": 58.4765625,
          "velocity": 0.7244094488188977
        },
        {
          "duration": 0.13916015625,
          "durationTicks": 57,
          "midi": 63,
          "name": "D#4",
          "ticks": 24096,
          "time": 58.828125,
          "velocity": 0.7559055118110236
        },
        {
          "duration": 0.0927734375,
          "durationTicks": 38,
          "midi": 63,
          "name": "D#4",
          "ticks": 24288,
          "time": 59.296875,
          "velocity": 0.8110236220472441
        },
        {
          "duration": 0.09765625,
          "durationTicks": 40,
          "midi": 56,
          "name": "G#3",
          "ticks": 24384,
          "time": 59.53125,
          "velocity": 0.6614173228346457
        },
        {
          "duration": 0.087890625,
          "durationTicks": 36,
          "midi": 61,
          "name": "C#4",
          "ticks": 24480,
          "time": 59.765625,
          "velocity": 0.6929133858267716
        },
        {
          "duration": 0.1025390625,
          "durationTicks": 42,
          "midi": 58,
          "name": "A#3",
          "ticks": 24576,
          "time": 60,
          "velocity": 0.7795275590551181
        },
        {
          "duration": 0.0976562500000071,
          "durationTicks": 40,
          "midi": 61,
          "name": "C#4",
          "ticks": 24720,
          "time": 60.3515625,
          "velocity": 0.8110236220472441
        },
        {
          "duration": 0.1171875,
          "durationTicks": 48,
          "midi": 63,
          "name": "D#4",
          "ticks": 24864,
          "time": 60.703125,
          "velocity": 0.7952755905511811
        },
        {
          "duration": 0.0903320312500071,
          "durationTicks": 37,
          "midi": 63,
          "name": "D#4",
          "ticks": 25056,
          "time": 61.171875,
          "velocity": 0.8503937007874016
        },
        {
          "duration": 0.1025390625,
          "durationTicks": 42,
          "midi": 56,
          "name": "G#3",
          "ticks": 25152,
          "time": 61.40625,
          "velocity": 0.6614173228346457
        },
        {
          "duration": 0.0854492187499929,
          "durationTicks": 35,
          "midi": 61,
          "name": "C#4",
          "ticks": 25248,
          "time": 61.640625,
          "velocity": 0.8267716535433071
        },
        {
          "duration": 0.1049804687500071,
          "durationTicks": 43,
          "midi": 63,
          "name": "D#4",
          "ticks": 25344,
          "time": 61.875,
          "velocity": 0.8740157480314961
        },
        {
          "duration": 0.0781249999999929,
          "durationTicks": 32,
          "midi": 58,
          "name": "A#3",
          "ticks": 25440,
          "time": 62.109375,
          "velocity": 0.6141732283464567
        },
        {
          "duration": 0.08056640625,
          "durationTicks": 33,
          "midi": 63,
          "name": "D#4",
          "ticks": 25536,
          "time": 62.34375,
          "velocity": 0.7401574803149606
        },
        {
          "duration": 0.2734375000000071,
          "durationTicks": 112,
          "midi": 61,
          "name": "C#4",
          "ticks": 25632,
          "time": 62.578125,
          "velocity": 0.6614173228346457
        },
        {
          "duration": 0.0756835937500071,
          "durationTicks": 31,
          "midi": 61,
          "name": "C#4",
          "ticks": 25824,
          "time": 63.046875,
          "velocity": 0.8267716535433071
        },
        {
          "duration": 0.0756835937500071,
          "durationTicks": 31,
          "midi": 56,
          "name": "G#3",
          "ticks": 25920,
          "time": 63.28125,
          "velocity": 0.6062992125984252
        },
        {
          "duration": 0.0781249999999929,
          "durationTicks": 32,
          "midi": 61,
          "name": "C#4",
          "ticks": 26016,
          "time": 63.515625,
          "velocity": 0.7244094488188977
        },
        {
          "duration": 0.087890625,
          "durationTicks": 36,
          "midi": 59,
          "name": "B3",
          "ticks": 26112,
          "time": 63.75,
          "velocity": 0.7007874015748031
        },
        {
          "duration": 0.0732421875,
          "durationTicks": 30,
          "midi": 54,
          "name": "F#3",
          "ticks": 26208,
          "time": 63.984375,
          "velocity": 0.7007874015748031
        },
        {
          "duration": 0.08544921875,
          "durationTicks": 35,
          "midi": 59,
          "name": "B3",
          "ticks": 26304,
          "time": 64.21875,
          "velocity": 0.6771653543307087
        },
        {
          "duration": 0.25634765625,
          "durationTicks": 105,
          "midi": 58,
          "name": "A#3",
          "ticks": 26400,
          "time": 64.453125,
          "velocity": 0.5826771653543307
        },
        {
          "duration": 0.078125,
          "durationTicks": 32,
          "midi": 58,
          "name": "A#3",
          "ticks": 26592,
          "time": 64.921875,
          "velocity": 0.6141732283464567
        },
        {
          "duration": 0.08544921875,
          "durationTicks": 35,
          "midi": 61,
          "name": "C#4",
          "ticks": 26688,
          "time": 65.15625,
          "velocity": 0.6929133858267716
        },
        {
          "duration": 0.08544921875,
          "durationTicks": 35,
          "midi": 58,
          "name": "A#3",
          "ticks": 26784,
          "time": 65.390625,
          "velocity": 0.5748031496062992
        },
        {
          "duration": 0.08056640625,
          "durationTicks": 33,
          "midi": 63,
          "name": "D#4",
          "ticks": 26880,
          "time": 65.625,
          "velocity": 0.7007874015748031
        },
        {
          "duration": 0.078125,
          "durationTicks": 32,
          "midi": 58,
          "name": "A#3",
          "ticks": 26976,
          "time": 65.859375,
          "velocity": 0.5039370078740157
        },
        {
          "duration": 0.0732421875,
          "durationTicks": 30,
          "midi": 63,
          "name": "D#4",
          "ticks": 27072,
          "time": 66.09375,
          "velocity": 0.6929133858267716
        },
        {
          "duration": 0.28076171875,
          "durationTicks": 115,
          "midi": 61,
          "name": "C#4",
          "ticks": 27168,
          "time": 66.328125,
          "velocity": 0.6062992125984252
        },
        {
          "duration": 0.07080078125,
          "durationTicks": 29,
          "midi": 61,
          "name": "C#4",
          "ticks": 27360,
          "time": 66.796875,
          "velocity": 0.6929133858267716
        },
        {
          "duration": 0.09033203125,
          "durationTicks": 37,
          "midi": 56,
          "name": "G#3",
          "ticks": 27456,
          "time": 67.03125,
          "velocity": 0.6456692913385826
        },
        {
          "duration": 0.06591796875,
          "durationTicks": 27,
          "midi": 61,
          "name": "C#4",
          "ticks": 27552,
          "time": 67.265625,
          "velocity": 0.7480314960629921
        },
        {
          "duration": 0.08544921875,
          "durationTicks": 35,
          "midi": 59,
          "name": "B3",
          "ticks": 27648,
          "time": 67.5,
          "velocity": 0.7322834645669292
        },
        {
          "duration": 0.07080078125,
          "durationTicks": 29,
          "midi": 54,
          "name": "F#3",
          "ticks": 27744,
          "time": 67.734375,
          "velocity": 0.6929133858267716
        },
        {
          "duration": 0.0927734375,
          "durationTicks": 38,
          "midi": 59,
          "name": "B3",
          "ticks": 27840,
          "time": 67.96875,
          "velocity": 0.6771653543307087
        },
        {
          "duration": 0.2880859375,
          "durationTicks": 118,
          "midi": 58,
          "name": "A#3",
          "ticks": 27936,
          "time": 68.203125,
          "velocity": 0.5984251968503937
        },
        {
          "duration": 0.0927734375,
          "durationTicks": 38,
          "midi": 58,
          "name": "A#3",
          "ticks": 28128,
          "time": 68.671875,
          "velocity": 0.6614173228346457
        },
        {
          "duration": 0.09521484375,
          "durationTicks": 39,
          "midi": 61,
          "name": "C#4",
          "ticks": 28224,
          "time": 68.90625,
          "velocity": 0.6062992125984252
        },
        {
          "duration": 0.08056640625,
          "durationTicks": 33,
          "midi": 58,
          "name": "A#3",
          "ticks": 28320,
          "time": 69.140625,
          "velocity": 0.5905511811023622
        },
        {
          "duration": 0.0927734375,
          "durationTicks": 38,
          "midi": 63,
          "name": "D#4",
          "ticks": 28416,
          "time": 69.375,
          "velocity": 0.7480314960629921
        },
        {
          "duration": 0.07080078125,
          "durationTicks": 29,
          "midi": 58,
          "name": "A#3",
          "ticks": 28512,
          "time": 69.609375,
          "velocity": 0.5511811023622047
        },
        {
          "duration": 0.09521484375,
          "durationTicks": 39,
          "midi": 63,
          "name": "D#4",
          "ticks": 28608,
          "time": 69.84375,
          "velocity": 0.8110236220472441
        },
        {
          "duration": 0.30029296875,
          "durationTicks": 123,
          "midi": 61,
          "name": "C#4",
          "ticks": 28704,
          "time": 70.078125,
          "velocity": 0.6929133858267716
        },
        {
          "duration": 0.09033203125,
          "durationTicks": 37,
          "midi": 61,
          "name": "C#4",
          "ticks": 28896,
          "time": 70.546875,
          "velocity": 0.6929133858267716
        },
        {
          "duration": 0.10009765625,
          "durationTicks": 41,
          "midi": 56,
          "name": "G#3",
          "ticks": 28992,
          "time": 70.78125,
          "velocity": 0.6062992125984252
        },
        {
          "duration": 0.126953125,
          "durationTicks": 52,
          "midi": 59,
          "name": "B3",
          "ticks": 29088,
          "time": 71.015625,
          "velocity": 0.6299212598425197
        },
        {
          "duration": 0.13427734375,
          "durationTicks": 55,
          "midi": 59,
          "name": "B3",
          "ticks": 29184,
          "time": 71.25,
          "velocity": 0.7716535433070866
        },
        {
          "duration": 0.09033203125,
          "durationTicks": 37,
          "midi": 54,
          "name": "F#3",
          "ticks": 29280,
          "time": 71.484375,
          "velocity": 0.8110236220472441
        },
        {
          "duration": 0.1220703125,
          "durationTicks": 50,
          "midi": 59,
          "name": "B3",
          "ticks": 29376,
          "time": 71.71875,
          "velocity": 0.6692913385826772
        },
        {
          "duration": 0.2685546875,
          "durationTicks": 110,
          "midi": 58,
          "name": "A#3",
          "ticks": 29472,
          "time": 71.953125,
          "velocity": 0.6299212598425197
        },
        {
          "duration": 0.07568359375,
          "durationTicks": 31,
          "midi": 58,
          "name": "A#3",
          "ticks": 29664,
          "time": 72.421875,
          "velocity": 0.6929133858267716
        },
        {
          "duration": 0.1220703125,
          "durationTicks": 50,
          "midi": 61,
          "name": "C#4",
          "ticks": 29760,
          "time": 72.65625,
          "velocity": 0.5669291338582677
        },
        {
          "duration": 0.09765625,
          "durationTicks": 40,
          "midi": 58,
          "name": "A#3",
          "ticks": 29856,
          "time": 72.890625,
          "velocity": 0.6141732283464567
        },
        {
          "duration": 0.10009765625,
          "durationTicks": 41,
          "midi": 63,
          "name": "D#4",
          "ticks": 29952,
          "time": 73.125,
          "velocity": 0.7244094488188977
        },
        {
          "duration": 0.0830078125,
          "durationTicks": 34,
          "midi": 58,
          "name": "A#3",
          "ticks": 30048,
          "time": 73.359375,
          "velocity": 0.5196850393700787
        },
        {
          "duration": 0.09521484375,
          "durationTicks": 39,
          "midi": 63,
          "name": "D#4",
          "ticks": 30144,
          "time": 73.59375,
          "velocity": 0.7480314960629921
        },
        {
          "duration": 0.283203125,
          "durationTicks": 116,
          "midi": 61,
          "name": "C#4",
          "ticks": 30240,
          "time": 73.828125,
          "velocity": 0.6141732283464567
        },
        {
          "duration": 0.107421875,
          "durationTicks": 44,
          "midi": 61,
          "name": "C#4",
          "ticks": 30432,
          "time": 74.296875,
          "velocity": 0.6535433070866141
        },
        {
          "duration": 0.09521484375,
          "durationTicks": 39,
          "midi": 56,
          "name": "G#3",
          "ticks": 30528,
          "time": 74.53125,
          "velocity": 0.6692913385826772
        },
        {
          "duration": 0.0927734375,
          "durationTicks": 38,
          "midi": 59,
          "name": "B3",
          "ticks": 30624,
          "time": 74.765625,
          "velocity": 0.7007874015748031
        },
        {
          "duration": 0.08056640625,
          "durationTicks": 33,
          "midi": 61,
          "name": "C#4",
          "ticks": 30720,
          "time": 75,
          "velocity": 0.6850393700787402
        },
        {
          "duration": 0.08056640625,
          "durationTicks": 33,
          "midi": 59,
          "name": "B3",
          "ticks": 30816,
          "time": 75.234375,
          "velocity": 0.6614173228346457
        },
        {
          "duration": 0.0732421875,
          "durationTicks": 30,
          "midi": 61,
          "name": "C#4",
          "ticks": 30912,
          "time": 75.46875,
          "velocity": 0.6692913385826772
        },
        {
          "duration": 0.400390625,
          "durationTicks": 164,
          "midi": 63,
          "name": "D#4",
          "ticks": 31008,
          "time": 75.703125,
          "velocity": 0.6614173228346457
        },
        {
          "duration": 0.08056640625,
          "durationTicks": 33,
          "midi": 61,
          "name": "C#4",
          "ticks": 31296,
          "time": 76.40625,
          "velocity": 0.7244094488188977
        },
        {
          "duration": 0.3466796875,
          "durationTicks": 142,
          "midi": 63,
          "name": "D#4",
          "ticks": 31392,
          "time": 76.640625,
          "velocity": 0.7007874015748031
        },
        {
          "duration": 0.107421875,
          "durationTicks": 44,
          "midi": 63,
          "name": "D#4",
          "ticks": 31584,
          "time": 77.109375,
          "velocity": 0.6929133858267716
        },
        {
          "duration": 0.0830078125,
          "durationTicks": 34,
          "midi": 58,
          "name": "A#3",
          "ticks": 31680,
          "time": 77.34375,
          "velocity": 0.5984251968503937
        },
        {
          "duration": 0.0927734375,
          "durationTicks": 38,
          "midi": 61,
          "name": "C#4",
          "ticks": 31776,
          "time": 77.578125,
          "velocity": 0.7007874015748031
        },
        {
          "duration": 0.27587890625,
          "durationTicks": 113,
          "midi": 63,
          "name": "D#4",
          "ticks": 31872,
          "time": 77.8125,
          "velocity": 0.7401574803149606
        },
        {
          "duration": 0.08056640625,
          "durationTicks": 33,
          "midi": 61,
          "name": "C#4",
          "ticks": 32064,
          "time": 78.28125,
          "velocity": 0.7795275590551181
        },
        {
          "duration": 0.29052734375,
          "durationTicks": 119,
          "midi": 63,
          "name": "D#4",
          "ticks": 32160,
          "time": 78.515625,
          "velocity": 0.7007874015748031
        },
        {
          "duration": 0.078125,
          "durationTicks": 32,
          "midi": 63,
          "name": "D#4",
          "ticks": 32352,
          "time": 78.984375,
          "velocity": 0.7165354330708661
        },
        {
          "duration": 0.0634765625,
          "durationTicks": 26,
          "midi": 58,
          "name": "A#3",
          "ticks": 32448,
          "time": 79.21875,
          "velocity": 0.5511811023622047
        },
        {
          "duration": 0.05859375,
          "durationTicks": 24,
          "midi": 61,
          "name": "C#4",
          "ticks": 32544,
          "time": 79.453125,
          "velocity": 0.7401574803149606
        },
        {
          "duration": 0.12939453125,
          "durationTicks": 53,
          "midi": 63,
          "name": "D#4",
          "ticks": 32640,
          "time": 79.6875,
          "velocity": 0.8976377952755905
        },
        {
          "duration": 0.126953125,
          "durationTicks": 52,
          "midi": 58,
          "name": "A#3",
          "ticks": 32784,
          "time": 80.0390625,
          "velocity": 0.7795275590551181
        },
        {
          "duration": 0.13427734375,
          "durationTicks": 55,
          "midi": 61,
          "name": "C#4",
          "ticks": 32928,
          "time": 80.390625,
          "velocity": 0.84251968503937
        },
        {
          "duration": 0.0830078125,
          "durationTicks": 34,
          "midi": 61,
          "name": "C#4",
          "ticks": 33120,
          "time": 80.859375,
          "velocity": 0.8582677165354331
        },
        {
          "duration": 0.10009765625,
          "durationTicks": 41,
          "midi": 56,
          "name": "G#3",
          "ticks": 33216,
          "time": 81.09375,
          "velocity": 0.7244094488188977
        },
        {
          "duration": 0.087890625,
          "durationTicks": 36,
          "midi": 61,
          "name": "C#4",
          "ticks": 33312,
          "time": 81.328125,
          "velocity": 0.7559055118110236
        },
        {
          "duration": 0.1025390625,
          "durationTicks": 42,
          "midi": 58,
          "name": "A#3",
          "ticks": 33408,
          "time": 81.5625,
          "velocity": 0.7637795275590551
        },
        {
          "duration": 0.09765625,
          "durationTicks": 40,
          "midi": 61,
          "name": "C#4",
          "ticks": 33552,
          "time": 81.9140625,
          "velocity": 0.8110236220472441
        },
        {
          "duration": 0.107421875,
          "durationTicks": 44,
          "midi": 63,
          "name": "D#4",
          "ticks": 33696,
          "time": 82.265625,
          "velocity": 0.7795275590551181
        },
        {
          "duration": 0.07080078125,
          "durationTicks": 29,
          "midi": 63,
          "name": "D#4",
          "ticks": 33888,
          "time": 82.734375,
          "velocity": 0.8267716535433071
        },
        {
          "duration": 0.09765625,
          "durationTicks": 40,
          "midi": 56,
          "name": "G#3",
          "ticks": 33984,
          "time": 82.96875,
          "velocity": 0.6456692913385826
        },
        {
          "duration": 0.08544921875,
          "durationTicks": 35,
          "midi": 61,
          "name": "C#4",
          "ticks": 34080,
          "time": 83.203125,
          "velocity": 0.7401574803149606
        },
        {
          "duration": 0.087890625,
          "durationTicks": 36,
          "midi": 63,
          "name": "D#4",
          "ticks": 34176,
          "time": 83.4375,
          "velocity": 0.7637795275590551
        },
        {
          "duration": 0.1025390625,
          "durationTicks": 42,
          "midi": 58,
          "name": "A#3",
          "ticks": 34320,
          "time": 83.7890625,
          "velocity": 0.7952755905511811
        },
        {
          "duration": 0.1025390625,
          "durationTicks": 42,
          "midi": 61,
          "name": "C#4",
          "ticks": 34464,
          "time": 84.140625,
          "velocity": 0.7007874015748031
        },
        {
          "duration": 0.08056640625,
          "durationTicks": 33,
          "midi": 61,
          "name": "C#4",
          "ticks": 34656,
          "time": 84.609375,
          "velocity": 0.7401574803149606
        },
        {
          "duration": 0.09033203125,
          "durationTicks": 37,
          "midi": 56,
          "name": "G#3",
          "ticks": 34752,
          "time": 84.84375,
          "velocity": 0.5984251968503937
        },
        {
          "duration": 0.09033203125,
          "durationTicks": 37,
          "midi": 61,
          "name": "C#4",
          "ticks": 34848,
          "time": 85.078125,
          "velocity": 0.7559055118110236
        },
        {
          "duration": 0.1025390625,
          "durationTicks": 42,
          "midi": 58,
          "name": "A#3",
          "ticks": 34944,
          "time": 85.3125,
          "velocity": 0.7480314960629921
        },
        {
          "duration": 0.09765625,
          "durationTicks": 40,
          "midi": 61,
          "name": "C#4",
          "ticks": 35088,
          "time": 85.6640625,
          "velocity": 0.7244094488188977
        },
        {
          "duration": 0.078125,
          "durationTicks": 32,
          "midi": 63,
          "name": "D#4",
          "ticks": 35232,
          "time": 86.015625,
          "velocity": 0.7480314960629921
        },
        {
          "duration": 0.0927734375,
          "durationTicks": 38,
          "midi": 63,
          "name": "D#4",
          "ticks": 35424,
          "time": 86.484375,
          "velocity": 0.7480314960629921
        },
        {
          "duration": 0.08056640625,
          "durationTicks": 33,
          "midi": 56,
          "name": "G#3",
          "ticks": 35520,
          "time": 86.71875,
          "velocity": 0.5590551181102362
        },
        {
          "duration": 0.08544921875,
          "durationTicks": 35,
          "midi": 61,
          "name": "C#4",
          "ticks": 35616,
          "time": 86.953125,
          "velocity": 0.7401574803149606
        },
        {
          "duration": 0.10009765625,
          "durationTicks": 41,
          "midi": 58,
          "name": "A#3",
          "ticks": 35712,
          "time": 87.1875,
          "velocity": 0.7401574803149606
        },
        {
          "duration": 0.10498046875,
          "durationTicks": 43,
          "midi": 61,
          "name": "C#4",
          "ticks": 35856,
          "time": 87.5390625,
          "velocity": 0.7244094488188977
        },
        {
          "duration": 0.13916015625,
          "durationTicks": 57,
          "midi": 63,
          "name": "D#4",
          "ticks": 36000,
          "time": 87.890625,
          "velocity": 0.7559055118110236
        },
        {
          "duration": 0.0927734375,
          "durationTicks": 38,
          "midi": 63,
          "name": "D#4",
          "ticks": 36192,
          "time": 88.359375,
          "velocity": 0.8110236220472441
        },
        {
          "duration": 0.09765625,
          "durationTicks": 40,
          "midi": 56,
          "name": "G#3",
          "ticks": 36288,
          "time": 88.59375,
          "velocity": 0.6614173228346457
        },
        {
          "duration": 0.087890625,
          "durationTicks": 36,
          "midi": 61,
          "name": "C#4",
          "ticks": 36384,
          "time": 88.828125,
          "velocity": 0.6929133858267716
        },
        {
          "duration": 0.1025390625,
          "durationTicks": 42,
          "midi": 58,
          "name": "A#3",
          "ticks": 36480,
          "time": 89.0625,
          "velocity": 0.7795275590551181
        },
        {
          "duration": 0.09765625,
          "durationTicks": 40,
          "midi": 61,
          "name": "C#4",
          "ticks": 36624,
          "time": 89.4140625,
          "velocity": 0.8110236220472441
        },
        {
          "duration": 0.1171875,
          "durationTicks": 48,
          "midi": 63,
          "name": "D#4",
          "ticks": 36768,
          "time": 89.765625,
          "velocity": 0.7952755905511811
        },
        {
          "duration": 0.09033203125,
          "durationTicks": 37,
          "midi": 63,
          "name": "D#4",
          "ticks": 36960,
          "time": 90.234375,
          "velocity": 0.8503937007874016
        },
        {
          "duration": 0.1025390625,
          "durationTicks": 42,
          "midi": 56,
          "name": "G#3",
          "ticks": 37056,
          "time": 90.46875,
          "velocity": 0.6614173228346457
        },
        {
          "duration": 0.08544921875,
          "durationTicks": 35,
          "midi": 61,
          "name": "C#4",
          "ticks": 37152,
          "time": 90.703125,
          "velocity": 0.8267716535433071
        },
        {
          "duration": 0.12939453125,
          "durationTicks": 53,
          "midi": 63,
          "name": "D#4",
          "ticks": 37248,
          "time": 90.9375,
          "velocity": 0.8976377952755905
        },
        {
          "duration": 0.126953125,
          "durationTicks": 52,
          "midi": 58,
          "name": "A#3",
          "ticks": 37392,
          "time": 91.2890625,
          "velocity": 0.7795275590551181
        },
        {
          "duration": 0.13427734375,
          "durationTicks": 55,
          "midi": 61,
          "name": "C#4",
          "ticks": 37536,
          "time": 91.640625,
          "velocity": 0.84251968503937
        },
        {
          "duration": 0.0830078125,
          "durationTicks": 34,
          "midi": 61,
          "name": "C#4",
          "ticks": 37728,
          "time": 92.109375,
          "velocity": 0.8582677165354331
        },
        {
          "duration": 0.10009765625,
          "durationTicks": 41,
          "midi": 56,
          "name": "G#3",
          "ticks": 37824,
          "time": 92.34375,
          "velocity": 0.7244094488188977
        },
        {
          "duration": 0.087890625,
          "durationTicks": 36,
          "midi": 61,
          "name": "C#4",
          "ticks": 37920,
          "time": 92.578125,
          "velocity": 0.7559055118110236
        },
        {
          "duration": 0.1025390625,
          "durationTicks": 42,
          "midi": 58,
          "name": "A#3",
          "ticks": 38016,
          "time": 92.8125,
          "velocity": 0.7637795275590551
        },
        {
          "duration": 0.09765625,
          "durationTicks": 40,
          "midi": 61,
          "name": "C#4",
          "ticks": 38160,
          "time": 93.1640625,
          "velocity": 0.8110236220472441
        },
        {
          "duration": 0.107421875,
          "durationTicks": 44,
          "midi": 63,
          "name": "D#4",
          "ticks": 38304,
          "time": 93.515625,
          "velocity": 0.7795275590551181
        },
        {
          "duration": 0.07080078125,
          "durationTicks": 29,
          "midi": 63,
          "name": "D#4",
          "ticks": 38496,
          "time": 93.984375,
          "velocity": 0.8267716535433071
        },
        {
          "duration": 0.09765625,
          "durationTicks": 40,
          "midi": 56,
          "name": "G#3",
          "ticks": 38592,
          "time": 94.21875,
          "velocity": 0.6456692913385826
        },
        {
          "duration": 0.08544921875,
          "durationTicks": 35,
          "midi": 61,
          "name": "C#4",
          "ticks": 38688,
          "time": 94.453125,
          "velocity": 0.7401574803149606
        },
        {
          "duration": 0.087890625,
          "durationTicks": 36,
          "midi": 63,
          "name": "D#4",
          "ticks": 38784,
          "time": 94.6875,
          "velocity": 0.7637795275590551
        },
        {
          "duration": 0.1025390625,
          "durationTicks": 42,
          "midi": 58,
          "name": "A#3",
          "ticks": 38928,
          "time": 95.0390625,
          "velocity": 0.7952755905511811
        },
        {
          "duration": 0.1025390625,
          "durationTicks": 42,
          "midi": 61,
          "name": "C#4",
          "ticks": 39072,
          "time": 95.390625,
          "velocity": 0.7007874015748031
        },
        {
          "duration": 0.08056640625,
          "durationTicks": 33,
          "midi": 61,
          "name": "C#4",
          "ticks": 39264,
          "time": 95.859375,
          "velocity": 0.7401574803149606
        },
        {
          "duration": 0.09033203125,
          "durationTicks": 37,
          "midi": 56,
          "name": "G#3",
          "ticks": 39360,
          "time": 96.09375,
          "velocity": 0.5984251968503937
        },
        {
          "duration": 0.09033203125,
          "durationTicks": 37,
          "midi": 61,
          "name": "C#4",
          "ticks": 39456,
          "time": 96.328125,
          "velocity": 0.7559055118110236
        },
        {
          "duration": 0.1025390625,
          "durationTicks": 42,
          "midi": 58,
          "name": "A#3",
          "ticks": 39552,
          "time": 96.5625,
          "velocity": 0.7480314960629921
        },
        {
          "duration": 0.09765625,
          "durationTicks": 40,
          "midi": 61,
          "name": "C#4",
          "ticks": 39696,
          "time": 96.9140625,
          "velocity": 0.7244094488188977
        },
        {
          "duration": 0.078125,
          "durationTicks": 32,
          "midi": 63,
          "name": "D#4",
          "ticks": 39840,
          "time": 97.265625,
          "velocity": 0.7480314960629921
        },
        {
          "duration": 0.0927734375,
          "durationTicks": 38,
          "midi": 63,
          "name": "D#4",
          "ticks": 40032,
          "time": 97.734375,
          "velocity": 0.7480314960629921
        },
        {
          "duration": 0.08056640625,
          "durationTicks": 33,
          "midi": 56,
          "name": "G#3",
          "ticks": 40128,
          "time": 97.96875,
          "velocity": 0.5590551181102362
        },
        {
          "duration": 0.08544921875,
          "durationTicks": 35,
          "midi": 61,
          "name": "C#4",
          "ticks": 40224,
          "time": 98.203125,
          "velocity": 0.7401574803149606
        },
        {
          "duration": 0.10009765625,
          "durationTicks": 41,
          "midi": 58,
          "name": "A#3",
          "ticks": 40320,
          "time": 98.4375,
          "velocity": 0.7401574803149606
        },
        {
          "duration": 0.10498046875,
          "durationTicks": 43,
          "midi": 61,
          "name": "C#4",
          "ticks": 40464,
          "time": 98.7890625,
          "velocity": 0.7244094488188977
        },
        {
          "duration": 0.13916015625,
          "durationTicks": 57,
          "midi": 63,
          "name": "D#4",
          "ticks": 40608,
          "time": 99.140625,
          "velocity": 0.7559055118110236
        },
        {
          "duration": 0.0927734375,
          "durationTicks": 38,
          "midi": 63,
          "name": "D#4",
          "ticks": 40800,
          "time": 99.609375,
          "velocity": 0.8110236220472441
        },
        {
          "duration": 0.09765625,
          "durationTicks": 40,
          "midi": 56,
          "name": "G#3",
          "ticks": 40896,
          "time": 99.84375,
          "velocity": 0.6614173228346457
        },
        {
          "duration": 0.087890625,
          "durationTicks": 36,
          "midi": 61,
          "name": "C#4",
          "ticks": 40992,
          "time": 100.078125,
          "velocity": 0.6929133858267716
        },
        {
          "duration": 0.1025390625,
          "durationTicks": 42,
          "midi": 58,
          "name": "A#3",
          "ticks": 41088,
          "time": 100.3125,
          "velocity": 0.7795275590551181
        },
        {
          "duration": 0.09765625,
          "durationTicks": 40,
          "midi": 61,
          "name": "C#4",
          "ticks": 41232,
          "time": 100.6640625,
          "velocity": 0.8110236220472441
        },
        {
          "duration": 0.1171875,
          "durationTicks": 48,
          "midi": 63,
          "name": "D#4",
          "ticks": 41376,
          "time": 101.015625,
          "velocity": 0.7952755905511811
        },
        {
          "duration": 0.09033203125,
          "durationTicks": 37,
          "midi": 63,
          "name": "D#4",
          "ticks": 41568,
          "time": 101.484375,
          "velocity": 0.8503937007874016
        },
        {
          "duration": 0.1025390625,
          "durationTicks": 42,
          "midi": 56,
          "name": "G#3",
          "ticks": 41664,
          "time": 101.71875,
          "velocity": 0.6614173228346457
        },
        {
          "duration": 0.08544921875,
          "durationTicks": 35,
          "midi": 61,
          "name": "C#4",
          "ticks": 41760,
          "time": 101.953125,
          "velocity": 0.8267716535433071
        },
        {
          "duration": 0.12939453125,
          "durationTicks": 53,
          "midi": 63,
          "name": "D#4",
          "ticks": 41856,
          "time": 102.1875,
          "velocity": 0.8976377952755905
        },
        {
          "duration": 0.126953125,
          "durationTicks": 52,
          "midi": 58,
          "name": "A#3",
          "ticks": 42000,
          "time": 102.5390625,
          "velocity": 0.7795275590551181
        },
        {
          "duration": 0.13427734375,
          "durationTicks": 55,
          "midi": 61,
          "name": "C#4",
          "ticks": 42144,
          "time": 102.890625,
          "velocity": 0.84251968503937
        },
        {
          "duration": 0.0830078125,
          "durationTicks": 34,
          "midi": 61,
          "name": "C#4",
          "ticks": 42336,
          "time": 103.359375,
          "velocity": 0.8582677165354331
        },
        {
          "duration": 0.10009765625,
          "durationTicks": 41,
          "midi": 56,
          "name": "G#3",
          "ticks": 42432,
          "time": 103.59375,
          "velocity": 0.7244094488188977
        },
        {
          "duration": 0.087890625,
          "durationTicks": 36,
          "midi": 61,
          "name": "C#4",
          "ticks": 42528,
          "time": 103.828125,
          "velocity": 0.7559055118110236
        },
        {
          "duration": 0.1025390625,
          "durationTicks": 42,
          "midi": 58,
          "name": "A#3",
          "ticks": 42624,
          "time": 104.0625,
          "velocity": 0.7637795275590551
        },
        {
          "duration": 0.09765625,
          "durationTicks": 40,
          "midi": 61,
          "name": "C#4",
          "ticks": 42768,
          "time": 104.4140625,
          "velocity": 0.8110236220472441
        },
        {
          "duration": 0.107421875,
          "durationTicks": 44,
          "midi": 63,
          "name": "D#4",
          "ticks": 42912,
          "time": 104.765625,
          "velocity": 0.7795275590551181
        },
        {
          "duration": 0.07080078125,
          "durationTicks": 29,
          "midi": 63,
          "name": "D#4",
          "ticks": 43104,
          "time": 105.234375,
          "velocity": 0.8267716535433071
        },
        {
          "duration": 0.09765625,
          "durationTicks": 40,
          "midi": 56,
          "name": "G#3",
          "ticks": 43200,
          "time": 105.46875,
          "velocity": 0.6456692913385826
        },
        {
          "duration": 0.08544921875,
          "durationTicks": 35,
          "midi": 61,
          "name": "C#4",
          "ticks": 43296,
          "time": 105.703125,
          "velocity": 0.7401574803149606
        },
        {
          "duration": 0.087890625,
          "durationTicks": 36,
          "midi": 63,
          "name": "D#4",
          "ticks": 43392,
          "time": 105.9375,
          "velocity": 0.7637795275590551
        },
        {
          "duration": 0.1025390625,
          "durationTicks": 42,
          "midi": 58,
          "name": "A#3",
          "ticks": 43536,
          "time": 106.2890625,
          "velocity": 0.7952755905511811
        },
        {
          "duration": 0.1025390625,
          "durationTicks": 42,
          "midi": 61,
          "name": "C#4",
          "ticks": 43680,
          "time": 106.640625,
          "velocity": 0.7007874015748031
        },
        {
          "duration": 0.08056640625,
          "durationTicks": 33,
          "midi": 61,
          "name": "C#4",
          "ticks": 43872,
          "time": 107.109375,
          "velocity": 0.7401574803149606
        },
        {
          "duration": 0.09033203125,
          "durationTicks": 37,
          "midi": 56,
          "name": "G#3",
          "ticks": 43968,
          "time": 107.34375,
          "velocity": 0.5984251968503937
        },
        {
          "duration": 0.09033203125,
          "durationTicks": 37,
          "midi": 61,
          "name": "C#4",
          "ticks": 44064,
          "time": 107.578125,
          "velocity": 0.7559055118110236
        },
        {
          "duration": 0.1025390625,
          "durationTicks": 42,
          "midi": 58,
          "name": "A#3",
          "ticks": 44160,
          "time": 107.8125,
          "velocity": 0.7480314960629921
        },
        {
          "duration": 0.09765625,
          "durationTicks": 40,
          "midi": 61,
          "name": "C#4",
          "ticks": 44304,
          "time": 108.1640625,
          "velocity": 0.7244094488188977
        },
        {
          "duration": 0.078125,
          "durationTicks": 32,
          "midi": 63,
          "name": "D#4",
          "ticks": 44448,
          "time": 108.515625,
          "velocity": 0.7480314960629921
        },
        {
          "duration": 0.0927734375,
          "durationTicks": 38,
          "midi": 63,
          "name": "D#4",
          "ticks": 44640,
          "time": 108.984375,
          "velocity": 0.7480314960629921
        },
        {
          "duration": 0.08056640625,
          "durationTicks": 33,
          "midi": 56,
          "name": "G#3",
          "ticks": 44736,
          "time": 109.21875,
          "velocity": 0.5590551181102362
        },
        {
          "duration": 0.08544921875,
          "durationTicks": 35,
          "midi": 61,
          "name": "C#4",
          "ticks": 44832,
          "time": 109.453125,
          "velocity": 0.7401574803149606
        },
        {
          "duration": 0.10009765625,
          "durationTicks": 41,
          "midi": 58,
          "name": "A#3",
          "ticks": 44928,
          "time": 109.6875,
          "velocity": 0.7401574803149606
        },
        {
          "duration": 0.10498046875,
          "durationTicks": 43,
          "midi": 61,
          "name": "C#4",
          "ticks": 45072,
          "time": 110.0390625,
          "velocity": 0.7244094488188977
        },
        {
          "duration": 0.13916015625,
          "durationTicks": 57,
          "midi": 63,
          "name": "D#4",
          "ticks": 45216,
          "time": 110.390625,
          "velocity": 0.7559055118110236
        },
        {
          "duration": 0.0927734375,
          "durationTicks": 38,
          "midi": 63,
          "name": "D#4",
          "ticks": 45408,
          "time": 110.859375,
          "velocity": 0.8110236220472441
        },
        {
          "duration": 0.09765625,
          "durationTicks": 40,
          "midi": 56,
          "name": "G#3",
          "ticks": 45504,
          "time": 111.09375,
          "velocity": 0.6614173228346457
        },
        {
          "duration": 0.087890625,
          "durationTicks": 36,
          "midi": 61,
          "name": "C#4",
          "ticks": 45600,
          "time": 111.328125,
          "velocity": 0.6929133858267716
        },
        {
          "duration": 0.1025390625,
          "durationTicks": 42,
          "midi": 58,
          "name": "A#3",
          "ticks": 45696,
          "time": 111.5625,
          "velocity": 0.7795275590551181
        },
        {
          "duration": 0.09765625,
          "durationTicks": 40,
          "midi": 61,
          "name": "C#4",
          "ticks": 45840,
          "time": 111.9140625,
          "velocity": 0.8110236220472441
        },
        {
          "duration": 0.1171875,
          "durationTicks": 48,
          "midi": 63,
          "name": "D#4",
          "ticks": 45984,
          "time": 112.265625,
          "velocity": 0.7952755905511811
        },
        {
          "duration": 0.09033203125,
          "durationTicks": 37,
          "midi": 63,
          "name": "D#4",
          "ticks": 46176,
          "time": 112.734375,
          "velocity": 0.8503937007874016
        },
        {
          "duration": 0.1025390625,
          "durationTicks": 42,
          "midi": 56,
          "name": "G#3",
          "ticks": 46272,
          "time": 112.96875,
          "velocity": 0.6614173228346457
        },
        {
          "duration": 0.08544921875,
          "durationTicks": 35,
          "midi": 61,
          "name": "C#4",
          "ticks": 46368,
          "time": 113.203125,
          "velocity": 0.8267716535433071
        },
        {
          "duration": 0.10498046875,
          "durationTicks": 43,
          "midi": 63,
          "name": "D#4",
          "ticks": 46464,
          "time": 113.4375,
          "velocity": 0.8740157480314961
        },
        {
          "duration": 0.078125,
          "durationTicks": 32,
          "midi": 58,
          "name": "A#3",
          "ticks": 46560,
          "time": 113.671875,
          "velocity": 0.6141732283464567
        },
        {
          "duration": 0.08056640625,
          "durationTicks": 33,
          "midi": 63,
          "name": "D#4",
          "ticks": 46656,
          "time": 113.90625,
          "velocity": 0.7401574803149606
        },
        {
          "duration": 0.2734375,
          "durationTicks": 112,
          "midi": 61,
          "name": "C#4",
          "ticks": 46752,
          "time": 114.140625,
          "velocity": 0.6614173228346457
        },
        {
          "duration": 0.07568359375,
          "durationTicks": 31,
          "midi": 61,
          "name": "C#4",
          "ticks": 46944,
          "time": 114.609375,
          "velocity": 0.8267716535433071
        },
        {
          "duration": 0.07568359375,
          "durationTicks": 31,
          "midi": 56,
          "name": "G#3",
          "ticks": 47040,
          "time": 114.84375,
          "velocity": 0.6062992125984252
        },
        {
          "duration": 0.078125,
          "durationTicks": 32,
          "midi": 61,
          "name": "C#4",
          "ticks": 47136,
          "time": 115.078125,
          "velocity": 0.7244094488188977
        },
        {
          "duration": 0.087890625,
          "durationTicks": 36,
          "midi": 59,
          "name": "B3",
          "ticks": 47232,
          "time": 115.3125,
          "velocity": 0.7007874015748031
        },
        {
          "duration": 0.0732421875,
          "durationTicks": 30,
          "midi": 54,
          "name": "F#3",
          "ticks": 47328,
          "time": 115.546875,
          "velocity": 0.7007874015748031
        },
        {
          "duration": 0.08544921875,
          "durationTicks": 35,
          "midi": 59,
          "name": "B3",
          "ticks": 47424,
          "time": 115.78125,
          "velocity": 0.6771653543307087
        },
        {
          "duration": 0.25634765625,
          "durationTicks": 105,
          "midi": 58,
          "name": "A#3",
          "ticks": 47520,
          "time": 116.015625,
          "velocity": 0.5826771653543307
        },
        {
          "duration": 0.078125,
          "durationTicks": 32,
          "midi": 58,
          "name": "A#3",
          "ticks": 47712,
          "time": 116.484375,
          "velocity": 0.6141732283464567
        },
        {
          "duration": 0.08544921875,
          "durationTicks": 35,
          "midi": 61,
          "name": "C#4",
          "ticks": 47808,
          "time": 116.71875,
          "velocity": 0.6929133858267716
        },
        {
          "duration": 0.08544921875,
          "durationTicks": 35,
          "midi": 58,
          "name": "A#3",
          "ticks": 47904,
          "time": 116.953125,
          "velocity": 0.5748031496062992
        },
        {
          "duration": 0.08056640625,
          "durationTicks": 33,
          "midi": 63,
          "name": "D#4",
          "ticks": 48000,
          "time": 117.1875,
          "velocity": 0.7007874015748031
        },
        {
          "duration": 0.078125,
          "durationTicks": 32,
          "midi": 58,
          "name": "A#3",
          "ticks": 48096,
          "time": 117.421875,
          "velocity": 0.5039370078740157
        },
        {
          "duration": 0.0732421875,
          "durationTicks": 30,
          "midi": 63,
          "name": "D#4",
          "ticks": 48192,
          "time": 117.65625,
          "velocity": 0.6929133858267716
        },
        {
          "duration": 0.28076171875,
          "durationTicks": 115,
          "midi": 61,
          "name": "C#4",
          "ticks": 48288,
          "time": 117.890625,
          "velocity": 0.6062992125984252
        },
        {
          "duration": 0.07080078125,
          "durationTicks": 29,
          "midi": 61,
          "name": "C#4",
          "ticks": 48480,
          "time": 118.359375,
          "velocity": 0.6929133858267716
        },
        {
          "duration": 0.09033203125,
          "durationTicks": 37,
          "midi": 56,
          "name": "G#3",
          "ticks": 48576,
          "time": 118.59375,
          "velocity": 0.6456692913385826
        },
        {
          "duration": 0.06591796875,
          "durationTicks": 27,
          "midi": 61,
          "name": "C#4",
          "ticks": 48672,
          "time": 118.828125,
          "velocity": 0.7480314960629921
        },
        {
          "duration": 0.08544921875,
          "durationTicks": 35,
          "midi": 59,
          "name": "B3",
          "ticks": 48768,
          "time": 119.0625,
          "velocity": 0.7322834645669292
        },
        {
          "duration": 0.07080078125,
          "durationTicks": 29,
          "midi": 54,
          "name": "F#3",
          "ticks": 48864,
          "time": 119.296875,
          "velocity": 0.6929133858267716
        },
        {
          "duration": 0.0927734375,
          "durationTicks": 38,
          "midi": 59,
          "name": "B3",
          "ticks": 48960,
          "time": 119.53125,
          "velocity": 0.6771653543307087
        },
        {
          "duration": 0.2880859374999858,
          "durationTicks": 118,
          "midi": 58,
          "name": "A#3",
          "ticks": 49056,
          "time": 119.765625,
          "velocity": 0.5984251968503937
        },
        {
          "duration": 0.09277343750001421,
          "durationTicks": 38,
          "midi": 58,
          "name": "A#3",
          "ticks": 49248,
          "time": 120.234375,
          "velocity": 0.6614173228346457
        },
        {
          "duration": 0.09521484375,
          "durationTicks": 39,
          "midi": 61,
          "name": "C#4",
          "ticks": 49344,
          "time": 120.46875,
          "velocity": 0.6062992125984252
        },
        {
          "duration": 0.08056640625,
          "durationTicks": 33,
          "midi": 58,
          "name": "A#3",
          "ticks": 49440,
          "time": 120.703125,
          "velocity": 0.5905511811023622
        },
        {
          "duration": 0.09277343750001421,
          "durationTicks": 38,
          "midi": 63,
          "name": "D#4",
          "ticks": 49536,
          "time": 120.9375,
          "velocity": 0.7480314960629921
        },
        {
          "duration": 0.07080078125001421,
          "durationTicks": 29,
          "midi": 58,
          "name": "A#3",
          "ticks": 49632,
          "time": 121.171875,
          "velocity": 0.5511811023622047
        },
        {
          "duration": 0.09521484375,
          "durationTicks": 39,
          "midi": 63,
          "name": "D#4",
          "ticks": 49728,
          "time": 121.40625,
          "velocity": 0.8110236220472441
        },
        {
          "duration": 0.30029296875,
          "durationTicks": 123,
          "midi": 61,
          "name": "C#4",
          "ticks": 49824,
          "time": 121.640625,
          "velocity": 0.6929133858267716
        },
        {
          "duration": 0.09033203124998579,
          "durationTicks": 37,
          "midi": 61,
          "name": "C#4",
          "ticks": 50016,
          "time": 122.109375,
          "velocity": 0.6929133858267716
        },
        {
          "duration": 0.10009765625001421,
          "durationTicks": 41,
          "midi": 56,
          "name": "G#3",
          "ticks": 50112,
          "time": 122.34375,
          "velocity": 0.6062992125984252
        },
        {
          "duration": 0.1269531249999858,
          "durationTicks": 52,
          "midi": 59,
          "name": "B3",
          "ticks": 50208,
          "time": 122.578125,
          "velocity": 0.6299212598425197
        },
        {
          "duration": 0.1342773437499858,
          "durationTicks": 55,
          "midi": 59,
          "name": "B3",
          "ticks": 50304,
          "time": 122.8125,
          "velocity": 0.7716535433070866
        },
        {
          "duration": 0.09033203124998579,
          "durationTicks": 37,
          "midi": 54,
          "name": "F#3",
          "ticks": 50400,
          "time": 123.046875,
          "velocity": 0.8110236220472441
        },
        {
          "duration": 0.12207031250001421,
          "durationTicks": 50,
          "midi": 59,
          "name": "B3",
          "ticks": 50496,
          "time": 123.28125,
          "velocity": 0.6692913385826772
        },
        {
          "duration": 0.2685546875000142,
          "durationTicks": 110,
          "midi": 58,
          "name": "A#3",
          "ticks": 50592,
          "time": 123.515625,
          "velocity": 0.6299212598425197
        },
        {
          "duration": 0.07568359374998579,
          "durationTicks": 31,
          "midi": 58,
          "name": "A#3",
          "ticks": 50784,
          "time": 123.984375,
          "velocity": 0.6929133858267716
        },
        {
          "duration": 0.12207031250001421,
          "durationTicks": 50,
          "midi": 61,
          "name": "C#4",
          "ticks": 50880,
          "time": 124.21875,
          "velocity": 0.5669291338582677
        },
        {
          "duration": 0.09765624999998579,
          "durationTicks": 40,
          "midi": 58,
          "name": "A#3",
          "ticks": 50976,
          "time": 124.453125,
          "velocity": 0.6141732283464567
        },
        {
          "duration": 0.10009765625001421,
          "durationTicks": 41,
          "midi": 63,
          "name": "D#4",
          "ticks": 51072,
          "time": 124.6875,
          "velocity": 0.7244094488188977
        },
        {
          "duration": 0.08300781249998579,
          "durationTicks": 34,
          "midi": 58,
          "name": "A#3",
          "ticks": 51168,
          "time": 124.921875,
          "velocity": 0.5196850393700787
        },
        {
          "duration": 0.09521484375,
          "durationTicks": 39,
          "midi": 63,
          "name": "D#4",
          "ticks": 51264,
          "time": 125.15625,
          "velocity": 0.7480314960629921
        },
        {
          "duration": 0.2832031250000142,
          "durationTicks": 116,
          "midi": 61,
          "name": "C#4",
          "ticks": 51360,
          "time": 125.390625,
          "velocity": 0.6141732283464567
        },
        {
          "duration": 0.10742187500001421,
          "durationTicks": 44,
          "midi": 61,
          "name": "C#4",
          "ticks": 51552,
          "time": 125.859375,
          "velocity": 0.6535433070866141
        },
        {
          "duration": 0.09521484375,
          "durationTicks": 39,
          "midi": 56,
          "name": "G#3",
          "ticks": 51648,
          "time": 126.09375,
          "velocity": 0.6692913385826772
        },
        {
          "duration": 0.09277343750001421,
          "durationTicks": 38,
          "midi": 59,
          "name": "B3",
          "ticks": 51744,
          "time": 126.328125,
          "velocity": 0.7007874015748031
        },
        {
          "duration": 0.08056640625,
          "durationTicks": 33,
          "midi": 61,
          "name": "C#4",
          "ticks": 51840,
          "time": 126.5625,
          "velocity": 0.6850393700787402
        },
        {
          "duration": 0.08056640625,
          "durationTicks": 33,
          "midi": 59,
          "name": "B3",
          "ticks": 51936,
          "time": 126.796875,
          "velocity": 0.6614173228346457
        },
        {
          "duration": 0.0732421875,
          "durationTicks": 30,
          "midi": 61,
          "name": "C#4",
          "ticks": 52032,
          "time": 127.03125,
          "velocity": 0.6692913385826772
        },
        {
          "duration": 0.4003906250000142,
          "durationTicks": 164,
          "midi": 63,
          "name": "D#4",
          "ticks": 52128,
          "time": 127.265625,
          "velocity": 0.6614173228346457
        },
        {
          "duration": 0.08056640625,
          "durationTicks": 33,
          "midi": 61,
          "name": "C#4",
          "ticks": 52416,
          "time": 127.96875,
          "velocity": 0.7244094488188977
        },
        {
          "duration": 0.3466796875,
          "durationTicks": 142,
          "midi": 63,
          "name": "D#4",
          "ticks": 52512,
          "time": 128.203125,
          "velocity": 0.7007874015748031
        },
        {
          "duration": 0.107421875,
          "durationTicks": 44,
          "midi": 63,
          "name": "D#4",
          "ticks": 52704,
          "time": 128.671875,
          "velocity": 0.6929133858267716
        },
        {
          "duration": 0.0830078125,
          "durationTicks": 34,
          "midi": 58,
          "name": "A#3",
          "ticks": 52800,
          "time": 128.90625,
          "velocity": 0.5984251968503937
        },
        {
          "duration": 0.0927734375,
          "durationTicks": 38,
          "midi": 61,
          "name": "C#4",
          "ticks": 52896,
          "time": 129.140625,
          "velocity": 0.6535433070866141
        },
        {
          "duration": 0.1904296875,
          "durationTicks": 78,
          "midi": 63,
          "name": "D#4",
          "ticks": 52992,
          "time": 129.375,
          "velocity": 0.5590551181102362
        },
        {
          "duration": 0.1513671875,
          "durationTicks": 62,
          "midi": 63,
          "name": "D#4",
          "ticks": 53088,
          "time": 129.609375,
          "velocity": 0.7952755905511811
        },
        {
          "duration": 0.22216796875,
          "durationTicks": 91,
          "midi": 66,
          "name": "F#4",
          "ticks": 53184,
          "time": 129.84375,
          "velocity": 0.9133858267716536
        },
        {
          "duration": 0.1806640625,
          "durationTicks": 74,
          "midi": 63,
          "name": "D#4",
          "ticks": 53280,
          "time": 130.078125,
          "velocity": 0.8661417322834646
        },
        {
          "duration": 0.12939453125,
          "durationTicks": 53,
          "midi": 63,
          "name": "D#4",
          "ticks": 53760,
          "time": 131.25,
          "velocity": 0.8976377952755905
        },
        {
          "duration": 0.126953125,
          "durationTicks": 52,
          "midi": 58,
          "name": "A#3",
          "ticks": 53904,
          "time": 131.6015625,
          "velocity": 0.7795275590551181
        },
        {
          "duration": 0.13427734375,
          "durationTicks": 55,
          "midi": 61,
          "name": "C#4",
          "ticks": 54048,
          "time": 131.953125,
          "velocity": 0.84251968503937
        },
        {
          "duration": 0.0830078125,
          "durationTicks": 34,
          "midi": 61,
          "name": "C#4",
          "ticks": 54240,
          "time": 132.421875,
          "velocity": 0.8582677165354331
        },
        {
          "duration": 0.10009765625,
          "durationTicks": 41,
          "midi": 56,
          "name": "G#3",
          "ticks": 54336,
          "time": 132.65625,
          "velocity": 0.7244094488188977
        },
        {
          "duration": 0.087890625,
          "durationTicks": 36,
          "midi": 61,
          "name": "C#4",
          "ticks": 54432,
          "time": 132.890625,
          "velocity": 0.7559055118110236
        },
        {
          "duration": 0.1025390625,
          "durationTicks": 42,
          "midi": 58,
          "name": "A#3",
          "ticks": 54528,
          "time": 133.125,
          "velocity": 0.7637795275590551
        },
        {
          "duration": 0.09765625,
          "durationTicks": 40,
          "midi": 61,
          "name": "C#4",
          "ticks": 54672,
          "time": 133.4765625,
          "velocity": 0.8110236220472441
        },
        {
          "duration": 0.107421875,
          "durationTicks": 44,
          "midi": 63,
          "name": "D#4",
          "ticks": 54816,
          "time": 133.828125,
          "velocity": 0.7795275590551181
        },
        {
          "duration": 0.07080078125,
          "durationTicks": 29,
          "midi": 63,
          "name": "D#4",
          "ticks": 55008,
          "time": 134.296875,
          "velocity": 0.8267716535433071
        },
        {
          "duration": 0.09765625,
          "durationTicks": 40,
          "midi": 56,
          "name": "G#3",
          "ticks": 55104,
          "time": 134.53125,
          "velocity": 0.6456692913385826
        },
        {
          "duration": 0.08544921875,
          "durationTicks": 35,
          "midi": 61,
          "name": "C#4",
          "ticks": 55200,
          "time": 134.765625,
          "velocity": 0.7401574803149606
        },
        {
          "duration": 0.087890625,
          "durationTicks": 36,
          "midi": 63,
          "name": "D#4",
          "ticks": 55296,
          "time": 135,
          "velocity": 0.7637795275590551
        },
        {
          "duration": 0.1025390625,
          "durationTicks": 42,
          "midi": 58,
          "name": "A#3",
          "ticks": 55440,
          "time": 135.3515625,
          "velocity": 0.7952755905511811
        },
        {
          "duration": 0.1025390625,
          "durationTicks": 42,
          "midi": 61,
          "name": "C#4",
          "ticks": 55584,
          "time": 135.703125,
          "velocity": 0.7007874015748031
        },
        {
          "duration": 0.08056640625,
          "durationTicks": 33,
          "midi": 61,
          "name": "C#4",
          "ticks": 55776,
          "time": 136.171875,
          "velocity": 0.7401574803149606
        },
        {
          "duration": 0.09033203125,
          "durationTicks": 37,
          "midi": 56,
          "name": "G#3",
          "ticks": 55872,
          "time": 136.40625,
          "velocity": 0.5984251968503937
        },
        {
          "duration": 0.09033203125,
          "durationTicks": 37,
          "midi": 61,
          "name": "C#4",
          "ticks": 55968,
          "time": 136.640625,
          "velocity": 0.7559055118110236
        },
        {
          "duration": 0.1025390625,
          "durationTicks": 42,
          "midi": 58,
          "name": "A#3",
          "ticks": 56064,
          "time": 136.875,
          "velocity": 0.7480314960629921
        },
        {
          "duration": 0.09765625,
          "durationTicks": 40,
          "midi": 61,
          "name": "C#4",
          "ticks": 56208,
          "time": 137.2265625,
          "velocity": 0.7244094488188977
        },
        {
          "duration": 0.078125,
          "durationTicks": 32,
          "midi": 63,
          "name": "D#4",
          "ticks": 56352,
          "time": 137.578125,
          "velocity": 0.7480314960629921
        },
        {
          "duration": 0.0927734375,
          "durationTicks": 38,
          "midi": 63,
          "name": "D#4",
          "ticks": 56544,
          "time": 138.046875,
          "velocity": 0.7480314960629921
        },
        {
          "duration": 0.08056640625,
          "durationTicks": 33,
          "midi": 56,
          "name": "G#3",
          "ticks": 56640,
          "time": 138.28125,
          "velocity": 0.5590551181102362
        },
        {
          "duration": 0.08544921875,
          "durationTicks": 35,
          "midi": 61,
          "name": "C#4",
          "ticks": 56736,
          "time": 138.515625,
          "velocity": 0.7401574803149606
        },
        {
          "duration": 0.10009765625,
          "durationTicks": 41,
          "midi": 58,
          "name": "A#3",
          "ticks": 56832,
          "time": 138.75,
          "velocity": 0.7401574803149606
        },
        {
          "duration": 0.10498046875,
          "durationTicks": 43,
          "midi": 61,
          "name": "C#4",
          "ticks": 56976,
          "time": 139.1015625,
          "velocity": 0.7244094488188977
        },
        {
          "duration": 0.13916015625,
          "durationTicks": 57,
          "midi": 63,
          "name": "D#4",
          "ticks": 57120,
          "time": 139.453125,
          "velocity": 0.7559055118110236
        },
        {
          "duration": 0.0927734375,
          "durationTicks": 38,
          "midi": 63,
          "name": "D#4",
          "ticks": 57312,
          "time": 139.921875,
          "velocity": 0.8110236220472441
        },
        {
          "duration": 0.09765625,
          "durationTicks": 40,
          "midi": 56,
          "name": "G#3",
          "ticks": 57408,
          "time": 140.15625,
          "velocity": 0.6614173228346457
        },
        {
          "duration": 0.087890625,
          "durationTicks": 36,
          "midi": 61,
          "name": "C#4",
          "ticks": 57504,
          "time": 140.390625,
          "velocity": 0.6929133858267716
        },
        {
          "duration": 0.1025390625,
          "durationTicks": 42,
          "midi": 58,
          "name": "A#3",
          "ticks": 57600,
          "time": 140.625,
          "velocity": 0.7795275590551181
        },
        {
          "duration": 0.09765625,
          "durationTicks": 40,
          "midi": 61,
          "name": "C#4",
          "ticks": 57744,
          "time": 140.9765625,
          "velocity": 0.8110236220472441
        },
        {
          "duration": 0.1171875,
          "durationTicks": 48,
          "midi": 63,
          "name": "D#4",
          "ticks": 57888,
          "time": 141.328125,
          "velocity": 0.7952755905511811
        },
        {
          "duration": 0.09033203125,
          "durationTicks": 37,
          "midi": 63,
          "name": "D#4",
          "ticks": 58080,
          "time": 141.796875,
          "velocity": 0.8503937007874016
        },
        {
          "duration": 0.21240234375,
          "durationTicks": 87,
          "midi": 58,
          "name": "A#3",
          "ticks": 58176,
          "time": 142.03125,
          "velocity": 0.84251968503937
        },
        {
          "duration": 0.18310546875,
          "durationTicks": 75,
          "midi": 56,
          "name": "G#3",
          "ticks": 58272,
          "time": 142.265625,
          "velocity": 0.937007874015748
        },
        {
          "duration": 0.12939453125,
          "durationTicks": 53,
          "midi": 63,
          "name": "D#4",
          "ticks": 64512,
          "time": 157.5,
          "velocity": 0.8976377952755905
        },
        {
          "duration": 0.126953125,
          "durationTicks": 52,
          "midi": 58,
          "name": "A#3",
          "ticks": 64656,
          "time": 157.8515625,
          "velocity": 0.7795275590551181
        },
        {
          "duration": 0.13427734375,
          "durationTicks": 55,
          "midi": 61,
          "name": "C#4",
          "ticks": 64800,
          "time": 158.203125,
          "velocity": 0.84251968503937
        },
        {
          "duration": 0.0830078125,
          "durationTicks": 34,
          "midi": 61,
          "name": "C#4",
          "ticks": 64992,
          "time": 158.671875,
          "velocity": 0.8582677165354331
        },
        {
          "duration": 0.10009765625,
          "durationTicks": 41,
          "midi": 56,
          "name": "G#3",
          "ticks": 65088,
          "time": 158.90625,
          "velocity": 0.7244094488188977
        },
        {
          "duration": 0.087890625,
          "durationTicks": 36,
          "midi": 61,
          "name": "C#4",
          "ticks": 65184,
          "time": 159.140625,
          "velocity": 0.7559055118110236
        },
        {
          "duration": 0.1025390625,
          "durationTicks": 42,
          "midi": 58,
          "name": "A#3",
          "ticks": 65280,
          "time": 159.375,
          "velocity": 0.7637795275590551
        },
        {
          "duration": 0.09765625,
          "durationTicks": 40,
          "midi": 61,
          "name": "C#4",
          "ticks": 65424,
          "time": 159.7265625,
          "velocity": 0.8110236220472441
        },
        {
          "duration": 0.107421875,
          "durationTicks": 44,
          "midi": 63,
          "name": "D#4",
          "ticks": 65568,
          "time": 160.078125,
          "velocity": 0.7795275590551181
        },
        {
          "duration": 0.07080078125,
          "durationTicks": 29,
          "midi": 63,
          "name": "D#4",
          "ticks": 65760,
          "time": 160.546875,
          "velocity": 0.8267716535433071
        },
        {
          "duration": 0.09765625,
          "durationTicks": 40,
          "midi": 56,
          "name": "G#3",
          "ticks": 65856,
          "time": 160.78125,
          "velocity": 0.6456692913385826
        },
        {
          "duration": 0.08544921875,
          "durationTicks": 35,
          "midi": 61,
          "name": "C#4",
          "ticks": 65952,
          "time": 161.015625,
          "velocity": 0.7401574803149606
        },
        {
          "duration": 0.087890625,
          "durationTicks": 36,
          "midi": 63,
          "name": "D#4",
          "ticks": 66048,
          "time": 161.25,
          "velocity": 0.7637795275590551
        },
        {
          "duration": 0.1025390625,
          "durationTicks": 42,
          "midi": 58,
          "name": "A#3",
          "ticks": 66192,
          "time": 161.6015625,
          "velocity": 0.7952755905511811
        },
        {
          "duration": 0.1025390625,
          "durationTicks": 42,
          "midi": 61,
          "name": "C#4",
          "ticks": 66336,
          "time": 161.953125,
          "velocity": 0.7007874015748031
        },
        {
          "duration": 0.08056640625,
          "durationTicks": 33,
          "midi": 61,
          "name": "C#4",
          "ticks": 66528,
          "time": 162.421875,
          "velocity": 0.7401574803149606
        },
        {
          "duration": 0.09033203125,
          "durationTicks": 37,
          "midi": 56,
          "name": "G#3",
          "ticks": 66624,
          "time": 162.65625,
          "velocity": 0.5984251968503937
        },
        {
          "duration": 0.09033203125,
          "durationTicks": 37,
          "midi": 61,
          "name": "C#4",
          "ticks": 66720,
          "time": 162.890625,
          "velocity": 0.7559055118110236
        },
        {
          "duration": 0.1025390625,
          "durationTicks": 42,
          "midi": 58,
          "name": "A#3",
          "ticks": 66816,
          "time": 163.125,
          "velocity": 0.7480314960629921
        },
        {
          "duration": 0.09765625,
          "durationTicks": 40,
          "midi": 61,
          "name": "C#4",
          "ticks": 66960,
          "time": 163.4765625,
          "velocity": 0.7244094488188977
        },
        {
          "duration": 0.078125,
          "durationTicks": 32,
          "midi": 63,
          "name": "D#4",
          "ticks": 67104,
          "time": 163.828125,
          "velocity": 0.7480314960629921
        },
        {
          "duration": 0.0927734375,
          "durationTicks": 38,
          "midi": 63,
          "name": "D#4",
          "ticks": 67296,
          "time": 164.296875,
          "velocity": 0.7480314960629921
        },
        {
          "duration": 0.08056640625,
          "durationTicks": 33,
          "midi": 56,
          "name": "G#3",
          "ticks": 67392,
          "time": 164.53125,
          "velocity": 0.5590551181102362
        },
        {
          "duration": 0.08544921875,
          "durationTicks": 35,
          "midi": 61,
          "name": "C#4",
          "ticks": 67488,
          "time": 164.765625,
          "velocity": 0.7401574803149606
        },
        {
          "duration": 0.10009765625,
          "durationTicks": 41,
          "midi": 58,
          "name": "A#3",
          "ticks": 67584,
          "time": 165,
          "velocity": 0.7401574803149606
        },
        {
          "duration": 0.10498046875,
          "durationTicks": 43,
          "midi": 61,
          "name": "C#4",
          "ticks": 67728,
          "time": 165.3515625,
          "velocity": 0.7244094488188977
        },
        {
          "duration": 0.13916015625,
          "durationTicks": 57,
          "midi": 63,
          "name": "D#4",
          "ticks": 67872,
          "time": 165.703125,
          "velocity": 0.7559055118110236
        },
        {
          "duration": 0.0927734375,
          "durationTicks": 38,
          "midi": 63,
          "name": "D#4",
          "ticks": 68064,
          "time": 166.171875,
          "velocity": 0.8110236220472441
        },
        {
          "duration": 0.09765625,
          "durationTicks": 40,
          "midi": 56,
          "name": "G#3",
          "ticks": 68160,
          "time": 166.40625,
          "velocity": 0.6614173228346457
        },
        {
          "duration": 0.087890625,
          "durationTicks": 36,
          "midi": 61,
          "name": "C#4",
          "ticks": 68256,
          "time": 166.640625,
          "velocity": 0.6929133858267716
        },
        {
          "duration": 0.1025390625,
          "durationTicks": 42,
          "midi": 58,
          "name": "A#3",
          "ticks": 68352,
          "time": 166.875,
          "velocity": 0.7795275590551181
        },
        {
          "duration": 0.09765625,
          "durationTicks": 40,
          "midi": 61,
          "name": "C#4",
          "ticks": 68496,
          "time": 167.2265625,
          "velocity": 0.8110236220472441
        },
        {
          "duration": 0.1171875,
          "durationTicks": 48,
          "midi": 63,
          "name": "D#4",
          "ticks": 68640,
          "time": 167.578125,
          "velocity": 0.7952755905511811
        },
        {
          "duration": 0.09033203125,
          "durationTicks": 37,
          "midi": 63,
          "name": "D#4",
          "ticks": 68832,
          "time": 168.046875,
          "velocity": 0.8503937007874016
        },
        {
          "duration": 0.1025390625,
          "durationTicks": 42,
          "midi": 56,
          "name": "G#3",
          "ticks": 68928,
          "time": 168.28125,
          "velocity": 0.6614173228346457
        },
        {
          "duration": 0.08544921875,
          "durationTicks": 35,
          "midi": 61,
          "name": "C#4",
          "ticks": 69024,
          "time": 168.515625,
          "velocity": 0.8267716535433071
        },
        {
          "duration": 0.09765625,
          "durationTicks": 40,
          "midi": 63,
          "name": "D#4",
          "ticks": 72192,
          "time": 176.25,
          "velocity": 0.968503937007874
        },
        {
          "duration": 0.107421875,
          "durationTicks": 44,
          "midi": 58,
          "name": "A#3",
          "ticks": 72336,
          "time": 176.6015625,
          "velocity": 0.6062992125984252
        },
        {
          "duration": 0.12451171875,
          "durationTicks": 51,
          "midi": 62,
          "name": "D4",
          "ticks": 72480,
          "time": 176.953125,
          "velocity": 0.8976377952755905
        },
        {
          "duration": 0.10986328125,
          "durationTicks": 45,
          "midi": 61,
          "name": "C#4",
          "ticks": 72960,
          "time": 178.125,
          "velocity": 0.8740157480314961
        },
        {
          "duration": 0.1025390625,
          "durationTicks": 42,
          "midi": 56,
          "name": "G#3",
          "ticks": 73104,
          "time": 178.4765625,
          "velocity": 0.7244094488188977
        },
        {
          "duration": 0.09765625,
          "durationTicks": 40,
          "midi": 62,
          "name": "D4",
          "ticks": 73248,
          "time": 178.828125,
          "velocity": 0.9448818897637795
        },
        {
          "duration": 0.1416015625,
          "durationTicks": 58,
          "midi": 63,
          "name": "D#4",
          "ticks": 73728,
          "time": 180,
          "velocity": 0.8267716535433071
        },
        {
          "duration": 0.1220703125,
          "durationTicks": 50,
          "midi": 58,
          "name": "A#3",
          "ticks": 73872,
          "time": 180.3515625,
          "velocity": 0.7007874015748031
        },
        {
          "duration": 0.1611328125,
          "durationTicks": 66,
          "midi": 61,
          "name": "C#4",
          "ticks": 74016,
          "time": 180.703125,
          "velocity": 0.8740157480314961
        },
        {
          "duration": 0.09033203125,
          "durationTicks": 37,
          "midi": 56,
          "name": "G#3",
          "ticks": 74304,
          "time": 181.40625,
          "velocity": 0.7637795275590551
        },
        {
          "duration": 0.10009765625,
          "durationTicks": 41,
          "midi": 61,
          "name": "C#4",
          "ticks": 74400,
          "time": 181.640625,
          "velocity": 0.905511811023622
        },
        {
          "duration": 0.09521484375,
          "durationTicks": 39,
          "midi": 59,
          "name": "B3",
          "ticks": 74496,
          "time": 181.875,
          "velocity": 0.8031496062992126
        },
        {
          "duration": 0.10498046875,
          "durationTicks": 43,
          "midi": 63,
          "name": "D#4",
          "ticks": 74640,
          "time": 182.2265625,
          "velocity": 0.7480314960629921
        },
        {
          "duration": 0.09521484375,
          "durationTicks": 39,
          "midi": 62,
          "name": "D4",
          "ticks": 74784,
          "time": 182.578125,
          "velocity": 0.8031496062992126
        },
        {
          "duration": 0.1123046875,
          "durationTicks": 46,
          "midi": 65,
          "name": "F4",
          "ticks": 74976,
          "time": 183.046875,
          "velocity": 0.7716535433070866
        },
        {
          "duration": 0.09765625,
          "durationTicks": 40,
          "midi": 62,
          "name": "D4",
          "ticks": 75072,
          "time": 183.28125,
          "velocity": 0.7952755905511811
        },
        {
          "duration": 0.1171875,
          "durationTicks": 48,
          "midi": 63,
          "name": "D#4",
          "ticks": 75168,
          "time": 183.515625,
          "velocity": 0.8740157480314961
        },
        {
          "duration": 0.12939453125,
          "durationTicks": 53,
          "midi": 63,
          "name": "D#4",
          "ticks": 75264,
          "time": 183.75,
          "velocity": 0.8976377952755905
        },
        {
          "duration": 0.126953125,
          "durationTicks": 52,
          "midi": 58,
          "name": "A#3",
          "ticks": 75408,
          "time": 184.1015625,
          "velocity": 0.7795275590551181
        },
        {
          "duration": 0.13427734375,
          "durationTicks": 55,
          "midi": 61,
          "name": "C#4",
          "ticks": 75552,
          "time": 184.453125,
          "velocity": 0.84251968503937
        },
        {
          "duration": 0.0830078125,
          "durationTicks": 34,
          "midi": 61,
          "name": "C#4",
          "ticks": 75744,
          "time": 184.921875,
          "velocity": 0.8582677165354331
        },
        {
          "duration": 0.10009765625,
          "durationTicks": 41,
          "midi": 56,
          "name": "G#3",
          "ticks": 75840,
          "time": 185.15625,
          "velocity": 0.7244094488188977
        },
        {
          "duration": 0.087890625,
          "durationTicks": 36,
          "midi": 61,
          "name": "C#4",
          "ticks": 75936,
          "time": 185.390625,
          "velocity": 0.7559055118110236
        },
        {
          "duration": 0.1025390625,
          "durationTicks": 42,
          "midi": 58,
          "name": "A#3",
          "ticks": 76032,
          "time": 185.625,
          "velocity": 0.7637795275590551
        },
        {
          "duration": 0.09765625,
          "durationTicks": 40,
          "midi": 61,
          "name": "C#4",
          "ticks": 76176,
          "time": 185.9765625,
          "velocity": 0.8110236220472441
        },
        {
          "duration": 0.107421875,
          "durationTicks": 44,
          "midi": 63,
          "name": "D#4",
          "ticks": 76320,
          "time": 186.328125,
          "velocity": 0.7795275590551181
        },
        {
          "duration": 0.07080078125,
          "durationTicks": 29,
          "midi": 63,
          "name": "D#4",
          "ticks": 76512,
          "time": 186.796875,
          "velocity": 0.8267716535433071
        },
        {
          "duration": 0.09765625,
          "durationTicks": 40,
          "midi": 56,
          "name": "G#3",
          "ticks": 76608,
          "time": 187.03125,
          "velocity": 0.6456692913385826
        },
        {
          "duration": 0.08544921875,
          "durationTicks": 35,
          "midi": 61,
          "name": "C#4",
          "ticks": 76704,
          "time": 187.265625,
          "velocity": 0.7401574803149606
        },
        {
          "duration": 0.087890625,
          "durationTicks": 36,
          "midi": 63,
          "name": "D#4",
          "ticks": 76800,
          "time": 187.5,
          "velocity": 0.7637795275590551
        },
        {
          "duration": 0.1025390625,
          "durationTicks": 42,
          "midi": 58,
          "name": "A#3",
          "ticks": 76944,
          "time": 187.8515625,
          "velocity": 0.7952755905511811
        },
        {
          "duration": 0.1025390625,
          "durationTicks": 42,
          "midi": 61,
          "name": "C#4",
          "ticks": 77088,
          "time": 188.203125,
          "velocity": 0.7007874015748031
        },
        {
          "duration": 0.08056640625,
          "durationTicks": 33,
          "midi": 61,
          "name": "C#4",
          "ticks": 77280,
          "time": 188.671875,
          "velocity": 0.7401574803149606
        },
        {
          "duration": 0.09033203125,
          "durationTicks": 37,
          "midi": 56,
          "name": "G#3",
          "ticks": 77376,
          "time": 188.90625,
          "velocity": 0.5984251968503937
        },
        {
          "duration": 0.09033203125,
          "durationTicks": 37,
          "midi": 61,
          "name": "C#4",
          "ticks": 77472,
          "time": 189.140625,
          "velocity": 0.7559055118110236
        },
        {
          "duration": 0.1025390625,
          "durationTicks": 42,
          "midi": 58,
          "name": "A#3",
          "ticks": 77568,
          "time": 189.375,
          "velocity": 0.7480314960629921
        },
        {
          "duration": 0.09765625,
          "durationTicks": 40,
          "midi": 61,
          "name": "C#4",
          "ticks": 77712,
          "time": 189.7265625,
          "velocity": 0.7244094488188977
        },
        {
          "duration": 0.078125,
          "durationTicks": 32,
          "midi": 63,
          "name": "D#4",
          "ticks": 77856,
          "time": 190.078125,
          "velocity": 0.7480314960629921
        },
        {
          "duration": 0.0927734375,
          "durationTicks": 38,
          "midi": 63,
          "name": "D#4",
          "ticks": 78048,
          "time": 190.546875,
          "velocity": 0.7480314960629921
        },
        {
          "duration": 0.08056640625,
          "durationTicks": 33,
          "midi": 56,
          "name": "G#3",
          "ticks": 78144,
          "time": 190.78125,
          "velocity": 0.5590551181102362
        },
        {
          "duration": 0.08544921875,
          "durationTicks": 35,
          "midi": 61,
          "name": "C#4",
          "ticks": 78240,
          "time": 191.015625,
          "velocity": 0.7401574803149606
        },
        {
          "duration": 0.10009765625,
          "durationTicks": 41,
          "midi": 58,
          "name": "A#3",
          "ticks": 78336,
          "time": 191.25,
          "velocity": 0.7401574803149606
        },
        {
          "duration": 0.10498046875,
          "durationTicks": 43,
          "midi": 61,
          "name": "C#4",
          "ticks": 78480,
          "time": 191.6015625,
          "velocity": 0.7244094488188977
        },
        {
          "duration": 0.13916015625,
          "durationTicks": 57,
          "midi": 63,
          "name": "D#4",
          "ticks": 78624,
          "time": 191.953125,
          "velocity": 0.7559055118110236
        },
        {
          "duration": 0.0927734375,
          "durationTicks": 38,
          "midi": 63,
          "name": "D#4",
          "ticks": 78816,
          "time": 192.421875,
          "velocity": 0.8110236220472441
        },
        {
          "duration": 0.09765625,
          "durationTicks": 40,
          "midi": 56,
          "name": "G#3",
          "ticks": 78912,
          "time": 192.65625,
          "velocity": 0.6614173228346457
        },
        {
          "duration": 0.087890625,
          "durationTicks": 36,
          "midi": 61,
          "name": "C#4",
          "ticks": 79008,
          "time": 192.890625,
          "velocity": 0.6929133858267716
        },
        {
          "duration": 0.1025390625,
          "durationTicks": 42,
          "midi": 58,
          "name": "A#3",
          "ticks": 79104,
          "time": 193.125,
          "velocity": 0.7795275590551181
        },
        {
          "duration": 0.09765625,
          "durationTicks": 40,
          "midi": 61,
          "name": "C#4",
          "ticks": 79248,
          "time": 193.4765625,
          "velocity": 0.8110236220472441
        },
        {
          "duration": 0.1171875,
          "durationTicks": 48,
          "midi": 63,
          "name": "D#4",
          "ticks": 79392,
          "time": 193.828125,
          "velocity": 0.7952755905511811
        },
        {
          "duration": 0.09033203125,
          "durationTicks": 37,
          "midi": 63,
          "name": "D#4",
          "ticks": 79584,
          "time": 194.296875,
          "velocity": 0.8503937007874016
        },
        {
          "duration": 0.1025390625,
          "durationTicks": 42,
          "midi": 56,
          "name": "G#3",
          "ticks": 79680,
          "time": 194.53125,
          "velocity": 0.6614173228346457
        },
        {
          "duration": 0.08544921875,
          "durationTicks": 35,
          "midi": 61,
          "name": "C#4",
          "ticks": 79776,
          "time": 194.765625,
          "velocity": 0.8267716535433071
        },
        {
          "duration": 0.12939453125,
          "durationTicks": 53,
          "midi": 63,
          "name": "D#4",
          "ticks": 79872,
          "time": 195,
          "velocity": 0.8976377952755905
        },
        {
          "duration": 0.126953125,
          "durationTicks": 52,
          "midi": 58,
          "name": "A#3",
          "ticks": 80016,
          "time": 195.3515625,
          "velocity": 0.7795275590551181
        },
        {
          "duration": 0.13427734375,
          "durationTicks": 55,
          "midi": 61,
          "name": "C#4",
          "ticks": 80160,
          "time": 195.703125,
          "velocity": 0.84251968503937
        },
        {
          "duration": 0.0830078125,
          "durationTicks": 34,
          "midi": 61,
          "name": "C#4",
          "ticks": 80352,
          "time": 196.171875,
          "velocity": 0.8582677165354331
        },
        {
          "duration": 0.10009765625,
          "durationTicks": 41,
          "midi": 56,
          "name": "G#3",
          "ticks": 80448,
          "time": 196.40625,
          "velocity": 0.7244094488188977
        },
        {
          "duration": 0.087890625,
          "durationTicks": 36,
          "midi": 61,
          "name": "C#4",
          "ticks": 80544,
          "time": 196.640625,
          "velocity": 0.7559055118110236
        },
        {
          "duration": 0.1025390625,
          "durationTicks": 42,
          "midi": 58,
          "name": "A#3",
          "ticks": 80640,
          "time": 196.875,
          "velocity": 0.7637795275590551
        },
        {
          "duration": 0.09765625,
          "durationTicks": 40,
          "midi": 61,
          "name": "C#4",
          "ticks": 80784,
          "time": 197.2265625,
          "velocity": 0.8110236220472441
        },
        {
          "duration": 0.107421875,
          "durationTicks": 44,
          "midi": 63,
          "name": "D#4",
          "ticks": 80928,
          "time": 197.578125,
          "velocity": 0.7795275590551181
        },
        {
          "duration": 0.07080078125,
          "durationTicks": 29,
          "midi": 63,
          "name": "D#4",
          "ticks": 81120,
          "time": 198.046875,
          "velocity": 0.8267716535433071
        },
        {
          "duration": 0.09765625,
          "durationTicks": 40,
          "midi": 56,
          "name": "G#3",
          "ticks": 81216,
          "time": 198.28125,
          "velocity": 0.6456692913385826
        },
        {
          "duration": 0.08544921875,
          "durationTicks": 35,
          "midi": 61,
          "name": "C#4",
          "ticks": 81312,
          "time": 198.515625,
          "velocity": 0.7401574803149606
        },
        {
          "duration": 0.087890625,
          "durationTicks": 36,
          "midi": 63,
          "name": "D#4",
          "ticks": 81408,
          "time": 198.75,
          "velocity": 0.7637795275590551
        },
        {
          "duration": 0.1025390625,
          "durationTicks": 42,
          "midi": 58,
          "name": "A#3",
          "ticks": 81552,
          "time": 199.1015625,
          "velocity": 0.7952755905511811
        },
        {
          "duration": 0.1025390625,
          "durationTicks": 42,
          "midi": 61,
          "name": "C#4",
          "ticks": 81696,
          "time": 199.453125,
          "velocity": 0.7007874015748031
        },
        {
          "duration": 0.08056640625,
          "durationTicks": 33,
          "midi": 61,
          "name": "C#4",
          "ticks": 81888,
          "time": 199.921875,
          "velocity": 0.7401574803149606
        },
        {
          "duration": 0.09033203125,
          "durationTicks": 37,
          "midi": 56,
          "name": "G#3",
          "ticks": 81984,
          "time": 200.15625,
          "velocity": 0.5984251968503937
        },
        {
          "duration": 0.09033203125,
          "durationTicks": 37,
          "midi": 61,
          "name": "C#4",
          "ticks": 82080,
          "time": 200.390625,
          "velocity": 0.7559055118110236
        },
        {
          "duration": 0.1025390625,
          "durationTicks": 42,
          "midi": 58,
          "name": "A#3",
          "ticks": 82176,
          "time": 200.625,
          "velocity": 0.7480314960629921
        },
        {
          "duration": 0.09765625,
          "durationTicks": 40,
          "midi": 61,
          "name": "C#4",
          "ticks": 82320,
          "time": 200.9765625,
          "velocity": 0.7244094488188977
        },
        {
          "duration": 0.078125,
          "durationTicks": 32,
          "midi": 63,
          "name": "D#4",
          "ticks": 82464,
          "time": 201.328125,
          "velocity": 0.7480314960629921
        },
        {
          "duration": 0.0927734375,
          "durationTicks": 38,
          "midi": 63,
          "name": "D#4",
          "ticks": 82656,
          "time": 201.796875,
          "velocity": 0.7480314960629921
        },
        {
          "duration": 0.08056640625,
          "durationTicks": 33,
          "midi": 56,
          "name": "G#3",
          "ticks": 82752,
          "time": 202.03125,
          "velocity": 0.5590551181102362
        },
        {
          "duration": 0.08544921875,
          "durationTicks": 35,
          "midi": 61,
          "name": "C#4",
          "ticks": 82848,
          "time": 202.265625,
          "velocity": 0.7401574803149606
        },
        {
          "duration": 0.10009765625,
          "durationTicks": 41,
          "midi": 58,
          "name": "A#3",
          "ticks": 82944,
          "time": 202.5,
          "velocity": 0.7401574803149606
        },
        {
          "duration": 0.10498046875,
          "durationTicks": 43,
          "midi": 61,
          "name": "C#4",
          "ticks": 83088,
          "time": 202.8515625,
          "velocity": 0.7244094488188977
        },
        {
          "duration": 0.13916015625,
          "durationTicks": 57,
          "midi": 63,
          "name": "D#4",
          "ticks": 83232,
          "time": 203.203125,
          "velocity": 0.7559055118110236
        },
        {
          "duration": 0.0927734375,
          "durationTicks": 38,
          "midi": 63,
          "name": "D#4",
          "ticks": 83424,
          "time": 203.671875,
          "velocity": 0.8110236220472441
        },
        {
          "duration": 0.09765625,
          "durationTicks": 40,
          "midi": 56,
          "name": "G#3",
          "ticks": 83520,
          "time": 203.90625,
          "velocity": 0.6614173228346457
        },
        {
          "duration": 0.087890625,
          "durationTicks": 36,
          "midi": 61,
          "name": "C#4",
          "ticks": 83616,
          "time": 204.140625,
          "velocity": 0.6929133858267716
        },
        {
          "duration": 0.1025390625,
          "durationTicks": 42,
          "midi": 58,
          "name": "A#3",
          "ticks": 83712,
          "time": 204.375,
          "velocity": 0.7795275590551181
        },
        {
          "duration": 0.09765625,
          "durationTicks": 40,
          "midi": 61,
          "name": "C#4",
          "ticks": 83856,
          "time": 204.7265625,
          "velocity": 0.8110236220472441
        },
        {
          "duration": 0.1171875,
          "durationTicks": 48,
          "midi": 63,
          "name": "D#4",
          "ticks": 84000,
          "time": 205.078125,
          "velocity": 0.7952755905511811
        },
        {
          "duration": 0.09033203125,
          "durationTicks": 37,
          "midi": 63,
          "name": "D#4",
          "ticks": 84192,
          "time": 205.546875,
          "velocity": 0.8503937007874016
        },
        {
          "duration": 0.1025390625,
          "durationTicks": 42,
          "midi": 56,
          "name": "G#3",
          "ticks": 84288,
          "time": 205.78125,
          "velocity": 0.6614173228346457
        },
        {
          "duration": 0.08544921875,
          "durationTicks": 35,
          "midi": 61,
          "name": "C#4",
          "ticks": 84384,
          "time": 206.015625,
          "velocity": 0.8267716535433071
        },
        {
          "duration": 0.12939453125,
          "durationTicks": 53,
          "midi": 63,
          "name": "D#4",
          "ticks": 84480,
          "time": 206.25,
          "velocity": 0.8976377952755905
        },
        {
          "duration": 0.126953125,
          "durationTicks": 52,
          "midi": 58,
          "name": "A#3",
          "ticks": 84624,
          "time": 206.6015625,
          "velocity": 0.7795275590551181
        },
        {
          "duration": 0.13427734375,
          "durationTicks": 55,
          "midi": 61,
          "name": "C#4",
          "ticks": 84768,
          "time": 206.953125,
          "velocity": 0.84251968503937
        },
        {
          "duration": 0.0830078125,
          "durationTicks": 34,
          "midi": 61,
          "name": "C#4",
          "ticks": 84960,
          "time": 207.421875,
          "velocity": 0.8582677165354331
        },
        {
          "duration": 0.10009765625,
          "durationTicks": 41,
          "midi": 56,
          "name": "G#3",
          "ticks": 85056,
          "time": 207.65625,
          "velocity": 0.7244094488188977
        },
        {
          "duration": 0.087890625,
          "durationTicks": 36,
          "midi": 61,
          "name": "C#4",
          "ticks": 85152,
          "time": 207.890625,
          "velocity": 0.7559055118110236
        },
        {
          "duration": 0.1025390625,
          "durationTicks": 42,
          "midi": 58,
          "name": "A#3",
          "ticks": 85248,
          "time": 208.125,
          "velocity": 0.7637795275590551
        },
        {
          "duration": 0.09765625,
          "durationTicks": 40,
          "midi": 61,
          "name": "C#4",
          "ticks": 85392,
          "time": 208.4765625,
          "velocity": 0.8110236220472441
        },
        {
          "duration": 0.107421875,
          "durationTicks": 44,
          "midi": 63,
          "name": "D#4",
          "ticks": 85536,
          "time": 208.828125,
          "velocity": 0.7795275590551181
        },
        {
          "duration": 0.07080078125,
          "durationTicks": 29,
          "midi": 63,
          "name": "D#4",
          "ticks": 85728,
          "time": 209.296875,
          "velocity": 0.8267716535433071
        },
        {
          "duration": 0.09765625,
          "durationTicks": 40,
          "midi": 56,
          "name": "G#3",
          "ticks": 85824,
          "time": 209.53125,
          "velocity": 0.6456692913385826
        },
        {
          "duration": 0.08544921875,
          "durationTicks": 35,
          "midi": 61,
          "name": "C#4",
          "ticks": 85920,
          "time": 209.765625,
          "velocity": 0.7401574803149606
        },
        {
          "duration": 0.087890625,
          "durationTicks": 36,
          "midi": 63,
          "name": "D#4",
          "ticks": 86016,
          "time": 210,
          "velocity": 0.7637795275590551
        },
        {
          "duration": 0.1025390625,
          "durationTicks": 42,
          "midi": 58,
          "name": "A#3",
          "ticks": 86160,
          "time": 210.3515625,
          "velocity": 0.7952755905511811
        },
        {
          "duration": 0.1025390625,
          "durationTicks": 42,
          "midi": 61,
          "name": "C#4",
          "ticks": 86304,
          "time": 210.703125,
          "velocity": 0.7007874015748031
        },
        {
          "duration": 0.08056640625,
          "durationTicks": 33,
          "midi": 61,
          "name": "C#4",
          "ticks": 86496,
          "time": 211.171875,
          "velocity": 0.7401574803149606
        },
        {
          "duration": 0.09033203125,
          "durationTicks": 37,
          "midi": 56,
          "name": "G#3",
          "ticks": 86592,
          "time": 211.40625,
          "velocity": 0.5984251968503937
        },
        {
          "duration": 0.09033203125,
          "durationTicks": 37,
          "midi": 61,
          "name": "C#4",
          "ticks": 86688,
          "time": 211.640625,
          "velocity": 0.7559055118110236
        },
        {
          "duration": 0.1025390625,
          "durationTicks": 42,
          "midi": 58,
          "name": "A#3",
          "ticks": 86784,
          "time": 211.875,
          "velocity": 0.7480314960629921
        },
        {
          "duration": 0.09765625,
          "durationTicks": 40,
          "midi": 61,
          "name": "C#4",
          "ticks": 86928,
          "time": 212.2265625,
          "velocity": 0.7244094488188977
        },
        {
          "duration": 0.078125,
          "durationTicks": 32,
          "midi": 63,
          "name": "D#4",
          "ticks": 87072,
          "time": 212.578125,
          "velocity": 0.7480314960629921
        },
        {
          "duration": 0.0927734375,
          "durationTicks": 38,
          "midi": 63,
          "name": "D#4",
          "ticks": 87264,
          "time": 213.046875,
          "velocity": 0.7480314960629921
        },
        {
          "duration": 0.08056640625,
          "durationTicks": 33,
          "midi": 56,
          "name": "G#3",
          "ticks": 87360,
          "time": 213.28125,
          "velocity": 0.5590551181102362
        },
        {
          "duration": 0.08544921875,
          "durationTicks": 35,
          "midi": 61,
          "name": "C#4",
          "ticks": 87456,
          "time": 213.515625,
          "velocity": 0.7401574803149606
        },
        {
          "duration": 0.10009765625,
          "durationTicks": 41,
          "midi": 58,
          "name": "A#3",
          "ticks": 87552,
          "time": 213.75,
          "velocity": 0.7401574803149606
        },
        {
          "duration": 0.10498046875,
          "durationTicks": 43,
          "midi": 61,
          "name": "C#4",
          "ticks": 87696,
          "time": 214.1015625,
          "velocity": 0.7244094488188977
        },
        {
          "duration": 0.13916015625,
          "durationTicks": 57,
          "midi": 63,
          "name": "D#4",
          "ticks": 87840,
          "time": 214.453125,
          "velocity": 0.7559055118110236
        },
        {
          "duration": 0.0927734375,
          "durationTicks": 38,
          "midi": 63,
          "name": "D#4",
          "ticks": 88032,
          "time": 214.921875,
          "velocity": 0.8110236220472441
        },
        {
          "duration": 0.09765625,
          "durationTicks": 40,
          "midi": 56,
          "name": "G#3",
          "ticks": 88128,
          "time": 215.15625,
          "velocity": 0.6614173228346457
        },
        {
          "duration": 0.087890625,
          "durationTicks": 36,
          "midi": 61,
          "name": "C#4",
          "ticks": 88224,
          "time": 215.390625,
          "velocity": 0.6929133858267716
        },
        {
          "duration": 0.1025390625,
          "durationTicks": 42,
          "midi": 58,
          "name": "A#3",
          "ticks": 88320,
          "time": 215.625,
          "velocity": 0.7795275590551181
        },
        {
          "duration": 0.09765625,
          "durationTicks": 40,
          "midi": 61,
          "name": "C#4",
          "ticks": 88464,
          "time": 215.9765625,
          "velocity": 0.8110236220472441
        },
        {
          "duration": 0.1171875,
          "durationTicks": 48,
          "midi": 63,
          "name": "D#4",
          "ticks": 88608,
          "time": 216.328125,
          "velocity": 0.7952755905511811
        },
        {
          "duration": 0.09033203125,
          "durationTicks": 37,
          "midi": 63,
          "name": "D#4",
          "ticks": 88800,
          "time": 216.796875,
          "velocity": 0.8503937007874016
        },
        {
          "duration": 0.1025390625,
          "durationTicks": 42,
          "midi": 56,
          "name": "G#3",
          "ticks": 88896,
          "time": 217.03125,
          "velocity": 0.6614173228346457
        },
        {
          "duration": 0.08544921875,
          "durationTicks": 35,
          "midi": 61,
          "name": "C#4",
          "ticks": 88992,
          "time": 217.265625,
          "velocity": 0.8267716535433071
        },
        {
          "duration": 0.10498046875,
          "durationTicks": 43,
          "midi": 63,
          "name": "D#4",
          "ticks": 89088,
          "time": 217.5,
          "velocity": 0.8740157480314961
        },
        {
          "duration": 0.078125,
          "durationTicks": 32,
          "midi": 58,
          "name": "A#3",
          "ticks": 89184,
          "time": 217.734375,
          "velocity": 0.6141732283464567
        },
        {
          "duration": 0.08056640625,
          "durationTicks": 33,
          "midi": 63,
          "name": "D#4",
          "ticks": 89280,
          "time": 217.96875,
          "velocity": 0.7401574803149606
        },
        {
          "duration": 0.2734375,
          "durationTicks": 112,
          "midi": 61,
          "name": "C#4",
          "ticks": 89376,
          "time": 218.203125,
          "velocity": 0.6614173228346457
        },
        {
          "duration": 0.07568359375,
          "durationTicks": 31,
          "midi": 61,
          "name": "C#4",
          "ticks": 89568,
          "time": 218.671875,
          "velocity": 0.8267716535433071
        },
        {
          "duration": 0.07568359375,
          "durationTicks": 31,
          "midi": 56,
          "name": "G#3",
          "ticks": 89664,
          "time": 218.90625,
          "velocity": 0.6062992125984252
        },
        {
          "duration": 0.078125,
          "durationTicks": 32,
          "midi": 61,
          "name": "C#4",
          "ticks": 89760,
          "time": 219.140625,
          "velocity": 0.7244094488188977
        },
        {
          "duration": 0.087890625,
          "durationTicks": 36,
          "midi": 59,
          "name": "B3",
          "ticks": 89856,
          "time": 219.375,
          "velocity": 0.7007874015748031
        },
        {
          "duration": 0.0732421875,
          "durationTicks": 30,
          "midi": 54,
          "name": "F#3",
          "ticks": 89952,
          "time": 219.609375,
          "velocity": 0.7007874015748031
        },
        {
          "duration": 0.08544921875,
          "durationTicks": 35,
          "midi": 59,
          "name": "B3",
          "ticks": 90048,
          "time": 219.84375,
          "velocity": 0.6771653543307087
        },
        {
          "duration": 0.25634765625,
          "durationTicks": 105,
          "midi": 58,
          "name": "A#3",
          "ticks": 90144,
          "time": 220.078125,
          "velocity": 0.5826771653543307
        },
        {
          "duration": 0.078125,
          "durationTicks": 32,
          "midi": 58,
          "name": "A#3",
          "ticks": 90336,
          "time": 220.546875,
          "velocity": 0.6141732283464567
        },
        {
          "duration": 0.08544921875,
          "durationTicks": 35,
          "midi": 61,
          "name": "C#4",
          "ticks": 90432,
          "time": 220.78125,
          "velocity": 0.6929133858267716
        },
        {
          "duration": 0.08544921875,
          "durationTicks": 35,
          "midi": 58,
          "name": "A#3",
          "ticks": 90528,
          "time": 221.015625,
          "velocity": 0.5748031496062992
        },
        {
          "duration": 0.08056640625,
          "durationTicks": 33,
          "midi": 63,
          "name": "D#4",
          "ticks": 90624,
          "time": 221.25,
          "velocity": 0.7007874015748031
        },
        {
          "duration": 0.078125,
          "durationTicks": 32,
          "midi": 58,
          "name": "A#3",
          "ticks": 90720,
          "time": 221.484375,
          "velocity": 0.5039370078740157
        },
        {
          "duration": 0.0732421875,
          "durationTicks": 30,
          "midi": 63,
          "name": "D#4",
          "ticks": 90816,
          "time": 221.71875,
          "velocity": 0.6929133858267716
        },
        {
          "duration": 0.28076171875,
          "durationTicks": 115,
          "midi": 61,
          "name": "C#4",
          "ticks": 90912,
          "time": 221.953125,
          "velocity": 0.6062992125984252
        },
        {
          "duration": 0.07080078125,
          "durationTicks": 29,
          "midi": 61,
          "name": "C#4",
          "ticks": 91104,
          "time": 222.421875,
          "velocity": 0.6929133858267716
        },
        {
          "duration": 0.09033203125,
          "durationTicks": 37,
          "midi": 56,
          "name": "G#3",
          "ticks": 91200,
          "time": 222.65625,
          "velocity": 0.6456692913385826
        },
        {
          "duration": 0.06591796875,
          "durationTicks": 27,
          "midi": 61,
          "name": "C#4",
          "ticks": 91296,
          "time": 222.890625,
          "velocity": 0.7480314960629921
        },
        {
          "duration": 0.08544921875,
          "durationTicks": 35,
          "midi": 59,
          "name": "B3",
          "ticks": 91392,
          "time": 223.125,
          "velocity": 0.7322834645669292
        },
        {
          "duration": 0.07080078125,
          "durationTicks": 29,
          "midi": 54,
          "name": "F#3",
          "ticks": 91488,
          "time": 223.359375,
          "velocity": 0.6929133858267716
        },
        {
          "duration": 0.0927734375,
          "durationTicks": 38,
          "midi": 59,
          "name": "B3",
          "ticks": 91584,
          "time": 223.59375,
          "velocity": 0.6771653543307087
        },
        {
          "duration": 0.2880859375,
          "durationTicks": 118,
          "midi": 58,
          "name": "A#3",
          "ticks": 91680,
          "time": 223.828125,
          "velocity": 0.5984251968503937
        },
        {
          "duration": 0.0927734375,
          "durationTicks": 38,
          "midi": 58,
          "name": "A#3",
          "ticks": 91872,
          "time": 224.296875,
          "velocity": 0.6614173228346457
        },
        {
          "duration": 0.09521484375,
          "durationTicks": 39,
          "midi": 61,
          "name": "C#4",
          "ticks": 91968,
          "time": 224.53125,
          "velocity": 0.6062992125984252
        },
        {
          "duration": 0.08056640625,
          "durationTicks": 33,
          "midi": 58,
          "name": "A#3",
          "ticks": 92064,
          "time": 224.765625,
          "velocity": 0.5905511811023622
        },
        {
          "duration": 0.0927734375,
          "durationTicks": 38,
          "midi": 63,
          "name": "D#4",
          "ticks": 92160,
          "time": 225,
          "velocity": 0.7480314960629921
        },
        {
          "duration": 0.07080078125,
          "durationTicks": 29,
          "midi": 58,
          "name": "A#3",
          "ticks": 92256,
          "time": 225.234375,
          "velocity": 0.5511811023622047
        },
        {
          "duration": 0.09521484375,
          "durationTicks": 39,
          "midi": 63,
          "name": "D#4",
          "ticks": 92352,
          "time": 225.46875,
          "velocity": 0.8110236220472441
        },
        {
          "duration": 0.30029296875,
          "durationTicks": 123,
          "midi": 61,
          "name": "C#4",
          "ticks": 92448,
          "time": 225.703125,
          "velocity": 0.6929133858267716
        },
        {
          "duration": 0.09033203125,
          "durationTicks": 37,
          "midi": 61,
          "name": "C#4",
          "ticks": 92640,
          "time": 226.171875,
          "velocity": 0.6929133858267716
        },
        {
          "duration": 0.10009765625,
          "durationTicks": 41,
          "midi": 56,
          "name": "G#3",
          "ticks": 92736,
          "time": 226.40625,
          "velocity": 0.6062992125984252
        },
        {
          "duration": 0.126953125,
          "durationTicks": 52,
          "midi": 59,
          "name": "B3",
          "ticks": 92832,
          "time": 226.640625,
          "velocity": 0.6299212598425197
        },
        {
          "duration": 0.13427734375,
          "durationTicks": 55,
          "midi": 59,
          "name": "B3",
          "ticks": 92928,
          "time": 226.875,
          "velocity": 0.7716535433070866
        },
        {
          "duration": 0.09033203125,
          "durationTicks": 37,
          "midi": 54,
          "name": "F#3",
          "ticks": 93024,
          "time": 227.109375,
          "velocity": 0.8110236220472441
        },
        {
          "duration": 0.1220703125,
          "durationTicks": 50,
          "midi": 59,
          "name": "B3",
          "ticks": 93120,
          "time": 227.34375,
          "velocity": 0.6692913385826772
        },
        {
          "duration": 0.2685546875,
          "durationTicks": 110,
          "midi": 58,
          "name": "A#3",
          "ticks": 93216,
          "time": 227.578125,
          "velocity": 0.6299212598425197
        },
        {
          "duration": 0.07568359375,
          "durationTicks": 31,
          "midi": 58,
          "name": "A#3",
          "ticks": 93408,
          "time": 228.046875,
          "velocity": 0.6929133858267716
        },
        {
          "duration": 0.1220703125,
          "durationTicks": 50,
          "midi": 61,
          "name": "C#4",
          "ticks": 93504,
          "time": 228.28125,
          "velocity": 0.5669291338582677
        },
        {
          "duration": 0.09765625,
          "durationTicks": 40,
          "midi": 58,
          "name": "A#3",
          "ticks": 93600,
          "time": 228.515625,
          "velocity": 0.6141732283464567
        },
        {
          "duration": 0.10009765625,
          "durationTicks": 41,
          "midi": 63,
          "name": "D#4",
          "ticks": 93696,
          "time": 228.75,
          "velocity": 0.7244094488188977
        },
        {
          "duration": 0.0830078125,
          "durationTicks": 34,
          "midi": 58,
          "name": "A#3",
          "ticks": 93792,
          "time": 228.984375,
          "velocity": 0.5196850393700787
        },
        {
          "duration": 0.09521484375,
          "durationTicks": 39,
          "midi": 63,
          "name": "D#4",
          "ticks": 93888,
          "time": 229.21875,
          "velocity": 0.7480314960629921
        },
        {
          "duration": 0.283203125,
          "durationTicks": 116,
          "midi": 61,
          "name": "C#4",
          "ticks": 93984,
          "time": 229.453125,
          "velocity": 0.6141732283464567
        },
        {
          "duration": 0.107421875,
          "durationTicks": 44,
          "midi": 61,
          "name": "C#4",
          "ticks": 94176,
          "time": 229.921875,
          "velocity": 0.6535433070866141
        },
        {
          "duration": 0.09521484375,
          "durationTicks": 39,
          "midi": 56,
          "name": "G#3",
          "ticks": 94272,
          "time": 230.15625,
          "velocity": 0.6692913385826772
        },
        {
          "duration": 0.0927734375,
          "durationTicks": 38,
          "midi": 59,
          "name": "B3",
          "ticks": 94368,
          "time": 230.390625,
          "velocity": 0.7007874015748031
        },
        {
          "duration": 0.08056640625,
          "durationTicks": 33,
          "midi": 61,
          "name": "C#4",
          "ticks": 94464,
          "time": 230.625,
          "velocity": 0.6850393700787402
        },
        {
          "duration": 0.08056640625,
          "durationTicks": 33,
          "midi": 59,
          "name": "B3",
          "ticks": 94560,
          "time": 230.859375,
          "velocity": 0.6614173228346457
        },
        {
          "duration": 0.0732421875,
          "durationTicks": 30,
          "midi": 61,
          "name": "C#4",
          "ticks": 94656,
          "time": 231.09375,
          "velocity": 0.6692913385826772
        },
        {
          "duration": 0.400390625,
          "durationTicks": 164,
          "midi": 63,
          "name": "D#4",
          "ticks": 94752,
          "time": 231.328125,
          "velocity": 0.6614173228346457
        },
        {
          "duration": 0.08056640625,
          "durationTicks": 33,
          "midi": 61,
          "name": "C#4",
          "ticks": 95040,
          "time": 232.03125,
          "velocity": 0.7244094488188977
        },
        {
          "duration": 0.3466796875,
          "durationTicks": 142,
          "midi": 63,
          "name": "D#4",
          "ticks": 95136,
          "time": 232.265625,
          "velocity": 0.7007874015748031
        },
        {
          "duration": 0.107421875,
          "durationTicks": 44,
          "midi": 63,
          "name": "D#4",
          "ticks": 95328,
          "time": 232.734375,
          "velocity": 0.6929133858267716
        },
        {
          "duration": 0.0830078125,
          "durationTicks": 34,
          "midi": 58,
          "name": "A#3",
          "ticks": 95424,
          "time": 232.96875,
          "velocity": 0.5984251968503937
        },
        {
          "duration": 0.0927734375,
          "durationTicks": 38,
          "midi": 61,
          "name": "C#4",
          "ticks": 95520,
          "time": 233.203125,
          "velocity": 0.6535433070866141
        },
        {
          "duration": 0.1904296875,
          "durationTicks": 78,
          "midi": 63,
          "name": "D#4",
          "ticks": 95616,
          "time": 233.4375,
          "velocity": 0.5590551181102362
        },
        {
          "duration": 0.1513671875,
          "durationTicks": 62,
          "midi": 63,
          "name": "D#4",
          "ticks": 95712,
          "time": 233.671875,
          "velocity": 0.7952755905511811
        },
        {
          "duration": 0.22216796875,
          "durationTicks": 91,
          "midi": 66,
          "name": "F#4",
          "ticks": 95808,
          "time": 233.90625,
          "velocity": 0.9133858267716536
        },
        {
          "duration": 0.1806640625,
          "durationTicks": 74,
          "midi": 63,
          "name": "D#4",
          "ticks": 95904,
          "time": 234.140625,
          "velocity": 0.8661417322834646
        },
        {
          "duration": 0.12939453125,
          "durationTicks": 53,
          "midi": 63,
          "name": "D#4",
          "ticks": 96384,
          "time": 235.3125,
          "velocity": 0.8976377952755905
        },
        {
          "duration": 0.126953125,
          "durationTicks": 52,
          "midi": 58,
          "name": "A#3",
          "ticks": 96528,
          "time": 235.6640625,
          "velocity": 0.7795275590551181
        },
        {
          "duration": 0.13427734375,
          "durationTicks": 55,
          "midi": 61,
          "name": "C#4",
          "ticks": 96672,
          "time": 236.015625,
          "velocity": 0.84251968503937
        },
        {
          "duration": 0.0830078125,
          "durationTicks": 34,
          "midi": 61,
          "name": "C#4",
          "ticks": 96864,
          "time": 236.484375,
          "velocity": 0.8582677165354331
        },
        {
          "duration": 0.10009765625,
          "durationTicks": 41,
          "midi": 56,
          "name": "G#3",
          "ticks": 96960,
          "time": 236.71875,
          "velocity": 0.7244094488188977
        },
        {
          "duration": 0.087890625,
          "durationTicks": 36,
          "midi": 61,
          "name": "C#4",
          "ticks": 97056,
          "time": 236.953125,
          "velocity": 0.7559055118110236
        },
        {
          "duration": 0.1025390625,
          "durationTicks": 42,
          "midi": 58,
          "name": "A#3",
          "ticks": 97152,
          "time": 237.1875,
          "velocity": 0.7637795275590551
        },
        {
          "duration": 0.09765625,
          "durationTicks": 40,
          "midi": 61,
          "name": "C#4",
          "ticks": 97296,
          "time": 237.5390625,
          "velocity": 0.8110236220472441
        },
        {
          "duration": 0.107421875,
          "durationTicks": 44,
          "midi": 63,
          "name": "D#4",
          "ticks": 97440,
          "time": 237.890625,
          "velocity": 0.7795275590551181
        },
        {
          "duration": 0.07080078125,
          "durationTicks": 29,
          "midi": 63,
          "name": "D#4",
          "ticks": 97632,
          "time": 238.359375,
          "velocity": 0.8267716535433071
        },
        {
          "duration": 0.09765625,
          "durationTicks": 40,
          "midi": 56,
          "name": "G#3",
          "ticks": 97728,
          "time": 238.59375,
          "velocity": 0.6456692913385826
        },
        {
          "duration": 0.08544921875,
          "durationTicks": 35,
          "midi": 61,
          "name": "C#4",
          "ticks": 97824,
          "time": 238.828125,
          "velocity": 0.7401574803149606
        },
        {
          "duration": 0.087890625,
          "durationTicks": 36,
          "midi": 63,
          "name": "D#4",
          "ticks": 97920,
          "time": 239.0625,
          "velocity": 0.7637795275590551
        },
        {
          "duration": 0.1025390625,
          "durationTicks": 42,
          "midi": 58,
          "name": "A#3",
          "ticks": 98064,
          "time": 239.4140625,
          "velocity": 0.7952755905511811
        },
        {
          "duration": 0.1025390625,
          "durationTicks": 42,
          "midi": 61,
          "name": "C#4",
          "ticks": 98208,
          "time": 239.765625,
          "velocity": 0.7007874015748031
        },
        {
          "duration": 0.08056640625,
          "durationTicks": 33,
          "midi": 61,
          "name": "C#4",
          "ticks": 98400,
          "time": 240.234375,
          "velocity": 0.7401574803149606
        },
        {
          "duration": 0.09033203125002842,
          "durationTicks": 37,
          "midi": 56,
          "name": "G#3",
          "ticks": 98496,
          "time": 240.46875,
          "velocity": 0.5984251968503937
        },
        {
          "duration": 0.09033203125002842,
          "durationTicks": 37,
          "midi": 61,
          "name": "C#4",
          "ticks": 98592,
          "time": 240.703125,
          "velocity": 0.7559055118110236
        },
        {
          "duration": 0.1025390625,
          "durationTicks": 42,
          "midi": 58,
          "name": "A#3",
          "ticks": 98688,
          "time": 240.9375,
          "velocity": 0.7480314960629921
        },
        {
          "duration": 0.09765625000002842,
          "durationTicks": 40,
          "midi": 61,
          "name": "C#4",
          "ticks": 98832,
          "time": 241.2890625,
          "velocity": 0.7244094488188977
        },
        {
          "duration": 0.07812499999997158,
          "durationTicks": 32,
          "midi": 63,
          "name": "D#4",
          "ticks": 98976,
          "time": 241.640625,
          "velocity": 0.7480314960629921
        },
        {
          "duration": 0.09277343749997158,
          "durationTicks": 38,
          "midi": 63,
          "name": "D#4",
          "ticks": 99168,
          "time": 242.109375,
          "velocity": 0.7480314960629921
        },
        {
          "duration": 0.08056640625,
          "durationTicks": 33,
          "midi": 56,
          "name": "G#3",
          "ticks": 99264,
          "time": 242.34375,
          "velocity": 0.5590551181102362
        },
        {
          "duration": 0.08544921874997158,
          "durationTicks": 35,
          "midi": 61,
          "name": "C#4",
          "ticks": 99360,
          "time": 242.578125,
          "velocity": 0.7401574803149606
        },
        {
          "duration": 0.10009765624997158,
          "durationTicks": 41,
          "midi": 58,
          "name": "A#3",
          "ticks": 99456,
          "time": 242.8125,
          "velocity": 0.7401574803149606
        },
        {
          "duration": 0.10498046875002842,
          "durationTicks": 43,
          "midi": 61,
          "name": "C#4",
          "ticks": 99600,
          "time": 243.1640625,
          "velocity": 0.7244094488188977
        },
        {
          "duration": 0.13916015625,
          "durationTicks": 57,
          "midi": 63,
          "name": "D#4",
          "ticks": 99744,
          "time": 243.515625,
          "velocity": 0.7559055118110236
        },
        {
          "duration": 0.09277343749997158,
          "durationTicks": 38,
          "midi": 63,
          "name": "D#4",
          "ticks": 99936,
          "time": 243.984375,
          "velocity": 0.8110236220472441
        },
        {
          "duration": 0.09765625000002842,
          "durationTicks": 40,
          "midi": 56,
          "name": "G#3",
          "ticks": 100032,
          "time": 244.21875,
          "velocity": 0.6614173228346457
        },
        {
          "duration": 0.087890625,
          "durationTicks": 36,
          "midi": 61,
          "name": "C#4",
          "ticks": 100128,
          "time": 244.453125,
          "velocity": 0.6929133858267716
        },
        {
          "duration": 0.1025390625,
          "durationTicks": 42,
          "midi": 58,
          "name": "A#3",
          "ticks": 100224,
          "time": 244.6875,
          "velocity": 0.7795275590551181
        },
        {
          "duration": 0.09765625000002842,
          "durationTicks": 40,
          "midi": 61,
          "name": "C#4",
          "ticks": 100368,
          "time": 245.0390625,
          "velocity": 0.8110236220472441
        },
        {
          "duration": 0.1171875,
          "durationTicks": 48,
          "midi": 63,
          "name": "D#4",
          "ticks": 100512,
          "time": 245.390625,
          "velocity": 0.7952755905511811
        },
        {
          "duration": 0.09033203125002842,
          "durationTicks": 37,
          "midi": 63,
          "name": "D#4",
          "ticks": 100704,
          "time": 245.859375,
          "velocity": 0.8503937007874016
        },
        {
          "duration": 0.21240234375,
          "durationTicks": 87,
          "midi": 58,
          "name": "A#3",
          "ticks": 100800,
          "time": 246.09375,
          "velocity": 0.84251968503937
        },
        {
          "duration": 0.18310546875,
          "durationTicks": 75,
          "midi": 56,
          "name": "G#3",
          "ticks": 100896,
          "time": 246.328125,
          "velocity": 0.937007874015748
        },
        {
          "duration": 0.10498046875002842,
          "durationTicks": 43,
          "midi": 63,
          "name": "D#4",
          "ticks": 100992,
          "time": 246.5625,
          "velocity": 0.8740157480314961
        },
        {
          "duration": 0.07812499999997158,
          "durationTicks": 32,
          "midi": 58,
          "name": "A#3",
          "ticks": 101088,
          "time": 246.796875,
          "velocity": 0.6141732283464567
        },
        {
          "duration": 0.08056640625,
          "durationTicks": 33,
          "midi": 63,
          "name": "D#4",
          "ticks": 101184,
          "time": 247.03125,
          "velocity": 0.7401574803149606
        },
        {
          "duration": 0.2734375000000284,
          "durationTicks": 112,
          "midi": 61,
          "name": "C#4",
          "ticks": 101280,
          "time": 247.265625,
          "velocity": 0.6614173228346457
        },
        {
          "duration": 0.07568359375002842,
          "durationTicks": 31,
          "midi": 61,
          "name": "C#4",
          "ticks": 101472,
          "time": 247.734375,
          "velocity": 0.8267716535433071
        },
        {
          "duration": 0.07568359375002842,
          "durationTicks": 31,
          "midi": 56,
          "name": "G#3",
          "ticks": 101568,
          "time": 247.96875,
          "velocity": 0.6062992125984252
        },
        {
          "duration": 0.07812499999997158,
          "durationTicks": 32,
          "midi": 61,
          "name": "C#4",
          "ticks": 101664,
          "time": 248.203125,
          "velocity": 0.7244094488188977
        },
        {
          "duration": 0.087890625,
          "durationTicks": 36,
          "midi": 59,
          "name": "B3",
          "ticks": 101760,
          "time": 248.4375,
          "velocity": 0.7007874015748031
        },
        {
          "duration": 0.0732421875,
          "durationTicks": 30,
          "midi": 54,
          "name": "F#3",
          "ticks": 101856,
          "time": 248.671875,
          "velocity": 0.7007874015748031
        },
        {
          "duration": 0.08544921874997158,
          "durationTicks": 35,
          "midi": 59,
          "name": "B3",
          "ticks": 101952,
          "time": 248.90625,
          "velocity": 0.6771653543307087
        },
        {
          "duration": 0.25634765625,
          "durationTicks": 105,
          "midi": 58,
          "name": "A#3",
          "ticks": 102048,
          "time": 249.140625,
          "velocity": 0.5826771653543307
        },
        {
          "duration": 0.07812499999997158,
          "durationTicks": 32,
          "midi": 58,
          "name": "A#3",
          "ticks": 102240,
          "time": 249.609375,
          "velocity": 0.6141732283464567
        },
        {
          "duration": 0.08544921874997158,
          "durationTicks": 35,
          "midi": 61,
          "name": "C#4",
          "ticks": 102336,
          "time": 249.84375,
          "velocity": 0.6929133858267716
        },
        {
          "duration": 0.08544921874997158,
          "durationTicks": 35,
          "midi": 58,
          "name": "A#3",
          "ticks": 102432,
          "time": 250.078125,
          "velocity": 0.5748031496062992
        },
        {
          "duration": 0.08056640625,
          "durationTicks": 33,
          "midi": 63,
          "name": "D#4",
          "ticks": 102528,
          "time": 250.3125,
          "velocity": 0.7007874015748031
        },
        {
          "duration": 0.07812499999997158,
          "durationTicks": 32,
          "midi": 58,
          "name": "A#3",
          "ticks": 102624,
          "time": 250.546875,
          "velocity": 0.5039370078740157
        },
        {
          "duration": 0.0732421875,
          "durationTicks": 30,
          "midi": 63,
          "name": "D#4",
          "ticks": 102720,
          "time": 250.78125,
          "velocity": 0.6929133858267716
        },
        {
          "duration": 0.2807617187500284,
          "durationTicks": 115,
          "midi": 61,
          "name": "C#4",
          "ticks": 102816,
          "time": 251.015625,
          "velocity": 0.6062992125984252
        },
        {
          "duration": 0.07080078124997158,
          "durationTicks": 29,
          "midi": 61,
          "name": "C#4",
          "ticks": 103008,
          "time": 251.484375,
          "velocity": 0.6929133858267716
        },
        {
          "duration": 0.09033203125002842,
          "durationTicks": 37,
          "midi": 56,
          "name": "G#3",
          "ticks": 103104,
          "time": 251.71875,
          "velocity": 0.6456692913385826
        },
        {
          "duration": 0.06591796875,
          "durationTicks": 27,
          "midi": 61,
          "name": "C#4",
          "ticks": 103200,
          "time": 251.953125,
          "velocity": 0.7480314960629921
        },
        {
          "duration": 0.08544921874997158,
          "durationTicks": 35,
          "midi": 59,
          "name": "B3",
          "ticks": 103296,
          "time": 252.1875,
          "velocity": 0.7322834645669292
        },
        {
          "duration": 0.07080078124997158,
          "durationTicks": 29,
          "midi": 54,
          "name": "F#3",
          "ticks": 103392,
          "time": 252.421875,
          "velocity": 0.6929133858267716
        },
        {
          "duration": 0.09277343749997158,
          "durationTicks": 38,
          "midi": 59,
          "name": "B3",
          "ticks": 103488,
          "time": 252.65625,
          "velocity": 0.6771653543307087
        },
        {
          "duration": 0.2880859375000284,
          "durationTicks": 118,
          "midi": 58,
          "name": "A#3",
          "ticks": 103584,
          "time": 252.890625,
          "velocity": 0.5984251968503937
        },
        {
          "duration": 0.09277343749997158,
          "durationTicks": 38,
          "midi": 58,
          "name": "A#3",
          "ticks": 103776,
          "time": 253.359375,
          "velocity": 0.6614173228346457
        },
        {
          "duration": 0.09521484375,
          "durationTicks": 39,
          "midi": 61,
          "name": "C#4",
          "ticks": 103872,
          "time": 253.59375,
          "velocity": 0.6062992125984252
        },
        {
          "duration": 0.08056640625,
          "durationTicks": 33,
          "midi": 58,
          "name": "A#3",
          "ticks": 103968,
          "time": 253.828125,
          "velocity": 0.5905511811023622
        },
        {
          "duration": 0.09277343749997158,
          "durationTicks": 38,
          "midi": 63,
          "name": "D#4",
          "ticks": 104064,
          "time": 254.0625,
          "velocity": 0.7480314960629921
        },
        {
          "duration": 0.07080078124997158,
          "durationTicks": 29,
          "midi": 58,
          "name": "A#3",
          "ticks": 104160,
          "time": 254.296875,
          "velocity": 0.5511811023622047
        },
        {
          "duration": 0.09521484375,
          "durationTicks": 39,
          "midi": 63,
          "name": "D#4",
          "ticks": 104256,
          "time": 254.53125,
          "velocity": 0.8110236220472441
        },
        {
          "duration": 0.30029296875,
          "durationTicks": 123,
          "midi": 61,
          "name": "C#4",
          "ticks": 104352,
          "time": 254.765625,
          "velocity": 0.6929133858267716
        },
        {
          "duration": 0.09033203125002842,
          "durationTicks": 37,
          "midi": 61,
          "name": "C#4",
          "ticks": 104544,
          "time": 255.234375,
          "velocity": 0.6929133858267716
        },
        {
          "duration": 0.10009765624997158,
          "durationTicks": 41,
          "midi": 56,
          "name": "G#3",
          "ticks": 104640,
          "time": 255.46875,
          "velocity": 0.6062992125984252
        },
        {
          "duration": 0.12695312500002842,
          "durationTicks": 52,
          "midi": 59,
          "name": "B3",
          "ticks": 104736,
          "time": 255.703125,
          "velocity": 0.6299212598425197
        },
        {
          "duration": 0.13427734375,
          "durationTicks": 55,
          "midi": 59,
          "name": "B3",
          "ticks": 104832,
          "time": 255.9375,
          "velocity": 0.7716535433070866
        },
        {
          "duration": 0.09033203125,
          "durationTicks": 37,
          "midi": 54,
          "name": "F#3",
          "ticks": 104928,
          "time": 256.171875,
          "velocity": 0.8110236220472441
        },
        {
          "duration": 0.1220703125,
          "durationTicks": 50,
          "midi": 59,
          "name": "B3",
          "ticks": 105024,
          "time": 256.40625,
          "velocity": 0.6692913385826772
        },
        {
          "duration": 0.2685546875,
          "durationTicks": 110,
          "midi": 58,
          "name": "A#3",
          "ticks": 105120,
          "time": 256.640625,
          "velocity": 0.6299212598425197
        },
        {
          "duration": 0.07568359375,
          "durationTicks": 31,
          "midi": 58,
          "name": "A#3",
          "ticks": 105312,
          "time": 257.109375,
          "velocity": 0.6929133858267716
        },
        {
          "duration": 0.1220703125,
          "durationTicks": 50,
          "midi": 61,
          "name": "C#4",
          "ticks": 105408,
          "time": 257.34375,
          "velocity": 0.5669291338582677
        },
        {
          "duration": 0.09765625,
          "durationTicks": 40,
          "midi": 58,
          "name": "A#3",
          "ticks": 105504,
          "time": 257.578125,
          "velocity": 0.6141732283464567
        },
        {
          "duration": 0.10009765625,
          "durationTicks": 41,
          "midi": 63,
          "name": "D#4",
          "ticks": 105600,
          "time": 257.8125,
          "velocity": 0.7244094488188977
        },
        {
          "duration": 0.0830078125,
          "durationTicks": 34,
          "midi": 58,
          "name": "A#3",
          "ticks": 105696,
          "time": 258.046875,
          "velocity": 0.5196850393700787
        },
        {
          "duration": 0.09521484375,
          "durationTicks": 39,
          "midi": 63,
          "name": "D#4",
          "ticks": 105792,
          "time": 258.28125,
          "velocity": 0.7480314960629921
        },
        {
          "duration": 0.283203125,
          "durationTicks": 116,
          "midi": 61,
          "name": "C#4",
          "ticks": 105888,
          "time": 258.515625,
          "velocity": 0.6141732283464567
        },
        {
          "duration": 0.107421875,
          "durationTicks": 44,
          "midi": 61,
          "name": "C#4",
          "ticks": 106080,
          "time": 258.984375,
          "velocity": 0.6535433070866141
        },
        {
          "duration": 0.09521484375,
          "durationTicks": 39,
          "midi": 56,
          "name": "G#3",
          "ticks": 106176,
          "time": 259.21875,
          "velocity": 0.6692913385826772
        },
        {
          "duration": 0.0927734375,
          "durationTicks": 38,
          "midi": 59,
          "name": "B3",
          "ticks": 106272,
          "time": 259.453125,
          "velocity": 0.7007874015748031
        },
        {
          "duration": 0.08056640625,
          "durationTicks": 33,
          "midi": 61,
          "name": "C#4",
          "ticks": 106368,
          "time": 259.6875,
          "velocity": 0.6850393700787402
        },
        {
          "duration": 0.08056640625,
          "durationTicks": 33,
          "midi": 59,
          "name": "B3",
          "ticks": 106464,
          "time": 259.921875,
          "velocity": 0.6614173228346457
        },
        {
          "duration": 0.0732421875,
          "durationTicks": 30,
          "midi": 61,
          "name": "C#4",
          "ticks": 106560,
          "time": 260.15625,
          "velocity": 0.6692913385826772
        },
        {
          "duration": 0.400390625,
          "durationTicks": 164,
          "midi": 63,
          "name": "D#4",
          "ticks": 106656,
          "time": 260.390625,
          "velocity": 0.6614173228346457
        },
        {
          "duration": 0.08056640625,
          "durationTicks": 33,
          "midi": 61,
          "name": "C#4",
          "ticks": 106944,
          "time": 261.09375,
          "velocity": 0.7244094488188977
        },
        {
          "duration": 0.3466796875,
          "durationTicks": 142,
          "midi": 63,
          "name": "D#4",
          "ticks": 107040,
          "time": 261.328125,
          "velocity": 0.7007874015748031
        },
        {
          "duration": 0.107421875,
          "durationTicks": 44,
          "midi": 63,
          "name": "D#4",
          "ticks": 107232,
          "time": 261.796875,
          "velocity": 0.6929133858267716
        },
        {
          "duration": 0.0830078125,
          "durationTicks": 34,
          "midi": 58,
          "name": "A#3",
          "ticks": 107328,
          "time": 262.03125,
          "velocity": 0.5984251968503937
        },
        {
          "duration": 0.0927734375,
          "durationTicks": 38,
          "midi": 61,
          "name": "C#4",
          "ticks": 107424,
          "time": 262.265625,
          "velocity": 0.6535433070866141
        },
        {
          "duration": 0.1904296875,
          "durationTicks": 78,
          "midi": 63,
          "name": "D#4",
          "ticks": 107520,
          "time": 262.5,
          "velocity": 0.5590551181102362
        },
        {
          "duration": 0.1513671875,
          "durationTicks": 62,
          "midi": 63,
          "name": "D#4",
          "ticks": 107616,
          "time": 262.734375,
          "velocity": 0.7952755905511811
        },
        {
          "duration": 0.22216796875,
          "durationTicks": 91,
          "midi": 66,
          "name": "F#4",
          "ticks": 107712,
          "time": 262.96875,
          "velocity": 0.9133858267716536
        },
        {
          "duration": 0.1806640625,
          "durationTicks": 74,
          "midi": 63,
          "name": "D#4",
          "ticks": 107808,
          "time": 263.203125,
          "velocity": 0.8661417322834646
        },
        {
          "duration": 0.12939453125,
          "durationTicks": 53,
          "midi": 63,
          "name": "D#4",
          "ticks": 108288,
          "time": 264.375,
          "velocity": 0.8976377952755905
        },
        {
          "duration": 0.126953125,
          "durationTicks": 52,
          "midi": 58,
          "name": "A#3",
          "ticks": 108432,
          "time": 264.7265625,
          "velocity": 0.7795275590551181
        },
        {
          "duration": 0.13427734375,
          "durationTicks": 55,
          "midi": 61,
          "name": "C#4",
          "ticks": 108576,
          "time": 265.078125,
          "velocity": 0.84251968503937
        },
        {
          "duration": 0.0830078125,
          "durationTicks": 34,
          "midi": 61,
          "name": "C#4",
          "ticks": 108768,
          "time": 265.546875,
          "velocity": 0.8582677165354331
        },
        {
          "duration": 0.10009765625,
          "durationTicks": 41,
          "midi": 56,
          "name": "G#3",
          "ticks": 108864,
          "time": 265.78125,
          "velocity": 0.7244094488188977
        },
        {
          "duration": 0.087890625,
          "durationTicks": 36,
          "midi": 61,
          "name": "C#4",
          "ticks": 108960,
          "time": 266.015625,
          "velocity": 0.7559055118110236
        },
        {
          "duration": 0.1025390625,
          "durationTicks": 42,
          "midi": 58,
          "name": "A#3",
          "ticks": 109056,
          "time": 266.25,
          "velocity": 0.7637795275590551
        },
        {
          "duration": 0.09765625,
          "durationTicks": 40,
          "midi": 61,
          "name": "C#4",
          "ticks": 109200,
          "time": 266.6015625,
          "velocity": 0.8110236220472441
        },
        {
          "duration": 0.107421875,
          "durationTicks": 44,
          "midi": 63,
          "name": "D#4",
          "ticks": 109344,
          "time": 266.953125,
          "velocity": 0.7795275590551181
        },
        {
          "duration": 0.07080078125,
          "durationTicks": 29,
          "midi": 63,
          "name": "D#4",
          "ticks": 109536,
          "time": 267.421875,
          "velocity": 0.8267716535433071
        },
        {
          "duration": 0.09765625,
          "durationTicks": 40,
          "midi": 56,
          "name": "G#3",
          "ticks": 109632,
          "time": 267.65625,
          "velocity": 0.6456692913385826
        },
        {
          "duration": 0.08544921875,
          "durationTicks": 35,
          "midi": 61,
          "name": "C#4",
          "ticks": 109728,
          "time": 267.890625,
          "velocity": 0.7401574803149606
        },
        {
          "duration": 0.087890625,
          "durationTicks": 36,
          "midi": 63,
          "name": "D#4",
          "ticks": 109824,
          "time": 268.125,
          "velocity": 0.7637795275590551
        },
        {
          "duration": 0.1025390625,
          "durationTicks": 42,
          "midi": 58,
          "name": "A#3",
          "ticks": 110016,
          "time": 268.59375,
          "velocity": 0.7952755905511811
        },
        {
          "duration": 0.1025390625,
          "durationTicks": 42,
          "midi": 61,
          "name": "C#4",
          "ticks": 110112,
          "time": 268.828125,
          "velocity": 0.7007874015748031
        },
        {
          "duration": 0.08056640625,
          "durationTicks": 33,
          "midi": 61,
          "name": "C#4",
          "ticks": 110304,
          "time": 269.296875,
          "velocity": 0.7401574803149606
        },
        {
          "duration": 0.09033203125,
          "durationTicks": 37,
          "midi": 56,
          "name": "G#3",
          "ticks": 110400,
          "time": 269.53125,
          "velocity": 0.5984251968503937
        },
        {
          "duration": 0.09033203125,
          "durationTicks": 37,
          "midi": 61,
          "name": "C#4",
          "ticks": 110496,
          "time": 269.765625,
          "velocity": 0.7559055118110236
        },
        {
          "duration": 0.1025390625,
          "durationTicks": 42,
          "midi": 58,
          "name": "A#3",
          "ticks": 110592,
          "time": 270,
          "velocity": 0.7480314960629921
        },
        {
          "duration": 0.09765625,
          "durationTicks": 40,
          "midi": 61,
          "name": "C#4",
          "ticks": 110688,
          "time": 270.234375,
          "velocity": 0.7244094488188977
        },
        {
          "duration": 0.09765625,
          "durationTicks": 40,
          "midi": 58,
          "name": "A#3",
          "ticks": 110784,
          "time": 270.46875,
          "velocity": 0.7244094488188977
        },
        {
          "duration": 0.078125,
          "durationTicks": 32,
          "midi": 63,
          "name": "D#4",
          "ticks": 110880,
          "time": 270.703125,
          "velocity": 0.7480314960629921
        },
        {
          "duration": 0.0927734375,
          "durationTicks": 38,
          "midi": 58,
          "name": "A#3",
          "ticks": 111072,
          "time": 271.171875,
          "velocity": 0.7480314960629921
        },
        {
          "duration": 0.08056640625,
          "durationTicks": 33,
          "midi": 63,
          "name": "D#4",
          "ticks": 111168,
          "time": 271.40625,
          "velocity": 0.5590551181102362
        }
      ]
    },
    {
      "channel": 0,
      "controlChanges": {
        "0": [
          {
            "number": 0,
            "ticks": 242,
            "time": 0.5908203125,
            "value": 0
          }
        ],
        "32": [
          {
            "number": 32,
            "ticks": 244,
            "time": 0.595703125,
            "value": 0
          }
        ],
        "121": [
          {
            "number": 121,
            "ticks": 192,
            "time": 0.46875,
            "value": 0
          }
        ]
      },
      "pitchBends": [],
      "instrument": {
        "family": "piano",
        "number": 0,
        "name": "acoustic grand piano"
      },
      "name": "",
      "notes": [],
      "endOfTrackTicks": 112128
    },
    {
      "channel": 3,
      "controlChanges": {
        "7": [
          {
            "number": 7,
            "ticks": 248,
            "time": 0.60546875,
            "value": 0.8661417322834646
          }
        ],
        "10": [
          {
            "number": 10,
            "ticks": 250,
            "time": 0.6103515625,
            "value": 0.5039370078740157
          }
        ],
        "11": [
          {
            "number": 11,
            "ticks": 252,
            "time": 0.615234375,
            "value": 1
          }
        ],
        "91": [
          {
            "number": 91,
            "ticks": 254,
            "time": 0.6201171875,
            "value": 1
          }
        ],
        "93": [
          {
            "number": 93,
            "ticks": 256,
            "time": 0.625,
            "value": 0.1732283464566929
          }
        ]
      },
      "pitchBends": [],
      "instrument": {
        "family": "pipe",
        "number": 73,
        "name": "flute"
      },
      "name": "",
      "notes": [
        {
          "duration": 0.11474609375,
          "durationTicks": 47,
          "midi": 58,
          "name": "A#3",
          "ticks": 15840,
          "time": 38.671875,
          "velocity": 0.7716535433070866
        },
        {
          "duration": 0.13427734375,
          "durationTicks": 55,
          "midi": 58,
          "name": "A#3",
          "ticks": 15936,
          "time": 38.90625,
          "velocity": 0.7716535433070866
        },
        {
          "duration": 0.11962890625,
          "durationTicks": 49,
          "midi": 58,
          "name": "A#3",
          "ticks": 16032,
          "time": 39.140625,
          "velocity": 0.7716535433070866
        },
        {
          "duration": 0.419921875,
          "durationTicks": 172,
          "midi": 58,
          "name": "A#3",
          "ticks": 16128,
          "time": 39.375,
          "velocity": 0.7716535433070866
        },
        {
          "duration": 0.19287109375,
          "durationTicks": 79,
          "midi": 54,
          "name": "F#3",
          "ticks": 16320,
          "time": 39.84375,
          "velocity": 0.7401574803149606
        },
        {
          "duration": 0.17333984375,
          "durationTicks": 71,
          "midi": 56,
          "name": "G#3",
          "ticks": 16416,
          "time": 40.078125,
          "velocity": 0.7244094488188977
        },
        {
          "duration": 0.10009765625,
          "durationTicks": 41,
          "midi": 58,
          "name": "A#3",
          "ticks": 17376,
          "time": 42.421875,
          "velocity": 0.7874015748031497
        },
        {
          "duration": 0.1025390625,
          "durationTicks": 42,
          "midi": 58,
          "name": "A#3",
          "ticks": 17472,
          "time": 42.65625,
          "velocity": 0.7874015748031497
        },
        {
          "duration": 0.10498046875,
          "durationTicks": 43,
          "midi": 58,
          "name": "A#3",
          "ticks": 17568,
          "time": 42.890625,
          "velocity": 0.7874015748031497
        },
        {
          "duration": 0.4052734375,
          "durationTicks": 166,
          "midi": 58,
          "name": "A#3",
          "ticks": 17664,
          "time": 43.125,
          "velocity": 0.7874015748031497
        },
        {
          "duration": 0.17578125,
          "durationTicks": 72,
          "midi": 54,
          "name": "F#3",
          "ticks": 17856,
          "time": 43.59375,
          "velocity": 0.7716535433070866
        },
        {
          "duration": 0.24169921875,
          "durationTicks": 99,
          "midi": 56,
          "name": "G#3",
          "ticks": 17952,
          "time": 43.828125,
          "velocity": 0.7874015748031497
        },
        {
          "duration": 0.087890625,
          "durationTicks": 36,
          "midi": 63,
          "name": "D#4",
          "ticks": 18912,
          "time": 46.171875,
          "velocity": 0.7401574803149606
        },
        {
          "duration": 0.10498046875,
          "durationTicks": 43,
          "midi": 63,
          "name": "D#4",
          "ticks": 19008,
          "time": 46.40625,
          "velocity": 0.7401574803149606
        },
        {
          "duration": 0.14404296875,
          "durationTicks": 59,
          "midi": 63,
          "name": "D#4",
          "ticks": 19104,
          "time": 46.640625,
          "velocity": 0.7401574803149606
        },
        {
          "duration": 0.39794921875,
          "durationTicks": 163,
          "midi": 65,
          "name": "F4",
          "ticks": 19200,
          "time": 46.875,
          "velocity": 0.7401574803149606
        },
        {
          "duration": 0.1513671875,
          "durationTicks": 62,
          "midi": 61,
          "name": "C#4",
          "ticks": 19392,
          "time": 47.34375,
          "velocity": 0.7401574803149606
        },
        {
          "duration": 0.20263671875,
          "durationTicks": 83,
          "midi": 63,
          "name": "D#4",
          "ticks": 19488,
          "time": 47.578125,
          "velocity": 0.7401574803149606
        },
        {
          "duration": 0.0830078125,
          "durationTicks": 34,
          "midi": 58,
          "name": "A#3",
          "ticks": 20448,
          "time": 49.921875,
          "velocity": 0.7716535433070866
        },
        {
          "duration": 0.107421875,
          "durationTicks": 44,
          "midi": 58,
          "name": "A#3",
          "ticks": 20544,
          "time": 50.15625,
          "velocity": 0.7559055118110236
        },
        {
          "duration": 0.09765625,
          "durationTicks": 40,
          "midi": 58,
          "name": "A#3",
          "ticks": 20640,
          "time": 50.390625,
          "velocity": 0.7874015748031497
        },
        {
          "duration": 0.37109375,
          "durationTicks": 152,
          "midi": 58,
          "name": "A#3",
          "ticks": 20736,
          "time": 50.625,
          "velocity": 0.7874015748031497
        },
        {
          "duration": 0.1416015625,
          "durationTicks": 58,
          "midi": 54,
          "name": "F#3",
          "ticks": 20928,
          "time": 51.09375,
          "velocity": 0.7874015748031497
        },
        {
          "duration": 0.27587890625,
          "durationTicks": 113,
          "midi": 56,
          "name": "G#3",
          "ticks": 21024,
          "time": 51.328125,
          "velocity": 0.7874015748031497
        },
        {
          "duration": 0.0830078125,
          "durationTicks": 34,
          "midi": 58,
          "name": "A#3",
          "ticks": 21984,
          "time": 53.671875,
          "velocity": 0.8110236220472441
        },
        {
          "duration": 0.10009765625,
          "durationTicks": 41,
          "midi": 58,
          "name": "A#3",
          "ticks": 22080,
          "time": 53.90625,
          "velocity": 0.8110236220472441
        },
        {
          "duration": 0.09765625,
          "durationTicks": 40,
          "midi": 58,
          "name": "A#3",
          "ticks": 22176,
          "time": 54.140625,
          "velocity": 0.8188976377952756
        },
        {
          "duration": 0.3955078125,
          "durationTicks": 162,
          "midi": 58,
          "name": "A#3",
          "ticks": 22272,
          "time": 54.375,
          "velocity": 0.8110236220472441
        },
        {
          "duration": 0.14892578125,
          "durationTicks": 61,
          "midi": 54,
          "name": "F#3",
          "ticks": 22464,
          "time": 54.84375,
          "velocity": 0.7874015748031497
        },
        {
          "duration": 0.13671875,
          "durationTicks": 56,
          "midi": 56,
          "name": "G#3",
          "ticks": 22560,
          "time": 55.078125,
          "velocity": 0.7874015748031497
        },
        {
          "duration": 0.0927734375,
          "durationTicks": 38,
          "midi": 63,
          "name": "D#4",
          "ticks": 23520,
          "time": 57.421875,
          "velocity": 0.7874015748031497
        },
        {
          "duration": 0.10009765625,
          "durationTicks": 41,
          "midi": 63,
          "name": "D#4",
          "ticks": 23616,
          "time": 57.65625,
          "velocity": 0.7716535433070866
        },
        {
          "duration": 0.15625,
          "durationTicks": 64,
          "midi": 63,
          "name": "D#4",
          "ticks": 23712,
          "time": 57.890625,
          "velocity": 0.8188976377952756
        },
        {
          "duration": 0.42236328125,
          "durationTicks": 173,
          "midi": 65,
          "name": "F4",
          "ticks": 23808,
          "time": 58.125,
          "velocity": 0.8188976377952756
        },
        {
          "duration": 0.14404296875,
          "durationTicks": 59,
          "midi": 61,
          "name": "C#4",
          "ticks": 24000,
          "time": 58.59375,
          "velocity": 0.8188976377952756
        },
        {
          "duration": 0.1611328125,
          "durationTicks": 66,
          "midi": 63,
          "name": "D#4",
          "ticks": 24096,
          "time": 58.828125,
          "velocity": 0.8031496062992126
        },
        {
          "duration": 0.06591796875,
          "durationTicks": 27,
          "midi": 63,
          "name": "D#4",
          "ticks": 25056,
          "time": 61.171875,
          "velocity": 0.8188976377952756
        },
        {
          "duration": 0.0927734374999929,
          "durationTicks": 38,
          "midi": 63,
          "name": "D#4",
          "ticks": 25152,
          "time": 61.40625,
          "velocity": 0.8346456692913385
        },
        {
          "duration": 0.0854492187499929,
          "durationTicks": 35,
          "midi": 63,
          "name": "D#4",
          "ticks": 25248,
          "time": 61.640625,
          "velocity": 0.8188976377952756
        },
        {
          "duration": 0.2514648437500071,
          "durationTicks": 103,
          "midi": 63,
          "name": "D#4",
          "ticks": 25344,
          "time": 61.875,
          "velocity": 0.8031496062992126
        },
        {
          "duration": 0.10986328125,
          "durationTicks": 45,
          "midi": 63,
          "name": "D#4",
          "ticks": 26592,
          "time": 64.921875,
          "velocity": 0.8346456692913385
        },
        {
          "duration": 0.107421875,
          "durationTicks": 44,
          "midi": 63,
          "name": "D#4",
          "ticks": 26688,
          "time": 65.15625,
          "velocity": 0.8110236220472441
        },
        {
          "duration": 0.107421875,
          "durationTicks": 44,
          "midi": 63,
          "name": "D#4",
          "ticks": 26784,
          "time": 65.390625,
          "velocity": 0.8346456692913385
        },
        {
          "duration": 0.18310546875,
          "durationTicks": 75,
          "midi": 63,
          "name": "D#4",
          "ticks": 26880,
          "time": 65.625,
          "velocity": 0.8346456692913385
        },
        {
          "duration": 0.09521484375,
          "durationTicks": 39,
          "midi": 63,
          "name": "D#4",
          "ticks": 28128,
          "time": 68.671875,
          "velocity": 0.8346456692913385
        },
        {
          "duration": 0.1123046875,
          "durationTicks": 46,
          "midi": 63,
          "name": "D#4",
          "ticks": 28224,
          "time": 68.90625,
          "velocity": 0.8346456692913385
        },
        {
          "duration": 0.10009765625,
          "durationTicks": 41,
          "midi": 63,
          "name": "D#4",
          "ticks": 28320,
          "time": 69.140625,
          "velocity": 0.8346456692913385
        },
        {
          "duration": 0.234375,
          "durationTicks": 96,
          "midi": 63,
          "name": "D#4",
          "ticks": 28416,
          "time": 69.375,
          "velocity": 0.8503937007874016
        },
        {
          "duration": 0.107421875,
          "durationTicks": 44,
          "midi": 63,
          "name": "D#4",
          "ticks": 29664,
          "time": 72.421875,
          "velocity": 0.7716535433070866
        },
        {
          "duration": 0.1025390625,
          "durationTicks": 42,
          "midi": 63,
          "name": "D#4",
          "ticks": 29760,
          "time": 72.65625,
          "velocity": 0.7874015748031497
        },
        {
          "duration": 0.08544921875,
          "durationTicks": 35,
          "midi": 63,
          "name": "D#4",
          "ticks": 29856,
          "time": 72.890625,
          "velocity": 0.8031496062992126
        },
        {
          "duration": 0.1806640625,
          "durationTicks": 74,
          "midi": 63,
          "name": "D#4",
          "ticks": 29952,
          "time": 73.125,
          "velocity": 0.7716535433070866
        },
        {
          "duration": 0.1416015625,
          "durationTicks": 58,
          "midi": 58,
          "name": "A#3",
          "ticks": 41568,
          "time": 101.484375,
          "velocity": 0.7874015748031497
        },
        {
          "duration": 0.1220703125,
          "durationTicks": 50,
          "midi": 58,
          "name": "A#3",
          "ticks": 41664,
          "time": 101.71875,
          "velocity": 0.7874015748031497
        },
        {
          "duration": 0.1171875,
          "durationTicks": 48,
          "midi": 58,
          "name": "A#3",
          "ticks": 41760,
          "time": 101.953125,
          "velocity": 0.8031496062992126
        },
        {
          "duration": 0.46630859375,
          "durationTicks": 191,
          "midi": 58,
          "name": "A#3",
          "ticks": 41856,
          "time": 102.1875,
          "velocity": 0.8188976377952756
        },
        {
          "duration": 0.26123046875,
          "durationTicks": 107,
          "midi": 54,
          "name": "F#3",
          "ticks": 42048,
          "time": 102.65625,
          "velocity": 0.7716535433070866
        },
        {
          "duration": 0.2294921875,
          "durationTicks": 94,
          "midi": 56,
          "name": "G#3",
          "ticks": 42144,
          "time": 102.890625,
          "velocity": 0.7716535433070866
        },
        {
          "duration": 0.09521484375,
          "durationTicks": 39,
          "midi": 58,
          "name": "A#3",
          "ticks": 43104,
          "time": 105.234375,
          "velocity": 0.7716535433070866
        },
        {
          "duration": 0.16845703125,
          "durationTicks": 69,
          "midi": 58,
          "name": "A#3",
          "ticks": 43200,
          "time": 105.46875,
          "velocity": 0.7874015748031497
        },
        {
          "duration": 0.1513671875,
          "durationTicks": 62,
          "midi": 58,
          "name": "A#3",
          "ticks": 43296,
          "time": 105.703125,
          "velocity": 0.7874015748031497
        },
        {
          "duration": 0.458984375,
          "durationTicks": 188,
          "midi": 58,
          "name": "A#3",
          "ticks": 43392,
          "time": 105.9375,
          "velocity": 0.7874015748031497
        },
        {
          "duration": 0.26611328125,
          "durationTicks": 109,
          "midi": 54,
          "name": "F#3",
          "ticks": 43584,
          "time": 106.40625,
          "velocity": 0.8110236220472441
        },
        {
          "duration": 0.21484375,
          "durationTicks": 88,
          "midi": 56,
          "name": "G#3",
          "ticks": 43680,
          "time": 106.640625,
          "velocity": 0.7874015748031497
        },
        {
          "duration": 0.06103515625,
          "durationTicks": 25,
          "midi": 63,
          "name": "D#4",
          "ticks": 44640,
          "time": 108.984375,
          "velocity": 0.7086614173228346
        },
        {
          "duration": 0.20263671875,
          "durationTicks": 83,
          "midi": 63,
          "name": "D#4",
          "ticks": 44688,
          "time": 109.1015625,
          "velocity": 0.6929133858267716
        },
        {
          "duration": 0.19775390625,
          "durationTicks": 81,
          "midi": 63,
          "name": "D#4",
          "ticks": 44832,
          "time": 109.453125,
          "velocity": 0.7559055118110236
        },
        {
          "duration": 0.46142578125,
          "durationTicks": 189,
          "midi": 65,
          "name": "F4",
          "ticks": 44928,
          "time": 109.6875,
          "velocity": 0.7401574803149606
        },
        {
          "duration": 0.205078125,
          "durationTicks": 84,
          "midi": 61,
          "name": "C#4",
          "ticks": 45120,
          "time": 110.15625,
          "velocity": 0.7244094488188977
        },
        {
          "duration": 0.2197265625,
          "durationTicks": 90,
          "midi": 63,
          "name": "D#4",
          "ticks": 45216,
          "time": 110.390625,
          "velocity": 0.7086614173228346
        },
        {
          "duration": 0.11962890625,
          "durationTicks": 49,
          "midi": 63,
          "name": "D#4",
          "ticks": 46176,
          "time": 112.734375,
          "velocity": 0.7559055118110236
        },
        {
          "duration": 0.13916015625,
          "durationTicks": 57,
          "midi": 63,
          "name": "D#4",
          "ticks": 46272,
          "time": 112.96875,
          "velocity": 0.7559055118110236
        },
        {
          "duration": 0.1220703125,
          "durationTicks": 50,
          "midi": 63,
          "name": "D#4",
          "ticks": 46368,
          "time": 113.203125,
          "velocity": 0.7559055118110236
        },
        {
          "duration": 0.21484375,
          "durationTicks": 88,
          "midi": 63,
          "name": "D#4",
          "ticks": 46464,
          "time": 113.4375,
          "velocity": 0.8031496062992126
        },
        {
          "duration": 0.12451171875,
          "durationTicks": 51,
          "midi": 63,
          "name": "D#4",
          "ticks": 47712,
          "time": 116.484375,
          "velocity": 0.7716535433070866
        },
        {
          "duration": 0.14892578125,
          "durationTicks": 61,
          "midi": 63,
          "name": "D#4",
          "ticks": 47808,
          "time": 116.71875,
          "velocity": 0.7874015748031497
        },
        {
          "duration": 0.126953125,
          "durationTicks": 52,
          "midi": 63,
          "name": "D#4",
          "ticks": 47904,
          "time": 116.953125,
          "velocity": 0.7874015748031497
        },
        {
          "duration": 0.2001953125,
          "durationTicks": 82,
          "midi": 63,
          "name": "D#4",
          "ticks": 48000,
          "time": 117.1875,
          "velocity": 0.7874015748031497
        },
        {
          "duration": 0.11230468749998579,
          "durationTicks": 46,
          "midi": 63,
          "name": "D#4",
          "ticks": 49248,
          "time": 120.234375,
          "velocity": 0.7874015748031497
        },
        {
          "duration": 0.12207031250001421,
          "durationTicks": 50,
          "midi": 63,
          "name": "D#4",
          "ticks": 49344,
          "time": 120.46875,
          "velocity": 0.7874015748031497
        },
        {
          "duration": 0.1416015624999858,
          "durationTicks": 58,
          "midi": 63,
          "name": "D#4",
          "ticks": 49440,
          "time": 120.703125,
          "velocity": 0.8110236220472441
        },
        {
          "duration": 0.1513671875000142,
          "durationTicks": 62,
          "midi": 63,
          "name": "D#4",
          "ticks": 49536,
          "time": 120.9375,
          "velocity": 0.8031496062992126
        },
        {
          "duration": 0.10986328125,
          "durationTicks": 45,
          "midi": 63,
          "name": "D#4",
          "ticks": 50784,
          "time": 123.984375,
          "velocity": 0.8031496062992126
        },
        {
          "duration": 0.11474609375001421,
          "durationTicks": 47,
          "midi": 63,
          "name": "D#4",
          "ticks": 50880,
          "time": 124.21875,
          "velocity": 0.8031496062992126
        },
        {
          "duration": 0.09765624999998579,
          "durationTicks": 40,
          "midi": 63,
          "name": "D#4",
          "ticks": 50976,
          "time": 124.453125,
          "velocity": 0.8110236220472441
        },
        {
          "duration": 0.146484375,
          "durationTicks": 60,
          "midi": 63,
          "name": "D#4",
          "ticks": 51072,
          "time": 124.6875,
          "velocity": 0.8031496062992126
        },
        {
          "duration": 0.18310546875,
          "durationTicks": 75,
          "midi": 58,
          "name": "A#3",
          "ticks": 53472,
          "time": 130.546875,
          "velocity": 0.7716535433070866
        },
        {
          "duration": 0.13671875,
          "durationTicks": 56,
          "midi": 58,
          "name": "A#3",
          "ticks": 53568,
          "time": 130.78125,
          "velocity": 0.7874015748031497
        },
        {
          "duration": 0.126953125,
          "durationTicks": 52,
          "midi": 58,
          "name": "A#3",
          "ticks": 53664,
          "time": 131.015625,
          "velocity": 0.8031496062992126
        },
        {
          "duration": 0.4296875,
          "durationTicks": 176,
          "midi": 58,
          "name": "A#3",
          "ticks": 53760,
          "time": 131.25,
          "velocity": 0.8031496062992126
        },
        {
          "duration": 0.2392578125,
          "durationTicks": 98,
          "midi": 54,
          "name": "F#3",
          "ticks": 53952,
          "time": 131.71875,
          "velocity": 0.8031496062992126
        },
        {
          "duration": 0.18310546875,
          "durationTicks": 75,
          "midi": 56,
          "name": "G#3",
          "ticks": 54048,
          "time": 131.953125,
          "velocity": 0.8188976377952756
        },
        {
          "duration": 0.1318359375,
          "durationTicks": 54,
          "midi": 58,
          "name": "A#3",
          "ticks": 55008,
          "time": 134.296875,
          "velocity": 0.8031496062992126
        },
        {
          "duration": 0.11962890625,
          "durationTicks": 49,
          "midi": 58,
          "name": "A#3",
          "ticks": 55104,
          "time": 134.53125,
          "velocity": 0.8031496062992126
        },
        {
          "duration": 0.1171875,
          "durationTicks": 48,
          "midi": 58,
          "name": "A#3",
          "ticks": 55200,
          "time": 134.765625,
          "velocity": 0.8031496062992126
        },
        {
          "duration": 0.439453125,
          "durationTicks": 180,
          "midi": 58,
          "name": "A#3",
          "ticks": 55296,
          "time": 135,
          "velocity": 0.8031496062992126
        },
        {
          "duration": 0.26611328125,
          "durationTicks": 109,
          "midi": 54,
          "name": "F#3",
          "ticks": 55488,
          "time": 135.46875,
          "velocity": 0.8031496062992126
        },
        {
          "duration": 0.23193359375,
          "durationTicks": 95,
          "midi": 56,
          "name": "G#3",
          "ticks": 55584,
          "time": 135.703125,
          "velocity": 0.8346456692913385
        },
        {
          "duration": 0.14892578125,
          "durationTicks": 61,
          "midi": 63,
          "name": "D#4",
          "ticks": 56544,
          "time": 138.046875,
          "velocity": 0.7716535433070866
        },
        {
          "duration": 0.1318359375,
          "durationTicks": 54,
          "midi": 63,
          "name": "D#4",
          "ticks": 56640,
          "time": 138.28125,
          "velocity": 0.7716535433070866
        },
        {
          "duration": 0.185546875,
          "durationTicks": 76,
          "midi": 63,
          "name": "D#4",
          "ticks": 56736,
          "time": 138.515625,
          "velocity": 0.7559055118110236
        },
        {
          "duration": 0.4296875,
          "durationTicks": 176,
          "midi": 65,
          "name": "F4",
          "ticks": 56832,
          "time": 138.75,
          "velocity": 0.7244094488188977
        },
        {
          "duration": 0.1904296875,
          "durationTicks": 78,
          "midi": 61,
          "name": "C#4",
          "ticks": 57024,
          "time": 139.21875,
          "velocity": 0.7244094488188977
        },
        {
          "duration": 0.21484375,
          "durationTicks": 88,
          "midi": 63,
          "name": "D#4",
          "ticks": 57120,
          "time": 139.453125,
          "velocity": 0.7559055118110236
        },
        {
          "duration": 0.13427734375,
          "durationTicks": 55,
          "midi": 58,
          "name": "A#3",
          "ticks": 79584,
          "time": 194.296875,
          "velocity": 0.7874015748031497
        },
        {
          "duration": 0.12451171875,
          "durationTicks": 51,
          "midi": 58,
          "name": "A#3",
          "ticks": 79680,
          "time": 194.53125,
          "velocity": 0.8110236220472441
        },
        {
          "duration": 0.11962890625,
          "durationTicks": 49,
          "midi": 58,
          "name": "A#3",
          "ticks": 79776,
          "time": 194.765625,
          "velocity": 0.8031496062992126
        },
        {
          "duration": 0.46875,
          "durationTicks": 192,
          "midi": 58,
          "name": "A#3",
          "ticks": 79872,
          "time": 195,
          "velocity": 0.7716535433070866
        },
        {
          "duration": 0.2099609375,
          "durationTicks": 86,
          "midi": 54,
          "name": "F#3",
          "ticks": 80064,
          "time": 195.46875,
          "velocity": 0.7874015748031497
        },
        {
          "duration": 0.1953125,
          "durationTicks": 80,
          "midi": 56,
          "name": "G#3",
          "ticks": 80160,
          "time": 195.703125,
          "velocity": 0.7874015748031497
        },
        {
          "duration": 0.1416015625,
          "durationTicks": 58,
          "midi": 58,
          "name": "A#3",
          "ticks": 81120,
          "time": 198.046875,
          "velocity": 0.7716535433070866
        },
        {
          "duration": 0.11474609375,
          "durationTicks": 47,
          "midi": 58,
          "name": "A#3",
          "ticks": 81216,
          "time": 198.28125,
          "velocity": 0.7716535433070866
        },
        {
          "duration": 0.10986328125,
          "durationTicks": 45,
          "midi": 58,
          "name": "A#3",
          "ticks": 81312,
          "time": 198.515625,
          "velocity": 0.7874015748031497
        },
        {
          "duration": 0.45166015625,
          "durationTicks": 185,
          "midi": 58,
          "name": "A#3",
          "ticks": 81408,
          "time": 198.75,
          "velocity": 0.7874015748031497
        },
        {
          "duration": 0.2685546875,
          "durationTicks": 110,
          "midi": 54,
          "name": "F#3",
          "ticks": 81600,
          "time": 199.21875,
          "velocity": 0.7874015748031497
        },
        {
          "duration": 0.26123046875,
          "durationTicks": 107,
          "midi": 56,
          "name": "G#3",
          "ticks": 81696,
          "time": 199.453125,
          "velocity": 0.7716535433070866
        },
        {
          "duration": 0.10009765625,
          "durationTicks": 41,
          "midi": 63,
          "name": "D#4",
          "ticks": 82656,
          "time": 201.796875,
          "velocity": 0.7401574803149606
        },
        {
          "duration": 0.1171875,
          "durationTicks": 48,
          "midi": 63,
          "name": "D#4",
          "ticks": 82752,
          "time": 202.03125,
          "velocity": 0.7086614173228346
        },
        {
          "duration": 0.1708984375,
          "durationTicks": 70,
          "midi": 63,
          "name": "D#4",
          "ticks": 82848,
          "time": 202.265625,
          "velocity": 0.7401574803149606
        },
        {
          "duration": 0.45166015625,
          "durationTicks": 185,
          "midi": 65,
          "name": "F4",
          "ticks": 82944,
          "time": 202.5,
          "velocity": 0.7244094488188977
        },
        {
          "duration": 0.17822265625,
          "durationTicks": 73,
          "midi": 61,
          "name": "C#4",
          "ticks": 83136,
          "time": 202.96875,
          "velocity": 0.7401574803149606
        },
        {
          "duration": 0.2490234375,
          "durationTicks": 102,
          "midi": 63,
          "name": "D#4",
          "ticks": 83232,
          "time": 203.203125,
          "velocity": 0.7244094488188977
        },
        {
          "duration": 0.11962890625,
          "durationTicks": 49,
          "midi": 58,
          "name": "A#3",
          "ticks": 84192,
          "time": 205.546875,
          "velocity": 0.7559055118110236
        },
        {
          "duration": 0.12451171875,
          "durationTicks": 51,
          "midi": 58,
          "name": "A#3",
          "ticks": 84288,
          "time": 205.78125,
          "velocity": 0.7559055118110236
        },
        {
          "duration": 0.11962890625,
          "durationTicks": 49,
          "midi": 58,
          "name": "A#3",
          "ticks": 84384,
          "time": 206.015625,
          "velocity": 0.7559055118110236
        },
        {
          "duration": 0.4296875,
          "durationTicks": 176,
          "midi": 58,
          "name": "A#3",
          "ticks": 84480,
          "time": 206.25,
          "velocity": 0.7559055118110236
        },
        {
          "duration": 0.25146484375,
          "durationTicks": 103,
          "midi": 54,
          "name": "F#3",
          "ticks": 84672,
          "time": 206.71875,
          "velocity": 0.7401574803149606
        },
        {
          "duration": 0.2783203125,
          "durationTicks": 114,
          "midi": 56,
          "name": "G#3",
          "ticks": 84768,
          "time": 206.953125,
          "velocity": 0.7401574803149606
        },
        {
          "duration": 0.13916015625,
          "durationTicks": 57,
          "midi": 58,
          "name": "A#3",
          "ticks": 85728,
          "time": 209.296875,
          "velocity": 0.7401574803149606
        },
        {
          "duration": 0.1171875,
          "durationTicks": 48,
          "midi": 58,
          "name": "A#3",
          "ticks": 85824,
          "time": 209.53125,
          "velocity": 0.7244094488188977
        },
        {
          "duration": 0.126953125,
          "durationTicks": 52,
          "midi": 58,
          "name": "A#3",
          "ticks": 85920,
          "time": 209.765625,
          "velocity": 0.7244094488188977
        },
        {
          "duration": 0.439453125,
          "durationTicks": 180,
          "midi": 58,
          "name": "A#3",
          "ticks": 86016,
          "time": 210,
          "velocity": 0.7244094488188977
        },
        {
          "duration": 0.25634765625,
          "durationTicks": 105,
          "midi": 54,
          "name": "F#3",
          "ticks": 86208,
          "time": 210.46875,
          "velocity": 0.7244094488188977
        },
        {
          "duration": 0.2490234375,
          "durationTicks": 102,
          "midi": 56,
          "name": "G#3",
          "ticks": 86304,
          "time": 210.703125,
          "velocity": 0.6771653543307087
        },
        {
          "duration": 0.13427734375,
          "durationTicks": 55,
          "midi": 63,
          "name": "D#4",
          "ticks": 87264,
          "time": 213.046875,
          "velocity": 0.7086614173228346
        },
        {
          "duration": 0.13916015625,
          "durationTicks": 57,
          "midi": 63,
          "name": "D#4",
          "ticks": 87360,
          "time": 213.28125,
          "velocity": 0.7244094488188977
        },
        {
          "duration": 0.1953125,
          "durationTicks": 80,
          "midi": 63,
          "name": "D#4",
          "ticks": 87456,
          "time": 213.515625,
          "velocity": 0.6929133858267716
        },
        {
          "duration": 0.41259765625,
          "durationTicks": 169,
          "midi": 65,
          "name": "F4",
          "ticks": 87552,
          "time": 213.75,
          "velocity": 0.7244094488188977
        },
        {
          "duration": 0.1708984375,
          "durationTicks": 70,
          "midi": 61,
          "name": "C#4",
          "ticks": 87744,
          "time": 214.21875,
          "velocity": 0.6771653543307087
        },
        {
          "duration": 0.2392578125,
          "durationTicks": 98,
          "midi": 63,
          "name": "D#4",
          "ticks": 87840,
          "time": 214.453125,
          "velocity": 0.7086614173228346
        },
        {
          "duration": 0.1171875,
          "durationTicks": 48,
          "midi": 63,
          "name": "D#4",
          "ticks": 88800,
          "time": 216.796875,
          "velocity": 0.7401574803149606
        },
        {
          "duration": 0.11474609375,
          "durationTicks": 47,
          "midi": 63,
          "name": "D#4",
          "ticks": 88896,
          "time": 217.03125,
          "velocity": 0.7244094488188977
        },
        {
          "duration": 0.1025390625,
          "durationTicks": 42,
          "midi": 63,
          "name": "D#4",
          "ticks": 88992,
          "time": 217.265625,
          "velocity": 0.7244094488188977
        },
        {
          "duration": 0.1806640625,
          "durationTicks": 74,
          "midi": 63,
          "name": "D#4",
          "ticks": 89088,
          "time": 217.5,
          "velocity": 0.7244094488188977
        },
        {
          "duration": 0.12451171875,
          "durationTicks": 51,
          "midi": 63,
          "name": "D#4",
          "ticks": 90336,
          "time": 220.546875,
          "velocity": 0.7874015748031497
        },
        {
          "duration": 0.1220703125,
          "durationTicks": 50,
          "midi": 63,
          "name": "D#4",
          "ticks": 90432,
          "time": 220.78125,
          "velocity": 0.8031496062992126
        },
        {
          "duration": 0.1171875,
          "durationTicks": 48,
          "midi": 63,
          "name": "D#4",
          "ticks": 90528,
          "time": 221.015625,
          "velocity": 0.8031496062992126
        },
        {
          "duration": 0.16357421875,
          "durationTicks": 67,
          "midi": 63,
          "name": "D#4",
          "ticks": 90624,
          "time": 221.25,
          "velocity": 0.8031496062992126
        },
        {
          "duration": 0.14892578125,
          "durationTicks": 61,
          "midi": 63,
          "name": "D#4",
          "ticks": 91872,
          "time": 224.296875,
          "velocity": 0.8031496062992126
        },
        {
          "duration": 0.1171875,
          "durationTicks": 48,
          "midi": 63,
          "name": "D#4",
          "ticks": 91968,
          "time": 224.53125,
          "velocity": 0.7716535433070866
        },
        {
          "duration": 0.1318359375,
          "durationTicks": 54,
          "midi": 63,
          "name": "D#4",
          "ticks": 92064,
          "time": 224.765625,
          "velocity": 0.7874015748031497
        },
        {
          "duration": 0.17822265625,
          "durationTicks": 73,
          "midi": 63,
          "name": "D#4",
          "ticks": 92160,
          "time": 225,
          "velocity": 0.7874015748031497
        },
        {
          "duration": 0.12451171875,
          "durationTicks": 51,
          "midi": 63,
          "name": "D#4",
          "ticks": 93408,
          "time": 228.046875,
          "velocity": 0.7716535433070866
        },
        {
          "duration": 0.11962890625,
          "durationTicks": 49,
          "midi": 63,
          "name": "D#4",
          "ticks": 93504,
          "time": 228.28125,
          "velocity": 0.7716535433070866
        },
        {
          "duration": 0.1025390625,
          "durationTicks": 42,
          "midi": 63,
          "name": "D#4",
          "ticks": 93600,
          "time": 228.515625,
          "velocity": 0.7716535433070866
        },
        {
          "duration": 0.17333984375,
          "durationTicks": 71,
          "midi": 63,
          "name": "D#4",
          "ticks": 93696,
          "time": 228.75,
          "velocity": 0.7716535433070866
        },
        {
          "duration": 0.1171875,
          "durationTicks": 48,
          "midi": 63,
          "name": "D#4",
          "ticks": 100704,
          "time": 245.859375,
          "velocity": 0.7716535433070866
        },
        {
          "duration": 0.12695312500002842,
          "durationTicks": 52,
          "midi": 63,
          "name": "D#4",
          "ticks": 100800,
          "time": 246.09375,
          "velocity": 0.7874015748031497
        },
        {
          "duration": 0.11474609374997158,
          "durationTicks": 47,
          "midi": 63,
          "name": "D#4",
          "ticks": 100896,
          "time": 246.328125,
          "velocity": 0.7874015748031497
        },
        {
          "duration": 0.18554687500002842,
          "durationTicks": 76,
          "midi": 63,
          "name": "D#4",
          "ticks": 100992,
          "time": 246.5625,
          "velocity": 0.7716535433070866
        },
        {
          "duration": 0.16357421875002842,
          "durationTicks": 67,
          "midi": 63,
          "name": "D#4",
          "ticks": 102240,
          "time": 249.609375,
          "velocity": 0.7559055118110236
        },
        {
          "duration": 0.08300781250002842,
          "durationTicks": 34,
          "midi": 63,
          "name": "D#4",
          "ticks": 102336,
          "time": 249.84375,
          "velocity": 0.7559055118110236
        },
        {
          "duration": 0.10742187499997158,
          "durationTicks": 44,
          "midi": 63,
          "name": "D#4",
          "ticks": 102432,
          "time": 250.078125,
          "velocity": 0.7874015748031497
        },
        {
          "duration": 0.15380859375,
          "durationTicks": 63,
          "midi": 63,
          "name": "D#4",
          "ticks": 102528,
          "time": 250.3125,
          "velocity": 0.7716535433070866
        },
        {
          "duration": 0.10986328125,
          "durationTicks": 45,
          "midi": 63,
          "name": "D#4",
          "ticks": 103776,
          "time": 253.359375,
          "velocity": 0.7559055118110236
        },
        {
          "duration": 0.12695312500002842,
          "durationTicks": 52,
          "midi": 63,
          "name": "D#4",
          "ticks": 103872,
          "time": 253.59375,
          "velocity": 0.7874015748031497
        },
        {
          "duration": 0.12939453124997158,
          "durationTicks": 53,
          "midi": 63,
          "name": "D#4",
          "ticks": 103968,
          "time": 253.828125,
          "velocity": 0.7716535433070866
        },
        {
          "duration": 0.14160156250002842,
          "durationTicks": 58,
          "midi": 63,
          "name": "D#4",
          "ticks": 104064,
          "time": 254.0625,
          "velocity": 0.7559055118110236
        },
        {
          "duration": 0.0927734375,
          "durationTicks": 38,
          "midi": 63,
          "name": "D#4",
          "ticks": 105312,
          "time": 257.109375,
          "velocity": 0.7874015748031497
        },
        {
          "duration": 0.09521484375,
          "durationTicks": 39,
          "midi": 63,
          "name": "D#4",
          "ticks": 105408,
          "time": 257.34375,
          "velocity": 0.7874015748031497
        },
        {
          "duration": 0.13671875,
          "durationTicks": 56,
          "midi": 63,
          "name": "D#4",
          "ticks": 105504,
          "time": 257.578125,
          "velocity": 0.7874015748031497
        },
        {
          "duration": 0.13916015625,
          "durationTicks": 57,
          "midi": 63,
          "name": "D#4",
          "ticks": 105600,
          "time": 257.8125,
          "velocity": 0.8031496062992126
        }
      ]
    },
    {
      "channel": 0,
      "controlChanges": {
        "0": [
          {
            "number": 0,
            "ticks": 258,
            "time": 0.6298828125,
            "value": 0
          }
        ],
        "32": [
          {
            "number": 32,
            "ticks": 260,
            "time": 0.634765625,
            "value": 0
          }
        ],
        "121": [
          {
            "number": 121,
            "ticks": 192,
            "time": 0.46875,
            "value": 0
          }
        ]
      },
      "pitchBends": [],
      "instrument": {
        "family": "piano",
        "number": 0,
        "name": "acoustic grand piano"
      },
      "name": "",
      "notes": [],
      "endOfTrackTicks": 112128
    },
    {
      "channel": 4,
      "controlChanges": {
        "7": [
          {
            "number": 7,
            "ticks": 264,
            "time": 0.64453125,
            "value": 0.7007874015748031
          }
        ],
        "10": [
          {
            "number": 10,
            "ticks": 266,
            "time": 0.6494140625,
            "value": 0.5039370078740157
          }
        ],
        "11": [
          {
            "number": 11,
            "ticks": 268,
            "time": 0.654296875,
            "value": 1
          }
        ],
        "91": [
          {
            "number": 91,
            "ticks": 270,
            "time": 0.6591796875,
            "value": 1
          }
        ],
        "93": [
          {
            "number": 93,
            "ticks": 272,
            "time": 0.6640625,
            "value": 0.25196850393700787
          }
        ]
      },
      "pitchBends": [],
      "instrument": {
        "family": "ensemble",
        "number": 50,
        "name": "synthstrings 1"
      },
      "name": "",
      "notes": [
        {
          "duration": 0.9375,
          "durationTicks": 384,
          "midi": 66,
          "name": "F#4",
          "ticks": 6904,
          "time": 16.85546875,
          "velocity": 0.5433070866141733
        },
        {
          "duration": 0.9375,
          "durationTicks": 384,
          "midi": 63,
          "name": "D#4",
          "ticks": 6904,
          "time": 16.85546875,
          "velocity": 0.5433070866141733
        },
        {
          "duration": 1.875,
          "durationTicks": 768,
          "midi": 65,
          "name": "F4",
          "ticks": 7288,
          "time": 17.79296875,
          "velocity": 0.5433070866141733
        },
        {
          "duration": 0.9375,
          "durationTicks": 384,
          "midi": 61,
          "name": "C#4",
          "ticks": 7288,
          "time": 17.79296875,
          "velocity": 0.5433070866141733
        },
        {
          "duration": 0.9375,
          "durationTicks": 384,
          "midi": 58,
          "name": "A#3",
          "ticks": 7672,
          "time": 18.73046875,
          "velocity": 0.5433070866141733
        },
        {
          "duration": 1.875,
          "durationTicks": 768,
          "midi": 66,
          "name": "F#4",
          "ticks": 8056,
          "time": 19.66796875,
          "velocity": 0.5433070866141733
        },
        {
          "duration": 1.875,
          "durationTicks": 768,
          "midi": 63,
          "name": "D#4",
          "ticks": 8056,
          "time": 19.66796875,
          "velocity": 0.5433070866141733
        },
        {
          "duration": 1.875,
          "durationTicks": 768,
          "midi": 65,
          "name": "F4",
          "ticks": 8824,
          "time": 21.54296875,
          "velocity": 0.5433070866141733
        },
        {
          "duration": 0.9375,
          "durationTicks": 384,
          "midi": 61,
          "name": "C#4",
          "ticks": 8824,
          "time": 21.54296875,
          "velocity": 0.5433070866141733
        },
        {
          "duration": 0.9375,
          "durationTicks": 384,
          "midi": 58,
          "name": "A#3",
          "ticks": 9208,
          "time": 22.48046875,
          "velocity": 0.5433070866141733
        },
        {
          "duration": 0.9375,
          "durationTicks": 384,
          "midi": 66,
          "name": "F#4",
          "ticks": 9592,
          "time": 23.41796875,
          "velocity": 0.5433070866141733
        },
        {
          "duration": 0.9375,
          "durationTicks": 384,
          "midi": 63,
          "name": "D#4",
          "ticks": 9592,
          "time": 23.41796875,
          "velocity": 0.5433070866141733
        },
        {
          "duration": 0.703125,
          "durationTicks": 288,
          "midi": 65,
          "name": "F4",
          "ticks": 9976,
          "time": 24.35546875,
          "velocity": 0.5433070866141733
        },
        {
          "duration": 0.703125,
          "durationTicks": 288,
          "midi": 61,
          "name": "C#4",
          "ticks": 9976,
          "time": 24.35546875,
          "velocity": 0.5433070866141733
        },
        {
          "duration": 1.171875,
          "durationTicks": 480,
          "midi": 66,
          "name": "F#4",
          "ticks": 10264,
          "time": 25.05859375,
          "velocity": 0.5433070866141733
        },
        {
          "duration": 1.171875,
          "durationTicks": 480,
          "midi": 63,
          "name": "D#4",
          "ticks": 10264,
          "time": 25.05859375,
          "velocity": 0.5433070866141733
        },
        {
          "duration": 0.703125,
          "durationTicks": 288,
          "midi": 65,
          "name": "F4",
          "ticks": 10744,
          "time": 26.23046875,
          "velocity": 0.5433070866141733
        },
        {
          "duration": 0.703125,
          "durationTicks": 288,
          "midi": 61,
          "name": "C#4",
          "ticks": 10744,
          "time": 26.23046875,
          "velocity": 0.5433070866141733
        },
        {
          "duration": 1.171875,
          "durationTicks": 480,
          "midi": 66,
          "name": "F#4",
          "ticks": 11032,
          "time": 26.93359375,
          "velocity": 0.5433070866141733
        },
        {
          "duration": 1.171875,
          "durationTicks": 480,
          "midi": 63,
          "name": "D#4",
          "ticks": 11032,
          "time": 26.93359375,
          "velocity": 0.5433070866141733
        },
        {
          "duration": 0.9375,
          "durationTicks": 384,
          "midi": 66,
          "name": "F#4",
          "ticks": 11512,
          "time": 28.10546875,
          "velocity": 0.5433070866141733
        },
        {
          "duration": 0.9375,
          "durationTicks": 384,
          "midi": 63,
          "name": "D#4",
          "ticks": 11512,
          "time": 28.10546875,
          "velocity": 0.5433070866141733
        },
        {
          "duration": 1.8749999999999964,
          "durationTicks": 768,
          "midi": 65,
          "name": "F4",
          "ticks": 11896,
          "time": 29.04296875,
          "velocity": 0.5433070866141733
        },
        {
          "duration": 0.9375,
          "durationTicks": 384,
          "midi": 61,
          "name": "C#4",
          "ticks": 11896,
          "time": 29.04296875,
          "velocity": 0.5433070866141733
        },
        {
          "duration": 0.9374999999999964,
          "durationTicks": 384,
          "midi": 58,
          "name": "A#3",
          "ticks": 12280,
          "time": 29.98046875,
          "velocity": 0.5433070866141733
        },
        {
          "duration": 1.8750000000000036,
          "durationTicks": 768,
          "midi": 66,
          "name": "F#4",
          "ticks": 12664,
          "time": 30.917968749999996,
          "velocity": 0.5433070866141733
        },
        {
          "duration": 1.8750000000000036,
          "durationTicks": 768,
          "midi": 63,
          "name": "D#4",
          "ticks": 12664,
          "time": 30.917968749999996,
          "velocity": 0.5433070866141733
        },
        {
          "duration": 1.875,
          "durationTicks": 768,
          "midi": 65,
          "name": "F4",
          "ticks": 13432,
          "time": 32.79296875,
          "velocity": 0.5433070866141733
        },
        {
          "duration": 0.9375,
          "durationTicks": 384,
          "midi": 61,
          "name": "C#4",
          "ticks": 13432,
          "time": 32.79296875,
          "velocity": 0.5433070866141733
        },
        {
          "duration": 0.9375,
          "durationTicks": 384,
          "midi": 58,
          "name": "A#3",
          "ticks": 13816,
          "time": 33.73046875,
          "velocity": 0.5433070866141733
        },
        {
          "duration": 0.9375,
          "durationTicks": 384,
          "midi": 66,
          "name": "F#4",
          "ticks": 14200,
          "time": 34.66796875,
          "velocity": 0.5433070866141733
        },
        {
          "duration": 0.9375,
          "durationTicks": 384,
          "midi": 63,
          "name": "D#4",
          "ticks": 14200,
          "time": 34.66796875,
          "velocity": 0.5433070866141733
        },
        {
          "duration": 0.703125,
          "durationTicks": 288,
          "midi": 65,
          "name": "F4",
          "ticks": 14584,
          "time": 35.60546875,
          "velocity": 0.5433070866141733
        },
        {
          "duration": 0.703125,
          "durationTicks": 288,
          "midi": 61,
          "name": "C#4",
          "ticks": 14584,
          "time": 35.60546875,
          "velocity": 0.5433070866141733
        },
        {
          "duration": 1.171875,
          "durationTicks": 480,
          "midi": 66,
          "name": "F#4",
          "ticks": 14872,
          "time": 36.30859375,
          "velocity": 0.5433070866141733
        },
        {
          "duration": 1.171875,
          "durationTicks": 480,
          "midi": 63,
          "name": "D#4",
          "ticks": 14872,
          "time": 36.30859375,
          "velocity": 0.5433070866141733
        },
        {
          "duration": 0.703125,
          "durationTicks": 288,
          "midi": 65,
          "name": "F4",
          "ticks": 15352,
          "time": 37.48046875,
          "velocity": 0.5433070866141733
        },
        {
          "duration": 0.703125,
          "durationTicks": 288,
          "midi": 61,
          "name": "C#4",
          "ticks": 15352,
          "time": 37.48046875,
          "velocity": 0.5433070866141733
        },
        {
          "duration": 1.171875,
          "durationTicks": 480,
          "midi": 66,
          "name": "F#4",
          "ticks": 15640,
          "time": 38.18359375,
          "velocity": 0.5433070866141733
        },
        {
          "duration": 1.171875,
          "durationTicks": 480,
          "midi": 63,
          "name": "D#4",
          "ticks": 15640,
          "time": 38.18359375,
          "velocity": 0.5433070866141733
        },
        {
          "duration": 0.9375,
          "durationTicks": 384,
          "midi": 66,
          "name": "F#4",
          "ticks": 16120,
          "time": 39.35546875,
          "velocity": 0.5433070866141733
        },
        {
          "duration": 0.9375,
          "durationTicks": 384,
          "midi": 63,
          "name": "D#4",
          "ticks": 16120,
          "time": 39.35546875,
          "velocity": 0.5433070866141733
        },
        {
          "duration": 1.875,
          "durationTicks": 768,
          "midi": 65,
          "name": "F4",
          "ticks": 16504,
          "time": 40.29296875,
          "velocity": 0.5433070866141733
        },
        {
          "duration": 0.9375,
          "durationTicks": 384,
          "midi": 61,
          "name": "C#4",
          "ticks": 16504,
          "time": 40.29296875,
          "velocity": 0.5433070866141733
        },
        {
          "duration": 0.9375,
          "durationTicks": 384,
          "midi": 58,
          "name": "A#3",
          "ticks": 16888,
          "time": 41.23046875,
          "velocity": 0.5433070866141733
        },
        {
          "duration": 1.875,
          "durationTicks": 768,
          "midi": 66,
          "name": "F#4",
          "ticks": 17272,
          "time": 42.16796875,
          "velocity": 0.5433070866141733
        },
        {
          "duration": 1.875,
          "durationTicks": 768,
          "midi": 63,
          "name": "D#4",
          "ticks": 17272,
          "time": 42.16796875,
          "velocity": 0.5433070866141733
        },
        {
          "duration": 1.875,
          "durationTicks": 768,
          "midi": 65,
          "name": "F4",
          "ticks": 18040,
          "time": 44.04296875,
          "velocity": 0.5433070866141733
        },
        {
          "duration": 0.9375,
          "durationTicks": 384,
          "midi": 61,
          "name": "C#4",
          "ticks": 18040,
          "time": 44.04296875,
          "velocity": 0.5433070866141733
        },
        {
          "duration": 0.9375,
          "durationTicks": 384,
          "midi": 58,
          "name": "A#3",
          "ticks": 18424,
          "time": 44.98046875,
          "velocity": 0.5433070866141733
        },
        {
          "duration": 0.9375,
          "durationTicks": 384,
          "midi": 66,
          "name": "F#4",
          "ticks": 18808,
          "time": 45.91796875,
          "velocity": 0.5433070866141733
        },
        {
          "duration": 0.9375,
          "durationTicks": 384,
          "midi": 63,
          "name": "D#4",
          "ticks": 18808,
          "time": 45.91796875,
          "velocity": 0.5433070866141733
        },
        {
          "duration": 0.703125,
          "durationTicks": 288,
          "midi": 65,
          "name": "F4",
          "ticks": 19192,
          "time": 46.85546875,
          "velocity": 0.5433070866141733
        },
        {
          "duration": 0.703125,
          "durationTicks": 288,
          "midi": 61,
          "name": "C#4",
          "ticks": 19192,
          "time": 46.85546875,
          "velocity": 0.5433070866141733
        },
        {
          "duration": 1.171875,
          "durationTicks": 480,
          "midi": 66,
          "name": "F#4",
          "ticks": 19480,
          "time": 47.55859375,
          "velocity": 0.5433070866141733
        },
        {
          "duration": 1.171875,
          "durationTicks": 480,
          "midi": 63,
          "name": "D#4",
          "ticks": 19480,
          "time": 47.55859375,
          "velocity": 0.5433070866141733
        },
        {
          "duration": 0.703125,
          "durationTicks": 288,
          "midi": 65,
          "name": "F4",
          "ticks": 19960,
          "time": 48.73046875,
          "velocity": 0.5433070866141733
        },
        {
          "duration": 0.703125,
          "durationTicks": 288,
          "midi": 61,
          "name": "C#4",
          "ticks": 19960,
          "time": 48.73046875,
          "velocity": 0.5433070866141733
        },
        {
          "duration": 1.171875,
          "durationTicks": 480,
          "midi": 66,
          "name": "F#4",
          "ticks": 20248,
          "time": 49.43359375,
          "velocity": 0.5433070866141733
        },
        {
          "duration": 1.171875,
          "durationTicks": 480,
          "midi": 63,
          "name": "D#4",
          "ticks": 20248,
          "time": 49.43359375,
          "velocity": 0.5433070866141733
        },
        {
          "duration": 0.9375,
          "durationTicks": 384,
          "midi": 66,
          "name": "F#4",
          "ticks": 20728,
          "time": 50.60546875,
          "velocity": 0.5433070866141733
        },
        {
          "duration": 0.9375,
          "durationTicks": 384,
          "midi": 63,
          "name": "D#4",
          "ticks": 20728,
          "time": 50.60546875,
          "velocity": 0.5433070866141733
        },
        {
          "duration": 1.875,
          "durationTicks": 768,
          "midi": 65,
          "name": "F4",
          "ticks": 21112,
          "time": 51.54296875,
          "velocity": 0.5433070866141733
        },
        {
          "duration": 0.9375,
          "durationTicks": 384,
          "midi": 61,
          "name": "C#4",
          "ticks": 21112,
          "time": 51.54296875,
          "velocity": 0.5433070866141733
        },
        {
          "duration": 0.9375,
          "durationTicks": 384,
          "midi": 58,
          "name": "A#3",
          "ticks": 21496,
          "time": 52.48046875,
          "velocity": 0.5433070866141733
        },
        {
          "duration": 1.875,
          "durationTicks": 768,
          "midi": 66,
          "name": "F#4",
          "ticks": 21880,
          "time": 53.41796875,
          "velocity": 0.5433070866141733
        },
        {
          "duration": 1.875,
          "durationTicks": 768,
          "midi": 63,
          "name": "D#4",
          "ticks": 21880,
          "time": 53.41796875,
          "velocity": 0.5433070866141733
        },
        {
          "duration": 1.875,
          "durationTicks": 768,
          "midi": 65,
          "name": "F4",
          "ticks": 22648,
          "time": 55.29296875,
          "velocity": 0.5433070866141733
        },
        {
          "duration": 0.9375,
          "durationTicks": 384,
          "midi": 61,
          "name": "C#4",
          "ticks": 22648,
          "time": 55.29296875,
          "velocity": 0.5433070866141733
        },
        {
          "duration": 0.9375,
          "durationTicks": 384,
          "midi": 58,
          "name": "A#3",
          "ticks": 23032,
          "time": 56.23046875,
          "velocity": 0.5433070866141733
        },
        {
          "duration": 0.9375,
          "durationTicks": 384,
          "midi": 66,
          "name": "F#4",
          "ticks": 23416,
          "time": 57.16796875,
          "velocity": 0.5433070866141733
        },
        {
          "duration": 0.9375,
          "durationTicks": 384,
          "midi": 63,
          "name": "D#4",
          "ticks": 23416,
          "time": 57.16796875,
          "velocity": 0.5433070866141733
        },
        {
          "duration": 0.703125,
          "durationTicks": 288,
          "midi": 65,
          "name": "F4",
          "ticks": 23800,
          "time": 58.10546875,
          "velocity": 0.5433070866141733
        },
        {
          "duration": 0.703125,
          "durationTicks": 288,
          "midi": 61,
          "name": "C#4",
          "ticks": 23800,
          "time": 58.10546875,
          "velocity": 0.5433070866141733
        },
        {
          "duration": 1.171875,
          "durationTicks": 480,
          "midi": 66,
          "name": "F#4",
          "ticks": 24088,
          "time": 58.80859375,
          "velocity": 0.5433070866141733
        },
        {
          "duration": 1.171875,
          "durationTicks": 480,
          "midi": 63,
          "name": "D#4",
          "ticks": 24088,
          "time": 58.80859375,
          "velocity": 0.5433070866141733
        },
        {
          "duration": 0.7031250000000071,
          "durationTicks": 288,
          "midi": 65,
          "name": "F4",
          "ticks": 24568,
          "time": 59.98046875,
          "velocity": 0.5433070866141733
        },
        {
          "duration": 0.7031250000000071,
          "durationTicks": 288,
          "midi": 61,
          "name": "C#4",
          "ticks": 24568,
          "time": 59.98046875,
          "velocity": 0.5433070866141733
        },
        {
          "duration": 1.171875,
          "durationTicks": 480,
          "midi": 66,
          "name": "F#4",
          "ticks": 24856,
          "time": 60.68359375000001,
          "velocity": 0.5433070866141733
        },
        {
          "duration": 1.171875,
          "durationTicks": 480,
          "midi": 63,
          "name": "D#4",
          "ticks": 24856,
          "time": 60.68359375000001,
          "velocity": 0.5433070866141733
        },
        {
          "duration": 0.9375,
          "durationTicks": 384,
          "midi": 66,
          "name": "F#4",
          "ticks": 25336,
          "time": 61.85546875000001,
          "velocity": 0.5433070866141733
        },
        {
          "duration": 0.9375,
          "durationTicks": 384,
          "midi": 63,
          "name": "D#4",
          "ticks": 25336,
          "time": 61.85546875000001,
          "velocity": 0.5433070866141733
        },
        {
          "duration": 0.9375,
          "durationTicks": 384,
          "midi": 65,
          "name": "F4",
          "ticks": 25720,
          "time": 62.79296875000001,
          "velocity": 0.5433070866141733
        },
        {
          "duration": 0.9375,
          "durationTicks": 384,
          "midi": 61,
          "name": "C#4",
          "ticks": 25720,
          "time": 62.79296875000001,
          "velocity": 0.5433070866141733
        },
        {
          "duration": 0.7031249999999929,
          "durationTicks": 288,
          "midi": 63,
          "name": "D#4",
          "ticks": 26104,
          "time": 63.73046875000001,
          "velocity": 0.5433070866141733
        },
        {
          "duration": 0.7031249999999929,
          "durationTicks": 288,
          "midi": 59,
          "name": "B3",
          "ticks": 26104,
          "time": 63.73046875000001,
          "velocity": 0.5433070866141733
        },
        {
          "duration": 1.171875,
          "durationTicks": 480,
          "midi": 63,
          "name": "D#4",
          "ticks": 26392,
          "time": 64.43359375,
          "velocity": 0.5433070866141733
        },
        {
          "duration": 1.171875,
          "durationTicks": 480,
          "midi": 58,
          "name": "A#3",
          "ticks": 26392,
          "time": 64.43359375,
          "velocity": 0.5433070866141733
        },
        {
          "duration": 0.9375,
          "durationTicks": 384,
          "midi": 66,
          "name": "F#4",
          "ticks": 26872,
          "time": 65.60546875,
          "velocity": 0.5433070866141733
        },
        {
          "duration": 0.9375,
          "durationTicks": 384,
          "midi": 63,
          "name": "D#4",
          "ticks": 26872,
          "time": 65.60546875,
          "velocity": 0.5433070866141733
        },
        {
          "duration": 0.9375,
          "durationTicks": 384,
          "midi": 65,
          "name": "F4",
          "ticks": 27256,
          "time": 66.54296875,
          "velocity": 0.5433070866141733
        },
        {
          "duration": 0.9375,
          "durationTicks": 384,
          "midi": 61,
          "name": "C#4",
          "ticks": 27256,
          "time": 66.54296875,
          "velocity": 0.5433070866141733
        },
        {
          "duration": 0.703125,
          "durationTicks": 288,
          "midi": 63,
          "name": "D#4",
          "ticks": 27640,
          "time": 67.48046875,
          "velocity": 0.5433070866141733
        },
        {
          "duration": 0.703125,
          "durationTicks": 288,
          "midi": 59,
          "name": "B3",
          "ticks": 27640,
          "time": 67.48046875,
          "velocity": 0.5433070866141733
        },
        {
          "duration": 1.171875,
          "durationTicks": 480,
          "midi": 63,
          "name": "D#4",
          "ticks": 27928,
          "time": 68.18359375,
          "velocity": 0.5433070866141733
        },
        {
          "duration": 1.171875,
          "durationTicks": 480,
          "midi": 58,
          "name": "A#3",
          "ticks": 27928,
          "time": 68.18359375,
          "velocity": 0.5433070866141733
        },
        {
          "duration": 0.9375,
          "durationTicks": 384,
          "midi": 66,
          "name": "F#4",
          "ticks": 28408,
          "time": 69.35546875,
          "velocity": 0.5433070866141733
        },
        {
          "duration": 0.9375,
          "durationTicks": 384,
          "midi": 63,
          "name": "D#4",
          "ticks": 28408,
          "time": 69.35546875,
          "velocity": 0.5433070866141733
        },
        {
          "duration": 0.9375,
          "durationTicks": 384,
          "midi": 65,
          "name": "F4",
          "ticks": 28792,
          "time": 70.29296875,
          "velocity": 0.5433070866141733
        },
        {
          "duration": 0.9375,
          "durationTicks": 384,
          "midi": 61,
          "name": "C#4",
          "ticks": 28792,
          "time": 70.29296875,
          "velocity": 0.5433070866141733
        },
        {
          "duration": 0.703125,
          "durationTicks": 288,
          "midi": 63,
          "name": "D#4",
          "ticks": 29176,
          "time": 71.23046875,
          "velocity": 0.5433070866141733
        },
        {
          "duration": 0.703125,
          "durationTicks": 288,
          "midi": 59,
          "name": "B3",
          "ticks": 29176,
          "time": 71.23046875,
          "velocity": 0.5433070866141733
        },
        {
          "duration": 1.171875,
          "durationTicks": 480,
          "midi": 63,
          "name": "D#4",
          "ticks": 29464,
          "time": 71.93359375,
          "velocity": 0.5433070866141733
        },
        {
          "duration": 1.171875,
          "durationTicks": 480,
          "midi": 58,
          "name": "A#3",
          "ticks": 29464,
          "time": 71.93359375,
          "velocity": 0.5433070866141733
        },
        {
          "duration": 0.9375,
          "durationTicks": 384,
          "midi": 66,
          "name": "F#4",
          "ticks": 29944,
          "time": 73.10546875,
          "velocity": 0.5433070866141733
        },
        {
          "duration": 0.9375,
          "durationTicks": 384,
          "midi": 63,
          "name": "D#4",
          "ticks": 29944,
          "time": 73.10546875,
          "velocity": 0.5433070866141733
        },
        {
          "duration": 0.9375,
          "durationTicks": 384,
          "midi": 65,
          "name": "F4",
          "ticks": 30328,
          "time": 74.04296875,
          "velocity": 0.5433070866141733
        },
        {
          "duration": 0.9375,
          "durationTicks": 384,
          "midi": 61,
          "name": "C#4",
          "ticks": 30328,
          "time": 74.04296875,
          "velocity": 0.5433070866141733
        },
        {
          "duration": 0.703125,
          "durationTicks": 288,
          "midi": 63,
          "name": "D#4",
          "ticks": 30712,
          "time": 74.98046875,
          "velocity": 0.5433070866141733
        },
        {
          "duration": 0.703125,
          "durationTicks": 288,
          "midi": 59,
          "name": "B3",
          "ticks": 30712,
          "time": 74.98046875,
          "velocity": 0.5433070866141733
        },
        {
          "duration": 3.984375,
          "durationTicks": 1632,
          "midi": 66,
          "name": "F#4",
          "ticks": 31000,
          "time": 75.68359375,
          "velocity": 0.5433070866141733
        },
        {
          "duration": 3.984375,
          "durationTicks": 1632,
          "midi": 63,
          "name": "D#4",
          "ticks": 31000,
          "time": 75.68359375,
          "velocity": 0.5433070866141733
        },
        {
          "duration": 0.9375,
          "durationTicks": 384,
          "midi": 66,
          "name": "F#4",
          "ticks": 32632,
          "time": 79.66796875,
          "velocity": 0.5433070866141733
        },
        {
          "duration": 0.9375,
          "durationTicks": 384,
          "midi": 63,
          "name": "D#4",
          "ticks": 32632,
          "time": 79.66796875,
          "velocity": 0.5433070866141733
        },
        {
          "duration": 1.875,
          "durationTicks": 768,
          "midi": 65,
          "name": "F4",
          "ticks": 33016,
          "time": 80.60546875,
          "velocity": 0.5433070866141733
        },
        {
          "duration": 0.9375,
          "durationTicks": 384,
          "midi": 61,
          "name": "C#4",
          "ticks": 33016,
          "time": 80.60546875,
          "velocity": 0.5433070866141733
        },
        {
          "duration": 0.9375,
          "durationTicks": 384,
          "midi": 58,
          "name": "A#3",
          "ticks": 33400,
          "time": 81.54296875,
          "velocity": 0.5433070866141733
        },
        {
          "duration": 1.875,
          "durationTicks": 768,
          "midi": 66,
          "name": "F#4",
          "ticks": 33784,
          "time": 82.48046875,
          "velocity": 0.5433070866141733
        },
        {
          "duration": 1.875,
          "durationTicks": 768,
          "midi": 63,
          "name": "D#4",
          "ticks": 33784,
          "time": 82.48046875,
          "velocity": 0.5433070866141733
        },
        {
          "duration": 1.875,
          "durationTicks": 768,
          "midi": 65,
          "name": "F4",
          "ticks": 34552,
          "time": 84.35546875,
          "velocity": 0.5433070866141733
        },
        {
          "duration": 0.9375,
          "durationTicks": 384,
          "midi": 61,
          "name": "C#4",
          "ticks": 34552,
          "time": 84.35546875,
          "velocity": 0.5433070866141733
        },
        {
          "duration": 0.9375,
          "durationTicks": 384,
          "midi": 58,
          "name": "A#3",
          "ticks": 34936,
          "time": 85.29296875,
          "velocity": 0.5433070866141733
        },
        {
          "duration": 0.9375,
          "durationTicks": 384,
          "midi": 66,
          "name": "F#4",
          "ticks": 35320,
          "time": 86.23046875,
          "velocity": 0.5433070866141733
        },
        {
          "duration": 0.9375,
          "durationTicks": 384,
          "midi": 63,
          "name": "D#4",
          "ticks": 35320,
          "time": 86.23046875,
          "velocity": 0.5433070866141733
        },
        {
          "duration": 0.703125,
          "durationTicks": 288,
          "midi": 65,
          "name": "F4",
          "ticks": 35704,
          "time": 87.16796875,
          "velocity": 0.5433070866141733
        },
        {
          "duration": 0.703125,
          "durationTicks": 288,
          "midi": 61,
          "name": "C#4",
          "ticks": 35704,
          "time": 87.16796875,
          "velocity": 0.5433070866141733
        },
        {
          "duration": 1.171875,
          "durationTicks": 480,
          "midi": 66,
          "name": "F#4",
          "ticks": 35992,
          "time": 87.87109375,
          "velocity": 0.5433070866141733
        },
        {
          "duration": 1.171875,
          "durationTicks": 480,
          "midi": 63,
          "name": "D#4",
          "ticks": 35992,
          "time": 87.87109375,
          "velocity": 0.5433070866141733
        },
        {
          "duration": 0.703125,
          "durationTicks": 288,
          "midi": 65,
          "name": "F4",
          "ticks": 36472,
          "time": 89.04296875,
          "velocity": 0.5433070866141733
        },
        {
          "duration": 0.703125,
          "durationTicks": 288,
          "midi": 61,
          "name": "C#4",
          "ticks": 36472,
          "time": 89.04296875,
          "velocity": 0.5433070866141733
        },
        {
          "duration": 1.171875,
          "durationTicks": 480,
          "midi": 66,
          "name": "F#4",
          "ticks": 36760,
          "time": 89.74609375,
          "velocity": 0.5433070866141733
        },
        {
          "duration": 1.171875,
          "durationTicks": 480,
          "midi": 63,
          "name": "D#4",
          "ticks": 36760,
          "time": 89.74609375,
          "velocity": 0.5433070866141733
        },
        {
          "duration": 0.9375,
          "durationTicks": 384,
          "midi": 66,
          "name": "F#4",
          "ticks": 37240,
          "time": 90.91796875,
          "velocity": 0.5433070866141733
        },
        {
          "duration": 0.9375,
          "durationTicks": 384,
          "midi": 63,
          "name": "D#4",
          "ticks": 37240,
          "time": 90.91796875,
          "velocity": 0.5433070866141733
        },
        {
          "duration": 1.875,
          "durationTicks": 768,
          "midi": 65,
          "name": "F4",
          "ticks": 37624,
          "time": 91.85546875,
          "velocity": 0.5433070866141733
        },
        {
          "duration": 0.9375,
          "durationTicks": 384,
          "midi": 61,
          "name": "C#4",
          "ticks": 37624,
          "time": 91.85546875,
          "velocity": 0.5433070866141733
        },
        {
          "duration": 0.9375,
          "durationTicks": 384,
          "midi": 58,
          "name": "A#3",
          "ticks": 38008,
          "time": 92.79296875,
          "velocity": 0.5433070866141733
        },
        {
          "duration": 1.875,
          "durationTicks": 768,
          "midi": 66,
          "name": "F#4",
          "ticks": 38392,
          "time": 93.73046875,
          "velocity": 0.5433070866141733
        },
        {
          "duration": 1.875,
          "durationTicks": 768,
          "midi": 63,
          "name": "D#4",
          "ticks": 38392,
          "time": 93.73046875,
          "velocity": 0.5433070866141733
        },
        {
          "duration": 1.875,
          "durationTicks": 768,
          "midi": 65,
          "name": "F4",
          "ticks": 39160,
          "time": 95.60546875,
          "velocity": 0.5433070866141733
        },
        {
          "duration": 0.9375,
          "durationTicks": 384,
          "midi": 61,
          "name": "C#4",
          "ticks": 39160,
          "time": 95.60546875,
          "velocity": 0.5433070866141733
        },
        {
          "duration": 0.9375,
          "durationTicks": 384,
          "midi": 58,
          "name": "A#3",
          "ticks": 39544,
          "time": 96.54296875,
          "velocity": 0.5433070866141733
        },
        {
          "duration": 0.9375,
          "durationTicks": 384,
          "midi": 66,
          "name": "F#4",
          "ticks": 39928,
          "time": 97.48046875,
          "velocity": 0.5433070866141733
        },
        {
          "duration": 0.9375,
          "durationTicks": 384,
          "midi": 63,
          "name": "D#4",
          "ticks": 39928,
          "time": 97.48046875,
          "velocity": 0.5433070866141733
        },
        {
          "duration": 0.703125,
          "durationTicks": 288,
          "midi": 65,
          "name": "F4",
          "ticks": 40312,
          "time": 98.41796875,
          "velocity": 0.5433070866141733
        },
        {
          "duration": 0.703125,
          "durationTicks": 288,
          "midi": 61,
          "name": "C#4",
          "ticks": 40312,
          "time": 98.41796875,
          "velocity": 0.5433070866141733
        },
        {
          "duration": 1.171875,
          "durationTicks": 480,
          "midi": 66,
          "name": "F#4",
          "ticks": 40600,
          "time": 99.12109375,
          "velocity": 0.5433070866141733
        },
        {
          "duration": 1.171875,
          "durationTicks": 480,
          "midi": 63,
          "name": "D#4",
          "ticks": 40600,
          "time": 99.12109375,
          "velocity": 0.5433070866141733
        },
        {
          "duration": 0.703125,
          "durationTicks": 288,
          "midi": 65,
          "name": "F4",
          "ticks": 41080,
          "time": 100.29296875,
          "velocity": 0.5433070866141733
        },
        {
          "duration": 0.703125,
          "durationTicks": 288,
          "midi": 61,
          "name": "C#4",
          "ticks": 41080,
          "time": 100.29296875,
          "velocity": 0.5433070866141733
        },
        {
          "duration": 1.171875,
          "durationTicks": 480,
          "midi": 66,
          "name": "F#4",
          "ticks": 41368,
          "time": 100.99609375,
          "velocity": 0.5433070866141733
        },
        {
          "duration": 1.171875,
          "durationTicks": 480,
          "midi": 63,
          "name": "D#4",
          "ticks": 41368,
          "time": 100.99609375,
          "velocity": 0.5433070866141733
        },
        {
          "duration": 0.9375,
          "durationTicks": 384,
          "midi": 66,
          "name": "F#4",
          "ticks": 41848,
          "time": 102.16796875,
          "velocity": 0.5433070866141733
        },
        {
          "duration": 0.9375,
          "durationTicks": 384,
          "midi": 63,
          "name": "D#4",
          "ticks": 41848,
          "time": 102.16796875,
          "velocity": 0.5433070866141733
        },
        {
          "duration": 1.875,
          "durationTicks": 768,
          "midi": 65,
          "name": "F4",
          "ticks": 42232,
          "time": 103.10546875,
          "velocity": 0.5433070866141733
        },
        {
          "duration": 0.9375,
          "durationTicks": 384,
          "midi": 61,
          "name": "C#4",
          "ticks": 42232,
          "time": 103.10546875,
          "velocity": 0.5433070866141733
        },
        {
          "duration": 0.9375,
          "durationTicks": 384,
          "midi": 58,
          "name": "A#3",
          "ticks": 42616,
          "time": 104.04296875,
          "velocity": 0.5433070866141733
        },
        {
          "duration": 1.875,
          "durationTicks": 768,
          "midi": 66,
          "name": "F#4",
          "ticks": 43000,
          "time": 104.98046875,
          "velocity": 0.5433070866141733
        },
        {
          "duration": 1.875,
          "durationTicks": 768,
          "midi": 63,
          "name": "D#4",
          "ticks": 43000,
          "time": 104.98046875,
          "velocity": 0.5433070866141733
        },
        {
          "duration": 1.875,
          "durationTicks": 768,
          "midi": 65,
          "name": "F4",
          "ticks": 43768,
          "time": 106.85546875,
          "velocity": 0.5433070866141733
        },
        {
          "duration": 0.9375,
          "durationTicks": 384,
          "midi": 61,
          "name": "C#4",
          "ticks": 43768,
          "time": 106.85546875,
          "velocity": 0.5433070866141733
        },
        {
          "duration": 0.9375,
          "durationTicks": 384,
          "midi": 58,
          "name": "A#3",
          "ticks": 44152,
          "time": 107.79296875,
          "velocity": 0.5433070866141733
        },
        {
          "duration": 0.9375,
          "durationTicks": 384,
          "midi": 66,
          "name": "F#4",
          "ticks": 44536,
          "time": 108.73046875,
          "velocity": 0.5433070866141733
        },
        {
          "duration": 0.9375,
          "durationTicks": 384,
          "midi": 63,
          "name": "D#4",
          "ticks": 44536,
          "time": 108.73046875,
          "velocity": 0.5433070866141733
        },
        {
          "duration": 0.703125,
          "durationTicks": 288,
          "midi": 65,
          "name": "F4",
          "ticks": 44920,
          "time": 109.66796875,
          "velocity": 0.5433070866141733
        },
        {
          "duration": 0.703125,
          "durationTicks": 288,
          "midi": 61,
          "name": "C#4",
          "ticks": 44920,
          "time": 109.66796875,
          "velocity": 0.5433070866141733
        },
        {
          "duration": 1.171875,
          "durationTicks": 480,
          "midi": 66,
          "name": "F#4",
          "ticks": 45208,
          "time": 110.37109375,
          "velocity": 0.5433070866141733
        },
        {
          "duration": 1.171875,
          "durationTicks": 480,
          "midi": 63,
          "name": "D#4",
          "ticks": 45208,
          "time": 110.37109375,
          "velocity": 0.5433070866141733
        },
        {
          "duration": 0.703125,
          "durationTicks": 288,
          "midi": 65,
          "name": "F4",
          "ticks": 45688,
          "time": 111.54296875,
          "velocity": 0.5433070866141733
        },
        {
          "duration": 0.703125,
          "durationTicks": 288,
          "midi": 61,
          "name": "C#4",
          "ticks": 45688,
          "time": 111.54296875,
          "velocity": 0.5433070866141733
        },
        {
          "duration": 1.171875,
          "durationTicks": 480,
          "midi": 66,
          "name": "F#4",
          "ticks": 45976,
          "time": 112.24609375,
          "velocity": 0.5433070866141733
        },
        {
          "duration": 1.171875,
          "durationTicks": 480,
          "midi": 63,
          "name": "D#4",
          "ticks": 45976,
          "time": 112.24609375,
          "velocity": 0.5433070866141733
        },
        {
          "duration": 0.9375,
          "durationTicks": 384,
          "midi": 66,
          "name": "F#4",
          "ticks": 46456,
          "time": 113.41796875,
          "velocity": 0.5433070866141733
        },
        {
          "duration": 0.9375,
          "durationTicks": 384,
          "midi": 63,
          "name": "D#4",
          "ticks": 46456,
          "time": 113.41796875,
          "velocity": 0.5433070866141733
        },
        {
          "duration": 0.9375,
          "durationTicks": 384,
          "midi": 65,
          "name": "F4",
          "ticks": 46840,
          "time": 114.35546875,
          "velocity": 0.5433070866141733
        },
        {
          "duration": 0.9375,
          "durationTicks": 384,
          "midi": 61,
          "name": "C#4",
          "ticks": 46840,
          "time": 114.35546875,
          "velocity": 0.5433070866141733
        },
        {
          "duration": 0.703125,
          "durationTicks": 288,
          "midi": 63,
          "name": "D#4",
          "ticks": 47224,
          "time": 115.29296875,
          "velocity": 0.5433070866141733
        },
        {
          "duration": 0.703125,
          "durationTicks": 288,
          "midi": 59,
          "name": "B3",
          "ticks": 47224,
          "time": 115.29296875,
          "velocity": 0.5433070866141733
        },
        {
          "duration": 1.171875,
          "durationTicks": 480,
          "midi": 63,
          "name": "D#4",
          "ticks": 47512,
          "time": 115.99609375,
          "velocity": 0.5433070866141733
        },
        {
          "duration": 1.171875,
          "durationTicks": 480,
          "midi": 58,
          "name": "A#3",
          "ticks": 47512,
          "time": 115.99609375,
          "velocity": 0.5433070866141733
        },
        {
          "duration": 0.9375,
          "durationTicks": 384,
          "midi": 66,
          "name": "F#4",
          "ticks": 47992,
          "time": 117.16796875,
          "velocity": 0.5433070866141733
        },
        {
          "duration": 0.9375,
          "durationTicks": 384,
          "midi": 63,
          "name": "D#4",
          "ticks": 47992,
          "time": 117.16796875,
          "velocity": 0.5433070866141733
        },
        {
          "duration": 0.9375,
          "durationTicks": 384,
          "midi": 65,
          "name": "F4",
          "ticks": 48376,
          "time": 118.10546875,
          "velocity": 0.5433070866141733
        },
        {
          "duration": 0.9375,
          "durationTicks": 384,
          "midi": 61,
          "name": "C#4",
          "ticks": 48376,
          "time": 118.10546875,
          "velocity": 0.5433070866141733
        },
        {
          "duration": 0.703125,
          "durationTicks": 288,
          "midi": 63,
          "name": "D#4",
          "ticks": 48760,
          "time": 119.04296875,
          "velocity": 0.5433070866141733
        },
        {
          "duration": 0.703125,
          "durationTicks": 288,
          "midi": 59,
          "name": "B3",
          "ticks": 48760,
          "time": 119.04296875,
          "velocity": 0.5433070866141733
        },
        {
          "duration": 1.1718749999999858,
          "durationTicks": 480,
          "midi": 63,
          "name": "D#4",
          "ticks": 49048,
          "time": 119.74609375,
          "velocity": 0.5433070866141733
        },
        {
          "duration": 1.1718749999999858,
          "durationTicks": 480,
          "midi": 58,
          "name": "A#3",
          "ticks": 49048,
          "time": 119.74609375,
          "velocity": 0.5433070866141733
        },
        {
          "duration": 0.9375,
          "durationTicks": 384,
          "midi": 66,
          "name": "F#4",
          "ticks": 49528,
          "time": 120.91796874999999,
          "velocity": 0.5433070866141733
        },
        {
          "duration": 0.9375,
          "durationTicks": 384,
          "midi": 63,
          "name": "D#4",
          "ticks": 49528,
          "time": 120.91796874999999,
          "velocity": 0.5433070866141733
        },
        {
          "duration": 0.9375,
          "durationTicks": 384,
          "midi": 65,
          "name": "F4",
          "ticks": 49912,
          "time": 121.85546874999999,
          "velocity": 0.5433070866141733
        },
        {
          "duration": 0.9375,
          "durationTicks": 384,
          "midi": 61,
          "name": "C#4",
          "ticks": 49912,
          "time": 121.85546874999999,
          "velocity": 0.5433070866141733
        },
        {
          "duration": 0.703125,
          "durationTicks": 288,
          "midi": 63,
          "name": "D#4",
          "ticks": 50296,
          "time": 122.79296874999999,
          "velocity": 0.5433070866141733
        },
        {
          "duration": 0.703125,
          "durationTicks": 288,
          "midi": 59,
          "name": "B3",
          "ticks": 50296,
          "time": 122.79296874999999,
          "velocity": 0.5433070866141733
        },
        {
          "duration": 1.171875,
          "durationTicks": 480,
          "midi": 63,
          "name": "D#4",
          "ticks": 50584,
          "time": 123.49609374999999,
          "velocity": 0.5433070866141733
        },
        {
          "duration": 1.171875,
          "durationTicks": 480,
          "midi": 58,
          "name": "A#3",
          "ticks": 50584,
          "time": 123.49609374999999,
          "velocity": 0.5433070866141733
        },
        {
          "duration": 0.9375,
          "durationTicks": 384,
          "midi": 66,
          "name": "F#4",
          "ticks": 51064,
          "time": 124.66796874999999,
          "velocity": 0.5433070866141733
        },
        {
          "duration": 0.9375,
          "durationTicks": 384,
          "midi": 63,
          "name": "D#4",
          "ticks": 51064,
          "time": 124.66796874999999,
          "velocity": 0.5433070866141733
        },
        {
          "duration": 0.9375,
          "durationTicks": 384,
          "midi": 65,
          "name": "F4",
          "ticks": 51448,
          "time": 125.60546874999999,
          "velocity": 0.5433070866141733
        },
        {
          "duration": 0.9375,
          "durationTicks": 384,
          "midi": 61,
          "name": "C#4",
          "ticks": 51448,
          "time": 125.60546874999999,
          "velocity": 0.5433070866141733
        },
        {
          "duration": 0.703125,
          "durationTicks": 288,
          "midi": 63,
          "name": "D#4",
          "ticks": 51832,
          "time": 126.54296874999999,
          "velocity": 0.5433070866141733
        },
        {
          "duration": 0.703125,
          "durationTicks": 288,
          "midi": 59,
          "name": "B3",
          "ticks": 51832,
          "time": 126.54296874999999,
          "velocity": 0.5433070866141733
        },
        {
          "duration": 3.989257812500014,
          "durationTicks": 1634,
          "midi": 66,
          "name": "F#4",
          "ticks": 52120,
          "time": 127.24609374999999,
          "velocity": 0.5433070866141733
        },
        {
          "duration": 3.972167968750014,
          "durationTicks": 1627,
          "midi": 63,
          "name": "D#4",
          "ticks": 52120,
          "time": 127.24609374999999,
          "velocity": 0.5433070866141733
        },
        {
          "duration": 0.9375,
          "durationTicks": 384,
          "midi": 66,
          "name": "F#4",
          "ticks": 53752,
          "time": 131.23046875,
          "velocity": 0.5433070866141733
        },
        {
          "duration": 0.9375,
          "durationTicks": 384,
          "midi": 63,
          "name": "D#4",
          "ticks": 53752,
          "time": 131.23046875,
          "velocity": 0.5433070866141733
        },
        {
          "duration": 1.875,
          "durationTicks": 768,
          "midi": 65,
          "name": "F4",
          "ticks": 54136,
          "time": 132.16796875,
          "velocity": 0.5433070866141733
        },
        {
          "duration": 0.9375,
          "durationTicks": 384,
          "midi": 61,
          "name": "C#4",
          "ticks": 54136,
          "time": 132.16796875,
          "velocity": 0.5433070866141733
        },
        {
          "duration": 0.9375,
          "durationTicks": 384,
          "midi": 58,
          "name": "A#3",
          "ticks": 54520,
          "time": 133.10546875,
          "velocity": 0.5433070866141733
        },
        {
          "duration": 1.875,
          "durationTicks": 768,
          "midi": 66,
          "name": "F#4",
          "ticks": 54904,
          "time": 134.04296875,
          "velocity": 0.5433070866141733
        },
        {
          "duration": 1.875,
          "durationTicks": 768,
          "midi": 63,
          "name": "D#4",
          "ticks": 54904,
          "time": 134.04296875,
          "velocity": 0.5433070866141733
        },
        {
          "duration": 1.875,
          "durationTicks": 768,
          "midi": 65,
          "name": "F4",
          "ticks": 55672,
          "time": 135.91796875,
          "velocity": 0.5433070866141733
        },
        {
          "duration": 0.9375,
          "durationTicks": 384,
          "midi": 61,
          "name": "C#4",
          "ticks": 55672,
          "time": 135.91796875,
          "velocity": 0.5433070866141733
        },
        {
          "duration": 0.9375,
          "durationTicks": 384,
          "midi": 58,
          "name": "A#3",
          "ticks": 56056,
          "time": 136.85546875,
          "velocity": 0.5433070866141733
        },
        {
          "duration": 0.9375,
          "durationTicks": 384,
          "midi": 66,
          "name": "F#4",
          "ticks": 56440,
          "time": 137.79296875,
          "velocity": 0.5433070866141733
        },
        {
          "duration": 0.9375,
          "durationTicks": 384,
          "midi": 63,
          "name": "D#4",
          "ticks": 56440,
          "time": 137.79296875,
          "velocity": 0.5433070866141733
        },
        {
          "duration": 0.703125,
          "durationTicks": 288,
          "midi": 65,
          "name": "F4",
          "ticks": 56824,
          "time": 138.73046875,
          "velocity": 0.5433070866141733
        },
        {
          "duration": 0.703125,
          "durationTicks": 288,
          "midi": 61,
          "name": "C#4",
          "ticks": 56824,
          "time": 138.73046875,
          "velocity": 0.5433070866141733
        },
        {
          "duration": 1.171875,
          "durationTicks": 480,
          "midi": 66,
          "name": "F#4",
          "ticks": 57112,
          "time": 139.43359375,
          "velocity": 0.5433070866141733
        },
        {
          "duration": 1.171875,
          "durationTicks": 480,
          "midi": 63,
          "name": "D#4",
          "ticks": 57112,
          "time": 139.43359375,
          "velocity": 0.5433070866141733
        },
        {
          "duration": 0.703125,
          "durationTicks": 288,
          "midi": 65,
          "name": "F4",
          "ticks": 57592,
          "time": 140.60546875,
          "velocity": 0.5433070866141733
        },
        {
          "duration": 0.703125,
          "durationTicks": 288,
          "midi": 61,
          "name": "C#4",
          "ticks": 57592,
          "time": 140.60546875,
          "velocity": 0.5433070866141733
        },
        {
          "duration": 1.19140625,
          "durationTicks": 488,
          "midi": 66,
          "name": "F#4",
          "ticks": 57880,
          "time": 141.30859375,
          "velocity": 0.5433070866141733
        },
        {
          "duration": 1.19140625,
          "durationTicks": 488,
          "midi": 63,
          "name": "D#4",
          "ticks": 57880,
          "time": 141.30859375,
          "velocity": 0.5433070866141733
        },
        {
          "duration": 1.875,
          "durationTicks": 768,
          "midi": 70,
          "name": "A#4",
          "ticks": 58360,
          "time": 142.48046875,
          "velocity": 0.5433070866141733
        },
        {
          "duration": 1.875,
          "durationTicks": 768,
          "midi": 66,
          "name": "F#4",
          "ticks": 58360,
          "time": 142.48046875,
          "velocity": 0.5433070866141733
        },
        {
          "duration": 1.875,
          "durationTicks": 768,
          "midi": 63,
          "name": "D#4",
          "ticks": 58360,
          "time": 142.48046875,
          "velocity": 0.5433070866141733
        },
        {
          "duration": 1.875,
          "durationTicks": 768,
          "midi": 68,
          "name": "G#4",
          "ticks": 59128,
          "time": 144.35546875,
          "velocity": 0.5433070866141733
        },
        {
          "duration": 1.875,
          "durationTicks": 768,
          "midi": 65,
          "name": "F4",
          "ticks": 59128,
          "time": 144.35546875,
          "velocity": 0.5433070866141733
        },
        {
          "duration": 1.875,
          "durationTicks": 768,
          "midi": 61,
          "name": "C#4",
          "ticks": 59128,
          "time": 144.35546875,
          "velocity": 0.5433070866141733
        },
        {
          "duration": 1.875,
          "durationTicks": 768,
          "midi": 70,
          "name": "A#4",
          "ticks": 59896,
          "time": 146.23046875,
          "velocity": 0.5433070866141733
        },
        {
          "duration": 1.875,
          "durationTicks": 768,
          "midi": 66,
          "name": "F#4",
          "ticks": 59896,
          "time": 146.23046875,
          "velocity": 0.5433070866141733
        },
        {
          "duration": 1.875,
          "durationTicks": 768,
          "midi": 63,
          "name": "D#4",
          "ticks": 59896,
          "time": 146.23046875,
          "velocity": 0.5433070866141733
        },
        {
          "duration": 0.9375,
          "durationTicks": 384,
          "midi": 71,
          "name": "B4",
          "ticks": 60664,
          "time": 148.10546875,
          "velocity": 0.5433070866141733
        },
        {
          "duration": 0.9375,
          "durationTicks": 384,
          "midi": 66,
          "name": "F#4",
          "ticks": 60664,
          "time": 148.10546875,
          "velocity": 0.5433070866141733
        },
        {
          "duration": 0.9375,
          "durationTicks": 384,
          "midi": 63,
          "name": "D#4",
          "ticks": 60664,
          "time": 148.10546875,
          "velocity": 0.5433070866141733
        },
        {
          "duration": 0.9375,
          "durationTicks": 384,
          "midi": 70,
          "name": "A#4",
          "ticks": 61048,
          "time": 149.04296875,
          "velocity": 0.5433070866141733
        },
        {
          "duration": 0.9375,
          "durationTicks": 384,
          "midi": 65,
          "name": "F4",
          "ticks": 61048,
          "time": 149.04296875,
          "velocity": 0.5433070866141733
        },
        {
          "duration": 0.9375,
          "durationTicks": 384,
          "midi": 62,
          "name": "D4",
          "ticks": 61048,
          "time": 149.04296875,
          "velocity": 0.5433070866141733
        },
        {
          "duration": 1.875,
          "durationTicks": 768,
          "midi": 70,
          "name": "A#4",
          "ticks": 61432,
          "time": 149.98046875,
          "velocity": 0.5433070866141733
        },
        {
          "duration": 1.875,
          "durationTicks": 768,
          "midi": 66,
          "name": "F#4",
          "ticks": 61432,
          "time": 149.98046875,
          "velocity": 0.5433070866141733
        },
        {
          "duration": 1.875,
          "durationTicks": 768,
          "midi": 63,
          "name": "D#4",
          "ticks": 61432,
          "time": 149.98046875,
          "velocity": 0.5433070866141733
        },
        {
          "duration": 1.875,
          "durationTicks": 768,
          "midi": 68,
          "name": "G#4",
          "ticks": 62200,
          "time": 151.85546875,
          "velocity": 0.5433070866141733
        },
        {
          "duration": 1.875,
          "durationTicks": 768,
          "midi": 65,
          "name": "F4",
          "ticks": 62200,
          "time": 151.85546875,
          "velocity": 0.5433070866141733
        },
        {
          "duration": 1.875,
          "durationTicks": 768,
          "midi": 61,
          "name": "C#4",
          "ticks": 62200,
          "time": 151.85546875,
          "velocity": 0.5433070866141733
        },
        {
          "duration": 1.875,
          "durationTicks": 768,
          "midi": 70,
          "name": "A#4",
          "ticks": 62968,
          "time": 153.73046875,
          "velocity": 0.5433070866141733
        },
        {
          "duration": 1.875,
          "durationTicks": 768,
          "midi": 66,
          "name": "F#4",
          "ticks": 62968,
          "time": 153.73046875,
          "velocity": 0.5433070866141733
        },
        {
          "duration": 1.875,
          "durationTicks": 768,
          "midi": 63,
          "name": "D#4",
          "ticks": 62968,
          "time": 153.73046875,
          "velocity": 0.5433070866141733
        },
        {
          "duration": 0.9375,
          "durationTicks": 384,
          "midi": 71,
          "name": "B4",
          "ticks": 63736,
          "time": 155.60546875,
          "velocity": 0.5433070866141733
        },
        {
          "duration": 0.9375,
          "durationTicks": 384,
          "midi": 66,
          "name": "F#4",
          "ticks": 63736,
          "time": 155.60546875,
          "velocity": 0.5433070866141733
        },
        {
          "duration": 0.9375,
          "durationTicks": 384,
          "midi": 63,
          "name": "D#4",
          "ticks": 63736,
          "time": 155.60546875,
          "velocity": 0.5433070866141733
        },
        {
          "duration": 0.9375,
          "durationTicks": 384,
          "midi": 70,
          "name": "A#4",
          "ticks": 64120,
          "time": 156.54296875,
          "velocity": 0.5433070866141733
        },
        {
          "duration": 0.9375,
          "durationTicks": 384,
          "midi": 65,
          "name": "F4",
          "ticks": 64120,
          "time": 156.54296875,
          "velocity": 0.5433070866141733
        },
        {
          "duration": 0.9375,
          "durationTicks": 384,
          "midi": 62,
          "name": "D4",
          "ticks": 64120,
          "time": 156.54296875,
          "velocity": 0.5433070866141733
        },
        {
          "duration": 1.875,
          "durationTicks": 768,
          "midi": 65,
          "name": "F4",
          "ticks": 64888,
          "time": 158.41796875,
          "velocity": 0.5433070866141733
        },
        {
          "duration": 0.9375,
          "durationTicks": 384,
          "midi": 61,
          "name": "C#4",
          "ticks": 64888,
          "time": 158.41796875,
          "velocity": 0.5433070866141733
        },
        {
          "duration": 0.9375,
          "durationTicks": 384,
          "midi": 58,
          "name": "A#3",
          "ticks": 65272,
          "time": 159.35546875,
          "velocity": 0.5433070866141733
        },
        {
          "duration": 1.875,
          "durationTicks": 768,
          "midi": 66,
          "name": "F#4",
          "ticks": 65656,
          "time": 160.29296875,
          "velocity": 0.5433070866141733
        },
        {
          "duration": 1.875,
          "durationTicks": 768,
          "midi": 63,
          "name": "D#4",
          "ticks": 65656,
          "time": 160.29296875,
          "velocity": 0.5433070866141733
        },
        {
          "duration": 1.875,
          "durationTicks": 768,
          "midi": 65,
          "name": "F4",
          "ticks": 66424,
          "time": 162.16796875,
          "velocity": 0.5433070866141733
        },
        {
          "duration": 0.9375,
          "durationTicks": 384,
          "midi": 61,
          "name": "C#4",
          "ticks": 66424,
          "time": 162.16796875,
          "velocity": 0.5433070866141733
        },
        {
          "duration": 0.9375,
          "durationTicks": 384,
          "midi": 58,
          "name": "A#3",
          "ticks": 66808,
          "time": 163.10546875,
          "velocity": 0.5433070866141733
        },
        {
          "duration": 0.9375,
          "durationTicks": 384,
          "midi": 66,
          "name": "F#4",
          "ticks": 67192,
          "time": 164.04296875,
          "velocity": 0.5433070866141733
        },
        {
          "duration": 0.9375,
          "durationTicks": 384,
          "midi": 63,
          "name": "D#4",
          "ticks": 67192,
          "time": 164.04296875,
          "velocity": 0.5433070866141733
        },
        {
          "duration": 0.9375,
          "durationTicks": 384,
          "midi": 65,
          "name": "F4",
          "ticks": 67576,
          "time": 164.98046875,
          "velocity": 0.5433070866141733
        },
        {
          "duration": 0.9375,
          "durationTicks": 384,
          "midi": 61,
          "name": "C#4",
          "ticks": 67576,
          "time": 164.98046875,
          "velocity": 0.5433070866141733
        },
        {
          "duration": 0.9375,
          "durationTicks": 384,
          "midi": 66,
          "name": "F#4",
          "ticks": 67960,
          "time": 165.91796875,
          "velocity": 0.5433070866141733
        },
        {
          "duration": 0.9375,
          "durationTicks": 384,
          "midi": 63,
          "name": "D#4",
          "ticks": 67960,
          "time": 165.91796875,
          "velocity": 0.5433070866141733
        },
        {
          "duration": 0.9375,
          "durationTicks": 384,
          "midi": 65,
          "name": "F4",
          "ticks": 68344,
          "time": 166.85546875,
          "velocity": 0.5433070866141733
        },
        {
          "duration": 0.9375,
          "durationTicks": 384,
          "midi": 61,
          "name": "C#4",
          "ticks": 68344,
          "time": 166.85546875,
          "velocity": 0.5433070866141733
        },
        {
          "duration": 0.9375,
          "durationTicks": 384,
          "midi": 66,
          "name": "F#4",
          "ticks": 68728,
          "time": 167.79296875,
          "velocity": 0.5433070866141733
        },
        {
          "duration": 0.9375,
          "durationTicks": 384,
          "midi": 63,
          "name": "D#4",
          "ticks": 68728,
          "time": 167.79296875,
          "velocity": 0.5433070866141733
        },
        {
          "duration": 0.9375,
          "durationTicks": 384,
          "midi": 66,
          "name": "F#4",
          "ticks": 75256,
          "time": 183.73046875,
          "velocity": 0.5433070866141733
        },
        {
          "duration": 0.9375,
          "durationTicks": 384,
          "midi": 63,
          "name": "D#4",
          "ticks": 75256,
          "time": 183.73046875,
          "velocity": 0.5433070866141733
        },
        {
          "duration": 1.875,
          "durationTicks": 768,
          "midi": 65,
          "name": "F4",
          "ticks": 75640,
          "time": 184.66796875,
          "velocity": 0.5433070866141733
        },
        {
          "duration": 0.9375,
          "durationTicks": 384,
          "midi": 61,
          "name": "C#4",
          "ticks": 75640,
          "time": 184.66796875,
          "velocity": 0.5433070866141733
        },
        {
          "duration": 0.9375,
          "durationTicks": 384,
          "midi": 58,
          "name": "A#3",
          "ticks": 76024,
          "time": 185.60546875,
          "velocity": 0.5433070866141733
        },
        {
          "duration": 1.875,
          "durationTicks": 768,
          "midi": 66,
          "name": "F#4",
          "ticks": 76408,
          "time": 186.54296875,
          "velocity": 0.5433070866141733
        },
        {
          "duration": 1.875,
          "durationTicks": 768,
          "midi": 63,
          "name": "D#4",
          "ticks": 76408,
          "time": 186.54296875,
          "velocity": 0.5433070866141733
        },
        {
          "duration": 1.875,
          "durationTicks": 768,
          "midi": 65,
          "name": "F4",
          "ticks": 77176,
          "time": 188.41796875,
          "velocity": 0.5433070866141733
        },
        {
          "duration": 0.9375,
          "durationTicks": 384,
          "midi": 61,
          "name": "C#4",
          "ticks": 77176,
          "time": 188.41796875,
          "velocity": 0.5433070866141733
        },
        {
          "duration": 0.9375,
          "durationTicks": 384,
          "midi": 58,
          "name": "A#3",
          "ticks": 77560,
          "time": 189.35546875,
          "velocity": 0.5433070866141733
        },
        {
          "duration": 0.9375,
          "durationTicks": 384,
          "midi": 66,
          "name": "F#4",
          "ticks": 77944,
          "time": 190.29296875,
          "velocity": 0.5433070866141733
        },
        {
          "duration": 0.9375,
          "durationTicks": 384,
          "midi": 63,
          "name": "D#4",
          "ticks": 77944,
          "time": 190.29296875,
          "velocity": 0.5433070866141733
        },
        {
          "duration": 0.703125,
          "durationTicks": 288,
          "midi": 65,
          "name": "F4",
          "ticks": 78328,
          "time": 191.23046875,
          "velocity": 0.5433070866141733
        },
        {
          "duration": 0.703125,
          "durationTicks": 288,
          "midi": 61,
          "name": "C#4",
          "ticks": 78328,
          "time": 191.23046875,
          "velocity": 0.5433070866141733
        },
        {
          "duration": 1.171875,
          "durationTicks": 480,
          "midi": 66,
          "name": "F#4",
          "ticks": 78616,
          "time": 191.93359375,
          "velocity": 0.5433070866141733
        },
        {
          "duration": 1.171875,
          "durationTicks": 480,
          "midi": 63,
          "name": "D#4",
          "ticks": 78616,
          "time": 191.93359375,
          "velocity": 0.5433070866141733
        },
        {
          "duration": 0.703125,
          "durationTicks": 288,
          "midi": 65,
          "name": "F4",
          "ticks": 79096,
          "time": 193.10546875,
          "velocity": 0.5433070866141733
        },
        {
          "duration": 0.703125,
          "durationTicks": 288,
          "midi": 61,
          "name": "C#4",
          "ticks": 79096,
          "time": 193.10546875,
          "velocity": 0.5433070866141733
        },
        {
          "duration": 1.171875,
          "durationTicks": 480,
          "midi": 66,
          "name": "F#4",
          "ticks": 79384,
          "time": 193.80859375,
          "velocity": 0.5433070866141733
        },
        {
          "duration": 1.171875,
          "durationTicks": 480,
          "midi": 63,
          "name": "D#4",
          "ticks": 79384,
          "time": 193.80859375,
          "velocity": 0.5433070866141733
        },
        {
          "duration": 0.9375,
          "durationTicks": 384,
          "midi": 66,
          "name": "F#4",
          "ticks": 79864,
          "time": 194.98046875,
          "velocity": 0.5433070866141733
        },
        {
          "duration": 0.9375,
          "durationTicks": 384,
          "midi": 63,
          "name": "D#4",
          "ticks": 79864,
          "time": 194.98046875,
          "velocity": 0.5433070866141733
        },
        {
          "duration": 1.875,
          "durationTicks": 768,
          "midi": 65,
          "name": "F4",
          "ticks": 80248,
          "time": 195.91796875,
          "velocity": 0.5433070866141733
        },
        {
          "duration": 0.9375,
          "durationTicks": 384,
          "midi": 61,
          "name": "C#4",
          "ticks": 80248,
          "time": 195.91796875,
          "velocity": 0.5433070866141733
        },
        {
          "duration": 0.9375,
          "durationTicks": 384,
          "midi": 58,
          "name": "A#3",
          "ticks": 80632,
          "time": 196.85546875,
          "velocity": 0.5433070866141733
        },
        {
          "duration": 1.875,
          "durationTicks": 768,
          "midi": 66,
          "name": "F#4",
          "ticks": 81016,
          "time": 197.79296875,
          "velocity": 0.5433070866141733
        },
        {
          "duration": 1.875,
          "durationTicks": 768,
          "midi": 63,
          "name": "D#4",
          "ticks": 81016,
          "time": 197.79296875,
          "velocity": 0.5433070866141733
        },
        {
          "duration": 1.875,
          "durationTicks": 768,
          "midi": 65,
          "name": "F4",
          "ticks": 81784,
          "time": 199.66796875,
          "velocity": 0.5433070866141733
        },
        {
          "duration": 0.9375,
          "durationTicks": 384,
          "midi": 61,
          "name": "C#4",
          "ticks": 81784,
          "time": 199.66796875,
          "velocity": 0.5433070866141733
        },
        {
          "duration": 0.9375,
          "durationTicks": 384,
          "midi": 58,
          "name": "A#3",
          "ticks": 82168,
          "time": 200.60546875,
          "velocity": 0.5433070866141733
        },
        {
          "duration": 0.9375,
          "durationTicks": 384,
          "midi": 66,
          "name": "F#4",
          "ticks": 82552,
          "time": 201.54296875,
          "velocity": 0.5433070866141733
        },
        {
          "duration": 0.9375,
          "durationTicks": 384,
          "midi": 63,
          "name": "D#4",
          "ticks": 82552,
          "time": 201.54296875,
          "velocity": 0.5433070866141733
        },
        {
          "duration": 0.703125,
          "durationTicks": 288,
          "midi": 65,
          "name": "F4",
          "ticks": 82936,
          "time": 202.48046875,
          "velocity": 0.5433070866141733
        },
        {
          "duration": 0.703125,
          "durationTicks": 288,
          "midi": 61,
          "name": "C#4",
          "ticks": 82936,
          "time": 202.48046875,
          "velocity": 0.5433070866141733
        },
        {
          "duration": 1.171875,
          "durationTicks": 480,
          "midi": 66,
          "name": "F#4",
          "ticks": 83224,
          "time": 203.18359375,
          "velocity": 0.5433070866141733
        },
        {
          "duration": 1.171875,
          "durationTicks": 480,
          "midi": 63,
          "name": "D#4",
          "ticks": 83224,
          "time": 203.18359375,
          "velocity": 0.5433070866141733
        },
        {
          "duration": 0.703125,
          "durationTicks": 288,
          "midi": 65,
          "name": "F4",
          "ticks": 83704,
          "time": 204.35546875,
          "velocity": 0.5433070866141733
        },
        {
          "duration": 0.703125,
          "durationTicks": 288,
          "midi": 61,
          "name": "C#4",
          "ticks": 83704,
          "time": 204.35546875,
          "velocity": 0.5433070866141733
        },
        {
          "duration": 1.171875,
          "durationTicks": 480,
          "midi": 66,
          "name": "F#4",
          "ticks": 83992,
          "time": 205.05859375,
          "velocity": 0.5433070866141733
        },
        {
          "duration": 1.171875,
          "durationTicks": 480,
          "midi": 63,
          "name": "D#4",
          "ticks": 83992,
          "time": 205.05859375,
          "velocity": 0.5433070866141733
        },
        {
          "duration": 0.9375,
          "durationTicks": 384,
          "midi": 66,
          "name": "F#4",
          "ticks": 84472,
          "time": 206.23046875,
          "velocity": 0.5433070866141733
        },
        {
          "duration": 0.9375,
          "durationTicks": 384,
          "midi": 63,
          "name": "D#4",
          "ticks": 84472,
          "time": 206.23046875,
          "velocity": 0.5433070866141733
        },
        {
          "duration": 1.875,
          "durationTicks": 768,
          "midi": 65,
          "name": "F4",
          "ticks": 84856,
          "time": 207.16796875,
          "velocity": 0.5433070866141733
        },
        {
          "duration": 0.9375,
          "durationTicks": 384,
          "midi": 61,
          "name": "C#4",
          "ticks": 84856,
          "time": 207.16796875,
          "velocity": 0.5433070866141733
        },
        {
          "duration": 0.9375,
          "durationTicks": 384,
          "midi": 58,
          "name": "A#3",
          "ticks": 85240,
          "time": 208.10546875,
          "velocity": 0.5433070866141733
        },
        {
          "duration": 1.875,
          "durationTicks": 768,
          "midi": 66,
          "name": "F#4",
          "ticks": 85624,
          "time": 209.04296875,
          "velocity": 0.5433070866141733
        },
        {
          "duration": 1.875,
          "durationTicks": 768,
          "midi": 63,
          "name": "D#4",
          "ticks": 85624,
          "time": 209.04296875,
          "velocity": 0.5433070866141733
        },
        {
          "duration": 1.875,
          "durationTicks": 768,
          "midi": 65,
          "name": "F4",
          "ticks": 86392,
          "time": 210.91796875,
          "velocity": 0.5433070866141733
        },
        {
          "duration": 0.9375,
          "durationTicks": 384,
          "midi": 61,
          "name": "C#4",
          "ticks": 86392,
          "time": 210.91796875,
          "velocity": 0.5433070866141733
        },
        {
          "duration": 0.9375,
          "durationTicks": 384,
          "midi": 58,
          "name": "A#3",
          "ticks": 86776,
          "time": 211.85546875,
          "velocity": 0.5433070866141733
        },
        {
          "duration": 0.9375,
          "durationTicks": 384,
          "midi": 66,
          "name": "F#4",
          "ticks": 87160,
          "time": 212.79296875,
          "velocity": 0.5433070866141733
        },
        {
          "duration": 0.9375,
          "durationTicks": 384,
          "midi": 63,
          "name": "D#4",
          "ticks": 87160,
          "time": 212.79296875,
          "velocity": 0.5433070866141733
        },
        {
          "duration": 0.703125,
          "durationTicks": 288,
          "midi": 65,
          "name": "F4",
          "ticks": 87544,
          "time": 213.73046875,
          "velocity": 0.5433070866141733
        },
        {
          "duration": 0.703125,
          "durationTicks": 288,
          "midi": 61,
          "name": "C#4",
          "ticks": 87544,
          "time": 213.73046875,
          "velocity": 0.5433070866141733
        },
        {
          "duration": 1.171875,
          "durationTicks": 480,
          "midi": 66,
          "name": "F#4",
          "ticks": 87832,
          "time": 214.43359375,
          "velocity": 0.5433070866141733
        },
        {
          "duration": 1.171875,
          "durationTicks": 480,
          "midi": 63,
          "name": "D#4",
          "ticks": 87832,
          "time": 214.43359375,
          "velocity": 0.5433070866141733
        },
        {
          "duration": 0.703125,
          "durationTicks": 288,
          "midi": 65,
          "name": "F4",
          "ticks": 88312,
          "time": 215.60546875,
          "velocity": 0.5433070866141733
        },
        {
          "duration": 0.703125,
          "durationTicks": 288,
          "midi": 61,
          "name": "C#4",
          "ticks": 88312,
          "time": 215.60546875,
          "velocity": 0.5433070866141733
        },
        {
          "duration": 1.171875,
          "durationTicks": 480,
          "midi": 66,
          "name": "F#4",
          "ticks": 88600,
          "time": 216.30859375,
          "velocity": 0.5433070866141733
        },
        {
          "duration": 1.171875,
          "durationTicks": 480,
          "midi": 63,
          "name": "D#4",
          "ticks": 88600,
          "time": 216.30859375,
          "velocity": 0.5433070866141733
        },
        {
          "duration": 0.9375,
          "durationTicks": 384,
          "midi": 66,
          "name": "F#4",
          "ticks": 89080,
          "time": 217.48046875,
          "velocity": 0.5433070866141733
        },
        {
          "duration": 0.9375,
          "durationTicks": 384,
          "midi": 63,
          "name": "D#4",
          "ticks": 89080,
          "time": 217.48046875,
          "velocity": 0.5433070866141733
        },
        {
          "duration": 0.9375,
          "durationTicks": 384,
          "midi": 65,
          "name": "F4",
          "ticks": 89464,
          "time": 218.41796875,
          "velocity": 0.5433070866141733
        },
        {
          "duration": 0.9375,
          "durationTicks": 384,
          "midi": 61,
          "name": "C#4",
          "ticks": 89464,
          "time": 218.41796875,
          "velocity": 0.5433070866141733
        },
        {
          "duration": 0.703125,
          "durationTicks": 288,
          "midi": 63,
          "name": "D#4",
          "ticks": 89800,
          "time": 219.23828125,
          "velocity": 0.5433070866141733
        },
        {
          "duration": 0.703125,
          "durationTicks": 288,
          "midi": 59,
          "name": "B3",
          "ticks": 89800,
          "time": 219.23828125,
          "velocity": 0.5433070866141733
        },
        {
          "duration": 1.171875,
          "durationTicks": 480,
          "midi": 63,
          "name": "D#4",
          "ticks": 90136,
          "time": 220.05859375,
          "velocity": 0.5433070866141733
        },
        {
          "duration": 1.171875,
          "durationTicks": 480,
          "midi": 58,
          "name": "A#3",
          "ticks": 90136,
          "time": 220.05859375,
          "velocity": 0.5433070866141733
        },
        {
          "duration": 0.9375,
          "durationTicks": 384,
          "midi": 66,
          "name": "F#4",
          "ticks": 90616,
          "time": 221.23046875,
          "velocity": 0.5433070866141733
        },
        {
          "duration": 0.9375,
          "durationTicks": 384,
          "midi": 63,
          "name": "D#4",
          "ticks": 90616,
          "time": 221.23046875,
          "velocity": 0.5433070866141733
        },
        {
          "duration": 0.9375,
          "durationTicks": 384,
          "midi": 65,
          "name": "F4",
          "ticks": 91000,
          "time": 222.16796875,
          "velocity": 0.5433070866141733
        },
        {
          "duration": 0.9375,
          "durationTicks": 384,
          "midi": 61,
          "name": "C#4",
          "ticks": 91000,
          "time": 222.16796875,
          "velocity": 0.5433070866141733
        },
        {
          "duration": 0.703125,
          "durationTicks": 288,
          "midi": 63,
          "name": "D#4",
          "ticks": 91384,
          "time": 223.10546875,
          "velocity": 0.5433070866141733
        },
        {
          "duration": 0.703125,
          "durationTicks": 288,
          "midi": 59,
          "name": "B3",
          "ticks": 91384,
          "time": 223.10546875,
          "velocity": 0.5433070866141733
        },
        {
          "duration": 1.171875,
          "durationTicks": 480,
          "midi": 63,
          "name": "D#4",
          "ticks": 91672,
          "time": 223.80859375,
          "velocity": 0.5433070866141733
        },
        {
          "duration": 1.171875,
          "durationTicks": 480,
          "midi": 58,
          "name": "A#3",
          "ticks": 91672,
          "time": 223.80859375,
          "velocity": 0.5433070866141733
        },
        {
          "duration": 0.9375,
          "durationTicks": 384,
          "midi": 66,
          "name": "F#4",
          "ticks": 92152,
          "time": 224.98046875,
          "velocity": 0.5433070866141733
        },
        {
          "duration": 0.9375,
          "durationTicks": 384,
          "midi": 63,
          "name": "D#4",
          "ticks": 92152,
          "time": 224.98046875,
          "velocity": 0.5433070866141733
        },
        {
          "duration": 0.9375,
          "durationTicks": 384,
          "midi": 65,
          "name": "F4",
          "ticks": 92536,
          "time": 225.91796875,
          "velocity": 0.5433070866141733
        },
        {
          "duration": 0.9375,
          "durationTicks": 384,
          "midi": 61,
          "name": "C#4",
          "ticks": 92536,
          "time": 225.91796875,
          "velocity": 0.5433070866141733
        },
        {
          "duration": 0.703125,
          "durationTicks": 288,
          "midi": 63,
          "name": "D#4",
          "ticks": 92920,
          "time": 226.85546875,
          "velocity": 0.5433070866141733
        },
        {
          "duration": 0.703125,
          "durationTicks": 288,
          "midi": 59,
          "name": "B3",
          "ticks": 92920,
          "time": 226.85546875,
          "velocity": 0.5433070866141733
        },
        {
          "duration": 1.171875,
          "durationTicks": 480,
          "midi": 63,
          "name": "D#4",
          "ticks": 93208,
          "time": 227.55859375,
          "velocity": 0.5433070866141733
        },
        {
          "duration": 1.171875,
          "durationTicks": 480,
          "midi": 58,
          "name": "A#3",
          "ticks": 93208,
          "time": 227.55859375,
          "velocity": 0.5433070866141733
        },
        {
          "duration": 0.9375,
          "durationTicks": 384,
          "midi": 66,
          "name": "F#4",
          "ticks": 93688,
          "time": 228.73046875,
          "velocity": 0.5433070866141733
        },
        {
          "duration": 0.9375,
          "durationTicks": 384,
          "midi": 63,
          "name": "D#4",
          "ticks": 93688,
          "time": 228.73046875,
          "velocity": 0.5433070866141733
        },
        {
          "duration": 0.9375,
          "durationTicks": 384,
          "midi": 65,
          "name": "F4",
          "ticks": 94072,
          "time": 229.66796875,
          "velocity": 0.5433070866141733
        },
        {
          "duration": 0.9375,
          "durationTicks": 384,
          "midi": 61,
          "name": "C#4",
          "ticks": 94072,
          "time": 229.66796875,
          "velocity": 0.5433070866141733
        },
        {
          "duration": 0.703125,
          "durationTicks": 288,
          "midi": 63,
          "name": "D#4",
          "ticks": 94456,
          "time": 230.60546875,
          "velocity": 0.5433070866141733
        },
        {
          "duration": 0.703125,
          "durationTicks": 288,
          "midi": 59,
          "name": "B3",
          "ticks": 94456,
          "time": 230.60546875,
          "velocity": 0.5433070866141733
        },
        {
          "duration": 3.984375,
          "durationTicks": 1632,
          "midi": 66,
          "name": "F#4",
          "ticks": 94744,
          "time": 231.30859375,
          "velocity": 0.5433070866141733
        },
        {
          "duration": 3.984375,
          "durationTicks": 1632,
          "midi": 63,
          "name": "D#4",
          "ticks": 94744,
          "time": 231.30859375,
          "velocity": 0.5433070866141733
        },
        {
          "duration": 0.9375,
          "durationTicks": 384,
          "midi": 66,
          "name": "F#4",
          "ticks": 96376,
          "time": 235.29296875,
          "velocity": 0.5433070866141733
        },
        {
          "duration": 0.9375,
          "durationTicks": 384,
          "midi": 63,
          "name": "D#4",
          "ticks": 96376,
          "time": 235.29296875,
          "velocity": 0.5433070866141733
        },
        {
          "duration": 1.875,
          "durationTicks": 768,
          "midi": 65,
          "name": "F4",
          "ticks": 96760,
          "time": 236.23046875,
          "velocity": 0.5433070866141733
        },
        {
          "duration": 0.9375,
          "durationTicks": 384,
          "midi": 61,
          "name": "C#4",
          "ticks": 96760,
          "time": 236.23046875,
          "velocity": 0.5433070866141733
        },
        {
          "duration": 0.9375,
          "durationTicks": 384,
          "midi": 58,
          "name": "A#3",
          "ticks": 97144,
          "time": 237.16796875,
          "velocity": 0.5433070866141733
        },
        {
          "duration": 1.875,
          "durationTicks": 768,
          "midi": 66,
          "name": "F#4",
          "ticks": 97528,
          "time": 238.10546875,
          "velocity": 0.5433070866141733
        },
        {
          "duration": 1.875,
          "durationTicks": 768,
          "midi": 63,
          "name": "D#4",
          "ticks": 97528,
          "time": 238.10546875,
          "velocity": 0.5433070866141733
        },
        {
          "duration": 1.8750000000000284,
          "durationTicks": 768,
          "midi": 65,
          "name": "F4",
          "ticks": 98296,
          "time": 239.98046875,
          "velocity": 0.5433070866141733
        },
        {
          "duration": 0.9375000000000284,
          "durationTicks": 384,
          "midi": 61,
          "name": "C#4",
          "ticks": 98296,
          "time": 239.98046875,
          "velocity": 0.5433070866141733
        },
        {
          "duration": 0.9375,
          "durationTicks": 384,
          "midi": 58,
          "name": "A#3",
          "ticks": 98680,
          "time": 240.91796875000003,
          "velocity": 0.5433070866141733
        },
        {
          "duration": 0.9375,
          "durationTicks": 384,
          "midi": 66,
          "name": "F#4",
          "ticks": 99064,
          "time": 241.85546875000003,
          "velocity": 0.5433070866141733
        },
        {
          "duration": 0.9375,
          "durationTicks": 384,
          "midi": 63,
          "name": "D#4",
          "ticks": 99064,
          "time": 241.85546875000003,
          "velocity": 0.5433070866141733
        },
        {
          "duration": 0.703125,
          "durationTicks": 288,
          "midi": 65,
          "name": "F4",
          "ticks": 99448,
          "time": 242.79296875000003,
          "velocity": 0.5433070866141733
        },
        {
          "duration": 0.703125,
          "durationTicks": 288,
          "midi": 61,
          "name": "C#4",
          "ticks": 99448,
          "time": 242.79296875000003,
          "velocity": 0.5433070866141733
        },
        {
          "duration": 1.171875,
          "durationTicks": 480,
          "midi": 66,
          "name": "F#4",
          "ticks": 99736,
          "time": 243.49609375000003,
          "velocity": 0.5433070866141733
        },
        {
          "duration": 1.171875,
          "durationTicks": 480,
          "midi": 63,
          "name": "D#4",
          "ticks": 99736,
          "time": 243.49609375000003,
          "velocity": 0.5433070866141733
        },
        {
          "duration": 0.703125,
          "durationTicks": 288,
          "midi": 65,
          "name": "F4",
          "ticks": 100216,
          "time": 244.66796875000003,
          "velocity": 0.5433070866141733
        },
        {
          "duration": 0.703125,
          "durationTicks": 288,
          "midi": 61,
          "name": "C#4",
          "ticks": 100216,
          "time": 244.66796875000003,
          "velocity": 0.5433070866141733
        },
        {
          "duration": 1.171875,
          "durationTicks": 480,
          "midi": 66,
          "name": "F#4",
          "ticks": 100504,
          "time": 245.37109375000003,
          "velocity": 0.5433070866141733
        },
        {
          "duration": 1.171875,
          "durationTicks": 480,
          "midi": 63,
          "name": "D#4",
          "ticks": 100504,
          "time": 245.37109375000003,
          "velocity": 0.5433070866141733
        },
        {
          "duration": 0.9375,
          "durationTicks": 384,
          "midi": 66,
          "name": "F#4",
          "ticks": 100984,
          "time": 246.54296875000003,
          "velocity": 0.5433070866141733
        },
        {
          "duration": 0.9375,
          "durationTicks": 384,
          "midi": 63,
          "name": "D#4",
          "ticks": 100984,
          "time": 246.54296875000003,
          "velocity": 0.5433070866141733
        },
        {
          "duration": 0.8203125,
          "durationTicks": 336,
          "midi": 65,
          "name": "F4",
          "ticks": 101368,
          "time": 247.48046875000003,
          "velocity": 0.5433070866141733
        },
        {
          "duration": 0.9375,
          "durationTicks": 384,
          "midi": 61,
          "name": "C#4",
          "ticks": 101368,
          "time": 247.48046875000003,
          "velocity": 0.5433070866141733
        },
        {
          "duration": 0.703125,
          "durationTicks": 288,
          "midi": 63,
          "name": "D#4",
          "ticks": 101752,
          "time": 248.41796875000003,
          "velocity": 0.5433070866141733
        },
        {
          "duration": 0.703125,
          "durationTicks": 288,
          "midi": 59,
          "name": "B3",
          "ticks": 101752,
          "time": 248.41796875000003,
          "velocity": 0.5433070866141733
        },
        {
          "duration": 1.171875,
          "durationTicks": 480,
          "midi": 62,
          "name": "D4",
          "ticks": 102040,
          "time": 249.12109375000003,
          "velocity": 0.5433070866141733
        },
        {
          "duration": 1.171875,
          "durationTicks": 480,
          "midi": 58,
          "name": "A#3",
          "ticks": 102040,
          "time": 249.12109375000003,
          "velocity": 0.5433070866141733
        },
        {
          "duration": 0.9375,
          "durationTicks": 384,
          "midi": 66,
          "name": "F#4",
          "ticks": 102520,
          "time": 250.29296875000003,
          "velocity": 0.5433070866141733
        },
        {
          "duration": 0.9375,
          "durationTicks": 384,
          "midi": 63,
          "name": "D#4",
          "ticks": 102520,
          "time": 250.29296875000003,
          "velocity": 0.5433070866141733
        },
        {
          "duration": 0.9375,
          "durationTicks": 384,
          "midi": 65,
          "name": "F4",
          "ticks": 102904,
          "time": 251.23046875000003,
          "velocity": 0.5433070866141733
        },
        {
          "duration": 0.9375,
          "durationTicks": 384,
          "midi": 61,
          "name": "C#4",
          "ticks": 102904,
          "time": 251.23046875000003,
          "velocity": 0.5433070866141733
        },
        {
          "duration": 0.703125,
          "durationTicks": 288,
          "midi": 63,
          "name": "D#4",
          "ticks": 103288,
          "time": 252.16796875000003,
          "velocity": 0.5433070866141733
        },
        {
          "duration": 0.703125,
          "durationTicks": 288,
          "midi": 59,
          "name": "B3",
          "ticks": 103288,
          "time": 252.16796875000003,
          "velocity": 0.5433070866141733
        },
        {
          "duration": 1.171875,
          "durationTicks": 480,
          "midi": 62,
          "name": "D4",
          "ticks": 103576,
          "time": 252.87109375000003,
          "velocity": 0.5433070866141733
        },
        {
          "duration": 1.171875,
          "durationTicks": 480,
          "midi": 58,
          "name": "A#3",
          "ticks": 103576,
          "time": 252.87109375000003,
          "velocity": 0.5433070866141733
        },
        {
          "duration": 0.9375,
          "durationTicks": 384,
          "midi": 66,
          "name": "F#4",
          "ticks": 104056,
          "time": 254.04296875000003,
          "velocity": 0.5433070866141733
        },
        {
          "duration": 0.9375,
          "durationTicks": 384,
          "midi": 63,
          "name": "D#4",
          "ticks": 104056,
          "time": 254.04296875000003,
          "velocity": 0.5433070866141733
        },
        {
          "duration": 0.9375,
          "durationTicks": 384,
          "midi": 65,
          "name": "F4",
          "ticks": 104440,
          "time": 254.98046875000003,
          "velocity": 0.5433070866141733
        },
        {
          "duration": 0.9375,
          "durationTicks": 384,
          "midi": 61,
          "name": "C#4",
          "ticks": 104440,
          "time": 254.98046875000003,
          "velocity": 0.5433070866141733
        },
        {
          "duration": 0.7031249999999716,
          "durationTicks": 288,
          "midi": 63,
          "name": "D#4",
          "ticks": 104824,
          "time": 255.91796875000003,
          "velocity": 0.5433070866141733
        },
        {
          "duration": 0.7031249999999716,
          "durationTicks": 288,
          "midi": 59,
          "name": "B3",
          "ticks": 104824,
          "time": 255.91796875000003,
          "velocity": 0.5433070866141733
        },
        {
          "duration": 1.171875,
          "durationTicks": 480,
          "midi": 62,
          "name": "D4",
          "ticks": 105112,
          "time": 256.62109375,
          "velocity": 0.5433070866141733
        },
        {
          "duration": 1.171875,
          "durationTicks": 480,
          "midi": 58,
          "name": "A#3",
          "ticks": 105112,
          "time": 256.62109375,
          "velocity": 0.5433070866141733
        },
        {
          "duration": 0.9375,
          "durationTicks": 384,
          "midi": 66,
          "name": "F#4",
          "ticks": 105592,
          "time": 257.79296875,
          "velocity": 0.5433070866141733
        },
        {
          "duration": 0.9375,
          "durationTicks": 384,
          "midi": 63,
          "name": "D#4",
          "ticks": 105592,
          "time": 257.79296875,
          "velocity": 0.5433070866141733
        },
        {
          "duration": 0.9375,
          "durationTicks": 384,
          "midi": 65,
          "name": "F4",
          "ticks": 105976,
          "time": 258.73046875,
          "velocity": 0.5433070866141733
        },
        {
          "duration": 0.9375,
          "durationTicks": 384,
          "midi": 61,
          "name": "C#4",
          "ticks": 105976,
          "time": 258.73046875,
          "velocity": 0.5433070866141733
        },
        {
          "duration": 0.5859375,
          "durationTicks": 240,
          "midi": 63,
          "name": "D#4",
          "ticks": 106360,
          "time": 259.66796875,
          "velocity": 0.5433070866141733
        },
        {
          "duration": 0.5859375,
          "durationTicks": 240,
          "midi": 59,
          "name": "B3",
          "ticks": 106360,
          "time": 259.66796875,
          "velocity": 0.5433070866141733
        },
        {
          "duration": 3.984375,
          "durationTicks": 1632,
          "midi": 66,
          "name": "F#4",
          "ticks": 106648,
          "time": 260.37109375,
          "velocity": 0.5433070866141733
        },
        {
          "duration": 3.984375,
          "durationTicks": 1632,
          "midi": 63,
          "name": "D#4",
          "ticks": 106648,
          "time": 260.37109375,
          "velocity": 0.5433070866141733
        },
        {
          "duration": 0.9375,
          "durationTicks": 384,
          "midi": 66,
          "name": "F#4",
          "ticks": 108280,
          "time": 264.35546875,
          "velocity": 0.5433070866141733
        },
        {
          "duration": 0.9375,
          "durationTicks": 384,
          "midi": 63,
          "name": "D#4",
          "ticks": 108280,
          "time": 264.35546875,
          "velocity": 0.5433070866141733
        },
        {
          "duration": 1.875,
          "durationTicks": 768,
          "midi": 65,
          "name": "F4",
          "ticks": 108664,
          "time": 265.29296875,
          "velocity": 0.5433070866141733
        },
        {
          "duration": 0.9375,
          "durationTicks": 384,
          "midi": 61,
          "name": "C#4",
          "ticks": 108664,
          "time": 265.29296875,
          "velocity": 0.5433070866141733
        },
        {
          "duration": 0.9375,
          "durationTicks": 384,
          "midi": 58,
          "name": "A#3",
          "ticks": 109048,
          "time": 266.23046875,
          "velocity": 0.5433070866141733
        },
        {
          "duration": 1.875,
          "durationTicks": 768,
          "midi": 66,
          "name": "F#4",
          "ticks": 109432,
          "time": 267.16796875,
          "velocity": 0.5433070866141733
        },
        {
          "duration": 1.875,
          "durationTicks": 768,
          "midi": 63,
          "name": "D#4",
          "ticks": 109432,
          "time": 267.16796875,
          "velocity": 0.5433070866141733
        },
        {
          "duration": 1.640625,
          "durationTicks": 672,
          "midi": 65,
          "name": "F4",
          "ticks": 110200,
          "time": 269.04296875,
          "velocity": 0.5433070866141733
        },
        {
          "duration": 0.9375,
          "durationTicks": 384,
          "midi": 61,
          "name": "C#4",
          "ticks": 110200,
          "time": 269.04296875,
          "velocity": 0.5433070866141733
        },
        {
          "duration": 0.703125,
          "durationTicks": 288,
          "midi": 58,
          "name": "A#3",
          "ticks": 110584,
          "time": 269.98046875,
          "velocity": 0.5433070866141733
        },
        {
          "duration": 0.9375,
          "durationTicks": 384,
          "midi": 66,
          "name": "F#4",
          "ticks": 110872,
          "time": 270.68359375,
          "velocity": 0.5433070866141733
        },
        {
          "duration": 0.9375,
          "durationTicks": 384,
          "midi": 63,
          "name": "D#4",
          "ticks": 110872,
          "time": 270.68359375,
          "velocity": 0.5433070866141733
        }
      ]
    },
    {
      "channel": 0,
      "controlChanges": {
        "0": [
          {
            "number": 0,
            "ticks": 274,
            "time": 0.6689453125,
            "value": 0
          }
        ],
        "32": [
          {
            "number": 32,
            "ticks": 276,
            "time": 0.673828125,
            "value": 0
          }
        ],
        "121": [
          {
            "number": 121,
            "ticks": 192,
            "time": 0.46875,
            "value": 0
          }
        ]
      },
      "pitchBends": [],
      "instrument": {
        "family": "piano",
        "number": 0,
        "name": "acoustic grand piano"
      },
      "name": "",
      "notes": [],
      "endOfTrackTicks": 112128
    },
    {
      "channel": 5,
      "controlChanges": {
        "7": [
          {
            "number": 7,
            "ticks": 280,
            "time": 0.68359375,
            "value": 0.7874015748031497
          }
        ],
        "10": [
          {
            "number": 10,
            "ticks": 282,
            "time": 0.6884765625,
            "value": 0.4566929133858268
          }
        ],
        "11": [
          {
            "number": 11,
            "ticks": 284,
            "time": 0.693359375,
            "value": 1
          }
        ],
        "91": [
          {
            "number": 91,
            "ticks": 286,
            "time": 0.6982421875,
            "value": 1
          }
        ],
        "93": [
          {
            "number": 93,
            "ticks": 288,
            "time": 0.703125,
            "value": 0.11023622047244094
          }
        ]
      },
      "pitchBends": [],
      "instrument": {
        "family": "ensemble",
        "number": 48,
        "name": "string ensemble 1"
      },
      "name": "",
      "notes": [
        {
          "duration": 0.234375,
          "durationTicks": 96,
          "midi": 77,
          "name": "F5",
          "ticks": 9984,
          "time": 24.375,
          "velocity": 0.6850393700787402
        },
        {
          "duration": 0.234375,
          "durationTicks": 96,
          "midi": 68,
          "name": "G#4",
          "ticks": 9984,
          "time": 24.375,
          "velocity": 0.6850393700787402
        },
        {
          "duration": 0.234375,
          "durationTicks": 96,
          "midi": 78,
          "name": "F#5",
          "ticks": 10080,
          "time": 24.609375,
          "velocity": 0.6850393700787402
        },
        {
          "duration": 0.234375,
          "durationTicks": 96,
          "midi": 70,
          "name": "A#4",
          "ticks": 10080,
          "time": 24.609375,
          "velocity": 0.6850393700787402
        },
        {
          "duration": 0.234375,
          "durationTicks": 96,
          "midi": 77,
          "name": "F5",
          "ticks": 10176,
          "time": 24.84375,
          "velocity": 0.6850393700787402
        },
        {
          "duration": 0.234375,
          "durationTicks": 96,
          "midi": 68,
          "name": "G#4",
          "ticks": 10176,
          "time": 24.84375,
          "velocity": 0.6850393700787402
        },
        {
          "duration": 0.234375,
          "durationTicks": 96,
          "midi": 73,
          "name": "C#5",
          "ticks": 10272,
          "time": 25.078125,
          "velocity": 0.5984251968503937
        },
        {
          "duration": 0.234375,
          "durationTicks": 96,
          "midi": 65,
          "name": "F4",
          "ticks": 10272,
          "time": 25.078125,
          "velocity": 0.7086614173228346
        },
        {
          "duration": 0.5859375,
          "durationTicks": 240,
          "midi": 75,
          "name": "D#5",
          "ticks": 10368,
          "time": 25.3125,
          "velocity": 0.6850393700787402
        },
        {
          "duration": 0.5859375,
          "durationTicks": 240,
          "midi": 66,
          "name": "F#4",
          "ticks": 10368,
          "time": 25.3125,
          "velocity": 0.6850393700787402
        },
        {
          "duration": 0.234375,
          "durationTicks": 96,
          "midi": 78,
          "name": "F#5",
          "ticks": 25344,
          "time": 61.875,
          "velocity": 0.5039370078740157
        },
        {
          "duration": 0.234375,
          "durationTicks": 96,
          "midi": 77,
          "name": "F5",
          "ticks": 25440,
          "time": 62.109375,
          "velocity": 0.5275590551181102
        },
        {
          "duration": 0.234375,
          "durationTicks": 96,
          "midi": 78,
          "name": "F#5",
          "ticks": 25536,
          "time": 62.34375,
          "velocity": 0.5039370078740157
        },
        {
          "duration": 1.171875,
          "durationTicks": 480,
          "midi": 77,
          "name": "F5",
          "ticks": 25632,
          "time": 62.578125,
          "velocity": 0.5433070866141733
        },
        {
          "duration": 0.234375,
          "durationTicks": 96,
          "midi": 78,
          "name": "F#5",
          "ticks": 26112,
          "time": 63.75,
          "velocity": 0.5196850393700787
        },
        {
          "duration": 0.234375,
          "durationTicks": 96,
          "midi": 77,
          "name": "F5",
          "ticks": 26208,
          "time": 63.984375,
          "velocity": 0.5669291338582677
        },
        {
          "duration": 0.234375,
          "durationTicks": 96,
          "midi": 75,
          "name": "D#5",
          "ticks": 26304,
          "time": 64.21875,
          "velocity": 0.44881889763779526
        },
        {
          "duration": 1.171875,
          "durationTicks": 480,
          "midi": 77,
          "name": "F5",
          "ticks": 26400,
          "time": 64.453125,
          "velocity": 0.5118110236220472
        },
        {
          "duration": 0.234375,
          "durationTicks": 96,
          "midi": 78,
          "name": "F#5",
          "ticks": 26880,
          "time": 65.625,
          "velocity": 0.47244094488188976
        },
        {
          "duration": 0.234375,
          "durationTicks": 96,
          "midi": 77,
          "name": "F5",
          "ticks": 26976,
          "time": 65.859375,
          "velocity": 0.5039370078740157
        },
        {
          "duration": 0.234375,
          "durationTicks": 96,
          "midi": 78,
          "name": "F#5",
          "ticks": 27072,
          "time": 66.09375,
          "velocity": 0.49606299212598426
        },
        {
          "duration": 1.171875,
          "durationTicks": 480,
          "midi": 77,
          "name": "F5",
          "ticks": 27168,
          "time": 66.328125,
          "velocity": 0.48031496062992124
        },
        {
          "duration": 0.234375,
          "durationTicks": 96,
          "midi": 78,
          "name": "F#5",
          "ticks": 27648,
          "time": 67.5,
          "velocity": 0.5039370078740157
        },
        {
          "duration": 0.234375,
          "durationTicks": 96,
          "midi": 77,
          "name": "F5",
          "ticks": 27744,
          "time": 67.734375,
          "velocity": 0.5354330708661418
        },
        {
          "duration": 0.234375,
          "durationTicks": 96,
          "midi": 75,
          "name": "D#5",
          "ticks": 27840,
          "time": 67.96875,
          "velocity": 0.5433070866141733
        },
        {
          "duration": 1.171875,
          "durationTicks": 480,
          "midi": 77,
          "name": "F5",
          "ticks": 27936,
          "time": 68.203125,
          "velocity": 0.49606299212598426
        },
        {
          "duration": 0.234375,
          "durationTicks": 96,
          "midi": 78,
          "name": "F#5",
          "ticks": 28416,
          "time": 69.375,
          "velocity": 0.4881889763779528
        },
        {
          "duration": 0.234375,
          "durationTicks": 96,
          "midi": 77,
          "name": "F5",
          "ticks": 28512,
          "time": 69.609375,
          "velocity": 0.4881889763779528
        },
        {
          "duration": 0.234375,
          "durationTicks": 96,
          "midi": 78,
          "name": "F#5",
          "ticks": 28608,
          "time": 69.84375,
          "velocity": 0.47244094488188976
        },
        {
          "duration": 1.171875,
          "durationTicks": 480,
          "midi": 77,
          "name": "F5",
          "ticks": 28704,
          "time": 70.078125,
          "velocity": 0.5354330708661418
        },
        {
          "duration": 0.234375,
          "durationTicks": 96,
          "midi": 78,
          "name": "F#5",
          "ticks": 29184,
          "time": 71.25,
          "velocity": 0.5039370078740157
        },
        {
          "duration": 0.234375,
          "durationTicks": 96,
          "midi": 77,
          "name": "F5",
          "ticks": 29280,
          "time": 71.484375,
          "velocity": 0.5118110236220472
        },
        {
          "duration": 0.234375,
          "durationTicks": 96,
          "midi": 75,
          "name": "D#5",
          "ticks": 29376,
          "time": 71.71875,
          "velocity": 0.4566929133858268
        },
        {
          "duration": 1.171875,
          "durationTicks": 480,
          "midi": 77,
          "name": "F5",
          "ticks": 29472,
          "time": 71.953125,
          "velocity": 0.47244094488188976
        },
        {
          "duration": 0.234375,
          "durationTicks": 96,
          "midi": 78,
          "name": "F#5",
          "ticks": 29952,
          "time": 73.125,
          "velocity": 0.4881889763779528
        },
        {
          "duration": 0.234375,
          "durationTicks": 96,
          "midi": 77,
          "name": "F5",
          "ticks": 30048,
          "time": 73.359375,
          "velocity": 0.5039370078740157
        },
        {
          "duration": 0.234375,
          "durationTicks": 96,
          "midi": 78,
          "name": "F#5",
          "ticks": 30144,
          "time": 73.59375,
          "velocity": 0.4881889763779528
        },
        {
          "duration": 1.171875,
          "durationTicks": 480,
          "midi": 77,
          "name": "F5",
          "ticks": 30240,
          "time": 73.828125,
          "velocity": 0.4881889763779528
        },
        {
          "duration": 0.234375,
          "durationTicks": 96,
          "midi": 73,
          "name": "C#5",
          "ticks": 30720,
          "time": 75,
          "velocity": 0.6929133858267716
        },
        {
          "duration": 0.234375,
          "durationTicks": 96,
          "midi": 71,
          "name": "B4",
          "ticks": 30816,
          "time": 75.234375,
          "velocity": 0.5826771653543307
        },
        {
          "duration": 0.234375,
          "durationTicks": 96,
          "midi": 73,
          "name": "C#5",
          "ticks": 30912,
          "time": 75.46875,
          "velocity": 0.7322834645669292
        },
        {
          "duration": 0.34423828125,
          "durationTicks": 141,
          "midi": 87,
          "name": "D#6",
          "ticks": 31008,
          "time": 75.703125,
          "velocity": 0.7007874015748031
        },
        {
          "duration": 2.34375,
          "durationTicks": 960,
          "midi": 75,
          "name": "D#5",
          "ticks": 31008,
          "time": 75.703125,
          "velocity": 0.6771653543307087
        },
        {
          "duration": 0.234375,
          "durationTicks": 96,
          "midi": 82,
          "name": "A#5",
          "ticks": 31200,
          "time": 76.171875,
          "velocity": 0.5984251968503937
        },
        {
          "duration": 0.234375,
          "durationTicks": 96,
          "midi": 85,
          "name": "C#6",
          "ticks": 31296,
          "time": 76.40625,
          "velocity": 0.7165354330708661
        },
        {
          "duration": 0.46875,
          "durationTicks": 192,
          "midi": 87,
          "name": "D#6",
          "ticks": 31392,
          "time": 76.640625,
          "velocity": 0.6771653543307087
        },
        {
          "duration": 0.1171875,
          "durationTicks": 48,
          "midi": 82,
          "name": "A#5",
          "ticks": 31584,
          "time": 77.109375,
          "velocity": 0.6614173228346457
        },
        {
          "duration": 0.46875,
          "durationTicks": 192,
          "midi": 85,
          "name": "C#6",
          "ticks": 31680,
          "time": 77.34375,
          "velocity": 0.8110236220472441
        },
        {
          "duration": 0.234375,
          "durationTicks": 96,
          "midi": 87,
          "name": "D#6",
          "ticks": 31872,
          "time": 77.8125,
          "velocity": 0.6771653543307087
        },
        {
          "duration": 0.234375,
          "durationTicks": 96,
          "midi": 82,
          "name": "A#5",
          "ticks": 31968,
          "time": 78.046875,
          "velocity": 0.5669291338582677
        },
        {
          "duration": 0.234375,
          "durationTicks": 96,
          "midi": 85,
          "name": "C#6",
          "ticks": 32064,
          "time": 78.28125,
          "velocity": 0.7322834645669292
        },
        {
          "duration": 0.439453125,
          "durationTicks": 180,
          "midi": 87,
          "name": "D#6",
          "ticks": 32160,
          "time": 78.515625,
          "velocity": 0.7480314960629921
        },
        {
          "duration": 0.234375,
          "durationTicks": 96,
          "midi": 77,
          "name": "F5",
          "ticks": 35712,
          "time": 87.1875,
          "velocity": 0.6850393700787402
        },
        {
          "duration": 0.234375,
          "durationTicks": 96,
          "midi": 68,
          "name": "G#4",
          "ticks": 35712,
          "time": 87.1875,
          "velocity": 0.6850393700787402
        },
        {
          "duration": 0.234375,
          "durationTicks": 96,
          "midi": 78,
          "name": "F#5",
          "ticks": 35808,
          "time": 87.421875,
          "velocity": 0.6850393700787402
        },
        {
          "duration": 0.234375,
          "durationTicks": 96,
          "midi": 70,
          "name": "A#4",
          "ticks": 35808,
          "time": 87.421875,
          "velocity": 0.6850393700787402
        },
        {
          "duration": 0.234375,
          "durationTicks": 96,
          "midi": 77,
          "name": "F5",
          "ticks": 35904,
          "time": 87.65625,
          "velocity": 0.6850393700787402
        },
        {
          "duration": 0.234375,
          "durationTicks": 96,
          "midi": 68,
          "name": "G#4",
          "ticks": 35904,
          "time": 87.65625,
          "velocity": 0.6850393700787402
        },
        {
          "duration": 0.234375,
          "durationTicks": 96,
          "midi": 73,
          "name": "C#5",
          "ticks": 36000,
          "time": 87.890625,
          "velocity": 0.5984251968503937
        },
        {
          "duration": 0.234375,
          "durationTicks": 96,
          "midi": 65,
          "name": "F4",
          "ticks": 36000,
          "time": 87.890625,
          "velocity": 0.7086614173228346
        },
        {
          "duration": 0.5859375,
          "durationTicks": 240,
          "midi": 75,
          "name": "D#5",
          "ticks": 36096,
          "time": 88.125,
          "velocity": 0.6850393700787402
        },
        {
          "duration": 0.5859375,
          "durationTicks": 240,
          "midi": 66,
          "name": "F#4",
          "ticks": 36096,
          "time": 88.125,
          "velocity": 0.6850393700787402
        },
        {
          "duration": 0.234375,
          "durationTicks": 96,
          "midi": 82,
          "name": "A#5",
          "ticks": 36960,
          "time": 90.234375,
          "velocity": 0.6377952755905512
        },
        {
          "duration": 0.234375,
          "durationTicks": 96,
          "midi": 82,
          "name": "A#5",
          "ticks": 37056,
          "time": 90.46875,
          "velocity": 0.7322834645669292
        },
        {
          "duration": 0.234375,
          "durationTicks": 96,
          "midi": 82,
          "name": "A#5",
          "ticks": 37152,
          "time": 90.703125,
          "velocity": 0.8110236220472441
        },
        {
          "duration": 0.46875,
          "durationTicks": 192,
          "midi": 82,
          "name": "A#5",
          "ticks": 37248,
          "time": 90.9375,
          "velocity": 0.8661417322834646
        },
        {
          "duration": 0.234375,
          "durationTicks": 96,
          "midi": 78,
          "name": "F#5",
          "ticks": 37440,
          "time": 91.40625,
          "velocity": 0.7952755905511811
        },
        {
          "duration": 0.234375,
          "durationTicks": 96,
          "midi": 80,
          "name": "G#5",
          "ticks": 37536,
          "time": 91.640625,
          "velocity": 0.8188976377952756
        },
        {
          "duration": 0.234375,
          "durationTicks": 96,
          "midi": 78,
          "name": "F#5",
          "ticks": 37728,
          "time": 92.109375,
          "velocity": 0.84251968503937
        },
        {
          "duration": 0.234375,
          "durationTicks": 96,
          "midi": 77,
          "name": "F5",
          "ticks": 37824,
          "time": 92.34375,
          "velocity": 0.84251968503937
        },
        {
          "duration": 0.234375,
          "durationTicks": 96,
          "midi": 78,
          "name": "F#5",
          "ticks": 37920,
          "time": 92.578125,
          "velocity": 0.84251968503937
        },
        {
          "duration": 0.46875,
          "durationTicks": 192,
          "midi": 77,
          "name": "F5",
          "ticks": 38016,
          "time": 92.8125,
          "velocity": 0.7244094488188977
        },
        {
          "duration": 0.234375,
          "durationTicks": 96,
          "midi": 73,
          "name": "C#5",
          "ticks": 38208,
          "time": 93.28125,
          "velocity": 0.8661417322834646
        },
        {
          "duration": 0.234375,
          "durationTicks": 96,
          "midi": 75,
          "name": "D#5",
          "ticks": 38304,
          "time": 93.515625,
          "velocity": 0.8188976377952756
        },
        {
          "duration": 0.234375,
          "durationTicks": 96,
          "midi": 82,
          "name": "A#5",
          "ticks": 38496,
          "time": 93.984375,
          "velocity": 0.7007874015748031
        },
        {
          "duration": 0.234375,
          "durationTicks": 96,
          "midi": 82,
          "name": "A#5",
          "ticks": 38592,
          "time": 94.21875,
          "velocity": 0.7480314960629921
        },
        {
          "duration": 0.234375,
          "durationTicks": 96,
          "midi": 82,
          "name": "A#5",
          "ticks": 38688,
          "time": 94.453125,
          "velocity": 0.7952755905511811
        },
        {
          "duration": 0.46875,
          "durationTicks": 192,
          "midi": 82,
          "name": "A#5",
          "ticks": 38784,
          "time": 94.6875,
          "velocity": 0.8110236220472441
        },
        {
          "duration": 0.234375,
          "durationTicks": 96,
          "midi": 78,
          "name": "F#5",
          "ticks": 38976,
          "time": 95.15625,
          "velocity": 0.8110236220472441
        },
        {
          "duration": 0.29296875,
          "durationTicks": 120,
          "midi": 80,
          "name": "G#5",
          "ticks": 39072,
          "time": 95.390625,
          "velocity": 0.8110236220472441
        },
        {
          "duration": 0.234375,
          "durationTicks": 96,
          "midi": 78,
          "name": "F#5",
          "ticks": 39264,
          "time": 95.859375,
          "velocity": 0.8267716535433071
        },
        {
          "duration": 0.234375,
          "durationTicks": 96,
          "midi": 77,
          "name": "F5",
          "ticks": 39360,
          "time": 96.09375,
          "velocity": 0.8267716535433071
        },
        {
          "duration": 0.234375,
          "durationTicks": 96,
          "midi": 78,
          "name": "F#5",
          "ticks": 39456,
          "time": 96.328125,
          "velocity": 0.84251968503937
        },
        {
          "duration": 0.46875,
          "durationTicks": 192,
          "midi": 77,
          "name": "F5",
          "ticks": 39552,
          "time": 96.5625,
          "velocity": 0.84251968503937
        },
        {
          "duration": 0.234375,
          "durationTicks": 96,
          "midi": 73,
          "name": "C#5",
          "ticks": 39744,
          "time": 97.03125,
          "velocity": 0.84251968503937
        },
        {
          "duration": 0.29296875,
          "durationTicks": 120,
          "midi": 75,
          "name": "D#5",
          "ticks": 39840,
          "time": 97.265625,
          "velocity": 0.84251968503937
        },
        {
          "duration": 0.234375,
          "durationTicks": 96,
          "midi": 75,
          "name": "D#5",
          "ticks": 40032,
          "time": 97.734375,
          "velocity": 0.84251968503937
        },
        {
          "duration": 0.234375,
          "durationTicks": 96,
          "midi": 75,
          "name": "D#5",
          "ticks": 40128,
          "time": 97.96875,
          "velocity": 0.84251968503937
        },
        {
          "duration": 0.234375,
          "durationTicks": 96,
          "midi": 75,
          "name": "D#5",
          "ticks": 40224,
          "time": 98.203125,
          "velocity": 0.8110236220472441
        },
        {
          "duration": 0.46875,
          "durationTicks": 192,
          "midi": 77,
          "name": "F5",
          "ticks": 40320,
          "time": 98.4375,
          "velocity": 0.8267716535433071
        },
        {
          "duration": 0.234375,
          "durationTicks": 96,
          "midi": 73,
          "name": "C#5",
          "ticks": 40512,
          "time": 98.90625,
          "velocity": 0.8188976377952756
        },
        {
          "duration": 0.29296875,
          "durationTicks": 120,
          "midi": 75,
          "name": "D#5",
          "ticks": 40608,
          "time": 99.140625,
          "velocity": 0.8661417322834646
        },
        {
          "duration": 0.234375,
          "durationTicks": 96,
          "midi": 75,
          "name": "D#5",
          "ticks": 40800,
          "time": 99.609375,
          "velocity": 0.8661417322834646
        },
        {
          "duration": 0.234375,
          "durationTicks": 96,
          "midi": 75,
          "name": "D#5",
          "ticks": 40896,
          "time": 99.84375,
          "velocity": 0.8661417322834646
        },
        {
          "duration": 0.234375,
          "durationTicks": 96,
          "midi": 75,
          "name": "D#5",
          "ticks": 40992,
          "time": 100.078125,
          "velocity": 0.8661417322834646
        },
        {
          "duration": 0.46875,
          "durationTicks": 192,
          "midi": 77,
          "name": "F5",
          "ticks": 41088,
          "time": 100.3125,
          "velocity": 0.8661417322834646
        },
        {
          "duration": 0.234375,
          "durationTicks": 96,
          "midi": 73,
          "name": "C#5",
          "ticks": 41280,
          "time": 100.78125,
          "velocity": 0.8661417322834646
        },
        {
          "duration": 0.41015625,
          "durationTicks": 168,
          "midi": 75,
          "name": "D#5",
          "ticks": 41376,
          "time": 101.015625,
          "velocity": 0.8188976377952756
        },
        {
          "duration": 0.234375,
          "durationTicks": 96,
          "midi": 82,
          "name": "A#5",
          "ticks": 41568,
          "time": 101.484375,
          "velocity": 0.6929133858267716
        },
        {
          "duration": 0.234375,
          "durationTicks": 96,
          "midi": 82,
          "name": "A#5",
          "ticks": 41664,
          "time": 101.71875,
          "velocity": 0.6929133858267716
        },
        {
          "duration": 0.234375,
          "durationTicks": 96,
          "midi": 82,
          "name": "A#5",
          "ticks": 41760,
          "time": 101.953125,
          "velocity": 0.6929133858267716
        },
        {
          "duration": 0.52734375,
          "durationTicks": 216,
          "midi": 82,
          "name": "A#5",
          "ticks": 41856,
          "time": 102.1875,
          "velocity": 0.6929133858267716
        },
        {
          "duration": 0.234375,
          "durationTicks": 96,
          "midi": 78,
          "name": "F#5",
          "ticks": 42048,
          "time": 102.65625,
          "velocity": 0.6220472440944882
        },
        {
          "duration": 0.234375,
          "durationTicks": 96,
          "midi": 80,
          "name": "G#5",
          "ticks": 42144,
          "time": 102.890625,
          "velocity": 0.6456692913385826
        },
        {
          "duration": 0.234375,
          "durationTicks": 96,
          "midi": 78,
          "name": "F#5",
          "ticks": 42336,
          "time": 103.359375,
          "velocity": 0.6692913385826772
        },
        {
          "duration": 0.234375,
          "durationTicks": 96,
          "midi": 77,
          "name": "F5",
          "ticks": 42432,
          "time": 103.59375,
          "velocity": 0.6692913385826772
        },
        {
          "duration": 0.234375,
          "durationTicks": 96,
          "midi": 78,
          "name": "F#5",
          "ticks": 42528,
          "time": 103.828125,
          "velocity": 0.6692913385826772
        },
        {
          "duration": 0.46875,
          "durationTicks": 192,
          "midi": 77,
          "name": "F5",
          "ticks": 42624,
          "time": 104.0625,
          "velocity": 0.5511811023622047
        },
        {
          "duration": 0.234375,
          "durationTicks": 96,
          "midi": 73,
          "name": "C#5",
          "ticks": 42816,
          "time": 104.53125,
          "velocity": 0.6929133858267716
        },
        {
          "duration": 0.234375,
          "durationTicks": 96,
          "midi": 75,
          "name": "D#5",
          "ticks": 42912,
          "time": 104.765625,
          "velocity": 0.6456692913385826
        },
        {
          "duration": 0.234375,
          "durationTicks": 96,
          "midi": 82,
          "name": "A#5",
          "ticks": 43104,
          "time": 105.234375,
          "velocity": 0.6929133858267716
        },
        {
          "duration": 0.234375,
          "durationTicks": 96,
          "midi": 82,
          "name": "A#5",
          "ticks": 43200,
          "time": 105.46875,
          "velocity": 0.6929133858267716
        },
        {
          "duration": 0.234375,
          "durationTicks": 96,
          "midi": 82,
          "name": "A#5",
          "ticks": 43296,
          "time": 105.703125,
          "velocity": 0.6929133858267716
        },
        {
          "duration": 0.46875,
          "durationTicks": 192,
          "midi": 82,
          "name": "A#5",
          "ticks": 43392,
          "time": 105.9375,
          "velocity": 0.5984251968503937
        },
        {
          "duration": 0.234375,
          "durationTicks": 96,
          "midi": 78,
          "name": "F#5",
          "ticks": 43584,
          "time": 106.40625,
          "velocity": 0.6929133858267716
        },
        {
          "duration": 0.29296875,
          "durationTicks": 120,
          "midi": 80,
          "name": "G#5",
          "ticks": 43680,
          "time": 106.640625,
          "velocity": 0.6929133858267716
        },
        {
          "duration": 0.234375,
          "durationTicks": 96,
          "midi": 78,
          "name": "F#5",
          "ticks": 43872,
          "time": 107.109375,
          "velocity": 0.7165354330708661
        },
        {
          "duration": 0.234375,
          "durationTicks": 96,
          "midi": 77,
          "name": "F5",
          "ticks": 43968,
          "time": 107.34375,
          "velocity": 0.7165354330708661
        },
        {
          "duration": 0.234375,
          "durationTicks": 96,
          "midi": 78,
          "name": "F#5",
          "ticks": 44064,
          "time": 107.578125,
          "velocity": 0.6692913385826772
        },
        {
          "duration": 0.46875,
          "durationTicks": 192,
          "midi": 77,
          "name": "F5",
          "ticks": 44160,
          "time": 107.8125,
          "velocity": 0.6692913385826772
        },
        {
          "duration": 0.234375,
          "durationTicks": 96,
          "midi": 73,
          "name": "C#5",
          "ticks": 44352,
          "time": 108.28125,
          "velocity": 0.6692913385826772
        },
        {
          "duration": 0.29296875,
          "durationTicks": 120,
          "midi": 75,
          "name": "D#5",
          "ticks": 44448,
          "time": 108.515625,
          "velocity": 0.6692913385826772
        },
        {
          "duration": 0.234375,
          "durationTicks": 96,
          "midi": 75,
          "name": "D#5",
          "ticks": 44640,
          "time": 108.984375,
          "velocity": 0.6692913385826772
        },
        {
          "duration": 0.234375,
          "durationTicks": 96,
          "midi": 75,
          "name": "D#5",
          "ticks": 44736,
          "time": 109.21875,
          "velocity": 0.6692913385826772
        },
        {
          "duration": 0.234375,
          "durationTicks": 96,
          "midi": 75,
          "name": "D#5",
          "ticks": 44832,
          "time": 109.453125,
          "velocity": 0.6692913385826772
        },
        {
          "duration": 0.46875,
          "durationTicks": 192,
          "midi": 77,
          "name": "F5",
          "ticks": 44928,
          "time": 109.6875,
          "velocity": 0.6929133858267716
        },
        {
          "duration": 0.234375,
          "durationTicks": 96,
          "midi": 73,
          "name": "C#5",
          "ticks": 45120,
          "time": 110.15625,
          "velocity": 0.6456692913385826
        },
        {
          "duration": 0.29296875,
          "durationTicks": 120,
          "midi": 75,
          "name": "D#5",
          "ticks": 45216,
          "time": 110.390625,
          "velocity": 0.6929133858267716
        },
        {
          "duration": 0.234375,
          "durationTicks": 96,
          "midi": 75,
          "name": "D#5",
          "ticks": 45408,
          "time": 110.859375,
          "velocity": 0.6929133858267716
        },
        {
          "duration": 0.234375,
          "durationTicks": 96,
          "midi": 75,
          "name": "D#5",
          "ticks": 45504,
          "time": 111.09375,
          "velocity": 0.6929133858267716
        },
        {
          "duration": 0.234375,
          "durationTicks": 96,
          "midi": 75,
          "name": "D#5",
          "ticks": 45600,
          "time": 111.328125,
          "velocity": 0.6929133858267716
        },
        {
          "duration": 0.46875,
          "durationTicks": 192,
          "midi": 77,
          "name": "F5",
          "ticks": 45696,
          "time": 111.5625,
          "velocity": 0.6929133858267716
        },
        {
          "duration": 0.234375,
          "durationTicks": 96,
          "midi": 73,
          "name": "C#5",
          "ticks": 45888,
          "time": 112.03125,
          "velocity": 0.6929133858267716
        },
        {
          "duration": 0.41015625,
          "durationTicks": 168,
          "midi": 75,
          "name": "D#5",
          "ticks": 45984,
          "time": 112.265625,
          "velocity": 0.6456692913385826
        },
        {
          "duration": 0.234375,
          "durationTicks": 96,
          "midi": 78,
          "name": "F#5",
          "ticks": 46464,
          "time": 113.4375,
          "velocity": 0.5669291338582677
        },
        {
          "duration": 0.234375,
          "durationTicks": 96,
          "midi": 77,
          "name": "F5",
          "ticks": 46560,
          "time": 113.671875,
          "velocity": 0.5905511811023622
        },
        {
          "duration": 0.234375,
          "durationTicks": 96,
          "midi": 78,
          "name": "F#5",
          "ticks": 46656,
          "time": 113.90625,
          "velocity": 0.5669291338582677
        },
        {
          "duration": 1.171875,
          "durationTicks": 480,
          "midi": 77,
          "name": "F5",
          "ticks": 46752,
          "time": 114.140625,
          "velocity": 0.6062992125984252
        },
        {
          "duration": 0.234375,
          "durationTicks": 96,
          "midi": 78,
          "name": "F#5",
          "ticks": 47232,
          "time": 115.3125,
          "velocity": 0.5826771653543307
        },
        {
          "duration": 0.234375,
          "durationTicks": 96,
          "midi": 77,
          "name": "F5",
          "ticks": 47328,
          "time": 115.546875,
          "velocity": 0.5590551181102362
        },
        {
          "duration": 0.234375,
          "durationTicks": 96,
          "midi": 75,
          "name": "D#5",
          "ticks": 47424,
          "time": 115.78125,
          "velocity": 0.5748031496062992
        },
        {
          "duration": 1.171875,
          "durationTicks": 480,
          "midi": 77,
          "name": "F5",
          "ticks": 47520,
          "time": 116.015625,
          "velocity": 0.5748031496062992
        },
        {
          "duration": 0.234375,
          "durationTicks": 96,
          "midi": 78,
          "name": "F#5",
          "ticks": 48000,
          "time": 117.1875,
          "velocity": 0.49606299212598426
        },
        {
          "duration": 0.234375,
          "durationTicks": 96,
          "midi": 77,
          "name": "F5",
          "ticks": 48096,
          "time": 117.421875,
          "velocity": 0.5669291338582677
        },
        {
          "duration": 0.234375,
          "durationTicks": 96,
          "midi": 78,
          "name": "F#5",
          "ticks": 48192,
          "time": 117.65625,
          "velocity": 0.5590551181102362
        },
        {
          "duration": 1.171875,
          "durationTicks": 480,
          "midi": 77,
          "name": "F5",
          "ticks": 48288,
          "time": 117.890625,
          "velocity": 0.5433070866141733
        },
        {
          "duration": 0.234375,
          "durationTicks": 96,
          "midi": 78,
          "name": "F#5",
          "ticks": 48768,
          "time": 119.0625,
          "velocity": 0.5590551181102362
        },
        {
          "duration": 0.234375,
          "durationTicks": 96,
          "midi": 77,
          "name": "F5",
          "ticks": 48864,
          "time": 119.296875,
          "velocity": 0.5433070866141733
        },
        {
          "duration": 0.234375,
          "durationTicks": 96,
          "midi": 75,
          "name": "D#5",
          "ticks": 48960,
          "time": 119.53125,
          "velocity": 0.5433070866141733
        },
        {
          "duration": 1.171875,
          "durationTicks": 480,
          "midi": 77,
          "name": "F5",
          "ticks": 49056,
          "time": 119.765625,
          "velocity": 0.5590551181102362
        },
        {
          "duration": 0.234375,
          "durationTicks": 96,
          "midi": 78,
          "name": "F#5",
          "ticks": 49536,
          "time": 120.9375,
          "velocity": 0.5511811023622047
        },
        {
          "duration": 0.234375,
          "durationTicks": 96,
          "midi": 77,
          "name": "F5",
          "ticks": 49632,
          "time": 121.171875,
          "velocity": 0.5511811023622047
        },
        {
          "duration": 0.234375,
          "durationTicks": 96,
          "midi": 78,
          "name": "F#5",
          "ticks": 49728,
          "time": 121.40625,
          "velocity": 0.5748031496062992
        },
        {
          "duration": 1.171875,
          "durationTicks": 480,
          "midi": 77,
          "name": "F5",
          "ticks": 49824,
          "time": 121.640625,
          "velocity": 0.5748031496062992
        },
        {
          "duration": 0.234375,
          "durationTicks": 96,
          "midi": 78,
          "name": "F#5",
          "ticks": 50304,
          "time": 122.8125,
          "velocity": 0.5039370078740157
        },
        {
          "duration": 0.234375,
          "durationTicks": 96,
          "midi": 77,
          "name": "F5",
          "ticks": 50400,
          "time": 123.046875,
          "velocity": 0.5354330708661418
        },
        {
          "duration": 0.234375,
          "durationTicks": 96,
          "midi": 75,
          "name": "D#5",
          "ticks": 50496,
          "time": 123.28125,
          "velocity": 0.5748031496062992
        },
        {
          "duration": 1.171875,
          "durationTicks": 480,
          "midi": 77,
          "name": "F5",
          "ticks": 50592,
          "time": 123.515625,
          "velocity": 0.5354330708661418
        },
        {
          "duration": 0.234375,
          "durationTicks": 96,
          "midi": 78,
          "name": "F#5",
          "ticks": 51072,
          "time": 124.6875,
          "velocity": 0.5118110236220472
        },
        {
          "duration": 0.234375,
          "durationTicks": 96,
          "midi": 77,
          "name": "F5",
          "ticks": 51168,
          "time": 124.921875,
          "velocity": 0.5669291338582677
        },
        {
          "duration": 0.234375,
          "durationTicks": 96,
          "midi": 78,
          "name": "F#5",
          "ticks": 51264,
          "time": 125.15625,
          "velocity": 0.5590551181102362
        },
        {
          "duration": 1.171875,
          "durationTicks": 480,
          "midi": 77,
          "name": "F5",
          "ticks": 51360,
          "time": 125.390625,
          "velocity": 0.5354330708661418
        },
        {
          "duration": 0.234375,
          "durationTicks": 96,
          "midi": 73,
          "name": "C#5",
          "ticks": 51840,
          "time": 126.5625,
          "velocity": 0.6929133858267716
        },
        {
          "duration": 0.234375,
          "durationTicks": 96,
          "midi": 71,
          "name": "B4",
          "ticks": 51936,
          "time": 126.796875,
          "velocity": 0.5826771653543307
        },
        {
          "duration": 0.234375,
          "durationTicks": 96,
          "midi": 73,
          "name": "C#5",
          "ticks": 52032,
          "time": 127.03125,
          "velocity": 0.7322834645669292
        },
        {
          "duration": 0.3515625,
          "durationTicks": 144,
          "midi": 87,
          "name": "D#6",
          "ticks": 52128,
          "time": 127.265625,
          "velocity": 0.7007874015748031
        },
        {
          "duration": 2.34375,
          "durationTicks": 960,
          "midi": 75,
          "name": "D#5",
          "ticks": 52128,
          "time": 127.265625,
          "velocity": 0.6771653543307087
        },
        {
          "duration": 0.234375,
          "durationTicks": 96,
          "midi": 82,
          "name": "A#5",
          "ticks": 52320,
          "time": 127.734375,
          "velocity": 0.5984251968503937
        },
        {
          "duration": 0.234375,
          "durationTicks": 96,
          "midi": 85,
          "name": "C#6",
          "ticks": 52416,
          "time": 127.96875,
          "velocity": 0.7165354330708661
        },
        {
          "duration": 0.46875,
          "durationTicks": 192,
          "midi": 87,
          "name": "D#6",
          "ticks": 52512,
          "time": 128.203125,
          "velocity": 0.6771653543307087
        },
        {
          "duration": 0.234375,
          "durationTicks": 96,
          "midi": 82,
          "name": "A#5",
          "ticks": 52704,
          "time": 128.671875,
          "velocity": 0.6614173228346457
        },
        {
          "duration": 0.46875,
          "durationTicks": 192,
          "midi": 85,
          "name": "C#6",
          "ticks": 52800,
          "time": 128.90625,
          "velocity": 0.6850393700787402
        },
        {
          "duration": 0.234375,
          "durationTicks": 96,
          "midi": 87,
          "name": "D#6",
          "ticks": 52992,
          "time": 129.375,
          "velocity": 0.6771653543307087
        },
        {
          "duration": 0.234375,
          "durationTicks": 96,
          "midi": 82,
          "name": "A#5",
          "ticks": 53088,
          "time": 129.609375,
          "velocity": 0.5669291338582677
        },
        {
          "duration": 0.234375,
          "durationTicks": 96,
          "midi": 85,
          "name": "C#6",
          "ticks": 53184,
          "time": 129.84375,
          "velocity": 0.8503937007874016
        },
        {
          "duration": 0.46875,
          "durationTicks": 192,
          "midi": 87,
          "name": "D#6",
          "ticks": 53280,
          "time": 130.078125,
          "velocity": 0.7480314960629921
        },
        {
          "duration": 0.234375,
          "durationTicks": 96,
          "midi": 82,
          "name": "A#5",
          "ticks": 53472,
          "time": 130.546875,
          "velocity": 0.6929133858267716
        },
        {
          "duration": 0.234375,
          "durationTicks": 96,
          "midi": 82,
          "name": "A#5",
          "ticks": 53568,
          "time": 130.78125,
          "velocity": 0.6929133858267716
        },
        {
          "duration": 0.234375,
          "durationTicks": 96,
          "midi": 82,
          "name": "A#5",
          "ticks": 53664,
          "time": 131.015625,
          "velocity": 0.6929133858267716
        },
        {
          "duration": 0.52734375,
          "durationTicks": 216,
          "midi": 82,
          "name": "A#5",
          "ticks": 53760,
          "time": 131.25,
          "velocity": 0.6929133858267716
        },
        {
          "duration": 0.234375,
          "durationTicks": 96,
          "midi": 78,
          "name": "F#5",
          "ticks": 53952,
          "time": 131.71875,
          "velocity": 0.6220472440944882
        },
        {
          "duration": 0.234375,
          "durationTicks": 96,
          "midi": 80,
          "name": "G#5",
          "ticks": 54048,
          "time": 131.953125,
          "velocity": 0.6456692913385826
        },
        {
          "duration": 0.234375,
          "durationTicks": 96,
          "midi": 78,
          "name": "F#5",
          "ticks": 54240,
          "time": 132.421875,
          "velocity": 0.6692913385826772
        },
        {
          "duration": 0.234375,
          "durationTicks": 96,
          "midi": 77,
          "name": "F5",
          "ticks": 54336,
          "time": 132.65625,
          "velocity": 0.6692913385826772
        },
        {
          "duration": 0.234375,
          "durationTicks": 96,
          "midi": 78,
          "name": "F#5",
          "ticks": 54432,
          "time": 132.890625,
          "velocity": 0.6692913385826772
        },
        {
          "duration": 0.46875,
          "durationTicks": 192,
          "midi": 77,
          "name": "F5",
          "ticks": 54528,
          "time": 133.125,
          "velocity": 0.5511811023622047
        },
        {
          "duration": 0.234375,
          "durationTicks": 96,
          "midi": 73,
          "name": "C#5",
          "ticks": 54720,
          "time": 133.59375,
          "velocity": 0.6929133858267716
        },
        {
          "duration": 0.234375,
          "durationTicks": 96,
          "midi": 75,
          "name": "D#5",
          "ticks": 54816,
          "time": 133.828125,
          "velocity": 0.6456692913385826
        },
        {
          "duration": 0.234375,
          "durationTicks": 96,
          "midi": 82,
          "name": "A#5",
          "ticks": 55008,
          "time": 134.296875,
          "velocity": 0.6929133858267716
        },
        {
          "duration": 0.234375,
          "durationTicks": 96,
          "midi": 82,
          "name": "A#5",
          "ticks": 55104,
          "time": 134.53125,
          "velocity": 0.6929133858267716
        },
        {
          "duration": 0.234375,
          "durationTicks": 96,
          "midi": 82,
          "name": "A#5",
          "ticks": 55200,
          "time": 134.765625,
          "velocity": 0.6929133858267716
        },
        {
          "duration": 0.46875,
          "durationTicks": 192,
          "midi": 82,
          "name": "A#5",
          "ticks": 55296,
          "time": 135,
          "velocity": 0.5984251968503937
        },
        {
          "duration": 0.234375,
          "durationTicks": 96,
          "midi": 78,
          "name": "F#5",
          "ticks": 55488,
          "time": 135.46875,
          "velocity": 0.6929133858267716
        },
        {
          "duration": 0.29296875,
          "durationTicks": 120,
          "midi": 80,
          "name": "G#5",
          "ticks": 55584,
          "time": 135.703125,
          "velocity": 0.6929133858267716
        },
        {
          "duration": 0.234375,
          "durationTicks": 96,
          "midi": 78,
          "name": "F#5",
          "ticks": 55776,
          "time": 136.171875,
          "velocity": 0.7165354330708661
        },
        {
          "duration": 0.234375,
          "durationTicks": 96,
          "midi": 77,
          "name": "F5",
          "ticks": 55872,
          "time": 136.40625,
          "velocity": 0.7165354330708661
        },
        {
          "duration": 0.234375,
          "durationTicks": 96,
          "midi": 78,
          "name": "F#5",
          "ticks": 55968,
          "time": 136.640625,
          "velocity": 0.6692913385826772
        },
        {
          "duration": 0.46875,
          "durationTicks": 192,
          "midi": 77,
          "name": "F5",
          "ticks": 56064,
          "time": 136.875,
          "velocity": 0.6692913385826772
        },
        {
          "duration": 0.234375,
          "durationTicks": 96,
          "midi": 73,
          "name": "C#5",
          "ticks": 56256,
          "time": 137.34375,
          "velocity": 0.6692913385826772
        },
        {
          "duration": 0.29296875,
          "durationTicks": 120,
          "midi": 75,
          "name": "D#5",
          "ticks": 56352,
          "time": 137.578125,
          "velocity": 0.6692913385826772
        },
        {
          "duration": 0.234375,
          "durationTicks": 96,
          "midi": 75,
          "name": "D#5",
          "ticks": 56544,
          "time": 138.046875,
          "velocity": 0.6692913385826772
        },
        {
          "duration": 0.234375,
          "durationTicks": 96,
          "midi": 75,
          "name": "D#5",
          "ticks": 56640,
          "time": 138.28125,
          "velocity": 0.6692913385826772
        },
        {
          "duration": 0.234375,
          "durationTicks": 96,
          "midi": 75,
          "name": "D#5",
          "ticks": 56736,
          "time": 138.515625,
          "velocity": 0.6692913385826772
        },
        {
          "duration": 0.46875,
          "durationTicks": 192,
          "midi": 77,
          "name": "F5",
          "ticks": 56832,
          "time": 138.75,
          "velocity": 0.6929133858267716
        },
        {
          "duration": 0.234375,
          "durationTicks": 96,
          "midi": 73,
          "name": "C#5",
          "ticks": 57024,
          "time": 139.21875,
          "velocity": 0.6456692913385826
        },
        {
          "duration": 0.29296875,
          "durationTicks": 120,
          "midi": 75,
          "name": "D#5",
          "ticks": 57120,
          "time": 139.453125,
          "velocity": 0.6929133858267716
        },
        {
          "duration": 0.234375,
          "durationTicks": 96,
          "midi": 75,
          "name": "D#5",
          "ticks": 57312,
          "time": 139.921875,
          "velocity": 0.6929133858267716
        },
        {
          "duration": 0.234375,
          "durationTicks": 96,
          "midi": 75,
          "name": "D#5",
          "ticks": 57408,
          "time": 140.15625,
          "velocity": 0.6929133858267716
        },
        {
          "duration": 0.234375,
          "durationTicks": 96,
          "midi": 75,
          "name": "D#5",
          "ticks": 57504,
          "time": 140.390625,
          "velocity": 0.6929133858267716
        },
        {
          "duration": 0.46875,
          "durationTicks": 192,
          "midi": 77,
          "name": "F5",
          "ticks": 57600,
          "time": 140.625,
          "velocity": 0.6929133858267716
        },
        {
          "duration": 0.234375,
          "durationTicks": 96,
          "midi": 73,
          "name": "C#5",
          "ticks": 57792,
          "time": 141.09375,
          "velocity": 0.6929133858267716
        },
        {
          "duration": 0.41015625,
          "durationTicks": 168,
          "midi": 75,
          "name": "D#5",
          "ticks": 57888,
          "time": 141.328125,
          "velocity": 0.6456692913385826
        },
        {
          "duration": 0.1171875,
          "durationTicks": 48,
          "midi": 82,
          "name": "A#5",
          "ticks": 58177,
          "time": 142.03369140625,
          "velocity": 0.8110236220472441
        },
        {
          "duration": 0.1171875,
          "durationTicks": 48,
          "midi": 80,
          "name": "G#5",
          "ticks": 58223,
          "time": 142.14599609375,
          "velocity": 0.8976377952755905
        },
        {
          "duration": 0.1171875,
          "durationTicks": 48,
          "midi": 78,
          "name": "F#5",
          "ticks": 58274,
          "time": 142.2705078125,
          "velocity": 0.8976377952755905
        },
        {
          "duration": 0.1171875,
          "durationTicks": 48,
          "midi": 77,
          "name": "F5",
          "ticks": 58326,
          "time": 142.3974609375,
          "velocity": 0.8976377952755905
        },
        {
          "duration": 0.46875,
          "durationTicks": 192,
          "midi": 75,
          "name": "D#5",
          "ticks": 58368,
          "time": 142.5,
          "velocity": 0.6535433070866141
        },
        {
          "duration": 0.46875,
          "durationTicks": 192,
          "midi": 77,
          "name": "F5",
          "ticks": 58560,
          "time": 142.96875,
          "velocity": 0.6614173228346457
        },
        {
          "duration": 0.46875,
          "durationTicks": 192,
          "midi": 78,
          "name": "F#5",
          "ticks": 58752,
          "time": 143.4375,
          "velocity": 0.7007874015748031
        },
        {
          "duration": 0.46875,
          "durationTicks": 192,
          "midi": 82,
          "name": "A#5",
          "ticks": 58944,
          "time": 143.90625,
          "velocity": 0.6141732283464567
        },
        {
          "duration": 0.46875,
          "durationTicks": 192,
          "midi": 80,
          "name": "G#5",
          "ticks": 59136,
          "time": 144.375,
          "velocity": 0.6220472440944882
        },
        {
          "duration": 0.46875,
          "durationTicks": 192,
          "midi": 78,
          "name": "F#5",
          "ticks": 59328,
          "time": 144.84375,
          "velocity": 0.6220472440944882
        },
        {
          "duration": 0.46875,
          "durationTicks": 192,
          "midi": 77,
          "name": "F5",
          "ticks": 59520,
          "time": 145.3125,
          "velocity": 0.6535433070866141
        },
        {
          "duration": 0.46875,
          "durationTicks": 192,
          "midi": 73,
          "name": "C#5",
          "ticks": 59712,
          "time": 145.78125,
          "velocity": 0.6141732283464567
        },
        {
          "duration": 0.46875,
          "durationTicks": 192,
          "midi": 75,
          "name": "D#5",
          "ticks": 59904,
          "time": 146.25,
          "velocity": 0.6220472440944882
        },
        {
          "duration": 0.46875,
          "durationTicks": 192,
          "midi": 77,
          "name": "F5",
          "ticks": 60096,
          "time": 146.71875,
          "velocity": 0.6062992125984252
        },
        {
          "duration": 0.46875,
          "durationTicks": 192,
          "midi": 78,
          "name": "F#5",
          "ticks": 60288,
          "time": 147.1875,
          "velocity": 0.6220472440944882
        },
        {
          "duration": 0.46875,
          "durationTicks": 192,
          "midi": 82,
          "name": "A#5",
          "ticks": 60480,
          "time": 147.65625,
          "velocity": 0.6850393700787402
        },
        {
          "duration": 0.9375,
          "durationTicks": 384,
          "midi": 87,
          "name": "D#6",
          "ticks": 60672,
          "time": 148.125,
          "velocity": 0.6377952755905512
        },
        {
          "duration": 0.8203125,
          "durationTicks": 336,
          "midi": 86,
          "name": "D6",
          "ticks": 61056,
          "time": 149.0625,
          "velocity": 0.6535433070866141
        },
        {
          "duration": 0.46875,
          "durationTicks": 192,
          "midi": 75,
          "name": "D#5",
          "ticks": 61440,
          "time": 150,
          "velocity": 0.6535433070866141
        },
        {
          "duration": 0.46875,
          "durationTicks": 192,
          "midi": 77,
          "name": "F5",
          "ticks": 61632,
          "time": 150.46875,
          "velocity": 0.6614173228346457
        },
        {
          "duration": 0.46875,
          "durationTicks": 192,
          "midi": 78,
          "name": "F#5",
          "ticks": 61824,
          "time": 150.9375,
          "velocity": 0.7007874015748031
        },
        {
          "duration": 0.46875,
          "durationTicks": 192,
          "midi": 82,
          "name": "A#5",
          "ticks": 62016,
          "time": 151.40625,
          "velocity": 0.6535433070866141
        },
        {
          "duration": 0.46875,
          "durationTicks": 192,
          "midi": 80,
          "name": "G#5",
          "ticks": 62208,
          "time": 151.875,
          "velocity": 0.6535433070866141
        },
        {
          "duration": 0.46875,
          "durationTicks": 192,
          "midi": 78,
          "name": "F#5",
          "ticks": 62400,
          "time": 152.34375,
          "velocity": 0.6377952755905512
        },
        {
          "duration": 0.46875,
          "durationTicks": 192,
          "midi": 77,
          "name": "F5",
          "ticks": 62592,
          "time": 152.8125,
          "velocity": 0.6535433070866141
        },
        {
          "duration": 0.46875,
          "durationTicks": 192,
          "midi": 73,
          "name": "C#5",
          "ticks": 62784,
          "time": 153.28125,
          "velocity": 0.6692913385826772
        },
        {
          "duration": 0.46875,
          "durationTicks": 192,
          "midi": 75,
          "name": "D#5",
          "ticks": 62976,
          "time": 153.75,
          "velocity": 0.6220472440944882
        },
        {
          "duration": 0.46875,
          "durationTicks": 192,
          "midi": 77,
          "name": "F5",
          "ticks": 63168,
          "time": 154.21875,
          "velocity": 0.6692913385826772
        },
        {
          "duration": 0.46875,
          "durationTicks": 192,
          "midi": 78,
          "name": "F#5",
          "ticks": 63360,
          "time": 154.6875,
          "velocity": 0.6692913385826772
        },
        {
          "duration": 0.46875,
          "durationTicks": 192,
          "midi": 82,
          "name": "A#5",
          "ticks": 63552,
          "time": 155.15625,
          "velocity": 0.6850393700787402
        },
        {
          "duration": 0.9375,
          "durationTicks": 384,
          "midi": 87,
          "name": "D#6",
          "ticks": 63744,
          "time": 155.625,
          "velocity": 0.6850393700787402
        },
        {
          "duration": 0.234375,
          "durationTicks": 96,
          "midi": 86,
          "name": "D6",
          "ticks": 64128,
          "time": 156.5625,
          "velocity": 0.5590551181102362
        },
        {
          "duration": 0.234375,
          "durationTicks": 96,
          "midi": 82,
          "name": "A#5",
          "ticks": 64224,
          "time": 156.796875,
          "velocity": 0.7480314960629921
        },
        {
          "duration": 0.234375,
          "durationTicks": 96,
          "midi": 82,
          "name": "A#5",
          "ticks": 64320,
          "time": 157.03125,
          "velocity": 0.7795275590551181
        },
        {
          "duration": 0.234375,
          "durationTicks": 96,
          "midi": 82,
          "name": "A#5",
          "ticks": 64416,
          "time": 157.265625,
          "velocity": 0.8267716535433071
        },
        {
          "duration": 0.46875,
          "durationTicks": 192,
          "midi": 82,
          "name": "A#5",
          "ticks": 64512,
          "time": 157.5,
          "velocity": 0.8267716535433071
        },
        {
          "duration": 0.234375,
          "durationTicks": 96,
          "midi": 78,
          "name": "F#5",
          "ticks": 64704,
          "time": 157.96875,
          "velocity": 0.7952755905511811
        },
        {
          "duration": 0.234375,
          "durationTicks": 96,
          "midi": 80,
          "name": "G#5",
          "ticks": 64800,
          "time": 158.203125,
          "velocity": 0.8188976377952756
        },
        {
          "duration": 0.234375,
          "durationTicks": 96,
          "midi": 78,
          "name": "F#5",
          "ticks": 64992,
          "time": 158.671875,
          "velocity": 0.7952755905511811
        },
        {
          "duration": 0.234375,
          "durationTicks": 96,
          "midi": 77,
          "name": "F5",
          "ticks": 65088,
          "time": 158.90625,
          "velocity": 0.7795275590551181
        },
        {
          "duration": 0.234375,
          "durationTicks": 96,
          "midi": 78,
          "name": "F#5",
          "ticks": 65184,
          "time": 159.140625,
          "velocity": 0.7952755905511811
        },
        {
          "duration": 0.46875,
          "durationTicks": 192,
          "midi": 77,
          "name": "F5",
          "ticks": 65280,
          "time": 159.375,
          "velocity": 0.7952755905511811
        },
        {
          "duration": 0.234375,
          "durationTicks": 96,
          "midi": 73,
          "name": "C#5",
          "ticks": 65472,
          "time": 159.84375,
          "velocity": 0.8267716535433071
        },
        {
          "duration": 0.234375,
          "durationTicks": 96,
          "midi": 75,
          "name": "D#5",
          "ticks": 65568,
          "time": 160.078125,
          "velocity": 0.8188976377952756
        },
        {
          "duration": 0.234375,
          "durationTicks": 96,
          "midi": 82,
          "name": "A#5",
          "ticks": 65760,
          "time": 160.546875,
          "velocity": 0.7637795275590551
        },
        {
          "duration": 0.234375,
          "durationTicks": 96,
          "midi": 82,
          "name": "A#5",
          "ticks": 65856,
          "time": 160.78125,
          "velocity": 0.8110236220472441
        },
        {
          "duration": 0.234375,
          "durationTicks": 96,
          "midi": 82,
          "name": "A#5",
          "ticks": 65952,
          "time": 161.015625,
          "velocity": 0.84251968503937
        },
        {
          "duration": 0.46875,
          "durationTicks": 192,
          "midi": 82,
          "name": "A#5",
          "ticks": 66048,
          "time": 161.25,
          "velocity": 0.8267716535433071
        },
        {
          "duration": 0.234375,
          "durationTicks": 96,
          "midi": 78,
          "name": "F#5",
          "ticks": 66240,
          "time": 161.71875,
          "velocity": 0.7952755905511811
        },
        {
          "duration": 0.29296875,
          "durationTicks": 120,
          "midi": 80,
          "name": "G#5",
          "ticks": 66336,
          "time": 161.953125,
          "velocity": 0.8267716535433071
        },
        {
          "duration": 0.234375,
          "durationTicks": 96,
          "midi": 78,
          "name": "F#5",
          "ticks": 66528,
          "time": 162.421875,
          "velocity": 0.8267716535433071
        },
        {
          "duration": 0.234375,
          "durationTicks": 96,
          "midi": 77,
          "name": "F5",
          "ticks": 66624,
          "time": 162.65625,
          "velocity": 0.8267716535433071
        },
        {
          "duration": 0.234375,
          "durationTicks": 96,
          "midi": 78,
          "name": "F#5",
          "ticks": 66720,
          "time": 162.890625,
          "velocity": 0.7952755905511811
        },
        {
          "duration": 0.46875,
          "durationTicks": 192,
          "midi": 77,
          "name": "F5",
          "ticks": 66816,
          "time": 163.125,
          "velocity": 0.8110236220472441
        },
        {
          "duration": 0.234375,
          "durationTicks": 96,
          "midi": 73,
          "name": "C#5",
          "ticks": 67008,
          "time": 163.59375,
          "velocity": 0.84251968503937
        },
        {
          "duration": 0.29296875,
          "durationTicks": 120,
          "midi": 75,
          "name": "D#5",
          "ticks": 67104,
          "time": 163.828125,
          "velocity": 0.84251968503937
        },
        {
          "duration": 0.234375,
          "durationTicks": 96,
          "midi": 75,
          "name": "D#5",
          "ticks": 67296,
          "time": 164.296875,
          "velocity": 0.84251968503937
        },
        {
          "duration": 0.234375,
          "durationTicks": 96,
          "midi": 75,
          "name": "D#5",
          "ticks": 67392,
          "time": 164.53125,
          "velocity": 0.84251968503937
        },
        {
          "duration": 0.234375,
          "durationTicks": 96,
          "midi": 75,
          "name": "D#5",
          "ticks": 67488,
          "time": 164.765625,
          "velocity": 0.84251968503937
        },
        {
          "duration": 0.46875,
          "durationTicks": 192,
          "midi": 77,
          "name": "F5",
          "ticks": 67584,
          "time": 165,
          "velocity": 0.8661417322834646
        },
        {
          "duration": 0.234375,
          "durationTicks": 96,
          "midi": 73,
          "name": "C#5",
          "ticks": 67776,
          "time": 165.46875,
          "velocity": 0.8267716535433071
        },
        {
          "duration": 0.29296875,
          "durationTicks": 120,
          "midi": 75,
          "name": "D#5",
          "ticks": 67872,
          "time": 165.703125,
          "velocity": 0.8110236220472441
        },
        {
          "duration": 0.234375,
          "durationTicks": 96,
          "midi": 75,
          "name": "D#5",
          "ticks": 68064,
          "time": 166.171875,
          "velocity": 0.8267716535433071
        },
        {
          "duration": 0.234375,
          "durationTicks": 96,
          "midi": 75,
          "name": "D#5",
          "ticks": 68160,
          "time": 166.40625,
          "velocity": 0.8110236220472441
        },
        {
          "duration": 0.234375,
          "durationTicks": 96,
          "midi": 75,
          "name": "D#5",
          "ticks": 68256,
          "time": 166.640625,
          "velocity": 0.8110236220472441
        },
        {
          "duration": 0.46875,
          "durationTicks": 192,
          "midi": 77,
          "name": "F5",
          "ticks": 68352,
          "time": 166.875,
          "velocity": 0.8267716535433071
        },
        {
          "duration": 0.234375,
          "durationTicks": 96,
          "midi": 73,
          "name": "C#5",
          "ticks": 68544,
          "time": 167.34375,
          "velocity": 0.8110236220472441
        },
        {
          "duration": 0.703125,
          "durationTicks": 288,
          "midi": 75,
          "name": "D#5",
          "ticks": 68640,
          "time": 167.578125,
          "velocity": 0.8267716535433071
        },
        {
          "duration": 0.234375,
          "durationTicks": 96,
          "midi": 77,
          "name": "F5",
          "ticks": 78336,
          "time": 191.25,
          "velocity": 0.6850393700787402
        },
        {
          "duration": 0.234375,
          "durationTicks": 96,
          "midi": 68,
          "name": "G#4",
          "ticks": 78336,
          "time": 191.25,
          "velocity": 0.6850393700787402
        },
        {
          "duration": 0.234375,
          "durationTicks": 96,
          "midi": 78,
          "name": "F#5",
          "ticks": 78432,
          "time": 191.484375,
          "velocity": 0.6850393700787402
        },
        {
          "duration": 0.234375,
          "durationTicks": 96,
          "midi": 70,
          "name": "A#4",
          "ticks": 78432,
          "time": 191.484375,
          "velocity": 0.6850393700787402
        },
        {
          "duration": 0.234375,
          "durationTicks": 96,
          "midi": 77,
          "name": "F5",
          "ticks": 78528,
          "time": 191.71875,
          "velocity": 0.6850393700787402
        },
        {
          "duration": 0.234375,
          "durationTicks": 96,
          "midi": 68,
          "name": "G#4",
          "ticks": 78528,
          "time": 191.71875,
          "velocity": 0.6850393700787402
        },
        {
          "duration": 0.234375,
          "durationTicks": 96,
          "midi": 73,
          "name": "C#5",
          "ticks": 78624,
          "time": 191.953125,
          "velocity": 0.5984251968503937
        },
        {
          "duration": 0.234375,
          "durationTicks": 96,
          "midi": 65,
          "name": "F4",
          "ticks": 78624,
          "time": 191.953125,
          "velocity": 0.7086614173228346
        },
        {
          "duration": 0.5859375,
          "durationTicks": 240,
          "midi": 75,
          "name": "D#5",
          "ticks": 78720,
          "time": 192.1875,
          "velocity": 0.6850393700787402
        },
        {
          "duration": 0.5859375,
          "durationTicks": 240,
          "midi": 66,
          "name": "F#4",
          "ticks": 78720,
          "time": 192.1875,
          "velocity": 0.6850393700787402
        },
        {
          "duration": 0.234375,
          "durationTicks": 96,
          "midi": 82,
          "name": "A#5",
          "ticks": 79584,
          "time": 194.296875,
          "velocity": 0.8582677165354331
        },
        {
          "duration": 0.234375,
          "durationTicks": 96,
          "midi": 82,
          "name": "A#5",
          "ticks": 79680,
          "time": 194.53125,
          "velocity": 0.8582677165354331
        },
        {
          "duration": 0.234375,
          "durationTicks": 96,
          "midi": 82,
          "name": "A#5",
          "ticks": 79776,
          "time": 194.765625,
          "velocity": 0.8582677165354331
        },
        {
          "duration": 0.517578125,
          "durationTicks": 212,
          "midi": 82,
          "name": "A#5",
          "ticks": 79872,
          "time": 195,
          "velocity": 0.8582677165354331
        },
        {
          "duration": 0.234375,
          "durationTicks": 96,
          "midi": 78,
          "name": "F#5",
          "ticks": 80064,
          "time": 195.46875,
          "velocity": 0.7874015748031497
        },
        {
          "duration": 0.234375,
          "durationTicks": 96,
          "midi": 80,
          "name": "G#5",
          "ticks": 80160,
          "time": 195.703125,
          "velocity": 0.8110236220472441
        },
        {
          "duration": 0.234375,
          "durationTicks": 96,
          "midi": 78,
          "name": "F#5",
          "ticks": 80352,
          "time": 196.171875,
          "velocity": 0.8346456692913385
        },
        {
          "duration": 0.234375,
          "durationTicks": 96,
          "midi": 77,
          "name": "F5",
          "ticks": 80448,
          "time": 196.40625,
          "velocity": 0.8346456692913385
        },
        {
          "duration": 0.234375,
          "durationTicks": 96,
          "midi": 78,
          "name": "F#5",
          "ticks": 80544,
          "time": 196.640625,
          "velocity": 0.8346456692913385
        },
        {
          "duration": 0.46875,
          "durationTicks": 192,
          "midi": 77,
          "name": "F5",
          "ticks": 80640,
          "time": 196.875,
          "velocity": 0.7165354330708661
        },
        {
          "duration": 0.234375,
          "durationTicks": 96,
          "midi": 73,
          "name": "C#5",
          "ticks": 80832,
          "time": 197.34375,
          "velocity": 0.8582677165354331
        },
        {
          "duration": 0.234375,
          "durationTicks": 96,
          "midi": 75,
          "name": "D#5",
          "ticks": 80928,
          "time": 197.578125,
          "velocity": 0.8110236220472441
        },
        {
          "duration": 0.234375,
          "durationTicks": 96,
          "midi": 82,
          "name": "A#5",
          "ticks": 81120,
          "time": 198.046875,
          "velocity": 0.8582677165354331
        },
        {
          "duration": 0.234375,
          "durationTicks": 96,
          "midi": 82,
          "name": "A#5",
          "ticks": 81216,
          "time": 198.28125,
          "velocity": 0.8582677165354331
        },
        {
          "duration": 0.234375,
          "durationTicks": 96,
          "midi": 82,
          "name": "A#5",
          "ticks": 81312,
          "time": 198.515625,
          "velocity": 0.8582677165354331
        },
        {
          "duration": 0.46875,
          "durationTicks": 192,
          "midi": 82,
          "name": "A#5",
          "ticks": 81408,
          "time": 198.75,
          "velocity": 0.7637795275590551
        },
        {
          "duration": 0.234375,
          "durationTicks": 96,
          "midi": 78,
          "name": "F#5",
          "ticks": 81600,
          "time": 199.21875,
          "velocity": 0.8582677165354331
        },
        {
          "duration": 0.3173828125,
          "durationTicks": 130,
          "midi": 80,
          "name": "G#5",
          "ticks": 81696,
          "time": 199.453125,
          "velocity": 0.8582677165354331
        },
        {
          "duration": 0.234375,
          "durationTicks": 96,
          "midi": 78,
          "name": "F#5",
          "ticks": 81888,
          "time": 199.921875,
          "velocity": 0.8818897637795275
        },
        {
          "duration": 0.234375,
          "durationTicks": 96,
          "midi": 77,
          "name": "F5",
          "ticks": 81984,
          "time": 200.15625,
          "velocity": 0.8818897637795275
        },
        {
          "duration": 0.234375,
          "durationTicks": 96,
          "midi": 78,
          "name": "F#5",
          "ticks": 82080,
          "time": 200.390625,
          "velocity": 0.8346456692913385
        },
        {
          "duration": 0.46875,
          "durationTicks": 192,
          "midi": 77,
          "name": "F5",
          "ticks": 82176,
          "time": 200.625,
          "velocity": 0.8346456692913385
        },
        {
          "duration": 0.234375,
          "durationTicks": 96,
          "midi": 73,
          "name": "C#5",
          "ticks": 82368,
          "time": 201.09375,
          "velocity": 0.8346456692913385
        },
        {
          "duration": 0.31982421875,
          "durationTicks": 131,
          "midi": 75,
          "name": "D#5",
          "ticks": 82464,
          "time": 201.328125,
          "velocity": 0.8346456692913385
        },
        {
          "duration": 0.234375,
          "durationTicks": 96,
          "midi": 75,
          "name": "D#5",
          "ticks": 82656,
          "time": 201.796875,
          "velocity": 0.8346456692913385
        },
        {
          "duration": 0.234375,
          "durationTicks": 96,
          "midi": 75,
          "name": "D#5",
          "ticks": 82752,
          "time": 202.03125,
          "velocity": 0.8346456692913385
        },
        {
          "duration": 0.2099609375,
          "durationTicks": 86,
          "midi": 75,
          "name": "D#5",
          "ticks": 82848,
          "time": 202.265625,
          "velocity": 0.8346456692913385
        },
        {
          "duration": 0.46875,
          "durationTicks": 192,
          "midi": 77,
          "name": "F5",
          "ticks": 82944,
          "time": 202.5,
          "velocity": 0.8582677165354331
        },
        {
          "duration": 0.234375,
          "durationTicks": 96,
          "midi": 73,
          "name": "C#5",
          "ticks": 83136,
          "time": 202.96875,
          "velocity": 0.8110236220472441
        },
        {
          "duration": 0.263671875,
          "durationTicks": 108,
          "midi": 75,
          "name": "D#5",
          "ticks": 83232,
          "time": 203.203125,
          "velocity": 0.8582677165354331
        },
        {
          "duration": 0.234375,
          "durationTicks": 96,
          "midi": 75,
          "name": "D#5",
          "ticks": 83424,
          "time": 203.671875,
          "velocity": 0.8582677165354331
        },
        {
          "duration": 0.234375,
          "durationTicks": 96,
          "midi": 75,
          "name": "D#5",
          "ticks": 83520,
          "time": 203.90625,
          "velocity": 0.8582677165354331
        },
        {
          "duration": 0.24658203125,
          "durationTicks": 101,
          "midi": 75,
          "name": "D#5",
          "ticks": 83616,
          "time": 204.140625,
          "velocity": 0.8582677165354331
        },
        {
          "duration": 0.46875,
          "durationTicks": 192,
          "midi": 77,
          "name": "F5",
          "ticks": 83712,
          "time": 204.375,
          "velocity": 0.8582677165354331
        },
        {
          "duration": 0.234375,
          "durationTicks": 96,
          "midi": 73,
          "name": "C#5",
          "ticks": 83904,
          "time": 204.84375,
          "velocity": 0.8582677165354331
        },
        {
          "duration": 0.38330078125,
          "durationTicks": 157,
          "midi": 75,
          "name": "D#5",
          "ticks": 84000,
          "time": 205.078125,
          "velocity": 0.8110236220472441
        },
        {
          "duration": 0.234375,
          "durationTicks": 96,
          "midi": 82,
          "name": "A#5",
          "ticks": 84192,
          "time": 205.546875,
          "velocity": 0.6929133858267716
        },
        {
          "duration": 0.234375,
          "durationTicks": 96,
          "midi": 82,
          "name": "A#5",
          "ticks": 84288,
          "time": 205.78125,
          "velocity": 0.6929133858267716
        },
        {
          "duration": 0.234375,
          "durationTicks": 96,
          "midi": 82,
          "name": "A#5",
          "ticks": 84384,
          "time": 206.015625,
          "velocity": 0.6929133858267716
        },
        {
          "duration": 0.517578125,
          "durationTicks": 212,
          "midi": 82,
          "name": "A#5",
          "ticks": 84480,
          "time": 206.25,
          "velocity": 0.6929133858267716
        },
        {
          "duration": 0.234375,
          "durationTicks": 96,
          "midi": 78,
          "name": "F#5",
          "ticks": 84672,
          "time": 206.71875,
          "velocity": 0.6220472440944882
        },
        {
          "duration": 0.234375,
          "durationTicks": 96,
          "midi": 80,
          "name": "G#5",
          "ticks": 84768,
          "time": 206.953125,
          "velocity": 0.6456692913385826
        },
        {
          "duration": 0.234375,
          "durationTicks": 96,
          "midi": 78,
          "name": "F#5",
          "ticks": 84960,
          "time": 207.421875,
          "velocity": 0.6692913385826772
        },
        {
          "duration": 0.234375,
          "durationTicks": 96,
          "midi": 77,
          "name": "F5",
          "ticks": 85056,
          "time": 207.65625,
          "velocity": 0.6692913385826772
        },
        {
          "duration": 0.234375,
          "durationTicks": 96,
          "midi": 78,
          "name": "F#5",
          "ticks": 85152,
          "time": 207.890625,
          "velocity": 0.6692913385826772
        },
        {
          "duration": 0.46875,
          "durationTicks": 192,
          "midi": 77,
          "name": "F5",
          "ticks": 85248,
          "time": 208.125,
          "velocity": 0.5511811023622047
        },
        {
          "duration": 0.234375,
          "durationTicks": 96,
          "midi": 73,
          "name": "C#5",
          "ticks": 85440,
          "time": 208.59375,
          "velocity": 0.6929133858267716
        },
        {
          "duration": 0.234375,
          "durationTicks": 96,
          "midi": 75,
          "name": "D#5",
          "ticks": 85536,
          "time": 208.828125,
          "velocity": 0.6456692913385826
        },
        {
          "duration": 0.234375,
          "durationTicks": 96,
          "midi": 82,
          "name": "A#5",
          "ticks": 85728,
          "time": 209.296875,
          "velocity": 0.6929133858267716
        },
        {
          "duration": 0.234375,
          "durationTicks": 96,
          "midi": 82,
          "name": "A#5",
          "ticks": 85824,
          "time": 209.53125,
          "velocity": 0.6929133858267716
        },
        {
          "duration": 0.234375,
          "durationTicks": 96,
          "midi": 82,
          "name": "A#5",
          "ticks": 85920,
          "time": 209.765625,
          "velocity": 0.6929133858267716
        },
        {
          "duration": 0.46875,
          "durationTicks": 192,
          "midi": 82,
          "name": "A#5",
          "ticks": 86016,
          "time": 210,
          "velocity": 0.5984251968503937
        },
        {
          "duration": 0.234375,
          "durationTicks": 96,
          "midi": 78,
          "name": "F#5",
          "ticks": 86208,
          "time": 210.46875,
          "velocity": 0.6929133858267716
        },
        {
          "duration": 0.3173828125,
          "durationTicks": 130,
          "midi": 80,
          "name": "G#5",
          "ticks": 86304,
          "time": 210.703125,
          "velocity": 0.6929133858267716
        },
        {
          "duration": 0.234375,
          "durationTicks": 96,
          "midi": 78,
          "name": "F#5",
          "ticks": 86496,
          "time": 211.171875,
          "velocity": 0.7165354330708661
        },
        {
          "duration": 0.234375,
          "durationTicks": 96,
          "midi": 77,
          "name": "F5",
          "ticks": 86592,
          "time": 211.40625,
          "velocity": 0.7165354330708661
        },
        {
          "duration": 0.234375,
          "durationTicks": 96,
          "midi": 78,
          "name": "F#5",
          "ticks": 86688,
          "time": 211.640625,
          "velocity": 0.6692913385826772
        },
        {
          "duration": 0.46875,
          "durationTicks": 192,
          "midi": 77,
          "name": "F5",
          "ticks": 86784,
          "time": 211.875,
          "velocity": 0.6692913385826772
        },
        {
          "duration": 0.234375,
          "durationTicks": 96,
          "midi": 73,
          "name": "C#5",
          "ticks": 86976,
          "time": 212.34375,
          "velocity": 0.6692913385826772
        },
        {
          "duration": 0.31982421875,
          "durationTicks": 131,
          "midi": 75,
          "name": "D#5",
          "ticks": 87072,
          "time": 212.578125,
          "velocity": 0.6692913385826772
        },
        {
          "duration": 0.234375,
          "durationTicks": 96,
          "midi": 75,
          "name": "D#5",
          "ticks": 87264,
          "time": 213.046875,
          "velocity": 0.6692913385826772
        },
        {
          "duration": 0.234375,
          "durationTicks": 96,
          "midi": 75,
          "name": "D#5",
          "ticks": 87360,
          "time": 213.28125,
          "velocity": 0.6692913385826772
        },
        {
          "duration": 0.2099609375,
          "durationTicks": 86,
          "midi": 75,
          "name": "D#5",
          "ticks": 87456,
          "time": 213.515625,
          "velocity": 0.6692913385826772
        },
        {
          "duration": 0.46875,
          "durationTicks": 192,
          "midi": 77,
          "name": "F5",
          "ticks": 87552,
          "time": 213.75,
          "velocity": 0.6929133858267716
        },
        {
          "duration": 0.234375,
          "durationTicks": 96,
          "midi": 73,
          "name": "C#5",
          "ticks": 87744,
          "time": 214.21875,
          "velocity": 0.6456692913385826
        },
        {
          "duration": 0.263671875,
          "durationTicks": 108,
          "midi": 75,
          "name": "D#5",
          "ticks": 87840,
          "time": 214.453125,
          "velocity": 0.6929133858267716
        },
        {
          "duration": 0.234375,
          "durationTicks": 96,
          "midi": 75,
          "name": "D#5",
          "ticks": 88032,
          "time": 214.921875,
          "velocity": 0.6929133858267716
        },
        {
          "duration": 0.234375,
          "durationTicks": 96,
          "midi": 75,
          "name": "D#5",
          "ticks": 88128,
          "time": 215.15625,
          "velocity": 0.6929133858267716
        },
        {
          "duration": 0.24658203125,
          "durationTicks": 101,
          "midi": 75,
          "name": "D#5",
          "ticks": 88224,
          "time": 215.390625,
          "velocity": 0.6929133858267716
        },
        {
          "duration": 0.46875,
          "durationTicks": 192,
          "midi": 77,
          "name": "F5",
          "ticks": 88320,
          "time": 215.625,
          "velocity": 0.6929133858267716
        },
        {
          "duration": 0.234375,
          "durationTicks": 96,
          "midi": 73,
          "name": "C#5",
          "ticks": 88512,
          "time": 216.09375,
          "velocity": 0.6929133858267716
        },
        {
          "duration": 0.38330078125,
          "durationTicks": 157,
          "midi": 75,
          "name": "D#5",
          "ticks": 88608,
          "time": 216.328125,
          "velocity": 0.6456692913385826
        },
        {
          "duration": 0.234375,
          "durationTicks": 96,
          "midi": 78,
          "name": "F#5",
          "ticks": 89088,
          "time": 217.5,
          "velocity": 0.5669291338582677
        },
        {
          "duration": 0.234375,
          "durationTicks": 96,
          "midi": 77,
          "name": "F5",
          "ticks": 89184,
          "time": 217.734375,
          "velocity": 0.5905511811023622
        },
        {
          "duration": 0.234375,
          "durationTicks": 96,
          "midi": 78,
          "name": "F#5",
          "ticks": 89280,
          "time": 217.96875,
          "velocity": 0.5669291338582677
        },
        {
          "duration": 1.171875,
          "durationTicks": 480,
          "midi": 77,
          "name": "F5",
          "ticks": 89376,
          "time": 218.203125,
          "velocity": 0.6062992125984252
        },
        {
          "duration": 0.234375,
          "durationTicks": 96,
          "midi": 78,
          "name": "F#5",
          "ticks": 89856,
          "time": 219.375,
          "velocity": 0.5826771653543307
        },
        {
          "duration": 0.234375,
          "durationTicks": 96,
          "midi": 77,
          "name": "F5",
          "ticks": 89952,
          "time": 219.609375,
          "velocity": 0.5590551181102362
        },
        {
          "duration": 0.234375,
          "durationTicks": 96,
          "midi": 75,
          "name": "D#5",
          "ticks": 90048,
          "time": 219.84375,
          "velocity": 0.5590551181102362
        },
        {
          "duration": 1.171875,
          "durationTicks": 480,
          "midi": 77,
          "name": "F5",
          "ticks": 90144,
          "time": 220.078125,
          "velocity": 0.5748031496062992
        },
        {
          "duration": 0.234375,
          "durationTicks": 96,
          "midi": 78,
          "name": "F#5",
          "ticks": 90624,
          "time": 221.25,
          "velocity": 0.5354330708661418
        },
        {
          "duration": 0.234375,
          "durationTicks": 96,
          "midi": 77,
          "name": "F5",
          "ticks": 90720,
          "time": 221.484375,
          "velocity": 0.5669291338582677
        },
        {
          "duration": 0.234375,
          "durationTicks": 96,
          "midi": 78,
          "name": "F#5",
          "ticks": 90816,
          "time": 221.71875,
          "velocity": 0.5590551181102362
        },
        {
          "duration": 1.171875,
          "durationTicks": 480,
          "midi": 77,
          "name": "F5",
          "ticks": 90912,
          "time": 221.953125,
          "velocity": 0.5433070866141733
        },
        {
          "duration": 0.234375,
          "durationTicks": 96,
          "midi": 78,
          "name": "F#5",
          "ticks": 91392,
          "time": 223.125,
          "velocity": 0.5039370078740157
        },
        {
          "duration": 0.234375,
          "durationTicks": 96,
          "midi": 77,
          "name": "F5",
          "ticks": 91488,
          "time": 223.359375,
          "velocity": 0.5039370078740157
        },
        {
          "duration": 0.234375,
          "durationTicks": 96,
          "midi": 75,
          "name": "D#5",
          "ticks": 91584,
          "time": 223.59375,
          "velocity": 0.5039370078740157
        },
        {
          "duration": 1.171875,
          "durationTicks": 480,
          "midi": 77,
          "name": "F5",
          "ticks": 91680,
          "time": 223.828125,
          "velocity": 0.5590551181102362
        },
        {
          "duration": 0.234375,
          "durationTicks": 96,
          "midi": 78,
          "name": "F#5",
          "ticks": 92160,
          "time": 225,
          "velocity": 0.5511811023622047
        },
        {
          "duration": 0.234375,
          "durationTicks": 96,
          "midi": 77,
          "name": "F5",
          "ticks": 92256,
          "time": 225.234375,
          "velocity": 0.5511811023622047
        },
        {
          "duration": 0.234375,
          "durationTicks": 96,
          "midi": 78,
          "name": "F#5",
          "ticks": 92352,
          "time": 225.46875,
          "velocity": 0.5118110236220472
        },
        {
          "duration": 1.171875,
          "durationTicks": 480,
          "midi": 77,
          "name": "F5",
          "ticks": 92448,
          "time": 225.703125,
          "velocity": 0.5433070866141733
        },
        {
          "duration": 0.234375,
          "durationTicks": 96,
          "midi": 78,
          "name": "F#5",
          "ticks": 92928,
          "time": 226.875,
          "velocity": 0.5196850393700787
        },
        {
          "duration": 0.234375,
          "durationTicks": 96,
          "midi": 77,
          "name": "F5",
          "ticks": 93024,
          "time": 227.109375,
          "velocity": 0.5748031496062992
        },
        {
          "duration": 0.234375,
          "durationTicks": 96,
          "midi": 75,
          "name": "D#5",
          "ticks": 93120,
          "time": 227.34375,
          "velocity": 0.5590551181102362
        },
        {
          "duration": 1.171875,
          "durationTicks": 480,
          "midi": 77,
          "name": "F5",
          "ticks": 93216,
          "time": 227.578125,
          "velocity": 0.5433070866141733
        },
        {
          "duration": 0.234375,
          "durationTicks": 96,
          "midi": 78,
          "name": "F#5",
          "ticks": 93696,
          "time": 228.75,
          "velocity": 0.5118110236220472
        },
        {
          "duration": 0.234375,
          "durationTicks": 96,
          "midi": 77,
          "name": "F5",
          "ticks": 93792,
          "time": 228.984375,
          "velocity": 0.5669291338582677
        },
        {
          "duration": 0.234375,
          "durationTicks": 96,
          "midi": 78,
          "name": "F#5",
          "ticks": 93888,
          "time": 229.21875,
          "velocity": 0.5354330708661418
        },
        {
          "duration": 1.171875,
          "durationTicks": 480,
          "midi": 77,
          "name": "F5",
          "ticks": 93984,
          "time": 229.453125,
          "velocity": 0.5354330708661418
        },
        {
          "duration": 0.234375,
          "durationTicks": 96,
          "midi": 73,
          "name": "C#5",
          "ticks": 94464,
          "time": 230.625,
          "velocity": 0.6929133858267716
        },
        {
          "duration": 0.234375,
          "durationTicks": 96,
          "midi": 71,
          "name": "B4",
          "ticks": 94560,
          "time": 230.859375,
          "velocity": 0.5826771653543307
        },
        {
          "duration": 0.234375,
          "durationTicks": 96,
          "midi": 73,
          "name": "C#5",
          "ticks": 94656,
          "time": 231.09375,
          "velocity": 0.7322834645669292
        },
        {
          "duration": 0.34423828125,
          "durationTicks": 141,
          "midi": 87,
          "name": "D#6",
          "ticks": 94752,
          "time": 231.328125,
          "velocity": 0.7007874015748031
        },
        {
          "duration": 2.34375,
          "durationTicks": 960,
          "midi": 75,
          "name": "D#5",
          "ticks": 94752,
          "time": 231.328125,
          "velocity": 0.6771653543307087
        },
        {
          "duration": 0.234375,
          "durationTicks": 96,
          "midi": 82,
          "name": "A#5",
          "ticks": 94944,
          "time": 231.796875,
          "velocity": 0.5984251968503937
        },
        {
          "duration": 0.234375,
          "durationTicks": 96,
          "midi": 85,
          "name": "C#6",
          "ticks": 95040,
          "time": 232.03125,
          "velocity": 0.7165354330708661
        },
        {
          "duration": 0.46875,
          "durationTicks": 192,
          "midi": 87,
          "name": "D#6",
          "ticks": 95136,
          "time": 232.265625,
          "velocity": 0.6771653543307087
        },
        {
          "duration": 0.234375,
          "durationTicks": 96,
          "midi": 82,
          "name": "A#5",
          "ticks": 95328,
          "time": 232.734375,
          "velocity": 0.6614173228346457
        },
        {
          "duration": 0.3515625,
          "durationTicks": 144,
          "midi": 85,
          "name": "C#6",
          "ticks": 95424,
          "time": 232.96875,
          "velocity": 0.6850393700787402
        },
        {
          "duration": 0.234375,
          "durationTicks": 96,
          "midi": 87,
          "name": "D#6",
          "ticks": 95616,
          "time": 233.4375,
          "velocity": 0.6771653543307087
        },
        {
          "duration": 0.234375,
          "durationTicks": 96,
          "midi": 82,
          "name": "A#5",
          "ticks": 95712,
          "time": 233.671875,
          "velocity": 0.5669291338582677
        },
        {
          "duration": 0.234375,
          "durationTicks": 96,
          "midi": 85,
          "name": "C#6",
          "ticks": 95808,
          "time": 233.90625,
          "velocity": 0.8503937007874016
        },
        {
          "duration": 0.439453125,
          "durationTicks": 180,
          "midi": 87,
          "name": "D#6",
          "ticks": 95904,
          "time": 234.140625,
          "velocity": 0.7480314960629921
        },
        {
          "duration": 0.234375,
          "durationTicks": 96,
          "midi": 82,
          "name": "A#5",
          "ticks": 96096,
          "time": 234.609375,
          "velocity": 0.7559055118110236
        },
        {
          "duration": 0.234375,
          "durationTicks": 96,
          "midi": 82,
          "name": "A#5",
          "ticks": 96192,
          "time": 234.84375,
          "velocity": 0.7559055118110236
        },
        {
          "duration": 0.234375,
          "durationTicks": 96,
          "midi": 82,
          "name": "A#5",
          "ticks": 96288,
          "time": 235.078125,
          "velocity": 0.7559055118110236
        },
        {
          "duration": 0.517578125,
          "durationTicks": 212,
          "midi": 82,
          "name": "A#5",
          "ticks": 96384,
          "time": 235.3125,
          "velocity": 0.7559055118110236
        },
        {
          "duration": 0.234375,
          "durationTicks": 96,
          "midi": 78,
          "name": "F#5",
          "ticks": 96576,
          "time": 235.78125,
          "velocity": 0.6850393700787402
        },
        {
          "duration": 0.234375,
          "durationTicks": 96,
          "midi": 80,
          "name": "G#5",
          "ticks": 96672,
          "time": 236.015625,
          "velocity": 0.7086614173228346
        },
        {
          "duration": 0.234375,
          "durationTicks": 96,
          "midi": 78,
          "name": "F#5",
          "ticks": 96864,
          "time": 236.484375,
          "velocity": 0.7322834645669292
        },
        {
          "duration": 0.234375,
          "durationTicks": 96,
          "midi": 77,
          "name": "F5",
          "ticks": 96960,
          "time": 236.71875,
          "velocity": 0.7322834645669292
        },
        {
          "duration": 0.234375,
          "durationTicks": 96,
          "midi": 78,
          "name": "F#5",
          "ticks": 97056,
          "time": 236.953125,
          "velocity": 0.7322834645669292
        },
        {
          "duration": 0.46875,
          "durationTicks": 192,
          "midi": 77,
          "name": "F5",
          "ticks": 97152,
          "time": 237.1875,
          "velocity": 0.6141732283464567
        },
        {
          "duration": 0.234375,
          "durationTicks": 96,
          "midi": 73,
          "name": "C#5",
          "ticks": 97344,
          "time": 237.65625,
          "velocity": 0.7559055118110236
        },
        {
          "duration": 0.234375,
          "durationTicks": 96,
          "midi": 75,
          "name": "D#5",
          "ticks": 97440,
          "time": 237.890625,
          "velocity": 0.7086614173228346
        },
        {
          "duration": 0.234375,
          "durationTicks": 96,
          "midi": 82,
          "name": "A#5",
          "ticks": 97632,
          "time": 238.359375,
          "velocity": 0.7559055118110236
        },
        {
          "duration": 0.234375,
          "durationTicks": 96,
          "midi": 82,
          "name": "A#5",
          "ticks": 97728,
          "time": 238.59375,
          "velocity": 0.7559055118110236
        },
        {
          "duration": 0.234375,
          "durationTicks": 96,
          "midi": 82,
          "name": "A#5",
          "ticks": 97824,
          "time": 238.828125,
          "velocity": 0.7559055118110236
        },
        {
          "duration": 0.46875,
          "durationTicks": 192,
          "midi": 82,
          "name": "A#5",
          "ticks": 97920,
          "time": 239.0625,
          "velocity": 0.6614173228346457
        },
        {
          "duration": 0.234375,
          "durationTicks": 96,
          "midi": 78,
          "name": "F#5",
          "ticks": 98112,
          "time": 239.53125,
          "velocity": 0.7559055118110236
        },
        {
          "duration": 0.3173828125000284,
          "durationTicks": 130,
          "midi": 80,
          "name": "G#5",
          "ticks": 98208,
          "time": 239.765625,
          "velocity": 0.7559055118110236
        },
        {
          "duration": 0.234375,
          "durationTicks": 96,
          "midi": 78,
          "name": "F#5",
          "ticks": 98400,
          "time": 240.234375,
          "velocity": 0.7795275590551181
        },
        {
          "duration": 0.234375,
          "durationTicks": 96,
          "midi": 77,
          "name": "F5",
          "ticks": 98496,
          "time": 240.46875,
          "velocity": 0.7795275590551181
        },
        {
          "duration": 0.234375,
          "durationTicks": 96,
          "midi": 78,
          "name": "F#5",
          "ticks": 98592,
          "time": 240.703125,
          "velocity": 0.7322834645669292
        },
        {
          "duration": 0.46875,
          "durationTicks": 192,
          "midi": 77,
          "name": "F5",
          "ticks": 98688,
          "time": 240.9375,
          "velocity": 0.7322834645669292
        },
        {
          "duration": 0.234375,
          "durationTicks": 96,
          "midi": 73,
          "name": "C#5",
          "ticks": 98880,
          "time": 241.40625,
          "velocity": 0.7322834645669292
        },
        {
          "duration": 0.3198242187499716,
          "durationTicks": 131,
          "midi": 75,
          "name": "D#5",
          "ticks": 98976,
          "time": 241.640625,
          "velocity": 0.7322834645669292
        },
        {
          "duration": 0.234375,
          "durationTicks": 96,
          "midi": 75,
          "name": "D#5",
          "ticks": 99168,
          "time": 242.109375,
          "velocity": 0.7322834645669292
        },
        {
          "duration": 0.234375,
          "durationTicks": 96,
          "midi": 75,
          "name": "D#5",
          "ticks": 99264,
          "time": 242.34375,
          "velocity": 0.7322834645669292
        },
        {
          "duration": 0.20996093749997158,
          "durationTicks": 86,
          "midi": 75,
          "name": "D#5",
          "ticks": 99360,
          "time": 242.578125,
          "velocity": 0.7322834645669292
        },
        {
          "duration": 0.46875,
          "durationTicks": 192,
          "midi": 77,
          "name": "F5",
          "ticks": 99456,
          "time": 242.8125,
          "velocity": 0.7559055118110236
        },
        {
          "duration": 0.234375,
          "durationTicks": 96,
          "midi": 73,
          "name": "C#5",
          "ticks": 99648,
          "time": 243.28125,
          "velocity": 0.7086614173228346
        },
        {
          "duration": 0.263671875,
          "durationTicks": 108,
          "midi": 75,
          "name": "D#5",
          "ticks": 99744,
          "time": 243.515625,
          "velocity": 0.7559055118110236
        },
        {
          "duration": 0.234375,
          "durationTicks": 96,
          "midi": 75,
          "name": "D#5",
          "ticks": 99936,
          "time": 243.984375,
          "velocity": 0.7559055118110236
        },
        {
          "duration": 0.234375,
          "durationTicks": 96,
          "midi": 75,
          "name": "D#5",
          "ticks": 100032,
          "time": 244.21875,
          "velocity": 0.7559055118110236
        },
        {
          "duration": 0.24658203124997158,
          "durationTicks": 101,
          "midi": 75,
          "name": "D#5",
          "ticks": 100128,
          "time": 244.453125,
          "velocity": 0.7559055118110236
        },
        {
          "duration": 0.46875,
          "durationTicks": 192,
          "midi": 77,
          "name": "F5",
          "ticks": 100224,
          "time": 244.6875,
          "velocity": 0.7559055118110236
        },
        {
          "duration": 0.234375,
          "durationTicks": 96,
          "midi": 73,
          "name": "C#5",
          "ticks": 100416,
          "time": 245.15625,
          "velocity": 0.7559055118110236
        },
        {
          "duration": 0.3833007812500284,
          "durationTicks": 157,
          "midi": 75,
          "name": "D#5",
          "ticks": 100512,
          "time": 245.390625,
          "velocity": 0.7086614173228346
        },
        {
          "duration": 0.234375,
          "durationTicks": 96,
          "midi": 78,
          "name": "F#5",
          "ticks": 100992,
          "time": 246.5625,
          "velocity": 0.5669291338582677
        },
        {
          "duration": 0.234375,
          "durationTicks": 96,
          "midi": 77,
          "name": "F5",
          "ticks": 101088,
          "time": 246.796875,
          "velocity": 0.5905511811023622
        },
        {
          "duration": 0.234375,
          "durationTicks": 96,
          "midi": 78,
          "name": "F#5",
          "ticks": 101184,
          "time": 247.03125,
          "velocity": 0.5669291338582677
        },
        {
          "duration": 1.171875,
          "durationTicks": 480,
          "midi": 77,
          "name": "F5",
          "ticks": 101280,
          "time": 247.265625,
          "velocity": 0.6062992125984252
        },
        {
          "duration": 0.234375,
          "durationTicks": 96,
          "midi": 78,
          "name": "F#5",
          "ticks": 101760,
          "time": 248.4375,
          "velocity": 0.5826771653543307
        },
        {
          "duration": 0.234375,
          "durationTicks": 96,
          "midi": 77,
          "name": "F5",
          "ticks": 101856,
          "time": 248.671875,
          "velocity": 0.6299212598425197
        },
        {
          "duration": 0.234375,
          "durationTicks": 96,
          "midi": 75,
          "name": "D#5",
          "ticks": 101952,
          "time": 248.90625,
          "velocity": 0.5118110236220472
        },
        {
          "duration": 1.171875,
          "durationTicks": 480,
          "midi": 77,
          "name": "F5",
          "ticks": 102048,
          "time": 249.140625,
          "velocity": 0.5748031496062992
        },
        {
          "duration": 0.234375,
          "durationTicks": 96,
          "midi": 78,
          "name": "F#5",
          "ticks": 102528,
          "time": 250.3125,
          "velocity": 0.49606299212598426
        },
        {
          "duration": 0.234375,
          "durationTicks": 96,
          "midi": 77,
          "name": "F5",
          "ticks": 102624,
          "time": 250.546875,
          "velocity": 0.5669291338582677
        },
        {
          "duration": 0.234375,
          "durationTicks": 96,
          "midi": 78,
          "name": "F#5",
          "ticks": 102720,
          "time": 250.78125,
          "velocity": 0.5590551181102362
        },
        {
          "duration": 1.171875,
          "durationTicks": 480,
          "midi": 77,
          "name": "F5",
          "ticks": 102816,
          "time": 251.015625,
          "velocity": 0.5433070866141733
        },
        {
          "duration": 0.234375,
          "durationTicks": 96,
          "midi": 78,
          "name": "F#5",
          "ticks": 103296,
          "time": 252.1875,
          "velocity": 0.5354330708661418
        },
        {
          "duration": 0.234375,
          "durationTicks": 96,
          "midi": 77,
          "name": "F5",
          "ticks": 103392,
          "time": 252.421875,
          "velocity": 0.5433070866141733
        },
        {
          "duration": 0.234375,
          "durationTicks": 96,
          "midi": 75,
          "name": "D#5",
          "ticks": 103488,
          "time": 252.65625,
          "velocity": 0.5433070866141733
        },
        {
          "duration": 1.171875,
          "durationTicks": 480,
          "midi": 77,
          "name": "F5",
          "ticks": 103584,
          "time": 252.890625,
          "velocity": 0.5590551181102362
        },
        {
          "duration": 0.234375,
          "durationTicks": 96,
          "midi": 78,
          "name": "F#5",
          "ticks": 104064,
          "time": 254.0625,
          "velocity": 0.5511811023622047
        },
        {
          "duration": 0.234375,
          "durationTicks": 96,
          "midi": 77,
          "name": "F5",
          "ticks": 104160,
          "time": 254.296875,
          "velocity": 0.5511811023622047
        },
        {
          "duration": 0.234375,
          "durationTicks": 96,
          "midi": 78,
          "name": "F#5",
          "ticks": 104256,
          "time": 254.53125,
          "velocity": 0.5433070866141733
        },
        {
          "duration": 1.171875,
          "durationTicks": 480,
          "midi": 77,
          "name": "F5",
          "ticks": 104352,
          "time": 254.765625,
          "velocity": 0.5590551181102362
        },
        {
          "duration": 0.234375,
          "durationTicks": 96,
          "midi": 78,
          "name": "F#5",
          "ticks": 104832,
          "time": 255.9375,
          "velocity": 0.5196850393700787
        },
        {
          "duration": 0.234375,
          "durationTicks": 96,
          "midi": 77,
          "name": "F5",
          "ticks": 104928,
          "time": 256.171875,
          "velocity": 0.5748031496062992
        },
        {
          "duration": 0.234375,
          "durationTicks": 96,
          "midi": 75,
          "name": "D#5",
          "ticks": 105024,
          "time": 256.40625,
          "velocity": 0.5433070866141733
        },
        {
          "duration": 1.171875,
          "durationTicks": 480,
          "midi": 77,
          "name": "F5",
          "ticks": 105120,
          "time": 256.640625,
          "velocity": 0.5433070866141733
        },
        {
          "duration": 0.234375,
          "durationTicks": 96,
          "midi": 78,
          "name": "F#5",
          "ticks": 105600,
          "time": 257.8125,
          "velocity": 0.5118110236220472
        },
        {
          "duration": 0.234375,
          "durationTicks": 96,
          "midi": 77,
          "name": "F5",
          "ticks": 105696,
          "time": 258.046875,
          "velocity": 0.5669291338582677
        },
        {
          "duration": 0.234375,
          "durationTicks": 96,
          "midi": 78,
          "name": "F#5",
          "ticks": 105792,
          "time": 258.28125,
          "velocity": 0.5354330708661418
        },
        {
          "duration": 1.171875,
          "durationTicks": 480,
          "midi": 77,
          "name": "F5",
          "ticks": 105888,
          "time": 258.515625,
          "velocity": 0.5433070866141733
        },
        {
          "duration": 0.234375,
          "durationTicks": 96,
          "midi": 73,
          "name": "C#5",
          "ticks": 106368,
          "time": 259.6875,
          "velocity": 0.6929133858267716
        },
        {
          "duration": 0.234375,
          "durationTicks": 96,
          "midi": 71,
          "name": "B4",
          "ticks": 106464,
          "time": 259.921875,
          "velocity": 0.5826771653543307
        },
        {
          "duration": 0.234375,
          "durationTicks": 96,
          "midi": 73,
          "name": "C#5",
          "ticks": 106560,
          "time": 260.15625,
          "velocity": 0.7322834645669292
        },
        {
          "duration": 0.34423828125,
          "durationTicks": 141,
          "midi": 87,
          "name": "D#6",
          "ticks": 106656,
          "time": 260.390625,
          "velocity": 0.7007874015748031
        },
        {
          "duration": 2.34375,
          "durationTicks": 960,
          "midi": 75,
          "name": "D#5",
          "ticks": 106656,
          "time": 260.390625,
          "velocity": 0.6771653543307087
        },
        {
          "duration": 0.234375,
          "durationTicks": 96,
          "midi": 82,
          "name": "A#5",
          "ticks": 106848,
          "time": 260.859375,
          "velocity": 0.5984251968503937
        },
        {
          "duration": 0.234375,
          "durationTicks": 96,
          "midi": 85,
          "name": "C#6",
          "ticks": 106944,
          "time": 261.09375,
          "velocity": 0.7165354330708661
        },
        {
          "duration": 0.46875,
          "durationTicks": 192,
          "midi": 87,
          "name": "D#6",
          "ticks": 107040,
          "time": 261.328125,
          "velocity": 0.6771653543307087
        },
        {
          "duration": 0.234375,
          "durationTicks": 96,
          "midi": 82,
          "name": "A#5",
          "ticks": 107232,
          "time": 261.796875,
          "velocity": 0.6614173228346457
        },
        {
          "duration": 0.46875,
          "durationTicks": 192,
          "midi": 85,
          "name": "C#6",
          "ticks": 107328,
          "time": 262.03125,
          "velocity": 0.6850393700787402
        },
        {
          "duration": 0.234375,
          "durationTicks": 96,
          "midi": 87,
          "name": "D#6",
          "ticks": 107520,
          "time": 262.5,
          "velocity": 0.6771653543307087
        },
        {
          "duration": 0.234375,
          "durationTicks": 96,
          "midi": 82,
          "name": "A#5",
          "ticks": 107616,
          "time": 262.734375,
          "velocity": 0.5669291338582677
        },
        {
          "duration": 0.234375,
          "durationTicks": 96,
          "midi": 85,
          "name": "C#6",
          "ticks": 107712,
          "time": 262.96875,
          "velocity": 0.8503937007874016
        },
        {
          "duration": 0.439453125,
          "durationTicks": 180,
          "midi": 87,
          "name": "D#6",
          "ticks": 107808,
          "time": 263.203125,
          "velocity": 0.7480314960629921
        },
        {
          "duration": 0.234375,
          "durationTicks": 96,
          "midi": 82,
          "name": "A#5",
          "ticks": 108000,
          "time": 263.671875,
          "velocity": 0.7795275590551181
        },
        {
          "duration": 0.234375,
          "durationTicks": 96,
          "midi": 82,
          "name": "A#5",
          "ticks": 108096,
          "time": 263.90625,
          "velocity": 0.8661417322834646
        },
        {
          "duration": 0.234375,
          "durationTicks": 96,
          "midi": 82,
          "name": "A#5",
          "ticks": 108192,
          "time": 264.140625,
          "velocity": 0.8110236220472441
        },
        {
          "duration": 0.46875,
          "durationTicks": 192,
          "midi": 82,
          "name": "A#5",
          "ticks": 108288,
          "time": 264.375,
          "velocity": 0.8267716535433071
        },
        {
          "duration": 0.234375,
          "durationTicks": 96,
          "midi": 78,
          "name": "F#5",
          "ticks": 108480,
          "time": 264.84375,
          "velocity": 0.7952755905511811
        },
        {
          "duration": 0.234375,
          "durationTicks": 96,
          "midi": 80,
          "name": "G#5",
          "ticks": 108576,
          "time": 265.078125,
          "velocity": 0.8188976377952756
        },
        {
          "duration": 0.234375,
          "durationTicks": 96,
          "midi": 78,
          "name": "F#5",
          "ticks": 108768,
          "time": 265.546875,
          "velocity": 0.84251968503937
        },
        {
          "duration": 0.234375,
          "durationTicks": 96,
          "midi": 77,
          "name": "F5",
          "ticks": 108864,
          "time": 265.78125,
          "velocity": 0.84251968503937
        },
        {
          "duration": 0.234375,
          "durationTicks": 96,
          "midi": 78,
          "name": "F#5",
          "ticks": 108960,
          "time": 266.015625,
          "velocity": 0.84251968503937
        },
        {
          "duration": 0.46875,
          "durationTicks": 192,
          "midi": 77,
          "name": "F5",
          "ticks": 109056,
          "time": 266.25,
          "velocity": 0.7244094488188977
        },
        {
          "duration": 0.234375,
          "durationTicks": 96,
          "midi": 73,
          "name": "C#5",
          "ticks": 109248,
          "time": 266.71875,
          "velocity": 0.8661417322834646
        },
        {
          "duration": 0.234375,
          "durationTicks": 96,
          "midi": 75,
          "name": "D#5",
          "ticks": 109344,
          "time": 266.953125,
          "velocity": 0.8188976377952756
        },
        {
          "duration": 0.234375,
          "durationTicks": 96,
          "midi": 82,
          "name": "A#5",
          "ticks": 109536,
          "time": 267.421875,
          "velocity": 0.7795275590551181
        },
        {
          "duration": 0.234375,
          "durationTicks": 96,
          "midi": 82,
          "name": "A#5",
          "ticks": 109632,
          "time": 267.65625,
          "velocity": 0.7795275590551181
        },
        {
          "duration": 0.234375,
          "durationTicks": 96,
          "midi": 82,
          "name": "A#5",
          "ticks": 109728,
          "time": 267.890625,
          "velocity": 0.8110236220472441
        },
        {
          "duration": 0.46875,
          "durationTicks": 192,
          "midi": 82,
          "name": "A#5",
          "ticks": 109824,
          "time": 268.125,
          "velocity": 0.8267716535433071
        },
        {
          "duration": 0.234375,
          "durationTicks": 96,
          "midi": 78,
          "name": "F#5",
          "ticks": 110016,
          "time": 268.59375,
          "velocity": 0.8661417322834646
        },
        {
          "duration": 0.29296875,
          "durationTicks": 120,
          "midi": 80,
          "name": "G#5",
          "ticks": 110112,
          "time": 268.828125,
          "velocity": 0.8661417322834646
        },
        {
          "duration": 0.234375,
          "durationTicks": 96,
          "midi": 85,
          "name": "C#6",
          "ticks": 110304,
          "time": 269.296875,
          "velocity": 0.889763779527559
        },
        {
          "duration": 0.234375,
          "durationTicks": 96,
          "midi": 85,
          "name": "C#6",
          "ticks": 110400,
          "time": 269.53125,
          "velocity": 0.889763779527559
        },
        {
          "duration": 0.234375,
          "durationTicks": 96,
          "midi": 85,
          "name": "C#6",
          "ticks": 110496,
          "time": 269.765625,
          "velocity": 0.84251968503937
        },
        {
          "duration": 0.234375,
          "durationTicks": 96,
          "midi": 82,
          "name": "A#5",
          "ticks": 110592,
          "time": 270,
          "velocity": 0.84251968503937
        },
        {
          "duration": 0.234375,
          "durationTicks": 96,
          "midi": 85,
          "name": "C#6",
          "ticks": 110688,
          "time": 270.234375,
          "velocity": 0.84251968503937
        },
        {
          "duration": 0.234375,
          "durationTicks": 96,
          "midi": 82,
          "name": "A#5",
          "ticks": 110784,
          "time": 270.46875,
          "velocity": 0.84251968503937
        },
        {
          "duration": 0.234375,
          "durationTicks": 96,
          "midi": 87,
          "name": "D#6",
          "ticks": 110880,
          "time": 270.703125,
          "velocity": 0.84251968503937
        },
        {
          "duration": 0.234375,
          "durationTicks": 96,
          "midi": 82,
          "name": "A#5",
          "ticks": 111072,
          "time": 271.171875,
          "velocity": 0.84251968503937
        },
        {
          "duration": 0.234375,
          "durationTicks": 96,
          "midi": 87,
          "name": "D#6",
          "ticks": 111168,
          "time": 271.40625,
          "velocity": 0.84251968503937
        }
      ]
    },
    {
      "channel": 0,
      "controlChanges": {
        "0": [
          {
            "number": 0,
            "ticks": 290,
            "time": 0.7080078125,
            "value": 0
          }
        ],
        "32": [
          {
            "number": 32,
            "ticks": 292,
            "time": 0.712890625,
            "value": 0
          }
        ],
        "121": [
          {
            "number": 121,
            "ticks": 192,
            "time": 0.46875,
            "value": 0
          }
        ]
      },
      "pitchBends": [],
      "instrument": {
        "family": "piano",
        "number": 0,
        "name": "acoustic grand piano"
      },
      "name": "",
      "notes": [],
      "endOfTrackTicks": 112128
    },
    {
      "channel": 6,
      "controlChanges": {
        "7": [
          {
            "number": 7,
            "ticks": 296,
            "time": 0.72265625,
            "value": 0.6614173228346457
          }
        ],
        "10": [
          {
            "number": 10,
            "ticks": 298,
            "time": 0.7275390625,
            "value": 0.4881889763779528
          }
        ],
        "11": [
          {
            "number": 11,
            "ticks": 300,
            "time": 0.732421875,
            "value": 1
          }
        ],
        "91": [
          {
            "number": 91,
            "ticks": 302,
            "time": 0.7373046875,
            "value": 1
          }
        ],
        "93": [
          {
            "number": 93,
            "ticks": 304,
            "time": 0.7421875,
            "value": 0.31496062992125984
          }
        ]
      },
      "pitchBends": [],
      "instrument": {
        "family": "synth effects",
        "number": 100,
        "name": "fx 5 (brightness)"
      },
      "name": "",
      "notes": [
        {
          "duration": 0.12939453125,
          "durationTicks": 53,
          "midi": 77,
          "name": "F5",
          "ticks": 16608,
          "time": 40.546875,
          "velocity": 0.7480314960629921
        },
        {
          "duration": 0.14892578125,
          "durationTicks": 61,
          "midi": 77,
          "name": "F5",
          "ticks": 16704,
          "time": 40.78125,
          "velocity": 0.7637795275590551
        },
        {
          "duration": 0.126953125,
          "durationTicks": 52,
          "midi": 78,
          "name": "F#5",
          "ticks": 16800,
          "time": 41.015625,
          "velocity": 0.7637795275590551
        },
        {
          "duration": 0.46630859375,
          "durationTicks": 191,
          "midi": 77,
          "name": "F5",
          "ticks": 16896,
          "time": 41.25,
          "velocity": 0.7637795275590551
        },
        {
          "duration": 0.15380859375,
          "durationTicks": 63,
          "midi": 73,
          "name": "C#5",
          "ticks": 17088,
          "time": 41.71875,
          "velocity": 0.7637795275590551
        },
        {
          "duration": 0.20751953125,
          "durationTicks": 85,
          "midi": 75,
          "name": "D#5",
          "ticks": 17184,
          "time": 41.953125,
          "velocity": 0.7637795275590551
        },
        {
          "duration": 0.087890625,
          "durationTicks": 36,
          "midi": 77,
          "name": "F5",
          "ticks": 18144,
          "time": 44.296875,
          "velocity": 0.7322834645669292
        },
        {
          "duration": 0.14404296875,
          "durationTicks": 59,
          "midi": 77,
          "name": "F5",
          "ticks": 18240,
          "time": 44.53125,
          "velocity": 0.7322834645669292
        },
        {
          "duration": 0.1318359375,
          "durationTicks": 54,
          "midi": 78,
          "name": "F#5",
          "ticks": 18336,
          "time": 44.765625,
          "velocity": 0.7322834645669292
        },
        {
          "duration": 0.4638671875,
          "durationTicks": 190,
          "midi": 77,
          "name": "F5",
          "ticks": 18432,
          "time": 45,
          "velocity": 0.7401574803149606
        },
        {
          "duration": 0.15625,
          "durationTicks": 64,
          "midi": 73,
          "name": "C#5",
          "ticks": 18624,
          "time": 45.46875,
          "velocity": 0.7322834645669292
        },
        {
          "duration": 0.18310546875,
          "durationTicks": 75,
          "midi": 75,
          "name": "D#5",
          "ticks": 18720,
          "time": 45.703125,
          "velocity": 0.7165354330708661
        },
        {
          "duration": 0.09765625,
          "durationTicks": 40,
          "midi": 75,
          "name": "D#5",
          "ticks": 19680,
          "time": 48.046875,
          "velocity": 0.7322834645669292
        },
        {
          "duration": 0.10498046875,
          "durationTicks": 43,
          "midi": 75,
          "name": "D#5",
          "ticks": 19776,
          "time": 48.28125,
          "velocity": 0.7322834645669292
        },
        {
          "duration": 0.13671875,
          "durationTicks": 56,
          "midi": 75,
          "name": "D#5",
          "ticks": 19872,
          "time": 48.515625,
          "velocity": 0.7322834645669292
        },
        {
          "duration": 0.400390625,
          "durationTicks": 164,
          "midi": 77,
          "name": "F5",
          "ticks": 19968,
          "time": 48.75,
          "velocity": 0.7480314960629921
        },
        {
          "duration": 0.146484375,
          "durationTicks": 60,
          "midi": 73,
          "name": "C#5",
          "ticks": 20160,
          "time": 49.21875,
          "velocity": 0.7322834645669292
        },
        {
          "duration": 0.1708984375,
          "durationTicks": 70,
          "midi": 75,
          "name": "D#5",
          "ticks": 20256,
          "time": 49.453125,
          "velocity": 0.7322834645669292
        },
        {
          "duration": 0.0927734375,
          "durationTicks": 38,
          "midi": 77,
          "name": "F5",
          "ticks": 21216,
          "time": 51.796875,
          "velocity": 0.7322834645669292
        },
        {
          "duration": 0.1513671875,
          "durationTicks": 62,
          "midi": 77,
          "name": "F5",
          "ticks": 21312,
          "time": 52.03125,
          "velocity": 0.7322834645669292
        },
        {
          "duration": 0.1171875,
          "durationTicks": 48,
          "midi": 78,
          "name": "F#5",
          "ticks": 21408,
          "time": 52.265625,
          "velocity": 0.7165354330708661
        },
        {
          "duration": 0.400390625,
          "durationTicks": 164,
          "midi": 77,
          "name": "F5",
          "ticks": 21504,
          "time": 52.5,
          "velocity": 0.7165354330708661
        },
        {
          "duration": 0.16357421875,
          "durationTicks": 67,
          "midi": 73,
          "name": "C#5",
          "ticks": 21696,
          "time": 52.96875,
          "velocity": 0.7322834645669292
        },
        {
          "duration": 0.2099609375,
          "durationTicks": 86,
          "midi": 75,
          "name": "D#5",
          "ticks": 21792,
          "time": 53.203125,
          "velocity": 0.7322834645669292
        },
        {
          "duration": 0.0830078125,
          "durationTicks": 34,
          "midi": 77,
          "name": "F5",
          "ticks": 22752,
          "time": 55.546875,
          "velocity": 0.7165354330708661
        },
        {
          "duration": 0.12939453125,
          "durationTicks": 53,
          "midi": 77,
          "name": "F5",
          "ticks": 22848,
          "time": 55.78125,
          "velocity": 0.7165354330708661
        },
        {
          "duration": 0.12939453125,
          "durationTicks": 53,
          "midi": 78,
          "name": "F#5",
          "ticks": 22944,
          "time": 56.015625,
          "velocity": 0.7322834645669292
        },
        {
          "duration": 0.41748046875,
          "durationTicks": 171,
          "midi": 77,
          "name": "F5",
          "ticks": 23040,
          "time": 56.25,
          "velocity": 0.7165354330708661
        },
        {
          "duration": 0.12939453125,
          "durationTicks": 53,
          "midi": 73,
          "name": "C#5",
          "ticks": 23232,
          "time": 56.71875,
          "velocity": 0.7165354330708661
        },
        {
          "duration": 0.14892578125,
          "durationTicks": 61,
          "midi": 75,
          "name": "D#5",
          "ticks": 23328,
          "time": 56.953125,
          "velocity": 0.7007874015748031
        },
        {
          "duration": 0.087890625,
          "durationTicks": 36,
          "midi": 75,
          "name": "D#5",
          "ticks": 24288,
          "time": 59.296875,
          "velocity": 0.7007874015748031
        },
        {
          "duration": 0.09521484375,
          "durationTicks": 39,
          "midi": 75,
          "name": "D#5",
          "ticks": 24384,
          "time": 59.53125,
          "velocity": 0.7165354330708661
        },
        {
          "duration": 0.14404296875,
          "durationTicks": 59,
          "midi": 75,
          "name": "D#5",
          "ticks": 24480,
          "time": 59.765625,
          "velocity": 0.7322834645669292
        },
        {
          "duration": 0.44677734375,
          "durationTicks": 183,
          "midi": 77,
          "name": "F5",
          "ticks": 24576,
          "time": 60,
          "velocity": 0.6929133858267716
        },
        {
          "duration": 0.1586914062499929,
          "durationTicks": 65,
          "midi": 73,
          "name": "C#5",
          "ticks": 24768,
          "time": 60.46875,
          "velocity": 0.7480314960629921
        },
        {
          "duration": 0.1586914062499929,
          "durationTicks": 65,
          "midi": 75,
          "name": "D#5",
          "ticks": 24864,
          "time": 60.703125,
          "velocity": 0.7322834645669292
        },
        {
          "duration": 0.4663085937499929,
          "durationTicks": 191,
          "midi": 82,
          "name": "A#5",
          "ticks": 25536,
          "time": 62.34375,
          "velocity": 0.7322834645669292
        },
        {
          "duration": 0.2172851562499929,
          "durationTicks": 89,
          "midi": 80,
          "name": "G#5",
          "ticks": 25728,
          "time": 62.8125,
          "velocity": 0.7322834645669292
        },
        {
          "duration": 0.3027343750000071,
          "durationTicks": 124,
          "midi": 78,
          "name": "F#5",
          "ticks": 25824,
          "time": 63.046875,
          "velocity": 0.7322834645669292
        },
        {
          "duration": 0.2246093749999929,
          "durationTicks": 92,
          "midi": 78,
          "name": "F#5",
          "ticks": 26016,
          "time": 63.515625,
          "velocity": 0.7637795275590551
        },
        {
          "duration": 0.2197265625,
          "durationTicks": 90,
          "midi": 77,
          "name": "F5",
          "ticks": 26112,
          "time": 63.75,
          "velocity": 0.7637795275590551
        },
        {
          "duration": 0.2099609375,
          "durationTicks": 86,
          "midi": 75,
          "name": "D#5",
          "ticks": 26208,
          "time": 63.984375,
          "velocity": 0.7480314960629921
        },
        {
          "duration": 0.234375,
          "durationTicks": 96,
          "midi": 73,
          "name": "C#5",
          "ticks": 26304,
          "time": 64.21875,
          "velocity": 0.7322834645669292
        },
        {
          "duration": 0.234375,
          "durationTicks": 96,
          "midi": 75,
          "name": "D#5",
          "ticks": 26400,
          "time": 64.453125,
          "velocity": 0.7322834645669292
        },
        {
          "duration": 0.4052734375,
          "durationTicks": 166,
          "midi": 82,
          "name": "A#5",
          "ticks": 27072,
          "time": 66.09375,
          "velocity": 0.7322834645669292
        },
        {
          "duration": 0.205078125,
          "durationTicks": 84,
          "midi": 80,
          "name": "G#5",
          "ticks": 27264,
          "time": 66.5625,
          "velocity": 0.7007874015748031
        },
        {
          "duration": 0.2099609375,
          "durationTicks": 86,
          "midi": 78,
          "name": "F#5",
          "ticks": 27360,
          "time": 66.796875,
          "velocity": 0.7007874015748031
        },
        {
          "duration": 0.234375,
          "durationTicks": 96,
          "midi": 78,
          "name": "F#5",
          "ticks": 27552,
          "time": 67.265625,
          "velocity": 0.7165354330708661
        },
        {
          "duration": 0.20751953125,
          "durationTicks": 85,
          "midi": 77,
          "name": "F5",
          "ticks": 27648,
          "time": 67.5,
          "velocity": 0.7165354330708661
        },
        {
          "duration": 0.20751953125,
          "durationTicks": 85,
          "midi": 75,
          "name": "D#5",
          "ticks": 27744,
          "time": 67.734375,
          "velocity": 0.7007874015748031
        },
        {
          "duration": 0.24169921875,
          "durationTicks": 99,
          "midi": 73,
          "name": "C#5",
          "ticks": 27840,
          "time": 67.96875,
          "velocity": 0.7322834645669292
        },
        {
          "duration": 0.234375,
          "durationTicks": 96,
          "midi": 75,
          "name": "D#5",
          "ticks": 27936,
          "time": 68.203125,
          "velocity": 0.7165354330708661
        },
        {
          "duration": 0.419921875,
          "durationTicks": 172,
          "midi": 82,
          "name": "A#5",
          "ticks": 28608,
          "time": 69.84375,
          "velocity": 0.7165354330708661
        },
        {
          "duration": 0.25634765625,
          "durationTicks": 105,
          "midi": 80,
          "name": "G#5",
          "ticks": 28800,
          "time": 70.3125,
          "velocity": 0.7165354330708661
        },
        {
          "duration": 0.2294921875,
          "durationTicks": 94,
          "midi": 78,
          "name": "F#5",
          "ticks": 28896,
          "time": 70.546875,
          "velocity": 0.7165354330708661
        },
        {
          "duration": 0.22705078125,
          "durationTicks": 93,
          "midi": 78,
          "name": "F#5",
          "ticks": 29088,
          "time": 71.015625,
          "velocity": 0.7165354330708661
        },
        {
          "duration": 0.234375,
          "durationTicks": 96,
          "midi": 77,
          "name": "F5",
          "ticks": 29184,
          "time": 71.25,
          "velocity": 0.7322834645669292
        },
        {
          "duration": 0.2197265625,
          "durationTicks": 90,
          "midi": 75,
          "name": "D#5",
          "ticks": 29280,
          "time": 71.484375,
          "velocity": 0.7165354330708661
        },
        {
          "duration": 0.2490234375,
          "durationTicks": 102,
          "midi": 73,
          "name": "C#5",
          "ticks": 29376,
          "time": 71.71875,
          "velocity": 0.7322834645669292
        },
        {
          "duration": 0.234375,
          "durationTicks": 96,
          "midi": 75,
          "name": "D#5",
          "ticks": 29472,
          "time": 71.953125,
          "velocity": 0.7480314960629921
        },
        {
          "duration": 0.39794921875,
          "durationTicks": 163,
          "midi": 82,
          "name": "A#5",
          "ticks": 30144,
          "time": 73.59375,
          "velocity": 0.7165354330708661
        },
        {
          "duration": 0.2197265625,
          "durationTicks": 90,
          "midi": 80,
          "name": "G#5",
          "ticks": 30336,
          "time": 74.0625,
          "velocity": 0.7165354330708661
        },
        {
          "duration": 0.22705078125,
          "durationTicks": 93,
          "midi": 78,
          "name": "F#5",
          "ticks": 30432,
          "time": 74.296875,
          "velocity": 0.7165354330708661
        },
        {
          "duration": 0.20263671875,
          "durationTicks": 83,
          "midi": 78,
          "name": "F#5",
          "ticks": 30528,
          "time": 74.53125,
          "velocity": 0.7007874015748031
        },
        {
          "duration": 0.1171875,
          "durationTicks": 48,
          "midi": 78,
          "name": "F#5",
          "ticks": 30624,
          "time": 74.765625,
          "velocity": 0.7322834645669292
        },
        {
          "duration": 0.234375,
          "durationTicks": 96,
          "midi": 80,
          "name": "G#5",
          "ticks": 30720,
          "time": 75,
          "velocity": 0.7322834645669292
        },
        {
          "duration": 0.224609375,
          "durationTicks": 92,
          "midi": 78,
          "name": "F#5",
          "ticks": 30816,
          "time": 75.234375,
          "velocity": 0.7322834645669292
        },
        {
          "duration": 0.22705078125,
          "durationTicks": 93,
          "midi": 80,
          "name": "G#5",
          "ticks": 30912,
          "time": 75.46875,
          "velocity": 0.7165354330708661
        },
        {
          "duration": 2.2265625,
          "durationTicks": 912,
          "midi": 82,
          "name": "A#5",
          "ticks": 31008,
          "time": 75.703125,
          "velocity": 0.7480314960629921
        },
        {
          "duration": 0.14892578125,
          "durationTicks": 61,
          "midi": 77,
          "name": "F5",
          "ticks": 42336,
          "time": 103.359375,
          "velocity": 0.7322834645669292
        },
        {
          "duration": 0.205078125,
          "durationTicks": 84,
          "midi": 77,
          "name": "F5",
          "ticks": 42432,
          "time": 103.59375,
          "velocity": 0.7322834645669292
        },
        {
          "duration": 0.244140625,
          "durationTicks": 100,
          "midi": 78,
          "name": "F#5",
          "ticks": 42528,
          "time": 103.828125,
          "velocity": 0.7322834645669292
        },
        {
          "duration": 0.44189453125,
          "durationTicks": 181,
          "midi": 77,
          "name": "F5",
          "ticks": 42624,
          "time": 104.0625,
          "velocity": 0.7244094488188977
        },
        {
          "duration": 0.21728515625,
          "durationTicks": 89,
          "midi": 73,
          "name": "C#5",
          "ticks": 42816,
          "time": 104.53125,
          "velocity": 0.7322834645669292
        },
        {
          "duration": 0.2197265625,
          "durationTicks": 90,
          "midi": 75,
          "name": "D#5",
          "ticks": 42912,
          "time": 104.765625,
          "velocity": 0.7165354330708661
        },
        {
          "duration": 0.1318359375,
          "durationTicks": 54,
          "midi": 77,
          "name": "F5",
          "ticks": 43872,
          "time": 107.109375,
          "velocity": 0.7322834645669292
        },
        {
          "duration": 0.21484375,
          "durationTicks": 88,
          "midi": 77,
          "name": "F5",
          "ticks": 43968,
          "time": 107.34375,
          "velocity": 0.7322834645669292
        },
        {
          "duration": 0.24658203125,
          "durationTicks": 101,
          "midi": 78,
          "name": "F#5",
          "ticks": 44064,
          "time": 107.578125,
          "velocity": 0.7322834645669292
        },
        {
          "duration": 0.40771484375,
          "durationTicks": 167,
          "midi": 77,
          "name": "F5",
          "ticks": 44160,
          "time": 107.8125,
          "velocity": 0.7322834645669292
        },
        {
          "duration": 0.23193359375,
          "durationTicks": 95,
          "midi": 73,
          "name": "C#5",
          "ticks": 44352,
          "time": 108.28125,
          "velocity": 0.7322834645669292
        },
        {
          "duration": 0.26123046875,
          "durationTicks": 107,
          "midi": 75,
          "name": "D#5",
          "ticks": 44448,
          "time": 108.515625,
          "velocity": 0.7322834645669292
        },
        {
          "duration": 0.1171875,
          "durationTicks": 48,
          "midi": 75,
          "name": "D#5",
          "ticks": 45408,
          "time": 110.859375,
          "velocity": 0.7322834645669292
        },
        {
          "duration": 0.12451171875,
          "durationTicks": 51,
          "midi": 75,
          "name": "D#5",
          "ticks": 45504,
          "time": 111.09375,
          "velocity": 0.7322834645669292
        },
        {
          "duration": 0.1708984375,
          "durationTicks": 70,
          "midi": 75,
          "name": "D#5",
          "ticks": 45600,
          "time": 111.328125,
          "velocity": 0.7322834645669292
        },
        {
          "duration": 0.43701171875,
          "durationTicks": 179,
          "midi": 77,
          "name": "F5",
          "ticks": 45696,
          "time": 111.5625,
          "velocity": 0.7086614173228346
        },
        {
          "duration": 0.19775390625,
          "durationTicks": 81,
          "midi": 73,
          "name": "C#5",
          "ticks": 45888,
          "time": 112.03125,
          "velocity": 0.7322834645669292
        },
        {
          "duration": 0.25146484375,
          "durationTicks": 103,
          "midi": 75,
          "name": "D#5",
          "ticks": 45984,
          "time": 112.265625,
          "velocity": 0.7322834645669292
        },
        {
          "duration": 0.47119140625,
          "durationTicks": 193,
          "midi": 82,
          "name": "A#5",
          "ticks": 46656,
          "time": 113.90625,
          "velocity": 0.7322834645669292
        },
        {
          "duration": 0.26123046875,
          "durationTicks": 107,
          "midi": 80,
          "name": "G#5",
          "ticks": 46848,
          "time": 114.375,
          "velocity": 0.7322834645669292
        },
        {
          "duration": 0.37353515625,
          "durationTicks": 153,
          "midi": 78,
          "name": "F#5",
          "ticks": 46944,
          "time": 114.609375,
          "velocity": 0.7322834645669292
        },
        {
          "duration": 0.244140625,
          "durationTicks": 100,
          "midi": 78,
          "name": "F#5",
          "ticks": 47136,
          "time": 115.078125,
          "velocity": 0.7480314960629921
        },
        {
          "duration": 0.26611328125,
          "durationTicks": 109,
          "midi": 77,
          "name": "F5",
          "ticks": 47232,
          "time": 115.3125,
          "velocity": 0.7480314960629921
        },
        {
          "duration": 0.23681640625,
          "durationTicks": 97,
          "midi": 75,
          "name": "D#5",
          "ticks": 47328,
          "time": 115.546875,
          "velocity": 0.7480314960629921
        },
        {
          "duration": 0.2099609375,
          "durationTicks": 86,
          "midi": 73,
          "name": "C#5",
          "ticks": 47424,
          "time": 115.78125,
          "velocity": 0.7480314960629921
        },
        {
          "duration": 0.33203125,
          "durationTicks": 136,
          "midi": 75,
          "name": "D#5",
          "ticks": 47520,
          "time": 116.015625,
          "velocity": 0.7480314960629921
        },
        {
          "duration": 0.48095703125,
          "durationTicks": 197,
          "midi": 82,
          "name": "A#5",
          "ticks": 48192,
          "time": 117.65625,
          "velocity": 0.7322834645669292
        },
        {
          "duration": 0.20263671875,
          "durationTicks": 83,
          "midi": 80,
          "name": "G#5",
          "ticks": 48384,
          "time": 118.125,
          "velocity": 0.7322834645669292
        },
        {
          "duration": 0.30517578125,
          "durationTicks": 125,
          "midi": 78,
          "name": "F#5",
          "ticks": 48480,
          "time": 118.359375,
          "velocity": 0.7637795275590551
        },
        {
          "duration": 0.2490234375,
          "durationTicks": 102,
          "midi": 78,
          "name": "F#5",
          "ticks": 48672,
          "time": 118.828125,
          "velocity": 0.7322834645669292
        },
        {
          "duration": 0.25390625,
          "durationTicks": 104,
          "midi": 77,
          "name": "F5",
          "ticks": 48768,
          "time": 119.0625,
          "velocity": 0.6850393700787402
        },
        {
          "duration": 0.20751953125,
          "durationTicks": 85,
          "midi": 75,
          "name": "D#5",
          "ticks": 48864,
          "time": 119.296875,
          "velocity": 0.7637795275590551
        },
        {
          "duration": 0.22216796875,
          "durationTicks": 91,
          "midi": 73,
          "name": "C#5",
          "ticks": 48960,
          "time": 119.53125,
          "velocity": 0.8188976377952756
        },
        {
          "duration": 0.3979492187499858,
          "durationTicks": 163,
          "midi": 75,
          "name": "D#5",
          "ticks": 49056,
          "time": 119.765625,
          "velocity": 0.7795275590551181
        },
        {
          "duration": 0.4736328125000142,
          "durationTicks": 194,
          "midi": 82,
          "name": "A#5",
          "ticks": 49728,
          "time": 121.40625,
          "velocity": 0.7480314960629921
        },
        {
          "duration": 0.2319335937500142,
          "durationTicks": 95,
          "midi": 80,
          "name": "G#5",
          "ticks": 49920,
          "time": 121.875,
          "velocity": 0.7322834645669292
        },
        {
          "duration": 0.3393554687499858,
          "durationTicks": 139,
          "midi": 78,
          "name": "F#5",
          "ticks": 50016,
          "time": 122.109375,
          "velocity": 0.7480314960629921
        },
        {
          "duration": 0.2368164062499858,
          "durationTicks": 97,
          "midi": 78,
          "name": "F#5",
          "ticks": 50208,
          "time": 122.578125,
          "velocity": 0.7322834645669292
        },
        {
          "duration": 0.2612304687500142,
          "durationTicks": 107,
          "midi": 77,
          "name": "F5",
          "ticks": 50304,
          "time": 122.8125,
          "velocity": 0.7322834645669292
        },
        {
          "duration": 0.2197265625,
          "durationTicks": 90,
          "midi": 75,
          "name": "D#5",
          "ticks": 50400,
          "time": 123.046875,
          "velocity": 0.7480314960629921
        },
        {
          "duration": 0.2075195312499858,
          "durationTicks": 85,
          "midi": 73,
          "name": "C#5",
          "ticks": 50496,
          "time": 123.28125,
          "velocity": 0.7322834645669292
        },
        {
          "duration": 0.32958984375,
          "durationTicks": 135,
          "midi": 75,
          "name": "D#5",
          "ticks": 50592,
          "time": 123.515625,
          "velocity": 0.7322834645669292
        },
        {
          "duration": 0.4418945312499858,
          "durationTicks": 181,
          "midi": 82,
          "name": "A#5",
          "ticks": 51264,
          "time": 125.15625,
          "velocity": 0.7480314960629921
        },
        {
          "duration": 0.2172851562500142,
          "durationTicks": 89,
          "midi": 80,
          "name": "G#5",
          "ticks": 51456,
          "time": 125.625,
          "velocity": 0.7795275590551181
        },
        {
          "duration": 0.2099609375000142,
          "durationTicks": 86,
          "midi": 78,
          "name": "F#5",
          "ticks": 51552,
          "time": 125.859375,
          "velocity": 0.7795275590551181
        },
        {
          "duration": 0.2001953124999858,
          "durationTicks": 82,
          "midi": 78,
          "name": "F#5",
          "ticks": 51648,
          "time": 126.09375,
          "velocity": 0.7795275590551181
        },
        {
          "duration": 0.2001953124999858,
          "durationTicks": 82,
          "midi": 78,
          "name": "F#5",
          "ticks": 51744,
          "time": 126.328125,
          "velocity": 0.7795275590551181
        },
        {
          "duration": 0.2026367187500142,
          "durationTicks": 83,
          "midi": 80,
          "name": "G#5",
          "ticks": 51840,
          "time": 126.5625,
          "velocity": 0.7637795275590551
        },
        {
          "duration": 0.2001953124999858,
          "durationTicks": 82,
          "midi": 78,
          "name": "F#5",
          "ticks": 51936,
          "time": 126.796875,
          "velocity": 0.7637795275590551
        },
        {
          "duration": 0.2197265625,
          "durationTicks": 90,
          "midi": 80,
          "name": "G#5",
          "ticks": 52032,
          "time": 127.03125,
          "velocity": 0.7637795275590551
        },
        {
          "duration": 2.080078125,
          "durationTicks": 852,
          "midi": 82,
          "name": "A#5",
          "ticks": 52128,
          "time": 127.265625,
          "velocity": 0.7322834645669292
        },
        {
          "duration": 0.20751953125,
          "durationTicks": 85,
          "midi": 78,
          "name": "F#5",
          "ticks": 54240,
          "time": 132.421875,
          "velocity": 0.6850393700787402
        },
        {
          "duration": 0.25390625,
          "durationTicks": 104,
          "midi": 77,
          "name": "F5",
          "ticks": 54336,
          "time": 132.65625,
          "velocity": 0.7007874015748031
        },
        {
          "duration": 0.2099609375,
          "durationTicks": 86,
          "midi": 78,
          "name": "F#5",
          "ticks": 54432,
          "time": 132.890625,
          "velocity": 0.7007874015748031
        },
        {
          "duration": 0.4296875,
          "durationTicks": 176,
          "midi": 77,
          "name": "F5",
          "ticks": 54528,
          "time": 133.125,
          "velocity": 0.7322834645669292
        },
        {
          "duration": 0.20263671875,
          "durationTicks": 83,
          "midi": 73,
          "name": "C#5",
          "ticks": 54720,
          "time": 133.59375,
          "velocity": 0.7007874015748031
        },
        {
          "duration": 0.2294921875,
          "durationTicks": 94,
          "midi": 75,
          "name": "D#5",
          "ticks": 54816,
          "time": 133.828125,
          "velocity": 0.7007874015748031
        },
        {
          "duration": 0.20263671875,
          "durationTicks": 83,
          "midi": 78,
          "name": "F#5",
          "ticks": 55776,
          "time": 136.171875,
          "velocity": 0.6850393700787402
        },
        {
          "duration": 0.224609375,
          "durationTicks": 92,
          "midi": 77,
          "name": "F5",
          "ticks": 55872,
          "time": 136.40625,
          "velocity": 0.6771653543307087
        },
        {
          "duration": 0.22705078125,
          "durationTicks": 93,
          "midi": 78,
          "name": "F#5",
          "ticks": 55968,
          "time": 136.640625,
          "velocity": 0.7007874015748031
        },
        {
          "duration": 0.47119140625,
          "durationTicks": 193,
          "midi": 77,
          "name": "F5",
          "ticks": 56064,
          "time": 136.875,
          "velocity": 0.7165354330708661
        },
        {
          "duration": 0.205078125,
          "durationTicks": 84,
          "midi": 73,
          "name": "C#5",
          "ticks": 56256,
          "time": 137.34375,
          "velocity": 0.7165354330708661
        },
        {
          "duration": 0.20263671875,
          "durationTicks": 83,
          "midi": 75,
          "name": "D#5",
          "ticks": 56352,
          "time": 137.578125,
          "velocity": 0.7165354330708661
        },
        {
          "duration": 0.1220703125,
          "durationTicks": 50,
          "midi": 75,
          "name": "D#5",
          "ticks": 57312,
          "time": 139.921875,
          "velocity": 0.6850393700787402
        },
        {
          "duration": 0.12451171875,
          "durationTicks": 51,
          "midi": 75,
          "name": "D#5",
          "ticks": 57408,
          "time": 140.15625,
          "velocity": 0.7007874015748031
        },
        {
          "duration": 0.1708984375,
          "durationTicks": 70,
          "midi": 75,
          "name": "D#5",
          "ticks": 57504,
          "time": 140.390625,
          "velocity": 0.7007874015748031
        },
        {
          "duration": 0.4052734375,
          "durationTicks": 166,
          "midi": 77,
          "name": "F5",
          "ticks": 57600,
          "time": 140.625,
          "velocity": 0.7637795275590551
        },
        {
          "duration": 0.13671875,
          "durationTicks": 56,
          "midi": 73,
          "name": "C#5",
          "ticks": 57792,
          "time": 141.09375,
          "velocity": 0.7007874015748031
        },
        {
          "duration": 0.29296875,
          "durationTicks": 120,
          "midi": 75,
          "name": "D#5",
          "ticks": 57888,
          "time": 141.328125,
          "velocity": 0.7165354330708661
        },
        {
          "duration": 0.1416015625,
          "durationTicks": 58,
          "midi": 77,
          "name": "F5",
          "ticks": 80352,
          "time": 196.171875,
          "velocity": 0.6850393700787402
        },
        {
          "duration": 0.20751953125,
          "durationTicks": 85,
          "midi": 77,
          "name": "F5",
          "ticks": 80448,
          "time": 196.40625,
          "velocity": 0.7165354330708661
        },
        {
          "duration": 0.2001953125,
          "durationTicks": 82,
          "midi": 78,
          "name": "F#5",
          "ticks": 80544,
          "time": 196.640625,
          "velocity": 0.7165354330708661
        },
        {
          "duration": 0.43212890625,
          "durationTicks": 177,
          "midi": 77,
          "name": "F5",
          "ticks": 80640,
          "time": 196.875,
          "velocity": 0.7165354330708661
        },
        {
          "duration": 0.2099609375,
          "durationTicks": 86,
          "midi": 73,
          "name": "C#5",
          "ticks": 80832,
          "time": 197.34375,
          "velocity": 0.7165354330708661
        },
        {
          "duration": 0.21240234375,
          "durationTicks": 87,
          "midi": 75,
          "name": "D#5",
          "ticks": 80928,
          "time": 197.578125,
          "velocity": 0.7165354330708661
        },
        {
          "duration": 0.13671875,
          "durationTicks": 56,
          "midi": 77,
          "name": "F5",
          "ticks": 81888,
          "time": 199.921875,
          "velocity": 0.7322834645669292
        },
        {
          "duration": 0.19775390625,
          "durationTicks": 81,
          "midi": 77,
          "name": "F5",
          "ticks": 81984,
          "time": 200.15625,
          "velocity": 0.7322834645669292
        },
        {
          "duration": 0.2197265625,
          "durationTicks": 90,
          "midi": 78,
          "name": "F#5",
          "ticks": 82080,
          "time": 200.390625,
          "velocity": 0.7322834645669292
        },
        {
          "duration": 0.41015625,
          "durationTicks": 168,
          "midi": 77,
          "name": "F5",
          "ticks": 82176,
          "time": 200.625,
          "velocity": 0.7322834645669292
        },
        {
          "duration": 0.20751953125,
          "durationTicks": 85,
          "midi": 73,
          "name": "C#5",
          "ticks": 82368,
          "time": 201.09375,
          "velocity": 0.7322834645669292
        },
        {
          "duration": 0.2880859375,
          "durationTicks": 118,
          "midi": 75,
          "name": "D#5",
          "ticks": 82464,
          "time": 201.328125,
          "velocity": 0.7165354330708661
        },
        {
          "duration": 0.1171875,
          "durationTicks": 48,
          "midi": 75,
          "name": "D#5",
          "ticks": 83424,
          "time": 203.671875,
          "velocity": 0.7007874015748031
        },
        {
          "duration": 0.1220703125,
          "durationTicks": 50,
          "midi": 75,
          "name": "D#5",
          "ticks": 83520,
          "time": 203.90625,
          "velocity": 0.6850393700787402
        },
        {
          "duration": 0.20263671875,
          "durationTicks": 83,
          "midi": 75,
          "name": "D#5",
          "ticks": 83616,
          "time": 204.140625,
          "velocity": 0.6850393700787402
        },
        {
          "duration": 0.45166015625,
          "durationTicks": 185,
          "midi": 77,
          "name": "F5",
          "ticks": 83712,
          "time": 204.375,
          "velocity": 0.7007874015748031
        },
        {
          "duration": 0.2734375,
          "durationTicks": 112,
          "midi": 73,
          "name": "C#5",
          "ticks": 83904,
          "time": 204.84375,
          "velocity": 0.7165354330708661
        },
        {
          "duration": 0.24658203125,
          "durationTicks": 101,
          "midi": 75,
          "name": "D#5",
          "ticks": 84000,
          "time": 205.078125,
          "velocity": 0.7165354330708661
        },
        {
          "duration": 0.126953125,
          "durationTicks": 52,
          "midi": 77,
          "name": "F5",
          "ticks": 84960,
          "time": 207.421875,
          "velocity": 0.7165354330708661
        },
        {
          "duration": 0.18798828125,
          "durationTicks": 77,
          "midi": 77,
          "name": "F5",
          "ticks": 85056,
          "time": 207.65625,
          "velocity": 0.7165354330708661
        },
        {
          "duration": 0.185546875,
          "durationTicks": 76,
          "midi": 78,
          "name": "F#5",
          "ticks": 85152,
          "time": 207.890625,
          "velocity": 0.7007874015748031
        },
        {
          "duration": 0.46875,
          "durationTicks": 192,
          "midi": 77,
          "name": "F5",
          "ticks": 85248,
          "time": 208.125,
          "velocity": 0.7165354330708661
        },
        {
          "duration": 0.20751953125,
          "durationTicks": 85,
          "midi": 73,
          "name": "C#5",
          "ticks": 85440,
          "time": 208.59375,
          "velocity": 0.7165354330708661
        },
        {
          "duration": 0.21484375,
          "durationTicks": 88,
          "midi": 75,
          "name": "D#5",
          "ticks": 85536,
          "time": 208.828125,
          "velocity": 0.7165354330708661
        },
        {
          "duration": 0.11962890625,
          "durationTicks": 49,
          "midi": 77,
          "name": "F5",
          "ticks": 86496,
          "time": 211.171875,
          "velocity": 0.7165354330708661
        },
        {
          "duration": 0.17822265625,
          "durationTicks": 73,
          "midi": 77,
          "name": "F5",
          "ticks": 86592,
          "time": 211.40625,
          "velocity": 0.7007874015748031
        },
        {
          "duration": 0.2099609375,
          "durationTicks": 86,
          "midi": 78,
          "name": "F#5",
          "ticks": 86688,
          "time": 211.640625,
          "velocity": 0.7007874015748031
        },
        {
          "duration": 0.44921875,
          "durationTicks": 184,
          "midi": 77,
          "name": "F5",
          "ticks": 86784,
          "time": 211.875,
          "velocity": 0.7007874015748031
        },
        {
          "duration": 0.2001953125,
          "durationTicks": 82,
          "midi": 73,
          "name": "C#5",
          "ticks": 86976,
          "time": 212.34375,
          "velocity": 0.7165354330708661
        },
        {
          "duration": 0.23681640625,
          "durationTicks": 97,
          "midi": 75,
          "name": "D#5",
          "ticks": 87072,
          "time": 212.578125,
          "velocity": 0.7165354330708661
        },
        {
          "duration": 0.12939453125,
          "durationTicks": 53,
          "midi": 75,
          "name": "D#5",
          "ticks": 88032,
          "time": 214.921875,
          "velocity": 0.7322834645669292
        },
        {
          "duration": 0.13427734375,
          "durationTicks": 55,
          "midi": 75,
          "name": "D#5",
          "ticks": 88128,
          "time": 215.15625,
          "velocity": 0.7322834645669292
        },
        {
          "duration": 0.16845703125,
          "durationTicks": 69,
          "midi": 75,
          "name": "D#5",
          "ticks": 88224,
          "time": 215.390625,
          "velocity": 0.7480314960629921
        },
        {
          "duration": 0.46875,
          "durationTicks": 192,
          "midi": 77,
          "name": "F5",
          "ticks": 88320,
          "time": 215.625,
          "velocity": 0.7322834645669292
        },
        {
          "duration": 0.1904296875,
          "durationTicks": 78,
          "midi": 73,
          "name": "C#5",
          "ticks": 88512,
          "time": 216.09375,
          "velocity": 0.7480314960629921
        },
        {
          "duration": 0.302734375,
          "durationTicks": 124,
          "midi": 75,
          "name": "D#5",
          "ticks": 88608,
          "time": 216.328125,
          "velocity": 0.7480314960629921
        },
        {
          "duration": 0.3857421875,
          "durationTicks": 158,
          "midi": 82,
          "name": "A#5",
          "ticks": 89280,
          "time": 217.96875,
          "velocity": 0.7480314960629921
        },
        {
          "duration": 0.2294921875,
          "durationTicks": 94,
          "midi": 80,
          "name": "G#5",
          "ticks": 89472,
          "time": 218.4375,
          "velocity": 0.7322834645669292
        },
        {
          "duration": 0.380859375,
          "durationTicks": 156,
          "midi": 78,
          "name": "F#5",
          "ticks": 89568,
          "time": 218.671875,
          "velocity": 0.7480314960629921
        },
        {
          "duration": 0.25390625,
          "durationTicks": 104,
          "midi": 78,
          "name": "F#5",
          "ticks": 89760,
          "time": 219.140625,
          "velocity": 0.7322834645669292
        },
        {
          "duration": 0.25146484375,
          "durationTicks": 103,
          "midi": 77,
          "name": "F5",
          "ticks": 89856,
          "time": 219.375,
          "velocity": 0.7165354330708661
        },
        {
          "duration": 0.224609375,
          "durationTicks": 92,
          "midi": 75,
          "name": "D#5",
          "ticks": 89952,
          "time": 219.609375,
          "velocity": 0.7637795275590551
        },
        {
          "duration": 0.2197265625,
          "durationTicks": 90,
          "midi": 73,
          "name": "C#5",
          "ticks": 90048,
          "time": 219.84375,
          "velocity": 0.7322834645669292
        },
        {
          "duration": 0.34912109375,
          "durationTicks": 143,
          "midi": 75,
          "name": "D#5",
          "ticks": 90144,
          "time": 220.078125,
          "velocity": 0.7322834645669292
        },
        {
          "duration": 0.45654296875,
          "durationTicks": 187,
          "midi": 82,
          "name": "A#5",
          "ticks": 90816,
          "time": 221.71875,
          "velocity": 0.7637795275590551
        },
        {
          "duration": 0.2001953125,
          "durationTicks": 82,
          "midi": 80,
          "name": "G#5",
          "ticks": 91008,
          "time": 222.1875,
          "velocity": 0.7480314960629921
        },
        {
          "duration": 0.27587890625,
          "durationTicks": 113,
          "midi": 78,
          "name": "F#5",
          "ticks": 91104,
          "time": 222.421875,
          "velocity": 0.7480314960629921
        },
        {
          "duration": 0.2587890625,
          "durationTicks": 106,
          "midi": 78,
          "name": "F#5",
          "ticks": 91296,
          "time": 222.890625,
          "velocity": 0.7637795275590551
        },
        {
          "duration": 0.2001953125,
          "durationTicks": 82,
          "midi": 77,
          "name": "F5",
          "ticks": 91392,
          "time": 223.125,
          "velocity": 0.7795275590551181
        },
        {
          "duration": 0.19287109375,
          "durationTicks": 79,
          "midi": 75,
          "name": "D#5",
          "ticks": 91488,
          "time": 223.359375,
          "velocity": 0.7795275590551181
        },
        {
          "duration": 0.234375,
          "durationTicks": 96,
          "midi": 73,
          "name": "C#5",
          "ticks": 91584,
          "time": 223.59375,
          "velocity": 0.7637795275590551
        },
        {
          "duration": 0.2734375,
          "durationTicks": 112,
          "midi": 75,
          "name": "D#5",
          "ticks": 91680,
          "time": 223.828125,
          "velocity": 0.7637795275590551
        },
        {
          "duration": 0.46875,
          "durationTicks": 192,
          "midi": 82,
          "name": "A#5",
          "ticks": 92352,
          "time": 225.46875,
          "velocity": 0.7322834645669292
        },
        {
          "duration": 0.2197265625,
          "durationTicks": 90,
          "midi": 80,
          "name": "G#5",
          "ticks": 92544,
          "time": 225.9375,
          "velocity": 0.7795275590551181
        },
        {
          "duration": 0.263671875,
          "durationTicks": 108,
          "midi": 78,
          "name": "F#5",
          "ticks": 92640,
          "time": 226.171875,
          "velocity": 0.7480314960629921
        },
        {
          "duration": 0.21728515625,
          "durationTicks": 89,
          "midi": 78,
          "name": "F#5",
          "ticks": 92832,
          "time": 226.640625,
          "velocity": 0.7480314960629921
        },
        {
          "duration": 0.25146484375,
          "durationTicks": 103,
          "midi": 77,
          "name": "F5",
          "ticks": 92928,
          "time": 226.875,
          "velocity": 0.7480314960629921
        },
        {
          "duration": 0.20751953125,
          "durationTicks": 85,
          "midi": 75,
          "name": "D#5",
          "ticks": 93024,
          "time": 227.109375,
          "velocity": 0.7637795275590551
        },
        {
          "duration": 0.205078125,
          "durationTicks": 84,
          "midi": 73,
          "name": "C#5",
          "ticks": 93120,
          "time": 227.34375,
          "velocity": 0.7637795275590551
        },
        {
          "duration": 0.29296875,
          "durationTicks": 120,
          "midi": 75,
          "name": "D#5",
          "ticks": 93216,
          "time": 227.578125,
          "velocity": 0.7637795275590551
        },
        {
          "duration": 0.4541015625,
          "durationTicks": 186,
          "midi": 82,
          "name": "A#5",
          "ticks": 93888,
          "time": 229.21875,
          "velocity": 0.7322834645669292
        },
        {
          "duration": 0.21728515625,
          "durationTicks": 89,
          "midi": 80,
          "name": "G#5",
          "ticks": 94080,
          "time": 229.6875,
          "velocity": 0.7322834645669292
        },
        {
          "duration": 0.1708984375,
          "durationTicks": 70,
          "midi": 78,
          "name": "F#5",
          "ticks": 94176,
          "time": 229.921875,
          "velocity": 0.7480314960629921
        },
        {
          "duration": 0.14404296875,
          "durationTicks": 59,
          "midi": 78,
          "name": "F#5",
          "ticks": 94272,
          "time": 230.15625,
          "velocity": 0.7322834645669292
        },
        {
          "duration": 0.1806640625,
          "durationTicks": 74,
          "midi": 78,
          "name": "F#5",
          "ticks": 94368,
          "time": 230.390625,
          "velocity": 0.7322834645669292
        },
        {
          "duration": 0.19287109375,
          "durationTicks": 79,
          "midi": 80,
          "name": "G#5",
          "ticks": 94464,
          "time": 230.625,
          "velocity": 0.7322834645669292
        },
        {
          "duration": 0.224609375,
          "durationTicks": 92,
          "midi": 78,
          "name": "F#5",
          "ticks": 94560,
          "time": 230.859375,
          "velocity": 0.7480314960629921
        },
        {
          "duration": 0.18310546875,
          "durationTicks": 75,
          "midi": 80,
          "name": "G#5",
          "ticks": 94656,
          "time": 231.09375,
          "velocity": 0.7480314960629921
        },
        {
          "duration": 2.0751953125,
          "durationTicks": 850,
          "midi": 82,
          "name": "A#5",
          "ticks": 94752,
          "time": 231.328125,
          "velocity": 0.7480314960629921
        },
        {
          "duration": 0.3784179687499716,
          "durationTicks": 155,
          "midi": 82,
          "name": "A#5",
          "ticks": 101184,
          "time": 247.03125,
          "velocity": 0.7007874015748031
        },
        {
          "duration": 0.205078125,
          "durationTicks": 84,
          "midi": 80,
          "name": "G#5",
          "ticks": 101376,
          "time": 247.5,
          "velocity": 0.7007874015748031
        },
        {
          "duration": 0.3491210937499716,
          "durationTicks": 143,
          "midi": 78,
          "name": "F#5",
          "ticks": 101472,
          "time": 247.734375,
          "velocity": 0.7007874015748031
        },
        {
          "duration": 0.21728515624997158,
          "durationTicks": 89,
          "midi": 78,
          "name": "F#5",
          "ticks": 101664,
          "time": 248.203125,
          "velocity": 0.7322834645669292
        },
        {
          "duration": 0.25634765625,
          "durationTicks": 105,
          "midi": 77,
          "name": "F5",
          "ticks": 101760,
          "time": 248.4375,
          "velocity": 0.7007874015748031
        },
        {
          "duration": 0.18798828124997158,
          "durationTicks": 77,
          "midi": 75,
          "name": "D#5",
          "ticks": 101856,
          "time": 248.671875,
          "velocity": 0.7007874015748031
        },
        {
          "duration": 0.2197265625,
          "durationTicks": 90,
          "midi": 73,
          "name": "C#5",
          "ticks": 101952,
          "time": 248.90625,
          "velocity": 0.7007874015748031
        },
        {
          "duration": 0.2734375000000284,
          "durationTicks": 112,
          "midi": 75,
          "name": "D#5",
          "ticks": 102048,
          "time": 249.140625,
          "velocity": 0.7480314960629921
        },
        {
          "duration": 0.3930664062499716,
          "durationTicks": 161,
          "midi": 82,
          "name": "A#5",
          "ticks": 102720,
          "time": 250.78125,
          "velocity": 0.7480314960629921
        },
        {
          "duration": 0.19531249999997158,
          "durationTicks": 80,
          "midi": 80,
          "name": "G#5",
          "ticks": 102912,
          "time": 251.25,
          "velocity": 0.7322834645669292
        },
        {
          "duration": 0.2807617187500284,
          "durationTicks": 115,
          "midi": 78,
          "name": "F#5",
          "ticks": 103008,
          "time": 251.484375,
          "velocity": 0.7322834645669292
        },
        {
          "duration": 0.24169921875,
          "durationTicks": 99,
          "midi": 78,
          "name": "F#5",
          "ticks": 103200,
          "time": 251.953125,
          "velocity": 0.7322834645669292
        },
        {
          "duration": 0.24414062500002842,
          "durationTicks": 100,
          "midi": 77,
          "name": "F5",
          "ticks": 103296,
          "time": 252.1875,
          "velocity": 0.7322834645669292
        },
        {
          "duration": 0.20751953125002842,
          "durationTicks": 85,
          "midi": 75,
          "name": "D#5",
          "ticks": 103392,
          "time": 252.421875,
          "velocity": 0.7322834645669292
        },
        {
          "duration": 0.20996093749997158,
          "durationTicks": 86,
          "midi": 73,
          "name": "C#5",
          "ticks": 103488,
          "time": 252.65625,
          "velocity": 0.7480314960629921
        },
        {
          "duration": 0.2490234375,
          "durationTicks": 102,
          "midi": 75,
          "name": "D#5",
          "ticks": 103584,
          "time": 252.890625,
          "velocity": 0.7637795275590551
        },
        {
          "duration": 0.3930664062499716,
          "durationTicks": 161,
          "midi": 82,
          "name": "A#5",
          "ticks": 104256,
          "time": 254.53125,
          "velocity": 0.7322834645669292
        },
        {
          "duration": 0.20751953125002842,
          "durationTicks": 85,
          "midi": 80,
          "name": "G#5",
          "ticks": 104448,
          "time": 255,
          "velocity": 0.7322834645669292
        },
        {
          "duration": 0.21728515624997158,
          "durationTicks": 89,
          "midi": 78,
          "name": "F#5",
          "ticks": 104544,
          "time": 255.234375,
          "velocity": 0.7322834645669292
        },
        {
          "duration": 0.24169921875,
          "durationTicks": 99,
          "midi": 78,
          "name": "F#5",
          "ticks": 104736,
          "time": 255.703125,
          "velocity": 0.7322834645669292
        },
        {
          "duration": 0.234375,
          "durationTicks": 96,
          "midi": 77,
          "name": "F5",
          "ticks": 104832,
          "time": 255.9375,
          "velocity": 0.7480314960629921
        },
        {
          "duration": 0.18310546875,
          "durationTicks": 75,
          "midi": 75,
          "name": "D#5",
          "ticks": 104928,
          "time": 256.171875,
          "velocity": 0.7480314960629921
        },
        {
          "duration": 0.20263671875,
          "durationTicks": 83,
          "midi": 73,
          "name": "C#5",
          "ticks": 105024,
          "time": 256.40625,
          "velocity": 0.7322834645669292
        },
        {
          "duration": 0.31982421875,
          "durationTicks": 131,
          "midi": 75,
          "name": "D#5",
          "ticks": 105120,
          "time": 256.640625,
          "velocity": 0.7322834645669292
        },
        {
          "duration": 0.3857421875,
          "durationTicks": 158,
          "midi": 82,
          "name": "A#5",
          "ticks": 105792,
          "time": 258.28125,
          "velocity": 0.7007874015748031
        },
        {
          "duration": 0.21484375,
          "durationTicks": 88,
          "midi": 80,
          "name": "G#5",
          "ticks": 105984,
          "time": 258.75,
          "velocity": 0.7322834645669292
        },
        {
          "duration": 0.15625,
          "durationTicks": 64,
          "midi": 78,
          "name": "F#5",
          "ticks": 106080,
          "time": 258.984375,
          "velocity": 0.7322834645669292
        },
        {
          "duration": 0.1416015625,
          "durationTicks": 58,
          "midi": 78,
          "name": "F#5",
          "ticks": 106176,
          "time": 259.21875,
          "velocity": 0.7795275590551181
        },
        {
          "duration": 0.18310546875,
          "durationTicks": 75,
          "midi": 78,
          "name": "F#5",
          "ticks": 106272,
          "time": 259.453125,
          "velocity": 0.7322834645669292
        },
        {
          "duration": 0.21728515625,
          "durationTicks": 89,
          "midi": 80,
          "name": "G#5",
          "ticks": 106368,
          "time": 259.6875,
          "velocity": 0.7322834645669292
        },
        {
          "duration": 0.185546875,
          "durationTicks": 76,
          "midi": 78,
          "name": "F#5",
          "ticks": 106464,
          "time": 259.921875,
          "velocity": 0.7007874015748031
        },
        {
          "duration": 0.2197265625,
          "durationTicks": 90,
          "midi": 80,
          "name": "G#5",
          "ticks": 106560,
          "time": 260.15625,
          "velocity": 0.7165354330708661
        },
        {
          "duration": 2.2607421875,
          "durationTicks": 926,
          "midi": 82,
          "name": "A#5",
          "ticks": 106656,
          "time": 260.390625,
          "velocity": 0.7322834645669292
        }
      ]
    },
    {
      "channel": 0,
      "controlChanges": {
        "0": [
          {
            "number": 0,
            "ticks": 306,
            "time": 0.7470703125,
            "value": 0
          }
        ],
        "32": [
          {
            "number": 32,
            "ticks": 308,
            "time": 0.751953125,
            "value": 0
          }
        ],
        "121": [
          {
            "number": 121,
            "ticks": 192,
            "time": 0.46875,
            "value": 0
          }
        ]
      },
      "pitchBends": [],
      "instrument": {
        "family": "piano",
        "number": 0,
        "name": "acoustic grand piano"
      },
      "name": "",
      "notes": [],
      "endOfTrackTicks": 112128
    },
    {
      "channel": 7,
      "controlChanges": {
        "6": [
          {
            "number": 6,
            "ticks": 414,
            "time": 1.0107421875,
            "value": 0.5984251968503937
          },
          {
            "number": 6,
            "ticks": 418,
            "time": 1.0205078125,
            "value": 0.41732283464566927
          }
        ],
        "7": [
          {
            "number": 7,
            "ticks": 312,
            "time": 0.76171875,
            "value": 0.8188976377952756
          }
        ],
        "10": [
          {
            "number": 10,
            "ticks": 314,
            "time": 0.7666015625,
            "value": 0.5748031496062992
          }
        ],
        "11": [
          {
            "number": 11,
            "ticks": 316,
            "time": 0.771484375,
            "value": 1
          }
        ],
        "91": [
          {
            "number": 91,
            "ticks": 318,
            "time": 0.7763671875,
            "value": 1
          }
        ],
        "93": [
          {
            "number": 93,
            "ticks": 320,
            "time": 0.78125,
            "value": 0.29133858267716534
          }
        ],
        "98": [
          {
            "number": 98,
            "ticks": 412,
            "time": 1.005859375,
            "value": 0.25196850393700787
          },
          {
            "number": 98,
            "ticks": 416,
            "time": 1.015625,
            "value": 0.25984251968503935
          }
        ],
        "99": [
          {
            "number": 99,
            "ticks": 410,
            "time": 1.0009765625,
            "value": 0.007874015748031496
          }
        ],
        "100": [
          {
            "number": 100,
            "ticks": 420,
            "time": 1.025390625,
            "value": 1
          }
        ],
        "101": [
          {
            "number": 101,
            "ticks": 422,
            "time": 1.0302734375,
            "value": 1
          }
        ]
      },
      "pitchBends": [],
      "instrument": {
        "family": "brass",
        "number": 61,
        "name": "brass section"
      },
      "name": "",
      "notes": [
        {
          "duration": 0.45654296875,
          "durationTicks": 187,
          "midi": 65,
          "name": "F4",
          "ticks": 14592,
          "time": 35.625,
          "velocity": 0.6220472440944882
        },
        {
          "duration": 0.45654296875,
          "durationTicks": 187,
          "midi": 53,
          "name": "F3",
          "ticks": 14592,
          "time": 35.625,
          "velocity": 0.6850393700787402
        },
        {
          "duration": 0.22216796875,
          "durationTicks": 91,
          "midi": 61,
          "name": "C#4",
          "ticks": 14784,
          "time": 36.09375,
          "velocity": 0.6220472440944882
        },
        {
          "duration": 0.22216796875,
          "durationTicks": 91,
          "midi": 49,
          "name": "C#3",
          "ticks": 14784,
          "time": 36.09375,
          "velocity": 0.6850393700787402
        },
        {
          "duration": 0.22216796875,
          "durationTicks": 91,
          "midi": 63,
          "name": "D#4",
          "ticks": 14880,
          "time": 36.328125,
          "velocity": 0.6220472440944882
        },
        {
          "duration": 0.22216796875,
          "durationTicks": 91,
          "midi": 51,
          "name": "D#3",
          "ticks": 14880,
          "time": 36.328125,
          "velocity": 0.6850393700787402
        },
        {
          "duration": 0.45654296875,
          "durationTicks": 187,
          "midi": 77,
          "name": "F5",
          "ticks": 15360,
          "time": 37.5,
          "velocity": 0.6220472440944882
        },
        {
          "duration": 0.45654296875,
          "durationTicks": 187,
          "midi": 65,
          "name": "F4",
          "ticks": 15360,
          "time": 37.5,
          "velocity": 0.6850393700787402
        },
        {
          "duration": 0.45654296875,
          "durationTicks": 187,
          "midi": 56,
          "name": "G#3",
          "ticks": 15360,
          "time": 37.5,
          "velocity": 0.6850393700787402
        },
        {
          "duration": 0.45654296875,
          "durationTicks": 187,
          "midi": 53,
          "name": "F3",
          "ticks": 15360,
          "time": 37.5,
          "velocity": 0.6850393700787402
        },
        {
          "duration": 0.22216796875,
          "durationTicks": 91,
          "midi": 73,
          "name": "C#5",
          "ticks": 15552,
          "time": 37.96875,
          "velocity": 0.6377952755905512
        },
        {
          "duration": 0.22216796875,
          "durationTicks": 91,
          "midi": 61,
          "name": "C#4",
          "ticks": 15552,
          "time": 37.96875,
          "velocity": 0.5590551181102362
        },
        {
          "duration": 0.22216796875,
          "durationTicks": 91,
          "midi": 53,
          "name": "F3",
          "ticks": 15552,
          "time": 37.96875,
          "velocity": 0.6220472440944882
        },
        {
          "duration": 0.22216796875,
          "durationTicks": 91,
          "midi": 49,
          "name": "C#3",
          "ticks": 15552,
          "time": 37.96875,
          "velocity": 0.6220472440944882
        },
        {
          "duration": 0.33935546875,
          "durationTicks": 139,
          "midi": 75,
          "name": "D#5",
          "ticks": 15648,
          "time": 38.203125,
          "velocity": 0.6535433070866141
        },
        {
          "duration": 0.33935546875,
          "durationTicks": 139,
          "midi": 63,
          "name": "D#4",
          "ticks": 15648,
          "time": 38.203125,
          "velocity": 0.5669291338582677
        },
        {
          "duration": 0.33935546875,
          "durationTicks": 139,
          "midi": 54,
          "name": "F#3",
          "ticks": 15648,
          "time": 38.203125,
          "velocity": 0.6220472440944882
        },
        {
          "duration": 0.33935546875,
          "durationTicks": 139,
          "midi": 51,
          "name": "D#3",
          "ticks": 15648,
          "time": 38.203125,
          "velocity": 0.6220472440944882
        },
        {
          "duration": 0.45654296875,
          "durationTicks": 187,
          "midi": 65,
          "name": "F4",
          "ticks": 19200,
          "time": 46.875,
          "velocity": 0.6220472440944882
        },
        {
          "duration": 0.45654296875,
          "durationTicks": 187,
          "midi": 53,
          "name": "F3",
          "ticks": 19200,
          "time": 46.875,
          "velocity": 0.6850393700787402
        },
        {
          "duration": 0.22216796875,
          "durationTicks": 91,
          "midi": 61,
          "name": "C#4",
          "ticks": 19392,
          "time": 47.34375,
          "velocity": 0.6220472440944882
        },
        {
          "duration": 0.22216796875,
          "durationTicks": 91,
          "midi": 49,
          "name": "C#3",
          "ticks": 19392,
          "time": 47.34375,
          "velocity": 0.6850393700787402
        },
        {
          "duration": 0.22216796875,
          "durationTicks": 91,
          "midi": 63,
          "name": "D#4",
          "ticks": 19488,
          "time": 47.578125,
          "velocity": 0.6220472440944882
        },
        {
          "duration": 0.22216796875,
          "durationTicks": 91,
          "midi": 51,
          "name": "D#3",
          "ticks": 19488,
          "time": 47.578125,
          "velocity": 0.6850393700787402
        },
        {
          "duration": 0.45654296875,
          "durationTicks": 187,
          "midi": 77,
          "name": "F5",
          "ticks": 19968,
          "time": 48.75,
          "velocity": 0.6220472440944882
        },
        {
          "duration": 0.45654296875,
          "durationTicks": 187,
          "midi": 65,
          "name": "F4",
          "ticks": 19968,
          "time": 48.75,
          "velocity": 0.6850393700787402
        },
        {
          "duration": 0.45654296875,
          "durationTicks": 187,
          "midi": 56,
          "name": "G#3",
          "ticks": 19968,
          "time": 48.75,
          "velocity": 0.6850393700787402
        },
        {
          "duration": 0.45654296875,
          "durationTicks": 187,
          "midi": 53,
          "name": "F3",
          "ticks": 19968,
          "time": 48.75,
          "velocity": 0.6850393700787402
        },
        {
          "duration": 0.22216796875,
          "durationTicks": 91,
          "midi": 73,
          "name": "C#5",
          "ticks": 20160,
          "time": 49.21875,
          "velocity": 0.6377952755905512
        },
        {
          "duration": 0.22216796875,
          "durationTicks": 91,
          "midi": 61,
          "name": "C#4",
          "ticks": 20160,
          "time": 49.21875,
          "velocity": 0.5590551181102362
        },
        {
          "duration": 0.22216796875,
          "durationTicks": 91,
          "midi": 53,
          "name": "F3",
          "ticks": 20160,
          "time": 49.21875,
          "velocity": 0.6220472440944882
        },
        {
          "duration": 0.22216796875,
          "durationTicks": 91,
          "midi": 49,
          "name": "C#3",
          "ticks": 20160,
          "time": 49.21875,
          "velocity": 0.6220472440944882
        },
        {
          "duration": 0.33935546875,
          "durationTicks": 139,
          "midi": 75,
          "name": "D#5",
          "ticks": 20256,
          "time": 49.453125,
          "velocity": 0.6535433070866141
        },
        {
          "duration": 0.33935546875,
          "durationTicks": 139,
          "midi": 63,
          "name": "D#4",
          "ticks": 20256,
          "time": 49.453125,
          "velocity": 0.5669291338582677
        },
        {
          "duration": 0.33935546875,
          "durationTicks": 139,
          "midi": 54,
          "name": "F#3",
          "ticks": 20256,
          "time": 49.453125,
          "velocity": 0.6220472440944882
        },
        {
          "duration": 0.33935546875,
          "durationTicks": 139,
          "midi": 51,
          "name": "D#3",
          "ticks": 20256,
          "time": 49.453125,
          "velocity": 0.6220472440944882
        },
        {
          "duration": 0.45654296875,
          "durationTicks": 187,
          "midi": 65,
          "name": "F4",
          "ticks": 23808,
          "time": 58.125,
          "velocity": 0.6220472440944882
        },
        {
          "duration": 0.45654296875,
          "durationTicks": 187,
          "midi": 53,
          "name": "F3",
          "ticks": 23808,
          "time": 58.125,
          "velocity": 0.6850393700787402
        },
        {
          "duration": 0.22216796875,
          "durationTicks": 91,
          "midi": 61,
          "name": "C#4",
          "ticks": 24000,
          "time": 58.59375,
          "velocity": 0.6220472440944882
        },
        {
          "duration": 0.22216796875,
          "durationTicks": 91,
          "midi": 49,
          "name": "C#3",
          "ticks": 24000,
          "time": 58.59375,
          "velocity": 0.6850393700787402
        },
        {
          "duration": 0.22216796875,
          "durationTicks": 91,
          "midi": 63,
          "name": "D#4",
          "ticks": 24096,
          "time": 58.828125,
          "velocity": 0.6220472440944882
        },
        {
          "duration": 0.22216796875,
          "durationTicks": 91,
          "midi": 51,
          "name": "D#3",
          "ticks": 24096,
          "time": 58.828125,
          "velocity": 0.6850393700787402
        },
        {
          "duration": 0.4565429687500071,
          "durationTicks": 187,
          "midi": 77,
          "name": "F5",
          "ticks": 24576,
          "time": 60,
          "velocity": 0.6220472440944882
        },
        {
          "duration": 0.4565429687500071,
          "durationTicks": 187,
          "midi": 65,
          "name": "F4",
          "ticks": 24576,
          "time": 60,
          "velocity": 0.6850393700787402
        },
        {
          "duration": 0.4565429687500071,
          "durationTicks": 187,
          "midi": 56,
          "name": "G#3",
          "ticks": 24576,
          "time": 60,
          "velocity": 0.6850393700787402
        },
        {
          "duration": 0.4565429687500071,
          "durationTicks": 187,
          "midi": 53,
          "name": "F3",
          "ticks": 24576,
          "time": 60,
          "velocity": 0.6850393700787402
        },
        {
          "duration": 0.2221679687500071,
          "durationTicks": 91,
          "midi": 73,
          "name": "C#5",
          "ticks": 24768,
          "time": 60.46875,
          "velocity": 0.6377952755905512
        },
        {
          "duration": 0.2221679687500071,
          "durationTicks": 91,
          "midi": 61,
          "name": "C#4",
          "ticks": 24768,
          "time": 60.46875,
          "velocity": 0.5590551181102362
        },
        {
          "duration": 0.2221679687500071,
          "durationTicks": 91,
          "midi": 53,
          "name": "F3",
          "ticks": 24768,
          "time": 60.46875,
          "velocity": 0.6220472440944882
        },
        {
          "duration": 0.2221679687500071,
          "durationTicks": 91,
          "midi": 49,
          "name": "C#3",
          "ticks": 24768,
          "time": 60.46875,
          "velocity": 0.6220472440944882
        },
        {
          "duration": 0.3393554687500071,
          "durationTicks": 139,
          "midi": 75,
          "name": "D#5",
          "ticks": 24864,
          "time": 60.703125,
          "velocity": 0.6535433070866141
        },
        {
          "duration": 0.3393554687500071,
          "durationTicks": 139,
          "midi": 63,
          "name": "D#4",
          "ticks": 24864,
          "time": 60.703125,
          "velocity": 0.5669291338582677
        },
        {
          "duration": 0.34423828125,
          "durationTicks": 141,
          "midi": 54,
          "name": "F#3",
          "ticks": 24864,
          "time": 60.703125,
          "velocity": 0.6220472440944882
        },
        {
          "duration": 0.3393554687500071,
          "durationTicks": 139,
          "midi": 51,
          "name": "D#3",
          "ticks": 24864,
          "time": 60.703125,
          "velocity": 0.6220472440944882
        },
        {
          "duration": 0.45654296875,
          "durationTicks": 187,
          "midi": 65,
          "name": "F4",
          "ticks": 40320,
          "time": 98.4375,
          "velocity": 0.6220472440944882
        },
        {
          "duration": 0.45654296875,
          "durationTicks": 187,
          "midi": 53,
          "name": "F3",
          "ticks": 40320,
          "time": 98.4375,
          "velocity": 0.6850393700787402
        },
        {
          "duration": 0.22216796875,
          "durationTicks": 91,
          "midi": 61,
          "name": "C#4",
          "ticks": 40512,
          "time": 98.90625,
          "velocity": 0.6220472440944882
        },
        {
          "duration": 0.22216796875,
          "durationTicks": 91,
          "midi": 49,
          "name": "C#3",
          "ticks": 40512,
          "time": 98.90625,
          "velocity": 0.6850393700787402
        },
        {
          "duration": 0.22216796875,
          "durationTicks": 91,
          "midi": 63,
          "name": "D#4",
          "ticks": 40608,
          "time": 99.140625,
          "velocity": 0.6220472440944882
        },
        {
          "duration": 0.22216796875,
          "durationTicks": 91,
          "midi": 51,
          "name": "D#3",
          "ticks": 40608,
          "time": 99.140625,
          "velocity": 0.6850393700787402
        },
        {
          "duration": 0.45654296875,
          "durationTicks": 187,
          "midi": 77,
          "name": "F5",
          "ticks": 41088,
          "time": 100.3125,
          "velocity": 0.6220472440944882
        },
        {
          "duration": 0.45654296875,
          "durationTicks": 187,
          "midi": 65,
          "name": "F4",
          "ticks": 41088,
          "time": 100.3125,
          "velocity": 0.6850393700787402
        },
        {
          "duration": 0.45654296875,
          "durationTicks": 187,
          "midi": 56,
          "name": "G#3",
          "ticks": 41088,
          "time": 100.3125,
          "velocity": 0.6850393700787402
        },
        {
          "duration": 0.45654296875,
          "durationTicks": 187,
          "midi": 53,
          "name": "F3",
          "ticks": 41088,
          "time": 100.3125,
          "velocity": 0.6850393700787402
        },
        {
          "duration": 0.22216796875,
          "durationTicks": 91,
          "midi": 73,
          "name": "C#5",
          "ticks": 41280,
          "time": 100.78125,
          "velocity": 0.6377952755905512
        },
        {
          "duration": 0.22216796875,
          "durationTicks": 91,
          "midi": 61,
          "name": "C#4",
          "ticks": 41280,
          "time": 100.78125,
          "velocity": 0.5590551181102362
        },
        {
          "duration": 0.22216796875,
          "durationTicks": 91,
          "midi": 53,
          "name": "F3",
          "ticks": 41280,
          "time": 100.78125,
          "velocity": 0.6220472440944882
        },
        {
          "duration": 0.22216796875,
          "durationTicks": 91,
          "midi": 49,
          "name": "C#3",
          "ticks": 41280,
          "time": 100.78125,
          "velocity": 0.6220472440944882
        },
        {
          "duration": 0.33935546875,
          "durationTicks": 139,
          "midi": 75,
          "name": "D#5",
          "ticks": 41376,
          "time": 101.015625,
          "velocity": 0.6535433070866141
        },
        {
          "duration": 0.33935546875,
          "durationTicks": 139,
          "midi": 63,
          "name": "D#4",
          "ticks": 41376,
          "time": 101.015625,
          "velocity": 0.5669291338582677
        },
        {
          "duration": 0.33935546875,
          "durationTicks": 139,
          "midi": 54,
          "name": "F#3",
          "ticks": 41376,
          "time": 101.015625,
          "velocity": 0.6220472440944882
        },
        {
          "duration": 0.33935546875,
          "durationTicks": 139,
          "midi": 51,
          "name": "D#3",
          "ticks": 41376,
          "time": 101.015625,
          "velocity": 0.6220472440944882
        },
        {
          "duration": 0.4150390625,
          "durationTicks": 170,
          "midi": 65,
          "name": "F4",
          "ticks": 44928,
          "time": 109.6875,
          "velocity": 0.6220472440944882
        },
        {
          "duration": 0.44189453125,
          "durationTicks": 181,
          "midi": 53,
          "name": "F3",
          "ticks": 44928,
          "time": 109.6875,
          "velocity": 0.6850393700787402
        },
        {
          "duration": 0.234375,
          "durationTicks": 96,
          "midi": 61,
          "name": "C#4",
          "ticks": 45120,
          "time": 110.15625,
          "velocity": 0.6220472440944882
        },
        {
          "duration": 0.234375,
          "durationTicks": 96,
          "midi": 49,
          "name": "C#3",
          "ticks": 45120,
          "time": 110.15625,
          "velocity": 0.6850393700787402
        },
        {
          "duration": 0.234375,
          "durationTicks": 96,
          "midi": 63,
          "name": "D#4",
          "ticks": 45216,
          "time": 110.390625,
          "velocity": 0.6220472440944882
        },
        {
          "duration": 0.283203125,
          "durationTicks": 116,
          "midi": 51,
          "name": "D#3",
          "ticks": 45216,
          "time": 110.390625,
          "velocity": 0.6850393700787402
        },
        {
          "duration": 0.4638671875,
          "durationTicks": 190,
          "midi": 77,
          "name": "F5",
          "ticks": 45696,
          "time": 111.5625,
          "velocity": 0.6220472440944882
        },
        {
          "duration": 0.4443359375,
          "durationTicks": 182,
          "midi": 65,
          "name": "F4",
          "ticks": 45696,
          "time": 111.5625,
          "velocity": 0.6850393700787402
        },
        {
          "duration": 0.4296875,
          "durationTicks": 176,
          "midi": 56,
          "name": "G#3",
          "ticks": 45696,
          "time": 111.5625,
          "velocity": 0.6850393700787402
        },
        {
          "duration": 0.4345703125,
          "durationTicks": 178,
          "midi": 53,
          "name": "F3",
          "ticks": 45696,
          "time": 111.5625,
          "velocity": 0.6850393700787402
        },
        {
          "duration": 0.234375,
          "durationTicks": 96,
          "midi": 73,
          "name": "C#5",
          "ticks": 45888,
          "time": 112.03125,
          "velocity": 0.6377952755905512
        },
        {
          "duration": 0.234375,
          "durationTicks": 96,
          "midi": 61,
          "name": "C#4",
          "ticks": 45888,
          "time": 112.03125,
          "velocity": 0.5590551181102362
        },
        {
          "duration": 0.234375,
          "durationTicks": 96,
          "midi": 53,
          "name": "F3",
          "ticks": 45888,
          "time": 112.03125,
          "velocity": 0.6220472440944882
        },
        {
          "duration": 0.22216796875,
          "durationTicks": 91,
          "midi": 49,
          "name": "C#3",
          "ticks": 45888,
          "time": 112.03125,
          "velocity": 0.6220472440944882
        },
        {
          "duration": 0.33447265625,
          "durationTicks": 137,
          "midi": 75,
          "name": "D#5",
          "ticks": 45984,
          "time": 112.265625,
          "velocity": 0.6535433070866141
        },
        {
          "duration": 0.31982421875,
          "durationTicks": 131,
          "midi": 63,
          "name": "D#4",
          "ticks": 45984,
          "time": 112.265625,
          "velocity": 0.5669291338582677
        },
        {
          "duration": 0.27099609375,
          "durationTicks": 111,
          "midi": 54,
          "name": "F#3",
          "ticks": 45984,
          "time": 112.265625,
          "velocity": 0.6220472440944882
        },
        {
          "duration": 0.302734375,
          "durationTicks": 124,
          "midi": 51,
          "name": "D#3",
          "ticks": 45984,
          "time": 112.265625,
          "velocity": 0.6220472440944882
        },
        {
          "duration": 0.4150390625,
          "durationTicks": 170,
          "midi": 65,
          "name": "F4",
          "ticks": 56832,
          "time": 138.75,
          "velocity": 0.6220472440944882
        },
        {
          "duration": 0.44189453125,
          "durationTicks": 181,
          "midi": 53,
          "name": "F3",
          "ticks": 56832,
          "time": 138.75,
          "velocity": 0.6850393700787402
        },
        {
          "duration": 0.234375,
          "durationTicks": 96,
          "midi": 61,
          "name": "C#4",
          "ticks": 57024,
          "time": 139.21875,
          "velocity": 0.6220472440944882
        },
        {
          "duration": 0.234375,
          "durationTicks": 96,
          "midi": 49,
          "name": "C#3",
          "ticks": 57024,
          "time": 139.21875,
          "velocity": 0.6850393700787402
        },
        {
          "duration": 0.234375,
          "durationTicks": 96,
          "midi": 63,
          "name": "D#4",
          "ticks": 57120,
          "time": 139.453125,
          "velocity": 0.6220472440944882
        },
        {
          "duration": 0.283203125,
          "durationTicks": 116,
          "midi": 51,
          "name": "D#3",
          "ticks": 57120,
          "time": 139.453125,
          "velocity": 0.6850393700787402
        },
        {
          "duration": 0.4638671875,
          "durationTicks": 190,
          "midi": 77,
          "name": "F5",
          "ticks": 57600,
          "time": 140.625,
          "velocity": 0.6220472440944882
        },
        {
          "duration": 0.4443359375,
          "durationTicks": 182,
          "midi": 65,
          "name": "F4",
          "ticks": 57600,
          "time": 140.625,
          "velocity": 0.6850393700787402
        },
        {
          "duration": 0.4296875,
          "durationTicks": 176,
          "midi": 56,
          "name": "G#3",
          "ticks": 57600,
          "time": 140.625,
          "velocity": 0.6850393700787402
        },
        {
          "duration": 0.4345703125,
          "durationTicks": 178,
          "midi": 53,
          "name": "F3",
          "ticks": 57600,
          "time": 140.625,
          "velocity": 0.6850393700787402
        },
        {
          "duration": 0.234375,
          "durationTicks": 96,
          "midi": 73,
          "name": "C#5",
          "ticks": 57792,
          "time": 141.09375,
          "velocity": 0.6377952755905512
        },
        {
          "duration": 0.234375,
          "durationTicks": 96,
          "midi": 61,
          "name": "C#4",
          "ticks": 57792,
          "time": 141.09375,
          "velocity": 0.5590551181102362
        },
        {
          "duration": 0.234375,
          "durationTicks": 96,
          "midi": 53,
          "name": "F3",
          "ticks": 57792,
          "time": 141.09375,
          "velocity": 0.6220472440944882
        },
        {
          "duration": 0.22216796875,
          "durationTicks": 91,
          "midi": 49,
          "name": "C#3",
          "ticks": 57792,
          "time": 141.09375,
          "velocity": 0.6220472440944882
        },
        {
          "duration": 0.33447265625,
          "durationTicks": 137,
          "midi": 75,
          "name": "D#5",
          "ticks": 57888,
          "time": 141.328125,
          "velocity": 0.6535433070866141
        },
        {
          "duration": 0.31982421875,
          "durationTicks": 131,
          "midi": 63,
          "name": "D#4",
          "ticks": 57888,
          "time": 141.328125,
          "velocity": 0.5669291338582677
        },
        {
          "duration": 0.27099609375,
          "durationTicks": 111,
          "midi": 54,
          "name": "F#3",
          "ticks": 57888,
          "time": 141.328125,
          "velocity": 0.6220472440944882
        },
        {
          "duration": 0.302734375,
          "durationTicks": 124,
          "midi": 51,
          "name": "D#3",
          "ticks": 57888,
          "time": 141.328125,
          "velocity": 0.6220472440944882
        },
        {
          "duration": 0.1171875,
          "durationTicks": 48,
          "midi": 63,
          "name": "D#4",
          "ticks": 61248,
          "time": 149.53125,
          "velocity": 0.7559055118110236
        },
        {
          "duration": 0.1171875,
          "durationTicks": 48,
          "midi": 59,
          "name": "B3",
          "ticks": 61248,
          "time": 149.53125,
          "velocity": 0.5984251968503937
        },
        {
          "duration": 0.1171875,
          "durationTicks": 48,
          "midi": 65,
          "name": "F4",
          "ticks": 61296,
          "time": 149.6484375,
          "velocity": 0.6850393700787402
        },
        {
          "duration": 0.1171875,
          "durationTicks": 48,
          "midi": 61,
          "name": "C#4",
          "ticks": 61296,
          "time": 149.6484375,
          "velocity": 0.5275590551181102
        },
        {
          "duration": 0.1171875,
          "durationTicks": 48,
          "midi": 66,
          "name": "F#4",
          "ticks": 61344,
          "time": 149.765625,
          "velocity": 0.7322834645669292
        },
        {
          "duration": 0.1171875,
          "durationTicks": 48,
          "midi": 63,
          "name": "D#4",
          "ticks": 61344,
          "time": 149.765625,
          "velocity": 0.5748031496062992
        },
        {
          "duration": 0.1171875,
          "durationTicks": 48,
          "midi": 71,
          "name": "B4",
          "ticks": 61392,
          "time": 149.8828125,
          "velocity": 0.6850393700787402
        },
        {
          "duration": 0.1171875,
          "durationTicks": 48,
          "midi": 68,
          "name": "G#4",
          "ticks": 61392,
          "time": 149.8828125,
          "velocity": 0.5275590551181102
        },
        {
          "duration": 0.79833984375,
          "durationTicks": 327,
          "midi": 70,
          "name": "A#4",
          "ticks": 61440,
          "time": 150,
          "velocity": 0.7007874015748031
        },
        {
          "duration": 0.79833984375,
          "durationTicks": 327,
          "midi": 66,
          "name": "F#4",
          "ticks": 61440,
          "time": 150,
          "velocity": 0.5433070866141733
        },
        {
          "duration": 0.46875,
          "durationTicks": 192,
          "midi": 70,
          "name": "A#4",
          "ticks": 61824,
          "time": 150.9375,
          "velocity": 0.7322834645669292
        },
        {
          "duration": 0.46875,
          "durationTicks": 192,
          "midi": 66,
          "name": "F#4",
          "ticks": 61824,
          "time": 150.9375,
          "velocity": 0.5748031496062992
        },
        {
          "duration": 0.41259765625,
          "durationTicks": 169,
          "midi": 75,
          "name": "D#5",
          "ticks": 62016,
          "time": 151.40625,
          "velocity": 0.7007874015748031
        },
        {
          "duration": 0.41259765625,
          "durationTicks": 169,
          "midi": 70,
          "name": "A#4",
          "ticks": 62016,
          "time": 151.40625,
          "velocity": 0.5433070866141733
        },
        {
          "duration": 1.318359375,
          "durationTicks": 540,
          "midi": 73,
          "name": "C#5",
          "ticks": 62208,
          "time": 151.875,
          "velocity": 0.6456692913385826
        },
        {
          "duration": 1.318359375,
          "durationTicks": 540,
          "midi": 68,
          "name": "G#4",
          "ticks": 62208,
          "time": 151.875,
          "velocity": 0.4881889763779528
        },
        {
          "duration": 0.4296875,
          "durationTicks": 176,
          "midi": 68,
          "name": "G#4",
          "ticks": 62784,
          "time": 153.28125,
          "velocity": 0.7165354330708661
        },
        {
          "duration": 0.4296875,
          "durationTicks": 176,
          "midi": 65,
          "name": "F4",
          "ticks": 62784,
          "time": 153.28125,
          "velocity": 0.5590551181102362
        },
        {
          "duration": 0.45654296875,
          "durationTicks": 187,
          "midi": 70,
          "name": "A#4",
          "ticks": 62976,
          "time": 153.75,
          "velocity": 0.7007874015748031
        },
        {
          "duration": 0.45654296875,
          "durationTicks": 187,
          "midi": 66,
          "name": "F#4",
          "ticks": 62976,
          "time": 153.75,
          "velocity": 0.5433070866141733
        },
        {
          "duration": 0.4638671875,
          "durationTicks": 190,
          "midi": 68,
          "name": "G#4",
          "ticks": 63168,
          "time": 154.21875,
          "velocity": 0.6771653543307087
        },
        {
          "duration": 0.4638671875,
          "durationTicks": 190,
          "midi": 65,
          "name": "F4",
          "ticks": 63168,
          "time": 154.21875,
          "velocity": 0.5196850393700787
        },
        {
          "duration": 0.4736328125,
          "durationTicks": 194,
          "midi": 66,
          "name": "F#4",
          "ticks": 63360,
          "time": 154.6875,
          "velocity": 0.6456692913385826
        },
        {
          "duration": 0.4736328125,
          "durationTicks": 194,
          "midi": 63,
          "name": "D#4",
          "ticks": 63360,
          "time": 154.6875,
          "velocity": 0.4881889763779528
        },
        {
          "duration": 0.1171875,
          "durationTicks": 48,
          "midi": 70,
          "name": "A#4",
          "ticks": 63552,
          "time": 155.15625,
          "velocity": 0.6929133858267716
        },
        {
          "duration": 0.1171875,
          "durationTicks": 48,
          "midi": 66,
          "name": "F#4",
          "ticks": 63552,
          "time": 155.15625,
          "velocity": 0.5354330708661418
        },
        {
          "duration": 0.1171875,
          "durationTicks": 48,
          "midi": 68,
          "name": "G#4",
          "ticks": 63600,
          "time": 155.2734375,
          "velocity": 0.6535433070866141
        },
        {
          "duration": 0.1171875,
          "durationTicks": 48,
          "midi": 65,
          "name": "F4",
          "ticks": 63600,
          "time": 155.2734375,
          "velocity": 0.49606299212598426
        },
        {
          "duration": 0.1171875,
          "durationTicks": 48,
          "midi": 66,
          "name": "F#4",
          "ticks": 63648,
          "time": 155.390625,
          "velocity": 0.6771653543307087
        },
        {
          "duration": 0.1171875,
          "durationTicks": 48,
          "midi": 63,
          "name": "D#4",
          "ticks": 63648,
          "time": 155.390625,
          "velocity": 0.5196850393700787
        },
        {
          "duration": 0.1171875,
          "durationTicks": 48,
          "midi": 70,
          "name": "A#4",
          "ticks": 63696,
          "time": 155.5078125,
          "velocity": 0.6456692913385826
        },
        {
          "duration": 0.1171875,
          "durationTicks": 48,
          "midi": 66,
          "name": "F#4",
          "ticks": 63696,
          "time": 155.5078125,
          "velocity": 0.4881889763779528
        },
        {
          "duration": 0.41259765625,
          "durationTicks": 169,
          "midi": 71,
          "name": "B4",
          "ticks": 63744,
          "time": 155.625,
          "velocity": 0.6614173228346457
        },
        {
          "duration": 0.41259765625,
          "durationTicks": 169,
          "midi": 66,
          "name": "F#4",
          "ticks": 63744,
          "time": 155.625,
          "velocity": 0.5039370078740157
        },
        {
          "duration": 0.46875,
          "durationTicks": 192,
          "midi": 75,
          "name": "D#5",
          "ticks": 63936,
          "time": 156.09375,
          "velocity": 0.6850393700787402
        },
        {
          "duration": 0.46875,
          "durationTicks": 192,
          "midi": 71,
          "name": "B4",
          "ticks": 63936,
          "time": 156.09375,
          "velocity": 0.5275590551181102
        },
        {
          "duration": 0.830078125,
          "durationTicks": 340,
          "midi": 74,
          "name": "D5",
          "ticks": 64128,
          "time": 156.5625,
          "velocity": 0.6456692913385826
        },
        {
          "duration": 0.830078125,
          "durationTicks": 340,
          "midi": 70,
          "name": "A#4",
          "ticks": 64128,
          "time": 156.5625,
          "velocity": 0.4881889763779528
        },
        {
          "duration": 0.4150390625,
          "durationTicks": 170,
          "midi": 65,
          "name": "F4",
          "ticks": 67584,
          "time": 165,
          "velocity": 0.6220472440944882
        },
        {
          "duration": 0.44189453125,
          "durationTicks": 181,
          "midi": 53,
          "name": "F3",
          "ticks": 67584,
          "time": 165,
          "velocity": 0.6850393700787402
        },
        {
          "duration": 0.234375,
          "durationTicks": 96,
          "midi": 61,
          "name": "C#4",
          "ticks": 67776,
          "time": 165.46875,
          "velocity": 0.6220472440944882
        },
        {
          "duration": 0.234375,
          "durationTicks": 96,
          "midi": 49,
          "name": "C#3",
          "ticks": 67776,
          "time": 165.46875,
          "velocity": 0.6850393700787402
        },
        {
          "duration": 0.234375,
          "durationTicks": 96,
          "midi": 63,
          "name": "D#4",
          "ticks": 67872,
          "time": 165.703125,
          "velocity": 0.6220472440944882
        },
        {
          "duration": 0.283203125,
          "durationTicks": 116,
          "midi": 51,
          "name": "D#3",
          "ticks": 67872,
          "time": 165.703125,
          "velocity": 0.6850393700787402
        },
        {
          "duration": 0.4638671875,
          "durationTicks": 190,
          "midi": 77,
          "name": "F5",
          "ticks": 68352,
          "time": 166.875,
          "velocity": 0.6220472440944882
        },
        {
          "duration": 0.4443359375,
          "durationTicks": 182,
          "midi": 65,
          "name": "F4",
          "ticks": 68352,
          "time": 166.875,
          "velocity": 0.6850393700787402
        },
        {
          "duration": 0.4296875,
          "durationTicks": 176,
          "midi": 56,
          "name": "G#3",
          "ticks": 68352,
          "time": 166.875,
          "velocity": 0.6850393700787402
        },
        {
          "duration": 0.4345703125,
          "durationTicks": 178,
          "midi": 53,
          "name": "F3",
          "ticks": 68352,
          "time": 166.875,
          "velocity": 0.6850393700787402
        },
        {
          "duration": 0.234375,
          "durationTicks": 96,
          "midi": 73,
          "name": "C#5",
          "ticks": 68544,
          "time": 167.34375,
          "velocity": 0.6377952755905512
        },
        {
          "duration": 0.234375,
          "durationTicks": 96,
          "midi": 61,
          "name": "C#4",
          "ticks": 68544,
          "time": 167.34375,
          "velocity": 0.5590551181102362
        },
        {
          "duration": 0.234375,
          "durationTicks": 96,
          "midi": 53,
          "name": "F3",
          "ticks": 68544,
          "time": 167.34375,
          "velocity": 0.6220472440944882
        },
        {
          "duration": 0.22216796875,
          "durationTicks": 91,
          "midi": 49,
          "name": "C#3",
          "ticks": 68544,
          "time": 167.34375,
          "velocity": 0.6220472440944882
        },
        {
          "duration": 0.33447265625,
          "durationTicks": 137,
          "midi": 75,
          "name": "D#5",
          "ticks": 68640,
          "time": 167.578125,
          "velocity": 0.6535433070866141
        },
        {
          "duration": 0.31982421875,
          "durationTicks": 131,
          "midi": 63,
          "name": "D#4",
          "ticks": 68640,
          "time": 167.578125,
          "velocity": 0.5669291338582677
        },
        {
          "duration": 0.27099609375,
          "durationTicks": 111,
          "midi": 54,
          "name": "F#3",
          "ticks": 68640,
          "time": 167.578125,
          "velocity": 0.6220472440944882
        },
        {
          "duration": 0.302734375,
          "durationTicks": 124,
          "midi": 51,
          "name": "D#3",
          "ticks": 68640,
          "time": 167.578125,
          "velocity": 0.6220472440944882
        },
        {
          "duration": 0.4150390625,
          "durationTicks": 170,
          "midi": 65,
          "name": "F4",
          "ticks": 82944,
          "time": 202.5,
          "velocity": 0.6220472440944882
        },
        {
          "duration": 0.44189453125,
          "durationTicks": 181,
          "midi": 53,
          "name": "F3",
          "ticks": 82944,
          "time": 202.5,
          "velocity": 0.6850393700787402
        },
        {
          "duration": 0.234375,
          "durationTicks": 96,
          "midi": 61,
          "name": "C#4",
          "ticks": 83136,
          "time": 202.96875,
          "velocity": 0.6220472440944882
        },
        {
          "duration": 0.234375,
          "durationTicks": 96,
          "midi": 49,
          "name": "C#3",
          "ticks": 83136,
          "time": 202.96875,
          "velocity": 0.6850393700787402
        },
        {
          "duration": 0.234375,
          "durationTicks": 96,
          "midi": 63,
          "name": "D#4",
          "ticks": 83232,
          "time": 203.203125,
          "velocity": 0.6220472440944882
        },
        {
          "duration": 0.283203125,
          "durationTicks": 116,
          "midi": 51,
          "name": "D#3",
          "ticks": 83232,
          "time": 203.203125,
          "velocity": 0.6850393700787402
        },
        {
          "duration": 0.4638671875,
          "durationTicks": 190,
          "midi": 77,
          "name": "F5",
          "ticks": 83712,
          "time": 204.375,
          "velocity": 0.6220472440944882
        },
        {
          "duration": 0.4443359375,
          "durationTicks": 182,
          "midi": 65,
          "name": "F4",
          "ticks": 83712,
          "time": 204.375,
          "velocity": 0.6850393700787402
        },
        {
          "duration": 0.4296875,
          "durationTicks": 176,
          "midi": 56,
          "name": "G#3",
          "ticks": 83712,
          "time": 204.375,
          "velocity": 0.6850393700787402
        },
        {
          "duration": 0.4345703125,
          "durationTicks": 178,
          "midi": 53,
          "name": "F3",
          "ticks": 83712,
          "time": 204.375,
          "velocity": 0.6850393700787402
        },
        {
          "duration": 0.234375,
          "durationTicks": 96,
          "midi": 73,
          "name": "C#5",
          "ticks": 83904,
          "time": 204.84375,
          "velocity": 0.6377952755905512
        },
        {
          "duration": 0.234375,
          "durationTicks": 96,
          "midi": 61,
          "name": "C#4",
          "ticks": 83904,
          "time": 204.84375,
          "velocity": 0.5590551181102362
        },
        {
          "duration": 0.234375,
          "durationTicks": 96,
          "midi": 53,
          "name": "F3",
          "ticks": 83904,
          "time": 204.84375,
          "velocity": 0.6220472440944882
        },
        {
          "duration": 0.22216796875,
          "durationTicks": 91,
          "midi": 49,
          "name": "C#3",
          "ticks": 83904,
          "time": 204.84375,
          "velocity": 0.6220472440944882
        },
        {
          "duration": 0.33447265625,
          "durationTicks": 137,
          "midi": 75,
          "name": "D#5",
          "ticks": 84000,
          "time": 205.078125,
          "velocity": 0.6535433070866141
        },
        {
          "duration": 0.31982421875,
          "durationTicks": 131,
          "midi": 63,
          "name": "D#4",
          "ticks": 84000,
          "time": 205.078125,
          "velocity": 0.5669291338582677
        },
        {
          "duration": 0.27099609375,
          "durationTicks": 111,
          "midi": 54,
          "name": "F#3",
          "ticks": 84000,
          "time": 205.078125,
          "velocity": 0.6220472440944882
        },
        {
          "duration": 0.302734375,
          "durationTicks": 124,
          "midi": 51,
          "name": "D#3",
          "ticks": 84000,
          "time": 205.078125,
          "velocity": 0.6220472440944882
        },
        {
          "duration": 0.4150390625,
          "durationTicks": 170,
          "midi": 65,
          "name": "F4",
          "ticks": 87552,
          "time": 213.75,
          "velocity": 0.6220472440944882
        },
        {
          "duration": 0.44189453125,
          "durationTicks": 181,
          "midi": 53,
          "name": "F3",
          "ticks": 87552,
          "time": 213.75,
          "velocity": 0.6850393700787402
        },
        {
          "duration": 0.234375,
          "durationTicks": 96,
          "midi": 61,
          "name": "C#4",
          "ticks": 87744,
          "time": 214.21875,
          "velocity": 0.6220472440944882
        },
        {
          "duration": 0.234375,
          "durationTicks": 96,
          "midi": 49,
          "name": "C#3",
          "ticks": 87744,
          "time": 214.21875,
          "velocity": 0.6850393700787402
        },
        {
          "duration": 0.234375,
          "durationTicks": 96,
          "midi": 63,
          "name": "D#4",
          "ticks": 87840,
          "time": 214.453125,
          "velocity": 0.6220472440944882
        },
        {
          "duration": 0.283203125,
          "durationTicks": 116,
          "midi": 51,
          "name": "D#3",
          "ticks": 87840,
          "time": 214.453125,
          "velocity": 0.6850393700787402
        },
        {
          "duration": 0.4638671875,
          "durationTicks": 190,
          "midi": 77,
          "name": "F5",
          "ticks": 88320,
          "time": 215.625,
          "velocity": 0.6220472440944882
        },
        {
          "duration": 0.4443359375,
          "durationTicks": 182,
          "midi": 65,
          "name": "F4",
          "ticks": 88320,
          "time": 215.625,
          "velocity": 0.6850393700787402
        },
        {
          "duration": 0.4296875,
          "durationTicks": 176,
          "midi": 56,
          "name": "G#3",
          "ticks": 88320,
          "time": 215.625,
          "velocity": 0.6850393700787402
        },
        {
          "duration": 0.4345703125,
          "durationTicks": 178,
          "midi": 53,
          "name": "F3",
          "ticks": 88320,
          "time": 215.625,
          "velocity": 0.6850393700787402
        },
        {
          "duration": 0.234375,
          "durationTicks": 96,
          "midi": 73,
          "name": "C#5",
          "ticks": 88512,
          "time": 216.09375,
          "velocity": 0.6377952755905512
        },
        {
          "duration": 0.234375,
          "durationTicks": 96,
          "midi": 61,
          "name": "C#4",
          "ticks": 88512,
          "time": 216.09375,
          "velocity": 0.5590551181102362
        },
        {
          "duration": 0.234375,
          "durationTicks": 96,
          "midi": 53,
          "name": "F3",
          "ticks": 88512,
          "time": 216.09375,
          "velocity": 0.6220472440944882
        },
        {
          "duration": 0.22216796875,
          "durationTicks": 91,
          "midi": 49,
          "name": "C#3",
          "ticks": 88512,
          "time": 216.09375,
          "velocity": 0.6220472440944882
        },
        {
          "duration": 0.33447265625,
          "durationTicks": 137,
          "midi": 75,
          "name": "D#5",
          "ticks": 88608,
          "time": 216.328125,
          "velocity": 0.6535433070866141
        },
        {
          "duration": 0.31982421875,
          "durationTicks": 131,
          "midi": 63,
          "name": "D#4",
          "ticks": 88608,
          "time": 216.328125,
          "velocity": 0.5669291338582677
        },
        {
          "duration": 0.27099609375,
          "durationTicks": 111,
          "midi": 54,
          "name": "F#3",
          "ticks": 88608,
          "time": 216.328125,
          "velocity": 0.6220472440944882
        },
        {
          "duration": 0.302734375,
          "durationTicks": 124,
          "midi": 51,
          "name": "D#3",
          "ticks": 88608,
          "time": 216.328125,
          "velocity": 0.6220472440944882
        },
        {
          "duration": 0.4150390624999716,
          "durationTicks": 170,
          "midi": 65,
          "name": "F4",
          "ticks": 99456,
          "time": 242.8125,
          "velocity": 0.6220472440944882
        },
        {
          "duration": 0.4418945312500284,
          "durationTicks": 181,
          "midi": 53,
          "name": "F3",
          "ticks": 99456,
          "time": 242.8125,
          "velocity": 0.6850393700787402
        },
        {
          "duration": 0.234375,
          "durationTicks": 96,
          "midi": 61,
          "name": "C#4",
          "ticks": 99648,
          "time": 243.28125,
          "velocity": 0.6220472440944882
        },
        {
          "duration": 0.234375,
          "durationTicks": 96,
          "midi": 49,
          "name": "C#3",
          "ticks": 99648,
          "time": 243.28125,
          "velocity": 0.6850393700787402
        },
        {
          "duration": 0.234375,
          "durationTicks": 96,
          "midi": 63,
          "name": "D#4",
          "ticks": 99744,
          "time": 243.515625,
          "velocity": 0.6220472440944882
        },
        {
          "duration": 0.2832031249999716,
          "durationTicks": 116,
          "midi": 51,
          "name": "D#3",
          "ticks": 99744,
          "time": 243.515625,
          "velocity": 0.6850393700787402
        },
        {
          "duration": 0.4638671875000284,
          "durationTicks": 190,
          "midi": 77,
          "name": "F5",
          "ticks": 100224,
          "time": 244.6875,
          "velocity": 0.6220472440944882
        },
        {
          "duration": 0.4443359374999716,
          "durationTicks": 182,
          "midi": 65,
          "name": "F4",
          "ticks": 100224,
          "time": 244.6875,
          "velocity": 0.6850393700787402
        },
        {
          "duration": 0.4296874999999716,
          "durationTicks": 176,
          "midi": 56,
          "name": "G#3",
          "ticks": 100224,
          "time": 244.6875,
          "velocity": 0.6850393700787402
        },
        {
          "duration": 0.4345703125000284,
          "durationTicks": 178,
          "midi": 53,
          "name": "F3",
          "ticks": 100224,
          "time": 244.6875,
          "velocity": 0.6850393700787402
        },
        {
          "duration": 0.234375,
          "durationTicks": 96,
          "midi": 73,
          "name": "C#5",
          "ticks": 100416,
          "time": 245.15625,
          "velocity": 0.6377952755905512
        },
        {
          "duration": 0.234375,
          "durationTicks": 96,
          "midi": 61,
          "name": "C#4",
          "ticks": 100416,
          "time": 245.15625,
          "velocity": 0.5590551181102362
        },
        {
          "duration": 0.234375,
          "durationTicks": 96,
          "midi": 53,
          "name": "F3",
          "ticks": 100416,
          "time": 245.15625,
          "velocity": 0.6220472440944882
        },
        {
          "duration": 0.22216796875002842,
          "durationTicks": 91,
          "midi": 49,
          "name": "C#3",
          "ticks": 100416,
          "time": 245.15625,
          "velocity": 0.6220472440944882
        },
        {
          "duration": 0.3344726562499716,
          "durationTicks": 137,
          "midi": 75,
          "name": "D#5",
          "ticks": 100512,
          "time": 245.390625,
          "velocity": 0.6535433070866141
        },
        {
          "duration": 0.3198242187499716,
          "durationTicks": 131,
          "midi": 63,
          "name": "D#4",
          "ticks": 100512,
          "time": 245.390625,
          "velocity": 0.5669291338582677
        },
        {
          "duration": 0.27099609375,
          "durationTicks": 111,
          "midi": 54,
          "name": "F#3",
          "ticks": 100512,
          "time": 245.390625,
          "velocity": 0.6220472440944882
        },
        {
          "duration": 0.3027343750000284,
          "durationTicks": 124,
          "midi": 51,
          "name": "D#3",
          "ticks": 100512,
          "time": 245.390625,
          "velocity": 0.6220472440944882
        },
        {
          "duration": 0.1123046875,
          "durationTicks": 46,
          "midi": 54,
          "name": "F#3",
          "ticks": 108768,
          "time": 265.546875,
          "velocity": 0.7322834645669292
        },
        {
          "duration": 0.12939453125,
          "durationTicks": 53,
          "midi": 54,
          "name": "F#3",
          "ticks": 108864,
          "time": 265.78125,
          "velocity": 0.6771653543307087
        },
        {
          "duration": 0.17333984375,
          "durationTicks": 71,
          "midi": 54,
          "name": "F#3",
          "ticks": 108960,
          "time": 266.015625,
          "velocity": 0.7165354330708661
        },
        {
          "duration": 0.4248046875,
          "durationTicks": 174,
          "midi": 53,
          "name": "F3",
          "ticks": 109056,
          "time": 266.25,
          "velocity": 0.7165354330708661
        },
        {
          "duration": 0.2197265625,
          "durationTicks": 90,
          "midi": 49,
          "name": "C#3",
          "ticks": 109248,
          "time": 266.71875,
          "velocity": 0.6141732283464567
        },
        {
          "duration": 0.2978515625,
          "durationTicks": 122,
          "midi": 51,
          "name": "D#3",
          "ticks": 109344,
          "time": 266.953125,
          "velocity": 0.7007874015748031
        },
        {
          "duration": 0.17578125,
          "durationTicks": 72,
          "midi": 46,
          "name": "A#2",
          "ticks": 110592,
          "time": 270,
          "velocity": 0.8503937007874016
        },
        {
          "duration": 0.13427734375,
          "durationTicks": 55,
          "midi": 49,
          "name": "C#3",
          "ticks": 110688,
          "time": 270.234375,
          "velocity": 0.6692913385826772
        },
        {
          "duration": 0.14404296875,
          "durationTicks": 59,
          "midi": 46,
          "name": "A#2",
          "ticks": 110784,
          "time": 270.46875,
          "velocity": 0.7480314960629921
        },
        {
          "duration": 0.185546875,
          "durationTicks": 76,
          "midi": 51,
          "name": "D#3",
          "ticks": 110880,
          "time": 270.703125,
          "velocity": 0.8110236220472441
        },
        {
          "duration": 0.10009765625,
          "durationTicks": 41,
          "midi": 46,
          "name": "A#2",
          "ticks": 111072,
          "time": 271.171875,
          "velocity": 0.8740157480314961
        },
        {
          "duration": 0.1953125,
          "durationTicks": 80,
          "midi": 51,
          "name": "D#3",
          "ticks": 111168,
          "time": 271.40625,
          "velocity": 0.8976377952755905
        }
      ]
    },
    {
      "channel": 0,
      "controlChanges": {
        "0": [
          {
            "number": 0,
            "ticks": 322,
            "time": 0.7861328125,
            "value": 0
          }
        ],
        "32": [
          {
            "number": 32,
            "ticks": 324,
            "time": 0.791015625,
            "value": 0
          }
        ],
        "121": [
          {
            "number": 121,
            "ticks": 192,
            "time": 0.46875,
            "value": 0
          }
        ]
      },
      "pitchBends": [],
      "instrument": {
        "family": "piano",
        "number": 0,
        "name": "acoustic grand piano"
      },
      "name": "",
      "notes": [],
      "endOfTrackTicks": 112128
    },
    {
      "channel": 8,
      "controlChanges": {
        "6": [
          {
            "number": 6,
            "ticks": 428,
            "time": 1.044921875,
            "value": 0.3779527559055118
          },
          {
            "number": 6,
            "ticks": 432,
            "time": 1.0546875,
            "value": 0.5984251968503937
          }
        ],
        "7": [
          {
            "number": 7,
            "ticks": 328,
            "time": 0.80078125,
            "value": 0.6929133858267716
          }
        ],
        "10": [
          {
            "number": 10,
            "ticks": 330,
            "time": 0.8056640625,
            "value": 0.49606299212598426
          }
        ],
        "11": [
          {
            "number": 11,
            "ticks": 332,
            "time": 0.810546875,
            "value": 1
          }
        ],
        "91": [
          {
            "number": 91,
            "ticks": 334,
            "time": 0.8154296875,
            "value": 1
          }
        ],
        "93": [
          {
            "number": 93,
            "ticks": 336,
            "time": 0.8203125,
            "value": 0.4251968503937008
          }
        ],
        "98": [
          {
            "number": 98,
            "ticks": 426,
            "time": 1.0400390625,
            "value": 0.25196850393700787
          },
          {
            "number": 98,
            "ticks": 430,
            "time": 1.0498046875,
            "value": 0.25984251968503935
          }
        ],
        "99": [
          {
            "number": 99,
            "ticks": 424,
            "time": 1.03515625,
            "value": 0.007874015748031496
          }
        ],
        "100": [
          {
            "number": 100,
            "ticks": 434,
            "time": 1.0595703125,
            "value": 1
          }
        ],
        "101": [
          {
            "number": 101,
            "ticks": 436,
            "time": 1.064453125,
            "value": 1
          }
        ]
      },
      "pitchBends": [],
      "instrument": {
        "family": "world",
        "number": 106,
        "name": "shamisen"
      },
      "name": "",
      "notes": [
        {
          "duration": 0.10009765625,
          "durationTicks": 41,
          "midi": 75,
          "name": "D#5",
          "ticks": 6816,
          "time": 16.640625,
          "velocity": 0.889763779527559
        },
        {
          "duration": 0.10009765625,
          "durationTicks": 41,
          "midi": 63,
          "name": "D#4",
          "ticks": 6816,
          "time": 16.640625,
          "velocity": 0.889763779527559
        },
        {
          "duration": 0.10986328125,
          "durationTicks": 45,
          "midi": 82,
          "name": "A#5",
          "ticks": 6912,
          "time": 16.875,
          "velocity": 0.889763779527559
        },
        {
          "duration": 0.10986328125,
          "durationTicks": 45,
          "midi": 70,
          "name": "A#4",
          "ticks": 6912,
          "time": 16.875,
          "velocity": 0.889763779527559
        },
        {
          "duration": 0.126953125,
          "durationTicks": 52,
          "midi": 83,
          "name": "B5",
          "ticks": 7104,
          "time": 17.34375,
          "velocity": 0.889763779527559
        },
        {
          "duration": 0.126953125,
          "durationTicks": 52,
          "midi": 71,
          "name": "B4",
          "ticks": 7104,
          "time": 17.34375,
          "velocity": 0.889763779527559
        },
        {
          "duration": 0.03662109375,
          "durationTicks": 15,
          "midi": 82,
          "name": "A#5",
          "ticks": 7296,
          "time": 17.8125,
          "velocity": 0.8582677165354331
        },
        {
          "duration": 0.03662109375,
          "durationTicks": 15,
          "midi": 70,
          "name": "A#4",
          "ticks": 7296,
          "time": 17.8125,
          "velocity": 0.8582677165354331
        },
        {
          "duration": 0.048828125,
          "durationTicks": 20,
          "midi": 75,
          "name": "D#5",
          "ticks": 7344,
          "time": 17.9296875,
          "velocity": 0.84251968503937
        },
        {
          "duration": 0.048828125,
          "durationTicks": 20,
          "midi": 63,
          "name": "D#4",
          "ticks": 7344,
          "time": 17.9296875,
          "velocity": 0.84251968503937
        },
        {
          "duration": 0.0537109375,
          "durationTicks": 22,
          "midi": 75,
          "name": "D#5",
          "ticks": 7392,
          "time": 18.046875,
          "velocity": 0.84251968503937
        },
        {
          "duration": 0.0537109375,
          "durationTicks": 22,
          "midi": 63,
          "name": "D#4",
          "ticks": 7392,
          "time": 18.046875,
          "velocity": 0.84251968503937
        },
        {
          "duration": 0.0732421875,
          "durationTicks": 30,
          "midi": 75,
          "name": "D#5",
          "ticks": 7440,
          "time": 18.1640625,
          "velocity": 0.84251968503937
        },
        {
          "duration": 0.0732421875,
          "durationTicks": 30,
          "midi": 63,
          "name": "D#4",
          "ticks": 7440,
          "time": 18.1640625,
          "velocity": 0.84251968503937
        },
        {
          "duration": 0.1025390625,
          "durationTicks": 42,
          "midi": 77,
          "name": "F5",
          "ticks": 7488,
          "time": 18.28125,
          "velocity": 0.84251968503937
        },
        {
          "duration": 0.1025390625,
          "durationTicks": 42,
          "midi": 65,
          "name": "F4",
          "ticks": 7488,
          "time": 18.28125,
          "velocity": 0.84251968503937
        },
        {
          "duration": 0.04638671875,
          "durationTicks": 19,
          "midi": 75,
          "name": "D#5",
          "ticks": 7584,
          "time": 18.515625,
          "velocity": 0.8110236220472441
        },
        {
          "duration": 0.04638671875,
          "durationTicks": 19,
          "midi": 63,
          "name": "D#4",
          "ticks": 7584,
          "time": 18.515625,
          "velocity": 0.8110236220472441
        },
        {
          "duration": 0.068359375,
          "durationTicks": 28,
          "midi": 75,
          "name": "D#5",
          "ticks": 7632,
          "time": 18.6328125,
          "velocity": 0.8110236220472441
        },
        {
          "duration": 0.068359375,
          "durationTicks": 28,
          "midi": 63,
          "name": "D#4",
          "ticks": 7632,
          "time": 18.6328125,
          "velocity": 0.8110236220472441
        },
        {
          "duration": 0.10986328125,
          "durationTicks": 45,
          "midi": 77,
          "name": "F5",
          "ticks": 7680,
          "time": 18.75,
          "velocity": 0.8110236220472441
        },
        {
          "duration": 0.10986328125,
          "durationTicks": 45,
          "midi": 65,
          "name": "F4",
          "ticks": 7680,
          "time": 18.75,
          "velocity": 0.8503937007874016
        },
        {
          "duration": 0.09521484375,
          "durationTicks": 39,
          "midi": 78,
          "name": "F#5",
          "ticks": 7776,
          "time": 18.984375,
          "velocity": 0.8267716535433071
        },
        {
          "duration": 0.09521484375,
          "durationTicks": 39,
          "midi": 66,
          "name": "F#4",
          "ticks": 7776,
          "time": 18.984375,
          "velocity": 0.7952755905511811
        },
        {
          "duration": 0.08544921875,
          "durationTicks": 35,
          "midi": 77,
          "name": "F5",
          "ticks": 7872,
          "time": 19.21875,
          "velocity": 0.8267716535433071
        },
        {
          "duration": 0.08544921875,
          "durationTicks": 35,
          "midi": 65,
          "name": "F4",
          "ticks": 7872,
          "time": 19.21875,
          "velocity": 0.8267716535433071
        },
        {
          "duration": 0.08056640625,
          "durationTicks": 33,
          "midi": 73,
          "name": "C#5",
          "ticks": 7968,
          "time": 19.453125,
          "velocity": 0.8267716535433071
        },
        {
          "duration": 0.08056640625,
          "durationTicks": 33,
          "midi": 61,
          "name": "C#4",
          "ticks": 7968,
          "time": 19.453125,
          "velocity": 0.8267716535433071
        },
        {
          "duration": 0.09521484375,
          "durationTicks": 39,
          "midi": 75,
          "name": "D#5",
          "ticks": 8064,
          "time": 19.6875,
          "velocity": 0.8267716535433071
        },
        {
          "duration": 0.09521484375,
          "durationTicks": 39,
          "midi": 63,
          "name": "D#4",
          "ticks": 8064,
          "time": 19.6875,
          "velocity": 0.8267716535433071
        },
        {
          "duration": 0.10009765625,
          "durationTicks": 41,
          "midi": 75,
          "name": "D#5",
          "ticks": 8352,
          "time": 20.390625,
          "velocity": 0.84251968503937
        },
        {
          "duration": 0.10009765625,
          "durationTicks": 41,
          "midi": 63,
          "name": "D#4",
          "ticks": 8352,
          "time": 20.390625,
          "velocity": 0.84251968503937
        },
        {
          "duration": 0.10986328125,
          "durationTicks": 45,
          "midi": 82,
          "name": "A#5",
          "ticks": 8448,
          "time": 20.625,
          "velocity": 0.8267716535433071
        },
        {
          "duration": 0.10986328125,
          "durationTicks": 45,
          "midi": 70,
          "name": "A#4",
          "ticks": 8448,
          "time": 20.625,
          "velocity": 0.8267716535433071
        },
        {
          "duration": 0.126953125,
          "durationTicks": 52,
          "midi": 83,
          "name": "B5",
          "ticks": 8640,
          "time": 21.09375,
          "velocity": 0.8582677165354331
        },
        {
          "duration": 0.126953125,
          "durationTicks": 52,
          "midi": 71,
          "name": "B4",
          "ticks": 8640,
          "time": 21.09375,
          "velocity": 0.8582677165354331
        },
        {
          "duration": 0.03662109375,
          "durationTicks": 15,
          "midi": 82,
          "name": "A#5",
          "ticks": 8832,
          "time": 21.5625,
          "velocity": 0.7795275590551181
        },
        {
          "duration": 0.03662109375,
          "durationTicks": 15,
          "midi": 70,
          "name": "A#4",
          "ticks": 8832,
          "time": 21.5625,
          "velocity": 0.7795275590551181
        },
        {
          "duration": 0.048828125,
          "durationTicks": 20,
          "midi": 75,
          "name": "D#5",
          "ticks": 8880,
          "time": 21.6796875,
          "velocity": 0.8267716535433071
        },
        {
          "duration": 0.048828125,
          "durationTicks": 20,
          "midi": 63,
          "name": "D#4",
          "ticks": 8880,
          "time": 21.6796875,
          "velocity": 0.8267716535433071
        },
        {
          "duration": 0.0537109375,
          "durationTicks": 22,
          "midi": 75,
          "name": "D#5",
          "ticks": 8928,
          "time": 21.796875,
          "velocity": 0.8267716535433071
        },
        {
          "duration": 0.0537109375,
          "durationTicks": 22,
          "midi": 63,
          "name": "D#4",
          "ticks": 8928,
          "time": 21.796875,
          "velocity": 0.8267716535433071
        },
        {
          "duration": 0.0732421875,
          "durationTicks": 30,
          "midi": 75,
          "name": "D#5",
          "ticks": 8976,
          "time": 21.9140625,
          "velocity": 0.7795275590551181
        },
        {
          "duration": 0.0732421875,
          "durationTicks": 30,
          "midi": 63,
          "name": "D#4",
          "ticks": 8976,
          "time": 21.9140625,
          "velocity": 0.7795275590551181
        },
        {
          "duration": 0.1025390625,
          "durationTicks": 42,
          "midi": 77,
          "name": "F5",
          "ticks": 9024,
          "time": 22.03125,
          "velocity": 0.8267716535433071
        },
        {
          "duration": 0.1025390625,
          "durationTicks": 42,
          "midi": 65,
          "name": "F4",
          "ticks": 9024,
          "time": 22.03125,
          "velocity": 0.8267716535433071
        },
        {
          "duration": 0.04638671875,
          "durationTicks": 19,
          "midi": 75,
          "name": "D#5",
          "ticks": 9120,
          "time": 22.265625,
          "velocity": 0.8582677165354331
        },
        {
          "duration": 0.04638671875,
          "durationTicks": 19,
          "midi": 63,
          "name": "D#4",
          "ticks": 9120,
          "time": 22.265625,
          "velocity": 0.8582677165354331
        },
        {
          "duration": 0.068359375,
          "durationTicks": 28,
          "midi": 75,
          "name": "D#5",
          "ticks": 9168,
          "time": 22.3828125,
          "velocity": 0.84251968503937
        },
        {
          "duration": 0.068359375,
          "durationTicks": 28,
          "midi": 63,
          "name": "D#4",
          "ticks": 9168,
          "time": 22.3828125,
          "velocity": 0.84251968503937
        },
        {
          "duration": 0.10986328125,
          "durationTicks": 45,
          "midi": 77,
          "name": "F5",
          "ticks": 9216,
          "time": 22.5,
          "velocity": 0.8110236220472441
        },
        {
          "duration": 0.10986328125,
          "durationTicks": 45,
          "midi": 65,
          "name": "F4",
          "ticks": 9216,
          "time": 22.5,
          "velocity": 0.8267716535433071
        },
        {
          "duration": 0.09521484375,
          "durationTicks": 39,
          "midi": 78,
          "name": "F#5",
          "ticks": 9312,
          "time": 22.734375,
          "velocity": 0.8110236220472441
        },
        {
          "duration": 0.09521484375,
          "durationTicks": 39,
          "midi": 66,
          "name": "F#4",
          "ticks": 9312,
          "time": 22.734375,
          "velocity": 0.7165354330708661
        },
        {
          "duration": 0.08544921875,
          "durationTicks": 35,
          "midi": 77,
          "name": "F5",
          "ticks": 9408,
          "time": 22.96875,
          "velocity": 0.8110236220472441
        },
        {
          "duration": 0.08544921875,
          "durationTicks": 35,
          "midi": 65,
          "name": "F4",
          "ticks": 9408,
          "time": 22.96875,
          "velocity": 0.7952755905511811
        },
        {
          "duration": 0.08056640625,
          "durationTicks": 33,
          "midi": 73,
          "name": "C#5",
          "ticks": 9504,
          "time": 23.203125,
          "velocity": 0.8267716535433071
        },
        {
          "duration": 0.08056640625,
          "durationTicks": 33,
          "midi": 61,
          "name": "C#4",
          "ticks": 9504,
          "time": 23.203125,
          "velocity": 0.7795275590551181
        },
        {
          "duration": 0.09521484375,
          "durationTicks": 39,
          "midi": 75,
          "name": "D#5",
          "ticks": 9600,
          "time": 23.4375,
          "velocity": 0.8267716535433071
        },
        {
          "duration": 0.09521484375,
          "durationTicks": 39,
          "midi": 63,
          "name": "D#4",
          "ticks": 9600,
          "time": 23.4375,
          "velocity": 0.8267716535433071
        },
        {
          "duration": 0.04638671875,
          "durationTicks": 19,
          "midi": 75,
          "name": "D#5",
          "ticks": 9888,
          "time": 24.140625,
          "velocity": 0.7795275590551181
        },
        {
          "duration": 0.04638671875,
          "durationTicks": 19,
          "midi": 63,
          "name": "D#4",
          "ticks": 9888,
          "time": 24.140625,
          "velocity": 0.7795275590551181
        },
        {
          "duration": 0.068359375,
          "durationTicks": 28,
          "midi": 75,
          "name": "D#5",
          "ticks": 9936,
          "time": 24.2578125,
          "velocity": 0.8110236220472441
        },
        {
          "duration": 0.068359375,
          "durationTicks": 28,
          "midi": 63,
          "name": "D#4",
          "ticks": 9936,
          "time": 24.2578125,
          "velocity": 0.8110236220472441
        },
        {
          "duration": 0.10986328125,
          "durationTicks": 45,
          "midi": 77,
          "name": "F5",
          "ticks": 9984,
          "time": 24.375,
          "velocity": 0.8503937007874016
        },
        {
          "duration": 0.10986328125,
          "durationTicks": 45,
          "midi": 65,
          "name": "F4",
          "ticks": 9984,
          "time": 24.375,
          "velocity": 0.8503937007874016
        },
        {
          "duration": 0.09521484375,
          "durationTicks": 39,
          "midi": 78,
          "name": "F#5",
          "ticks": 10080,
          "time": 24.609375,
          "velocity": 0.8110236220472441
        },
        {
          "duration": 0.09521484375,
          "durationTicks": 39,
          "midi": 66,
          "name": "F#4",
          "ticks": 10080,
          "time": 24.609375,
          "velocity": 0.7795275590551181
        },
        {
          "duration": 0.08544921875,
          "durationTicks": 35,
          "midi": 77,
          "name": "F5",
          "ticks": 10176,
          "time": 24.84375,
          "velocity": 0.8110236220472441
        },
        {
          "duration": 0.08544921875,
          "durationTicks": 35,
          "midi": 65,
          "name": "F4",
          "ticks": 10176,
          "time": 24.84375,
          "velocity": 0.8110236220472441
        },
        {
          "duration": 0.08056640625,
          "durationTicks": 33,
          "midi": 73,
          "name": "C#5",
          "ticks": 10272,
          "time": 25.078125,
          "velocity": 0.8110236220472441
        },
        {
          "duration": 0.08056640625,
          "durationTicks": 33,
          "midi": 61,
          "name": "C#4",
          "ticks": 10272,
          "time": 25.078125,
          "velocity": 0.8110236220472441
        },
        {
          "duration": 0.09521484375,
          "durationTicks": 39,
          "midi": 75,
          "name": "D#5",
          "ticks": 10368,
          "time": 25.3125,
          "velocity": 0.8267716535433071
        },
        {
          "duration": 0.09521484375,
          "durationTicks": 39,
          "midi": 63,
          "name": "D#4",
          "ticks": 10368,
          "time": 25.3125,
          "velocity": 0.8267716535433071
        },
        {
          "duration": 0.04638671875,
          "durationTicks": 19,
          "midi": 75,
          "name": "D#5",
          "ticks": 10656,
          "time": 26.015625,
          "velocity": 0.7952755905511811
        },
        {
          "duration": 0.04638671875,
          "durationTicks": 19,
          "midi": 63,
          "name": "D#4",
          "ticks": 10656,
          "time": 26.015625,
          "velocity": 0.7952755905511811
        },
        {
          "duration": 0.068359375,
          "durationTicks": 28,
          "midi": 75,
          "name": "D#5",
          "ticks": 10704,
          "time": 26.1328125,
          "velocity": 0.7952755905511811
        },
        {
          "duration": 0.068359375,
          "durationTicks": 28,
          "midi": 63,
          "name": "D#4",
          "ticks": 10704,
          "time": 26.1328125,
          "velocity": 0.7952755905511811
        },
        {
          "duration": 0.10986328125,
          "durationTicks": 45,
          "midi": 77,
          "name": "F5",
          "ticks": 10752,
          "time": 26.25,
          "velocity": 0.8110236220472441
        },
        {
          "duration": 0.10986328125,
          "durationTicks": 45,
          "midi": 65,
          "name": "F4",
          "ticks": 10752,
          "time": 26.25,
          "velocity": 0.8110236220472441
        },
        {
          "duration": 0.09521484375,
          "durationTicks": 39,
          "midi": 78,
          "name": "F#5",
          "ticks": 10848,
          "time": 26.484375,
          "velocity": 0.8110236220472441
        },
        {
          "duration": 0.09521484375,
          "durationTicks": 39,
          "midi": 66,
          "name": "F#4",
          "ticks": 10848,
          "time": 26.484375,
          "velocity": 0.8110236220472441
        },
        {
          "duration": 0.08544921875,
          "durationTicks": 35,
          "midi": 77,
          "name": "F5",
          "ticks": 10944,
          "time": 26.71875,
          "velocity": 0.8267716535433071
        },
        {
          "duration": 0.08544921875,
          "durationTicks": 35,
          "midi": 65,
          "name": "F4",
          "ticks": 10944,
          "time": 26.71875,
          "velocity": 0.7952755905511811
        },
        {
          "duration": 0.08056640625,
          "durationTicks": 33,
          "midi": 73,
          "name": "C#5",
          "ticks": 11040,
          "time": 26.953125,
          "velocity": 0.7795275590551181
        },
        {
          "duration": 0.08056640625,
          "durationTicks": 33,
          "midi": 61,
          "name": "C#4",
          "ticks": 11040,
          "time": 26.953125,
          "velocity": 0.7795275590551181
        },
        {
          "duration": 0.09521484375,
          "durationTicks": 39,
          "midi": 75,
          "name": "D#5",
          "ticks": 11136,
          "time": 27.1875,
          "velocity": 0.8110236220472441
        },
        {
          "duration": 0.09521484375,
          "durationTicks": 39,
          "midi": 63,
          "name": "D#4",
          "ticks": 11136,
          "time": 27.1875,
          "velocity": 0.8110236220472441
        },
        {
          "duration": 0.0341796875,
          "durationTicks": 14,
          "midi": 82,
          "name": "A#5",
          "ticks": 11232,
          "time": 27.421875,
          "velocity": 0.8110236220472441
        },
        {
          "duration": 0.04150390625,
          "durationTicks": 17,
          "midi": 70,
          "name": "A#4",
          "ticks": 11232,
          "time": 27.421875,
          "velocity": 0.8110236220472441
        },
        {
          "duration": 0.04638671875,
          "durationTicks": 19,
          "midi": 82,
          "name": "A#5",
          "ticks": 11280,
          "time": 27.5390625,
          "velocity": 0.8110236220472441
        },
        {
          "duration": 0.05859375,
          "durationTicks": 24,
          "midi": 70,
          "name": "A#4",
          "ticks": 11280,
          "time": 27.5390625,
          "velocity": 0.8110236220472441
        },
        {
          "duration": 0.05126953125,
          "durationTicks": 21,
          "midi": 82,
          "name": "A#5",
          "ticks": 11328,
          "time": 27.65625,
          "velocity": 0.8267716535433071
        },
        {
          "duration": 0.07568359375,
          "durationTicks": 31,
          "midi": 70,
          "name": "A#4",
          "ticks": 11328,
          "time": 27.65625,
          "velocity": 0.8267716535433071
        },
        {
          "duration": 0.0634765625,
          "durationTicks": 26,
          "midi": 82,
          "name": "A#5",
          "ticks": 11424,
          "time": 27.890625,
          "velocity": 0.8740157480314961
        },
        {
          "duration": 0.068359375,
          "durationTicks": 28,
          "midi": 70,
          "name": "A#4",
          "ticks": 11424,
          "time": 27.890625,
          "velocity": 0.7007874015748031
        },
        {
          "duration": 0.13427734375,
          "durationTicks": 55,
          "midi": 82,
          "name": "A#5",
          "ticks": 11520,
          "time": 28.125,
          "velocity": 0.8267716535433071
        },
        {
          "duration": 0.13671875,
          "durationTicks": 56,
          "midi": 70,
          "name": "A#4",
          "ticks": 11520,
          "time": 28.125,
          "velocity": 0.8267716535433071
        },
        {
          "duration": 0.1025390625,
          "durationTicks": 42,
          "midi": 78,
          "name": "F#5",
          "ticks": 11712,
          "time": 28.59375,
          "velocity": 0.8110236220472441
        },
        {
          "duration": 0.1025390625,
          "durationTicks": 42,
          "midi": 66,
          "name": "F#4",
          "ticks": 11712,
          "time": 28.59375,
          "velocity": 0.8110236220472441
        },
        {
          "duration": 0.10986328125,
          "durationTicks": 45,
          "midi": 80,
          "name": "G#5",
          "ticks": 11808,
          "time": 28.828125,
          "velocity": 0.8267716535433071
        },
        {
          "duration": 0.11962890625,
          "durationTicks": 49,
          "midi": 68,
          "name": "G#4",
          "ticks": 11808,
          "time": 28.828125,
          "velocity": 0.8267716535433071
        },
        {
          "duration": 0.048828125,
          "durationTicks": 20,
          "midi": 78,
          "name": "F#5",
          "ticks": 12000,
          "time": 29.296875,
          "velocity": 0.7952755905511811
        },
        {
          "duration": 0.04638671875,
          "durationTicks": 19,
          "midi": 66,
          "name": "F#4",
          "ticks": 12000,
          "time": 29.296875,
          "velocity": 0.7952755905511811
        },
        {
          "duration": 0.0537109375,
          "durationTicks": 22,
          "midi": 78,
          "name": "F#5",
          "ticks": 12048,
          "time": 29.4140625,
          "velocity": 0.7952755905511811
        },
        {
          "duration": 0.0439453125,
          "durationTicks": 18,
          "midi": 66,
          "name": "F#4",
          "ticks": 12048,
          "time": 29.4140625,
          "velocity": 0.7952755905511811
        },
        {
          "duration": 0.0732421875,
          "durationTicks": 30,
          "midi": 78,
          "name": "F#5",
          "ticks": 12096,
          "time": 29.53125,
          "velocity": 0.7952755905511811
        },
        {
          "duration": 0.078125,
          "durationTicks": 32,
          "midi": 66,
          "name": "F#4",
          "ticks": 12096,
          "time": 29.53125,
          "velocity": 0.7952755905511811
        },
        {
          "duration": 0.10009765625,
          "durationTicks": 41,
          "midi": 78,
          "name": "F#5",
          "ticks": 12192,
          "time": 29.765625,
          "velocity": 0.8503937007874016
        },
        {
          "duration": 0.1123046875,
          "durationTicks": 46,
          "midi": 66,
          "name": "F#4",
          "ticks": 12192,
          "time": 29.765625,
          "velocity": 0.7637795275590551
        },
        {
          "duration": 0.1171875,
          "durationTicks": 48,
          "midi": 77,
          "name": "F5",
          "ticks": 12288,
          "time": 30,
          "velocity": 0.8267716535433071
        },
        {
          "duration": 0.13671875000000355,
          "durationTicks": 56,
          "midi": 65,
          "name": "F4",
          "ticks": 12288,
          "time": 30,
          "velocity": 0.8267716535433071
        },
        {
          "duration": 0.08056640625,
          "durationTicks": 33,
          "midi": 73,
          "name": "C#5",
          "ticks": 12480,
          "time": 30.46875,
          "velocity": 0.84251968503937
        },
        {
          "duration": 0.11230468749999645,
          "durationTicks": 46,
          "midi": 61,
          "name": "C#4",
          "ticks": 12480,
          "time": 30.46875,
          "velocity": 0.84251968503937
        },
        {
          "duration": 0.07812500000000355,
          "durationTicks": 32,
          "midi": 75,
          "name": "D#5",
          "ticks": 12576,
          "time": 30.703125,
          "velocity": 0.7952755905511811
        },
        {
          "duration": 0.09277343750000355,
          "durationTicks": 38,
          "midi": 63,
          "name": "D#4",
          "ticks": 12576,
          "time": 30.703125,
          "velocity": 0.8503937007874016
        },
        {
          "duration": 0.06591796875,
          "durationTicks": 27,
          "midi": 82,
          "name": "A#5",
          "ticks": 12768,
          "time": 31.171875,
          "velocity": 0.84251968503937
        },
        {
          "duration": 0.04882812500000355,
          "durationTicks": 20,
          "midi": 70,
          "name": "A#4",
          "ticks": 12768,
          "time": 31.171875,
          "velocity": 0.84251968503937
        },
        {
          "duration": 0.06591796875,
          "durationTicks": 27,
          "midi": 82,
          "name": "A#5",
          "ticks": 12816,
          "time": 31.2890625,
          "velocity": 0.84251968503937
        },
        {
          "duration": 0.09033203124999645,
          "durationTicks": 37,
          "midi": 70,
          "name": "A#4",
          "ticks": 12816,
          "time": 31.2890625,
          "velocity": 0.84251968503937
        },
        {
          "duration": 0.06835937499999645,
          "durationTicks": 28,
          "midi": 82,
          "name": "A#5",
          "ticks": 12864,
          "time": 31.40625,
          "velocity": 0.7480314960629921
        },
        {
          "duration": 0.087890625,
          "durationTicks": 36,
          "midi": 70,
          "name": "A#4",
          "ticks": 12864,
          "time": 31.40625,
          "velocity": 0.7322834645669292
        },
        {
          "duration": 0.06835937499999645,
          "durationTicks": 28,
          "midi": 82,
          "name": "A#5",
          "ticks": 12960,
          "time": 31.640625,
          "velocity": 0.84251968503937
        },
        {
          "duration": 0.09033203124999645,
          "durationTicks": 37,
          "midi": 70,
          "name": "A#4",
          "ticks": 12960,
          "time": 31.640625,
          "velocity": 0.84251968503937
        },
        {
          "duration": 0.06347656250000355,
          "durationTicks": 26,
          "midi": 82,
          "name": "A#5",
          "ticks": 13056,
          "time": 31.875,
          "velocity": 0.84251968503937
        },
        {
          "duration": 0.11474609375000355,
          "durationTicks": 47,
          "midi": 70,
          "name": "A#4",
          "ticks": 13056,
          "time": 31.875,
          "velocity": 0.8267716535433071
        },
        {
          "duration": 0.087890625,
          "durationTicks": 36,
          "midi": 78,
          "name": "F#5",
          "ticks": 13248,
          "time": 32.34375,
          "velocity": 0.7480314960629921
        },
        {
          "duration": 0.10498046875,
          "durationTicks": 43,
          "midi": 66,
          "name": "F#4",
          "ticks": 13248,
          "time": 32.34375,
          "velocity": 0.6456692913385826
        },
        {
          "duration": 0.09033203125,
          "durationTicks": 37,
          "midi": 80,
          "name": "G#5",
          "ticks": 13344,
          "time": 32.578125,
          "velocity": 0.8110236220472441
        },
        {
          "duration": 0.09765625,
          "durationTicks": 40,
          "midi": 68,
          "name": "G#4",
          "ticks": 13344,
          "time": 32.578125,
          "velocity": 0.8110236220472441
        },
        {
          "duration": 0.05859375,
          "durationTicks": 24,
          "midi": 78,
          "name": "F#5",
          "ticks": 13536,
          "time": 33.046875,
          "velocity": 0.6771653543307087
        },
        {
          "duration": 0.05615234375,
          "durationTicks": 23,
          "midi": 66,
          "name": "F#4",
          "ticks": 13536,
          "time": 33.046875,
          "velocity": 0.7007874015748031
        },
        {
          "duration": 0.05615234375,
          "durationTicks": 23,
          "midi": 78,
          "name": "F#5",
          "ticks": 13584,
          "time": 33.1640625,
          "velocity": 0.7480314960629921
        },
        {
          "duration": 0.05615234375,
          "durationTicks": 23,
          "midi": 66,
          "name": "F#4",
          "ticks": 13584,
          "time": 33.1640625,
          "velocity": 0.7322834645669292
        },
        {
          "duration": 0.07568359375,
          "durationTicks": 31,
          "midi": 78,
          "name": "F#5",
          "ticks": 13632,
          "time": 33.28125,
          "velocity": 0.8110236220472441
        },
        {
          "duration": 0.09033203125,
          "durationTicks": 37,
          "midi": 66,
          "name": "F#4",
          "ticks": 13632,
          "time": 33.28125,
          "velocity": 0.8110236220472441
        },
        {
          "duration": 0.0732421875,
          "durationTicks": 30,
          "midi": 78,
          "name": "F#5",
          "ticks": 13728,
          "time": 33.515625,
          "velocity": 0.8110236220472441
        },
        {
          "duration": 0.10009765625,
          "durationTicks": 41,
          "midi": 66,
          "name": "F#4",
          "ticks": 13728,
          "time": 33.515625,
          "velocity": 0.8110236220472441
        },
        {
          "duration": 0.08544921875,
          "durationTicks": 35,
          "midi": 77,
          "name": "F5",
          "ticks": 13824,
          "time": 33.75,
          "velocity": 0.8267716535433071
        },
        {
          "duration": 0.13671875,
          "durationTicks": 56,
          "midi": 65,
          "name": "F4",
          "ticks": 13824,
          "time": 33.75,
          "velocity": 0.8267716535433071
        },
        {
          "duration": 0.078125,
          "durationTicks": 32,
          "midi": 73,
          "name": "C#5",
          "ticks": 14016,
          "time": 34.21875,
          "velocity": 0.8976377952755905
        },
        {
          "duration": 0.1025390625,
          "durationTicks": 42,
          "midi": 61,
          "name": "C#4",
          "ticks": 14016,
          "time": 34.21875,
          "velocity": 0.7007874015748031
        },
        {
          "duration": 0.09521484375,
          "durationTicks": 39,
          "midi": 75,
          "name": "D#5",
          "ticks": 14112,
          "time": 34.453125,
          "velocity": 0.8110236220472441
        },
        {
          "duration": 0.107421875,
          "durationTicks": 44,
          "midi": 63,
          "name": "D#4",
          "ticks": 14112,
          "time": 34.453125,
          "velocity": 0.8110236220472441
        },
        {
          "duration": 0.04150390625,
          "durationTicks": 17,
          "midi": 75,
          "name": "D#5",
          "ticks": 14304,
          "time": 34.921875,
          "velocity": 0.84251968503937
        },
        {
          "duration": 0.0244140625,
          "durationTicks": 10,
          "midi": 63,
          "name": "D#4",
          "ticks": 14304,
          "time": 34.921875,
          "velocity": 0.84251968503937
        },
        {
          "duration": 0.048828125,
          "durationTicks": 20,
          "midi": 75,
          "name": "D#5",
          "ticks": 14352,
          "time": 35.0390625,
          "velocity": 0.7322834645669292
        },
        {
          "duration": 0.05615234375,
          "durationTicks": 23,
          "midi": 63,
          "name": "D#4",
          "ticks": 14352,
          "time": 35.0390625,
          "velocity": 0.5905511811023622
        },
        {
          "duration": 0.07568359375,
          "durationTicks": 31,
          "midi": 75,
          "name": "D#5",
          "ticks": 14400,
          "time": 35.15625,
          "velocity": 0.8267716535433071
        },
        {
          "duration": 0.0830078125,
          "durationTicks": 34,
          "midi": 63,
          "name": "D#4",
          "ticks": 14400,
          "time": 35.15625,
          "velocity": 0.8267716535433071
        },
        {
          "duration": 0.08056640625,
          "durationTicks": 33,
          "midi": 75,
          "name": "D#5",
          "ticks": 14496,
          "time": 35.390625,
          "velocity": 0.8267716535433071
        },
        {
          "duration": 0.0830078125,
          "durationTicks": 34,
          "midi": 63,
          "name": "D#4",
          "ticks": 14496,
          "time": 35.390625,
          "velocity": 0.8267716535433071
        },
        {
          "duration": 0.12451171875,
          "durationTicks": 51,
          "midi": 77,
          "name": "F5",
          "ticks": 14592,
          "time": 35.625,
          "velocity": 0.8110236220472441
        },
        {
          "duration": 0.13671875,
          "durationTicks": 56,
          "midi": 65,
          "name": "F4",
          "ticks": 14592,
          "time": 35.625,
          "velocity": 0.8110236220472441
        },
        {
          "duration": 0.07568359375,
          "durationTicks": 31,
          "midi": 73,
          "name": "C#5",
          "ticks": 14784,
          "time": 36.09375,
          "velocity": 0.8740157480314961
        },
        {
          "duration": 0.09521484375,
          "durationTicks": 39,
          "midi": 61,
          "name": "C#4",
          "ticks": 14784,
          "time": 36.09375,
          "velocity": 0.7795275590551181
        },
        {
          "duration": 0.1123046875,
          "durationTicks": 46,
          "midi": 75,
          "name": "D#5",
          "ticks": 14880,
          "time": 36.328125,
          "velocity": 0.8503937007874016
        },
        {
          "duration": 0.12451171875,
          "durationTicks": 51,
          "midi": 63,
          "name": "D#4",
          "ticks": 14880,
          "time": 36.328125,
          "velocity": 0.7165354330708661
        },
        {
          "duration": 0.05615234375,
          "durationTicks": 23,
          "midi": 75,
          "name": "D#5",
          "ticks": 15072,
          "time": 36.796875,
          "velocity": 0.84251968503937
        },
        {
          "duration": 0.03173828125,
          "durationTicks": 13,
          "midi": 63,
          "name": "D#4",
          "ticks": 15072,
          "time": 36.796875,
          "velocity": 0.84251968503937
        },
        {
          "duration": 0.05126953125,
          "durationTicks": 21,
          "midi": 75,
          "name": "D#5",
          "ticks": 15120,
          "time": 36.9140625,
          "velocity": 0.8267716535433071
        },
        {
          "duration": 0.0439453125,
          "durationTicks": 18,
          "midi": 63,
          "name": "D#4",
          "ticks": 15120,
          "time": 36.9140625,
          "velocity": 0.8267716535433071
        },
        {
          "duration": 0.08544921875,
          "durationTicks": 35,
          "midi": 75,
          "name": "D#5",
          "ticks": 15168,
          "time": 37.03125,
          "velocity": 0.8267716535433071
        },
        {
          "duration": 0.09033203125,
          "durationTicks": 37,
          "midi": 63,
          "name": "D#4",
          "ticks": 15168,
          "time": 37.03125,
          "velocity": 0.8267716535433071
        },
        {
          "duration": 0.0634765625,
          "durationTicks": 26,
          "midi": 75,
          "name": "D#5",
          "ticks": 15264,
          "time": 37.265625,
          "velocity": 0.8267716535433071
        },
        {
          "duration": 0.07568359375,
          "durationTicks": 31,
          "midi": 63,
          "name": "D#4",
          "ticks": 15264,
          "time": 37.265625,
          "velocity": 0.8267716535433071
        },
        {
          "duration": 0.09765625,
          "durationTicks": 40,
          "midi": 77,
          "name": "F5",
          "ticks": 15360,
          "time": 37.5,
          "velocity": 0.8267716535433071
        },
        {
          "duration": 0.11474609375,
          "durationTicks": 47,
          "midi": 65,
          "name": "F4",
          "ticks": 15360,
          "time": 37.5,
          "velocity": 0.8267716535433071
        },
        {
          "duration": 0.078125,
          "durationTicks": 32,
          "midi": 73,
          "name": "C#5",
          "ticks": 15552,
          "time": 37.96875,
          "velocity": 0.8267716535433071
        },
        {
          "duration": 0.09521484375,
          "durationTicks": 39,
          "midi": 61,
          "name": "C#4",
          "ticks": 15552,
          "time": 37.96875,
          "velocity": 0.8267716535433071
        },
        {
          "duration": 0.1025390625,
          "durationTicks": 42,
          "midi": 75,
          "name": "D#5",
          "ticks": 15648,
          "time": 38.203125,
          "velocity": 0.84251968503937
        },
        {
          "duration": 0.10009765625,
          "durationTicks": 41,
          "midi": 63,
          "name": "D#4",
          "ticks": 15648,
          "time": 38.203125,
          "velocity": 0.84251968503937
        },
        {
          "duration": 0.10009765625,
          "durationTicks": 41,
          "midi": 75,
          "name": "D#5",
          "ticks": 32544,
          "time": 79.453125,
          "velocity": 0.8740157480314961
        },
        {
          "duration": 0.10009765625,
          "durationTicks": 41,
          "midi": 63,
          "name": "D#4",
          "ticks": 32544,
          "time": 79.453125,
          "velocity": 0.8740157480314961
        },
        {
          "duration": 0.10986328125,
          "durationTicks": 45,
          "midi": 82,
          "name": "A#5",
          "ticks": 32640,
          "time": 79.6875,
          "velocity": 0.8740157480314961
        },
        {
          "duration": 0.10986328125,
          "durationTicks": 45,
          "midi": 70,
          "name": "A#4",
          "ticks": 32640,
          "time": 79.6875,
          "velocity": 0.8740157480314961
        },
        {
          "duration": 0.126953125,
          "durationTicks": 52,
          "midi": 83,
          "name": "B5",
          "ticks": 32832,
          "time": 80.15625,
          "velocity": 0.8740157480314961
        },
        {
          "duration": 0.126953125,
          "durationTicks": 52,
          "midi": 71,
          "name": "B4",
          "ticks": 32832,
          "time": 80.15625,
          "velocity": 0.8740157480314961
        },
        {
          "duration": 0.03662109375,
          "durationTicks": 15,
          "midi": 82,
          "name": "A#5",
          "ticks": 33024,
          "time": 80.625,
          "velocity": 0.7637795275590551
        },
        {
          "duration": 0.03662109375,
          "durationTicks": 15,
          "midi": 70,
          "name": "A#4",
          "ticks": 33024,
          "time": 80.625,
          "velocity": 0.7637795275590551
        },
        {
          "duration": 0.048828125,
          "durationTicks": 20,
          "midi": 75,
          "name": "D#5",
          "ticks": 33072,
          "time": 80.7421875,
          "velocity": 0.7480314960629921
        },
        {
          "duration": 0.048828125,
          "durationTicks": 20,
          "midi": 63,
          "name": "D#4",
          "ticks": 33072,
          "time": 80.7421875,
          "velocity": 0.7480314960629921
        },
        {
          "duration": 0.0537109375,
          "durationTicks": 22,
          "midi": 75,
          "name": "D#5",
          "ticks": 33120,
          "time": 80.859375,
          "velocity": 0.7480314960629921
        },
        {
          "duration": 0.0537109375,
          "durationTicks": 22,
          "midi": 63,
          "name": "D#4",
          "ticks": 33120,
          "time": 80.859375,
          "velocity": 0.7480314960629921
        },
        {
          "duration": 0.0732421875,
          "durationTicks": 30,
          "midi": 75,
          "name": "D#5",
          "ticks": 33168,
          "time": 80.9765625,
          "velocity": 0.7795275590551181
        },
        {
          "duration": 0.0732421875,
          "durationTicks": 30,
          "midi": 63,
          "name": "D#4",
          "ticks": 33168,
          "time": 80.9765625,
          "velocity": 0.7795275590551181
        },
        {
          "duration": 0.1025390625,
          "durationTicks": 42,
          "midi": 77,
          "name": "F5",
          "ticks": 33216,
          "time": 81.09375,
          "velocity": 0.84251968503937
        },
        {
          "duration": 0.1025390625,
          "durationTicks": 42,
          "midi": 65,
          "name": "F4",
          "ticks": 33216,
          "time": 81.09375,
          "velocity": 0.84251968503937
        },
        {
          "duration": 0.04638671875,
          "durationTicks": 19,
          "midi": 75,
          "name": "D#5",
          "ticks": 33312,
          "time": 81.328125,
          "velocity": 0.8110236220472441
        },
        {
          "duration": 0.04638671875,
          "durationTicks": 19,
          "midi": 63,
          "name": "D#4",
          "ticks": 33312,
          "time": 81.328125,
          "velocity": 0.8110236220472441
        },
        {
          "duration": 0.068359375,
          "durationTicks": 28,
          "midi": 75,
          "name": "D#5",
          "ticks": 33360,
          "time": 81.4453125,
          "velocity": 0.7952755905511811
        },
        {
          "duration": 0.068359375,
          "durationTicks": 28,
          "midi": 63,
          "name": "D#4",
          "ticks": 33360,
          "time": 81.4453125,
          "velocity": 0.7952755905511811
        },
        {
          "duration": 0.10986328125,
          "durationTicks": 45,
          "midi": 77,
          "name": "F5",
          "ticks": 33408,
          "time": 81.5625,
          "velocity": 0.8503937007874016
        },
        {
          "duration": 0.10986328125,
          "durationTicks": 45,
          "midi": 65,
          "name": "F4",
          "ticks": 33408,
          "time": 81.5625,
          "velocity": 0.8503937007874016
        },
        {
          "duration": 0.09521484375,
          "durationTicks": 39,
          "midi": 78,
          "name": "F#5",
          "ticks": 33504,
          "time": 81.796875,
          "velocity": 0.7795275590551181
        },
        {
          "duration": 0.09521484375,
          "durationTicks": 39,
          "midi": 66,
          "name": "F#4",
          "ticks": 33504,
          "time": 81.796875,
          "velocity": 0.7795275590551181
        },
        {
          "duration": 0.08544921875,
          "durationTicks": 35,
          "midi": 77,
          "name": "F5",
          "ticks": 33600,
          "time": 82.03125,
          "velocity": 0.7795275590551181
        },
        {
          "duration": 0.08544921875,
          "durationTicks": 35,
          "midi": 65,
          "name": "F4",
          "ticks": 33600,
          "time": 82.03125,
          "velocity": 0.7795275590551181
        },
        {
          "duration": 0.08056640625,
          "durationTicks": 33,
          "midi": 73,
          "name": "C#5",
          "ticks": 33696,
          "time": 82.265625,
          "velocity": 0.7795275590551181
        },
        {
          "duration": 0.08056640625,
          "durationTicks": 33,
          "midi": 61,
          "name": "C#4",
          "ticks": 33696,
          "time": 82.265625,
          "velocity": 0.7795275590551181
        },
        {
          "duration": 0.09521484375,
          "durationTicks": 39,
          "midi": 75,
          "name": "D#5",
          "ticks": 33792,
          "time": 82.5,
          "velocity": 0.7952755905511811
        },
        {
          "duration": 0.09521484375,
          "durationTicks": 39,
          "midi": 63,
          "name": "D#4",
          "ticks": 33792,
          "time": 82.5,
          "velocity": 0.7952755905511811
        },
        {
          "duration": 0.10009765625,
          "durationTicks": 41,
          "midi": 75,
          "name": "D#5",
          "ticks": 34080,
          "time": 83.203125,
          "velocity": 0.8110236220472441
        },
        {
          "duration": 0.10009765625,
          "durationTicks": 41,
          "midi": 63,
          "name": "D#4",
          "ticks": 34080,
          "time": 83.203125,
          "velocity": 0.8110236220472441
        },
        {
          "duration": 0.10986328125,
          "durationTicks": 45,
          "midi": 82,
          "name": "A#5",
          "ticks": 34176,
          "time": 83.4375,
          "velocity": 0.8267716535433071
        },
        {
          "duration": 0.10986328125,
          "durationTicks": 45,
          "midi": 70,
          "name": "A#4",
          "ticks": 34176,
          "time": 83.4375,
          "velocity": 0.8582677165354331
        },
        {
          "duration": 0.126953125,
          "durationTicks": 52,
          "midi": 83,
          "name": "B5",
          "ticks": 34368,
          "time": 83.90625,
          "velocity": 0.8661417322834646
        },
        {
          "duration": 0.126953125,
          "durationTicks": 52,
          "midi": 71,
          "name": "B4",
          "ticks": 34368,
          "time": 83.90625,
          "velocity": 0.8661417322834646
        },
        {
          "duration": 0.03662109375,
          "durationTicks": 15,
          "midi": 82,
          "name": "A#5",
          "ticks": 34560,
          "time": 84.375,
          "velocity": 0.7795275590551181
        },
        {
          "duration": 0.03662109375,
          "durationTicks": 15,
          "midi": 70,
          "name": "A#4",
          "ticks": 34560,
          "time": 84.375,
          "velocity": 0.7795275590551181
        },
        {
          "duration": 0.048828125,
          "durationTicks": 20,
          "midi": 75,
          "name": "D#5",
          "ticks": 34608,
          "time": 84.4921875,
          "velocity": 0.7007874015748031
        },
        {
          "duration": 0.048828125,
          "durationTicks": 20,
          "midi": 63,
          "name": "D#4",
          "ticks": 34608,
          "time": 84.4921875,
          "velocity": 0.7007874015748031
        },
        {
          "duration": 0.0537109375,
          "durationTicks": 22,
          "midi": 75,
          "name": "D#5",
          "ticks": 34656,
          "time": 84.609375,
          "velocity": 0.7952755905511811
        },
        {
          "duration": 0.0537109375,
          "durationTicks": 22,
          "midi": 63,
          "name": "D#4",
          "ticks": 34656,
          "time": 84.609375,
          "velocity": 0.7952755905511811
        },
        {
          "duration": 0.0732421875,
          "durationTicks": 30,
          "midi": 75,
          "name": "D#5",
          "ticks": 34704,
          "time": 84.7265625,
          "velocity": 0.7795275590551181
        },
        {
          "duration": 0.0732421875,
          "durationTicks": 30,
          "midi": 63,
          "name": "D#4",
          "ticks": 34704,
          "time": 84.7265625,
          "velocity": 0.7795275590551181
        },
        {
          "duration": 0.1025390625,
          "durationTicks": 42,
          "midi": 77,
          "name": "F5",
          "ticks": 34752,
          "time": 84.84375,
          "velocity": 0.84251968503937
        },
        {
          "duration": 0.1025390625,
          "durationTicks": 42,
          "midi": 65,
          "name": "F4",
          "ticks": 34752,
          "time": 84.84375,
          "velocity": 0.84251968503937
        },
        {
          "duration": 0.04638671875,
          "durationTicks": 19,
          "midi": 75,
          "name": "D#5",
          "ticks": 34848,
          "time": 85.078125,
          "velocity": 0.8110236220472441
        },
        {
          "duration": 0.04638671875,
          "durationTicks": 19,
          "midi": 63,
          "name": "D#4",
          "ticks": 34848,
          "time": 85.078125,
          "velocity": 0.8110236220472441
        },
        {
          "duration": 0.068359375,
          "durationTicks": 28,
          "midi": 75,
          "name": "D#5",
          "ticks": 34896,
          "time": 85.1953125,
          "velocity": 0.7952755905511811
        },
        {
          "duration": 0.068359375,
          "durationTicks": 28,
          "midi": 63,
          "name": "D#4",
          "ticks": 34896,
          "time": 85.1953125,
          "velocity": 0.7952755905511811
        },
        {
          "duration": 0.10986328125,
          "durationTicks": 45,
          "midi": 77,
          "name": "F5",
          "ticks": 34944,
          "time": 85.3125,
          "velocity": 0.8503937007874016
        },
        {
          "duration": 0.10986328125,
          "durationTicks": 45,
          "midi": 65,
          "name": "F4",
          "ticks": 34944,
          "time": 85.3125,
          "velocity": 0.8503937007874016
        },
        {
          "duration": 0.09521484375,
          "durationTicks": 39,
          "midi": 78,
          "name": "F#5",
          "ticks": 35040,
          "time": 85.546875,
          "velocity": 0.7952755905511811
        },
        {
          "duration": 0.09521484375,
          "durationTicks": 39,
          "midi": 66,
          "name": "F#4",
          "ticks": 35040,
          "time": 85.546875,
          "velocity": 0.7952755905511811
        },
        {
          "duration": 0.08544921875,
          "durationTicks": 35,
          "midi": 77,
          "name": "F5",
          "ticks": 35136,
          "time": 85.78125,
          "velocity": 0.7952755905511811
        },
        {
          "duration": 0.08544921875,
          "durationTicks": 35,
          "midi": 65,
          "name": "F4",
          "ticks": 35136,
          "time": 85.78125,
          "velocity": 0.7952755905511811
        },
        {
          "duration": 0.08056640625,
          "durationTicks": 33,
          "midi": 73,
          "name": "C#5",
          "ticks": 35232,
          "time": 86.015625,
          "velocity": 0.8267716535433071
        },
        {
          "duration": 0.08056640625,
          "durationTicks": 33,
          "midi": 61,
          "name": "C#4",
          "ticks": 35232,
          "time": 86.015625,
          "velocity": 0.8267716535433071
        },
        {
          "duration": 0.09521484375,
          "durationTicks": 39,
          "midi": 75,
          "name": "D#5",
          "ticks": 35328,
          "time": 86.25,
          "velocity": 0.8267716535433071
        },
        {
          "duration": 0.09521484375,
          "durationTicks": 39,
          "midi": 63,
          "name": "D#4",
          "ticks": 35328,
          "time": 86.25,
          "velocity": 0.8267716535433071
        },
        {
          "duration": 0.04638671875,
          "durationTicks": 19,
          "midi": 75,
          "name": "D#5",
          "ticks": 35616,
          "time": 86.953125,
          "velocity": 0.7322834645669292
        },
        {
          "duration": 0.04638671875,
          "durationTicks": 19,
          "midi": 63,
          "name": "D#4",
          "ticks": 35616,
          "time": 86.953125,
          "velocity": 0.7322834645669292
        },
        {
          "duration": 0.068359375,
          "durationTicks": 28,
          "midi": 75,
          "name": "D#5",
          "ticks": 35664,
          "time": 87.0703125,
          "velocity": 0.7795275590551181
        },
        {
          "duration": 0.068359375,
          "durationTicks": 28,
          "midi": 63,
          "name": "D#4",
          "ticks": 35664,
          "time": 87.0703125,
          "velocity": 0.7795275590551181
        },
        {
          "duration": 0.10986328125,
          "durationTicks": 45,
          "midi": 77,
          "name": "F5",
          "ticks": 35712,
          "time": 87.1875,
          "velocity": 0.8503937007874016
        },
        {
          "duration": 0.10986328125,
          "durationTicks": 45,
          "midi": 65,
          "name": "F4",
          "ticks": 35712,
          "time": 87.1875,
          "velocity": 0.8503937007874016
        },
        {
          "duration": 0.09521484375,
          "durationTicks": 39,
          "midi": 78,
          "name": "F#5",
          "ticks": 35808,
          "time": 87.421875,
          "velocity": 0.7952755905511811
        },
        {
          "duration": 0.09521484375,
          "durationTicks": 39,
          "midi": 66,
          "name": "F#4",
          "ticks": 35808,
          "time": 87.421875,
          "velocity": 0.7952755905511811
        },
        {
          "duration": 0.08544921875,
          "durationTicks": 35,
          "midi": 77,
          "name": "F5",
          "ticks": 35904,
          "time": 87.65625,
          "velocity": 0.8110236220472441
        },
        {
          "duration": 0.08544921875,
          "durationTicks": 35,
          "midi": 65,
          "name": "F4",
          "ticks": 35904,
          "time": 87.65625,
          "velocity": 0.8110236220472441
        },
        {
          "duration": 0.08056640625,
          "durationTicks": 33,
          "midi": 73,
          "name": "C#5",
          "ticks": 36000,
          "time": 87.890625,
          "velocity": 0.84251968503937
        },
        {
          "duration": 0.08056640625,
          "durationTicks": 33,
          "midi": 61,
          "name": "C#4",
          "ticks": 36000,
          "time": 87.890625,
          "velocity": 0.84251968503937
        },
        {
          "duration": 0.09521484375,
          "durationTicks": 39,
          "midi": 75,
          "name": "D#5",
          "ticks": 36096,
          "time": 88.125,
          "velocity": 0.8582677165354331
        },
        {
          "duration": 0.09521484375,
          "durationTicks": 39,
          "midi": 63,
          "name": "D#4",
          "ticks": 36096,
          "time": 88.125,
          "velocity": 0.8582677165354331
        },
        {
          "duration": 0.04638671875,
          "durationTicks": 19,
          "midi": 75,
          "name": "D#5",
          "ticks": 36384,
          "time": 88.828125,
          "velocity": 0.7637795275590551
        },
        {
          "duration": 0.04638671875,
          "durationTicks": 19,
          "midi": 63,
          "name": "D#4",
          "ticks": 36384,
          "time": 88.828125,
          "velocity": 0.7637795275590551
        },
        {
          "duration": 0.068359375,
          "durationTicks": 28,
          "midi": 75,
          "name": "D#5",
          "ticks": 36432,
          "time": 88.9453125,
          "velocity": 0.7637795275590551
        },
        {
          "duration": 0.068359375,
          "durationTicks": 28,
          "midi": 63,
          "name": "D#4",
          "ticks": 36432,
          "time": 88.9453125,
          "velocity": 0.7637795275590551
        },
        {
          "duration": 0.10986328125,
          "durationTicks": 45,
          "midi": 77,
          "name": "F5",
          "ticks": 36480,
          "time": 89.0625,
          "velocity": 0.8503937007874016
        },
        {
          "duration": 0.10986328125,
          "durationTicks": 45,
          "midi": 65,
          "name": "F4",
          "ticks": 36480,
          "time": 89.0625,
          "velocity": 0.8503937007874016
        },
        {
          "duration": 0.09521484375,
          "durationTicks": 39,
          "midi": 78,
          "name": "F#5",
          "ticks": 36576,
          "time": 89.296875,
          "velocity": 0.8110236220472441
        },
        {
          "duration": 0.09521484375,
          "durationTicks": 39,
          "midi": 66,
          "name": "F#4",
          "ticks": 36576,
          "time": 89.296875,
          "velocity": 0.8110236220472441
        },
        {
          "duration": 0.08544921875,
          "durationTicks": 35,
          "midi": 77,
          "name": "F5",
          "ticks": 36672,
          "time": 89.53125,
          "velocity": 0.84251968503937
        },
        {
          "duration": 0.08544921875,
          "durationTicks": 35,
          "midi": 65,
          "name": "F4",
          "ticks": 36672,
          "time": 89.53125,
          "velocity": 0.84251968503937
        },
        {
          "duration": 0.08056640625,
          "durationTicks": 33,
          "midi": 73,
          "name": "C#5",
          "ticks": 36768,
          "time": 89.765625,
          "velocity": 0.8267716535433071
        },
        {
          "duration": 0.08056640625,
          "durationTicks": 33,
          "midi": 61,
          "name": "C#4",
          "ticks": 36768,
          "time": 89.765625,
          "velocity": 0.8267716535433071
        },
        {
          "duration": 0.09521484375,
          "durationTicks": 39,
          "midi": 75,
          "name": "D#5",
          "ticks": 36864,
          "time": 90,
          "velocity": 0.84251968503937
        },
        {
          "duration": 0.09521484375,
          "durationTicks": 39,
          "midi": 63,
          "name": "D#4",
          "ticks": 36864,
          "time": 90,
          "velocity": 0.84251968503937
        },
        {
          "duration": 0.10009765625,
          "durationTicks": 41,
          "midi": 75,
          "name": "D#5",
          "ticks": 75168,
          "time": 183.515625,
          "velocity": 0.8582677165354331
        },
        {
          "duration": 0.10009765625,
          "durationTicks": 41,
          "midi": 63,
          "name": "D#4",
          "ticks": 75168,
          "time": 183.515625,
          "velocity": 0.8582677165354331
        },
        {
          "duration": 0.10986328125,
          "durationTicks": 45,
          "midi": 82,
          "name": "A#5",
          "ticks": 75264,
          "time": 183.75,
          "velocity": 0.8740157480314961
        },
        {
          "duration": 0.10986328125,
          "durationTicks": 45,
          "midi": 70,
          "name": "A#4",
          "ticks": 75264,
          "time": 183.75,
          "velocity": 0.8740157480314961
        },
        {
          "duration": 0.126953125,
          "durationTicks": 52,
          "midi": 83,
          "name": "B5",
          "ticks": 75456,
          "time": 184.21875,
          "velocity": 0.889763779527559
        },
        {
          "duration": 0.126953125,
          "durationTicks": 52,
          "midi": 71,
          "name": "B4",
          "ticks": 75456,
          "time": 184.21875,
          "velocity": 0.889763779527559
        },
        {
          "duration": 0.03662109375,
          "durationTicks": 15,
          "midi": 82,
          "name": "A#5",
          "ticks": 75648,
          "time": 184.6875,
          "velocity": 0.7795275590551181
        },
        {
          "duration": 0.03662109375,
          "durationTicks": 15,
          "midi": 70,
          "name": "A#4",
          "ticks": 75648,
          "time": 184.6875,
          "velocity": 0.7795275590551181
        },
        {
          "duration": 0.048828125,
          "durationTicks": 20,
          "midi": 75,
          "name": "D#5",
          "ticks": 75696,
          "time": 184.8046875,
          "velocity": 0.7007874015748031
        },
        {
          "duration": 0.048828125,
          "durationTicks": 20,
          "midi": 63,
          "name": "D#4",
          "ticks": 75696,
          "time": 184.8046875,
          "velocity": 0.7007874015748031
        },
        {
          "duration": 0.0537109375,
          "durationTicks": 22,
          "midi": 75,
          "name": "D#5",
          "ticks": 75744,
          "time": 184.921875,
          "velocity": 0.7952755905511811
        },
        {
          "duration": 0.0537109375,
          "durationTicks": 22,
          "midi": 63,
          "name": "D#4",
          "ticks": 75744,
          "time": 184.921875,
          "velocity": 0.7952755905511811
        },
        {
          "duration": 0.0732421875,
          "durationTicks": 30,
          "midi": 75,
          "name": "D#5",
          "ticks": 75792,
          "time": 185.0390625,
          "velocity": 0.7795275590551181
        },
        {
          "duration": 0.0732421875,
          "durationTicks": 30,
          "midi": 63,
          "name": "D#4",
          "ticks": 75792,
          "time": 185.0390625,
          "velocity": 0.7795275590551181
        },
        {
          "duration": 0.1025390625,
          "durationTicks": 42,
          "midi": 77,
          "name": "F5",
          "ticks": 75840,
          "time": 185.15625,
          "velocity": 0.8267716535433071
        },
        {
          "duration": 0.1025390625,
          "durationTicks": 42,
          "midi": 65,
          "name": "F4",
          "ticks": 75840,
          "time": 185.15625,
          "velocity": 0.8267716535433071
        },
        {
          "duration": 0.04638671875,
          "durationTicks": 19,
          "midi": 75,
          "name": "D#5",
          "ticks": 75936,
          "time": 185.390625,
          "velocity": 0.8110236220472441
        },
        {
          "duration": 0.04638671875,
          "durationTicks": 19,
          "midi": 63,
          "name": "D#4",
          "ticks": 75936,
          "time": 185.390625,
          "velocity": 0.8110236220472441
        },
        {
          "duration": 0.068359375,
          "durationTicks": 28,
          "midi": 75,
          "name": "D#5",
          "ticks": 75984,
          "time": 185.5078125,
          "velocity": 0.8110236220472441
        },
        {
          "duration": 0.068359375,
          "durationTicks": 28,
          "midi": 63,
          "name": "D#4",
          "ticks": 75984,
          "time": 185.5078125,
          "velocity": 0.8110236220472441
        },
        {
          "duration": 0.10986328125,
          "durationTicks": 45,
          "midi": 77,
          "name": "F5",
          "ticks": 76032,
          "time": 185.625,
          "velocity": 0.8503937007874016
        },
        {
          "duration": 0.10986328125,
          "durationTicks": 45,
          "midi": 65,
          "name": "F4",
          "ticks": 76032,
          "time": 185.625,
          "velocity": 0.8503937007874016
        },
        {
          "duration": 0.09521484375,
          "durationTicks": 39,
          "midi": 78,
          "name": "F#5",
          "ticks": 76128,
          "time": 185.859375,
          "velocity": 0.8110236220472441
        },
        {
          "duration": 0.09521484375,
          "durationTicks": 39,
          "midi": 66,
          "name": "F#4",
          "ticks": 76128,
          "time": 185.859375,
          "velocity": 0.8110236220472441
        },
        {
          "duration": 0.08544921875,
          "durationTicks": 35,
          "midi": 77,
          "name": "F5",
          "ticks": 76224,
          "time": 186.09375,
          "velocity": 0.8267716535433071
        },
        {
          "duration": 0.08544921875,
          "durationTicks": 35,
          "midi": 65,
          "name": "F4",
          "ticks": 76224,
          "time": 186.09375,
          "velocity": 0.8267716535433071
        },
        {
          "duration": 0.08056640625,
          "durationTicks": 33,
          "midi": 73,
          "name": "C#5",
          "ticks": 76320,
          "time": 186.328125,
          "velocity": 0.84251968503937
        },
        {
          "duration": 0.08056640625,
          "durationTicks": 33,
          "midi": 61,
          "name": "C#4",
          "ticks": 76320,
          "time": 186.328125,
          "velocity": 0.84251968503937
        },
        {
          "duration": 0.09521484375,
          "durationTicks": 39,
          "midi": 75,
          "name": "D#5",
          "ticks": 76416,
          "time": 186.5625,
          "velocity": 0.84251968503937
        },
        {
          "duration": 0.09521484375,
          "durationTicks": 39,
          "midi": 63,
          "name": "D#4",
          "ticks": 76416,
          "time": 186.5625,
          "velocity": 0.84251968503937
        },
        {
          "duration": 0.10009765625,
          "durationTicks": 41,
          "midi": 75,
          "name": "D#5",
          "ticks": 76704,
          "time": 187.265625,
          "velocity": 0.8582677165354331
        },
        {
          "duration": 0.10009765625,
          "durationTicks": 41,
          "midi": 63,
          "name": "D#4",
          "ticks": 76704,
          "time": 187.265625,
          "velocity": 0.8582677165354331
        },
        {
          "duration": 0.10986328125,
          "durationTicks": 45,
          "midi": 82,
          "name": "A#5",
          "ticks": 76800,
          "time": 187.5,
          "velocity": 0.8582677165354331
        },
        {
          "duration": 0.10986328125,
          "durationTicks": 45,
          "midi": 70,
          "name": "A#4",
          "ticks": 76800,
          "time": 187.5,
          "velocity": 0.8582677165354331
        },
        {
          "duration": 0.126953125,
          "durationTicks": 52,
          "midi": 83,
          "name": "B5",
          "ticks": 76992,
          "time": 187.96875,
          "velocity": 0.8582677165354331
        },
        {
          "duration": 0.126953125,
          "durationTicks": 52,
          "midi": 71,
          "name": "B4",
          "ticks": 76992,
          "time": 187.96875,
          "velocity": 0.8582677165354331
        },
        {
          "duration": 0.03662109375,
          "durationTicks": 15,
          "midi": 82,
          "name": "A#5",
          "ticks": 77184,
          "time": 188.4375,
          "velocity": 0.7795275590551181
        },
        {
          "duration": 0.03662109375,
          "durationTicks": 15,
          "midi": 70,
          "name": "A#4",
          "ticks": 77184,
          "time": 188.4375,
          "velocity": 0.7795275590551181
        },
        {
          "duration": 0.048828125,
          "durationTicks": 20,
          "midi": 75,
          "name": "D#5",
          "ticks": 77232,
          "time": 188.5546875,
          "velocity": 0.7952755905511811
        },
        {
          "duration": 0.048828125,
          "durationTicks": 20,
          "midi": 63,
          "name": "D#4",
          "ticks": 77232,
          "time": 188.5546875,
          "velocity": 0.7952755905511811
        },
        {
          "duration": 0.0537109375,
          "durationTicks": 22,
          "midi": 75,
          "name": "D#5",
          "ticks": 77280,
          "time": 188.671875,
          "velocity": 0.7952755905511811
        },
        {
          "duration": 0.0537109375,
          "durationTicks": 22,
          "midi": 63,
          "name": "D#4",
          "ticks": 77280,
          "time": 188.671875,
          "velocity": 0.7952755905511811
        },
        {
          "duration": 0.0732421875,
          "durationTicks": 30,
          "midi": 75,
          "name": "D#5",
          "ticks": 77328,
          "time": 188.7890625,
          "velocity": 0.8110236220472441
        },
        {
          "duration": 0.0732421875,
          "durationTicks": 30,
          "midi": 63,
          "name": "D#4",
          "ticks": 77328,
          "time": 188.7890625,
          "velocity": 0.8110236220472441
        },
        {
          "duration": 0.1025390625,
          "durationTicks": 42,
          "midi": 77,
          "name": "F5",
          "ticks": 77376,
          "time": 188.90625,
          "velocity": 0.8582677165354331
        },
        {
          "duration": 0.1025390625,
          "durationTicks": 42,
          "midi": 65,
          "name": "F4",
          "ticks": 77376,
          "time": 188.90625,
          "velocity": 0.8582677165354331
        },
        {
          "duration": 0.04638671875,
          "durationTicks": 19,
          "midi": 75,
          "name": "D#5",
          "ticks": 77472,
          "time": 189.140625,
          "velocity": 0.8110236220472441
        },
        {
          "duration": 0.04638671875,
          "durationTicks": 19,
          "midi": 63,
          "name": "D#4",
          "ticks": 77472,
          "time": 189.140625,
          "velocity": 0.8110236220472441
        },
        {
          "duration": 0.068359375,
          "durationTicks": 28,
          "midi": 75,
          "name": "D#5",
          "ticks": 77520,
          "time": 189.2578125,
          "velocity": 0.7952755905511811
        },
        {
          "duration": 0.068359375,
          "durationTicks": 28,
          "midi": 63,
          "name": "D#4",
          "ticks": 77520,
          "time": 189.2578125,
          "velocity": 0.7952755905511811
        },
        {
          "duration": 0.10986328125,
          "durationTicks": 45,
          "midi": 77,
          "name": "F5",
          "ticks": 77568,
          "time": 189.375,
          "velocity": 0.8503937007874016
        },
        {
          "duration": 0.10986328125,
          "durationTicks": 45,
          "midi": 65,
          "name": "F4",
          "ticks": 77568,
          "time": 189.375,
          "velocity": 0.8503937007874016
        },
        {
          "duration": 0.09521484375,
          "durationTicks": 39,
          "midi": 78,
          "name": "F#5",
          "ticks": 77664,
          "time": 189.609375,
          "velocity": 0.8110236220472441
        },
        {
          "duration": 0.09521484375,
          "durationTicks": 39,
          "midi": 66,
          "name": "F#4",
          "ticks": 77664,
          "time": 189.609375,
          "velocity": 0.8110236220472441
        },
        {
          "duration": 0.08544921875,
          "durationTicks": 35,
          "midi": 77,
          "name": "F5",
          "ticks": 77760,
          "time": 189.84375,
          "velocity": 0.8267716535433071
        },
        {
          "duration": 0.08544921875,
          "durationTicks": 35,
          "midi": 65,
          "name": "F4",
          "ticks": 77760,
          "time": 189.84375,
          "velocity": 0.8267716535433071
        },
        {
          "duration": 0.08056640625,
          "durationTicks": 33,
          "midi": 73,
          "name": "C#5",
          "ticks": 77856,
          "time": 190.078125,
          "velocity": 0.8267716535433071
        },
        {
          "duration": 0.08056640625,
          "durationTicks": 33,
          "midi": 61,
          "name": "C#4",
          "ticks": 77856,
          "time": 190.078125,
          "velocity": 0.8267716535433071
        },
        {
          "duration": 0.09521484375,
          "durationTicks": 39,
          "midi": 75,
          "name": "D#5",
          "ticks": 77952,
          "time": 190.3125,
          "velocity": 0.8267716535433071
        },
        {
          "duration": 0.09521484375,
          "durationTicks": 39,
          "midi": 63,
          "name": "D#4",
          "ticks": 77952,
          "time": 190.3125,
          "velocity": 0.8267716535433071
        },
        {
          "duration": 0.04638671875,
          "durationTicks": 19,
          "midi": 75,
          "name": "D#5",
          "ticks": 78240,
          "time": 191.015625,
          "velocity": 0.5984251968503937
        },
        {
          "duration": 0.04638671875,
          "durationTicks": 19,
          "midi": 63,
          "name": "D#4",
          "ticks": 78240,
          "time": 191.015625,
          "velocity": 0.5984251968503937
        },
        {
          "duration": 0.068359375,
          "durationTicks": 28,
          "midi": 75,
          "name": "D#5",
          "ticks": 78288,
          "time": 191.1328125,
          "velocity": 0.7480314960629921
        },
        {
          "duration": 0.068359375,
          "durationTicks": 28,
          "midi": 63,
          "name": "D#4",
          "ticks": 78288,
          "time": 191.1328125,
          "velocity": 0.7480314960629921
        },
        {
          "duration": 0.10986328125,
          "durationTicks": 45,
          "midi": 77,
          "name": "F5",
          "ticks": 78336,
          "time": 191.25,
          "velocity": 0.8503937007874016
        },
        {
          "duration": 0.10986328125,
          "durationTicks": 45,
          "midi": 65,
          "name": "F4",
          "ticks": 78336,
          "time": 191.25,
          "velocity": 0.8503937007874016
        },
        {
          "duration": 0.09521484375,
          "durationTicks": 39,
          "midi": 78,
          "name": "F#5",
          "ticks": 78432,
          "time": 191.484375,
          "velocity": 0.8110236220472441
        },
        {
          "duration": 0.09521484375,
          "durationTicks": 39,
          "midi": 66,
          "name": "F#4",
          "ticks": 78432,
          "time": 191.484375,
          "velocity": 0.8110236220472441
        },
        {
          "duration": 0.08544921875,
          "durationTicks": 35,
          "midi": 77,
          "name": "F5",
          "ticks": 78528,
          "time": 191.71875,
          "velocity": 0.8267716535433071
        },
        {
          "duration": 0.08544921875,
          "durationTicks": 35,
          "midi": 65,
          "name": "F4",
          "ticks": 78528,
          "time": 191.71875,
          "velocity": 0.8267716535433071
        },
        {
          "duration": 0.08056640625,
          "durationTicks": 33,
          "midi": 73,
          "name": "C#5",
          "ticks": 78624,
          "time": 191.953125,
          "velocity": 0.8110236220472441
        },
        {
          "duration": 0.08056640625,
          "durationTicks": 33,
          "midi": 61,
          "name": "C#4",
          "ticks": 78624,
          "time": 191.953125,
          "velocity": 0.8110236220472441
        },
        {
          "duration": 0.09521484375,
          "durationTicks": 39,
          "midi": 75,
          "name": "D#5",
          "ticks": 78720,
          "time": 192.1875,
          "velocity": 0.8110236220472441
        },
        {
          "duration": 0.09521484375,
          "durationTicks": 39,
          "midi": 63,
          "name": "D#4",
          "ticks": 78720,
          "time": 192.1875,
          "velocity": 0.8110236220472441
        },
        {
          "duration": 0.04638671875,
          "durationTicks": 19,
          "midi": 75,
          "name": "D#5",
          "ticks": 79008,
          "time": 192.890625,
          "velocity": 0.7322834645669292
        },
        {
          "duration": 0.04638671875,
          "durationTicks": 19,
          "midi": 63,
          "name": "D#4",
          "ticks": 79008,
          "time": 192.890625,
          "velocity": 0.7322834645669292
        },
        {
          "duration": 0.068359375,
          "durationTicks": 28,
          "midi": 75,
          "name": "D#5",
          "ticks": 79056,
          "time": 193.0078125,
          "velocity": 0.7480314960629921
        },
        {
          "duration": 0.068359375,
          "durationTicks": 28,
          "midi": 63,
          "name": "D#4",
          "ticks": 79056,
          "time": 193.0078125,
          "velocity": 0.7480314960629921
        },
        {
          "duration": 0.10986328125,
          "durationTicks": 45,
          "midi": 77,
          "name": "F5",
          "ticks": 79104,
          "time": 193.125,
          "velocity": 0.8503937007874016
        },
        {
          "duration": 0.10986328125,
          "durationTicks": 45,
          "midi": 65,
          "name": "F4",
          "ticks": 79104,
          "time": 193.125,
          "velocity": 0.8503937007874016
        },
        {
          "duration": 0.09521484375,
          "durationTicks": 39,
          "midi": 78,
          "name": "F#5",
          "ticks": 79200,
          "time": 193.359375,
          "velocity": 0.8110236220472441
        },
        {
          "duration": 0.09521484375,
          "durationTicks": 39,
          "midi": 66,
          "name": "F#4",
          "ticks": 79200,
          "time": 193.359375,
          "velocity": 0.8110236220472441
        },
        {
          "duration": 0.08544921875,
          "durationTicks": 35,
          "midi": 77,
          "name": "F5",
          "ticks": 79296,
          "time": 193.59375,
          "velocity": 0.8267716535433071
        },
        {
          "duration": 0.08544921875,
          "durationTicks": 35,
          "midi": 65,
          "name": "F4",
          "ticks": 79296,
          "time": 193.59375,
          "velocity": 0.8267716535433071
        },
        {
          "duration": 0.08056640625,
          "durationTicks": 33,
          "midi": 73,
          "name": "C#5",
          "ticks": 79392,
          "time": 193.828125,
          "velocity": 0.84251968503937
        },
        {
          "duration": 0.08056640625,
          "durationTicks": 33,
          "midi": 61,
          "name": "C#4",
          "ticks": 79392,
          "time": 193.828125,
          "velocity": 0.84251968503937
        },
        {
          "duration": 0.09521484375,
          "durationTicks": 39,
          "midi": 75,
          "name": "D#5",
          "ticks": 79488,
          "time": 194.0625,
          "velocity": 0.84251968503937
        },
        {
          "duration": 0.09521484375,
          "durationTicks": 39,
          "midi": 63,
          "name": "D#4",
          "ticks": 79488,
          "time": 194.0625,
          "velocity": 0.84251968503937
        }
      ]
    },
    {
      "channel": 9,
      "controlChanges": {
        "0": [
          {
            "number": 0,
            "ticks": 338,
            "time": 0.8251953125,
            "value": 0
          }
        ],
        "6": [
          {
            "number": 6,
            "ticks": 442,
            "time": 1.0791015625,
            "value": 0.5196850393700787
          },
          {
            "number": 6,
            "ticks": 446,
            "time": 1.0888671875,
            "value": 0.5118110236220472
          },
          {
            "number": 6,
            "ticks": 452,
            "time": 1.103515625,
            "value": 0.5039370078740157
          },
          {
            "number": 6,
            "ticks": 456,
            "time": 1.11328125,
            "value": 1
          },
          {
            "number": 6,
            "ticks": 460,
            "time": 1.123046875,
            "value": 1
          }
        ],
        "7": [
          {
            "number": 7,
            "ticks": 344,
            "time": 0.83984375,
            "value": 0.9448818897637795
          }
        ],
        "10": [
          {
            "number": 10,
            "ticks": 346,
            "time": 0.8447265625,
            "value": 0.5039370078740157
          }
        ],
        "11": [
          {
            "number": 11,
            "ticks": 348,
            "time": 0.849609375,
            "value": 1
          }
        ],
        "32": [
          {
            "number": 32,
            "ticks": 340,
            "time": 0.830078125,
            "value": 0
          }
        ],
        "91": [
          {
            "number": 91,
            "ticks": 350,
            "time": 0.8544921875,
            "value": 1
          }
        ],
        "93": [
          {
            "number": 93,
            "ticks": 352,
            "time": 0.859375,
            "value": 0.31496062992125984
          }
        ],
        "98": [
          {
            "number": 98,
            "ticks": 440,
            "time": 1.07421875,
            "value": 0.2992125984251969
          },
          {
            "number": 98,
            "ticks": 444,
            "time": 1.083984375,
            "value": 0.30708661417322836
          },
          {
            "number": 98,
            "ticks": 450,
            "time": 1.0986328125,
            "value": 0.2755905511811024
          },
          {
            "number": 98,
            "ticks": 454,
            "time": 1.1083984375,
            "value": 0.2992125984251969
          },
          {
            "number": 98,
            "ticks": 458,
            "time": 1.1181640625,
            "value": 0.30708661417322836
          }
        ],
        "99": [
          {
            "number": 99,
            "ticks": 438,
            "time": 1.0693359375,
            "value": 0.1889763779527559
          },
          {
            "number": 99,
            "ticks": 448,
            "time": 1.09375,
            "value": 0.2283464566929134
          }
        ],
        "100": [
          {
            "number": 100,
            "ticks": 462,
            "time": 1.1279296875,
            "value": 1
          }
        ],
        "101": [
          {
            "number": 101,
            "ticks": 464,
            "time": 1.1328125,
            "value": 1
          }
        ],
        "121": [
          {
            "number": 121,
            "ticks": 192,
            "time": 0.46875,
            "value": 0
          }
        ]
      },
      "pitchBends": [],
      "instrument": {
        "family": "drums",
        "number": 0,
        "name": "standard kit"
      },
      "name": "",
      "notes": [
        {
          "duration": 0.004882812500000222,
          "durationTicks": 2,
          "midi": 82,
          "name": "A#5",
          "ticks": 768,
          "time": 1.875,
          "velocity": 0.47244094488188976
        },
        {
          "duration": 0.004882812500000222,
          "durationTicks": 2,
          "midi": 42,
          "name": "F#2",
          "ticks": 768,
          "time": 1.875,
          "velocity": 0.36220472440944884
        },
        {
          "duration": 0.0048828125,
          "durationTicks": 2,
          "midi": 82,
          "name": "A#5",
          "ticks": 864,
          "time": 2.109375,
          "velocity": 0.3937007874015748
        },
        {
          "duration": 0.0048828125,
          "durationTicks": 2,
          "midi": 73,
          "name": "C#5",
          "ticks": 864,
          "time": 2.109375,
          "velocity": 0.7795275590551181
        },
        {
          "duration": 0.0048828125,
          "durationTicks": 2,
          "midi": 73,
          "name": "C#5",
          "ticks": 912,
          "time": 2.2265625,
          "velocity": 0.6850393700787402
        },
        {
          "duration": 0.0048828125,
          "durationTicks": 2,
          "midi": 82,
          "name": "A#5",
          "ticks": 960,
          "time": 2.34375,
          "velocity": 0.3858267716535433
        },
        {
          "duration": 0.0048828125,
          "durationTicks": 2,
          "midi": 73,
          "name": "C#5",
          "ticks": 960,
          "time": 2.34375,
          "velocity": 0.5590551181102362
        },
        {
          "duration": 0.0048828125,
          "durationTicks": 2,
          "midi": 42,
          "name": "F#2",
          "ticks": 960,
          "time": 2.34375,
          "velocity": 0.49606299212598426
        },
        {
          "duration": 0.0048828125,
          "durationTicks": 2,
          "midi": 82,
          "name": "A#5",
          "ticks": 1056,
          "time": 2.578125,
          "velocity": 0.3700787401574803
        },
        {
          "duration": 0.0048828125,
          "durationTicks": 2,
          "midi": 73,
          "name": "C#5",
          "ticks": 1056,
          "time": 2.578125,
          "velocity": 0.8661417322834646
        },
        {
          "duration": 0.0048828125,
          "durationTicks": 2,
          "midi": 42,
          "name": "F#2",
          "ticks": 1056,
          "time": 2.578125,
          "velocity": 0.6614173228346457
        },
        {
          "duration": 0.0048828125,
          "durationTicks": 2,
          "midi": 42,
          "name": "F#2",
          "ticks": 1104,
          "time": 2.6953125,
          "velocity": 0.6771653543307087
        },
        {
          "duration": 0.0048828125,
          "durationTicks": 2,
          "midi": 82,
          "name": "A#5",
          "ticks": 1152,
          "time": 2.8125,
          "velocity": 0.3700787401574803
        },
        {
          "duration": 0.0048828125,
          "durationTicks": 2,
          "midi": 73,
          "name": "C#5",
          "ticks": 1152,
          "time": 2.8125,
          "velocity": 0.6850393700787402
        },
        {
          "duration": 0.0048828125,
          "durationTicks": 2,
          "midi": 69,
          "name": "A4",
          "ticks": 1152,
          "time": 2.8125,
          "velocity": 0.4409448818897638
        },
        {
          "duration": 0.0048828125,
          "durationTicks": 2,
          "midi": 42,
          "name": "F#2",
          "ticks": 1152,
          "time": 2.8125,
          "velocity": 0.5511811023622047
        },
        {
          "duration": 0.0048828125,
          "durationTicks": 2,
          "midi": 69,
          "name": "A4",
          "ticks": 1248,
          "time": 3.046875,
          "velocity": 0.47244094488188976
        },
        {
          "duration": 0.0048828125,
          "durationTicks": 2,
          "midi": 69,
          "name": "A4",
          "ticks": 1344,
          "time": 3.28125,
          "velocity": 0.5196850393700787
        },
        {
          "duration": 0.0048828125,
          "durationTicks": 2,
          "midi": 42,
          "name": "F#2",
          "ticks": 1344,
          "time": 3.28125,
          "velocity": 0.4566929133858268
        },
        {
          "duration": 0.0048828125,
          "durationTicks": 2,
          "midi": 69,
          "name": "A4",
          "ticks": 1440,
          "time": 3.515625,
          "velocity": 0.5748031496062992
        },
        {
          "duration": 0.004882812499999556,
          "durationTicks": 2,
          "midi": 82,
          "name": "A#5",
          "ticks": 1536,
          "time": 3.75,
          "velocity": 0.4015748031496063
        },
        {
          "duration": 0.004882812499999556,
          "durationTicks": 2,
          "midi": 42,
          "name": "F#2",
          "ticks": 1536,
          "time": 3.75,
          "velocity": 0.2677165354330709
        },
        {
          "duration": 0.004882812499999556,
          "durationTicks": 2,
          "midi": 82,
          "name": "A#5",
          "ticks": 1632,
          "time": 3.984375,
          "velocity": 0.3937007874015748
        },
        {
          "duration": 0.004882812499999556,
          "durationTicks": 2,
          "midi": 73,
          "name": "C#5",
          "ticks": 1632,
          "time": 3.984375,
          "velocity": 0.7165354330708661
        },
        {
          "duration": 0.0048828125,
          "durationTicks": 2,
          "midi": 73,
          "name": "C#5",
          "ticks": 1680,
          "time": 4.1015625,
          "velocity": 0.6377952755905512
        },
        {
          "duration": 0.0048828125,
          "durationTicks": 2,
          "midi": 82,
          "name": "A#5",
          "ticks": 1728,
          "time": 4.21875,
          "velocity": 0.4015748031496063
        },
        {
          "duration": 0.0048828125,
          "durationTicks": 2,
          "midi": 73,
          "name": "C#5",
          "ticks": 1728,
          "time": 4.21875,
          "velocity": 0.47244094488188976
        },
        {
          "duration": 0.0048828125,
          "durationTicks": 2,
          "midi": 42,
          "name": "F#2",
          "ticks": 1728,
          "time": 4.21875,
          "velocity": 0.5669291338582677
        },
        {
          "duration": 0.0048828125,
          "durationTicks": 2,
          "midi": 82,
          "name": "A#5",
          "ticks": 1824,
          "time": 4.453125,
          "velocity": 0.4409448818897638
        },
        {
          "duration": 0.0048828125,
          "durationTicks": 2,
          "midi": 73,
          "name": "C#5",
          "ticks": 1824,
          "time": 4.453125,
          "velocity": 0.84251968503937
        },
        {
          "duration": 0.0048828125,
          "durationTicks": 2,
          "midi": 42,
          "name": "F#2",
          "ticks": 1824,
          "time": 4.453125,
          "velocity": 0.7086614173228346
        },
        {
          "duration": 0.0048828125,
          "durationTicks": 2,
          "midi": 42,
          "name": "F#2",
          "ticks": 1872,
          "time": 4.5703125,
          "velocity": 0.6771653543307087
        },
        {
          "duration": 0.0048828125,
          "durationTicks": 2,
          "midi": 82,
          "name": "A#5",
          "ticks": 1920,
          "time": 4.6875,
          "velocity": 0.4409448818897638
        },
        {
          "duration": 0.0048828125,
          "durationTicks": 2,
          "midi": 73,
          "name": "C#5",
          "ticks": 1920,
          "time": 4.6875,
          "velocity": 0.6850393700787402
        },
        {
          "duration": 0.0048828125,
          "durationTicks": 2,
          "midi": 69,
          "name": "A4",
          "ticks": 1920,
          "time": 4.6875,
          "velocity": 0.5511811023622047
        },
        {
          "duration": 0.0048828125,
          "durationTicks": 2,
          "midi": 42,
          "name": "F#2",
          "ticks": 1920,
          "time": 4.6875,
          "velocity": 0.5669291338582677
        },
        {
          "duration": 0.0048828125,
          "durationTicks": 2,
          "midi": 69,
          "name": "A4",
          "ticks": 2016,
          "time": 4.921875,
          "velocity": 0.5039370078740157
        },
        {
          "duration": 0.0048828125,
          "durationTicks": 2,
          "midi": 42,
          "name": "F#2",
          "ticks": 2016,
          "time": 4.921875,
          "velocity": 0.3858267716535433
        },
        {
          "duration": 0.0048828125,
          "durationTicks": 2,
          "midi": 69,
          "name": "A4",
          "ticks": 2112,
          "time": 5.15625,
          "velocity": 0.47244094488188976
        },
        {
          "duration": 0.0048828125,
          "durationTicks": 2,
          "midi": 42,
          "name": "F#2",
          "ticks": 2112,
          "time": 5.15625,
          "velocity": 0.30708661417322836
        },
        {
          "duration": 0.0048828125,
          "durationTicks": 2,
          "midi": 69,
          "name": "A4",
          "ticks": 2208,
          "time": 5.390625,
          "velocity": 0.5354330708661418
        },
        {
          "duration": 0.0048828125,
          "durationTicks": 2,
          "midi": 82,
          "name": "A#5",
          "ticks": 2304,
          "time": 5.625,
          "velocity": 0.4409448818897638
        },
        {
          "duration": 0.0048828125,
          "durationTicks": 2,
          "midi": 42,
          "name": "F#2",
          "ticks": 2304,
          "time": 5.625,
          "velocity": 0.5984251968503937
        },
        {
          "duration": 0.0048828125,
          "durationTicks": 2,
          "midi": 82,
          "name": "A#5",
          "ticks": 2400,
          "time": 5.859375,
          "velocity": 0.5039370078740157
        },
        {
          "duration": 0.0048828125,
          "durationTicks": 2,
          "midi": 73,
          "name": "C#5",
          "ticks": 2400,
          "time": 5.859375,
          "velocity": 0.84251968503937
        },
        {
          "duration": 0.0048828125,
          "durationTicks": 2,
          "midi": 73,
          "name": "C#5",
          "ticks": 2448,
          "time": 5.9765625,
          "velocity": 0.6377952755905512
        },
        {
          "duration": 0.0048828125,
          "durationTicks": 2,
          "midi": 82,
          "name": "A#5",
          "ticks": 2496,
          "time": 6.09375,
          "velocity": 0.4330708661417323
        },
        {
          "duration": 0.0048828125,
          "durationTicks": 2,
          "midi": 73,
          "name": "C#5",
          "ticks": 2496,
          "time": 6.09375,
          "velocity": 0.5433070866141733
        },
        {
          "duration": 0.0048828125,
          "durationTicks": 2,
          "midi": 42,
          "name": "F#2",
          "ticks": 2496,
          "time": 6.09375,
          "velocity": 0.5984251968503937
        },
        {
          "duration": 0.0048828125,
          "durationTicks": 2,
          "midi": 82,
          "name": "A#5",
          "ticks": 2592,
          "time": 6.328125,
          "velocity": 0.5354330708661418
        },
        {
          "duration": 0.0048828125,
          "durationTicks": 2,
          "midi": 73,
          "name": "C#5",
          "ticks": 2592,
          "time": 6.328125,
          "velocity": 0.84251968503937
        },
        {
          "duration": 0.0048828125,
          "durationTicks": 2,
          "midi": 42,
          "name": "F#2",
          "ticks": 2592,
          "time": 6.328125,
          "velocity": 0.6220472440944882
        },
        {
          "duration": 0.0048828125,
          "durationTicks": 2,
          "midi": 42,
          "name": "F#2",
          "ticks": 2640,
          "time": 6.4453125,
          "velocity": 0.6220472440944882
        },
        {
          "duration": 0.0048828125,
          "durationTicks": 2,
          "midi": 82,
          "name": "A#5",
          "ticks": 2688,
          "time": 6.5625,
          "velocity": 0.5354330708661418
        },
        {
          "duration": 0.0048828125,
          "durationTicks": 2,
          "midi": 73,
          "name": "C#5",
          "ticks": 2688,
          "time": 6.5625,
          "velocity": 0.6377952755905512
        },
        {
          "duration": 0.0048828125,
          "durationTicks": 2,
          "midi": 69,
          "name": "A4",
          "ticks": 2688,
          "time": 6.5625,
          "velocity": 0.5748031496062992
        },
        {
          "duration": 0.0048828125,
          "durationTicks": 2,
          "midi": 42,
          "name": "F#2",
          "ticks": 2688,
          "time": 6.5625,
          "velocity": 0.5748031496062992
        },
        {
          "duration": 0.0048828125,
          "durationTicks": 2,
          "midi": 69,
          "name": "A4",
          "ticks": 2784,
          "time": 6.796875,
          "velocity": 0.5748031496062992
        },
        {
          "duration": 0.0048828125,
          "durationTicks": 2,
          "midi": 42,
          "name": "F#2",
          "ticks": 2784,
          "time": 6.796875,
          "velocity": 0.29133858267716534
        },
        {
          "duration": 0.0048828125,
          "durationTicks": 2,
          "midi": 69,
          "name": "A4",
          "ticks": 2880,
          "time": 7.03125,
          "velocity": 0.5511811023622047
        },
        {
          "duration": 0.0048828125,
          "durationTicks": 2,
          "midi": 42,
          "name": "F#2",
          "ticks": 2880,
          "time": 7.03125,
          "velocity": 0.29133858267716534
        },
        {
          "duration": 0.0048828125,
          "durationTicks": 2,
          "midi": 69,
          "name": "A4",
          "ticks": 2976,
          "time": 7.265625,
          "velocity": 0.5511811023622047
        },
        {
          "duration": 0.004882812500000888,
          "durationTicks": 2,
          "midi": 82,
          "name": "A#5",
          "ticks": 3072,
          "time": 7.5,
          "velocity": 0.47244094488188976
        },
        {
          "duration": 0.004882812500000888,
          "durationTicks": 2,
          "midi": 42,
          "name": "F#2",
          "ticks": 3072,
          "time": 7.5,
          "velocity": 0.4645669291338583
        },
        {
          "duration": 0.004882812500000888,
          "durationTicks": 2,
          "midi": 82,
          "name": "A#5",
          "ticks": 3168,
          "time": 7.734375,
          "velocity": 0.4409448818897638
        },
        {
          "duration": 0.004882812500000888,
          "durationTicks": 2,
          "midi": 73,
          "name": "C#5",
          "ticks": 3168,
          "time": 7.734375,
          "velocity": 0.7165354330708661
        },
        {
          "duration": 0.004882812500000888,
          "durationTicks": 2,
          "midi": 73,
          "name": "C#5",
          "ticks": 3216,
          "time": 7.8515625,
          "velocity": 0.6850393700787402
        },
        {
          "duration": 0.004882812500000888,
          "durationTicks": 2,
          "midi": 82,
          "name": "A#5",
          "ticks": 3264,
          "time": 7.96875,
          "velocity": 0.49606299212598426
        },
        {
          "duration": 0.004882812500000888,
          "durationTicks": 2,
          "midi": 73,
          "name": "C#5",
          "ticks": 3264,
          "time": 7.96875,
          "velocity": 0.6377952755905512
        },
        {
          "duration": 0.004882812500000888,
          "durationTicks": 2,
          "midi": 42,
          "name": "F#2",
          "ticks": 3264,
          "time": 7.96875,
          "velocity": 0.4409448818897638
        },
        {
          "duration": 0.0048828125,
          "durationTicks": 2,
          "midi": 82,
          "name": "A#5",
          "ticks": 3360,
          "time": 8.203125,
          "velocity": 0.49606299212598426
        },
        {
          "duration": 0.0048828125,
          "durationTicks": 2,
          "midi": 73,
          "name": "C#5",
          "ticks": 3360,
          "time": 8.203125,
          "velocity": 0.9133858267716536
        },
        {
          "duration": 0.0048828125,
          "durationTicks": 2,
          "midi": 42,
          "name": "F#2",
          "ticks": 3360,
          "time": 8.203125,
          "velocity": 0.5748031496062992
        },
        {
          "duration": 0.0048828125,
          "durationTicks": 2,
          "midi": 42,
          "name": "F#2",
          "ticks": 3408,
          "time": 8.3203125,
          "velocity": 0.6299212598425197
        },
        {
          "duration": 0.0048828125,
          "durationTicks": 2,
          "midi": 82,
          "name": "A#5",
          "ticks": 3456,
          "time": 8.4375,
          "velocity": 0.2992125984251969
        },
        {
          "duration": 0.0048828125,
          "durationTicks": 2,
          "midi": 73,
          "name": "C#5",
          "ticks": 3456,
          "time": 8.4375,
          "velocity": 0.6850393700787402
        },
        {
          "duration": 0.0048828125,
          "durationTicks": 2,
          "midi": 69,
          "name": "A4",
          "ticks": 3456,
          "time": 8.4375,
          "velocity": 0.5984251968503937
        },
        {
          "duration": 0.0048828125,
          "durationTicks": 2,
          "midi": 42,
          "name": "F#2",
          "ticks": 3456,
          "time": 8.4375,
          "velocity": 0.6771653543307087
        },
        {
          "duration": 0.0048828125,
          "durationTicks": 2,
          "midi": 69,
          "name": "A4",
          "ticks": 3552,
          "time": 8.671875,
          "velocity": 0.5354330708661418
        },
        {
          "duration": 0.0048828125,
          "durationTicks": 2,
          "midi": 42,
          "name": "F#2",
          "ticks": 3552,
          "time": 8.671875,
          "velocity": 0.3779527559055118
        },
        {
          "duration": 0.0048828125,
          "durationTicks": 2,
          "midi": 69,
          "name": "A4",
          "ticks": 3648,
          "time": 8.90625,
          "velocity": 0.5511811023622047
        },
        {
          "duration": 0.0048828125,
          "durationTicks": 2,
          "midi": 42,
          "name": "F#2",
          "ticks": 3648,
          "time": 8.90625,
          "velocity": 0.3779527559055118
        },
        {
          "duration": 0.0048828125,
          "durationTicks": 2,
          "midi": 69,
          "name": "A4",
          "ticks": 3744,
          "time": 9.140625,
          "velocity": 0.5984251968503937
        },
        {
          "duration": 0.0048828125,
          "durationTicks": 2,
          "midi": 82,
          "name": "A#5",
          "ticks": 3840,
          "time": 9.375,
          "velocity": 0.47244094488188976
        },
        {
          "duration": 0.0048828125,
          "durationTicks": 2,
          "midi": 42,
          "name": "F#2",
          "ticks": 3840,
          "time": 9.375,
          "velocity": 0.6377952755905512
        },
        {
          "duration": 0.0048828125,
          "durationTicks": 2,
          "midi": 35,
          "name": "B1",
          "ticks": 3840,
          "time": 9.375,
          "velocity": 1
        },
        {
          "duration": 0.0048828125,
          "durationTicks": 2,
          "midi": 82,
          "name": "A#5",
          "ticks": 3936,
          "time": 9.609375,
          "velocity": 0.3937007874015748
        },
        {
          "duration": 0.0048828125,
          "durationTicks": 2,
          "midi": 73,
          "name": "C#5",
          "ticks": 3936,
          "time": 9.609375,
          "velocity": 0.7795275590551181
        },
        {
          "duration": 0.0048828125,
          "durationTicks": 2,
          "midi": 42,
          "name": "F#2",
          "ticks": 3936,
          "time": 9.609375,
          "velocity": 0.49606299212598426
        },
        {
          "duration": 0.0048828125,
          "durationTicks": 2,
          "midi": 73,
          "name": "C#5",
          "ticks": 3984,
          "time": 9.7265625,
          "velocity": 0.6850393700787402
        },
        {
          "duration": 0.0048828125,
          "durationTicks": 2,
          "midi": 82,
          "name": "A#5",
          "ticks": 4032,
          "time": 9.84375,
          "velocity": 0.3858267716535433
        },
        {
          "duration": 0.0048828125,
          "durationTicks": 2,
          "midi": 73,
          "name": "C#5",
          "ticks": 4032,
          "time": 9.84375,
          "velocity": 0.5590551181102362
        },
        {
          "duration": 0.0048828125,
          "durationTicks": 2,
          "midi": 42,
          "name": "F#2",
          "ticks": 4032,
          "time": 9.84375,
          "velocity": 0.5905511811023622
        },
        {
          "duration": 0.0048828125,
          "durationTicks": 2,
          "midi": 35,
          "name": "B1",
          "ticks": 4032,
          "time": 9.84375,
          "velocity": 1
        },
        {
          "duration": 0.0048828125,
          "durationTicks": 2,
          "midi": 82,
          "name": "A#5",
          "ticks": 4128,
          "time": 10.078125,
          "velocity": 0.3700787401574803
        },
        {
          "duration": 0.0048828125,
          "durationTicks": 2,
          "midi": 73,
          "name": "C#5",
          "ticks": 4128,
          "time": 10.078125,
          "velocity": 0.8661417322834646
        },
        {
          "duration": 0.0048828125,
          "durationTicks": 2,
          "midi": 42,
          "name": "F#2",
          "ticks": 4128,
          "time": 10.078125,
          "velocity": 0.7795275590551181
        },
        {
          "duration": 0.0048828125,
          "durationTicks": 2,
          "midi": 42,
          "name": "F#2",
          "ticks": 4176,
          "time": 10.1953125,
          "velocity": 0.7795275590551181
        },
        {
          "duration": 0.0048828125,
          "durationTicks": 2,
          "midi": 82,
          "name": "A#5",
          "ticks": 4224,
          "time": 10.3125,
          "velocity": 0.3700787401574803
        },
        {
          "duration": 0.0048828125,
          "durationTicks": 2,
          "midi": 73,
          "name": "C#5",
          "ticks": 4224,
          "time": 10.3125,
          "velocity": 0.6850393700787402
        },
        {
          "duration": 0.0048828125,
          "durationTicks": 2,
          "midi": 69,
          "name": "A4",
          "ticks": 4224,
          "time": 10.3125,
          "velocity": 0.4409448818897638
        },
        {
          "duration": 0.0048828125,
          "durationTicks": 2,
          "midi": 42,
          "name": "F#2",
          "ticks": 4224,
          "time": 10.3125,
          "velocity": 0.6850393700787402
        },
        {
          "duration": 0.0048828125,
          "durationTicks": 2,
          "midi": 35,
          "name": "B1",
          "ticks": 4224,
          "time": 10.3125,
          "velocity": 1
        },
        {
          "duration": 0.0048828125,
          "durationTicks": 2,
          "midi": 69,
          "name": "A4",
          "ticks": 4320,
          "time": 10.546875,
          "velocity": 0.47244094488188976
        },
        {
          "duration": 0.0048828125,
          "durationTicks": 2,
          "midi": 42,
          "name": "F#2",
          "ticks": 4320,
          "time": 10.546875,
          "velocity": 0.5905511811023622
        },
        {
          "duration": 0.0048828125,
          "durationTicks": 2,
          "midi": 69,
          "name": "A4",
          "ticks": 4416,
          "time": 10.78125,
          "velocity": 0.5196850393700787
        },
        {
          "duration": 0.0048828125,
          "durationTicks": 2,
          "midi": 42,
          "name": "F#2",
          "ticks": 4416,
          "time": 10.78125,
          "velocity": 0.6850393700787402
        },
        {
          "duration": 0.0048828125,
          "durationTicks": 2,
          "midi": 35,
          "name": "B1",
          "ticks": 4416,
          "time": 10.78125,
          "velocity": 1
        },
        {
          "duration": 0.0048828125,
          "durationTicks": 2,
          "midi": 69,
          "name": "A4",
          "ticks": 4512,
          "time": 11.015625,
          "velocity": 0.5748031496062992
        },
        {
          "duration": 0.0048828125,
          "durationTicks": 2,
          "midi": 42,
          "name": "F#2",
          "ticks": 4512,
          "time": 11.015625,
          "velocity": 0.5905511811023622
        },
        {
          "duration": 0.0048828125,
          "durationTicks": 2,
          "midi": 82,
          "name": "A#5",
          "ticks": 4608,
          "time": 11.25,
          "velocity": 0.4015748031496063
        },
        {
          "duration": 0.0048828125,
          "durationTicks": 2,
          "midi": 42,
          "name": "F#2",
          "ticks": 4608,
          "time": 11.25,
          "velocity": 0.6377952755905512
        },
        {
          "duration": 0.0048828125,
          "durationTicks": 2,
          "midi": 35,
          "name": "B1",
          "ticks": 4608,
          "time": 11.25,
          "velocity": 1
        },
        {
          "duration": 0.0048828125,
          "durationTicks": 2,
          "midi": 82,
          "name": "A#5",
          "ticks": 4704,
          "time": 11.484375,
          "velocity": 0.3937007874015748
        },
        {
          "duration": 0.0048828125,
          "durationTicks": 2,
          "midi": 73,
          "name": "C#5",
          "ticks": 4704,
          "time": 11.484375,
          "velocity": 0.7165354330708661
        },
        {
          "duration": 0.0048828125,
          "durationTicks": 2,
          "midi": 42,
          "name": "F#2",
          "ticks": 4704,
          "time": 11.484375,
          "velocity": 0.6377952755905512
        },
        {
          "duration": 0.0048828125,
          "durationTicks": 2,
          "midi": 73,
          "name": "C#5",
          "ticks": 4752,
          "time": 11.6015625,
          "velocity": 0.6377952755905512
        },
        {
          "duration": 0.0048828125,
          "durationTicks": 2,
          "midi": 82,
          "name": "A#5",
          "ticks": 4800,
          "time": 11.71875,
          "velocity": 0.4015748031496063
        },
        {
          "duration": 0.0048828125,
          "durationTicks": 2,
          "midi": 73,
          "name": "C#5",
          "ticks": 4800,
          "time": 11.71875,
          "velocity": 0.47244094488188976
        },
        {
          "duration": 0.0048828125,
          "durationTicks": 2,
          "midi": 42,
          "name": "F#2",
          "ticks": 4800,
          "time": 11.71875,
          "velocity": 0.5905511811023622
        },
        {
          "duration": 0.0048828125,
          "durationTicks": 2,
          "midi": 35,
          "name": "B1",
          "ticks": 4800,
          "time": 11.71875,
          "velocity": 1
        },
        {
          "duration": 0.0048828125,
          "durationTicks": 2,
          "midi": 82,
          "name": "A#5",
          "ticks": 4896,
          "time": 11.953125,
          "velocity": 0.4409448818897638
        },
        {
          "duration": 0.0048828125,
          "durationTicks": 2,
          "midi": 73,
          "name": "C#5",
          "ticks": 4896,
          "time": 11.953125,
          "velocity": 0.84251968503937
        },
        {
          "duration": 0.0048828125,
          "durationTicks": 2,
          "midi": 42,
          "name": "F#2",
          "ticks": 4896,
          "time": 11.953125,
          "velocity": 0.7086614173228346
        },
        {
          "duration": 0.0048828125,
          "durationTicks": 2,
          "midi": 42,
          "name": "F#2",
          "ticks": 4944,
          "time": 12.0703125,
          "velocity": 0.6771653543307087
        },
        {
          "duration": 0.0048828125,
          "durationTicks": 2,
          "midi": 82,
          "name": "A#5",
          "ticks": 4992,
          "time": 12.1875,
          "velocity": 0.4409448818897638
        },
        {
          "duration": 0.0048828125,
          "durationTicks": 2,
          "midi": 73,
          "name": "C#5",
          "ticks": 4992,
          "time": 12.1875,
          "velocity": 0.6850393700787402
        },
        {
          "duration": 0.0048828125,
          "durationTicks": 2,
          "midi": 69,
          "name": "A4",
          "ticks": 4992,
          "time": 12.1875,
          "velocity": 0.5511811023622047
        },
        {
          "duration": 0.0048828125,
          "durationTicks": 2,
          "midi": 42,
          "name": "F#2",
          "ticks": 4992,
          "time": 12.1875,
          "velocity": 0.5669291338582677
        },
        {
          "duration": 0.0048828125,
          "durationTicks": 2,
          "midi": 35,
          "name": "B1",
          "ticks": 4992,
          "time": 12.1875,
          "velocity": 1
        },
        {
          "duration": 0.0048828125,
          "durationTicks": 2,
          "midi": 69,
          "name": "A4",
          "ticks": 5088,
          "time": 12.421875,
          "velocity": 0.5039370078740157
        },
        {
          "duration": 0.0048828125,
          "durationTicks": 2,
          "midi": 42,
          "name": "F#2",
          "ticks": 5088,
          "time": 12.421875,
          "velocity": 0.5905511811023622
        },
        {
          "duration": 0.0048828125,
          "durationTicks": 2,
          "midi": 69,
          "name": "A4",
          "ticks": 5184,
          "time": 12.65625,
          "velocity": 0.47244094488188976
        },
        {
          "duration": 0.0048828125,
          "durationTicks": 2,
          "midi": 42,
          "name": "F#2",
          "ticks": 5184,
          "time": 12.65625,
          "velocity": 0.6377952755905512
        },
        {
          "duration": 0.0048828125,
          "durationTicks": 2,
          "midi": 35,
          "name": "B1",
          "ticks": 5184,
          "time": 12.65625,
          "velocity": 1
        },
        {
          "duration": 0.0048828125,
          "durationTicks": 2,
          "midi": 69,
          "name": "A4",
          "ticks": 5280,
          "time": 12.890625,
          "velocity": 0.5354330708661418
        },
        {
          "duration": 0.0048828125,
          "durationTicks": 2,
          "midi": 42,
          "name": "F#2",
          "ticks": 5280,
          "time": 12.890625,
          "velocity": 0.5905511811023622
        },
        {
          "duration": 0.0048828125,
          "durationTicks": 2,
          "midi": 82,
          "name": "A#5",
          "ticks": 5376,
          "time": 13.125,
          "velocity": 0.4409448818897638
        },
        {
          "duration": 0.0048828125,
          "durationTicks": 2,
          "midi": 42,
          "name": "F#2",
          "ticks": 5376,
          "time": 13.125,
          "velocity": 0.6377952755905512
        },
        {
          "duration": 0.0048828125,
          "durationTicks": 2,
          "midi": 35,
          "name": "B1",
          "ticks": 5376,
          "time": 13.125,
          "velocity": 1
        },
        {
          "duration": 0.0048828125,
          "durationTicks": 2,
          "midi": 82,
          "name": "A#5",
          "ticks": 5472,
          "time": 13.359375,
          "velocity": 0.5039370078740157
        },
        {
          "duration": 0.0048828125,
          "durationTicks": 2,
          "midi": 73,
          "name": "C#5",
          "ticks": 5472,
          "time": 13.359375,
          "velocity": 0.84251968503937
        },
        {
          "duration": 0.0048828125,
          "durationTicks": 2,
          "midi": 42,
          "name": "F#2",
          "ticks": 5472,
          "time": 13.359375,
          "velocity": 0.5433070866141733
        },
        {
          "duration": 0.0048828125,
          "durationTicks": 2,
          "midi": 73,
          "name": "C#5",
          "ticks": 5520,
          "time": 13.4765625,
          "velocity": 0.6377952755905512
        },
        {
          "duration": 0.0048828125,
          "durationTicks": 2,
          "midi": 82,
          "name": "A#5",
          "ticks": 5568,
          "time": 13.59375,
          "velocity": 0.4330708661417323
        },
        {
          "duration": 0.0048828125,
          "durationTicks": 2,
          "midi": 73,
          "name": "C#5",
          "ticks": 5568,
          "time": 13.59375,
          "velocity": 0.5433070866141733
        },
        {
          "duration": 0.0048828125,
          "durationTicks": 2,
          "midi": 42,
          "name": "F#2",
          "ticks": 5568,
          "time": 13.59375,
          "velocity": 0.5984251968503937
        },
        {
          "duration": 0.0048828125,
          "durationTicks": 2,
          "midi": 35,
          "name": "B1",
          "ticks": 5568,
          "time": 13.59375,
          "velocity": 1
        },
        {
          "duration": 0.0048828125,
          "durationTicks": 2,
          "midi": 82,
          "name": "A#5",
          "ticks": 5664,
          "time": 13.828125,
          "velocity": 0.5354330708661418
        },
        {
          "duration": 0.0048828125,
          "durationTicks": 2,
          "midi": 73,
          "name": "C#5",
          "ticks": 5664,
          "time": 13.828125,
          "velocity": 0.84251968503937
        },
        {
          "duration": 0.0048828125,
          "durationTicks": 2,
          "midi": 42,
          "name": "F#2",
          "ticks": 5664,
          "time": 13.828125,
          "velocity": 0.6220472440944882
        },
        {
          "duration": 0.0048828125,
          "durationTicks": 2,
          "midi": 42,
          "name": "F#2",
          "ticks": 5712,
          "time": 13.9453125,
          "velocity": 0.6220472440944882
        },
        {
          "duration": 0.0048828125,
          "durationTicks": 2,
          "midi": 82,
          "name": "A#5",
          "ticks": 5760,
          "time": 14.0625,
          "velocity": 0.5354330708661418
        },
        {
          "duration": 0.0048828125,
          "durationTicks": 2,
          "midi": 73,
          "name": "C#5",
          "ticks": 5760,
          "time": 14.0625,
          "velocity": 0.6377952755905512
        },
        {
          "duration": 0.0048828125,
          "durationTicks": 2,
          "midi": 69,
          "name": "A4",
          "ticks": 5760,
          "time": 14.0625,
          "velocity": 0.5748031496062992
        },
        {
          "duration": 0.0048828125,
          "durationTicks": 2,
          "midi": 42,
          "name": "F#2",
          "ticks": 5760,
          "time": 14.0625,
          "velocity": 0.5748031496062992
        },
        {
          "duration": 0.0048828125,
          "durationTicks": 2,
          "midi": 35,
          "name": "B1",
          "ticks": 5760,
          "time": 14.0625,
          "velocity": 1
        },
        {
          "duration": 0.0048828125,
          "durationTicks": 2,
          "midi": 69,
          "name": "A4",
          "ticks": 5856,
          "time": 14.296875,
          "velocity": 0.5748031496062992
        },
        {
          "duration": 0.0048828125,
          "durationTicks": 2,
          "midi": 42,
          "name": "F#2",
          "ticks": 5856,
          "time": 14.296875,
          "velocity": 0.5433070866141733
        },
        {
          "duration": 0.0048828125,
          "durationTicks": 2,
          "midi": 69,
          "name": "A4",
          "ticks": 5952,
          "time": 14.53125,
          "velocity": 0.5511811023622047
        },
        {
          "duration": 0.0048828125,
          "durationTicks": 2,
          "midi": 42,
          "name": "F#2",
          "ticks": 5952,
          "time": 14.53125,
          "velocity": 0.5905511811023622
        },
        {
          "duration": 0.0048828125,
          "durationTicks": 2,
          "midi": 35,
          "name": "B1",
          "ticks": 5952,
          "time": 14.53125,
          "velocity": 1
        },
        {
          "duration": 0.0048828125,
          "durationTicks": 2,
          "midi": 69,
          "name": "A4",
          "ticks": 6048,
          "time": 14.765625,
          "velocity": 0.5511811023622047
        },
        {
          "duration": 0.0048828125,
          "durationTicks": 2,
          "midi": 42,
          "name": "F#2",
          "ticks": 6048,
          "time": 14.765625,
          "velocity": 0.5433070866141733
        },
        {
          "duration": 0.004882812499998224,
          "durationTicks": 2,
          "midi": 82,
          "name": "A#5",
          "ticks": 6144,
          "time": 15,
          "velocity": 0.47244094488188976
        },
        {
          "duration": 0.004882812499998224,
          "durationTicks": 2,
          "midi": 42,
          "name": "F#2",
          "ticks": 6144,
          "time": 15,
          "velocity": 0.6141732283464567
        },
        {
          "duration": 0.004882812499998224,
          "durationTicks": 2,
          "midi": 35,
          "name": "B1",
          "ticks": 6144,
          "time": 15,
          "velocity": 1
        },
        {
          "duration": 0.004882812499998224,
          "durationTicks": 2,
          "midi": 82,
          "name": "A#5",
          "ticks": 6240,
          "time": 15.234375,
          "velocity": 0.4409448818897638
        },
        {
          "duration": 0.004882812499998224,
          "durationTicks": 2,
          "midi": 73,
          "name": "C#5",
          "ticks": 6240,
          "time": 15.234375,
          "velocity": 0.7165354330708661
        },
        {
          "duration": 0.004882812499998224,
          "durationTicks": 2,
          "midi": 42,
          "name": "F#2",
          "ticks": 6240,
          "time": 15.234375,
          "velocity": 0.5433070866141733
        },
        {
          "duration": 0.004882812499998224,
          "durationTicks": 2,
          "midi": 73,
          "name": "C#5",
          "ticks": 6288,
          "time": 15.3515625,
          "velocity": 0.6850393700787402
        },
        {
          "duration": 0.004882812499998224,
          "durationTicks": 2,
          "midi": 82,
          "name": "A#5",
          "ticks": 6336,
          "time": 15.46875,
          "velocity": 0.49606299212598426
        },
        {
          "duration": 0.004882812499998224,
          "durationTicks": 2,
          "midi": 73,
          "name": "C#5",
          "ticks": 6336,
          "time": 15.46875,
          "velocity": 0.6377952755905512
        },
        {
          "duration": 0.004882812499998224,
          "durationTicks": 2,
          "midi": 42,
          "name": "F#2",
          "ticks": 6336,
          "time": 15.46875,
          "velocity": 0.6614173228346457
        },
        {
          "duration": 0.004882812499998224,
          "durationTicks": 2,
          "midi": 35,
          "name": "B1",
          "ticks": 6336,
          "time": 15.46875,
          "velocity": 1
        },
        {
          "duration": 0.004882812499998224,
          "durationTicks": 2,
          "midi": 82,
          "name": "A#5",
          "ticks": 6432,
          "time": 15.703125,
          "velocity": 0.49606299212598426
        },
        {
          "duration": 0.004882812499998224,
          "durationTicks": 2,
          "midi": 73,
          "name": "C#5",
          "ticks": 6432,
          "time": 15.703125,
          "velocity": 0.9133858267716536
        },
        {
          "duration": 0.004882812499998224,
          "durationTicks": 2,
          "midi": 42,
          "name": "F#2",
          "ticks": 6432,
          "time": 15.703125,
          "velocity": 0.5748031496062992
        },
        {
          "duration": 0.004882812499998224,
          "durationTicks": 2,
          "midi": 42,
          "name": "F#2",
          "ticks": 6480,
          "time": 15.8203125,
          "velocity": 0.6299212598425197
        },
        {
          "duration": 0.004882812499998224,
          "durationTicks": 2,
          "midi": 82,
          "name": "A#5",
          "ticks": 6528,
          "time": 15.9375,
          "velocity": 0.2992125984251969
        },
        {
          "duration": 0.004882812499998224,
          "durationTicks": 2,
          "midi": 73,
          "name": "C#5",
          "ticks": 6528,
          "time": 15.9375,
          "velocity": 0.6850393700787402
        },
        {
          "duration": 0.004882812499998224,
          "durationTicks": 2,
          "midi": 69,
          "name": "A4",
          "ticks": 6528,
          "time": 15.9375,
          "velocity": 0.5984251968503937
        },
        {
          "duration": 0.004882812499998224,
          "durationTicks": 2,
          "midi": 42,
          "name": "F#2",
          "ticks": 6528,
          "time": 15.9375,
          "velocity": 0.6771653543307087
        },
        {
          "duration": 0.004882812499998224,
          "durationTicks": 2,
          "midi": 35,
          "name": "B1",
          "ticks": 6528,
          "time": 15.9375,
          "velocity": 1
        },
        {
          "duration": 0.0048828125,
          "durationTicks": 2,
          "midi": 69,
          "name": "A4",
          "ticks": 6624,
          "time": 16.171875,
          "velocity": 0.5354330708661418
        },
        {
          "duration": 0.0048828125,
          "durationTicks": 2,
          "midi": 42,
          "name": "F#2",
          "ticks": 6624,
          "time": 16.171875,
          "velocity": 0.6141732283464567
        },
        {
          "duration": 0.0048828125,
          "durationTicks": 2,
          "midi": 41,
          "name": "F2",
          "ticks": 6624,
          "time": 16.171875,
          "velocity": 0.5590551181102362
        },
        {
          "duration": 0.0048828125,
          "durationTicks": 2,
          "midi": 35,
          "name": "B1",
          "ticks": 6624,
          "time": 16.171875,
          "velocity": 0.7086614173228346
        },
        {
          "duration": 0.0048828125,
          "durationTicks": 2,
          "midi": 69,
          "name": "A4",
          "ticks": 6720,
          "time": 16.40625,
          "velocity": 0.5511811023622047
        },
        {
          "duration": 0.0048828125,
          "durationTicks": 2,
          "midi": 42,
          "name": "F#2",
          "ticks": 6720,
          "time": 16.40625,
          "velocity": 0.6614173228346457
        },
        {
          "duration": 0.0048828125,
          "durationTicks": 2,
          "midi": 41,
          "name": "F2",
          "ticks": 6720,
          "time": 16.40625,
          "velocity": 0.7007874015748031
        },
        {
          "duration": 0.0048828125,
          "durationTicks": 2,
          "midi": 35,
          "name": "B1",
          "ticks": 6720,
          "time": 16.40625,
          "velocity": 0.8503937007874016
        },
        {
          "duration": 0.0048828125,
          "durationTicks": 2,
          "midi": 69,
          "name": "A4",
          "ticks": 6816,
          "time": 16.640625,
          "velocity": 0.5984251968503937
        },
        {
          "duration": 0.0048828125,
          "durationTicks": 2,
          "midi": 42,
          "name": "F#2",
          "ticks": 6816,
          "time": 16.640625,
          "velocity": 0.5433070866141733
        },
        {
          "duration": 0.0048828125,
          "durationTicks": 2,
          "midi": 41,
          "name": "F2",
          "ticks": 6816,
          "time": 16.640625,
          "velocity": 0.8188976377952756
        },
        {
          "duration": 0.0048828125,
          "durationTicks": 2,
          "midi": 35,
          "name": "B1",
          "ticks": 6816,
          "time": 16.640625,
          "velocity": 0.9921259842519685
        },
        {
          "duration": 0.0048828125,
          "durationTicks": 2,
          "midi": 55,
          "name": "G3",
          "ticks": 6912,
          "time": 16.875,
          "velocity": 0.8661417322834646
        },
        {
          "duration": 0.0048828125,
          "durationTicks": 2,
          "midi": 35,
          "name": "B1",
          "ticks": 6912,
          "time": 16.875,
          "velocity": 1
        },
        {
          "duration": 0.0048828125,
          "durationTicks": 2,
          "midi": 44,
          "name": "G#2",
          "ticks": 7008,
          "time": 17.109375,
          "velocity": 0.6929133858267716
        },
        {
          "duration": 0.0048828125,
          "durationTicks": 2,
          "midi": 42,
          "name": "F#2",
          "ticks": 7104,
          "time": 17.34375,
          "velocity": 0.5905511811023622
        },
        {
          "duration": 0.0048828125,
          "durationTicks": 2,
          "midi": 38,
          "name": "D2",
          "ticks": 7104,
          "time": 17.34375,
          "velocity": 0.7874015748031497
        },
        {
          "duration": 0.0048828125,
          "durationTicks": 2,
          "midi": 44,
          "name": "G#2",
          "ticks": 7200,
          "time": 17.578125,
          "velocity": 0.6456692913385826
        },
        {
          "duration": 0.0048828125,
          "durationTicks": 2,
          "midi": 42,
          "name": "F#2",
          "ticks": 7296,
          "time": 17.8125,
          "velocity": 0.6850393700787402
        },
        {
          "duration": 0.0048828125,
          "durationTicks": 2,
          "midi": 35,
          "name": "B1",
          "ticks": 7296,
          "time": 17.8125,
          "velocity": 0.9763779527559056
        },
        {
          "duration": 0.0048828125,
          "durationTicks": 2,
          "midi": 44,
          "name": "G#2",
          "ticks": 7392,
          "time": 18.046875,
          "velocity": 0.6377952755905512
        },
        {
          "duration": 0.0048828125,
          "durationTicks": 2,
          "midi": 42,
          "name": "F#2",
          "ticks": 7488,
          "time": 18.28125,
          "velocity": 0.6771653543307087
        },
        {
          "duration": 0.0048828125,
          "durationTicks": 2,
          "midi": 38,
          "name": "D2",
          "ticks": 7488,
          "time": 18.28125,
          "velocity": 0.7874015748031497
        },
        {
          "duration": 0.0048828125,
          "durationTicks": 2,
          "midi": 44,
          "name": "G#2",
          "ticks": 7584,
          "time": 18.515625,
          "velocity": 0.7559055118110236
        },
        {
          "duration": 0.0048828125,
          "durationTicks": 2,
          "midi": 42,
          "name": "F#2",
          "ticks": 7680,
          "time": 18.75,
          "velocity": 0.8582677165354331
        },
        {
          "duration": 0.0048828125,
          "durationTicks": 2,
          "midi": 35,
          "name": "B1",
          "ticks": 7680,
          "time": 18.75,
          "velocity": 1
        },
        {
          "duration": 0.0048828125,
          "durationTicks": 2,
          "midi": 44,
          "name": "G#2",
          "ticks": 7776,
          "time": 18.984375,
          "velocity": 0.7086614173228346
        },
        {
          "duration": 0.0048828125,
          "durationTicks": 2,
          "midi": 42,
          "name": "F#2",
          "ticks": 7872,
          "time": 19.21875,
          "velocity": 0.6850393700787402
        },
        {
          "duration": 0.0048828125,
          "durationTicks": 2,
          "midi": 38,
          "name": "D2",
          "ticks": 7872,
          "time": 19.21875,
          "velocity": 0.7874015748031497
        },
        {
          "duration": 0.0048828125,
          "durationTicks": 2,
          "midi": 44,
          "name": "G#2",
          "ticks": 7968,
          "time": 19.453125,
          "velocity": 0.7559055118110236
        },
        {
          "duration": 0.0048828125,
          "durationTicks": 2,
          "midi": 42,
          "name": "F#2",
          "ticks": 8064,
          "time": 19.6875,
          "velocity": 0.7086614173228346
        },
        {
          "duration": 0.0048828125,
          "durationTicks": 2,
          "midi": 35,
          "name": "B1",
          "ticks": 8064,
          "time": 19.6875,
          "velocity": 1
        },
        {
          "duration": 0.0048828125,
          "durationTicks": 2,
          "midi": 44,
          "name": "G#2",
          "ticks": 8160,
          "time": 19.921875,
          "velocity": 0.6771653543307087
        },
        {
          "duration": 0.0048828125,
          "durationTicks": 2,
          "midi": 42,
          "name": "F#2",
          "ticks": 8256,
          "time": 20.15625,
          "velocity": 0.7244094488188977
        },
        {
          "duration": 0.0048828125,
          "durationTicks": 2,
          "midi": 38,
          "name": "D2",
          "ticks": 8256,
          "time": 20.15625,
          "velocity": 0.7874015748031497
        },
        {
          "duration": 0.0048828125,
          "durationTicks": 2,
          "midi": 46,
          "name": "A#2",
          "ticks": 8352,
          "time": 20.390625,
          "velocity": 0.6850393700787402
        },
        {
          "duration": 0.0048828125,
          "durationTicks": 2,
          "midi": 42,
          "name": "F#2",
          "ticks": 8448,
          "time": 20.625,
          "velocity": 0.7086614173228346
        },
        {
          "duration": 0.0048828125,
          "durationTicks": 2,
          "midi": 35,
          "name": "B1",
          "ticks": 8448,
          "time": 20.625,
          "velocity": 0.9763779527559056
        },
        {
          "duration": 0.0048828125,
          "durationTicks": 2,
          "midi": 44,
          "name": "G#2",
          "ticks": 8544,
          "time": 20.859375,
          "velocity": 0.7322834645669292
        },
        {
          "duration": 0.0048828125,
          "durationTicks": 2,
          "midi": 42,
          "name": "F#2",
          "ticks": 8640,
          "time": 21.09375,
          "velocity": 0.7559055118110236
        },
        {
          "duration": 0.0048828125,
          "durationTicks": 2,
          "midi": 38,
          "name": "D2",
          "ticks": 8640,
          "time": 21.09375,
          "velocity": 0.7874015748031497
        },
        {
          "duration": 0.0048828125,
          "durationTicks": 2,
          "midi": 44,
          "name": "G#2",
          "ticks": 8736,
          "time": 21.328125,
          "velocity": 0.7874015748031497
        },
        {
          "duration": 0.0048828125,
          "durationTicks": 2,
          "midi": 42,
          "name": "F#2",
          "ticks": 8832,
          "time": 21.5625,
          "velocity": 0.7244094488188977
        },
        {
          "duration": 0.0048828125,
          "durationTicks": 2,
          "midi": 35,
          "name": "B1",
          "ticks": 8832,
          "time": 21.5625,
          "velocity": 1
        },
        {
          "duration": 0.0048828125,
          "durationTicks": 2,
          "midi": 44,
          "name": "G#2",
          "ticks": 8928,
          "time": 21.796875,
          "velocity": 0.7165354330708661
        },
        {
          "duration": 0.0048828125,
          "durationTicks": 2,
          "midi": 42,
          "name": "F#2",
          "ticks": 9024,
          "time": 22.03125,
          "velocity": 0.6456692913385826
        },
        {
          "duration": 0.0048828125,
          "durationTicks": 2,
          "midi": 38,
          "name": "D2",
          "ticks": 9024,
          "time": 22.03125,
          "velocity": 0.7874015748031497
        },
        {
          "duration": 0.0048828125,
          "durationTicks": 2,
          "midi": 44,
          "name": "G#2",
          "ticks": 9120,
          "time": 22.265625,
          "velocity": 0.7559055118110236
        },
        {
          "duration": 0.0048828125,
          "durationTicks": 2,
          "midi": 42,
          "name": "F#2",
          "ticks": 9216,
          "time": 22.5,
          "velocity": 0.7244094488188977
        },
        {
          "duration": 0.0048828125,
          "durationTicks": 2,
          "midi": 35,
          "name": "B1",
          "ticks": 9216,
          "time": 22.5,
          "velocity": 0.9763779527559056
        },
        {
          "duration": 0.0048828125,
          "durationTicks": 2,
          "midi": 44,
          "name": "G#2",
          "ticks": 9312,
          "time": 22.734375,
          "velocity": 0.7716535433070866
        },
        {
          "duration": 0.0048828125,
          "durationTicks": 2,
          "midi": 42,
          "name": "F#2",
          "ticks": 9408,
          "time": 22.96875,
          "velocity": 0.7874015748031497
        },
        {
          "duration": 0.0048828125,
          "durationTicks": 2,
          "midi": 38,
          "name": "D2",
          "ticks": 9408,
          "time": 22.96875,
          "velocity": 0.7874015748031497
        },
        {
          "duration": 0.0048828125,
          "durationTicks": 2,
          "midi": 44,
          "name": "G#2",
          "ticks": 9504,
          "time": 23.203125,
          "velocity": 0.6929133858267716
        },
        {
          "duration": 0.0048828125,
          "durationTicks": 2,
          "midi": 42,
          "name": "F#2",
          "ticks": 9600,
          "time": 23.4375,
          "velocity": 0.6850393700787402
        },
        {
          "duration": 0.0048828125,
          "durationTicks": 2,
          "midi": 35,
          "name": "B1",
          "ticks": 9600,
          "time": 23.4375,
          "velocity": 1
        },
        {
          "duration": 0.0048828125,
          "durationTicks": 2,
          "midi": 44,
          "name": "G#2",
          "ticks": 9696,
          "time": 23.671875,
          "velocity": 0.7559055118110236
        },
        {
          "duration": 0.0048828125,
          "durationTicks": 2,
          "midi": 42,
          "name": "F#2",
          "ticks": 9792,
          "time": 23.90625,
          "velocity": 0.7401574803149606
        },
        {
          "duration": 0.0048828125,
          "durationTicks": 2,
          "midi": 38,
          "name": "D2",
          "ticks": 9792,
          "time": 23.90625,
          "velocity": 0.7874015748031497
        },
        {
          "duration": 0.0048828125,
          "durationTicks": 2,
          "midi": 46,
          "name": "A#2",
          "ticks": 9888,
          "time": 24.140625,
          "velocity": 0.6377952755905512
        },
        {
          "duration": 0.0048828125,
          "durationTicks": 2,
          "midi": 42,
          "name": "F#2",
          "ticks": 9984,
          "time": 24.375,
          "velocity": 0.905511811023622
        },
        {
          "duration": 0.0048828125,
          "durationTicks": 2,
          "midi": 35,
          "name": "B1",
          "ticks": 9984,
          "time": 24.375,
          "velocity": 1
        },
        {
          "duration": 0.0048828125,
          "durationTicks": 2,
          "midi": 44,
          "name": "G#2",
          "ticks": 10080,
          "time": 24.609375,
          "velocity": 0.6929133858267716
        },
        {
          "duration": 0.0048828125,
          "durationTicks": 2,
          "midi": 42,
          "name": "F#2",
          "ticks": 10176,
          "time": 24.84375,
          "velocity": 0.5905511811023622
        },
        {
          "duration": 0.0048828125,
          "durationTicks": 2,
          "midi": 38,
          "name": "D2",
          "ticks": 10176,
          "time": 24.84375,
          "velocity": 0.7874015748031497
        },
        {
          "duration": 0.0048828125,
          "durationTicks": 2,
          "midi": 44,
          "name": "G#2",
          "ticks": 10272,
          "time": 25.078125,
          "velocity": 0.6456692913385826
        },
        {
          "duration": 0.0048828125,
          "durationTicks": 2,
          "midi": 42,
          "name": "F#2",
          "ticks": 10368,
          "time": 25.3125,
          "velocity": 0.6850393700787402
        },
        {
          "duration": 0.0048828125,
          "durationTicks": 2,
          "midi": 35,
          "name": "B1",
          "ticks": 10368,
          "time": 25.3125,
          "velocity": 0.9763779527559056
        },
        {
          "duration": 0.0048828125,
          "durationTicks": 2,
          "midi": 44,
          "name": "G#2",
          "ticks": 10464,
          "time": 25.546875,
          "velocity": 0.6377952755905512
        },
        {
          "duration": 0.0048828125,
          "durationTicks": 2,
          "midi": 42,
          "name": "F#2",
          "ticks": 10560,
          "time": 25.78125,
          "velocity": 0.6771653543307087
        },
        {
          "duration": 0.0048828125,
          "durationTicks": 2,
          "midi": 38,
          "name": "D2",
          "ticks": 10560,
          "time": 25.78125,
          "velocity": 0.7874015748031497
        },
        {
          "duration": 0.0048828125,
          "durationTicks": 2,
          "midi": 44,
          "name": "G#2",
          "ticks": 10656,
          "time": 26.015625,
          "velocity": 0.7559055118110236
        },
        {
          "duration": 0.0048828125,
          "durationTicks": 2,
          "midi": 42,
          "name": "F#2",
          "ticks": 10752,
          "time": 26.25,
          "velocity": 0.8582677165354331
        },
        {
          "duration": 0.0048828125,
          "durationTicks": 2,
          "midi": 35,
          "name": "B1",
          "ticks": 10752,
          "time": 26.25,
          "velocity": 1
        },
        {
          "duration": 0.0048828125,
          "durationTicks": 2,
          "midi": 44,
          "name": "G#2",
          "ticks": 10848,
          "time": 26.484375,
          "velocity": 0.7086614173228346
        },
        {
          "duration": 0.0048828125,
          "durationTicks": 2,
          "midi": 42,
          "name": "F#2",
          "ticks": 10944,
          "time": 26.71875,
          "velocity": 0.6850393700787402
        },
        {
          "duration": 0.0048828125,
          "durationTicks": 2,
          "midi": 38,
          "name": "D2",
          "ticks": 10944,
          "time": 26.71875,
          "velocity": 0.7874015748031497
        },
        {
          "duration": 0.0048828125,
          "durationTicks": 2,
          "midi": 44,
          "name": "G#2",
          "ticks": 11040,
          "time": 26.953125,
          "velocity": 0.7559055118110236
        },
        {
          "duration": 0.0048828125,
          "durationTicks": 2,
          "midi": 42,
          "name": "F#2",
          "ticks": 11136,
          "time": 27.1875,
          "velocity": 0.7086614173228346
        },
        {
          "duration": 0.0048828125,
          "durationTicks": 2,
          "midi": 35,
          "name": "B1",
          "ticks": 11136,
          "time": 27.1875,
          "velocity": 1
        },
        {
          "duration": 0.0048828125,
          "durationTicks": 2,
          "midi": 44,
          "name": "G#2",
          "ticks": 11232,
          "time": 27.421875,
          "velocity": 0.6771653543307087
        },
        {
          "duration": 0.0048828125,
          "durationTicks": 2,
          "midi": 42,
          "name": "F#2",
          "ticks": 11328,
          "time": 27.65625,
          "velocity": 0.7244094488188977
        },
        {
          "duration": 0.0048828125,
          "durationTicks": 2,
          "midi": 38,
          "name": "D2",
          "ticks": 11328,
          "time": 27.65625,
          "velocity": 0.7874015748031497
        },
        {
          "duration": 0.0048828125,
          "durationTicks": 2,
          "midi": 46,
          "name": "A#2",
          "ticks": 11424,
          "time": 27.890625,
          "velocity": 0.6850393700787402
        },
        {
          "duration": 0.0048828125,
          "durationTicks": 2,
          "midi": 55,
          "name": "G3",
          "ticks": 11520,
          "time": 28.125,
          "velocity": 0.8661417322834646
        },
        {
          "duration": 0.0048828125,
          "durationTicks": 2,
          "midi": 35,
          "name": "B1",
          "ticks": 11520,
          "time": 28.125,
          "velocity": 1
        },
        {
          "duration": 0.0048828125,
          "durationTicks": 2,
          "midi": 44,
          "name": "G#2",
          "ticks": 11616,
          "time": 28.359375,
          "velocity": 0.6929133858267716
        },
        {
          "duration": 0.0048828125,
          "durationTicks": 2,
          "midi": 42,
          "name": "F#2",
          "ticks": 11712,
          "time": 28.59375,
          "velocity": 0.5905511811023622
        },
        {
          "duration": 0.0048828125,
          "durationTicks": 2,
          "midi": 38,
          "name": "D2",
          "ticks": 11712,
          "time": 28.59375,
          "velocity": 0.7874015748031497
        },
        {
          "duration": 0.0048828125,
          "durationTicks": 2,
          "midi": 44,
          "name": "G#2",
          "ticks": 11808,
          "time": 28.828125,
          "velocity": 0.6456692913385826
        },
        {
          "duration": 0.0048828125,
          "durationTicks": 2,
          "midi": 42,
          "name": "F#2",
          "ticks": 11904,
          "time": 29.0625,
          "velocity": 0.6850393700787402
        },
        {
          "duration": 0.0048828125,
          "durationTicks": 2,
          "midi": 35,
          "name": "B1",
          "ticks": 11904,
          "time": 29.0625,
          "velocity": 0.9763779527559056
        },
        {
          "duration": 0.0048828125,
          "durationTicks": 2,
          "midi": 44,
          "name": "G#2",
          "ticks": 12000,
          "time": 29.296875,
          "velocity": 0.6377952755905512
        },
        {
          "duration": 0.0048828125,
          "durationTicks": 2,
          "midi": 42,
          "name": "F#2",
          "ticks": 12096,
          "time": 29.53125,
          "velocity": 0.6771653543307087
        },
        {
          "duration": 0.0048828125,
          "durationTicks": 2,
          "midi": 38,
          "name": "D2",
          "ticks": 12096,
          "time": 29.53125,
          "velocity": 0.7874015748031497
        },
        {
          "duration": 0.0048828125,
          "durationTicks": 2,
          "midi": 44,
          "name": "G#2",
          "ticks": 12192,
          "time": 29.765625,
          "velocity": 0.7559055118110236
        },
        {
          "duration": 0.004882812500003553,
          "durationTicks": 2,
          "midi": 42,
          "name": "F#2",
          "ticks": 12288,
          "time": 30,
          "velocity": 0.8582677165354331
        },
        {
          "duration": 0.004882812500003553,
          "durationTicks": 2,
          "midi": 35,
          "name": "B1",
          "ticks": 12288,
          "time": 30,
          "velocity": 1
        },
        {
          "duration": 0.004882812500003553,
          "durationTicks": 2,
          "midi": 44,
          "name": "G#2",
          "ticks": 12384,
          "time": 30.234375,
          "velocity": 0.7086614173228346
        },
        {
          "duration": 0.004882812500003553,
          "durationTicks": 2,
          "midi": 42,
          "name": "F#2",
          "ticks": 12480,
          "time": 30.46875,
          "velocity": 0.6850393700787402
        },
        {
          "duration": 0.004882812500003553,
          "durationTicks": 2,
          "midi": 38,
          "name": "D2",
          "ticks": 12480,
          "time": 30.46875,
          "velocity": 0.7874015748031497
        },
        {
          "duration": 0.004882812500003553,
          "durationTicks": 2,
          "midi": 44,
          "name": "G#2",
          "ticks": 12576,
          "time": 30.703125,
          "velocity": 0.7559055118110236
        },
        {
          "duration": 0.004882812500003553,
          "durationTicks": 2,
          "midi": 42,
          "name": "F#2",
          "ticks": 12672,
          "time": 30.9375,
          "velocity": 0.7086614173228346
        },
        {
          "duration": 0.004882812500003553,
          "durationTicks": 2,
          "midi": 35,
          "name": "B1",
          "ticks": 12672,
          "time": 30.9375,
          "velocity": 1
        },
        {
          "duration": 0.004882812500003553,
          "durationTicks": 2,
          "midi": 44,
          "name": "G#2",
          "ticks": 12768,
          "time": 31.171875,
          "velocity": 0.6771653543307087
        },
        {
          "duration": 0.004882812500003553,
          "durationTicks": 2,
          "midi": 42,
          "name": "F#2",
          "ticks": 12864,
          "time": 31.40625,
          "velocity": 0.7244094488188977
        },
        {
          "duration": 0.004882812500003553,
          "durationTicks": 2,
          "midi": 38,
          "name": "D2",
          "ticks": 12864,
          "time": 31.40625,
          "velocity": 0.7874015748031497
        },
        {
          "duration": 0.004882812500003553,
          "durationTicks": 2,
          "midi": 46,
          "name": "A#2",
          "ticks": 12960,
          "time": 31.640625,
          "velocity": 0.6850393700787402
        },
        {
          "duration": 0.004882812500003553,
          "durationTicks": 2,
          "midi": 42,
          "name": "F#2",
          "ticks": 13056,
          "time": 31.875,
          "velocity": 0.7086614173228346
        },
        {
          "duration": 0.004882812500003553,
          "durationTicks": 2,
          "midi": 35,
          "name": "B1",
          "ticks": 13056,
          "time": 31.875,
          "velocity": 0.9763779527559056
        },
        {
          "duration": 0.0048828125,
          "durationTicks": 2,
          "midi": 44,
          "name": "G#2",
          "ticks": 13152,
          "time": 32.109375,
          "velocity": 0.7322834645669292
        },
        {
          "duration": 0.0048828125,
          "durationTicks": 2,
          "midi": 42,
          "name": "F#2",
          "ticks": 13248,
          "time": 32.34375,
          "velocity": 0.7559055118110236
        },
        {
          "duration": 0.0048828125,
          "durationTicks": 2,
          "midi": 38,
          "name": "D2",
          "ticks": 13248,
          "time": 32.34375,
          "velocity": 0.7874015748031497
        },
        {
          "duration": 0.0048828125,
          "durationTicks": 2,
          "midi": 44,
          "name": "G#2",
          "ticks": 13344,
          "time": 32.578125,
          "velocity": 0.7874015748031497
        },
        {
          "duration": 0.0048828125,
          "durationTicks": 2,
          "midi": 42,
          "name": "F#2",
          "ticks": 13440,
          "time": 32.8125,
          "velocity": 0.7244094488188977
        },
        {
          "duration": 0.0048828125,
          "durationTicks": 2,
          "midi": 35,
          "name": "B1",
          "ticks": 13440,
          "time": 32.8125,
          "velocity": 1
        },
        {
          "duration": 0.0048828125,
          "durationTicks": 2,
          "midi": 44,
          "name": "G#2",
          "ticks": 13536,
          "time": 33.046875,
          "velocity": 0.7165354330708661
        },
        {
          "duration": 0.0048828125,
          "durationTicks": 2,
          "midi": 42,
          "name": "F#2",
          "ticks": 13632,
          "time": 33.28125,
          "velocity": 0.6456692913385826
        },
        {
          "duration": 0.0048828125,
          "durationTicks": 2,
          "midi": 38,
          "name": "D2",
          "ticks": 13632,
          "time": 33.28125,
          "velocity": 0.7874015748031497
        },
        {
          "duration": 0.0048828125,
          "durationTicks": 2,
          "midi": 44,
          "name": "G#2",
          "ticks": 13728,
          "time": 33.515625,
          "velocity": 0.7559055118110236
        },
        {
          "duration": 0.0048828125,
          "durationTicks": 2,
          "midi": 42,
          "name": "F#2",
          "ticks": 13824,
          "time": 33.75,
          "velocity": 0.7244094488188977
        },
        {
          "duration": 0.0048828125,
          "durationTicks": 2,
          "midi": 35,
          "name": "B1",
          "ticks": 13824,
          "time": 33.75,
          "velocity": 0.9763779527559056
        },
        {
          "duration": 0.0048828125,
          "durationTicks": 2,
          "midi": 44,
          "name": "G#2",
          "ticks": 13920,
          "time": 33.984375,
          "velocity": 0.7716535433070866
        },
        {
          "duration": 0.0048828125,
          "durationTicks": 2,
          "midi": 42,
          "name": "F#2",
          "ticks": 14016,
          "time": 34.21875,
          "velocity": 0.7874015748031497
        },
        {
          "duration": 0.0048828125,
          "durationTicks": 2,
          "midi": 38,
          "name": "D2",
          "ticks": 14016,
          "time": 34.21875,
          "velocity": 0.7874015748031497
        },
        {
          "duration": 0.0048828125,
          "durationTicks": 2,
          "midi": 44,
          "name": "G#2",
          "ticks": 14112,
          "time": 34.453125,
          "velocity": 0.6929133858267716
        },
        {
          "duration": 0.0048828125,
          "durationTicks": 2,
          "midi": 42,
          "name": "F#2",
          "ticks": 14208,
          "time": 34.6875,
          "velocity": 0.6850393700787402
        },
        {
          "duration": 0.0048828125,
          "durationTicks": 2,
          "midi": 35,
          "name": "B1",
          "ticks": 14208,
          "time": 34.6875,
          "velocity": 1
        },
        {
          "duration": 0.0048828125,
          "durationTicks": 2,
          "midi": 44,
          "name": "G#2",
          "ticks": 14304,
          "time": 34.921875,
          "velocity": 0.7559055118110236
        },
        {
          "duration": 0.0048828125,
          "durationTicks": 2,
          "midi": 42,
          "name": "F#2",
          "ticks": 14400,
          "time": 35.15625,
          "velocity": 0.7401574803149606
        },
        {
          "duration": 0.0048828125,
          "durationTicks": 2,
          "midi": 38,
          "name": "D2",
          "ticks": 14400,
          "time": 35.15625,
          "velocity": 0.7874015748031497
        },
        {
          "duration": 0.0048828125,
          "durationTicks": 2,
          "midi": 46,
          "name": "A#2",
          "ticks": 14496,
          "time": 35.390625,
          "velocity": 0.6377952755905512
        },
        {
          "duration": 0.0048828125,
          "durationTicks": 2,
          "midi": 42,
          "name": "F#2",
          "ticks": 14592,
          "time": 35.625,
          "velocity": 0.905511811023622
        },
        {
          "duration": 0.0048828125,
          "durationTicks": 2,
          "midi": 35,
          "name": "B1",
          "ticks": 14592,
          "time": 35.625,
          "velocity": 1
        },
        {
          "duration": 0.0048828125,
          "durationTicks": 2,
          "midi": 44,
          "name": "G#2",
          "ticks": 14688,
          "time": 35.859375,
          "velocity": 0.6929133858267716
        },
        {
          "duration": 0.0048828125,
          "durationTicks": 2,
          "midi": 42,
          "name": "F#2",
          "ticks": 14784,
          "time": 36.09375,
          "velocity": 0.5905511811023622
        },
        {
          "duration": 0.0048828125,
          "durationTicks": 2,
          "midi": 38,
          "name": "D2",
          "ticks": 14784,
          "time": 36.09375,
          "velocity": 0.7874015748031497
        },
        {
          "duration": 0.0048828125,
          "durationTicks": 2,
          "midi": 44,
          "name": "G#2",
          "ticks": 14880,
          "time": 36.328125,
          "velocity": 0.6456692913385826
        },
        {
          "duration": 0.0048828125,
          "durationTicks": 2,
          "midi": 42,
          "name": "F#2",
          "ticks": 14976,
          "time": 36.5625,
          "velocity": 0.6850393700787402
        },
        {
          "duration": 0.0048828125,
          "durationTicks": 2,
          "midi": 35,
          "name": "B1",
          "ticks": 14976,
          "time": 36.5625,
          "velocity": 0.9763779527559056
        },
        {
          "duration": 0.0048828125,
          "durationTicks": 2,
          "midi": 44,
          "name": "G#2",
          "ticks": 15072,
          "time": 36.796875,
          "velocity": 0.6377952755905512
        },
        {
          "duration": 0.0048828125,
          "durationTicks": 2,
          "midi": 42,
          "name": "F#2",
          "ticks": 15168,
          "time": 37.03125,
          "velocity": 0.6771653543307087
        },
        {
          "duration": 0.0048828125,
          "durationTicks": 2,
          "midi": 38,
          "name": "D2",
          "ticks": 15168,
          "time": 37.03125,
          "velocity": 0.7874015748031497
        },
        {
          "duration": 0.0048828125,
          "durationTicks": 2,
          "midi": 44,
          "name": "G#2",
          "ticks": 15264,
          "time": 37.265625,
          "velocity": 0.7559055118110236
        },
        {
          "duration": 0.0048828125,
          "durationTicks": 2,
          "midi": 42,
          "name": "F#2",
          "ticks": 15360,
          "time": 37.5,
          "velocity": 0.8582677165354331
        },
        {
          "duration": 0.0048828125,
          "durationTicks": 2,
          "midi": 35,
          "name": "B1",
          "ticks": 15360,
          "time": 37.5,
          "velocity": 1
        },
        {
          "duration": 0.0048828125,
          "durationTicks": 2,
          "midi": 44,
          "name": "G#2",
          "ticks": 15456,
          "time": 37.734375,
          "velocity": 0.7086614173228346
        },
        {
          "duration": 0.0048828125,
          "durationTicks": 2,
          "midi": 42,
          "name": "F#2",
          "ticks": 15552,
          "time": 37.96875,
          "velocity": 0.6850393700787402
        },
        {
          "duration": 0.0048828125,
          "durationTicks": 2,
          "midi": 38,
          "name": "D2",
          "ticks": 15552,
          "time": 37.96875,
          "velocity": 0.7874015748031497
        },
        {
          "duration": 0.0048828125,
          "durationTicks": 2,
          "midi": 44,
          "name": "G#2",
          "ticks": 15648,
          "time": 38.203125,
          "velocity": 0.7559055118110236
        },
        {
          "duration": 0.0048828125,
          "durationTicks": 2,
          "midi": 42,
          "name": "F#2",
          "ticks": 15744,
          "time": 38.4375,
          "velocity": 0.7086614173228346
        },
        {
          "duration": 0.0048828125,
          "durationTicks": 2,
          "midi": 35,
          "name": "B1",
          "ticks": 15744,
          "time": 38.4375,
          "velocity": 1
        },
        {
          "duration": 0.0048828125,
          "durationTicks": 2,
          "midi": 44,
          "name": "G#2",
          "ticks": 15840,
          "time": 38.671875,
          "velocity": 0.6771653543307087
        },
        {
          "duration": 0.0048828125,
          "durationTicks": 2,
          "midi": 42,
          "name": "F#2",
          "ticks": 15936,
          "time": 38.90625,
          "velocity": 0.7244094488188977
        },
        {
          "duration": 0.0048828125,
          "durationTicks": 2,
          "midi": 38,
          "name": "D2",
          "ticks": 15936,
          "time": 38.90625,
          "velocity": 0.7874015748031497
        },
        {
          "duration": 0.0048828125,
          "durationTicks": 2,
          "midi": 46,
          "name": "A#2",
          "ticks": 16032,
          "time": 39.140625,
          "velocity": 0.6850393700787402
        },
        {
          "duration": 0.0048828125,
          "durationTicks": 2,
          "midi": 55,
          "name": "G3",
          "ticks": 16128,
          "time": 39.375,
          "velocity": 0.8661417322834646
        },
        {
          "duration": 0.0048828125,
          "durationTicks": 2,
          "midi": 35,
          "name": "B1",
          "ticks": 16128,
          "time": 39.375,
          "velocity": 1
        },
        {
          "duration": 0.0048828125,
          "durationTicks": 2,
          "midi": 44,
          "name": "G#2",
          "ticks": 16224,
          "time": 39.609375,
          "velocity": 0.6929133858267716
        },
        {
          "duration": 0.0048828125,
          "durationTicks": 2,
          "midi": 42,
          "name": "F#2",
          "ticks": 16320,
          "time": 39.84375,
          "velocity": 0.5905511811023622
        },
        {
          "duration": 0.0048828125,
          "durationTicks": 2,
          "midi": 38,
          "name": "D2",
          "ticks": 16320,
          "time": 39.84375,
          "velocity": 0.7874015748031497
        },
        {
          "duration": 0.0048828125,
          "durationTicks": 2,
          "midi": 44,
          "name": "G#2",
          "ticks": 16416,
          "time": 40.078125,
          "velocity": 0.6456692913385826
        },
        {
          "duration": 0.0048828125,
          "durationTicks": 2,
          "midi": 42,
          "name": "F#2",
          "ticks": 16512,
          "time": 40.3125,
          "velocity": 0.6850393700787402
        },
        {
          "duration": 0.0048828125,
          "durationTicks": 2,
          "midi": 35,
          "name": "B1",
          "ticks": 16512,
          "time": 40.3125,
          "velocity": 0.9763779527559056
        },
        {
          "duration": 0.0048828125,
          "durationTicks": 2,
          "midi": 44,
          "name": "G#2",
          "ticks": 16608,
          "time": 40.546875,
          "velocity": 0.6377952755905512
        },
        {
          "duration": 0.0048828125,
          "durationTicks": 2,
          "midi": 42,
          "name": "F#2",
          "ticks": 16704,
          "time": 40.78125,
          "velocity": 0.6771653543307087
        },
        {
          "duration": 0.0048828125,
          "durationTicks": 2,
          "midi": 38,
          "name": "D2",
          "ticks": 16704,
          "time": 40.78125,
          "velocity": 0.7874015748031497
        },
        {
          "duration": 0.0048828125,
          "durationTicks": 2,
          "midi": 44,
          "name": "G#2",
          "ticks": 16800,
          "time": 41.015625,
          "velocity": 0.7559055118110236
        },
        {
          "duration": 0.0048828125,
          "durationTicks": 2,
          "midi": 42,
          "name": "F#2",
          "ticks": 16896,
          "time": 41.25,
          "velocity": 0.8582677165354331
        },
        {
          "duration": 0.0048828125,
          "durationTicks": 2,
          "midi": 35,
          "name": "B1",
          "ticks": 16896,
          "time": 41.25,
          "velocity": 1
        },
        {
          "duration": 0.0048828125,
          "durationTicks": 2,
          "midi": 44,
          "name": "G#2",
          "ticks": 16992,
          "time": 41.484375,
          "velocity": 0.7086614173228346
        },
        {
          "duration": 0.0048828125,
          "durationTicks": 2,
          "midi": 42,
          "name": "F#2",
          "ticks": 17088,
          "time": 41.71875,
          "velocity": 0.6850393700787402
        },
        {
          "duration": 0.0048828125,
          "durationTicks": 2,
          "midi": 38,
          "name": "D2",
          "ticks": 17088,
          "time": 41.71875,
          "velocity": 0.7874015748031497
        },
        {
          "duration": 0.0048828125,
          "durationTicks": 2,
          "midi": 44,
          "name": "G#2",
          "ticks": 17184,
          "time": 41.953125,
          "velocity": 0.7559055118110236
        },
        {
          "duration": 0.0048828125,
          "durationTicks": 2,
          "midi": 42,
          "name": "F#2",
          "ticks": 17280,
          "time": 42.1875,
          "velocity": 0.7086614173228346
        },
        {
          "duration": 0.0048828125,
          "durationTicks": 2,
          "midi": 35,
          "name": "B1",
          "ticks": 17280,
          "time": 42.1875,
          "velocity": 1
        },
        {
          "duration": 0.0048828125,
          "durationTicks": 2,
          "midi": 44,
          "name": "G#2",
          "ticks": 17376,
          "time": 42.421875,
          "velocity": 0.6771653543307087
        },
        {
          "duration": 0.0048828125,
          "durationTicks": 2,
          "midi": 42,
          "name": "F#2",
          "ticks": 17472,
          "time": 42.65625,
          "velocity": 0.7244094488188977
        },
        {
          "duration": 0.0048828125,
          "durationTicks": 2,
          "midi": 38,
          "name": "D2",
          "ticks": 17472,
          "time": 42.65625,
          "velocity": 0.7874015748031497
        },
        {
          "duration": 0.0048828125,
          "durationTicks": 2,
          "midi": 46,
          "name": "A#2",
          "ticks": 17568,
          "time": 42.890625,
          "velocity": 0.6850393700787402
        },
        {
          "duration": 0.0048828125,
          "durationTicks": 2,
          "midi": 42,
          "name": "F#2",
          "ticks": 17664,
          "time": 43.125,
          "velocity": 0.7086614173228346
        },
        {
          "duration": 0.0048828125,
          "durationTicks": 2,
          "midi": 35,
          "name": "B1",
          "ticks": 17664,
          "time": 43.125,
          "velocity": 0.9763779527559056
        },
        {
          "duration": 0.0048828125,
          "durationTicks": 2,
          "midi": 44,
          "name": "G#2",
          "ticks": 17760,
          "time": 43.359375,
          "velocity": 0.7322834645669292
        },
        {
          "duration": 0.0048828125,
          "durationTicks": 2,
          "midi": 42,
          "name": "F#2",
          "ticks": 17856,
          "time": 43.59375,
          "velocity": 0.7559055118110236
        },
        {
          "duration": 0.0048828125,
          "durationTicks": 2,
          "midi": 38,
          "name": "D2",
          "ticks": 17856,
          "time": 43.59375,
          "velocity": 0.7874015748031497
        },
        {
          "duration": 0.0048828125,
          "durationTicks": 2,
          "midi": 44,
          "name": "G#2",
          "ticks": 17952,
          "time": 43.828125,
          "velocity": 0.7874015748031497
        },
        {
          "duration": 0.0048828125,
          "durationTicks": 2,
          "midi": 42,
          "name": "F#2",
          "ticks": 18048,
          "time": 44.0625,
          "velocity": 0.7244094488188977
        },
        {
          "duration": 0.0048828125,
          "durationTicks": 2,
          "midi": 35,
          "name": "B1",
          "ticks": 18048,
          "time": 44.0625,
          "velocity": 1
        },
        {
          "duration": 0.0048828125,
          "durationTicks": 2,
          "midi": 44,
          "name": "G#2",
          "ticks": 18144,
          "time": 44.296875,
          "velocity": 0.7165354330708661
        },
        {
          "duration": 0.0048828125,
          "durationTicks": 2,
          "midi": 42,
          "name": "F#2",
          "ticks": 18240,
          "time": 44.53125,
          "velocity": 0.6456692913385826
        },
        {
          "duration": 0.0048828125,
          "durationTicks": 2,
          "midi": 38,
          "name": "D2",
          "ticks": 18240,
          "time": 44.53125,
          "velocity": 0.7874015748031497
        },
        {
          "duration": 0.0048828125,
          "durationTicks": 2,
          "midi": 44,
          "name": "G#2",
          "ticks": 18336,
          "time": 44.765625,
          "velocity": 0.7559055118110236
        },
        {
          "duration": 0.0048828125,
          "durationTicks": 2,
          "midi": 42,
          "name": "F#2",
          "ticks": 18432,
          "time": 45,
          "velocity": 0.7244094488188977
        },
        {
          "duration": 0.0048828125,
          "durationTicks": 2,
          "midi": 35,
          "name": "B1",
          "ticks": 18432,
          "time": 45,
          "velocity": 0.9763779527559056
        },
        {
          "duration": 0.0048828125,
          "durationTicks": 2,
          "midi": 44,
          "name": "G#2",
          "ticks": 18528,
          "time": 45.234375,
          "velocity": 0.7716535433070866
        },
        {
          "duration": 0.0048828125,
          "durationTicks": 2,
          "midi": 42,
          "name": "F#2",
          "ticks": 18624,
          "time": 45.46875,
          "velocity": 0.7874015748031497
        },
        {
          "duration": 0.0048828125,
          "durationTicks": 2,
          "midi": 38,
          "name": "D2",
          "ticks": 18624,
          "time": 45.46875,
          "velocity": 0.7874015748031497
        },
        {
          "duration": 0.0048828125,
          "durationTicks": 2,
          "midi": 44,
          "name": "G#2",
          "ticks": 18720,
          "time": 45.703125,
          "velocity": 0.6929133858267716
        },
        {
          "duration": 0.0048828125,
          "durationTicks": 2,
          "midi": 42,
          "name": "F#2",
          "ticks": 18816,
          "time": 45.9375,
          "velocity": 0.6850393700787402
        },
        {
          "duration": 0.0048828125,
          "durationTicks": 2,
          "midi": 35,
          "name": "B1",
          "ticks": 18816,
          "time": 45.9375,
          "velocity": 1
        },
        {
          "duration": 0.0048828125,
          "durationTicks": 2,
          "midi": 44,
          "name": "G#2",
          "ticks": 18912,
          "time": 46.171875,
          "velocity": 0.7559055118110236
        },
        {
          "duration": 0.0048828125,
          "durationTicks": 2,
          "midi": 42,
          "name": "F#2",
          "ticks": 19008,
          "time": 46.40625,
          "velocity": 0.7401574803149606
        },
        {
          "duration": 0.0048828125,
          "durationTicks": 2,
          "midi": 38,
          "name": "D2",
          "ticks": 19008,
          "time": 46.40625,
          "velocity": 0.7874015748031497
        },
        {
          "duration": 0.0048828125,
          "durationTicks": 2,
          "midi": 46,
          "name": "A#2",
          "ticks": 19104,
          "time": 46.640625,
          "velocity": 0.6377952755905512
        },
        {
          "duration": 0.0048828125,
          "durationTicks": 2,
          "midi": 42,
          "name": "F#2",
          "ticks": 19200,
          "time": 46.875,
          "velocity": 0.905511811023622
        },
        {
          "duration": 0.0048828125,
          "durationTicks": 2,
          "midi": 35,
          "name": "B1",
          "ticks": 19200,
          "time": 46.875,
          "velocity": 1
        },
        {
          "duration": 0.0048828125,
          "durationTicks": 2,
          "midi": 44,
          "name": "G#2",
          "ticks": 19296,
          "time": 47.109375,
          "velocity": 0.6929133858267716
        },
        {
          "duration": 0.0048828125,
          "durationTicks": 2,
          "midi": 42,
          "name": "F#2",
          "ticks": 19392,
          "time": 47.34375,
          "velocity": 0.5905511811023622
        },
        {
          "duration": 0.0048828125,
          "durationTicks": 2,
          "midi": 38,
          "name": "D2",
          "ticks": 19392,
          "time": 47.34375,
          "velocity": 0.7874015748031497
        },
        {
          "duration": 0.0048828125,
          "durationTicks": 2,
          "midi": 44,
          "name": "G#2",
          "ticks": 19488,
          "time": 47.578125,
          "velocity": 0.6456692913385826
        },
        {
          "duration": 0.0048828125,
          "durationTicks": 2,
          "midi": 42,
          "name": "F#2",
          "ticks": 19584,
          "time": 47.8125,
          "velocity": 0.6850393700787402
        },
        {
          "duration": 0.0048828125,
          "durationTicks": 2,
          "midi": 35,
          "name": "B1",
          "ticks": 19584,
          "time": 47.8125,
          "velocity": 0.9763779527559056
        },
        {
          "duration": 0.0048828125,
          "durationTicks": 2,
          "midi": 44,
          "name": "G#2",
          "ticks": 19680,
          "time": 48.046875,
          "velocity": 0.6377952755905512
        },
        {
          "duration": 0.0048828125,
          "durationTicks": 2,
          "midi": 42,
          "name": "F#2",
          "ticks": 19776,
          "time": 48.28125,
          "velocity": 0.6771653543307087
        },
        {
          "duration": 0.0048828125,
          "durationTicks": 2,
          "midi": 38,
          "name": "D2",
          "ticks": 19776,
          "time": 48.28125,
          "velocity": 0.7874015748031497
        },
        {
          "duration": 0.0048828125,
          "durationTicks": 2,
          "midi": 44,
          "name": "G#2",
          "ticks": 19872,
          "time": 48.515625,
          "velocity": 0.7559055118110236
        },
        {
          "duration": 0.0048828125,
          "durationTicks": 2,
          "midi": 42,
          "name": "F#2",
          "ticks": 19968,
          "time": 48.75,
          "velocity": 0.8582677165354331
        },
        {
          "duration": 0.0048828125,
          "durationTicks": 2,
          "midi": 35,
          "name": "B1",
          "ticks": 19968,
          "time": 48.75,
          "velocity": 1
        },
        {
          "duration": 0.0048828125,
          "durationTicks": 2,
          "midi": 44,
          "name": "G#2",
          "ticks": 20064,
          "time": 48.984375,
          "velocity": 0.7086614173228346
        },
        {
          "duration": 0.0048828125,
          "durationTicks": 2,
          "midi": 42,
          "name": "F#2",
          "ticks": 20160,
          "time": 49.21875,
          "velocity": 0.6850393700787402
        },
        {
          "duration": 0.0048828125,
          "durationTicks": 2,
          "midi": 38,
          "name": "D2",
          "ticks": 20160,
          "time": 49.21875,
          "velocity": 0.7874015748031497
        },
        {
          "duration": 0.0048828125,
          "durationTicks": 2,
          "midi": 44,
          "name": "G#2",
          "ticks": 20256,
          "time": 49.453125,
          "velocity": 0.7559055118110236
        },
        {
          "duration": 0.0048828125,
          "durationTicks": 2,
          "midi": 42,
          "name": "F#2",
          "ticks": 20352,
          "time": 49.6875,
          "velocity": 0.7086614173228346
        },
        {
          "duration": 0.0048828125,
          "durationTicks": 2,
          "midi": 35,
          "name": "B1",
          "ticks": 20352,
          "time": 49.6875,
          "velocity": 1
        },
        {
          "duration": 0.0048828125,
          "durationTicks": 2,
          "midi": 44,
          "name": "G#2",
          "ticks": 20448,
          "time": 49.921875,
          "velocity": 0.6771653543307087
        },
        {
          "duration": 0.0048828125,
          "durationTicks": 2,
          "midi": 42,
          "name": "F#2",
          "ticks": 20544,
          "time": 50.15625,
          "velocity": 0.7244094488188977
        },
        {
          "duration": 0.0048828125,
          "durationTicks": 2,
          "midi": 38,
          "name": "D2",
          "ticks": 20544,
          "time": 50.15625,
          "velocity": 0.7874015748031497
        },
        {
          "duration": 0.0048828125,
          "durationTicks": 2,
          "midi": 46,
          "name": "A#2",
          "ticks": 20640,
          "time": 50.390625,
          "velocity": 0.6850393700787402
        },
        {
          "duration": 0.0048828125,
          "durationTicks": 2,
          "midi": 55,
          "name": "G3",
          "ticks": 20736,
          "time": 50.625,
          "velocity": 0.8661417322834646
        },
        {
          "duration": 0.0048828125,
          "durationTicks": 2,
          "midi": 35,
          "name": "B1",
          "ticks": 20736,
          "time": 50.625,
          "velocity": 1
        },
        {
          "duration": 0.0048828125,
          "durationTicks": 2,
          "midi": 44,
          "name": "G#2",
          "ticks": 20832,
          "time": 50.859375,
          "velocity": 0.6929133858267716
        },
        {
          "duration": 0.0048828125,
          "durationTicks": 2,
          "midi": 42,
          "name": "F#2",
          "ticks": 20928,
          "time": 51.09375,
          "velocity": 0.5905511811023622
        },
        {
          "duration": 0.0048828125,
          "durationTicks": 2,
          "midi": 38,
          "name": "D2",
          "ticks": 20928,
          "time": 51.09375,
          "velocity": 0.7874015748031497
        },
        {
          "duration": 0.0048828125,
          "durationTicks": 2,
          "midi": 44,
          "name": "G#2",
          "ticks": 21024,
          "time": 51.328125,
          "velocity": 0.6456692913385826
        },
        {
          "duration": 0.0048828125,
          "durationTicks": 2,
          "midi": 42,
          "name": "F#2",
          "ticks": 21120,
          "time": 51.5625,
          "velocity": 0.6850393700787402
        },
        {
          "duration": 0.0048828125,
          "durationTicks": 2,
          "midi": 35,
          "name": "B1",
          "ticks": 21120,
          "time": 51.5625,
          "velocity": 0.9763779527559056
        },
        {
          "duration": 0.0048828125,
          "durationTicks": 2,
          "midi": 44,
          "name": "G#2",
          "ticks": 21216,
          "time": 51.796875,
          "velocity": 0.6377952755905512
        },
        {
          "duration": 0.0048828125,
          "durationTicks": 2,
          "midi": 42,
          "name": "F#2",
          "ticks": 21312,
          "time": 52.03125,
          "velocity": 0.6771653543307087
        },
        {
          "duration": 0.0048828125,
          "durationTicks": 2,
          "midi": 38,
          "name": "D2",
          "ticks": 21312,
          "time": 52.03125,
          "velocity": 0.7874015748031497
        },
        {
          "duration": 0.0048828125,
          "durationTicks": 2,
          "midi": 44,
          "name": "G#2",
          "ticks": 21408,
          "time": 52.265625,
          "velocity": 0.7559055118110236
        },
        {
          "duration": 0.0048828125,
          "durationTicks": 2,
          "midi": 42,
          "name": "F#2",
          "ticks": 21504,
          "time": 52.5,
          "velocity": 0.8582677165354331
        },
        {
          "duration": 0.0048828125,
          "durationTicks": 2,
          "midi": 35,
          "name": "B1",
          "ticks": 21504,
          "time": 52.5,
          "velocity": 1
        },
        {
          "duration": 0.0048828125,
          "durationTicks": 2,
          "midi": 44,
          "name": "G#2",
          "ticks": 21600,
          "time": 52.734375,
          "velocity": 0.7086614173228346
        },
        {
          "duration": 0.0048828125,
          "durationTicks": 2,
          "midi": 42,
          "name": "F#2",
          "ticks": 21696,
          "time": 52.96875,
          "velocity": 0.6850393700787402
        },
        {
          "duration": 0.0048828125,
          "durationTicks": 2,
          "midi": 38,
          "name": "D2",
          "ticks": 21696,
          "time": 52.96875,
          "velocity": 0.7874015748031497
        },
        {
          "duration": 0.0048828125,
          "durationTicks": 2,
          "midi": 44,
          "name": "G#2",
          "ticks": 21792,
          "time": 53.203125,
          "velocity": 0.7559055118110236
        },
        {
          "duration": 0.0048828125,
          "durationTicks": 2,
          "midi": 42,
          "name": "F#2",
          "ticks": 21888,
          "time": 53.4375,
          "velocity": 0.7086614173228346
        },
        {
          "duration": 0.0048828125,
          "durationTicks": 2,
          "midi": 35,
          "name": "B1",
          "ticks": 21888,
          "time": 53.4375,
          "velocity": 1
        },
        {
          "duration": 0.0048828125,
          "durationTicks": 2,
          "midi": 44,
          "name": "G#2",
          "ticks": 21984,
          "time": 53.671875,
          "velocity": 0.6771653543307087
        },
        {
          "duration": 0.0048828125,
          "durationTicks": 2,
          "midi": 42,
          "name": "F#2",
          "ticks": 22080,
          "time": 53.90625,
          "velocity": 0.7244094488188977
        },
        {
          "duration": 0.0048828125,
          "durationTicks": 2,
          "midi": 38,
          "name": "D2",
          "ticks": 22080,
          "time": 53.90625,
          "velocity": 0.7874015748031497
        },
        {
          "duration": 0.0048828125,
          "durationTicks": 2,
          "midi": 46,
          "name": "A#2",
          "ticks": 22176,
          "time": 54.140625,
          "velocity": 0.6850393700787402
        },
        {
          "duration": 0.0048828125,
          "durationTicks": 2,
          "midi": 42,
          "name": "F#2",
          "ticks": 22272,
          "time": 54.375,
          "velocity": 0.7086614173228346
        },
        {
          "duration": 0.0048828125,
          "durationTicks": 2,
          "midi": 35,
          "name": "B1",
          "ticks": 22272,
          "time": 54.375,
          "velocity": 0.9763779527559056
        },
        {
          "duration": 0.0048828125,
          "durationTicks": 2,
          "midi": 44,
          "name": "G#2",
          "ticks": 22368,
          "time": 54.609375,
          "velocity": 0.7322834645669292
        },
        {
          "duration": 0.0048828125,
          "durationTicks": 2,
          "midi": 42,
          "name": "F#2",
          "ticks": 22464,
          "time": 54.84375,
          "velocity": 0.7559055118110236
        },
        {
          "duration": 0.0048828125,
          "durationTicks": 2,
          "midi": 38,
          "name": "D2",
          "ticks": 22464,
          "time": 54.84375,
          "velocity": 0.7874015748031497
        },
        {
          "duration": 0.0048828125,
          "durationTicks": 2,
          "midi": 44,
          "name": "G#2",
          "ticks": 22560,
          "time": 55.078125,
          "velocity": 0.7874015748031497
        },
        {
          "duration": 0.0048828125,
          "durationTicks": 2,
          "midi": 42,
          "name": "F#2",
          "ticks": 22656,
          "time": 55.3125,
          "velocity": 0.7244094488188977
        },
        {
          "duration": 0.0048828125,
          "durationTicks": 2,
          "midi": 35,
          "name": "B1",
          "ticks": 22656,
          "time": 55.3125,
          "velocity": 1
        },
        {
          "duration": 0.0048828125,
          "durationTicks": 2,
          "midi": 44,
          "name": "G#2",
          "ticks": 22752,
          "time": 55.546875,
          "velocity": 0.7165354330708661
        },
        {
          "duration": 0.0048828125,
          "durationTicks": 2,
          "midi": 42,
          "name": "F#2",
          "ticks": 22848,
          "time": 55.78125,
          "velocity": 0.6456692913385826
        },
        {
          "duration": 0.0048828125,
          "durationTicks": 2,
          "midi": 38,
          "name": "D2",
          "ticks": 22848,
          "time": 55.78125,
          "velocity": 0.7874015748031497
        },
        {
          "duration": 0.0048828125,
          "durationTicks": 2,
          "midi": 44,
          "name": "G#2",
          "ticks": 22944,
          "time": 56.015625,
          "velocity": 0.7559055118110236
        },
        {
          "duration": 0.0048828125,
          "durationTicks": 2,
          "midi": 42,
          "name": "F#2",
          "ticks": 23040,
          "time": 56.25,
          "velocity": 0.7244094488188977
        },
        {
          "duration": 0.0048828125,
          "durationTicks": 2,
          "midi": 35,
          "name": "B1",
          "ticks": 23040,
          "time": 56.25,
          "velocity": 0.9763779527559056
        },
        {
          "duration": 0.0048828125,
          "durationTicks": 2,
          "midi": 44,
          "name": "G#2",
          "ticks": 23136,
          "time": 56.484375,
          "velocity": 0.7716535433070866
        },
        {
          "duration": 0.0048828125,
          "durationTicks": 2,
          "midi": 42,
          "name": "F#2",
          "ticks": 23232,
          "time": 56.71875,
          "velocity": 0.7874015748031497
        },
        {
          "duration": 0.0048828125,
          "durationTicks": 2,
          "midi": 38,
          "name": "D2",
          "ticks": 23232,
          "time": 56.71875,
          "velocity": 0.7874015748031497
        },
        {
          "duration": 0.0048828125,
          "durationTicks": 2,
          "midi": 44,
          "name": "G#2",
          "ticks": 23328,
          "time": 56.953125,
          "velocity": 0.6929133858267716
        },
        {
          "duration": 0.0048828125,
          "durationTicks": 2,
          "midi": 42,
          "name": "F#2",
          "ticks": 23424,
          "time": 57.1875,
          "velocity": 0.6850393700787402
        },
        {
          "duration": 0.0048828125,
          "durationTicks": 2,
          "midi": 35,
          "name": "B1",
          "ticks": 23424,
          "time": 57.1875,
          "velocity": 1
        },
        {
          "duration": 0.0048828125,
          "durationTicks": 2,
          "midi": 44,
          "name": "G#2",
          "ticks": 23520,
          "time": 57.421875,
          "velocity": 0.7559055118110236
        },
        {
          "duration": 0.0048828125,
          "durationTicks": 2,
          "midi": 42,
          "name": "F#2",
          "ticks": 23616,
          "time": 57.65625,
          "velocity": 0.7401574803149606
        },
        {
          "duration": 0.0048828125,
          "durationTicks": 2,
          "midi": 38,
          "name": "D2",
          "ticks": 23616,
          "time": 57.65625,
          "velocity": 0.7874015748031497
        },
        {
          "duration": 0.0048828125,
          "durationTicks": 2,
          "midi": 46,
          "name": "A#2",
          "ticks": 23712,
          "time": 57.890625,
          "velocity": 0.6377952755905512
        },
        {
          "duration": 0.0048828125,
          "durationTicks": 2,
          "midi": 42,
          "name": "F#2",
          "ticks": 23808,
          "time": 58.125,
          "velocity": 0.905511811023622
        },
        {
          "duration": 0.0048828125,
          "durationTicks": 2,
          "midi": 35,
          "name": "B1",
          "ticks": 23808,
          "time": 58.125,
          "velocity": 1
        },
        {
          "duration": 0.0048828125,
          "durationTicks": 2,
          "midi": 44,
          "name": "G#2",
          "ticks": 23904,
          "time": 58.359375,
          "velocity": 0.6929133858267716
        },
        {
          "duration": 0.0048828125,
          "durationTicks": 2,
          "midi": 42,
          "name": "F#2",
          "ticks": 24000,
          "time": 58.59375,
          "velocity": 0.5905511811023622
        },
        {
          "duration": 0.0048828125,
          "durationTicks": 2,
          "midi": 38,
          "name": "D2",
          "ticks": 24000,
          "time": 58.59375,
          "velocity": 0.7874015748031497
        },
        {
          "duration": 0.0048828125,
          "durationTicks": 2,
          "midi": 44,
          "name": "G#2",
          "ticks": 24096,
          "time": 58.828125,
          "velocity": 0.6456692913385826
        },
        {
          "duration": 0.0048828125,
          "durationTicks": 2,
          "midi": 42,
          "name": "F#2",
          "ticks": 24192,
          "time": 59.0625,
          "velocity": 0.6850393700787402
        },
        {
          "duration": 0.0048828125,
          "durationTicks": 2,
          "midi": 35,
          "name": "B1",
          "ticks": 24192,
          "time": 59.0625,
          "velocity": 0.9763779527559056
        },
        {
          "duration": 0.0048828125,
          "durationTicks": 2,
          "midi": 44,
          "name": "G#2",
          "ticks": 24288,
          "time": 59.296875,
          "velocity": 0.6377952755905512
        },
        {
          "duration": 0.0048828125,
          "durationTicks": 2,
          "midi": 42,
          "name": "F#2",
          "ticks": 24384,
          "time": 59.53125,
          "velocity": 0.6771653543307087
        },
        {
          "duration": 0.0048828125,
          "durationTicks": 2,
          "midi": 38,
          "name": "D2",
          "ticks": 24384,
          "time": 59.53125,
          "velocity": 0.7874015748031497
        },
        {
          "duration": 0.0048828125,
          "durationTicks": 2,
          "midi": 44,
          "name": "G#2",
          "ticks": 24480,
          "time": 59.765625,
          "velocity": 0.7559055118110236
        },
        {
          "duration": 0.004882812499992895,
          "durationTicks": 2,
          "midi": 42,
          "name": "F#2",
          "ticks": 24576,
          "time": 60,
          "velocity": 0.8582677165354331
        },
        {
          "duration": 0.004882812499992895,
          "durationTicks": 2,
          "midi": 35,
          "name": "B1",
          "ticks": 24576,
          "time": 60,
          "velocity": 1
        },
        {
          "duration": 0.004882812499992895,
          "durationTicks": 2,
          "midi": 44,
          "name": "G#2",
          "ticks": 24672,
          "time": 60.234375,
          "velocity": 0.7086614173228346
        },
        {
          "duration": 0.004882812499992895,
          "durationTicks": 2,
          "midi": 42,
          "name": "F#2",
          "ticks": 24768,
          "time": 60.46875,
          "velocity": 0.6850393700787402
        },
        {
          "duration": 0.004882812499992895,
          "durationTicks": 2,
          "midi": 38,
          "name": "D2",
          "ticks": 24768,
          "time": 60.46875,
          "velocity": 0.7874015748031497
        },
        {
          "duration": 0.004882812499992895,
          "durationTicks": 2,
          "midi": 44,
          "name": "G#2",
          "ticks": 24864,
          "time": 60.703125,
          "velocity": 0.7559055118110236
        },
        {
          "duration": 0.004882812499992895,
          "durationTicks": 2,
          "midi": 42,
          "name": "F#2",
          "ticks": 24960,
          "time": 60.9375,
          "velocity": 0.7086614173228346
        },
        {
          "duration": 0.004882812499992895,
          "durationTicks": 2,
          "midi": 35,
          "name": "B1",
          "ticks": 24960,
          "time": 60.9375,
          "velocity": 1
        },
        {
          "duration": 0.004882812499992895,
          "durationTicks": 2,
          "midi": 44,
          "name": "G#2",
          "ticks": 25056,
          "time": 61.171875,
          "velocity": 0.6771653543307087
        },
        {
          "duration": 0.004882812499992895,
          "durationTicks": 2,
          "midi": 42,
          "name": "F#2",
          "ticks": 25152,
          "time": 61.40625,
          "velocity": 0.7244094488188977
        },
        {
          "duration": 0.004882812499992895,
          "durationTicks": 2,
          "midi": 38,
          "name": "D2",
          "ticks": 25152,
          "time": 61.40625,
          "velocity": 0.7874015748031497
        },
        {
          "duration": 0.004882812499992895,
          "durationTicks": 2,
          "midi": 46,
          "name": "A#2",
          "ticks": 25248,
          "time": 61.640625,
          "velocity": 0.6850393700787402
        },
        {
          "duration": 0.004882812499992895,
          "durationTicks": 2,
          "midi": 55,
          "name": "G3",
          "ticks": 25344,
          "time": 61.875,
          "velocity": 0.8661417322834646
        },
        {
          "duration": 0.004882812499992895,
          "durationTicks": 2,
          "midi": 35,
          "name": "B1",
          "ticks": 25344,
          "time": 61.875,
          "velocity": 1
        },
        {
          "duration": 0.004882812499992895,
          "durationTicks": 2,
          "midi": 42,
          "name": "F#2",
          "ticks": 25440,
          "time": 62.109375,
          "velocity": 0.9291338582677166
        },
        {
          "duration": 0.004882812499992895,
          "durationTicks": 2,
          "midi": 44,
          "name": "G#2",
          "ticks": 25488,
          "time": 62.2265625,
          "velocity": 0.9606299212598425
        },
        {
          "duration": 0.004882812499992895,
          "durationTicks": 2,
          "midi": 42,
          "name": "F#2",
          "ticks": 25536,
          "time": 62.34375,
          "velocity": 0.8346456692913385
        },
        {
          "duration": 0.004882812499992895,
          "durationTicks": 2,
          "midi": 38,
          "name": "D2",
          "ticks": 25536,
          "time": 62.34375,
          "velocity": 0.7874015748031497
        },
        {
          "duration": 0.004882812499992895,
          "durationTicks": 2,
          "midi": 44,
          "name": "G#2",
          "ticks": 25632,
          "time": 62.578125,
          "velocity": 0.7244094488188977
        },
        {
          "duration": 0.004882812499992895,
          "durationTicks": 2,
          "midi": 42,
          "name": "F#2",
          "ticks": 25728,
          "time": 62.8125,
          "velocity": 0.7637795275590551
        },
        {
          "duration": 0.004882812499992895,
          "durationTicks": 2,
          "midi": 35,
          "name": "B1",
          "ticks": 25728,
          "time": 62.8125,
          "velocity": 0.9763779527559056
        },
        {
          "duration": 0.004882812499992895,
          "durationTicks": 2,
          "midi": 44,
          "name": "G#2",
          "ticks": 25824,
          "time": 63.046875,
          "velocity": 0.7165354330708661
        },
        {
          "duration": 0.004882812499992895,
          "durationTicks": 2,
          "midi": 42,
          "name": "F#2",
          "ticks": 25920,
          "time": 63.28125,
          "velocity": 0.7559055118110236
        },
        {
          "duration": 0.004882812499992895,
          "durationTicks": 2,
          "midi": 38,
          "name": "D2",
          "ticks": 25920,
          "time": 63.28125,
          "velocity": 0.7874015748031497
        },
        {
          "duration": 0.004882812499992895,
          "durationTicks": 2,
          "midi": 44,
          "name": "G#2",
          "ticks": 26016,
          "time": 63.515625,
          "velocity": 0.8346456692913385
        },
        {
          "duration": 0.004882812499992895,
          "durationTicks": 2,
          "midi": 42,
          "name": "F#2",
          "ticks": 26112,
          "time": 63.75,
          "velocity": 0.937007874015748
        },
        {
          "duration": 0.004882812499992895,
          "durationTicks": 2,
          "midi": 35,
          "name": "B1",
          "ticks": 26112,
          "time": 63.75,
          "velocity": 1
        },
        {
          "duration": 0.004882812499992895,
          "durationTicks": 2,
          "midi": 44,
          "name": "G#2",
          "ticks": 26208,
          "time": 63.984375,
          "velocity": 0.7874015748031497
        },
        {
          "duration": 0.0048828125,
          "durationTicks": 2,
          "midi": 42,
          "name": "F#2",
          "ticks": 26304,
          "time": 64.21875,
          "velocity": 0.7637795275590551
        },
        {
          "duration": 0.0048828125,
          "durationTicks": 2,
          "midi": 38,
          "name": "D2",
          "ticks": 26304,
          "time": 64.21875,
          "velocity": 0.7874015748031497
        },
        {
          "duration": 0.0048828125,
          "durationTicks": 2,
          "midi": 44,
          "name": "G#2",
          "ticks": 26400,
          "time": 64.453125,
          "velocity": 0.8346456692913385
        },
        {
          "duration": 0.0048828125,
          "durationTicks": 2,
          "midi": 42,
          "name": "F#2",
          "ticks": 26496,
          "time": 64.6875,
          "velocity": 0.7874015748031497
        },
        {
          "duration": 0.0048828125,
          "durationTicks": 2,
          "midi": 35,
          "name": "B1",
          "ticks": 26496,
          "time": 64.6875,
          "velocity": 1
        },
        {
          "duration": 0.0048828125,
          "durationTicks": 2,
          "midi": 44,
          "name": "G#2",
          "ticks": 26592,
          "time": 64.921875,
          "velocity": 0.7559055118110236
        },
        {
          "duration": 0.0048828125,
          "durationTicks": 2,
          "midi": 42,
          "name": "F#2",
          "ticks": 26688,
          "time": 65.15625,
          "velocity": 0.8031496062992126
        },
        {
          "duration": 0.0048828125,
          "durationTicks": 2,
          "midi": 38,
          "name": "D2",
          "ticks": 26688,
          "time": 65.15625,
          "velocity": 0.7874015748031497
        },
        {
          "duration": 0.0048828125,
          "durationTicks": 2,
          "midi": 44,
          "name": "G#2",
          "ticks": 26784,
          "time": 65.390625,
          "velocity": 0.7559055118110236
        },
        {
          "duration": 0.0048828125,
          "durationTicks": 2,
          "midi": 42,
          "name": "F#2",
          "ticks": 26880,
          "time": 65.625,
          "velocity": 0.7874015748031497
        },
        {
          "duration": 0.0048828125,
          "durationTicks": 2,
          "midi": 35,
          "name": "B1",
          "ticks": 26880,
          "time": 65.625,
          "velocity": 0.9763779527559056
        },
        {
          "duration": 0.0048828125,
          "durationTicks": 2,
          "midi": 42,
          "name": "F#2",
          "ticks": 26976,
          "time": 65.859375,
          "velocity": 0.9291338582677166
        },
        {
          "duration": 0.0048828125,
          "durationTicks": 2,
          "midi": 44,
          "name": "G#2",
          "ticks": 27024,
          "time": 65.9765625,
          "velocity": 0.9606299212598425
        },
        {
          "duration": 0.0048828125,
          "durationTicks": 2,
          "midi": 42,
          "name": "F#2",
          "ticks": 27072,
          "time": 66.09375,
          "velocity": 0.8346456692913385
        },
        {
          "duration": 0.0048828125,
          "durationTicks": 2,
          "midi": 38,
          "name": "D2",
          "ticks": 27072,
          "time": 66.09375,
          "velocity": 0.7874015748031497
        },
        {
          "duration": 0.0048828125,
          "durationTicks": 2,
          "midi": 44,
          "name": "G#2",
          "ticks": 27168,
          "time": 66.328125,
          "velocity": 0.8661417322834646
        },
        {
          "duration": 0.0048828125,
          "durationTicks": 2,
          "midi": 42,
          "name": "F#2",
          "ticks": 27264,
          "time": 66.5625,
          "velocity": 0.8031496062992126
        },
        {
          "duration": 0.0048828125,
          "durationTicks": 2,
          "midi": 35,
          "name": "B1",
          "ticks": 27264,
          "time": 66.5625,
          "velocity": 1
        },
        {
          "duration": 0.0048828125,
          "durationTicks": 2,
          "midi": 44,
          "name": "G#2",
          "ticks": 27360,
          "time": 66.796875,
          "velocity": 0.7952755905511811
        },
        {
          "duration": 0.0048828125,
          "durationTicks": 2,
          "midi": 42,
          "name": "F#2",
          "ticks": 27456,
          "time": 67.03125,
          "velocity": 0.7244094488188977
        },
        {
          "duration": 0.0048828125,
          "durationTicks": 2,
          "midi": 38,
          "name": "D2",
          "ticks": 27456,
          "time": 67.03125,
          "velocity": 0.7874015748031497
        },
        {
          "duration": 0.0048828125,
          "durationTicks": 2,
          "midi": 44,
          "name": "G#2",
          "ticks": 27552,
          "time": 67.265625,
          "velocity": 0.8346456692913385
        },
        {
          "duration": 0.0048828125,
          "durationTicks": 2,
          "midi": 42,
          "name": "F#2",
          "ticks": 27648,
          "time": 67.5,
          "velocity": 0.8031496062992126
        },
        {
          "duration": 0.0048828125,
          "durationTicks": 2,
          "midi": 35,
          "name": "B1",
          "ticks": 27648,
          "time": 67.5,
          "velocity": 0.9763779527559056
        },
        {
          "duration": 0.0048828125,
          "durationTicks": 2,
          "midi": 44,
          "name": "G#2",
          "ticks": 27744,
          "time": 67.734375,
          "velocity": 0.8503937007874016
        },
        {
          "duration": 0.0048828125,
          "durationTicks": 2,
          "midi": 42,
          "name": "F#2",
          "ticks": 27840,
          "time": 67.96875,
          "velocity": 0.8661417322834646
        },
        {
          "duration": 0.0048828125,
          "durationTicks": 2,
          "midi": 38,
          "name": "D2",
          "ticks": 27840,
          "time": 67.96875,
          "velocity": 0.7874015748031497
        },
        {
          "duration": 0.0048828125,
          "durationTicks": 2,
          "midi": 44,
          "name": "G#2",
          "ticks": 27936,
          "time": 68.203125,
          "velocity": 0.7716535433070866
        },
        {
          "duration": 0.0048828125,
          "durationTicks": 2,
          "midi": 42,
          "name": "F#2",
          "ticks": 28032,
          "time": 68.4375,
          "velocity": 0.7637795275590551
        },
        {
          "duration": 0.0048828125,
          "durationTicks": 2,
          "midi": 35,
          "name": "B1",
          "ticks": 28032,
          "time": 68.4375,
          "velocity": 1
        },
        {
          "duration": 0.0048828125,
          "durationTicks": 2,
          "midi": 44,
          "name": "G#2",
          "ticks": 28128,
          "time": 68.671875,
          "velocity": 0.8346456692913385
        },
        {
          "duration": 0.0048828125,
          "durationTicks": 2,
          "midi": 42,
          "name": "F#2",
          "ticks": 28224,
          "time": 68.90625,
          "velocity": 0.8188976377952756
        },
        {
          "duration": 0.0048828125,
          "durationTicks": 2,
          "midi": 38,
          "name": "D2",
          "ticks": 28224,
          "time": 68.90625,
          "velocity": 0.7874015748031497
        },
        {
          "duration": 0.0048828125,
          "durationTicks": 2,
          "midi": 44,
          "name": "G#2",
          "ticks": 28320,
          "time": 69.140625,
          "velocity": 0.7086614173228346
        },
        {
          "duration": 0.0048828125,
          "durationTicks": 2,
          "midi": 42,
          "name": "F#2",
          "ticks": 28416,
          "time": 69.375,
          "velocity": 0.905511811023622
        },
        {
          "duration": 0.0048828125,
          "durationTicks": 2,
          "midi": 35,
          "name": "B1",
          "ticks": 28416,
          "time": 69.375,
          "velocity": 1
        },
        {
          "duration": 0.0048828125,
          "durationTicks": 2,
          "midi": 42,
          "name": "F#2",
          "ticks": 28512,
          "time": 69.609375,
          "velocity": 0.9291338582677166
        },
        {
          "duration": 0.0048828125,
          "durationTicks": 2,
          "midi": 44,
          "name": "G#2",
          "ticks": 28560,
          "time": 69.7265625,
          "velocity": 0.9606299212598425
        },
        {
          "duration": 0.0048828125,
          "durationTicks": 2,
          "midi": 42,
          "name": "F#2",
          "ticks": 28608,
          "time": 69.84375,
          "velocity": 0.8346456692913385
        },
        {
          "duration": 0.0048828125,
          "durationTicks": 2,
          "midi": 38,
          "name": "D2",
          "ticks": 28608,
          "time": 69.84375,
          "velocity": 0.7874015748031497
        },
        {
          "duration": 0.0048828125,
          "durationTicks": 2,
          "midi": 44,
          "name": "G#2",
          "ticks": 28704,
          "time": 70.078125,
          "velocity": 0.7244094488188977
        },
        {
          "duration": 0.0048828125,
          "durationTicks": 2,
          "midi": 42,
          "name": "F#2",
          "ticks": 28800,
          "time": 70.3125,
          "velocity": 0.7637795275590551
        },
        {
          "duration": 0.0048828125,
          "durationTicks": 2,
          "midi": 35,
          "name": "B1",
          "ticks": 28800,
          "time": 70.3125,
          "velocity": 0.9763779527559056
        },
        {
          "duration": 0.0048828125,
          "durationTicks": 2,
          "midi": 44,
          "name": "G#2",
          "ticks": 28896,
          "time": 70.546875,
          "velocity": 0.7165354330708661
        },
        {
          "duration": 0.0048828125,
          "durationTicks": 2,
          "midi": 42,
          "name": "F#2",
          "ticks": 28992,
          "time": 70.78125,
          "velocity": 0.7559055118110236
        },
        {
          "duration": 0.0048828125,
          "durationTicks": 2,
          "midi": 38,
          "name": "D2",
          "ticks": 28992,
          "time": 70.78125,
          "velocity": 0.7874015748031497
        },
        {
          "duration": 0.0048828125,
          "durationTicks": 2,
          "midi": 44,
          "name": "G#2",
          "ticks": 29088,
          "time": 71.015625,
          "velocity": 0.8346456692913385
        },
        {
          "duration": 0.0048828125,
          "durationTicks": 2,
          "midi": 42,
          "name": "F#2",
          "ticks": 29184,
          "time": 71.25,
          "velocity": 0.937007874015748
        },
        {
          "duration": 0.0048828125,
          "durationTicks": 2,
          "midi": 35,
          "name": "B1",
          "ticks": 29184,
          "time": 71.25,
          "velocity": 1
        },
        {
          "duration": 0.0048828125,
          "durationTicks": 2,
          "midi": 44,
          "name": "G#2",
          "ticks": 29280,
          "time": 71.484375,
          "velocity": 0.7874015748031497
        },
        {
          "duration": 0.0048828125,
          "durationTicks": 2,
          "midi": 42,
          "name": "F#2",
          "ticks": 29376,
          "time": 71.71875,
          "velocity": 0.7637795275590551
        },
        {
          "duration": 0.0048828125,
          "durationTicks": 2,
          "midi": 38,
          "name": "D2",
          "ticks": 29376,
          "time": 71.71875,
          "velocity": 0.7874015748031497
        },
        {
          "duration": 0.0048828125,
          "durationTicks": 2,
          "midi": 44,
          "name": "G#2",
          "ticks": 29472,
          "time": 71.953125,
          "velocity": 0.8346456692913385
        },
        {
          "duration": 0.0048828125,
          "durationTicks": 2,
          "midi": 42,
          "name": "F#2",
          "ticks": 29568,
          "time": 72.1875,
          "velocity": 0.7874015748031497
        },
        {
          "duration": 0.0048828125,
          "durationTicks": 2,
          "midi": 35,
          "name": "B1",
          "ticks": 29568,
          "time": 72.1875,
          "velocity": 1
        },
        {
          "duration": 0.0048828125,
          "durationTicks": 2,
          "midi": 44,
          "name": "G#2",
          "ticks": 29664,
          "time": 72.421875,
          "velocity": 0.7559055118110236
        },
        {
          "duration": 0.0048828125,
          "durationTicks": 2,
          "midi": 42,
          "name": "F#2",
          "ticks": 29760,
          "time": 72.65625,
          "velocity": 0.8031496062992126
        },
        {
          "duration": 0.0048828125,
          "durationTicks": 2,
          "midi": 38,
          "name": "D2",
          "ticks": 29760,
          "time": 72.65625,
          "velocity": 0.7874015748031497
        },
        {
          "duration": 0.0048828125,
          "durationTicks": 2,
          "midi": 44,
          "name": "G#2",
          "ticks": 29856,
          "time": 72.890625,
          "velocity": 0.7559055118110236
        },
        {
          "duration": 0.0048828125,
          "durationTicks": 2,
          "midi": 42,
          "name": "F#2",
          "ticks": 29952,
          "time": 73.125,
          "velocity": 0.7874015748031497
        },
        {
          "duration": 0.0048828125,
          "durationTicks": 2,
          "midi": 35,
          "name": "B1",
          "ticks": 29952,
          "time": 73.125,
          "velocity": 0.9763779527559056
        },
        {
          "duration": 0.0048828125,
          "durationTicks": 2,
          "midi": 42,
          "name": "F#2",
          "ticks": 30048,
          "time": 73.359375,
          "velocity": 0.9291338582677166
        },
        {
          "duration": 0.0048828125,
          "durationTicks": 2,
          "midi": 44,
          "name": "G#2",
          "ticks": 30096,
          "time": 73.4765625,
          "velocity": 0.9606299212598425
        },
        {
          "duration": 0.0048828125,
          "durationTicks": 2,
          "midi": 42,
          "name": "F#2",
          "ticks": 30144,
          "time": 73.59375,
          "velocity": 0.8346456692913385
        },
        {
          "duration": 0.0048828125,
          "durationTicks": 2,
          "midi": 38,
          "name": "D2",
          "ticks": 30144,
          "time": 73.59375,
          "velocity": 0.7874015748031497
        },
        {
          "duration": 0.0048828125,
          "durationTicks": 2,
          "midi": 44,
          "name": "G#2",
          "ticks": 30240,
          "time": 73.828125,
          "velocity": 0.8661417322834646
        },
        {
          "duration": 0.0048828125,
          "durationTicks": 2,
          "midi": 42,
          "name": "F#2",
          "ticks": 30336,
          "time": 74.0625,
          "velocity": 0.8031496062992126
        },
        {
          "duration": 0.0048828125,
          "durationTicks": 2,
          "midi": 35,
          "name": "B1",
          "ticks": 30336,
          "time": 74.0625,
          "velocity": 1
        },
        {
          "duration": 0.0048828125,
          "durationTicks": 2,
          "midi": 44,
          "name": "G#2",
          "ticks": 30432,
          "time": 74.296875,
          "velocity": 0.7952755905511811
        },
        {
          "duration": 0.0048828125,
          "durationTicks": 2,
          "midi": 42,
          "name": "F#2",
          "ticks": 30528,
          "time": 74.53125,
          "velocity": 0.7244094488188977
        },
        {
          "duration": 0.0048828125,
          "durationTicks": 2,
          "midi": 38,
          "name": "D2",
          "ticks": 30528,
          "time": 74.53125,
          "velocity": 0.7874015748031497
        },
        {
          "duration": 0.0048828125,
          "durationTicks": 2,
          "midi": 44,
          "name": "G#2",
          "ticks": 30624,
          "time": 74.765625,
          "velocity": 0.8346456692913385
        },
        {
          "duration": 0.0048828125,
          "durationTicks": 2,
          "midi": 42,
          "name": "F#2",
          "ticks": 30720,
          "time": 75,
          "velocity": 0.8031496062992126
        },
        {
          "duration": 0.0048828125,
          "durationTicks": 2,
          "midi": 35,
          "name": "B1",
          "ticks": 30720,
          "time": 75,
          "velocity": 0.9763779527559056
        },
        {
          "duration": 0.0048828125,
          "durationTicks": 2,
          "midi": 44,
          "name": "G#2",
          "ticks": 30816,
          "time": 75.234375,
          "velocity": 0.8503937007874016
        },
        {
          "duration": 0.0048828125,
          "durationTicks": 2,
          "midi": 42,
          "name": "F#2",
          "ticks": 30912,
          "time": 75.46875,
          "velocity": 0.8661417322834646
        },
        {
          "duration": 0.0048828125,
          "durationTicks": 2,
          "midi": 38,
          "name": "D2",
          "ticks": 30912,
          "time": 75.46875,
          "velocity": 0.7874015748031497
        },
        {
          "duration": 0.0048828125,
          "durationTicks": 2,
          "midi": 44,
          "name": "G#2",
          "ticks": 31008,
          "time": 75.703125,
          "velocity": 0.7716535433070866
        },
        {
          "duration": 0.0048828125,
          "durationTicks": 2,
          "midi": 42,
          "name": "F#2",
          "ticks": 31104,
          "time": 75.9375,
          "velocity": 0.7637795275590551
        },
        {
          "duration": 0.0048828125,
          "durationTicks": 2,
          "midi": 35,
          "name": "B1",
          "ticks": 31104,
          "time": 75.9375,
          "velocity": 1
        },
        {
          "duration": 0.0048828125,
          "durationTicks": 2,
          "midi": 44,
          "name": "G#2",
          "ticks": 31200,
          "time": 76.171875,
          "velocity": 0.8346456692913385
        },
        {
          "duration": 0.0048828125,
          "durationTicks": 2,
          "midi": 42,
          "name": "F#2",
          "ticks": 31296,
          "time": 76.40625,
          "velocity": 0.8188976377952756
        },
        {
          "duration": 0.0048828125,
          "durationTicks": 2,
          "midi": 38,
          "name": "D2",
          "ticks": 31296,
          "time": 76.40625,
          "velocity": 0.7874015748031497
        },
        {
          "duration": 0.0048828125,
          "durationTicks": 2,
          "midi": 44,
          "name": "G#2",
          "ticks": 31392,
          "time": 76.640625,
          "velocity": 0.7086614173228346
        },
        {
          "duration": 0.0048828125,
          "durationTicks": 2,
          "midi": 42,
          "name": "F#2",
          "ticks": 31488,
          "time": 76.875,
          "velocity": 0.905511811023622
        },
        {
          "duration": 0.0048828125,
          "durationTicks": 2,
          "midi": 35,
          "name": "B1",
          "ticks": 31488,
          "time": 76.875,
          "velocity": 1
        },
        {
          "duration": 0.0048828125,
          "durationTicks": 2,
          "midi": 44,
          "name": "G#2",
          "ticks": 31584,
          "time": 77.109375,
          "velocity": 0.7716535433070866
        },
        {
          "duration": 0.0048828125,
          "durationTicks": 2,
          "midi": 42,
          "name": "F#2",
          "ticks": 31680,
          "time": 77.34375,
          "velocity": 0.6692913385826772
        },
        {
          "duration": 0.0048828125,
          "durationTicks": 2,
          "midi": 38,
          "name": "D2",
          "ticks": 31680,
          "time": 77.34375,
          "velocity": 0.7874015748031497
        },
        {
          "duration": 0.0048828125,
          "durationTicks": 2,
          "midi": 44,
          "name": "G#2",
          "ticks": 31776,
          "time": 77.578125,
          "velocity": 0.7244094488188977
        },
        {
          "duration": 0.0048828125,
          "durationTicks": 2,
          "midi": 42,
          "name": "F#2",
          "ticks": 31872,
          "time": 77.8125,
          "velocity": 0.7637795275590551
        },
        {
          "duration": 0.0048828125,
          "durationTicks": 2,
          "midi": 35,
          "name": "B1",
          "ticks": 31872,
          "time": 77.8125,
          "velocity": 0.9763779527559056
        },
        {
          "duration": 0.0048828125,
          "durationTicks": 2,
          "midi": 44,
          "name": "G#2",
          "ticks": 31968,
          "time": 78.046875,
          "velocity": 0.7165354330708661
        },
        {
          "duration": 0.0048828125,
          "durationTicks": 2,
          "midi": 38,
          "name": "D2",
          "ticks": 31968,
          "time": 78.046875,
          "velocity": 0.5275590551181102
        },
        {
          "duration": 0.0048828125,
          "durationTicks": 2,
          "midi": 42,
          "name": "F#2",
          "ticks": 32064,
          "time": 78.28125,
          "velocity": 0.7559055118110236
        },
        {
          "duration": 0.0048828125,
          "durationTicks": 2,
          "midi": 38,
          "name": "D2",
          "ticks": 32064,
          "time": 78.28125,
          "velocity": 0.5275590551181102
        },
        {
          "duration": 0.0048828125,
          "durationTicks": 2,
          "midi": 44,
          "name": "G#2",
          "ticks": 32160,
          "time": 78.515625,
          "velocity": 0.8346456692913385
        },
        {
          "duration": 0.0048828125,
          "durationTicks": 2,
          "midi": 38,
          "name": "D2",
          "ticks": 32160,
          "time": 78.515625,
          "velocity": 0.7165354330708661
        },
        {
          "duration": 0.0048828125,
          "durationTicks": 2,
          "midi": 42,
          "name": "F#2",
          "ticks": 32256,
          "time": 78.75,
          "velocity": 0.937007874015748
        },
        {
          "duration": 0.0048828125,
          "durationTicks": 2,
          "midi": 38,
          "name": "D2",
          "ticks": 32256,
          "time": 78.75,
          "velocity": 0.7874015748031497
        },
        {
          "duration": 0.0048828125,
          "durationTicks": 2,
          "midi": 35,
          "name": "B1",
          "ticks": 32256,
          "time": 78.75,
          "velocity": 1
        },
        {
          "duration": 0.0048828125,
          "durationTicks": 2,
          "midi": 44,
          "name": "G#2",
          "ticks": 32352,
          "time": 78.984375,
          "velocity": 0.7874015748031497
        },
        {
          "duration": 0.0048828125,
          "durationTicks": 2,
          "midi": 38,
          "name": "D2",
          "ticks": 32352,
          "time": 78.984375,
          "velocity": 0.7874015748031497
        },
        {
          "duration": 0.0048828125,
          "durationTicks": 2,
          "midi": 42,
          "name": "F#2",
          "ticks": 32448,
          "time": 79.21875,
          "velocity": 0.7637795275590551
        },
        {
          "duration": 0.0048828125,
          "durationTicks": 2,
          "midi": 38,
          "name": "D2",
          "ticks": 32448,
          "time": 79.21875,
          "velocity": 0.7874015748031497
        },
        {
          "duration": 0.0048828125,
          "durationTicks": 2,
          "midi": 44,
          "name": "G#2",
          "ticks": 32544,
          "time": 79.453125,
          "velocity": 0.8346456692913385
        },
        {
          "duration": 0.0048828125,
          "durationTicks": 2,
          "midi": 38,
          "name": "D2",
          "ticks": 32544,
          "time": 79.453125,
          "velocity": 0.7874015748031497
        },
        {
          "duration": 0.0048828125,
          "durationTicks": 2,
          "midi": 38,
          "name": "D2",
          "ticks": 32592,
          "time": 79.5703125,
          "velocity": 0.7874015748031497
        },
        {
          "duration": 0.0048828125,
          "durationTicks": 2,
          "midi": 55,
          "name": "G3",
          "ticks": 32640,
          "time": 79.6875,
          "velocity": 0.8661417322834646
        },
        {
          "duration": 0.0048828125,
          "durationTicks": 2,
          "midi": 35,
          "name": "B1",
          "ticks": 32640,
          "time": 79.6875,
          "velocity": 1
        },
        {
          "duration": 0.0048828125,
          "durationTicks": 2,
          "midi": 44,
          "name": "G#2",
          "ticks": 32736,
          "time": 79.921875,
          "velocity": 0.6929133858267716
        },
        {
          "duration": 0.0048828125,
          "durationTicks": 2,
          "midi": 42,
          "name": "F#2",
          "ticks": 32832,
          "time": 80.15625,
          "velocity": 0.5905511811023622
        },
        {
          "duration": 0.0048828125,
          "durationTicks": 2,
          "midi": 38,
          "name": "D2",
          "ticks": 32832,
          "time": 80.15625,
          "velocity": 0.7874015748031497
        },
        {
          "duration": 0.0048828125,
          "durationTicks": 2,
          "midi": 44,
          "name": "G#2",
          "ticks": 32928,
          "time": 80.390625,
          "velocity": 0.6456692913385826
        },
        {
          "duration": 0.0048828125,
          "durationTicks": 2,
          "midi": 42,
          "name": "F#2",
          "ticks": 33024,
          "time": 80.625,
          "velocity": 0.6850393700787402
        },
        {
          "duration": 0.0048828125,
          "durationTicks": 2,
          "midi": 35,
          "name": "B1",
          "ticks": 33024,
          "time": 80.625,
          "velocity": 0.9763779527559056
        },
        {
          "duration": 0.0048828125,
          "durationTicks": 2,
          "midi": 44,
          "name": "G#2",
          "ticks": 33120,
          "time": 80.859375,
          "velocity": 0.6377952755905512
        },
        {
          "duration": 0.0048828125,
          "durationTicks": 2,
          "midi": 42,
          "name": "F#2",
          "ticks": 33216,
          "time": 81.09375,
          "velocity": 0.6771653543307087
        },
        {
          "duration": 0.0048828125,
          "durationTicks": 2,
          "midi": 38,
          "name": "D2",
          "ticks": 33216,
          "time": 81.09375,
          "velocity": 0.7874015748031497
        },
        {
          "duration": 0.0048828125,
          "durationTicks": 2,
          "midi": 44,
          "name": "G#2",
          "ticks": 33312,
          "time": 81.328125,
          "velocity": 0.7559055118110236
        },
        {
          "duration": 0.0048828125,
          "durationTicks": 2,
          "midi": 42,
          "name": "F#2",
          "ticks": 33408,
          "time": 81.5625,
          "velocity": 0.8582677165354331
        },
        {
          "duration": 0.0048828125,
          "durationTicks": 2,
          "midi": 35,
          "name": "B1",
          "ticks": 33408,
          "time": 81.5625,
          "velocity": 1
        },
        {
          "duration": 0.0048828125,
          "durationTicks": 2,
          "midi": 44,
          "name": "G#2",
          "ticks": 33504,
          "time": 81.796875,
          "velocity": 0.7086614173228346
        },
        {
          "duration": 0.0048828125,
          "durationTicks": 2,
          "midi": 42,
          "name": "F#2",
          "ticks": 33600,
          "time": 82.03125,
          "velocity": 0.6850393700787402
        },
        {
          "duration": 0.0048828125,
          "durationTicks": 2,
          "midi": 38,
          "name": "D2",
          "ticks": 33600,
          "time": 82.03125,
          "velocity": 0.7874015748031497
        },
        {
          "duration": 0.0048828125,
          "durationTicks": 2,
          "midi": 44,
          "name": "G#2",
          "ticks": 33696,
          "time": 82.265625,
          "velocity": 0.7559055118110236
        },
        {
          "duration": 0.0048828125,
          "durationTicks": 2,
          "midi": 42,
          "name": "F#2",
          "ticks": 33792,
          "time": 82.5,
          "velocity": 0.7086614173228346
        },
        {
          "duration": 0.0048828125,
          "durationTicks": 2,
          "midi": 35,
          "name": "B1",
          "ticks": 33792,
          "time": 82.5,
          "velocity": 1
        },
        {
          "duration": 0.0048828125,
          "durationTicks": 2,
          "midi": 44,
          "name": "G#2",
          "ticks": 33888,
          "time": 82.734375,
          "velocity": 0.6771653543307087
        },
        {
          "duration": 0.0048828125,
          "durationTicks": 2,
          "midi": 42,
          "name": "F#2",
          "ticks": 33984,
          "time": 82.96875,
          "velocity": 0.7244094488188977
        },
        {
          "duration": 0.0048828125,
          "durationTicks": 2,
          "midi": 38,
          "name": "D2",
          "ticks": 33984,
          "time": 82.96875,
          "velocity": 0.7874015748031497
        },
        {
          "duration": 0.0048828125,
          "durationTicks": 2,
          "midi": 46,
          "name": "A#2",
          "ticks": 34080,
          "time": 83.203125,
          "velocity": 0.6850393700787402
        },
        {
          "duration": 0.0048828125,
          "durationTicks": 2,
          "midi": 42,
          "name": "F#2",
          "ticks": 34176,
          "time": 83.4375,
          "velocity": 0.7086614173228346
        },
        {
          "duration": 0.0048828125,
          "durationTicks": 2,
          "midi": 35,
          "name": "B1",
          "ticks": 34176,
          "time": 83.4375,
          "velocity": 0.9763779527559056
        },
        {
          "duration": 0.0048828125,
          "durationTicks": 2,
          "midi": 44,
          "name": "G#2",
          "ticks": 34272,
          "time": 83.671875,
          "velocity": 0.7322834645669292
        },
        {
          "duration": 0.0048828125,
          "durationTicks": 2,
          "midi": 42,
          "name": "F#2",
          "ticks": 34368,
          "time": 83.90625,
          "velocity": 0.7559055118110236
        },
        {
          "duration": 0.0048828125,
          "durationTicks": 2,
          "midi": 38,
          "name": "D2",
          "ticks": 34368,
          "time": 83.90625,
          "velocity": 0.7874015748031497
        },
        {
          "duration": 0.0048828125,
          "durationTicks": 2,
          "midi": 44,
          "name": "G#2",
          "ticks": 34464,
          "time": 84.140625,
          "velocity": 0.7874015748031497
        },
        {
          "duration": 0.0048828125,
          "durationTicks": 2,
          "midi": 42,
          "name": "F#2",
          "ticks": 34560,
          "time": 84.375,
          "velocity": 0.7244094488188977
        },
        {
          "duration": 0.0048828125,
          "durationTicks": 2,
          "midi": 35,
          "name": "B1",
          "ticks": 34560,
          "time": 84.375,
          "velocity": 1
        },
        {
          "duration": 0.0048828125,
          "durationTicks": 2,
          "midi": 44,
          "name": "G#2",
          "ticks": 34656,
          "time": 84.609375,
          "velocity": 0.7165354330708661
        },
        {
          "duration": 0.0048828125,
          "durationTicks": 2,
          "midi": 42,
          "name": "F#2",
          "ticks": 34752,
          "time": 84.84375,
          "velocity": 0.6456692913385826
        },
        {
          "duration": 0.0048828125,
          "durationTicks": 2,
          "midi": 38,
          "name": "D2",
          "ticks": 34752,
          "time": 84.84375,
          "velocity": 0.7874015748031497
        },
        {
          "duration": 0.0048828125,
          "durationTicks": 2,
          "midi": 44,
          "name": "G#2",
          "ticks": 34848,
          "time": 85.078125,
          "velocity": 0.7559055118110236
        },
        {
          "duration": 0.0048828125,
          "durationTicks": 2,
          "midi": 42,
          "name": "F#2",
          "ticks": 34944,
          "time": 85.3125,
          "velocity": 0.7244094488188977
        },
        {
          "duration": 0.0048828125,
          "durationTicks": 2,
          "midi": 35,
          "name": "B1",
          "ticks": 34944,
          "time": 85.3125,
          "velocity": 0.9763779527559056
        },
        {
          "duration": 0.0048828125,
          "durationTicks": 2,
          "midi": 44,
          "name": "G#2",
          "ticks": 35040,
          "time": 85.546875,
          "velocity": 0.7716535433070866
        },
        {
          "duration": 0.0048828125,
          "durationTicks": 2,
          "midi": 42,
          "name": "F#2",
          "ticks": 35136,
          "time": 85.78125,
          "velocity": 0.7874015748031497
        },
        {
          "duration": 0.0048828125,
          "durationTicks": 2,
          "midi": 38,
          "name": "D2",
          "ticks": 35136,
          "time": 85.78125,
          "velocity": 0.7874015748031497
        },
        {
          "duration": 0.0048828125,
          "durationTicks": 2,
          "midi": 44,
          "name": "G#2",
          "ticks": 35232,
          "time": 86.015625,
          "velocity": 0.6929133858267716
        },
        {
          "duration": 0.0048828125,
          "durationTicks": 2,
          "midi": 42,
          "name": "F#2",
          "ticks": 35328,
          "time": 86.25,
          "velocity": 0.6850393700787402
        },
        {
          "duration": 0.0048828125,
          "durationTicks": 2,
          "midi": 35,
          "name": "B1",
          "ticks": 35328,
          "time": 86.25,
          "velocity": 1
        },
        {
          "duration": 0.0048828125,
          "durationTicks": 2,
          "midi": 44,
          "name": "G#2",
          "ticks": 35424,
          "time": 86.484375,
          "velocity": 0.7559055118110236
        },
        {
          "duration": 0.0048828125,
          "durationTicks": 2,
          "midi": 42,
          "name": "F#2",
          "ticks": 35520,
          "time": 86.71875,
          "velocity": 0.7401574803149606
        },
        {
          "duration": 0.0048828125,
          "durationTicks": 2,
          "midi": 38,
          "name": "D2",
          "ticks": 35520,
          "time": 86.71875,
          "velocity": 0.7874015748031497
        },
        {
          "duration": 0.0048828125,
          "durationTicks": 2,
          "midi": 46,
          "name": "A#2",
          "ticks": 35616,
          "time": 86.953125,
          "velocity": 0.6377952755905512
        },
        {
          "duration": 0.0048828125,
          "durationTicks": 2,
          "midi": 42,
          "name": "F#2",
          "ticks": 35712,
          "time": 87.1875,
          "velocity": 0.905511811023622
        },
        {
          "duration": 0.0048828125,
          "durationTicks": 2,
          "midi": 35,
          "name": "B1",
          "ticks": 35712,
          "time": 87.1875,
          "velocity": 1
        },
        {
          "duration": 0.0048828125,
          "durationTicks": 2,
          "midi": 44,
          "name": "G#2",
          "ticks": 35808,
          "time": 87.421875,
          "velocity": 0.6929133858267716
        },
        {
          "duration": 0.0048828125,
          "durationTicks": 2,
          "midi": 42,
          "name": "F#2",
          "ticks": 35904,
          "time": 87.65625,
          "velocity": 0.5905511811023622
        },
        {
          "duration": 0.0048828125,
          "durationTicks": 2,
          "midi": 38,
          "name": "D2",
          "ticks": 35904,
          "time": 87.65625,
          "velocity": 0.7874015748031497
        },
        {
          "duration": 0.0048828125,
          "durationTicks": 2,
          "midi": 44,
          "name": "G#2",
          "ticks": 36000,
          "time": 87.890625,
          "velocity": 0.6456692913385826
        },
        {
          "duration": 0.0048828125,
          "durationTicks": 2,
          "midi": 42,
          "name": "F#2",
          "ticks": 36096,
          "time": 88.125,
          "velocity": 0.6850393700787402
        },
        {
          "duration": 0.0048828125,
          "durationTicks": 2,
          "midi": 35,
          "name": "B1",
          "ticks": 36096,
          "time": 88.125,
          "velocity": 0.9763779527559056
        },
        {
          "duration": 0.0048828125,
          "durationTicks": 2,
          "midi": 44,
          "name": "G#2",
          "ticks": 36192,
          "time": 88.359375,
          "velocity": 0.6377952755905512
        },
        {
          "duration": 0.0048828125,
          "durationTicks": 2,
          "midi": 42,
          "name": "F#2",
          "ticks": 36288,
          "time": 88.59375,
          "velocity": 0.6771653543307087
        },
        {
          "duration": 0.0048828125,
          "durationTicks": 2,
          "midi": 38,
          "name": "D2",
          "ticks": 36288,
          "time": 88.59375,
          "velocity": 0.7874015748031497
        },
        {
          "duration": 0.0048828125,
          "durationTicks": 2,
          "midi": 44,
          "name": "G#2",
          "ticks": 36384,
          "time": 88.828125,
          "velocity": 0.7559055118110236
        },
        {
          "duration": 0.0048828125,
          "durationTicks": 2,
          "midi": 42,
          "name": "F#2",
          "ticks": 36480,
          "time": 89.0625,
          "velocity": 0.8582677165354331
        },
        {
          "duration": 0.0048828125,
          "durationTicks": 2,
          "midi": 35,
          "name": "B1",
          "ticks": 36480,
          "time": 89.0625,
          "velocity": 1
        },
        {
          "duration": 0.0048828125,
          "durationTicks": 2,
          "midi": 44,
          "name": "G#2",
          "ticks": 36576,
          "time": 89.296875,
          "velocity": 0.7086614173228346
        },
        {
          "duration": 0.0048828125,
          "durationTicks": 2,
          "midi": 42,
          "name": "F#2",
          "ticks": 36672,
          "time": 89.53125,
          "velocity": 0.6850393700787402
        },
        {
          "duration": 0.0048828125,
          "durationTicks": 2,
          "midi": 38,
          "name": "D2",
          "ticks": 36672,
          "time": 89.53125,
          "velocity": 0.7874015748031497
        },
        {
          "duration": 0.0048828125,
          "durationTicks": 2,
          "midi": 44,
          "name": "G#2",
          "ticks": 36768,
          "time": 89.765625,
          "velocity": 0.7559055118110236
        },
        {
          "duration": 0.0048828125,
          "durationTicks": 2,
          "midi": 42,
          "name": "F#2",
          "ticks": 36864,
          "time": 90,
          "velocity": 0.7086614173228346
        },
        {
          "duration": 0.0048828125,
          "durationTicks": 2,
          "midi": 35,
          "name": "B1",
          "ticks": 36864,
          "time": 90,
          "velocity": 1
        },
        {
          "duration": 0.0048828125,
          "durationTicks": 2,
          "midi": 44,
          "name": "G#2",
          "ticks": 36960,
          "time": 90.234375,
          "velocity": 0.6771653543307087
        },
        {
          "duration": 0.0048828125,
          "durationTicks": 2,
          "midi": 42,
          "name": "F#2",
          "ticks": 37056,
          "time": 90.46875,
          "velocity": 0.7244094488188977
        },
        {
          "duration": 0.0048828125,
          "durationTicks": 2,
          "midi": 38,
          "name": "D2",
          "ticks": 37056,
          "time": 90.46875,
          "velocity": 0.7874015748031497
        },
        {
          "duration": 0.0048828125,
          "durationTicks": 2,
          "midi": 46,
          "name": "A#2",
          "ticks": 37152,
          "time": 90.703125,
          "velocity": 0.6850393700787402
        },
        {
          "duration": 0.0048828125,
          "durationTicks": 2,
          "midi": 55,
          "name": "G3",
          "ticks": 37248,
          "time": 90.9375,
          "velocity": 0.8661417322834646
        },
        {
          "duration": 0.0048828125,
          "durationTicks": 2,
          "midi": 35,
          "name": "B1",
          "ticks": 37248,
          "time": 90.9375,
          "velocity": 1
        },
        {
          "duration": 0.0048828125,
          "durationTicks": 2,
          "midi": 44,
          "name": "G#2",
          "ticks": 37344,
          "time": 91.171875,
          "velocity": 0.6929133858267716
        },
        {
          "duration": 0.0048828125,
          "durationTicks": 2,
          "midi": 42,
          "name": "F#2",
          "ticks": 37440,
          "time": 91.40625,
          "velocity": 0.5905511811023622
        },
        {
          "duration": 0.0048828125,
          "durationTicks": 2,
          "midi": 38,
          "name": "D2",
          "ticks": 37440,
          "time": 91.40625,
          "velocity": 0.7874015748031497
        },
        {
          "duration": 0.0048828125,
          "durationTicks": 2,
          "midi": 44,
          "name": "G#2",
          "ticks": 37536,
          "time": 91.640625,
          "velocity": 0.6456692913385826
        },
        {
          "duration": 0.0048828125,
          "durationTicks": 2,
          "midi": 42,
          "name": "F#2",
          "ticks": 37632,
          "time": 91.875,
          "velocity": 0.6850393700787402
        },
        {
          "duration": 0.0048828125,
          "durationTicks": 2,
          "midi": 35,
          "name": "B1",
          "ticks": 37632,
          "time": 91.875,
          "velocity": 0.9763779527559056
        },
        {
          "duration": 0.0048828125,
          "durationTicks": 2,
          "midi": 44,
          "name": "G#2",
          "ticks": 37728,
          "time": 92.109375,
          "velocity": 0.6377952755905512
        },
        {
          "duration": 0.0048828125,
          "durationTicks": 2,
          "midi": 42,
          "name": "F#2",
          "ticks": 37824,
          "time": 92.34375,
          "velocity": 0.6771653543307087
        },
        {
          "duration": 0.0048828125,
          "durationTicks": 2,
          "midi": 38,
          "name": "D2",
          "ticks": 37824,
          "time": 92.34375,
          "velocity": 0.7874015748031497
        },
        {
          "duration": 0.0048828125,
          "durationTicks": 2,
          "midi": 44,
          "name": "G#2",
          "ticks": 37920,
          "time": 92.578125,
          "velocity": 0.7559055118110236
        },
        {
          "duration": 0.0048828125,
          "durationTicks": 2,
          "midi": 42,
          "name": "F#2",
          "ticks": 38016,
          "time": 92.8125,
          "velocity": 0.8582677165354331
        },
        {
          "duration": 0.0048828125,
          "durationTicks": 2,
          "midi": 35,
          "name": "B1",
          "ticks": 38016,
          "time": 92.8125,
          "velocity": 1
        },
        {
          "duration": 0.0048828125,
          "durationTicks": 2,
          "midi": 44,
          "name": "G#2",
          "ticks": 38112,
          "time": 93.046875,
          "velocity": 0.7086614173228346
        },
        {
          "duration": 0.0048828125,
          "durationTicks": 2,
          "midi": 42,
          "name": "F#2",
          "ticks": 38208,
          "time": 93.28125,
          "velocity": 0.6850393700787402
        },
        {
          "duration": 0.0048828125,
          "durationTicks": 2,
          "midi": 38,
          "name": "D2",
          "ticks": 38208,
          "time": 93.28125,
          "velocity": 0.7874015748031497
        },
        {
          "duration": 0.0048828125,
          "durationTicks": 2,
          "midi": 44,
          "name": "G#2",
          "ticks": 38304,
          "time": 93.515625,
          "velocity": 0.7559055118110236
        },
        {
          "duration": 0.0048828125,
          "durationTicks": 2,
          "midi": 42,
          "name": "F#2",
          "ticks": 38400,
          "time": 93.75,
          "velocity": 0.7086614173228346
        },
        {
          "duration": 0.0048828125,
          "durationTicks": 2,
          "midi": 35,
          "name": "B1",
          "ticks": 38400,
          "time": 93.75,
          "velocity": 1
        },
        {
          "duration": 0.0048828125,
          "durationTicks": 2,
          "midi": 44,
          "name": "G#2",
          "ticks": 38496,
          "time": 93.984375,
          "velocity": 0.6771653543307087
        },
        {
          "duration": 0.0048828125,
          "durationTicks": 2,
          "midi": 42,
          "name": "F#2",
          "ticks": 38592,
          "time": 94.21875,
          "velocity": 0.7244094488188977
        },
        {
          "duration": 0.0048828125,
          "durationTicks": 2,
          "midi": 38,
          "name": "D2",
          "ticks": 38592,
          "time": 94.21875,
          "velocity": 0.7874015748031497
        },
        {
          "duration": 0.0048828125,
          "durationTicks": 2,
          "midi": 46,
          "name": "A#2",
          "ticks": 38688,
          "time": 94.453125,
          "velocity": 0.6850393700787402
        },
        {
          "duration": 0.0048828125,
          "durationTicks": 2,
          "midi": 42,
          "name": "F#2",
          "ticks": 38784,
          "time": 94.6875,
          "velocity": 0.7086614173228346
        },
        {
          "duration": 0.0048828125,
          "durationTicks": 2,
          "midi": 35,
          "name": "B1",
          "ticks": 38784,
          "time": 94.6875,
          "velocity": 0.9763779527559056
        },
        {
          "duration": 0.0048828125,
          "durationTicks": 2,
          "midi": 44,
          "name": "G#2",
          "ticks": 38880,
          "time": 94.921875,
          "velocity": 0.7322834645669292
        },
        {
          "duration": 0.0048828125,
          "durationTicks": 2,
          "midi": 42,
          "name": "F#2",
          "ticks": 38976,
          "time": 95.15625,
          "velocity": 0.7559055118110236
        },
        {
          "duration": 0.0048828125,
          "durationTicks": 2,
          "midi": 38,
          "name": "D2",
          "ticks": 38976,
          "time": 95.15625,
          "velocity": 0.7874015748031497
        },
        {
          "duration": 0.0048828125,
          "durationTicks": 2,
          "midi": 44,
          "name": "G#2",
          "ticks": 39072,
          "time": 95.390625,
          "velocity": 0.7874015748031497
        },
        {
          "duration": 0.0048828125,
          "durationTicks": 2,
          "midi": 42,
          "name": "F#2",
          "ticks": 39168,
          "time": 95.625,
          "velocity": 0.7244094488188977
        },
        {
          "duration": 0.0048828125,
          "durationTicks": 2,
          "midi": 35,
          "name": "B1",
          "ticks": 39168,
          "time": 95.625,
          "velocity": 1
        },
        {
          "duration": 0.0048828125,
          "durationTicks": 2,
          "midi": 44,
          "name": "G#2",
          "ticks": 39264,
          "time": 95.859375,
          "velocity": 0.7165354330708661
        },
        {
          "duration": 0.0048828125,
          "durationTicks": 2,
          "midi": 42,
          "name": "F#2",
          "ticks": 39360,
          "time": 96.09375,
          "velocity": 0.6456692913385826
        },
        {
          "duration": 0.0048828125,
          "durationTicks": 2,
          "midi": 38,
          "name": "D2",
          "ticks": 39360,
          "time": 96.09375,
          "velocity": 0.7874015748031497
        },
        {
          "duration": 0.0048828125,
          "durationTicks": 2,
          "midi": 44,
          "name": "G#2",
          "ticks": 39456,
          "time": 96.328125,
          "velocity": 0.7559055118110236
        },
        {
          "duration": 0.0048828125,
          "durationTicks": 2,
          "midi": 42,
          "name": "F#2",
          "ticks": 39552,
          "time": 96.5625,
          "velocity": 0.7244094488188977
        },
        {
          "duration": 0.0048828125,
          "durationTicks": 2,
          "midi": 35,
          "name": "B1",
          "ticks": 39552,
          "time": 96.5625,
          "velocity": 0.9763779527559056
        },
        {
          "duration": 0.0048828125,
          "durationTicks": 2,
          "midi": 44,
          "name": "G#2",
          "ticks": 39648,
          "time": 96.796875,
          "velocity": 0.7716535433070866
        },
        {
          "duration": 0.0048828125,
          "durationTicks": 2,
          "midi": 42,
          "name": "F#2",
          "ticks": 39744,
          "time": 97.03125,
          "velocity": 0.7874015748031497
        },
        {
          "duration": 0.0048828125,
          "durationTicks": 2,
          "midi": 38,
          "name": "D2",
          "ticks": 39744,
          "time": 97.03125,
          "velocity": 0.7874015748031497
        },
        {
          "duration": 0.0048828125,
          "durationTicks": 2,
          "midi": 44,
          "name": "G#2",
          "ticks": 39840,
          "time": 97.265625,
          "velocity": 0.6929133858267716
        },
        {
          "duration": 0.0048828125,
          "durationTicks": 2,
          "midi": 42,
          "name": "F#2",
          "ticks": 39936,
          "time": 97.5,
          "velocity": 0.6850393700787402
        },
        {
          "duration": 0.0048828125,
          "durationTicks": 2,
          "midi": 35,
          "name": "B1",
          "ticks": 39936,
          "time": 97.5,
          "velocity": 1
        },
        {
          "duration": 0.0048828125,
          "durationTicks": 2,
          "midi": 44,
          "name": "G#2",
          "ticks": 40032,
          "time": 97.734375,
          "velocity": 0.7559055118110236
        },
        {
          "duration": 0.0048828125,
          "durationTicks": 2,
          "midi": 42,
          "name": "F#2",
          "ticks": 40128,
          "time": 97.96875,
          "velocity": 0.7401574803149606
        },
        {
          "duration": 0.0048828125,
          "durationTicks": 2,
          "midi": 38,
          "name": "D2",
          "ticks": 40128,
          "time": 97.96875,
          "velocity": 0.7874015748031497
        },
        {
          "duration": 0.0048828125,
          "durationTicks": 2,
          "midi": 46,
          "name": "A#2",
          "ticks": 40224,
          "time": 98.203125,
          "velocity": 0.6377952755905512
        },
        {
          "duration": 0.0048828125,
          "durationTicks": 2,
          "midi": 42,
          "name": "F#2",
          "ticks": 40320,
          "time": 98.4375,
          "velocity": 0.905511811023622
        },
        {
          "duration": 0.0048828125,
          "durationTicks": 2,
          "midi": 35,
          "name": "B1",
          "ticks": 40320,
          "time": 98.4375,
          "velocity": 1
        },
        {
          "duration": 0.0048828125,
          "durationTicks": 2,
          "midi": 44,
          "name": "G#2",
          "ticks": 40416,
          "time": 98.671875,
          "velocity": 0.6929133858267716
        },
        {
          "duration": 0.0048828125,
          "durationTicks": 2,
          "midi": 42,
          "name": "F#2",
          "ticks": 40512,
          "time": 98.90625,
          "velocity": 0.5905511811023622
        },
        {
          "duration": 0.0048828125,
          "durationTicks": 2,
          "midi": 38,
          "name": "D2",
          "ticks": 40512,
          "time": 98.90625,
          "velocity": 0.7874015748031497
        },
        {
          "duration": 0.0048828125,
          "durationTicks": 2,
          "midi": 44,
          "name": "G#2",
          "ticks": 40608,
          "time": 99.140625,
          "velocity": 0.6456692913385826
        },
        {
          "duration": 0.0048828125,
          "durationTicks": 2,
          "midi": 42,
          "name": "F#2",
          "ticks": 40704,
          "time": 99.375,
          "velocity": 0.6850393700787402
        },
        {
          "duration": 0.0048828125,
          "durationTicks": 2,
          "midi": 35,
          "name": "B1",
          "ticks": 40704,
          "time": 99.375,
          "velocity": 0.9763779527559056
        },
        {
          "duration": 0.0048828125,
          "durationTicks": 2,
          "midi": 44,
          "name": "G#2",
          "ticks": 40800,
          "time": 99.609375,
          "velocity": 0.6377952755905512
        },
        {
          "duration": 0.0048828125,
          "durationTicks": 2,
          "midi": 42,
          "name": "F#2",
          "ticks": 40896,
          "time": 99.84375,
          "velocity": 0.6771653543307087
        },
        {
          "duration": 0.0048828125,
          "durationTicks": 2,
          "midi": 38,
          "name": "D2",
          "ticks": 40896,
          "time": 99.84375,
          "velocity": 0.7874015748031497
        },
        {
          "duration": 0.0048828125,
          "durationTicks": 2,
          "midi": 44,
          "name": "G#2",
          "ticks": 40992,
          "time": 100.078125,
          "velocity": 0.7559055118110236
        },
        {
          "duration": 0.0048828125,
          "durationTicks": 2,
          "midi": 42,
          "name": "F#2",
          "ticks": 41088,
          "time": 100.3125,
          "velocity": 0.8582677165354331
        },
        {
          "duration": 0.0048828125,
          "durationTicks": 2,
          "midi": 35,
          "name": "B1",
          "ticks": 41088,
          "time": 100.3125,
          "velocity": 1
        },
        {
          "duration": 0.0048828125,
          "durationTicks": 2,
          "midi": 44,
          "name": "G#2",
          "ticks": 41184,
          "time": 100.546875,
          "velocity": 0.7086614173228346
        },
        {
          "duration": 0.0048828125,
          "durationTicks": 2,
          "midi": 42,
          "name": "F#2",
          "ticks": 41280,
          "time": 100.78125,
          "velocity": 0.6850393700787402
        },
        {
          "duration": 0.0048828125,
          "durationTicks": 2,
          "midi": 38,
          "name": "D2",
          "ticks": 41280,
          "time": 100.78125,
          "velocity": 0.7874015748031497
        },
        {
          "duration": 0.0048828125,
          "durationTicks": 2,
          "midi": 44,
          "name": "G#2",
          "ticks": 41376,
          "time": 101.015625,
          "velocity": 0.7559055118110236
        },
        {
          "duration": 0.0048828125,
          "durationTicks": 2,
          "midi": 42,
          "name": "F#2",
          "ticks": 41472,
          "time": 101.25,
          "velocity": 0.7086614173228346
        },
        {
          "duration": 0.0048828125,
          "durationTicks": 2,
          "midi": 35,
          "name": "B1",
          "ticks": 41472,
          "time": 101.25,
          "velocity": 1
        },
        {
          "duration": 0.0048828125,
          "durationTicks": 2,
          "midi": 44,
          "name": "G#2",
          "ticks": 41568,
          "time": 101.484375,
          "velocity": 0.6771653543307087
        },
        {
          "duration": 0.0048828125,
          "durationTicks": 2,
          "midi": 42,
          "name": "F#2",
          "ticks": 41664,
          "time": 101.71875,
          "velocity": 0.7244094488188977
        },
        {
          "duration": 0.0048828125,
          "durationTicks": 2,
          "midi": 38,
          "name": "D2",
          "ticks": 41664,
          "time": 101.71875,
          "velocity": 0.7874015748031497
        },
        {
          "duration": 0.0048828125,
          "durationTicks": 2,
          "midi": 46,
          "name": "A#2",
          "ticks": 41760,
          "time": 101.953125,
          "velocity": 0.6850393700787402
        },
        {
          "duration": 0.0048828125,
          "durationTicks": 2,
          "midi": 55,
          "name": "G3",
          "ticks": 41856,
          "time": 102.1875,
          "velocity": 0.8661417322834646
        },
        {
          "duration": 0.0048828125,
          "durationTicks": 2,
          "midi": 35,
          "name": "B1",
          "ticks": 41856,
          "time": 102.1875,
          "velocity": 1
        },
        {
          "duration": 0.0048828125,
          "durationTicks": 2,
          "midi": 44,
          "name": "G#2",
          "ticks": 41952,
          "time": 102.421875,
          "velocity": 0.6929133858267716
        },
        {
          "duration": 0.0048828125,
          "durationTicks": 2,
          "midi": 42,
          "name": "F#2",
          "ticks": 42048,
          "time": 102.65625,
          "velocity": 0.5905511811023622
        },
        {
          "duration": 0.0048828125,
          "durationTicks": 2,
          "midi": 38,
          "name": "D2",
          "ticks": 42048,
          "time": 102.65625,
          "velocity": 0.7874015748031497
        },
        {
          "duration": 0.0048828125,
          "durationTicks": 2,
          "midi": 44,
          "name": "G#2",
          "ticks": 42144,
          "time": 102.890625,
          "velocity": 0.6456692913385826
        },
        {
          "duration": 0.0048828125,
          "durationTicks": 2,
          "midi": 42,
          "name": "F#2",
          "ticks": 42240,
          "time": 103.125,
          "velocity": 0.6850393700787402
        },
        {
          "duration": 0.0048828125,
          "durationTicks": 2,
          "midi": 35,
          "name": "B1",
          "ticks": 42240,
          "time": 103.125,
          "velocity": 0.9763779527559056
        },
        {
          "duration": 0.0048828125,
          "durationTicks": 2,
          "midi": 44,
          "name": "G#2",
          "ticks": 42336,
          "time": 103.359375,
          "velocity": 0.6377952755905512
        },
        {
          "duration": 0.0048828125,
          "durationTicks": 2,
          "midi": 42,
          "name": "F#2",
          "ticks": 42432,
          "time": 103.59375,
          "velocity": 0.6771653543307087
        },
        {
          "duration": 0.0048828125,
          "durationTicks": 2,
          "midi": 38,
          "name": "D2",
          "ticks": 42432,
          "time": 103.59375,
          "velocity": 0.7874015748031497
        },
        {
          "duration": 0.0048828125,
          "durationTicks": 2,
          "midi": 44,
          "name": "G#2",
          "ticks": 42528,
          "time": 103.828125,
          "velocity": 0.7559055118110236
        },
        {
          "duration": 0.0048828125,
          "durationTicks": 2,
          "midi": 42,
          "name": "F#2",
          "ticks": 42624,
          "time": 104.0625,
          "velocity": 0.8582677165354331
        },
        {
          "duration": 0.0048828125,
          "durationTicks": 2,
          "midi": 35,
          "name": "B1",
          "ticks": 42624,
          "time": 104.0625,
          "velocity": 1
        },
        {
          "duration": 0.0048828125,
          "durationTicks": 2,
          "midi": 44,
          "name": "G#2",
          "ticks": 42720,
          "time": 104.296875,
          "velocity": 0.7086614173228346
        },
        {
          "duration": 0.0048828125,
          "durationTicks": 2,
          "midi": 42,
          "name": "F#2",
          "ticks": 42816,
          "time": 104.53125,
          "velocity": 0.6850393700787402
        },
        {
          "duration": 0.0048828125,
          "durationTicks": 2,
          "midi": 38,
          "name": "D2",
          "ticks": 42816,
          "time": 104.53125,
          "velocity": 0.7874015748031497
        },
        {
          "duration": 0.0048828125,
          "durationTicks": 2,
          "midi": 44,
          "name": "G#2",
          "ticks": 42912,
          "time": 104.765625,
          "velocity": 0.7559055118110236
        },
        {
          "duration": 0.0048828125,
          "durationTicks": 2,
          "midi": 42,
          "name": "F#2",
          "ticks": 43008,
          "time": 105,
          "velocity": 0.7086614173228346
        },
        {
          "duration": 0.0048828125,
          "durationTicks": 2,
          "midi": 35,
          "name": "B1",
          "ticks": 43008,
          "time": 105,
          "velocity": 1
        },
        {
          "duration": 0.0048828125,
          "durationTicks": 2,
          "midi": 44,
          "name": "G#2",
          "ticks": 43104,
          "time": 105.234375,
          "velocity": 0.6771653543307087
        },
        {
          "duration": 0.0048828125,
          "durationTicks": 2,
          "midi": 42,
          "name": "F#2",
          "ticks": 43200,
          "time": 105.46875,
          "velocity": 0.7244094488188977
        },
        {
          "duration": 0.0048828125,
          "durationTicks": 2,
          "midi": 38,
          "name": "D2",
          "ticks": 43200,
          "time": 105.46875,
          "velocity": 0.7874015748031497
        },
        {
          "duration": 0.0048828125,
          "durationTicks": 2,
          "midi": 46,
          "name": "A#2",
          "ticks": 43296,
          "time": 105.703125,
          "velocity": 0.6850393700787402
        },
        {
          "duration": 0.0048828125,
          "durationTicks": 2,
          "midi": 42,
          "name": "F#2",
          "ticks": 43392,
          "time": 105.9375,
          "velocity": 0.7086614173228346
        },
        {
          "duration": 0.0048828125,
          "durationTicks": 2,
          "midi": 35,
          "name": "B1",
          "ticks": 43392,
          "time": 105.9375,
          "velocity": 0.9763779527559056
        },
        {
          "duration": 0.0048828125,
          "durationTicks": 2,
          "midi": 44,
          "name": "G#2",
          "ticks": 43488,
          "time": 106.171875,
          "velocity": 0.7322834645669292
        },
        {
          "duration": 0.0048828125,
          "durationTicks": 2,
          "midi": 42,
          "name": "F#2",
          "ticks": 43584,
          "time": 106.40625,
          "velocity": 0.7559055118110236
        },
        {
          "duration": 0.0048828125,
          "durationTicks": 2,
          "midi": 38,
          "name": "D2",
          "ticks": 43584,
          "time": 106.40625,
          "velocity": 0.7874015748031497
        },
        {
          "duration": 0.0048828125,
          "durationTicks": 2,
          "midi": 44,
          "name": "G#2",
          "ticks": 43680,
          "time": 106.640625,
          "velocity": 0.7874015748031497
        },
        {
          "duration": 0.0048828125,
          "durationTicks": 2,
          "midi": 42,
          "name": "F#2",
          "ticks": 43776,
          "time": 106.875,
          "velocity": 0.7244094488188977
        },
        {
          "duration": 0.0048828125,
          "durationTicks": 2,
          "midi": 35,
          "name": "B1",
          "ticks": 43776,
          "time": 106.875,
          "velocity": 1
        },
        {
          "duration": 0.0048828125,
          "durationTicks": 2,
          "midi": 44,
          "name": "G#2",
          "ticks": 43872,
          "time": 107.109375,
          "velocity": 0.7165354330708661
        },
        {
          "duration": 0.0048828125,
          "durationTicks": 2,
          "midi": 42,
          "name": "F#2",
          "ticks": 43968,
          "time": 107.34375,
          "velocity": 0.6456692913385826
        },
        {
          "duration": 0.0048828125,
          "durationTicks": 2,
          "midi": 38,
          "name": "D2",
          "ticks": 43968,
          "time": 107.34375,
          "velocity": 0.7874015748031497
        },
        {
          "duration": 0.0048828125,
          "durationTicks": 2,
          "midi": 44,
          "name": "G#2",
          "ticks": 44064,
          "time": 107.578125,
          "velocity": 0.7559055118110236
        },
        {
          "duration": 0.0048828125,
          "durationTicks": 2,
          "midi": 42,
          "name": "F#2",
          "ticks": 44160,
          "time": 107.8125,
          "velocity": 0.7244094488188977
        },
        {
          "duration": 0.0048828125,
          "durationTicks": 2,
          "midi": 35,
          "name": "B1",
          "ticks": 44160,
          "time": 107.8125,
          "velocity": 0.9763779527559056
        },
        {
          "duration": 0.0048828125,
          "durationTicks": 2,
          "midi": 44,
          "name": "G#2",
          "ticks": 44256,
          "time": 108.046875,
          "velocity": 0.7716535433070866
        },
        {
          "duration": 0.0048828125,
          "durationTicks": 2,
          "midi": 42,
          "name": "F#2",
          "ticks": 44352,
          "time": 108.28125,
          "velocity": 0.7874015748031497
        },
        {
          "duration": 0.0048828125,
          "durationTicks": 2,
          "midi": 38,
          "name": "D2",
          "ticks": 44352,
          "time": 108.28125,
          "velocity": 0.7874015748031497
        },
        {
          "duration": 0.0048828125,
          "durationTicks": 2,
          "midi": 44,
          "name": "G#2",
          "ticks": 44448,
          "time": 108.515625,
          "velocity": 0.6929133858267716
        },
        {
          "duration": 0.0048828125,
          "durationTicks": 2,
          "midi": 42,
          "name": "F#2",
          "ticks": 44544,
          "time": 108.75,
          "velocity": 0.6850393700787402
        },
        {
          "duration": 0.0048828125,
          "durationTicks": 2,
          "midi": 35,
          "name": "B1",
          "ticks": 44544,
          "time": 108.75,
          "velocity": 1
        },
        {
          "duration": 0.0048828125,
          "durationTicks": 2,
          "midi": 44,
          "name": "G#2",
          "ticks": 44640,
          "time": 108.984375,
          "velocity": 0.7559055118110236
        },
        {
          "duration": 0.0048828125,
          "durationTicks": 2,
          "midi": 42,
          "name": "F#2",
          "ticks": 44736,
          "time": 109.21875,
          "velocity": 0.7401574803149606
        },
        {
          "duration": 0.0048828125,
          "durationTicks": 2,
          "midi": 38,
          "name": "D2",
          "ticks": 44736,
          "time": 109.21875,
          "velocity": 0.7874015748031497
        },
        {
          "duration": 0.0048828125,
          "durationTicks": 2,
          "midi": 46,
          "name": "A#2",
          "ticks": 44832,
          "time": 109.453125,
          "velocity": 0.6377952755905512
        },
        {
          "duration": 0.0048828125,
          "durationTicks": 2,
          "midi": 42,
          "name": "F#2",
          "ticks": 44928,
          "time": 109.6875,
          "velocity": 0.905511811023622
        },
        {
          "duration": 0.0048828125,
          "durationTicks": 2,
          "midi": 35,
          "name": "B1",
          "ticks": 44928,
          "time": 109.6875,
          "velocity": 1
        },
        {
          "duration": 0.0048828125,
          "durationTicks": 2,
          "midi": 44,
          "name": "G#2",
          "ticks": 45024,
          "time": 109.921875,
          "velocity": 0.6929133858267716
        },
        {
          "duration": 0.0048828125,
          "durationTicks": 2,
          "midi": 42,
          "name": "F#2",
          "ticks": 45120,
          "time": 110.15625,
          "velocity": 0.5905511811023622
        },
        {
          "duration": 0.0048828125,
          "durationTicks": 2,
          "midi": 38,
          "name": "D2",
          "ticks": 45120,
          "time": 110.15625,
          "velocity": 0.7874015748031497
        },
        {
          "duration": 0.0048828125,
          "durationTicks": 2,
          "midi": 44,
          "name": "G#2",
          "ticks": 45216,
          "time": 110.390625,
          "velocity": 0.6456692913385826
        },
        {
          "duration": 0.0048828125,
          "durationTicks": 2,
          "midi": 42,
          "name": "F#2",
          "ticks": 45312,
          "time": 110.625,
          "velocity": 0.6850393700787402
        },
        {
          "duration": 0.0048828125,
          "durationTicks": 2,
          "midi": 35,
          "name": "B1",
          "ticks": 45312,
          "time": 110.625,
          "velocity": 0.9763779527559056
        },
        {
          "duration": 0.0048828125,
          "durationTicks": 2,
          "midi": 44,
          "name": "G#2",
          "ticks": 45408,
          "time": 110.859375,
          "velocity": 0.6377952755905512
        },
        {
          "duration": 0.0048828125,
          "durationTicks": 2,
          "midi": 42,
          "name": "F#2",
          "ticks": 45504,
          "time": 111.09375,
          "velocity": 0.6771653543307087
        },
        {
          "duration": 0.0048828125,
          "durationTicks": 2,
          "midi": 38,
          "name": "D2",
          "ticks": 45504,
          "time": 111.09375,
          "velocity": 0.7874015748031497
        },
        {
          "duration": 0.0048828125,
          "durationTicks": 2,
          "midi": 44,
          "name": "G#2",
          "ticks": 45600,
          "time": 111.328125,
          "velocity": 0.7559055118110236
        },
        {
          "duration": 0.0048828125,
          "durationTicks": 2,
          "midi": 42,
          "name": "F#2",
          "ticks": 45696,
          "time": 111.5625,
          "velocity": 0.8582677165354331
        },
        {
          "duration": 0.0048828125,
          "durationTicks": 2,
          "midi": 35,
          "name": "B1",
          "ticks": 45696,
          "time": 111.5625,
          "velocity": 1
        },
        {
          "duration": 0.0048828125,
          "durationTicks": 2,
          "midi": 44,
          "name": "G#2",
          "ticks": 45792,
          "time": 111.796875,
          "velocity": 0.7086614173228346
        },
        {
          "duration": 0.0048828125,
          "durationTicks": 2,
          "midi": 42,
          "name": "F#2",
          "ticks": 45888,
          "time": 112.03125,
          "velocity": 0.6850393700787402
        },
        {
          "duration": 0.0048828125,
          "durationTicks": 2,
          "midi": 38,
          "name": "D2",
          "ticks": 45888,
          "time": 112.03125,
          "velocity": 0.7874015748031497
        },
        {
          "duration": 0.0048828125,
          "durationTicks": 2,
          "midi": 44,
          "name": "G#2",
          "ticks": 45984,
          "time": 112.265625,
          "velocity": 0.7559055118110236
        },
        {
          "duration": 0.0048828125,
          "durationTicks": 2,
          "midi": 42,
          "name": "F#2",
          "ticks": 46080,
          "time": 112.5,
          "velocity": 0.7086614173228346
        },
        {
          "duration": 0.0048828125,
          "durationTicks": 2,
          "midi": 35,
          "name": "B1",
          "ticks": 46080,
          "time": 112.5,
          "velocity": 1
        },
        {
          "duration": 0.0048828125,
          "durationTicks": 2,
          "midi": 44,
          "name": "G#2",
          "ticks": 46176,
          "time": 112.734375,
          "velocity": 0.6771653543307087
        },
        {
          "duration": 0.0048828125,
          "durationTicks": 2,
          "midi": 42,
          "name": "F#2",
          "ticks": 46272,
          "time": 112.96875,
          "velocity": 0.7244094488188977
        },
        {
          "duration": 0.0048828125,
          "durationTicks": 2,
          "midi": 38,
          "name": "D2",
          "ticks": 46272,
          "time": 112.96875,
          "velocity": 0.7874015748031497
        },
        {
          "duration": 0.0048828125,
          "durationTicks": 2,
          "midi": 46,
          "name": "A#2",
          "ticks": 46368,
          "time": 113.203125,
          "velocity": 0.6850393700787402
        },
        {
          "duration": 0.0048828125,
          "durationTicks": 2,
          "midi": 55,
          "name": "G3",
          "ticks": 46464,
          "time": 113.4375,
          "velocity": 0.8661417322834646
        },
        {
          "duration": 0.0048828125,
          "durationTicks": 2,
          "midi": 35,
          "name": "B1",
          "ticks": 46464,
          "time": 113.4375,
          "velocity": 1
        },
        {
          "duration": 0.0048828125,
          "durationTicks": 2,
          "midi": 42,
          "name": "F#2",
          "ticks": 46560,
          "time": 113.671875,
          "velocity": 0.9291338582677166
        },
        {
          "duration": 0.0048828125,
          "durationTicks": 2,
          "midi": 44,
          "name": "G#2",
          "ticks": 46608,
          "time": 113.7890625,
          "velocity": 0.9606299212598425
        },
        {
          "duration": 0.0048828125,
          "durationTicks": 2,
          "midi": 42,
          "name": "F#2",
          "ticks": 46656,
          "time": 113.90625,
          "velocity": 0.8346456692913385
        },
        {
          "duration": 0.0048828125,
          "durationTicks": 2,
          "midi": 38,
          "name": "D2",
          "ticks": 46656,
          "time": 113.90625,
          "velocity": 0.7874015748031497
        },
        {
          "duration": 0.0048828125,
          "durationTicks": 2,
          "midi": 44,
          "name": "G#2",
          "ticks": 46752,
          "time": 114.140625,
          "velocity": 0.7244094488188977
        },
        {
          "duration": 0.0048828125,
          "durationTicks": 2,
          "midi": 42,
          "name": "F#2",
          "ticks": 46848,
          "time": 114.375,
          "velocity": 0.7637795275590551
        },
        {
          "duration": 0.0048828125,
          "durationTicks": 2,
          "midi": 35,
          "name": "B1",
          "ticks": 46848,
          "time": 114.375,
          "velocity": 0.9763779527559056
        },
        {
          "duration": 0.0048828125,
          "durationTicks": 2,
          "midi": 44,
          "name": "G#2",
          "ticks": 46944,
          "time": 114.609375,
          "velocity": 0.7165354330708661
        },
        {
          "duration": 0.0048828125,
          "durationTicks": 2,
          "midi": 42,
          "name": "F#2",
          "ticks": 47040,
          "time": 114.84375,
          "velocity": 0.7559055118110236
        },
        {
          "duration": 0.0048828125,
          "durationTicks": 2,
          "midi": 38,
          "name": "D2",
          "ticks": 47040,
          "time": 114.84375,
          "velocity": 0.7874015748031497
        },
        {
          "duration": 0.0048828125,
          "durationTicks": 2,
          "midi": 44,
          "name": "G#2",
          "ticks": 47136,
          "time": 115.078125,
          "velocity": 0.8346456692913385
        },
        {
          "duration": 0.0048828125,
          "durationTicks": 2,
          "midi": 42,
          "name": "F#2",
          "ticks": 47232,
          "time": 115.3125,
          "velocity": 0.937007874015748
        },
        {
          "duration": 0.0048828125,
          "durationTicks": 2,
          "midi": 35,
          "name": "B1",
          "ticks": 47232,
          "time": 115.3125,
          "velocity": 1
        },
        {
          "duration": 0.0048828125,
          "durationTicks": 2,
          "midi": 44,
          "name": "G#2",
          "ticks": 47328,
          "time": 115.546875,
          "velocity": 0.7874015748031497
        },
        {
          "duration": 0.0048828125,
          "durationTicks": 2,
          "midi": 42,
          "name": "F#2",
          "ticks": 47424,
          "time": 115.78125,
          "velocity": 0.7637795275590551
        },
        {
          "duration": 0.0048828125,
          "durationTicks": 2,
          "midi": 38,
          "name": "D2",
          "ticks": 47424,
          "time": 115.78125,
          "velocity": 0.7874015748031497
        },
        {
          "duration": 0.0048828125,
          "durationTicks": 2,
          "midi": 44,
          "name": "G#2",
          "ticks": 47520,
          "time": 116.015625,
          "velocity": 0.8346456692913385
        },
        {
          "duration": 0.0048828125,
          "durationTicks": 2,
          "midi": 42,
          "name": "F#2",
          "ticks": 47616,
          "time": 116.25,
          "velocity": 0.7874015748031497
        },
        {
          "duration": 0.0048828125,
          "durationTicks": 2,
          "midi": 35,
          "name": "B1",
          "ticks": 47616,
          "time": 116.25,
          "velocity": 1
        },
        {
          "duration": 0.0048828125,
          "durationTicks": 2,
          "midi": 44,
          "name": "G#2",
          "ticks": 47712,
          "time": 116.484375,
          "velocity": 0.7559055118110236
        },
        {
          "duration": 0.0048828125,
          "durationTicks": 2,
          "midi": 42,
          "name": "F#2",
          "ticks": 47808,
          "time": 116.71875,
          "velocity": 0.8031496062992126
        },
        {
          "duration": 0.0048828125,
          "durationTicks": 2,
          "midi": 38,
          "name": "D2",
          "ticks": 47808,
          "time": 116.71875,
          "velocity": 0.7874015748031497
        },
        {
          "duration": 0.0048828125,
          "durationTicks": 2,
          "midi": 44,
          "name": "G#2",
          "ticks": 47904,
          "time": 116.953125,
          "velocity": 0.7559055118110236
        },
        {
          "duration": 0.0048828125,
          "durationTicks": 2,
          "midi": 42,
          "name": "F#2",
          "ticks": 48000,
          "time": 117.1875,
          "velocity": 0.7874015748031497
        },
        {
          "duration": 0.0048828125,
          "durationTicks": 2,
          "midi": 35,
          "name": "B1",
          "ticks": 48000,
          "time": 117.1875,
          "velocity": 0.9763779527559056
        },
        {
          "duration": 0.0048828125,
          "durationTicks": 2,
          "midi": 42,
          "name": "F#2",
          "ticks": 48096,
          "time": 117.421875,
          "velocity": 0.9291338582677166
        },
        {
          "duration": 0.0048828125,
          "durationTicks": 2,
          "midi": 44,
          "name": "G#2",
          "ticks": 48144,
          "time": 117.5390625,
          "velocity": 0.9606299212598425
        },
        {
          "duration": 0.0048828125,
          "durationTicks": 2,
          "midi": 42,
          "name": "F#2",
          "ticks": 48192,
          "time": 117.65625,
          "velocity": 0.8346456692913385
        },
        {
          "duration": 0.0048828125,
          "durationTicks": 2,
          "midi": 38,
          "name": "D2",
          "ticks": 48192,
          "time": 117.65625,
          "velocity": 0.7874015748031497
        },
        {
          "duration": 0.0048828125,
          "durationTicks": 2,
          "midi": 44,
          "name": "G#2",
          "ticks": 48288,
          "time": 117.890625,
          "velocity": 0.8661417322834646
        },
        {
          "duration": 0.0048828125,
          "durationTicks": 2,
          "midi": 42,
          "name": "F#2",
          "ticks": 48384,
          "time": 118.125,
          "velocity": 0.8031496062992126
        },
        {
          "duration": 0.0048828125,
          "durationTicks": 2,
          "midi": 35,
          "name": "B1",
          "ticks": 48384,
          "time": 118.125,
          "velocity": 1
        },
        {
          "duration": 0.0048828125,
          "durationTicks": 2,
          "midi": 44,
          "name": "G#2",
          "ticks": 48480,
          "time": 118.359375,
          "velocity": 0.7952755905511811
        },
        {
          "duration": 0.0048828125,
          "durationTicks": 2,
          "midi": 42,
          "name": "F#2",
          "ticks": 48576,
          "time": 118.59375,
          "velocity": 0.7244094488188977
        },
        {
          "duration": 0.0048828125,
          "durationTicks": 2,
          "midi": 38,
          "name": "D2",
          "ticks": 48576,
          "time": 118.59375,
          "velocity": 0.7874015748031497
        },
        {
          "duration": 0.0048828125,
          "durationTicks": 2,
          "midi": 44,
          "name": "G#2",
          "ticks": 48672,
          "time": 118.828125,
          "velocity": 0.8346456692913385
        },
        {
          "duration": 0.0048828125,
          "durationTicks": 2,
          "midi": 42,
          "name": "F#2",
          "ticks": 48768,
          "time": 119.0625,
          "velocity": 0.8031496062992126
        },
        {
          "duration": 0.0048828125,
          "durationTicks": 2,
          "midi": 35,
          "name": "B1",
          "ticks": 48768,
          "time": 119.0625,
          "velocity": 0.9763779527559056
        },
        {
          "duration": 0.0048828125,
          "durationTicks": 2,
          "midi": 44,
          "name": "G#2",
          "ticks": 48864,
          "time": 119.296875,
          "velocity": 0.8503937007874016
        },
        {
          "duration": 0.0048828125,
          "durationTicks": 2,
          "midi": 42,
          "name": "F#2",
          "ticks": 48960,
          "time": 119.53125,
          "velocity": 0.8661417322834646
        },
        {
          "duration": 0.0048828125,
          "durationTicks": 2,
          "midi": 38,
          "name": "D2",
          "ticks": 48960,
          "time": 119.53125,
          "velocity": 0.7874015748031497
        },
        {
          "duration": 0.0048828125,
          "durationTicks": 2,
          "midi": 44,
          "name": "G#2",
          "ticks": 49056,
          "time": 119.765625,
          "velocity": 0.7716535433070866
        },
        {
          "duration": 0.004882812500014211,
          "durationTicks": 2,
          "midi": 42,
          "name": "F#2",
          "ticks": 49152,
          "time": 120,
          "velocity": 0.7637795275590551
        },
        {
          "duration": 0.004882812500014211,
          "durationTicks": 2,
          "midi": 35,
          "name": "B1",
          "ticks": 49152,
          "time": 120,
          "velocity": 1
        },
        {
          "duration": 0.004882812500014211,
          "durationTicks": 2,
          "midi": 44,
          "name": "G#2",
          "ticks": 49248,
          "time": 120.234375,
          "velocity": 0.8346456692913385
        },
        {
          "duration": 0.004882812500014211,
          "durationTicks": 2,
          "midi": 42,
          "name": "F#2",
          "ticks": 49344,
          "time": 120.46875,
          "velocity": 0.8188976377952756
        },
        {
          "duration": 0.004882812500014211,
          "durationTicks": 2,
          "midi": 38,
          "name": "D2",
          "ticks": 49344,
          "time": 120.46875,
          "velocity": 0.7874015748031497
        },
        {
          "duration": 0.004882812500014211,
          "durationTicks": 2,
          "midi": 44,
          "name": "G#2",
          "ticks": 49440,
          "time": 120.703125,
          "velocity": 0.7086614173228346
        },
        {
          "duration": 0.004882812500014211,
          "durationTicks": 2,
          "midi": 42,
          "name": "F#2",
          "ticks": 49536,
          "time": 120.9375,
          "velocity": 0.905511811023622
        },
        {
          "duration": 0.004882812500014211,
          "durationTicks": 2,
          "midi": 35,
          "name": "B1",
          "ticks": 49536,
          "time": 120.9375,
          "velocity": 1
        },
        {
          "duration": 0.004882812500014211,
          "durationTicks": 2,
          "midi": 42,
          "name": "F#2",
          "ticks": 49632,
          "time": 121.171875,
          "velocity": 0.9291338582677166
        },
        {
          "duration": 0.004882812500014211,
          "durationTicks": 2,
          "midi": 44,
          "name": "G#2",
          "ticks": 49680,
          "time": 121.2890625,
          "velocity": 0.9606299212598425
        },
        {
          "duration": 0.004882812500014211,
          "durationTicks": 2,
          "midi": 42,
          "name": "F#2",
          "ticks": 49728,
          "time": 121.40625,
          "velocity": 0.8346456692913385
        },
        {
          "duration": 0.004882812500014211,
          "durationTicks": 2,
          "midi": 38,
          "name": "D2",
          "ticks": 49728,
          "time": 121.40625,
          "velocity": 0.7874015748031497
        },
        {
          "duration": 0.004882812500014211,
          "durationTicks": 2,
          "midi": 44,
          "name": "G#2",
          "ticks": 49824,
          "time": 121.640625,
          "velocity": 0.7244094488188977
        },
        {
          "duration": 0.004882812500014211,
          "durationTicks": 2,
          "midi": 42,
          "name": "F#2",
          "ticks": 49920,
          "time": 121.875,
          "velocity": 0.7637795275590551
        },
        {
          "duration": 0.004882812500014211,
          "durationTicks": 2,
          "midi": 35,
          "name": "B1",
          "ticks": 49920,
          "time": 121.875,
          "velocity": 0.9763779527559056
        },
        {
          "duration": 0.004882812500014211,
          "durationTicks": 2,
          "midi": 44,
          "name": "G#2",
          "ticks": 50016,
          "time": 122.109375,
          "velocity": 0.7165354330708661
        },
        {
          "duration": 0.004882812500014211,
          "durationTicks": 2,
          "midi": 42,
          "name": "F#2",
          "ticks": 50112,
          "time": 122.34375,
          "velocity": 0.7559055118110236
        },
        {
          "duration": 0.004882812500014211,
          "durationTicks": 2,
          "midi": 38,
          "name": "D2",
          "ticks": 50112,
          "time": 122.34375,
          "velocity": 0.7874015748031497
        },
        {
          "duration": 0.004882812500014211,
          "durationTicks": 2,
          "midi": 44,
          "name": "G#2",
          "ticks": 50208,
          "time": 122.578125,
          "velocity": 0.8346456692913385
        },
        {
          "duration": 0.004882812500014211,
          "durationTicks": 2,
          "midi": 42,
          "name": "F#2",
          "ticks": 50304,
          "time": 122.8125,
          "velocity": 0.937007874015748
        },
        {
          "duration": 0.004882812500014211,
          "durationTicks": 2,
          "midi": 35,
          "name": "B1",
          "ticks": 50304,
          "time": 122.8125,
          "velocity": 1
        },
        {
          "duration": 0.004882812500014211,
          "durationTicks": 2,
          "midi": 44,
          "name": "G#2",
          "ticks": 50400,
          "time": 123.046875,
          "velocity": 0.7874015748031497
        },
        {
          "duration": 0.004882812500014211,
          "durationTicks": 2,
          "midi": 42,
          "name": "F#2",
          "ticks": 50496,
          "time": 123.28125,
          "velocity": 0.7637795275590551
        },
        {
          "duration": 0.004882812500014211,
          "durationTicks": 2,
          "midi": 38,
          "name": "D2",
          "ticks": 50496,
          "time": 123.28125,
          "velocity": 0.7874015748031497
        },
        {
          "duration": 0.004882812500014211,
          "durationTicks": 2,
          "midi": 44,
          "name": "G#2",
          "ticks": 50592,
          "time": 123.515625,
          "velocity": 0.8346456692913385
        },
        {
          "duration": 0.004882812500014211,
          "durationTicks": 2,
          "midi": 42,
          "name": "F#2",
          "ticks": 50688,
          "time": 123.75,
          "velocity": 0.7874015748031497
        },
        {
          "duration": 0.004882812500014211,
          "durationTicks": 2,
          "midi": 35,
          "name": "B1",
          "ticks": 50688,
          "time": 123.75,
          "velocity": 1
        },
        {
          "duration": 0.004882812500014211,
          "durationTicks": 2,
          "midi": 44,
          "name": "G#2",
          "ticks": 50784,
          "time": 123.984375,
          "velocity": 0.7559055118110236
        },
        {
          "duration": 0.004882812500014211,
          "durationTicks": 2,
          "midi": 42,
          "name": "F#2",
          "ticks": 50880,
          "time": 124.21875,
          "velocity": 0.8031496062992126
        },
        {
          "duration": 0.004882812500014211,
          "durationTicks": 2,
          "midi": 38,
          "name": "D2",
          "ticks": 50880,
          "time": 124.21875,
          "velocity": 0.7874015748031497
        },
        {
          "duration": 0.004882812500014211,
          "durationTicks": 2,
          "midi": 44,
          "name": "G#2",
          "ticks": 50976,
          "time": 124.453125,
          "velocity": 0.7559055118110236
        },
        {
          "duration": 0.004882812500014211,
          "durationTicks": 2,
          "midi": 42,
          "name": "F#2",
          "ticks": 51072,
          "time": 124.6875,
          "velocity": 0.7874015748031497
        },
        {
          "duration": 0.004882812500014211,
          "durationTicks": 2,
          "midi": 35,
          "name": "B1",
          "ticks": 51072,
          "time": 124.6875,
          "velocity": 0.9763779527559056
        },
        {
          "duration": 0.004882812500014211,
          "durationTicks": 2,
          "midi": 42,
          "name": "F#2",
          "ticks": 51168,
          "time": 124.921875,
          "velocity": 0.9291338582677166
        },
        {
          "duration": 0.004882812500014211,
          "durationTicks": 2,
          "midi": 44,
          "name": "G#2",
          "ticks": 51216,
          "time": 125.0390625,
          "velocity": 0.9606299212598425
        },
        {
          "duration": 0.004882812500014211,
          "durationTicks": 2,
          "midi": 42,
          "name": "F#2",
          "ticks": 51264,
          "time": 125.15625,
          "velocity": 0.8346456692913385
        },
        {
          "duration": 0.004882812500014211,
          "durationTicks": 2,
          "midi": 38,
          "name": "D2",
          "ticks": 51264,
          "time": 125.15625,
          "velocity": 0.7874015748031497
        },
        {
          "duration": 0.004882812500014211,
          "durationTicks": 2,
          "midi": 44,
          "name": "G#2",
          "ticks": 51360,
          "time": 125.390625,
          "velocity": 0.8661417322834646
        },
        {
          "duration": 0.004882812500014211,
          "durationTicks": 2,
          "midi": 42,
          "name": "F#2",
          "ticks": 51456,
          "time": 125.625,
          "velocity": 0.8031496062992126
        },
        {
          "duration": 0.004882812500014211,
          "durationTicks": 2,
          "midi": 35,
          "name": "B1",
          "ticks": 51456,
          "time": 125.625,
          "velocity": 1
        },
        {
          "duration": 0.004882812500014211,
          "durationTicks": 2,
          "midi": 44,
          "name": "G#2",
          "ticks": 51552,
          "time": 125.859375,
          "velocity": 0.7952755905511811
        },
        {
          "duration": 0.004882812500014211,
          "durationTicks": 2,
          "midi": 42,
          "name": "F#2",
          "ticks": 51648,
          "time": 126.09375,
          "velocity": 0.7244094488188977
        },
        {
          "duration": 0.004882812500014211,
          "durationTicks": 2,
          "midi": 38,
          "name": "D2",
          "ticks": 51648,
          "time": 126.09375,
          "velocity": 0.7874015748031497
        },
        {
          "duration": 0.004882812500014211,
          "durationTicks": 2,
          "midi": 44,
          "name": "G#2",
          "ticks": 51744,
          "time": 126.328125,
          "velocity": 0.8346456692913385
        },
        {
          "duration": 0.004882812500014211,
          "durationTicks": 2,
          "midi": 42,
          "name": "F#2",
          "ticks": 51840,
          "time": 126.5625,
          "velocity": 0.8031496062992126
        },
        {
          "duration": 0.004882812500014211,
          "durationTicks": 2,
          "midi": 35,
          "name": "B1",
          "ticks": 51840,
          "time": 126.5625,
          "velocity": 0.9763779527559056
        },
        {
          "duration": 0.004882812500014211,
          "durationTicks": 2,
          "midi": 44,
          "name": "G#2",
          "ticks": 51936,
          "time": 126.796875,
          "velocity": 0.8503937007874016
        },
        {
          "duration": 0.004882812500014211,
          "durationTicks": 2,
          "midi": 42,
          "name": "F#2",
          "ticks": 52032,
          "time": 127.03125,
          "velocity": 0.8661417322834646
        },
        {
          "duration": 0.004882812500014211,
          "durationTicks": 2,
          "midi": 38,
          "name": "D2",
          "ticks": 52032,
          "time": 127.03125,
          "velocity": 0.7874015748031497
        },
        {
          "duration": 0.004882812500014211,
          "durationTicks": 2,
          "midi": 44,
          "name": "G#2",
          "ticks": 52128,
          "time": 127.265625,
          "velocity": 0.7716535433070866
        },
        {
          "duration": 0.004882812500014211,
          "durationTicks": 2,
          "midi": 42,
          "name": "F#2",
          "ticks": 52224,
          "time": 127.5,
          "velocity": 0.7637795275590551
        },
        {
          "duration": 0.004882812500014211,
          "durationTicks": 2,
          "midi": 35,
          "name": "B1",
          "ticks": 52224,
          "time": 127.5,
          "velocity": 1
        },
        {
          "duration": 0.004882812500014211,
          "durationTicks": 2,
          "midi": 44,
          "name": "G#2",
          "ticks": 52320,
          "time": 127.734375,
          "velocity": 0.8346456692913385
        },
        {
          "duration": 0.004882812500014211,
          "durationTicks": 2,
          "midi": 42,
          "name": "F#2",
          "ticks": 52416,
          "time": 127.96875,
          "velocity": 0.8188976377952756
        },
        {
          "duration": 0.004882812500014211,
          "durationTicks": 2,
          "midi": 38,
          "name": "D2",
          "ticks": 52416,
          "time": 127.96875,
          "velocity": 0.7874015748031497
        },
        {
          "duration": 0.0048828125,
          "durationTicks": 2,
          "midi": 44,
          "name": "G#2",
          "ticks": 52512,
          "time": 128.203125,
          "velocity": 0.7086614173228346
        },
        {
          "duration": 0.0048828125,
          "durationTicks": 2,
          "midi": 42,
          "name": "F#2",
          "ticks": 52608,
          "time": 128.4375,
          "velocity": 0.905511811023622
        },
        {
          "duration": 0.0048828125,
          "durationTicks": 2,
          "midi": 35,
          "name": "B1",
          "ticks": 52608,
          "time": 128.4375,
          "velocity": 1
        },
        {
          "duration": 0.0048828125,
          "durationTicks": 2,
          "midi": 44,
          "name": "G#2",
          "ticks": 52704,
          "time": 128.671875,
          "velocity": 0.7716535433070866
        },
        {
          "duration": 0.0048828125,
          "durationTicks": 2,
          "midi": 42,
          "name": "F#2",
          "ticks": 52800,
          "time": 128.90625,
          "velocity": 0.6692913385826772
        },
        {
          "duration": 0.0048828125,
          "durationTicks": 2,
          "midi": 38,
          "name": "D2",
          "ticks": 52800,
          "time": 128.90625,
          "velocity": 0.7874015748031497
        },
        {
          "duration": 0.0048828125,
          "durationTicks": 2,
          "midi": 44,
          "name": "G#2",
          "ticks": 52896,
          "time": 129.140625,
          "velocity": 0.7244094488188977
        },
        {
          "duration": 0.0048828125,
          "durationTicks": 2,
          "midi": 42,
          "name": "F#2",
          "ticks": 52992,
          "time": 129.375,
          "velocity": 0.7637795275590551
        },
        {
          "duration": 0.0048828125,
          "durationTicks": 2,
          "midi": 35,
          "name": "B1",
          "ticks": 52992,
          "time": 129.375,
          "velocity": 0.9763779527559056
        },
        {
          "duration": 0.0048828125,
          "durationTicks": 2,
          "midi": 44,
          "name": "G#2",
          "ticks": 53088,
          "time": 129.609375,
          "velocity": 0.7165354330708661
        },
        {
          "duration": 0.0048828125,
          "durationTicks": 2,
          "midi": 38,
          "name": "D2",
          "ticks": 53088,
          "time": 129.609375,
          "velocity": 0.5275590551181102
        },
        {
          "duration": 0.0048828125,
          "durationTicks": 2,
          "midi": 42,
          "name": "F#2",
          "ticks": 53184,
          "time": 129.84375,
          "velocity": 0.7559055118110236
        },
        {
          "duration": 0.0048828125,
          "durationTicks": 2,
          "midi": 38,
          "name": "D2",
          "ticks": 53184,
          "time": 129.84375,
          "velocity": 0.5275590551181102
        },
        {
          "duration": 0.0048828125,
          "durationTicks": 2,
          "midi": 44,
          "name": "G#2",
          "ticks": 53280,
          "time": 130.078125,
          "velocity": 0.8346456692913385
        },
        {
          "duration": 0.0048828125,
          "durationTicks": 2,
          "midi": 38,
          "name": "D2",
          "ticks": 53280,
          "time": 130.078125,
          "velocity": 0.7165354330708661
        },
        {
          "duration": 0.0048828125,
          "durationTicks": 2,
          "midi": 42,
          "name": "F#2",
          "ticks": 53376,
          "time": 130.3125,
          "velocity": 0.937007874015748
        },
        {
          "duration": 0.0048828125,
          "durationTicks": 2,
          "midi": 38,
          "name": "D2",
          "ticks": 53376,
          "time": 130.3125,
          "velocity": 0.7874015748031497
        },
        {
          "duration": 0.0048828125,
          "durationTicks": 2,
          "midi": 35,
          "name": "B1",
          "ticks": 53376,
          "time": 130.3125,
          "velocity": 1
        },
        {
          "duration": 0.0048828125,
          "durationTicks": 2,
          "midi": 44,
          "name": "G#2",
          "ticks": 53472,
          "time": 130.546875,
          "velocity": 0.7874015748031497
        },
        {
          "duration": 0.0048828125,
          "durationTicks": 2,
          "midi": 38,
          "name": "D2",
          "ticks": 53472,
          "time": 130.546875,
          "velocity": 0.7874015748031497
        },
        {
          "duration": 0.0048828125,
          "durationTicks": 2,
          "midi": 42,
          "name": "F#2",
          "ticks": 53568,
          "time": 130.78125,
          "velocity": 0.7637795275590551
        },
        {
          "duration": 0.0048828125,
          "durationTicks": 2,
          "midi": 38,
          "name": "D2",
          "ticks": 53568,
          "time": 130.78125,
          "velocity": 0.7874015748031497
        },
        {
          "duration": 0.0048828125,
          "durationTicks": 2,
          "midi": 44,
          "name": "G#2",
          "ticks": 53664,
          "time": 131.015625,
          "velocity": 0.8346456692913385
        },
        {
          "duration": 0.0048828125,
          "durationTicks": 2,
          "midi": 38,
          "name": "D2",
          "ticks": 53664,
          "time": 131.015625,
          "velocity": 0.7874015748031497
        },
        {
          "duration": 0.0048828125,
          "durationTicks": 2,
          "midi": 38,
          "name": "D2",
          "ticks": 53712,
          "time": 131.1328125,
          "velocity": 0.7874015748031497
        },
        {
          "duration": 0.0048828125,
          "durationTicks": 2,
          "midi": 55,
          "name": "G3",
          "ticks": 53760,
          "time": 131.25,
          "velocity": 0.8661417322834646
        },
        {
          "duration": 0.0048828125,
          "durationTicks": 2,
          "midi": 35,
          "name": "B1",
          "ticks": 53760,
          "time": 131.25,
          "velocity": 1
        },
        {
          "duration": 0.0048828125,
          "durationTicks": 2,
          "midi": 44,
          "name": "G#2",
          "ticks": 53856,
          "time": 131.484375,
          "velocity": 0.6929133858267716
        },
        {
          "duration": 0.0048828125,
          "durationTicks": 2,
          "midi": 42,
          "name": "F#2",
          "ticks": 53952,
          "time": 131.71875,
          "velocity": 0.5905511811023622
        },
        {
          "duration": 0.0048828125,
          "durationTicks": 2,
          "midi": 38,
          "name": "D2",
          "ticks": 53952,
          "time": 131.71875,
          "velocity": 0.7874015748031497
        },
        {
          "duration": 0.0048828125,
          "durationTicks": 2,
          "midi": 44,
          "name": "G#2",
          "ticks": 54048,
          "time": 131.953125,
          "velocity": 0.6456692913385826
        },
        {
          "duration": 0.0048828125,
          "durationTicks": 2,
          "midi": 42,
          "name": "F#2",
          "ticks": 54144,
          "time": 132.1875,
          "velocity": 0.6850393700787402
        },
        {
          "duration": 0.0048828125,
          "durationTicks": 2,
          "midi": 35,
          "name": "B1",
          "ticks": 54144,
          "time": 132.1875,
          "velocity": 0.9763779527559056
        },
        {
          "duration": 0.0048828125,
          "durationTicks": 2,
          "midi": 44,
          "name": "G#2",
          "ticks": 54240,
          "time": 132.421875,
          "velocity": 0.6377952755905512
        },
        {
          "duration": 0.0048828125,
          "durationTicks": 2,
          "midi": 42,
          "name": "F#2",
          "ticks": 54336,
          "time": 132.65625,
          "velocity": 0.6771653543307087
        },
        {
          "duration": 0.0048828125,
          "durationTicks": 2,
          "midi": 38,
          "name": "D2",
          "ticks": 54336,
          "time": 132.65625,
          "velocity": 0.7874015748031497
        },
        {
          "duration": 0.0048828125,
          "durationTicks": 2,
          "midi": 44,
          "name": "G#2",
          "ticks": 54432,
          "time": 132.890625,
          "velocity": 0.7559055118110236
        },
        {
          "duration": 0.0048828125,
          "durationTicks": 2,
          "midi": 42,
          "name": "F#2",
          "ticks": 54528,
          "time": 133.125,
          "velocity": 0.8582677165354331
        },
        {
          "duration": 0.0048828125,
          "durationTicks": 2,
          "midi": 35,
          "name": "B1",
          "ticks": 54528,
          "time": 133.125,
          "velocity": 1
        },
        {
          "duration": 0.0048828125,
          "durationTicks": 2,
          "midi": 44,
          "name": "G#2",
          "ticks": 54624,
          "time": 133.359375,
          "velocity": 0.7086614173228346
        },
        {
          "duration": 0.0048828125,
          "durationTicks": 2,
          "midi": 42,
          "name": "F#2",
          "ticks": 54720,
          "time": 133.59375,
          "velocity": 0.6850393700787402
        },
        {
          "duration": 0.0048828125,
          "durationTicks": 2,
          "midi": 38,
          "name": "D2",
          "ticks": 54720,
          "time": 133.59375,
          "velocity": 0.7874015748031497
        },
        {
          "duration": 0.0048828125,
          "durationTicks": 2,
          "midi": 44,
          "name": "G#2",
          "ticks": 54816,
          "time": 133.828125,
          "velocity": 0.7559055118110236
        },
        {
          "duration": 0.0048828125,
          "durationTicks": 2,
          "midi": 42,
          "name": "F#2",
          "ticks": 54912,
          "time": 134.0625,
          "velocity": 0.7086614173228346
        },
        {
          "duration": 0.0048828125,
          "durationTicks": 2,
          "midi": 35,
          "name": "B1",
          "ticks": 54912,
          "time": 134.0625,
          "velocity": 1
        },
        {
          "duration": 0.0048828125,
          "durationTicks": 2,
          "midi": 44,
          "name": "G#2",
          "ticks": 55008,
          "time": 134.296875,
          "velocity": 0.6771653543307087
        },
        {
          "duration": 0.0048828125,
          "durationTicks": 2,
          "midi": 42,
          "name": "F#2",
          "ticks": 55104,
          "time": 134.53125,
          "velocity": 0.7244094488188977
        },
        {
          "duration": 0.0048828125,
          "durationTicks": 2,
          "midi": 38,
          "name": "D2",
          "ticks": 55104,
          "time": 134.53125,
          "velocity": 0.7874015748031497
        },
        {
          "duration": 0.0048828125,
          "durationTicks": 2,
          "midi": 46,
          "name": "A#2",
          "ticks": 55200,
          "time": 134.765625,
          "velocity": 0.6850393700787402
        },
        {
          "duration": 0.0048828125,
          "durationTicks": 2,
          "midi": 42,
          "name": "F#2",
          "ticks": 55296,
          "time": 135,
          "velocity": 0.7086614173228346
        },
        {
          "duration": 0.0048828125,
          "durationTicks": 2,
          "midi": 35,
          "name": "B1",
          "ticks": 55296,
          "time": 135,
          "velocity": 0.9763779527559056
        },
        {
          "duration": 0.0048828125,
          "durationTicks": 2,
          "midi": 44,
          "name": "G#2",
          "ticks": 55392,
          "time": 135.234375,
          "velocity": 0.7322834645669292
        },
        {
          "duration": 0.0048828125,
          "durationTicks": 2,
          "midi": 42,
          "name": "F#2",
          "ticks": 55488,
          "time": 135.46875,
          "velocity": 0.7559055118110236
        },
        {
          "duration": 0.0048828125,
          "durationTicks": 2,
          "midi": 38,
          "name": "D2",
          "ticks": 55488,
          "time": 135.46875,
          "velocity": 0.7874015748031497
        },
        {
          "duration": 0.0048828125,
          "durationTicks": 2,
          "midi": 44,
          "name": "G#2",
          "ticks": 55584,
          "time": 135.703125,
          "velocity": 0.7874015748031497
        },
        {
          "duration": 0.0048828125,
          "durationTicks": 2,
          "midi": 42,
          "name": "F#2",
          "ticks": 55680,
          "time": 135.9375,
          "velocity": 0.7244094488188977
        },
        {
          "duration": 0.0048828125,
          "durationTicks": 2,
          "midi": 35,
          "name": "B1",
          "ticks": 55680,
          "time": 135.9375,
          "velocity": 1
        },
        {
          "duration": 0.0048828125,
          "durationTicks": 2,
          "midi": 44,
          "name": "G#2",
          "ticks": 55776,
          "time": 136.171875,
          "velocity": 0.7165354330708661
        },
        {
          "duration": 0.0048828125,
          "durationTicks": 2,
          "midi": 42,
          "name": "F#2",
          "ticks": 55872,
          "time": 136.40625,
          "velocity": 0.6456692913385826
        },
        {
          "duration": 0.0048828125,
          "durationTicks": 2,
          "midi": 38,
          "name": "D2",
          "ticks": 55872,
          "time": 136.40625,
          "velocity": 0.7874015748031497
        },
        {
          "duration": 0.0048828125,
          "durationTicks": 2,
          "midi": 44,
          "name": "G#2",
          "ticks": 55968,
          "time": 136.640625,
          "velocity": 0.7559055118110236
        },
        {
          "duration": 0.0048828125,
          "durationTicks": 2,
          "midi": 42,
          "name": "F#2",
          "ticks": 56064,
          "time": 136.875,
          "velocity": 0.7244094488188977
        },
        {
          "duration": 0.0048828125,
          "durationTicks": 2,
          "midi": 35,
          "name": "B1",
          "ticks": 56064,
          "time": 136.875,
          "velocity": 0.9763779527559056
        },
        {
          "duration": 0.0048828125,
          "durationTicks": 2,
          "midi": 44,
          "name": "G#2",
          "ticks": 56160,
          "time": 137.109375,
          "velocity": 0.7716535433070866
        },
        {
          "duration": 0.0048828125,
          "durationTicks": 2,
          "midi": 42,
          "name": "F#2",
          "ticks": 56256,
          "time": 137.34375,
          "velocity": 0.7874015748031497
        },
        {
          "duration": 0.0048828125,
          "durationTicks": 2,
          "midi": 38,
          "name": "D2",
          "ticks": 56256,
          "time": 137.34375,
          "velocity": 0.7874015748031497
        },
        {
          "duration": 0.0048828125,
          "durationTicks": 2,
          "midi": 44,
          "name": "G#2",
          "ticks": 56352,
          "time": 137.578125,
          "velocity": 0.6929133858267716
        },
        {
          "duration": 0.0048828125,
          "durationTicks": 2,
          "midi": 42,
          "name": "F#2",
          "ticks": 56448,
          "time": 137.8125,
          "velocity": 0.6850393700787402
        },
        {
          "duration": 0.0048828125,
          "durationTicks": 2,
          "midi": 35,
          "name": "B1",
          "ticks": 56448,
          "time": 137.8125,
          "velocity": 1
        },
        {
          "duration": 0.0048828125,
          "durationTicks": 2,
          "midi": 44,
          "name": "G#2",
          "ticks": 56544,
          "time": 138.046875,
          "velocity": 0.7559055118110236
        },
        {
          "duration": 0.0048828125,
          "durationTicks": 2,
          "midi": 42,
          "name": "F#2",
          "ticks": 56640,
          "time": 138.28125,
          "velocity": 0.7401574803149606
        },
        {
          "duration": 0.0048828125,
          "durationTicks": 2,
          "midi": 38,
          "name": "D2",
          "ticks": 56640,
          "time": 138.28125,
          "velocity": 0.7874015748031497
        },
        {
          "duration": 0.0048828125,
          "durationTicks": 2,
          "midi": 46,
          "name": "A#2",
          "ticks": 56736,
          "time": 138.515625,
          "velocity": 0.6377952755905512
        },
        {
          "duration": 0.0048828125,
          "durationTicks": 2,
          "midi": 42,
          "name": "F#2",
          "ticks": 56832,
          "time": 138.75,
          "velocity": 0.905511811023622
        },
        {
          "duration": 0.0048828125,
          "durationTicks": 2,
          "midi": 35,
          "name": "B1",
          "ticks": 56832,
          "time": 138.75,
          "velocity": 1
        },
        {
          "duration": 0.0048828125,
          "durationTicks": 2,
          "midi": 44,
          "name": "G#2",
          "ticks": 56928,
          "time": 138.984375,
          "velocity": 0.6929133858267716
        },
        {
          "duration": 0.0048828125,
          "durationTicks": 2,
          "midi": 42,
          "name": "F#2",
          "ticks": 57024,
          "time": 139.21875,
          "velocity": 0.5905511811023622
        },
        {
          "duration": 0.0048828125,
          "durationTicks": 2,
          "midi": 38,
          "name": "D2",
          "ticks": 57024,
          "time": 139.21875,
          "velocity": 0.7874015748031497
        },
        {
          "duration": 0.0048828125,
          "durationTicks": 2,
          "midi": 44,
          "name": "G#2",
          "ticks": 57120,
          "time": 139.453125,
          "velocity": 0.6456692913385826
        },
        {
          "duration": 0.0048828125,
          "durationTicks": 2,
          "midi": 42,
          "name": "F#2",
          "ticks": 57216,
          "time": 139.6875,
          "velocity": 0.6850393700787402
        },
        {
          "duration": 0.0048828125,
          "durationTicks": 2,
          "midi": 35,
          "name": "B1",
          "ticks": 57216,
          "time": 139.6875,
          "velocity": 0.9763779527559056
        },
        {
          "duration": 0.0048828125,
          "durationTicks": 2,
          "midi": 44,
          "name": "G#2",
          "ticks": 57312,
          "time": 139.921875,
          "velocity": 0.6377952755905512
        },
        {
          "duration": 0.0048828125,
          "durationTicks": 2,
          "midi": 42,
          "name": "F#2",
          "ticks": 57408,
          "time": 140.15625,
          "velocity": 0.6771653543307087
        },
        {
          "duration": 0.0048828125,
          "durationTicks": 2,
          "midi": 38,
          "name": "D2",
          "ticks": 57408,
          "time": 140.15625,
          "velocity": 0.7874015748031497
        },
        {
          "duration": 0.0048828125,
          "durationTicks": 2,
          "midi": 44,
          "name": "G#2",
          "ticks": 57504,
          "time": 140.390625,
          "velocity": 0.7559055118110236
        },
        {
          "duration": 0.0048828125,
          "durationTicks": 2,
          "midi": 42,
          "name": "F#2",
          "ticks": 57600,
          "time": 140.625,
          "velocity": 0.8582677165354331
        },
        {
          "duration": 0.0048828125,
          "durationTicks": 2,
          "midi": 35,
          "name": "B1",
          "ticks": 57600,
          "time": 140.625,
          "velocity": 1
        },
        {
          "duration": 0.0048828125,
          "durationTicks": 2,
          "midi": 44,
          "name": "G#2",
          "ticks": 57696,
          "time": 140.859375,
          "velocity": 0.7086614173228346
        },
        {
          "duration": 0.0048828125,
          "durationTicks": 2,
          "midi": 42,
          "name": "F#2",
          "ticks": 57792,
          "time": 141.09375,
          "velocity": 0.6850393700787402
        },
        {
          "duration": 0.0048828125,
          "durationTicks": 2,
          "midi": 38,
          "name": "D2",
          "ticks": 57792,
          "time": 141.09375,
          "velocity": 0.7874015748031497
        },
        {
          "duration": 0.0048828125,
          "durationTicks": 2,
          "midi": 44,
          "name": "G#2",
          "ticks": 57888,
          "time": 141.328125,
          "velocity": 0.7559055118110236
        },
        {
          "duration": 0.0048828125,
          "durationTicks": 2,
          "midi": 42,
          "name": "F#2",
          "ticks": 57984,
          "time": 141.5625,
          "velocity": 0.7086614173228346
        },
        {
          "duration": 0.0048828125,
          "durationTicks": 2,
          "midi": 35,
          "name": "B1",
          "ticks": 57984,
          "time": 141.5625,
          "velocity": 1
        },
        {
          "duration": 0.0048828125,
          "durationTicks": 2,
          "midi": 44,
          "name": "G#2",
          "ticks": 58080,
          "time": 141.796875,
          "velocity": 0.6771653543307087
        },
        {
          "duration": 0.0048828125,
          "durationTicks": 2,
          "midi": 42,
          "name": "F#2",
          "ticks": 58176,
          "time": 142.03125,
          "velocity": 0.7244094488188977
        },
        {
          "duration": 0.0048828125,
          "durationTicks": 2,
          "midi": 38,
          "name": "D2",
          "ticks": 58176,
          "time": 142.03125,
          "velocity": 0.7874015748031497
        },
        {
          "duration": 0.0048828125,
          "durationTicks": 2,
          "midi": 46,
          "name": "A#2",
          "ticks": 58272,
          "time": 142.265625,
          "velocity": 0.6850393700787402
        },
        {
          "duration": 0.0048828125,
          "durationTicks": 2,
          "midi": 55,
          "name": "G3",
          "ticks": 58368,
          "time": 142.5,
          "velocity": 0.8661417322834646
        },
        {
          "duration": 0.0048828125,
          "durationTicks": 2,
          "midi": 35,
          "name": "B1",
          "ticks": 58368,
          "time": 142.5,
          "velocity": 1
        },
        {
          "duration": 0.0048828125,
          "durationTicks": 2,
          "midi": 44,
          "name": "G#2",
          "ticks": 58464,
          "time": 142.734375,
          "velocity": 0.6929133858267716
        },
        {
          "duration": 0.0048828125,
          "durationTicks": 2,
          "midi": 42,
          "name": "F#2",
          "ticks": 58560,
          "time": 142.96875,
          "velocity": 0.5905511811023622
        },
        {
          "duration": 0.0048828125,
          "durationTicks": 2,
          "midi": 35,
          "name": "B1",
          "ticks": 58560,
          "time": 142.96875,
          "velocity": 0.9763779527559056
        },
        {
          "duration": 0.0048828125,
          "durationTicks": 2,
          "midi": 44,
          "name": "G#2",
          "ticks": 58656,
          "time": 143.203125,
          "velocity": 0.6456692913385826
        },
        {
          "duration": 0.0048828125,
          "durationTicks": 2,
          "midi": 55,
          "name": "G3",
          "ticks": 58752,
          "time": 143.4375,
          "velocity": 0.7086614173228346
        },
        {
          "duration": 0.0048828125,
          "durationTicks": 2,
          "midi": 42,
          "name": "F#2",
          "ticks": 58752,
          "time": 143.4375,
          "velocity": 0.6850393700787402
        },
        {
          "duration": 0.0048828125,
          "durationTicks": 2,
          "midi": 35,
          "name": "B1",
          "ticks": 58752,
          "time": 143.4375,
          "velocity": 0.9763779527559056
        },
        {
          "duration": 0.0048828125,
          "durationTicks": 2,
          "midi": 44,
          "name": "G#2",
          "ticks": 58848,
          "time": 143.671875,
          "velocity": 0.6377952755905512
        },
        {
          "duration": 0.0048828125,
          "durationTicks": 2,
          "midi": 42,
          "name": "F#2",
          "ticks": 58944,
          "time": 143.90625,
          "velocity": 0.6771653543307087
        },
        {
          "duration": 0.0048828125,
          "durationTicks": 2,
          "midi": 35,
          "name": "B1",
          "ticks": 58944,
          "time": 143.90625,
          "velocity": 0.889763779527559
        },
        {
          "duration": 0.0048828125,
          "durationTicks": 2,
          "midi": 44,
          "name": "G#2",
          "ticks": 59040,
          "time": 144.140625,
          "velocity": 0.7559055118110236
        },
        {
          "duration": 0.0048828125,
          "durationTicks": 2,
          "midi": 55,
          "name": "G3",
          "ticks": 59136,
          "time": 144.375,
          "velocity": 0.7086614173228346
        },
        {
          "duration": 0.0048828125,
          "durationTicks": 2,
          "midi": 42,
          "name": "F#2",
          "ticks": 59136,
          "time": 144.375,
          "velocity": 0.8582677165354331
        },
        {
          "duration": 0.0048828125,
          "durationTicks": 2,
          "midi": 35,
          "name": "B1",
          "ticks": 59136,
          "time": 144.375,
          "velocity": 1
        },
        {
          "duration": 0.0048828125,
          "durationTicks": 2,
          "midi": 44,
          "name": "G#2",
          "ticks": 59232,
          "time": 144.609375,
          "velocity": 0.7086614173228346
        },
        {
          "duration": 0.0048828125,
          "durationTicks": 2,
          "midi": 42,
          "name": "F#2",
          "ticks": 59328,
          "time": 144.84375,
          "velocity": 0.6850393700787402
        },
        {
          "duration": 0.0048828125,
          "durationTicks": 2,
          "midi": 35,
          "name": "B1",
          "ticks": 59328,
          "time": 144.84375,
          "velocity": 1
        },
        {
          "duration": 0.0048828125,
          "durationTicks": 2,
          "midi": 44,
          "name": "G#2",
          "ticks": 59424,
          "time": 145.078125,
          "velocity": 0.7559055118110236
        },
        {
          "duration": 0.0048828125,
          "durationTicks": 2,
          "midi": 55,
          "name": "G3",
          "ticks": 59520,
          "time": 145.3125,
          "velocity": 0.7086614173228346
        },
        {
          "duration": 0.0048828125,
          "durationTicks": 2,
          "midi": 42,
          "name": "F#2",
          "ticks": 59520,
          "time": 145.3125,
          "velocity": 0.7086614173228346
        },
        {
          "duration": 0.0048828125,
          "durationTicks": 2,
          "midi": 35,
          "name": "B1",
          "ticks": 59520,
          "time": 145.3125,
          "velocity": 1
        },
        {
          "duration": 0.0048828125,
          "durationTicks": 2,
          "midi": 44,
          "name": "G#2",
          "ticks": 59616,
          "time": 145.546875,
          "velocity": 0.6771653543307087
        },
        {
          "duration": 0.0048828125,
          "durationTicks": 2,
          "midi": 42,
          "name": "F#2",
          "ticks": 59712,
          "time": 145.78125,
          "velocity": 0.7244094488188977
        },
        {
          "duration": 0.0048828125,
          "durationTicks": 2,
          "midi": 35,
          "name": "B1",
          "ticks": 59712,
          "time": 145.78125,
          "velocity": 0.9763779527559056
        },
        {
          "duration": 0.0048828125,
          "durationTicks": 2,
          "midi": 44,
          "name": "G#2",
          "ticks": 59808,
          "time": 146.015625,
          "velocity": 0.7559055118110236
        },
        {
          "duration": 0.0048828125,
          "durationTicks": 2,
          "midi": 55,
          "name": "G3",
          "ticks": 59904,
          "time": 146.25,
          "velocity": 0.7086614173228346
        },
        {
          "duration": 0.0048828125,
          "durationTicks": 2,
          "midi": 42,
          "name": "F#2",
          "ticks": 59904,
          "time": 146.25,
          "velocity": 0.7086614173228346
        },
        {
          "duration": 0.0048828125,
          "durationTicks": 2,
          "midi": 35,
          "name": "B1",
          "ticks": 59904,
          "time": 146.25,
          "velocity": 0.9763779527559056
        },
        {
          "duration": 0.0048828125,
          "durationTicks": 2,
          "midi": 44,
          "name": "G#2",
          "ticks": 60000,
          "time": 146.484375,
          "velocity": 0.7322834645669292
        },
        {
          "duration": 0.0048828125,
          "durationTicks": 2,
          "midi": 42,
          "name": "F#2",
          "ticks": 60096,
          "time": 146.71875,
          "velocity": 0.7559055118110236
        },
        {
          "duration": 0.0048828125,
          "durationTicks": 2,
          "midi": 35,
          "name": "B1",
          "ticks": 60096,
          "time": 146.71875,
          "velocity": 1
        },
        {
          "duration": 0.0048828125,
          "durationTicks": 2,
          "midi": 44,
          "name": "G#2",
          "ticks": 60192,
          "time": 146.953125,
          "velocity": 0.7874015748031497
        },
        {
          "duration": 0.0048828125,
          "durationTicks": 2,
          "midi": 55,
          "name": "G3",
          "ticks": 60288,
          "time": 147.1875,
          "velocity": 0.7086614173228346
        },
        {
          "duration": 0.0048828125,
          "durationTicks": 2,
          "midi": 42,
          "name": "F#2",
          "ticks": 60288,
          "time": 147.1875,
          "velocity": 0.7244094488188977
        },
        {
          "duration": 0.0048828125,
          "durationTicks": 2,
          "midi": 35,
          "name": "B1",
          "ticks": 60288,
          "time": 147.1875,
          "velocity": 1
        },
        {
          "duration": 0.0048828125,
          "durationTicks": 2,
          "midi": 44,
          "name": "G#2",
          "ticks": 60384,
          "time": 147.421875,
          "velocity": 0.7165354330708661
        },
        {
          "duration": 0.0048828125,
          "durationTicks": 2,
          "midi": 42,
          "name": "F#2",
          "ticks": 60480,
          "time": 147.65625,
          "velocity": 0.6456692913385826
        },
        {
          "duration": 0.0048828125,
          "durationTicks": 2,
          "midi": 35,
          "name": "B1",
          "ticks": 60480,
          "time": 147.65625,
          "velocity": 0.9763779527559056
        },
        {
          "duration": 0.0048828125,
          "durationTicks": 2,
          "midi": 44,
          "name": "G#2",
          "ticks": 60576,
          "time": 147.890625,
          "velocity": 0.7559055118110236
        },
        {
          "duration": 0.0048828125,
          "durationTicks": 2,
          "midi": 55,
          "name": "G3",
          "ticks": 60672,
          "time": 148.125,
          "velocity": 0.7086614173228346
        },
        {
          "duration": 0.0048828125,
          "durationTicks": 2,
          "midi": 42,
          "name": "F#2",
          "ticks": 60672,
          "time": 148.125,
          "velocity": 0.7244094488188977
        },
        {
          "duration": 0.0048828125,
          "durationTicks": 2,
          "midi": 35,
          "name": "B1",
          "ticks": 60672,
          "time": 148.125,
          "velocity": 0.9763779527559056
        },
        {
          "duration": 0.0048828125,
          "durationTicks": 2,
          "midi": 44,
          "name": "G#2",
          "ticks": 60768,
          "time": 148.359375,
          "velocity": 0.7716535433070866
        },
        {
          "duration": 0.0048828125,
          "durationTicks": 2,
          "midi": 42,
          "name": "F#2",
          "ticks": 60864,
          "time": 148.59375,
          "velocity": 0.7874015748031497
        },
        {
          "duration": 0.0048828125,
          "durationTicks": 2,
          "midi": 35,
          "name": "B1",
          "ticks": 60864,
          "time": 148.59375,
          "velocity": 0.952755905511811
        },
        {
          "duration": 0.0048828125,
          "durationTicks": 2,
          "midi": 44,
          "name": "G#2",
          "ticks": 60960,
          "time": 148.828125,
          "velocity": 0.6929133858267716
        },
        {
          "duration": 0.0048828125,
          "durationTicks": 2,
          "midi": 55,
          "name": "G3",
          "ticks": 61056,
          "time": 149.0625,
          "velocity": 0.7086614173228346
        },
        {
          "duration": 0.0048828125,
          "durationTicks": 2,
          "midi": 42,
          "name": "F#2",
          "ticks": 61056,
          "time": 149.0625,
          "velocity": 0.6850393700787402
        },
        {
          "duration": 0.0048828125,
          "durationTicks": 2,
          "midi": 35,
          "name": "B1",
          "ticks": 61056,
          "time": 149.0625,
          "velocity": 1
        },
        {
          "duration": 0.0048828125,
          "durationTicks": 2,
          "midi": 44,
          "name": "G#2",
          "ticks": 61152,
          "time": 149.296875,
          "velocity": 0.7559055118110236
        },
        {
          "duration": 0.0048828125,
          "durationTicks": 2,
          "midi": 42,
          "name": "F#2",
          "ticks": 61248,
          "time": 149.53125,
          "velocity": 0.7401574803149606
        },
        {
          "duration": 0.0048828125,
          "durationTicks": 2,
          "midi": 35,
          "name": "B1",
          "ticks": 61248,
          "time": 149.53125,
          "velocity": 1
        },
        {
          "duration": 0.0048828125,
          "durationTicks": 2,
          "midi": 44,
          "name": "G#2",
          "ticks": 61344,
          "time": 149.765625,
          "velocity": 0.7086614173228346
        },
        {
          "duration": 0.0048828125,
          "durationTicks": 2,
          "midi": 55,
          "name": "G3",
          "ticks": 61440,
          "time": 150,
          "velocity": 0.8661417322834646
        },
        {
          "duration": 0.0048828125,
          "durationTicks": 2,
          "midi": 35,
          "name": "B1",
          "ticks": 61440,
          "time": 150,
          "velocity": 1
        },
        {
          "duration": 0.0048828125,
          "durationTicks": 2,
          "midi": 44,
          "name": "G#2",
          "ticks": 61536,
          "time": 150.234375,
          "velocity": 0.6929133858267716
        },
        {
          "duration": 0.0048828125,
          "durationTicks": 2,
          "midi": 42,
          "name": "F#2",
          "ticks": 61632,
          "time": 150.46875,
          "velocity": 0.5905511811023622
        },
        {
          "duration": 0.0048828125,
          "durationTicks": 2,
          "midi": 35,
          "name": "B1",
          "ticks": 61632,
          "time": 150.46875,
          "velocity": 0.9763779527559056
        },
        {
          "duration": 0.0048828125,
          "durationTicks": 2,
          "midi": 44,
          "name": "G#2",
          "ticks": 61728,
          "time": 150.703125,
          "velocity": 0.6456692913385826
        },
        {
          "duration": 0.0048828125,
          "durationTicks": 2,
          "midi": 55,
          "name": "G3",
          "ticks": 61824,
          "time": 150.9375,
          "velocity": 0.7086614173228346
        },
        {
          "duration": 0.0048828125,
          "durationTicks": 2,
          "midi": 42,
          "name": "F#2",
          "ticks": 61824,
          "time": 150.9375,
          "velocity": 0.6850393700787402
        },
        {
          "duration": 0.0048828125,
          "durationTicks": 2,
          "midi": 35,
          "name": "B1",
          "ticks": 61824,
          "time": 150.9375,
          "velocity": 0.9763779527559056
        },
        {
          "duration": 0.0048828125,
          "durationTicks": 2,
          "midi": 44,
          "name": "G#2",
          "ticks": 61920,
          "time": 151.171875,
          "velocity": 0.6377952755905512
        },
        {
          "duration": 0.0048828125,
          "durationTicks": 2,
          "midi": 42,
          "name": "F#2",
          "ticks": 62016,
          "time": 151.40625,
          "velocity": 0.6771653543307087
        },
        {
          "duration": 0.0048828125,
          "durationTicks": 2,
          "midi": 35,
          "name": "B1",
          "ticks": 62016,
          "time": 151.40625,
          "velocity": 0.889763779527559
        },
        {
          "duration": 0.0048828125,
          "durationTicks": 2,
          "midi": 44,
          "name": "G#2",
          "ticks": 62112,
          "time": 151.640625,
          "velocity": 0.7559055118110236
        },
        {
          "duration": 0.0048828125,
          "durationTicks": 2,
          "midi": 55,
          "name": "G3",
          "ticks": 62208,
          "time": 151.875,
          "velocity": 0.7086614173228346
        },
        {
          "duration": 0.0048828125,
          "durationTicks": 2,
          "midi": 42,
          "name": "F#2",
          "ticks": 62208,
          "time": 151.875,
          "velocity": 0.8582677165354331
        },
        {
          "duration": 0.0048828125,
          "durationTicks": 2,
          "midi": 35,
          "name": "B1",
          "ticks": 62208,
          "time": 151.875,
          "velocity": 1
        },
        {
          "duration": 0.0048828125,
          "durationTicks": 2,
          "midi": 44,
          "name": "G#2",
          "ticks": 62304,
          "time": 152.109375,
          "velocity": 0.7086614173228346
        },
        {
          "duration": 0.0048828125,
          "durationTicks": 2,
          "midi": 42,
          "name": "F#2",
          "ticks": 62400,
          "time": 152.34375,
          "velocity": 0.6850393700787402
        },
        {
          "duration": 0.0048828125,
          "durationTicks": 2,
          "midi": 35,
          "name": "B1",
          "ticks": 62400,
          "time": 152.34375,
          "velocity": 1
        },
        {
          "duration": 0.0048828125,
          "durationTicks": 2,
          "midi": 44,
          "name": "G#2",
          "ticks": 62496,
          "time": 152.578125,
          "velocity": 0.7559055118110236
        },
        {
          "duration": 0.0048828125,
          "durationTicks": 2,
          "midi": 55,
          "name": "G3",
          "ticks": 62592,
          "time": 152.8125,
          "velocity": 0.7086614173228346
        },
        {
          "duration": 0.0048828125,
          "durationTicks": 2,
          "midi": 42,
          "name": "F#2",
          "ticks": 62592,
          "time": 152.8125,
          "velocity": 0.7086614173228346
        },
        {
          "duration": 0.0048828125,
          "durationTicks": 2,
          "midi": 35,
          "name": "B1",
          "ticks": 62592,
          "time": 152.8125,
          "velocity": 1
        },
        {
          "duration": 0.0048828125,
          "durationTicks": 2,
          "midi": 44,
          "name": "G#2",
          "ticks": 62688,
          "time": 153.046875,
          "velocity": 0.6771653543307087
        },
        {
          "duration": 0.0048828125,
          "durationTicks": 2,
          "midi": 42,
          "name": "F#2",
          "ticks": 62784,
          "time": 153.28125,
          "velocity": 0.7244094488188977
        },
        {
          "duration": 0.0048828125,
          "durationTicks": 2,
          "midi": 35,
          "name": "B1",
          "ticks": 62784,
          "time": 153.28125,
          "velocity": 0.9763779527559056
        },
        {
          "duration": 0.0048828125,
          "durationTicks": 2,
          "midi": 44,
          "name": "G#2",
          "ticks": 62880,
          "time": 153.515625,
          "velocity": 0.7559055118110236
        },
        {
          "duration": 0.0048828125,
          "durationTicks": 2,
          "midi": 55,
          "name": "G3",
          "ticks": 62976,
          "time": 153.75,
          "velocity": 0.7086614173228346
        },
        {
          "duration": 0.0048828125,
          "durationTicks": 2,
          "midi": 42,
          "name": "F#2",
          "ticks": 62976,
          "time": 153.75,
          "velocity": 0.7086614173228346
        },
        {
          "duration": 0.0048828125,
          "durationTicks": 2,
          "midi": 35,
          "name": "B1",
          "ticks": 62976,
          "time": 153.75,
          "velocity": 0.9763779527559056
        },
        {
          "duration": 0.0048828125,
          "durationTicks": 2,
          "midi": 44,
          "name": "G#2",
          "ticks": 63072,
          "time": 153.984375,
          "velocity": 0.7322834645669292
        },
        {
          "duration": 0.0048828125,
          "durationTicks": 2,
          "midi": 42,
          "name": "F#2",
          "ticks": 63168,
          "time": 154.21875,
          "velocity": 0.7559055118110236
        },
        {
          "duration": 0.0048828125,
          "durationTicks": 2,
          "midi": 35,
          "name": "B1",
          "ticks": 63168,
          "time": 154.21875,
          "velocity": 1
        },
        {
          "duration": 0.0048828125,
          "durationTicks": 2,
          "midi": 44,
          "name": "G#2",
          "ticks": 63264,
          "time": 154.453125,
          "velocity": 0.7874015748031497
        },
        {
          "duration": 0.0048828125,
          "durationTicks": 2,
          "midi": 55,
          "name": "G3",
          "ticks": 63360,
          "time": 154.6875,
          "velocity": 0.7086614173228346
        },
        {
          "duration": 0.0048828125,
          "durationTicks": 2,
          "midi": 42,
          "name": "F#2",
          "ticks": 63360,
          "time": 154.6875,
          "velocity": 0.7244094488188977
        },
        {
          "duration": 0.0048828125,
          "durationTicks": 2,
          "midi": 35,
          "name": "B1",
          "ticks": 63360,
          "time": 154.6875,
          "velocity": 1
        },
        {
          "duration": 0.0048828125,
          "durationTicks": 2,
          "midi": 44,
          "name": "G#2",
          "ticks": 63456,
          "time": 154.921875,
          "velocity": 0.7165354330708661
        },
        {
          "duration": 0.0048828125,
          "durationTicks": 2,
          "midi": 42,
          "name": "F#2",
          "ticks": 63552,
          "time": 155.15625,
          "velocity": 0.6456692913385826
        },
        {
          "duration": 0.0048828125,
          "durationTicks": 2,
          "midi": 35,
          "name": "B1",
          "ticks": 63552,
          "time": 155.15625,
          "velocity": 0.9763779527559056
        },
        {
          "duration": 0.0048828125,
          "durationTicks": 2,
          "midi": 44,
          "name": "G#2",
          "ticks": 63648,
          "time": 155.390625,
          "velocity": 0.7559055118110236
        },
        {
          "duration": 0.0048828125,
          "durationTicks": 2,
          "midi": 55,
          "name": "G3",
          "ticks": 63744,
          "time": 155.625,
          "velocity": 0.7086614173228346
        },
        {
          "duration": 0.0048828125,
          "durationTicks": 2,
          "midi": 42,
          "name": "F#2",
          "ticks": 63744,
          "time": 155.625,
          "velocity": 0.7244094488188977
        },
        {
          "duration": 0.0048828125,
          "durationTicks": 2,
          "midi": 35,
          "name": "B1",
          "ticks": 63744,
          "time": 155.625,
          "velocity": 0.9763779527559056
        },
        {
          "duration": 0.0048828125,
          "durationTicks": 2,
          "midi": 44,
          "name": "G#2",
          "ticks": 63840,
          "time": 155.859375,
          "velocity": 0.7716535433070866
        },
        {
          "duration": 0.0048828125,
          "durationTicks": 2,
          "midi": 38,
          "name": "D2",
          "ticks": 63840,
          "time": 155.859375,
          "velocity": 0.5275590551181102
        },
        {
          "duration": 0.0048828125,
          "durationTicks": 2,
          "midi": 42,
          "name": "F#2",
          "ticks": 63936,
          "time": 156.09375,
          "velocity": 0.7874015748031497
        },
        {
          "duration": 0.0048828125,
          "durationTicks": 2,
          "midi": 38,
          "name": "D2",
          "ticks": 63936,
          "time": 156.09375,
          "velocity": 0.5275590551181102
        },
        {
          "duration": 0.0048828125,
          "durationTicks": 2,
          "midi": 35,
          "name": "B1",
          "ticks": 63936,
          "time": 156.09375,
          "velocity": 0.952755905511811
        },
        {
          "duration": 0.0048828125,
          "durationTicks": 2,
          "midi": 44,
          "name": "G#2",
          "ticks": 64032,
          "time": 156.328125,
          "velocity": 0.6929133858267716
        },
        {
          "duration": 0.0048828125,
          "durationTicks": 2,
          "midi": 38,
          "name": "D2",
          "ticks": 64032,
          "time": 156.328125,
          "velocity": 0.7165354330708661
        },
        {
          "duration": 0.0048828125,
          "durationTicks": 2,
          "midi": 55,
          "name": "G3",
          "ticks": 64128,
          "time": 156.5625,
          "velocity": 0.7086614173228346
        },
        {
          "duration": 0.0048828125,
          "durationTicks": 2,
          "midi": 42,
          "name": "F#2",
          "ticks": 64128,
          "time": 156.5625,
          "velocity": 0.6850393700787402
        },
        {
          "duration": 0.0048828125,
          "durationTicks": 2,
          "midi": 38,
          "name": "D2",
          "ticks": 64128,
          "time": 156.5625,
          "velocity": 0.7874015748031497
        },
        {
          "duration": 0.0048828125,
          "durationTicks": 2,
          "midi": 35,
          "name": "B1",
          "ticks": 64128,
          "time": 156.5625,
          "velocity": 1
        },
        {
          "duration": 0.0048828125,
          "durationTicks": 2,
          "midi": 44,
          "name": "G#2",
          "ticks": 64224,
          "time": 156.796875,
          "velocity": 0.7559055118110236
        },
        {
          "duration": 0.0048828125,
          "durationTicks": 2,
          "midi": 38,
          "name": "D2",
          "ticks": 64224,
          "time": 156.796875,
          "velocity": 0.7874015748031497
        },
        {
          "duration": 0.0048828125,
          "durationTicks": 2,
          "midi": 42,
          "name": "F#2",
          "ticks": 64320,
          "time": 157.03125,
          "velocity": 0.7401574803149606
        },
        {
          "duration": 0.0048828125,
          "durationTicks": 2,
          "midi": 38,
          "name": "D2",
          "ticks": 64320,
          "time": 157.03125,
          "velocity": 0.7874015748031497
        },
        {
          "duration": 0.0048828125,
          "durationTicks": 2,
          "midi": 44,
          "name": "G#2",
          "ticks": 64416,
          "time": 157.265625,
          "velocity": 0.7086614173228346
        },
        {
          "duration": 0.0048828125,
          "durationTicks": 2,
          "midi": 38,
          "name": "D2",
          "ticks": 64416,
          "time": 157.265625,
          "velocity": 0.7874015748031497
        },
        {
          "duration": 0.0048828125,
          "durationTicks": 2,
          "midi": 38,
          "name": "D2",
          "ticks": 64464,
          "time": 157.3828125,
          "velocity": 0.7874015748031497
        },
        {
          "duration": 0.0048828125,
          "durationTicks": 2,
          "midi": 55,
          "name": "G3",
          "ticks": 64512,
          "time": 157.5,
          "velocity": 0.8661417322834646
        },
        {
          "duration": 0.0048828125,
          "durationTicks": 2,
          "midi": 35,
          "name": "B1",
          "ticks": 64512,
          "time": 157.5,
          "velocity": 1
        },
        {
          "duration": 0.0048828125,
          "durationTicks": 2,
          "midi": 44,
          "name": "G#2",
          "ticks": 64608,
          "time": 157.734375,
          "velocity": 0.6929133858267716
        },
        {
          "duration": 0.0048828125,
          "durationTicks": 2,
          "midi": 42,
          "name": "F#2",
          "ticks": 64704,
          "time": 157.96875,
          "velocity": 0.5905511811023622
        },
        {
          "duration": 0.0048828125,
          "durationTicks": 2,
          "midi": 38,
          "name": "D2",
          "ticks": 64704,
          "time": 157.96875,
          "velocity": 0.7874015748031497
        },
        {
          "duration": 0.0048828125,
          "durationTicks": 2,
          "midi": 44,
          "name": "G#2",
          "ticks": 64800,
          "time": 158.203125,
          "velocity": 0.6456692913385826
        },
        {
          "duration": 0.0048828125,
          "durationTicks": 2,
          "midi": 42,
          "name": "F#2",
          "ticks": 64896,
          "time": 158.4375,
          "velocity": 0.6850393700787402
        },
        {
          "duration": 0.0048828125,
          "durationTicks": 2,
          "midi": 35,
          "name": "B1",
          "ticks": 64896,
          "time": 158.4375,
          "velocity": 0.9763779527559056
        },
        {
          "duration": 0.0048828125,
          "durationTicks": 2,
          "midi": 44,
          "name": "G#2",
          "ticks": 64992,
          "time": 158.671875,
          "velocity": 0.6377952755905512
        },
        {
          "duration": 0.0048828125,
          "durationTicks": 2,
          "midi": 42,
          "name": "F#2",
          "ticks": 65088,
          "time": 158.90625,
          "velocity": 0.6771653543307087
        },
        {
          "duration": 0.0048828125,
          "durationTicks": 2,
          "midi": 38,
          "name": "D2",
          "ticks": 65088,
          "time": 158.90625,
          "velocity": 0.7874015748031497
        },
        {
          "duration": 0.0048828125,
          "durationTicks": 2,
          "midi": 44,
          "name": "G#2",
          "ticks": 65184,
          "time": 159.140625,
          "velocity": 0.7559055118110236
        },
        {
          "duration": 0.0048828125,
          "durationTicks": 2,
          "midi": 42,
          "name": "F#2",
          "ticks": 65280,
          "time": 159.375,
          "velocity": 0.8582677165354331
        },
        {
          "duration": 0.0048828125,
          "durationTicks": 2,
          "midi": 35,
          "name": "B1",
          "ticks": 65280,
          "time": 159.375,
          "velocity": 1
        },
        {
          "duration": 0.0048828125,
          "durationTicks": 2,
          "midi": 44,
          "name": "G#2",
          "ticks": 65376,
          "time": 159.609375,
          "velocity": 0.7086614173228346
        },
        {
          "duration": 0.0048828125,
          "durationTicks": 2,
          "midi": 42,
          "name": "F#2",
          "ticks": 65472,
          "time": 159.84375,
          "velocity": 0.6850393700787402
        },
        {
          "duration": 0.0048828125,
          "durationTicks": 2,
          "midi": 38,
          "name": "D2",
          "ticks": 65472,
          "time": 159.84375,
          "velocity": 0.7874015748031497
        },
        {
          "duration": 0.0048828125,
          "durationTicks": 2,
          "midi": 44,
          "name": "G#2",
          "ticks": 65568,
          "time": 160.078125,
          "velocity": 0.7559055118110236
        },
        {
          "duration": 0.0048828125,
          "durationTicks": 2,
          "midi": 42,
          "name": "F#2",
          "ticks": 65664,
          "time": 160.3125,
          "velocity": 0.7086614173228346
        },
        {
          "duration": 0.0048828125,
          "durationTicks": 2,
          "midi": 35,
          "name": "B1",
          "ticks": 65664,
          "time": 160.3125,
          "velocity": 1
        },
        {
          "duration": 0.0048828125,
          "durationTicks": 2,
          "midi": 44,
          "name": "G#2",
          "ticks": 65760,
          "time": 160.546875,
          "velocity": 0.6771653543307087
        },
        {
          "duration": 0.0048828125,
          "durationTicks": 2,
          "midi": 42,
          "name": "F#2",
          "ticks": 65856,
          "time": 160.78125,
          "velocity": 0.7244094488188977
        },
        {
          "duration": 0.0048828125,
          "durationTicks": 2,
          "midi": 38,
          "name": "D2",
          "ticks": 65856,
          "time": 160.78125,
          "velocity": 0.7874015748031497
        },
        {
          "duration": 0.0048828125,
          "durationTicks": 2,
          "midi": 46,
          "name": "A#2",
          "ticks": 65952,
          "time": 161.015625,
          "velocity": 0.6850393700787402
        },
        {
          "duration": 0.0048828125,
          "durationTicks": 2,
          "midi": 42,
          "name": "F#2",
          "ticks": 66048,
          "time": 161.25,
          "velocity": 0.7086614173228346
        },
        {
          "duration": 0.0048828125,
          "durationTicks": 2,
          "midi": 35,
          "name": "B1",
          "ticks": 66048,
          "time": 161.25,
          "velocity": 0.9763779527559056
        },
        {
          "duration": 0.0048828125,
          "durationTicks": 2,
          "midi": 44,
          "name": "G#2",
          "ticks": 66144,
          "time": 161.484375,
          "velocity": 0.7322834645669292
        },
        {
          "duration": 0.0048828125,
          "durationTicks": 2,
          "midi": 42,
          "name": "F#2",
          "ticks": 66240,
          "time": 161.71875,
          "velocity": 0.7559055118110236
        },
        {
          "duration": 0.0048828125,
          "durationTicks": 2,
          "midi": 38,
          "name": "D2",
          "ticks": 66240,
          "time": 161.71875,
          "velocity": 0.7874015748031497
        },
        {
          "duration": 0.0048828125,
          "durationTicks": 2,
          "midi": 44,
          "name": "G#2",
          "ticks": 66336,
          "time": 161.953125,
          "velocity": 0.7874015748031497
        },
        {
          "duration": 0.0048828125,
          "durationTicks": 2,
          "midi": 42,
          "name": "F#2",
          "ticks": 66432,
          "time": 162.1875,
          "velocity": 0.7244094488188977
        },
        {
          "duration": 0.0048828125,
          "durationTicks": 2,
          "midi": 35,
          "name": "B1",
          "ticks": 66432,
          "time": 162.1875,
          "velocity": 1
        },
        {
          "duration": 0.0048828125,
          "durationTicks": 2,
          "midi": 44,
          "name": "G#2",
          "ticks": 66528,
          "time": 162.421875,
          "velocity": 0.7165354330708661
        },
        {
          "duration": 0.0048828125,
          "durationTicks": 2,
          "midi": 42,
          "name": "F#2",
          "ticks": 66624,
          "time": 162.65625,
          "velocity": 0.6456692913385826
        },
        {
          "duration": 0.0048828125,
          "durationTicks": 2,
          "midi": 38,
          "name": "D2",
          "ticks": 66624,
          "time": 162.65625,
          "velocity": 0.7874015748031497
        },
        {
          "duration": 0.0048828125,
          "durationTicks": 2,
          "midi": 44,
          "name": "G#2",
          "ticks": 66720,
          "time": 162.890625,
          "velocity": 0.7559055118110236
        },
        {
          "duration": 0.0048828125,
          "durationTicks": 2,
          "midi": 42,
          "name": "F#2",
          "ticks": 66816,
          "time": 163.125,
          "velocity": 0.7244094488188977
        },
        {
          "duration": 0.0048828125,
          "durationTicks": 2,
          "midi": 35,
          "name": "B1",
          "ticks": 66816,
          "time": 163.125,
          "velocity": 0.9763779527559056
        },
        {
          "duration": 0.0048828125,
          "durationTicks": 2,
          "midi": 44,
          "name": "G#2",
          "ticks": 66912,
          "time": 163.359375,
          "velocity": 0.7716535433070866
        },
        {
          "duration": 0.0048828125,
          "durationTicks": 2,
          "midi": 42,
          "name": "F#2",
          "ticks": 67008,
          "time": 163.59375,
          "velocity": 0.7874015748031497
        },
        {
          "duration": 0.0048828125,
          "durationTicks": 2,
          "midi": 38,
          "name": "D2",
          "ticks": 67008,
          "time": 163.59375,
          "velocity": 0.7874015748031497
        },
        {
          "duration": 0.0048828125,
          "durationTicks": 2,
          "midi": 44,
          "name": "G#2",
          "ticks": 67104,
          "time": 163.828125,
          "velocity": 0.6929133858267716
        },
        {
          "duration": 0.0048828125,
          "durationTicks": 2,
          "midi": 42,
          "name": "F#2",
          "ticks": 67200,
          "time": 164.0625,
          "velocity": 0.6850393700787402
        },
        {
          "duration": 0.0048828125,
          "durationTicks": 2,
          "midi": 35,
          "name": "B1",
          "ticks": 67200,
          "time": 164.0625,
          "velocity": 1
        },
        {
          "duration": 0.0048828125,
          "durationTicks": 2,
          "midi": 44,
          "name": "G#2",
          "ticks": 67296,
          "time": 164.296875,
          "velocity": 0.7559055118110236
        },
        {
          "duration": 0.0048828125,
          "durationTicks": 2,
          "midi": 42,
          "name": "F#2",
          "ticks": 67392,
          "time": 164.53125,
          "velocity": 0.7401574803149606
        },
        {
          "duration": 0.0048828125,
          "durationTicks": 2,
          "midi": 38,
          "name": "D2",
          "ticks": 67392,
          "time": 164.53125,
          "velocity": 0.7874015748031497
        },
        {
          "duration": 0.0048828125,
          "durationTicks": 2,
          "midi": 46,
          "name": "A#2",
          "ticks": 67488,
          "time": 164.765625,
          "velocity": 0.6377952755905512
        },
        {
          "duration": 0.0048828125,
          "durationTicks": 2,
          "midi": 42,
          "name": "F#2",
          "ticks": 67584,
          "time": 165,
          "velocity": 0.905511811023622
        },
        {
          "duration": 0.0048828125,
          "durationTicks": 2,
          "midi": 35,
          "name": "B1",
          "ticks": 67584,
          "time": 165,
          "velocity": 1
        },
        {
          "duration": 0.0048828125,
          "durationTicks": 2,
          "midi": 44,
          "name": "G#2",
          "ticks": 67680,
          "time": 165.234375,
          "velocity": 0.6929133858267716
        },
        {
          "duration": 0.0048828125,
          "durationTicks": 2,
          "midi": 42,
          "name": "F#2",
          "ticks": 67776,
          "time": 165.46875,
          "velocity": 0.5905511811023622
        },
        {
          "duration": 0.0048828125,
          "durationTicks": 2,
          "midi": 38,
          "name": "D2",
          "ticks": 67776,
          "time": 165.46875,
          "velocity": 0.7874015748031497
        },
        {
          "duration": 0.0048828125,
          "durationTicks": 2,
          "midi": 44,
          "name": "G#2",
          "ticks": 67872,
          "time": 165.703125,
          "velocity": 0.6456692913385826
        },
        {
          "duration": 0.0048828125,
          "durationTicks": 2,
          "midi": 42,
          "name": "F#2",
          "ticks": 67968,
          "time": 165.9375,
          "velocity": 0.6850393700787402
        },
        {
          "duration": 0.0048828125,
          "durationTicks": 2,
          "midi": 35,
          "name": "B1",
          "ticks": 67968,
          "time": 165.9375,
          "velocity": 0.9763779527559056
        },
        {
          "duration": 0.0048828125,
          "durationTicks": 2,
          "midi": 44,
          "name": "G#2",
          "ticks": 68064,
          "time": 166.171875,
          "velocity": 0.6377952755905512
        },
        {
          "duration": 0.0048828125,
          "durationTicks": 2,
          "midi": 42,
          "name": "F#2",
          "ticks": 68160,
          "time": 166.40625,
          "velocity": 0.6771653543307087
        },
        {
          "duration": 0.0048828125,
          "durationTicks": 2,
          "midi": 38,
          "name": "D2",
          "ticks": 68160,
          "time": 166.40625,
          "velocity": 0.7874015748031497
        },
        {
          "duration": 0.0048828125,
          "durationTicks": 2,
          "midi": 44,
          "name": "G#2",
          "ticks": 68256,
          "time": 166.640625,
          "velocity": 0.7559055118110236
        },
        {
          "duration": 0.0048828125,
          "durationTicks": 2,
          "midi": 42,
          "name": "F#2",
          "ticks": 68352,
          "time": 166.875,
          "velocity": 0.8582677165354331
        },
        {
          "duration": 0.0048828125,
          "durationTicks": 2,
          "midi": 35,
          "name": "B1",
          "ticks": 68352,
          "time": 166.875,
          "velocity": 1
        },
        {
          "duration": 0.0048828125,
          "durationTicks": 2,
          "midi": 44,
          "name": "G#2",
          "ticks": 68448,
          "time": 167.109375,
          "velocity": 0.7086614173228346
        },
        {
          "duration": 0.0048828125,
          "durationTicks": 2,
          "midi": 42,
          "name": "F#2",
          "ticks": 68544,
          "time": 167.34375,
          "velocity": 0.6850393700787402
        },
        {
          "duration": 0.0048828125,
          "durationTicks": 2,
          "midi": 38,
          "name": "D2",
          "ticks": 68544,
          "time": 167.34375,
          "velocity": 0.7874015748031497
        },
        {
          "duration": 0.0048828125,
          "durationTicks": 2,
          "midi": 44,
          "name": "G#2",
          "ticks": 68640,
          "time": 167.578125,
          "velocity": 0.7559055118110236
        },
        {
          "duration": 0.0048828125,
          "durationTicks": 2,
          "midi": 42,
          "name": "F#2",
          "ticks": 68736,
          "time": 167.8125,
          "velocity": 0.7086614173228346
        },
        {
          "duration": 0.0048828125,
          "durationTicks": 2,
          "midi": 35,
          "name": "B1",
          "ticks": 68736,
          "time": 167.8125,
          "velocity": 1
        },
        {
          "duration": 0.0048828125,
          "durationTicks": 2,
          "midi": 44,
          "name": "G#2",
          "ticks": 68832,
          "time": 168.046875,
          "velocity": 0.6771653543307087
        },
        {
          "duration": 0.0048828125,
          "durationTicks": 2,
          "midi": 38,
          "name": "D2",
          "ticks": 68880,
          "time": 168.1640625,
          "velocity": 0.5905511811023622
        },
        {
          "duration": 0.0048828125,
          "durationTicks": 2,
          "midi": 42,
          "name": "F#2",
          "ticks": 68928,
          "time": 168.28125,
          "velocity": 0.7244094488188977
        },
        {
          "duration": 0.0048828125,
          "durationTicks": 2,
          "midi": 38,
          "name": "D2",
          "ticks": 68928,
          "time": 168.28125,
          "velocity": 0.7874015748031497
        },
        {
          "duration": 0.0048828125,
          "durationTicks": 2,
          "midi": 44,
          "name": "G#2",
          "ticks": 69024,
          "time": 168.515625,
          "velocity": 0.7559055118110236
        },
        {
          "duration": 0.0048828125,
          "durationTicks": 2,
          "midi": 35,
          "name": "B1",
          "ticks": 69024,
          "time": 168.515625,
          "velocity": 0.9763779527559056
        },
        {
          "duration": 0.0048828125,
          "durationTicks": 2,
          "midi": 82,
          "name": "A#5",
          "ticks": 69120,
          "time": 168.75,
          "velocity": 0.47244094488188976
        },
        {
          "duration": 0.0048828125,
          "durationTicks": 2,
          "midi": 55,
          "name": "G3",
          "ticks": 69120,
          "time": 168.75,
          "velocity": 0.7165354330708661
        },
        {
          "duration": 0.0048828125,
          "durationTicks": 2,
          "midi": 42,
          "name": "F#2",
          "ticks": 69120,
          "time": 168.75,
          "velocity": 0.8110236220472441
        },
        {
          "duration": 0.0048828125,
          "durationTicks": 2,
          "midi": 42,
          "name": "F#2",
          "ticks": 69168,
          "time": 168.8671875,
          "velocity": 0.2755905511811024
        },
        {
          "duration": 0.0048828125,
          "durationTicks": 2,
          "midi": 82,
          "name": "A#5",
          "ticks": 69216,
          "time": 168.984375,
          "velocity": 0.3937007874015748
        },
        {
          "duration": 0.0048828125,
          "durationTicks": 2,
          "midi": 73,
          "name": "C#5",
          "ticks": 69216,
          "time": 168.984375,
          "velocity": 0.7795275590551181
        },
        {
          "duration": 0.0048828125,
          "durationTicks": 2,
          "midi": 42,
          "name": "F#2",
          "ticks": 69216,
          "time": 168.984375,
          "velocity": 0.3464566929133858
        },
        {
          "duration": 0.0048828125,
          "durationTicks": 2,
          "midi": 73,
          "name": "C#5",
          "ticks": 69264,
          "time": 169.1015625,
          "velocity": 0.6850393700787402
        },
        {
          "duration": 0.0048828125,
          "durationTicks": 2,
          "midi": 42,
          "name": "F#2",
          "ticks": 69264,
          "time": 169.1015625,
          "velocity": 0.5275590551181102
        },
        {
          "duration": 0.0048828125,
          "durationTicks": 2,
          "midi": 82,
          "name": "A#5",
          "ticks": 69312,
          "time": 169.21875,
          "velocity": 0.3858267716535433
        },
        {
          "duration": 0.0048828125,
          "durationTicks": 2,
          "midi": 73,
          "name": "C#5",
          "ticks": 69312,
          "time": 169.21875,
          "velocity": 0.5590551181102362
        },
        {
          "duration": 0.0048828125,
          "durationTicks": 2,
          "midi": 42,
          "name": "F#2",
          "ticks": 69312,
          "time": 169.21875,
          "velocity": 0.8110236220472441
        },
        {
          "duration": 0.0048828125,
          "durationTicks": 2,
          "midi": 42,
          "name": "F#2",
          "ticks": 69360,
          "time": 169.3359375,
          "velocity": 0.3464566929133858
        },
        {
          "duration": 0.0048828125,
          "durationTicks": 2,
          "midi": 82,
          "name": "A#5",
          "ticks": 69408,
          "time": 169.453125,
          "velocity": 0.3700787401574803
        },
        {
          "duration": 0.0048828125,
          "durationTicks": 2,
          "midi": 73,
          "name": "C#5",
          "ticks": 69408,
          "time": 169.453125,
          "velocity": 0.8661417322834646
        },
        {
          "duration": 0.0048828125,
          "durationTicks": 2,
          "midi": 42,
          "name": "F#2",
          "ticks": 69408,
          "time": 169.453125,
          "velocity": 0.2047244094488189
        },
        {
          "duration": 0.0048828125,
          "durationTicks": 2,
          "midi": 42,
          "name": "F#2",
          "ticks": 69456,
          "time": 169.5703125,
          "velocity": 0.5984251968503937
        },
        {
          "duration": 0.0048828125,
          "durationTicks": 2,
          "midi": 82,
          "name": "A#5",
          "ticks": 69504,
          "time": 169.6875,
          "velocity": 0.3700787401574803
        },
        {
          "duration": 0.0048828125,
          "durationTicks": 2,
          "midi": 73,
          "name": "C#5",
          "ticks": 69504,
          "time": 169.6875,
          "velocity": 0.6850393700787402
        },
        {
          "duration": 0.0048828125,
          "durationTicks": 2,
          "midi": 69,
          "name": "A4",
          "ticks": 69504,
          "time": 169.6875,
          "velocity": 0.4409448818897638
        },
        {
          "duration": 0.0048828125,
          "durationTicks": 2,
          "midi": 42,
          "name": "F#2",
          "ticks": 69504,
          "time": 169.6875,
          "velocity": 0.7795275590551181
        },
        {
          "duration": 0.0048828125,
          "durationTicks": 2,
          "midi": 42,
          "name": "F#2",
          "ticks": 69552,
          "time": 169.8046875,
          "velocity": 0.2755905511811024
        },
        {
          "duration": 0.0048828125,
          "durationTicks": 2,
          "midi": 69,
          "name": "A4",
          "ticks": 69600,
          "time": 169.921875,
          "velocity": 0.47244094488188976
        },
        {
          "duration": 0.0048828125,
          "durationTicks": 2,
          "midi": 42,
          "name": "F#2",
          "ticks": 69600,
          "time": 169.921875,
          "velocity": 0.2047244094488189
        },
        {
          "duration": 0.0048828125,
          "durationTicks": 2,
          "midi": 42,
          "name": "F#2",
          "ticks": 69648,
          "time": 170.0390625,
          "velocity": 0.6692913385826772
        },
        {
          "duration": 0.0048828125,
          "durationTicks": 2,
          "midi": 69,
          "name": "A4",
          "ticks": 69696,
          "time": 170.15625,
          "velocity": 0.5196850393700787
        },
        {
          "duration": 0.0048828125,
          "durationTicks": 2,
          "midi": 42,
          "name": "F#2",
          "ticks": 69696,
          "time": 170.15625,
          "velocity": 0.7795275590551181
        },
        {
          "duration": 0.0048828125,
          "durationTicks": 2,
          "midi": 42,
          "name": "F#2",
          "ticks": 69744,
          "time": 170.2734375,
          "velocity": 0.30708661417322836
        },
        {
          "duration": 0.0048828125,
          "durationTicks": 2,
          "midi": 69,
          "name": "A4",
          "ticks": 69792,
          "time": 170.390625,
          "velocity": 0.5748031496062992
        },
        {
          "duration": 0.0048828125,
          "durationTicks": 2,
          "midi": 42,
          "name": "F#2",
          "ticks": 69792,
          "time": 170.390625,
          "velocity": 0.30708661417322836
        },
        {
          "duration": 0.0048828125,
          "durationTicks": 2,
          "midi": 42,
          "name": "F#2",
          "ticks": 69840,
          "time": 170.5078125,
          "velocity": 0.5275590551181102
        },
        {
          "duration": 0.0048828125,
          "durationTicks": 2,
          "midi": 82,
          "name": "A#5",
          "ticks": 69888,
          "time": 170.625,
          "velocity": 0.4015748031496063
        },
        {
          "duration": 0.0048828125,
          "durationTicks": 2,
          "midi": 42,
          "name": "F#2",
          "ticks": 69888,
          "time": 170.625,
          "velocity": 0.7086614173228346
        },
        {
          "duration": 0.0048828125,
          "durationTicks": 2,
          "midi": 42,
          "name": "F#2",
          "ticks": 69936,
          "time": 170.7421875,
          "velocity": 0.30708661417322836
        },
        {
          "duration": 0.0048828125,
          "durationTicks": 2,
          "midi": 82,
          "name": "A#5",
          "ticks": 69984,
          "time": 170.859375,
          "velocity": 0.3937007874015748
        },
        {
          "duration": 0.0048828125,
          "durationTicks": 2,
          "midi": 73,
          "name": "C#5",
          "ticks": 69984,
          "time": 170.859375,
          "velocity": 0.7165354330708661
        },
        {
          "duration": 0.0048828125,
          "durationTicks": 2,
          "midi": 42,
          "name": "F#2",
          "ticks": 69984,
          "time": 170.859375,
          "velocity": 0.30708661417322836
        },
        {
          "duration": 0.0048828125,
          "durationTicks": 2,
          "midi": 73,
          "name": "C#5",
          "ticks": 70032,
          "time": 170.9765625,
          "velocity": 0.6377952755905512
        },
        {
          "duration": 0.0048828125,
          "durationTicks": 2,
          "midi": 42,
          "name": "F#2",
          "ticks": 70032,
          "time": 170.9765625,
          "velocity": 0.5984251968503937
        },
        {
          "duration": 0.0048828125,
          "durationTicks": 2,
          "midi": 82,
          "name": "A#5",
          "ticks": 70080,
          "time": 171.09375,
          "velocity": 0.4015748031496063
        },
        {
          "duration": 0.0048828125,
          "durationTicks": 2,
          "midi": 73,
          "name": "C#5",
          "ticks": 70080,
          "time": 171.09375,
          "velocity": 0.47244094488188976
        },
        {
          "duration": 0.0048828125,
          "durationTicks": 2,
          "midi": 42,
          "name": "F#2",
          "ticks": 70080,
          "time": 171.09375,
          "velocity": 0.7795275590551181
        },
        {
          "duration": 0.0048828125,
          "durationTicks": 2,
          "midi": 42,
          "name": "F#2",
          "ticks": 70128,
          "time": 171.2109375,
          "velocity": 0.3464566929133858
        },
        {
          "duration": 0.0048828125,
          "durationTicks": 2,
          "midi": 82,
          "name": "A#5",
          "ticks": 70176,
          "time": 171.328125,
          "velocity": 0.4409448818897638
        },
        {
          "duration": 0.0048828125,
          "durationTicks": 2,
          "midi": 73,
          "name": "C#5",
          "ticks": 70176,
          "time": 171.328125,
          "velocity": 0.84251968503937
        },
        {
          "duration": 0.0048828125,
          "durationTicks": 2,
          "midi": 42,
          "name": "F#2",
          "ticks": 70176,
          "time": 171.328125,
          "velocity": 0.23622047244094488
        },
        {
          "duration": 0.0048828125,
          "durationTicks": 2,
          "midi": 42,
          "name": "F#2",
          "ticks": 70224,
          "time": 171.4453125,
          "velocity": 0.5984251968503937
        },
        {
          "duration": 0.0048828125,
          "durationTicks": 2,
          "midi": 82,
          "name": "A#5",
          "ticks": 70272,
          "time": 171.5625,
          "velocity": 0.4409448818897638
        },
        {
          "duration": 0.0048828125,
          "durationTicks": 2,
          "midi": 73,
          "name": "C#5",
          "ticks": 70272,
          "time": 171.5625,
          "velocity": 0.6850393700787402
        },
        {
          "duration": 0.0048828125,
          "durationTicks": 2,
          "midi": 69,
          "name": "A4",
          "ticks": 70272,
          "time": 171.5625,
          "velocity": 0.5511811023622047
        },
        {
          "duration": 0.0048828125,
          "durationTicks": 2,
          "midi": 42,
          "name": "F#2",
          "ticks": 70272,
          "time": 171.5625,
          "velocity": 0.7795275590551181
        },
        {
          "duration": 0.0048828125,
          "durationTicks": 2,
          "midi": 42,
          "name": "F#2",
          "ticks": 70320,
          "time": 171.6796875,
          "velocity": 0.3464566929133858
        },
        {
          "duration": 0.0048828125,
          "durationTicks": 2,
          "midi": 69,
          "name": "A4",
          "ticks": 70368,
          "time": 171.796875,
          "velocity": 0.5039370078740157
        },
        {
          "duration": 0.0048828125,
          "durationTicks": 2,
          "midi": 46,
          "name": "A#2",
          "ticks": 70368,
          "time": 171.796875,
          "velocity": 0.7795275590551181
        },
        {
          "duration": 0.0048828125,
          "durationTicks": 2,
          "midi": 69,
          "name": "A4",
          "ticks": 70464,
          "time": 172.03125,
          "velocity": 0.47244094488188976
        },
        {
          "duration": 0.0048828125,
          "durationTicks": 2,
          "midi": 42,
          "name": "F#2",
          "ticks": 70464,
          "time": 172.03125,
          "velocity": 0.7795275590551181
        },
        {
          "duration": 0.0048828125,
          "durationTicks": 2,
          "midi": 42,
          "name": "F#2",
          "ticks": 70512,
          "time": 172.1484375,
          "velocity": 0.4881889763779528
        },
        {
          "duration": 0.0048828125,
          "durationTicks": 2,
          "midi": 69,
          "name": "A4",
          "ticks": 70560,
          "time": 172.265625,
          "velocity": 0.5354330708661418
        },
        {
          "duration": 0.0048828125,
          "durationTicks": 2,
          "midi": 46,
          "name": "A#2",
          "ticks": 70560,
          "time": 172.265625,
          "velocity": 0.7795275590551181
        },
        {
          "duration": 0.0048828125,
          "durationTicks": 2,
          "midi": 82,
          "name": "A#5",
          "ticks": 70656,
          "time": 172.5,
          "velocity": 0.4409448818897638
        },
        {
          "duration": 0.0048828125,
          "durationTicks": 2,
          "midi": 42,
          "name": "F#2",
          "ticks": 70656,
          "time": 172.5,
          "velocity": 0.8110236220472441
        },
        {
          "duration": 0.0048828125,
          "durationTicks": 2,
          "midi": 42,
          "name": "F#2",
          "ticks": 70704,
          "time": 172.6171875,
          "velocity": 0.2755905511811024
        },
        {
          "duration": 0.0048828125,
          "durationTicks": 2,
          "midi": 82,
          "name": "A#5",
          "ticks": 70752,
          "time": 172.734375,
          "velocity": 0.5039370078740157
        },
        {
          "duration": 0.0048828125,
          "durationTicks": 2,
          "midi": 73,
          "name": "C#5",
          "ticks": 70752,
          "time": 172.734375,
          "velocity": 0.84251968503937
        },
        {
          "duration": 0.0048828125,
          "durationTicks": 2,
          "midi": 42,
          "name": "F#2",
          "ticks": 70752,
          "time": 172.734375,
          "velocity": 0.3464566929133858
        },
        {
          "duration": 0.0048828125,
          "durationTicks": 2,
          "midi": 73,
          "name": "C#5",
          "ticks": 70800,
          "time": 172.8515625,
          "velocity": 0.6377952755905512
        },
        {
          "duration": 0.0048828125,
          "durationTicks": 2,
          "midi": 42,
          "name": "F#2",
          "ticks": 70800,
          "time": 172.8515625,
          "velocity": 0.5275590551181102
        },
        {
          "duration": 0.0048828125,
          "durationTicks": 2,
          "midi": 82,
          "name": "A#5",
          "ticks": 70848,
          "time": 172.96875,
          "velocity": 0.4330708661417323
        },
        {
          "duration": 0.0048828125,
          "durationTicks": 2,
          "midi": 73,
          "name": "C#5",
          "ticks": 70848,
          "time": 172.96875,
          "velocity": 0.5433070866141733
        },
        {
          "duration": 0.0048828125,
          "durationTicks": 2,
          "midi": 42,
          "name": "F#2",
          "ticks": 70848,
          "time": 172.96875,
          "velocity": 0.8110236220472441
        },
        {
          "duration": 0.0048828125,
          "durationTicks": 2,
          "midi": 42,
          "name": "F#2",
          "ticks": 70896,
          "time": 173.0859375,
          "velocity": 0.3464566929133858
        },
        {
          "duration": 0.0048828125,
          "durationTicks": 2,
          "midi": 82,
          "name": "A#5",
          "ticks": 70944,
          "time": 173.203125,
          "velocity": 0.5354330708661418
        },
        {
          "duration": 0.0048828125,
          "durationTicks": 2,
          "midi": 73,
          "name": "C#5",
          "ticks": 70944,
          "time": 173.203125,
          "velocity": 0.84251968503937
        },
        {
          "duration": 0.0048828125,
          "durationTicks": 2,
          "midi": 42,
          "name": "F#2",
          "ticks": 70944,
          "time": 173.203125,
          "velocity": 0.2047244094488189
        },
        {
          "duration": 0.0048828125,
          "durationTicks": 2,
          "midi": 42,
          "name": "F#2",
          "ticks": 70992,
          "time": 173.3203125,
          "velocity": 0.5984251968503937
        },
        {
          "duration": 0.0048828125,
          "durationTicks": 2,
          "midi": 82,
          "name": "A#5",
          "ticks": 71040,
          "time": 173.4375,
          "velocity": 0.5354330708661418
        },
        {
          "duration": 0.0048828125,
          "durationTicks": 2,
          "midi": 73,
          "name": "C#5",
          "ticks": 71040,
          "time": 173.4375,
          "velocity": 0.6377952755905512
        },
        {
          "duration": 0.0048828125,
          "durationTicks": 2,
          "midi": 69,
          "name": "A4",
          "ticks": 71040,
          "time": 173.4375,
          "velocity": 0.5748031496062992
        },
        {
          "duration": 0.0048828125,
          "durationTicks": 2,
          "midi": 42,
          "name": "F#2",
          "ticks": 71040,
          "time": 173.4375,
          "velocity": 0.7795275590551181
        },
        {
          "duration": 0.0048828125,
          "durationTicks": 2,
          "midi": 42,
          "name": "F#2",
          "ticks": 71088,
          "time": 173.5546875,
          "velocity": 0.2755905511811024
        },
        {
          "duration": 0.0048828125,
          "durationTicks": 2,
          "midi": 69,
          "name": "A4",
          "ticks": 71136,
          "time": 173.671875,
          "velocity": 0.5748031496062992
        },
        {
          "duration": 0.0048828125,
          "durationTicks": 2,
          "midi": 42,
          "name": "F#2",
          "ticks": 71136,
          "time": 173.671875,
          "velocity": 0.2047244094488189
        },
        {
          "duration": 0.0048828125,
          "durationTicks": 2,
          "midi": 42,
          "name": "F#2",
          "ticks": 71184,
          "time": 173.7890625,
          "velocity": 0.6692913385826772
        },
        {
          "duration": 0.0048828125,
          "durationTicks": 2,
          "midi": 69,
          "name": "A4",
          "ticks": 71232,
          "time": 173.90625,
          "velocity": 0.5511811023622047
        },
        {
          "duration": 0.0048828125,
          "durationTicks": 2,
          "midi": 42,
          "name": "F#2",
          "ticks": 71232,
          "time": 173.90625,
          "velocity": 0.7795275590551181
        },
        {
          "duration": 0.0048828125,
          "durationTicks": 2,
          "midi": 42,
          "name": "F#2",
          "ticks": 71280,
          "time": 174.0234375,
          "velocity": 0.30708661417322836
        },
        {
          "duration": 0.0048828125,
          "durationTicks": 2,
          "midi": 69,
          "name": "A4",
          "ticks": 71328,
          "time": 174.140625,
          "velocity": 0.5511811023622047
        },
        {
          "duration": 0.0048828125,
          "durationTicks": 2,
          "midi": 42,
          "name": "F#2",
          "ticks": 71328,
          "time": 174.140625,
          "velocity": 0.30708661417322836
        },
        {
          "duration": 0.0048828125,
          "durationTicks": 2,
          "midi": 42,
          "name": "F#2",
          "ticks": 71376,
          "time": 174.2578125,
          "velocity": 0.5275590551181102
        },
        {
          "duration": 0.0048828125,
          "durationTicks": 2,
          "midi": 82,
          "name": "A#5",
          "ticks": 71424,
          "time": 174.375,
          "velocity": 0.47244094488188976
        },
        {
          "duration": 0.0048828125,
          "durationTicks": 2,
          "midi": 42,
          "name": "F#2",
          "ticks": 71424,
          "time": 174.375,
          "velocity": 0.7086614173228346
        },
        {
          "duration": 0.0048828125,
          "durationTicks": 2,
          "midi": 42,
          "name": "F#2",
          "ticks": 71472,
          "time": 174.4921875,
          "velocity": 0.30708661417322836
        },
        {
          "duration": 0.0048828125,
          "durationTicks": 2,
          "midi": 82,
          "name": "A#5",
          "ticks": 71520,
          "time": 174.609375,
          "velocity": 0.4409448818897638
        },
        {
          "duration": 0.0048828125,
          "durationTicks": 2,
          "midi": 73,
          "name": "C#5",
          "ticks": 71520,
          "time": 174.609375,
          "velocity": 0.7165354330708661
        },
        {
          "duration": 0.0048828125,
          "durationTicks": 2,
          "midi": 42,
          "name": "F#2",
          "ticks": 71520,
          "time": 174.609375,
          "velocity": 0.30708661417322836
        },
        {
          "duration": 0.0048828125,
          "durationTicks": 2,
          "midi": 73,
          "name": "C#5",
          "ticks": 71568,
          "time": 174.7265625,
          "velocity": 0.6850393700787402
        },
        {
          "duration": 0.0048828125,
          "durationTicks": 2,
          "midi": 42,
          "name": "F#2",
          "ticks": 71568,
          "time": 174.7265625,
          "velocity": 0.5984251968503937
        },
        {
          "duration": 0.0048828125,
          "durationTicks": 2,
          "midi": 82,
          "name": "A#5",
          "ticks": 71616,
          "time": 174.84375,
          "velocity": 0.49606299212598426
        },
        {
          "duration": 0.0048828125,
          "durationTicks": 2,
          "midi": 73,
          "name": "C#5",
          "ticks": 71616,
          "time": 174.84375,
          "velocity": 0.6377952755905512
        },
        {
          "duration": 0.0048828125,
          "durationTicks": 2,
          "midi": 42,
          "name": "F#2",
          "ticks": 71616,
          "time": 174.84375,
          "velocity": 0.7795275590551181
        },
        {
          "duration": 0.0048828125,
          "durationTicks": 2,
          "midi": 42,
          "name": "F#2",
          "ticks": 71664,
          "time": 174.9609375,
          "velocity": 0.3464566929133858
        },
        {
          "duration": 0.0048828125,
          "durationTicks": 2,
          "midi": 82,
          "name": "A#5",
          "ticks": 71712,
          "time": 175.078125,
          "velocity": 0.49606299212598426
        },
        {
          "duration": 0.0048828125,
          "durationTicks": 2,
          "midi": 73,
          "name": "C#5",
          "ticks": 71712,
          "time": 175.078125,
          "velocity": 0.9133858267716536
        },
        {
          "duration": 0.0048828125,
          "durationTicks": 2,
          "midi": 46,
          "name": "A#2",
          "ticks": 71712,
          "time": 175.078125,
          "velocity": 0.7795275590551181
        },
        {
          "duration": 0.0048828125,
          "durationTicks": 2,
          "midi": 82,
          "name": "A#5",
          "ticks": 71808,
          "time": 175.3125,
          "velocity": 0.2992125984251969
        },
        {
          "duration": 0.0048828125,
          "durationTicks": 2,
          "midi": 73,
          "name": "C#5",
          "ticks": 71808,
          "time": 175.3125,
          "velocity": 0.6850393700787402
        },
        {
          "duration": 0.0048828125,
          "durationTicks": 2,
          "midi": 69,
          "name": "A4",
          "ticks": 71808,
          "time": 175.3125,
          "velocity": 0.5984251968503937
        },
        {
          "duration": 0.0048828125,
          "durationTicks": 2,
          "midi": 42,
          "name": "F#2",
          "ticks": 71808,
          "time": 175.3125,
          "velocity": 0.7795275590551181
        },
        {
          "duration": 0.0048828125,
          "durationTicks": 2,
          "midi": 42,
          "name": "F#2",
          "ticks": 71856,
          "time": 175.4296875,
          "velocity": 0.3464566929133858
        },
        {
          "duration": 0.0048828125,
          "durationTicks": 2,
          "midi": 69,
          "name": "A4",
          "ticks": 71904,
          "time": 175.546875,
          "velocity": 0.5354330708661418
        },
        {
          "duration": 0.0048828125,
          "durationTicks": 2,
          "midi": 46,
          "name": "A#2",
          "ticks": 71904,
          "time": 175.546875,
          "velocity": 0.7795275590551181
        },
        {
          "duration": 0.0048828125,
          "durationTicks": 2,
          "midi": 69,
          "name": "A4",
          "ticks": 72000,
          "time": 175.78125,
          "velocity": 0.5511811023622047
        },
        {
          "duration": 0.0048828125,
          "durationTicks": 2,
          "midi": 42,
          "name": "F#2",
          "ticks": 72000,
          "time": 175.78125,
          "velocity": 0.7795275590551181
        },
        {
          "duration": 0.0048828125,
          "durationTicks": 2,
          "midi": 42,
          "name": "F#2",
          "ticks": 72048,
          "time": 175.8984375,
          "velocity": 0.4881889763779528
        },
        {
          "duration": 0.0048828125,
          "durationTicks": 2,
          "midi": 69,
          "name": "A4",
          "ticks": 72096,
          "time": 176.015625,
          "velocity": 0.5984251968503937
        },
        {
          "duration": 0.0048828125,
          "durationTicks": 2,
          "midi": 46,
          "name": "A#2",
          "ticks": 72096,
          "time": 176.015625,
          "velocity": 0.7795275590551181
        },
        {
          "duration": 0.0048828125,
          "durationTicks": 2,
          "midi": 82,
          "name": "A#5",
          "ticks": 72192,
          "time": 176.25,
          "velocity": 0.47244094488188976
        },
        {
          "duration": 0.0048828125,
          "durationTicks": 2,
          "midi": 42,
          "name": "F#2",
          "ticks": 72192,
          "time": 176.25,
          "velocity": 0.8110236220472441
        },
        {
          "duration": 0.0048828125,
          "durationTicks": 2,
          "midi": 35,
          "name": "B1",
          "ticks": 72192,
          "time": 176.25,
          "velocity": 1
        },
        {
          "duration": 0.0048828125,
          "durationTicks": 2,
          "midi": 42,
          "name": "F#2",
          "ticks": 72240,
          "time": 176.3671875,
          "velocity": 0.2755905511811024
        },
        {
          "duration": 0.0048828125,
          "durationTicks": 2,
          "midi": 82,
          "name": "A#5",
          "ticks": 72288,
          "time": 176.484375,
          "velocity": 0.3937007874015748
        },
        {
          "duration": 0.0048828125,
          "durationTicks": 2,
          "midi": 73,
          "name": "C#5",
          "ticks": 72288,
          "time": 176.484375,
          "velocity": 0.7795275590551181
        },
        {
          "duration": 0.0048828125,
          "durationTicks": 2,
          "midi": 42,
          "name": "F#2",
          "ticks": 72288,
          "time": 176.484375,
          "velocity": 0.3464566929133858
        },
        {
          "duration": 0.0048828125,
          "durationTicks": 2,
          "midi": 73,
          "name": "C#5",
          "ticks": 72336,
          "time": 176.6015625,
          "velocity": 0.6850393700787402
        },
        {
          "duration": 0.0048828125,
          "durationTicks": 2,
          "midi": 42,
          "name": "F#2",
          "ticks": 72336,
          "time": 176.6015625,
          "velocity": 0.5275590551181102
        },
        {
          "duration": 0.0048828125,
          "durationTicks": 2,
          "midi": 82,
          "name": "A#5",
          "ticks": 72384,
          "time": 176.71875,
          "velocity": 0.3858267716535433
        },
        {
          "duration": 0.0048828125,
          "durationTicks": 2,
          "midi": 73,
          "name": "C#5",
          "ticks": 72384,
          "time": 176.71875,
          "velocity": 0.5590551181102362
        },
        {
          "duration": 0.0048828125,
          "durationTicks": 2,
          "midi": 42,
          "name": "F#2",
          "ticks": 72384,
          "time": 176.71875,
          "velocity": 0.8110236220472441
        },
        {
          "duration": 0.0048828125,
          "durationTicks": 2,
          "midi": 35,
          "name": "B1",
          "ticks": 72384,
          "time": 176.71875,
          "velocity": 1
        },
        {
          "duration": 0.0048828125,
          "durationTicks": 2,
          "midi": 42,
          "name": "F#2",
          "ticks": 72432,
          "time": 176.8359375,
          "velocity": 0.3464566929133858
        },
        {
          "duration": 0.0048828125,
          "durationTicks": 2,
          "midi": 82,
          "name": "A#5",
          "ticks": 72480,
          "time": 176.953125,
          "velocity": 0.3700787401574803
        },
        {
          "duration": 0.0048828125,
          "durationTicks": 2,
          "midi": 73,
          "name": "C#5",
          "ticks": 72480,
          "time": 176.953125,
          "velocity": 0.8661417322834646
        },
        {
          "duration": 0.0048828125,
          "durationTicks": 2,
          "midi": 42,
          "name": "F#2",
          "ticks": 72480,
          "time": 176.953125,
          "velocity": 0.2047244094488189
        },
        {
          "duration": 0.0048828125,
          "durationTicks": 2,
          "midi": 42,
          "name": "F#2",
          "ticks": 72528,
          "time": 177.0703125,
          "velocity": 0.5984251968503937
        },
        {
          "duration": 0.0048828125,
          "durationTicks": 2,
          "midi": 82,
          "name": "A#5",
          "ticks": 72576,
          "time": 177.1875,
          "velocity": 0.3700787401574803
        },
        {
          "duration": 0.0048828125,
          "durationTicks": 2,
          "midi": 73,
          "name": "C#5",
          "ticks": 72576,
          "time": 177.1875,
          "velocity": 0.6850393700787402
        },
        {
          "duration": 0.0048828125,
          "durationTicks": 2,
          "midi": 69,
          "name": "A4",
          "ticks": 72576,
          "time": 177.1875,
          "velocity": 0.4409448818897638
        },
        {
          "duration": 0.0048828125,
          "durationTicks": 2,
          "midi": 42,
          "name": "F#2",
          "ticks": 72576,
          "time": 177.1875,
          "velocity": 0.7795275590551181
        },
        {
          "duration": 0.0048828125,
          "durationTicks": 2,
          "midi": 35,
          "name": "B1",
          "ticks": 72576,
          "time": 177.1875,
          "velocity": 1
        },
        {
          "duration": 0.0048828125,
          "durationTicks": 2,
          "midi": 42,
          "name": "F#2",
          "ticks": 72624,
          "time": 177.3046875,
          "velocity": 0.2755905511811024
        },
        {
          "duration": 0.0048828125,
          "durationTicks": 2,
          "midi": 69,
          "name": "A4",
          "ticks": 72672,
          "time": 177.421875,
          "velocity": 0.47244094488188976
        },
        {
          "duration": 0.0048828125,
          "durationTicks": 2,
          "midi": 42,
          "name": "F#2",
          "ticks": 72672,
          "time": 177.421875,
          "velocity": 0.2047244094488189
        },
        {
          "duration": 0.0048828125,
          "durationTicks": 2,
          "midi": 42,
          "name": "F#2",
          "ticks": 72720,
          "time": 177.5390625,
          "velocity": 0.6692913385826772
        },
        {
          "duration": 0.0048828125,
          "durationTicks": 2,
          "midi": 69,
          "name": "A4",
          "ticks": 72768,
          "time": 177.65625,
          "velocity": 0.5196850393700787
        },
        {
          "duration": 0.0048828125,
          "durationTicks": 2,
          "midi": 42,
          "name": "F#2",
          "ticks": 72768,
          "time": 177.65625,
          "velocity": 0.7795275590551181
        },
        {
          "duration": 0.0048828125,
          "durationTicks": 2,
          "midi": 35,
          "name": "B1",
          "ticks": 72768,
          "time": 177.65625,
          "velocity": 1
        },
        {
          "duration": 0.0048828125,
          "durationTicks": 2,
          "midi": 42,
          "name": "F#2",
          "ticks": 72816,
          "time": 177.7734375,
          "velocity": 0.30708661417322836
        },
        {
          "duration": 0.0048828125,
          "durationTicks": 2,
          "midi": 69,
          "name": "A4",
          "ticks": 72864,
          "time": 177.890625,
          "velocity": 0.5748031496062992
        },
        {
          "duration": 0.0048828125,
          "durationTicks": 2,
          "midi": 42,
          "name": "F#2",
          "ticks": 72864,
          "time": 177.890625,
          "velocity": 0.30708661417322836
        },
        {
          "duration": 0.0048828125,
          "durationTicks": 2,
          "midi": 42,
          "name": "F#2",
          "ticks": 72912,
          "time": 178.0078125,
          "velocity": 0.5275590551181102
        },
        {
          "duration": 0.0048828125,
          "durationTicks": 2,
          "midi": 82,
          "name": "A#5",
          "ticks": 72960,
          "time": 178.125,
          "velocity": 0.4015748031496063
        },
        {
          "duration": 0.0048828125,
          "durationTicks": 2,
          "midi": 42,
          "name": "F#2",
          "ticks": 72960,
          "time": 178.125,
          "velocity": 0.7086614173228346
        },
        {
          "duration": 0.0048828125,
          "durationTicks": 2,
          "midi": 35,
          "name": "B1",
          "ticks": 72960,
          "time": 178.125,
          "velocity": 1
        },
        {
          "duration": 0.0048828125,
          "durationTicks": 2,
          "midi": 42,
          "name": "F#2",
          "ticks": 73008,
          "time": 178.2421875,
          "velocity": 0.30708661417322836
        },
        {
          "duration": 0.0048828125,
          "durationTicks": 2,
          "midi": 82,
          "name": "A#5",
          "ticks": 73056,
          "time": 178.359375,
          "velocity": 0.3937007874015748
        },
        {
          "duration": 0.0048828125,
          "durationTicks": 2,
          "midi": 73,
          "name": "C#5",
          "ticks": 73056,
          "time": 178.359375,
          "velocity": 0.7165354330708661
        },
        {
          "duration": 0.0048828125,
          "durationTicks": 2,
          "midi": 42,
          "name": "F#2",
          "ticks": 73056,
          "time": 178.359375,
          "velocity": 0.30708661417322836
        },
        {
          "duration": 0.0048828125,
          "durationTicks": 2,
          "midi": 73,
          "name": "C#5",
          "ticks": 73104,
          "time": 178.4765625,
          "velocity": 0.6377952755905512
        },
        {
          "duration": 0.0048828125,
          "durationTicks": 2,
          "midi": 42,
          "name": "F#2",
          "ticks": 73104,
          "time": 178.4765625,
          "velocity": 0.5984251968503937
        },
        {
          "duration": 0.0048828125,
          "durationTicks": 2,
          "midi": 82,
          "name": "A#5",
          "ticks": 73152,
          "time": 178.59375,
          "velocity": 0.4015748031496063
        },
        {
          "duration": 0.0048828125,
          "durationTicks": 2,
          "midi": 73,
          "name": "C#5",
          "ticks": 73152,
          "time": 178.59375,
          "velocity": 0.47244094488188976
        },
        {
          "duration": 0.0048828125,
          "durationTicks": 2,
          "midi": 42,
          "name": "F#2",
          "ticks": 73152,
          "time": 178.59375,
          "velocity": 0.7795275590551181
        },
        {
          "duration": 0.0048828125,
          "durationTicks": 2,
          "midi": 35,
          "name": "B1",
          "ticks": 73152,
          "time": 178.59375,
          "velocity": 1
        },
        {
          "duration": 0.0048828125,
          "durationTicks": 2,
          "midi": 42,
          "name": "F#2",
          "ticks": 73200,
          "time": 178.7109375,
          "velocity": 0.3464566929133858
        },
        {
          "duration": 0.0048828125,
          "durationTicks": 2,
          "midi": 82,
          "name": "A#5",
          "ticks": 73248,
          "time": 178.828125,
          "velocity": 0.4409448818897638
        },
        {
          "duration": 0.0048828125,
          "durationTicks": 2,
          "midi": 73,
          "name": "C#5",
          "ticks": 73248,
          "time": 178.828125,
          "velocity": 0.84251968503937
        },
        {
          "duration": 0.0048828125,
          "durationTicks": 2,
          "midi": 46,
          "name": "A#2",
          "ticks": 73248,
          "time": 178.828125,
          "velocity": 0.7795275590551181
        },
        {
          "duration": 0.0048828125,
          "durationTicks": 2,
          "midi": 82,
          "name": "A#5",
          "ticks": 73344,
          "time": 179.0625,
          "velocity": 0.4409448818897638
        },
        {
          "duration": 0.0048828125,
          "durationTicks": 2,
          "midi": 73,
          "name": "C#5",
          "ticks": 73344,
          "time": 179.0625,
          "velocity": 0.6850393700787402
        },
        {
          "duration": 0.0048828125,
          "durationTicks": 2,
          "midi": 69,
          "name": "A4",
          "ticks": 73344,
          "time": 179.0625,
          "velocity": 0.5511811023622047
        },
        {
          "duration": 0.0048828125,
          "durationTicks": 2,
          "midi": 42,
          "name": "F#2",
          "ticks": 73344,
          "time": 179.0625,
          "velocity": 0.7795275590551181
        },
        {
          "duration": 0.0048828125,
          "durationTicks": 2,
          "midi": 35,
          "name": "B1",
          "ticks": 73344,
          "time": 179.0625,
          "velocity": 1
        },
        {
          "duration": 0.0048828125,
          "durationTicks": 2,
          "midi": 42,
          "name": "F#2",
          "ticks": 73392,
          "time": 179.1796875,
          "velocity": 0.3464566929133858
        },
        {
          "duration": 0.0048828125,
          "durationTicks": 2,
          "midi": 69,
          "name": "A4",
          "ticks": 73440,
          "time": 179.296875,
          "velocity": 0.5039370078740157
        },
        {
          "duration": 0.0048828125,
          "durationTicks": 2,
          "midi": 46,
          "name": "A#2",
          "ticks": 73440,
          "time": 179.296875,
          "velocity": 0.7086614173228346
        },
        {
          "duration": 0.0048828125,
          "durationTicks": 2,
          "midi": 69,
          "name": "A4",
          "ticks": 73536,
          "time": 179.53125,
          "velocity": 0.47244094488188976
        },
        {
          "duration": 0.0048828125,
          "durationTicks": 2,
          "midi": 42,
          "name": "F#2",
          "ticks": 73536,
          "time": 179.53125,
          "velocity": 0.7795275590551181
        },
        {
          "duration": 0.0048828125,
          "durationTicks": 2,
          "midi": 35,
          "name": "B1",
          "ticks": 73536,
          "time": 179.53125,
          "velocity": 1
        },
        {
          "duration": 0.0048828125,
          "durationTicks": 2,
          "midi": 42,
          "name": "F#2",
          "ticks": 73584,
          "time": 179.6484375,
          "velocity": 0.4881889763779528
        },
        {
          "duration": 0.0048828125,
          "durationTicks": 2,
          "midi": 69,
          "name": "A4",
          "ticks": 73632,
          "time": 179.765625,
          "velocity": 0.5354330708661418
        },
        {
          "duration": 0.0048828125,
          "durationTicks": 2,
          "midi": 46,
          "name": "A#2",
          "ticks": 73632,
          "time": 179.765625,
          "velocity": 0.7795275590551181
        },
        {
          "duration": 0.0048828125,
          "durationTicks": 2,
          "midi": 82,
          "name": "A#5",
          "ticks": 73728,
          "time": 180,
          "velocity": 0.4409448818897638
        },
        {
          "duration": 0.0048828125,
          "durationTicks": 2,
          "midi": 42,
          "name": "F#2",
          "ticks": 73728,
          "time": 180,
          "velocity": 0.8110236220472441
        },
        {
          "duration": 0.0048828125,
          "durationTicks": 2,
          "midi": 35,
          "name": "B1",
          "ticks": 73728,
          "time": 180,
          "velocity": 1
        },
        {
          "duration": 0.0048828125,
          "durationTicks": 2,
          "midi": 42,
          "name": "F#2",
          "ticks": 73776,
          "time": 180.1171875,
          "velocity": 0.2755905511811024
        },
        {
          "duration": 0.0048828125,
          "durationTicks": 2,
          "midi": 82,
          "name": "A#5",
          "ticks": 73824,
          "time": 180.234375,
          "velocity": 0.5039370078740157
        },
        {
          "duration": 0.0048828125,
          "durationTicks": 2,
          "midi": 73,
          "name": "C#5",
          "ticks": 73824,
          "time": 180.234375,
          "velocity": 0.84251968503937
        },
        {
          "duration": 0.0048828125,
          "durationTicks": 2,
          "midi": 42,
          "name": "F#2",
          "ticks": 73824,
          "time": 180.234375,
          "velocity": 0.3464566929133858
        },
        {
          "duration": 0.0048828125,
          "durationTicks": 2,
          "midi": 73,
          "name": "C#5",
          "ticks": 73872,
          "time": 180.3515625,
          "velocity": 0.6377952755905512
        },
        {
          "duration": 0.0048828125,
          "durationTicks": 2,
          "midi": 42,
          "name": "F#2",
          "ticks": 73872,
          "time": 180.3515625,
          "velocity": 0.5275590551181102
        },
        {
          "duration": 0.0048828125,
          "durationTicks": 2,
          "midi": 82,
          "name": "A#5",
          "ticks": 73920,
          "time": 180.46875,
          "velocity": 0.4330708661417323
        },
        {
          "duration": 0.0048828125,
          "durationTicks": 2,
          "midi": 73,
          "name": "C#5",
          "ticks": 73920,
          "time": 180.46875,
          "velocity": 0.5433070866141733
        },
        {
          "duration": 0.0048828125,
          "durationTicks": 2,
          "midi": 42,
          "name": "F#2",
          "ticks": 73920,
          "time": 180.46875,
          "velocity": 0.8110236220472441
        },
        {
          "duration": 0.0048828125,
          "durationTicks": 2,
          "midi": 35,
          "name": "B1",
          "ticks": 73920,
          "time": 180.46875,
          "velocity": 1
        },
        {
          "duration": 0.0048828125,
          "durationTicks": 2,
          "midi": 42,
          "name": "F#2",
          "ticks": 73968,
          "time": 180.5859375,
          "velocity": 0.3464566929133858
        },
        {
          "duration": 0.0048828125,
          "durationTicks": 2,
          "midi": 82,
          "name": "A#5",
          "ticks": 74016,
          "time": 180.703125,
          "velocity": 0.5354330708661418
        },
        {
          "duration": 0.0048828125,
          "durationTicks": 2,
          "midi": 73,
          "name": "C#5",
          "ticks": 74016,
          "time": 180.703125,
          "velocity": 0.84251968503937
        },
        {
          "duration": 0.0048828125,
          "durationTicks": 2,
          "midi": 42,
          "name": "F#2",
          "ticks": 74016,
          "time": 180.703125,
          "velocity": 0.2047244094488189
        },
        {
          "duration": 0.0048828125,
          "durationTicks": 2,
          "midi": 42,
          "name": "F#2",
          "ticks": 74064,
          "time": 180.8203125,
          "velocity": 0.5984251968503937
        },
        {
          "duration": 0.0048828125,
          "durationTicks": 2,
          "midi": 82,
          "name": "A#5",
          "ticks": 74112,
          "time": 180.9375,
          "velocity": 0.5354330708661418
        },
        {
          "duration": 0.0048828125,
          "durationTicks": 2,
          "midi": 73,
          "name": "C#5",
          "ticks": 74112,
          "time": 180.9375,
          "velocity": 0.6377952755905512
        },
        {
          "duration": 0.0048828125,
          "durationTicks": 2,
          "midi": 69,
          "name": "A4",
          "ticks": 74112,
          "time": 180.9375,
          "velocity": 0.5748031496062992
        },
        {
          "duration": 0.0048828125,
          "durationTicks": 2,
          "midi": 42,
          "name": "F#2",
          "ticks": 74112,
          "time": 180.9375,
          "velocity": 0.7795275590551181
        },
        {
          "duration": 0.0048828125,
          "durationTicks": 2,
          "midi": 35,
          "name": "B1",
          "ticks": 74112,
          "time": 180.9375,
          "velocity": 1
        },
        {
          "duration": 0.0048828125,
          "durationTicks": 2,
          "midi": 42,
          "name": "F#2",
          "ticks": 74160,
          "time": 181.0546875,
          "velocity": 0.2755905511811024
        },
        {
          "duration": 0.0048828125,
          "durationTicks": 2,
          "midi": 69,
          "name": "A4",
          "ticks": 74208,
          "time": 181.171875,
          "velocity": 0.5748031496062992
        },
        {
          "duration": 0.0048828125,
          "durationTicks": 2,
          "midi": 42,
          "name": "F#2",
          "ticks": 74208,
          "time": 181.171875,
          "velocity": 0.2047244094488189
        },
        {
          "duration": 0.0048828125,
          "durationTicks": 2,
          "midi": 42,
          "name": "F#2",
          "ticks": 74256,
          "time": 181.2890625,
          "velocity": 0.6692913385826772
        },
        {
          "duration": 0.0048828125,
          "durationTicks": 2,
          "midi": 69,
          "name": "A4",
          "ticks": 74304,
          "time": 181.40625,
          "velocity": 0.5511811023622047
        },
        {
          "duration": 0.0048828125,
          "durationTicks": 2,
          "midi": 42,
          "name": "F#2",
          "ticks": 74304,
          "time": 181.40625,
          "velocity": 0.7795275590551181
        },
        {
          "duration": 0.0048828125,
          "durationTicks": 2,
          "midi": 35,
          "name": "B1",
          "ticks": 74304,
          "time": 181.40625,
          "velocity": 1
        },
        {
          "duration": 0.0048828125,
          "durationTicks": 2,
          "midi": 42,
          "name": "F#2",
          "ticks": 74352,
          "time": 181.5234375,
          "velocity": 0.30708661417322836
        },
        {
          "duration": 0.0048828125,
          "durationTicks": 2,
          "midi": 69,
          "name": "A4",
          "ticks": 74400,
          "time": 181.640625,
          "velocity": 0.5511811023622047
        },
        {
          "duration": 0.0048828125,
          "durationTicks": 2,
          "midi": 42,
          "name": "F#2",
          "ticks": 74400,
          "time": 181.640625,
          "velocity": 0.30708661417322836
        },
        {
          "duration": 0.0048828125,
          "durationTicks": 2,
          "midi": 42,
          "name": "F#2",
          "ticks": 74448,
          "time": 181.7578125,
          "velocity": 0.5275590551181102
        },
        {
          "duration": 0.0048828125,
          "durationTicks": 2,
          "midi": 82,
          "name": "A#5",
          "ticks": 74496,
          "time": 181.875,
          "velocity": 0.47244094488188976
        },
        {
          "duration": 0.0048828125,
          "durationTicks": 2,
          "midi": 46,
          "name": "A#2",
          "ticks": 74496,
          "time": 181.875,
          "velocity": 0.6692913385826772
        },
        {
          "duration": 0.0048828125,
          "durationTicks": 2,
          "midi": 35,
          "name": "B1",
          "ticks": 74496,
          "time": 181.875,
          "velocity": 1
        },
        {
          "duration": 0.0048828125,
          "durationTicks": 2,
          "midi": 42,
          "name": "F#2",
          "ticks": 74544,
          "time": 181.9921875,
          "velocity": 0.30708661417322836
        },
        {
          "duration": 0.0048828125,
          "durationTicks": 2,
          "midi": 82,
          "name": "A#5",
          "ticks": 74592,
          "time": 182.109375,
          "velocity": 0.4409448818897638
        },
        {
          "duration": 0.0048828125,
          "durationTicks": 2,
          "midi": 73,
          "name": "C#5",
          "ticks": 74592,
          "time": 182.109375,
          "velocity": 0.7165354330708661
        },
        {
          "duration": 0.0048828125,
          "durationTicks": 2,
          "midi": 46,
          "name": "A#2",
          "ticks": 74592,
          "time": 182.109375,
          "velocity": 0.7086614173228346
        },
        {
          "duration": 0.0048828125,
          "durationTicks": 2,
          "midi": 38,
          "name": "D2",
          "ticks": 74592,
          "time": 182.109375,
          "velocity": 0.5275590551181102
        },
        {
          "duration": 0.0048828125,
          "durationTicks": 2,
          "midi": 73,
          "name": "C#5",
          "ticks": 74640,
          "time": 182.2265625,
          "velocity": 0.6850393700787402
        },
        {
          "duration": 0.0048828125,
          "durationTicks": 2,
          "midi": 82,
          "name": "A#5",
          "ticks": 74688,
          "time": 182.34375,
          "velocity": 0.49606299212598426
        },
        {
          "duration": 0.0048828125,
          "durationTicks": 2,
          "midi": 73,
          "name": "C#5",
          "ticks": 74688,
          "time": 182.34375,
          "velocity": 0.6377952755905512
        },
        {
          "duration": 0.0048828125,
          "durationTicks": 2,
          "midi": 42,
          "name": "F#2",
          "ticks": 74688,
          "time": 182.34375,
          "velocity": 0.7795275590551181
        },
        {
          "duration": 0.0048828125,
          "durationTicks": 2,
          "midi": 38,
          "name": "D2",
          "ticks": 74688,
          "time": 182.34375,
          "velocity": 0.5275590551181102
        },
        {
          "duration": 0.0048828125,
          "durationTicks": 2,
          "midi": 35,
          "name": "B1",
          "ticks": 74688,
          "time": 182.34375,
          "velocity": 1
        },
        {
          "duration": 0.0048828125,
          "durationTicks": 2,
          "midi": 42,
          "name": "F#2",
          "ticks": 74736,
          "time": 182.4609375,
          "velocity": 0.3464566929133858
        },
        {
          "duration": 0.0048828125,
          "durationTicks": 2,
          "midi": 82,
          "name": "A#5",
          "ticks": 74784,
          "time": 182.578125,
          "velocity": 0.49606299212598426
        },
        {
          "duration": 0.0048828125,
          "durationTicks": 2,
          "midi": 73,
          "name": "C#5",
          "ticks": 74784,
          "time": 182.578125,
          "velocity": 0.9133858267716536
        },
        {
          "duration": 0.0048828125,
          "durationTicks": 2,
          "midi": 42,
          "name": "F#2",
          "ticks": 74784,
          "time": 182.578125,
          "velocity": 0.5984251968503937
        },
        {
          "duration": 0.0048828125,
          "durationTicks": 2,
          "midi": 38,
          "name": "D2",
          "ticks": 74784,
          "time": 182.578125,
          "velocity": 0.7165354330708661
        },
        {
          "duration": 0.0048828125,
          "durationTicks": 2,
          "midi": 82,
          "name": "A#5",
          "ticks": 74880,
          "time": 182.8125,
          "velocity": 0.2992125984251969
        },
        {
          "duration": 0.0048828125,
          "durationTicks": 2,
          "midi": 73,
          "name": "C#5",
          "ticks": 74880,
          "time": 182.8125,
          "velocity": 0.6850393700787402
        },
        {
          "duration": 0.0048828125,
          "durationTicks": 2,
          "midi": 69,
          "name": "A4",
          "ticks": 74880,
          "time": 182.8125,
          "velocity": 0.5984251968503937
        },
        {
          "duration": 0.0048828125,
          "durationTicks": 2,
          "midi": 42,
          "name": "F#2",
          "ticks": 74880,
          "time": 182.8125,
          "velocity": 0.7795275590551181
        },
        {
          "duration": 0.0048828125,
          "durationTicks": 2,
          "midi": 38,
          "name": "D2",
          "ticks": 74880,
          "time": 182.8125,
          "velocity": 0.7874015748031497
        },
        {
          "duration": 0.0048828125,
          "durationTicks": 2,
          "midi": 42,
          "name": "F#2",
          "ticks": 74928,
          "time": 182.9296875,
          "velocity": 0.3464566929133858
        },
        {
          "duration": 0.0048828125,
          "durationTicks": 2,
          "midi": 69,
          "name": "A4",
          "ticks": 74976,
          "time": 183.046875,
          "velocity": 0.5354330708661418
        },
        {
          "duration": 0.0048828125,
          "durationTicks": 2,
          "midi": 46,
          "name": "A#2",
          "ticks": 74976,
          "time": 183.046875,
          "velocity": 0.7716535433070866
        },
        {
          "duration": 0.0048828125,
          "durationTicks": 2,
          "midi": 38,
          "name": "D2",
          "ticks": 74976,
          "time": 183.046875,
          "velocity": 0.7874015748031497
        },
        {
          "duration": 0.0048828125,
          "durationTicks": 2,
          "midi": 69,
          "name": "A4",
          "ticks": 75072,
          "time": 183.28125,
          "velocity": 0.5511811023622047
        },
        {
          "duration": 0.0048828125,
          "durationTicks": 2,
          "midi": 42,
          "name": "F#2",
          "ticks": 75072,
          "time": 183.28125,
          "velocity": 0.7795275590551181
        },
        {
          "duration": 0.0048828125,
          "durationTicks": 2,
          "midi": 38,
          "name": "D2",
          "ticks": 75072,
          "time": 183.28125,
          "velocity": 0.7874015748031497
        },
        {
          "duration": 0.0048828125,
          "durationTicks": 2,
          "midi": 42,
          "name": "F#2",
          "ticks": 75120,
          "time": 183.3984375,
          "velocity": 0.4881889763779528
        },
        {
          "duration": 0.0048828125,
          "durationTicks": 2,
          "midi": 69,
          "name": "A4",
          "ticks": 75168,
          "time": 183.515625,
          "velocity": 0.5984251968503937
        },
        {
          "duration": 0.0048828125,
          "durationTicks": 2,
          "midi": 42,
          "name": "F#2",
          "ticks": 75168,
          "time": 183.515625,
          "velocity": 0.5984251968503937
        },
        {
          "duration": 0.0048828125,
          "durationTicks": 2,
          "midi": 38,
          "name": "D2",
          "ticks": 75168,
          "time": 183.515625,
          "velocity": 0.7874015748031497
        },
        {
          "duration": 0.0048828125,
          "durationTicks": 2,
          "midi": 38,
          "name": "D2",
          "ticks": 75216,
          "time": 183.6328125,
          "velocity": 0.7874015748031497
        },
        {
          "duration": 0.0048828125,
          "durationTicks": 2,
          "midi": 55,
          "name": "G3",
          "ticks": 75264,
          "time": 183.75,
          "velocity": 0.8661417322834646
        },
        {
          "duration": 0.0048828125,
          "durationTicks": 2,
          "midi": 35,
          "name": "B1",
          "ticks": 75264,
          "time": 183.75,
          "velocity": 0.9448818897637795
        },
        {
          "duration": 0.0048828125,
          "durationTicks": 2,
          "midi": 44,
          "name": "G#2",
          "ticks": 75360,
          "time": 183.984375,
          "velocity": 0.6929133858267716
        },
        {
          "duration": 0.0048828125,
          "durationTicks": 2,
          "midi": 42,
          "name": "F#2",
          "ticks": 75456,
          "time": 184.21875,
          "velocity": 0.5905511811023622
        },
        {
          "duration": 0.0048828125,
          "durationTicks": 2,
          "midi": 38,
          "name": "D2",
          "ticks": 75456,
          "time": 184.21875,
          "velocity": 0.7874015748031497
        },
        {
          "duration": 0.0048828125,
          "durationTicks": 2,
          "midi": 44,
          "name": "G#2",
          "ticks": 75552,
          "time": 184.453125,
          "velocity": 0.6456692913385826
        },
        {
          "duration": 0.0048828125,
          "durationTicks": 2,
          "midi": 42,
          "name": "F#2",
          "ticks": 75648,
          "time": 184.6875,
          "velocity": 0.6850393700787402
        },
        {
          "duration": 0.0048828125,
          "durationTicks": 2,
          "midi": 35,
          "name": "B1",
          "ticks": 75648,
          "time": 184.6875,
          "velocity": 0.9212598425196851
        },
        {
          "duration": 0.0048828125,
          "durationTicks": 2,
          "midi": 44,
          "name": "G#2",
          "ticks": 75744,
          "time": 184.921875,
          "velocity": 0.6377952755905512
        },
        {
          "duration": 0.0048828125,
          "durationTicks": 2,
          "midi": 42,
          "name": "F#2",
          "ticks": 75840,
          "time": 185.15625,
          "velocity": 0.6771653543307087
        },
        {
          "duration": 0.0048828125,
          "durationTicks": 2,
          "midi": 38,
          "name": "D2",
          "ticks": 75840,
          "time": 185.15625,
          "velocity": 0.7874015748031497
        },
        {
          "duration": 0.0048828125,
          "durationTicks": 2,
          "midi": 44,
          "name": "G#2",
          "ticks": 75936,
          "time": 185.390625,
          "velocity": 0.7559055118110236
        },
        {
          "duration": 0.0048828125,
          "durationTicks": 2,
          "midi": 42,
          "name": "F#2",
          "ticks": 76032,
          "time": 185.625,
          "velocity": 0.8582677165354331
        },
        {
          "duration": 0.0048828125,
          "durationTicks": 2,
          "midi": 35,
          "name": "B1",
          "ticks": 76032,
          "time": 185.625,
          "velocity": 0.9448818897637795
        },
        {
          "duration": 0.0048828125,
          "durationTicks": 2,
          "midi": 44,
          "name": "G#2",
          "ticks": 76128,
          "time": 185.859375,
          "velocity": 0.7086614173228346
        },
        {
          "duration": 0.0048828125,
          "durationTicks": 2,
          "midi": 42,
          "name": "F#2",
          "ticks": 76224,
          "time": 186.09375,
          "velocity": 0.6850393700787402
        },
        {
          "duration": 0.0048828125,
          "durationTicks": 2,
          "midi": 38,
          "name": "D2",
          "ticks": 76224,
          "time": 186.09375,
          "velocity": 0.7874015748031497
        },
        {
          "duration": 0.0048828125,
          "durationTicks": 2,
          "midi": 44,
          "name": "G#2",
          "ticks": 76320,
          "time": 186.328125,
          "velocity": 0.7559055118110236
        },
        {
          "duration": 0.0048828125,
          "durationTicks": 2,
          "midi": 42,
          "name": "F#2",
          "ticks": 76416,
          "time": 186.5625,
          "velocity": 0.7086614173228346
        },
        {
          "duration": 0.0048828125,
          "durationTicks": 2,
          "midi": 35,
          "name": "B1",
          "ticks": 76416,
          "time": 186.5625,
          "velocity": 0.9448818897637795
        },
        {
          "duration": 0.0048828125,
          "durationTicks": 2,
          "midi": 44,
          "name": "G#2",
          "ticks": 76512,
          "time": 186.796875,
          "velocity": 0.6771653543307087
        },
        {
          "duration": 0.0048828125,
          "durationTicks": 2,
          "midi": 42,
          "name": "F#2",
          "ticks": 76608,
          "time": 187.03125,
          "velocity": 0.7244094488188977
        },
        {
          "duration": 0.0048828125,
          "durationTicks": 2,
          "midi": 38,
          "name": "D2",
          "ticks": 76608,
          "time": 187.03125,
          "velocity": 0.7874015748031497
        },
        {
          "duration": 0.0048828125,
          "durationTicks": 2,
          "midi": 46,
          "name": "A#2",
          "ticks": 76704,
          "time": 187.265625,
          "velocity": 0.6850393700787402
        },
        {
          "duration": 0.0048828125,
          "durationTicks": 2,
          "midi": 42,
          "name": "F#2",
          "ticks": 76800,
          "time": 187.5,
          "velocity": 0.7086614173228346
        },
        {
          "duration": 0.0048828125,
          "durationTicks": 2,
          "midi": 35,
          "name": "B1",
          "ticks": 76800,
          "time": 187.5,
          "velocity": 0.9212598425196851
        },
        {
          "duration": 0.0048828125,
          "durationTicks": 2,
          "midi": 44,
          "name": "G#2",
          "ticks": 76896,
          "time": 187.734375,
          "velocity": 0.7322834645669292
        },
        {
          "duration": 0.0048828125,
          "durationTicks": 2,
          "midi": 42,
          "name": "F#2",
          "ticks": 76992,
          "time": 187.96875,
          "velocity": 0.7559055118110236
        },
        {
          "duration": 0.0048828125,
          "durationTicks": 2,
          "midi": 38,
          "name": "D2",
          "ticks": 76992,
          "time": 187.96875,
          "velocity": 0.7874015748031497
        },
        {
          "duration": 0.0048828125,
          "durationTicks": 2,
          "midi": 44,
          "name": "G#2",
          "ticks": 77088,
          "time": 188.203125,
          "velocity": 0.7874015748031497
        },
        {
          "duration": 0.0048828125,
          "durationTicks": 2,
          "midi": 42,
          "name": "F#2",
          "ticks": 77184,
          "time": 188.4375,
          "velocity": 0.7244094488188977
        },
        {
          "duration": 0.0048828125,
          "durationTicks": 2,
          "midi": 35,
          "name": "B1",
          "ticks": 77184,
          "time": 188.4375,
          "velocity": 0.9448818897637795
        },
        {
          "duration": 0.0048828125,
          "durationTicks": 2,
          "midi": 44,
          "name": "G#2",
          "ticks": 77280,
          "time": 188.671875,
          "velocity": 0.7165354330708661
        },
        {
          "duration": 0.0048828125,
          "durationTicks": 2,
          "midi": 42,
          "name": "F#2",
          "ticks": 77376,
          "time": 188.90625,
          "velocity": 0.6456692913385826
        },
        {
          "duration": 0.0048828125,
          "durationTicks": 2,
          "midi": 38,
          "name": "D2",
          "ticks": 77376,
          "time": 188.90625,
          "velocity": 0.7874015748031497
        },
        {
          "duration": 0.0048828125,
          "durationTicks": 2,
          "midi": 44,
          "name": "G#2",
          "ticks": 77472,
          "time": 189.140625,
          "velocity": 0.7559055118110236
        },
        {
          "duration": 0.0048828125,
          "durationTicks": 2,
          "midi": 42,
          "name": "F#2",
          "ticks": 77568,
          "time": 189.375,
          "velocity": 0.7244094488188977
        },
        {
          "duration": 0.0048828125,
          "durationTicks": 2,
          "midi": 35,
          "name": "B1",
          "ticks": 77568,
          "time": 189.375,
          "velocity": 0.9212598425196851
        },
        {
          "duration": 0.0048828125,
          "durationTicks": 2,
          "midi": 44,
          "name": "G#2",
          "ticks": 77664,
          "time": 189.609375,
          "velocity": 0.7716535433070866
        },
        {
          "duration": 0.0048828125,
          "durationTicks": 2,
          "midi": 42,
          "name": "F#2",
          "ticks": 77760,
          "time": 189.84375,
          "velocity": 0.7874015748031497
        },
        {
          "duration": 0.0048828125,
          "durationTicks": 2,
          "midi": 38,
          "name": "D2",
          "ticks": 77760,
          "time": 189.84375,
          "velocity": 0.7874015748031497
        },
        {
          "duration": 0.0048828125,
          "durationTicks": 2,
          "midi": 44,
          "name": "G#2",
          "ticks": 77856,
          "time": 190.078125,
          "velocity": 0.6929133858267716
        },
        {
          "duration": 0.0048828125,
          "durationTicks": 2,
          "midi": 42,
          "name": "F#2",
          "ticks": 77952,
          "time": 190.3125,
          "velocity": 0.6850393700787402
        },
        {
          "duration": 0.0048828125,
          "durationTicks": 2,
          "midi": 35,
          "name": "B1",
          "ticks": 77952,
          "time": 190.3125,
          "velocity": 0.9448818897637795
        },
        {
          "duration": 0.0048828125,
          "durationTicks": 2,
          "midi": 44,
          "name": "G#2",
          "ticks": 78048,
          "time": 190.546875,
          "velocity": 0.7559055118110236
        },
        {
          "duration": 0.0048828125,
          "durationTicks": 2,
          "midi": 42,
          "name": "F#2",
          "ticks": 78144,
          "time": 190.78125,
          "velocity": 0.7401574803149606
        },
        {
          "duration": 0.0048828125,
          "durationTicks": 2,
          "midi": 38,
          "name": "D2",
          "ticks": 78144,
          "time": 190.78125,
          "velocity": 0.7874015748031497
        },
        {
          "duration": 0.0048828125,
          "durationTicks": 2,
          "midi": 46,
          "name": "A#2",
          "ticks": 78240,
          "time": 191.015625,
          "velocity": 0.6377952755905512
        },
        {
          "duration": 0.0048828125,
          "durationTicks": 2,
          "midi": 42,
          "name": "F#2",
          "ticks": 78336,
          "time": 191.25,
          "velocity": 0.905511811023622
        },
        {
          "duration": 0.0048828125,
          "durationTicks": 2,
          "midi": 35,
          "name": "B1",
          "ticks": 78336,
          "time": 191.25,
          "velocity": 0.9448818897637795
        },
        {
          "duration": 0.0048828125,
          "durationTicks": 2,
          "midi": 44,
          "name": "G#2",
          "ticks": 78432,
          "time": 191.484375,
          "velocity": 0.6929133858267716
        },
        {
          "duration": 0.0048828125,
          "durationTicks": 2,
          "midi": 42,
          "name": "F#2",
          "ticks": 78528,
          "time": 191.71875,
          "velocity": 0.5905511811023622
        },
        {
          "duration": 0.0048828125,
          "durationTicks": 2,
          "midi": 38,
          "name": "D2",
          "ticks": 78528,
          "time": 191.71875,
          "velocity": 0.7874015748031497
        },
        {
          "duration": 0.0048828125,
          "durationTicks": 2,
          "midi": 44,
          "name": "G#2",
          "ticks": 78624,
          "time": 191.953125,
          "velocity": 0.6456692913385826
        },
        {
          "duration": 0.0048828125,
          "durationTicks": 2,
          "midi": 42,
          "name": "F#2",
          "ticks": 78720,
          "time": 192.1875,
          "velocity": 0.6850393700787402
        },
        {
          "duration": 0.0048828125,
          "durationTicks": 2,
          "midi": 35,
          "name": "B1",
          "ticks": 78720,
          "time": 192.1875,
          "velocity": 0.9212598425196851
        },
        {
          "duration": 0.0048828125,
          "durationTicks": 2,
          "midi": 44,
          "name": "G#2",
          "ticks": 78816,
          "time": 192.421875,
          "velocity": 0.6377952755905512
        },
        {
          "duration": 0.0048828125,
          "durationTicks": 2,
          "midi": 42,
          "name": "F#2",
          "ticks": 78912,
          "time": 192.65625,
          "velocity": 0.6771653543307087
        },
        {
          "duration": 0.0048828125,
          "durationTicks": 2,
          "midi": 38,
          "name": "D2",
          "ticks": 78912,
          "time": 192.65625,
          "velocity": 0.7874015748031497
        },
        {
          "duration": 0.0048828125,
          "durationTicks": 2,
          "midi": 44,
          "name": "G#2",
          "ticks": 79008,
          "time": 192.890625,
          "velocity": 0.7559055118110236
        },
        {
          "duration": 0.0048828125,
          "durationTicks": 2,
          "midi": 42,
          "name": "F#2",
          "ticks": 79104,
          "time": 193.125,
          "velocity": 0.8582677165354331
        },
        {
          "duration": 0.0048828125,
          "durationTicks": 2,
          "midi": 35,
          "name": "B1",
          "ticks": 79104,
          "time": 193.125,
          "velocity": 0.9448818897637795
        },
        {
          "duration": 0.0048828125,
          "durationTicks": 2,
          "midi": 44,
          "name": "G#2",
          "ticks": 79200,
          "time": 193.359375,
          "velocity": 0.7086614173228346
        },
        {
          "duration": 0.0048828125,
          "durationTicks": 2,
          "midi": 42,
          "name": "F#2",
          "ticks": 79296,
          "time": 193.59375,
          "velocity": 0.6850393700787402
        },
        {
          "duration": 0.0048828125,
          "durationTicks": 2,
          "midi": 38,
          "name": "D2",
          "ticks": 79296,
          "time": 193.59375,
          "velocity": 0.7874015748031497
        },
        {
          "duration": 0.0048828125,
          "durationTicks": 2,
          "midi": 44,
          "name": "G#2",
          "ticks": 79392,
          "time": 193.828125,
          "velocity": 0.7559055118110236
        },
        {
          "duration": 0.0048828125,
          "durationTicks": 2,
          "midi": 42,
          "name": "F#2",
          "ticks": 79488,
          "time": 194.0625,
          "velocity": 0.7086614173228346
        },
        {
          "duration": 0.0048828125,
          "durationTicks": 2,
          "midi": 35,
          "name": "B1",
          "ticks": 79488,
          "time": 194.0625,
          "velocity": 0.9448818897637795
        },
        {
          "duration": 0.0048828125,
          "durationTicks": 2,
          "midi": 46,
          "name": "A#2",
          "ticks": 79584,
          "time": 194.296875,
          "velocity": 0.84251968503937
        },
        {
          "duration": 0.0048828125,
          "durationTicks": 2,
          "midi": 42,
          "name": "F#2",
          "ticks": 79680,
          "time": 194.53125,
          "velocity": 0.7244094488188977
        },
        {
          "duration": 0.0048828125,
          "durationTicks": 2,
          "midi": 38,
          "name": "D2",
          "ticks": 79680,
          "time": 194.53125,
          "velocity": 0.7874015748031497
        },
        {
          "duration": 0.0048828125,
          "durationTicks": 2,
          "midi": 44,
          "name": "G#2",
          "ticks": 79776,
          "time": 194.765625,
          "velocity": 0.7559055118110236
        },
        {
          "duration": 0.0048828125,
          "durationTicks": 2,
          "midi": 55,
          "name": "G3",
          "ticks": 79872,
          "time": 195,
          "velocity": 0.8661417322834646
        },
        {
          "duration": 0.0048828125,
          "durationTicks": 2,
          "midi": 35,
          "name": "B1",
          "ticks": 79872,
          "time": 195,
          "velocity": 0.9448818897637795
        },
        {
          "duration": 0.0048828125,
          "durationTicks": 2,
          "midi": 44,
          "name": "G#2",
          "ticks": 79968,
          "time": 195.234375,
          "velocity": 0.6929133858267716
        },
        {
          "duration": 0.0048828125,
          "durationTicks": 2,
          "midi": 42,
          "name": "F#2",
          "ticks": 80064,
          "time": 195.46875,
          "velocity": 0.5905511811023622
        },
        {
          "duration": 0.0048828125,
          "durationTicks": 2,
          "midi": 38,
          "name": "D2",
          "ticks": 80064,
          "time": 195.46875,
          "velocity": 0.7874015748031497
        },
        {
          "duration": 0.0048828125,
          "durationTicks": 2,
          "midi": 44,
          "name": "G#2",
          "ticks": 80160,
          "time": 195.703125,
          "velocity": 0.6456692913385826
        },
        {
          "duration": 0.0048828125,
          "durationTicks": 2,
          "midi": 42,
          "name": "F#2",
          "ticks": 80256,
          "time": 195.9375,
          "velocity": 0.6850393700787402
        },
        {
          "duration": 0.0048828125,
          "durationTicks": 2,
          "midi": 35,
          "name": "B1",
          "ticks": 80256,
          "time": 195.9375,
          "velocity": 0.9212598425196851
        },
        {
          "duration": 0.0048828125,
          "durationTicks": 2,
          "midi": 44,
          "name": "G#2",
          "ticks": 80352,
          "time": 196.171875,
          "velocity": 0.6377952755905512
        },
        {
          "duration": 0.0048828125,
          "durationTicks": 2,
          "midi": 42,
          "name": "F#2",
          "ticks": 80448,
          "time": 196.40625,
          "velocity": 0.6771653543307087
        },
        {
          "duration": 0.0048828125,
          "durationTicks": 2,
          "midi": 38,
          "name": "D2",
          "ticks": 80448,
          "time": 196.40625,
          "velocity": 0.7874015748031497
        },
        {
          "duration": 0.0048828125,
          "durationTicks": 2,
          "midi": 44,
          "name": "G#2",
          "ticks": 80544,
          "time": 196.640625,
          "velocity": 0.7559055118110236
        },
        {
          "duration": 0.0048828125,
          "durationTicks": 2,
          "midi": 42,
          "name": "F#2",
          "ticks": 80640,
          "time": 196.875,
          "velocity": 0.8582677165354331
        },
        {
          "duration": 0.0048828125,
          "durationTicks": 2,
          "midi": 35,
          "name": "B1",
          "ticks": 80640,
          "time": 196.875,
          "velocity": 0.9448818897637795
        },
        {
          "duration": 0.0048828125,
          "durationTicks": 2,
          "midi": 44,
          "name": "G#2",
          "ticks": 80736,
          "time": 197.109375,
          "velocity": 0.7086614173228346
        },
        {
          "duration": 0.0048828125,
          "durationTicks": 2,
          "midi": 42,
          "name": "F#2",
          "ticks": 80832,
          "time": 197.34375,
          "velocity": 0.6850393700787402
        },
        {
          "duration": 0.0048828125,
          "durationTicks": 2,
          "midi": 38,
          "name": "D2",
          "ticks": 80832,
          "time": 197.34375,
          "velocity": 0.7874015748031497
        },
        {
          "duration": 0.0048828125,
          "durationTicks": 2,
          "midi": 44,
          "name": "G#2",
          "ticks": 80928,
          "time": 197.578125,
          "velocity": 0.7559055118110236
        },
        {
          "duration": 0.0048828125,
          "durationTicks": 2,
          "midi": 42,
          "name": "F#2",
          "ticks": 81024,
          "time": 197.8125,
          "velocity": 0.7086614173228346
        },
        {
          "duration": 0.0048828125,
          "durationTicks": 2,
          "midi": 35,
          "name": "B1",
          "ticks": 81024,
          "time": 197.8125,
          "velocity": 0.9448818897637795
        },
        {
          "duration": 0.0048828125,
          "durationTicks": 2,
          "midi": 44,
          "name": "G#2",
          "ticks": 81120,
          "time": 198.046875,
          "velocity": 0.6771653543307087
        },
        {
          "duration": 0.0048828125,
          "durationTicks": 2,
          "midi": 42,
          "name": "F#2",
          "ticks": 81216,
          "time": 198.28125,
          "velocity": 0.7244094488188977
        },
        {
          "duration": 0.0048828125,
          "durationTicks": 2,
          "midi": 38,
          "name": "D2",
          "ticks": 81216,
          "time": 198.28125,
          "velocity": 0.7874015748031497
        },
        {
          "duration": 0.0048828125,
          "durationTicks": 2,
          "midi": 46,
          "name": "A#2",
          "ticks": 81312,
          "time": 198.515625,
          "velocity": 0.6850393700787402
        },
        {
          "duration": 0.0048828125,
          "durationTicks": 2,
          "midi": 42,
          "name": "F#2",
          "ticks": 81408,
          "time": 198.75,
          "velocity": 0.7086614173228346
        },
        {
          "duration": 0.0048828125,
          "durationTicks": 2,
          "midi": 35,
          "name": "B1",
          "ticks": 81408,
          "time": 198.75,
          "velocity": 0.9212598425196851
        },
        {
          "duration": 0.0048828125,
          "durationTicks": 2,
          "midi": 44,
          "name": "G#2",
          "ticks": 81504,
          "time": 198.984375,
          "velocity": 0.7322834645669292
        },
        {
          "duration": 0.0048828125,
          "durationTicks": 2,
          "midi": 42,
          "name": "F#2",
          "ticks": 81600,
          "time": 199.21875,
          "velocity": 0.7559055118110236
        },
        {
          "duration": 0.0048828125,
          "durationTicks": 2,
          "midi": 38,
          "name": "D2",
          "ticks": 81600,
          "time": 199.21875,
          "velocity": 0.7874015748031497
        },
        {
          "duration": 0.0048828125,
          "durationTicks": 2,
          "midi": 44,
          "name": "G#2",
          "ticks": 81696,
          "time": 199.453125,
          "velocity": 0.7874015748031497
        },
        {
          "duration": 0.0048828125,
          "durationTicks": 2,
          "midi": 42,
          "name": "F#2",
          "ticks": 81792,
          "time": 199.6875,
          "velocity": 0.7244094488188977
        },
        {
          "duration": 0.0048828125,
          "durationTicks": 2,
          "midi": 35,
          "name": "B1",
          "ticks": 81792,
          "time": 199.6875,
          "velocity": 0.9448818897637795
        },
        {
          "duration": 0.0048828125,
          "durationTicks": 2,
          "midi": 44,
          "name": "G#2",
          "ticks": 81888,
          "time": 199.921875,
          "velocity": 0.7165354330708661
        },
        {
          "duration": 0.0048828125,
          "durationTicks": 2,
          "midi": 42,
          "name": "F#2",
          "ticks": 81984,
          "time": 200.15625,
          "velocity": 0.6456692913385826
        },
        {
          "duration": 0.0048828125,
          "durationTicks": 2,
          "midi": 38,
          "name": "D2",
          "ticks": 81984,
          "time": 200.15625,
          "velocity": 0.7874015748031497
        },
        {
          "duration": 0.0048828125,
          "durationTicks": 2,
          "midi": 44,
          "name": "G#2",
          "ticks": 82080,
          "time": 200.390625,
          "velocity": 0.7559055118110236
        },
        {
          "duration": 0.0048828125,
          "durationTicks": 2,
          "midi": 42,
          "name": "F#2",
          "ticks": 82176,
          "time": 200.625,
          "velocity": 0.7244094488188977
        },
        {
          "duration": 0.0048828125,
          "durationTicks": 2,
          "midi": 35,
          "name": "B1",
          "ticks": 82176,
          "time": 200.625,
          "velocity": 0.9212598425196851
        },
        {
          "duration": 0.0048828125,
          "durationTicks": 2,
          "midi": 44,
          "name": "G#2",
          "ticks": 82272,
          "time": 200.859375,
          "velocity": 0.7716535433070866
        },
        {
          "duration": 0.0048828125,
          "durationTicks": 2,
          "midi": 42,
          "name": "F#2",
          "ticks": 82368,
          "time": 201.09375,
          "velocity": 0.7874015748031497
        },
        {
          "duration": 0.0048828125,
          "durationTicks": 2,
          "midi": 38,
          "name": "D2",
          "ticks": 82368,
          "time": 201.09375,
          "velocity": 0.7874015748031497
        },
        {
          "duration": 0.0048828125,
          "durationTicks": 2,
          "midi": 44,
          "name": "G#2",
          "ticks": 82464,
          "time": 201.328125,
          "velocity": 0.6929133858267716
        },
        {
          "duration": 0.0048828125,
          "durationTicks": 2,
          "midi": 42,
          "name": "F#2",
          "ticks": 82560,
          "time": 201.5625,
          "velocity": 0.6850393700787402
        },
        {
          "duration": 0.0048828125,
          "durationTicks": 2,
          "midi": 35,
          "name": "B1",
          "ticks": 82560,
          "time": 201.5625,
          "velocity": 0.9448818897637795
        },
        {
          "duration": 0.0048828125,
          "durationTicks": 2,
          "midi": 44,
          "name": "G#2",
          "ticks": 82656,
          "time": 201.796875,
          "velocity": 0.7559055118110236
        },
        {
          "duration": 0.0048828125,
          "durationTicks": 2,
          "midi": 42,
          "name": "F#2",
          "ticks": 82752,
          "time": 202.03125,
          "velocity": 0.7401574803149606
        },
        {
          "duration": 0.0048828125,
          "durationTicks": 2,
          "midi": 38,
          "name": "D2",
          "ticks": 82752,
          "time": 202.03125,
          "velocity": 0.7874015748031497
        },
        {
          "duration": 0.0048828125,
          "durationTicks": 2,
          "midi": 46,
          "name": "A#2",
          "ticks": 82848,
          "time": 202.265625,
          "velocity": 0.6377952755905512
        },
        {
          "duration": 0.0048828125,
          "durationTicks": 2,
          "midi": 42,
          "name": "F#2",
          "ticks": 82944,
          "time": 202.5,
          "velocity": 0.7086614173228346
        },
        {
          "duration": 0.0048828125,
          "durationTicks": 2,
          "midi": 35,
          "name": "B1",
          "ticks": 82944,
          "time": 202.5,
          "velocity": 0.9212598425196851
        },
        {
          "duration": 0.0048828125,
          "durationTicks": 2,
          "midi": 44,
          "name": "G#2",
          "ticks": 83040,
          "time": 202.734375,
          "velocity": 0.7322834645669292
        },
        {
          "duration": 0.0048828125,
          "durationTicks": 2,
          "midi": 42,
          "name": "F#2",
          "ticks": 83136,
          "time": 202.96875,
          "velocity": 0.7559055118110236
        },
        {
          "duration": 0.0048828125,
          "durationTicks": 2,
          "midi": 38,
          "name": "D2",
          "ticks": 83136,
          "time": 202.96875,
          "velocity": 0.7874015748031497
        },
        {
          "duration": 0.0048828125,
          "durationTicks": 2,
          "midi": 44,
          "name": "G#2",
          "ticks": 83232,
          "time": 203.203125,
          "velocity": 0.7874015748031497
        },
        {
          "duration": 0.0048828125,
          "durationTicks": 2,
          "midi": 42,
          "name": "F#2",
          "ticks": 83328,
          "time": 203.4375,
          "velocity": 0.7244094488188977
        },
        {
          "duration": 0.0048828125,
          "durationTicks": 2,
          "midi": 35,
          "name": "B1",
          "ticks": 83328,
          "time": 203.4375,
          "velocity": 0.9448818897637795
        },
        {
          "duration": 0.0048828125,
          "durationTicks": 2,
          "midi": 44,
          "name": "G#2",
          "ticks": 83424,
          "time": 203.671875,
          "velocity": 0.7165354330708661
        },
        {
          "duration": 0.0048828125,
          "durationTicks": 2,
          "midi": 42,
          "name": "F#2",
          "ticks": 83520,
          "time": 203.90625,
          "velocity": 0.6456692913385826
        },
        {
          "duration": 0.0048828125,
          "durationTicks": 2,
          "midi": 38,
          "name": "D2",
          "ticks": 83520,
          "time": 203.90625,
          "velocity": 0.7874015748031497
        },
        {
          "duration": 0.0048828125,
          "durationTicks": 2,
          "midi": 44,
          "name": "G#2",
          "ticks": 83616,
          "time": 204.140625,
          "velocity": 0.7559055118110236
        },
        {
          "duration": 0.0048828125,
          "durationTicks": 2,
          "midi": 42,
          "name": "F#2",
          "ticks": 83712,
          "time": 204.375,
          "velocity": 0.7244094488188977
        },
        {
          "duration": 0.0048828125,
          "durationTicks": 2,
          "midi": 35,
          "name": "B1",
          "ticks": 83712,
          "time": 204.375,
          "velocity": 0.9212598425196851
        },
        {
          "duration": 0.0048828125,
          "durationTicks": 2,
          "midi": 44,
          "name": "G#2",
          "ticks": 83808,
          "time": 204.609375,
          "velocity": 0.7716535433070866
        },
        {
          "duration": 0.0048828125,
          "durationTicks": 2,
          "midi": 42,
          "name": "F#2",
          "ticks": 83904,
          "time": 204.84375,
          "velocity": 0.7874015748031497
        },
        {
          "duration": 0.0048828125,
          "durationTicks": 2,
          "midi": 38,
          "name": "D2",
          "ticks": 83904,
          "time": 204.84375,
          "velocity": 0.7874015748031497
        },
        {
          "duration": 0.0048828125,
          "durationTicks": 2,
          "midi": 44,
          "name": "G#2",
          "ticks": 84000,
          "time": 205.078125,
          "velocity": 0.6929133858267716
        },
        {
          "duration": 0.0048828125,
          "durationTicks": 2,
          "midi": 42,
          "name": "F#2",
          "ticks": 84096,
          "time": 205.3125,
          "velocity": 0.6850393700787402
        },
        {
          "duration": 0.0048828125,
          "durationTicks": 2,
          "midi": 35,
          "name": "B1",
          "ticks": 84096,
          "time": 205.3125,
          "velocity": 0.9448818897637795
        },
        {
          "duration": 0.0048828125,
          "durationTicks": 2,
          "midi": 44,
          "name": "G#2",
          "ticks": 84192,
          "time": 205.546875,
          "velocity": 0.7559055118110236
        },
        {
          "duration": 0.0048828125,
          "durationTicks": 2,
          "midi": 42,
          "name": "F#2",
          "ticks": 84288,
          "time": 205.78125,
          "velocity": 0.7401574803149606
        },
        {
          "duration": 0.0048828125,
          "durationTicks": 2,
          "midi": 38,
          "name": "D2",
          "ticks": 84288,
          "time": 205.78125,
          "velocity": 0.7874015748031497
        },
        {
          "duration": 0.0048828125,
          "durationTicks": 2,
          "midi": 46,
          "name": "A#2",
          "ticks": 84384,
          "time": 206.015625,
          "velocity": 0.6377952755905512
        },
        {
          "duration": 0.0048828125,
          "durationTicks": 2,
          "midi": 42,
          "name": "F#2",
          "ticks": 84480,
          "time": 206.25,
          "velocity": 0.7086614173228346
        },
        {
          "duration": 0.0048828125,
          "durationTicks": 2,
          "midi": 35,
          "name": "B1",
          "ticks": 84480,
          "time": 206.25,
          "velocity": 0.9212598425196851
        },
        {
          "duration": 0.0048828125,
          "durationTicks": 2,
          "midi": 44,
          "name": "G#2",
          "ticks": 84576,
          "time": 206.484375,
          "velocity": 0.7322834645669292
        },
        {
          "duration": 0.0048828125,
          "durationTicks": 2,
          "midi": 42,
          "name": "F#2",
          "ticks": 84672,
          "time": 206.71875,
          "velocity": 0.7559055118110236
        },
        {
          "duration": 0.0048828125,
          "durationTicks": 2,
          "midi": 38,
          "name": "D2",
          "ticks": 84672,
          "time": 206.71875,
          "velocity": 0.7874015748031497
        },
        {
          "duration": 0.0048828125,
          "durationTicks": 2,
          "midi": 44,
          "name": "G#2",
          "ticks": 84768,
          "time": 206.953125,
          "velocity": 0.7874015748031497
        },
        {
          "duration": 0.0048828125,
          "durationTicks": 2,
          "midi": 42,
          "name": "F#2",
          "ticks": 84864,
          "time": 207.1875,
          "velocity": 0.7244094488188977
        },
        {
          "duration": 0.0048828125,
          "durationTicks": 2,
          "midi": 35,
          "name": "B1",
          "ticks": 84864,
          "time": 207.1875,
          "velocity": 0.9448818897637795
        },
        {
          "duration": 0.0048828125,
          "durationTicks": 2,
          "midi": 44,
          "name": "G#2",
          "ticks": 84960,
          "time": 207.421875,
          "velocity": 0.7165354330708661
        },
        {
          "duration": 0.0048828125,
          "durationTicks": 2,
          "midi": 42,
          "name": "F#2",
          "ticks": 85056,
          "time": 207.65625,
          "velocity": 0.6456692913385826
        },
        {
          "duration": 0.0048828125,
          "durationTicks": 2,
          "midi": 38,
          "name": "D2",
          "ticks": 85056,
          "time": 207.65625,
          "velocity": 0.7874015748031497
        },
        {
          "duration": 0.0048828125,
          "durationTicks": 2,
          "midi": 44,
          "name": "G#2",
          "ticks": 85152,
          "time": 207.890625,
          "velocity": 0.7559055118110236
        },
        {
          "duration": 0.0048828125,
          "durationTicks": 2,
          "midi": 42,
          "name": "F#2",
          "ticks": 85248,
          "time": 208.125,
          "velocity": 0.7244094488188977
        },
        {
          "duration": 0.0048828125,
          "durationTicks": 2,
          "midi": 35,
          "name": "B1",
          "ticks": 85248,
          "time": 208.125,
          "velocity": 0.9212598425196851
        },
        {
          "duration": 0.0048828125,
          "durationTicks": 2,
          "midi": 44,
          "name": "G#2",
          "ticks": 85344,
          "time": 208.359375,
          "velocity": 0.7716535433070866
        },
        {
          "duration": 0.0048828125,
          "durationTicks": 2,
          "midi": 42,
          "name": "F#2",
          "ticks": 85440,
          "time": 208.59375,
          "velocity": 0.7874015748031497
        },
        {
          "duration": 0.0048828125,
          "durationTicks": 2,
          "midi": 38,
          "name": "D2",
          "ticks": 85440,
          "time": 208.59375,
          "velocity": 0.7874015748031497
        },
        {
          "duration": 0.0048828125,
          "durationTicks": 2,
          "midi": 44,
          "name": "G#2",
          "ticks": 85536,
          "time": 208.828125,
          "velocity": 0.6929133858267716
        },
        {
          "duration": 0.0048828125,
          "durationTicks": 2,
          "midi": 42,
          "name": "F#2",
          "ticks": 85632,
          "time": 209.0625,
          "velocity": 0.6850393700787402
        },
        {
          "duration": 0.0048828125,
          "durationTicks": 2,
          "midi": 35,
          "name": "B1",
          "ticks": 85632,
          "time": 209.0625,
          "velocity": 0.9448818897637795
        },
        {
          "duration": 0.0048828125,
          "durationTicks": 2,
          "midi": 44,
          "name": "G#2",
          "ticks": 85728,
          "time": 209.296875,
          "velocity": 0.7559055118110236
        },
        {
          "duration": 0.0048828125,
          "durationTicks": 2,
          "midi": 42,
          "name": "F#2",
          "ticks": 85824,
          "time": 209.53125,
          "velocity": 0.7401574803149606
        },
        {
          "duration": 0.0048828125,
          "durationTicks": 2,
          "midi": 38,
          "name": "D2",
          "ticks": 85824,
          "time": 209.53125,
          "velocity": 0.7874015748031497
        },
        {
          "duration": 0.0048828125,
          "durationTicks": 2,
          "midi": 46,
          "name": "A#2",
          "ticks": 85920,
          "time": 209.765625,
          "velocity": 0.6377952755905512
        },
        {
          "duration": 0.0048828125,
          "durationTicks": 2,
          "midi": 42,
          "name": "F#2",
          "ticks": 86016,
          "time": 210,
          "velocity": 0.7086614173228346
        },
        {
          "duration": 0.0048828125,
          "durationTicks": 2,
          "midi": 35,
          "name": "B1",
          "ticks": 86016,
          "time": 210,
          "velocity": 0.9212598425196851
        },
        {
          "duration": 0.0048828125,
          "durationTicks": 2,
          "midi": 44,
          "name": "G#2",
          "ticks": 86112,
          "time": 210.234375,
          "velocity": 0.7322834645669292
        },
        {
          "duration": 0.0048828125,
          "durationTicks": 2,
          "midi": 42,
          "name": "F#2",
          "ticks": 86208,
          "time": 210.46875,
          "velocity": 0.7559055118110236
        },
        {
          "duration": 0.0048828125,
          "durationTicks": 2,
          "midi": 38,
          "name": "D2",
          "ticks": 86208,
          "time": 210.46875,
          "velocity": 0.7874015748031497
        },
        {
          "duration": 0.0048828125,
          "durationTicks": 2,
          "midi": 44,
          "name": "G#2",
          "ticks": 86304,
          "time": 210.703125,
          "velocity": 0.7874015748031497
        },
        {
          "duration": 0.0048828125,
          "durationTicks": 2,
          "midi": 42,
          "name": "F#2",
          "ticks": 86400,
          "time": 210.9375,
          "velocity": 0.7244094488188977
        },
        {
          "duration": 0.0048828125,
          "durationTicks": 2,
          "midi": 35,
          "name": "B1",
          "ticks": 86400,
          "time": 210.9375,
          "velocity": 0.9448818897637795
        },
        {
          "duration": 0.0048828125,
          "durationTicks": 2,
          "midi": 44,
          "name": "G#2",
          "ticks": 86496,
          "time": 211.171875,
          "velocity": 0.7165354330708661
        },
        {
          "duration": 0.0048828125,
          "durationTicks": 2,
          "midi": 42,
          "name": "F#2",
          "ticks": 86592,
          "time": 211.40625,
          "velocity": 0.6456692913385826
        },
        {
          "duration": 0.0048828125,
          "durationTicks": 2,
          "midi": 38,
          "name": "D2",
          "ticks": 86592,
          "time": 211.40625,
          "velocity": 0.7874015748031497
        },
        {
          "duration": 0.0048828125,
          "durationTicks": 2,
          "midi": 44,
          "name": "G#2",
          "ticks": 86688,
          "time": 211.640625,
          "velocity": 0.7559055118110236
        },
        {
          "duration": 0.0048828125,
          "durationTicks": 2,
          "midi": 42,
          "name": "F#2",
          "ticks": 86784,
          "time": 211.875,
          "velocity": 0.7244094488188977
        },
        {
          "duration": 0.0048828125,
          "durationTicks": 2,
          "midi": 35,
          "name": "B1",
          "ticks": 86784,
          "time": 211.875,
          "velocity": 0.9212598425196851
        },
        {
          "duration": 0.0048828125,
          "durationTicks": 2,
          "midi": 44,
          "name": "G#2",
          "ticks": 86880,
          "time": 212.109375,
          "velocity": 0.7716535433070866
        },
        {
          "duration": 0.0048828125,
          "durationTicks": 2,
          "midi": 42,
          "name": "F#2",
          "ticks": 86976,
          "time": 212.34375,
          "velocity": 0.7874015748031497
        },
        {
          "duration": 0.0048828125,
          "durationTicks": 2,
          "midi": 38,
          "name": "D2",
          "ticks": 86976,
          "time": 212.34375,
          "velocity": 0.7874015748031497
        },
        {
          "duration": 0.0048828125,
          "durationTicks": 2,
          "midi": 44,
          "name": "G#2",
          "ticks": 87072,
          "time": 212.578125,
          "velocity": 0.6929133858267716
        },
        {
          "duration": 0.0048828125,
          "durationTicks": 2,
          "midi": 42,
          "name": "F#2",
          "ticks": 87168,
          "time": 212.8125,
          "velocity": 0.6850393700787402
        },
        {
          "duration": 0.0048828125,
          "durationTicks": 2,
          "midi": 35,
          "name": "B1",
          "ticks": 87168,
          "time": 212.8125,
          "velocity": 0.9448818897637795
        },
        {
          "duration": 0.0048828125,
          "durationTicks": 2,
          "midi": 44,
          "name": "G#2",
          "ticks": 87264,
          "time": 213.046875,
          "velocity": 0.7559055118110236
        },
        {
          "duration": 0.0048828125,
          "durationTicks": 2,
          "midi": 42,
          "name": "F#2",
          "ticks": 87360,
          "time": 213.28125,
          "velocity": 0.7401574803149606
        },
        {
          "duration": 0.0048828125,
          "durationTicks": 2,
          "midi": 38,
          "name": "D2",
          "ticks": 87360,
          "time": 213.28125,
          "velocity": 0.7874015748031497
        },
        {
          "duration": 0.0048828125,
          "durationTicks": 2,
          "midi": 46,
          "name": "A#2",
          "ticks": 87456,
          "time": 213.515625,
          "velocity": 0.6377952755905512
        },
        {
          "duration": 0.0048828125,
          "durationTicks": 2,
          "midi": 42,
          "name": "F#2",
          "ticks": 87552,
          "time": 213.75,
          "velocity": 0.7086614173228346
        },
        {
          "duration": 0.0048828125,
          "durationTicks": 2,
          "midi": 35,
          "name": "B1",
          "ticks": 87552,
          "time": 213.75,
          "velocity": 0.9212598425196851
        },
        {
          "duration": 0.0048828125,
          "durationTicks": 2,
          "midi": 44,
          "name": "G#2",
          "ticks": 87648,
          "time": 213.984375,
          "velocity": 0.7322834645669292
        },
        {
          "duration": 0.0048828125,
          "durationTicks": 2,
          "midi": 42,
          "name": "F#2",
          "ticks": 87744,
          "time": 214.21875,
          "velocity": 0.7559055118110236
        },
        {
          "duration": 0.0048828125,
          "durationTicks": 2,
          "midi": 38,
          "name": "D2",
          "ticks": 87744,
          "time": 214.21875,
          "velocity": 0.7874015748031497
        },
        {
          "duration": 0.0048828125,
          "durationTicks": 2,
          "midi": 44,
          "name": "G#2",
          "ticks": 87840,
          "time": 214.453125,
          "velocity": 0.7874015748031497
        },
        {
          "duration": 0.0048828125,
          "durationTicks": 2,
          "midi": 42,
          "name": "F#2",
          "ticks": 87936,
          "time": 214.6875,
          "velocity": 0.7244094488188977
        },
        {
          "duration": 0.0048828125,
          "durationTicks": 2,
          "midi": 35,
          "name": "B1",
          "ticks": 87936,
          "time": 214.6875,
          "velocity": 0.9448818897637795
        },
        {
          "duration": 0.0048828125,
          "durationTicks": 2,
          "midi": 44,
          "name": "G#2",
          "ticks": 88032,
          "time": 214.921875,
          "velocity": 0.7165354330708661
        },
        {
          "duration": 0.0048828125,
          "durationTicks": 2,
          "midi": 42,
          "name": "F#2",
          "ticks": 88128,
          "time": 215.15625,
          "velocity": 0.6456692913385826
        },
        {
          "duration": 0.0048828125,
          "durationTicks": 2,
          "midi": 38,
          "name": "D2",
          "ticks": 88128,
          "time": 215.15625,
          "velocity": 0.7874015748031497
        },
        {
          "duration": 0.0048828125,
          "durationTicks": 2,
          "midi": 44,
          "name": "G#2",
          "ticks": 88224,
          "time": 215.390625,
          "velocity": 0.7559055118110236
        },
        {
          "duration": 0.0048828125,
          "durationTicks": 2,
          "midi": 42,
          "name": "F#2",
          "ticks": 88320,
          "time": 215.625,
          "velocity": 0.7244094488188977
        },
        {
          "duration": 0.0048828125,
          "durationTicks": 2,
          "midi": 35,
          "name": "B1",
          "ticks": 88320,
          "time": 215.625,
          "velocity": 0.9212598425196851
        },
        {
          "duration": 0.0048828125,
          "durationTicks": 2,
          "midi": 44,
          "name": "G#2",
          "ticks": 88416,
          "time": 215.859375,
          "velocity": 0.7716535433070866
        },
        {
          "duration": 0.0048828125,
          "durationTicks": 2,
          "midi": 42,
          "name": "F#2",
          "ticks": 88512,
          "time": 216.09375,
          "velocity": 0.7874015748031497
        },
        {
          "duration": 0.0048828125,
          "durationTicks": 2,
          "midi": 38,
          "name": "D2",
          "ticks": 88512,
          "time": 216.09375,
          "velocity": 0.7874015748031497
        },
        {
          "duration": 0.0048828125,
          "durationTicks": 2,
          "midi": 44,
          "name": "G#2",
          "ticks": 88608,
          "time": 216.328125,
          "velocity": 0.6929133858267716
        },
        {
          "duration": 0.0048828125,
          "durationTicks": 2,
          "midi": 42,
          "name": "F#2",
          "ticks": 88704,
          "time": 216.5625,
          "velocity": 0.6850393700787402
        },
        {
          "duration": 0.0048828125,
          "durationTicks": 2,
          "midi": 35,
          "name": "B1",
          "ticks": 88704,
          "time": 216.5625,
          "velocity": 0.9448818897637795
        },
        {
          "duration": 0.0048828125,
          "durationTicks": 2,
          "midi": 44,
          "name": "G#2",
          "ticks": 88800,
          "time": 216.796875,
          "velocity": 0.7559055118110236
        },
        {
          "duration": 0.0048828125,
          "durationTicks": 2,
          "midi": 42,
          "name": "F#2",
          "ticks": 88896,
          "time": 217.03125,
          "velocity": 0.7401574803149606
        },
        {
          "duration": 0.0048828125,
          "durationTicks": 2,
          "midi": 38,
          "name": "D2",
          "ticks": 88896,
          "time": 217.03125,
          "velocity": 0.7874015748031497
        },
        {
          "duration": 0.0048828125,
          "durationTicks": 2,
          "midi": 46,
          "name": "A#2",
          "ticks": 88992,
          "time": 217.265625,
          "velocity": 0.6377952755905512
        },
        {
          "duration": 0.0048828125,
          "durationTicks": 2,
          "midi": 49,
          "name": "C#3",
          "ticks": 89088,
          "time": 217.5,
          "velocity": 0.6456692913385826
        },
        {
          "duration": 0.0048828125,
          "durationTicks": 2,
          "midi": 42,
          "name": "F#2",
          "ticks": 89088,
          "time": 217.5,
          "velocity": 0.7874015748031497
        },
        {
          "duration": 0.0048828125,
          "durationTicks": 2,
          "midi": 35,
          "name": "B1",
          "ticks": 89088,
          "time": 217.5,
          "velocity": 0.9212598425196851
        },
        {
          "duration": 0.0048828125,
          "durationTicks": 2,
          "midi": 42,
          "name": "F#2",
          "ticks": 89184,
          "time": 217.734375,
          "velocity": 0.9291338582677166
        },
        {
          "duration": 0.0048828125,
          "durationTicks": 2,
          "midi": 44,
          "name": "G#2",
          "ticks": 89232,
          "time": 217.8515625,
          "velocity": 0.9606299212598425
        },
        {
          "duration": 0.0048828125,
          "durationTicks": 2,
          "midi": 42,
          "name": "F#2",
          "ticks": 89280,
          "time": 217.96875,
          "velocity": 0.8346456692913385
        },
        {
          "duration": 0.0048828125,
          "durationTicks": 2,
          "midi": 38,
          "name": "D2",
          "ticks": 89280,
          "time": 217.96875,
          "velocity": 0.7874015748031497
        },
        {
          "duration": 0.0048828125,
          "durationTicks": 2,
          "midi": 44,
          "name": "G#2",
          "ticks": 89376,
          "time": 218.203125,
          "velocity": 0.8661417322834646
        },
        {
          "duration": 0.0048828125,
          "durationTicks": 2,
          "midi": 42,
          "name": "F#2",
          "ticks": 89472,
          "time": 218.4375,
          "velocity": 0.8031496062992126
        },
        {
          "duration": 0.0048828125,
          "durationTicks": 2,
          "midi": 35,
          "name": "B1",
          "ticks": 89472,
          "time": 218.4375,
          "velocity": 0.9448818897637795
        },
        {
          "duration": 0.0048828125,
          "durationTicks": 2,
          "midi": 44,
          "name": "G#2",
          "ticks": 89568,
          "time": 218.671875,
          "velocity": 0.7952755905511811
        },
        {
          "duration": 0.0048828125,
          "durationTicks": 2,
          "midi": 42,
          "name": "F#2",
          "ticks": 89664,
          "time": 218.90625,
          "velocity": 0.7244094488188977
        },
        {
          "duration": 0.0048828125,
          "durationTicks": 2,
          "midi": 38,
          "name": "D2",
          "ticks": 89664,
          "time": 218.90625,
          "velocity": 0.7874015748031497
        },
        {
          "duration": 0.0048828125,
          "durationTicks": 2,
          "midi": 44,
          "name": "G#2",
          "ticks": 89760,
          "time": 219.140625,
          "velocity": 0.8346456692913385
        },
        {
          "duration": 0.0048828125,
          "durationTicks": 2,
          "midi": 42,
          "name": "F#2",
          "ticks": 89856,
          "time": 219.375,
          "velocity": 0.8031496062992126
        },
        {
          "duration": 0.0048828125,
          "durationTicks": 2,
          "midi": 35,
          "name": "B1",
          "ticks": 89856,
          "time": 219.375,
          "velocity": 0.9212598425196851
        },
        {
          "duration": 0.0048828125,
          "durationTicks": 2,
          "midi": 44,
          "name": "G#2",
          "ticks": 89952,
          "time": 219.609375,
          "velocity": 0.8503937007874016
        },
        {
          "duration": 0.0048828125,
          "durationTicks": 2,
          "midi": 42,
          "name": "F#2",
          "ticks": 90048,
          "time": 219.84375,
          "velocity": 0.8661417322834646
        },
        {
          "duration": 0.0048828125,
          "durationTicks": 2,
          "midi": 38,
          "name": "D2",
          "ticks": 90048,
          "time": 219.84375,
          "velocity": 0.7874015748031497
        },
        {
          "duration": 0.0048828125,
          "durationTicks": 2,
          "midi": 44,
          "name": "G#2",
          "ticks": 90144,
          "time": 220.078125,
          "velocity": 0.7716535433070866
        },
        {
          "duration": 0.0048828125,
          "durationTicks": 2,
          "midi": 42,
          "name": "F#2",
          "ticks": 90240,
          "time": 220.3125,
          "velocity": 0.7637795275590551
        },
        {
          "duration": 0.0048828125,
          "durationTicks": 2,
          "midi": 35,
          "name": "B1",
          "ticks": 90240,
          "time": 220.3125,
          "velocity": 0.9448818897637795
        },
        {
          "duration": 0.0048828125,
          "durationTicks": 2,
          "midi": 44,
          "name": "G#2",
          "ticks": 90336,
          "time": 220.546875,
          "velocity": 0.8346456692913385
        },
        {
          "duration": 0.0048828125,
          "durationTicks": 2,
          "midi": 42,
          "name": "F#2",
          "ticks": 90432,
          "time": 220.78125,
          "velocity": 0.8188976377952756
        },
        {
          "duration": 0.0048828125,
          "durationTicks": 2,
          "midi": 38,
          "name": "D2",
          "ticks": 90432,
          "time": 220.78125,
          "velocity": 0.7874015748031497
        },
        {
          "duration": 0.0048828125,
          "durationTicks": 2,
          "midi": 44,
          "name": "G#2",
          "ticks": 90528,
          "time": 221.015625,
          "velocity": 0.7086614173228346
        },
        {
          "duration": 0.0048828125,
          "durationTicks": 2,
          "midi": 42,
          "name": "F#2",
          "ticks": 90624,
          "time": 221.25,
          "velocity": 0.7874015748031497
        },
        {
          "duration": 0.0048828125,
          "durationTicks": 2,
          "midi": 35,
          "name": "B1",
          "ticks": 90624,
          "time": 221.25,
          "velocity": 0.9212598425196851
        },
        {
          "duration": 0.0048828125,
          "durationTicks": 2,
          "midi": 44,
          "name": "G#2",
          "ticks": 90720,
          "time": 221.484375,
          "velocity": 0.9606299212598425
        },
        {
          "duration": 0.0048828125,
          "durationTicks": 2,
          "midi": 42,
          "name": "F#2",
          "ticks": 90768,
          "time": 221.6015625,
          "velocity": 0.9291338582677166
        },
        {
          "duration": 0.0048828125,
          "durationTicks": 2,
          "midi": 42,
          "name": "F#2",
          "ticks": 90816,
          "time": 221.71875,
          "velocity": 0.8346456692913385
        },
        {
          "duration": 0.0048828125,
          "durationTicks": 2,
          "midi": 38,
          "name": "D2",
          "ticks": 90816,
          "time": 221.71875,
          "velocity": 0.7874015748031497
        },
        {
          "duration": 0.0048828125,
          "durationTicks": 2,
          "midi": 44,
          "name": "G#2",
          "ticks": 90912,
          "time": 221.953125,
          "velocity": 0.8661417322834646
        },
        {
          "duration": 0.0048828125,
          "durationTicks": 2,
          "midi": 42,
          "name": "F#2",
          "ticks": 91008,
          "time": 222.1875,
          "velocity": 0.8031496062992126
        },
        {
          "duration": 0.0048828125,
          "durationTicks": 2,
          "midi": 35,
          "name": "B1",
          "ticks": 91008,
          "time": 222.1875,
          "velocity": 0.9448818897637795
        },
        {
          "duration": 0.0048828125,
          "durationTicks": 2,
          "midi": 44,
          "name": "G#2",
          "ticks": 91104,
          "time": 222.421875,
          "velocity": 0.7952755905511811
        },
        {
          "duration": 0.0048828125,
          "durationTicks": 2,
          "midi": 42,
          "name": "F#2",
          "ticks": 91200,
          "time": 222.65625,
          "velocity": 0.7244094488188977
        },
        {
          "duration": 0.0048828125,
          "durationTicks": 2,
          "midi": 38,
          "name": "D2",
          "ticks": 91200,
          "time": 222.65625,
          "velocity": 0.7874015748031497
        },
        {
          "duration": 0.0048828125,
          "durationTicks": 2,
          "midi": 44,
          "name": "G#2",
          "ticks": 91296,
          "time": 222.890625,
          "velocity": 0.8346456692913385
        },
        {
          "duration": 0.0048828125,
          "durationTicks": 2,
          "midi": 42,
          "name": "F#2",
          "ticks": 91392,
          "time": 223.125,
          "velocity": 0.8031496062992126
        },
        {
          "duration": 0.0048828125,
          "durationTicks": 2,
          "midi": 35,
          "name": "B1",
          "ticks": 91392,
          "time": 223.125,
          "velocity": 0.9212598425196851
        },
        {
          "duration": 0.0048828125,
          "durationTicks": 2,
          "midi": 44,
          "name": "G#2",
          "ticks": 91488,
          "time": 223.359375,
          "velocity": 0.8503937007874016
        },
        {
          "duration": 0.0048828125,
          "durationTicks": 2,
          "midi": 42,
          "name": "F#2",
          "ticks": 91584,
          "time": 223.59375,
          "velocity": 0.8661417322834646
        },
        {
          "duration": 0.0048828125,
          "durationTicks": 2,
          "midi": 38,
          "name": "D2",
          "ticks": 91584,
          "time": 223.59375,
          "velocity": 0.7874015748031497
        },
        {
          "duration": 0.0048828125,
          "durationTicks": 2,
          "midi": 44,
          "name": "G#2",
          "ticks": 91680,
          "time": 223.828125,
          "velocity": 0.7716535433070866
        },
        {
          "duration": 0.0048828125,
          "durationTicks": 2,
          "midi": 42,
          "name": "F#2",
          "ticks": 91776,
          "time": 224.0625,
          "velocity": 0.7637795275590551
        },
        {
          "duration": 0.0048828125,
          "durationTicks": 2,
          "midi": 35,
          "name": "B1",
          "ticks": 91776,
          "time": 224.0625,
          "velocity": 0.9448818897637795
        },
        {
          "duration": 0.0048828125,
          "durationTicks": 2,
          "midi": 44,
          "name": "G#2",
          "ticks": 91872,
          "time": 224.296875,
          "velocity": 0.8346456692913385
        },
        {
          "duration": 0.0048828125,
          "durationTicks": 2,
          "midi": 42,
          "name": "F#2",
          "ticks": 91968,
          "time": 224.53125,
          "velocity": 0.8188976377952756
        },
        {
          "duration": 0.0048828125,
          "durationTicks": 2,
          "midi": 38,
          "name": "D2",
          "ticks": 91968,
          "time": 224.53125,
          "velocity": 0.7874015748031497
        },
        {
          "duration": 0.0048828125,
          "durationTicks": 2,
          "midi": 44,
          "name": "G#2",
          "ticks": 92064,
          "time": 224.765625,
          "velocity": 0.7086614173228346
        },
        {
          "duration": 0.0048828125,
          "durationTicks": 2,
          "midi": 42,
          "name": "F#2",
          "ticks": 92160,
          "time": 225,
          "velocity": 0.905511811023622
        },
        {
          "duration": 0.0048828125,
          "durationTicks": 2,
          "midi": 35,
          "name": "B1",
          "ticks": 92160,
          "time": 225,
          "velocity": 0.9448818897637795
        },
        {
          "duration": 0.0048828125,
          "durationTicks": 2,
          "midi": 42,
          "name": "F#2",
          "ticks": 92256,
          "time": 225.234375,
          "velocity": 0.9291338582677166
        },
        {
          "duration": 0.0048828125,
          "durationTicks": 2,
          "midi": 44,
          "name": "G#2",
          "ticks": 92304,
          "time": 225.3515625,
          "velocity": 0.9606299212598425
        },
        {
          "duration": 0.0048828125,
          "durationTicks": 2,
          "midi": 42,
          "name": "F#2",
          "ticks": 92352,
          "time": 225.46875,
          "velocity": 0.8346456692913385
        },
        {
          "duration": 0.0048828125,
          "durationTicks": 2,
          "midi": 38,
          "name": "D2",
          "ticks": 92352,
          "time": 225.46875,
          "velocity": 0.7874015748031497
        },
        {
          "duration": 0.0048828125,
          "durationTicks": 2,
          "midi": 44,
          "name": "G#2",
          "ticks": 92448,
          "time": 225.703125,
          "velocity": 0.7244094488188977
        },
        {
          "duration": 0.0048828125,
          "durationTicks": 2,
          "midi": 42,
          "name": "F#2",
          "ticks": 92544,
          "time": 225.9375,
          "velocity": 0.7637795275590551
        },
        {
          "duration": 0.0048828125,
          "durationTicks": 2,
          "midi": 35,
          "name": "B1",
          "ticks": 92544,
          "time": 225.9375,
          "velocity": 0.9212598425196851
        },
        {
          "duration": 0.0048828125,
          "durationTicks": 2,
          "midi": 44,
          "name": "G#2",
          "ticks": 92640,
          "time": 226.171875,
          "velocity": 0.7165354330708661
        },
        {
          "duration": 0.0048828125,
          "durationTicks": 2,
          "midi": 42,
          "name": "F#2",
          "ticks": 92736,
          "time": 226.40625,
          "velocity": 0.7559055118110236
        },
        {
          "duration": 0.0048828125,
          "durationTicks": 2,
          "midi": 38,
          "name": "D2",
          "ticks": 92736,
          "time": 226.40625,
          "velocity": 0.7874015748031497
        },
        {
          "duration": 0.0048828125,
          "durationTicks": 2,
          "midi": 44,
          "name": "G#2",
          "ticks": 92832,
          "time": 226.640625,
          "velocity": 0.8346456692913385
        },
        {
          "duration": 0.0048828125,
          "durationTicks": 2,
          "midi": 42,
          "name": "F#2",
          "ticks": 92928,
          "time": 226.875,
          "velocity": 0.937007874015748
        },
        {
          "duration": 0.0048828125,
          "durationTicks": 2,
          "midi": 35,
          "name": "B1",
          "ticks": 92928,
          "time": 226.875,
          "velocity": 0.9448818897637795
        },
        {
          "duration": 0.0048828125,
          "durationTicks": 2,
          "midi": 44,
          "name": "G#2",
          "ticks": 93024,
          "time": 227.109375,
          "velocity": 0.7874015748031497
        },
        {
          "duration": 0.0048828125,
          "durationTicks": 2,
          "midi": 42,
          "name": "F#2",
          "ticks": 93120,
          "time": 227.34375,
          "velocity": 0.7637795275590551
        },
        {
          "duration": 0.0048828125,
          "durationTicks": 2,
          "midi": 38,
          "name": "D2",
          "ticks": 93120,
          "time": 227.34375,
          "velocity": 0.7874015748031497
        },
        {
          "duration": 0.0048828125,
          "durationTicks": 2,
          "midi": 44,
          "name": "G#2",
          "ticks": 93216,
          "time": 227.578125,
          "velocity": 0.8346456692913385
        },
        {
          "duration": 0.0048828125,
          "durationTicks": 2,
          "midi": 42,
          "name": "F#2",
          "ticks": 93312,
          "time": 227.8125,
          "velocity": 0.7874015748031497
        },
        {
          "duration": 0.0048828125,
          "durationTicks": 2,
          "midi": 35,
          "name": "B1",
          "ticks": 93312,
          "time": 227.8125,
          "velocity": 0.9448818897637795
        },
        {
          "duration": 0.0048828125,
          "durationTicks": 2,
          "midi": 44,
          "name": "G#2",
          "ticks": 93408,
          "time": 228.046875,
          "velocity": 0.7559055118110236
        },
        {
          "duration": 0.0048828125,
          "durationTicks": 2,
          "midi": 42,
          "name": "F#2",
          "ticks": 93504,
          "time": 228.28125,
          "velocity": 0.8031496062992126
        },
        {
          "duration": 0.0048828125,
          "durationTicks": 2,
          "midi": 38,
          "name": "D2",
          "ticks": 93504,
          "time": 228.28125,
          "velocity": 0.7874015748031497
        },
        {
          "duration": 0.0048828125,
          "durationTicks": 2,
          "midi": 44,
          "name": "G#2",
          "ticks": 93600,
          "time": 228.515625,
          "velocity": 0.7559055118110236
        },
        {
          "duration": 0.0048828125,
          "durationTicks": 2,
          "midi": 42,
          "name": "F#2",
          "ticks": 93696,
          "time": 228.75,
          "velocity": 0.905511811023622
        },
        {
          "duration": 0.0048828125,
          "durationTicks": 2,
          "midi": 35,
          "name": "B1",
          "ticks": 93696,
          "time": 228.75,
          "velocity": 0.9448818897637795
        },
        {
          "duration": 0.0048828125,
          "durationTicks": 2,
          "midi": 44,
          "name": "G#2",
          "ticks": 93792,
          "time": 228.984375,
          "velocity": 0.9606299212598425
        },
        {
          "duration": 0.0048828125,
          "durationTicks": 2,
          "midi": 42,
          "name": "F#2",
          "ticks": 93840,
          "time": 229.1015625,
          "velocity": 0.9291338582677166
        },
        {
          "duration": 0.0048828125,
          "durationTicks": 2,
          "midi": 42,
          "name": "F#2",
          "ticks": 93888,
          "time": 229.21875,
          "velocity": 0.8346456692913385
        },
        {
          "duration": 0.0048828125,
          "durationTicks": 2,
          "midi": 38,
          "name": "D2",
          "ticks": 93888,
          "time": 229.21875,
          "velocity": 0.7874015748031497
        },
        {
          "duration": 0.0048828125,
          "durationTicks": 2,
          "midi": 44,
          "name": "G#2",
          "ticks": 93984,
          "time": 229.453125,
          "velocity": 0.7244094488188977
        },
        {
          "duration": 0.0048828125,
          "durationTicks": 2,
          "midi": 42,
          "name": "F#2",
          "ticks": 94080,
          "time": 229.6875,
          "velocity": 0.7637795275590551
        },
        {
          "duration": 0.0048828125,
          "durationTicks": 2,
          "midi": 35,
          "name": "B1",
          "ticks": 94080,
          "time": 229.6875,
          "velocity": 0.9212598425196851
        },
        {
          "duration": 0.0048828125,
          "durationTicks": 2,
          "midi": 44,
          "name": "G#2",
          "ticks": 94176,
          "time": 229.921875,
          "velocity": 0.7165354330708661
        },
        {
          "duration": 0.0048828125,
          "durationTicks": 2,
          "midi": 42,
          "name": "F#2",
          "ticks": 94272,
          "time": 230.15625,
          "velocity": 0.7559055118110236
        },
        {
          "duration": 0.0048828125,
          "durationTicks": 2,
          "midi": 38,
          "name": "D2",
          "ticks": 94272,
          "time": 230.15625,
          "velocity": 0.7874015748031497
        },
        {
          "duration": 0.0048828125,
          "durationTicks": 2,
          "midi": 44,
          "name": "G#2",
          "ticks": 94368,
          "time": 230.390625,
          "velocity": 0.8346456692913385
        },
        {
          "duration": 0.0048828125,
          "durationTicks": 2,
          "midi": 42,
          "name": "F#2",
          "ticks": 94464,
          "time": 230.625,
          "velocity": 0.937007874015748
        },
        {
          "duration": 0.0048828125,
          "durationTicks": 2,
          "midi": 35,
          "name": "B1",
          "ticks": 94464,
          "time": 230.625,
          "velocity": 0.9448818897637795
        },
        {
          "duration": 0.0048828125,
          "durationTicks": 2,
          "midi": 44,
          "name": "G#2",
          "ticks": 94560,
          "time": 230.859375,
          "velocity": 0.7874015748031497
        },
        {
          "duration": 0.0048828125,
          "durationTicks": 2,
          "midi": 42,
          "name": "F#2",
          "ticks": 94656,
          "time": 231.09375,
          "velocity": 0.7637795275590551
        },
        {
          "duration": 0.0048828125,
          "durationTicks": 2,
          "midi": 38,
          "name": "D2",
          "ticks": 94656,
          "time": 231.09375,
          "velocity": 0.7874015748031497
        },
        {
          "duration": 0.0048828125,
          "durationTicks": 2,
          "midi": 49,
          "name": "C#3",
          "ticks": 94752,
          "time": 231.328125,
          "velocity": 0.6456692913385826
        },
        {
          "duration": 0.0048828125,
          "durationTicks": 2,
          "midi": 35,
          "name": "B1",
          "ticks": 94752,
          "time": 231.328125,
          "velocity": 0.9448818897637795
        },
        {
          "duration": 0.0048828125,
          "durationTicks": 2,
          "midi": 42,
          "name": "F#2",
          "ticks": 94848,
          "time": 231.5625,
          "velocity": 0.7874015748031497
        },
        {
          "duration": 0.0048828125,
          "durationTicks": 2,
          "midi": 35,
          "name": "B1",
          "ticks": 94848,
          "time": 231.5625,
          "velocity": 0.9448818897637795
        },
        {
          "duration": 0.0048828125,
          "durationTicks": 2,
          "midi": 44,
          "name": "G#2",
          "ticks": 94944,
          "time": 231.796875,
          "velocity": 0.7559055118110236
        },
        {
          "duration": 0.0048828125,
          "durationTicks": 2,
          "midi": 42,
          "name": "F#2",
          "ticks": 95040,
          "time": 232.03125,
          "velocity": 0.8031496062992126
        },
        {
          "duration": 0.0048828125,
          "durationTicks": 2,
          "midi": 38,
          "name": "D2",
          "ticks": 95040,
          "time": 232.03125,
          "velocity": 0.7874015748031497
        },
        {
          "duration": 0.0048828125,
          "durationTicks": 2,
          "midi": 44,
          "name": "G#2",
          "ticks": 95136,
          "time": 232.265625,
          "velocity": 0.7559055118110236
        },
        {
          "duration": 0.0048828125,
          "durationTicks": 2,
          "midi": 42,
          "name": "F#2",
          "ticks": 95232,
          "time": 232.5,
          "velocity": 0.7874015748031497
        },
        {
          "duration": 0.0048828125,
          "durationTicks": 2,
          "midi": 35,
          "name": "B1",
          "ticks": 95232,
          "time": 232.5,
          "velocity": 0.9448818897637795
        },
        {
          "duration": 0.0048828125,
          "durationTicks": 2,
          "midi": 44,
          "name": "G#2",
          "ticks": 95328,
          "time": 232.734375,
          "velocity": 0.7559055118110236
        },
        {
          "duration": 0.0048828125,
          "durationTicks": 2,
          "midi": 42,
          "name": "F#2",
          "ticks": 95424,
          "time": 232.96875,
          "velocity": 0.8031496062992126
        },
        {
          "duration": 0.0048828125,
          "durationTicks": 2,
          "midi": 38,
          "name": "D2",
          "ticks": 95424,
          "time": 232.96875,
          "velocity": 0.7874015748031497
        },
        {
          "duration": 0.0048828125,
          "durationTicks": 2,
          "midi": 44,
          "name": "G#2",
          "ticks": 95520,
          "time": 233.203125,
          "velocity": 0.7559055118110236
        },
        {
          "duration": 0.0048828125,
          "durationTicks": 2,
          "midi": 42,
          "name": "F#2",
          "ticks": 95616,
          "time": 233.4375,
          "velocity": 0.8031496062992126
        },
        {
          "duration": 0.0048828125,
          "durationTicks": 2,
          "midi": 35,
          "name": "B1",
          "ticks": 95616,
          "time": 233.4375,
          "velocity": 0.9448818897637795
        },
        {
          "duration": 0.0048828125,
          "durationTicks": 2,
          "midi": 44,
          "name": "G#2",
          "ticks": 95712,
          "time": 233.671875,
          "velocity": 0.7559055118110236
        },
        {
          "duration": 0.0048828125,
          "durationTicks": 2,
          "midi": 42,
          "name": "F#2",
          "ticks": 95808,
          "time": 233.90625,
          "velocity": 0.7244094488188977
        },
        {
          "duration": 0.0048828125,
          "durationTicks": 2,
          "midi": 38,
          "name": "D2",
          "ticks": 95808,
          "time": 233.90625,
          "velocity": 0.7874015748031497
        },
        {
          "duration": 0.0048828125,
          "durationTicks": 2,
          "midi": 44,
          "name": "G#2",
          "ticks": 95904,
          "time": 234.140625,
          "velocity": 0.8346456692913385
        },
        {
          "duration": 0.0048828125,
          "durationTicks": 2,
          "midi": 38,
          "name": "D2",
          "ticks": 95904,
          "time": 234.140625,
          "velocity": 0.7165354330708661
        },
        {
          "duration": 0.0048828125,
          "durationTicks": 2,
          "midi": 42,
          "name": "F#2",
          "ticks": 96000,
          "time": 234.375,
          "velocity": 0.937007874015748
        },
        {
          "duration": 0.0048828125,
          "durationTicks": 2,
          "midi": 38,
          "name": "D2",
          "ticks": 96000,
          "time": 234.375,
          "velocity": 0.7874015748031497
        },
        {
          "duration": 0.0048828125,
          "durationTicks": 2,
          "midi": 35,
          "name": "B1",
          "ticks": 96000,
          "time": 234.375,
          "velocity": 0.9448818897637795
        },
        {
          "duration": 0.0048828125,
          "durationTicks": 2,
          "midi": 44,
          "name": "G#2",
          "ticks": 96096,
          "time": 234.609375,
          "velocity": 0.7874015748031497
        },
        {
          "duration": 0.0048828125,
          "durationTicks": 2,
          "midi": 38,
          "name": "D2",
          "ticks": 96096,
          "time": 234.609375,
          "velocity": 0.7874015748031497
        },
        {
          "duration": 0.0048828125,
          "durationTicks": 2,
          "midi": 42,
          "name": "F#2",
          "ticks": 96192,
          "time": 234.84375,
          "velocity": 0.7637795275590551
        },
        {
          "duration": 0.0048828125,
          "durationTicks": 2,
          "midi": 38,
          "name": "D2",
          "ticks": 96192,
          "time": 234.84375,
          "velocity": 0.7874015748031497
        },
        {
          "duration": 0.0048828125,
          "durationTicks": 2,
          "midi": 44,
          "name": "G#2",
          "ticks": 96288,
          "time": 235.078125,
          "velocity": 0.8346456692913385
        },
        {
          "duration": 0.0048828125,
          "durationTicks": 2,
          "midi": 38,
          "name": "D2",
          "ticks": 96288,
          "time": 235.078125,
          "velocity": 0.7874015748031497
        },
        {
          "duration": 0.0048828125,
          "durationTicks": 2,
          "midi": 38,
          "name": "D2",
          "ticks": 96336,
          "time": 235.1953125,
          "velocity": 0.7874015748031497
        },
        {
          "duration": 0.0048828125,
          "durationTicks": 2,
          "midi": 55,
          "name": "G3",
          "ticks": 96384,
          "time": 235.3125,
          "velocity": 0.8661417322834646
        },
        {
          "duration": 0.0048828125,
          "durationTicks": 2,
          "midi": 35,
          "name": "B1",
          "ticks": 96384,
          "time": 235.3125,
          "velocity": 0.9448818897637795
        },
        {
          "duration": 0.0048828125,
          "durationTicks": 2,
          "midi": 44,
          "name": "G#2",
          "ticks": 96480,
          "time": 235.546875,
          "velocity": 0.6929133858267716
        },
        {
          "duration": 0.0048828125,
          "durationTicks": 2,
          "midi": 42,
          "name": "F#2",
          "ticks": 96576,
          "time": 235.78125,
          "velocity": 0.5905511811023622
        },
        {
          "duration": 0.0048828125,
          "durationTicks": 2,
          "midi": 38,
          "name": "D2",
          "ticks": 96576,
          "time": 235.78125,
          "velocity": 0.7874015748031497
        },
        {
          "duration": 0.0048828125,
          "durationTicks": 2,
          "midi": 44,
          "name": "G#2",
          "ticks": 96672,
          "time": 236.015625,
          "velocity": 0.6456692913385826
        },
        {
          "duration": 0.0048828125,
          "durationTicks": 2,
          "midi": 42,
          "name": "F#2",
          "ticks": 96768,
          "time": 236.25,
          "velocity": 0.6850393700787402
        },
        {
          "duration": 0.0048828125,
          "durationTicks": 2,
          "midi": 35,
          "name": "B1",
          "ticks": 96768,
          "time": 236.25,
          "velocity": 0.9212598425196851
        },
        {
          "duration": 0.0048828125,
          "durationTicks": 2,
          "midi": 44,
          "name": "G#2",
          "ticks": 96864,
          "time": 236.484375,
          "velocity": 0.6377952755905512
        },
        {
          "duration": 0.0048828125,
          "durationTicks": 2,
          "midi": 42,
          "name": "F#2",
          "ticks": 96960,
          "time": 236.71875,
          "velocity": 0.6771653543307087
        },
        {
          "duration": 0.0048828125,
          "durationTicks": 2,
          "midi": 38,
          "name": "D2",
          "ticks": 96960,
          "time": 236.71875,
          "velocity": 0.7874015748031497
        },
        {
          "duration": 0.0048828125,
          "durationTicks": 2,
          "midi": 44,
          "name": "G#2",
          "ticks": 97056,
          "time": 236.953125,
          "velocity": 0.7559055118110236
        },
        {
          "duration": 0.0048828125,
          "durationTicks": 2,
          "midi": 42,
          "name": "F#2",
          "ticks": 97152,
          "time": 237.1875,
          "velocity": 0.8582677165354331
        },
        {
          "duration": 0.0048828125,
          "durationTicks": 2,
          "midi": 35,
          "name": "B1",
          "ticks": 97152,
          "time": 237.1875,
          "velocity": 0.9448818897637795
        },
        {
          "duration": 0.0048828125,
          "durationTicks": 2,
          "midi": 44,
          "name": "G#2",
          "ticks": 97248,
          "time": 237.421875,
          "velocity": 0.7086614173228346
        },
        {
          "duration": 0.0048828125,
          "durationTicks": 2,
          "midi": 42,
          "name": "F#2",
          "ticks": 97344,
          "time": 237.65625,
          "velocity": 0.6850393700787402
        },
        {
          "duration": 0.0048828125,
          "durationTicks": 2,
          "midi": 38,
          "name": "D2",
          "ticks": 97344,
          "time": 237.65625,
          "velocity": 0.7874015748031497
        },
        {
          "duration": 0.0048828125,
          "durationTicks": 2,
          "midi": 44,
          "name": "G#2",
          "ticks": 97440,
          "time": 237.890625,
          "velocity": 0.7559055118110236
        },
        {
          "duration": 0.0048828125,
          "durationTicks": 2,
          "midi": 42,
          "name": "F#2",
          "ticks": 97536,
          "time": 238.125,
          "velocity": 0.7086614173228346
        },
        {
          "duration": 0.0048828125,
          "durationTicks": 2,
          "midi": 35,
          "name": "B1",
          "ticks": 97536,
          "time": 238.125,
          "velocity": 0.9448818897637795
        },
        {
          "duration": 0.0048828125,
          "durationTicks": 2,
          "midi": 44,
          "name": "G#2",
          "ticks": 97632,
          "time": 238.359375,
          "velocity": 0.6771653543307087
        },
        {
          "duration": 0.0048828125,
          "durationTicks": 2,
          "midi": 42,
          "name": "F#2",
          "ticks": 97728,
          "time": 238.59375,
          "velocity": 0.7244094488188977
        },
        {
          "duration": 0.0048828125,
          "durationTicks": 2,
          "midi": 38,
          "name": "D2",
          "ticks": 97728,
          "time": 238.59375,
          "velocity": 0.7874015748031497
        },
        {
          "duration": 0.0048828125,
          "durationTicks": 2,
          "midi": 46,
          "name": "A#2",
          "ticks": 97824,
          "time": 238.828125,
          "velocity": 0.6850393700787402
        },
        {
          "duration": 0.0048828125,
          "durationTicks": 2,
          "midi": 42,
          "name": "F#2",
          "ticks": 97920,
          "time": 239.0625,
          "velocity": 0.7086614173228346
        },
        {
          "duration": 0.0048828125,
          "durationTicks": 2,
          "midi": 35,
          "name": "B1",
          "ticks": 97920,
          "time": 239.0625,
          "velocity": 0.9212598425196851
        },
        {
          "duration": 0.0048828125,
          "durationTicks": 2,
          "midi": 44,
          "name": "G#2",
          "ticks": 98016,
          "time": 239.296875,
          "velocity": 0.7322834645669292
        },
        {
          "duration": 0.0048828125,
          "durationTicks": 2,
          "midi": 42,
          "name": "F#2",
          "ticks": 98112,
          "time": 239.53125,
          "velocity": 0.7559055118110236
        },
        {
          "duration": 0.0048828125,
          "durationTicks": 2,
          "midi": 38,
          "name": "D2",
          "ticks": 98112,
          "time": 239.53125,
          "velocity": 0.7874015748031497
        },
        {
          "duration": 0.0048828125,
          "durationTicks": 2,
          "midi": 44,
          "name": "G#2",
          "ticks": 98208,
          "time": 239.765625,
          "velocity": 0.7874015748031497
        },
        {
          "duration": 0.004882812499971578,
          "durationTicks": 2,
          "midi": 42,
          "name": "F#2",
          "ticks": 98304,
          "time": 240,
          "velocity": 0.7244094488188977
        },
        {
          "duration": 0.004882812499971578,
          "durationTicks": 2,
          "midi": 35,
          "name": "B1",
          "ticks": 98304,
          "time": 240,
          "velocity": 0.9448818897637795
        },
        {
          "duration": 0.004882812499971578,
          "durationTicks": 2,
          "midi": 44,
          "name": "G#2",
          "ticks": 98400,
          "time": 240.234375,
          "velocity": 0.7165354330708661
        },
        {
          "duration": 0.004882812499971578,
          "durationTicks": 2,
          "midi": 42,
          "name": "F#2",
          "ticks": 98496,
          "time": 240.46875,
          "velocity": 0.6456692913385826
        },
        {
          "duration": 0.004882812499971578,
          "durationTicks": 2,
          "midi": 38,
          "name": "D2",
          "ticks": 98496,
          "time": 240.46875,
          "velocity": 0.7874015748031497
        },
        {
          "duration": 0.004882812499971578,
          "durationTicks": 2,
          "midi": 44,
          "name": "G#2",
          "ticks": 98592,
          "time": 240.703125,
          "velocity": 0.7559055118110236
        },
        {
          "duration": 0.004882812499971578,
          "durationTicks": 2,
          "midi": 42,
          "name": "F#2",
          "ticks": 98688,
          "time": 240.9375,
          "velocity": 0.7244094488188977
        },
        {
          "duration": 0.004882812499971578,
          "durationTicks": 2,
          "midi": 35,
          "name": "B1",
          "ticks": 98688,
          "time": 240.9375,
          "velocity": 0.9212598425196851
        },
        {
          "duration": 0.004882812499971578,
          "durationTicks": 2,
          "midi": 44,
          "name": "G#2",
          "ticks": 98784,
          "time": 241.171875,
          "velocity": 0.7716535433070866
        },
        {
          "duration": 0.004882812499971578,
          "durationTicks": 2,
          "midi": 42,
          "name": "F#2",
          "ticks": 98880,
          "time": 241.40625,
          "velocity": 0.7874015748031497
        },
        {
          "duration": 0.004882812499971578,
          "durationTicks": 2,
          "midi": 38,
          "name": "D2",
          "ticks": 98880,
          "time": 241.40625,
          "velocity": 0.7874015748031497
        },
        {
          "duration": 0.004882812499971578,
          "durationTicks": 2,
          "midi": 44,
          "name": "G#2",
          "ticks": 98976,
          "time": 241.640625,
          "velocity": 0.6929133858267716
        },
        {
          "duration": 0.004882812499971578,
          "durationTicks": 2,
          "midi": 42,
          "name": "F#2",
          "ticks": 99072,
          "time": 241.875,
          "velocity": 0.6850393700787402
        },
        {
          "duration": 0.004882812499971578,
          "durationTicks": 2,
          "midi": 35,
          "name": "B1",
          "ticks": 99072,
          "time": 241.875,
          "velocity": 0.9448818897637795
        },
        {
          "duration": 0.004882812499971578,
          "durationTicks": 2,
          "midi": 44,
          "name": "G#2",
          "ticks": 99168,
          "time": 242.109375,
          "velocity": 0.7559055118110236
        },
        {
          "duration": 0.004882812499971578,
          "durationTicks": 2,
          "midi": 42,
          "name": "F#2",
          "ticks": 99264,
          "time": 242.34375,
          "velocity": 0.7401574803149606
        },
        {
          "duration": 0.004882812499971578,
          "durationTicks": 2,
          "midi": 38,
          "name": "D2",
          "ticks": 99264,
          "time": 242.34375,
          "velocity": 0.7874015748031497
        },
        {
          "duration": 0.004882812499971578,
          "durationTicks": 2,
          "midi": 46,
          "name": "A#2",
          "ticks": 99360,
          "time": 242.578125,
          "velocity": 0.6377952755905512
        },
        {
          "duration": 0.004882812499971578,
          "durationTicks": 2,
          "midi": 42,
          "name": "F#2",
          "ticks": 99456,
          "time": 242.8125,
          "velocity": 0.7086614173228346
        },
        {
          "duration": 0.004882812499971578,
          "durationTicks": 2,
          "midi": 35,
          "name": "B1",
          "ticks": 99456,
          "time": 242.8125,
          "velocity": 0.9212598425196851
        },
        {
          "duration": 0.004882812499971578,
          "durationTicks": 2,
          "midi": 44,
          "name": "G#2",
          "ticks": 99552,
          "time": 243.046875,
          "velocity": 0.7322834645669292
        },
        {
          "duration": 0.004882812499971578,
          "durationTicks": 2,
          "midi": 42,
          "name": "F#2",
          "ticks": 99648,
          "time": 243.28125,
          "velocity": 0.7559055118110236
        },
        {
          "duration": 0.004882812499971578,
          "durationTicks": 2,
          "midi": 38,
          "name": "D2",
          "ticks": 99648,
          "time": 243.28125,
          "velocity": 0.7874015748031497
        },
        {
          "duration": 0.004882812499971578,
          "durationTicks": 2,
          "midi": 44,
          "name": "G#2",
          "ticks": 99744,
          "time": 243.515625,
          "velocity": 0.7874015748031497
        },
        {
          "duration": 0.004882812499971578,
          "durationTicks": 2,
          "midi": 42,
          "name": "F#2",
          "ticks": 99840,
          "time": 243.75,
          "velocity": 0.7244094488188977
        },
        {
          "duration": 0.004882812499971578,
          "durationTicks": 2,
          "midi": 35,
          "name": "B1",
          "ticks": 99840,
          "time": 243.75,
          "velocity": 0.9448818897637795
        },
        {
          "duration": 0.004882812499971578,
          "durationTicks": 2,
          "midi": 44,
          "name": "G#2",
          "ticks": 99936,
          "time": 243.984375,
          "velocity": 0.7165354330708661
        },
        {
          "duration": 0.004882812499971578,
          "durationTicks": 2,
          "midi": 42,
          "name": "F#2",
          "ticks": 100032,
          "time": 244.21875,
          "velocity": 0.6456692913385826
        },
        {
          "duration": 0.004882812499971578,
          "durationTicks": 2,
          "midi": 38,
          "name": "D2",
          "ticks": 100032,
          "time": 244.21875,
          "velocity": 0.7874015748031497
        },
        {
          "duration": 0.004882812499971578,
          "durationTicks": 2,
          "midi": 44,
          "name": "G#2",
          "ticks": 100128,
          "time": 244.453125,
          "velocity": 0.7559055118110236
        },
        {
          "duration": 0.004882812499971578,
          "durationTicks": 2,
          "midi": 42,
          "name": "F#2",
          "ticks": 100224,
          "time": 244.6875,
          "velocity": 0.7244094488188977
        },
        {
          "duration": 0.004882812499971578,
          "durationTicks": 2,
          "midi": 35,
          "name": "B1",
          "ticks": 100224,
          "time": 244.6875,
          "velocity": 0.9212598425196851
        },
        {
          "duration": 0.004882812499971578,
          "durationTicks": 2,
          "midi": 44,
          "name": "G#2",
          "ticks": 100320,
          "time": 244.921875,
          "velocity": 0.7716535433070866
        },
        {
          "duration": 0.004882812499971578,
          "durationTicks": 2,
          "midi": 42,
          "name": "F#2",
          "ticks": 100416,
          "time": 245.15625,
          "velocity": 0.7874015748031497
        },
        {
          "duration": 0.004882812499971578,
          "durationTicks": 2,
          "midi": 38,
          "name": "D2",
          "ticks": 100416,
          "time": 245.15625,
          "velocity": 0.7874015748031497
        },
        {
          "duration": 0.004882812499971578,
          "durationTicks": 2,
          "midi": 44,
          "name": "G#2",
          "ticks": 100512,
          "time": 245.390625,
          "velocity": 0.6929133858267716
        },
        {
          "duration": 0.004882812499971578,
          "durationTicks": 2,
          "midi": 42,
          "name": "F#2",
          "ticks": 100608,
          "time": 245.625,
          "velocity": 0.6850393700787402
        },
        {
          "duration": 0.004882812499971578,
          "durationTicks": 2,
          "midi": 35,
          "name": "B1",
          "ticks": 100608,
          "time": 245.625,
          "velocity": 0.9448818897637795
        },
        {
          "duration": 0.004882812499971578,
          "durationTicks": 2,
          "midi": 44,
          "name": "G#2",
          "ticks": 100704,
          "time": 245.859375,
          "velocity": 0.7559055118110236
        },
        {
          "duration": 0.004882812499971578,
          "durationTicks": 2,
          "midi": 42,
          "name": "F#2",
          "ticks": 100800,
          "time": 246.09375,
          "velocity": 0.7401574803149606
        },
        {
          "duration": 0.004882812499971578,
          "durationTicks": 2,
          "midi": 38,
          "name": "D2",
          "ticks": 100800,
          "time": 246.09375,
          "velocity": 0.7874015748031497
        },
        {
          "duration": 0.004882812499971578,
          "durationTicks": 2,
          "midi": 46,
          "name": "A#2",
          "ticks": 100896,
          "time": 246.328125,
          "velocity": 0.6377952755905512
        },
        {
          "duration": 0.004882812499971578,
          "durationTicks": 2,
          "midi": 49,
          "name": "C#3",
          "ticks": 100992,
          "time": 246.5625,
          "velocity": 0.6377952755905512
        },
        {
          "duration": 0.004882812499971578,
          "durationTicks": 2,
          "midi": 35,
          "name": "B1",
          "ticks": 100992,
          "time": 246.5625,
          "velocity": 0.9212598425196851
        },
        {
          "duration": 0.004882812499971578,
          "durationTicks": 2,
          "midi": 44,
          "name": "G#2",
          "ticks": 101088,
          "time": 246.796875,
          "velocity": 0.9606299212598425
        },
        {
          "duration": 0.004882812499971578,
          "durationTicks": 2,
          "midi": 42,
          "name": "F#2",
          "ticks": 101136,
          "time": 246.9140625,
          "velocity": 0.9291338582677166
        },
        {
          "duration": 0.004882812499971578,
          "durationTicks": 2,
          "midi": 42,
          "name": "F#2",
          "ticks": 101184,
          "time": 247.03125,
          "velocity": 0.8346456692913385
        },
        {
          "duration": 0.004882812499971578,
          "durationTicks": 2,
          "midi": 38,
          "name": "D2",
          "ticks": 101184,
          "time": 247.03125,
          "velocity": 0.7874015748031497
        },
        {
          "duration": 0.004882812499971578,
          "durationTicks": 2,
          "midi": 44,
          "name": "G#2",
          "ticks": 101280,
          "time": 247.265625,
          "velocity": 0.8661417322834646
        },
        {
          "duration": 0.004882812499971578,
          "durationTicks": 2,
          "midi": 42,
          "name": "F#2",
          "ticks": 101376,
          "time": 247.5,
          "velocity": 0.8031496062992126
        },
        {
          "duration": 0.004882812499971578,
          "durationTicks": 2,
          "midi": 35,
          "name": "B1",
          "ticks": 101376,
          "time": 247.5,
          "velocity": 0.9448818897637795
        },
        {
          "duration": 0.004882812499971578,
          "durationTicks": 2,
          "midi": 44,
          "name": "G#2",
          "ticks": 101472,
          "time": 247.734375,
          "velocity": 0.7952755905511811
        },
        {
          "duration": 0.004882812499971578,
          "durationTicks": 2,
          "midi": 42,
          "name": "F#2",
          "ticks": 101568,
          "time": 247.96875,
          "velocity": 0.7244094488188977
        },
        {
          "duration": 0.004882812499971578,
          "durationTicks": 2,
          "midi": 38,
          "name": "D2",
          "ticks": 101568,
          "time": 247.96875,
          "velocity": 0.7874015748031497
        },
        {
          "duration": 0.004882812499971578,
          "durationTicks": 2,
          "midi": 44,
          "name": "G#2",
          "ticks": 101664,
          "time": 248.203125,
          "velocity": 0.8346456692913385
        },
        {
          "duration": 0.004882812499971578,
          "durationTicks": 2,
          "midi": 42,
          "name": "F#2",
          "ticks": 101760,
          "time": 248.4375,
          "velocity": 0.8031496062992126
        },
        {
          "duration": 0.004882812499971578,
          "durationTicks": 2,
          "midi": 35,
          "name": "B1",
          "ticks": 101760,
          "time": 248.4375,
          "velocity": 0.9212598425196851
        },
        {
          "duration": 0.004882812499971578,
          "durationTicks": 2,
          "midi": 44,
          "name": "G#2",
          "ticks": 101856,
          "time": 248.671875,
          "velocity": 0.8503937007874016
        },
        {
          "duration": 0.004882812499971578,
          "durationTicks": 2,
          "midi": 42,
          "name": "F#2",
          "ticks": 101952,
          "time": 248.90625,
          "velocity": 0.8661417322834646
        },
        {
          "duration": 0.004882812499971578,
          "durationTicks": 2,
          "midi": 38,
          "name": "D2",
          "ticks": 101952,
          "time": 248.90625,
          "velocity": 0.7874015748031497
        },
        {
          "duration": 0.004882812499971578,
          "durationTicks": 2,
          "midi": 44,
          "name": "G#2",
          "ticks": 102048,
          "time": 249.140625,
          "velocity": 0.7716535433070866
        },
        {
          "duration": 0.004882812499971578,
          "durationTicks": 2,
          "midi": 42,
          "name": "F#2",
          "ticks": 102144,
          "time": 249.375,
          "velocity": 0.7637795275590551
        },
        {
          "duration": 0.004882812499971578,
          "durationTicks": 2,
          "midi": 35,
          "name": "B1",
          "ticks": 102144,
          "time": 249.375,
          "velocity": 0.9448818897637795
        },
        {
          "duration": 0.004882812499971578,
          "durationTicks": 2,
          "midi": 44,
          "name": "G#2",
          "ticks": 102240,
          "time": 249.609375,
          "velocity": 0.8346456692913385
        },
        {
          "duration": 0.004882812499971578,
          "durationTicks": 2,
          "midi": 42,
          "name": "F#2",
          "ticks": 102336,
          "time": 249.84375,
          "velocity": 0.8188976377952756
        },
        {
          "duration": 0.004882812499971578,
          "durationTicks": 2,
          "midi": 38,
          "name": "D2",
          "ticks": 102336,
          "time": 249.84375,
          "velocity": 0.7874015748031497
        },
        {
          "duration": 0.004882812499971578,
          "durationTicks": 2,
          "midi": 44,
          "name": "G#2",
          "ticks": 102432,
          "time": 250.078125,
          "velocity": 0.7086614173228346
        },
        {
          "duration": 0.004882812499971578,
          "durationTicks": 2,
          "midi": 42,
          "name": "F#2",
          "ticks": 102528,
          "time": 250.3125,
          "velocity": 0.7874015748031497
        },
        {
          "duration": 0.004882812499971578,
          "durationTicks": 2,
          "midi": 35,
          "name": "B1",
          "ticks": 102528,
          "time": 250.3125,
          "velocity": 0.9212598425196851
        },
        {
          "duration": 0.004882812499971578,
          "durationTicks": 2,
          "midi": 44,
          "name": "G#2",
          "ticks": 102624,
          "time": 250.546875,
          "velocity": 0.9606299212598425
        },
        {
          "duration": 0.004882812499971578,
          "durationTicks": 2,
          "midi": 42,
          "name": "F#2",
          "ticks": 102672,
          "time": 250.6640625,
          "velocity": 0.9291338582677166
        },
        {
          "duration": 0.004882812499971578,
          "durationTicks": 2,
          "midi": 42,
          "name": "F#2",
          "ticks": 102720,
          "time": 250.78125,
          "velocity": 0.8346456692913385
        },
        {
          "duration": 0.004882812499971578,
          "durationTicks": 2,
          "midi": 38,
          "name": "D2",
          "ticks": 102720,
          "time": 250.78125,
          "velocity": 0.7874015748031497
        },
        {
          "duration": 0.004882812499971578,
          "durationTicks": 2,
          "midi": 44,
          "name": "G#2",
          "ticks": 102816,
          "time": 251.015625,
          "velocity": 0.8661417322834646
        },
        {
          "duration": 0.004882812499971578,
          "durationTicks": 2,
          "midi": 42,
          "name": "F#2",
          "ticks": 102912,
          "time": 251.25,
          "velocity": 0.8031496062992126
        },
        {
          "duration": 0.004882812499971578,
          "durationTicks": 2,
          "midi": 35,
          "name": "B1",
          "ticks": 102912,
          "time": 251.25,
          "velocity": 0.9448818897637795
        },
        {
          "duration": 0.004882812499971578,
          "durationTicks": 2,
          "midi": 44,
          "name": "G#2",
          "ticks": 103008,
          "time": 251.484375,
          "velocity": 0.7952755905511811
        },
        {
          "duration": 0.004882812499971578,
          "durationTicks": 2,
          "midi": 42,
          "name": "F#2",
          "ticks": 103104,
          "time": 251.71875,
          "velocity": 0.7244094488188977
        },
        {
          "duration": 0.004882812499971578,
          "durationTicks": 2,
          "midi": 38,
          "name": "D2",
          "ticks": 103104,
          "time": 251.71875,
          "velocity": 0.7874015748031497
        },
        {
          "duration": 0.004882812499971578,
          "durationTicks": 2,
          "midi": 44,
          "name": "G#2",
          "ticks": 103200,
          "time": 251.953125,
          "velocity": 0.8346456692913385
        },
        {
          "duration": 0.004882812499971578,
          "durationTicks": 2,
          "midi": 42,
          "name": "F#2",
          "ticks": 103296,
          "time": 252.1875,
          "velocity": 0.8031496062992126
        },
        {
          "duration": 0.004882812499971578,
          "durationTicks": 2,
          "midi": 35,
          "name": "B1",
          "ticks": 103296,
          "time": 252.1875,
          "velocity": 0.9212598425196851
        },
        {
          "duration": 0.004882812499971578,
          "durationTicks": 2,
          "midi": 44,
          "name": "G#2",
          "ticks": 103392,
          "time": 252.421875,
          "velocity": 0.8503937007874016
        },
        {
          "duration": 0.004882812499971578,
          "durationTicks": 2,
          "midi": 42,
          "name": "F#2",
          "ticks": 103488,
          "time": 252.65625,
          "velocity": 0.8661417322834646
        },
        {
          "duration": 0.004882812499971578,
          "durationTicks": 2,
          "midi": 38,
          "name": "D2",
          "ticks": 103488,
          "time": 252.65625,
          "velocity": 0.7874015748031497
        },
        {
          "duration": 0.004882812499971578,
          "durationTicks": 2,
          "midi": 44,
          "name": "G#2",
          "ticks": 103584,
          "time": 252.890625,
          "velocity": 0.7716535433070866
        },
        {
          "duration": 0.004882812499971578,
          "durationTicks": 2,
          "midi": 42,
          "name": "F#2",
          "ticks": 103680,
          "time": 253.125,
          "velocity": 0.7637795275590551
        },
        {
          "duration": 0.004882812499971578,
          "durationTicks": 2,
          "midi": 35,
          "name": "B1",
          "ticks": 103680,
          "time": 253.125,
          "velocity": 0.9448818897637795
        },
        {
          "duration": 0.004882812499971578,
          "durationTicks": 2,
          "midi": 44,
          "name": "G#2",
          "ticks": 103776,
          "time": 253.359375,
          "velocity": 0.8346456692913385
        },
        {
          "duration": 0.004882812499971578,
          "durationTicks": 2,
          "midi": 42,
          "name": "F#2",
          "ticks": 103872,
          "time": 253.59375,
          "velocity": 0.8188976377952756
        },
        {
          "duration": 0.004882812499971578,
          "durationTicks": 2,
          "midi": 38,
          "name": "D2",
          "ticks": 103872,
          "time": 253.59375,
          "velocity": 0.7874015748031497
        },
        {
          "duration": 0.004882812499971578,
          "durationTicks": 2,
          "midi": 44,
          "name": "G#2",
          "ticks": 103968,
          "time": 253.828125,
          "velocity": 0.7086614173228346
        },
        {
          "duration": 0.004882812499971578,
          "durationTicks": 2,
          "midi": 42,
          "name": "F#2",
          "ticks": 104064,
          "time": 254.0625,
          "velocity": 0.905511811023622
        },
        {
          "duration": 0.004882812499971578,
          "durationTicks": 2,
          "midi": 35,
          "name": "B1",
          "ticks": 104064,
          "time": 254.0625,
          "velocity": 0.9448818897637795
        },
        {
          "duration": 0.004882812499971578,
          "durationTicks": 2,
          "midi": 44,
          "name": "G#2",
          "ticks": 104160,
          "time": 254.296875,
          "velocity": 0.9606299212598425
        },
        {
          "duration": 0.004882812499971578,
          "durationTicks": 2,
          "midi": 42,
          "name": "F#2",
          "ticks": 104208,
          "time": 254.4140625,
          "velocity": 0.9291338582677166
        },
        {
          "duration": 0.004882812499971578,
          "durationTicks": 2,
          "midi": 42,
          "name": "F#2",
          "ticks": 104256,
          "time": 254.53125,
          "velocity": 0.8346456692913385
        },
        {
          "duration": 0.004882812499971578,
          "durationTicks": 2,
          "midi": 38,
          "name": "D2",
          "ticks": 104256,
          "time": 254.53125,
          "velocity": 0.7874015748031497
        },
        {
          "duration": 0.004882812499971578,
          "durationTicks": 2,
          "midi": 44,
          "name": "G#2",
          "ticks": 104352,
          "time": 254.765625,
          "velocity": 0.7244094488188977
        },
        {
          "duration": 0.004882812499971578,
          "durationTicks": 2,
          "midi": 42,
          "name": "F#2",
          "ticks": 104448,
          "time": 255,
          "velocity": 0.7637795275590551
        },
        {
          "duration": 0.004882812499971578,
          "durationTicks": 2,
          "midi": 35,
          "name": "B1",
          "ticks": 104448,
          "time": 255,
          "velocity": 0.9212598425196851
        },
        {
          "duration": 0.004882812499971578,
          "durationTicks": 2,
          "midi": 44,
          "name": "G#2",
          "ticks": 104544,
          "time": 255.234375,
          "velocity": 0.7165354330708661
        },
        {
          "duration": 0.004882812499971578,
          "durationTicks": 2,
          "midi": 42,
          "name": "F#2",
          "ticks": 104640,
          "time": 255.46875,
          "velocity": 0.7559055118110236
        },
        {
          "duration": 0.004882812499971578,
          "durationTicks": 2,
          "midi": 38,
          "name": "D2",
          "ticks": 104640,
          "time": 255.46875,
          "velocity": 0.7874015748031497
        },
        {
          "duration": 0.004882812499971578,
          "durationTicks": 2,
          "midi": 44,
          "name": "G#2",
          "ticks": 104736,
          "time": 255.703125,
          "velocity": 0.8346456692913385
        },
        {
          "duration": 0.004882812499971578,
          "durationTicks": 2,
          "midi": 42,
          "name": "F#2",
          "ticks": 104832,
          "time": 255.9375,
          "velocity": 0.937007874015748
        },
        {
          "duration": 0.004882812499971578,
          "durationTicks": 2,
          "midi": 35,
          "name": "B1",
          "ticks": 104832,
          "time": 255.9375,
          "velocity": 0.9448818897637795
        },
        {
          "duration": 0.0048828125,
          "durationTicks": 2,
          "midi": 44,
          "name": "G#2",
          "ticks": 104928,
          "time": 256.171875,
          "velocity": 0.7874015748031497
        },
        {
          "duration": 0.0048828125,
          "durationTicks": 2,
          "midi": 42,
          "name": "F#2",
          "ticks": 105024,
          "time": 256.40625,
          "velocity": 0.7637795275590551
        },
        {
          "duration": 0.0048828125,
          "durationTicks": 2,
          "midi": 38,
          "name": "D2",
          "ticks": 105024,
          "time": 256.40625,
          "velocity": 0.7874015748031497
        },
        {
          "duration": 0.0048828125,
          "durationTicks": 2,
          "midi": 44,
          "name": "G#2",
          "ticks": 105120,
          "time": 256.640625,
          "velocity": 0.8346456692913385
        },
        {
          "duration": 0.0048828125,
          "durationTicks": 2,
          "midi": 42,
          "name": "F#2",
          "ticks": 105216,
          "time": 256.875,
          "velocity": 0.7874015748031497
        },
        {
          "duration": 0.0048828125,
          "durationTicks": 2,
          "midi": 35,
          "name": "B1",
          "ticks": 105216,
          "time": 256.875,
          "velocity": 0.9448818897637795
        },
        {
          "duration": 0.0048828125,
          "durationTicks": 2,
          "midi": 44,
          "name": "G#2",
          "ticks": 105312,
          "time": 257.109375,
          "velocity": 0.7559055118110236
        },
        {
          "duration": 0.0048828125,
          "durationTicks": 2,
          "midi": 42,
          "name": "F#2",
          "ticks": 105408,
          "time": 257.34375,
          "velocity": 0.8031496062992126
        },
        {
          "duration": 0.0048828125,
          "durationTicks": 2,
          "midi": 38,
          "name": "D2",
          "ticks": 105408,
          "time": 257.34375,
          "velocity": 0.7874015748031497
        },
        {
          "duration": 0.0048828125,
          "durationTicks": 2,
          "midi": 44,
          "name": "G#2",
          "ticks": 105504,
          "time": 257.578125,
          "velocity": 0.7559055118110236
        },
        {
          "duration": 0.0048828125,
          "durationTicks": 2,
          "midi": 42,
          "name": "F#2",
          "ticks": 105600,
          "time": 257.8125,
          "velocity": 0.7874015748031497
        },
        {
          "duration": 0.0048828125,
          "durationTicks": 2,
          "midi": 35,
          "name": "B1",
          "ticks": 105600,
          "time": 257.8125,
          "velocity": 0.9212598425196851
        },
        {
          "duration": 0.0048828125,
          "durationTicks": 2,
          "midi": 44,
          "name": "G#2",
          "ticks": 105696,
          "time": 258.046875,
          "velocity": 0.9606299212598425
        },
        {
          "duration": 0.0048828125,
          "durationTicks": 2,
          "midi": 42,
          "name": "F#2",
          "ticks": 105744,
          "time": 258.1640625,
          "velocity": 0.9291338582677166
        },
        {
          "duration": 0.0048828125,
          "durationTicks": 2,
          "midi": 42,
          "name": "F#2",
          "ticks": 105792,
          "time": 258.28125,
          "velocity": 0.8346456692913385
        },
        {
          "duration": 0.0048828125,
          "durationTicks": 2,
          "midi": 38,
          "name": "D2",
          "ticks": 105792,
          "time": 258.28125,
          "velocity": 0.7874015748031497
        },
        {
          "duration": 0.0048828125,
          "durationTicks": 2,
          "midi": 44,
          "name": "G#2",
          "ticks": 105888,
          "time": 258.515625,
          "velocity": 0.8661417322834646
        },
        {
          "duration": 0.0048828125,
          "durationTicks": 2,
          "midi": 42,
          "name": "F#2",
          "ticks": 105984,
          "time": 258.75,
          "velocity": 0.8031496062992126
        },
        {
          "duration": 0.0048828125,
          "durationTicks": 2,
          "midi": 35,
          "name": "B1",
          "ticks": 105984,
          "time": 258.75,
          "velocity": 0.9448818897637795
        },
        {
          "duration": 0.0048828125,
          "durationTicks": 2,
          "midi": 44,
          "name": "G#2",
          "ticks": 106080,
          "time": 258.984375,
          "velocity": 0.7952755905511811
        },
        {
          "duration": 0.0048828125,
          "durationTicks": 2,
          "midi": 42,
          "name": "F#2",
          "ticks": 106176,
          "time": 259.21875,
          "velocity": 0.7244094488188977
        },
        {
          "duration": 0.0048828125,
          "durationTicks": 2,
          "midi": 38,
          "name": "D2",
          "ticks": 106176,
          "time": 259.21875,
          "velocity": 0.7874015748031497
        },
        {
          "duration": 0.0048828125,
          "durationTicks": 2,
          "midi": 44,
          "name": "G#2",
          "ticks": 106272,
          "time": 259.453125,
          "velocity": 0.8346456692913385
        },
        {
          "duration": 0.0048828125,
          "durationTicks": 2,
          "midi": 42,
          "name": "F#2",
          "ticks": 106368,
          "time": 259.6875,
          "velocity": 0.8031496062992126
        },
        {
          "duration": 0.0048828125,
          "durationTicks": 2,
          "midi": 35,
          "name": "B1",
          "ticks": 106368,
          "time": 259.6875,
          "velocity": 0.9212598425196851
        },
        {
          "duration": 0.0048828125,
          "durationTicks": 2,
          "midi": 44,
          "name": "G#2",
          "ticks": 106464,
          "time": 259.921875,
          "velocity": 0.8503937007874016
        },
        {
          "duration": 0.0048828125,
          "durationTicks": 2,
          "midi": 42,
          "name": "F#2",
          "ticks": 106560,
          "time": 260.15625,
          "velocity": 0.8661417322834646
        },
        {
          "duration": 0.0048828125,
          "durationTicks": 2,
          "midi": 38,
          "name": "D2",
          "ticks": 106560,
          "time": 260.15625,
          "velocity": 0.7874015748031497
        },
        {
          "duration": 0.0048828125,
          "durationTicks": 2,
          "midi": 46,
          "name": "A#2",
          "ticks": 106656,
          "time": 260.390625,
          "velocity": 0.8582677165354331
        },
        {
          "duration": 0.0048828125,
          "durationTicks": 2,
          "midi": 42,
          "name": "F#2",
          "ticks": 106752,
          "time": 260.625,
          "velocity": 0.7637795275590551
        },
        {
          "duration": 0.0048828125,
          "durationTicks": 2,
          "midi": 35,
          "name": "B1",
          "ticks": 106752,
          "time": 260.625,
          "velocity": 0.9448818897637795
        },
        {
          "duration": 0.0048828125,
          "durationTicks": 2,
          "midi": 44,
          "name": "G#2",
          "ticks": 106848,
          "time": 260.859375,
          "velocity": 0.8346456692913385
        },
        {
          "duration": 0.0048828125,
          "durationTicks": 2,
          "midi": 42,
          "name": "F#2",
          "ticks": 106944,
          "time": 261.09375,
          "velocity": 0.8188976377952756
        },
        {
          "duration": 0.0048828125,
          "durationTicks": 2,
          "midi": 38,
          "name": "D2",
          "ticks": 106944,
          "time": 261.09375,
          "velocity": 0.7874015748031497
        },
        {
          "duration": 0.0048828125,
          "durationTicks": 2,
          "midi": 44,
          "name": "G#2",
          "ticks": 107040,
          "time": 261.328125,
          "velocity": 0.7086614173228346
        },
        {
          "duration": 0.0048828125,
          "durationTicks": 2,
          "midi": 42,
          "name": "F#2",
          "ticks": 107136,
          "time": 261.5625,
          "velocity": 0.905511811023622
        },
        {
          "duration": 0.0048828125,
          "durationTicks": 2,
          "midi": 35,
          "name": "B1",
          "ticks": 107136,
          "time": 261.5625,
          "velocity": 0.9448818897637795
        },
        {
          "duration": 0.0048828125,
          "durationTicks": 2,
          "midi": 44,
          "name": "G#2",
          "ticks": 107232,
          "time": 261.796875,
          "velocity": 0.7716535433070866
        },
        {
          "duration": 0.0048828125,
          "durationTicks": 2,
          "midi": 42,
          "name": "F#2",
          "ticks": 107328,
          "time": 262.03125,
          "velocity": 0.6692913385826772
        },
        {
          "duration": 0.0048828125,
          "durationTicks": 2,
          "midi": 38,
          "name": "D2",
          "ticks": 107328,
          "time": 262.03125,
          "velocity": 0.7874015748031497
        },
        {
          "duration": 0.0048828125,
          "durationTicks": 2,
          "midi": 44,
          "name": "G#2",
          "ticks": 107424,
          "time": 262.265625,
          "velocity": 0.7244094488188977
        },
        {
          "duration": 0.0048828125,
          "durationTicks": 2,
          "midi": 42,
          "name": "F#2",
          "ticks": 107520,
          "time": 262.5,
          "velocity": 0.7637795275590551
        },
        {
          "duration": 0.0048828125,
          "durationTicks": 2,
          "midi": 35,
          "name": "B1",
          "ticks": 107520,
          "time": 262.5,
          "velocity": 0.9212598425196851
        },
        {
          "duration": 0.0048828125,
          "durationTicks": 2,
          "midi": 44,
          "name": "G#2",
          "ticks": 107616,
          "time": 262.734375,
          "velocity": 0.7165354330708661
        },
        {
          "duration": 0.0048828125,
          "durationTicks": 2,
          "midi": 38,
          "name": "D2",
          "ticks": 107616,
          "time": 262.734375,
          "velocity": 0.5275590551181102
        },
        {
          "duration": 0.0048828125,
          "durationTicks": 2,
          "midi": 42,
          "name": "F#2",
          "ticks": 107712,
          "time": 262.96875,
          "velocity": 0.7559055118110236
        },
        {
          "duration": 0.0048828125,
          "durationTicks": 2,
          "midi": 38,
          "name": "D2",
          "ticks": 107712,
          "time": 262.96875,
          "velocity": 0.5275590551181102
        },
        {
          "duration": 0.0048828125,
          "durationTicks": 2,
          "midi": 44,
          "name": "G#2",
          "ticks": 107808,
          "time": 263.203125,
          "velocity": 0.8346456692913385
        },
        {
          "duration": 0.0048828125,
          "durationTicks": 2,
          "midi": 38,
          "name": "D2",
          "ticks": 107808,
          "time": 263.203125,
          "velocity": 0.7165354330708661
        },
        {
          "duration": 0.0048828125,
          "durationTicks": 2,
          "midi": 42,
          "name": "F#2",
          "ticks": 107904,
          "time": 263.4375,
          "velocity": 0.937007874015748
        },
        {
          "duration": 0.0048828125,
          "durationTicks": 2,
          "midi": 38,
          "name": "D2",
          "ticks": 107904,
          "time": 263.4375,
          "velocity": 0.7874015748031497
        },
        {
          "duration": 0.0048828125,
          "durationTicks": 2,
          "midi": 35,
          "name": "B1",
          "ticks": 107904,
          "time": 263.4375,
          "velocity": 0.9448818897637795
        },
        {
          "duration": 0.0048828125,
          "durationTicks": 2,
          "midi": 46,
          "name": "A#2",
          "ticks": 108000,
          "time": 263.671875,
          "velocity": 0.7952755905511811
        },
        {
          "duration": 0.0048828125,
          "durationTicks": 2,
          "midi": 42,
          "name": "F#2",
          "ticks": 108096,
          "time": 263.90625,
          "velocity": 0.7637795275590551
        },
        {
          "duration": 0.0048828125,
          "durationTicks": 2,
          "midi": 38,
          "name": "D2",
          "ticks": 108096,
          "time": 263.90625,
          "velocity": 0.7874015748031497
        },
        {
          "duration": 0.0048828125,
          "durationTicks": 2,
          "midi": 44,
          "name": "G#2",
          "ticks": 108192,
          "time": 264.140625,
          "velocity": 0.8346456692913385
        },
        {
          "duration": 0.0048828125,
          "durationTicks": 2,
          "midi": 55,
          "name": "G3",
          "ticks": 108288,
          "time": 264.375,
          "velocity": 0.8661417322834646
        },
        {
          "duration": 0.0048828125,
          "durationTicks": 2,
          "midi": 35,
          "name": "B1",
          "ticks": 108288,
          "time": 264.375,
          "velocity": 0.9448818897637795
        },
        {
          "duration": 0.0048828125,
          "durationTicks": 2,
          "midi": 44,
          "name": "G#2",
          "ticks": 108384,
          "time": 264.609375,
          "velocity": 0.6929133858267716
        },
        {
          "duration": 0.0048828125,
          "durationTicks": 2,
          "midi": 42,
          "name": "F#2",
          "ticks": 108480,
          "time": 264.84375,
          "velocity": 0.5905511811023622
        },
        {
          "duration": 0.0048828125,
          "durationTicks": 2,
          "midi": 38,
          "name": "D2",
          "ticks": 108480,
          "time": 264.84375,
          "velocity": 0.7874015748031497
        },
        {
          "duration": 0.0048828125,
          "durationTicks": 2,
          "midi": 44,
          "name": "G#2",
          "ticks": 108576,
          "time": 265.078125,
          "velocity": 0.6456692913385826
        },
        {
          "duration": 0.0048828125,
          "durationTicks": 2,
          "midi": 42,
          "name": "F#2",
          "ticks": 108672,
          "time": 265.3125,
          "velocity": 0.6850393700787402
        },
        {
          "duration": 0.0048828125,
          "durationTicks": 2,
          "midi": 35,
          "name": "B1",
          "ticks": 108672,
          "time": 265.3125,
          "velocity": 0.9212598425196851
        },
        {
          "duration": 0.0048828125,
          "durationTicks": 2,
          "midi": 44,
          "name": "G#2",
          "ticks": 108768,
          "time": 265.546875,
          "velocity": 0.6377952755905512
        },
        {
          "duration": 0.0048828125,
          "durationTicks": 2,
          "midi": 42,
          "name": "F#2",
          "ticks": 108864,
          "time": 265.78125,
          "velocity": 0.6771653543307087
        },
        {
          "duration": 0.0048828125,
          "durationTicks": 2,
          "midi": 38,
          "name": "D2",
          "ticks": 108864,
          "time": 265.78125,
          "velocity": 0.7874015748031497
        },
        {
          "duration": 0.0048828125,
          "durationTicks": 2,
          "midi": 44,
          "name": "G#2",
          "ticks": 108960,
          "time": 266.015625,
          "velocity": 0.7559055118110236
        },
        {
          "duration": 0.0048828125,
          "durationTicks": 2,
          "midi": 42,
          "name": "F#2",
          "ticks": 109056,
          "time": 266.25,
          "velocity": 0.8582677165354331
        },
        {
          "duration": 0.0048828125,
          "durationTicks": 2,
          "midi": 35,
          "name": "B1",
          "ticks": 109056,
          "time": 266.25,
          "velocity": 0.9448818897637795
        },
        {
          "duration": 0.0048828125,
          "durationTicks": 2,
          "midi": 44,
          "name": "G#2",
          "ticks": 109152,
          "time": 266.484375,
          "velocity": 0.7086614173228346
        },
        {
          "duration": 0.0048828125,
          "durationTicks": 2,
          "midi": 42,
          "name": "F#2",
          "ticks": 109248,
          "time": 266.71875,
          "velocity": 0.6850393700787402
        },
        {
          "duration": 0.0048828125,
          "durationTicks": 2,
          "midi": 38,
          "name": "D2",
          "ticks": 109248,
          "time": 266.71875,
          "velocity": 0.7874015748031497
        },
        {
          "duration": 0.0048828125,
          "durationTicks": 2,
          "midi": 44,
          "name": "G#2",
          "ticks": 109344,
          "time": 266.953125,
          "velocity": 0.7559055118110236
        },
        {
          "duration": 0.0048828125,
          "durationTicks": 2,
          "midi": 42,
          "name": "F#2",
          "ticks": 109440,
          "time": 267.1875,
          "velocity": 0.7086614173228346
        },
        {
          "duration": 0.0048828125,
          "durationTicks": 2,
          "midi": 35,
          "name": "B1",
          "ticks": 109440,
          "time": 267.1875,
          "velocity": 0.9448818897637795
        },
        {
          "duration": 0.0048828125,
          "durationTicks": 2,
          "midi": 44,
          "name": "G#2",
          "ticks": 109536,
          "time": 267.421875,
          "velocity": 0.6771653543307087
        },
        {
          "duration": 0.0048828125,
          "durationTicks": 2,
          "midi": 42,
          "name": "F#2",
          "ticks": 109632,
          "time": 267.65625,
          "velocity": 0.7244094488188977
        },
        {
          "duration": 0.0048828125,
          "durationTicks": 2,
          "midi": 38,
          "name": "D2",
          "ticks": 109632,
          "time": 267.65625,
          "velocity": 0.7874015748031497
        },
        {
          "duration": 0.0048828125,
          "durationTicks": 2,
          "midi": 46,
          "name": "A#2",
          "ticks": 109728,
          "time": 267.890625,
          "velocity": 0.6850393700787402
        },
        {
          "duration": 0.0048828125,
          "durationTicks": 2,
          "midi": 42,
          "name": "F#2",
          "ticks": 109824,
          "time": 268.125,
          "velocity": 0.7244094488188977
        },
        {
          "duration": 0.0048828125,
          "durationTicks": 2,
          "midi": 38,
          "name": "D2",
          "ticks": 109824,
          "time": 268.125,
          "velocity": 0.8503937007874016
        },
        {
          "duration": 0.0048828125,
          "durationTicks": 2,
          "midi": 38,
          "name": "D2",
          "ticks": 109872,
          "time": 268.2421875,
          "velocity": 0.8582677165354331
        },
        {
          "duration": 0.0048828125,
          "durationTicks": 2,
          "midi": 38,
          "name": "D2",
          "ticks": 109968,
          "time": 268.4765625,
          "velocity": 0.8031496062992126
        },
        {
          "duration": 0.0048828125,
          "durationTicks": 2,
          "midi": 43,
          "name": "G2",
          "ticks": 110016,
          "time": 268.59375,
          "velocity": 0.8976377952755905
        },
        {
          "duration": 0.0048828125,
          "durationTicks": 2,
          "midi": 38,
          "name": "D2",
          "ticks": 110112,
          "time": 268.828125,
          "velocity": 0.8818897637795275
        },
        {
          "duration": 0.0048828125,
          "durationTicks": 2,
          "midi": 38,
          "name": "D2",
          "ticks": 110304,
          "time": 269.296875,
          "velocity": 0.8582677165354331
        },
        {
          "duration": 0.0048828125,
          "durationTicks": 2,
          "midi": 38,
          "name": "D2",
          "ticks": 110400,
          "time": 269.53125,
          "velocity": 0.8582677165354331
        },
        {
          "duration": 0.0048828125,
          "durationTicks": 2,
          "midi": 35,
          "name": "B1",
          "ticks": 110592,
          "time": 270,
          "velocity": 0.9212598425196851
        },
        {
          "duration": 0.0048828125,
          "durationTicks": 2,
          "midi": 38,
          "name": "D2",
          "ticks": 110736,
          "time": 270.3515625,
          "velocity": 0.8661417322834646
        },
        {
          "duration": 0.0048828125,
          "durationTicks": 2,
          "midi": 38,
          "name": "D2",
          "ticks": 110832,
          "time": 270.5859375,
          "velocity": 0.8346456692913385
        },
        {
          "duration": 0.0048828125,
          "durationTicks": 2,
          "midi": 38,
          "name": "D2",
          "ticks": 110880,
          "time": 270.703125,
          "velocity": 0.8110236220472441
        },
        {
          "duration": 0.0048828125,
          "durationTicks": 2,
          "midi": 38,
          "name": "D2",
          "ticks": 111072,
          "time": 271.171875,
          "velocity": 0.8110236220472441
        },
        {
          "duration": 0.0048828125,
          "durationTicks": 2,
          "midi": 38,
          "name": "D2",
          "ticks": 111168,
          "time": 271.40625,
          "velocity": 0.8110236220472441
        },
        {
          "duration": 0.0048828125,
          "durationTicks": 2,
          "midi": 35,
          "name": "B1",
          "ticks": 111168,
          "time": 271.40625,
          "velocity": 0.9212598425196851
        }
      ],
      "endOfTrackTicks": 112128
    },
    {
      "channel": 0,
      "controlChanges": {
        "0": [
          {
            "number": 0,
            "ticks": 354,
            "time": 0.8642578125,
            "value": 0
          }
        ],
        "32": [
          {
            "number": 32,
            "ticks": 356,
            "time": 0.869140625,
            "value": 0
          }
        ],
        "121": [
          {
            "number": 121,
            "ticks": 192,
            "time": 0.46875,
            "value": 0
          }
        ]
      },
      "pitchBends": [],
      "instrument": {
        "family": "piano",
        "number": 0,
        "name": "acoustic grand piano"
      },
      "name": "",
      "notes": [],
      "endOfTrackTicks": 112128
    },
    {
      "channel": 10,
      "controlChanges": {
        "7": [
          {
            "number": 7,
            "ticks": 360,
            "time": 0.87890625,
            "value": 0.7480314960629921
          }
        ],
        "10": [
          {
            "number": 10,
            "ticks": 362,
            "time": 0.8837890625,
            "value": 0.49606299212598426
          }
        ],
        "11": [
          {
            "number": 11,
            "ticks": 364,
            "time": 0.888671875,
            "value": 1
          }
        ],
        "91": [
          {
            "number": 91,
            "ticks": 366,
            "time": 0.8935546875,
            "value": 1
          }
        ],
        "93": [
          {
            "number": 93,
            "ticks": 368,
            "time": 0.8984375,
            "value": 0.4251968503937008
          }
        ]
      },
      "pitchBends": [],
      "instrument": {
        "family": "organ",
        "number": 17,
        "name": "percussive organ"
      },
      "name": "",
      "notes": [
        {
          "duration": 0.22216796875,
          "durationTicks": 91,
          "midi": 51,
          "name": "D#3",
          "ticks": 768,
          "time": 1.875,
          "velocity": 0.5748031496062992
        },
        {
          "duration": 0.22216796875,
          "durationTicks": 91,
          "midi": 51,
          "name": "D#3",
          "ticks": 864,
          "time": 2.109375,
          "velocity": 0.6220472440944882
        },
        {
          "duration": 0.22216796875,
          "durationTicks": 91,
          "midi": 46,
          "name": "A#2",
          "ticks": 960,
          "time": 2.34375,
          "velocity": 0.5826771653543307
        },
        {
          "duration": 0.22216796875,
          "durationTicks": 91,
          "midi": 51,
          "name": "D#3",
          "ticks": 1056,
          "time": 2.578125,
          "velocity": 0.5826771653543307
        },
        {
          "duration": 0.22216796875,
          "durationTicks": 91,
          "midi": 50,
          "name": "D3",
          "ticks": 1152,
          "time": 2.8125,
          "velocity": 0.6299212598425197
        },
        {
          "duration": 0.22216796875,
          "durationTicks": 91,
          "midi": 50,
          "name": "D3",
          "ticks": 1248,
          "time": 3.046875,
          "velocity": 0.5826771653543307
        },
        {
          "duration": 0.22216796875,
          "durationTicks": 91,
          "midi": 46,
          "name": "A#2",
          "ticks": 1344,
          "time": 3.28125,
          "velocity": 0.5826771653543307
        },
        {
          "duration": 0.22216796875,
          "durationTicks": 91,
          "midi": 50,
          "name": "D3",
          "ticks": 1440,
          "time": 3.515625,
          "velocity": 0.5905511811023622
        },
        {
          "duration": 0.22216796875000044,
          "durationTicks": 91,
          "midi": 49,
          "name": "C#3",
          "ticks": 1536,
          "time": 3.75,
          "velocity": 0.5433070866141733
        },
        {
          "duration": 0.22216796875,
          "durationTicks": 91,
          "midi": 49,
          "name": "C#3",
          "ticks": 1632,
          "time": 3.984375,
          "velocity": 0.5984251968503937
        },
        {
          "duration": 0.22216796875,
          "durationTicks": 91,
          "midi": 46,
          "name": "A#2",
          "ticks": 1728,
          "time": 4.21875,
          "velocity": 0.6299212598425197
        },
        {
          "duration": 0.10498046875,
          "durationTicks": 43,
          "midi": 49,
          "name": "C#3",
          "ticks": 1824,
          "time": 4.453125,
          "velocity": 0.6299212598425197
        },
        {
          "duration": 0.22216796875,
          "durationTicks": 91,
          "midi": 50,
          "name": "D3",
          "ticks": 1920,
          "time": 4.6875,
          "velocity": 0.6692913385826772
        },
        {
          "duration": 0.22216796875,
          "durationTicks": 91,
          "midi": 50,
          "name": "D3",
          "ticks": 2016,
          "time": 4.921875,
          "velocity": 0.6614173228346457
        },
        {
          "duration": 0.22216796875,
          "durationTicks": 91,
          "midi": 46,
          "name": "A#2",
          "ticks": 2112,
          "time": 5.15625,
          "velocity": 0.5826771653543307
        },
        {
          "duration": 0.22216796875,
          "durationTicks": 91,
          "midi": 50,
          "name": "D3",
          "ticks": 2208,
          "time": 5.390625,
          "velocity": 0.6062992125984252
        },
        {
          "duration": 0.22216796875,
          "durationTicks": 91,
          "midi": 51,
          "name": "D#3",
          "ticks": 2304,
          "time": 5.625,
          "velocity": 0.5905511811023622
        },
        {
          "duration": 0.22216796875,
          "durationTicks": 91,
          "midi": 51,
          "name": "D#3",
          "ticks": 2400,
          "time": 5.859375,
          "velocity": 0.5826771653543307
        },
        {
          "duration": 0.22216796875,
          "durationTicks": 91,
          "midi": 46,
          "name": "A#2",
          "ticks": 2496,
          "time": 6.09375,
          "velocity": 0.5590551181102362
        },
        {
          "duration": 0.22216796875,
          "durationTicks": 91,
          "midi": 51,
          "name": "D#3",
          "ticks": 2592,
          "time": 6.328125,
          "velocity": 0.5118110236220472
        },
        {
          "duration": 0.22216796875,
          "durationTicks": 91,
          "midi": 49,
          "name": "C#3",
          "ticks": 2688,
          "time": 6.5625,
          "velocity": 0.5984251968503937
        },
        {
          "duration": 0.22216796875,
          "durationTicks": 91,
          "midi": 49,
          "name": "C#3",
          "ticks": 2784,
          "time": 6.796875,
          "velocity": 0.5590551181102362
        },
        {
          "duration": 0.22216796875,
          "durationTicks": 91,
          "midi": 44,
          "name": "G#2",
          "ticks": 2880,
          "time": 7.03125,
          "velocity": 0.5826771653543307
        },
        {
          "duration": 0.22216796875,
          "durationTicks": 91,
          "midi": 49,
          "name": "C#3",
          "ticks": 2976,
          "time": 7.265625,
          "velocity": 0.6535433070866141
        },
        {
          "duration": 0.2221679687499991,
          "durationTicks": 91,
          "midi": 47,
          "name": "B2",
          "ticks": 3072,
          "time": 7.5,
          "velocity": 0.5826771653543307
        },
        {
          "duration": 0.2221679687499991,
          "durationTicks": 91,
          "midi": 47,
          "name": "B2",
          "ticks": 3168,
          "time": 7.734375,
          "velocity": 0.5275590551181102
        },
        {
          "duration": 0.22216796875,
          "durationTicks": 91,
          "midi": 42,
          "name": "F#2",
          "ticks": 3264,
          "time": 7.96875,
          "velocity": 0.5826771653543307
        },
        {
          "duration": 0.22216796875,
          "durationTicks": 91,
          "midi": 47,
          "name": "B2",
          "ticks": 3360,
          "time": 8.203125,
          "velocity": 0.6692913385826772
        },
        {
          "duration": 0.22216796875,
          "durationTicks": 91,
          "midi": 46,
          "name": "A#2",
          "ticks": 3456,
          "time": 8.4375,
          "velocity": 0.6220472440944882
        },
        {
          "duration": 0.22216796875,
          "durationTicks": 91,
          "midi": 46,
          "name": "A#2",
          "ticks": 3552,
          "time": 8.671875,
          "velocity": 0.5748031496062992
        },
        {
          "duration": 0.22216796875,
          "durationTicks": 91,
          "midi": 41,
          "name": "F2",
          "ticks": 3648,
          "time": 8.90625,
          "velocity": 0.5826771653543307
        },
        {
          "duration": 0.22216796875,
          "durationTicks": 91,
          "midi": 46,
          "name": "A#2",
          "ticks": 3744,
          "time": 9.140625,
          "velocity": 0.6377952755905512
        },
        {
          "duration": 0.22216796875,
          "durationTicks": 91,
          "midi": 51,
          "name": "D#3",
          "ticks": 3840,
          "time": 9.375,
          "velocity": 0.5748031496062992
        },
        {
          "duration": 0.22216796875,
          "durationTicks": 91,
          "midi": 51,
          "name": "D#3",
          "ticks": 3936,
          "time": 9.609375,
          "velocity": 0.6220472440944882
        },
        {
          "duration": 0.22216796875,
          "durationTicks": 91,
          "midi": 46,
          "name": "A#2",
          "ticks": 4032,
          "time": 9.84375,
          "velocity": 0.5826771653543307
        },
        {
          "duration": 0.22216796875,
          "durationTicks": 91,
          "midi": 51,
          "name": "D#3",
          "ticks": 4128,
          "time": 10.078125,
          "velocity": 0.5826771653543307
        },
        {
          "duration": 0.22216796875,
          "durationTicks": 91,
          "midi": 50,
          "name": "D3",
          "ticks": 4224,
          "time": 10.3125,
          "velocity": 0.6299212598425197
        },
        {
          "duration": 0.22216796875,
          "durationTicks": 91,
          "midi": 50,
          "name": "D3",
          "ticks": 4320,
          "time": 10.546875,
          "velocity": 0.5826771653543307
        },
        {
          "duration": 0.22216796875,
          "durationTicks": 91,
          "midi": 46,
          "name": "A#2",
          "ticks": 4416,
          "time": 10.78125,
          "velocity": 0.5826771653543307
        },
        {
          "duration": 0.22216796875,
          "durationTicks": 91,
          "midi": 50,
          "name": "D3",
          "ticks": 4512,
          "time": 11.015625,
          "velocity": 0.5905511811023622
        },
        {
          "duration": 0.22216796875,
          "durationTicks": 91,
          "midi": 49,
          "name": "C#3",
          "ticks": 4608,
          "time": 11.25,
          "velocity": 0.5433070866141733
        },
        {
          "duration": 0.22216796875,
          "durationTicks": 91,
          "midi": 49,
          "name": "C#3",
          "ticks": 4704,
          "time": 11.484375,
          "velocity": 0.5984251968503937
        },
        {
          "duration": 0.22216796875,
          "durationTicks": 91,
          "midi": 46,
          "name": "A#2",
          "ticks": 4800,
          "time": 11.71875,
          "velocity": 0.6299212598425197
        },
        {
          "duration": 0.10498046875,
          "durationTicks": 43,
          "midi": 49,
          "name": "C#3",
          "ticks": 4896,
          "time": 11.953125,
          "velocity": 0.6299212598425197
        },
        {
          "duration": 0.22216796875,
          "durationTicks": 91,
          "midi": 50,
          "name": "D3",
          "ticks": 4992,
          "time": 12.1875,
          "velocity": 0.6692913385826772
        },
        {
          "duration": 0.22216796875,
          "durationTicks": 91,
          "midi": 50,
          "name": "D3",
          "ticks": 5088,
          "time": 12.421875,
          "velocity": 0.6614173228346457
        },
        {
          "duration": 0.22216796875,
          "durationTicks": 91,
          "midi": 46,
          "name": "A#2",
          "ticks": 5184,
          "time": 12.65625,
          "velocity": 0.5826771653543307
        },
        {
          "duration": 0.22216796875,
          "durationTicks": 91,
          "midi": 50,
          "name": "D3",
          "ticks": 5280,
          "time": 12.890625,
          "velocity": 0.6062992125984252
        },
        {
          "duration": 0.22216796875,
          "durationTicks": 91,
          "midi": 51,
          "name": "D#3",
          "ticks": 5376,
          "time": 13.125,
          "velocity": 0.5905511811023622
        },
        {
          "duration": 0.22216796875,
          "durationTicks": 91,
          "midi": 51,
          "name": "D#3",
          "ticks": 5472,
          "time": 13.359375,
          "velocity": 0.5826771653543307
        },
        {
          "duration": 0.22216796875,
          "durationTicks": 91,
          "midi": 46,
          "name": "A#2",
          "ticks": 5568,
          "time": 13.59375,
          "velocity": 0.5590551181102362
        },
        {
          "duration": 0.22216796875,
          "durationTicks": 91,
          "midi": 51,
          "name": "D#3",
          "ticks": 5664,
          "time": 13.828125,
          "velocity": 0.5118110236220472
        },
        {
          "duration": 0.22216796875,
          "durationTicks": 91,
          "midi": 49,
          "name": "C#3",
          "ticks": 5760,
          "time": 14.0625,
          "velocity": 0.5984251968503937
        },
        {
          "duration": 0.22216796875,
          "durationTicks": 91,
          "midi": 49,
          "name": "C#3",
          "ticks": 5856,
          "time": 14.296875,
          "velocity": 0.5590551181102362
        },
        {
          "duration": 0.22216796875,
          "durationTicks": 91,
          "midi": 44,
          "name": "G#2",
          "ticks": 5952,
          "time": 14.53125,
          "velocity": 0.5826771653543307
        },
        {
          "duration": 0.22216796875,
          "durationTicks": 91,
          "midi": 49,
          "name": "C#3",
          "ticks": 6048,
          "time": 14.765625,
          "velocity": 0.6535433070866141
        },
        {
          "duration": 0.22216796875000178,
          "durationTicks": 91,
          "midi": 47,
          "name": "B2",
          "ticks": 6144,
          "time": 15,
          "velocity": 0.5826771653543307
        },
        {
          "duration": 0.22216796875000178,
          "durationTicks": 91,
          "midi": 47,
          "name": "B2",
          "ticks": 6240,
          "time": 15.234375,
          "velocity": 0.5275590551181102
        },
        {
          "duration": 0.22216796875000178,
          "durationTicks": 91,
          "midi": 42,
          "name": "F#2",
          "ticks": 6336,
          "time": 15.46875,
          "velocity": 0.5826771653543307
        },
        {
          "duration": 0.22216796875000178,
          "durationTicks": 91,
          "midi": 47,
          "name": "B2",
          "ticks": 6432,
          "time": 15.703125,
          "velocity": 0.6692913385826772
        },
        {
          "duration": 0.22216796875,
          "durationTicks": 91,
          "midi": 46,
          "name": "A#2",
          "ticks": 6528,
          "time": 15.9375,
          "velocity": 0.6220472440944882
        },
        {
          "duration": 0.22216796875,
          "durationTicks": 91,
          "midi": 46,
          "name": "A#2",
          "ticks": 6624,
          "time": 16.171875,
          "velocity": 0.5748031496062992
        },
        {
          "duration": 0.22216796875,
          "durationTicks": 91,
          "midi": 41,
          "name": "F2",
          "ticks": 6720,
          "time": 16.40625,
          "velocity": 0.5826771653543307
        },
        {
          "duration": 0.22216796875,
          "durationTicks": 91,
          "midi": 46,
          "name": "A#2",
          "ticks": 6816,
          "time": 16.640625,
          "velocity": 0.6377952755905512
        },
        {
          "duration": 0.22216796875,
          "durationTicks": 91,
          "midi": 51,
          "name": "D#3",
          "ticks": 69120,
          "time": 168.75,
          "velocity": 0.5748031496062992
        },
        {
          "duration": 0.22216796875,
          "durationTicks": 91,
          "midi": 51,
          "name": "D#3",
          "ticks": 69216,
          "time": 168.984375,
          "velocity": 0.6220472440944882
        },
        {
          "duration": 0.22216796875,
          "durationTicks": 91,
          "midi": 46,
          "name": "A#2",
          "ticks": 69312,
          "time": 169.21875,
          "velocity": 0.5826771653543307
        },
        {
          "duration": 0.22216796875,
          "durationTicks": 91,
          "midi": 51,
          "name": "D#3",
          "ticks": 69408,
          "time": 169.453125,
          "velocity": 0.5826771653543307
        },
        {
          "duration": 0.22216796875,
          "durationTicks": 91,
          "midi": 50,
          "name": "D3",
          "ticks": 69504,
          "time": 169.6875,
          "velocity": 0.6299212598425197
        },
        {
          "duration": 0.22216796875,
          "durationTicks": 91,
          "midi": 50,
          "name": "D3",
          "ticks": 69600,
          "time": 169.921875,
          "velocity": 0.5826771653543307
        },
        {
          "duration": 0.22216796875,
          "durationTicks": 91,
          "midi": 46,
          "name": "A#2",
          "ticks": 69696,
          "time": 170.15625,
          "velocity": 0.5826771653543307
        },
        {
          "duration": 0.22216796875,
          "durationTicks": 91,
          "midi": 50,
          "name": "D3",
          "ticks": 69792,
          "time": 170.390625,
          "velocity": 0.5905511811023622
        },
        {
          "duration": 0.22216796875,
          "durationTicks": 91,
          "midi": 49,
          "name": "C#3",
          "ticks": 69888,
          "time": 170.625,
          "velocity": 0.5433070866141733
        },
        {
          "duration": 0.22216796875,
          "durationTicks": 91,
          "midi": 49,
          "name": "C#3",
          "ticks": 69984,
          "time": 170.859375,
          "velocity": 0.5984251968503937
        },
        {
          "duration": 0.22216796875,
          "durationTicks": 91,
          "midi": 46,
          "name": "A#2",
          "ticks": 70080,
          "time": 171.09375,
          "velocity": 0.6299212598425197
        },
        {
          "duration": 0.10498046875,
          "durationTicks": 43,
          "midi": 49,
          "name": "C#3",
          "ticks": 70176,
          "time": 171.328125,
          "velocity": 0.6299212598425197
        },
        {
          "duration": 0.22216796875,
          "durationTicks": 91,
          "midi": 50,
          "name": "D3",
          "ticks": 70272,
          "time": 171.5625,
          "velocity": 0.6692913385826772
        },
        {
          "duration": 0.22216796875,
          "durationTicks": 91,
          "midi": 50,
          "name": "D3",
          "ticks": 70368,
          "time": 171.796875,
          "velocity": 0.6614173228346457
        },
        {
          "duration": 0.22216796875,
          "durationTicks": 91,
          "midi": 46,
          "name": "A#2",
          "ticks": 70464,
          "time": 172.03125,
          "velocity": 0.5826771653543307
        },
        {
          "duration": 0.22216796875,
          "durationTicks": 91,
          "midi": 50,
          "name": "D3",
          "ticks": 70560,
          "time": 172.265625,
          "velocity": 0.6062992125984252
        },
        {
          "duration": 0.22216796875,
          "durationTicks": 91,
          "midi": 51,
          "name": "D#3",
          "ticks": 70656,
          "time": 172.5,
          "velocity": 0.5905511811023622
        },
        {
          "duration": 0.22216796875,
          "durationTicks": 91,
          "midi": 51,
          "name": "D#3",
          "ticks": 70752,
          "time": 172.734375,
          "velocity": 0.5826771653543307
        },
        {
          "duration": 0.22216796875,
          "durationTicks": 91,
          "midi": 46,
          "name": "A#2",
          "ticks": 70848,
          "time": 172.96875,
          "velocity": 0.5590551181102362
        },
        {
          "duration": 0.22216796875,
          "durationTicks": 91,
          "midi": 51,
          "name": "D#3",
          "ticks": 70944,
          "time": 173.203125,
          "velocity": 0.5118110236220472
        },
        {
          "duration": 0.22216796875,
          "durationTicks": 91,
          "midi": 49,
          "name": "C#3",
          "ticks": 71040,
          "time": 173.4375,
          "velocity": 0.5984251968503937
        },
        {
          "duration": 0.22216796875,
          "durationTicks": 91,
          "midi": 49,
          "name": "C#3",
          "ticks": 71136,
          "time": 173.671875,
          "velocity": 0.5590551181102362
        },
        {
          "duration": 0.22216796875,
          "durationTicks": 91,
          "midi": 44,
          "name": "G#2",
          "ticks": 71232,
          "time": 173.90625,
          "velocity": 0.5826771653543307
        },
        {
          "duration": 0.22216796875,
          "durationTicks": 91,
          "midi": 49,
          "name": "C#3",
          "ticks": 71328,
          "time": 174.140625,
          "velocity": 0.6535433070866141
        },
        {
          "duration": 0.22216796875,
          "durationTicks": 91,
          "midi": 47,
          "name": "B2",
          "ticks": 71424,
          "time": 174.375,
          "velocity": 0.5826771653543307
        },
        {
          "duration": 0.22216796875,
          "durationTicks": 91,
          "midi": 47,
          "name": "B2",
          "ticks": 71520,
          "time": 174.609375,
          "velocity": 0.5275590551181102
        },
        {
          "duration": 0.22216796875,
          "durationTicks": 91,
          "midi": 42,
          "name": "F#2",
          "ticks": 71616,
          "time": 174.84375,
          "velocity": 0.5826771653543307
        },
        {
          "duration": 0.22216796875,
          "durationTicks": 91,
          "midi": 47,
          "name": "B2",
          "ticks": 71712,
          "time": 175.078125,
          "velocity": 0.6692913385826772
        },
        {
          "duration": 0.22216796875,
          "durationTicks": 91,
          "midi": 46,
          "name": "A#2",
          "ticks": 71808,
          "time": 175.3125,
          "velocity": 0.6220472440944882
        },
        {
          "duration": 0.22216796875,
          "durationTicks": 91,
          "midi": 46,
          "name": "A#2",
          "ticks": 71904,
          "time": 175.546875,
          "velocity": 0.5748031496062992
        },
        {
          "duration": 0.22216796875,
          "durationTicks": 91,
          "midi": 41,
          "name": "F2",
          "ticks": 72000,
          "time": 175.78125,
          "velocity": 0.5826771653543307
        },
        {
          "duration": 0.22216796875,
          "durationTicks": 91,
          "midi": 46,
          "name": "A#2",
          "ticks": 72096,
          "time": 176.015625,
          "velocity": 0.6377952755905512
        },
        {
          "duration": 0.22216796875,
          "durationTicks": 91,
          "midi": 51,
          "name": "D#3",
          "ticks": 72192,
          "time": 176.25,
          "velocity": 0.5748031496062992
        },
        {
          "duration": 0.22216796875,
          "durationTicks": 91,
          "midi": 51,
          "name": "D#3",
          "ticks": 72288,
          "time": 176.484375,
          "velocity": 0.6220472440944882
        },
        {
          "duration": 0.22216796875,
          "durationTicks": 91,
          "midi": 46,
          "name": "A#2",
          "ticks": 72384,
          "time": 176.71875,
          "velocity": 0.5826771653543307
        },
        {
          "duration": 0.22216796875,
          "durationTicks": 91,
          "midi": 51,
          "name": "D#3",
          "ticks": 72480,
          "time": 176.953125,
          "velocity": 0.5826771653543307
        },
        {
          "duration": 0.22216796875,
          "durationTicks": 91,
          "midi": 50,
          "name": "D3",
          "ticks": 72576,
          "time": 177.1875,
          "velocity": 0.6299212598425197
        },
        {
          "duration": 0.22216796875,
          "durationTicks": 91,
          "midi": 50,
          "name": "D3",
          "ticks": 72672,
          "time": 177.421875,
          "velocity": 0.5826771653543307
        },
        {
          "duration": 0.22216796875,
          "durationTicks": 91,
          "midi": 46,
          "name": "A#2",
          "ticks": 72768,
          "time": 177.65625,
          "velocity": 0.5826771653543307
        },
        {
          "duration": 0.22216796875,
          "durationTicks": 91,
          "midi": 50,
          "name": "D3",
          "ticks": 72864,
          "time": 177.890625,
          "velocity": 0.5905511811023622
        },
        {
          "duration": 0.22216796875,
          "durationTicks": 91,
          "midi": 49,
          "name": "C#3",
          "ticks": 72960,
          "time": 178.125,
          "velocity": 0.5433070866141733
        },
        {
          "duration": 0.22216796875,
          "durationTicks": 91,
          "midi": 49,
          "name": "C#3",
          "ticks": 73056,
          "time": 178.359375,
          "velocity": 0.5984251968503937
        },
        {
          "duration": 0.22216796875,
          "durationTicks": 91,
          "midi": 46,
          "name": "A#2",
          "ticks": 73152,
          "time": 178.59375,
          "velocity": 0.6299212598425197
        },
        {
          "duration": 0.10498046875,
          "durationTicks": 43,
          "midi": 49,
          "name": "C#3",
          "ticks": 73248,
          "time": 178.828125,
          "velocity": 0.6299212598425197
        },
        {
          "duration": 0.22216796875,
          "durationTicks": 91,
          "midi": 50,
          "name": "D3",
          "ticks": 73344,
          "time": 179.0625,
          "velocity": 0.6692913385826772
        },
        {
          "duration": 0.22216796875,
          "durationTicks": 91,
          "midi": 50,
          "name": "D3",
          "ticks": 73440,
          "time": 179.296875,
          "velocity": 0.6614173228346457
        },
        {
          "duration": 0.22216796875,
          "durationTicks": 91,
          "midi": 46,
          "name": "A#2",
          "ticks": 73536,
          "time": 179.53125,
          "velocity": 0.5826771653543307
        },
        {
          "duration": 0.22216796875,
          "durationTicks": 91,
          "midi": 50,
          "name": "D3",
          "ticks": 73632,
          "time": 179.765625,
          "velocity": 0.6062992125984252
        },
        {
          "duration": 0.22216796875,
          "durationTicks": 91,
          "midi": 51,
          "name": "D#3",
          "ticks": 73728,
          "time": 180,
          "velocity": 0.5905511811023622
        },
        {
          "duration": 0.22216796875,
          "durationTicks": 91,
          "midi": 51,
          "name": "D#3",
          "ticks": 73824,
          "time": 180.234375,
          "velocity": 0.5826771653543307
        },
        {
          "duration": 0.22216796875,
          "durationTicks": 91,
          "midi": 46,
          "name": "A#2",
          "ticks": 73920,
          "time": 180.46875,
          "velocity": 0.5590551181102362
        },
        {
          "duration": 0.22216796875,
          "durationTicks": 91,
          "midi": 51,
          "name": "D#3",
          "ticks": 74016,
          "time": 180.703125,
          "velocity": 0.5118110236220472
        },
        {
          "duration": 0.22216796875,
          "durationTicks": 91,
          "midi": 49,
          "name": "C#3",
          "ticks": 74112,
          "time": 180.9375,
          "velocity": 0.5984251968503937
        },
        {
          "duration": 0.22216796875,
          "durationTicks": 91,
          "midi": 49,
          "name": "C#3",
          "ticks": 74208,
          "time": 181.171875,
          "velocity": 0.5590551181102362
        },
        {
          "duration": 0.22216796875,
          "durationTicks": 91,
          "midi": 44,
          "name": "G#2",
          "ticks": 74304,
          "time": 181.40625,
          "velocity": 0.5826771653543307
        },
        {
          "duration": 0.22216796875,
          "durationTicks": 91,
          "midi": 49,
          "name": "C#3",
          "ticks": 74400,
          "time": 181.640625,
          "velocity": 0.6535433070866141
        },
        {
          "duration": 0.22216796875,
          "durationTicks": 91,
          "midi": 47,
          "name": "B2",
          "ticks": 74496,
          "time": 181.875,
          "velocity": 0.5826771653543307
        },
        {
          "duration": 0.22216796875,
          "durationTicks": 91,
          "midi": 47,
          "name": "B2",
          "ticks": 74592,
          "time": 182.109375,
          "velocity": 0.5275590551181102
        },
        {
          "duration": 0.22216796875,
          "durationTicks": 91,
          "midi": 42,
          "name": "F#2",
          "ticks": 74688,
          "time": 182.34375,
          "velocity": 0.5826771653543307
        },
        {
          "duration": 0.22216796875,
          "durationTicks": 91,
          "midi": 47,
          "name": "B2",
          "ticks": 74784,
          "time": 182.578125,
          "velocity": 0.6692913385826772
        },
        {
          "duration": 0.22216796875,
          "durationTicks": 91,
          "midi": 46,
          "name": "A#2",
          "ticks": 74880,
          "time": 182.8125,
          "velocity": 0.6220472440944882
        },
        {
          "duration": 0.22216796875,
          "durationTicks": 91,
          "midi": 46,
          "name": "A#2",
          "ticks": 74976,
          "time": 183.046875,
          "velocity": 0.5748031496062992
        },
        {
          "duration": 0.22216796875,
          "durationTicks": 91,
          "midi": 41,
          "name": "F2",
          "ticks": 75072,
          "time": 183.28125,
          "velocity": 0.5826771653543307
        },
        {
          "duration": 0.22216796875,
          "durationTicks": 91,
          "midi": 46,
          "name": "A#2",
          "ticks": 75168,
          "time": 183.515625,
          "velocity": 0.6377952755905512
        }
      ]
    },
    {
      "channel": 0,
      "controlChanges": {
        "0": [
          {
            "number": 0,
            "ticks": 370,
            "time": 0.9033203125,
            "value": 0
          }
        ],
        "32": [
          {
            "number": 32,
            "ticks": 372,
            "time": 0.908203125,
            "value": 0
          }
        ],
        "121": [
          {
            "number": 121,
            "ticks": 192,
            "time": 0.46875,
            "value": 0
          }
        ]
      },
      "pitchBends": [],
      "instrument": {
        "family": "piano",
        "number": 0,
        "name": "acoustic grand piano"
      },
      "name": "",
      "notes": [],
      "endOfTrackTicks": 112128
    },
    {
      "channel": 11,
      "controlChanges": {
        "6": [
          {
            "number": 6,
            "ticks": 470,
            "time": 1.1474609375,
            "value": 0.3700787401574803
          },
          {
            "number": 6,
            "ticks": 474,
            "time": 1.1572265625,
            "value": 0.8976377952755905
          }
        ],
        "7": [
          {
            "number": 7,
            "ticks": 376,
            "time": 0.91796875,
            "value": 0.6771653543307087
          }
        ],
        "10": [
          {
            "number": 10,
            "ticks": 378,
            "time": 0.9228515625,
            "value": 0.49606299212598426
          }
        ],
        "11": [
          {
            "number": 11,
            "ticks": 380,
            "time": 0.927734375,
            "value": 1
          }
        ],
        "91": [
          {
            "number": 91,
            "ticks": 382,
            "time": 0.9326171875,
            "value": 0.7637795275590551
          }
        ],
        "93": [
          {
            "number": 93,
            "ticks": 384,
            "time": 0.9375,
            "value": 1
          }
        ],
        "98": [
          {
            "number": 98,
            "ticks": 468,
            "time": 1.142578125,
            "value": 0.25196850393700787
          },
          {
            "number": 98,
            "ticks": 472,
            "time": 1.15234375,
            "value": 0.25984251968503935
          }
        ],
        "99": [
          {
            "number": 99,
            "ticks": 466,
            "time": 1.1376953125,
            "value": 0.007874015748031496
          }
        ],
        "100": [
          {
            "number": 100,
            "ticks": 476,
            "time": 1.162109375,
            "value": 1
          }
        ],
        "101": [
          {
            "number": 101,
            "ticks": 478,
            "time": 1.1669921875,
            "value": 1
          }
        ]
      },
      "pitchBends": [],
      "instrument": {
        "family": "percussive",
        "number": 115,
        "name": "woodblock"
      },
      "name": "",
      "notes": [
        {
          "duration": 0.10009765625000022,
          "durationTicks": 41,
          "midi": 86,
          "name": "D6",
          "ticks": 768,
          "time": 1.875,
          "velocity": 0.6456692913385826
        },
        {
          "duration": 0.126953125,
          "durationTicks": 52,
          "midi": 86,
          "name": "D6",
          "ticks": 864,
          "time": 2.109375,
          "velocity": 0.5984251968503937
        },
        {
          "duration": 0.15380859375,
          "durationTicks": 63,
          "midi": 81,
          "name": "A5",
          "ticks": 960,
          "time": 2.34375,
          "velocity": 0.6220472440944882
        },
        {
          "duration": 0.126953125,
          "durationTicks": 52,
          "midi": 76,
          "name": "E5",
          "ticks": 1056,
          "time": 2.578125,
          "velocity": 0.6456692913385826
        },
        {
          "duration": 0.10986328125,
          "durationTicks": 45,
          "midi": 81,
          "name": "A5",
          "ticks": 1152,
          "time": 2.8125,
          "velocity": 0.5669291338582677
        },
        {
          "duration": 0.06591796875,
          "durationTicks": 27,
          "midi": 81,
          "name": "A5",
          "ticks": 1200,
          "time": 2.9296875,
          "velocity": 0.6220472440944882
        },
        {
          "duration": 0.048828125,
          "durationTicks": 20,
          "midi": 81,
          "name": "A5",
          "ticks": 1248,
          "time": 3.046875,
          "velocity": 0.4881889763779528
        },
        {
          "duration": 0.068359375,
          "durationTicks": 28,
          "midi": 81,
          "name": "A5",
          "ticks": 1296,
          "time": 3.1640625,
          "velocity": 0.5511811023622047
        },
        {
          "duration": 0.06103515625,
          "durationTicks": 25,
          "midi": 81,
          "name": "A5",
          "ticks": 1344,
          "time": 3.28125,
          "velocity": 0.5511811023622047
        },
        {
          "duration": 0.1171875,
          "durationTicks": 48,
          "midi": 86,
          "name": "D6",
          "ticks": 1444,
          "time": 3.525390625,
          "velocity": 0.6062992125984252
        },
        {
          "duration": 0.10009765624999956,
          "durationTicks": 41,
          "midi": 91,
          "name": "G6",
          "ticks": 1536,
          "time": 3.75,
          "velocity": 0.5905511811023622
        },
        {
          "duration": 0.126953125,
          "durationTicks": 52,
          "midi": 91,
          "name": "G6",
          "ticks": 1632,
          "time": 3.984375,
          "velocity": 0.5984251968503937
        },
        {
          "duration": 0.15380859375,
          "durationTicks": 63,
          "midi": 86,
          "name": "D6",
          "ticks": 1728,
          "time": 4.21875,
          "velocity": 0.6062992125984252
        },
        {
          "duration": 0.126953125,
          "durationTicks": 52,
          "midi": 81,
          "name": "A5",
          "ticks": 1824,
          "time": 4.453125,
          "velocity": 0.5984251968503937
        },
        {
          "duration": 0.10986328125,
          "durationTicks": 45,
          "midi": 86,
          "name": "D6",
          "ticks": 1920,
          "time": 4.6875,
          "velocity": 0.5669291338582677
        },
        {
          "duration": 0.06591796875,
          "durationTicks": 27,
          "midi": 86,
          "name": "D6",
          "ticks": 1968,
          "time": 4.8046875,
          "velocity": 0.6062992125984252
        },
        {
          "duration": 0.048828125,
          "durationTicks": 20,
          "midi": 86,
          "name": "D6",
          "ticks": 2016,
          "time": 4.921875,
          "velocity": 0.5039370078740157
        },
        {
          "duration": 0.068359375,
          "durationTicks": 28,
          "midi": 86,
          "name": "D6",
          "ticks": 2064,
          "time": 5.0390625,
          "velocity": 0.5275590551181102
        },
        {
          "duration": 0.06103515625,
          "durationTicks": 25,
          "midi": 86,
          "name": "D6",
          "ticks": 2112,
          "time": 5.15625,
          "velocity": 0.5275590551181102
        },
        {
          "duration": 0.11474609375,
          "durationTicks": 47,
          "midi": 91,
          "name": "G6",
          "ticks": 2208,
          "time": 5.390625,
          "velocity": 0.5984251968503937
        },
        {
          "duration": 0.10009765625,
          "durationTicks": 41,
          "midi": 86,
          "name": "D6",
          "ticks": 2304,
          "time": 5.625,
          "velocity": 0.6456692913385826
        },
        {
          "duration": 0.126953125,
          "durationTicks": 52,
          "midi": 86,
          "name": "D6",
          "ticks": 2400,
          "time": 5.859375,
          "velocity": 0.5984251968503937
        },
        {
          "duration": 0.15380859375,
          "durationTicks": 63,
          "midi": 81,
          "name": "A5",
          "ticks": 2496,
          "time": 6.09375,
          "velocity": 0.6220472440944882
        },
        {
          "duration": 0.126953125,
          "durationTicks": 52,
          "midi": 76,
          "name": "E5",
          "ticks": 2592,
          "time": 6.328125,
          "velocity": 0.6456692913385826
        },
        {
          "duration": 0.10986328125,
          "durationTicks": 45,
          "midi": 81,
          "name": "A5",
          "ticks": 2688,
          "time": 6.5625,
          "velocity": 0.5669291338582677
        },
        {
          "duration": 0.06591796875,
          "durationTicks": 27,
          "midi": 81,
          "name": "A5",
          "ticks": 2736,
          "time": 6.6796875,
          "velocity": 0.6220472440944882
        },
        {
          "duration": 0.048828125,
          "durationTicks": 20,
          "midi": 81,
          "name": "A5",
          "ticks": 2784,
          "time": 6.796875,
          "velocity": 0.4881889763779528
        },
        {
          "duration": 0.068359375,
          "durationTicks": 28,
          "midi": 81,
          "name": "A5",
          "ticks": 2832,
          "time": 6.9140625,
          "velocity": 0.5511811023622047
        },
        {
          "duration": 0.06103515625,
          "durationTicks": 25,
          "midi": 81,
          "name": "A5",
          "ticks": 2880,
          "time": 7.03125,
          "velocity": 0.5511811023622047
        },
        {
          "duration": 0.1171875,
          "durationTicks": 48,
          "midi": 86,
          "name": "D6",
          "ticks": 2980,
          "time": 7.275390625,
          "velocity": 0.6062992125984252
        },
        {
          "duration": 0.10009765625000089,
          "durationTicks": 41,
          "midi": 91,
          "name": "G6",
          "ticks": 3072,
          "time": 7.5,
          "velocity": 0.5905511811023622
        },
        {
          "duration": 0.1269531249999991,
          "durationTicks": 52,
          "midi": 91,
          "name": "G6",
          "ticks": 3168,
          "time": 7.734375,
          "velocity": 0.5984251968503937
        },
        {
          "duration": 0.15380859375,
          "durationTicks": 63,
          "midi": 86,
          "name": "D6",
          "ticks": 3264,
          "time": 7.96875,
          "velocity": 0.6062992125984252
        },
        {
          "duration": 0.126953125,
          "durationTicks": 52,
          "midi": 81,
          "name": "A5",
          "ticks": 3360,
          "time": 8.203125,
          "velocity": 0.5984251968503937
        },
        {
          "duration": 0.10986328125,
          "durationTicks": 45,
          "midi": 86,
          "name": "D6",
          "ticks": 3456,
          "time": 8.4375,
          "velocity": 0.5669291338582677
        },
        {
          "duration": 0.06591796875,
          "durationTicks": 27,
          "midi": 86,
          "name": "D6",
          "ticks": 3504,
          "time": 8.5546875,
          "velocity": 0.6062992125984252
        },
        {
          "duration": 0.048828125,
          "durationTicks": 20,
          "midi": 86,
          "name": "D6",
          "ticks": 3552,
          "time": 8.671875,
          "velocity": 0.5039370078740157
        },
        {
          "duration": 0.068359375,
          "durationTicks": 28,
          "midi": 86,
          "name": "D6",
          "ticks": 3600,
          "time": 8.7890625,
          "velocity": 0.5275590551181102
        },
        {
          "duration": 0.06103515625,
          "durationTicks": 25,
          "midi": 86,
          "name": "D6",
          "ticks": 3648,
          "time": 8.90625,
          "velocity": 0.5275590551181102
        },
        {
          "duration": 0.11474609375,
          "durationTicks": 47,
          "midi": 91,
          "name": "G6",
          "ticks": 3744,
          "time": 9.140625,
          "velocity": 0.5984251968503937
        },
        {
          "duration": 0.10009765625,
          "durationTicks": 41,
          "midi": 86,
          "name": "D6",
          "ticks": 3840,
          "time": 9.375,
          "velocity": 0.6456692913385826
        },
        {
          "duration": 0.126953125,
          "durationTicks": 52,
          "midi": 86,
          "name": "D6",
          "ticks": 3936,
          "time": 9.609375,
          "velocity": 0.5984251968503937
        },
        {
          "duration": 0.15380859375,
          "durationTicks": 63,
          "midi": 81,
          "name": "A5",
          "ticks": 4032,
          "time": 9.84375,
          "velocity": 0.6220472440944882
        },
        {
          "duration": 0.126953125,
          "durationTicks": 52,
          "midi": 76,
          "name": "E5",
          "ticks": 4128,
          "time": 10.078125,
          "velocity": 0.6456692913385826
        },
        {
          "duration": 0.10986328125,
          "durationTicks": 45,
          "midi": 81,
          "name": "A5",
          "ticks": 4224,
          "time": 10.3125,
          "velocity": 0.5669291338582677
        },
        {
          "duration": 0.06591796875,
          "durationTicks": 27,
          "midi": 81,
          "name": "A5",
          "ticks": 4272,
          "time": 10.4296875,
          "velocity": 0.6220472440944882
        },
        {
          "duration": 0.048828125,
          "durationTicks": 20,
          "midi": 81,
          "name": "A5",
          "ticks": 4320,
          "time": 10.546875,
          "velocity": 0.4881889763779528
        },
        {
          "duration": 0.068359375,
          "durationTicks": 28,
          "midi": 81,
          "name": "A5",
          "ticks": 4368,
          "time": 10.6640625,
          "velocity": 0.5511811023622047
        },
        {
          "duration": 0.06103515625,
          "durationTicks": 25,
          "midi": 81,
          "name": "A5",
          "ticks": 4416,
          "time": 10.78125,
          "velocity": 0.5511811023622047
        },
        {
          "duration": 0.1171875,
          "durationTicks": 48,
          "midi": 86,
          "name": "D6",
          "ticks": 4516,
          "time": 11.025390625,
          "velocity": 0.6062992125984252
        },
        {
          "duration": 0.10009765625,
          "durationTicks": 41,
          "midi": 91,
          "name": "G6",
          "ticks": 4608,
          "time": 11.25,
          "velocity": 0.5905511811023622
        },
        {
          "duration": 0.126953125,
          "durationTicks": 52,
          "midi": 91,
          "name": "G6",
          "ticks": 4704,
          "time": 11.484375,
          "velocity": 0.5984251968503937
        },
        {
          "duration": 0.15380859375,
          "durationTicks": 63,
          "midi": 86,
          "name": "D6",
          "ticks": 4800,
          "time": 11.71875,
          "velocity": 0.6062992125984252
        },
        {
          "duration": 0.126953125,
          "durationTicks": 52,
          "midi": 81,
          "name": "A5",
          "ticks": 4896,
          "time": 11.953125,
          "velocity": 0.5984251968503937
        },
        {
          "duration": 0.10986328125,
          "durationTicks": 45,
          "midi": 86,
          "name": "D6",
          "ticks": 4992,
          "time": 12.1875,
          "velocity": 0.5669291338582677
        },
        {
          "duration": 0.06591796875,
          "durationTicks": 27,
          "midi": 86,
          "name": "D6",
          "ticks": 5040,
          "time": 12.3046875,
          "velocity": 0.6062992125984252
        },
        {
          "duration": 0.048828125,
          "durationTicks": 20,
          "midi": 86,
          "name": "D6",
          "ticks": 5088,
          "time": 12.421875,
          "velocity": 0.5039370078740157
        },
        {
          "duration": 0.068359375,
          "durationTicks": 28,
          "midi": 86,
          "name": "D6",
          "ticks": 5136,
          "time": 12.5390625,
          "velocity": 0.5275590551181102
        },
        {
          "duration": 0.06103515625,
          "durationTicks": 25,
          "midi": 86,
          "name": "D6",
          "ticks": 5184,
          "time": 12.65625,
          "velocity": 0.5275590551181102
        },
        {
          "duration": 0.11474609375,
          "durationTicks": 47,
          "midi": 91,
          "name": "G6",
          "ticks": 5280,
          "time": 12.890625,
          "velocity": 0.5984251968503937
        },
        {
          "duration": 0.10009765625,
          "durationTicks": 41,
          "midi": 86,
          "name": "D6",
          "ticks": 5376,
          "time": 13.125,
          "velocity": 0.6456692913385826
        },
        {
          "duration": 0.126953125,
          "durationTicks": 52,
          "midi": 86,
          "name": "D6",
          "ticks": 5472,
          "time": 13.359375,
          "velocity": 0.5984251968503937
        },
        {
          "duration": 0.15380859375,
          "durationTicks": 63,
          "midi": 81,
          "name": "A5",
          "ticks": 5568,
          "time": 13.59375,
          "velocity": 0.6220472440944882
        },
        {
          "duration": 0.126953125,
          "durationTicks": 52,
          "midi": 76,
          "name": "E5",
          "ticks": 5664,
          "time": 13.828125,
          "velocity": 0.6456692913385826
        },
        {
          "duration": 0.10986328125,
          "durationTicks": 45,
          "midi": 81,
          "name": "A5",
          "ticks": 5760,
          "time": 14.0625,
          "velocity": 0.5669291338582677
        },
        {
          "duration": 0.06591796875,
          "durationTicks": 27,
          "midi": 81,
          "name": "A5",
          "ticks": 5808,
          "time": 14.1796875,
          "velocity": 0.6220472440944882
        },
        {
          "duration": 0.048828125,
          "durationTicks": 20,
          "midi": 81,
          "name": "A5",
          "ticks": 5856,
          "time": 14.296875,
          "velocity": 0.4881889763779528
        },
        {
          "duration": 0.068359375,
          "durationTicks": 28,
          "midi": 81,
          "name": "A5",
          "ticks": 5904,
          "time": 14.4140625,
          "velocity": 0.5511811023622047
        },
        {
          "duration": 0.06103515625,
          "durationTicks": 25,
          "midi": 81,
          "name": "A5",
          "ticks": 5952,
          "time": 14.53125,
          "velocity": 0.5511811023622047
        },
        {
          "duration": 0.1171875,
          "durationTicks": 48,
          "midi": 86,
          "name": "D6",
          "ticks": 6052,
          "time": 14.775390625,
          "velocity": 0.6062992125984252
        },
        {
          "duration": 0.10009765624999822,
          "durationTicks": 41,
          "midi": 91,
          "name": "G6",
          "ticks": 6144,
          "time": 15,
          "velocity": 0.5905511811023622
        },
        {
          "duration": 0.12695312500000178,
          "durationTicks": 52,
          "midi": 91,
          "name": "G6",
          "ticks": 6240,
          "time": 15.234375,
          "velocity": 0.5984251968503937
        },
        {
          "duration": 0.15380859375,
          "durationTicks": 63,
          "midi": 86,
          "name": "D6",
          "ticks": 6336,
          "time": 15.46875,
          "velocity": 0.6062992125984252
        },
        {
          "duration": 0.12695312500000178,
          "durationTicks": 52,
          "midi": 81,
          "name": "A5",
          "ticks": 6432,
          "time": 15.703125,
          "velocity": 0.5984251968503937
        },
        {
          "duration": 0.10986328125,
          "durationTicks": 45,
          "midi": 86,
          "name": "D6",
          "ticks": 6528,
          "time": 15.9375,
          "velocity": 0.5669291338582677
        },
        {
          "duration": 0.06591796875,
          "durationTicks": 27,
          "midi": 86,
          "name": "D6",
          "ticks": 6576,
          "time": 16.0546875,
          "velocity": 0.6062992125984252
        },
        {
          "duration": 0.048828125,
          "durationTicks": 20,
          "midi": 86,
          "name": "D6",
          "ticks": 6624,
          "time": 16.171875,
          "velocity": 0.5039370078740157
        },
        {
          "duration": 0.068359375,
          "durationTicks": 28,
          "midi": 86,
          "name": "D6",
          "ticks": 6672,
          "time": 16.2890625,
          "velocity": 0.5275590551181102
        },
        {
          "duration": 0.06103515625,
          "durationTicks": 25,
          "midi": 86,
          "name": "D6",
          "ticks": 6720,
          "time": 16.40625,
          "velocity": 0.5275590551181102
        },
        {
          "duration": 0.11474609375,
          "durationTicks": 47,
          "midi": 91,
          "name": "G6",
          "ticks": 6816,
          "time": 16.640625,
          "velocity": 0.5984251968503937
        },
        {
          "duration": 0.10009765625,
          "durationTicks": 41,
          "midi": 86,
          "name": "D6",
          "ticks": 69120,
          "time": 168.75,
          "velocity": 0.6456692913385826
        },
        {
          "duration": 0.126953125,
          "durationTicks": 52,
          "midi": 86,
          "name": "D6",
          "ticks": 69216,
          "time": 168.984375,
          "velocity": 0.5984251968503937
        },
        {
          "duration": 0.15380859375,
          "durationTicks": 63,
          "midi": 81,
          "name": "A5",
          "ticks": 69312,
          "time": 169.21875,
          "velocity": 0.6220472440944882
        },
        {
          "duration": 0.126953125,
          "durationTicks": 52,
          "midi": 76,
          "name": "E5",
          "ticks": 69408,
          "time": 169.453125,
          "velocity": 0.6456692913385826
        },
        {
          "duration": 0.10986328125,
          "durationTicks": 45,
          "midi": 81,
          "name": "A5",
          "ticks": 69504,
          "time": 169.6875,
          "velocity": 0.5669291338582677
        },
        {
          "duration": 0.06591796875,
          "durationTicks": 27,
          "midi": 81,
          "name": "A5",
          "ticks": 69552,
          "time": 169.8046875,
          "velocity": 0.6220472440944882
        },
        {
          "duration": 0.048828125,
          "durationTicks": 20,
          "midi": 81,
          "name": "A5",
          "ticks": 69600,
          "time": 169.921875,
          "velocity": 0.4881889763779528
        },
        {
          "duration": 0.068359375,
          "durationTicks": 28,
          "midi": 81,
          "name": "A5",
          "ticks": 69648,
          "time": 170.0390625,
          "velocity": 0.5511811023622047
        },
        {
          "duration": 0.06103515625,
          "durationTicks": 25,
          "midi": 81,
          "name": "A5",
          "ticks": 69696,
          "time": 170.15625,
          "velocity": 0.5511811023622047
        },
        {
          "duration": 0.1171875,
          "durationTicks": 48,
          "midi": 86,
          "name": "D6",
          "ticks": 69796,
          "time": 170.400390625,
          "velocity": 0.6062992125984252
        },
        {
          "duration": 0.10009765625,
          "durationTicks": 41,
          "midi": 91,
          "name": "G6",
          "ticks": 69888,
          "time": 170.625,
          "velocity": 0.5905511811023622
        },
        {
          "duration": 0.126953125,
          "durationTicks": 52,
          "midi": 91,
          "name": "G6",
          "ticks": 69984,
          "time": 170.859375,
          "velocity": 0.5984251968503937
        },
        {
          "duration": 0.15380859375,
          "durationTicks": 63,
          "midi": 86,
          "name": "D6",
          "ticks": 70080,
          "time": 171.09375,
          "velocity": 0.6062992125984252
        },
        {
          "duration": 0.126953125,
          "durationTicks": 52,
          "midi": 81,
          "name": "A5",
          "ticks": 70176,
          "time": 171.328125,
          "velocity": 0.5984251968503937
        },
        {
          "duration": 0.10986328125,
          "durationTicks": 45,
          "midi": 86,
          "name": "D6",
          "ticks": 70272,
          "time": 171.5625,
          "velocity": 0.5669291338582677
        },
        {
          "duration": 0.06591796875,
          "durationTicks": 27,
          "midi": 86,
          "name": "D6",
          "ticks": 70320,
          "time": 171.6796875,
          "velocity": 0.6062992125984252
        },
        {
          "duration": 0.048828125,
          "durationTicks": 20,
          "midi": 86,
          "name": "D6",
          "ticks": 70368,
          "time": 171.796875,
          "velocity": 0.5039370078740157
        },
        {
          "duration": 0.068359375,
          "durationTicks": 28,
          "midi": 86,
          "name": "D6",
          "ticks": 70416,
          "time": 171.9140625,
          "velocity": 0.5275590551181102
        },
        {
          "duration": 0.06103515625,
          "durationTicks": 25,
          "midi": 86,
          "name": "D6",
          "ticks": 70464,
          "time": 172.03125,
          "velocity": 0.5275590551181102
        },
        {
          "duration": 0.11474609375,
          "durationTicks": 47,
          "midi": 91,
          "name": "G6",
          "ticks": 70560,
          "time": 172.265625,
          "velocity": 0.5984251968503937
        },
        {
          "duration": 0.10009765625,
          "durationTicks": 41,
          "midi": 86,
          "name": "D6",
          "ticks": 70656,
          "time": 172.5,
          "velocity": 0.6456692913385826
        },
        {
          "duration": 0.126953125,
          "durationTicks": 52,
          "midi": 86,
          "name": "D6",
          "ticks": 70752,
          "time": 172.734375,
          "velocity": 0.5984251968503937
        },
        {
          "duration": 0.15380859375,
          "durationTicks": 63,
          "midi": 81,
          "name": "A5",
          "ticks": 70848,
          "time": 172.96875,
          "velocity": 0.6220472440944882
        },
        {
          "duration": 0.126953125,
          "durationTicks": 52,
          "midi": 76,
          "name": "E5",
          "ticks": 70944,
          "time": 173.203125,
          "velocity": 0.6456692913385826
        },
        {
          "duration": 0.10986328125,
          "durationTicks": 45,
          "midi": 81,
          "name": "A5",
          "ticks": 71040,
          "time": 173.4375,
          "velocity": 0.5669291338582677
        },
        {
          "duration": 0.06591796875,
          "durationTicks": 27,
          "midi": 81,
          "name": "A5",
          "ticks": 71088,
          "time": 173.5546875,
          "velocity": 0.6220472440944882
        },
        {
          "duration": 0.048828125,
          "durationTicks": 20,
          "midi": 81,
          "name": "A5",
          "ticks": 71136,
          "time": 173.671875,
          "velocity": 0.4881889763779528
        },
        {
          "duration": 0.068359375,
          "durationTicks": 28,
          "midi": 81,
          "name": "A5",
          "ticks": 71184,
          "time": 173.7890625,
          "velocity": 0.5511811023622047
        },
        {
          "duration": 0.06103515625,
          "durationTicks": 25,
          "midi": 81,
          "name": "A5",
          "ticks": 71232,
          "time": 173.90625,
          "velocity": 0.5511811023622047
        },
        {
          "duration": 0.1171875,
          "durationTicks": 48,
          "midi": 86,
          "name": "D6",
          "ticks": 71332,
          "time": 174.150390625,
          "velocity": 0.6062992125984252
        },
        {
          "duration": 0.10009765625,
          "durationTicks": 41,
          "midi": 91,
          "name": "G6",
          "ticks": 71424,
          "time": 174.375,
          "velocity": 0.5905511811023622
        },
        {
          "duration": 0.126953125,
          "durationTicks": 52,
          "midi": 91,
          "name": "G6",
          "ticks": 71520,
          "time": 174.609375,
          "velocity": 0.5984251968503937
        },
        {
          "duration": 0.15380859375,
          "durationTicks": 63,
          "midi": 86,
          "name": "D6",
          "ticks": 71616,
          "time": 174.84375,
          "velocity": 0.6062992125984252
        },
        {
          "duration": 0.126953125,
          "durationTicks": 52,
          "midi": 81,
          "name": "A5",
          "ticks": 71712,
          "time": 175.078125,
          "velocity": 0.5984251968503937
        },
        {
          "duration": 0.10986328125,
          "durationTicks": 45,
          "midi": 86,
          "name": "D6",
          "ticks": 71808,
          "time": 175.3125,
          "velocity": 0.5669291338582677
        },
        {
          "duration": 0.06591796875,
          "durationTicks": 27,
          "midi": 86,
          "name": "D6",
          "ticks": 71856,
          "time": 175.4296875,
          "velocity": 0.6062992125984252
        },
        {
          "duration": 0.048828125,
          "durationTicks": 20,
          "midi": 86,
          "name": "D6",
          "ticks": 71904,
          "time": 175.546875,
          "velocity": 0.5039370078740157
        },
        {
          "duration": 0.068359375,
          "durationTicks": 28,
          "midi": 86,
          "name": "D6",
          "ticks": 71952,
          "time": 175.6640625,
          "velocity": 0.5275590551181102
        },
        {
          "duration": 0.06103515625,
          "durationTicks": 25,
          "midi": 86,
          "name": "D6",
          "ticks": 72000,
          "time": 175.78125,
          "velocity": 0.5275590551181102
        },
        {
          "duration": 0.11474609375,
          "durationTicks": 47,
          "midi": 91,
          "name": "G6",
          "ticks": 72096,
          "time": 176.015625,
          "velocity": 0.5984251968503937
        },
        {
          "duration": 0.10009765625,
          "durationTicks": 41,
          "midi": 86,
          "name": "D6",
          "ticks": 72192,
          "time": 176.25,
          "velocity": 0.6456692913385826
        },
        {
          "duration": 0.126953125,
          "durationTicks": 52,
          "midi": 86,
          "name": "D6",
          "ticks": 72288,
          "time": 176.484375,
          "velocity": 0.5984251968503937
        },
        {
          "duration": 0.15380859375,
          "durationTicks": 63,
          "midi": 81,
          "name": "A5",
          "ticks": 72384,
          "time": 176.71875,
          "velocity": 0.6220472440944882
        },
        {
          "duration": 0.126953125,
          "durationTicks": 52,
          "midi": 76,
          "name": "E5",
          "ticks": 72480,
          "time": 176.953125,
          "velocity": 0.6456692913385826
        },
        {
          "duration": 0.10986328125,
          "durationTicks": 45,
          "midi": 81,
          "name": "A5",
          "ticks": 72576,
          "time": 177.1875,
          "velocity": 0.5669291338582677
        },
        {
          "duration": 0.06591796875,
          "durationTicks": 27,
          "midi": 81,
          "name": "A5",
          "ticks": 72624,
          "time": 177.3046875,
          "velocity": 0.6220472440944882
        },
        {
          "duration": 0.048828125,
          "durationTicks": 20,
          "midi": 81,
          "name": "A5",
          "ticks": 72672,
          "time": 177.421875,
          "velocity": 0.4881889763779528
        },
        {
          "duration": 0.068359375,
          "durationTicks": 28,
          "midi": 81,
          "name": "A5",
          "ticks": 72720,
          "time": 177.5390625,
          "velocity": 0.5511811023622047
        },
        {
          "duration": 0.06103515625,
          "durationTicks": 25,
          "midi": 81,
          "name": "A5",
          "ticks": 72768,
          "time": 177.65625,
          "velocity": 0.5511811023622047
        },
        {
          "duration": 0.1171875,
          "durationTicks": 48,
          "midi": 86,
          "name": "D6",
          "ticks": 72868,
          "time": 177.900390625,
          "velocity": 0.6062992125984252
        },
        {
          "duration": 0.10009765625,
          "durationTicks": 41,
          "midi": 91,
          "name": "G6",
          "ticks": 72960,
          "time": 178.125,
          "velocity": 0.5905511811023622
        },
        {
          "duration": 0.126953125,
          "durationTicks": 52,
          "midi": 91,
          "name": "G6",
          "ticks": 73056,
          "time": 178.359375,
          "velocity": 0.5984251968503937
        },
        {
          "duration": 0.15380859375,
          "durationTicks": 63,
          "midi": 86,
          "name": "D6",
          "ticks": 73152,
          "time": 178.59375,
          "velocity": 0.6062992125984252
        },
        {
          "duration": 0.126953125,
          "durationTicks": 52,
          "midi": 81,
          "name": "A5",
          "ticks": 73248,
          "time": 178.828125,
          "velocity": 0.5984251968503937
        },
        {
          "duration": 0.10986328125,
          "durationTicks": 45,
          "midi": 86,
          "name": "D6",
          "ticks": 73344,
          "time": 179.0625,
          "velocity": 0.5669291338582677
        },
        {
          "duration": 0.06591796875,
          "durationTicks": 27,
          "midi": 86,
          "name": "D6",
          "ticks": 73392,
          "time": 179.1796875,
          "velocity": 0.6062992125984252
        },
        {
          "duration": 0.048828125,
          "durationTicks": 20,
          "midi": 86,
          "name": "D6",
          "ticks": 73440,
          "time": 179.296875,
          "velocity": 0.5039370078740157
        },
        {
          "duration": 0.068359375,
          "durationTicks": 28,
          "midi": 86,
          "name": "D6",
          "ticks": 73488,
          "time": 179.4140625,
          "velocity": 0.5275590551181102
        },
        {
          "duration": 0.06103515625,
          "durationTicks": 25,
          "midi": 86,
          "name": "D6",
          "ticks": 73536,
          "time": 179.53125,
          "velocity": 0.5275590551181102
        },
        {
          "duration": 0.11474609375,
          "durationTicks": 47,
          "midi": 91,
          "name": "G6",
          "ticks": 73632,
          "time": 179.765625,
          "velocity": 0.5984251968503937
        },
        {
          "duration": 0.10009765625,
          "durationTicks": 41,
          "midi": 86,
          "name": "D6",
          "ticks": 73728,
          "time": 180,
          "velocity": 0.6456692913385826
        },
        {
          "duration": 0.126953125,
          "durationTicks": 52,
          "midi": 86,
          "name": "D6",
          "ticks": 73824,
          "time": 180.234375,
          "velocity": 0.5984251968503937
        },
        {
          "duration": 0.15380859375,
          "durationTicks": 63,
          "midi": 81,
          "name": "A5",
          "ticks": 73920,
          "time": 180.46875,
          "velocity": 0.6220472440944882
        },
        {
          "duration": 0.126953125,
          "durationTicks": 52,
          "midi": 76,
          "name": "E5",
          "ticks": 74016,
          "time": 180.703125,
          "velocity": 0.6456692913385826
        },
        {
          "duration": 0.10986328125,
          "durationTicks": 45,
          "midi": 81,
          "name": "A5",
          "ticks": 74112,
          "time": 180.9375,
          "velocity": 0.5669291338582677
        },
        {
          "duration": 0.06591796875,
          "durationTicks": 27,
          "midi": 81,
          "name": "A5",
          "ticks": 74160,
          "time": 181.0546875,
          "velocity": 0.6220472440944882
        },
        {
          "duration": 0.048828125,
          "durationTicks": 20,
          "midi": 81,
          "name": "A5",
          "ticks": 74208,
          "time": 181.171875,
          "velocity": 0.4881889763779528
        },
        {
          "duration": 0.068359375,
          "durationTicks": 28,
          "midi": 81,
          "name": "A5",
          "ticks": 74256,
          "time": 181.2890625,
          "velocity": 0.5511811023622047
        },
        {
          "duration": 0.06103515625,
          "durationTicks": 25,
          "midi": 81,
          "name": "A5",
          "ticks": 74304,
          "time": 181.40625,
          "velocity": 0.5511811023622047
        },
        {
          "duration": 0.1171875,
          "durationTicks": 48,
          "midi": 86,
          "name": "D6",
          "ticks": 74404,
          "time": 181.650390625,
          "velocity": 0.6062992125984252
        },
        {
          "duration": 0.10009765625,
          "durationTicks": 41,
          "midi": 91,
          "name": "G6",
          "ticks": 74496,
          "time": 181.875,
          "velocity": 0.5905511811023622
        },
        {
          "duration": 0.126953125,
          "durationTicks": 52,
          "midi": 91,
          "name": "G6",
          "ticks": 74592,
          "time": 182.109375,
          "velocity": 0.5984251968503937
        },
        {
          "duration": 0.15380859375,
          "durationTicks": 63,
          "midi": 86,
          "name": "D6",
          "ticks": 74688,
          "time": 182.34375,
          "velocity": 0.6062992125984252
        },
        {
          "duration": 0.126953125,
          "durationTicks": 52,
          "midi": 81,
          "name": "A5",
          "ticks": 74784,
          "time": 182.578125,
          "velocity": 0.5984251968503937
        },
        {
          "duration": 0.10986328125,
          "durationTicks": 45,
          "midi": 86,
          "name": "D6",
          "ticks": 74880,
          "time": 182.8125,
          "velocity": 0.5669291338582677
        },
        {
          "duration": 0.06591796875,
          "durationTicks": 27,
          "midi": 86,
          "name": "D6",
          "ticks": 74928,
          "time": 182.9296875,
          "velocity": 0.6062992125984252
        },
        {
          "duration": 0.048828125,
          "durationTicks": 20,
          "midi": 86,
          "name": "D6",
          "ticks": 74976,
          "time": 183.046875,
          "velocity": 0.5039370078740157
        },
        {
          "duration": 0.068359375,
          "durationTicks": 28,
          "midi": 86,
          "name": "D6",
          "ticks": 75024,
          "time": 183.1640625,
          "velocity": 0.5275590551181102
        },
        {
          "duration": 0.06103515625,
          "durationTicks": 25,
          "midi": 86,
          "name": "D6",
          "ticks": 75072,
          "time": 183.28125,
          "velocity": 0.5275590551181102
        },
        {
          "duration": 0.11474609375,
          "durationTicks": 47,
          "midi": 91,
          "name": "G6",
          "ticks": 75168,
          "time": 183.515625,
          "velocity": 0.5984251968503937
        }
      ]
    }
  ]
}