{
  "header": {
    "keySignatures": [],
    "meta": {
      "title": "Kids",
      "artist": "MGMT",
      "creator": "unknown"
    },
    "name": "Elec. Piano (Classic)",
    "ppq": 384,
    "tempos": [
      {
        "bpm": 120,
        "ticks": 0
      }
    ],
    "timeSignatures": [
      {
        "ticks": 0,
        "timeSignature": [
          4,
          4
        ],
        "measures": 0
      }
    ]
  },
  "tracks": [
    {
      "channel": 0,
      "controlChanges": {},
      "pitchBends": [],
      "instrument": {
        "family": "piano",
        "number": 0,
        "name": "acoustic grand piano"
      },
      "name": "Elec. Piano (Classic)",
      "notes": [
        {
          "duration": 0.25,
          "durationTicks": 192,
          "midi": 70,
          "name": "A#4",
          "ticks": 1536,
          "time": 2,
          "velocity": 0.3937007874015748
        },
        {
          "duration": 0.25,
          "durationTicks": 192,
          "midi": 72,
          "name": "C5",
          "ticks": 1920,
          "time": 2.5,
          "velocity": 0.3937007874015748
        },
        {
          "duration": 0.25,
          "durationTicks": 192,
          "midi": 74,
          "name": "D5",
          "ticks": 2304,
          "time": 3,
          "velocity": 0.3937007874015748
        },
        {
          "duration": 0.25,
          "durationTicks": 192,
          "midi": 77,
          "name": "F5",
          "ticks": 2688,
          "time": 3.5,
          "velocity": 0.3937007874015748
        },
        {
          "duration": 0.5,
          "durationTicks": 384,
          "midi": 79,
          "name": "G5",
          "ticks": 3072,
          "time": 4,
          "velocity": 0.3937007874015748
        },
        {
          "duration": 0.25,
          "durationTicks": 192,
          "midi": 81,
          "name": "A5",
          "ticks": 3456,
          "time": 4.5,
          "velocity": 0.3937007874015748
        },
        {
          "duration": 0.25,
          "durationTicks": 192,
          "midi": 79,
          "name": "G5",
          "ticks": 3648,
          "time": 4.75,
          "velocity": 0.3937007874015748
        },
        {
          "duration": 0.25,
          "durationTicks": 192,
          "midi": 77,
          "name": "F5",
          "ticks": 4032,
          "time": 5.25,
          "velocity": 0.3937007874015748
        },
        {
          "duration": 2,
          "durationTicks": 1536,
          "midi": 74,
          "name": "D5",
          "ticks": 4416,
          "time": 5.75,
          "velocity": 0.3937007874015748
        },
        {
          "duration": 2.25,
          "durationTicks": 1728,
          "midi": 72,
          "name": "C5",
          "ticks": 5952,
          "time": 7.75,
          "velocity": 0.3937007874015748
        },
        {
          "duration": 0.25,
          "durationTicks": 192,
          "midi": 70,
          "name": "A#4",
          "ticks": 7680,
          "time": 10,
          "velocity": 0.3937007874015748
        },
        {
          "duration": 0.25,
          "durationTicks": 192,
          "midi": 72,
          "name": "C5",
          "ticks": 8064,
          "time": 10.5,
          "velocity": 0.3937007874015748
        },
        {
          "duration": 0.25,
          "durationTicks": 192,
          "midi": 74,
          "name": "D5",
          "ticks": 8448,
          "time": 11,
          "velocity": 0.3937007874015748
        },
        {
          "duration": 0.25,
          "durationTicks": 192,
          "midi": 77,
          "name": "F5",
          "ticks": 8832,
          "time": 11.5,
          "velocity": 0.3937007874015748
        },
        {
          "duration": 0.5,
          "durationTicks": 384,
          "midi": 79,
          "name": "G5",
          "ticks": 9216,
          "time": 12,
          "velocity": 0.3937007874015748
        },
        {
          "duration": 0.25,
          "durationTicks": 192,
          "midi": 81,
          "name": "A5",
          "ticks": 9600,
          "time": 12.5,
          "velocity": 0.3937007874015748
        },
        {
          "duration": 0.25,
          "durationTicks": 192,
          "midi": 79,
          "name": "G5",
          "ticks": 9792,
          "time": 12.75,
          "velocity": 0.3937007874015748
        },
        {
          "duration": 0.25,
          "durationTicks": 192,
          "midi": 77,
          "name": "F5",
          "ticks": 10176,
          "time": 13.25,
          "velocity": 0.3937007874015748
        },
        {
          "duration": 2.25,
          "durationTicks": 1728,
          "midi": 74,
          "name": "D5",
          "ticks": 10560,
          "time": 13.75,
          "velocity": 0.3937007874015748
        },
        {
          "duration": 0.25,
          "durationTicks": 192,
          "midi": 70,
          "name": "A#4",
          "ticks": 13824,
          "time": 18,
          "velocity": 0.3937007874015748
        },
        {
          "duration": 0.25,
          "durationTicks": 192,
          "midi": 72,
          "name": "C5",
          "ticks": 14208,
          "time": 18.5,
          "velocity": 0.3937007874015748
        },
        {
          "duration": 0.25,
          "durationTicks": 192,
          "midi": 74,
          "name": "D5",
          "ticks": 14592,
          "time": 19,
          "velocity": 0.3937007874015748
        },
        {
          "duration": 0.25,
          "durationTicks": 192,
          "midi": 77,
          "name": "F5",
          "ticks": 14976,
          "time": 19.5,
          "velocity": 0.3937007874015748
        },
        {
          "duration": 0.5,
          "durationTicks": 384,
          "midi": 79,
          "name": "G5",
          "ticks": 15360,
          "time": 20,
          "velocity": 0.3937007874015748
        },
        {
          "duration": 0.25,
          "durationTicks": 192,
          "midi": 81,
          "name": "A5",
          "ticks": 15744,
          "time": 20.5,
          "velocity": 0.3937007874015748
        },
        {
          "duration": 0.25,
          "durationTicks": 192,
          "midi": 79,
          "name": "G5",
          "ticks": 15936,
          "time": 20.75,
          "velocity": 0.3937007874015748
        },
        {
          "duration": 0.25,
          "durationTicks": 192,
          "midi": 77,
          "name": "F5",
          "ticks": 16320,
          "time": 21.25,
          "velocity": 0.3937007874015748
        },
        {
          "duration": 2,
          "durationTicks": 1536,
          "midi": 74,
          "name": "D5",
          "ticks": 16704,
          "time": 21.75,
          "velocity": 0.3937007874015748
        },
        {
          "duration": 2.25,
          "durationTicks": 1728,
          "midi": 72,
          "name": "C5",
          "ticks": 18240,
          "time": 23.75,
          "velocity": 0.3937007874015748
        },
        {
          "duration": 0.25,
          "durationTicks": 192,
          "midi": 70,
          "name": "A#4",
          "ticks": 19968,
          "time": 26,
          "velocity": 0.3937007874015748
        },
        {
          "duration": 0.25,
          "durationTicks": 192,
          "midi": 72,
          "name": "C5",
          "ticks": 20352,
          "time": 26.5,
          "velocity": 0.3937007874015748
        },
        {
          "duration": 0.25,
          "durationTicks": 192,
          "midi": 74,
          "name": "D5",
          "ticks": 20736,
          "time": 27,
          "velocity": 0.3937007874015748
        },
        {
          "duration": 0.25,
          "durationTicks": 192,
          "midi": 77,
          "name": "F5",
          "ticks": 21120,
          "time": 27.5,
          "velocity": 0.3937007874015748
        },
        {
          "duration": 0.5,
          "durationTicks": 384,
          "midi": 79,
          "name": "G5",
          "ticks": 21504,
          "time": 28,
          "velocity": 0.3937007874015748
        },
        {
          "duration": 0.25,
          "durationTicks": 192,
          "midi": 81,
          "name": "A5",
          "ticks": 21888,
          "time": 28.5,
          "velocity": 0.3937007874015748
        },
        {
          "duration": 0.25,
          "durationTicks": 192,
          "midi": 79,
          "name": "G5",
          "ticks": 22080,
          "time": 28.75,
          "velocity": 0.3937007874015748
        },
        {
          "duration": 0.25,
          "durationTicks": 192,
          "midi": 77,
          "name": "F5",
          "ticks": 22464,
          "time": 29.25,
          "velocity": 0.3937007874015748
        },
        {
          "duration": 2.25,
          "durationTicks": 1728,
          "midi": 74,
          "name": "D5",
          "ticks": 22848,
          "time": 29.75,
          "velocity": 0.3937007874015748
        },
        {
          "duration": 0.25,
          "durationTicks": 192,
          "midi": 75,
          "name": "D#5",
          "ticks": 24576,
          "time": 32,
          "velocity": 0.3937007874015748
        },
        {
          "duration": 0.5,
          "durationTicks": 384,
          "midi": 74,
          "name": "D5",
          "ticks": 24768,
          "time": 32.25,
          "velocity": 0.3937007874015748
        },
        {
          "duration": 0.5,
          "durationTicks": 384,
          "midi": 72,
          "name": "C5",
          "ticks": 25152,
          "time": 32.75,
          "velocity": 0.3937007874015748
        },
        {
          "duration": 0.25,
          "durationTicks": 192,
          "midi": 74,
          "name": "D5",
          "ticks": 25536,
          "time": 33.25,
          "velocity": 0.3937007874015748
        },
        {
          "duration": 0.25,
          "durationTicks": 192,
          "midi": 72,
          "name": "C5",
          "ticks": 25728,
          "time": 33.5,
          "velocity": 0.3937007874015748
        },
        {
          "duration": 0.25,
          "durationTicks": 192,
          "midi": 70,
          "name": "A#4",
          "ticks": 25920,
          "time": 33.75,
          "velocity": 0.3937007874015748
        },
        {
          "duration": 0.25,
          "durationTicks": 192,
          "midi": 70,
          "name": "A#4",
          "ticks": 26112,
          "time": 34,
          "velocity": 0.3937007874015748
        },
        {
          "duration": 0.25,
          "durationTicks": 192,
          "midi": 72,
          "name": "C5",
          "ticks": 26496,
          "time": 34.5,
          "velocity": 0.3937007874015748
        },
        {
          "duration": 0.25,
          "durationTicks": 192,
          "midi": 74,
          "name": "D5",
          "ticks": 26880,
          "time": 35,
          "velocity": 0.3937007874015748
        },
        {
          "duration": 0.25,
          "durationTicks": 192,
          "midi": 77,
          "name": "F5",
          "ticks": 27264,
          "time": 35.5,
          "velocity": 0.3937007874015748
        },
        {
          "duration": 0.5,
          "durationTicks": 384,
          "midi": 79,
          "name": "G5",
          "ticks": 27648,
          "time": 36,
          "velocity": 0.3937007874015748
        },
        {
          "duration": 0.25,
          "durationTicks": 192,
          "midi": 81,
          "name": "A5",
          "ticks": 28032,
          "time": 36.5,
          "velocity": 0.3937007874015748
        },
        {
          "duration": 0.25,
          "durationTicks": 192,
          "midi": 79,
          "name": "G5",
          "ticks": 28224,
          "time": 36.75,
          "velocity": 0.3937007874015748
        },
        {
          "duration": 0.25,
          "durationTicks": 192,
          "midi": 77,
          "name": "F5",
          "ticks": 28608,
          "time": 37.25,
          "velocity": 0.3937007874015748
        },
        {
          "duration": 2,
          "durationTicks": 1536,
          "midi": 74,
          "name": "D5",
          "ticks": 28992,
          "time": 37.75,
          "velocity": 0.3937007874015748
        },
        {
          "duration": 2.25,
          "durationTicks": 1728,
          "midi": 72,
          "name": "C5",
          "ticks": 30528,
          "time": 39.75,
          "velocity": 0.3937007874015748
        },
        {
          "duration": 0.25,
          "durationTicks": 192,
          "midi": 70,
          "name": "A#4",
          "ticks": 32256,
          "time": 42,
          "velocity": 0.3937007874015748
        },
        {
          "duration": 0.25,
          "durationTicks": 192,
          "midi": 72,
          "name": "C5",
          "ticks": 32640,
          "time": 42.5,
          "velocity": 0.3937007874015748
        },
        {
          "duration": 0.25,
          "durationTicks": 192,
          "midi": 74,
          "name": "D5",
          "ticks": 33024,
          "time": 43,
          "velocity": 0.3937007874015748
        },
        {
          "duration": 0.5,
          "durationTicks": 384,
          "midi": 72,
          "name": "C5",
          "ticks": 33408,
          "time": 43.5,
          "velocity": 0.3937007874015748
        },
        {
          "duration": 0.5,
          "durationTicks": 384,
          "midi": 70,
          "name": "A#4",
          "ticks": 33792,
          "time": 44,
          "velocity": 0.3937007874015748
        },
        {
          "duration": 0.25,
          "durationTicks": 192,
          "midi": 72,
          "name": "C5",
          "ticks": 34176,
          "time": 44.5,
          "velocity": 0.3937007874015748
        },
        {
          "duration": 0.5,
          "durationTicks": 384,
          "midi": 70,
          "name": "A#4",
          "ticks": 34368,
          "time": 44.75,
          "velocity": 0.3937007874015748
        },
        {
          "duration": 0.25,
          "durationTicks": 192,
          "midi": 67,
          "name": "G4",
          "ticks": 34752,
          "time": 45.25,
          "velocity": 0.3937007874015748
        },
        {
          "duration": 0.25,
          "durationTicks": 192,
          "midi": 72,
          "name": "C5",
          "ticks": 34944,
          "time": 45.5,
          "velocity": 0.3937007874015748
        },
        {
          "duration": 2.25,
          "durationTicks": 1728,
          "midi": 70,
          "name": "A#4",
          "ticks": 35136,
          "time": 45.75,
          "velocity": 0.3937007874015748
        },
        {
          "duration": 0.25,
          "durationTicks": 192,
          "midi": 75,
          "name": "D#5",
          "ticks": 36864,
          "time": 48,
          "velocity": 0.3937007874015748
        },
        {
          "duration": 0.5,
          "durationTicks": 384,
          "midi": 74,
          "name": "D5",
          "ticks": 37056,
          "time": 48.25,
          "velocity": 0.3937007874015748
        },
        {
          "duration": 0.5,
          "durationTicks": 384,
          "midi": 72,
          "name": "C5",
          "ticks": 37440,
          "time": 48.75,
          "velocity": 0.3937007874015748
        },
        {
          "duration": 0.25,
          "durationTicks": 192,
          "midi": 74,
          "name": "D5",
          "ticks": 37824,
          "time": 49.25,
          "velocity": 0.3937007874015748
        },
        {
          "duration": 0.25,
          "durationTicks": 192,
          "midi": 72,
          "name": "C5",
          "ticks": 38016,
          "time": 49.5,
          "velocity": 0.3937007874015748
        },
        {
          "duration": 0.25,
          "durationTicks": 192,
          "midi": 70,
          "name": "A#4",
          "ticks": 38208,
          "time": 49.75,
          "velocity": 0.3937007874015748
        },
        {
          "duration": 0.25,
          "durationTicks": 192,
          "midi": 70,
          "name": "A#4",
          "ticks": 50688,
          "time": 66,
          "velocity": 0.3937007874015748
        },
        {
          "duration": 0.25,
          "durationTicks": 192,
          "midi": 70,
          "name": "A#4",
          "ticks": 51072,
          "time": 66.5,
          "velocity": 0.3937007874015748
        },
        {
          "duration": 0.25,
          "durationTicks": 192,
          "midi": 72,
          "name": "C5",
          "ticks": 51648,
          "time": 67.25,
          "velocity": 0.3937007874015748
        },
        {
          "duration": 0.25,
          "durationTicks": 192,
          "midi": 72,
          "name": "C5",
          "ticks": 52032,
          "time": 67.75,
          "velocity": 0.3937007874015748
        },
        {
          "duration": 0.25,
          "durationTicks": 192,
          "midi": 70,
          "name": "A#4",
          "ticks": 52416,
          "time": 68.25,
          "velocity": 0.3937007874015748
        },
        {
          "duration": 0.25,
          "durationTicks": 192,
          "midi": 70,
          "name": "A#4",
          "ticks": 52800,
          "time": 68.75,
          "velocity": 0.3937007874015748
        },
        {
          "duration": 0.25,
          "durationTicks": 192,
          "midi": 70,
          "name": "A#4",
          "ticks": 53184,
          "time": 69.25,
          "velocity": 0.3937007874015748
        },
        {
          "duration": 0.25,
          "durationTicks": 192,
          "midi": 72,
          "name": "C5",
          "ticks": 53376,
          "time": 69.5,
          "velocity": 0.3937007874015748
        },
        {
          "duration": 0.25,
          "durationTicks": 192,
          "midi": 70,
          "name": "A#4",
          "ticks": 53760,
          "time": 70,
          "velocity": 0.3937007874015748
        },
        {
          "duration": 0.25,
          "durationTicks": 192,
          "midi": 70,
          "name": "A#4",
          "ticks": 54144,
          "time": 70.5,
          "velocity": 0.3937007874015748
        },
        {
          "duration": 0.25,
          "durationTicks": 192,
          "midi": 72,
          "name": "C5",
          "ticks": 54528,
          "time": 71,
          "velocity": 0.3937007874015748
        },
        {
          "duration": 0.25,
          "durationTicks": 192,
          "midi": 70,
          "name": "A#4",
          "ticks": 54720,
          "time": 71.25,
          "velocity": 0.3937007874015748
        },
        {
          "duration": 0.25,
          "durationTicks": 192,
          "midi": 72,
          "name": "C5",
          "ticks": 55104,
          "time": 71.75,
          "velocity": 0.3937007874015748
        },
        {
          "duration": 0.25,
          "durationTicks": 192,
          "midi": 70,
          "name": "A#4",
          "ticks": 55296,
          "time": 72,
          "velocity": 0.3937007874015748
        },
        {
          "duration": 0.25,
          "durationTicks": 192,
          "midi": 72,
          "name": "C5",
          "ticks": 55488,
          "time": 72.25,
          "velocity": 0.3937007874015748
        },
        {
          "duration": 0.25,
          "durationTicks": 192,
          "midi": 70,
          "name": "A#4",
          "ticks": 55680,
          "time": 72.5,
          "velocity": 0.3937007874015748
        },
        {
          "duration": 0.25,
          "durationTicks": 192,
          "midi": 74,
          "name": "D5",
          "ticks": 56064,
          "time": 73,
          "velocity": 0.3937007874015748
        },
        {
          "duration": 0.25,
          "durationTicks": 192,
          "midi": 72,
          "name": "C5",
          "ticks": 56256,
          "time": 73.25,
          "velocity": 0.3937007874015748
        },
        {
          "duration": 0.25,
          "durationTicks": 192,
          "midi": 72,
          "name": "C5",
          "ticks": 56640,
          "time": 73.75,
          "velocity": 0.3937007874015748
        },
        {
          "duration": 0.25,
          "durationTicks": 192,
          "midi": 70,
          "name": "A#4",
          "ticks": 56832,
          "time": 74,
          "velocity": 0.3937007874015748
        },
        {
          "duration": 0.25,
          "durationTicks": 192,
          "midi": 70,
          "name": "A#4",
          "ticks": 57216,
          "time": 74.5,
          "velocity": 0.3937007874015748
        },
        {
          "duration": 0.25,
          "durationTicks": 192,
          "midi": 72,
          "name": "C5",
          "ticks": 57792,
          "time": 75.25,
          "velocity": 0.3937007874015748
        },
        {
          "duration": 0.25,
          "durationTicks": 192,
          "midi": 72,
          "name": "C5",
          "ticks": 58176,
          "time": 75.75,
          "velocity": 0.3937007874015748
        },
        {
          "duration": 0.25,
          "durationTicks": 192,
          "midi": 70,
          "name": "A#4",
          "ticks": 58560,
          "time": 76.25,
          "velocity": 0.3937007874015748
        },
        {
          "duration": 0.25,
          "durationTicks": 192,
          "midi": 70,
          "name": "A#4",
          "ticks": 58944,
          "time": 76.75,
          "velocity": 0.3937007874015748
        },
        {
          "duration": 0.25,
          "durationTicks": 192,
          "midi": 70,
          "name": "A#4",
          "ticks": 59328,
          "time": 77.25,
          "velocity": 0.3937007874015748
        },
        {
          "duration": 0.25,
          "durationTicks": 192,
          "midi": 72,
          "name": "C5",
          "ticks": 59520,
          "time": 77.5,
          "velocity": 0.3937007874015748
        },
        {
          "duration": 0.25,
          "durationTicks": 192,
          "midi": 70,
          "name": "A#4",
          "ticks": 59904,
          "time": 78,
          "velocity": 0.3937007874015748
        },
        {
          "duration": 0.25,
          "durationTicks": 192,
          "midi": 70,
          "name": "A#4",
          "ticks": 60288,
          "time": 78.5,
          "velocity": 0.3937007874015748
        },
        {
          "duration": 0.25,
          "durationTicks": 192,
          "midi": 72,
          "name": "C5",
          "ticks": 60672,
          "time": 79,
          "velocity": 0.3937007874015748
        },
        {
          "duration": 0.25,
          "durationTicks": 192,
          "midi": 70,
          "name": "A#4",
          "ticks": 60864,
          "time": 79.25,
          "velocity": 0.3937007874015748
        },
        {
          "duration": 0.25,
          "durationTicks": 192,
          "midi": 72,
          "name": "C5",
          "ticks": 61248,
          "time": 79.75,
          "velocity": 0.3937007874015748
        },
        {
          "duration": 0.25,
          "durationTicks": 192,
          "midi": 70,
          "name": "A#4",
          "ticks": 61440,
          "time": 80,
          "velocity": 0.3937007874015748
        },
        {
          "duration": 0.25,
          "durationTicks": 192,
          "midi": 72,
          "name": "C5",
          "ticks": 61632,
          "time": 80.25,
          "velocity": 0.3937007874015748
        },
        {
          "duration": 0.25,
          "durationTicks": 192,
          "midi": 70,
          "name": "A#4",
          "ticks": 61824,
          "time": 80.5,
          "velocity": 0.3937007874015748
        },
        {
          "duration": 0.25,
          "durationTicks": 192,
          "midi": 74,
          "name": "D5",
          "ticks": 62208,
          "time": 81,
          "velocity": 0.3937007874015748
        },
        {
          "duration": 0.25,
          "durationTicks": 192,
          "midi": 72,
          "name": "C5",
          "ticks": 62400,
          "time": 81.25,
          "velocity": 0.3937007874015748
        },
        {
          "duration": 0.25,
          "durationTicks": 192,
          "midi": 72,
          "name": "C5",
          "ticks": 62784,
          "time": 81.75,
          "velocity": 0.3937007874015748
        },
        {
          "duration": 0.25,
          "durationTicks": 192,
          "midi": 70,
          "name": "A#4",
          "ticks": 62976,
          "time": 82,
          "velocity": 0.3937007874015748
        },
        {
          "duration": 0.25,
          "durationTicks": 192,
          "midi": 72,
          "name": "C5",
          "ticks": 63360,
          "time": 82.5,
          "velocity": 0.3937007874015748
        },
        {
          "duration": 0.25,
          "durationTicks": 192,
          "midi": 74,
          "name": "D5",
          "ticks": 63744,
          "time": 83,
          "velocity": 0.3937007874015748
        },
        {
          "duration": 0.25,
          "durationTicks": 192,
          "midi": 77,
          "name": "F5",
          "ticks": 64128,
          "time": 83.5,
          "velocity": 0.3937007874015748
        },
        {
          "duration": 0.5,
          "durationTicks": 384,
          "midi": 79,
          "name": "G5",
          "ticks": 64512,
          "time": 84,
          "velocity": 0.3937007874015748
        },
        {
          "duration": 0.25,
          "durationTicks": 192,
          "midi": 81,
          "name": "A5",
          "ticks": 64896,
          "time": 84.5,
          "velocity": 0.3937007874015748
        },
        {
          "duration": 0.25,
          "durationTicks": 192,
          "midi": 79,
          "name": "G5",
          "ticks": 65088,
          "time": 84.75,
          "velocity": 0.3937007874015748
        },
        {
          "duration": 0.25,
          "durationTicks": 192,
          "midi": 77,
          "name": "F5",
          "ticks": 65472,
          "time": 85.25,
          "velocity": 0.3937007874015748
        },
        {
          "duration": 2,
          "durationTicks": 1536,
          "midi": 74,
          "name": "D5",
          "ticks": 65856,
          "time": 85.75,
          "velocity": 0.3937007874015748
        },
        {
          "duration": 2.25,
          "durationTicks": 1728,
          "midi": 72,
          "name": "C5",
          "ticks": 67392,
          "time": 87.75,
          "velocity": 0.3937007874015748
        },
        {
          "duration": 0.25,
          "durationTicks": 192,
          "midi": 70,
          "name": "A#4",
          "ticks": 69120,
          "time": 90,
          "velocity": 0.3937007874015748
        },
        {
          "duration": 0.25,
          "durationTicks": 192,
          "midi": 72,
          "name": "C5",
          "ticks": 69504,
          "time": 90.5,
          "velocity": 0.3937007874015748
        },
        {
          "duration": 0.25,
          "durationTicks": 192,
          "midi": 74,
          "name": "D5",
          "ticks": 69888,
          "time": 91,
          "velocity": 0.3937007874015748
        },
        {
          "duration": 0.25,
          "durationTicks": 192,
          "midi": 77,
          "name": "F5",
          "ticks": 70272,
          "time": 91.5,
          "velocity": 0.3937007874015748
        },
        {
          "duration": 0.5,
          "durationTicks": 384,
          "midi": 79,
          "name": "G5",
          "ticks": 70656,
          "time": 92,
          "velocity": 0.3937007874015748
        },
        {
          "duration": 0.25,
          "durationTicks": 192,
          "midi": 81,
          "name": "A5",
          "ticks": 71040,
          "time": 92.5,
          "velocity": 0.3937007874015748
        },
        {
          "duration": 0.25,
          "durationTicks": 192,
          "midi": 79,
          "name": "G5",
          "ticks": 71232,
          "time": 92.75,
          "velocity": 0.3937007874015748
        },
        {
          "duration": 0.25,
          "durationTicks": 192,
          "midi": 77,
          "name": "F5",
          "ticks": 71616,
          "time": 93.25,
          "velocity": 0.3937007874015748
        },
        {
          "duration": 2.25,
          "durationTicks": 1728,
          "midi": 74,
          "name": "D5",
          "ticks": 72000,
          "time": 93.75,
          "velocity": 0.3937007874015748
        },
        {
          "duration": 0.25,
          "durationTicks": 192,
          "midi": 75,
          "name": "D#5",
          "ticks": 73728,
          "time": 96,
          "velocity": 0.3937007874015748
        },
        {
          "duration": 0.5,
          "durationTicks": 384,
          "midi": 74,
          "name": "D5",
          "ticks": 73920,
          "time": 96.25,
          "velocity": 0.3937007874015748
        },
        {
          "duration": 0.5,
          "durationTicks": 384,
          "midi": 72,
          "name": "C5",
          "ticks": 74304,
          "time": 96.75,
          "velocity": 0.3937007874015748
        },
        {
          "duration": 0.25,
          "durationTicks": 192,
          "midi": 74,
          "name": "D5",
          "ticks": 74688,
          "time": 97.25,
          "velocity": 0.3937007874015748
        },
        {
          "duration": 0.25,
          "durationTicks": 192,
          "midi": 72,
          "name": "C5",
          "ticks": 74880,
          "time": 97.5,
          "velocity": 0.3937007874015748
        },
        {
          "duration": 0.25,
          "durationTicks": 192,
          "midi": 70,
          "name": "A#4",
          "ticks": 75072,
          "time": 97.75,
          "velocity": 0.3937007874015748
        },
        {
          "duration": 0.25,
          "durationTicks": 192,
          "midi": 70,
          "name": "A#4",
          "ticks": 75264,
          "time": 98,
          "velocity": 0.3937007874015748
        },
        {
          "duration": 0.25,
          "durationTicks": 192,
          "midi": 72,
          "name": "C5",
          "ticks": 75648,
          "time": 98.5,
          "velocity": 0.3937007874015748
        },
        {
          "duration": 0.25,
          "durationTicks": 192,
          "midi": 74,
          "name": "D5",
          "ticks": 76032,
          "time": 99,
          "velocity": 0.3937007874015748
        },
        {
          "duration": 0.25,
          "durationTicks": 192,
          "midi": 77,
          "name": "F5",
          "ticks": 76416,
          "time": 99.5,
          "velocity": 0.3937007874015748
        },
        {
          "duration": 0.5,
          "durationTicks": 384,
          "midi": 79,
          "name": "G5",
          "ticks": 76800,
          "time": 100,
          "velocity": 0.3937007874015748
        },
        {
          "duration": 0.25,
          "durationTicks": 192,
          "midi": 81,
          "name": "A5",
          "ticks": 77184,
          "time": 100.5,
          "velocity": 0.3937007874015748
        },
        {
          "duration": 0.25,
          "durationTicks": 192,
          "midi": 79,
          "name": "G5",
          "ticks": 77376,
          "time": 100.75,
          "velocity": 0.3937007874015748
        },
        {
          "duration": 0.25,
          "durationTicks": 192,
          "midi": 77,
          "name": "F5",
          "ticks": 77760,
          "time": 101.25,
          "velocity": 0.3937007874015748
        },
        {
          "duration": 2,
          "durationTicks": 1536,
          "midi": 74,
          "name": "D5",
          "ticks": 78144,
          "time": 101.75,
          "velocity": 0.3937007874015748
        },
        {
          "duration": 2.25,
          "durationTicks": 1728,
          "midi": 72,
          "name": "C5",
          "ticks": 79680,
          "time": 103.75,
          "velocity": 0.3937007874015748
        },
        {
          "duration": 0.25,
          "durationTicks": 192,
          "midi": 70,
          "name": "A#4",
          "ticks": 81408,
          "time": 106,
          "velocity": 0.3937007874015748
        },
        {
          "duration": 0.25,
          "durationTicks": 192,
          "midi": 72,
          "name": "C5",
          "ticks": 81792,
          "time": 106.5,
          "velocity": 0.3937007874015748
        },
        {
          "duration": 0.25,
          "durationTicks": 192,
          "midi": 74,
          "name": "D5",
          "ticks": 82176,
          "time": 107,
          "velocity": 0.3937007874015748
        },
        {
          "duration": 0.5,
          "durationTicks": 384,
          "midi": 72,
          "name": "C5",
          "ticks": 82560,
          "time": 107.5,
          "velocity": 0.3937007874015748
        },
        {
          "duration": 0.5,
          "durationTicks": 384,
          "midi": 70,
          "name": "A#4",
          "ticks": 82944,
          "time": 108,
          "velocity": 0.3937007874015748
        },
        {
          "duration": 0.25,
          "durationTicks": 192,
          "midi": 72,
          "name": "C5",
          "ticks": 83328,
          "time": 108.5,
          "velocity": 0.3937007874015748
        },
        {
          "duration": 0.5,
          "durationTicks": 384,
          "midi": 70,
          "name": "A#4",
          "ticks": 83520,
          "time": 108.75,
          "velocity": 0.3937007874015748
        },
        {
          "duration": 0.25,
          "durationTicks": 192,
          "midi": 67,
          "name": "G4",
          "ticks": 83904,
          "time": 109.25,
          "velocity": 0.3937007874015748
        },
        {
          "duration": 0.25,
          "durationTicks": 192,
          "midi": 72,
          "name": "C5",
          "ticks": 84096,
          "time": 109.5,
          "velocity": 0.3937007874015748
        },
        {
          "duration": 2.25,
          "durationTicks": 1728,
          "midi": 70,
          "name": "A#4",
          "ticks": 84288,
          "time": 109.75,
          "velocity": 0.3937007874015748
        },
        {
          "duration": 0.25,
          "durationTicks": 192,
          "midi": 75,
          "name": "D#5",
          "ticks": 86016,
          "time": 112,
          "velocity": 0.3937007874015748
        },
        {
          "duration": 0.5,
          "durationTicks": 384,
          "midi": 74,
          "name": "D5",
          "ticks": 86208,
          "time": 112.25,
          "velocity": 0.3937007874015748
        },
        {
          "duration": 0.5,
          "durationTicks": 384,
          "midi": 72,
          "name": "C5",
          "ticks": 86592,
          "time": 112.75,
          "velocity": 0.3937007874015748
        },
        {
          "duration": 0.25,
          "durationTicks": 192,
          "midi": 74,
          "name": "D5",
          "ticks": 86976,
          "time": 113.25,
          "velocity": 0.3937007874015748
        },
        {
          "duration": 0.25,
          "durationTicks": 192,
          "midi": 72,
          "name": "C5",
          "ticks": 87168,
          "time": 113.5,
          "velocity": 0.3937007874015748
        },
        {
          "duration": 0.25,
          "durationTicks": 192,
          "midi": 70,
          "name": "A#4",
          "ticks": 87360,
          "time": 113.75,
          "velocity": 0.3937007874015748
        },
        {
          "duration": 0.25,
          "durationTicks": 192,
          "midi": 70,
          "name": "A#4",
          "ticks": 112128,
          "time": 146,
          "velocity": 0.3937007874015748
        },
        {
          "duration": 0.25,
          "durationTicks": 192,
          "midi": 72,
          "name": "C5",
          "ticks": 112512,
          "time": 146.5,
          "velocity": 0.3937007874015748
        },
        {
          "duration": 0.25,
          "durationTicks": 192,
          "midi": 74,
          "name": "D5",
          "ticks": 112896,
          "time": 147,
          "velocity": 0.3937007874015748
        },
        {
          "duration": 0.25,
          "durationTicks": 192,
          "midi": 77,
          "name": "F5",
          "ticks": 113280,
          "time": 147.5,
          "velocity": 0.3937007874015748
        },
        {
          "duration": 0.5,
          "durationTicks": 384,
          "midi": 79,
          "name": "G5",
          "ticks": 113664,
          "time": 148,
          "velocity": 0.3937007874015748
        },
        {
          "duration": 0.25,
          "durationTicks": 192,
          "midi": 81,
          "name": "A5",
          "ticks": 114048,
          "time": 148.5,
          "velocity": 0.3937007874015748
        },
        {
          "duration": 0.25,
          "durationTicks": 192,
          "midi": 79,
          "name": "G5",
          "ticks": 114240,
          "time": 148.75,
          "velocity": 0.3937007874015748
        },
        {
          "duration": 0.25,
          "durationTicks": 192,
          "midi": 77,
          "name": "F5",
          "ticks": 114624,
          "time": 149.25,
          "velocity": 0.3937007874015748
        },
        {
          "duration": 2,
          "durationTicks": 1536,
          "midi": 74,
          "name": "D5",
          "ticks": 115008,
          "time": 149.75,
          "velocity": 0.3937007874015748
        },
        {
          "duration": 2.25,
          "durationTicks": 1728,
          "midi": 72,
          "name": "C5",
          "ticks": 116544,
          "time": 151.75,
          "velocity": 0.3937007874015748
        },
        {
          "duration": 0.25,
          "durationTicks": 192,
          "midi": 70,
          "name": "A#4",
          "ticks": 118272,
          "time": 154,
          "velocity": 0.3937007874015748
        },
        {
          "duration": 0.25,
          "durationTicks": 192,
          "midi": 72,
          "name": "C5",
          "ticks": 118656,
          "time": 154.5,
          "velocity": 0.3937007874015748
        },
        {
          "duration": 0.25,
          "durationTicks": 192,
          "midi": 74,
          "name": "D5",
          "ticks": 119040,
          "time": 155,
          "velocity": 0.3937007874015748
        },
        {
          "duration": 0.25,
          "durationTicks": 192,
          "midi": 77,
          "name": "F5",
          "ticks": 119424,
          "time": 155.5,
          "velocity": 0.3937007874015748
        },
        {
          "duration": 0.5,
          "durationTicks": 384,
          "midi": 79,
          "name": "G5",
          "ticks": 119808,
          "time": 156,
          "velocity": 0.3937007874015748
        },
        {
          "duration": 0.25,
          "durationTicks": 192,
          "midi": 81,
          "name": "A5",
          "ticks": 120192,
          "time": 156.5,
          "velocity": 0.3937007874015748
        },
        {
          "duration": 0.25,
          "durationTicks": 192,
          "midi": 79,
          "name": "G5",
          "ticks": 120384,
          "time": 156.75,
          "velocity": 0.3937007874015748
        },
        {
          "duration": 0.25,
          "durationTicks": 192,
          "midi": 77,
          "name": "F5",
          "ticks": 120768,
          "time": 157.25,
          "velocity": 0.3937007874015748
        },
        {
          "duration": 2.25,
          "durationTicks": 1728,
          "midi": 74,
          "name": "D5",
          "ticks": 121152,
          "time": 157.75,
          "velocity": 0.3937007874015748
        },
        {
          "duration": 0.25,
          "durationTicks": 192,
          "midi": 75,
          "name": "D#5",
          "ticks": 122880,
          "time": 160,
          "velocity": 0.3937007874015748
        },
        {
          "duration": 0.5,
          "durationTicks": 384,
          "midi": 74,
          "name": "D5",
          "ticks": 123072,
          "time": 160.25,
          "velocity": 0.3937007874015748
        },
        {
          "duration": 0.5,
          "durationTicks": 384,
          "midi": 72,
          "name": "C5",
          "ticks": 123456,
          "time": 160.75,
          "velocity": 0.3937007874015748
        },
        {
          "duration": 0.25,
          "durationTicks": 192,
          "midi": 74,
          "name": "D5",
          "ticks": 123840,
          "time": 161.25,
          "velocity": 0.3937007874015748
        },
        {
          "duration": 0.25,
          "durationTicks": 192,
          "midi": 72,
          "name": "C5",
          "ticks": 124032,
          "time": 161.5,
          "velocity": 0.3937007874015748
        },
        {
          "duration": 0.25,
          "durationTicks": 192,
          "midi": 70,
          "name": "A#4",
          "ticks": 124224,
          "time": 161.75,
          "velocity": 0.3937007874015748
        },
        {
          "duration": 0.25,
          "durationTicks": 192,
          "midi": 70,
          "name": "A#4",
          "ticks": 124416,
          "time": 162,
          "velocity": 0.3937007874015748
        },
        {
          "duration": 0.25,
          "durationTicks": 192,
          "midi": 72,
          "name": "C5",
          "ticks": 124800,
          "time": 162.5,
          "velocity": 0.3937007874015748
        },
        {
          "duration": 0.25,
          "durationTicks": 192,
          "midi": 74,
          "name": "D5",
          "ticks": 125184,
          "time": 163,
          "velocity": 0.3937007874015748
        },
        {
          "duration": 0.25,
          "durationTicks": 192,
          "midi": 77,
          "name": "F5",
          "ticks": 125568,
          "time": 163.5,
          "velocity": 0.3937007874015748
        },
        {
          "duration": 0.5,
          "durationTicks": 384,
          "midi": 79,
          "name": "G5",
          "ticks": 125952,
          "time": 164,
          "velocity": 0.3937007874015748
        },
        {
          "duration": 0.25,
          "durationTicks": 192,
          "midi": 81,
          "name": "A5",
          "ticks": 126336,
          "time": 164.5,
          "velocity": 0.3937007874015748
        },
        {
          "duration": 0.25,
          "durationTicks": 192,
          "midi": 79,
          "name": "G5",
          "ticks": 126528,
          "time": 164.75,
          "velocity": 0.3937007874015748
        },
        {
          "duration": 0.25,
          "durationTicks": 192,
          "midi": 77,
          "name": "F5",
          "ticks": 126912,
          "time": 165.25,
          "velocity": 0.3937007874015748
        },
        {
          "duration": 2,
          "durationTicks": 1536,
          "midi": 74,
          "name": "D5",
          "ticks": 127296,
          "time": 165.75,
          "velocity": 0.3937007874015748
        },
        {
          "duration": 2.25,
          "durationTicks": 1728,
          "midi": 72,
          "name": "C5",
          "ticks": 128832,
          "time": 167.75,
          "velocity": 0.3937007874015748
        },
        {
          "duration": 0.25,
          "durationTicks": 192,
          "midi": 70,
          "name": "A#4",
          "ticks": 130560,
          "time": 170,
          "velocity": 0.3937007874015748
        },
        {
          "duration": 0.25,
          "durationTicks": 192,
          "midi": 72,
          "name": "C5",
          "ticks": 130944,
          "time": 170.5,
          "velocity": 0.3937007874015748
        },
        {
          "duration": 0.25,
          "durationTicks": 192,
          "midi": 74,
          "name": "D5",
          "ticks": 131328,
          "time": 171,
          "velocity": 0.3937007874015748
        },
        {
          "duration": 0.5,
          "durationTicks": 384,
          "midi": 72,
          "name": "C5",
          "ticks": 131712,
          "time": 171.5,
          "velocity": 0.3937007874015748
        },
        {
          "duration": 0.5,
          "durationTicks": 384,
          "midi": 70,
          "name": "A#4",
          "ticks": 132096,
          "time": 172,
          "velocity": 0.3937007874015748
        },
        {
          "duration": 0.25,
          "durationTicks": 192,
          "midi": 72,
          "name": "C5",
          "ticks": 132480,
          "time": 172.5,
          "velocity": 0.3937007874015748
        },
        {
          "duration": 0.5,
          "durationTicks": 384,
          "midi": 70,
          "name": "A#4",
          "ticks": 132672,
          "time": 172.75,
          "velocity": 0.3937007874015748
        },
        {
          "duration": 0.25,
          "durationTicks": 192,
          "midi": 67,
          "name": "G4",
          "ticks": 133056,
          "time": 173.25,
          "velocity": 0.3937007874015748
        },
        {
          "duration": 0.25,
          "durationTicks": 192,
          "midi": 72,
          "name": "C5",
          "ticks": 133248,
          "time": 173.5,
          "velocity": 0.3937007874015748
        },
        {
          "duration": 2.25,
          "durationTicks": 1728,
          "midi": 70,
          "name": "A#4",
          "ticks": 133440,
          "time": 173.75,
          "velocity": 0.3937007874015748
        },
        {
          "duration": 0.25,
          "durationTicks": 192,
          "midi": 75,
          "name": "D#5",
          "ticks": 135168,
          "time": 176,
          "velocity": 0.3937007874015748
        },
        {
          "duration": 0.5,
          "durationTicks": 384,
          "midi": 74,
          "name": "D5",
          "ticks": 135360,
          "time": 176.25,
          "velocity": 0.3937007874015748
        },
        {
          "duration": 0.5,
          "durationTicks": 384,
          "midi": 72,
          "name": "C5",
          "ticks": 135744,
          "time": 176.75,
          "velocity": 0.3937007874015748
        },
        {
          "duration": 0.25,
          "durationTicks": 192,
          "midi": 74,
          "name": "D5",
          "ticks": 136128,
          "time": 177.25,
          "velocity": 0.3937007874015748
        },
        {
          "duration": 0.25,
          "durationTicks": 192,
          "midi": 72,
          "name": "C5",
          "ticks": 136320,
          "time": 177.5,
          "velocity": 0.3937007874015748
        },
        {
          "duration": 0.25,
          "durationTicks": 192,
          "midi": 70,
          "name": "A#4",
          "ticks": 136512,
          "time": 177.75,
          "velocity": 0.3937007874015748
        },
        {
          "duration": 0.5,
          "durationTicks": 384,
          "midi": 70,
          "name": "A#4",
          "ticks": 148992,
          "time": 194,
          "velocity": 0.3937007874015748
        },
        {
          "duration": 0.5,
          "durationTicks": 384,
          "midi": 72,
          "name": "C5",
          "ticks": 149376,
          "time": 194.5,
          "velocity": 0.3937007874015748
        },
        {
          "duration": 0.5,
          "durationTicks": 384,
          "midi": 74,
          "name": "D5",
          "ticks": 149760,
          "time": 195,
          "velocity": 0.3937007874015748
        },
        {
          "duration": 0.5,
          "durationTicks": 384,
          "midi": 77,
          "name": "F5",
          "ticks": 150144,
          "time": 195.5,
          "velocity": 0.3937007874015748
        },
        {
          "duration": 0.5,
          "durationTicks": 384,
          "midi": 79,
          "name": "G5",
          "ticks": 150528,
          "time": 196,
          "velocity": 0.3937007874015748
        },
        {
          "duration": 0.25,
          "durationTicks": 192,
          "midi": 81,
          "name": "A5",
          "ticks": 150912,
          "time": 196.5,
          "velocity": 0.3937007874015748
        },
        {
          "duration": 0.5,
          "durationTicks": 384,
          "midi": 79,
          "name": "G5",
          "ticks": 151104,
          "time": 196.75,
          "velocity": 0.3937007874015748
        },
        {
          "duration": 0.5,
          "durationTicks": 384,
          "midi": 77,
          "name": "F5",
          "ticks": 151488,
          "time": 197.25,
          "velocity": 0.3937007874015748
        },
        {
          "duration": 2,
          "durationTicks": 1536,
          "midi": 74,
          "name": "D5",
          "ticks": 151872,
          "time": 197.75,
          "velocity": 0.3937007874015748
        },
        {
          "duration": 2.25,
          "durationTicks": 1728,
          "midi": 72,
          "name": "C5",
          "ticks": 153408,
          "time": 199.75,
          "velocity": 0.3937007874015748
        },
        {
          "duration": 0.5,
          "durationTicks": 384,
          "midi": 70,
          "name": "A#4",
          "ticks": 155136,
          "time": 202,
          "velocity": 0.3937007874015748
        },
        {
          "duration": 0.5,
          "durationTicks": 384,
          "midi": 72,
          "name": "C5",
          "ticks": 155520,
          "time": 202.5,
          "velocity": 0.3937007874015748
        },
        {
          "duration": 0.5,
          "durationTicks": 384,
          "midi": 74,
          "name": "D5",
          "ticks": 155904,
          "time": 203,
          "velocity": 0.3937007874015748
        },
        {
          "duration": 0.5,
          "durationTicks": 384,
          "midi": 77,
          "name": "F5",
          "ticks": 156288,
          "time": 203.5,
          "velocity": 0.3937007874015748
        },
        {
          "duration": 0.5,
          "durationTicks": 384,
          "midi": 79,
          "name": "G5",
          "ticks": 156672,
          "time": 204,
          "velocity": 0.3937007874015748
        },
        {
          "duration": 0.25,
          "durationTicks": 192,
          "midi": 81,
          "name": "A5",
          "ticks": 157056,
          "time": 204.5,
          "velocity": 0.3937007874015748
        },
        {
          "duration": 0.5,
          "durationTicks": 384,
          "midi": 79,
          "name": "G5",
          "ticks": 157248,
          "time": 204.75,
          "velocity": 0.3937007874015748
        },
        {
          "duration": 0.5,
          "durationTicks": 384,
          "midi": 77,
          "name": "F5",
          "ticks": 157632,
          "time": 205.25,
          "velocity": 0.3937007874015748
        },
        {
          "duration": 2.25,
          "durationTicks": 1728,
          "midi": 74,
          "name": "D5",
          "ticks": 158016,
          "time": 205.75,
          "velocity": 0.3937007874015748
        },
        {
          "duration": 0.5,
          "durationTicks": 384,
          "midi": 70,
          "name": "A#4",
          "ticks": 161280,
          "time": 210,
          "velocity": 0.3937007874015748
        },
        {
          "duration": 0.5,
          "durationTicks": 384,
          "midi": 72,
          "name": "C5",
          "ticks": 161664,
          "time": 210.5,
          "velocity": 0.3937007874015748
        },
        {
          "duration": 0.5,
          "durationTicks": 384,
          "midi": 74,
          "name": "D5",
          "ticks": 162048,
          "time": 211,
          "velocity": 0.3937007874015748
        },
        {
          "duration": 0.5,
          "durationTicks": 384,
          "midi": 77,
          "name": "F5",
          "ticks": 162432,
          "time": 211.5,
          "velocity": 0.3937007874015748
        },
        {
          "duration": 0.5,
          "durationTicks": 384,
          "midi": 79,
          "name": "G5",
          "ticks": 162816,
          "time": 212,
          "velocity": 0.3937007874015748
        },
        {
          "duration": 0.25,
          "durationTicks": 192,
          "midi": 81,
          "name": "A5",
          "ticks": 163200,
          "time": 212.5,
          "velocity": 0.3937007874015748
        },
        {
          "duration": 0.5,
          "durationTicks": 384,
          "midi": 79,
          "name": "G5",
          "ticks": 163392,
          "time": 212.75,
          "velocity": 0.3937007874015748
        },
        {
          "duration": 0.5,
          "durationTicks": 384,
          "midi": 77,
          "name": "F5",
          "ticks": 163776,
          "time": 213.25,
          "velocity": 0.3937007874015748
        },
        {
          "duration": 2,
          "durationTicks": 1536,
          "midi": 74,
          "name": "D5",
          "ticks": 164160,
          "time": 213.75,
          "velocity": 0.3937007874015748
        },
        {
          "duration": 2.25,
          "durationTicks": 1728,
          "midi": 72,
          "name": "C5",
          "ticks": 165696,
          "time": 215.75,
          "velocity": 0.3937007874015748
        },
        {
          "duration": 0.5,
          "durationTicks": 384,
          "midi": 70,
          "name": "A#4",
          "ticks": 167424,
          "time": 218,
          "velocity": 0.3937007874015748
        },
        {
          "duration": 0.5,
          "durationTicks": 384,
          "midi": 72,
          "name": "C5",
          "ticks": 167808,
          "time": 218.5,
          "velocity": 0.3937007874015748
        },
        {
          "duration": 0.5,
          "durationTicks": 384,
          "midi": 74,
          "name": "D5",
          "ticks": 168192,
          "time": 219,
          "velocity": 0.3937007874015748
        },
        {
          "duration": 0.5,
          "durationTicks": 384,
          "midi": 77,
          "name": "F5",
          "ticks": 168576,
          "time": 219.5,
          "velocity": 0.3937007874015748
        },
        {
          "duration": 0.5,
          "durationTicks": 384,
          "midi": 79,
          "name": "G5",
          "ticks": 168960,
          "time": 220,
          "velocity": 0.3937007874015748
        },
        {
          "duration": 0.25,
          "durationTicks": 192,
          "midi": 81,
          "name": "A5",
          "ticks": 169344,
          "time": 220.5,
          "velocity": 0.3937007874015748
        },
        {
          "duration": 0.5,
          "durationTicks": 384,
          "midi": 79,
          "name": "G5",
          "ticks": 169536,
          "time": 220.75,
          "velocity": 0.3937007874015748
        },
        {
          "duration": 0.5,
          "durationTicks": 384,
          "midi": 77,
          "name": "F5",
          "ticks": 169920,
          "time": 221.25,
          "velocity": 0.3937007874015748
        },
        {
          "duration": 2.25,
          "durationTicks": 1728,
          "midi": 74,
          "name": "D5",
          "ticks": 170304,
          "time": 221.75,
          "velocity": 0.3937007874015748
        },
        {
          "duration": 0.25,
          "durationTicks": 192,
          "midi": 70,
          "name": "A#4",
          "ticks": 173568,
          "time": 226,
          "velocity": 0.3937007874015748
        },
        {
          "duration": 0.25,
          "durationTicks": 192,
          "midi": 72,
          "name": "C5",
          "ticks": 173952,
          "time": 226.5,
          "velocity": 0.3937007874015748
        },
        {
          "duration": 0.25,
          "durationTicks": 192,
          "midi": 74,
          "name": "D5",
          "ticks": 174336,
          "time": 227,
          "velocity": 0.3937007874015748
        },
        {
          "duration": 0.5,
          "durationTicks": 384,
          "midi": 72,
          "name": "C5",
          "ticks": 174720,
          "time": 227.5,
          "velocity": 0.3937007874015748
        },
        {
          "duration": 0.5,
          "durationTicks": 384,
          "midi": 70,
          "name": "A#4",
          "ticks": 175104,
          "time": 228,
          "velocity": 0.3937007874015748
        },
        {
          "duration": 0.25,
          "durationTicks": 192,
          "midi": 72,
          "name": "C5",
          "ticks": 175488,
          "time": 228.5,
          "velocity": 0.3937007874015748
        },
        {
          "duration": 0.5,
          "durationTicks": 384,
          "midi": 70,
          "name": "A#4",
          "ticks": 175680,
          "time": 228.75,
          "velocity": 0.3937007874015748
        },
        {
          "duration": 0.25,
          "durationTicks": 192,
          "midi": 67,
          "name": "G4",
          "ticks": 176064,
          "time": 229.25,
          "velocity": 0.3937007874015748
        },
        {
          "duration": 0.25,
          "durationTicks": 192,
          "midi": 72,
          "name": "C5",
          "ticks": 176256,
          "time": 229.5,
          "velocity": 0.3937007874015748
        },
        {
          "duration": 2.25,
          "durationTicks": 1728,
          "midi": 70,
          "name": "A#4",
          "ticks": 176448,
          "time": 229.75,
          "velocity": 0.3937007874015748
        },
        {
          "duration": 0.5,
          "durationTicks": 384,
          "midi": 70,
          "name": "A#4",
          "ticks": 190464,
          "time": 248,
          "velocity": 0.3937007874015748
        },
        {
          "duration": 0.5,
          "durationTicks": 384,
          "midi": 72,
          "name": "C5",
          "ticks": 190848,
          "time": 248.5,
          "velocity": 0.3937007874015748
        },
        {
          "duration": 0.5,
          "durationTicks": 384,
          "midi": 74,
          "name": "D5",
          "ticks": 191232,
          "time": 249,
          "velocity": 0.3937007874015748
        },
        {
          "duration": 0.5,
          "durationTicks": 384,
          "midi": 77,
          "name": "F5",
          "ticks": 191616,
          "time": 249.5,
          "velocity": 0.3937007874015748
        },
        {
          "duration": 0.5,
          "durationTicks": 384,
          "midi": 79,
          "name": "G5",
          "ticks": 192000,
          "time": 250,
          "velocity": 0.3937007874015748
        },
        {
          "duration": 0.25,
          "durationTicks": 192,
          "midi": 81,
          "name": "A5",
          "ticks": 192384,
          "time": 250.5,
          "velocity": 0.3937007874015748
        },
        {
          "duration": 0.5,
          "durationTicks": 384,
          "midi": 79,
          "name": "G5",
          "ticks": 192576,
          "time": 250.75,
          "velocity": 0.3937007874015748
        },
        {
          "duration": 0.5,
          "durationTicks": 384,
          "midi": 77,
          "name": "F5",
          "ticks": 192960,
          "time": 251.25,
          "velocity": 0.3937007874015748
        },
        {
          "duration": 2,
          "durationTicks": 1536,
          "midi": 74,
          "name": "D5",
          "ticks": 193344,
          "time": 251.75,
          "velocity": 0.3937007874015748
        },
        {
          "duration": 2.25,
          "durationTicks": 1728,
          "midi": 72,
          "name": "C5",
          "ticks": 194880,
          "time": 253.75,
          "velocity": 0.3937007874015748
        },
        {
          "duration": 0.5,
          "durationTicks": 384,
          "midi": 70,
          "name": "A#4",
          "ticks": 196608,
          "time": 256,
          "velocity": 0.3937007874015748
        },
        {
          "duration": 0.5,
          "durationTicks": 384,
          "midi": 72,
          "name": "C5",
          "ticks": 196992,
          "time": 256.5,
          "velocity": 0.3937007874015748
        },
        {
          "duration": 0.5,
          "durationTicks": 384,
          "midi": 74,
          "name": "D5",
          "ticks": 197376,
          "time": 257,
          "velocity": 0.3937007874015748
        },
        {
          "duration": 0.5,
          "durationTicks": 384,
          "midi": 77,
          "name": "F5",
          "ticks": 197760,
          "time": 257.5,
          "velocity": 0.3937007874015748
        },
        {
          "duration": 0.5,
          "durationTicks": 384,
          "midi": 79,
          "name": "G5",
          "ticks": 198144,
          "time": 258,
          "velocity": 0.3937007874015748
        },
        {
          "duration": 0.25,
          "durationTicks": 192,
          "midi": 81,
          "name": "A5",
          "ticks": 198528,
          "time": 258.5,
          "velocity": 0.3937007874015748
        },
        {
          "duration": 0.5,
          "durationTicks": 384,
          "midi": 79,
          "name": "G5",
          "ticks": 198720,
          "time": 258.75,
          "velocity": 0.3937007874015748
        },
        {
          "duration": 0.5,
          "durationTicks": 384,
          "midi": 77,
          "name": "F5",
          "ticks": 199104,
          "time": 259.25,
          "velocity": 0.3937007874015748
        },
        {
          "duration": 2.25,
          "durationTicks": 1728,
          "midi": 74,
          "name": "D5",
          "ticks": 199488,
          "time": 259.75,
          "velocity": 0.3937007874015748
        },
        {
          "duration": 0.25,
          "durationTicks": 192,
          "midi": 70,
          "name": "A#4",
          "ticks": 202752,
          "time": 264,
          "velocity": 0.3937007874015748
        },
        {
          "duration": 0.25,
          "durationTicks": 192,
          "midi": 72,
          "name": "C5",
          "ticks": 203136,
          "time": 264.5,
          "velocity": 0.3937007874015748
        },
        {
          "duration": 0.25,
          "durationTicks": 192,
          "midi": 74,
          "name": "D5",
          "ticks": 203520,
          "time": 265,
          "velocity": 0.3937007874015748
        },
        {
          "duration": 0.5,
          "durationTicks": 384,
          "midi": 72,
          "name": "C5",
          "ticks": 203904,
          "time": 265.5,
          "velocity": 0.3937007874015748
        },
        {
          "duration": 0.5,
          "durationTicks": 384,
          "midi": 70,
          "name": "A#4",
          "ticks": 204288,
          "time": 266,
          "velocity": 0.3937007874015748
        },
        {
          "duration": 0.25,
          "durationTicks": 192,
          "midi": 72,
          "name": "C5",
          "ticks": 204672,
          "time": 266.5,
          "velocity": 0.3937007874015748
        },
        {
          "duration": 0.5,
          "durationTicks": 384,
          "midi": 70,
          "name": "A#4",
          "ticks": 204864,
          "time": 266.75,
          "velocity": 0.3937007874015748
        },
        {
          "duration": 0.25,
          "durationTicks": 192,
          "midi": 67,
          "name": "G4",
          "ticks": 205248,
          "time": 267.25,
          "velocity": 0.3937007874015748
        },
        {
          "duration": 0.25,
          "durationTicks": 192,
          "midi": 72,
          "name": "C5",
          "ticks": 205440,
          "time": 267.5,
          "velocity": 0.3937007874015748
        },
        {
          "duration": 2.25,
          "durationTicks": 1728,
          "midi": 70,
          "name": "A#4",
          "ticks": 205632,
          "time": 267.75,
          "velocity": 0.3937007874015748
        },
        {
          "duration": 0.5,
          "durationTicks": 384,
          "midi": 70,
          "name": "A#4",
          "ticks": 208896,
          "time": 272,
          "velocity": 0.3937007874015748
        },
        {
          "duration": 0.5,
          "durationTicks": 384,
          "midi": 72,
          "name": "C5",
          "ticks": 209280,
          "time": 272.5,
          "velocity": 0.3937007874015748
        },
        {
          "duration": 0.5,
          "durationTicks": 384,
          "midi": 74,
          "name": "D5",
          "ticks": 209664,
          "time": 273,
          "velocity": 0.3937007874015748
        },
        {
          "duration": 0.5,
          "durationTicks": 384,
          "midi": 77,
          "name": "F5",
          "ticks": 210048,
          "time": 273.5,
          "velocity": 0.3937007874015748
        },
        {
          "duration": 0.5,
          "durationTicks": 384,
          "midi": 79,
          "name": "G5",
          "ticks": 210432,
          "time": 274,
          "velocity": 0.3937007874015748
        },
        {
          "duration": 0.25,
          "durationTicks": 192,
          "midi": 81,
          "name": "A5",
          "ticks": 210816,
          "time": 274.5,
          "velocity": 0.3937007874015748
        },
        {
          "duration": 0.5,
          "durationTicks": 384,
          "midi": 79,
          "name": "G5",
          "ticks": 211008,
          "time": 274.75,
          "velocity": 0.3937007874015748
        },
        {
          "duration": 0.5,
          "durationTicks": 384,
          "midi": 77,
          "name": "F5",
          "ticks": 211392,
          "time": 275.25,
          "velocity": 0.3937007874015748
        },
        {
          "duration": 2,
          "durationTicks": 1536,
          "midi": 74,
          "name": "D5",
          "ticks": 211776,
          "time": 275.75,
          "velocity": 0.3937007874015748
        },
        {
          "duration": 2.25,
          "durationTicks": 1728,
          "midi": 72,
          "name": "C5",
          "ticks": 213312,
          "time": 277.75,
          "velocity": 0.3937007874015748
        },
        {
          "duration": 0.5,
          "durationTicks": 384,
          "midi": 70,
          "name": "A#4",
          "ticks": 215040,
          "time": 280,
          "velocity": 0.3937007874015748
        },
        {
          "duration": 0.5,
          "durationTicks": 384,
          "midi": 72,
          "name": "C5",
          "ticks": 215424,
          "time": 280.5,
          "velocity": 0.3937007874015748
        },
        {
          "duration": 0.5,
          "durationTicks": 384,
          "midi": 74,
          "name": "D5",
          "ticks": 215808,
          "time": 281,
          "velocity": 0.3937007874015748
        },
        {
          "duration": 0.5,
          "durationTicks": 384,
          "midi": 77,
          "name": "F5",
          "ticks": 216192,
          "time": 281.5,
          "velocity": 0.3937007874015748
        },
        {
          "duration": 0.5,
          "durationTicks": 384,
          "midi": 79,
          "name": "G5",
          "ticks": 216576,
          "time": 282,
          "velocity": 0.3937007874015748
        },
        {
          "duration": 0.25,
          "durationTicks": 192,
          "midi": 81,
          "name": "A5",
          "ticks": 216960,
          "time": 282.5,
          "velocity": 0.3937007874015748
        },
        {
          "duration": 0.5,
          "durationTicks": 384,
          "midi": 79,
          "name": "G5",
          "ticks": 217152,
          "time": 282.75,
          "velocity": 0.3937007874015748
        },
        {
          "duration": 0.5,
          "durationTicks": 384,
          "midi": 77,
          "name": "F5",
          "ticks": 217536,
          "time": 283.25,
          "velocity": 0.3937007874015748
        },
        {
          "duration": 2.25,
          "durationTicks": 1728,
          "midi": 74,
          "name": "D5",
          "ticks": 217920,
          "time": 283.75,
          "velocity": 0.3937007874015748
        },
        {
          "duration": 0.25,
          "durationTicks": 192,
          "midi": 70,
          "name": "A#4",
          "ticks": 221184,
          "time": 288,
          "velocity": 0.3937007874015748
        },
        {
          "duration": 0.25,
          "durationTicks": 192,
          "midi": 72,
          "name": "C5",
          "ticks": 221568,
          "time": 288.5,
          "velocity": 0.3937007874015748
        },
        {
          "duration": 0.25,
          "durationTicks": 192,
          "midi": 74,
          "name": "D5",
          "ticks": 221952,
          "time": 289,
          "velocity": 0.3937007874015748
        },
        {
          "duration": 0.5,
          "durationTicks": 384,
          "midi": 72,
          "name": "C5",
          "ticks": 222336,
          "time": 289.5,
          "velocity": 0.3937007874015748
        },
        {
          "duration": 0.5,
          "durationTicks": 384,
          "midi": 70,
          "name": "A#4",
          "ticks": 222720,
          "time": 290,
          "velocity": 0.3937007874015748
        },
        {
          "duration": 0.25,
          "durationTicks": 192,
          "midi": 72,
          "name": "C5",
          "ticks": 223104,
          "time": 290.5,
          "velocity": 0.3937007874015748
        },
        {
          "duration": 0.5,
          "durationTicks": 384,
          "midi": 70,
          "name": "A#4",
          "ticks": 223296,
          "time": 290.75,
          "velocity": 0.3937007874015748
        },
        {
          "duration": 0.25,
          "durationTicks": 192,
          "midi": 67,
          "name": "G4",
          "ticks": 223680,
          "time": 291.25,
          "velocity": 0.3937007874015748
        },
        {
          "duration": 0.25,
          "durationTicks": 192,
          "midi": 72,
          "name": "C5",
          "ticks": 223872,
          "time": 291.5,
          "velocity": 0.3937007874015748
        },
        {
          "duration": 2.25,
          "durationTicks": 1728,
          "midi": 70,
          "name": "A#4",
          "ticks": 224064,
          "time": 291.75,
          "velocity": 0.3937007874015748
        },
        {
          "duration": 0.5,
          "durationTicks": 384,
          "midi": 70,
          "name": "A#4",
          "ticks": 227328,
          "time": 296,
          "velocity": 0.3937007874015748
        },
        {
          "duration": 0.5,
          "durationTicks": 384,
          "midi": 72,
          "name": "C5",
          "ticks": 227712,
          "time": 296.5,
          "velocity": 0.3937007874015748
        },
        {
          "duration": 0.5,
          "durationTicks": 384,
          "midi": 74,
          "name": "D5",
          "ticks": 228096,
          "time": 297,
          "velocity": 0.3937007874015748
        },
        {
          "duration": 0.5,
          "durationTicks": 384,
          "midi": 77,
          "name": "F5",
          "ticks": 228480,
          "time": 297.5,
          "velocity": 0.3937007874015748
        },
        {
          "duration": 0.5,
          "durationTicks": 384,
          "midi": 79,
          "name": "G5",
          "ticks": 228864,
          "time": 298,
          "velocity": 0.3937007874015748
        },
        {
          "duration": 0.25,
          "durationTicks": 192,
          "midi": 81,
          "name": "A5",
          "ticks": 229248,
          "time": 298.5,
          "velocity": 0.3937007874015748
        },
        {
          "duration": 0.5,
          "durationTicks": 384,
          "midi": 79,
          "name": "G5",
          "ticks": 229440,
          "time": 298.75,
          "velocity": 0.3937007874015748
        },
        {
          "duration": 0.5,
          "durationTicks": 384,
          "midi": 77,
          "name": "F5",
          "ticks": 229824,
          "time": 299.25,
          "velocity": 0.3937007874015748
        },
        {
          "duration": 2,
          "durationTicks": 1536,
          "midi": 74,
          "name": "D5",
          "ticks": 230208,
          "time": 299.75,
          "velocity": 0.3937007874015748
        },
        {
          "duration": 2.25,
          "durationTicks": 1728,
          "midi": 72,
          "name": "C5",
          "ticks": 231744,
          "time": 301.75,
          "velocity": 0.3937007874015748
        },
        {
          "duration": 0.5,
          "durationTicks": 384,
          "midi": 70,
          "name": "A#4",
          "ticks": 233472,
          "time": 304,
          "velocity": 0.3937007874015748
        },
        {
          "duration": 0.5,
          "durationTicks": 384,
          "midi": 72,
          "name": "C5",
          "ticks": 233856,
          "time": 304.5,
          "velocity": 0.3937007874015748
        },
        {
          "duration": 0.5,
          "durationTicks": 384,
          "midi": 74,
          "name": "D5",
          "ticks": 234240,
          "time": 305,
          "velocity": 0.3937007874015748
        },
        {
          "duration": 0.5,
          "durationTicks": 384,
          "midi": 77,
          "name": "F5",
          "ticks": 234624,
          "time": 305.5,
          "velocity": 0.3937007874015748
        },
        {
          "duration": 0.5,
          "durationTicks": 384,
          "midi": 79,
          "name": "G5",
          "ticks": 235008,
          "time": 306,
          "velocity": 0.3937007874015748
        },
        {
          "duration": 0.25,
          "durationTicks": 192,
          "midi": 81,
          "name": "A5",
          "ticks": 235392,
          "time": 306.5,
          "velocity": 0.3937007874015748
        },
        {
          "duration": 0.5,
          "durationTicks": 384,
          "midi": 79,
          "name": "G5",
          "ticks": 235584,
          "time": 306.75,
          "velocity": 0.3937007874015748
        },
        {
          "duration": 0.5,
          "durationTicks": 384,
          "midi": 77,
          "name": "F5",
          "ticks": 235968,
          "time": 307.25,
          "velocity": 0.3937007874015748
        },
        {
          "duration": 2.25,
          "durationTicks": 1728,
          "midi": 74,
          "name": "D5",
          "ticks": 236352,
          "time": 307.75,
          "velocity": 0.3937007874015748
        },
        {
          "duration": 0.25,
          "durationTicks": 192,
          "midi": 70,
          "name": "A#4",
          "ticks": 239616,
          "time": 312,
          "velocity": 0.3937007874015748
        },
        {
          "duration": 0.25,
          "durationTicks": 192,
          "midi": 72,
          "name": "C5",
          "ticks": 240000,
          "time": 312.5,
          "velocity": 0.3937007874015748
        },
        {
          "duration": 0.25,
          "durationTicks": 192,
          "midi": 74,
          "name": "D5",
          "ticks": 240384,
          "time": 313,
          "velocity": 0.3937007874015748
        },
        {
          "duration": 0.5,
          "durationTicks": 384,
          "midi": 72,
          "name": "C5",
          "ticks": 240768,
          "time": 313.5,
          "velocity": 0.3937007874015748
        },
        {
          "duration": 0.5,
          "durationTicks": 384,
          "midi": 70,
          "name": "A#4",
          "ticks": 241152,
          "time": 314,
          "velocity": 0.3937007874015748
        },
        {
          "duration": 0.25,
          "durationTicks": 192,
          "midi": 72,
          "name": "C5",
          "ticks": 241536,
          "time": 314.5,
          "velocity": 0.3937007874015748
        },
        {
          "duration": 0.5,
          "durationTicks": 384,
          "midi": 70,
          "name": "A#4",
          "ticks": 241728,
          "time": 314.75,
          "velocity": 0.3937007874015748
        },
        {
          "duration": 0.25,
          "durationTicks": 192,
          "midi": 67,
          "name": "G4",
          "ticks": 242112,
          "time": 315.25,
          "velocity": 0.3937007874015748
        },
        {
          "duration": 0.25,
          "durationTicks": 192,
          "midi": 72,
          "name": "C5",
          "ticks": 242304,
          "time": 315.5,
          "velocity": 0.3937007874015748
        },
        {
          "duration": 2.25,
          "durationTicks": 1728,
          "midi": 70,
          "name": "A#4",
          "ticks": 242496,
          "time": 315.75,
          "velocity": 0.3937007874015748
        }
      ],
      "endOfTrackTicks": 244224
    },
    {
      "channel": 1,
      "controlChanges": {},
      "pitchBends": [],
      "instrument": {
        "family": "piano",
        "number": 3,
        "name": "honky-tonk piano"
      },
      "name": "Ragtime Piano",
      "notes": [
        {
          "duration": 0.25,
          "durationTicks": 192,
          "midi": 57,
          "name": "A3",
          "ticks": 29580,
          "time": 38.515625,
          "velocity": 0.3937007874015748
        },
        {
          "duration": 1.0013020833333357,
          "durationTicks": 769,
          "midi": 58,
          "name": "A#3",
          "ticks": 29763,
          "time": 38.75390625,
          "velocity": 0.3937007874015748
        },
        {
          "duration": 0.875,
          "durationTicks": 672,
          "midi": 57,
          "name": "A3",
          "ticks": 30524,
          "time": 39.744791666666664,
          "velocity": 0.3937007874015748
        },
        {
          "duration": 0.25,
          "durationTicks": 192,
          "midi": 57,
          "name": "A3",
          "ticks": 31472,
          "time": 40.979166666666664,
          "velocity": 0.3937007874015748
        },
        {
          "duration": 0.25,
          "durationTicks": 192,
          "midi": 58,
          "name": "A#3",
          "ticks": 31664,
          "time": 41.229166666666664,
          "velocity": 0.3937007874015748
        },
        {
          "duration": 0.25,
          "durationTicks": 192,
          "midi": 57,
          "name": "A3",
          "ticks": 31876,
          "time": 41.505208333333336,
          "velocity": 0.3937007874015748
        },
        {
          "duration": 0.25,
          "durationTicks": 192,
          "midi": 53,
          "name": "F3",
          "ticks": 32048,
          "time": 41.729166666666664,
          "velocity": 0.3937007874015748
        },
        {
          "duration": 0.25,
          "durationTicks": 192,
          "midi": 55,
          "name": "G3",
          "ticks": 32256,
          "time": 42,
          "velocity": 0.3937007874015748
        },
        {
          "duration": 0.125,
          "durationTicks": 96,
          "midi": 58,
          "name": "A#3",
          "ticks": 32436,
          "time": 42.234375,
          "velocity": 0.3937007874015748
        },
        {
          "duration": 1.25,
          "durationTicks": 960,
          "midi": 58,
          "name": "A#3",
          "ticks": 32824,
          "time": 42.739583333333336,
          "velocity": 0.3937007874015748
        },
        {
          "duration": 0.125,
          "durationTicks": 96,
          "midi": 58,
          "name": "A#3",
          "ticks": 33976,
          "time": 44.239583333333336,
          "velocity": 0.3937007874015748
        },
        {
          "duration": 0.375,
          "durationTicks": 288,
          "midi": 58,
          "name": "A#3",
          "ticks": 34375,
          "time": 44.759114583333336,
          "velocity": 0.3937007874015748
        },
        {
          "duration": 0.125,
          "durationTicks": 96,
          "midi": 58,
          "name": "A#3",
          "ticks": 34744,
          "time": 45.239583333333336,
          "velocity": 0.3937007874015748
        },
        {
          "duration": 0.25,
          "durationTicks": 192,
          "midi": 60,
          "name": "C4",
          "ticks": 34944,
          "time": 45.5,
          "velocity": 0.3937007874015748
        },
        {
          "duration": 1.75,
          "durationTicks": 1344,
          "midi": 62,
          "name": "D4",
          "ticks": 35128,
          "time": 45.739583333333336,
          "velocity": 0.3937007874015748
        },
        {
          "duration": 0.125,
          "durationTicks": 96,
          "midi": 62,
          "name": "D4",
          "ticks": 36664,
          "time": 47.739583333333336,
          "velocity": 0.3937007874015748
        },
        {
          "duration": 0.25,
          "durationTicks": 192,
          "midi": 63,
          "name": "D#4",
          "ticks": 36847,
          "time": 47.977864583333336,
          "velocity": 0.3937007874015748
        },
        {
          "duration": 0.375,
          "durationTicks": 288,
          "midi": 62,
          "name": "D4",
          "ticks": 37048,
          "time": 48.239583333333336,
          "velocity": 0.3937007874015748
        },
        {
          "duration": 0.25,
          "durationTicks": 192,
          "midi": 60,
          "name": "C4",
          "ticks": 37423,
          "time": 48.727864583333336,
          "velocity": 0.3937007874015748
        },
        {
          "duration": 0.375,
          "durationTicks": 288,
          "midi": 60,
          "name": "C4",
          "ticks": 37775,
          "time": 49.186197916666664,
          "velocity": 0.3937007874015748
        },
        {
          "duration": 0.25,
          "durationTicks": 192,
          "midi": 58,
          "name": "A#3",
          "ticks": 37979,
          "time": 49.451822916666664,
          "velocity": 0.3937007874015748
        },
        {
          "duration": 0.25,
          "durationTicks": 192,
          "midi": 57,
          "name": "A3",
          "ticks": 38186,
          "time": 49.721354166666664,
          "velocity": 0.3937007874015748
        },
        {
          "duration": 2,
          "durationTicks": 1536,
          "midi": 55,
          "name": "G3",
          "ticks": 38374,
          "time": 49.966145833333336,
          "velocity": 0.3937007874015748
        },
        {
          "duration": 0.25,
          "durationTicks": 192,
          "midi": 55,
          "name": "G3",
          "ticks": 51082,
          "time": 66.51302083333333,
          "velocity": 0.3937007874015748
        },
        {
          "duration": 0.25,
          "durationTicks": 192,
          "midi": 58,
          "name": "A#3",
          "ticks": 51461,
          "time": 67.00651041666667,
          "velocity": 0.3937007874015748
        },
        {
          "duration": 0.375,
          "durationTicks": 288,
          "midi": 55,
          "name": "G3",
          "ticks": 52033,
          "time": 67.75130208333333,
          "velocity": 0.3937007874015748
        },
        {
          "duration": 0.125,
          "durationTicks": 96,
          "midi": 58,
          "name": "A#3",
          "ticks": 52417,
          "time": 68.25130208333333,
          "velocity": 0.3937007874015748
        },
        {
          "duration": 0.125,
          "durationTicks": 96,
          "midi": 55,
          "name": "G3",
          "ticks": 52797,
          "time": 68.74609375,
          "velocity": 0.3937007874015748
        },
        {
          "duration": 0.125,
          "durationTicks": 96,
          "midi": 58,
          "name": "A#3",
          "ticks": 52985,
          "time": 68.99088541666667,
          "velocity": 0.3937007874015748
        },
        {
          "duration": 0.125,
          "durationTicks": 96,
          "midi": 55,
          "name": "G3",
          "ticks": 53177,
          "time": 69.24088541666667,
          "velocity": 0.3937007874015748
        },
        {
          "duration": 0.25,
          "durationTicks": 192,
          "midi": 58,
          "name": "A#3",
          "ticks": 53377,
          "time": 69.50130208333333,
          "velocity": 0.3937007874015748
        },
        {
          "duration": 0.25,
          "durationTicks": 192,
          "midi": 55,
          "name": "G3",
          "ticks": 53541,
          "time": 69.71484375,
          "velocity": 0.3937007874015748
        },
        {
          "duration": 1.625,
          "durationTicks": 1248,
          "midi": 65,
          "name": "F4",
          "ticks": 53765,
          "time": 70.00651041666667,
          "velocity": 0.3937007874015748
        },
        {
          "duration": 0.5,
          "durationTicks": 384,
          "midi": 62,
          "name": "D4",
          "ticks": 55090,
          "time": 71.73177083333333,
          "velocity": 0.3937007874015748
        },
        {
          "duration": 0.5,
          "durationTicks": 384,
          "midi": 60,
          "name": "C4",
          "ticks": 55517,
          "time": 72.28776041666667,
          "velocity": 0.3937007874015748
        },
        {
          "duration": 0.375,
          "durationTicks": 288,
          "midi": 60,
          "name": "C4",
          "ticks": 56037,
          "time": 72.96484375,
          "velocity": 0.3937007874015748
        },
        {
          "duration": 0.25,
          "durationTicks": 192,
          "midi": 58,
          "name": "A#3",
          "ticks": 56241,
          "time": 73.23046875,
          "velocity": 0.3937007874015748
        },
        {
          "duration": 0.25,
          "durationTicks": 192,
          "midi": 57,
          "name": "A3",
          "ticks": 56441,
          "time": 73.49088541666667,
          "velocity": 0.3937007874015748
        },
        {
          "duration": 0.25,
          "durationTicks": 192,
          "midi": 53,
          "name": "F3",
          "ticks": 56613,
          "time": 73.71484375,
          "velocity": 0.3937007874015748
        },
        {
          "duration": 0.5,
          "durationTicks": 384,
          "midi": 55,
          "name": "G3",
          "ticks": 56825,
          "time": 73.99088541666667,
          "velocity": 0.3937007874015748
        },
        {
          "duration": 0.5,
          "durationTicks": 384,
          "midi": 58,
          "name": "A#3",
          "ticks": 57597,
          "time": 74.99609375,
          "velocity": 0.3937007874015748
        },
        {
          "duration": 0.125,
          "durationTicks": 96,
          "midi": 55,
          "name": "G3",
          "ticks": 57989,
          "time": 75.50651041666667,
          "velocity": 0.3937007874015748
        },
        {
          "duration": 0.125,
          "durationTicks": 96,
          "midi": 55,
          "name": "G3",
          "ticks": 58173,
          "time": 75.74609375,
          "velocity": 0.3937007874015748
        },
        {
          "duration": 0.25,
          "durationTicks": 192,
          "midi": 58,
          "name": "A#3",
          "ticks": 58549,
          "time": 76.23567708333333,
          "velocity": 0.3937007874015748
        },
        {
          "duration": 0.25,
          "durationTicks": 192,
          "midi": 58,
          "name": "A#3",
          "ticks": 59145,
          "time": 77.01171875,
          "velocity": 0.3937007874015748
        },
        {
          "duration": 0.25,
          "durationTicks": 192,
          "midi": 55,
          "name": "G3",
          "ticks": 59509,
          "time": 77.48567708333333,
          "velocity": 0.3937007874015748
        },
        {
          "duration": 0.125,
          "durationTicks": 96,
          "midi": 58,
          "name": "A#3",
          "ticks": 59677,
          "time": 77.70442708333333,
          "velocity": 0.3937007874015748
        },
        {
          "duration": 0.25,
          "durationTicks": 192,
          "midi": 58,
          "name": "A#3",
          "ticks": 59677,
          "time": 77.70442708333333,
          "velocity": 0.3937007874015748
        },
        {
          "duration": 0.25,
          "durationTicks": 192,
          "midi": 60,
          "name": "C4",
          "ticks": 59692,
          "time": 77.72395833333333,
          "velocity": 0.3937007874015748
        },
        {
          "duration": 1.25,
          "durationTicks": 960,
          "midi": 62,
          "name": "D4",
          "ticks": 59884,
          "time": 77.97395833333333,
          "velocity": 0.3937007874015748
        },
        {
          "duration": 0.25,
          "durationTicks": 192,
          "midi": 63,
          "name": "D#4",
          "ticks": 61624,
          "time": 80.23958333333333,
          "velocity": 0.3937007874015748
        },
        {
          "duration": 0.25,
          "durationTicks": 192,
          "midi": 62,
          "name": "D4",
          "ticks": 61788,
          "time": 80.453125,
          "velocity": 0.3937007874015748
        },
        {
          "duration": 0.25,
          "durationTicks": 192,
          "midi": 60,
          "name": "C4",
          "ticks": 61980,
          "time": 80.703125,
          "velocity": 0.3937007874015748
        },
        {
          "duration": 0.375,
          "durationTicks": 288,
          "midi": 60,
          "name": "C4",
          "ticks": 62379,
          "time": 81.22265625,
          "velocity": 0.3937007874015748
        },
        {
          "duration": 0.25,
          "durationTicks": 192,
          "midi": 58,
          "name": "A#3",
          "ticks": 62576,
          "time": 81.47916666666667,
          "velocity": 0.3937007874015748
        },
        {
          "duration": 0.25,
          "durationTicks": 192,
          "midi": 57,
          "name": "A3",
          "ticks": 62768,
          "time": 81.72916666666667,
          "velocity": 0.3937007874015748
        },
        {
          "duration": 1.875,
          "durationTicks": 1440,
          "midi": 55,
          "name": "G3",
          "ticks": 62948,
          "time": 81.96354166666667,
          "velocity": 0.3937007874015748
        },
        {
          "duration": 0.125,
          "durationTicks": 96,
          "midi": 58,
          "name": "A#3",
          "ticks": 112348,
          "time": 146.28645833333334,
          "velocity": 0.3937007874015748
        },
        {
          "duration": 1.25,
          "durationTicks": 960,
          "midi": 58,
          "name": "A#3",
          "ticks": 112728,
          "time": 146.78125,
          "velocity": 0.3937007874015748
        },
        {
          "duration": 0.125,
          "durationTicks": 96,
          "midi": 58,
          "name": "A#3",
          "ticks": 113848,
          "time": 148.23958333333334,
          "velocity": 0.3937007874015748
        },
        {
          "duration": 1.25,
          "durationTicks": 960,
          "midi": 58,
          "name": "A#3",
          "ticks": 114228,
          "time": 148.734375,
          "velocity": 0.3937007874015748
        },
        {
          "duration": 0.125,
          "durationTicks": 96,
          "midi": 58,
          "name": "A#3",
          "ticks": 115412,
          "time": 150.27604166666666,
          "velocity": 0.3937007874015748
        },
        {
          "duration": 0.875,
          "durationTicks": 672,
          "midi": 58,
          "name": "A#3",
          "ticks": 115776,
          "time": 150.75,
          "velocity": 0.3937007874015748
        },
        {
          "duration": 0.875,
          "durationTicks": 672,
          "midi": 57,
          "name": "A3",
          "ticks": 116544,
          "time": 151.75,
          "velocity": 0.3937007874015748
        },
        {
          "duration": 0.25,
          "durationTicks": 192,
          "midi": 57,
          "name": "A3",
          "ticks": 117476,
          "time": 152.96354166666666,
          "velocity": 0.3937007874015748
        },
        {
          "duration": 0.25,
          "durationTicks": 192,
          "midi": 58,
          "name": "A#3",
          "ticks": 117672,
          "time": 153.21875,
          "velocity": 0.3937007874015748
        },
        {
          "duration": 0.25,
          "durationTicks": 192,
          "midi": 57,
          "name": "A3",
          "ticks": 117876,
          "time": 153.484375,
          "velocity": 0.3937007874015748
        },
        {
          "duration": 0.25,
          "durationTicks": 192,
          "midi": 53,
          "name": "F3",
          "ticks": 118056,
          "time": 153.71875,
          "velocity": 0.3937007874015748
        },
        {
          "duration": 0.5,
          "durationTicks": 384,
          "midi": 55,
          "name": "G3",
          "ticks": 118260,
          "time": 153.984375,
          "velocity": 0.3937007874015748
        },
        {
          "duration": 0.25,
          "durationTicks": 192,
          "midi": 58,
          "name": "A#3",
          "ticks": 118624,
          "time": 154.45833333333334,
          "velocity": 0.3937007874015748
        },
        {
          "duration": 1,
          "durationTicks": 768,
          "midi": 58,
          "name": "A#3",
          "ticks": 119052,
          "time": 155.015625,
          "velocity": 0.3937007874015748
        },
        {
          "duration": 0.125,
          "durationTicks": 96,
          "midi": 58,
          "name": "A#3",
          "ticks": 120016,
          "time": 156.27083333333334,
          "velocity": 0.3937007874015748
        },
        {
          "duration": 0.25,
          "durationTicks": 192,
          "midi": 58,
          "name": "A#3",
          "ticks": 120384,
          "time": 156.75,
          "velocity": 0.3937007874015748
        },
        {
          "duration": 0.25,
          "durationTicks": 192,
          "midi": 58,
          "name": "A#3",
          "ticks": 120753,
          "time": 157.23046875,
          "velocity": 0.3937007874015748
        },
        {
          "duration": 0.25,
          "durationTicks": 192,
          "midi": 60,
          "name": "C4",
          "ticks": 120949,
          "time": 157.48567708333334,
          "velocity": 0.3937007874015748
        },
        {
          "duration": 2,
          "durationTicks": 1536,
          "midi": 62,
          "name": "D4",
          "ticks": 121132,
          "time": 157.72395833333334,
          "velocity": 0.3937007874015748
        },
        {
          "duration": 0.5,
          "durationTicks": 384,
          "midi": 58,
          "name": "A#3",
          "ticks": 123085,
          "time": 160.26692708333334,
          "velocity": 0.3937007874015748
        },
        {
          "duration": 0.25,
          "durationTicks": 192,
          "midi": 58,
          "name": "A#3",
          "ticks": 123633,
          "time": 160.98046875,
          "velocity": 0.3937007874015748
        },
        {
          "duration": 0.25,
          "durationTicks": 192,
          "midi": 60,
          "name": "C4",
          "ticks": 123820,
          "time": 161.22395833333334,
          "velocity": 0.3937007874015748
        },
        {
          "duration": 0.25,
          "durationTicks": 192,
          "midi": 58,
          "name": "A#3",
          "ticks": 124017,
          "time": 161.48046875,
          "velocity": 0.3937007874015748
        },
        {
          "duration": 0.25,
          "durationTicks": 192,
          "midi": 57,
          "name": "A3",
          "ticks": 124209,
          "time": 161.73046875,
          "velocity": 0.3937007874015748
        },
        {
          "duration": 0.5,
          "durationTicks": 384,
          "midi": 55,
          "name": "G3",
          "ticks": 124409,
          "time": 161.99088541666666,
          "velocity": 0.3937007874015748
        },
        {
          "duration": 0.125,
          "durationTicks": 96,
          "midi": 58,
          "name": "A#3",
          "ticks": 124641,
          "time": 162.29296875,
          "velocity": 0.3937007874015748
        },
        {
          "duration": 0.125,
          "durationTicks": 96,
          "midi": 58,
          "name": "A#3",
          "ticks": 124789,
          "time": 162.48567708333334,
          "velocity": 0.3937007874015748
        },
        {
          "duration": 1,
          "durationTicks": 768,
          "midi": 58,
          "name": "A#3",
          "ticks": 125181,
          "time": 162.99609375,
          "velocity": 0.3937007874015748
        },
        {
          "duration": 1,
          "durationTicks": 768,
          "midi": 58,
          "name": "A#3",
          "ticks": 125181,
          "time": 162.99609375,
          "velocity": 0.3937007874015748
        },
        {
          "duration": 0.125,
          "durationTicks": 96,
          "midi": 58,
          "name": "A#3",
          "ticks": 126145,
          "time": 164.25130208333334,
          "velocity": 0.3937007874015748
        },
        {
          "duration": 0.125,
          "durationTicks": 96,
          "midi": 58,
          "name": "A#3",
          "ticks": 126145,
          "time": 164.25130208333334,
          "velocity": 0.3937007874015748
        },
        {
          "duration": 0.875,
          "durationTicks": 672,
          "midi": 58,
          "name": "A#3",
          "ticks": 126514,
          "time": 164.73177083333334,
          "velocity": 0.3937007874015748
        },
        {
          "duration": 1.375,
          "durationTicks": 1056,
          "midi": 58,
          "name": "A#3",
          "ticks": 126514,
          "time": 164.73177083333334,
          "velocity": 0.3937007874015748
        },
        {
          "duration": 0.25,
          "durationTicks": 192,
          "midi": 57,
          "name": "A3",
          "ticks": 127882,
          "time": 166.51302083333334,
          "velocity": 0.3937007874015748
        },
        {
          "duration": 1.0013020833333144,
          "durationTicks": 769,
          "midi": 58,
          "name": "A#3",
          "ticks": 128065,
          "time": 166.75130208333334,
          "velocity": 0.3937007874015748
        },
        {
          "duration": 0.875,
          "durationTicks": 672,
          "midi": 57,
          "name": "A3",
          "ticks": 128826,
          "time": 167.7421875,
          "velocity": 0.3937007874015748
        },
        {
          "duration": 0.25,
          "durationTicks": 192,
          "midi": 57,
          "name": "A3",
          "ticks": 129774,
          "time": 168.9765625,
          "velocity": 0.3937007874015748
        },
        {
          "duration": 0.25,
          "durationTicks": 192,
          "midi": 58,
          "name": "A#3",
          "ticks": 129966,
          "time": 169.2265625,
          "velocity": 0.3937007874015748
        },
        {
          "duration": 0.25,
          "durationTicks": 192,
          "midi": 57,
          "name": "A3",
          "ticks": 130178,
          "time": 169.50260416666666,
          "velocity": 0.3937007874015748
        },
        {
          "duration": 0.25,
          "durationTicks": 192,
          "midi": 53,
          "name": "F3",
          "ticks": 130350,
          "time": 169.7265625,
          "velocity": 0.3937007874015748
        },
        {
          "duration": 0.25,
          "durationTicks": 192,
          "midi": 55,
          "name": "G3",
          "ticks": 130558,
          "time": 169.99739583333334,
          "velocity": 0.3937007874015748
        },
        {
          "duration": 0.125,
          "durationTicks": 96,
          "midi": 58,
          "name": "A#3",
          "ticks": 130738,
          "time": 170.23177083333334,
          "velocity": 0.3937007874015748
        },
        {
          "duration": 1.25,
          "durationTicks": 960,
          "midi": 58,
          "name": "A#3",
          "ticks": 131126,
          "time": 170.73697916666666,
          "velocity": 0.3937007874015748
        },
        {
          "duration": 0.125,
          "durationTicks": 96,
          "midi": 58,
          "name": "A#3",
          "ticks": 132278,
          "time": 172.23697916666666,
          "velocity": 0.3937007874015748
        },
        {
          "duration": 0.375,
          "durationTicks": 288,
          "midi": 58,
          "name": "A#3",
          "ticks": 132677,
          "time": 172.75651041666666,
          "velocity": 0.3937007874015748
        },
        {
          "duration": 0.125,
          "durationTicks": 96,
          "midi": 58,
          "name": "A#3",
          "ticks": 133046,
          "time": 173.23697916666666,
          "velocity": 0.3937007874015748
        },
        {
          "duration": 0.25,
          "durationTicks": 192,
          "midi": 60,
          "name": "C4",
          "ticks": 133246,
          "time": 173.49739583333334,
          "velocity": 0.3937007874015748
        },
        {
          "duration": 1.75,
          "durationTicks": 1344,
          "midi": 62,
          "name": "D4",
          "ticks": 133430,
          "time": 173.73697916666666,
          "velocity": 0.3937007874015748
        },
        {
          "duration": 0.125,
          "durationTicks": 96,
          "midi": 62,
          "name": "D4",
          "ticks": 134966,
          "time": 175.73697916666666,
          "velocity": 0.3937007874015748
        },
        {
          "duration": 0.25,
          "durationTicks": 192,
          "midi": 63,
          "name": "D#4",
          "ticks": 135149,
          "time": 175.97526041666666,
          "velocity": 0.3937007874015748
        },
        {
          "duration": 0.375,
          "durationTicks": 288,
          "midi": 62,
          "name": "D4",
          "ticks": 135350,
          "time": 176.23697916666666,
          "velocity": 0.3937007874015748
        },
        {
          "duration": 0.25,
          "durationTicks": 192,
          "midi": 60,
          "name": "C4",
          "ticks": 135725,
          "time": 176.72526041666666,
          "velocity": 0.3937007874015748
        },
        {
          "duration": 0.375,
          "durationTicks": 288,
          "midi": 60,
          "name": "C4",
          "ticks": 136077,
          "time": 177.18359375,
          "velocity": 0.3937007874015748
        },
        {
          "duration": 0.25,
          "durationTicks": 192,
          "midi": 58,
          "name": "A#3",
          "ticks": 136281,
          "time": 177.44921875,
          "velocity": 0.3937007874015748
        },
        {
          "duration": 0.25,
          "durationTicks": 192,
          "midi": 57,
          "name": "A3",
          "ticks": 136488,
          "time": 177.71875,
          "velocity": 0.3937007874015748
        },
        {
          "duration": 2,
          "durationTicks": 1536,
          "midi": 55,
          "name": "G3",
          "ticks": 136676,
          "time": 177.96354166666666,
          "velocity": 0.3937007874015748
        }
      ],
      "endOfTrackTicks": 138212
    },
    {
      "channel": 2,
      "controlChanges": {},
      "pitchBends": [],
      "instrument": {
        "family": "chromatic percussion",
        "number": 10,
        "name": "music box"
      },
      "name": "Music Box",
      "notes": [
        {
          "duration": 0.125,
          "durationTicks": 96,
          "midi": 62,
          "name": "D4",
          "ticks": 39160,
          "time": 50.989583333333336,
          "velocity": 0.3937007874015748
        },
        {
          "duration": 0.5,
          "durationTicks": 384,
          "midi": 62,
          "name": "D4",
          "ticks": 39348,
          "time": 51.234375,
          "velocity": 0.3937007874015748
        },
        {
          "duration": 0.125,
          "durationTicks": 96,
          "midi": 58,
          "name": "A#3",
          "ticks": 39740,
          "time": 51.744791666666664,
          "velocity": 0.3937007874015748
        },
        {
          "duration": 0.125,
          "durationTicks": 96,
          "midi": 62,
          "name": "D4",
          "ticks": 40692,
          "time": 52.984375,
          "velocity": 0.3937007874015748
        },
        {
          "duration": 0.25,
          "durationTicks": 192,
          "midi": 62,
          "name": "D4",
          "ticks": 40879,
          "time": 53.227864583333336,
          "velocity": 0.3937007874015748
        },
        {
          "duration": 0.25,
          "durationTicks": 192,
          "midi": 62,
          "name": "D4",
          "ticks": 41255,
          "time": 53.717447916666664,
          "velocity": 0.3937007874015748
        },
        {
          "duration": 1,
          "durationTicks": 768,
          "midi": 65,
          "name": "F4",
          "ticks": 41439,
          "time": 53.95703125,
          "velocity": 0.3937007874015748
        },
        {
          "duration": 0.625,
          "durationTicks": 480,
          "midi": 62,
          "name": "D4",
          "ticks": 42211,
          "time": 54.962239583333336,
          "velocity": 0.3937007874015748
        },
        {
          "duration": 0.125,
          "durationTicks": 96,
          "midi": 62,
          "name": "D4",
          "ticks": 44911,
          "time": 58.477864583333336,
          "velocity": 0.3937007874015748
        },
        {
          "duration": 0.125,
          "durationTicks": 96,
          "midi": 62,
          "name": "D4",
          "ticks": 45103,
          "time": 58.727864583333336,
          "velocity": 0.3937007874015748
        },
        {
          "duration": 0.125,
          "durationTicks": 96,
          "midi": 62,
          "name": "D4",
          "ticks": 45307,
          "time": 58.993489583333336,
          "velocity": 0.3937007874015748
        },
        {
          "duration": 0.375,
          "durationTicks": 288,
          "midi": 62,
          "name": "D4",
          "ticks": 45675,
          "time": 59.47265625,
          "velocity": 0.3937007874015748
        },
        {
          "duration": 0.125,
          "durationTicks": 96,
          "midi": 58,
          "name": "A#3",
          "ticks": 46044,
          "time": 59.953125,
          "velocity": 0.3937007874015748
        },
        {
          "duration": 0.25,
          "durationTicks": 192,
          "midi": 60,
          "name": "C4",
          "ticks": 47800,
          "time": 62.239583333333336,
          "velocity": 0.3937007874015748
        },
        {
          "duration": 0.125,
          "durationTicks": 96,
          "midi": 62,
          "name": "D4",
          "ticks": 47980,
          "time": 62.473958333333336,
          "velocity": 0.3937007874015748
        },
        {
          "duration": 0.125,
          "durationTicks": 96,
          "midi": 62,
          "name": "D4",
          "ticks": 48172,
          "time": 62.723958333333336,
          "velocity": 0.3937007874015748
        },
        {
          "duration": 0.125,
          "durationTicks": 96,
          "midi": 62,
          "name": "D4",
          "ticks": 48368,
          "time": 62.979166666666664,
          "velocity": 0.3937007874015748
        },
        {
          "duration": 0.5,
          "durationTicks": 384,
          "midi": 62,
          "name": "D4",
          "ticks": 48737,
          "time": 63.459635416666664,
          "velocity": 0.3937007874015748
        },
        {
          "duration": 0.1250000000000071,
          "durationTicks": 96,
          "midi": 57,
          "name": "A3",
          "ticks": 49112,
          "time": 63.947916666666664,
          "velocity": 0.3937007874015748
        },
        {
          "duration": 0.125,
          "durationTicks": 96,
          "midi": 62,
          "name": "D4",
          "ticks": 51456,
          "time": 67,
          "velocity": 0.3937007874015748
        },
        {
          "duration": 0.125,
          "durationTicks": 96,
          "midi": 62,
          "name": "D4",
          "ticks": 51640,
          "time": 67.23958333333333,
          "velocity": 0.3937007874015748
        },
        {
          "duration": 1.125,
          "durationTicks": 864,
          "midi": 65,
          "name": "F4",
          "ticks": 52032,
          "time": 67.75,
          "velocity": 0.3937007874015748
        },
        {
          "duration": 0.625,
          "durationTicks": 480,
          "midi": 62,
          "name": "D4",
          "ticks": 53004,
          "time": 69.015625,
          "velocity": 0.3937007874015748
        },
        {
          "duration": 0.125,
          "durationTicks": 96,
          "midi": 60,
          "name": "C4",
          "ticks": 53536,
          "time": 69.70833333333333,
          "velocity": 0.3937007874015748
        },
        {
          "duration": 0.125,
          "durationTicks": 96,
          "midi": 60,
          "name": "C4",
          "ticks": 55500,
          "time": 72.265625,
          "velocity": 0.3937007874015748
        },
        {
          "duration": 0.125,
          "durationTicks": 96,
          "midi": 62,
          "name": "D4",
          "ticks": 55676,
          "time": 72.49479166666667,
          "velocity": 0.3937007874015748
        },
        {
          "duration": 0.125,
          "durationTicks": 96,
          "midi": 62,
          "name": "D4",
          "ticks": 55864,
          "time": 72.73958333333333,
          "velocity": 0.3937007874015748
        },
        {
          "duration": 0.125,
          "durationTicks": 96,
          "midi": 62,
          "name": "D4",
          "ticks": 56052,
          "time": 72.984375,
          "velocity": 0.3937007874015748
        },
        {
          "duration": 0.375,
          "durationTicks": 288,
          "midi": 62,
          "name": "D4",
          "ticks": 56424,
          "time": 73.46875,
          "velocity": 0.3937007874015748
        },
        {
          "duration": 0.125,
          "durationTicks": 96,
          "midi": 62,
          "name": "D4",
          "ticks": 56832,
          "time": 74,
          "velocity": 0.3937007874015748
        },
        {
          "duration": 0.125,
          "durationTicks": 96,
          "midi": 60,
          "name": "C4",
          "ticks": 58560,
          "time": 76.25,
          "velocity": 0.3937007874015748
        },
        {
          "duration": 0.125,
          "durationTicks": 96,
          "midi": 62,
          "name": "D4",
          "ticks": 58736,
          "time": 76.47916666666667,
          "velocity": 0.3937007874015748
        },
        {
          "duration": 0.125,
          "durationTicks": 96,
          "midi": 62,
          "name": "D4",
          "ticks": 58924,
          "time": 76.72395833333333,
          "velocity": 0.3937007874015748
        },
        {
          "duration": 0.125,
          "durationTicks": 96,
          "midi": 62,
          "name": "D4",
          "ticks": 59112,
          "time": 76.96875,
          "velocity": 0.3937007874015748
        },
        {
          "duration": 0.125,
          "durationTicks": 96,
          "midi": 62,
          "name": "D4",
          "ticks": 59328,
          "time": 77.25,
          "velocity": 0.3937007874015748
        },
        {
          "duration": 0.375,
          "durationTicks": 288,
          "midi": 62,
          "name": "D4",
          "ticks": 59484,
          "time": 77.453125,
          "velocity": 0.3937007874015748
        },
        {
          "duration": 0.125,
          "durationTicks": 96,
          "midi": 62,
          "name": "D4",
          "ticks": 59892,
          "time": 77.984375,
          "velocity": 0.3937007874015748
        },
        {
          "duration": 0.375,
          "durationTicks": 288,
          "midi": 62,
          "name": "D4",
          "ticks": 60096,
          "time": 78.25,
          "velocity": 0.3937007874015748
        },
        {
          "duration": 0.125,
          "durationTicks": 96,
          "midi": 62,
          "name": "D4",
          "ticks": 60480,
          "time": 78.75,
          "velocity": 0.3937007874015748
        },
        {
          "duration": 0.375,
          "durationTicks": 288,
          "midi": 62,
          "name": "D4",
          "ticks": 63744,
          "time": 83,
          "velocity": 0.3937007874015748
        },
        {
          "duration": 0.25,
          "durationTicks": 192,
          "midi": 62,
          "name": "D4",
          "ticks": 64124,
          "time": 83.49479166666667,
          "velocity": 0.3937007874015748
        },
        {
          "duration": 0.25,
          "durationTicks": 192,
          "midi": 58,
          "name": "A#3",
          "ticks": 65072,
          "time": 84.72916666666667,
          "velocity": 0.3937007874015748
        },
        {
          "duration": 0.125,
          "durationTicks": 96,
          "midi": 62,
          "name": "D4",
          "ticks": 65276,
          "time": 84.99479166666667,
          "velocity": 0.3937007874015748
        },
        {
          "duration": 0.125,
          "durationTicks": 96,
          "midi": 62,
          "name": "D4",
          "ticks": 65472,
          "time": 85.25,
          "velocity": 0.3937007874015748
        },
        {
          "duration": 0.125,
          "durationTicks": 96,
          "midi": 62,
          "name": "D4",
          "ticks": 65652,
          "time": 85.484375,
          "velocity": 0.3937007874015748
        },
        {
          "duration": 0.125,
          "durationTicks": 96,
          "midi": 62,
          "name": "D4",
          "ticks": 65835,
          "time": 85.72265625,
          "velocity": 0.3937007874015748
        },
        {
          "duration": 1,
          "durationTicks": 768,
          "midi": 65,
          "name": "F4",
          "ticks": 66023,
          "time": 85.96744791666667,
          "velocity": 0.3937007874015748
        },
        {
          "duration": 0.75,
          "durationTicks": 576,
          "midi": 62,
          "name": "D4",
          "ticks": 66779,
          "time": 86.95182291666667,
          "velocity": 0.3937007874015748
        },
        {
          "duration": 0.125,
          "durationTicks": 96,
          "midi": 60,
          "name": "C4",
          "ticks": 67387,
          "time": 87.74348958333333,
          "velocity": 0.3937007874015748
        },
        {
          "duration": 0.25,
          "durationTicks": 192,
          "midi": 58,
          "name": "A#3",
          "ticks": 69711,
          "time": 90.76953125,
          "velocity": 0.3937007874015748
        },
        {
          "duration": 0.125,
          "durationTicks": 96,
          "midi": 62,
          "name": "D4",
          "ticks": 69855,
          "time": 90.95703125,
          "velocity": 0.3937007874015748
        },
        {
          "duration": 0.125,
          "durationTicks": 96,
          "midi": 62,
          "name": "D4",
          "ticks": 70071,
          "time": 91.23828125,
          "velocity": 0.3937007874015748
        },
        {
          "duration": 0.125,
          "durationTicks": 96,
          "midi": 62,
          "name": "D4",
          "ticks": 70263,
          "time": 91.48828125,
          "velocity": 0.3937007874015748
        },
        {
          "duration": 0.125,
          "durationTicks": 96,
          "midi": 62,
          "name": "D4",
          "ticks": 70435,
          "time": 91.71223958333333,
          "velocity": 0.3937007874015748
        },
        {
          "duration": 1,
          "durationTicks": 768,
          "midi": 65,
          "name": "F4",
          "ticks": 70639,
          "time": 91.97786458333333,
          "velocity": 0.3937007874015748
        },
        {
          "duration": 0.75,
          "durationTicks": 576,
          "midi": 62,
          "name": "D4",
          "ticks": 71403,
          "time": 92.97265625,
          "velocity": 0.3937007874015748
        },
        {
          "duration": 0.125,
          "durationTicks": 96,
          "midi": 60,
          "name": "C4",
          "ticks": 71995,
          "time": 93.74348958333333,
          "velocity": 0.3937007874015748
        },
        {
          "duration": 0.75,
          "durationTicks": 576,
          "midi": 62,
          "name": "D4",
          "ticks": 72959,
          "time": 94.99869791666667,
          "velocity": 0.3937007874015748
        },
        {
          "duration": 0.125,
          "durationTicks": 96,
          "midi": 60,
          "name": "C4",
          "ticks": 73539,
          "time": 95.75390625,
          "velocity": 0.3937007874015748
        },
        {
          "duration": 0.25,
          "durationTicks": 192,
          "midi": 62,
          "name": "D4",
          "ticks": 76051,
          "time": 99.02473958333333,
          "velocity": 0.3937007874015748
        },
        {
          "duration": 0.625,
          "durationTicks": 480,
          "midi": 62,
          "name": "D4",
          "ticks": 76391,
          "time": 99.46744791666667,
          "velocity": 0.3937007874015748
        },
        {
          "duration": 0.125,
          "durationTicks": 96,
          "midi": 62,
          "name": "D4",
          "ticks": 77571,
          "time": 101.00390625,
          "velocity": 0.3937007874015748
        },
        {
          "duration": 0.125,
          "durationTicks": 96,
          "midi": 62,
          "name": "D4",
          "ticks": 77763,
          "time": 101.25390625,
          "velocity": 0.3937007874015748
        },
        {
          "duration": 0.125,
          "durationTicks": 96,
          "midi": 62,
          "name": "D4",
          "ticks": 77951,
          "time": 101.49869791666667,
          "velocity": 0.3937007874015748
        },
        {
          "duration": 0.125,
          "durationTicks": 96,
          "midi": 62,
          "name": "D4",
          "ticks": 78147,
          "time": 101.75390625,
          "velocity": 0.3937007874015748
        },
        {
          "duration": 1,
          "durationTicks": 768,
          "midi": 65,
          "name": "F4",
          "ticks": 78335,
          "time": 101.99869791666667,
          "velocity": 0.3937007874015748
        },
        {
          "duration": 0.75,
          "durationTicks": 576,
          "midi": 62,
          "name": "D4",
          "ticks": 79095,
          "time": 102.98828125,
          "velocity": 0.3937007874015748
        },
        {
          "duration": 0.25,
          "durationTicks": 192,
          "midi": 60,
          "name": "C4",
          "ticks": 79679,
          "time": 103.74869791666667,
          "velocity": 0.3937007874015748
        },
        {
          "duration": 0.25,
          "durationTicks": 192,
          "midi": 58,
          "name": "A#3",
          "ticks": 81983,
          "time": 106.74869791666667,
          "velocity": 0.3937007874015748
        },
        {
          "duration": 0.125,
          "durationTicks": 96,
          "midi": 62,
          "name": "D4",
          "ticks": 82163,
          "time": 106.98307291666667,
          "velocity": 0.3937007874015748
        },
        {
          "duration": 0.125,
          "durationTicks": 96,
          "midi": 62,
          "name": "D4",
          "ticks": 82355,
          "time": 107.23307291666667,
          "velocity": 0.3937007874015748
        },
        {
          "duration": 0.125,
          "durationTicks": 96,
          "midi": 62,
          "name": "D4",
          "ticks": 82559,
          "time": 107.49869791666667,
          "velocity": 0.3937007874015748
        },
        {
          "duration": 0.125,
          "durationTicks": 96,
          "midi": 62,
          "name": "D4",
          "ticks": 82743,
          "time": 107.73828125,
          "velocity": 0.3937007874015748
        },
        {
          "duration": 1,
          "durationTicks": 768,
          "midi": 65,
          "name": "F4",
          "ticks": 82935,
          "time": 107.98828125,
          "velocity": 0.3937007874015748
        },
        {
          "duration": 0.75,
          "durationTicks": 576,
          "midi": 62,
          "name": "D4",
          "ticks": 83679,
          "time": 108.95703125,
          "velocity": 0.3937007874015748
        },
        {
          "duration": 0.25,
          "durationTicks": 192,
          "midi": 60,
          "name": "C4",
          "ticks": 84279,
          "time": 109.73828125,
          "velocity": 0.3937007874015748
        },
        {
          "duration": 0.75,
          "durationTicks": 576,
          "midi": 62,
          "name": "D4",
          "ticks": 85247,
          "time": 110.99869791666667,
          "velocity": 0.3937007874015748
        },
        {
          "duration": 0.25,
          "durationTicks": 192,
          "midi": 60,
          "name": "C4",
          "ticks": 85823,
          "time": 111.74869791666667,
          "velocity": 0.3937007874015748
        },
        {
          "duration": 0.25,
          "durationTicks": 192,
          "midi": 55,
          "name": "G3",
          "ticks": 88135,
          "time": 114.75911458333333,
          "velocity": 0.3937007874015748
        },
        {
          "duration": 0.125,
          "durationTicks": 96,
          "midi": 62,
          "name": "D4",
          "ticks": 88336,
          "time": 115.02083333333333,
          "velocity": 0.3937007874015748
        },
        {
          "duration": 0.5,
          "durationTicks": 384,
          "midi": 62,
          "name": "D4",
          "ticks": 88519,
          "time": 115.25911458333333,
          "velocity": 0.3937007874015748
        },
        {
          "duration": 0.125,
          "durationTicks": 96,
          "midi": 55,
          "name": "G3",
          "ticks": 88919,
          "time": 115.77994791666667,
          "velocity": 0.3937007874015748
        },
        {
          "duration": 0.25,
          "durationTicks": 192,
          "midi": 55,
          "name": "G3",
          "ticks": 89631,
          "time": 116.70703125,
          "velocity": 0.3937007874015748
        },
        {
          "duration": 0.125,
          "durationTicks": 96,
          "midi": 62,
          "name": "D4",
          "ticks": 89831,
          "time": 116.96744791666667,
          "velocity": 0.3937007874015748
        },
        {
          "duration": 0.125,
          "durationTicks": 96,
          "midi": 62,
          "name": "D4",
          "ticks": 90019,
          "time": 117.21223958333333,
          "velocity": 0.3937007874015748
        },
        {
          "duration": 0.125,
          "durationTicks": 96,
          "midi": 62,
          "name": "D4",
          "ticks": 90211,
          "time": 117.46223958333333,
          "velocity": 0.3937007874015748
        },
        {
          "duration": 0.25,
          "durationTicks": 192,
          "midi": 62,
          "name": "D4",
          "ticks": 90391,
          "time": 117.69661458333333,
          "velocity": 0.3937007874015748
        },
        {
          "duration": 1,
          "durationTicks": 768,
          "midi": 65,
          "name": "F4",
          "ticks": 90595,
          "time": 117.96223958333333,
          "velocity": 0.3937007874015748
        },
        {
          "duration": 0.625,
          "durationTicks": 480,
          "midi": 62,
          "name": "D4",
          "ticks": 91383,
          "time": 118.98828125,
          "velocity": 0.3937007874015748
        },
        {
          "duration": 0.125,
          "durationTicks": 96,
          "midi": 60,
          "name": "C4",
          "ticks": 91967,
          "time": 119.74869791666667,
          "velocity": 0.3937007874015748
        },
        {
          "duration": 0.25,
          "durationTicks": 192,
          "midi": 55,
          "name": "G3",
          "ticks": 94271,
          "time": 122.74869791666667,
          "velocity": 0.3937007874015748
        },
        {
          "duration": 0.125,
          "durationTicks": 96,
          "midi": 62,
          "name": "D4",
          "ticks": 94471,
          "time": 123.00911458333333,
          "velocity": 0.3937007874015748
        },
        {
          "duration": 0.5,
          "durationTicks": 384,
          "midi": 62,
          "name": "D4",
          "ticks": 94655,
          "time": 123.24869791666667,
          "velocity": 0.3937007874015748
        },
        {
          "duration": 0.125,
          "durationTicks": 96,
          "midi": 55,
          "name": "G3",
          "ticks": 95055,
          "time": 123.76953125,
          "velocity": 0.3937007874015748
        },
        {
          "duration": 0.25,
          "durationTicks": 192,
          "midi": 55,
          "name": "G3",
          "ticks": 95807,
          "time": 124.74869791666667,
          "velocity": 0.3937007874015748
        },
        {
          "duration": 0.125,
          "durationTicks": 96,
          "midi": 62,
          "name": "D4",
          "ticks": 96003,
          "time": 125.00390625,
          "velocity": 0.3937007874015748
        },
        {
          "duration": 0.125,
          "durationTicks": 96,
          "midi": 62,
          "name": "D4",
          "ticks": 96195,
          "time": 125.25390625,
          "velocity": 0.3937007874015748
        },
        {
          "duration": 0.125,
          "durationTicks": 96,
          "midi": 62,
          "name": "D4",
          "ticks": 96387,
          "time": 125.50390625,
          "velocity": 0.3937007874015748
        },
        {
          "duration": 0.25,
          "durationTicks": 192,
          "midi": 62,
          "name": "D4",
          "ticks": 96564,
          "time": 125.734375,
          "velocity": 0.3937007874015748
        },
        {
          "duration": 1,
          "durationTicks": 768,
          "midi": 65,
          "name": "F4",
          "ticks": 96768,
          "time": 126,
          "velocity": 0.3937007874015748
        },
        {
          "duration": 0.625,
          "durationTicks": 480,
          "midi": 62,
          "name": "D4",
          "ticks": 97556,
          "time": 127.02604166666667,
          "velocity": 0.3937007874015748
        },
        {
          "duration": 0.125,
          "durationTicks": 96,
          "midi": 60,
          "name": "C4",
          "ticks": 98124,
          "time": 127.765625,
          "velocity": 0.3937007874015748
        },
        {
          "duration": 0.25,
          "durationTicks": 192,
          "midi": 55,
          "name": "G3",
          "ticks": 100416,
          "time": 130.75,
          "velocity": 0.3937007874015748
        },
        {
          "duration": 0.125,
          "durationTicks": 96,
          "midi": 62,
          "name": "D4",
          "ticks": 100616,
          "time": 131.01041666666666,
          "velocity": 0.3937007874015748
        },
        {
          "duration": 0.5,
          "durationTicks": 384,
          "midi": 62,
          "name": "D4",
          "ticks": 100800,
          "time": 131.25,
          "velocity": 0.3937007874015748
        },
        {
          "duration": 0.125,
          "durationTicks": 96,
          "midi": 55,
          "name": "G3",
          "ticks": 101200,
          "time": 131.77083333333334,
          "velocity": 0.3937007874015748
        },
        {
          "duration": 0.25,
          "durationTicks": 192,
          "midi": 55,
          "name": "G3",
          "ticks": 101952,
          "time": 132.75,
          "velocity": 0.3937007874015748
        },
        {
          "duration": 0.125,
          "durationTicks": 96,
          "midi": 62,
          "name": "D4",
          "ticks": 102148,
          "time": 133.00520833333334,
          "velocity": 0.3937007874015748
        },
        {
          "duration": 0.125,
          "durationTicks": 96,
          "midi": 62,
          "name": "D4",
          "ticks": 102340,
          "time": 133.25520833333334,
          "velocity": 0.3937007874015748
        },
        {
          "duration": 0.125,
          "durationTicks": 96,
          "midi": 62,
          "name": "D4",
          "ticks": 102532,
          "time": 133.50520833333334,
          "velocity": 0.3937007874015748
        },
        {
          "duration": 0.25,
          "durationTicks": 192,
          "midi": 62,
          "name": "D4",
          "ticks": 102709,
          "time": 133.73567708333334,
          "velocity": 0.3937007874015748
        },
        {
          "duration": 1,
          "durationTicks": 768,
          "midi": 65,
          "name": "F4",
          "ticks": 102913,
          "time": 134.00130208333334,
          "velocity": 0.3937007874015748
        },
        {
          "duration": 0.625,
          "durationTicks": 480,
          "midi": 62,
          "name": "D4",
          "ticks": 103701,
          "time": 135.02734375,
          "velocity": 0.3937007874015748
        },
        {
          "duration": 0.125,
          "durationTicks": 96,
          "midi": 60,
          "name": "C4",
          "ticks": 104269,
          "time": 135.76692708333334,
          "velocity": 0.3937007874015748
        },
        {
          "duration": 0.125,
          "durationTicks": 96,
          "midi": 60,
          "name": "C4",
          "ticks": 105985,
          "time": 138.00130208333334,
          "velocity": 0.3937007874015748
        },
        {
          "duration": 0.125,
          "durationTicks": 96,
          "midi": 62,
          "name": "D4",
          "ticks": 106177,
          "time": 138.25130208333334,
          "velocity": 0.3937007874015748
        },
        {
          "duration": 0.125,
          "durationTicks": 96,
          "midi": 60,
          "name": "C4",
          "ticks": 106369,
          "time": 138.50130208333334,
          "velocity": 0.3937007874015748
        },
        {
          "duration": 0.125,
          "durationTicks": 96,
          "midi": 62,
          "name": "D4",
          "ticks": 106561,
          "time": 138.75130208333334,
          "velocity": 0.3937007874015748
        },
        {
          "duration": 0.125,
          "durationTicks": 96,
          "midi": 60,
          "name": "C4",
          "ticks": 106753,
          "time": 139.00130208333334,
          "velocity": 0.3937007874015748
        },
        {
          "duration": 0.125,
          "durationTicks": 96,
          "midi": 62,
          "name": "D4",
          "ticks": 106945,
          "time": 139.25130208333334,
          "velocity": 0.3937007874015748
        },
        {
          "duration": 0.125,
          "durationTicks": 96,
          "midi": 60,
          "name": "C4",
          "ticks": 107137,
          "time": 139.50130208333334,
          "velocity": 0.3937007874015748
        },
        {
          "duration": 0.375,
          "durationTicks": 288,
          "midi": 62,
          "name": "D4",
          "ticks": 107329,
          "time": 139.75130208333334,
          "velocity": 0.3937007874015748
        },
        {
          "duration": 0.125,
          "durationTicks": 96,
          "midi": 60,
          "name": "C4",
          "ticks": 107713,
          "time": 140.25130208333334,
          "velocity": 0.3937007874015748
        },
        {
          "duration": 0.25,
          "durationTicks": 192,
          "midi": 60,
          "name": "C4",
          "ticks": 108089,
          "time": 140.74088541666666,
          "velocity": 0.3937007874015748
        },
        {
          "duration": 0.125,
          "durationTicks": 96,
          "midi": 62,
          "name": "D4",
          "ticks": 108269,
          "time": 140.97526041666666,
          "velocity": 0.3937007874015748
        },
        {
          "duration": 0.25,
          "durationTicks": 192,
          "midi": 62,
          "name": "D4",
          "ticks": 108657,
          "time": 141.48046875,
          "velocity": 0.3937007874015748
        },
        {
          "duration": 0.125,
          "durationTicks": 96,
          "midi": 60,
          "name": "C4",
          "ticks": 108821,
          "time": 141.69401041666666,
          "velocity": 0.3937007874015748
        },
        {
          "duration": 0.25,
          "durationTicks": 192,
          "midi": 62,
          "name": "D4",
          "ticks": 109029,
          "time": 141.96484375,
          "velocity": 0.3937007874015748
        },
        {
          "duration": 0.25,
          "durationTicks": 192,
          "midi": 62,
          "name": "D4",
          "ticks": 109397,
          "time": 142.44401041666666,
          "velocity": 0.3937007874015748
        },
        {
          "duration": 0.125,
          "durationTicks": 96,
          "midi": 60,
          "name": "C4",
          "ticks": 109585,
          "time": 142.68880208333334,
          "velocity": 0.3937007874015748
        },
        {
          "duration": 0.25,
          "durationTicks": 192,
          "midi": 62,
          "name": "D4",
          "ticks": 109773,
          "time": 142.93359375,
          "velocity": 0.3937007874015748
        },
        {
          "duration": 0.125,
          "durationTicks": 96,
          "midi": 60,
          "name": "C4",
          "ticks": 109941,
          "time": 143.15234375,
          "velocity": 0.3937007874015748
        },
        {
          "duration": 0.25,
          "durationTicks": 192,
          "midi": 62,
          "name": "D4",
          "ticks": 110149,
          "time": 143.42317708333334,
          "velocity": 0.3937007874015748
        },
        {
          "duration": 0.625,
          "durationTicks": 480,
          "midi": 62,
          "name": "D4",
          "ticks": 110517,
          "time": 143.90234375,
          "velocity": 0.3937007874015748
        },
        {
          "duration": 0.375,
          "durationTicks": 288,
          "midi": 60,
          "name": "C4",
          "ticks": 112901,
          "time": 147.00651041666666,
          "velocity": 0.3937007874015748
        },
        {
          "duration": 0.25,
          "durationTicks": 192,
          "midi": 62,
          "name": "D4",
          "ticks": 113261,
          "time": 147.47526041666666,
          "velocity": 0.3937007874015748
        },
        {
          "duration": 0.25,
          "durationTicks": 192,
          "midi": 60,
          "name": "C4",
          "ticks": 114233,
          "time": 148.74088541666666,
          "velocity": 0.3937007874015748
        },
        {
          "duration": 0.125,
          "durationTicks": 96,
          "midi": 62,
          "name": "D4",
          "ticks": 114429,
          "time": 148.99609375,
          "velocity": 0.3937007874015748
        },
        {
          "duration": 0.125,
          "durationTicks": 96,
          "midi": 62,
          "name": "D4",
          "ticks": 114601,
          "time": 149.22005208333334,
          "velocity": 0.3937007874015748
        },
        {
          "duration": 0.125,
          "durationTicks": 96,
          "midi": 62,
          "name": "D4",
          "ticks": 114785,
          "time": 149.45963541666666,
          "velocity": 0.3937007874015748
        },
        {
          "duration": 0.125,
          "durationTicks": 96,
          "midi": 62,
          "name": "D4",
          "ticks": 114981,
          "time": 149.71484375,
          "velocity": 0.3937007874015748
        },
        {
          "duration": 0.875,
          "durationTicks": 672,
          "midi": 65,
          "name": "F4",
          "ticks": 115177,
          "time": 149.97005208333334,
          "velocity": 0.3937007874015748
        },
        {
          "duration": 0.625,
          "durationTicks": 480,
          "midi": 62,
          "name": "D4",
          "ticks": 115969,
          "time": 151.00130208333334,
          "velocity": 0.3937007874015748
        },
        {
          "duration": 0.125,
          "durationTicks": 96,
          "midi": 60,
          "name": "C4",
          "ticks": 116525,
          "time": 151.72526041666666,
          "velocity": 0.3937007874015748
        },
        {
          "duration": 0.25,
          "durationTicks": 192,
          "midi": 58,
          "name": "A#3",
          "ticks": 118845,
          "time": 154.74609375,
          "velocity": 0.3937007874015748
        },
        {
          "duration": 0.125,
          "durationTicks": 96,
          "midi": 62,
          "name": "D4",
          "ticks": 119041,
          "time": 155.00130208333334,
          "velocity": 0.3937007874015748
        },
        {
          "duration": 0.125,
          "durationTicks": 96,
          "midi": 62,
          "name": "D4",
          "ticks": 119225,
          "time": 155.24088541666666,
          "velocity": 0.3937007874015748
        },
        {
          "duration": 0.125,
          "durationTicks": 96,
          "midi": 62,
          "name": "D4",
          "ticks": 119425,
          "time": 155.50130208333334,
          "velocity": 0.3937007874015748
        },
        {
          "duration": 0.125,
          "durationTicks": 96,
          "midi": 62,
          "name": "D4",
          "ticks": 119613,
          "time": 155.74609375,
          "velocity": 0.3937007874015748
        },
        {
          "duration": 1,
          "durationTicks": 768,
          "midi": 65,
          "name": "F4",
          "ticks": 119801,
          "time": 155.99088541666666,
          "velocity": 0.3937007874015748
        },
        {
          "duration": 0.875,
          "durationTicks": 672,
          "midi": 62,
          "name": "D4",
          "ticks": 120573,
          "time": 156.99609375,
          "velocity": 0.3937007874015748
        },
        {
          "duration": 0.125,
          "durationTicks": 96,
          "midi": 60,
          "name": "C4",
          "ticks": 121197,
          "time": 157.80859375,
          "velocity": 0.3937007874015748
        },
        {
          "duration": 0.625,
          "durationTicks": 480,
          "midi": 62,
          "name": "D4",
          "ticks": 122105,
          "time": 158.99088541666666,
          "velocity": 0.3937007874015748
        },
        {
          "duration": 0.125,
          "durationTicks": 96,
          "midi": 60,
          "name": "C4",
          "ticks": 122665,
          "time": 159.72005208333334,
          "velocity": 0.3937007874015748
        },
        {
          "duration": 0.375,
          "durationTicks": 288,
          "midi": 60,
          "name": "C4",
          "ticks": 125185,
          "time": 163.00130208333334,
          "velocity": 0.3937007874015748
        },
        {
          "duration": 0.25,
          "durationTicks": 192,
          "midi": 62,
          "name": "D4",
          "ticks": 125545,
          "time": 163.47005208333334,
          "velocity": 0.3937007874015748
        },
        {
          "duration": 0.25,
          "durationTicks": 192,
          "midi": 60,
          "name": "C4",
          "ticks": 126517,
          "time": 164.73567708333334,
          "velocity": 0.3937007874015748
        },
        {
          "duration": 0.125,
          "durationTicks": 96,
          "midi": 62,
          "name": "D4",
          "ticks": 126713,
          "time": 164.99088541666666,
          "velocity": 0.3937007874015748
        },
        {
          "duration": 0.125,
          "durationTicks": 96,
          "midi": 62,
          "name": "D4",
          "ticks": 126885,
          "time": 165.21484375,
          "velocity": 0.3937007874015748
        },
        {
          "duration": 0.125,
          "durationTicks": 96,
          "midi": 62,
          "name": "D4",
          "ticks": 127069,
          "time": 165.45442708333334,
          "velocity": 0.3937007874015748
        },
        {
          "duration": 0.125,
          "durationTicks": 96,
          "midi": 62,
          "name": "D4",
          "ticks": 127265,
          "time": 165.70963541666666,
          "velocity": 0.3937007874015748
        },
        {
          "duration": 0.875,
          "durationTicks": 672,
          "midi": 65,
          "name": "F4",
          "ticks": 127461,
          "time": 165.96484375,
          "velocity": 0.3937007874015748
        },
        {
          "duration": 0.625,
          "durationTicks": 480,
          "midi": 62,
          "name": "D4",
          "ticks": 128253,
          "time": 166.99609375,
          "velocity": 0.3937007874015748
        },
        {
          "duration": 0.125,
          "durationTicks": 96,
          "midi": 60,
          "name": "C4",
          "ticks": 128809,
          "time": 167.72005208333334,
          "velocity": 0.3937007874015748
        },
        {
          "duration": 0.25,
          "durationTicks": 192,
          "midi": 58,
          "name": "A#3",
          "ticks": 131129,
          "time": 170.74088541666666,
          "velocity": 0.3937007874015748
        },
        {
          "duration": 0.125,
          "durationTicks": 96,
          "midi": 62,
          "name": "D4",
          "ticks": 131325,
          "time": 170.99609375,
          "velocity": 0.3937007874015748
        },
        {
          "duration": 0.125,
          "durationTicks": 96,
          "midi": 62,
          "name": "D4",
          "ticks": 131509,
          "time": 171.23567708333334,
          "velocity": 0.3937007874015748
        },
        {
          "duration": 0.125,
          "durationTicks": 96,
          "midi": 62,
          "name": "D4",
          "ticks": 131709,
          "time": 171.49609375,
          "velocity": 0.3937007874015748
        },
        {
          "duration": 0.125,
          "durationTicks": 96,
          "midi": 62,
          "name": "D4",
          "ticks": 131897,
          "time": 171.74088541666666,
          "velocity": 0.3937007874015748
        },
        {
          "duration": 1,
          "durationTicks": 768,
          "midi": 65,
          "name": "F4",
          "ticks": 132085,
          "time": 171.98567708333334,
          "velocity": 0.3937007874015748
        },
        {
          "duration": 0.875,
          "durationTicks": 672,
          "midi": 62,
          "name": "D4",
          "ticks": 132857,
          "time": 172.99088541666666,
          "velocity": 0.3937007874015748
        },
        {
          "duration": 0.125,
          "durationTicks": 96,
          "midi": 60,
          "name": "C4",
          "ticks": 133481,
          "time": 173.80338541666666,
          "velocity": 0.3937007874015748
        },
        {
          "duration": 0.625,
          "durationTicks": 480,
          "midi": 62,
          "name": "D4",
          "ticks": 134389,
          "time": 174.98567708333334,
          "velocity": 0.3937007874015748
        },
        {
          "duration": 0.125,
          "durationTicks": 96,
          "midi": 60,
          "name": "C4",
          "ticks": 134949,
          "time": 175.71484375,
          "velocity": 0.3937007874015748
        },
        {
          "duration": 0.125,
          "durationTicks": 96,
          "midi": 67,
          "name": "G4",
          "ticks": 147457,
          "time": 192.00130208333334,
          "velocity": 0.3937007874015748
        },
        {
          "duration": 0.125,
          "durationTicks": 96,
          "midi": 72,
          "name": "C5",
          "ticks": 147457,
          "time": 192.00130208333334,
          "velocity": 0.3937007874015748
        },
        {
          "duration": 0.125,
          "durationTicks": 96,
          "midi": 79,
          "name": "G5",
          "ticks": 147457,
          "time": 192.00130208333334,
          "velocity": 0.3937007874015748
        },
        {
          "duration": 0.125,
          "durationTicks": 96,
          "midi": 72,
          "name": "C5",
          "ticks": 147649,
          "time": 192.25130208333334,
          "velocity": 0.3937007874015748
        },
        {
          "duration": 0.125,
          "durationTicks": 96,
          "midi": 79,
          "name": "G5",
          "ticks": 147649,
          "time": 192.25130208333334,
          "velocity": 0.3937007874015748
        },
        {
          "duration": 0.125,
          "durationTicks": 96,
          "midi": 67,
          "name": "G4",
          "ticks": 147649,
          "time": 192.25130208333334,
          "velocity": 0.3937007874015748
        },
        {
          "duration": 0.125,
          "durationTicks": 96,
          "midi": 67,
          "name": "G4",
          "ticks": 147697,
          "time": 192.31380208333334,
          "velocity": 0.3937007874015748
        },
        {
          "duration": 0.125,
          "durationTicks": 96,
          "midi": 79,
          "name": "G5",
          "ticks": 147697,
          "time": 192.31380208333334,
          "velocity": 0.3937007874015748
        },
        {
          "duration": 0.125,
          "durationTicks": 96,
          "midi": 72,
          "name": "C5",
          "ticks": 147697,
          "time": 192.31380208333334,
          "velocity": 0.3937007874015748
        },
        {
          "duration": 0.125,
          "durationTicks": 96,
          "midi": 67,
          "name": "G4",
          "ticks": 147745,
          "time": 192.37630208333334,
          "velocity": 0.3937007874015748
        },
        {
          "duration": 0.125,
          "durationTicks": 96,
          "midi": 79,
          "name": "G5",
          "ticks": 147745,
          "time": 192.37630208333334,
          "velocity": 0.3937007874015748
        },
        {
          "duration": 0.125,
          "durationTicks": 96,
          "midi": 72,
          "name": "C5",
          "ticks": 147745,
          "time": 192.37630208333334,
          "velocity": 0.3937007874015748
        },
        {
          "duration": 0.125,
          "durationTicks": 96,
          "midi": 67,
          "name": "G4",
          "ticks": 147793,
          "time": 192.43880208333334,
          "velocity": 0.3937007874015748
        },
        {
          "duration": 0.125,
          "durationTicks": 96,
          "midi": 79,
          "name": "G5",
          "ticks": 147793,
          "time": 192.43880208333334,
          "velocity": 0.3937007874015748
        },
        {
          "duration": 0.125,
          "durationTicks": 96,
          "midi": 72,
          "name": "C5",
          "ticks": 147793,
          "time": 192.43880208333334,
          "velocity": 0.3937007874015748
        },
        {
          "duration": 0.125,
          "durationTicks": 96,
          "midi": 72,
          "name": "C5",
          "ticks": 147985,
          "time": 192.68880208333334,
          "velocity": 0.3937007874015748
        },
        {
          "duration": 0.125,
          "durationTicks": 96,
          "midi": 79,
          "name": "G5",
          "ticks": 147985,
          "time": 192.68880208333334,
          "velocity": 0.3937007874015748
        },
        {
          "duration": 0.125,
          "durationTicks": 96,
          "midi": 67,
          "name": "G4",
          "ticks": 147985,
          "time": 192.68880208333334,
          "velocity": 0.3937007874015748
        },
        {
          "duration": 1,
          "durationTicks": 768,
          "midi": 67,
          "name": "G4",
          "ticks": 148177,
          "time": 192.93880208333334,
          "velocity": 0.3937007874015748
        },
        {
          "duration": 1,
          "durationTicks": 768,
          "midi": 72,
          "name": "C5",
          "ticks": 148177,
          "time": 192.93880208333334,
          "velocity": 0.3937007874015748
        },
        {
          "duration": 1,
          "durationTicks": 768,
          "midi": 79,
          "name": "G5",
          "ticks": 148513,
          "time": 193.37630208333334,
          "velocity": 0.3937007874015748
        },
        {
          "duration": 0.375,
          "durationTicks": 288,
          "midi": 60,
          "name": "C4",
          "ticks": 209665,
          "time": 273.0013020833333,
          "velocity": 0.3937007874015748
        },
        {
          "duration": 0.25,
          "durationTicks": 192,
          "midi": 62,
          "name": "D4",
          "ticks": 210025,
          "time": 273.4700520833333,
          "velocity": 0.3937007874015748
        },
        {
          "duration": 0.25,
          "durationTicks": 192,
          "midi": 60,
          "name": "C4",
          "ticks": 210997,
          "time": 274.7356770833333,
          "velocity": 0.3937007874015748
        },
        {
          "duration": 0.125,
          "durationTicks": 96,
          "midi": 62,
          "name": "D4",
          "ticks": 211193,
          "time": 274.9908854166667,
          "velocity": 0.3937007874015748
        },
        {
          "duration": 0.125,
          "durationTicks": 96,
          "midi": 62,
          "name": "D4",
          "ticks": 211365,
          "time": 275.21484375,
          "velocity": 0.3937007874015748
        },
        {
          "duration": 0.125,
          "durationTicks": 96,
          "midi": 62,
          "name": "D4",
          "ticks": 211549,
          "time": 275.4544270833333,
          "velocity": 0.3937007874015748
        },
        {
          "duration": 0.125,
          "durationTicks": 96,
          "midi": 62,
          "name": "D4",
          "ticks": 211745,
          "time": 275.7096354166667,
          "velocity": 0.3937007874015748
        },
        {
          "duration": 0.875,
          "durationTicks": 672,
          "midi": 65,
          "name": "F4",
          "ticks": 211941,
          "time": 275.96484375,
          "velocity": 0.3937007874015748
        },
        {
          "duration": 0.625,
          "durationTicks": 480,
          "midi": 62,
          "name": "D4",
          "ticks": 212733,
          "time": 276.99609375,
          "velocity": 0.3937007874015748
        },
        {
          "duration": 0.125,
          "durationTicks": 96,
          "midi": 60,
          "name": "C4",
          "ticks": 213289,
          "time": 277.7200520833333,
          "velocity": 0.3937007874015748
        },
        {
          "duration": 0.25,
          "durationTicks": 192,
          "midi": 58,
          "name": "A#3",
          "ticks": 215609,
          "time": 280.7408854166667,
          "velocity": 0.3937007874015748
        },
        {
          "duration": 0.125,
          "durationTicks": 96,
          "midi": 62,
          "name": "D4",
          "ticks": 215805,
          "time": 280.99609375,
          "velocity": 0.3937007874015748
        },
        {
          "duration": 0.125,
          "durationTicks": 96,
          "midi": 62,
          "name": "D4",
          "ticks": 215989,
          "time": 281.2356770833333,
          "velocity": 0.3937007874015748
        },
        {
          "duration": 0.125,
          "durationTicks": 96,
          "midi": 62,
          "name": "D4",
          "ticks": 216189,
          "time": 281.49609375,
          "velocity": 0.3937007874015748
        },
        {
          "duration": 0.125,
          "durationTicks": 96,
          "midi": 62,
          "name": "D4",
          "ticks": 216377,
          "time": 281.7408854166667,
          "velocity": 0.3937007874015748
        },
        {
          "duration": 1,
          "durationTicks": 768,
          "midi": 65,
          "name": "F4",
          "ticks": 216565,
          "time": 281.9856770833333,
          "velocity": 0.3937007874015748
        },
        {
          "duration": 0.875,
          "durationTicks": 672,
          "midi": 62,
          "name": "D4",
          "ticks": 217337,
          "time": 282.9908854166667,
          "velocity": 0.3937007874015748
        },
        {
          "duration": 0.125,
          "durationTicks": 96,
          "midi": 60,
          "name": "C4",
          "ticks": 217961,
          "time": 283.8033854166667,
          "velocity": 0.3937007874015748
        },
        {
          "duration": 0.625,
          "durationTicks": 480,
          "midi": 62,
          "name": "D4",
          "ticks": 218869,
          "time": 284.9856770833333,
          "velocity": 0.3937007874015748
        },
        {
          "duration": 0.125,
          "durationTicks": 96,
          "midi": 60,
          "name": "C4",
          "ticks": 219429,
          "time": 285.71484375,
          "velocity": 0.3937007874015748
        },
        {
          "duration": 0.375,
          "durationTicks": 288,
          "midi": 60,
          "name": "C4",
          "ticks": 228097,
          "time": 297.0013020833333,
          "velocity": 0.3937007874015748
        },
        {
          "duration": 0.25,
          "durationTicks": 192,
          "midi": 62,
          "name": "D4",
          "ticks": 228457,
          "time": 297.4700520833333,
          "velocity": 0.3937007874015748
        },
        {
          "duration": 0.25,
          "durationTicks": 192,
          "midi": 60,
          "name": "C4",
          "ticks": 229429,
          "time": 298.7356770833333,
          "velocity": 0.3937007874015748
        },
        {
          "duration": 0.125,
          "durationTicks": 96,
          "midi": 62,
          "name": "D4",
          "ticks": 229625,
          "time": 298.9908854166667,
          "velocity": 0.3937007874015748
        },
        {
          "duration": 0.125,
          "durationTicks": 96,
          "midi": 62,
          "name": "D4",
          "ticks": 229797,
          "time": 299.21484375,
          "velocity": 0.3937007874015748
        },
        {
          "duration": 0.125,
          "durationTicks": 96,
          "midi": 62,
          "name": "D4",
          "ticks": 229981,
          "time": 299.4544270833333,
          "velocity": 0.3937007874015748
        },
        {
          "duration": 0.125,
          "durationTicks": 96,
          "midi": 62,
          "name": "D4",
          "ticks": 230177,
          "time": 299.7096354166667,
          "velocity": 0.3937007874015748
        },
        {
          "duration": 0.875,
          "durationTicks": 672,
          "midi": 65,
          "name": "F4",
          "ticks": 230373,
          "time": 299.96484375,
          "velocity": 0.3937007874015748
        },
        {
          "duration": 0.625,
          "durationTicks": 480,
          "midi": 62,
          "name": "D4",
          "ticks": 231169,
          "time": 301.0013020833333,
          "velocity": 0.3937007874015748
        },
        {
          "duration": 0.125,
          "durationTicks": 96,
          "midi": 60,
          "name": "C4",
          "ticks": 231729,
          "time": 301.73046875,
          "velocity": 0.3937007874015748
        },
        {
          "duration": 0.25,
          "durationTicks": 192,
          "midi": 60,
          "name": "C4",
          "ticks": 234049,
          "time": 304.7513020833333,
          "velocity": 0.3937007874015748
        },
        {
          "duration": 0.125,
          "durationTicks": 96,
          "midi": 62,
          "name": "D4",
          "ticks": 234241,
          "time": 305.0013020833333,
          "velocity": 0.3937007874015748
        },
        {
          "duration": 0.125,
          "durationTicks": 96,
          "midi": 62,
          "name": "D4",
          "ticks": 234413,
          "time": 305.2252604166667,
          "velocity": 0.3937007874015748
        },
        {
          "duration": 0.125,
          "durationTicks": 96,
          "midi": 62,
          "name": "D4",
          "ticks": 234597,
          "time": 305.46484375,
          "velocity": 0.3937007874015748
        },
        {
          "duration": 0.125,
          "durationTicks": 96,
          "midi": 62,
          "name": "D4",
          "ticks": 234793,
          "time": 305.7200520833333,
          "velocity": 0.3937007874015748
        },
        {
          "duration": 0.875,
          "durationTicks": 672,
          "midi": 65,
          "name": "F4",
          "ticks": 234989,
          "time": 305.9752604166667,
          "velocity": 0.3937007874015748
        },
        {
          "duration": 0.625,
          "durationTicks": 480,
          "midi": 62,
          "name": "D4",
          "ticks": 235785,
          "time": 307.01171875,
          "velocity": 0.3937007874015748
        },
        {
          "duration": 0.125,
          "durationTicks": 96,
          "midi": 60,
          "name": "C4",
          "ticks": 236346,
          "time": 307.7421875,
          "velocity": 0.3937007874015748
        },
        {
          "duration": 0.625,
          "durationTicks": 480,
          "midi": 62,
          "name": "D4",
          "ticks": 237314,
          "time": 309.0026041666667,
          "velocity": 0.3937007874015748
        },
        {
          "duration": 0.125,
          "durationTicks": 96,
          "midi": 60,
          "name": "C4",
          "ticks": 237870,
          "time": 309.7265625,
          "velocity": 0.3937007874015748
        }
      ],
      "endOfTrackTicks": 237966
    },
    {
      "channel": 3,
      "controlChanges": {},
      "pitchBends": [],
      "instrument": {
        "family": "piano",
        "number": 0,
        "name": "acoustic grand piano"
      },
      "name": "Grand Piano (Classic)",
      "notes": [
        {
          "duration": 0.25,
          "durationTicks": 192,
          "midi": 55,
          "name": "G3",
          "ticks": 14016,
          "time": 18.25,
          "velocity": 0.3937007874015748
        },
        {
          "duration": 0.25,
          "durationTicks": 192,
          "midi": 55,
          "name": "G3",
          "ticks": 14400,
          "time": 18.75,
          "velocity": 0.3937007874015748
        },
        {
          "duration": 0.25,
          "durationTicks": 192,
          "midi": 55,
          "name": "G3",
          "ticks": 14784,
          "time": 19.25,
          "velocity": 0.3937007874015748
        },
        {
          "duration": 0.25,
          "durationTicks": 192,
          "midi": 55,
          "name": "G3",
          "ticks": 15168,
          "time": 19.75,
          "velocity": 0.3937007874015748
        },
        {
          "duration": 0.25,
          "durationTicks": 192,
          "midi": 51,
          "name": "D#3",
          "ticks": 15552,
          "time": 20.25,
          "velocity": 0.3937007874015748
        },
        {
          "duration": 0.25,
          "durationTicks": 192,
          "midi": 51,
          "name": "D#3",
          "ticks": 15936,
          "time": 20.75,
          "velocity": 0.3937007874015748
        },
        {
          "duration": 0.25,
          "durationTicks": 192,
          "midi": 51,
          "name": "D#3",
          "ticks": 16320,
          "time": 21.25,
          "velocity": 0.3937007874015748
        },
        {
          "duration": 0.25,
          "durationTicks": 192,
          "midi": 51,
          "name": "D#3",
          "ticks": 16704,
          "time": 21.75,
          "velocity": 0.3937007874015748
        },
        {
          "duration": 0.25,
          "durationTicks": 192,
          "midi": 58,
          "name": "A#3",
          "ticks": 17088,
          "time": 22.25,
          "velocity": 0.3937007874015748
        },
        {
          "duration": 0.25,
          "durationTicks": 192,
          "midi": 58,
          "name": "A#3",
          "ticks": 17472,
          "time": 22.75,
          "velocity": 0.3937007874015748
        },
        {
          "duration": 0.25,
          "durationTicks": 192,
          "midi": 58,
          "name": "A#3",
          "ticks": 17856,
          "time": 23.25,
          "velocity": 0.3937007874015748
        },
        {
          "duration": 0.25,
          "durationTicks": 192,
          "midi": 58,
          "name": "A#3",
          "ticks": 18240,
          "time": 23.75,
          "velocity": 0.3937007874015748
        },
        {
          "duration": 0.25,
          "durationTicks": 192,
          "midi": 57,
          "name": "A3",
          "ticks": 18624,
          "time": 24.25,
          "velocity": 0.3937007874015748
        },
        {
          "duration": 0.25,
          "durationTicks": 192,
          "midi": 57,
          "name": "A3",
          "ticks": 19008,
          "time": 24.75,
          "velocity": 0.3937007874015748
        },
        {
          "duration": 0.25,
          "durationTicks": 192,
          "midi": 57,
          "name": "A3",
          "ticks": 19392,
          "time": 25.25,
          "velocity": 0.3937007874015748
        },
        {
          "duration": 0.25,
          "durationTicks": 192,
          "midi": 57,
          "name": "A3",
          "ticks": 19776,
          "time": 25.75,
          "velocity": 0.3937007874015748
        },
        {
          "duration": 0.25,
          "durationTicks": 192,
          "midi": 55,
          "name": "G3",
          "ticks": 20160,
          "time": 26.25,
          "velocity": 0.3937007874015748
        },
        {
          "duration": 0.25,
          "durationTicks": 192,
          "midi": 55,
          "name": "G3",
          "ticks": 20544,
          "time": 26.75,
          "velocity": 0.3937007874015748
        },
        {
          "duration": 0.25,
          "durationTicks": 192,
          "midi": 55,
          "name": "G3",
          "ticks": 20928,
          "time": 27.25,
          "velocity": 0.3937007874015748
        },
        {
          "duration": 0.25,
          "durationTicks": 192,
          "midi": 55,
          "name": "G3",
          "ticks": 21312,
          "time": 27.75,
          "velocity": 0.3937007874015748
        },
        {
          "duration": 0.25,
          "durationTicks": 192,
          "midi": 51,
          "name": "D#3",
          "ticks": 21696,
          "time": 28.25,
          "velocity": 0.3937007874015748
        },
        {
          "duration": 0.25,
          "durationTicks": 192,
          "midi": 51,
          "name": "D#3",
          "ticks": 22080,
          "time": 28.75,
          "velocity": 0.3937007874015748
        },
        {
          "duration": 0.25,
          "durationTicks": 192,
          "midi": 51,
          "name": "D#3",
          "ticks": 22464,
          "time": 29.25,
          "velocity": 0.3937007874015748
        },
        {
          "duration": 0.25,
          "durationTicks": 192,
          "midi": 51,
          "name": "D#3",
          "ticks": 22848,
          "time": 29.75,
          "velocity": 0.3937007874015748
        },
        {
          "duration": 0.25,
          "durationTicks": 192,
          "midi": 58,
          "name": "A#3",
          "ticks": 23232,
          "time": 30.25,
          "velocity": 0.3937007874015748
        },
        {
          "duration": 0.25,
          "durationTicks": 192,
          "midi": 58,
          "name": "A#3",
          "ticks": 23616,
          "time": 30.75,
          "velocity": 0.3937007874015748
        },
        {
          "duration": 0.25,
          "durationTicks": 192,
          "midi": 58,
          "name": "A#3",
          "ticks": 24000,
          "time": 31.25,
          "velocity": 0.3937007874015748
        },
        {
          "duration": 0.25,
          "durationTicks": 192,
          "midi": 58,
          "name": "A#3",
          "ticks": 24384,
          "time": 31.75,
          "velocity": 0.3937007874015748
        },
        {
          "duration": 0.25,
          "durationTicks": 192,
          "midi": 57,
          "name": "A3",
          "ticks": 24768,
          "time": 32.25,
          "velocity": 0.3937007874015748
        },
        {
          "duration": 0.25,
          "durationTicks": 192,
          "midi": 57,
          "name": "A3",
          "ticks": 25152,
          "time": 32.75,
          "velocity": 0.3937007874015748
        },
        {
          "duration": 0.25,
          "durationTicks": 192,
          "midi": 57,
          "name": "A3",
          "ticks": 25536,
          "time": 33.25,
          "velocity": 0.3937007874015748
        },
        {
          "duration": 0.25,
          "durationTicks": 192,
          "midi": 57,
          "name": "A3",
          "ticks": 25920,
          "time": 33.75,
          "velocity": 0.3937007874015748
        },
        {
          "duration": 0.25,
          "durationTicks": 192,
          "midi": 55,
          "name": "G3",
          "ticks": 26304,
          "time": 34.25,
          "velocity": 0.3937007874015748
        },
        {
          "duration": 0.25,
          "durationTicks": 192,
          "midi": 55,
          "name": "G3",
          "ticks": 26688,
          "time": 34.75,
          "velocity": 0.3937007874015748
        },
        {
          "duration": 0.25,
          "durationTicks": 192,
          "midi": 55,
          "name": "G3",
          "ticks": 27072,
          "time": 35.25,
          "velocity": 0.3937007874015748
        },
        {
          "duration": 0.25,
          "durationTicks": 192,
          "midi": 55,
          "name": "G3",
          "ticks": 27456,
          "time": 35.75,
          "velocity": 0.3937007874015748
        },
        {
          "duration": 0.25,
          "durationTicks": 192,
          "midi": 51,
          "name": "D#3",
          "ticks": 27840,
          "time": 36.25,
          "velocity": 0.3937007874015748
        },
        {
          "duration": 0.25,
          "durationTicks": 192,
          "midi": 51,
          "name": "D#3",
          "ticks": 28224,
          "time": 36.75,
          "velocity": 0.3937007874015748
        },
        {
          "duration": 0.25,
          "durationTicks": 192,
          "midi": 51,
          "name": "D#3",
          "ticks": 28608,
          "time": 37.25,
          "velocity": 0.3937007874015748
        },
        {
          "duration": 0.25,
          "durationTicks": 192,
          "midi": 51,
          "name": "D#3",
          "ticks": 28992,
          "time": 37.75,
          "velocity": 0.3937007874015748
        },
        {
          "duration": 0.25,
          "durationTicks": 192,
          "midi": 58,
          "name": "A#3",
          "ticks": 29376,
          "time": 38.25,
          "velocity": 0.3937007874015748
        },
        {
          "duration": 0.25,
          "durationTicks": 192,
          "midi": 58,
          "name": "A#3",
          "ticks": 29760,
          "time": 38.75,
          "velocity": 0.3937007874015748
        },
        {
          "duration": 0.25,
          "durationTicks": 192,
          "midi": 58,
          "name": "A#3",
          "ticks": 30144,
          "time": 39.25,
          "velocity": 0.3937007874015748
        },
        {
          "duration": 0.25,
          "durationTicks": 192,
          "midi": 58,
          "name": "A#3",
          "ticks": 30528,
          "time": 39.75,
          "velocity": 0.3937007874015748
        },
        {
          "duration": 0.25,
          "durationTicks": 192,
          "midi": 57,
          "name": "A3",
          "ticks": 30912,
          "time": 40.25,
          "velocity": 0.3937007874015748
        },
        {
          "duration": 0.25,
          "durationTicks": 192,
          "midi": 57,
          "name": "A3",
          "ticks": 31296,
          "time": 40.75,
          "velocity": 0.3937007874015748
        },
        {
          "duration": 0.25,
          "durationTicks": 192,
          "midi": 57,
          "name": "A3",
          "ticks": 31680,
          "time": 41.25,
          "velocity": 0.3937007874015748
        },
        {
          "duration": 0.25,
          "durationTicks": 192,
          "midi": 57,
          "name": "A3",
          "ticks": 32064,
          "time": 41.75,
          "velocity": 0.3937007874015748
        },
        {
          "duration": 0.25,
          "durationTicks": 192,
          "midi": 55,
          "name": "G3",
          "ticks": 32448,
          "time": 42.25,
          "velocity": 0.3937007874015748
        },
        {
          "duration": 0.25,
          "durationTicks": 192,
          "midi": 55,
          "name": "G3",
          "ticks": 32832,
          "time": 42.75,
          "velocity": 0.3937007874015748
        },
        {
          "duration": 0.25,
          "durationTicks": 192,
          "midi": 55,
          "name": "G3",
          "ticks": 33216,
          "time": 43.25,
          "velocity": 0.3937007874015748
        },
        {
          "duration": 0.25,
          "durationTicks": 192,
          "midi": 55,
          "name": "G3",
          "ticks": 33600,
          "time": 43.75,
          "velocity": 0.3937007874015748
        },
        {
          "duration": 0.25,
          "durationTicks": 192,
          "midi": 51,
          "name": "D#3",
          "ticks": 33984,
          "time": 44.25,
          "velocity": 0.3937007874015748
        },
        {
          "duration": 0.25,
          "durationTicks": 192,
          "midi": 51,
          "name": "D#3",
          "ticks": 34368,
          "time": 44.75,
          "velocity": 0.3937007874015748
        },
        {
          "duration": 0.25,
          "durationTicks": 192,
          "midi": 51,
          "name": "D#3",
          "ticks": 34752,
          "time": 45.25,
          "velocity": 0.3937007874015748
        },
        {
          "duration": 0.25,
          "durationTicks": 192,
          "midi": 51,
          "name": "D#3",
          "ticks": 35136,
          "time": 45.75,
          "velocity": 0.3937007874015748
        },
        {
          "duration": 0.25,
          "durationTicks": 192,
          "midi": 58,
          "name": "A#3",
          "ticks": 35520,
          "time": 46.25,
          "velocity": 0.3937007874015748
        },
        {
          "duration": 0.25,
          "durationTicks": 192,
          "midi": 58,
          "name": "A#3",
          "ticks": 35904,
          "time": 46.75,
          "velocity": 0.3937007874015748
        },
        {
          "duration": 0.25,
          "durationTicks": 192,
          "midi": 58,
          "name": "A#3",
          "ticks": 36288,
          "time": 47.25,
          "velocity": 0.3937007874015748
        },
        {
          "duration": 0.25,
          "durationTicks": 192,
          "midi": 58,
          "name": "A#3",
          "ticks": 36672,
          "time": 47.75,
          "velocity": 0.3937007874015748
        },
        {
          "duration": 0.25,
          "durationTicks": 192,
          "midi": 57,
          "name": "A3",
          "ticks": 37056,
          "time": 48.25,
          "velocity": 0.3937007874015748
        },
        {
          "duration": 0.25,
          "durationTicks": 192,
          "midi": 57,
          "name": "A3",
          "ticks": 37440,
          "time": 48.75,
          "velocity": 0.3937007874015748
        },
        {
          "duration": 0.25,
          "durationTicks": 192,
          "midi": 57,
          "name": "A3",
          "ticks": 37824,
          "time": 49.25,
          "velocity": 0.3937007874015748
        },
        {
          "duration": 0.25,
          "durationTicks": 192,
          "midi": 57,
          "name": "A3",
          "ticks": 38208,
          "time": 49.75,
          "velocity": 0.3937007874015748
        },
        {
          "duration": 0.25,
          "durationTicks": 192,
          "midi": 55,
          "name": "G3",
          "ticks": 38592,
          "time": 50.25,
          "velocity": 0.3937007874015748
        },
        {
          "duration": 0.25,
          "durationTicks": 192,
          "midi": 55,
          "name": "G3",
          "ticks": 38976,
          "time": 50.75,
          "velocity": 0.3937007874015748
        },
        {
          "duration": 0.25,
          "durationTicks": 192,
          "midi": 55,
          "name": "G3",
          "ticks": 39360,
          "time": 51.25,
          "velocity": 0.3937007874015748
        },
        {
          "duration": 0.25,
          "durationTicks": 192,
          "midi": 55,
          "name": "G3",
          "ticks": 39744,
          "time": 51.75,
          "velocity": 0.3937007874015748
        },
        {
          "duration": 0.25,
          "durationTicks": 192,
          "midi": 51,
          "name": "D#3",
          "ticks": 40128,
          "time": 52.25,
          "velocity": 0.3937007874015748
        },
        {
          "duration": 0.25,
          "durationTicks": 192,
          "midi": 51,
          "name": "D#3",
          "ticks": 40512,
          "time": 52.75,
          "velocity": 0.3937007874015748
        },
        {
          "duration": 0.25,
          "durationTicks": 192,
          "midi": 51,
          "name": "D#3",
          "ticks": 40896,
          "time": 53.25,
          "velocity": 0.3937007874015748
        },
        {
          "duration": 0.25,
          "durationTicks": 192,
          "midi": 51,
          "name": "D#3",
          "ticks": 41280,
          "time": 53.75,
          "velocity": 0.3937007874015748
        },
        {
          "duration": 0.25,
          "durationTicks": 192,
          "midi": 58,
          "name": "A#3",
          "ticks": 41664,
          "time": 54.25,
          "velocity": 0.3937007874015748
        },
        {
          "duration": 0.25,
          "durationTicks": 192,
          "midi": 58,
          "name": "A#3",
          "ticks": 42048,
          "time": 54.75,
          "velocity": 0.3937007874015748
        },
        {
          "duration": 0.25,
          "durationTicks": 192,
          "midi": 58,
          "name": "A#3",
          "ticks": 42432,
          "time": 55.25,
          "velocity": 0.3937007874015748
        },
        {
          "duration": 0.25,
          "durationTicks": 192,
          "midi": 58,
          "name": "A#3",
          "ticks": 42816,
          "time": 55.75,
          "velocity": 0.3937007874015748
        },
        {
          "duration": 0.25,
          "durationTicks": 192,
          "midi": 57,
          "name": "A3",
          "ticks": 43200,
          "time": 56.25,
          "velocity": 0.3937007874015748
        },
        {
          "duration": 0.25,
          "durationTicks": 192,
          "midi": 57,
          "name": "A3",
          "ticks": 43584,
          "time": 56.75,
          "velocity": 0.3937007874015748
        },
        {
          "duration": 0.25,
          "durationTicks": 192,
          "midi": 57,
          "name": "A3",
          "ticks": 43968,
          "time": 57.25,
          "velocity": 0.3937007874015748
        },
        {
          "duration": 0.25,
          "durationTicks": 192,
          "midi": 57,
          "name": "A3",
          "ticks": 44352,
          "time": 57.75,
          "velocity": 0.3937007874015748
        },
        {
          "duration": 0.25,
          "durationTicks": 192,
          "midi": 55,
          "name": "G3",
          "ticks": 44736,
          "time": 58.25,
          "velocity": 0.3937007874015748
        },
        {
          "duration": 0.25,
          "durationTicks": 192,
          "midi": 55,
          "name": "G3",
          "ticks": 45120,
          "time": 58.75,
          "velocity": 0.3937007874015748
        },
        {
          "duration": 0.25,
          "durationTicks": 192,
          "midi": 55,
          "name": "G3",
          "ticks": 45504,
          "time": 59.25,
          "velocity": 0.3937007874015748
        },
        {
          "duration": 0.25,
          "durationTicks": 192,
          "midi": 55,
          "name": "G3",
          "ticks": 45888,
          "time": 59.75,
          "velocity": 0.3937007874015748
        },
        {
          "duration": 0.25,
          "durationTicks": 192,
          "midi": 51,
          "name": "D#3",
          "ticks": 46272,
          "time": 60.25,
          "velocity": 0.3937007874015748
        },
        {
          "duration": 0.25,
          "durationTicks": 192,
          "midi": 51,
          "name": "D#3",
          "ticks": 46656,
          "time": 60.75,
          "velocity": 0.3937007874015748
        },
        {
          "duration": 0.25,
          "durationTicks": 192,
          "midi": 51,
          "name": "D#3",
          "ticks": 47040,
          "time": 61.25,
          "velocity": 0.3937007874015748
        },
        {
          "duration": 0.25,
          "durationTicks": 192,
          "midi": 51,
          "name": "D#3",
          "ticks": 47424,
          "time": 61.75,
          "velocity": 0.3937007874015748
        },
        {
          "duration": 0.25,
          "durationTicks": 192,
          "midi": 58,
          "name": "A#3",
          "ticks": 47808,
          "time": 62.25,
          "velocity": 0.3937007874015748
        },
        {
          "duration": 0.25,
          "durationTicks": 192,
          "midi": 58,
          "name": "A#3",
          "ticks": 48192,
          "time": 62.75,
          "velocity": 0.3937007874015748
        },
        {
          "duration": 0.25,
          "durationTicks": 192,
          "midi": 58,
          "name": "A#3",
          "ticks": 48576,
          "time": 63.25,
          "velocity": 0.3937007874015748
        },
        {
          "duration": 0.25,
          "durationTicks": 192,
          "midi": 58,
          "name": "A#3",
          "ticks": 48960,
          "time": 63.75,
          "velocity": 0.3937007874015748
        },
        {
          "duration": 0.25,
          "durationTicks": 192,
          "midi": 57,
          "name": "A3",
          "ticks": 49344,
          "time": 64.25,
          "velocity": 0.3937007874015748
        },
        {
          "duration": 0.25,
          "durationTicks": 192,
          "midi": 57,
          "name": "A3",
          "ticks": 49728,
          "time": 64.75,
          "velocity": 0.3937007874015748
        },
        {
          "duration": 0.25,
          "durationTicks": 192,
          "midi": 57,
          "name": "A3",
          "ticks": 50112,
          "time": 65.25,
          "velocity": 0.3937007874015748
        },
        {
          "duration": 0.25,
          "durationTicks": 192,
          "midi": 57,
          "name": "A3",
          "ticks": 50496,
          "time": 65.75,
          "velocity": 0.3937007874015748
        },
        {
          "duration": 0.25,
          "durationTicks": 192,
          "midi": 43,
          "name": "G2",
          "ticks": 50688,
          "time": 66,
          "velocity": 0.3937007874015748
        },
        {
          "duration": 0.25,
          "durationTicks": 192,
          "midi": 55,
          "name": "G3",
          "ticks": 50880,
          "time": 66.25,
          "velocity": 0.3937007874015748
        },
        {
          "duration": 0.25,
          "durationTicks": 192,
          "midi": 43,
          "name": "G2",
          "ticks": 51072,
          "time": 66.5,
          "velocity": 0.3937007874015748
        },
        {
          "duration": 0.25,
          "durationTicks": 192,
          "midi": 55,
          "name": "G3",
          "ticks": 51264,
          "time": 66.75,
          "velocity": 0.3937007874015748
        },
        {
          "duration": 0.25,
          "durationTicks": 192,
          "midi": 43,
          "name": "G2",
          "ticks": 51456,
          "time": 67,
          "velocity": 0.3937007874015748
        },
        {
          "duration": 0.25,
          "durationTicks": 192,
          "midi": 55,
          "name": "G3",
          "ticks": 51648,
          "time": 67.25,
          "velocity": 0.3937007874015748
        },
        {
          "duration": 0.25,
          "durationTicks": 192,
          "midi": 43,
          "name": "G2",
          "ticks": 51840,
          "time": 67.5,
          "velocity": 0.3937007874015748
        },
        {
          "duration": 0.25,
          "durationTicks": 192,
          "midi": 55,
          "name": "G3",
          "ticks": 52032,
          "time": 67.75,
          "velocity": 0.3937007874015748
        },
        {
          "duration": 0.25,
          "durationTicks": 192,
          "midi": 39,
          "name": "D#2",
          "ticks": 52224,
          "time": 68,
          "velocity": 0.3937007874015748
        },
        {
          "duration": 0.25,
          "durationTicks": 192,
          "midi": 51,
          "name": "D#3",
          "ticks": 52416,
          "time": 68.25,
          "velocity": 0.3937007874015748
        },
        {
          "duration": 0.25,
          "durationTicks": 192,
          "midi": 39,
          "name": "D#2",
          "ticks": 52608,
          "time": 68.5,
          "velocity": 0.3937007874015748
        },
        {
          "duration": 0.25,
          "durationTicks": 192,
          "midi": 51,
          "name": "D#3",
          "ticks": 52800,
          "time": 68.75,
          "velocity": 0.3937007874015748
        },
        {
          "duration": 0.25,
          "durationTicks": 192,
          "midi": 39,
          "name": "D#2",
          "ticks": 52992,
          "time": 69,
          "velocity": 0.3937007874015748
        },
        {
          "duration": 0.25,
          "durationTicks": 192,
          "midi": 51,
          "name": "D#3",
          "ticks": 53184,
          "time": 69.25,
          "velocity": 0.3937007874015748
        },
        {
          "duration": 0.25,
          "durationTicks": 192,
          "midi": 39,
          "name": "D#2",
          "ticks": 53376,
          "time": 69.5,
          "velocity": 0.3937007874015748
        },
        {
          "duration": 0.25,
          "durationTicks": 192,
          "midi": 51,
          "name": "D#3",
          "ticks": 53568,
          "time": 69.75,
          "velocity": 0.3937007874015748
        },
        {
          "duration": 0.25,
          "durationTicks": 192,
          "midi": 46,
          "name": "A#2",
          "ticks": 53760,
          "time": 70,
          "velocity": 0.3937007874015748
        },
        {
          "duration": 0.25,
          "durationTicks": 192,
          "midi": 58,
          "name": "A#3",
          "ticks": 53952,
          "time": 70.25,
          "velocity": 0.3937007874015748
        },
        {
          "duration": 0.25,
          "durationTicks": 192,
          "midi": 46,
          "name": "A#2",
          "ticks": 54144,
          "time": 70.5,
          "velocity": 0.3937007874015748
        },
        {
          "duration": 0.25,
          "durationTicks": 192,
          "midi": 58,
          "name": "A#3",
          "ticks": 54336,
          "time": 70.75,
          "velocity": 0.3937007874015748
        },
        {
          "duration": 0.25,
          "durationTicks": 192,
          "midi": 46,
          "name": "A#2",
          "ticks": 54528,
          "time": 71,
          "velocity": 0.3937007874015748
        },
        {
          "duration": 0.25,
          "durationTicks": 192,
          "midi": 58,
          "name": "A#3",
          "ticks": 54720,
          "time": 71.25,
          "velocity": 0.3937007874015748
        },
        {
          "duration": 0.25,
          "durationTicks": 192,
          "midi": 46,
          "name": "A#2",
          "ticks": 54912,
          "time": 71.5,
          "velocity": 0.3937007874015748
        },
        {
          "duration": 0.25,
          "durationTicks": 192,
          "midi": 58,
          "name": "A#3",
          "ticks": 55104,
          "time": 71.75,
          "velocity": 0.3937007874015748
        },
        {
          "duration": 0.25,
          "durationTicks": 192,
          "midi": 45,
          "name": "A2",
          "ticks": 55296,
          "time": 72,
          "velocity": 0.3937007874015748
        },
        {
          "duration": 0.25,
          "durationTicks": 192,
          "midi": 57,
          "name": "A3",
          "ticks": 55488,
          "time": 72.25,
          "velocity": 0.3937007874015748
        },
        {
          "duration": 0.25,
          "durationTicks": 192,
          "midi": 45,
          "name": "A2",
          "ticks": 55680,
          "time": 72.5,
          "velocity": 0.3937007874015748
        },
        {
          "duration": 0.25,
          "durationTicks": 192,
          "midi": 57,
          "name": "A3",
          "ticks": 55872,
          "time": 72.75,
          "velocity": 0.3937007874015748
        },
        {
          "duration": 0.25,
          "durationTicks": 192,
          "midi": 45,
          "name": "A2",
          "ticks": 56064,
          "time": 73,
          "velocity": 0.3937007874015748
        },
        {
          "duration": 0.25,
          "durationTicks": 192,
          "midi": 57,
          "name": "A3",
          "ticks": 56256,
          "time": 73.25,
          "velocity": 0.3937007874015748
        },
        {
          "duration": 0.25,
          "durationTicks": 192,
          "midi": 45,
          "name": "A2",
          "ticks": 56448,
          "time": 73.5,
          "velocity": 0.3937007874015748
        },
        {
          "duration": 0.25,
          "durationTicks": 192,
          "midi": 57,
          "name": "A3",
          "ticks": 56640,
          "time": 73.75,
          "velocity": 0.3937007874015748
        },
        {
          "duration": 0.25,
          "durationTicks": 192,
          "midi": 43,
          "name": "G2",
          "ticks": 56832,
          "time": 74,
          "velocity": 0.3937007874015748
        },
        {
          "duration": 0.25,
          "durationTicks": 192,
          "midi": 55,
          "name": "G3",
          "ticks": 57024,
          "time": 74.25,
          "velocity": 0.3937007874015748
        },
        {
          "duration": 0.25,
          "durationTicks": 192,
          "midi": 43,
          "name": "G2",
          "ticks": 57216,
          "time": 74.5,
          "velocity": 0.3937007874015748
        },
        {
          "duration": 0.25,
          "durationTicks": 192,
          "midi": 55,
          "name": "G3",
          "ticks": 57408,
          "time": 74.75,
          "velocity": 0.3937007874015748
        },
        {
          "duration": 0.25,
          "durationTicks": 192,
          "midi": 43,
          "name": "G2",
          "ticks": 57600,
          "time": 75,
          "velocity": 0.3937007874015748
        },
        {
          "duration": 0.25,
          "durationTicks": 192,
          "midi": 55,
          "name": "G3",
          "ticks": 57792,
          "time": 75.25,
          "velocity": 0.3937007874015748
        },
        {
          "duration": 0.25,
          "durationTicks": 192,
          "midi": 43,
          "name": "G2",
          "ticks": 57984,
          "time": 75.5,
          "velocity": 0.3937007874015748
        },
        {
          "duration": 0.25,
          "durationTicks": 192,
          "midi": 55,
          "name": "G3",
          "ticks": 58176,
          "time": 75.75,
          "velocity": 0.3937007874015748
        },
        {
          "duration": 0.25,
          "durationTicks": 192,
          "midi": 39,
          "name": "D#2",
          "ticks": 58368,
          "time": 76,
          "velocity": 0.3937007874015748
        },
        {
          "duration": 0.25,
          "durationTicks": 192,
          "midi": 51,
          "name": "D#3",
          "ticks": 58560,
          "time": 76.25,
          "velocity": 0.3937007874015748
        },
        {
          "duration": 0.25,
          "durationTicks": 192,
          "midi": 39,
          "name": "D#2",
          "ticks": 58752,
          "time": 76.5,
          "velocity": 0.3937007874015748
        },
        {
          "duration": 0.25,
          "durationTicks": 192,
          "midi": 51,
          "name": "D#3",
          "ticks": 58944,
          "time": 76.75,
          "velocity": 0.3937007874015748
        },
        {
          "duration": 0.25,
          "durationTicks": 192,
          "midi": 39,
          "name": "D#2",
          "ticks": 59136,
          "time": 77,
          "velocity": 0.3937007874015748
        },
        {
          "duration": 0.25,
          "durationTicks": 192,
          "midi": 51,
          "name": "D#3",
          "ticks": 59328,
          "time": 77.25,
          "velocity": 0.3937007874015748
        },
        {
          "duration": 0.25,
          "durationTicks": 192,
          "midi": 39,
          "name": "D#2",
          "ticks": 59520,
          "time": 77.5,
          "velocity": 0.3937007874015748
        },
        {
          "duration": 0.25,
          "durationTicks": 192,
          "midi": 51,
          "name": "D#3",
          "ticks": 59712,
          "time": 77.75,
          "velocity": 0.3937007874015748
        },
        {
          "duration": 0.25,
          "durationTicks": 192,
          "midi": 46,
          "name": "A#2",
          "ticks": 59904,
          "time": 78,
          "velocity": 0.3937007874015748
        },
        {
          "duration": 0.25,
          "durationTicks": 192,
          "midi": 58,
          "name": "A#3",
          "ticks": 60096,
          "time": 78.25,
          "velocity": 0.3937007874015748
        },
        {
          "duration": 0.25,
          "durationTicks": 192,
          "midi": 46,
          "name": "A#2",
          "ticks": 60288,
          "time": 78.5,
          "velocity": 0.3937007874015748
        },
        {
          "duration": 0.25,
          "durationTicks": 192,
          "midi": 58,
          "name": "A#3",
          "ticks": 60480,
          "time": 78.75,
          "velocity": 0.3937007874015748
        },
        {
          "duration": 0.25,
          "durationTicks": 192,
          "midi": 46,
          "name": "A#2",
          "ticks": 60672,
          "time": 79,
          "velocity": 0.3937007874015748
        },
        {
          "duration": 0.25,
          "durationTicks": 192,
          "midi": 58,
          "name": "A#3",
          "ticks": 60864,
          "time": 79.25,
          "velocity": 0.3937007874015748
        },
        {
          "duration": 0.25,
          "durationTicks": 192,
          "midi": 46,
          "name": "A#2",
          "ticks": 61056,
          "time": 79.5,
          "velocity": 0.3937007874015748
        },
        {
          "duration": 0.25,
          "durationTicks": 192,
          "midi": 58,
          "name": "A#3",
          "ticks": 61248,
          "time": 79.75,
          "velocity": 0.3937007874015748
        },
        {
          "duration": 0.25,
          "durationTicks": 192,
          "midi": 45,
          "name": "A2",
          "ticks": 61440,
          "time": 80,
          "velocity": 0.3937007874015748
        },
        {
          "duration": 0.25,
          "durationTicks": 192,
          "midi": 57,
          "name": "A3",
          "ticks": 61632,
          "time": 80.25,
          "velocity": 0.3937007874015748
        },
        {
          "duration": 0.25,
          "durationTicks": 192,
          "midi": 45,
          "name": "A2",
          "ticks": 61824,
          "time": 80.5,
          "velocity": 0.3937007874015748
        },
        {
          "duration": 0.25,
          "durationTicks": 192,
          "midi": 57,
          "name": "A3",
          "ticks": 62016,
          "time": 80.75,
          "velocity": 0.3937007874015748
        },
        {
          "duration": 0.25,
          "durationTicks": 192,
          "midi": 45,
          "name": "A2",
          "ticks": 62208,
          "time": 81,
          "velocity": 0.3937007874015748
        },
        {
          "duration": 0.25,
          "durationTicks": 192,
          "midi": 57,
          "name": "A3",
          "ticks": 62400,
          "time": 81.25,
          "velocity": 0.3937007874015748
        },
        {
          "duration": 0.25,
          "durationTicks": 192,
          "midi": 45,
          "name": "A2",
          "ticks": 62592,
          "time": 81.5,
          "velocity": 0.3937007874015748
        },
        {
          "duration": 0.25,
          "durationTicks": 192,
          "midi": 57,
          "name": "A3",
          "ticks": 62784,
          "time": 81.75,
          "velocity": 0.3937007874015748
        },
        {
          "duration": 0.25,
          "durationTicks": 192,
          "midi": 43,
          "name": "G2",
          "ticks": 62976,
          "time": 82,
          "velocity": 0.3937007874015748
        },
        {
          "duration": 0.25,
          "durationTicks": 192,
          "midi": 55,
          "name": "G3",
          "ticks": 63168,
          "time": 82.25,
          "velocity": 0.3937007874015748
        },
        {
          "duration": 0.25,
          "durationTicks": 192,
          "midi": 43,
          "name": "G2",
          "ticks": 63360,
          "time": 82.5,
          "velocity": 0.3937007874015748
        },
        {
          "duration": 0.25,
          "durationTicks": 192,
          "midi": 55,
          "name": "G3",
          "ticks": 63552,
          "time": 82.75,
          "velocity": 0.3937007874015748
        },
        {
          "duration": 0.25,
          "durationTicks": 192,
          "midi": 43,
          "name": "G2",
          "ticks": 63744,
          "time": 83,
          "velocity": 0.3937007874015748
        },
        {
          "duration": 0.25,
          "durationTicks": 192,
          "midi": 55,
          "name": "G3",
          "ticks": 63936,
          "time": 83.25,
          "velocity": 0.3937007874015748
        },
        {
          "duration": 0.25,
          "durationTicks": 192,
          "midi": 43,
          "name": "G2",
          "ticks": 64128,
          "time": 83.5,
          "velocity": 0.3937007874015748
        },
        {
          "duration": 0.25,
          "durationTicks": 192,
          "midi": 55,
          "name": "G3",
          "ticks": 64320,
          "time": 83.75,
          "velocity": 0.3937007874015748
        },
        {
          "duration": 0.25,
          "durationTicks": 192,
          "midi": 39,
          "name": "D#2",
          "ticks": 64512,
          "time": 84,
          "velocity": 0.3937007874015748
        },
        {
          "duration": 0.25,
          "durationTicks": 192,
          "midi": 51,
          "name": "D#3",
          "ticks": 64704,
          "time": 84.25,
          "velocity": 0.3937007874015748
        },
        {
          "duration": 0.25,
          "durationTicks": 192,
          "midi": 39,
          "name": "D#2",
          "ticks": 64896,
          "time": 84.5,
          "velocity": 0.3937007874015748
        },
        {
          "duration": 0.25,
          "durationTicks": 192,
          "midi": 51,
          "name": "D#3",
          "ticks": 65088,
          "time": 84.75,
          "velocity": 0.3937007874015748
        },
        {
          "duration": 0.25,
          "durationTicks": 192,
          "midi": 39,
          "name": "D#2",
          "ticks": 65280,
          "time": 85,
          "velocity": 0.3937007874015748
        },
        {
          "duration": 0.25,
          "durationTicks": 192,
          "midi": 51,
          "name": "D#3",
          "ticks": 65472,
          "time": 85.25,
          "velocity": 0.3937007874015748
        },
        {
          "duration": 0.25,
          "durationTicks": 192,
          "midi": 39,
          "name": "D#2",
          "ticks": 65664,
          "time": 85.5,
          "velocity": 0.3937007874015748
        },
        {
          "duration": 0.25,
          "durationTicks": 192,
          "midi": 51,
          "name": "D#3",
          "ticks": 65856,
          "time": 85.75,
          "velocity": 0.3937007874015748
        },
        {
          "duration": 0.25,
          "durationTicks": 192,
          "midi": 46,
          "name": "A#2",
          "ticks": 66048,
          "time": 86,
          "velocity": 0.3937007874015748
        },
        {
          "duration": 0.25,
          "durationTicks": 192,
          "midi": 58,
          "name": "A#3",
          "ticks": 66240,
          "time": 86.25,
          "velocity": 0.3937007874015748
        },
        {
          "duration": 0.25,
          "durationTicks": 192,
          "midi": 46,
          "name": "A#2",
          "ticks": 66432,
          "time": 86.5,
          "velocity": 0.3937007874015748
        },
        {
          "duration": 0.25,
          "durationTicks": 192,
          "midi": 58,
          "name": "A#3",
          "ticks": 66624,
          "time": 86.75,
          "velocity": 0.3937007874015748
        },
        {
          "duration": 0.25,
          "durationTicks": 192,
          "midi": 46,
          "name": "A#2",
          "ticks": 66816,
          "time": 87,
          "velocity": 0.3937007874015748
        },
        {
          "duration": 0.25,
          "durationTicks": 192,
          "midi": 58,
          "name": "A#3",
          "ticks": 67008,
          "time": 87.25,
          "velocity": 0.3937007874015748
        },
        {
          "duration": 0.25,
          "durationTicks": 192,
          "midi": 46,
          "name": "A#2",
          "ticks": 67200,
          "time": 87.5,
          "velocity": 0.3937007874015748
        },
        {
          "duration": 0.25,
          "durationTicks": 192,
          "midi": 58,
          "name": "A#3",
          "ticks": 67392,
          "time": 87.75,
          "velocity": 0.3937007874015748
        },
        {
          "duration": 0.25,
          "durationTicks": 192,
          "midi": 45,
          "name": "A2",
          "ticks": 67584,
          "time": 88,
          "velocity": 0.3937007874015748
        },
        {
          "duration": 0.25,
          "durationTicks": 192,
          "midi": 57,
          "name": "A3",
          "ticks": 67776,
          "time": 88.25,
          "velocity": 0.3937007874015748
        },
        {
          "duration": 0.25,
          "durationTicks": 192,
          "midi": 45,
          "name": "A2",
          "ticks": 67968,
          "time": 88.5,
          "velocity": 0.3937007874015748
        },
        {
          "duration": 0.25,
          "durationTicks": 192,
          "midi": 57,
          "name": "A3",
          "ticks": 68160,
          "time": 88.75,
          "velocity": 0.3937007874015748
        },
        {
          "duration": 0.25,
          "durationTicks": 192,
          "midi": 45,
          "name": "A2",
          "ticks": 68352,
          "time": 89,
          "velocity": 0.3937007874015748
        },
        {
          "duration": 0.25,
          "durationTicks": 192,
          "midi": 57,
          "name": "A3",
          "ticks": 68544,
          "time": 89.25,
          "velocity": 0.3937007874015748
        },
        {
          "duration": 0.25,
          "durationTicks": 192,
          "midi": 45,
          "name": "A2",
          "ticks": 68736,
          "time": 89.5,
          "velocity": 0.3937007874015748
        },
        {
          "duration": 0.25,
          "durationTicks": 192,
          "midi": 57,
          "name": "A3",
          "ticks": 68928,
          "time": 89.75,
          "velocity": 0.3937007874015748
        },
        {
          "duration": 0.25,
          "durationTicks": 192,
          "midi": 43,
          "name": "G2",
          "ticks": 69120,
          "time": 90,
          "velocity": 0.3937007874015748
        },
        {
          "duration": 0.25,
          "durationTicks": 192,
          "midi": 55,
          "name": "G3",
          "ticks": 69312,
          "time": 90.25,
          "velocity": 0.3937007874015748
        },
        {
          "duration": 0.25,
          "durationTicks": 192,
          "midi": 43,
          "name": "G2",
          "ticks": 69504,
          "time": 90.5,
          "velocity": 0.3937007874015748
        },
        {
          "duration": 0.25,
          "durationTicks": 192,
          "midi": 55,
          "name": "G3",
          "ticks": 69696,
          "time": 90.75,
          "velocity": 0.3937007874015748
        },
        {
          "duration": 0.25,
          "durationTicks": 192,
          "midi": 43,
          "name": "G2",
          "ticks": 69888,
          "time": 91,
          "velocity": 0.3937007874015748
        },
        {
          "duration": 0.25,
          "durationTicks": 192,
          "midi": 55,
          "name": "G3",
          "ticks": 70080,
          "time": 91.25,
          "velocity": 0.3937007874015748
        },
        {
          "duration": 0.25,
          "durationTicks": 192,
          "midi": 43,
          "name": "G2",
          "ticks": 70272,
          "time": 91.5,
          "velocity": 0.3937007874015748
        },
        {
          "duration": 0.25,
          "durationTicks": 192,
          "midi": 55,
          "name": "G3",
          "ticks": 70464,
          "time": 91.75,
          "velocity": 0.3937007874015748
        },
        {
          "duration": 0.25,
          "durationTicks": 192,
          "midi": 39,
          "name": "D#2",
          "ticks": 70656,
          "time": 92,
          "velocity": 0.3937007874015748
        },
        {
          "duration": 0.25,
          "durationTicks": 192,
          "midi": 51,
          "name": "D#3",
          "ticks": 70848,
          "time": 92.25,
          "velocity": 0.3937007874015748
        },
        {
          "duration": 0.25,
          "durationTicks": 192,
          "midi": 39,
          "name": "D#2",
          "ticks": 71040,
          "time": 92.5,
          "velocity": 0.3937007874015748
        },
        {
          "duration": 0.25,
          "durationTicks": 192,
          "midi": 51,
          "name": "D#3",
          "ticks": 71232,
          "time": 92.75,
          "velocity": 0.3937007874015748
        },
        {
          "duration": 0.25,
          "durationTicks": 192,
          "midi": 39,
          "name": "D#2",
          "ticks": 71424,
          "time": 93,
          "velocity": 0.3937007874015748
        },
        {
          "duration": 0.25,
          "durationTicks": 192,
          "midi": 51,
          "name": "D#3",
          "ticks": 71616,
          "time": 93.25,
          "velocity": 0.3937007874015748
        },
        {
          "duration": 0.25,
          "durationTicks": 192,
          "midi": 39,
          "name": "D#2",
          "ticks": 71808,
          "time": 93.5,
          "velocity": 0.3937007874015748
        },
        {
          "duration": 0.25,
          "durationTicks": 192,
          "midi": 51,
          "name": "D#3",
          "ticks": 72000,
          "time": 93.75,
          "velocity": 0.3937007874015748
        },
        {
          "duration": 0.25,
          "durationTicks": 192,
          "midi": 46,
          "name": "A#2",
          "ticks": 72192,
          "time": 94,
          "velocity": 0.3937007874015748
        },
        {
          "duration": 0.25,
          "durationTicks": 192,
          "midi": 58,
          "name": "A#3",
          "ticks": 72384,
          "time": 94.25,
          "velocity": 0.3937007874015748
        },
        {
          "duration": 0.25,
          "durationTicks": 192,
          "midi": 46,
          "name": "A#2",
          "ticks": 72576,
          "time": 94.5,
          "velocity": 0.3937007874015748
        },
        {
          "duration": 0.25,
          "durationTicks": 192,
          "midi": 58,
          "name": "A#3",
          "ticks": 72768,
          "time": 94.75,
          "velocity": 0.3937007874015748
        },
        {
          "duration": 0.25,
          "durationTicks": 192,
          "midi": 46,
          "name": "A#2",
          "ticks": 72960,
          "time": 95,
          "velocity": 0.3937007874015748
        },
        {
          "duration": 0.25,
          "durationTicks": 192,
          "midi": 58,
          "name": "A#3",
          "ticks": 73152,
          "time": 95.25,
          "velocity": 0.3937007874015748
        },
        {
          "duration": 0.25,
          "durationTicks": 192,
          "midi": 46,
          "name": "A#2",
          "ticks": 73344,
          "time": 95.5,
          "velocity": 0.3937007874015748
        },
        {
          "duration": 0.25,
          "durationTicks": 192,
          "midi": 58,
          "name": "A#3",
          "ticks": 73536,
          "time": 95.75,
          "velocity": 0.3937007874015748
        },
        {
          "duration": 0.25,
          "durationTicks": 192,
          "midi": 45,
          "name": "A2",
          "ticks": 73728,
          "time": 96,
          "velocity": 0.3937007874015748
        },
        {
          "duration": 0.25,
          "durationTicks": 192,
          "midi": 57,
          "name": "A3",
          "ticks": 73920,
          "time": 96.25,
          "velocity": 0.3937007874015748
        },
        {
          "duration": 0.25,
          "durationTicks": 192,
          "midi": 45,
          "name": "A2",
          "ticks": 74112,
          "time": 96.5,
          "velocity": 0.3937007874015748
        },
        {
          "duration": 0.25,
          "durationTicks": 192,
          "midi": 57,
          "name": "A3",
          "ticks": 74304,
          "time": 96.75,
          "velocity": 0.3937007874015748
        },
        {
          "duration": 0.25,
          "durationTicks": 192,
          "midi": 45,
          "name": "A2",
          "ticks": 74496,
          "time": 97,
          "velocity": 0.3937007874015748
        },
        {
          "duration": 0.25,
          "durationTicks": 192,
          "midi": 57,
          "name": "A3",
          "ticks": 74688,
          "time": 97.25,
          "velocity": 0.3937007874015748
        },
        {
          "duration": 0.25,
          "durationTicks": 192,
          "midi": 45,
          "name": "A2",
          "ticks": 74880,
          "time": 97.5,
          "velocity": 0.3937007874015748
        },
        {
          "duration": 0.25,
          "durationTicks": 192,
          "midi": 57,
          "name": "A3",
          "ticks": 75072,
          "time": 97.75,
          "velocity": 0.3937007874015748
        },
        {
          "duration": 0.25,
          "durationTicks": 192,
          "midi": 43,
          "name": "G2",
          "ticks": 75264,
          "time": 98,
          "velocity": 0.3937007874015748
        },
        {
          "duration": 0.25,
          "durationTicks": 192,
          "midi": 55,
          "name": "G3",
          "ticks": 75456,
          "time": 98.25,
          "velocity": 0.3937007874015748
        },
        {
          "duration": 0.25,
          "durationTicks": 192,
          "midi": 43,
          "name": "G2",
          "ticks": 75648,
          "time": 98.5,
          "velocity": 0.3937007874015748
        },
        {
          "duration": 0.25,
          "durationTicks": 192,
          "midi": 55,
          "name": "G3",
          "ticks": 75840,
          "time": 98.75,
          "velocity": 0.3937007874015748
        },
        {
          "duration": 0.25,
          "durationTicks": 192,
          "midi": 43,
          "name": "G2",
          "ticks": 76032,
          "time": 99,
          "velocity": 0.3937007874015748
        },
        {
          "duration": 0.25,
          "durationTicks": 192,
          "midi": 55,
          "name": "G3",
          "ticks": 76224,
          "time": 99.25,
          "velocity": 0.3937007874015748
        },
        {
          "duration": 0.25,
          "durationTicks": 192,
          "midi": 43,
          "name": "G2",
          "ticks": 76416,
          "time": 99.5,
          "velocity": 0.3937007874015748
        },
        {
          "duration": 0.25,
          "durationTicks": 192,
          "midi": 55,
          "name": "G3",
          "ticks": 76608,
          "time": 99.75,
          "velocity": 0.3937007874015748
        },
        {
          "duration": 0.25,
          "durationTicks": 192,
          "midi": 39,
          "name": "D#2",
          "ticks": 76800,
          "time": 100,
          "velocity": 0.3937007874015748
        },
        {
          "duration": 0.25,
          "durationTicks": 192,
          "midi": 51,
          "name": "D#3",
          "ticks": 76992,
          "time": 100.25,
          "velocity": 0.3937007874015748
        },
        {
          "duration": 0.25,
          "durationTicks": 192,
          "midi": 39,
          "name": "D#2",
          "ticks": 77184,
          "time": 100.5,
          "velocity": 0.3937007874015748
        },
        {
          "duration": 0.25,
          "durationTicks": 192,
          "midi": 51,
          "name": "D#3",
          "ticks": 77376,
          "time": 100.75,
          "velocity": 0.3937007874015748
        },
        {
          "duration": 0.25,
          "durationTicks": 192,
          "midi": 39,
          "name": "D#2",
          "ticks": 77568,
          "time": 101,
          "velocity": 0.3937007874015748
        },
        {
          "duration": 0.25,
          "durationTicks": 192,
          "midi": 51,
          "name": "D#3",
          "ticks": 77760,
          "time": 101.25,
          "velocity": 0.3937007874015748
        },
        {
          "duration": 0.25,
          "durationTicks": 192,
          "midi": 39,
          "name": "D#2",
          "ticks": 77952,
          "time": 101.5,
          "velocity": 0.3937007874015748
        },
        {
          "duration": 0.25,
          "durationTicks": 192,
          "midi": 51,
          "name": "D#3",
          "ticks": 78144,
          "time": 101.75,
          "velocity": 0.3937007874015748
        },
        {
          "duration": 0.25,
          "durationTicks": 192,
          "midi": 46,
          "name": "A#2",
          "ticks": 78336,
          "time": 102,
          "velocity": 0.3937007874015748
        },
        {
          "duration": 0.25,
          "durationTicks": 192,
          "midi": 58,
          "name": "A#3",
          "ticks": 78528,
          "time": 102.25,
          "velocity": 0.3937007874015748
        },
        {
          "duration": 0.25,
          "durationTicks": 192,
          "midi": 46,
          "name": "A#2",
          "ticks": 78720,
          "time": 102.5,
          "velocity": 0.3937007874015748
        },
        {
          "duration": 0.25,
          "durationTicks": 192,
          "midi": 58,
          "name": "A#3",
          "ticks": 78912,
          "time": 102.75,
          "velocity": 0.3937007874015748
        },
        {
          "duration": 0.25,
          "durationTicks": 192,
          "midi": 46,
          "name": "A#2",
          "ticks": 79104,
          "time": 103,
          "velocity": 0.3937007874015748
        },
        {
          "duration": 0.25,
          "durationTicks": 192,
          "midi": 58,
          "name": "A#3",
          "ticks": 79296,
          "time": 103.25,
          "velocity": 0.3937007874015748
        },
        {
          "duration": 0.25,
          "durationTicks": 192,
          "midi": 46,
          "name": "A#2",
          "ticks": 79488,
          "time": 103.5,
          "velocity": 0.3937007874015748
        },
        {
          "duration": 0.25,
          "durationTicks": 192,
          "midi": 58,
          "name": "A#3",
          "ticks": 79680,
          "time": 103.75,
          "velocity": 0.3937007874015748
        },
        {
          "duration": 0.25,
          "durationTicks": 192,
          "midi": 45,
          "name": "A2",
          "ticks": 79872,
          "time": 104,
          "velocity": 0.3937007874015748
        },
        {
          "duration": 0.25,
          "durationTicks": 192,
          "midi": 57,
          "name": "A3",
          "ticks": 80064,
          "time": 104.25,
          "velocity": 0.3937007874015748
        },
        {
          "duration": 0.25,
          "durationTicks": 192,
          "midi": 45,
          "name": "A2",
          "ticks": 80256,
          "time": 104.5,
          "velocity": 0.3937007874015748
        },
        {
          "duration": 0.25,
          "durationTicks": 192,
          "midi": 57,
          "name": "A3",
          "ticks": 80448,
          "time": 104.75,
          "velocity": 0.3937007874015748
        },
        {
          "duration": 0.25,
          "durationTicks": 192,
          "midi": 45,
          "name": "A2",
          "ticks": 80640,
          "time": 105,
          "velocity": 0.3937007874015748
        },
        {
          "duration": 0.25,
          "durationTicks": 192,
          "midi": 57,
          "name": "A3",
          "ticks": 80832,
          "time": 105.25,
          "velocity": 0.3937007874015748
        },
        {
          "duration": 0.25,
          "durationTicks": 192,
          "midi": 45,
          "name": "A2",
          "ticks": 81024,
          "time": 105.5,
          "velocity": 0.3937007874015748
        },
        {
          "duration": 0.25,
          "durationTicks": 192,
          "midi": 57,
          "name": "A3",
          "ticks": 81216,
          "time": 105.75,
          "velocity": 0.3937007874015748
        },
        {
          "duration": 0.25,
          "durationTicks": 192,
          "midi": 43,
          "name": "G2",
          "ticks": 81408,
          "time": 106,
          "velocity": 0.3937007874015748
        },
        {
          "duration": 0.25,
          "durationTicks": 192,
          "midi": 55,
          "name": "G3",
          "ticks": 81600,
          "time": 106.25,
          "velocity": 0.3937007874015748
        },
        {
          "duration": 0.25,
          "durationTicks": 192,
          "midi": 43,
          "name": "G2",
          "ticks": 81792,
          "time": 106.5,
          "velocity": 0.3937007874015748
        },
        {
          "duration": 0.25,
          "durationTicks": 192,
          "midi": 55,
          "name": "G3",
          "ticks": 81984,
          "time": 106.75,
          "velocity": 0.3937007874015748
        },
        {
          "duration": 0.25,
          "durationTicks": 192,
          "midi": 43,
          "name": "G2",
          "ticks": 82176,
          "time": 107,
          "velocity": 0.3937007874015748
        },
        {
          "duration": 0.25,
          "durationTicks": 192,
          "midi": 55,
          "name": "G3",
          "ticks": 82368,
          "time": 107.25,
          "velocity": 0.3937007874015748
        },
        {
          "duration": 0.25,
          "durationTicks": 192,
          "midi": 43,
          "name": "G2",
          "ticks": 82560,
          "time": 107.5,
          "velocity": 0.3937007874015748
        },
        {
          "duration": 0.25,
          "durationTicks": 192,
          "midi": 55,
          "name": "G3",
          "ticks": 82752,
          "time": 107.75,
          "velocity": 0.3937007874015748
        },
        {
          "duration": 0.25,
          "durationTicks": 192,
          "midi": 39,
          "name": "D#2",
          "ticks": 82944,
          "time": 108,
          "velocity": 0.3937007874015748
        },
        {
          "duration": 0.25,
          "durationTicks": 192,
          "midi": 51,
          "name": "D#3",
          "ticks": 83136,
          "time": 108.25,
          "velocity": 0.3937007874015748
        },
        {
          "duration": 0.25,
          "durationTicks": 192,
          "midi": 39,
          "name": "D#2",
          "ticks": 83328,
          "time": 108.5,
          "velocity": 0.3937007874015748
        },
        {
          "duration": 0.25,
          "durationTicks": 192,
          "midi": 51,
          "name": "D#3",
          "ticks": 83520,
          "time": 108.75,
          "velocity": 0.3937007874015748
        },
        {
          "duration": 0.25,
          "durationTicks": 192,
          "midi": 39,
          "name": "D#2",
          "ticks": 83712,
          "time": 109,
          "velocity": 0.3937007874015748
        },
        {
          "duration": 0.25,
          "durationTicks": 192,
          "midi": 51,
          "name": "D#3",
          "ticks": 83904,
          "time": 109.25,
          "velocity": 0.3937007874015748
        },
        {
          "duration": 0.25,
          "durationTicks": 192,
          "midi": 39,
          "name": "D#2",
          "ticks": 84096,
          "time": 109.5,
          "velocity": 0.3937007874015748
        },
        {
          "duration": 0.25,
          "durationTicks": 192,
          "midi": 51,
          "name": "D#3",
          "ticks": 84288,
          "time": 109.75,
          "velocity": 0.3937007874015748
        },
        {
          "duration": 0.25,
          "durationTicks": 192,
          "midi": 46,
          "name": "A#2",
          "ticks": 84480,
          "time": 110,
          "velocity": 0.3937007874015748
        },
        {
          "duration": 0.25,
          "durationTicks": 192,
          "midi": 58,
          "name": "A#3",
          "ticks": 84672,
          "time": 110.25,
          "velocity": 0.3937007874015748
        },
        {
          "duration": 0.25,
          "durationTicks": 192,
          "midi": 46,
          "name": "A#2",
          "ticks": 84864,
          "time": 110.5,
          "velocity": 0.3937007874015748
        },
        {
          "duration": 0.25,
          "durationTicks": 192,
          "midi": 58,
          "name": "A#3",
          "ticks": 85056,
          "time": 110.75,
          "velocity": 0.3937007874015748
        },
        {
          "duration": 0.25,
          "durationTicks": 192,
          "midi": 46,
          "name": "A#2",
          "ticks": 85248,
          "time": 111,
          "velocity": 0.3937007874015748
        },
        {
          "duration": 0.25,
          "durationTicks": 192,
          "midi": 58,
          "name": "A#3",
          "ticks": 85440,
          "time": 111.25,
          "velocity": 0.3937007874015748
        },
        {
          "duration": 0.25,
          "durationTicks": 192,
          "midi": 46,
          "name": "A#2",
          "ticks": 85632,
          "time": 111.5,
          "velocity": 0.3937007874015748
        },
        {
          "duration": 0.25,
          "durationTicks": 192,
          "midi": 58,
          "name": "A#3",
          "ticks": 85824,
          "time": 111.75,
          "velocity": 0.3937007874015748
        },
        {
          "duration": 0.25,
          "durationTicks": 192,
          "midi": 45,
          "name": "A2",
          "ticks": 86016,
          "time": 112,
          "velocity": 0.3937007874015748
        },
        {
          "duration": 0.25,
          "durationTicks": 192,
          "midi": 57,
          "name": "A3",
          "ticks": 86208,
          "time": 112.25,
          "velocity": 0.3937007874015748
        },
        {
          "duration": 0.25,
          "durationTicks": 192,
          "midi": 45,
          "name": "A2",
          "ticks": 86400,
          "time": 112.5,
          "velocity": 0.3937007874015748
        },
        {
          "duration": 0.25,
          "durationTicks": 192,
          "midi": 57,
          "name": "A3",
          "ticks": 86592,
          "time": 112.75,
          "velocity": 0.3937007874015748
        },
        {
          "duration": 0.25,
          "durationTicks": 192,
          "midi": 45,
          "name": "A2",
          "ticks": 86784,
          "time": 113,
          "velocity": 0.3937007874015748
        },
        {
          "duration": 0.25,
          "durationTicks": 192,
          "midi": 57,
          "name": "A3",
          "ticks": 86976,
          "time": 113.25,
          "velocity": 0.3937007874015748
        },
        {
          "duration": 0.25,
          "durationTicks": 192,
          "midi": 45,
          "name": "A2",
          "ticks": 87168,
          "time": 113.5,
          "velocity": 0.3937007874015748
        },
        {
          "duration": 0.25,
          "durationTicks": 192,
          "midi": 57,
          "name": "A3",
          "ticks": 87360,
          "time": 113.75,
          "velocity": 0.3937007874015748
        },
        {
          "duration": 2,
          "durationTicks": 1536,
          "midi": 43,
          "name": "G2",
          "ticks": 87552,
          "time": 114,
          "velocity": 0.3937007874015748
        },
        {
          "duration": 2,
          "durationTicks": 1536,
          "midi": 55,
          "name": "G3",
          "ticks": 87552,
          "time": 114,
          "velocity": 0.3937007874015748
        },
        {
          "duration": 2,
          "durationTicks": 1536,
          "midi": 39,
          "name": "D#2",
          "ticks": 89088,
          "time": 116,
          "velocity": 0.3937007874015748
        },
        {
          "duration": 2,
          "durationTicks": 1536,
          "midi": 51,
          "name": "D#3",
          "ticks": 89088,
          "time": 116,
          "velocity": 0.3937007874015748
        },
        {
          "duration": 2,
          "durationTicks": 1536,
          "midi": 46,
          "name": "A#2",
          "ticks": 90624,
          "time": 118,
          "velocity": 0.3937007874015748
        },
        {
          "duration": 2,
          "durationTicks": 1536,
          "midi": 58,
          "name": "A#3",
          "ticks": 90624,
          "time": 118,
          "velocity": 0.3937007874015748
        },
        {
          "duration": 2,
          "durationTicks": 1536,
          "midi": 57,
          "name": "A3",
          "ticks": 92160,
          "time": 120,
          "velocity": 0.3937007874015748
        },
        {
          "duration": 2,
          "durationTicks": 1536,
          "midi": 45,
          "name": "A2",
          "ticks": 92160,
          "time": 120,
          "velocity": 0.3937007874015748
        },
        {
          "duration": 2,
          "durationTicks": 1536,
          "midi": 43,
          "name": "G2",
          "ticks": 93696,
          "time": 122,
          "velocity": 0.3937007874015748
        },
        {
          "duration": 2,
          "durationTicks": 1536,
          "midi": 55,
          "name": "G3",
          "ticks": 93696,
          "time": 122,
          "velocity": 0.3937007874015748
        },
        {
          "duration": 2,
          "durationTicks": 1536,
          "midi": 51,
          "name": "D#3",
          "ticks": 95232,
          "time": 124,
          "velocity": 0.3937007874015748
        },
        {
          "duration": 2,
          "durationTicks": 1536,
          "midi": 39,
          "name": "D#2",
          "ticks": 95232,
          "time": 124,
          "velocity": 0.3937007874015748
        },
        {
          "duration": 2,
          "durationTicks": 1536,
          "midi": 58,
          "name": "A#3",
          "ticks": 96768,
          "time": 126,
          "velocity": 0.3937007874015748
        },
        {
          "duration": 2,
          "durationTicks": 1536,
          "midi": 46,
          "name": "A#2",
          "ticks": 96768,
          "time": 126,
          "velocity": 0.3937007874015748
        },
        {
          "duration": 2,
          "durationTicks": 1536,
          "midi": 57,
          "name": "A3",
          "ticks": 98304,
          "time": 128,
          "velocity": 0.3937007874015748
        },
        {
          "duration": 2,
          "durationTicks": 1536,
          "midi": 45,
          "name": "A2",
          "ticks": 98304,
          "time": 128,
          "velocity": 0.3937007874015748
        },
        {
          "duration": 2,
          "durationTicks": 1536,
          "midi": 43,
          "name": "G2",
          "ticks": 99840,
          "time": 130,
          "velocity": 0.3937007874015748
        },
        {
          "duration": 2,
          "durationTicks": 1536,
          "midi": 55,
          "name": "G3",
          "ticks": 99840,
          "time": 130,
          "velocity": 0.3937007874015748
        },
        {
          "duration": 2,
          "durationTicks": 1536,
          "midi": 51,
          "name": "D#3",
          "ticks": 101376,
          "time": 132,
          "velocity": 0.3937007874015748
        },
        {
          "duration": 2,
          "durationTicks": 1536,
          "midi": 39,
          "name": "D#2",
          "ticks": 101376,
          "time": 132,
          "velocity": 0.3937007874015748
        },
        {
          "duration": 2,
          "durationTicks": 1536,
          "midi": 58,
          "name": "A#3",
          "ticks": 102912,
          "time": 134,
          "velocity": 0.3937007874015748
        },
        {
          "duration": 2,
          "durationTicks": 1536,
          "midi": 46,
          "name": "A#2",
          "ticks": 102912,
          "time": 134,
          "velocity": 0.3937007874015748
        },
        {
          "duration": 2,
          "durationTicks": 1536,
          "midi": 57,
          "name": "A3",
          "ticks": 104448,
          "time": 136,
          "velocity": 0.3937007874015748
        },
        {
          "duration": 2,
          "durationTicks": 1536,
          "midi": 45,
          "name": "A2",
          "ticks": 104448,
          "time": 136,
          "velocity": 0.3937007874015748
        },
        {
          "duration": 2,
          "durationTicks": 1536,
          "midi": 55,
          "name": "G3",
          "ticks": 105984,
          "time": 138,
          "velocity": 0.3937007874015748
        },
        {
          "duration": 2,
          "durationTicks": 1536,
          "midi": 43,
          "name": "G2",
          "ticks": 105984,
          "time": 138,
          "velocity": 0.3937007874015748
        },
        {
          "duration": 2,
          "durationTicks": 1536,
          "midi": 39,
          "name": "D#2",
          "ticks": 107520,
          "time": 140,
          "velocity": 0.3937007874015748
        },
        {
          "duration": 2,
          "durationTicks": 1536,
          "midi": 51,
          "name": "D#3",
          "ticks": 107520,
          "time": 140,
          "velocity": 0.3937007874015748
        },
        {
          "duration": 2,
          "durationTicks": 1536,
          "midi": 46,
          "name": "A#2",
          "ticks": 109056,
          "time": 142,
          "velocity": 0.3937007874015748
        },
        {
          "duration": 2,
          "durationTicks": 1536,
          "midi": 58,
          "name": "A#3",
          "ticks": 109056,
          "time": 142,
          "velocity": 0.3937007874015748
        },
        {
          "duration": 2,
          "durationTicks": 1536,
          "midi": 57,
          "name": "A3",
          "ticks": 110592,
          "time": 144,
          "velocity": 0.3937007874015748
        },
        {
          "duration": 2,
          "durationTicks": 1536,
          "midi": 45,
          "name": "A2",
          "ticks": 110592,
          "time": 144,
          "velocity": 0.3937007874015748
        },
        {
          "duration": 0.25,
          "durationTicks": 192,
          "midi": 43,
          "name": "G2",
          "ticks": 112128,
          "time": 146,
          "velocity": 0.3937007874015748
        },
        {
          "duration": 0.25,
          "durationTicks": 192,
          "midi": 55,
          "name": "G3",
          "ticks": 112320,
          "time": 146.25,
          "velocity": 0.3937007874015748
        },
        {
          "duration": 0.25,
          "durationTicks": 192,
          "midi": 43,
          "name": "G2",
          "ticks": 112512,
          "time": 146.5,
          "velocity": 0.3937007874015748
        },
        {
          "duration": 0.25,
          "durationTicks": 192,
          "midi": 55,
          "name": "G3",
          "ticks": 112704,
          "time": 146.75,
          "velocity": 0.3937007874015748
        },
        {
          "duration": 0.25,
          "durationTicks": 192,
          "midi": 43,
          "name": "G2",
          "ticks": 112896,
          "time": 147,
          "velocity": 0.3937007874015748
        },
        {
          "duration": 0.25,
          "durationTicks": 192,
          "midi": 55,
          "name": "G3",
          "ticks": 113088,
          "time": 147.25,
          "velocity": 0.3937007874015748
        },
        {
          "duration": 0.25,
          "durationTicks": 192,
          "midi": 43,
          "name": "G2",
          "ticks": 113280,
          "time": 147.5,
          "velocity": 0.3937007874015748
        },
        {
          "duration": 0.25,
          "durationTicks": 192,
          "midi": 55,
          "name": "G3",
          "ticks": 113472,
          "time": 147.75,
          "velocity": 0.3937007874015748
        },
        {
          "duration": 0.25,
          "durationTicks": 192,
          "midi": 39,
          "name": "D#2",
          "ticks": 113664,
          "time": 148,
          "velocity": 0.3937007874015748
        },
        {
          "duration": 0.25,
          "durationTicks": 192,
          "midi": 51,
          "name": "D#3",
          "ticks": 113856,
          "time": 148.25,
          "velocity": 0.3937007874015748
        },
        {
          "duration": 0.25,
          "durationTicks": 192,
          "midi": 39,
          "name": "D#2",
          "ticks": 114048,
          "time": 148.5,
          "velocity": 0.3937007874015748
        },
        {
          "duration": 0.25,
          "durationTicks": 192,
          "midi": 51,
          "name": "D#3",
          "ticks": 114240,
          "time": 148.75,
          "velocity": 0.3937007874015748
        },
        {
          "duration": 0.25,
          "durationTicks": 192,
          "midi": 39,
          "name": "D#2",
          "ticks": 114432,
          "time": 149,
          "velocity": 0.3937007874015748
        },
        {
          "duration": 0.25,
          "durationTicks": 192,
          "midi": 51,
          "name": "D#3",
          "ticks": 114624,
          "time": 149.25,
          "velocity": 0.3937007874015748
        },
        {
          "duration": 0.25,
          "durationTicks": 192,
          "midi": 39,
          "name": "D#2",
          "ticks": 114816,
          "time": 149.5,
          "velocity": 0.3937007874015748
        },
        {
          "duration": 0.25,
          "durationTicks": 192,
          "midi": 51,
          "name": "D#3",
          "ticks": 115008,
          "time": 149.75,
          "velocity": 0.3937007874015748
        },
        {
          "duration": 0.25,
          "durationTicks": 192,
          "midi": 46,
          "name": "A#2",
          "ticks": 115200,
          "time": 150,
          "velocity": 0.3937007874015748
        },
        {
          "duration": 0.25,
          "durationTicks": 192,
          "midi": 58,
          "name": "A#3",
          "ticks": 115392,
          "time": 150.25,
          "velocity": 0.3937007874015748
        },
        {
          "duration": 0.25,
          "durationTicks": 192,
          "midi": 46,
          "name": "A#2",
          "ticks": 115584,
          "time": 150.5,
          "velocity": 0.3937007874015748
        },
        {
          "duration": 0.25,
          "durationTicks": 192,
          "midi": 58,
          "name": "A#3",
          "ticks": 115776,
          "time": 150.75,
          "velocity": 0.3937007874015748
        },
        {
          "duration": 0.25,
          "durationTicks": 192,
          "midi": 46,
          "name": "A#2",
          "ticks": 115968,
          "time": 151,
          "velocity": 0.3937007874015748
        },
        {
          "duration": 0.25,
          "durationTicks": 192,
          "midi": 58,
          "name": "A#3",
          "ticks": 116160,
          "time": 151.25,
          "velocity": 0.3937007874015748
        },
        {
          "duration": 0.25,
          "durationTicks": 192,
          "midi": 46,
          "name": "A#2",
          "ticks": 116352,
          "time": 151.5,
          "velocity": 0.3937007874015748
        },
        {
          "duration": 0.25,
          "durationTicks": 192,
          "midi": 58,
          "name": "A#3",
          "ticks": 116544,
          "time": 151.75,
          "velocity": 0.3937007874015748
        },
        {
          "duration": 0.25,
          "durationTicks": 192,
          "midi": 45,
          "name": "A2",
          "ticks": 116736,
          "time": 152,
          "velocity": 0.3937007874015748
        },
        {
          "duration": 0.25,
          "durationTicks": 192,
          "midi": 57,
          "name": "A3",
          "ticks": 116928,
          "time": 152.25,
          "velocity": 0.3937007874015748
        },
        {
          "duration": 0.25,
          "durationTicks": 192,
          "midi": 45,
          "name": "A2",
          "ticks": 117120,
          "time": 152.5,
          "velocity": 0.3937007874015748
        },
        {
          "duration": 0.25,
          "durationTicks": 192,
          "midi": 57,
          "name": "A3",
          "ticks": 117312,
          "time": 152.75,
          "velocity": 0.3937007874015748
        },
        {
          "duration": 0.25,
          "durationTicks": 192,
          "midi": 45,
          "name": "A2",
          "ticks": 117504,
          "time": 153,
          "velocity": 0.3937007874015748
        },
        {
          "duration": 0.25,
          "durationTicks": 192,
          "midi": 57,
          "name": "A3",
          "ticks": 117696,
          "time": 153.25,
          "velocity": 0.3937007874015748
        },
        {
          "duration": 0.25,
          "durationTicks": 192,
          "midi": 45,
          "name": "A2",
          "ticks": 117888,
          "time": 153.5,
          "velocity": 0.3937007874015748
        },
        {
          "duration": 0.25,
          "durationTicks": 192,
          "midi": 57,
          "name": "A3",
          "ticks": 118080,
          "time": 153.75,
          "velocity": 0.3937007874015748
        },
        {
          "duration": 0.25,
          "durationTicks": 192,
          "midi": 43,
          "name": "G2",
          "ticks": 118272,
          "time": 154,
          "velocity": 0.3937007874015748
        },
        {
          "duration": 0.25,
          "durationTicks": 192,
          "midi": 55,
          "name": "G3",
          "ticks": 118464,
          "time": 154.25,
          "velocity": 0.3937007874015748
        },
        {
          "duration": 0.25,
          "durationTicks": 192,
          "midi": 43,
          "name": "G2",
          "ticks": 118656,
          "time": 154.5,
          "velocity": 0.3937007874015748
        },
        {
          "duration": 0.25,
          "durationTicks": 192,
          "midi": 55,
          "name": "G3",
          "ticks": 118848,
          "time": 154.75,
          "velocity": 0.3937007874015748
        },
        {
          "duration": 0.25,
          "durationTicks": 192,
          "midi": 43,
          "name": "G2",
          "ticks": 119040,
          "time": 155,
          "velocity": 0.3937007874015748
        },
        {
          "duration": 0.25,
          "durationTicks": 192,
          "midi": 55,
          "name": "G3",
          "ticks": 119232,
          "time": 155.25,
          "velocity": 0.3937007874015748
        },
        {
          "duration": 0.25,
          "durationTicks": 192,
          "midi": 43,
          "name": "G2",
          "ticks": 119424,
          "time": 155.5,
          "velocity": 0.3937007874015748
        },
        {
          "duration": 0.25,
          "durationTicks": 192,
          "midi": 55,
          "name": "G3",
          "ticks": 119616,
          "time": 155.75,
          "velocity": 0.3937007874015748
        },
        {
          "duration": 0.25,
          "durationTicks": 192,
          "midi": 39,
          "name": "D#2",
          "ticks": 119808,
          "time": 156,
          "velocity": 0.3937007874015748
        },
        {
          "duration": 0.25,
          "durationTicks": 192,
          "midi": 51,
          "name": "D#3",
          "ticks": 120000,
          "time": 156.25,
          "velocity": 0.3937007874015748
        },
        {
          "duration": 0.25,
          "durationTicks": 192,
          "midi": 39,
          "name": "D#2",
          "ticks": 120192,
          "time": 156.5,
          "velocity": 0.3937007874015748
        },
        {
          "duration": 0.25,
          "durationTicks": 192,
          "midi": 51,
          "name": "D#3",
          "ticks": 120384,
          "time": 156.75,
          "velocity": 0.3937007874015748
        },
        {
          "duration": 0.25,
          "durationTicks": 192,
          "midi": 39,
          "name": "D#2",
          "ticks": 120576,
          "time": 157,
          "velocity": 0.3937007874015748
        },
        {
          "duration": 0.25,
          "durationTicks": 192,
          "midi": 51,
          "name": "D#3",
          "ticks": 120768,
          "time": 157.25,
          "velocity": 0.3937007874015748
        },
        {
          "duration": 0.25,
          "durationTicks": 192,
          "midi": 39,
          "name": "D#2",
          "ticks": 120960,
          "time": 157.5,
          "velocity": 0.3937007874015748
        },
        {
          "duration": 0.25,
          "durationTicks": 192,
          "midi": 51,
          "name": "D#3",
          "ticks": 121152,
          "time": 157.75,
          "velocity": 0.3937007874015748
        },
        {
          "duration": 0.25,
          "durationTicks": 192,
          "midi": 46,
          "name": "A#2",
          "ticks": 121344,
          "time": 158,
          "velocity": 0.3937007874015748
        },
        {
          "duration": 0.25,
          "durationTicks": 192,
          "midi": 58,
          "name": "A#3",
          "ticks": 121536,
          "time": 158.25,
          "velocity": 0.3937007874015748
        },
        {
          "duration": 0.25,
          "durationTicks": 192,
          "midi": 46,
          "name": "A#2",
          "ticks": 121728,
          "time": 158.5,
          "velocity": 0.3937007874015748
        },
        {
          "duration": 0.25,
          "durationTicks": 192,
          "midi": 58,
          "name": "A#3",
          "ticks": 121920,
          "time": 158.75,
          "velocity": 0.3937007874015748
        },
        {
          "duration": 0.25,
          "durationTicks": 192,
          "midi": 46,
          "name": "A#2",
          "ticks": 122112,
          "time": 159,
          "velocity": 0.3937007874015748
        },
        {
          "duration": 0.25,
          "durationTicks": 192,
          "midi": 58,
          "name": "A#3",
          "ticks": 122304,
          "time": 159.25,
          "velocity": 0.3937007874015748
        },
        {
          "duration": 0.25,
          "durationTicks": 192,
          "midi": 46,
          "name": "A#2",
          "ticks": 122496,
          "time": 159.5,
          "velocity": 0.3937007874015748
        },
        {
          "duration": 0.25,
          "durationTicks": 192,
          "midi": 58,
          "name": "A#3",
          "ticks": 122688,
          "time": 159.75,
          "velocity": 0.3937007874015748
        },
        {
          "duration": 0.25,
          "durationTicks": 192,
          "midi": 45,
          "name": "A2",
          "ticks": 122880,
          "time": 160,
          "velocity": 0.3937007874015748
        },
        {
          "duration": 0.25,
          "durationTicks": 192,
          "midi": 57,
          "name": "A3",
          "ticks": 123072,
          "time": 160.25,
          "velocity": 0.3937007874015748
        },
        {
          "duration": 0.25,
          "durationTicks": 192,
          "midi": 45,
          "name": "A2",
          "ticks": 123264,
          "time": 160.5,
          "velocity": 0.3937007874015748
        },
        {
          "duration": 0.25,
          "durationTicks": 192,
          "midi": 57,
          "name": "A3",
          "ticks": 123456,
          "time": 160.75,
          "velocity": 0.3937007874015748
        },
        {
          "duration": 0.25,
          "durationTicks": 192,
          "midi": 45,
          "name": "A2",
          "ticks": 123648,
          "time": 161,
          "velocity": 0.3937007874015748
        },
        {
          "duration": 0.25,
          "durationTicks": 192,
          "midi": 57,
          "name": "A3",
          "ticks": 123840,
          "time": 161.25,
          "velocity": 0.3937007874015748
        },
        {
          "duration": 0.25,
          "durationTicks": 192,
          "midi": 45,
          "name": "A2",
          "ticks": 124032,
          "time": 161.5,
          "velocity": 0.3937007874015748
        },
        {
          "duration": 0.25,
          "durationTicks": 192,
          "midi": 57,
          "name": "A3",
          "ticks": 124224,
          "time": 161.75,
          "velocity": 0.3937007874015748
        },
        {
          "duration": 0.25,
          "durationTicks": 192,
          "midi": 43,
          "name": "G2",
          "ticks": 124416,
          "time": 162,
          "velocity": 0.3937007874015748
        },
        {
          "duration": 0.25,
          "durationTicks": 192,
          "midi": 55,
          "name": "G3",
          "ticks": 124608,
          "time": 162.25,
          "velocity": 0.3937007874015748
        },
        {
          "duration": 0.25,
          "durationTicks": 192,
          "midi": 43,
          "name": "G2",
          "ticks": 124800,
          "time": 162.5,
          "velocity": 0.3937007874015748
        },
        {
          "duration": 0.25,
          "durationTicks": 192,
          "midi": 55,
          "name": "G3",
          "ticks": 124992,
          "time": 162.75,
          "velocity": 0.3937007874015748
        },
        {
          "duration": 0.25,
          "durationTicks": 192,
          "midi": 43,
          "name": "G2",
          "ticks": 125184,
          "time": 163,
          "velocity": 0.3937007874015748
        },
        {
          "duration": 0.25,
          "durationTicks": 192,
          "midi": 55,
          "name": "G3",
          "ticks": 125376,
          "time": 163.25,
          "velocity": 0.3937007874015748
        },
        {
          "duration": 0.25,
          "durationTicks": 192,
          "midi": 43,
          "name": "G2",
          "ticks": 125568,
          "time": 163.5,
          "velocity": 0.3937007874015748
        },
        {
          "duration": 0.25,
          "durationTicks": 192,
          "midi": 55,
          "name": "G3",
          "ticks": 125760,
          "time": 163.75,
          "velocity": 0.3937007874015748
        },
        {
          "duration": 0.25,
          "durationTicks": 192,
          "midi": 39,
          "name": "D#2",
          "ticks": 125952,
          "time": 164,
          "velocity": 0.3937007874015748
        },
        {
          "duration": 0.25,
          "durationTicks": 192,
          "midi": 51,
          "name": "D#3",
          "ticks": 126144,
          "time": 164.25,
          "velocity": 0.3937007874015748
        },
        {
          "duration": 0.25,
          "durationTicks": 192,
          "midi": 39,
          "name": "D#2",
          "ticks": 126336,
          "time": 164.5,
          "velocity": 0.3937007874015748
        },
        {
          "duration": 0.25,
          "durationTicks": 192,
          "midi": 51,
          "name": "D#3",
          "ticks": 126528,
          "time": 164.75,
          "velocity": 0.3937007874015748
        },
        {
          "duration": 0.25,
          "durationTicks": 192,
          "midi": 39,
          "name": "D#2",
          "ticks": 126720,
          "time": 165,
          "velocity": 0.3937007874015748
        },
        {
          "duration": 0.25,
          "durationTicks": 192,
          "midi": 51,
          "name": "D#3",
          "ticks": 126912,
          "time": 165.25,
          "velocity": 0.3937007874015748
        },
        {
          "duration": 0.25,
          "durationTicks": 192,
          "midi": 39,
          "name": "D#2",
          "ticks": 127104,
          "time": 165.5,
          "velocity": 0.3937007874015748
        },
        {
          "duration": 0.25,
          "durationTicks": 192,
          "midi": 51,
          "name": "D#3",
          "ticks": 127296,
          "time": 165.75,
          "velocity": 0.3937007874015748
        },
        {
          "duration": 0.25,
          "durationTicks": 192,
          "midi": 46,
          "name": "A#2",
          "ticks": 127488,
          "time": 166,
          "velocity": 0.3937007874015748
        },
        {
          "duration": 0.25,
          "durationTicks": 192,
          "midi": 58,
          "name": "A#3",
          "ticks": 127680,
          "time": 166.25,
          "velocity": 0.3937007874015748
        },
        {
          "duration": 0.25,
          "durationTicks": 192,
          "midi": 46,
          "name": "A#2",
          "ticks": 127872,
          "time": 166.5,
          "velocity": 0.3937007874015748
        },
        {
          "duration": 0.25,
          "durationTicks": 192,
          "midi": 58,
          "name": "A#3",
          "ticks": 128064,
          "time": 166.75,
          "velocity": 0.3937007874015748
        },
        {
          "duration": 0.25,
          "durationTicks": 192,
          "midi": 46,
          "name": "A#2",
          "ticks": 128256,
          "time": 167,
          "velocity": 0.3937007874015748
        },
        {
          "duration": 0.25,
          "durationTicks": 192,
          "midi": 58,
          "name": "A#3",
          "ticks": 128448,
          "time": 167.25,
          "velocity": 0.3937007874015748
        },
        {
          "duration": 0.25,
          "durationTicks": 192,
          "midi": 46,
          "name": "A#2",
          "ticks": 128640,
          "time": 167.5,
          "velocity": 0.3937007874015748
        },
        {
          "duration": 0.25,
          "durationTicks": 192,
          "midi": 58,
          "name": "A#3",
          "ticks": 128832,
          "time": 167.75,
          "velocity": 0.3937007874015748
        },
        {
          "duration": 0.25,
          "durationTicks": 192,
          "midi": 45,
          "name": "A2",
          "ticks": 129024,
          "time": 168,
          "velocity": 0.3937007874015748
        },
        {
          "duration": 0.25,
          "durationTicks": 192,
          "midi": 57,
          "name": "A3",
          "ticks": 129216,
          "time": 168.25,
          "velocity": 0.3937007874015748
        },
        {
          "duration": 0.25,
          "durationTicks": 192,
          "midi": 45,
          "name": "A2",
          "ticks": 129408,
          "time": 168.5,
          "velocity": 0.3937007874015748
        },
        {
          "duration": 0.25,
          "durationTicks": 192,
          "midi": 57,
          "name": "A3",
          "ticks": 129600,
          "time": 168.75,
          "velocity": 0.3937007874015748
        },
        {
          "duration": 0.25,
          "durationTicks": 192,
          "midi": 45,
          "name": "A2",
          "ticks": 129792,
          "time": 169,
          "velocity": 0.3937007874015748
        },
        {
          "duration": 0.25,
          "durationTicks": 192,
          "midi": 57,
          "name": "A3",
          "ticks": 129984,
          "time": 169.25,
          "velocity": 0.3937007874015748
        },
        {
          "duration": 0.25,
          "durationTicks": 192,
          "midi": 45,
          "name": "A2",
          "ticks": 130176,
          "time": 169.5,
          "velocity": 0.3937007874015748
        },
        {
          "duration": 0.25,
          "durationTicks": 192,
          "midi": 57,
          "name": "A3",
          "ticks": 130368,
          "time": 169.75,
          "velocity": 0.3937007874015748
        },
        {
          "duration": 0.25,
          "durationTicks": 192,
          "midi": 43,
          "name": "G2",
          "ticks": 130560,
          "time": 170,
          "velocity": 0.3937007874015748
        },
        {
          "duration": 0.25,
          "durationTicks": 192,
          "midi": 55,
          "name": "G3",
          "ticks": 130752,
          "time": 170.25,
          "velocity": 0.3937007874015748
        },
        {
          "duration": 0.25,
          "durationTicks": 192,
          "midi": 43,
          "name": "G2",
          "ticks": 130944,
          "time": 170.5,
          "velocity": 0.3937007874015748
        },
        {
          "duration": 0.25,
          "durationTicks": 192,
          "midi": 55,
          "name": "G3",
          "ticks": 131136,
          "time": 170.75,
          "velocity": 0.3937007874015748
        },
        {
          "duration": 0.25,
          "durationTicks": 192,
          "midi": 43,
          "name": "G2",
          "ticks": 131328,
          "time": 171,
          "velocity": 0.3937007874015748
        },
        {
          "duration": 0.25,
          "durationTicks": 192,
          "midi": 55,
          "name": "G3",
          "ticks": 131520,
          "time": 171.25,
          "velocity": 0.3937007874015748
        },
        {
          "duration": 0.25,
          "durationTicks": 192,
          "midi": 43,
          "name": "G2",
          "ticks": 131712,
          "time": 171.5,
          "velocity": 0.3937007874015748
        },
        {
          "duration": 0.25,
          "durationTicks": 192,
          "midi": 55,
          "name": "G3",
          "ticks": 131904,
          "time": 171.75,
          "velocity": 0.3937007874015748
        },
        {
          "duration": 0.25,
          "durationTicks": 192,
          "midi": 39,
          "name": "D#2",
          "ticks": 132096,
          "time": 172,
          "velocity": 0.3937007874015748
        },
        {
          "duration": 0.25,
          "durationTicks": 192,
          "midi": 51,
          "name": "D#3",
          "ticks": 132288,
          "time": 172.25,
          "velocity": 0.3937007874015748
        },
        {
          "duration": 0.25,
          "durationTicks": 192,
          "midi": 39,
          "name": "D#2",
          "ticks": 132480,
          "time": 172.5,
          "velocity": 0.3937007874015748
        },
        {
          "duration": 0.25,
          "durationTicks": 192,
          "midi": 51,
          "name": "D#3",
          "ticks": 132672,
          "time": 172.75,
          "velocity": 0.3937007874015748
        },
        {
          "duration": 0.25,
          "durationTicks": 192,
          "midi": 39,
          "name": "D#2",
          "ticks": 132864,
          "time": 173,
          "velocity": 0.3937007874015748
        },
        {
          "duration": 0.25,
          "durationTicks": 192,
          "midi": 51,
          "name": "D#3",
          "ticks": 133056,
          "time": 173.25,
          "velocity": 0.3937007874015748
        },
        {
          "duration": 0.25,
          "durationTicks": 192,
          "midi": 39,
          "name": "D#2",
          "ticks": 133248,
          "time": 173.5,
          "velocity": 0.3937007874015748
        },
        {
          "duration": 0.25,
          "durationTicks": 192,
          "midi": 51,
          "name": "D#3",
          "ticks": 133440,
          "time": 173.75,
          "velocity": 0.3937007874015748
        },
        {
          "duration": 0.25,
          "durationTicks": 192,
          "midi": 46,
          "name": "A#2",
          "ticks": 133632,
          "time": 174,
          "velocity": 0.3937007874015748
        },
        {
          "duration": 0.25,
          "durationTicks": 192,
          "midi": 58,
          "name": "A#3",
          "ticks": 133824,
          "time": 174.25,
          "velocity": 0.3937007874015748
        },
        {
          "duration": 0.25,
          "durationTicks": 192,
          "midi": 46,
          "name": "A#2",
          "ticks": 134016,
          "time": 174.5,
          "velocity": 0.3937007874015748
        },
        {
          "duration": 0.25,
          "durationTicks": 192,
          "midi": 58,
          "name": "A#3",
          "ticks": 134208,
          "time": 174.75,
          "velocity": 0.3937007874015748
        },
        {
          "duration": 0.25,
          "durationTicks": 192,
          "midi": 46,
          "name": "A#2",
          "ticks": 134400,
          "time": 175,
          "velocity": 0.3937007874015748
        },
        {
          "duration": 0.25,
          "durationTicks": 192,
          "midi": 58,
          "name": "A#3",
          "ticks": 134592,
          "time": 175.25,
          "velocity": 0.3937007874015748
        },
        {
          "duration": 0.25,
          "durationTicks": 192,
          "midi": 46,
          "name": "A#2",
          "ticks": 134784,
          "time": 175.5,
          "velocity": 0.3937007874015748
        },
        {
          "duration": 0.25,
          "durationTicks": 192,
          "midi": 58,
          "name": "A#3",
          "ticks": 134976,
          "time": 175.75,
          "velocity": 0.3937007874015748
        },
        {
          "duration": 0.25,
          "durationTicks": 192,
          "midi": 45,
          "name": "A2",
          "ticks": 135168,
          "time": 176,
          "velocity": 0.3937007874015748
        },
        {
          "duration": 0.25,
          "durationTicks": 192,
          "midi": 57,
          "name": "A3",
          "ticks": 135360,
          "time": 176.25,
          "velocity": 0.3937007874015748
        },
        {
          "duration": 0.25,
          "durationTicks": 192,
          "midi": 45,
          "name": "A2",
          "ticks": 135552,
          "time": 176.5,
          "velocity": 0.3937007874015748
        },
        {
          "duration": 0.25,
          "durationTicks": 192,
          "midi": 57,
          "name": "A3",
          "ticks": 135744,
          "time": 176.75,
          "velocity": 0.3937007874015748
        },
        {
          "duration": 0.25,
          "durationTicks": 192,
          "midi": 45,
          "name": "A2",
          "ticks": 135936,
          "time": 177,
          "velocity": 0.3937007874015748
        },
        {
          "duration": 0.25,
          "durationTicks": 192,
          "midi": 57,
          "name": "A3",
          "ticks": 136128,
          "time": 177.25,
          "velocity": 0.3937007874015748
        },
        {
          "duration": 0.25,
          "durationTicks": 192,
          "midi": 45,
          "name": "A2",
          "ticks": 136320,
          "time": 177.5,
          "velocity": 0.3937007874015748
        },
        {
          "duration": 0.25,
          "durationTicks": 192,
          "midi": 57,
          "name": "A3",
          "ticks": 136512,
          "time": 177.75,
          "velocity": 0.3937007874015748
        },
        {
          "duration": 2,
          "durationTicks": 1536,
          "midi": 41,
          "name": "F2",
          "ticks": 136704,
          "time": 178,
          "velocity": 0.3937007874015748
        },
        {
          "duration": 2,
          "durationTicks": 1536,
          "midi": 43,
          "name": "G2",
          "ticks": 138240,
          "time": 180,
          "velocity": 0.3937007874015748
        },
        {
          "duration": 2,
          "durationTicks": 1536,
          "midi": 45,
          "name": "A2",
          "ticks": 139776,
          "time": 182,
          "velocity": 0.3937007874015748
        },
        {
          "duration": 2,
          "durationTicks": 1536,
          "midi": 47,
          "name": "B2",
          "ticks": 141312,
          "time": 184,
          "velocity": 0.3937007874015748
        },
        {
          "duration": 2,
          "durationTicks": 1536,
          "midi": 48,
          "name": "C3",
          "ticks": 142848,
          "time": 186,
          "velocity": 0.3937007874015748
        },
        {
          "duration": 2,
          "durationTicks": 1536,
          "midi": 50,
          "name": "D3",
          "ticks": 144384,
          "time": 188,
          "velocity": 0.3937007874015748
        },
        {
          "duration": 2,
          "durationTicks": 1536,
          "midi": 53,
          "name": "F3",
          "ticks": 145920,
          "time": 190,
          "velocity": 0.3937007874015748
        },
        {
          "duration": 2,
          "durationTicks": 1536,
          "midi": 59,
          "name": "B3",
          "ticks": 147456,
          "time": 192,
          "velocity": 0.3937007874015748
        },
        {
          "duration": 0.25,
          "durationTicks": 192,
          "midi": 43,
          "name": "G2",
          "ticks": 161280,
          "time": 210,
          "velocity": 0.3937007874015748
        },
        {
          "duration": 0.25,
          "durationTicks": 192,
          "midi": 55,
          "name": "G3",
          "ticks": 161472,
          "time": 210.25,
          "velocity": 0.3937007874015748
        },
        {
          "duration": 0.25,
          "durationTicks": 192,
          "midi": 43,
          "name": "G2",
          "ticks": 161664,
          "time": 210.5,
          "velocity": 0.3937007874015748
        },
        {
          "duration": 0.25,
          "durationTicks": 192,
          "midi": 55,
          "name": "G3",
          "ticks": 161856,
          "time": 210.75,
          "velocity": 0.3937007874015748
        },
        {
          "duration": 0.25,
          "durationTicks": 192,
          "midi": 43,
          "name": "G2",
          "ticks": 162048,
          "time": 211,
          "velocity": 0.3937007874015748
        },
        {
          "duration": 0.25,
          "durationTicks": 192,
          "midi": 55,
          "name": "G3",
          "ticks": 162240,
          "time": 211.25,
          "velocity": 0.3937007874015748
        },
        {
          "duration": 0.25,
          "durationTicks": 192,
          "midi": 43,
          "name": "G2",
          "ticks": 162432,
          "time": 211.5,
          "velocity": 0.3937007874015748
        },
        {
          "duration": 0.25,
          "durationTicks": 192,
          "midi": 55,
          "name": "G3",
          "ticks": 162624,
          "time": 211.75,
          "velocity": 0.3937007874015748
        },
        {
          "duration": 0.25,
          "durationTicks": 192,
          "midi": 39,
          "name": "D#2",
          "ticks": 162816,
          "time": 212,
          "velocity": 0.3937007874015748
        },
        {
          "duration": 0.25,
          "durationTicks": 192,
          "midi": 51,
          "name": "D#3",
          "ticks": 163008,
          "time": 212.25,
          "velocity": 0.3937007874015748
        },
        {
          "duration": 0.25,
          "durationTicks": 192,
          "midi": 39,
          "name": "D#2",
          "ticks": 163200,
          "time": 212.5,
          "velocity": 0.3937007874015748
        },
        {
          "duration": 0.25,
          "durationTicks": 192,
          "midi": 51,
          "name": "D#3",
          "ticks": 163392,
          "time": 212.75,
          "velocity": 0.3937007874015748
        },
        {
          "duration": 0.25,
          "durationTicks": 192,
          "midi": 39,
          "name": "D#2",
          "ticks": 163584,
          "time": 213,
          "velocity": 0.3937007874015748
        },
        {
          "duration": 0.25,
          "durationTicks": 192,
          "midi": 51,
          "name": "D#3",
          "ticks": 163776,
          "time": 213.25,
          "velocity": 0.3937007874015748
        },
        {
          "duration": 0.25,
          "durationTicks": 192,
          "midi": 39,
          "name": "D#2",
          "ticks": 163968,
          "time": 213.5,
          "velocity": 0.3937007874015748
        },
        {
          "duration": 0.25,
          "durationTicks": 192,
          "midi": 51,
          "name": "D#3",
          "ticks": 164160,
          "time": 213.75,
          "velocity": 0.3937007874015748
        },
        {
          "duration": 0.25,
          "durationTicks": 192,
          "midi": 46,
          "name": "A#2",
          "ticks": 164352,
          "time": 214,
          "velocity": 0.3937007874015748
        },
        {
          "duration": 0.25,
          "durationTicks": 192,
          "midi": 58,
          "name": "A#3",
          "ticks": 164544,
          "time": 214.25,
          "velocity": 0.3937007874015748
        },
        {
          "duration": 0.25,
          "durationTicks": 192,
          "midi": 46,
          "name": "A#2",
          "ticks": 164736,
          "time": 214.5,
          "velocity": 0.3937007874015748
        },
        {
          "duration": 0.25,
          "durationTicks": 192,
          "midi": 58,
          "name": "A#3",
          "ticks": 164928,
          "time": 214.75,
          "velocity": 0.3937007874015748
        },
        {
          "duration": 0.25,
          "durationTicks": 192,
          "midi": 46,
          "name": "A#2",
          "ticks": 165120,
          "time": 215,
          "velocity": 0.3937007874015748
        },
        {
          "duration": 0.25,
          "durationTicks": 192,
          "midi": 58,
          "name": "A#3",
          "ticks": 165312,
          "time": 215.25,
          "velocity": 0.3937007874015748
        },
        {
          "duration": 0.25,
          "durationTicks": 192,
          "midi": 46,
          "name": "A#2",
          "ticks": 165504,
          "time": 215.5,
          "velocity": 0.3937007874015748
        },
        {
          "duration": 0.25,
          "durationTicks": 192,
          "midi": 58,
          "name": "A#3",
          "ticks": 165696,
          "time": 215.75,
          "velocity": 0.3937007874015748
        },
        {
          "duration": 0.25,
          "durationTicks": 192,
          "midi": 45,
          "name": "A2",
          "ticks": 165888,
          "time": 216,
          "velocity": 0.3937007874015748
        },
        {
          "duration": 0.25,
          "durationTicks": 192,
          "midi": 57,
          "name": "A3",
          "ticks": 166080,
          "time": 216.25,
          "velocity": 0.3937007874015748
        },
        {
          "duration": 0.25,
          "durationTicks": 192,
          "midi": 45,
          "name": "A2",
          "ticks": 166272,
          "time": 216.5,
          "velocity": 0.3937007874015748
        },
        {
          "duration": 0.25,
          "durationTicks": 192,
          "midi": 57,
          "name": "A3",
          "ticks": 166464,
          "time": 216.75,
          "velocity": 0.3937007874015748
        },
        {
          "duration": 0.25,
          "durationTicks": 192,
          "midi": 45,
          "name": "A2",
          "ticks": 166656,
          "time": 217,
          "velocity": 0.3937007874015748
        },
        {
          "duration": 0.25,
          "durationTicks": 192,
          "midi": 57,
          "name": "A3",
          "ticks": 166848,
          "time": 217.25,
          "velocity": 0.3937007874015748
        },
        {
          "duration": 0.25,
          "durationTicks": 192,
          "midi": 45,
          "name": "A2",
          "ticks": 167040,
          "time": 217.5,
          "velocity": 0.3937007874015748
        },
        {
          "duration": 0.25,
          "durationTicks": 192,
          "midi": 57,
          "name": "A3",
          "ticks": 167232,
          "time": 217.75,
          "velocity": 0.3937007874015748
        },
        {
          "duration": 0.25,
          "durationTicks": 192,
          "midi": 43,
          "name": "G2",
          "ticks": 167424,
          "time": 218,
          "velocity": 0.3937007874015748
        },
        {
          "duration": 0.25,
          "durationTicks": 192,
          "midi": 55,
          "name": "G3",
          "ticks": 167616,
          "time": 218.25,
          "velocity": 0.3937007874015748
        },
        {
          "duration": 0.25,
          "durationTicks": 192,
          "midi": 43,
          "name": "G2",
          "ticks": 167808,
          "time": 218.5,
          "velocity": 0.3937007874015748
        },
        {
          "duration": 0.25,
          "durationTicks": 192,
          "midi": 55,
          "name": "G3",
          "ticks": 168000,
          "time": 218.75,
          "velocity": 0.3937007874015748
        },
        {
          "duration": 0.25,
          "durationTicks": 192,
          "midi": 43,
          "name": "G2",
          "ticks": 168192,
          "time": 219,
          "velocity": 0.3937007874015748
        },
        {
          "duration": 0.25,
          "durationTicks": 192,
          "midi": 55,
          "name": "G3",
          "ticks": 168384,
          "time": 219.25,
          "velocity": 0.3937007874015748
        },
        {
          "duration": 0.25,
          "durationTicks": 192,
          "midi": 43,
          "name": "G2",
          "ticks": 168576,
          "time": 219.5,
          "velocity": 0.3937007874015748
        },
        {
          "duration": 0.25,
          "durationTicks": 192,
          "midi": 55,
          "name": "G3",
          "ticks": 168768,
          "time": 219.75,
          "velocity": 0.3937007874015748
        },
        {
          "duration": 0.25,
          "durationTicks": 192,
          "midi": 39,
          "name": "D#2",
          "ticks": 168960,
          "time": 220,
          "velocity": 0.3937007874015748
        },
        {
          "duration": 0.25,
          "durationTicks": 192,
          "midi": 51,
          "name": "D#3",
          "ticks": 169152,
          "time": 220.25,
          "velocity": 0.3937007874015748
        },
        {
          "duration": 0.25,
          "durationTicks": 192,
          "midi": 39,
          "name": "D#2",
          "ticks": 169344,
          "time": 220.5,
          "velocity": 0.3937007874015748
        },
        {
          "duration": 0.25,
          "durationTicks": 192,
          "midi": 51,
          "name": "D#3",
          "ticks": 169536,
          "time": 220.75,
          "velocity": 0.3937007874015748
        },
        {
          "duration": 0.25,
          "durationTicks": 192,
          "midi": 39,
          "name": "D#2",
          "ticks": 169728,
          "time": 221,
          "velocity": 0.3937007874015748
        },
        {
          "duration": 0.25,
          "durationTicks": 192,
          "midi": 51,
          "name": "D#3",
          "ticks": 169920,
          "time": 221.25,
          "velocity": 0.3937007874015748
        },
        {
          "duration": 0.25,
          "durationTicks": 192,
          "midi": 39,
          "name": "D#2",
          "ticks": 170112,
          "time": 221.5,
          "velocity": 0.3937007874015748
        },
        {
          "duration": 0.25,
          "durationTicks": 192,
          "midi": 51,
          "name": "D#3",
          "ticks": 170304,
          "time": 221.75,
          "velocity": 0.3937007874015748
        },
        {
          "duration": 0.25,
          "durationTicks": 192,
          "midi": 46,
          "name": "A#2",
          "ticks": 170496,
          "time": 222,
          "velocity": 0.3937007874015748
        },
        {
          "duration": 0.25,
          "durationTicks": 192,
          "midi": 58,
          "name": "A#3",
          "ticks": 170688,
          "time": 222.25,
          "velocity": 0.3937007874015748
        },
        {
          "duration": 0.25,
          "durationTicks": 192,
          "midi": 46,
          "name": "A#2",
          "ticks": 170880,
          "time": 222.5,
          "velocity": 0.3937007874015748
        },
        {
          "duration": 0.25,
          "durationTicks": 192,
          "midi": 58,
          "name": "A#3",
          "ticks": 171072,
          "time": 222.75,
          "velocity": 0.3937007874015748
        },
        {
          "duration": 0.25,
          "durationTicks": 192,
          "midi": 46,
          "name": "A#2",
          "ticks": 171264,
          "time": 223,
          "velocity": 0.3937007874015748
        },
        {
          "duration": 0.25,
          "durationTicks": 192,
          "midi": 58,
          "name": "A#3",
          "ticks": 171456,
          "time": 223.25,
          "velocity": 0.3937007874015748
        },
        {
          "duration": 0.25,
          "durationTicks": 192,
          "midi": 46,
          "name": "A#2",
          "ticks": 171648,
          "time": 223.5,
          "velocity": 0.3937007874015748
        },
        {
          "duration": 0.25,
          "durationTicks": 192,
          "midi": 58,
          "name": "A#3",
          "ticks": 171840,
          "time": 223.75,
          "velocity": 0.3937007874015748
        },
        {
          "duration": 0.25,
          "durationTicks": 192,
          "midi": 45,
          "name": "A2",
          "ticks": 172032,
          "time": 224,
          "velocity": 0.3937007874015748
        },
        {
          "duration": 0.25,
          "durationTicks": 192,
          "midi": 57,
          "name": "A3",
          "ticks": 172224,
          "time": 224.25,
          "velocity": 0.3937007874015748
        },
        {
          "duration": 0.25,
          "durationTicks": 192,
          "midi": 45,
          "name": "A2",
          "ticks": 172416,
          "time": 224.5,
          "velocity": 0.3937007874015748
        },
        {
          "duration": 0.25,
          "durationTicks": 192,
          "midi": 57,
          "name": "A3",
          "ticks": 172608,
          "time": 224.75,
          "velocity": 0.3937007874015748
        },
        {
          "duration": 0.25,
          "durationTicks": 192,
          "midi": 45,
          "name": "A2",
          "ticks": 172800,
          "time": 225,
          "velocity": 0.3937007874015748
        },
        {
          "duration": 0.25,
          "durationTicks": 192,
          "midi": 57,
          "name": "A3",
          "ticks": 172992,
          "time": 225.25,
          "velocity": 0.3937007874015748
        },
        {
          "duration": 0.25,
          "durationTicks": 192,
          "midi": 45,
          "name": "A2",
          "ticks": 173184,
          "time": 225.5,
          "velocity": 0.3937007874015748
        },
        {
          "duration": 0.25,
          "durationTicks": 192,
          "midi": 57,
          "name": "A3",
          "ticks": 173376,
          "time": 225.75,
          "velocity": 0.3937007874015748
        },
        {
          "duration": 0.25,
          "durationTicks": 192,
          "midi": 43,
          "name": "G2",
          "ticks": 173568,
          "time": 226,
          "velocity": 0.3937007874015748
        },
        {
          "duration": 0.25,
          "durationTicks": 192,
          "midi": 55,
          "name": "G3",
          "ticks": 173760,
          "time": 226.25,
          "velocity": 0.3937007874015748
        },
        {
          "duration": 0.25,
          "durationTicks": 192,
          "midi": 43,
          "name": "G2",
          "ticks": 173952,
          "time": 226.5,
          "velocity": 0.3937007874015748
        },
        {
          "duration": 0.25,
          "durationTicks": 192,
          "midi": 55,
          "name": "G3",
          "ticks": 174144,
          "time": 226.75,
          "velocity": 0.3937007874015748
        },
        {
          "duration": 0.25,
          "durationTicks": 192,
          "midi": 43,
          "name": "G2",
          "ticks": 174336,
          "time": 227,
          "velocity": 0.3937007874015748
        },
        {
          "duration": 0.25,
          "durationTicks": 192,
          "midi": 55,
          "name": "G3",
          "ticks": 174528,
          "time": 227.25,
          "velocity": 0.3937007874015748
        },
        {
          "duration": 0.25,
          "durationTicks": 192,
          "midi": 43,
          "name": "G2",
          "ticks": 174720,
          "time": 227.5,
          "velocity": 0.3937007874015748
        },
        {
          "duration": 0.25,
          "durationTicks": 192,
          "midi": 55,
          "name": "G3",
          "ticks": 174912,
          "time": 227.75,
          "velocity": 0.3937007874015748
        },
        {
          "duration": 0.25,
          "durationTicks": 192,
          "midi": 39,
          "name": "D#2",
          "ticks": 175104,
          "time": 228,
          "velocity": 0.3937007874015748
        },
        {
          "duration": 0.25,
          "durationTicks": 192,
          "midi": 51,
          "name": "D#3",
          "ticks": 175296,
          "time": 228.25,
          "velocity": 0.3937007874015748
        },
        {
          "duration": 0.25,
          "durationTicks": 192,
          "midi": 39,
          "name": "D#2",
          "ticks": 175488,
          "time": 228.5,
          "velocity": 0.3937007874015748
        },
        {
          "duration": 0.25,
          "durationTicks": 192,
          "midi": 51,
          "name": "D#3",
          "ticks": 175680,
          "time": 228.75,
          "velocity": 0.3937007874015748
        },
        {
          "duration": 0.25,
          "durationTicks": 192,
          "midi": 39,
          "name": "D#2",
          "ticks": 175872,
          "time": 229,
          "velocity": 0.3937007874015748
        },
        {
          "duration": 0.25,
          "durationTicks": 192,
          "midi": 51,
          "name": "D#3",
          "ticks": 176064,
          "time": 229.25,
          "velocity": 0.3937007874015748
        },
        {
          "duration": 0.25,
          "durationTicks": 192,
          "midi": 39,
          "name": "D#2",
          "ticks": 176256,
          "time": 229.5,
          "velocity": 0.3937007874015748
        },
        {
          "duration": 0.25,
          "durationTicks": 192,
          "midi": 51,
          "name": "D#3",
          "ticks": 176448,
          "time": 229.75,
          "velocity": 0.3937007874015748
        },
        {
          "duration": 0.25,
          "durationTicks": 192,
          "midi": 46,
          "name": "A#2",
          "ticks": 176640,
          "time": 230,
          "velocity": 0.3937007874015748
        },
        {
          "duration": 0.25,
          "durationTicks": 192,
          "midi": 58,
          "name": "A#3",
          "ticks": 176832,
          "time": 230.25,
          "velocity": 0.3937007874015748
        },
        {
          "duration": 0.25,
          "durationTicks": 192,
          "midi": 46,
          "name": "A#2",
          "ticks": 177024,
          "time": 230.5,
          "velocity": 0.3937007874015748
        },
        {
          "duration": 0.25,
          "durationTicks": 192,
          "midi": 58,
          "name": "A#3",
          "ticks": 177216,
          "time": 230.75,
          "velocity": 0.3937007874015748
        },
        {
          "duration": 0.25,
          "durationTicks": 192,
          "midi": 46,
          "name": "A#2",
          "ticks": 177408,
          "time": 231,
          "velocity": 0.3937007874015748
        },
        {
          "duration": 0.25,
          "durationTicks": 192,
          "midi": 58,
          "name": "A#3",
          "ticks": 177600,
          "time": 231.25,
          "velocity": 0.3937007874015748
        },
        {
          "duration": 0.25,
          "durationTicks": 192,
          "midi": 46,
          "name": "A#2",
          "ticks": 177792,
          "time": 231.5,
          "velocity": 0.3937007874015748
        },
        {
          "duration": 0.25,
          "durationTicks": 192,
          "midi": 58,
          "name": "A#3",
          "ticks": 177984,
          "time": 231.75,
          "velocity": 0.3937007874015748
        },
        {
          "duration": 0.25,
          "durationTicks": 192,
          "midi": 46,
          "name": "A#2",
          "ticks": 178176,
          "time": 232,
          "velocity": 0.3937007874015748
        },
        {
          "duration": 0.25,
          "durationTicks": 192,
          "midi": 58,
          "name": "A#3",
          "ticks": 178368,
          "time": 232.25,
          "velocity": 0.3937007874015748
        },
        {
          "duration": 0.25,
          "durationTicks": 192,
          "midi": 46,
          "name": "A#2",
          "ticks": 178560,
          "time": 232.5,
          "velocity": 0.3937007874015748
        },
        {
          "duration": 0.25,
          "durationTicks": 192,
          "midi": 58,
          "name": "A#3",
          "ticks": 178752,
          "time": 232.75,
          "velocity": 0.3937007874015748
        },
        {
          "duration": 0.25,
          "durationTicks": 192,
          "midi": 46,
          "name": "A#2",
          "ticks": 178944,
          "time": 233,
          "velocity": 0.3937007874015748
        },
        {
          "duration": 0.25,
          "durationTicks": 192,
          "midi": 58,
          "name": "A#3",
          "ticks": 179136,
          "time": 233.25,
          "velocity": 0.3937007874015748
        },
        {
          "duration": 0.25,
          "durationTicks": 192,
          "midi": 46,
          "name": "A#2",
          "ticks": 179328,
          "time": 233.5,
          "velocity": 0.3937007874015748
        },
        {
          "duration": 0.25,
          "durationTicks": 192,
          "midi": 58,
          "name": "A#3",
          "ticks": 179520,
          "time": 233.75,
          "velocity": 0.3937007874015748
        },
        {
          "duration": 0.25,
          "durationTicks": 192,
          "midi": 43,
          "name": "G2",
          "ticks": 190464,
          "time": 248,
          "velocity": 0.3937007874015748
        },
        {
          "duration": 0.25,
          "durationTicks": 192,
          "midi": 55,
          "name": "G3",
          "ticks": 190656,
          "time": 248.25,
          "velocity": 0.3937007874015748
        },
        {
          "duration": 0.25,
          "durationTicks": 192,
          "midi": 43,
          "name": "G2",
          "ticks": 190848,
          "time": 248.5,
          "velocity": 0.3937007874015748
        },
        {
          "duration": 0.25,
          "durationTicks": 192,
          "midi": 55,
          "name": "G3",
          "ticks": 191040,
          "time": 248.75,
          "velocity": 0.3937007874015748
        },
        {
          "duration": 0.25,
          "durationTicks": 192,
          "midi": 43,
          "name": "G2",
          "ticks": 191232,
          "time": 249,
          "velocity": 0.3937007874015748
        },
        {
          "duration": 0.25,
          "durationTicks": 192,
          "midi": 55,
          "name": "G3",
          "ticks": 191424,
          "time": 249.25,
          "velocity": 0.3937007874015748
        },
        {
          "duration": 0.25,
          "durationTicks": 192,
          "midi": 43,
          "name": "G2",
          "ticks": 191616,
          "time": 249.5,
          "velocity": 0.3937007874015748
        },
        {
          "duration": 0.25,
          "durationTicks": 192,
          "midi": 55,
          "name": "G3",
          "ticks": 191808,
          "time": 249.75,
          "velocity": 0.3937007874015748
        },
        {
          "duration": 0.25,
          "durationTicks": 192,
          "midi": 39,
          "name": "D#2",
          "ticks": 192000,
          "time": 250,
          "velocity": 0.3937007874015748
        },
        {
          "duration": 0.25,
          "durationTicks": 192,
          "midi": 51,
          "name": "D#3",
          "ticks": 192192,
          "time": 250.25,
          "velocity": 0.3937007874015748
        },
        {
          "duration": 0.25,
          "durationTicks": 192,
          "midi": 39,
          "name": "D#2",
          "ticks": 192384,
          "time": 250.5,
          "velocity": 0.3937007874015748
        },
        {
          "duration": 0.25,
          "durationTicks": 192,
          "midi": 51,
          "name": "D#3",
          "ticks": 192576,
          "time": 250.75,
          "velocity": 0.3937007874015748
        },
        {
          "duration": 0.25,
          "durationTicks": 192,
          "midi": 39,
          "name": "D#2",
          "ticks": 192768,
          "time": 251,
          "velocity": 0.3937007874015748
        },
        {
          "duration": 0.25,
          "durationTicks": 192,
          "midi": 51,
          "name": "D#3",
          "ticks": 192960,
          "time": 251.25,
          "velocity": 0.3937007874015748
        },
        {
          "duration": 0.25,
          "durationTicks": 192,
          "midi": 39,
          "name": "D#2",
          "ticks": 193152,
          "time": 251.5,
          "velocity": 0.3937007874015748
        },
        {
          "duration": 0.25,
          "durationTicks": 192,
          "midi": 51,
          "name": "D#3",
          "ticks": 193344,
          "time": 251.75,
          "velocity": 0.3937007874015748
        },
        {
          "duration": 0.25,
          "durationTicks": 192,
          "midi": 46,
          "name": "A#2",
          "ticks": 193536,
          "time": 252,
          "velocity": 0.3937007874015748
        },
        {
          "duration": 0.25,
          "durationTicks": 192,
          "midi": 58,
          "name": "A#3",
          "ticks": 193728,
          "time": 252.25,
          "velocity": 0.3937007874015748
        },
        {
          "duration": 0.25,
          "durationTicks": 192,
          "midi": 46,
          "name": "A#2",
          "ticks": 193920,
          "time": 252.5,
          "velocity": 0.3937007874015748
        },
        {
          "duration": 0.25,
          "durationTicks": 192,
          "midi": 58,
          "name": "A#3",
          "ticks": 194112,
          "time": 252.75,
          "velocity": 0.3937007874015748
        },
        {
          "duration": 0.25,
          "durationTicks": 192,
          "midi": 46,
          "name": "A#2",
          "ticks": 194304,
          "time": 253,
          "velocity": 0.3937007874015748
        },
        {
          "duration": 0.25,
          "durationTicks": 192,
          "midi": 58,
          "name": "A#3",
          "ticks": 194496,
          "time": 253.25,
          "velocity": 0.3937007874015748
        },
        {
          "duration": 0.25,
          "durationTicks": 192,
          "midi": 46,
          "name": "A#2",
          "ticks": 194688,
          "time": 253.5,
          "velocity": 0.3937007874015748
        },
        {
          "duration": 0.25,
          "durationTicks": 192,
          "midi": 58,
          "name": "A#3",
          "ticks": 194880,
          "time": 253.75,
          "velocity": 0.3937007874015748
        },
        {
          "duration": 0.25,
          "durationTicks": 192,
          "midi": 45,
          "name": "A2",
          "ticks": 195072,
          "time": 254,
          "velocity": 0.3937007874015748
        },
        {
          "duration": 0.25,
          "durationTicks": 192,
          "midi": 57,
          "name": "A3",
          "ticks": 195264,
          "time": 254.25,
          "velocity": 0.3937007874015748
        },
        {
          "duration": 0.25,
          "durationTicks": 192,
          "midi": 45,
          "name": "A2",
          "ticks": 195456,
          "time": 254.5,
          "velocity": 0.3937007874015748
        },
        {
          "duration": 0.25,
          "durationTicks": 192,
          "midi": 57,
          "name": "A3",
          "ticks": 195648,
          "time": 254.75,
          "velocity": 0.3937007874015748
        },
        {
          "duration": 0.25,
          "durationTicks": 192,
          "midi": 45,
          "name": "A2",
          "ticks": 195840,
          "time": 255,
          "velocity": 0.3937007874015748
        },
        {
          "duration": 0.25,
          "durationTicks": 192,
          "midi": 57,
          "name": "A3",
          "ticks": 196032,
          "time": 255.25,
          "velocity": 0.3937007874015748
        },
        {
          "duration": 0.25,
          "durationTicks": 192,
          "midi": 45,
          "name": "A2",
          "ticks": 196224,
          "time": 255.5,
          "velocity": 0.3937007874015748
        },
        {
          "duration": 0.25,
          "durationTicks": 192,
          "midi": 57,
          "name": "A3",
          "ticks": 196416,
          "time": 255.75,
          "velocity": 0.3937007874015748
        },
        {
          "duration": 0.25,
          "durationTicks": 192,
          "midi": 43,
          "name": "G2",
          "ticks": 196608,
          "time": 256,
          "velocity": 0.3937007874015748
        },
        {
          "duration": 0.25,
          "durationTicks": 192,
          "midi": 55,
          "name": "G3",
          "ticks": 196800,
          "time": 256.25,
          "velocity": 0.3937007874015748
        },
        {
          "duration": 0.25,
          "durationTicks": 192,
          "midi": 43,
          "name": "G2",
          "ticks": 196992,
          "time": 256.5,
          "velocity": 0.3937007874015748
        },
        {
          "duration": 0.25,
          "durationTicks": 192,
          "midi": 55,
          "name": "G3",
          "ticks": 197184,
          "time": 256.75,
          "velocity": 0.3937007874015748
        },
        {
          "duration": 0.25,
          "durationTicks": 192,
          "midi": 43,
          "name": "G2",
          "ticks": 197376,
          "time": 257,
          "velocity": 0.3937007874015748
        },
        {
          "duration": 0.25,
          "durationTicks": 192,
          "midi": 55,
          "name": "G3",
          "ticks": 197568,
          "time": 257.25,
          "velocity": 0.3937007874015748
        },
        {
          "duration": 0.25,
          "durationTicks": 192,
          "midi": 43,
          "name": "G2",
          "ticks": 197760,
          "time": 257.5,
          "velocity": 0.3937007874015748
        },
        {
          "duration": 0.25,
          "durationTicks": 192,
          "midi": 55,
          "name": "G3",
          "ticks": 197952,
          "time": 257.75,
          "velocity": 0.3937007874015748
        },
        {
          "duration": 0.25,
          "durationTicks": 192,
          "midi": 39,
          "name": "D#2",
          "ticks": 198144,
          "time": 258,
          "velocity": 0.3937007874015748
        },
        {
          "duration": 0.25,
          "durationTicks": 192,
          "midi": 51,
          "name": "D#3",
          "ticks": 198336,
          "time": 258.25,
          "velocity": 0.3937007874015748
        },
        {
          "duration": 0.25,
          "durationTicks": 192,
          "midi": 39,
          "name": "D#2",
          "ticks": 198528,
          "time": 258.5,
          "velocity": 0.3937007874015748
        },
        {
          "duration": 0.25,
          "durationTicks": 192,
          "midi": 51,
          "name": "D#3",
          "ticks": 198720,
          "time": 258.75,
          "velocity": 0.3937007874015748
        },
        {
          "duration": 0.25,
          "durationTicks": 192,
          "midi": 39,
          "name": "D#2",
          "ticks": 198912,
          "time": 259,
          "velocity": 0.3937007874015748
        },
        {
          "duration": 0.25,
          "durationTicks": 192,
          "midi": 51,
          "name": "D#3",
          "ticks": 199104,
          "time": 259.25,
          "velocity": 0.3937007874015748
        },
        {
          "duration": 0.25,
          "durationTicks": 192,
          "midi": 39,
          "name": "D#2",
          "ticks": 199296,
          "time": 259.5,
          "velocity": 0.3937007874015748
        },
        {
          "duration": 0.25,
          "durationTicks": 192,
          "midi": 51,
          "name": "D#3",
          "ticks": 199488,
          "time": 259.75,
          "velocity": 0.3937007874015748
        },
        {
          "duration": 0.25,
          "durationTicks": 192,
          "midi": 46,
          "name": "A#2",
          "ticks": 199680,
          "time": 260,
          "velocity": 0.3937007874015748
        },
        {
          "duration": 0.25,
          "durationTicks": 192,
          "midi": 58,
          "name": "A#3",
          "ticks": 199872,
          "time": 260.25,
          "velocity": 0.3937007874015748
        },
        {
          "duration": 0.25,
          "durationTicks": 192,
          "midi": 46,
          "name": "A#2",
          "ticks": 200064,
          "time": 260.5,
          "velocity": 0.3937007874015748
        },
        {
          "duration": 0.25,
          "durationTicks": 192,
          "midi": 58,
          "name": "A#3",
          "ticks": 200256,
          "time": 260.75,
          "velocity": 0.3937007874015748
        },
        {
          "duration": 0.25,
          "durationTicks": 192,
          "midi": 46,
          "name": "A#2",
          "ticks": 200448,
          "time": 261,
          "velocity": 0.3937007874015748
        },
        {
          "duration": 0.25,
          "durationTicks": 192,
          "midi": 58,
          "name": "A#3",
          "ticks": 200640,
          "time": 261.25,
          "velocity": 0.3937007874015748
        },
        {
          "duration": 0.25,
          "durationTicks": 192,
          "midi": 46,
          "name": "A#2",
          "ticks": 200832,
          "time": 261.5,
          "velocity": 0.3937007874015748
        },
        {
          "duration": 0.25,
          "durationTicks": 192,
          "midi": 58,
          "name": "A#3",
          "ticks": 201024,
          "time": 261.75,
          "velocity": 0.3937007874015748
        },
        {
          "duration": 0.25,
          "durationTicks": 192,
          "midi": 45,
          "name": "A2",
          "ticks": 201216,
          "time": 262,
          "velocity": 0.3937007874015748
        },
        {
          "duration": 0.25,
          "durationTicks": 192,
          "midi": 57,
          "name": "A3",
          "ticks": 201408,
          "time": 262.25,
          "velocity": 0.3937007874015748
        },
        {
          "duration": 0.25,
          "durationTicks": 192,
          "midi": 45,
          "name": "A2",
          "ticks": 201600,
          "time": 262.5,
          "velocity": 0.3937007874015748
        },
        {
          "duration": 0.25,
          "durationTicks": 192,
          "midi": 57,
          "name": "A3",
          "ticks": 201792,
          "time": 262.75,
          "velocity": 0.3937007874015748
        },
        {
          "duration": 0.25,
          "durationTicks": 192,
          "midi": 45,
          "name": "A2",
          "ticks": 201984,
          "time": 263,
          "velocity": 0.3937007874015748
        },
        {
          "duration": 0.25,
          "durationTicks": 192,
          "midi": 57,
          "name": "A3",
          "ticks": 202176,
          "time": 263.25,
          "velocity": 0.3937007874015748
        },
        {
          "duration": 0.25,
          "durationTicks": 192,
          "midi": 45,
          "name": "A2",
          "ticks": 202368,
          "time": 263.5,
          "velocity": 0.3937007874015748
        },
        {
          "duration": 0.25,
          "durationTicks": 192,
          "midi": 57,
          "name": "A3",
          "ticks": 202560,
          "time": 263.75,
          "velocity": 0.3937007874015748
        },
        {
          "duration": 0.25,
          "durationTicks": 192,
          "midi": 43,
          "name": "G2",
          "ticks": 202752,
          "time": 264,
          "velocity": 0.3937007874015748
        },
        {
          "duration": 0.25,
          "durationTicks": 192,
          "midi": 55,
          "name": "G3",
          "ticks": 202944,
          "time": 264.25,
          "velocity": 0.3937007874015748
        },
        {
          "duration": 0.25,
          "durationTicks": 192,
          "midi": 43,
          "name": "G2",
          "ticks": 203136,
          "time": 264.5,
          "velocity": 0.3937007874015748
        },
        {
          "duration": 0.25,
          "durationTicks": 192,
          "midi": 55,
          "name": "G3",
          "ticks": 203328,
          "time": 264.75,
          "velocity": 0.3937007874015748
        },
        {
          "duration": 0.25,
          "durationTicks": 192,
          "midi": 43,
          "name": "G2",
          "ticks": 203520,
          "time": 265,
          "velocity": 0.3937007874015748
        },
        {
          "duration": 0.25,
          "durationTicks": 192,
          "midi": 55,
          "name": "G3",
          "ticks": 203712,
          "time": 265.25,
          "velocity": 0.3937007874015748
        },
        {
          "duration": 0.25,
          "durationTicks": 192,
          "midi": 43,
          "name": "G2",
          "ticks": 203904,
          "time": 265.5,
          "velocity": 0.3937007874015748
        },
        {
          "duration": 0.25,
          "durationTicks": 192,
          "midi": 55,
          "name": "G3",
          "ticks": 204096,
          "time": 265.75,
          "velocity": 0.3937007874015748
        },
        {
          "duration": 0.25,
          "durationTicks": 192,
          "midi": 39,
          "name": "D#2",
          "ticks": 204288,
          "time": 266,
          "velocity": 0.3937007874015748
        },
        {
          "duration": 0.25,
          "durationTicks": 192,
          "midi": 51,
          "name": "D#3",
          "ticks": 204480,
          "time": 266.25,
          "velocity": 0.3937007874015748
        },
        {
          "duration": 0.25,
          "durationTicks": 192,
          "midi": 39,
          "name": "D#2",
          "ticks": 204672,
          "time": 266.5,
          "velocity": 0.3937007874015748
        },
        {
          "duration": 0.25,
          "durationTicks": 192,
          "midi": 51,
          "name": "D#3",
          "ticks": 204864,
          "time": 266.75,
          "velocity": 0.3937007874015748
        },
        {
          "duration": 0.25,
          "durationTicks": 192,
          "midi": 39,
          "name": "D#2",
          "ticks": 205056,
          "time": 267,
          "velocity": 0.3937007874015748
        },
        {
          "duration": 0.25,
          "durationTicks": 192,
          "midi": 51,
          "name": "D#3",
          "ticks": 205248,
          "time": 267.25,
          "velocity": 0.3937007874015748
        },
        {
          "duration": 0.25,
          "durationTicks": 192,
          "midi": 39,
          "name": "D#2",
          "ticks": 205440,
          "time": 267.5,
          "velocity": 0.3937007874015748
        },
        {
          "duration": 0.25,
          "durationTicks": 192,
          "midi": 51,
          "name": "D#3",
          "ticks": 205632,
          "time": 267.75,
          "velocity": 0.3937007874015748
        },
        {
          "duration": 0.25,
          "durationTicks": 192,
          "midi": 46,
          "name": "A#2",
          "ticks": 205824,
          "time": 268,
          "velocity": 0.3937007874015748
        },
        {
          "duration": 0.25,
          "durationTicks": 192,
          "midi": 58,
          "name": "A#3",
          "ticks": 206016,
          "time": 268.25,
          "velocity": 0.3937007874015748
        },
        {
          "duration": 0.25,
          "durationTicks": 192,
          "midi": 46,
          "name": "A#2",
          "ticks": 206208,
          "time": 268.5,
          "velocity": 0.3937007874015748
        },
        {
          "duration": 0.25,
          "durationTicks": 192,
          "midi": 58,
          "name": "A#3",
          "ticks": 206400,
          "time": 268.75,
          "velocity": 0.3937007874015748
        },
        {
          "duration": 0.25,
          "durationTicks": 192,
          "midi": 46,
          "name": "A#2",
          "ticks": 206592,
          "time": 269,
          "velocity": 0.3937007874015748
        },
        {
          "duration": 0.25,
          "durationTicks": 192,
          "midi": 58,
          "name": "A#3",
          "ticks": 206784,
          "time": 269.25,
          "velocity": 0.3937007874015748
        },
        {
          "duration": 0.25,
          "durationTicks": 192,
          "midi": 46,
          "name": "A#2",
          "ticks": 206976,
          "time": 269.5,
          "velocity": 0.3937007874015748
        },
        {
          "duration": 0.25,
          "durationTicks": 192,
          "midi": 58,
          "name": "A#3",
          "ticks": 207168,
          "time": 269.75,
          "velocity": 0.3937007874015748
        },
        {
          "duration": 0.25,
          "durationTicks": 192,
          "midi": 46,
          "name": "A#2",
          "ticks": 207360,
          "time": 270,
          "velocity": 0.3937007874015748
        },
        {
          "duration": 0.25,
          "durationTicks": 192,
          "midi": 58,
          "name": "A#3",
          "ticks": 207552,
          "time": 270.25,
          "velocity": 0.3937007874015748
        },
        {
          "duration": 0.25,
          "durationTicks": 192,
          "midi": 46,
          "name": "A#2",
          "ticks": 207744,
          "time": 270.5,
          "velocity": 0.3937007874015748
        },
        {
          "duration": 0.25,
          "durationTicks": 192,
          "midi": 58,
          "name": "A#3",
          "ticks": 207936,
          "time": 270.75,
          "velocity": 0.3937007874015748
        },
        {
          "duration": 0.25,
          "durationTicks": 192,
          "midi": 46,
          "name": "A#2",
          "ticks": 208128,
          "time": 271,
          "velocity": 0.3937007874015748
        },
        {
          "duration": 0.25,
          "durationTicks": 192,
          "midi": 58,
          "name": "A#3",
          "ticks": 208320,
          "time": 271.25,
          "velocity": 0.3937007874015748
        },
        {
          "duration": 0.25,
          "durationTicks": 192,
          "midi": 46,
          "name": "A#2",
          "ticks": 208512,
          "time": 271.5,
          "velocity": 0.3937007874015748
        },
        {
          "duration": 0.25,
          "durationTicks": 192,
          "midi": 58,
          "name": "A#3",
          "ticks": 208704,
          "time": 271.75,
          "velocity": 0.3937007874015748
        },
        {
          "duration": 0.25,
          "durationTicks": 192,
          "midi": 43,
          "name": "G2",
          "ticks": 208896,
          "time": 272,
          "velocity": 0.3937007874015748
        },
        {
          "duration": 0.25,
          "durationTicks": 192,
          "midi": 55,
          "name": "G3",
          "ticks": 209088,
          "time": 272.25,
          "velocity": 0.3937007874015748
        },
        {
          "duration": 0.25,
          "durationTicks": 192,
          "midi": 43,
          "name": "G2",
          "ticks": 209280,
          "time": 272.5,
          "velocity": 0.3937007874015748
        },
        {
          "duration": 0.25,
          "durationTicks": 192,
          "midi": 55,
          "name": "G3",
          "ticks": 209472,
          "time": 272.75,
          "velocity": 0.3937007874015748
        },
        {
          "duration": 0.25,
          "durationTicks": 192,
          "midi": 43,
          "name": "G2",
          "ticks": 209664,
          "time": 273,
          "velocity": 0.3937007874015748
        },
        {
          "duration": 0.25,
          "durationTicks": 192,
          "midi": 55,
          "name": "G3",
          "ticks": 209856,
          "time": 273.25,
          "velocity": 0.3937007874015748
        },
        {
          "duration": 0.25,
          "durationTicks": 192,
          "midi": 43,
          "name": "G2",
          "ticks": 210048,
          "time": 273.5,
          "velocity": 0.3937007874015748
        },
        {
          "duration": 0.25,
          "durationTicks": 192,
          "midi": 55,
          "name": "G3",
          "ticks": 210240,
          "time": 273.75,
          "velocity": 0.3937007874015748
        },
        {
          "duration": 0.25,
          "durationTicks": 192,
          "midi": 39,
          "name": "D#2",
          "ticks": 210432,
          "time": 274,
          "velocity": 0.3937007874015748
        },
        {
          "duration": 0.25,
          "durationTicks": 192,
          "midi": 51,
          "name": "D#3",
          "ticks": 210624,
          "time": 274.25,
          "velocity": 0.3937007874015748
        },
        {
          "duration": 0.25,
          "durationTicks": 192,
          "midi": 39,
          "name": "D#2",
          "ticks": 210816,
          "time": 274.5,
          "velocity": 0.3937007874015748
        },
        {
          "duration": 0.25,
          "durationTicks": 192,
          "midi": 51,
          "name": "D#3",
          "ticks": 211008,
          "time": 274.75,
          "velocity": 0.3937007874015748
        },
        {
          "duration": 0.25,
          "durationTicks": 192,
          "midi": 39,
          "name": "D#2",
          "ticks": 211200,
          "time": 275,
          "velocity": 0.3937007874015748
        },
        {
          "duration": 0.25,
          "durationTicks": 192,
          "midi": 51,
          "name": "D#3",
          "ticks": 211392,
          "time": 275.25,
          "velocity": 0.3937007874015748
        },
        {
          "duration": 0.25,
          "durationTicks": 192,
          "midi": 39,
          "name": "D#2",
          "ticks": 211584,
          "time": 275.5,
          "velocity": 0.3937007874015748
        },
        {
          "duration": 0.25,
          "durationTicks": 192,
          "midi": 51,
          "name": "D#3",
          "ticks": 211776,
          "time": 275.75,
          "velocity": 0.3937007874015748
        },
        {
          "duration": 0.25,
          "durationTicks": 192,
          "midi": 46,
          "name": "A#2",
          "ticks": 211968,
          "time": 276,
          "velocity": 0.3937007874015748
        },
        {
          "duration": 0.25,
          "durationTicks": 192,
          "midi": 58,
          "name": "A#3",
          "ticks": 212160,
          "time": 276.25,
          "velocity": 0.3937007874015748
        },
        {
          "duration": 0.25,
          "durationTicks": 192,
          "midi": 46,
          "name": "A#2",
          "ticks": 212352,
          "time": 276.5,
          "velocity": 0.3937007874015748
        },
        {
          "duration": 0.25,
          "durationTicks": 192,
          "midi": 58,
          "name": "A#3",
          "ticks": 212544,
          "time": 276.75,
          "velocity": 0.3937007874015748
        },
        {
          "duration": 0.25,
          "durationTicks": 192,
          "midi": 46,
          "name": "A#2",
          "ticks": 212736,
          "time": 277,
          "velocity": 0.3937007874015748
        },
        {
          "duration": 0.25,
          "durationTicks": 192,
          "midi": 58,
          "name": "A#3",
          "ticks": 212928,
          "time": 277.25,
          "velocity": 0.3937007874015748
        },
        {
          "duration": 0.25,
          "durationTicks": 192,
          "midi": 46,
          "name": "A#2",
          "ticks": 213120,
          "time": 277.5,
          "velocity": 0.3937007874015748
        },
        {
          "duration": 0.25,
          "durationTicks": 192,
          "midi": 58,
          "name": "A#3",
          "ticks": 213312,
          "time": 277.75,
          "velocity": 0.3937007874015748
        },
        {
          "duration": 0.25,
          "durationTicks": 192,
          "midi": 45,
          "name": "A2",
          "ticks": 213504,
          "time": 278,
          "velocity": 0.3937007874015748
        },
        {
          "duration": 0.25,
          "durationTicks": 192,
          "midi": 57,
          "name": "A3",
          "ticks": 213696,
          "time": 278.25,
          "velocity": 0.3937007874015748
        },
        {
          "duration": 0.25,
          "durationTicks": 192,
          "midi": 45,
          "name": "A2",
          "ticks": 213888,
          "time": 278.5,
          "velocity": 0.3937007874015748
        },
        {
          "duration": 0.25,
          "durationTicks": 192,
          "midi": 57,
          "name": "A3",
          "ticks": 214080,
          "time": 278.75,
          "velocity": 0.3937007874015748
        },
        {
          "duration": 0.25,
          "durationTicks": 192,
          "midi": 45,
          "name": "A2",
          "ticks": 214272,
          "time": 279,
          "velocity": 0.3937007874015748
        },
        {
          "duration": 0.25,
          "durationTicks": 192,
          "midi": 57,
          "name": "A3",
          "ticks": 214464,
          "time": 279.25,
          "velocity": 0.3937007874015748
        },
        {
          "duration": 0.25,
          "durationTicks": 192,
          "midi": 45,
          "name": "A2",
          "ticks": 214656,
          "time": 279.5,
          "velocity": 0.3937007874015748
        },
        {
          "duration": 0.25,
          "durationTicks": 192,
          "midi": 57,
          "name": "A3",
          "ticks": 214848,
          "time": 279.75,
          "velocity": 0.3937007874015748
        },
        {
          "duration": 0.25,
          "durationTicks": 192,
          "midi": 43,
          "name": "G2",
          "ticks": 215040,
          "time": 280,
          "velocity": 0.3937007874015748
        },
        {
          "duration": 0.25,
          "durationTicks": 192,
          "midi": 55,
          "name": "G3",
          "ticks": 215232,
          "time": 280.25,
          "velocity": 0.3937007874015748
        },
        {
          "duration": 0.25,
          "durationTicks": 192,
          "midi": 43,
          "name": "G2",
          "ticks": 215424,
          "time": 280.5,
          "velocity": 0.3937007874015748
        },
        {
          "duration": 0.25,
          "durationTicks": 192,
          "midi": 55,
          "name": "G3",
          "ticks": 215616,
          "time": 280.75,
          "velocity": 0.3937007874015748
        },
        {
          "duration": 0.25,
          "durationTicks": 192,
          "midi": 43,
          "name": "G2",
          "ticks": 215808,
          "time": 281,
          "velocity": 0.3937007874015748
        },
        {
          "duration": 0.25,
          "durationTicks": 192,
          "midi": 55,
          "name": "G3",
          "ticks": 216000,
          "time": 281.25,
          "velocity": 0.3937007874015748
        },
        {
          "duration": 0.25,
          "durationTicks": 192,
          "midi": 43,
          "name": "G2",
          "ticks": 216192,
          "time": 281.5,
          "velocity": 0.3937007874015748
        },
        {
          "duration": 0.25,
          "durationTicks": 192,
          "midi": 55,
          "name": "G3",
          "ticks": 216384,
          "time": 281.75,
          "velocity": 0.3937007874015748
        },
        {
          "duration": 0.25,
          "durationTicks": 192,
          "midi": 39,
          "name": "D#2",
          "ticks": 216576,
          "time": 282,
          "velocity": 0.3937007874015748
        },
        {
          "duration": 0.25,
          "durationTicks": 192,
          "midi": 51,
          "name": "D#3",
          "ticks": 216768,
          "time": 282.25,
          "velocity": 0.3937007874015748
        },
        {
          "duration": 0.25,
          "durationTicks": 192,
          "midi": 39,
          "name": "D#2",
          "ticks": 216960,
          "time": 282.5,
          "velocity": 0.3937007874015748
        },
        {
          "duration": 0.25,
          "durationTicks": 192,
          "midi": 51,
          "name": "D#3",
          "ticks": 217152,
          "time": 282.75,
          "velocity": 0.3937007874015748
        },
        {
          "duration": 0.25,
          "durationTicks": 192,
          "midi": 39,
          "name": "D#2",
          "ticks": 217344,
          "time": 283,
          "velocity": 0.3937007874015748
        },
        {
          "duration": 0.25,
          "durationTicks": 192,
          "midi": 51,
          "name": "D#3",
          "ticks": 217536,
          "time": 283.25,
          "velocity": 0.3937007874015748
        },
        {
          "duration": 0.25,
          "durationTicks": 192,
          "midi": 39,
          "name": "D#2",
          "ticks": 217728,
          "time": 283.5,
          "velocity": 0.3937007874015748
        },
        {
          "duration": 0.25,
          "durationTicks": 192,
          "midi": 51,
          "name": "D#3",
          "ticks": 217920,
          "time": 283.75,
          "velocity": 0.3937007874015748
        },
        {
          "duration": 0.25,
          "durationTicks": 192,
          "midi": 46,
          "name": "A#2",
          "ticks": 218112,
          "time": 284,
          "velocity": 0.3937007874015748
        },
        {
          "duration": 0.25,
          "durationTicks": 192,
          "midi": 58,
          "name": "A#3",
          "ticks": 218304,
          "time": 284.25,
          "velocity": 0.3937007874015748
        },
        {
          "duration": 0.25,
          "durationTicks": 192,
          "midi": 46,
          "name": "A#2",
          "ticks": 218496,
          "time": 284.5,
          "velocity": 0.3937007874015748
        },
        {
          "duration": 0.25,
          "durationTicks": 192,
          "midi": 58,
          "name": "A#3",
          "ticks": 218688,
          "time": 284.75,
          "velocity": 0.3937007874015748
        },
        {
          "duration": 0.25,
          "durationTicks": 192,
          "midi": 46,
          "name": "A#2",
          "ticks": 218880,
          "time": 285,
          "velocity": 0.3937007874015748
        },
        {
          "duration": 0.25,
          "durationTicks": 192,
          "midi": 58,
          "name": "A#3",
          "ticks": 219072,
          "time": 285.25,
          "velocity": 0.3937007874015748
        },
        {
          "duration": 0.25,
          "durationTicks": 192,
          "midi": 46,
          "name": "A#2",
          "ticks": 219264,
          "time": 285.5,
          "velocity": 0.3937007874015748
        },
        {
          "duration": 0.25,
          "durationTicks": 192,
          "midi": 58,
          "name": "A#3",
          "ticks": 219456,
          "time": 285.75,
          "velocity": 0.3937007874015748
        },
        {
          "duration": 0.25,
          "durationTicks": 192,
          "midi": 45,
          "name": "A2",
          "ticks": 219648,
          "time": 286,
          "velocity": 0.3937007874015748
        },
        {
          "duration": 0.25,
          "durationTicks": 192,
          "midi": 57,
          "name": "A3",
          "ticks": 219840,
          "time": 286.25,
          "velocity": 0.3937007874015748
        },
        {
          "duration": 0.25,
          "durationTicks": 192,
          "midi": 45,
          "name": "A2",
          "ticks": 220032,
          "time": 286.5,
          "velocity": 0.3937007874015748
        },
        {
          "duration": 0.25,
          "durationTicks": 192,
          "midi": 57,
          "name": "A3",
          "ticks": 220224,
          "time": 286.75,
          "velocity": 0.3937007874015748
        },
        {
          "duration": 0.25,
          "durationTicks": 192,
          "midi": 45,
          "name": "A2",
          "ticks": 220416,
          "time": 287,
          "velocity": 0.3937007874015748
        },
        {
          "duration": 0.25,
          "durationTicks": 192,
          "midi": 57,
          "name": "A3",
          "ticks": 220608,
          "time": 287.25,
          "velocity": 0.3937007874015748
        },
        {
          "duration": 0.25,
          "durationTicks": 192,
          "midi": 45,
          "name": "A2",
          "ticks": 220800,
          "time": 287.5,
          "velocity": 0.3937007874015748
        },
        {
          "duration": 0.25,
          "durationTicks": 192,
          "midi": 57,
          "name": "A3",
          "ticks": 220992,
          "time": 287.75,
          "velocity": 0.3937007874015748
        },
        {
          "duration": 0.25,
          "durationTicks": 192,
          "midi": 43,
          "name": "G2",
          "ticks": 221184,
          "time": 288,
          "velocity": 0.3937007874015748
        },
        {
          "duration": 0.25,
          "durationTicks": 192,
          "midi": 55,
          "name": "G3",
          "ticks": 221376,
          "time": 288.25,
          "velocity": 0.3937007874015748
        },
        {
          "duration": 0.25,
          "durationTicks": 192,
          "midi": 43,
          "name": "G2",
          "ticks": 221568,
          "time": 288.5,
          "velocity": 0.3937007874015748
        },
        {
          "duration": 0.25,
          "durationTicks": 192,
          "midi": 55,
          "name": "G3",
          "ticks": 221760,
          "time": 288.75,
          "velocity": 0.3937007874015748
        },
        {
          "duration": 0.25,
          "durationTicks": 192,
          "midi": 43,
          "name": "G2",
          "ticks": 221952,
          "time": 289,
          "velocity": 0.3937007874015748
        },
        {
          "duration": 0.25,
          "durationTicks": 192,
          "midi": 55,
          "name": "G3",
          "ticks": 222144,
          "time": 289.25,
          "velocity": 0.3937007874015748
        },
        {
          "duration": 0.25,
          "durationTicks": 192,
          "midi": 43,
          "name": "G2",
          "ticks": 222336,
          "time": 289.5,
          "velocity": 0.3937007874015748
        },
        {
          "duration": 0.25,
          "durationTicks": 192,
          "midi": 55,
          "name": "G3",
          "ticks": 222528,
          "time": 289.75,
          "velocity": 0.3937007874015748
        },
        {
          "duration": 0.25,
          "durationTicks": 192,
          "midi": 39,
          "name": "D#2",
          "ticks": 222720,
          "time": 290,
          "velocity": 0.3937007874015748
        },
        {
          "duration": 0.25,
          "durationTicks": 192,
          "midi": 51,
          "name": "D#3",
          "ticks": 222912,
          "time": 290.25,
          "velocity": 0.3937007874015748
        },
        {
          "duration": 0.25,
          "durationTicks": 192,
          "midi": 39,
          "name": "D#2",
          "ticks": 223104,
          "time": 290.5,
          "velocity": 0.3937007874015748
        },
        {
          "duration": 0.25,
          "durationTicks": 192,
          "midi": 51,
          "name": "D#3",
          "ticks": 223296,
          "time": 290.75,
          "velocity": 0.3937007874015748
        },
        {
          "duration": 0.25,
          "durationTicks": 192,
          "midi": 39,
          "name": "D#2",
          "ticks": 223488,
          "time": 291,
          "velocity": 0.3937007874015748
        },
        {
          "duration": 0.25,
          "durationTicks": 192,
          "midi": 51,
          "name": "D#3",
          "ticks": 223680,
          "time": 291.25,
          "velocity": 0.3937007874015748
        },
        {
          "duration": 0.25,
          "durationTicks": 192,
          "midi": 39,
          "name": "D#2",
          "ticks": 223872,
          "time": 291.5,
          "velocity": 0.3937007874015748
        },
        {
          "duration": 0.25,
          "durationTicks": 192,
          "midi": 51,
          "name": "D#3",
          "ticks": 224064,
          "time": 291.75,
          "velocity": 0.3937007874015748
        },
        {
          "duration": 0.25,
          "durationTicks": 192,
          "midi": 46,
          "name": "A#2",
          "ticks": 224256,
          "time": 292,
          "velocity": 0.3937007874015748
        },
        {
          "duration": 0.25,
          "durationTicks": 192,
          "midi": 58,
          "name": "A#3",
          "ticks": 224448,
          "time": 292.25,
          "velocity": 0.3937007874015748
        },
        {
          "duration": 0.25,
          "durationTicks": 192,
          "midi": 46,
          "name": "A#2",
          "ticks": 224640,
          "time": 292.5,
          "velocity": 0.3937007874015748
        },
        {
          "duration": 0.25,
          "durationTicks": 192,
          "midi": 58,
          "name": "A#3",
          "ticks": 224832,
          "time": 292.75,
          "velocity": 0.3937007874015748
        },
        {
          "duration": 0.25,
          "durationTicks": 192,
          "midi": 46,
          "name": "A#2",
          "ticks": 225024,
          "time": 293,
          "velocity": 0.3937007874015748
        },
        {
          "duration": 0.25,
          "durationTicks": 192,
          "midi": 58,
          "name": "A#3",
          "ticks": 225216,
          "time": 293.25,
          "velocity": 0.3937007874015748
        },
        {
          "duration": 0.25,
          "durationTicks": 192,
          "midi": 46,
          "name": "A#2",
          "ticks": 225408,
          "time": 293.5,
          "velocity": 0.3937007874015748
        },
        {
          "duration": 0.25,
          "durationTicks": 192,
          "midi": 58,
          "name": "A#3",
          "ticks": 225600,
          "time": 293.75,
          "velocity": 0.3937007874015748
        },
        {
          "duration": 0.25,
          "durationTicks": 192,
          "midi": 46,
          "name": "A#2",
          "ticks": 225792,
          "time": 294,
          "velocity": 0.3937007874015748
        },
        {
          "duration": 0.25,
          "durationTicks": 192,
          "midi": 58,
          "name": "A#3",
          "ticks": 225984,
          "time": 294.25,
          "velocity": 0.3937007874015748
        },
        {
          "duration": 0.25,
          "durationTicks": 192,
          "midi": 46,
          "name": "A#2",
          "ticks": 226176,
          "time": 294.5,
          "velocity": 0.3937007874015748
        },
        {
          "duration": 0.25,
          "durationTicks": 192,
          "midi": 58,
          "name": "A#3",
          "ticks": 226368,
          "time": 294.75,
          "velocity": 0.3937007874015748
        },
        {
          "duration": 0.25,
          "durationTicks": 192,
          "midi": 46,
          "name": "A#2",
          "ticks": 226560,
          "time": 295,
          "velocity": 0.3937007874015748
        },
        {
          "duration": 0.25,
          "durationTicks": 192,
          "midi": 58,
          "name": "A#3",
          "ticks": 226752,
          "time": 295.25,
          "velocity": 0.3937007874015748
        },
        {
          "duration": 0.25,
          "durationTicks": 192,
          "midi": 46,
          "name": "A#2",
          "ticks": 226944,
          "time": 295.5,
          "velocity": 0.3937007874015748
        },
        {
          "duration": 0.25,
          "durationTicks": 192,
          "midi": 58,
          "name": "A#3",
          "ticks": 227136,
          "time": 295.75,
          "velocity": 0.3937007874015748
        },
        {
          "duration": 0.25,
          "durationTicks": 192,
          "midi": 43,
          "name": "G2",
          "ticks": 227328,
          "time": 296,
          "velocity": 0.3937007874015748
        },
        {
          "duration": 0.25,
          "durationTicks": 192,
          "midi": 55,
          "name": "G3",
          "ticks": 227520,
          "time": 296.25,
          "velocity": 0.3937007874015748
        },
        {
          "duration": 0.25,
          "durationTicks": 192,
          "midi": 43,
          "name": "G2",
          "ticks": 227712,
          "time": 296.5,
          "velocity": 0.3937007874015748
        },
        {
          "duration": 0.25,
          "durationTicks": 192,
          "midi": 55,
          "name": "G3",
          "ticks": 227904,
          "time": 296.75,
          "velocity": 0.3937007874015748
        },
        {
          "duration": 0.25,
          "durationTicks": 192,
          "midi": 43,
          "name": "G2",
          "ticks": 228096,
          "time": 297,
          "velocity": 0.3937007874015748
        },
        {
          "duration": 0.25,
          "durationTicks": 192,
          "midi": 55,
          "name": "G3",
          "ticks": 228288,
          "time": 297.25,
          "velocity": 0.3937007874015748
        },
        {
          "duration": 0.25,
          "durationTicks": 192,
          "midi": 43,
          "name": "G2",
          "ticks": 228480,
          "time": 297.5,
          "velocity": 0.3937007874015748
        },
        {
          "duration": 0.25,
          "durationTicks": 192,
          "midi": 55,
          "name": "G3",
          "ticks": 228672,
          "time": 297.75,
          "velocity": 0.3937007874015748
        },
        {
          "duration": 0.25,
          "durationTicks": 192,
          "midi": 39,
          "name": "D#2",
          "ticks": 228864,
          "time": 298,
          "velocity": 0.3937007874015748
        },
        {
          "duration": 0.25,
          "durationTicks": 192,
          "midi": 51,
          "name": "D#3",
          "ticks": 229056,
          "time": 298.25,
          "velocity": 0.3937007874015748
        },
        {
          "duration": 0.25,
          "durationTicks": 192,
          "midi": 39,
          "name": "D#2",
          "ticks": 229248,
          "time": 298.5,
          "velocity": 0.3937007874015748
        },
        {
          "duration": 0.25,
          "durationTicks": 192,
          "midi": 51,
          "name": "D#3",
          "ticks": 229440,
          "time": 298.75,
          "velocity": 0.3937007874015748
        },
        {
          "duration": 0.25,
          "durationTicks": 192,
          "midi": 39,
          "name": "D#2",
          "ticks": 229632,
          "time": 299,
          "velocity": 0.3937007874015748
        },
        {
          "duration": 0.25,
          "durationTicks": 192,
          "midi": 51,
          "name": "D#3",
          "ticks": 229824,
          "time": 299.25,
          "velocity": 0.3937007874015748
        },
        {
          "duration": 0.25,
          "durationTicks": 192,
          "midi": 39,
          "name": "D#2",
          "ticks": 230016,
          "time": 299.5,
          "velocity": 0.3937007874015748
        },
        {
          "duration": 0.25,
          "durationTicks": 192,
          "midi": 51,
          "name": "D#3",
          "ticks": 230208,
          "time": 299.75,
          "velocity": 0.3937007874015748
        },
        {
          "duration": 0.25,
          "durationTicks": 192,
          "midi": 46,
          "name": "A#2",
          "ticks": 230400,
          "time": 300,
          "velocity": 0.3937007874015748
        },
        {
          "duration": 0.25,
          "durationTicks": 192,
          "midi": 58,
          "name": "A#3",
          "ticks": 230592,
          "time": 300.25,
          "velocity": 0.3937007874015748
        },
        {
          "duration": 0.25,
          "durationTicks": 192,
          "midi": 46,
          "name": "A#2",
          "ticks": 230784,
          "time": 300.5,
          "velocity": 0.3937007874015748
        },
        {
          "duration": 0.25,
          "durationTicks": 192,
          "midi": 58,
          "name": "A#3",
          "ticks": 230976,
          "time": 300.75,
          "velocity": 0.3937007874015748
        },
        {
          "duration": 0.25,
          "durationTicks": 192,
          "midi": 46,
          "name": "A#2",
          "ticks": 231168,
          "time": 301,
          "velocity": 0.3937007874015748
        },
        {
          "duration": 0.25,
          "durationTicks": 192,
          "midi": 58,
          "name": "A#3",
          "ticks": 231360,
          "time": 301.25,
          "velocity": 0.3937007874015748
        },
        {
          "duration": 0.25,
          "durationTicks": 192,
          "midi": 46,
          "name": "A#2",
          "ticks": 231552,
          "time": 301.5,
          "velocity": 0.3937007874015748
        },
        {
          "duration": 0.25,
          "durationTicks": 192,
          "midi": 58,
          "name": "A#3",
          "ticks": 231744,
          "time": 301.75,
          "velocity": 0.3937007874015748
        },
        {
          "duration": 0.25,
          "durationTicks": 192,
          "midi": 45,
          "name": "A2",
          "ticks": 231936,
          "time": 302,
          "velocity": 0.3937007874015748
        },
        {
          "duration": 0.25,
          "durationTicks": 192,
          "midi": 57,
          "name": "A3",
          "ticks": 232128,
          "time": 302.25,
          "velocity": 0.3937007874015748
        },
        {
          "duration": 0.25,
          "durationTicks": 192,
          "midi": 45,
          "name": "A2",
          "ticks": 232320,
          "time": 302.5,
          "velocity": 0.3937007874015748
        },
        {
          "duration": 0.25,
          "durationTicks": 192,
          "midi": 57,
          "name": "A3",
          "ticks": 232512,
          "time": 302.75,
          "velocity": 0.3937007874015748
        },
        {
          "duration": 0.25,
          "durationTicks": 192,
          "midi": 45,
          "name": "A2",
          "ticks": 232704,
          "time": 303,
          "velocity": 0.3937007874015748
        },
        {
          "duration": 0.25,
          "durationTicks": 192,
          "midi": 57,
          "name": "A3",
          "ticks": 232896,
          "time": 303.25,
          "velocity": 0.3937007874015748
        },
        {
          "duration": 0.25,
          "durationTicks": 192,
          "midi": 45,
          "name": "A2",
          "ticks": 233088,
          "time": 303.5,
          "velocity": 0.3937007874015748
        },
        {
          "duration": 0.25,
          "durationTicks": 192,
          "midi": 57,
          "name": "A3",
          "ticks": 233280,
          "time": 303.75,
          "velocity": 0.3937007874015748
        },
        {
          "duration": 0.25,
          "durationTicks": 192,
          "midi": 43,
          "name": "G2",
          "ticks": 233472,
          "time": 304,
          "velocity": 0.3937007874015748
        },
        {
          "duration": 0.25,
          "durationTicks": 192,
          "midi": 55,
          "name": "G3",
          "ticks": 233664,
          "time": 304.25,
          "velocity": 0.3937007874015748
        },
        {
          "duration": 0.25,
          "durationTicks": 192,
          "midi": 43,
          "name": "G2",
          "ticks": 233856,
          "time": 304.5,
          "velocity": 0.3937007874015748
        },
        {
          "duration": 0.25,
          "durationTicks": 192,
          "midi": 55,
          "name": "G3",
          "ticks": 234048,
          "time": 304.75,
          "velocity": 0.3937007874015748
        },
        {
          "duration": 0.25,
          "durationTicks": 192,
          "midi": 43,
          "name": "G2",
          "ticks": 234240,
          "time": 305,
          "velocity": 0.3937007874015748
        },
        {
          "duration": 0.25,
          "durationTicks": 192,
          "midi": 55,
          "name": "G3",
          "ticks": 234432,
          "time": 305.25,
          "velocity": 0.3937007874015748
        },
        {
          "duration": 0.25,
          "durationTicks": 192,
          "midi": 43,
          "name": "G2",
          "ticks": 234624,
          "time": 305.5,
          "velocity": 0.3937007874015748
        },
        {
          "duration": 0.25,
          "durationTicks": 192,
          "midi": 55,
          "name": "G3",
          "ticks": 234816,
          "time": 305.75,
          "velocity": 0.3937007874015748
        },
        {
          "duration": 0.25,
          "durationTicks": 192,
          "midi": 39,
          "name": "D#2",
          "ticks": 235008,
          "time": 306,
          "velocity": 0.3937007874015748
        },
        {
          "duration": 0.25,
          "durationTicks": 192,
          "midi": 51,
          "name": "D#3",
          "ticks": 235200,
          "time": 306.25,
          "velocity": 0.3937007874015748
        },
        {
          "duration": 0.25,
          "durationTicks": 192,
          "midi": 39,
          "name": "D#2",
          "ticks": 235392,
          "time": 306.5,
          "velocity": 0.3937007874015748
        },
        {
          "duration": 0.25,
          "durationTicks": 192,
          "midi": 51,
          "name": "D#3",
          "ticks": 235584,
          "time": 306.75,
          "velocity": 0.3937007874015748
        },
        {
          "duration": 0.25,
          "durationTicks": 192,
          "midi": 39,
          "name": "D#2",
          "ticks": 235776,
          "time": 307,
          "velocity": 0.3937007874015748
        },
        {
          "duration": 0.25,
          "durationTicks": 192,
          "midi": 51,
          "name": "D#3",
          "ticks": 235968,
          "time": 307.25,
          "velocity": 0.3937007874015748
        },
        {
          "duration": 0.25,
          "durationTicks": 192,
          "midi": 39,
          "name": "D#2",
          "ticks": 236160,
          "time": 307.5,
          "velocity": 0.3937007874015748
        },
        {
          "duration": 0.25,
          "durationTicks": 192,
          "midi": 51,
          "name": "D#3",
          "ticks": 236352,
          "time": 307.75,
          "velocity": 0.3937007874015748
        },
        {
          "duration": 0.25,
          "durationTicks": 192,
          "midi": 46,
          "name": "A#2",
          "ticks": 236544,
          "time": 308,
          "velocity": 0.3937007874015748
        },
        {
          "duration": 0.25,
          "durationTicks": 192,
          "midi": 58,
          "name": "A#3",
          "ticks": 236736,
          "time": 308.25,
          "velocity": 0.3937007874015748
        },
        {
          "duration": 0.25,
          "durationTicks": 192,
          "midi": 46,
          "name": "A#2",
          "ticks": 236928,
          "time": 308.5,
          "velocity": 0.3937007874015748
        },
        {
          "duration": 0.25,
          "durationTicks": 192,
          "midi": 58,
          "name": "A#3",
          "ticks": 237120,
          "time": 308.75,
          "velocity": 0.3937007874015748
        },
        {
          "duration": 0.25,
          "durationTicks": 192,
          "midi": 46,
          "name": "A#2",
          "ticks": 237312,
          "time": 309,
          "velocity": 0.3937007874015748
        },
        {
          "duration": 0.25,
          "durationTicks": 192,
          "midi": 58,
          "name": "A#3",
          "ticks": 237504,
          "time": 309.25,
          "velocity": 0.3937007874015748
        },
        {
          "duration": 0.25,
          "durationTicks": 192,
          "midi": 46,
          "name": "A#2",
          "ticks": 237696,
          "time": 309.5,
          "velocity": 0.3937007874015748
        },
        {
          "duration": 0.25,
          "durationTicks": 192,
          "midi": 58,
          "name": "A#3",
          "ticks": 237888,
          "time": 309.75,
          "velocity": 0.3937007874015748
        },
        {
          "duration": 0.25,
          "durationTicks": 192,
          "midi": 45,
          "name": "A2",
          "ticks": 238080,
          "time": 310,
          "velocity": 0.3937007874015748
        },
        {
          "duration": 0.25,
          "durationTicks": 192,
          "midi": 57,
          "name": "A3",
          "ticks": 238272,
          "time": 310.25,
          "velocity": 0.3937007874015748
        },
        {
          "duration": 0.25,
          "durationTicks": 192,
          "midi": 45,
          "name": "A2",
          "ticks": 238464,
          "time": 310.5,
          "velocity": 0.3937007874015748
        },
        {
          "duration": 0.25,
          "durationTicks": 192,
          "midi": 57,
          "name": "A3",
          "ticks": 238656,
          "time": 310.75,
          "velocity": 0.3937007874015748
        },
        {
          "duration": 0.25,
          "durationTicks": 192,
          "midi": 45,
          "name": "A2",
          "ticks": 238848,
          "time": 311,
          "velocity": 0.3937007874015748
        },
        {
          "duration": 0.25,
          "durationTicks": 192,
          "midi": 57,
          "name": "A3",
          "ticks": 239040,
          "time": 311.25,
          "velocity": 0.3937007874015748
        },
        {
          "duration": 0.25,
          "durationTicks": 192,
          "midi": 45,
          "name": "A2",
          "ticks": 239232,
          "time": 311.5,
          "velocity": 0.3937007874015748
        },
        {
          "duration": 0.25,
          "durationTicks": 192,
          "midi": 57,
          "name": "A3",
          "ticks": 239424,
          "time": 311.75,
          "velocity": 0.3937007874015748
        },
        {
          "duration": 0.25,
          "durationTicks": 192,
          "midi": 43,
          "name": "G2",
          "ticks": 239616,
          "time": 312,
          "velocity": 0.3937007874015748
        },
        {
          "duration": 0.25,
          "durationTicks": 192,
          "midi": 55,
          "name": "G3",
          "ticks": 239808,
          "time": 312.25,
          "velocity": 0.3937007874015748
        },
        {
          "duration": 0.25,
          "durationTicks": 192,
          "midi": 43,
          "name": "G2",
          "ticks": 240000,
          "time": 312.5,
          "velocity": 0.3937007874015748
        },
        {
          "duration": 0.25,
          "durationTicks": 192,
          "midi": 55,
          "name": "G3",
          "ticks": 240192,
          "time": 312.75,
          "velocity": 0.3937007874015748
        },
        {
          "duration": 0.25,
          "durationTicks": 192,
          "midi": 43,
          "name": "G2",
          "ticks": 240384,
          "time": 313,
          "velocity": 0.3937007874015748
        },
        {
          "duration": 0.25,
          "durationTicks": 192,
          "midi": 55,
          "name": "G3",
          "ticks": 240576,
          "time": 313.25,
          "velocity": 0.3937007874015748
        },
        {
          "duration": 0.25,
          "durationTicks": 192,
          "midi": 43,
          "name": "G2",
          "ticks": 240768,
          "time": 313.5,
          "velocity": 0.3937007874015748
        },
        {
          "duration": 0.25,
          "durationTicks": 192,
          "midi": 55,
          "name": "G3",
          "ticks": 240960,
          "time": 313.75,
          "velocity": 0.3937007874015748
        },
        {
          "duration": 0.25,
          "durationTicks": 192,
          "midi": 39,
          "name": "D#2",
          "ticks": 241152,
          "time": 314,
          "velocity": 0.3937007874015748
        },
        {
          "duration": 0.25,
          "durationTicks": 192,
          "midi": 51,
          "name": "D#3",
          "ticks": 241344,
          "time": 314.25,
          "velocity": 0.3937007874015748
        },
        {
          "duration": 0.25,
          "durationTicks": 192,
          "midi": 39,
          "name": "D#2",
          "ticks": 241536,
          "time": 314.5,
          "velocity": 0.3937007874015748
        },
        {
          "duration": 0.25,
          "durationTicks": 192,
          "midi": 51,
          "name": "D#3",
          "ticks": 241728,
          "time": 314.75,
          "velocity": 0.3937007874015748
        },
        {
          "duration": 0.25,
          "durationTicks": 192,
          "midi": 39,
          "name": "D#2",
          "ticks": 241920,
          "time": 315,
          "velocity": 0.3937007874015748
        },
        {
          "duration": 0.25,
          "durationTicks": 192,
          "midi": 51,
          "name": "D#3",
          "ticks": 242112,
          "time": 315.25,
          "velocity": 0.3937007874015748
        },
        {
          "duration": 0.25,
          "durationTicks": 192,
          "midi": 39,
          "name": "D#2",
          "ticks": 242304,
          "time": 315.5,
          "velocity": 0.3937007874015748
        },
        {
          "duration": 0.25,
          "durationTicks": 192,
          "midi": 51,
          "name": "D#3",
          "ticks": 242496,
          "time": 315.75,
          "velocity": 0.3937007874015748
        },
        {
          "duration": 0.25,
          "durationTicks": 192,
          "midi": 46,
          "name": "A#2",
          "ticks": 242688,
          "time": 316,
          "velocity": 0.3937007874015748
        },
        {
          "duration": 0.25,
          "durationTicks": 192,
          "midi": 58,
          "name": "A#3",
          "ticks": 242880,
          "time": 316.25,
          "velocity": 0.3937007874015748
        },
        {
          "duration": 0.25,
          "durationTicks": 192,
          "midi": 46,
          "name": "A#2",
          "ticks": 243072,
          "time": 316.5,
          "velocity": 0.3937007874015748
        },
        {
          "duration": 0.25,
          "durationTicks": 192,
          "midi": 58,
          "name": "A#3",
          "ticks": 243264,
          "time": 316.75,
          "velocity": 0.3937007874015748
        },
        {
          "duration": 0.25,
          "durationTicks": 192,
          "midi": 46,
          "name": "A#2",
          "ticks": 243456,
          "time": 317,
          "velocity": 0.3937007874015748
        },
        {
          "duration": 0.25,
          "durationTicks": 192,
          "midi": 58,
          "name": "A#3",
          "ticks": 243648,
          "time": 317.25,
          "velocity": 0.3937007874015748
        },
        {
          "duration": 0.25,
          "durationTicks": 192,
          "midi": 46,
          "name": "A#2",
          "ticks": 243840,
          "time": 317.5,
          "velocity": 0.3937007874015748
        },
        {
          "duration": 0.25,
          "durationTicks": 192,
          "midi": 58,
          "name": "A#3",
          "ticks": 244032,
          "time": 317.75,
          "velocity": 0.3937007874015748
        },
        {
          "duration": 0.25,
          "durationTicks": 192,
          "midi": 46,
          "name": "A#2",
          "ticks": 244224,
          "time": 318,
          "velocity": 0.3937007874015748
        },
        {
          "duration": 0.25,
          "durationTicks": 192,
          "midi": 58,
          "name": "A#3",
          "ticks": 244416,
          "time": 318.25,
          "velocity": 0.3937007874015748
        },
        {
          "duration": 0.25,
          "durationTicks": 192,
          "midi": 46,
          "name": "A#2",
          "ticks": 244608,
          "time": 318.5,
          "velocity": 0.3937007874015748
        },
        {
          "duration": 0.25,
          "durationTicks": 192,
          "midi": 58,
          "name": "A#3",
          "ticks": 244800,
          "time": 318.75,
          "velocity": 0.3937007874015748
        },
        {
          "duration": 0.25,
          "durationTicks": 192,
          "midi": 46,
          "name": "A#2",
          "ticks": 244992,
          "time": 319,
          "velocity": 0.3937007874015748
        },
        {
          "duration": 0.25,
          "durationTicks": 192,
          "midi": 58,
          "name": "A#3",
          "ticks": 245184,
          "time": 319.25,
          "velocity": 0.3937007874015748
        },
        {
          "duration": 0.25,
          "durationTicks": 192,
          "midi": 46,
          "name": "A#2",
          "ticks": 245376,
          "time": 319.5,
          "velocity": 0.3937007874015748
        },
        {
          "duration": 0.25,
          "durationTicks": 192,
          "midi": 58,
          "name": "A#3",
          "ticks": 245568,
          "time": 319.75,
          "velocity": 0.3937007874015748
        }
      ],
      "endOfTrackTicks": 245760
    },
    {
      "channel": 4,
      "controlChanges": {},
      "pitchBends": [],
      "instrument": {
        "family": "guitar",
        "number": 28,
        "name": "electric guitar (muted)"
      },
      "name": "Muted E-Guitar",
      "notes": [
        {
          "duration": 2.5,
          "durationTicks": 1920,
          "midi": 62,
          "name": "D4",
          "ticks": 148992,
          "time": 194,
          "velocity": 0.3937007874015748
        },
        {
          "duration": 2.5,
          "durationTicks": 1920,
          "midi": 53,
          "name": "F3",
          "ticks": 148996,
          "time": 194.00520833333334,
          "velocity": 0.3937007874015748
        },
        {
          "duration": 2.625,
          "durationTicks": 2016,
          "midi": 58,
          "name": "A#3",
          "ticks": 148996,
          "time": 194.00520833333334,
          "velocity": 0.3937007874015748
        },
        {
          "duration": 0.25,
          "durationTicks": 192,
          "midi": 58,
          "name": "A#3",
          "ticks": 151100,
          "time": 196.74479166666666,
          "velocity": 0.3937007874015748
        },
        {
          "duration": 0.25,
          "durationTicks": 192,
          "midi": 55,
          "name": "G3",
          "ticks": 151104,
          "time": 196.75,
          "velocity": 0.3937007874015748
        },
        {
          "duration": 0.25,
          "durationTicks": 192,
          "midi": 63,
          "name": "D#4",
          "ticks": 151108,
          "time": 196.75520833333334,
          "velocity": 0.3937007874015748
        },
        {
          "duration": 0.25,
          "durationTicks": 192,
          "midi": 65,
          "name": "F4",
          "ticks": 151484,
          "time": 197.24479166666666,
          "velocity": 0.3937007874015748
        },
        {
          "duration": 0.25,
          "durationTicks": 192,
          "midi": 60,
          "name": "C4",
          "ticks": 151492,
          "time": 197.25520833333334,
          "velocity": 0.3937007874015748
        },
        {
          "duration": 0.25,
          "durationTicks": 192,
          "midi": 57,
          "name": "A3",
          "ticks": 151492,
          "time": 197.25520833333334,
          "velocity": 0.3937007874015748
        },
        {
          "duration": 0.25,
          "durationTicks": 192,
          "midi": 57,
          "name": "A3",
          "ticks": 151861,
          "time": 197.73567708333334,
          "velocity": 0.3937007874015748
        },
        {
          "duration": 0.25,
          "durationTicks": 192,
          "midi": 53,
          "name": "F3",
          "ticks": 151861,
          "time": 197.73567708333334,
          "velocity": 0.3937007874015748
        },
        {
          "duration": 0.375,
          "durationTicks": 288,
          "midi": 60,
          "name": "C4",
          "ticks": 151861,
          "time": 197.73567708333334,
          "velocity": 0.3937007874015748
        },
        {
          "duration": 0.125,
          "durationTicks": 96,
          "midi": 53,
          "name": "F3",
          "ticks": 152260,
          "time": 198.25520833333334,
          "velocity": 0.3937007874015748
        },
        {
          "duration": 0.125,
          "durationTicks": 96,
          "midi": 58,
          "name": "A#3",
          "ticks": 152272,
          "time": 198.27083333333334,
          "velocity": 0.3937007874015748
        },
        {
          "duration": 0.125,
          "durationTicks": 96,
          "midi": 62,
          "name": "D4",
          "ticks": 152276,
          "time": 198.27604166666666,
          "velocity": 0.3937007874015748
        },
        {
          "duration": 2.375,
          "durationTicks": 1824,
          "midi": 62,
          "name": "D4",
          "ticks": 152444,
          "time": 198.49479166666666,
          "velocity": 0.3937007874015748
        },
        {
          "duration": 2.375,
          "durationTicks": 1824,
          "midi": 58,
          "name": "A#3",
          "ticks": 152448,
          "time": 198.5,
          "velocity": 0.3937007874015748
        },
        {
          "duration": 2.375,
          "durationTicks": 1824,
          "midi": 53,
          "name": "F3",
          "ticks": 152452,
          "time": 198.50520833333334,
          "velocity": 0.3937007874015748
        },
        {
          "duration": 0.25,
          "durationTicks": 192,
          "midi": 58,
          "name": "A#3",
          "ticks": 154357,
          "time": 200.98567708333334,
          "velocity": 0.3937007874015748
        },
        {
          "duration": 0.375,
          "durationTicks": 288,
          "midi": 62,
          "name": "D4",
          "ticks": 154357,
          "time": 200.98567708333334,
          "velocity": 0.3937007874015748
        },
        {
          "duration": 0.375,
          "durationTicks": 288,
          "midi": 53,
          "name": "F3",
          "ticks": 154365,
          "time": 200.99609375,
          "velocity": 0.3937007874015748
        },
        {
          "duration": 0.25,
          "durationTicks": 192,
          "midi": 60,
          "name": "C4",
          "ticks": 154733,
          "time": 201.47526041666666,
          "velocity": 0.3937007874015748
        },
        {
          "duration": 0.25,
          "durationTicks": 192,
          "midi": 57,
          "name": "A3",
          "ticks": 154733,
          "time": 201.47526041666666,
          "velocity": 0.3937007874015748
        },
        {
          "duration": 0.25,
          "durationTicks": 192,
          "midi": 53,
          "name": "F3",
          "ticks": 154733,
          "time": 201.47526041666666,
          "velocity": 0.3937007874015748
        },
        {
          "duration": 1.875,
          "durationTicks": 1440,
          "midi": 55,
          "name": "G3",
          "ticks": 155121,
          "time": 201.98046875,
          "velocity": 0.3937007874015748
        },
        {
          "duration": 1.75,
          "durationTicks": 1344,
          "midi": 50,
          "name": "D3",
          "ticks": 155126,
          "time": 201.98697916666666,
          "velocity": 0.3937007874015748
        },
        {
          "duration": 1.875,
          "durationTicks": 1440,
          "midi": 58,
          "name": "A#3",
          "ticks": 155126,
          "time": 201.98697916666666,
          "velocity": 0.3937007874015748
        },
        {
          "duration": 1.5,
          "durationTicks": 1152,
          "midi": 51,
          "name": "D#3",
          "ticks": 156677,
          "time": 204.00651041666666,
          "velocity": 0.3937007874015748
        },
        {
          "duration": 1.125,
          "durationTicks": 864,
          "midi": 55,
          "name": "G3",
          "ticks": 156681,
          "time": 204.01171875,
          "velocity": 0.3937007874015748
        },
        {
          "duration": 1.125,
          "durationTicks": 864,
          "midi": 58,
          "name": "A#3",
          "ticks": 156681,
          "time": 204.01171875,
          "velocity": 0.3937007874015748
        },
        {
          "duration": 0.375,
          "durationTicks": 288,
          "midi": 60,
          "name": "C4",
          "ticks": 157629,
          "time": 205.24609375,
          "velocity": 0.3937007874015748
        },
        {
          "duration": 0.25,
          "durationTicks": 192,
          "midi": 55,
          "name": "G3",
          "ticks": 157633,
          "time": 205.25130208333334,
          "velocity": 0.3937007874015748
        },
        {
          "duration": 2.75,
          "durationTicks": 2112,
          "midi": 50,
          "name": "D3",
          "ticks": 158017,
          "time": 205.75130208333334,
          "velocity": 0.3937007874015748
        },
        {
          "duration": 2.75,
          "durationTicks": 2112,
          "midi": 53,
          "name": "F3",
          "ticks": 158017,
          "time": 205.75130208333334,
          "velocity": 0.3937007874015748
        },
        {
          "duration": 2.875,
          "durationTicks": 2208,
          "midi": 58,
          "name": "A#3",
          "ticks": 158017,
          "time": 205.75130208333334,
          "velocity": 0.3937007874015748
        },
        {
          "duration": 0.5013020833333144,
          "durationTicks": 385,
          "midi": 62,
          "name": "D4",
          "ticks": 160513,
          "time": 209.00130208333334,
          "velocity": 0.3937007874015748
        },
        {
          "duration": 0.25,
          "durationTicks": 192,
          "midi": 58,
          "name": "A#3",
          "ticks": 160517,
          "time": 209.00651041666666,
          "velocity": 0.3937007874015748
        },
        {
          "duration": 0.25,
          "durationTicks": 192,
          "midi": 55,
          "name": "G3",
          "ticks": 160521,
          "time": 209.01171875,
          "velocity": 0.3937007874015748
        },
        {
          "duration": 0.25,
          "durationTicks": 192,
          "midi": 60,
          "name": "C4",
          "ticks": 160886,
          "time": 209.48697916666666,
          "velocity": 0.3937007874015748
        },
        {
          "duration": 0.25,
          "durationTicks": 192,
          "midi": 57,
          "name": "A3",
          "ticks": 160886,
          "time": 209.48697916666666,
          "velocity": 0.3937007874015748
        },
        {
          "duration": 0.25,
          "durationTicks": 192,
          "midi": 53,
          "name": "F3",
          "ticks": 160890,
          "time": 209.4921875,
          "velocity": 0.3937007874015748
        },
        {
          "duration": 1.875,
          "durationTicks": 1440,
          "midi": 55,
          "name": "G3",
          "ticks": 161265,
          "time": 209.98046875,
          "velocity": 0.3937007874015748
        },
        {
          "duration": 2,
          "durationTicks": 1536,
          "midi": 58,
          "name": "A#3",
          "ticks": 161265,
          "time": 209.98046875,
          "velocity": 0.3937007874015748
        },
        {
          "duration": 1.75,
          "durationTicks": 1344,
          "midi": 50,
          "name": "D3",
          "ticks": 161274,
          "time": 209.9921875,
          "velocity": 0.3937007874015748
        },
        {
          "duration": 1.25,
          "durationTicks": 960,
          "midi": 55,
          "name": "G3",
          "ticks": 162813,
          "time": 211.99609375,
          "velocity": 0.3937007874015748
        },
        {
          "duration": 1.25,
          "durationTicks": 960,
          "midi": 51,
          "name": "D#3",
          "ticks": 162813,
          "time": 211.99609375,
          "velocity": 0.3937007874015748
        },
        {
          "duration": 1.25,
          "durationTicks": 960,
          "midi": 58,
          "name": "A#3",
          "ticks": 162817,
          "time": 212.00130208333334,
          "velocity": 0.3937007874015748
        },
        {
          "duration": 0.2513020833333144,
          "durationTicks": 193,
          "midi": 51,
          "name": "D#3",
          "ticks": 163777,
          "time": 213.25130208333334,
          "velocity": 0.3937007874015748
        },
        {
          "duration": 0.2513020833333428,
          "durationTicks": 193,
          "midi": 60,
          "name": "C4",
          "ticks": 163785,
          "time": 213.26171875,
          "velocity": 0.3937007874015748
        },
        {
          "duration": 0.125,
          "durationTicks": 96,
          "midi": 55,
          "name": "G3",
          "ticks": 163790,
          "time": 213.26822916666666,
          "velocity": 0.3937007874015748
        },
        {
          "duration": 4.125,
          "durationTicks": 3168,
          "midi": 50,
          "name": "D3",
          "ticks": 164162,
          "time": 213.75260416666666,
          "velocity": 0.3937007874015748
        },
        {
          "duration": 4.125,
          "durationTicks": 3168,
          "midi": 53,
          "name": "F3",
          "ticks": 164162,
          "time": 213.75260416666666,
          "velocity": 0.3937007874015748
        },
        {
          "duration": 1.875,
          "durationTicks": 1440,
          "midi": 62,
          "name": "D4",
          "ticks": 167418,
          "time": 217.9921875,
          "velocity": 0.3937007874015748
        },
        {
          "duration": 1.875,
          "durationTicks": 1440,
          "midi": 58,
          "name": "A#3",
          "ticks": 167418,
          "time": 217.9921875,
          "velocity": 0.3937007874015748
        },
        {
          "duration": 1.75,
          "durationTicks": 1344,
          "midi": 53,
          "name": "F3",
          "ticks": 167422,
          "time": 217.99739583333334,
          "velocity": 0.3937007874015748
        },
        {
          "duration": 1.125,
          "durationTicks": 864,
          "midi": 58,
          "name": "A#3",
          "ticks": 168942,
          "time": 219.9765625,
          "velocity": 0.3937007874015748
        },
        {
          "duration": 1.125,
          "durationTicks": 864,
          "midi": 55,
          "name": "G3",
          "ticks": 168954,
          "time": 219.9921875,
          "velocity": 0.3937007874015748
        },
        {
          "duration": 1.125,
          "durationTicks": 864,
          "midi": 63,
          "name": "D#4",
          "ticks": 168962,
          "time": 220.00260416666666,
          "velocity": 0.3937007874015748
        },
        {
          "duration": 0.375,
          "durationTicks": 288,
          "midi": 65,
          "name": "F4",
          "ticks": 169934,
          "time": 221.26822916666666,
          "velocity": 0.3937007874015748
        },
        {
          "duration": 0.25,
          "durationTicks": 192,
          "midi": 60,
          "name": "C4",
          "ticks": 169942,
          "time": 221.27864583333334,
          "velocity": 0.3937007874015748
        },
        {
          "duration": 0.25,
          "durationTicks": 192,
          "midi": 57,
          "name": "A3",
          "ticks": 169942,
          "time": 221.27864583333334,
          "velocity": 0.3937007874015748
        },
        {
          "duration": 0.25,
          "durationTicks": 192,
          "midi": 57,
          "name": "A3",
          "ticks": 170322,
          "time": 221.7734375,
          "velocity": 0.3937007874015748
        },
        {
          "duration": 0.25,
          "durationTicks": 192,
          "midi": 53,
          "name": "F3",
          "ticks": 170322,
          "time": 221.7734375,
          "velocity": 0.3937007874015748
        },
        {
          "duration": 0.25,
          "durationTicks": 192,
          "midi": 60,
          "name": "C4",
          "ticks": 170326,
          "time": 221.77864583333334,
          "velocity": 0.3937007874015748
        },
        {
          "duration": 0.2513020833333428,
          "durationTicks": 193,
          "midi": 62,
          "name": "D4",
          "ticks": 170702,
          "time": 222.26822916666666,
          "velocity": 0.3937007874015748
        },
        {
          "duration": 0.125,
          "durationTicks": 96,
          "midi": 58,
          "name": "A#3",
          "ticks": 170706,
          "time": 222.2734375,
          "velocity": 0.3937007874015748
        },
        {
          "duration": 0.125,
          "durationTicks": 96,
          "midi": 55,
          "name": "G3",
          "ticks": 170714,
          "time": 222.28385416666666,
          "velocity": 0.3937007874015748
        },
        {
          "duration": 2.626302083333343,
          "durationTicks": 2017,
          "midi": 62,
          "name": "D4",
          "ticks": 170886,
          "time": 222.5078125,
          "velocity": 0.3937007874015748
        },
        {
          "duration": 2.626302083333343,
          "durationTicks": 2017,
          "midi": 58,
          "name": "A#3",
          "ticks": 170895,
          "time": 222.51953125,
          "velocity": 0.3937007874015748
        },
        {
          "duration": 2.626302083333343,
          "durationTicks": 2017,
          "midi": 53,
          "name": "F3",
          "ticks": 170907,
          "time": 222.53515625,
          "velocity": 0.3937007874015748
        },
        {
          "duration": 2.5,
          "durationTicks": 1920,
          "midi": 62,
          "name": "D4",
          "ticks": 190468,
          "time": 248.00520833333334,
          "velocity": 0.3937007874015748
        },
        {
          "duration": 2.5,
          "durationTicks": 1920,
          "midi": 53,
          "name": "F3",
          "ticks": 190472,
          "time": 248.01041666666666,
          "velocity": 0.3937007874015748
        },
        {
          "duration": 2.625,
          "durationTicks": 2016,
          "midi": 58,
          "name": "A#3",
          "ticks": 190472,
          "time": 248.01041666666666,
          "velocity": 0.3937007874015748
        },
        {
          "duration": 0.25,
          "durationTicks": 192,
          "midi": 58,
          "name": "A#3",
          "ticks": 192576,
          "time": 250.75,
          "velocity": 0.3937007874015748
        },
        {
          "duration": 0.25,
          "durationTicks": 192,
          "midi": 55,
          "name": "G3",
          "ticks": 192580,
          "time": 250.75520833333334,
          "velocity": 0.3937007874015748
        },
        {
          "duration": 0.25,
          "durationTicks": 192,
          "midi": 63,
          "name": "D#4",
          "ticks": 192584,
          "time": 250.76041666666666,
          "velocity": 0.3937007874015748
        },
        {
          "duration": 0.25,
          "durationTicks": 192,
          "midi": 65,
          "name": "F4",
          "ticks": 192960,
          "time": 251.25,
          "velocity": 0.3937007874015748
        },
        {
          "duration": 0.25,
          "durationTicks": 192,
          "midi": 60,
          "name": "C4",
          "ticks": 192968,
          "time": 251.26041666666666,
          "velocity": 0.3937007874015748
        },
        {
          "duration": 0.25,
          "durationTicks": 192,
          "midi": 57,
          "name": "A3",
          "ticks": 192968,
          "time": 251.26041666666666,
          "velocity": 0.3937007874015748
        },
        {
          "duration": 0.25,
          "durationTicks": 192,
          "midi": 57,
          "name": "A3",
          "ticks": 193337,
          "time": 251.74088541666666,
          "velocity": 0.3937007874015748
        },
        {
          "duration": 0.25,
          "durationTicks": 192,
          "midi": 53,
          "name": "F3",
          "ticks": 193337,
          "time": 251.74088541666666,
          "velocity": 0.3937007874015748
        },
        {
          "duration": 0.375,
          "durationTicks": 288,
          "midi": 60,
          "name": "C4",
          "ticks": 193337,
          "time": 251.74088541666666,
          "velocity": 0.3937007874015748
        },
        {
          "duration": 0.125,
          "durationTicks": 96,
          "midi": 53,
          "name": "F3",
          "ticks": 193736,
          "time": 252.26041666666666,
          "velocity": 0.3937007874015748
        },
        {
          "duration": 0.125,
          "durationTicks": 96,
          "midi": 58,
          "name": "A#3",
          "ticks": 193748,
          "time": 252.27604166666666,
          "velocity": 0.3937007874015748
        },
        {
          "duration": 0.125,
          "durationTicks": 96,
          "midi": 62,
          "name": "D4",
          "ticks": 193752,
          "time": 252.28125,
          "velocity": 0.3937007874015748
        },
        {
          "duration": 2.375,
          "durationTicks": 1824,
          "midi": 62,
          "name": "D4",
          "ticks": 193920,
          "time": 252.5,
          "velocity": 0.3937007874015748
        },
        {
          "duration": 2.375,
          "durationTicks": 1824,
          "midi": 58,
          "name": "A#3",
          "ticks": 193924,
          "time": 252.50520833333334,
          "velocity": 0.3937007874015748
        },
        {
          "duration": 2.375,
          "durationTicks": 1824,
          "midi": 53,
          "name": "F3",
          "ticks": 193928,
          "time": 252.51041666666666,
          "velocity": 0.3937007874015748
        },
        {
          "duration": 0.25,
          "durationTicks": 192,
          "midi": 58,
          "name": "A#3",
          "ticks": 195833,
          "time": 254.99088541666666,
          "velocity": 0.3937007874015748
        },
        {
          "duration": 0.375,
          "durationTicks": 288,
          "midi": 62,
          "name": "D4",
          "ticks": 195833,
          "time": 254.99088541666666,
          "velocity": 0.3937007874015748
        },
        {
          "duration": 0.375,
          "durationTicks": 288,
          "midi": 53,
          "name": "F3",
          "ticks": 195841,
          "time": 255.00130208333334,
          "velocity": 0.3937007874015748
        },
        {
          "duration": 0.25,
          "durationTicks": 192,
          "midi": 60,
          "name": "C4",
          "ticks": 196209,
          "time": 255.48046875,
          "velocity": 0.3937007874015748
        },
        {
          "duration": 0.25,
          "durationTicks": 192,
          "midi": 57,
          "name": "A3",
          "ticks": 196209,
          "time": 255.48046875,
          "velocity": 0.3937007874015748
        },
        {
          "duration": 0.25,
          "durationTicks": 192,
          "midi": 53,
          "name": "F3",
          "ticks": 196209,
          "time": 255.48046875,
          "velocity": 0.3937007874015748
        },
        {
          "duration": 1.8749999999999716,
          "durationTicks": 1440,
          "midi": 55,
          "name": "G3",
          "ticks": 196597,
          "time": 255.98567708333334,
          "velocity": 0.3937007874015748
        },
        {
          "duration": 1.75,
          "durationTicks": 1344,
          "midi": 50,
          "name": "D3",
          "ticks": 196602,
          "time": 255.9921875,
          "velocity": 0.3937007874015748
        },
        {
          "duration": 1.875,
          "durationTicks": 1440,
          "midi": 58,
          "name": "A#3",
          "ticks": 196602,
          "time": 255.9921875,
          "velocity": 0.3937007874015748
        },
        {
          "duration": 1.5,
          "durationTicks": 1152,
          "midi": 51,
          "name": "D#3",
          "ticks": 198153,
          "time": 258.01171875,
          "velocity": 0.3937007874015748
        },
        {
          "duration": 1.125,
          "durationTicks": 864,
          "midi": 55,
          "name": "G3",
          "ticks": 198157,
          "time": 258.0169270833333,
          "velocity": 0.3937007874015748
        },
        {
          "duration": 1.125,
          "durationTicks": 864,
          "midi": 58,
          "name": "A#3",
          "ticks": 198157,
          "time": 258.0169270833333,
          "velocity": 0.3937007874015748
        },
        {
          "duration": 0.375,
          "durationTicks": 288,
          "midi": 60,
          "name": "C4",
          "ticks": 199105,
          "time": 259.2513020833333,
          "velocity": 0.3937007874015748
        },
        {
          "duration": 0.25,
          "durationTicks": 192,
          "midi": 55,
          "name": "G3",
          "ticks": 199109,
          "time": 259.2565104166667,
          "velocity": 0.3937007874015748
        },
        {
          "duration": 2.75,
          "durationTicks": 2112,
          "midi": 50,
          "name": "D3",
          "ticks": 199493,
          "time": 259.7565104166667,
          "velocity": 0.3937007874015748
        },
        {
          "duration": 2.75,
          "durationTicks": 2112,
          "midi": 53,
          "name": "F3",
          "ticks": 199493,
          "time": 259.7565104166667,
          "velocity": 0.3937007874015748
        },
        {
          "duration": 2.875,
          "durationTicks": 2208,
          "midi": 58,
          "name": "A#3",
          "ticks": 199493,
          "time": 259.7565104166667,
          "velocity": 0.3937007874015748
        },
        {
          "duration": 0.5013020833333144,
          "durationTicks": 385,
          "midi": 62,
          "name": "D4",
          "ticks": 201989,
          "time": 263.0065104166667,
          "velocity": 0.3937007874015748
        },
        {
          "duration": 0.25,
          "durationTicks": 192,
          "midi": 58,
          "name": "A#3",
          "ticks": 201993,
          "time": 263.01171875,
          "velocity": 0.3937007874015748
        },
        {
          "duration": 0.25,
          "durationTicks": 192,
          "midi": 55,
          "name": "G3",
          "ticks": 201997,
          "time": 263.0169270833333,
          "velocity": 0.3937007874015748
        },
        {
          "duration": 0.25,
          "durationTicks": 192,
          "midi": 60,
          "name": "C4",
          "ticks": 202362,
          "time": 263.4921875,
          "velocity": 0.3937007874015748
        },
        {
          "duration": 0.25,
          "durationTicks": 192,
          "midi": 57,
          "name": "A3",
          "ticks": 202362,
          "time": 263.4921875,
          "velocity": 0.3937007874015748
        },
        {
          "duration": 0.25,
          "durationTicks": 192,
          "midi": 53,
          "name": "F3",
          "ticks": 202366,
          "time": 263.4973958333333,
          "velocity": 0.3937007874015748
        },
        {
          "duration": 1.875,
          "durationTicks": 1440,
          "midi": 55,
          "name": "G3",
          "ticks": 202741,
          "time": 263.9856770833333,
          "velocity": 0.3937007874015748
        },
        {
          "duration": 2,
          "durationTicks": 1536,
          "midi": 58,
          "name": "A#3",
          "ticks": 202741,
          "time": 263.9856770833333,
          "velocity": 0.3937007874015748
        },
        {
          "duration": 1.75,
          "durationTicks": 1344,
          "midi": 50,
          "name": "D3",
          "ticks": 202750,
          "time": 263.9973958333333,
          "velocity": 0.3937007874015748
        },
        {
          "duration": 1.25,
          "durationTicks": 960,
          "midi": 55,
          "name": "G3",
          "ticks": 204289,
          "time": 266.0013020833333,
          "velocity": 0.3937007874015748
        },
        {
          "duration": 1.25,
          "durationTicks": 960,
          "midi": 51,
          "name": "D#3",
          "ticks": 204289,
          "time": 266.0013020833333,
          "velocity": 0.3937007874015748
        },
        {
          "duration": 1.25,
          "durationTicks": 960,
          "midi": 58,
          "name": "A#3",
          "ticks": 204293,
          "time": 266.0065104166667,
          "velocity": 0.3937007874015748
        },
        {
          "duration": 0.2513020833333144,
          "durationTicks": 193,
          "midi": 51,
          "name": "D#3",
          "ticks": 205253,
          "time": 267.2565104166667,
          "velocity": 0.3937007874015748
        },
        {
          "duration": 0.25130208333337123,
          "durationTicks": 193,
          "midi": 60,
          "name": "C4",
          "ticks": 205261,
          "time": 267.2669270833333,
          "velocity": 0.3937007874015748
        },
        {
          "duration": 0.125,
          "durationTicks": 96,
          "midi": 55,
          "name": "G3",
          "ticks": 205266,
          "time": 267.2734375,
          "velocity": 0.3937007874015748
        },
        {
          "duration": 4.125,
          "durationTicks": 3168,
          "midi": 50,
          "name": "D3",
          "ticks": 205638,
          "time": 267.7578125,
          "velocity": 0.3937007874015748
        },
        {
          "duration": 4.125,
          "durationTicks": 3168,
          "midi": 53,
          "name": "F3",
          "ticks": 205638,
          "time": 267.7578125,
          "velocity": 0.3937007874015748
        },
        {
          "duration": 4.125,
          "durationTicks": 3168,
          "midi": 58,
          "name": "A#3",
          "ticks": 205638,
          "time": 267.7578125,
          "velocity": 0.3937007874015748
        },
        {
          "duration": 1.875,
          "durationTicks": 1440,
          "midi": 62,
          "name": "D4",
          "ticks": 208894,
          "time": 271.9973958333333,
          "velocity": 0.3937007874015748
        },
        {
          "duration": 1.875,
          "durationTicks": 1440,
          "midi": 58,
          "name": "A#3",
          "ticks": 208894,
          "time": 271.9973958333333,
          "velocity": 0.3937007874015748
        },
        {
          "duration": 1.75,
          "durationTicks": 1344,
          "midi": 53,
          "name": "F3",
          "ticks": 208898,
          "time": 272.0026041666667,
          "velocity": 0.3937007874015748
        },
        {
          "duration": 1.125,
          "durationTicks": 864,
          "midi": 58,
          "name": "A#3",
          "ticks": 210418,
          "time": 273.9817708333333,
          "velocity": 0.3937007874015748
        },
        {
          "duration": 1.125,
          "durationTicks": 864,
          "midi": 55,
          "name": "G3",
          "ticks": 210430,
          "time": 273.9973958333333,
          "velocity": 0.3937007874015748
        },
        {
          "duration": 1.125,
          "durationTicks": 864,
          "midi": 63,
          "name": "D#4",
          "ticks": 210438,
          "time": 274.0078125,
          "velocity": 0.3937007874015748
        },
        {
          "duration": 0.375,
          "durationTicks": 288,
          "midi": 65,
          "name": "F4",
          "ticks": 211410,
          "time": 275.2734375,
          "velocity": 0.3937007874015748
        },
        {
          "duration": 0.25,
          "durationTicks": 192,
          "midi": 60,
          "name": "C4",
          "ticks": 211418,
          "time": 275.2838541666667,
          "velocity": 0.3937007874015748
        },
        {
          "duration": 0.25,
          "durationTicks": 192,
          "midi": 57,
          "name": "A3",
          "ticks": 211418,
          "time": 275.2838541666667,
          "velocity": 0.3937007874015748
        },
        {
          "duration": 0.25,
          "durationTicks": 192,
          "midi": 57,
          "name": "A3",
          "ticks": 211798,
          "time": 275.7786458333333,
          "velocity": 0.3937007874015748
        },
        {
          "duration": 0.25,
          "durationTicks": 192,
          "midi": 53,
          "name": "F3",
          "ticks": 211798,
          "time": 275.7786458333333,
          "velocity": 0.3937007874015748
        },
        {
          "duration": 0.25,
          "durationTicks": 192,
          "midi": 60,
          "name": "C4",
          "ticks": 211802,
          "time": 275.7838541666667,
          "velocity": 0.3937007874015748
        },
        {
          "duration": 0.2513020833333144,
          "durationTicks": 193,
          "midi": 62,
          "name": "D4",
          "ticks": 212178,
          "time": 276.2734375,
          "velocity": 0.3937007874015748
        },
        {
          "duration": 0.125,
          "durationTicks": 96,
          "midi": 58,
          "name": "A#3",
          "ticks": 212182,
          "time": 276.2786458333333,
          "velocity": 0.3937007874015748
        },
        {
          "duration": 0.125,
          "durationTicks": 96,
          "midi": 55,
          "name": "G3",
          "ticks": 212190,
          "time": 276.2890625,
          "velocity": 0.3937007874015748
        },
        {
          "duration": 2.6263020833333712,
          "durationTicks": 2017,
          "midi": 62,
          "name": "D4",
          "ticks": 212362,
          "time": 276.5130208333333,
          "velocity": 0.3937007874015748
        },
        {
          "duration": 2.6263020833333712,
          "durationTicks": 2017,
          "midi": 58,
          "name": "A#3",
          "ticks": 212371,
          "time": 276.5247395833333,
          "velocity": 0.3937007874015748
        },
        {
          "duration": 2.6263020833333712,
          "durationTicks": 2017,
          "midi": 53,
          "name": "F3",
          "ticks": 212383,
          "time": 276.5403645833333,
          "velocity": 0.3937007874015748
        },
        {
          "duration": 2.5,
          "durationTicks": 1920,
          "midi": 62,
          "name": "D4",
          "ticks": 215048,
          "time": 280.0104166666667,
          "velocity": 0.3937007874015748
        },
        {
          "duration": 2.5,
          "durationTicks": 1920,
          "midi": 53,
          "name": "F3",
          "ticks": 215052,
          "time": 280.015625,
          "velocity": 0.3937007874015748
        },
        {
          "duration": 2.625,
          "durationTicks": 2016,
          "midi": 58,
          "name": "A#3",
          "ticks": 215052,
          "time": 280.015625,
          "velocity": 0.3937007874015748
        },
        {
          "duration": 0.25,
          "durationTicks": 192,
          "midi": 58,
          "name": "A#3",
          "ticks": 217156,
          "time": 282.7552083333333,
          "velocity": 0.3937007874015748
        },
        {
          "duration": 0.25,
          "durationTicks": 192,
          "midi": 55,
          "name": "G3",
          "ticks": 217160,
          "time": 282.7604166666667,
          "velocity": 0.3937007874015748
        },
        {
          "duration": 0.25,
          "durationTicks": 192,
          "midi": 63,
          "name": "D#4",
          "ticks": 217164,
          "time": 282.765625,
          "velocity": 0.3937007874015748
        },
        {
          "duration": 0.25,
          "durationTicks": 192,
          "midi": 65,
          "name": "F4",
          "ticks": 217540,
          "time": 283.2552083333333,
          "velocity": 0.3937007874015748
        },
        {
          "duration": 0.25,
          "durationTicks": 192,
          "midi": 60,
          "name": "C4",
          "ticks": 217548,
          "time": 283.265625,
          "velocity": 0.3937007874015748
        },
        {
          "duration": 0.25,
          "durationTicks": 192,
          "midi": 57,
          "name": "A3",
          "ticks": 217548,
          "time": 283.265625,
          "velocity": 0.3937007874015748
        },
        {
          "duration": 0.25,
          "durationTicks": 192,
          "midi": 53,
          "name": "F3",
          "ticks": 217917,
          "time": 283.74609375,
          "velocity": 0.3937007874015748
        },
        {
          "duration": 0.25,
          "durationTicks": 192,
          "midi": 57,
          "name": "A3",
          "ticks": 217917,
          "time": 283.74609375,
          "velocity": 0.3937007874015748
        },
        {
          "duration": 0.375,
          "durationTicks": 288,
          "midi": 60,
          "name": "C4",
          "ticks": 217917,
          "time": 283.74609375,
          "velocity": 0.3937007874015748
        },
        {
          "duration": 0.125,
          "durationTicks": 96,
          "midi": 53,
          "name": "F3",
          "ticks": 218316,
          "time": 284.265625,
          "velocity": 0.3937007874015748
        },
        {
          "duration": 0.125,
          "durationTicks": 96,
          "midi": 58,
          "name": "A#3",
          "ticks": 218328,
          "time": 284.28125,
          "velocity": 0.3937007874015748
        },
        {
          "duration": 0.125,
          "durationTicks": 96,
          "midi": 62,
          "name": "D4",
          "ticks": 218332,
          "time": 284.2864583333333,
          "velocity": 0.3937007874015748
        },
        {
          "duration": 2.375,
          "durationTicks": 1824,
          "midi": 62,
          "name": "D4",
          "ticks": 218500,
          "time": 284.5052083333333,
          "velocity": 0.3937007874015748
        },
        {
          "duration": 2.375,
          "durationTicks": 1824,
          "midi": 58,
          "name": "A#3",
          "ticks": 218504,
          "time": 284.5104166666667,
          "velocity": 0.3937007874015748
        },
        {
          "duration": 2.375,
          "durationTicks": 1824,
          "midi": 53,
          "name": "F3",
          "ticks": 218508,
          "time": 284.515625,
          "velocity": 0.3937007874015748
        },
        {
          "duration": 0.25,
          "durationTicks": 192,
          "midi": 58,
          "name": "A#3",
          "ticks": 220413,
          "time": 286.99609375,
          "velocity": 0.3937007874015748
        },
        {
          "duration": 0.375,
          "durationTicks": 288,
          "midi": 62,
          "name": "D4",
          "ticks": 220413,
          "time": 286.99609375,
          "velocity": 0.3937007874015748
        },
        {
          "duration": 0.375,
          "durationTicks": 288,
          "midi": 53,
          "name": "F3",
          "ticks": 220421,
          "time": 287.0065104166667,
          "velocity": 0.3937007874015748
        },
        {
          "duration": 0.25,
          "durationTicks": 192,
          "midi": 60,
          "name": "C4",
          "ticks": 220789,
          "time": 287.4856770833333,
          "velocity": 0.3937007874015748
        },
        {
          "duration": 0.25,
          "durationTicks": 192,
          "midi": 57,
          "name": "A3",
          "ticks": 220789,
          "time": 287.4856770833333,
          "velocity": 0.3937007874015748
        },
        {
          "duration": 0.25,
          "durationTicks": 192,
          "midi": 53,
          "name": "F3",
          "ticks": 220789,
          "time": 287.4856770833333,
          "velocity": 0.3937007874015748
        },
        {
          "duration": 1.875,
          "durationTicks": 1440,
          "midi": 55,
          "name": "G3",
          "ticks": 221177,
          "time": 287.9908854166667,
          "velocity": 0.3937007874015748
        },
        {
          "duration": 1.75,
          "durationTicks": 1344,
          "midi": 50,
          "name": "D3",
          "ticks": 221182,
          "time": 287.9973958333333,
          "velocity": 0.3937007874015748
        },
        {
          "duration": 1.875,
          "durationTicks": 1440,
          "midi": 58,
          "name": "A#3",
          "ticks": 221182,
          "time": 287.9973958333333,
          "velocity": 0.3937007874015748
        },
        {
          "duration": 1.5,
          "durationTicks": 1152,
          "midi": 51,
          "name": "D#3",
          "ticks": 222733,
          "time": 290.0169270833333,
          "velocity": 0.3937007874015748
        },
        {
          "duration": 1.125,
          "durationTicks": 864,
          "midi": 55,
          "name": "G3",
          "ticks": 222737,
          "time": 290.0221354166667,
          "velocity": 0.3937007874015748
        },
        {
          "duration": 1.125,
          "durationTicks": 864,
          "midi": 58,
          "name": "A#3",
          "ticks": 222737,
          "time": 290.0221354166667,
          "velocity": 0.3937007874015748
        },
        {
          "duration": 0.375,
          "durationTicks": 288,
          "midi": 60,
          "name": "C4",
          "ticks": 223685,
          "time": 291.2565104166667,
          "velocity": 0.3937007874015748
        },
        {
          "duration": 0.25,
          "durationTicks": 192,
          "midi": 55,
          "name": "G3",
          "ticks": 223689,
          "time": 291.26171875,
          "velocity": 0.3937007874015748
        },
        {
          "duration": 2.75,
          "durationTicks": 2112,
          "midi": 50,
          "name": "D3",
          "ticks": 224073,
          "time": 291.76171875,
          "velocity": 0.3937007874015748
        },
        {
          "duration": 2.75,
          "durationTicks": 2112,
          "midi": 53,
          "name": "F3",
          "ticks": 224073,
          "time": 291.76171875,
          "velocity": 0.3937007874015748
        },
        {
          "duration": 2.875,
          "durationTicks": 2208,
          "midi": 58,
          "name": "A#3",
          "ticks": 224073,
          "time": 291.76171875,
          "velocity": 0.3937007874015748
        },
        {
          "duration": 0.5013020833333144,
          "durationTicks": 385,
          "midi": 62,
          "name": "D4",
          "ticks": 226569,
          "time": 295.01171875,
          "velocity": 0.3937007874015748
        },
        {
          "duration": 0.25,
          "durationTicks": 192,
          "midi": 58,
          "name": "A#3",
          "ticks": 226573,
          "time": 295.0169270833333,
          "velocity": 0.3937007874015748
        },
        {
          "duration": 0.25,
          "durationTicks": 192,
          "midi": 55,
          "name": "G3",
          "ticks": 226577,
          "time": 295.0221354166667,
          "velocity": 0.3937007874015748
        },
        {
          "duration": 0.25,
          "durationTicks": 192,
          "midi": 60,
          "name": "C4",
          "ticks": 226942,
          "time": 295.4973958333333,
          "velocity": 0.3937007874015748
        },
        {
          "duration": 0.25,
          "durationTicks": 192,
          "midi": 57,
          "name": "A3",
          "ticks": 226942,
          "time": 295.4973958333333,
          "velocity": 0.3937007874015748
        },
        {
          "duration": 0.25,
          "durationTicks": 192,
          "midi": 53,
          "name": "F3",
          "ticks": 226946,
          "time": 295.5026041666667,
          "velocity": 0.3937007874015748
        },
        {
          "duration": 1.875,
          "durationTicks": 1440,
          "midi": 55,
          "name": "G3",
          "ticks": 227321,
          "time": 295.9908854166667,
          "velocity": 0.3937007874015748
        },
        {
          "duration": 2,
          "durationTicks": 1536,
          "midi": 58,
          "name": "A#3",
          "ticks": 227321,
          "time": 295.9908854166667,
          "velocity": 0.3937007874015748
        },
        {
          "duration": 1.75,
          "durationTicks": 1344,
          "midi": 50,
          "name": "D3",
          "ticks": 227330,
          "time": 296.0026041666667,
          "velocity": 0.3937007874015748
        },
        {
          "duration": 1.25,
          "durationTicks": 960,
          "midi": 55,
          "name": "G3",
          "ticks": 228869,
          "time": 298.0065104166667,
          "velocity": 0.3937007874015748
        },
        {
          "duration": 1.25,
          "durationTicks": 960,
          "midi": 51,
          "name": "D#3",
          "ticks": 228869,
          "time": 298.0065104166667,
          "velocity": 0.3937007874015748
        },
        {
          "duration": 1.25,
          "durationTicks": 960,
          "midi": 58,
          "name": "A#3",
          "ticks": 228873,
          "time": 298.01171875,
          "velocity": 0.3937007874015748
        },
        {
          "duration": 0.2513020833333144,
          "durationTicks": 193,
          "midi": 51,
          "name": "D#3",
          "ticks": 229833,
          "time": 299.26171875,
          "velocity": 0.3937007874015748
        },
        {
          "duration": 0.2513020833333144,
          "durationTicks": 193,
          "midi": 60,
          "name": "C4",
          "ticks": 229841,
          "time": 299.2721354166667,
          "velocity": 0.3937007874015748
        },
        {
          "duration": 0.125,
          "durationTicks": 96,
          "midi": 55,
          "name": "G3",
          "ticks": 229846,
          "time": 299.2786458333333,
          "velocity": 0.3937007874015748
        },
        {
          "duration": 4.125,
          "durationTicks": 3168,
          "midi": 50,
          "name": "D3",
          "ticks": 230218,
          "time": 299.7630208333333,
          "velocity": 0.3937007874015748
        },
        {
          "duration": 4.125,
          "durationTicks": 3168,
          "midi": 53,
          "name": "F3",
          "ticks": 230218,
          "time": 299.7630208333333,
          "velocity": 0.3937007874015748
        },
        {
          "duration": 4.125,
          "durationTicks": 3168,
          "midi": 58,
          "name": "A#3",
          "ticks": 230218,
          "time": 299.7630208333333,
          "velocity": 0.3937007874015748
        },
        {
          "duration": 1.875,
          "durationTicks": 1440,
          "midi": 62,
          "name": "D4",
          "ticks": 233474,
          "time": 304.0026041666667,
          "velocity": 0.3937007874015748
        },
        {
          "duration": 1.875,
          "durationTicks": 1440,
          "midi": 58,
          "name": "A#3",
          "ticks": 233474,
          "time": 304.0026041666667,
          "velocity": 0.3937007874015748
        },
        {
          "duration": 1.75,
          "durationTicks": 1344,
          "midi": 53,
          "name": "F3",
          "ticks": 233478,
          "time": 304.0078125,
          "velocity": 0.3937007874015748
        },
        {
          "duration": 1.125,
          "durationTicks": 864,
          "midi": 58,
          "name": "A#3",
          "ticks": 234998,
          "time": 305.9869791666667,
          "velocity": 0.3937007874015748
        },
        {
          "duration": 1.125,
          "durationTicks": 864,
          "midi": 55,
          "name": "G3",
          "ticks": 235010,
          "time": 306.0026041666667,
          "velocity": 0.3937007874015748
        },
        {
          "duration": 1.125,
          "durationTicks": 864,
          "midi": 63,
          "name": "D#4",
          "ticks": 235018,
          "time": 306.0130208333333,
          "velocity": 0.3937007874015748
        },
        {
          "duration": 0.375,
          "durationTicks": 288,
          "midi": 65,
          "name": "F4",
          "ticks": 235990,
          "time": 307.2786458333333,
          "velocity": 0.3937007874015748
        },
        {
          "duration": 0.25,
          "durationTicks": 192,
          "midi": 60,
          "name": "C4",
          "ticks": 235998,
          "time": 307.2890625,
          "velocity": 0.3937007874015748
        },
        {
          "duration": 0.25,
          "durationTicks": 192,
          "midi": 57,
          "name": "A3",
          "ticks": 235998,
          "time": 307.2890625,
          "velocity": 0.3937007874015748
        },
        {
          "duration": 0.25,
          "durationTicks": 192,
          "midi": 57,
          "name": "A3",
          "ticks": 236378,
          "time": 307.7838541666667,
          "velocity": 0.3937007874015748
        },
        {
          "duration": 0.25,
          "durationTicks": 192,
          "midi": 53,
          "name": "F3",
          "ticks": 236378,
          "time": 307.7838541666667,
          "velocity": 0.3937007874015748
        },
        {
          "duration": 0.25,
          "durationTicks": 192,
          "midi": 60,
          "name": "C4",
          "ticks": 236382,
          "time": 307.7890625,
          "velocity": 0.3937007874015748
        },
        {
          "duration": 0.25130208333337123,
          "durationTicks": 193,
          "midi": 62,
          "name": "D4",
          "ticks": 236758,
          "time": 308.2786458333333,
          "velocity": 0.3937007874015748
        },
        {
          "duration": 0.125,
          "durationTicks": 96,
          "midi": 58,
          "name": "A#3",
          "ticks": 236762,
          "time": 308.2838541666667,
          "velocity": 0.3937007874015748
        },
        {
          "duration": 0.125,
          "durationTicks": 96,
          "midi": 55,
          "name": "G3",
          "ticks": 236770,
          "time": 308.2942708333333,
          "velocity": 0.3937007874015748
        },
        {
          "duration": 2.6263020833333144,
          "durationTicks": 2017,
          "midi": 62,
          "name": "D4",
          "ticks": 236942,
          "time": 308.5182291666667,
          "velocity": 0.3937007874015748
        },
        {
          "duration": 2.6263020833333144,
          "durationTicks": 2017,
          "midi": 58,
          "name": "A#3",
          "ticks": 236951,
          "time": 308.5299479166667,
          "velocity": 0.3937007874015748
        },
        {
          "duration": 2.6263020833333144,
          "durationTicks": 2017,
          "midi": 53,
          "name": "F3",
          "ticks": 236963,
          "time": 308.5455729166667,
          "velocity": 0.3937007874015748
        }
      ],
      "endOfTrackTicks": 238980
    },
    {
      "channel": 5,
      "controlChanges": {},
      "pitchBends": [],
      "instrument": {
        "family": "synth lead",
        "number": 87,
        "name": "lead 8 (bass + lead)"
      },
      "name": "Synth Pluck",
      "notes": [
        {
          "duration": 2.625,
          "durationTicks": 2016,
          "midi": 74,
          "name": "D5",
          "ticks": 148984,
          "time": 193.98958333333334,
          "velocity": 0.3937007874015748
        },
        {
          "duration": 2.5,
          "durationTicks": 1920,
          "midi": 65,
          "name": "F4",
          "ticks": 148988,
          "time": 193.99479166666666,
          "velocity": 0.3937007874015748
        },
        {
          "duration": 2.625,
          "durationTicks": 2016,
          "midi": 70,
          "name": "A#4",
          "ticks": 148988,
          "time": 193.99479166666666,
          "velocity": 0.3937007874015748
        },
        {
          "duration": 0.2513020833333428,
          "durationTicks": 193,
          "midi": 70,
          "name": "A#4",
          "ticks": 151104,
          "time": 196.75,
          "velocity": 0.3937007874015748
        },
        {
          "duration": 0.2513020833333428,
          "durationTicks": 193,
          "midi": 75,
          "name": "D#5",
          "ticks": 151112,
          "time": 196.76041666666666,
          "velocity": 0.3937007874015748
        },
        {
          "duration": 0.2513020833333144,
          "durationTicks": 193,
          "midi": 67,
          "name": "G4",
          "ticks": 151117,
          "time": 196.76692708333334,
          "velocity": 0.3937007874015748
        },
        {
          "duration": 0.25,
          "durationTicks": 192,
          "midi": 77,
          "name": "F5",
          "ticks": 151478,
          "time": 197.23697916666666,
          "velocity": 0.3937007874015748
        },
        {
          "duration": 0.25,
          "durationTicks": 192,
          "midi": 69,
          "name": "A4",
          "ticks": 151482,
          "time": 197.2421875,
          "velocity": 0.3937007874015748
        },
        {
          "duration": 0.25,
          "durationTicks": 192,
          "midi": 72,
          "name": "C5",
          "ticks": 151486,
          "time": 197.24739583333334,
          "velocity": 0.3937007874015748
        },
        {
          "duration": 0.25,
          "durationTicks": 192,
          "midi": 69,
          "name": "A4",
          "ticks": 151854,
          "time": 197.7265625,
          "velocity": 0.3937007874015748
        },
        {
          "duration": 0.25,
          "durationTicks": 192,
          "midi": 65,
          "name": "F4",
          "ticks": 151854,
          "time": 197.7265625,
          "velocity": 0.3937007874015748
        },
        {
          "duration": 0.25,
          "durationTicks": 192,
          "midi": 72,
          "name": "C5",
          "ticks": 151854,
          "time": 197.7265625,
          "velocity": 0.3937007874015748
        },
        {
          "duration": 0.125,
          "durationTicks": 96,
          "midi": 74,
          "name": "D5",
          "ticks": 152238,
          "time": 198.2265625,
          "velocity": 0.3937007874015748
        },
        {
          "duration": 0.125,
          "durationTicks": 96,
          "midi": 70,
          "name": "A#4",
          "ticks": 152242,
          "time": 198.23177083333334,
          "velocity": 0.3937007874015748
        },
        {
          "duration": 0.125,
          "durationTicks": 96,
          "midi": 65,
          "name": "F4",
          "ticks": 152247,
          "time": 198.23828125,
          "velocity": 0.3937007874015748
        },
        {
          "duration": 2.375,
          "durationTicks": 1824,
          "midi": 65,
          "name": "F4",
          "ticks": 152447,
          "time": 198.49869791666666,
          "velocity": 0.3937007874015748
        },
        {
          "duration": 2.375,
          "durationTicks": 1824,
          "midi": 70,
          "name": "A#4",
          "ticks": 152447,
          "time": 198.49869791666666,
          "velocity": 0.3937007874015748
        },
        {
          "duration": 2.5,
          "durationTicks": 1920,
          "midi": 74,
          "name": "D5",
          "ticks": 152447,
          "time": 198.49869791666666,
          "velocity": 0.3937007874015748
        },
        {
          "duration": 0.25,
          "durationTicks": 192,
          "midi": 70,
          "name": "A#4",
          "ticks": 154379,
          "time": 201.01432291666666,
          "velocity": 0.3937007874015748
        },
        {
          "duration": 0.375,
          "durationTicks": 288,
          "midi": 74,
          "name": "D5",
          "ticks": 154379,
          "time": 201.01432291666666,
          "velocity": 0.3937007874015748
        },
        {
          "duration": 0.375,
          "durationTicks": 288,
          "midi": 65,
          "name": "F4",
          "ticks": 154384,
          "time": 201.02083333333334,
          "velocity": 0.3937007874015748
        },
        {
          "duration": 0.375,
          "durationTicks": 288,
          "midi": 65,
          "name": "F4",
          "ticks": 154752,
          "time": 201.5,
          "velocity": 0.3937007874015748
        },
        {
          "duration": 0.375,
          "durationTicks": 288,
          "midi": 72,
          "name": "C5",
          "ticks": 154752,
          "time": 201.5,
          "velocity": 0.3937007874015748
        },
        {
          "duration": 0.375,
          "durationTicks": 288,
          "midi": 69,
          "name": "A4",
          "ticks": 154756,
          "time": 201.50520833333334,
          "velocity": 0.3937007874015748
        },
        {
          "duration": 1.875,
          "durationTicks": 1440,
          "midi": 67,
          "name": "G4",
          "ticks": 155120,
          "time": 201.97916666666666,
          "velocity": 0.3937007874015748
        },
        {
          "duration": 1.75,
          "durationTicks": 1344,
          "midi": 62,
          "name": "D4",
          "ticks": 155129,
          "time": 201.99088541666666,
          "velocity": 0.3937007874015748
        },
        {
          "duration": 1.875,
          "durationTicks": 1440,
          "midi": 70,
          "name": "A#4",
          "ticks": 155129,
          "time": 201.99088541666666,
          "velocity": 0.3937007874015748
        },
        {
          "duration": 1.125,
          "durationTicks": 864,
          "midi": 67,
          "name": "G4",
          "ticks": 156665,
          "time": 203.99088541666666,
          "velocity": 0.3937007874015748
        },
        {
          "duration": 1.125,
          "durationTicks": 864,
          "midi": 70,
          "name": "A#4",
          "ticks": 156665,
          "time": 203.99088541666666,
          "velocity": 0.3937007874015748
        },
        {
          "duration": 1.125,
          "durationTicks": 864,
          "midi": 63,
          "name": "D#4",
          "ticks": 156665,
          "time": 203.99088541666666,
          "velocity": 0.3937007874015748
        },
        {
          "duration": 0.125,
          "durationTicks": 96,
          "midi": 63,
          "name": "D#4",
          "ticks": 157633,
          "time": 205.25130208333334,
          "velocity": 0.3937007874015748
        },
        {
          "duration": 0.125,
          "durationTicks": 96,
          "midi": 72,
          "name": "C5",
          "ticks": 157633,
          "time": 205.25130208333334,
          "velocity": 0.3937007874015748
        },
        {
          "duration": 0.125,
          "durationTicks": 96,
          "midi": 67,
          "name": "G4",
          "ticks": 157637,
          "time": 205.25651041666666,
          "velocity": 0.3937007874015748
        },
        {
          "duration": 3.6263020833333144,
          "durationTicks": 2785,
          "midi": 62,
          "name": "D4",
          "ticks": 158005,
          "time": 205.73567708333334,
          "velocity": 0.3937007874015748
        },
        {
          "duration": 0.25,
          "durationTicks": 192,
          "midi": 74,
          "name": "D5",
          "ticks": 160510,
          "time": 208.99739583333334,
          "velocity": 0.3937007874015748
        },
        {
          "duration": 0.25,
          "durationTicks": 192,
          "midi": 70,
          "name": "A#4",
          "ticks": 160514,
          "time": 209.00260416666666,
          "velocity": 0.3937007874015748
        },
        {
          "duration": 0.5013020833333428,
          "durationTicks": 385,
          "midi": 70,
          "name": "A#4",
          "ticks": 160514,
          "time": 209.00260416666666,
          "velocity": 0.3937007874015748
        },
        {
          "duration": 0.25,
          "durationTicks": 192,
          "midi": 65,
          "name": "F4",
          "ticks": 160518,
          "time": 209.0078125,
          "velocity": 0.3937007874015748
        },
        {
          "duration": 0.5013020833333428,
          "durationTicks": 385,
          "midi": 65,
          "name": "F4",
          "ticks": 160518,
          "time": 209.0078125,
          "velocity": 0.3937007874015748
        },
        {
          "duration": 0.25,
          "durationTicks": 192,
          "midi": 65,
          "name": "F4",
          "ticks": 160895,
          "time": 209.49869791666666,
          "velocity": 0.3937007874015748
        },
        {
          "duration": 0.125,
          "durationTicks": 96,
          "midi": 69,
          "name": "A4",
          "ticks": 160899,
          "time": 209.50390625,
          "velocity": 0.3937007874015748
        },
        {
          "duration": 0.25,
          "durationTicks": 192,
          "midi": 72,
          "name": "C5",
          "ticks": 160899,
          "time": 209.50390625,
          "velocity": 0.3937007874015748
        },
        {
          "duration": 1.75,
          "durationTicks": 1344,
          "midi": 62,
          "name": "D4",
          "ticks": 161283,
          "time": 210.00390625,
          "velocity": 0.3937007874015748
        },
        {
          "duration": 1.875,
          "durationTicks": 1440,
          "midi": 70,
          "name": "A#4",
          "ticks": 161283,
          "time": 210.00390625,
          "velocity": 0.3937007874015748
        },
        {
          "duration": 1.875,
          "durationTicks": 1440,
          "midi": 67,
          "name": "G4",
          "ticks": 161283,
          "time": 210.00390625,
          "velocity": 0.3937007874015748
        },
        {
          "duration": 2.625,
          "durationTicks": 2016,
          "midi": 74,
          "name": "D5",
          "ticks": 161283,
          "time": 210.00390625,
          "velocity": 0.3937007874015748
        },
        {
          "duration": 1.125,
          "durationTicks": 864,
          "midi": 67,
          "name": "G4",
          "ticks": 162815,
          "time": 211.99869791666666,
          "velocity": 0.3937007874015748
        },
        {
          "duration": 1.125,
          "durationTicks": 864,
          "midi": 63,
          "name": "D#4",
          "ticks": 162815,
          "time": 211.99869791666666,
          "velocity": 0.3937007874015748
        },
        {
          "duration": 1.125,
          "durationTicks": 864,
          "midi": 70,
          "name": "A#4",
          "ticks": 162819,
          "time": 212.00390625,
          "velocity": 0.3937007874015748
        },
        {
          "duration": 0.125,
          "durationTicks": 96,
          "midi": 72,
          "name": "C5",
          "ticks": 163791,
          "time": 213.26953125,
          "velocity": 0.3937007874015748
        },
        {
          "duration": 0.125,
          "durationTicks": 96,
          "midi": 63,
          "name": "D#4",
          "ticks": 163796,
          "time": 213.27604166666666,
          "velocity": 0.3937007874015748
        },
        {
          "duration": 0.125,
          "durationTicks": 96,
          "midi": 67,
          "name": "G4",
          "ticks": 163800,
          "time": 213.28125,
          "velocity": 0.3937007874015748
        },
        {
          "duration": 3.875,
          "durationTicks": 2976,
          "midi": 62,
          "name": "D4",
          "ticks": 164168,
          "time": 213.76041666666666,
          "velocity": 0.3937007874015748
        },
        {
          "duration": 3.875,
          "durationTicks": 2976,
          "midi": 65,
          "name": "F4",
          "ticks": 164168,
          "time": 213.76041666666666,
          "velocity": 0.3937007874015748
        },
        {
          "duration": 3.875,
          "durationTicks": 2976,
          "midi": 70,
          "name": "A#4",
          "ticks": 164168,
          "time": 213.76041666666666,
          "velocity": 0.3937007874015748
        },
        {
          "duration": 2.5,
          "durationTicks": 1920,
          "midi": 74,
          "name": "D5",
          "ticks": 167432,
          "time": 218.01041666666666,
          "velocity": 0.3937007874015748
        },
        {
          "duration": 2.5,
          "durationTicks": 1920,
          "midi": 65,
          "name": "F4",
          "ticks": 167432,
          "time": 218.01041666666666,
          "velocity": 0.3937007874015748
        },
        {
          "duration": 2.5,
          "durationTicks": 1920,
          "midi": 65,
          "name": "F4",
          "ticks": 167432,
          "time": 218.01041666666666,
          "velocity": 0.3937007874015748
        },
        {
          "duration": 2.625,
          "durationTicks": 2016,
          "midi": 74,
          "name": "D5",
          "ticks": 167432,
          "time": 218.01041666666666,
          "velocity": 0.3937007874015748
        },
        {
          "duration": 2.625,
          "durationTicks": 2016,
          "midi": 70,
          "name": "A#4",
          "ticks": 167432,
          "time": 218.01041666666666,
          "velocity": 0.3937007874015748
        },
        {
          "duration": 2.625,
          "durationTicks": 2016,
          "midi": 70,
          "name": "A#4",
          "ticks": 167432,
          "time": 218.01041666666666,
          "velocity": 0.3937007874015748
        },
        {
          "duration": 0.125,
          "durationTicks": 96,
          "midi": 70,
          "name": "A#4",
          "ticks": 169544,
          "time": 220.76041666666666,
          "velocity": 0.3937007874015748
        },
        {
          "duration": 0.25,
          "durationTicks": 192,
          "midi": 67,
          "name": "G4",
          "ticks": 169548,
          "time": 220.765625,
          "velocity": 0.3937007874015748
        },
        {
          "duration": 0.25,
          "durationTicks": 192,
          "midi": 75,
          "name": "D#5",
          "ticks": 169552,
          "time": 220.77083333333334,
          "velocity": 0.3937007874015748
        },
        {
          "duration": 0.125,
          "durationTicks": 96,
          "midi": 77,
          "name": "F5",
          "ticks": 169924,
          "time": 221.25520833333334,
          "velocity": 0.3937007874015748
        },
        {
          "duration": 0.125,
          "durationTicks": 96,
          "midi": 69,
          "name": "A4",
          "ticks": 169928,
          "time": 221.26041666666666,
          "velocity": 0.3937007874015748
        },
        {
          "duration": 0.125,
          "durationTicks": 96,
          "midi": 72,
          "name": "C5",
          "ticks": 169932,
          "time": 221.265625,
          "velocity": 0.3937007874015748
        },
        {
          "duration": 0.125,
          "durationTicks": 96,
          "midi": 69,
          "name": "A4",
          "ticks": 170316,
          "time": 221.765625,
          "velocity": 0.3937007874015748
        },
        {
          "duration": 0.125,
          "durationTicks": 96,
          "midi": 65,
          "name": "F4",
          "ticks": 170316,
          "time": 221.765625,
          "velocity": 0.3937007874015748
        },
        {
          "duration": 0.25,
          "durationTicks": 192,
          "midi": 72,
          "name": "C5",
          "ticks": 170316,
          "time": 221.765625,
          "velocity": 0.3937007874015748
        },
        {
          "duration": 0.125,
          "durationTicks": 96,
          "midi": 70,
          "name": "A#4",
          "ticks": 170704,
          "time": 222.27083333333334,
          "velocity": 0.3937007874015748
        },
        {
          "duration": 0.125,
          "durationTicks": 96,
          "midi": 74,
          "name": "D5",
          "ticks": 170704,
          "time": 222.27083333333334,
          "velocity": 0.3937007874015748
        },
        {
          "duration": 0.125,
          "durationTicks": 96,
          "midi": 65,
          "name": "F4",
          "ticks": 170709,
          "time": 222.27734375,
          "velocity": 0.3937007874015748
        },
        {
          "duration": 2.375,
          "durationTicks": 1824,
          "midi": 74,
          "name": "D5",
          "ticks": 170889,
          "time": 222.51171875,
          "velocity": 0.3937007874015748
        },
        {
          "duration": 2.375,
          "durationTicks": 1824,
          "midi": 70,
          "name": "A#4",
          "ticks": 170897,
          "time": 222.52213541666666,
          "velocity": 0.3937007874015748
        },
        {
          "duration": 2.375,
          "durationTicks": 1824,
          "midi": 65,
          "name": "F4",
          "ticks": 170897,
          "time": 222.52213541666666,
          "velocity": 0.3937007874015748
        },
        {
          "duration": 0.5013020833333428,
          "durationTicks": 385,
          "midi": 74,
          "name": "D5",
          "ticks": 172793,
          "time": 224.99088541666666,
          "velocity": 0.3937007874015748
        },
        {
          "duration": 0.25,
          "durationTicks": 192,
          "midi": 70,
          "name": "A#4",
          "ticks": 172802,
          "time": 225.00260416666666,
          "velocity": 0.3937007874015748
        },
        {
          "duration": 0.375,
          "durationTicks": 288,
          "midi": 65,
          "name": "F4",
          "ticks": 172806,
          "time": 225.0078125,
          "velocity": 0.3937007874015748
        },
        {
          "duration": 0.25,
          "durationTicks": 192,
          "midi": 72,
          "name": "C5",
          "ticks": 173190,
          "time": 225.5078125,
          "velocity": 0.3937007874015748
        },
        {
          "duration": 0.25,
          "durationTicks": 192,
          "midi": 65,
          "name": "F4",
          "ticks": 173190,
          "time": 225.5078125,
          "velocity": 0.3937007874015748
        },
        {
          "duration": 0.375,
          "durationTicks": 288,
          "midi": 69,
          "name": "A4",
          "ticks": 173190,
          "time": 225.5078125,
          "velocity": 0.3937007874015748
        },
        {
          "duration": 1.875,
          "durationTicks": 1440,
          "midi": 67,
          "name": "G4",
          "ticks": 173558,
          "time": 225.98697916666666,
          "velocity": 0.3937007874015748
        },
        {
          "duration": 1.875,
          "durationTicks": 1440,
          "midi": 70,
          "name": "A#4",
          "ticks": 173558,
          "time": 225.98697916666666,
          "velocity": 0.3937007874015748
        },
        {
          "duration": 1.875,
          "durationTicks": 1440,
          "midi": 62,
          "name": "D4",
          "ticks": 173562,
          "time": 225.9921875,
          "velocity": 0.3937007874015748
        },
        {
          "duration": 1.125,
          "durationTicks": 864,
          "midi": 67,
          "name": "G4",
          "ticks": 175114,
          "time": 228.01302083333334,
          "velocity": 0.3937007874015748
        },
        {
          "duration": 1.125,
          "durationTicks": 864,
          "midi": 70,
          "name": "A#4",
          "ticks": 175114,
          "time": 228.01302083333334,
          "velocity": 0.3937007874015748
        },
        {
          "duration": 1.125,
          "durationTicks": 864,
          "midi": 63,
          "name": "D#4",
          "ticks": 175114,
          "time": 228.01302083333334,
          "velocity": 0.3937007874015748
        },
        {
          "duration": 0.12630208333331439,
          "durationTicks": 97,
          "midi": 72,
          "name": "C5",
          "ticks": 176074,
          "time": 229.26302083333334,
          "velocity": 0.3937007874015748
        },
        {
          "duration": 0.12630208333331439,
          "durationTicks": 97,
          "midi": 63,
          "name": "D#4",
          "ticks": 176074,
          "time": 229.26302083333334,
          "velocity": 0.3937007874015748
        },
        {
          "duration": 0.1263020833333428,
          "durationTicks": 97,
          "midi": 70,
          "name": "A#4",
          "ticks": 176082,
          "time": 229.2734375,
          "velocity": 0.3937007874015748
        },
        {
          "duration": 0.1263020833333428,
          "durationTicks": 97,
          "midi": 67,
          "name": "G4",
          "ticks": 176087,
          "time": 229.27994791666666,
          "velocity": 0.3937007874015748
        },
        {
          "duration": 3,
          "durationTicks": 2304,
          "midi": 62,
          "name": "D4",
          "ticks": 176467,
          "time": 229.77473958333334,
          "velocity": 0.3937007874015748
        },
        {
          "duration": 3,
          "durationTicks": 2304,
          "midi": 65,
          "name": "F4",
          "ticks": 176467,
          "time": 229.77473958333334,
          "velocity": 0.3937007874015748
        },
        {
          "duration": 3,
          "durationTicks": 2304,
          "midi": 70,
          "name": "A#4",
          "ticks": 176467,
          "time": 229.77473958333334,
          "velocity": 0.3937007874015748
        },
        {
          "duration": 1.8763020833333428,
          "durationTicks": 1441,
          "midi": 53,
          "name": "F3",
          "ticks": 179723,
          "time": 234.01432291666666,
          "velocity": 0.3937007874015748
        },
        {
          "duration": 1.8763020833333428,
          "durationTicks": 1441,
          "midi": 57,
          "name": "A3",
          "ticks": 179727,
          "time": 234.01953125,
          "velocity": 0.3937007874015748
        },
        {
          "duration": 0.25,
          "durationTicks": 192,
          "midi": 38,
          "name": "D2",
          "ticks": 179739,
          "time": 234.03515625,
          "velocity": 0.3937007874015748
        },
        {
          "duration": 0.25,
          "durationTicks": 192,
          "midi": 50,
          "name": "D3",
          "ticks": 179911,
          "time": 234.25911458333334,
          "velocity": 0.3937007874015748
        },
        {
          "duration": 0.25,
          "durationTicks": 192,
          "midi": 38,
          "name": "D2",
          "ticks": 180123,
          "time": 234.53515625,
          "velocity": 0.3937007874015748
        },
        {
          "duration": 0.25,
          "durationTicks": 192,
          "midi": 50,
          "name": "D3",
          "ticks": 180295,
          "time": 234.75911458333334,
          "velocity": 0.3937007874015748
        },
        {
          "duration": 0.25,
          "durationTicks": 192,
          "midi": 38,
          "name": "D2",
          "ticks": 180491,
          "time": 235.01432291666666,
          "velocity": 0.3937007874015748
        },
        {
          "duration": 0.25,
          "durationTicks": 192,
          "midi": 50,
          "name": "D3",
          "ticks": 180659,
          "time": 235.23307291666666,
          "velocity": 0.3937007874015748
        },
        {
          "duration": 0.25,
          "durationTicks": 192,
          "midi": 38,
          "name": "D2",
          "ticks": 180879,
          "time": 235.51953125,
          "velocity": 0.3937007874015748
        },
        {
          "duration": 0.125,
          "durationTicks": 96,
          "midi": 50,
          "name": "D3",
          "ticks": 181056,
          "time": 235.75,
          "velocity": 0.3937007874015748
        },
        {
          "duration": 0.2513020833333428,
          "durationTicks": 193,
          "midi": 50,
          "name": "D3",
          "ticks": 181056,
          "time": 235.75,
          "velocity": 0.3937007874015748
        },
        {
          "duration": 0.2513020833333144,
          "durationTicks": 193,
          "midi": 39,
          "name": "D#2",
          "ticks": 181240,
          "time": 235.98958333333334,
          "velocity": 0.3937007874015748
        },
        {
          "duration": 6.623697916666657,
          "durationTicks": 5087,
          "midi": 58,
          "name": "A#3",
          "ticks": 181261,
          "time": 236.01692708333334,
          "velocity": 0.3937007874015748
        },
        {
          "duration": 6.75,
          "durationTicks": 5184,
          "midi": 55,
          "name": "G3",
          "ticks": 181261,
          "time": 236.01692708333334,
          "velocity": 0.3937007874015748
        },
        {
          "duration": 0.25,
          "durationTicks": 192,
          "midi": 51,
          "name": "D#3",
          "ticks": 181413,
          "time": 236.21484375,
          "velocity": 0.3937007874015748
        },
        {
          "duration": 0.25,
          "durationTicks": 192,
          "midi": 39,
          "name": "D#2",
          "ticks": 181645,
          "time": 236.51692708333334,
          "velocity": 0.3937007874015748
        },
        {
          "duration": 0.25,
          "durationTicks": 192,
          "midi": 51,
          "name": "D#3",
          "ticks": 181837,
          "time": 236.76692708333334,
          "velocity": 0.3937007874015748
        },
        {
          "duration": 0.25,
          "durationTicks": 192,
          "midi": 39,
          "name": "D#2",
          "ticks": 182033,
          "time": 237.02213541666666,
          "velocity": 0.3937007874015748
        },
        {
          "duration": 0.25,
          "durationTicks": 192,
          "midi": 51,
          "name": "D#3",
          "ticks": 182213,
          "time": 237.25651041666666,
          "velocity": 0.3937007874015748
        },
        {
          "duration": 0.25,
          "durationTicks": 192,
          "midi": 39,
          "name": "D#2",
          "ticks": 182425,
          "time": 237.53255208333334,
          "velocity": 0.3937007874015748
        },
        {
          "duration": 0.25,
          "durationTicks": 192,
          "midi": 51,
          "name": "D#3",
          "ticks": 182597,
          "time": 237.75651041666666,
          "velocity": 0.3937007874015748
        },
        {
          "duration": 0.25,
          "durationTicks": 192,
          "midi": 39,
          "name": "D#2",
          "ticks": 182804,
          "time": 238.02604166666666,
          "velocity": 0.3937007874015748
        },
        {
          "duration": 0.25,
          "durationTicks": 192,
          "midi": 51,
          "name": "D#3",
          "ticks": 182984,
          "time": 238.26041666666666,
          "velocity": 0.3937007874015748
        },
        {
          "duration": 0.25,
          "durationTicks": 192,
          "midi": 39,
          "name": "D#2",
          "ticks": 183204,
          "time": 238.546875,
          "velocity": 0.3937007874015748
        },
        {
          "duration": 0.25,
          "durationTicks": 192,
          "midi": 51,
          "name": "D#3",
          "ticks": 183364,
          "time": 238.75520833333334,
          "velocity": 0.3937007874015748
        },
        {
          "duration": 0.25,
          "durationTicks": 192,
          "midi": 39,
          "name": "D#2",
          "ticks": 183560,
          "time": 239.01041666666666,
          "velocity": 0.3937007874015748
        },
        {
          "duration": 0.25,
          "durationTicks": 192,
          "midi": 51,
          "name": "D#3",
          "ticks": 183736,
          "time": 239.23958333333334,
          "velocity": 0.3937007874015748
        },
        {
          "duration": 0.25,
          "durationTicks": 192,
          "midi": 38,
          "name": "D2",
          "ticks": 183928,
          "time": 239.48958333333334,
          "velocity": 0.3937007874015748
        },
        {
          "duration": 0.25,
          "durationTicks": 192,
          "midi": 50,
          "name": "D3",
          "ticks": 184105,
          "time": 239.72005208333334,
          "velocity": 0.3937007874015748
        },
        {
          "duration": 0.25,
          "durationTicks": 192,
          "midi": 39,
          "name": "D#2",
          "ticks": 184325,
          "time": 240.00651041666666,
          "velocity": 0.3937007874015748
        },
        {
          "duration": 0.25,
          "durationTicks": 192,
          "midi": 51,
          "name": "D#3",
          "ticks": 184508,
          "time": 240.24479166666666,
          "velocity": 0.3937007874015748
        },
        {
          "duration": 0.375,
          "durationTicks": 288,
          "midi": 39,
          "name": "D#2",
          "ticks": 184712,
          "time": 240.51041666666666,
          "velocity": 0.3937007874015748
        },
        {
          "duration": 0.25,
          "durationTicks": 192,
          "midi": 51,
          "name": "D#3",
          "ticks": 184908,
          "time": 240.765625,
          "velocity": 0.3937007874015748
        },
        {
          "duration": 0.25,
          "durationTicks": 192,
          "midi": 39,
          "name": "D#2",
          "ticks": 185108,
          "time": 241.02604166666666,
          "velocity": 0.3937007874015748
        },
        {
          "duration": 0.25,
          "durationTicks": 192,
          "midi": 51,
          "name": "D#3",
          "ticks": 185281,
          "time": 241.25130208333334,
          "velocity": 0.3937007874015748
        },
        {
          "duration": 0.25,
          "durationTicks": 192,
          "midi": 39,
          "name": "D#2",
          "ticks": 185488,
          "time": 241.52083333333334,
          "velocity": 0.3937007874015748
        },
        {
          "duration": 0.25,
          "durationTicks": 192,
          "midi": 51,
          "name": "D#3",
          "ticks": 185660,
          "time": 241.74479166666666,
          "velocity": 0.3937007874015748
        },
        {
          "duration": 0.25,
          "durationTicks": 192,
          "midi": 39,
          "name": "D#2",
          "ticks": 185872,
          "time": 242.02083333333334,
          "velocity": 0.3937007874015748
        },
        {
          "duration": 0.25,
          "durationTicks": 192,
          "midi": 51,
          "name": "D#3",
          "ticks": 186052,
          "time": 242.25520833333334,
          "velocity": 0.3937007874015748
        },
        {
          "duration": 0.375,
          "durationTicks": 288,
          "midi": 51,
          "name": "D#3",
          "ticks": 186052,
          "time": 242.25520833333334,
          "velocity": 0.3937007874015748
        },
        {
          "duration": 0.2513020833333144,
          "durationTicks": 193,
          "midi": 39,
          "name": "D#2",
          "ticks": 186244,
          "time": 242.50520833333334,
          "velocity": 0.3937007874015748
        },
        {
          "duration": 0.2513020833333428,
          "durationTicks": 193,
          "midi": 51,
          "name": "D#3",
          "ticks": 186428,
          "time": 242.74479166666666,
          "velocity": 0.3937007874015748
        },
        {
          "duration": 0.1263020833333428,
          "durationTicks": 97,
          "midi": 53,
          "name": "F3",
          "ticks": 186617,
          "time": 242.99088541666666,
          "velocity": 0.3937007874015748
        },
        {
          "duration": 0.1263020833333428,
          "durationTicks": 97,
          "midi": 57,
          "name": "A3",
          "ticks": 186617,
          "time": 242.99088541666666,
          "velocity": 0.3937007874015748
        },
        {
          "duration": 0.1263020833333428,
          "durationTicks": 97,
          "midi": 60,
          "name": "C4",
          "ticks": 186626,
          "time": 243.00260416666666,
          "velocity": 0.3937007874015748
        },
        {
          "duration": 0.25,
          "durationTicks": 192,
          "midi": 41,
          "name": "F2",
          "ticks": 186634,
          "time": 243.01302083333334,
          "velocity": 0.3937007874015748
        },
        {
          "duration": 0.25,
          "durationTicks": 192,
          "midi": 57,
          "name": "A3",
          "ticks": 186810,
          "time": 243.2421875,
          "velocity": 0.3937007874015748
        },
        {
          "duration": 0.125,
          "durationTicks": 96,
          "midi": 60,
          "name": "C4",
          "ticks": 186814,
          "time": 243.24739583333334,
          "velocity": 0.3937007874015748
        },
        {
          "duration": 0.25,
          "durationTicks": 192,
          "midi": 53,
          "name": "F3",
          "ticks": 186814,
          "time": 243.24739583333334,
          "velocity": 0.3937007874015748
        },
        {
          "duration": 0.25,
          "durationTicks": 192,
          "midi": 53,
          "name": "F3",
          "ticks": 186814,
          "time": 243.24739583333334,
          "velocity": 0.3937007874015748
        },
        {
          "duration": 0.25,
          "durationTicks": 192,
          "midi": 41,
          "name": "F2",
          "ticks": 187002,
          "time": 243.4921875,
          "velocity": 0.3937007874015748
        },
        {
          "duration": 0.25,
          "durationTicks": 192,
          "midi": 53,
          "name": "F3",
          "ticks": 187203,
          "time": 243.75390625,
          "velocity": 0.3937007874015748
        },
        {
          "duration": 4.12890625,
          "durationTicks": 3171,
          "midi": 50,
          "name": "D3",
          "ticks": 187203,
          "time": 243.75390625,
          "velocity": 0.3937007874015748
        },
        {
          "duration": 4.25390625,
          "durationTicks": 3267,
          "midi": 53,
          "name": "F3",
          "ticks": 187203,
          "time": 243.75390625,
          "velocity": 0.3937007874015748
        },
        {
          "duration": 0.25,
          "durationTicks": 192,
          "midi": 46,
          "name": "A#2",
          "ticks": 187395,
          "time": 244.00390625,
          "velocity": 0.3937007874015748
        },
        {
          "duration": 0.25,
          "durationTicks": 192,
          "midi": 58,
          "name": "A#3",
          "ticks": 187582,
          "time": 244.24739583333334,
          "velocity": 0.3937007874015748
        },
        {
          "duration": 0.25,
          "durationTicks": 192,
          "midi": 46,
          "name": "A#2",
          "ticks": 187783,
          "time": 244.50911458333334,
          "velocity": 0.3937007874015748
        },
        {
          "duration": 0.25,
          "durationTicks": 192,
          "midi": 58,
          "name": "A#3",
          "ticks": 187963,
          "time": 244.74348958333334,
          "velocity": 0.3937007874015748
        },
        {
          "duration": 0.25,
          "durationTicks": 192,
          "midi": 46,
          "name": "A#2",
          "ticks": 188159,
          "time": 244.99869791666666,
          "velocity": 0.3937007874015748
        },
        {
          "duration": 0.25,
          "durationTicks": 192,
          "midi": 58,
          "name": "A#3",
          "ticks": 188347,
          "time": 245.24348958333334,
          "velocity": 0.3937007874015748
        },
        {
          "duration": 0.25,
          "durationTicks": 192,
          "midi": 46,
          "name": "A#2",
          "ticks": 188555,
          "time": 245.51432291666666,
          "velocity": 0.3937007874015748
        },
        {
          "duration": 0.25,
          "durationTicks": 192,
          "midi": 58,
          "name": "A#3",
          "ticks": 188747,
          "time": 245.76432291666666,
          "velocity": 0.3937007874015748
        },
        {
          "duration": 0.25,
          "durationTicks": 192,
          "midi": 46,
          "name": "A#2",
          "ticks": 188947,
          "time": 246.02473958333334,
          "velocity": 0.3937007874015748
        },
        {
          "duration": 0.25,
          "durationTicks": 192,
          "midi": 58,
          "name": "A#3",
          "ticks": 189124,
          "time": 246.25520833333334,
          "velocity": 0.3937007874015748
        },
        {
          "duration": 0.25,
          "durationTicks": 192,
          "midi": 46,
          "name": "A#2",
          "ticks": 189328,
          "time": 246.52083333333334,
          "velocity": 0.3937007874015748
        },
        {
          "duration": 0.25,
          "durationTicks": 192,
          "midi": 58,
          "name": "A#3",
          "ticks": 189520,
          "time": 246.77083333333334,
          "velocity": 0.3937007874015748
        },
        {
          "duration": 0.25,
          "durationTicks": 192,
          "midi": 46,
          "name": "A#2",
          "ticks": 189720,
          "time": 247.03125,
          "velocity": 0.3937007874015748
        },
        {
          "duration": 0.25,
          "durationTicks": 192,
          "midi": 58,
          "name": "A#3",
          "ticks": 189897,
          "time": 247.26171875,
          "velocity": 0.3937007874015748
        },
        {
          "duration": 0.25,
          "durationTicks": 192,
          "midi": 46,
          "name": "A#2",
          "ticks": 190101,
          "time": 247.52734375,
          "velocity": 0.3937007874015748
        },
        {
          "duration": 0.12630208333331439,
          "durationTicks": 97,
          "midi": 58,
          "name": "A#3",
          "ticks": 190285,
          "time": 247.76692708333334,
          "velocity": 0.3937007874015748
        },
        {
          "duration": 0.2513020833333144,
          "durationTicks": 193,
          "midi": 58,
          "name": "A#3",
          "ticks": 190285,
          "time": 247.76692708333334,
          "velocity": 0.3937007874015748
        },
        {
          "duration": 2.625,
          "durationTicks": 2016,
          "midi": 74,
          "name": "D5",
          "ticks": 221194,
          "time": 288.0130208333333,
          "velocity": 0.3937007874015748
        },
        {
          "duration": 2.5,
          "durationTicks": 1920,
          "midi": 65,
          "name": "F4",
          "ticks": 221198,
          "time": 288.0182291666667,
          "velocity": 0.3937007874015748
        },
        {
          "duration": 2.625,
          "durationTicks": 2016,
          "midi": 70,
          "name": "A#4",
          "ticks": 221198,
          "time": 288.0182291666667,
          "velocity": 0.3937007874015748
        },
        {
          "duration": 0.2513020833333144,
          "durationTicks": 193,
          "midi": 70,
          "name": "A#4",
          "ticks": 223314,
          "time": 290.7734375,
          "velocity": 0.3937007874015748
        },
        {
          "duration": 0.2513020833333144,
          "durationTicks": 193,
          "midi": 75,
          "name": "D#5",
          "ticks": 223322,
          "time": 290.7838541666667,
          "velocity": 0.3937007874015748
        },
        {
          "duration": 0.25130208333337123,
          "durationTicks": 193,
          "midi": 67,
          "name": "G4",
          "ticks": 223327,
          "time": 290.7903645833333,
          "velocity": 0.3937007874015748
        },
        {
          "duration": 0.25,
          "durationTicks": 192,
          "midi": 77,
          "name": "F5",
          "ticks": 223688,
          "time": 291.2604166666667,
          "velocity": 0.3937007874015748
        },
        {
          "duration": 0.25,
          "durationTicks": 192,
          "midi": 69,
          "name": "A4",
          "ticks": 223692,
          "time": 291.265625,
          "velocity": 0.3937007874015748
        },
        {
          "duration": 0.25,
          "durationTicks": 192,
          "midi": 72,
          "name": "C5",
          "ticks": 223696,
          "time": 291.2708333333333,
          "velocity": 0.3937007874015748
        },
        {
          "duration": 0.25,
          "durationTicks": 192,
          "midi": 69,
          "name": "A4",
          "ticks": 224064,
          "time": 291.75,
          "velocity": 0.3937007874015748
        },
        {
          "duration": 0.25,
          "durationTicks": 192,
          "midi": 65,
          "name": "F4",
          "ticks": 224064,
          "time": 291.75,
          "velocity": 0.3937007874015748
        },
        {
          "duration": 0.25,
          "durationTicks": 192,
          "midi": 72,
          "name": "C5",
          "ticks": 224064,
          "time": 291.75,
          "velocity": 0.3937007874015748
        },
        {
          "duration": 0.125,
          "durationTicks": 96,
          "midi": 74,
          "name": "D5",
          "ticks": 224448,
          "time": 292.25,
          "velocity": 0.3937007874015748
        },
        {
          "duration": 0.125,
          "durationTicks": 96,
          "midi": 70,
          "name": "A#4",
          "ticks": 224452,
          "time": 292.2552083333333,
          "velocity": 0.3937007874015748
        },
        {
          "duration": 0.125,
          "durationTicks": 96,
          "midi": 65,
          "name": "F4",
          "ticks": 224457,
          "time": 292.26171875,
          "velocity": 0.3937007874015748
        },
        {
          "duration": 2.375,
          "durationTicks": 1824,
          "midi": 65,
          "name": "F4",
          "ticks": 224657,
          "time": 292.5221354166667,
          "velocity": 0.3937007874015748
        },
        {
          "duration": 2.375,
          "durationTicks": 1824,
          "midi": 70,
          "name": "A#4",
          "ticks": 224657,
          "time": 292.5221354166667,
          "velocity": 0.3937007874015748
        },
        {
          "duration": 2.5,
          "durationTicks": 1920,
          "midi": 74,
          "name": "D5",
          "ticks": 224657,
          "time": 292.5221354166667,
          "velocity": 0.3937007874015748
        },
        {
          "duration": 0.25,
          "durationTicks": 192,
          "midi": 70,
          "name": "A#4",
          "ticks": 226589,
          "time": 295.0377604166667,
          "velocity": 0.3937007874015748
        },
        {
          "duration": 0.375,
          "durationTicks": 288,
          "midi": 74,
          "name": "D5",
          "ticks": 226589,
          "time": 295.0377604166667,
          "velocity": 0.3937007874015748
        },
        {
          "duration": 0.375,
          "durationTicks": 288,
          "midi": 65,
          "name": "F4",
          "ticks": 226594,
          "time": 295.0442708333333,
          "velocity": 0.3937007874015748
        },
        {
          "duration": 0.375,
          "durationTicks": 288,
          "midi": 65,
          "name": "F4",
          "ticks": 226962,
          "time": 295.5234375,
          "velocity": 0.3937007874015748
        },
        {
          "duration": 0.375,
          "durationTicks": 288,
          "midi": 72,
          "name": "C5",
          "ticks": 226962,
          "time": 295.5234375,
          "velocity": 0.3937007874015748
        },
        {
          "duration": 0.375,
          "durationTicks": 288,
          "midi": 69,
          "name": "A4",
          "ticks": 226966,
          "time": 295.5286458333333,
          "velocity": 0.3937007874015748
        },
        {
          "duration": 1.875,
          "durationTicks": 1440,
          "midi": 67,
          "name": "G4",
          "ticks": 227330,
          "time": 296.0026041666667,
          "velocity": 0.3937007874015748
        },
        {
          "duration": 1.75,
          "durationTicks": 1344,
          "midi": 62,
          "name": "D4",
          "ticks": 227339,
          "time": 296.0143229166667,
          "velocity": 0.3937007874015748
        },
        {
          "duration": 1.875,
          "durationTicks": 1440,
          "midi": 70,
          "name": "A#4",
          "ticks": 227339,
          "time": 296.0143229166667,
          "velocity": 0.3937007874015748
        },
        {
          "duration": 1.125,
          "durationTicks": 864,
          "midi": 67,
          "name": "G4",
          "ticks": 228875,
          "time": 298.0143229166667,
          "velocity": 0.3937007874015748
        },
        {
          "duration": 1.125,
          "durationTicks": 864,
          "midi": 70,
          "name": "A#4",
          "ticks": 228875,
          "time": 298.0143229166667,
          "velocity": 0.3937007874015748
        },
        {
          "duration": 1.125,
          "durationTicks": 864,
          "midi": 63,
          "name": "D#4",
          "ticks": 228875,
          "time": 298.0143229166667,
          "velocity": 0.3937007874015748
        },
        {
          "duration": 0.125,
          "durationTicks": 96,
          "midi": 63,
          "name": "D#4",
          "ticks": 229843,
          "time": 299.2747395833333,
          "velocity": 0.3937007874015748
        },
        {
          "duration": 0.125,
          "durationTicks": 96,
          "midi": 72,
          "name": "C5",
          "ticks": 229843,
          "time": 299.2747395833333,
          "velocity": 0.3937007874015748
        },
        {
          "duration": 0.125,
          "durationTicks": 96,
          "midi": 67,
          "name": "G4",
          "ticks": 229847,
          "time": 299.2799479166667,
          "velocity": 0.3937007874015748
        },
        {
          "duration": 3.6263020833333712,
          "durationTicks": 2785,
          "midi": 62,
          "name": "D4",
          "ticks": 230215,
          "time": 299.7591145833333,
          "velocity": 0.3937007874015748
        },
        {
          "duration": 0.25,
          "durationTicks": 192,
          "midi": 74,
          "name": "D5",
          "ticks": 232720,
          "time": 303.0208333333333,
          "velocity": 0.3937007874015748
        },
        {
          "duration": 0.25,
          "durationTicks": 192,
          "midi": 70,
          "name": "A#4",
          "ticks": 232724,
          "time": 303.0260416666667,
          "velocity": 0.3937007874015748
        },
        {
          "duration": 0.5013020833333144,
          "durationTicks": 385,
          "midi": 70,
          "name": "A#4",
          "ticks": 232724,
          "time": 303.0260416666667,
          "velocity": 0.3937007874015748
        },
        {
          "duration": 0.25,
          "durationTicks": 192,
          "midi": 65,
          "name": "F4",
          "ticks": 232728,
          "time": 303.03125,
          "velocity": 0.3937007874015748
        },
        {
          "duration": 0.5013020833333144,
          "durationTicks": 385,
          "midi": 65,
          "name": "F4",
          "ticks": 232728,
          "time": 303.03125,
          "velocity": 0.3937007874015748
        },
        {
          "duration": 0.25,
          "durationTicks": 192,
          "midi": 65,
          "name": "F4",
          "ticks": 233105,
          "time": 303.5221354166667,
          "velocity": 0.3937007874015748
        },
        {
          "duration": 0.125,
          "durationTicks": 96,
          "midi": 69,
          "name": "A4",
          "ticks": 233109,
          "time": 303.52734375,
          "velocity": 0.3937007874015748
        },
        {
          "duration": 0.25,
          "durationTicks": 192,
          "midi": 72,
          "name": "C5",
          "ticks": 233109,
          "time": 303.52734375,
          "velocity": 0.3937007874015748
        },
        {
          "duration": 1.75,
          "durationTicks": 1344,
          "midi": 62,
          "name": "D4",
          "ticks": 233493,
          "time": 304.02734375,
          "velocity": 0.3937007874015748
        },
        {
          "duration": 1.875,
          "durationTicks": 1440,
          "midi": 70,
          "name": "A#4",
          "ticks": 233493,
          "time": 304.02734375,
          "velocity": 0.3937007874015748
        },
        {
          "duration": 1.875,
          "durationTicks": 1440,
          "midi": 67,
          "name": "G4",
          "ticks": 233493,
          "time": 304.02734375,
          "velocity": 0.3937007874015748
        },
        {
          "duration": 2.625,
          "durationTicks": 2016,
          "midi": 74,
          "name": "D5",
          "ticks": 233493,
          "time": 304.02734375,
          "velocity": 0.3937007874015748
        },
        {
          "duration": 1.125,
          "durationTicks": 864,
          "midi": 67,
          "name": "G4",
          "ticks": 235025,
          "time": 306.0221354166667,
          "velocity": 0.3937007874015748
        },
        {
          "duration": 1.125,
          "durationTicks": 864,
          "midi": 63,
          "name": "D#4",
          "ticks": 235025,
          "time": 306.0221354166667,
          "velocity": 0.3937007874015748
        },
        {
          "duration": 1.125,
          "durationTicks": 864,
          "midi": 70,
          "name": "A#4",
          "ticks": 235029,
          "time": 306.02734375,
          "velocity": 0.3937007874015748
        },
        {
          "duration": 0.125,
          "durationTicks": 96,
          "midi": 72,
          "name": "C5",
          "ticks": 236001,
          "time": 307.29296875,
          "velocity": 0.3937007874015748
        },
        {
          "duration": 0.125,
          "durationTicks": 96,
          "midi": 63,
          "name": "D#4",
          "ticks": 236006,
          "time": 307.2994791666667,
          "velocity": 0.3937007874015748
        },
        {
          "duration": 0.125,
          "durationTicks": 96,
          "midi": 67,
          "name": "G4",
          "ticks": 236010,
          "time": 307.3046875,
          "velocity": 0.3937007874015748
        },
        {
          "duration": 3.875,
          "durationTicks": 2976,
          "midi": 62,
          "name": "D4",
          "ticks": 236378,
          "time": 307.7838541666667,
          "velocity": 0.3937007874015748
        },
        {
          "duration": 3.875,
          "durationTicks": 2976,
          "midi": 65,
          "name": "F4",
          "ticks": 236378,
          "time": 307.7838541666667,
          "velocity": 0.3937007874015748
        },
        {
          "duration": 3.875,
          "durationTicks": 2976,
          "midi": 70,
          "name": "A#4",
          "ticks": 236378,
          "time": 307.7838541666667,
          "velocity": 0.3937007874015748
        },
        {
          "duration": 1.875,
          "durationTicks": 1440,
          "midi": 67,
          "name": "G4",
          "ticks": 239642,
          "time": 312.0338541666667,
          "velocity": 0.3937007874015748
        },
        {
          "duration": 1.875,
          "durationTicks": 1440,
          "midi": 70,
          "name": "A#4",
          "ticks": 239642,
          "time": 312.0338541666667,
          "velocity": 0.3937007874015748
        },
        {
          "duration": 1.875,
          "durationTicks": 1440,
          "midi": 62,
          "name": "D4",
          "ticks": 239646,
          "time": 312.0390625,
          "velocity": 0.3937007874015748
        },
        {
          "duration": 1.125,
          "durationTicks": 864,
          "midi": 67,
          "name": "G4",
          "ticks": 241194,
          "time": 314.0546875,
          "velocity": 0.3937007874015748
        },
        {
          "duration": 1.125,
          "durationTicks": 864,
          "midi": 63,
          "name": "D#4",
          "ticks": 241194,
          "time": 314.0546875,
          "velocity": 0.3937007874015748
        },
        {
          "duration": 1.125,
          "durationTicks": 864,
          "midi": 70,
          "name": "A#4",
          "ticks": 241198,
          "time": 314.0598958333333,
          "velocity": 0.3937007874015748
        },
        {
          "duration": 0.125,
          "durationTicks": 96,
          "midi": 72,
          "name": "C5",
          "ticks": 242158,
          "time": 315.3098958333333,
          "velocity": 0.3937007874015748
        },
        {
          "duration": 0.125,
          "durationTicks": 96,
          "midi": 63,
          "name": "D#4",
          "ticks": 242158,
          "time": 315.3098958333333,
          "velocity": 0.3937007874015748
        },
        {
          "duration": 0.125,
          "durationTicks": 96,
          "midi": 67,
          "name": "G4",
          "ticks": 242166,
          "time": 315.3203125,
          "velocity": 0.3937007874015748
        },
        {
          "duration": 0.125,
          "durationTicks": 96,
          "midi": 70,
          "name": "A#4",
          "ticks": 242166,
          "time": 315.3203125,
          "velocity": 0.3937007874015748
        },
        {
          "duration": 3,
          "durationTicks": 2304,
          "midi": 62,
          "name": "D4",
          "ticks": 242550,
          "time": 315.8203125,
          "velocity": 0.3937007874015748
        },
        {
          "duration": 3,
          "durationTicks": 2304,
          "midi": 65,
          "name": "F4",
          "ticks": 242550,
          "time": 315.8203125,
          "velocity": 0.3937007874015748
        },
        {
          "duration": 3,
          "durationTicks": 2304,
          "midi": 70,
          "name": "A#4",
          "ticks": 242550,
          "time": 315.8203125,
          "velocity": 0.3937007874015748
        }
      ],
      "endOfTrackTicks": 244854
    }
  ]
}