{
  "header": {
    "keySignatures": [
      {
        "key": "A",
        "scale": "major",
        "ticks": 0
      },
      {
        "key": "A",
        "scale": "major",
        "ticks": 0
      },
      {
        "key": "A",
        "scale": "major",
        "ticks": 0
      }
    ],
    "meta": {
      "title": "Mii Channel",
      "artist": "Nintendo",
      "creator": "unknown"
    },
    "name": "",
    "ppq": 480,
    "tempos": [],
    "timeSignatures": [
      {
        "ticks": 0,
        "timeSignature": [
          4,
          4
        ],
        "measures": 0
      }
    ]
  },
  "tracks": [
    {
      "channel": 0,
      "controlChanges": {
        "7": [
          {
            "number": 7,
            "ticks": 2,
            "time": 0.0020833333333333333,
            "value": 0.7874015748031497
          }
        ],
        "10": [
          {
            "number": 10,
            "ticks": 4,
            "time": 0.004166666666666667,
            "value": 0.5039370078740157
          }
        ],
        "91": [
          {
            "number": 91,
            "ticks": 6,
            "time": 0.00625,
            "value": 0.23622047244094488
          }
        ],
        "93": [
          {
            "number": 93,
            "ticks": 8,
            "time": 0.008333333333333333,
            "value": 0.23622047244094488
          }
        ]
      },
      "pitchBends": [],
      "instrument": {
        "family": "piano",
        "number": 4,
        "name": "electric piano 1"
      },
      "name": "",
      "notes": [
        {
          "duration": 0.24895833333333334,
          "durationTicks": 239,
          "midi": 66,
          "name": "F#4",
          "ticks": 0,
          "time": 0,
          "velocity": 0.7559055118110236
        },
        {
          "duration": 0.24895833333333334,
          "durationTicks": 239,
          "midi": 62,
          "name": "D4",
          "ticks": 0,
          "time": 0,
          "velocity": 0.7559055118110236
        },
        {
          "duration": 0.12395833333333328,
          "durationTicks": 119,
          "midi": 69,
          "name": "A4",
          "ticks": 480,
          "time": 0.5,
          "velocity": 0.7559055118110236
        },
        {
          "duration": 0.12395833333333328,
          "durationTicks": 119,
          "midi": 66,
          "name": "F#4",
          "ticks": 480,
          "time": 0.5,
          "velocity": 0.7559055118110236
        },
        {
          "duration": 0.12395833333333328,
          "durationTicks": 119,
          "midi": 73,
          "name": "C#5",
          "ticks": 720,
          "time": 0.75,
          "velocity": 0.7559055118110236
        },
        {
          "duration": 0.12395833333333328,
          "durationTicks": 119,
          "midi": 69,
          "name": "A4",
          "ticks": 720,
          "time": 0.75,
          "velocity": 0.7559055118110236
        },
        {
          "duration": 0.12395833333333339,
          "durationTicks": 119,
          "midi": 69,
          "name": "A4",
          "ticks": 1200,
          "time": 1.25,
          "velocity": 0.7559055118110236
        },
        {
          "duration": 0.12395833333333339,
          "durationTicks": 119,
          "midi": 66,
          "name": "F#4",
          "ticks": 1200,
          "time": 1.25,
          "velocity": 0.7559055118110236
        },
        {
          "duration": 0.2489583333333334,
          "durationTicks": 239,
          "midi": 66,
          "name": "F#4",
          "ticks": 1680,
          "time": 1.75,
          "velocity": 0.7559055118110236
        },
        {
          "duration": 0.2489583333333334,
          "durationTicks": 239,
          "midi": 62,
          "name": "D4",
          "ticks": 1680,
          "time": 1.75,
          "velocity": 0.7559055118110236
        },
        {
          "duration": 0.12395833333333339,
          "durationTicks": 119,
          "midi": 62,
          "name": "D4",
          "ticks": 1920,
          "time": 2,
          "velocity": 0.7559055118110236
        },
        {
          "duration": 0.12395833333333339,
          "durationTicks": 119,
          "midi": 56,
          "name": "G#3",
          "ticks": 1920,
          "time": 2,
          "velocity": 0.7559055118110236
        },
        {
          "duration": 0.12395833333333339,
          "durationTicks": 119,
          "midi": 62,
          "name": "D4",
          "ticks": 2160,
          "time": 2.25,
          "velocity": 0.7559055118110236
        },
        {
          "duration": 0.12395833333333339,
          "durationTicks": 119,
          "midi": 56,
          "name": "G#3",
          "ticks": 2160,
          "time": 2.25,
          "velocity": 0.7559055118110236
        },
        {
          "duration": 0.12395833333333339,
          "durationTicks": 119,
          "midi": 62,
          "name": "D4",
          "ticks": 2400,
          "time": 2.5,
          "velocity": 0.7559055118110236
        },
        {
          "duration": 0.12395833333333339,
          "durationTicks": 119,
          "midi": 56,
          "name": "G#3",
          "ticks": 2400,
          "time": 2.5,
          "velocity": 0.7559055118110236
        },
        {
          "duration": 0.12395833333333339,
          "durationTicks": 119,
          "midi": 66,
          "name": "F#4",
          "ticks": 4080,
          "time": 4.25,
          "velocity": 0.7559055118110236
        },
        {
          "duration": 0.12395833333333339,
          "durationTicks": 119,
          "midi": 62,
          "name": "D4",
          "ticks": 4080,
          "time": 4.25,
          "velocity": 0.7559055118110236
        },
        {
          "duration": 0.12395833333333339,
          "durationTicks": 119,
          "midi": 69,
          "name": "A4",
          "ticks": 4320,
          "time": 4.5,
          "velocity": 0.7559055118110236
        },
        {
          "duration": 0.12395833333333339,
          "durationTicks": 119,
          "midi": 66,
          "name": "F#4",
          "ticks": 4320,
          "time": 4.5,
          "velocity": 0.7559055118110236
        },
        {
          "duration": 0.12395833333333339,
          "durationTicks": 119,
          "midi": 73,
          "name": "C#5",
          "ticks": 4560,
          "time": 4.75,
          "velocity": 0.7559055118110236
        },
        {
          "duration": 0.12395833333333339,
          "durationTicks": 119,
          "midi": 69,
          "name": "A4",
          "ticks": 4560,
          "time": 4.75,
          "velocity": 0.7559055118110236
        },
        {
          "duration": 0.12395833333333339,
          "durationTicks": 119,
          "midi": 69,
          "name": "A4",
          "ticks": 5040,
          "time": 5.25,
          "velocity": 0.7559055118110236
        },
        {
          "duration": 0.12395833333333339,
          "durationTicks": 119,
          "midi": 66,
          "name": "F#4",
          "ticks": 5040,
          "time": 5.25,
          "velocity": 0.7559055118110236
        },
        {
          "duration": 0.2489583333333334,
          "durationTicks": 239,
          "midi": 66,
          "name": "F#4",
          "ticks": 5520,
          "time": 5.75,
          "velocity": 0.7559055118110236
        },
        {
          "duration": 0.2489583333333334,
          "durationTicks": 239,
          "midi": 62,
          "name": "D4",
          "ticks": 5520,
          "time": 5.75,
          "velocity": 0.7559055118110236
        },
        {
          "duration": 0.7489583333333334,
          "durationTicks": 719,
          "midi": 68,
          "name": "G#4",
          "ticks": 5760,
          "time": 6,
          "velocity": 0.7559055118110236
        },
        {
          "duration": 0.7489583333333334,
          "durationTicks": 719,
          "midi": 62,
          "name": "D4",
          "ticks": 5760,
          "time": 6,
          "velocity": 0.7559055118110236
        },
        {
          "duration": 0.1239583333333325,
          "durationTicks": 119,
          "midi": 68,
          "name": "G#4",
          "ticks": 7680,
          "time": 8,
          "velocity": 0.7559055118110236
        },
        {
          "duration": 0.1239583333333325,
          "durationTicks": 119,
          "midi": 73,
          "name": "C#5",
          "ticks": 8160,
          "time": 8.5,
          "velocity": 0.7559055118110236
        },
        {
          "duration": 0.1239583333333325,
          "durationTicks": 119,
          "midi": 66,
          "name": "F#4",
          "ticks": 8400,
          "time": 8.75,
          "velocity": 0.7559055118110236
        },
        {
          "duration": 0.1239583333333325,
          "durationTicks": 119,
          "midi": 73,
          "name": "C#5",
          "ticks": 8880,
          "time": 9.25,
          "velocity": 0.7559055118110236
        },
        {
          "duration": 0.1239583333333325,
          "durationTicks": 119,
          "midi": 68,
          "name": "G#4",
          "ticks": 9360,
          "time": 9.75,
          "velocity": 0.7559055118110236
        },
        {
          "duration": 0.2489583333333325,
          "durationTicks": 239,
          "midi": 73,
          "name": "C#5",
          "ticks": 9840,
          "time": 10.25,
          "velocity": 0.7559055118110236
        },
        {
          "duration": 0.2489583333333325,
          "durationTicks": 239,
          "midi": 67,
          "name": "G4",
          "ticks": 10320,
          "time": 10.75,
          "velocity": 0.7559055118110236
        },
        {
          "duration": 0.1239583333333325,
          "durationTicks": 119,
          "midi": 66,
          "name": "F#4",
          "ticks": 10560,
          "time": 11,
          "velocity": 0.7559055118110236
        },
        {
          "duration": 0.1239583333333325,
          "durationTicks": 119,
          "midi": 64,
          "name": "E4",
          "ticks": 11040,
          "time": 11.5,
          "velocity": 0.7559055118110236
        },
        {
          "duration": 0.1239583333333325,
          "durationTicks": 119,
          "midi": 61,
          "name": "C#4",
          "ticks": 11040,
          "time": 11.5,
          "velocity": 0.7559055118110236
        },
        {
          "duration": 0.1239583333333325,
          "durationTicks": 119,
          "midi": 64,
          "name": "E4",
          "ticks": 11520,
          "time": 12,
          "velocity": 0.7559055118110236
        },
        {
          "duration": 0.1239583333333325,
          "durationTicks": 119,
          "midi": 60,
          "name": "C4",
          "ticks": 11520,
          "time": 12,
          "velocity": 0.7559055118110236
        },
        {
          "duration": 0.1239583333333325,
          "durationTicks": 119,
          "midi": 64,
          "name": "E4",
          "ticks": 11760,
          "time": 12.25,
          "velocity": 0.7559055118110236
        },
        {
          "duration": 0.1239583333333325,
          "durationTicks": 119,
          "midi": 60,
          "name": "C4",
          "ticks": 11760,
          "time": 12.25,
          "velocity": 0.7559055118110236
        },
        {
          "duration": 0.1239583333333325,
          "durationTicks": 119,
          "midi": 64,
          "name": "E4",
          "ticks": 12000,
          "time": 12.5,
          "velocity": 0.7559055118110236
        },
        {
          "duration": 0.1239583333333325,
          "durationTicks": 119,
          "midi": 60,
          "name": "C4",
          "ticks": 12000,
          "time": 12.5,
          "velocity": 0.7559055118110236
        },
        {
          "duration": 0.1239583333333325,
          "durationTicks": 119,
          "midi": 64,
          "name": "E4",
          "ticks": 13440,
          "time": 14,
          "velocity": 0.7559055118110236
        },
        {
          "duration": 0.1239583333333325,
          "durationTicks": 119,
          "midi": 60,
          "name": "C4",
          "ticks": 13440,
          "time": 14,
          "velocity": 0.7559055118110236
        },
        {
          "duration": 0.1239583333333325,
          "durationTicks": 119,
          "midi": 64,
          "name": "E4",
          "ticks": 13680,
          "time": 14.25,
          "velocity": 0.7559055118110236
        },
        {
          "duration": 0.1239583333333325,
          "durationTicks": 119,
          "midi": 60,
          "name": "C4",
          "ticks": 13680,
          "time": 14.25,
          "velocity": 0.7559055118110236
        },
        {
          "duration": 0.1239583333333325,
          "durationTicks": 119,
          "midi": 64,
          "name": "E4",
          "ticks": 13920,
          "time": 14.5,
          "velocity": 0.7559055118110236
        },
        {
          "duration": 0.1239583333333325,
          "durationTicks": 119,
          "midi": 60,
          "name": "C4",
          "ticks": 13920,
          "time": 14.5,
          "velocity": 0.7559055118110236
        },
        {
          "duration": 0.4989583333333325,
          "durationTicks": 479,
          "midi": 71,
          "name": "B4",
          "ticks": 14400,
          "time": 15,
          "velocity": 0.7559055118110236
        },
        {
          "duration": 0.4989583333333325,
          "durationTicks": 479,
          "midi": 64,
          "name": "E4",
          "ticks": 14400,
          "time": 15,
          "velocity": 0.7559055118110236
        },
        {
          "duration": 0.4989583333333325,
          "durationTicks": 479,
          "midi": 70,
          "name": "A#4",
          "ticks": 14880,
          "time": 15.5,
          "velocity": 0.7559055118110236
        },
        {
          "duration": 0.4989583333333325,
          "durationTicks": 479,
          "midi": 63,
          "name": "D#4",
          "ticks": 14880,
          "time": 15.5,
          "velocity": 0.7559055118110236
        },
        {
          "duration": 0.12395833333333428,
          "durationTicks": 119,
          "midi": 69,
          "name": "A4",
          "ticks": 15360,
          "time": 16,
          "velocity": 0.7559055118110236
        },
        {
          "duration": 0.12395833333333428,
          "durationTicks": 119,
          "midi": 66,
          "name": "F#4",
          "ticks": 15360,
          "time": 16,
          "velocity": 0.7559055118110236
        },
        {
          "duration": 0.12395833333333428,
          "durationTicks": 119,
          "midi": 69,
          "name": "A4",
          "ticks": 15840,
          "time": 16.5,
          "velocity": 0.7559055118110236
        },
        {
          "duration": 0.12395833333333428,
          "durationTicks": 119,
          "midi": 66,
          "name": "F#4",
          "ticks": 15840,
          "time": 16.5,
          "velocity": 0.7559055118110236
        },
        {
          "duration": 0.12395833333333428,
          "durationTicks": 119,
          "midi": 73,
          "name": "C#5",
          "ticks": 16080,
          "time": 16.75,
          "velocity": 0.7559055118110236
        },
        {
          "duration": 0.12395833333333428,
          "durationTicks": 119,
          "midi": 69,
          "name": "A4",
          "ticks": 16080,
          "time": 16.75,
          "velocity": 0.7559055118110236
        },
        {
          "duration": 0.12395833333333428,
          "durationTicks": 119,
          "midi": 69,
          "name": "A4",
          "ticks": 16560,
          "time": 17.25,
          "velocity": 0.7559055118110236
        },
        {
          "duration": 0.12395833333333428,
          "durationTicks": 119,
          "midi": 66,
          "name": "F#4",
          "ticks": 16560,
          "time": 17.25,
          "velocity": 0.7559055118110236
        },
        {
          "duration": 0.24895833333333428,
          "durationTicks": 239,
          "midi": 66,
          "name": "F#4",
          "ticks": 17040,
          "time": 17.75,
          "velocity": 0.7559055118110236
        },
        {
          "duration": 0.24895833333333428,
          "durationTicks": 239,
          "midi": 62,
          "name": "D4",
          "ticks": 17040,
          "time": 17.75,
          "velocity": 0.7559055118110236
        },
        {
          "duration": 0.12395833333333428,
          "durationTicks": 119,
          "midi": 62,
          "name": "D4",
          "ticks": 17280,
          "time": 18,
          "velocity": 0.7559055118110236
        },
        {
          "duration": 0.12395833333333428,
          "durationTicks": 119,
          "midi": 56,
          "name": "G#3",
          "ticks": 17280,
          "time": 18,
          "velocity": 0.7559055118110236
        },
        {
          "duration": 0.12395833333333428,
          "durationTicks": 119,
          "midi": 62,
          "name": "D4",
          "ticks": 17520,
          "time": 18.25,
          "velocity": 0.7559055118110236
        },
        {
          "duration": 0.12395833333333428,
          "durationTicks": 119,
          "midi": 56,
          "name": "G#3",
          "ticks": 17520,
          "time": 18.25,
          "velocity": 0.7559055118110236
        },
        {
          "duration": 0.12395833333333428,
          "durationTicks": 119,
          "midi": 62,
          "name": "D4",
          "ticks": 17760,
          "time": 18.5,
          "velocity": 0.7559055118110236
        },
        {
          "duration": 0.12395833333333428,
          "durationTicks": 119,
          "midi": 56,
          "name": "G#3",
          "ticks": 17760,
          "time": 18.5,
          "velocity": 0.7559055118110236
        },
        {
          "duration": 0.12395833333333428,
          "durationTicks": 119,
          "midi": 76,
          "name": "E5",
          "ticks": 18240,
          "time": 19,
          "velocity": 0.7559055118110236
        },
        {
          "duration": 0.12395833333333428,
          "durationTicks": 119,
          "midi": 68,
          "name": "G#4",
          "ticks": 18240,
          "time": 19,
          "velocity": 0.7559055118110236
        },
        {
          "duration": 0.12395833333333428,
          "durationTicks": 119,
          "midi": 76,
          "name": "E5",
          "ticks": 18480,
          "time": 19.25,
          "velocity": 0.7559055118110236
        },
        {
          "duration": 0.12395833333333428,
          "durationTicks": 119,
          "midi": 68,
          "name": "G#4",
          "ticks": 18480,
          "time": 19.25,
          "velocity": 0.7559055118110236
        },
        {
          "duration": 0.12395833333333428,
          "durationTicks": 119,
          "midi": 76,
          "name": "E5",
          "ticks": 18720,
          "time": 19.5,
          "velocity": 0.7559055118110236
        },
        {
          "duration": 0.12395833333333428,
          "durationTicks": 119,
          "midi": 68,
          "name": "G#4",
          "ticks": 18720,
          "time": 19.5,
          "velocity": 0.7559055118110236
        },
        {
          "duration": 0.12395833333333428,
          "durationTicks": 119,
          "midi": 66,
          "name": "F#4",
          "ticks": 19440,
          "time": 20.25,
          "velocity": 0.7559055118110236
        },
        {
          "duration": 0.12395833333333428,
          "durationTicks": 119,
          "midi": 62,
          "name": "D4",
          "ticks": 19440,
          "time": 20.25,
          "velocity": 0.7559055118110236
        },
        {
          "duration": 0.12395833333333428,
          "durationTicks": 119,
          "midi": 69,
          "name": "A4",
          "ticks": 19680,
          "time": 20.5,
          "velocity": 0.7559055118110236
        },
        {
          "duration": 0.12395833333333428,
          "durationTicks": 119,
          "midi": 66,
          "name": "F#4",
          "ticks": 19680,
          "time": 20.5,
          "velocity": 0.7559055118110236
        },
        {
          "duration": 0.12395833333333428,
          "durationTicks": 119,
          "midi": 73,
          "name": "C#5",
          "ticks": 19920,
          "time": 20.75,
          "velocity": 0.7559055118110236
        },
        {
          "duration": 0.12395833333333428,
          "durationTicks": 119,
          "midi": 69,
          "name": "A4",
          "ticks": 19920,
          "time": 20.75,
          "velocity": 0.7559055118110236
        },
        {
          "duration": 0.12395833333333428,
          "durationTicks": 119,
          "midi": 69,
          "name": "A4",
          "ticks": 20400,
          "time": 21.25,
          "velocity": 0.7559055118110236
        },
        {
          "duration": 0.12395833333333428,
          "durationTicks": 119,
          "midi": 66,
          "name": "F#4",
          "ticks": 20400,
          "time": 21.25,
          "velocity": 0.7559055118110236
        },
        {
          "duration": 0.24895833333333428,
          "durationTicks": 239,
          "midi": 66,
          "name": "F#4",
          "ticks": 20880,
          "time": 21.75,
          "velocity": 0.7559055118110236
        },
        {
          "duration": 0.24895833333333428,
          "durationTicks": 239,
          "midi": 62,
          "name": "D4",
          "ticks": 20880,
          "time": 21.75,
          "velocity": 0.7559055118110236
        },
        {
          "duration": 0.9989583333333343,
          "durationTicks": 959,
          "midi": 76,
          "name": "E5",
          "ticks": 21120,
          "time": 22,
          "velocity": 0.7559055118110236
        },
        {
          "duration": 0.9989583333333343,
          "durationTicks": 959,
          "midi": 73,
          "name": "C#5",
          "ticks": 21120,
          "time": 22,
          "velocity": 0.7559055118110236
        },
        {
          "duration": 0.9989583333333343,
          "durationTicks": 959,
          "midi": 68,
          "name": "G#4",
          "ticks": 21120,
          "time": 22,
          "velocity": 0.7559055118110236
        },
        {
          "duration": 0.4989583333333343,
          "durationTicks": 479,
          "midi": 74,
          "name": "D5",
          "ticks": 22080,
          "time": 23,
          "velocity": 0.7559055118110236
        },
        {
          "duration": 0.4989583333333343,
          "durationTicks": 479,
          "midi": 71,
          "name": "B4",
          "ticks": 22080,
          "time": 23,
          "velocity": 0.7559055118110236
        },
        {
          "duration": 0.24895833333333428,
          "durationTicks": 239,
          "midi": 71,
          "name": "B4",
          "ticks": 23040,
          "time": 24,
          "velocity": 0.7559055118110236
        },
        {
          "duration": 0.24895833333333428,
          "durationTicks": 239,
          "midi": 67,
          "name": "G4",
          "ticks": 23280,
          "time": 24.25,
          "velocity": 0.7559055118110236
        },
        {
          "duration": 0.24895833333333428,
          "durationTicks": 239,
          "midi": 62,
          "name": "D4",
          "ticks": 23520,
          "time": 24.5,
          "velocity": 0.7559055118110236
        },
        {
          "duration": 0.4989583333333343,
          "durationTicks": 479,
          "midi": 61,
          "name": "C#4",
          "ticks": 23760,
          "time": 24.75,
          "velocity": 0.7559055118110236
        },
        {
          "duration": 0.24895833333333428,
          "durationTicks": 239,
          "midi": 71,
          "name": "B4",
          "ticks": 24240,
          "time": 25.25,
          "velocity": 0.7559055118110236
        },
        {
          "duration": 0.24895833333333428,
          "durationTicks": 239,
          "midi": 67,
          "name": "G4",
          "ticks": 24480,
          "time": 25.5,
          "velocity": 0.7559055118110236
        },
        {
          "duration": 0.24895833333333428,
          "durationTicks": 239,
          "midi": 61,
          "name": "C#4",
          "ticks": 24720,
          "time": 25.75,
          "velocity": 0.7559055118110236
        },
        {
          "duration": 0.24895833333333428,
          "durationTicks": 239,
          "midi": 69,
          "name": "A4",
          "ticks": 24960,
          "time": 26,
          "velocity": 0.7559055118110236
        },
        {
          "duration": 0.24895833333333428,
          "durationTicks": 239,
          "midi": 66,
          "name": "F#4",
          "ticks": 25200,
          "time": 26.25,
          "velocity": 0.7559055118110236
        },
        {
          "duration": 0.24895833333333428,
          "durationTicks": 239,
          "midi": 60,
          "name": "C4",
          "ticks": 25440,
          "time": 26.5,
          "velocity": 0.7559055118110236
        },
        {
          "duration": 0.4989583333333343,
          "durationTicks": 479,
          "midi": 59,
          "name": "B3",
          "ticks": 25680,
          "time": 26.75,
          "velocity": 0.7559055118110236
        },
        {
          "duration": 0.24895833333333428,
          "durationTicks": 239,
          "midi": 66,
          "name": "F#4",
          "ticks": 26160,
          "time": 27.25,
          "velocity": 0.7559055118110236
        },
        {
          "duration": 0.24895833333333428,
          "durationTicks": 239,
          "midi": 62,
          "name": "D4",
          "ticks": 26400,
          "time": 27.5,
          "velocity": 0.7559055118110236
        },
        {
          "duration": 0.24895833333333428,
          "durationTicks": 239,
          "midi": 59,
          "name": "B3",
          "ticks": 26640,
          "time": 27.75,
          "velocity": 0.7559055118110236
        },
        {
          "duration": 0.12395833333333428,
          "durationTicks": 119,
          "midi": 64,
          "name": "E4",
          "ticks": 26880,
          "time": 28,
          "velocity": 0.7559055118110236
        },
        {
          "duration": 0.12395833333333428,
          "durationTicks": 119,
          "midi": 61,
          "name": "C#4",
          "ticks": 26880,
          "time": 28,
          "velocity": 0.7559055118110236
        },
        {
          "duration": 0.12395833333333428,
          "durationTicks": 119,
          "midi": 59,
          "name": "B3",
          "ticks": 26880,
          "time": 28,
          "velocity": 0.7559055118110236
        },
        {
          "duration": 0.12395833333333428,
          "durationTicks": 119,
          "midi": 64,
          "name": "E4",
          "ticks": 27120,
          "time": 28.25,
          "velocity": 0.7559055118110236
        },
        {
          "duration": 0.12395833333333428,
          "durationTicks": 119,
          "midi": 61,
          "name": "C#4",
          "ticks": 27120,
          "time": 28.25,
          "velocity": 0.7559055118110236
        },
        {
          "duration": 0.12395833333333428,
          "durationTicks": 119,
          "midi": 59,
          "name": "B3",
          "ticks": 27120,
          "time": 28.25,
          "velocity": 0.7559055118110236
        },
        {
          "duration": 0.12395833333333428,
          "durationTicks": 119,
          "midi": 64,
          "name": "E4",
          "ticks": 27360,
          "time": 28.5,
          "velocity": 0.7559055118110236
        },
        {
          "duration": 0.12395833333333428,
          "durationTicks": 119,
          "midi": 61,
          "name": "C#4",
          "ticks": 27360,
          "time": 28.5,
          "velocity": 0.7559055118110236
        },
        {
          "duration": 0.12395833333333428,
          "durationTicks": 119,
          "midi": 59,
          "name": "B3",
          "ticks": 27360,
          "time": 28.5,
          "velocity": 0.7559055118110236
        },
        {
          "duration": 0.24895833333333428,
          "durationTicks": 239,
          "midi": 61,
          "name": "C#4",
          "ticks": 28560,
          "time": 29.75,
          "velocity": 0.7559055118110236
        },
        {
          "duration": 0.12395833333333428,
          "durationTicks": 119,
          "midi": 62,
          "name": "D4",
          "ticks": 28800,
          "time": 30,
          "velocity": 0.7559055118110236
        },
        {
          "duration": 0.24895833333333428,
          "durationTicks": 239,
          "midi": 65,
          "name": "F4",
          "ticks": 29040,
          "time": 30.25,
          "velocity": 0.7559055118110236
        },
        {
          "duration": 0.12395833333333428,
          "durationTicks": 119,
          "midi": 66,
          "name": "F#4",
          "ticks": 29280,
          "time": 30.5,
          "velocity": 0.7559055118110236
        },
        {
          "duration": 0.24895833333333428,
          "durationTicks": 239,
          "midi": 71,
          "name": "B4",
          "ticks": 29520,
          "time": 30.75,
          "velocity": 0.7559055118110236
        },
        {
          "duration": 0.12395833333333428,
          "durationTicks": 119,
          "midi": 73,
          "name": "C#5",
          "ticks": 29760,
          "time": 31,
          "velocity": 0.7559055118110236
        },
        {
          "duration": 0.12395833333333428,
          "durationTicks": 119,
          "midi": 66,
          "name": "F#4",
          "ticks": 29760,
          "time": 31,
          "velocity": 0.7559055118110236
        },
        {
          "duration": 0.4989583333333343,
          "durationTicks": 479,
          "midi": 62,
          "name": "D4",
          "ticks": 32640,
          "time": 34,
          "velocity": 0.7559055118110236
        },
        {
          "duration": 0.12395833333333428,
          "durationTicks": 119,
          "midi": 71,
          "name": "B4",
          "ticks": 33120,
          "time": 34.5,
          "velocity": 0.7559055118110236
        },
        {
          "duration": 0.12395833333333428,
          "durationTicks": 119,
          "midi": 67,
          "name": "G4",
          "ticks": 33120,
          "time": 34.5,
          "velocity": 0.7559055118110236
        },
        {
          "duration": 0.4989583333333343,
          "durationTicks": 479,
          "midi": 62,
          "name": "D4",
          "ticks": 33360,
          "time": 34.75,
          "velocity": 0.7559055118110236
        },
        {
          "duration": 0.4989583333333343,
          "durationTicks": 479,
          "midi": 71,
          "name": "B4",
          "ticks": 33840,
          "time": 35.25,
          "velocity": 0.7559055118110236
        },
        {
          "duration": 0.4989583333333343,
          "durationTicks": 479,
          "midi": 67,
          "name": "G4",
          "ticks": 33840,
          "time": 35.25,
          "velocity": 0.7559055118110236
        },
        {
          "duration": 0.24895833333333428,
          "durationTicks": 239,
          "midi": 72,
          "name": "C5",
          "ticks": 34320,
          "time": 35.75,
          "velocity": 0.7559055118110236
        },
        {
          "duration": 0.24895833333333428,
          "durationTicks": 239,
          "midi": 68,
          "name": "G#4",
          "ticks": 34320,
          "time": 35.75,
          "velocity": 0.7559055118110236
        },
        {
          "duration": 0.12395833333333428,
          "durationTicks": 119,
          "midi": 69,
          "name": "A4",
          "ticks": 34560,
          "time": 36,
          "velocity": 0.7559055118110236
        },
        {
          "duration": 0.4989583333333343,
          "durationTicks": 479,
          "midi": 71,
          "name": "B4",
          "ticks": 34800,
          "time": 36.25,
          "velocity": 0.7559055118110236
        },
        {
          "duration": 0.4989583333333343,
          "durationTicks": 479,
          "midi": 67,
          "name": "G4",
          "ticks": 34800,
          "time": 36.25,
          "velocity": 0.7559055118110236
        },
        {
          "duration": 0.24895833333333428,
          "durationTicks": 239,
          "midi": 72,
          "name": "C5",
          "ticks": 35280,
          "time": 36.75,
          "velocity": 0.7559055118110236
        },
        {
          "duration": 0.4989583333333343,
          "durationTicks": 479,
          "midi": 73,
          "name": "C#5",
          "ticks": 35520,
          "time": 37,
          "velocity": 0.7559055118110236
        },
        {
          "duration": 0.4989583333333343,
          "durationTicks": 479,
          "midi": 71,
          "name": "B4",
          "ticks": 36000,
          "time": 37.5,
          "velocity": 0.7559055118110236
        },
        {
          "duration": 0.4989583333333343,
          "durationTicks": 479,
          "midi": 67,
          "name": "G4",
          "ticks": 36000,
          "time": 37.5,
          "velocity": 0.7559055118110236
        },
        {
          "duration": 0.4989583333333343,
          "durationTicks": 479,
          "midi": 61,
          "name": "C#4",
          "ticks": 36480,
          "time": 38,
          "velocity": 0.7559055118110236
        },
        {
          "duration": 0.24895833333333428,
          "durationTicks": 239,
          "midi": 69,
          "name": "A4",
          "ticks": 36960,
          "time": 38.5,
          "velocity": 0.7559055118110236
        },
        {
          "duration": 0.24895833333333428,
          "durationTicks": 239,
          "midi": 66,
          "name": "F#4",
          "ticks": 36960,
          "time": 38.5,
          "velocity": 0.7559055118110236
        },
        {
          "duration": 0.24895833333333428,
          "durationTicks": 239,
          "midi": 62,
          "name": "D4",
          "ticks": 37200,
          "time": 38.75,
          "velocity": 0.7559055118110236
        },
        {
          "duration": 0.24895833333333428,
          "durationTicks": 239,
          "midi": 69,
          "name": "A4",
          "ticks": 37920,
          "time": 39.5,
          "velocity": 0.7559055118110236
        },
        {
          "duration": 0.24895833333333428,
          "durationTicks": 239,
          "midi": 66,
          "name": "F#4",
          "ticks": 37920,
          "time": 39.5,
          "velocity": 0.7559055118110236
        },
        {
          "duration": 0.24895833333333428,
          "durationTicks": 239,
          "midi": 73,
          "name": "C#5",
          "ticks": 38160,
          "time": 39.75,
          "velocity": 0.7559055118110236
        },
        {
          "duration": 0.24895833333333428,
          "durationTicks": 239,
          "midi": 68,
          "name": "G#4",
          "ticks": 38160,
          "time": 39.75,
          "velocity": 0.7559055118110236
        },
        {
          "duration": 0.12395833333333428,
          "durationTicks": 119,
          "midi": 69,
          "name": "A4",
          "ticks": 38400,
          "time": 40,
          "velocity": 0.7559055118110236
        },
        {
          "duration": 0.4989583333333343,
          "durationTicks": 479,
          "midi": 73,
          "name": "C#5",
          "ticks": 38640,
          "time": 40.25,
          "velocity": 0.7559055118110236
        },
        {
          "duration": 0.4989583333333343,
          "durationTicks": 479,
          "midi": 68,
          "name": "G#4",
          "ticks": 38640,
          "time": 40.25,
          "velocity": 0.7559055118110236
        },
        {
          "duration": 0.24895833333333428,
          "durationTicks": 239,
          "midi": 70,
          "name": "A#4",
          "ticks": 39120,
          "time": 40.75,
          "velocity": 0.7559055118110236
        },
        {
          "duration": 0.24895833333333428,
          "durationTicks": 239,
          "midi": 61,
          "name": "C#4",
          "ticks": 39360,
          "time": 41,
          "velocity": 0.7559055118110236
        },
        {
          "duration": 0.24895833333333428,
          "durationTicks": 239,
          "midi": 61,
          "name": "C#4",
          "ticks": 39600,
          "time": 41.25,
          "velocity": 0.7559055118110236
        },
        {
          "duration": 0.4989583333333343,
          "durationTicks": 479,
          "midi": 69,
          "name": "A4",
          "ticks": 39840,
          "time": 41.5,
          "velocity": 0.7559055118110236
        },
        {
          "duration": 0.4989583333333343,
          "durationTicks": 479,
          "midi": 66,
          "name": "F#4",
          "ticks": 39840,
          "time": 41.5,
          "velocity": 0.7559055118110236
        },
        {
          "duration": 0.4989583333333343,
          "durationTicks": 479,
          "midi": 66,
          "name": "F#4",
          "ticks": 40320,
          "time": 42,
          "velocity": 0.7559055118110236
        },
        {
          "duration": 0.24895833333333428,
          "durationTicks": 239,
          "midi": 75,
          "name": "D#5",
          "ticks": 40800,
          "time": 42.5,
          "velocity": 0.7559055118110236
        },
        {
          "duration": 0.24895833333333428,
          "durationTicks": 239,
          "midi": 71,
          "name": "B4",
          "ticks": 40800,
          "time": 42.5,
          "velocity": 0.7559055118110236
        },
        {
          "duration": 0.4989583333333343,
          "durationTicks": 479,
          "midi": 66,
          "name": "F#4",
          "ticks": 41040,
          "time": 42.75,
          "velocity": 0.7559055118110236
        },
        {
          "duration": 0.4989583333333343,
          "durationTicks": 479,
          "midi": 73,
          "name": "C#5",
          "ticks": 41520,
          "time": 43.25,
          "velocity": 0.7559055118110236
        },
        {
          "duration": 0.4989583333333343,
          "durationTicks": 479,
          "midi": 70,
          "name": "A#4",
          "ticks": 41520,
          "time": 43.25,
          "velocity": 0.7559055118110236
        },
        {
          "duration": 0.4989583333333343,
          "durationTicks": 479,
          "midi": 66,
          "name": "F#4",
          "ticks": 42000,
          "time": 43.75,
          "velocity": 0.7559055118110236
        },
        {
          "duration": 0.24895833333333428,
          "durationTicks": 239,
          "midi": 61,
          "name": "C#4",
          "ticks": 42000,
          "time": 43.75,
          "velocity": 0.7559055118110236
        },
        {
          "duration": 0.24895833333333428,
          "durationTicks": 239,
          "midi": 57,
          "name": "A3",
          "ticks": 42000,
          "time": 43.75,
          "velocity": 0.7559055118110236
        },
        {
          "duration": 0.24895833333333428,
          "durationTicks": 239,
          "midi": 58,
          "name": "A#3",
          "ticks": 42240,
          "time": 44,
          "velocity": 0.7559055118110236
        },
        {
          "duration": 0.4989583333333343,
          "durationTicks": 479,
          "midi": 73,
          "name": "C#5",
          "ticks": 42480,
          "time": 44.25,
          "velocity": 0.7559055118110236
        },
        {
          "duration": 0.4989583333333343,
          "durationTicks": 479,
          "midi": 70,
          "name": "A#4",
          "ticks": 42480,
          "time": 44.25,
          "velocity": 0.7559055118110236
        },
        {
          "duration": 0.24895833333333428,
          "durationTicks": 239,
          "midi": 62,
          "name": "D4",
          "ticks": 42960,
          "time": 44.75,
          "velocity": 0.7559055118110236
        },
        {
          "duration": 0.4989583333333343,
          "durationTicks": 479,
          "midi": 64,
          "name": "E4",
          "ticks": 43200,
          "time": 45,
          "velocity": 0.7559055118110236
        },
        {
          "duration": 0.4989583333333343,
          "durationTicks": 479,
          "midi": 73,
          "name": "C#5",
          "ticks": 43680,
          "time": 45.5,
          "velocity": 0.7559055118110236
        },
        {
          "duration": 0.4989583333333343,
          "durationTicks": 479,
          "midi": 70,
          "name": "A#4",
          "ticks": 43680,
          "time": 45.5,
          "velocity": 0.7559055118110236
        },
        {
          "duration": 0.4989583333333343,
          "durationTicks": 479,
          "midi": 64,
          "name": "E4",
          "ticks": 44160,
          "time": 46,
          "velocity": 0.7559055118110236
        },
        {
          "duration": 0.24895833333333428,
          "durationTicks": 239,
          "midi": 73,
          "name": "C#5",
          "ticks": 44640,
          "time": 46.5,
          "velocity": 0.7559055118110236
        },
        {
          "duration": 0.24895833333333428,
          "durationTicks": 239,
          "midi": 69,
          "name": "A4",
          "ticks": 44640,
          "time": 46.5,
          "velocity": 0.7559055118110236
        },
        {
          "duration": 0.4989583333333343,
          "durationTicks": 479,
          "midi": 63,
          "name": "D#4",
          "ticks": 45120,
          "time": 47,
          "velocity": 0.7559055118110236
        },
        {
          "duration": 0.4989583333333343,
          "durationTicks": 479,
          "midi": 71,
          "name": "B4",
          "ticks": 45600,
          "time": 47.5,
          "velocity": 0.7559055118110236
        },
        {
          "duration": 0.4989583333333343,
          "durationTicks": 479,
          "midi": 69,
          "name": "A4",
          "ticks": 45600,
          "time": 47.5,
          "velocity": 0.7559055118110236
        },
        {
          "duration": 0.24895833333333428,
          "durationTicks": 239,
          "midi": 61,
          "name": "C#4",
          "ticks": 46080,
          "time": 48,
          "velocity": 0.7559055118110236
        },
        {
          "duration": 0.24895833333333428,
          "durationTicks": 239,
          "midi": 62,
          "name": "D4",
          "ticks": 46320,
          "time": 48.25,
          "velocity": 0.7559055118110236
        },
        {
          "duration": 0.4989583333333343,
          "durationTicks": 479,
          "midi": 66,
          "name": "F#4",
          "ticks": 46560,
          "time": 48.5,
          "velocity": 0.7559055118110236
        },
        {
          "duration": 0.12395833333333428,
          "durationTicks": 119,
          "midi": 68,
          "name": "G#4",
          "ticks": 47040,
          "time": 49,
          "velocity": 0.7559055118110236
        },
        {
          "duration": 0.12395833333333428,
          "durationTicks": 119,
          "midi": 64,
          "name": "E4",
          "ticks": 47040,
          "time": 49,
          "velocity": 0.7559055118110236
        },
        {
          "duration": 0.12395833333333428,
          "durationTicks": 119,
          "midi": 68,
          "name": "G#4",
          "ticks": 47280,
          "time": 49.25,
          "velocity": 0.7559055118110236
        },
        {
          "duration": 0.12395833333333428,
          "durationTicks": 119,
          "midi": 64,
          "name": "E4",
          "ticks": 47280,
          "time": 49.25,
          "velocity": 0.7559055118110236
        },
        {
          "duration": 0.12395833333333428,
          "durationTicks": 119,
          "midi": 68,
          "name": "G#4",
          "ticks": 47520,
          "time": 49.5,
          "velocity": 0.7559055118110236
        },
        {
          "duration": 0.12395833333333428,
          "durationTicks": 119,
          "midi": 64,
          "name": "E4",
          "ticks": 47520,
          "time": 49.5,
          "velocity": 0.7559055118110236
        }
      ],
      "endOfTrackTicks": 47640
    },
    {
      "channel": 0,
      "controlChanges": {},
      "pitchBends": [],
      "instrument": {
        "family": "piano",
        "number": 0,
        "name": "acoustic grand piano"
      },
      "name": "",
      "notes": [
        {
          "duration": 0.24895833333333334,
          "durationTicks": 239,
          "midi": 47,
          "name": "B2",
          "ticks": 0,
          "time": 0,
          "velocity": 0.7559055118110236
        },
        {
          "duration": 0.12395833333333339,
          "durationTicks": 119,
          "midi": 47,
          "name": "B2",
          "ticks": 1920,
          "time": 2,
          "velocity": 0.7559055118110236
        },
        {
          "duration": 0.12395833333333339,
          "durationTicks": 119,
          "midi": 47,
          "name": "B2",
          "ticks": 2160,
          "time": 2.25,
          "velocity": 0.7559055118110236
        },
        {
          "duration": 0.12395833333333339,
          "durationTicks": 119,
          "midi": 47,
          "name": "B2",
          "ticks": 2400,
          "time": 2.5,
          "velocity": 0.7559055118110236
        },
        {
          "duration": 0.4989583333333334,
          "durationTicks": 479,
          "midi": 47,
          "name": "B2",
          "ticks": 3840,
          "time": 4,
          "velocity": 0.7559055118110236
        },
        {
          "duration": 0.1239583333333325,
          "durationTicks": 119,
          "midi": 50,
          "name": "D3",
          "ticks": 11520,
          "time": 12,
          "velocity": 0.7559055118110236
        },
        {
          "duration": 0.1239583333333325,
          "durationTicks": 119,
          "midi": 50,
          "name": "D3",
          "ticks": 11760,
          "time": 12.25,
          "velocity": 0.7559055118110236
        },
        {
          "duration": 0.1239583333333325,
          "durationTicks": 119,
          "midi": 50,
          "name": "D3",
          "ticks": 12000,
          "time": 12.5,
          "velocity": 0.7559055118110236
        },
        {
          "duration": 0.1239583333333325,
          "durationTicks": 119,
          "midi": 50,
          "name": "D3",
          "ticks": 13440,
          "time": 14,
          "velocity": 0.7559055118110236
        },
        {
          "duration": 0.1239583333333325,
          "durationTicks": 119,
          "midi": 50,
          "name": "D3",
          "ticks": 13680,
          "time": 14.25,
          "velocity": 0.7559055118110236
        },
        {
          "duration": 0.1239583333333325,
          "durationTicks": 119,
          "midi": 50,
          "name": "D3",
          "ticks": 13920,
          "time": 14.5,
          "velocity": 0.7559055118110236
        },
        {
          "duration": 0.4989583333333325,
          "durationTicks": 479,
          "midi": 61,
          "name": "C#4",
          "ticks": 14400,
          "time": 15,
          "velocity": 0.7559055118110236
        },
        {
          "duration": 0.4989583333333325,
          "durationTicks": 479,
          "midi": 60,
          "name": "C4",
          "ticks": 14880,
          "time": 15.5,
          "velocity": 0.7559055118110236
        },
        {
          "duration": 0.24895833333333428,
          "durationTicks": 239,
          "midi": 57,
          "name": "A3",
          "ticks": 15360,
          "time": 16,
          "velocity": 0.7559055118110236
        },
        {
          "duration": 0.24895833333333428,
          "durationTicks": 239,
          "midi": 50,
          "name": "D3",
          "ticks": 15360,
          "time": 16,
          "velocity": 0.7559055118110236
        },
        {
          "duration": 0.24895833333333428,
          "durationTicks": 239,
          "midi": 47,
          "name": "B2",
          "ticks": 15360,
          "time": 16,
          "velocity": 0.7559055118110236
        },
        {
          "duration": 0.12395833333333428,
          "durationTicks": 119,
          "midi": 47,
          "name": "B2",
          "ticks": 17280,
          "time": 18,
          "velocity": 0.7559055118110236
        },
        {
          "duration": 0.12395833333333428,
          "durationTicks": 119,
          "midi": 47,
          "name": "B2",
          "ticks": 17520,
          "time": 18.25,
          "velocity": 0.7559055118110236
        },
        {
          "duration": 0.12395833333333428,
          "durationTicks": 119,
          "midi": 47,
          "name": "B2",
          "ticks": 17760,
          "time": 18.5,
          "velocity": 0.7559055118110236
        },
        {
          "duration": 0.4989583333333343,
          "durationTicks": 479,
          "midi": 47,
          "name": "B2",
          "ticks": 19200,
          "time": 20,
          "velocity": 0.7559055118110236
        },
        {
          "duration": 0.9989583333333343,
          "durationTicks": 959,
          "midi": 50,
          "name": "D3",
          "ticks": 21120,
          "time": 22,
          "velocity": 0.7559055118110236
        },
        {
          "duration": 0.9989583333333343,
          "durationTicks": 959,
          "midi": 52,
          "name": "E3",
          "ticks": 23040,
          "time": 24,
          "velocity": 0.7559055118110236
        },
        {
          "duration": 0.24895833333333428,
          "durationTicks": 239,
          "midi": 55,
          "name": "G3",
          "ticks": 28560,
          "time": 29.75,
          "velocity": 0.7559055118110236
        },
        {
          "duration": 0.12395833333333428,
          "durationTicks": 119,
          "midi": 56,
          "name": "G#3",
          "ticks": 28800,
          "time": 30,
          "velocity": 0.7559055118110236
        },
        {
          "duration": 0.24895833333333428,
          "durationTicks": 239,
          "midi": 58,
          "name": "A#3",
          "ticks": 29040,
          "time": 30.25,
          "velocity": 0.7559055118110236
        },
        {
          "duration": 0.12395833333333428,
          "durationTicks": 119,
          "midi": 59,
          "name": "B3",
          "ticks": 29280,
          "time": 30.5,
          "velocity": 0.7559055118110236
        },
        {
          "duration": 0.24895833333333428,
          "durationTicks": 239,
          "midi": 62,
          "name": "D4",
          "ticks": 29520,
          "time": 30.75,
          "velocity": 0.7559055118110236
        },
        {
          "duration": 0.7489583333333343,
          "durationTicks": 719,
          "midi": 52,
          "name": "E3",
          "ticks": 32640,
          "time": 34,
          "velocity": 0.7559055118110236
        },
        {
          "duration": 0.9989583333333343,
          "durationTicks": 959,
          "midi": 50,
          "name": "D3",
          "ticks": 33360,
          "time": 34.75,
          "velocity": 0.7559055118110236
        },
        {
          "duration": 0.9989583333333343,
          "durationTicks": 959,
          "midi": 45,
          "name": "A2",
          "ticks": 34560,
          "time": 36,
          "velocity": 0.7559055118110236
        },
        {
          "duration": 0.9989583333333343,
          "durationTicks": 959,
          "midi": 56,
          "name": "G#3",
          "ticks": 35520,
          "time": 37,
          "velocity": 0.7559055118110236
        },
        {
          "duration": 0.9989583333333343,
          "durationTicks": 959,
          "midi": 50,
          "name": "D3",
          "ticks": 36480,
          "time": 38,
          "velocity": 0.7559055118110236
        },
        {
          "duration": 0.9989583333333343,
          "durationTicks": 959,
          "midi": 45,
          "name": "A2",
          "ticks": 37440,
          "time": 39,
          "velocity": 0.7559055118110236
        },
        {
          "duration": 0.4989583333333343,
          "durationTicks": 479,
          "midi": 50,
          "name": "D3",
          "ticks": 38400,
          "time": 40,
          "velocity": 0.7559055118110236
        },
        {
          "duration": 1.4989583333333343,
          "durationTicks": 1439,
          "midi": 45,
          "name": "A2",
          "ticks": 38880,
          "time": 40.5,
          "velocity": 0.7559055118110236
        },
        {
          "duration": 0.7489583333333343,
          "durationTicks": 719,
          "midi": 44,
          "name": "G#2",
          "ticks": 40320,
          "time": 42,
          "velocity": 0.7559055118110236
        },
        {
          "duration": 0.9989583333333343,
          "durationTicks": 959,
          "midi": 49,
          "name": "C#3",
          "ticks": 41040,
          "time": 42.75,
          "velocity": 0.7559055118110236
        },
        {
          "duration": 0.24895833333333428,
          "durationTicks": 239,
          "midi": 49,
          "name": "C#3",
          "ticks": 42000,
          "time": 43.75,
          "velocity": 0.7559055118110236
        },
        {
          "duration": 0.9989583333333343,
          "durationTicks": 959,
          "midi": 54,
          "name": "F#3",
          "ticks": 42240,
          "time": 44,
          "velocity": 0.7559055118110236
        },
        {
          "duration": 0.9989583333333343,
          "durationTicks": 959,
          "midi": 49,
          "name": "C#3",
          "ticks": 43200,
          "time": 45,
          "velocity": 0.7559055118110236
        },
        {
          "duration": 0.7489583333333343,
          "durationTicks": 719,
          "midi": 54,
          "name": "F#3",
          "ticks": 44160,
          "time": 46,
          "velocity": 0.7559055118110236
        },
        {
          "duration": 1.4989583333333343,
          "durationTicks": 1439,
          "midi": 47,
          "name": "B2",
          "ticks": 44880,
          "time": 46.75,
          "velocity": 0.7559055118110236
        },
        {
          "duration": 0.7489583333333343,
          "durationTicks": 719,
          "midi": 52,
          "name": "E3",
          "ticks": 46320,
          "time": 48.25,
          "velocity": 0.7559055118110236
        },
        {
          "duration": 0.12395833333333428,
          "durationTicks": 119,
          "midi": 49,
          "name": "C#3",
          "ticks": 47040,
          "time": 49,
          "velocity": 0.7559055118110236
        },
        {
          "duration": 0.12395833333333428,
          "durationTicks": 119,
          "midi": 49,
          "name": "C#3",
          "ticks": 47280,
          "time": 49.25,
          "velocity": 0.7559055118110236
        },
        {
          "duration": 0.12395833333333428,
          "durationTicks": 119,
          "midi": 49,
          "name": "C#3",
          "ticks": 47520,
          "time": 49.5,
          "velocity": 0.7559055118110236
        }
      ],
      "endOfTrackTicks": 47640
    },
    {
      "channel": 1,
      "controlChanges": {
        "7": [
          {
            "number": 7,
            "ticks": 2,
            "time": 0.0020833333333333333,
            "value": 0.7874015748031497
          }
        ],
        "10": [
          {
            "number": 10,
            "ticks": 4,
            "time": 0.004166666666666667,
            "value": 0.5039370078740157
          }
        ],
        "91": [
          {
            "number": 91,
            "ticks": 6,
            "time": 0.00625,
            "value": 0.23622047244094488
          }
        ],
        "93": [
          {
            "number": 93,
            "ticks": 8,
            "time": 0.008333333333333333,
            "value": 0.23622047244094488
          }
        ]
      },
      "pitchBends": [],
      "instrument": {
        "family": "strings",
        "number": 40,
        "name": "violin"
      },
      "name": "",
      "notes": [
        {
          "duration": 0.2489583333333334,
          "durationTicks": 239,
          "midi": 61,
          "name": "C#4",
          "ticks": 3600,
          "time": 3.75,
          "velocity": 0.6299212598425197
        },
        {
          "duration": 0.2489583333333334,
          "durationTicks": 239,
          "midi": 62,
          "name": "D4",
          "ticks": 3840,
          "time": 4,
          "velocity": 0.6299212598425197
        },
        {
          "duration": 0.7489583333333334,
          "durationTicks": 719,
          "midi": 76,
          "name": "E5",
          "ticks": 5760,
          "time": 6,
          "velocity": 0.6299212598425197
        },
        {
          "duration": 0.2489583333333334,
          "durationTicks": 239,
          "midi": 75,
          "name": "D#5",
          "ticks": 6480,
          "time": 6.75,
          "velocity": 0.6299212598425197
        },
        {
          "duration": 0.2489583333333334,
          "durationTicks": 239,
          "midi": 74,
          "name": "D5",
          "ticks": 6720,
          "time": 7,
          "velocity": 0.6299212598425197
        },
        {
          "duration": 0.1239583333333325,
          "durationTicks": 119,
          "midi": 76,
          "name": "E5",
          "ticks": 8160,
          "time": 8.5,
          "velocity": 0.3858267716535433
        },
        {
          "duration": 0.1239583333333325,
          "durationTicks": 119,
          "midi": 64,
          "name": "E4",
          "ticks": 8880,
          "time": 9.25,
          "velocity": 0.3858267716535433
        },
        {
          "duration": 0.1239583333333325,
          "durationTicks": 119,
          "midi": 69,
          "name": "A4",
          "ticks": 9360,
          "time": 9.75,
          "velocity": 0.3858267716535433
        },
        {
          "duration": 0.1239583333333325,
          "durationTicks": 119,
          "midi": 76,
          "name": "E5",
          "ticks": 9840,
          "time": 10.25,
          "velocity": 0.3858267716535433
        },
        {
          "duration": 0.2489583333333325,
          "durationTicks": 239,
          "midi": 67,
          "name": "G4",
          "ticks": 10320,
          "time": 10.75,
          "velocity": 0.3858267716535433
        },
        {
          "duration": 0.2489583333333325,
          "durationTicks": 239,
          "midi": 66,
          "name": "F#4",
          "ticks": 10560,
          "time": 11,
          "velocity": 0.3858267716535433
        },
        {
          "duration": 0.1239583333333325,
          "durationTicks": 119,
          "midi": 66,
          "name": "F#4",
          "ticks": 11520,
          "time": 12,
          "velocity": 0.3858267716535433
        },
        {
          "duration": 0.1239583333333325,
          "durationTicks": 119,
          "midi": 66,
          "name": "F#4",
          "ticks": 11760,
          "time": 12.25,
          "velocity": 0.3858267716535433
        },
        {
          "duration": 0.1239583333333325,
          "durationTicks": 119,
          "midi": 66,
          "name": "F#4",
          "ticks": 12000,
          "time": 12.5,
          "velocity": 0.3858267716535433
        },
        {
          "duration": 0.1239583333333325,
          "durationTicks": 119,
          "midi": 66,
          "name": "F#4",
          "ticks": 13440,
          "time": 14,
          "velocity": 0.3858267716535433
        },
        {
          "duration": 0.1239583333333325,
          "durationTicks": 119,
          "midi": 66,
          "name": "F#4",
          "ticks": 13680,
          "time": 14.25,
          "velocity": 0.3858267716535433
        },
        {
          "duration": 0.1239583333333325,
          "durationTicks": 119,
          "midi": 66,
          "name": "F#4",
          "ticks": 13920,
          "time": 14.5,
          "velocity": 0.3858267716535433
        },
        {
          "duration": 0.4989583333333325,
          "durationTicks": 479,
          "midi": 75,
          "name": "D#5",
          "ticks": 14400,
          "time": 15,
          "velocity": 0.3858267716535433
        },
        {
          "duration": 0.4989583333333325,
          "durationTicks": 479,
          "midi": 74,
          "name": "D5",
          "ticks": 14880,
          "time": 15.5,
          "velocity": 0.3858267716535433
        },
        {
          "duration": 0.24895833333333428,
          "durationTicks": 239,
          "midi": 73,
          "name": "C#5",
          "ticks": 15360,
          "time": 16,
          "velocity": 0.3858267716535433
        },
        {
          "duration": 0.24895833333333428,
          "durationTicks": 239,
          "midi": 61,
          "name": "C#4",
          "ticks": 18960,
          "time": 19.75,
          "velocity": 0.3858267716535433
        },
        {
          "duration": 0.24895833333333428,
          "durationTicks": 239,
          "midi": 62,
          "name": "D4",
          "ticks": 19200,
          "time": 20,
          "velocity": 0.3858267716535433
        },
        {
          "duration": 0.12395833333333428,
          "durationTicks": 119,
          "midi": 66,
          "name": "F#4",
          "ticks": 19440,
          "time": 20.25,
          "velocity": 0.3858267716535433
        },
        {
          "duration": 0.12395833333333428,
          "durationTicks": 119,
          "midi": 69,
          "name": "A4",
          "ticks": 19680,
          "time": 20.5,
          "velocity": 0.3858267716535433
        },
        {
          "duration": 0.12395833333333428,
          "durationTicks": 119,
          "midi": 73,
          "name": "C#5",
          "ticks": 19920,
          "time": 20.75,
          "velocity": 0.3858267716535433
        },
        {
          "duration": 0.12395833333333428,
          "durationTicks": 119,
          "midi": 69,
          "name": "A4",
          "ticks": 20400,
          "time": 21.25,
          "velocity": 0.3858267716535433
        },
        {
          "duration": 0.24895833333333428,
          "durationTicks": 239,
          "midi": 66,
          "name": "F#4",
          "ticks": 20880,
          "time": 21.75,
          "velocity": 0.3858267716535433
        },
        {
          "duration": 0.9989583333333343,
          "durationTicks": 959,
          "midi": 64,
          "name": "E4",
          "ticks": 21120,
          "time": 22,
          "velocity": 0.3858267716535433
        },
        {
          "duration": 0.4989583333333343,
          "durationTicks": 479,
          "midi": 62,
          "name": "D4",
          "ticks": 22080,
          "time": 23,
          "velocity": 0.3858267716535433
        },
        {
          "duration": 0.12395833333333428,
          "durationTicks": 119,
          "midi": 67,
          "name": "G4",
          "ticks": 24000,
          "time": 25,
          "velocity": 0.3858267716535433
        },
        {
          "duration": 0.12395833333333428,
          "durationTicks": 119,
          "midi": 66,
          "name": "F#4",
          "ticks": 25440,
          "time": 26.5,
          "velocity": 0.3858267716535433
        },
        {
          "duration": 0.12395833333333428,
          "durationTicks": 119,
          "midi": 65,
          "name": "F4",
          "ticks": 26400,
          "time": 27.5,
          "velocity": 0.3858267716535433
        },
        {
          "duration": 0.12395833333333428,
          "durationTicks": 119,
          "midi": 59,
          "name": "B3",
          "ticks": 26880,
          "time": 28,
          "velocity": 0.3858267716535433
        },
        {
          "duration": 0.12395833333333428,
          "durationTicks": 119,
          "midi": 59,
          "name": "B3",
          "ticks": 27120,
          "time": 28.25,
          "velocity": 0.3858267716535433
        },
        {
          "duration": 0.12395833333333428,
          "durationTicks": 119,
          "midi": 59,
          "name": "B3",
          "ticks": 27360,
          "time": 28.5,
          "velocity": 0.3858267716535433
        },
        {
          "duration": 0.24895833333333428,
          "durationTicks": 239,
          "midi": 70,
          "name": "A#4",
          "ticks": 28560,
          "time": 29.75,
          "velocity": 0.3858267716535433
        },
        {
          "duration": 0.12395833333333428,
          "durationTicks": 119,
          "midi": 71,
          "name": "B4",
          "ticks": 28800,
          "time": 30,
          "velocity": 0.3858267716535433
        },
        {
          "duration": 0.24895833333333428,
          "durationTicks": 239,
          "midi": 73,
          "name": "C#5",
          "ticks": 29040,
          "time": 30.25,
          "velocity": 0.3858267716535433
        },
        {
          "duration": 0.12395833333333428,
          "durationTicks": 119,
          "midi": 74,
          "name": "D5",
          "ticks": 29280,
          "time": 30.5,
          "velocity": 0.3858267716535433
        },
        {
          "duration": 0.24895833333333428,
          "durationTicks": 239,
          "midi": 78,
          "name": "F#5",
          "ticks": 29520,
          "time": 30.75,
          "velocity": 0.3858267716535433
        },
        {
          "duration": 0.12395833333333428,
          "durationTicks": 119,
          "midi": 81,
          "name": "A5",
          "ticks": 29760,
          "time": 31,
          "velocity": 0.3858267716535433
        },
        {
          "duration": 0.4989583333333343,
          "durationTicks": 479,
          "midi": 69,
          "name": "A4",
          "ticks": 31680,
          "time": 33,
          "velocity": 0.3858267716535433
        },
        {
          "duration": 0.4989583333333343,
          "durationTicks": 479,
          "midi": 70,
          "name": "A#4",
          "ticks": 32160,
          "time": 33.5,
          "velocity": 0.3858267716535433
        },
        {
          "duration": 0.7489583333333343,
          "durationTicks": 719,
          "midi": 71,
          "name": "B4",
          "ticks": 32640,
          "time": 34,
          "velocity": 0.3858267716535433
        },
        {
          "duration": 0.24895833333333428,
          "durationTicks": 239,
          "midi": 70,
          "name": "A#4",
          "ticks": 33360,
          "time": 34.75,
          "velocity": 0.3858267716535433
        },
        {
          "duration": 0.9989583333333343,
          "durationTicks": 959,
          "midi": 71,
          "name": "B4",
          "ticks": 33600,
          "time": 35,
          "velocity": 0.3858267716535433
        },
        {
          "duration": 0.24895833333333428,
          "durationTicks": 239,
          "midi": 69,
          "name": "A4",
          "ticks": 35040,
          "time": 36.5,
          "velocity": 0.3858267716535433
        },
        {
          "duration": 0.24895833333333428,
          "durationTicks": 239,
          "midi": 70,
          "name": "A#4",
          "ticks": 35280,
          "time": 36.75,
          "velocity": 0.3858267716535433
        },
        {
          "duration": 0.24895833333333428,
          "durationTicks": 239,
          "midi": 71,
          "name": "B4",
          "ticks": 35520,
          "time": 37,
          "velocity": 0.3858267716535433
        },
        {
          "duration": 0.4989583333333343,
          "durationTicks": 479,
          "midi": 78,
          "name": "F#5",
          "ticks": 35760,
          "time": 37.25,
          "velocity": 0.3858267716535433
        },
        {
          "duration": 0.24895833333333428,
          "durationTicks": 239,
          "midi": 73,
          "name": "C#5",
          "ticks": 36240,
          "time": 37.75,
          "velocity": 0.3858267716535433
        },
        {
          "duration": 0.7489583333333343,
          "durationTicks": 719,
          "midi": 71,
          "name": "B4",
          "ticks": 36480,
          "time": 38,
          "velocity": 0.3858267716535433
        },
        {
          "duration": 0.24895833333333428,
          "durationTicks": 239,
          "midi": 70,
          "name": "A#4",
          "ticks": 37200,
          "time": 38.75,
          "velocity": 0.3858267716535433
        },
        {
          "duration": 0.9989583333333343,
          "durationTicks": 959,
          "midi": 71,
          "name": "B4",
          "ticks": 37440,
          "time": 39,
          "velocity": 0.3858267716535433
        },
        {
          "duration": 0.4989583333333343,
          "durationTicks": 479,
          "midi": 71,
          "name": "B4",
          "ticks": 39360,
          "time": 41,
          "velocity": 0.3858267716535433
        },
        {
          "duration": 0.4989583333333343,
          "durationTicks": 479,
          "midi": 72,
          "name": "C5",
          "ticks": 39840,
          "time": 41.5,
          "velocity": 0.3858267716535433
        },
        {
          "duration": 0.7489583333333343,
          "durationTicks": 719,
          "midi": 73,
          "name": "C#5",
          "ticks": 40320,
          "time": 42,
          "velocity": 0.3858267716535433
        },
        {
          "duration": 0.24895833333333428,
          "durationTicks": 239,
          "midi": 72,
          "name": "C5",
          "ticks": 41040,
          "time": 42.75,
          "velocity": 0.3858267716535433
        },
        {
          "duration": 0.9989583333333343,
          "durationTicks": 959,
          "midi": 73,
          "name": "C#5",
          "ticks": 41280,
          "time": 43,
          "velocity": 0.3858267716535433
        },
        {
          "duration": 0.24895833333333428,
          "durationTicks": 239,
          "midi": 73,
          "name": "C#5",
          "ticks": 42720,
          "time": 44.5,
          "velocity": 0.3858267716535433
        },
        {
          "duration": 0.24895833333333428,
          "durationTicks": 239,
          "midi": 72,
          "name": "C5",
          "ticks": 42960,
          "time": 44.75,
          "velocity": 0.3858267716535433
        },
        {
          "duration": 0.24895833333333428,
          "durationTicks": 239,
          "midi": 73,
          "name": "C#5",
          "ticks": 43200,
          "time": 45,
          "velocity": 0.3858267716535433
        },
        {
          "duration": 0.4989583333333343,
          "durationTicks": 479,
          "midi": 80,
          "name": "G#5",
          "ticks": 43440,
          "time": 45.25,
          "velocity": 0.3858267716535433
        },
        {
          "duration": 0.24895833333333428,
          "durationTicks": 239,
          "midi": 75,
          "name": "D#5",
          "ticks": 43920,
          "time": 45.75,
          "velocity": 0.3858267716535433
        },
        {
          "duration": 0.7489583333333343,
          "durationTicks": 719,
          "midi": 73,
          "name": "C#5",
          "ticks": 44160,
          "time": 46,
          "velocity": 0.3858267716535433
        },
        {
          "duration": 0.24895833333333428,
          "durationTicks": 239,
          "midi": 75,
          "name": "D#5",
          "ticks": 44880,
          "time": 46.75,
          "velocity": 0.3858267716535433
        },
        {
          "duration": 1.9989583333333343,
          "durationTicks": 1919,
          "midi": 71,
          "name": "B4",
          "ticks": 45120,
          "time": 47,
          "velocity": 0.3858267716535433
        },
        {
          "duration": 0.12395833333333428,
          "durationTicks": 119,
          "midi": 71,
          "name": "B4",
          "ticks": 47040,
          "time": 49,
          "velocity": 0.3858267716535433
        },
        {
          "duration": 0.12395833333333428,
          "durationTicks": 119,
          "midi": 71,
          "name": "B4",
          "ticks": 47280,
          "time": 49.25,
          "velocity": 0.3858267716535433
        },
        {
          "duration": 0.12395833333333428,
          "durationTicks": 119,
          "midi": 71,
          "name": "B4",
          "ticks": 47520,
          "time": 49.5,
          "velocity": 0.3858267716535433
        }
      ],
      "endOfTrackTicks": 47640
    }
  ]
}