{
  "header": {
    "keySignatures": [
      {
        "key": "C",
        "scale": "major",
        "ticks": 0
      }
    ],
    "meta": {
      "title": "My Humps",
      "artist": "Black Eyed Peas",
      "creator": "unknown"
    },
    "name": "My Humps,  by Black Eyed Peas",
    "ppq": 120,
    "tempos": [
      {
        "bpm": 122.0000691333725,
        "ticks": 0
      }
    ],
    "timeSignatures": [
      {
        "ticks": 0,
        "timeSignature": [
          4,
          4
        ],
        "measures": 0
      }
    ]
  },
  "tracks": [
    {
      "channel": 0,
      "controlChanges": {
        "0": [
          {
            "number": 0,
            "ticks": 0,
            "time": 0,
            "value": 0
          }
        ],
        "7": [
          {
            "number": 7,
            "ticks": 0,
            "time": 0,
            "value": 0.8818897637795275
          }
        ],
        "10": [
          {
            "number": 10,
            "ticks": 1,
            "time": 0.004098358333333333,
            "value": 0.5984251968503937
          }
        ],
        "11": [
          {
            "number": 11,
            "ticks": 1,
            "time": 0.004098358333333333,
            "value": 1
          }
        ],
        "32": [
          {
            "number": 32,
            "ticks": 0,
            "time": 0,
            "value": 0
          }
        ],
        "91": [
          {
            "number": 91,
            "ticks": 1,
            "time": 0.004098358333333333,
            "value": 0.7874015748031497
          }
        ],
        "93": [
          {
            "number": 93,
            "ticks": 1,
            "time": 0.004098358333333333,
            "value": 0.2677165354330709
          }
        ],
        "121": [
          {
            "number": 121,
            "ticks": 0,
            "time": 0,
            "value": 0
          }
        ]
      },
      "pitchBends": [],
      "instrument": {
        "family": "brass",
        "number": 56,
        "name": "trumpet"
      },
      "name": "",
      "notes": [
        {
          "duration": 1.2827861583333333,
          "durationTicks": 313,
          "midi": 76,
          "name": "E5",
          "ticks": 480,
          "time": 1.967212,
          "velocity": 0.9291338582677166
        },
        {
          "duration": 0.12704910833333338,
          "durationTicks": 31,
          "midi": 75,
          "name": "D#5",
          "ticks": 830,
          "time": 3.4016374166666665,
          "velocity": 0.8346456692913385
        },
        {
          "duration": 0.08606552499999998,
          "durationTicks": 21,
          "midi": 76,
          "name": "E5",
          "ticks": 871,
          "time": 3.5696701083333333,
          "velocity": 0.7480314960629921
        },
        {
          "duration": 0.09016388333333358,
          "durationTicks": 22,
          "midi": 78,
          "name": "F#5",
          "ticks": 913,
          "time": 3.7418011583333333,
          "velocity": 0.8267716535433071
        },
        {
          "duration": 0.07377045000000004,
          "durationTicks": 18,
          "midi": 76,
          "name": "E5",
          "ticks": 950,
          "time": 3.8934404166666665,
          "velocity": 0.7716535433070866
        },
        {
          "duration": 0.0778688083333332,
          "durationTicks": 19,
          "midi": 78,
          "name": "F#5",
          "ticks": 982,
          "time": 4.024587883333333,
          "velocity": 0.8031496062992126
        },
        {
          "duration": 0.08606552500000042,
          "durationTicks": 21,
          "midi": 76,
          "name": "E5",
          "ticks": 1016,
          "time": 4.163932066666667,
          "velocity": 0.7559055118110236
        },
        {
          "duration": 0.09016388333333314,
          "durationTicks": 22,
          "midi": 78,
          "name": "F#5",
          "ticks": 1053,
          "time": 4.3155713250000005,
          "velocity": 0.7637795275590551
        },
        {
          "duration": 0.0778688083333332,
          "durationTicks": 19,
          "midi": 76,
          "name": "E5",
          "ticks": 1086,
          "time": 4.450817150000001,
          "velocity": 0.7007874015748031
        },
        {
          "duration": 0.08196716666666592,
          "durationTicks": 20,
          "midi": 78,
          "name": "F#5",
          "ticks": 1120,
          "time": 4.5901613333333335,
          "velocity": 0.8031496062992126
        },
        {
          "duration": 0.09016388333333314,
          "durationTicks": 22,
          "midi": 76,
          "name": "E5",
          "ticks": 1150,
          "time": 4.713112083333334,
          "velocity": 0.7480314960629921
        },
        {
          "duration": 0.09016388333333314,
          "durationTicks": 22,
          "midi": 78,
          "name": "F#5",
          "ticks": 1185,
          "time": 4.856554625,
          "velocity": 0.8110236220472441
        },
        {
          "duration": 0.12704910833333383,
          "durationTicks": 31,
          "midi": 76,
          "name": "E5",
          "ticks": 1220,
          "time": 4.999997166666667,
          "velocity": 0.7952755905511811
        },
        {
          "duration": 0.13934418333333287,
          "durationTicks": 34,
          "midi": 64,
          "name": "E4",
          "ticks": 1280,
          "time": 5.245898666666666,
          "velocity": 0.9448818897637795
        },
        {
          "duration": 0.32786866666666636,
          "durationTicks": 80,
          "midi": 75,
          "name": "D#5",
          "ticks": 1281,
          "time": 5.249997025,
          "velocity": 0.8346456692913385
        },
        {
          "duration": 0.3401637416666663,
          "durationTicks": 83,
          "midi": 76,
          "name": "E5",
          "ticks": 1371,
          "time": 5.6188492750000005,
          "velocity": 0.84251968503937
        },
        {
          "duration": 0.09426224166666675,
          "durationTicks": 23,
          "midi": 69,
          "name": "A4",
          "ticks": 1378,
          "time": 5.647537783333333,
          "velocity": 0.8740157480314961
        },
        {
          "duration": 1.15573705,
          "durationTicks": 282,
          "midi": 75,
          "name": "D#5",
          "ticks": 1463,
          "time": 5.995898241666667,
          "velocity": 0.889763779527559
        },
        {
          "duration": 1.3524582499999998,
          "durationTicks": 330,
          "midi": 68,
          "name": "G#4",
          "ticks": 1470,
          "time": 6.02458675,
          "velocity": 0.84251968503937
        },
        {
          "duration": 0.5286882249999989,
          "durationTicks": 129,
          "midi": 60,
          "name": "C4",
          "ticks": 1936,
          "time": 7.934421733333333,
          "velocity": 0.8346456692913385
        },
        {
          "duration": 0.6721307666666672,
          "durationTicks": 164,
          "midi": 75,
          "name": "D#5",
          "ticks": 1948,
          "time": 7.983602033333334,
          "velocity": 0.8976377952755905
        },
        {
          "duration": 0.3606555333333308,
          "durationTicks": 88,
          "midi": 72,
          "name": "C5",
          "ticks": 2113,
          "time": 8.659831158333334,
          "velocity": 0.9448818897637795
        },
        {
          "duration": 3.028686808333335,
          "durationTicks": 739,
          "midi": 56,
          "name": "G#3",
          "ticks": 2138,
          "time": 8.762290116666666,
          "velocity": 0.7559055118110236
        },
        {
          "duration": 2.6352444083333317,
          "durationTicks": 643,
          "midi": 75,
          "name": "D#5",
          "ticks": 2224,
          "time": 9.114748933333335,
          "velocity": 0.8740157480314961
        },
        {
          "duration": 2.2704905166666673,
          "durationTicks": 554,
          "midi": 44,
          "name": "G#2",
          "ticks": 2324,
          "time": 9.524584766666667,
          "velocity": 0.6929133858267716
        },
        {
          "duration": 2.249998725000001,
          "durationTicks": 549,
          "midi": 51,
          "name": "D#3",
          "ticks": 2328,
          "time": 9.5409782,
          "velocity": 0.7007874015748031
        }
      ],
      "endOfTrackTicks": 2878
    },
    {
      "channel": 0,
      "controlChanges": {},
      "pitchBends": [],
      "instrument": {
        "family": "bass",
        "number": 39,
        "name": "synth bass 2"
      },
      "name": "",
      "notes": [],
      "endOfTrackTicks": 57672
    },
    {
      "channel": 0,
      "controlChanges": {
        "0": [
          {
            "number": 0,
            "ticks": 0,
            "time": 0,
            "value": 0.015748031496062992
          }
        ],
        "32": [
          {
            "number": 32,
            "ticks": 0,
            "time": 0,
            "value": 0.031496062992125984
          }
        ],
        "121": [
          {
            "number": 121,
            "ticks": 0,
            "time": 0,
            "value": 0
          }
        ]
      },
      "pitchBends": [],
      "instrument": {
        "family": "piano",
        "number": 0,
        "name": "acoustic grand piano"
      },
      "name": "",
      "notes": []
    },
    {
      "channel": 0,
      "controlChanges": {
        "6": [
          {
            "number": 6,
            "ticks": 5,
            "time": 0.020491791666666665,
            "value": 0.47244094488188976
          }
        ],
        "7": [
          {
            "number": 7,
            "ticks": 0,
            "time": 0,
            "value": 0.7086614173228346
          }
        ],
        "10": [
          {
            "number": 10,
            "ticks": 1,
            "time": 0.004098358333333333,
            "value": 0.5039370078740157
          }
        ],
        "11": [
          {
            "number": 11,
            "ticks": 1,
            "time": 0.004098358333333333,
            "value": 1
          }
        ],
        "38": [
          {
            "number": 38,
            "ticks": 6,
            "time": 0.02459015,
            "value": 0
          }
        ],
        "91": [
          {
            "number": 91,
            "ticks": 1,
            "time": 0.004098358333333333,
            "value": 0
          }
        ],
        "93": [
          {
            "number": 93,
            "ticks": 1,
            "time": 0.004098358333333333,
            "value": 0
          }
        ],
        "98": [
          {
            "number": 98,
            "ticks": 4,
            "time": 0.016393433333333332,
            "value": 0.25196850393700787
          }
        ],
        "99": [
          {
            "number": 99,
            "ticks": 3,
            "time": 0.012295075,
            "value": 0.007874015748031496
          }
        ]
      },
      "pitchBends": [],
      "instrument": {
        "family": "bass",
        "number": 39,
        "name": "synth bass 2"
      },
      "name": "",
      "notes": [
        {
          "duration": 0.29918015833332845,
          "durationTicks": 73,
          "midi": 45,
          "name": "A2",
          "ticks": 8641,
          "time": 35.41391435833334,
          "velocity": 0.8582677165354331
        },
        {
          "duration": 0.16393433333333718,
          "durationTicks": 40,
          "midi": 45,
          "name": "A2",
          "ticks": 8819,
          "time": 36.14342214166666,
          "velocity": 0.8582677165354331
        },
        {
          "duration": 0.22950806666666068,
          "durationTicks": 56,
          "midi": 45,
          "name": "A2",
          "ticks": 8881,
          "time": 36.39752035833334,
          "velocity": 0.8188976377952756
        },
        {
          "duration": 0.360655533333329,
          "durationTicks": 88,
          "midi": 45,
          "name": "A2",
          "ticks": 9121,
          "time": 37.38112635833333,
          "velocity": 0.8503937007874016
        },
        {
          "duration": 0.1516392583333328,
          "durationTicks": 37,
          "midi": 45,
          "name": "A2",
          "ticks": 9301,
          "time": 38.11883085833333,
          "velocity": 0.8267716535433071
        },
        {
          "duration": 0.24180314166666506,
          "durationTicks": 59,
          "midi": 45,
          "name": "A2",
          "ticks": 9360,
          "time": 38.360634,
          "velocity": 0.8267716535433071
        },
        {
          "duration": 0.3237703083333301,
          "durationTicks": 79,
          "midi": 45,
          "name": "A2",
          "ticks": 9601,
          "time": 39.348338358333336,
          "velocity": 0.8110236220472441
        },
        {
          "duration": 0.1721310499999973,
          "durationTicks": 42,
          "midi": 45,
          "name": "A2",
          "ticks": 9780,
          "time": 40.0819445,
          "velocity": 0.8267716535433071
        },
        {
          "duration": 0.2377047833333279,
          "durationTicks": 58,
          "midi": 45,
          "name": "A2",
          "ticks": 9841,
          "time": 40.33194435833334,
          "velocity": 0.8267716535433071
        },
        {
          "duration": 0.2950817999999984,
          "durationTicks": 72,
          "midi": 45,
          "name": "A2",
          "ticks": 10082,
          "time": 41.31964871666666,
          "velocity": 0.8661417322834646
        },
        {
          "duration": 0.15573761666666996,
          "durationTicks": 38,
          "midi": 45,
          "name": "A2",
          "ticks": 10261,
          "time": 42.05325485833333,
          "velocity": 0.7874015748031497
        },
        {
          "duration": 0.23360642499999784,
          "durationTicks": 57,
          "midi": 45,
          "name": "A2",
          "ticks": 10320,
          "time": 42.295058,
          "velocity": 0.8503937007874016
        },
        {
          "duration": 0.3401637416666645,
          "durationTicks": 83,
          "midi": 45,
          "name": "A2",
          "ticks": 10561,
          "time": 43.282762358333336,
          "velocity": 0.8267716535433071
        },
        {
          "duration": 0.1434425416666727,
          "durationTicks": 35,
          "midi": 45,
          "name": "A2",
          "ticks": 10738,
          "time": 44.00817178333333,
          "velocity": 0.8661417322834646
        },
        {
          "duration": 0.26229493333333664,
          "durationTicks": 64,
          "midi": 45,
          "name": "A2",
          "ticks": 10799,
          "time": 44.258171641666664,
          "velocity": 0.8267716535433071
        },
        {
          "duration": 0.36475389166667327,
          "durationTicks": 89,
          "midi": 45,
          "name": "A2",
          "ticks": 11042,
          "time": 45.25407271666666,
          "velocity": 0.8740157480314961
        },
        {
          "duration": 0.15573761666666286,
          "durationTicks": 38,
          "midi": 45,
          "name": "A2",
          "ticks": 11218,
          "time": 45.975383783333335,
          "velocity": 0.8661417322834646
        },
        {
          "duration": 0.3319670249999973,
          "durationTicks": 81,
          "midi": 45,
          "name": "A2",
          "ticks": 11282,
          "time": 46.237678716666665,
          "velocity": 0.8740157480314961
        },
        {
          "duration": 0.3237703083333301,
          "durationTicks": 79,
          "midi": 45,
          "name": "A2",
          "ticks": 11521,
          "time": 47.217186358333336,
          "velocity": 0.8031496062992126
        },
        {
          "duration": 0.16803269166666723,
          "durationTicks": 41,
          "midi": 45,
          "name": "A2",
          "ticks": 11702,
          "time": 47.958989216666666,
          "velocity": 0.8110236220472441
        },
        {
          "duration": 0.2459014999999951,
          "durationTicks": 60,
          "midi": 45,
          "name": "A2",
          "ticks": 11760,
          "time": 48.196694,
          "velocity": 0.7952755905511811
        },
        {
          "duration": 0.32786866666666725,
          "durationTicks": 80,
          "midi": 45,
          "name": "A2",
          "ticks": 12001,
          "time": 49.18439835833333,
          "velocity": 0.7952755905511811
        },
        {
          "duration": 0.14754089999999564,
          "durationTicks": 36,
          "midi": 45,
          "name": "A2",
          "ticks": 12180,
          "time": 49.9180045,
          "velocity": 0.8346456692913385
        },
        {
          "duration": 0.31557359166667,
          "durationTicks": 77,
          "midi": 45,
          "name": "A2",
          "ticks": 12240,
          "time": 50.163906,
          "velocity": 0.8110236220472441
        },
        {
          "duration": 0.32786866666666725,
          "durationTicks": 80,
          "midi": 45,
          "name": "A2",
          "ticks": 12482,
          "time": 51.155708716666666,
          "velocity": 0.84251968503937
        },
        {
          "duration": 0.14754089999999564,
          "durationTicks": 36,
          "midi": 45,
          "name": "A2",
          "ticks": 12661,
          "time": 51.889314858333336,
          "velocity": 0.8503937007874016
        },
        {
          "duration": 0.2581965749999995,
          "durationTicks": 63,
          "midi": 45,
          "name": "A2",
          "ticks": 12722,
          "time": 52.13931471666667,
          "velocity": 0.7952755905511811
        },
        {
          "duration": 0.3237703083333372,
          "durationTicks": 79,
          "midi": 45,
          "name": "A2",
          "ticks": 12959,
          "time": 53.110625641666665,
          "velocity": 0.8188976377952756
        },
        {
          "duration": 0.16803269166666723,
          "durationTicks": 41,
          "midi": 45,
          "name": "A2",
          "ticks": 13141,
          "time": 53.85652685833333,
          "velocity": 0.8740157480314961
        },
        {
          "duration": 0.26229493333333664,
          "durationTicks": 64,
          "midi": 45,
          "name": "A2",
          "ticks": 13201,
          "time": 54.102428358333334,
          "velocity": 0.8267716535433071
        },
        {
          "duration": 0.3032785166666727,
          "durationTicks": 74,
          "midi": 45,
          "name": "A2",
          "ticks": 13442,
          "time": 55.090132716666666,
          "velocity": 0.8503937007874016
        },
        {
          "duration": 0.16803269166666723,
          "durationTicks": 41,
          "midi": 45,
          "name": "A2",
          "ticks": 13619,
          "time": 55.81554214166666,
          "velocity": 0.8110236220472441
        },
        {
          "duration": 0.2581965749999995,
          "durationTicks": 63,
          "midi": 45,
          "name": "A2",
          "ticks": 13680,
          "time": 56.065542,
          "velocity": 0.8267716535433071
        },
        {
          "duration": 0.2663932916666738,
          "durationTicks": 65,
          "midi": 45,
          "name": "A2",
          "ticks": 13922,
          "time": 57.05734471666666,
          "velocity": 0.8740157480314961
        },
        {
          "duration": 0.15983597500000002,
          "durationTicks": 39,
          "midi": 45,
          "name": "A2",
          "ticks": 14099,
          "time": 57.782754141666665,
          "velocity": 0.8740157480314961
        },
        {
          "duration": 0.31967195000000714,
          "durationTicks": 78,
          "midi": 45,
          "name": "A2",
          "ticks": 14159,
          "time": 58.02865564166666,
          "velocity": 0.8188976377952756
        },
        {
          "duration": 0.29918015833333556,
          "durationTicks": 73,
          "midi": 45,
          "name": "A2",
          "ticks": 14400,
          "time": 59.01636,
          "velocity": 0.8582677165354331
        },
        {
          "duration": 0.16393433333333007,
          "durationTicks": 40,
          "midi": 45,
          "name": "A2",
          "ticks": 14578,
          "time": 59.74586778333333,
          "velocity": 0.8582677165354331
        },
        {
          "duration": 0.2295080666666678,
          "durationTicks": 56,
          "midi": 45,
          "name": "A2",
          "ticks": 14640,
          "time": 59.999966,
          "velocity": 0.8188976377952756
        },
        {
          "duration": 0.3606555333333361,
          "durationTicks": 88,
          "midi": 45,
          "name": "A2",
          "ticks": 14880,
          "time": 60.983571999999995,
          "velocity": 0.8503937007874016
        },
        {
          "duration": 0.1516392583333328,
          "durationTicks": 37,
          "midi": 45,
          "name": "A2",
          "ticks": 15060,
          "time": 61.7212765,
          "velocity": 0.8267716535433071
        },
        {
          "duration": 0.24180314166667216,
          "durationTicks": 59,
          "midi": 45,
          "name": "A2",
          "ticks": 15119,
          "time": 61.96307964166666,
          "velocity": 0.8267716535433071
        },
        {
          "duration": 0.3237703083333301,
          "durationTicks": 79,
          "midi": 45,
          "name": "A2",
          "ticks": 15360,
          "time": 62.950784,
          "velocity": 0.8110236220472441
        },
        {
          "duration": 0.1721310499999973,
          "durationTicks": 42,
          "midi": 45,
          "name": "A2",
          "ticks": 15539,
          "time": 63.68439014166667,
          "velocity": 0.8267716535433071
        },
        {
          "duration": 0.2377047833333208,
          "durationTicks": 58,
          "midi": 45,
          "name": "A2",
          "ticks": 15600,
          "time": 63.93439,
          "velocity": 0.8267716535433071
        },
        {
          "duration": 0.2950818000000055,
          "durationTicks": 72,
          "midi": 45,
          "name": "A2",
          "ticks": 15841,
          "time": 64.92209435833333,
          "velocity": 0.8661417322834646
        },
        {
          "duration": 0.15573761666666996,
          "durationTicks": 38,
          "midi": 45,
          "name": "A2",
          "ticks": 16020,
          "time": 65.6557005,
          "velocity": 0.7874015748031497
        },
        {
          "duration": 0.23360642499999074,
          "durationTicks": 57,
          "midi": 45,
          "name": "A2",
          "ticks": 16079,
          "time": 65.89750364166667,
          "velocity": 0.8503937007874016
        },
        {
          "duration": 0.3401637416666574,
          "durationTicks": 83,
          "midi": 45,
          "name": "A2",
          "ticks": 16320,
          "time": 66.885208,
          "velocity": 0.8267716535433071
        },
        {
          "duration": 0.1434425416666727,
          "durationTicks": 35,
          "midi": 45,
          "name": "A2",
          "ticks": 16497,
          "time": 67.610617425,
          "velocity": 0.8661417322834646
        },
        {
          "duration": 0.26229493333335085,
          "durationTicks": 64,
          "midi": 45,
          "name": "A2",
          "ticks": 16558,
          "time": 67.86061728333333,
          "velocity": 0.8267716535433071
        },
        {
          "duration": 0.36475389166666616,
          "durationTicks": 89,
          "midi": 45,
          "name": "A2",
          "ticks": 16801,
          "time": 68.85651835833333,
          "velocity": 0.8740157480314961
        },
        {
          "duration": 0.15573761666666996,
          "durationTicks": 38,
          "midi": 45,
          "name": "A2",
          "ticks": 16977,
          "time": 69.57782942499999,
          "velocity": 0.8661417322834646
        },
        {
          "duration": 0.3319670250000115,
          "durationTicks": 81,
          "midi": 45,
          "name": "A2",
          "ticks": 17041,
          "time": 69.84012435833333,
          "velocity": 0.8740157480314961
        },
        {
          "duration": 0.3237703083333372,
          "durationTicks": 79,
          "midi": 45,
          "name": "A2",
          "ticks": 17280,
          "time": 70.819632,
          "velocity": 0.8031496062992126
        },
        {
          "duration": 0.16803269166666723,
          "durationTicks": 41,
          "midi": 45,
          "name": "A2",
          "ticks": 17461,
          "time": 71.56143485833333,
          "velocity": 0.8110236220472441
        },
        {
          "duration": 0.24590150000000222,
          "durationTicks": 60,
          "midi": 45,
          "name": "A2",
          "ticks": 17519,
          "time": 71.79913964166667,
          "velocity": 0.7952755905511811
        },
        {
          "duration": 0.32786866666666015,
          "durationTicks": 80,
          "midi": 45,
          "name": "A2",
          "ticks": 17760,
          "time": 72.786844,
          "velocity": 0.7952755905511811
        },
        {
          "duration": 0.14754089999999564,
          "durationTicks": 36,
          "midi": 45,
          "name": "A2",
          "ticks": 17939,
          "time": 73.52045014166667,
          "velocity": 0.8346456692913385
        },
        {
          "duration": 0.31557359166664867,
          "durationTicks": 77,
          "midi": 45,
          "name": "A2",
          "ticks": 17999,
          "time": 73.76635164166667,
          "velocity": 0.8110236220472441
        },
        {
          "duration": 0.32786866666667436,
          "durationTicks": 80,
          "midi": 45,
          "name": "A2",
          "ticks": 18241,
          "time": 74.75815435833333,
          "velocity": 0.84251968503937
        },
        {
          "duration": 0.14754090000000986,
          "durationTicks": 36,
          "midi": 45,
          "name": "A2",
          "ticks": 18420,
          "time": 75.4917605,
          "velocity": 0.8503937007874016
        },
        {
          "duration": 0.2581965750000137,
          "durationTicks": 63,
          "midi": 45,
          "name": "A2",
          "ticks": 18481,
          "time": 75.74176035833332,
          "velocity": 0.7952755905511811
        },
        {
          "duration": 0.3237703083333514,
          "durationTicks": 79,
          "midi": 45,
          "name": "A2",
          "ticks": 18718,
          "time": 76.71307128333332,
          "velocity": 0.8188976377952756
        },
        {
          "duration": 0.16803269166666723,
          "durationTicks": 41,
          "midi": 45,
          "name": "A2",
          "ticks": 18900,
          "time": 77.4589725,
          "velocity": 0.8740157480314961
        },
        {
          "duration": 0.26229493333332243,
          "durationTicks": 64,
          "midi": 45,
          "name": "A2",
          "ticks": 18960,
          "time": 77.704874,
          "velocity": 0.8267716535433071
        },
        {
          "duration": 0.3032785166666798,
          "durationTicks": 74,
          "midi": 45,
          "name": "A2",
          "ticks": 19201,
          "time": 78.69257835833332,
          "velocity": 0.8503937007874016
        },
        {
          "duration": 0.16803269166666723,
          "durationTicks": 41,
          "midi": 45,
          "name": "A2",
          "ticks": 19378,
          "time": 79.41798778333333,
          "velocity": 0.8110236220472441
        },
        {
          "duration": 0.2581965749999995,
          "durationTicks": 63,
          "midi": 45,
          "name": "A2",
          "ticks": 19439,
          "time": 79.66798764166667,
          "velocity": 0.8267716535433071
        },
        {
          "duration": 0.2663932916666738,
          "durationTicks": 65,
          "midi": 45,
          "name": "A2",
          "ticks": 19681,
          "time": 80.65979035833332,
          "velocity": 0.8740157480314961
        },
        {
          "duration": 0.15983597500000712,
          "durationTicks": 39,
          "midi": 45,
          "name": "A2",
          "ticks": 19858,
          "time": 81.38519978333332,
          "velocity": 0.8740157480314961
        },
        {
          "duration": 0.31967195000000004,
          "durationTicks": 78,
          "midi": 45,
          "name": "A2",
          "ticks": 19918,
          "time": 81.63110128333332,
          "velocity": 0.8188976377952756
        },
        {
          "duration": 0.29918015833332845,
          "durationTicks": 73,
          "midi": 45,
          "name": "A2",
          "ticks": 20159,
          "time": 82.61880564166667,
          "velocity": 0.8582677165354331
        },
        {
          "duration": 0.16393433333333007,
          "durationTicks": 40,
          "midi": 45,
          "name": "A2",
          "ticks": 20337,
          "time": 83.348313425,
          "velocity": 0.8582677165354331
        },
        {
          "duration": 0.2295080666666678,
          "durationTicks": 56,
          "midi": 45,
          "name": "A2",
          "ticks": 20399,
          "time": 83.60241164166666,
          "velocity": 0.8188976377952756
        },
        {
          "duration": 0.360655533333329,
          "durationTicks": 88,
          "midi": 45,
          "name": "A2",
          "ticks": 20639,
          "time": 84.58601764166667,
          "velocity": 0.8503937007874016
        },
        {
          "duration": 0.1516392583333328,
          "durationTicks": 37,
          "midi": 45,
          "name": "A2",
          "ticks": 20819,
          "time": 85.32372214166666,
          "velocity": 0.8267716535433071
        },
        {
          "duration": 0.24180314166666506,
          "durationTicks": 59,
          "midi": 45,
          "name": "A2",
          "ticks": 20878,
          "time": 85.56552528333333,
          "velocity": 0.8267716535433071
        },
        {
          "duration": 0.323770308333323,
          "durationTicks": 79,
          "midi": 45,
          "name": "A2",
          "ticks": 21119,
          "time": 86.55322964166668,
          "velocity": 0.8110236220472441
        },
        {
          "duration": 0.1721310500000044,
          "durationTicks": 42,
          "midi": 45,
          "name": "A2",
          "ticks": 21298,
          "time": 87.28683578333333,
          "velocity": 0.8267716535433071
        },
        {
          "duration": 0.2377047833333279,
          "durationTicks": 58,
          "midi": 45,
          "name": "A2",
          "ticks": 21359,
          "time": 87.53683564166667,
          "velocity": 0.8267716535433071
        },
        {
          "duration": 0.2950817999999913,
          "durationTicks": 72,
          "midi": 45,
          "name": "A2",
          "ticks": 21600,
          "time": 88.52454,
          "velocity": 0.8661417322834646
        },
        {
          "duration": 0.15573761666665575,
          "durationTicks": 38,
          "midi": 45,
          "name": "A2",
          "ticks": 21779,
          "time": 89.25814614166667,
          "velocity": 0.7874015748031497
        },
        {
          "duration": 0.23360642500001916,
          "durationTicks": 57,
          "midi": 45,
          "name": "A2",
          "ticks": 21838,
          "time": 89.49994928333332,
          "velocity": 0.8503937007874016
        },
        {
          "duration": 0.3401637416666716,
          "durationTicks": 83,
          "midi": 45,
          "name": "A2",
          "ticks": 22079,
          "time": 90.48765364166667,
          "velocity": 0.8267716535433071
        },
        {
          "duration": 0.14344254166665849,
          "durationTicks": 35,
          "midi": 45,
          "name": "A2",
          "ticks": 22256,
          "time": 91.21306306666666,
          "velocity": 0.8661417322834646
        },
        {
          "duration": 0.26229493333333664,
          "durationTicks": 64,
          "midi": 45,
          "name": "A2",
          "ticks": 22317,
          "time": 91.46306292499999,
          "velocity": 0.8267716535433071
        },
        {
          "duration": 0.3647538916666804,
          "durationTicks": 89,
          "midi": 45,
          "name": "A2",
          "ticks": 22560,
          "time": 92.458964,
          "velocity": 0.8740157480314961
        },
        {
          "duration": 0.15573761666666996,
          "durationTicks": 38,
          "midi": 45,
          "name": "A2",
          "ticks": 22736,
          "time": 93.18027506666667,
          "velocity": 0.8661417322834646
        },
        {
          "duration": 0.3319670249999973,
          "durationTicks": 81,
          "midi": 45,
          "name": "A2",
          "ticks": 22800,
          "time": 93.44257,
          "velocity": 0.8740157480314961
        },
        {
          "duration": 0.323770308333323,
          "durationTicks": 79,
          "midi": 45,
          "name": "A2",
          "ticks": 23039,
          "time": 94.42207764166668,
          "velocity": 0.8031496062992126
        },
        {
          "duration": 0.16803269166666723,
          "durationTicks": 41,
          "midi": 45,
          "name": "A2",
          "ticks": 23220,
          "time": 95.1638805,
          "velocity": 0.8110236220472441
        },
        {
          "duration": 0.24590150000000222,
          "durationTicks": 60,
          "midi": 45,
          "name": "A2",
          "ticks": 23278,
          "time": 95.40158528333332,
          "velocity": 0.7952755905511811
        },
        {
          "duration": 0.32786866666666015,
          "durationTicks": 80,
          "midi": 45,
          "name": "A2",
          "ticks": 23519,
          "time": 96.38928964166666,
          "velocity": 0.7952755905511811
        },
        {
          "duration": 0.14754090000000986,
          "durationTicks": 36,
          "midi": 45,
          "name": "A2",
          "ticks": 23698,
          "time": 97.12289578333332,
          "velocity": 0.8346456692913385
        },
        {
          "duration": 0.3155735916666771,
          "durationTicks": 77,
          "midi": 45,
          "name": "A2",
          "ticks": 23758,
          "time": 97.36879728333332,
          "velocity": 0.8110236220472441
        },
        {
          "duration": 0.32786866666666015,
          "durationTicks": 80,
          "midi": 45,
          "name": "A2",
          "ticks": 24000,
          "time": 98.3606,
          "velocity": 0.84251968503937
        },
        {
          "duration": 0.14754089999998143,
          "durationTicks": 36,
          "midi": 45,
          "name": "A2",
          "ticks": 24179,
          "time": 99.09420614166667,
          "velocity": 0.8503937007874016
        },
        {
          "duration": 0.2581965749999995,
          "durationTicks": 63,
          "midi": 45,
          "name": "A2",
          "ticks": 24240,
          "time": 99.344206,
          "velocity": 0.7952755905511811
        },
        {
          "duration": 0.3237703083333372,
          "durationTicks": 79,
          "midi": 45,
          "name": "A2",
          "ticks": 24477,
          "time": 100.315516925,
          "velocity": 0.8188976377952756
        },
        {
          "duration": 0.16803269166666723,
          "durationTicks": 41,
          "midi": 45,
          "name": "A2",
          "ticks": 24659,
          "time": 101.06141814166666,
          "velocity": 0.8740157480314961
        },
        {
          "duration": 0.26229493333333664,
          "durationTicks": 64,
          "midi": 45,
          "name": "A2",
          "ticks": 24719,
          "time": 101.30731964166667,
          "velocity": 0.8267716535433071
        },
        {
          "duration": 0.3032785166666656,
          "durationTicks": 74,
          "midi": 45,
          "name": "A2",
          "ticks": 24960,
          "time": 102.295024,
          "velocity": 0.8503937007874016
        },
        {
          "duration": 0.16803269166666723,
          "durationTicks": 41,
          "midi": 45,
          "name": "A2",
          "ticks": 25137,
          "time": 103.020433425,
          "velocity": 0.8110236220472441
        },
        {
          "duration": 0.2581965750000137,
          "durationTicks": 63,
          "midi": 45,
          "name": "A2",
          "ticks": 25198,
          "time": 103.27043328333332,
          "velocity": 0.8267716535433071
        },
        {
          "duration": 0.2663932916666596,
          "durationTicks": 65,
          "midi": 45,
          "name": "A2",
          "ticks": 25440,
          "time": 104.262236,
          "velocity": 0.8740157480314961
        },
        {
          "duration": 0.15983597500000712,
          "durationTicks": 39,
          "midi": 45,
          "name": "A2",
          "ticks": 25617,
          "time": 104.987645425,
          "velocity": 0.8740157480314961
        },
        {
          "duration": 0.31967195000000004,
          "durationTicks": 78,
          "midi": 45,
          "name": "A2",
          "ticks": 25677,
          "time": 105.233546925,
          "velocity": 0.8188976377952756
        },
        {
          "duration": 0.29918015833332845,
          "durationTicks": 73,
          "midi": 45,
          "name": "A2",
          "ticks": 25918,
          "time": 106.22125128333333,
          "velocity": 0.8582677165354331
        },
        {
          "duration": 0.16393433333334428,
          "durationTicks": 40,
          "midi": 45,
          "name": "A2",
          "ticks": 26096,
          "time": 106.95075906666666,
          "velocity": 0.8582677165354331
        },
        {
          "duration": 0.2295080666666678,
          "durationTicks": 56,
          "midi": 45,
          "name": "A2",
          "ticks": 26158,
          "time": 107.20485728333333,
          "velocity": 0.8188976377952756
        },
        {
          "duration": 0.3606555333333432,
          "durationTicks": 88,
          "midi": 45,
          "name": "A2",
          "ticks": 26398,
          "time": 108.18846328333332,
          "velocity": 0.8503937007874016
        },
        {
          "duration": 0.1516392583333328,
          "durationTicks": 37,
          "midi": 45,
          "name": "A2",
          "ticks": 26578,
          "time": 108.92616778333333,
          "velocity": 0.8267716535433071
        },
        {
          "duration": 0.24180314166667927,
          "durationTicks": 59,
          "midi": 45,
          "name": "A2",
          "ticks": 26637,
          "time": 109.16797092499999,
          "velocity": 0.8267716535433071
        },
        {
          "duration": 0.3237703083333514,
          "durationTicks": 79,
          "midi": 45,
          "name": "A2",
          "ticks": 26878,
          "time": 110.15567528333332,
          "velocity": 0.8110236220472441
        },
        {
          "duration": 0.1721310500000044,
          "durationTicks": 42,
          "midi": 45,
          "name": "A2",
          "ticks": 27057,
          "time": 110.889281425,
          "velocity": 0.8267716535433071
        },
        {
          "duration": 0.2377047833333421,
          "durationTicks": 58,
          "midi": 45,
          "name": "A2",
          "ticks": 27118,
          "time": 111.13928128333332,
          "velocity": 0.8267716535433071
        },
        {
          "duration": 0.2950818000000055,
          "durationTicks": 72,
          "midi": 45,
          "name": "A2",
          "ticks": 27359,
          "time": 112.12698564166666,
          "velocity": 0.8661417322834646
        },
        {
          "duration": 0.15573761666668418,
          "durationTicks": 38,
          "midi": 45,
          "name": "A2",
          "ticks": 27538,
          "time": 112.86059178333332,
          "velocity": 0.7874015748031497
        },
        {
          "duration": 0.23360642499999074,
          "durationTicks": 57,
          "midi": 45,
          "name": "A2",
          "ticks": 27597,
          "time": 113.102394925,
          "velocity": 0.8503937007874016
        },
        {
          "duration": 0.29918015833331424,
          "durationTicks": 73,
          "midi": 45,
          "name": "A2",
          "ticks": 31677,
          "time": 129.823696925,
          "velocity": 0.8976377952755905
        },
        {
          "duration": 0.1639343333333727,
          "durationTicks": 40,
          "midi": 45,
          "name": "A2",
          "ticks": 31855,
          "time": 130.5532047083333,
          "velocity": 0.8582677165354331
        },
        {
          "duration": 0.22950806666665358,
          "durationTicks": 56,
          "midi": 45,
          "name": "A2",
          "ticks": 31917,
          "time": 130.80730292500002,
          "velocity": 0.8188976377952756
        },
        {
          "duration": 0.360655533333329,
          "durationTicks": 88,
          "midi": 45,
          "name": "A2",
          "ticks": 32157,
          "time": 131.790908925,
          "velocity": 0.8503937007874016
        },
        {
          "duration": 0.15163925833334702,
          "durationTicks": 37,
          "midi": 45,
          "name": "A2",
          "ticks": 32337,
          "time": 132.528613425,
          "velocity": 0.8267716535433071
        },
        {
          "duration": 0.24180314166667927,
          "durationTicks": 59,
          "midi": 45,
          "name": "A2",
          "ticks": 32396,
          "time": 132.77041656666665,
          "velocity": 0.8267716535433071
        },
        {
          "duration": 0.3237703083333088,
          "durationTicks": 79,
          "midi": 45,
          "name": "A2",
          "ticks": 32637,
          "time": 133.75812092500001,
          "velocity": 0.8110236220472441
        },
        {
          "duration": 0.1721310500000186,
          "durationTicks": 42,
          "midi": 45,
          "name": "A2",
          "ticks": 32816,
          "time": 134.49172706666664,
          "velocity": 0.8267716535433071
        },
        {
          "duration": 0.2377047833333279,
          "durationTicks": 58,
          "midi": 45,
          "name": "A2",
          "ticks": 32877,
          "time": 134.741726925,
          "velocity": 0.8267716535433071
        },
        {
          "duration": 0.2950817999999913,
          "durationTicks": 72,
          "midi": 45,
          "name": "A2",
          "ticks": 33118,
          "time": 135.72943128333333,
          "velocity": 0.8661417322834646
        },
        {
          "duration": 0.15573761666666996,
          "durationTicks": 38,
          "midi": 45,
          "name": "A2",
          "ticks": 33297,
          "time": 136.463037425,
          "velocity": 0.7874015748031497
        },
        {
          "duration": 0.23360642500000495,
          "durationTicks": 57,
          "midi": 45,
          "name": "A2",
          "ticks": 33356,
          "time": 136.70484056666666,
          "velocity": 0.8503937007874016
        },
        {
          "duration": 0.3401637416666574,
          "durationTicks": 83,
          "midi": 45,
          "name": "A2",
          "ticks": 33597,
          "time": 137.69254492500002,
          "velocity": 0.8267716535433071
        },
        {
          "duration": 0.1434425416666727,
          "durationTicks": 35,
          "midi": 45,
          "name": "A2",
          "ticks": 33774,
          "time": 138.41795435,
          "velocity": 0.8661417322834646
        },
        {
          "duration": 0.26229493333335085,
          "durationTicks": 64,
          "midi": 45,
          "name": "A2",
          "ticks": 33835,
          "time": 138.66795420833333,
          "velocity": 0.8267716535433071
        },
        {
          "duration": 0.3647538916666804,
          "durationTicks": 89,
          "midi": 45,
          "name": "A2",
          "ticks": 34078,
          "time": 139.66385528333333,
          "velocity": 0.8740157480314961
        },
        {
          "duration": 0.15573761666666996,
          "durationTicks": 38,
          "midi": 45,
          "name": "A2",
          "ticks": 34254,
          "time": 140.38516635,
          "velocity": 0.8661417322834646
        },
        {
          "duration": 0.3319670250000115,
          "durationTicks": 81,
          "midi": 45,
          "name": "A2",
          "ticks": 34318,
          "time": 140.64746128333334,
          "velocity": 0.8740157480314961
        },
        {
          "duration": 0.3237703083333372,
          "durationTicks": 79,
          "midi": 45,
          "name": "A2",
          "ticks": 34557,
          "time": 141.626968925,
          "velocity": 0.8031496062992126
        },
        {
          "duration": 0.16803269166666723,
          "durationTicks": 41,
          "midi": 45,
          "name": "A2",
          "ticks": 34738,
          "time": 142.36877178333333,
          "velocity": 0.8110236220472441
        },
        {
          "duration": 0.24590150000000222,
          "durationTicks": 60,
          "midi": 45,
          "name": "A2",
          "ticks": 34796,
          "time": 142.60647656666666,
          "velocity": 0.7952755905511811
        },
        {
          "duration": 0.3278686666666317,
          "durationTicks": 80,
          "midi": 45,
          "name": "A2",
          "ticks": 35037,
          "time": 143.59418092500002,
          "velocity": 0.7952755905511811
        },
        {
          "duration": 0.14754090000002407,
          "durationTicks": 36,
          "midi": 45,
          "name": "A2",
          "ticks": 35216,
          "time": 144.32778706666664,
          "velocity": 0.8346456692913385
        },
        {
          "duration": 0.3155735916666913,
          "durationTicks": 77,
          "midi": 45,
          "name": "A2",
          "ticks": 35276,
          "time": 144.57368856666665,
          "velocity": 0.8110236220472441
        },
        {
          "duration": 0.32786866666666015,
          "durationTicks": 80,
          "midi": 45,
          "name": "A2",
          "ticks": 35518,
          "time": 145.56549128333333,
          "velocity": 0.84251968503937
        },
        {
          "duration": 0.14754089999996722,
          "durationTicks": 36,
          "midi": 45,
          "name": "A2",
          "ticks": 35697,
          "time": 146.299097425,
          "velocity": 0.8503937007874016
        },
        {
          "duration": 0.2581965749999995,
          "durationTicks": 63,
          "midi": 45,
          "name": "A2",
          "ticks": 35758,
          "time": 146.54909728333334,
          "velocity": 0.7952755905511811
        },
        {
          "duration": 0.3237703083333372,
          "durationTicks": 79,
          "midi": 45,
          "name": "A2",
          "ticks": 35995,
          "time": 147.52040820833332,
          "velocity": 0.8188976377952756
        },
        {
          "duration": 0.16803269166666723,
          "durationTicks": 41,
          "midi": 45,
          "name": "A2",
          "ticks": 36177,
          "time": 148.266309425,
          "velocity": 0.8740157480314961
        },
        {
          "duration": 0.26229493333332243,
          "durationTicks": 64,
          "midi": 45,
          "name": "A2",
          "ticks": 36237,
          "time": 148.512210925,
          "velocity": 0.8267716535433071
        },
        {
          "duration": 0.3032785166666656,
          "durationTicks": 74,
          "midi": 45,
          "name": "A2",
          "ticks": 36478,
          "time": 149.49991528333334,
          "velocity": 0.8503937007874016
        },
        {
          "duration": 0.16803269166669565,
          "durationTicks": 41,
          "midi": 45,
          "name": "A2",
          "ticks": 36655,
          "time": 150.22532470833332,
          "velocity": 0.8110236220472441
        },
        {
          "duration": 0.2581965750000279,
          "durationTicks": 63,
          "midi": 45,
          "name": "A2",
          "ticks": 36716,
          "time": 150.47532456666664,
          "velocity": 0.8267716535433071
        },
        {
          "duration": 0.2663932916666454,
          "durationTicks": 65,
          "midi": 45,
          "name": "A2",
          "ticks": 36958,
          "time": 151.46712728333333,
          "velocity": 0.8740157480314961
        },
        {
          "duration": 0.15983597500004976,
          "durationTicks": 39,
          "midi": 45,
          "name": "A2",
          "ticks": 37135,
          "time": 152.1925367083333,
          "velocity": 0.8740157480314961
        },
        {
          "duration": 0.31967195000001425,
          "durationTicks": 78,
          "midi": 45,
          "name": "A2",
          "ticks": 37195,
          "time": 152.4384382083333,
          "velocity": 0.8188976377952756
        },
        {
          "duration": 0.29918015833334266,
          "durationTicks": 73,
          "midi": 45,
          "name": "A2",
          "ticks": 37436,
          "time": 153.42614256666664,
          "velocity": 0.8582677165354331
        },
        {
          "duration": 0.16393433333334428,
          "durationTicks": 40,
          "midi": 45,
          "name": "A2",
          "ticks": 37614,
          "time": 154.15565035,
          "velocity": 0.8582677165354331
        },
        {
          "duration": 0.229508066666682,
          "durationTicks": 56,
          "midi": 45,
          "name": "A2",
          "ticks": 37676,
          "time": 154.40974856666665,
          "velocity": 0.8188976377952756
        },
        {
          "duration": 0.360655533333329,
          "durationTicks": 88,
          "midi": 45,
          "name": "A2",
          "ticks": 37916,
          "time": 155.39335456666666,
          "velocity": 0.8503937007874016
        },
        {
          "duration": 0.15163925833334702,
          "durationTicks": 37,
          "midi": 45,
          "name": "A2",
          "ticks": 38096,
          "time": 156.13105906666664,
          "velocity": 0.8267716535433071
        },
        {
          "duration": 0.24180314166667927,
          "durationTicks": 59,
          "midi": 45,
          "name": "A2",
          "ticks": 38155,
          "time": 156.37286220833332,
          "velocity": 0.8267716535433071
        },
        {
          "duration": 0.3237703083333372,
          "durationTicks": 79,
          "midi": 45,
          "name": "A2",
          "ticks": 38396,
          "time": 157.36056656666665,
          "velocity": 0.8110236220472441
        },
        {
          "duration": 0.17213104999999018,
          "durationTicks": 42,
          "midi": 45,
          "name": "A2",
          "ticks": 38575,
          "time": 158.09417270833333,
          "velocity": 0.8267716535433071
        },
        {
          "duration": 0.2377047833333279,
          "durationTicks": 58,
          "midi": 45,
          "name": "A2",
          "ticks": 38636,
          "time": 158.34417256666666,
          "velocity": 0.8267716535433071
        },
        {
          "duration": 0.29508179999996287,
          "durationTicks": 72,
          "midi": 45,
          "name": "A2",
          "ticks": 38877,
          "time": 159.33187692500002,
          "velocity": 0.8661417322834646
        },
        {
          "duration": 0.1557376166666984,
          "durationTicks": 38,
          "midi": 45,
          "name": "A2",
          "ticks": 39056,
          "time": 160.06548306666664,
          "velocity": 0.7874015748031497
        },
        {
          "duration": 0.23360642500000495,
          "durationTicks": 57,
          "midi": 45,
          "name": "A2",
          "ticks": 39115,
          "time": 160.30728620833332,
          "velocity": 0.8503937007874016
        },
        {
          "duration": 0.34016374166668584,
          "durationTicks": 83,
          "midi": 45,
          "name": "A2",
          "ticks": 39356,
          "time": 161.29499056666666,
          "velocity": 0.8267716535433071
        },
        {
          "duration": 0.1434425416666727,
          "durationTicks": 35,
          "midi": 45,
          "name": "A2",
          "ticks": 39533,
          "time": 162.02039999166666,
          "velocity": 0.8661417322834646
        },
        {
          "duration": 0.26229493333335085,
          "durationTicks": 64,
          "midi": 45,
          "name": "A2",
          "ticks": 39594,
          "time": 162.27039985,
          "velocity": 0.8267716535433071
        },
        {
          "duration": 0.36475389166665195,
          "durationTicks": 89,
          "midi": 45,
          "name": "A2",
          "ticks": 39837,
          "time": 163.266300925,
          "velocity": 0.8740157480314961
        },
        {
          "duration": 0.15573761666666996,
          "durationTicks": 38,
          "midi": 45,
          "name": "A2",
          "ticks": 40013,
          "time": 163.98761199166665,
          "velocity": 0.8661417322834646
        },
        {
          "duration": 0.3319670249999831,
          "durationTicks": 81,
          "midi": 45,
          "name": "A2",
          "ticks": 40077,
          "time": 164.249906925,
          "velocity": 0.8740157480314961
        },
        {
          "duration": 0.3237703083333372,
          "durationTicks": 79,
          "midi": 45,
          "name": "A2",
          "ticks": 40316,
          "time": 165.22941456666666,
          "velocity": 0.8031496062992126
        },
        {
          "duration": 0.1680326916666388,
          "durationTicks": 41,
          "midi": 45,
          "name": "A2",
          "ticks": 40497,
          "time": 165.97121742500002,
          "velocity": 0.8110236220472441
        },
        {
          "duration": 0.24590150000000222,
          "durationTicks": 60,
          "midi": 45,
          "name": "A2",
          "ticks": 40555,
          "time": 166.20892220833332,
          "velocity": 0.7952755905511811
        },
        {
          "duration": 0.32786866666668857,
          "durationTicks": 80,
          "midi": 45,
          "name": "A2",
          "ticks": 40796,
          "time": 167.19662656666665,
          "velocity": 0.7952755905511811
        },
        {
          "duration": 0.14754090000002407,
          "durationTicks": 36,
          "midi": 45,
          "name": "A2",
          "ticks": 40975,
          "time": 167.9302327083333,
          "velocity": 0.8346456692913385
        },
        {
          "duration": 0.3155735916666913,
          "durationTicks": 77,
          "midi": 45,
          "name": "A2",
          "ticks": 41035,
          "time": 168.1761342083333,
          "velocity": 0.8110236220472441
        },
        {
          "duration": 0.3278686666666317,
          "durationTicks": 80,
          "midi": 45,
          "name": "A2",
          "ticks": 41277,
          "time": 169.16793692500002,
          "velocity": 0.84251968503937
        },
        {
          "duration": 0.14754089999999564,
          "durationTicks": 36,
          "midi": 45,
          "name": "A2",
          "ticks": 41456,
          "time": 169.90154306666665,
          "velocity": 0.8503937007874016
        },
        {
          "duration": 0.2581965749999995,
          "durationTicks": 63,
          "midi": 45,
          "name": "A2",
          "ticks": 41517,
          "time": 170.151542925,
          "velocity": 0.7952755905511811
        },
        {
          "duration": 0.3237703083333656,
          "durationTicks": 79,
          "midi": 45,
          "name": "A2",
          "ticks": 41754,
          "time": 171.12285384999998,
          "velocity": 0.8188976377952756
        },
        {
          "duration": 0.16803269166669565,
          "durationTicks": 41,
          "midi": 45,
          "name": "A2",
          "ticks": 41936,
          "time": 171.86875506666664,
          "velocity": 0.8740157480314961
        },
        {
          "duration": 0.26229493333335085,
          "durationTicks": 64,
          "midi": 45,
          "name": "A2",
          "ticks": 41996,
          "time": 172.11465656666664,
          "velocity": 0.8267716535433071
        },
        {
          "duration": 0.3032785166666372,
          "durationTicks": 74,
          "midi": 45,
          "name": "A2",
          "ticks": 42237,
          "time": 173.102360925,
          "velocity": 0.8503937007874016
        },
        {
          "duration": 0.16803269166669565,
          "durationTicks": 41,
          "midi": 45,
          "name": "A2",
          "ticks": 42414,
          "time": 173.82777034999998,
          "velocity": 0.8110236220472441
        },
        {
          "duration": 0.2581965749999995,
          "durationTicks": 63,
          "midi": 45,
          "name": "A2",
          "ticks": 42475,
          "time": 174.07777020833333,
          "velocity": 0.8267716535433071
        },
        {
          "duration": 0.2663932916666454,
          "durationTicks": 65,
          "midi": 45,
          "name": "A2",
          "ticks": 42717,
          "time": 175.06957292500002,
          "velocity": 0.8740157480314961
        },
        {
          "duration": 0.1598359749999929,
          "durationTicks": 39,
          "midi": 45,
          "name": "A2",
          "ticks": 42894,
          "time": 175.79498235,
          "velocity": 0.8740157480314961
        },
        {
          "duration": 0.31967195000001425,
          "durationTicks": 78,
          "midi": 45,
          "name": "A2",
          "ticks": 42954,
          "time": 176.04088385,
          "velocity": 0.8188976377952756
        },
        {
          "duration": 0.29918015833334266,
          "durationTicks": 73,
          "midi": 45,
          "name": "A2",
          "ticks": 43195,
          "time": 177.02858820833333,
          "velocity": 0.8582677165354331
        },
        {
          "duration": 0.16393433333331586,
          "durationTicks": 40,
          "midi": 45,
          "name": "A2",
          "ticks": 43373,
          "time": 177.75809599166666,
          "velocity": 0.8582677165354331
        },
        {
          "duration": 0.229508066666682,
          "durationTicks": 56,
          "midi": 45,
          "name": "A2",
          "ticks": 43435,
          "time": 178.0121942083333,
          "velocity": 0.8188976377952756
        },
        {
          "duration": 0.360655533333329,
          "durationTicks": 88,
          "midi": 45,
          "name": "A2",
          "ticks": 43675,
          "time": 178.99580020833332,
          "velocity": 0.8503937007874016
        },
        {
          "duration": 0.1516392583333186,
          "durationTicks": 37,
          "midi": 45,
          "name": "A2",
          "ticks": 43855,
          "time": 179.73350470833333,
          "velocity": 0.8267716535433071
        },
        {
          "duration": 0.24180314166667927,
          "durationTicks": 59,
          "midi": 45,
          "name": "A2",
          "ticks": 43914,
          "time": 179.97530784999998,
          "velocity": 0.8267716535433071
        },
        {
          "duration": 0.3237703083333656,
          "durationTicks": 79,
          "midi": 45,
          "name": "A2",
          "ticks": 44155,
          "time": 180.9630122083333,
          "velocity": 0.8110236220472441
        },
        {
          "duration": 0.1721310500000186,
          "durationTicks": 42,
          "midi": 45,
          "name": "A2",
          "ticks": 44334,
          "time": 181.69661835,
          "velocity": 0.8267716535433071
        },
        {
          "duration": 0.2377047833333279,
          "durationTicks": 58,
          "midi": 45,
          "name": "A2",
          "ticks": 44395,
          "time": 181.94661820833332,
          "velocity": 0.8267716535433071
        },
        {
          "duration": 0.2950818000000197,
          "durationTicks": 72,
          "midi": 45,
          "name": "A2",
          "ticks": 44636,
          "time": 182.93432256666665,
          "velocity": 0.8661417322834646
        },
        {
          "duration": 0.15573761666666996,
          "durationTicks": 38,
          "midi": 45,
          "name": "A2",
          "ticks": 44815,
          "time": 183.6679287083333,
          "velocity": 0.7874015748031497
        },
        {
          "duration": 0.23360642500000495,
          "durationTicks": 57,
          "midi": 45,
          "name": "A2",
          "ticks": 44874,
          "time": 183.90973185,
          "velocity": 0.8503937007874016
        },
        {
          "duration": 0.3401637416666574,
          "durationTicks": 83,
          "midi": 45,
          "name": "A2",
          "ticks": 45115,
          "time": 184.89743620833332,
          "velocity": 0.8267716535433071
        },
        {
          "duration": 0.1434425416666727,
          "durationTicks": 35,
          "midi": 45,
          "name": "A2",
          "ticks": 45292,
          "time": 185.62284563333333,
          "velocity": 0.8661417322834646
        },
        {
          "duration": 0.26229493333335085,
          "durationTicks": 64,
          "midi": 45,
          "name": "A2",
          "ticks": 45353,
          "time": 185.87284549166665,
          "velocity": 0.8267716535433071
        },
        {
          "duration": 0.36475389166665195,
          "durationTicks": 89,
          "midi": 45,
          "name": "A2",
          "ticks": 45596,
          "time": 186.86874656666666,
          "velocity": 0.8740157480314961
        },
        {
          "duration": 0.15573761666664154,
          "durationTicks": 38,
          "midi": 45,
          "name": "A2",
          "ticks": 45772,
          "time": 187.59005763333334,
          "velocity": 0.8661417322834646
        },
        {
          "duration": 0.3319670250000115,
          "durationTicks": 81,
          "midi": 45,
          "name": "A2",
          "ticks": 45836,
          "time": 187.85235256666664,
          "velocity": 0.8740157480314961
        },
        {
          "duration": 0.3237703083333372,
          "durationTicks": 79,
          "midi": 45,
          "name": "A2",
          "ticks": 46075,
          "time": 188.83186020833332,
          "velocity": 0.8031496062992126
        },
        {
          "duration": 0.16803269166666723,
          "durationTicks": 41,
          "midi": 45,
          "name": "A2",
          "ticks": 46256,
          "time": 189.57366306666665,
          "velocity": 0.8110236220472441
        },
        {
          "duration": 0.24590150000000222,
          "durationTicks": 60,
          "midi": 45,
          "name": "A2",
          "ticks": 46314,
          "time": 189.81136784999998,
          "velocity": 0.7952755905511811
        },
        {
          "duration": 0.32786866666668857,
          "durationTicks": 80,
          "midi": 45,
          "name": "A2",
          "ticks": 46555,
          "time": 190.7990722083333,
          "velocity": 0.7952755905511811
        },
        {
          "duration": 0.14754089999999564,
          "durationTicks": 36,
          "midi": 45,
          "name": "A2",
          "ticks": 46734,
          "time": 191.53267835,
          "velocity": 0.8346456692913385
        },
        {
          "duration": 0.3155735916666629,
          "durationTicks": 77,
          "midi": 45,
          "name": "A2",
          "ticks": 46794,
          "time": 191.77857985,
          "velocity": 0.8110236220472441
        },
        {
          "duration": 0.32786866666666015,
          "durationTicks": 80,
          "midi": 45,
          "name": "A2",
          "ticks": 47036,
          "time": 192.77038256666665,
          "velocity": 0.84251968503937
        },
        {
          "duration": 0.14754090000002407,
          "durationTicks": 36,
          "midi": 45,
          "name": "A2",
          "ticks": 47215,
          "time": 193.5039887083333,
          "velocity": 0.8503937007874016
        },
        {
          "duration": 0.2581965749999995,
          "durationTicks": 63,
          "midi": 45,
          "name": "A2",
          "ticks": 47276,
          "time": 193.75398856666666,
          "velocity": 0.7952755905511811
        },
        {
          "duration": 0.3237703083333372,
          "durationTicks": 79,
          "midi": 45,
          "name": "A2",
          "ticks": 47513,
          "time": 194.72529949166668,
          "velocity": 0.8188976377952756
        },
        {
          "duration": 0.16803269166666723,
          "durationTicks": 41,
          "midi": 45,
          "name": "A2",
          "ticks": 47695,
          "time": 195.47120070833333,
          "velocity": 0.8740157480314961
        },
        {
          "duration": 0.26229493333335085,
          "durationTicks": 64,
          "midi": 45,
          "name": "A2",
          "ticks": 47755,
          "time": 195.71710220833333,
          "velocity": 0.8267716535433071
        },
        {
          "duration": 0.3032785166666656,
          "durationTicks": 74,
          "midi": 45,
          "name": "A2",
          "ticks": 47996,
          "time": 196.70480656666666,
          "velocity": 0.8503937007874016
        },
        {
          "duration": 0.16803269166666723,
          "durationTicks": 41,
          "midi": 45,
          "name": "A2",
          "ticks": 48173,
          "time": 197.43021599166667,
          "velocity": 0.8110236220472441
        },
        {
          "duration": 0.2581965749999995,
          "durationTicks": 63,
          "midi": 45,
          "name": "A2",
          "ticks": 48234,
          "time": 197.68021585,
          "velocity": 0.8267716535433071
        },
        {
          "duration": 0.2663932916666738,
          "durationTicks": 65,
          "midi": 45,
          "name": "A2",
          "ticks": 48476,
          "time": 198.67201856666665,
          "velocity": 0.8740157480314961
        },
        {
          "duration": 0.1598359749999929,
          "durationTicks": 39,
          "midi": 45,
          "name": "A2",
          "ticks": 48653,
          "time": 199.39742799166666,
          "velocity": 0.8740157480314961
        },
        {
          "duration": 0.3196719499999858,
          "durationTicks": 78,
          "midi": 45,
          "name": "A2",
          "ticks": 48713,
          "time": 199.64332949166666,
          "velocity": 0.8188976377952756
        },
        {
          "duration": 0.29918015833334266,
          "durationTicks": 73,
          "midi": 45,
          "name": "A2",
          "ticks": 48954,
          "time": 200.63103385,
          "velocity": 0.8582677165354331
        },
        {
          "duration": 0.16393433333331586,
          "durationTicks": 40,
          "midi": 45,
          "name": "A2",
          "ticks": 49132,
          "time": 201.36054163333333,
          "velocity": 0.8582677165354331
        },
        {
          "duration": 0.229508066666682,
          "durationTicks": 56,
          "midi": 45,
          "name": "A2",
          "ticks": 49194,
          "time": 201.61463985,
          "velocity": 0.8188976377952756
        },
        {
          "duration": 0.3606555333333574,
          "durationTicks": 88,
          "midi": 45,
          "name": "A2",
          "ticks": 49434,
          "time": 202.59824584999998,
          "velocity": 0.8503937007874016
        },
        {
          "duration": 0.15163925833334702,
          "durationTicks": 37,
          "midi": 45,
          "name": "A2",
          "ticks": 49614,
          "time": 203.33595035,
          "velocity": 0.8267716535433071
        },
        {
          "duration": 0.24180314166665084,
          "durationTicks": 59,
          "midi": 45,
          "name": "A2",
          "ticks": 49673,
          "time": 203.57775349166667,
          "velocity": 0.8267716535433071
        },
        {
          "duration": 0.3237703083333372,
          "durationTicks": 79,
          "midi": 45,
          "name": "A2",
          "ticks": 49914,
          "time": 204.56545785,
          "velocity": 0.8110236220472441
        },
        {
          "duration": 0.1721310500000186,
          "durationTicks": 42,
          "midi": 45,
          "name": "A2",
          "ticks": 50093,
          "time": 205.29906399166666,
          "velocity": 0.8267716535433071
        },
        {
          "duration": 0.23770478333335632,
          "durationTicks": 58,
          "midi": 45,
          "name": "A2",
          "ticks": 50154,
          "time": 205.54906384999998,
          "velocity": 0.8267716535433071
        },
        {
          "duration": 0.2950818000000197,
          "durationTicks": 72,
          "midi": 45,
          "name": "A2",
          "ticks": 50395,
          "time": 206.5367682083333,
          "velocity": 0.8661417322834646
        },
        {
          "duration": 0.15573761666666996,
          "durationTicks": 38,
          "midi": 45,
          "name": "A2",
          "ticks": 50574,
          "time": 207.27037435,
          "velocity": 0.7874015748031497
        },
        {
          "duration": 0.23360642500003337,
          "durationTicks": 57,
          "midi": 45,
          "name": "A2",
          "ticks": 50633,
          "time": 207.51217749166665,
          "velocity": 0.8503937007874016
        },
        {
          "duration": 0.34016374166668584,
          "durationTicks": 83,
          "midi": 45,
          "name": "A2",
          "ticks": 50874,
          "time": 208.49988184999998,
          "velocity": 0.8267716535433071
        },
        {
          "duration": 0.1434425416666727,
          "durationTicks": 35,
          "midi": 45,
          "name": "A2",
          "ticks": 51051,
          "time": 209.225291275,
          "velocity": 0.8661417322834646
        },
        {
          "duration": 0.262294933333294,
          "durationTicks": 64,
          "midi": 45,
          "name": "A2",
          "ticks": 51112,
          "time": 209.47529113333334,
          "velocity": 0.8267716535433071
        },
        {
          "duration": 0.3647538916666804,
          "durationTicks": 89,
          "midi": 45,
          "name": "A2",
          "ticks": 51355,
          "time": 210.47119220833332,
          "velocity": 0.8740157480314961
        },
        {
          "duration": 0.15573761666666996,
          "durationTicks": 38,
          "midi": 45,
          "name": "A2",
          "ticks": 51531,
          "time": 211.192503275,
          "velocity": 0.8661417322834646
        },
        {
          "duration": 0.3319670249999831,
          "durationTicks": 81,
          "midi": 45,
          "name": "A2",
          "ticks": 51595,
          "time": 211.45479820833333,
          "velocity": 0.8740157480314961
        },
        {
          "duration": 0.3237703083333372,
          "durationTicks": 79,
          "midi": 45,
          "name": "A2",
          "ticks": 51834,
          "time": 212.43430585,
          "velocity": 0.8031496062992126
        },
        {
          "duration": 0.16803269166669565,
          "durationTicks": 41,
          "midi": 45,
          "name": "A2",
          "ticks": 52015,
          "time": 213.17610870833332,
          "velocity": 0.8110236220472441
        },
        {
          "duration": 0.2459014999999738,
          "durationTicks": 60,
          "midi": 45,
          "name": "A2",
          "ticks": 52073,
          "time": 213.41381349166667,
          "velocity": 0.7952755905511811
        },
        {
          "duration": 0.32786866666668857,
          "durationTicks": 80,
          "midi": 45,
          "name": "A2",
          "ticks": 52314,
          "time": 214.40151784999998,
          "velocity": 0.7952755905511811
        },
        {
          "duration": 0.14754089999999564,
          "durationTicks": 36,
          "midi": 45,
          "name": "A2",
          "ticks": 52493,
          "time": 215.13512399166666,
          "velocity": 0.8346456692913385
        },
        {
          "duration": 0.3155735916666629,
          "durationTicks": 77,
          "midi": 45,
          "name": "A2",
          "ticks": 52553,
          "time": 215.38102549166666,
          "velocity": 0.8110236220472441
        },
        {
          "duration": 0.32786866666668857,
          "durationTicks": 80,
          "midi": 45,
          "name": "A2",
          "ticks": 52795,
          "time": 216.37282820833332,
          "velocity": 0.84251968503937
        },
        {
          "duration": 0.14754089999999564,
          "durationTicks": 36,
          "midi": 45,
          "name": "A2",
          "ticks": 52974,
          "time": 217.10643435,
          "velocity": 0.8503937007874016
        },
        {
          "duration": 0.2581965749999995,
          "durationTicks": 63,
          "midi": 45,
          "name": "A2",
          "ticks": 53035,
          "time": 217.35643420833333,
          "velocity": 0.7952755905511811
        },
        {
          "duration": 0.3237703083333088,
          "durationTicks": 79,
          "midi": 45,
          "name": "A2",
          "ticks": 53272,
          "time": 218.32774513333334,
          "velocity": 0.8188976377952756
        },
        {
          "duration": 0.16803269166669565,
          "durationTicks": 41,
          "midi": 45,
          "name": "A2",
          "ticks": 53454,
          "time": 219.07364635,
          "velocity": 0.8740157480314961
        },
        {
          "duration": 0.26229493333335085,
          "durationTicks": 64,
          "midi": 45,
          "name": "A2",
          "ticks": 53514,
          "time": 219.31954785,
          "velocity": 0.8267716535433071
        },
        {
          "duration": 0.3032785166666656,
          "durationTicks": 74,
          "midi": 45,
          "name": "A2",
          "ticks": 53755,
          "time": 220.30725220833332,
          "velocity": 0.8503937007874016
        },
        {
          "duration": 0.1680326916666388,
          "durationTicks": 41,
          "midi": 45,
          "name": "A2",
          "ticks": 53932,
          "time": 221.03266163333333,
          "velocity": 0.8110236220472441
        },
        {
          "duration": 0.2581965749999995,
          "durationTicks": 63,
          "midi": 45,
          "name": "A2",
          "ticks": 53993,
          "time": 221.28266149166666,
          "velocity": 0.8267716535433071
        },
        {
          "duration": 0.2663932916666738,
          "durationTicks": 65,
          "midi": 45,
          "name": "A2",
          "ticks": 54235,
          "time": 222.2744642083333,
          "velocity": 0.8740157480314961
        },
        {
          "duration": 0.1598359749999929,
          "durationTicks": 39,
          "midi": 45,
          "name": "A2",
          "ticks": 54412,
          "time": 222.99987363333332,
          "velocity": 0.8740157480314961
        },
        {
          "duration": 0.3196719499999858,
          "durationTicks": 78,
          "midi": 45,
          "name": "A2",
          "ticks": 54472,
          "time": 223.24577513333332,
          "velocity": 0.8188976377952756
        },
        {
          "duration": 0.29918015833334266,
          "durationTicks": 73,
          "midi": 45,
          "name": "A2",
          "ticks": 54713,
          "time": 224.23347949166666,
          "velocity": 0.8582677165354331
        },
        {
          "duration": 0.16393433333334428,
          "durationTicks": 40,
          "midi": 45,
          "name": "A2",
          "ticks": 54891,
          "time": 224.962987275,
          "velocity": 0.8582677165354331
        },
        {
          "duration": 0.229508066666682,
          "durationTicks": 56,
          "midi": 45,
          "name": "A2",
          "ticks": 54953,
          "time": 225.21708549166667,
          "velocity": 0.8188976377952756
        },
        {
          "duration": 0.360655533333329,
          "durationTicks": 88,
          "midi": 45,
          "name": "A2",
          "ticks": 55193,
          "time": 226.20069149166667,
          "velocity": 0.8503937007874016
        },
        {
          "duration": 0.15163925833334702,
          "durationTicks": 37,
          "midi": 45,
          "name": "A2",
          "ticks": 55373,
          "time": 226.93839599166665,
          "velocity": 0.8267716535433071
        },
        {
          "duration": 0.24180314166667927,
          "durationTicks": 59,
          "midi": 45,
          "name": "A2",
          "ticks": 55432,
          "time": 227.18019913333333,
          "velocity": 0.8267716535433071
        },
        {
          "duration": 0.3237703083333372,
          "durationTicks": 79,
          "midi": 45,
          "name": "A2",
          "ticks": 55673,
          "time": 228.16790349166666,
          "velocity": 0.8110236220472441
        },
        {
          "duration": 0.1721310500000186,
          "durationTicks": 42,
          "midi": 45,
          "name": "A2",
          "ticks": 55852,
          "time": 228.90150963333332,
          "velocity": 0.8267716535433071
        },
        {
          "duration": 0.2377047833333279,
          "durationTicks": 58,
          "midi": 45,
          "name": "A2",
          "ticks": 55913,
          "time": 229.15150949166667,
          "velocity": 0.8267716535433071
        },
        {
          "duration": 0.2950818000000197,
          "durationTicks": 72,
          "midi": 45,
          "name": "A2",
          "ticks": 56154,
          "time": 230.13921384999998,
          "velocity": 0.8661417322834646
        },
        {
          "duration": 0.15573761666666996,
          "durationTicks": 38,
          "midi": 45,
          "name": "A2",
          "ticks": 56333,
          "time": 230.87281999166666,
          "velocity": 0.7874015748031497
        },
        {
          "duration": 0.23360642500000495,
          "durationTicks": 57,
          "midi": 45,
          "name": "A2",
          "ticks": 56392,
          "time": 231.11462313333334,
          "velocity": 0.8503937007874016
        },
        {
          "duration": 0.3401637416666574,
          "durationTicks": 83,
          "midi": 45,
          "name": "A2",
          "ticks": 56633,
          "time": 232.10232749166667,
          "velocity": 0.8267716535433071
        },
        {
          "duration": 0.14344254166664427,
          "durationTicks": 35,
          "midi": 45,
          "name": "A2",
          "ticks": 56810,
          "time": 232.82773691666668,
          "velocity": 0.8661417322834646
        },
        {
          "duration": 0.26229493333332243,
          "durationTicks": 64,
          "midi": 45,
          "name": "A2",
          "ticks": 56871,
          "time": 233.077736775,
          "velocity": 0.8267716535433071
        },
        {
          "duration": 0.3647538916666804,
          "durationTicks": 89,
          "midi": 45,
          "name": "A2",
          "ticks": 57114,
          "time": 234.07363784999998,
          "velocity": 0.8740157480314961
        },
        {
          "duration": 0.15573761666666996,
          "durationTicks": 38,
          "midi": 45,
          "name": "A2",
          "ticks": 57290,
          "time": 234.79494891666667,
          "velocity": 0.8661417322834646
        },
        {
          "duration": 0.3319670250000115,
          "durationTicks": 81,
          "midi": 45,
          "name": "A2",
          "ticks": 57354,
          "time": 235.05724385,
          "velocity": 0.8740157480314961
        },
        {
          "duration": 0.3237703083333656,
          "durationTicks": 79,
          "midi": 45,
          "name": "A2",
          "ticks": 57593,
          "time": 236.03675149166665,
          "velocity": 0.8031496062992126
        }
      ]
    },
    {
      "channel": 0,
      "controlChanges": {
        "0": [
          {
            "number": 0,
            "ticks": 0,
            "time": 0,
            "value": 0
          }
        ],
        "32": [
          {
            "number": 32,
            "ticks": 0,
            "time": 0,
            "value": 0
          }
        ],
        "121": [
          {
            "number": 121,
            "ticks": 0,
            "time": 0,
            "value": 0
          }
        ]
      },
      "pitchBends": [],
      "instrument": {
        "family": "synth lead",
        "number": 81,
        "name": "lead 2 (sawtooth)"
      },
      "name": "",
      "notes": [],
      "endOfTrackTicks": 55650
    },
    {
      "channel": 2,
      "controlChanges": {
        "7": [
          {
            "number": 7,
            "ticks": 0,
            "time": 0,
            "value": 0.8582677165354331
          }
        ],
        "10": [
          {
            "number": 10,
            "ticks": 1,
            "time": 0.004098358333333333,
            "value": 0.6299212598425197
          }
        ],
        "11": [
          {
            "number": 11,
            "ticks": 1,
            "time": 0.004098358333333333,
            "value": 1
          }
        ],
        "91": [
          {
            "number": 91,
            "ticks": 1,
            "time": 0.004098358333333333,
            "value": 0.6299212598425197
          }
        ],
        "93": [
          {
            "number": 93,
            "ticks": 1,
            "time": 0.004098358333333333,
            "value": 0.15748031496062992
          }
        ]
      },
      "pitchBends": [],
      "instrument": {
        "family": "brass",
        "number": 62,
        "name": "synthbrass 1"
      },
      "name": "",
      "notes": [
        {
          "duration": 0.237704783333335,
          "durationTicks": 58,
          "midi": 33,
          "name": "A1",
          "ticks": 2882,
          "time": 11.811468716666665,
          "velocity": 0.8661417322834646
        },
        {
          "duration": 0.2827867250000011,
          "durationTicks": 69,
          "midi": 45,
          "name": "A2",
          "ticks": 2882,
          "time": 11.811468716666665,
          "velocity": 0.8818897637795275
        },
        {
          "duration": 0.4426226999999976,
          "durationTicks": 108,
          "midi": 69,
          "name": "A4",
          "ticks": 4919,
          "time": 20.159824641666667,
          "velocity": 0.8740157480314961
        },
        {
          "duration": 0.4016391166666651,
          "durationTicks": 98,
          "midi": 71,
          "name": "B4",
          "ticks": 5038,
          "time": 20.647529283333334,
          "velocity": 0.8188976377952756
        },
        {
          "duration": 0.4016391166666651,
          "durationTicks": 98,
          "midi": 72,
          "name": "C5",
          "ticks": 5159,
          "time": 21.143430641666665,
          "velocity": 0.8661417322834646
        },
        {
          "duration": 0.6516389750000009,
          "durationTicks": 159,
          "midi": 71,
          "name": "B4",
          "ticks": 5279,
          "time": 21.635233641666666,
          "velocity": 0.8661417322834646
        },
        {
          "duration": 1.0983600333333357,
          "durationTicks": 268,
          "midi": 69,
          "name": "A4",
          "ticks": 5460,
          "time": 22.3770365,
          "velocity": 0.8110236220472441
        },
        {
          "duration": 0.44262270000000115,
          "durationTicks": 108,
          "midi": 69,
          "name": "A4",
          "ticks": 8761,
          "time": 35.905717358333334,
          "velocity": 0.8740157480314961
        },
        {
          "duration": 0.4016391166666651,
          "durationTicks": 98,
          "midi": 71,
          "name": "B4",
          "ticks": 8881,
          "time": 36.39752035833334,
          "velocity": 0.8818897637795275
        },
        {
          "duration": 0.4016391166666651,
          "durationTicks": 98,
          "midi": 72,
          "name": "C5",
          "ticks": 9002,
          "time": 36.893421716666666,
          "velocity": 0.8503937007874016
        },
        {
          "duration": 0.6516389749999973,
          "durationTicks": 159,
          "midi": 71,
          "name": "B4",
          "ticks": 9119,
          "time": 37.372929641666666,
          "velocity": 0.84251968503937
        },
        {
          "duration": 1.0983600333333285,
          "durationTicks": 268,
          "midi": 69,
          "name": "A4",
          "ticks": 9301,
          "time": 38.11883085833333,
          "velocity": 0.8740157480314961
        },
        {
          "duration": 0.44262270000000825,
          "durationTicks": 108,
          "midi": 69,
          "name": "A4",
          "ticks": 12599,
          "time": 51.63521664166666,
          "velocity": 0.8267716535433071
        },
        {
          "duration": 0.4016391166666651,
          "durationTicks": 98,
          "midi": 71,
          "name": "B4",
          "ticks": 12721,
          "time": 52.13521635833334,
          "velocity": 0.8346456692913385
        },
        {
          "duration": 0.4016391166666651,
          "durationTicks": 98,
          "midi": 72,
          "name": "C5",
          "ticks": 12841,
          "time": 52.627019358333335,
          "velocity": 0.8503937007874016
        },
        {
          "duration": 0.6516389750000045,
          "durationTicks": 159,
          "midi": 71,
          "name": "B4",
          "ticks": 12960,
          "time": 53.114723999999995,
          "velocity": 0.8110236220472441
        },
        {
          "duration": 1.0983600333333285,
          "durationTicks": 268,
          "midi": 69,
          "name": "A4",
          "ticks": 13139,
          "time": 53.848330141666665,
          "velocity": 0.8661417322834646
        },
        {
          "duration": 0.44262270000000115,
          "durationTicks": 108,
          "midi": 69,
          "name": "A4",
          "ticks": 16440,
          "time": 67.377011,
          "velocity": 0.8818897637795275
        },
        {
          "duration": 0.4016391166666722,
          "durationTicks": 98,
          "midi": 71,
          "name": "B4",
          "ticks": 16559,
          "time": 67.86471564166666,
          "velocity": 0.8110236220472441
        },
        {
          "duration": 0.4016391166666722,
          "durationTicks": 98,
          "midi": 72,
          "name": "C5",
          "ticks": 16682,
          "time": 68.36881371666666,
          "velocity": 0.8110236220472441
        },
        {
          "duration": 0.6516389749999973,
          "durationTicks": 159,
          "midi": 71,
          "name": "B4",
          "ticks": 16799,
          "time": 68.84832164166667,
          "velocity": 0.8188976377952756
        },
        {
          "duration": 1.0983600333333214,
          "durationTicks": 268,
          "midi": 69,
          "name": "A4",
          "ticks": 16980,
          "time": 69.5901245,
          "velocity": 0.8346456692913385
        },
        {
          "duration": 0.44262270000000115,
          "durationTicks": 108,
          "midi": 69,
          "name": "A4",
          "ticks": 20278,
          "time": 83.10651028333332,
          "velocity": 0.8582677165354331
        },
        {
          "duration": 0.4016391166666722,
          "durationTicks": 98,
          "midi": 71,
          "name": "B4",
          "ticks": 20398,
          "time": 83.59831328333333,
          "velocity": 0.8188976377952756
        },
        {
          "duration": 0.4016391166666722,
          "durationTicks": 98,
          "midi": 72,
          "name": "C5",
          "ticks": 20522,
          "time": 84.10650971666666,
          "velocity": 0.8740157480314961
        },
        {
          "duration": 0.6516389749999973,
          "durationTicks": 159,
          "midi": 71,
          "name": "B4",
          "ticks": 20641,
          "time": 84.59421435833333,
          "velocity": 0.8740157480314961
        },
        {
          "duration": 1.0983600333333357,
          "durationTicks": 268,
          "midi": 69,
          "name": "A4",
          "ticks": 20819,
          "time": 85.32372214166666,
          "velocity": 0.8582677165354331
        },
        {
          "duration": 0.44262270000000115,
          "durationTicks": 108,
          "midi": 69,
          "name": "A4",
          "ticks": 24119,
          "time": 98.84830464166667,
          "velocity": 0.8582677165354331
        },
        {
          "duration": 0.4016391166666722,
          "durationTicks": 98,
          "midi": 71,
          "name": "B4",
          "ticks": 24239,
          "time": 99.34010764166666,
          "velocity": 0.8582677165354331
        },
        {
          "duration": 0.40163911666665797,
          "durationTicks": 98,
          "midi": 72,
          "name": "C5",
          "ticks": 24360,
          "time": 99.836009,
          "velocity": 0.8267716535433071
        },
        {
          "duration": 0.6516389749999973,
          "durationTicks": 159,
          "midi": 71,
          "name": "B4",
          "ticks": 24481,
          "time": 100.33191035833333,
          "velocity": 0.8346456692913385
        },
        {
          "duration": 1.0983600333333214,
          "durationTicks": 268,
          "midi": 69,
          "name": "A4",
          "ticks": 24662,
          "time": 101.07371321666668,
          "velocity": 0.8267716535433071
        },
        {
          "duration": 0.44262270000001536,
          "durationTicks": 108,
          "midi": 69,
          "name": "A4",
          "ticks": 31801,
          "time": 130.33189335833333,
          "velocity": 0.8740157480314961
        },
        {
          "duration": 0.4016391166666722,
          "durationTicks": 98,
          "midi": 71,
          "name": "B4",
          "ticks": 31920,
          "time": 130.81959799999998,
          "velocity": 0.8582677165354331
        },
        {
          "duration": 0.4016391166666722,
          "durationTicks": 98,
          "midi": 72,
          "name": "C5",
          "ticks": 32040,
          "time": 131.311401,
          "velocity": 0.8503937007874016
        },
        {
          "duration": 0.6516389749999973,
          "durationTicks": 159,
          "midi": 71,
          "name": "B4",
          "ticks": 32159,
          "time": 131.79910564166667,
          "velocity": 0.84251968503937
        },
        {
          "duration": 1.0983600333333357,
          "durationTicks": 268,
          "midi": 69,
          "name": "A4",
          "ticks": 32340,
          "time": 132.5409085,
          "velocity": 0.8661417322834646
        },
        {
          "duration": 0.44262269999998693,
          "durationTicks": 108,
          "midi": 69,
          "name": "A4",
          "ticks": 35639,
          "time": 146.06139264166666,
          "velocity": 0.8346456692913385
        },
        {
          "duration": 0.40163911666664376,
          "durationTicks": 98,
          "midi": 71,
          "name": "B4",
          "ticks": 35761,
          "time": 146.56139235833334,
          "velocity": 0.889763779527559
        },
        {
          "duration": 0.4016391166666722,
          "durationTicks": 98,
          "midi": 72,
          "name": "C5",
          "ticks": 35879,
          "time": 147.04499864166667,
          "velocity": 0.8818897637795275
        },
        {
          "duration": 0.6516389749999973,
          "durationTicks": 159,
          "midi": 71,
          "name": "B4",
          "ticks": 36000,
          "time": 147.5409,
          "velocity": 0.8188976377952756
        },
        {
          "duration": 1.0983600333333357,
          "durationTicks": 268,
          "midi": 69,
          "name": "A4",
          "ticks": 36181,
          "time": 148.28270285833332,
          "velocity": 0.8582677165354331
        },
        {
          "duration": 0.44262269999998693,
          "durationTicks": 108,
          "midi": 69,
          "name": "A4",
          "ticks": 39480,
          "time": 161.803187,
          "velocity": 0.8661417322834646
        },
        {
          "duration": 0.4016391166666722,
          "durationTicks": 98,
          "midi": 71,
          "name": "B4",
          "ticks": 39599,
          "time": 162.29089164166666,
          "velocity": 0.8110236220472441
        },
        {
          "duration": 0.4016391166666722,
          "durationTicks": 98,
          "midi": 72,
          "name": "C5",
          "ticks": 39719,
          "time": 162.78269464166667,
          "velocity": 0.8503937007874016
        },
        {
          "duration": 0.6516389749999973,
          "durationTicks": 159,
          "midi": 71,
          "name": "B4",
          "ticks": 39840,
          "time": 163.278596,
          "velocity": 0.8188976377952756
        },
        {
          "duration": 1.0983600333333357,
          "durationTicks": 268,
          "midi": 69,
          "name": "A4",
          "ticks": 40021,
          "time": 164.02039885833332,
          "velocity": 0.84251968503937
        },
        {
          "duration": 0.44262270000001536,
          "durationTicks": 108,
          "midi": 69,
          "name": "A4",
          "ticks": 43322,
          "time": 177.54907971666665,
          "velocity": 0.8740157480314961
        },
        {
          "duration": 0.4016391166666722,
          "durationTicks": 98,
          "midi": 71,
          "name": "B4",
          "ticks": 43440,
          "time": 178.03268599999998,
          "velocity": 0.8503937007874016
        },
        {
          "duration": 0.4016391166666722,
          "durationTicks": 98,
          "midi": 72,
          "name": "C5",
          "ticks": 43559,
          "time": 178.52039064166667,
          "velocity": 0.8582677165354331
        },
        {
          "duration": 0.6516389749999973,
          "durationTicks": 159,
          "midi": 71,
          "name": "B4",
          "ticks": 43681,
          "time": 179.02039035833332,
          "velocity": 0.8661417322834646
        },
        {
          "duration": 1.0983600333333357,
          "durationTicks": 268,
          "midi": 69,
          "name": "A4",
          "ticks": 43858,
          "time": 179.74579978333333,
          "velocity": 0.8503937007874016
        },
        {
          "duration": 0.44262269999998693,
          "durationTicks": 108,
          "midi": 69,
          "name": "A4",
          "ticks": 47160,
          "time": 193.278579,
          "velocity": 0.8740157480314961
        },
        {
          "duration": 0.4016391166666722,
          "durationTicks": 98,
          "midi": 71,
          "name": "B4",
          "ticks": 47279,
          "time": 193.76628364166666,
          "velocity": 0.8661417322834646
        },
        {
          "duration": 0.40163911666664376,
          "durationTicks": 98,
          "midi": 72,
          "name": "C5",
          "ticks": 47401,
          "time": 194.26628335833334,
          "velocity": 0.8110236220472441
        },
        {
          "duration": 0.6516389749999689,
          "durationTicks": 159,
          "midi": 71,
          "name": "B4",
          "ticks": 47522,
          "time": 194.76218471666667,
          "velocity": 0.8661417322834646
        },
        {
          "duration": 1.0983600333333357,
          "durationTicks": 268,
          "midi": 69,
          "name": "A4",
          "ticks": 47698,
          "time": 195.48349578333332,
          "velocity": 0.889763779527559
        },
        {
          "duration": 0.44262270000001536,
          "durationTicks": 108,
          "midi": 69,
          "name": "A4",
          "ticks": 51001,
          "time": 209.02037335833333,
          "velocity": 0.8110236220472441
        },
        {
          "duration": 0.4016391166666722,
          "durationTicks": 98,
          "midi": 71,
          "name": "B4",
          "ticks": 51120,
          "time": 209.50807799999998,
          "velocity": 0.8503937007874016
        },
        {
          "duration": 0.40163911666664376,
          "durationTicks": 98,
          "midi": 72,
          "name": "C5",
          "ticks": 51241,
          "time": 210.00397935833334,
          "velocity": 0.889763779527559
        },
        {
          "duration": 0.6516389749999689,
          "durationTicks": 159,
          "midi": 71,
          "name": "B4",
          "ticks": 51362,
          "time": 210.49988071666667,
          "velocity": 0.8346456692913385
        },
        {
          "duration": 1.0983600333333357,
          "durationTicks": 268,
          "midi": 69,
          "name": "A4",
          "ticks": 51538,
          "time": 211.22119178333332,
          "velocity": 0.8188976377952756
        },
        {
          "duration": 0.44262269999998693,
          "durationTicks": 108,
          "midi": 69,
          "name": "A4",
          "ticks": 54840,
          "time": 224.753971,
          "velocity": 0.8503937007874016
        },
        {
          "duration": 0.40163911666664376,
          "durationTicks": 98,
          "midi": 71,
          "name": "B4",
          "ticks": 54961,
          "time": 225.24987235833333,
          "velocity": 0.84251968503937
        },
        {
          "duration": 0.40163911666664376,
          "durationTicks": 98,
          "midi": 72,
          "name": "C5",
          "ticks": 55082,
          "time": 225.74577371666666,
          "velocity": 0.8661417322834646
        },
        {
          "duration": 0.6516389749999973,
          "durationTicks": 159,
          "midi": 71,
          "name": "B4",
          "ticks": 55200,
          "time": 226.22938,
          "velocity": 0.889763779527559
        },
        {
          "duration": 1.098360033333364,
          "durationTicks": 268,
          "midi": 69,
          "name": "A4",
          "ticks": 55382,
          "time": 226.97528121666664,
          "velocity": 0.84251968503937
        }
      ]
    },
    {
      "channel": 0,
      "controlChanges": {},
      "pitchBends": [],
      "instrument": {
        "family": "piano",
        "number": 0,
        "name": "acoustic grand piano"
      },
      "name": "",
      "notes": [
        {
          "duration": 0.4672128500000028,
          "durationTicks": 114,
          "midi": 69,
          "name": "A4",
          "ticks": 10680,
          "time": 43.770467,
          "velocity": 0.7795275590551181
        },
        {
          "duration": 0.5122947916666689,
          "durationTicks": 125,
          "midi": 71,
          "name": "B4",
          "ticks": 10785,
          "time": 44.200794625,
          "velocity": 0.7795275590551181
        },
        {
          "duration": 0.516393149999999,
          "durationTicks": 126,
          "midi": 72,
          "name": "C5",
          "ticks": 10912,
          "time": 44.72128613333334,
          "velocity": 0.7637795275590551
        },
        {
          "duration": 0.754097933333334,
          "durationTicks": 184,
          "midi": 71,
          "name": "B4",
          "ticks": 11032,
          "time": 45.213089133333334,
          "velocity": 0.8267716535433071
        },
        {
          "duration": 1.188523916666668,
          "durationTicks": 290,
          "midi": 69,
          "name": "A4",
          "ticks": 11220,
          "time": 45.9835805,
          "velocity": 0.8267716535433071
        },
        {
          "duration": 0.5245898666666662,
          "durationTicks": 128,
          "midi": 69,
          "name": "A4",
          "ticks": 14522,
          "time": 59.51635971666666,
          "velocity": 0.8031496062992126
        },
        {
          "duration": 0.4672128499999957,
          "durationTicks": 114,
          "midi": 71,
          "name": "B4",
          "ticks": 14642,
          "time": 60.00816271666667,
          "velocity": 0.8818897637795275
        },
        {
          "duration": 0.6024586749999941,
          "durationTicks": 147,
          "midi": 72,
          "name": "C5",
          "ticks": 14748,
          "time": 60.4425887,
          "velocity": 0.7637795275590551
        },
        {
          "duration": 0.7786880833333356,
          "durationTicks": 190,
          "midi": 71,
          "name": "B4",
          "ticks": 14870,
          "time": 60.942588416666666,
          "velocity": 0.8031496062992126
        },
        {
          "duration": 1.2663927250000029,
          "durationTicks": 309,
          "midi": 69,
          "name": "A4",
          "ticks": 15062,
          "time": 61.72947321666666,
          "velocity": 0.7795275590551181
        }
      ]
    },
    {
      "channel": 3,
      "controlChanges": {
        "0": [
          {
            "number": 0,
            "ticks": 0,
            "time": 0,
            "value": 0
          }
        ],
        "7": [
          {
            "number": 7,
            "ticks": 0,
            "time": 0,
            "value": 0.6929133858267716
          }
        ],
        "10": [
          {
            "number": 10,
            "ticks": 1,
            "time": 0.004098358333333333,
            "value": 0.11811023622047244
          }
        ],
        "11": [
          {
            "number": 11,
            "ticks": 1,
            "time": 0.004098358333333333,
            "value": 1
          }
        ],
        "32": [
          {
            "number": 32,
            "ticks": 0,
            "time": 0,
            "value": 0
          }
        ],
        "91": [
          {
            "number": 91,
            "ticks": 1,
            "time": 0.004098358333333333,
            "value": 0.47244094488188976
          }
        ],
        "93": [
          {
            "number": 93,
            "ticks": 1,
            "time": 0.004098358333333333,
            "value": 0.18110236220472442
          }
        ],
        "121": [
          {
            "number": 121,
            "ticks": 0,
            "time": 0,
            "value": 0
          }
        ]
      },
      "pitchBends": [],
      "instrument": {
        "family": "ensemble",
        "number": 48,
        "name": "string ensemble 1"
      },
      "name": "",
      "notes": [
        {
          "duration": 4.889341491666666,
          "durationTicks": 1193,
          "midi": 33,
          "name": "A1",
          "ticks": 480,
          "time": 1.967212,
          "velocity": 0.7086614173228346
        },
        {
          "duration": 4.889341491666666,
          "durationTicks": 1193,
          "midi": 45,
          "name": "A2",
          "ticks": 480,
          "time": 1.967212,
          "velocity": 0.7244094488188977
        },
        {
          "duration": 4.860652983333333,
          "durationTicks": 1186,
          "midi": 52,
          "name": "E3",
          "ticks": 480,
          "time": 1.967212,
          "velocity": 0.7559055118110236
        },
        {
          "duration": 4.8770464166666665,
          "durationTicks": 1190,
          "midi": 57,
          "name": "A3",
          "ticks": 480,
          "time": 1.967212,
          "velocity": 0.6692913385826772
        },
        {
          "duration": 4.893439849999999,
          "durationTicks": 1194,
          "midi": 61,
          "name": "C#4",
          "ticks": 480,
          "time": 1.967212,
          "velocity": 0.7007874015748031
        },
        {
          "duration": 3.5901619,
          "durationTicks": 876,
          "midi": 32,
          "name": "G#1",
          "ticks": 1920,
          "time": 7.868848,
          "velocity": 0.7086614173228346
        },
        {
          "duration": 3.602456974999999,
          "durationTicks": 879,
          "midi": 44,
          "name": "G#2",
          "ticks": 1920,
          "time": 7.868848,
          "velocity": 0.7795275590551181
        },
        {
          "duration": 3.577866824999999,
          "durationTicks": 873,
          "midi": 51,
          "name": "D#3",
          "ticks": 1920,
          "time": 7.868848,
          "velocity": 0.7637795275590551
        },
        {
          "duration": 3.5696701083333338,
          "durationTicks": 871,
          "midi": 56,
          "name": "G#3",
          "ticks": 1920,
          "time": 7.868848,
          "velocity": 0.7244094488188977
        },
        {
          "duration": 3.5942602583333336,
          "durationTicks": 877,
          "midi": 63,
          "name": "D#4",
          "ticks": 1920,
          "time": 7.868848,
          "velocity": 0.7637795275590551
        }
      ],
      "endOfTrackTicks": 2799
    },
    {
      "channel": 4,
      "controlChanges": {
        "0": [
          {
            "number": 0,
            "ticks": 0,
            "time": 0,
            "value": 0
          }
        ],
        "7": [
          {
            "number": 7,
            "ticks": 0,
            "time": 0,
            "value": 0.9448818897637795
          }
        ],
        "10": [
          {
            "number": 10,
            "ticks": 1,
            "time": 0.004098358333333333,
            "value": 0.5669291338582677
          }
        ],
        "11": [
          {
            "number": 11,
            "ticks": 1,
            "time": 0.004098358333333333,
            "value": 1
          }
        ],
        "32": [
          {
            "number": 32,
            "ticks": 0,
            "time": 0,
            "value": 0
          }
        ],
        "91": [
          {
            "number": 91,
            "ticks": 1,
            "time": 0.004098358333333333,
            "value": 0.6299212598425197
          }
        ],
        "93": [
          {
            "number": 93,
            "ticks": 1,
            "time": 0.004098358333333333,
            "value": 1
          }
        ],
        "121": [
          {
            "number": 121,
            "ticks": 0,
            "time": 0,
            "value": 0
          }
        ]
      },
      "pitchBends": [],
      "instrument": {
        "family": "sound effects",
        "number": 121,
        "name": "breath noise"
      },
      "name": "",
      "notes": [
        {
          "duration": 0.10655731666666668,
          "durationTicks": 26,
          "midi": 64,
          "name": "E4",
          "ticks": 2880,
          "time": 11.803272,
          "velocity": 0.8110236220472441
        },
        {
          "duration": 0.1147540333333339,
          "durationTicks": 28,
          "midi": 67,
          "name": "G4",
          "ticks": 2880,
          "time": 11.803272,
          "velocity": 0.7952755905511811
        },
        {
          "duration": 0.045081941666666125,
          "durationTicks": 11,
          "midi": 64,
          "name": "E4",
          "ticks": 3060,
          "time": 12.5409765,
          "velocity": 0.6771653543307087
        },
        {
          "duration": 0.04918030000000151,
          "durationTicks": 12,
          "midi": 67,
          "name": "G4",
          "ticks": 3060,
          "time": 12.5409765,
          "velocity": 0.6692913385826772
        },
        {
          "duration": 0.10655731666666668,
          "durationTicks": 26,
          "midi": 64,
          "name": "E4",
          "ticks": 3120,
          "time": 12.786878,
          "velocity": 0.7559055118110236
        },
        {
          "duration": 0.10245895833333307,
          "durationTicks": 25,
          "midi": 67,
          "name": "G4",
          "ticks": 3120,
          "time": 12.786878,
          "velocity": 0.6220472440944882
        },
        {
          "duration": 0.10655731666666668,
          "durationTicks": 26,
          "midi": 64,
          "name": "E4",
          "ticks": 3300,
          "time": 13.5245825,
          "velocity": 0.8818897637795275
        },
        {
          "duration": 0.08606552500000042,
          "durationTicks": 21,
          "midi": 67,
          "name": "G4",
          "ticks": 3300,
          "time": 13.5245825,
          "velocity": 0.7716535433070866
        },
        {
          "duration": 0.1516392583333328,
          "durationTicks": 37,
          "midi": 64,
          "name": "E4",
          "ticks": 3420,
          "time": 14.0163855,
          "velocity": 0.8818897637795275
        },
        {
          "duration": 0.09426224166666586,
          "durationTicks": 23,
          "midi": 67,
          "name": "G4",
          "ticks": 3420,
          "time": 14.0163855,
          "velocity": 0.8110236220472441
        },
        {
          "duration": 0.045081941666666125,
          "durationTicks": 11,
          "midi": 64,
          "name": "E4",
          "ticks": 3540,
          "time": 14.5081885,
          "velocity": 0.6535433070866141
        },
        {
          "duration": 0.045081941666666125,
          "durationTicks": 11,
          "midi": 67,
          "name": "G4",
          "ticks": 3540,
          "time": 14.5081885,
          "velocity": 0.6929133858267716
        },
        {
          "duration": 0.1188523916666675,
          "durationTicks": 29,
          "midi": 64,
          "name": "E4",
          "ticks": 3600,
          "time": 14.75409,
          "velocity": 0.7559055118110236
        },
        {
          "duration": 0.07786880833333498,
          "durationTicks": 19,
          "midi": 67,
          "name": "G4",
          "ticks": 3600,
          "time": 14.75409,
          "velocity": 0.6141732283464567
        },
        {
          "duration": 0.03278686666666708,
          "durationTicks": 8,
          "midi": 64,
          "name": "E4",
          "ticks": 3780,
          "time": 15.4917945,
          "velocity": 0.968503937007874
        },
        {
          "duration": 0.03278686666666708,
          "durationTicks": 8,
          "midi": 67,
          "name": "G4",
          "ticks": 3780,
          "time": 15.4917945,
          "velocity": 0.8976377952755905
        },
        {
          "duration": 0.10655731666666846,
          "durationTicks": 26,
          "midi": 64,
          "name": "E4",
          "ticks": 3840,
          "time": 15.737696,
          "velocity": 0.8110236220472441
        },
        {
          "duration": 0.1147540333333339,
          "durationTicks": 28,
          "midi": 67,
          "name": "G4",
          "ticks": 3840,
          "time": 15.737696,
          "velocity": 0.7952755905511811
        },
        {
          "duration": 0.04508194166666968,
          "durationTicks": 11,
          "midi": 64,
          "name": "E4",
          "ticks": 4020,
          "time": 16.4754005,
          "velocity": 0.6771653543307087
        },
        {
          "duration": 0.04918029999999973,
          "durationTicks": 12,
          "midi": 67,
          "name": "G4",
          "ticks": 4020,
          "time": 16.4754005,
          "velocity": 0.6692913385826772
        },
        {
          "duration": 0.10655731666666668,
          "durationTicks": 26,
          "midi": 64,
          "name": "E4",
          "ticks": 4080,
          "time": 16.721302,
          "velocity": 0.7559055118110236
        },
        {
          "duration": 0.10245895833333307,
          "durationTicks": 25,
          "midi": 67,
          "name": "G4",
          "ticks": 4080,
          "time": 16.721302,
          "velocity": 0.6220472440944882
        },
        {
          "duration": 0.10655731666666668,
          "durationTicks": 26,
          "midi": 64,
          "name": "E4",
          "ticks": 4260,
          "time": 17.4590065,
          "velocity": 0.8818897637795275
        },
        {
          "duration": 0.08606552499999864,
          "durationTicks": 21,
          "midi": 67,
          "name": "G4",
          "ticks": 4260,
          "time": 17.4590065,
          "velocity": 0.7716535433070866
        },
        {
          "duration": 0.1516392583333328,
          "durationTicks": 37,
          "midi": 64,
          "name": "E4",
          "ticks": 4380,
          "time": 17.9508095,
          "velocity": 0.8818897637795275
        },
        {
          "duration": 0.09426224166666941,
          "durationTicks": 23,
          "midi": 67,
          "name": "G4",
          "ticks": 4380,
          "time": 17.9508095,
          "velocity": 0.8110236220472441
        },
        {
          "duration": 0.04508194166666968,
          "durationTicks": 11,
          "midi": 64,
          "name": "E4",
          "ticks": 4500,
          "time": 18.4426125,
          "velocity": 0.6535433070866141
        },
        {
          "duration": 0.04508194166666968,
          "durationTicks": 11,
          "midi": 67,
          "name": "G4",
          "ticks": 4500,
          "time": 18.4426125,
          "velocity": 0.6929133858267716
        },
        {
          "duration": 0.1188523916666675,
          "durationTicks": 29,
          "midi": 64,
          "name": "E4",
          "ticks": 4560,
          "time": 18.688513999999998,
          "velocity": 0.7559055118110236
        },
        {
          "duration": 0.07786880833333498,
          "durationTicks": 19,
          "midi": 67,
          "name": "G4",
          "ticks": 4560,
          "time": 18.688513999999998,
          "velocity": 0.6141732283464567
        },
        {
          "duration": 0.032786866666665304,
          "durationTicks": 8,
          "midi": 64,
          "name": "E4",
          "ticks": 4740,
          "time": 19.4262185,
          "velocity": 0.968503937007874
        },
        {
          "duration": 0.032786866666665304,
          "durationTicks": 8,
          "midi": 67,
          "name": "G4",
          "ticks": 4740,
          "time": 19.4262185,
          "velocity": 0.8976377952755905
        },
        {
          "duration": 0.10655731666666668,
          "durationTicks": 26,
          "midi": 64,
          "name": "E4",
          "ticks": 4800,
          "time": 19.67212,
          "velocity": 0.8110236220472441
        },
        {
          "duration": 0.1147540333333339,
          "durationTicks": 28,
          "midi": 67,
          "name": "G4",
          "ticks": 4800,
          "time": 19.67212,
          "velocity": 0.7952755905511811
        },
        {
          "duration": 0.04508194166666968,
          "durationTicks": 11,
          "midi": 64,
          "name": "E4",
          "ticks": 4980,
          "time": 20.4098245,
          "velocity": 0.6771653543307087
        },
        {
          "duration": 0.04918029999999973,
          "durationTicks": 12,
          "midi": 67,
          "name": "G4",
          "ticks": 4980,
          "time": 20.4098245,
          "velocity": 0.6692913385826772
        },
        {
          "duration": 0.10655731666666668,
          "durationTicks": 26,
          "midi": 64,
          "name": "E4",
          "ticks": 5040,
          "time": 20.655726,
          "velocity": 0.7559055118110236
        },
        {
          "duration": 0.10245895833333307,
          "durationTicks": 25,
          "midi": 67,
          "name": "G4",
          "ticks": 5040,
          "time": 20.655726,
          "velocity": 0.6220472440944882
        },
        {
          "duration": 0.10655731666666668,
          "durationTicks": 26,
          "midi": 64,
          "name": "E4",
          "ticks": 5220,
          "time": 21.3934305,
          "velocity": 0.8818897637795275
        },
        {
          "duration": 0.08606552499999864,
          "durationTicks": 21,
          "midi": 67,
          "name": "G4",
          "ticks": 5220,
          "time": 21.3934305,
          "velocity": 0.7716535433070866
        },
        {
          "duration": 0.1516392583333328,
          "durationTicks": 37,
          "midi": 64,
          "name": "E4",
          "ticks": 5340,
          "time": 21.8852335,
          "velocity": 0.8818897637795275
        },
        {
          "duration": 0.09426224166666941,
          "durationTicks": 23,
          "midi": 67,
          "name": "G4",
          "ticks": 5340,
          "time": 21.8852335,
          "velocity": 0.8110236220472441
        },
        {
          "duration": 0.04508194166666968,
          "durationTicks": 11,
          "midi": 64,
          "name": "E4",
          "ticks": 5460,
          "time": 22.3770365,
          "velocity": 0.6535433070866141
        },
        {
          "duration": 0.04508194166666968,
          "durationTicks": 11,
          "midi": 67,
          "name": "G4",
          "ticks": 5460,
          "time": 22.3770365,
          "velocity": 0.6929133858267716
        },
        {
          "duration": 0.1188523916666675,
          "durationTicks": 29,
          "midi": 64,
          "name": "E4",
          "ticks": 5520,
          "time": 22.622937999999998,
          "velocity": 0.7559055118110236
        },
        {
          "duration": 0.07786880833333498,
          "durationTicks": 19,
          "midi": 67,
          "name": "G4",
          "ticks": 5520,
          "time": 22.622937999999998,
          "velocity": 0.6141732283464567
        },
        {
          "duration": 0.032786866666665304,
          "durationTicks": 8,
          "midi": 64,
          "name": "E4",
          "ticks": 5700,
          "time": 23.3606425,
          "velocity": 0.968503937007874
        },
        {
          "duration": 0.032786866666665304,
          "durationTicks": 8,
          "midi": 67,
          "name": "G4",
          "ticks": 5700,
          "time": 23.3606425,
          "velocity": 0.8976377952755905
        },
        {
          "duration": 0.10655731666666668,
          "durationTicks": 26,
          "midi": 64,
          "name": "E4",
          "ticks": 5760,
          "time": 23.606544,
          "velocity": 0.8110236220472441
        },
        {
          "duration": 0.1147540333333339,
          "durationTicks": 28,
          "midi": 67,
          "name": "G4",
          "ticks": 5760,
          "time": 23.606544,
          "velocity": 0.7952755905511811
        },
        {
          "duration": 0.04508194166666968,
          "durationTicks": 11,
          "midi": 64,
          "name": "E4",
          "ticks": 5940,
          "time": 24.3442485,
          "velocity": 0.6771653543307087
        },
        {
          "duration": 0.04918029999999973,
          "durationTicks": 12,
          "midi": 67,
          "name": "G4",
          "ticks": 5940,
          "time": 24.3442485,
          "velocity": 0.6692913385826772
        },
        {
          "duration": 0.10655731666666668,
          "durationTicks": 26,
          "midi": 64,
          "name": "E4",
          "ticks": 6000,
          "time": 24.59015,
          "velocity": 0.7559055118110236
        },
        {
          "duration": 0.10245895833333307,
          "durationTicks": 25,
          "midi": 67,
          "name": "G4",
          "ticks": 6000,
          "time": 24.59015,
          "velocity": 0.6220472440944882
        },
        {
          "duration": 0.10655731666666668,
          "durationTicks": 26,
          "midi": 64,
          "name": "E4",
          "ticks": 6180,
          "time": 25.3278545,
          "velocity": 0.8818897637795275
        },
        {
          "duration": 0.08606552499999864,
          "durationTicks": 21,
          "midi": 67,
          "name": "G4",
          "ticks": 6180,
          "time": 25.3278545,
          "velocity": 0.7716535433070866
        },
        {
          "duration": 0.1516392583333328,
          "durationTicks": 37,
          "midi": 64,
          "name": "E4",
          "ticks": 6300,
          "time": 25.819657499999998,
          "velocity": 0.8818897637795275
        },
        {
          "duration": 0.09426224166666941,
          "durationTicks": 23,
          "midi": 67,
          "name": "G4",
          "ticks": 6300,
          "time": 25.819657499999998,
          "velocity": 0.8110236220472441
        },
        {
          "duration": 0.04508194166666968,
          "durationTicks": 11,
          "midi": 64,
          "name": "E4",
          "ticks": 6420,
          "time": 26.3114605,
          "velocity": 0.6535433070866141
        },
        {
          "duration": 0.04508194166666968,
          "durationTicks": 11,
          "midi": 67,
          "name": "G4",
          "ticks": 6420,
          "time": 26.3114605,
          "velocity": 0.6929133858267716
        },
        {
          "duration": 0.1188523916666675,
          "durationTicks": 29,
          "midi": 64,
          "name": "E4",
          "ticks": 6480,
          "time": 26.557361999999998,
          "velocity": 0.7559055118110236
        },
        {
          "duration": 0.07786880833333498,
          "durationTicks": 19,
          "midi": 67,
          "name": "G4",
          "ticks": 6480,
          "time": 26.557361999999998,
          "velocity": 0.6141732283464567
        },
        {
          "duration": 0.032786866666665304,
          "durationTicks": 8,
          "midi": 64,
          "name": "E4",
          "ticks": 6660,
          "time": 27.2950665,
          "velocity": 0.968503937007874
        },
        {
          "duration": 0.032786866666665304,
          "durationTicks": 8,
          "midi": 67,
          "name": "G4",
          "ticks": 6660,
          "time": 27.2950665,
          "velocity": 0.8976377952755905
        },
        {
          "duration": 0.10655731666666668,
          "durationTicks": 26,
          "midi": 64,
          "name": "E4",
          "ticks": 6720,
          "time": 27.540968,
          "velocity": 0.8110236220472441
        },
        {
          "duration": 0.1147540333333339,
          "durationTicks": 28,
          "midi": 67,
          "name": "G4",
          "ticks": 6720,
          "time": 27.540968,
          "velocity": 0.7952755905511811
        },
        {
          "duration": 0.04508194166666968,
          "durationTicks": 11,
          "midi": 64,
          "name": "E4",
          "ticks": 6900,
          "time": 28.2786725,
          "velocity": 0.6771653543307087
        },
        {
          "duration": 0.04918029999999973,
          "durationTicks": 12,
          "midi": 67,
          "name": "G4",
          "ticks": 6900,
          "time": 28.2786725,
          "velocity": 0.6692913385826772
        },
        {
          "duration": 0.10655731666666668,
          "durationTicks": 26,
          "midi": 64,
          "name": "E4",
          "ticks": 6960,
          "time": 28.524574,
          "velocity": 0.7559055118110236
        },
        {
          "duration": 0.10245895833333307,
          "durationTicks": 25,
          "midi": 67,
          "name": "G4",
          "ticks": 6960,
          "time": 28.524574,
          "velocity": 0.6220472440944882
        },
        {
          "duration": 0.10655731666666668,
          "durationTicks": 26,
          "midi": 64,
          "name": "E4",
          "ticks": 7140,
          "time": 29.2622785,
          "velocity": 0.8818897637795275
        },
        {
          "duration": 0.08606552499999864,
          "durationTicks": 21,
          "midi": 67,
          "name": "G4",
          "ticks": 7140,
          "time": 29.2622785,
          "velocity": 0.7716535433070866
        },
        {
          "duration": 0.1516392583333328,
          "durationTicks": 37,
          "midi": 64,
          "name": "E4",
          "ticks": 7260,
          "time": 29.754081499999998,
          "velocity": 0.8818897637795275
        },
        {
          "duration": 0.09426224166666941,
          "durationTicks": 23,
          "midi": 67,
          "name": "G4",
          "ticks": 7260,
          "time": 29.754081499999998,
          "velocity": 0.8110236220472441
        },
        {
          "duration": 0.04508194166666968,
          "durationTicks": 11,
          "midi": 64,
          "name": "E4",
          "ticks": 7380,
          "time": 30.2458845,
          "velocity": 0.6535433070866141
        },
        {
          "duration": 0.04508194166666968,
          "durationTicks": 11,
          "midi": 67,
          "name": "G4",
          "ticks": 7380,
          "time": 30.2458845,
          "velocity": 0.6929133858267716
        },
        {
          "duration": 0.1188523916666675,
          "durationTicks": 29,
          "midi": 64,
          "name": "E4",
          "ticks": 7440,
          "time": 30.491785999999998,
          "velocity": 0.7559055118110236
        },
        {
          "duration": 0.07786880833333498,
          "durationTicks": 19,
          "midi": 67,
          "name": "G4",
          "ticks": 7440,
          "time": 30.491785999999998,
          "velocity": 0.6141732283464567
        },
        {
          "duration": 0.032786866666665304,
          "durationTicks": 8,
          "midi": 64,
          "name": "E4",
          "ticks": 7620,
          "time": 31.2294905,
          "velocity": 0.968503937007874
        },
        {
          "duration": 0.032786866666665304,
          "durationTicks": 8,
          "midi": 67,
          "name": "G4",
          "ticks": 7620,
          "time": 31.2294905,
          "velocity": 0.8976377952755905
        },
        {
          "duration": 0.10655731666666668,
          "durationTicks": 26,
          "midi": 64,
          "name": "E4",
          "ticks": 7680,
          "time": 31.475392,
          "velocity": 0.8110236220472441
        },
        {
          "duration": 0.1147540333333339,
          "durationTicks": 28,
          "midi": 67,
          "name": "G4",
          "ticks": 7680,
          "time": 31.475392,
          "velocity": 0.7952755905511811
        },
        {
          "duration": 0.045081941666666125,
          "durationTicks": 11,
          "midi": 64,
          "name": "E4",
          "ticks": 7860,
          "time": 32.2130965,
          "velocity": 0.6771653543307087
        },
        {
          "duration": 0.04918029999999618,
          "durationTicks": 12,
          "midi": 67,
          "name": "G4",
          "ticks": 7860,
          "time": 32.2130965,
          "velocity": 0.6692913385826772
        },
        {
          "duration": 0.10655731666666668,
          "durationTicks": 26,
          "midi": 64,
          "name": "E4",
          "ticks": 7920,
          "time": 32.458998,
          "velocity": 0.7559055118110236
        },
        {
          "duration": 0.10245895833332952,
          "durationTicks": 25,
          "midi": 67,
          "name": "G4",
          "ticks": 7920,
          "time": 32.458998,
          "velocity": 0.6220472440944882
        },
        {
          "duration": 0.10655731666666668,
          "durationTicks": 26,
          "midi": 64,
          "name": "E4",
          "ticks": 8100,
          "time": 33.1967025,
          "velocity": 0.8818897637795275
        },
        {
          "duration": 0.08606552499999509,
          "durationTicks": 21,
          "midi": 67,
          "name": "G4",
          "ticks": 8100,
          "time": 33.1967025,
          "velocity": 0.7716535433070866
        },
        {
          "duration": 0.1516392583333399,
          "durationTicks": 37,
          "midi": 64,
          "name": "E4",
          "ticks": 8220,
          "time": 33.6885055,
          "velocity": 0.8818897637795275
        },
        {
          "duration": 0.09426224166666941,
          "durationTicks": 23,
          "midi": 67,
          "name": "G4",
          "ticks": 8220,
          "time": 33.6885055,
          "velocity": 0.8110236220472441
        },
        {
          "duration": 0.045081941666666125,
          "durationTicks": 11,
          "midi": 64,
          "name": "E4",
          "ticks": 8340,
          "time": 34.1803085,
          "velocity": 0.6535433070866141
        },
        {
          "duration": 0.045081941666666125,
          "durationTicks": 11,
          "midi": 67,
          "name": "G4",
          "ticks": 8340,
          "time": 34.1803085,
          "velocity": 0.6929133858267716
        },
        {
          "duration": 0.11885239166666395,
          "durationTicks": 29,
          "midi": 64,
          "name": "E4",
          "ticks": 8400,
          "time": 34.42621,
          "velocity": 0.7559055118110236
        },
        {
          "duration": 0.07786880833333498,
          "durationTicks": 19,
          "midi": 67,
          "name": "G4",
          "ticks": 8400,
          "time": 34.42621,
          "velocity": 0.6141732283464567
        },
        {
          "duration": 0.03278686666666886,
          "durationTicks": 8,
          "midi": 64,
          "name": "E4",
          "ticks": 8580,
          "time": 35.1639145,
          "velocity": 0.968503937007874
        },
        {
          "duration": 0.03278686666666886,
          "durationTicks": 8,
          "midi": 67,
          "name": "G4",
          "ticks": 8580,
          "time": 35.1639145,
          "velocity": 0.8976377952755905
        },
        {
          "duration": 0.10655731666666668,
          "durationTicks": 26,
          "midi": 64,
          "name": "E4",
          "ticks": 8640,
          "time": 35.409816,
          "velocity": 0.8110236220472441
        },
        {
          "duration": 0.1147540333333339,
          "durationTicks": 28,
          "midi": 67,
          "name": "G4",
          "ticks": 8640,
          "time": 35.409816,
          "velocity": 0.7952755905511811
        },
        {
          "duration": 0.045081941666666125,
          "durationTicks": 11,
          "midi": 64,
          "name": "E4",
          "ticks": 8820,
          "time": 36.1475205,
          "velocity": 0.6771653543307087
        },
        {
          "duration": 0.04918029999999618,
          "durationTicks": 12,
          "midi": 67,
          "name": "G4",
          "ticks": 8820,
          "time": 36.1475205,
          "velocity": 0.6692913385826772
        },
        {
          "duration": 0.10655731666666668,
          "durationTicks": 26,
          "midi": 64,
          "name": "E4",
          "ticks": 8880,
          "time": 36.393422,
          "velocity": 0.7559055118110236
        },
        {
          "duration": 0.10245895833332952,
          "durationTicks": 25,
          "midi": 67,
          "name": "G4",
          "ticks": 8880,
          "time": 36.393422,
          "velocity": 0.6220472440944882
        },
        {
          "duration": 0.10655731666666668,
          "durationTicks": 26,
          "midi": 64,
          "name": "E4",
          "ticks": 9060,
          "time": 37.1311265,
          "velocity": 0.8818897637795275
        },
        {
          "duration": 0.08606552499999509,
          "durationTicks": 21,
          "midi": 67,
          "name": "G4",
          "ticks": 9060,
          "time": 37.1311265,
          "velocity": 0.7716535433070866
        },
        {
          "duration": 0.1516392583333399,
          "durationTicks": 37,
          "midi": 64,
          "name": "E4",
          "ticks": 9180,
          "time": 37.6229295,
          "velocity": 0.8818897637795275
        },
        {
          "duration": 0.09426224166666941,
          "durationTicks": 23,
          "midi": 67,
          "name": "G4",
          "ticks": 9180,
          "time": 37.6229295,
          "velocity": 0.8110236220472441
        },
        {
          "duration": 0.045081941666666125,
          "durationTicks": 11,
          "midi": 64,
          "name": "E4",
          "ticks": 9300,
          "time": 38.1147325,
          "velocity": 0.6535433070866141
        },
        {
          "duration": 0.045081941666666125,
          "durationTicks": 11,
          "midi": 67,
          "name": "G4",
          "ticks": 9300,
          "time": 38.1147325,
          "velocity": 0.6929133858267716
        },
        {
          "duration": 0.11885239166666395,
          "durationTicks": 29,
          "midi": 64,
          "name": "E4",
          "ticks": 9360,
          "time": 38.360634,
          "velocity": 0.7559055118110236
        },
        {
          "duration": 0.07786880833333498,
          "durationTicks": 19,
          "midi": 67,
          "name": "G4",
          "ticks": 9360,
          "time": 38.360634,
          "velocity": 0.6141732283464567
        },
        {
          "duration": 0.03278686666666886,
          "durationTicks": 8,
          "midi": 64,
          "name": "E4",
          "ticks": 9540,
          "time": 39.0983385,
          "velocity": 0.968503937007874
        },
        {
          "duration": 0.03278686666666886,
          "durationTicks": 8,
          "midi": 67,
          "name": "G4",
          "ticks": 9540,
          "time": 39.0983385,
          "velocity": 0.8976377952755905
        },
        {
          "duration": 0.10655731666666668,
          "durationTicks": 26,
          "midi": 64,
          "name": "E4",
          "ticks": 9600,
          "time": 39.34424,
          "velocity": 0.8110236220472441
        },
        {
          "duration": 0.1147540333333339,
          "durationTicks": 28,
          "midi": 67,
          "name": "G4",
          "ticks": 9600,
          "time": 39.34424,
          "velocity": 0.7952755905511811
        },
        {
          "duration": 0.045081941666666125,
          "durationTicks": 11,
          "midi": 64,
          "name": "E4",
          "ticks": 9780,
          "time": 40.0819445,
          "velocity": 0.6771653543307087
        },
        {
          "duration": 0.04918029999999618,
          "durationTicks": 12,
          "midi": 67,
          "name": "G4",
          "ticks": 9780,
          "time": 40.0819445,
          "velocity": 0.6692913385826772
        },
        {
          "duration": 0.10655731666666668,
          "durationTicks": 26,
          "midi": 64,
          "name": "E4",
          "ticks": 9840,
          "time": 40.327846,
          "velocity": 0.7559055118110236
        },
        {
          "duration": 0.10245895833332952,
          "durationTicks": 25,
          "midi": 67,
          "name": "G4",
          "ticks": 9840,
          "time": 40.327846,
          "velocity": 0.6220472440944882
        },
        {
          "duration": 0.10655731666666668,
          "durationTicks": 26,
          "midi": 64,
          "name": "E4",
          "ticks": 10020,
          "time": 41.0655505,
          "velocity": 0.8818897637795275
        },
        {
          "duration": 0.08606552499999509,
          "durationTicks": 21,
          "midi": 67,
          "name": "G4",
          "ticks": 10020,
          "time": 41.0655505,
          "velocity": 0.7716535433070866
        },
        {
          "duration": 0.1516392583333399,
          "durationTicks": 37,
          "midi": 64,
          "name": "E4",
          "ticks": 10140,
          "time": 41.5573535,
          "velocity": 0.8818897637795275
        },
        {
          "duration": 0.09426224166666941,
          "durationTicks": 23,
          "midi": 67,
          "name": "G4",
          "ticks": 10140,
          "time": 41.5573535,
          "velocity": 0.8110236220472441
        },
        {
          "duration": 0.045081941666666125,
          "durationTicks": 11,
          "midi": 64,
          "name": "E4",
          "ticks": 10260,
          "time": 42.0491565,
          "velocity": 0.6535433070866141
        },
        {
          "duration": 0.045081941666666125,
          "durationTicks": 11,
          "midi": 67,
          "name": "G4",
          "ticks": 10260,
          "time": 42.0491565,
          "velocity": 0.6929133858267716
        },
        {
          "duration": 0.11885239166666395,
          "durationTicks": 29,
          "midi": 64,
          "name": "E4",
          "ticks": 10320,
          "time": 42.295058,
          "velocity": 0.7559055118110236
        },
        {
          "duration": 0.07786880833333498,
          "durationTicks": 19,
          "midi": 67,
          "name": "G4",
          "ticks": 10320,
          "time": 42.295058,
          "velocity": 0.6141732283464567
        },
        {
          "duration": 0.03278686666666886,
          "durationTicks": 8,
          "midi": 64,
          "name": "E4",
          "ticks": 10500,
          "time": 43.0327625,
          "velocity": 0.968503937007874
        },
        {
          "duration": 0.03278686666666886,
          "durationTicks": 8,
          "midi": 67,
          "name": "G4",
          "ticks": 10500,
          "time": 43.0327625,
          "velocity": 0.8976377952755905
        },
        {
          "duration": 0.10655731666666668,
          "durationTicks": 26,
          "midi": 64,
          "name": "E4",
          "ticks": 10560,
          "time": 43.278664,
          "velocity": 0.8110236220472441
        },
        {
          "duration": 0.1147540333333339,
          "durationTicks": 28,
          "midi": 67,
          "name": "G4",
          "ticks": 10560,
          "time": 43.278664,
          "velocity": 0.7952755905511811
        },
        {
          "duration": 0.045081941666666125,
          "durationTicks": 11,
          "midi": 64,
          "name": "E4",
          "ticks": 10740,
          "time": 44.0163685,
          "velocity": 0.6771653543307087
        },
        {
          "duration": 0.04918029999999618,
          "durationTicks": 12,
          "midi": 67,
          "name": "G4",
          "ticks": 10740,
          "time": 44.0163685,
          "velocity": 0.6692913385826772
        },
        {
          "duration": 0.10655731666666668,
          "durationTicks": 26,
          "midi": 64,
          "name": "E4",
          "ticks": 10800,
          "time": 44.26227,
          "velocity": 0.7559055118110236
        },
        {
          "duration": 0.10245895833332952,
          "durationTicks": 25,
          "midi": 67,
          "name": "G4",
          "ticks": 10800,
          "time": 44.26227,
          "velocity": 0.6220472440944882
        },
        {
          "duration": 0.10655731666666668,
          "durationTicks": 26,
          "midi": 64,
          "name": "E4",
          "ticks": 10980,
          "time": 44.9999745,
          "velocity": 0.8818897637795275
        },
        {
          "duration": 0.08606552499999509,
          "durationTicks": 21,
          "midi": 67,
          "name": "G4",
          "ticks": 10980,
          "time": 44.9999745,
          "velocity": 0.7716535433070866
        },
        {
          "duration": 0.1516392583333399,
          "durationTicks": 37,
          "midi": 64,
          "name": "E4",
          "ticks": 11100,
          "time": 45.4917775,
          "velocity": 0.8818897637795275
        },
        {
          "duration": 0.09426224166666941,
          "durationTicks": 23,
          "midi": 67,
          "name": "G4",
          "ticks": 11100,
          "time": 45.4917775,
          "velocity": 0.8110236220472441
        },
        {
          "duration": 0.045081941666666125,
          "durationTicks": 11,
          "midi": 64,
          "name": "E4",
          "ticks": 11220,
          "time": 45.9835805,
          "velocity": 0.6535433070866141
        },
        {
          "duration": 0.045081941666666125,
          "durationTicks": 11,
          "midi": 67,
          "name": "G4",
          "ticks": 11220,
          "time": 45.9835805,
          "velocity": 0.6929133858267716
        },
        {
          "duration": 0.11885239166666395,
          "durationTicks": 29,
          "midi": 64,
          "name": "E4",
          "ticks": 11280,
          "time": 46.229482,
          "velocity": 0.7559055118110236
        },
        {
          "duration": 0.07786880833333498,
          "durationTicks": 19,
          "midi": 67,
          "name": "G4",
          "ticks": 11280,
          "time": 46.229482,
          "velocity": 0.6141732283464567
        },
        {
          "duration": 0.03278686666666886,
          "durationTicks": 8,
          "midi": 64,
          "name": "E4",
          "ticks": 11460,
          "time": 46.9671865,
          "velocity": 0.968503937007874
        },
        {
          "duration": 0.03278686666666886,
          "durationTicks": 8,
          "midi": 67,
          "name": "G4",
          "ticks": 11460,
          "time": 46.9671865,
          "velocity": 0.8976377952755905
        },
        {
          "duration": 0.10655731666666668,
          "durationTicks": 26,
          "midi": 64,
          "name": "E4",
          "ticks": 11520,
          "time": 47.213088,
          "velocity": 0.8110236220472441
        },
        {
          "duration": 0.1147540333333339,
          "durationTicks": 28,
          "midi": 67,
          "name": "G4",
          "ticks": 11520,
          "time": 47.213088,
          "velocity": 0.7952755905511811
        },
        {
          "duration": 0.045081941666666125,
          "durationTicks": 11,
          "midi": 64,
          "name": "E4",
          "ticks": 11700,
          "time": 47.9507925,
          "velocity": 0.6771653543307087
        },
        {
          "duration": 0.04918029999999618,
          "durationTicks": 12,
          "midi": 67,
          "name": "G4",
          "ticks": 11700,
          "time": 47.9507925,
          "velocity": 0.6692913385826772
        },
        {
          "duration": 0.10655731666666668,
          "durationTicks": 26,
          "midi": 64,
          "name": "E4",
          "ticks": 11760,
          "time": 48.196694,
          "velocity": 0.7559055118110236
        },
        {
          "duration": 0.10245895833332952,
          "durationTicks": 25,
          "midi": 67,
          "name": "G4",
          "ticks": 11760,
          "time": 48.196694,
          "velocity": 0.6220472440944882
        },
        {
          "duration": 0.10655731666666668,
          "durationTicks": 26,
          "midi": 64,
          "name": "E4",
          "ticks": 11940,
          "time": 48.9343985,
          "velocity": 0.8818897637795275
        },
        {
          "duration": 0.08606552499999509,
          "durationTicks": 21,
          "midi": 67,
          "name": "G4",
          "ticks": 11940,
          "time": 48.9343985,
          "velocity": 0.7716535433070866
        },
        {
          "duration": 0.1516392583333399,
          "durationTicks": 37,
          "midi": 64,
          "name": "E4",
          "ticks": 12060,
          "time": 49.4262015,
          "velocity": 0.8818897637795275
        },
        {
          "duration": 0.09426224166666941,
          "durationTicks": 23,
          "midi": 67,
          "name": "G4",
          "ticks": 12060,
          "time": 49.4262015,
          "velocity": 0.8110236220472441
        },
        {
          "duration": 0.045081941666666125,
          "durationTicks": 11,
          "midi": 64,
          "name": "E4",
          "ticks": 12180,
          "time": 49.9180045,
          "velocity": 0.6535433070866141
        },
        {
          "duration": 0.045081941666666125,
          "durationTicks": 11,
          "midi": 67,
          "name": "G4",
          "ticks": 12180,
          "time": 49.9180045,
          "velocity": 0.6929133858267716
        },
        {
          "duration": 0.11885239166666395,
          "durationTicks": 29,
          "midi": 64,
          "name": "E4",
          "ticks": 12240,
          "time": 50.163906,
          "velocity": 0.7559055118110236
        },
        {
          "duration": 0.07786880833333498,
          "durationTicks": 19,
          "midi": 67,
          "name": "G4",
          "ticks": 12240,
          "time": 50.163906,
          "velocity": 0.6141732283464567
        },
        {
          "duration": 0.03278686666666886,
          "durationTicks": 8,
          "midi": 64,
          "name": "E4",
          "ticks": 12420,
          "time": 50.9016105,
          "velocity": 0.968503937007874
        },
        {
          "duration": 0.03278686666666886,
          "durationTicks": 8,
          "midi": 67,
          "name": "G4",
          "ticks": 12420,
          "time": 50.9016105,
          "velocity": 0.8976377952755905
        },
        {
          "duration": 0.10655731666666668,
          "durationTicks": 26,
          "midi": 64,
          "name": "E4",
          "ticks": 12480,
          "time": 51.147512,
          "velocity": 0.8110236220472441
        },
        {
          "duration": 0.1147540333333339,
          "durationTicks": 28,
          "midi": 67,
          "name": "G4",
          "ticks": 12480,
          "time": 51.147512,
          "velocity": 0.7952755905511811
        },
        {
          "duration": 0.045081941666666125,
          "durationTicks": 11,
          "midi": 64,
          "name": "E4",
          "ticks": 12660,
          "time": 51.8852165,
          "velocity": 0.6771653543307087
        },
        {
          "duration": 0.04918029999999618,
          "durationTicks": 12,
          "midi": 67,
          "name": "G4",
          "ticks": 12660,
          "time": 51.8852165,
          "velocity": 0.6692913385826772
        },
        {
          "duration": 0.10655731666666668,
          "durationTicks": 26,
          "midi": 64,
          "name": "E4",
          "ticks": 12720,
          "time": 52.131118,
          "velocity": 0.7559055118110236
        },
        {
          "duration": 0.10245895833332952,
          "durationTicks": 25,
          "midi": 67,
          "name": "G4",
          "ticks": 12720,
          "time": 52.131118,
          "velocity": 0.6220472440944882
        },
        {
          "duration": 0.10655731666666668,
          "durationTicks": 26,
          "midi": 64,
          "name": "E4",
          "ticks": 12900,
          "time": 52.8688225,
          "velocity": 0.8818897637795275
        },
        {
          "duration": 0.08606552499999509,
          "durationTicks": 21,
          "midi": 67,
          "name": "G4",
          "ticks": 12900,
          "time": 52.8688225,
          "velocity": 0.7716535433070866
        },
        {
          "duration": 0.1516392583333399,
          "durationTicks": 37,
          "midi": 64,
          "name": "E4",
          "ticks": 13020,
          "time": 53.3606255,
          "velocity": 0.8818897637795275
        },
        {
          "duration": 0.09426224166666941,
          "durationTicks": 23,
          "midi": 67,
          "name": "G4",
          "ticks": 13020,
          "time": 53.3606255,
          "velocity": 0.8110236220472441
        },
        {
          "duration": 0.045081941666666125,
          "durationTicks": 11,
          "midi": 64,
          "name": "E4",
          "ticks": 13140,
          "time": 53.8524285,
          "velocity": 0.6535433070866141
        },
        {
          "duration": 0.045081941666666125,
          "durationTicks": 11,
          "midi": 67,
          "name": "G4",
          "ticks": 13140,
          "time": 53.8524285,
          "velocity": 0.6929133858267716
        },
        {
          "duration": 0.11885239166666395,
          "durationTicks": 29,
          "midi": 64,
          "name": "E4",
          "ticks": 13200,
          "time": 54.09833,
          "velocity": 0.7559055118110236
        },
        {
          "duration": 0.07786880833333498,
          "durationTicks": 19,
          "midi": 67,
          "name": "G4",
          "ticks": 13200,
          "time": 54.09833,
          "velocity": 0.6141732283464567
        },
        {
          "duration": 0.03278686666666886,
          "durationTicks": 8,
          "midi": 64,
          "name": "E4",
          "ticks": 13380,
          "time": 54.8360345,
          "velocity": 0.968503937007874
        },
        {
          "duration": 0.03278686666666886,
          "durationTicks": 8,
          "midi": 67,
          "name": "G4",
          "ticks": 13380,
          "time": 54.8360345,
          "velocity": 0.8976377952755905
        },
        {
          "duration": 0.10655731666666668,
          "durationTicks": 26,
          "midi": 64,
          "name": "E4",
          "ticks": 13440,
          "time": 55.081936,
          "velocity": 0.8110236220472441
        },
        {
          "duration": 0.1147540333333339,
          "durationTicks": 28,
          "midi": 67,
          "name": "G4",
          "ticks": 13440,
          "time": 55.081936,
          "velocity": 0.7952755905511811
        },
        {
          "duration": 0.045081941666666125,
          "durationTicks": 11,
          "midi": 64,
          "name": "E4",
          "ticks": 13620,
          "time": 55.8196405,
          "velocity": 0.6771653543307087
        },
        {
          "duration": 0.04918029999999618,
          "durationTicks": 12,
          "midi": 67,
          "name": "G4",
          "ticks": 13620,
          "time": 55.8196405,
          "velocity": 0.6692913385826772
        },
        {
          "duration": 0.10655731666666668,
          "durationTicks": 26,
          "midi": 64,
          "name": "E4",
          "ticks": 13680,
          "time": 56.065542,
          "velocity": 0.7559055118110236
        },
        {
          "duration": 0.10245895833332952,
          "durationTicks": 25,
          "midi": 67,
          "name": "G4",
          "ticks": 13680,
          "time": 56.065542,
          "velocity": 0.6220472440944882
        },
        {
          "duration": 0.10655731666666668,
          "durationTicks": 26,
          "midi": 64,
          "name": "E4",
          "ticks": 13860,
          "time": 56.8032465,
          "velocity": 0.8818897637795275
        },
        {
          "duration": 0.08606552499999509,
          "durationTicks": 21,
          "midi": 67,
          "name": "G4",
          "ticks": 13860,
          "time": 56.8032465,
          "velocity": 0.7716535433070866
        },
        {
          "duration": 0.1516392583333399,
          "durationTicks": 37,
          "midi": 64,
          "name": "E4",
          "ticks": 13980,
          "time": 57.2950495,
          "velocity": 0.8818897637795275
        },
        {
          "duration": 0.09426224166666941,
          "durationTicks": 23,
          "midi": 67,
          "name": "G4",
          "ticks": 13980,
          "time": 57.2950495,
          "velocity": 0.8110236220472441
        },
        {
          "duration": 0.045081941666666125,
          "durationTicks": 11,
          "midi": 64,
          "name": "E4",
          "ticks": 14100,
          "time": 57.7868525,
          "velocity": 0.6535433070866141
        },
        {
          "duration": 0.045081941666666125,
          "durationTicks": 11,
          "midi": 67,
          "name": "G4",
          "ticks": 14100,
          "time": 57.7868525,
          "velocity": 0.6929133858267716
        },
        {
          "duration": 0.11885239166666395,
          "durationTicks": 29,
          "midi": 64,
          "name": "E4",
          "ticks": 14160,
          "time": 58.032754,
          "velocity": 0.7559055118110236
        },
        {
          "duration": 0.07786880833333498,
          "durationTicks": 19,
          "midi": 67,
          "name": "G4",
          "ticks": 14160,
          "time": 58.032754,
          "velocity": 0.6141732283464567
        },
        {
          "duration": 0.03278686666666886,
          "durationTicks": 8,
          "midi": 64,
          "name": "E4",
          "ticks": 14340,
          "time": 58.7704585,
          "velocity": 0.968503937007874
        },
        {
          "duration": 0.03278686666666886,
          "durationTicks": 8,
          "midi": 67,
          "name": "G4",
          "ticks": 14340,
          "time": 58.7704585,
          "velocity": 0.8976377952755905
        },
        {
          "duration": 0.10655731666666668,
          "durationTicks": 26,
          "midi": 64,
          "name": "E4",
          "ticks": 14400,
          "time": 59.01636,
          "velocity": 0.8110236220472441
        },
        {
          "duration": 0.1147540333333339,
          "durationTicks": 28,
          "midi": 67,
          "name": "G4",
          "ticks": 14400,
          "time": 59.01636,
          "velocity": 0.7952755905511811
        },
        {
          "duration": 0.045081941666666125,
          "durationTicks": 11,
          "midi": 64,
          "name": "E4",
          "ticks": 14580,
          "time": 59.7540645,
          "velocity": 0.6771653543307087
        },
        {
          "duration": 0.04918029999999618,
          "durationTicks": 12,
          "midi": 67,
          "name": "G4",
          "ticks": 14580,
          "time": 59.7540645,
          "velocity": 0.6692913385826772
        },
        {
          "duration": 0.10655731666666668,
          "durationTicks": 26,
          "midi": 64,
          "name": "E4",
          "ticks": 14640,
          "time": 59.999966,
          "velocity": 0.7559055118110236
        },
        {
          "duration": 0.10245895833332952,
          "durationTicks": 25,
          "midi": 67,
          "name": "G4",
          "ticks": 14640,
          "time": 59.999966,
          "velocity": 0.6220472440944882
        },
        {
          "duration": 0.10655731666666668,
          "durationTicks": 26,
          "midi": 64,
          "name": "E4",
          "ticks": 14820,
          "time": 60.7376705,
          "velocity": 0.8818897637795275
        },
        {
          "duration": 0.08606552499999509,
          "durationTicks": 21,
          "midi": 67,
          "name": "G4",
          "ticks": 14820,
          "time": 60.7376705,
          "velocity": 0.7716535433070866
        },
        {
          "duration": 0.1516392583333399,
          "durationTicks": 37,
          "midi": 64,
          "name": "E4",
          "ticks": 14940,
          "time": 61.2294735,
          "velocity": 0.8818897637795275
        },
        {
          "duration": 0.09426224166666941,
          "durationTicks": 23,
          "midi": 67,
          "name": "G4",
          "ticks": 14940,
          "time": 61.2294735,
          "velocity": 0.8110236220472441
        },
        {
          "duration": 0.045081941666666125,
          "durationTicks": 11,
          "midi": 64,
          "name": "E4",
          "ticks": 15060,
          "time": 61.7212765,
          "velocity": 0.6535433070866141
        },
        {
          "duration": 0.045081941666666125,
          "durationTicks": 11,
          "midi": 67,
          "name": "G4",
          "ticks": 15060,
          "time": 61.7212765,
          "velocity": 0.6929133858267716
        },
        {
          "duration": 0.11885239166666395,
          "durationTicks": 29,
          "midi": 64,
          "name": "E4",
          "ticks": 15120,
          "time": 61.967178,
          "velocity": 0.7559055118110236
        },
        {
          "duration": 0.07786880833333498,
          "durationTicks": 19,
          "midi": 67,
          "name": "G4",
          "ticks": 15120,
          "time": 61.967178,
          "velocity": 0.6141732283464567
        },
        {
          "duration": 0.03278686666666886,
          "durationTicks": 8,
          "midi": 64,
          "name": "E4",
          "ticks": 15300,
          "time": 62.7048825,
          "velocity": 0.968503937007874
        },
        {
          "duration": 0.03278686666666886,
          "durationTicks": 8,
          "midi": 67,
          "name": "G4",
          "ticks": 15300,
          "time": 62.7048825,
          "velocity": 0.8976377952755905
        },
        {
          "duration": 0.10655731666666668,
          "durationTicks": 26,
          "midi": 64,
          "name": "E4",
          "ticks": 15360,
          "time": 62.950784,
          "velocity": 0.8110236220472441
        },
        {
          "duration": 0.11475403333332679,
          "durationTicks": 28,
          "midi": 67,
          "name": "G4",
          "ticks": 15360,
          "time": 62.950784,
          "velocity": 0.7952755905511811
        },
        {
          "duration": 0.045081941666666125,
          "durationTicks": 11,
          "midi": 64,
          "name": "E4",
          "ticks": 15540,
          "time": 63.6884885,
          "velocity": 0.6771653543307087
        },
        {
          "duration": 0.04918029999999618,
          "durationTicks": 12,
          "midi": 67,
          "name": "G4",
          "ticks": 15540,
          "time": 63.6884885,
          "velocity": 0.6692913385826772
        },
        {
          "duration": 0.10655731666665957,
          "durationTicks": 26,
          "midi": 64,
          "name": "E4",
          "ticks": 15600,
          "time": 63.93439,
          "velocity": 0.7559055118110236
        },
        {
          "duration": 0.10245895833333662,
          "durationTicks": 25,
          "midi": 67,
          "name": "G4",
          "ticks": 15600,
          "time": 63.93439,
          "velocity": 0.6220472440944882
        },
        {
          "duration": 0.10655731666666668,
          "durationTicks": 26,
          "midi": 64,
          "name": "E4",
          "ticks": 15780,
          "time": 64.6720945,
          "velocity": 0.8818897637795275
        },
        {
          "duration": 0.0860655250000093,
          "durationTicks": 21,
          "midi": 67,
          "name": "G4",
          "ticks": 15780,
          "time": 64.6720945,
          "velocity": 0.7716535433070866
        },
        {
          "duration": 0.1516392583333328,
          "durationTicks": 37,
          "midi": 64,
          "name": "E4",
          "ticks": 15900,
          "time": 65.1638975,
          "velocity": 0.8818897637795275
        },
        {
          "duration": 0.0942622416666552,
          "durationTicks": 23,
          "midi": 67,
          "name": "G4",
          "ticks": 15900,
          "time": 65.1638975,
          "velocity": 0.8110236220472441
        },
        {
          "duration": 0.045081941666666125,
          "durationTicks": 11,
          "midi": 64,
          "name": "E4",
          "ticks": 16020,
          "time": 65.6557005,
          "velocity": 0.6535433070866141
        },
        {
          "duration": 0.045081941666666125,
          "durationTicks": 11,
          "midi": 67,
          "name": "G4",
          "ticks": 16020,
          "time": 65.6557005,
          "velocity": 0.6929133858267716
        },
        {
          "duration": 0.11885239166667816,
          "durationTicks": 29,
          "midi": 64,
          "name": "E4",
          "ticks": 16080,
          "time": 65.901602,
          "velocity": 0.7559055118110236
        },
        {
          "duration": 0.07786880833333498,
          "durationTicks": 19,
          "midi": 67,
          "name": "G4",
          "ticks": 16080,
          "time": 65.901602,
          "velocity": 0.6141732283464567
        },
        {
          "duration": 0.032786866666654646,
          "durationTicks": 8,
          "midi": 64,
          "name": "E4",
          "ticks": 16260,
          "time": 66.6393065,
          "velocity": 0.968503937007874
        },
        {
          "duration": 0.032786866666654646,
          "durationTicks": 8,
          "midi": 67,
          "name": "G4",
          "ticks": 16260,
          "time": 66.6393065,
          "velocity": 0.8976377952755905
        },
        {
          "duration": 0.10655731666666668,
          "durationTicks": 26,
          "midi": 64,
          "name": "E4",
          "ticks": 16320,
          "time": 66.885208,
          "velocity": 0.8110236220472441
        },
        {
          "duration": 0.11475403333332679,
          "durationTicks": 28,
          "midi": 67,
          "name": "G4",
          "ticks": 16320,
          "time": 66.885208,
          "velocity": 0.7952755905511811
        },
        {
          "duration": 0.045081941666666125,
          "durationTicks": 11,
          "midi": 64,
          "name": "E4",
          "ticks": 16500,
          "time": 67.6229125,
          "velocity": 0.6771653543307087
        },
        {
          "duration": 0.049180300000003285,
          "durationTicks": 12,
          "midi": 67,
          "name": "G4",
          "ticks": 16500,
          "time": 67.6229125,
          "velocity": 0.6692913385826772
        },
        {
          "duration": 0.10655731666666668,
          "durationTicks": 26,
          "midi": 64,
          "name": "E4",
          "ticks": 16560,
          "time": 67.868814,
          "velocity": 0.7559055118110236
        },
        {
          "duration": 0.10245895833332952,
          "durationTicks": 25,
          "midi": 67,
          "name": "G4",
          "ticks": 16560,
          "time": 67.868814,
          "velocity": 0.6220472440944882
        },
        {
          "duration": 0.10655731666666668,
          "durationTicks": 26,
          "midi": 64,
          "name": "E4",
          "ticks": 16740,
          "time": 68.60651849999999,
          "velocity": 0.8818897637795275
        },
        {
          "duration": 0.0860655250000093,
          "durationTicks": 21,
          "midi": 67,
          "name": "G4",
          "ticks": 16740,
          "time": 68.60651849999999,
          "velocity": 0.7716535433070866
        },
        {
          "duration": 0.1516392583333328,
          "durationTicks": 37,
          "midi": 64,
          "name": "E4",
          "ticks": 16860,
          "time": 69.0983215,
          "velocity": 0.8818897637795275
        },
        {
          "duration": 0.09426224166666941,
          "durationTicks": 23,
          "midi": 67,
          "name": "G4",
          "ticks": 16860,
          "time": 69.0983215,
          "velocity": 0.8110236220472441
        },
        {
          "duration": 0.045081941666666125,
          "durationTicks": 11,
          "midi": 64,
          "name": "E4",
          "ticks": 16980,
          "time": 69.5901245,
          "velocity": 0.6535433070866141
        },
        {
          "duration": 0.045081941666666125,
          "durationTicks": 11,
          "midi": 67,
          "name": "G4",
          "ticks": 16980,
          "time": 69.5901245,
          "velocity": 0.6929133858267716
        },
        {
          "duration": 0.11885239166666395,
          "durationTicks": 29,
          "midi": 64,
          "name": "E4",
          "ticks": 17040,
          "time": 69.836026,
          "velocity": 0.7559055118110236
        },
        {
          "duration": 0.07786880833332077,
          "durationTicks": 19,
          "midi": 67,
          "name": "G4",
          "ticks": 17040,
          "time": 69.836026,
          "velocity": 0.6141732283464567
        },
        {
          "duration": 0.03278686666666886,
          "durationTicks": 8,
          "midi": 64,
          "name": "E4",
          "ticks": 17220,
          "time": 70.5737305,
          "velocity": 0.968503937007874
        },
        {
          "duration": 0.03278686666666886,
          "durationTicks": 8,
          "midi": 67,
          "name": "G4",
          "ticks": 17220,
          "time": 70.5737305,
          "velocity": 0.8976377952755905
        },
        {
          "duration": 0.10655731666666668,
          "durationTicks": 26,
          "midi": 64,
          "name": "E4",
          "ticks": 17280,
          "time": 70.819632,
          "velocity": 0.8110236220472441
        },
        {
          "duration": 0.11475403333332679,
          "durationTicks": 28,
          "midi": 67,
          "name": "G4",
          "ticks": 17280,
          "time": 70.819632,
          "velocity": 0.7952755905511811
        },
        {
          "duration": 0.045081941666666125,
          "durationTicks": 11,
          "midi": 64,
          "name": "E4",
          "ticks": 17460,
          "time": 71.5573365,
          "velocity": 0.6771653543307087
        },
        {
          "duration": 0.049180299999989074,
          "durationTicks": 12,
          "midi": 67,
          "name": "G4",
          "ticks": 17460,
          "time": 71.5573365,
          "velocity": 0.6692913385826772
        },
        {
          "duration": 0.10655731666666668,
          "durationTicks": 26,
          "midi": 64,
          "name": "E4",
          "ticks": 17520,
          "time": 71.803238,
          "velocity": 0.7559055118110236
        },
        {
          "duration": 0.10245895833334373,
          "durationTicks": 25,
          "midi": 67,
          "name": "G4",
          "ticks": 17520,
          "time": 71.803238,
          "velocity": 0.6220472440944882
        },
        {
          "duration": 0.10655731666666668,
          "durationTicks": 26,
          "midi": 64,
          "name": "E4",
          "ticks": 17700,
          "time": 72.5409425,
          "velocity": 0.8818897637795275
        },
        {
          "duration": 0.0860655250000093,
          "durationTicks": 21,
          "midi": 67,
          "name": "G4",
          "ticks": 17700,
          "time": 72.5409425,
          "velocity": 0.7716535433070866
        },
        {
          "duration": 0.1516392583333328,
          "durationTicks": 37,
          "midi": 64,
          "name": "E4",
          "ticks": 17820,
          "time": 73.0327455,
          "velocity": 0.8818897637795275
        },
        {
          "duration": 0.0942622416666552,
          "durationTicks": 23,
          "midi": 67,
          "name": "G4",
          "ticks": 17820,
          "time": 73.0327455,
          "velocity": 0.8110236220472441
        },
        {
          "duration": 0.045081941666666125,
          "durationTicks": 11,
          "midi": 64,
          "name": "E4",
          "ticks": 17940,
          "time": 73.5245485,
          "velocity": 0.6535433070866141
        },
        {
          "duration": 0.045081941666666125,
          "durationTicks": 11,
          "midi": 67,
          "name": "G4",
          "ticks": 17940,
          "time": 73.5245485,
          "velocity": 0.6929133858267716
        },
        {
          "duration": 0.11885239166667816,
          "durationTicks": 29,
          "midi": 64,
          "name": "E4",
          "ticks": 18000,
          "time": 73.77045,
          "velocity": 0.7559055118110236
        },
        {
          "duration": 0.07786880833333498,
          "durationTicks": 19,
          "midi": 67,
          "name": "G4",
          "ticks": 18000,
          "time": 73.77045,
          "velocity": 0.6141732283464567
        },
        {
          "duration": 0.032786866666654646,
          "durationTicks": 8,
          "midi": 64,
          "name": "E4",
          "ticks": 18180,
          "time": 74.5081545,
          "velocity": 0.968503937007874
        },
        {
          "duration": 0.032786866666654646,
          "durationTicks": 8,
          "midi": 67,
          "name": "G4",
          "ticks": 18180,
          "time": 74.5081545,
          "velocity": 0.8976377952755905
        },
        {
          "duration": 0.10655731666668089,
          "durationTicks": 26,
          "midi": 64,
          "name": "E4",
          "ticks": 18240,
          "time": 74.75405599999999,
          "velocity": 0.8110236220472441
        },
        {
          "duration": 0.114754033333341,
          "durationTicks": 28,
          "midi": 67,
          "name": "G4",
          "ticks": 18240,
          "time": 74.75405599999999,
          "velocity": 0.7952755905511811
        },
        {
          "duration": 0.045081941666666125,
          "durationTicks": 11,
          "midi": 64,
          "name": "E4",
          "ticks": 18420,
          "time": 75.4917605,
          "velocity": 0.6771653543307087
        },
        {
          "duration": 0.049180300000003285,
          "durationTicks": 12,
          "midi": 67,
          "name": "G4",
          "ticks": 18420,
          "time": 75.4917605,
          "velocity": 0.6692913385826772
        },
        {
          "duration": 0.10655731666666668,
          "durationTicks": 26,
          "midi": 64,
          "name": "E4",
          "ticks": 18480,
          "time": 75.737662,
          "velocity": 0.7559055118110236
        },
        {
          "duration": 0.10245895833332952,
          "durationTicks": 25,
          "midi": 67,
          "name": "G4",
          "ticks": 18480,
          "time": 75.737662,
          "velocity": 0.6220472440944882
        },
        {
          "duration": 0.10655731666666668,
          "durationTicks": 26,
          "midi": 64,
          "name": "E4",
          "ticks": 18660,
          "time": 76.47536649999999,
          "velocity": 0.8818897637795275
        },
        {
          "duration": 0.0860655250000093,
          "durationTicks": 21,
          "midi": 67,
          "name": "G4",
          "ticks": 18660,
          "time": 76.47536649999999,
          "velocity": 0.7716535433070866
        },
        {
          "duration": 0.1516392583333328,
          "durationTicks": 37,
          "midi": 64,
          "name": "E4",
          "ticks": 18780,
          "time": 76.9671695,
          "velocity": 0.8818897637795275
        },
        {
          "duration": 0.09426224166666941,
          "durationTicks": 23,
          "midi": 67,
          "name": "G4",
          "ticks": 18780,
          "time": 76.9671695,
          "velocity": 0.8110236220472441
        },
        {
          "duration": 0.045081941666666125,
          "durationTicks": 11,
          "midi": 64,
          "name": "E4",
          "ticks": 18900,
          "time": 77.4589725,
          "velocity": 0.6535433070866141
        },
        {
          "duration": 0.045081941666666125,
          "durationTicks": 11,
          "midi": 67,
          "name": "G4",
          "ticks": 18900,
          "time": 77.4589725,
          "velocity": 0.6929133858267716
        },
        {
          "duration": 0.11885239166666395,
          "durationTicks": 29,
          "midi": 64,
          "name": "E4",
          "ticks": 18960,
          "time": 77.704874,
          "velocity": 0.7559055118110236
        },
        {
          "duration": 0.07786880833332077,
          "durationTicks": 19,
          "midi": 67,
          "name": "G4",
          "ticks": 18960,
          "time": 77.704874,
          "velocity": 0.6141732283464567
        },
        {
          "duration": 0.03278686666666886,
          "durationTicks": 8,
          "midi": 64,
          "name": "E4",
          "ticks": 19140,
          "time": 78.4425785,
          "velocity": 0.968503937007874
        },
        {
          "duration": 0.03278686666666886,
          "durationTicks": 8,
          "midi": 67,
          "name": "G4",
          "ticks": 19140,
          "time": 78.4425785,
          "velocity": 0.8976377952755905
        },
        {
          "duration": 0.10655731666666668,
          "durationTicks": 26,
          "midi": 64,
          "name": "E4",
          "ticks": 19200,
          "time": 78.68848,
          "velocity": 0.8110236220472441
        },
        {
          "duration": 0.11475403333332679,
          "durationTicks": 28,
          "midi": 67,
          "name": "G4",
          "ticks": 19200,
          "time": 78.68848,
          "velocity": 0.7952755905511811
        },
        {
          "duration": 0.045081941666666125,
          "durationTicks": 11,
          "midi": 64,
          "name": "E4",
          "ticks": 19380,
          "time": 79.4261845,
          "velocity": 0.6771653543307087
        },
        {
          "duration": 0.049180299999989074,
          "durationTicks": 12,
          "midi": 67,
          "name": "G4",
          "ticks": 19380,
          "time": 79.4261845,
          "velocity": 0.6692913385826772
        },
        {
          "duration": 0.10655731666666668,
          "durationTicks": 26,
          "midi": 64,
          "name": "E4",
          "ticks": 19440,
          "time": 79.672086,
          "velocity": 0.7559055118110236
        },
        {
          "duration": 0.10245895833334373,
          "durationTicks": 25,
          "midi": 67,
          "name": "G4",
          "ticks": 19440,
          "time": 79.672086,
          "velocity": 0.6220472440944882
        },
        {
          "duration": 0.10655731666666668,
          "durationTicks": 26,
          "midi": 64,
          "name": "E4",
          "ticks": 19620,
          "time": 80.4097905,
          "velocity": 0.8818897637795275
        },
        {
          "duration": 0.0860655250000093,
          "durationTicks": 21,
          "midi": 67,
          "name": "G4",
          "ticks": 19620,
          "time": 80.4097905,
          "velocity": 0.7716535433070866
        },
        {
          "duration": 0.1516392583333328,
          "durationTicks": 37,
          "midi": 64,
          "name": "E4",
          "ticks": 19740,
          "time": 80.9015935,
          "velocity": 0.8818897637795275
        },
        {
          "duration": 0.0942622416666552,
          "durationTicks": 23,
          "midi": 67,
          "name": "G4",
          "ticks": 19740,
          "time": 80.9015935,
          "velocity": 0.8110236220472441
        },
        {
          "duration": 0.045081941666666125,
          "durationTicks": 11,
          "midi": 64,
          "name": "E4",
          "ticks": 19860,
          "time": 81.3933965,
          "velocity": 0.6535433070866141
        },
        {
          "duration": 0.045081941666666125,
          "durationTicks": 11,
          "midi": 67,
          "name": "G4",
          "ticks": 19860,
          "time": 81.3933965,
          "velocity": 0.6929133858267716
        },
        {
          "duration": 0.11885239166667816,
          "durationTicks": 29,
          "midi": 64,
          "name": "E4",
          "ticks": 19920,
          "time": 81.639298,
          "velocity": 0.7559055118110236
        },
        {
          "duration": 0.07786880833333498,
          "durationTicks": 19,
          "midi": 67,
          "name": "G4",
          "ticks": 19920,
          "time": 81.639298,
          "velocity": 0.6141732283464567
        },
        {
          "duration": 0.032786866666654646,
          "durationTicks": 8,
          "midi": 64,
          "name": "E4",
          "ticks": 20100,
          "time": 82.3770025,
          "velocity": 0.968503937007874
        },
        {
          "duration": 0.032786866666654646,
          "durationTicks": 8,
          "midi": 67,
          "name": "G4",
          "ticks": 20100,
          "time": 82.3770025,
          "velocity": 0.8976377952755905
        },
        {
          "duration": 0.10655731666666668,
          "durationTicks": 26,
          "midi": 64,
          "name": "E4",
          "ticks": 20160,
          "time": 82.622904,
          "velocity": 0.8110236220472441
        },
        {
          "duration": 0.11475403333332679,
          "durationTicks": 28,
          "midi": 67,
          "name": "G4",
          "ticks": 20160,
          "time": 82.622904,
          "velocity": 0.7952755905511811
        },
        {
          "duration": 0.045081941666666125,
          "durationTicks": 11,
          "midi": 64,
          "name": "E4",
          "ticks": 20340,
          "time": 83.3606085,
          "velocity": 0.6771653543307087
        },
        {
          "duration": 0.049180300000003285,
          "durationTicks": 12,
          "midi": 67,
          "name": "G4",
          "ticks": 20340,
          "time": 83.3606085,
          "velocity": 0.6692913385826772
        },
        {
          "duration": 0.10655731666666668,
          "durationTicks": 26,
          "midi": 64,
          "name": "E4",
          "ticks": 20400,
          "time": 83.60651,
          "velocity": 0.7559055118110236
        },
        {
          "duration": 0.10245895833332952,
          "durationTicks": 25,
          "midi": 67,
          "name": "G4",
          "ticks": 20400,
          "time": 83.60651,
          "velocity": 0.6220472440944882
        },
        {
          "duration": 0.10655731666666668,
          "durationTicks": 26,
          "midi": 64,
          "name": "E4",
          "ticks": 20580,
          "time": 84.34421449999999,
          "velocity": 0.8818897637795275
        },
        {
          "duration": 0.0860655250000093,
          "durationTicks": 21,
          "midi": 67,
          "name": "G4",
          "ticks": 20580,
          "time": 84.34421449999999,
          "velocity": 0.7716535433070866
        },
        {
          "duration": 0.1516392583333328,
          "durationTicks": 37,
          "midi": 64,
          "name": "E4",
          "ticks": 20700,
          "time": 84.8360175,
          "velocity": 0.8818897637795275
        },
        {
          "duration": 0.09426224166666941,
          "durationTicks": 23,
          "midi": 67,
          "name": "G4",
          "ticks": 20700,
          "time": 84.8360175,
          "velocity": 0.8110236220472441
        },
        {
          "duration": 0.045081941666666125,
          "durationTicks": 11,
          "midi": 64,
          "name": "E4",
          "ticks": 20820,
          "time": 85.3278205,
          "velocity": 0.6535433070866141
        },
        {
          "duration": 0.045081941666666125,
          "durationTicks": 11,
          "midi": 67,
          "name": "G4",
          "ticks": 20820,
          "time": 85.3278205,
          "velocity": 0.6929133858267716
        },
        {
          "duration": 0.11885239166666395,
          "durationTicks": 29,
          "midi": 64,
          "name": "E4",
          "ticks": 20880,
          "time": 85.573722,
          "velocity": 0.7559055118110236
        },
        {
          "duration": 0.07786880833332077,
          "durationTicks": 19,
          "midi": 67,
          "name": "G4",
          "ticks": 20880,
          "time": 85.573722,
          "velocity": 0.6141732283464567
        },
        {
          "duration": 0.03278686666666886,
          "durationTicks": 8,
          "midi": 64,
          "name": "E4",
          "ticks": 21060,
          "time": 86.3114265,
          "velocity": 0.968503937007874
        },
        {
          "duration": 0.03278686666666886,
          "durationTicks": 8,
          "midi": 67,
          "name": "G4",
          "ticks": 21060,
          "time": 86.3114265,
          "velocity": 0.8976377952755905
        },
        {
          "duration": 0.10655731666666668,
          "durationTicks": 26,
          "midi": 64,
          "name": "E4",
          "ticks": 21120,
          "time": 86.557328,
          "velocity": 0.8110236220472441
        },
        {
          "duration": 0.11475403333332679,
          "durationTicks": 28,
          "midi": 67,
          "name": "G4",
          "ticks": 21120,
          "time": 86.557328,
          "velocity": 0.7952755905511811
        },
        {
          "duration": 0.045081941666666125,
          "durationTicks": 11,
          "midi": 64,
          "name": "E4",
          "ticks": 21300,
          "time": 87.2950325,
          "velocity": 0.6771653543307087
        },
        {
          "duration": 0.049180299999989074,
          "durationTicks": 12,
          "midi": 67,
          "name": "G4",
          "ticks": 21300,
          "time": 87.2950325,
          "velocity": 0.6692913385826772
        },
        {
          "duration": 0.10655731666666668,
          "durationTicks": 26,
          "midi": 64,
          "name": "E4",
          "ticks": 21360,
          "time": 87.540934,
          "velocity": 0.7559055118110236
        },
        {
          "duration": 0.10245895833334373,
          "durationTicks": 25,
          "midi": 67,
          "name": "G4",
          "ticks": 21360,
          "time": 87.540934,
          "velocity": 0.6220472440944882
        },
        {
          "duration": 0.10655731666666668,
          "durationTicks": 26,
          "midi": 64,
          "name": "E4",
          "ticks": 21540,
          "time": 88.2786385,
          "velocity": 0.8818897637795275
        },
        {
          "duration": 0.0860655250000093,
          "durationTicks": 21,
          "midi": 67,
          "name": "G4",
          "ticks": 21540,
          "time": 88.2786385,
          "velocity": 0.7716535433070866
        },
        {
          "duration": 0.1516392583333328,
          "durationTicks": 37,
          "midi": 64,
          "name": "E4",
          "ticks": 21660,
          "time": 88.7704415,
          "velocity": 0.8818897637795275
        },
        {
          "duration": 0.0942622416666552,
          "durationTicks": 23,
          "midi": 67,
          "name": "G4",
          "ticks": 21660,
          "time": 88.7704415,
          "velocity": 0.8110236220472441
        },
        {
          "duration": 0.045081941666666125,
          "durationTicks": 11,
          "midi": 64,
          "name": "E4",
          "ticks": 21780,
          "time": 89.2622445,
          "velocity": 0.6535433070866141
        },
        {
          "duration": 0.045081941666666125,
          "durationTicks": 11,
          "midi": 67,
          "name": "G4",
          "ticks": 21780,
          "time": 89.2622445,
          "velocity": 0.6929133858267716
        },
        {
          "duration": 0.11885239166667816,
          "durationTicks": 29,
          "midi": 64,
          "name": "E4",
          "ticks": 21840,
          "time": 89.508146,
          "velocity": 0.7559055118110236
        },
        {
          "duration": 0.07786880833333498,
          "durationTicks": 19,
          "midi": 67,
          "name": "G4",
          "ticks": 21840,
          "time": 89.508146,
          "velocity": 0.6141732283464567
        },
        {
          "duration": 0.032786866666654646,
          "durationTicks": 8,
          "midi": 64,
          "name": "E4",
          "ticks": 22020,
          "time": 90.2458505,
          "velocity": 0.968503937007874
        },
        {
          "duration": 0.032786866666654646,
          "durationTicks": 8,
          "midi": 67,
          "name": "G4",
          "ticks": 22020,
          "time": 90.2458505,
          "velocity": 0.8976377952755905
        },
        {
          "duration": 0.10655731666668089,
          "durationTicks": 26,
          "midi": 64,
          "name": "E4",
          "ticks": 22080,
          "time": 90.49175199999999,
          "velocity": 0.8110236220472441
        },
        {
          "duration": 0.114754033333341,
          "durationTicks": 28,
          "midi": 67,
          "name": "G4",
          "ticks": 22080,
          "time": 90.49175199999999,
          "velocity": 0.7952755905511811
        },
        {
          "duration": 0.045081941666666125,
          "durationTicks": 11,
          "midi": 64,
          "name": "E4",
          "ticks": 22260,
          "time": 91.2294565,
          "velocity": 0.6771653543307087
        },
        {
          "duration": 0.049180300000003285,
          "durationTicks": 12,
          "midi": 67,
          "name": "G4",
          "ticks": 22260,
          "time": 91.2294565,
          "velocity": 0.6692913385826772
        },
        {
          "duration": 0.10655731666666668,
          "durationTicks": 26,
          "midi": 64,
          "name": "E4",
          "ticks": 22320,
          "time": 91.475358,
          "velocity": 0.7559055118110236
        },
        {
          "duration": 0.10245895833332952,
          "durationTicks": 25,
          "midi": 67,
          "name": "G4",
          "ticks": 22320,
          "time": 91.475358,
          "velocity": 0.6220472440944882
        },
        {
          "duration": 0.10655731666666668,
          "durationTicks": 26,
          "midi": 64,
          "name": "E4",
          "ticks": 22500,
          "time": 92.21306249999999,
          "velocity": 0.8818897637795275
        },
        {
          "duration": 0.0860655250000093,
          "durationTicks": 21,
          "midi": 67,
          "name": "G4",
          "ticks": 22500,
          "time": 92.21306249999999,
          "velocity": 0.7716535433070866
        },
        {
          "duration": 0.1516392583333328,
          "durationTicks": 37,
          "midi": 64,
          "name": "E4",
          "ticks": 22620,
          "time": 92.7048655,
          "velocity": 0.8818897637795275
        },
        {
          "duration": 0.09426224166666941,
          "durationTicks": 23,
          "midi": 67,
          "name": "G4",
          "ticks": 22620,
          "time": 92.7048655,
          "velocity": 0.8110236220472441
        },
        {
          "duration": 0.045081941666666125,
          "durationTicks": 11,
          "midi": 64,
          "name": "E4",
          "ticks": 22740,
          "time": 93.1966685,
          "velocity": 0.6535433070866141
        },
        {
          "duration": 0.045081941666666125,
          "durationTicks": 11,
          "midi": 67,
          "name": "G4",
          "ticks": 22740,
          "time": 93.1966685,
          "velocity": 0.6929133858267716
        },
        {
          "duration": 0.11885239166666395,
          "durationTicks": 29,
          "midi": 64,
          "name": "E4",
          "ticks": 22800,
          "time": 93.44257,
          "velocity": 0.7559055118110236
        },
        {
          "duration": 0.07786880833332077,
          "durationTicks": 19,
          "midi": 67,
          "name": "G4",
          "ticks": 22800,
          "time": 93.44257,
          "velocity": 0.6141732283464567
        },
        {
          "duration": 0.03278686666666886,
          "durationTicks": 8,
          "midi": 64,
          "name": "E4",
          "ticks": 22980,
          "time": 94.1802745,
          "velocity": 0.968503937007874
        },
        {
          "duration": 0.03278686666666886,
          "durationTicks": 8,
          "midi": 67,
          "name": "G4",
          "ticks": 22980,
          "time": 94.1802745,
          "velocity": 0.8976377952755905
        },
        {
          "duration": 0.10655731666666668,
          "durationTicks": 26,
          "midi": 64,
          "name": "E4",
          "ticks": 23040,
          "time": 94.426176,
          "velocity": 0.8110236220472441
        },
        {
          "duration": 0.11475403333332679,
          "durationTicks": 28,
          "midi": 67,
          "name": "G4",
          "ticks": 23040,
          "time": 94.426176,
          "velocity": 0.7952755905511811
        },
        {
          "duration": 0.045081941666666125,
          "durationTicks": 11,
          "midi": 64,
          "name": "E4",
          "ticks": 23220,
          "time": 95.1638805,
          "velocity": 0.6771653543307087
        },
        {
          "duration": 0.049180299999989074,
          "durationTicks": 12,
          "midi": 67,
          "name": "G4",
          "ticks": 23220,
          "time": 95.1638805,
          "velocity": 0.6692913385826772
        },
        {
          "duration": 0.10655731666666668,
          "durationTicks": 26,
          "midi": 64,
          "name": "E4",
          "ticks": 23280,
          "time": 95.40978199999999,
          "velocity": 0.7559055118110236
        },
        {
          "duration": 0.10245895833334373,
          "durationTicks": 25,
          "midi": 67,
          "name": "G4",
          "ticks": 23280,
          "time": 95.40978199999999,
          "velocity": 0.6220472440944882
        },
        {
          "duration": 0.10655731666666668,
          "durationTicks": 26,
          "midi": 64,
          "name": "E4",
          "ticks": 23460,
          "time": 96.1474865,
          "velocity": 0.8818897637795275
        },
        {
          "duration": 0.0860655250000093,
          "durationTicks": 21,
          "midi": 67,
          "name": "G4",
          "ticks": 23460,
          "time": 96.1474865,
          "velocity": 0.7716535433070866
        },
        {
          "duration": 0.1516392583333328,
          "durationTicks": 37,
          "midi": 64,
          "name": "E4",
          "ticks": 23580,
          "time": 96.6392895,
          "velocity": 0.8818897637795275
        },
        {
          "duration": 0.0942622416666552,
          "durationTicks": 23,
          "midi": 67,
          "name": "G4",
          "ticks": 23580,
          "time": 96.6392895,
          "velocity": 0.8110236220472441
        },
        {
          "duration": 0.045081941666666125,
          "durationTicks": 11,
          "midi": 64,
          "name": "E4",
          "ticks": 23700,
          "time": 97.1310925,
          "velocity": 0.6535433070866141
        },
        {
          "duration": 0.045081941666666125,
          "durationTicks": 11,
          "midi": 67,
          "name": "G4",
          "ticks": 23700,
          "time": 97.1310925,
          "velocity": 0.6929133858267716
        },
        {
          "duration": 0.11885239166667816,
          "durationTicks": 29,
          "midi": 64,
          "name": "E4",
          "ticks": 23760,
          "time": 97.376994,
          "velocity": 0.7559055118110236
        },
        {
          "duration": 0.07786880833333498,
          "durationTicks": 19,
          "midi": 67,
          "name": "G4",
          "ticks": 23760,
          "time": 97.376994,
          "velocity": 0.6141732283464567
        },
        {
          "duration": 0.032786866666654646,
          "durationTicks": 8,
          "midi": 64,
          "name": "E4",
          "ticks": 23940,
          "time": 98.1146985,
          "velocity": 0.968503937007874
        },
        {
          "duration": 0.032786866666654646,
          "durationTicks": 8,
          "midi": 67,
          "name": "G4",
          "ticks": 23940,
          "time": 98.1146985,
          "velocity": 0.8976377952755905
        },
        {
          "duration": 0.10655731666666668,
          "durationTicks": 26,
          "midi": 64,
          "name": "E4",
          "ticks": 24000,
          "time": 98.3606,
          "velocity": 0.8110236220472441
        },
        {
          "duration": 0.11475403333332679,
          "durationTicks": 28,
          "midi": 67,
          "name": "G4",
          "ticks": 24000,
          "time": 98.3606,
          "velocity": 0.7952755905511811
        },
        {
          "duration": 0.045081941666666125,
          "durationTicks": 11,
          "midi": 64,
          "name": "E4",
          "ticks": 24180,
          "time": 99.0983045,
          "velocity": 0.6771653543307087
        },
        {
          "duration": 0.049180300000003285,
          "durationTicks": 12,
          "midi": 67,
          "name": "G4",
          "ticks": 24180,
          "time": 99.0983045,
          "velocity": 0.6692913385826772
        },
        {
          "duration": 0.10655731666666668,
          "durationTicks": 26,
          "midi": 64,
          "name": "E4",
          "ticks": 24240,
          "time": 99.344206,
          "velocity": 0.7559055118110236
        },
        {
          "duration": 0.10245895833332952,
          "durationTicks": 25,
          "midi": 67,
          "name": "G4",
          "ticks": 24240,
          "time": 99.344206,
          "velocity": 0.6220472440944882
        },
        {
          "duration": 0.10655731666666668,
          "durationTicks": 26,
          "midi": 64,
          "name": "E4",
          "ticks": 24420,
          "time": 100.08191049999999,
          "velocity": 0.8818897637795275
        },
        {
          "duration": 0.0860655250000093,
          "durationTicks": 21,
          "midi": 67,
          "name": "G4",
          "ticks": 24420,
          "time": 100.08191049999999,
          "velocity": 0.7716535433070866
        },
        {
          "duration": 0.1516392583333328,
          "durationTicks": 37,
          "midi": 64,
          "name": "E4",
          "ticks": 24540,
          "time": 100.5737135,
          "velocity": 0.8818897637795275
        },
        {
          "duration": 0.09426224166666941,
          "durationTicks": 23,
          "midi": 67,
          "name": "G4",
          "ticks": 24540,
          "time": 100.5737135,
          "velocity": 0.8110236220472441
        },
        {
          "duration": 0.045081941666666125,
          "durationTicks": 11,
          "midi": 64,
          "name": "E4",
          "ticks": 24660,
          "time": 101.0655165,
          "velocity": 0.6535433070866141
        },
        {
          "duration": 0.045081941666666125,
          "durationTicks": 11,
          "midi": 67,
          "name": "G4",
          "ticks": 24660,
          "time": 101.0655165,
          "velocity": 0.6929133858267716
        },
        {
          "duration": 0.11885239166666395,
          "durationTicks": 29,
          "midi": 64,
          "name": "E4",
          "ticks": 24720,
          "time": 101.311418,
          "velocity": 0.7559055118110236
        },
        {
          "duration": 0.07786880833332077,
          "durationTicks": 19,
          "midi": 67,
          "name": "G4",
          "ticks": 24720,
          "time": 101.311418,
          "velocity": 0.6141732283464567
        },
        {
          "duration": 0.03278686666666886,
          "durationTicks": 8,
          "midi": 64,
          "name": "E4",
          "ticks": 24900,
          "time": 102.0491225,
          "velocity": 0.968503937007874
        },
        {
          "duration": 0.03278686666666886,
          "durationTicks": 8,
          "midi": 67,
          "name": "G4",
          "ticks": 24900,
          "time": 102.0491225,
          "velocity": 0.8976377952755905
        },
        {
          "duration": 0.10655731666666668,
          "durationTicks": 26,
          "midi": 64,
          "name": "E4",
          "ticks": 24960,
          "time": 102.295024,
          "velocity": 0.8110236220472441
        },
        {
          "duration": 0.11475403333332679,
          "durationTicks": 28,
          "midi": 67,
          "name": "G4",
          "ticks": 24960,
          "time": 102.295024,
          "velocity": 0.7952755905511811
        },
        {
          "duration": 0.045081941666666125,
          "durationTicks": 11,
          "midi": 64,
          "name": "E4",
          "ticks": 25140,
          "time": 103.0327285,
          "velocity": 0.6771653543307087
        },
        {
          "duration": 0.049180299999989074,
          "durationTicks": 12,
          "midi": 67,
          "name": "G4",
          "ticks": 25140,
          "time": 103.0327285,
          "velocity": 0.6692913385826772
        },
        {
          "duration": 0.10655731666666668,
          "durationTicks": 26,
          "midi": 64,
          "name": "E4",
          "ticks": 25200,
          "time": 103.27862999999999,
          "velocity": 0.7559055118110236
        },
        {
          "duration": 0.10245895833334373,
          "durationTicks": 25,
          "midi": 67,
          "name": "G4",
          "ticks": 25200,
          "time": 103.27862999999999,
          "velocity": 0.6220472440944882
        },
        {
          "duration": 0.10655731666666668,
          "durationTicks": 26,
          "midi": 64,
          "name": "E4",
          "ticks": 25380,
          "time": 104.0163345,
          "velocity": 0.8818897637795275
        },
        {
          "duration": 0.0860655250000093,
          "durationTicks": 21,
          "midi": 67,
          "name": "G4",
          "ticks": 25380,
          "time": 104.0163345,
          "velocity": 0.7716535433070866
        },
        {
          "duration": 0.1516392583333328,
          "durationTicks": 37,
          "midi": 64,
          "name": "E4",
          "ticks": 25500,
          "time": 104.5081375,
          "velocity": 0.8818897637795275
        },
        {
          "duration": 0.0942622416666552,
          "durationTicks": 23,
          "midi": 67,
          "name": "G4",
          "ticks": 25500,
          "time": 104.5081375,
          "velocity": 0.8110236220472441
        },
        {
          "duration": 0.045081941666666125,
          "durationTicks": 11,
          "midi": 64,
          "name": "E4",
          "ticks": 25620,
          "time": 104.9999405,
          "velocity": 0.6535433070866141
        },
        {
          "duration": 0.045081941666666125,
          "durationTicks": 11,
          "midi": 67,
          "name": "G4",
          "ticks": 25620,
          "time": 104.9999405,
          "velocity": 0.6929133858267716
        },
        {
          "duration": 0.11885239166667816,
          "durationTicks": 29,
          "midi": 64,
          "name": "E4",
          "ticks": 25680,
          "time": 105.245842,
          "velocity": 0.7559055118110236
        },
        {
          "duration": 0.07786880833333498,
          "durationTicks": 19,
          "midi": 67,
          "name": "G4",
          "ticks": 25680,
          "time": 105.245842,
          "velocity": 0.6141732283464567
        },
        {
          "duration": 0.032786866666654646,
          "durationTicks": 8,
          "midi": 64,
          "name": "E4",
          "ticks": 25860,
          "time": 105.9835465,
          "velocity": 0.968503937007874
        },
        {
          "duration": 0.032786866666654646,
          "durationTicks": 8,
          "midi": 67,
          "name": "G4",
          "ticks": 25860,
          "time": 105.9835465,
          "velocity": 0.8976377952755905
        },
        {
          "duration": 0.10655731666668089,
          "durationTicks": 26,
          "midi": 64,
          "name": "E4",
          "ticks": 25920,
          "time": 106.22944799999999,
          "velocity": 0.8110236220472441
        },
        {
          "duration": 0.114754033333341,
          "durationTicks": 28,
          "midi": 67,
          "name": "G4",
          "ticks": 25920,
          "time": 106.22944799999999,
          "velocity": 0.7952755905511811
        },
        {
          "duration": 0.045081941666666125,
          "durationTicks": 11,
          "midi": 64,
          "name": "E4",
          "ticks": 26100,
          "time": 106.9671525,
          "velocity": 0.6771653543307087
        },
        {
          "duration": 0.049180300000003285,
          "durationTicks": 12,
          "midi": 67,
          "name": "G4",
          "ticks": 26100,
          "time": 106.9671525,
          "velocity": 0.6692913385826772
        },
        {
          "duration": 0.10655731666666668,
          "durationTicks": 26,
          "midi": 64,
          "name": "E4",
          "ticks": 26160,
          "time": 107.213054,
          "velocity": 0.7559055118110236
        },
        {
          "duration": 0.10245895833332952,
          "durationTicks": 25,
          "midi": 67,
          "name": "G4",
          "ticks": 26160,
          "time": 107.213054,
          "velocity": 0.6220472440944882
        },
        {
          "duration": 0.10655731666666668,
          "durationTicks": 26,
          "midi": 64,
          "name": "E4",
          "ticks": 26340,
          "time": 107.95075849999999,
          "velocity": 0.8818897637795275
        },
        {
          "duration": 0.0860655250000093,
          "durationTicks": 21,
          "midi": 67,
          "name": "G4",
          "ticks": 26340,
          "time": 107.95075849999999,
          "velocity": 0.7716535433070866
        },
        {
          "duration": 0.1516392583333328,
          "durationTicks": 37,
          "midi": 64,
          "name": "E4",
          "ticks": 26460,
          "time": 108.4425615,
          "velocity": 0.8818897637795275
        },
        {
          "duration": 0.09426224166666941,
          "durationTicks": 23,
          "midi": 67,
          "name": "G4",
          "ticks": 26460,
          "time": 108.4425615,
          "velocity": 0.8110236220472441
        },
        {
          "duration": 0.045081941666666125,
          "durationTicks": 11,
          "midi": 64,
          "name": "E4",
          "ticks": 26580,
          "time": 108.9343645,
          "velocity": 0.6535433070866141
        },
        {
          "duration": 0.045081941666666125,
          "durationTicks": 11,
          "midi": 67,
          "name": "G4",
          "ticks": 26580,
          "time": 108.9343645,
          "velocity": 0.6929133858267716
        },
        {
          "duration": 0.11885239166666395,
          "durationTicks": 29,
          "midi": 64,
          "name": "E4",
          "ticks": 26640,
          "time": 109.180266,
          "velocity": 0.7559055118110236
        },
        {
          "duration": 0.07786880833332077,
          "durationTicks": 19,
          "midi": 67,
          "name": "G4",
          "ticks": 26640,
          "time": 109.180266,
          "velocity": 0.6141732283464567
        },
        {
          "duration": 0.03278686666666886,
          "durationTicks": 8,
          "midi": 64,
          "name": "E4",
          "ticks": 26820,
          "time": 109.9179705,
          "velocity": 0.968503937007874
        },
        {
          "duration": 0.03278686666666886,
          "durationTicks": 8,
          "midi": 67,
          "name": "G4",
          "ticks": 26820,
          "time": 109.9179705,
          "velocity": 0.8976377952755905
        },
        {
          "duration": 0.10655731666666668,
          "durationTicks": 26,
          "midi": 64,
          "name": "E4",
          "ticks": 26880,
          "time": 110.163872,
          "velocity": 0.8110236220472441
        },
        {
          "duration": 0.11475403333332679,
          "durationTicks": 28,
          "midi": 67,
          "name": "G4",
          "ticks": 26880,
          "time": 110.163872,
          "velocity": 0.7952755905511811
        },
        {
          "duration": 0.045081941666666125,
          "durationTicks": 11,
          "midi": 64,
          "name": "E4",
          "ticks": 27060,
          "time": 110.9015765,
          "velocity": 0.6771653543307087
        },
        {
          "duration": 0.049180299999989074,
          "durationTicks": 12,
          "midi": 67,
          "name": "G4",
          "ticks": 27060,
          "time": 110.9015765,
          "velocity": 0.6692913385826772
        },
        {
          "duration": 0.10655731666666668,
          "durationTicks": 26,
          "midi": 64,
          "name": "E4",
          "ticks": 27120,
          "time": 111.14747799999999,
          "velocity": 0.7559055118110236
        },
        {
          "duration": 0.10245895833334373,
          "durationTicks": 25,
          "midi": 67,
          "name": "G4",
          "ticks": 27120,
          "time": 111.14747799999999,
          "velocity": 0.6220472440944882
        },
        {
          "duration": 0.10655731666666668,
          "durationTicks": 26,
          "midi": 64,
          "name": "E4",
          "ticks": 27300,
          "time": 111.8851825,
          "velocity": 0.8818897637795275
        },
        {
          "duration": 0.0860655250000093,
          "durationTicks": 21,
          "midi": 67,
          "name": "G4",
          "ticks": 27300,
          "time": 111.8851825,
          "velocity": 0.7716535433070866
        },
        {
          "duration": 0.1516392583333328,
          "durationTicks": 37,
          "midi": 64,
          "name": "E4",
          "ticks": 27420,
          "time": 112.3769855,
          "velocity": 0.8818897637795275
        },
        {
          "duration": 0.0942622416666552,
          "durationTicks": 23,
          "midi": 67,
          "name": "G4",
          "ticks": 27420,
          "time": 112.3769855,
          "velocity": 0.8110236220472441
        },
        {
          "duration": 0.045081941666666125,
          "durationTicks": 11,
          "midi": 64,
          "name": "E4",
          "ticks": 27540,
          "time": 112.8687885,
          "velocity": 0.6535433070866141
        },
        {
          "duration": 0.045081941666666125,
          "durationTicks": 11,
          "midi": 67,
          "name": "G4",
          "ticks": 27540,
          "time": 112.8687885,
          "velocity": 0.6929133858267716
        },
        {
          "duration": 0.11885239166667816,
          "durationTicks": 29,
          "midi": 64,
          "name": "E4",
          "ticks": 27600,
          "time": 113.11469,
          "velocity": 0.7559055118110236
        },
        {
          "duration": 0.07786880833333498,
          "durationTicks": 19,
          "midi": 67,
          "name": "G4",
          "ticks": 27600,
          "time": 113.11469,
          "velocity": 0.6141732283464567
        },
        {
          "duration": 0.032786866666654646,
          "durationTicks": 8,
          "midi": 64,
          "name": "E4",
          "ticks": 27780,
          "time": 113.8523945,
          "velocity": 0.968503937007874
        },
        {
          "duration": 0.032786866666654646,
          "durationTicks": 8,
          "midi": 67,
          "name": "G4",
          "ticks": 27780,
          "time": 113.8523945,
          "velocity": 0.8976377952755905
        },
        {
          "duration": 0.10655731666666668,
          "durationTicks": 26,
          "midi": 64,
          "name": "E4",
          "ticks": 27840,
          "time": 114.098296,
          "velocity": 0.8110236220472441
        },
        {
          "duration": 0.11475403333332679,
          "durationTicks": 28,
          "midi": 67,
          "name": "G4",
          "ticks": 27840,
          "time": 114.098296,
          "velocity": 0.7952755905511811
        },
        {
          "duration": 0.045081941666666125,
          "durationTicks": 11,
          "midi": 64,
          "name": "E4",
          "ticks": 28020,
          "time": 114.8360005,
          "velocity": 0.6771653543307087
        },
        {
          "duration": 0.049180300000003285,
          "durationTicks": 12,
          "midi": 67,
          "name": "G4",
          "ticks": 28020,
          "time": 114.8360005,
          "velocity": 0.6692913385826772
        },
        {
          "duration": 0.10655731666666668,
          "durationTicks": 26,
          "midi": 64,
          "name": "E4",
          "ticks": 28080,
          "time": 115.081902,
          "velocity": 0.7559055118110236
        },
        {
          "duration": 0.10245895833332952,
          "durationTicks": 25,
          "midi": 67,
          "name": "G4",
          "ticks": 28080,
          "time": 115.081902,
          "velocity": 0.6220472440944882
        },
        {
          "duration": 0.10655731666666668,
          "durationTicks": 26,
          "midi": 64,
          "name": "E4",
          "ticks": 28260,
          "time": 115.81960649999999,
          "velocity": 0.8818897637795275
        },
        {
          "duration": 0.0860655250000093,
          "durationTicks": 21,
          "midi": 67,
          "name": "G4",
          "ticks": 28260,
          "time": 115.81960649999999,
          "velocity": 0.7716535433070866
        },
        {
          "duration": 0.1516392583333328,
          "durationTicks": 37,
          "midi": 64,
          "name": "E4",
          "ticks": 28380,
          "time": 116.3114095,
          "velocity": 0.8818897637795275
        },
        {
          "duration": 0.09426224166666941,
          "durationTicks": 23,
          "midi": 67,
          "name": "G4",
          "ticks": 28380,
          "time": 116.3114095,
          "velocity": 0.8110236220472441
        },
        {
          "duration": 0.045081941666666125,
          "durationTicks": 11,
          "midi": 64,
          "name": "E4",
          "ticks": 28500,
          "time": 116.8032125,
          "velocity": 0.6535433070866141
        },
        {
          "duration": 0.045081941666666125,
          "durationTicks": 11,
          "midi": 67,
          "name": "G4",
          "ticks": 28500,
          "time": 116.8032125,
          "velocity": 0.6929133858267716
        },
        {
          "duration": 0.11885239166666395,
          "durationTicks": 29,
          "midi": 64,
          "name": "E4",
          "ticks": 28560,
          "time": 117.049114,
          "velocity": 0.7559055118110236
        },
        {
          "duration": 0.07786880833332077,
          "durationTicks": 19,
          "midi": 67,
          "name": "G4",
          "ticks": 28560,
          "time": 117.049114,
          "velocity": 0.6141732283464567
        },
        {
          "duration": 0.03278686666666886,
          "durationTicks": 8,
          "midi": 64,
          "name": "E4",
          "ticks": 28740,
          "time": 117.7868185,
          "velocity": 0.968503937007874
        },
        {
          "duration": 0.03278686666666886,
          "durationTicks": 8,
          "midi": 67,
          "name": "G4",
          "ticks": 28740,
          "time": 117.7868185,
          "velocity": 0.8976377952755905
        },
        {
          "duration": 0.10655731666666668,
          "durationTicks": 26,
          "midi": 64,
          "name": "E4",
          "ticks": 28800,
          "time": 118.03272,
          "velocity": 0.8110236220472441
        },
        {
          "duration": 0.11475403333332679,
          "durationTicks": 28,
          "midi": 67,
          "name": "G4",
          "ticks": 28800,
          "time": 118.03272,
          "velocity": 0.7952755905511811
        },
        {
          "duration": 0.045081941666666125,
          "durationTicks": 11,
          "midi": 64,
          "name": "E4",
          "ticks": 28980,
          "time": 118.7704245,
          "velocity": 0.6771653543307087
        },
        {
          "duration": 0.049180299999989074,
          "durationTicks": 12,
          "midi": 67,
          "name": "G4",
          "ticks": 28980,
          "time": 118.7704245,
          "velocity": 0.6692913385826772
        },
        {
          "duration": 0.10655731666666668,
          "durationTicks": 26,
          "midi": 64,
          "name": "E4",
          "ticks": 29040,
          "time": 119.01632599999999,
          "velocity": 0.7559055118110236
        },
        {
          "duration": 0.10245895833334373,
          "durationTicks": 25,
          "midi": 67,
          "name": "G4",
          "ticks": 29040,
          "time": 119.01632599999999,
          "velocity": 0.6220472440944882
        },
        {
          "duration": 0.10655731666666668,
          "durationTicks": 26,
          "midi": 64,
          "name": "E4",
          "ticks": 29220,
          "time": 119.7540305,
          "velocity": 0.8818897637795275
        },
        {
          "duration": 0.0860655250000093,
          "durationTicks": 21,
          "midi": 67,
          "name": "G4",
          "ticks": 29220,
          "time": 119.7540305,
          "velocity": 0.7716535433070866
        },
        {
          "duration": 0.1516392583333328,
          "durationTicks": 37,
          "midi": 64,
          "name": "E4",
          "ticks": 29340,
          "time": 120.2458335,
          "velocity": 0.8818897637795275
        },
        {
          "duration": 0.0942622416666552,
          "durationTicks": 23,
          "midi": 67,
          "name": "G4",
          "ticks": 29340,
          "time": 120.2458335,
          "velocity": 0.8110236220472441
        },
        {
          "duration": 0.045081941666666125,
          "durationTicks": 11,
          "midi": 64,
          "name": "E4",
          "ticks": 29460,
          "time": 120.7376365,
          "velocity": 0.6535433070866141
        },
        {
          "duration": 0.045081941666666125,
          "durationTicks": 11,
          "midi": 67,
          "name": "G4",
          "ticks": 29460,
          "time": 120.7376365,
          "velocity": 0.6929133858267716
        },
        {
          "duration": 0.11885239166667816,
          "durationTicks": 29,
          "midi": 64,
          "name": "E4",
          "ticks": 29520,
          "time": 120.983538,
          "velocity": 0.7559055118110236
        },
        {
          "duration": 0.07786880833333498,
          "durationTicks": 19,
          "midi": 67,
          "name": "G4",
          "ticks": 29520,
          "time": 120.983538,
          "velocity": 0.6141732283464567
        },
        {
          "duration": 0.032786866666654646,
          "durationTicks": 8,
          "midi": 64,
          "name": "E4",
          "ticks": 29700,
          "time": 121.7212425,
          "velocity": 0.968503937007874
        },
        {
          "duration": 0.032786866666654646,
          "durationTicks": 8,
          "midi": 67,
          "name": "G4",
          "ticks": 29700,
          "time": 121.7212425,
          "velocity": 0.8976377952755905
        },
        {
          "duration": 0.10655731666668089,
          "durationTicks": 26,
          "midi": 64,
          "name": "E4",
          "ticks": 29760,
          "time": 121.96714399999999,
          "velocity": 0.8110236220472441
        },
        {
          "duration": 0.114754033333341,
          "durationTicks": 28,
          "midi": 67,
          "name": "G4",
          "ticks": 29760,
          "time": 121.96714399999999,
          "velocity": 0.7952755905511811
        },
        {
          "duration": 0.045081941666666125,
          "durationTicks": 11,
          "midi": 64,
          "name": "E4",
          "ticks": 29940,
          "time": 122.7048485,
          "velocity": 0.6771653543307087
        },
        {
          "duration": 0.049180300000003285,
          "durationTicks": 12,
          "midi": 67,
          "name": "G4",
          "ticks": 29940,
          "time": 122.7048485,
          "velocity": 0.6692913385826772
        },
        {
          "duration": 0.10655731666666668,
          "durationTicks": 26,
          "midi": 64,
          "name": "E4",
          "ticks": 30000,
          "time": 122.95075,
          "velocity": 0.7559055118110236
        },
        {
          "duration": 0.10245895833332952,
          "durationTicks": 25,
          "midi": 67,
          "name": "G4",
          "ticks": 30000,
          "time": 122.95075,
          "velocity": 0.6220472440944882
        },
        {
          "duration": 0.10655731666666668,
          "durationTicks": 26,
          "midi": 64,
          "name": "E4",
          "ticks": 30180,
          "time": 123.68845449999999,
          "velocity": 0.8818897637795275
        },
        {
          "duration": 0.0860655250000093,
          "durationTicks": 21,
          "midi": 67,
          "name": "G4",
          "ticks": 30180,
          "time": 123.68845449999999,
          "velocity": 0.7716535433070866
        },
        {
          "duration": 0.1516392583333328,
          "durationTicks": 37,
          "midi": 64,
          "name": "E4",
          "ticks": 30300,
          "time": 124.1802575,
          "velocity": 0.8818897637795275
        },
        {
          "duration": 0.09426224166666941,
          "durationTicks": 23,
          "midi": 67,
          "name": "G4",
          "ticks": 30300,
          "time": 124.1802575,
          "velocity": 0.8110236220472441
        },
        {
          "duration": 0.045081941666666125,
          "durationTicks": 11,
          "midi": 64,
          "name": "E4",
          "ticks": 30420,
          "time": 124.6720605,
          "velocity": 0.6535433070866141
        },
        {
          "duration": 0.045081941666666125,
          "durationTicks": 11,
          "midi": 67,
          "name": "G4",
          "ticks": 30420,
          "time": 124.6720605,
          "velocity": 0.6929133858267716
        },
        {
          "duration": 0.11885239166666395,
          "durationTicks": 29,
          "midi": 64,
          "name": "E4",
          "ticks": 30480,
          "time": 124.917962,
          "velocity": 0.7559055118110236
        },
        {
          "duration": 0.07786880833332077,
          "durationTicks": 19,
          "midi": 67,
          "name": "G4",
          "ticks": 30480,
          "time": 124.917962,
          "velocity": 0.6141732283464567
        },
        {
          "duration": 0.03278686666666886,
          "durationTicks": 8,
          "midi": 64,
          "name": "E4",
          "ticks": 30660,
          "time": 125.6556665,
          "velocity": 0.968503937007874
        },
        {
          "duration": 0.03278686666666886,
          "durationTicks": 8,
          "midi": 67,
          "name": "G4",
          "ticks": 30660,
          "time": 125.6556665,
          "velocity": 0.8976377952755905
        },
        {
          "duration": 0.10655731666665247,
          "durationTicks": 26,
          "midi": 64,
          "name": "E4",
          "ticks": 30720,
          "time": 125.901568,
          "velocity": 0.8110236220472441
        },
        {
          "duration": 0.114754033333341,
          "durationTicks": 28,
          "midi": 67,
          "name": "G4",
          "ticks": 30720,
          "time": 125.901568,
          "velocity": 0.7952755905511811
        },
        {
          "duration": 0.045081941666651915,
          "durationTicks": 11,
          "midi": 64,
          "name": "E4",
          "ticks": 30900,
          "time": 126.6392725,
          "velocity": 0.6771653543307087
        },
        {
          "duration": 0.049180300000003285,
          "durationTicks": 12,
          "midi": 67,
          "name": "G4",
          "ticks": 30900,
          "time": 126.6392725,
          "velocity": 0.6692913385826772
        },
        {
          "duration": 0.10655731666665247,
          "durationTicks": 26,
          "midi": 64,
          "name": "E4",
          "ticks": 30960,
          "time": 126.88517399999999,
          "velocity": 0.7559055118110236
        },
        {
          "duration": 0.10245895833332952,
          "durationTicks": 25,
          "midi": 67,
          "name": "G4",
          "ticks": 30960,
          "time": 126.88517399999999,
          "velocity": 0.6220472440944882
        },
        {
          "duration": 0.10655731666665247,
          "durationTicks": 26,
          "midi": 64,
          "name": "E4",
          "ticks": 31140,
          "time": 127.6228785,
          "velocity": 0.8818897637795275
        },
        {
          "duration": 0.0860655250000093,
          "durationTicks": 21,
          "midi": 67,
          "name": "G4",
          "ticks": 31140,
          "time": 127.6228785,
          "velocity": 0.7716535433070866
        },
        {
          "duration": 0.15163925833334702,
          "durationTicks": 37,
          "midi": 64,
          "name": "E4",
          "ticks": 31260,
          "time": 128.1146815,
          "velocity": 0.8818897637795275
        },
        {
          "duration": 0.09426224166668362,
          "durationTicks": 23,
          "midi": 67,
          "name": "G4",
          "ticks": 31260,
          "time": 128.1146815,
          "velocity": 0.8110236220472441
        },
        {
          "duration": 0.045081941666666125,
          "durationTicks": 11,
          "midi": 64,
          "name": "E4",
          "ticks": 31380,
          "time": 128.6064845,
          "velocity": 0.6535433070866141
        },
        {
          "duration": 0.045081941666666125,
          "durationTicks": 11,
          "midi": 67,
          "name": "G4",
          "ticks": 31380,
          "time": 128.6064845,
          "velocity": 0.6929133858267716
        },
        {
          "duration": 0.11885239166667816,
          "durationTicks": 29,
          "midi": 64,
          "name": "E4",
          "ticks": 31440,
          "time": 128.852386,
          "velocity": 0.7559055118110236
        },
        {
          "duration": 0.07786880833333498,
          "durationTicks": 19,
          "midi": 67,
          "name": "G4",
          "ticks": 31440,
          "time": 128.852386,
          "velocity": 0.6141732283464567
        },
        {
          "duration": 0.03278686666666886,
          "durationTicks": 8,
          "midi": 64,
          "name": "E4",
          "ticks": 31620,
          "time": 129.5900905,
          "velocity": 0.968503937007874
        },
        {
          "duration": 0.03278686666666886,
          "durationTicks": 8,
          "midi": 67,
          "name": "G4",
          "ticks": 31620,
          "time": 129.5900905,
          "velocity": 0.8976377952755905
        },
        {
          "duration": 0.10655731666665247,
          "durationTicks": 26,
          "midi": 64,
          "name": "E4",
          "ticks": 31680,
          "time": 129.835992,
          "velocity": 0.8110236220472441
        },
        {
          "duration": 0.11475403333332679,
          "durationTicks": 28,
          "midi": 67,
          "name": "G4",
          "ticks": 31680,
          "time": 129.835992,
          "velocity": 0.7952755905511811
        },
        {
          "duration": 0.045081941666637704,
          "durationTicks": 11,
          "midi": 64,
          "name": "E4",
          "ticks": 31860,
          "time": 130.5736965,
          "velocity": 0.6771653543307087
        },
        {
          "duration": 0.049180299999989074,
          "durationTicks": 12,
          "midi": 67,
          "name": "G4",
          "ticks": 31860,
          "time": 130.5736965,
          "velocity": 0.6692913385826772
        },
        {
          "duration": 0.10655731666665247,
          "durationTicks": 26,
          "midi": 64,
          "name": "E4",
          "ticks": 31920,
          "time": 130.81959799999998,
          "velocity": 0.7559055118110236
        },
        {
          "duration": 0.10245895833332952,
          "durationTicks": 25,
          "midi": 67,
          "name": "G4",
          "ticks": 31920,
          "time": 130.81959799999998,
          "velocity": 0.6220472440944882
        },
        {
          "duration": 0.10655731666665247,
          "durationTicks": 26,
          "midi": 64,
          "name": "E4",
          "ticks": 32100,
          "time": 131.5573025,
          "velocity": 0.8818897637795275
        },
        {
          "duration": 0.0860655250000093,
          "durationTicks": 21,
          "midi": 67,
          "name": "G4",
          "ticks": 32100,
          "time": 131.5573025,
          "velocity": 0.7716535433070866
        },
        {
          "duration": 0.15163925833334702,
          "durationTicks": 37,
          "midi": 64,
          "name": "E4",
          "ticks": 32220,
          "time": 132.0491055,
          "velocity": 0.8818897637795275
        },
        {
          "duration": 0.0942622416666552,
          "durationTicks": 23,
          "midi": 67,
          "name": "G4",
          "ticks": 32220,
          "time": 132.0491055,
          "velocity": 0.8110236220472441
        },
        {
          "duration": 0.045081941666637704,
          "durationTicks": 11,
          "midi": 64,
          "name": "E4",
          "ticks": 32340,
          "time": 132.5409085,
          "velocity": 0.6535433070866141
        },
        {
          "duration": 0.045081941666637704,
          "durationTicks": 11,
          "midi": 67,
          "name": "G4",
          "ticks": 32340,
          "time": 132.5409085,
          "velocity": 0.6929133858267716
        },
        {
          "duration": 0.11885239166667816,
          "durationTicks": 29,
          "midi": 64,
          "name": "E4",
          "ticks": 32400,
          "time": 132.78681,
          "velocity": 0.7559055118110236
        },
        {
          "duration": 0.07786880833333498,
          "durationTicks": 19,
          "midi": 67,
          "name": "G4",
          "ticks": 32400,
          "time": 132.78681,
          "velocity": 0.6141732283464567
        },
        {
          "duration": 0.032786866666640435,
          "durationTicks": 8,
          "midi": 64,
          "name": "E4",
          "ticks": 32580,
          "time": 133.5245145,
          "velocity": 0.968503937007874
        },
        {
          "duration": 0.032786866666640435,
          "durationTicks": 8,
          "midi": 67,
          "name": "G4",
          "ticks": 32580,
          "time": 133.5245145,
          "velocity": 0.8976377952755905
        },
        {
          "duration": 0.10655731666665247,
          "durationTicks": 26,
          "midi": 64,
          "name": "E4",
          "ticks": 32640,
          "time": 133.770416,
          "velocity": 0.8110236220472441
        },
        {
          "duration": 0.11475403333332679,
          "durationTicks": 28,
          "midi": 67,
          "name": "G4",
          "ticks": 32640,
          "time": 133.770416,
          "velocity": 0.7952755905511811
        },
        {
          "duration": 0.045081941666666125,
          "durationTicks": 11,
          "midi": 64,
          "name": "E4",
          "ticks": 32820,
          "time": 134.5081205,
          "velocity": 0.6771653543307087
        },
        {
          "duration": 0.049180300000017496,
          "durationTicks": 12,
          "midi": 67,
          "name": "G4",
          "ticks": 32820,
          "time": 134.5081205,
          "velocity": 0.6692913385826772
        },
        {
          "duration": 0.10655731666665247,
          "durationTicks": 26,
          "midi": 64,
          "name": "E4",
          "ticks": 32880,
          "time": 134.754022,
          "velocity": 0.7559055118110236
        },
        {
          "duration": 0.10245895833332952,
          "durationTicks": 25,
          "midi": 67,
          "name": "G4",
          "ticks": 32880,
          "time": 134.754022,
          "velocity": 0.6220472440944882
        },
        {
          "duration": 0.10655731666665247,
          "durationTicks": 26,
          "midi": 64,
          "name": "E4",
          "ticks": 33060,
          "time": 135.4917265,
          "velocity": 0.8818897637795275
        },
        {
          "duration": 0.0860655250000093,
          "durationTicks": 21,
          "midi": 67,
          "name": "G4",
          "ticks": 33060,
          "time": 135.4917265,
          "velocity": 0.7716535433070866
        },
        {
          "duration": 0.1516392583333186,
          "durationTicks": 37,
          "midi": 64,
          "name": "E4",
          "ticks": 33180,
          "time": 135.9835295,
          "velocity": 0.8818897637795275
        },
        {
          "duration": 0.0942622416666552,
          "durationTicks": 23,
          "midi": 67,
          "name": "G4",
          "ticks": 33180,
          "time": 135.9835295,
          "velocity": 0.8110236220472441
        },
        {
          "duration": 0.045081941666637704,
          "durationTicks": 11,
          "midi": 64,
          "name": "E4",
          "ticks": 33300,
          "time": 136.4753325,
          "velocity": 0.6535433070866141
        },
        {
          "duration": 0.045081941666637704,
          "durationTicks": 11,
          "midi": 67,
          "name": "G4",
          "ticks": 33300,
          "time": 136.4753325,
          "velocity": 0.6929133858267716
        },
        {
          "duration": 0.11885239166664974,
          "durationTicks": 29,
          "midi": 64,
          "name": "E4",
          "ticks": 33360,
          "time": 136.721234,
          "velocity": 0.7559055118110236
        },
        {
          "duration": 0.07786880833333498,
          "durationTicks": 19,
          "midi": 67,
          "name": "G4",
          "ticks": 33360,
          "time": 136.721234,
          "velocity": 0.6141732283464567
        },
        {
          "duration": 0.03278686666666886,
          "durationTicks": 8,
          "midi": 64,
          "name": "E4",
          "ticks": 33540,
          "time": 137.4589385,
          "velocity": 0.968503937007874
        },
        {
          "duration": 0.03278686666666886,
          "durationTicks": 8,
          "midi": 67,
          "name": "G4",
          "ticks": 33540,
          "time": 137.4589385,
          "velocity": 0.8976377952755905
        },
        {
          "duration": 0.10655731666665247,
          "durationTicks": 26,
          "midi": 64,
          "name": "E4",
          "ticks": 33600,
          "time": 137.70484,
          "velocity": 0.8110236220472441
        },
        {
          "duration": 0.11475403333335521,
          "durationTicks": 28,
          "midi": 67,
          "name": "G4",
          "ticks": 33600,
          "time": 137.70484,
          "velocity": 0.7952755905511811
        },
        {
          "duration": 0.045081941666666125,
          "durationTicks": 11,
          "midi": 64,
          "name": "E4",
          "ticks": 33780,
          "time": 138.4425445,
          "velocity": 0.6771653543307087
        },
        {
          "duration": 0.049180300000017496,
          "durationTicks": 12,
          "midi": 67,
          "name": "G4",
          "ticks": 33780,
          "time": 138.4425445,
          "velocity": 0.6692913385826772
        },
        {
          "duration": 0.10655731666665247,
          "durationTicks": 26,
          "midi": 64,
          "name": "E4",
          "ticks": 33840,
          "time": 138.688446,
          "velocity": 0.7559055118110236
        },
        {
          "duration": 0.10245895833332952,
          "durationTicks": 25,
          "midi": 67,
          "name": "G4",
          "ticks": 33840,
          "time": 138.688446,
          "velocity": 0.6220472440944882
        },
        {
          "duration": 0.10655731666665247,
          "durationTicks": 26,
          "midi": 64,
          "name": "E4",
          "ticks": 34020,
          "time": 139.4261505,
          "velocity": 0.8818897637795275
        },
        {
          "duration": 0.0860655250000093,
          "durationTicks": 21,
          "midi": 67,
          "name": "G4",
          "ticks": 34020,
          "time": 139.4261505,
          "velocity": 0.7716535433070866
        },
        {
          "duration": 0.1516392583333186,
          "durationTicks": 37,
          "midi": 64,
          "name": "E4",
          "ticks": 34140,
          "time": 139.9179535,
          "velocity": 0.8818897637795275
        },
        {
          "duration": 0.0942622416666552,
          "durationTicks": 23,
          "midi": 67,
          "name": "G4",
          "ticks": 34140,
          "time": 139.9179535,
          "velocity": 0.8110236220472441
        },
        {
          "duration": 0.045081941666666125,
          "durationTicks": 11,
          "midi": 64,
          "name": "E4",
          "ticks": 34260,
          "time": 140.4097565,
          "velocity": 0.6535433070866141
        },
        {
          "duration": 0.045081941666666125,
          "durationTicks": 11,
          "midi": 67,
          "name": "G4",
          "ticks": 34260,
          "time": 140.4097565,
          "velocity": 0.6929133858267716
        },
        {
          "duration": 0.11885239166667816,
          "durationTicks": 29,
          "midi": 64,
          "name": "E4",
          "ticks": 34320,
          "time": 140.655658,
          "velocity": 0.7559055118110236
        },
        {
          "duration": 0.0778688083333634,
          "durationTicks": 19,
          "midi": 67,
          "name": "G4",
          "ticks": 34320,
          "time": 140.655658,
          "velocity": 0.6141732283464567
        },
        {
          "duration": 0.03278686666666886,
          "durationTicks": 8,
          "midi": 64,
          "name": "E4",
          "ticks": 34500,
          "time": 141.3933625,
          "velocity": 0.968503937007874
        },
        {
          "duration": 0.03278686666666886,
          "durationTicks": 8,
          "midi": 67,
          "name": "G4",
          "ticks": 34500,
          "time": 141.3933625,
          "velocity": 0.8976377952755905
        },
        {
          "duration": 0.10655731666665247,
          "durationTicks": 26,
          "midi": 64,
          "name": "E4",
          "ticks": 34560,
          "time": 141.639264,
          "velocity": 0.8110236220472441
        },
        {
          "duration": 0.11475403333332679,
          "durationTicks": 28,
          "midi": 67,
          "name": "G4",
          "ticks": 34560,
          "time": 141.639264,
          "velocity": 0.7952755905511811
        },
        {
          "duration": 0.045081941666637704,
          "durationTicks": 11,
          "midi": 64,
          "name": "E4",
          "ticks": 34740,
          "time": 142.3769685,
          "velocity": 0.6771653543307087
        },
        {
          "duration": 0.049180300000017496,
          "durationTicks": 12,
          "midi": 67,
          "name": "G4",
          "ticks": 34740,
          "time": 142.3769685,
          "velocity": 0.6692913385826772
        },
        {
          "duration": 0.10655731666665247,
          "durationTicks": 26,
          "midi": 64,
          "name": "E4",
          "ticks": 34800,
          "time": 142.62287,
          "velocity": 0.7559055118110236
        },
        {
          "duration": 0.1024589583333011,
          "durationTicks": 25,
          "midi": 67,
          "name": "G4",
          "ticks": 34800,
          "time": 142.62287,
          "velocity": 0.6220472440944882
        },
        {
          "duration": 0.10655731666665247,
          "durationTicks": 26,
          "midi": 64,
          "name": "E4",
          "ticks": 34980,
          "time": 143.36057449999998,
          "velocity": 0.8818897637795275
        },
        {
          "duration": 0.0860655250000093,
          "durationTicks": 21,
          "midi": 67,
          "name": "G4",
          "ticks": 34980,
          "time": 143.36057449999998,
          "velocity": 0.7716535433070866
        },
        {
          "duration": 0.15163925833334702,
          "durationTicks": 37,
          "midi": 64,
          "name": "E4",
          "ticks": 35100,
          "time": 143.8523775,
          "velocity": 0.8818897637795275
        },
        {
          "duration": 0.09426224166668362,
          "durationTicks": 23,
          "midi": 67,
          "name": "G4",
          "ticks": 35100,
          "time": 143.8523775,
          "velocity": 0.8110236220472441
        },
        {
          "duration": 0.045081941666666125,
          "durationTicks": 11,
          "midi": 64,
          "name": "E4",
          "ticks": 35220,
          "time": 144.3441805,
          "velocity": 0.6535433070866141
        },
        {
          "duration": 0.045081941666666125,
          "durationTicks": 11,
          "midi": 67,
          "name": "G4",
          "ticks": 35220,
          "time": 144.3441805,
          "velocity": 0.6929133858267716
        },
        {
          "duration": 0.11885239166667816,
          "durationTicks": 29,
          "midi": 64,
          "name": "E4",
          "ticks": 35280,
          "time": 144.590082,
          "velocity": 0.7559055118110236
        },
        {
          "duration": 0.07786880833333498,
          "durationTicks": 19,
          "midi": 67,
          "name": "G4",
          "ticks": 35280,
          "time": 144.590082,
          "velocity": 0.6141732283464567
        },
        {
          "duration": 0.03278686666666886,
          "durationTicks": 8,
          "midi": 64,
          "name": "E4",
          "ticks": 35460,
          "time": 145.3277865,
          "velocity": 0.968503937007874
        },
        {
          "duration": 0.03278686666666886,
          "durationTicks": 8,
          "midi": 67,
          "name": "G4",
          "ticks": 35460,
          "time": 145.3277865,
          "velocity": 0.8976377952755905
        },
        {
          "duration": 0.10655731666665247,
          "durationTicks": 26,
          "midi": 64,
          "name": "E4",
          "ticks": 35520,
          "time": 145.573688,
          "velocity": 0.8110236220472441
        },
        {
          "duration": 0.11475403333332679,
          "durationTicks": 28,
          "midi": 67,
          "name": "G4",
          "ticks": 35520,
          "time": 145.573688,
          "velocity": 0.7952755905511811
        },
        {
          "duration": 0.045081941666637704,
          "durationTicks": 11,
          "midi": 64,
          "name": "E4",
          "ticks": 35700,
          "time": 146.3113925,
          "velocity": 0.6771653543307087
        },
        {
          "duration": 0.049180299999989074,
          "durationTicks": 12,
          "midi": 67,
          "name": "G4",
          "ticks": 35700,
          "time": 146.3113925,
          "velocity": 0.6692913385826772
        },
        {
          "duration": 0.10655731666665247,
          "durationTicks": 26,
          "midi": 64,
          "name": "E4",
          "ticks": 35760,
          "time": 146.55729399999998,
          "velocity": 0.7559055118110236
        },
        {
          "duration": 0.10245895833332952,
          "durationTicks": 25,
          "midi": 67,
          "name": "G4",
          "ticks": 35760,
          "time": 146.55729399999998,
          "velocity": 0.6220472440944882
        },
        {
          "duration": 0.10655731666665247,
          "durationTicks": 26,
          "midi": 64,
          "name": "E4",
          "ticks": 35940,
          "time": 147.2949985,
          "velocity": 0.8818897637795275
        },
        {
          "duration": 0.0860655250000093,
          "durationTicks": 21,
          "midi": 67,
          "name": "G4",
          "ticks": 35940,
          "time": 147.2949985,
          "velocity": 0.7716535433070866
        },
        {
          "duration": 0.15163925833334702,
          "durationTicks": 37,
          "midi": 64,
          "name": "E4",
          "ticks": 36060,
          "time": 147.7868015,
          "velocity": 0.8818897637795275
        },
        {
          "duration": 0.0942622416666552,
          "durationTicks": 23,
          "midi": 67,
          "name": "G4",
          "ticks": 36060,
          "time": 147.7868015,
          "velocity": 0.8110236220472441
        },
        {
          "duration": 0.045081941666637704,
          "durationTicks": 11,
          "midi": 64,
          "name": "E4",
          "ticks": 36180,
          "time": 148.2786045,
          "velocity": 0.6535433070866141
        },
        {
          "duration": 0.045081941666637704,
          "durationTicks": 11,
          "midi": 67,
          "name": "G4",
          "ticks": 36180,
          "time": 148.2786045,
          "velocity": 0.6929133858267716
        },
        {
          "duration": 0.11885239166667816,
          "durationTicks": 29,
          "midi": 64,
          "name": "E4",
          "ticks": 36240,
          "time": 148.524506,
          "velocity": 0.7559055118110236
        },
        {
          "duration": 0.07786880833333498,
          "durationTicks": 19,
          "midi": 67,
          "name": "G4",
          "ticks": 36240,
          "time": 148.524506,
          "velocity": 0.6141732283464567
        },
        {
          "duration": 0.032786866666640435,
          "durationTicks": 8,
          "midi": 64,
          "name": "E4",
          "ticks": 36420,
          "time": 149.2622105,
          "velocity": 0.968503937007874
        },
        {
          "duration": 0.032786866666640435,
          "durationTicks": 8,
          "midi": 67,
          "name": "G4",
          "ticks": 36420,
          "time": 149.2622105,
          "velocity": 0.8976377952755905
        },
        {
          "duration": 0.10655731666668089,
          "durationTicks": 26,
          "midi": 64,
          "name": "E4",
          "ticks": 36480,
          "time": 149.50811199999998,
          "velocity": 0.8110236220472441
        },
        {
          "duration": 0.11475403333335521,
          "durationTicks": 28,
          "midi": 67,
          "name": "G4",
          "ticks": 36480,
          "time": 149.50811199999998,
          "velocity": 0.7952755905511811
        },
        {
          "duration": 0.045081941666666125,
          "durationTicks": 11,
          "midi": 64,
          "name": "E4",
          "ticks": 36660,
          "time": 150.2458165,
          "velocity": 0.6771653543307087
        },
        {
          "duration": 0.049180300000017496,
          "durationTicks": 12,
          "midi": 67,
          "name": "G4",
          "ticks": 36660,
          "time": 150.2458165,
          "velocity": 0.6692913385826772
        },
        {
          "duration": 0.10655731666665247,
          "durationTicks": 26,
          "midi": 64,
          "name": "E4",
          "ticks": 36720,
          "time": 150.491718,
          "velocity": 0.7559055118110236
        },
        {
          "duration": 0.10245895833332952,
          "durationTicks": 25,
          "midi": 67,
          "name": "G4",
          "ticks": 36720,
          "time": 150.491718,
          "velocity": 0.6220472440944882
        },
        {
          "duration": 0.10655731666665247,
          "durationTicks": 26,
          "midi": 64,
          "name": "E4",
          "ticks": 36900,
          "time": 151.2294225,
          "velocity": 0.8818897637795275
        },
        {
          "duration": 0.0860655250000093,
          "durationTicks": 21,
          "midi": 67,
          "name": "G4",
          "ticks": 36900,
          "time": 151.2294225,
          "velocity": 0.7716535433070866
        },
        {
          "duration": 0.1516392583333186,
          "durationTicks": 37,
          "midi": 64,
          "name": "E4",
          "ticks": 37020,
          "time": 151.7212255,
          "velocity": 0.8818897637795275
        },
        {
          "duration": 0.0942622416666552,
          "durationTicks": 23,
          "midi": 67,
          "name": "G4",
          "ticks": 37020,
          "time": 151.7212255,
          "velocity": 0.8110236220472441
        },
        {
          "duration": 0.045081941666637704,
          "durationTicks": 11,
          "midi": 64,
          "name": "E4",
          "ticks": 37140,
          "time": 152.2130285,
          "velocity": 0.6535433070866141
        },
        {
          "duration": 0.045081941666637704,
          "durationTicks": 11,
          "midi": 67,
          "name": "G4",
          "ticks": 37140,
          "time": 152.2130285,
          "velocity": 0.6929133858267716
        },
        {
          "duration": 0.11885239166664974,
          "durationTicks": 29,
          "midi": 64,
          "name": "E4",
          "ticks": 37200,
          "time": 152.45893,
          "velocity": 0.7559055118110236
        },
        {
          "duration": 0.07786880833333498,
          "durationTicks": 19,
          "midi": 67,
          "name": "G4",
          "ticks": 37200,
          "time": 152.45893,
          "velocity": 0.6141732283464567
        },
        {
          "duration": 0.03278686666666886,
          "durationTicks": 8,
          "midi": 64,
          "name": "E4",
          "ticks": 37380,
          "time": 153.1966345,
          "velocity": 0.968503937007874
        },
        {
          "duration": 0.03278686666666886,
          "durationTicks": 8,
          "midi": 67,
          "name": "G4",
          "ticks": 37380,
          "time": 153.1966345,
          "velocity": 0.8976377952755905
        },
        {
          "duration": 0.10655731666665247,
          "durationTicks": 26,
          "midi": 64,
          "name": "E4",
          "ticks": 37440,
          "time": 153.442536,
          "velocity": 0.8110236220472441
        },
        {
          "duration": 0.11475403333335521,
          "durationTicks": 28,
          "midi": 67,
          "name": "G4",
          "ticks": 37440,
          "time": 153.442536,
          "velocity": 0.7952755905511811
        },
        {
          "duration": 0.045081941666666125,
          "durationTicks": 11,
          "midi": 64,
          "name": "E4",
          "ticks": 37620,
          "time": 154.1802405,
          "velocity": 0.6771653543307087
        },
        {
          "duration": 0.049180300000017496,
          "durationTicks": 12,
          "midi": 67,
          "name": "G4",
          "ticks": 37620,
          "time": 154.1802405,
          "velocity": 0.6692913385826772
        },
        {
          "duration": 0.10655731666665247,
          "durationTicks": 26,
          "midi": 64,
          "name": "E4",
          "ticks": 37680,
          "time": 154.426142,
          "velocity": 0.7559055118110236
        },
        {
          "duration": 0.10245895833332952,
          "durationTicks": 25,
          "midi": 67,
          "name": "G4",
          "ticks": 37680,
          "time": 154.426142,
          "velocity": 0.6220472440944882
        },
        {
          "duration": 0.10655731666665247,
          "durationTicks": 26,
          "midi": 64,
          "name": "E4",
          "ticks": 37860,
          "time": 155.1638465,
          "velocity": 0.8818897637795275
        },
        {
          "duration": 0.0860655250000093,
          "durationTicks": 21,
          "midi": 67,
          "name": "G4",
          "ticks": 37860,
          "time": 155.1638465,
          "velocity": 0.7716535433070866
        },
        {
          "duration": 0.1516392583333186,
          "durationTicks": 37,
          "midi": 64,
          "name": "E4",
          "ticks": 37980,
          "time": 155.6556495,
          "velocity": 0.8818897637795275
        },
        {
          "duration": 0.0942622416666552,
          "durationTicks": 23,
          "midi": 67,
          "name": "G4",
          "ticks": 37980,
          "time": 155.6556495,
          "velocity": 0.8110236220472441
        },
        {
          "duration": 0.045081941666666125,
          "durationTicks": 11,
          "midi": 64,
          "name": "E4",
          "ticks": 38100,
          "time": 156.14745249999999,
          "velocity": 0.6535433070866141
        },
        {
          "duration": 0.045081941666666125,
          "durationTicks": 11,
          "midi": 67,
          "name": "G4",
          "ticks": 38100,
          "time": 156.14745249999999,
          "velocity": 0.6929133858267716
        },
        {
          "duration": 0.11885239166667816,
          "durationTicks": 29,
          "midi": 64,
          "name": "E4",
          "ticks": 38160,
          "time": 156.393354,
          "velocity": 0.7559055118110236
        },
        {
          "duration": 0.0778688083333634,
          "durationTicks": 19,
          "midi": 67,
          "name": "G4",
          "ticks": 38160,
          "time": 156.393354,
          "velocity": 0.6141732283464567
        },
        {
          "duration": 0.03278686666666886,
          "durationTicks": 8,
          "midi": 64,
          "name": "E4",
          "ticks": 38340,
          "time": 157.1310585,
          "velocity": 0.968503937007874
        },
        {
          "duration": 0.03278686666666886,
          "durationTicks": 8,
          "midi": 67,
          "name": "G4",
          "ticks": 38340,
          "time": 157.1310585,
          "velocity": 0.8976377952755905
        },
        {
          "duration": 0.10655731666665247,
          "durationTicks": 26,
          "midi": 64,
          "name": "E4",
          "ticks": 38400,
          "time": 157.37696,
          "velocity": 0.8110236220472441
        },
        {
          "duration": 0.11475403333332679,
          "durationTicks": 28,
          "midi": 67,
          "name": "G4",
          "ticks": 38400,
          "time": 157.37696,
          "velocity": 0.7952755905511811
        },
        {
          "duration": 0.045081941666637704,
          "durationTicks": 11,
          "midi": 64,
          "name": "E4",
          "ticks": 38580,
          "time": 158.1146645,
          "velocity": 0.6771653543307087
        },
        {
          "duration": 0.049180300000017496,
          "durationTicks": 12,
          "midi": 67,
          "name": "G4",
          "ticks": 38580,
          "time": 158.1146645,
          "velocity": 0.6692913385826772
        },
        {
          "duration": 0.10655731666665247,
          "durationTicks": 26,
          "midi": 64,
          "name": "E4",
          "ticks": 38640,
          "time": 158.360566,
          "velocity": 0.7559055118110236
        },
        {
          "duration": 0.1024589583333011,
          "durationTicks": 25,
          "midi": 67,
          "name": "G4",
          "ticks": 38640,
          "time": 158.360566,
          "velocity": 0.6220472440944882
        },
        {
          "duration": 0.10655731666665247,
          "durationTicks": 26,
          "midi": 64,
          "name": "E4",
          "ticks": 38820,
          "time": 159.09827049999998,
          "velocity": 0.8818897637795275
        },
        {
          "duration": 0.0860655250000093,
          "durationTicks": 21,
          "midi": 67,
          "name": "G4",
          "ticks": 38820,
          "time": 159.09827049999998,
          "velocity": 0.7716535433070866
        },
        {
          "duration": 0.15163925833334702,
          "durationTicks": 37,
          "midi": 64,
          "name": "E4",
          "ticks": 38940,
          "time": 159.5900735,
          "velocity": 0.8818897637795275
        },
        {
          "duration": 0.09426224166668362,
          "durationTicks": 23,
          "midi": 67,
          "name": "G4",
          "ticks": 38940,
          "time": 159.5900735,
          "velocity": 0.8110236220472441
        },
        {
          "duration": 0.045081941666666125,
          "durationTicks": 11,
          "midi": 64,
          "name": "E4",
          "ticks": 39060,
          "time": 160.0818765,
          "velocity": 0.6535433070866141
        },
        {
          "duration": 0.045081941666666125,
          "durationTicks": 11,
          "midi": 67,
          "name": "G4",
          "ticks": 39060,
          "time": 160.0818765,
          "velocity": 0.6929133858267716
        },
        {
          "duration": 0.11885239166667816,
          "durationTicks": 29,
          "midi": 64,
          "name": "E4",
          "ticks": 39120,
          "time": 160.327778,
          "velocity": 0.7559055118110236
        },
        {
          "duration": 0.07786880833333498,
          "durationTicks": 19,
          "midi": 67,
          "name": "G4",
          "ticks": 39120,
          "time": 160.327778,
          "velocity": 0.6141732283464567
        },
        {
          "duration": 0.03278686666666886,
          "durationTicks": 8,
          "midi": 64,
          "name": "E4",
          "ticks": 39300,
          "time": 161.0654825,
          "velocity": 0.968503937007874
        },
        {
          "duration": 0.03278686666666886,
          "durationTicks": 8,
          "midi": 67,
          "name": "G4",
          "ticks": 39300,
          "time": 161.0654825,
          "velocity": 0.8976377952755905
        },
        {
          "duration": 0.10655731666665247,
          "durationTicks": 26,
          "midi": 64,
          "name": "E4",
          "ticks": 39360,
          "time": 161.311384,
          "velocity": 0.8110236220472441
        },
        {
          "duration": 0.11475403333332679,
          "durationTicks": 28,
          "midi": 67,
          "name": "G4",
          "ticks": 39360,
          "time": 161.311384,
          "velocity": 0.7952755905511811
        },
        {
          "duration": 0.045081941666637704,
          "durationTicks": 11,
          "midi": 64,
          "name": "E4",
          "ticks": 39540,
          "time": 162.0490885,
          "velocity": 0.6771653543307087
        },
        {
          "duration": 0.049180299999989074,
          "durationTicks": 12,
          "midi": 67,
          "name": "G4",
          "ticks": 39540,
          "time": 162.0490885,
          "velocity": 0.6692913385826772
        },
        {
          "duration": 0.10655731666665247,
          "durationTicks": 26,
          "midi": 64,
          "name": "E4",
          "ticks": 39600,
          "time": 162.29498999999998,
          "velocity": 0.7559055118110236
        },
        {
          "duration": 0.10245895833332952,
          "durationTicks": 25,
          "midi": 67,
          "name": "G4",
          "ticks": 39600,
          "time": 162.29498999999998,
          "velocity": 0.6220472440944882
        },
        {
          "duration": 0.10655731666665247,
          "durationTicks": 26,
          "midi": 64,
          "name": "E4",
          "ticks": 39780,
          "time": 163.0326945,
          "velocity": 0.8818897637795275
        },
        {
          "duration": 0.0860655250000093,
          "durationTicks": 21,
          "midi": 67,
          "name": "G4",
          "ticks": 39780,
          "time": 163.0326945,
          "velocity": 0.7716535433070866
        },
        {
          "duration": 0.15163925833334702,
          "durationTicks": 37,
          "midi": 64,
          "name": "E4",
          "ticks": 39900,
          "time": 163.5244975,
          "velocity": 0.8818897637795275
        },
        {
          "duration": 0.0942622416666552,
          "durationTicks": 23,
          "midi": 67,
          "name": "G4",
          "ticks": 39900,
          "time": 163.5244975,
          "velocity": 0.8110236220472441
        },
        {
          "duration": 0.045081941666637704,
          "durationTicks": 11,
          "midi": 64,
          "name": "E4",
          "ticks": 40020,
          "time": 164.0163005,
          "velocity": 0.6535433070866141
        },
        {
          "duration": 0.045081941666637704,
          "durationTicks": 11,
          "midi": 67,
          "name": "G4",
          "ticks": 40020,
          "time": 164.0163005,
          "velocity": 0.6929133858267716
        },
        {
          "duration": 0.11885239166667816,
          "durationTicks": 29,
          "midi": 64,
          "name": "E4",
          "ticks": 40080,
          "time": 164.262202,
          "velocity": 0.7559055118110236
        },
        {
          "duration": 0.07786880833333498,
          "durationTicks": 19,
          "midi": 67,
          "name": "G4",
          "ticks": 40080,
          "time": 164.262202,
          "velocity": 0.6141732283464567
        },
        {
          "duration": 0.032786866666640435,
          "durationTicks": 8,
          "midi": 64,
          "name": "E4",
          "ticks": 40260,
          "time": 164.9999065,
          "velocity": 0.968503937007874
        },
        {
          "duration": 0.032786866666640435,
          "durationTicks": 8,
          "midi": 67,
          "name": "G4",
          "ticks": 40260,
          "time": 164.9999065,
          "velocity": 0.8976377952755905
        },
        {
          "duration": 0.10655731666665247,
          "durationTicks": 26,
          "midi": 64,
          "name": "E4",
          "ticks": 40320,
          "time": 165.245808,
          "velocity": 0.8110236220472441
        },
        {
          "duration": 0.11475403333332679,
          "durationTicks": 28,
          "midi": 67,
          "name": "G4",
          "ticks": 40320,
          "time": 165.245808,
          "velocity": 0.7952755905511811
        },
        {
          "duration": 0.045081941666666125,
          "durationTicks": 11,
          "midi": 64,
          "name": "E4",
          "ticks": 40500,
          "time": 165.9835125,
          "velocity": 0.6771653543307087
        },
        {
          "duration": 0.049180300000017496,
          "durationTicks": 12,
          "midi": 67,
          "name": "G4",
          "ticks": 40500,
          "time": 165.9835125,
          "velocity": 0.6692913385826772
        },
        {
          "duration": 0.10655731666665247,
          "durationTicks": 26,
          "midi": 64,
          "name": "E4",
          "ticks": 40560,
          "time": 166.229414,
          "velocity": 0.7559055118110236
        },
        {
          "duration": 0.10245895833332952,
          "durationTicks": 25,
          "midi": 67,
          "name": "G4",
          "ticks": 40560,
          "time": 166.229414,
          "velocity": 0.6220472440944882
        },
        {
          "duration": 0.10655731666665247,
          "durationTicks": 26,
          "midi": 64,
          "name": "E4",
          "ticks": 40740,
          "time": 166.9671185,
          "velocity": 0.8818897637795275
        },
        {
          "duration": 0.0860655250000093,
          "durationTicks": 21,
          "midi": 67,
          "name": "G4",
          "ticks": 40740,
          "time": 166.9671185,
          "velocity": 0.7716535433070866
        },
        {
          "duration": 0.1516392583333186,
          "durationTicks": 37,
          "midi": 64,
          "name": "E4",
          "ticks": 40860,
          "time": 167.4589215,
          "velocity": 0.8818897637795275
        },
        {
          "duration": 0.0942622416666552,
          "durationTicks": 23,
          "midi": 67,
          "name": "G4",
          "ticks": 40860,
          "time": 167.4589215,
          "velocity": 0.8110236220472441
        },
        {
          "duration": 0.045081941666637704,
          "durationTicks": 11,
          "midi": 64,
          "name": "E4",
          "ticks": 40980,
          "time": 167.9507245,
          "velocity": 0.6535433070866141
        },
        {
          "duration": 0.045081941666637704,
          "durationTicks": 11,
          "midi": 67,
          "name": "G4",
          "ticks": 40980,
          "time": 167.9507245,
          "velocity": 0.6929133858267716
        },
        {
          "duration": 0.11885239166664974,
          "durationTicks": 29,
          "midi": 64,
          "name": "E4",
          "ticks": 41040,
          "time": 168.196626,
          "velocity": 0.7559055118110236
        },
        {
          "duration": 0.07786880833333498,
          "durationTicks": 19,
          "midi": 67,
          "name": "G4",
          "ticks": 41040,
          "time": 168.196626,
          "velocity": 0.6141732283464567
        },
        {
          "duration": 0.03278686666666886,
          "durationTicks": 8,
          "midi": 64,
          "name": "E4",
          "ticks": 41220,
          "time": 168.9343305,
          "velocity": 0.968503937007874
        },
        {
          "duration": 0.03278686666666886,
          "durationTicks": 8,
          "midi": 67,
          "name": "G4",
          "ticks": 41220,
          "time": 168.9343305,
          "velocity": 0.8976377952755905
        },
        {
          "duration": 0.10655731666665247,
          "durationTicks": 26,
          "midi": 64,
          "name": "E4",
          "ticks": 41280,
          "time": 169.180232,
          "velocity": 0.8110236220472441
        },
        {
          "duration": 0.11475403333335521,
          "durationTicks": 28,
          "midi": 67,
          "name": "G4",
          "ticks": 41280,
          "time": 169.180232,
          "velocity": 0.7952755905511811
        },
        {
          "duration": 0.045081941666666125,
          "durationTicks": 11,
          "midi": 64,
          "name": "E4",
          "ticks": 41460,
          "time": 169.9179365,
          "velocity": 0.6771653543307087
        },
        {
          "duration": 0.049180300000017496,
          "durationTicks": 12,
          "midi": 67,
          "name": "G4",
          "ticks": 41460,
          "time": 169.9179365,
          "velocity": 0.6692913385826772
        },
        {
          "duration": 0.10655731666665247,
          "durationTicks": 26,
          "midi": 64,
          "name": "E4",
          "ticks": 41520,
          "time": 170.163838,
          "velocity": 0.7559055118110236
        },
        {
          "duration": 0.10245895833332952,
          "durationTicks": 25,
          "midi": 67,
          "name": "G4",
          "ticks": 41520,
          "time": 170.163838,
          "velocity": 0.6220472440944882
        },
        {
          "duration": 0.10655731666665247,
          "durationTicks": 26,
          "midi": 64,
          "name": "E4",
          "ticks": 41700,
          "time": 170.9015425,
          "velocity": 0.8818897637795275
        },
        {
          "duration": 0.0860655250000093,
          "durationTicks": 21,
          "midi": 67,
          "name": "G4",
          "ticks": 41700,
          "time": 170.9015425,
          "velocity": 0.7716535433070866
        },
        {
          "duration": 0.1516392583333186,
          "durationTicks": 37,
          "midi": 64,
          "name": "E4",
          "ticks": 41820,
          "time": 171.3933455,
          "velocity": 0.8818897637795275
        },
        {
          "duration": 0.0942622416666552,
          "durationTicks": 23,
          "midi": 67,
          "name": "G4",
          "ticks": 41820,
          "time": 171.3933455,
          "velocity": 0.8110236220472441
        },
        {
          "duration": 0.045081941666666125,
          "durationTicks": 11,
          "midi": 64,
          "name": "E4",
          "ticks": 41940,
          "time": 171.88514849999999,
          "velocity": 0.6535433070866141
        },
        {
          "duration": 0.045081941666666125,
          "durationTicks": 11,
          "midi": 67,
          "name": "G4",
          "ticks": 41940,
          "time": 171.88514849999999,
          "velocity": 0.6929133858267716
        },
        {
          "duration": 0.11885239166667816,
          "durationTicks": 29,
          "midi": 64,
          "name": "E4",
          "ticks": 42000,
          "time": 172.13105,
          "velocity": 0.7559055118110236
        },
        {
          "duration": 0.0778688083333634,
          "durationTicks": 19,
          "midi": 67,
          "name": "G4",
          "ticks": 42000,
          "time": 172.13105,
          "velocity": 0.6141732283464567
        },
        {
          "duration": 0.03278686666666886,
          "durationTicks": 8,
          "midi": 64,
          "name": "E4",
          "ticks": 42180,
          "time": 172.8687545,
          "velocity": 0.968503937007874
        },
        {
          "duration": 0.03278686666666886,
          "durationTicks": 8,
          "midi": 67,
          "name": "G4",
          "ticks": 42180,
          "time": 172.8687545,
          "velocity": 0.8976377952755905
        },
        {
          "duration": 0.10655731666665247,
          "durationTicks": 26,
          "midi": 64,
          "name": "E4",
          "ticks": 42240,
          "time": 173.114656,
          "velocity": 0.8110236220472441
        },
        {
          "duration": 0.11475403333332679,
          "durationTicks": 28,
          "midi": 67,
          "name": "G4",
          "ticks": 42240,
          "time": 173.114656,
          "velocity": 0.7952755905511811
        },
        {
          "duration": 0.045081941666637704,
          "durationTicks": 11,
          "midi": 64,
          "name": "E4",
          "ticks": 42420,
          "time": 173.8523605,
          "velocity": 0.6771653543307087
        },
        {
          "duration": 0.049180300000017496,
          "durationTicks": 12,
          "midi": 67,
          "name": "G4",
          "ticks": 42420,
          "time": 173.8523605,
          "velocity": 0.6692913385826772
        },
        {
          "duration": 0.10655731666665247,
          "durationTicks": 26,
          "midi": 64,
          "name": "E4",
          "ticks": 42480,
          "time": 174.098262,
          "velocity": 0.7559055118110236
        },
        {
          "duration": 0.1024589583333011,
          "durationTicks": 25,
          "midi": 67,
          "name": "G4",
          "ticks": 42480,
          "time": 174.098262,
          "velocity": 0.6220472440944882
        },
        {
          "duration": 0.10655731666665247,
          "durationTicks": 26,
          "midi": 64,
          "name": "E4",
          "ticks": 42660,
          "time": 174.83596649999998,
          "velocity": 0.8818897637795275
        },
        {
          "duration": 0.0860655250000093,
          "durationTicks": 21,
          "midi": 67,
          "name": "G4",
          "ticks": 42660,
          "time": 174.83596649999998,
          "velocity": 0.7716535433070866
        },
        {
          "duration": 0.15163925833334702,
          "durationTicks": 37,
          "midi": 64,
          "name": "E4",
          "ticks": 42780,
          "time": 175.3277695,
          "velocity": 0.8818897637795275
        },
        {
          "duration": 0.09426224166668362,
          "durationTicks": 23,
          "midi": 67,
          "name": "G4",
          "ticks": 42780,
          "time": 175.3277695,
          "velocity": 0.8110236220472441
        },
        {
          "duration": 0.045081941666666125,
          "durationTicks": 11,
          "midi": 64,
          "name": "E4",
          "ticks": 42900,
          "time": 175.8195725,
          "velocity": 0.6535433070866141
        },
        {
          "duration": 0.045081941666666125,
          "durationTicks": 11,
          "midi": 67,
          "name": "G4",
          "ticks": 42900,
          "time": 175.8195725,
          "velocity": 0.6929133858267716
        },
        {
          "duration": 0.11885239166667816,
          "durationTicks": 29,
          "midi": 64,
          "name": "E4",
          "ticks": 42960,
          "time": 176.065474,
          "velocity": 0.7559055118110236
        },
        {
          "duration": 0.07786880833333498,
          "durationTicks": 19,
          "midi": 67,
          "name": "G4",
          "ticks": 42960,
          "time": 176.065474,
          "velocity": 0.6141732283464567
        },
        {
          "duration": 0.03278686666666886,
          "durationTicks": 8,
          "midi": 64,
          "name": "E4",
          "ticks": 43140,
          "time": 176.8031785,
          "velocity": 0.968503937007874
        },
        {
          "duration": 0.03278686666666886,
          "durationTicks": 8,
          "midi": 67,
          "name": "G4",
          "ticks": 43140,
          "time": 176.8031785,
          "velocity": 0.8976377952755905
        },
        {
          "duration": 0.10655731666665247,
          "durationTicks": 26,
          "midi": 64,
          "name": "E4",
          "ticks": 43200,
          "time": 177.04908,
          "velocity": 0.8110236220472441
        },
        {
          "duration": 0.11475403333332679,
          "durationTicks": 28,
          "midi": 67,
          "name": "G4",
          "ticks": 43200,
          "time": 177.04908,
          "velocity": 0.7952755905511811
        },
        {
          "duration": 0.045081941666637704,
          "durationTicks": 11,
          "midi": 64,
          "name": "E4",
          "ticks": 43380,
          "time": 177.7867845,
          "velocity": 0.6771653543307087
        },
        {
          "duration": 0.049180299999989074,
          "durationTicks": 12,
          "midi": 67,
          "name": "G4",
          "ticks": 43380,
          "time": 177.7867845,
          "velocity": 0.6692913385826772
        },
        {
          "duration": 0.10655731666665247,
          "durationTicks": 26,
          "midi": 64,
          "name": "E4",
          "ticks": 43440,
          "time": 178.03268599999998,
          "velocity": 0.7559055118110236
        },
        {
          "duration": 0.10245895833332952,
          "durationTicks": 25,
          "midi": 67,
          "name": "G4",
          "ticks": 43440,
          "time": 178.03268599999998,
          "velocity": 0.6220472440944882
        },
        {
          "duration": 0.10655731666665247,
          "durationTicks": 26,
          "midi": 64,
          "name": "E4",
          "ticks": 43620,
          "time": 178.7703905,
          "velocity": 0.8818897637795275
        },
        {
          "duration": 0.0860655250000093,
          "durationTicks": 21,
          "midi": 67,
          "name": "G4",
          "ticks": 43620,
          "time": 178.7703905,
          "velocity": 0.7716535433070866
        },
        {
          "duration": 0.15163925833334702,
          "durationTicks": 37,
          "midi": 64,
          "name": "E4",
          "ticks": 43740,
          "time": 179.2621935,
          "velocity": 0.8818897637795275
        },
        {
          "duration": 0.0942622416666552,
          "durationTicks": 23,
          "midi": 67,
          "name": "G4",
          "ticks": 43740,
          "time": 179.2621935,
          "velocity": 0.8110236220472441
        },
        {
          "duration": 0.045081941666637704,
          "durationTicks": 11,
          "midi": 64,
          "name": "E4",
          "ticks": 43860,
          "time": 179.7539965,
          "velocity": 0.6535433070866141
        },
        {
          "duration": 0.045081941666637704,
          "durationTicks": 11,
          "midi": 67,
          "name": "G4",
          "ticks": 43860,
          "time": 179.7539965,
          "velocity": 0.6929133858267716
        },
        {
          "duration": 0.11885239166667816,
          "durationTicks": 29,
          "midi": 64,
          "name": "E4",
          "ticks": 43920,
          "time": 179.999898,
          "velocity": 0.7559055118110236
        },
        {
          "duration": 0.07786880833333498,
          "durationTicks": 19,
          "midi": 67,
          "name": "G4",
          "ticks": 43920,
          "time": 179.999898,
          "velocity": 0.6141732283464567
        },
        {
          "duration": 0.032786866666640435,
          "durationTicks": 8,
          "midi": 64,
          "name": "E4",
          "ticks": 44100,
          "time": 180.7376025,
          "velocity": 0.968503937007874
        },
        {
          "duration": 0.032786866666640435,
          "durationTicks": 8,
          "midi": 67,
          "name": "G4",
          "ticks": 44100,
          "time": 180.7376025,
          "velocity": 0.8976377952755905
        },
        {
          "duration": 0.10655731666668089,
          "durationTicks": 26,
          "midi": 64,
          "name": "E4",
          "ticks": 44160,
          "time": 180.98350399999998,
          "velocity": 0.8110236220472441
        },
        {
          "duration": 0.11475403333335521,
          "durationTicks": 28,
          "midi": 67,
          "name": "G4",
          "ticks": 44160,
          "time": 180.98350399999998,
          "velocity": 0.7952755905511811
        },
        {
          "duration": 0.045081941666666125,
          "durationTicks": 11,
          "midi": 64,
          "name": "E4",
          "ticks": 44340,
          "time": 181.7212085,
          "velocity": 0.6771653543307087
        },
        {
          "duration": 0.049180300000017496,
          "durationTicks": 12,
          "midi": 67,
          "name": "G4",
          "ticks": 44340,
          "time": 181.7212085,
          "velocity": 0.6692913385826772
        },
        {
          "duration": 0.10655731666665247,
          "durationTicks": 26,
          "midi": 64,
          "name": "E4",
          "ticks": 44400,
          "time": 181.96711,
          "velocity": 0.7559055118110236
        },
        {
          "duration": 0.10245895833332952,
          "durationTicks": 25,
          "midi": 67,
          "name": "G4",
          "ticks": 44400,
          "time": 181.96711,
          "velocity": 0.6220472440944882
        },
        {
          "duration": 0.10655731666665247,
          "durationTicks": 26,
          "midi": 64,
          "name": "E4",
          "ticks": 44580,
          "time": 182.7048145,
          "velocity": 0.8818897637795275
        },
        {
          "duration": 0.0860655250000093,
          "durationTicks": 21,
          "midi": 67,
          "name": "G4",
          "ticks": 44580,
          "time": 182.7048145,
          "velocity": 0.7716535433070866
        },
        {
          "duration": 0.1516392583333186,
          "durationTicks": 37,
          "midi": 64,
          "name": "E4",
          "ticks": 44700,
          "time": 183.1966175,
          "velocity": 0.8818897637795275
        },
        {
          "duration": 0.0942622416666552,
          "durationTicks": 23,
          "midi": 67,
          "name": "G4",
          "ticks": 44700,
          "time": 183.1966175,
          "velocity": 0.8110236220472441
        },
        {
          "duration": 0.045081941666637704,
          "durationTicks": 11,
          "midi": 64,
          "name": "E4",
          "ticks": 44820,
          "time": 183.6884205,
          "velocity": 0.6535433070866141
        },
        {
          "duration": 0.045081941666637704,
          "durationTicks": 11,
          "midi": 67,
          "name": "G4",
          "ticks": 44820,
          "time": 183.6884205,
          "velocity": 0.6929133858267716
        },
        {
          "duration": 0.11885239166664974,
          "durationTicks": 29,
          "midi": 64,
          "name": "E4",
          "ticks": 44880,
          "time": 183.934322,
          "velocity": 0.7559055118110236
        },
        {
          "duration": 0.07786880833333498,
          "durationTicks": 19,
          "midi": 67,
          "name": "G4",
          "ticks": 44880,
          "time": 183.934322,
          "velocity": 0.6141732283464567
        },
        {
          "duration": 0.03278686666666886,
          "durationTicks": 8,
          "midi": 64,
          "name": "E4",
          "ticks": 45060,
          "time": 184.6720265,
          "velocity": 0.968503937007874
        },
        {
          "duration": 0.03278686666666886,
          "durationTicks": 8,
          "midi": 67,
          "name": "G4",
          "ticks": 45060,
          "time": 184.6720265,
          "velocity": 0.8976377952755905
        },
        {
          "duration": 0.10655731666665247,
          "durationTicks": 26,
          "midi": 64,
          "name": "E4",
          "ticks": 45120,
          "time": 184.917928,
          "velocity": 0.8110236220472441
        },
        {
          "duration": 0.11475403333335521,
          "durationTicks": 28,
          "midi": 67,
          "name": "G4",
          "ticks": 45120,
          "time": 184.917928,
          "velocity": 0.7952755905511811
        },
        {
          "duration": 0.045081941666666125,
          "durationTicks": 11,
          "midi": 64,
          "name": "E4",
          "ticks": 45300,
          "time": 185.6556325,
          "velocity": 0.6771653543307087
        },
        {
          "duration": 0.049180300000017496,
          "durationTicks": 12,
          "midi": 67,
          "name": "G4",
          "ticks": 45300,
          "time": 185.6556325,
          "velocity": 0.6692913385826772
        },
        {
          "duration": 0.10655731666665247,
          "durationTicks": 26,
          "midi": 64,
          "name": "E4",
          "ticks": 45360,
          "time": 185.901534,
          "velocity": 0.7559055118110236
        },
        {
          "duration": 0.10245895833332952,
          "durationTicks": 25,
          "midi": 67,
          "name": "G4",
          "ticks": 45360,
          "time": 185.901534,
          "velocity": 0.6220472440944882
        },
        {
          "duration": 0.10655731666665247,
          "durationTicks": 26,
          "midi": 64,
          "name": "E4",
          "ticks": 45540,
          "time": 186.6392385,
          "velocity": 0.8818897637795275
        },
        {
          "duration": 0.0860655250000093,
          "durationTicks": 21,
          "midi": 67,
          "name": "G4",
          "ticks": 45540,
          "time": 186.6392385,
          "velocity": 0.7716535433070866
        },
        {
          "duration": 0.1516392583333186,
          "durationTicks": 37,
          "midi": 64,
          "name": "E4",
          "ticks": 45660,
          "time": 187.1310415,
          "velocity": 0.8818897637795275
        },
        {
          "duration": 0.0942622416666552,
          "durationTicks": 23,
          "midi": 67,
          "name": "G4",
          "ticks": 45660,
          "time": 187.1310415,
          "velocity": 0.8110236220472441
        },
        {
          "duration": 0.045081941666666125,
          "durationTicks": 11,
          "midi": 64,
          "name": "E4",
          "ticks": 45780,
          "time": 187.62284449999999,
          "velocity": 0.6535433070866141
        },
        {
          "duration": 0.045081941666666125,
          "durationTicks": 11,
          "midi": 67,
          "name": "G4",
          "ticks": 45780,
          "time": 187.62284449999999,
          "velocity": 0.6929133858267716
        },
        {
          "duration": 0.11885239166667816,
          "durationTicks": 29,
          "midi": 64,
          "name": "E4",
          "ticks": 45840,
          "time": 187.868746,
          "velocity": 0.7559055118110236
        },
        {
          "duration": 0.0778688083333634,
          "durationTicks": 19,
          "midi": 67,
          "name": "G4",
          "ticks": 45840,
          "time": 187.868746,
          "velocity": 0.6141732283464567
        },
        {
          "duration": 0.03278686666666886,
          "durationTicks": 8,
          "midi": 64,
          "name": "E4",
          "ticks": 46020,
          "time": 188.6064505,
          "velocity": 0.968503937007874
        },
        {
          "duration": 0.03278686666666886,
          "durationTicks": 8,
          "midi": 67,
          "name": "G4",
          "ticks": 46020,
          "time": 188.6064505,
          "velocity": 0.8976377952755905
        },
        {
          "duration": 0.10655731666665247,
          "durationTicks": 26,
          "midi": 64,
          "name": "E4",
          "ticks": 46080,
          "time": 188.852352,
          "velocity": 0.8110236220472441
        },
        {
          "duration": 0.11475403333332679,
          "durationTicks": 28,
          "midi": 67,
          "name": "G4",
          "ticks": 46080,
          "time": 188.852352,
          "velocity": 0.7952755905511811
        },
        {
          "duration": 0.045081941666637704,
          "durationTicks": 11,
          "midi": 64,
          "name": "E4",
          "ticks": 46260,
          "time": 189.5900565,
          "velocity": 0.6771653543307087
        },
        {
          "duration": 0.049180300000017496,
          "durationTicks": 12,
          "midi": 67,
          "name": "G4",
          "ticks": 46260,
          "time": 189.5900565,
          "velocity": 0.6692913385826772
        },
        {
          "duration": 0.10655731666665247,
          "durationTicks": 26,
          "midi": 64,
          "name": "E4",
          "ticks": 46320,
          "time": 189.835958,
          "velocity": 0.7559055118110236
        },
        {
          "duration": 0.1024589583333011,
          "durationTicks": 25,
          "midi": 67,
          "name": "G4",
          "ticks": 46320,
          "time": 189.835958,
          "velocity": 0.6220472440944882
        },
        {
          "duration": 0.10655731666665247,
          "durationTicks": 26,
          "midi": 64,
          "name": "E4",
          "ticks": 46500,
          "time": 190.57366249999998,
          "velocity": 0.8818897637795275
        },
        {
          "duration": 0.0860655250000093,
          "durationTicks": 21,
          "midi": 67,
          "name": "G4",
          "ticks": 46500,
          "time": 190.57366249999998,
          "velocity": 0.7716535433070866
        },
        {
          "duration": 0.15163925833334702,
          "durationTicks": 37,
          "midi": 64,
          "name": "E4",
          "ticks": 46620,
          "time": 191.0654655,
          "velocity": 0.8818897637795275
        },
        {
          "duration": 0.09426224166668362,
          "durationTicks": 23,
          "midi": 67,
          "name": "G4",
          "ticks": 46620,
          "time": 191.0654655,
          "velocity": 0.8110236220472441
        },
        {
          "duration": 0.045081941666666125,
          "durationTicks": 11,
          "midi": 64,
          "name": "E4",
          "ticks": 46740,
          "time": 191.5572685,
          "velocity": 0.6535433070866141
        },
        {
          "duration": 0.045081941666666125,
          "durationTicks": 11,
          "midi": 67,
          "name": "G4",
          "ticks": 46740,
          "time": 191.5572685,
          "velocity": 0.6929133858267716
        },
        {
          "duration": 0.11885239166667816,
          "durationTicks": 29,
          "midi": 64,
          "name": "E4",
          "ticks": 46800,
          "time": 191.80317,
          "velocity": 0.7559055118110236
        },
        {
          "duration": 0.07786880833333498,
          "durationTicks": 19,
          "midi": 67,
          "name": "G4",
          "ticks": 46800,
          "time": 191.80317,
          "velocity": 0.6141732283464567
        },
        {
          "duration": 0.03278686666666886,
          "durationTicks": 8,
          "midi": 64,
          "name": "E4",
          "ticks": 46980,
          "time": 192.5408745,
          "velocity": 0.968503937007874
        },
        {
          "duration": 0.03278686666666886,
          "durationTicks": 8,
          "midi": 67,
          "name": "G4",
          "ticks": 46980,
          "time": 192.5408745,
          "velocity": 0.8976377952755905
        },
        {
          "duration": 0.10655731666665247,
          "durationTicks": 26,
          "midi": 64,
          "name": "E4",
          "ticks": 47040,
          "time": 192.786776,
          "velocity": 0.8110236220472441
        },
        {
          "duration": 0.11475403333332679,
          "durationTicks": 28,
          "midi": 67,
          "name": "G4",
          "ticks": 47040,
          "time": 192.786776,
          "velocity": 0.7952755905511811
        },
        {
          "duration": 0.045081941666637704,
          "durationTicks": 11,
          "midi": 64,
          "name": "E4",
          "ticks": 47220,
          "time": 193.5244805,
          "velocity": 0.6771653543307087
        },
        {
          "duration": 0.049180299999989074,
          "durationTicks": 12,
          "midi": 67,
          "name": "G4",
          "ticks": 47220,
          "time": 193.5244805,
          "velocity": 0.6692913385826772
        },
        {
          "duration": 0.10655731666665247,
          "durationTicks": 26,
          "midi": 64,
          "name": "E4",
          "ticks": 47280,
          "time": 193.77038199999998,
          "velocity": 0.7559055118110236
        },
        {
          "duration": 0.10245895833332952,
          "durationTicks": 25,
          "midi": 67,
          "name": "G4",
          "ticks": 47280,
          "time": 193.77038199999998,
          "velocity": 0.6220472440944882
        },
        {
          "duration": 0.10655731666665247,
          "durationTicks": 26,
          "midi": 64,
          "name": "E4",
          "ticks": 47460,
          "time": 194.5080865,
          "velocity": 0.8818897637795275
        },
        {
          "duration": 0.0860655250000093,
          "durationTicks": 21,
          "midi": 67,
          "name": "G4",
          "ticks": 47460,
          "time": 194.5080865,
          "velocity": 0.7716535433070866
        },
        {
          "duration": 0.15163925833334702,
          "durationTicks": 37,
          "midi": 64,
          "name": "E4",
          "ticks": 47580,
          "time": 194.9998895,
          "velocity": 0.8818897637795275
        },
        {
          "duration": 0.0942622416666552,
          "durationTicks": 23,
          "midi": 67,
          "name": "G4",
          "ticks": 47580,
          "time": 194.9998895,
          "velocity": 0.8110236220472441
        },
        {
          "duration": 0.045081941666637704,
          "durationTicks": 11,
          "midi": 64,
          "name": "E4",
          "ticks": 47700,
          "time": 195.4916925,
          "velocity": 0.6535433070866141
        },
        {
          "duration": 0.045081941666637704,
          "durationTicks": 11,
          "midi": 67,
          "name": "G4",
          "ticks": 47700,
          "time": 195.4916925,
          "velocity": 0.6929133858267716
        },
        {
          "duration": 0.11885239166667816,
          "durationTicks": 29,
          "midi": 64,
          "name": "E4",
          "ticks": 47760,
          "time": 195.737594,
          "velocity": 0.7559055118110236
        },
        {
          "duration": 0.07786880833333498,
          "durationTicks": 19,
          "midi": 67,
          "name": "G4",
          "ticks": 47760,
          "time": 195.737594,
          "velocity": 0.6141732283464567
        },
        {
          "duration": 0.032786866666640435,
          "durationTicks": 8,
          "midi": 64,
          "name": "E4",
          "ticks": 47940,
          "time": 196.4752985,
          "velocity": 0.968503937007874
        },
        {
          "duration": 0.032786866666640435,
          "durationTicks": 8,
          "midi": 67,
          "name": "G4",
          "ticks": 47940,
          "time": 196.4752985,
          "velocity": 0.8976377952755905
        },
        {
          "duration": 0.10655731666665247,
          "durationTicks": 26,
          "midi": 64,
          "name": "E4",
          "ticks": 48000,
          "time": 196.7212,
          "velocity": 0.8110236220472441
        },
        {
          "duration": 0.11475403333332679,
          "durationTicks": 28,
          "midi": 67,
          "name": "G4",
          "ticks": 48000,
          "time": 196.7212,
          "velocity": 0.7952755905511811
        },
        {
          "duration": 0.045081941666666125,
          "durationTicks": 11,
          "midi": 64,
          "name": "E4",
          "ticks": 48180,
          "time": 197.4589045,
          "velocity": 0.6771653543307087
        },
        {
          "duration": 0.049180300000017496,
          "durationTicks": 12,
          "midi": 67,
          "name": "G4",
          "ticks": 48180,
          "time": 197.4589045,
          "velocity": 0.6692913385826772
        },
        {
          "duration": 0.10655731666665247,
          "durationTicks": 26,
          "midi": 64,
          "name": "E4",
          "ticks": 48240,
          "time": 197.704806,
          "velocity": 0.7559055118110236
        },
        {
          "duration": 0.10245895833332952,
          "durationTicks": 25,
          "midi": 67,
          "name": "G4",
          "ticks": 48240,
          "time": 197.704806,
          "velocity": 0.6220472440944882
        },
        {
          "duration": 0.10655731666665247,
          "durationTicks": 26,
          "midi": 64,
          "name": "E4",
          "ticks": 48420,
          "time": 198.4425105,
          "velocity": 0.8818897637795275
        },
        {
          "duration": 0.0860655250000093,
          "durationTicks": 21,
          "midi": 67,
          "name": "G4",
          "ticks": 48420,
          "time": 198.4425105,
          "velocity": 0.7716535433070866
        },
        {
          "duration": 0.1516392583333186,
          "durationTicks": 37,
          "midi": 64,
          "name": "E4",
          "ticks": 48540,
          "time": 198.9343135,
          "velocity": 0.8818897637795275
        },
        {
          "duration": 0.0942622416666552,
          "durationTicks": 23,
          "midi": 67,
          "name": "G4",
          "ticks": 48540,
          "time": 198.9343135,
          "velocity": 0.8110236220472441
        },
        {
          "duration": 0.045081941666637704,
          "durationTicks": 11,
          "midi": 64,
          "name": "E4",
          "ticks": 48660,
          "time": 199.4261165,
          "velocity": 0.6535433070866141
        },
        {
          "duration": 0.045081941666637704,
          "durationTicks": 11,
          "midi": 67,
          "name": "G4",
          "ticks": 48660,
          "time": 199.4261165,
          "velocity": 0.6929133858267716
        },
        {
          "duration": 0.11885239166664974,
          "durationTicks": 29,
          "midi": 64,
          "name": "E4",
          "ticks": 48720,
          "time": 199.672018,
          "velocity": 0.7559055118110236
        },
        {
          "duration": 0.07786880833333498,
          "durationTicks": 19,
          "midi": 67,
          "name": "G4",
          "ticks": 48720,
          "time": 199.672018,
          "velocity": 0.6141732283464567
        },
        {
          "duration": 0.03278686666666886,
          "durationTicks": 8,
          "midi": 64,
          "name": "E4",
          "ticks": 48900,
          "time": 200.4097225,
          "velocity": 0.968503937007874
        },
        {
          "duration": 0.03278686666666886,
          "durationTicks": 8,
          "midi": 67,
          "name": "G4",
          "ticks": 48900,
          "time": 200.4097225,
          "velocity": 0.8976377952755905
        },
        {
          "duration": 0.10655731666665247,
          "durationTicks": 26,
          "midi": 64,
          "name": "E4",
          "ticks": 48960,
          "time": 200.655624,
          "velocity": 0.8110236220472441
        },
        {
          "duration": 0.11475403333335521,
          "durationTicks": 28,
          "midi": 67,
          "name": "G4",
          "ticks": 48960,
          "time": 200.655624,
          "velocity": 0.7952755905511811
        },
        {
          "duration": 0.045081941666666125,
          "durationTicks": 11,
          "midi": 64,
          "name": "E4",
          "ticks": 49140,
          "time": 201.3933285,
          "velocity": 0.6771653543307087
        },
        {
          "duration": 0.049180300000017496,
          "durationTicks": 12,
          "midi": 67,
          "name": "G4",
          "ticks": 49140,
          "time": 201.3933285,
          "velocity": 0.6692913385826772
        },
        {
          "duration": 0.10655731666665247,
          "durationTicks": 26,
          "midi": 64,
          "name": "E4",
          "ticks": 49200,
          "time": 201.63923,
          "velocity": 0.7559055118110236
        },
        {
          "duration": 0.10245895833332952,
          "durationTicks": 25,
          "midi": 67,
          "name": "G4",
          "ticks": 49200,
          "time": 201.63923,
          "velocity": 0.6220472440944882
        },
        {
          "duration": 0.10655731666665247,
          "durationTicks": 26,
          "midi": 64,
          "name": "E4",
          "ticks": 49380,
          "time": 202.3769345,
          "velocity": 0.8818897637795275
        },
        {
          "duration": 0.0860655250000093,
          "durationTicks": 21,
          "midi": 67,
          "name": "G4",
          "ticks": 49380,
          "time": 202.3769345,
          "velocity": 0.7716535433070866
        },
        {
          "duration": 0.1516392583333186,
          "durationTicks": 37,
          "midi": 64,
          "name": "E4",
          "ticks": 49500,
          "time": 202.8687375,
          "velocity": 0.8818897637795275
        },
        {
          "duration": 0.0942622416666552,
          "durationTicks": 23,
          "midi": 67,
          "name": "G4",
          "ticks": 49500,
          "time": 202.8687375,
          "velocity": 0.8110236220472441
        },
        {
          "duration": 0.045081941666666125,
          "durationTicks": 11,
          "midi": 64,
          "name": "E4",
          "ticks": 49620,
          "time": 203.36054049999998,
          "velocity": 0.6535433070866141
        },
        {
          "duration": 0.045081941666666125,
          "durationTicks": 11,
          "midi": 67,
          "name": "G4",
          "ticks": 49620,
          "time": 203.36054049999998,
          "velocity": 0.6929133858267716
        },
        {
          "duration": 0.11885239166667816,
          "durationTicks": 29,
          "midi": 64,
          "name": "E4",
          "ticks": 49680,
          "time": 203.606442,
          "velocity": 0.7559055118110236
        },
        {
          "duration": 0.0778688083333634,
          "durationTicks": 19,
          "midi": 67,
          "name": "G4",
          "ticks": 49680,
          "time": 203.606442,
          "velocity": 0.6141732283464567
        },
        {
          "duration": 0.03278686666666886,
          "durationTicks": 8,
          "midi": 64,
          "name": "E4",
          "ticks": 49860,
          "time": 204.3441465,
          "velocity": 0.968503937007874
        },
        {
          "duration": 0.03278686666666886,
          "durationTicks": 8,
          "midi": 67,
          "name": "G4",
          "ticks": 49860,
          "time": 204.3441465,
          "velocity": 0.8976377952755905
        },
        {
          "duration": 0.10655731666665247,
          "durationTicks": 26,
          "midi": 64,
          "name": "E4",
          "ticks": 49920,
          "time": 204.590048,
          "velocity": 0.8110236220472441
        },
        {
          "duration": 0.11475403333332679,
          "durationTicks": 28,
          "midi": 67,
          "name": "G4",
          "ticks": 49920,
          "time": 204.590048,
          "velocity": 0.7952755905511811
        },
        {
          "duration": 0.045081941666637704,
          "durationTicks": 11,
          "midi": 64,
          "name": "E4",
          "ticks": 50100,
          "time": 205.3277525,
          "velocity": 0.6771653543307087
        },
        {
          "duration": 0.049180300000017496,
          "durationTicks": 12,
          "midi": 67,
          "name": "G4",
          "ticks": 50100,
          "time": 205.3277525,
          "velocity": 0.6692913385826772
        },
        {
          "duration": 0.10655731666665247,
          "durationTicks": 26,
          "midi": 64,
          "name": "E4",
          "ticks": 50160,
          "time": 205.573654,
          "velocity": 0.7559055118110236
        },
        {
          "duration": 0.1024589583333011,
          "durationTicks": 25,
          "midi": 67,
          "name": "G4",
          "ticks": 50160,
          "time": 205.573654,
          "velocity": 0.6220472440944882
        },
        {
          "duration": 0.10655731666665247,
          "durationTicks": 26,
          "midi": 64,
          "name": "E4",
          "ticks": 50340,
          "time": 206.31135849999998,
          "velocity": 0.8818897637795275
        },
        {
          "duration": 0.0860655250000093,
          "durationTicks": 21,
          "midi": 67,
          "name": "G4",
          "ticks": 50340,
          "time": 206.31135849999998,
          "velocity": 0.7716535433070866
        },
        {
          "duration": 0.15163925833334702,
          "durationTicks": 37,
          "midi": 64,
          "name": "E4",
          "ticks": 50460,
          "time": 206.8031615,
          "velocity": 0.8818897637795275
        },
        {
          "duration": 0.09426224166668362,
          "durationTicks": 23,
          "midi": 67,
          "name": "G4",
          "ticks": 50460,
          "time": 206.8031615,
          "velocity": 0.8110236220472441
        },
        {
          "duration": 0.045081941666666125,
          "durationTicks": 11,
          "midi": 64,
          "name": "E4",
          "ticks": 50580,
          "time": 207.2949645,
          "velocity": 0.6535433070866141
        },
        {
          "duration": 0.045081941666666125,
          "durationTicks": 11,
          "midi": 67,
          "name": "G4",
          "ticks": 50580,
          "time": 207.2949645,
          "velocity": 0.6929133858267716
        },
        {
          "duration": 0.11885239166667816,
          "durationTicks": 29,
          "midi": 64,
          "name": "E4",
          "ticks": 50640,
          "time": 207.540866,
          "velocity": 0.7559055118110236
        },
        {
          "duration": 0.07786880833333498,
          "durationTicks": 19,
          "midi": 67,
          "name": "G4",
          "ticks": 50640,
          "time": 207.540866,
          "velocity": 0.6141732283464567
        },
        {
          "duration": 0.03278686666666886,
          "durationTicks": 8,
          "midi": 64,
          "name": "E4",
          "ticks": 50820,
          "time": 208.2785705,
          "velocity": 0.968503937007874
        },
        {
          "duration": 0.03278686666666886,
          "durationTicks": 8,
          "midi": 67,
          "name": "G4",
          "ticks": 50820,
          "time": 208.2785705,
          "velocity": 0.8976377952755905
        },
        {
          "duration": 0.10655731666665247,
          "durationTicks": 26,
          "midi": 64,
          "name": "E4",
          "ticks": 50880,
          "time": 208.524472,
          "velocity": 0.8110236220472441
        },
        {
          "duration": 0.11475403333332679,
          "durationTicks": 28,
          "midi": 67,
          "name": "G4",
          "ticks": 50880,
          "time": 208.524472,
          "velocity": 0.7952755905511811
        },
        {
          "duration": 0.045081941666637704,
          "durationTicks": 11,
          "midi": 64,
          "name": "E4",
          "ticks": 51060,
          "time": 209.2621765,
          "velocity": 0.6771653543307087
        },
        {
          "duration": 0.049180299999989074,
          "durationTicks": 12,
          "midi": 67,
          "name": "G4",
          "ticks": 51060,
          "time": 209.2621765,
          "velocity": 0.6692913385826772
        },
        {
          "duration": 0.10655731666665247,
          "durationTicks": 26,
          "midi": 64,
          "name": "E4",
          "ticks": 51120,
          "time": 209.50807799999998,
          "velocity": 0.7559055118110236
        },
        {
          "duration": 0.10245895833332952,
          "durationTicks": 25,
          "midi": 67,
          "name": "G4",
          "ticks": 51120,
          "time": 209.50807799999998,
          "velocity": 0.6220472440944882
        },
        {
          "duration": 0.10655731666665247,
          "durationTicks": 26,
          "midi": 64,
          "name": "E4",
          "ticks": 51300,
          "time": 210.2457825,
          "velocity": 0.8818897637795275
        },
        {
          "duration": 0.0860655250000093,
          "durationTicks": 21,
          "midi": 67,
          "name": "G4",
          "ticks": 51300,
          "time": 210.2457825,
          "velocity": 0.7716535433070866
        },
        {
          "duration": 0.15163925833334702,
          "durationTicks": 37,
          "midi": 64,
          "name": "E4",
          "ticks": 51420,
          "time": 210.7375855,
          "velocity": 0.8818897637795275
        },
        {
          "duration": 0.0942622416666552,
          "durationTicks": 23,
          "midi": 67,
          "name": "G4",
          "ticks": 51420,
          "time": 210.7375855,
          "velocity": 0.8110236220472441
        },
        {
          "duration": 0.045081941666637704,
          "durationTicks": 11,
          "midi": 64,
          "name": "E4",
          "ticks": 51540,
          "time": 211.2293885,
          "velocity": 0.6535433070866141
        },
        {
          "duration": 0.045081941666637704,
          "durationTicks": 11,
          "midi": 67,
          "name": "G4",
          "ticks": 51540,
          "time": 211.2293885,
          "velocity": 0.6929133858267716
        },
        {
          "duration": 0.11885239166667816,
          "durationTicks": 29,
          "midi": 64,
          "name": "E4",
          "ticks": 51600,
          "time": 211.47529,
          "velocity": 0.7559055118110236
        },
        {
          "duration": 0.07786880833333498,
          "durationTicks": 19,
          "midi": 67,
          "name": "G4",
          "ticks": 51600,
          "time": 211.47529,
          "velocity": 0.6141732283464567
        },
        {
          "duration": 0.032786866666640435,
          "durationTicks": 8,
          "midi": 64,
          "name": "E4",
          "ticks": 51780,
          "time": 212.2129945,
          "velocity": 0.968503937007874
        },
        {
          "duration": 0.032786866666640435,
          "durationTicks": 8,
          "midi": 67,
          "name": "G4",
          "ticks": 51780,
          "time": 212.2129945,
          "velocity": 0.8976377952755905
        },
        {
          "duration": 0.10655731666668089,
          "durationTicks": 26,
          "midi": 64,
          "name": "E4",
          "ticks": 51840,
          "time": 212.45889599999998,
          "velocity": 0.8110236220472441
        },
        {
          "duration": 0.11475403333335521,
          "durationTicks": 28,
          "midi": 67,
          "name": "G4",
          "ticks": 51840,
          "time": 212.45889599999998,
          "velocity": 0.7952755905511811
        },
        {
          "duration": 0.045081941666666125,
          "durationTicks": 11,
          "midi": 64,
          "name": "E4",
          "ticks": 52020,
          "time": 213.1966005,
          "velocity": 0.6771653543307087
        },
        {
          "duration": 0.049180300000017496,
          "durationTicks": 12,
          "midi": 67,
          "name": "G4",
          "ticks": 52020,
          "time": 213.1966005,
          "velocity": 0.6692913385826772
        },
        {
          "duration": 0.10655731666665247,
          "durationTicks": 26,
          "midi": 64,
          "name": "E4",
          "ticks": 52080,
          "time": 213.442502,
          "velocity": 0.7559055118110236
        },
        {
          "duration": 0.10245895833332952,
          "durationTicks": 25,
          "midi": 67,
          "name": "G4",
          "ticks": 52080,
          "time": 213.442502,
          "velocity": 0.6220472440944882
        },
        {
          "duration": 0.10655731666665247,
          "durationTicks": 26,
          "midi": 64,
          "name": "E4",
          "ticks": 52260,
          "time": 214.1802065,
          "velocity": 0.8818897637795275
        },
        {
          "duration": 0.0860655250000093,
          "durationTicks": 21,
          "midi": 67,
          "name": "G4",
          "ticks": 52260,
          "time": 214.1802065,
          "velocity": 0.7716535433070866
        },
        {
          "duration": 0.1516392583333186,
          "durationTicks": 37,
          "midi": 64,
          "name": "E4",
          "ticks": 52380,
          "time": 214.6720095,
          "velocity": 0.8818897637795275
        },
        {
          "duration": 0.0942622416666552,
          "durationTicks": 23,
          "midi": 67,
          "name": "G4",
          "ticks": 52380,
          "time": 214.6720095,
          "velocity": 0.8110236220472441
        },
        {
          "duration": 0.045081941666637704,
          "durationTicks": 11,
          "midi": 64,
          "name": "E4",
          "ticks": 52500,
          "time": 215.1638125,
          "velocity": 0.6535433070866141
        },
        {
          "duration": 0.045081941666637704,
          "durationTicks": 11,
          "midi": 67,
          "name": "G4",
          "ticks": 52500,
          "time": 215.1638125,
          "velocity": 0.6929133858267716
        },
        {
          "duration": 0.11885239166664974,
          "durationTicks": 29,
          "midi": 64,
          "name": "E4",
          "ticks": 52560,
          "time": 215.409714,
          "velocity": 0.7559055118110236
        },
        {
          "duration": 0.07786880833333498,
          "durationTicks": 19,
          "midi": 67,
          "name": "G4",
          "ticks": 52560,
          "time": 215.409714,
          "velocity": 0.6141732283464567
        },
        {
          "duration": 0.03278686666666886,
          "durationTicks": 8,
          "midi": 64,
          "name": "E4",
          "ticks": 52740,
          "time": 216.1474185,
          "velocity": 0.968503937007874
        },
        {
          "duration": 0.03278686666666886,
          "durationTicks": 8,
          "midi": 67,
          "name": "G4",
          "ticks": 52740,
          "time": 216.1474185,
          "velocity": 0.8976377952755905
        },
        {
          "duration": 0.10655731666665247,
          "durationTicks": 26,
          "midi": 64,
          "name": "E4",
          "ticks": 52800,
          "time": 216.39332,
          "velocity": 0.8110236220472441
        },
        {
          "duration": 0.11475403333335521,
          "durationTicks": 28,
          "midi": 67,
          "name": "G4",
          "ticks": 52800,
          "time": 216.39332,
          "velocity": 0.7952755905511811
        },
        {
          "duration": 0.045081941666666125,
          "durationTicks": 11,
          "midi": 64,
          "name": "E4",
          "ticks": 52980,
          "time": 217.1310245,
          "velocity": 0.6771653543307087
        },
        {
          "duration": 0.049180300000017496,
          "durationTicks": 12,
          "midi": 67,
          "name": "G4",
          "ticks": 52980,
          "time": 217.1310245,
          "velocity": 0.6692913385826772
        },
        {
          "duration": 0.10655731666665247,
          "durationTicks": 26,
          "midi": 64,
          "name": "E4",
          "ticks": 53040,
          "time": 217.376926,
          "velocity": 0.7559055118110236
        },
        {
          "duration": 0.10245895833332952,
          "durationTicks": 25,
          "midi": 67,
          "name": "G4",
          "ticks": 53040,
          "time": 217.376926,
          "velocity": 0.6220472440944882
        },
        {
          "duration": 0.10655731666665247,
          "durationTicks": 26,
          "midi": 64,
          "name": "E4",
          "ticks": 53220,
          "time": 218.1146305,
          "velocity": 0.8818897637795275
        },
        {
          "duration": 0.0860655250000093,
          "durationTicks": 21,
          "midi": 67,
          "name": "G4",
          "ticks": 53220,
          "time": 218.1146305,
          "velocity": 0.7716535433070866
        },
        {
          "duration": 0.1516392583333186,
          "durationTicks": 37,
          "midi": 64,
          "name": "E4",
          "ticks": 53340,
          "time": 218.6064335,
          "velocity": 0.8818897637795275
        },
        {
          "duration": 0.0942622416666552,
          "durationTicks": 23,
          "midi": 67,
          "name": "G4",
          "ticks": 53340,
          "time": 218.6064335,
          "velocity": 0.8110236220472441
        },
        {
          "duration": 0.045081941666666125,
          "durationTicks": 11,
          "midi": 64,
          "name": "E4",
          "ticks": 53460,
          "time": 219.09823649999998,
          "velocity": 0.6535433070866141
        },
        {
          "duration": 0.045081941666666125,
          "durationTicks": 11,
          "midi": 67,
          "name": "G4",
          "ticks": 53460,
          "time": 219.09823649999998,
          "velocity": 0.6929133858267716
        },
        {
          "duration": 0.11885239166667816,
          "durationTicks": 29,
          "midi": 64,
          "name": "E4",
          "ticks": 53520,
          "time": 219.344138,
          "velocity": 0.7559055118110236
        },
        {
          "duration": 0.0778688083333634,
          "durationTicks": 19,
          "midi": 67,
          "name": "G4",
          "ticks": 53520,
          "time": 219.344138,
          "velocity": 0.6141732283464567
        },
        {
          "duration": 0.03278686666666886,
          "durationTicks": 8,
          "midi": 64,
          "name": "E4",
          "ticks": 53700,
          "time": 220.0818425,
          "velocity": 0.968503937007874
        },
        {
          "duration": 0.03278686666666886,
          "durationTicks": 8,
          "midi": 67,
          "name": "G4",
          "ticks": 53700,
          "time": 220.0818425,
          "velocity": 0.8976377952755905
        },
        {
          "duration": 0.10655731666665247,
          "durationTicks": 26,
          "midi": 64,
          "name": "E4",
          "ticks": 53760,
          "time": 220.327744,
          "velocity": 0.8110236220472441
        },
        {
          "duration": 0.11475403333332679,
          "durationTicks": 28,
          "midi": 67,
          "name": "G4",
          "ticks": 53760,
          "time": 220.327744,
          "velocity": 0.7952755905511811
        },
        {
          "duration": 0.045081941666637704,
          "durationTicks": 11,
          "midi": 64,
          "name": "E4",
          "ticks": 53940,
          "time": 221.0654485,
          "velocity": 0.6771653543307087
        },
        {
          "duration": 0.049180300000017496,
          "durationTicks": 12,
          "midi": 67,
          "name": "G4",
          "ticks": 53940,
          "time": 221.0654485,
          "velocity": 0.6692913385826772
        },
        {
          "duration": 0.10655731666665247,
          "durationTicks": 26,
          "midi": 64,
          "name": "E4",
          "ticks": 54000,
          "time": 221.31135,
          "velocity": 0.7559055118110236
        },
        {
          "duration": 0.1024589583333011,
          "durationTicks": 25,
          "midi": 67,
          "name": "G4",
          "ticks": 54000,
          "time": 221.31135,
          "velocity": 0.6220472440944882
        },
        {
          "duration": 0.10655731666665247,
          "durationTicks": 26,
          "midi": 64,
          "name": "E4",
          "ticks": 54180,
          "time": 222.04905449999998,
          "velocity": 0.8818897637795275
        },
        {
          "duration": 0.0860655250000093,
          "durationTicks": 21,
          "midi": 67,
          "name": "G4",
          "ticks": 54180,
          "time": 222.04905449999998,
          "velocity": 0.7716535433070866
        },
        {
          "duration": 0.15163925833334702,
          "durationTicks": 37,
          "midi": 64,
          "name": "E4",
          "ticks": 54300,
          "time": 222.5408575,
          "velocity": 0.8818897637795275
        },
        {
          "duration": 0.09426224166668362,
          "durationTicks": 23,
          "midi": 67,
          "name": "G4",
          "ticks": 54300,
          "time": 222.5408575,
          "velocity": 0.8110236220472441
        },
        {
          "duration": 0.045081941666666125,
          "durationTicks": 11,
          "midi": 64,
          "name": "E4",
          "ticks": 54420,
          "time": 223.0326605,
          "velocity": 0.6535433070866141
        },
        {
          "duration": 0.045081941666666125,
          "durationTicks": 11,
          "midi": 67,
          "name": "G4",
          "ticks": 54420,
          "time": 223.0326605,
          "velocity": 0.6929133858267716
        },
        {
          "duration": 0.11885239166667816,
          "durationTicks": 29,
          "midi": 64,
          "name": "E4",
          "ticks": 54480,
          "time": 223.278562,
          "velocity": 0.7559055118110236
        },
        {
          "duration": 0.07786880833333498,
          "durationTicks": 19,
          "midi": 67,
          "name": "G4",
          "ticks": 54480,
          "time": 223.278562,
          "velocity": 0.6141732283464567
        },
        {
          "duration": 0.03278686666666886,
          "durationTicks": 8,
          "midi": 64,
          "name": "E4",
          "ticks": 54660,
          "time": 224.0162665,
          "velocity": 0.968503937007874
        },
        {
          "duration": 0.03278686666666886,
          "durationTicks": 8,
          "midi": 67,
          "name": "G4",
          "ticks": 54660,
          "time": 224.0162665,
          "velocity": 0.8976377952755905
        },
        {
          "duration": 0.10655731666665247,
          "durationTicks": 26,
          "midi": 64,
          "name": "E4",
          "ticks": 54720,
          "time": 224.262168,
          "velocity": 0.8110236220472441
        },
        {
          "duration": 0.11475403333332679,
          "durationTicks": 28,
          "midi": 67,
          "name": "G4",
          "ticks": 54720,
          "time": 224.262168,
          "velocity": 0.7952755905511811
        },
        {
          "duration": 0.045081941666637704,
          "durationTicks": 11,
          "midi": 64,
          "name": "E4",
          "ticks": 54900,
          "time": 224.9998725,
          "velocity": 0.6771653543307087
        },
        {
          "duration": 0.049180299999989074,
          "durationTicks": 12,
          "midi": 67,
          "name": "G4",
          "ticks": 54900,
          "time": 224.9998725,
          "velocity": 0.6692913385826772
        },
        {
          "duration": 0.10655731666665247,
          "durationTicks": 26,
          "midi": 64,
          "name": "E4",
          "ticks": 54960,
          "time": 225.24577399999998,
          "velocity": 0.7559055118110236
        },
        {
          "duration": 0.10245895833332952,
          "durationTicks": 25,
          "midi": 67,
          "name": "G4",
          "ticks": 54960,
          "time": 225.24577399999998,
          "velocity": 0.6220472440944882
        },
        {
          "duration": 0.10655731666665247,
          "durationTicks": 26,
          "midi": 64,
          "name": "E4",
          "ticks": 55140,
          "time": 225.9834785,
          "velocity": 0.8818897637795275
        },
        {
          "duration": 0.0860655250000093,
          "durationTicks": 21,
          "midi": 67,
          "name": "G4",
          "ticks": 55140,
          "time": 225.9834785,
          "velocity": 0.7716535433070866
        },
        {
          "duration": 0.15163925833334702,
          "durationTicks": 37,
          "midi": 64,
          "name": "E4",
          "ticks": 55260,
          "time": 226.4752815,
          "velocity": 0.8818897637795275
        },
        {
          "duration": 0.0942622416666552,
          "durationTicks": 23,
          "midi": 67,
          "name": "G4",
          "ticks": 55260,
          "time": 226.4752815,
          "velocity": 0.8110236220472441
        },
        {
          "duration": 0.045081941666637704,
          "durationTicks": 11,
          "midi": 64,
          "name": "E4",
          "ticks": 55380,
          "time": 226.9670845,
          "velocity": 0.6535433070866141
        },
        {
          "duration": 0.045081941666637704,
          "durationTicks": 11,
          "midi": 67,
          "name": "G4",
          "ticks": 55380,
          "time": 226.9670845,
          "velocity": 0.6929133858267716
        },
        {
          "duration": 0.11885239166667816,
          "durationTicks": 29,
          "midi": 64,
          "name": "E4",
          "ticks": 55440,
          "time": 227.212986,
          "velocity": 0.7559055118110236
        },
        {
          "duration": 0.07786880833333498,
          "durationTicks": 19,
          "midi": 67,
          "name": "G4",
          "ticks": 55440,
          "time": 227.212986,
          "velocity": 0.6141732283464567
        },
        {
          "duration": 0.032786866666640435,
          "durationTicks": 8,
          "midi": 64,
          "name": "E4",
          "ticks": 55620,
          "time": 227.9506905,
          "velocity": 0.968503937007874
        },
        {
          "duration": 0.032786866666640435,
          "durationTicks": 8,
          "midi": 67,
          "name": "G4",
          "ticks": 55620,
          "time": 227.9506905,
          "velocity": 0.8976377952755905
        },
        {
          "duration": 0.10655731666665247,
          "durationTicks": 26,
          "midi": 64,
          "name": "E4",
          "ticks": 55680,
          "time": 228.196592,
          "velocity": 0.8110236220472441
        },
        {
          "duration": 0.11475403333332679,
          "durationTicks": 28,
          "midi": 67,
          "name": "G4",
          "ticks": 55680,
          "time": 228.196592,
          "velocity": 0.7952755905511811
        },
        {
          "duration": 0.045081941666666125,
          "durationTicks": 11,
          "midi": 64,
          "name": "E4",
          "ticks": 55860,
          "time": 228.9342965,
          "velocity": 0.6771653543307087
        },
        {
          "duration": 0.049180300000017496,
          "durationTicks": 12,
          "midi": 67,
          "name": "G4",
          "ticks": 55860,
          "time": 228.9342965,
          "velocity": 0.6692913385826772
        },
        {
          "duration": 0.10655731666665247,
          "durationTicks": 26,
          "midi": 64,
          "name": "E4",
          "ticks": 55920,
          "time": 229.180198,
          "velocity": 0.7559055118110236
        },
        {
          "duration": 0.10245895833332952,
          "durationTicks": 25,
          "midi": 67,
          "name": "G4",
          "ticks": 55920,
          "time": 229.180198,
          "velocity": 0.6220472440944882
        },
        {
          "duration": 0.10655731666665247,
          "durationTicks": 26,
          "midi": 64,
          "name": "E4",
          "ticks": 56100,
          "time": 229.9179025,
          "velocity": 0.8818897637795275
        },
        {
          "duration": 0.0860655250000093,
          "durationTicks": 21,
          "midi": 67,
          "name": "G4",
          "ticks": 56100,
          "time": 229.9179025,
          "velocity": 0.7716535433070866
        },
        {
          "duration": 0.1516392583333186,
          "durationTicks": 37,
          "midi": 64,
          "name": "E4",
          "ticks": 56220,
          "time": 230.4097055,
          "velocity": 0.8818897637795275
        },
        {
          "duration": 0.0942622416666552,
          "durationTicks": 23,
          "midi": 67,
          "name": "G4",
          "ticks": 56220,
          "time": 230.4097055,
          "velocity": 0.8110236220472441
        },
        {
          "duration": 0.045081941666637704,
          "durationTicks": 11,
          "midi": 64,
          "name": "E4",
          "ticks": 56340,
          "time": 230.9015085,
          "velocity": 0.6535433070866141
        },
        {
          "duration": 0.045081941666637704,
          "durationTicks": 11,
          "midi": 67,
          "name": "G4",
          "ticks": 56340,
          "time": 230.9015085,
          "velocity": 0.6929133858267716
        },
        {
          "duration": 0.11885239166664974,
          "durationTicks": 29,
          "midi": 64,
          "name": "E4",
          "ticks": 56400,
          "time": 231.14741,
          "velocity": 0.7559055118110236
        },
        {
          "duration": 0.07786880833333498,
          "durationTicks": 19,
          "midi": 67,
          "name": "G4",
          "ticks": 56400,
          "time": 231.14741,
          "velocity": 0.6141732283464567
        },
        {
          "duration": 0.03278686666666886,
          "durationTicks": 8,
          "midi": 64,
          "name": "E4",
          "ticks": 56580,
          "time": 231.8851145,
          "velocity": 0.968503937007874
        },
        {
          "duration": 0.03278686666666886,
          "durationTicks": 8,
          "midi": 67,
          "name": "G4",
          "ticks": 56580,
          "time": 231.8851145,
          "velocity": 0.8976377952755905
        },
        {
          "duration": 0.10655731666665247,
          "durationTicks": 26,
          "midi": 64,
          "name": "E4",
          "ticks": 56640,
          "time": 232.131016,
          "velocity": 0.8110236220472441
        },
        {
          "duration": 0.11475403333335521,
          "durationTicks": 28,
          "midi": 67,
          "name": "G4",
          "ticks": 56640,
          "time": 232.131016,
          "velocity": 0.7952755905511811
        },
        {
          "duration": 0.045081941666666125,
          "durationTicks": 11,
          "midi": 64,
          "name": "E4",
          "ticks": 56820,
          "time": 232.8687205,
          "velocity": 0.6771653543307087
        },
        {
          "duration": 0.049180300000017496,
          "durationTicks": 12,
          "midi": 67,
          "name": "G4",
          "ticks": 56820,
          "time": 232.8687205,
          "velocity": 0.6692913385826772
        },
        {
          "duration": 0.10655731666665247,
          "durationTicks": 26,
          "midi": 64,
          "name": "E4",
          "ticks": 56880,
          "time": 233.114622,
          "velocity": 0.7559055118110236
        },
        {
          "duration": 0.10245895833332952,
          "durationTicks": 25,
          "midi": 67,
          "name": "G4",
          "ticks": 56880,
          "time": 233.114622,
          "velocity": 0.6220472440944882
        },
        {
          "duration": 0.10655731666665247,
          "durationTicks": 26,
          "midi": 64,
          "name": "E4",
          "ticks": 57060,
          "time": 233.8523265,
          "velocity": 0.8818897637795275
        },
        {
          "duration": 0.0860655250000093,
          "durationTicks": 21,
          "midi": 67,
          "name": "G4",
          "ticks": 57060,
          "time": 233.8523265,
          "velocity": 0.7716535433070866
        },
        {
          "duration": 0.1516392583333186,
          "durationTicks": 37,
          "midi": 64,
          "name": "E4",
          "ticks": 57180,
          "time": 234.3441295,
          "velocity": 0.8818897637795275
        },
        {
          "duration": 0.0942622416666552,
          "durationTicks": 23,
          "midi": 67,
          "name": "G4",
          "ticks": 57180,
          "time": 234.3441295,
          "velocity": 0.8110236220472441
        },
        {
          "duration": 0.045081941666666125,
          "durationTicks": 11,
          "midi": 64,
          "name": "E4",
          "ticks": 57300,
          "time": 234.83593249999998,
          "velocity": 0.6535433070866141
        },
        {
          "duration": 0.045081941666666125,
          "durationTicks": 11,
          "midi": 67,
          "name": "G4",
          "ticks": 57300,
          "time": 234.83593249999998,
          "velocity": 0.6929133858267716
        },
        {
          "duration": 0.11885239166667816,
          "durationTicks": 29,
          "midi": 64,
          "name": "E4",
          "ticks": 57360,
          "time": 235.081834,
          "velocity": 0.7559055118110236
        },
        {
          "duration": 0.0778688083333634,
          "durationTicks": 19,
          "midi": 67,
          "name": "G4",
          "ticks": 57360,
          "time": 235.081834,
          "velocity": 0.6141732283464567
        },
        {
          "duration": 0.03278686666666886,
          "durationTicks": 8,
          "midi": 64,
          "name": "E4",
          "ticks": 57540,
          "time": 235.8195385,
          "velocity": 0.968503937007874
        },
        {
          "duration": 0.03278686666666886,
          "durationTicks": 8,
          "midi": 67,
          "name": "G4",
          "ticks": 57540,
          "time": 235.8195385,
          "velocity": 0.8976377952755905
        },
        {
          "duration": 0.10655731666665247,
          "durationTicks": 26,
          "midi": 64,
          "name": "E4",
          "ticks": 57600,
          "time": 236.06544,
          "velocity": 0.8110236220472441
        },
        {
          "duration": 0.11475403333332679,
          "durationTicks": 28,
          "midi": 67,
          "name": "G4",
          "ticks": 57600,
          "time": 236.06544,
          "velocity": 0.7952755905511811
        }
      ],
      "endOfTrackTicks": 57628
    },
    {
      "channel": 5,
      "controlChanges": {
        "0": [
          {
            "number": 0,
            "ticks": 0,
            "time": 0,
            "value": 0
          }
        ],
        "7": [
          {
            "number": 7,
            "ticks": 0,
            "time": 0,
            "value": 0.7874015748031497
          }
        ],
        "10": [
          {
            "number": 10,
            "ticks": 1,
            "time": 0.004098358333333333,
            "value": 0.5039370078740157
          }
        ],
        "11": [
          {
            "number": 11,
            "ticks": 1,
            "time": 0.004098358333333333,
            "value": 1
          }
        ],
        "32": [
          {
            "number": 32,
            "ticks": 0,
            "time": 0,
            "value": 0.023622047244094488
          }
        ],
        "91": [
          {
            "number": 91,
            "ticks": 1,
            "time": 0.004098358333333333,
            "value": 0.6299212598425197
          }
        ],
        "93": [
          {
            "number": 93,
            "ticks": 1,
            "time": 0.004098358333333333,
            "value": 0.31496062992125984
          }
        ],
        "121": [
          {
            "number": 121,
            "ticks": 0,
            "time": 0,
            "value": 0
          }
        ]
      },
      "pitchBends": [],
      "instrument": {
        "family": "synth lead",
        "number": 81,
        "name": "lead 2 (sawtooth)"
      },
      "name": "",
      "notes": [
        {
          "duration": 0.13934418333333376,
          "durationTicks": 34,
          "midi": 32,
          "name": "G#1",
          "ticks": 2880,
          "time": 11.803272,
          "velocity": 0.8188976377952756
        },
        {
          "duration": 0.20081955833333254,
          "durationTicks": 49,
          "midi": 45,
          "name": "A2",
          "ticks": 6720,
          "time": 27.540968,
          "velocity": 0.8661417322834646
        },
        {
          "duration": 0.19672119999999893,
          "durationTicks": 48,
          "midi": 57,
          "name": "A3",
          "ticks": 6720,
          "time": 27.540968,
          "velocity": 0.8818897637795275
        },
        {
          "duration": 0.2295080666666678,
          "durationTicks": 56,
          "midi": 45,
          "name": "A2",
          "ticks": 7680,
          "time": 31.475392,
          "velocity": 0.8976377952755905
        },
        {
          "duration": 0.2172129916666634,
          "durationTicks": 53,
          "midi": 52,
          "name": "E3",
          "ticks": 7680,
          "time": 31.475392,
          "velocity": 0.7952755905511811
        },
        {
          "duration": 0.19672120000000248,
          "durationTicks": 48,
          "midi": 57,
          "name": "A3",
          "ticks": 7680,
          "time": 31.475392,
          "velocity": 0.889763779527559
        },
        {
          "duration": 0.20081955833332898,
          "durationTicks": 49,
          "midi": 45,
          "name": "A2",
          "ticks": 10560,
          "time": 43.278664,
          "velocity": 0.8661417322834646
        },
        {
          "duration": 0.19672120000000604,
          "durationTicks": 48,
          "midi": 57,
          "name": "A3",
          "ticks": 10560,
          "time": 43.278664,
          "velocity": 0.8818897637795275
        },
        {
          "duration": 0.2295080666666678,
          "durationTicks": 56,
          "midi": 45,
          "name": "A2",
          "ticks": 11520,
          "time": 47.213088,
          "velocity": 0.8976377952755905
        },
        {
          "duration": 0.2172129916666634,
          "durationTicks": 53,
          "midi": 52,
          "name": "E3",
          "ticks": 11520,
          "time": 47.213088,
          "velocity": 0.7952755905511811
        },
        {
          "duration": 0.19672120000000604,
          "durationTicks": 48,
          "midi": 57,
          "name": "A3",
          "ticks": 11520,
          "time": 47.213088,
          "velocity": 0.889763779527559
        },
        {
          "duration": 0.20081955833332898,
          "durationTicks": 49,
          "midi": 45,
          "name": "A2",
          "ticks": 14400,
          "time": 59.01636,
          "velocity": 0.8661417322834646
        },
        {
          "duration": 0.19672120000000604,
          "durationTicks": 48,
          "midi": 57,
          "name": "A3",
          "ticks": 14400,
          "time": 59.01636,
          "velocity": 0.8818897637795275
        },
        {
          "duration": 0.2295080666666678,
          "durationTicks": 56,
          "midi": 45,
          "name": "A2",
          "ticks": 15360,
          "time": 62.950784,
          "velocity": 0.8976377952755905
        },
        {
          "duration": 0.2172129916666634,
          "durationTicks": 53,
          "midi": 52,
          "name": "E3",
          "ticks": 15360,
          "time": 62.950784,
          "velocity": 0.7952755905511811
        },
        {
          "duration": 0.19672120000000604,
          "durationTicks": 48,
          "midi": 57,
          "name": "A3",
          "ticks": 15360,
          "time": 62.950784,
          "velocity": 0.889763779527559
        },
        {
          "duration": 0.2008195583333361,
          "durationTicks": 49,
          "midi": 45,
          "name": "A2",
          "ticks": 18240,
          "time": 74.75405599999999,
          "velocity": 0.8661417322834646
        },
        {
          "duration": 0.19672120000001314,
          "durationTicks": 48,
          "midi": 57,
          "name": "A3",
          "ticks": 18240,
          "time": 74.75405599999999,
          "velocity": 0.8818897637795275
        },
        {
          "duration": 0.2295080666666678,
          "durationTicks": 56,
          "midi": 45,
          "name": "A2",
          "ticks": 19200,
          "time": 78.68848,
          "velocity": 0.8976377952755905
        },
        {
          "duration": 0.21721299166667052,
          "durationTicks": 53,
          "midi": 52,
          "name": "E3",
          "ticks": 19200,
          "time": 78.68848,
          "velocity": 0.7952755905511811
        },
        {
          "duration": 0.19672119999999893,
          "durationTicks": 48,
          "midi": 57,
          "name": "A3",
          "ticks": 19200,
          "time": 78.68848,
          "velocity": 0.889763779527559
        },
        {
          "duration": 0.2008195583333361,
          "durationTicks": 49,
          "midi": 45,
          "name": "A2",
          "ticks": 22080,
          "time": 90.49175199999999,
          "velocity": 0.8661417322834646
        },
        {
          "duration": 0.19672120000001314,
          "durationTicks": 48,
          "midi": 57,
          "name": "A3",
          "ticks": 22080,
          "time": 90.49175199999999,
          "velocity": 0.8818897637795275
        },
        {
          "duration": 0.2295080666666678,
          "durationTicks": 56,
          "midi": 45,
          "name": "A2",
          "ticks": 23040,
          "time": 94.426176,
          "velocity": 0.8976377952755905
        },
        {
          "duration": 0.21721299166667052,
          "durationTicks": 53,
          "midi": 52,
          "name": "E3",
          "ticks": 23040,
          "time": 94.426176,
          "velocity": 0.7952755905511811
        },
        {
          "duration": 0.19672119999999893,
          "durationTicks": 48,
          "midi": 57,
          "name": "A3",
          "ticks": 23040,
          "time": 94.426176,
          "velocity": 0.889763779527559
        },
        {
          "duration": 0.2008195583333361,
          "durationTicks": 49,
          "midi": 45,
          "name": "A2",
          "ticks": 25920,
          "time": 106.22944799999999,
          "velocity": 0.8661417322834646
        },
        {
          "duration": 0.19672120000001314,
          "durationTicks": 48,
          "midi": 57,
          "name": "A3",
          "ticks": 25920,
          "time": 106.22944799999999,
          "velocity": 0.8818897637795275
        },
        {
          "duration": 0.2295080666666678,
          "durationTicks": 56,
          "midi": 45,
          "name": "A2",
          "ticks": 26880,
          "time": 110.163872,
          "velocity": 0.8976377952755905
        },
        {
          "duration": 0.21721299166667052,
          "durationTicks": 53,
          "midi": 52,
          "name": "E3",
          "ticks": 26880,
          "time": 110.163872,
          "velocity": 0.7952755905511811
        },
        {
          "duration": 0.19672119999999893,
          "durationTicks": 48,
          "midi": 57,
          "name": "A3",
          "ticks": 26880,
          "time": 110.163872,
          "velocity": 0.889763779527559
        },
        {
          "duration": 0.2008195583333361,
          "durationTicks": 49,
          "midi": 45,
          "name": "A2",
          "ticks": 29760,
          "time": 121.96714399999999,
          "velocity": 0.8661417322834646
        },
        {
          "duration": 0.19672120000001314,
          "durationTicks": 48,
          "midi": 57,
          "name": "A3",
          "ticks": 29760,
          "time": 121.96714399999999,
          "velocity": 0.8818897637795275
        },
        {
          "duration": 0.22950806666665358,
          "durationTicks": 56,
          "midi": 45,
          "name": "A2",
          "ticks": 30720,
          "time": 125.901568,
          "velocity": 0.8976377952755905
        },
        {
          "duration": 0.21721299166667052,
          "durationTicks": 53,
          "midi": 52,
          "name": "E3",
          "ticks": 30720,
          "time": 125.901568,
          "velocity": 0.7952755905511811
        },
        {
          "duration": 0.19672119999998472,
          "durationTicks": 48,
          "midi": 57,
          "name": "A3",
          "ticks": 30720,
          "time": 125.901568,
          "velocity": 0.889763779527559
        },
        {
          "duration": 0.22950806666665358,
          "durationTicks": 56,
          "midi": 45,
          "name": "A2",
          "ticks": 31680,
          "time": 129.835992,
          "velocity": 0.8976377952755905
        },
        {
          "duration": 0.2172129916666563,
          "durationTicks": 53,
          "midi": 52,
          "name": "E3",
          "ticks": 31680,
          "time": 129.835992,
          "velocity": 0.7952755905511811
        },
        {
          "duration": 0.19672119999998472,
          "durationTicks": 48,
          "midi": 57,
          "name": "A3",
          "ticks": 31680,
          "time": 129.835992,
          "velocity": 0.889763779527559
        },
        {
          "duration": 0.2008195583333645,
          "durationTicks": 49,
          "midi": 45,
          "name": "A2",
          "ticks": 33600,
          "time": 137.70484,
          "velocity": 0.8661417322834646
        },
        {
          "duration": 0.19672119999998472,
          "durationTicks": 48,
          "midi": 57,
          "name": "A3",
          "ticks": 33600,
          "time": 137.70484,
          "velocity": 0.8818897637795275
        },
        {
          "duration": 0.22950806666665358,
          "durationTicks": 56,
          "midi": 45,
          "name": "A2",
          "ticks": 34560,
          "time": 141.639264,
          "velocity": 0.8976377952755905
        },
        {
          "duration": 0.2172129916666563,
          "durationTicks": 53,
          "midi": 52,
          "name": "E3",
          "ticks": 34560,
          "time": 141.639264,
          "velocity": 0.7952755905511811
        },
        {
          "duration": 0.19672119999998472,
          "durationTicks": 48,
          "midi": 57,
          "name": "A3",
          "ticks": 34560,
          "time": 141.639264,
          "velocity": 0.889763779527559
        },
        {
          "duration": 0.2008195583333645,
          "durationTicks": 49,
          "midi": 45,
          "name": "A2",
          "ticks": 37440,
          "time": 153.442536,
          "velocity": 0.8661417322834646
        },
        {
          "duration": 0.19672119999998472,
          "durationTicks": 48,
          "midi": 57,
          "name": "A3",
          "ticks": 37440,
          "time": 153.442536,
          "velocity": 0.8818897637795275
        },
        {
          "duration": 0.22950806666665358,
          "durationTicks": 56,
          "midi": 45,
          "name": "A2",
          "ticks": 38400,
          "time": 157.37696,
          "velocity": 0.8976377952755905
        },
        {
          "duration": 0.2172129916666563,
          "durationTicks": 53,
          "midi": 52,
          "name": "E3",
          "ticks": 38400,
          "time": 157.37696,
          "velocity": 0.7952755905511811
        },
        {
          "duration": 0.19672119999998472,
          "durationTicks": 48,
          "midi": 57,
          "name": "A3",
          "ticks": 38400,
          "time": 157.37696,
          "velocity": 0.889763779527559
        },
        {
          "duration": 0.2008195583333645,
          "durationTicks": 49,
          "midi": 45,
          "name": "A2",
          "ticks": 41280,
          "time": 169.180232,
          "velocity": 0.8661417322834646
        },
        {
          "duration": 0.19672119999998472,
          "durationTicks": 48,
          "midi": 57,
          "name": "A3",
          "ticks": 41280,
          "time": 169.180232,
          "velocity": 0.8818897637795275
        },
        {
          "duration": 0.22950806666665358,
          "durationTicks": 56,
          "midi": 45,
          "name": "A2",
          "ticks": 42240,
          "time": 173.114656,
          "velocity": 0.8976377952755905
        },
        {
          "duration": 0.2172129916666563,
          "durationTicks": 53,
          "midi": 52,
          "name": "E3",
          "ticks": 42240,
          "time": 173.114656,
          "velocity": 0.7952755905511811
        },
        {
          "duration": 0.19672119999998472,
          "durationTicks": 48,
          "midi": 57,
          "name": "A3",
          "ticks": 42240,
          "time": 173.114656,
          "velocity": 0.889763779527559
        },
        {
          "duration": 0.2008195583333645,
          "durationTicks": 49,
          "midi": 45,
          "name": "A2",
          "ticks": 45120,
          "time": 184.917928,
          "velocity": 0.8661417322834646
        },
        {
          "duration": 0.19672119999998472,
          "durationTicks": 48,
          "midi": 57,
          "name": "A3",
          "ticks": 45120,
          "time": 184.917928,
          "velocity": 0.8818897637795275
        },
        {
          "duration": 0.22950806666665358,
          "durationTicks": 56,
          "midi": 45,
          "name": "A2",
          "ticks": 46080,
          "time": 188.852352,
          "velocity": 0.8976377952755905
        },
        {
          "duration": 0.2172129916666563,
          "durationTicks": 53,
          "midi": 52,
          "name": "E3",
          "ticks": 46080,
          "time": 188.852352,
          "velocity": 0.7952755905511811
        },
        {
          "duration": 0.19672119999998472,
          "durationTicks": 48,
          "midi": 57,
          "name": "A3",
          "ticks": 46080,
          "time": 188.852352,
          "velocity": 0.889763779527559
        },
        {
          "duration": 0.2008195583333645,
          "durationTicks": 49,
          "midi": 45,
          "name": "A2",
          "ticks": 48960,
          "time": 200.655624,
          "velocity": 0.8661417322834646
        },
        {
          "duration": 0.19672119999998472,
          "durationTicks": 48,
          "midi": 57,
          "name": "A3",
          "ticks": 48960,
          "time": 200.655624,
          "velocity": 0.8818897637795275
        },
        {
          "duration": 0.22950806666665358,
          "durationTicks": 56,
          "midi": 45,
          "name": "A2",
          "ticks": 49920,
          "time": 204.590048,
          "velocity": 0.8976377952755905
        },
        {
          "duration": 0.2172129916666563,
          "durationTicks": 53,
          "midi": 52,
          "name": "E3",
          "ticks": 49920,
          "time": 204.590048,
          "velocity": 0.7952755905511811
        },
        {
          "duration": 0.19672119999998472,
          "durationTicks": 48,
          "midi": 57,
          "name": "A3",
          "ticks": 49920,
          "time": 204.590048,
          "velocity": 0.889763779527559
        },
        {
          "duration": 0.2008195583333645,
          "durationTicks": 49,
          "midi": 45,
          "name": "A2",
          "ticks": 52800,
          "time": 216.39332,
          "velocity": 0.8661417322834646
        },
        {
          "duration": 0.19672119999998472,
          "durationTicks": 48,
          "midi": 57,
          "name": "A3",
          "ticks": 52800,
          "time": 216.39332,
          "velocity": 0.8818897637795275
        },
        {
          "duration": 0.22950806666665358,
          "durationTicks": 56,
          "midi": 45,
          "name": "A2",
          "ticks": 53760,
          "time": 220.327744,
          "velocity": 0.8976377952755905
        },
        {
          "duration": 0.2172129916666563,
          "durationTicks": 53,
          "midi": 52,
          "name": "E3",
          "ticks": 53760,
          "time": 220.327744,
          "velocity": 0.7952755905511811
        },
        {
          "duration": 0.19672119999998472,
          "durationTicks": 48,
          "midi": 57,
          "name": "A3",
          "ticks": 53760,
          "time": 220.327744,
          "velocity": 0.889763779527559
        },
        {
          "duration": 0.2008195583333645,
          "durationTicks": 49,
          "midi": 45,
          "name": "A2",
          "ticks": 56640,
          "time": 232.131016,
          "velocity": 0.8661417322834646
        },
        {
          "duration": 0.19672119999998472,
          "durationTicks": 48,
          "midi": 57,
          "name": "A3",
          "ticks": 56640,
          "time": 232.131016,
          "velocity": 0.8818897637795275
        },
        {
          "duration": 0.22950806666665358,
          "durationTicks": 56,
          "midi": 45,
          "name": "A2",
          "ticks": 57600,
          "time": 236.06544,
          "velocity": 0.8976377952755905
        },
        {
          "duration": 0.2172129916666563,
          "durationTicks": 53,
          "midi": 52,
          "name": "E3",
          "ticks": 57600,
          "time": 236.06544,
          "velocity": 0.7952755905511811
        },
        {
          "duration": 0.19672119999998472,
          "durationTicks": 48,
          "midi": 57,
          "name": "A3",
          "ticks": 57600,
          "time": 236.06544,
          "velocity": 0.889763779527559
        }
      ],
      "endOfTrackTicks": 57656
    },
    {
      "channel": 6,
      "controlChanges": {
        "0": [
          {
            "number": 0,
            "ticks": 0,
            "time": 0,
            "value": 0
          }
        ],
        "7": [
          {
            "number": 7,
            "ticks": 0,
            "time": 0,
            "value": 0.8818897637795275
          }
        ],
        "10": [
          {
            "number": 10,
            "ticks": 1,
            "time": 0.004098358333333333,
            "value": 0.1732283464566929
          }
        ],
        "11": [
          {
            "number": 11,
            "ticks": 1,
            "time": 0.004098358333333333,
            "value": 1
          }
        ],
        "32": [
          {
            "number": 32,
            "ticks": 0,
            "time": 0,
            "value": 0
          }
        ],
        "91": [
          {
            "number": 91,
            "ticks": 1,
            "time": 0.004098358333333333,
            "value": 0.7874015748031497
          }
        ],
        "93": [
          {
            "number": 93,
            "ticks": 1,
            "time": 0.004098358333333333,
            "value": 0.3543307086614173
          }
        ],
        "121": [
          {
            "number": 121,
            "ticks": 0,
            "time": 0,
            "value": 0
          }
        ]
      },
      "pitchBends": [],
      "instrument": {
        "family": "chromatic percussion",
        "number": 9,
        "name": "glockenspiel"
      },
      "name": "",
      "notes": [
        {
          "duration": 0,
          "durationTicks": 0,
          "midi": 81,
          "name": "A5",
          "ticks": 13442,
          "time": 55.090132716666666,
          "velocity": 0.8110236220472441
        },
        {
          "duration": 0,
          "durationTicks": 0,
          "midi": 81,
          "name": "A5",
          "ticks": 17281,
          "time": 70.82373035833332,
          "velocity": 0.8661417322834646
        },
        {
          "duration": 0,
          "durationTicks": 0,
          "midi": 81,
          "name": "A5",
          "ticks": 21118,
          "time": 86.54913128333332,
          "velocity": 0.8188976377952756
        },
        {
          "duration": 0,
          "durationTicks": 0,
          "midi": 81,
          "name": "A5",
          "ticks": 24959,
          "time": 102.29092564166668,
          "velocity": 0.84251968503937
        },
        {
          "duration": 0,
          "durationTicks": 0,
          "midi": 81,
          "name": "A5",
          "ticks": 28801,
          "time": 118.03681835833332,
          "velocity": 0.7952755905511811
        },
        {
          "duration": 0,
          "durationTicks": 0,
          "midi": 81,
          "name": "A5",
          "ticks": 32641,
          "time": 133.77451435833333,
          "velocity": 0.8582677165354331
        },
        {
          "duration": 0,
          "durationTicks": 0,
          "midi": 81,
          "name": "A5",
          "ticks": 36481,
          "time": 149.51221035833333,
          "velocity": 0.8267716535433071
        },
        {
          "duration": 0,
          "durationTicks": 0,
          "midi": 81,
          "name": "A5",
          "ticks": 40322,
          "time": 165.25400471666666,
          "velocity": 0.7952755905511811
        },
        {
          "duration": 0,
          "durationTicks": 0,
          "midi": 81,
          "name": "A5",
          "ticks": 44158,
          "time": 180.97530728333334,
          "velocity": 0.8031496062992126
        },
        {
          "duration": 0,
          "durationTicks": 0,
          "midi": 81,
          "name": "A5",
          "ticks": 47999,
          "time": 196.71710164166666,
          "velocity": 0.7874015748031497
        },
        {
          "duration": 0,
          "durationTicks": 0,
          "midi": 81,
          "name": "A5",
          "ticks": 50880,
          "time": 208.524472,
          "velocity": 0.8661417322834646
        },
        {
          "duration": 0,
          "durationTicks": 0,
          "midi": 81,
          "name": "A5",
          "ticks": 55678,
          "time": 228.18839528333334,
          "velocity": 0.8110236220472441
        }
      ],
      "endOfTrackTicks": 55678
    },
    {
      "channel": 0,
      "controlChanges": {
        "7": [
          {
            "number": 7,
            "ticks": 172,
            "time": 0.7049176333333333,
            "value": 0.7165354330708661
          }
        ],
        "10": [
          {
            "number": 10,
            "ticks": 210,
            "time": 0.86065525,
            "value": 0.6141732283464567
          }
        ],
        "91": [
          {
            "number": 91,
            "ticks": 247,
            "time": 1.0122945083333332,
            "value": 0.5275590551181102
          }
        ],
        "93": [
          {
            "number": 93,
            "ticks": 285,
            "time": 1.1680321249999999,
            "value": 0.6535433070866141
          }
        ]
      },
      "pitchBends": [],
      "instrument": {
        "family": "brass",
        "number": 60,
        "name": "french horn"
      },
      "name": "",
      "notes": [],
      "endOfTrackTicks": 285
    },
    {
      "channel": 8,
      "controlChanges": {
        "0": [
          {
            "number": 0,
            "ticks": 0,
            "time": 0,
            "value": 0
          }
        ],
        "7": [
          {
            "number": 7,
            "ticks": 0,
            "time": 0,
            "value": 0.8031496062992126
          }
        ],
        "10": [
          {
            "number": 10,
            "ticks": 1,
            "time": 0.004098358333333333,
            "value": 0.5669291338582677
          }
        ],
        "11": [
          {
            "number": 11,
            "ticks": 1,
            "time": 0.004098358333333333,
            "value": 1
          }
        ],
        "32": [
          {
            "number": 32,
            "ticks": 0,
            "time": 0,
            "value": 0
          }
        ],
        "91": [
          {
            "number": 91,
            "ticks": 1,
            "time": 0.004098358333333333,
            "value": 0.6299212598425197
          }
        ],
        "93": [
          {
            "number": 93,
            "ticks": 1,
            "time": 0.004098358333333333,
            "value": 0.1732283464566929
          }
        ],
        "121": [
          {
            "number": 121,
            "ticks": 0,
            "time": 0,
            "value": 0
          }
        ]
      },
      "pitchBends": [],
      "instrument": {
        "family": "synth lead",
        "number": 80,
        "name": "lead 1 (square)"
      },
      "name": "",
      "notes": [
        {
          "duration": 0.5860652416666596,
          "durationTicks": 143,
          "midi": 57,
          "name": "A3",
          "ticks": 18355,
          "time": 75.22536720833334,
          "velocity": 0.7952755905511811
        },
        {
          "duration": 0.47950792500000716,
          "durationTicks": 117,
          "midi": 59,
          "name": "B3",
          "ticks": 18481,
          "time": 75.74176035833332,
          "velocity": 0.8346456692913385
        },
        {
          "duration": 0.5368849416666706,
          "durationTicks": 131,
          "midi": 60,
          "name": "C4",
          "ticks": 18594,
          "time": 76.20487485,
          "velocity": 0.8346456692913385
        },
        {
          "duration": 0.7336061416666553,
          "durationTicks": 179,
          "midi": 59,
          "name": "B3",
          "ticks": 18719,
          "time": 76.71716964166667,
          "velocity": 0.7637795275590551
        },
        {
          "duration": 1.8565563249999855,
          "durationTicks": 453,
          "midi": 57,
          "name": "A3",
          "ticks": 18902,
          "time": 77.46716921666668,
          "velocity": 0.8031496062992126
        },
        {
          "duration": 0.5696718083333394,
          "durationTicks": 139,
          "midi": 57,
          "name": "A3",
          "ticks": 22192,
          "time": 90.95076813333333,
          "velocity": 0.7952755905511811
        },
        {
          "duration": 0.49999971666666454,
          "durationTicks": 122,
          "midi": 59,
          "name": "B3",
          "ticks": 22319,
          "time": 91.47125964166666,
          "velocity": 0.8267716535433071
        },
        {
          "duration": 0.5778685249999853,
          "durationTicks": 141,
          "midi": 60,
          "name": "C4",
          "ticks": 22432,
          "time": 91.93437413333334,
          "velocity": 0.8346456692913385
        },
        {
          "duration": 0.7540979333333553,
          "durationTicks": 184,
          "midi": 59,
          "name": "B3",
          "ticks": 22558,
          "time": 92.45076728333332,
          "velocity": 0.8031496062992126
        },
        {
          "duration": 1.2704910833333258,
          "durationTicks": 310,
          "midi": 57,
          "name": "A3",
          "ticks": 22743,
          "time": 93.208963575,
          "velocity": 0.7795275590551181
        },
        {
          "duration": 0.49999971666666454,
          "durationTicks": 122,
          "midi": 57,
          "name": "A3",
          "ticks": 26045,
          "time": 106.74174279166667,
          "velocity": 0.7795275590551181
        },
        {
          "duration": 0.5286882250000104,
          "durationTicks": 129,
          "midi": 59,
          "name": "B3",
          "ticks": 26154,
          "time": 107.18846384999999,
          "velocity": 0.7874015748031497
        },
        {
          "duration": 0.5040980749999875,
          "durationTicks": 123,
          "midi": 60,
          "name": "C4",
          "ticks": 26275,
          "time": 107.68436520833333,
          "velocity": 0.7952755905511811
        },
        {
          "duration": 0.8032782333333301,
          "durationTicks": 196,
          "midi": 59,
          "name": "B3",
          "ticks": 26393,
          "time": 108.16797149166666,
          "velocity": 0.7716535433070866
        },
        {
          "duration": 1.3729500416666838,
          "durationTicks": 335,
          "midi": 57,
          "name": "A3",
          "ticks": 26570,
          "time": 108.89338091666666,
          "velocity": 0.7716535433070866
        },
        {
          "duration": 0.5204915083333219,
          "durationTicks": 127,
          "midi": 57,
          "name": "A3",
          "ticks": 33715,
          "time": 138.17615120833332,
          "velocity": 0.7637795275590551
        },
        {
          "duration": 0.5409833000000219,
          "durationTicks": 132,
          "midi": 59,
          "name": "B3",
          "ticks": 33833,
          "time": 138.65975749166665,
          "velocity": 0.7795275590551181
        },
        {
          "duration": 0.5491800166666678,
          "durationTicks": 134,
          "midi": 60,
          "name": "C4",
          "ticks": 33958,
          "time": 139.17205228333333,
          "velocity": 0.84251968503937
        },
        {
          "duration": 0.745901216666681,
          "durationTicks": 182,
          "midi": 59,
          "name": "B3",
          "ticks": 34082,
          "time": 139.68024871666665,
          "velocity": 0.84251968503937
        },
        {
          "duration": 1.3319664583333122,
          "durationTicks": 325,
          "midi": 57,
          "name": "A3",
          "ticks": 34267,
          "time": 140.43844500833333,
          "velocity": 0.8110236220472441
        },
        {
          "duration": 0.47131120833333284,
          "durationTicks": 115,
          "midi": 57,
          "name": "A3",
          "ticks": 37561,
          "time": 153.93843735833332,
          "velocity": 0.8110236220472441
        },
        {
          "duration": 0.5450816583333449,
          "durationTicks": 133,
          "midi": 59,
          "name": "B3",
          "ticks": 37667,
          "time": 154.37286334166666,
          "velocity": 0.7637795275590551
        },
        {
          "duration": 0.5573767333333137,
          "durationTicks": 136,
          "midi": 60,
          "name": "C4",
          "ticks": 37795,
          "time": 154.89745320833333,
          "velocity": 0.7716535433070866
        },
        {
          "duration": 0.7213110666666296,
          "durationTicks": 176,
          "midi": 59,
          "name": "B3",
          "ticks": 37920,
          "time": 155.409748,
          "velocity": 0.7952755905511811
        },
        {
          "duration": 1.8032776666666734,
          "durationTicks": 440,
          "midi": 57,
          "name": "A3",
          "ticks": 38094,
          "time": 156.12286235,
          "velocity": 0.8346456692913385
        },
        {
          "duration": 0.5204915083332935,
          "durationTicks": 127,
          "midi": 57,
          "name": "A3",
          "ticks": 41404,
          "time": 169.68842843333334,
          "velocity": 0.7795275590551181
        },
        {
          "duration": 0.5614750916666651,
          "durationTicks": 137,
          "midi": 59,
          "name": "B3",
          "ticks": 41511,
          "time": 170.126952775,
          "velocity": 0.8346456692913385
        },
        {
          "duration": 0.6311471833333542,
          "durationTicks": 154,
          "midi": 60,
          "name": "C4",
          "ticks": 41633,
          "time": 170.62695249166666,
          "velocity": 0.7874015748031497
        },
        {
          "duration": 0.7008192750000148,
          "durationTicks": 171,
          "midi": 59,
          "name": "B3",
          "ticks": 41766,
          "time": 171.17203415,
          "velocity": 0.7952755905511811
        },
        {
          "duration": 1.7213105000000155,
          "durationTicks": 420,
          "midi": 57,
          "name": "A3",
          "ticks": 41931,
          "time": 171.848263275,
          "velocity": 0.8188976377952756
        },
        {
          "duration": 0.4877046416666815,
          "durationTicks": 119,
          "midi": 57,
          "name": "A3",
          "ticks": 45241,
          "time": 185.41382935833332,
          "velocity": 0.7874015748031497
        },
        {
          "duration": 0.5532783750000192,
          "durationTicks": 135,
          "midi": 59,
          "name": "B3",
          "ticks": 45349,
          "time": 185.85645205833333,
          "velocity": 0.7637795275590551
        },
        {
          "duration": 0.569671808333311,
          "durationTicks": 139,
          "midi": 60,
          "name": "C4",
          "ticks": 45477,
          "time": 186.381041925,
          "velocity": 0.8110236220472441
        },
        {
          "duration": 0.7786880833333214,
          "durationTicks": 190,
          "midi": 59,
          "name": "B3",
          "ticks": 45606,
          "time": 186.90973015,
          "velocity": 0.8031496062992126
        },
        {
          "duration": 1.4508188500000188,
          "durationTicks": 354,
          "midi": 57,
          "name": "A3",
          "ticks": 45791,
          "time": 187.66792644166665,
          "velocity": 0.7795275590551181
        },
        {
          "duration": 0.5327865833333476,
          "durationTicks": 130,
          "midi": 57,
          "name": "A3",
          "ticks": 49077,
          "time": 201.135131925,
          "velocity": 0.84251968503937
        },
        {
          "duration": 0.5573767333333421,
          "durationTicks": 136,
          "midi": 59,
          "name": "B3",
          "ticks": 49192,
          "time": 201.60644313333333,
          "velocity": 0.8188976377952756
        },
        {
          "duration": 0.5163931499999705,
          "durationTicks": 126,
          "midi": 60,
          "name": "C4",
          "ticks": 49317,
          "time": 202.118737925,
          "velocity": 0.8267716535433071
        },
        {
          "duration": 0.7868847999999957,
          "durationTicks": 192,
          "midi": 59,
          "name": "B3",
          "ticks": 49428,
          "time": 202.5736557,
          "velocity": 0.7637795275590551
        },
        {
          "duration": 1.696720350000021,
          "durationTicks": 414,
          "midi": 57,
          "name": "A3",
          "ticks": 49615,
          "time": 203.3400487083333,
          "velocity": 0.7637795275590551
        },
        {
          "duration": 0.5163931499999705,
          "durationTicks": 126,
          "midi": 57,
          "name": "A3",
          "ticks": 52925,
          "time": 216.90561479166666,
          "velocity": 0.8346456692913385
        },
        {
          "duration": 0.5204915083333219,
          "durationTicks": 127,
          "midi": 59,
          "name": "B3",
          "ticks": 53035,
          "time": 217.35643420833333,
          "velocity": 0.8188976377952756
        },
        {
          "duration": 0.5573767333333421,
          "durationTicks": 136,
          "midi": 60,
          "name": "C4",
          "ticks": 53153,
          "time": 217.84004049166666,
          "velocity": 0.8267716535433071
        },
        {
          "duration": 0.7540979333333553,
          "durationTicks": 184,
          "midi": 59,
          "name": "B3",
          "ticks": 53275,
          "time": 218.3400402083333,
          "velocity": 0.7952755905511811
        },
        {
          "duration": 1.307376308333346,
          "durationTicks": 319,
          "midi": 57,
          "name": "A3",
          "ticks": 53456,
          "time": 219.08184306666664,
          "velocity": 0.8346456692913385
        },
        {
          "duration": 0.536884941666699,
          "durationTicks": 131,
          "midi": 57,
          "name": "A3",
          "ticks": 56756,
          "time": 232.60642556666664,
          "velocity": 0.7716535433070866
        },
        {
          "duration": 0.5327865833333192,
          "durationTicks": 130,
          "midi": 59,
          "name": "B3",
          "ticks": 56872,
          "time": 233.08183513333333,
          "velocity": 0.8110236220472441
        },
        {
          "duration": 0.5614750916666651,
          "durationTicks": 137,
          "midi": 60,
          "name": "C4",
          "ticks": 56993,
          "time": 233.57773649166666,
          "velocity": 0.8031496062992126
        },
        {
          "duration": 0.7622946500000296,
          "durationTicks": 186,
          "midi": 59,
          "name": "B3",
          "ticks": 57119,
          "time": 234.09412964166665,
          "velocity": 0.8031496062992126
        },
        {
          "duration": 1.2868845166666745,
          "durationTicks": 314,
          "midi": 57,
          "name": "A3",
          "ticks": 57296,
          "time": 234.81953906666664,
          "velocity": 0.7795275590551181
        }
      ],
      "endOfTrackTicks": 57610
    },
    {
      "channel": 9,
      "controlChanges": {
        "0": [
          {
            "number": 0,
            "ticks": 0,
            "time": 0,
            "value": 0
          }
        ],
        "7": [
          {
            "number": 7,
            "ticks": 0,
            "time": 0,
            "value": 0.905511811023622
          }
        ],
        "10": [
          {
            "number": 10,
            "ticks": 1,
            "time": 0.004098358333333333,
            "value": 0.3543307086614173
          }
        ],
        "11": [
          {
            "number": 11,
            "ticks": 1,
            "time": 0.004098358333333333,
            "value": 1
          }
        ],
        "32": [
          {
            "number": 32,
            "ticks": 0,
            "time": 0,
            "value": 0
          }
        ],
        "91": [
          {
            "number": 91,
            "ticks": 1,
            "time": 0.004098358333333333,
            "value": 0.47244094488188976
          }
        ],
        "93": [
          {
            "number": 93,
            "ticks": 1,
            "time": 0.004098358333333333,
            "value": 0
          }
        ],
        "121": [
          {
            "number": 121,
            "ticks": 0,
            "time": 0,
            "value": 0
          }
        ]
      },
      "pitchBends": [],
      "instrument": {
        "family": "drums",
        "number": 25,
        "name": "tr-808 kit"
      },
      "name": "",
      "notes": [
        {
          "duration": 0.061475375,
          "durationTicks": 15,
          "midi": 42,
          "name": "F#2",
          "ticks": 0,
          "time": 0,
          "velocity": 0.5275590551181102
        },
        {
          "duration": 0.06967209166666666,
          "durationTicks": 17,
          "midi": 42,
          "name": "F#2",
          "ticks": 120,
          "time": 0.491803,
          "velocity": 0.5826771653543307
        },
        {
          "duration": 0.07377045000000004,
          "durationTicks": 18,
          "midi": 42,
          "name": "F#2",
          "ticks": 240,
          "time": 0.983606,
          "velocity": 0.5511811023622047
        },
        {
          "duration": 0.0778688083333332,
          "durationTicks": 19,
          "midi": 42,
          "name": "F#2",
          "ticks": 360,
          "time": 1.475409,
          "velocity": 0.6141732283464567
        },
        {
          "duration": 0.08196716666666681,
          "durationTicks": 20,
          "midi": 35,
          "name": "B1",
          "ticks": 2880,
          "time": 11.803272,
          "velocity": 0.9291338582677166
        },
        {
          "duration": 0.05737701666666695,
          "durationTicks": 14,
          "midi": 75,
          "name": "D#5",
          "ticks": 2940,
          "time": 12.0491735,
          "velocity": 0.8740157480314961
        },
        {
          "duration": 0.06147537499999878,
          "durationTicks": 15,
          "midi": 39,
          "name": "D#2",
          "ticks": 3000,
          "time": 12.295075,
          "velocity": 0.8661417322834646
        },
        {
          "duration": 0.06557373333333416,
          "durationTicks": 16,
          "midi": 35,
          "name": "B1",
          "ticks": 3060,
          "time": 12.5409765,
          "velocity": 0.8976377952755905
        },
        {
          "duration": 0.06557373333333238,
          "durationTicks": 16,
          "midi": 35,
          "name": "B1",
          "ticks": 3120,
          "time": 12.786878,
          "velocity": 0.937007874015748
        },
        {
          "duration": 0.05737701666666695,
          "durationTicks": 14,
          "midi": 39,
          "name": "D#2",
          "ticks": 3240,
          "time": 13.278680999999999,
          "velocity": 0.84251968503937
        },
        {
          "duration": 0.06557373333333238,
          "durationTicks": 16,
          "midi": 35,
          "name": "B1",
          "ticks": 3360,
          "time": 13.770484,
          "velocity": 0.8976377952755905
        },
        {
          "duration": 0.05737701666666695,
          "durationTicks": 14,
          "midi": 35,
          "name": "B1",
          "ticks": 3420,
          "time": 14.0163855,
          "velocity": 0.8503937007874016
        },
        {
          "duration": 0.06557373333333238,
          "durationTicks": 16,
          "midi": 39,
          "name": "D#2",
          "ticks": 3480,
          "time": 14.262287,
          "velocity": 0.889763779527559
        },
        {
          "duration": 0.07786880833333498,
          "durationTicks": 19,
          "midi": 35,
          "name": "B1",
          "ticks": 3540,
          "time": 14.5081885,
          "velocity": 0.9291338582677166
        },
        {
          "duration": 0.061475375000000554,
          "durationTicks": 15,
          "midi": 39,
          "name": "D#2",
          "ticks": 3720,
          "time": 15.245892999999999,
          "velocity": 0.937007874015748
        },
        {
          "duration": 0.0737704499999996,
          "durationTicks": 18,
          "midi": 35,
          "name": "B1",
          "ticks": 3840,
          "time": 15.737696,
          "velocity": 0.937007874015748
        },
        {
          "duration": 0.05737701666666517,
          "durationTicks": 14,
          "midi": 75,
          "name": "D#5",
          "ticks": 3900,
          "time": 15.9835975,
          "velocity": 0.8740157480314961
        },
        {
          "duration": 0.06557373333333061,
          "durationTicks": 16,
          "midi": 39,
          "name": "D#2",
          "ticks": 3960,
          "time": 16.229499,
          "velocity": 0.9291338582677166
        },
        {
          "duration": 0.06557373333333416,
          "durationTicks": 16,
          "midi": 35,
          "name": "B1",
          "ticks": 4020,
          "time": 16.4754005,
          "velocity": 0.8740157480314961
        },
        {
          "duration": 0.07377044999999782,
          "durationTicks": 18,
          "midi": 35,
          "name": "B1",
          "ticks": 4080,
          "time": 16.721302,
          "velocity": 0.9448818897637795
        },
        {
          "duration": 0.061475375000000554,
          "durationTicks": 15,
          "midi": 39,
          "name": "D#2",
          "ticks": 4200,
          "time": 17.213105,
          "velocity": 0.9212598425196851
        },
        {
          "duration": 0.07786880833333143,
          "durationTicks": 19,
          "midi": 35,
          "name": "B1",
          "ticks": 4320,
          "time": 17.704908,
          "velocity": 0.9448818897637795
        },
        {
          "duration": 0.07786880833333498,
          "durationTicks": 19,
          "midi": 35,
          "name": "B1",
          "ticks": 4380,
          "time": 17.9508095,
          "velocity": 0.6771653543307087
        },
        {
          "duration": 0.06967209166666422,
          "durationTicks": 17,
          "midi": 35,
          "name": "B1",
          "ticks": 4440,
          "time": 18.196711,
          "velocity": 0.6220472440944882
        },
        {
          "duration": 0.06557373333333061,
          "durationTicks": 16,
          "midi": 39,
          "name": "D#2",
          "ticks": 4440,
          "time": 18.196711,
          "velocity": 0.937007874015748
        },
        {
          "duration": 0.07377045000000138,
          "durationTicks": 18,
          "midi": 35,
          "name": "B1",
          "ticks": 4500,
          "time": 18.4426125,
          "velocity": 0.952755905511811
        },
        {
          "duration": 0.061475375000000554,
          "durationTicks": 15,
          "midi": 39,
          "name": "D#2",
          "ticks": 4680,
          "time": 19.180317,
          "velocity": 0.9448818897637795
        },
        {
          "duration": 0.05737701666666695,
          "durationTicks": 14,
          "midi": 35,
          "name": "B1",
          "ticks": 4740,
          "time": 19.4262185,
          "velocity": 0.7874015748031497
        },
        {
          "duration": 0.08196716666666504,
          "durationTicks": 20,
          "midi": 35,
          "name": "B1",
          "ticks": 4800,
          "time": 19.67212,
          "velocity": 0.9291338582677166
        },
        {
          "duration": 0.05737701666666695,
          "durationTicks": 14,
          "midi": 75,
          "name": "D#5",
          "ticks": 4860,
          "time": 19.9180215,
          "velocity": 0.8740157480314961
        },
        {
          "duration": 0.061475375000000554,
          "durationTicks": 15,
          "midi": 39,
          "name": "D#2",
          "ticks": 4920,
          "time": 20.163923,
          "velocity": 0.8661417322834646
        },
        {
          "duration": 0.06557373333333416,
          "durationTicks": 16,
          "midi": 35,
          "name": "B1",
          "ticks": 4980,
          "time": 20.4098245,
          "velocity": 0.8976377952755905
        },
        {
          "duration": 0.06557373333333061,
          "durationTicks": 16,
          "midi": 35,
          "name": "B1",
          "ticks": 5040,
          "time": 20.655726,
          "velocity": 0.937007874015748
        },
        {
          "duration": 0.05737701666666695,
          "durationTicks": 14,
          "midi": 39,
          "name": "D#2",
          "ticks": 5160,
          "time": 21.147529,
          "velocity": 0.84251968503937
        },
        {
          "duration": 0.06557373333333416,
          "durationTicks": 16,
          "midi": 35,
          "name": "B1",
          "ticks": 5280,
          "time": 21.639332,
          "velocity": 0.8976377952755905
        },
        {
          "duration": 0.05737701666666695,
          "durationTicks": 14,
          "midi": 35,
          "name": "B1",
          "ticks": 5340,
          "time": 21.8852335,
          "velocity": 0.8503937007874016
        },
        {
          "duration": 0.06557373333333061,
          "durationTicks": 16,
          "midi": 39,
          "name": "D#2",
          "ticks": 5400,
          "time": 22.131135,
          "velocity": 0.889763779527559
        },
        {
          "duration": 0.07786880833333143,
          "durationTicks": 19,
          "midi": 35,
          "name": "B1",
          "ticks": 5460,
          "time": 22.3770365,
          "velocity": 0.9291338582677166
        },
        {
          "duration": 0.061475375000000554,
          "durationTicks": 15,
          "midi": 39,
          "name": "D#2",
          "ticks": 5640,
          "time": 23.114741,
          "velocity": 0.937007874015748
        },
        {
          "duration": 0.07377044999999782,
          "durationTicks": 18,
          "midi": 35,
          "name": "B1",
          "ticks": 5760,
          "time": 23.606544,
          "velocity": 0.937007874015748
        },
        {
          "duration": 0.05737701666666695,
          "durationTicks": 14,
          "midi": 75,
          "name": "D#5",
          "ticks": 5820,
          "time": 23.852445499999998,
          "velocity": 0.8740157480314961
        },
        {
          "duration": 0.06557373333333061,
          "durationTicks": 16,
          "midi": 39,
          "name": "D#2",
          "ticks": 5880,
          "time": 24.098347,
          "velocity": 0.9291338582677166
        },
        {
          "duration": 0.06557373333333416,
          "durationTicks": 16,
          "midi": 35,
          "name": "B1",
          "ticks": 5940,
          "time": 24.3442485,
          "velocity": 0.8740157480314961
        },
        {
          "duration": 0.07377044999999782,
          "durationTicks": 18,
          "midi": 35,
          "name": "B1",
          "ticks": 6000,
          "time": 24.59015,
          "velocity": 0.9448818897637795
        },
        {
          "duration": 0.061475375000000554,
          "durationTicks": 15,
          "midi": 39,
          "name": "D#2",
          "ticks": 6120,
          "time": 25.081953,
          "velocity": 0.9212598425196851
        },
        {
          "duration": 0.07786880833333143,
          "durationTicks": 19,
          "midi": 35,
          "name": "B1",
          "ticks": 6240,
          "time": 25.573756,
          "velocity": 0.9448818897637795
        },
        {
          "duration": 0.07786880833333498,
          "durationTicks": 19,
          "midi": 35,
          "name": "B1",
          "ticks": 6300,
          "time": 25.819657499999998,
          "velocity": 0.6771653543307087
        },
        {
          "duration": 0.06967209166666422,
          "durationTicks": 17,
          "midi": 35,
          "name": "B1",
          "ticks": 6360,
          "time": 26.065559,
          "velocity": 0.6220472440944882
        },
        {
          "duration": 0.06557373333333061,
          "durationTicks": 16,
          "midi": 39,
          "name": "D#2",
          "ticks": 6360,
          "time": 26.065559,
          "velocity": 0.937007874015748
        },
        {
          "duration": 0.07377045000000138,
          "durationTicks": 18,
          "midi": 35,
          "name": "B1",
          "ticks": 6420,
          "time": 26.3114605,
          "velocity": 0.952755905511811
        },
        {
          "duration": 0.061475375000000554,
          "durationTicks": 15,
          "midi": 39,
          "name": "D#2",
          "ticks": 6600,
          "time": 27.049165,
          "velocity": 0.9448818897637795
        },
        {
          "duration": 0.05737701666666695,
          "durationTicks": 14,
          "midi": 35,
          "name": "B1",
          "ticks": 6660,
          "time": 27.2950665,
          "velocity": 0.7874015748031497
        },
        {
          "duration": 0.08196716666666504,
          "durationTicks": 20,
          "midi": 35,
          "name": "B1",
          "ticks": 6720,
          "time": 27.540968,
          "velocity": 0.9291338582677166
        },
        {
          "duration": 0.05737701666666695,
          "durationTicks": 14,
          "midi": 75,
          "name": "D#5",
          "ticks": 6780,
          "time": 27.786869499999998,
          "velocity": 0.8740157480314961
        },
        {
          "duration": 0.061475375000000554,
          "durationTicks": 15,
          "midi": 39,
          "name": "D#2",
          "ticks": 6840,
          "time": 28.032771,
          "velocity": 0.8661417322834646
        },
        {
          "duration": 0.06557373333333416,
          "durationTicks": 16,
          "midi": 35,
          "name": "B1",
          "ticks": 6900,
          "time": 28.2786725,
          "velocity": 0.8976377952755905
        },
        {
          "duration": 0.06557373333333061,
          "durationTicks": 16,
          "midi": 35,
          "name": "B1",
          "ticks": 6960,
          "time": 28.524574,
          "velocity": 0.937007874015748
        },
        {
          "duration": 0.05737701666666695,
          "durationTicks": 14,
          "midi": 39,
          "name": "D#2",
          "ticks": 7080,
          "time": 29.016377,
          "velocity": 0.84251968503937
        },
        {
          "duration": 0.06557373333333416,
          "durationTicks": 16,
          "midi": 35,
          "name": "B1",
          "ticks": 7200,
          "time": 29.50818,
          "velocity": 0.8976377952755905
        },
        {
          "duration": 0.05737701666666695,
          "durationTicks": 14,
          "midi": 35,
          "name": "B1",
          "ticks": 7260,
          "time": 29.754081499999998,
          "velocity": 0.8503937007874016
        },
        {
          "duration": 0.06557373333333061,
          "durationTicks": 16,
          "midi": 39,
          "name": "D#2",
          "ticks": 7320,
          "time": 29.999983,
          "velocity": 0.889763779527559
        },
        {
          "duration": 0.07786880833333143,
          "durationTicks": 19,
          "midi": 35,
          "name": "B1",
          "ticks": 7380,
          "time": 30.2458845,
          "velocity": 0.9291338582677166
        },
        {
          "duration": 0.061475375000000554,
          "durationTicks": 15,
          "midi": 39,
          "name": "D#2",
          "ticks": 7560,
          "time": 30.983589,
          "velocity": 0.937007874015748
        },
        {
          "duration": 0.07377045000000138,
          "durationTicks": 18,
          "midi": 35,
          "name": "B1",
          "ticks": 7680,
          "time": 31.475392,
          "velocity": 0.937007874015748
        },
        {
          "duration": 0.057377016666663394,
          "durationTicks": 14,
          "midi": 75,
          "name": "D#5",
          "ticks": 7740,
          "time": 31.721293499999998,
          "velocity": 0.8740157480314961
        },
        {
          "duration": 0.06557373333333416,
          "durationTicks": 16,
          "midi": 39,
          "name": "D#2",
          "ticks": 7800,
          "time": 31.967195,
          "velocity": 0.9291338582677166
        },
        {
          "duration": 0.06557373333333771,
          "durationTicks": 16,
          "midi": 35,
          "name": "B1",
          "ticks": 7860,
          "time": 32.2130965,
          "velocity": 0.8740157480314961
        },
        {
          "duration": 0.07377044999999782,
          "durationTicks": 18,
          "midi": 35,
          "name": "B1",
          "ticks": 7920,
          "time": 32.458998,
          "velocity": 0.9448818897637795
        },
        {
          "duration": 0.061475375000000554,
          "durationTicks": 15,
          "midi": 39,
          "name": "D#2",
          "ticks": 8040,
          "time": 32.950801,
          "velocity": 0.9212598425196851
        },
        {
          "duration": 0.07786880833332788,
          "durationTicks": 19,
          "midi": 35,
          "name": "B1",
          "ticks": 8160,
          "time": 33.442604,
          "velocity": 0.9448818897637795
        },
        {
          "duration": 0.07786880833333498,
          "durationTicks": 19,
          "midi": 35,
          "name": "B1",
          "ticks": 8220,
          "time": 33.6885055,
          "velocity": 0.6771653543307087
        },
        {
          "duration": 0.057377016666663394,
          "durationTicks": 14,
          "midi": 35,
          "name": "B1",
          "ticks": 8580,
          "time": 35.1639145,
          "velocity": 0.7874015748031497
        },
        {
          "duration": 0.08196716666667214,
          "durationTicks": 20,
          "midi": 35,
          "name": "B1",
          "ticks": 8640,
          "time": 35.409816,
          "velocity": 0.9291338582677166
        },
        {
          "duration": 0.057377016666663394,
          "durationTicks": 14,
          "midi": 75,
          "name": "D#5",
          "ticks": 8700,
          "time": 35.6557175,
          "velocity": 0.8740157480314961
        },
        {
          "duration": 0.061475375000000554,
          "durationTicks": 15,
          "midi": 39,
          "name": "D#2",
          "ticks": 8760,
          "time": 35.901619,
          "velocity": 0.8661417322834646
        },
        {
          "duration": 0.06557373333333771,
          "durationTicks": 16,
          "midi": 35,
          "name": "B1",
          "ticks": 8820,
          "time": 36.1475205,
          "velocity": 0.8976377952755905
        },
        {
          "duration": 0.06557373333333771,
          "durationTicks": 16,
          "midi": 35,
          "name": "B1",
          "ticks": 8880,
          "time": 36.393422,
          "velocity": 0.937007874015748
        },
        {
          "duration": 0.057377016666663394,
          "durationTicks": 14,
          "midi": 39,
          "name": "D#2",
          "ticks": 9000,
          "time": 36.885225,
          "velocity": 0.84251968503937
        },
        {
          "duration": 0.06557373333333771,
          "durationTicks": 16,
          "midi": 35,
          "name": "B1",
          "ticks": 9120,
          "time": 37.377027999999996,
          "velocity": 0.8976377952755905
        },
        {
          "duration": 0.057377016666663394,
          "durationTicks": 14,
          "midi": 35,
          "name": "B1",
          "ticks": 9180,
          "time": 37.6229295,
          "velocity": 0.8503937007874016
        },
        {
          "duration": 0.06557373333333771,
          "durationTicks": 16,
          "midi": 39,
          "name": "D#2",
          "ticks": 9240,
          "time": 37.868831,
          "velocity": 0.889763779527559
        },
        {
          "duration": 0.07786880833332788,
          "durationTicks": 19,
          "midi": 35,
          "name": "B1",
          "ticks": 9300,
          "time": 38.1147325,
          "velocity": 0.9291338582677166
        },
        {
          "duration": 0.061475375000000554,
          "durationTicks": 15,
          "midi": 39,
          "name": "D#2",
          "ticks": 9480,
          "time": 38.852437,
          "velocity": 0.937007874015748
        },
        {
          "duration": 0.07377045000000493,
          "durationTicks": 18,
          "midi": 35,
          "name": "B1",
          "ticks": 9600,
          "time": 39.34424,
          "velocity": 0.937007874015748
        },
        {
          "duration": 0.057377016666663394,
          "durationTicks": 14,
          "midi": 75,
          "name": "D#5",
          "ticks": 9660,
          "time": 39.5901415,
          "velocity": 0.8740157480314961
        },
        {
          "duration": 0.06557373333333771,
          "durationTicks": 16,
          "midi": 39,
          "name": "D#2",
          "ticks": 9720,
          "time": 39.836043,
          "velocity": 0.9291338582677166
        },
        {
          "duration": 0.06557373333333771,
          "durationTicks": 16,
          "midi": 35,
          "name": "B1",
          "ticks": 9780,
          "time": 40.0819445,
          "velocity": 0.8740157480314961
        },
        {
          "duration": 0.07377044999999782,
          "durationTicks": 18,
          "midi": 35,
          "name": "B1",
          "ticks": 9840,
          "time": 40.327846,
          "velocity": 0.9448818897637795
        },
        {
          "duration": 0.061475375000000554,
          "durationTicks": 15,
          "midi": 39,
          "name": "D#2",
          "ticks": 9960,
          "time": 40.819649,
          "velocity": 0.9212598425196851
        },
        {
          "duration": 0.07786880833332788,
          "durationTicks": 19,
          "midi": 35,
          "name": "B1",
          "ticks": 10080,
          "time": 41.311452,
          "velocity": 0.9448818897637795
        },
        {
          "duration": 0.07786880833333498,
          "durationTicks": 19,
          "midi": 35,
          "name": "B1",
          "ticks": 10140,
          "time": 41.5573535,
          "velocity": 0.6771653543307087
        },
        {
          "duration": 0.06967209166666777,
          "durationTicks": 17,
          "midi": 35,
          "name": "B1",
          "ticks": 10200,
          "time": 41.803255,
          "velocity": 0.6220472440944882
        },
        {
          "duration": 0.06557373333333771,
          "durationTicks": 16,
          "midi": 39,
          "name": "D#2",
          "ticks": 10200,
          "time": 41.803255,
          "velocity": 0.937007874015748
        },
        {
          "duration": 0.07377044999999782,
          "durationTicks": 18,
          "midi": 35,
          "name": "B1",
          "ticks": 10260,
          "time": 42.0491565,
          "velocity": 0.952755905511811
        },
        {
          "duration": 0.061475375000000554,
          "durationTicks": 15,
          "midi": 39,
          "name": "D#2",
          "ticks": 10440,
          "time": 42.786861,
          "velocity": 0.9448818897637795
        },
        {
          "duration": 0.057377016666663394,
          "durationTicks": 14,
          "midi": 35,
          "name": "B1",
          "ticks": 10500,
          "time": 43.0327625,
          "velocity": 0.7874015748031497
        },
        {
          "duration": 0.08196716666667214,
          "durationTicks": 20,
          "midi": 35,
          "name": "B1",
          "ticks": 10560,
          "time": 43.278664,
          "velocity": 0.9291338582677166
        },
        {
          "duration": 0.057377016666663394,
          "durationTicks": 14,
          "midi": 75,
          "name": "D#5",
          "ticks": 10620,
          "time": 43.5245655,
          "velocity": 0.8740157480314961
        },
        {
          "duration": 0.061475375000000554,
          "durationTicks": 15,
          "midi": 39,
          "name": "D#2",
          "ticks": 10680,
          "time": 43.770467,
          "velocity": 0.8661417322834646
        },
        {
          "duration": 0.06557373333333771,
          "durationTicks": 16,
          "midi": 35,
          "name": "B1",
          "ticks": 10740,
          "time": 44.0163685,
          "velocity": 0.8976377952755905
        },
        {
          "duration": 0.06557373333333771,
          "durationTicks": 16,
          "midi": 35,
          "name": "B1",
          "ticks": 10800,
          "time": 44.26227,
          "velocity": 0.937007874015748
        },
        {
          "duration": 0.057377016666663394,
          "durationTicks": 14,
          "midi": 39,
          "name": "D#2",
          "ticks": 10920,
          "time": 44.754073,
          "velocity": 0.84251968503937
        },
        {
          "duration": 0.06557373333333771,
          "durationTicks": 16,
          "midi": 35,
          "name": "B1",
          "ticks": 11040,
          "time": 45.245875999999996,
          "velocity": 0.8976377952755905
        },
        {
          "duration": 0.057377016666663394,
          "durationTicks": 14,
          "midi": 35,
          "name": "B1",
          "ticks": 11100,
          "time": 45.4917775,
          "velocity": 0.8503937007874016
        },
        {
          "duration": 0.06557373333333771,
          "durationTicks": 16,
          "midi": 39,
          "name": "D#2",
          "ticks": 11160,
          "time": 45.737679,
          "velocity": 0.889763779527559
        },
        {
          "duration": 0.07786880833332788,
          "durationTicks": 19,
          "midi": 35,
          "name": "B1",
          "ticks": 11220,
          "time": 45.9835805,
          "velocity": 0.9291338582677166
        },
        {
          "duration": 0.061475375000000554,
          "durationTicks": 15,
          "midi": 39,
          "name": "D#2",
          "ticks": 11400,
          "time": 46.721285,
          "velocity": 0.937007874015748
        },
        {
          "duration": 0.07377045000000493,
          "durationTicks": 18,
          "midi": 35,
          "name": "B1",
          "ticks": 11520,
          "time": 47.213088,
          "velocity": 0.937007874015748
        },
        {
          "duration": 0.057377016666663394,
          "durationTicks": 14,
          "midi": 75,
          "name": "D#5",
          "ticks": 11580,
          "time": 47.4589895,
          "velocity": 0.8740157480314961
        },
        {
          "duration": 0.06557373333333771,
          "durationTicks": 16,
          "midi": 39,
          "name": "D#2",
          "ticks": 11640,
          "time": 47.704890999999996,
          "velocity": 0.9291338582677166
        },
        {
          "duration": 0.06557373333333771,
          "durationTicks": 16,
          "midi": 35,
          "name": "B1",
          "ticks": 11700,
          "time": 47.9507925,
          "velocity": 0.8740157480314961
        },
        {
          "duration": 0.07377044999999782,
          "durationTicks": 18,
          "midi": 35,
          "name": "B1",
          "ticks": 11760,
          "time": 48.196694,
          "velocity": 0.9448818897637795
        },
        {
          "duration": 0.061475375000000554,
          "durationTicks": 15,
          "midi": 39,
          "name": "D#2",
          "ticks": 11880,
          "time": 48.688497,
          "velocity": 0.9212598425196851
        },
        {
          "duration": 0.07786880833332788,
          "durationTicks": 19,
          "midi": 35,
          "name": "B1",
          "ticks": 12000,
          "time": 49.1803,
          "velocity": 0.9448818897637795
        },
        {
          "duration": 0.07786880833333498,
          "durationTicks": 19,
          "midi": 35,
          "name": "B1",
          "ticks": 12060,
          "time": 49.4262015,
          "velocity": 0.6771653543307087
        },
        {
          "duration": 0.07786880833333498,
          "durationTicks": 19,
          "midi": 39,
          "name": "D#2",
          "ticks": 12120,
          "time": 49.672103,
          "velocity": 0.9291338582677166
        },
        {
          "duration": 0.07786880833332788,
          "durationTicks": 19,
          "midi": 35,
          "name": "B1",
          "ticks": 12180,
          "time": 49.9180045,
          "velocity": 0.8661417322834646
        },
        {
          "duration": 0.057377016666663394,
          "durationTicks": 14,
          "midi": 35,
          "name": "B1",
          "ticks": 12420,
          "time": 50.9016105,
          "velocity": 0.7874015748031497
        },
        {
          "duration": 0.08196716666667214,
          "durationTicks": 20,
          "midi": 35,
          "name": "B1",
          "ticks": 12480,
          "time": 51.147512,
          "velocity": 0.9291338582677166
        },
        {
          "duration": 0.057377016666663394,
          "durationTicks": 14,
          "midi": 75,
          "name": "D#5",
          "ticks": 12540,
          "time": 51.3934135,
          "velocity": 0.8740157480314961
        },
        {
          "duration": 0.061475375000000554,
          "durationTicks": 15,
          "midi": 39,
          "name": "D#2",
          "ticks": 12600,
          "time": 51.639314999999996,
          "velocity": 0.8661417322834646
        },
        {
          "duration": 0.06557373333333771,
          "durationTicks": 16,
          "midi": 35,
          "name": "B1",
          "ticks": 12660,
          "time": 51.8852165,
          "velocity": 0.8976377952755905
        },
        {
          "duration": 0.06557373333333771,
          "durationTicks": 16,
          "midi": 35,
          "name": "B1",
          "ticks": 12720,
          "time": 52.131118,
          "velocity": 0.937007874015748
        },
        {
          "duration": 0.057377016666663394,
          "durationTicks": 14,
          "midi": 39,
          "name": "D#2",
          "ticks": 12840,
          "time": 52.622921,
          "velocity": 0.84251968503937
        },
        {
          "duration": 0.06557373333333771,
          "durationTicks": 16,
          "midi": 35,
          "name": "B1",
          "ticks": 12960,
          "time": 53.114723999999995,
          "velocity": 0.8976377952755905
        },
        {
          "duration": 0.057377016666663394,
          "durationTicks": 14,
          "midi": 35,
          "name": "B1",
          "ticks": 13020,
          "time": 53.3606255,
          "velocity": 0.8503937007874016
        },
        {
          "duration": 0.06557373333333771,
          "durationTicks": 16,
          "midi": 39,
          "name": "D#2",
          "ticks": 13080,
          "time": 53.606527,
          "velocity": 0.889763779527559
        },
        {
          "duration": 0.07786880833332788,
          "durationTicks": 19,
          "midi": 35,
          "name": "B1",
          "ticks": 13140,
          "time": 53.8524285,
          "velocity": 0.9291338582677166
        },
        {
          "duration": 0.061475375000000554,
          "durationTicks": 15,
          "midi": 39,
          "name": "D#2",
          "ticks": 13320,
          "time": 54.590133,
          "velocity": 0.937007874015748
        },
        {
          "duration": 0.07377045000000493,
          "durationTicks": 18,
          "midi": 35,
          "name": "B1",
          "ticks": 13440,
          "time": 55.081936,
          "velocity": 0.937007874015748
        },
        {
          "duration": 0.057377016666663394,
          "durationTicks": 14,
          "midi": 75,
          "name": "D#5",
          "ticks": 13500,
          "time": 55.3278375,
          "velocity": 0.8740157480314961
        },
        {
          "duration": 0.06557373333333771,
          "durationTicks": 16,
          "midi": 39,
          "name": "D#2",
          "ticks": 13560,
          "time": 55.573738999999996,
          "velocity": 0.9291338582677166
        },
        {
          "duration": 0.06557373333333771,
          "durationTicks": 16,
          "midi": 35,
          "name": "B1",
          "ticks": 13620,
          "time": 55.8196405,
          "velocity": 0.8740157480314961
        },
        {
          "duration": 0.07377044999999782,
          "durationTicks": 18,
          "midi": 35,
          "name": "B1",
          "ticks": 13680,
          "time": 56.065542,
          "velocity": 0.9448818897637795
        },
        {
          "duration": 0.061475375000000554,
          "durationTicks": 15,
          "midi": 39,
          "name": "D#2",
          "ticks": 13800,
          "time": 56.557345,
          "velocity": 0.9212598425196851
        },
        {
          "duration": 0.07786880833332788,
          "durationTicks": 19,
          "midi": 35,
          "name": "B1",
          "ticks": 13920,
          "time": 57.049148,
          "velocity": 0.9448818897637795
        },
        {
          "duration": 0.07786880833333498,
          "durationTicks": 19,
          "midi": 35,
          "name": "B1",
          "ticks": 13980,
          "time": 57.2950495,
          "velocity": 0.6771653543307087
        },
        {
          "duration": 0.06967209166666777,
          "durationTicks": 17,
          "midi": 35,
          "name": "B1",
          "ticks": 14040,
          "time": 57.540951,
          "velocity": 0.6220472440944882
        },
        {
          "duration": 0.06557373333333771,
          "durationTicks": 16,
          "midi": 39,
          "name": "D#2",
          "ticks": 14040,
          "time": 57.540951,
          "velocity": 0.937007874015748
        },
        {
          "duration": 0.07377044999999782,
          "durationTicks": 18,
          "midi": 35,
          "name": "B1",
          "ticks": 14100,
          "time": 57.7868525,
          "velocity": 0.952755905511811
        },
        {
          "duration": 0.061475375000000554,
          "durationTicks": 15,
          "midi": 39,
          "name": "D#2",
          "ticks": 14280,
          "time": 58.524557,
          "velocity": 0.9448818897637795
        },
        {
          "duration": 0.057377016666663394,
          "durationTicks": 14,
          "midi": 35,
          "name": "B1",
          "ticks": 14340,
          "time": 58.7704585,
          "velocity": 0.7874015748031497
        },
        {
          "duration": 0.08196716666667214,
          "durationTicks": 20,
          "midi": 35,
          "name": "B1",
          "ticks": 14400,
          "time": 59.01636,
          "velocity": 0.9291338582677166
        },
        {
          "duration": 0.057377016666663394,
          "durationTicks": 14,
          "midi": 75,
          "name": "D#5",
          "ticks": 14460,
          "time": 59.2622615,
          "velocity": 0.8740157480314961
        },
        {
          "duration": 0.061475375000000554,
          "durationTicks": 15,
          "midi": 39,
          "name": "D#2",
          "ticks": 14520,
          "time": 59.508162999999996,
          "velocity": 0.8661417322834646
        },
        {
          "duration": 0.06557373333333771,
          "durationTicks": 16,
          "midi": 35,
          "name": "B1",
          "ticks": 14580,
          "time": 59.7540645,
          "velocity": 0.8976377952755905
        },
        {
          "duration": 0.06557373333333771,
          "durationTicks": 16,
          "midi": 35,
          "name": "B1",
          "ticks": 14640,
          "time": 59.999966,
          "velocity": 0.937007874015748
        },
        {
          "duration": 0.057377016666663394,
          "durationTicks": 14,
          "midi": 39,
          "name": "D#2",
          "ticks": 14760,
          "time": 60.491769,
          "velocity": 0.84251968503937
        },
        {
          "duration": 0.06557373333333771,
          "durationTicks": 16,
          "midi": 35,
          "name": "B1",
          "ticks": 14880,
          "time": 60.983571999999995,
          "velocity": 0.8976377952755905
        },
        {
          "duration": 0.057377016666663394,
          "durationTicks": 14,
          "midi": 35,
          "name": "B1",
          "ticks": 14940,
          "time": 61.2294735,
          "velocity": 0.8503937007874016
        },
        {
          "duration": 0.06557373333333771,
          "durationTicks": 16,
          "midi": 39,
          "name": "D#2",
          "ticks": 15000,
          "time": 61.475375,
          "velocity": 0.889763779527559
        },
        {
          "duration": 0.07786880833332788,
          "durationTicks": 19,
          "midi": 35,
          "name": "B1",
          "ticks": 15060,
          "time": 61.7212765,
          "velocity": 0.9291338582677166
        },
        {
          "duration": 0.061475375000000554,
          "durationTicks": 15,
          "midi": 39,
          "name": "D#2",
          "ticks": 15240,
          "time": 62.458981,
          "velocity": 0.937007874015748
        },
        {
          "duration": 0.07377045000000493,
          "durationTicks": 18,
          "midi": 35,
          "name": "B1",
          "ticks": 15360,
          "time": 62.950784,
          "velocity": 0.937007874015748
        },
        {
          "duration": 0.0573770166666705,
          "durationTicks": 14,
          "midi": 75,
          "name": "D#5",
          "ticks": 15420,
          "time": 63.1966855,
          "velocity": 0.8740157480314961
        },
        {
          "duration": 0.06557373333333061,
          "durationTicks": 16,
          "midi": 39,
          "name": "D#2",
          "ticks": 15480,
          "time": 63.442586999999996,
          "velocity": 0.9291338582677166
        },
        {
          "duration": 0.06557373333333061,
          "durationTicks": 16,
          "midi": 35,
          "name": "B1",
          "ticks": 15540,
          "time": 63.6884885,
          "velocity": 0.8740157480314961
        },
        {
          "duration": 0.07377045000000493,
          "durationTicks": 18,
          "midi": 35,
          "name": "B1",
          "ticks": 15600,
          "time": 63.93439,
          "velocity": 0.9448818897637795
        },
        {
          "duration": 0.061475375000000554,
          "durationTicks": 15,
          "midi": 39,
          "name": "D#2",
          "ticks": 15720,
          "time": 64.426193,
          "velocity": 0.9212598425196851
        },
        {
          "duration": 0.07786880833333498,
          "durationTicks": 19,
          "midi": 35,
          "name": "B1",
          "ticks": 15840,
          "time": 64.917996,
          "velocity": 0.9448818897637795
        },
        {
          "duration": 0.07786880833332077,
          "durationTicks": 19,
          "midi": 35,
          "name": "B1",
          "ticks": 15900,
          "time": 65.1638975,
          "velocity": 0.6771653543307087
        },
        {
          "duration": 0.07786880833333498,
          "durationTicks": 19,
          "midi": 39,
          "name": "D#2",
          "ticks": 15960,
          "time": 65.40979899999999,
          "velocity": 0.9448818897637795
        },
        {
          "duration": 0.07786880833333498,
          "durationTicks": 19,
          "midi": 35,
          "name": "B1",
          "ticks": 16020,
          "time": 65.6557005,
          "velocity": 0.8661417322834646
        },
        {
          "duration": 0.057377016666663394,
          "durationTicks": 14,
          "midi": 35,
          "name": "B1",
          "ticks": 16260,
          "time": 66.6393065,
          "velocity": 0.7874015748031497
        },
        {
          "duration": 0.08196716666665793,
          "durationTicks": 20,
          "midi": 35,
          "name": "B1",
          "ticks": 16320,
          "time": 66.885208,
          "velocity": 0.9291338582677166
        },
        {
          "duration": 0.057377016666677605,
          "durationTicks": 14,
          "midi": 75,
          "name": "D#5",
          "ticks": 16380,
          "time": 67.1311095,
          "velocity": 0.8740157480314961
        },
        {
          "duration": 0.061475375000000554,
          "durationTicks": 15,
          "midi": 39,
          "name": "D#2",
          "ticks": 16440,
          "time": 67.377011,
          "velocity": 0.8661417322834646
        },
        {
          "duration": 0.0655737333333235,
          "durationTicks": 16,
          "midi": 35,
          "name": "B1",
          "ticks": 16500,
          "time": 67.6229125,
          "velocity": 0.8976377952755905
        },
        {
          "duration": 0.0655737333333235,
          "durationTicks": 16,
          "midi": 35,
          "name": "B1",
          "ticks": 16560,
          "time": 67.868814,
          "velocity": 0.937007874015748
        },
        {
          "duration": 0.057377016666663394,
          "durationTicks": 14,
          "midi": 39,
          "name": "D#2",
          "ticks": 16680,
          "time": 68.360617,
          "velocity": 0.84251968503937
        },
        {
          "duration": 0.06557373333333771,
          "durationTicks": 16,
          "midi": 35,
          "name": "B1",
          "ticks": 16800,
          "time": 68.85242,
          "velocity": 0.8976377952755905
        },
        {
          "duration": 0.057377016666677605,
          "durationTicks": 14,
          "midi": 35,
          "name": "B1",
          "ticks": 16860,
          "time": 69.0983215,
          "velocity": 0.8503937007874016
        },
        {
          "duration": 0.0655737333333235,
          "durationTicks": 16,
          "midi": 39,
          "name": "D#2",
          "ticks": 16920,
          "time": 69.344223,
          "velocity": 0.889763779527559
        },
        {
          "duration": 0.07786880833333498,
          "durationTicks": 19,
          "midi": 35,
          "name": "B1",
          "ticks": 16980,
          "time": 69.5901245,
          "velocity": 0.9291338582677166
        },
        {
          "duration": 0.061475375000000554,
          "durationTicks": 15,
          "midi": 39,
          "name": "D#2",
          "ticks": 17160,
          "time": 70.327829,
          "velocity": 0.937007874015748
        },
        {
          "duration": 0.07377044999999782,
          "durationTicks": 18,
          "midi": 35,
          "name": "B1",
          "ticks": 17280,
          "time": 70.819632,
          "velocity": 0.937007874015748
        },
        {
          "duration": 0.057377016666663394,
          "durationTicks": 14,
          "midi": 75,
          "name": "D#5",
          "ticks": 17340,
          "time": 71.0655335,
          "velocity": 0.8740157480314961
        },
        {
          "duration": 0.0655737333333235,
          "durationTicks": 16,
          "midi": 39,
          "name": "D#2",
          "ticks": 17400,
          "time": 71.311435,
          "velocity": 0.9291338582677166
        },
        {
          "duration": 0.0655737333333235,
          "durationTicks": 16,
          "midi": 35,
          "name": "B1",
          "ticks": 17460,
          "time": 71.5573365,
          "velocity": 0.8740157480314961
        },
        {
          "duration": 0.07377045000001203,
          "durationTicks": 18,
          "midi": 35,
          "name": "B1",
          "ticks": 17520,
          "time": 71.803238,
          "velocity": 0.9448818897637795
        },
        {
          "duration": 0.061475375000000554,
          "durationTicks": 15,
          "midi": 39,
          "name": "D#2",
          "ticks": 17640,
          "time": 72.295041,
          "velocity": 0.9212598425196851
        },
        {
          "duration": 0.07786880833333498,
          "durationTicks": 19,
          "midi": 35,
          "name": "B1",
          "ticks": 17760,
          "time": 72.786844,
          "velocity": 0.9448818897637795
        },
        {
          "duration": 0.07786880833332077,
          "durationTicks": 19,
          "midi": 35,
          "name": "B1",
          "ticks": 17820,
          "time": 73.0327455,
          "velocity": 0.6771653543307087
        },
        {
          "duration": 0.06967209166667487,
          "durationTicks": 17,
          "midi": 35,
          "name": "B1",
          "ticks": 17880,
          "time": 73.27864699999999,
          "velocity": 0.6220472440944882
        },
        {
          "duration": 0.06557373333333771,
          "durationTicks": 16,
          "midi": 39,
          "name": "D#2",
          "ticks": 17880,
          "time": 73.27864699999999,
          "velocity": 0.937007874015748
        },
        {
          "duration": 0.07377045000001203,
          "durationTicks": 18,
          "midi": 35,
          "name": "B1",
          "ticks": 17940,
          "time": 73.5245485,
          "velocity": 0.952755905511811
        },
        {
          "duration": 0.061475375000000554,
          "durationTicks": 15,
          "midi": 39,
          "name": "D#2",
          "ticks": 18120,
          "time": 74.262253,
          "velocity": 0.9448818897637795
        },
        {
          "duration": 0.057377016666663394,
          "durationTicks": 14,
          "midi": 35,
          "name": "B1",
          "ticks": 18180,
          "time": 74.5081545,
          "velocity": 0.7874015748031497
        },
        {
          "duration": 0.08196716666667214,
          "durationTicks": 20,
          "midi": 35,
          "name": "B1",
          "ticks": 18240,
          "time": 74.75405599999999,
          "velocity": 0.9291338582677166
        },
        {
          "duration": 0.057377016666677605,
          "durationTicks": 14,
          "midi": 75,
          "name": "D#5",
          "ticks": 18300,
          "time": 74.9999575,
          "velocity": 0.8740157480314961
        },
        {
          "duration": 0.061475375000000554,
          "durationTicks": 15,
          "midi": 39,
          "name": "D#2",
          "ticks": 18360,
          "time": 75.245859,
          "velocity": 0.8661417322834646
        },
        {
          "duration": 0.0655737333333235,
          "durationTicks": 16,
          "midi": 35,
          "name": "B1",
          "ticks": 18420,
          "time": 75.4917605,
          "velocity": 0.8976377952755905
        },
        {
          "duration": 0.0655737333333235,
          "durationTicks": 16,
          "midi": 35,
          "name": "B1",
          "ticks": 18480,
          "time": 75.737662,
          "velocity": 0.937007874015748
        },
        {
          "duration": 0.057377016666663394,
          "durationTicks": 14,
          "midi": 39,
          "name": "D#2",
          "ticks": 18600,
          "time": 76.229465,
          "velocity": 0.84251968503937
        },
        {
          "duration": 0.06557373333333771,
          "durationTicks": 16,
          "midi": 35,
          "name": "B1",
          "ticks": 18720,
          "time": 76.721268,
          "velocity": 0.8976377952755905
        },
        {
          "duration": 0.057377016666677605,
          "durationTicks": 14,
          "midi": 35,
          "name": "B1",
          "ticks": 18780,
          "time": 76.9671695,
          "velocity": 0.8503937007874016
        },
        {
          "duration": 0.0655737333333235,
          "durationTicks": 16,
          "midi": 39,
          "name": "D#2",
          "ticks": 18840,
          "time": 77.213071,
          "velocity": 0.889763779527559
        },
        {
          "duration": 0.07786880833333498,
          "durationTicks": 19,
          "midi": 35,
          "name": "B1",
          "ticks": 18900,
          "time": 77.4589725,
          "velocity": 0.9291338582677166
        },
        {
          "duration": 0.061475375000000554,
          "durationTicks": 15,
          "midi": 39,
          "name": "D#2",
          "ticks": 19080,
          "time": 78.196677,
          "velocity": 0.937007874015748
        },
        {
          "duration": 0.07377044999999782,
          "durationTicks": 18,
          "midi": 35,
          "name": "B1",
          "ticks": 19200,
          "time": 78.68848,
          "velocity": 0.937007874015748
        },
        {
          "duration": 0.057377016666663394,
          "durationTicks": 14,
          "midi": 75,
          "name": "D#5",
          "ticks": 19260,
          "time": 78.9343815,
          "velocity": 0.8740157480314961
        },
        {
          "duration": 0.0655737333333235,
          "durationTicks": 16,
          "midi": 39,
          "name": "D#2",
          "ticks": 19320,
          "time": 79.180283,
          "velocity": 0.9291338582677166
        },
        {
          "duration": 0.0655737333333235,
          "durationTicks": 16,
          "midi": 35,
          "name": "B1",
          "ticks": 19380,
          "time": 79.4261845,
          "velocity": 0.8740157480314961
        },
        {
          "duration": 0.07377045000001203,
          "durationTicks": 18,
          "midi": 35,
          "name": "B1",
          "ticks": 19440,
          "time": 79.672086,
          "velocity": 0.9448818897637795
        },
        {
          "duration": 0.061475375000000554,
          "durationTicks": 15,
          "midi": 39,
          "name": "D#2",
          "ticks": 19560,
          "time": 80.163889,
          "velocity": 0.9212598425196851
        },
        {
          "duration": 0.07786880833333498,
          "durationTicks": 19,
          "midi": 35,
          "name": "B1",
          "ticks": 19680,
          "time": 80.655692,
          "velocity": 0.9448818897637795
        },
        {
          "duration": 0.07786880833332077,
          "durationTicks": 19,
          "midi": 35,
          "name": "B1",
          "ticks": 19740,
          "time": 80.9015935,
          "velocity": 0.6771653543307087
        },
        {
          "duration": 0.07786880833333498,
          "durationTicks": 19,
          "midi": 39,
          "name": "D#2",
          "ticks": 19800,
          "time": 81.14749499999999,
          "velocity": 0.9291338582677166
        },
        {
          "duration": 0.07786880833333498,
          "durationTicks": 19,
          "midi": 35,
          "name": "B1",
          "ticks": 19860,
          "time": 81.3933965,
          "velocity": 0.8503937007874016
        },
        {
          "duration": 0.057377016666663394,
          "durationTicks": 14,
          "midi": 35,
          "name": "B1",
          "ticks": 20100,
          "time": 82.3770025,
          "velocity": 0.7874015748031497
        },
        {
          "duration": 0.08196716666665793,
          "durationTicks": 20,
          "midi": 35,
          "name": "B1",
          "ticks": 20160,
          "time": 82.622904,
          "velocity": 0.9291338582677166
        },
        {
          "duration": 0.057377016666677605,
          "durationTicks": 14,
          "midi": 75,
          "name": "D#5",
          "ticks": 20220,
          "time": 82.8688055,
          "velocity": 0.8740157480314961
        },
        {
          "duration": 0.061475375000000554,
          "durationTicks": 15,
          "midi": 39,
          "name": "D#2",
          "ticks": 20280,
          "time": 83.114707,
          "velocity": 0.8661417322834646
        },
        {
          "duration": 0.0655737333333235,
          "durationTicks": 16,
          "midi": 35,
          "name": "B1",
          "ticks": 20340,
          "time": 83.3606085,
          "velocity": 0.8976377952755905
        },
        {
          "duration": 0.0655737333333235,
          "durationTicks": 16,
          "midi": 35,
          "name": "B1",
          "ticks": 20400,
          "time": 83.60651,
          "velocity": 0.937007874015748
        },
        {
          "duration": 0.057377016666663394,
          "durationTicks": 14,
          "midi": 39,
          "name": "D#2",
          "ticks": 20520,
          "time": 84.098313,
          "velocity": 0.84251968503937
        },
        {
          "duration": 0.06557373333333771,
          "durationTicks": 16,
          "midi": 35,
          "name": "B1",
          "ticks": 20640,
          "time": 84.590116,
          "velocity": 0.8976377952755905
        },
        {
          "duration": 0.057377016666677605,
          "durationTicks": 14,
          "midi": 35,
          "name": "B1",
          "ticks": 20700,
          "time": 84.8360175,
          "velocity": 0.8503937007874016
        },
        {
          "duration": 0.0655737333333235,
          "durationTicks": 16,
          "midi": 39,
          "name": "D#2",
          "ticks": 20760,
          "time": 85.081919,
          "velocity": 0.889763779527559
        },
        {
          "duration": 0.07786880833333498,
          "durationTicks": 19,
          "midi": 35,
          "name": "B1",
          "ticks": 20820,
          "time": 85.3278205,
          "velocity": 0.9291338582677166
        },
        {
          "duration": 0.061475375000000554,
          "durationTicks": 15,
          "midi": 39,
          "name": "D#2",
          "ticks": 21000,
          "time": 86.065525,
          "velocity": 0.937007874015748
        },
        {
          "duration": 0.07377044999999782,
          "durationTicks": 18,
          "midi": 35,
          "name": "B1",
          "ticks": 21120,
          "time": 86.557328,
          "velocity": 0.937007874015748
        },
        {
          "duration": 0.057377016666663394,
          "durationTicks": 14,
          "midi": 75,
          "name": "D#5",
          "ticks": 21180,
          "time": 86.8032295,
          "velocity": 0.8740157480314961
        },
        {
          "duration": 0.0655737333333235,
          "durationTicks": 16,
          "midi": 39,
          "name": "D#2",
          "ticks": 21240,
          "time": 87.049131,
          "velocity": 0.9291338582677166
        },
        {
          "duration": 0.0655737333333235,
          "durationTicks": 16,
          "midi": 35,
          "name": "B1",
          "ticks": 21300,
          "time": 87.2950325,
          "velocity": 0.8740157480314961
        },
        {
          "duration": 0.07377045000001203,
          "durationTicks": 18,
          "midi": 35,
          "name": "B1",
          "ticks": 21360,
          "time": 87.540934,
          "velocity": 0.9448818897637795
        },
        {
          "duration": 0.061475375000000554,
          "durationTicks": 15,
          "midi": 39,
          "name": "D#2",
          "ticks": 21480,
          "time": 88.032737,
          "velocity": 0.9212598425196851
        },
        {
          "duration": 0.07786880833333498,
          "durationTicks": 19,
          "midi": 35,
          "name": "B1",
          "ticks": 21600,
          "time": 88.52454,
          "velocity": 0.9448818897637795
        },
        {
          "duration": 0.07786880833332077,
          "durationTicks": 19,
          "midi": 35,
          "name": "B1",
          "ticks": 21660,
          "time": 88.7704415,
          "velocity": 0.6771653543307087
        },
        {
          "duration": 0.06967209166667487,
          "durationTicks": 17,
          "midi": 35,
          "name": "B1",
          "ticks": 21720,
          "time": 89.01634299999999,
          "velocity": 0.6220472440944882
        },
        {
          "duration": 0.06557373333333771,
          "durationTicks": 16,
          "midi": 39,
          "name": "D#2",
          "ticks": 21720,
          "time": 89.01634299999999,
          "velocity": 0.937007874015748
        },
        {
          "duration": 0.07377045000001203,
          "durationTicks": 18,
          "midi": 35,
          "name": "B1",
          "ticks": 21780,
          "time": 89.2622445,
          "velocity": 0.952755905511811
        },
        {
          "duration": 0.061475375000000554,
          "durationTicks": 15,
          "midi": 39,
          "name": "D#2",
          "ticks": 21960,
          "time": 89.999949,
          "velocity": 0.9448818897637795
        },
        {
          "duration": 0.057377016666663394,
          "durationTicks": 14,
          "midi": 35,
          "name": "B1",
          "ticks": 22020,
          "time": 90.2458505,
          "velocity": 0.7874015748031497
        },
        {
          "duration": 0.08196716666667214,
          "durationTicks": 20,
          "midi": 35,
          "name": "B1",
          "ticks": 22080,
          "time": 90.49175199999999,
          "velocity": 0.9291338582677166
        },
        {
          "duration": 0.057377016666677605,
          "durationTicks": 14,
          "midi": 75,
          "name": "D#5",
          "ticks": 22140,
          "time": 90.7376535,
          "velocity": 0.8740157480314961
        },
        {
          "duration": 0.061475375000000554,
          "durationTicks": 15,
          "midi": 39,
          "name": "D#2",
          "ticks": 22200,
          "time": 90.983555,
          "velocity": 0.8661417322834646
        },
        {
          "duration": 0.0655737333333235,
          "durationTicks": 16,
          "midi": 35,
          "name": "B1",
          "ticks": 22260,
          "time": 91.2294565,
          "velocity": 0.8976377952755905
        },
        {
          "duration": 0.0655737333333235,
          "durationTicks": 16,
          "midi": 35,
          "name": "B1",
          "ticks": 22320,
          "time": 91.475358,
          "velocity": 0.937007874015748
        },
        {
          "duration": 0.057377016666663394,
          "durationTicks": 14,
          "midi": 39,
          "name": "D#2",
          "ticks": 22440,
          "time": 91.967161,
          "velocity": 0.84251968503937
        },
        {
          "duration": 0.06557373333333771,
          "durationTicks": 16,
          "midi": 35,
          "name": "B1",
          "ticks": 22560,
          "time": 92.458964,
          "velocity": 0.8976377952755905
        },
        {
          "duration": 0.057377016666677605,
          "durationTicks": 14,
          "midi": 35,
          "name": "B1",
          "ticks": 22620,
          "time": 92.7048655,
          "velocity": 0.8503937007874016
        },
        {
          "duration": 0.0655737333333235,
          "durationTicks": 16,
          "midi": 39,
          "name": "D#2",
          "ticks": 22680,
          "time": 92.950767,
          "velocity": 0.889763779527559
        },
        {
          "duration": 0.07786880833333498,
          "durationTicks": 19,
          "midi": 35,
          "name": "B1",
          "ticks": 22740,
          "time": 93.1966685,
          "velocity": 0.9291338582677166
        },
        {
          "duration": 0.061475375000000554,
          "durationTicks": 15,
          "midi": 39,
          "name": "D#2",
          "ticks": 22920,
          "time": 93.934373,
          "velocity": 0.937007874015748
        },
        {
          "duration": 0.07377044999999782,
          "durationTicks": 18,
          "midi": 35,
          "name": "B1",
          "ticks": 23040,
          "time": 94.426176,
          "velocity": 0.937007874015748
        },
        {
          "duration": 0.057377016666663394,
          "durationTicks": 14,
          "midi": 75,
          "name": "D#5",
          "ticks": 23100,
          "time": 94.6720775,
          "velocity": 0.8740157480314961
        },
        {
          "duration": 0.0655737333333235,
          "durationTicks": 16,
          "midi": 39,
          "name": "D#2",
          "ticks": 23160,
          "time": 94.917979,
          "velocity": 0.9291338582677166
        },
        {
          "duration": 0.0655737333333235,
          "durationTicks": 16,
          "midi": 35,
          "name": "B1",
          "ticks": 23220,
          "time": 95.1638805,
          "velocity": 0.8740157480314961
        },
        {
          "duration": 0.07377045000001203,
          "durationTicks": 18,
          "midi": 35,
          "name": "B1",
          "ticks": 23280,
          "time": 95.40978199999999,
          "velocity": 0.9448818897637795
        },
        {
          "duration": 0.061475375000000554,
          "durationTicks": 15,
          "midi": 39,
          "name": "D#2",
          "ticks": 23400,
          "time": 95.901585,
          "velocity": 0.9212598425196851
        },
        {
          "duration": 0.07786880833333498,
          "durationTicks": 19,
          "midi": 35,
          "name": "B1",
          "ticks": 23520,
          "time": 96.393388,
          "velocity": 0.9448818897637795
        },
        {
          "duration": 0.07786880833332077,
          "durationTicks": 19,
          "midi": 35,
          "name": "B1",
          "ticks": 23580,
          "time": 96.6392895,
          "velocity": 0.6771653543307087
        },
        {
          "duration": 0.057377016666663394,
          "durationTicks": 14,
          "midi": 35,
          "name": "B1",
          "ticks": 23940,
          "time": 98.1146985,
          "velocity": 0.7874015748031497
        },
        {
          "duration": 0.08196716666665793,
          "durationTicks": 20,
          "midi": 35,
          "name": "B1",
          "ticks": 24000,
          "time": 98.3606,
          "velocity": 0.9291338582677166
        },
        {
          "duration": 0.057377016666677605,
          "durationTicks": 14,
          "midi": 75,
          "name": "D#5",
          "ticks": 24060,
          "time": 98.6065015,
          "velocity": 0.8740157480314961
        },
        {
          "duration": 0.061475375000000554,
          "durationTicks": 15,
          "midi": 39,
          "name": "D#2",
          "ticks": 24120,
          "time": 98.852403,
          "velocity": 0.8661417322834646
        },
        {
          "duration": 0.0655737333333235,
          "durationTicks": 16,
          "midi": 35,
          "name": "B1",
          "ticks": 24180,
          "time": 99.0983045,
          "velocity": 0.8976377952755905
        },
        {
          "duration": 0.0655737333333235,
          "durationTicks": 16,
          "midi": 35,
          "name": "B1",
          "ticks": 24240,
          "time": 99.344206,
          "velocity": 0.937007874015748
        },
        {
          "duration": 0.057377016666663394,
          "durationTicks": 14,
          "midi": 39,
          "name": "D#2",
          "ticks": 24360,
          "time": 99.836009,
          "velocity": 0.84251968503937
        },
        {
          "duration": 0.06557373333333771,
          "durationTicks": 16,
          "midi": 35,
          "name": "B1",
          "ticks": 24480,
          "time": 100.327812,
          "velocity": 0.8976377952755905
        },
        {
          "duration": 0.057377016666677605,
          "durationTicks": 14,
          "midi": 35,
          "name": "B1",
          "ticks": 24540,
          "time": 100.5737135,
          "velocity": 0.8503937007874016
        },
        {
          "duration": 0.0655737333333235,
          "durationTicks": 16,
          "midi": 39,
          "name": "D#2",
          "ticks": 24600,
          "time": 100.819615,
          "velocity": 0.889763779527559
        },
        {
          "duration": 0.07786880833333498,
          "durationTicks": 19,
          "midi": 35,
          "name": "B1",
          "ticks": 24660,
          "time": 101.0655165,
          "velocity": 0.9291338582677166
        },
        {
          "duration": 0.061475375000000554,
          "durationTicks": 15,
          "midi": 39,
          "name": "D#2",
          "ticks": 24840,
          "time": 101.803221,
          "velocity": 0.937007874015748
        },
        {
          "duration": 0.07377044999999782,
          "durationTicks": 18,
          "midi": 35,
          "name": "B1",
          "ticks": 24960,
          "time": 102.295024,
          "velocity": 0.937007874015748
        },
        {
          "duration": 0.057377016666663394,
          "durationTicks": 14,
          "midi": 75,
          "name": "D#5",
          "ticks": 25020,
          "time": 102.5409255,
          "velocity": 0.8740157480314961
        },
        {
          "duration": 0.0655737333333235,
          "durationTicks": 16,
          "midi": 39,
          "name": "D#2",
          "ticks": 25080,
          "time": 102.786827,
          "velocity": 0.9291338582677166
        },
        {
          "duration": 0.0655737333333235,
          "durationTicks": 16,
          "midi": 35,
          "name": "B1",
          "ticks": 25140,
          "time": 103.0327285,
          "velocity": 0.8740157480314961
        },
        {
          "duration": 0.07377045000001203,
          "durationTicks": 18,
          "midi": 35,
          "name": "B1",
          "ticks": 25200,
          "time": 103.27862999999999,
          "velocity": 0.9448818897637795
        },
        {
          "duration": 0.061475375000000554,
          "durationTicks": 15,
          "midi": 39,
          "name": "D#2",
          "ticks": 25320,
          "time": 103.770433,
          "velocity": 0.9212598425196851
        },
        {
          "duration": 0.07786880833333498,
          "durationTicks": 19,
          "midi": 35,
          "name": "B1",
          "ticks": 25440,
          "time": 104.262236,
          "velocity": 0.9448818897637795
        },
        {
          "duration": 0.07786880833332077,
          "durationTicks": 19,
          "midi": 35,
          "name": "B1",
          "ticks": 25500,
          "time": 104.5081375,
          "velocity": 0.6771653543307087
        },
        {
          "duration": 0.06967209166667487,
          "durationTicks": 17,
          "midi": 35,
          "name": "B1",
          "ticks": 25560,
          "time": 104.75403899999999,
          "velocity": 0.6220472440944882
        },
        {
          "duration": 0.06557373333333771,
          "durationTicks": 16,
          "midi": 39,
          "name": "D#2",
          "ticks": 25560,
          "time": 104.75403899999999,
          "velocity": 0.937007874015748
        },
        {
          "duration": 0.07377045000001203,
          "durationTicks": 18,
          "midi": 35,
          "name": "B1",
          "ticks": 25620,
          "time": 104.9999405,
          "velocity": 0.952755905511811
        },
        {
          "duration": 0.061475375000000554,
          "durationTicks": 15,
          "midi": 39,
          "name": "D#2",
          "ticks": 25800,
          "time": 105.737645,
          "velocity": 0.9448818897637795
        },
        {
          "duration": 0.057377016666663394,
          "durationTicks": 14,
          "midi": 35,
          "name": "B1",
          "ticks": 25860,
          "time": 105.9835465,
          "velocity": 0.7874015748031497
        },
        {
          "duration": 0.08196716666667214,
          "durationTicks": 20,
          "midi": 35,
          "name": "B1",
          "ticks": 25920,
          "time": 106.22944799999999,
          "velocity": 0.9291338582677166
        },
        {
          "duration": 0.057377016666677605,
          "durationTicks": 14,
          "midi": 75,
          "name": "D#5",
          "ticks": 25980,
          "time": 106.4753495,
          "velocity": 0.8740157480314961
        },
        {
          "duration": 0.061475375000000554,
          "durationTicks": 15,
          "midi": 39,
          "name": "D#2",
          "ticks": 26040,
          "time": 106.721251,
          "velocity": 0.8661417322834646
        },
        {
          "duration": 0.0655737333333235,
          "durationTicks": 16,
          "midi": 35,
          "name": "B1",
          "ticks": 26100,
          "time": 106.9671525,
          "velocity": 0.8976377952755905
        },
        {
          "duration": 0.0655737333333235,
          "durationTicks": 16,
          "midi": 35,
          "name": "B1",
          "ticks": 26160,
          "time": 107.213054,
          "velocity": 0.937007874015748
        },
        {
          "duration": 0.057377016666663394,
          "durationTicks": 14,
          "midi": 39,
          "name": "D#2",
          "ticks": 26280,
          "time": 107.704857,
          "velocity": 0.84251968503937
        },
        {
          "duration": 0.06557373333333771,
          "durationTicks": 16,
          "midi": 35,
          "name": "B1",
          "ticks": 26400,
          "time": 108.19666,
          "velocity": 0.8976377952755905
        },
        {
          "duration": 0.057377016666677605,
          "durationTicks": 14,
          "midi": 35,
          "name": "B1",
          "ticks": 26460,
          "time": 108.4425615,
          "velocity": 0.8503937007874016
        },
        {
          "duration": 0.0655737333333235,
          "durationTicks": 16,
          "midi": 39,
          "name": "D#2",
          "ticks": 26520,
          "time": 108.688463,
          "velocity": 0.889763779527559
        },
        {
          "duration": 0.07786880833333498,
          "durationTicks": 19,
          "midi": 35,
          "name": "B1",
          "ticks": 26580,
          "time": 108.9343645,
          "velocity": 0.9291338582677166
        },
        {
          "duration": 0.061475375000000554,
          "durationTicks": 15,
          "midi": 39,
          "name": "D#2",
          "ticks": 26760,
          "time": 109.672069,
          "velocity": 0.937007874015748
        },
        {
          "duration": 0.07377044999999782,
          "durationTicks": 18,
          "midi": 35,
          "name": "B1",
          "ticks": 26880,
          "time": 110.163872,
          "velocity": 0.937007874015748
        },
        {
          "duration": 0.057377016666663394,
          "durationTicks": 14,
          "midi": 75,
          "name": "D#5",
          "ticks": 26940,
          "time": 110.4097735,
          "velocity": 0.8740157480314961
        },
        {
          "duration": 0.0655737333333235,
          "durationTicks": 16,
          "midi": 39,
          "name": "D#2",
          "ticks": 27000,
          "time": 110.655675,
          "velocity": 0.9291338582677166
        },
        {
          "duration": 0.0655737333333235,
          "durationTicks": 16,
          "midi": 35,
          "name": "B1",
          "ticks": 27060,
          "time": 110.9015765,
          "velocity": 0.8740157480314961
        },
        {
          "duration": 0.07377045000001203,
          "durationTicks": 18,
          "midi": 35,
          "name": "B1",
          "ticks": 27120,
          "time": 111.14747799999999,
          "velocity": 0.9448818897637795
        },
        {
          "duration": 0.061475375000000554,
          "durationTicks": 15,
          "midi": 39,
          "name": "D#2",
          "ticks": 27240,
          "time": 111.639281,
          "velocity": 0.9212598425196851
        },
        {
          "duration": 0.07786880833333498,
          "durationTicks": 19,
          "midi": 35,
          "name": "B1",
          "ticks": 27360,
          "time": 112.131084,
          "velocity": 0.9448818897637795
        },
        {
          "duration": 0.07786880833332077,
          "durationTicks": 19,
          "midi": 35,
          "name": "B1",
          "ticks": 27420,
          "time": 112.3769855,
          "velocity": 0.6771653543307087
        },
        {
          "duration": 0.057377016666663394,
          "durationTicks": 14,
          "midi": 35,
          "name": "B1",
          "ticks": 27780,
          "time": 113.8523945,
          "velocity": 0.7874015748031497
        },
        {
          "duration": 0.08196716666665793,
          "durationTicks": 20,
          "midi": 35,
          "name": "B1",
          "ticks": 27840,
          "time": 114.098296,
          "velocity": 0.9291338582677166
        },
        {
          "duration": 0.057377016666677605,
          "durationTicks": 14,
          "midi": 75,
          "name": "D#5",
          "ticks": 27900,
          "time": 114.34419749999999,
          "velocity": 0.8740157480314961
        },
        {
          "duration": 0.061475375000000554,
          "durationTicks": 15,
          "midi": 39,
          "name": "D#2",
          "ticks": 27960,
          "time": 114.590099,
          "velocity": 0.8661417322834646
        },
        {
          "duration": 0.0655737333333235,
          "durationTicks": 16,
          "midi": 35,
          "name": "B1",
          "ticks": 28020,
          "time": 114.8360005,
          "velocity": 0.8976377952755905
        },
        {
          "duration": 0.0655737333333235,
          "durationTicks": 16,
          "midi": 35,
          "name": "B1",
          "ticks": 28080,
          "time": 115.081902,
          "velocity": 0.937007874015748
        },
        {
          "duration": 0.057377016666663394,
          "durationTicks": 14,
          "midi": 39,
          "name": "D#2",
          "ticks": 28200,
          "time": 115.573705,
          "velocity": 0.84251968503937
        },
        {
          "duration": 0.06557373333333771,
          "durationTicks": 16,
          "midi": 35,
          "name": "B1",
          "ticks": 28320,
          "time": 116.065508,
          "velocity": 0.8976377952755905
        },
        {
          "duration": 0.057377016666677605,
          "durationTicks": 14,
          "midi": 35,
          "name": "B1",
          "ticks": 28380,
          "time": 116.3114095,
          "velocity": 0.8503937007874016
        },
        {
          "duration": 0.0655737333333235,
          "durationTicks": 16,
          "midi": 39,
          "name": "D#2",
          "ticks": 28440,
          "time": 116.557311,
          "velocity": 0.889763779527559
        },
        {
          "duration": 0.07786880833333498,
          "durationTicks": 19,
          "midi": 35,
          "name": "B1",
          "ticks": 28500,
          "time": 116.8032125,
          "velocity": 0.9291338582677166
        },
        {
          "duration": 0.061475375000000554,
          "durationTicks": 15,
          "midi": 39,
          "name": "D#2",
          "ticks": 28680,
          "time": 117.540917,
          "velocity": 0.937007874015748
        },
        {
          "duration": 0.07377044999999782,
          "durationTicks": 18,
          "midi": 35,
          "name": "B1",
          "ticks": 28800,
          "time": 118.03272,
          "velocity": 0.937007874015748
        },
        {
          "duration": 0.057377016666663394,
          "durationTicks": 14,
          "midi": 75,
          "name": "D#5",
          "ticks": 28860,
          "time": 118.2786215,
          "velocity": 0.8740157480314961
        },
        {
          "duration": 0.0655737333333235,
          "durationTicks": 16,
          "midi": 39,
          "name": "D#2",
          "ticks": 28920,
          "time": 118.524523,
          "velocity": 0.9291338582677166
        },
        {
          "duration": 0.0655737333333235,
          "durationTicks": 16,
          "midi": 35,
          "name": "B1",
          "ticks": 28980,
          "time": 118.7704245,
          "velocity": 0.8740157480314961
        },
        {
          "duration": 0.07377045000001203,
          "durationTicks": 18,
          "midi": 35,
          "name": "B1",
          "ticks": 29040,
          "time": 119.01632599999999,
          "velocity": 0.9448818897637795
        },
        {
          "duration": 0.061475375000000554,
          "durationTicks": 15,
          "midi": 39,
          "name": "D#2",
          "ticks": 29160,
          "time": 119.508129,
          "velocity": 0.9212598425196851
        },
        {
          "duration": 0.07786880833333498,
          "durationTicks": 19,
          "midi": 35,
          "name": "B1",
          "ticks": 29280,
          "time": 119.999932,
          "velocity": 0.9448818897637795
        },
        {
          "duration": 0.07786880833332077,
          "durationTicks": 19,
          "midi": 35,
          "name": "B1",
          "ticks": 29340,
          "time": 120.2458335,
          "velocity": 0.6771653543307087
        },
        {
          "duration": 0.06967209166667487,
          "durationTicks": 17,
          "midi": 35,
          "name": "B1",
          "ticks": 29400,
          "time": 120.49173499999999,
          "velocity": 0.6220472440944882
        },
        {
          "duration": 0.06557373333333771,
          "durationTicks": 16,
          "midi": 39,
          "name": "D#2",
          "ticks": 29400,
          "time": 120.49173499999999,
          "velocity": 0.937007874015748
        },
        {
          "duration": 0.07377045000001203,
          "durationTicks": 18,
          "midi": 35,
          "name": "B1",
          "ticks": 29460,
          "time": 120.7376365,
          "velocity": 0.952755905511811
        },
        {
          "duration": 0.061475375000000554,
          "durationTicks": 15,
          "midi": 39,
          "name": "D#2",
          "ticks": 29640,
          "time": 121.475341,
          "velocity": 0.9448818897637795
        },
        {
          "duration": 0.057377016666663394,
          "durationTicks": 14,
          "midi": 35,
          "name": "B1",
          "ticks": 29700,
          "time": 121.7212425,
          "velocity": 0.7874015748031497
        },
        {
          "duration": 0.08196716666667214,
          "durationTicks": 20,
          "midi": 35,
          "name": "B1",
          "ticks": 29760,
          "time": 121.96714399999999,
          "velocity": 0.9291338582677166
        },
        {
          "duration": 0.057377016666677605,
          "durationTicks": 14,
          "midi": 75,
          "name": "D#5",
          "ticks": 29820,
          "time": 122.21304549999999,
          "velocity": 0.8740157480314961
        },
        {
          "duration": 0.061475375000000554,
          "durationTicks": 15,
          "midi": 39,
          "name": "D#2",
          "ticks": 29880,
          "time": 122.458947,
          "velocity": 0.8661417322834646
        },
        {
          "duration": 0.0655737333333235,
          "durationTicks": 16,
          "midi": 35,
          "name": "B1",
          "ticks": 29940,
          "time": 122.7048485,
          "velocity": 0.8976377952755905
        },
        {
          "duration": 0.0655737333333235,
          "durationTicks": 16,
          "midi": 35,
          "name": "B1",
          "ticks": 30000,
          "time": 122.95075,
          "velocity": 0.937007874015748
        },
        {
          "duration": 0.057377016666663394,
          "durationTicks": 14,
          "midi": 39,
          "name": "D#2",
          "ticks": 30120,
          "time": 123.442553,
          "velocity": 0.84251968503937
        },
        {
          "duration": 0.06557373333333771,
          "durationTicks": 16,
          "midi": 35,
          "name": "B1",
          "ticks": 30240,
          "time": 123.934356,
          "velocity": 0.8976377952755905
        },
        {
          "duration": 0.057377016666677605,
          "durationTicks": 14,
          "midi": 35,
          "name": "B1",
          "ticks": 30300,
          "time": 124.1802575,
          "velocity": 0.8503937007874016
        },
        {
          "duration": 0.0655737333333235,
          "durationTicks": 16,
          "midi": 39,
          "name": "D#2",
          "ticks": 30360,
          "time": 124.426159,
          "velocity": 0.889763779527559
        },
        {
          "duration": 0.07786880833333498,
          "durationTicks": 19,
          "midi": 35,
          "name": "B1",
          "ticks": 30420,
          "time": 124.6720605,
          "velocity": 0.9291338582677166
        },
        {
          "duration": 0.061475375000000554,
          "durationTicks": 15,
          "midi": 39,
          "name": "D#2",
          "ticks": 30600,
          "time": 125.409765,
          "velocity": 0.937007874015748
        },
        {
          "duration": 0.07377044999998361,
          "durationTicks": 18,
          "midi": 35,
          "name": "B1",
          "ticks": 30720,
          "time": 125.901568,
          "velocity": 0.937007874015748
        },
        {
          "duration": 0.057377016666663394,
          "durationTicks": 14,
          "midi": 75,
          "name": "D#5",
          "ticks": 30780,
          "time": 126.1474695,
          "velocity": 0.8740157480314961
        },
        {
          "duration": 0.0655737333333235,
          "durationTicks": 16,
          "midi": 39,
          "name": "D#2",
          "ticks": 30840,
          "time": 126.393371,
          "velocity": 0.9291338582677166
        },
        {
          "duration": 0.0655737333333235,
          "durationTicks": 16,
          "midi": 35,
          "name": "B1",
          "ticks": 30900,
          "time": 126.6392725,
          "velocity": 0.8740157480314961
        },
        {
          "duration": 0.07377044999999782,
          "durationTicks": 18,
          "midi": 35,
          "name": "B1",
          "ticks": 30960,
          "time": 126.88517399999999,
          "velocity": 0.9448818897637795
        },
        {
          "duration": 0.061475375000000554,
          "durationTicks": 15,
          "midi": 39,
          "name": "D#2",
          "ticks": 31080,
          "time": 127.376977,
          "velocity": 0.9212598425196851
        },
        {
          "duration": 0.0778688083333492,
          "durationTicks": 19,
          "midi": 35,
          "name": "B1",
          "ticks": 31200,
          "time": 127.86878,
          "velocity": 0.9448818897637795
        },
        {
          "duration": 0.0778688083333634,
          "durationTicks": 19,
          "midi": 35,
          "name": "B1",
          "ticks": 31260,
          "time": 128.1146815,
          "velocity": 0.6771653543307087
        },
        {
          "duration": 0.057377016666663394,
          "durationTicks": 14,
          "midi": 35,
          "name": "B1",
          "ticks": 31620,
          "time": 129.5900905,
          "velocity": 0.7874015748031497
        },
        {
          "duration": 0.08196716666665793,
          "durationTicks": 20,
          "midi": 35,
          "name": "B1",
          "ticks": 31680,
          "time": 129.835992,
          "velocity": 0.9291338582677166
        },
        {
          "duration": 0.057377016666663394,
          "durationTicks": 14,
          "midi": 75,
          "name": "D#5",
          "ticks": 31740,
          "time": 130.0818935,
          "velocity": 0.8740157480314961
        },
        {
          "duration": 0.06147537499998634,
          "durationTicks": 15,
          "midi": 39,
          "name": "D#2",
          "ticks": 31800,
          "time": 130.327795,
          "velocity": 0.8661417322834646
        },
        {
          "duration": 0.06557373333330929,
          "durationTicks": 16,
          "midi": 35,
          "name": "B1",
          "ticks": 31860,
          "time": 130.5736965,
          "velocity": 0.8976377952755905
        },
        {
          "duration": 0.06557373333333771,
          "durationTicks": 16,
          "midi": 35,
          "name": "B1",
          "ticks": 31920,
          "time": 130.81959799999998,
          "velocity": 0.937007874015748
        },
        {
          "duration": 0.057377016666691816,
          "durationTicks": 14,
          "midi": 39,
          "name": "D#2",
          "ticks": 32040,
          "time": 131.311401,
          "velocity": 0.84251968503937
        },
        {
          "duration": 0.06557373333333771,
          "durationTicks": 16,
          "midi": 35,
          "name": "B1",
          "ticks": 32160,
          "time": 131.803204,
          "velocity": 0.8976377952755905
        },
        {
          "duration": 0.057377016666663394,
          "durationTicks": 14,
          "midi": 35,
          "name": "B1",
          "ticks": 32220,
          "time": 132.0491055,
          "velocity": 0.8503937007874016
        },
        {
          "duration": 0.06557373333333771,
          "durationTicks": 16,
          "midi": 39,
          "name": "D#2",
          "ticks": 32280,
          "time": 132.295007,
          "velocity": 0.889763779527559
        },
        {
          "duration": 0.07786880833333498,
          "durationTicks": 19,
          "midi": 35,
          "name": "B1",
          "ticks": 32340,
          "time": 132.5409085,
          "velocity": 0.9291338582677166
        },
        {
          "duration": 0.06147537499998634,
          "durationTicks": 15,
          "midi": 39,
          "name": "D#2",
          "ticks": 32520,
          "time": 133.278613,
          "velocity": 0.937007874015748
        },
        {
          "duration": 0.07377044999998361,
          "durationTicks": 18,
          "midi": 35,
          "name": "B1",
          "ticks": 32640,
          "time": 133.770416,
          "velocity": 0.937007874015748
        },
        {
          "duration": 0.057377016666691816,
          "durationTicks": 14,
          "midi": 75,
          "name": "D#5",
          "ticks": 32700,
          "time": 134.01631749999999,
          "velocity": 0.8740157480314961
        },
        {
          "duration": 0.06557373333333771,
          "durationTicks": 16,
          "midi": 39,
          "name": "D#2",
          "ticks": 32760,
          "time": 134.262219,
          "velocity": 0.9291338582677166
        },
        {
          "duration": 0.06557373333333771,
          "durationTicks": 16,
          "midi": 35,
          "name": "B1",
          "ticks": 32820,
          "time": 134.5081205,
          "velocity": 0.8740157480314961
        },
        {
          "duration": 0.07377044999998361,
          "durationTicks": 18,
          "midi": 35,
          "name": "B1",
          "ticks": 32880,
          "time": 134.754022,
          "velocity": 0.9448818897637795
        },
        {
          "duration": 0.061475375000014765,
          "durationTicks": 15,
          "midi": 39,
          "name": "D#2",
          "ticks": 33000,
          "time": 135.245825,
          "velocity": 0.9212598425196851
        },
        {
          "duration": 0.07786880833333498,
          "durationTicks": 19,
          "midi": 35,
          "name": "B1",
          "ticks": 33120,
          "time": 135.737628,
          "velocity": 0.9448818897637795
        },
        {
          "duration": 0.07786880833333498,
          "durationTicks": 19,
          "midi": 35,
          "name": "B1",
          "ticks": 33180,
          "time": 135.9835295,
          "velocity": 0.6771653543307087
        },
        {
          "duration": 0.06967209166666066,
          "durationTicks": 17,
          "midi": 35,
          "name": "B1",
          "ticks": 33240,
          "time": 136.229431,
          "velocity": 0.6220472440944882
        },
        {
          "duration": 0.06557373333330929,
          "durationTicks": 16,
          "midi": 39,
          "name": "D#2",
          "ticks": 33240,
          "time": 136.229431,
          "velocity": 0.937007874015748
        },
        {
          "duration": 0.07377044999998361,
          "durationTicks": 18,
          "midi": 35,
          "name": "B1",
          "ticks": 33300,
          "time": 136.4753325,
          "velocity": 0.952755905511811
        },
        {
          "duration": 0.061475375000014765,
          "durationTicks": 15,
          "midi": 39,
          "name": "D#2",
          "ticks": 33480,
          "time": 137.21303699999999,
          "velocity": 0.9448818897637795
        },
        {
          "duration": 0.057377016666691816,
          "durationTicks": 14,
          "midi": 35,
          "name": "B1",
          "ticks": 33540,
          "time": 137.4589385,
          "velocity": 0.7874015748031497
        },
        {
          "duration": 0.08196716666668635,
          "durationTicks": 20,
          "midi": 35,
          "name": "B1",
          "ticks": 33600,
          "time": 137.70484,
          "velocity": 0.9291338582677166
        },
        {
          "duration": 0.057377016666663394,
          "durationTicks": 14,
          "midi": 75,
          "name": "D#5",
          "ticks": 33660,
          "time": 137.9507415,
          "velocity": 0.8740157480314961
        },
        {
          "duration": 0.061475375000014765,
          "durationTicks": 15,
          "midi": 39,
          "name": "D#2",
          "ticks": 33720,
          "time": 138.196643,
          "velocity": 0.8661417322834646
        },
        {
          "duration": 0.06557373333333771,
          "durationTicks": 16,
          "midi": 35,
          "name": "B1",
          "ticks": 33780,
          "time": 138.4425445,
          "velocity": 0.8976377952755905
        },
        {
          "duration": 0.06557373333333771,
          "durationTicks": 16,
          "midi": 35,
          "name": "B1",
          "ticks": 33840,
          "time": 138.688446,
          "velocity": 0.937007874015748
        },
        {
          "duration": 0.057377016666663394,
          "durationTicks": 14,
          "midi": 39,
          "name": "D#2",
          "ticks": 33960,
          "time": 139.180249,
          "velocity": 0.84251968503937
        },
        {
          "duration": 0.06557373333330929,
          "durationTicks": 16,
          "midi": 35,
          "name": "B1",
          "ticks": 34080,
          "time": 139.672052,
          "velocity": 0.8976377952755905
        },
        {
          "duration": 0.057377016666663394,
          "durationTicks": 14,
          "midi": 35,
          "name": "B1",
          "ticks": 34140,
          "time": 139.9179535,
          "velocity": 0.8503937007874016
        },
        {
          "duration": 0.06557373333333771,
          "durationTicks": 16,
          "midi": 39,
          "name": "D#2",
          "ticks": 34200,
          "time": 140.16385499999998,
          "velocity": 0.889763779527559
        },
        {
          "duration": 0.0778688083333634,
          "durationTicks": 19,
          "midi": 35,
          "name": "B1",
          "ticks": 34260,
          "time": 140.4097565,
          "velocity": 0.9291338582677166
        },
        {
          "duration": 0.061475375000014765,
          "durationTicks": 15,
          "midi": 39,
          "name": "D#2",
          "ticks": 34440,
          "time": 141.147461,
          "velocity": 0.937007874015748
        },
        {
          "duration": 0.07377044999998361,
          "durationTicks": 18,
          "midi": 35,
          "name": "B1",
          "ticks": 34560,
          "time": 141.639264,
          "velocity": 0.937007874015748
        },
        {
          "duration": 0.057377016666663394,
          "durationTicks": 14,
          "midi": 75,
          "name": "D#5",
          "ticks": 34620,
          "time": 141.8851655,
          "velocity": 0.8740157480314961
        },
        {
          "duration": 0.06557373333333771,
          "durationTicks": 16,
          "midi": 39,
          "name": "D#2",
          "ticks": 34680,
          "time": 142.131067,
          "velocity": 0.9291338582677166
        },
        {
          "duration": 0.06557373333330929,
          "durationTicks": 16,
          "midi": 35,
          "name": "B1",
          "ticks": 34740,
          "time": 142.3769685,
          "velocity": 0.8740157480314961
        },
        {
          "duration": 0.07377044999998361,
          "durationTicks": 18,
          "midi": 35,
          "name": "B1",
          "ticks": 34800,
          "time": 142.62287,
          "velocity": 0.9448818897637795
        },
        {
          "duration": 0.06147537499998634,
          "durationTicks": 15,
          "midi": 39,
          "name": "D#2",
          "ticks": 34920,
          "time": 143.114673,
          "velocity": 0.9212598425196851
        },
        {
          "duration": 0.0778688083333634,
          "durationTicks": 19,
          "midi": 35,
          "name": "B1",
          "ticks": 35040,
          "time": 143.606476,
          "velocity": 0.9448818897637795
        },
        {
          "duration": 0.0778688083333634,
          "durationTicks": 19,
          "midi": 35,
          "name": "B1",
          "ticks": 35100,
          "time": 143.8523775,
          "velocity": 0.6771653543307087
        },
        {
          "duration": 0.057377016666663394,
          "durationTicks": 14,
          "midi": 35,
          "name": "B1",
          "ticks": 35460,
          "time": 145.3277865,
          "velocity": 0.7874015748031497
        },
        {
          "duration": 0.08196716666665793,
          "durationTicks": 20,
          "midi": 35,
          "name": "B1",
          "ticks": 35520,
          "time": 145.573688,
          "velocity": 0.9291338582677166
        },
        {
          "duration": 0.057377016666663394,
          "durationTicks": 14,
          "midi": 75,
          "name": "D#5",
          "ticks": 35580,
          "time": 145.8195895,
          "velocity": 0.8740157480314961
        },
        {
          "duration": 0.06147537499998634,
          "durationTicks": 15,
          "midi": 39,
          "name": "D#2",
          "ticks": 35640,
          "time": 146.065491,
          "velocity": 0.8661417322834646
        },
        {
          "duration": 0.06557373333330929,
          "durationTicks": 16,
          "midi": 35,
          "name": "B1",
          "ticks": 35700,
          "time": 146.3113925,
          "velocity": 0.8976377952755905
        },
        {
          "duration": 0.06557373333333771,
          "durationTicks": 16,
          "midi": 35,
          "name": "B1",
          "ticks": 35760,
          "time": 146.55729399999998,
          "velocity": 0.937007874015748
        },
        {
          "duration": 0.057377016666691816,
          "durationTicks": 14,
          "midi": 39,
          "name": "D#2",
          "ticks": 35880,
          "time": 147.049097,
          "velocity": 0.84251968503937
        },
        {
          "duration": 0.06557373333333771,
          "durationTicks": 16,
          "midi": 35,
          "name": "B1",
          "ticks": 36000,
          "time": 147.5409,
          "velocity": 0.8976377952755905
        },
        {
          "duration": 0.057377016666663394,
          "durationTicks": 14,
          "midi": 35,
          "name": "B1",
          "ticks": 36060,
          "time": 147.7868015,
          "velocity": 0.8503937007874016
        },
        {
          "duration": 0.06557373333333771,
          "durationTicks": 16,
          "midi": 39,
          "name": "D#2",
          "ticks": 36120,
          "time": 148.032703,
          "velocity": 0.889763779527559
        },
        {
          "duration": 0.07786880833333498,
          "durationTicks": 19,
          "midi": 35,
          "name": "B1",
          "ticks": 36180,
          "time": 148.2786045,
          "velocity": 0.9291338582677166
        },
        {
          "duration": 0.06147537499998634,
          "durationTicks": 15,
          "midi": 39,
          "name": "D#2",
          "ticks": 36360,
          "time": 149.016309,
          "velocity": 0.937007874015748
        },
        {
          "duration": 0.07377045000001203,
          "durationTicks": 18,
          "midi": 35,
          "name": "B1",
          "ticks": 36480,
          "time": 149.50811199999998,
          "velocity": 0.937007874015748
        },
        {
          "duration": 0.057377016666691816,
          "durationTicks": 14,
          "midi": 75,
          "name": "D#5",
          "ticks": 36540,
          "time": 149.75401349999999,
          "velocity": 0.8740157480314961
        },
        {
          "duration": 0.06557373333333771,
          "durationTicks": 16,
          "midi": 39,
          "name": "D#2",
          "ticks": 36600,
          "time": 149.999915,
          "velocity": 0.9291338582677166
        },
        {
          "duration": 0.06557373333333771,
          "durationTicks": 16,
          "midi": 35,
          "name": "B1",
          "ticks": 36660,
          "time": 150.2458165,
          "velocity": 0.8740157480314961
        },
        {
          "duration": 0.07377044999998361,
          "durationTicks": 18,
          "midi": 35,
          "name": "B1",
          "ticks": 36720,
          "time": 150.491718,
          "velocity": 0.9448818897637795
        },
        {
          "duration": 0.061475375000014765,
          "durationTicks": 15,
          "midi": 39,
          "name": "D#2",
          "ticks": 36840,
          "time": 150.983521,
          "velocity": 0.9212598425196851
        },
        {
          "duration": 0.07786880833333498,
          "durationTicks": 19,
          "midi": 35,
          "name": "B1",
          "ticks": 36960,
          "time": 151.475324,
          "velocity": 0.9448818897637795
        },
        {
          "duration": 0.07786880833333498,
          "durationTicks": 19,
          "midi": 35,
          "name": "B1",
          "ticks": 37020,
          "time": 151.7212255,
          "velocity": 0.6771653543307087
        },
        {
          "duration": 0.06967209166666066,
          "durationTicks": 17,
          "midi": 35,
          "name": "B1",
          "ticks": 37080,
          "time": 151.967127,
          "velocity": 0.6220472440944882
        },
        {
          "duration": 0.06557373333330929,
          "durationTicks": 16,
          "midi": 39,
          "name": "D#2",
          "ticks": 37080,
          "time": 151.967127,
          "velocity": 0.937007874015748
        },
        {
          "duration": 0.07377044999998361,
          "durationTicks": 18,
          "midi": 35,
          "name": "B1",
          "ticks": 37140,
          "time": 152.2130285,
          "velocity": 0.952755905511811
        },
        {
          "duration": 0.061475375000014765,
          "durationTicks": 15,
          "midi": 39,
          "name": "D#2",
          "ticks": 37320,
          "time": 152.95073299999999,
          "velocity": 0.9448818897637795
        },
        {
          "duration": 0.057377016666691816,
          "durationTicks": 14,
          "midi": 35,
          "name": "B1",
          "ticks": 37380,
          "time": 153.1966345,
          "velocity": 0.7874015748031497
        },
        {
          "duration": 0.08196716666668635,
          "durationTicks": 20,
          "midi": 35,
          "name": "B1",
          "ticks": 37440,
          "time": 153.442536,
          "velocity": 0.9291338582677166
        },
        {
          "duration": 0.057377016666663394,
          "durationTicks": 14,
          "midi": 75,
          "name": "D#5",
          "ticks": 37500,
          "time": 153.6884375,
          "velocity": 0.8740157480314961
        },
        {
          "duration": 0.061475375000014765,
          "durationTicks": 15,
          "midi": 39,
          "name": "D#2",
          "ticks": 37560,
          "time": 153.934339,
          "velocity": 0.8661417322834646
        },
        {
          "duration": 0.06557373333333771,
          "durationTicks": 16,
          "midi": 35,
          "name": "B1",
          "ticks": 37620,
          "time": 154.1802405,
          "velocity": 0.8976377952755905
        },
        {
          "duration": 0.06557373333333771,
          "durationTicks": 16,
          "midi": 35,
          "name": "B1",
          "ticks": 37680,
          "time": 154.426142,
          "velocity": 0.937007874015748
        },
        {
          "duration": 0.057377016666663394,
          "durationTicks": 14,
          "midi": 39,
          "name": "D#2",
          "ticks": 37800,
          "time": 154.917945,
          "velocity": 0.84251968503937
        },
        {
          "duration": 0.06557373333330929,
          "durationTicks": 16,
          "midi": 35,
          "name": "B1",
          "ticks": 37920,
          "time": 155.409748,
          "velocity": 0.8976377952755905
        },
        {
          "duration": 0.057377016666663394,
          "durationTicks": 14,
          "midi": 35,
          "name": "B1",
          "ticks": 37980,
          "time": 155.6556495,
          "velocity": 0.8503937007874016
        },
        {
          "duration": 0.06557373333333771,
          "durationTicks": 16,
          "midi": 39,
          "name": "D#2",
          "ticks": 38040,
          "time": 155.90155099999998,
          "velocity": 0.889763779527559
        },
        {
          "duration": 0.0778688083333634,
          "durationTicks": 19,
          "midi": 35,
          "name": "B1",
          "ticks": 38100,
          "time": 156.14745249999999,
          "velocity": 0.9291338582677166
        },
        {
          "duration": 0.061475375000014765,
          "durationTicks": 15,
          "midi": 39,
          "name": "D#2",
          "ticks": 38280,
          "time": 156.885157,
          "velocity": 0.937007874015748
        },
        {
          "duration": 0.07377044999998361,
          "durationTicks": 18,
          "midi": 35,
          "name": "B1",
          "ticks": 38400,
          "time": 157.37696,
          "velocity": 0.937007874015748
        },
        {
          "duration": 0.057377016666663394,
          "durationTicks": 14,
          "midi": 75,
          "name": "D#5",
          "ticks": 38460,
          "time": 157.6228615,
          "velocity": 0.8740157480314961
        },
        {
          "duration": 0.06557373333333771,
          "durationTicks": 16,
          "midi": 39,
          "name": "D#2",
          "ticks": 38520,
          "time": 157.868763,
          "velocity": 0.9291338582677166
        },
        {
          "duration": 0.06557373333330929,
          "durationTicks": 16,
          "midi": 35,
          "name": "B1",
          "ticks": 38580,
          "time": 158.1146645,
          "velocity": 0.8740157480314961
        },
        {
          "duration": 0.07377044999998361,
          "durationTicks": 18,
          "midi": 35,
          "name": "B1",
          "ticks": 38640,
          "time": 158.360566,
          "velocity": 0.9448818897637795
        },
        {
          "duration": 0.06147537499998634,
          "durationTicks": 15,
          "midi": 39,
          "name": "D#2",
          "ticks": 38760,
          "time": 158.852369,
          "velocity": 0.9212598425196851
        },
        {
          "duration": 0.0778688083333634,
          "durationTicks": 19,
          "midi": 35,
          "name": "B1",
          "ticks": 38880,
          "time": 159.344172,
          "velocity": 0.9448818897637795
        },
        {
          "duration": 0.0778688083333634,
          "durationTicks": 19,
          "midi": 35,
          "name": "B1",
          "ticks": 38940,
          "time": 159.5900735,
          "velocity": 0.6771653543307087
        },
        {
          "duration": 0.057377016666663394,
          "durationTicks": 14,
          "midi": 35,
          "name": "B1",
          "ticks": 39300,
          "time": 161.0654825,
          "velocity": 0.7874015748031497
        },
        {
          "duration": 0.08196716666665793,
          "durationTicks": 20,
          "midi": 35,
          "name": "B1",
          "ticks": 39360,
          "time": 161.311384,
          "velocity": 0.9291338582677166
        },
        {
          "duration": 0.057377016666663394,
          "durationTicks": 14,
          "midi": 75,
          "name": "D#5",
          "ticks": 39420,
          "time": 161.5572855,
          "velocity": 0.8740157480314961
        },
        {
          "duration": 0.06147537499998634,
          "durationTicks": 15,
          "midi": 39,
          "name": "D#2",
          "ticks": 39480,
          "time": 161.803187,
          "velocity": 0.8661417322834646
        },
        {
          "duration": 0.06557373333330929,
          "durationTicks": 16,
          "midi": 35,
          "name": "B1",
          "ticks": 39540,
          "time": 162.0490885,
          "velocity": 0.8976377952755905
        },
        {
          "duration": 0.06557373333333771,
          "durationTicks": 16,
          "midi": 35,
          "name": "B1",
          "ticks": 39600,
          "time": 162.29498999999998,
          "velocity": 0.937007874015748
        },
        {
          "duration": 0.057377016666691816,
          "durationTicks": 14,
          "midi": 39,
          "name": "D#2",
          "ticks": 39720,
          "time": 162.786793,
          "velocity": 0.84251968503937
        },
        {
          "duration": 0.06557373333333771,
          "durationTicks": 16,
          "midi": 35,
          "name": "B1",
          "ticks": 39840,
          "time": 163.278596,
          "velocity": 0.8976377952755905
        },
        {
          "duration": 0.057377016666663394,
          "durationTicks": 14,
          "midi": 35,
          "name": "B1",
          "ticks": 39900,
          "time": 163.5244975,
          "velocity": 0.8503937007874016
        },
        {
          "duration": 0.06557373333333771,
          "durationTicks": 16,
          "midi": 39,
          "name": "D#2",
          "ticks": 39960,
          "time": 163.770399,
          "velocity": 0.889763779527559
        },
        {
          "duration": 0.07786880833333498,
          "durationTicks": 19,
          "midi": 35,
          "name": "B1",
          "ticks": 40020,
          "time": 164.0163005,
          "velocity": 0.9291338582677166
        },
        {
          "duration": 0.06147537499998634,
          "durationTicks": 15,
          "midi": 39,
          "name": "D#2",
          "ticks": 40200,
          "time": 164.754005,
          "velocity": 0.937007874015748
        },
        {
          "duration": 0.07377044999998361,
          "durationTicks": 18,
          "midi": 35,
          "name": "B1",
          "ticks": 40320,
          "time": 165.245808,
          "velocity": 0.937007874015748
        },
        {
          "duration": 0.057377016666691816,
          "durationTicks": 14,
          "midi": 75,
          "name": "D#5",
          "ticks": 40380,
          "time": 165.49170949999998,
          "velocity": 0.8740157480314961
        },
        {
          "duration": 0.06557373333333771,
          "durationTicks": 16,
          "midi": 39,
          "name": "D#2",
          "ticks": 40440,
          "time": 165.737611,
          "velocity": 0.9291338582677166
        },
        {
          "duration": 0.06557373333333771,
          "durationTicks": 16,
          "midi": 35,
          "name": "B1",
          "ticks": 40500,
          "time": 165.9835125,
          "velocity": 0.8740157480314961
        },
        {
          "duration": 0.07377044999998361,
          "durationTicks": 18,
          "midi": 35,
          "name": "B1",
          "ticks": 40560,
          "time": 166.229414,
          "velocity": 0.9448818897637795
        },
        {
          "duration": 0.061475375000014765,
          "durationTicks": 15,
          "midi": 39,
          "name": "D#2",
          "ticks": 40680,
          "time": 166.721217,
          "velocity": 0.9212598425196851
        },
        {
          "duration": 0.07786880833333498,
          "durationTicks": 19,
          "midi": 35,
          "name": "B1",
          "ticks": 40800,
          "time": 167.21302,
          "velocity": 0.9448818897637795
        },
        {
          "duration": 0.07786880833333498,
          "durationTicks": 19,
          "midi": 35,
          "name": "B1",
          "ticks": 40860,
          "time": 167.4589215,
          "velocity": 0.6771653543307087
        },
        {
          "duration": 0.06967209166666066,
          "durationTicks": 17,
          "midi": 35,
          "name": "B1",
          "ticks": 40920,
          "time": 167.704823,
          "velocity": 0.6220472440944882
        },
        {
          "duration": 0.06557373333330929,
          "durationTicks": 16,
          "midi": 39,
          "name": "D#2",
          "ticks": 40920,
          "time": 167.704823,
          "velocity": 0.937007874015748
        },
        {
          "duration": 0.07377044999998361,
          "durationTicks": 18,
          "midi": 35,
          "name": "B1",
          "ticks": 40980,
          "time": 167.9507245,
          "velocity": 0.952755905511811
        },
        {
          "duration": 0.061475375000014765,
          "durationTicks": 15,
          "midi": 39,
          "name": "D#2",
          "ticks": 41160,
          "time": 168.68842899999999,
          "velocity": 0.9448818897637795
        },
        {
          "duration": 0.057377016666691816,
          "durationTicks": 14,
          "midi": 35,
          "name": "B1",
          "ticks": 41220,
          "time": 168.9343305,
          "velocity": 0.7874015748031497
        },
        {
          "duration": 0.08196716666668635,
          "durationTicks": 20,
          "midi": 35,
          "name": "B1",
          "ticks": 41280,
          "time": 169.180232,
          "velocity": 0.9291338582677166
        },
        {
          "duration": 0.057377016666663394,
          "durationTicks": 14,
          "midi": 75,
          "name": "D#5",
          "ticks": 41340,
          "time": 169.4261335,
          "velocity": 0.8740157480314961
        },
        {
          "duration": 0.061475375000014765,
          "durationTicks": 15,
          "midi": 39,
          "name": "D#2",
          "ticks": 41400,
          "time": 169.672035,
          "velocity": 0.8661417322834646
        },
        {
          "duration": 0.06557373333333771,
          "durationTicks": 16,
          "midi": 35,
          "name": "B1",
          "ticks": 41460,
          "time": 169.9179365,
          "velocity": 0.8976377952755905
        },
        {
          "duration": 0.06557373333333771,
          "durationTicks": 16,
          "midi": 35,
          "name": "B1",
          "ticks": 41520,
          "time": 170.163838,
          "velocity": 0.937007874015748
        },
        {
          "duration": 0.057377016666663394,
          "durationTicks": 14,
          "midi": 39,
          "name": "D#2",
          "ticks": 41640,
          "time": 170.655641,
          "velocity": 0.84251968503937
        },
        {
          "duration": 0.06557373333330929,
          "durationTicks": 16,
          "midi": 35,
          "name": "B1",
          "ticks": 41760,
          "time": 171.147444,
          "velocity": 0.8976377952755905
        },
        {
          "duration": 0.057377016666663394,
          "durationTicks": 14,
          "midi": 35,
          "name": "B1",
          "ticks": 41820,
          "time": 171.3933455,
          "velocity": 0.8503937007874016
        },
        {
          "duration": 0.06557373333333771,
          "durationTicks": 16,
          "midi": 39,
          "name": "D#2",
          "ticks": 41880,
          "time": 171.63924699999998,
          "velocity": 0.889763779527559
        },
        {
          "duration": 0.0778688083333634,
          "durationTicks": 19,
          "midi": 35,
          "name": "B1",
          "ticks": 41940,
          "time": 171.88514849999999,
          "velocity": 0.9291338582677166
        },
        {
          "duration": 0.061475375000014765,
          "durationTicks": 15,
          "midi": 39,
          "name": "D#2",
          "ticks": 42120,
          "time": 172.622853,
          "velocity": 0.937007874015748
        },
        {
          "duration": 0.07377044999998361,
          "durationTicks": 18,
          "midi": 35,
          "name": "B1",
          "ticks": 42240,
          "time": 173.114656,
          "velocity": 0.937007874015748
        },
        {
          "duration": 0.057377016666663394,
          "durationTicks": 14,
          "midi": 75,
          "name": "D#5",
          "ticks": 42300,
          "time": 173.3605575,
          "velocity": 0.8740157480314961
        },
        {
          "duration": 0.06557373333333771,
          "durationTicks": 16,
          "midi": 39,
          "name": "D#2",
          "ticks": 42360,
          "time": 173.606459,
          "velocity": 0.9291338582677166
        },
        {
          "duration": 0.06557373333330929,
          "durationTicks": 16,
          "midi": 35,
          "name": "B1",
          "ticks": 42420,
          "time": 173.8523605,
          "velocity": 0.8740157480314961
        },
        {
          "duration": 0.07377044999998361,
          "durationTicks": 18,
          "midi": 35,
          "name": "B1",
          "ticks": 42480,
          "time": 174.098262,
          "velocity": 0.9448818897637795
        },
        {
          "duration": 0.06147537499998634,
          "durationTicks": 15,
          "midi": 39,
          "name": "D#2",
          "ticks": 42600,
          "time": 174.590065,
          "velocity": 0.9212598425196851
        },
        {
          "duration": 0.0778688083333634,
          "durationTicks": 19,
          "midi": 35,
          "name": "B1",
          "ticks": 42720,
          "time": 175.081868,
          "velocity": 0.9448818897637795
        },
        {
          "duration": 0.0778688083333634,
          "durationTicks": 19,
          "midi": 35,
          "name": "B1",
          "ticks": 42780,
          "time": 175.3277695,
          "velocity": 0.6771653543307087
        },
        {
          "duration": 0.057377016666663394,
          "durationTicks": 14,
          "midi": 35,
          "name": "B1",
          "ticks": 43140,
          "time": 176.8031785,
          "velocity": 0.7874015748031497
        },
        {
          "duration": 0.08196716666665793,
          "durationTicks": 20,
          "midi": 35,
          "name": "B1",
          "ticks": 43200,
          "time": 177.04908,
          "velocity": 0.9291338582677166
        },
        {
          "duration": 0.057377016666663394,
          "durationTicks": 14,
          "midi": 75,
          "name": "D#5",
          "ticks": 43260,
          "time": 177.2949815,
          "velocity": 0.8740157480314961
        },
        {
          "duration": 0.06147537499998634,
          "durationTicks": 15,
          "midi": 39,
          "name": "D#2",
          "ticks": 43320,
          "time": 177.540883,
          "velocity": 0.8661417322834646
        },
        {
          "duration": 0.06557373333330929,
          "durationTicks": 16,
          "midi": 35,
          "name": "B1",
          "ticks": 43380,
          "time": 177.7867845,
          "velocity": 0.8976377952755905
        },
        {
          "duration": 0.06557373333333771,
          "durationTicks": 16,
          "midi": 35,
          "name": "B1",
          "ticks": 43440,
          "time": 178.03268599999998,
          "velocity": 0.937007874015748
        },
        {
          "duration": 0.057377016666691816,
          "durationTicks": 14,
          "midi": 39,
          "name": "D#2",
          "ticks": 43560,
          "time": 178.524489,
          "velocity": 0.84251968503937
        },
        {
          "duration": 0.06557373333333771,
          "durationTicks": 16,
          "midi": 35,
          "name": "B1",
          "ticks": 43680,
          "time": 179.016292,
          "velocity": 0.8976377952755905
        },
        {
          "duration": 0.057377016666663394,
          "durationTicks": 14,
          "midi": 35,
          "name": "B1",
          "ticks": 43740,
          "time": 179.2621935,
          "velocity": 0.8503937007874016
        },
        {
          "duration": 0.06557373333333771,
          "durationTicks": 16,
          "midi": 39,
          "name": "D#2",
          "ticks": 43800,
          "time": 179.508095,
          "velocity": 0.889763779527559
        },
        {
          "duration": 0.07786880833333498,
          "durationTicks": 19,
          "midi": 35,
          "name": "B1",
          "ticks": 43860,
          "time": 179.7539965,
          "velocity": 0.9291338582677166
        },
        {
          "duration": 0.06147537499998634,
          "durationTicks": 15,
          "midi": 39,
          "name": "D#2",
          "ticks": 44040,
          "time": 180.491701,
          "velocity": 0.937007874015748
        },
        {
          "duration": 0.07377045000001203,
          "durationTicks": 18,
          "midi": 35,
          "name": "B1",
          "ticks": 44160,
          "time": 180.98350399999998,
          "velocity": 0.937007874015748
        },
        {
          "duration": 0.057377016666691816,
          "durationTicks": 14,
          "midi": 75,
          "name": "D#5",
          "ticks": 44220,
          "time": 181.22940549999998,
          "velocity": 0.8740157480314961
        },
        {
          "duration": 0.06557373333333771,
          "durationTicks": 16,
          "midi": 39,
          "name": "D#2",
          "ticks": 44280,
          "time": 181.475307,
          "velocity": 0.9291338582677166
        },
        {
          "duration": 0.06557373333333771,
          "durationTicks": 16,
          "midi": 35,
          "name": "B1",
          "ticks": 44340,
          "time": 181.7212085,
          "velocity": 0.8740157480314961
        },
        {
          "duration": 0.07377044999998361,
          "durationTicks": 18,
          "midi": 35,
          "name": "B1",
          "ticks": 44400,
          "time": 181.96711,
          "velocity": 0.9448818897637795
        },
        {
          "duration": 0.061475375000014765,
          "durationTicks": 15,
          "midi": 39,
          "name": "D#2",
          "ticks": 44520,
          "time": 182.458913,
          "velocity": 0.9212598425196851
        },
        {
          "duration": 0.07786880833333498,
          "durationTicks": 19,
          "midi": 35,
          "name": "B1",
          "ticks": 44640,
          "time": 182.950716,
          "velocity": 0.9448818897637795
        },
        {
          "duration": 0.07786880833333498,
          "durationTicks": 19,
          "midi": 35,
          "name": "B1",
          "ticks": 44700,
          "time": 183.1966175,
          "velocity": 0.6771653543307087
        },
        {
          "duration": 0.06967209166666066,
          "durationTicks": 17,
          "midi": 35,
          "name": "B1",
          "ticks": 44760,
          "time": 183.442519,
          "velocity": 0.6220472440944882
        },
        {
          "duration": 0.06557373333330929,
          "durationTicks": 16,
          "midi": 39,
          "name": "D#2",
          "ticks": 44760,
          "time": 183.442519,
          "velocity": 0.937007874015748
        },
        {
          "duration": 0.07377044999998361,
          "durationTicks": 18,
          "midi": 35,
          "name": "B1",
          "ticks": 44820,
          "time": 183.6884205,
          "velocity": 0.952755905511811
        },
        {
          "duration": 0.061475375000014765,
          "durationTicks": 15,
          "midi": 39,
          "name": "D#2",
          "ticks": 45000,
          "time": 184.42612499999998,
          "velocity": 0.9448818897637795
        },
        {
          "duration": 0.057377016666691816,
          "durationTicks": 14,
          "midi": 35,
          "name": "B1",
          "ticks": 45060,
          "time": 184.6720265,
          "velocity": 0.7874015748031497
        },
        {
          "duration": 0.08196716666668635,
          "durationTicks": 20,
          "midi": 35,
          "name": "B1",
          "ticks": 45120,
          "time": 184.917928,
          "velocity": 0.9291338582677166
        },
        {
          "duration": 0.057377016666663394,
          "durationTicks": 14,
          "midi": 75,
          "name": "D#5",
          "ticks": 45180,
          "time": 185.1638295,
          "velocity": 0.8740157480314961
        },
        {
          "duration": 0.061475375000014765,
          "durationTicks": 15,
          "midi": 39,
          "name": "D#2",
          "ticks": 45240,
          "time": 185.409731,
          "velocity": 0.8661417322834646
        },
        {
          "duration": 0.06557373333333771,
          "durationTicks": 16,
          "midi": 35,
          "name": "B1",
          "ticks": 45300,
          "time": 185.6556325,
          "velocity": 0.8976377952755905
        },
        {
          "duration": 0.06557373333333771,
          "durationTicks": 16,
          "midi": 35,
          "name": "B1",
          "ticks": 45360,
          "time": 185.901534,
          "velocity": 0.937007874015748
        },
        {
          "duration": 0.057377016666663394,
          "durationTicks": 14,
          "midi": 39,
          "name": "D#2",
          "ticks": 45480,
          "time": 186.393337,
          "velocity": 0.84251968503937
        },
        {
          "duration": 0.06557373333330929,
          "durationTicks": 16,
          "midi": 35,
          "name": "B1",
          "ticks": 45600,
          "time": 186.88514,
          "velocity": 0.8976377952755905
        },
        {
          "duration": 0.057377016666663394,
          "durationTicks": 14,
          "midi": 35,
          "name": "B1",
          "ticks": 45660,
          "time": 187.1310415,
          "velocity": 0.8503937007874016
        },
        {
          "duration": 0.06557373333333771,
          "durationTicks": 16,
          "midi": 39,
          "name": "D#2",
          "ticks": 45720,
          "time": 187.37694299999998,
          "velocity": 0.889763779527559
        },
        {
          "duration": 0.0778688083333634,
          "durationTicks": 19,
          "midi": 35,
          "name": "B1",
          "ticks": 45780,
          "time": 187.62284449999999,
          "velocity": 0.9291338582677166
        },
        {
          "duration": 0.061475375000014765,
          "durationTicks": 15,
          "midi": 39,
          "name": "D#2",
          "ticks": 45960,
          "time": 188.360549,
          "velocity": 0.937007874015748
        },
        {
          "duration": 0.07377044999998361,
          "durationTicks": 18,
          "midi": 35,
          "name": "B1",
          "ticks": 46080,
          "time": 188.852352,
          "velocity": 0.937007874015748
        },
        {
          "duration": 0.057377016666663394,
          "durationTicks": 14,
          "midi": 75,
          "name": "D#5",
          "ticks": 46140,
          "time": 189.0982535,
          "velocity": 0.8740157480314961
        },
        {
          "duration": 0.06557373333333771,
          "durationTicks": 16,
          "midi": 39,
          "name": "D#2",
          "ticks": 46200,
          "time": 189.344155,
          "velocity": 0.9291338582677166
        },
        {
          "duration": 0.06557373333330929,
          "durationTicks": 16,
          "midi": 35,
          "name": "B1",
          "ticks": 46260,
          "time": 189.5900565,
          "velocity": 0.8740157480314961
        },
        {
          "duration": 0.07377044999998361,
          "durationTicks": 18,
          "midi": 35,
          "name": "B1",
          "ticks": 46320,
          "time": 189.835958,
          "velocity": 0.9448818897637795
        },
        {
          "duration": 0.06147537499998634,
          "durationTicks": 15,
          "midi": 39,
          "name": "D#2",
          "ticks": 46440,
          "time": 190.327761,
          "velocity": 0.9212598425196851
        },
        {
          "duration": 0.0778688083333634,
          "durationTicks": 19,
          "midi": 35,
          "name": "B1",
          "ticks": 46560,
          "time": 190.81956399999999,
          "velocity": 0.9448818897637795
        },
        {
          "duration": 0.0778688083333634,
          "durationTicks": 19,
          "midi": 35,
          "name": "B1",
          "ticks": 46620,
          "time": 191.0654655,
          "velocity": 0.6771653543307087
        },
        {
          "duration": 0.057377016666663394,
          "durationTicks": 14,
          "midi": 35,
          "name": "B1",
          "ticks": 46980,
          "time": 192.5408745,
          "velocity": 0.7874015748031497
        },
        {
          "duration": 0.08196716666665793,
          "durationTicks": 20,
          "midi": 35,
          "name": "B1",
          "ticks": 47040,
          "time": 192.786776,
          "velocity": 0.9291338582677166
        },
        {
          "duration": 0.057377016666663394,
          "durationTicks": 14,
          "midi": 75,
          "name": "D#5",
          "ticks": 47100,
          "time": 193.0326775,
          "velocity": 0.8740157480314961
        },
        {
          "duration": 0.06147537499998634,
          "durationTicks": 15,
          "midi": 39,
          "name": "D#2",
          "ticks": 47160,
          "time": 193.278579,
          "velocity": 0.8661417322834646
        },
        {
          "duration": 0.06557373333330929,
          "durationTicks": 16,
          "midi": 35,
          "name": "B1",
          "ticks": 47220,
          "time": 193.5244805,
          "velocity": 0.8976377952755905
        },
        {
          "duration": 0.06557373333333771,
          "durationTicks": 16,
          "midi": 35,
          "name": "B1",
          "ticks": 47280,
          "time": 193.77038199999998,
          "velocity": 0.937007874015748
        },
        {
          "duration": 0.057377016666691816,
          "durationTicks": 14,
          "midi": 39,
          "name": "D#2",
          "ticks": 47400,
          "time": 194.262185,
          "velocity": 0.84251968503937
        },
        {
          "duration": 0.06557373333333771,
          "durationTicks": 16,
          "midi": 35,
          "name": "B1",
          "ticks": 47520,
          "time": 194.753988,
          "velocity": 0.8976377952755905
        },
        {
          "duration": 0.057377016666663394,
          "durationTicks": 14,
          "midi": 35,
          "name": "B1",
          "ticks": 47580,
          "time": 194.9998895,
          "velocity": 0.8503937007874016
        },
        {
          "duration": 0.06557373333333771,
          "durationTicks": 16,
          "midi": 39,
          "name": "D#2",
          "ticks": 47640,
          "time": 195.245791,
          "velocity": 0.889763779527559
        },
        {
          "duration": 0.07786880833333498,
          "durationTicks": 19,
          "midi": 35,
          "name": "B1",
          "ticks": 47700,
          "time": 195.4916925,
          "velocity": 0.9291338582677166
        },
        {
          "duration": 0.06147537499998634,
          "durationTicks": 15,
          "midi": 39,
          "name": "D#2",
          "ticks": 47880,
          "time": 196.229397,
          "velocity": 0.937007874015748
        },
        {
          "duration": 0.07377044999998361,
          "durationTicks": 18,
          "midi": 35,
          "name": "B1",
          "ticks": 48000,
          "time": 196.7212,
          "velocity": 0.937007874015748
        },
        {
          "duration": 0.057377016666691816,
          "durationTicks": 14,
          "midi": 75,
          "name": "D#5",
          "ticks": 48060,
          "time": 196.96710149999998,
          "velocity": 0.8740157480314961
        },
        {
          "duration": 0.06557373333333771,
          "durationTicks": 16,
          "midi": 39,
          "name": "D#2",
          "ticks": 48120,
          "time": 197.213003,
          "velocity": 0.9291338582677166
        },
        {
          "duration": 0.06557373333333771,
          "durationTicks": 16,
          "midi": 35,
          "name": "B1",
          "ticks": 48180,
          "time": 197.4589045,
          "velocity": 0.8740157480314961
        },
        {
          "duration": 0.07377044999998361,
          "durationTicks": 18,
          "midi": 35,
          "name": "B1",
          "ticks": 48240,
          "time": 197.704806,
          "velocity": 0.9448818897637795
        },
        {
          "duration": 0.061475375000014765,
          "durationTicks": 15,
          "midi": 39,
          "name": "D#2",
          "ticks": 48360,
          "time": 198.196609,
          "velocity": 0.9212598425196851
        },
        {
          "duration": 0.07786880833333498,
          "durationTicks": 19,
          "midi": 35,
          "name": "B1",
          "ticks": 48480,
          "time": 198.688412,
          "velocity": 0.9448818897637795
        },
        {
          "duration": 0.07786880833333498,
          "durationTicks": 19,
          "midi": 35,
          "name": "B1",
          "ticks": 48540,
          "time": 198.9343135,
          "velocity": 0.6771653543307087
        },
        {
          "duration": 0.06967209166666066,
          "durationTicks": 17,
          "midi": 35,
          "name": "B1",
          "ticks": 48600,
          "time": 199.180215,
          "velocity": 0.6220472440944882
        },
        {
          "duration": 0.06557373333330929,
          "durationTicks": 16,
          "midi": 39,
          "name": "D#2",
          "ticks": 48600,
          "time": 199.180215,
          "velocity": 0.937007874015748
        },
        {
          "duration": 0.07377044999998361,
          "durationTicks": 18,
          "midi": 35,
          "name": "B1",
          "ticks": 48660,
          "time": 199.4261165,
          "velocity": 0.952755905511811
        },
        {
          "duration": 0.061475375000014765,
          "durationTicks": 15,
          "midi": 39,
          "name": "D#2",
          "ticks": 48840,
          "time": 200.16382099999998,
          "velocity": 0.9448818897637795
        },
        {
          "duration": 0.057377016666691816,
          "durationTicks": 14,
          "midi": 35,
          "name": "B1",
          "ticks": 48900,
          "time": 200.4097225,
          "velocity": 0.7874015748031497
        },
        {
          "duration": 0.08196716666668635,
          "durationTicks": 20,
          "midi": 35,
          "name": "B1",
          "ticks": 48960,
          "time": 200.655624,
          "velocity": 0.9291338582677166
        },
        {
          "duration": 0.057377016666663394,
          "durationTicks": 14,
          "midi": 75,
          "name": "D#5",
          "ticks": 49020,
          "time": 200.9015255,
          "velocity": 0.8740157480314961
        },
        {
          "duration": 0.061475375000014765,
          "durationTicks": 15,
          "midi": 39,
          "name": "D#2",
          "ticks": 49080,
          "time": 201.147427,
          "velocity": 0.8661417322834646
        },
        {
          "duration": 0.06557373333333771,
          "durationTicks": 16,
          "midi": 35,
          "name": "B1",
          "ticks": 49140,
          "time": 201.3933285,
          "velocity": 0.8976377952755905
        },
        {
          "duration": 0.06557373333333771,
          "durationTicks": 16,
          "midi": 35,
          "name": "B1",
          "ticks": 49200,
          "time": 201.63923,
          "velocity": 0.937007874015748
        },
        {
          "duration": 0.057377016666663394,
          "durationTicks": 14,
          "midi": 39,
          "name": "D#2",
          "ticks": 49320,
          "time": 202.131033,
          "velocity": 0.84251968503937
        },
        {
          "duration": 0.06557373333330929,
          "durationTicks": 16,
          "midi": 35,
          "name": "B1",
          "ticks": 49440,
          "time": 202.622836,
          "velocity": 0.8976377952755905
        },
        {
          "duration": 0.057377016666663394,
          "durationTicks": 14,
          "midi": 35,
          "name": "B1",
          "ticks": 49500,
          "time": 202.8687375,
          "velocity": 0.8503937007874016
        },
        {
          "duration": 0.06557373333333771,
          "durationTicks": 16,
          "midi": 39,
          "name": "D#2",
          "ticks": 49560,
          "time": 203.11463899999998,
          "velocity": 0.889763779527559
        },
        {
          "duration": 0.0778688083333634,
          "durationTicks": 19,
          "midi": 35,
          "name": "B1",
          "ticks": 49620,
          "time": 203.36054049999998,
          "velocity": 0.9291338582677166
        },
        {
          "duration": 0.061475375000014765,
          "durationTicks": 15,
          "midi": 39,
          "name": "D#2",
          "ticks": 49800,
          "time": 204.098245,
          "velocity": 0.937007874015748
        },
        {
          "duration": 0.07377044999998361,
          "durationTicks": 18,
          "midi": 35,
          "name": "B1",
          "ticks": 49920,
          "time": 204.590048,
          "velocity": 0.937007874015748
        },
        {
          "duration": 0.057377016666663394,
          "durationTicks": 14,
          "midi": 75,
          "name": "D#5",
          "ticks": 49980,
          "time": 204.8359495,
          "velocity": 0.8740157480314961
        },
        {
          "duration": 0.06557373333333771,
          "durationTicks": 16,
          "midi": 39,
          "name": "D#2",
          "ticks": 50040,
          "time": 205.081851,
          "velocity": 0.9291338582677166
        },
        {
          "duration": 0.06557373333330929,
          "durationTicks": 16,
          "midi": 35,
          "name": "B1",
          "ticks": 50100,
          "time": 205.3277525,
          "velocity": 0.8740157480314961
        },
        {
          "duration": 0.07377044999998361,
          "durationTicks": 18,
          "midi": 35,
          "name": "B1",
          "ticks": 50160,
          "time": 205.573654,
          "velocity": 0.9448818897637795
        },
        {
          "duration": 0.06147537499998634,
          "durationTicks": 15,
          "midi": 39,
          "name": "D#2",
          "ticks": 50280,
          "time": 206.065457,
          "velocity": 0.9212598425196851
        },
        {
          "duration": 0.0778688083333634,
          "durationTicks": 19,
          "midi": 35,
          "name": "B1",
          "ticks": 50400,
          "time": 206.55725999999999,
          "velocity": 0.9448818897637795
        },
        {
          "duration": 0.0778688083333634,
          "durationTicks": 19,
          "midi": 35,
          "name": "B1",
          "ticks": 50460,
          "time": 206.8031615,
          "velocity": 0.6771653543307087
        },
        {
          "duration": 0.057377016666663394,
          "durationTicks": 14,
          "midi": 35,
          "name": "B1",
          "ticks": 50820,
          "time": 208.2785705,
          "velocity": 0.7874015748031497
        },
        {
          "duration": 0.08196716666665793,
          "durationTicks": 20,
          "midi": 35,
          "name": "B1",
          "ticks": 50880,
          "time": 208.524472,
          "velocity": 0.9291338582677166
        },
        {
          "duration": 0.057377016666663394,
          "durationTicks": 14,
          "midi": 75,
          "name": "D#5",
          "ticks": 50940,
          "time": 208.7703735,
          "velocity": 0.8740157480314961
        },
        {
          "duration": 0.06147537499998634,
          "durationTicks": 15,
          "midi": 39,
          "name": "D#2",
          "ticks": 51000,
          "time": 209.016275,
          "velocity": 0.8661417322834646
        },
        {
          "duration": 0.06557373333330929,
          "durationTicks": 16,
          "midi": 35,
          "name": "B1",
          "ticks": 51060,
          "time": 209.2621765,
          "velocity": 0.8976377952755905
        },
        {
          "duration": 0.06557373333333771,
          "durationTicks": 16,
          "midi": 35,
          "name": "B1",
          "ticks": 51120,
          "time": 209.50807799999998,
          "velocity": 0.937007874015748
        },
        {
          "duration": 0.057377016666691816,
          "durationTicks": 14,
          "midi": 39,
          "name": "D#2",
          "ticks": 51240,
          "time": 209.999881,
          "velocity": 0.84251968503937
        },
        {
          "duration": 0.06557373333333771,
          "durationTicks": 16,
          "midi": 35,
          "name": "B1",
          "ticks": 51360,
          "time": 210.491684,
          "velocity": 0.8976377952755905
        },
        {
          "duration": 0.057377016666663394,
          "durationTicks": 14,
          "midi": 35,
          "name": "B1",
          "ticks": 51420,
          "time": 210.7375855,
          "velocity": 0.8503937007874016
        },
        {
          "duration": 0.06557373333333771,
          "durationTicks": 16,
          "midi": 39,
          "name": "D#2",
          "ticks": 51480,
          "time": 210.983487,
          "velocity": 0.889763779527559
        },
        {
          "duration": 0.07786880833333498,
          "durationTicks": 19,
          "midi": 35,
          "name": "B1",
          "ticks": 51540,
          "time": 211.2293885,
          "velocity": 0.9291338582677166
        },
        {
          "duration": 0.06147537499998634,
          "durationTicks": 15,
          "midi": 39,
          "name": "D#2",
          "ticks": 51720,
          "time": 211.967093,
          "velocity": 0.937007874015748
        },
        {
          "duration": 0.07377045000001203,
          "durationTicks": 18,
          "midi": 35,
          "name": "B1",
          "ticks": 51840,
          "time": 212.45889599999998,
          "velocity": 0.937007874015748
        },
        {
          "duration": 0.057377016666691816,
          "durationTicks": 14,
          "midi": 75,
          "name": "D#5",
          "ticks": 51900,
          "time": 212.70479749999998,
          "velocity": 0.8740157480314961
        },
        {
          "duration": 0.06557373333333771,
          "durationTicks": 16,
          "midi": 39,
          "name": "D#2",
          "ticks": 51960,
          "time": 212.950699,
          "velocity": 0.9291338582677166
        },
        {
          "duration": 0.06557373333333771,
          "durationTicks": 16,
          "midi": 35,
          "name": "B1",
          "ticks": 52020,
          "time": 213.1966005,
          "velocity": 0.8740157480314961
        },
        {
          "duration": 0.07377044999998361,
          "durationTicks": 18,
          "midi": 35,
          "name": "B1",
          "ticks": 52080,
          "time": 213.442502,
          "velocity": 0.9448818897637795
        },
        {
          "duration": 0.061475375000014765,
          "durationTicks": 15,
          "midi": 39,
          "name": "D#2",
          "ticks": 52200,
          "time": 213.934305,
          "velocity": 0.9212598425196851
        },
        {
          "duration": 0.07786880833333498,
          "durationTicks": 19,
          "midi": 35,
          "name": "B1",
          "ticks": 52320,
          "time": 214.426108,
          "velocity": 0.9448818897637795
        },
        {
          "duration": 0.07786880833333498,
          "durationTicks": 19,
          "midi": 35,
          "name": "B1",
          "ticks": 52380,
          "time": 214.6720095,
          "velocity": 0.6771653543307087
        },
        {
          "duration": 0.06967209166666066,
          "durationTicks": 17,
          "midi": 35,
          "name": "B1",
          "ticks": 52440,
          "time": 214.917911,
          "velocity": 0.6220472440944882
        },
        {
          "duration": 0.06557373333330929,
          "durationTicks": 16,
          "midi": 39,
          "name": "D#2",
          "ticks": 52440,
          "time": 214.917911,
          "velocity": 0.937007874015748
        },
        {
          "duration": 0.07377044999998361,
          "durationTicks": 18,
          "midi": 35,
          "name": "B1",
          "ticks": 52500,
          "time": 215.1638125,
          "velocity": 0.952755905511811
        },
        {
          "duration": 0.061475375000014765,
          "durationTicks": 15,
          "midi": 39,
          "name": "D#2",
          "ticks": 52680,
          "time": 215.90151699999998,
          "velocity": 0.9448818897637795
        },
        {
          "duration": 0.057377016666691816,
          "durationTicks": 14,
          "midi": 35,
          "name": "B1",
          "ticks": 52740,
          "time": 216.1474185,
          "velocity": 0.7874015748031497
        },
        {
          "duration": 0.08196716666668635,
          "durationTicks": 20,
          "midi": 35,
          "name": "B1",
          "ticks": 52800,
          "time": 216.39332,
          "velocity": 0.9291338582677166
        },
        {
          "duration": 0.057377016666663394,
          "durationTicks": 14,
          "midi": 75,
          "name": "D#5",
          "ticks": 52860,
          "time": 216.6392215,
          "velocity": 0.8740157480314961
        },
        {
          "duration": 0.061475375000014765,
          "durationTicks": 15,
          "midi": 39,
          "name": "D#2",
          "ticks": 52920,
          "time": 216.885123,
          "velocity": 0.8661417322834646
        },
        {
          "duration": 0.06557373333333771,
          "durationTicks": 16,
          "midi": 35,
          "name": "B1",
          "ticks": 52980,
          "time": 217.1310245,
          "velocity": 0.8976377952755905
        },
        {
          "duration": 0.06557373333333771,
          "durationTicks": 16,
          "midi": 35,
          "name": "B1",
          "ticks": 53040,
          "time": 217.376926,
          "velocity": 0.937007874015748
        },
        {
          "duration": 0.057377016666663394,
          "durationTicks": 14,
          "midi": 39,
          "name": "D#2",
          "ticks": 53160,
          "time": 217.868729,
          "velocity": 0.84251968503937
        },
        {
          "duration": 0.06557373333330929,
          "durationTicks": 16,
          "midi": 35,
          "name": "B1",
          "ticks": 53280,
          "time": 218.360532,
          "velocity": 0.8976377952755905
        },
        {
          "duration": 0.057377016666663394,
          "durationTicks": 14,
          "midi": 35,
          "name": "B1",
          "ticks": 53340,
          "time": 218.6064335,
          "velocity": 0.8503937007874016
        },
        {
          "duration": 0.06557373333333771,
          "durationTicks": 16,
          "midi": 39,
          "name": "D#2",
          "ticks": 53400,
          "time": 218.85233499999998,
          "velocity": 0.889763779527559
        },
        {
          "duration": 0.0778688083333634,
          "durationTicks": 19,
          "midi": 35,
          "name": "B1",
          "ticks": 53460,
          "time": 219.09823649999998,
          "velocity": 0.9291338582677166
        },
        {
          "duration": 0.061475375000014765,
          "durationTicks": 15,
          "midi": 39,
          "name": "D#2",
          "ticks": 53640,
          "time": 219.835941,
          "velocity": 0.937007874015748
        },
        {
          "duration": 0.07377044999998361,
          "durationTicks": 18,
          "midi": 35,
          "name": "B1",
          "ticks": 53760,
          "time": 220.327744,
          "velocity": 0.937007874015748
        },
        {
          "duration": 0.057377016666663394,
          "durationTicks": 14,
          "midi": 75,
          "name": "D#5",
          "ticks": 53820,
          "time": 220.5736455,
          "velocity": 0.8740157480314961
        },
        {
          "duration": 0.06557373333333771,
          "durationTicks": 16,
          "midi": 39,
          "name": "D#2",
          "ticks": 53880,
          "time": 220.819547,
          "velocity": 0.9291338582677166
        },
        {
          "duration": 0.06557373333330929,
          "durationTicks": 16,
          "midi": 35,
          "name": "B1",
          "ticks": 53940,
          "time": 221.0654485,
          "velocity": 0.8740157480314961
        },
        {
          "duration": 0.07377044999998361,
          "durationTicks": 18,
          "midi": 35,
          "name": "B1",
          "ticks": 54000,
          "time": 221.31135,
          "velocity": 0.9448818897637795
        },
        {
          "duration": 0.06147537499998634,
          "durationTicks": 15,
          "midi": 39,
          "name": "D#2",
          "ticks": 54120,
          "time": 221.803153,
          "velocity": 0.9212598425196851
        },
        {
          "duration": 0.0778688083333634,
          "durationTicks": 19,
          "midi": 35,
          "name": "B1",
          "ticks": 54240,
          "time": 222.29495599999998,
          "velocity": 0.9448818897637795
        },
        {
          "duration": 0.0778688083333634,
          "durationTicks": 19,
          "midi": 35,
          "name": "B1",
          "ticks": 54300,
          "time": 222.5408575,
          "velocity": 0.6771653543307087
        },
        {
          "duration": 0.057377016666663394,
          "durationTicks": 14,
          "midi": 35,
          "name": "B1",
          "ticks": 54660,
          "time": 224.0162665,
          "velocity": 0.7874015748031497
        },
        {
          "duration": 0.08196716666665793,
          "durationTicks": 20,
          "midi": 35,
          "name": "B1",
          "ticks": 54720,
          "time": 224.262168,
          "velocity": 0.9291338582677166
        },
        {
          "duration": 0.057377016666663394,
          "durationTicks": 14,
          "midi": 75,
          "name": "D#5",
          "ticks": 54780,
          "time": 224.5080695,
          "velocity": 0.8740157480314961
        },
        {
          "duration": 0.06147537499998634,
          "durationTicks": 15,
          "midi": 39,
          "name": "D#2",
          "ticks": 54840,
          "time": 224.753971,
          "velocity": 0.8661417322834646
        },
        {
          "duration": 0.06557373333330929,
          "durationTicks": 16,
          "midi": 35,
          "name": "B1",
          "ticks": 54900,
          "time": 224.9998725,
          "velocity": 0.8976377952755905
        },
        {
          "duration": 0.06557373333333771,
          "durationTicks": 16,
          "midi": 35,
          "name": "B1",
          "ticks": 54960,
          "time": 225.24577399999998,
          "velocity": 0.937007874015748
        },
        {
          "duration": 0.057377016666691816,
          "durationTicks": 14,
          "midi": 39,
          "name": "D#2",
          "ticks": 55080,
          "time": 225.737577,
          "velocity": 0.84251968503937
        },
        {
          "duration": 0.06557373333333771,
          "durationTicks": 16,
          "midi": 35,
          "name": "B1",
          "ticks": 55200,
          "time": 226.22938,
          "velocity": 0.8976377952755905
        },
        {
          "duration": 0.057377016666663394,
          "durationTicks": 14,
          "midi": 35,
          "name": "B1",
          "ticks": 55260,
          "time": 226.4752815,
          "velocity": 0.8503937007874016
        },
        {
          "duration": 0.06557373333333771,
          "durationTicks": 16,
          "midi": 39,
          "name": "D#2",
          "ticks": 55320,
          "time": 226.721183,
          "velocity": 0.889763779527559
        },
        {
          "duration": 0.07786880833333498,
          "durationTicks": 19,
          "midi": 35,
          "name": "B1",
          "ticks": 55380,
          "time": 226.9670845,
          "velocity": 0.9291338582677166
        },
        {
          "duration": 0.06147537499998634,
          "durationTicks": 15,
          "midi": 39,
          "name": "D#2",
          "ticks": 55560,
          "time": 227.704789,
          "velocity": 0.937007874015748
        },
        {
          "duration": 0.07377044999998361,
          "durationTicks": 18,
          "midi": 35,
          "name": "B1",
          "ticks": 55680,
          "time": 228.196592,
          "velocity": 0.937007874015748
        },
        {
          "duration": 0.057377016666691816,
          "durationTicks": 14,
          "midi": 75,
          "name": "D#5",
          "ticks": 55740,
          "time": 228.44249349999998,
          "velocity": 0.8740157480314961
        },
        {
          "duration": 0.06557373333333771,
          "durationTicks": 16,
          "midi": 39,
          "name": "D#2",
          "ticks": 55800,
          "time": 228.68839499999999,
          "velocity": 0.9291338582677166
        },
        {
          "duration": 0.06557373333333771,
          "durationTicks": 16,
          "midi": 35,
          "name": "B1",
          "ticks": 55860,
          "time": 228.9342965,
          "velocity": 0.8740157480314961
        },
        {
          "duration": 0.07377044999998361,
          "durationTicks": 18,
          "midi": 35,
          "name": "B1",
          "ticks": 55920,
          "time": 229.180198,
          "velocity": 0.9448818897637795
        },
        {
          "duration": 0.061475375000014765,
          "durationTicks": 15,
          "midi": 39,
          "name": "D#2",
          "ticks": 56040,
          "time": 229.672001,
          "velocity": 0.9212598425196851
        },
        {
          "duration": 0.07786880833333498,
          "durationTicks": 19,
          "midi": 35,
          "name": "B1",
          "ticks": 56160,
          "time": 230.163804,
          "velocity": 0.9448818897637795
        },
        {
          "duration": 0.07786880833333498,
          "durationTicks": 19,
          "midi": 35,
          "name": "B1",
          "ticks": 56220,
          "time": 230.4097055,
          "velocity": 0.6771653543307087
        },
        {
          "duration": 0.06967209166666066,
          "durationTicks": 17,
          "midi": 35,
          "name": "B1",
          "ticks": 56280,
          "time": 230.655607,
          "velocity": 0.6220472440944882
        },
        {
          "duration": 0.06557373333330929,
          "durationTicks": 16,
          "midi": 39,
          "name": "D#2",
          "ticks": 56280,
          "time": 230.655607,
          "velocity": 0.937007874015748
        },
        {
          "duration": 0.07377044999998361,
          "durationTicks": 18,
          "midi": 35,
          "name": "B1",
          "ticks": 56340,
          "time": 230.9015085,
          "velocity": 0.952755905511811
        },
        {
          "duration": 0.061475375000014765,
          "durationTicks": 15,
          "midi": 39,
          "name": "D#2",
          "ticks": 56520,
          "time": 231.63921299999998,
          "velocity": 0.9448818897637795
        },
        {
          "duration": 0.057377016666691816,
          "durationTicks": 14,
          "midi": 35,
          "name": "B1",
          "ticks": 56580,
          "time": 231.8851145,
          "velocity": 0.7874015748031497
        },
        {
          "duration": 0.08196716666668635,
          "durationTicks": 20,
          "midi": 35,
          "name": "B1",
          "ticks": 56640,
          "time": 232.131016,
          "velocity": 0.9291338582677166
        },
        {
          "duration": 0.057377016666663394,
          "durationTicks": 14,
          "midi": 75,
          "name": "D#5",
          "ticks": 56700,
          "time": 232.3769175,
          "velocity": 0.8740157480314961
        },
        {
          "duration": 0.061475375000014765,
          "durationTicks": 15,
          "midi": 39,
          "name": "D#2",
          "ticks": 56760,
          "time": 232.622819,
          "velocity": 0.8661417322834646
        },
        {
          "duration": 0.06557373333333771,
          "durationTicks": 16,
          "midi": 35,
          "name": "B1",
          "ticks": 56820,
          "time": 232.8687205,
          "velocity": 0.8976377952755905
        },
        {
          "duration": 0.06557373333333771,
          "durationTicks": 16,
          "midi": 35,
          "name": "B1",
          "ticks": 56880,
          "time": 233.114622,
          "velocity": 0.937007874015748
        },
        {
          "duration": 0.057377016666663394,
          "durationTicks": 14,
          "midi": 39,
          "name": "D#2",
          "ticks": 57000,
          "time": 233.606425,
          "velocity": 0.84251968503937
        },
        {
          "duration": 0.06557373333330929,
          "durationTicks": 16,
          "midi": 35,
          "name": "B1",
          "ticks": 57120,
          "time": 234.098228,
          "velocity": 0.8976377952755905
        },
        {
          "duration": 0.057377016666663394,
          "durationTicks": 14,
          "midi": 35,
          "name": "B1",
          "ticks": 57180,
          "time": 234.3441295,
          "velocity": 0.8503937007874016
        },
        {
          "duration": 0.06557373333333771,
          "durationTicks": 16,
          "midi": 39,
          "name": "D#2",
          "ticks": 57240,
          "time": 234.59003099999998,
          "velocity": 0.889763779527559
        },
        {
          "duration": 0.0778688083333634,
          "durationTicks": 19,
          "midi": 35,
          "name": "B1",
          "ticks": 57300,
          "time": 234.83593249999998,
          "velocity": 0.9291338582677166
        },
        {
          "duration": 0.061475375000014765,
          "durationTicks": 15,
          "midi": 39,
          "name": "D#2",
          "ticks": 57480,
          "time": 235.573637,
          "velocity": 0.937007874015748
        },
        {
          "duration": 0.07377044999998361,
          "durationTicks": 18,
          "midi": 49,
          "name": "C#3",
          "ticks": 57600,
          "time": 236.06544,
          "velocity": 0.8582677165354331
        },
        {
          "duration": 0.07377044999998361,
          "durationTicks": 18,
          "midi": 35,
          "name": "B1",
          "ticks": 57600,
          "time": 236.06544,
          "velocity": 0.937007874015748
        }
      ],
      "endOfTrackTicks": 57618
    },
    {
      "channel": 0,
      "controlChanges": {
        "7": [
          {
            "number": 7,
            "ticks": 165,
            "time": 0.676229125,
            "value": 0.7322834645669292
          }
        ],
        "10": [
          {
            "number": 10,
            "ticks": 202,
            "time": 0.8278683833333333,
            "value": 0.5354330708661418
          }
        ],
        "91": [
          {
            "number": 91,
            "ticks": 240,
            "time": 0.983606,
            "value": 0.5275590551181102
          }
        ],
        "93": [
          {
            "number": 93,
            "ticks": 277,
            "time": 1.1352452583333332,
            "value": 0.5433070866141733
          }
        ]
      },
      "pitchBends": [],
      "instrument": {
        "family": "ensemble",
        "number": 52,
        "name": "choir aahs"
      },
      "name": "",
      "notes": [],
      "endOfTrackTicks": 277
    },
    {
      "channel": 0,
      "controlChanges": {
        "0": [
          {
            "number": 0,
            "ticks": 0,
            "time": 0,
            "value": 0.03937007874015748
          }
        ],
        "7": [
          {
            "number": 7,
            "ticks": 0,
            "time": 0,
            "value": 0.8661417322834646
          }
        ],
        "10": [
          {
            "number": 10,
            "ticks": 1,
            "time": 0.004098358333333333,
            "value": 0.5669291338582677
          }
        ],
        "11": [
          {
            "number": 11,
            "ticks": 1,
            "time": 0.004098358333333333,
            "value": 1
          }
        ],
        "32": [
          {
            "number": 32,
            "ticks": 0,
            "time": 0,
            "value": 0
          }
        ],
        "91": [
          {
            "number": 91,
            "ticks": 1,
            "time": 0.004098358333333333,
            "value": 0.6299212598425197
          }
        ],
        "93": [
          {
            "number": 93,
            "ticks": 1,
            "time": 0.004098358333333333,
            "value": 0.1732283464566929
          }
        ],
        "121": [
          {
            "number": 121,
            "ticks": 0,
            "time": 0,
            "value": 0
          }
        ]
      },
      "pitchBends": [],
      "instrument": {
        "family": "sound effects",
        "number": 124,
        "name": "telephone ring"
      },
      "name": "",
      "notes": [],
      "endOfTrackTicks": 1
    }
  ]
}