{
  "header": {
    "keySignatures": [],
    "meta": {
      "title": "My Way",
      "artist": "Frank Sinatra",
      "creator": "unknown"
    },
    "name": "",
    "ppq": 240,
    "tempos": [
      {
        "bpm": 77.000077000077,
        "ticks": 0
      }
    ],
    "timeSignatures": [
      {
        "ticks": 0,
        "timeSignature": [
          4,
          4
        ],
        "measures": 0
      }
    ]
  },
  "tracks": [
    {
      "channel": 1,
      "controlChanges": {
        "7": [
          {
            "number": 7,
            "ticks": 260,
            "time": 0.844155,
            "value": 0.7086614173228346
          }
        ],
        "11": [
          {
            "number": 11,
            "ticks": 260,
            "time": 0.844155,
            "value": 1
          }
        ],
        "91": [
          {
            "number": 91,
            "ticks": 262,
            "time": 0.8506484999999999,
            "value": 0
          }
        ],
        "93": [
          {
            "number": 93,
            "ticks": 262,
            "time": 0.8506484999999999,
            "value": 0
          }
        ]
      },
      "pitchBends": [],
      "instrument": {
        "family": "bass",
        "number": 32,
        "name": "acoustic bass"
      },
      "name": "My Way    GM",
      "notes": [
        {
          "duration": 0.9740250000000001,
          "durationTicks": 300,
          "midi": 38,
          "name": "D2",
          "ticks": 1920,
          "time": 6.23376,
          "velocity": 0.6535433070866141
        },
        {
          "duration": 0.27597374999999946,
          "durationTicks": 85,
          "midi": 38,
          "name": "D2",
          "ticks": 2280,
          "time": 7.40259,
          "velocity": 0.6535433070866141
        },
        {
          "duration": 1.5097387499999995,
          "durationTicks": 465,
          "midi": 38,
          "name": "D2",
          "ticks": 2400,
          "time": 7.7922,
          "velocity": 0.6535433070866141
        },
        {
          "duration": 0.9675314999999998,
          "durationTicks": 298,
          "midi": 38,
          "name": "D2",
          "ticks": 2882,
          "time": 9.3571335,
          "velocity": 0.6535433070866141
        },
        {
          "duration": 0.27597375000000035,
          "durationTicks": 85,
          "midi": 38,
          "name": "D2",
          "ticks": 3240,
          "time": 10.51947,
          "velocity": 0.6535433070866141
        },
        {
          "duration": 1.499998500000002,
          "durationTicks": 462,
          "midi": 38,
          "name": "D2",
          "ticks": 3360,
          "time": 10.90908,
          "velocity": 0.6535433070866141
        },
        {
          "duration": 0.9675314999999998,
          "durationTicks": 298,
          "midi": 38,
          "name": "D2",
          "ticks": 3842,
          "time": 12.4740135,
          "velocity": 0.6535433070866141
        },
        {
          "duration": 0.2824672500000016,
          "durationTicks": 87,
          "midi": 38,
          "name": "D2",
          "ticks": 4200,
          "time": 13.63635,
          "velocity": 0.6535433070866141
        },
        {
          "duration": 1.4999985000000002,
          "durationTicks": 462,
          "midi": 38,
          "name": "D2",
          "ticks": 4320,
          "time": 14.025960000000001,
          "velocity": 0.6535433070866141
        },
        {
          "duration": 1.064934000000001,
          "durationTicks": 328,
          "midi": 37,
          "name": "C#2",
          "ticks": 4802,
          "time": 15.5908935,
          "velocity": 0.6535433070866141
        },
        {
          "duration": 0.29220749999999995,
          "durationTicks": 90,
          "midi": 37,
          "name": "C#2",
          "ticks": 5160,
          "time": 16.753230000000002,
          "velocity": 0.6535433070866141
        },
        {
          "duration": 1.4772712500000011,
          "durationTicks": 455,
          "midi": 37,
          "name": "C#2",
          "ticks": 5280,
          "time": 17.14284,
          "velocity": 0.6535433070866141
        },
        {
          "duration": 1.0487002499999996,
          "durationTicks": 323,
          "midi": 36,
          "name": "C2",
          "ticks": 5762,
          "time": 18.707773500000002,
          "velocity": 0.6535433070866141
        },
        {
          "duration": 0.23376599999999925,
          "durationTicks": 72,
          "midi": 36,
          "name": "C2",
          "ticks": 6120,
          "time": 19.87011,
          "velocity": 0.6535433070866141
        },
        {
          "duration": 1.4675309999999975,
          "durationTicks": 452,
          "midi": 36,
          "name": "C2",
          "ticks": 6240,
          "time": 20.25972,
          "velocity": 0.6535433070866141
        },
        {
          "duration": 1.0551937500000044,
          "durationTicks": 325,
          "midi": 35,
          "name": "B1",
          "ticks": 6720,
          "time": 21.81816,
          "velocity": 0.6535433070866141
        },
        {
          "duration": 0.26623349999999846,
          "durationTicks": 82,
          "midi": 35,
          "name": "B1",
          "ticks": 7080,
          "time": 22.986990000000002,
          "velocity": 0.6535433070866141
        },
        {
          "duration": 0.29220749999999995,
          "durationTicks": 90,
          "midi": 35,
          "name": "B1",
          "ticks": 7200,
          "time": 23.3766,
          "velocity": 0.6535433070866141
        },
        {
          "duration": 0.3896100000000011,
          "durationTicks": 120,
          "midi": 35,
          "name": "B1",
          "ticks": 7320,
          "time": 23.76621,
          "velocity": 0.6535433070866141
        },
        {
          "duration": 0.37337624999999974,
          "durationTicks": 115,
          "midi": 37,
          "name": "C#2",
          "ticks": 7440,
          "time": 24.155820000000002,
          "velocity": 0.6535433070866141
        },
        {
          "duration": 0.34090875000000054,
          "durationTicks": 105,
          "midi": 39,
          "name": "D#2",
          "ticks": 7560,
          "time": 24.54543,
          "velocity": 0.6535433070866141
        },
        {
          "duration": 1.0714274999999986,
          "durationTicks": 330,
          "midi": 40,
          "name": "E2",
          "ticks": 7682,
          "time": 24.941533500000002,
          "velocity": 0.6535433070866141
        },
        {
          "duration": 0.2987010000000012,
          "durationTicks": 92,
          "midi": 40,
          "name": "E2",
          "ticks": 8040,
          "time": 26.10387,
          "velocity": 0.6535433070866141
        },
        {
          "duration": 1.542206249999996,
          "durationTicks": 475,
          "midi": 40,
          "name": "E2",
          "ticks": 8160,
          "time": 26.49348,
          "velocity": 0.6535433070866141
        },
        {
          "duration": 1.038960000000003,
          "durationTicks": 320,
          "midi": 38,
          "name": "D2",
          "ticks": 8642,
          "time": 28.0584135,
          "velocity": 0.6535433070866141
        },
        {
          "duration": 0.33116849999999687,
          "durationTicks": 102,
          "midi": 38,
          "name": "D2",
          "ticks": 9000,
          "time": 29.220750000000002,
          "velocity": 0.6535433070866141
        },
        {
          "duration": 1.5422062499999996,
          "durationTicks": 475,
          "midi": 38,
          "name": "D2",
          "ticks": 9120,
          "time": 29.61036,
          "velocity": 0.6535433070866141
        },
        {
          "duration": 1.0162327500000004,
          "durationTicks": 313,
          "midi": 37,
          "name": "C#2",
          "ticks": 9602,
          "time": 31.175293500000002,
          "velocity": 0.6535433070866141
        },
        {
          "duration": 0.26623349999999846,
          "durationTicks": 82,
          "midi": 37,
          "name": "C#2",
          "ticks": 9960,
          "time": 32.337630000000004,
          "velocity": 0.6535433070866141
        },
        {
          "duration": 0.8279212499999957,
          "durationTicks": 255,
          "midi": 37,
          "name": "C#2",
          "ticks": 10080,
          "time": 32.72724,
          "velocity": 0.6535433070866141
        },
        {
          "duration": 0.769479749999995,
          "durationTicks": 237,
          "midi": 33,
          "name": "A1",
          "ticks": 10320,
          "time": 33.506460000000004,
          "velocity": 0.6535433070866141
        },
        {
          "duration": 1.0974014999999966,
          "durationTicks": 338,
          "midi": 38,
          "name": "D2",
          "ticks": 10562,
          "time": 34.292173500000004,
          "velocity": 0.6535433070866141
        },
        {
          "duration": 0.2759737499999986,
          "durationTicks": 85,
          "midi": 38,
          "name": "D2",
          "ticks": 10920,
          "time": 35.45451,
          "velocity": 0.6535433070866141
        },
        {
          "duration": 0.5259734999999921,
          "durationTicks": 162,
          "midi": 38,
          "name": "D2",
          "ticks": 11040,
          "time": 35.844120000000004,
          "velocity": 0.6535433070866141
        },
        {
          "duration": 0.20129850000000005,
          "durationTicks": 62,
          "midi": 38,
          "name": "D2",
          "ticks": 11220,
          "time": 36.428535000000004,
          "velocity": 0.6535433070866141
        },
        {
          "duration": 0.30844125000000133,
          "durationTicks": 95,
          "midi": 33,
          "name": "A1",
          "ticks": 11280,
          "time": 36.62334,
          "velocity": 0.6535433070866141
        },
        {
          "duration": 0.3474022499999947,
          "durationTicks": 107,
          "midi": 33,
          "name": "A1",
          "ticks": 11400,
          "time": 37.012950000000004,
          "velocity": 0.6535433070866141
        },
        {
          "duration": 0.7629862499999973,
          "durationTicks": 235,
          "midi": 38,
          "name": "D2",
          "ticks": 11525,
          "time": 37.418793750000006,
          "velocity": 0.6535433070866141
        },
        {
          "duration": 0.37986974999999745,
          "durationTicks": 117,
          "midi": 38,
          "name": "D2",
          "ticks": 11760,
          "time": 38.18178,
          "velocity": 0.6535433070866141
        },
        {
          "duration": 0.2337659999999957,
          "durationTicks": 72,
          "midi": 38,
          "name": "D2",
          "ticks": 11880,
          "time": 38.57139,
          "velocity": 0.6535433070866141
        },
        {
          "duration": 1.4448037499999984,
          "durationTicks": 445,
          "midi": 38,
          "name": "D2",
          "ticks": 12000,
          "time": 38.961,
          "velocity": 0.6535433070866141
        },
        {
          "duration": 1.0454535000000007,
          "durationTicks": 322,
          "midi": 38,
          "name": "D2",
          "ticks": 12480,
          "time": 40.51944,
          "velocity": 0.6535433070866141
        },
        {
          "duration": 0.25974000000000075,
          "durationTicks": 80,
          "midi": 38,
          "name": "D2",
          "ticks": 12840,
          "time": 41.68827,
          "velocity": 0.6535433070866141
        },
        {
          "duration": 1.1428560000000019,
          "durationTicks": 352,
          "midi": 38,
          "name": "D2",
          "ticks": 12960,
          "time": 42.07788,
          "velocity": 0.6535433070866141
        },
        {
          "duration": 0.18506475000000222,
          "durationTicks": 57,
          "midi": 38,
          "name": "D2",
          "ticks": 13320,
          "time": 43.24671,
          "velocity": 0.6535433070866141
        },
        {
          "duration": 1.168830000000007,
          "durationTicks": 360,
          "midi": 43,
          "name": "G2",
          "ticks": 13440,
          "time": 43.63632,
          "velocity": 0.6535433070866141
        },
        {
          "duration": 0.37986974999999745,
          "durationTicks": 117,
          "midi": 40,
          "name": "E2",
          "ticks": 13800,
          "time": 44.805150000000005,
          "velocity": 0.6535433070866141
        },
        {
          "duration": 1.5584399999999974,
          "durationTicks": 480,
          "midi": 38,
          "name": "D2",
          "ticks": 13920,
          "time": 45.19476,
          "velocity": 0.6535433070866141
        },
        {
          "duration": 1.162336499999995,
          "durationTicks": 358,
          "midi": 40,
          "name": "E2",
          "ticks": 14402,
          "time": 46.759693500000004,
          "velocity": 0.6535433070866141
        },
        {
          "duration": 0.37986974999999745,
          "durationTicks": 117,
          "midi": 40,
          "name": "E2",
          "ticks": 14760,
          "time": 47.92203,
          "velocity": 0.6535433070866141
        },
        {
          "duration": 0.38960999999999757,
          "durationTicks": 120,
          "midi": 40,
          "name": "E2",
          "ticks": 14880,
          "time": 48.311640000000004,
          "velocity": 0.6535433070866141
        },
        {
          "duration": 0.4058437500000025,
          "durationTicks": 125,
          "midi": 40,
          "name": "E2",
          "ticks": 15000,
          "time": 48.70125,
          "velocity": 0.6535433070866141
        },
        {
          "duration": 0.4058437500000025,
          "durationTicks": 125,
          "midi": 42,
          "name": "F#2",
          "ticks": 15120,
          "time": 49.09086,
          "velocity": 0.6535433070866141
        },
        {
          "duration": 0.38960999999999757,
          "durationTicks": 120,
          "midi": 45,
          "name": "A2",
          "ticks": 15240,
          "time": 49.480470000000004,
          "velocity": 0.6535433070866141
        },
        {
          "duration": 1.1688299999999998,
          "durationTicks": 360,
          "midi": 45,
          "name": "A2",
          "ticks": 15360,
          "time": 49.87008,
          "velocity": 0.6535433070866141
        },
        {
          "duration": 0.2824672499999963,
          "durationTicks": 87,
          "midi": 33,
          "name": "A1",
          "ticks": 15720,
          "time": 51.03891,
          "velocity": 0.6535433070866141
        },
        {
          "duration": 1.1688299999999998,
          "durationTicks": 360,
          "midi": 33,
          "name": "A1",
          "ticks": 15840,
          "time": 51.42852,
          "velocity": 0.6535433070866141
        },
        {
          "duration": 0.3896100000000047,
          "durationTicks": 120,
          "midi": 45,
          "name": "A2",
          "ticks": 16200,
          "time": 52.59735,
          "velocity": 0.6535433070866141
        },
        {
          "duration": 1.162336499999995,
          "durationTicks": 358,
          "midi": 45,
          "name": "A2",
          "ticks": 16322,
          "time": 52.99345350000001,
          "velocity": 0.6535433070866141
        },
        {
          "duration": 0.2987010000000012,
          "durationTicks": 92,
          "midi": 33,
          "name": "A1",
          "ticks": 16680,
          "time": 54.15579,
          "velocity": 0.6535433070866141
        },
        {
          "duration": 0.7792200000000022,
          "durationTicks": 240,
          "midi": 33,
          "name": "A1",
          "ticks": 16800,
          "time": 54.5454,
          "velocity": 0.6535433070866141
        },
        {
          "duration": 0.38960999999999757,
          "durationTicks": 120,
          "midi": 33,
          "name": "A1",
          "ticks": 17040,
          "time": 55.32462,
          "velocity": 0.6535433070866141
        },
        {
          "duration": 0.9967522500000001,
          "durationTicks": 307,
          "midi": 38,
          "name": "D2",
          "ticks": 17280,
          "time": 56.103840000000005,
          "velocity": 0.6535433070866141
        },
        {
          "duration": 0.31493474999999904,
          "durationTicks": 97,
          "midi": 38,
          "name": "D2",
          "ticks": 17640,
          "time": 57.272670000000005,
          "velocity": 0.6535433070866141
        },
        {
          "duration": 1.3863622499999977,
          "durationTicks": 427,
          "midi": 38,
          "name": "D2",
          "ticks": 17760,
          "time": 57.66228,
          "velocity": 0.6535433070866141
        },
        {
          "duration": 1.1688299999999998,
          "durationTicks": 360,
          "midi": 38,
          "name": "D2",
          "ticks": 18240,
          "time": 59.22072,
          "velocity": 0.6535433070866141
        },
        {
          "duration": 0.7792200000000022,
          "durationTicks": 240,
          "midi": 33,
          "name": "A1",
          "ticks": 18600,
          "time": 60.38955,
          "velocity": 0.5748031496062992
        },
        {
          "duration": 0.37986974999999745,
          "durationTicks": 117,
          "midi": 33,
          "name": "A1",
          "ticks": 18840,
          "time": 61.16877,
          "velocity": 0.5748031496062992
        },
        {
          "duration": 0.3896100000000047,
          "durationTicks": 120,
          "midi": 33,
          "name": "A1",
          "ticks": 18960,
          "time": 61.55838,
          "velocity": 0.5748031496062992
        },
        {
          "duration": 0.3961035000000024,
          "durationTicks": 122,
          "midi": 33,
          "name": "A1",
          "ticks": 19080,
          "time": 61.947990000000004,
          "velocity": 0.5748031496062992
        },
        {
          "duration": 0.9675314999999927,
          "durationTicks": 298,
          "midi": 38,
          "name": "D2",
          "ticks": 19202,
          "time": 62.34409350000001,
          "velocity": 0.7322834645669292
        },
        {
          "duration": 0.2824672499999963,
          "durationTicks": 87,
          "midi": 38,
          "name": "D2",
          "ticks": 19560,
          "time": 63.50643,
          "velocity": 0.7322834645669292
        },
        {
          "duration": 1.5097387499999968,
          "durationTicks": 465,
          "midi": 38,
          "name": "D2",
          "ticks": 19680,
          "time": 63.89604,
          "velocity": 0.7322834645669292
        },
        {
          "duration": 1.0714274999999986,
          "durationTicks": 330,
          "midi": 37,
          "name": "C#2",
          "ticks": 20160,
          "time": 65.45448,
          "velocity": 0.7322834645669292
        },
        {
          "duration": 0.2922075000000035,
          "durationTicks": 90,
          "midi": 37,
          "name": "C#2",
          "ticks": 20520,
          "time": 66.62331,
          "velocity": 0.7322834645669292
        },
        {
          "duration": 1.477271249999987,
          "durationTicks": 455,
          "midi": 37,
          "name": "C#2",
          "ticks": 20640,
          "time": 67.01292000000001,
          "velocity": 0.7322834645669292
        },
        {
          "duration": 1.0551937500000008,
          "durationTicks": 325,
          "midi": 36,
          "name": "C2",
          "ticks": 21120,
          "time": 68.57136,
          "velocity": 0.7244094488188977
        },
        {
          "duration": 0.24350625000001003,
          "durationTicks": 75,
          "midi": 36,
          "name": "C2",
          "ticks": 21480,
          "time": 69.74019,
          "velocity": 0.7244094488188977
        },
        {
          "duration": 1.4675310000000081,
          "durationTicks": 452,
          "midi": 36,
          "name": "C2",
          "ticks": 21600,
          "time": 70.1298,
          "velocity": 0.7244094488188977
        },
        {
          "duration": 1.048700249999996,
          "durationTicks": 323,
          "midi": 35,
          "name": "B1",
          "ticks": 22082,
          "time": 71.69473350000001,
          "velocity": 0.7244094488188977
        },
        {
          "duration": 0.26623349999999846,
          "durationTicks": 82,
          "midi": 35,
          "name": "B1",
          "ticks": 22440,
          "time": 72.85707000000001,
          "velocity": 0.7244094488188977
        },
        {
          "duration": 0.2824672499999963,
          "durationTicks": 87,
          "midi": 35,
          "name": "B1",
          "ticks": 22560,
          "time": 73.24668,
          "velocity": 0.7244094488188977
        },
        {
          "duration": 0.37986974999999745,
          "durationTicks": 117,
          "midi": 35,
          "name": "B1",
          "ticks": 22680,
          "time": 73.63629,
          "velocity": 0.7244094488188977
        },
        {
          "duration": 0.37337624999999264,
          "durationTicks": 115,
          "midi": 37,
          "name": "C#2",
          "ticks": 22800,
          "time": 74.02590000000001,
          "velocity": 0.7244094488188977
        },
        {
          "duration": 0.3409087500000112,
          "durationTicks": 105,
          "midi": 39,
          "name": "D#2",
          "ticks": 22920,
          "time": 74.41551,
          "velocity": 0.7244094488188977
        },
        {
          "duration": 1.0779210000000035,
          "durationTicks": 332,
          "midi": 40,
          "name": "E2",
          "ticks": 23040,
          "time": 74.80512,
          "velocity": 0.7244094488188977
        },
        {
          "duration": 0.2922075000000035,
          "durationTicks": 90,
          "midi": 40,
          "name": "E2",
          "ticks": 23400,
          "time": 75.97395,
          "velocity": 0.7244094488188977
        },
        {
          "duration": 1.5422062499999925,
          "durationTicks": 475,
          "midi": 40,
          "name": "E2",
          "ticks": 23520,
          "time": 76.36356,
          "velocity": 0.7244094488188977
        },
        {
          "duration": 1.038960000000003,
          "durationTicks": 320,
          "midi": 38,
          "name": "D2",
          "ticks": 24000,
          "time": 77.922,
          "velocity": 0.7244094488188977
        },
        {
          "duration": 0.3409087500000112,
          "durationTicks": 105,
          "midi": 38,
          "name": "D2",
          "ticks": 24360,
          "time": 79.09083,
          "velocity": 0.7244094488188977
        },
        {
          "duration": 1.5422062500000067,
          "durationTicks": 475,
          "midi": 38,
          "name": "D2",
          "ticks": 24480,
          "time": 79.48044,
          "velocity": 0.7244094488188977
        },
        {
          "duration": 1.0292197499999958,
          "durationTicks": 317,
          "midi": 37,
          "name": "C#2",
          "ticks": 24960,
          "time": 81.03888,
          "velocity": 0.7244094488188977
        },
        {
          "duration": 0.26623349999999846,
          "durationTicks": 82,
          "midi": 37,
          "name": "C#2",
          "ticks": 25320,
          "time": 82.20771,
          "velocity": 0.7244094488188977
        },
        {
          "duration": 0.8279212500000028,
          "durationTicks": 255,
          "midi": 37,
          "name": "C#2",
          "ticks": 25440,
          "time": 82.59732,
          "velocity": 0.7244094488188977
        },
        {
          "duration": 0.7694797499999879,
          "durationTicks": 237,
          "midi": 33,
          "name": "A1",
          "ticks": 25680,
          "time": 83.37654,
          "velocity": 0.7244094488188977
        },
        {
          "duration": 1.0941547500000013,
          "durationTicks": 337,
          "midi": 38,
          "name": "D2",
          "ticks": 25920,
          "time": 84.15576,
          "velocity": 0.7244094488188977
        },
        {
          "duration": 0.26623349999999846,
          "durationTicks": 82,
          "midi": 38,
          "name": "D2",
          "ticks": 26280,
          "time": 85.32459,
          "velocity": 0.7244094488188977
        },
        {
          "duration": 0.5357137499999993,
          "durationTicks": 165,
          "midi": 38,
          "name": "D2",
          "ticks": 26400,
          "time": 85.7142,
          "velocity": 0.7165354330708661
        },
        {
          "duration": 0.21103875000000016,
          "durationTicks": 65,
          "midi": 38,
          "name": "D2",
          "ticks": 26580,
          "time": 86.298615,
          "velocity": 0.7165354330708661
        },
        {
          "duration": 0.30844125000000133,
          "durationTicks": 95,
          "midi": 33,
          "name": "A1",
          "ticks": 26640,
          "time": 86.49342,
          "velocity": 0.7165354330708661
        },
        {
          "duration": 0.3474022500000018,
          "durationTicks": 107,
          "midi": 33,
          "name": "A1",
          "ticks": 26760,
          "time": 86.88303,
          "velocity": 0.7165354330708661
        },
        {
          "duration": 0.7694797500000021,
          "durationTicks": 237,
          "midi": 38,
          "name": "D2",
          "ticks": 26880,
          "time": 87.27264,
          "velocity": 0.7165354330708661
        },
        {
          "duration": 0.3896100000000047,
          "durationTicks": 120,
          "midi": 38,
          "name": "D2",
          "ticks": 27120,
          "time": 88.05186,
          "velocity": 0.7165354330708661
        },
        {
          "duration": 0.24350624999999582,
          "durationTicks": 75,
          "midi": 38,
          "name": "D2",
          "ticks": 27240,
          "time": 88.44147000000001,
          "velocity": 0.7165354330708661
        },
        {
          "duration": 1.4448037500000055,
          "durationTicks": 445,
          "midi": 38,
          "name": "D2",
          "ticks": 27360,
          "time": 88.83108,
          "velocity": 0.7165354330708661
        },
        {
          "duration": 1.0551937500000008,
          "durationTicks": 325,
          "midi": 38,
          "name": "D2",
          "ticks": 27840,
          "time": 90.38952,
          "velocity": 0.7165354330708661
        },
        {
          "duration": 0.25973999999999364,
          "durationTicks": 80,
          "midi": 38,
          "name": "D2",
          "ticks": 28200,
          "time": 91.55835,
          "velocity": 0.7165354330708661
        },
        {
          "duration": 1.152596250000002,
          "durationTicks": 355,
          "midi": 38,
          "name": "D2",
          "ticks": 28320,
          "time": 91.94796000000001,
          "velocity": 0.7165354330708661
        },
        {
          "duration": 0.19480499999998813,
          "durationTicks": 60,
          "midi": 38,
          "name": "D2",
          "ticks": 28680,
          "time": 93.11679000000001,
          "velocity": 0.7165354330708661
        },
        {
          "duration": 1.1688299999999998,
          "durationTicks": 360,
          "midi": 43,
          "name": "G2",
          "ticks": 28800,
          "time": 93.5064,
          "velocity": 0.7165354330708661
        },
        {
          "duration": 0.3896100000000047,
          "durationTicks": 120,
          "midi": 40,
          "name": "E2",
          "ticks": 29160,
          "time": 94.67523,
          "velocity": 0.7165354330708661
        },
        {
          "duration": 1.5584400000000045,
          "durationTicks": 480,
          "midi": 38,
          "name": "D2",
          "ticks": 29280,
          "time": 95.06484,
          "velocity": 0.7165354330708661
        },
        {
          "duration": 1.1688299999999998,
          "durationTicks": 360,
          "midi": 40,
          "name": "E2",
          "ticks": 29760,
          "time": 96.62328000000001,
          "velocity": 0.7165354330708661
        },
        {
          "duration": 0.38960999999999046,
          "durationTicks": 120,
          "midi": 40,
          "name": "E2",
          "ticks": 30120,
          "time": 97.79211000000001,
          "velocity": 0.7165354330708661
        },
        {
          "duration": 0.6818175000000082,
          "durationTicks": 210,
          "midi": 40,
          "name": "E2",
          "ticks": 30240,
          "time": 98.18172,
          "velocity": 0.7165354330708661
        },
        {
          "duration": 0.5746747499999998,
          "durationTicks": 177,
          "midi": 34,
          "name": "A#1",
          "ticks": 30480,
          "time": 98.96094000000001,
          "velocity": 0.7165354330708661
        },
        {
          "duration": 1.1428559999999948,
          "durationTicks": 352,
          "midi": 33,
          "name": "A1",
          "ticks": 30720,
          "time": 99.74016,
          "velocity": 0.7165354330708661
        },
        {
          "duration": 0.2922075000000035,
          "durationTicks": 90,
          "midi": 33,
          "name": "A1",
          "ticks": 31080,
          "time": 100.90899,
          "velocity": 0.7165354330708661
        },
        {
          "duration": 1.1688299999999998,
          "durationTicks": 360,
          "midi": 33,
          "name": "A1",
          "ticks": 31200,
          "time": 101.29860000000001,
          "velocity": 0.7165354330708661
        },
        {
          "duration": 0.38960999999999046,
          "durationTicks": 120,
          "midi": 45,
          "name": "A2",
          "ticks": 31560,
          "time": 102.46743000000001,
          "velocity": 0.7165354330708661
        },
        {
          "duration": 1.162336499999995,
          "durationTicks": 358,
          "midi": 45,
          "name": "A2",
          "ticks": 31682,
          "time": 102.8635335,
          "velocity": 0.7165354330708661
        },
        {
          "duration": 0.2922075000000035,
          "durationTicks": 90,
          "midi": 33,
          "name": "A1",
          "ticks": 32040,
          "time": 104.02587,
          "velocity": 0.7086614173228346
        },
        {
          "duration": 0.7792199999999951,
          "durationTicks": 240,
          "midi": 33,
          "name": "A1",
          "ticks": 32160,
          "time": 104.41548,
          "velocity": 0.7086614173228346
        },
        {
          "duration": 0.3896100000000047,
          "durationTicks": 120,
          "midi": 33,
          "name": "A1",
          "ticks": 32400,
          "time": 105.1947,
          "velocity": 0.7086614173228346
        },
        {
          "duration": 0.9967522500000001,
          "durationTicks": 307,
          "midi": 38,
          "name": "D2",
          "ticks": 32640,
          "time": 105.97392,
          "velocity": 0.7086614173228346
        },
        {
          "duration": 0.31493474999999194,
          "durationTicks": 97,
          "midi": 38,
          "name": "D2",
          "ticks": 33000,
          "time": 107.14275,
          "velocity": 0.7086614173228346
        },
        {
          "duration": 1.3863622500000048,
          "durationTicks": 427,
          "midi": 38,
          "name": "D2",
          "ticks": 33120,
          "time": 107.53236,
          "velocity": 0.7086614173228346
        },
        {
          "duration": 1.1688299999999998,
          "durationTicks": 360,
          "midi": 38,
          "name": "D2",
          "ticks": 33600,
          "time": 109.0908,
          "velocity": 0.7086614173228346
        },
        {
          "duration": 0.38311650000001407,
          "durationTicks": 118,
          "midi": 33,
          "name": "A1",
          "ticks": 33962,
          "time": 110.26612349999999,
          "velocity": 0.7086614173228346
        },
        {
          "duration": 0.37337624999999264,
          "durationTicks": 115,
          "midi": 33,
          "name": "A1",
          "ticks": 34085,
          "time": 110.66547375,
          "velocity": 0.7086614173228346
        },
        {
          "duration": 0.3896100000000047,
          "durationTicks": 120,
          "midi": 33,
          "name": "A1",
          "ticks": 34200,
          "time": 111.03885,
          "velocity": 0.7086614173228346
        },
        {
          "duration": 0.3896100000000047,
          "durationTicks": 120,
          "midi": 33,
          "name": "A1",
          "ticks": 34320,
          "time": 111.42846,
          "velocity": 0.7086614173228346
        },
        {
          "duration": 0.22727249999998378,
          "durationTicks": 70,
          "midi": 33,
          "name": "A1",
          "ticks": 34440,
          "time": 111.81807,
          "velocity": 0.7086614173228346
        },
        {
          "duration": 1.249998749999989,
          "durationTicks": 385,
          "midi": 38,
          "name": "D2",
          "ticks": 34565,
          "time": 112.22391375000001,
          "velocity": 0.905511811023622
        },
        {
          "duration": 0.3311685000000182,
          "durationTicks": 102,
          "midi": 33,
          "name": "A1",
          "ticks": 35040,
          "time": 113.76612,
          "velocity": 0.7874015748031497
        },
        {
          "duration": 0.5844149999999928,
          "durationTicks": 180,
          "midi": 38,
          "name": "D2",
          "ticks": 35160,
          "time": 114.15573,
          "velocity": 0.7874015748031497
        },
        {
          "duration": 0.24350624999999582,
          "durationTicks": 75,
          "midi": 38,
          "name": "D2",
          "ticks": 35400,
          "time": 114.93495,
          "velocity": 0.7874015748031497
        },
        {
          "duration": 1.1038949999999943,
          "durationTicks": 340,
          "midi": 38,
          "name": "D2",
          "ticks": 35520,
          "time": 115.32456,
          "velocity": 0.7874015748031497
        },
        {
          "duration": 0.3896100000000047,
          "durationTicks": 120,
          "midi": 33,
          "name": "A1",
          "ticks": 35880,
          "time": 116.49339,
          "velocity": 0.7952755905511811
        },
        {
          "duration": 0.340908749999997,
          "durationTicks": 105,
          "midi": 33,
          "name": "A1",
          "ticks": 36000,
          "time": 116.88300000000001,
          "velocity": 0.7952755905511811
        },
        {
          "duration": 0.2824672500000105,
          "durationTicks": 87,
          "midi": 26,
          "name": "D1",
          "ticks": 36120,
          "time": 117.27261,
          "velocity": 0.7952755905511811
        },
        {
          "duration": 0.24350624999999582,
          "durationTicks": 75,
          "midi": 26,
          "name": "D1",
          "ticks": 36240,
          "time": 117.66222,
          "velocity": 0.8031496062992126
        },
        {
          "duration": 0.2987009999999941,
          "durationTicks": 92,
          "midi": 26,
          "name": "D1",
          "ticks": 36360,
          "time": 118.05183000000001,
          "velocity": 0.8031496062992126
        },
        {
          "duration": 1.1623365000000092,
          "durationTicks": 358,
          "midi": 31,
          "name": "G1",
          "ticks": 36482,
          "time": 118.44793349999999,
          "velocity": 0.7795275590551181
        },
        {
          "duration": 0.3896100000000047,
          "durationTicks": 120,
          "midi": 26,
          "name": "D1",
          "ticks": 36840,
          "time": 119.61027,
          "velocity": 0.7795275590551181
        },
        {
          "duration": 0.2857140000000129,
          "durationTicks": 88,
          "midi": 26,
          "name": "D1",
          "ticks": 36962,
          "time": 120.0063735,
          "velocity": 0.7716535433070866
        },
        {
          "duration": 0.5844149999999928,
          "durationTicks": 180,
          "midi": 26,
          "name": "D1",
          "ticks": 37080,
          "time": 120.38949000000001,
          "velocity": 0.7716535433070866
        },
        {
          "duration": 0.37986975000001166,
          "durationTicks": 117,
          "midi": 43,
          "name": "G2",
          "ticks": 37320,
          "time": 121.16871,
          "velocity": 0.7716535433070866
        },
        {
          "duration": 1.064934000000008,
          "durationTicks": 328,
          "midi": 43,
          "name": "G2",
          "ticks": 37442,
          "time": 121.5648135,
          "velocity": 0.7716535433070866
        },
        {
          "duration": 0.38311649999999986,
          "durationTicks": 118,
          "midi": 43,
          "name": "G2",
          "ticks": 37802,
          "time": 122.7336435,
          "velocity": 0.7637795275590551
        },
        {
          "duration": 0.24350624999999582,
          "durationTicks": 75,
          "midi": 43,
          "name": "G2",
          "ticks": 37922,
          "time": 123.1232535,
          "velocity": 0.7637795275590551
        },
        {
          "duration": 0.24999975000000063,
          "durationTicks": 77,
          "midi": 43,
          "name": "G2",
          "ticks": 38040,
          "time": 123.50637,
          "velocity": 0.7637795275590551
        },
        {
          "duration": 0.25974000000000785,
          "durationTicks": 80,
          "midi": 42,
          "name": "F#2",
          "ticks": 38160,
          "time": 123.89598000000001,
          "velocity": 0.7637795275590551
        },
        {
          "duration": 0.25974000000000785,
          "durationTicks": 80,
          "midi": 42,
          "name": "F#2",
          "ticks": 38280,
          "time": 124.28559,
          "velocity": 0.7559055118110236
        },
        {
          "duration": 1.298700000000025,
          "durationTicks": 400,
          "midi": 40,
          "name": "E2",
          "ticks": 38402,
          "time": 124.6816935,
          "velocity": 0.7952755905511811
        },
        {
          "duration": 0.055194749999998294,
          "durationTicks": 17,
          "midi": 40,
          "name": "E2",
          "ticks": 38840,
          "time": 126.10377000000001,
          "velocity": 0.7874015748031497
        },
        {
          "duration": 0.19480500000000234,
          "durationTicks": 60,
          "midi": 40,
          "name": "E2",
          "ticks": 38880,
          "time": 126.23364000000001,
          "velocity": 0.7874015748031497
        },
        {
          "duration": 0.3896100000000047,
          "durationTicks": 120,
          "midi": 40,
          "name": "E2",
          "ticks": 39000,
          "time": 126.62325,
          "velocity": 0.7874015748031497
        },
        {
          "duration": 0.3961034999999953,
          "durationTicks": 122,
          "midi": 42,
          "name": "F#2",
          "ticks": 39120,
          "time": 127.01286,
          "velocity": 0.7874015748031497
        },
        {
          "duration": 0.31493474999999194,
          "durationTicks": 97,
          "midi": 43,
          "name": "G2",
          "ticks": 39240,
          "time": 127.40247000000001,
          "velocity": 0.7874015748031497
        },
        {
          "duration": 1.2597389999999962,
          "durationTicks": 388,
          "midi": 45,
          "name": "A2",
          "ticks": 39362,
          "time": 127.7985735,
          "velocity": 0.7795275590551181
        },
        {
          "duration": 0.08766224999999395,
          "durationTicks": 27,
          "midi": 45,
          "name": "A2",
          "ticks": 39780,
          "time": 129.15571500000001,
          "velocity": 0.7795275590551181
        },
        {
          "duration": 0.25973999999999364,
          "durationTicks": 80,
          "midi": 43,
          "name": "G2",
          "ticks": 39840,
          "time": 129.35052000000002,
          "velocity": 0.7795275590551181
        },
        {
          "duration": 0.6883109999999988,
          "durationTicks": 212,
          "midi": 43,
          "name": "G2",
          "ticks": 39960,
          "time": 129.74013,
          "velocity": 0.7795275590551181
        },
        {
          "duration": 0.32467499999998495,
          "durationTicks": 100,
          "midi": 43,
          "name": "G2",
          "ticks": 40200,
          "time": 130.51935,
          "velocity": 0.7716535433070866
        },
        {
          "duration": 1.4350635000000125,
          "durationTicks": 442,
          "midi": 42,
          "name": "F#2",
          "ticks": 40325,
          "time": 130.92519375,
          "velocity": 0.7952755905511811
        },
        {
          "duration": 0.14610375000000886,
          "durationTicks": 45,
          "midi": 42,
          "name": "F#2",
          "ticks": 40800,
          "time": 132.4674,
          "velocity": 0.7874015748031497
        },
        {
          "duration": 0.6493499999999983,
          "durationTicks": 200,
          "midi": 42,
          "name": "F#2",
          "ticks": 40920,
          "time": 132.85701,
          "velocity": 0.7874015748031497
        },
        {
          "duration": 0.2922074999999893,
          "durationTicks": 90,
          "midi": 42,
          "name": "F#2",
          "ticks": 41160,
          "time": 133.63623,
          "velocity": 0.7874015748031497
        },
        {
          "duration": 1.0779210000000035,
          "durationTicks": 332,
          "midi": 35,
          "name": "B1",
          "ticks": 41285,
          "time": 134.04207375000001,
          "velocity": 0.7795275590551181
        },
        {
          "duration": 0.21753225000000498,
          "durationTicks": 67,
          "midi": 35,
          "name": "B1",
          "ticks": 41640,
          "time": 135.19467,
          "velocity": 0.7795275590551181
        },
        {
          "duration": 0.21103875000000016,
          "durationTicks": 65,
          "midi": 35,
          "name": "B1",
          "ticks": 41760,
          "time": 135.58428,
          "velocity": 0.7795275590551181
        },
        {
          "duration": 1.1688299999999856,
          "durationTicks": 360,
          "midi": 35,
          "name": "B1",
          "ticks": 41880,
          "time": 135.97389,
          "velocity": 0.7716535433070866
        },
        {
          "duration": 1.0779210000000035,
          "durationTicks": 332,
          "midi": 40,
          "name": "E2",
          "ticks": 42240,
          "time": 137.14272,
          "velocity": 0.7401574803149606
        },
        {
          "duration": 0.27597374999999147,
          "durationTicks": 85,
          "midi": 40,
          "name": "E2",
          "ticks": 42600,
          "time": 138.31155,
          "velocity": 0.7401574803149606
        },
        {
          "duration": 0.22727249999996957,
          "durationTicks": 70,
          "midi": 40,
          "name": "E2",
          "ticks": 42720,
          "time": 138.70116000000002,
          "velocity": 0.7322834645669292
        },
        {
          "duration": 0.357142500000009,
          "durationTicks": 110,
          "midi": 40,
          "name": "E2",
          "ticks": 42840,
          "time": 139.09077,
          "velocity": 0.7322834645669292
        },
        {
          "duration": 0.37986975000001166,
          "durationTicks": 117,
          "midi": 42,
          "name": "F#2",
          "ticks": 42960,
          "time": 139.48038,
          "velocity": 0.7322834645669292
        },
        {
          "duration": 0.42857100000000514,
          "durationTicks": 132,
          "midi": 43,
          "name": "G2",
          "ticks": 43080,
          "time": 139.86999,
          "velocity": 0.7322834645669292
        },
        {
          "duration": 0.38311649999999986,
          "durationTicks": 118,
          "midi": 45,
          "name": "A2",
          "ticks": 43202,
          "time": 140.2660935,
          "velocity": 0.7322834645669292
        },
        {
          "duration": 0.2922074999999893,
          "durationTicks": 90,
          "midi": 33,
          "name": "A1",
          "ticks": 43320,
          "time": 140.64921,
          "velocity": 0.7322834645669292
        },
        {
          "duration": 0.2499997499999722,
          "durationTicks": 77,
          "midi": 33,
          "name": "A1",
          "ticks": 43440,
          "time": 141.03882000000002,
          "velocity": 0.7322834645669292
        },
        {
          "duration": 0.6818175000000224,
          "durationTicks": 210,
          "midi": 33,
          "name": "A1",
          "ticks": 43560,
          "time": 141.42843,
          "velocity": 0.7322834645669292
        },
        {
          "duration": 0.18506475000000933,
          "durationTicks": 57,
          "midi": 33,
          "name": "A1",
          "ticks": 43800,
          "time": 142.20765,
          "velocity": 0.7322834645669292
        },
        {
          "duration": 0.227272499999998,
          "durationTicks": 70,
          "midi": 33,
          "name": "A1",
          "ticks": 43920,
          "time": 142.59726,
          "velocity": 0.7322834645669292
        },
        {
          "duration": 0.357142500000009,
          "durationTicks": 110,
          "midi": 33,
          "name": "A1",
          "ticks": 44040,
          "time": 142.98687,
          "velocity": 0.7322834645669292
        },
        {
          "duration": 1.0551937500000008,
          "durationTicks": 325,
          "midi": 38,
          "name": "D2",
          "ticks": 44165,
          "time": 143.39271375,
          "velocity": 0.7244094488188977
        },
        {
          "duration": 0.2824672500000247,
          "durationTicks": 87,
          "midi": 38,
          "name": "D2",
          "ticks": 44520,
          "time": 144.54531,
          "velocity": 0.7244094488188977
        },
        {
          "duration": 0.21753225000000498,
          "durationTicks": 67,
          "midi": 38,
          "name": "D2",
          "ticks": 44640,
          "time": 144.93492,
          "velocity": 0.7244094488188977
        },
        {
          "duration": 0.227272499999998,
          "durationTicks": 70,
          "midi": 38,
          "name": "D2",
          "ticks": 44760,
          "time": 145.32453,
          "velocity": 0.7244094488188977
        },
        {
          "duration": 0.20129849999997873,
          "durationTicks": 62,
          "midi": 38,
          "name": "D2",
          "ticks": 44880,
          "time": 145.71414000000001,
          "velocity": 0.7244094488188977
        },
        {
          "duration": 0.3896100000000047,
          "durationTicks": 120,
          "midi": 38,
          "name": "D2",
          "ticks": 45000,
          "time": 146.10375,
          "velocity": 0.7244094488188977
        },
        {
          "duration": 0.9415574999999876,
          "durationTicks": 290,
          "midi": 45,
          "name": "A2",
          "ticks": 45125,
          "time": 146.50959375000002,
          "velocity": 0.7244094488188977
        },
        {
          "duration": 0.2922074999999893,
          "durationTicks": 90,
          "midi": 45,
          "name": "A2",
          "ticks": 45480,
          "time": 147.66219,
          "velocity": 0.6220472440944882
        },
        {
          "duration": 0.2824672499999963,
          "durationTicks": 87,
          "midi": 45,
          "name": "A2",
          "ticks": 45600,
          "time": 148.05180000000001,
          "velocity": 0.6220472440944882
        },
        {
          "duration": 0.2922075000000177,
          "durationTicks": 90,
          "midi": 45,
          "name": "A2",
          "ticks": 45720,
          "time": 148.44141,
          "velocity": 0.6141732283464567
        },
        {
          "duration": 0.2922075000000177,
          "durationTicks": 90,
          "midi": 45,
          "name": "A2",
          "ticks": 45840,
          "time": 148.83102,
          "velocity": 0.6141732283464567
        },
        {
          "duration": 0.2922075000000177,
          "durationTicks": 90,
          "midi": 45,
          "name": "A2",
          "ticks": 45960,
          "time": 149.22063,
          "velocity": 0.6141732283464567
        },
        {
          "duration": 0.9675315000000069,
          "durationTicks": 298,
          "midi": 38,
          "name": "D2",
          "ticks": 46082,
          "time": 149.6167335,
          "velocity": 0.7795275590551181
        },
        {
          "duration": 0.2824672499999963,
          "durationTicks": 87,
          "midi": 38,
          "name": "D2",
          "ticks": 46440,
          "time": 150.77907000000002,
          "velocity": 0.7795275590551181
        },
        {
          "duration": 1.5097387499999968,
          "durationTicks": 465,
          "midi": 38,
          "name": "D2",
          "ticks": 46560,
          "time": 151.16868,
          "velocity": 0.7795275590551181
        },
        {
          "duration": 1.0714274999999986,
          "durationTicks": 330,
          "midi": 37,
          "name": "C#2",
          "ticks": 47040,
          "time": 152.72712,
          "velocity": 0.7795275590551181
        },
        {
          "duration": 0.2987009999999941,
          "durationTicks": 92,
          "midi": 37,
          "name": "C#2",
          "ticks": 47400,
          "time": 153.89595,
          "velocity": 0.7795275590551181
        },
        {
          "duration": 1.4675310000000081,
          "durationTicks": 452,
          "midi": 37,
          "name": "C#2",
          "ticks": 47520,
          "time": 154.28556,
          "velocity": 0.7795275590551181
        },
        {
          "duration": 1.0551937500000008,
          "durationTicks": 325,
          "midi": 36,
          "name": "C2",
          "ticks": 48000,
          "time": 155.844,
          "velocity": 0.7716535433070866
        },
        {
          "duration": 0.24350624999999582,
          "durationTicks": 75,
          "midi": 36,
          "name": "C2",
          "ticks": 48360,
          "time": 157.01283,
          "velocity": 0.7716535433070866
        },
        {
          "duration": 1.4675309999999797,
          "durationTicks": 452,
          "midi": 36,
          "name": "C2",
          "ticks": 48480,
          "time": 157.40244,
          "velocity": 0.7716535433070866
        },
        {
          "duration": 1.0551937500000008,
          "durationTicks": 325,
          "midi": 35,
          "name": "B1",
          "ticks": 48960,
          "time": 158.96088,
          "velocity": 0.7716535433070866
        },
        {
          "duration": 0.27597374999999147,
          "durationTicks": 85,
          "midi": 35,
          "name": "B1",
          "ticks": 49320,
          "time": 160.12971000000002,
          "velocity": 0.7716535433070866
        },
        {
          "duration": 0.2922075000000177,
          "durationTicks": 90,
          "midi": 35,
          "name": "B1",
          "ticks": 49440,
          "time": 160.51932,
          "velocity": 0.7716535433070866
        },
        {
          "duration": 0.3896100000000047,
          "durationTicks": 120,
          "midi": 35,
          "name": "B1",
          "ticks": 49560,
          "time": 160.90893,
          "velocity": 0.7716535433070866
        },
        {
          "duration": 0.36363600000001384,
          "durationTicks": 112,
          "midi": 37,
          "name": "C#2",
          "ticks": 49680,
          "time": 161.29854,
          "velocity": 0.7716535433070866
        },
        {
          "duration": 0.3409087500000112,
          "durationTicks": 105,
          "midi": 39,
          "name": "D#2",
          "ticks": 49800,
          "time": 161.68815,
          "velocity": 0.7716535433070866
        },
        {
          "duration": 1.077920999999975,
          "durationTicks": 332,
          "midi": 40,
          "name": "E2",
          "ticks": 49920,
          "time": 162.07776,
          "velocity": 0.7480314960629921
        },
        {
          "duration": 0.2987009999999941,
          "durationTicks": 92,
          "midi": 40,
          "name": "E2",
          "ticks": 50280,
          "time": 163.24659,
          "velocity": 0.7480314960629921
        },
        {
          "duration": 1.5422062499999925,
          "durationTicks": 475,
          "midi": 40,
          "name": "E2",
          "ticks": 50400,
          "time": 163.6362,
          "velocity": 0.7480314960629921
        },
        {
          "duration": 1.0454535000000078,
          "durationTicks": 322,
          "midi": 38,
          "name": "D2",
          "ticks": 50880,
          "time": 165.19464,
          "velocity": 0.7480314960629921
        },
        {
          "duration": 0.3311685000000182,
          "durationTicks": 102,
          "midi": 38,
          "name": "D2",
          "ticks": 51240,
          "time": 166.36347,
          "velocity": 0.7480314960629921
        },
        {
          "duration": 1.5422062499999925,
          "durationTicks": 475,
          "midi": 38,
          "name": "D2",
          "ticks": 51360,
          "time": 166.75308,
          "velocity": 0.7480314960629921
        },
        {
          "duration": 1.0227262500000052,
          "durationTicks": 315,
          "midi": 37,
          "name": "C#2",
          "ticks": 51842,
          "time": 168.3180135,
          "velocity": 0.7480314960629921
        },
        {
          "duration": 0.27597374999999147,
          "durationTicks": 85,
          "midi": 37,
          "name": "C#2",
          "ticks": 52200,
          "time": 169.48035000000002,
          "velocity": 0.7480314960629921
        },
        {
          "duration": 0.8279212500000028,
          "durationTicks": 255,
          "midi": 37,
          "name": "C#2",
          "ticks": 52320,
          "time": 169.86996,
          "velocity": 0.7480314960629921
        },
        {
          "duration": 0.7629862499999831,
          "durationTicks": 235,
          "midi": 33,
          "name": "A1",
          "ticks": 52560,
          "time": 170.64918,
          "velocity": 0.7480314960629921
        },
        {
          "duration": 1.097401500000018,
          "durationTicks": 338,
          "midi": 38,
          "name": "D2",
          "ticks": 52802,
          "time": 171.4348935,
          "velocity": 0.7480314960629921
        },
        {
          "duration": 0.27597374999999147,
          "durationTicks": 85,
          "midi": 38,
          "name": "D2",
          "ticks": 53160,
          "time": 172.59723,
          "velocity": 0.7480314960629921
        },
        {
          "duration": 0.5357137500000135,
          "durationTicks": 165,
          "midi": 38,
          "name": "D2",
          "ticks": 53280,
          "time": 172.98684,
          "velocity": 0.7401574803149606
        },
        {
          "duration": 0.21103875000000016,
          "durationTicks": 65,
          "midi": 38,
          "name": "D2",
          "ticks": 53460,
          "time": 173.571255,
          "velocity": 0.7401574803149606
        },
        {
          "duration": 0.30844125000001554,
          "durationTicks": 95,
          "midi": 33,
          "name": "A1",
          "ticks": 53520,
          "time": 173.76606,
          "velocity": 0.7401574803149606
        },
        {
          "duration": 0.3474022499999876,
          "durationTicks": 107,
          "midi": 33,
          "name": "A1",
          "ticks": 53640,
          "time": 174.15567000000001,
          "velocity": 0.7401574803149606
        },
        {
          "duration": 0.7727265000000045,
          "durationTicks": 238,
          "midi": 38,
          "name": "D2",
          "ticks": 53762,
          "time": 174.5517735,
          "velocity": 0.7165354330708661
        },
        {
          "duration": 0.3896100000000047,
          "durationTicks": 120,
          "midi": 38,
          "name": "D2",
          "ticks": 54000,
          "time": 175.3245,
          "velocity": 0.7165354330708661
        },
        {
          "duration": 0.24350624999999582,
          "durationTicks": 75,
          "midi": 38,
          "name": "D2",
          "ticks": 54120,
          "time": 175.71411,
          "velocity": 0.7165354330708661
        },
        {
          "duration": 1.444803749999977,
          "durationTicks": 445,
          "midi": 38,
          "name": "D2",
          "ticks": 54240,
          "time": 176.10372,
          "velocity": 0.7165354330708661
        },
        {
          "duration": 1.038960000000003,
          "durationTicks": 320,
          "midi": 38,
          "name": "D2",
          "ticks": 54722,
          "time": 177.6686535,
          "velocity": 0.7165354330708661
        },
        {
          "duration": 0.25973999999999364,
          "durationTicks": 80,
          "midi": 38,
          "name": "D2",
          "ticks": 55080,
          "time": 178.83099,
          "velocity": 0.7165354330708661
        },
        {
          "duration": 1.1525962499999878,
          "durationTicks": 355,
          "midi": 38,
          "name": "D2",
          "ticks": 55200,
          "time": 179.22060000000002,
          "velocity": 0.7165354330708661
        },
        {
          "duration": 0.19480500000000234,
          "durationTicks": 60,
          "midi": 38,
          "name": "D2",
          "ticks": 55560,
          "time": 180.38943,
          "velocity": 0.7165354330708661
        },
        {
          "duration": 1.1623365000000092,
          "durationTicks": 358,
          "midi": 43,
          "name": "G2",
          "ticks": 55682,
          "time": 180.78553349999999,
          "velocity": 0.7165354330708661
        },
        {
          "duration": 0.3896100000000047,
          "durationTicks": 120,
          "midi": 40,
          "name": "E2",
          "ticks": 56040,
          "time": 181.94787,
          "velocity": 0.7165354330708661
        },
        {
          "duration": 1.5584400000000187,
          "durationTicks": 480,
          "midi": 38,
          "name": "D2",
          "ticks": 56160,
          "time": 182.33748,
          "velocity": 0.7165354330708661
        },
        {
          "duration": 1.1623365000000092,
          "durationTicks": 358,
          "midi": 40,
          "name": "E2",
          "ticks": 56642,
          "time": 183.9024135,
          "velocity": 0.7165354330708661
        },
        {
          "duration": 0.3896100000000047,
          "durationTicks": 120,
          "midi": 40,
          "name": "E2",
          "ticks": 57000,
          "time": 185.06475,
          "velocity": 0.7165354330708661
        },
        {
          "duration": 0.681817499999994,
          "durationTicks": 210,
          "midi": 40,
          "name": "E2",
          "ticks": 57120,
          "time": 185.45436,
          "velocity": 0.7165354330708661
        },
        {
          "duration": 0.5844149999999786,
          "durationTicks": 180,
          "midi": 34,
          "name": "A#1",
          "ticks": 57360,
          "time": 186.23358000000002,
          "velocity": 0.7165354330708661
        },
        {
          "duration": 1.146102749999983,
          "durationTicks": 353,
          "midi": 33,
          "name": "A1",
          "ticks": 57602,
          "time": 187.0192935,
          "velocity": 0.7165354330708661
        },
        {
          "duration": 0.2922074999999893,
          "durationTicks": 90,
          "midi": 33,
          "name": "A1",
          "ticks": 57960,
          "time": 188.18163,
          "velocity": 0.7165354330708661
        },
        {
          "duration": 1.1688299999999856,
          "durationTicks": 360,
          "midi": 33,
          "name": "A1",
          "ticks": 58080,
          "time": 188.57124000000002,
          "velocity": 0.7165354330708661
        },
        {
          "duration": 0.3961035000000095,
          "durationTicks": 122,
          "midi": 45,
          "name": "A2",
          "ticks": 58440,
          "time": 189.74007,
          "velocity": 0.7165354330708661
        },
        {
          "duration": 1.1623364999999808,
          "durationTicks": 358,
          "midi": 45,
          "name": "A2",
          "ticks": 58562,
          "time": 190.1361735,
          "velocity": 0.7165354330708661
        },
        {
          "duration": 0.2987009999999941,
          "durationTicks": 92,
          "midi": 33,
          "name": "A1",
          "ticks": 58920,
          "time": 191.29851,
          "velocity": 0.7086614173228346
        },
        {
          "duration": 0.7792200000000093,
          "durationTicks": 240,
          "midi": 33,
          "name": "A1",
          "ticks": 59040,
          "time": 191.68812,
          "velocity": 0.7086614173228346
        },
        {
          "duration": 0.3896100000000047,
          "durationTicks": 120,
          "midi": 33,
          "name": "A1",
          "ticks": 59280,
          "time": 192.46734,
          "velocity": 0.7086614173228346
        },
        {
          "duration": 0.9902587500000095,
          "durationTicks": 305,
          "midi": 38,
          "name": "D2",
          "ticks": 59522,
          "time": 193.2530535,
          "velocity": 0.7086614173228346
        },
        {
          "duration": 0.31493474999999194,
          "durationTicks": 97,
          "midi": 38,
          "name": "D2",
          "ticks": 59880,
          "time": 194.41539,
          "velocity": 0.7086614173228346
        },
        {
          "duration": 1.3863622499999906,
          "durationTicks": 427,
          "midi": 38,
          "name": "D2",
          "ticks": 60000,
          "time": 194.805,
          "velocity": 0.7086614173228346
        },
        {
          "duration": 1.1623365000000092,
          "durationTicks": 358,
          "midi": 38,
          "name": "D2",
          "ticks": 60482,
          "time": 196.3699335,
          "velocity": 0.7086614173228346
        },
        {
          "duration": 0.3831165000000283,
          "durationTicks": 118,
          "midi": 33,
          "name": "A1",
          "ticks": 60842,
          "time": 197.5387635,
          "velocity": 0.7086614173228346
        },
        {
          "duration": 0.3733762499999784,
          "durationTicks": 115,
          "midi": 33,
          "name": "A1",
          "ticks": 60965,
          "time": 197.93811375,
          "velocity": 0.7086614173228346
        },
        {
          "duration": 0.3896100000000047,
          "durationTicks": 120,
          "midi": 33,
          "name": "A1",
          "ticks": 61080,
          "time": 198.31149,
          "velocity": 0.7086614173228346
        },
        {
          "duration": 0.38311649999999986,
          "durationTicks": 118,
          "midi": 33,
          "name": "A1",
          "ticks": 61202,
          "time": 198.7075935,
          "velocity": 0.7086614173228346
        },
        {
          "duration": 0.2337660000000028,
          "durationTicks": 72,
          "midi": 33,
          "name": "A1",
          "ticks": 61320,
          "time": 199.09071,
          "velocity": 0.7086614173228346
        },
        {
          "duration": 1.2499987500000032,
          "durationTicks": 385,
          "midi": 38,
          "name": "D2",
          "ticks": 61445,
          "time": 199.49655375,
          "velocity": 0.905511811023622
        },
        {
          "duration": 0.32467500000001337,
          "durationTicks": 100,
          "midi": 33,
          "name": "A1",
          "ticks": 61922,
          "time": 201.0452535,
          "velocity": 0.7874015748031497
        },
        {
          "duration": 0.584415000000007,
          "durationTicks": 180,
          "midi": 38,
          "name": "D2",
          "ticks": 62040,
          "time": 201.42837,
          "velocity": 0.7874015748031497
        },
        {
          "duration": 0.24350624999999582,
          "durationTicks": 75,
          "midi": 38,
          "name": "D2",
          "ticks": 62280,
          "time": 202.20759,
          "velocity": 0.7874015748031497
        },
        {
          "duration": 1.097401500000018,
          "durationTicks": 338,
          "midi": 38,
          "name": "D2",
          "ticks": 62402,
          "time": 202.6036935,
          "velocity": 0.7874015748031497
        },
        {
          "duration": 0.38311649999999986,
          "durationTicks": 118,
          "midi": 33,
          "name": "A1",
          "ticks": 62762,
          "time": 203.7725235,
          "velocity": 0.7952755905511811
        },
        {
          "duration": 0.3344152500000064,
          "durationTicks": 103,
          "midi": 33,
          "name": "A1",
          "ticks": 62882,
          "time": 204.1621335,
          "velocity": 0.7952755905511811
        },
        {
          "duration": 0.2824672499999963,
          "durationTicks": 87,
          "midi": 26,
          "name": "D1",
          "ticks": 63000,
          "time": 204.54525,
          "velocity": 0.7952755905511811
        },
        {
          "duration": 0.24350624999999582,
          "durationTicks": 75,
          "midi": 26,
          "name": "D1",
          "ticks": 63120,
          "time": 204.93486000000001,
          "velocity": 0.8031496062992126
        },
        {
          "duration": 0.2987009999999941,
          "durationTicks": 92,
          "midi": 26,
          "name": "D1",
          "ticks": 63240,
          "time": 205.32447000000002,
          "velocity": 0.8031496062992126
        },
        {
          "duration": 1.168830000000014,
          "durationTicks": 360,
          "midi": 31,
          "name": "G1",
          "ticks": 63360,
          "time": 205.71408,
          "velocity": 0.7795275590551181
        },
        {
          "duration": 0.3896100000000047,
          "durationTicks": 120,
          "midi": 26,
          "name": "D1",
          "ticks": 63720,
          "time": 206.88291,
          "velocity": 0.7795275590551181
        },
        {
          "duration": 0.2857140000000129,
          "durationTicks": 88,
          "midi": 26,
          "name": "D1",
          "ticks": 63842,
          "time": 207.2790135,
          "velocity": 0.7716535433070866
        },
        {
          "duration": 0.5844149999999786,
          "durationTicks": 180,
          "midi": 26,
          "name": "D1",
          "ticks": 63960,
          "time": 207.66213000000002,
          "velocity": 0.7716535433070866
        },
        {
          "duration": 0.3896100000000047,
          "durationTicks": 120,
          "midi": 43,
          "name": "G2",
          "ticks": 64200,
          "time": 208.44135,
          "velocity": 0.7716535433070866
        },
        {
          "duration": 1.0649339999999938,
          "durationTicks": 328,
          "midi": 43,
          "name": "G2",
          "ticks": 64322,
          "time": 208.8374535,
          "velocity": 0.7716535433070866
        },
        {
          "duration": 0.37986974999998324,
          "durationTicks": 117,
          "midi": 43,
          "name": "G2",
          "ticks": 64680,
          "time": 209.99979000000002,
          "velocity": 0.7637795275590551
        },
        {
          "duration": 0.25973999999999364,
          "durationTicks": 80,
          "midi": 43,
          "name": "G2",
          "ticks": 64800,
          "time": 210.3894,
          "velocity": 0.7637795275590551
        },
        {
          "duration": 0.24999975000000063,
          "durationTicks": 77,
          "midi": 43,
          "name": "G2",
          "ticks": 64920,
          "time": 210.77901,
          "velocity": 0.7637795275590551
        },
        {
          "duration": 0.25324649999998883,
          "durationTicks": 78,
          "midi": 42,
          "name": "F#2",
          "ticks": 65042,
          "time": 211.1751135,
          "velocity": 0.7637795275590551
        },
        {
          "duration": 0.24350624999999582,
          "durationTicks": 75,
          "midi": 42,
          "name": "F#2",
          "ticks": 65162,
          "time": 211.5647235,
          "velocity": 0.7559055118110236
        },
        {
          "duration": 1.0714274999999986,
          "durationTicks": 330,
          "midi": 40,
          "name": "E2",
          "ticks": 65285,
          "time": 211.96407374999998,
          "velocity": 0.7637795275590551
        },
        {
          "duration": 0.2759737500000199,
          "durationTicks": 85,
          "midi": 40,
          "name": "E2",
          "ticks": 65645,
          "time": 213.13290375,
          "velocity": 0.7480314960629921
        },
        {
          "duration": 0.3571424999999806,
          "durationTicks": 110,
          "midi": 40,
          "name": "E2",
          "ticks": 65762,
          "time": 213.5127735,
          "velocity": 0.7480314960629921
        },
        {
          "duration": 0.3636359999999854,
          "durationTicks": 112,
          "midi": 42,
          "name": "F#2",
          "ticks": 65880,
          "time": 213.89589,
          "velocity": 0.7480314960629921
        },
        {
          "duration": 0.38311649999999986,
          "durationTicks": 118,
          "midi": 43,
          "name": "G2",
          "ticks": 65997,
          "time": 214.27575975000002,
          "velocity": 0.7401574803149606
        },
        {
          "duration": 0.3506489999999758,
          "durationTicks": 108,
          "midi": 40,
          "name": "E2",
          "ticks": 66117,
          "time": 214.66536975000002,
          "velocity": 0.7401574803149606
        },
        {
          "duration": 1.2499987500000032,
          "durationTicks": 385,
          "midi": 45,
          "name": "A2",
          "ticks": 66242,
          "time": 215.0712135,
          "velocity": 0.7795275590551181
        },
        {
          "duration": 0.09740249999998696,
          "durationTicks": 30,
          "midi": 45,
          "name": "A2",
          "ticks": 66660,
          "time": 216.428355,
          "velocity": 0.7795275590551181
        },
        {
          "duration": 0.2597399999999652,
          "durationTicks": 80,
          "midi": 43,
          "name": "G2",
          "ticks": 66720,
          "time": 216.62316,
          "velocity": 0.7795275590551181
        },
        {
          "duration": 0.6883109999999704,
          "durationTicks": 212,
          "midi": 43,
          "name": "G2",
          "ticks": 66840,
          "time": 217.01277000000002,
          "velocity": 0.7795275590551181
        },
        {
          "duration": 0.3311685000000182,
          "durationTicks": 102,
          "midi": 43,
          "name": "G2",
          "ticks": 67080,
          "time": 217.79199,
          "velocity": 0.7716535433070866
        },
        {
          "duration": 1.4383102500000007,
          "durationTicks": 443,
          "midi": 42,
          "name": "F#2",
          "ticks": 67202,
          "time": 218.1880935,
          "velocity": 0.7952755905511811
        },
        {
          "duration": 0.14610375000000886,
          "durationTicks": 45,
          "midi": 42,
          "name": "F#2",
          "ticks": 67682,
          "time": 219.7465335,
          "velocity": 0.7874015748031497
        },
        {
          "duration": 0.6493499999999983,
          "durationTicks": 200,
          "midi": 42,
          "name": "F#2",
          "ticks": 67800,
          "time": 220.12965,
          "velocity": 0.7874015748031497
        },
        {
          "duration": 0.2987009999999941,
          "durationTicks": 92,
          "midi": 42,
          "name": "F#2",
          "ticks": 68040,
          "time": 220.90887,
          "velocity": 0.7874015748031497
        },
        {
          "duration": 1.0876612499999965,
          "durationTicks": 335,
          "midi": 35,
          "name": "B1",
          "ticks": 68162,
          "time": 221.3049735,
          "velocity": 0.7795275590551181
        },
        {
          "duration": 0.21103874999997174,
          "durationTicks": 65,
          "midi": 35,
          "name": "B1",
          "ticks": 68522,
          "time": 222.4738035,
          "velocity": 0.7795275590551181
        },
        {
          "duration": 0.20454524999999535,
          "durationTicks": 63,
          "midi": 35,
          "name": "B1",
          "ticks": 68642,
          "time": 222.8634135,
          "velocity": 0.7795275590551181
        },
        {
          "duration": 1.168830000000014,
          "durationTicks": 360,
          "midi": 35,
          "name": "B1",
          "ticks": 68760,
          "time": 223.24653,
          "velocity": 0.7716535433070866
        },
        {
          "duration": 0.2922074999999893,
          "durationTicks": 90,
          "midi": 40,
          "name": "E2",
          "ticks": 69127,
          "time": 224.43808725,
          "velocity": 0.7401574803149606
        },
        {
          "duration": 0.2759737500000199,
          "durationTicks": 85,
          "midi": 40,
          "name": "E2",
          "ticks": 69242,
          "time": 224.8114635,
          "velocity": 0.7322834645669292
        },
        {
          "duration": 0.2759737500000199,
          "durationTicks": 85,
          "midi": 40,
          "name": "E2",
          "ticks": 69360,
          "time": 225.19458,
          "velocity": 0.7322834645669292
        },
        {
          "duration": 0.32467499999998495,
          "durationTicks": 100,
          "midi": 40,
          "name": "E2",
          "ticks": 69477,
          "time": 225.57444975,
          "velocity": 0.7322834645669292
        },
        {
          "duration": 0.3084412499999871,
          "durationTicks": 95,
          "midi": 40,
          "name": "E2",
          "ticks": 69600,
          "time": 225.9738,
          "velocity": 0.7244094488188977
        },
        {
          "duration": 0.25324649999998883,
          "durationTicks": 78,
          "midi": 40,
          "name": "E2",
          "ticks": 69722,
          "time": 226.3699035,
          "velocity": 0.7244094488188977
        },
        {
          "duration": 0.32467500000001337,
          "durationTicks": 100,
          "midi": 42,
          "name": "F#2",
          "ticks": 69842,
          "time": 226.7595135,
          "velocity": 0.7244094488188977
        },
        {
          "duration": 0.27597374999999147,
          "durationTicks": 85,
          "midi": 43,
          "name": "G2",
          "ticks": 69967,
          "time": 227.16535725,
          "velocity": 0.7165354330708661
        },
        {
          "duration": 1.5519465000000139,
          "durationTicks": 478,
          "midi": 33,
          "name": "A1",
          "ticks": 70082,
          "time": 227.5387335,
          "velocity": 0.8267716535433071
        },
        {
          "duration": 1.5584399999999903,
          "durationTicks": 480,
          "midi": 33,
          "name": "A1",
          "ticks": 70560,
          "time": 229.09068000000002,
          "velocity": 0.8267716535433071
        },
        {
          "duration": 3.1103865000000326,
          "durationTicks": 958,
          "midi": 40,
          "name": "E2",
          "ticks": 71042,
          "time": 230.6556135,
          "velocity": 0.8267716535433071
        },
        {
          "duration": 2.6136337500000195,
          "durationTicks": 805,
          "midi": 38,
          "name": "D2",
          "ticks": 72005,
          "time": 233.78223375,
          "velocity": 0.7795275590551181
        }
      ],
      "endOfTrackTicks": 84020
    },
    {
      "channel": 2,
      "controlChanges": {
        "7": [
          {
            "number": 7,
            "ticks": 272,
            "time": 0.883116,
            "value": 0.7165354330708661
          }
        ],
        "11": [
          {
            "number": 11,
            "ticks": 272,
            "time": 0.883116,
            "value": 1
          },
          {
            "number": 11,
            "ticks": 34085,
            "time": 110.66547375,
            "value": 0.6377952755905512
          },
          {
            "number": 11,
            "ticks": 34110,
            "time": 110.74664250000001,
            "value": 0.7244094488188977
          },
          {
            "number": 11,
            "ticks": 34140,
            "time": 110.84404500000001,
            "value": 0.8110236220472441
          },
          {
            "number": 11,
            "ticks": 34170,
            "time": 110.94144750000001,
            "value": 0.984251968503937
          },
          {
            "number": 11,
            "ticks": 60960,
            "time": 197.92188000000002,
            "value": 0.7716535433070866
          },
          {
            "number": 11,
            "ticks": 60980,
            "time": 197.986815,
            "value": 0.8031496062992126
          },
          {
            "number": 11,
            "ticks": 61000,
            "time": 198.05175,
            "value": 0.8346456692913385
          },
          {
            "number": 11,
            "ticks": 61020,
            "time": 198.11668500000002,
            "value": 0.8661417322834646
          },
          {
            "number": 11,
            "ticks": 61040,
            "time": 198.18162,
            "value": 0.8976377952755905
          },
          {
            "number": 11,
            "ticks": 61060,
            "time": 198.246555,
            "value": 1
          }
        ],
        "91": [
          {
            "number": 91,
            "ticks": 275,
            "time": 0.89285625,
            "value": 0.5118110236220472
          }
        ],
        "93": [
          {
            "number": 93,
            "ticks": 275,
            "time": 0.89285625,
            "value": 0
          }
        ]
      },
      "pitchBends": [],
      "instrument": {
        "family": "brass",
        "number": 61,
        "name": "brass section"
      },
      "name": "",
      "notes": [
        {
          "duration": 0.09740250000000117,
          "durationTicks": 30,
          "midi": 62,
          "name": "D4",
          "ticks": 33960,
          "time": 110.25963,
          "velocity": 0.7401574803149606
        },
        {
          "duration": 0.09740250000000117,
          "durationTicks": 30,
          "midi": 57,
          "name": "A3",
          "ticks": 33960,
          "time": 110.25963,
          "velocity": 0.6929133858267716
        },
        {
          "duration": 1.5584400000000045,
          "durationTicks": 480,
          "midi": 69,
          "name": "A4",
          "ticks": 34080,
          "time": 110.64924,
          "velocity": 0.7480314960629921
        },
        {
          "duration": 1.5584400000000045,
          "durationTicks": 480,
          "midi": 57,
          "name": "A3",
          "ticks": 34082,
          "time": 110.6557335,
          "velocity": 0.8031496062992126
        },
        {
          "duration": 1.5584400000000045,
          "durationTicks": 480,
          "midi": 62,
          "name": "D4",
          "ticks": 34082,
          "time": 110.6557335,
          "velocity": 0.7401574803149606
        },
        {
          "duration": 1.5584400000000045,
          "durationTicks": 480,
          "midi": 67,
          "name": "G4",
          "ticks": 34082,
          "time": 110.6557335,
          "velocity": 0.7401574803149606
        },
        {
          "duration": 6.185058749999996,
          "durationTicks": 1905,
          "midi": 45,
          "name": "A2",
          "ticks": 34562,
          "time": 112.2141735,
          "velocity": 0.6771653543307087
        },
        {
          "duration": 6.217526249999992,
          "durationTicks": 1915,
          "midi": 66,
          "name": "F#4",
          "ticks": 34565,
          "time": 112.22391375000001,
          "velocity": 0.6771653543307087
        },
        {
          "duration": 1.1688299999999998,
          "durationTicks": 360,
          "midi": 69,
          "name": "A4",
          "ticks": 36480,
          "time": 118.44144,
          "velocity": 0.5590551181102362
        },
        {
          "duration": 4.253242500000013,
          "durationTicks": 1310,
          "midi": 43,
          "name": "G2",
          "ticks": 36482,
          "time": 118.44793349999999,
          "velocity": 0.7086614173228346
        },
        {
          "duration": 0.3896100000000047,
          "durationTicks": 120,
          "midi": 67,
          "name": "G4",
          "ticks": 36840,
          "time": 119.61027,
          "velocity": 0.4881889763779528
        },
        {
          "duration": 0.7792199999999951,
          "durationTicks": 240,
          "midi": 67,
          "name": "G4",
          "ticks": 36960,
          "time": 119.99988,
          "velocity": 0.5118110236220472
        },
        {
          "duration": 1.9480500000000092,
          "durationTicks": 600,
          "midi": 66,
          "name": "F#4",
          "ticks": 37200,
          "time": 120.7791,
          "velocity": 0.5590551181102362
        },
        {
          "duration": 0.38960999999999046,
          "durationTicks": 120,
          "midi": 64,
          "name": "E4",
          "ticks": 37800,
          "time": 122.72715000000001,
          "velocity": 0.5275590551181102
        },
        {
          "duration": 0.38960999999999046,
          "durationTicks": 120,
          "midi": 54,
          "name": "F#3",
          "ticks": 37800,
          "time": 122.72715000000001,
          "velocity": 0.6299212598425197
        },
        {
          "duration": 1.5584400000000045,
          "durationTicks": 480,
          "midi": 64,
          "name": "E4",
          "ticks": 37920,
          "time": 123.11676,
          "velocity": 0.6299212598425197
        },
        {
          "duration": 0.7889602500000024,
          "durationTicks": 243,
          "midi": 55,
          "name": "G3",
          "ticks": 37922,
          "time": 123.1232535,
          "velocity": 0.7716535433070866
        },
        {
          "duration": 4.668826499999994,
          "durationTicks": 1438,
          "midi": 71,
          "name": "B4",
          "ticks": 37922,
          "time": 123.1232535,
          "velocity": 0.5826771653543307
        },
        {
          "duration": 0.7857134999999857,
          "durationTicks": 242,
          "midi": 54,
          "name": "F#3",
          "ticks": 38160,
          "time": 123.89598000000001,
          "velocity": 0.6299212598425197
        },
        {
          "duration": 2.314932749999997,
          "durationTicks": 713,
          "midi": 62,
          "name": "D4",
          "ticks": 38402,
          "time": 124.6816935,
          "velocity": 0.5669291338582677
        },
        {
          "duration": 3.1168799999999948,
          "durationTicks": 960,
          "midi": 55,
          "name": "G3",
          "ticks": 38407,
          "time": 124.69792725,
          "velocity": 0.6141732283464567
        },
        {
          "duration": 0.6883109999999988,
          "durationTicks": 212,
          "midi": 62,
          "name": "D4",
          "ticks": 39120,
          "time": 127.01286,
          "velocity": 0.7165354330708661
        },
        {
          "duration": 6.2337599999999895,
          "durationTicks": 1920,
          "midi": 69,
          "name": "A4",
          "ticks": 39362,
          "time": 127.7985735,
          "velocity": 0.5354330708661418
        },
        {
          "duration": 3.1168799999999806,
          "durationTicks": 960,
          "midi": 61,
          "name": "C#4",
          "ticks": 39362,
          "time": 127.7985735,
          "velocity": 0.6614173228346457
        },
        {
          "duration": 2.314932749999997,
          "durationTicks": 713,
          "midi": 57,
          "name": "A3",
          "ticks": 39367,
          "time": 127.81480725,
          "velocity": 0.7559055118110236
        },
        {
          "duration": 0.7857134999999857,
          "durationTicks": 242,
          "midi": 55,
          "name": "G3",
          "ticks": 40080,
          "time": 130.12974,
          "velocity": 0.7559055118110236
        },
        {
          "duration": 3.116880000000009,
          "durationTicks": 960,
          "midi": 54,
          "name": "F#3",
          "ticks": 40322,
          "time": 130.91545349999998,
          "velocity": 0.7559055118110236
        },
        {
          "duration": 3.1331137500000352,
          "durationTicks": 965,
          "midi": 61,
          "name": "C#4",
          "ticks": 40322,
          "time": 130.91545349999998,
          "velocity": 0.6535433070866141
        },
        {
          "duration": 2.97077625,
          "durationTicks": 915,
          "midi": 66,
          "name": "F#4",
          "ticks": 41282,
          "time": 134.0323335,
          "velocity": 0.6299212598425197
        },
        {
          "duration": 2.9220750000000066,
          "durationTicks": 900,
          "midi": 59,
          "name": "B3",
          "ticks": 41282,
          "time": 134.0323335,
          "velocity": 0.6299212598425197
        },
        {
          "duration": 2.97077625,
          "durationTicks": 915,
          "midi": 62,
          "name": "D4",
          "ticks": 41285,
          "time": 134.04207375000001,
          "velocity": 0.5669291338582677
        },
        {
          "duration": 3.126620250000002,
          "durationTicks": 963,
          "midi": 62,
          "name": "D4",
          "ticks": 42232,
          "time": 137.116746,
          "velocity": 0.6771653543307087
        },
        {
          "duration": 3.116880000000009,
          "durationTicks": 960,
          "midi": 67,
          "name": "G4",
          "ticks": 42232,
          "time": 137.116746,
          "velocity": 0.6299212598425197
        },
        {
          "duration": 3.107139750000016,
          "durationTicks": 957,
          "midi": 71,
          "name": "B4",
          "ticks": 42235,
          "time": 137.12648625,
          "velocity": 0.7165354330708661
        },
        {
          "duration": 3.116880000000009,
          "durationTicks": 960,
          "midi": 74,
          "name": "D5",
          "ticks": 42250,
          "time": 137.1751875,
          "velocity": 0.5748031496062992
        },
        {
          "duration": 3.0909059999999897,
          "durationTicks": 952,
          "midi": 64,
          "name": "E4",
          "ticks": 43200,
          "time": 140.2596,
          "velocity": 0.6299212598425197
        },
        {
          "duration": 3.1168799999999806,
          "durationTicks": 960,
          "midi": 69,
          "name": "A4",
          "ticks": 43202,
          "time": 140.2660935,
          "velocity": 0.6614173228346457
        },
        {
          "duration": 3.1168799999999806,
          "durationTicks": 960,
          "midi": 73,
          "name": "C#5",
          "ticks": 43202,
          "time": 140.2660935,
          "velocity": 0.47244094488188976
        },
        {
          "duration": 3.133113750000007,
          "durationTicks": 965,
          "midi": 61,
          "name": "C#4",
          "ticks": 43207,
          "time": 140.28232725,
          "velocity": 0.6299212598425197
        },
        {
          "duration": 3.0941527500000063,
          "durationTicks": 953,
          "midi": 64,
          "name": "E4",
          "ticks": 44162,
          "time": 143.3829735,
          "velocity": 0.6299212598425197
        },
        {
          "duration": 3.1071397499999875,
          "durationTicks": 957,
          "midi": 67,
          "name": "G4",
          "ticks": 44165,
          "time": 143.39271375,
          "velocity": 0.5984251968503937
        },
        {
          "duration": 3.1071397499999875,
          "durationTicks": 957,
          "midi": 71,
          "name": "B4",
          "ticks": 44165,
          "time": 143.39271375,
          "velocity": 0.5748031496062992
        },
        {
          "duration": 3.1103864999999757,
          "durationTicks": 958,
          "midi": 59,
          "name": "B3",
          "ticks": 44172,
          "time": 143.41544100000002,
          "velocity": 0.6299212598425197
        },
        {
          "duration": 1.6168815000000052,
          "durationTicks": 498,
          "midi": 62,
          "name": "D4",
          "ticks": 45122,
          "time": 146.4998535,
          "velocity": 0.6299212598425197
        },
        {
          "duration": 1.5519465000000139,
          "durationTicks": 478,
          "midi": 66,
          "name": "F#4",
          "ticks": 45122,
          "time": 146.4998535,
          "velocity": 0.5511811023622047
        },
        {
          "duration": 1.5422062499999925,
          "durationTicks": 475,
          "midi": 69,
          "name": "A4",
          "ticks": 45125,
          "time": 146.50959375000002,
          "velocity": 0.5039370078740157
        },
        {
          "duration": 1.5324659999999994,
          "durationTicks": 472,
          "midi": 57,
          "name": "A3",
          "ticks": 45125,
          "time": 146.50959375000002,
          "velocity": 0.5511811023622047
        },
        {
          "duration": 0.03896100000002889,
          "durationTicks": 12,
          "midi": 81,
          "name": "A5",
          "ticks": 60480,
          "time": 196.36344,
          "velocity": 0.3228346456692913
        },
        {
          "duration": 0.09740249999998696,
          "durationTicks": 30,
          "midi": 62,
          "name": "D4",
          "ticks": 60840,
          "time": 197.53227,
          "velocity": 0.84251968503937
        },
        {
          "duration": 0.09740249999998696,
          "durationTicks": 30,
          "midi": 57,
          "name": "A3",
          "ticks": 60840,
          "time": 197.53227,
          "velocity": 0.7952755905511811
        },
        {
          "duration": 1.5584400000000187,
          "durationTicks": 480,
          "midi": 57,
          "name": "A3",
          "ticks": 60962,
          "time": 197.9283735,
          "velocity": 0.905511811023622
        },
        {
          "duration": 1.5584400000000187,
          "durationTicks": 480,
          "midi": 62,
          "name": "D4",
          "ticks": 60962,
          "time": 197.9283735,
          "velocity": 0.84251968503937
        },
        {
          "duration": 1.5584400000000187,
          "durationTicks": 480,
          "midi": 67,
          "name": "G4",
          "ticks": 60962,
          "time": 197.9283735,
          "velocity": 0.84251968503937
        },
        {
          "duration": 0.7467524999999853,
          "durationTicks": 230,
          "midi": 69,
          "name": "A4",
          "ticks": 60967,
          "time": 197.94460725000002,
          "velocity": 0.905511811023622
        },
        {
          "duration": 0.7792200000000093,
          "durationTicks": 240,
          "midi": 69,
          "name": "A4",
          "ticks": 61202,
          "time": 198.7075935,
          "velocity": 0.8976377952755905
        },
        {
          "duration": 1.0454535000000078,
          "durationTicks": 322,
          "midi": 69,
          "name": "A4",
          "ticks": 61445,
          "time": 199.49655375,
          "velocity": 0.7007874015748031
        },
        {
          "duration": 1.0454535000000078,
          "durationTicks": 322,
          "midi": 66,
          "name": "F#4",
          "ticks": 61445,
          "time": 199.49655375,
          "velocity": 0.7007874015748031
        },
        {
          "duration": 1.0454535000000078,
          "durationTicks": 322,
          "midi": 62,
          "name": "D4",
          "ticks": 61445,
          "time": 199.49655375,
          "velocity": 0.7007874015748031
        },
        {
          "duration": 0.14610374999998044,
          "durationTicks": 45,
          "midi": 66,
          "name": "F#4",
          "ticks": 61800,
          "time": 200.64915000000002,
          "velocity": 0.7007874015748031
        },
        {
          "duration": 0.10389599999999177,
          "durationTicks": 32,
          "midi": 62,
          "name": "D4",
          "ticks": 61800,
          "time": 200.64915000000002,
          "velocity": 0.7007874015748031
        },
        {
          "duration": 1.3636350000000164,
          "durationTicks": 420,
          "midi": 61,
          "name": "C#4",
          "ticks": 61920,
          "time": 201.03876,
          "velocity": 0.7007874015748031
        },
        {
          "duration": 1.3636350000000164,
          "durationTicks": 420,
          "midi": 66,
          "name": "F#4",
          "ticks": 61920,
          "time": 201.03876,
          "velocity": 0.7007874015748031
        },
        {
          "duration": 1.077920999999975,
          "durationTicks": 332,
          "midi": 60,
          "name": "C4",
          "ticks": 62400,
          "time": 202.59720000000002,
          "velocity": 0.7007874015748031
        },
        {
          "duration": 1.0876612499999965,
          "durationTicks": 335,
          "midi": 64,
          "name": "E4",
          "ticks": 62402,
          "time": 202.6036935,
          "velocity": 0.7007874015748031
        },
        {
          "duration": 0.14610375000000886,
          "durationTicks": 45,
          "midi": 60,
          "name": "C4",
          "ticks": 62760,
          "time": 203.76603,
          "velocity": 0.7007874015748031
        },
        {
          "duration": 0.14610375000000886,
          "durationTicks": 45,
          "midi": 64,
          "name": "E4",
          "ticks": 62760,
          "time": 203.76603,
          "velocity": 0.7007874015748031
        },
        {
          "duration": 1.168830000000014,
          "durationTicks": 360,
          "midi": 60,
          "name": "C4",
          "ticks": 62880,
          "time": 204.15564,
          "velocity": 0.7007874015748031
        },
        {
          "duration": 1.1785702499999786,
          "durationTicks": 363,
          "midi": 63,
          "name": "D#4",
          "ticks": 62882,
          "time": 204.1621335,
          "velocity": 0.7007874015748031
        },
        {
          "duration": 0.9902587500000379,
          "durationTicks": 305,
          "midi": 69,
          "name": "A4",
          "ticks": 63365,
          "time": 205.73031375,
          "velocity": 0.7007874015748031
        },
        {
          "duration": 1.0454534999999794,
          "durationTicks": 322,
          "midi": 66,
          "name": "F#4",
          "ticks": 63370,
          "time": 205.74654750000002,
          "velocity": 0.7007874015748031
        },
        {
          "duration": 0.14610375000000886,
          "durationTicks": 45,
          "midi": 67,
          "name": "G4",
          "ticks": 63720,
          "time": 206.88291,
          "velocity": 0.7007874015748031
        },
        {
          "duration": 0.12987000000001103,
          "durationTicks": 40,
          "midi": 71,
          "name": "B4",
          "ticks": 63722,
          "time": 206.88940350000001,
          "velocity": 0.7007874015748031
        },
        {
          "duration": 1.4512972500000103,
          "durationTicks": 447,
          "midi": 67,
          "name": "G4",
          "ticks": 63840,
          "time": 207.27252000000001,
          "velocity": 0.7007874015748031
        },
        {
          "duration": 1.4188297499999862,
          "durationTicks": 437,
          "midi": 71,
          "name": "B4",
          "ticks": 63840,
          "time": 207.27252000000001,
          "velocity": 0.7007874015748031
        },
        {
          "duration": 1.0292197499999816,
          "durationTicks": 317,
          "midi": 69,
          "name": "A4",
          "ticks": 64325,
          "time": 208.84719375,
          "velocity": 0.7007874015748031
        },
        {
          "duration": 1.0292197499999816,
          "durationTicks": 317,
          "midi": 66,
          "name": "F#4",
          "ticks": 64325,
          "time": 208.84719375,
          "velocity": 0.7007874015748031
        },
        {
          "duration": 0.04870124999999348,
          "durationTicks": 15,
          "midi": 71,
          "name": "B4",
          "ticks": 64677,
          "time": 209.99004975000003,
          "velocity": 0.7007874015748031
        },
        {
          "duration": 0.04870124999999348,
          "durationTicks": 15,
          "midi": 67,
          "name": "G4",
          "ticks": 64677,
          "time": 209.99004975000003,
          "velocity": 0.7007874015748031
        },
        {
          "duration": 0.0649349999999913,
          "durationTicks": 20,
          "midi": 67,
          "name": "G4",
          "ticks": 64710,
          "time": 210.0971925,
          "velocity": 0.7007874015748031
        },
        {
          "duration": 0.04870124999999348,
          "durationTicks": 15,
          "midi": 71,
          "name": "B4",
          "ticks": 64712,
          "time": 210.103686,
          "velocity": 0.7007874015748031
        },
        {
          "duration": 0.055194749999998294,
          "durationTicks": 17,
          "midi": 67,
          "name": "G4",
          "ticks": 64750,
          "time": 210.22706250000002,
          "velocity": 0.7007874015748031
        },
        {
          "duration": 0.04870124999999348,
          "durationTicks": 15,
          "midi": 71,
          "name": "B4",
          "ticks": 64752,
          "time": 210.23355600000002,
          "velocity": 0.7007874015748031
        },
        {
          "duration": 0.7792200000000093,
          "durationTicks": 240,
          "midi": 67,
          "name": "G4",
          "ticks": 64800,
          "time": 210.3894,
          "velocity": 0.7007874015748031
        },
        {
          "duration": 0.7727265000000045,
          "durationTicks": 238,
          "midi": 71,
          "name": "B4",
          "ticks": 64802,
          "time": 210.3958935,
          "velocity": 0.7007874015748031
        },
        {
          "duration": 0.32467500000001337,
          "durationTicks": 100,
          "midi": 57,
          "name": "A3",
          "ticks": 65040,
          "time": 211.16862,
          "velocity": 0.7007874015748031
        },
        {
          "duration": 0.2597399999999652,
          "durationTicks": 80,
          "midi": 66,
          "name": "F#4",
          "ticks": 65042,
          "time": 211.1751135,
          "velocity": 0.7007874015748031
        },
        {
          "duration": 0.3019477499999823,
          "durationTicks": 93,
          "midi": 69,
          "name": "A4",
          "ticks": 65042,
          "time": 211.1751135,
          "velocity": 0.7007874015748031
        },
        {
          "duration": 0.19480500000000234,
          "durationTicks": 60,
          "midi": 59,
          "name": "B3",
          "ticks": 65160,
          "time": 211.55823,
          "velocity": 0.7007874015748031
        },
        {
          "duration": 0.20129849999997873,
          "durationTicks": 62,
          "midi": 67,
          "name": "G4",
          "ticks": 65160,
          "time": 211.55823,
          "velocity": 0.7007874015748031
        },
        {
          "duration": 0.18831149999999752,
          "durationTicks": 58,
          "midi": 71,
          "name": "B4",
          "ticks": 65162,
          "time": 211.5647235,
          "velocity": 0.7007874015748031
        },
        {
          "duration": 0.9577912500000139,
          "durationTicks": 295,
          "midi": 74,
          "name": "D5",
          "ticks": 65295,
          "time": 211.99654125,
          "velocity": 0.7007874015748031
        },
        {
          "duration": 0.9577912500000139,
          "durationTicks": 295,
          "midi": 71,
          "name": "B4",
          "ticks": 65297,
          "time": 212.00303475,
          "velocity": 0.7007874015748031
        },
        {
          "duration": 0.03896100000002889,
          "durationTicks": 12,
          "midi": 74,
          "name": "D5",
          "ticks": 65640,
          "time": 213.11667,
          "velocity": 0.7007874015748031
        },
        {
          "duration": 0.042207749999988664,
          "durationTicks": 13,
          "midi": 71,
          "name": "B4",
          "ticks": 65642,
          "time": 213.1231635,
          "velocity": 0.7007874015748031
        },
        {
          "duration": 0.03896100000002889,
          "durationTicks": 12,
          "midi": 74,
          "name": "D5",
          "ticks": 65675,
          "time": 213.23030624999998,
          "velocity": 0.7007874015748031
        },
        {
          "duration": 0.042207750000017086,
          "durationTicks": 13,
          "midi": 71,
          "name": "B4",
          "ticks": 65677,
          "time": 213.23679975,
          "velocity": 0.7007874015748031
        },
        {
          "duration": 0.04870124999999348,
          "durationTicks": 15,
          "midi": 74,
          "name": "D5",
          "ticks": 65710,
          "time": 213.34394250000003,
          "velocity": 0.7007874015748031
        },
        {
          "duration": 0.0487012500000219,
          "durationTicks": 15,
          "midi": 71,
          "name": "B4",
          "ticks": 65712,
          "time": 213.350436,
          "velocity": 0.7007874015748031
        },
        {
          "duration": 0.6753240000000176,
          "durationTicks": 208,
          "midi": 74,
          "name": "D5",
          "ticks": 65747,
          "time": 213.46407225,
          "velocity": 0.7007874015748031
        },
        {
          "duration": 0.6818175000000224,
          "durationTicks": 210,
          "midi": 55,
          "name": "G3",
          "ticks": 65747,
          "time": 213.46407225,
          "velocity": 0.7007874015748031
        },
        {
          "duration": 0.6720772500000294,
          "durationTicks": 207,
          "midi": 71,
          "name": "B4",
          "ticks": 65750,
          "time": 213.47381249999998,
          "velocity": 0.7007874015748031
        },
        {
          "duration": 0.7240252500000111,
          "durationTicks": 223,
          "midi": 74,
          "name": "D5",
          "ticks": 65987,
          "time": 214.24329225,
          "velocity": 0.7007874015748031
        },
        {
          "duration": 0.7207785000000229,
          "durationTicks": 222,
          "midi": 71,
          "name": "B4",
          "ticks": 65990,
          "time": 214.2530325,
          "velocity": 0.7007874015748031
        },
        {
          "duration": 1.0811677499999632,
          "durationTicks": 333,
          "midi": 73,
          "name": "C#5",
          "ticks": 66237,
          "time": 215.05497975000003,
          "velocity": 0.7007874015748031
        },
        {
          "duration": 1.061687250000034,
          "durationTicks": 327,
          "midi": 69,
          "name": "A4",
          "ticks": 66240,
          "time": 215.06472,
          "velocity": 0.7007874015748031
        },
        {
          "duration": 0.0649349999999913,
          "durationTicks": 20,
          "midi": 73,
          "name": "C#5",
          "ticks": 66600,
          "time": 216.23355,
          "velocity": 0.7007874015748031
        },
        {
          "duration": 0.042207749999988664,
          "durationTicks": 13,
          "midi": 69,
          "name": "A4",
          "ticks": 66602,
          "time": 216.2400435,
          "velocity": 0.7007874015748031
        },
        {
          "duration": 0.055194749999998294,
          "durationTicks": 17,
          "midi": 69,
          "name": "A4",
          "ticks": 66640,
          "time": 216.36342000000002,
          "velocity": 0.7007874015748031
        },
        {
          "duration": 0.0649349999999913,
          "durationTicks": 20,
          "midi": 73,
          "name": "C#5",
          "ticks": 66640,
          "time": 216.36342000000002,
          "velocity": 0.7007874015748031
        },
        {
          "duration": 0.04870124999999348,
          "durationTicks": 15,
          "midi": 69,
          "name": "A4",
          "ticks": 66675,
          "time": 216.47705625,
          "velocity": 0.7007874015748031
        },
        {
          "duration": 0.04870124999999348,
          "durationTicks": 15,
          "midi": 73,
          "name": "C#5",
          "ticks": 66677,
          "time": 216.48354975,
          "velocity": 0.7007874015748031
        },
        {
          "duration": 0.7467525000000421,
          "durationTicks": 230,
          "midi": 73,
          "name": "C#5",
          "ticks": 66710,
          "time": 216.5906925,
          "velocity": 0.7007874015748031
        },
        {
          "duration": 0.7240252500000111,
          "durationTicks": 223,
          "midi": 69,
          "name": "A4",
          "ticks": 66712,
          "time": 216.597186,
          "velocity": 0.7007874015748031
        },
        {
          "duration": 0.720778499999966,
          "durationTicks": 222,
          "midi": 55,
          "name": "G3",
          "ticks": 66955,
          "time": 217.38614625000002,
          "velocity": 0.7007874015748031
        },
        {
          "duration": 0.7629862499999547,
          "durationTicks": 235,
          "midi": 73,
          "name": "C#5",
          "ticks": 66957,
          "time": 217.39263975000003,
          "velocity": 0.7007874015748031
        },
        {
          "duration": 0.7467524999999853,
          "durationTicks": 230,
          "midi": 69,
          "name": "A4",
          "ticks": 66960,
          "time": 217.40238,
          "velocity": 0.7007874015748031
        },
        {
          "duration": 0.951297750000009,
          "durationTicks": 293,
          "midi": 69,
          "name": "A4",
          "ticks": 67202,
          "time": 218.1880935,
          "velocity": 0.7007874015748031
        },
        {
          "duration": 0.9675315000000069,
          "durationTicks": 298,
          "midi": 73,
          "name": "C#5",
          "ticks": 67202,
          "time": 218.1880935,
          "velocity": 0.7007874015748031
        },
        {
          "duration": 0.05519474999996987,
          "durationTicks": 17,
          "midi": 73,
          "name": "C#5",
          "ticks": 67560,
          "time": 219.35043000000002,
          "velocity": 0.7007874015748031
        },
        {
          "duration": 0.06493499999996288,
          "durationTicks": 20,
          "midi": 69,
          "name": "A4",
          "ticks": 67560,
          "time": 219.35043000000002,
          "velocity": 0.7007874015748031
        },
        {
          "duration": 0.04870124999999348,
          "durationTicks": 15,
          "midi": 69,
          "name": "A4",
          "ticks": 67600,
          "time": 219.48030000000003,
          "velocity": 0.7007874015748031
        },
        {
          "duration": 0.0649349999999913,
          "durationTicks": 20,
          "midi": 73,
          "name": "C#5",
          "ticks": 67600,
          "time": 219.48030000000003,
          "velocity": 0.7007874015748031
        },
        {
          "duration": 0.03896100000002889,
          "durationTicks": 12,
          "midi": 69,
          "name": "A4",
          "ticks": 67640,
          "time": 219.61016999999998,
          "velocity": 0.7007874015748031
        },
        {
          "duration": 0.06493500000004815,
          "durationTicks": 20,
          "midi": 73,
          "name": "C#5",
          "ticks": 67640,
          "time": 219.61016999999998,
          "velocity": 0.7007874015748031
        },
        {
          "duration": 0.6396097500000053,
          "durationTicks": 197,
          "midi": 76,
          "name": "E5",
          "ticks": 67680,
          "time": 219.74004,
          "velocity": 0.7007874015748031
        },
        {
          "duration": 0.6396097500000053,
          "durationTicks": 197,
          "midi": 69,
          "name": "A4",
          "ticks": 67680,
          "time": 219.74004,
          "velocity": 0.7007874015748031
        },
        {
          "duration": 0.6590902500000198,
          "durationTicks": 203,
          "midi": 73,
          "name": "C#5",
          "ticks": 67682,
          "time": 219.7465335,
          "velocity": 0.7007874015748031
        },
        {
          "duration": 0.5097397499999943,
          "durationTicks": 157,
          "midi": 69,
          "name": "A4",
          "ticks": 67920,
          "time": 220.51926,
          "velocity": 0.7007874015748031
        },
        {
          "duration": 0.5909085000000118,
          "durationTicks": 182,
          "midi": 76,
          "name": "E5",
          "ticks": 67920,
          "time": 220.51926,
          "velocity": 0.7007874015748031
        },
        {
          "duration": 0.5616877500000044,
          "durationTicks": 173,
          "midi": 73,
          "name": "C#5",
          "ticks": 67922,
          "time": 220.5257535,
          "velocity": 0.7007874015748031
        },
        {
          "duration": 0.9967522499999859,
          "durationTicks": 307,
          "midi": 74,
          "name": "D5",
          "ticks": 68160,
          "time": 221.29848,
          "velocity": 0.7007874015748031
        },
        {
          "duration": 0.9675315000000069,
          "durationTicks": 298,
          "midi": 71,
          "name": "B4",
          "ticks": 68162,
          "time": 221.3049735,
          "velocity": 0.7007874015748031
        },
        {
          "duration": 0.999999000000031,
          "durationTicks": 308,
          "midi": 66,
          "name": "F#4",
          "ticks": 68162,
          "time": 221.3049735,
          "velocity": 0.7007874015748031
        },
        {
          "duration": 0.19480500000000234,
          "durationTicks": 60,
          "midi": 69,
          "name": "A4",
          "ticks": 68520,
          "time": 222.46731,
          "velocity": 0.7007874015748031
        },
        {
          "duration": 0.19480500000000234,
          "durationTicks": 60,
          "midi": 73,
          "name": "C#5",
          "ticks": 68520,
          "time": 222.46731,
          "velocity": 0.7007874015748031
        },
        {
          "duration": 0.21103875000000016,
          "durationTicks": 65,
          "midi": 64,
          "name": "E4",
          "ticks": 68520,
          "time": 222.46731,
          "velocity": 0.7007874015748031
        },
        {
          "duration": 1.1038950000000227,
          "durationTicks": 340,
          "midi": 74,
          "name": "D5",
          "ticks": 68640,
          "time": 222.85692,
          "velocity": 0.7007874015748031
        },
        {
          "duration": 1.0714274999999986,
          "durationTicks": 330,
          "midi": 71,
          "name": "B4",
          "ticks": 68640,
          "time": 222.85692,
          "velocity": 0.7007874015748031
        },
        {
          "duration": 1.1201287500000205,
          "durationTicks": 345,
          "midi": 66,
          "name": "F#4",
          "ticks": 68647,
          "time": 222.87964724999998,
          "velocity": 0.7007874015748031
        },
        {
          "duration": 1.1201287499999921,
          "durationTicks": 345,
          "midi": 83,
          "name": "B5",
          "ticks": 68650,
          "time": 222.88938750000003,
          "velocity": 0.7007874015748031
        },
        {
          "duration": 1.1850637500000119,
          "durationTicks": 365,
          "midi": 62,
          "name": "D4",
          "ticks": 68652,
          "time": 222.895881,
          "velocity": 0.7007874015748031
        },
        {
          "duration": 2.126621249999971,
          "durationTicks": 655,
          "midi": 79,
          "name": "G5",
          "ticks": 69130,
          "time": 224.44782750000002,
          "velocity": 0.8503937007874016
        },
        {
          "duration": 1.9058422500000063,
          "durationTicks": 587,
          "midi": 71,
          "name": "B4",
          "ticks": 69130,
          "time": 224.44782750000002,
          "velocity": 0.905511811023622
        },
        {
          "duration": 1.8993487500000015,
          "durationTicks": 585,
          "midi": 62,
          "name": "D4",
          "ticks": 69132,
          "time": 224.45432100000002,
          "velocity": 0.952755905511811
        },
        {
          "duration": 1.8896085000000085,
          "durationTicks": 582,
          "midi": 67,
          "name": "G4",
          "ticks": 69135,
          "time": 224.46406125000001,
          "velocity": 0.9133858267716536
        },
        {
          "duration": 0.27597374999999147,
          "durationTicks": 85,
          "midi": 40,
          "name": "E2",
          "ticks": 69720,
          "time": 226.36341000000002,
          "velocity": 0.937007874015748
        },
        {
          "duration": 0.27597374999999147,
          "durationTicks": 85,
          "midi": 52,
          "name": "E3",
          "ticks": 69720,
          "time": 226.36341000000002,
          "velocity": 0.905511811023622
        },
        {
          "duration": 0.5519474999999829,
          "durationTicks": 170,
          "midi": 59,
          "name": "B3",
          "ticks": 69840,
          "time": 226.75302000000002,
          "velocity": 0.9606299212598425
        },
        {
          "duration": 0.5844149999999786,
          "durationTicks": 180,
          "midi": 76,
          "name": "E5",
          "ticks": 69840,
          "time": 226.75302000000002,
          "velocity": 0.905511811023622
        },
        {
          "duration": 0.2857140000000129,
          "durationTicks": 88,
          "midi": 40,
          "name": "E2",
          "ticks": 69842,
          "time": 226.7595135,
          "velocity": 1
        },
        {
          "duration": 0.2857140000000129,
          "durationTicks": 88,
          "midi": 52,
          "name": "E3",
          "ticks": 69842,
          "time": 226.7595135,
          "velocity": 1
        },
        {
          "duration": 0.5616877500000044,
          "durationTicks": 173,
          "midi": 71,
          "name": "B4",
          "ticks": 69847,
          "time": 226.77574725,
          "velocity": 0.905511811023622
        },
        {
          "duration": 0.5357137500000135,
          "durationTicks": 165,
          "midi": 67,
          "name": "G4",
          "ticks": 69850,
          "time": 226.78548750000002,
          "velocity": 0.905511811023622
        },
        {
          "duration": 0.2922075000000177,
          "durationTicks": 90,
          "midi": 40,
          "name": "E2",
          "ticks": 69960,
          "time": 227.14263,
          "velocity": 1
        },
        {
          "duration": 0.2922075000000177,
          "durationTicks": 90,
          "midi": 52,
          "name": "E3",
          "ticks": 69960,
          "time": 227.14263,
          "velocity": 1
        },
        {
          "duration": 2.97077625,
          "durationTicks": 915,
          "midi": 64,
          "name": "E4",
          "ticks": 70077,
          "time": 227.52249975,
          "velocity": 0.8582677165354331
        },
        {
          "duration": 2.97077625,
          "durationTicks": 915,
          "midi": 61,
          "name": "C#4",
          "ticks": 70077,
          "time": 227.52249975,
          "velocity": 0.8976377952755905
        },
        {
          "duration": 2.97077625,
          "durationTicks": 915,
          "midi": 57,
          "name": "A3",
          "ticks": 70077,
          "time": 227.52249975,
          "velocity": 0.952755905511811
        },
        {
          "duration": 2.7499972499999785,
          "durationTicks": 847,
          "midi": 45,
          "name": "A2",
          "ticks": 70080,
          "time": 227.53224,
          "velocity": 1
        },
        {
          "duration": 3.110386500000004,
          "durationTicks": 958,
          "midi": 69,
          "name": "A4",
          "ticks": 70082,
          "time": 227.5387335,
          "velocity": 0.8582677165354331
        },
        {
          "duration": 3.0616852500000107,
          "durationTicks": 943,
          "midi": 81,
          "name": "A5",
          "ticks": 70082,
          "time": 227.5387335,
          "velocity": 0.8976377952755905
        },
        {
          "duration": 1.5519465000000139,
          "durationTicks": 478,
          "midi": 71,
          "name": "B4",
          "ticks": 71042,
          "time": 230.6556135,
          "velocity": 0.8661417322834646
        },
        {
          "duration": 2.720776500000028,
          "durationTicks": 838,
          "midi": 50,
          "name": "D3",
          "ticks": 71042,
          "time": 230.6556135,
          "velocity": 0.952755905511811
        },
        {
          "duration": 1.535712750000016,
          "durationTicks": 473,
          "midi": 76,
          "name": "E5",
          "ticks": 71047,
          "time": 230.67184724999998,
          "velocity": 0.7401574803149606
        },
        {
          "duration": 0.7792199999999809,
          "durationTicks": 240,
          "midi": 79,
          "name": "G5",
          "ticks": 71280,
          "time": 231.42834000000002,
          "velocity": 0.5905511811023622
        },
        {
          "duration": 0.7792200000000093,
          "durationTicks": 240,
          "midi": 71,
          "name": "B4",
          "ticks": 71520,
          "time": 232.20756,
          "velocity": 0.7165354330708661
        },
        {
          "duration": 0.7727265000000045,
          "durationTicks": 238,
          "midi": 76,
          "name": "E5",
          "ticks": 71757,
          "time": 232.97703975000002,
          "velocity": 0.7165354330708661
        },
        {
          "duration": 1.444803750000034,
          "durationTicks": 445,
          "midi": 78,
          "name": "F#5",
          "ticks": 72002,
          "time": 233.7724935,
          "velocity": 0.6299212598425197
        },
        {
          "duration": 1.4610375000000033,
          "durationTicks": 450,
          "midi": 69,
          "name": "A4",
          "ticks": 72002,
          "time": 233.7724935,
          "velocity": 0.7322834645669292
        },
        {
          "duration": 1.438310250000029,
          "durationTicks": 443,
          "midi": 74,
          "name": "D5",
          "ticks": 72002,
          "time": 233.7724935,
          "velocity": 0.5748031496062992
        },
        {
          "duration": 0.6980512499999918,
          "durationTicks": 215,
          "midi": 57,
          "name": "A3",
          "ticks": 72240,
          "time": 234.54522,
          "velocity": 1
        },
        {
          "duration": 0.5194800000000157,
          "durationTicks": 160,
          "midi": 78,
          "name": "F#5",
          "ticks": 72480,
          "time": 235.32444,
          "velocity": 0.7952755905511811
        },
        {
          "duration": 0.5097397499999659,
          "durationTicks": 157,
          "midi": 66,
          "name": "F#4",
          "ticks": 72480,
          "time": 235.32444,
          "velocity": 0.7952755905511811
        },
        {
          "duration": 0.45454499999996756,
          "durationTicks": 140,
          "midi": 67,
          "name": "G4",
          "ticks": 72640,
          "time": 235.84392000000003,
          "velocity": 0.7952755905511811
        },
        {
          "duration": 0.39610349999998107,
          "durationTicks": 122,
          "midi": 79,
          "name": "G5",
          "ticks": 72640,
          "time": 235.84392000000003,
          "velocity": 0.7952755905511811
        },
        {
          "duration": 0.42857100000000514,
          "durationTicks": 132,
          "midi": 69,
          "name": "A4",
          "ticks": 72800,
          "time": 236.36339999999998,
          "velocity": 0.7952755905511811
        },
        {
          "duration": 0.47077875000002223,
          "durationTicks": 145,
          "midi": 81,
          "name": "A5",
          "ticks": 72800,
          "time": 236.36339999999998,
          "velocity": 0.7952755905511811
        },
        {
          "duration": 1.4350635000000125,
          "durationTicks": 442,
          "midi": 69,
          "name": "A4",
          "ticks": 72965,
          "time": 236.89911375,
          "velocity": 0.7480314960629921
        },
        {
          "duration": 1.444803750000034,
          "durationTicks": 445,
          "midi": 81,
          "name": "A5",
          "ticks": 72967,
          "time": 236.90560724999997,
          "velocity": 0.7480314960629921
        },
        {
          "duration": 1.4610375000000033,
          "durationTicks": 450,
          "midi": 61,
          "name": "C#4",
          "ticks": 73457,
          "time": 238.49651475,
          "velocity": 0.905511811023622
        },
        {
          "duration": 0.3896100000000047,
          "durationTicks": 120,
          "midi": 68,
          "name": "G#4",
          "ticks": 73560,
          "time": 238.83093,
          "velocity": 0.7480314960629921
        },
        {
          "duration": 0.3896100000000047,
          "durationTicks": 120,
          "midi": 80,
          "name": "G#5",
          "ticks": 73570,
          "time": 238.86339750000002,
          "velocity": 0.6535433070866141
        },
        {
          "duration": 0.37986975000001166,
          "durationTicks": 117,
          "midi": 69,
          "name": "A4",
          "ticks": 73680,
          "time": 239.22054,
          "velocity": 0.7480314960629921
        },
        {
          "duration": 0.3246749999999565,
          "durationTicks": 100,
          "midi": 81,
          "name": "A5",
          "ticks": 73690,
          "time": 239.25300750000002,
          "velocity": 0.6535433070866141
        },
        {
          "duration": 0.4058437500000309,
          "durationTicks": 125,
          "midi": 83,
          "name": "B5",
          "ticks": 73790,
          "time": 239.57768249999998,
          "velocity": 0.7480314960629921
        },
        {
          "duration": 0.4058437499999741,
          "durationTicks": 125,
          "midi": 71,
          "name": "B4",
          "ticks": 73800,
          "time": 239.61015,
          "velocity": 0.84251968503937
        },
        {
          "duration": 1.396102500000012,
          "durationTicks": 430,
          "midi": 69,
          "name": "A4",
          "ticks": 73922,
          "time": 240.0062535,
          "velocity": 0.7480314960629921
        },
        {
          "duration": 1.396102500000012,
          "durationTicks": 430,
          "midi": 81,
          "name": "A5",
          "ticks": 73922,
          "time": 240.0062535,
          "velocity": 0.7480314960629921
        },
        {
          "duration": 0.5129865000000109,
          "durationTicks": 158,
          "midi": 81,
          "name": "A5",
          "ticks": 74402,
          "time": 241.5646935,
          "velocity": 0.7401574803149606
        },
        {
          "duration": 0.48701249999999163,
          "durationTicks": 150,
          "midi": 60,
          "name": "C4",
          "ticks": 74415,
          "time": 241.60690125000002,
          "velocity": 0.905511811023622
        },
        {
          "duration": 0.6168825000000311,
          "durationTicks": 190,
          "midi": 81,
          "name": "A5",
          "ticks": 74570,
          "time": 242.11014749999998,
          "velocity": 0.7401574803149606
        },
        {
          "duration": 0.59415525,
          "durationTicks": 183,
          "midi": 60,
          "name": "C4",
          "ticks": 74577,
          "time": 242.13287475,
          "velocity": 0.905511811023622
        },
        {
          "duration": 0.32467500000001337,
          "durationTicks": 100,
          "midi": 71,
          "name": "B4",
          "ticks": 74760,
          "time": 242.72703,
          "velocity": 0.7165354330708661
        },
        {
          "duration": 0.32467500000001337,
          "durationTicks": 100,
          "midi": 83,
          "name": "B5",
          "ticks": 74760,
          "time": 242.72703,
          "velocity": 0.7165354330708661
        },
        {
          "duration": 1.02921975000001,
          "durationTicks": 317,
          "midi": 81,
          "name": "A5",
          "ticks": 74890,
          "time": 243.1491075,
          "velocity": 0.7165354330708661
        },
        {
          "duration": 1.168830000000014,
          "durationTicks": 360,
          "midi": 69,
          "name": "A4",
          "ticks": 74890,
          "time": 243.1491075,
          "velocity": 0.6535433070866141
        },
        {
          "duration": 0.3474022499999876,
          "durationTicks": 107,
          "midi": 79,
          "name": "G5",
          "ticks": 75210,
          "time": 244.18806750000002,
          "velocity": 0.5905511811023622
        },
        {
          "duration": 0.3474022499999876,
          "durationTicks": 107,
          "midi": 67,
          "name": "G4",
          "ticks": 75210,
          "time": 244.18806750000002,
          "velocity": 0.5905511811023622
        },
        {
          "duration": 0.7792199999999809,
          "durationTicks": 240,
          "midi": 67,
          "name": "G4",
          "ticks": 75330,
          "time": 244.57767750000002,
          "velocity": 0.49606299212598426
        },
        {
          "duration": 0.7792199999999809,
          "durationTicks": 240,
          "midi": 79,
          "name": "G5",
          "ticks": 75330,
          "time": 244.57767750000002,
          "velocity": 0.4645669291338583
        },
        {
          "duration": 0.801947250000012,
          "durationTicks": 247,
          "midi": 66,
          "name": "F#4",
          "ticks": 75590,
          "time": 245.4218325,
          "velocity": 0.4645669291338583
        },
        {
          "duration": 0.8019472499999551,
          "durationTicks": 247,
          "midi": 78,
          "name": "F#5",
          "ticks": 75600,
          "time": 245.45430000000002,
          "velocity": 0.4645669291338583
        },
        {
          "duration": 2.2727250000000083,
          "durationTicks": 700,
          "midi": 58,
          "name": "A#3",
          "ticks": 75830,
          "time": 246.2010525,
          "velocity": 0.5590551181102362
        }
      ]
    },
    {
      "channel": 3,
      "controlChanges": {
        "1": [
          {
            "number": 1,
            "ticks": 3927,
            "time": 12.74998725,
            "value": 0.06299212598425197
          },
          {
            "number": 1,
            "ticks": 3937,
            "time": 12.78245475,
            "value": 0.12598425196850394
          },
          {
            "number": 1,
            "ticks": 3955,
            "time": 12.840896250000002,
            "value": 0.16535433070866143
          },
          {
            "number": 1,
            "ticks": 3970,
            "time": 12.8895975,
            "value": 0.1889763779527559
          },
          {
            "number": 1,
            "ticks": 3987,
            "time": 12.94479225,
            "value": 0.2125984251968504
          },
          {
            "number": 1,
            "ticks": 3995,
            "time": 12.970766249999999,
            "value": 0.2125984251968504
          },
          {
            "number": 1,
            "ticks": 4042,
            "time": 13.1233635,
            "value": 0.2283464566929134
          },
          {
            "number": 1,
            "ticks": 4090,
            "time": 13.279207500000002,
            "value": 0.2125984251968504
          },
          {
            "number": 1,
            "ticks": 4107,
            "time": 13.33440225,
            "value": 0.2283464566929134
          },
          {
            "number": 1,
            "ticks": 4122,
            "time": 13.3831035,
            "value": 0.2125984251968504
          },
          {
            "number": 1,
            "ticks": 4132,
            "time": 13.415571,
            "value": 0.1968503937007874
          },
          {
            "number": 1,
            "ticks": 4147,
            "time": 13.464272249999999,
            "value": 0.2125984251968504
          },
          {
            "number": 1,
            "ticks": 4157,
            "time": 13.49673975,
            "value": 0.1968503937007874
          },
          {
            "number": 1,
            "ticks": 4165,
            "time": 13.522713750000001,
            "value": 0.1968503937007874
          },
          {
            "number": 1,
            "ticks": 4182,
            "time": 13.577908500000001,
            "value": 0.2125984251968504
          },
          {
            "number": 1,
            "ticks": 4190,
            "time": 13.6038825,
            "value": 0.1968503937007874
          },
          {
            "number": 1,
            "ticks": 4252,
            "time": 13.805181,
            "value": 0.1732283464566929
          },
          {
            "number": 1,
            "ticks": 4340,
            "time": 14.090895,
            "value": 0.1889763779527559
          },
          {
            "number": 1,
            "ticks": 4357,
            "time": 14.14608975,
            "value": 0.1732283464566929
          },
          {
            "number": 1,
            "ticks": 4372,
            "time": 14.194790999999999,
            "value": 0.1889763779527559
          },
          {
            "number": 1,
            "ticks": 4380,
            "time": 14.220765,
            "value": 0.1732283464566929
          },
          {
            "number": 1,
            "ticks": 4437,
            "time": 14.40582975,
            "value": 0.1889763779527559
          },
          {
            "number": 1,
            "ticks": 4452,
            "time": 14.454531000000001,
            "value": 0.1732283464566929
          },
          {
            "number": 1,
            "ticks": 4470,
            "time": 14.5129725,
            "value": 0.1889763779527559
          },
          {
            "number": 1,
            "ticks": 4477,
            "time": 14.53569975,
            "value": 0.1732283464566929
          },
          {
            "number": 1,
            "ticks": 4502,
            "time": 14.6168685,
            "value": 0.1889763779527559
          },
          {
            "number": 1,
            "ticks": 4515,
            "time": 14.65907625,
            "value": 0.1732283464566929
          },
          {
            "number": 1,
            "ticks": 4532,
            "time": 14.714271,
            "value": 0.1889763779527559
          },
          {
            "number": 1,
            "ticks": 4542,
            "time": 14.746738500000001,
            "value": 0.16535433070866143
          },
          {
            "number": 1,
            "ticks": 4560,
            "time": 14.80518,
            "value": 0.1889763779527559
          },
          {
            "number": 1,
            "ticks": 4587,
            "time": 14.892842250000001,
            "value": 0.1732283464566929
          },
          {
            "number": 1,
            "ticks": 4602,
            "time": 14.941543500000002,
            "value": 0.1889763779527559
          },
          {
            "number": 1,
            "ticks": 4620,
            "time": 14.999985,
            "value": 0.1732283464566929
          },
          {
            "number": 1,
            "ticks": 4635,
            "time": 15.048686250000001,
            "value": 0.1732283464566929
          },
          {
            "number": 1,
            "ticks": 4660,
            "time": 15.129855000000001,
            "value": 0.07874015748031496
          },
          {
            "number": 1,
            "ticks": 4677,
            "time": 15.185049750000001,
            "value": 0.023622047244094488
          },
          {
            "number": 1,
            "ticks": 4687,
            "time": 15.217517249999998,
            "value": 0
          },
          {
            "number": 1,
            "ticks": 4912,
            "time": 15.948035999999998,
            "value": 0.015748031496062992
          },
          {
            "number": 1,
            "ticks": 4937,
            "time": 16.02920475,
            "value": 0.047244094488188976
          },
          {
            "number": 1,
            "ticks": 4945,
            "time": 16.055178750000003,
            "value": 0.023622047244094488
          },
          {
            "number": 1,
            "ticks": 4962,
            "time": 16.1103735,
            "value": 0
          },
          {
            "number": 1,
            "ticks": 4992,
            "time": 16.207776000000003,
            "value": 0.023622047244094488
          },
          {
            "number": 1,
            "ticks": 5002,
            "time": 16.2402435,
            "value": 0.06299212598425197
          },
          {
            "number": 1,
            "ticks": 5010,
            "time": 16.2662175,
            "value": 0.047244094488188976
          },
          {
            "number": 1,
            "ticks": 5027,
            "time": 16.32141225,
            "value": 0.015748031496062992
          },
          {
            "number": 1,
            "ticks": 5035,
            "time": 16.347386250000003,
            "value": 0
          },
          {
            "number": 1,
            "ticks": 5067,
            "time": 16.451282250000002,
            "value": 0.03937007874015748
          },
          {
            "number": 1,
            "ticks": 5075,
            "time": 16.47725625,
            "value": 0.06299212598425197
          },
          {
            "number": 1,
            "ticks": 5100,
            "time": 16.558425,
            "value": 0
          },
          {
            "number": 1,
            "ticks": 5137,
            "time": 16.67855475,
            "value": 0.023622047244094488
          },
          {
            "number": 1,
            "ticks": 5147,
            "time": 16.71102225,
            "value": 0.047244094488188976
          },
          {
            "number": 1,
            "ticks": 5155,
            "time": 16.73699625,
            "value": 0
          },
          {
            "number": 1,
            "ticks": 5202,
            "time": 16.8895935,
            "value": 0.023622047244094488
          },
          {
            "number": 1,
            "ticks": 5212,
            "time": 16.922061,
            "value": 0.06299212598425197
          },
          {
            "number": 1,
            "ticks": 5220,
            "time": 16.948035,
            "value": 0.023622047244094488
          },
          {
            "number": 1,
            "ticks": 5237,
            "time": 17.00322975,
            "value": 0
          },
          {
            "number": 1,
            "ticks": 5872,
            "time": 19.064916,
            "value": 0
          },
          {
            "number": 1,
            "ticks": 5887,
            "time": 19.11361725,
            "value": 0.015748031496062992
          },
          {
            "number": 1,
            "ticks": 5897,
            "time": 19.14608475,
            "value": 0
          },
          {
            "number": 1,
            "ticks": 5905,
            "time": 19.17205875,
            "value": 0.015748031496062992
          },
          {
            "number": 1,
            "ticks": 5912,
            "time": 19.194786,
            "value": 0.047244094488188976
          },
          {
            "number": 1,
            "ticks": 5922,
            "time": 19.2272535,
            "value": 0.06299212598425197
          },
          {
            "number": 1,
            "ticks": 5930,
            "time": 19.2532275,
            "value": 0.07874015748031496
          },
          {
            "number": 1,
            "ticks": 5962,
            "time": 19.3571235,
            "value": 0.047244094488188976
          },
          {
            "number": 1,
            "ticks": 5977,
            "time": 19.40582475,
            "value": 0.06299212598425197
          },
          {
            "number": 1,
            "ticks": 5987,
            "time": 19.43829225,
            "value": 0.08661417322834646
          },
          {
            "number": 1,
            "ticks": 6010,
            "time": 19.512967500000002,
            "value": 0.047244094488188976
          },
          {
            "number": 1,
            "ticks": 6027,
            "time": 19.56816225,
            "value": 0.06299212598425197
          },
          {
            "number": 1,
            "ticks": 6035,
            "time": 19.59413625,
            "value": 0.07874015748031496
          },
          {
            "number": 1,
            "ticks": 6067,
            "time": 19.69803225,
            "value": 0.047244094488188976
          },
          {
            "number": 1,
            "ticks": 6075,
            "time": 19.724006250000002,
            "value": 0
          },
          {
            "number": 1,
            "ticks": 7047,
            "time": 22.87984725,
            "value": 0.015748031496062992
          },
          {
            "number": 1,
            "ticks": 7055,
            "time": 22.90582125,
            "value": 0.07874015748031496
          },
          {
            "number": 1,
            "ticks": 7087,
            "time": 23.009717249999998,
            "value": 0.10236220472440945
          },
          {
            "number": 1,
            "ticks": 7105,
            "time": 23.068158750000002,
            "value": 0.08661417322834646
          },
          {
            "number": 1,
            "ticks": 7120,
            "time": 23.116860000000003,
            "value": 0.10236220472440945
          },
          {
            "number": 1,
            "ticks": 7137,
            "time": 23.17205475,
            "value": 0.08661417322834646
          },
          {
            "number": 1,
            "ticks": 7152,
            "time": 23.220756,
            "value": 0.10236220472440945
          },
          {
            "number": 1,
            "ticks": 7162,
            "time": 23.2532235,
            "value": 0.12598425196850394
          },
          {
            "number": 1,
            "ticks": 7170,
            "time": 23.279197500000002,
            "value": 0.11023622047244094
          },
          {
            "number": 1,
            "ticks": 7185,
            "time": 23.32789875,
            "value": 0.07874015748031496
          },
          {
            "number": 1,
            "ticks": 7195,
            "time": 23.360366250000002,
            "value": 0.06299212598425197
          },
          {
            "number": 1,
            "ticks": 7227,
            "time": 23.46426225,
            "value": 0.023622047244094488
          },
          {
            "number": 1,
            "ticks": 7235,
            "time": 23.49023625,
            "value": 0
          },
          {
            "number": 1,
            "ticks": 7330,
            "time": 23.7986775,
            "value": 0.015748031496062992
          },
          {
            "number": 1,
            "ticks": 7337,
            "time": 23.82140475,
            "value": 0.03937007874015748
          },
          {
            "number": 1,
            "ticks": 7355,
            "time": 23.87984625,
            "value": 0.015748031496062992
          },
          {
            "number": 1,
            "ticks": 7362,
            "time": 23.902573500000003,
            "value": 0
          },
          {
            "number": 1,
            "ticks": 7910,
            "time": 25.681792500000004,
            "value": 0.015748031496062992
          },
          {
            "number": 1,
            "ticks": 7952,
            "time": 25.818156000000002,
            "value": 0
          },
          {
            "number": 1,
            "ticks": 7960,
            "time": 25.84413,
            "value": 0.015748031496062992
          },
          {
            "number": 1,
            "ticks": 7967,
            "time": 25.86685725,
            "value": 0.03937007874015748
          },
          {
            "number": 1,
            "ticks": 7977,
            "time": 25.899324749999998,
            "value": 0.015748031496062992
          },
          {
            "number": 1,
            "ticks": 8120,
            "time": 26.36361,
            "value": 0
          },
          {
            "number": 1,
            "ticks": 9732,
            "time": 31.597371,
            "value": 0.023622047244094488
          },
          {
            "number": 1,
            "ticks": 9742,
            "time": 31.6298385,
            "value": 0.10236220472440945
          },
          {
            "number": 1,
            "ticks": 9757,
            "time": 31.678539750000002,
            "value": 0.08661417322834646
          },
          {
            "number": 1,
            "ticks": 9767,
            "time": 31.71100725,
            "value": 0.10236220472440945
          },
          {
            "number": 1,
            "ticks": 9782,
            "time": 31.759708500000002,
            "value": 0.08661417322834646
          },
          {
            "number": 1,
            "ticks": 9855,
            "time": 31.99672125,
            "value": 0.047244094488188976
          },
          {
            "number": 1,
            "ticks": 9870,
            "time": 32.0454225,
            "value": 0.023622047244094488
          },
          {
            "number": 1,
            "ticks": 9895,
            "time": 32.12659125,
            "value": 0
          },
          {
            "number": 1,
            "ticks": 10897,
            "time": 35.37983475,
            "value": 0.015748031496062992
          },
          {
            "number": 1,
            "ticks": 10907,
            "time": 35.41230225,
            "value": 0
          },
          {
            "number": 1,
            "ticks": 11612,
            "time": 37.701261,
            "value": 0.047244094488188976
          },
          {
            "number": 1,
            "ticks": 11630,
            "time": 37.7597025,
            "value": 0.12598425196850394
          },
          {
            "number": 1,
            "ticks": 11637,
            "time": 37.78242975,
            "value": 0.16535433070866143
          },
          {
            "number": 1,
            "ticks": 11662,
            "time": 37.8635985,
            "value": 0.1968503937007874
          },
          {
            "number": 1,
            "ticks": 11670,
            "time": 37.8895725,
            "value": 0.2125984251968504
          },
          {
            "number": 1,
            "ticks": 11677,
            "time": 37.91229975,
            "value": 0.2283464566929134
          },
          {
            "number": 1,
            "ticks": 11695,
            "time": 37.970741249999996,
            "value": 0.2125984251968504
          },
          {
            "number": 1,
            "ticks": 11710,
            "time": 38.0194425,
            "value": 0.2283464566929134
          },
          {
            "number": 1,
            "ticks": 11727,
            "time": 38.07463725,
            "value": 0.2125984251968504
          },
          {
            "number": 1,
            "ticks": 11742,
            "time": 38.123338499999996,
            "value": 0.2283464566929134
          },
          {
            "number": 1,
            "ticks": 11760,
            "time": 38.18178,
            "value": 0.2125984251968504
          },
          {
            "number": 1,
            "ticks": 11785,
            "time": 38.26294875,
            "value": 0.1968503937007874
          },
          {
            "number": 1,
            "ticks": 11792,
            "time": 38.285676,
            "value": 0.1732283464566929
          },
          {
            "number": 1,
            "ticks": 11832,
            "time": 38.415546,
            "value": 0.12598425196850394
          },
          {
            "number": 1,
            "ticks": 11840,
            "time": 38.441520000000004,
            "value": 0.11023622047244094
          },
          {
            "number": 1,
            "ticks": 11865,
            "time": 38.52268875,
            "value": 0.06299212598425197
          },
          {
            "number": 1,
            "ticks": 11872,
            "time": 38.545416,
            "value": 0.023622047244094488
          },
          {
            "number": 1,
            "ticks": 11880,
            "time": 38.57139,
            "value": 0
          },
          {
            "number": 1,
            "ticks": 13555,
            "time": 44.00969625,
            "value": 0.023622047244094488
          },
          {
            "number": 1,
            "ticks": 13565,
            "time": 44.04216375,
            "value": 0.06299212598425197
          },
          {
            "number": 1,
            "ticks": 13572,
            "time": 44.064890999999996,
            "value": 0.08661417322834646
          },
          {
            "number": 1,
            "ticks": 13605,
            "time": 44.172033750000004,
            "value": 0.06299212598425197
          },
          {
            "number": 1,
            "ticks": 13612,
            "time": 44.194761,
            "value": 0
          },
          {
            "number": 1,
            "ticks": 13662,
            "time": 44.3570985,
            "value": 0.03937007874015748
          },
          {
            "number": 1,
            "ticks": 13677,
            "time": 44.40579975,
            "value": 0.023622047244094488
          },
          {
            "number": 1,
            "ticks": 13685,
            "time": 44.431773750000005,
            "value": 0
          },
          {
            "number": 1,
            "ticks": 14440,
            "time": 46.88307,
            "value": 0.015748031496062992
          },
          {
            "number": 1,
            "ticks": 14447,
            "time": 46.90579725,
            "value": 0.06299212598425197
          },
          {
            "number": 1,
            "ticks": 14457,
            "time": 46.93826475,
            "value": 0.07874015748031496
          },
          {
            "number": 1,
            "ticks": 14480,
            "time": 47.01294,
            "value": 0
          },
          {
            "number": 1,
            "ticks": 14535,
            "time": 47.191511250000005,
            "value": 0
          },
          {
            "number": 1,
            "ticks": 14625,
            "time": 47.48371875,
            "value": 0.015748031496062992
          },
          {
            "number": 1,
            "ticks": 14655,
            "time": 47.58112125,
            "value": 0.047244094488188976
          },
          {
            "number": 1,
            "ticks": 14662,
            "time": 47.603848500000005,
            "value": 0.015748031496062992
          },
          {
            "number": 1,
            "ticks": 14672,
            "time": 47.636316,
            "value": 0
          },
          {
            "number": 1,
            "ticks": 14727,
            "time": 47.81488725,
            "value": 0.07874015748031496
          },
          {
            "number": 1,
            "ticks": 14760,
            "time": 47.92203,
            "value": 0
          },
          {
            "number": 1,
            "ticks": 14800,
            "time": 48.051899999999996,
            "value": 0.023622047244094488
          },
          {
            "number": 1,
            "ticks": 14807,
            "time": 48.07462725,
            "value": 0.06299212598425197
          },
          {
            "number": 1,
            "ticks": 14825,
            "time": 48.13306875000001,
            "value": 0
          },
          {
            "number": 1,
            "ticks": 14872,
            "time": 48.285666000000006,
            "value": 0.047244094488188976
          },
          {
            "number": 1,
            "ticks": 14897,
            "time": 48.36683475,
            "value": 0
          },
          {
            "number": 1,
            "ticks": 14960,
            "time": 48.571380000000005,
            "value": 0.015748031496062992
          },
          {
            "number": 1,
            "ticks": 14970,
            "time": 48.6038475,
            "value": 0
          },
          {
            "number": 1,
            "ticks": 15430,
            "time": 50.09735250000001,
            "value": 0.08661417322834646
          },
          {
            "number": 1,
            "ticks": 15437,
            "time": 50.12007975000001,
            "value": 0.14960629921259844
          },
          {
            "number": 1,
            "ticks": 15447,
            "time": 50.15254725,
            "value": 0.1889763779527559
          },
          {
            "number": 1,
            "ticks": 15480,
            "time": 50.25969,
            "value": 0.1889763779527559
          },
          {
            "number": 1,
            "ticks": 15505,
            "time": 50.34085875,
            "value": 0.1732283464566929
          },
          {
            "number": 1,
            "ticks": 15535,
            "time": 50.438261250000004,
            "value": 0.14960629921259844
          },
          {
            "number": 1,
            "ticks": 15560,
            "time": 50.51943,
            "value": 0.13385826771653545
          },
          {
            "number": 1,
            "ticks": 15575,
            "time": 50.56813125,
            "value": 0.14960629921259844
          },
          {
            "number": 1,
            "ticks": 15592,
            "time": 50.623326000000006,
            "value": 0.13385826771653545
          },
          {
            "number": 1,
            "ticks": 15607,
            "time": 50.672027250000006,
            "value": 0.14960629921259844
          },
          {
            "number": 1,
            "ticks": 15625,
            "time": 50.73046875000001,
            "value": 0.13385826771653545
          },
          {
            "number": 1,
            "ticks": 15640,
            "time": 50.77917000000001,
            "value": 0.14960629921259844
          },
          {
            "number": 1,
            "ticks": 15657,
            "time": 50.83436475,
            "value": 0.13385826771653545
          },
          {
            "number": 1,
            "ticks": 15752,
            "time": 51.14280600000001,
            "value": 0.11023622047244094
          },
          {
            "number": 1,
            "ticks": 15767,
            "time": 51.19150725000001,
            "value": 0.12598425196850394
          },
          {
            "number": 1,
            "ticks": 15785,
            "time": 51.249948749999994,
            "value": 0.11023622047244094
          },
          {
            "number": 1,
            "ticks": 15802,
            "time": 51.3051435,
            "value": 0.12598425196850394
          },
          {
            "number": 1,
            "ticks": 15817,
            "time": 51.35384475,
            "value": 0.11023622047244094
          },
          {
            "number": 1,
            "ticks": 15832,
            "time": 51.402546,
            "value": 0.12598425196850394
          },
          {
            "number": 1,
            "ticks": 15850,
            "time": 51.46098750000001,
            "value": 0.11023622047244094
          },
          {
            "number": 1,
            "ticks": 15857,
            "time": 51.483714750000004,
            "value": 0.07874015748031496
          },
          {
            "number": 1,
            "ticks": 15867,
            "time": 51.51618225,
            "value": 0.023622047244094488
          },
          {
            "number": 1,
            "ticks": 15875,
            "time": 51.54215625,
            "value": 0
          },
          {
            "number": 1,
            "ticks": 16612,
            "time": 53.935011,
            "value": 0.015748031496062992
          },
          {
            "number": 1,
            "ticks": 16637,
            "time": 54.016179750000006,
            "value": 0.06299212598425197
          },
          {
            "number": 1,
            "ticks": 16652,
            "time": 54.06488100000001,
            "value": 0.047244094488188976
          },
          {
            "number": 1,
            "ticks": 16670,
            "time": 54.1233225,
            "value": 0.06299212598425197
          },
          {
            "number": 1,
            "ticks": 16677,
            "time": 54.146049749999996,
            "value": 0.047244094488188976
          },
          {
            "number": 1,
            "ticks": 16685,
            "time": 54.17202375,
            "value": 0.023622047244094488
          },
          {
            "number": 1,
            "ticks": 16702,
            "time": 54.227218500000006,
            "value": 0
          },
          {
            "number": 1,
            "ticks": 17502,
            "time": 56.8246185,
            "value": 0.015748031496062992
          },
          {
            "number": 1,
            "ticks": 17535,
            "time": 56.93176125,
            "value": 0.047244094488188976
          },
          {
            "number": 1,
            "ticks": 17567,
            "time": 57.03565725000001,
            "value": 0.06299212598425197
          },
          {
            "number": 1,
            "ticks": 17577,
            "time": 57.06812475,
            "value": 0.07874015748031496
          },
          {
            "number": 1,
            "ticks": 17592,
            "time": 57.116825999999996,
            "value": 0.06299212598425197
          },
          {
            "number": 1,
            "ticks": 17617,
            "time": 57.19799475000001,
            "value": 0.03937007874015748
          },
          {
            "number": 1,
            "ticks": 17640,
            "time": 57.272670000000005,
            "value": 0
          },
          {
            "number": 1,
            "ticks": 19287,
            "time": 62.62006725,
            "value": 0.06299212598425197
          },
          {
            "number": 1,
            "ticks": 19297,
            "time": 62.65253475,
            "value": 0.10236220472440945
          },
          {
            "number": 1,
            "ticks": 19305,
            "time": 62.67850875,
            "value": 0.16535433070866143
          },
          {
            "number": 1,
            "ticks": 19330,
            "time": 62.7596775,
            "value": 0.1889763779527559
          },
          {
            "number": 1,
            "ticks": 19347,
            "time": 62.81487225,
            "value": 0.2125984251968504
          },
          {
            "number": 1,
            "ticks": 19355,
            "time": 62.84084625,
            "value": 0.2283464566929134
          },
          {
            "number": 1,
            "ticks": 19362,
            "time": 62.8635735,
            "value": 0.2125984251968504
          },
          {
            "number": 1,
            "ticks": 19402,
            "time": 62.993443500000005,
            "value": 0.2283464566929134
          },
          {
            "number": 1,
            "ticks": 19450,
            "time": 63.14928750000001,
            "value": 0.2125984251968504
          },
          {
            "number": 1,
            "ticks": 19467,
            "time": 63.20448225,
            "value": 0.2283464566929134
          },
          {
            "number": 1,
            "ticks": 19482,
            "time": 63.2531835,
            "value": 0.2125984251968504
          },
          {
            "number": 1,
            "ticks": 19492,
            "time": 63.285651,
            "value": 0.1968503937007874
          },
          {
            "number": 1,
            "ticks": 19507,
            "time": 63.33435225,
            "value": 0.1968503937007874
          },
          {
            "number": 1,
            "ticks": 19525,
            "time": 63.39279375,
            "value": 0.2125984251968504
          },
          {
            "number": 1,
            "ticks": 19532,
            "time": 63.415521000000005,
            "value": 0.1968503937007874
          },
          {
            "number": 1,
            "ticks": 19542,
            "time": 63.4479885,
            "value": 0.1968503937007874
          },
          {
            "number": 1,
            "ticks": 19612,
            "time": 63.675261000000006,
            "value": 0.1732283464566929
          },
          {
            "number": 1,
            "ticks": 19700,
            "time": 63.960975,
            "value": 0.1889763779527559
          },
          {
            "number": 1,
            "ticks": 19717,
            "time": 64.01616975,
            "value": 0.1732283464566929
          },
          {
            "number": 1,
            "ticks": 19732,
            "time": 64.064871,
            "value": 0.1732283464566929
          },
          {
            "number": 1,
            "ticks": 19797,
            "time": 64.27590975,
            "value": 0.1889763779527559
          },
          {
            "number": 1,
            "ticks": 19812,
            "time": 64.324611,
            "value": 0.1732283464566929
          },
          {
            "number": 1,
            "ticks": 19830,
            "time": 64.3830525,
            "value": 0.1889763779527559
          },
          {
            "number": 1,
            "ticks": 19837,
            "time": 64.40577975000001,
            "value": 0.1732283464566929
          },
          {
            "number": 1,
            "ticks": 19862,
            "time": 64.48694850000001,
            "value": 0.1889763779527559
          },
          {
            "number": 1,
            "ticks": 19875,
            "time": 64.52915625,
            "value": 0.1732283464566929
          },
          {
            "number": 1,
            "ticks": 19892,
            "time": 64.58435100000001,
            "value": 0.1889763779527559
          },
          {
            "number": 1,
            "ticks": 19902,
            "time": 64.6168185,
            "value": 0.16535433070866143
          },
          {
            "number": 1,
            "ticks": 19920,
            "time": 64.67526000000001,
            "value": 0.1889763779527559
          },
          {
            "number": 1,
            "ticks": 19947,
            "time": 64.76292225,
            "value": 0.1732283464566929
          },
          {
            "number": 1,
            "ticks": 19962,
            "time": 64.8116235,
            "value": 0.1889763779527559
          },
          {
            "number": 1,
            "ticks": 19980,
            "time": 64.870065,
            "value": 0.1732283464566929
          },
          {
            "number": 1,
            "ticks": 19995,
            "time": 64.91876625,
            "value": 0.1889763779527559
          },
          {
            "number": 1,
            "ticks": 20005,
            "time": 64.95123375,
            "value": 0.1732283464566929
          },
          {
            "number": 1,
            "ticks": 20020,
            "time": 64.99993500000001,
            "value": 0.12598425196850394
          },
          {
            "number": 1,
            "ticks": 20027,
            "time": 65.02266225000001,
            "value": 0.07874015748031496
          },
          {
            "number": 1,
            "ticks": 20037,
            "time": 65.05512975,
            "value": 0
          },
          {
            "number": 1,
            "ticks": 20272,
            "time": 65.818116,
            "value": 0.015748031496062992
          },
          {
            "number": 1,
            "ticks": 20297,
            "time": 65.89928475,
            "value": 0.023622047244094488
          },
          {
            "number": 1,
            "ticks": 20322,
            "time": 65.9804535,
            "value": 0
          },
          {
            "number": 1,
            "ticks": 20352,
            "time": 66.077856,
            "value": 0.023622047244094488
          },
          {
            "number": 1,
            "ticks": 20362,
            "time": 66.1103235,
            "value": 0.047244094488188976
          },
          {
            "number": 1,
            "ticks": 20387,
            "time": 66.19149225000001,
            "value": 0
          },
          {
            "number": 1,
            "ticks": 20427,
            "time": 66.32136224999999,
            "value": 0.03937007874015748
          },
          {
            "number": 1,
            "ticks": 20435,
            "time": 66.34733625,
            "value": 0.06299212598425197
          },
          {
            "number": 1,
            "ticks": 20460,
            "time": 66.428505,
            "value": 0
          },
          {
            "number": 1,
            "ticks": 20497,
            "time": 66.54863475,
            "value": 0.047244094488188976
          },
          {
            "number": 1,
            "ticks": 20515,
            "time": 66.60707625,
            "value": 0.023622047244094488
          },
          {
            "number": 1,
            "ticks": 20522,
            "time": 66.62980350000001,
            "value": 0
          },
          {
            "number": 1,
            "ticks": 20562,
            "time": 66.7596735,
            "value": 0.023622047244094488
          },
          {
            "number": 1,
            "ticks": 20572,
            "time": 66.792141,
            "value": 0.06299212598425197
          },
          {
            "number": 1,
            "ticks": 20580,
            "time": 66.818115,
            "value": 0.047244094488188976
          },
          {
            "number": 1,
            "ticks": 20587,
            "time": 66.84084225000001,
            "value": 0
          },
          {
            "number": 1,
            "ticks": 21232,
            "time": 68.934996,
            "value": 0.015748031496062992
          },
          {
            "number": 1,
            "ticks": 21240,
            "time": 68.96097,
            "value": 0
          },
          {
            "number": 1,
            "ticks": 21247,
            "time": 68.98369725,
            "value": 0.015748031496062992
          },
          {
            "number": 1,
            "ticks": 21257,
            "time": 69.01616475,
            "value": 0
          },
          {
            "number": 1,
            "ticks": 21265,
            "time": 69.04213875,
            "value": 0.047244094488188976
          },
          {
            "number": 1,
            "ticks": 21282,
            "time": 69.0973335,
            "value": 0.06299212598425197
          },
          {
            "number": 1,
            "ticks": 21290,
            "time": 69.1233075,
            "value": 0.07874015748031496
          },
          {
            "number": 1,
            "ticks": 21322,
            "time": 69.2272035,
            "value": 0.06299212598425197
          },
          {
            "number": 1,
            "ticks": 21330,
            "time": 69.2531775,
            "value": 0.06299212598425197
          },
          {
            "number": 1,
            "ticks": 21347,
            "time": 69.30837225,
            "value": 0.08661417322834646
          },
          {
            "number": 1,
            "ticks": 21370,
            "time": 69.3830475,
            "value": 0.047244094488188976
          },
          {
            "number": 1,
            "ticks": 21387,
            "time": 69.43824225,
            "value": 0.07874015748031496
          },
          {
            "number": 1,
            "ticks": 21427,
            "time": 69.56811225,
            "value": 0.047244094488188976
          },
          {
            "number": 1,
            "ticks": 21435,
            "time": 69.59408625,
            "value": 0
          },
          {
            "number": 1,
            "ticks": 22407,
            "time": 72.74992725,
            "value": 0.015748031496062992
          },
          {
            "number": 1,
            "ticks": 22415,
            "time": 72.77590125,
            "value": 0.047244094488188976
          },
          {
            "number": 1,
            "ticks": 22422,
            "time": 72.7986285,
            "value": 0.07874015748031496
          },
          {
            "number": 1,
            "ticks": 22447,
            "time": 72.87979725000001,
            "value": 0.10236220472440945
          },
          {
            "number": 1,
            "ticks": 22465,
            "time": 72.93823875000001,
            "value": 0.08661417322834646
          },
          {
            "number": 1,
            "ticks": 22480,
            "time": 72.98694,
            "value": 0.10236220472440945
          },
          {
            "number": 1,
            "ticks": 22497,
            "time": 73.04213475,
            "value": 0.08661417322834646
          },
          {
            "number": 1,
            "ticks": 22512,
            "time": 73.090836,
            "value": 0.10236220472440945
          },
          {
            "number": 1,
            "ticks": 22522,
            "time": 73.1233035,
            "value": 0.11023622047244094
          },
          {
            "number": 1,
            "ticks": 22545,
            "time": 73.19797875,
            "value": 0.06299212598425197
          },
          {
            "number": 1,
            "ticks": 22587,
            "time": 73.33434225,
            "value": 0.023622047244094488
          },
          {
            "number": 1,
            "ticks": 22595,
            "time": 73.36031625,
            "value": 0
          },
          {
            "number": 1,
            "ticks": 22690,
            "time": 73.66875750000001,
            "value": 0.015748031496062992
          },
          {
            "number": 1,
            "ticks": 22697,
            "time": 73.69148475,
            "value": 0.03937007874015748
          },
          {
            "number": 1,
            "ticks": 22715,
            "time": 73.74992625,
            "value": 0
          },
          {
            "number": 1,
            "ticks": 23270,
            "time": 75.5518725,
            "value": 0.015748031496062992
          },
          {
            "number": 1,
            "ticks": 23312,
            "time": 75.688236,
            "value": 0
          },
          {
            "number": 1,
            "ticks": 23320,
            "time": 75.71421000000001,
            "value": 0.015748031496062992
          },
          {
            "number": 1,
            "ticks": 23327,
            "time": 75.73693725000001,
            "value": 0.03937007874015748
          },
          {
            "number": 1,
            "ticks": 23337,
            "time": 75.76940475,
            "value": 0.015748031496062992
          },
          {
            "number": 1,
            "ticks": 23480,
            "time": 76.23369,
            "value": 0
          },
          {
            "number": 1,
            "ticks": 25092,
            "time": 81.467451,
            "value": 0.023622047244094488
          },
          {
            "number": 1,
            "ticks": 25102,
            "time": 81.4999185,
            "value": 0.06299212598425197
          },
          {
            "number": 1,
            "ticks": 25110,
            "time": 81.5258925,
            "value": 0.08661417322834646
          },
          {
            "number": 1,
            "ticks": 25127,
            "time": 81.58108725000001,
            "value": 0.10236220472440945
          },
          {
            "number": 1,
            "ticks": 25142,
            "time": 81.6297885,
            "value": 0.08661417322834646
          },
          {
            "number": 1,
            "ticks": 25215,
            "time": 81.86680125000001,
            "value": 0.06299212598425197
          },
          {
            "number": 1,
            "ticks": 25222,
            "time": 81.8895285,
            "value": 0.023622047244094488
          },
          {
            "number": 1,
            "ticks": 25255,
            "time": 81.99667125,
            "value": 0
          },
          {
            "number": 1,
            "ticks": 26257,
            "time": 85.24991475,
            "value": 0
          },
          {
            "number": 1,
            "ticks": 26972,
            "time": 87.571341,
            "value": 0.015748031496062992
          },
          {
            "number": 1,
            "ticks": 26980,
            "time": 87.59731500000001,
            "value": 0.047244094488188976
          },
          {
            "number": 1,
            "ticks": 26990,
            "time": 87.6297825,
            "value": 0.16535433070866143
          },
          {
            "number": 1,
            "ticks": 27022,
            "time": 87.73367850000001,
            "value": 0.2125984251968504
          },
          {
            "number": 1,
            "ticks": 27037,
            "time": 87.78237975,
            "value": 0.2283464566929134
          },
          {
            "number": 1,
            "ticks": 27055,
            "time": 87.84082125,
            "value": 0.2125984251968504
          },
          {
            "number": 1,
            "ticks": 27070,
            "time": 87.88952250000001,
            "value": 0.2283464566929134
          },
          {
            "number": 1,
            "ticks": 27087,
            "time": 87.94471725,
            "value": 0.2125984251968504
          },
          {
            "number": 1,
            "ticks": 27102,
            "time": 87.9934185,
            "value": 0.2283464566929134
          },
          {
            "number": 1,
            "ticks": 27120,
            "time": 88.05186,
            "value": 0.2125984251968504
          },
          {
            "number": 1,
            "ticks": 27145,
            "time": 88.13302875000001,
            "value": 0.1968503937007874
          },
          {
            "number": 1,
            "ticks": 27152,
            "time": 88.15575600000001,
            "value": 0.1732283464566929
          },
          {
            "number": 1,
            "ticks": 27192,
            "time": 88.285626,
            "value": 0.11023622047244094
          },
          {
            "number": 1,
            "ticks": 27225,
            "time": 88.39276875,
            "value": 0.023622047244094488
          },
          {
            "number": 1,
            "ticks": 27240,
            "time": 88.44147000000001,
            "value": 0
          },
          {
            "number": 1,
            "ticks": 28915,
            "time": 93.87977625,
            "value": 0.023622047244094488
          },
          {
            "number": 1,
            "ticks": 28925,
            "time": 93.91224375,
            "value": 0.08661417322834646
          },
          {
            "number": 1,
            "ticks": 28965,
            "time": 94.04211375,
            "value": 0.06299212598425197
          },
          {
            "number": 1,
            "ticks": 28972,
            "time": 94.064841,
            "value": 0.023622047244094488
          },
          {
            "number": 1,
            "ticks": 28980,
            "time": 94.090815,
            "value": 0
          },
          {
            "number": 1,
            "ticks": 29022,
            "time": 94.2271785,
            "value": 0.03937007874015748
          },
          {
            "number": 1,
            "ticks": 29037,
            "time": 94.27587975,
            "value": 0
          },
          {
            "number": 1,
            "ticks": 29800,
            "time": 96.75315,
            "value": 0.015748031496062992
          },
          {
            "number": 1,
            "ticks": 29807,
            "time": 96.77587725000001,
            "value": 0.06299212598425197
          },
          {
            "number": 1,
            "ticks": 29817,
            "time": 96.80834475,
            "value": 0.07874015748031496
          },
          {
            "number": 1,
            "ticks": 29840,
            "time": 96.88302,
            "value": 0
          },
          {
            "number": 1,
            "ticks": 29895,
            "time": 97.06159125,
            "value": 0.023622047244094488
          },
          {
            "number": 1,
            "ticks": 29905,
            "time": 97.09405875,
            "value": 0
          },
          {
            "number": 1,
            "ticks": 29985,
            "time": 97.35379875000001,
            "value": 0.015748031496062992
          },
          {
            "number": 1,
            "ticks": 30015,
            "time": 97.45120125,
            "value": 0.015748031496062992
          },
          {
            "number": 1,
            "ticks": 30032,
            "time": 97.50639600000001,
            "value": 0
          },
          {
            "number": 1,
            "ticks": 30087,
            "time": 97.68496725,
            "value": 0.023622047244094488
          },
          {
            "number": 1,
            "ticks": 30095,
            "time": 97.71094125,
            "value": 0.07874015748031496
          },
          {
            "number": 1,
            "ticks": 30120,
            "time": 97.79211000000001,
            "value": 0.047244094488188976
          },
          {
            "number": 1,
            "ticks": 30127,
            "time": 97.81483725000001,
            "value": 0
          },
          {
            "number": 1,
            "ticks": 30160,
            "time": 97.92198,
            "value": 0.023622047244094488
          },
          {
            "number": 1,
            "ticks": 30167,
            "time": 97.94470725000001,
            "value": 0.06299212598425197
          },
          {
            "number": 1,
            "ticks": 30185,
            "time": 98.00314875,
            "value": 0
          },
          {
            "number": 1,
            "ticks": 30232,
            "time": 98.15574600000001,
            "value": 0.023622047244094488
          },
          {
            "number": 1,
            "ticks": 30240,
            "time": 98.18172,
            "value": 0.047244094488188976
          },
          {
            "number": 1,
            "ticks": 30257,
            "time": 98.23691475000001,
            "value": 0.015748031496062992
          },
          {
            "number": 1,
            "ticks": 30265,
            "time": 98.26288875,
            "value": 0
          },
          {
            "number": 1,
            "ticks": 30320,
            "time": 98.44146,
            "value": 0.015748031496062992
          },
          {
            "number": 1,
            "ticks": 30330,
            "time": 98.4739275,
            "value": 0
          },
          {
            "number": 1,
            "ticks": 30790,
            "time": 99.9674325,
            "value": 0.08661417322834646
          },
          {
            "number": 1,
            "ticks": 30797,
            "time": 99.99015975,
            "value": 0.14960629921259844
          },
          {
            "number": 1,
            "ticks": 30807,
            "time": 100.02262725000001,
            "value": 0.1732283464566929
          },
          {
            "number": 1,
            "ticks": 30815,
            "time": 100.04860125,
            "value": 0.1889763779527559
          },
          {
            "number": 1,
            "ticks": 30840,
            "time": 100.12977000000001,
            "value": 0.1732283464566929
          },
          {
            "number": 1,
            "ticks": 30847,
            "time": 100.15249725000001,
            "value": 0.1889763779527559
          },
          {
            "number": 1,
            "ticks": 30865,
            "time": 100.21093875,
            "value": 0.1732283464566929
          },
          {
            "number": 1,
            "ticks": 30895,
            "time": 100.30834125,
            "value": 0.14960629921259844
          },
          {
            "number": 1,
            "ticks": 30920,
            "time": 100.38951000000002,
            "value": 0.13385826771653545
          },
          {
            "number": 1,
            "ticks": 30935,
            "time": 100.43821125000001,
            "value": 0.14960629921259844
          },
          {
            "number": 1,
            "ticks": 30952,
            "time": 100.49340600000001,
            "value": 0.13385826771653545
          },
          {
            "number": 1,
            "ticks": 30967,
            "time": 100.54210725,
            "value": 0.14960629921259844
          },
          {
            "number": 1,
            "ticks": 30985,
            "time": 100.60054875,
            "value": 0.13385826771653545
          },
          {
            "number": 1,
            "ticks": 31000,
            "time": 100.64925,
            "value": 0.14960629921259844
          },
          {
            "number": 1,
            "ticks": 31017,
            "time": 100.70444475000001,
            "value": 0.13385826771653545
          },
          {
            "number": 1,
            "ticks": 31112,
            "time": 101.012886,
            "value": 0.11023622047244094
          },
          {
            "number": 1,
            "ticks": 31127,
            "time": 101.06158725,
            "value": 0.12598425196850394
          },
          {
            "number": 1,
            "ticks": 31145,
            "time": 101.12002875000002,
            "value": 0.11023622047244094
          },
          {
            "number": 1,
            "ticks": 31162,
            "time": 101.1752235,
            "value": 0.12598425196850394
          },
          {
            "number": 1,
            "ticks": 31177,
            "time": 101.22392475000001,
            "value": 0.11023622047244094
          },
          {
            "number": 1,
            "ticks": 31192,
            "time": 101.272626,
            "value": 0.12598425196850394
          },
          {
            "number": 1,
            "ticks": 31210,
            "time": 101.33106749999999,
            "value": 0.07874015748031496
          },
          {
            "number": 1,
            "ticks": 31227,
            "time": 101.38626225000002,
            "value": 0.023622047244094488
          },
          {
            "number": 1,
            "ticks": 31235,
            "time": 101.41223625,
            "value": 0
          },
          {
            "number": 1,
            "ticks": 31972,
            "time": 103.805091,
            "value": 0.015748031496062992
          },
          {
            "number": 1,
            "ticks": 31997,
            "time": 103.88625975,
            "value": 0.06299212598425197
          },
          {
            "number": 1,
            "ticks": 32012,
            "time": 103.934961,
            "value": 0.047244094488188976
          },
          {
            "number": 1,
            "ticks": 32030,
            "time": 103.99340250000002,
            "value": 0.047244094488188976
          },
          {
            "number": 1,
            "ticks": 32045,
            "time": 104.04210375000001,
            "value": 0.023622047244094488
          },
          {
            "number": 1,
            "ticks": 32062,
            "time": 104.09729850000001,
            "value": 0
          },
          {
            "number": 1,
            "ticks": 32862,
            "time": 106.69469850000002,
            "value": 0.015748031496062992
          },
          {
            "number": 1,
            "ticks": 32895,
            "time": 106.80184125000001,
            "value": 0.047244094488188976
          },
          {
            "number": 1,
            "ticks": 32927,
            "time": 106.90573725,
            "value": 0.06299212598425197
          },
          {
            "number": 1,
            "ticks": 32937,
            "time": 106.93820475000001,
            "value": 0.07874015748031496
          },
          {
            "number": 1,
            "ticks": 32952,
            "time": 106.98690600000002,
            "value": 0.06299212598425197
          },
          {
            "number": 1,
            "ticks": 32977,
            "time": 107.06807475000001,
            "value": 0.03937007874015748
          },
          {
            "number": 1,
            "ticks": 33000,
            "time": 107.14275,
            "value": 0
          },
          {
            "number": 1,
            "ticks": 46167,
            "time": 149.89270725,
            "value": 0.06299212598425197
          },
          {
            "number": 1,
            "ticks": 46177,
            "time": 149.92517475,
            "value": 0.10236220472440945
          },
          {
            "number": 1,
            "ticks": 46185,
            "time": 149.95114875000002,
            "value": 0.12598425196850394
          },
          {
            "number": 1,
            "ticks": 46195,
            "time": 149.98361624999998,
            "value": 0.16535433070866143
          },
          {
            "number": 1,
            "ticks": 46210,
            "time": 150.0323175,
            "value": 0.1889763779527559
          },
          {
            "number": 1,
            "ticks": 46227,
            "time": 150.08751225,
            "value": 0.2283464566929134
          },
          {
            "number": 1,
            "ticks": 46242,
            "time": 150.13621350000003,
            "value": 0.2125984251968504
          },
          {
            "number": 1,
            "ticks": 46282,
            "time": 150.2660835,
            "value": 0.2283464566929134
          },
          {
            "number": 1,
            "ticks": 46330,
            "time": 150.4219275,
            "value": 0.2125984251968504
          },
          {
            "number": 1,
            "ticks": 46347,
            "time": 150.47712225,
            "value": 0.2283464566929134
          },
          {
            "number": 1,
            "ticks": 46362,
            "time": 150.5258235,
            "value": 0.2125984251968504
          },
          {
            "number": 1,
            "ticks": 46372,
            "time": 150.558291,
            "value": 0.1968503937007874
          },
          {
            "number": 1,
            "ticks": 46387,
            "time": 150.60699225000002,
            "value": 0.2125984251968504
          },
          {
            "number": 1,
            "ticks": 46397,
            "time": 150.63945975,
            "value": 0.2125984251968504
          },
          {
            "number": 1,
            "ticks": 46412,
            "time": 150.688161,
            "value": 0.1968503937007874
          },
          {
            "number": 1,
            "ticks": 46422,
            "time": 150.7206285,
            "value": 0.2125984251968504
          },
          {
            "number": 1,
            "ticks": 46430,
            "time": 150.74660250000002,
            "value": 0.1968503937007874
          },
          {
            "number": 1,
            "ticks": 46492,
            "time": 150.947901,
            "value": 0.1732283464566929
          },
          {
            "number": 1,
            "ticks": 46580,
            "time": 151.23361500000001,
            "value": 0.1889763779527559
          },
          {
            "number": 1,
            "ticks": 46597,
            "time": 151.28880975,
            "value": 0.1732283464566929
          },
          {
            "number": 1,
            "ticks": 46612,
            "time": 151.337511,
            "value": 0.1889763779527559
          },
          {
            "number": 1,
            "ticks": 46620,
            "time": 151.363485,
            "value": 0.1732283464566929
          },
          {
            "number": 1,
            "ticks": 46677,
            "time": 151.54854975,
            "value": 0.1889763779527559
          },
          {
            "number": 1,
            "ticks": 46692,
            "time": 151.597251,
            "value": 0.1732283464566929
          },
          {
            "number": 1,
            "ticks": 46710,
            "time": 151.65569250000001,
            "value": 0.1732283464566929
          },
          {
            "number": 1,
            "ticks": 46742,
            "time": 151.7595885,
            "value": 0.1889763779527559
          },
          {
            "number": 1,
            "ticks": 46755,
            "time": 151.80179625,
            "value": 0.1732283464566929
          },
          {
            "number": 1,
            "ticks": 46772,
            "time": 151.856991,
            "value": 0.1889763779527559
          },
          {
            "number": 1,
            "ticks": 46782,
            "time": 151.88945850000002,
            "value": 0.16535433070866143
          },
          {
            "number": 1,
            "ticks": 46800,
            "time": 151.9479,
            "value": 0.1889763779527559
          },
          {
            "number": 1,
            "ticks": 46827,
            "time": 152.03556225000003,
            "value": 0.1732283464566929
          },
          {
            "number": 1,
            "ticks": 46842,
            "time": 152.08426350000002,
            "value": 0.1889763779527559
          },
          {
            "number": 1,
            "ticks": 46860,
            "time": 152.142705,
            "value": 0.1732283464566929
          },
          {
            "number": 1,
            "ticks": 46875,
            "time": 152.19140625,
            "value": 0.1889763779527559
          },
          {
            "number": 1,
            "ticks": 46885,
            "time": 152.22387375,
            "value": 0.1732283464566929
          },
          {
            "number": 1,
            "ticks": 46900,
            "time": 152.272575,
            "value": 0.12598425196850394
          },
          {
            "number": 1,
            "ticks": 46907,
            "time": 152.29530225,
            "value": 0.07874015748031496
          },
          {
            "number": 1,
            "ticks": 46917,
            "time": 152.32776975000002,
            "value": 0.023622047244094488
          },
          {
            "number": 1,
            "ticks": 46925,
            "time": 152.35374375,
            "value": 0
          },
          {
            "number": 1,
            "ticks": 47152,
            "time": 153.090756,
            "value": 0.015748031496062992
          },
          {
            "number": 1,
            "ticks": 47177,
            "time": 153.17192475,
            "value": 0.047244094488188976
          },
          {
            "number": 1,
            "ticks": 47185,
            "time": 153.19789875,
            "value": 0.023622047244094488
          },
          {
            "number": 1,
            "ticks": 47202,
            "time": 153.2530935,
            "value": 0
          },
          {
            "number": 1,
            "ticks": 47232,
            "time": 153.35049600000002,
            "value": 0.023622047244094488
          },
          {
            "number": 1,
            "ticks": 47242,
            "time": 153.38296350000002,
            "value": 0.06299212598425197
          },
          {
            "number": 1,
            "ticks": 47250,
            "time": 153.4089375,
            "value": 0.047244094488188976
          },
          {
            "number": 1,
            "ticks": 47267,
            "time": 153.46413225,
            "value": 0.015748031496062992
          },
          {
            "number": 1,
            "ticks": 47275,
            "time": 153.49010625,
            "value": 0
          },
          {
            "number": 1,
            "ticks": 47307,
            "time": 153.59400225000002,
            "value": 0.06299212598425197
          },
          {
            "number": 1,
            "ticks": 47340,
            "time": 153.701145,
            "value": 0
          },
          {
            "number": 1,
            "ticks": 47377,
            "time": 153.82127475000001,
            "value": 0.023622047244094488
          },
          {
            "number": 1,
            "ticks": 47387,
            "time": 153.85374225,
            "value": 0.023622047244094488
          },
          {
            "number": 1,
            "ticks": 47402,
            "time": 153.9024435,
            "value": 0
          },
          {
            "number": 1,
            "ticks": 47442,
            "time": 154.03231350000001,
            "value": 0.023622047244094488
          },
          {
            "number": 1,
            "ticks": 47452,
            "time": 154.064781,
            "value": 0.047244094488188976
          },
          {
            "number": 1,
            "ticks": 47467,
            "time": 154.11348225,
            "value": 0.023622047244094488
          },
          {
            "number": 1,
            "ticks": 47477,
            "time": 154.14594975,
            "value": 0
          },
          {
            "number": 1,
            "ticks": 48112,
            "time": 156.207636,
            "value": 0.015748031496062992
          },
          {
            "number": 1,
            "ticks": 48120,
            "time": 156.23361,
            "value": 0
          },
          {
            "number": 1,
            "ticks": 48127,
            "time": 156.25633725,
            "value": 0
          },
          {
            "number": 1,
            "ticks": 48145,
            "time": 156.31477875,
            "value": 0.015748031496062992
          },
          {
            "number": 1,
            "ticks": 48152,
            "time": 156.337506,
            "value": 0.047244094488188976
          },
          {
            "number": 1,
            "ticks": 48162,
            "time": 156.36997350000001,
            "value": 0.07874015748031496
          },
          {
            "number": 1,
            "ticks": 48202,
            "time": 156.4998435,
            "value": 0.06299212598425197
          },
          {
            "number": 1,
            "ticks": 48210,
            "time": 156.52581750000002,
            "value": 0.047244094488188976
          },
          {
            "number": 1,
            "ticks": 48217,
            "time": 156.54854475000002,
            "value": 0.08661417322834646
          },
          {
            "number": 1,
            "ticks": 48250,
            "time": 156.6556875,
            "value": 0.047244094488188976
          },
          {
            "number": 1,
            "ticks": 48267,
            "time": 156.71088225000003,
            "value": 0.06299212598425197
          },
          {
            "number": 1,
            "ticks": 48275,
            "time": 156.73685625000002,
            "value": 0.07874015748031496
          },
          {
            "number": 1,
            "ticks": 48307,
            "time": 156.84075225,
            "value": 0
          },
          {
            "number": 1,
            "ticks": 49287,
            "time": 160.02256725,
            "value": 0.047244094488188976
          },
          {
            "number": 1,
            "ticks": 49302,
            "time": 160.0712685,
            "value": 0.07874015748031496
          },
          {
            "number": 1,
            "ticks": 49327,
            "time": 160.15243725000002,
            "value": 0.10236220472440945
          },
          {
            "number": 1,
            "ticks": 49345,
            "time": 160.21087875,
            "value": 0.08661417322834646
          },
          {
            "number": 1,
            "ticks": 49360,
            "time": 160.25958,
            "value": 0.10236220472440945
          },
          {
            "number": 1,
            "ticks": 49377,
            "time": 160.31477475000003,
            "value": 0.08661417322834646
          },
          {
            "number": 1,
            "ticks": 49392,
            "time": 160.36347600000002,
            "value": 0.10236220472440945
          },
          {
            "number": 1,
            "ticks": 49402,
            "time": 160.39594350000002,
            "value": 0.12598425196850394
          },
          {
            "number": 1,
            "ticks": 49410,
            "time": 160.4219175,
            "value": 0.11023622047244094
          },
          {
            "number": 1,
            "ticks": 49425,
            "time": 160.47061875,
            "value": 0.07874015748031496
          },
          {
            "number": 1,
            "ticks": 49435,
            "time": 160.50308625,
            "value": 0.06299212598425197
          },
          {
            "number": 1,
            "ticks": 49467,
            "time": 160.60698225000002,
            "value": 0
          },
          {
            "number": 1,
            "ticks": 49570,
            "time": 160.9413975,
            "value": 0.03937007874015748
          },
          {
            "number": 1,
            "ticks": 49595,
            "time": 161.02256625,
            "value": 0.015748031496062992
          },
          {
            "number": 1,
            "ticks": 49602,
            "time": 161.0452935,
            "value": 0
          },
          {
            "number": 1,
            "ticks": 50150,
            "time": 162.82451250000003,
            "value": 0.015748031496062992
          },
          {
            "number": 1,
            "ticks": 50192,
            "time": 162.960876,
            "value": 0
          },
          {
            "number": 1,
            "ticks": 50200,
            "time": 162.98685,
            "value": 0.03937007874015748
          },
          {
            "number": 1,
            "ticks": 50217,
            "time": 163.04204475,
            "value": 0.015748031496062992
          },
          {
            "number": 1,
            "ticks": 50360,
            "time": 163.50633000000002,
            "value": 0
          },
          {
            "number": 1,
            "ticks": 51972,
            "time": 168.740091,
            "value": 0.023622047244094488
          },
          {
            "number": 1,
            "ticks": 51982,
            "time": 168.7725585,
            "value": 0.06299212598425197
          },
          {
            "number": 1,
            "ticks": 51990,
            "time": 168.7985325,
            "value": 0.10236220472440945
          },
          {
            "number": 1,
            "ticks": 51997,
            "time": 168.82125975,
            "value": 0.10236220472440945
          },
          {
            "number": 1,
            "ticks": 52022,
            "time": 168.9024285,
            "value": 0.08661417322834646
          },
          {
            "number": 1,
            "ticks": 52095,
            "time": 169.13944125,
            "value": 0.06299212598425197
          },
          {
            "number": 1,
            "ticks": 52102,
            "time": 169.1621685,
            "value": 0.047244094488188976
          },
          {
            "number": 1,
            "ticks": 52110,
            "time": 169.1881425,
            "value": 0.023622047244094488
          },
          {
            "number": 1,
            "ticks": 52135,
            "time": 169.26931125,
            "value": 0
          },
          {
            "number": 1,
            "ticks": 53137,
            "time": 172.52255475,
            "value": 0.015748031496062992
          },
          {
            "number": 1,
            "ticks": 53147,
            "time": 172.55502225,
            "value": 0
          },
          {
            "number": 1,
            "ticks": 53852,
            "time": 174.84398099999999,
            "value": 0.015748031496062992
          },
          {
            "number": 1,
            "ticks": 53860,
            "time": 174.869955,
            "value": 0.047244094488188976
          },
          {
            "number": 1,
            "ticks": 53870,
            "time": 174.9024225,
            "value": 0.12598425196850394
          },
          {
            "number": 1,
            "ticks": 53877,
            "time": 174.92514975,
            "value": 0.16535433070866143
          },
          {
            "number": 1,
            "ticks": 53902,
            "time": 175.00631850000002,
            "value": 0.1968503937007874
          },
          {
            "number": 1,
            "ticks": 53910,
            "time": 175.0322925,
            "value": 0.2283464566929134
          },
          {
            "number": 1,
            "ticks": 53935,
            "time": 175.11346125,
            "value": 0.2125984251968504
          },
          {
            "number": 1,
            "ticks": 53950,
            "time": 175.1621625,
            "value": 0.2283464566929134
          },
          {
            "number": 1,
            "ticks": 53967,
            "time": 175.21735725000002,
            "value": 0.2125984251968504
          },
          {
            "number": 1,
            "ticks": 53982,
            "time": 175.2660585,
            "value": 0.2283464566929134
          },
          {
            "number": 1,
            "ticks": 54000,
            "time": 175.3245,
            "value": 0.2125984251968504
          },
          {
            "number": 1,
            "ticks": 54025,
            "time": 175.40566875,
            "value": 0.1732283464566929
          },
          {
            "number": 1,
            "ticks": 54072,
            "time": 175.558266,
            "value": 0.12598425196850394
          },
          {
            "number": 1,
            "ticks": 54080,
            "time": 175.58424000000002,
            "value": 0.11023622047244094
          },
          {
            "number": 1,
            "ticks": 54105,
            "time": 175.66540875,
            "value": 0.06299212598425197
          },
          {
            "number": 1,
            "ticks": 54112,
            "time": 175.68813600000001,
            "value": 0
          },
          {
            "number": 1,
            "ticks": 55795,
            "time": 181.15241625,
            "value": 0.023622047244094488
          },
          {
            "number": 1,
            "ticks": 55805,
            "time": 181.18488375,
            "value": 0.06299212598425197
          },
          {
            "number": 1,
            "ticks": 55812,
            "time": 181.207611,
            "value": 0.08661417322834646
          },
          {
            "number": 1,
            "ticks": 55845,
            "time": 181.31475375,
            "value": 0.023622047244094488
          },
          {
            "number": 1,
            "ticks": 55860,
            "time": 181.36345500000002,
            "value": 0
          },
          {
            "number": 1,
            "ticks": 55902,
            "time": 181.4998185,
            "value": 0.03937007874015748
          },
          {
            "number": 1,
            "ticks": 55917,
            "time": 181.54851975000003,
            "value": 0.023622047244094488
          },
          {
            "number": 1,
            "ticks": 55925,
            "time": 181.57449375000002,
            "value": 0
          },
          {
            "number": 1,
            "ticks": 56680,
            "time": 184.02579,
            "value": 0.06299212598425197
          },
          {
            "number": 1,
            "ticks": 56697,
            "time": 184.08098475000003,
            "value": 0.07874015748031496
          },
          {
            "number": 1,
            "ticks": 56720,
            "time": 184.15566,
            "value": 0
          },
          {
            "number": 1,
            "ticks": 56775,
            "time": 184.33423125000002,
            "value": 0.023622047244094488
          },
          {
            "number": 1,
            "ticks": 56785,
            "time": 184.36669875,
            "value": 0
          },
          {
            "number": 1,
            "ticks": 56865,
            "time": 184.62643875,
            "value": 0.015748031496062992
          },
          {
            "number": 1,
            "ticks": 56895,
            "time": 184.72384125,
            "value": 0.047244094488188976
          },
          {
            "number": 1,
            "ticks": 56902,
            "time": 184.7465685,
            "value": 0
          },
          {
            "number": 1,
            "ticks": 56967,
            "time": 184.95760725000002,
            "value": 0.023622047244094488
          },
          {
            "number": 1,
            "ticks": 56975,
            "time": 184.98358125000001,
            "value": 0.07874015748031496
          },
          {
            "number": 1,
            "ticks": 57000,
            "time": 185.06475,
            "value": 0.047244094488188976
          },
          {
            "number": 1,
            "ticks": 57007,
            "time": 185.08747725,
            "value": 0
          },
          {
            "number": 1,
            "ticks": 57040,
            "time": 185.19462,
            "value": 0.06299212598425197
          },
          {
            "number": 1,
            "ticks": 57065,
            "time": 185.27578875,
            "value": 0
          },
          {
            "number": 1,
            "ticks": 57112,
            "time": 185.42838600000002,
            "value": 0.023622047244094488
          },
          {
            "number": 1,
            "ticks": 57122,
            "time": 185.4608535,
            "value": 0.047244094488188976
          },
          {
            "number": 1,
            "ticks": 57137,
            "time": 185.50955475,
            "value": 0.015748031496062992
          },
          {
            "number": 1,
            "ticks": 57145,
            "time": 185.53552875,
            "value": 0
          },
          {
            "number": 1,
            "ticks": 57200,
            "time": 185.7141,
            "value": 0.015748031496062992
          },
          {
            "number": 1,
            "ticks": 57210,
            "time": 185.7465675,
            "value": 0
          },
          {
            "number": 1,
            "ticks": 57670,
            "time": 187.2400725,
            "value": 0.14960629921259844
          },
          {
            "number": 1,
            "ticks": 57687,
            "time": 187.29526725000002,
            "value": 0.1732283464566929
          },
          {
            "number": 1,
            "ticks": 57695,
            "time": 187.32124125,
            "value": 0.1889763779527559
          },
          {
            "number": 1,
            "ticks": 57720,
            "time": 187.40241,
            "value": 0.1732283464566929
          },
          {
            "number": 1,
            "ticks": 57727,
            "time": 187.42513725,
            "value": 0.1889763779527559
          },
          {
            "number": 1,
            "ticks": 57745,
            "time": 187.48357875,
            "value": 0.1732283464566929
          },
          {
            "number": 1,
            "ticks": 57775,
            "time": 187.58098125,
            "value": 0.14960629921259844
          },
          {
            "number": 1,
            "ticks": 57800,
            "time": 187.66215000000003,
            "value": 0.13385826771653545
          },
          {
            "number": 1,
            "ticks": 57815,
            "time": 187.71085125000002,
            "value": 0.14960629921259844
          },
          {
            "number": 1,
            "ticks": 57832,
            "time": 187.76604600000002,
            "value": 0.13385826771653545
          },
          {
            "number": 1,
            "ticks": 57847,
            "time": 187.81474725,
            "value": 0.14960629921259844
          },
          {
            "number": 1,
            "ticks": 57865,
            "time": 187.87318875,
            "value": 0.13385826771653545
          },
          {
            "number": 1,
            "ticks": 57880,
            "time": 187.92189,
            "value": 0.14960629921259844
          },
          {
            "number": 1,
            "ticks": 57897,
            "time": 187.97708475000002,
            "value": 0.13385826771653545
          },
          {
            "number": 1,
            "ticks": 57992,
            "time": 188.285526,
            "value": 0.11023622047244094
          },
          {
            "number": 1,
            "ticks": 58007,
            "time": 188.33422725,
            "value": 0.12598425196850394
          },
          {
            "number": 1,
            "ticks": 58025,
            "time": 188.39266875,
            "value": 0.11023622047244094
          },
          {
            "number": 1,
            "ticks": 58042,
            "time": 188.4478635,
            "value": 0.12598425196850394
          },
          {
            "number": 1,
            "ticks": 58057,
            "time": 188.49656475,
            "value": 0.11023622047244094
          },
          {
            "number": 1,
            "ticks": 58072,
            "time": 188.545266,
            "value": 0.12598425196850394
          },
          {
            "number": 1,
            "ticks": 58090,
            "time": 188.60370749999998,
            "value": 0.11023622047244094
          },
          {
            "number": 1,
            "ticks": 58097,
            "time": 188.62643475,
            "value": 0.07874015748031496
          },
          {
            "number": 1,
            "ticks": 58107,
            "time": 188.65890225,
            "value": 0
          },
          {
            "number": 1,
            "ticks": 58852,
            "time": 191.077731,
            "value": 0.015748031496062992
          },
          {
            "number": 1,
            "ticks": 58877,
            "time": 191.15889975,
            "value": 0.06299212598425197
          },
          {
            "number": 1,
            "ticks": 58892,
            "time": 191.207601,
            "value": 0.047244094488188976
          },
          {
            "number": 1,
            "ticks": 58910,
            "time": 191.26604250000003,
            "value": 0.06299212598425197
          },
          {
            "number": 1,
            "ticks": 58917,
            "time": 191.28876975000003,
            "value": 0.023622047244094488
          },
          {
            "number": 1,
            "ticks": 58942,
            "time": 191.36993850000002,
            "value": 0
          },
          {
            "number": 1,
            "ticks": 59742,
            "time": 193.9673385,
            "value": 0.015748031496062992
          },
          {
            "number": 1,
            "ticks": 59775,
            "time": 194.07448125000002,
            "value": 0.047244094488188976
          },
          {
            "number": 1,
            "ticks": 59807,
            "time": 194.17837725,
            "value": 0.06299212598425197
          },
          {
            "number": 1,
            "ticks": 59817,
            "time": 194.21084475,
            "value": 0.07874015748031496
          },
          {
            "number": 1,
            "ticks": 59832,
            "time": 194.25954600000003,
            "value": 0.06299212598425197
          },
          {
            "number": 1,
            "ticks": 59857,
            "time": 194.34071475000002,
            "value": 0.03937007874015748
          },
          {
            "number": 1,
            "ticks": 59880,
            "time": 194.41539,
            "value": 0
          },
          {
            "number": 1,
            "ticks": 79232,
            "time": 257.246496,
            "value": 0.023622047244094488
          },
          {
            "number": 1,
            "ticks": 79240,
            "time": 257.27247,
            "value": 0.03937007874015748
          },
          {
            "number": 1,
            "ticks": 79250,
            "time": 257.3049375,
            "value": 0.023622047244094488
          },
          {
            "number": 1,
            "ticks": 79277,
            "time": 257.39259975,
            "value": 0
          },
          {
            "number": 1,
            "ticks": 80622,
            "time": 261.7594785,
            "value": 0.015748031496062992
          },
          {
            "number": 1,
            "ticks": 80640,
            "time": 261.81792,
            "value": 0.047244094488188976
          },
          {
            "number": 1,
            "ticks": 80675,
            "time": 261.93155624999997,
            "value": 0.06299212598425197
          },
          {
            "number": 1,
            "ticks": 80692,
            "time": 261.98675099999997,
            "value": 0.047244094488188976
          },
          {
            "number": 1,
            "ticks": 80702,
            "time": 262.0192185,
            "value": 0.06299212598425197
          },
          {
            "number": 1,
            "ticks": 80720,
            "time": 262.07766,
            "value": 0.07874015748031496
          },
          {
            "number": 1,
            "ticks": 80762,
            "time": 262.2140235,
            "value": 0.10236220472440945
          },
          {
            "number": 1,
            "ticks": 80772,
            "time": 262.246491,
            "value": 0.12598425196850394
          },
          {
            "number": 1,
            "ticks": 80790,
            "time": 262.3049325,
            "value": 0.11023622047244094
          },
          {
            "number": 1,
            "ticks": 80832,
            "time": 262.441296,
            "value": 0.12598425196850394
          },
          {
            "number": 1,
            "ticks": 80850,
            "time": 262.4997375,
            "value": 0.11023622047244094
          },
          {
            "number": 1,
            "ticks": 80877,
            "time": 262.58739975000003,
            "value": 0.12598425196850394
          },
          {
            "number": 1,
            "ticks": 80902,
            "time": 262.6685685,
            "value": 0.14960629921259844
          },
          {
            "number": 1,
            "ticks": 80912,
            "time": 262.701036,
            "value": 0.1968503937007874
          },
          {
            "number": 1,
            "ticks": 80972,
            "time": 262.895841,
            "value": 0.1732283464566929
          },
          {
            "number": 1,
            "ticks": 81007,
            "time": 263.00947725,
            "value": 0.13385826771653545
          },
          {
            "number": 1,
            "ticks": 81015,
            "time": 263.03545125,
            "value": 0.11023622047244094
          },
          {
            "number": 1,
            "ticks": 81025,
            "time": 263.06791875000005,
            "value": 0.08661417322834646
          },
          {
            "number": 1,
            "ticks": 81035,
            "time": 263.10038625,
            "value": 0.023622047244094488
          },
          {
            "number": 1,
            "ticks": 81052,
            "time": 263.155581,
            "value": 0
          }
        ],
        "7": [
          {
            "number": 7,
            "ticks": 285,
            "time": 0.92532375,
            "value": 0.8661417322834646
          }
        ],
        "11": [
          {
            "number": 11,
            "ticks": 285,
            "time": 0.92532375,
            "value": 1
          },
          {
            "number": 11,
            "ticks": 78730,
            "time": 255.61662750000002,
            "value": 0.5433070866141733
          },
          {
            "number": 11,
            "ticks": 78750,
            "time": 255.6815625,
            "value": 0.5905511811023622
          },
          {
            "number": 11,
            "ticks": 78780,
            "time": 255.778965,
            "value": 0.6377952755905512
          },
          {
            "number": 11,
            "ticks": 78800,
            "time": 255.8439,
            "value": 0.7086614173228346
          },
          {
            "number": 11,
            "ticks": 78810,
            "time": 255.87636750000001,
            "value": 0.7165354330708661
          },
          {
            "number": 11,
            "ticks": 78820,
            "time": 255.908835,
            "value": 0.7322834645669292
          },
          {
            "number": 11,
            "ticks": 78840,
            "time": 255.97377,
            "value": 0.7716535433070866
          },
          {
            "number": 11,
            "ticks": 78860,
            "time": 256.038705,
            "value": 0.7952755905511811
          },
          {
            "number": 11,
            "ticks": 78870,
            "time": 256.0711725,
            "value": 0.8031496062992126
          },
          {
            "number": 11,
            "ticks": 78890,
            "time": 256.1361075,
            "value": 0.8188976377952756
          },
          {
            "number": 11,
            "ticks": 78900,
            "time": 256.16857500000003,
            "value": 0.8267716535433071
          },
          {
            "number": 11,
            "ticks": 78920,
            "time": 256.23350999999997,
            "value": 0.84251968503937
          },
          {
            "number": 11,
            "ticks": 78930,
            "time": 256.2659775,
            "value": 0.8661417322834646
          },
          {
            "number": 11,
            "ticks": 78980,
            "time": 256.428315,
            "value": 0.8740157480314961
          },
          {
            "number": 11,
            "ticks": 78990,
            "time": 256.4607825,
            "value": 0.889763779527559
          },
          {
            "number": 11,
            "ticks": 79010,
            "time": 256.5257175,
            "value": 0.9133858267716536
          },
          {
            "number": 11,
            "ticks": 79020,
            "time": 256.558185,
            "value": 0.937007874015748
          },
          {
            "number": 11,
            "ticks": 79050,
            "time": 256.6555875,
            "value": 0.9606299212598425
          },
          {
            "number": 11,
            "ticks": 79070,
            "time": 256.7205225,
            "value": 1
          },
          {
            "number": 11,
            "ticks": 83270,
            "time": 270.3568725,
            "value": 0.984251968503937
          },
          {
            "number": 11,
            "ticks": 83280,
            "time": 270.38934,
            "value": 0.968503937007874
          },
          {
            "number": 11,
            "ticks": 83290,
            "time": 270.4218075,
            "value": 0.9606299212598425
          },
          {
            "number": 11,
            "ticks": 83300,
            "time": 270.454275,
            "value": 0.952755905511811
          },
          {
            "number": 11,
            "ticks": 83310,
            "time": 270.4867425,
            "value": 0.937007874015748
          },
          {
            "number": 11,
            "ticks": 83320,
            "time": 270.51921000000004,
            "value": 0.9291338582677166
          },
          {
            "number": 11,
            "ticks": 83330,
            "time": 270.5516775,
            "value": 0.9133858267716536
          },
          {
            "number": 11,
            "ticks": 83340,
            "time": 270.58414500000003,
            "value": 0.8976377952755905
          },
          {
            "number": 11,
            "ticks": 83360,
            "time": 270.64907999999997,
            "value": 0.8818897637795275
          },
          {
            "number": 11,
            "ticks": 83370,
            "time": 270.6815475,
            "value": 0.8740157480314961
          },
          {
            "number": 11,
            "ticks": 83380,
            "time": 270.714015,
            "value": 0.8661417322834646
          },
          {
            "number": 11,
            "ticks": 83390,
            "time": 270.7464825,
            "value": 0.8503937007874016
          },
          {
            "number": 11,
            "ticks": 83400,
            "time": 270.77895,
            "value": 0.84251968503937
          },
          {
            "number": 11,
            "ticks": 83410,
            "time": 270.8114175,
            "value": 0.8346456692913385
          },
          {
            "number": 11,
            "ticks": 83420,
            "time": 270.843885,
            "value": 0.8188976377952756
          },
          {
            "number": 11,
            "ticks": 83430,
            "time": 270.8763525,
            "value": 0.7952755905511811
          },
          {
            "number": 11,
            "ticks": 83450,
            "time": 270.9412875,
            "value": 0.7874015748031497
          },
          {
            "number": 11,
            "ticks": 83460,
            "time": 270.973755,
            "value": 0.7795275590551181
          },
          {
            "number": 11,
            "ticks": 83470,
            "time": 271.00622250000004,
            "value": 0.7637795275590551
          },
          {
            "number": 11,
            "ticks": 83480,
            "time": 271.03869,
            "value": 0.7559055118110236
          },
          {
            "number": 11,
            "ticks": 83490,
            "time": 271.0711575,
            "value": 0.7480314960629921
          },
          {
            "number": 11,
            "ticks": 83500,
            "time": 271.103625,
            "value": 0.7322834645669292
          },
          {
            "number": 11,
            "ticks": 83510,
            "time": 271.1360925,
            "value": 0.7244094488188977
          },
          {
            "number": 11,
            "ticks": 83520,
            "time": 271.16856,
            "value": 0.7007874015748031
          },
          {
            "number": 11,
            "ticks": 83540,
            "time": 271.233495,
            "value": 0.6929133858267716
          },
          {
            "number": 11,
            "ticks": 83550,
            "time": 271.2659625,
            "value": 0.6850393700787402
          },
          {
            "number": 11,
            "ticks": 83560,
            "time": 271.29843,
            "value": 0.6692913385826772
          },
          {
            "number": 11,
            "ticks": 83570,
            "time": 271.3308975,
            "value": 0.6614173228346457
          },
          {
            "number": 11,
            "ticks": 83580,
            "time": 271.363365,
            "value": 0.6456692913385826
          },
          {
            "number": 11,
            "ticks": 83590,
            "time": 271.39583250000004,
            "value": 0.6377952755905512
          },
          {
            "number": 11,
            "ticks": 83600,
            "time": 271.4283,
            "value": 0.6299212598425197
          },
          {
            "number": 11,
            "ticks": 83610,
            "time": 271.46076750000003,
            "value": 0.6062992125984252
          },
          {
            "number": 11,
            "ticks": 83630,
            "time": 271.52570249999997,
            "value": 0.5984251968503937
          },
          {
            "number": 11,
            "ticks": 83640,
            "time": 271.55817,
            "value": 0.5826771653543307
          },
          {
            "number": 11,
            "ticks": 83650,
            "time": 271.5906375,
            "value": 0.5748031496062992
          },
          {
            "number": 11,
            "ticks": 83660,
            "time": 271.623105,
            "value": 0.5669291338582677
          },
          {
            "number": 11,
            "ticks": 83670,
            "time": 271.6555725,
            "value": 0.5511811023622047
          },
          {
            "number": 11,
            "ticks": 83680,
            "time": 271.68804,
            "value": 0.5433070866141733
          },
          {
            "number": 11,
            "ticks": 83690,
            "time": 271.7205075,
            "value": 0.5275590551181102
          },
          {
            "number": 11,
            "ticks": 83700,
            "time": 271.752975,
            "value": 0.5118110236220472
          },
          {
            "number": 11,
            "ticks": 83720,
            "time": 271.81791,
            "value": 0.49606299212598426
          },
          {
            "number": 11,
            "ticks": 83730,
            "time": 271.85037750000004,
            "value": 0.4881889763779528
          },
          {
            "number": 11,
            "ticks": 83740,
            "time": 271.88284500000003,
            "value": 0.48031496062992124
          },
          {
            "number": 11,
            "ticks": 83750,
            "time": 271.91531249999997,
            "value": 0.4645669291338583
          },
          {
            "number": 11,
            "ticks": 83760,
            "time": 271.94778,
            "value": 0.4566929133858268
          },
          {
            "number": 11,
            "ticks": 83770,
            "time": 271.9802475,
            "value": 0.44881889763779526
          },
          {
            "number": 11,
            "ticks": 83780,
            "time": 272.012715,
            "value": 0.4330708661417323
          },
          {
            "number": 11,
            "ticks": 83790,
            "time": 272.0451825,
            "value": 0.41732283464566927
          },
          {
            "number": 11,
            "ticks": 83810,
            "time": 272.1101175,
            "value": 0.4015748031496063
          },
          {
            "number": 11,
            "ticks": 83820,
            "time": 272.142585,
            "value": 0.3937007874015748
          },
          {
            "number": 11,
            "ticks": 83830,
            "time": 272.17505250000005,
            "value": 0.3779527559055118
          },
          {
            "number": 11,
            "ticks": 83840,
            "time": 272.20752,
            "value": 0.3700787401574803
          },
          {
            "number": 11,
            "ticks": 83850,
            "time": 272.2399875,
            "value": 0.36220472440944884
          },
          {
            "number": 11,
            "ticks": 83860,
            "time": 272.27245500000004,
            "value": 0.3464566929133858
          },
          {
            "number": 11,
            "ticks": 83870,
            "time": 272.3049225,
            "value": 0.33858267716535434
          },
          {
            "number": 11,
            "ticks": 83880,
            "time": 272.33739,
            "value": 0.31496062992125984
          },
          {
            "number": 11,
            "ticks": 83900,
            "time": 272.402325,
            "value": 0.30708661417322836
          },
          {
            "number": 11,
            "ticks": 83910,
            "time": 272.4347925,
            "value": 0.2992125984251969
          },
          {
            "number": 11,
            "ticks": 83920,
            "time": 272.46726,
            "value": 0.28346456692913385
          },
          {
            "number": 11,
            "ticks": 83930,
            "time": 272.4997275,
            "value": 0.2755905511811024
          },
          {
            "number": 11,
            "ticks": 83940,
            "time": 272.532195,
            "value": 0.25984251968503935
          },
          {
            "number": 11,
            "ticks": 83950,
            "time": 272.5646625,
            "value": 0.25196850393700787
          },
          {
            "number": 11,
            "ticks": 83960,
            "time": 272.59713,
            "value": 0.2440944881889764
          },
          {
            "number": 11,
            "ticks": 83970,
            "time": 272.6295975,
            "value": 0.2204724409448819
          },
          {
            "number": 11,
            "ticks": 83990,
            "time": 272.6945325,
            "value": 0.2125984251968504
          },
          {
            "number": 11,
            "ticks": 84000,
            "time": 272.72700000000003,
            "value": 0.1968503937007874
          },
          {
            "number": 11,
            "ticks": 84010,
            "time": 272.7594675,
            "value": 1
          }
        ],
        "91": [
          {
            "number": 91,
            "ticks": 287,
            "time": 0.93181725,
            "value": 0.5118110236220472
          }
        ],
        "93": [
          {
            "number": 93,
            "ticks": 287,
            "time": 0.93181725,
            "value": 0
          }
        ]
      },
      "pitchBends": [],
      "instrument": {
        "family": "reed",
        "number": 65,
        "name": "alto sax"
      },
      "name": "",
      "notes": [
        {
          "duration": 0.39935025000000124,
          "durationTicks": 123,
          "midi": 57,
          "name": "A3",
          "ticks": 3727,
          "time": 12.10063725,
          "velocity": 0.6456692913385826
        },
        {
          "duration": 2.061686250000001,
          "durationTicks": 635,
          "midi": 66,
          "name": "F#4",
          "ticks": 3847,
          "time": 12.49024725,
          "velocity": 0.5354330708661418
        },
        {
          "duration": 0.18831150000000108,
          "durationTicks": 58,
          "midi": 57,
          "name": "A3",
          "ticks": 4507,
          "time": 14.633102249999999,
          "velocity": 0.5511811023622047
        },
        {
          "duration": 0.5422072500000006,
          "durationTicks": 167,
          "midi": 66,
          "name": "F#4",
          "ticks": 4570,
          "time": 14.837647500000001,
          "velocity": 0.5354330708661418
        },
        {
          "duration": 0.26623349999999846,
          "durationTicks": 82,
          "midi": 64,
          "name": "E4",
          "ticks": 4735,
          "time": 15.373361250000002,
          "velocity": 0.5354330708661418
        },
        {
          "duration": 1.922075999999997,
          "durationTicks": 592,
          "midi": 66,
          "name": "F#4",
          "ticks": 4810,
          "time": 15.616867500000001,
          "velocity": 0.5669291338582677
        },
        {
          "duration": 0.6331162500000005,
          "durationTicks": 195,
          "midi": 57,
          "name": "A3",
          "ticks": 5407,
          "time": 17.55517725,
          "velocity": 0.6141732283464567
        },
        {
          "duration": 0.2532464999999995,
          "durationTicks": 78,
          "midi": 66,
          "name": "F#4",
          "ticks": 5597,
          "time": 18.17205975,
          "velocity": 0.5826771653543307
        },
        {
          "duration": 0.3084412499999978,
          "durationTicks": 95,
          "midi": 64,
          "name": "E4",
          "ticks": 5672,
          "time": 18.415566000000002,
          "velocity": 0.6299212598425197
        },
        {
          "duration": 2.077919999999999,
          "durationTicks": 640,
          "midi": 66,
          "name": "F#4",
          "ticks": 5757,
          "time": 18.69153975,
          "velocity": 0.5039370078740157
        },
        {
          "duration": 0.17857125000000096,
          "durationTicks": 55,
          "midi": 57,
          "name": "A3",
          "ticks": 6427,
          "time": 20.86686225,
          "velocity": 0.4881889763779528
        },
        {
          "duration": 0.558441000000002,
          "durationTicks": 172,
          "midi": 66,
          "name": "F#4",
          "ticks": 6485,
          "time": 21.055173749999998,
          "velocity": 0.5984251968503937
        },
        {
          "duration": 0.14610375000000175,
          "durationTicks": 45,
          "midi": 64,
          "name": "E4",
          "ticks": 6652,
          "time": 21.597381,
          "velocity": 0.6456692913385826
        },
        {
          "duration": 0.37337624999999974,
          "durationTicks": 115,
          "midi": 64,
          "name": "E4",
          "ticks": 6725,
          "time": 21.83439375,
          "velocity": 0.5511811023622047
        },
        {
          "duration": 2.3214262499999982,
          "durationTicks": 715,
          "midi": 63,
          "name": "D#4",
          "ticks": 6845,
          "time": 22.22400375,
          "velocity": 0.5984251968503937
        },
        {
          "duration": 0.44480474999999586,
          "durationTicks": 137,
          "midi": 59,
          "name": "B3",
          "ticks": 7555,
          "time": 24.529196250000002,
          "velocity": 0.7086614173228346
        },
        {
          "duration": 1.8181799999999946,
          "durationTicks": 560,
          "midi": 67,
          "name": "G4",
          "ticks": 7687,
          "time": 24.957767250000003,
          "velocity": 0.6141732283464567
        },
        {
          "duration": 0.5681812499999985,
          "durationTicks": 175,
          "midi": 67,
          "name": "G4",
          "ticks": 8270,
          "time": 26.850622500000004,
          "velocity": 0.5669291338582677
        },
        {
          "duration": 0.3084412499999978,
          "durationTicks": 95,
          "midi": 67,
          "name": "G4",
          "ticks": 8480,
          "time": 27.53244,
          "velocity": 0.5826771653543307
        },
        {
          "duration": 0.3149347500000026,
          "durationTicks": 97,
          "midi": 66,
          "name": "F#4",
          "ticks": 8565,
          "time": 27.80841375,
          "velocity": 0.4409448818897638
        },
        {
          "duration": 1.8409072500000008,
          "durationTicks": 567,
          "midi": 67,
          "name": "G4",
          "ticks": 8655,
          "time": 28.10062125,
          "velocity": 0.6141732283464567
        },
        {
          "duration": 0.6720772499999974,
          "durationTicks": 207,
          "midi": 59,
          "name": "B3",
          "ticks": 9230,
          "time": 29.967502500000002,
          "velocity": 0.6141732283464567
        },
        {
          "duration": 0.2759737500000057,
          "durationTicks": 85,
          "midi": 67,
          "name": "G4",
          "ticks": 9432,
          "time": 30.623345999999998,
          "velocity": 0.6141732283464567
        },
        {
          "duration": 0.3181814999999979,
          "durationTicks": 98,
          "midi": 66,
          "name": "F#4",
          "ticks": 9512,
          "time": 30.883086000000002,
          "velocity": 0.5196850393700787
        },
        {
          "duration": 1.9253227499999959,
          "durationTicks": 593,
          "midi": 67,
          "name": "G4",
          "ticks": 9607,
          "time": 31.191527250000004,
          "velocity": 0.5669291338582677
        },
        {
          "duration": 0.4220775000000003,
          "durationTicks": 130,
          "midi": 64,
          "name": "E4",
          "ticks": 10190,
          "time": 33.084382500000004,
          "velocity": 0.6299212598425197
        },
        {
          "duration": 0.558441000000002,
          "durationTicks": 172,
          "midi": 69,
          "name": "A4",
          "ticks": 10315,
          "time": 33.49022625,
          "velocity": 0.6614173228346457
        },
        {
          "duration": 0.06493500000000552,
          "durationTicks": 20,
          "midi": 66,
          "name": "F#4",
          "ticks": 10480,
          "time": 34.02594,
          "velocity": 0.4251968503937008
        },
        {
          "duration": 0.24350625000000292,
          "durationTicks": 75,
          "midi": 64,
          "name": "E4",
          "ticks": 10490,
          "time": 34.0584075,
          "velocity": 0.6299212598425197
        },
        {
          "duration": 0.7629862500000044,
          "durationTicks": 235,
          "midi": 67,
          "name": "G4",
          "ticks": 10557,
          "time": 34.27593975,
          "velocity": 0.5511811023622047
        },
        {
          "duration": 2.0129850000000005,
          "durationTicks": 620,
          "midi": 66,
          "name": "F#4",
          "ticks": 10785,
          "time": 35.01619875,
          "velocity": 0.4881889763779528
        },
        {
          "duration": 0.4123372500000002,
          "durationTicks": 127,
          "midi": 62,
          "name": "D4",
          "ticks": 11405,
          "time": 37.02918375,
          "velocity": 0.6456692913385826
        },
        {
          "duration": 1.8571410000000057,
          "durationTicks": 572,
          "midi": 69,
          "name": "A4",
          "ticks": 11530,
          "time": 37.4350275,
          "velocity": 0.6299212598425197
        },
        {
          "duration": 0.5292202500000016,
          "durationTicks": 163,
          "midi": 69,
          "name": "A4",
          "ticks": 12122,
          "time": 39.3571035,
          "velocity": 0.5984251968503937
        },
        {
          "duration": 0.2922075000000035,
          "durationTicks": 90,
          "midi": 69,
          "name": "A4",
          "ticks": 12320,
          "time": 39.99996,
          "velocity": 0.6614173228346457
        },
        {
          "duration": 0.3344152499999993,
          "durationTicks": 103,
          "midi": 68,
          "name": "G#4",
          "ticks": 12402,
          "time": 40.2661935,
          "velocity": 0.4251968503937008
        },
        {
          "duration": 1.792205999999993,
          "durationTicks": 552,
          "midi": 69,
          "name": "A4",
          "ticks": 12495,
          "time": 40.568141250000004,
          "velocity": 0.6456692913385826
        },
        {
          "duration": 0.5519475000000043,
          "durationTicks": 170,
          "midi": 69,
          "name": "A4",
          "ticks": 13075,
          "time": 42.45125625,
          "velocity": 0.6456692913385826
        },
        {
          "duration": 0.2922075000000035,
          "durationTicks": 90,
          "midi": 69,
          "name": "A4",
          "ticks": 13275,
          "time": 43.10060625,
          "velocity": 0.6141732283464567
        },
        {
          "duration": 0.2987009999999941,
          "durationTicks": 92,
          "midi": 71,
          "name": "B4",
          "ticks": 13355,
          "time": 43.360346250000006,
          "velocity": 0.5984251968503937
        },
        {
          "duration": 1.0876612499999965,
          "durationTicks": 335,
          "midi": 69,
          "name": "A4",
          "ticks": 13447,
          "time": 43.65904725,
          "velocity": 0.6456692913385826
        },
        {
          "duration": 0.5259735000000063,
          "durationTicks": 162,
          "midi": 67,
          "name": "G4",
          "ticks": 13780,
          "time": 44.740215,
          "velocity": 0.5354330708661418
        },
        {
          "duration": 0.9902587499999953,
          "durationTicks": 305,
          "midi": 67,
          "name": "G4",
          "ticks": 13942,
          "time": 45.266188500000005,
          "velocity": 0.4645669291338583
        },
        {
          "duration": 0.4123372500000002,
          "durationTicks": 127,
          "midi": 66,
          "name": "F#4",
          "ticks": 14285,
          "time": 46.37982375,
          "velocity": 0.4881889763779528
        },
        {
          "duration": 0.6168824999999956,
          "durationTicks": 190,
          "midi": 69,
          "name": "A4",
          "ticks": 14405,
          "time": 46.769433750000005,
          "velocity": 0.6141732283464567
        },
        {
          "duration": 0.10714274999999418,
          "durationTicks": 33,
          "midi": 67,
          "name": "G4",
          "ticks": 14587,
          "time": 47.36034225,
          "velocity": 0.4409448818897638
        },
        {
          "duration": 0.09740250000000117,
          "durationTicks": 30,
          "midi": 66,
          "name": "F#4",
          "ticks": 14620,
          "time": 47.467484999999996,
          "velocity": 0.3779527559055118
        },
        {
          "duration": 1.9155824999999993,
          "durationTicks": 590,
          "midi": 67,
          "name": "G4",
          "ticks": 14640,
          "time": 47.53242,
          "velocity": 0.5196850393700787
        },
        {
          "duration": 0.4058437500000025,
          "durationTicks": 125,
          "midi": 57,
          "name": "A3",
          "ticks": 15242,
          "time": 49.4869635,
          "velocity": 0.5826771653543307
        },
        {
          "duration": 1.8733747500000035,
          "durationTicks": 577,
          "midi": 66,
          "name": "F#4",
          "ticks": 15365,
          "time": 49.88631375,
          "velocity": 0.5118110236220472
        },
        {
          "duration": 0.6980512499999918,
          "durationTicks": 215,
          "midi": 57,
          "name": "A3",
          "ticks": 15960,
          "time": 51.818130000000004,
          "velocity": 0.6141732283464567
        },
        {
          "duration": 0.2922075000000035,
          "durationTicks": 90,
          "midi": 67,
          "name": "G4",
          "ticks": 16162,
          "time": 52.4739735,
          "velocity": 0.5826771653543307
        },
        {
          "duration": 0.33116849999999687,
          "durationTicks": 102,
          "midi": 66,
          "name": "F#4",
          "ticks": 16245,
          "time": 52.74345375,
          "velocity": 0.5196850393700787
        },
        {
          "duration": 1.8766214999999917,
          "durationTicks": 578,
          "midi": 64,
          "name": "E4",
          "ticks": 16342,
          "time": 53.05838850000001,
          "velocity": 0.5748031496062992
        },
        {
          "duration": 0.7207785000000086,
          "durationTicks": 222,
          "midi": 61,
          "name": "C#4",
          "ticks": 16925,
          "time": 54.951243749999996,
          "velocity": 0.6299212598425197
        },
        {
          "duration": 0.2824672500000034,
          "durationTicks": 87,
          "midi": 62,
          "name": "D4",
          "ticks": 17140,
          "time": 55.649295,
          "velocity": 0.5669291338582677
        },
        {
          "duration": 0.22727249999999088,
          "durationTicks": 70,
          "midi": 64,
          "name": "E4",
          "ticks": 17215,
          "time": 55.892801250000005,
          "velocity": 0.5669291338582677
        },
        {
          "duration": 3.0519449999999964,
          "durationTicks": 940,
          "midi": 64,
          "name": "E4",
          "ticks": 17297,
          "time": 56.159034750000004,
          "velocity": 0.5039370078740157
        },
        {
          "duration": 2.5974000000000004,
          "durationTicks": 800,
          "midi": 62,
          "name": "D4",
          "ticks": 18225,
          "time": 59.17201875,
          "velocity": 0.4881889763779528
        },
        {
          "duration": 0.42857100000000514,
          "durationTicks": 132,
          "midi": 57,
          "name": "A3",
          "ticks": 19070,
          "time": 61.9155225,
          "velocity": 0.5984251968503937
        },
        {
          "duration": 1.9805174999999977,
          "durationTicks": 610,
          "midi": 66,
          "name": "F#4",
          "ticks": 19205,
          "time": 62.35383375,
          "velocity": 0.6220472440944882
        },
        {
          "duration": 0.558441000000002,
          "durationTicks": 172,
          "midi": 69,
          "name": "A4",
          "ticks": 19810,
          "time": 64.3181175,
          "velocity": 0.6850393700787402
        },
        {
          "duration": 0.32467499999998495,
          "durationTicks": 100,
          "midi": 66,
          "name": "F#4",
          "ticks": 19990,
          "time": 64.9025325,
          "velocity": 0.6377952755905512
        },
        {
          "duration": 0.2337660000000028,
          "durationTicks": 72,
          "midi": 64,
          "name": "E4",
          "ticks": 20095,
          "time": 65.24344125,
          "velocity": 0.6220472440944882
        },
        {
          "duration": 1.9220760000000041,
          "durationTicks": 592,
          "midi": 66,
          "name": "F#4",
          "ticks": 20170,
          "time": 65.4869475,
          "velocity": 0.6535433070866141
        },
        {
          "duration": 0.6428565000000077,
          "durationTicks": 198,
          "midi": 57,
          "name": "A3",
          "ticks": 20767,
          "time": 67.42525725,
          "velocity": 0.7007874015748031
        },
        {
          "duration": 0.25324649999998883,
          "durationTicks": 78,
          "midi": 66,
          "name": "F#4",
          "ticks": 20957,
          "time": 68.04213975,
          "velocity": 0.6692913385826772
        },
        {
          "duration": 0.3084412499999871,
          "durationTicks": 95,
          "midi": 64,
          "name": "E4",
          "ticks": 21032,
          "time": 68.28564600000001,
          "velocity": 0.7165354330708661
        },
        {
          "duration": 1.948049999999995,
          "durationTicks": 600,
          "midi": 66,
          "name": "F#4",
          "ticks": 21117,
          "time": 68.56161975,
          "velocity": 0.5905511811023622
        },
        {
          "duration": 0.227272499999998,
          "durationTicks": 70,
          "midi": 66,
          "name": "F#4",
          "ticks": 21740,
          "time": 70.584345,
          "velocity": 0.7086614173228346
        },
        {
          "duration": 0.5681812500000092,
          "durationTicks": 175,
          "midi": 66,
          "name": "F#4",
          "ticks": 21845,
          "time": 70.92525375,
          "velocity": 0.6850393700787402
        },
        {
          "duration": 0.13961025000000404,
          "durationTicks": 43,
          "midi": 64,
          "name": "E4",
          "ticks": 22012,
          "time": 71.467461,
          "velocity": 0.7322834645669292
        },
        {
          "duration": 0.38311649999998565,
          "durationTicks": 118,
          "midi": 64,
          "name": "E4",
          "ticks": 22082,
          "time": 71.69473350000001,
          "velocity": 0.6377952755905512
        },
        {
          "duration": 2.321426250000002,
          "durationTicks": 715,
          "midi": 63,
          "name": "D#4",
          "ticks": 22205,
          "time": 72.09408375,
          "velocity": 0.6850393700787402
        },
        {
          "duration": 0.44480475000000297,
          "durationTicks": 137,
          "midi": 59,
          "name": "B3",
          "ticks": 22915,
          "time": 74.39927625,
          "velocity": 0.7952755905511811
        },
        {
          "duration": 1.8181799999999981,
          "durationTicks": 560,
          "midi": 67,
          "name": "G4",
          "ticks": 23047,
          "time": 74.82784725,
          "velocity": 0.7007874015748031
        },
        {
          "duration": 0.31493474999999194,
          "durationTicks": 97,
          "midi": 67,
          "name": "G4",
          "ticks": 23630,
          "time": 76.7207025,
          "velocity": 0.7086614173228346
        },
        {
          "duration": 0.30844125000000133,
          "durationTicks": 95,
          "midi": 67,
          "name": "G4",
          "ticks": 23730,
          "time": 77.0453775,
          "velocity": 0.6614173228346457
        },
        {
          "duration": 0.2922075000000035,
          "durationTicks": 90,
          "midi": 67,
          "name": "G4",
          "ticks": 23840,
          "time": 77.40252,
          "velocity": 0.6692913385826772
        },
        {
          "duration": 0.31493475000000615,
          "durationTicks": 97,
          "midi": 66,
          "name": "F#4",
          "ticks": 23925,
          "time": 77.67849375,
          "velocity": 0.5275590551181102
        },
        {
          "duration": 1.8506474999999938,
          "durationTicks": 570,
          "midi": 67,
          "name": "G4",
          "ticks": 24015,
          "time": 77.97070125,
          "velocity": 0.7007874015748031
        },
        {
          "duration": 0.6720772500000152,
          "durationTicks": 207,
          "midi": 59,
          "name": "B3",
          "ticks": 24590,
          "time": 79.8375825,
          "velocity": 0.7007874015748031
        },
        {
          "duration": 0.2759737500000057,
          "durationTicks": 85,
          "midi": 67,
          "name": "G4",
          "ticks": 24792,
          "time": 80.493426,
          "velocity": 0.7007874015748031
        },
        {
          "duration": 0.31818149999999434,
          "durationTicks": 98,
          "midi": 66,
          "name": "F#4",
          "ticks": 24872,
          "time": 80.75316600000001,
          "velocity": 0.6062992125984252
        },
        {
          "duration": 1.9318162499999971,
          "durationTicks": 595,
          "midi": 67,
          "name": "G4",
          "ticks": 24965,
          "time": 81.05511375,
          "velocity": 0.6535433070866141
        },
        {
          "duration": 0.4123372499999931,
          "durationTicks": 127,
          "midi": 64,
          "name": "E4",
          "ticks": 25550,
          "time": 82.9544625,
          "velocity": 0.7165354330708661
        },
        {
          "duration": 0.558441000000002,
          "durationTicks": 172,
          "midi": 69,
          "name": "A4",
          "ticks": 25675,
          "time": 83.36030625000001,
          "velocity": 0.7480314960629921
        },
        {
          "duration": 0.0649349999999913,
          "durationTicks": 20,
          "midi": 66,
          "name": "F#4",
          "ticks": 25840,
          "time": 83.89602000000001,
          "velocity": 0.6377952755905512
        },
        {
          "duration": 0.2337660000000028,
          "durationTicks": 72,
          "midi": 64,
          "name": "E4",
          "ticks": 25850,
          "time": 83.9284875,
          "velocity": 0.7165354330708661
        },
        {
          "duration": 0.7629862500000115,
          "durationTicks": 235,
          "midi": 67,
          "name": "G4",
          "ticks": 25917,
          "time": 84.14601975,
          "velocity": 0.6377952755905512
        },
        {
          "duration": 2.0129850000000005,
          "durationTicks": 620,
          "midi": 66,
          "name": "F#4",
          "ticks": 26145,
          "time": 84.88627875,
          "velocity": 0.6614173228346457
        },
        {
          "duration": 0.4058437500000025,
          "durationTicks": 125,
          "midi": 62,
          "name": "D4",
          "ticks": 26765,
          "time": 86.89926375,
          "velocity": 0.7322834645669292
        },
        {
          "duration": 1.8668812500000058,
          "durationTicks": 575,
          "midi": 69,
          "name": "A4",
          "ticks": 26887,
          "time": 87.29536725,
          "velocity": 0.7165354330708661
        },
        {
          "duration": 0.5357137499999993,
          "durationTicks": 165,
          "midi": 69,
          "name": "A4",
          "ticks": 27482,
          "time": 89.22718350000001,
          "velocity": 0.6850393700787402
        },
        {
          "duration": 0.2922074999999893,
          "durationTicks": 90,
          "midi": 69,
          "name": "A4",
          "ticks": 27680,
          "time": 89.87004,
          "velocity": 0.7559055118110236
        },
        {
          "duration": 0.3344152500000064,
          "durationTicks": 103,
          "midi": 68,
          "name": "G#4",
          "ticks": 27762,
          "time": 90.1362735,
          "velocity": 0.7322834645669292
        },
        {
          "duration": 1.7857125000000025,
          "durationTicks": 550,
          "midi": 69,
          "name": "A4",
          "ticks": 27855,
          "time": 90.43822125,
          "velocity": 0.7086614173228346
        },
        {
          "duration": 0.5422072500000041,
          "durationTicks": 167,
          "midi": 71,
          "name": "B4",
          "ticks": 28435,
          "time": 92.32133625,
          "velocity": 0.7322834645669292
        },
        {
          "duration": 0.2857139999999987,
          "durationTicks": 88,
          "midi": 66,
          "name": "F#4",
          "ticks": 28632,
          "time": 92.960946,
          "velocity": 0.7007874015748031
        },
        {
          "duration": 0.2987010000000083,
          "durationTicks": 92,
          "midi": 69,
          "name": "A4",
          "ticks": 28715,
          "time": 93.23042625,
          "velocity": 0.6850393700787402
        },
        {
          "duration": 0.9837652500000047,
          "durationTicks": 303,
          "midi": 67,
          "name": "G4",
          "ticks": 28807,
          "time": 93.52912725,
          "velocity": 0.7322834645669292
        },
        {
          "duration": 0.26948025000000086,
          "durationTicks": 83,
          "midi": 67,
          "name": "G4",
          "ticks": 29137,
          "time": 94.60055475,
          "velocity": 0.7086614173228346
        },
        {
          "duration": 1.2824662499999988,
          "durationTicks": 395,
          "midi": 67,
          "name": "G4",
          "ticks": 29227,
          "time": 94.89276225,
          "velocity": 0.7322834645669292
        },
        {
          "duration": 0.4220774999999861,
          "durationTicks": 130,
          "midi": 66,
          "name": "F#4",
          "ticks": 29642,
          "time": 96.24016350000001,
          "velocity": 0.6220472440944882
        },
        {
          "duration": 0.7889602499999882,
          "durationTicks": 243,
          "midi": 69,
          "name": "A4",
          "ticks": 29762,
          "time": 96.62977350000001,
          "velocity": 0.7007874015748031
        },
        {
          "duration": 1.9155824999999993,
          "durationTicks": 590,
          "midi": 67,
          "name": "G4",
          "ticks": 30000,
          "time": 97.4025,
          "velocity": 0.6062992125984252
        },
        {
          "duration": 0.3993502500000119,
          "durationTicks": 123,
          "midi": 57,
          "name": "A3",
          "ticks": 30602,
          "time": 99.3570435,
          "velocity": 0.7086614173228346
        },
        {
          "duration": 1.8733747499999964,
          "durationTicks": 577,
          "midi": 66,
          "name": "F#4",
          "ticks": 30725,
          "time": 99.75639375000002,
          "velocity": 0.7086614173228346
        },
        {
          "duration": 0.698051250000006,
          "durationTicks": 215,
          "midi": 66,
          "name": "F#4",
          "ticks": 31320,
          "time": 101.68821,
          "velocity": 0.7007874015748031
        },
        {
          "duration": 0.3019477499999965,
          "durationTicks": 93,
          "midi": 67,
          "name": "G4",
          "ticks": 31522,
          "time": 102.3440535,
          "velocity": 0.6692913385826772
        },
        {
          "duration": 0.331168500000004,
          "durationTicks": 102,
          "midi": 66,
          "name": "F#4",
          "ticks": 31605,
          "time": 102.61353375,
          "velocity": 0.6062992125984252
        },
        {
          "duration": 1.8766214999999988,
          "durationTicks": 578,
          "midi": 64,
          "name": "E4",
          "ticks": 31702,
          "time": 102.92846850000001,
          "velocity": 0.7165354330708661
        },
        {
          "duration": 0.7305187500000017,
          "durationTicks": 225,
          "midi": 61,
          "name": "C#4",
          "ticks": 32285,
          "time": 104.82132375,
          "velocity": 0.6692913385826772
        },
        {
          "duration": 0.2824672500000105,
          "durationTicks": 87,
          "midi": 62,
          "name": "D4",
          "ticks": 32500,
          "time": 105.519375,
          "velocity": 0.6535433070866141
        },
        {
          "duration": 0.29870100000002253,
          "durationTicks": 92,
          "midi": 64,
          "name": "E4",
          "ticks": 32575,
          "time": 105.76288124999999,
          "velocity": 0.6535433070866141
        },
        {
          "duration": 2.9545425000000165,
          "durationTicks": 910,
          "midi": 64,
          "name": "E4",
          "ticks": 32680,
          "time": 106.10378999999999,
          "velocity": 0.6850393700787402
        },
        {
          "duration": 1.597401000000005,
          "durationTicks": 492,
          "midi": 62,
          "name": "D4",
          "ticks": 33585,
          "time": 109.04209875000001,
          "velocity": 0.6456692913385826
        },
        {
          "duration": 0.5454540000000065,
          "durationTicks": 168,
          "midi": 66,
          "name": "F#4",
          "ticks": 34097,
          "time": 110.70443475,
          "velocity": 0.7086614173228346
        },
        {
          "duration": 0.5194799999999873,
          "durationTicks": 160,
          "midi": 67,
          "name": "G4",
          "ticks": 34272,
          "time": 111.27261600000001,
          "velocity": 0.7795275590551181
        },
        {
          "duration": 0.340908749999997,
          "durationTicks": 105,
          "midi": 69,
          "name": "A4",
          "ticks": 34430,
          "time": 111.78560250000001,
          "velocity": 0.8031496062992126
        },
        {
          "duration": 1.8896084999999943,
          "durationTicks": 582,
          "midi": 69,
          "name": "A4",
          "ticks": 34565,
          "time": 112.22391375000001,
          "velocity": 0.8503937007874016
        },
        {
          "duration": 0.6006487500000048,
          "durationTicks": 185,
          "midi": 71,
          "name": "B4",
          "ticks": 35160,
          "time": 114.15573,
          "velocity": 0.8582677165354331
        },
        {
          "duration": 0.3019477499999965,
          "durationTicks": 93,
          "midi": 69,
          "name": "A4",
          "ticks": 35352,
          "time": 114.77910600000001,
          "velocity": 0.8346456692913385
        },
        {
          "duration": 0.3084412499999871,
          "durationTicks": 95,
          "midi": 67,
          "name": "G4",
          "ticks": 35435,
          "time": 115.04858625000001,
          "velocity": 0.7322834645669292
        },
        {
          "duration": 2.233764000000008,
          "durationTicks": 688,
          "midi": 69,
          "name": "A4",
          "ticks": 35522,
          "time": 115.3310535,
          "velocity": 0.7401574803149606
        },
        {
          "duration": 0.31818149999999434,
          "durationTicks": 98,
          "midi": 67,
          "name": "G4",
          "ticks": 36237,
          "time": 117.65247975000001,
          "velocity": 0.8503937007874016
        },
        {
          "duration": 0.31493475000000615,
          "durationTicks": 97,
          "midi": 69,
          "name": "A4",
          "ticks": 36325,
          "time": 117.93819375,
          "velocity": 0.8582677165354331
        },
        {
          "duration": 0.21103874999998595,
          "durationTicks": 65,
          "midi": 71,
          "name": "B4",
          "ticks": 36410,
          "time": 118.21416750000002,
          "velocity": 0.7874015748031497
        },
        {
          "duration": 1.4610375000000033,
          "durationTicks": 450,
          "midi": 71,
          "name": "B4",
          "ticks": 36490,
          "time": 118.4739075,
          "velocity": 0.7401574803149606
        },
        {
          "duration": 0.5357137499999993,
          "durationTicks": 165,
          "midi": 72,
          "name": "C5",
          "ticks": 36965,
          "time": 120.01611375000002,
          "velocity": 0.7874015748031497
        },
        {
          "duration": 0.801947250000012,
          "durationTicks": 247,
          "midi": 71,
          "name": "B4",
          "ticks": 37120,
          "time": 120.51935999999999,
          "velocity": 0.7874015748031497
        },
        {
          "duration": 0.25324649999998883,
          "durationTicks": 78,
          "midi": 69,
          "name": "A4",
          "ticks": 37372,
          "time": 121.337541,
          "velocity": 0.8110236220472441
        },
        {
          "duration": 1.5519464999999855,
          "durationTicks": 478,
          "midi": 71,
          "name": "B4",
          "ticks": 37437,
          "time": 121.54857975000002,
          "velocity": 0.8582677165354331
        },
        {
          "duration": 0.568181249999995,
          "durationTicks": 175,
          "midi": 71,
          "name": "B4",
          "ticks": 38047,
          "time": 123.52909725,
          "velocity": 0.8346456692913385
        },
        {
          "duration": 0.3084412499999871,
          "durationTicks": 95,
          "midi": 73,
          "name": "C#5",
          "ticks": 38232,
          "time": 124.12974600000001,
          "velocity": 0.8582677165354331
        },
        {
          "duration": 0.19480500000000234,
          "durationTicks": 60,
          "midi": 74,
          "name": "D5",
          "ticks": 38320,
          "time": 124.41546,
          "velocity": 0.7874015748031497
        },
        {
          "duration": 1.8831149999999894,
          "durationTicks": 580,
          "midi": 74,
          "name": "D5",
          "ticks": 38405,
          "time": 124.69143375000002,
          "velocity": 0.7874015748031497
        },
        {
          "duration": 0.37337625000000685,
          "durationTicks": 115,
          "midi": 71,
          "name": "B4",
          "ticks": 38995,
          "time": 126.60701625,
          "velocity": 0.8346456692913385
        },
        {
          "duration": 0.6428564999999935,
          "durationTicks": 198,
          "midi": 74,
          "name": "D5",
          "ticks": 39112,
          "time": 126.986886,
          "velocity": 0.8582677165354331
        },
        {
          "duration": 0.22077899999999318,
          "durationTicks": 68,
          "midi": 71,
          "name": "B4",
          "ticks": 39302,
          "time": 127.6037685,
          "velocity": 0.7874015748031497
        },
        {
          "duration": 2.061686249999994,
          "durationTicks": 635,
          "midi": 73,
          "name": "C#5",
          "ticks": 39372,
          "time": 127.83104100000001,
          "velocity": 0.8582677165354331
        },
        {
          "duration": 0.32467500000001337,
          "durationTicks": 100,
          "midi": 73,
          "name": "C#5",
          "ticks": 40082,
          "time": 130.1362335,
          "velocity": 0.8346456692913385
        },
        {
          "duration": 0.21753224999997656,
          "durationTicks": 67,
          "midi": 74,
          "name": "D5",
          "ticks": 40170,
          "time": 130.42194750000002,
          "velocity": 0.7874015748031497
        },
        {
          "duration": 0.227272499999998,
          "durationTicks": 70,
          "midi": 76,
          "name": "E5",
          "ticks": 40260,
          "time": 130.714155,
          "velocity": 0.8582677165354331
        },
        {
          "duration": 1.7694787500000189,
          "durationTicks": 545,
          "midi": 76,
          "name": "E5",
          "ticks": 40342,
          "time": 130.9803885,
          "velocity": 0.8582677165354331
        },
        {
          "duration": 0.7532460000000185,
          "durationTicks": 232,
          "midi": 78,
          "name": "F#5",
          "ticks": 40900,
          "time": 132.79207499999998,
          "velocity": 0.8346456692913385
        },
        {
          "duration": 0.30194775000001073,
          "durationTicks": 93,
          "midi": 73,
          "name": "C#5",
          "ticks": 41127,
          "time": 133.52908725,
          "velocity": 0.7874015748031497
        },
        {
          "duration": 0.27597374999999147,
          "durationTicks": 85,
          "midi": 76,
          "name": "E5",
          "ticks": 41212,
          "time": 133.805061,
          "velocity": 0.7874015748031497
        },
        {
          "duration": 1.850647500000008,
          "durationTicks": 570,
          "midi": 74,
          "name": "D5",
          "ticks": 41297,
          "time": 134.08103475,
          "velocity": 0.8582677165354331
        },
        {
          "duration": 0.5746747499999856,
          "durationTicks": 177,
          "midi": 74,
          "name": "D5",
          "ticks": 41885,
          "time": 135.99012375,
          "velocity": 0.8582677165354331
        },
        {
          "duration": 0.2857139999999845,
          "durationTicks": 88,
          "midi": 74,
          "name": "D5",
          "ticks": 42092,
          "time": 136.662201,
          "velocity": 0.8582677165354331
        },
        {
          "duration": 0.2694802500000151,
          "durationTicks": 83,
          "midi": 73,
          "name": "C#5",
          "ticks": 42187,
          "time": 136.97064225,
          "velocity": 0.8582677165354331
        },
        {
          "duration": 1.7532449999999926,
          "durationTicks": 540,
          "midi": 74,
          "name": "D5",
          "ticks": 42267,
          "time": 137.23038225000002,
          "velocity": 0.8110236220472441
        },
        {
          "duration": 0.6006487500000048,
          "durationTicks": 185,
          "midi": 74,
          "name": "D5",
          "ticks": 42842,
          "time": 139.0972635,
          "velocity": 0.8346456692913385
        },
        {
          "duration": 0.30194775000001073,
          "durationTicks": 93,
          "midi": 76,
          "name": "E5",
          "ticks": 43032,
          "time": 139.714146,
          "velocity": 0.8582677165354331
        },
        {
          "duration": 0.27597374999999147,
          "durationTicks": 85,
          "midi": 74,
          "name": "D5",
          "ticks": 43115,
          "time": 139.98362625000001,
          "velocity": 0.7874015748031497
        },
        {
          "duration": 1.8279202500000054,
          "durationTicks": 563,
          "midi": 73,
          "name": "C#5",
          "ticks": 43207,
          "time": 140.28232725,
          "velocity": 0.8582677165354331
        },
        {
          "duration": 0.3896100000000047,
          "durationTicks": 120,
          "midi": 73,
          "name": "C#5",
          "ticks": 43805,
          "time": 142.22388375,
          "velocity": 0.8582677165354331
        },
        {
          "duration": 0.36688275000000203,
          "durationTicks": 113,
          "midi": 74,
          "name": "D5",
          "ticks": 43917,
          "time": 142.58751975,
          "velocity": 0.7401574803149606
        },
        {
          "duration": 0.2824672499999963,
          "durationTicks": 87,
          "midi": 76,
          "name": "E5",
          "ticks": 44030,
          "time": 142.95440250000001,
          "velocity": 0.7401574803149606
        },
        {
          "duration": 3.1331137499999784,
          "durationTicks": 965,
          "midi": 76,
          "name": "E5",
          "ticks": 44165,
          "time": 143.39271375,
          "velocity": 0.8503937007874016
        },
        {
          "duration": 2.1103875000000016,
          "durationTicks": 650,
          "midi": 74,
          "name": "D5",
          "ticks": 45117,
          "time": 146.48361975,
          "velocity": 0.7480314960629921
        },
        {
          "duration": 0.48701250000002005,
          "durationTicks": 150,
          "midi": 57,
          "name": "A3",
          "ticks": 45957,
          "time": 149.21088975,
          "velocity": 0.6850393700787402
        },
        {
          "duration": 1.9870109999999954,
          "durationTicks": 612,
          "midi": 66,
          "name": "F#4",
          "ticks": 46085,
          "time": 149.62647375,
          "velocity": 0.6220472440944882
        },
        {
          "duration": 0.5584410000000162,
          "durationTicks": 172,
          "midi": 57,
          "name": "A3",
          "ticks": 46690,
          "time": 151.5907575,
          "velocity": 0.6850393700787402
        },
        {
          "duration": 0.32467500000001337,
          "durationTicks": 100,
          "midi": 66,
          "name": "F#4",
          "ticks": 46870,
          "time": 152.1751725,
          "velocity": 0.6377952755905512
        },
        {
          "duration": 0.23376600000003123,
          "durationTicks": 72,
          "midi": 64,
          "name": "E4",
          "ticks": 46975,
          "time": 152.51608124999998,
          "velocity": 0.6220472440944882
        },
        {
          "duration": 1.9220759999999757,
          "durationTicks": 592,
          "midi": 66,
          "name": "F#4",
          "ticks": 47050,
          "time": 152.7595875,
          "velocity": 0.6535433070866141
        },
        {
          "duration": 0.6428564999999935,
          "durationTicks": 198,
          "midi": 57,
          "name": "A3",
          "ticks": 47647,
          "time": 154.69789725,
          "velocity": 0.7007874015748031
        },
        {
          "duration": 0.25324650000001725,
          "durationTicks": 78,
          "midi": 66,
          "name": "F#4",
          "ticks": 47837,
          "time": 155.31477974999999,
          "velocity": 0.6692913385826772
        },
        {
          "duration": 0.3084412499999871,
          "durationTicks": 95,
          "midi": 64,
          "name": "E4",
          "ticks": 47912,
          "time": 155.558286,
          "velocity": 0.7165354330708661
        },
        {
          "duration": 1.9415564999999901,
          "durationTicks": 598,
          "midi": 66,
          "name": "F#4",
          "ticks": 47997,
          "time": 155.83425975,
          "velocity": 0.5905511811023622
        },
        {
          "duration": 0.37986974999998324,
          "durationTicks": 117,
          "midi": 57,
          "name": "A3",
          "ticks": 48620,
          "time": 157.856985,
          "velocity": 0.7086614173228346
        },
        {
          "duration": 0.5681812499999808,
          "durationTicks": 175,
          "midi": 66,
          "name": "F#4",
          "ticks": 48725,
          "time": 158.19789375000002,
          "velocity": 0.6850393700787402
        },
        {
          "duration": 0.14610375000000886,
          "durationTicks": 45,
          "midi": 64,
          "name": "E4",
          "ticks": 48892,
          "time": 158.740101,
          "velocity": 0.6456692913385826
        },
        {
          "duration": 0.37337625000000685,
          "durationTicks": 115,
          "midi": 64,
          "name": "E4",
          "ticks": 48965,
          "time": 158.97711375,
          "velocity": 0.6377952755905512
        },
        {
          "duration": 2.311686000000009,
          "durationTicks": 712,
          "midi": 63,
          "name": "D#4",
          "ticks": 49085,
          "time": 159.36672375,
          "velocity": 0.6850393700787402
        },
        {
          "duration": 0.44480475000000297,
          "durationTicks": 137,
          "midi": 59,
          "name": "B3",
          "ticks": 49795,
          "time": 161.67191625,
          "velocity": 0.7952755905511811
        },
        {
          "duration": 1.62337500000001,
          "durationTicks": 500,
          "midi": 67,
          "name": "G4",
          "ticks": 49927,
          "time": 162.10048725000001,
          "velocity": 0.7007874015748031
        },
        {
          "duration": 0.4610385000000008,
          "durationTicks": 142,
          "midi": 59,
          "name": "B3",
          "ticks": 50510,
          "time": 163.9933425,
          "velocity": 0.7086614173228346
        },
        {
          "duration": 0.584415000000007,
          "durationTicks": 180,
          "midi": 67,
          "name": "G4",
          "ticks": 50632,
          "time": 164.389446,
          "velocity": 0.6614173228346457
        },
        {
          "duration": 0.30844125000001554,
          "durationTicks": 95,
          "midi": 66,
          "name": "F#4",
          "ticks": 50805,
          "time": 164.95113375,
          "velocity": 0.6614173228346457
        },
        {
          "duration": 1.8506474999999796,
          "durationTicks": 570,
          "midi": 67,
          "name": "G4",
          "ticks": 50895,
          "time": 165.24334125000001,
          "velocity": 0.7007874015748031
        },
        {
          "duration": 0.6655837499999961,
          "durationTicks": 205,
          "midi": 59,
          "name": "B3",
          "ticks": 51470,
          "time": 167.11022250000002,
          "velocity": 0.7007874015748031
        },
        {
          "duration": 0.27597374999999147,
          "durationTicks": 85,
          "midi": 67,
          "name": "G4",
          "ticks": 51672,
          "time": 167.76606600000002,
          "velocity": 0.7007874015748031
        },
        {
          "duration": 0.31818150000000855,
          "durationTicks": 98,
          "midi": 66,
          "name": "F#4",
          "ticks": 51752,
          "time": 168.025806,
          "velocity": 0.6062992125984252
        },
        {
          "duration": 1.9318162499999971,
          "durationTicks": 595,
          "midi": 67,
          "name": "G4",
          "ticks": 51845,
          "time": 168.32775375,
          "velocity": 0.6535433070866141
        },
        {
          "duration": 0.9318172499999946,
          "durationTicks": 287,
          "midi": 69,
          "name": "A4",
          "ticks": 52440,
          "time": 170.25957,
          "velocity": 0.7480314960629921
        },
        {
          "duration": 0.24350624999999582,
          "durationTicks": 75,
          "midi": 64,
          "name": "E4",
          "ticks": 52730,
          "time": 171.2011275,
          "velocity": 0.7165354330708661
        },
        {
          "duration": 0.7629862499999831,
          "durationTicks": 235,
          "midi": 67,
          "name": "G4",
          "ticks": 52797,
          "time": 171.41865975000002,
          "velocity": 0.6377952755905512
        },
        {
          "duration": 2.0129850000000147,
          "durationTicks": 620,
          "midi": 66,
          "name": "F#4",
          "ticks": 53025,
          "time": 172.15891875,
          "velocity": 0.6614173228346457
        },
        {
          "duration": 0.4058437499999741,
          "durationTicks": 125,
          "midi": 62,
          "name": "D4",
          "ticks": 53645,
          "time": 174.17190375,
          "velocity": 0.7322834645669292
        },
        {
          "duration": 1.5681802500000117,
          "durationTicks": 483,
          "midi": 69,
          "name": "A4",
          "ticks": 53767,
          "time": 174.56800725,
          "velocity": 0.7165354330708661
        },
        {
          "duration": 0.5357137500000135,
          "durationTicks": 165,
          "midi": 69,
          "name": "A4",
          "ticks": 54362,
          "time": 176.4998235,
          "velocity": 0.6850393700787402
        },
        {
          "duration": 0.2824672499999963,
          "durationTicks": 87,
          "midi": 69,
          "name": "A4",
          "ticks": 54560,
          "time": 177.14268,
          "velocity": 0.8503937007874016
        },
        {
          "duration": 0.33441524999997796,
          "durationTicks": 103,
          "midi": 68,
          "name": "G#4",
          "ticks": 54642,
          "time": 177.4089135,
          "velocity": 0.7322834645669292
        },
        {
          "duration": 1.7922060000000215,
          "durationTicks": 552,
          "midi": 69,
          "name": "A4",
          "ticks": 54735,
          "time": 177.71086125,
          "velocity": 0.8267716535433071
        },
        {
          "duration": 0.5519475000000114,
          "durationTicks": 170,
          "midi": 71,
          "name": "B4",
          "ticks": 55315,
          "time": 179.59397625,
          "velocity": 0.7322834645669292
        },
        {
          "duration": 0.2922075000000177,
          "durationTicks": 90,
          "midi": 66,
          "name": "F#4",
          "ticks": 55512,
          "time": 180.233586,
          "velocity": 0.7007874015748031
        },
        {
          "duration": 0.2987009999999941,
          "durationTicks": 92,
          "midi": 69,
          "name": "A4",
          "ticks": 55595,
          "time": 180.50306625000002,
          "velocity": 0.8031496062992126
        },
        {
          "duration": 1.7435047499999996,
          "durationTicks": 537,
          "midi": 67,
          "name": "G4",
          "ticks": 55685,
          "time": 180.79527375,
          "velocity": 0.7952755905511811
        },
        {
          "duration": 0.3084412499999871,
          "durationTicks": 95,
          "midi": 67,
          "name": "G4",
          "ticks": 56272,
          "time": 182.701116,
          "velocity": 0.7795275590551181
        },
        {
          "duration": 0.5357137499999851,
          "durationTicks": 165,
          "midi": 67,
          "name": "G4",
          "ticks": 56397,
          "time": 183.10695975000002,
          "velocity": 0.6929133858267716
        },
        {
          "duration": 0.25974000000002206,
          "durationTicks": 80,
          "midi": 66,
          "name": "F#4",
          "ticks": 56557,
          "time": 183.62643975,
          "velocity": 0.7716535433070866
        },
        {
          "duration": 0.7792200000000093,
          "durationTicks": 240,
          "midi": 69,
          "name": "A4",
          "ticks": 56642,
          "time": 183.9024135,
          "velocity": 0.7716535433070866
        },
        {
          "duration": 1.9155825000000277,
          "durationTicks": 590,
          "midi": 67,
          "name": "G4",
          "ticks": 56880,
          "time": 184.67514,
          "velocity": 0.7637795275590551
        },
        {
          "duration": 0.3993502500000261,
          "durationTicks": 123,
          "midi": 69,
          "name": "A4",
          "ticks": 57482,
          "time": 186.6296835,
          "velocity": 0.7795275590551181
        },
        {
          "duration": 1.8733747499999822,
          "durationTicks": 577,
          "midi": 66,
          "name": "F#4",
          "ticks": 57605,
          "time": 187.02903375000002,
          "velocity": 0.7086614173228346
        },
        {
          "duration": 0.4220775000000003,
          "durationTicks": 130,
          "midi": 57,
          "name": "A3",
          "ticks": 58200,
          "time": 188.96085,
          "velocity": 0.7007874015748031
        },
        {
          "duration": 0.357142500000009,
          "durationTicks": 110,
          "midi": 67,
          "name": "G4",
          "ticks": 58330,
          "time": 189.3829275,
          "velocity": 0.6692913385826772
        },
        {
          "duration": 0.3896100000000047,
          "durationTicks": 120,
          "midi": 66,
          "name": "F#4",
          "ticks": 58440,
          "time": 189.74007,
          "velocity": 0.6062992125984252
        },
        {
          "duration": 1.8733747500000106,
          "durationTicks": 577,
          "midi": 64,
          "name": "E4",
          "ticks": 58570,
          "time": 190.1621475,
          "velocity": 0.7165354330708661
        },
        {
          "duration": 0.7305187500000159,
          "durationTicks": 225,
          "midi": 61,
          "name": "C#4",
          "ticks": 59165,
          "time": 192.09396375,
          "velocity": 0.7165354330708661
        },
        {
          "duration": 0.2824672500000247,
          "durationTicks": 87,
          "midi": 62,
          "name": "D4",
          "ticks": 59380,
          "time": 192.792015,
          "velocity": 0.6535433070866141
        },
        {
          "duration": 0.30844125000001554,
          "durationTicks": 95,
          "midi": 64,
          "name": "E4",
          "ticks": 59455,
          "time": 193.03552125,
          "velocity": 0.6535433070866141
        },
        {
          "duration": 2.9545425000000023,
          "durationTicks": 910,
          "midi": 64,
          "name": "E4",
          "ticks": 59560,
          "time": 193.37643,
          "velocity": 0.6850393700787402
        },
        {
          "duration": 1.2077910000000145,
          "durationTicks": 372,
          "midi": 62,
          "name": "D4",
          "ticks": 60465,
          "time": 196.31473875,
          "velocity": 0.6456692913385826
        },
        {
          "duration": 0.43181775000002176,
          "durationTicks": 133,
          "midi": 62,
          "name": "D4",
          "ticks": 60842,
          "time": 197.5387635,
          "velocity": 0.6692913385826772
        },
        {
          "duration": 0.43831124999999815,
          "durationTicks": 135,
          "midi": 66,
          "name": "F#4",
          "ticks": 60970,
          "time": 197.9543475,
          "velocity": 0.7952755905511811
        },
        {
          "duration": 0.4220775000000003,
          "durationTicks": 130,
          "midi": 67,
          "name": "G4",
          "ticks": 61120,
          "time": 198.44136,
          "velocity": 0.84251968503937
        },
        {
          "duration": 0.3896100000000047,
          "durationTicks": 120,
          "midi": 69,
          "name": "A4",
          "ticks": 61280,
          "time": 198.96084000000002,
          "velocity": 0.9133858267716536
        },
        {
          "duration": 1.892855250000025,
          "durationTicks": 583,
          "midi": 69,
          "name": "A4",
          "ticks": 61447,
          "time": 199.50304724999998,
          "velocity": 0.9133858267716536
        },
        {
          "duration": 0.6006487499999764,
          "durationTicks": 185,
          "midi": 71,
          "name": "B4",
          "ticks": 62040,
          "time": 201.42837,
          "velocity": 0.9133858267716536
        },
        {
          "duration": 0.30194775000001073,
          "durationTicks": 93,
          "midi": 69,
          "name": "A4",
          "ticks": 62232,
          "time": 202.051746,
          "velocity": 0.889763779527559
        },
        {
          "duration": 0.30844125000001554,
          "durationTicks": 95,
          "midi": 67,
          "name": "G4",
          "ticks": 62315,
          "time": 202.32122625,
          "velocity": 0.6850393700787402
        },
        {
          "duration": 2.233764000000008,
          "durationTicks": 688,
          "midi": 69,
          "name": "A4",
          "ticks": 62402,
          "time": 202.6036935,
          "velocity": 0.7952755905511811
        },
        {
          "duration": 0.31818149999998013,
          "durationTicks": 98,
          "midi": 67,
          "name": "G4",
          "ticks": 63117,
          "time": 204.92511975000002,
          "velocity": 0.8031496062992126
        },
        {
          "duration": 0.3084412499999587,
          "durationTicks": 95,
          "midi": 69,
          "name": "A4",
          "ticks": 63205,
          "time": 205.21083375000003,
          "velocity": 0.9133858267716536
        },
        {
          "duration": 0.20129849999997873,
          "durationTicks": 62,
          "midi": 71,
          "name": "B4",
          "ticks": 63290,
          "time": 205.4868075,
          "velocity": 0.84251968503937
        },
        {
          "duration": 1.4610375000000033,
          "durationTicks": 450,
          "midi": 71,
          "name": "B4",
          "ticks": 63370,
          "time": 205.74654750000002,
          "velocity": 0.7952755905511811
        },
        {
          "duration": 0.5357137500000135,
          "durationTicks": 165,
          "midi": 72,
          "name": "C5",
          "ticks": 63845,
          "time": 207.28875374999998,
          "velocity": 0.84251968503937
        },
        {
          "duration": 0.6493499999999699,
          "durationTicks": 200,
          "midi": 71,
          "name": "B4",
          "ticks": 64000,
          "time": 207.79200000000003,
          "velocity": 0.84251968503937
        },
        {
          "duration": 0.3896100000000047,
          "durationTicks": 120,
          "midi": 69,
          "name": "A4",
          "ticks": 64200,
          "time": 208.44135,
          "velocity": 0.7480314960629921
        },
        {
          "duration": 1.542206249999964,
          "durationTicks": 475,
          "midi": 71,
          "name": "B4",
          "ticks": 64317,
          "time": 208.82121975,
          "velocity": 0.7952755905511811
        },
        {
          "duration": 0.39935025000005453,
          "durationTicks": 123,
          "midi": 71,
          "name": "B4",
          "ticks": 64927,
          "time": 210.80173724999997,
          "velocity": 0.889763779527559
        },
        {
          "duration": 0.3019477499999823,
          "durationTicks": 93,
          "midi": 73,
          "name": "C#5",
          "ticks": 65042,
          "time": 211.1751135,
          "velocity": 0.9133858267716536
        },
        {
          "duration": 0.3896100000000047,
          "durationTicks": 120,
          "midi": 74,
          "name": "D5",
          "ticks": 65147,
          "time": 211.51602225,
          "velocity": 0.84251968503937
        },
        {
          "duration": 1.883115000000032,
          "durationTicks": 580,
          "midi": 74,
          "name": "D5",
          "ticks": 65282,
          "time": 211.9543335,
          "velocity": 0.84251968503937
        },
        {
          "duration": 0.3733762499999784,
          "durationTicks": 115,
          "midi": 71,
          "name": "B4",
          "ticks": 65875,
          "time": 213.87965625,
          "velocity": 0.889763779527559
        },
        {
          "duration": 0.6428565000000219,
          "durationTicks": 198,
          "midi": 74,
          "name": "D5",
          "ticks": 65992,
          "time": 214.259526,
          "velocity": 0.9133858267716536
        },
        {
          "duration": 0.2207790000000216,
          "durationTicks": 68,
          "midi": 71,
          "name": "B4",
          "ticks": 66182,
          "time": 214.8764085,
          "velocity": 0.84251968503937
        },
        {
          "duration": 2.0616862499999797,
          "durationTicks": 635,
          "midi": 73,
          "name": "C#5",
          "ticks": 66252,
          "time": 215.10368100000002,
          "velocity": 0.889763779527559
        },
        {
          "duration": 0.32467500000001337,
          "durationTicks": 100,
          "midi": 73,
          "name": "C#5",
          "ticks": 66962,
          "time": 217.4088735,
          "velocity": 0.889763779527559
        },
        {
          "duration": 0.227272499999998,
          "durationTicks": 70,
          "midi": 74,
          "name": "D5",
          "ticks": 67050,
          "time": 217.6945875,
          "velocity": 0.84251968503937
        },
        {
          "duration": 0.21753224999997656,
          "durationTicks": 67,
          "midi": 76,
          "name": "E5",
          "ticks": 67140,
          "time": 217.986795,
          "velocity": 0.9133858267716536
        },
        {
          "duration": 1.7792190000000119,
          "durationTicks": 548,
          "midi": 76,
          "name": "E5",
          "ticks": 67222,
          "time": 218.2530285,
          "velocity": 0.9133858267716536
        },
        {
          "duration": 0.7629862499999547,
          "durationTicks": 235,
          "midi": 78,
          "name": "F#5",
          "ticks": 67780,
          "time": 220.06471500000004,
          "velocity": 0.889763779527559
        },
        {
          "duration": 0.2922074999999893,
          "durationTicks": 90,
          "midi": 73,
          "name": "C#5",
          "ticks": 68007,
          "time": 220.80172725000003,
          "velocity": 0.84251968503937
        },
        {
          "duration": 0.2759737500000199,
          "durationTicks": 85,
          "midi": 76,
          "name": "E5",
          "ticks": 68092,
          "time": 221.077701,
          "velocity": 0.84251968503937
        },
        {
          "duration": 1.8506474999999796,
          "durationTicks": 570,
          "midi": 74,
          "name": "D5",
          "ticks": 68177,
          "time": 221.35367475,
          "velocity": 0.9133858267716536
        },
        {
          "duration": 0.5746747499999856,
          "durationTicks": 177,
          "midi": 74,
          "name": "D5",
          "ticks": 68765,
          "time": 223.26276375,
          "velocity": 0.9133858267716536
        },
        {
          "duration": 0.2857140000000129,
          "durationTicks": 88,
          "midi": 74,
          "name": "D5",
          "ticks": 68972,
          "time": 223.934841,
          "velocity": 0.8267716535433071
        },
        {
          "duration": 0.2694802500000151,
          "durationTicks": 83,
          "midi": 73,
          "name": "C#5",
          "ticks": 69067,
          "time": 224.24328225,
          "velocity": 0.9133858267716536
        },
        {
          "duration": 1.7532449999999926,
          "durationTicks": 540,
          "midi": 74,
          "name": "D5",
          "ticks": 69147,
          "time": 224.50302225000001,
          "velocity": 0.84251968503937
        },
        {
          "duration": 0.5032462500000463,
          "durationTicks": 155,
          "midi": 74,
          "name": "D5",
          "ticks": 69725,
          "time": 226.37964374999999,
          "velocity": 0.889763779527559
        },
        {
          "duration": 0.3571424999999806,
          "durationTicks": 110,
          "midi": 76,
          "name": "E5",
          "ticks": 69870,
          "time": 226.8504225,
          "velocity": 0.9133858267716536
        },
        {
          "duration": 0.2759737500000199,
          "durationTicks": 85,
          "midi": 74,
          "name": "D5",
          "ticks": 69995,
          "time": 227.25626624999998,
          "velocity": 0.84251968503937
        },
        {
          "duration": 1.8279202500000338,
          "durationTicks": 563,
          "midi": 73,
          "name": "C#5",
          "ticks": 70087,
          "time": 227.55496724999998,
          "velocity": 0.9133858267716536
        },
        {
          "duration": 0.37986975000001166,
          "durationTicks": 117,
          "midi": 73,
          "name": "C#5",
          "ticks": 70685,
          "time": 229.49652375,
          "velocity": 0.9133858267716536
        },
        {
          "duration": 0.3668827499999736,
          "durationTicks": 113,
          "midi": 74,
          "name": "D5",
          "ticks": 70797,
          "time": 229.86015975,
          "velocity": 0.7952755905511811
        },
        {
          "duration": 0.35714250000003744,
          "durationTicks": 110,
          "midi": 76,
          "name": "E5",
          "ticks": 70910,
          "time": 230.22704249999998,
          "velocity": 0.7952755905511811
        },
        {
          "duration": 3.116880000000009,
          "durationTicks": 960,
          "midi": 76,
          "name": "E5",
          "ticks": 71045,
          "time": 230.66535374999998,
          "velocity": 0.9133858267716536
        },
        {
          "duration": 2.045452499999982,
          "durationTicks": 630,
          "midi": 74,
          "name": "D5",
          "ticks": 71997,
          "time": 233.75625975000003,
          "velocity": 0.8031496062992126
        },
        {
          "duration": 2.136361500000021,
          "durationTicks": 658,
          "midi": 61,
          "name": "C#4",
          "ticks": 78832,
          "time": 255.94779599999998,
          "velocity": 0.6456692913385826
        },
        {
          "duration": 0.5681812499999523,
          "durationTicks": 175,
          "midi": 62,
          "name": "D4",
          "ticks": 79525,
          "time": 258.19779375,
          "velocity": 0.6220472440944882
        },
        {
          "duration": 1.0551937500000008,
          "durationTicks": 325,
          "midi": 64,
          "name": "E4",
          "ticks": 79692,
          "time": 258.740001,
          "velocity": 0.5433070866141733
        },
        {
          "duration": 4.090905000000021,
          "durationTicks": 1260,
          "midi": 64,
          "name": "E4",
          "ticks": 80410,
          "time": 261.0711675,
          "velocity": 0.48031496062992124
        },
        {
          "duration": 6.639603749999992,
          "durationTicks": 2045,
          "midi": 62,
          "name": "D4",
          "ticks": 81692,
          "time": 265.233501,
          "velocity": 0.48031496062992124
        }
      ]
    },
    {
      "channel": 4,
      "controlChanges": {
        "7": [
          {
            "number": 7,
            "ticks": 297,
            "time": 0.96428475,
            "value": 0.8976377952755905
          }
        ],
        "11": [
          {
            "number": 11,
            "ticks": 297,
            "time": 0.96428475,
            "value": 0.7401574803149606
          },
          {
            "number": 11,
            "ticks": 19350,
            "time": 62.8246125,
            "value": 0.7559055118110236
          },
          {
            "number": 11,
            "ticks": 19380,
            "time": 62.922015,
            "value": 0.7716535433070866
          },
          {
            "number": 11,
            "ticks": 19410,
            "time": 63.0194175,
            "value": 0.7874015748031497
          },
          {
            "number": 11,
            "ticks": 19440,
            "time": 63.116820000000004,
            "value": 0.8031496062992126
          },
          {
            "number": 11,
            "ticks": 19470,
            "time": 63.214222500000005,
            "value": 0.8188976377952756
          },
          {
            "number": 11,
            "ticks": 19500,
            "time": 63.311625,
            "value": 0.8346456692913385
          },
          {
            "number": 11,
            "ticks": 19530,
            "time": 63.4090275,
            "value": 0.8503937007874016
          },
          {
            "number": 11,
            "ticks": 19562,
            "time": 63.51292350000001,
            "value": 0.8582677165354331
          },
          {
            "number": 11,
            "ticks": 19590,
            "time": 63.6038325,
            "value": 0.8740157480314961
          },
          {
            "number": 11,
            "ticks": 19620,
            "time": 63.701235000000004,
            "value": 0.889763779527559
          },
          {
            "number": 11,
            "ticks": 19650,
            "time": 63.798637500000005,
            "value": 0.905511811023622
          },
          {
            "number": 11,
            "ticks": 19680,
            "time": 63.89604,
            "value": 0.9212598425196851
          },
          {
            "number": 11,
            "ticks": 19710,
            "time": 63.9934425,
            "value": 0.937007874015748
          },
          {
            "number": 11,
            "ticks": 19740,
            "time": 64.090845,
            "value": 0.952755905511811
          },
          {
            "number": 11,
            "ticks": 19770,
            "time": 64.1882475,
            "value": 1
          },
          {
            "number": 11,
            "ticks": 76320,
            "time": 247.79196000000002,
            "value": 1
          },
          {
            "number": 11,
            "ticks": 76800,
            "time": 249.3504,
            "value": 0.889763779527559
          },
          {
            "number": 11,
            "ticks": 76810,
            "time": 249.38286750000003,
            "value": 0.6771653543307087
          },
          {
            "number": 11,
            "ticks": 76820,
            "time": 249.415335,
            "value": 0.6850393700787402
          },
          {
            "number": 11,
            "ticks": 76830,
            "time": 249.4478025,
            "value": 0.6929133858267716
          },
          {
            "number": 11,
            "ticks": 76840,
            "time": 249.48027000000002,
            "value": 0.7007874015748031
          },
          {
            "number": 11,
            "ticks": 76850,
            "time": 249.5127375,
            "value": 0.7086614173228346
          },
          {
            "number": 11,
            "ticks": 76860,
            "time": 249.545205,
            "value": 0.7244094488188977
          },
          {
            "number": 11,
            "ticks": 76880,
            "time": 249.61014,
            "value": 0.7401574803149606
          },
          {
            "number": 11,
            "ticks": 76890,
            "time": 249.6426075,
            "value": 0.7480314960629921
          },
          {
            "number": 11,
            "ticks": 76900,
            "time": 249.67507500000002,
            "value": 0.7559055118110236
          },
          {
            "number": 11,
            "ticks": 76910,
            "time": 249.7075425,
            "value": 0.7637795275590551
          },
          {
            "number": 11,
            "ticks": 76920,
            "time": 249.74001,
            "value": 0.7716535433070866
          },
          {
            "number": 11,
            "ticks": 76930,
            "time": 249.77247750000004,
            "value": 0.7795275590551181
          },
          {
            "number": 11,
            "ticks": 76940,
            "time": 249.804945,
            "value": 0.7874015748031497
          },
          {
            "number": 11,
            "ticks": 76950,
            "time": 249.8374125,
            "value": 0.8110236220472441
          },
          {
            "number": 11,
            "ticks": 76970,
            "time": 249.9023475,
            "value": 0.8188976377952756
          },
          {
            "number": 11,
            "ticks": 76980,
            "time": 249.93481500000001,
            "value": 0.8267716535433071
          },
          {
            "number": 11,
            "ticks": 76990,
            "time": 249.9672825,
            "value": 0.8346456692913385
          },
          {
            "number": 11,
            "ticks": 77000,
            "time": 249.99975,
            "value": 0.84251968503937
          },
          {
            "number": 11,
            "ticks": 77010,
            "time": 250.0322175,
            "value": 0.8503937007874016
          },
          {
            "number": 11,
            "ticks": 77020,
            "time": 250.06468500000003,
            "value": 0.8582677165354331
          },
          {
            "number": 11,
            "ticks": 77030,
            "time": 250.0971525,
            "value": 0.8661417322834646
          },
          {
            "number": 11,
            "ticks": 77040,
            "time": 250.12962000000002,
            "value": 0.889763779527559
          },
          {
            "number": 11,
            "ticks": 77060,
            "time": 250.19455499999998,
            "value": 0.8976377952755905
          },
          {
            "number": 11,
            "ticks": 77070,
            "time": 250.2270225,
            "value": 0.905511811023622
          },
          {
            "number": 11,
            "ticks": 77080,
            "time": 250.25949000000003,
            "value": 0.9133858267716536
          },
          {
            "number": 11,
            "ticks": 77090,
            "time": 250.2919575,
            "value": 0.9212598425196851
          },
          {
            "number": 11,
            "ticks": 77100,
            "time": 250.32442500000002,
            "value": 0.9291338582677166
          },
          {
            "number": 11,
            "ticks": 77110,
            "time": 250.35689250000001,
            "value": 0.937007874015748
          },
          {
            "number": 11,
            "ticks": 77120,
            "time": 250.38935999999998,
            "value": 1
          },
          {
            "number": 11,
            "ticks": 77650,
            "time": 252.11013750000004,
            "value": 0.9921259842519685
          },
          {
            "number": 11,
            "ticks": 77660,
            "time": 252.142605,
            "value": 0.984251968503937
          },
          {
            "number": 11,
            "ticks": 77670,
            "time": 252.1750725,
            "value": 1
          },
          {
            "number": 11,
            "ticks": 77785,
            "time": 252.54844875000003,
            "value": 0.984251968503937
          },
          {
            "number": 11,
            "ticks": 77805,
            "time": 252.61338375,
            "value": 0.9606299212598425
          },
          {
            "number": 11,
            "ticks": 77820,
            "time": 252.66208500000002,
            "value": 0.984251968503937
          },
          {
            "number": 11,
            "ticks": 77830,
            "time": 252.69455250000001,
            "value": 0.968503937007874
          },
          {
            "number": 11,
            "ticks": 77840,
            "time": 252.72701999999998,
            "value": 0.9606299212598425
          },
          {
            "number": 11,
            "ticks": 77850,
            "time": 252.7594875,
            "value": 0.937007874015748
          },
          {
            "number": 11,
            "ticks": 77870,
            "time": 252.8244225,
            "value": 0.9212598425196851
          },
          {
            "number": 11,
            "ticks": 77880,
            "time": 252.85689000000002,
            "value": 0.9133858267716536
          },
          {
            "number": 11,
            "ticks": 77890,
            "time": 252.88935750000002,
            "value": 0.8976377952755905
          },
          {
            "number": 11,
            "ticks": 77900,
            "time": 252.92182499999998,
            "value": 0.889763779527559
          },
          {
            "number": 11,
            "ticks": 77910,
            "time": 252.9542925,
            "value": 0.8740157480314961
          },
          {
            "number": 11,
            "ticks": 77920,
            "time": 252.98676000000003,
            "value": 0.8661417322834646
          },
          {
            "number": 11,
            "ticks": 77930,
            "time": 253.0192275,
            "value": 0.8582677165354331
          },
          {
            "number": 11,
            "ticks": 77940,
            "time": 253.051695,
            "value": 0.8346456692913385
          },
          {
            "number": 11,
            "ticks": 77960,
            "time": 253.11663,
            "value": 0.8188976377952756
          },
          {
            "number": 11,
            "ticks": 77970,
            "time": 253.1490975,
            "value": 0.8110236220472441
          },
          {
            "number": 11,
            "ticks": 77980,
            "time": 253.18156500000003,
            "value": 0.7952755905511811
          },
          {
            "number": 11,
            "ticks": 77990,
            "time": 253.2140325,
            "value": 0.7874015748031497
          },
          {
            "number": 11,
            "ticks": 78000,
            "time": 253.2465,
            "value": 0.7716535433070866
          },
          {
            "number": 11,
            "ticks": 78010,
            "time": 253.27896750000002,
            "value": 0.7637795275590551
          },
          {
            "number": 11,
            "ticks": 78020,
            "time": 253.311435,
            "value": 0.7480314960629921
          },
          {
            "number": 11,
            "ticks": 78040,
            "time": 253.37637,
            "value": 0.7401574803149606
          },
          {
            "number": 11,
            "ticks": 78050,
            "time": 253.4088375,
            "value": 0.7480314960629921
          },
          {
            "number": 11,
            "ticks": 78060,
            "time": 253.441305,
            "value": 0.7559055118110236
          },
          {
            "number": 11,
            "ticks": 78080,
            "time": 253.50624,
            "value": 0.7637795275590551
          },
          {
            "number": 11,
            "ticks": 78090,
            "time": 253.53870750000002,
            "value": 0.7716535433070866
          },
          {
            "number": 11,
            "ticks": 78100,
            "time": 253.571175,
            "value": 0.7795275590551181
          },
          {
            "number": 11,
            "ticks": 78120,
            "time": 253.63611,
            "value": 0.7952755905511811
          },
          {
            "number": 11,
            "ticks": 78140,
            "time": 253.701045,
            "value": 0.8031496062992126
          },
          {
            "number": 11,
            "ticks": 78150,
            "time": 253.73351250000002,
            "value": 0.8110236220472441
          },
          {
            "number": 11,
            "ticks": 78170,
            "time": 253.79844749999998,
            "value": 0.8188976377952756
          },
          {
            "number": 11,
            "ticks": 78180,
            "time": 253.830915,
            "value": 0.8267716535433071
          },
          {
            "number": 11,
            "ticks": 78190,
            "time": 253.86338250000003,
            "value": 0.8346456692913385
          },
          {
            "number": 11,
            "ticks": 78210,
            "time": 253.92831750000002,
            "value": 0.8503937007874016
          },
          {
            "number": 11,
            "ticks": 78230,
            "time": 253.99325249999998,
            "value": 0.8582677165354331
          },
          {
            "number": 11,
            "ticks": 78250,
            "time": 254.05818750000003,
            "value": 0.8661417322834646
          },
          {
            "number": 11,
            "ticks": 78260,
            "time": 254.090655,
            "value": 0.8740157480314961
          },
          {
            "number": 11,
            "ticks": 78270,
            "time": 254.1231225,
            "value": 0.8818897637795275
          },
          {
            "number": 11,
            "ticks": 78290,
            "time": 254.18805749999999,
            "value": 0.889763779527559
          },
          {
            "number": 11,
            "ticks": 78300,
            "time": 254.220525,
            "value": 0.905511811023622
          },
          {
            "number": 11,
            "ticks": 78320,
            "time": 254.28546,
            "value": 0.9133858267716536
          },
          {
            "number": 11,
            "ticks": 78340,
            "time": 254.35039500000002,
            "value": 0.9212598425196851
          },
          {
            "number": 11,
            "ticks": 78350,
            "time": 254.3828625,
            "value": 0.9291338582677166
          },
          {
            "number": 11,
            "ticks": 78360,
            "time": 254.41533,
            "value": 0.937007874015748
          },
          {
            "number": 11,
            "ticks": 78380,
            "time": 254.480265,
            "value": 0.9448818897637795
          },
          {
            "number": 11,
            "ticks": 78390,
            "time": 254.5127325,
            "value": 0.952755905511811
          },
          {
            "number": 11,
            "ticks": 78425,
            "time": 254.62636874999998,
            "value": 1
          },
          {
            "number": 11,
            "ticks": 78962,
            "time": 256.3698735,
            "value": 0.33858267716535434
          },
          {
            "number": 11,
            "ticks": 78970,
            "time": 256.3958475,
            "value": 0.3858267716535433
          },
          {
            "number": 11,
            "ticks": 78980,
            "time": 256.428315,
            "value": 0.4094488188976378
          },
          {
            "number": 11,
            "ticks": 78990,
            "time": 256.4607825,
            "value": 0.4251968503937008
          },
          {
            "number": 11,
            "ticks": 79000,
            "time": 256.49325000000005,
            "value": 0.4409448818897638
          },
          {
            "number": 11,
            "ticks": 79010,
            "time": 256.5257175,
            "value": 0.4645669291338583
          },
          {
            "number": 11,
            "ticks": 79020,
            "time": 256.558185,
            "value": 0.5039370078740157
          },
          {
            "number": 11,
            "ticks": 79040,
            "time": 256.62312,
            "value": 0.5196850393700787
          },
          {
            "number": 11,
            "ticks": 79050,
            "time": 256.6555875,
            "value": 0.5354330708661418
          },
          {
            "number": 11,
            "ticks": 79060,
            "time": 256.688055,
            "value": 0.5590551181102362
          },
          {
            "number": 11,
            "ticks": 79070,
            "time": 256.7205225,
            "value": 0.5748031496062992
          },
          {
            "number": 11,
            "ticks": 79080,
            "time": 256.75299,
            "value": 0.5984251968503937
          },
          {
            "number": 11,
            "ticks": 79090,
            "time": 256.7854575,
            "value": 0.6141732283464567
          },
          {
            "number": 11,
            "ticks": 79100,
            "time": 256.817925,
            "value": 0.6299212598425197
          },
          {
            "number": 11,
            "ticks": 79110,
            "time": 256.8503925,
            "value": 0.6692913385826772
          },
          {
            "number": 11,
            "ticks": 79130,
            "time": 256.9153275,
            "value": 0.6929133858267716
          },
          {
            "number": 11,
            "ticks": 79140,
            "time": 256.947795,
            "value": 0.7086614173228346
          },
          {
            "number": 11,
            "ticks": 79150,
            "time": 256.98026250000004,
            "value": 0.7244094488188977
          },
          {
            "number": 11,
            "ticks": 79160,
            "time": 257.01273,
            "value": 0.7480314960629921
          },
          {
            "number": 11,
            "ticks": 79170,
            "time": 257.04519750000003,
            "value": 0.7637795275590551
          },
          {
            "number": 11,
            "ticks": 79180,
            "time": 257.077665,
            "value": 0.7874015748031497
          },
          {
            "number": 11,
            "ticks": 79190,
            "time": 257.1101325,
            "value": 0.8031496062992126
          },
          {
            "number": 11,
            "ticks": 79200,
            "time": 257.1426,
            "value": 0.84251968503937
          },
          {
            "number": 11,
            "ticks": 79220,
            "time": 257.207535,
            "value": 0.8582677165354331
          },
          {
            "number": 11,
            "ticks": 79230,
            "time": 257.2400025,
            "value": 0.8818897637795275
          },
          {
            "number": 11,
            "ticks": 79240,
            "time": 257.27247,
            "value": 0.8976377952755905
          },
          {
            "number": 11,
            "ticks": 79250,
            "time": 257.3049375,
            "value": 0.9133858267716536
          },
          {
            "number": 11,
            "ticks": 79260,
            "time": 257.337405,
            "value": 1
          },
          {
            "number": 11,
            "ticks": 79650,
            "time": 258.6036375,
            "value": 0.984251968503937
          },
          {
            "number": 11,
            "ticks": 79710,
            "time": 258.7984425,
            "value": 0.9606299212598425
          },
          {
            "number": 11,
            "ticks": 79740,
            "time": 258.895845,
            "value": 0.937007874015748
          },
          {
            "number": 11,
            "ticks": 79770,
            "time": 258.9932475,
            "value": 0.9133858267716536
          },
          {
            "number": 11,
            "ticks": 79800,
            "time": 259.09065,
            "value": 0.8661417322834646
          },
          {
            "number": 11,
            "ticks": 79830,
            "time": 259.1880525,
            "value": 0.84251968503937
          },
          {
            "number": 11,
            "ticks": 79860,
            "time": 259.285455,
            "value": 0.8188976377952756
          },
          {
            "number": 11,
            "ticks": 79920,
            "time": 259.48026,
            "value": 0.7952755905511811
          },
          {
            "number": 11,
            "ticks": 79980,
            "time": 259.675065,
            "value": 0.7716535433070866
          },
          {
            "number": 11,
            "ticks": 80010,
            "time": 259.7724675,
            "value": 0.7480314960629921
          },
          {
            "number": 11,
            "ticks": 80040,
            "time": 259.86987,
            "value": 0.7322834645669292
          },
          {
            "number": 11,
            "ticks": 80397,
            "time": 261.02895975,
            "value": 0.4015748031496063
          },
          {
            "number": 11,
            "ticks": 80430,
            "time": 261.1361025,
            "value": 0.4409448818897638
          },
          {
            "number": 11,
            "ticks": 80460,
            "time": 261.233505,
            "value": 0.48031496062992124
          },
          {
            "number": 11,
            "ticks": 80490,
            "time": 261.3309075,
            "value": 0.5275590551181102
          },
          {
            "number": 11,
            "ticks": 80520,
            "time": 261.42831,
            "value": 0.5669291338582677
          },
          {
            "number": 11,
            "ticks": 80550,
            "time": 261.5257125,
            "value": 0.6062992125984252
          },
          {
            "number": 11,
            "ticks": 80580,
            "time": 261.623115,
            "value": 0.6535433070866141
          },
          {
            "number": 11,
            "ticks": 80610,
            "time": 261.7205175,
            "value": 0.6929133858267716
          },
          {
            "number": 11,
            "ticks": 80642,
            "time": 261.8244135,
            "value": 0.7322834645669292
          },
          {
            "number": 11,
            "ticks": 80670,
            "time": 261.9153225,
            "value": 0.7716535433070866
          },
          {
            "number": 11,
            "ticks": 80730,
            "time": 262.11012750000003,
            "value": 0.8188976377952756
          },
          {
            "number": 11,
            "ticks": 80760,
            "time": 262.20753,
            "value": 0.84251968503937
          },
          {
            "number": 11,
            "ticks": 80770,
            "time": 262.2399975,
            "value": 0.8503937007874016
          },
          {
            "number": 11,
            "ticks": 80780,
            "time": 262.272465,
            "value": 0.8582677165354331
          },
          {
            "number": 11,
            "ticks": 80790,
            "time": 262.3049325,
            "value": 0.889763779527559
          },
          {
            "number": 11,
            "ticks": 80820,
            "time": 262.402335,
            "value": 0.9133858267716536
          },
          {
            "number": 11,
            "ticks": 80850,
            "time": 262.4997375,
            "value": 0.937007874015748
          },
          {
            "number": 11,
            "ticks": 80880,
            "time": 262.59714,
            "value": 0.9606299212598425
          },
          {
            "number": 11,
            "ticks": 80910,
            "time": 262.6945425,
            "value": 0.984251968503937
          },
          {
            "number": 11,
            "ticks": 80930,
            "time": 262.7594775,
            "value": 0.9921259842519685
          },
          {
            "number": 11,
            "ticks": 80940,
            "time": 262.791945,
            "value": 1
          },
          {
            "number": 11,
            "ticks": 81290,
            "time": 263.9283075,
            "value": 0.984251968503937
          },
          {
            "number": 11,
            "ticks": 81320,
            "time": 264.02571,
            "value": 0.937007874015748
          },
          {
            "number": 11,
            "ticks": 81340,
            "time": 264.090645,
            "value": 0.9133858267716536
          },
          {
            "number": 11,
            "ticks": 81350,
            "time": 264.1231125,
            "value": 0.889763779527559
          },
          {
            "number": 11,
            "ticks": 81370,
            "time": 264.18804750000004,
            "value": 0.8661417322834646
          },
          {
            "number": 11,
            "ticks": 81390,
            "time": 264.25298250000003,
            "value": 0.84251968503937
          },
          {
            "number": 11,
            "ticks": 81400,
            "time": 264.28545,
            "value": 0.8267716535433071
          },
          {
            "number": 11,
            "ticks": 81410,
            "time": 264.3179175,
            "value": 0.8188976377952756
          },
          {
            "number": 11,
            "ticks": 81430,
            "time": 264.3828525,
            "value": 0.7952755905511811
          },
          {
            "number": 11,
            "ticks": 81445,
            "time": 264.43155375000003,
            "value": 0.7795275590551181
          },
          {
            "number": 11,
            "ticks": 81450,
            "time": 264.4477875,
            "value": 0.7322834645669292
          },
          {
            "number": 11,
            "ticks": 81475,
            "time": 264.52895625,
            "value": 0.6850393700787402
          },
          {
            "number": 11,
            "ticks": 81490,
            "time": 264.57765750000004,
            "value": 0.6692913385826772
          },
          {
            "number": 11,
            "ticks": 81500,
            "time": 264.610125,
            "value": 0.6456692913385826
          },
          {
            "number": 11,
            "ticks": 81510,
            "time": 264.64259250000003,
            "value": 0.6377952755905512
          },
          {
            "number": 11,
            "ticks": 81677,
            "time": 265.18479975,
            "value": 0.4094488188976378
          },
          {
            "number": 11,
            "ticks": 81682,
            "time": 265.2010335,
            "value": 0.4251968503937008
          },
          {
            "number": 11,
            "ticks": 81690,
            "time": 265.2270075,
            "value": 0.4409448818897638
          },
          {
            "number": 11,
            "ticks": 81700,
            "time": 265.259475,
            "value": 0.4566929133858268
          },
          {
            "number": 11,
            "ticks": 81710,
            "time": 265.2919425,
            "value": 0.47244094488188976
          },
          {
            "number": 11,
            "ticks": 81720,
            "time": 265.32441,
            "value": 0.49606299212598426
          },
          {
            "number": 11,
            "ticks": 81740,
            "time": 265.389345,
            "value": 0.5118110236220472
          },
          {
            "number": 11,
            "ticks": 81750,
            "time": 265.4218125,
            "value": 0.5275590551181102
          },
          {
            "number": 11,
            "ticks": 81760,
            "time": 265.45428000000004,
            "value": 0.5433070866141733
          },
          {
            "number": 11,
            "ticks": 81770,
            "time": 265.4867475,
            "value": 0.5511811023622047
          },
          {
            "number": 11,
            "ticks": 81780,
            "time": 265.51921500000003,
            "value": 0.5669291338582677
          },
          {
            "number": 11,
            "ticks": 81790,
            "time": 265.5516825,
            "value": 0.5826771653543307
          },
          {
            "number": 11,
            "ticks": 81800,
            "time": 265.58414999999997,
            "value": 0.5984251968503937
          },
          {
            "number": 11,
            "ticks": 81810,
            "time": 265.6166175,
            "value": 0.6220472440944882
          },
          {
            "number": 11,
            "ticks": 81830,
            "time": 265.6815525,
            "value": 0.6377952755905512
          },
          {
            "number": 11,
            "ticks": 81840,
            "time": 265.71402,
            "value": 0.6535433070866141
          },
          {
            "number": 11,
            "ticks": 81850,
            "time": 265.7464875,
            "value": 0.6692913385826772
          },
          {
            "number": 11,
            "ticks": 81860,
            "time": 265.778955,
            "value": 0.6850393700787402
          },
          {
            "number": 11,
            "ticks": 81870,
            "time": 265.8114225,
            "value": 0.7007874015748031
          },
          {
            "number": 11,
            "ticks": 81880,
            "time": 265.84389000000004,
            "value": 0.7086614173228346
          },
          {
            "number": 11,
            "ticks": 81890,
            "time": 265.8763575,
            "value": 0.7244094488188977
          },
          {
            "number": 11,
            "ticks": 81900,
            "time": 265.90882500000004,
            "value": 0.7559055118110236
          },
          {
            "number": 11,
            "ticks": 81920,
            "time": 265.97375999999997,
            "value": 0.7716535433070866
          },
          {
            "number": 11,
            "ticks": 81930,
            "time": 266.0062275,
            "value": 0.7795275590551181
          },
          {
            "number": 11,
            "ticks": 81940,
            "time": 266.038695,
            "value": 0.7952755905511811
          },
          {
            "number": 11,
            "ticks": 81950,
            "time": 266.0711625,
            "value": 0.8110236220472441
          },
          {
            "number": 11,
            "ticks": 81960,
            "time": 266.10363,
            "value": 0.8267716535433071
          },
          {
            "number": 11,
            "ticks": 81970,
            "time": 266.1360975,
            "value": 0.84251968503937
          },
          {
            "number": 11,
            "ticks": 81980,
            "time": 266.168565,
            "value": 0.8503937007874016
          },
          {
            "number": 11,
            "ticks": 81990,
            "time": 266.2010325,
            "value": 0.8818897637795275
          },
          {
            "number": 11,
            "ticks": 82010,
            "time": 266.2659675,
            "value": 0.8976377952755905
          },
          {
            "number": 11,
            "ticks": 82020,
            "time": 266.298435,
            "value": 0.9133858267716536
          },
          {
            "number": 11,
            "ticks": 82030,
            "time": 266.33090250000004,
            "value": 0.9212598425196851
          },
          {
            "number": 11,
            "ticks": 82040,
            "time": 266.36337,
            "value": 0.937007874015748
          },
          {
            "number": 11,
            "ticks": 82050,
            "time": 266.3958375,
            "value": 0.952755905511811
          },
          {
            "number": 11,
            "ticks": 82060,
            "time": 266.428305,
            "value": 0.968503937007874
          }
        ],
        "91": [
          {
            "number": 91,
            "ticks": 300,
            "time": 0.974025,
            "value": 0.6299212598425197
          }
        ],
        "93": [
          {
            "number": 93,
            "ticks": 300,
            "time": 0.974025,
            "value": 0
          }
        ]
      },
      "pitchBends": [
        {
          "ticks": 34567,
          "time": 112.23040725,
          "value": -0.3182373046875
        },
        {
          "ticks": 34590,
          "time": 112.3050825,
          "value": -0.2274169921875
        },
        {
          "ticks": 34620,
          "time": 112.402485,
          "value": 0
        }
      ],
      "instrument": {
        "family": "ensemble",
        "number": 48,
        "name": "string ensemble 1"
      },
      "name": "",
      "notes": [
        {
          "duration": 0.3993502499999906,
          "durationTicks": 123,
          "midi": 57,
          "name": "A3",
          "ticks": 19322,
          "time": 62.733703500000004,
          "velocity": 0.6141732283464567
        },
        {
          "duration": 0.38311649999999275,
          "durationTicks": 118,
          "midi": 66,
          "name": "F#4",
          "ticks": 19442,
          "time": 63.12331350000001,
          "velocity": 0.5039370078740157
        },
        {
          "duration": 0.3896100000000047,
          "durationTicks": 120,
          "midi": 57,
          "name": "A3",
          "ticks": 19555,
          "time": 63.490196250000004,
          "velocity": 0.6062992125984252
        },
        {
          "duration": 1.162336499999995,
          "durationTicks": 358,
          "midi": 69,
          "name": "A4",
          "ticks": 19682,
          "time": 63.902533500000004,
          "velocity": 0.5275590551181102
        },
        {
          "duration": 0.4220775000000003,
          "durationTicks": 130,
          "midi": 57,
          "name": "A3",
          "ticks": 20280,
          "time": 65.84409000000001,
          "velocity": 0.5590551181102362
        },
        {
          "duration": 0.37986974999999745,
          "durationTicks": 117,
          "midi": 66,
          "name": "F#4",
          "ticks": 20400,
          "time": 66.2337,
          "velocity": 0.48031496062992124
        },
        {
          "duration": 0.3896100000000047,
          "durationTicks": 120,
          "midi": 57,
          "name": "A3",
          "ticks": 20512,
          "time": 66.597336,
          "velocity": 0.5039370078740157
        },
        {
          "duration": 1.363634999999988,
          "durationTicks": 420,
          "midi": 69,
          "name": "A4",
          "ticks": 20640,
          "time": 67.01292000000001,
          "velocity": 0.5905511811023622
        },
        {
          "duration": 0.37986974999999745,
          "durationTicks": 117,
          "midi": 64,
          "name": "E4",
          "ticks": 21240,
          "time": 68.96097,
          "velocity": 0.6220472440944882
        },
        {
          "duration": 0.32467499999999916,
          "durationTicks": 100,
          "midi": 66,
          "name": "F#4",
          "ticks": 21360,
          "time": 69.35058000000001,
          "velocity": 0.5275590551181102
        },
        {
          "duration": 0.3896100000000047,
          "durationTicks": 120,
          "midi": 57,
          "name": "A3",
          "ticks": 21480,
          "time": 69.74019,
          "velocity": 0.5590551181102362
        },
        {
          "duration": 1.1688299999999998,
          "durationTicks": 360,
          "midi": 69,
          "name": "A4",
          "ticks": 21600,
          "time": 70.1298,
          "velocity": 0.5433070866141733
        },
        {
          "duration": 0.37986974999999745,
          "durationTicks": 117,
          "midi": 66,
          "name": "F#4",
          "ticks": 21960,
          "time": 71.29863,
          "velocity": 0.5905511811023622
        },
        {
          "duration": 1.1525962499999878,
          "durationTicks": 355,
          "midi": 71,
          "name": "B4",
          "ticks": 22082,
          "time": 71.69473350000001,
          "velocity": 0.48031496062992124
        },
        {
          "duration": 0.1883114999999833,
          "durationTicks": 58,
          "midi": 69,
          "name": "A4",
          "ticks": 22442,
          "time": 72.86356350000001,
          "velocity": 0.6062992125984252
        },
        {
          "duration": 0.19480500000000234,
          "durationTicks": 60,
          "midi": 68,
          "name": "G#4",
          "ticks": 22500,
          "time": 73.051875,
          "velocity": 0.4330708661417323
        },
        {
          "duration": 1.1688299999999998,
          "durationTicks": 360,
          "midi": 69,
          "name": "A4",
          "ticks": 22560,
          "time": 73.24668,
          "velocity": 0.4566929133858268
        },
        {
          "duration": 0.37986974999999745,
          "durationTicks": 117,
          "midi": 59,
          "name": "B3",
          "ticks": 22920,
          "time": 74.41551,
          "velocity": 0.5669291338582677
        },
        {
          "duration": 0.38311649999999986,
          "durationTicks": 118,
          "midi": 64,
          "name": "E4",
          "ticks": 23042,
          "time": 74.8116135,
          "velocity": 0.4566929133858268
        },
        {
          "duration": 0.37986974999999745,
          "durationTicks": 117,
          "midi": 59,
          "name": "B3",
          "ticks": 23160,
          "time": 75.19473,
          "velocity": 0.5433070866141733
        },
        {
          "duration": 0.38311649999999986,
          "durationTicks": 118,
          "midi": 67,
          "name": "G4",
          "ticks": 23282,
          "time": 75.5908335,
          "velocity": 0.49606299212598426
        },
        {
          "duration": 0.3896100000000047,
          "durationTicks": 120,
          "midi": 64,
          "name": "E4",
          "ticks": 23400,
          "time": 75.97395,
          "velocity": 0.6062992125984252
        },
        {
          "duration": 1.1590897499999926,
          "durationTicks": 357,
          "midi": 71,
          "name": "B4",
          "ticks": 23520,
          "time": 76.36356,
          "velocity": 0.6141732283464567
        },
        {
          "duration": 0.3896100000000047,
          "durationTicks": 120,
          "midi": 59,
          "name": "B3",
          "ticks": 24120,
          "time": 78.31161,
          "velocity": 0.5433070866141733
        },
        {
          "duration": 0.38960999999999046,
          "durationTicks": 120,
          "midi": 67,
          "name": "G4",
          "ticks": 24240,
          "time": 78.70122,
          "velocity": 0.5433070866141733
        },
        {
          "duration": 0.3896100000000047,
          "durationTicks": 120,
          "midi": 64,
          "name": "E4",
          "ticks": 24360,
          "time": 79.09083,
          "velocity": 0.6377952755905512
        },
        {
          "duration": 1.2012975000000097,
          "durationTicks": 370,
          "midi": 71,
          "name": "B4",
          "ticks": 24480,
          "time": 79.48044,
          "velocity": 0.5669291338582677
        },
        {
          "duration": 0.37986974999999745,
          "durationTicks": 117,
          "midi": 66,
          "name": "F#4",
          "ticks": 25080,
          "time": 81.42849,
          "velocity": 0.6377952755905512
        },
        {
          "duration": 0.3896100000000047,
          "durationTicks": 120,
          "midi": 67,
          "name": "G4",
          "ticks": 25200,
          "time": 81.8181,
          "velocity": 0.5905511811023622
        },
        {
          "duration": 0.37986974999999745,
          "durationTicks": 117,
          "midi": 57,
          "name": "A3",
          "ticks": 25320,
          "time": 82.20771,
          "velocity": 0.6535433070866141
        },
        {
          "duration": 0.6655837499999961,
          "durationTicks": 205,
          "midi": 69,
          "name": "A4",
          "ticks": 25442,
          "time": 82.6038135,
          "velocity": 0.6535433070866141
        },
        {
          "duration": 1.5422062499999925,
          "durationTicks": 475,
          "midi": 76,
          "name": "E5",
          "ticks": 25682,
          "time": 83.38303350000001,
          "velocity": 0.6062992125984252
        },
        {
          "duration": 0.18506474999999512,
          "durationTicks": 57,
          "midi": 74,
          "name": "D5",
          "ticks": 26155,
          "time": 84.91874625000001,
          "velocity": 0.6062992125984252
        },
        {
          "duration": 0.18506475000000933,
          "durationTicks": 57,
          "midi": 73,
          "name": "C#5",
          "ticks": 26215,
          "time": 85.11355125,
          "velocity": 0.5039370078740157
        },
        {
          "duration": 0.19480499999998813,
          "durationTicks": 60,
          "midi": 74,
          "name": "D5",
          "ticks": 26270,
          "time": 85.2921225,
          "velocity": 0.5905511811023622
        },
        {
          "duration": 0.19480500000000234,
          "durationTicks": 60,
          "midi": 69,
          "name": "A4",
          "ticks": 26342,
          "time": 85.52588850000001,
          "velocity": 0.6062992125984252
        },
        {
          "duration": 1.8993487500000015,
          "durationTicks": 585,
          "midi": 66,
          "name": "F#4",
          "ticks": 26405,
          "time": 85.73043375,
          "velocity": 0.5433070866141733
        },
        {
          "duration": 0.38311649999999986,
          "durationTicks": 118,
          "midi": 64,
          "name": "E4",
          "ticks": 27122,
          "time": 88.05835350000001,
          "velocity": 0.6614173228346457
        },
        {
          "duration": 0.3993502499999835,
          "durationTicks": 123,
          "midi": 66,
          "name": "F#4",
          "ticks": 27242,
          "time": 88.44796350000001,
          "velocity": 0.6141732283464567
        },
        {
          "duration": 1.1688299999999998,
          "durationTicks": 360,
          "midi": 69,
          "name": "A4",
          "ticks": 27350,
          "time": 88.7986125,
          "velocity": 0.6614173228346457
        },
        {
          "duration": 0.43831124999999815,
          "durationTicks": 135,
          "midi": 78,
          "name": "F#5",
          "ticks": 27712,
          "time": 89.97393600000001,
          "velocity": 0.5118110236220472
        },
        {
          "duration": 0.7532460000000043,
          "durationTicks": 232,
          "midi": 76,
          "name": "E5",
          "ticks": 27835,
          "time": 90.37328625,
          "velocity": 0.5433070866141733
        },
        {
          "duration": 0.7629862499999973,
          "durationTicks": 235,
          "midi": 55,
          "name": "G3",
          "ticks": 27845,
          "time": 90.40575375,
          "velocity": 0.4566929133858268
        },
        {
          "duration": 0.7305187500000017,
          "durationTicks": 225,
          "midi": 81,
          "name": "A5",
          "ticks": 28070,
          "time": 91.1362725,
          "velocity": 0.6377952755905512
        },
        {
          "duration": 0.6818175000000082,
          "durationTicks": 210,
          "midi": 54,
          "name": "F#3",
          "ticks": 28325,
          "time": 91.96419374999999,
          "velocity": 0.4566929133858268
        },
        {
          "duration": 0.7467524999999995,
          "durationTicks": 230,
          "midi": 72,
          "name": "C5",
          "ticks": 28552,
          "time": 92.701206,
          "velocity": 0.6062992125984252
        },
        {
          "duration": 0.707791499999999,
          "durationTicks": 218,
          "midi": 71,
          "name": "B4",
          "ticks": 28792,
          "time": 93.48042600000001,
          "velocity": 0.6377952755905512
        },
        {
          "duration": 0.6590902500000055,
          "durationTicks": 203,
          "midi": 55,
          "name": "G3",
          "ticks": 28802,
          "time": 93.5128935,
          "velocity": 0.4566929133858268
        },
        {
          "duration": 1.581167249999993,
          "durationTicks": 487,
          "midi": 79,
          "name": "G5",
          "ticks": 29035,
          "time": 94.26938625000001,
          "velocity": 0.5748031496062992
        },
        {
          "duration": 0.7142850000000038,
          "durationTicks": 220,
          "midi": 78,
          "name": "F#5",
          "ticks": 29520,
          "time": 95.84406,
          "velocity": 0.5669291338582677
        },
        {
          "duration": 0.7792199999999951,
          "durationTicks": 240,
          "midi": 58,
          "name": "A#3",
          "ticks": 29755,
          "time": 96.60704625000001,
          "velocity": 0.4566929133858268
        },
        {
          "duration": 0.7792199999999951,
          "durationTicks": 240,
          "midi": 78,
          "name": "F#5",
          "ticks": 29757,
          "time": 96.61353975,
          "velocity": 0.5275590551181102
        },
        {
          "duration": 0.25324650000000304,
          "durationTicks": 78,
          "midi": 76,
          "name": "E5",
          "ticks": 29997,
          "time": 97.39275975,
          "velocity": 0.6062992125984252
        },
        {
          "duration": 0.43181775000000755,
          "durationTicks": 133,
          "midi": 67,
          "name": "G4",
          "ticks": 30117,
          "time": 97.78236975,
          "velocity": 0.5905511811023622
        },
        {
          "duration": 0.7954537500000072,
          "durationTicks": 245,
          "midi": 74,
          "name": "D5",
          "ticks": 30237,
          "time": 98.17197975,
          "velocity": 0.44881889763779526
        },
        {
          "duration": 0.811687500000005,
          "durationTicks": 250,
          "midi": 58,
          "name": "A#3",
          "ticks": 30245,
          "time": 98.19795375,
          "velocity": 0.4330708661417323
        },
        {
          "duration": 0.8116874999999908,
          "durationTicks": 250,
          "midi": 70,
          "name": "A#4",
          "ticks": 30480,
          "time": 98.96094000000001,
          "velocity": 0.3543307086614173
        },
        {
          "duration": 2.321426250000002,
          "durationTicks": 715,
          "midi": 64,
          "name": "E4",
          "ticks": 30485,
          "time": 98.97717375,
          "velocity": 0.5748031496062992
        },
        {
          "duration": 3.0519450000000177,
          "durationTicks": 940,
          "midi": 57,
          "name": "A3",
          "ticks": 30722,
          "time": 99.7466535,
          "velocity": 0.5905511811023622
        },
        {
          "duration": 2.996750250000005,
          "durationTicks": 923,
          "midi": 66,
          "name": "F#4",
          "ticks": 30722,
          "time": 99.7466535,
          "velocity": 0.41732283464566927
        },
        {
          "duration": 1.5519464999999997,
          "durationTicks": 478,
          "midi": 62,
          "name": "D4",
          "ticks": 31202,
          "time": 101.3050935,
          "velocity": 0.3937007874015748
        },
        {
          "duration": 2.847399749999994,
          "durationTicks": 877,
          "midi": 57,
          "name": "A3",
          "ticks": 31675,
          "time": 102.84080625,
          "velocity": 0.5433070866141733
        },
        {
          "duration": 1.548699749999983,
          "durationTicks": 477,
          "midi": 64,
          "name": "E4",
          "ticks": 31685,
          "time": 102.87327375000001,
          "velocity": 0.3937007874015748
        },
        {
          "duration": 1.4123362500000098,
          "durationTicks": 435,
          "midi": 61,
          "name": "C#4",
          "ticks": 32150,
          "time": 104.3830125,
          "velocity": 0.5275590551181102
        },
        {
          "duration": 3.133113750000007,
          "durationTicks": 965,
          "midi": 59,
          "name": "B3",
          "ticks": 32620,
          "time": 105.908985,
          "velocity": 0.5275590551181102
        },
        {
          "duration": 3.116880000000009,
          "durationTicks": 960,
          "midi": 67,
          "name": "G4",
          "ticks": 32622,
          "time": 105.9154785,
          "velocity": 0.4330708661417323
        },
        {
          "duration": 1.5746737500000165,
          "durationTicks": 485,
          "midi": 57,
          "name": "A3",
          "ticks": 33595,
          "time": 109.07456624999999,
          "velocity": 0.4645669291338583
        },
        {
          "duration": 1.5746737500000165,
          "durationTicks": 485,
          "midi": 66,
          "name": "F#4",
          "ticks": 33602,
          "time": 109.09729349999999,
          "velocity": 0.33070866141732286
        },
        {
          "duration": 1.5422062499999925,
          "durationTicks": 475,
          "midi": 62,
          "name": "D4",
          "ticks": 33605,
          "time": 109.10703375000001,
          "velocity": 0.33070866141732286
        },
        {
          "duration": 1.4448037500000055,
          "durationTicks": 445,
          "midi": 67,
          "name": "G4",
          "ticks": 34085,
          "time": 110.66547375,
          "velocity": 0.33070866141732286
        },
        {
          "duration": 1.4448037500000055,
          "durationTicks": 445,
          "midi": 62,
          "name": "D4",
          "ticks": 34085,
          "time": 110.66547375,
          "velocity": 0.33070866141732286
        },
        {
          "duration": 1.4350635000000125,
          "durationTicks": 442,
          "midi": 52,
          "name": "E3",
          "ticks": 34085,
          "time": 110.66547375,
          "velocity": 0.4645669291338583
        },
        {
          "duration": 1.4383102500000007,
          "durationTicks": 443,
          "midi": 57,
          "name": "A3",
          "ticks": 34087,
          "time": 110.67196725000001,
          "velocity": 0.4645669291338583
        },
        {
          "duration": 1.389608999999993,
          "durationTicks": 428,
          "midi": 76,
          "name": "E5",
          "ticks": 34087,
          "time": 110.67196725000001,
          "velocity": 0.6929133858267716
        },
        {
          "duration": 1.0714275000000129,
          "durationTicks": 330,
          "midi": 81,
          "name": "A5",
          "ticks": 34567,
          "time": 112.23040725,
          "velocity": 0.7716535433070866
        },
        {
          "duration": 0.3571424999999948,
          "durationTicks": 110,
          "midi": 74,
          "name": "D5",
          "ticks": 34890,
          "time": 113.27910750000001,
          "velocity": 0.7795275590551181
        },
        {
          "duration": 0.7045447500000108,
          "durationTicks": 217,
          "midi": 74,
          "name": "D5",
          "ticks": 35040,
          "time": 113.76612,
          "velocity": 0.7401574803149606
        },
        {
          "duration": 1.905842249999992,
          "durationTicks": 587,
          "midi": 81,
          "name": "A5",
          "ticks": 35250,
          "time": 114.44793750000001,
          "velocity": 0.7401574803149606
        },
        {
          "duration": 0.30844125000000133,
          "durationTicks": 95,
          "midi": 72,
          "name": "C5",
          "ticks": 35880,
          "time": 116.49339,
          "velocity": 0.6929133858267716
        },
        {
          "duration": 0.698051250000006,
          "durationTicks": 215,
          "midi": 72,
          "name": "C5",
          "ticks": 36000,
          "time": 116.88300000000001,
          "velocity": 0.7874015748031497
        },
        {
          "duration": 0.44480474999998876,
          "durationTicks": 137,
          "midi": 81,
          "name": "A5",
          "ticks": 36240,
          "time": 117.66222,
          "velocity": 0.7795275590551181
        },
        {
          "duration": 0.37986974999999745,
          "durationTicks": 117,
          "midi": 83,
          "name": "B5",
          "ticks": 36360,
          "time": 118.05183000000001,
          "velocity": 0.7874015748031497
        },
        {
          "duration": 1.1461027500000114,
          "durationTicks": 353,
          "midi": 81,
          "name": "A5",
          "ticks": 36482,
          "time": 118.44793349999999,
          "velocity": 0.6929133858267716
        },
        {
          "duration": 0.4545450000000102,
          "durationTicks": 140,
          "midi": 79,
          "name": "G5",
          "ticks": 36820,
          "time": 119.545335,
          "velocity": 0.8267716535433071
        },
        {
          "duration": 0.8116875000000192,
          "durationTicks": 250,
          "midi": 79,
          "name": "G5",
          "ticks": 36962,
          "time": 120.0063735,
          "velocity": 0.7244094488188977
        },
        {
          "duration": 1.850647500000008,
          "durationTicks": 570,
          "midi": 78,
          "name": "F#5",
          "ticks": 37200,
          "time": 120.7791,
          "velocity": 0.7874015748031497
        },
        {
          "duration": 1.0876612500000107,
          "durationTicks": 335,
          "midi": 90,
          "name": "F#6",
          "ticks": 37432,
          "time": 121.532346,
          "velocity": 0.47244094488188976
        },
        {
          "duration": 1.064934000000008,
          "durationTicks": 328,
          "midi": 66,
          "name": "F#4",
          "ticks": 37442,
          "time": 121.5648135,
          "velocity": 0.5590551181102362
        },
        {
          "duration": 0.3571424999999948,
          "durationTicks": 110,
          "midi": 88,
          "name": "E6",
          "ticks": 37780,
          "time": 122.662215,
          "velocity": 0.47244094488188976
        },
        {
          "duration": 0.3961034999999953,
          "durationTicks": 122,
          "midi": 64,
          "name": "E4",
          "ticks": 37785,
          "time": 122.67844875,
          "velocity": 0.5590551181102362
        },
        {
          "duration": 0.3506490000000184,
          "durationTicks": 108,
          "midi": 76,
          "name": "E5",
          "ticks": 37802,
          "time": 122.7336435,
          "velocity": 0.7874015748031497
        },
        {
          "duration": 0.7954537500000072,
          "durationTicks": 245,
          "midi": 88,
          "name": "E6",
          "ticks": 37905,
          "time": 123.06805875,
          "velocity": 0.4409448818897638
        },
        {
          "duration": 0.7954537499999788,
          "durationTicks": 245,
          "midi": 64,
          "name": "E4",
          "ticks": 37910,
          "time": 123.08429250000002,
          "velocity": 0.5275590551181102
        },
        {
          "duration": 0.5519474999999971,
          "durationTicks": 170,
          "midi": 76,
          "name": "E5",
          "ticks": 37922,
          "time": 123.1232535,
          "velocity": 0.8346456692913385
        },
        {
          "duration": 0.22077899999999318,
          "durationTicks": 68,
          "midi": 76,
          "name": "E5",
          "ticks": 38162,
          "time": 123.9024735,
          "velocity": 0.7637795275590551
        },
        {
          "duration": 0.1623375000000209,
          "durationTicks": 50,
          "midi": 78,
          "name": "F#5",
          "ticks": 38220,
          "time": 124.090785,
          "velocity": 0.7716535433070866
        },
        {
          "duration": 0.21103875000000016,
          "durationTicks": 65,
          "midi": 79,
          "name": "G5",
          "ticks": 38282,
          "time": 124.2920835,
          "velocity": 0.7795275590551181
        },
        {
          "duration": 0.08766225000000816,
          "durationTicks": 27,
          "midi": 81,
          "name": "A5",
          "ticks": 38340,
          "time": 124.480395,
          "velocity": 0.8346456692913385
        },
        {
          "duration": 0.9675315000000069,
          "durationTicks": 298,
          "midi": 86,
          "name": "D6",
          "ticks": 38402,
          "time": 124.6816935,
          "velocity": 0.7480314960629921
        },
        {
          "duration": 3.074672249999992,
          "durationTicks": 947,
          "midi": 67,
          "name": "G4",
          "ticks": 38405,
          "time": 124.69143375000002,
          "velocity": 0.6692913385826772
        },
        {
          "duration": 0.2922075000000035,
          "durationTicks": 90,
          "midi": 79,
          "name": "G5",
          "ticks": 38730,
          "time": 125.7466275,
          "velocity": 0.8110236220472441
        },
        {
          "duration": 0.7792199999999951,
          "durationTicks": 240,
          "midi": 79,
          "name": "G5",
          "ticks": 38850,
          "time": 126.13623750000001,
          "velocity": 0.8110236220472441
        },
        {
          "duration": 1.6461022500000126,
          "durationTicks": 507,
          "midi": 74,
          "name": "D5",
          "ticks": 38850,
          "time": 126.13623750000001,
          "velocity": 0.6220472440944882
        },
        {
          "duration": 0.6753240000000034,
          "durationTicks": 208,
          "midi": 86,
          "name": "D6",
          "ticks": 39122,
          "time": 127.0193535,
          "velocity": 0.7637795275590551
        },
        {
          "duration": 3.100646249999997,
          "durationTicks": 955,
          "midi": 64,
          "name": "E4",
          "ticks": 39357,
          "time": 127.78233975000002,
          "velocity": 0.5905511811023622
        },
        {
          "duration": 3.110386500000004,
          "durationTicks": 958,
          "midi": 73,
          "name": "C#5",
          "ticks": 39362,
          "time": 127.7985735,
          "velocity": 0.6377952755905512
        },
        {
          "duration": 0.568181249999995,
          "durationTicks": 175,
          "midi": 85,
          "name": "C#6",
          "ticks": 39365,
          "time": 127.80831375000001,
          "velocity": 0.7952755905511811
        },
        {
          "duration": 0.18506475000000933,
          "durationTicks": 57,
          "midi": 85,
          "name": "C#6",
          "ticks": 39600,
          "time": 128.5713,
          "velocity": 0.8031496062992126
        },
        {
          "duration": 0.19480500000000234,
          "durationTicks": 60,
          "midi": 83,
          "name": "B5",
          "ticks": 39640,
          "time": 128.70117,
          "velocity": 0.8031496062992126
        },
        {
          "duration": 0.19480500000000234,
          "durationTicks": 60,
          "midi": 85,
          "name": "C#6",
          "ticks": 39720,
          "time": 128.96091,
          "velocity": 0.8031496062992126
        },
        {
          "duration": 0.19480500000000234,
          "durationTicks": 60,
          "midi": 86,
          "name": "D6",
          "ticks": 39780,
          "time": 129.15571500000001,
          "velocity": 0.6220472440944882
        },
        {
          "duration": 0.7792199999999809,
          "durationTicks": 240,
          "midi": 88,
          "name": "E6",
          "ticks": 39840,
          "time": 129.35052000000002,
          "velocity": 0.7559055118110236
        },
        {
          "duration": 0.7792200000000093,
          "durationTicks": 240,
          "midi": 81,
          "name": "A5",
          "ticks": 40080,
          "time": 130.12974,
          "velocity": 0.8582677165354331
        },
        {
          "duration": 2.3603872500000023,
          "durationTicks": 727,
          "midi": 66,
          "name": "F#4",
          "ticks": 40310,
          "time": 130.8764925,
          "velocity": 0.5905511811023622
        },
        {
          "duration": 3.100646250000011,
          "durationTicks": 955,
          "midi": 73,
          "name": "C#5",
          "ticks": 40325,
          "time": 130.92519375,
          "velocity": 0.6377952755905512
        },
        {
          "duration": 1.1525962499999878,
          "durationTicks": 355,
          "midi": 88,
          "name": "E6",
          "ticks": 40325,
          "time": 130.92519375,
          "velocity": 0.7716535433070866
        },
        {
          "duration": 0.3896100000000047,
          "durationTicks": 120,
          "midi": 81,
          "name": "A5",
          "ticks": 40680,
          "time": 132.07779,
          "velocity": 0.7952755905511811
        },
        {
          "duration": 1.0714274999999986,
          "durationTicks": 330,
          "midi": 93,
          "name": "A6",
          "ticks": 40800,
          "time": 132.4674,
          "velocity": 0.7559055118110236
        },
        {
          "duration": 0.7467524999999853,
          "durationTicks": 230,
          "midi": 64,
          "name": "E4",
          "ticks": 41037,
          "time": 133.23687975,
          "velocity": 0.7165354330708661
        },
        {
          "duration": 0.7792200000000093,
          "durationTicks": 240,
          "midi": 88,
          "name": "E6",
          "ticks": 41040,
          "time": 133.24662,
          "velocity": 0.8031496062992126
        },
        {
          "duration": 1.5909075000000144,
          "durationTicks": 490,
          "midi": 62,
          "name": "D4",
          "ticks": 41267,
          "time": 133.98363225,
          "velocity": 0.7480314960629921
        },
        {
          "duration": 0.5681812499999808,
          "durationTicks": 175,
          "midi": 86,
          "name": "D6",
          "ticks": 41285,
          "time": 134.04207375000001,
          "velocity": 0.7244094488188977
        },
        {
          "duration": 0.18506475000000933,
          "durationTicks": 57,
          "midi": 83,
          "name": "B5",
          "ticks": 41460,
          "time": 134.610255,
          "velocity": 0.8031496062992126
        },
        {
          "duration": 0.18506475000000933,
          "durationTicks": 57,
          "midi": 85,
          "name": "C#6",
          "ticks": 41520,
          "time": 134.80506,
          "velocity": 0.8031496062992126
        },
        {
          "duration": 0.19480500000000234,
          "durationTicks": 60,
          "midi": 86,
          "name": "D6",
          "ticks": 41580,
          "time": 134.999865,
          "velocity": 0.7401574803149606
        },
        {
          "duration": 0.18506475000000933,
          "durationTicks": 57,
          "midi": 90,
          "name": "F#6",
          "ticks": 41640,
          "time": 135.19467,
          "velocity": 0.7952755905511811
        },
        {
          "duration": 0.19480500000000234,
          "durationTicks": 60,
          "midi": 93,
          "name": "A6",
          "ticks": 41700,
          "time": 135.389475,
          "velocity": 0.7244094488188977
        },
        {
          "duration": 0.821427749999998,
          "durationTicks": 253,
          "midi": 59,
          "name": "B3",
          "ticks": 41752,
          "time": 135.55830600000002,
          "velocity": 0.6771653543307087
        },
        {
          "duration": 0.7694797500000163,
          "durationTicks": 237,
          "midi": 83,
          "name": "B5",
          "ticks": 41760,
          "time": 135.58428,
          "velocity": 0.8031496062992126
        },
        {
          "duration": 0.681817499999994,
          "durationTicks": 210,
          "midi": 95,
          "name": "B6",
          "ticks": 41760,
          "time": 135.58428,
          "velocity": 0.7559055118110236
        },
        {
          "duration": 0.7954537499999788,
          "durationTicks": 245,
          "midi": 57,
          "name": "A3",
          "ticks": 41997,
          "time": 136.35375975000002,
          "velocity": 0.6299212598425197
        },
        {
          "duration": 0.5844149999999786,
          "durationTicks": 180,
          "midi": 81,
          "name": "A5",
          "ticks": 42000,
          "time": 136.36350000000002,
          "velocity": 0.7795275590551181
        },
        {
          "duration": 0.5779215000000022,
          "durationTicks": 178,
          "midi": 93,
          "name": "A6",
          "ticks": 42002,
          "time": 136.3699935,
          "velocity": 0.7559055118110236
        },
        {
          "duration": 1.0974014999999895,
          "durationTicks": 338,
          "midi": 74,
          "name": "D5",
          "ticks": 42232,
          "time": 137.116746,
          "velocity": 0.7322834645669292
        },
        {
          "duration": 3.110386500000004,
          "durationTicks": 958,
          "midi": 55,
          "name": "G3",
          "ticks": 42237,
          "time": 137.13297975,
          "velocity": 0.7244094488188977
        },
        {
          "duration": 1.1623365000000092,
          "durationTicks": 358,
          "midi": 83,
          "name": "B5",
          "ticks": 42242,
          "time": 137.1492135,
          "velocity": 0.8976377952755905
        },
        {
          "duration": 1.1688299999999856,
          "durationTicks": 360,
          "midi": 91,
          "name": "G6",
          "ticks": 42260,
          "time": 137.20765500000002,
          "velocity": 0.6850393700787402
        },
        {
          "duration": 0.32467499999998495,
          "durationTicks": 100,
          "midi": 76,
          "name": "E5",
          "ticks": 42600,
          "time": 138.31155,
          "velocity": 0.8031496062992126
        },
        {
          "duration": 0.3409087500000112,
          "durationTicks": 105,
          "midi": 88,
          "name": "E6",
          "ticks": 42602,
          "time": 138.3180435,
          "velocity": 0.7244094488188977
        },
        {
          "duration": 0.681817499999994,
          "durationTicks": 210,
          "midi": 88,
          "name": "E6",
          "ticks": 42720,
          "time": 138.70116000000002,
          "velocity": 0.7244094488188977
        },
        {
          "duration": 0.7727265000000045,
          "durationTicks": 238,
          "midi": 76,
          "name": "E5",
          "ticks": 42722,
          "time": 138.7076535,
          "velocity": 0.8503937007874016
        },
        {
          "duration": 0.4058437500000025,
          "durationTicks": 125,
          "midi": 78,
          "name": "F#5",
          "ticks": 42960,
          "time": 139.48038,
          "velocity": 0.8503937007874016
        },
        {
          "duration": 0.4058437500000025,
          "durationTicks": 125,
          "midi": 90,
          "name": "F#6",
          "ticks": 42962,
          "time": 139.4868735,
          "velocity": 0.6771653543307087
        },
        {
          "duration": 0.32467499999998495,
          "durationTicks": 100,
          "midi": 79,
          "name": "G5",
          "ticks": 43080,
          "time": 139.86999,
          "velocity": 0.8031496062992126
        },
        {
          "duration": 0.37337625000000685,
          "durationTicks": 115,
          "midi": 91,
          "name": "G6",
          "ticks": 43082,
          "time": 139.8764835,
          "velocity": 0.6299212598425197
        },
        {
          "duration": 2.321426250000002,
          "durationTicks": 715,
          "midi": 93,
          "name": "A6",
          "ticks": 43205,
          "time": 140.27583375,
          "velocity": 0.6141732283464567
        },
        {
          "duration": 0.7532460000000185,
          "durationTicks": 232,
          "midi": 79,
          "name": "G5",
          "ticks": 43205,
          "time": 140.27583375,
          "velocity": 0.9133858267716536
        },
        {
          "duration": 3.0941527500000063,
          "durationTicks": 953,
          "midi": 57,
          "name": "A3",
          "ticks": 43207,
          "time": 140.28232725,
          "velocity": 0.7086614173228346
        },
        {
          "duration": 1.5584399999999903,
          "durationTicks": 480,
          "midi": 69,
          "name": "A4",
          "ticks": 43440,
          "time": 141.03882000000002,
          "velocity": 0.7559055118110236
        },
        {
          "duration": 1.5519465000000139,
          "durationTicks": 478,
          "midi": 81,
          "name": "A5",
          "ticks": 43442,
          "time": 141.0453135,
          "velocity": 0.7559055118110236
        },
        {
          "duration": 0.7727265000000045,
          "durationTicks": 238,
          "midi": 91,
          "name": "G6",
          "ticks": 43922,
          "time": 142.6037535,
          "velocity": 0.7086614173228346
        },
        {
          "duration": 0.7792199999999809,
          "durationTicks": 240,
          "midi": 79,
          "name": "G5",
          "ticks": 43922,
          "time": 142.6037535,
          "velocity": 0.8188976377952756
        },
        {
          "duration": 3.094152749999978,
          "durationTicks": 953,
          "midi": 55,
          "name": "G3",
          "ticks": 44167,
          "time": 143.39920725000002,
          "velocity": 0.5905511811023622
        },
        {
          "duration": 0.7402589999999805,
          "durationTicks": 228,
          "midi": 79,
          "name": "G5",
          "ticks": 44167,
          "time": 143.39920725000002,
          "velocity": 0.952755905511811
        },
        {
          "duration": 1.168830000000014,
          "durationTicks": 360,
          "midi": 71,
          "name": "B4",
          "ticks": 44400,
          "time": 144.1557,
          "velocity": 0.905511811023622
        },
        {
          "duration": 1.0811677499999917,
          "durationTicks": 333,
          "midi": 83,
          "name": "B5",
          "ticks": 44407,
          "time": 144.17842725,
          "velocity": 0.7401574803149606
        },
        {
          "duration": 0.15259724999998525,
          "durationTicks": 47,
          "midi": 76,
          "name": "E5",
          "ticks": 44760,
          "time": 145.32453,
          "velocity": 0.905511811023622
        },
        {
          "duration": 0.21753225000000498,
          "durationTicks": 67,
          "midi": 78,
          "name": "F#5",
          "ticks": 44820,
          "time": 145.519335,
          "velocity": 0.7716535433070866
        },
        {
          "duration": 0.2499997499999722,
          "durationTicks": 77,
          "midi": 79,
          "name": "G5",
          "ticks": 44880,
          "time": 145.71414000000001,
          "velocity": 0.8582677165354331
        },
        {
          "duration": 0.21103875000002859,
          "durationTicks": 65,
          "midi": 71,
          "name": "B4",
          "ticks": 45000,
          "time": 146.10375,
          "velocity": 0.905511811023622
        },
        {
          "duration": 0.21753225000000498,
          "durationTicks": 67,
          "midi": 73,
          "name": "C#5",
          "ticks": 45060,
          "time": 146.298555,
          "velocity": 0.7716535433070866
        },
        {
          "duration": 1.5909075000000144,
          "durationTicks": 490,
          "midi": 54,
          "name": "F#3",
          "ticks": 45107,
          "time": 146.45115225,
          "velocity": 0.4015748031496063
        },
        {
          "duration": 1.590907499999986,
          "durationTicks": 490,
          "midi": 74,
          "name": "D5",
          "ticks": 45125,
          "time": 146.50959375000002,
          "velocity": 0.5984251968503937
        },
        {
          "duration": 1.5844140000000095,
          "durationTicks": 488,
          "midi": 69,
          "name": "A4",
          "ticks": 45127,
          "time": 146.51608725,
          "velocity": 0.6456692913385826
        },
        {
          "duration": 6.087656249999981,
          "durationTicks": 1875,
          "midi": 66,
          "name": "F#4",
          "ticks": 46082,
          "time": 149.6167335,
          "velocity": 0.3543307086614173
        },
        {
          "duration": 3.100646250000011,
          "durationTicks": 955,
          "midi": 62,
          "name": "D4",
          "ticks": 46082,
          "time": 149.6167335,
          "velocity": 0.3543307086614173
        },
        {
          "duration": 2.9967502500000194,
          "durationTicks": 923,
          "midi": 61,
          "name": "C#4",
          "ticks": 47042,
          "time": 152.7336135,
          "velocity": 0.3700787401574803
        },
        {
          "duration": 2.9545425000000023,
          "durationTicks": 910,
          "midi": 60,
          "name": "C4",
          "ticks": 48002,
          "time": 155.8504935,
          "velocity": 0.3779527559055118
        },
        {
          "duration": 2.9480489999999975,
          "durationTicks": 908,
          "midi": 64,
          "name": "E4",
          "ticks": 48002,
          "time": 155.8504935,
          "velocity": 0.3779527559055118
        },
        {
          "duration": 3.133113750000007,
          "durationTicks": 965,
          "midi": 59,
          "name": "B3",
          "ticks": 48945,
          "time": 158.91217875,
          "velocity": 0.3858267716535433
        },
        {
          "duration": 0.7532459999999901,
          "durationTicks": 232,
          "midi": 64,
          "name": "E4",
          "ticks": 48945,
          "time": 158.91217875,
          "velocity": 0.3858267716535433
        },
        {
          "duration": 2.402594999999991,
          "durationTicks": 740,
          "midi": 63,
          "name": "D#4",
          "ticks": 49185,
          "time": 159.69139875000002,
          "velocity": 0.3858267716535433
        },
        {
          "duration": 3.110386500000004,
          "durationTicks": 958,
          "midi": 64,
          "name": "E4",
          "ticks": 49922,
          "time": 162.0842535,
          "velocity": 0.30708661417322836
        },
        {
          "duration": 6.0973965000000305,
          "durationTicks": 1878,
          "midi": 71,
          "name": "B4",
          "ticks": 49922,
          "time": 162.0842535,
          "velocity": 0.30708661417322836
        },
        {
          "duration": 6.0973965000000305,
          "durationTicks": 1878,
          "midi": 67,
          "name": "G4",
          "ticks": 49922,
          "time": 162.0842535,
          "velocity": 0.33858267716535434
        },
        {
          "duration": 3.045451500000013,
          "durationTicks": 938,
          "midi": 62,
          "name": "D4",
          "ticks": 50882,
          "time": 165.2011335,
          "velocity": 0.33858267716535434
        },
        {
          "duration": 3.0357112499999914,
          "durationTicks": 935,
          "midi": 61,
          "name": "C#4",
          "ticks": 51842,
          "time": 168.3180135,
          "velocity": 0.33858267716535434
        },
        {
          "duration": 3.0454514999999844,
          "durationTicks": 938,
          "midi": 69,
          "name": "A4",
          "ticks": 51842,
          "time": 168.3180135,
          "velocity": 0.33858267716535434
        },
        {
          "duration": 3.0357112499999914,
          "durationTicks": 935,
          "midi": 64,
          "name": "E4",
          "ticks": 51845,
          "time": 168.32775375,
          "velocity": 0.33858267716535434
        },
        {
          "duration": 0.6428565000000219,
          "durationTicks": 198,
          "midi": 67,
          "name": "G4",
          "ticks": 52802,
          "time": 171.4348935,
          "velocity": 0.33858267716535434
        },
        {
          "duration": 0.6331162500000005,
          "durationTicks": 195,
          "midi": 76,
          "name": "E5",
          "ticks": 52802,
          "time": 171.4348935,
          "velocity": 0.33858267716535434
        },
        {
          "duration": 3.1006462499999827,
          "durationTicks": 955,
          "midi": 62,
          "name": "D4",
          "ticks": 52805,
          "time": 171.44463375,
          "velocity": 0.33858267716535434
        },
        {
          "duration": 3.1006462499999827,
          "durationTicks": 955,
          "midi": 69,
          "name": "A4",
          "ticks": 52805,
          "time": 171.44463375,
          "velocity": 0.33858267716535434
        },
        {
          "duration": 2.3441535000000044,
          "durationTicks": 722,
          "midi": 74,
          "name": "D5",
          "ticks": 53040,
          "time": 172.20762,
          "velocity": 0.3464566929133858
        },
        {
          "duration": 2.3376599999999996,
          "durationTicks": 720,
          "midi": 66,
          "name": "F#4",
          "ticks": 53042,
          "time": 172.2141135,
          "velocity": 0.33858267716535434
        },
        {
          "duration": 0.38311649999999986,
          "durationTicks": 118,
          "midi": 64,
          "name": "E4",
          "ticks": 54002,
          "time": 175.3309935,
          "velocity": 0.6614173228346457
        },
        {
          "duration": 0.4058437500000025,
          "durationTicks": 125,
          "midi": 66,
          "name": "F#4",
          "ticks": 54120,
          "time": 175.71411,
          "velocity": 0.6141732283464567
        },
        {
          "duration": 1.1688299999999856,
          "durationTicks": 360,
          "midi": 69,
          "name": "A4",
          "ticks": 54230,
          "time": 176.0712525,
          "velocity": 0.6614173228346457
        },
        {
          "duration": 1.493504999999999,
          "durationTicks": 460,
          "midi": 61,
          "name": "C#4",
          "ticks": 54235,
          "time": 176.08748625,
          "velocity": 0.49606299212598426
        },
        {
          "duration": 0.43831124999999815,
          "durationTicks": 135,
          "midi": 78,
          "name": "F#5",
          "ticks": 54592,
          "time": 177.246576,
          "velocity": 0.5118110236220472
        },
        {
          "duration": 0.7532459999999901,
          "durationTicks": 232,
          "midi": 76,
          "name": "E5",
          "ticks": 54715,
          "time": 177.64592625,
          "velocity": 0.5433070866141733
        },
        {
          "duration": 1.4123362499999814,
          "durationTicks": 435,
          "midi": 55,
          "name": "G3",
          "ticks": 54725,
          "time": 177.67839375000003,
          "velocity": 0.4566929133858268
        },
        {
          "duration": 1.564933499999995,
          "durationTicks": 482,
          "midi": 81,
          "name": "A5",
          "ticks": 54950,
          "time": 178.4089125,
          "velocity": 0.6377952755905512
        },
        {
          "duration": 1.4025959999999884,
          "durationTicks": 432,
          "midi": 54,
          "name": "F#3",
          "ticks": 55205,
          "time": 179.23683375000002,
          "velocity": 0.4566929133858268
        },
        {
          "duration": 0.7727265000000045,
          "durationTicks": 238,
          "midi": 72,
          "name": "C5",
          "ticks": 55432,
          "time": 179.973846,
          "velocity": 0.6062992125984252
        },
        {
          "duration": 0.7727265000000045,
          "durationTicks": 238,
          "midi": 71,
          "name": "B4",
          "ticks": 55672,
          "time": 180.75306600000002,
          "velocity": 0.6377952755905512
        },
        {
          "duration": 3.0844125000000133,
          "durationTicks": 950,
          "midi": 55,
          "name": "G3",
          "ticks": 55682,
          "time": 180.78553349999999,
          "velocity": 0.4566929133858268
        },
        {
          "duration": 1.5811672500000213,
          "durationTicks": 487,
          "midi": 79,
          "name": "G5",
          "ticks": 55915,
          "time": 181.54202625,
          "velocity": 0.5748031496062992
        },
        {
          "duration": 0.7142849999999896,
          "durationTicks": 220,
          "midi": 78,
          "name": "F#5",
          "ticks": 56400,
          "time": 183.1167,
          "velocity": 0.5669291338582677
        },
        {
          "duration": 0.7694797500000163,
          "durationTicks": 237,
          "midi": 58,
          "name": "A#3",
          "ticks": 56635,
          "time": 183.87968625,
          "velocity": 0.4566929133858268
        },
        {
          "duration": 0.7792199999999809,
          "durationTicks": 240,
          "midi": 78,
          "name": "F#5",
          "ticks": 56637,
          "time": 183.88617975000003,
          "velocity": 0.5275590551181102
        },
        {
          "duration": 0.25324649999998883,
          "durationTicks": 78,
          "midi": 76,
          "name": "E5",
          "ticks": 56877,
          "time": 184.66539975,
          "velocity": 0.6062992125984252
        },
        {
          "duration": 0.43181774999999334,
          "durationTicks": 133,
          "midi": 67,
          "name": "G4",
          "ticks": 56997,
          "time": 185.05500975,
          "velocity": 0.5905511811023622
        },
        {
          "duration": 0.7954537499999788,
          "durationTicks": 245,
          "midi": 74,
          "name": "D5",
          "ticks": 57117,
          "time": 185.44461975000002,
          "velocity": 0.44881889763779526
        },
        {
          "duration": 0.811687500000005,
          "durationTicks": 250,
          "midi": 58,
          "name": "A#3",
          "ticks": 57125,
          "time": 185.47059375,
          "velocity": 0.4330708661417323
        },
        {
          "duration": 0.8051940000000002,
          "durationTicks": 248,
          "midi": 70,
          "name": "A#4",
          "ticks": 57362,
          "time": 186.2400735,
          "velocity": 0.3543307086614173
        },
        {
          "duration": 2.311686000000009,
          "durationTicks": 712,
          "midi": 64,
          "name": "E4",
          "ticks": 57365,
          "time": 186.24981375000002,
          "velocity": 0.5748031496062992
        },
        {
          "duration": 2.996750249999991,
          "durationTicks": 923,
          "midi": 66,
          "name": "F#4",
          "ticks": 57602,
          "time": 187.0192935,
          "velocity": 0.41732283464566927
        },
        {
          "duration": 3.0519450000000177,
          "durationTicks": 940,
          "midi": 57,
          "name": "A3",
          "ticks": 57602,
          "time": 187.0192935,
          "velocity": 0.5905511811023622
        },
        {
          "duration": 1.5519465000000139,
          "durationTicks": 478,
          "midi": 62,
          "name": "D4",
          "ticks": 58082,
          "time": 188.5777335,
          "velocity": 0.3937007874015748
        },
        {
          "duration": 2.8571400000000153,
          "durationTicks": 880,
          "midi": 57,
          "name": "A3",
          "ticks": 58555,
          "time": 190.11344625,
          "velocity": 0.5433070866141733
        },
        {
          "duration": 1.5584400000000187,
          "durationTicks": 480,
          "midi": 64,
          "name": "E4",
          "ticks": 58565,
          "time": 190.14591375,
          "velocity": 0.3937007874015748
        },
        {
          "duration": 1.4123362500000098,
          "durationTicks": 435,
          "midi": 61,
          "name": "C#4",
          "ticks": 59030,
          "time": 191.6556525,
          "velocity": 0.5275590551181102
        },
        {
          "duration": 3.133113750000007,
          "durationTicks": 965,
          "midi": 59,
          "name": "B3",
          "ticks": 59500,
          "time": 193.181625,
          "velocity": 0.5275590551181102
        },
        {
          "duration": 3.116880000000009,
          "durationTicks": 960,
          "midi": 67,
          "name": "G4",
          "ticks": 59502,
          "time": 193.1881185,
          "velocity": 0.4330708661417323
        },
        {
          "duration": 1.5746737500000165,
          "durationTicks": 485,
          "midi": 57,
          "name": "A3",
          "ticks": 60475,
          "time": 196.34720625,
          "velocity": 0.4645669291338583
        },
        {
          "duration": 1.5422062499999925,
          "durationTicks": 475,
          "midi": 62,
          "name": "D4",
          "ticks": 60485,
          "time": 196.37967375000002,
          "velocity": 0.33070866141732286
        },
        {
          "duration": 1.564933499999995,
          "durationTicks": 482,
          "midi": 66,
          "name": "F#4",
          "ticks": 60485,
          "time": 196.37967375000002,
          "velocity": 0.33070866141732286
        },
        {
          "duration": 0.7629862499999831,
          "durationTicks": 235,
          "midi": 67,
          "name": "G4",
          "ticks": 60965,
          "time": 197.93811375,
          "velocity": 0.33070866141732286
        },
        {
          "duration": 1.4448037500000055,
          "durationTicks": 445,
          "midi": 52,
          "name": "E3",
          "ticks": 60965,
          "time": 197.93811375,
          "velocity": 0.4645669291338583
        },
        {
          "duration": 0.7629862499999831,
          "durationTicks": 235,
          "midi": 62,
          "name": "D4",
          "ticks": 60965,
          "time": 197.93811375,
          "velocity": 0.33070866141732286
        },
        {
          "duration": 0.7564927499999783,
          "durationTicks": 233,
          "midi": 57,
          "name": "A3",
          "ticks": 60967,
          "time": 197.94460725000002,
          "velocity": 0.4645669291338583
        },
        {
          "duration": 0.7370122499999923,
          "durationTicks": 227,
          "midi": 76,
          "name": "E5",
          "ticks": 60970,
          "time": 197.9543475,
          "velocity": 0.6929133858267716
        },
        {
          "duration": 0.09090900000001056,
          "durationTicks": 28,
          "midi": 69,
          "name": "A4",
          "ticks": 61202,
          "time": 198.7075935,
          "velocity": 0.6850393700787402
        },
        {
          "duration": 0.09740249999998696,
          "durationTicks": 30,
          "midi": 71,
          "name": "B4",
          "ticks": 61230,
          "time": 198.7985025,
          "velocity": 0.7007874015748031
        },
        {
          "duration": 0.09740250000001538,
          "durationTicks": 30,
          "midi": 73,
          "name": "C#5",
          "ticks": 61260,
          "time": 198.895905,
          "velocity": 0.7244094488188977
        },
        {
          "duration": 0.09740249999998696,
          "durationTicks": 30,
          "midi": 74,
          "name": "D5",
          "ticks": 61290,
          "time": 198.99330750000001,
          "velocity": 0.7401574803149606
        },
        {
          "duration": 0.09090900000001056,
          "durationTicks": 28,
          "midi": 76,
          "name": "E5",
          "ticks": 61322,
          "time": 199.0972035,
          "velocity": 0.7637795275590551
        },
        {
          "duration": 0.08766224999999395,
          "durationTicks": 27,
          "midi": 78,
          "name": "F#5",
          "ticks": 61350,
          "time": 199.18811250000002,
          "velocity": 0.7795275590551181
        },
        {
          "duration": 0.09740250000001538,
          "durationTicks": 30,
          "midi": 79,
          "name": "G5",
          "ticks": 61380,
          "time": 199.285515,
          "velocity": 0.8031496062992126
        },
        {
          "duration": 0.09090900000001056,
          "durationTicks": 28,
          "midi": 81,
          "name": "A5",
          "ticks": 61412,
          "time": 199.389411,
          "velocity": 0.8267716535433071
        },
        {
          "duration": 1.5519465000000139,
          "durationTicks": 478,
          "midi": 62,
          "name": "D4",
          "ticks": 61447,
          "time": 199.50304724999998,
          "velocity": 0.7874015748031497
        },
        {
          "duration": 1.0649340000000223,
          "durationTicks": 328,
          "midi": 81,
          "name": "A5",
          "ticks": 61447,
          "time": 199.50304724999998,
          "velocity": 0.7874015748031497
        },
        {
          "duration": 0.3409087499999828,
          "durationTicks": 105,
          "midi": 73,
          "name": "C#5",
          "ticks": 61800,
          "time": 200.64915000000002,
          "velocity": 0.8110236220472441
        },
        {
          "duration": 0.8279212500000028,
          "durationTicks": 255,
          "midi": 73,
          "name": "C#5",
          "ticks": 61922,
          "time": 201.0452535,
          "velocity": 0.8110236220472441
        },
        {
          "duration": 1.5162322500000016,
          "durationTicks": 467,
          "midi": 61,
          "name": "C#4",
          "ticks": 61925,
          "time": 201.05499375,
          "velocity": 0.8110236220472441
        },
        {
          "duration": 0.6883109999999988,
          "durationTicks": 212,
          "midi": 81,
          "name": "A5",
          "ticks": 62160,
          "time": 201.81798,
          "velocity": 0.8110236220472441
        },
        {
          "duration": 1.5162322500000016,
          "durationTicks": 467,
          "midi": 81,
          "name": "A5",
          "ticks": 62405,
          "time": 202.61343374999998,
          "velocity": 0.8110236220472441
        },
        {
          "duration": 3.100646250000011,
          "durationTicks": 955,
          "midi": 60,
          "name": "C4",
          "ticks": 62405,
          "time": 202.61343374999998,
          "velocity": 0.8110236220472441
        },
        {
          "duration": 0.7889602499999739,
          "durationTicks": 243,
          "midi": 72,
          "name": "C5",
          "ticks": 62882,
          "time": 204.1621335,
          "velocity": 0.8110236220472441
        },
        {
          "duration": 0.3084412499999871,
          "durationTicks": 95,
          "midi": 81,
          "name": "A5",
          "ticks": 63120,
          "time": 204.93486000000001,
          "velocity": 0.8110236220472441
        },
        {
          "duration": 1.8409072499999866,
          "durationTicks": 567,
          "midi": 86,
          "name": "D6",
          "ticks": 63240,
          "time": 205.32447000000002,
          "velocity": 0.8110236220472441
        },
        {
          "duration": 4.870125000000002,
          "durationTicks": 1500,
          "midi": 59,
          "name": "B3",
          "ticks": 63362,
          "time": 205.7205735,
          "velocity": 0.8110236220472441
        },
        {
          "duration": 0.7305187500000159,
          "durationTicks": 225,
          "midi": 79,
          "name": "G5",
          "ticks": 63842,
          "time": 207.2790135,
          "velocity": 0.8110236220472441
        },
        {
          "duration": 0.7045447499999966,
          "durationTicks": 217,
          "midi": 86,
          "name": "D6",
          "ticks": 64080,
          "time": 208.05174,
          "velocity": 0.8110236220472441
        },
        {
          "duration": 1.4707777499999963,
          "durationTicks": 453,
          "midi": 86,
          "name": "D6",
          "ticks": 64322,
          "time": 208.8374535,
          "velocity": 0.8110236220472441
        },
        {
          "duration": 0.37986975000001166,
          "durationTicks": 117,
          "midi": 59,
          "name": "B3",
          "ticks": 64920,
          "time": 210.77901,
          "velocity": 0.7952755905511811
        },
        {
          "duration": 0.2922074999999893,
          "durationTicks": 90,
          "midi": 76,
          "name": "E5",
          "ticks": 64930,
          "time": 210.81147750000002,
          "velocity": 0.7952755905511811
        },
        {
          "duration": 0.26948024999995823,
          "durationTicks": 83,
          "midi": 88,
          "name": "E6",
          "ticks": 64932,
          "time": 210.81797100000003,
          "velocity": 0.7952755905511811
        },
        {
          "duration": 0.38960999999997625,
          "durationTicks": 120,
          "midi": 61,
          "name": "C#4",
          "ticks": 65035,
          "time": 211.15238625000003,
          "velocity": 0.8110236220472441
        },
        {
          "duration": 0.2662335000000269,
          "durationTicks": 82,
          "midi": 78,
          "name": "F#5",
          "ticks": 65045,
          "time": 211.18485375,
          "velocity": 0.8110236220472441
        },
        {
          "duration": 0.2597400000000505,
          "durationTicks": 80,
          "midi": 90,
          "name": "F#6",
          "ticks": 65047,
          "time": 211.19134724999998,
          "velocity": 0.8110236220472441
        },
        {
          "duration": 0.37986975000001166,
          "durationTicks": 117,
          "midi": 79,
          "name": "G5",
          "ticks": 65150,
          "time": 211.52576249999998,
          "velocity": 0.8267716535433071
        },
        {
          "duration": 0.35714250000003744,
          "durationTicks": 110,
          "midi": 91,
          "name": "G6",
          "ticks": 65152,
          "time": 211.532256,
          "velocity": 0.8346456692913385
        },
        {
          "duration": 0.3896100000000047,
          "durationTicks": 120,
          "midi": 62,
          "name": "D4",
          "ticks": 65155,
          "time": 211.54199625,
          "velocity": 0.8346456692913385
        },
        {
          "duration": 0.999999000000031,
          "durationTicks": 308,
          "midi": 91,
          "name": "G6",
          "ticks": 65282,
          "time": 211.9543335,
          "velocity": 0.8503937007874016
        },
        {
          "duration": 0.9967522500000427,
          "durationTicks": 307,
          "midi": 79,
          "name": "G5",
          "ticks": 65285,
          "time": 211.96407374999998,
          "velocity": 0.8503937007874016
        },
        {
          "duration": 0.46428525000004583,
          "durationTicks": 143,
          "midi": 90,
          "name": "F#6",
          "ticks": 65612,
          "time": 213.025761,
          "velocity": 0.7874015748031497
        },
        {
          "duration": 0.4610385000000292,
          "durationTicks": 142,
          "midi": 78,
          "name": "F#5",
          "ticks": 65615,
          "time": 213.03550124999998,
          "velocity": 0.7874015748031497
        },
        {
          "duration": 1.0811677499999917,
          "durationTicks": 333,
          "midi": 88,
          "name": "E6",
          "ticks": 65757,
          "time": 213.49653975,
          "velocity": 0.7874015748031497
        },
        {
          "duration": 1.0779210000000035,
          "durationTicks": 332,
          "midi": 76,
          "name": "E5",
          "ticks": 65760,
          "time": 213.50628,
          "velocity": 0.7874015748031497
        },
        {
          "duration": 0.4642852500000174,
          "durationTicks": 143,
          "midi": 86,
          "name": "D6",
          "ticks": 66107,
          "time": 214.63290225,
          "velocity": 0.8031496062992126
        },
        {
          "duration": 0.4642852500000174,
          "durationTicks": 143,
          "midi": 74,
          "name": "D5",
          "ticks": 66112,
          "time": 214.649136,
          "velocity": 0.8031496062992126
        },
        {
          "duration": 1.5681802500000401,
          "durationTicks": 483,
          "midi": 88,
          "name": "E6",
          "ticks": 66232,
          "time": 215.03874599999997,
          "velocity": 0.8031496062992126
        },
        {
          "duration": 1.5681802499999833,
          "durationTicks": 483,
          "midi": 76,
          "name": "E5",
          "ticks": 66237,
          "time": 215.05497975000003,
          "velocity": 0.8031496062992126
        },
        {
          "duration": 4.64934599999998,
          "durationTicks": 1432,
          "midi": 57,
          "name": "A3",
          "ticks": 66720,
          "time": 216.62316,
          "velocity": 0.8188976377952756
        },
        {
          "duration": 1.5519465000000139,
          "durationTicks": 478,
          "midi": 81,
          "name": "A5",
          "ticks": 66722,
          "time": 216.6296535,
          "velocity": 0.8188976377952756
        },
        {
          "duration": 0.7792200000000093,
          "durationTicks": 240,
          "midi": 93,
          "name": "A6",
          "ticks": 66960,
          "time": 217.40238,
          "velocity": 0.8267716535433071
        },
        {
          "duration": 1.0811677499999917,
          "durationTicks": 333,
          "midi": 93,
          "name": "A6",
          "ticks": 67202,
          "time": 218.1880935,
          "velocity": 0.8346456692913385
        },
        {
          "duration": 1.0714274999999986,
          "durationTicks": 330,
          "midi": 81,
          "name": "A5",
          "ticks": 67205,
          "time": 218.19783375,
          "velocity": 0.8346456692913385
        },
        {
          "duration": 0.2922074999999893,
          "durationTicks": 90,
          "midi": 79,
          "name": "G5",
          "ticks": 67557,
          "time": 219.34068975000002,
          "velocity": 0.84251968503937
        },
        {
          "duration": 0.3019477499999823,
          "durationTicks": 93,
          "midi": 91,
          "name": "G6",
          "ticks": 67557,
          "time": 219.34068975000002,
          "velocity": 0.84251968503937
        },
        {
          "duration": 1.0649339999999938,
          "durationTicks": 328,
          "midi": 78,
          "name": "F#5",
          "ticks": 67677,
          "time": 219.73029975000003,
          "velocity": 0.8503937007874016
        },
        {
          "duration": 1.0649339999999938,
          "durationTicks": 328,
          "midi": 90,
          "name": "F#6",
          "ticks": 67677,
          "time": 219.73029975000003,
          "velocity": 0.8503937007874016
        },
        {
          "duration": 0.31493474999999194,
          "durationTicks": 97,
          "midi": 76,
          "name": "E5",
          "ticks": 68035,
          "time": 220.89263625,
          "velocity": 0.8582677165354331
        },
        {
          "duration": 0.31493474999999194,
          "durationTicks": 97,
          "midi": 88,
          "name": "E6",
          "ticks": 68035,
          "time": 220.89263625,
          "velocity": 0.8582677165354331
        },
        {
          "duration": 2.9448022500000377,
          "durationTicks": 907,
          "midi": 59,
          "name": "B3",
          "ticks": 68150,
          "time": 221.2660125,
          "velocity": 0.8661417322834646
        },
        {
          "duration": 1.4772712500000296,
          "durationTicks": 455,
          "midi": 78,
          "name": "F#5",
          "ticks": 68152,
          "time": 221.272506,
          "velocity": 0.8661417322834646
        },
        {
          "duration": 1.4772712500000296,
          "durationTicks": 455,
          "midi": 90,
          "name": "F#6",
          "ticks": 68152,
          "time": 221.272506,
          "velocity": 0.8661417322834646
        },
        {
          "duration": 1.574673750000045,
          "durationTicks": 485,
          "midi": 83,
          "name": "B5",
          "ticks": 68632,
          "time": 222.83094599999998,
          "velocity": 0.8346456692913385
        },
        {
          "duration": 0.7629862500000115,
          "durationTicks": 235,
          "midi": 90,
          "name": "F#6",
          "ticks": 68642,
          "time": 222.8634135,
          "velocity": 0.8818897637795275
        },
        {
          "duration": 1.3571415000000115,
          "durationTicks": 418,
          "midi": 71,
          "name": "B4",
          "ticks": 68642,
          "time": 222.8634135,
          "velocity": 0.8818897637795275
        },
        {
          "duration": 1.948049999999995,
          "durationTicks": 600,
          "midi": 95,
          "name": "B6",
          "ticks": 68880,
          "time": 223.63614,
          "velocity": 0.8818897637795275
        },
        {
          "duration": 1.0876612499999965,
          "durationTicks": 335,
          "midi": 83,
          "name": "B5",
          "ticks": 69122,
          "time": 224.4218535,
          "velocity": 1
        },
        {
          "duration": 1.0876612499999965,
          "durationTicks": 335,
          "midi": 71,
          "name": "B4",
          "ticks": 69122,
          "time": 224.4218535,
          "velocity": 0.7716535433070866
        },
        {
          "duration": 0.3896100000000047,
          "durationTicks": 120,
          "midi": 73,
          "name": "C#5",
          "ticks": 69480,
          "time": 225.58419,
          "velocity": 0.8582677165354331
        },
        {
          "duration": 0.3896100000000047,
          "durationTicks": 120,
          "midi": 97,
          "name": "C#7",
          "ticks": 69480,
          "time": 225.58419,
          "velocity": 0.8582677165354331
        },
        {
          "duration": 0.38311649999999986,
          "durationTicks": 118,
          "midi": 85,
          "name": "C#6",
          "ticks": 69482,
          "time": 225.5906835,
          "velocity": 0.8582677165354331
        },
        {
          "duration": 0.7467524999999853,
          "durationTicks": 230,
          "midi": 74,
          "name": "D5",
          "ticks": 69602,
          "time": 225.9802935,
          "velocity": 0.8818897637795275
        },
        {
          "duration": 0.7467524999999853,
          "durationTicks": 230,
          "midi": 98,
          "name": "D7",
          "ticks": 69602,
          "time": 225.9802935,
          "velocity": 0.8818897637795275
        },
        {
          "duration": 0.7467524999999853,
          "durationTicks": 230,
          "midi": 86,
          "name": "D6",
          "ticks": 69602,
          "time": 225.9802935,
          "velocity": 0.8818897637795275
        },
        {
          "duration": 0.7467524999999853,
          "durationTicks": 230,
          "midi": 95,
          "name": "B6",
          "ticks": 69842,
          "time": 226.7595135,
          "velocity": 0.889763779527559
        },
        {
          "duration": 0.7370122499999923,
          "durationTicks": 227,
          "midi": 83,
          "name": "B5",
          "ticks": 69845,
          "time": 226.76925375,
          "velocity": 0.889763779527559
        },
        {
          "duration": 0.7370122499999923,
          "durationTicks": 227,
          "midi": 71,
          "name": "B4",
          "ticks": 69845,
          "time": 226.76925375,
          "velocity": 0.889763779527559
        },
        {
          "duration": 3.0422047500000247,
          "durationTicks": 937,
          "midi": 73,
          "name": "C#5",
          "ticks": 70085,
          "time": 227.54847375,
          "velocity": 0.905511811023622
        },
        {
          "duration": 3.0422047500000247,
          "durationTicks": 937,
          "midi": 85,
          "name": "C#6",
          "ticks": 70085,
          "time": 227.54847375,
          "velocity": 0.9133858267716536
        },
        {
          "duration": 3.03571125000002,
          "durationTicks": 935,
          "midi": 97,
          "name": "C#7",
          "ticks": 70085,
          "time": 227.54847375,
          "velocity": 0.7480314960629921
        },
        {
          "duration": 3.1006462500000396,
          "durationTicks": 955,
          "midi": 83,
          "name": "B5",
          "ticks": 71045,
          "time": 230.66535374999998,
          "velocity": 0.8582677165354331
        },
        {
          "duration": 3.1006462500000396,
          "durationTicks": 955,
          "midi": 88,
          "name": "E6",
          "ticks": 71045,
          "time": 230.66535374999998,
          "velocity": 0.8582677165354331
        },
        {
          "duration": 2.311686000000037,
          "durationTicks": 712,
          "midi": 81,
          "name": "A5",
          "ticks": 72005,
          "time": 233.78223375,
          "velocity": 0.6771653543307087
        },
        {
          "duration": 2.311686000000037,
          "durationTicks": 712,
          "midi": 86,
          "name": "D6",
          "ticks": 72005,
          "time": 233.78223375,
          "velocity": 0.6771653543307087
        },
        {
          "duration": 0.2045452500000522,
          "durationTicks": 63,
          "midi": 78,
          "name": "F#5",
          "ticks": 72112,
          "time": 234.12963599999998,
          "velocity": 0.7244094488188977
        },
        {
          "duration": 0.43831124999999815,
          "durationTicks": 135,
          "midi": 66,
          "name": "F#4",
          "ticks": 72482,
          "time": 235.33093350000001,
          "velocity": 0.8188976377952756
        },
        {
          "duration": 0.43831124999999815,
          "durationTicks": 135,
          "midi": 78,
          "name": "F#5",
          "ticks": 72482,
          "time": 235.33093350000001,
          "velocity": 0.8188976377952756
        },
        {
          "duration": 0.47077875000002223,
          "durationTicks": 145,
          "midi": 79,
          "name": "G5",
          "ticks": 72637,
          "time": 235.83417974999998,
          "velocity": 0.8503937007874016
        },
        {
          "duration": 0.47077875000002223,
          "durationTicks": 145,
          "midi": 67,
          "name": "G4",
          "ticks": 72637,
          "time": 235.83417974999998,
          "velocity": 0.8503937007874016
        },
        {
          "duration": 0.5357137499999851,
          "durationTicks": 165,
          "midi": 81,
          "name": "A5",
          "ticks": 72792,
          "time": 236.33742600000002,
          "velocity": 0.8818897637795275
        },
        {
          "duration": 0.5357137499999851,
          "durationTicks": 165,
          "midi": 69,
          "name": "A4",
          "ticks": 72792,
          "time": 236.33742600000002,
          "velocity": 0.8818897637795275
        },
        {
          "duration": 1.5584400000000187,
          "durationTicks": 480,
          "midi": 93,
          "name": "A6",
          "ticks": 72960,
          "time": 236.88288,
          "velocity": 0.8661417322834646
        },
        {
          "duration": 1.5519465000000139,
          "durationTicks": 478,
          "midi": 69,
          "name": "A4",
          "ticks": 72962,
          "time": 236.8893735,
          "velocity": 0.9133858267716536
        },
        {
          "duration": 1.5519465000000139,
          "durationTicks": 478,
          "midi": 78,
          "name": "F#5",
          "ticks": 72962,
          "time": 236.8893735,
          "velocity": 0.9133858267716536
        },
        {
          "duration": 1.5584399999999903,
          "durationTicks": 480,
          "midi": 68,
          "name": "G#4",
          "ticks": 73440,
          "time": 238.44132000000002,
          "velocity": 0.6850393700787402
        },
        {
          "duration": 1.5519465000000139,
          "durationTicks": 478,
          "midi": 77,
          "name": "F5",
          "ticks": 73442,
          "time": 238.4478135,
          "velocity": 0.8267716535433071
        },
        {
          "duration": 1.5584400000000187,
          "durationTicks": 480,
          "midi": 92,
          "name": "G#6",
          "ticks": 73442,
          "time": 238.4478135,
          "velocity": 0.6377952755905512
        },
        {
          "duration": 1.5519464999999855,
          "durationTicks": 478,
          "midi": 64,
          "name": "E4",
          "ticks": 73922,
          "time": 240.0062535,
          "velocity": 0.7795275590551181
        },
        {
          "duration": 1.5422062500000209,
          "durationTicks": 475,
          "midi": 76,
          "name": "E5",
          "ticks": 73925,
          "time": 240.01599374999998,
          "velocity": 0.7795275590551181
        },
        {
          "duration": 1.5422062500000209,
          "durationTicks": 475,
          "midi": 88,
          "name": "E6",
          "ticks": 73925,
          "time": 240.01599374999998,
          "velocity": 0.7322834645669292
        },
        {
          "duration": 1.3896090000000072,
          "durationTicks": 428,
          "midi": 87,
          "name": "D#6",
          "ticks": 74402,
          "time": 241.5646935,
          "velocity": 0.7322834645669292
        },
        {
          "duration": 1.4220764999999744,
          "durationTicks": 438,
          "midi": 63,
          "name": "D#4",
          "ticks": 74402,
          "time": 241.5646935,
          "velocity": 0.7795275590551181
        },
        {
          "duration": 1.3896090000000072,
          "durationTicks": 428,
          "midi": 75,
          "name": "D#5",
          "ticks": 74402,
          "time": 241.5646935,
          "velocity": 0.6850393700787402
        },
        {
          "duration": 2.3376599999999996,
          "durationTicks": 720,
          "midi": 74,
          "name": "D5",
          "ticks": 74880,
          "time": 243.11664000000002,
          "velocity": 0.6850393700787402
        },
        {
          "duration": 2.298698999999999,
          "durationTicks": 708,
          "midi": 86,
          "name": "D6",
          "ticks": 74882,
          "time": 243.1231335,
          "velocity": 0.6220472440944882
        },
        {
          "duration": 2.3311665000000232,
          "durationTicks": 718,
          "midi": 62,
          "name": "D4",
          "ticks": 74882,
          "time": 243.1231335,
          "velocity": 0.6692913385826772
        },
        {
          "duration": 2.873373750000013,
          "durationTicks": 885,
          "midi": 43,
          "name": "G2",
          "ticks": 74882,
          "time": 243.1231335,
          "velocity": 0.5039370078740157
        },
        {
          "duration": 1.1363625000000468,
          "durationTicks": 350,
          "midi": 81,
          "name": "A5",
          "ticks": 74885,
          "time": 243.13287375,
          "velocity": 0.7165354330708661
        },
        {
          "duration": 1.168830000000014,
          "durationTicks": 360,
          "midi": 79,
          "name": "G5",
          "ticks": 75240,
          "time": 244.28547,
          "velocity": 0.8267716535433071
        },
        {
          "duration": 0.7792199999999809,
          "durationTicks": 240,
          "midi": 75,
          "name": "D#5",
          "ticks": 75592,
          "time": 245.428326,
          "velocity": 0.6141732283464567
        },
        {
          "duration": 0.7889602500000024,
          "durationTicks": 243,
          "midi": 63,
          "name": "D#4",
          "ticks": 75602,
          "time": 245.4607935,
          "velocity": 0.6141732283464567
        },
        {
          "duration": 0.7792200000000093,
          "durationTicks": 240,
          "midi": 71,
          "name": "B4",
          "ticks": 75605,
          "time": 245.47053375,
          "velocity": 0.6141732283464567
        },
        {
          "duration": 0.7792199999999809,
          "durationTicks": 240,
          "midi": 87,
          "name": "D#6",
          "ticks": 75607,
          "time": 245.47702725,
          "velocity": 0.6141732283464567
        },
        {
          "duration": 2.7175297500000113,
          "durationTicks": 837,
          "midi": 43,
          "name": "G2",
          "ticks": 75830,
          "time": 246.2010525,
          "velocity": 0.3937007874015748
        },
        {
          "duration": 0.7694797500000163,
          "durationTicks": 237,
          "midi": 66,
          "name": "F#4",
          "ticks": 75840,
          "time": 246.23352,
          "velocity": 0.5275590551181102
        },
        {
          "duration": 0.7727265000000045,
          "durationTicks": 238,
          "midi": 78,
          "name": "F#5",
          "ticks": 75842,
          "time": 246.2400135,
          "velocity": 0.5275590551181102
        },
        {
          "duration": 0.7727265000000045,
          "durationTicks": 238,
          "midi": 81,
          "name": "A5",
          "ticks": 75842,
          "time": 246.2400135,
          "velocity": 0.5275590551181102
        },
        {
          "duration": 0.7727265000000045,
          "durationTicks": 238,
          "midi": 93,
          "name": "A6",
          "ticks": 75842,
          "time": 246.2400135,
          "velocity": 0.5275590551181102
        },
        {
          "duration": 0.7792200000000093,
          "durationTicks": 240,
          "midi": 69,
          "name": "A4",
          "ticks": 75842,
          "time": 246.2400135,
          "velocity": 0.5275590551181102
        },
        {
          "duration": 1.3571414999999831,
          "durationTicks": 418,
          "midi": 64,
          "name": "E4",
          "ticks": 76082,
          "time": 247.0192335,
          "velocity": 0.5433070866141733
        },
        {
          "duration": 1.3571414999999831,
          "durationTicks": 418,
          "midi": 76,
          "name": "E5",
          "ticks": 76082,
          "time": 247.0192335,
          "velocity": 0.44881889763779526
        },
        {
          "duration": 1.3571414999999831,
          "durationTicks": 418,
          "midi": 79,
          "name": "G5",
          "ticks": 76082,
          "time": 247.0192335,
          "velocity": 0.44881889763779526
        },
        {
          "duration": 1.363634999999988,
          "durationTicks": 420,
          "midi": 67,
          "name": "G4",
          "ticks": 76082,
          "time": 247.0192335,
          "velocity": 0.44881889763779526
        },
        {
          "duration": 1.3474012499999901,
          "durationTicks": 415,
          "midi": 91,
          "name": "G6",
          "ticks": 76085,
          "time": 247.02897375,
          "velocity": 0.44881889763779526
        },
        {
          "duration": 0.7240252499999826,
          "durationTicks": 223,
          "midi": 64,
          "name": "E4",
          "ticks": 76802,
          "time": 249.3568935,
          "velocity": 0.5984251968503937
        },
        {
          "duration": 0.8376614999999674,
          "durationTicks": 258,
          "midi": 52,
          "name": "E3",
          "ticks": 76802,
          "time": 249.3568935,
          "velocity": 0.4645669291338583
        },
        {
          "duration": 0.7629862500000115,
          "durationTicks": 235,
          "midi": 58,
          "name": "A#3",
          "ticks": 76802,
          "time": 249.3568935,
          "velocity": 0.4330708661417323
        },
        {
          "duration": 2.2727250000000083,
          "durationTicks": 700,
          "midi": 57,
          "name": "A3",
          "ticks": 77040,
          "time": 250.12962000000002,
          "velocity": 0.3937007874015748
        },
        {
          "duration": 1.1201287500000205,
          "durationTicks": 345,
          "midi": 67,
          "name": "G4",
          "ticks": 77042,
          "time": 250.1361135,
          "velocity": 0.48031496062992124
        },
        {
          "duration": 1.5097387499999968,
          "durationTicks": 465,
          "midi": 62,
          "name": "D4",
          "ticks": 77042,
          "time": 250.1361135,
          "velocity": 0.4251968503937008
        },
        {
          "duration": 1.5324660000000279,
          "durationTicks": 472,
          "midi": 50,
          "name": "D3",
          "ticks": 77075,
          "time": 250.24325625,
          "velocity": 0.5039370078740157
        },
        {
          "duration": 0.37986975000001166,
          "durationTicks": 117,
          "midi": 66,
          "name": "F#4",
          "ticks": 77415,
          "time": 251.34715125,
          "velocity": 0.44881889763779526
        },
        {
          "duration": 1.720777499999997,
          "durationTicks": 530,
          "midi": 61,
          "name": "C#4",
          "ticks": 77535,
          "time": 251.73676125,
          "velocity": 0.31496062992125984
        },
        {
          "duration": 1.6493490000000008,
          "durationTicks": 508,
          "midi": 66,
          "name": "F#4",
          "ticks": 77547,
          "time": 251.77572225000003,
          "velocity": 0.4881889763779528
        },
        {
          "duration": 1.574673749999988,
          "durationTicks": 485,
          "midi": 49,
          "name": "C#3",
          "ticks": 77562,
          "time": 251.82442350000002,
          "velocity": 0.4409448818897638
        },
        {
          "duration": 0.7954537500000356,
          "durationTicks": 245,
          "midi": 57,
          "name": "A3",
          "ticks": 77782,
          "time": 252.53870849999998,
          "velocity": 0.5196850393700787
        },
        {
          "duration": 1.5357127499999876,
          "durationTicks": 473,
          "midi": 57,
          "name": "A3",
          "ticks": 78042,
          "time": 253.3828635,
          "velocity": 0.36220472440944884
        },
        {
          "duration": 1.3636350000000164,
          "durationTicks": 420,
          "midi": 62,
          "name": "D4",
          "ticks": 78060,
          "time": 253.441305,
          "velocity": 0.5275590551181102
        },
        {
          "duration": 1.3571415000000115,
          "durationTicks": 418,
          "midi": 47,
          "name": "B2",
          "ticks": 78062,
          "time": 253.4477985,
          "velocity": 0.4645669291338583
        },
        {
          "duration": 1.363634999999988,
          "durationTicks": 420,
          "midi": 66,
          "name": "F#4",
          "ticks": 78065,
          "time": 253.45753875,
          "velocity": 0.5669291338582677
        },
        {
          "duration": 3.496749750000049,
          "durationTicks": 1077,
          "midi": 64,
          "name": "E4",
          "ticks": 78965,
          "time": 256.37961375,
          "velocity": 0.47244094488188976
        },
        {
          "duration": 3.5324640000000045,
          "durationTicks": 1088,
          "midi": 67,
          "name": "G4",
          "ticks": 78967,
          "time": 256.38610725,
          "velocity": 0.4251968503937008
        },
        {
          "duration": 3.4642822499999966,
          "durationTicks": 1067,
          "midi": 55,
          "name": "G3",
          "ticks": 78970,
          "time": 256.3958475,
          "velocity": 0.3779527559055118
        },
        {
          "duration": 3.5324639999999476,
          "durationTicks": 1088,
          "midi": 45,
          "name": "A2",
          "ticks": 78972,
          "time": 256.40234100000004,
          "velocity": 0.5669291338582677
        },
        {
          "duration": 3.652593749999994,
          "durationTicks": 1125,
          "midi": 59,
          "name": "B3",
          "ticks": 80400,
          "time": 261.0387,
          "velocity": 0.4015748031496063
        },
        {
          "duration": 3.6298665000000483,
          "durationTicks": 1118,
          "midi": 55,
          "name": "G3",
          "ticks": 80402,
          "time": 261.0451935,
          "velocity": 0.4409448818897638
        },
        {
          "duration": 3.613632750000022,
          "durationTicks": 1113,
          "midi": 52,
          "name": "E3",
          "ticks": 80402,
          "time": 261.0451935,
          "velocity": 0.4015748031496063
        },
        {
          "duration": 7.597394999999949,
          "durationTicks": 2340,
          "midi": 57,
          "name": "A3",
          "ticks": 81680,
          "time": 265.19454,
          "velocity": 0.3779527559055118
        },
        {
          "duration": 7.587654750000013,
          "durationTicks": 2337,
          "midi": 62,
          "name": "D4",
          "ticks": 81680,
          "time": 265.19454,
          "velocity": 0.3543307086614173
        },
        {
          "duration": 7.548693749999984,
          "durationTicks": 2325,
          "midi": 50,
          "name": "D3",
          "ticks": 81682,
          "time": 265.2010335,
          "velocity": 0.4330708661417323
        },
        {
          "duration": 7.558434000000034,
          "durationTicks": 2328,
          "midi": 54,
          "name": "F#3",
          "ticks": 81682,
          "time": 265.2010335,
          "velocity": 0.4409448818897638
        },
        {
          "duration": 3.1168800000000374,
          "durationTicks": 960,
          "midi": 45,
          "name": "A2",
          "ticks": 83040,
          "time": 269.61012,
          "velocity": 0.4015748031496063
        },
        {
          "duration": 3.139607249999983,
          "durationTicks": 967,
          "midi": 38,
          "name": "D2",
          "ticks": 83045,
          "time": 269.62635375,
          "velocity": 0.4094488188976378
        }
      ]
    },
    {
      "channel": 5,
      "controlChanges": {
        "7": [
          {
            "number": 7,
            "ticks": 310,
            "time": 1.0064925,
            "value": 0.7244094488188977
          }
        ],
        "11": [
          {
            "number": 11,
            "ticks": 310,
            "time": 1.0064925,
            "value": 1
          }
        ],
        "91": [
          {
            "number": 91,
            "ticks": 312,
            "time": 1.0129860000000002,
            "value": 0.31496062992125984
          }
        ],
        "93": [
          {
            "number": 93,
            "ticks": 312,
            "time": 1.0129860000000002,
            "value": 0
          }
        ]
      },
      "pitchBends": [],
      "instrument": {
        "family": "strings",
        "number": 46,
        "name": "orchestral harp"
      },
      "name": "",
      "notes": [
        {
          "duration": 3.11688,
          "durationTicks": 960,
          "midi": 62,
          "name": "D4",
          "ticks": 1922,
          "time": 6.2402535,
          "velocity": 0.41732283464566927
        },
        {
          "duration": 0.38961000000000023,
          "durationTicks": 120,
          "midi": 69,
          "name": "A4",
          "ticks": 2040,
          "time": 6.62337,
          "velocity": 0.41732283464566927
        },
        {
          "duration": 0.38960999999999935,
          "durationTicks": 120,
          "midi": 74,
          "name": "D5",
          "ticks": 2160,
          "time": 7.012980000000001,
          "velocity": 0.41732283464566927
        },
        {
          "duration": 0.379869750000001,
          "durationTicks": 117,
          "midi": 69,
          "name": "A4",
          "ticks": 2280,
          "time": 7.40259,
          "velocity": 0.41732283464566927
        },
        {
          "duration": 0.38961000000000023,
          "durationTicks": 120,
          "midi": 78,
          "name": "F#5",
          "ticks": 2400,
          "time": 7.7922,
          "velocity": 0.41732283464566927
        },
        {
          "duration": 0.38960999999999935,
          "durationTicks": 120,
          "midi": 69,
          "name": "A4",
          "ticks": 2520,
          "time": 8.18181,
          "velocity": 0.41732283464566927
        },
        {
          "duration": 0.379869750000001,
          "durationTicks": 117,
          "midi": 74,
          "name": "D5",
          "ticks": 2640,
          "time": 8.57142,
          "velocity": 0.41732283464566927
        },
        {
          "duration": 0.38960999999999935,
          "durationTicks": 120,
          "midi": 69,
          "name": "A4",
          "ticks": 2760,
          "time": 8.961030000000001,
          "velocity": 0.41732283464566927
        },
        {
          "duration": 3.11688,
          "durationTicks": 960,
          "midi": 62,
          "name": "D4",
          "ticks": 2882,
          "time": 9.3571335,
          "velocity": 0.41732283464566927
        },
        {
          "duration": 0.3896100000000011,
          "durationTicks": 120,
          "midi": 69,
          "name": "A4",
          "ticks": 3000,
          "time": 9.74025,
          "velocity": 0.41732283464566927
        },
        {
          "duration": 0.38960999999999935,
          "durationTicks": 120,
          "midi": 74,
          "name": "D5",
          "ticks": 3120,
          "time": 10.12986,
          "velocity": 0.41732283464566927
        },
        {
          "duration": 0.379869750000001,
          "durationTicks": 117,
          "midi": 69,
          "name": "A4",
          "ticks": 3240,
          "time": 10.51947,
          "velocity": 0.41732283464566927
        },
        {
          "duration": 0.3896100000000011,
          "durationTicks": 120,
          "midi": 78,
          "name": "F#5",
          "ticks": 3360,
          "time": 10.90908,
          "velocity": 0.41732283464566927
        },
        {
          "duration": 0.38960999999999935,
          "durationTicks": 120,
          "midi": 69,
          "name": "A4",
          "ticks": 3480,
          "time": 11.29869,
          "velocity": 0.41732283464566927
        },
        {
          "duration": 0.3896100000000011,
          "durationTicks": 120,
          "midi": 74,
          "name": "D5",
          "ticks": 3600,
          "time": 11.6883,
          "velocity": 0.41732283464566927
        },
        {
          "duration": 0.39610349999999883,
          "durationTicks": 122,
          "midi": 69,
          "name": "A4",
          "ticks": 3720,
          "time": 12.077910000000001,
          "velocity": 0.41732283464566927
        },
        {
          "duration": 3.1103865000000006,
          "durationTicks": 958,
          "midi": 62,
          "name": "D4",
          "ticks": 3842,
          "time": 12.4740135,
          "velocity": 0.41732283464566927
        },
        {
          "duration": 0.3896100000000011,
          "durationTicks": 120,
          "midi": 69,
          "name": "A4",
          "ticks": 3960,
          "time": 12.85713,
          "velocity": 0.41732283464566927
        },
        {
          "duration": 0.38960999999999935,
          "durationTicks": 120,
          "midi": 74,
          "name": "D5",
          "ticks": 4080,
          "time": 13.24674,
          "velocity": 0.41732283464566927
        },
        {
          "duration": 0.3896100000000011,
          "durationTicks": 120,
          "midi": 69,
          "name": "A4",
          "ticks": 4200,
          "time": 13.63635,
          "velocity": 0.41732283464566927
        },
        {
          "duration": 0.38960999999999935,
          "durationTicks": 120,
          "midi": 78,
          "name": "F#5",
          "ticks": 4320,
          "time": 14.025960000000001,
          "velocity": 0.41732283464566927
        },
        {
          "duration": 0.38960999999999935,
          "durationTicks": 120,
          "midi": 69,
          "name": "A4",
          "ticks": 4440,
          "time": 14.41557,
          "velocity": 0.41732283464566927
        },
        {
          "duration": 0.3896100000000011,
          "durationTicks": 120,
          "midi": 74,
          "name": "D5",
          "ticks": 4560,
          "time": 14.80518,
          "velocity": 0.41732283464566927
        },
        {
          "duration": 0.38960999999999935,
          "durationTicks": 120,
          "midi": 69,
          "name": "A4",
          "ticks": 4680,
          "time": 15.194790000000001,
          "velocity": 0.41732283464566927
        },
        {
          "duration": 3.1103865000000006,
          "durationTicks": 958,
          "midi": 61,
          "name": "C#4",
          "ticks": 4802,
          "time": 15.5908935,
          "velocity": 0.41732283464566927
        },
        {
          "duration": 0.379869750000001,
          "durationTicks": 117,
          "midi": 69,
          "name": "A4",
          "ticks": 4920,
          "time": 15.97401,
          "velocity": 0.41732283464566927
        },
        {
          "duration": 0.3896100000000011,
          "durationTicks": 120,
          "midi": 76,
          "name": "E5",
          "ticks": 5040,
          "time": 16.36362,
          "velocity": 0.41732283464566927
        },
        {
          "duration": 0.37986974999999745,
          "durationTicks": 117,
          "midi": 69,
          "name": "A4",
          "ticks": 5160,
          "time": 16.753230000000002,
          "velocity": 0.41732283464566927
        },
        {
          "duration": 0.3896100000000011,
          "durationTicks": 120,
          "midi": 78,
          "name": "F#5",
          "ticks": 5280,
          "time": 17.14284,
          "velocity": 0.41732283464566927
        },
        {
          "duration": 0.379869750000001,
          "durationTicks": 117,
          "midi": 69,
          "name": "A4",
          "ticks": 5400,
          "time": 17.53245,
          "velocity": 0.41732283464566927
        },
        {
          "duration": 0.38960999999999757,
          "durationTicks": 120,
          "midi": 76,
          "name": "E5",
          "ticks": 5520,
          "time": 17.922060000000002,
          "velocity": 0.41732283464566927
        },
        {
          "duration": 0.3896100000000011,
          "durationTicks": 120,
          "midi": 69,
          "name": "A4",
          "ticks": 5640,
          "time": 18.31167,
          "velocity": 0.41732283464566927
        },
        {
          "duration": 3.110386499999997,
          "durationTicks": 958,
          "midi": 60,
          "name": "C4",
          "ticks": 5762,
          "time": 18.707773500000002,
          "velocity": 0.41732283464566927
        },
        {
          "duration": 0.379869750000001,
          "durationTicks": 117,
          "midi": 69,
          "name": "A4",
          "ticks": 5880,
          "time": 19.09089,
          "velocity": 0.41732283464566927
        },
        {
          "duration": 0.3896100000000011,
          "durationTicks": 120,
          "midi": 76,
          "name": "E5",
          "ticks": 6000,
          "time": 19.4805,
          "velocity": 0.41732283464566927
        },
        {
          "duration": 0.379869750000001,
          "durationTicks": 117,
          "midi": 69,
          "name": "A4",
          "ticks": 6120,
          "time": 19.87011,
          "velocity": 0.41732283464566927
        },
        {
          "duration": 0.38960999999999757,
          "durationTicks": 120,
          "midi": 78,
          "name": "F#5",
          "ticks": 6240,
          "time": 20.25972,
          "velocity": 0.41732283464566927
        },
        {
          "duration": 0.379869750000001,
          "durationTicks": 117,
          "midi": 69,
          "name": "A4",
          "ticks": 6360,
          "time": 20.64933,
          "velocity": 0.41732283464566927
        },
        {
          "duration": 0.3896100000000011,
          "durationTicks": 120,
          "midi": 76,
          "name": "E5",
          "ticks": 6480,
          "time": 21.03894,
          "velocity": 0.41732283464566927
        },
        {
          "duration": 0.38960999999999757,
          "durationTicks": 120,
          "midi": 69,
          "name": "A4",
          "ticks": 6600,
          "time": 21.42855,
          "velocity": 0.41732283464566927
        },
        {
          "duration": 1.5519464999999997,
          "durationTicks": 478,
          "midi": 59,
          "name": "B3",
          "ticks": 6722,
          "time": 21.8246535,
          "velocity": 0.41732283464566927
        },
        {
          "duration": 0.3896100000000011,
          "durationTicks": 120,
          "midi": 69,
          "name": "A4",
          "ticks": 6840,
          "time": 22.20777,
          "velocity": 0.41732283464566927
        },
        {
          "duration": 0.3896100000000011,
          "durationTicks": 120,
          "midi": 75,
          "name": "D#5",
          "ticks": 6960,
          "time": 22.59738,
          "velocity": 0.41732283464566927
        },
        {
          "duration": 0.37986974999999745,
          "durationTicks": 117,
          "midi": 69,
          "name": "A4",
          "ticks": 7080,
          "time": 22.986990000000002,
          "velocity": 0.41732283464566927
        },
        {
          "duration": 1.558440000000001,
          "durationTicks": 480,
          "midi": 59,
          "name": "B3",
          "ticks": 7200,
          "time": 23.3766,
          "velocity": 0.41732283464566927
        },
        {
          "duration": 0.38311649999999986,
          "durationTicks": 118,
          "midi": 78,
          "name": "F#5",
          "ticks": 7202,
          "time": 23.3830935,
          "velocity": 0.41732283464566927
        },
        {
          "duration": 0.3896100000000011,
          "durationTicks": 120,
          "midi": 69,
          "name": "A4",
          "ticks": 7320,
          "time": 23.76621,
          "velocity": 0.41732283464566927
        },
        {
          "duration": 0.38960999999999757,
          "durationTicks": 120,
          "midi": 75,
          "name": "D#5",
          "ticks": 7440,
          "time": 24.155820000000002,
          "velocity": 0.41732283464566927
        },
        {
          "duration": 0.3896100000000011,
          "durationTicks": 120,
          "midi": 69,
          "name": "A4",
          "ticks": 7560,
          "time": 24.54543,
          "velocity": 0.41732283464566927
        },
        {
          "duration": 3.1103865000000006,
          "durationTicks": 958,
          "midi": 64,
          "name": "E4",
          "ticks": 7682,
          "time": 24.941533500000002,
          "velocity": 0.41732283464566927
        },
        {
          "duration": 0.37986974999999745,
          "durationTicks": 117,
          "midi": 71,
          "name": "B4",
          "ticks": 7800,
          "time": 25.324650000000002,
          "velocity": 0.41732283464566927
        },
        {
          "duration": 0.3896100000000011,
          "durationTicks": 120,
          "midi": 76,
          "name": "E5",
          "ticks": 7920,
          "time": 25.71426,
          "velocity": 0.41732283464566927
        },
        {
          "duration": 0.37986974999999745,
          "durationTicks": 117,
          "midi": 71,
          "name": "B4",
          "ticks": 8040,
          "time": 26.10387,
          "velocity": 0.41732283464566927
        },
        {
          "duration": 0.38960999999999757,
          "durationTicks": 120,
          "midi": 79,
          "name": "G5",
          "ticks": 8160,
          "time": 26.49348,
          "velocity": 0.41732283464566927
        },
        {
          "duration": 0.3896100000000011,
          "durationTicks": 120,
          "midi": 71,
          "name": "B4",
          "ticks": 8280,
          "time": 26.88309,
          "velocity": 0.41732283464566927
        },
        {
          "duration": 0.37986974999999745,
          "durationTicks": 117,
          "midi": 76,
          "name": "E5",
          "ticks": 8400,
          "time": 27.2727,
          "velocity": 0.41732283464566927
        },
        {
          "duration": 0.3896100000000011,
          "durationTicks": 120,
          "midi": 71,
          "name": "B4",
          "ticks": 8520,
          "time": 27.66231,
          "velocity": 0.41732283464566927
        },
        {
          "duration": 3.1103865000000006,
          "durationTicks": 958,
          "midi": 62,
          "name": "D4",
          "ticks": 8642,
          "time": 28.0584135,
          "velocity": 0.41732283464566927
        },
        {
          "duration": 0.37986974999999745,
          "durationTicks": 117,
          "midi": 71,
          "name": "B4",
          "ticks": 8760,
          "time": 28.44153,
          "velocity": 0.41732283464566927
        },
        {
          "duration": 0.3896100000000011,
          "durationTicks": 120,
          "midi": 76,
          "name": "E5",
          "ticks": 8880,
          "time": 28.83114,
          "velocity": 0.41732283464566927
        },
        {
          "duration": 0.38960999999999757,
          "durationTicks": 120,
          "midi": 71,
          "name": "B4",
          "ticks": 9000,
          "time": 29.220750000000002,
          "velocity": 0.41732283464566927
        },
        {
          "duration": 0.3896100000000011,
          "durationTicks": 120,
          "midi": 79,
          "name": "G5",
          "ticks": 9120,
          "time": 29.61036,
          "velocity": 0.41732283464566927
        },
        {
          "duration": 0.3896100000000011,
          "durationTicks": 120,
          "midi": 71,
          "name": "B4",
          "ticks": 9240,
          "time": 29.99997,
          "velocity": 0.41732283464566927
        },
        {
          "duration": 0.38960999999999757,
          "durationTicks": 120,
          "midi": 76,
          "name": "E5",
          "ticks": 9360,
          "time": 30.389580000000002,
          "velocity": 0.41732283464566927
        },
        {
          "duration": 0.3896100000000011,
          "durationTicks": 120,
          "midi": 71,
          "name": "B4",
          "ticks": 9480,
          "time": 30.77919,
          "velocity": 0.41732283464566927
        },
        {
          "duration": 3.110386499999997,
          "durationTicks": 958,
          "midi": 57,
          "name": "A3",
          "ticks": 9602,
          "time": 31.175293500000002,
          "velocity": 0.41732283464566927
        },
        {
          "duration": 0.38311649999999986,
          "durationTicks": 118,
          "midi": 69,
          "name": "A4",
          "ticks": 9602,
          "time": 31.175293500000002,
          "velocity": 0.41732283464566927
        },
        {
          "duration": 0.37986974999999745,
          "durationTicks": 117,
          "midi": 73,
          "name": "C#5",
          "ticks": 9720,
          "time": 31.558410000000002,
          "velocity": 0.41732283464566927
        },
        {
          "duration": 0.3896100000000047,
          "durationTicks": 120,
          "midi": 76,
          "name": "E5",
          "ticks": 9840,
          "time": 31.94802,
          "velocity": 0.41732283464566927
        },
        {
          "duration": 0.37986974999999745,
          "durationTicks": 117,
          "midi": 73,
          "name": "C#5",
          "ticks": 9960,
          "time": 32.337630000000004,
          "velocity": 0.41732283464566927
        },
        {
          "duration": 0.38960999999999757,
          "durationTicks": 120,
          "midi": 79,
          "name": "G5",
          "ticks": 10080,
          "time": 32.72724,
          "velocity": 0.41732283464566927
        },
        {
          "duration": 0.37986974999999745,
          "durationTicks": 117,
          "midi": 73,
          "name": "C#5",
          "ticks": 10200,
          "time": 33.11685,
          "velocity": 0.41732283464566927
        },
        {
          "duration": 0.37986974999999745,
          "durationTicks": 117,
          "midi": 76,
          "name": "E5",
          "ticks": 10320,
          "time": 33.506460000000004,
          "velocity": 0.41732283464566927
        },
        {
          "duration": 0.38960999999999757,
          "durationTicks": 120,
          "midi": 73,
          "name": "C#5",
          "ticks": 10440,
          "time": 33.89607,
          "velocity": 0.41732283464566927
        },
        {
          "duration": 3.1168799999999948,
          "durationTicks": 960,
          "midi": 62,
          "name": "D4",
          "ticks": 10562,
          "time": 34.292173500000004,
          "velocity": 0.41732283464566927
        },
        {
          "duration": 0.38960999999999757,
          "durationTicks": 120,
          "midi": 69,
          "name": "A4",
          "ticks": 10680,
          "time": 34.675290000000004,
          "velocity": 0.41732283464566927
        },
        {
          "duration": 0.38960999999999757,
          "durationTicks": 120,
          "midi": 74,
          "name": "D5",
          "ticks": 10800,
          "time": 35.0649,
          "velocity": 0.41732283464566927
        },
        {
          "duration": 0.3896100000000047,
          "durationTicks": 120,
          "midi": 69,
          "name": "A4",
          "ticks": 10920,
          "time": 35.45451,
          "velocity": 0.41732283464566927
        },
        {
          "duration": 0.37986974999999745,
          "durationTicks": 117,
          "midi": 78,
          "name": "F#5",
          "ticks": 11040,
          "time": 35.844120000000004,
          "velocity": 0.41732283464566927
        },
        {
          "duration": 0.37986974999999745,
          "durationTicks": 117,
          "midi": 69,
          "name": "A4",
          "ticks": 11160,
          "time": 36.23373,
          "velocity": 0.41732283464566927
        },
        {
          "duration": 0.3896100000000047,
          "durationTicks": 120,
          "midi": 74,
          "name": "D5",
          "ticks": 11280,
          "time": 36.62334,
          "velocity": 0.41732283464566927
        },
        {
          "duration": 0.3961034999999953,
          "durationTicks": 122,
          "midi": 69,
          "name": "A4",
          "ticks": 11400,
          "time": 37.012950000000004,
          "velocity": 0.41732283464566927
        },
        {
          "duration": 0.3636359999999925,
          "durationTicks": 112,
          "midi": 69,
          "name": "A4",
          "ticks": 11525,
          "time": 37.418793750000006,
          "velocity": 0.41732283464566927
        },
        {
          "duration": 0.3896100000000047,
          "durationTicks": 120,
          "midi": 74,
          "name": "D5",
          "ticks": 11640,
          "time": 37.79217,
          "velocity": 0.41732283464566927
        },
        {
          "duration": 0.38960999999999757,
          "durationTicks": 120,
          "midi": 81,
          "name": "A5",
          "ticks": 11767,
          "time": 38.204507250000006,
          "velocity": 0.41732283464566927
        },
        {
          "duration": 0.3571425000000019,
          "durationTicks": 110,
          "midi": 74,
          "name": "D5",
          "ticks": 11890,
          "time": 38.6038575,
          "velocity": 0.41732283464566927
        },
        {
          "duration": 0.3896100000000047,
          "durationTicks": 120,
          "midi": 81,
          "name": "A5",
          "ticks": 12000,
          "time": 38.961,
          "velocity": 0.25984251968503935
        },
        {
          "duration": 0.37986974999999745,
          "durationTicks": 117,
          "midi": 73,
          "name": "C#5",
          "ticks": 12120,
          "time": 39.35061,
          "velocity": 0.41732283464566927
        },
        {
          "duration": 0.38960999999999757,
          "durationTicks": 120,
          "midi": 78,
          "name": "F#5",
          "ticks": 12240,
          "time": 39.74022,
          "velocity": 0.33858267716535434
        },
        {
          "duration": 0.3896100000000047,
          "durationTicks": 120,
          "midi": 69,
          "name": "A4",
          "ticks": 12360,
          "time": 40.12983,
          "velocity": 0.41732283464566927
        },
        {
          "duration": 0.37337624999999974,
          "durationTicks": 115,
          "midi": 66,
          "name": "F#4",
          "ticks": 12482,
          "time": 40.5259335,
          "velocity": 0.41732283464566927
        },
        {
          "duration": 0.38960999999999757,
          "durationTicks": 120,
          "midi": 72,
          "name": "C5",
          "ticks": 12600,
          "time": 40.90905,
          "velocity": 0.41732283464566927
        },
        {
          "duration": 0.3896100000000047,
          "durationTicks": 120,
          "midi": 81,
          "name": "A5",
          "ticks": 12727,
          "time": 41.32138725,
          "velocity": 0.41732283464566927
        },
        {
          "duration": 0.7792200000000022,
          "durationTicks": 240,
          "midi": 72,
          "name": "C5",
          "ticks": 12850,
          "time": 41.7207375,
          "velocity": 0.41732283464566927
        },
        {
          "duration": 0.3896100000000047,
          "durationTicks": 120,
          "midi": 78,
          "name": "F#5",
          "ticks": 12970,
          "time": 42.110347499999996,
          "velocity": 0.41732283464566927
        },
        {
          "duration": 0.37986975000000456,
          "durationTicks": 117,
          "midi": 69,
          "name": "A4",
          "ticks": 13090,
          "time": 42.4999575,
          "velocity": 0.41732283464566927
        },
        {
          "duration": 0.3896100000000047,
          "durationTicks": 120,
          "midi": 72,
          "name": "C5",
          "ticks": 13210,
          "time": 42.8895675,
          "velocity": 0.41732283464566927
        },
        {
          "duration": 0.38960999999999757,
          "durationTicks": 120,
          "midi": 71,
          "name": "B4",
          "ticks": 13320,
          "time": 43.24671,
          "velocity": 0.41732283464566927
        },
        {
          "duration": 0.38311649999999986,
          "durationTicks": 118,
          "midi": 67,
          "name": "G4",
          "ticks": 13442,
          "time": 43.6428135,
          "velocity": 0.41732283464566927
        },
        {
          "duration": 0.37986974999999745,
          "durationTicks": 117,
          "midi": 74,
          "name": "D5",
          "ticks": 13560,
          "time": 44.02593,
          "velocity": 0.41732283464566927
        },
        {
          "duration": 0.37986974999999745,
          "durationTicks": 117,
          "midi": 79,
          "name": "G5",
          "ticks": 13690,
          "time": 44.4480075,
          "velocity": 0.41732283464566927
        },
        {
          "duration": 0.38960999999999757,
          "durationTicks": 120,
          "midi": 74,
          "name": "D5",
          "ticks": 13810,
          "time": 44.8376175,
          "velocity": 0.41732283464566927
        },
        {
          "duration": 1.5584400000000045,
          "durationTicks": 480,
          "midi": 62,
          "name": "D4",
          "ticks": 13930,
          "time": 45.2272275,
          "velocity": 0.41732283464566927
        },
        {
          "duration": 0.37986974999999745,
          "durationTicks": 117,
          "midi": 71,
          "name": "B4",
          "ticks": 14050,
          "time": 45.6168375,
          "velocity": 0.41732283464566927
        },
        {
          "duration": 0.38960999999999757,
          "durationTicks": 120,
          "midi": 78,
          "name": "F#5",
          "ticks": 14170,
          "time": 46.0064475,
          "velocity": 0.41732283464566927
        },
        {
          "duration": 0.38960999999999757,
          "durationTicks": 120,
          "midi": 69,
          "name": "A4",
          "ticks": 14280,
          "time": 46.36359,
          "velocity": 0.41732283464566927
        },
        {
          "duration": 0.38311649999999986,
          "durationTicks": 118,
          "midi": 64,
          "name": "E4",
          "ticks": 14402,
          "time": 46.759693500000004,
          "velocity": 0.41732283464566927
        },
        {
          "duration": 0.37986974999999745,
          "durationTicks": 117,
          "midi": 70,
          "name": "A#4",
          "ticks": 14520,
          "time": 47.142810000000004,
          "velocity": 0.41732283464566927
        },
        {
          "duration": 0.37986975000000456,
          "durationTicks": 117,
          "midi": 79,
          "name": "G5",
          "ticks": 14650,
          "time": 47.5648875,
          "velocity": 0.41732283464566927
        },
        {
          "duration": 0.38960999999999757,
          "durationTicks": 120,
          "midi": 70,
          "name": "A#4",
          "ticks": 14770,
          "time": 47.9544975,
          "velocity": 0.41732283464566927
        },
        {
          "duration": 0.38960999999999757,
          "durationTicks": 120,
          "midi": 78,
          "name": "F#5",
          "ticks": 14890,
          "time": 48.3441075,
          "velocity": 0.41732283464566927
        },
        {
          "duration": 0.3896100000000047,
          "durationTicks": 120,
          "midi": 70,
          "name": "A#4",
          "ticks": 15010,
          "time": 48.7337175,
          "velocity": 0.41732283464566927
        },
        {
          "duration": 0.38960999999999757,
          "durationTicks": 120,
          "midi": 76,
          "name": "E5",
          "ticks": 15130,
          "time": 49.1233275,
          "velocity": 0.41732283464566927
        },
        {
          "duration": 0.38960999999999757,
          "durationTicks": 120,
          "midi": 70,
          "name": "A#4",
          "ticks": 15240,
          "time": 49.480470000000004,
          "velocity": 0.41732283464566927
        },
        {
          "duration": 0.38311649999999275,
          "durationTicks": 118,
          "midi": 69,
          "name": "A4",
          "ticks": 15362,
          "time": 49.876573500000006,
          "velocity": 0.41732283464566927
        },
        {
          "duration": 0.37986974999999745,
          "durationTicks": 117,
          "midi": 69,
          "name": "A4",
          "ticks": 15480,
          "time": 50.25969,
          "velocity": 0.4094488188976378
        },
        {
          "duration": 0.38960999999999757,
          "durationTicks": 120,
          "midi": 76,
          "name": "E5",
          "ticks": 15600,
          "time": 50.649300000000004,
          "velocity": 0.5511811023622047
        },
        {
          "duration": 0.37337624999999264,
          "durationTicks": 115,
          "midi": 69,
          "name": "A4",
          "ticks": 15722,
          "time": 51.045403500000006,
          "velocity": 0.4881889763779528
        },
        {
          "duration": 0.38311649999999986,
          "durationTicks": 118,
          "midi": 74,
          "name": "D5",
          "ticks": 15842,
          "time": 51.435013500000004,
          "velocity": 0.47244094488188976
        },
        {
          "duration": 0.37986974999999745,
          "durationTicks": 117,
          "midi": 69,
          "name": "A4",
          "ticks": 15960,
          "time": 51.818130000000004,
          "velocity": 0.47244094488188976
        },
        {
          "duration": 0.38960999999999757,
          "durationTicks": 120,
          "midi": 81,
          "name": "A5",
          "ticks": 16080,
          "time": 52.20774,
          "velocity": 0.4094488188976378
        },
        {
          "duration": 0.37986974999999745,
          "durationTicks": 117,
          "midi": 69,
          "name": "A4",
          "ticks": 16200,
          "time": 52.59735,
          "velocity": 0.4094488188976378
        },
        {
          "duration": 0.38960999999999757,
          "durationTicks": 120,
          "midi": 69,
          "name": "A4",
          "ticks": 16440,
          "time": 53.37657,
          "velocity": 0.5354330708661418
        },
        {
          "duration": 0.3896100000000047,
          "durationTicks": 120,
          "midi": 76,
          "name": "E5",
          "ticks": 16560,
          "time": 53.76618,
          "velocity": 0.4566929133858268
        },
        {
          "duration": 0.38960999999999757,
          "durationTicks": 120,
          "midi": 69,
          "name": "A4",
          "ticks": 16680,
          "time": 54.15579,
          "velocity": 0.4881889763779528
        },
        {
          "duration": 0.37986974999999745,
          "durationTicks": 117,
          "midi": 79,
          "name": "G5",
          "ticks": 16800,
          "time": 54.5454,
          "velocity": 0.4566929133858268
        },
        {
          "duration": 0.3896100000000047,
          "durationTicks": 120,
          "midi": 69,
          "name": "A4",
          "ticks": 16920,
          "time": 54.93501,
          "velocity": 0.47244094488188976
        },
        {
          "duration": 0.38960999999999757,
          "durationTicks": 120,
          "midi": 73,
          "name": "C#5",
          "ticks": 17040,
          "time": 55.32462,
          "velocity": 0.4409448818897638
        },
        {
          "duration": 0.3896100000000047,
          "durationTicks": 120,
          "midi": 69,
          "name": "A4",
          "ticks": 17160,
          "time": 55.71423,
          "velocity": 0.4094488188976378
        },
        {
          "duration": 0.38311649999999275,
          "durationTicks": 118,
          "midi": 64,
          "name": "E4",
          "ticks": 17282,
          "time": 56.11033350000001,
          "velocity": 0.3543307086614173
        },
        {
          "duration": 0.38960999999999757,
          "durationTicks": 120,
          "midi": 71,
          "name": "B4",
          "ticks": 17400,
          "time": 56.49345,
          "velocity": 0.4881889763779528
        },
        {
          "duration": 0.3896100000000047,
          "durationTicks": 120,
          "midi": 76,
          "name": "E5",
          "ticks": 17520,
          "time": 56.88306,
          "velocity": 0.5669291338582677
        },
        {
          "duration": 0.38311649999999275,
          "durationTicks": 118,
          "midi": 71,
          "name": "B4",
          "ticks": 17642,
          "time": 57.27916350000001,
          "velocity": 0.3228346456692913
        },
        {
          "duration": 0.38960999999999757,
          "durationTicks": 120,
          "midi": 67,
          "name": "G4",
          "ticks": 17760,
          "time": 57.66228,
          "velocity": 0.5039370078740157
        },
        {
          "duration": 0.3896100000000047,
          "durationTicks": 120,
          "midi": 71,
          "name": "B4",
          "ticks": 17880,
          "time": 58.05189,
          "velocity": 0.4881889763779528
        },
        {
          "duration": 0.38960999999999757,
          "durationTicks": 120,
          "midi": 76,
          "name": "E5",
          "ticks": 18000,
          "time": 58.441500000000005,
          "velocity": 0.5826771653543307
        },
        {
          "duration": 0.38960999999999757,
          "durationTicks": 120,
          "midi": 71,
          "name": "B4",
          "ticks": 18120,
          "time": 58.83111,
          "velocity": 0.3228346456692913
        },
        {
          "duration": 0.38311649999999986,
          "durationTicks": 118,
          "midi": 62,
          "name": "D4",
          "ticks": 18242,
          "time": 59.227213500000005,
          "velocity": 0.4251968503937008
        },
        {
          "duration": 0.37986974999999745,
          "durationTicks": 117,
          "midi": 69,
          "name": "A4",
          "ticks": 18360,
          "time": 59.610330000000005,
          "velocity": 0.5354330708661418
        },
        {
          "duration": 0.38960999999999757,
          "durationTicks": 120,
          "midi": 78,
          "name": "F#5",
          "ticks": 18480,
          "time": 59.99994,
          "velocity": 0.5039370078740157
        },
        {
          "duration": 0.37986974999999745,
          "durationTicks": 117,
          "midi": 74,
          "name": "D5",
          "ticks": 18600,
          "time": 60.38955,
          "velocity": 0.3779527559055118
        },
        {
          "duration": 0.38960999999999757,
          "durationTicks": 120,
          "midi": 81,
          "name": "A5",
          "ticks": 18720,
          "time": 60.779160000000005,
          "velocity": 0.4566929133858268
        },
        {
          "duration": 0.09740250000000117,
          "durationTicks": 30,
          "midi": 50,
          "name": "D3",
          "ticks": 18960,
          "time": 61.55838,
          "velocity": 0.49606299212598426
        },
        {
          "duration": 0.09740250000000117,
          "durationTicks": 30,
          "midi": 52,
          "name": "E3",
          "ticks": 18975,
          "time": 61.60708125,
          "velocity": 0.49606299212598426
        },
        {
          "duration": 0.09740250000000117,
          "durationTicks": 30,
          "midi": 54,
          "name": "F#3",
          "ticks": 18990,
          "time": 61.6557825,
          "velocity": 0.49606299212598426
        },
        {
          "duration": 0.09740250000000117,
          "durationTicks": 30,
          "midi": 55,
          "name": "G3",
          "ticks": 19005,
          "time": 61.70448375,
          "velocity": 0.49606299212598426
        },
        {
          "duration": 0.08766225000000105,
          "durationTicks": 27,
          "midi": 57,
          "name": "A3",
          "ticks": 19020,
          "time": 61.753185,
          "velocity": 0.49606299212598426
        },
        {
          "duration": 0.08766224999999395,
          "durationTicks": 27,
          "midi": 59,
          "name": "B3",
          "ticks": 19035,
          "time": 61.80188625,
          "velocity": 0.49606299212598426
        },
        {
          "duration": 0.09740250000000117,
          "durationTicks": 30,
          "midi": 61,
          "name": "C#4",
          "ticks": 19050,
          "time": 61.8505875,
          "velocity": 0.49606299212598426
        },
        {
          "duration": 0.09740250000000117,
          "durationTicks": 30,
          "midi": 62,
          "name": "D4",
          "ticks": 19065,
          "time": 61.899288750000004,
          "velocity": 0.49606299212598426
        },
        {
          "duration": 0.09740249999999406,
          "durationTicks": 30,
          "midi": 78,
          "name": "F#5",
          "ticks": 19080,
          "time": 61.947990000000004,
          "velocity": 0.49606299212598426
        },
        {
          "duration": 0.09090899999998925,
          "durationTicks": 28,
          "midi": 76,
          "name": "E5",
          "ticks": 19082,
          "time": 61.95448350000001,
          "velocity": 0.49606299212598426
        },
        {
          "duration": 0.09740250000000117,
          "durationTicks": 30,
          "midi": 79,
          "name": "G5",
          "ticks": 19110,
          "time": 62.0453925,
          "velocity": 0.4645669291338583
        },
        {
          "duration": 0.09740250000000117,
          "durationTicks": 30,
          "midi": 81,
          "name": "A5",
          "ticks": 19125,
          "time": 62.09409375,
          "velocity": 0.4330708661417323
        },
        {
          "duration": 0.09740250000000117,
          "durationTicks": 30,
          "midi": 83,
          "name": "B5",
          "ticks": 19140,
          "time": 62.142795,
          "velocity": 0.4015748031496063
        },
        {
          "duration": 0.09740250000000117,
          "durationTicks": 30,
          "midi": 85,
          "name": "C#6",
          "ticks": 19155,
          "time": 62.19149625,
          "velocity": 0.3700787401574803
        },
        {
          "duration": 0.09740250000000117,
          "durationTicks": 30,
          "midi": 86,
          "name": "D6",
          "ticks": 19170,
          "time": 62.2401975,
          "velocity": 0.3700787401574803
        },
        {
          "duration": 0.09740250000000117,
          "durationTicks": 30,
          "midi": 88,
          "name": "E6",
          "ticks": 19185,
          "time": 62.28889875,
          "velocity": 0.3700787401574803
        },
        {
          "duration": 0.09090899999999635,
          "durationTicks": 28,
          "midi": 90,
          "name": "F#6",
          "ticks": 19202,
          "time": 62.34409350000001,
          "velocity": 0.3700787401574803
        },
        {
          "duration": 0.37986974999999745,
          "durationTicks": 117,
          "midi": 64,
          "name": "E4",
          "ticks": 26640,
          "time": 86.49342,
          "velocity": 0.3700787401574803
        },
        {
          "duration": 0.09740250000000117,
          "durationTicks": 30,
          "midi": 66,
          "name": "F#4",
          "ticks": 26670,
          "time": 86.5908225,
          "velocity": 0.4094488188976378
        },
        {
          "duration": 0.09740249999998696,
          "durationTicks": 30,
          "midi": 67,
          "name": "G4",
          "ticks": 26710,
          "time": 86.72069250000001,
          "velocity": 0.3937007874015748
        },
        {
          "duration": 0.09740250000000117,
          "durationTicks": 30,
          "midi": 69,
          "name": "A4",
          "ticks": 26730,
          "time": 86.7856275,
          "velocity": 0.5433070866141733
        },
        {
          "duration": 0.09740250000000117,
          "durationTicks": 30,
          "midi": 73,
          "name": "C#5",
          "ticks": 26760,
          "time": 86.88303,
          "velocity": 0.4094488188976378
        },
        {
          "duration": 0.08766224999999395,
          "durationTicks": 27,
          "midi": 74,
          "name": "D5",
          "ticks": 26805,
          "time": 87.02913375,
          "velocity": 0.5275590551181102
        },
        {
          "duration": 0.09740250000000117,
          "durationTicks": 30,
          "midi": 76,
          "name": "E5",
          "ticks": 26835,
          "time": 87.12653625,
          "velocity": 0.5590551181102362
        },
        {
          "duration": 0.09090899999998214,
          "durationTicks": 28,
          "midi": 78,
          "name": "F#5",
          "ticks": 26882,
          "time": 87.27913350000001,
          "velocity": 0.48031496062992124
        },
        {
          "duration": 0.04870125000000769,
          "durationTicks": 15,
          "midi": 62,
          "name": "D4",
          "ticks": 34320,
          "time": 111.42846,
          "velocity": 0.4330708661417323
        },
        {
          "duration": 0.04870124999999348,
          "durationTicks": 15,
          "midi": 64,
          "name": "E4",
          "ticks": 34335,
          "time": 111.47716125000001,
          "velocity": 0.44881889763779526
        },
        {
          "duration": 0.04870125000000769,
          "durationTicks": 15,
          "midi": 66,
          "name": "F#4",
          "ticks": 34350,
          "time": 111.5258625,
          "velocity": 0.4566929133858268
        },
        {
          "duration": 0.04870124999999348,
          "durationTicks": 15,
          "midi": 67,
          "name": "G4",
          "ticks": 34365,
          "time": 111.57456375000001,
          "velocity": 0.47244094488188976
        },
        {
          "duration": 0.03896100000001468,
          "durationTicks": 12,
          "midi": 69,
          "name": "A4",
          "ticks": 34380,
          "time": 111.623265,
          "velocity": 0.4881889763779528
        },
        {
          "duration": 0.04870125000000769,
          "durationTicks": 15,
          "midi": 71,
          "name": "B4",
          "ticks": 34395,
          "time": 111.67196625,
          "velocity": 0.5039370078740157
        },
        {
          "duration": 0.04870124999999348,
          "durationTicks": 15,
          "midi": 73,
          "name": "C#5",
          "ticks": 34410,
          "time": 111.7206675,
          "velocity": 0.5118110236220472
        },
        {
          "duration": 0.04870125000000769,
          "durationTicks": 15,
          "midi": 74,
          "name": "D5",
          "ticks": 34425,
          "time": 111.76936875,
          "velocity": 0.5275590551181102
        },
        {
          "duration": 0.042207750000002875,
          "durationTicks": 13,
          "midi": 76,
          "name": "E5",
          "ticks": 34442,
          "time": 111.8245635,
          "velocity": 0.5433070866141733
        },
        {
          "duration": 0.04870125000000769,
          "durationTicks": 15,
          "midi": 78,
          "name": "F#5",
          "ticks": 34455,
          "time": 111.86677125,
          "velocity": 0.5590551181102362
        },
        {
          "duration": 0.04870124999999348,
          "durationTicks": 15,
          "midi": 79,
          "name": "G5",
          "ticks": 34470,
          "time": 111.9154725,
          "velocity": 0.5748031496062992
        },
        {
          "duration": 0.04870125000000769,
          "durationTicks": 15,
          "midi": 81,
          "name": "A5",
          "ticks": 34485,
          "time": 111.96417375,
          "velocity": 0.5826771653543307
        },
        {
          "duration": 0.03896100000000047,
          "durationTicks": 12,
          "midi": 83,
          "name": "B5",
          "ticks": 34500,
          "time": 112.01287500000001,
          "velocity": 0.5984251968503937
        },
        {
          "duration": 0.055194749999998294,
          "durationTicks": 17,
          "midi": 85,
          "name": "C#6",
          "ticks": 34515,
          "time": 112.06157625,
          "velocity": 0.6141732283464567
        },
        {
          "duration": 0.032467500000009863,
          "durationTicks": 10,
          "midi": 86,
          "name": "D6",
          "ticks": 34532,
          "time": 112.116771,
          "velocity": 0.6299212598425197
        },
        {
          "duration": 0.04870125000000769,
          "durationTicks": 15,
          "midi": 88,
          "name": "E6",
          "ticks": 34545,
          "time": 112.15897875,
          "velocity": 0.6377952755905512
        },
        {
          "duration": 0.03246749999999565,
          "durationTicks": 10,
          "midi": 90,
          "name": "F#6",
          "ticks": 34565,
          "time": 112.22391375000001,
          "velocity": 0.5590551181102362
        },
        {
          "duration": 0.042207750000002875,
          "durationTicks": 13,
          "midi": 40,
          "name": "E2",
          "ticks": 38162,
          "time": 123.9024735,
          "velocity": 0.5669291338582677
        },
        {
          "duration": 0.04870124999999348,
          "durationTicks": 15,
          "midi": 47,
          "name": "B2",
          "ticks": 38190,
          "time": 123.99338250000001,
          "velocity": 0.5748031496062992
        },
        {
          "duration": 0.04870125000000769,
          "durationTicks": 15,
          "midi": 52,
          "name": "E3",
          "ticks": 38220,
          "time": 124.090785,
          "velocity": 0.5826771653543307
        },
        {
          "duration": 0.04870124999999348,
          "durationTicks": 15,
          "midi": 55,
          "name": "G3",
          "ticks": 38235,
          "time": 124.13948625,
          "velocity": 0.5826771653543307
        },
        {
          "duration": 0.04870125000000769,
          "durationTicks": 15,
          "midi": 59,
          "name": "B3",
          "ticks": 38250,
          "time": 124.1881875,
          "velocity": 0.5826771653543307
        },
        {
          "duration": 0.04870124999999348,
          "durationTicks": 15,
          "midi": 64,
          "name": "E4",
          "ticks": 38265,
          "time": 124.23688875,
          "velocity": 0.5905511811023622
        },
        {
          "duration": 0.04870125000000769,
          "durationTicks": 15,
          "midi": 67,
          "name": "G4",
          "ticks": 38280,
          "time": 124.28559,
          "velocity": 0.5905511811023622
        },
        {
          "duration": 0.04870124999999348,
          "durationTicks": 15,
          "midi": 71,
          "name": "B4",
          "ticks": 38295,
          "time": 124.33429125,
          "velocity": 0.5905511811023622
        },
        {
          "duration": 0.04870125000000769,
          "durationTicks": 15,
          "midi": 76,
          "name": "E5",
          "ticks": 38310,
          "time": 124.3829925,
          "velocity": 0.5984251968503937
        },
        {
          "duration": 0.04870124999999348,
          "durationTicks": 15,
          "midi": 79,
          "name": "G5",
          "ticks": 38325,
          "time": 124.43169375000001,
          "velocity": 0.5984251968503937
        },
        {
          "duration": 0.04870125000000769,
          "durationTicks": 15,
          "midi": 83,
          "name": "B5",
          "ticks": 38340,
          "time": 124.480395,
          "velocity": 0.5669291338582677
        },
        {
          "duration": 0.04870124999999348,
          "durationTicks": 15,
          "midi": 88,
          "name": "E6",
          "ticks": 38355,
          "time": 124.52909625000001,
          "velocity": 0.5433070866141733
        },
        {
          "duration": 0.04870125000000769,
          "durationTicks": 15,
          "midi": 91,
          "name": "G6",
          "ticks": 38370,
          "time": 124.5777975,
          "velocity": 0.5196850393700787
        },
        {
          "duration": 0.04870124999999348,
          "durationTicks": 15,
          "midi": 95,
          "name": "B6",
          "ticks": 38385,
          "time": 124.62649875000001,
          "velocity": 0.5039370078740157
        },
        {
          "duration": 0.09740249999998696,
          "durationTicks": 30,
          "midi": 45,
          "name": "A2",
          "ticks": 42000,
          "time": 136.36350000000002,
          "velocity": 0.5905511811023622
        },
        {
          "duration": 0.09740249999998696,
          "durationTicks": 30,
          "midi": 49,
          "name": "C#3",
          "ticks": 42030,
          "time": 136.4609025,
          "velocity": 0.5748031496062992
        },
        {
          "duration": 0.08766225000002237,
          "durationTicks": 27,
          "midi": 52,
          "name": "E3",
          "ticks": 42060,
          "time": 136.558305,
          "velocity": 0.5590551181102362
        },
        {
          "duration": 0.09740249999998696,
          "durationTicks": 30,
          "midi": 57,
          "name": "A3",
          "ticks": 42090,
          "time": 136.6557075,
          "velocity": 0.5433070866141733
        },
        {
          "duration": 0.08766225000002237,
          "durationTicks": 27,
          "midi": 61,
          "name": "C#4",
          "ticks": 42120,
          "time": 136.75311,
          "velocity": 0.5275590551181102
        },
        {
          "duration": 0.09740249999998696,
          "durationTicks": 30,
          "midi": 64,
          "name": "E4",
          "ticks": 42150,
          "time": 136.8505125,
          "velocity": 0.5118110236220472
        },
        {
          "duration": 0.09090900000001056,
          "durationTicks": 28,
          "midi": 69,
          "name": "A4",
          "ticks": 42182,
          "time": 136.9544085,
          "velocity": 0.4881889763779528
        },
        {
          "duration": 0.09740249999998696,
          "durationTicks": 30,
          "midi": 74,
          "name": "D5",
          "ticks": 42210,
          "time": 137.0453175,
          "velocity": 0.47244094488188976
        },
        {
          "duration": 0.37986975000001166,
          "durationTicks": 117,
          "midi": 64,
          "name": "E4",
          "ticks": 53520,
          "time": 173.76606,
          "velocity": 0.5433070866141733
        },
        {
          "duration": 0.09740250000001538,
          "durationTicks": 30,
          "midi": 66,
          "name": "F#4",
          "ticks": 53550,
          "time": 173.8634625,
          "velocity": 0.4094488188976378
        },
        {
          "duration": 0.08766224999999395,
          "durationTicks": 27,
          "midi": 67,
          "name": "G4",
          "ticks": 53590,
          "time": 173.9933325,
          "velocity": 0.3937007874015748
        },
        {
          "duration": 0.09740250000001538,
          "durationTicks": 30,
          "midi": 69,
          "name": "A4",
          "ticks": 53610,
          "time": 174.0582675,
          "velocity": 0.5433070866141733
        },
        {
          "duration": 0.09740249999998696,
          "durationTicks": 30,
          "midi": 73,
          "name": "C#5",
          "ticks": 53640,
          "time": 174.15567000000001,
          "velocity": 0.4094488188976378
        },
        {
          "duration": 0.09740250000001538,
          "durationTicks": 30,
          "midi": 74,
          "name": "D5",
          "ticks": 53685,
          "time": 174.30177375,
          "velocity": 0.5275590551181102
        },
        {
          "duration": 0.09740249999998696,
          "durationTicks": 30,
          "midi": 76,
          "name": "E5",
          "ticks": 53715,
          "time": 174.39917625,
          "velocity": 0.5590551181102362
        },
        {
          "duration": 0.07142849999999612,
          "durationTicks": 22,
          "midi": 78,
          "name": "F#5",
          "ticks": 53765,
          "time": 174.56151375000002,
          "velocity": 0.48031496062992124
        },
        {
          "duration": 0.042207750000017086,
          "durationTicks": 13,
          "midi": 62,
          "name": "D4",
          "ticks": 61202,
          "time": 198.7075935,
          "velocity": 0.4330708661417323
        },
        {
          "duration": 0.04870124999999348,
          "durationTicks": 15,
          "midi": 64,
          "name": "E4",
          "ticks": 61215,
          "time": 198.74980125000002,
          "velocity": 0.44881889763779526
        },
        {
          "duration": 0.04870124999999348,
          "durationTicks": 15,
          "midi": 66,
          "name": "F#4",
          "ticks": 61230,
          "time": 198.7985025,
          "velocity": 0.4566929133858268
        },
        {
          "duration": 0.04870124999999348,
          "durationTicks": 15,
          "midi": 67,
          "name": "G4",
          "ticks": 61245,
          "time": 198.84720375,
          "velocity": 0.47244094488188976
        },
        {
          "duration": 0.04870124999999348,
          "durationTicks": 15,
          "midi": 69,
          "name": "A4",
          "ticks": 61260,
          "time": 198.895905,
          "velocity": 0.4881889763779528
        },
        {
          "duration": 0.0487012500000219,
          "durationTicks": 15,
          "midi": 71,
          "name": "B4",
          "ticks": 61275,
          "time": 198.94460625,
          "velocity": 0.5039370078740157
        },
        {
          "duration": 0.04870124999999348,
          "durationTicks": 15,
          "midi": 73,
          "name": "C#5",
          "ticks": 61290,
          "time": 198.99330750000001,
          "velocity": 0.5118110236220472
        },
        {
          "duration": 0.04870124999999348,
          "durationTicks": 15,
          "midi": 74,
          "name": "D5",
          "ticks": 61305,
          "time": 199.04200875,
          "velocity": 0.5275590551181102
        },
        {
          "duration": 0.042207749999988664,
          "durationTicks": 13,
          "midi": 76,
          "name": "E5",
          "ticks": 61322,
          "time": 199.0972035,
          "velocity": 0.5433070866141733
        },
        {
          "duration": 0.0487012500000219,
          "durationTicks": 15,
          "midi": 78,
          "name": "F#5",
          "ticks": 61335,
          "time": 199.13941125,
          "velocity": 0.5590551181102362
        },
        {
          "duration": 0.03896100000000047,
          "durationTicks": 12,
          "midi": 79,
          "name": "G5",
          "ticks": 61350,
          "time": 199.18811250000002,
          "velocity": 0.5748031496062992
        },
        {
          "duration": 0.04870124999999348,
          "durationTicks": 15,
          "midi": 81,
          "name": "A5",
          "ticks": 61365,
          "time": 199.23681375,
          "velocity": 0.5826771653543307
        },
        {
          "duration": 0.04870124999999348,
          "durationTicks": 15,
          "midi": 83,
          "name": "B5",
          "ticks": 61380,
          "time": 199.285515,
          "velocity": 0.5984251968503937
        },
        {
          "duration": 0.0487012500000219,
          "durationTicks": 15,
          "midi": 85,
          "name": "C#6",
          "ticks": 61395,
          "time": 199.33421625,
          "velocity": 0.6141732283464567
        },
        {
          "duration": 0.03896100000000047,
          "durationTicks": 12,
          "midi": 86,
          "name": "D6",
          "ticks": 61410,
          "time": 199.38291750000002,
          "velocity": 0.6299212598425197
        },
        {
          "duration": 0.04870124999999348,
          "durationTicks": 15,
          "midi": 88,
          "name": "E6",
          "ticks": 61425,
          "time": 199.43161875,
          "velocity": 0.6377952755905512
        },
        {
          "duration": 0.02597400000001926,
          "durationTicks": 8,
          "midi": 90,
          "name": "F#6",
          "ticks": 61447,
          "time": 199.50304724999998,
          "velocity": 0.5590551181102362
        },
        {
          "duration": 0.02272725000000264,
          "durationTicks": 7,
          "midi": 40,
          "name": "E2",
          "ticks": 65045,
          "time": 211.18485375,
          "velocity": 0.6377952755905512
        },
        {
          "duration": 0.03896100000000047,
          "durationTicks": 12,
          "midi": 47,
          "name": "B2",
          "ticks": 65070,
          "time": 211.26602250000002,
          "velocity": 0.6456692913385826
        },
        {
          "duration": 0.04870124999999348,
          "durationTicks": 15,
          "midi": 52,
          "name": "E3",
          "ticks": 65100,
          "time": 211.363425,
          "velocity": 0.6535433070866141
        },
        {
          "duration": 0.04870124999999348,
          "durationTicks": 15,
          "midi": 55,
          "name": "G3",
          "ticks": 65115,
          "time": 211.41212625,
          "velocity": 0.6535433070866141
        },
        {
          "duration": 0.0487012500000219,
          "durationTicks": 15,
          "midi": 59,
          "name": "B3",
          "ticks": 65130,
          "time": 211.4608275,
          "velocity": 0.6535433070866141
        },
        {
          "duration": 0.04870124999999348,
          "durationTicks": 15,
          "midi": 64,
          "name": "E4",
          "ticks": 65145,
          "time": 211.50952875000002,
          "velocity": 0.6614173228346457
        },
        {
          "duration": 0.042207749999988664,
          "durationTicks": 13,
          "midi": 67,
          "name": "G4",
          "ticks": 65162,
          "time": 211.5647235,
          "velocity": 0.6614173228346457
        },
        {
          "duration": 0.03896100000000047,
          "durationTicks": 12,
          "midi": 71,
          "name": "B4",
          "ticks": 65175,
          "time": 211.60693125,
          "velocity": 0.6614173228346457
        },
        {
          "duration": 0.0487012500000219,
          "durationTicks": 15,
          "midi": 76,
          "name": "E5",
          "ticks": 65190,
          "time": 211.6556325,
          "velocity": 0.6692913385826772
        },
        {
          "duration": 0.04870124999999348,
          "durationTicks": 15,
          "midi": 79,
          "name": "G5",
          "ticks": 65205,
          "time": 211.70433375000002,
          "velocity": 0.6692913385826772
        },
        {
          "duration": 0.032467500000024074,
          "durationTicks": 10,
          "midi": 83,
          "name": "B5",
          "ticks": 65222,
          "time": 211.7595285,
          "velocity": 0.6377952755905512
        },
        {
          "duration": 0.03896100000000047,
          "durationTicks": 12,
          "midi": 88,
          "name": "E6",
          "ticks": 65235,
          "time": 211.80173625,
          "velocity": 0.6141732283464567
        },
        {
          "duration": 0.0487012500000219,
          "durationTicks": 15,
          "midi": 91,
          "name": "G6",
          "ticks": 65250,
          "time": 211.8504375,
          "velocity": 0.5905511811023622
        },
        {
          "duration": 0.03896100000000047,
          "durationTicks": 12,
          "midi": 95,
          "name": "B6",
          "ticks": 65265,
          "time": 211.89913875000002,
          "velocity": 0.5748031496062992
        },
        {
          "duration": 0.09740249999998696,
          "durationTicks": 30,
          "midi": 45,
          "name": "A2",
          "ticks": 68880,
          "time": 223.63614,
          "velocity": 0.6614173228346457
        },
        {
          "duration": 0.09740250000001538,
          "durationTicks": 30,
          "midi": 49,
          "name": "C#3",
          "ticks": 68910,
          "time": 223.7335425,
          "velocity": 0.6456692913385826
        },
        {
          "duration": 0.09740249999998696,
          "durationTicks": 30,
          "midi": 52,
          "name": "E3",
          "ticks": 68940,
          "time": 223.830945,
          "velocity": 0.6299212598425197
        },
        {
          "duration": 0.09740250000001538,
          "durationTicks": 30,
          "midi": 57,
          "name": "A3",
          "ticks": 68970,
          "time": 223.9283475,
          "velocity": 0.6141732283464567
        },
        {
          "duration": 0.08766224999999395,
          "durationTicks": 27,
          "midi": 61,
          "name": "C#4",
          "ticks": 69000,
          "time": 224.02575000000002,
          "velocity": 0.5984251968503937
        },
        {
          "duration": 0.09740250000001538,
          "durationTicks": 30,
          "midi": 64,
          "name": "E4",
          "ticks": 69030,
          "time": 224.1231525,
          "velocity": 0.5826771653543307
        },
        {
          "duration": 0.09740249999998696,
          "durationTicks": 30,
          "midi": 69,
          "name": "A4",
          "ticks": 69060,
          "time": 224.22055500000002,
          "velocity": 0.5590551181102362
        },
        {
          "duration": 0.09740250000001538,
          "durationTicks": 30,
          "midi": 74,
          "name": "D5",
          "ticks": 69090,
          "time": 224.3179575,
          "velocity": 0.5433070866141733
        },
        {
          "duration": 0.19480500000000234,
          "durationTicks": 60,
          "midi": 62,
          "name": "D4",
          "ticks": 76350,
          "time": 247.8893625,
          "velocity": 0.3937007874015748
        },
        {
          "duration": 0.19480500000000234,
          "durationTicks": 60,
          "midi": 67,
          "name": "G4",
          "ticks": 76400,
          "time": 248.05169999999998,
          "velocity": 0.5196850393700787
        },
        {
          "duration": 0.19480500000000234,
          "durationTicks": 60,
          "midi": 69,
          "name": "A4",
          "ticks": 76435,
          "time": 248.16533625000002,
          "velocity": 0.3779527559055118
        },
        {
          "duration": 0.19480500000000234,
          "durationTicks": 60,
          "midi": 86,
          "name": "D6",
          "ticks": 76507,
          "time": 248.39910225,
          "velocity": 0.44881889763779526
        },
        {
          "duration": 0.18831149999999752,
          "durationTicks": 58,
          "midi": 59,
          "name": "B3",
          "ticks": 80642,
          "time": 261.8244135,
          "velocity": 0.4881889763779528
        },
        {
          "duration": 0.1850647499999809,
          "durationTicks": 57,
          "midi": 64,
          "name": "E4",
          "ticks": 80760,
          "time": 262.20753,
          "velocity": 0.5039370078740157
        },
        {
          "duration": 0.19480500000003076,
          "durationTicks": 60,
          "midi": 67,
          "name": "G4",
          "ticks": 80890,
          "time": 262.6296075,
          "velocity": 0.4251968503937008
        },
        {
          "duration": 0.18506475000003775,
          "durationTicks": 57,
          "midi": 71,
          "name": "B4",
          "ticks": 81060,
          "time": 263.181555,
          "velocity": 0.5196850393700787
        },
        {
          "duration": 0.19480499999997392,
          "durationTicks": 60,
          "midi": 76,
          "name": "E5",
          "ticks": 81180,
          "time": 263.571165,
          "velocity": 0.5039370078740157
        },
        {
          "duration": 0.1850647499999809,
          "durationTicks": 57,
          "midi": 79,
          "name": "G5",
          "ticks": 81320,
          "time": 264.02571,
          "velocity": 0.4881889763779528
        },
        {
          "duration": 0.19480500000003076,
          "durationTicks": 60,
          "midi": 83,
          "name": "B5",
          "ticks": 81480,
          "time": 264.54519,
          "velocity": 0.4015748031496063
        },
        {
          "duration": 0.19480499999997392,
          "durationTicks": 60,
          "midi": 62,
          "name": "D4",
          "ticks": 82080,
          "time": 266.49324,
          "velocity": 0.6299212598425197
        },
        {
          "duration": 0.1850647499999809,
          "durationTicks": 57,
          "midi": 69,
          "name": "A4",
          "ticks": 82200,
          "time": 266.88285,
          "velocity": 0.5354330708661418
        },
        {
          "duration": 0.19480500000003076,
          "durationTicks": 60,
          "midi": 74,
          "name": "D5",
          "ticks": 82360,
          "time": 267.40233,
          "velocity": 0.4251968503937008
        },
        {
          "duration": 0.19480500000003076,
          "durationTicks": 60,
          "midi": 81,
          "name": "A5",
          "ticks": 82500,
          "time": 267.856875,
          "velocity": 0.4566929133858268
        },
        {
          "duration": 0.1850647499999809,
          "durationTicks": 57,
          "midi": 86,
          "name": "D6",
          "ticks": 82740,
          "time": 268.636095,
          "velocity": 0.4015748031496063
        },
        {
          "duration": 0.18506475000003775,
          "durationTicks": 57,
          "midi": 62,
          "name": "D4",
          "ticks": 82920,
          "time": 269.22051,
          "velocity": 0.6141732283464567
        },
        {
          "duration": 0.1850647499999809,
          "durationTicks": 57,
          "midi": 69,
          "name": "A4",
          "ticks": 82960,
          "time": 269.35038000000003,
          "velocity": 0.5511811023622047
        },
        {
          "duration": 0.18506475000003775,
          "durationTicks": 57,
          "midi": 74,
          "name": "D5",
          "ticks": 82995,
          "time": 269.46401625,
          "velocity": 0.6456692913385826
        },
        {
          "duration": 0.19480499999997392,
          "durationTicks": 60,
          "midi": 78,
          "name": "F#5",
          "ticks": 83025,
          "time": 269.56141875000003,
          "velocity": 0.5196850393700787
        },
        {
          "duration": 0.18831149999999752,
          "durationTicks": 58,
          "midi": 81,
          "name": "A5",
          "ticks": 83057,
          "time": 269.66531475,
          "velocity": 0.4881889763779528
        },
        {
          "duration": 0.19480500000003076,
          "durationTicks": 60,
          "midi": 86,
          "name": "D6",
          "ticks": 83085,
          "time": 269.75622375,
          "velocity": 0.5354330708661418
        },
        {
          "duration": 0.19480499999997392,
          "durationTicks": 60,
          "midi": 90,
          "name": "F#6",
          "ticks": 83127,
          "time": 269.89258725,
          "velocity": 0.4566929133858268
        }
      ]
    },
    {
      "channel": 6,
      "controlChanges": {
        "7": [
          {
            "number": 7,
            "ticks": 322,
            "time": 1.0454535,
            "value": 0.3543307086614173
          }
        ],
        "11": [
          {
            "number": 11,
            "ticks": 322,
            "time": 1.0454535,
            "value": 1
          }
        ],
        "91": [
          {
            "number": 91,
            "ticks": 325,
            "time": 1.0551937500000002,
            "value": 0.5196850393700787
          }
        ],
        "93": [
          {
            "number": 93,
            "ticks": 325,
            "time": 1.0551937500000002,
            "value": 0.07874015748031496
          }
        ]
      },
      "pitchBends": [],
      "instrument": {
        "family": "piano",
        "number": 6,
        "name": "harpsichord"
      },
      "name": "",
      "notes": [
        {
          "duration": 0.1233765,
          "durationTicks": 38,
          "midi": 81,
          "name": "A5",
          "ticks": 1922,
          "time": 6.2402535,
          "velocity": 0.4409448818897638
        },
        {
          "duration": 0.1233765,
          "durationTicks": 38,
          "midi": 78,
          "name": "F#5",
          "ticks": 1922,
          "time": 6.2402535,
          "velocity": 0.2677165354330709
        },
        {
          "duration": 0.113636249999999,
          "durationTicks": 35,
          "midi": 74,
          "name": "D5",
          "ticks": 1925,
          "time": 6.249993750000001,
          "velocity": 0.33070866141732286
        },
        {
          "duration": 0.113636249999999,
          "durationTicks": 35,
          "midi": 69,
          "name": "A4",
          "ticks": 1925,
          "time": 6.249993750000001,
          "velocity": 0.3937007874015748
        },
        {
          "duration": 0.12012975000000026,
          "durationTicks": 37,
          "midi": 78,
          "name": "F#5",
          "ticks": 2045,
          "time": 6.639603750000001,
          "velocity": 0.2204724409448819
        },
        {
          "duration": 0.12986999999999949,
          "durationTicks": 40,
          "midi": 74,
          "name": "D5",
          "ticks": 2045,
          "time": 6.639603750000001,
          "velocity": 0.31496062992125984
        },
        {
          "duration": 0.1233765,
          "durationTicks": 38,
          "midi": 69,
          "name": "A4",
          "ticks": 2047,
          "time": 6.64609725,
          "velocity": 0.36220472440944884
        },
        {
          "duration": 0.1233765,
          "durationTicks": 38,
          "midi": 81,
          "name": "A5",
          "ticks": 2047,
          "time": 6.64609725,
          "velocity": 0.4094488188976378
        },
        {
          "duration": 0.12012975000000026,
          "durationTicks": 37,
          "midi": 69,
          "name": "A4",
          "ticks": 2165,
          "time": 7.02921375,
          "velocity": 0.3464566929133858
        },
        {
          "duration": 0.12987000000000037,
          "durationTicks": 40,
          "midi": 78,
          "name": "F#5",
          "ticks": 2165,
          "time": 7.02921375,
          "velocity": 0.2992125984251969
        },
        {
          "duration": 0.1233765,
          "durationTicks": 38,
          "midi": 74,
          "name": "D5",
          "ticks": 2167,
          "time": 7.035707250000001,
          "velocity": 0.3464566929133858
        },
        {
          "duration": 0.1233765,
          "durationTicks": 38,
          "midi": 81,
          "name": "A5",
          "ticks": 2167,
          "time": 7.035707250000001,
          "velocity": 0.36220472440944884
        },
        {
          "duration": 0.5844150000000008,
          "durationTicks": 180,
          "midi": 78,
          "name": "F#5",
          "ticks": 2282,
          "time": 7.4090834999999995,
          "velocity": 0.2992125984251969
        },
        {
          "duration": 0.5519475000000007,
          "durationTicks": 170,
          "midi": 81,
          "name": "A5",
          "ticks": 2282,
          "time": 7.4090834999999995,
          "velocity": 0.4094488188976378
        },
        {
          "duration": 0.5844150000000008,
          "durationTicks": 180,
          "midi": 74,
          "name": "D5",
          "ticks": 2282,
          "time": 7.4090834999999995,
          "velocity": 0.2677165354330709
        },
        {
          "duration": 0.5941552500000018,
          "durationTicks": 183,
          "midi": 69,
          "name": "A4",
          "ticks": 2282,
          "time": 7.4090834999999995,
          "velocity": 0.3937007874015748
        },
        {
          "duration": 0.048701250000000584,
          "durationTicks": 15,
          "midi": 78,
          "name": "F#5",
          "ticks": 2525,
          "time": 8.19804375,
          "velocity": 0.25196850393700787
        },
        {
          "duration": 0.048701250000000584,
          "durationTicks": 15,
          "midi": 74,
          "name": "D5",
          "ticks": 2525,
          "time": 8.19804375,
          "velocity": 0.31496062992125984
        },
        {
          "duration": 0.0422077500000011,
          "durationTicks": 13,
          "midi": 69,
          "name": "A4",
          "ticks": 2527,
          "time": 8.20453725,
          "velocity": 0.31496062992125984
        },
        {
          "duration": 0.0584415000000007,
          "durationTicks": 18,
          "midi": 81,
          "name": "A5",
          "ticks": 2527,
          "time": 8.20453725,
          "velocity": 0.36220472440944884
        },
        {
          "duration": 0.38960999999999935,
          "durationTicks": 120,
          "midi": 74,
          "name": "D5",
          "ticks": 2645,
          "time": 8.587653750000001,
          "velocity": 0.36220472440944884
        },
        {
          "duration": 0.38960999999999935,
          "durationTicks": 120,
          "midi": 78,
          "name": "F#5",
          "ticks": 2645,
          "time": 8.587653750000001,
          "velocity": 0.18110236220472442
        },
        {
          "duration": 0.38311649999999986,
          "durationTicks": 118,
          "midi": 69,
          "name": "A4",
          "ticks": 2647,
          "time": 8.59414725,
          "velocity": 0.33070866141732286
        },
        {
          "duration": 0.38311649999999986,
          "durationTicks": 118,
          "midi": 81,
          "name": "A5",
          "ticks": 2647,
          "time": 8.59414725,
          "velocity": 0.4566929133858268
        },
        {
          "duration": 0.06493500000000019,
          "durationTicks": 20,
          "midi": 81,
          "name": "A5",
          "ticks": 2882,
          "time": 9.3571335,
          "velocity": 0.4409448818897638
        },
        {
          "duration": 0.03896100000000047,
          "durationTicks": 12,
          "midi": 78,
          "name": "F#5",
          "ticks": 2885,
          "time": 9.36687375,
          "velocity": 0.2677165354330709
        },
        {
          "duration": 0.03246750000000098,
          "durationTicks": 10,
          "midi": 74,
          "name": "D5",
          "ticks": 2885,
          "time": 9.36687375,
          "velocity": 0.33070866141732286
        },
        {
          "duration": 0.03246750000000098,
          "durationTicks": 10,
          "midi": 69,
          "name": "A4",
          "ticks": 2885,
          "time": 9.36687375,
          "velocity": 0.3937007874015748
        },
        {
          "duration": 0.03896099999999869,
          "durationTicks": 12,
          "midi": 78,
          "name": "F#5",
          "ticks": 3005,
          "time": 9.756483750000001,
          "velocity": 0.2204724409448819
        },
        {
          "duration": 0.048701250000000584,
          "durationTicks": 15,
          "midi": 74,
          "name": "D5",
          "ticks": 3005,
          "time": 9.756483750000001,
          "velocity": 0.31496062992125984
        },
        {
          "duration": 0.0422077500000011,
          "durationTicks": 13,
          "midi": 69,
          "name": "A4",
          "ticks": 3007,
          "time": 9.76297725,
          "velocity": 0.36220472440944884
        },
        {
          "duration": 0.06493500000000019,
          "durationTicks": 20,
          "midi": 81,
          "name": "A5",
          "ticks": 3007,
          "time": 9.76297725,
          "velocity": 0.4094488188976378
        },
        {
          "duration": 0.048701250000000584,
          "durationTicks": 15,
          "midi": 69,
          "name": "A4",
          "ticks": 3125,
          "time": 10.14609375,
          "velocity": 0.3464566929133858
        },
        {
          "duration": 0.07142849999999967,
          "durationTicks": 22,
          "midi": 78,
          "name": "F#5",
          "ticks": 3125,
          "time": 10.14609375,
          "velocity": 0.2992125984251969
        },
        {
          "duration": 0.08116874999999979,
          "durationTicks": 25,
          "midi": 74,
          "name": "D5",
          "ticks": 3125,
          "time": 10.14609375,
          "velocity": 0.3464566929133858
        },
        {
          "duration": 0.0746752500000003,
          "durationTicks": 23,
          "midi": 81,
          "name": "A5",
          "ticks": 3127,
          "time": 10.15258725,
          "velocity": 0.36220472440944884
        },
        {
          "duration": 0.5844149999999999,
          "durationTicks": 180,
          "midi": 78,
          "name": "F#5",
          "ticks": 3242,
          "time": 10.5259635,
          "velocity": 0.2992125984251969
        },
        {
          "duration": 0.5519475000000007,
          "durationTicks": 170,
          "midi": 81,
          "name": "A5",
          "ticks": 3242,
          "time": 10.5259635,
          "velocity": 0.4094488188976378
        },
        {
          "duration": 0.5941552500000018,
          "durationTicks": 183,
          "midi": 74,
          "name": "D5",
          "ticks": 3242,
          "time": 10.5259635,
          "velocity": 0.2677165354330709
        },
        {
          "duration": 0.5941552500000018,
          "durationTicks": 183,
          "midi": 69,
          "name": "A4",
          "ticks": 3242,
          "time": 10.5259635,
          "velocity": 0.3937007874015748
        },
        {
          "duration": 0.048701250000000584,
          "durationTicks": 15,
          "midi": 78,
          "name": "F#5",
          "ticks": 3485,
          "time": 11.31492375,
          "velocity": 0.25196850393700787
        },
        {
          "duration": 0.048701250000000584,
          "durationTicks": 15,
          "midi": 74,
          "name": "D5",
          "ticks": 3485,
          "time": 11.31492375,
          "velocity": 0.31496062992125984
        },
        {
          "duration": 0.0422077500000011,
          "durationTicks": 13,
          "midi": 69,
          "name": "A4",
          "ticks": 3487,
          "time": 11.32141725,
          "velocity": 0.31496062992125984
        },
        {
          "duration": 0.0584415000000007,
          "durationTicks": 18,
          "midi": 81,
          "name": "A5",
          "ticks": 3487,
          "time": 11.32141725,
          "velocity": 0.36220472440944884
        },
        {
          "duration": 0.38960999999999935,
          "durationTicks": 120,
          "midi": 74,
          "name": "D5",
          "ticks": 3605,
          "time": 11.704533750000001,
          "velocity": 0.36220472440944884
        },
        {
          "duration": 0.38960999999999935,
          "durationTicks": 120,
          "midi": 78,
          "name": "F#5",
          "ticks": 3605,
          "time": 11.704533750000001,
          "velocity": 0.18110236220472442
        },
        {
          "duration": 0.38960999999999935,
          "durationTicks": 120,
          "midi": 69,
          "name": "A4",
          "ticks": 3605,
          "time": 11.704533750000001,
          "velocity": 0.33070866141732286
        },
        {
          "duration": 0.38311649999999986,
          "durationTicks": 118,
          "midi": 81,
          "name": "A5",
          "ticks": 3607,
          "time": 11.71102725,
          "velocity": 0.4566929133858268
        },
        {
          "duration": 0.10389599999999888,
          "durationTicks": 32,
          "midi": 81,
          "name": "A5",
          "ticks": 3845,
          "time": 12.48375375,
          "velocity": 0.4409448818897638
        },
        {
          "duration": 0.11363625000000077,
          "durationTicks": 35,
          "midi": 78,
          "name": "F#5",
          "ticks": 3845,
          "time": 12.48375375,
          "velocity": 0.2677165354330709
        },
        {
          "duration": 0.11363625000000077,
          "durationTicks": 35,
          "midi": 74,
          "name": "D5",
          "ticks": 3845,
          "time": 12.48375375,
          "velocity": 0.33070866141732286
        },
        {
          "duration": 0.11363625000000077,
          "durationTicks": 35,
          "midi": 69,
          "name": "A4",
          "ticks": 3845,
          "time": 12.48375375,
          "velocity": 0.3937007874015748
        },
        {
          "duration": 0.12987000000000037,
          "durationTicks": 40,
          "midi": 78,
          "name": "F#5",
          "ticks": 3965,
          "time": 12.87336375,
          "velocity": 0.2204724409448819
        },
        {
          "duration": 0.12987000000000037,
          "durationTicks": 40,
          "midi": 74,
          "name": "D5",
          "ticks": 3965,
          "time": 12.87336375,
          "velocity": 0.31496062992125984
        },
        {
          "duration": 0.12987000000000037,
          "durationTicks": 40,
          "midi": 69,
          "name": "A4",
          "ticks": 3965,
          "time": 12.87336375,
          "velocity": 0.36220472440944884
        },
        {
          "duration": 0.12337650000000089,
          "durationTicks": 38,
          "midi": 81,
          "name": "A5",
          "ticks": 3967,
          "time": 12.879857249999999,
          "velocity": 0.4094488188976378
        },
        {
          "duration": 0.12987000000000215,
          "durationTicks": 40,
          "midi": 69,
          "name": "A4",
          "ticks": 4085,
          "time": 13.262973749999999,
          "velocity": 0.3464566929133858
        },
        {
          "duration": 0.12987000000000215,
          "durationTicks": 40,
          "midi": 78,
          "name": "F#5",
          "ticks": 4085,
          "time": 13.262973749999999,
          "velocity": 0.2992125984251969
        },
        {
          "duration": 0.12337650000000089,
          "durationTicks": 38,
          "midi": 74,
          "name": "D5",
          "ticks": 4087,
          "time": 13.26946725,
          "velocity": 0.3464566929133858
        },
        {
          "duration": 0.12337650000000089,
          "durationTicks": 38,
          "midi": 81,
          "name": "A5",
          "ticks": 4087,
          "time": 13.26946725,
          "velocity": 0.36220472440944884
        },
        {
          "duration": 0.5779215000000004,
          "durationTicks": 178,
          "midi": 78,
          "name": "F#5",
          "ticks": 4202,
          "time": 13.6428435,
          "velocity": 0.2992125984251969
        },
        {
          "duration": 0.5454539999999994,
          "durationTicks": 168,
          "midi": 81,
          "name": "A5",
          "ticks": 4202,
          "time": 13.6428435,
          "velocity": 0.4094488188976378
        },
        {
          "duration": 0.59415525,
          "durationTicks": 183,
          "midi": 74,
          "name": "D5",
          "ticks": 4202,
          "time": 13.6428435,
          "velocity": 0.2677165354330709
        },
        {
          "duration": 0.59415525,
          "durationTicks": 183,
          "midi": 69,
          "name": "A4",
          "ticks": 4202,
          "time": 13.6428435,
          "velocity": 0.3937007874015748
        },
        {
          "duration": 0.04870124999999881,
          "durationTicks": 15,
          "midi": 78,
          "name": "F#5",
          "ticks": 4445,
          "time": 14.43180375,
          "velocity": 0.25196850393700787
        },
        {
          "duration": 0.04870124999999881,
          "durationTicks": 15,
          "midi": 74,
          "name": "D5",
          "ticks": 4445,
          "time": 14.43180375,
          "velocity": 0.31496062992125984
        },
        {
          "duration": 0.04870124999999881,
          "durationTicks": 15,
          "midi": 69,
          "name": "A4",
          "ticks": 4445,
          "time": 14.43180375,
          "velocity": 0.31496062992125984
        },
        {
          "duration": 0.05844150000000248,
          "durationTicks": 18,
          "midi": 81,
          "name": "A5",
          "ticks": 4447,
          "time": 14.43829725,
          "velocity": 0.36220472440944884
        },
        {
          "duration": 0.38960999999999935,
          "durationTicks": 120,
          "midi": 74,
          "name": "D5",
          "ticks": 4565,
          "time": 14.82141375,
          "velocity": 0.36220472440944884
        },
        {
          "duration": 0.38960999999999935,
          "durationTicks": 120,
          "midi": 78,
          "name": "F#5",
          "ticks": 4565,
          "time": 14.82141375,
          "velocity": 0.18110236220472442
        },
        {
          "duration": 0.38311649999999986,
          "durationTicks": 118,
          "midi": 69,
          "name": "A4",
          "ticks": 4567,
          "time": 14.827907249999999,
          "velocity": 0.33070866141732286
        },
        {
          "duration": 0.38311649999999986,
          "durationTicks": 118,
          "midi": 81,
          "name": "A5",
          "ticks": 4567,
          "time": 14.827907249999999,
          "velocity": 0.4566929133858268
        },
        {
          "duration": 0.12337650000000089,
          "durationTicks": 38,
          "midi": 81,
          "name": "A5",
          "ticks": 4802,
          "time": 15.5908935,
          "velocity": 0.4251968503937008
        },
        {
          "duration": 0.11363625000000077,
          "durationTicks": 35,
          "midi": 78,
          "name": "F#5",
          "ticks": 4805,
          "time": 15.60063375,
          "velocity": 0.23622047244094488
        },
        {
          "duration": 0.11363625000000077,
          "durationTicks": 35,
          "midi": 73,
          "name": "C#5",
          "ticks": 4805,
          "time": 15.60063375,
          "velocity": 0.2992125984251969
        },
        {
          "duration": 0.11363625000000077,
          "durationTicks": 35,
          "midi": 69,
          "name": "A4",
          "ticks": 4805,
          "time": 15.60063375,
          "velocity": 0.28346456692913385
        },
        {
          "duration": 0.12987000000000215,
          "durationTicks": 40,
          "midi": 78,
          "name": "F#5",
          "ticks": 4925,
          "time": 15.99024375,
          "velocity": 0.2125984251968504
        },
        {
          "duration": 0.12987000000000215,
          "durationTicks": 40,
          "midi": 81,
          "name": "A5",
          "ticks": 4925,
          "time": 15.99024375,
          "velocity": 0.3937007874015748
        },
        {
          "duration": 0.12987000000000215,
          "durationTicks": 40,
          "midi": 73,
          "name": "C#5",
          "ticks": 4925,
          "time": 15.99024375,
          "velocity": 0.2677165354330709
        },
        {
          "duration": 0.12337650000000266,
          "durationTicks": 38,
          "midi": 69,
          "name": "A4",
          "ticks": 4927,
          "time": 15.996737249999999,
          "velocity": 0.31496062992125984
        },
        {
          "duration": 0.12987000000000037,
          "durationTicks": 40,
          "midi": 81,
          "name": "A5",
          "ticks": 5045,
          "time": 16.37985375,
          "velocity": 0.3937007874015748
        },
        {
          "duration": 0.12987000000000037,
          "durationTicks": 40,
          "midi": 73,
          "name": "C#5",
          "ticks": 5045,
          "time": 16.37985375,
          "velocity": 0.2677165354330709
        },
        {
          "duration": 0.12337649999999911,
          "durationTicks": 38,
          "midi": 69,
          "name": "A4",
          "ticks": 5047,
          "time": 16.38634725,
          "velocity": 0.28346456692913385
        },
        {
          "duration": 0.12337649999999911,
          "durationTicks": 38,
          "midi": 78,
          "name": "F#5",
          "ticks": 5047,
          "time": 16.38634725,
          "velocity": 0.23622047244094488
        },
        {
          "duration": 0.59415525,
          "durationTicks": 183,
          "midi": 78,
          "name": "F#5",
          "ticks": 5162,
          "time": 16.7597235,
          "velocity": 0.23622047244094488
        },
        {
          "duration": 0.5616877500000008,
          "durationTicks": 173,
          "midi": 81,
          "name": "A5",
          "ticks": 5162,
          "time": 16.7597235,
          "velocity": 0.4566929133858268
        },
        {
          "duration": 0.59415525,
          "durationTicks": 183,
          "midi": 73,
          "name": "C#5",
          "ticks": 5162,
          "time": 16.7597235,
          "velocity": 0.28346456692913385
        },
        {
          "duration": 0.6006487499999977,
          "durationTicks": 185,
          "midi": 69,
          "name": "A4",
          "ticks": 5162,
          "time": 16.7597235,
          "velocity": 0.31496062992125984
        },
        {
          "duration": 0.03896100000000047,
          "durationTicks": 12,
          "midi": 78,
          "name": "F#5",
          "ticks": 5405,
          "time": 17.54868375,
          "velocity": 0.25196850393700787
        },
        {
          "duration": 0.03896100000000047,
          "durationTicks": 12,
          "midi": 81,
          "name": "A5",
          "ticks": 5405,
          "time": 17.54868375,
          "velocity": 0.3779527559055118
        },
        {
          "duration": 0.04220774999999932,
          "durationTicks": 13,
          "midi": 73,
          "name": "C#5",
          "ticks": 5407,
          "time": 17.55517725,
          "velocity": 0.3464566929133858
        },
        {
          "duration": 0.048701250000000584,
          "durationTicks": 15,
          "midi": 69,
          "name": "A4",
          "ticks": 5407,
          "time": 17.55517725,
          "velocity": 0.3464566929133858
        },
        {
          "duration": 0.3896100000000011,
          "durationTicks": 120,
          "midi": 78,
          "name": "F#5",
          "ticks": 5525,
          "time": 17.93829375,
          "velocity": 0.2992125984251969
        },
        {
          "duration": 0.38311649999999986,
          "durationTicks": 118,
          "midi": 81,
          "name": "A5",
          "ticks": 5527,
          "time": 17.94478725,
          "velocity": 0.4409448818897638
        },
        {
          "duration": 0.38311649999999986,
          "durationTicks": 118,
          "midi": 73,
          "name": "C#5",
          "ticks": 5527,
          "time": 17.94478725,
          "velocity": 0.3779527559055118
        },
        {
          "duration": 0.38311649999999986,
          "durationTicks": 118,
          "midi": 69,
          "name": "A4",
          "ticks": 5527,
          "time": 17.94478725,
          "velocity": 0.3464566929133858
        },
        {
          "duration": 0.04870124999999703,
          "durationTicks": 15,
          "midi": 81,
          "name": "A5",
          "ticks": 5762,
          "time": 18.707773500000002,
          "velocity": 0.4251968503937008
        },
        {
          "duration": 0.07467524999999853,
          "durationTicks": 23,
          "midi": 78,
          "name": "F#5",
          "ticks": 5762,
          "time": 18.707773500000002,
          "velocity": 0.14960629921259844
        },
        {
          "duration": 0.08766225000000105,
          "durationTicks": 27,
          "midi": 72,
          "name": "C5",
          "ticks": 5765,
          "time": 18.71751375,
          "velocity": 0.14960629921259844
        },
        {
          "duration": 0.07142850000000323,
          "durationTicks": 22,
          "midi": 69,
          "name": "A4",
          "ticks": 5765,
          "time": 18.71751375,
          "velocity": 0.25196850393700787
        },
        {
          "duration": 0.07142850000000323,
          "durationTicks": 22,
          "midi": 81,
          "name": "A5",
          "ticks": 5885,
          "time": 19.10712375,
          "velocity": 0.3937007874015748
        },
        {
          "duration": 0.07142850000000323,
          "durationTicks": 22,
          "midi": 72,
          "name": "C5",
          "ticks": 5885,
          "time": 19.10712375,
          "velocity": 0.15748031496062992
        },
        {
          "duration": 0.08766225000000105,
          "durationTicks": 27,
          "midi": 78,
          "name": "F#5",
          "ticks": 5885,
          "time": 19.10712375,
          "velocity": 0.28346456692913385
        },
        {
          "duration": 0.08116874999999979,
          "durationTicks": 25,
          "midi": 69,
          "name": "A4",
          "ticks": 5887,
          "time": 19.11361725,
          "velocity": 0.36220472440944884
        },
        {
          "duration": 0.055194749999998294,
          "durationTicks": 17,
          "midi": 81,
          "name": "A5",
          "ticks": 6005,
          "time": 19.49673375,
          "velocity": 0.3937007874015748
        },
        {
          "duration": 0.055194749999998294,
          "durationTicks": 17,
          "midi": 78,
          "name": "F#5",
          "ticks": 6005,
          "time": 19.49673375,
          "velocity": 0.25196850393700787
        },
        {
          "duration": 0.058441500000004254,
          "durationTicks": 18,
          "midi": 72,
          "name": "C5",
          "ticks": 6007,
          "time": 19.50322725,
          "velocity": 0.15748031496062992
        },
        {
          "duration": 0.08116875000000334,
          "durationTicks": 25,
          "midi": 69,
          "name": "A4",
          "ticks": 6007,
          "time": 19.50322725,
          "velocity": 0.3779527559055118
        },
        {
          "duration": 0.5292202499999981,
          "durationTicks": 163,
          "midi": 78,
          "name": "F#5",
          "ticks": 6122,
          "time": 19.8766035,
          "velocity": 0.31496062992125984
        },
        {
          "duration": 0.46428524999999965,
          "durationTicks": 143,
          "midi": 81,
          "name": "A5",
          "ticks": 6122,
          "time": 19.8766035,
          "velocity": 0.4251968503937008
        },
        {
          "duration": 0.5357137499999993,
          "durationTicks": 165,
          "midi": 72,
          "name": "C5",
          "ticks": 6122,
          "time": 19.8766035,
          "velocity": 0.2125984251968504
        },
        {
          "duration": 0.5454539999999994,
          "durationTicks": 168,
          "midi": 69,
          "name": "A4",
          "ticks": 6122,
          "time": 19.8766035,
          "velocity": 0.3937007874015748
        },
        {
          "duration": 0.048701250000000584,
          "durationTicks": 15,
          "midi": 78,
          "name": "F#5",
          "ticks": 6365,
          "time": 20.66556375,
          "velocity": 0.31496062992125984
        },
        {
          "duration": 0.048701250000000584,
          "durationTicks": 15,
          "midi": 81,
          "name": "A5",
          "ticks": 6365,
          "time": 20.66556375,
          "velocity": 0.3779527559055118
        },
        {
          "duration": 0.06493500000000196,
          "durationTicks": 20,
          "midi": 72,
          "name": "C5",
          "ticks": 6367,
          "time": 20.672057249999998,
          "velocity": 0.15748031496062992
        },
        {
          "duration": 0.07467525000000208,
          "durationTicks": 23,
          "midi": 69,
          "name": "A4",
          "ticks": 6367,
          "time": 20.672057249999998,
          "velocity": 0.3779527559055118
        },
        {
          "duration": 0.379869750000001,
          "durationTicks": 117,
          "midi": 81,
          "name": "A5",
          "ticks": 6485,
          "time": 21.055173749999998,
          "velocity": 0.4094488188976378
        },
        {
          "duration": 0.38311649999999986,
          "durationTicks": 118,
          "midi": 78,
          "name": "F#5",
          "ticks": 6487,
          "time": 21.06166725,
          "velocity": 0.2677165354330709
        },
        {
          "duration": 0.38311649999999986,
          "durationTicks": 118,
          "midi": 72,
          "name": "C5",
          "ticks": 6487,
          "time": 21.06166725,
          "velocity": 0.1889763779527559
        },
        {
          "duration": 0.38311649999999986,
          "durationTicks": 118,
          "midi": 69,
          "name": "A4",
          "ticks": 6487,
          "time": 21.06166725,
          "velocity": 0.36220472440944884
        },
        {
          "duration": 0.5779215000000022,
          "durationTicks": 178,
          "midi": 71,
          "name": "B4",
          "ticks": 6722,
          "time": 21.8246535,
          "velocity": 0.4251968503937008
        },
        {
          "duration": 0.38311649999999986,
          "durationTicks": 118,
          "midi": 78,
          "name": "F#5",
          "ticks": 6722,
          "time": 21.8246535,
          "velocity": 0.4409448818897638
        },
        {
          "duration": 0.493506,
          "durationTicks": 152,
          "midi": 75,
          "name": "D#5",
          "ticks": 6725,
          "time": 21.83439375,
          "velocity": 0.36220472440944884
        },
        {
          "duration": 0.23376599999999925,
          "durationTicks": 72,
          "midi": 78,
          "name": "F#5",
          "ticks": 6905,
          "time": 22.41880875,
          "velocity": 0.3464566929133858
        },
        {
          "duration": 0.08116875000000334,
          "durationTicks": 25,
          "midi": 75,
          "name": "D#5",
          "ticks": 6965,
          "time": 22.61361375,
          "velocity": 0.2677165354330709
        },
        {
          "duration": 0.38311649999999986,
          "durationTicks": 118,
          "midi": 83,
          "name": "B5",
          "ticks": 7202,
          "time": 23.3830935,
          "velocity": 0.48031496062992124
        },
        {
          "duration": 0.3896100000000011,
          "durationTicks": 120,
          "midi": 75,
          "name": "D#5",
          "ticks": 7445,
          "time": 24.17205375,
          "velocity": 0.5196850393700787
        },
        {
          "duration": 0.12337649999999556,
          "durationTicks": 38,
          "midi": 71,
          "name": "B4",
          "ticks": 7682,
          "time": 24.941533500000002,
          "velocity": 0.4881889763779528
        },
        {
          "duration": 0.12337649999999556,
          "durationTicks": 38,
          "midi": 79,
          "name": "G5",
          "ticks": 7682,
          "time": 24.941533500000002,
          "velocity": 0.4409448818897638
        },
        {
          "duration": 0.11363624999999544,
          "durationTicks": 35,
          "midi": 76,
          "name": "E5",
          "ticks": 7685,
          "time": 24.951273750000002,
          "velocity": 0.4881889763779528
        },
        {
          "duration": 0.10389599999999888,
          "durationTicks": 32,
          "midi": 79,
          "name": "G5",
          "ticks": 7805,
          "time": 25.340883750000003,
          "velocity": 0.12598425196850394
        },
        {
          "duration": 0.11363624999999544,
          "durationTicks": 35,
          "midi": 76,
          "name": "E5",
          "ticks": 7805,
          "time": 25.340883750000003,
          "velocity": 0.4881889763779528
        },
        {
          "duration": 0.113636249999999,
          "durationTicks": 35,
          "midi": 71,
          "name": "B4",
          "ticks": 7807,
          "time": 25.34737725,
          "velocity": 0.31496062992125984
        },
        {
          "duration": 0.11363624999999544,
          "durationTicks": 35,
          "midi": 76,
          "name": "E5",
          "ticks": 7925,
          "time": 25.730493750000004,
          "velocity": 0.4251968503937008
        },
        {
          "duration": 0.59415525,
          "durationTicks": 183,
          "midi": 71,
          "name": "B4",
          "ticks": 8042,
          "time": 26.110363500000002,
          "velocity": 0.3228346456692913
        },
        {
          "duration": 0.6168824999999956,
          "durationTicks": 190,
          "midi": 79,
          "name": "G5",
          "ticks": 8042,
          "time": 26.110363500000002,
          "velocity": 0.3464566929133858
        },
        {
          "duration": 0.6168824999999956,
          "durationTicks": 190,
          "midi": 76,
          "name": "E5",
          "ticks": 8042,
          "time": 26.110363500000002,
          "velocity": 0.4094488188976378
        },
        {
          "duration": 0.11363624999999544,
          "durationTicks": 35,
          "midi": 79,
          "name": "G5",
          "ticks": 8285,
          "time": 26.899323750000004,
          "velocity": 0.2204724409448819
        },
        {
          "duration": 0.11363624999999544,
          "durationTicks": 35,
          "midi": 76,
          "name": "E5",
          "ticks": 8285,
          "time": 26.899323750000004,
          "velocity": 0.4094488188976378
        },
        {
          "duration": 0.10714274999999773,
          "durationTicks": 33,
          "midi": 71,
          "name": "B4",
          "ticks": 8287,
          "time": 26.905817250000002,
          "velocity": 0.3228346456692913
        },
        {
          "duration": 0.2110387499999966,
          "durationTicks": 65,
          "midi": 71,
          "name": "B4",
          "ticks": 8405,
          "time": 27.28893375,
          "velocity": 0.3779527559055118
        },
        {
          "duration": 0.21753224999999787,
          "durationTicks": 67,
          "midi": 79,
          "name": "G5",
          "ticks": 8405,
          "time": 27.28893375,
          "velocity": 0.4566929133858268
        },
        {
          "duration": 0.2110387499999966,
          "durationTicks": 65,
          "midi": 76,
          "name": "E5",
          "ticks": 8407,
          "time": 27.295427250000003,
          "velocity": 0.5511811023622047
        },
        {
          "duration": 0.07467524999999853,
          "durationTicks": 23,
          "midi": 71,
          "name": "B4",
          "ticks": 8642,
          "time": 28.0584135,
          "velocity": 0.4251968503937008
        },
        {
          "duration": 0.08116874999999979,
          "durationTicks": 25,
          "midi": 79,
          "name": "G5",
          "ticks": 8642,
          "time": 28.0584135,
          "velocity": 0.4094488188976378
        },
        {
          "duration": 0.08116874999999624,
          "durationTicks": 25,
          "midi": 76,
          "name": "E5",
          "ticks": 8645,
          "time": 28.068153750000004,
          "velocity": 0.4566929133858268
        },
        {
          "duration": 0.055194750000001847,
          "durationTicks": 17,
          "midi": 71,
          "name": "B4",
          "ticks": 8765,
          "time": 28.45776375,
          "velocity": 0.28346456692913385
        },
        {
          "duration": 0.08116874999999979,
          "durationTicks": 25,
          "midi": 79,
          "name": "G5",
          "ticks": 8765,
          "time": 28.45776375,
          "velocity": 0.3228346456692913
        },
        {
          "duration": 0.09740250000000117,
          "durationTicks": 30,
          "midi": 76,
          "name": "E5",
          "ticks": 8767,
          "time": 28.464257250000003,
          "velocity": 0.5039370078740157
        },
        {
          "duration": 0.06493499999999486,
          "durationTicks": 20,
          "midi": 79,
          "name": "G5",
          "ticks": 8885,
          "time": 28.847373750000003,
          "velocity": 0.31496062992125984
        },
        {
          "duration": 0.0876622499999975,
          "durationTicks": 27,
          "midi": 76,
          "name": "E5",
          "ticks": 8885,
          "time": 28.847373750000003,
          "velocity": 0.4094488188976378
        },
        {
          "duration": 0.5779215000000022,
          "durationTicks": 178,
          "midi": 71,
          "name": "B4",
          "ticks": 9002,
          "time": 29.2272435,
          "velocity": 0.3700787401574803
        },
        {
          "duration": 0.5844149999999999,
          "durationTicks": 180,
          "midi": 79,
          "name": "G5",
          "ticks": 9002,
          "time": 29.2272435,
          "velocity": 0.4094488188976378
        },
        {
          "duration": 0.6006487500000013,
          "durationTicks": 185,
          "midi": 76,
          "name": "E5",
          "ticks": 9002,
          "time": 29.2272435,
          "velocity": 0.5039370078740157
        },
        {
          "duration": 0.08116874999999979,
          "durationTicks": 25,
          "midi": 79,
          "name": "G5",
          "ticks": 9245,
          "time": 30.016203750000003,
          "velocity": 0.1968503937007874
        },
        {
          "duration": 0.09740250000000117,
          "durationTicks": 30,
          "midi": 71,
          "name": "B4",
          "ticks": 9245,
          "time": 30.016203750000003,
          "velocity": 0.25196850393700787
        },
        {
          "duration": 0.09740249999999762,
          "durationTicks": 30,
          "midi": 76,
          "name": "E5",
          "ticks": 9247,
          "time": 30.022697250000004,
          "velocity": 0.4566929133858268
        },
        {
          "duration": 0.1461037499999982,
          "durationTicks": 45,
          "midi": 71,
          "name": "B4",
          "ticks": 9365,
          "time": 30.405813750000004,
          "velocity": 0.4251968503937008
        },
        {
          "duration": 0.16883099999999374,
          "durationTicks": 52,
          "midi": 76,
          "name": "E5",
          "ticks": 9365,
          "time": 30.405813750000004,
          "velocity": 0.5039370078740157
        },
        {
          "duration": 0.12337649999999556,
          "durationTicks": 38,
          "midi": 73,
          "name": "C#5",
          "ticks": 9602,
          "time": 31.175293500000002,
          "velocity": 0.3779527559055118
        },
        {
          "duration": 0.09740250000000117,
          "durationTicks": 30,
          "midi": 76,
          "name": "E5",
          "ticks": 9605,
          "time": 31.185033750000002,
          "velocity": 0.4881889763779528
        },
        {
          "duration": 0.13636349999999808,
          "durationTicks": 42,
          "midi": 81,
          "name": "A5",
          "ticks": 9605,
          "time": 31.185033750000002,
          "velocity": 0.5039370078740157
        },
        {
          "duration": 0.07142849999999612,
          "durationTicks": 22,
          "midi": 73,
          "name": "C#5",
          "ticks": 9725,
          "time": 31.574643750000003,
          "velocity": 0.2440944881889764
        },
        {
          "duration": 0.10389599999999888,
          "durationTicks": 32,
          "midi": 81,
          "name": "A5",
          "ticks": 9725,
          "time": 31.574643750000003,
          "velocity": 0.2755905511811024
        },
        {
          "duration": 0.11363624999999544,
          "durationTicks": 35,
          "midi": 76,
          "name": "E5",
          "ticks": 9725,
          "time": 31.574643750000003,
          "velocity": 0.4881889763779528
        },
        {
          "duration": 0.1201297499999967,
          "durationTicks": 37,
          "midi": 73,
          "name": "C#5",
          "ticks": 9845,
          "time": 31.964253750000005,
          "velocity": 0.2283464566929134
        },
        {
          "duration": 0.10389599999999888,
          "durationTicks": 32,
          "midi": 76,
          "name": "E5",
          "ticks": 9845,
          "time": 31.964253750000005,
          "velocity": 0.47244094488188976
        },
        {
          "duration": 0.13961025000000404,
          "durationTicks": 43,
          "midi": 81,
          "name": "A5",
          "ticks": 9847,
          "time": 31.970747250000002,
          "velocity": 0.3543307086614173
        },
        {
          "duration": 0.5519474999999971,
          "durationTicks": 170,
          "midi": 73,
          "name": "C#5",
          "ticks": 9962,
          "time": 32.3441235,
          "velocity": 0.3779527559055118
        },
        {
          "duration": 0.5616877499999973,
          "durationTicks": 173,
          "midi": 76,
          "name": "E5",
          "ticks": 9962,
          "time": 32.3441235,
          "velocity": 0.5354330708661418
        },
        {
          "duration": 0.568181249999995,
          "durationTicks": 175,
          "midi": 81,
          "name": "A5",
          "ticks": 9962,
          "time": 32.3441235,
          "velocity": 0.4094488188976378
        },
        {
          "duration": 0.0649349999999913,
          "durationTicks": 20,
          "midi": 73,
          "name": "C#5",
          "ticks": 10205,
          "time": 33.133083750000004,
          "velocity": 0.1732283464566929
        },
        {
          "duration": 0.08766224999999395,
          "durationTicks": 27,
          "midi": 81,
          "name": "A5",
          "ticks": 10205,
          "time": 33.133083750000004,
          "velocity": 0.33858267716535434
        },
        {
          "duration": 0.08766224999999395,
          "durationTicks": 27,
          "midi": 76,
          "name": "E5",
          "ticks": 10205,
          "time": 33.133083750000004,
          "velocity": 0.4566929133858268
        },
        {
          "duration": 0.2824672499999963,
          "durationTicks": 87,
          "midi": 73,
          "name": "C#5",
          "ticks": 10325,
          "time": 33.52269375,
          "velocity": 0.3464566929133858
        },
        {
          "duration": 0.20129850000000005,
          "durationTicks": 62,
          "midi": 81,
          "name": "A5",
          "ticks": 10325,
          "time": 33.52269375,
          "velocity": 0.4251968503937008
        },
        {
          "duration": 0.25324650000000304,
          "durationTicks": 78,
          "midi": 76,
          "name": "E5",
          "ticks": 10327,
          "time": 33.52918725,
          "velocity": 0.5511811023622047
        },
        {
          "duration": 0.5616877499999973,
          "durationTicks": 173,
          "midi": 79,
          "name": "G5",
          "ticks": 10562,
          "time": 34.292173500000004,
          "velocity": 0.5039370078740157
        },
        {
          "duration": 0.6168824999999956,
          "durationTicks": 190,
          "midi": 74,
          "name": "D5",
          "ticks": 10562,
          "time": 34.292173500000004,
          "velocity": 0.4251968503937008
        },
        {
          "duration": 0.5357137499999993,
          "durationTicks": 165,
          "midi": 78,
          "name": "F#5",
          "ticks": 10805,
          "time": 35.081133750000006,
          "velocity": 0.5039370078740157
        },
        {
          "duration": 0.5844149999999999,
          "durationTicks": 180,
          "midi": 74,
          "name": "D5",
          "ticks": 10805,
          "time": 35.081133750000006,
          "velocity": 0.3464566929133858
        },
        {
          "duration": 0.07467524999999853,
          "durationTicks": 23,
          "midi": 78,
          "name": "F#5",
          "ticks": 11042,
          "time": 35.8506135,
          "velocity": 0.4015748031496063
        },
        {
          "duration": 0.07467524999999853,
          "durationTicks": 23,
          "midi": 74,
          "name": "D5",
          "ticks": 11042,
          "time": 35.8506135,
          "velocity": 0.25196850393700787
        },
        {
          "duration": 0.09740249999999406,
          "durationTicks": 30,
          "midi": 78,
          "name": "F#5",
          "ticks": 11165,
          "time": 36.249963750000006,
          "velocity": 0.3700787401574803
        },
        {
          "duration": 0.08116874999999624,
          "durationTicks": 25,
          "midi": 74,
          "name": "D5",
          "ticks": 11165,
          "time": 36.249963750000006,
          "velocity": 0.25196850393700787
        },
        {
          "duration": 0.10389599999999888,
          "durationTicks": 32,
          "midi": 78,
          "name": "F#5",
          "ticks": 11285,
          "time": 36.639573750000004,
          "velocity": 0.4251968503937008
        },
        {
          "duration": 0.08766224999999395,
          "durationTicks": 27,
          "midi": 74,
          "name": "D5",
          "ticks": 11285,
          "time": 36.639573750000004,
          "velocity": 0.25984251968503935
        },
        {
          "duration": 0.08116874999999624,
          "durationTicks": 25,
          "midi": 78,
          "name": "F#5",
          "ticks": 11525,
          "time": 37.418793750000006,
          "velocity": 0.4251968503937008
        },
        {
          "duration": 0.09740249999999406,
          "durationTicks": 30,
          "midi": 74,
          "name": "D5",
          "ticks": 11525,
          "time": 37.418793750000006,
          "velocity": 0.3779527559055118
        },
        {
          "duration": 0.09090899999999635,
          "durationTicks": 28,
          "midi": 81,
          "name": "A5",
          "ticks": 11527,
          "time": 37.425287250000004,
          "velocity": 0.2992125984251969
        },
        {
          "duration": 0.1201297499999967,
          "durationTicks": 37,
          "midi": 78,
          "name": "F#5",
          "ticks": 11645,
          "time": 37.808403750000004,
          "velocity": 0.3937007874015748
        },
        {
          "duration": 0.1201297499999967,
          "durationTicks": 37,
          "midi": 74,
          "name": "D5",
          "ticks": 11645,
          "time": 37.808403750000004,
          "velocity": 0.2677165354330709
        },
        {
          "duration": 0.12986999999999682,
          "durationTicks": 40,
          "midi": 81,
          "name": "A5",
          "ticks": 11647,
          "time": 37.81489725,
          "velocity": 0.2992125984251969
        },
        {
          "duration": 0.10389599999999888,
          "durationTicks": 32,
          "midi": 78,
          "name": "F#5",
          "ticks": 11765,
          "time": 38.19801375,
          "velocity": 0.36220472440944884
        },
        {
          "duration": 0.10389599999999888,
          "durationTicks": 32,
          "midi": 81,
          "name": "A5",
          "ticks": 11765,
          "time": 38.19801375,
          "velocity": 0.25984251968503935
        },
        {
          "duration": 0.10389599999999888,
          "durationTicks": 32,
          "midi": 74,
          "name": "D5",
          "ticks": 11765,
          "time": 38.19801375,
          "velocity": 0.29133858267716534
        },
        {
          "duration": 0.5129865000000038,
          "durationTicks": 158,
          "midi": 74,
          "name": "D5",
          "ticks": 11882,
          "time": 38.5778835,
          "velocity": 0.31496062992125984
        },
        {
          "duration": 0.5616877499999973,
          "durationTicks": 173,
          "midi": 78,
          "name": "F#5",
          "ticks": 11882,
          "time": 38.5778835,
          "velocity": 0.4251968503937008
        },
        {
          "duration": 0.5292202500000016,
          "durationTicks": 163,
          "midi": 81,
          "name": "A5",
          "ticks": 11882,
          "time": 38.5778835,
          "velocity": 0.4094488188976378
        },
        {
          "duration": 0.13636350000000164,
          "durationTicks": 42,
          "midi": 78,
          "name": "F#5",
          "ticks": 12125,
          "time": 39.36684375,
          "velocity": 0.2992125984251969
        },
        {
          "duration": 0.14610375000000175,
          "durationTicks": 45,
          "midi": 81,
          "name": "A5",
          "ticks": 12125,
          "time": 39.36684375,
          "velocity": 0.2440944881889764
        },
        {
          "duration": 0.13961024999999694,
          "durationTicks": 43,
          "midi": 73,
          "name": "C#5",
          "ticks": 12127,
          "time": 39.373337250000006,
          "velocity": 0.31496062992125984
        },
        {
          "duration": 0.4707787499999938,
          "durationTicks": 145,
          "midi": 81,
          "name": "A5",
          "ticks": 12245,
          "time": 39.756453750000006,
          "velocity": 0.2992125984251969
        },
        {
          "duration": 0.4220774999999932,
          "durationTicks": 130,
          "midi": 73,
          "name": "C#5",
          "ticks": 12245,
          "time": 39.756453750000006,
          "velocity": 0.31496062992125984
        },
        {
          "duration": 0.48701249999999874,
          "durationTicks": 150,
          "midi": 78,
          "name": "F#5",
          "ticks": 12247,
          "time": 39.76294725,
          "velocity": 0.3779527559055118
        },
        {
          "duration": 0.09740250000000117,
          "durationTicks": 30,
          "midi": 78,
          "name": "F#5",
          "ticks": 12482,
          "time": 40.5259335,
          "velocity": 0.2755905511811024
        },
        {
          "duration": 0.14610375000000175,
          "durationTicks": 45,
          "midi": 81,
          "name": "A5",
          "ticks": 12482,
          "time": 40.5259335,
          "velocity": 0.29133858267716534
        },
        {
          "duration": 0.13961025000000404,
          "durationTicks": 43,
          "midi": 72,
          "name": "C5",
          "ticks": 12482,
          "time": 40.5259335,
          "velocity": 0.14960629921259844
        },
        {
          "duration": 0.1201297499999967,
          "durationTicks": 37,
          "midi": 72,
          "name": "C5",
          "ticks": 12605,
          "time": 40.925283750000006,
          "velocity": 0.14960629921259844
        },
        {
          "duration": 0.12986999999999682,
          "durationTicks": 40,
          "midi": 78,
          "name": "F#5",
          "ticks": 12605,
          "time": 40.925283750000006,
          "velocity": 0.25984251968503935
        },
        {
          "duration": 0.12337649999999911,
          "durationTicks": 38,
          "midi": 81,
          "name": "A5",
          "ticks": 12607,
          "time": 40.93177725,
          "velocity": 0.2125984251968504
        },
        {
          "duration": 0.10389599999999888,
          "durationTicks": 32,
          "midi": 78,
          "name": "F#5",
          "ticks": 12725,
          "time": 41.31489375,
          "velocity": 0.4251968503937008
        },
        {
          "duration": 0.1201297499999967,
          "durationTicks": 37,
          "midi": 72,
          "name": "C5",
          "ticks": 12725,
          "time": 41.31489375,
          "velocity": 0.2125984251968504
        },
        {
          "duration": 0.113636249999999,
          "durationTicks": 35,
          "midi": 81,
          "name": "A5",
          "ticks": 12725,
          "time": 41.31489375,
          "velocity": 0.2992125984251969
        },
        {
          "duration": 0.4610385000000008,
          "durationTicks": 142,
          "midi": 72,
          "name": "C5",
          "ticks": 12840,
          "time": 41.68827,
          "velocity": 0.13385826771653545
        },
        {
          "duration": 0.43831124999999815,
          "durationTicks": 135,
          "midi": 78,
          "name": "F#5",
          "ticks": 12840,
          "time": 41.68827,
          "velocity": 0.4251968503937008
        },
        {
          "duration": 0.49675275000000596,
          "durationTicks": 153,
          "midi": 81,
          "name": "A5",
          "ticks": 12842,
          "time": 41.6947635,
          "velocity": 0.3779527559055118
        },
        {
          "duration": 0.16233749999999958,
          "durationTicks": 50,
          "midi": 81,
          "name": "A5",
          "ticks": 13085,
          "time": 42.48372375,
          "velocity": 0.2992125984251969
        },
        {
          "duration": 0.1785712499999974,
          "durationTicks": 55,
          "midi": 75,
          "name": "D#5",
          "ticks": 13085,
          "time": 42.48372375,
          "velocity": 0.14960629921259844
        },
        {
          "duration": 0.1785712499999974,
          "durationTicks": 55,
          "midi": 72,
          "name": "C5",
          "ticks": 13087,
          "time": 42.49021725,
          "velocity": 0.13385826771653545
        },
        {
          "duration": 0.5357137499999993,
          "durationTicks": 165,
          "midi": 81,
          "name": "A5",
          "ticks": 13205,
          "time": 42.87333375,
          "velocity": 0.47244094488188976
        },
        {
          "duration": 0.5357137499999993,
          "durationTicks": 165,
          "midi": 75,
          "name": "D#5",
          "ticks": 13205,
          "time": 42.87333375,
          "velocity": 0.33070866141732286
        },
        {
          "duration": 0.5357137499999993,
          "durationTicks": 165,
          "midi": 72,
          "name": "C5",
          "ticks": 13207,
          "time": 42.879827250000005,
          "velocity": 0.31496062992125984
        },
        {
          "duration": 0.04220774999999577,
          "durationTicks": 13,
          "midi": 71,
          "name": "B4",
          "ticks": 13442,
          "time": 43.6428135,
          "velocity": 0.3228346456692913
        },
        {
          "duration": 0.12986999999999682,
          "durationTicks": 40,
          "midi": 79,
          "name": "G5",
          "ticks": 13442,
          "time": 43.6428135,
          "velocity": 0.4251968503937008
        },
        {
          "duration": 0.10389599999999888,
          "durationTicks": 32,
          "midi": 74,
          "name": "D5",
          "ticks": 13445,
          "time": 43.65255375,
          "velocity": 0.29133858267716534
        },
        {
          "duration": 0.048701250000000584,
          "durationTicks": 15,
          "midi": 71,
          "name": "B4",
          "ticks": 13565,
          "time": 44.04216375,
          "velocity": 0.3937007874015748
        },
        {
          "duration": 0.04220774999999577,
          "durationTicks": 13,
          "midi": 67,
          "name": "G4",
          "ticks": 13567,
          "time": 44.048657250000005,
          "velocity": 0.18110236220472442
        },
        {
          "duration": 0.09090899999999635,
          "durationTicks": 28,
          "midi": 79,
          "name": "G5",
          "ticks": 13567,
          "time": 44.048657250000005,
          "velocity": 0.31496062992125984
        },
        {
          "duration": 0.11363624999999189,
          "durationTicks": 35,
          "midi": 74,
          "name": "D5",
          "ticks": 13567,
          "time": 44.048657250000005,
          "velocity": 0.25984251968503935
        },
        {
          "duration": 0.03246749999999565,
          "durationTicks": 10,
          "midi": 67,
          "name": "G4",
          "ticks": 13685,
          "time": 44.431773750000005,
          "velocity": 0.1968503937007874
        },
        {
          "duration": 0.03246749999999565,
          "durationTicks": 10,
          "midi": 71,
          "name": "B4",
          "ticks": 13687,
          "time": 44.43826725,
          "velocity": 0.3464566929133858
        },
        {
          "duration": 0.09740250000000117,
          "durationTicks": 30,
          "midi": 79,
          "name": "G5",
          "ticks": 13687,
          "time": 44.43826725,
          "velocity": 0.33858267716535434
        },
        {
          "duration": 0.09090900000000346,
          "durationTicks": 28,
          "midi": 74,
          "name": "D5",
          "ticks": 13687,
          "time": 44.43826725,
          "velocity": 0.2283464566929134
        },
        {
          "duration": 0.04870124999999348,
          "durationTicks": 15,
          "midi": 67,
          "name": "G4",
          "ticks": 13800,
          "time": 44.805150000000005,
          "velocity": 0.2283464566929134
        },
        {
          "duration": 0.048701250000000584,
          "durationTicks": 15,
          "midi": 71,
          "name": "B4",
          "ticks": 13802,
          "time": 44.8116435,
          "velocity": 0.4251968503937008
        },
        {
          "duration": 0.12986999999999682,
          "durationTicks": 40,
          "midi": 79,
          "name": "G5",
          "ticks": 13802,
          "time": 44.8116435,
          "velocity": 0.30708661417322836
        },
        {
          "duration": 0.13961024999999694,
          "durationTicks": 43,
          "midi": 74,
          "name": "D5",
          "ticks": 13802,
          "time": 44.8116435,
          "velocity": 0.28346456692913385
        },
        {
          "duration": 0.048701250000000584,
          "durationTicks": 15,
          "midi": 67,
          "name": "G4",
          "ticks": 13920,
          "time": 45.19476,
          "velocity": 0.1889763779527559
        },
        {
          "duration": 0.0584415000000007,
          "durationTicks": 18,
          "midi": 71,
          "name": "B4",
          "ticks": 13922,
          "time": 45.2012535,
          "velocity": 0.3464566929133858
        },
        {
          "duration": 0.14610375000000175,
          "durationTicks": 45,
          "midi": 78,
          "name": "F#5",
          "ticks": 13922,
          "time": 45.2012535,
          "velocity": 0.3779527559055118
        },
        {
          "duration": 0.1136362500000061,
          "durationTicks": 35,
          "midi": 74,
          "name": "D5",
          "ticks": 13922,
          "time": 45.2012535,
          "velocity": 0.2283464566929134
        },
        {
          "duration": 0.055194749999998294,
          "durationTicks": 17,
          "midi": 67,
          "name": "G4",
          "ticks": 14045,
          "time": 45.600603750000005,
          "velocity": 0.2283464566929134
        },
        {
          "duration": 0.0649349999999913,
          "durationTicks": 20,
          "midi": 71,
          "name": "B4",
          "ticks": 14045,
          "time": 45.600603750000005,
          "velocity": 0.3543307086614173
        },
        {
          "duration": 0.12337649999999911,
          "durationTicks": 38,
          "midi": 74,
          "name": "D5",
          "ticks": 14047,
          "time": 45.60709725,
          "velocity": 0.2440944881889764
        },
        {
          "duration": 0.14610375000000175,
          "durationTicks": 45,
          "midi": 78,
          "name": "F#5",
          "ticks": 14047,
          "time": 45.60709725,
          "velocity": 0.4251968503937008
        },
        {
          "duration": 0.048701250000000584,
          "durationTicks": 15,
          "midi": 71,
          "name": "B4",
          "ticks": 14165,
          "time": 45.99021375,
          "velocity": 0.3937007874015748
        },
        {
          "duration": 0.048701250000000584,
          "durationTicks": 15,
          "midi": 67,
          "name": "G4",
          "ticks": 14165,
          "time": 45.99021375,
          "velocity": 0.2440944881889764
        },
        {
          "duration": 0.13636350000000164,
          "durationTicks": 42,
          "midi": 78,
          "name": "F#5",
          "ticks": 14165,
          "time": 45.99021375,
          "velocity": 0.3779527559055118
        },
        {
          "duration": 0.12987000000000393,
          "durationTicks": 40,
          "midi": 74,
          "name": "D5",
          "ticks": 14167,
          "time": 45.99670725,
          "velocity": 0.25196850393700787
        },
        {
          "duration": 0.08766224999999395,
          "durationTicks": 27,
          "midi": 71,
          "name": "B4",
          "ticks": 14280,
          "time": 46.36359,
          "velocity": 0.4566929133858268
        },
        {
          "duration": 0.12337649999999911,
          "durationTicks": 38,
          "midi": 67,
          "name": "G4",
          "ticks": 14282,
          "time": 46.3700835,
          "velocity": 0.25196850393700787
        },
        {
          "duration": 0.13961025000000404,
          "durationTicks": 43,
          "midi": 78,
          "name": "F#5",
          "ticks": 14282,
          "time": 46.3700835,
          "velocity": 0.4409448818897638
        },
        {
          "duration": 0.5519475000000043,
          "durationTicks": 170,
          "midi": 74,
          "name": "D5",
          "ticks": 14282,
          "time": 46.3700835,
          "velocity": 0.3464566929133858
        },
        {
          "duration": 0.18831149999999752,
          "durationTicks": 58,
          "midi": 76,
          "name": "E5",
          "ticks": 14402,
          "time": 46.759693500000004,
          "velocity": 0.4251968503937008
        },
        {
          "duration": 0.10714275000000129,
          "durationTicks": 33,
          "midi": 67,
          "name": "G4",
          "ticks": 14402,
          "time": 46.759693500000004,
          "velocity": 0.31496062992125984
        },
        {
          "duration": 0.15259724999999946,
          "durationTicks": 47,
          "midi": 70,
          "name": "A#4",
          "ticks": 14405,
          "time": 46.769433750000005,
          "velocity": 0.2204724409448819
        },
        {
          "duration": 0.08766225000000105,
          "durationTicks": 27,
          "midi": 70,
          "name": "A#4",
          "ticks": 14525,
          "time": 47.15904375,
          "velocity": 0.14960629921259844
        },
        {
          "duration": 0.1688309999999973,
          "durationTicks": 52,
          "midi": 76,
          "name": "E5",
          "ticks": 14525,
          "time": 47.15904375,
          "velocity": 0.5826771653543307
        },
        {
          "duration": 0.1201297499999967,
          "durationTicks": 37,
          "midi": 74,
          "name": "D5",
          "ticks": 14525,
          "time": 47.15904375,
          "velocity": 0.25984251968503935
        },
        {
          "duration": 0.03896099999999336,
          "durationTicks": 12,
          "midi": 67,
          "name": "G4",
          "ticks": 14645,
          "time": 47.54865375000001,
          "velocity": 0.18110236220472442
        },
        {
          "duration": 0.07142849999998901,
          "durationTicks": 22,
          "midi": 70,
          "name": "A#4",
          "ticks": 14645,
          "time": 47.54865375000001,
          "velocity": 0.14960629921259844
        },
        {
          "duration": 0.09740250000000117,
          "durationTicks": 30,
          "midi": 74,
          "name": "D5",
          "ticks": 14647,
          "time": 47.555147250000005,
          "velocity": 0.3228346456692913
        },
        {
          "duration": 0.14610375000000175,
          "durationTicks": 45,
          "midi": 76,
          "name": "E5",
          "ticks": 14647,
          "time": 47.555147250000005,
          "velocity": 0.3543307086614173
        },
        {
          "duration": 0.09090899999999635,
          "durationTicks": 28,
          "midi": 70,
          "name": "A#4",
          "ticks": 14762,
          "time": 47.928523500000004,
          "velocity": 0.14960629921259844
        },
        {
          "duration": 0.22077899999999318,
          "durationTicks": 68,
          "midi": 76,
          "name": "E5",
          "ticks": 14762,
          "time": 47.928523500000004,
          "velocity": 0.5511811023622047
        },
        {
          "duration": 0.12986999999999682,
          "durationTicks": 40,
          "midi": 74,
          "name": "D5",
          "ticks": 14762,
          "time": 47.928523500000004,
          "velocity": 0.15748031496062992
        },
        {
          "duration": 0.08766224999999395,
          "durationTicks": 27,
          "midi": 67,
          "name": "G4",
          "ticks": 14880,
          "time": 48.311640000000004,
          "velocity": 0.2125984251968504
        },
        {
          "duration": 0.042207750000002875,
          "durationTicks": 13,
          "midi": 76,
          "name": "E5",
          "ticks": 14882,
          "time": 48.3181335,
          "velocity": 0.33858267716535434
        },
        {
          "duration": 0.113636249999999,
          "durationTicks": 35,
          "midi": 70,
          "name": "A#4",
          "ticks": 14882,
          "time": 48.3181335,
          "velocity": 0.14960629921259844
        },
        {
          "duration": 0.14610375000000175,
          "durationTicks": 45,
          "midi": 74,
          "name": "D5",
          "ticks": 14882,
          "time": 48.3181335,
          "velocity": 0.30708661417322836
        },
        {
          "duration": 0.16233749999999958,
          "durationTicks": 50,
          "midi": 82,
          "name": "A#5",
          "ticks": 14882,
          "time": 48.3181335,
          "velocity": 0.1968503937007874
        },
        {
          "duration": 0.09740249999999406,
          "durationTicks": 30,
          "midi": 70,
          "name": "A#4",
          "ticks": 15005,
          "time": 48.71748375000001,
          "velocity": 0.15748031496062992
        },
        {
          "duration": 0.08116874999999624,
          "durationTicks": 25,
          "midi": 67,
          "name": "G4",
          "ticks": 15005,
          "time": 48.71748375000001,
          "velocity": 0.2125984251968504
        },
        {
          "duration": 0.10714274999999418,
          "durationTicks": 33,
          "midi": 74,
          "name": "D5",
          "ticks": 15007,
          "time": 48.723977250000004,
          "velocity": 0.2283464566929134
        },
        {
          "duration": 0.11363624999999189,
          "durationTicks": 35,
          "midi": 82,
          "name": "A#5",
          "ticks": 15007,
          "time": 48.723977250000004,
          "velocity": 0.15748031496062992
        },
        {
          "duration": 0.12337649999999911,
          "durationTicks": 38,
          "midi": 76,
          "name": "E5",
          "ticks": 15007,
          "time": 48.723977250000004,
          "velocity": 0.4566929133858268
        },
        {
          "duration": 0.44480474999999586,
          "durationTicks": 137,
          "midi": 67,
          "name": "G4",
          "ticks": 15125,
          "time": 49.107093750000004,
          "velocity": 0.29133858267716534
        },
        {
          "duration": 0.4772722499999986,
          "durationTicks": 147,
          "midi": 74,
          "name": "D5",
          "ticks": 15125,
          "time": 49.107093750000004,
          "velocity": 0.3464566929133858
        },
        {
          "duration": 0.4642852499999961,
          "durationTicks": 143,
          "midi": 76,
          "name": "E5",
          "ticks": 15127,
          "time": 49.11358725,
          "velocity": 0.5039370078740157
        },
        {
          "duration": 0.48051900000000103,
          "durationTicks": 148,
          "midi": 70,
          "name": "A#4",
          "ticks": 15127,
          "time": 49.11358725,
          "velocity": 0.1968503937007874
        },
        {
          "duration": 0.48051900000000103,
          "durationTicks": 148,
          "midi": 82,
          "name": "A#5",
          "ticks": 15127,
          "time": 49.11358725,
          "velocity": 0.3700787401574803
        },
        {
          "duration": 0.058441499999993596,
          "durationTicks": 18,
          "midi": 78,
          "name": "F#5",
          "ticks": 15362,
          "time": 49.876573500000006,
          "velocity": 0.5669291338582677
        },
        {
          "duration": 0.07467524999999853,
          "durationTicks": 23,
          "midi": 74,
          "name": "D5",
          "ticks": 15362,
          "time": 49.876573500000006,
          "velocity": 0.47244094488188976
        },
        {
          "duration": 0.08116875000000334,
          "durationTicks": 25,
          "midi": 81,
          "name": "A5",
          "ticks": 15365,
          "time": 49.88631375,
          "velocity": 0.5354330708661418
        },
        {
          "duration": 0.08116875000000334,
          "durationTicks": 25,
          "midi": 74,
          "name": "D5",
          "ticks": 15485,
          "time": 50.27592375,
          "velocity": 0.3543307086614173
        },
        {
          "duration": 0.09740250000000117,
          "durationTicks": 30,
          "midi": 78,
          "name": "F#5",
          "ticks": 15485,
          "time": 50.27592375,
          "velocity": 0.5354330708661418
        },
        {
          "duration": 0.06493499999999841,
          "durationTicks": 20,
          "midi": 81,
          "name": "A5",
          "ticks": 15487,
          "time": 50.28241725,
          "velocity": 0.33858267716535434
        },
        {
          "duration": 0.08116875000001045,
          "durationTicks": 25,
          "midi": 74,
          "name": "D5",
          "ticks": 15605,
          "time": 50.665533749999994,
          "velocity": 0.3228346456692913
        },
        {
          "duration": 0.08766225000001526,
          "durationTicks": 27,
          "midi": 81,
          "name": "A5",
          "ticks": 15605,
          "time": 50.665533749999994,
          "velocity": 0.33858267716535434
        },
        {
          "duration": 0.10714275000000129,
          "durationTicks": 33,
          "midi": 78,
          "name": "F#5",
          "ticks": 15607,
          "time": 50.672027250000006,
          "velocity": 0.47244094488188976
        },
        {
          "duration": 0.06493499999999841,
          "durationTicks": 20,
          "midi": 81,
          "name": "A5",
          "ticks": 15722,
          "time": 51.045403500000006,
          "velocity": 0.3228346456692913
        },
        {
          "duration": 0.07467524999999853,
          "durationTicks": 23,
          "midi": 74,
          "name": "D5",
          "ticks": 15722,
          "time": 51.045403500000006,
          "velocity": 0.29133858267716534
        },
        {
          "duration": 0.09740250000000117,
          "durationTicks": 30,
          "midi": 78,
          "name": "F#5",
          "ticks": 15722,
          "time": 51.045403500000006,
          "velocity": 0.4566929133858268
        },
        {
          "duration": 0.048701250000000584,
          "durationTicks": 15,
          "midi": 74,
          "name": "D5",
          "ticks": 15842,
          "time": 51.435013500000004,
          "velocity": 0.2440944881889764
        },
        {
          "duration": 0.06493499999999841,
          "durationTicks": 20,
          "midi": 81,
          "name": "A5",
          "ticks": 15842,
          "time": 51.435013500000004,
          "velocity": 0.4094488188976378
        },
        {
          "duration": 0.07467524999999853,
          "durationTicks": 23,
          "midi": 78,
          "name": "F#5",
          "ticks": 15842,
          "time": 51.435013500000004,
          "velocity": 0.4409448818897638
        },
        {
          "duration": 0.04870124999999348,
          "durationTicks": 15,
          "midi": 81,
          "name": "A5",
          "ticks": 15965,
          "time": 51.83436375,
          "velocity": 0.2992125984251969
        },
        {
          "duration": 0.07142849999999612,
          "durationTicks": 22,
          "midi": 74,
          "name": "D5",
          "ticks": 15965,
          "time": 51.83436375,
          "velocity": 0.30708661417322836
        },
        {
          "duration": 0.0649349999999913,
          "durationTicks": 20,
          "midi": 78,
          "name": "F#5",
          "ticks": 15967,
          "time": 51.840857250000006,
          "velocity": 0.4881889763779528
        },
        {
          "duration": 0.048701250000000584,
          "durationTicks": 15,
          "midi": 81,
          "name": "A5",
          "ticks": 16085,
          "time": 52.22397375,
          "velocity": 0.2755905511811024
        },
        {
          "duration": 0.07142850000000323,
          "durationTicks": 22,
          "midi": 74,
          "name": "D5",
          "ticks": 16085,
          "time": 52.22397375,
          "velocity": 0.29133858267716534
        },
        {
          "duration": 0.08116875000000334,
          "durationTicks": 25,
          "midi": 78,
          "name": "F#5",
          "ticks": 16087,
          "time": 52.230467250000004,
          "velocity": 0.4409448818897638
        },
        {
          "duration": 0.048701250000000584,
          "durationTicks": 15,
          "midi": 74,
          "name": "D5",
          "ticks": 16202,
          "time": 52.6038435,
          "velocity": 0.2755905511811024
        },
        {
          "duration": 0.07467524999999853,
          "durationTicks": 23,
          "midi": 78,
          "name": "F#5",
          "ticks": 16202,
          "time": 52.6038435,
          "velocity": 0.4566929133858268
        },
        {
          "duration": 0.06493499999999841,
          "durationTicks": 20,
          "midi": 83,
          "name": "B5",
          "ticks": 16322,
          "time": 52.99345350000001,
          "velocity": 0.3779527559055118
        },
        {
          "duration": 0.06493499999999841,
          "durationTicks": 20,
          "midi": 74,
          "name": "D5",
          "ticks": 16322,
          "time": 52.99345350000001,
          "velocity": 0.2677165354330709
        },
        {
          "duration": 0.08116874999998913,
          "durationTicks": 25,
          "midi": 79,
          "name": "G5",
          "ticks": 16322,
          "time": 52.99345350000001,
          "velocity": 0.3779527559055118
        },
        {
          "duration": 0.06493500000000552,
          "durationTicks": 20,
          "midi": 74,
          "name": "D5",
          "ticks": 16445,
          "time": 53.39280375,
          "velocity": 0.2440944881889764
        },
        {
          "duration": 0.07142850000000323,
          "durationTicks": 22,
          "midi": 83,
          "name": "B5",
          "ticks": 16445,
          "time": 53.39280375,
          "velocity": 0.3228346456692913
        },
        {
          "duration": 0.08116875000000334,
          "durationTicks": 25,
          "midi": 79,
          "name": "G5",
          "ticks": 16445,
          "time": 53.39280375,
          "velocity": 0.4409448818897638
        },
        {
          "duration": 0.07142850000000323,
          "durationTicks": 22,
          "midi": 74,
          "name": "D5",
          "ticks": 16565,
          "time": 53.782413749999996,
          "velocity": 0.29133858267716534
        },
        {
          "duration": 0.07142850000000323,
          "durationTicks": 22,
          "midi": 83,
          "name": "B5",
          "ticks": 16565,
          "time": 53.782413749999996,
          "velocity": 0.4094488188976378
        },
        {
          "duration": 0.08116875000000334,
          "durationTicks": 25,
          "midi": 79,
          "name": "G5",
          "ticks": 16567,
          "time": 53.78890725,
          "velocity": 0.4409448818897638
        },
        {
          "duration": 0.048701250000000584,
          "durationTicks": 15,
          "midi": 74,
          "name": "D5",
          "ticks": 16682,
          "time": 54.16228350000001,
          "velocity": 0.3543307086614173
        },
        {
          "duration": 0.04220774999999577,
          "durationTicks": 13,
          "midi": 83,
          "name": "B5",
          "ticks": 16682,
          "time": 54.16228350000001,
          "velocity": 0.3779527559055118
        },
        {
          "duration": 0.06493499999999841,
          "durationTicks": 20,
          "midi": 79,
          "name": "G5",
          "ticks": 16682,
          "time": 54.16228350000001,
          "velocity": 0.4566929133858268
        },
        {
          "duration": 0.03896100000000047,
          "durationTicks": 12,
          "midi": 83,
          "name": "B5",
          "ticks": 16800,
          "time": 54.5454,
          "velocity": 0.2440944881889764
        },
        {
          "duration": 0.048701250000000584,
          "durationTicks": 15,
          "midi": 74,
          "name": "D5",
          "ticks": 16802,
          "time": 54.551893500000006,
          "velocity": 0.2755905511811024
        },
        {
          "duration": 0.06493499999999841,
          "durationTicks": 20,
          "midi": 79,
          "name": "G5",
          "ticks": 16802,
          "time": 54.551893500000006,
          "velocity": 0.4409448818897638
        },
        {
          "duration": 0.03246750000000276,
          "durationTicks": 10,
          "midi": 83,
          "name": "B5",
          "ticks": 16925,
          "time": 54.951243749999996,
          "velocity": 0.3228346456692913
        },
        {
          "duration": 0.048701250000000584,
          "durationTicks": 15,
          "midi": 79,
          "name": "G5",
          "ticks": 16927,
          "time": 54.95773725,
          "velocity": 0.4251968503937008
        },
        {
          "duration": 0.06493499999999841,
          "durationTicks": 20,
          "midi": 74,
          "name": "D5",
          "ticks": 16927,
          "time": 54.95773725,
          "velocity": 0.30708661417322836
        },
        {
          "duration": 0.048701250000000584,
          "durationTicks": 15,
          "midi": 83,
          "name": "B5",
          "ticks": 17045,
          "time": 55.34085375,
          "velocity": 0.4409448818897638
        },
        {
          "duration": 0.048701250000000584,
          "durationTicks": 15,
          "midi": 79,
          "name": "G5",
          "ticks": 17045,
          "time": 55.34085375,
          "velocity": 0.4251968503937008
        },
        {
          "duration": 0.0649349999999913,
          "durationTicks": 20,
          "midi": 74,
          "name": "D5",
          "ticks": 17047,
          "time": 55.347347250000006,
          "velocity": 0.3543307086614173
        },
        {
          "duration": 0.06493499999999841,
          "durationTicks": 20,
          "midi": 74,
          "name": "D5",
          "ticks": 17160,
          "time": 55.71423,
          "velocity": 0.30708661417322836
        },
        {
          "duration": 0.06493499999999841,
          "durationTicks": 20,
          "midi": 83,
          "name": "B5",
          "ticks": 17162,
          "time": 55.720723500000005,
          "velocity": 0.4409448818897638
        },
        {
          "duration": 0.07467524999999853,
          "durationTicks": 23,
          "midi": 79,
          "name": "G5",
          "ticks": 17162,
          "time": 55.720723500000005,
          "velocity": 0.4409448818897638
        },
        {
          "duration": 0.07467524999999853,
          "durationTicks": 23,
          "midi": 83,
          "name": "B5",
          "ticks": 17282,
          "time": 56.11033350000001,
          "velocity": 0.4094488188976378
        },
        {
          "duration": 0.07467524999999853,
          "durationTicks": 23,
          "midi": 74,
          "name": "D5",
          "ticks": 17282,
          "time": 56.11033350000001,
          "velocity": 0.33070866141732286
        },
        {
          "duration": 0.08116874999998913,
          "durationTicks": 25,
          "midi": 79,
          "name": "G5",
          "ticks": 17282,
          "time": 56.11033350000001,
          "velocity": 0.47244094488188976
        },
        {
          "duration": 0.048701250000000584,
          "durationTicks": 15,
          "midi": 83,
          "name": "B5",
          "ticks": 17405,
          "time": 56.50968375,
          "velocity": 0.18110236220472442
        },
        {
          "duration": 0.0551947500000054,
          "durationTicks": 17,
          "midi": 79,
          "name": "G5",
          "ticks": 17405,
          "time": 56.50968375,
          "velocity": 0.4094488188976378
        },
        {
          "duration": 0.07467524999999853,
          "durationTicks": 23,
          "midi": 74,
          "name": "D5",
          "ticks": 17407,
          "time": 56.516177250000005,
          "velocity": 0.2755905511811024
        },
        {
          "duration": 0.0551947500000054,
          "durationTicks": 17,
          "midi": 74,
          "name": "D5",
          "ticks": 17525,
          "time": 56.89929375,
          "velocity": 0.36220472440944884
        },
        {
          "duration": 0.06493500000000552,
          "durationTicks": 20,
          "midi": 83,
          "name": "B5",
          "ticks": 17525,
          "time": 56.89929375,
          "velocity": 0.4881889763779528
        },
        {
          "duration": 0.07142850000000323,
          "durationTicks": 22,
          "midi": 79,
          "name": "G5",
          "ticks": 17525,
          "time": 56.89929375,
          "velocity": 0.47244094488188976
        },
        {
          "duration": 0.042207749999988664,
          "durationTicks": 13,
          "midi": 83,
          "name": "B5",
          "ticks": 17642,
          "time": 57.27916350000001,
          "velocity": 0.30708661417322836
        },
        {
          "duration": 0.04870124999999348,
          "durationTicks": 15,
          "midi": 79,
          "name": "G5",
          "ticks": 17642,
          "time": 57.27916350000001,
          "velocity": 0.3779527559055118
        },
        {
          "duration": 0.09090899999998925,
          "durationTicks": 28,
          "midi": 74,
          "name": "D5",
          "ticks": 17642,
          "time": 57.27916350000001,
          "velocity": 0.29133858267716534
        },
        {
          "duration": 0.048701250000000584,
          "durationTicks": 15,
          "midi": 83,
          "name": "B5",
          "ticks": 17762,
          "time": 57.66877350000001,
          "velocity": 0.3937007874015748
        },
        {
          "duration": 0.058441499999993596,
          "durationTicks": 18,
          "midi": 79,
          "name": "G5",
          "ticks": 17762,
          "time": 57.66877350000001,
          "velocity": 0.3937007874015748
        },
        {
          "duration": 0.07467524999999853,
          "durationTicks": 23,
          "midi": 74,
          "name": "D5",
          "ticks": 17762,
          "time": 57.66877350000001,
          "velocity": 0.30708661417322836
        },
        {
          "duration": 0.048701250000000584,
          "durationTicks": 15,
          "midi": 79,
          "name": "G5",
          "ticks": 17885,
          "time": 58.06812375,
          "velocity": 0.36220472440944884
        },
        {
          "duration": 0.08766225000000816,
          "durationTicks": 27,
          "midi": 74,
          "name": "D5",
          "ticks": 17885,
          "time": 58.06812375,
          "velocity": 0.3543307086614173
        },
        {
          "duration": 0.07142850000000323,
          "durationTicks": 22,
          "midi": 83,
          "name": "B5",
          "ticks": 18005,
          "time": 58.457733749999996,
          "velocity": 0.3937007874015748
        },
        {
          "duration": 0.07142850000000323,
          "durationTicks": 22,
          "midi": 79,
          "name": "G5",
          "ticks": 18005,
          "time": 58.457733749999996,
          "velocity": 0.4094488188976378
        },
        {
          "duration": 0.10714275000000839,
          "durationTicks": 33,
          "midi": 74,
          "name": "D5",
          "ticks": 18007,
          "time": 58.46422725,
          "velocity": 0.30708661417322836
        },
        {
          "duration": 0.06493499999999841,
          "durationTicks": 20,
          "midi": 83,
          "name": "B5",
          "ticks": 18120,
          "time": 58.83111,
          "velocity": 0.3228346456692913
        },
        {
          "duration": 0.07467524999999853,
          "durationTicks": 23,
          "midi": 79,
          "name": "G5",
          "ticks": 18122,
          "time": 58.83760350000001,
          "velocity": 0.33070866141732286
        },
        {
          "duration": 0.09740250000000117,
          "durationTicks": 30,
          "midi": 74,
          "name": "D5",
          "ticks": 18122,
          "time": 58.83760350000001,
          "velocity": 0.29133858267716534
        },
        {
          "duration": 0.06493499999999841,
          "durationTicks": 20,
          "midi": 81,
          "name": "A5",
          "ticks": 18242,
          "time": 59.227213500000005,
          "velocity": 0.3779527559055118
        },
        {
          "duration": 0.09090899999999635,
          "durationTicks": 28,
          "midi": 78,
          "name": "F#5",
          "ticks": 18242,
          "time": 59.227213500000005,
          "velocity": 0.4881889763779528
        },
        {
          "duration": 0.09740250000000117,
          "durationTicks": 30,
          "midi": 74,
          "name": "D5",
          "ticks": 18245,
          "time": 59.23695375,
          "velocity": 0.33858267716535434
        },
        {
          "duration": 0.09740250000000117,
          "durationTicks": 30,
          "midi": 78,
          "name": "F#5",
          "ticks": 18365,
          "time": 59.626563749999995,
          "velocity": 0.3543307086614173
        },
        {
          "duration": 0.1136362500000132,
          "durationTicks": 35,
          "midi": 74,
          "name": "D5",
          "ticks": 18365,
          "time": 59.626563749999995,
          "velocity": 0.1968503937007874
        },
        {
          "duration": 0.03896100000000757,
          "durationTicks": 12,
          "midi": 81,
          "name": "A5",
          "ticks": 18485,
          "time": 60.01617375,
          "velocity": 0.33858267716535434
        },
        {
          "duration": 0.0551947500000054,
          "durationTicks": 17,
          "midi": 78,
          "name": "F#5",
          "ticks": 18485,
          "time": 60.01617375,
          "velocity": 0.4094488188976378
        },
        {
          "duration": 0.08116875000000334,
          "durationTicks": 25,
          "midi": 74,
          "name": "D5",
          "ticks": 18487,
          "time": 60.022667250000005,
          "velocity": 0.3543307086614173
        },
        {
          "duration": 0.07467524999999853,
          "durationTicks": 23,
          "midi": 81,
          "name": "A5",
          "ticks": 18602,
          "time": 60.396043500000005,
          "velocity": 0.3937007874015748
        },
        {
          "duration": 0.09090899999999635,
          "durationTicks": 28,
          "midi": 74,
          "name": "D5",
          "ticks": 18602,
          "time": 60.396043500000005,
          "velocity": 0.3228346456692913
        },
        {
          "duration": 0.09740250000000117,
          "durationTicks": 30,
          "midi": 78,
          "name": "F#5",
          "ticks": 18602,
          "time": 60.396043500000005,
          "velocity": 0.4409448818897638
        },
        {
          "duration": 1.720777499999997,
          "durationTicks": 530,
          "midi": 62,
          "name": "D4",
          "ticks": 18660,
          "time": 60.584355,
          "velocity": 0.5039370078740157
        },
        {
          "duration": 1.3246739999999875,
          "durationTicks": 408,
          "midi": 74,
          "name": "D5",
          "ticks": 18722,
          "time": 60.78565350000001,
          "velocity": 0.5196850393700787
        },
        {
          "duration": 1.5357127499999947,
          "durationTicks": 473,
          "midi": 66,
          "name": "F#4",
          "ticks": 18722,
          "time": 60.78565350000001,
          "velocity": 0.16535433070866143
        },
        {
          "duration": 0.8603887499999914,
          "durationTicks": 265,
          "midi": 69,
          "name": "A4",
          "ticks": 18752,
          "time": 60.88305600000001,
          "velocity": 0.4251968503937008
        },
        {
          "duration": 1.1428560000000019,
          "durationTicks": 352,
          "midi": 78,
          "name": "F#5",
          "ticks": 18845,
          "time": 61.18500375,
          "velocity": 0.4409448818897638
        },
        {
          "duration": 0.7629862500000044,
          "durationTicks": 235,
          "midi": 81,
          "name": "A5",
          "ticks": 18965,
          "time": 61.57461375,
          "velocity": 0.6141732283464567
        },
        {
          "duration": 0.3571424999999948,
          "durationTicks": 110,
          "midi": 69,
          "name": "A4",
          "ticks": 19082,
          "time": 61.95448350000001,
          "velocity": 0.4881889763779528
        }
      ]
    },
    {
      "channel": 7,
      "controlChanges": {
        "7": [
          {
            "number": 7,
            "ticks": 335,
            "time": 1.08766125,
            "value": 0.5275590551181102
          }
        ],
        "11": [
          {
            "number": 11,
            "ticks": 335,
            "time": 1.08766125,
            "value": 1
          }
        ],
        "91": [
          {
            "number": 91,
            "ticks": 337,
            "time": 1.09415475,
            "value": 0.23622047244094488
          }
        ],
        "93": [
          {
            "number": 93,
            "ticks": 337,
            "time": 1.09415475,
            "value": 0
          }
        ]
      },
      "pitchBends": [],
      "instrument": {
        "family": "guitar",
        "number": 24,
        "name": "acoustic guitar (nylon)"
      },
      "name": "",
      "notes": [
        {
          "duration": 0.9577912499999996,
          "durationTicks": 295,
          "midi": 54,
          "name": "F#3",
          "ticks": 1925,
          "time": 6.249993750000001,
          "velocity": 0.48031496062992124
        },
        {
          "duration": 2.8084387499999997,
          "durationTicks": 865,
          "midi": 57,
          "name": "A3",
          "ticks": 1925,
          "time": 6.249993750000001,
          "velocity": 0.5590551181102362
        },
        {
          "duration": 0.3798697500000001,
          "durationTicks": 117,
          "midi": 62,
          "name": "D4",
          "ticks": 2040,
          "time": 6.62337,
          "velocity": 0.4015748031496063
        },
        {
          "duration": 1.2662324999999992,
          "durationTicks": 390,
          "midi": 66,
          "name": "F#4",
          "ticks": 2160,
          "time": 7.012980000000001,
          "velocity": 0.5118110236220472
        },
        {
          "duration": 0.6655837500000006,
          "durationTicks": 205,
          "midi": 62,
          "name": "D4",
          "ticks": 2285,
          "time": 7.4188237500000005,
          "velocity": 0.5118110236220472
        },
        {
          "duration": 0.18506474999999956,
          "durationTicks": 57,
          "midi": 54,
          "name": "F#3",
          "ticks": 2285,
          "time": 7.4188237500000005,
          "velocity": 0.4015748031496063
        },
        {
          "duration": 0.9740250000000001,
          "durationTicks": 300,
          "midi": 54,
          "name": "F#3",
          "ticks": 2410,
          "time": 7.824667499999999,
          "velocity": 0.48031496062992124
        },
        {
          "duration": 1.266232500000001,
          "durationTicks": 390,
          "midi": 66,
          "name": "F#4",
          "ticks": 2642,
          "time": 8.5779135,
          "velocity": 0.4330708661417323
        },
        {
          "duration": 0.09740249999999939,
          "durationTicks": 30,
          "midi": 54,
          "name": "F#3",
          "ticks": 2757,
          "time": 8.95128975,
          "velocity": 0.4015748031496063
        },
        {
          "duration": 0.38960999999999935,
          "durationTicks": 120,
          "midi": 62,
          "name": "D4",
          "ticks": 2760,
          "time": 8.961030000000001,
          "velocity": 0.49606299212598426
        },
        {
          "duration": 0.9480510000000013,
          "durationTicks": 292,
          "midi": 54,
          "name": "F#3",
          "ticks": 2885,
          "time": 9.36687375,
          "velocity": 0.48031496062992124
        },
        {
          "duration": 0.5357137499999993,
          "durationTicks": 165,
          "midi": 57,
          "name": "A3",
          "ticks": 2887,
          "time": 9.373367250000001,
          "velocity": 0.5590551181102362
        },
        {
          "duration": 0.379869750000001,
          "durationTicks": 117,
          "midi": 62,
          "name": "D4",
          "ticks": 3000,
          "time": 9.74025,
          "velocity": 0.4015748031496063
        },
        {
          "duration": 1.2662324999999992,
          "durationTicks": 390,
          "midi": 66,
          "name": "F#4",
          "ticks": 3120,
          "time": 10.12986,
          "velocity": 0.5118110236220472
        },
        {
          "duration": 0.6558434999999996,
          "durationTicks": 202,
          "midi": 62,
          "name": "D4",
          "ticks": 3245,
          "time": 10.535703750000001,
          "velocity": 0.5118110236220472
        },
        {
          "duration": 0.18506474999999867,
          "durationTicks": 57,
          "midi": 54,
          "name": "F#3",
          "ticks": 3245,
          "time": 10.535703750000001,
          "velocity": 0.4015748031496063
        },
        {
          "duration": 0.9642847500000009,
          "durationTicks": 297,
          "midi": 54,
          "name": "F#3",
          "ticks": 3370,
          "time": 10.9415475,
          "velocity": 0.48031496062992124
        },
        {
          "duration": 1.2597390000000015,
          "durationTicks": 388,
          "midi": 66,
          "name": "F#4",
          "ticks": 3602,
          "time": 11.6947935,
          "velocity": 0.4330708661417323
        },
        {
          "duration": 0.09740249999999939,
          "durationTicks": 30,
          "midi": 54,
          "name": "F#3",
          "ticks": 3717,
          "time": 12.068169750000001,
          "velocity": 0.4015748031496063
        },
        {
          "duration": 0.38960999999999935,
          "durationTicks": 120,
          "midi": 62,
          "name": "D4",
          "ticks": 3720,
          "time": 12.077910000000001,
          "velocity": 0.49606299212598426
        },
        {
          "duration": 0.35064900000000065,
          "durationTicks": 108,
          "midi": 57,
          "name": "A3",
          "ticks": 3837,
          "time": 12.45777975,
          "velocity": 0.6850393700787402
        },
        {
          "duration": 0.9512977500000002,
          "durationTicks": 293,
          "midi": 54,
          "name": "F#3",
          "ticks": 3847,
          "time": 12.49024725,
          "velocity": 0.48031496062992124
        },
        {
          "duration": 0.3896100000000011,
          "durationTicks": 120,
          "midi": 62,
          "name": "D4",
          "ticks": 3960,
          "time": 12.85713,
          "velocity": 0.4015748031496063
        },
        {
          "duration": 1.2662324999999992,
          "durationTicks": 390,
          "midi": 66,
          "name": "F#4",
          "ticks": 4080,
          "time": 13.24674,
          "velocity": 0.5118110236220472
        },
        {
          "duration": 0.6655837500000015,
          "durationTicks": 205,
          "midi": 62,
          "name": "D4",
          "ticks": 4205,
          "time": 13.65258375,
          "velocity": 0.5118110236220472
        },
        {
          "duration": 0.19480500000000056,
          "durationTicks": 60,
          "midi": 54,
          "name": "F#3",
          "ticks": 4205,
          "time": 13.65258375,
          "velocity": 0.4015748031496063
        },
        {
          "duration": 0.974025000000001,
          "durationTicks": 300,
          "midi": 54,
          "name": "F#3",
          "ticks": 4330,
          "time": 14.0584275,
          "velocity": 0.48031496062992124
        },
        {
          "duration": 1.2597390000000015,
          "durationTicks": 388,
          "midi": 66,
          "name": "F#4",
          "ticks": 4562,
          "time": 14.8116735,
          "velocity": 0.4330708661417323
        },
        {
          "duration": 0.09740249999999939,
          "durationTicks": 30,
          "midi": 54,
          "name": "F#3",
          "ticks": 4677,
          "time": 15.185049750000001,
          "velocity": 0.4015748031496063
        },
        {
          "duration": 0.38960999999999935,
          "durationTicks": 120,
          "midi": 62,
          "name": "D4",
          "ticks": 4680,
          "time": 15.194790000000001,
          "velocity": 0.49606299212598426
        },
        {
          "duration": 2.8181790000000024,
          "durationTicks": 868,
          "midi": 57,
          "name": "A3",
          "ticks": 4797,
          "time": 15.57465975,
          "velocity": 0.6850393700787402
        },
        {
          "duration": 1.0551937500000008,
          "durationTicks": 325,
          "midi": 54,
          "name": "F#3",
          "ticks": 4805,
          "time": 15.60063375,
          "velocity": 0.5118110236220472
        },
        {
          "duration": 0.4870125000000005,
          "durationTicks": 150,
          "midi": 61,
          "name": "C#4",
          "ticks": 4922,
          "time": 15.9805035,
          "velocity": 0.5433070866141733
        },
        {
          "duration": 0.974025000000001,
          "durationTicks": 300,
          "midi": 66,
          "name": "F#4",
          "ticks": 5042,
          "time": 16.3701135,
          "velocity": 0.5118110236220472
        },
        {
          "duration": 1.3474012500000008,
          "durationTicks": 415,
          "midi": 61,
          "name": "C#4",
          "ticks": 5165,
          "time": 16.76946375,
          "velocity": 0.5590551181102362
        },
        {
          "duration": 0.18831150000000108,
          "durationTicks": 58,
          "midi": 54,
          "name": "F#3",
          "ticks": 5167,
          "time": 16.775957249999998,
          "velocity": 0.41732283464566927
        },
        {
          "duration": 0.974025000000001,
          "durationTicks": 300,
          "midi": 54,
          "name": "F#3",
          "ticks": 5287,
          "time": 17.16556725,
          "velocity": 0.4645669291338583
        },
        {
          "duration": 0.08766225000000105,
          "durationTicks": 27,
          "midi": 66,
          "name": "F#4",
          "ticks": 5410,
          "time": 17.5649175,
          "velocity": 0.36220472440944884
        },
        {
          "duration": 1.3636349999999986,
          "durationTicks": 420,
          "midi": 66,
          "name": "F#4",
          "ticks": 5520,
          "time": 17.922060000000002,
          "velocity": 0.5433070866141733
        },
        {
          "duration": 0.29220749999999995,
          "durationTicks": 90,
          "midi": 61,
          "name": "C#4",
          "ticks": 5640,
          "time": 18.31167,
          "velocity": 0.5748031496062992
        },
        {
          "duration": 0.18831150000000108,
          "durationTicks": 58,
          "midi": 54,
          "name": "F#3",
          "ticks": 5642,
          "time": 18.3181635,
          "velocity": 0.48031496062992124
        },
        {
          "duration": 0.9577912500000032,
          "durationTicks": 295,
          "midi": 54,
          "name": "F#3",
          "ticks": 5765,
          "time": 18.71751375,
          "velocity": 0.4645669291338583
        },
        {
          "duration": 2.418828750000003,
          "durationTicks": 745,
          "midi": 57,
          "name": "A3",
          "ticks": 5765,
          "time": 18.71751375,
          "velocity": 0.6377952755905512
        },
        {
          "duration": 0.4870125000000023,
          "durationTicks": 150,
          "midi": 60,
          "name": "C4",
          "ticks": 5882,
          "time": 19.0973835,
          "velocity": 0.3228346456692913
        },
        {
          "duration": 0.974025000000001,
          "durationTicks": 300,
          "midi": 66,
          "name": "F#4",
          "ticks": 6000,
          "time": 19.4805,
          "velocity": 0.5118110236220472
        },
        {
          "duration": 0.8701290000000022,
          "durationTicks": 268,
          "midi": 60,
          "name": "C4",
          "ticks": 6117,
          "time": 19.86036975,
          "velocity": 0.5275590551181102
        },
        {
          "duration": 0.08766225000000105,
          "durationTicks": 27,
          "midi": 54,
          "name": "F#3",
          "ticks": 6135,
          "time": 19.91881125,
          "velocity": 0.4015748031496063
        },
        {
          "duration": 0.9740249999999975,
          "durationTicks": 300,
          "midi": 54,
          "name": "F#3",
          "ticks": 6247,
          "time": 20.28244725,
          "velocity": 0.48031496062992124
        },
        {
          "duration": 1.0714274999999986,
          "durationTicks": 330,
          "midi": 66,
          "name": "F#4",
          "ticks": 6362,
          "time": 20.6558235,
          "velocity": 0.5118110236220472
        },
        {
          "duration": 0.48701249999999874,
          "durationTicks": 150,
          "midi": 60,
          "name": "C4",
          "ticks": 6480,
          "time": 21.03894,
          "velocity": 0.41732283464566927
        },
        {
          "duration": 0.28246724999999984,
          "durationTicks": 87,
          "midi": 57,
          "name": "A3",
          "ticks": 6600,
          "time": 21.42855,
          "velocity": 0.7322834645669292
        },
        {
          "duration": 0.09740250000000117,
          "durationTicks": 30,
          "midi": 54,
          "name": "F#3",
          "ticks": 6605,
          "time": 21.44478375,
          "velocity": 0.4645669291338583
        },
        {
          "duration": 1.3376610000000007,
          "durationTicks": 412,
          "midi": 57,
          "name": "A3",
          "ticks": 6725,
          "time": 21.83439375,
          "velocity": 0.6850393700787402
        },
        {
          "duration": 1.2597390000000033,
          "durationTicks": 388,
          "midi": 54,
          "name": "F#3",
          "ticks": 6727,
          "time": 21.840887249999998,
          "velocity": 0.5118110236220472
        },
        {
          "duration": 0.379869750000001,
          "durationTicks": 117,
          "midi": 63,
          "name": "D#4",
          "ticks": 6840,
          "time": 22.20777,
          "velocity": 0.4645669291338583
        },
        {
          "duration": 0.9675315000000033,
          "durationTicks": 298,
          "midi": 66,
          "name": "F#4",
          "ticks": 6962,
          "time": 22.6038735,
          "velocity": 0.5590551181102362
        },
        {
          "duration": 0.4707787500000009,
          "durationTicks": 145,
          "midi": 63,
          "name": "D#4",
          "ticks": 7082,
          "time": 22.9934835,
          "velocity": 0.49606299212598426
        },
        {
          "duration": 1.568180250000001,
          "durationTicks": 483,
          "midi": 59,
          "name": "B3",
          "ticks": 7202,
          "time": 23.3830935,
          "velocity": 0.6850393700787402
        },
        {
          "duration": 0.48051900000000103,
          "durationTicks": 148,
          "midi": 63,
          "name": "D#4",
          "ticks": 7322,
          "time": 23.7727035,
          "velocity": 0.3779527559055118
        },
        {
          "duration": 0.09740250000000117,
          "durationTicks": 30,
          "midi": 54,
          "name": "F#3",
          "ticks": 7327,
          "time": 23.78893725,
          "velocity": 0.41732283464566927
        },
        {
          "duration": 0.6818175000000011,
          "durationTicks": 210,
          "midi": 66,
          "name": "F#4",
          "ticks": 7437,
          "time": 24.146079750000002,
          "velocity": 0.5275590551181102
        },
        {
          "duration": 0.6753239999999998,
          "durationTicks": 208,
          "midi": 54,
          "name": "F#3",
          "ticks": 7442,
          "time": 24.1623135,
          "velocity": 0.49606299212598426
        },
        {
          "duration": 0.4058437500000025,
          "durationTicks": 125,
          "midi": 63,
          "name": "D#4",
          "ticks": 7562,
          "time": 24.5519235,
          "velocity": 0.3700787401574803
        },
        {
          "duration": 1.4188297500000004,
          "durationTicks": 437,
          "midi": 52,
          "name": "E3",
          "ticks": 7685,
          "time": 24.951273750000002,
          "velocity": 0.5275590551181102
        },
        {
          "duration": 1.7272710000000018,
          "durationTicks": 532,
          "midi": 59,
          "name": "B3",
          "ticks": 7800,
          "time": 25.324650000000002,
          "velocity": 0.5118110236220472
        },
        {
          "duration": 1.3474012499999972,
          "durationTicks": 415,
          "midi": 64,
          "name": "E4",
          "ticks": 7927,
          "time": 25.736987250000002,
          "velocity": 0.5905511811023622
        },
        {
          "duration": 1.3214272499999993,
          "durationTicks": 407,
          "midi": 67,
          "name": "G4",
          "ticks": 7930,
          "time": 25.7467275,
          "velocity": 0.5748031496062992
        },
        {
          "duration": 0.9253237500000004,
          "durationTicks": 285,
          "midi": 52,
          "name": "E3",
          "ticks": 8290,
          "time": 26.9155575,
          "velocity": 0.48031496062992124
        },
        {
          "duration": 0.8668822500000033,
          "durationTicks": 267,
          "midi": 59,
          "name": "B3",
          "ticks": 8410,
          "time": 27.3051675,
          "velocity": 0.5748031496062992
        },
        {
          "duration": 0.8993497500000025,
          "durationTicks": 277,
          "midi": 67,
          "name": "G4",
          "ticks": 8410,
          "time": 27.3051675,
          "velocity": 0.5748031496062992
        },
        {
          "duration": 0.5097397500000014,
          "durationTicks": 157,
          "midi": 64,
          "name": "E4",
          "ticks": 8520,
          "time": 27.66231,
          "velocity": 0.5748031496062992
        },
        {
          "duration": 1.7272709999999947,
          "durationTicks": 532,
          "midi": 50,
          "name": "D3",
          "ticks": 8645,
          "time": 28.068153750000004,
          "velocity": 0.5748031496062992
        },
        {
          "duration": 1.6720762500000035,
          "durationTicks": 515,
          "midi": 59,
          "name": "B3",
          "ticks": 8760,
          "time": 28.44153,
          "velocity": 0.3858267716535433
        },
        {
          "duration": 1.249998749999996,
          "durationTicks": 385,
          "midi": 64,
          "name": "E4",
          "ticks": 8887,
          "time": 28.853867250000004,
          "velocity": 0.5905511811023622
        },
        {
          "duration": 1.2435052499999983,
          "durationTicks": 383,
          "midi": 67,
          "name": "G4",
          "ticks": 8887,
          "time": 28.853867250000004,
          "velocity": 0.4645669291338583
        },
        {
          "duration": 1.0064925000000038,
          "durationTicks": 310,
          "midi": 50,
          "name": "D3",
          "ticks": 9250,
          "time": 30.0324375,
          "velocity": 0.5433070866141733
        },
        {
          "duration": 0.9155835000000039,
          "durationTicks": 282,
          "midi": 59,
          "name": "B3",
          "ticks": 9370,
          "time": 30.422047499999998,
          "velocity": 0.4015748031496063
        },
        {
          "duration": 1.0292197499999993,
          "durationTicks": 317,
          "midi": 67,
          "name": "G4",
          "ticks": 9370,
          "time": 30.422047499999998,
          "velocity": 0.6377952755905512
        },
        {
          "duration": 0.5097397500000014,
          "durationTicks": 157,
          "midi": 64,
          "name": "E4",
          "ticks": 9480,
          "time": 30.77919,
          "velocity": 0.36220472440944884
        },
        {
          "duration": 1.6623360000000034,
          "durationTicks": 512,
          "midi": 49,
          "name": "C#3",
          "ticks": 9605,
          "time": 31.185033750000002,
          "velocity": 0.5748031496062992
        },
        {
          "duration": 0.24999974999999708,
          "durationTicks": 77,
          "midi": 59,
          "name": "B3",
          "ticks": 9720,
          "time": 31.558410000000002,
          "velocity": 0.5118110236220472
        },
        {
          "duration": 1.2499987500000067,
          "durationTicks": 385,
          "midi": 61,
          "name": "C#4",
          "ticks": 9850,
          "time": 31.9804875,
          "velocity": 0.6220472440944882
        },
        {
          "duration": 1.2662324999999974,
          "durationTicks": 390,
          "midi": 64,
          "name": "E4",
          "ticks": 9850,
          "time": 31.9804875,
          "velocity": 0.5433070866141733
        },
        {
          "duration": 1.2662324999999974,
          "durationTicks": 390,
          "midi": 67,
          "name": "G4",
          "ticks": 9850,
          "time": 31.9804875,
          "velocity": 0.3228346456692913
        },
        {
          "duration": 1.0389599999999959,
          "durationTicks": 320,
          "midi": 49,
          "name": "C#3",
          "ticks": 10210,
          "time": 33.1493175,
          "velocity": 0.48031496062992124
        },
        {
          "duration": 0.2272725000000051,
          "durationTicks": 70,
          "midi": 61,
          "name": "C#4",
          "ticks": 10330,
          "time": 33.5389275,
          "velocity": 0.3228346456692913
        },
        {
          "duration": 0.8019472499999978,
          "durationTicks": 247,
          "midi": 64,
          "name": "E4",
          "ticks": 10330,
          "time": 33.5389275,
          "velocity": 0.6062992125984252
        },
        {
          "duration": 0.7792200000000022,
          "durationTicks": 240,
          "midi": 67,
          "name": "G4",
          "ticks": 10332,
          "time": 33.545421,
          "velocity": 0.5748031496062992
        },
        {
          "duration": 0.3474022500000018,
          "durationTicks": 107,
          "midi": 61,
          "name": "C#4",
          "ticks": 10440,
          "time": 33.89607,
          "velocity": 0.49606299212598426
        },
        {
          "duration": 1.3798687499999929,
          "durationTicks": 425,
          "midi": 50,
          "name": "D3",
          "ticks": 10565,
          "time": 34.301913750000004,
          "velocity": 0.6220472440944882
        },
        {
          "duration": 1.3149337499999945,
          "durationTicks": 405,
          "midi": 57,
          "name": "A3",
          "ticks": 10680,
          "time": 34.675290000000004,
          "velocity": 0.4645669291338583
        },
        {
          "duration": 1.1136352500000015,
          "durationTicks": 343,
          "midi": 62,
          "name": "D4",
          "ticks": 10807,
          "time": 35.087627250000004,
          "velocity": 0.5433070866141733
        },
        {
          "duration": 1.1850637499999976,
          "durationTicks": 365,
          "midi": 66,
          "name": "F#4",
          "ticks": 10807,
          "time": 35.087627250000004,
          "velocity": 0.5590551181102362
        },
        {
          "duration": 1.5259725000000017,
          "durationTicks": 470,
          "midi": 50,
          "name": "D3",
          "ticks": 11050,
          "time": 35.8765875,
          "velocity": 0.5118110236220472
        },
        {
          "duration": 0.7467524999999995,
          "durationTicks": 230,
          "midi": 57,
          "name": "A3",
          "ticks": 11290,
          "time": 36.6558075,
          "velocity": 0.3464566929133858
        },
        {
          "duration": 0.7532459999999972,
          "durationTicks": 232,
          "midi": 62,
          "name": "D4",
          "ticks": 11290,
          "time": 36.6558075,
          "velocity": 0.5275590551181102
        },
        {
          "duration": 0.7467524999999995,
          "durationTicks": 230,
          "midi": 66,
          "name": "F#4",
          "ticks": 11292,
          "time": 36.662301,
          "velocity": 0.5905511811023622
        },
        {
          "duration": 0.5616877499999973,
          "durationTicks": 173,
          "midi": 57,
          "name": "A3",
          "ticks": 11767,
          "time": 38.204507250000006,
          "velocity": 0.48031496062992124
        },
        {
          "duration": 0.6071422500000025,
          "durationTicks": 187,
          "midi": 62,
          "name": "D4",
          "ticks": 11770,
          "time": 38.2142475,
          "velocity": 0.5590551181102362
        },
        {
          "duration": 0.2337660000000028,
          "durationTicks": 72,
          "midi": 66,
          "name": "F#4",
          "ticks": 11770,
          "time": 38.2142475,
          "velocity": 0.3858267716535433
        },
        {
          "duration": 1.0292197500000029,
          "durationTicks": 317,
          "midi": 66,
          "name": "F#4",
          "ticks": 11890,
          "time": 38.6038575,
          "velocity": 0.5275590551181102
        },
        {
          "duration": 1.2564922500000009,
          "durationTicks": 387,
          "midi": 57,
          "name": "A3",
          "ticks": 11950,
          "time": 38.7986625,
          "velocity": 0.5748031496062992
        },
        {
          "duration": 1.3149337500000016,
          "durationTicks": 405,
          "midi": 61,
          "name": "C#4",
          "ticks": 12010,
          "time": 38.9934675,
          "velocity": 0.5118110236220472
        },
        {
          "duration": 1.3863622500000048,
          "durationTicks": 427,
          "midi": 66,
          "name": "F#4",
          "ticks": 12250,
          "time": 39.772687499999996,
          "velocity": 0.49606299212598426
        },
        {
          "duration": 0.7467524999999995,
          "durationTicks": 230,
          "midi": 57,
          "name": "A3",
          "ticks": 12420,
          "time": 40.324635,
          "velocity": 0.6220472440944882
        },
        {
          "duration": 0.7792200000000022,
          "durationTicks": 240,
          "midi": 60,
          "name": "C4",
          "ticks": 12485,
          "time": 40.53567375,
          "velocity": 0.49606299212598426
        },
        {
          "duration": 0.6655837500000032,
          "durationTicks": 205,
          "midi": 57,
          "name": "A3",
          "ticks": 12730,
          "time": 41.3311275,
          "velocity": 0.4645669291338583
        },
        {
          "duration": 0.7207785000000015,
          "durationTicks": 222,
          "midi": 60,
          "name": "C4",
          "ticks": 12730,
          "time": 41.3311275,
          "velocity": 0.4409448818897638
        },
        {
          "duration": 0.558441000000002,
          "durationTicks": 172,
          "midi": 64,
          "name": "E4",
          "ticks": 12730,
          "time": 41.3311275,
          "velocity": 0.5905511811023622
        },
        {
          "duration": 0.6006487500000048,
          "durationTicks": 185,
          "midi": 57,
          "name": "A3",
          "ticks": 12970,
          "time": 42.110347499999996,
          "velocity": 0.5118110236220472
        },
        {
          "duration": 1.4545439999999985,
          "durationTicks": 448,
          "midi": 60,
          "name": "C4",
          "ticks": 12972,
          "time": 42.116841,
          "velocity": 0.3464566929133858
        },
        {
          "duration": 0.59415525,
          "durationTicks": 183,
          "midi": 63,
          "name": "D#4",
          "ticks": 12972,
          "time": 42.116841,
          "velocity": 0.5118110236220472
        },
        {
          "duration": 0.5616877500000044,
          "durationTicks": 173,
          "midi": 57,
          "name": "A3",
          "ticks": 13212,
          "time": 42.896060999999996,
          "velocity": 0.5748031496062992
        },
        {
          "duration": 0.5681812500000092,
          "durationTicks": 175,
          "midi": 63,
          "name": "D#4",
          "ticks": 13212,
          "time": 42.896060999999996,
          "velocity": 0.3779527559055118
        },
        {
          "duration": 1.2564922500000009,
          "durationTicks": 387,
          "midi": 59,
          "name": "B3",
          "ticks": 13445,
          "time": 43.65255375,
          "velocity": 0.5433070866141733
        },
        {
          "duration": 0.9480509999999995,
          "durationTicks": 292,
          "midi": 62,
          "name": "D4",
          "ticks": 13445,
          "time": 43.65255375,
          "velocity": 0.5748031496062992
        },
        {
          "duration": 0.6168824999999956,
          "durationTicks": 190,
          "midi": 67,
          "name": "G4",
          "ticks": 13445,
          "time": 43.65255375,
          "velocity": 0.5590551181102362
        },
        {
          "duration": 0.4772722499999986,
          "durationTicks": 147,
          "midi": 67,
          "name": "G4",
          "ticks": 13690,
          "time": 44.4480075,
          "velocity": 0.5590551181102362
        },
        {
          "duration": 0.2824672500000034,
          "durationTicks": 87,
          "midi": 62,
          "name": "D4",
          "ticks": 13810,
          "time": 44.8376175,
          "velocity": 0.49606299212598426
        },
        {
          "duration": 1.4123362499999956,
          "durationTicks": 435,
          "midi": 59,
          "name": "B3",
          "ticks": 13870,
          "time": 45.0324225,
          "velocity": 0.5590551181102362
        },
        {
          "duration": 0.8831160000000011,
          "durationTicks": 272,
          "midi": 62,
          "name": "D4",
          "ticks": 13930,
          "time": 45.2272275,
          "velocity": 0.6850393700787402
        },
        {
          "duration": 0.6266227500000028,
          "durationTicks": 193,
          "midi": 66,
          "name": "F#4",
          "ticks": 13932,
          "time": 45.233720999999996,
          "velocity": 0.3543307086614173
        },
        {
          "duration": 0.49350599999999645,
          "durationTicks": 152,
          "midi": 66,
          "name": "F#4",
          "ticks": 14170,
          "time": 46.0064475,
          "velocity": 0.3858267716535433
        },
        {
          "duration": 0.3019477500000036,
          "durationTicks": 93,
          "midi": 62,
          "name": "D4",
          "ticks": 14282,
          "time": 46.3700835,
          "velocity": 0.49606299212598426
        },
        {
          "duration": 1.1850637499999976,
          "durationTicks": 365,
          "midi": 55,
          "name": "G3",
          "ticks": 14405,
          "time": 46.769433750000005,
          "velocity": 0.6299212598425197
        },
        {
          "duration": 0.4610385000000008,
          "durationTicks": 142,
          "midi": 58,
          "name": "A#3",
          "ticks": 14520,
          "time": 47.142810000000004,
          "velocity": 0.41732283464566927
        },
        {
          "duration": 0.5422072500000041,
          "durationTicks": 167,
          "midi": 64,
          "name": "E4",
          "ticks": 14650,
          "time": 47.5648875,
          "velocity": 0.6850393700787402
        },
        {
          "duration": 1.3376610000000042,
          "durationTicks": 412,
          "midi": 55,
          "name": "G3",
          "ticks": 14830,
          "time": 48.1493025,
          "velocity": 0.6220472440944882
        },
        {
          "duration": 0.36363600000000673,
          "durationTicks": 112,
          "midi": 58,
          "name": "A#3",
          "ticks": 14830,
          "time": 48.1493025,
          "velocity": 0.36220472440944884
        },
        {
          "duration": 0.37986975000000456,
          "durationTicks": 117,
          "midi": 64,
          "name": "E4",
          "ticks": 14890,
          "time": 48.3441075,
          "velocity": 0.5669291338582677
        },
        {
          "duration": 0.7532460000000043,
          "durationTicks": 232,
          "midi": 58,
          "name": "A#3",
          "ticks": 15070,
          "time": 48.9285225,
          "velocity": 0.5118110236220472
        },
        {
          "duration": 0.7629862500000044,
          "durationTicks": 235,
          "midi": 64,
          "name": "E4",
          "ticks": 15070,
          "time": 48.9285225,
          "velocity": 0.5590551181102362
        },
        {
          "duration": 0.8668822500000033,
          "durationTicks": 267,
          "midi": 67,
          "name": "G4",
          "ticks": 15130,
          "time": 49.1233275,
          "velocity": 0.49606299212598426
        },
        {
          "duration": 0.7370122500000065,
          "durationTicks": 227,
          "midi": 57,
          "name": "A3",
          "ticks": 15300,
          "time": 49.675275,
          "velocity": 0.5905511811023622
        },
        {
          "duration": 1.2240247500000052,
          "durationTicks": 377,
          "midi": 66,
          "name": "F#4",
          "ticks": 15365,
          "time": 49.88631375,
          "velocity": 0.5590551181102362
        },
        {
          "duration": 1.353894749999995,
          "durationTicks": 417,
          "midi": 57,
          "name": "A3",
          "ticks": 15610,
          "time": 50.68176750000001,
          "velocity": 0.7322834645669292
        },
        {
          "duration": 0.6396097499999982,
          "durationTicks": 197,
          "midi": 62,
          "name": "D4",
          "ticks": 15730,
          "time": 51.071377500000004,
          "velocity": 0.41732283464566927
        },
        {
          "duration": 1.0454535000000007,
          "durationTicks": 322,
          "midi": 66,
          "name": "F#4",
          "ticks": 15850,
          "time": 51.46098750000001,
          "velocity": 0.49606299212598426
        },
        {
          "duration": 0.2987009999999941,
          "durationTicks": 92,
          "midi": 62,
          "name": "D4",
          "ticks": 15970,
          "time": 51.850597500000006,
          "velocity": 0.49606299212598426
        },
        {
          "duration": 0.49350599999999645,
          "durationTicks": 152,
          "midi": 57,
          "name": "A3",
          "ticks": 16090,
          "time": 52.240207500000004,
          "velocity": 0.7322834645669292
        },
        {
          "duration": 0.6883109999999988,
          "durationTicks": 212,
          "midi": 62,
          "name": "D4",
          "ticks": 16090,
          "time": 52.240207500000004,
          "velocity": 0.6220472440944882
        },
        {
          "duration": 0.24350625000000292,
          "durationTicks": 75,
          "midi": 66,
          "name": "F#4",
          "ticks": 16202,
          "time": 52.6038435,
          "velocity": 0.5196850393700787
        },
        {
          "duration": 1.3214272499999993,
          "durationTicks": 407,
          "midi": 57,
          "name": "A3",
          "ticks": 16325,
          "time": 53.00319375,
          "velocity": 0.5354330708661418
        },
        {
          "duration": 0.6331162499999934,
          "durationTicks": 195,
          "midi": 62,
          "name": "D4",
          "ticks": 16325,
          "time": 53.00319375,
          "velocity": 0.5433070866141733
        },
        {
          "duration": 0.2759737499999986,
          "durationTicks": 85,
          "midi": 67,
          "name": "G4",
          "ticks": 16325,
          "time": 53.00319375,
          "velocity": 0.6377952755905512
        },
        {
          "duration": 0.5519474999999971,
          "durationTicks": 170,
          "midi": 67,
          "name": "G4",
          "ticks": 16440,
          "time": 53.37657,
          "velocity": 0.47244094488188976
        },
        {
          "duration": 0.6818175000000011,
          "durationTicks": 210,
          "midi": 62,
          "name": "D4",
          "ticks": 16567,
          "time": 53.78890725,
          "velocity": 0.6850393700787402
        },
        {
          "duration": 0.16233749999999247,
          "durationTicks": 50,
          "midi": 67,
          "name": "G4",
          "ticks": 16690,
          "time": 54.188257500000006,
          "velocity": 0.47244094488188976
        },
        {
          "duration": 0.7045447499999966,
          "durationTicks": 217,
          "midi": 57,
          "name": "A3",
          "ticks": 16750,
          "time": 54.38306250000001,
          "velocity": 0.6850393700787402
        },
        {
          "duration": 0.6168824999999956,
          "durationTicks": 190,
          "midi": 61,
          "name": "C#4",
          "ticks": 16810,
          "time": 54.5778675,
          "velocity": 0.6850393700787402
        },
        {
          "duration": 0.26623350000000556,
          "durationTicks": 82,
          "midi": 64,
          "name": "E4",
          "ticks": 16810,
          "time": 54.5778675,
          "velocity": 0.5590551181102362
        },
        {
          "duration": 0.6006487499999906,
          "durationTicks": 185,
          "midi": 64,
          "name": "E4",
          "ticks": 16930,
          "time": 54.96747750000001,
          "velocity": 0.3937007874015748
        },
        {
          "duration": 0.4123372500000002,
          "durationTicks": 127,
          "midi": 57,
          "name": "A3",
          "ticks": 17050,
          "time": 55.357087500000006,
          "velocity": 0.7322834645669292
        },
        {
          "duration": 0.48701249999999874,
          "durationTicks": 150,
          "midi": 61,
          "name": "C#4",
          "ticks": 17050,
          "time": 55.357087500000006,
          "velocity": 0.7322834645669292
        },
        {
          "duration": 0.1785712499999974,
          "durationTicks": 55,
          "midi": 64,
          "name": "E4",
          "ticks": 17162,
          "time": 55.720723500000005,
          "velocity": 0.49606299212598426
        },
        {
          "duration": 0.8831160000000011,
          "durationTicks": 272,
          "midi": 62,
          "name": "D4",
          "ticks": 17220,
          "time": 55.909035,
          "velocity": 0.4330708661417323
        },
        {
          "duration": 0.6168825000000027,
          "durationTicks": 190,
          "midi": 59,
          "name": "B3",
          "ticks": 17285,
          "time": 56.120073749999996,
          "velocity": 0.3858267716535433
        },
        {
          "duration": 1.256492250000008,
          "durationTicks": 387,
          "midi": 67,
          "name": "G4",
          "ticks": 17285,
          "time": 56.120073749999996,
          "velocity": 0.3779527559055118
        },
        {
          "duration": 2.087660249999992,
          "durationTicks": 643,
          "midi": 59,
          "name": "B3",
          "ticks": 17527,
          "time": 56.90578725,
          "velocity": 0.8267716535433071
        },
        {
          "duration": 1.136362499999997,
          "durationTicks": 350,
          "midi": 62,
          "name": "D4",
          "ticks": 17650,
          "time": 57.30513750000001,
          "velocity": 0.4330708661417323
        },
        {
          "duration": 1.4999984999999967,
          "durationTicks": 462,
          "midi": 67,
          "name": "G4",
          "ticks": 17770,
          "time": 57.694747500000005,
          "velocity": 0.6220472440944882
        },
        {
          "duration": 0.6883109999999917,
          "durationTicks": 212,
          "midi": 62,
          "name": "D4",
          "ticks": 18010,
          "time": 58.47396750000001,
          "velocity": 0.44881889763779526
        },
        {
          "duration": 0.558441000000002,
          "durationTicks": 172,
          "midi": 57,
          "name": "A3",
          "ticks": 18245,
          "time": 59.23695375,
          "velocity": 0.4881889763779528
        },
        {
          "duration": 0.5194800000000015,
          "durationTicks": 160,
          "midi": 62,
          "name": "D4",
          "ticks": 18245,
          "time": 59.23695375,
          "velocity": 0.5590551181102362
        },
        {
          "duration": 0.6818175000000011,
          "durationTicks": 210,
          "midi": 66,
          "name": "F#4",
          "ticks": 18300,
          "time": 59.415525,
          "velocity": 0.4881889763779528
        },
        {
          "duration": 1.1461027499999972,
          "durationTicks": 353,
          "midi": 57,
          "name": "A3",
          "ticks": 18487,
          "time": 60.022667250000005,
          "velocity": 0.7322834645669292
        },
        {
          "duration": 0.22727249999999088,
          "durationTicks": 70,
          "midi": 62,
          "name": "D4",
          "ticks": 18490,
          "time": 60.032407500000005,
          "velocity": 0.4330708661417323
        },
        {
          "duration": 1.0714275000000058,
          "durationTicks": 330,
          "midi": 62,
          "name": "D4",
          "ticks": 18610,
          "time": 60.4220175,
          "velocity": 0.4645669291338583
        },
        {
          "duration": 1.3798687499999929,
          "durationTicks": 425,
          "midi": 66,
          "name": "F#4",
          "ticks": 18730,
          "time": 60.81162750000001,
          "velocity": 0.3858267716535433
        },
        {
          "duration": 0.2824672499999963,
          "durationTicks": 87,
          "midi": 57,
          "name": "A3",
          "ticks": 18910,
          "time": 61.39604250000001,
          "velocity": 0.5511811023622047
        },
        {
          "duration": 0.5909084999999976,
          "durationTicks": 182,
          "midi": 62,
          "name": "D4",
          "ticks": 18970,
          "time": 61.5908475,
          "velocity": 0.6299212598425197
        },
        {
          "duration": 0.9480509999999995,
          "durationTicks": 292,
          "midi": 54,
          "name": "F#3",
          "ticks": 19205,
          "time": 62.35383375,
          "velocity": 0.7007874015748031
        },
        {
          "duration": 0.3961034999999953,
          "durationTicks": 122,
          "midi": 57,
          "name": "A3",
          "ticks": 19210,
          "time": 62.370067500000005,
          "velocity": 0.7795275590551181
        },
        {
          "duration": 0.37986974999999745,
          "durationTicks": 117,
          "midi": 62,
          "name": "D4",
          "ticks": 19320,
          "time": 62.72721,
          "velocity": 0.6220472440944882
        },
        {
          "duration": 1.266232500000001,
          "durationTicks": 390,
          "midi": 66,
          "name": "F#4",
          "ticks": 19440,
          "time": 63.116820000000004,
          "velocity": 0.7322834645669292
        },
        {
          "duration": 0.6818175000000011,
          "durationTicks": 210,
          "midi": 62,
          "name": "D4",
          "ticks": 19560,
          "time": 63.50643,
          "velocity": 0.7322834645669292
        },
        {
          "duration": 0.18506475000000933,
          "durationTicks": 57,
          "midi": 54,
          "name": "F#3",
          "ticks": 19565,
          "time": 63.52266375,
          "velocity": 0.6220472440944882
        },
        {
          "duration": 0.9740249999999975,
          "durationTicks": 300,
          "midi": 54,
          "name": "F#3",
          "ticks": 19690,
          "time": 63.92850750000001,
          "velocity": 0.7007874015748031
        },
        {
          "duration": 1.259738999999982,
          "durationTicks": 388,
          "midi": 66,
          "name": "F#4",
          "ticks": 19922,
          "time": 64.68175350000001,
          "velocity": 0.6535433070866141
        },
        {
          "duration": 0.09740249999998696,
          "durationTicks": 30,
          "midi": 54,
          "name": "F#3",
          "ticks": 20037,
          "time": 65.05512975,
          "velocity": 0.6220472440944882
        },
        {
          "duration": 0.37986974999999745,
          "durationTicks": 117,
          "midi": 62,
          "name": "D4",
          "ticks": 20040,
          "time": 65.06487,
          "velocity": 0.7165354330708661
        },
        {
          "duration": 2.818179000000015,
          "durationTicks": 868,
          "midi": 57,
          "name": "A3",
          "ticks": 20157,
          "time": 65.44473975,
          "velocity": 0.905511811023622
        },
        {
          "duration": 1.0551937499999866,
          "durationTicks": 325,
          "midi": 54,
          "name": "F#3",
          "ticks": 20162,
          "time": 65.46097350000001,
          "velocity": 0.7322834645669292
        },
        {
          "duration": 0.4805189999999868,
          "durationTicks": 148,
          "midi": 61,
          "name": "C#4",
          "ticks": 20282,
          "time": 65.85058350000001,
          "velocity": 0.7637795275590551
        },
        {
          "duration": 0.9740249999999975,
          "durationTicks": 300,
          "midi": 66,
          "name": "F#4",
          "ticks": 20402,
          "time": 66.2401935,
          "velocity": 0.7322834645669292
        },
        {
          "duration": 1.3636350000000022,
          "durationTicks": 420,
          "midi": 61,
          "name": "C#4",
          "ticks": 20520,
          "time": 66.62331,
          "velocity": 0.7795275590551181
        },
        {
          "duration": 0.19480500000000234,
          "durationTicks": 60,
          "midi": 54,
          "name": "F#3",
          "ticks": 20527,
          "time": 66.64603725,
          "velocity": 0.6377952755905512
        },
        {
          "duration": 0.9740250000000117,
          "durationTicks": 300,
          "midi": 54,
          "name": "F#3",
          "ticks": 20647,
          "time": 67.03564725,
          "velocity": 0.6850393700787402
        },
        {
          "duration": 0.09740250000000117,
          "durationTicks": 30,
          "midi": 66,
          "name": "F#4",
          "ticks": 20770,
          "time": 67.43499750000001,
          "velocity": 0.5826771653543307
        },
        {
          "duration": 1.353894749999995,
          "durationTicks": 417,
          "midi": 66,
          "name": "F#4",
          "ticks": 20880,
          "time": 67.79214,
          "velocity": 0.7637795275590551
        },
        {
          "duration": 0.2824672499999963,
          "durationTicks": 87,
          "midi": 61,
          "name": "C#4",
          "ticks": 21000,
          "time": 68.18175000000001,
          "velocity": 0.7952755905511811
        },
        {
          "duration": 0.19480499999998813,
          "durationTicks": 60,
          "midi": 54,
          "name": "F#3",
          "ticks": 21002,
          "time": 68.18824350000001,
          "velocity": 0.7007874015748031
        },
        {
          "duration": 0.9675314999999927,
          "durationTicks": 298,
          "midi": 54,
          "name": "F#3",
          "ticks": 21122,
          "time": 68.5778535,
          "velocity": 0.6850393700787402
        },
        {
          "duration": 2.428568999999996,
          "durationTicks": 748,
          "midi": 57,
          "name": "A3",
          "ticks": 21122,
          "time": 68.5778535,
          "velocity": 0.8582677165354331
        },
        {
          "duration": 0.48051900000000103,
          "durationTicks": 148,
          "midi": 60,
          "name": "C4",
          "ticks": 21242,
          "time": 68.96746350000001,
          "velocity": 0.5196850393700787
        },
        {
          "duration": 0.9642847499999903,
          "durationTicks": 297,
          "midi": 66,
          "name": "F#4",
          "ticks": 21360,
          "time": 69.35058000000001,
          "velocity": 0.7322834645669292
        },
        {
          "duration": 0.8701290000000057,
          "durationTicks": 268,
          "midi": 60,
          "name": "C4",
          "ticks": 21477,
          "time": 69.73044975,
          "velocity": 0.7480314960629921
        },
        {
          "duration": 0.09740250000000117,
          "durationTicks": 30,
          "midi": 54,
          "name": "F#3",
          "ticks": 21495,
          "time": 69.78889125,
          "velocity": 0.6220472440944882
        },
        {
          "duration": 0.9740249999999975,
          "durationTicks": 300,
          "midi": 54,
          "name": "F#3",
          "ticks": 21607,
          "time": 70.15252725,
          "velocity": 0.7007874015748031
        },
        {
          "duration": 1.0649339999999938,
          "durationTicks": 328,
          "midi": 66,
          "name": "F#4",
          "ticks": 21722,
          "time": 70.52590350000001,
          "velocity": 0.7322834645669292
        },
        {
          "duration": 0.48701250000000584,
          "durationTicks": 150,
          "midi": 60,
          "name": "C4",
          "ticks": 21840,
          "time": 70.90902,
          "velocity": 0.6377952755905512
        },
        {
          "duration": 0.2922075000000035,
          "durationTicks": 90,
          "midi": 57,
          "name": "A3",
          "ticks": 21960,
          "time": 71.29863,
          "velocity": 0.952755905511811
        },
        {
          "duration": 1.2662324999999868,
          "durationTicks": 390,
          "midi": 54,
          "name": "F#3",
          "ticks": 22085,
          "time": 71.70447375,
          "velocity": 0.7322834645669292
        },
        {
          "duration": 1.3636350000000022,
          "durationTicks": 420,
          "midi": 57,
          "name": "A3",
          "ticks": 22102,
          "time": 71.7596685,
          "velocity": 0.905511811023622
        },
        {
          "duration": 0.3896100000000047,
          "durationTicks": 120,
          "midi": 63,
          "name": "D#4",
          "ticks": 22200,
          "time": 72.07785,
          "velocity": 0.6850393700787402
        },
        {
          "duration": 0.9642847500000045,
          "durationTicks": 297,
          "midi": 66,
          "name": "F#4",
          "ticks": 22320,
          "time": 72.46746,
          "velocity": 0.7795275590551181
        },
        {
          "duration": 0.4772722499999986,
          "durationTicks": 147,
          "midi": 63,
          "name": "D#4",
          "ticks": 22440,
          "time": 72.85707000000001,
          "velocity": 0.7165354330708661
        },
        {
          "duration": 1.607141249999998,
          "durationTicks": 495,
          "midi": 54,
          "name": "F#3",
          "ticks": 22550,
          "time": 73.2142125,
          "velocity": 0.905511811023622
        },
        {
          "duration": 1.4610375000000033,
          "durationTicks": 450,
          "midi": 59,
          "name": "B3",
          "ticks": 22575,
          "time": 73.29538125,
          "velocity": 0.905511811023622
        },
        {
          "duration": 0.48701250000000584,
          "durationTicks": 150,
          "midi": 63,
          "name": "D#4",
          "ticks": 22680,
          "time": 73.63629,
          "velocity": 0.5118110236220472
        },
        {
          "duration": 0.6753240000000034,
          "durationTicks": 208,
          "midi": 66,
          "name": "F#4",
          "ticks": 22797,
          "time": 74.01615975,
          "velocity": 0.7480314960629921
        },
        {
          "duration": 0.3896100000000047,
          "durationTicks": 120,
          "midi": 63,
          "name": "D#4",
          "ticks": 22922,
          "time": 74.4220035,
          "velocity": 0.5039370078740157
        },
        {
          "duration": 1.4220764999999886,
          "durationTicks": 438,
          "midi": 52,
          "name": "E3",
          "ticks": 23042,
          "time": 74.8116135,
          "velocity": 0.7480314960629921
        },
        {
          "duration": 1.7370112499999948,
          "durationTicks": 535,
          "midi": 59,
          "name": "B3",
          "ticks": 23160,
          "time": 75.19473,
          "velocity": 0.7322834645669292
        },
        {
          "duration": 1.3474012500000043,
          "durationTicks": 415,
          "midi": 64,
          "name": "E4",
          "ticks": 23280,
          "time": 75.58434,
          "velocity": 0.8110236220472441
        },
        {
          "duration": 1.337660999999997,
          "durationTicks": 412,
          "midi": 67,
          "name": "G4",
          "ticks": 23300,
          "time": 75.649275,
          "velocity": 0.7952755905511811
        },
        {
          "duration": 0.9155834999999968,
          "durationTicks": 282,
          "midi": 52,
          "name": "E3",
          "ticks": 23640,
          "time": 76.75317,
          "velocity": 0.7007874015748031
        },
        {
          "duration": 0.8603887499999985,
          "durationTicks": 265,
          "midi": 59,
          "name": "B3",
          "ticks": 23760,
          "time": 77.14278,
          "velocity": 0.7952755905511811
        },
        {
          "duration": 0.899349749999999,
          "durationTicks": 277,
          "midi": 67,
          "name": "G4",
          "ticks": 23760,
          "time": 77.14278,
          "velocity": 0.7952755905511811
        },
        {
          "duration": 0.5097397499999943,
          "durationTicks": 157,
          "midi": 64,
          "name": "E4",
          "ticks": 23880,
          "time": 77.53239,
          "velocity": 0.7952755905511811
        },
        {
          "duration": 1.7370112499999948,
          "durationTicks": 535,
          "midi": 50,
          "name": "D3",
          "ticks": 24002,
          "time": 77.9284935,
          "velocity": 0.7952755905511811
        },
        {
          "duration": 1.6720762500000035,
          "durationTicks": 515,
          "midi": 59,
          "name": "B3",
          "ticks": 24120,
          "time": 78.31161,
          "velocity": 0.6062992125984252
        },
        {
          "duration": 1.240258499999996,
          "durationTicks": 382,
          "midi": 64,
          "name": "E4",
          "ticks": 24240,
          "time": 78.70122,
          "velocity": 0.8110236220472441
        },
        {
          "duration": 1.2337650000000053,
          "durationTicks": 380,
          "midi": 67,
          "name": "G4",
          "ticks": 24267,
          "time": 78.78888225,
          "velocity": 0.6850393700787402
        },
        {
          "duration": 1.012985999999998,
          "durationTicks": 312,
          "midi": 50,
          "name": "D3",
          "ticks": 24600,
          "time": 79.87005,
          "velocity": 0.7637795275590551
        },
        {
          "duration": 0.9155834999999968,
          "durationTicks": 282,
          "midi": 59,
          "name": "B3",
          "ticks": 24720,
          "time": 80.25966,
          "velocity": 0.6220472440944882
        },
        {
          "duration": 1.038960000000003,
          "durationTicks": 320,
          "midi": 67,
          "name": "G4",
          "ticks": 24720,
          "time": 80.25966,
          "velocity": 0.8582677165354331
        },
        {
          "duration": 0.5194800000000015,
          "durationTicks": 160,
          "midi": 64,
          "name": "E4",
          "ticks": 24840,
          "time": 80.64927,
          "velocity": 0.5826771653543307
        },
        {
          "duration": 1.6818164999999965,
          "durationTicks": 518,
          "midi": 49,
          "name": "C#3",
          "ticks": 24962,
          "time": 81.04537350000001,
          "velocity": 0.7952755905511811
        },
        {
          "duration": 0.24999975000001484,
          "durationTicks": 77,
          "midi": 59,
          "name": "B3",
          "ticks": 25080,
          "time": 81.42849,
          "velocity": 0.7322834645669292
        },
        {
          "duration": 1.266232500000001,
          "durationTicks": 390,
          "midi": 61,
          "name": "C#4",
          "ticks": 25200,
          "time": 81.8181,
          "velocity": 0.84251968503937
        },
        {
          "duration": 1.2727260000000058,
          "durationTicks": 392,
          "midi": 64,
          "name": "E4",
          "ticks": 25205,
          "time": 81.83433375,
          "velocity": 0.7637795275590551
        },
        {
          "duration": 1.266232500000001,
          "durationTicks": 390,
          "midi": 67,
          "name": "G4",
          "ticks": 25220,
          "time": 81.88303499999999,
          "velocity": 0.5433070866141733
        },
        {
          "duration": 1.02921975000001,
          "durationTicks": 317,
          "midi": 49,
          "name": "C#3",
          "ticks": 25560,
          "time": 82.98693,
          "velocity": 0.7007874015748031
        },
        {
          "duration": 0.2337659999999886,
          "durationTicks": 72,
          "midi": 61,
          "name": "C#4",
          "ticks": 25680,
          "time": 83.37654,
          "velocity": 0.5433070866141733
        },
        {
          "duration": 0.7954537500000072,
          "durationTicks": 245,
          "midi": 64,
          "name": "E4",
          "ticks": 25690,
          "time": 83.4090075,
          "velocity": 0.8267716535433071
        },
        {
          "duration": 0.7792200000000093,
          "durationTicks": 240,
          "midi": 67,
          "name": "G4",
          "ticks": 25697,
          "time": 83.43173475,
          "velocity": 0.7952755905511811
        },
        {
          "duration": 0.357142500000009,
          "durationTicks": 110,
          "midi": 61,
          "name": "C#4",
          "ticks": 25800,
          "time": 83.76615,
          "velocity": 0.7165354330708661
        },
        {
          "duration": 1.3896090000000072,
          "durationTicks": 428,
          "midi": 50,
          "name": "D3",
          "ticks": 25922,
          "time": 84.1622535,
          "velocity": 0.84251968503937
        },
        {
          "duration": 1.3149337499999945,
          "durationTicks": 405,
          "midi": 57,
          "name": "A3",
          "ticks": 26040,
          "time": 84.54537,
          "velocity": 0.6850393700787402
        },
        {
          "duration": 1.1103885000000133,
          "durationTicks": 342,
          "midi": 62,
          "name": "D4",
          "ticks": 26165,
          "time": 84.95121375,
          "velocity": 0.7637795275590551
        },
        {
          "duration": 1.178570250000007,
          "durationTicks": 363,
          "midi": 66,
          "name": "F#4",
          "ticks": 26172,
          "time": 84.973941,
          "velocity": 0.7795275590551181
        },
        {
          "duration": 1.5974009999999907,
          "durationTicks": 492,
          "midi": 50,
          "name": "D3",
          "ticks": 26400,
          "time": 85.7142,
          "velocity": 0.7322834645669292
        },
        {
          "duration": 0.7564927500000067,
          "durationTicks": 233,
          "midi": 57,
          "name": "A3",
          "ticks": 26642,
          "time": 86.4999135,
          "velocity": 0.4094488188976378
        },
        {
          "duration": 0.7564927500000067,
          "durationTicks": 233,
          "midi": 62,
          "name": "D4",
          "ticks": 26642,
          "time": 86.4999135,
          "velocity": 0.7480314960629921
        },
        {
          "duration": 0.7467524999999995,
          "durationTicks": 230,
          "midi": 66,
          "name": "F#4",
          "ticks": 26642,
          "time": 86.4999135,
          "velocity": 0.8110236220472441
        },
        {
          "duration": 0.6168824999999885,
          "durationTicks": 190,
          "midi": 57,
          "name": "A3",
          "ticks": 26882,
          "time": 87.27913350000001,
          "velocity": 0.7637795275590551
        },
        {
          "duration": 0.7467525000000137,
          "durationTicks": 230,
          "midi": 62,
          "name": "D4",
          "ticks": 26885,
          "time": 87.28887375,
          "velocity": 0.6850393700787402
        },
        {
          "duration": 0.7207785000000086,
          "durationTicks": 222,
          "midi": 66,
          "name": "F#4",
          "ticks": 26900,
          "time": 87.337575,
          "velocity": 0.7480314960629921
        },
        {
          "duration": 0.568181249999995,
          "durationTicks": 175,
          "midi": 57,
          "name": "A3",
          "ticks": 27100,
          "time": 87.986925,
          "velocity": 0.7007874015748031
        },
        {
          "duration": 0.6168825000000027,
          "durationTicks": 190,
          "midi": 62,
          "name": "D4",
          "ticks": 27132,
          "time": 88.090821,
          "velocity": 0.7795275590551181
        },
        {
          "duration": 0.25324650000000304,
          "durationTicks": 78,
          "midi": 66,
          "name": "F#4",
          "ticks": 27147,
          "time": 88.13952225,
          "velocity": 0.6062992125984252
        },
        {
          "duration": 1.0324665000000124,
          "durationTicks": 318,
          "midi": 66,
          "name": "F#4",
          "ticks": 27252,
          "time": 88.480431,
          "velocity": 0.7480314960629921
        },
        {
          "duration": 1.256492250000008,
          "durationTicks": 387,
          "midi": 57,
          "name": "A3",
          "ticks": 27335,
          "time": 88.74991125,
          "velocity": 0.7952755905511811
        },
        {
          "duration": 1.3149337500000087,
          "durationTicks": 405,
          "midi": 61,
          "name": "C#4",
          "ticks": 27355,
          "time": 88.81484625,
          "velocity": 0.7322834645669292
        },
        {
          "duration": 1.389608999999993,
          "durationTicks": 428,
          "midi": 66,
          "name": "F#4",
          "ticks": 27602,
          "time": 89.61679350000001,
          "velocity": 0.7165354330708661
        },
        {
          "duration": 1.499998500000018,
          "durationTicks": 462,
          "midi": 57,
          "name": "A3",
          "ticks": 27830,
          "time": 90.3570525,
          "velocity": 0.84251968503937
        },
        {
          "duration": 0.6655837499999961,
          "durationTicks": 205,
          "midi": 60,
          "name": "C4",
          "ticks": 27842,
          "time": 90.39601350000001,
          "velocity": 0.7165354330708661
        },
        {
          "duration": 0.7305187499999874,
          "durationTicks": 225,
          "midi": 60,
          "name": "C4",
          "ticks": 28077,
          "time": 91.15899975,
          "velocity": 0.6614173228346457
        },
        {
          "duration": 0.5746747499999998,
          "durationTicks": 177,
          "midi": 64,
          "name": "E4",
          "ticks": 28100,
          "time": 91.233675,
          "velocity": 0.8110236220472441
        },
        {
          "duration": 0.6006487500000048,
          "durationTicks": 185,
          "midi": 57,
          "name": "A3",
          "ticks": 28300,
          "time": 91.883025,
          "velocity": 0.7322834645669292
        },
        {
          "duration": 1.461037499999989,
          "durationTicks": 450,
          "midi": 60,
          "name": "C4",
          "ticks": 28320,
          "time": 91.94796000000001,
          "velocity": 0.5669291338582677
        },
        {
          "duration": 0.5941552500000142,
          "durationTicks": 183,
          "midi": 63,
          "name": "D#4",
          "ticks": 28332,
          "time": 91.986921,
          "velocity": 0.7322834645669292
        },
        {
          "duration": 0.568181249999995,
          "durationTicks": 175,
          "midi": 57,
          "name": "A3",
          "ticks": 28542,
          "time": 92.6687385,
          "velocity": 0.7952755905511811
        },
        {
          "duration": 0.5746747499999998,
          "durationTicks": 177,
          "midi": 63,
          "name": "D#4",
          "ticks": 28560,
          "time": 92.72718,
          "velocity": 0.5984251968503937
        },
        {
          "duration": 1.2824662499999988,
          "durationTicks": 395,
          "midi": 59,
          "name": "B3",
          "ticks": 28777,
          "time": 93.43172475,
          "velocity": 0.7637795275590551
        },
        {
          "duration": 0.9577912499999996,
          "durationTicks": 295,
          "midi": 62,
          "name": "D4",
          "ticks": 28802,
          "time": 93.5128935,
          "velocity": 0.7952755905511811
        },
        {
          "duration": 0.6331162500000005,
          "durationTicks": 195,
          "midi": 67,
          "name": "G4",
          "ticks": 28825,
          "time": 93.58756875,
          "velocity": 0.7795275590551181
        },
        {
          "duration": 0.48701249999999163,
          "durationTicks": 150,
          "midi": 67,
          "name": "G4",
          "ticks": 29042,
          "time": 94.29211350000001,
          "velocity": 0.7795275590551181
        },
        {
          "duration": 0.2857139999999987,
          "durationTicks": 88,
          "midi": 62,
          "name": "D4",
          "ticks": 29162,
          "time": 94.6817235,
          "velocity": 0.7165354330708661
        },
        {
          "duration": 1.4220764999999886,
          "durationTicks": 438,
          "midi": 59,
          "name": "B3",
          "ticks": 29252,
          "time": 94.97393100000001,
          "velocity": 0.7795275590551181
        },
        {
          "duration": 0.8831160000000011,
          "durationTicks": 272,
          "midi": 62,
          "name": "D4",
          "ticks": 29280,
          "time": 95.06484,
          "velocity": 0.905511811023622
        },
        {
          "duration": 0.6396097500000053,
          "durationTicks": 197,
          "midi": 66,
          "name": "F#4",
          "ticks": 29300,
          "time": 95.129775,
          "velocity": 0.5748031496062992
        },
        {
          "duration": 0.49675274999999885,
          "durationTicks": 153,
          "midi": 66,
          "name": "F#4",
          "ticks": 29522,
          "time": 95.8505535,
          "velocity": 0.6062992125984252
        },
        {
          "duration": 0.30844125000000133,
          "durationTicks": 95,
          "midi": 62,
          "name": "D4",
          "ticks": 29642,
          "time": 96.24016350000001,
          "velocity": 0.7165354330708661
        },
        {
          "duration": 1.2012974999999955,
          "durationTicks": 370,
          "midi": 55,
          "name": "G3",
          "ticks": 29767,
          "time": 96.64600725000001,
          "velocity": 0.7795275590551181
        },
        {
          "duration": 0.4610385000000008,
          "durationTicks": 142,
          "midi": 58,
          "name": "A#3",
          "ticks": 29880,
          "time": 97.01289,
          "velocity": 0.6377952755905512
        },
        {
          "duration": 0.5616877500000044,
          "durationTicks": 173,
          "midi": 64,
          "name": "E4",
          "ticks": 30002,
          "time": 97.40899350000001,
          "velocity": 0.905511811023622
        },
        {
          "duration": 1.3409077499999853,
          "durationTicks": 413,
          "midi": 55,
          "name": "G3",
          "ticks": 30182,
          "time": 97.99340850000002,
          "velocity": 0.84251968503937
        },
        {
          "duration": 0.36688275000000203,
          "durationTicks": 113,
          "midi": 58,
          "name": "A#3",
          "ticks": 30227,
          "time": 98.13951225000001,
          "velocity": 0.5826771653543307
        },
        {
          "duration": 0.38311649999999986,
          "durationTicks": 118,
          "midi": 64,
          "name": "E4",
          "ticks": 30242,
          "time": 98.1882135,
          "velocity": 0.7874015748031497
        },
        {
          "duration": 0.9155834999999968,
          "durationTicks": 282,
          "midi": 58,
          "name": "A#3",
          "ticks": 30360,
          "time": 98.57133,
          "velocity": 0.7322834645669292
        },
        {
          "duration": 0.9577912499999996,
          "durationTicks": 295,
          "midi": 64,
          "name": "E4",
          "ticks": 30407,
          "time": 98.72392725,
          "velocity": 0.7795275590551181
        },
        {
          "duration": 0.8668822500000175,
          "durationTicks": 267,
          "midi": 67,
          "name": "G4",
          "ticks": 30465,
          "time": 98.91223875,
          "velocity": 0.7165354330708661
        },
        {
          "duration": 0.7305187500000017,
          "durationTicks": 225,
          "midi": 57,
          "name": "A3",
          "ticks": 30667,
          "time": 99.56808225,
          "velocity": 0.8110236220472441
        },
        {
          "duration": 0.8344147499999934,
          "durationTicks": 257,
          "midi": 62,
          "name": "D4",
          "ticks": 30690,
          "time": 99.6427575,
          "velocity": 0.6692913385826772
        },
        {
          "duration": 1.2435052499999983,
          "durationTicks": 383,
          "midi": 66,
          "name": "F#4",
          "ticks": 30722,
          "time": 99.7466535,
          "velocity": 0.7795275590551181
        },
        {
          "duration": 1.3636350000000022,
          "durationTicks": 420,
          "midi": 57,
          "name": "A3",
          "ticks": 30965,
          "time": 100.53561375000001,
          "velocity": 0.952755905511811
        },
        {
          "duration": 0.6396097499999911,
          "durationTicks": 197,
          "midi": 62,
          "name": "D4",
          "ticks": 31080,
          "time": 100.90899,
          "velocity": 0.6377952755905512
        },
        {
          "duration": 1.0454534999999936,
          "durationTicks": 322,
          "midi": 66,
          "name": "F#4",
          "ticks": 31200,
          "time": 101.29860000000001,
          "velocity": 0.7165354330708661
        },
        {
          "duration": 0.2987009999999941,
          "durationTicks": 92,
          "midi": 62,
          "name": "D4",
          "ticks": 31325,
          "time": 101.70444375000001,
          "velocity": 0.7165354330708661
        },
        {
          "duration": 0.49350599999999645,
          "durationTicks": 152,
          "midi": 57,
          "name": "A3",
          "ticks": 31445,
          "time": 102.09405375000001,
          "velocity": 0.952755905511811
        },
        {
          "duration": 0.6883109999999846,
          "durationTicks": 212,
          "midi": 62,
          "name": "D4",
          "ticks": 31445,
          "time": 102.09405375000001,
          "velocity": 0.84251968503937
        },
        {
          "duration": 0.25974000000000785,
          "durationTicks": 80,
          "midi": 66,
          "name": "F#4",
          "ticks": 31560,
          "time": 102.46743000000001,
          "velocity": 0.6377952755905512
        },
        {
          "duration": 1.3311675000000065,
          "durationTicks": 410,
          "midi": 57,
          "name": "A3",
          "ticks": 31682,
          "time": 102.8635335,
          "velocity": 0.7559055118110236
        },
        {
          "duration": 0.6493499999999983,
          "durationTicks": 200,
          "midi": 62,
          "name": "D4",
          "ticks": 31682,
          "time": 102.8635335,
          "velocity": 0.7637795275590551
        },
        {
          "duration": 0.2857139999999987,
          "durationTicks": 88,
          "midi": 67,
          "name": "G4",
          "ticks": 31682,
          "time": 102.8635335,
          "velocity": 0.8582677165354331
        },
        {
          "duration": 0.5519474999999829,
          "durationTicks": 170,
          "midi": 64,
          "name": "E4",
          "ticks": 31805,
          "time": 103.26288375000001,
          "velocity": 0.6929133858267716
        },
        {
          "duration": 0.6720772499999867,
          "durationTicks": 207,
          "midi": 62,
          "name": "D4",
          "ticks": 31925,
          "time": 103.65249375,
          "velocity": 0.905511811023622
        },
        {
          "duration": 0.16233750000000668,
          "durationTicks": 50,
          "midi": 67,
          "name": "G4",
          "ticks": 32040,
          "time": 104.02587,
          "velocity": 0.6929133858267716
        },
        {
          "duration": 0.7045447499999966,
          "durationTicks": 217,
          "midi": 57,
          "name": "A3",
          "ticks": 32160,
          "time": 104.41548,
          "velocity": 0.84251968503937
        },
        {
          "duration": 0.6103889999999978,
          "durationTicks": 188,
          "midi": 61,
          "name": "C#4",
          "ticks": 32162,
          "time": 104.4219735,
          "velocity": 0.905511811023622
        },
        {
          "duration": 1.0162327500000146,
          "durationTicks": 313,
          "midi": 64,
          "name": "E4",
          "ticks": 32162,
          "time": 104.4219735,
          "velocity": 0.7795275590551181
        },
        {
          "duration": 0.4123372500000073,
          "durationTicks": 127,
          "midi": 57,
          "name": "A3",
          "ticks": 32405,
          "time": 105.21093375000001,
          "velocity": 0.84251968503937
        },
        {
          "duration": 0.48701250000000584,
          "durationTicks": 150,
          "midi": 61,
          "name": "C#4",
          "ticks": 32405,
          "time": 105.21093375000001,
          "velocity": 0.952755905511811
        },
        {
          "duration": 0.18506475000000933,
          "durationTicks": 57,
          "midi": 64,
          "name": "E4",
          "ticks": 32520,
          "time": 105.58431,
          "velocity": 0.7165354330708661
        },
        {
          "duration": 0.8766224999999963,
          "durationTicks": 270,
          "midi": 62,
          "name": "D4",
          "ticks": 32580,
          "time": 105.779115,
          "velocity": 0.6535433070866141
        },
        {
          "duration": 0.6331162500000005,
          "durationTicks": 195,
          "midi": 59,
          "name": "B3",
          "ticks": 32642,
          "time": 105.9804135,
          "velocity": 0.5196850393700787
        },
        {
          "duration": 1.266232500000001,
          "durationTicks": 390,
          "midi": 67,
          "name": "G4",
          "ticks": 32642,
          "time": 105.9804135,
          "velocity": 0.5118110236220472
        },
        {
          "duration": 2.0844134999999824,
          "durationTicks": 642,
          "midi": 59,
          "name": "B3",
          "ticks": 32885,
          "time": 106.76937375000001,
          "velocity": 1
        },
        {
          "duration": 1.1298690000000136,
          "durationTicks": 348,
          "midi": 62,
          "name": "D4",
          "ticks": 33002,
          "time": 107.1492435,
          "velocity": 0.6535433070866141
        },
        {
          "duration": 1.509738750000011,
          "durationTicks": 465,
          "midi": 67,
          "name": "G4",
          "ticks": 33120,
          "time": 107.53236,
          "velocity": 0.84251968503937
        },
        {
          "duration": 0.6980512499999918,
          "durationTicks": 215,
          "midi": 62,
          "name": "D4",
          "ticks": 33365,
          "time": 108.32781375,
          "velocity": 0.6692913385826772
        },
        {
          "duration": 0.5616877500000044,
          "durationTicks": 173,
          "midi": 57,
          "name": "A3",
          "ticks": 33602,
          "time": 109.09729349999999,
          "velocity": 0.7086614173228346
        },
        {
          "duration": 0.5194800000000157,
          "durationTicks": 160,
          "midi": 62,
          "name": "D4",
          "ticks": 33602,
          "time": 109.09729349999999,
          "velocity": 0.7795275590551181
        },
        {
          "duration": 0.6655837500000246,
          "durationTicks": 205,
          "midi": 66,
          "name": "F#4",
          "ticks": 33602,
          "time": 109.09729349999999,
          "velocity": 0.7086614173228346
        },
        {
          "duration": 1.3863622500000048,
          "durationTicks": 427,
          "midi": 57,
          "name": "A3",
          "ticks": 33845,
          "time": 109.88625375000001,
          "velocity": 0.952755905511811
        },
        {
          "duration": 0.2337659999999886,
          "durationTicks": 72,
          "midi": 62,
          "name": "D4",
          "ticks": 33845,
          "time": 109.88625375000001,
          "velocity": 0.6535433070866141
        },
        {
          "duration": 1.064934000000008,
          "durationTicks": 328,
          "midi": 62,
          "name": "D4",
          "ticks": 33962,
          "time": 110.26612349999999,
          "velocity": 0.6850393700787402
        },
        {
          "duration": 0.9675315000000069,
          "durationTicks": 298,
          "midi": 54,
          "name": "F#3",
          "ticks": 46082,
          "time": 149.6167335,
          "velocity": 0.7086614173228346
        },
        {
          "duration": 2.8246724999999913,
          "durationTicks": 870,
          "midi": 57,
          "name": "A3",
          "ticks": 46090,
          "time": 149.6427075,
          "velocity": 0.7874015748031497
        },
        {
          "duration": 0.37986975000001166,
          "durationTicks": 117,
          "midi": 62,
          "name": "D4",
          "ticks": 46200,
          "time": 149.99985,
          "velocity": 0.6299212598425197
        },
        {
          "duration": 1.266232500000001,
          "durationTicks": 390,
          "midi": 66,
          "name": "F#4",
          "ticks": 46320,
          "time": 150.38946,
          "velocity": 0.7401574803149606
        },
        {
          "duration": 0.681817499999994,
          "durationTicks": 210,
          "midi": 62,
          "name": "D4",
          "ticks": 46440,
          "time": 150.77907000000002,
          "velocity": 0.7401574803149606
        },
        {
          "duration": 0.1850647499999809,
          "durationTicks": 57,
          "midi": 54,
          "name": "F#3",
          "ticks": 46445,
          "time": 150.79530375000002,
          "velocity": 0.6299212598425197
        },
        {
          "duration": 0.9740250000000117,
          "durationTicks": 300,
          "midi": 54,
          "name": "F#3",
          "ticks": 46570,
          "time": 151.2011475,
          "velocity": 0.7086614173228346
        },
        {
          "duration": 1.2597389999999962,
          "durationTicks": 388,
          "midi": 66,
          "name": "F#4",
          "ticks": 46802,
          "time": 151.9543935,
          "velocity": 0.6614173228346457
        },
        {
          "duration": 0.09740249999998696,
          "durationTicks": 30,
          "midi": 54,
          "name": "F#3",
          "ticks": 46917,
          "time": 152.32776975000002,
          "velocity": 0.6299212598425197
        },
        {
          "duration": 0.3896100000000047,
          "durationTicks": 120,
          "midi": 62,
          "name": "D4",
          "ticks": 46920,
          "time": 152.33751,
          "velocity": 0.7244094488188977
        },
        {
          "duration": 2.8181789999999864,
          "durationTicks": 868,
          "midi": 57,
          "name": "A3",
          "ticks": 47037,
          "time": 152.71737975000002,
          "velocity": 0.9133858267716536
        },
        {
          "duration": 1.0649340000000223,
          "durationTicks": 328,
          "midi": 54,
          "name": "F#3",
          "ticks": 47042,
          "time": 152.7336135,
          "velocity": 0.7401574803149606
        },
        {
          "duration": 0.48701249999999163,
          "durationTicks": 150,
          "midi": 61,
          "name": "C#4",
          "ticks": 47162,
          "time": 153.1232235,
          "velocity": 0.7716535433070866
        },
        {
          "duration": 0.9675315000000069,
          "durationTicks": 298,
          "midi": 66,
          "name": "F#4",
          "ticks": 47282,
          "time": 153.5128335,
          "velocity": 0.7401574803149606
        },
        {
          "duration": 1.3636350000000164,
          "durationTicks": 420,
          "midi": 61,
          "name": "C#4",
          "ticks": 47400,
          "time": 153.89595,
          "velocity": 0.7874015748031497
        },
        {
          "duration": 0.19480500000000234,
          "durationTicks": 60,
          "midi": 54,
          "name": "F#3",
          "ticks": 47407,
          "time": 153.91867725,
          "velocity": 0.6456692913385826
        },
        {
          "duration": 0.9740250000000117,
          "durationTicks": 300,
          "midi": 54,
          "name": "F#3",
          "ticks": 47527,
          "time": 154.30828725,
          "velocity": 0.6929133858267716
        },
        {
          "duration": 0.09740249999998696,
          "durationTicks": 30,
          "midi": 66,
          "name": "F#4",
          "ticks": 47650,
          "time": 154.7076375,
          "velocity": 0.5905511811023622
        },
        {
          "duration": 1.363634999999988,
          "durationTicks": 420,
          "midi": 66,
          "name": "F#4",
          "ticks": 47760,
          "time": 155.06478,
          "velocity": 0.7716535433070866
        },
        {
          "duration": 0.2922074999999893,
          "durationTicks": 90,
          "midi": 61,
          "name": "C#4",
          "ticks": 47880,
          "time": 155.45439000000002,
          "velocity": 0.8031496062992126
        },
        {
          "duration": 0.19480500000000234,
          "durationTicks": 60,
          "midi": 54,
          "name": "F#3",
          "ticks": 47882,
          "time": 155.4608835,
          "velocity": 0.7086614173228346
        },
        {
          "duration": 0.9675315000000069,
          "durationTicks": 298,
          "midi": 54,
          "name": "F#3",
          "ticks": 48002,
          "time": 155.8504935,
          "velocity": 0.6929133858267716
        },
        {
          "duration": 2.42856900000001,
          "durationTicks": 748,
          "midi": 57,
          "name": "A3",
          "ticks": 48002,
          "time": 155.8504935,
          "velocity": 0.8661417322834646
        },
        {
          "duration": 0.48701249999999163,
          "durationTicks": 150,
          "midi": 60,
          "name": "C4",
          "ticks": 48122,
          "time": 156.2401035,
          "velocity": 0.5275590551181102
        },
        {
          "duration": 0.9740250000000117,
          "durationTicks": 300,
          "midi": 66,
          "name": "F#4",
          "ticks": 48240,
          "time": 156.62322,
          "velocity": 0.7401574803149606
        },
        {
          "duration": 0.8766224999999963,
          "durationTicks": 270,
          "midi": 60,
          "name": "C4",
          "ticks": 48357,
          "time": 157.00308975000002,
          "velocity": 0.7559055118110236
        },
        {
          "duration": 0.24999975000000063,
          "durationTicks": 77,
          "midi": 54,
          "name": "F#3",
          "ticks": 48375,
          "time": 157.06153125,
          "velocity": 0.6299212598425197
        },
        {
          "duration": 0.9740249999999833,
          "durationTicks": 300,
          "midi": 54,
          "name": "F#3",
          "ticks": 48487,
          "time": 157.42516725000002,
          "velocity": 0.7086614173228346
        },
        {
          "duration": 1.0714274999999986,
          "durationTicks": 330,
          "midi": 66,
          "name": "F#4",
          "ticks": 48602,
          "time": 157.7985435,
          "velocity": 0.7401574803149606
        },
        {
          "duration": 0.48701250000002005,
          "durationTicks": 150,
          "midi": 60,
          "name": "C4",
          "ticks": 48720,
          "time": 158.18166,
          "velocity": 0.6456692913385826
        },
        {
          "duration": 0.2922075000000177,
          "durationTicks": 90,
          "midi": 57,
          "name": "A3",
          "ticks": 48840,
          "time": 158.57127,
          "velocity": 0.9606299212598425
        },
        {
          "duration": 1.256492250000008,
          "durationTicks": 387,
          "midi": 54,
          "name": "F#3",
          "ticks": 48965,
          "time": 158.97711375,
          "velocity": 0.7401574803149606
        },
        {
          "duration": 1.3636350000000164,
          "durationTicks": 420,
          "midi": 57,
          "name": "A3",
          "ticks": 48982,
          "time": 159.0323085,
          "velocity": 0.9133858267716536
        },
        {
          "duration": 0.3896100000000047,
          "durationTicks": 120,
          "midi": 63,
          "name": "D#4",
          "ticks": 49080,
          "time": 159.35049,
          "velocity": 0.6929133858267716
        },
        {
          "duration": 0.9642847499999903,
          "durationTicks": 297,
          "midi": 66,
          "name": "F#4",
          "ticks": 49200,
          "time": 159.7401,
          "velocity": 0.7874015748031497
        },
        {
          "duration": 0.48701249999999163,
          "durationTicks": 150,
          "midi": 63,
          "name": "D#4",
          "ticks": 49320,
          "time": 160.12971000000002,
          "velocity": 0.7244094488188977
        },
        {
          "duration": 1.6071412499999838,
          "durationTicks": 495,
          "midi": 54,
          "name": "F#3",
          "ticks": 49430,
          "time": 160.48685250000003,
          "velocity": 0.9133858267716536
        },
        {
          "duration": 1.4610375000000033,
          "durationTicks": 450,
          "midi": 59,
          "name": "B3",
          "ticks": 49455,
          "time": 160.56802125000002,
          "velocity": 0.9133858267716536
        },
        {
          "duration": 0.48701250000002005,
          "durationTicks": 150,
          "midi": 63,
          "name": "D#4",
          "ticks": 49560,
          "time": 160.90893,
          "velocity": 0.5196850393700787
        },
        {
          "duration": 0.6753239999999892,
          "durationTicks": 208,
          "midi": 66,
          "name": "F#4",
          "ticks": 49677,
          "time": 161.28879975,
          "velocity": 0.7559055118110236
        },
        {
          "duration": 0.3993502499999977,
          "durationTicks": 123,
          "midi": 63,
          "name": "D#4",
          "ticks": 49802,
          "time": 161.6946435,
          "velocity": 0.5118110236220472
        },
        {
          "duration": 1.4285700000000077,
          "durationTicks": 440,
          "midi": 52,
          "name": "E3",
          "ticks": 49922,
          "time": 162.0842535,
          "velocity": 0.7559055118110236
        },
        {
          "duration": 1.7370112499999948,
          "durationTicks": 535,
          "midi": 59,
          "name": "B3",
          "ticks": 50040,
          "time": 162.46737000000002,
          "velocity": 0.7401574803149606
        },
        {
          "duration": 1.3474012500000185,
          "durationTicks": 415,
          "midi": 64,
          "name": "E4",
          "ticks": 50160,
          "time": 162.85698,
          "velocity": 0.8188976377952756
        },
        {
          "duration": 1.3311674999999923,
          "durationTicks": 410,
          "midi": 67,
          "name": "G4",
          "ticks": 50180,
          "time": 162.921915,
          "velocity": 0.8031496062992126
        },
        {
          "duration": 0.9253237499999898,
          "durationTicks": 285,
          "midi": 52,
          "name": "E3",
          "ticks": 50520,
          "time": 164.02581,
          "velocity": 0.7086614173228346
        },
        {
          "duration": 0.8603887499999985,
          "durationTicks": 265,
          "midi": 59,
          "name": "B3",
          "ticks": 50640,
          "time": 164.41542,
          "velocity": 0.8031496062992126
        },
        {
          "duration": 0.8928562500000226,
          "durationTicks": 275,
          "midi": 67,
          "name": "G4",
          "ticks": 50642,
          "time": 164.4219135,
          "velocity": 0.8031496062992126
        },
        {
          "duration": 0.5097397499999943,
          "durationTicks": 157,
          "midi": 64,
          "name": "E4",
          "ticks": 50760,
          "time": 164.80503000000002,
          "velocity": 0.8031496062992126
        },
        {
          "duration": 1.7370112500000232,
          "durationTicks": 535,
          "midi": 50,
          "name": "D3",
          "ticks": 50882,
          "time": 165.2011335,
          "velocity": 0.8031496062992126
        },
        {
          "duration": 1.6720762500000035,
          "durationTicks": 515,
          "midi": 59,
          "name": "B3",
          "ticks": 51000,
          "time": 165.58425,
          "velocity": 0.6141732283464567
        },
        {
          "duration": 1.2499987500000032,
          "durationTicks": 385,
          "midi": 64,
          "name": "E4",
          "ticks": 51120,
          "time": 165.97386,
          "velocity": 0.8188976377952756
        },
        {
          "duration": 1.2435052499999983,
          "durationTicks": 383,
          "midi": 67,
          "name": "G4",
          "ticks": 51147,
          "time": 166.06152225000002,
          "velocity": 0.6929133858267716
        },
        {
          "duration": 1.0129860000000122,
          "durationTicks": 312,
          "midi": 50,
          "name": "D3",
          "ticks": 51480,
          "time": 167.14269000000002,
          "velocity": 0.7716535433070866
        },
        {
          "duration": 0.9155835000000252,
          "durationTicks": 282,
          "midi": 59,
          "name": "B3",
          "ticks": 51600,
          "time": 167.5323,
          "velocity": 0.6299212598425197
        },
        {
          "duration": 1.0324665000000266,
          "durationTicks": 318,
          "midi": 67,
          "name": "G4",
          "ticks": 51602,
          "time": 167.5387935,
          "velocity": 0.8661417322834646
        },
        {
          "duration": 0.5097397500000227,
          "durationTicks": 157,
          "midi": 64,
          "name": "E4",
          "ticks": 51720,
          "time": 167.92191,
          "velocity": 0.5905511811023622
        },
        {
          "duration": 1.6818164999999965,
          "durationTicks": 518,
          "midi": 49,
          "name": "C#3",
          "ticks": 51842,
          "time": 168.3180135,
          "velocity": 0.8031496062992126
        },
        {
          "duration": 0.24999975000000063,
          "durationTicks": 77,
          "midi": 59,
          "name": "B3",
          "ticks": 51960,
          "time": 168.70113,
          "velocity": 0.7401574803149606
        },
        {
          "duration": 1.266232500000001,
          "durationTicks": 390,
          "midi": 61,
          "name": "C#4",
          "ticks": 52080,
          "time": 169.09074,
          "velocity": 0.8503937007874016
        },
        {
          "duration": 1.2824662499999988,
          "durationTicks": 395,
          "midi": 64,
          "name": "E4",
          "ticks": 52085,
          "time": 169.10697375,
          "velocity": 0.7716535433070866
        },
        {
          "duration": 1.2727260000000058,
          "durationTicks": 392,
          "midi": 67,
          "name": "G4",
          "ticks": 52100,
          "time": 169.155675,
          "velocity": 0.5511811023622047
        },
        {
          "duration": 1.038960000000003,
          "durationTicks": 320,
          "midi": 49,
          "name": "C#3",
          "ticks": 52440,
          "time": 170.25957,
          "velocity": 0.7086614173228346
        },
        {
          "duration": 0.227272499999998,
          "durationTicks": 70,
          "midi": 61,
          "name": "C#4",
          "ticks": 52560,
          "time": 170.64918,
          "velocity": 0.5511811023622047
        },
        {
          "duration": 0.7954537500000072,
          "durationTicks": 245,
          "midi": 64,
          "name": "E4",
          "ticks": 52570,
          "time": 170.6816475,
          "velocity": 0.8346456692913385
        },
        {
          "duration": 0.7792200000000093,
          "durationTicks": 240,
          "midi": 67,
          "name": "G4",
          "ticks": 52577,
          "time": 170.70437475,
          "velocity": 0.8031496062992126
        },
        {
          "duration": 0.357142500000009,
          "durationTicks": 110,
          "midi": 61,
          "name": "C#4",
          "ticks": 52680,
          "time": 171.03879,
          "velocity": 0.7244094488188977
        },
        {
          "duration": 1.3896090000000072,
          "durationTicks": 428,
          "midi": 50,
          "name": "D3",
          "ticks": 52802,
          "time": 171.4348935,
          "velocity": 0.8503937007874016
        },
        {
          "duration": 1.3149337499999945,
          "durationTicks": 405,
          "midi": 57,
          "name": "A3",
          "ticks": 52920,
          "time": 171.81801000000002,
          "velocity": 0.6929133858267716
        },
        {
          "duration": 1.1103884999999707,
          "durationTicks": 342,
          "midi": 62,
          "name": "D4",
          "ticks": 53045,
          "time": 172.22385375000002,
          "velocity": 0.7716535433070866
        },
        {
          "duration": 1.1785702499999786,
          "durationTicks": 363,
          "midi": 66,
          "name": "F#4",
          "ticks": 53052,
          "time": 172.24658100000002,
          "velocity": 0.7874015748031497
        },
        {
          "duration": 1.5909075000000144,
          "durationTicks": 490,
          "midi": 50,
          "name": "D3",
          "ticks": 53282,
          "time": 172.9933335,
          "velocity": 0.7401574803149606
        },
        {
          "duration": 0.76298625000004,
          "durationTicks": 235,
          "midi": 57,
          "name": "A3",
          "ticks": 53522,
          "time": 173.7725535,
          "velocity": 0.41732283464566927
        },
        {
          "duration": 0.7564927500000067,
          "durationTicks": 233,
          "midi": 62,
          "name": "D4",
          "ticks": 53522,
          "time": 173.7725535,
          "velocity": 0.7559055118110236
        },
        {
          "duration": 0.7564927500000067,
          "durationTicks": 233,
          "midi": 66,
          "name": "F#4",
          "ticks": 53522,
          "time": 173.7725535,
          "velocity": 0.8188976377952756
        },
        {
          "duration": 0.6071422500000097,
          "durationTicks": 187,
          "midi": 57,
          "name": "A3",
          "ticks": 53765,
          "time": 174.56151375000002,
          "velocity": 0.7952755905511811
        },
        {
          "duration": 0.7532459999999901,
          "durationTicks": 232,
          "midi": 62,
          "name": "D4",
          "ticks": 53765,
          "time": 174.56151375000002,
          "velocity": 0.7165354330708661
        },
        {
          "duration": 0.7207784999999944,
          "durationTicks": 222,
          "midi": 66,
          "name": "F#4",
          "ticks": 53780,
          "time": 174.610215,
          "velocity": 0.7795275590551181
        },
        {
          "duration": 0.5681812500000092,
          "durationTicks": 175,
          "midi": 57,
          "name": "A3",
          "ticks": 53980,
          "time": 175.259565,
          "velocity": 0.7322834645669292
        },
        {
          "duration": 0.6266227499999957,
          "durationTicks": 193,
          "midi": 62,
          "name": "D4",
          "ticks": 54012,
          "time": 175.363461,
          "velocity": 0.8110236220472441
        },
        {
          "duration": 0.25324649999998883,
          "durationTicks": 78,
          "midi": 66,
          "name": "F#4",
          "ticks": 54027,
          "time": 175.41216225000002,
          "velocity": 0.6377952755905512
        },
        {
          "duration": 1.0324664999999982,
          "durationTicks": 318,
          "midi": 66,
          "name": "F#4",
          "ticks": 54132,
          "time": 175.753071,
          "velocity": 0.7795275590551181
        },
        {
          "duration": 1.2564922499999795,
          "durationTicks": 387,
          "midi": 57,
          "name": "A3",
          "ticks": 54215,
          "time": 176.02255125000002,
          "velocity": 0.8267716535433071
        },
        {
          "duration": 1.3149337499999945,
          "durationTicks": 405,
          "midi": 61,
          "name": "C#4",
          "ticks": 54235,
          "time": 176.08748625,
          "velocity": 0.7637795275590551
        },
        {
          "duration": 1.396102500000012,
          "durationTicks": 430,
          "midi": 66,
          "name": "F#4",
          "ticks": 54482,
          "time": 176.8894335,
          "velocity": 0.7480314960629921
        },
        {
          "duration": 0.811687500000005,
          "durationTicks": 250,
          "midi": 57,
          "name": "A3",
          "ticks": 54710,
          "time": 177.6296925,
          "velocity": 0.8740157480314961
        },
        {
          "duration": 0.681817499999994,
          "durationTicks": 210,
          "midi": 60,
          "name": "C4",
          "ticks": 54717,
          "time": 177.65241975,
          "velocity": 0.7480314960629921
        },
        {
          "duration": 0.7305187499999874,
          "durationTicks": 225,
          "midi": 60,
          "name": "C4",
          "ticks": 54957,
          "time": 178.43163975000002,
          "velocity": 0.6929133858267716
        },
        {
          "duration": 0.5746747499999856,
          "durationTicks": 177,
          "midi": 64,
          "name": "E4",
          "ticks": 54980,
          "time": 178.506315,
          "velocity": 0.84251968503937
        },
        {
          "duration": 0.5909085000000118,
          "durationTicks": 182,
          "midi": 57,
          "name": "A3",
          "ticks": 55180,
          "time": 179.155665,
          "velocity": 0.7637795275590551
        },
        {
          "duration": 1.4545439999999985,
          "durationTicks": 448,
          "midi": 60,
          "name": "C4",
          "ticks": 55202,
          "time": 179.2270935,
          "velocity": 0.5984251968503937
        },
        {
          "duration": 0.59415525,
          "durationTicks": 183,
          "midi": 63,
          "name": "D#4",
          "ticks": 55212,
          "time": 179.25956100000002,
          "velocity": 0.7637795275590551
        },
        {
          "duration": 0.5681812499999808,
          "durationTicks": 175,
          "midi": 57,
          "name": "A3",
          "ticks": 55422,
          "time": 179.9413785,
          "velocity": 0.8267716535433071
        },
        {
          "duration": 0.574674750000014,
          "durationTicks": 177,
          "midi": 63,
          "name": "D#4",
          "ticks": 55440,
          "time": 179.99982,
          "velocity": 0.6299212598425197
        },
        {
          "duration": 1.2824662500000272,
          "durationTicks": 395,
          "midi": 59,
          "name": "B3",
          "ticks": 55657,
          "time": 180.70436475,
          "velocity": 0.7952755905511811
        },
        {
          "duration": 0.9675315000000069,
          "durationTicks": 298,
          "midi": 62,
          "name": "D4",
          "ticks": 55682,
          "time": 180.78553349999999,
          "velocity": 0.8267716535433071
        },
        {
          "duration": 0.6396097500000053,
          "durationTicks": 197,
          "midi": 67,
          "name": "G4",
          "ticks": 55705,
          "time": 180.86020875,
          "velocity": 0.8110236220472441
        },
        {
          "duration": 0.49675275000001307,
          "durationTicks": 153,
          "midi": 67,
          "name": "G4",
          "ticks": 55922,
          "time": 181.5647535,
          "velocity": 0.8110236220472441
        },
        {
          "duration": 0.2857140000000129,
          "durationTicks": 88,
          "midi": 62,
          "name": "D4",
          "ticks": 56042,
          "time": 181.9543635,
          "velocity": 0.7480314960629921
        },
        {
          "duration": 1.4123362500000098,
          "durationTicks": 435,
          "midi": 59,
          "name": "B3",
          "ticks": 56132,
          "time": 182.246571,
          "velocity": 0.8110236220472441
        },
        {
          "duration": 0.8701289999999915,
          "durationTicks": 268,
          "midi": 62,
          "name": "D4",
          "ticks": 56162,
          "time": 182.3439735,
          "velocity": 0.937007874015748
        },
        {
          "duration": 0.6331162500000005,
          "durationTicks": 195,
          "midi": 66,
          "name": "F#4",
          "ticks": 56180,
          "time": 182.40241500000002,
          "velocity": 0.6062992125984252
        },
        {
          "duration": 0.48701249999999163,
          "durationTicks": 150,
          "midi": 66,
          "name": "F#4",
          "ticks": 56402,
          "time": 183.1231935,
          "velocity": 0.6377952755905512
        },
        {
          "duration": 0.30844125000001554,
          "durationTicks": 95,
          "midi": 62,
          "name": "D4",
          "ticks": 56522,
          "time": 183.5128035,
          "velocity": 0.7480314960629921
        },
        {
          "duration": 1.1915572500000167,
          "durationTicks": 367,
          "midi": 55,
          "name": "G3",
          "ticks": 56650,
          "time": 183.92838749999999,
          "velocity": 0.8110236220472441
        },
        {
          "duration": 0.4610385000000008,
          "durationTicks": 142,
          "midi": 58,
          "name": "A#3",
          "ticks": 56760,
          "time": 184.28553,
          "velocity": 0.6692913385826772
        },
        {
          "duration": 0.5616877500000044,
          "durationTicks": 173,
          "midi": 64,
          "name": "E4",
          "ticks": 56882,
          "time": 184.6816335,
          "velocity": 0.937007874015748
        },
        {
          "duration": 1.3409077499999853,
          "durationTicks": 413,
          "midi": 55,
          "name": "G3",
          "ticks": 57062,
          "time": 185.2660485,
          "velocity": 0.8740157480314961
        },
        {
          "duration": 0.37337625000003527,
          "durationTicks": 115,
          "midi": 58,
          "name": "A#3",
          "ticks": 57107,
          "time": 185.41215225,
          "velocity": 0.6141732283464567
        },
        {
          "duration": 0.38311649999999986,
          "durationTicks": 118,
          "midi": 64,
          "name": "E4",
          "ticks": 57122,
          "time": 185.4608535,
          "velocity": 0.8188976377952756
        },
        {
          "duration": 0.9253237499999898,
          "durationTicks": 285,
          "midi": 58,
          "name": "A#3",
          "ticks": 57240,
          "time": 185.84397,
          "velocity": 0.7637795275590551
        },
        {
          "duration": 0.9675315000000069,
          "durationTicks": 298,
          "midi": 64,
          "name": "E4",
          "ticks": 57287,
          "time": 185.99656725,
          "velocity": 0.8110236220472441
        },
        {
          "duration": 0.8668822500000317,
          "durationTicks": 267,
          "midi": 67,
          "name": "G4",
          "ticks": 57345,
          "time": 186.18487875,
          "velocity": 0.7480314960629921
        },
        {
          "duration": 0.7305187500000159,
          "durationTicks": 225,
          "midi": 57,
          "name": "A3",
          "ticks": 57547,
          "time": 186.84072225,
          "velocity": 0.84251968503937
        },
        {
          "duration": 0.8344147499999792,
          "durationTicks": 257,
          "midi": 62,
          "name": "D4",
          "ticks": 57570,
          "time": 186.9153975,
          "velocity": 0.7007874015748031
        },
        {
          "duration": 1.2337650000000053,
          "durationTicks": 380,
          "midi": 66,
          "name": "F#4",
          "ticks": 57602,
          "time": 187.0192935,
          "velocity": 0.7874015748031497
        },
        {
          "duration": 1.3636350000000164,
          "durationTicks": 420,
          "midi": 57,
          "name": "A3",
          "ticks": 57845,
          "time": 187.80825375,
          "velocity": 0.9606299212598425
        },
        {
          "duration": 0.6396097499999769,
          "durationTicks": 197,
          "midi": 62,
          "name": "D4",
          "ticks": 57960,
          "time": 188.18163,
          "velocity": 0.6456692913385826
        },
        {
          "duration": 1.0454534999999794,
          "durationTicks": 322,
          "midi": 66,
          "name": "F#4",
          "ticks": 58080,
          "time": 188.57124000000002,
          "velocity": 0.7244094488188977
        },
        {
          "duration": 0.2987009999999941,
          "durationTicks": 92,
          "midi": 62,
          "name": "D4",
          "ticks": 58205,
          "time": 188.97708375000002,
          "velocity": 0.7244094488188977
        },
        {
          "duration": 0.49350599999999645,
          "durationTicks": 152,
          "midi": 57,
          "name": "A3",
          "ticks": 58325,
          "time": 189.36669375000002,
          "velocity": 0.9606299212598425
        },
        {
          "duration": 0.6883109999999704,
          "durationTicks": 212,
          "midi": 62,
          "name": "D4",
          "ticks": 58325,
          "time": 189.36669375000002,
          "velocity": 0.8503937007874016
        },
        {
          "duration": 0.25324650000001725,
          "durationTicks": 78,
          "midi": 66,
          "name": "F#4",
          "ticks": 58442,
          "time": 189.7465635,
          "velocity": 0.6456692913385826
        },
        {
          "duration": 1.3311674999999923,
          "durationTicks": 410,
          "midi": 57,
          "name": "A3",
          "ticks": 58562,
          "time": 190.1361735,
          "velocity": 0.7637795275590551
        },
        {
          "duration": 0.6396097500000053,
          "durationTicks": 197,
          "midi": 62,
          "name": "D4",
          "ticks": 58565,
          "time": 190.14591375,
          "velocity": 0.7716535433070866
        },
        {
          "duration": 0.27597374999999147,
          "durationTicks": 85,
          "midi": 67,
          "name": "G4",
          "ticks": 58565,
          "time": 190.14591375,
          "velocity": 0.8661417322834646
        },
        {
          "duration": 0.5519474999999829,
          "durationTicks": 170,
          "midi": 64,
          "name": "E4",
          "ticks": 58685,
          "time": 190.53552375,
          "velocity": 0.7007874015748031
        },
        {
          "duration": 0.681817499999994,
          "durationTicks": 210,
          "midi": 62,
          "name": "D4",
          "ticks": 58805,
          "time": 190.92513375000001,
          "velocity": 0.9133858267716536
        },
        {
          "duration": 0.16233750000000668,
          "durationTicks": 50,
          "midi": 67,
          "name": "G4",
          "ticks": 58920,
          "time": 191.29851,
          "velocity": 0.7007874015748031
        },
        {
          "duration": 0.6980512499999918,
          "durationTicks": 215,
          "midi": 57,
          "name": "A3",
          "ticks": 59042,
          "time": 191.6946135,
          "velocity": 0.8503937007874016
        },
        {
          "duration": 0.6103889999999978,
          "durationTicks": 188,
          "midi": 61,
          "name": "C#4",
          "ticks": 59042,
          "time": 191.6946135,
          "velocity": 0.9133858267716536
        },
        {
          "duration": 1.0162327500000004,
          "durationTicks": 313,
          "midi": 64,
          "name": "E4",
          "ticks": 59042,
          "time": 191.6946135,
          "velocity": 0.7874015748031497
        },
        {
          "duration": 0.4123372500000073,
          "durationTicks": 127,
          "midi": 57,
          "name": "A3",
          "ticks": 59285,
          "time": 192.48357375,
          "velocity": 0.8503937007874016
        },
        {
          "duration": 0.48701250000002005,
          "durationTicks": 150,
          "midi": 61,
          "name": "C#4",
          "ticks": 59285,
          "time": 192.48357375,
          "velocity": 0.9606299212598425
        },
        {
          "duration": 0.18506475000000933,
          "durationTicks": 57,
          "midi": 64,
          "name": "E4",
          "ticks": 59400,
          "time": 192.85695,
          "velocity": 0.7244094488188977
        },
        {
          "duration": 0.8766224999999963,
          "durationTicks": 270,
          "midi": 62,
          "name": "D4",
          "ticks": 59460,
          "time": 193.051755,
          "velocity": 0.6614173228346457
        },
        {
          "duration": 0.6331162500000005,
          "durationTicks": 195,
          "midi": 59,
          "name": "B3",
          "ticks": 59522,
          "time": 193.2530535,
          "velocity": 0.5275590551181102
        },
        {
          "duration": 1.266232500000001,
          "durationTicks": 390,
          "midi": 67,
          "name": "G4",
          "ticks": 59522,
          "time": 193.2530535,
          "velocity": 0.5196850393700787
        },
        {
          "duration": 2.0844134999999824,
          "durationTicks": 642,
          "midi": 59,
          "name": "B3",
          "ticks": 59765,
          "time": 194.04201375000002,
          "velocity": 1
        },
        {
          "duration": 1.1363625000000184,
          "durationTicks": 350,
          "midi": 62,
          "name": "D4",
          "ticks": 59880,
          "time": 194.41539,
          "velocity": 0.6614173228346457
        },
        {
          "duration": 1.5097387499999968,
          "durationTicks": 465,
          "midi": 67,
          "name": "G4",
          "ticks": 60000,
          "time": 194.805,
          "velocity": 0.8503937007874016
        },
        {
          "duration": 0.6980512499999918,
          "durationTicks": 215,
          "midi": 62,
          "name": "D4",
          "ticks": 60245,
          "time": 195.60045375,
          "velocity": 0.6771653543307087
        },
        {
          "duration": 0.5616877500000044,
          "durationTicks": 173,
          "midi": 57,
          "name": "A3",
          "ticks": 60482,
          "time": 196.3699335,
          "velocity": 0.7165354330708661
        },
        {
          "duration": 0.5194800000000157,
          "durationTicks": 160,
          "midi": 62,
          "name": "D4",
          "ticks": 60482,
          "time": 196.3699335,
          "velocity": 0.7874015748031497
        },
        {
          "duration": 0.6655837500000246,
          "durationTicks": 205,
          "midi": 66,
          "name": "F#4",
          "ticks": 60482,
          "time": 196.3699335,
          "velocity": 0.7165354330708661
        },
        {
          "duration": 1.386362250000019,
          "durationTicks": 427,
          "midi": 57,
          "name": "A3",
          "ticks": 60725,
          "time": 197.15889375,
          "velocity": 0.9606299212598425
        },
        {
          "duration": 0.2337660000000028,
          "durationTicks": 72,
          "midi": 62,
          "name": "D4",
          "ticks": 60725,
          "time": 197.15889375,
          "velocity": 0.6614173228346457
        },
        {
          "duration": 1.0649340000000223,
          "durationTicks": 328,
          "midi": 62,
          "name": "D4",
          "ticks": 60842,
          "time": 197.5387635,
          "velocity": 0.6929133858267716
        }
      ]
    },
    {
      "channel": 9,
      "controlChanges": {
        "7": [
          {
            "number": 7,
            "ticks": 360,
            "time": 1.16883,
            "value": 0.8503937007874016
          }
        ],
        "11": [
          {
            "number": 11,
            "ticks": 360,
            "time": 1.16883,
            "value": 1
          }
        ],
        "91": [
          {
            "number": 91,
            "ticks": 362,
            "time": 1.1753235,
            "value": 0.2755905511811024
          }
        ],
        "93": [
          {
            "number": 93,
            "ticks": 362,
            "time": 1.1753235,
            "value": 0
          }
        ]
      },
      "pitchBends": [],
      "instrument": {
        "family": "drums",
        "number": 0,
        "name": "standard kit"
      },
      "name": "",
      "notes": [
        {
          "duration": 0.022727249999999977,
          "durationTicks": 7,
          "midi": 42,
          "name": "F#2",
          "ticks": 960,
          "time": 3.11688,
          "velocity": 0.3937007874015748
        },
        {
          "duration": 0.022727249999999977,
          "durationTicks": 7,
          "midi": 42,
          "name": "F#2",
          "ticks": 1200,
          "time": 3.8961,
          "velocity": 0.31496062992125984
        },
        {
          "duration": 0.022727249999999977,
          "durationTicks": 7,
          "midi": 42,
          "name": "F#2",
          "ticks": 1440,
          "time": 4.67532,
          "velocity": 0.31496062992125984
        },
        {
          "duration": 0.022727250000000865,
          "durationTicks": 7,
          "midi": 42,
          "name": "F#2",
          "ticks": 1680,
          "time": 5.45454,
          "velocity": 0.31496062992125984
        },
        {
          "duration": 0.022727249999999977,
          "durationTicks": 7,
          "midi": 42,
          "name": "F#2",
          "ticks": 1925,
          "time": 6.249993750000001,
          "velocity": 0.30708661417322836
        },
        {
          "duration": 0.02597399999999972,
          "durationTicks": 8,
          "midi": 42,
          "name": "F#2",
          "ticks": 2042,
          "time": 6.6298635,
          "velocity": 0.2992125984251969
        },
        {
          "duration": 0.02597399999999972,
          "durationTicks": 8,
          "midi": 37,
          "name": "C#2",
          "ticks": 2162,
          "time": 7.0194735,
          "velocity": 0.6456692913385826
        },
        {
          "duration": 0.02597399999999972,
          "durationTicks": 8,
          "midi": 42,
          "name": "F#2",
          "ticks": 2162,
          "time": 7.0194735,
          "velocity": 0.2992125984251969
        },
        {
          "duration": 0.022727249999999977,
          "durationTicks": 7,
          "midi": 42,
          "name": "F#2",
          "ticks": 2285,
          "time": 7.4188237500000005,
          "velocity": 0.2125984251968504
        },
        {
          "duration": 0.02597399999999972,
          "durationTicks": 8,
          "midi": 42,
          "name": "F#2",
          "ticks": 2402,
          "time": 7.7986935,
          "velocity": 0.2755905511811024
        },
        {
          "duration": 0.02272724999999909,
          "durationTicks": 7,
          "midi": 42,
          "name": "F#2",
          "ticks": 2520,
          "time": 8.18181,
          "velocity": 0.23622047244094488
        },
        {
          "duration": 0.022727250000000865,
          "durationTicks": 7,
          "midi": 37,
          "name": "C#2",
          "ticks": 2640,
          "time": 8.57142,
          "velocity": 0.6614173228346457
        },
        {
          "duration": 0.02597399999999972,
          "durationTicks": 8,
          "midi": 42,
          "name": "F#2",
          "ticks": 2642,
          "time": 8.5779135,
          "velocity": 0.23622047244094488
        },
        {
          "duration": 0.02597399999999972,
          "durationTicks": 8,
          "midi": 42,
          "name": "F#2",
          "ticks": 2762,
          "time": 8.9675235,
          "velocity": 0.2755905511811024
        },
        {
          "duration": 0.02597399999999972,
          "durationTicks": 8,
          "midi": 42,
          "name": "F#2",
          "ticks": 2887,
          "time": 9.373367250000001,
          "velocity": 0.30708661417322836
        },
        {
          "duration": 0.025974000000001496,
          "durationTicks": 8,
          "midi": 42,
          "name": "F#2",
          "ticks": 3002,
          "time": 9.7467435,
          "velocity": 0.2992125984251969
        },
        {
          "duration": 0.02597399999999972,
          "durationTicks": 8,
          "midi": 37,
          "name": "C#2",
          "ticks": 3122,
          "time": 10.1363535,
          "velocity": 0.6456692913385826
        },
        {
          "duration": 0.02597399999999972,
          "durationTicks": 8,
          "midi": 42,
          "name": "F#2",
          "ticks": 3122,
          "time": 10.1363535,
          "velocity": 0.2992125984251969
        },
        {
          "duration": 0.02272724999999909,
          "durationTicks": 7,
          "midi": 42,
          "name": "F#2",
          "ticks": 3245,
          "time": 10.535703750000001,
          "velocity": 0.2125984251968504
        },
        {
          "duration": 0.02597399999999972,
          "durationTicks": 8,
          "midi": 42,
          "name": "F#2",
          "ticks": 3362,
          "time": 10.9155735,
          "velocity": 0.2755905511811024
        },
        {
          "duration": 0.02272724999999909,
          "durationTicks": 7,
          "midi": 42,
          "name": "F#2",
          "ticks": 3480,
          "time": 11.29869,
          "velocity": 0.23622047244094488
        },
        {
          "duration": 0.022727250000000865,
          "durationTicks": 7,
          "midi": 37,
          "name": "C#2",
          "ticks": 3600,
          "time": 11.6883,
          "velocity": 0.6614173228346457
        },
        {
          "duration": 0.022727250000000865,
          "durationTicks": 7,
          "midi": 42,
          "name": "F#2",
          "ticks": 3600,
          "time": 11.6883,
          "velocity": 0.23622047244094488
        },
        {
          "duration": 0.02597399999999972,
          "durationTicks": 8,
          "midi": 42,
          "name": "F#2",
          "ticks": 3722,
          "time": 12.0844035,
          "velocity": 0.2755905511811024
        },
        {
          "duration": 0.025974000000001496,
          "durationTicks": 8,
          "midi": 42,
          "name": "F#2",
          "ticks": 3847,
          "time": 12.49024725,
          "velocity": 0.30708661417322836
        },
        {
          "duration": 0.02272724999999909,
          "durationTicks": 7,
          "midi": 42,
          "name": "F#2",
          "ticks": 3960,
          "time": 12.85713,
          "velocity": 0.2992125984251969
        },
        {
          "duration": 0.025974000000001496,
          "durationTicks": 8,
          "midi": 37,
          "name": "C#2",
          "ticks": 4082,
          "time": 13.2532335,
          "velocity": 0.6456692913385826
        },
        {
          "duration": 0.025974000000001496,
          "durationTicks": 8,
          "midi": 42,
          "name": "F#2",
          "ticks": 4082,
          "time": 13.2532335,
          "velocity": 0.2992125984251969
        },
        {
          "duration": 0.022727250000000865,
          "durationTicks": 7,
          "midi": 42,
          "name": "F#2",
          "ticks": 4205,
          "time": 13.65258375,
          "velocity": 0.2125984251968504
        },
        {
          "duration": 0.02597399999999972,
          "durationTicks": 8,
          "midi": 42,
          "name": "F#2",
          "ticks": 4322,
          "time": 14.0324535,
          "velocity": 0.2755905511811024
        },
        {
          "duration": 0.02272724999999909,
          "durationTicks": 7,
          "midi": 42,
          "name": "F#2",
          "ticks": 4440,
          "time": 14.41557,
          "velocity": 0.23622047244094488
        },
        {
          "duration": 0.025974000000001496,
          "durationTicks": 8,
          "midi": 37,
          "name": "C#2",
          "ticks": 4562,
          "time": 14.8116735,
          "velocity": 0.6614173228346457
        },
        {
          "duration": 0.025974000000001496,
          "durationTicks": 8,
          "midi": 42,
          "name": "F#2",
          "ticks": 4562,
          "time": 14.8116735,
          "velocity": 0.23622047244094488
        },
        {
          "duration": 0.025974000000001496,
          "durationTicks": 8,
          "midi": 42,
          "name": "F#2",
          "ticks": 4682,
          "time": 15.2012835,
          "velocity": 0.2755905511811024
        },
        {
          "duration": 0.025974000000001496,
          "durationTicks": 8,
          "midi": 42,
          "name": "F#2",
          "ticks": 4807,
          "time": 15.60712725,
          "velocity": 0.2440944881889764
        },
        {
          "duration": 0.02272724999999909,
          "durationTicks": 7,
          "midi": 42,
          "name": "F#2",
          "ticks": 4920,
          "time": 15.97401,
          "velocity": 0.2125984251968504
        },
        {
          "duration": 0.02272724999999909,
          "durationTicks": 7,
          "midi": 37,
          "name": "C#2",
          "ticks": 5040,
          "time": 16.36362,
          "velocity": 0.6614173228346457
        },
        {
          "duration": 0.025974000000001496,
          "durationTicks": 8,
          "midi": 42,
          "name": "F#2",
          "ticks": 5042,
          "time": 16.3701135,
          "velocity": 0.2677165354330709
        },
        {
          "duration": 0.02272725000000264,
          "durationTicks": 7,
          "midi": 42,
          "name": "F#2",
          "ticks": 5165,
          "time": 16.76946375,
          "velocity": 0.2677165354330709
        },
        {
          "duration": 0.025974000000001496,
          "durationTicks": 8,
          "midi": 42,
          "name": "F#2",
          "ticks": 5282,
          "time": 17.1493335,
          "velocity": 0.2204724409448819
        },
        {
          "duration": 0.02272724999999909,
          "durationTicks": 7,
          "midi": 42,
          "name": "F#2",
          "ticks": 5400,
          "time": 17.53245,
          "velocity": 0.28346456692913385
        },
        {
          "duration": 0.025974000000001496,
          "durationTicks": 8,
          "midi": 37,
          "name": "C#2",
          "ticks": 5522,
          "time": 17.9285535,
          "velocity": 0.6771653543307087
        },
        {
          "duration": 0.025974000000001496,
          "durationTicks": 8,
          "midi": 42,
          "name": "F#2",
          "ticks": 5522,
          "time": 17.9285535,
          "velocity": 0.25196850393700787
        },
        {
          "duration": 0.025974000000001496,
          "durationTicks": 8,
          "midi": 42,
          "name": "F#2",
          "ticks": 5642,
          "time": 18.3181635,
          "velocity": 0.31496062992125984
        },
        {
          "duration": 0.025974000000001496,
          "durationTicks": 8,
          "midi": 42,
          "name": "F#2",
          "ticks": 5767,
          "time": 18.72400725,
          "velocity": 0.2992125984251969
        },
        {
          "duration": 0.02272724999999909,
          "durationTicks": 7,
          "midi": 42,
          "name": "F#2",
          "ticks": 5880,
          "time": 19.09089,
          "velocity": 0.2755905511811024
        },
        {
          "duration": 0.025974000000001496,
          "durationTicks": 8,
          "midi": 37,
          "name": "C#2",
          "ticks": 6002,
          "time": 19.4869935,
          "velocity": 0.6771653543307087
        },
        {
          "duration": 0.025974000000001496,
          "durationTicks": 8,
          "midi": 42,
          "name": "F#2",
          "ticks": 6002,
          "time": 19.4869935,
          "velocity": 0.28346456692913385
        },
        {
          "duration": 0.02272725000000264,
          "durationTicks": 7,
          "midi": 42,
          "name": "F#2",
          "ticks": 6125,
          "time": 19.886343749999998,
          "velocity": 0.2677165354330709
        },
        {
          "duration": 0.025974000000001496,
          "durationTicks": 8,
          "midi": 42,
          "name": "F#2",
          "ticks": 6242,
          "time": 20.2662135,
          "velocity": 0.28346456692913385
        },
        {
          "duration": 0.02272724999999909,
          "durationTicks": 7,
          "midi": 42,
          "name": "F#2",
          "ticks": 6360,
          "time": 20.64933,
          "velocity": 0.2440944881889764
        },
        {
          "duration": 0.025974000000001496,
          "durationTicks": 8,
          "midi": 37,
          "name": "C#2",
          "ticks": 6482,
          "time": 21.0454335,
          "velocity": 0.6929133858267716
        },
        {
          "duration": 0.025974000000001496,
          "durationTicks": 8,
          "midi": 42,
          "name": "F#2",
          "ticks": 6482,
          "time": 21.0454335,
          "velocity": 0.25196850393700787
        },
        {
          "duration": 0.02272724999999909,
          "durationTicks": 7,
          "midi": 42,
          "name": "F#2",
          "ticks": 6600,
          "time": 21.42855,
          "velocity": 0.2755905511811024
        },
        {
          "duration": 0.02272725000000264,
          "durationTicks": 7,
          "midi": 42,
          "name": "F#2",
          "ticks": 6725,
          "time": 21.83439375,
          "velocity": 0.30708661417322836
        },
        {
          "duration": 0.025974000000001496,
          "durationTicks": 8,
          "midi": 42,
          "name": "F#2",
          "ticks": 6842,
          "time": 22.2142635,
          "velocity": 0.2755905511811024
        },
        {
          "duration": 0.025974000000001496,
          "durationTicks": 8,
          "midi": 37,
          "name": "C#2",
          "ticks": 6962,
          "time": 22.6038735,
          "velocity": 0.6771653543307087
        },
        {
          "duration": 0.025974000000001496,
          "durationTicks": 8,
          "midi": 42,
          "name": "F#2",
          "ticks": 6962,
          "time": 22.6038735,
          "velocity": 0.2677165354330709
        },
        {
          "duration": 0.025974000000001496,
          "durationTicks": 8,
          "midi": 42,
          "name": "F#2",
          "ticks": 7082,
          "time": 22.9934835,
          "velocity": 0.2677165354330709
        },
        {
          "duration": 0.025974000000001496,
          "durationTicks": 8,
          "midi": 42,
          "name": "F#2",
          "ticks": 7202,
          "time": 23.3830935,
          "velocity": 0.28346456692913385
        },
        {
          "duration": 0.025974000000001496,
          "durationTicks": 8,
          "midi": 42,
          "name": "F#2",
          "ticks": 7322,
          "time": 23.7727035,
          "velocity": 0.25196850393700787
        },
        {
          "duration": 0.025974000000001496,
          "durationTicks": 8,
          "midi": 37,
          "name": "C#2",
          "ticks": 7442,
          "time": 24.1623135,
          "velocity": 0.6771653543307087
        },
        {
          "duration": 0.025974000000001496,
          "durationTicks": 8,
          "midi": 42,
          "name": "F#2",
          "ticks": 7442,
          "time": 24.1623135,
          "velocity": 0.2440944881889764
        },
        {
          "duration": 0.025974000000001496,
          "durationTicks": 8,
          "midi": 42,
          "name": "F#2",
          "ticks": 7562,
          "time": 24.5519235,
          "velocity": 0.2992125984251969
        },
        {
          "duration": 0.022727249999995536,
          "durationTicks": 7,
          "midi": 42,
          "name": "F#2",
          "ticks": 7685,
          "time": 24.951273750000002,
          "velocity": 0.30708661417322836
        },
        {
          "duration": 0.02272724999999909,
          "durationTicks": 7,
          "midi": 42,
          "name": "F#2",
          "ticks": 7800,
          "time": 25.324650000000002,
          "velocity": 0.2992125984251969
        },
        {
          "duration": 0.02272725000000264,
          "durationTicks": 7,
          "midi": 37,
          "name": "C#2",
          "ticks": 7920,
          "time": 25.71426,
          "velocity": 0.6456692913385826
        },
        {
          "duration": 0.025973999999997943,
          "durationTicks": 8,
          "midi": 42,
          "name": "F#2",
          "ticks": 7922,
          "time": 25.7207535,
          "velocity": 0.2992125984251969
        },
        {
          "duration": 0.025973999999997943,
          "durationTicks": 8,
          "midi": 42,
          "name": "F#2",
          "ticks": 8042,
          "time": 26.110363500000002,
          "velocity": 0.2125984251968504
        },
        {
          "duration": 0.025973999999997943,
          "durationTicks": 8,
          "midi": 42,
          "name": "F#2",
          "ticks": 8162,
          "time": 26.4999735,
          "velocity": 0.2755905511811024
        },
        {
          "duration": 0.02272725000000264,
          "durationTicks": 7,
          "midi": 42,
          "name": "F#2",
          "ticks": 8280,
          "time": 26.88309,
          "velocity": 0.23622047244094488
        },
        {
          "duration": 0.02272725000000264,
          "durationTicks": 7,
          "midi": 37,
          "name": "C#2",
          "ticks": 8400,
          "time": 27.2727,
          "velocity": 0.6614173228346457
        },
        {
          "duration": 0.025973999999997943,
          "durationTicks": 8,
          "midi": 42,
          "name": "F#2",
          "ticks": 8402,
          "time": 27.2791935,
          "velocity": 0.23622047244094488
        },
        {
          "duration": 0.025974000000001496,
          "durationTicks": 8,
          "midi": 42,
          "name": "F#2",
          "ticks": 8522,
          "time": 27.6688035,
          "velocity": 0.2755905511811024
        },
        {
          "duration": 0.022727249999995536,
          "durationTicks": 7,
          "midi": 42,
          "name": "F#2",
          "ticks": 8645,
          "time": 28.068153750000004,
          "velocity": 0.2440944881889764
        },
        {
          "duration": 0.025973999999997943,
          "durationTicks": 8,
          "midi": 42,
          "name": "F#2",
          "ticks": 8762,
          "time": 28.4480235,
          "velocity": 0.2125984251968504
        },
        {
          "duration": 0.02272725000000264,
          "durationTicks": 7,
          "midi": 37,
          "name": "C#2",
          "ticks": 8880,
          "time": 28.83114,
          "velocity": 0.6614173228346457
        },
        {
          "duration": 0.025974000000001496,
          "durationTicks": 8,
          "midi": 42,
          "name": "F#2",
          "ticks": 8882,
          "time": 28.8376335,
          "velocity": 0.2677165354330709
        },
        {
          "duration": 0.025973999999997943,
          "durationTicks": 8,
          "midi": 42,
          "name": "F#2",
          "ticks": 9002,
          "time": 29.2272435,
          "velocity": 0.2677165354330709
        },
        {
          "duration": 0.02272725000000264,
          "durationTicks": 7,
          "midi": 42,
          "name": "F#2",
          "ticks": 9120,
          "time": 29.61036,
          "velocity": 0.2204724409448819
        },
        {
          "duration": 0.02272725000000264,
          "durationTicks": 7,
          "midi": 42,
          "name": "F#2",
          "ticks": 9240,
          "time": 29.99997,
          "velocity": 0.28346456692913385
        },
        {
          "duration": 0.02272724999999909,
          "durationTicks": 7,
          "midi": 37,
          "name": "C#2",
          "ticks": 9360,
          "time": 30.389580000000002,
          "velocity": 0.6771653543307087
        },
        {
          "duration": 0.025973999999997943,
          "durationTicks": 8,
          "midi": 42,
          "name": "F#2",
          "ticks": 9362,
          "time": 30.3960735,
          "velocity": 0.25196850393700787
        },
        {
          "duration": 0.025973999999997943,
          "durationTicks": 8,
          "midi": 42,
          "name": "F#2",
          "ticks": 9482,
          "time": 30.7856835,
          "velocity": 0.31496062992125984
        },
        {
          "duration": 0.022727249999995536,
          "durationTicks": 7,
          "midi": 42,
          "name": "F#2",
          "ticks": 9605,
          "time": 31.185033750000002,
          "velocity": 0.2992125984251969
        },
        {
          "duration": 0.02272724999999909,
          "durationTicks": 7,
          "midi": 42,
          "name": "F#2",
          "ticks": 9720,
          "time": 31.558410000000002,
          "velocity": 0.2755905511811024
        },
        {
          "duration": 0.025973999999997943,
          "durationTicks": 8,
          "midi": 37,
          "name": "C#2",
          "ticks": 9842,
          "time": 31.9545135,
          "velocity": 0.6771653543307087
        },
        {
          "duration": 0.025973999999997943,
          "durationTicks": 8,
          "midi": 42,
          "name": "F#2",
          "ticks": 9842,
          "time": 31.9545135,
          "velocity": 0.28346456692913385
        },
        {
          "duration": 0.025973999999997943,
          "durationTicks": 8,
          "midi": 42,
          "name": "F#2",
          "ticks": 9962,
          "time": 32.3441235,
          "velocity": 0.2677165354330709
        },
        {
          "duration": 0.025973999999997943,
          "durationTicks": 8,
          "midi": 42,
          "name": "F#2",
          "ticks": 10082,
          "time": 32.7337335,
          "velocity": 0.28346456692913385
        },
        {
          "duration": 0.02272725000000264,
          "durationTicks": 7,
          "midi": 42,
          "name": "F#2",
          "ticks": 10200,
          "time": 33.11685,
          "velocity": 0.2440944881889764
        },
        {
          "duration": 0.025973999999997943,
          "durationTicks": 8,
          "midi": 37,
          "name": "C#2",
          "ticks": 10322,
          "time": 33.5129535,
          "velocity": 0.6929133858267716
        },
        {
          "duration": 0.025973999999997943,
          "durationTicks": 8,
          "midi": 42,
          "name": "F#2",
          "ticks": 10322,
          "time": 33.5129535,
          "velocity": 0.25196850393700787
        },
        {
          "duration": 0.025973999999997943,
          "durationTicks": 8,
          "midi": 42,
          "name": "F#2",
          "ticks": 10442,
          "time": 33.9025635,
          "velocity": 0.2755905511811024
        },
        {
          "duration": 0.022727249999995536,
          "durationTicks": 7,
          "midi": 42,
          "name": "F#2",
          "ticks": 10565,
          "time": 34.301913750000004,
          "velocity": 0.30708661417322836
        },
        {
          "duration": 0.025973999999997943,
          "durationTicks": 8,
          "midi": 42,
          "name": "F#2",
          "ticks": 10682,
          "time": 34.6817835,
          "velocity": 0.2755905511811024
        },
        {
          "duration": 0.02272725000000264,
          "durationTicks": 7,
          "midi": 37,
          "name": "C#2",
          "ticks": 10800,
          "time": 35.0649,
          "velocity": 0.6771653543307087
        },
        {
          "duration": 0.025973999999997943,
          "durationTicks": 8,
          "midi": 42,
          "name": "F#2",
          "ticks": 10802,
          "time": 35.0713935,
          "velocity": 0.2677165354330709
        },
        {
          "duration": 0.025973999999997943,
          "durationTicks": 8,
          "midi": 42,
          "name": "F#2",
          "ticks": 10922,
          "time": 35.461003500000004,
          "velocity": 0.2677165354330709
        },
        {
          "duration": 0.025973999999997943,
          "durationTicks": 8,
          "midi": 42,
          "name": "F#2",
          "ticks": 11042,
          "time": 35.8506135,
          "velocity": 0.28346456692913385
        },
        {
          "duration": 0.02272725000000264,
          "durationTicks": 7,
          "midi": 42,
          "name": "F#2",
          "ticks": 11160,
          "time": 36.23373,
          "velocity": 0.25196850393700787
        },
        {
          "duration": 0.025973999999997943,
          "durationTicks": 8,
          "midi": 37,
          "name": "C#2",
          "ticks": 11282,
          "time": 36.629833500000004,
          "velocity": 0.6771653543307087
        },
        {
          "duration": 0.025973999999997943,
          "durationTicks": 8,
          "midi": 42,
          "name": "F#2",
          "ticks": 11282,
          "time": 36.629833500000004,
          "velocity": 0.2440944881889764
        },
        {
          "duration": 0.025973999999997943,
          "durationTicks": 8,
          "midi": 42,
          "name": "F#2",
          "ticks": 11402,
          "time": 37.0194435,
          "velocity": 0.2992125984251969
        },
        {
          "duration": 0.025973999999997943,
          "durationTicks": 8,
          "midi": 42,
          "name": "F#2",
          "ticks": 11527,
          "time": 37.425287250000004,
          "velocity": 0.30708661417322836
        },
        {
          "duration": 0.02272725000000264,
          "durationTicks": 7,
          "midi": 42,
          "name": "F#2",
          "ticks": 11640,
          "time": 37.79217,
          "velocity": 0.2992125984251969
        },
        {
          "duration": 0.025973999999997943,
          "durationTicks": 8,
          "midi": 37,
          "name": "C#2",
          "ticks": 11762,
          "time": 38.1882735,
          "velocity": 0.6456692913385826
        },
        {
          "duration": 0.025973999999997943,
          "durationTicks": 8,
          "midi": 42,
          "name": "F#2",
          "ticks": 11762,
          "time": 38.1882735,
          "velocity": 0.2992125984251969
        },
        {
          "duration": 0.025973999999997943,
          "durationTicks": 8,
          "midi": 42,
          "name": "F#2",
          "ticks": 11882,
          "time": 38.5778835,
          "velocity": 0.2125984251968504
        },
        {
          "duration": 0.02272725000000264,
          "durationTicks": 7,
          "midi": 42,
          "name": "F#2",
          "ticks": 12000,
          "time": 38.961,
          "velocity": 0.2755905511811024
        },
        {
          "duration": 0.02272725000000264,
          "durationTicks": 7,
          "midi": 42,
          "name": "F#2",
          "ticks": 12120,
          "time": 39.35061,
          "velocity": 0.23622047244094488
        },
        {
          "duration": 0.02272725000000264,
          "durationTicks": 7,
          "midi": 37,
          "name": "C#2",
          "ticks": 12240,
          "time": 39.74022,
          "velocity": 0.6614173228346457
        },
        {
          "duration": 0.025973999999997943,
          "durationTicks": 8,
          "midi": 42,
          "name": "F#2",
          "ticks": 12242,
          "time": 39.7467135,
          "velocity": 0.23622047244094488
        },
        {
          "duration": 0.02272725000000264,
          "durationTicks": 7,
          "midi": 42,
          "name": "F#2",
          "ticks": 12360,
          "time": 40.12983,
          "velocity": 0.2755905511811024
        },
        {
          "duration": 0.022727249999995536,
          "durationTicks": 7,
          "midi": 42,
          "name": "F#2",
          "ticks": 12485,
          "time": 40.53567375,
          "velocity": 0.2440944881889764
        },
        {
          "duration": 0.02272725000000264,
          "durationTicks": 7,
          "midi": 42,
          "name": "F#2",
          "ticks": 12600,
          "time": 40.90905,
          "velocity": 0.2125984251968504
        },
        {
          "duration": 0.02272725000000264,
          "durationTicks": 7,
          "midi": 37,
          "name": "C#2",
          "ticks": 12720,
          "time": 41.29866,
          "velocity": 0.6614173228346457
        },
        {
          "duration": 0.02272725000000264,
          "durationTicks": 7,
          "midi": 42,
          "name": "F#2",
          "ticks": 12720,
          "time": 41.29866,
          "velocity": 0.2677165354330709
        },
        {
          "duration": 0.025973999999997943,
          "durationTicks": 8,
          "midi": 42,
          "name": "F#2",
          "ticks": 12842,
          "time": 41.6947635,
          "velocity": 0.2677165354330709
        },
        {
          "duration": 0.02272725000000264,
          "durationTicks": 7,
          "midi": 42,
          "name": "F#2",
          "ticks": 12960,
          "time": 42.07788,
          "velocity": 0.2204724409448819
        },
        {
          "duration": 0.02272725000000264,
          "durationTicks": 7,
          "midi": 42,
          "name": "F#2",
          "ticks": 13080,
          "time": 42.46749,
          "velocity": 0.28346456692913385
        },
        {
          "duration": 0.02272725000000264,
          "durationTicks": 7,
          "midi": 37,
          "name": "C#2",
          "ticks": 13200,
          "time": 42.8571,
          "velocity": 0.6771653543307087
        },
        {
          "duration": 0.02272725000000264,
          "durationTicks": 7,
          "midi": 42,
          "name": "F#2",
          "ticks": 13200,
          "time": 42.8571,
          "velocity": 0.25196850393700787
        },
        {
          "duration": 0.02597400000000505,
          "durationTicks": 8,
          "midi": 42,
          "name": "F#2",
          "ticks": 13322,
          "time": 43.2532035,
          "velocity": 0.31496062992125984
        },
        {
          "duration": 0.022727249999995536,
          "durationTicks": 7,
          "midi": 42,
          "name": "F#2",
          "ticks": 13445,
          "time": 43.65255375,
          "velocity": 0.2992125984251969
        },
        {
          "duration": 0.02272725000000264,
          "durationTicks": 7,
          "midi": 42,
          "name": "F#2",
          "ticks": 13560,
          "time": 44.02593,
          "velocity": 0.2755905511811024
        },
        {
          "duration": 0.02272725000000264,
          "durationTicks": 7,
          "midi": 37,
          "name": "C#2",
          "ticks": 13680,
          "time": 44.41554,
          "velocity": 0.6771653543307087
        },
        {
          "duration": 0.02272725000000264,
          "durationTicks": 7,
          "midi": 42,
          "name": "F#2",
          "ticks": 13680,
          "time": 44.41554,
          "velocity": 0.28346456692913385
        },
        {
          "duration": 0.025973999999997943,
          "durationTicks": 8,
          "midi": 42,
          "name": "F#2",
          "ticks": 13802,
          "time": 44.8116435,
          "velocity": 0.2677165354330709
        },
        {
          "duration": 0.025973999999997943,
          "durationTicks": 8,
          "midi": 42,
          "name": "F#2",
          "ticks": 13922,
          "time": 45.2012535,
          "velocity": 0.28346456692913385
        },
        {
          "duration": 0.02272725000000264,
          "durationTicks": 7,
          "midi": 42,
          "name": "F#2",
          "ticks": 14040,
          "time": 45.58437,
          "velocity": 0.2440944881889764
        },
        {
          "duration": 0.022727249999995536,
          "durationTicks": 7,
          "midi": 37,
          "name": "C#2",
          "ticks": 14160,
          "time": 45.973980000000005,
          "velocity": 0.6929133858267716
        },
        {
          "duration": 0.022727249999995536,
          "durationTicks": 7,
          "midi": 42,
          "name": "F#2",
          "ticks": 14160,
          "time": 45.973980000000005,
          "velocity": 0.25196850393700787
        },
        {
          "duration": 0.02272725000000264,
          "durationTicks": 7,
          "midi": 42,
          "name": "F#2",
          "ticks": 14285,
          "time": 46.37982375,
          "velocity": 0.2755905511811024
        },
        {
          "duration": 0.022727249999995536,
          "durationTicks": 7,
          "midi": 42,
          "name": "F#2",
          "ticks": 14405,
          "time": 46.769433750000005,
          "velocity": 0.30708661417322836
        },
        {
          "duration": 0.025973999999997943,
          "durationTicks": 8,
          "midi": 42,
          "name": "F#2",
          "ticks": 14522,
          "time": 47.1493035,
          "velocity": 0.2755905511811024
        },
        {
          "duration": 0.02272725000000264,
          "durationTicks": 7,
          "midi": 37,
          "name": "C#2",
          "ticks": 14640,
          "time": 47.53242,
          "velocity": 0.6771653543307087
        },
        {
          "duration": 0.025973999999997943,
          "durationTicks": 8,
          "midi": 42,
          "name": "F#2",
          "ticks": 14642,
          "time": 47.5389135,
          "velocity": 0.2677165354330709
        },
        {
          "duration": 0.025973999999997943,
          "durationTicks": 8,
          "midi": 42,
          "name": "F#2",
          "ticks": 14762,
          "time": 47.928523500000004,
          "velocity": 0.2677165354330709
        },
        {
          "duration": 0.022727249999995536,
          "durationTicks": 7,
          "midi": 42,
          "name": "F#2",
          "ticks": 14885,
          "time": 48.32787375,
          "velocity": 0.28346456692913385
        },
        {
          "duration": 0.02272725000000264,
          "durationTicks": 7,
          "midi": 42,
          "name": "F#2",
          "ticks": 15000,
          "time": 48.70125,
          "velocity": 0.25196850393700787
        },
        {
          "duration": 0.02272725000000264,
          "durationTicks": 7,
          "midi": 37,
          "name": "C#2",
          "ticks": 15120,
          "time": 49.09086,
          "velocity": 0.6771653543307087
        },
        {
          "duration": 0.025973999999997943,
          "durationTicks": 8,
          "midi": 42,
          "name": "F#2",
          "ticks": 15122,
          "time": 49.097353500000004,
          "velocity": 0.2440944881889764
        },
        {
          "duration": 0.025973999999997943,
          "durationTicks": 8,
          "midi": 42,
          "name": "F#2",
          "ticks": 15242,
          "time": 49.4869635,
          "velocity": 0.2992125984251969
        },
        {
          "duration": 0.02272725000000264,
          "durationTicks": 7,
          "midi": 42,
          "name": "F#2",
          "ticks": 15365,
          "time": 49.88631375,
          "velocity": 0.30708661417322836
        },
        {
          "duration": 0.025973999999997943,
          "durationTicks": 8,
          "midi": 42,
          "name": "F#2",
          "ticks": 15482,
          "time": 50.266183500000004,
          "velocity": 0.2992125984251969
        },
        {
          "duration": 0.025973999999997943,
          "durationTicks": 8,
          "midi": 37,
          "name": "C#2",
          "ticks": 15602,
          "time": 50.65579350000001,
          "velocity": 0.6456692913385826
        },
        {
          "duration": 0.025973999999997943,
          "durationTicks": 8,
          "midi": 42,
          "name": "F#2",
          "ticks": 15602,
          "time": 50.65579350000001,
          "velocity": 0.2992125984251969
        },
        {
          "duration": 0.025973999999997943,
          "durationTicks": 8,
          "midi": 42,
          "name": "F#2",
          "ticks": 15722,
          "time": 51.045403500000006,
          "velocity": 0.2125984251968504
        },
        {
          "duration": 0.02272725000000264,
          "durationTicks": 7,
          "midi": 42,
          "name": "F#2",
          "ticks": 15845,
          "time": 51.44475375,
          "velocity": 0.2755905511811024
        },
        {
          "duration": 0.025973999999997943,
          "durationTicks": 8,
          "midi": 42,
          "name": "F#2",
          "ticks": 15962,
          "time": 51.82462350000001,
          "velocity": 0.23622047244094488
        },
        {
          "duration": 0.025973999999997943,
          "durationTicks": 8,
          "midi": 37,
          "name": "C#2",
          "ticks": 16082,
          "time": 52.214233500000006,
          "velocity": 0.6614173228346457
        },
        {
          "duration": 0.025973999999997943,
          "durationTicks": 8,
          "midi": 42,
          "name": "F#2",
          "ticks": 16082,
          "time": 52.214233500000006,
          "velocity": 0.23622047244094488
        },
        {
          "duration": 0.02597400000000505,
          "durationTicks": 8,
          "midi": 42,
          "name": "F#2",
          "ticks": 16202,
          "time": 52.6038435,
          "velocity": 0.2755905511811024
        },
        {
          "duration": 0.022727249999995536,
          "durationTicks": 7,
          "midi": 42,
          "name": "F#2",
          "ticks": 16325,
          "time": 53.00319375,
          "velocity": 0.2440944881889764
        },
        {
          "duration": 0.025973999999997943,
          "durationTicks": 8,
          "midi": 42,
          "name": "F#2",
          "ticks": 16442,
          "time": 53.383063500000006,
          "velocity": 0.2125984251968504
        },
        {
          "duration": 0.02272725000000264,
          "durationTicks": 7,
          "midi": 37,
          "name": "C#2",
          "ticks": 16560,
          "time": 53.76618,
          "velocity": 0.6614173228346457
        },
        {
          "duration": 0.02597400000000505,
          "durationTicks": 8,
          "midi": 42,
          "name": "F#2",
          "ticks": 16562,
          "time": 53.7726735,
          "velocity": 0.2677165354330709
        },
        {
          "duration": 0.025973999999997943,
          "durationTicks": 8,
          "midi": 42,
          "name": "F#2",
          "ticks": 16682,
          "time": 54.16228350000001,
          "velocity": 0.2677165354330709
        },
        {
          "duration": 0.025973999999997943,
          "durationTicks": 8,
          "midi": 42,
          "name": "F#2",
          "ticks": 16802,
          "time": 54.551893500000006,
          "velocity": 0.2204724409448819
        },
        {
          "duration": 0.02272725000000264,
          "durationTicks": 7,
          "midi": 42,
          "name": "F#2",
          "ticks": 16920,
          "time": 54.93501,
          "velocity": 0.28346456692913385
        },
        {
          "duration": 0.025973999999997943,
          "durationTicks": 8,
          "midi": 37,
          "name": "C#2",
          "ticks": 17042,
          "time": 55.33111350000001,
          "velocity": 0.6771653543307087
        },
        {
          "duration": 0.025973999999997943,
          "durationTicks": 8,
          "midi": 42,
          "name": "F#2",
          "ticks": 17042,
          "time": 55.33111350000001,
          "velocity": 0.25196850393700787
        },
        {
          "duration": 0.025973999999997943,
          "durationTicks": 8,
          "midi": 42,
          "name": "F#2",
          "ticks": 17162,
          "time": 55.720723500000005,
          "velocity": 0.31496062992125984
        },
        {
          "duration": 0.02272725000000264,
          "durationTicks": 7,
          "midi": 42,
          "name": "F#2",
          "ticks": 17285,
          "time": 56.120073749999996,
          "velocity": 0.2992125984251969
        },
        {
          "duration": 0.02272725000000264,
          "durationTicks": 7,
          "midi": 42,
          "name": "F#2",
          "ticks": 17400,
          "time": 56.49345,
          "velocity": 0.2755905511811024
        },
        {
          "duration": 0.02272725000000264,
          "durationTicks": 7,
          "midi": 37,
          "name": "C#2",
          "ticks": 17520,
          "time": 56.88306,
          "velocity": 0.6771653543307087
        },
        {
          "duration": 0.02272725000000264,
          "durationTicks": 7,
          "midi": 42,
          "name": "F#2",
          "ticks": 17520,
          "time": 56.88306,
          "velocity": 0.28346456692913385
        },
        {
          "duration": 0.02272725000000264,
          "durationTicks": 7,
          "midi": 42,
          "name": "F#2",
          "ticks": 17645,
          "time": 57.288903749999996,
          "velocity": 0.2677165354330709
        },
        {
          "duration": 0.025973999999997943,
          "durationTicks": 8,
          "midi": 42,
          "name": "F#2",
          "ticks": 17762,
          "time": 57.66877350000001,
          "velocity": 0.28346456692913385
        },
        {
          "duration": 0.02272725000000264,
          "durationTicks": 7,
          "midi": 42,
          "name": "F#2",
          "ticks": 17880,
          "time": 58.05189,
          "velocity": 0.2440944881889764
        },
        {
          "duration": 0.022727249999995536,
          "durationTicks": 7,
          "midi": 37,
          "name": "C#2",
          "ticks": 18000,
          "time": 58.441500000000005,
          "velocity": 0.6929133858267716
        },
        {
          "duration": 0.025973999999997943,
          "durationTicks": 8,
          "midi": 42,
          "name": "F#2",
          "ticks": 18002,
          "time": 58.44799350000001,
          "velocity": 0.25196850393700787
        },
        {
          "duration": 0.025973999999997943,
          "durationTicks": 8,
          "midi": 42,
          "name": "F#2",
          "ticks": 18122,
          "time": 58.83760350000001,
          "velocity": 0.2755905511811024
        },
        {
          "duration": 0.02272725000000264,
          "durationTicks": 7,
          "midi": 42,
          "name": "F#2",
          "ticks": 18245,
          "time": 59.23695375,
          "velocity": 0.30708661417322836
        },
        {
          "duration": 0.022727249999995536,
          "durationTicks": 7,
          "midi": 42,
          "name": "F#2",
          "ticks": 18360,
          "time": 59.610330000000005,
          "velocity": 0.2755905511811024
        },
        {
          "duration": 0.02272725000000264,
          "durationTicks": 7,
          "midi": 37,
          "name": "C#2",
          "ticks": 18480,
          "time": 59.99994,
          "velocity": 0.6771653543307087
        },
        {
          "duration": 0.025973999999997943,
          "durationTicks": 8,
          "midi": 42,
          "name": "F#2",
          "ticks": 18482,
          "time": 60.00643350000001,
          "velocity": 0.2677165354330709
        },
        {
          "duration": 0.025973999999997943,
          "durationTicks": 8,
          "midi": 42,
          "name": "F#2",
          "ticks": 18602,
          "time": 60.396043500000005,
          "velocity": 0.2677165354330709
        },
        {
          "duration": 0.025973999999997943,
          "durationTicks": 8,
          "midi": 42,
          "name": "F#2",
          "ticks": 18722,
          "time": 60.78565350000001,
          "velocity": 0.28346456692913385
        },
        {
          "duration": 0.025973999999997943,
          "durationTicks": 8,
          "midi": 42,
          "name": "F#2",
          "ticks": 18842,
          "time": 61.17526350000001,
          "velocity": 0.25196850393700787
        },
        {
          "duration": 0.02272725000000264,
          "durationTicks": 7,
          "midi": 37,
          "name": "C#2",
          "ticks": 18960,
          "time": 61.55838,
          "velocity": 0.6771653543307087
        },
        {
          "duration": 0.025973999999997943,
          "durationTicks": 8,
          "midi": 42,
          "name": "F#2",
          "ticks": 18962,
          "time": 61.564873500000004,
          "velocity": 0.2440944881889764
        },
        {
          "duration": 0.025973999999997943,
          "durationTicks": 8,
          "midi": 42,
          "name": "F#2",
          "ticks": 19082,
          "time": 61.95448350000001,
          "velocity": 0.2992125984251969
        },
        {
          "duration": 0.02272725000000264,
          "durationTicks": 7,
          "midi": 42,
          "name": "F#2",
          "ticks": 19205,
          "time": 62.35383375,
          "velocity": 0.3464566929133858
        },
        {
          "duration": 0.025973999999997943,
          "durationTicks": 8,
          "midi": 42,
          "name": "F#2",
          "ticks": 19322,
          "time": 62.733703500000004,
          "velocity": 0.33858267716535434
        },
        {
          "duration": 0.025973999999997943,
          "durationTicks": 8,
          "midi": 37,
          "name": "C#2",
          "ticks": 19442,
          "time": 63.12331350000001,
          "velocity": 0.6850393700787402
        },
        {
          "duration": 0.025973999999997943,
          "durationTicks": 8,
          "midi": 42,
          "name": "F#2",
          "ticks": 19442,
          "time": 63.12331350000001,
          "velocity": 0.33858267716535434
        },
        {
          "duration": 0.025973999999997943,
          "durationTicks": 8,
          "midi": 42,
          "name": "F#2",
          "ticks": 19562,
          "time": 63.51292350000001,
          "velocity": 0.25196850393700787
        },
        {
          "duration": 0.02597400000000505,
          "durationTicks": 8,
          "midi": 42,
          "name": "F#2",
          "ticks": 19682,
          "time": 63.902533500000004,
          "velocity": 0.31496062992125984
        },
        {
          "duration": 0.02272725000000264,
          "durationTicks": 7,
          "midi": 42,
          "name": "F#2",
          "ticks": 19800,
          "time": 64.28565,
          "velocity": 0.2755905511811024
        },
        {
          "duration": 0.02272724999998843,
          "durationTicks": 7,
          "midi": 37,
          "name": "C#2",
          "ticks": 19920,
          "time": 64.67526000000001,
          "velocity": 0.7007874015748031
        },
        {
          "duration": 0.025973999999990838,
          "durationTicks": 8,
          "midi": 42,
          "name": "F#2",
          "ticks": 19922,
          "time": 64.68175350000001,
          "velocity": 0.2755905511811024
        },
        {
          "duration": 0.02272725000000264,
          "durationTicks": 7,
          "midi": 42,
          "name": "F#2",
          "ticks": 20040,
          "time": 65.06487,
          "velocity": 0.31496062992125984
        },
        {
          "duration": 0.025973999999990838,
          "durationTicks": 8,
          "midi": 42,
          "name": "F#2",
          "ticks": 20162,
          "time": 65.46097350000001,
          "velocity": 0.28346456692913385
        },
        {
          "duration": 0.02272724999998843,
          "durationTicks": 7,
          "midi": 42,
          "name": "F#2",
          "ticks": 20280,
          "time": 65.84409000000001,
          "velocity": 0.25196850393700787
        },
        {
          "duration": 0.02272725000000264,
          "durationTicks": 7,
          "midi": 37,
          "name": "C#2",
          "ticks": 20400,
          "time": 66.2337,
          "velocity": 0.7007874015748031
        },
        {
          "duration": 0.02597400000000505,
          "durationTicks": 8,
          "midi": 42,
          "name": "F#2",
          "ticks": 20402,
          "time": 66.2401935,
          "velocity": 0.30708661417322836
        },
        {
          "duration": 0.025973999999990838,
          "durationTicks": 8,
          "midi": 42,
          "name": "F#2",
          "ticks": 20522,
          "time": 66.62980350000001,
          "velocity": 0.30708661417322836
        },
        {
          "duration": 0.02272724999998843,
          "durationTicks": 7,
          "midi": 42,
          "name": "F#2",
          "ticks": 20640,
          "time": 67.01292000000001,
          "velocity": 0.25984251968503935
        },
        {
          "duration": 0.02272725000000264,
          "durationTicks": 7,
          "midi": 42,
          "name": "F#2",
          "ticks": 20760,
          "time": 67.40253,
          "velocity": 0.3228346456692913
        },
        {
          "duration": 0.02272725000000264,
          "durationTicks": 7,
          "midi": 37,
          "name": "C#2",
          "ticks": 20880,
          "time": 67.79214,
          "velocity": 0.7165354330708661
        },
        {
          "duration": 0.025973999999990838,
          "durationTicks": 8,
          "midi": 42,
          "name": "F#2",
          "ticks": 20882,
          "time": 67.79863350000001,
          "velocity": 0.29133858267716534
        },
        {
          "duration": 0.02272724999998843,
          "durationTicks": 7,
          "midi": 42,
          "name": "F#2",
          "ticks": 21000,
          "time": 68.18175000000001,
          "velocity": 0.3543307086614173
        },
        {
          "duration": 0.02597400000000505,
          "durationTicks": 8,
          "midi": 42,
          "name": "F#2",
          "ticks": 21122,
          "time": 68.5778535,
          "velocity": 0.33858267716535434
        },
        {
          "duration": 0.025973999999990838,
          "durationTicks": 8,
          "midi": 42,
          "name": "F#2",
          "ticks": 21242,
          "time": 68.96746350000001,
          "velocity": 0.31496062992125984
        },
        {
          "duration": 0.025973999999990838,
          "durationTicks": 8,
          "midi": 37,
          "name": "C#2",
          "ticks": 21362,
          "time": 69.35707350000001,
          "velocity": 0.7165354330708661
        },
        {
          "duration": 0.025973999999990838,
          "durationTicks": 8,
          "midi": 42,
          "name": "F#2",
          "ticks": 21362,
          "time": 69.35707350000001,
          "velocity": 0.3228346456692913
        },
        {
          "duration": 0.02597400000000505,
          "durationTicks": 8,
          "midi": 42,
          "name": "F#2",
          "ticks": 21482,
          "time": 69.7466835,
          "velocity": 0.30708661417322836
        },
        {
          "duration": 0.02597400000000505,
          "durationTicks": 8,
          "midi": 42,
          "name": "F#2",
          "ticks": 21602,
          "time": 70.13629350000001,
          "velocity": 0.3228346456692913
        },
        {
          "duration": 0.02272725000000264,
          "durationTicks": 7,
          "midi": 42,
          "name": "F#2",
          "ticks": 21720,
          "time": 70.51941000000001,
          "velocity": 0.28346456692913385
        },
        {
          "duration": 0.02272725000000264,
          "durationTicks": 7,
          "midi": 37,
          "name": "C#2",
          "ticks": 21840,
          "time": 70.90902,
          "velocity": 0.7322834645669292
        },
        {
          "duration": 0.02597400000000505,
          "durationTicks": 8,
          "midi": 42,
          "name": "F#2",
          "ticks": 21842,
          "time": 70.9155135,
          "velocity": 0.29133858267716534
        },
        {
          "duration": 0.02597400000000505,
          "durationTicks": 8,
          "midi": 42,
          "name": "F#2",
          "ticks": 21962,
          "time": 71.30512350000001,
          "velocity": 0.31496062992125984
        },
        {
          "duration": 0.025973999999990838,
          "durationTicks": 8,
          "midi": 42,
          "name": "F#2",
          "ticks": 22082,
          "time": 71.69473350000001,
          "velocity": 0.3464566929133858
        },
        {
          "duration": 0.02272725000000264,
          "durationTicks": 7,
          "midi": 42,
          "name": "F#2",
          "ticks": 22200,
          "time": 72.07785,
          "velocity": 0.31496062992125984
        },
        {
          "duration": 0.02272725000000264,
          "durationTicks": 7,
          "midi": 37,
          "name": "C#2",
          "ticks": 22320,
          "time": 72.46746,
          "velocity": 0.7165354330708661
        },
        {
          "duration": 0.02597400000000505,
          "durationTicks": 8,
          "midi": 42,
          "name": "F#2",
          "ticks": 22322,
          "time": 72.47395350000001,
          "velocity": 0.30708661417322836
        },
        {
          "duration": 0.025973999999990838,
          "durationTicks": 8,
          "midi": 42,
          "name": "F#2",
          "ticks": 22442,
          "time": 72.86356350000001,
          "velocity": 0.30708661417322836
        },
        {
          "duration": 0.02597400000000505,
          "durationTicks": 8,
          "midi": 42,
          "name": "F#2",
          "ticks": 22562,
          "time": 73.2531735,
          "velocity": 0.3228346456692913
        },
        {
          "duration": 0.02597400000000505,
          "durationTicks": 8,
          "midi": 42,
          "name": "F#2",
          "ticks": 22682,
          "time": 73.64278350000001,
          "velocity": 0.29133858267716534
        },
        {
          "duration": 0.02272725000000264,
          "durationTicks": 7,
          "midi": 37,
          "name": "C#2",
          "ticks": 22800,
          "time": 74.02590000000001,
          "velocity": 0.7165354330708661
        },
        {
          "duration": 0.025973999999990838,
          "durationTicks": 8,
          "midi": 42,
          "name": "F#2",
          "ticks": 22802,
          "time": 74.03239350000001,
          "velocity": 0.28346456692913385
        },
        {
          "duration": 0.02597400000000505,
          "durationTicks": 8,
          "midi": 42,
          "name": "F#2",
          "ticks": 22922,
          "time": 74.4220035,
          "velocity": 0.33858267716535434
        },
        {
          "duration": 0.02597400000000505,
          "durationTicks": 8,
          "midi": 42,
          "name": "F#2",
          "ticks": 23042,
          "time": 74.8116135,
          "velocity": 0.3464566929133858
        },
        {
          "duration": 0.025973999999990838,
          "durationTicks": 8,
          "midi": 42,
          "name": "F#2",
          "ticks": 23162,
          "time": 75.20122350000001,
          "velocity": 0.33858267716535434
        },
        {
          "duration": 0.02597400000000505,
          "durationTicks": 8,
          "midi": 37,
          "name": "C#2",
          "ticks": 23282,
          "time": 75.5908335,
          "velocity": 0.6850393700787402
        },
        {
          "duration": 0.02597400000000505,
          "durationTicks": 8,
          "midi": 42,
          "name": "F#2",
          "ticks": 23282,
          "time": 75.5908335,
          "velocity": 0.33858267716535434
        },
        {
          "duration": 0.02597400000000505,
          "durationTicks": 8,
          "midi": 42,
          "name": "F#2",
          "ticks": 23402,
          "time": 75.9804435,
          "velocity": 0.25196850393700787
        },
        {
          "duration": 0.025973999999990838,
          "durationTicks": 8,
          "midi": 42,
          "name": "F#2",
          "ticks": 23522,
          "time": 76.37005350000001,
          "velocity": 0.31496062992125984
        },
        {
          "duration": 0.02272725000000264,
          "durationTicks": 7,
          "midi": 42,
          "name": "F#2",
          "ticks": 23640,
          "time": 76.75317,
          "velocity": 0.2755905511811024
        },
        {
          "duration": 0.02597400000000505,
          "durationTicks": 8,
          "midi": 37,
          "name": "C#2",
          "ticks": 23762,
          "time": 77.1492735,
          "velocity": 0.7007874015748031
        },
        {
          "duration": 0.02597400000000505,
          "durationTicks": 8,
          "midi": 42,
          "name": "F#2",
          "ticks": 23762,
          "time": 77.1492735,
          "velocity": 0.2755905511811024
        },
        {
          "duration": 0.02272725000000264,
          "durationTicks": 7,
          "midi": 42,
          "name": "F#2",
          "ticks": 23880,
          "time": 77.53239,
          "velocity": 0.31496062992125984
        },
        {
          "duration": 0.02597400000000505,
          "durationTicks": 8,
          "midi": 42,
          "name": "F#2",
          "ticks": 24002,
          "time": 77.9284935,
          "velocity": 0.28346456692913385
        },
        {
          "duration": 0.02272725000000264,
          "durationTicks": 7,
          "midi": 42,
          "name": "F#2",
          "ticks": 24120,
          "time": 78.31161,
          "velocity": 0.25196850393700787
        },
        {
          "duration": 0.025973999999990838,
          "durationTicks": 8,
          "midi": 37,
          "name": "C#2",
          "ticks": 24242,
          "time": 78.70771350000001,
          "velocity": 0.7007874015748031
        },
        {
          "duration": 0.025973999999990838,
          "durationTicks": 8,
          "midi": 42,
          "name": "F#2",
          "ticks": 24242,
          "time": 78.70771350000001,
          "velocity": 0.30708661417322836
        },
        {
          "duration": 0.02597400000000505,
          "durationTicks": 8,
          "midi": 42,
          "name": "F#2",
          "ticks": 24362,
          "time": 79.0973235,
          "velocity": 0.30708661417322836
        },
        {
          "duration": 0.02597400000000505,
          "durationTicks": 8,
          "midi": 42,
          "name": "F#2",
          "ticks": 24482,
          "time": 79.4869335,
          "velocity": 0.25984251968503935
        },
        {
          "duration": 0.02272725000000264,
          "durationTicks": 7,
          "midi": 42,
          "name": "F#2",
          "ticks": 24600,
          "time": 79.87005,
          "velocity": 0.3228346456692913
        },
        {
          "duration": 0.02597400000000505,
          "durationTicks": 8,
          "midi": 37,
          "name": "C#2",
          "ticks": 24722,
          "time": 80.2661535,
          "velocity": 0.7165354330708661
        },
        {
          "duration": 0.02597400000000505,
          "durationTicks": 8,
          "midi": 42,
          "name": "F#2",
          "ticks": 24722,
          "time": 80.2661535,
          "velocity": 0.29133858267716534
        },
        {
          "duration": 0.02272725000000264,
          "durationTicks": 7,
          "midi": 42,
          "name": "F#2",
          "ticks": 24840,
          "time": 80.64927,
          "velocity": 0.3543307086614173
        },
        {
          "duration": 0.025973999999990838,
          "durationTicks": 8,
          "midi": 42,
          "name": "F#2",
          "ticks": 24962,
          "time": 81.04537350000001,
          "velocity": 0.33858267716535434
        },
        {
          "duration": 0.02272725000000264,
          "durationTicks": 7,
          "midi": 42,
          "name": "F#2",
          "ticks": 25080,
          "time": 81.42849,
          "velocity": 0.31496062992125984
        },
        {
          "duration": 0.02597400000000505,
          "durationTicks": 8,
          "midi": 37,
          "name": "C#2",
          "ticks": 25202,
          "time": 81.8245935,
          "velocity": 0.7165354330708661
        },
        {
          "duration": 0.02597400000000505,
          "durationTicks": 8,
          "midi": 42,
          "name": "F#2",
          "ticks": 25202,
          "time": 81.8245935,
          "velocity": 0.3228346456692913
        },
        {
          "duration": 0.025973999999990838,
          "durationTicks": 8,
          "midi": 42,
          "name": "F#2",
          "ticks": 25322,
          "time": 82.21420350000001,
          "velocity": 0.30708661417322836
        },
        {
          "duration": 0.02597400000000505,
          "durationTicks": 8,
          "midi": 42,
          "name": "F#2",
          "ticks": 25442,
          "time": 82.6038135,
          "velocity": 0.3228346456692913
        },
        {
          "duration": 0.02272725000000264,
          "durationTicks": 7,
          "midi": 42,
          "name": "F#2",
          "ticks": 25560,
          "time": 82.98693,
          "velocity": 0.28346456692913385
        },
        {
          "duration": 0.025973999999990838,
          "durationTicks": 8,
          "midi": 37,
          "name": "C#2",
          "ticks": 25682,
          "time": 83.38303350000001,
          "velocity": 0.7322834645669292
        },
        {
          "duration": 0.025973999999990838,
          "durationTicks": 8,
          "midi": 42,
          "name": "F#2",
          "ticks": 25682,
          "time": 83.38303350000001,
          "velocity": 0.29133858267716534
        },
        {
          "duration": 0.02272725000000264,
          "durationTicks": 7,
          "midi": 42,
          "name": "F#2",
          "ticks": 25800,
          "time": 83.76615,
          "velocity": 0.31496062992125984
        },
        {
          "duration": 0.02597400000000505,
          "durationTicks": 8,
          "midi": 42,
          "name": "F#2",
          "ticks": 25922,
          "time": 84.1622535,
          "velocity": 0.3464566929133858
        },
        {
          "duration": 0.02272725000000264,
          "durationTicks": 7,
          "midi": 42,
          "name": "F#2",
          "ticks": 26040,
          "time": 84.54537,
          "velocity": 0.31496062992125984
        },
        {
          "duration": 0.02272725000000264,
          "durationTicks": 7,
          "midi": 37,
          "name": "C#2",
          "ticks": 26160,
          "time": 84.93498,
          "velocity": 0.7165354330708661
        },
        {
          "duration": 0.02597400000000505,
          "durationTicks": 8,
          "midi": 42,
          "name": "F#2",
          "ticks": 26162,
          "time": 84.9414735,
          "velocity": 0.30708661417322836
        },
        {
          "duration": 0.02272725000000264,
          "durationTicks": 7,
          "midi": 42,
          "name": "F#2",
          "ticks": 26280,
          "time": 85.32459,
          "velocity": 0.30708661417322836
        },
        {
          "duration": 0.02272725000000264,
          "durationTicks": 7,
          "midi": 42,
          "name": "F#2",
          "ticks": 26400,
          "time": 85.7142,
          "velocity": 0.3228346456692913
        },
        {
          "duration": 0.02272725000000264,
          "durationTicks": 7,
          "midi": 42,
          "name": "F#2",
          "ticks": 26520,
          "time": 86.10381,
          "velocity": 0.29133858267716534
        },
        {
          "duration": 0.02597400000000505,
          "durationTicks": 8,
          "midi": 37,
          "name": "C#2",
          "ticks": 26642,
          "time": 86.4999135,
          "velocity": 0.7165354330708661
        },
        {
          "duration": 0.02272725000000264,
          "durationTicks": 7,
          "midi": 42,
          "name": "F#2",
          "ticks": 26645,
          "time": 86.50965375,
          "velocity": 0.28346456692913385
        },
        {
          "duration": 0.025973999999990838,
          "durationTicks": 8,
          "midi": 42,
          "name": "F#2",
          "ticks": 26762,
          "time": 86.88952350000001,
          "velocity": 0.33858267716535434
        },
        {
          "duration": 0.025973999999990838,
          "durationTicks": 8,
          "midi": 42,
          "name": "F#2",
          "ticks": 26882,
          "time": 87.27913350000001,
          "velocity": 0.3464566929133858
        },
        {
          "duration": 0.02272725000000264,
          "durationTicks": 7,
          "midi": 42,
          "name": "F#2",
          "ticks": 27000,
          "time": 87.66225,
          "velocity": 0.33858267716535434
        },
        {
          "duration": 0.025973999999990838,
          "durationTicks": 8,
          "midi": 37,
          "name": "C#2",
          "ticks": 27122,
          "time": 88.05835350000001,
          "velocity": 0.6850393700787402
        },
        {
          "duration": 0.025973999999990838,
          "durationTicks": 8,
          "midi": 42,
          "name": "F#2",
          "ticks": 27122,
          "time": 88.05835350000001,
          "velocity": 0.33858267716535434
        },
        {
          "duration": 0.025973999999990838,
          "durationTicks": 8,
          "midi": 42,
          "name": "F#2",
          "ticks": 27242,
          "time": 88.44796350000001,
          "velocity": 0.25196850393700787
        },
        {
          "duration": 0.02272725000000264,
          "durationTicks": 7,
          "midi": 42,
          "name": "F#2",
          "ticks": 27360,
          "time": 88.83108,
          "velocity": 0.31496062992125984
        },
        {
          "duration": 0.02272725000000264,
          "durationTicks": 7,
          "midi": 42,
          "name": "F#2",
          "ticks": 27480,
          "time": 89.22069,
          "velocity": 0.2755905511811024
        },
        {
          "duration": 0.02272724999998843,
          "durationTicks": 7,
          "midi": 37,
          "name": "C#2",
          "ticks": 27600,
          "time": 89.61030000000001,
          "velocity": 0.7007874015748031
        },
        {
          "duration": 0.02272724999998843,
          "durationTicks": 7,
          "midi": 42,
          "name": "F#2",
          "ticks": 27600,
          "time": 89.61030000000001,
          "velocity": 0.2755905511811024
        },
        {
          "duration": 0.02272725000000264,
          "durationTicks": 7,
          "midi": 42,
          "name": "F#2",
          "ticks": 27720,
          "time": 89.99991,
          "velocity": 0.31496062992125984
        },
        {
          "duration": 0.025973999999990838,
          "durationTicks": 8,
          "midi": 42,
          "name": "F#2",
          "ticks": 27842,
          "time": 90.39601350000001,
          "velocity": 0.28346456692913385
        },
        {
          "duration": 0.02272724999998843,
          "durationTicks": 7,
          "midi": 42,
          "name": "F#2",
          "ticks": 27960,
          "time": 90.77913000000001,
          "velocity": 0.25196850393700787
        },
        {
          "duration": 0.02272725000000264,
          "durationTicks": 7,
          "midi": 37,
          "name": "C#2",
          "ticks": 28080,
          "time": 91.16874,
          "velocity": 0.7007874015748031
        },
        {
          "duration": 0.02272725000000264,
          "durationTicks": 7,
          "midi": 42,
          "name": "F#2",
          "ticks": 28080,
          "time": 91.16874,
          "velocity": 0.30708661417322836
        },
        {
          "duration": 0.02272725000000264,
          "durationTicks": 7,
          "midi": 42,
          "name": "F#2",
          "ticks": 28200,
          "time": 91.55835,
          "velocity": 0.30708661417322836
        },
        {
          "duration": 0.025973999999990838,
          "durationTicks": 8,
          "midi": 42,
          "name": "F#2",
          "ticks": 28322,
          "time": 91.95445350000001,
          "velocity": 0.25984251968503935
        },
        {
          "duration": 0.02272725000000264,
          "durationTicks": 7,
          "midi": 42,
          "name": "F#2",
          "ticks": 28440,
          "time": 92.33757,
          "velocity": 0.3228346456692913
        },
        {
          "duration": 0.02272725000000264,
          "durationTicks": 7,
          "midi": 37,
          "name": "C#2",
          "ticks": 28560,
          "time": 92.72718,
          "velocity": 0.7165354330708661
        },
        {
          "duration": 0.02272725000000264,
          "durationTicks": 7,
          "midi": 42,
          "name": "F#2",
          "ticks": 28560,
          "time": 92.72718,
          "velocity": 0.29133858267716534
        },
        {
          "duration": 0.02272724999998843,
          "durationTicks": 7,
          "midi": 42,
          "name": "F#2",
          "ticks": 28680,
          "time": 93.11679000000001,
          "velocity": 0.3543307086614173
        },
        {
          "duration": 0.02597400000000505,
          "durationTicks": 8,
          "midi": 42,
          "name": "F#2",
          "ticks": 28802,
          "time": 93.5128935,
          "velocity": 0.33858267716535434
        },
        {
          "duration": 0.02272725000000264,
          "durationTicks": 7,
          "midi": 42,
          "name": "F#2",
          "ticks": 28920,
          "time": 93.89601,
          "velocity": 0.31496062992125984
        },
        {
          "duration": 0.02272725000000264,
          "durationTicks": 7,
          "midi": 37,
          "name": "C#2",
          "ticks": 29040,
          "time": 94.28562000000001,
          "velocity": 0.7165354330708661
        },
        {
          "duration": 0.02272725000000264,
          "durationTicks": 7,
          "midi": 42,
          "name": "F#2",
          "ticks": 29040,
          "time": 94.28562000000001,
          "velocity": 0.3228346456692913
        },
        {
          "duration": 0.02272725000000264,
          "durationTicks": 7,
          "midi": 42,
          "name": "F#2",
          "ticks": 29160,
          "time": 94.67523,
          "velocity": 0.30708661417322836
        },
        {
          "duration": 0.02597400000000505,
          "durationTicks": 8,
          "midi": 42,
          "name": "F#2",
          "ticks": 29282,
          "time": 95.07133350000001,
          "velocity": 0.3228346456692913
        },
        {
          "duration": 0.02272725000000264,
          "durationTicks": 7,
          "midi": 42,
          "name": "F#2",
          "ticks": 29400,
          "time": 95.45445000000001,
          "velocity": 0.28346456692913385
        },
        {
          "duration": 0.02272725000000264,
          "durationTicks": 7,
          "midi": 37,
          "name": "C#2",
          "ticks": 29520,
          "time": 95.84406,
          "velocity": 0.7322834645669292
        },
        {
          "duration": 0.02597400000000505,
          "durationTicks": 8,
          "midi": 42,
          "name": "F#2",
          "ticks": 29522,
          "time": 95.8505535,
          "velocity": 0.29133858267716534
        },
        {
          "duration": 0.02272725000000264,
          "durationTicks": 7,
          "midi": 42,
          "name": "F#2",
          "ticks": 29640,
          "time": 96.23367,
          "velocity": 0.31496062992125984
        },
        {
          "duration": 0.025973999999990838,
          "durationTicks": 8,
          "midi": 42,
          "name": "F#2",
          "ticks": 29762,
          "time": 96.62977350000001,
          "velocity": 0.3464566929133858
        },
        {
          "duration": 0.02272725000000264,
          "durationTicks": 7,
          "midi": 42,
          "name": "F#2",
          "ticks": 29880,
          "time": 97.01289,
          "velocity": 0.31496062992125984
        },
        {
          "duration": 0.02272725000000264,
          "durationTicks": 7,
          "midi": 37,
          "name": "C#2",
          "ticks": 30000,
          "time": 97.4025,
          "velocity": 0.7165354330708661
        },
        {
          "duration": 0.02597400000000505,
          "durationTicks": 8,
          "midi": 42,
          "name": "F#2",
          "ticks": 30002,
          "time": 97.40899350000001,
          "velocity": 0.30708661417322836
        },
        {
          "duration": 0.025973999999990838,
          "durationTicks": 8,
          "midi": 42,
          "name": "F#2",
          "ticks": 30122,
          "time": 97.79860350000001,
          "velocity": 0.30708661417322836
        },
        {
          "duration": 0.02597400000000505,
          "durationTicks": 8,
          "midi": 42,
          "name": "F#2",
          "ticks": 30242,
          "time": 98.1882135,
          "velocity": 0.3228346456692913
        },
        {
          "duration": 0.02272725000000264,
          "durationTicks": 7,
          "midi": 42,
          "name": "F#2",
          "ticks": 30360,
          "time": 98.57133,
          "velocity": 0.29133858267716534
        },
        {
          "duration": 0.025973999999990838,
          "durationTicks": 8,
          "midi": 37,
          "name": "C#2",
          "ticks": 30482,
          "time": 98.96743350000001,
          "velocity": 0.7165354330708661
        },
        {
          "duration": 0.025973999999990838,
          "durationTicks": 8,
          "midi": 42,
          "name": "F#2",
          "ticks": 30482,
          "time": 98.96743350000001,
          "velocity": 0.28346456692913385
        },
        {
          "duration": 0.02272725000000264,
          "durationTicks": 7,
          "midi": 42,
          "name": "F#2",
          "ticks": 30600,
          "time": 99.35055,
          "velocity": 0.33858267716535434
        },
        {
          "duration": 0.02597400000000505,
          "durationTicks": 8,
          "midi": 42,
          "name": "F#2",
          "ticks": 30722,
          "time": 99.7466535,
          "velocity": 0.3464566929133858
        },
        {
          "duration": 0.02272725000000264,
          "durationTicks": 7,
          "midi": 42,
          "name": "F#2",
          "ticks": 30840,
          "time": 100.12977000000001,
          "velocity": 0.33858267716535434
        },
        {
          "duration": 0.02272725000000264,
          "durationTicks": 7,
          "midi": 37,
          "name": "C#2",
          "ticks": 30960,
          "time": 100.51938,
          "velocity": 0.6850393700787402
        },
        {
          "duration": 0.02272725000000264,
          "durationTicks": 7,
          "midi": 42,
          "name": "F#2",
          "ticks": 30960,
          "time": 100.51938,
          "velocity": 0.33858267716535434
        },
        {
          "duration": 0.02597400000000505,
          "durationTicks": 8,
          "midi": 42,
          "name": "F#2",
          "ticks": 31082,
          "time": 100.9154835,
          "velocity": 0.25196850393700787
        },
        {
          "duration": 0.025973999999990838,
          "durationTicks": 8,
          "midi": 42,
          "name": "F#2",
          "ticks": 31202,
          "time": 101.3050935,
          "velocity": 0.31496062992125984
        },
        {
          "duration": 0.02272725000000264,
          "durationTicks": 7,
          "midi": 42,
          "name": "F#2",
          "ticks": 31320,
          "time": 101.68821,
          "velocity": 0.2755905511811024
        },
        {
          "duration": 0.02272725000000264,
          "durationTicks": 7,
          "midi": 37,
          "name": "C#2",
          "ticks": 31440,
          "time": 102.07782,
          "velocity": 0.7007874015748031
        },
        {
          "duration": 0.02272725000000264,
          "durationTicks": 7,
          "midi": 42,
          "name": "F#2",
          "ticks": 31440,
          "time": 102.07782,
          "velocity": 0.2755905511811024
        },
        {
          "duration": 0.025973999999990838,
          "durationTicks": 8,
          "midi": 42,
          "name": "F#2",
          "ticks": 31562,
          "time": 102.4739235,
          "velocity": 0.31496062992125984
        },
        {
          "duration": 0.02272725000000264,
          "durationTicks": 7,
          "midi": 42,
          "name": "F#2",
          "ticks": 31685,
          "time": 102.87327375000001,
          "velocity": 0.28346456692913385
        },
        {
          "duration": 0.02272725000000264,
          "durationTicks": 7,
          "midi": 42,
          "name": "F#2",
          "ticks": 31800,
          "time": 103.24665,
          "velocity": 0.25196850393700787
        },
        {
          "duration": 0.02272725000000264,
          "durationTicks": 7,
          "midi": 37,
          "name": "C#2",
          "ticks": 31920,
          "time": 103.63626000000001,
          "velocity": 0.7007874015748031
        },
        {
          "duration": 0.02272725000000264,
          "durationTicks": 7,
          "midi": 42,
          "name": "F#2",
          "ticks": 31920,
          "time": 103.63626000000001,
          "velocity": 0.30708661417322836
        },
        {
          "duration": 0.02272725000000264,
          "durationTicks": 7,
          "midi": 42,
          "name": "F#2",
          "ticks": 32040,
          "time": 104.02587,
          "velocity": 0.30708661417322836
        },
        {
          "duration": 0.02597400000000505,
          "durationTicks": 8,
          "midi": 42,
          "name": "F#2",
          "ticks": 32162,
          "time": 104.4219735,
          "velocity": 0.25984251968503935
        },
        {
          "duration": 0.02272725000000264,
          "durationTicks": 7,
          "midi": 42,
          "name": "F#2",
          "ticks": 32280,
          "time": 104.80509,
          "velocity": 0.3228346456692913
        },
        {
          "duration": 0.02272725000000264,
          "durationTicks": 7,
          "midi": 37,
          "name": "C#2",
          "ticks": 32400,
          "time": 105.1947,
          "velocity": 0.7165354330708661
        },
        {
          "duration": 0.025973999999990838,
          "durationTicks": 8,
          "midi": 42,
          "name": "F#2",
          "ticks": 32402,
          "time": 105.2011935,
          "velocity": 0.29133858267716534
        },
        {
          "duration": 0.02272725000000264,
          "durationTicks": 7,
          "midi": 42,
          "name": "F#2",
          "ticks": 32520,
          "time": 105.58431,
          "velocity": 0.3543307086614173
        },
        {
          "duration": 0.02597400000000505,
          "durationTicks": 8,
          "midi": 42,
          "name": "F#2",
          "ticks": 32642,
          "time": 105.9804135,
          "velocity": 0.33858267716535434
        },
        {
          "duration": 0.02272725000000264,
          "durationTicks": 7,
          "midi": 42,
          "name": "F#2",
          "ticks": 32760,
          "time": 106.36353,
          "velocity": 0.31496062992125984
        },
        {
          "duration": 0.02272725000000264,
          "durationTicks": 7,
          "midi": 37,
          "name": "C#2",
          "ticks": 32880,
          "time": 106.75314,
          "velocity": 0.7165354330708661
        },
        {
          "duration": 0.02272725000000264,
          "durationTicks": 7,
          "midi": 42,
          "name": "F#2",
          "ticks": 32880,
          "time": 106.75314,
          "velocity": 0.3228346456692913
        },
        {
          "duration": 0.02597400000000505,
          "durationTicks": 8,
          "midi": 42,
          "name": "F#2",
          "ticks": 33002,
          "time": 107.1492435,
          "velocity": 0.30708661417322836
        },
        {
          "duration": 0.025973999999990838,
          "durationTicks": 8,
          "midi": 42,
          "name": "F#2",
          "ticks": 33122,
          "time": 107.5388535,
          "velocity": 0.3228346456692913
        },
        {
          "duration": 0.02272725000000264,
          "durationTicks": 7,
          "midi": 42,
          "name": "F#2",
          "ticks": 33240,
          "time": 107.92197,
          "velocity": 0.28346456692913385
        },
        {
          "duration": 0.02272725000000264,
          "durationTicks": 7,
          "midi": 37,
          "name": "C#2",
          "ticks": 33360,
          "time": 108.31158,
          "velocity": 0.7322834645669292
        },
        {
          "duration": 0.02272725000000264,
          "durationTicks": 7,
          "midi": 42,
          "name": "F#2",
          "ticks": 33360,
          "time": 108.31158,
          "velocity": 0.29133858267716534
        },
        {
          "duration": 0.02272725000000264,
          "durationTicks": 7,
          "midi": 42,
          "name": "F#2",
          "ticks": 33480,
          "time": 108.70119,
          "velocity": 0.31496062992125984
        },
        {
          "duration": 0.02272725000000264,
          "durationTicks": 7,
          "midi": 46,
          "name": "A#2",
          "ticks": 33605,
          "time": 109.10703375000001,
          "velocity": 0.29133858267716534
        },
        {
          "duration": 0.02272725000000264,
          "durationTicks": 7,
          "midi": 46,
          "name": "A#2",
          "ticks": 33720,
          "time": 109.48041,
          "velocity": 0.2992125984251969
        },
        {
          "duration": 0.02272725000000264,
          "durationTicks": 7,
          "midi": 37,
          "name": "C#2",
          "ticks": 33840,
          "time": 109.87002,
          "velocity": 0.7165354330708661
        },
        {
          "duration": 0.02272725000000264,
          "durationTicks": 7,
          "midi": 46,
          "name": "A#2",
          "ticks": 33840,
          "time": 109.87002,
          "velocity": 0.31496062992125984
        },
        {
          "duration": 0.02597400000000505,
          "durationTicks": 8,
          "midi": 46,
          "name": "A#2",
          "ticks": 33962,
          "time": 110.26612349999999,
          "velocity": 0.3228346456692913
        },
        {
          "duration": 0.025973999999990838,
          "durationTicks": 8,
          "midi": 46,
          "name": "A#2",
          "ticks": 34087,
          "time": 110.67196725000001,
          "velocity": 0.33070866141732286
        },
        {
          "duration": 0.02272725000000264,
          "durationTicks": 7,
          "midi": 47,
          "name": "B2",
          "ticks": 34090,
          "time": 110.6817075,
          "velocity": 0.7480314960629921
        },
        {
          "duration": 0.02272725000000264,
          "durationTicks": 7,
          "midi": 40,
          "name": "E2",
          "ticks": 34200,
          "time": 111.03885,
          "velocity": 0.6850393700787402
        },
        {
          "duration": 0.02272725000000264,
          "durationTicks": 7,
          "midi": 40,
          "name": "E2",
          "ticks": 34230,
          "time": 111.1362525,
          "velocity": 0.5669291338582677
        },
        {
          "duration": 0.02272725000000264,
          "durationTicks": 7,
          "midi": 40,
          "name": "E2",
          "ticks": 34260,
          "time": 111.233655,
          "velocity": 0.5039370078740157
        },
        {
          "duration": 0.02597400000000505,
          "durationTicks": 8,
          "midi": 41,
          "name": "F2",
          "ticks": 34322,
          "time": 111.43495349999999,
          "velocity": 0.6850393700787402
        },
        {
          "duration": 0.02272725000000264,
          "durationTicks": 7,
          "midi": 41,
          "name": "F2",
          "ticks": 34350,
          "time": 111.5258625,
          "velocity": 0.7007874015748031
        },
        {
          "duration": 0.02272725000000264,
          "durationTicks": 7,
          "midi": 41,
          "name": "F2",
          "ticks": 34380,
          "time": 111.623265,
          "velocity": 0.7086614173228346
        },
        {
          "duration": 0.02272725000000264,
          "durationTicks": 7,
          "midi": 41,
          "name": "F2",
          "ticks": 34410,
          "time": 111.7206675,
          "velocity": 0.7244094488188977
        },
        {
          "duration": 0.02597400000000505,
          "durationTicks": 8,
          "midi": 41,
          "name": "F2",
          "ticks": 34442,
          "time": 111.8245635,
          "velocity": 0.7401574803149606
        },
        {
          "duration": 0.02272725000000264,
          "durationTicks": 7,
          "midi": 41,
          "name": "F2",
          "ticks": 34470,
          "time": 111.9154725,
          "velocity": 0.7559055118110236
        },
        {
          "duration": 0.02272725000000264,
          "durationTicks": 7,
          "midi": 41,
          "name": "F2",
          "ticks": 34500,
          "time": 112.01287500000001,
          "velocity": 0.7716535433070866
        },
        {
          "duration": 0.025973999999990838,
          "durationTicks": 8,
          "midi": 41,
          "name": "F2",
          "ticks": 34532,
          "time": 112.116771,
          "velocity": 0.7795275590551181
        },
        {
          "duration": 0.02597400000000505,
          "durationTicks": 8,
          "midi": 36,
          "name": "C2",
          "ticks": 34567,
          "time": 112.23040725,
          "velocity": 0.6062992125984252
        },
        {
          "duration": 0.02597400000000505,
          "durationTicks": 8,
          "midi": 57,
          "name": "A3",
          "ticks": 34567,
          "time": 112.23040725,
          "velocity": 0.5118110236220472
        },
        {
          "duration": 0.02272725000000264,
          "durationTicks": 7,
          "midi": 54,
          "name": "F#3",
          "ticks": 34570,
          "time": 112.24014749999999,
          "velocity": 0.2125984251968504
        },
        {
          "duration": 0.02272725000000264,
          "durationTicks": 7,
          "midi": 46,
          "name": "A#2",
          "ticks": 34570,
          "time": 112.24014749999999,
          "velocity": 0.2125984251968504
        },
        {
          "duration": 0.02272725000000264,
          "durationTicks": 7,
          "midi": 54,
          "name": "F#3",
          "ticks": 34620,
          "time": 112.402485,
          "velocity": 0.1732283464566929
        },
        {
          "duration": 0.02272725000000264,
          "durationTicks": 7,
          "midi": 54,
          "name": "F#3",
          "ticks": 34680,
          "time": 112.59729,
          "velocity": 0.5039370078740157
        },
        {
          "duration": 0.02272725000000264,
          "durationTicks": 7,
          "midi": 46,
          "name": "A#2",
          "ticks": 34680,
          "time": 112.59729,
          "velocity": 0.25984251968503935
        },
        {
          "duration": 0.02272725000000264,
          "durationTicks": 7,
          "midi": 54,
          "name": "F#3",
          "ticks": 34740,
          "time": 112.792095,
          "velocity": 0.2047244094488189
        },
        {
          "duration": 0.02272725000000264,
          "durationTicks": 7,
          "midi": 40,
          "name": "E2",
          "ticks": 34800,
          "time": 112.9869,
          "velocity": 0.8267716535433071
        },
        {
          "duration": 0.02272725000000264,
          "durationTicks": 7,
          "midi": 54,
          "name": "F#3",
          "ticks": 34800,
          "time": 112.9869,
          "velocity": 0.2125984251968504
        },
        {
          "duration": 0.02597400000000505,
          "durationTicks": 8,
          "midi": 46,
          "name": "A#2",
          "ticks": 34802,
          "time": 112.9933935,
          "velocity": 0.25984251968503935
        },
        {
          "duration": 0.02272725000000264,
          "durationTicks": 7,
          "midi": 54,
          "name": "F#3",
          "ticks": 34860,
          "time": 113.18170500000001,
          "velocity": 0.1732283464566929
        },
        {
          "duration": 0.02272724999998843,
          "durationTicks": 7,
          "midi": 54,
          "name": "F#3",
          "ticks": 34920,
          "time": 113.37651000000001,
          "velocity": 0.41732283464566927
        },
        {
          "duration": 0.02272724999998843,
          "durationTicks": 7,
          "midi": 46,
          "name": "A#2",
          "ticks": 34920,
          "time": 113.37651000000001,
          "velocity": 0.2125984251968504
        },
        {
          "duration": 0.02272725000000264,
          "durationTicks": 7,
          "midi": 40,
          "name": "E2",
          "ticks": 34980,
          "time": 113.571315,
          "velocity": 0.6692913385826772
        },
        {
          "duration": 0.02272725000000264,
          "durationTicks": 7,
          "midi": 54,
          "name": "F#3",
          "ticks": 34980,
          "time": 113.571315,
          "velocity": 0.23622047244094488
        },
        {
          "duration": 0.02597400000000505,
          "durationTicks": 8,
          "midi": 36,
          "name": "C2",
          "ticks": 35042,
          "time": 113.77261349999999,
          "velocity": 0.6062992125984252
        },
        {
          "duration": 0.02597400000000505,
          "durationTicks": 8,
          "midi": 54,
          "name": "F#3",
          "ticks": 35042,
          "time": 113.77261349999999,
          "velocity": 0.23622047244094488
        },
        {
          "duration": 0.02597400000000505,
          "durationTicks": 8,
          "midi": 46,
          "name": "A#2",
          "ticks": 35042,
          "time": 113.77261349999999,
          "velocity": 0.25984251968503935
        },
        {
          "duration": 0.02272725000000264,
          "durationTicks": 7,
          "midi": 54,
          "name": "F#3",
          "ticks": 35100,
          "time": 113.960925,
          "velocity": 0.1732283464566929
        },
        {
          "duration": 0.02597400000000505,
          "durationTicks": 8,
          "midi": 36,
          "name": "C2",
          "ticks": 35162,
          "time": 114.1622235,
          "velocity": 0.6062992125984252
        },
        {
          "duration": 0.02597400000000505,
          "durationTicks": 8,
          "midi": 54,
          "name": "F#3",
          "ticks": 35162,
          "time": 114.1622235,
          "velocity": 0.41732283464566927
        },
        {
          "duration": 0.02597400000000505,
          "durationTicks": 8,
          "midi": 46,
          "name": "A#2",
          "ticks": 35162,
          "time": 114.1622235,
          "velocity": 0.2125984251968504
        },
        {
          "duration": 0.02272725000000264,
          "durationTicks": 7,
          "midi": 54,
          "name": "F#3",
          "ticks": 35220,
          "time": 114.35053500000001,
          "velocity": 0.23622047244094488
        },
        {
          "duration": 0.02272724999998843,
          "durationTicks": 7,
          "midi": 40,
          "name": "E2",
          "ticks": 35280,
          "time": 114.54534000000001,
          "velocity": 0.8267716535433071
        },
        {
          "duration": 0.02272724999998843,
          "durationTicks": 7,
          "midi": 54,
          "name": "F#3",
          "ticks": 35280,
          "time": 114.54534000000001,
          "velocity": 0.23622047244094488
        },
        {
          "duration": 0.02272724999998843,
          "durationTicks": 7,
          "midi": 46,
          "name": "A#2",
          "ticks": 35280,
          "time": 114.54534000000001,
          "velocity": 0.25984251968503935
        },
        {
          "duration": 0.02272725000000264,
          "durationTicks": 7,
          "midi": 54,
          "name": "F#3",
          "ticks": 35340,
          "time": 114.740145,
          "velocity": 0.28346456692913385
        },
        {
          "duration": 0.02272725000000264,
          "durationTicks": 7,
          "midi": 36,
          "name": "C2",
          "ticks": 35400,
          "time": 114.93495,
          "velocity": 0.6062992125984252
        },
        {
          "duration": 0.02597400000000505,
          "durationTicks": 8,
          "midi": 54,
          "name": "F#3",
          "ticks": 35402,
          "time": 114.94144349999999,
          "velocity": 0.41732283464566927
        },
        {
          "duration": 0.02597400000000505,
          "durationTicks": 8,
          "midi": 46,
          "name": "A#2",
          "ticks": 35402,
          "time": 114.94144349999999,
          "velocity": 0.25984251968503935
        },
        {
          "duration": 0.02272725000000264,
          "durationTicks": 7,
          "midi": 54,
          "name": "F#3",
          "ticks": 35460,
          "time": 115.129755,
          "velocity": 0.28346456692913385
        },
        {
          "duration": 0.02597400000000505,
          "durationTicks": 8,
          "midi": 36,
          "name": "C2",
          "ticks": 35522,
          "time": 115.3310535,
          "velocity": 0.6062992125984252
        },
        {
          "duration": 0.02597400000000505,
          "durationTicks": 8,
          "midi": 54,
          "name": "F#3",
          "ticks": 35522,
          "time": 115.3310535,
          "velocity": 0.23622047244094488
        },
        {
          "duration": 0.02597400000000505,
          "durationTicks": 8,
          "midi": 46,
          "name": "A#2",
          "ticks": 35522,
          "time": 115.3310535,
          "velocity": 0.2125984251968504
        },
        {
          "duration": 0.02272725000000264,
          "durationTicks": 7,
          "midi": 54,
          "name": "F#3",
          "ticks": 35580,
          "time": 115.51936500000001,
          "velocity": 0.14173228346456693
        },
        {
          "duration": 0.02272724999998843,
          "durationTicks": 7,
          "midi": 54,
          "name": "F#3",
          "ticks": 35640,
          "time": 115.71417000000001,
          "velocity": 0.41732283464566927
        },
        {
          "duration": 0.02272724999998843,
          "durationTicks": 7,
          "midi": 46,
          "name": "A#2",
          "ticks": 35640,
          "time": 115.71417000000001,
          "velocity": 0.25984251968503935
        },
        {
          "duration": 0.02272725000000264,
          "durationTicks": 7,
          "midi": 54,
          "name": "F#3",
          "ticks": 35700,
          "time": 115.908975,
          "velocity": 0.28346456692913385
        },
        {
          "duration": 0.02272725000000264,
          "durationTicks": 7,
          "midi": 40,
          "name": "E2",
          "ticks": 35760,
          "time": 116.10378,
          "velocity": 0.8267716535433071
        },
        {
          "duration": 0.02272725000000264,
          "durationTicks": 7,
          "midi": 54,
          "name": "F#3",
          "ticks": 35760,
          "time": 116.10378,
          "velocity": 0.28346456692913385
        },
        {
          "duration": 0.02597400000000505,
          "durationTicks": 8,
          "midi": 46,
          "name": "A#2",
          "ticks": 35762,
          "time": 116.11027349999999,
          "velocity": 0.25984251968503935
        },
        {
          "duration": 0.02272725000000264,
          "durationTicks": 7,
          "midi": 54,
          "name": "F#3",
          "ticks": 35820,
          "time": 116.298585,
          "velocity": 0.14173228346456693
        },
        {
          "duration": 0.02597400000000505,
          "durationTicks": 8,
          "midi": 54,
          "name": "F#3",
          "ticks": 35882,
          "time": 116.4998835,
          "velocity": 0.41732283464566927
        },
        {
          "duration": 0.02597400000000505,
          "durationTicks": 8,
          "midi": 46,
          "name": "A#2",
          "ticks": 35882,
          "time": 116.4998835,
          "velocity": 0.2125984251968504
        },
        {
          "duration": 0.02272724999998843,
          "durationTicks": 7,
          "midi": 40,
          "name": "E2",
          "ticks": 35885,
          "time": 116.50962375000002,
          "velocity": 0.5984251968503937
        },
        {
          "duration": 0.02272725000000264,
          "durationTicks": 7,
          "midi": 40,
          "name": "E2",
          "ticks": 35940,
          "time": 116.68819500000001,
          "velocity": 0.4409448818897638
        },
        {
          "duration": 0.02272725000000264,
          "durationTicks": 7,
          "midi": 54,
          "name": "F#3",
          "ticks": 35940,
          "time": 116.68819500000001,
          "velocity": 0.1732283464566929
        },
        {
          "duration": 0.025973999999990838,
          "durationTicks": 8,
          "midi": 36,
          "name": "C2",
          "ticks": 36002,
          "time": 116.8894935,
          "velocity": 0.6062992125984252
        },
        {
          "duration": 0.025973999999990838,
          "durationTicks": 8,
          "midi": 54,
          "name": "F#3",
          "ticks": 36002,
          "time": 116.8894935,
          "velocity": 0.2047244094488189
        },
        {
          "duration": 0.025973999999990838,
          "durationTicks": 8,
          "midi": 46,
          "name": "A#2",
          "ticks": 36002,
          "time": 116.8894935,
          "velocity": 0.25984251968503935
        },
        {
          "duration": 0.02272725000000264,
          "durationTicks": 7,
          "midi": 54,
          "name": "F#3",
          "ticks": 36060,
          "time": 117.077805,
          "velocity": 0.2047244094488189
        },
        {
          "duration": 0.02272725000000264,
          "durationTicks": 7,
          "midi": 54,
          "name": "F#3",
          "ticks": 36120,
          "time": 117.27261,
          "velocity": 0.41732283464566927
        },
        {
          "duration": 0.02597400000000505,
          "durationTicks": 8,
          "midi": 46,
          "name": "A#2",
          "ticks": 36122,
          "time": 117.27910349999999,
          "velocity": 0.2125984251968504
        },
        {
          "duration": 0.02272725000000264,
          "durationTicks": 7,
          "midi": 36,
          "name": "C2",
          "ticks": 36180,
          "time": 117.467415,
          "velocity": 0.6062992125984252
        },
        {
          "duration": 0.02272725000000264,
          "durationTicks": 7,
          "midi": 54,
          "name": "F#3",
          "ticks": 36180,
          "time": 117.467415,
          "velocity": 0.14173228346456693
        },
        {
          "duration": 0.02597400000000505,
          "durationTicks": 8,
          "midi": 40,
          "name": "E2",
          "ticks": 36242,
          "time": 117.6687135,
          "velocity": 0.8267716535433071
        },
        {
          "duration": 0.02597400000000505,
          "durationTicks": 8,
          "midi": 54,
          "name": "F#3",
          "ticks": 36242,
          "time": 117.6687135,
          "velocity": 0.23622047244094488
        },
        {
          "duration": 0.02597400000000505,
          "durationTicks": 8,
          "midi": 46,
          "name": "A#2",
          "ticks": 36242,
          "time": 117.6687135,
          "velocity": 0.25984251968503935
        },
        {
          "duration": 0.02272725000000264,
          "durationTicks": 7,
          "midi": 54,
          "name": "F#3",
          "ticks": 36300,
          "time": 117.85702500000001,
          "velocity": 0.2047244094488189
        },
        {
          "duration": 0.025973999999990838,
          "durationTicks": 8,
          "midi": 54,
          "name": "F#3",
          "ticks": 36362,
          "time": 118.0583235,
          "velocity": 0.41732283464566927
        },
        {
          "duration": 0.025973999999990838,
          "durationTicks": 8,
          "midi": 46,
          "name": "A#2",
          "ticks": 36362,
          "time": 118.0583235,
          "velocity": 0.25984251968503935
        },
        {
          "duration": 0.02272725000000264,
          "durationTicks": 7,
          "midi": 54,
          "name": "F#3",
          "ticks": 36420,
          "time": 118.246635,
          "velocity": 0.1732283464566929
        },
        {
          "duration": 0.02597400000000505,
          "durationTicks": 8,
          "midi": 36,
          "name": "C2",
          "ticks": 36482,
          "time": 118.44793349999999,
          "velocity": 0.6062992125984252
        },
        {
          "duration": 0.02272725000000264,
          "durationTicks": 7,
          "midi": 54,
          "name": "F#3",
          "ticks": 36485,
          "time": 118.45767375000001,
          "velocity": 0.2047244094488189
        },
        {
          "duration": 0.02272725000000264,
          "durationTicks": 7,
          "midi": 46,
          "name": "A#2",
          "ticks": 36485,
          "time": 118.45767375000001,
          "velocity": 0.2125984251968504
        },
        {
          "duration": 0.02272725000000264,
          "durationTicks": 7,
          "midi": 54,
          "name": "F#3",
          "ticks": 36540,
          "time": 118.636245,
          "velocity": 0.1732283464566929
        },
        {
          "duration": 0.02272725000000264,
          "durationTicks": 7,
          "midi": 54,
          "name": "F#3",
          "ticks": 36600,
          "time": 118.83105,
          "velocity": 0.5039370078740157
        },
        {
          "duration": 0.02272725000000264,
          "durationTicks": 7,
          "midi": 46,
          "name": "A#2",
          "ticks": 36600,
          "time": 118.83105,
          "velocity": 0.25984251968503935
        },
        {
          "duration": 0.02272725000000264,
          "durationTicks": 7,
          "midi": 54,
          "name": "F#3",
          "ticks": 36660,
          "time": 119.025855,
          "velocity": 0.2047244094488189
        },
        {
          "duration": 0.02272725000000264,
          "durationTicks": 7,
          "midi": 40,
          "name": "E2",
          "ticks": 36720,
          "time": 119.22066000000001,
          "velocity": 0.8267716535433071
        },
        {
          "duration": 0.02272725000000264,
          "durationTicks": 7,
          "midi": 54,
          "name": "F#3",
          "ticks": 36720,
          "time": 119.22066000000001,
          "velocity": 0.1732283464566929
        },
        {
          "duration": 0.02272725000000264,
          "durationTicks": 7,
          "midi": 46,
          "name": "A#2",
          "ticks": 36720,
          "time": 119.22066000000001,
          "velocity": 0.25984251968503935
        },
        {
          "duration": 0.02272725000000264,
          "durationTicks": 7,
          "midi": 54,
          "name": "F#3",
          "ticks": 36780,
          "time": 119.415465,
          "velocity": 0.1732283464566929
        },
        {
          "duration": 0.025973999999990838,
          "durationTicks": 8,
          "midi": 54,
          "name": "F#3",
          "ticks": 36842,
          "time": 119.6167635,
          "velocity": 0.41732283464566927
        },
        {
          "duration": 0.025973999999990838,
          "durationTicks": 8,
          "midi": 46,
          "name": "A#2",
          "ticks": 36842,
          "time": 119.6167635,
          "velocity": 0.2125984251968504
        },
        {
          "duration": 0.02272725000000264,
          "durationTicks": 7,
          "midi": 40,
          "name": "E2",
          "ticks": 36900,
          "time": 119.805075,
          "velocity": 0.6692913385826772
        },
        {
          "duration": 0.02272725000000264,
          "durationTicks": 7,
          "midi": 54,
          "name": "F#3",
          "ticks": 36900,
          "time": 119.805075,
          "velocity": 0.23622047244094488
        },
        {
          "duration": 0.02597400000000505,
          "durationTicks": 8,
          "midi": 36,
          "name": "C2",
          "ticks": 36962,
          "time": 120.0063735,
          "velocity": 0.6062992125984252
        },
        {
          "duration": 0.02597400000000505,
          "durationTicks": 8,
          "midi": 54,
          "name": "F#3",
          "ticks": 36962,
          "time": 120.0063735,
          "velocity": 0.23622047244094488
        },
        {
          "duration": 0.02272725000000264,
          "durationTicks": 7,
          "midi": 46,
          "name": "A#2",
          "ticks": 36965,
          "time": 120.01611375000002,
          "velocity": 0.25984251968503935
        },
        {
          "duration": 0.02272725000000264,
          "durationTicks": 7,
          "midi": 54,
          "name": "F#3",
          "ticks": 37020,
          "time": 120.194685,
          "velocity": 0.1732283464566929
        },
        {
          "duration": 0.02272725000000264,
          "durationTicks": 7,
          "midi": 36,
          "name": "C2",
          "ticks": 37080,
          "time": 120.38949000000001,
          "velocity": 0.6062992125984252
        },
        {
          "duration": 0.025973999999990838,
          "durationTicks": 8,
          "midi": 54,
          "name": "F#3",
          "ticks": 37082,
          "time": 120.3959835,
          "velocity": 0.41732283464566927
        },
        {
          "duration": 0.025973999999990838,
          "durationTicks": 8,
          "midi": 46,
          "name": "A#2",
          "ticks": 37082,
          "time": 120.3959835,
          "velocity": 0.2125984251968504
        },
        {
          "duration": 0.02272725000000264,
          "durationTicks": 7,
          "midi": 54,
          "name": "F#3",
          "ticks": 37140,
          "time": 120.584295,
          "velocity": 0.23622047244094488
        },
        {
          "duration": 0.025973999999990838,
          "durationTicks": 8,
          "midi": 40,
          "name": "E2",
          "ticks": 37202,
          "time": 120.7855935,
          "velocity": 0.8267716535433071
        },
        {
          "duration": 0.025973999999990838,
          "durationTicks": 8,
          "midi": 54,
          "name": "F#3",
          "ticks": 37202,
          "time": 120.7855935,
          "velocity": 0.23622047244094488
        },
        {
          "duration": 0.025973999999990838,
          "durationTicks": 8,
          "midi": 46,
          "name": "A#2",
          "ticks": 37202,
          "time": 120.7855935,
          "velocity": 0.25984251968503935
        },
        {
          "duration": 0.02272725000000264,
          "durationTicks": 7,
          "midi": 54,
          "name": "F#3",
          "ticks": 37260,
          "time": 120.973905,
          "velocity": 0.28346456692913385
        },
        {
          "duration": 0.02272725000000264,
          "durationTicks": 7,
          "midi": 36,
          "name": "C2",
          "ticks": 37320,
          "time": 121.16871,
          "velocity": 0.6062992125984252
        },
        {
          "duration": 0.02597400000000505,
          "durationTicks": 8,
          "midi": 54,
          "name": "F#3",
          "ticks": 37322,
          "time": 121.1752035,
          "velocity": 0.41732283464566927
        },
        {
          "duration": 0.02597400000000505,
          "durationTicks": 8,
          "midi": 46,
          "name": "A#2",
          "ticks": 37322,
          "time": 121.1752035,
          "velocity": 0.25984251968503935
        },
        {
          "duration": 0.02272725000000264,
          "durationTicks": 7,
          "midi": 54,
          "name": "F#3",
          "ticks": 37380,
          "time": 121.363515,
          "velocity": 0.28346456692913385
        },
        {
          "duration": 0.025973999999990838,
          "durationTicks": 8,
          "midi": 36,
          "name": "C2",
          "ticks": 37442,
          "time": 121.5648135,
          "velocity": 0.6062992125984252
        },
        {
          "duration": 0.025973999999990838,
          "durationTicks": 8,
          "midi": 54,
          "name": "F#3",
          "ticks": 37442,
          "time": 121.5648135,
          "velocity": 0.23622047244094488
        },
        {
          "duration": 0.02272725000000264,
          "durationTicks": 7,
          "midi": 46,
          "name": "A#2",
          "ticks": 37445,
          "time": 121.57455375,
          "velocity": 0.2125984251968504
        },
        {
          "duration": 0.02272725000000264,
          "durationTicks": 7,
          "midi": 54,
          "name": "F#3",
          "ticks": 37500,
          "time": 121.753125,
          "velocity": 0.14173228346456693
        },
        {
          "duration": 0.02272725000000264,
          "durationTicks": 7,
          "midi": 54,
          "name": "F#3",
          "ticks": 37560,
          "time": 121.94793,
          "velocity": 0.41732283464566927
        },
        {
          "duration": 0.02272725000000264,
          "durationTicks": 7,
          "midi": 46,
          "name": "A#2",
          "ticks": 37560,
          "time": 121.94793,
          "velocity": 0.25984251968503935
        },
        {
          "duration": 0.02272725000000264,
          "durationTicks": 7,
          "midi": 54,
          "name": "F#3",
          "ticks": 37620,
          "time": 122.142735,
          "velocity": 0.28346456692913385
        },
        {
          "duration": 0.02272725000000264,
          "durationTicks": 7,
          "midi": 40,
          "name": "E2",
          "ticks": 37680,
          "time": 122.33754,
          "velocity": 0.8267716535433071
        },
        {
          "duration": 0.02272725000000264,
          "durationTicks": 7,
          "midi": 54,
          "name": "F#3",
          "ticks": 37680,
          "time": 122.33754,
          "velocity": 0.28346456692913385
        },
        {
          "duration": 0.02597400000000505,
          "durationTicks": 8,
          "midi": 46,
          "name": "A#2",
          "ticks": 37682,
          "time": 122.3440335,
          "velocity": 0.25984251968503935
        },
        {
          "duration": 0.02272725000000264,
          "durationTicks": 7,
          "midi": 54,
          "name": "F#3",
          "ticks": 37740,
          "time": 122.532345,
          "velocity": 0.14173228346456693
        },
        {
          "duration": 0.025973999999990838,
          "durationTicks": 8,
          "midi": 54,
          "name": "F#3",
          "ticks": 37802,
          "time": 122.7336435,
          "velocity": 0.41732283464566927
        },
        {
          "duration": 0.025973999999990838,
          "durationTicks": 8,
          "midi": 46,
          "name": "A#2",
          "ticks": 37802,
          "time": 122.7336435,
          "velocity": 0.2125984251968504
        },
        {
          "duration": 0.02272725000000264,
          "durationTicks": 7,
          "midi": 40,
          "name": "E2",
          "ticks": 37805,
          "time": 122.74338375,
          "velocity": 0.5984251968503937
        },
        {
          "duration": 0.02272725000000264,
          "durationTicks": 7,
          "midi": 40,
          "name": "E2",
          "ticks": 37860,
          "time": 122.921955,
          "velocity": 0.4409448818897638
        },
        {
          "duration": 0.02272725000000264,
          "durationTicks": 7,
          "midi": 54,
          "name": "F#3",
          "ticks": 37860,
          "time": 122.921955,
          "velocity": 0.1732283464566929
        },
        {
          "duration": 0.02272725000000264,
          "durationTicks": 7,
          "midi": 36,
          "name": "C2",
          "ticks": 37925,
          "time": 123.13299375000001,
          "velocity": 0.6062992125984252
        },
        {
          "duration": 0.02272725000000264,
          "durationTicks": 7,
          "midi": 54,
          "name": "F#3",
          "ticks": 37925,
          "time": 123.13299375000001,
          "velocity": 0.2047244094488189
        },
        {
          "duration": 0.02272725000000264,
          "durationTicks": 7,
          "midi": 46,
          "name": "A#2",
          "ticks": 37925,
          "time": 123.13299375000001,
          "velocity": 0.25984251968503935
        },
        {
          "duration": 0.02272725000000264,
          "durationTicks": 7,
          "midi": 54,
          "name": "F#3",
          "ticks": 37980,
          "time": 123.311565,
          "velocity": 0.2047244094488189
        },
        {
          "duration": 0.02272725000000264,
          "durationTicks": 7,
          "midi": 54,
          "name": "F#3",
          "ticks": 38040,
          "time": 123.50637,
          "velocity": 0.41732283464566927
        },
        {
          "duration": 0.02597400000000505,
          "durationTicks": 8,
          "midi": 46,
          "name": "A#2",
          "ticks": 38042,
          "time": 123.5128635,
          "velocity": 0.2125984251968504
        },
        {
          "duration": 0.02272725000000264,
          "durationTicks": 7,
          "midi": 36,
          "name": "C2",
          "ticks": 38100,
          "time": 123.701175,
          "velocity": 0.6062992125984252
        },
        {
          "duration": 0.02272725000000264,
          "durationTicks": 7,
          "midi": 54,
          "name": "F#3",
          "ticks": 38100,
          "time": 123.701175,
          "velocity": 0.14173228346456693
        },
        {
          "duration": 0.025973999999990838,
          "durationTicks": 8,
          "midi": 40,
          "name": "E2",
          "ticks": 38162,
          "time": 123.9024735,
          "velocity": 0.8267716535433071
        },
        {
          "duration": 0.025973999999990838,
          "durationTicks": 8,
          "midi": 54,
          "name": "F#3",
          "ticks": 38162,
          "time": 123.9024735,
          "velocity": 0.23622047244094488
        },
        {
          "duration": 0.02272725000000264,
          "durationTicks": 7,
          "midi": 46,
          "name": "A#2",
          "ticks": 38165,
          "time": 123.91221375,
          "velocity": 0.25984251968503935
        },
        {
          "duration": 0.02272725000000264,
          "durationTicks": 7,
          "midi": 54,
          "name": "F#3",
          "ticks": 38220,
          "time": 124.090785,
          "velocity": 0.2047244094488189
        },
        {
          "duration": 0.025973999999990838,
          "durationTicks": 8,
          "midi": 54,
          "name": "F#3",
          "ticks": 38282,
          "time": 124.2920835,
          "velocity": 0.41732283464566927
        },
        {
          "duration": 0.025973999999990838,
          "durationTicks": 8,
          "midi": 46,
          "name": "A#2",
          "ticks": 38282,
          "time": 124.2920835,
          "velocity": 0.25984251968503935
        },
        {
          "duration": 0.02597400000000505,
          "durationTicks": 8,
          "midi": 54,
          "name": "F#3",
          "ticks": 38342,
          "time": 124.48688849999999,
          "velocity": 0.1732283464566929
        },
        {
          "duration": 0.02272725000000264,
          "durationTicks": 7,
          "midi": 36,
          "name": "C2",
          "ticks": 38405,
          "time": 124.69143375000002,
          "velocity": 0.6062992125984252
        },
        {
          "duration": 0.02272725000000264,
          "durationTicks": 7,
          "midi": 54,
          "name": "F#3",
          "ticks": 38405,
          "time": 124.69143375000002,
          "velocity": 0.2047244094488189
        },
        {
          "duration": 0.02272725000000264,
          "durationTicks": 7,
          "midi": 54,
          "name": "F#3",
          "ticks": 38460,
          "time": 124.870005,
          "velocity": 0.1732283464566929
        },
        {
          "duration": 0.02272725000000264,
          "durationTicks": 7,
          "midi": 54,
          "name": "F#3",
          "ticks": 38520,
          "time": 125.06481000000001,
          "velocity": 0.5039370078740157
        },
        {
          "duration": 0.02272725000000264,
          "durationTicks": 7,
          "midi": 46,
          "name": "A#2",
          "ticks": 38520,
          "time": 125.06481000000001,
          "velocity": 0.25984251968503935
        },
        {
          "duration": 0.02272724999998843,
          "durationTicks": 7,
          "midi": 54,
          "name": "F#3",
          "ticks": 38580,
          "time": 125.25961500000001,
          "velocity": 0.2047244094488189
        },
        {
          "duration": 0.02272725000000264,
          "durationTicks": 7,
          "midi": 40,
          "name": "E2",
          "ticks": 38640,
          "time": 125.45442,
          "velocity": 0.8267716535433071
        },
        {
          "duration": 0.02272725000000264,
          "durationTicks": 7,
          "midi": 54,
          "name": "F#3",
          "ticks": 38640,
          "time": 125.45442,
          "velocity": 0.1732283464566929
        },
        {
          "duration": 0.02272725000000264,
          "durationTicks": 7,
          "midi": 46,
          "name": "A#2",
          "ticks": 38640,
          "time": 125.45442,
          "velocity": 0.25984251968503935
        },
        {
          "duration": 0.02272725000000264,
          "durationTicks": 7,
          "midi": 54,
          "name": "F#3",
          "ticks": 38700,
          "time": 125.649225,
          "velocity": 0.1732283464566929
        },
        {
          "duration": 0.02272725000000264,
          "durationTicks": 7,
          "midi": 54,
          "name": "F#3",
          "ticks": 38760,
          "time": 125.84403,
          "velocity": 0.41732283464566927
        },
        {
          "duration": 0.02272725000000264,
          "durationTicks": 7,
          "midi": 46,
          "name": "A#2",
          "ticks": 38760,
          "time": 125.84403,
          "velocity": 0.2125984251968504
        },
        {
          "duration": 0.02272725000000264,
          "durationTicks": 7,
          "midi": 40,
          "name": "E2",
          "ticks": 38820,
          "time": 126.038835,
          "velocity": 0.6692913385826772
        },
        {
          "duration": 0.02272725000000264,
          "durationTicks": 7,
          "midi": 54,
          "name": "F#3",
          "ticks": 38820,
          "time": 126.038835,
          "velocity": 0.23622047244094488
        },
        {
          "duration": 0.02272725000000264,
          "durationTicks": 7,
          "midi": 36,
          "name": "C2",
          "ticks": 38880,
          "time": 126.23364000000001,
          "velocity": 0.6062992125984252
        },
        {
          "duration": 0.025973999999990838,
          "durationTicks": 8,
          "midi": 54,
          "name": "F#3",
          "ticks": 38882,
          "time": 126.2401335,
          "velocity": 0.23622047244094488
        },
        {
          "duration": 0.025973999999990838,
          "durationTicks": 8,
          "midi": 46,
          "name": "A#2",
          "ticks": 38882,
          "time": 126.2401335,
          "velocity": 0.25984251968503935
        },
        {
          "duration": 0.02272724999998843,
          "durationTicks": 7,
          "midi": 40,
          "name": "E2",
          "ticks": 38940,
          "time": 126.42844500000001,
          "velocity": 0.5984251968503937
        },
        {
          "duration": 0.02272724999998843,
          "durationTicks": 7,
          "midi": 54,
          "name": "F#3",
          "ticks": 38940,
          "time": 126.42844500000001,
          "velocity": 0.1732283464566929
        },
        {
          "duration": 0.02272725000000264,
          "durationTicks": 7,
          "midi": 36,
          "name": "C2",
          "ticks": 39000,
          "time": 126.62325,
          "velocity": 0.6062992125984252
        },
        {
          "duration": 0.025973999999990838,
          "durationTicks": 8,
          "midi": 54,
          "name": "F#3",
          "ticks": 39002,
          "time": 126.6297435,
          "velocity": 0.41732283464566927
        },
        {
          "duration": 0.025973999999990838,
          "durationTicks": 8,
          "midi": 46,
          "name": "A#2",
          "ticks": 39002,
          "time": 126.6297435,
          "velocity": 0.2125984251968504
        },
        {
          "duration": 0.02272725000000264,
          "durationTicks": 7,
          "midi": 54,
          "name": "F#3",
          "ticks": 39060,
          "time": 126.818055,
          "velocity": 0.23622047244094488
        },
        {
          "duration": 0.02597400000000505,
          "durationTicks": 8,
          "midi": 40,
          "name": "E2",
          "ticks": 39122,
          "time": 127.0193535,
          "velocity": 0.8267716535433071
        },
        {
          "duration": 0.02597400000000505,
          "durationTicks": 8,
          "midi": 54,
          "name": "F#3",
          "ticks": 39122,
          "time": 127.0193535,
          "velocity": 0.23622047244094488
        },
        {
          "duration": 0.02597400000000505,
          "durationTicks": 8,
          "midi": 46,
          "name": "A#2",
          "ticks": 39122,
          "time": 127.0193535,
          "velocity": 0.25984251968503935
        },
        {
          "duration": 0.02272725000000264,
          "durationTicks": 7,
          "midi": 54,
          "name": "F#3",
          "ticks": 39180,
          "time": 127.207665,
          "velocity": 0.28346456692913385
        },
        {
          "duration": 0.02272725000000264,
          "durationTicks": 7,
          "midi": 36,
          "name": "C2",
          "ticks": 39240,
          "time": 127.40247000000001,
          "velocity": 0.6062992125984252
        },
        {
          "duration": 0.025973999999990838,
          "durationTicks": 8,
          "midi": 54,
          "name": "F#3",
          "ticks": 39242,
          "time": 127.4089635,
          "velocity": 0.41732283464566927
        },
        {
          "duration": 0.025973999999990838,
          "durationTicks": 8,
          "midi": 46,
          "name": "A#2",
          "ticks": 39242,
          "time": 127.4089635,
          "velocity": 0.25984251968503935
        },
        {
          "duration": 0.02272724999998843,
          "durationTicks": 7,
          "midi": 54,
          "name": "F#3",
          "ticks": 39300,
          "time": 127.59727500000001,
          "velocity": 0.28346456692913385
        },
        {
          "duration": 0.02272725000000264,
          "durationTicks": 7,
          "midi": 36,
          "name": "C2",
          "ticks": 39365,
          "time": 127.80831375000001,
          "velocity": 0.6062992125984252
        },
        {
          "duration": 0.02272725000000264,
          "durationTicks": 7,
          "midi": 54,
          "name": "F#3",
          "ticks": 39365,
          "time": 127.80831375000001,
          "velocity": 0.23622047244094488
        },
        {
          "duration": 0.02272725000000264,
          "durationTicks": 7,
          "midi": 46,
          "name": "A#2",
          "ticks": 39365,
          "time": 127.80831375000001,
          "velocity": 0.2125984251968504
        },
        {
          "duration": 0.02272725000000264,
          "durationTicks": 7,
          "midi": 54,
          "name": "F#3",
          "ticks": 39420,
          "time": 127.986885,
          "velocity": 0.14173228346456693
        },
        {
          "duration": 0.02272725000000264,
          "durationTicks": 7,
          "midi": 54,
          "name": "F#3",
          "ticks": 39480,
          "time": 128.18169,
          "velocity": 0.41732283464566927
        },
        {
          "duration": 0.02272725000000264,
          "durationTicks": 7,
          "midi": 46,
          "name": "A#2",
          "ticks": 39480,
          "time": 128.18169,
          "velocity": 0.25984251968503935
        },
        {
          "duration": 0.02272725000000264,
          "durationTicks": 7,
          "midi": 54,
          "name": "F#3",
          "ticks": 39540,
          "time": 128.376495,
          "velocity": 0.28346456692913385
        },
        {
          "duration": 0.02272725000000264,
          "durationTicks": 7,
          "midi": 40,
          "name": "E2",
          "ticks": 39600,
          "time": 128.5713,
          "velocity": 0.8267716535433071
        },
        {
          "duration": 0.02272725000000264,
          "durationTicks": 7,
          "midi": 54,
          "name": "F#3",
          "ticks": 39600,
          "time": 128.5713,
          "velocity": 0.28346456692913385
        },
        {
          "duration": 0.02597400000001926,
          "durationTicks": 8,
          "midi": 46,
          "name": "A#2",
          "ticks": 39602,
          "time": 128.57779349999998,
          "velocity": 0.25984251968503935
        },
        {
          "duration": 0.02272725000000264,
          "durationTicks": 7,
          "midi": 54,
          "name": "F#3",
          "ticks": 39660,
          "time": 128.766105,
          "velocity": 0.14173228346456693
        },
        {
          "duration": 0.02272725000000264,
          "durationTicks": 7,
          "midi": 54,
          "name": "F#3",
          "ticks": 39720,
          "time": 128.96091,
          "velocity": 0.41732283464566927
        },
        {
          "duration": 0.02272725000000264,
          "durationTicks": 7,
          "midi": 46,
          "name": "A#2",
          "ticks": 39720,
          "time": 128.96091,
          "velocity": 0.2125984251968504
        },
        {
          "duration": 0.02597400000001926,
          "durationTicks": 8,
          "midi": 40,
          "name": "E2",
          "ticks": 39782,
          "time": 129.1622085,
          "velocity": 0.6220472440944882
        },
        {
          "duration": 0.02597400000001926,
          "durationTicks": 8,
          "midi": 54,
          "name": "F#3",
          "ticks": 39782,
          "time": 129.1622085,
          "velocity": 0.1732283464566929
        },
        {
          "duration": 0.025973999999990838,
          "durationTicks": 8,
          "midi": 36,
          "name": "C2",
          "ticks": 39842,
          "time": 129.3570135,
          "velocity": 0.6062992125984252
        },
        {
          "duration": 0.025973999999990838,
          "durationTicks": 8,
          "midi": 54,
          "name": "F#3",
          "ticks": 39842,
          "time": 129.3570135,
          "velocity": 0.2047244094488189
        },
        {
          "duration": 0.025973999999990838,
          "durationTicks": 8,
          "midi": 46,
          "name": "A#2",
          "ticks": 39842,
          "time": 129.3570135,
          "velocity": 0.25984251968503935
        },
        {
          "duration": 0.02272725000000264,
          "durationTicks": 7,
          "midi": 40,
          "name": "E2",
          "ticks": 39900,
          "time": 129.545325,
          "velocity": 0.5984251968503937
        },
        {
          "duration": 0.02272725000000264,
          "durationTicks": 7,
          "midi": 54,
          "name": "F#3",
          "ticks": 39900,
          "time": 129.545325,
          "velocity": 0.2047244094488189
        },
        {
          "duration": 0.02272725000000264,
          "durationTicks": 7,
          "midi": 54,
          "name": "F#3",
          "ticks": 39960,
          "time": 129.74013,
          "velocity": 0.41732283464566927
        },
        {
          "duration": 0.025973999999990838,
          "durationTicks": 8,
          "midi": 46,
          "name": "A#2",
          "ticks": 39962,
          "time": 129.7466235,
          "velocity": 0.2125984251968504
        },
        {
          "duration": 0.02272725000000264,
          "durationTicks": 7,
          "midi": 36,
          "name": "C2",
          "ticks": 40020,
          "time": 129.934935,
          "velocity": 0.6062992125984252
        },
        {
          "duration": 0.02272725000000264,
          "durationTicks": 7,
          "midi": 54,
          "name": "F#3",
          "ticks": 40020,
          "time": 129.934935,
          "velocity": 0.14173228346456693
        },
        {
          "duration": 0.025973999999990838,
          "durationTicks": 8,
          "midi": 40,
          "name": "E2",
          "ticks": 40082,
          "time": 130.1362335,
          "velocity": 0.8267716535433071
        },
        {
          "duration": 0.025973999999990838,
          "durationTicks": 8,
          "midi": 54,
          "name": "F#3",
          "ticks": 40082,
          "time": 130.1362335,
          "velocity": 0.23622047244094488
        },
        {
          "duration": 0.025973999999990838,
          "durationTicks": 8,
          "midi": 46,
          "name": "A#2",
          "ticks": 40082,
          "time": 130.1362335,
          "velocity": 0.25984251968503935
        },
        {
          "duration": 0.02272725000000264,
          "durationTicks": 7,
          "midi": 54,
          "name": "F#3",
          "ticks": 40140,
          "time": 130.324545,
          "velocity": 0.2047244094488189
        },
        {
          "duration": 0.02272725000000264,
          "durationTicks": 7,
          "midi": 54,
          "name": "F#3",
          "ticks": 40200,
          "time": 130.51935,
          "velocity": 0.41732283464566927
        },
        {
          "duration": 0.025973999999990838,
          "durationTicks": 8,
          "midi": 46,
          "name": "A#2",
          "ticks": 40202,
          "time": 130.5258435,
          "velocity": 0.25984251968503935
        },
        {
          "duration": 0.02272725000000264,
          "durationTicks": 7,
          "midi": 54,
          "name": "F#3",
          "ticks": 40260,
          "time": 130.714155,
          "velocity": 0.1732283464566929
        },
        {
          "duration": 0.02272725000000264,
          "durationTicks": 7,
          "midi": 36,
          "name": "C2",
          "ticks": 40325,
          "time": 130.92519375,
          "velocity": 0.6062992125984252
        },
        {
          "duration": 0.025973999999990838,
          "durationTicks": 8,
          "midi": 54,
          "name": "F#3",
          "ticks": 40327,
          "time": 130.93168725,
          "velocity": 0.2047244094488189
        },
        {
          "duration": 0.025973999999990838,
          "durationTicks": 8,
          "midi": 46,
          "name": "A#2",
          "ticks": 40327,
          "time": 130.93168725,
          "velocity": 0.2125984251968504
        },
        {
          "duration": 0.02272725000000264,
          "durationTicks": 7,
          "midi": 54,
          "name": "F#3",
          "ticks": 40380,
          "time": 131.103765,
          "velocity": 0.1732283464566929
        },
        {
          "duration": 0.02272725000000264,
          "durationTicks": 7,
          "midi": 54,
          "name": "F#3",
          "ticks": 40440,
          "time": 131.29857,
          "velocity": 0.5039370078740157
        },
        {
          "duration": 0.02272725000000264,
          "durationTicks": 7,
          "midi": 46,
          "name": "A#2",
          "ticks": 40440,
          "time": 131.29857,
          "velocity": 0.25984251968503935
        },
        {
          "duration": 0.02272725000000264,
          "durationTicks": 7,
          "midi": 54,
          "name": "F#3",
          "ticks": 40500,
          "time": 131.49337500000001,
          "velocity": 0.2047244094488189
        },
        {
          "duration": 0.02272725000000264,
          "durationTicks": 7,
          "midi": 40,
          "name": "E2",
          "ticks": 40560,
          "time": 131.68818000000002,
          "velocity": 0.8267716535433071
        },
        {
          "duration": 0.02272725000000264,
          "durationTicks": 7,
          "midi": 54,
          "name": "F#3",
          "ticks": 40560,
          "time": 131.68818000000002,
          "velocity": 0.1732283464566929
        },
        {
          "duration": 0.025973999999990838,
          "durationTicks": 8,
          "midi": 46,
          "name": "A#2",
          "ticks": 40562,
          "time": 131.6946735,
          "velocity": 0.25984251968503935
        },
        {
          "duration": 0.02272725000000264,
          "durationTicks": 7,
          "midi": 54,
          "name": "F#3",
          "ticks": 40620,
          "time": 131.882985,
          "velocity": 0.1732283464566929
        },
        {
          "duration": 0.02272725000000264,
          "durationTicks": 7,
          "midi": 54,
          "name": "F#3",
          "ticks": 40680,
          "time": 132.07779,
          "velocity": 0.41732283464566927
        },
        {
          "duration": 0.025973999999990838,
          "durationTicks": 8,
          "midi": 46,
          "name": "A#2",
          "ticks": 40682,
          "time": 132.0842835,
          "velocity": 0.2125984251968504
        },
        {
          "duration": 0.02272725000000264,
          "durationTicks": 7,
          "midi": 40,
          "name": "E2",
          "ticks": 40740,
          "time": 132.272595,
          "velocity": 0.6692913385826772
        },
        {
          "duration": 0.02272725000000264,
          "durationTicks": 7,
          "midi": 54,
          "name": "F#3",
          "ticks": 40740,
          "time": 132.272595,
          "velocity": 0.23622047244094488
        },
        {
          "duration": 0.025973999999990838,
          "durationTicks": 8,
          "midi": 36,
          "name": "C2",
          "ticks": 40802,
          "time": 132.4738935,
          "velocity": 0.6062992125984252
        },
        {
          "duration": 0.025973999999990838,
          "durationTicks": 8,
          "midi": 54,
          "name": "F#3",
          "ticks": 40802,
          "time": 132.4738935,
          "velocity": 0.23622047244094488
        },
        {
          "duration": 0.025973999999990838,
          "durationTicks": 8,
          "midi": 46,
          "name": "A#2",
          "ticks": 40802,
          "time": 132.4738935,
          "velocity": 0.25984251968503935
        },
        {
          "duration": 0.02272725000000264,
          "durationTicks": 7,
          "midi": 40,
          "name": "E2",
          "ticks": 40860,
          "time": 132.662205,
          "velocity": 0.5984251968503937
        },
        {
          "duration": 0.02272725000000264,
          "durationTicks": 7,
          "midi": 54,
          "name": "F#3",
          "ticks": 40860,
          "time": 132.662205,
          "velocity": 0.1732283464566929
        },
        {
          "duration": 0.02272725000000264,
          "durationTicks": 7,
          "midi": 36,
          "name": "C2",
          "ticks": 40920,
          "time": 132.85701,
          "velocity": 0.6062992125984252
        },
        {
          "duration": 0.025973999999990838,
          "durationTicks": 8,
          "midi": 54,
          "name": "F#3",
          "ticks": 40922,
          "time": 132.8635035,
          "velocity": 0.41732283464566927
        },
        {
          "duration": 0.025973999999990838,
          "durationTicks": 8,
          "midi": 46,
          "name": "A#2",
          "ticks": 40922,
          "time": 132.8635035,
          "velocity": 0.2125984251968504
        },
        {
          "duration": 0.02272725000000264,
          "durationTicks": 7,
          "midi": 54,
          "name": "F#3",
          "ticks": 40980,
          "time": 133.051815,
          "velocity": 0.23622047244094488
        },
        {
          "duration": 0.02272725000000264,
          "durationTicks": 7,
          "midi": 40,
          "name": "E2",
          "ticks": 41040,
          "time": 133.24662,
          "velocity": 0.8267716535433071
        },
        {
          "duration": 0.025973999999990838,
          "durationTicks": 8,
          "midi": 54,
          "name": "F#3",
          "ticks": 41042,
          "time": 133.2531135,
          "velocity": 0.23622047244094488
        },
        {
          "duration": 0.025973999999990838,
          "durationTicks": 8,
          "midi": 46,
          "name": "A#2",
          "ticks": 41042,
          "time": 133.2531135,
          "velocity": 0.25984251968503935
        },
        {
          "duration": 0.02272725000000264,
          "durationTicks": 7,
          "midi": 54,
          "name": "F#3",
          "ticks": 41100,
          "time": 133.441425,
          "velocity": 0.28346456692913385
        },
        {
          "duration": 0.02272725000000264,
          "durationTicks": 7,
          "midi": 36,
          "name": "C2",
          "ticks": 41160,
          "time": 133.63623,
          "velocity": 0.6062992125984252
        },
        {
          "duration": 0.02597400000001926,
          "durationTicks": 8,
          "midi": 54,
          "name": "F#3",
          "ticks": 41162,
          "time": 133.6427235,
          "velocity": 0.41732283464566927
        },
        {
          "duration": 0.02597400000001926,
          "durationTicks": 8,
          "midi": 46,
          "name": "A#2",
          "ticks": 41162,
          "time": 133.6427235,
          "velocity": 0.25984251968503935
        },
        {
          "duration": 0.02272725000000264,
          "durationTicks": 7,
          "midi": 54,
          "name": "F#3",
          "ticks": 41220,
          "time": 133.831035,
          "velocity": 0.28346456692913385
        },
        {
          "duration": 0.02272725000000264,
          "durationTicks": 7,
          "midi": 36,
          "name": "C2",
          "ticks": 41285,
          "time": 134.04207375000001,
          "velocity": 0.6062992125984252
        },
        {
          "duration": 0.025973999999990838,
          "durationTicks": 8,
          "midi": 54,
          "name": "F#3",
          "ticks": 41287,
          "time": 134.04856725000002,
          "velocity": 0.23622047244094488
        },
        {
          "duration": 0.025973999999990838,
          "durationTicks": 8,
          "midi": 46,
          "name": "A#2",
          "ticks": 41287,
          "time": 134.04856725000002,
          "velocity": 0.2125984251968504
        },
        {
          "duration": 0.02272725000000264,
          "durationTicks": 7,
          "midi": 54,
          "name": "F#3",
          "ticks": 41340,
          "time": 134.220645,
          "velocity": 0.14173228346456693
        },
        {
          "duration": 0.02272725000000264,
          "durationTicks": 7,
          "midi": 54,
          "name": "F#3",
          "ticks": 41400,
          "time": 134.41545,
          "velocity": 0.41732283464566927
        },
        {
          "duration": 0.02272725000000264,
          "durationTicks": 7,
          "midi": 46,
          "name": "A#2",
          "ticks": 41400,
          "time": 134.41545,
          "velocity": 0.25984251968503935
        },
        {
          "duration": 0.02272725000000264,
          "durationTicks": 7,
          "midi": 54,
          "name": "F#3",
          "ticks": 41460,
          "time": 134.610255,
          "velocity": 0.28346456692913385
        },
        {
          "duration": 0.02272725000000264,
          "durationTicks": 7,
          "midi": 40,
          "name": "E2",
          "ticks": 41520,
          "time": 134.80506,
          "velocity": 0.8267716535433071
        },
        {
          "duration": 0.025973999999990838,
          "durationTicks": 8,
          "midi": 54,
          "name": "F#3",
          "ticks": 41522,
          "time": 134.8115535,
          "velocity": 0.28346456692913385
        },
        {
          "duration": 0.025973999999990838,
          "durationTicks": 8,
          "midi": 46,
          "name": "A#2",
          "ticks": 41522,
          "time": 134.8115535,
          "velocity": 0.25984251968503935
        },
        {
          "duration": 0.02272725000000264,
          "durationTicks": 7,
          "midi": 54,
          "name": "F#3",
          "ticks": 41580,
          "time": 134.999865,
          "velocity": 0.14173228346456693
        },
        {
          "duration": 0.025973999999990838,
          "durationTicks": 8,
          "midi": 54,
          "name": "F#3",
          "ticks": 41642,
          "time": 135.2011635,
          "velocity": 0.41732283464566927
        },
        {
          "duration": 0.025973999999990838,
          "durationTicks": 8,
          "midi": 46,
          "name": "A#2",
          "ticks": 41642,
          "time": 135.2011635,
          "velocity": 0.2125984251968504
        },
        {
          "duration": 0.025973999999990838,
          "durationTicks": 8,
          "midi": 40,
          "name": "E2",
          "ticks": 41702,
          "time": 135.3959685,
          "velocity": 0.6220472440944882
        },
        {
          "duration": 0.025973999999990838,
          "durationTicks": 8,
          "midi": 54,
          "name": "F#3",
          "ticks": 41702,
          "time": 135.3959685,
          "velocity": 0.1732283464566929
        },
        {
          "duration": 0.025973999999990838,
          "durationTicks": 8,
          "midi": 36,
          "name": "C2",
          "ticks": 41762,
          "time": 135.5907735,
          "velocity": 0.6062992125984252
        },
        {
          "duration": 0.025973999999990838,
          "durationTicks": 8,
          "midi": 54,
          "name": "F#3",
          "ticks": 41762,
          "time": 135.5907735,
          "velocity": 0.2047244094488189
        },
        {
          "duration": 0.025973999999990838,
          "durationTicks": 8,
          "midi": 46,
          "name": "A#2",
          "ticks": 41762,
          "time": 135.5907735,
          "velocity": 0.25984251968503935
        },
        {
          "duration": 0.02272725000000264,
          "durationTicks": 7,
          "midi": 54,
          "name": "F#3",
          "ticks": 41820,
          "time": 135.779085,
          "velocity": 0.2047244094488189
        },
        {
          "duration": 0.02272725000000264,
          "durationTicks": 7,
          "midi": 40,
          "name": "E2",
          "ticks": 41880,
          "time": 135.97389,
          "velocity": 0.8188976377952756
        },
        {
          "duration": 0.02272725000000264,
          "durationTicks": 7,
          "midi": 54,
          "name": "F#3",
          "ticks": 41880,
          "time": 135.97389,
          "velocity": 0.41732283464566927
        },
        {
          "duration": 0.02597400000001926,
          "durationTicks": 8,
          "midi": 46,
          "name": "A#2",
          "ticks": 41882,
          "time": 135.9803835,
          "velocity": 0.2125984251968504
        },
        {
          "duration": 0.02272725000000264,
          "durationTicks": 7,
          "midi": 40,
          "name": "E2",
          "ticks": 41940,
          "time": 136.168695,
          "velocity": 0.7952755905511811
        },
        {
          "duration": 0.02272725000000264,
          "durationTicks": 7,
          "midi": 54,
          "name": "F#3",
          "ticks": 41940,
          "time": 136.168695,
          "velocity": 0.14173228346456693
        },
        {
          "duration": 0.025973999999990838,
          "durationTicks": 8,
          "midi": 40,
          "name": "E2",
          "ticks": 42002,
          "time": 136.3699935,
          "velocity": 0.8267716535433071
        },
        {
          "duration": 0.025973999999990838,
          "durationTicks": 8,
          "midi": 54,
          "name": "F#3",
          "ticks": 42002,
          "time": 136.3699935,
          "velocity": 0.23622047244094488
        },
        {
          "duration": 0.025973999999990838,
          "durationTicks": 8,
          "midi": 46,
          "name": "A#2",
          "ticks": 42002,
          "time": 136.3699935,
          "velocity": 0.25984251968503935
        },
        {
          "duration": 0.02272725000000264,
          "durationTicks": 7,
          "midi": 54,
          "name": "F#3",
          "ticks": 42060,
          "time": 136.558305,
          "velocity": 0.2047244094488189
        },
        {
          "duration": 0.02272725000000264,
          "durationTicks": 7,
          "midi": 36,
          "name": "C2",
          "ticks": 42120,
          "time": 136.75311,
          "velocity": 0.6062992125984252
        },
        {
          "duration": 0.025973999999990838,
          "durationTicks": 8,
          "midi": 54,
          "name": "F#3",
          "ticks": 42122,
          "time": 136.7596035,
          "velocity": 0.41732283464566927
        },
        {
          "duration": 0.025973999999990838,
          "durationTicks": 8,
          "midi": 46,
          "name": "A#2",
          "ticks": 42122,
          "time": 136.7596035,
          "velocity": 0.25984251968503935
        },
        {
          "duration": 0.025973999999990838,
          "durationTicks": 8,
          "midi": 54,
          "name": "F#3",
          "ticks": 42182,
          "time": 136.9544085,
          "velocity": 0.1732283464566929
        },
        {
          "duration": 0.025973999999990838,
          "durationTicks": 8,
          "midi": 36,
          "name": "C2",
          "ticks": 42242,
          "time": 137.1492135,
          "velocity": 0.6062992125984252
        },
        {
          "duration": 0.025973999999990838,
          "durationTicks": 8,
          "midi": 54,
          "name": "F#3",
          "ticks": 42242,
          "time": 137.1492135,
          "velocity": 0.2125984251968504
        },
        {
          "duration": 0.02272725000000264,
          "durationTicks": 7,
          "midi": 54,
          "name": "F#3",
          "ticks": 42300,
          "time": 137.337525,
          "velocity": 0.1732283464566929
        },
        {
          "duration": 0.02272725000000264,
          "durationTicks": 7,
          "midi": 54,
          "name": "F#3",
          "ticks": 42360,
          "time": 137.53233,
          "velocity": 0.5039370078740157
        },
        {
          "duration": 0.02272725000000264,
          "durationTicks": 7,
          "midi": 46,
          "name": "A#2",
          "ticks": 42360,
          "time": 137.53233,
          "velocity": 0.25984251968503935
        },
        {
          "duration": 0.02272725000000264,
          "durationTicks": 7,
          "midi": 54,
          "name": "F#3",
          "ticks": 42420,
          "time": 137.727135,
          "velocity": 0.2047244094488189
        },
        {
          "duration": 0.02272725000000264,
          "durationTicks": 7,
          "midi": 40,
          "name": "E2",
          "ticks": 42480,
          "time": 137.92194,
          "velocity": 0.8267716535433071
        },
        {
          "duration": 0.02272725000000264,
          "durationTicks": 7,
          "midi": 54,
          "name": "F#3",
          "ticks": 42480,
          "time": 137.92194,
          "velocity": 0.2125984251968504
        },
        {
          "duration": 0.02272725000000264,
          "durationTicks": 7,
          "midi": 46,
          "name": "A#2",
          "ticks": 42480,
          "time": 137.92194,
          "velocity": 0.25984251968503935
        },
        {
          "duration": 0.02272725000000264,
          "durationTicks": 7,
          "midi": 54,
          "name": "F#3",
          "ticks": 42540,
          "time": 138.116745,
          "velocity": 0.1732283464566929
        },
        {
          "duration": 0.02597400000001926,
          "durationTicks": 8,
          "midi": 54,
          "name": "F#3",
          "ticks": 42602,
          "time": 138.3180435,
          "velocity": 0.41732283464566927
        },
        {
          "duration": 0.02597400000001926,
          "durationTicks": 8,
          "midi": 46,
          "name": "A#2",
          "ticks": 42602,
          "time": 138.3180435,
          "velocity": 0.2125984251968504
        },
        {
          "duration": 0.02272725000000264,
          "durationTicks": 7,
          "midi": 40,
          "name": "E2",
          "ticks": 42660,
          "time": 138.506355,
          "velocity": 0.6692913385826772
        },
        {
          "duration": 0.02272725000000264,
          "durationTicks": 7,
          "midi": 54,
          "name": "F#3",
          "ticks": 42660,
          "time": 138.506355,
          "velocity": 0.23622047244094488
        },
        {
          "duration": 0.025973999999990838,
          "durationTicks": 8,
          "midi": 36,
          "name": "C2",
          "ticks": 42722,
          "time": 138.7076535,
          "velocity": 0.6062992125984252
        },
        {
          "duration": 0.025973999999990838,
          "durationTicks": 8,
          "midi": 54,
          "name": "F#3",
          "ticks": 42722,
          "time": 138.7076535,
          "velocity": 0.23622047244094488
        },
        {
          "duration": 0.025973999999990838,
          "durationTicks": 8,
          "midi": 46,
          "name": "A#2",
          "ticks": 42722,
          "time": 138.7076535,
          "velocity": 0.25984251968503935
        },
        {
          "duration": 0.02272724999997422,
          "durationTicks": 7,
          "midi": 54,
          "name": "F#3",
          "ticks": 42780,
          "time": 138.89596500000002,
          "velocity": 0.1732283464566929
        },
        {
          "duration": 0.02272725000000264,
          "durationTicks": 7,
          "midi": 36,
          "name": "C2",
          "ticks": 42840,
          "time": 139.09077,
          "velocity": 0.6062992125984252
        },
        {
          "duration": 0.025973999999990838,
          "durationTicks": 8,
          "midi": 54,
          "name": "F#3",
          "ticks": 42842,
          "time": 139.0972635,
          "velocity": 0.41732283464566927
        },
        {
          "duration": 0.025973999999990838,
          "durationTicks": 8,
          "midi": 46,
          "name": "A#2",
          "ticks": 42842,
          "time": 139.0972635,
          "velocity": 0.2125984251968504
        },
        {
          "duration": 0.02272725000000264,
          "durationTicks": 7,
          "midi": 54,
          "name": "F#3",
          "ticks": 42900,
          "time": 139.285575,
          "velocity": 0.23622047244094488
        },
        {
          "duration": 0.025973999999990838,
          "durationTicks": 8,
          "midi": 40,
          "name": "E2",
          "ticks": 42962,
          "time": 139.4868735,
          "velocity": 0.8267716535433071
        },
        {
          "duration": 0.025973999999990838,
          "durationTicks": 8,
          "midi": 54,
          "name": "F#3",
          "ticks": 42962,
          "time": 139.4868735,
          "velocity": 0.23622047244094488
        },
        {
          "duration": 0.025973999999990838,
          "durationTicks": 8,
          "midi": 46,
          "name": "A#2",
          "ticks": 42962,
          "time": 139.4868735,
          "velocity": 0.25984251968503935
        },
        {
          "duration": 0.02272725000000264,
          "durationTicks": 7,
          "midi": 54,
          "name": "F#3",
          "ticks": 43020,
          "time": 139.675185,
          "velocity": 0.28346456692913385
        },
        {
          "duration": 0.025973999999990838,
          "durationTicks": 8,
          "midi": 36,
          "name": "C2",
          "ticks": 43082,
          "time": 139.8764835,
          "velocity": 0.6062992125984252
        },
        {
          "duration": 0.025973999999990838,
          "durationTicks": 8,
          "midi": 54,
          "name": "F#3",
          "ticks": 43082,
          "time": 139.8764835,
          "velocity": 0.41732283464566927
        },
        {
          "duration": 0.025973999999990838,
          "durationTicks": 8,
          "midi": 46,
          "name": "A#2",
          "ticks": 43082,
          "time": 139.8764835,
          "velocity": 0.25984251968503935
        },
        {
          "duration": 0.02272725000000264,
          "durationTicks": 7,
          "midi": 54,
          "name": "F#3",
          "ticks": 43140,
          "time": 140.064795,
          "velocity": 0.28346456692913385
        },
        {
          "duration": 0.02272725000000264,
          "durationTicks": 7,
          "midi": 36,
          "name": "C2",
          "ticks": 43205,
          "time": 140.27583375,
          "velocity": 0.6062992125984252
        },
        {
          "duration": 0.02272725000000264,
          "durationTicks": 7,
          "midi": 54,
          "name": "F#3",
          "ticks": 43205,
          "time": 140.27583375,
          "velocity": 0.23622047244094488
        },
        {
          "duration": 0.025973999999990838,
          "durationTicks": 8,
          "midi": 46,
          "name": "A#2",
          "ticks": 43207,
          "time": 140.28232725,
          "velocity": 0.2125984251968504
        },
        {
          "duration": 0.02272725000000264,
          "durationTicks": 7,
          "midi": 54,
          "name": "F#3",
          "ticks": 43260,
          "time": 140.454405,
          "velocity": 0.14173228346456693
        },
        {
          "duration": 0.02272725000000264,
          "durationTicks": 7,
          "midi": 54,
          "name": "F#3",
          "ticks": 43320,
          "time": 140.64921,
          "velocity": 0.41732283464566927
        },
        {
          "duration": 0.02597400000001926,
          "durationTicks": 8,
          "midi": 46,
          "name": "A#2",
          "ticks": 43322,
          "time": 140.6557035,
          "velocity": 0.25984251968503935
        },
        {
          "duration": 0.02272725000000264,
          "durationTicks": 7,
          "midi": 54,
          "name": "F#3",
          "ticks": 43380,
          "time": 140.844015,
          "velocity": 0.28346456692913385
        },
        {
          "duration": 0.02597400000001926,
          "durationTicks": 8,
          "midi": 40,
          "name": "E2",
          "ticks": 43442,
          "time": 141.0453135,
          "velocity": 0.7086614173228346
        },
        {
          "duration": 0.02597400000001926,
          "durationTicks": 8,
          "midi": 54,
          "name": "F#3",
          "ticks": 43442,
          "time": 141.0453135,
          "velocity": 0.28346456692913385
        },
        {
          "duration": 0.02597400000001926,
          "durationTicks": 8,
          "midi": 46,
          "name": "A#2",
          "ticks": 43442,
          "time": 141.0453135,
          "velocity": 0.25984251968503935
        },
        {
          "duration": 0.02272724999997422,
          "durationTicks": 7,
          "midi": 54,
          "name": "F#3",
          "ticks": 43500,
          "time": 141.23362500000002,
          "velocity": 0.14173228346456693
        },
        {
          "duration": 0.02272725000000264,
          "durationTicks": 7,
          "midi": 40,
          "name": "E2",
          "ticks": 43560,
          "time": 141.42843,
          "velocity": 0.5748031496062992
        },
        {
          "duration": 0.025973999999990838,
          "durationTicks": 8,
          "midi": 54,
          "name": "F#3",
          "ticks": 43562,
          "time": 141.4349235,
          "velocity": 0.41732283464566927
        },
        {
          "duration": 0.025973999999990838,
          "durationTicks": 8,
          "midi": 46,
          "name": "A#2",
          "ticks": 43562,
          "time": 141.4349235,
          "velocity": 0.2125984251968504
        },
        {
          "duration": 0.02272725000000264,
          "durationTicks": 7,
          "midi": 40,
          "name": "E2",
          "ticks": 43600,
          "time": 141.5583,
          "velocity": 0.6220472440944882
        },
        {
          "duration": 0.02272725000000264,
          "durationTicks": 7,
          "midi": 54,
          "name": "F#3",
          "ticks": 43620,
          "time": 141.623235,
          "velocity": 0.1732283464566929
        },
        {
          "duration": 0.02272725000000264,
          "durationTicks": 7,
          "midi": 40,
          "name": "E2",
          "ticks": 43640,
          "time": 141.68817,
          "velocity": 0.6692913385826772
        },
        {
          "duration": 0.02272725000000264,
          "durationTicks": 7,
          "midi": 40,
          "name": "E2",
          "ticks": 43680,
          "time": 141.81804,
          "velocity": 0.7165354330708661
        },
        {
          "duration": 0.02272725000000264,
          "durationTicks": 7,
          "midi": 54,
          "name": "F#3",
          "ticks": 43680,
          "time": 141.81804,
          "velocity": 0.2047244094488189
        },
        {
          "duration": 0.02272725000000264,
          "durationTicks": 7,
          "midi": 46,
          "name": "A#2",
          "ticks": 43680,
          "time": 141.81804,
          "velocity": 0.25984251968503935
        },
        {
          "duration": 0.02272725000000264,
          "durationTicks": 7,
          "midi": 40,
          "name": "E2",
          "ticks": 43720,
          "time": 141.94791,
          "velocity": 0.7401574803149606
        },
        {
          "duration": 0.02272725000000264,
          "durationTicks": 7,
          "midi": 54,
          "name": "F#3",
          "ticks": 43740,
          "time": 142.012845,
          "velocity": 0.2047244094488189
        },
        {
          "duration": 0.02272725000000264,
          "durationTicks": 7,
          "midi": 40,
          "name": "E2",
          "ticks": 43760,
          "time": 142.07778000000002,
          "velocity": 0.6929133858267716
        },
        {
          "duration": 0.02272725000000264,
          "durationTicks": 7,
          "midi": 40,
          "name": "E2",
          "ticks": 43800,
          "time": 142.20765,
          "velocity": 0.6456692913385826
        },
        {
          "duration": 0.025973999999990838,
          "durationTicks": 8,
          "midi": 54,
          "name": "F#3",
          "ticks": 43802,
          "time": 142.2141435,
          "velocity": 0.41732283464566927
        },
        {
          "duration": 0.025973999999990838,
          "durationTicks": 8,
          "midi": 46,
          "name": "A#2",
          "ticks": 43802,
          "time": 142.2141435,
          "velocity": 0.2125984251968504
        },
        {
          "duration": 0.02272725000000264,
          "durationTicks": 7,
          "midi": 54,
          "name": "F#3",
          "ticks": 43860,
          "time": 142.402455,
          "velocity": 0.14173228346456693
        },
        {
          "duration": 0.025973999999990838,
          "durationTicks": 8,
          "midi": 40,
          "name": "E2",
          "ticks": 43922,
          "time": 142.6037535,
          "velocity": 0.8267716535433071
        },
        {
          "duration": 0.025973999999990838,
          "durationTicks": 8,
          "midi": 54,
          "name": "F#3",
          "ticks": 43922,
          "time": 142.6037535,
          "velocity": 0.23622047244094488
        },
        {
          "duration": 0.02272725000000264,
          "durationTicks": 7,
          "midi": 46,
          "name": "A#2",
          "ticks": 43925,
          "time": 142.61349375,
          "velocity": 0.25984251968503935
        },
        {
          "duration": 0.02272725000000264,
          "durationTicks": 7,
          "midi": 54,
          "name": "F#3",
          "ticks": 43980,
          "time": 142.792065,
          "velocity": 0.2047244094488189
        },
        {
          "duration": 0.02272725000000264,
          "durationTicks": 7,
          "midi": 36,
          "name": "C2",
          "ticks": 44040,
          "time": 142.98687,
          "velocity": 0.6929133858267716
        },
        {
          "duration": 0.02597400000001926,
          "durationTicks": 8,
          "midi": 54,
          "name": "F#3",
          "ticks": 44042,
          "time": 142.9933635,
          "velocity": 0.41732283464566927
        },
        {
          "duration": 0.02597400000001926,
          "durationTicks": 8,
          "midi": 46,
          "name": "A#2",
          "ticks": 44042,
          "time": 142.9933635,
          "velocity": 0.25984251968503935
        },
        {
          "duration": 0.02272725000000264,
          "durationTicks": 7,
          "midi": 54,
          "name": "F#3",
          "ticks": 44100,
          "time": 143.181675,
          "velocity": 0.1732283464566929
        },
        {
          "duration": 0.025973999999990838,
          "durationTicks": 8,
          "midi": 36,
          "name": "C2",
          "ticks": 44167,
          "time": 143.39920725000002,
          "velocity": 0.6062992125984252
        },
        {
          "duration": 0.025973999999990838,
          "durationTicks": 8,
          "midi": 54,
          "name": "F#3",
          "ticks": 44167,
          "time": 143.39920725000002,
          "velocity": 0.2047244094488189
        },
        {
          "duration": 0.02272724999997422,
          "durationTicks": 7,
          "midi": 46,
          "name": "A#2",
          "ticks": 44170,
          "time": 143.4089475,
          "velocity": 0.2125984251968504
        },
        {
          "duration": 0.02272725000000264,
          "durationTicks": 7,
          "midi": 54,
          "name": "F#3",
          "ticks": 44220,
          "time": 143.57128500000002,
          "velocity": 0.1732283464566929
        },
        {
          "duration": 0.02272725000000264,
          "durationTicks": 7,
          "midi": 54,
          "name": "F#3",
          "ticks": 44280,
          "time": 143.76609,
          "velocity": 0.5039370078740157
        },
        {
          "duration": 0.02272725000000264,
          "durationTicks": 7,
          "midi": 46,
          "name": "A#2",
          "ticks": 44280,
          "time": 143.76609,
          "velocity": 0.25984251968503935
        },
        {
          "duration": 0.02272725000000264,
          "durationTicks": 7,
          "midi": 54,
          "name": "F#3",
          "ticks": 44340,
          "time": 143.960895,
          "velocity": 0.2047244094488189
        },
        {
          "duration": 0.02272725000000264,
          "durationTicks": 7,
          "midi": 40,
          "name": "E2",
          "ticks": 44400,
          "time": 144.1557,
          "velocity": 0.8267716535433071
        },
        {
          "duration": 0.025973999999990838,
          "durationTicks": 8,
          "midi": 54,
          "name": "F#3",
          "ticks": 44402,
          "time": 144.1621935,
          "velocity": 0.1732283464566929
        },
        {
          "duration": 0.025973999999990838,
          "durationTicks": 8,
          "midi": 46,
          "name": "A#2",
          "ticks": 44402,
          "time": 144.1621935,
          "velocity": 0.25984251968503935
        },
        {
          "duration": 0.02272725000000264,
          "durationTicks": 7,
          "midi": 54,
          "name": "F#3",
          "ticks": 44460,
          "time": 144.350505,
          "velocity": 0.1732283464566929
        },
        {
          "duration": 0.02272725000000264,
          "durationTicks": 7,
          "midi": 54,
          "name": "F#3",
          "ticks": 44520,
          "time": 144.54531,
          "velocity": 0.41732283464566927
        },
        {
          "duration": 0.025973999999990838,
          "durationTicks": 8,
          "midi": 46,
          "name": "A#2",
          "ticks": 44522,
          "time": 144.5518035,
          "velocity": 0.2125984251968504
        },
        {
          "duration": 0.02272725000000264,
          "durationTicks": 7,
          "midi": 40,
          "name": "E2",
          "ticks": 44580,
          "time": 144.740115,
          "velocity": 0.6692913385826772
        },
        {
          "duration": 0.02272725000000264,
          "durationTicks": 7,
          "midi": 54,
          "name": "F#3",
          "ticks": 44580,
          "time": 144.740115,
          "velocity": 0.23622047244094488
        },
        {
          "duration": 0.02272725000000264,
          "durationTicks": 7,
          "midi": 36,
          "name": "C2",
          "ticks": 44640,
          "time": 144.93492,
          "velocity": 0.6062992125984252
        },
        {
          "duration": 0.025973999999990838,
          "durationTicks": 8,
          "midi": 54,
          "name": "F#3",
          "ticks": 44642,
          "time": 144.9414135,
          "velocity": 0.23622047244094488
        },
        {
          "duration": 0.025973999999990838,
          "durationTicks": 8,
          "midi": 46,
          "name": "A#2",
          "ticks": 44642,
          "time": 144.9414135,
          "velocity": 0.25984251968503935
        },
        {
          "duration": 0.02272725000000264,
          "durationTicks": 7,
          "midi": 54,
          "name": "F#3",
          "ticks": 44700,
          "time": 145.129725,
          "velocity": 0.1732283464566929
        },
        {
          "duration": 0.02597400000001926,
          "durationTicks": 8,
          "midi": 36,
          "name": "C2",
          "ticks": 44762,
          "time": 145.3310235,
          "velocity": 0.6062992125984252
        },
        {
          "duration": 0.02597400000001926,
          "durationTicks": 8,
          "midi": 54,
          "name": "F#3",
          "ticks": 44762,
          "time": 145.3310235,
          "velocity": 0.41732283464566927
        },
        {
          "duration": 0.02597400000001926,
          "durationTicks": 8,
          "midi": 46,
          "name": "A#2",
          "ticks": 44762,
          "time": 145.3310235,
          "velocity": 0.2125984251968504
        },
        {
          "duration": 0.02272725000000264,
          "durationTicks": 7,
          "midi": 54,
          "name": "F#3",
          "ticks": 44820,
          "time": 145.519335,
          "velocity": 0.23622047244094488
        },
        {
          "duration": 0.02597400000001926,
          "durationTicks": 8,
          "midi": 40,
          "name": "E2",
          "ticks": 44882,
          "time": 145.7206335,
          "velocity": 0.8267716535433071
        },
        {
          "duration": 0.02597400000001926,
          "durationTicks": 8,
          "midi": 54,
          "name": "F#3",
          "ticks": 44882,
          "time": 145.7206335,
          "velocity": 0.23622047244094488
        },
        {
          "duration": 0.02597400000001926,
          "durationTicks": 8,
          "midi": 46,
          "name": "A#2",
          "ticks": 44882,
          "time": 145.7206335,
          "velocity": 0.25984251968503935
        },
        {
          "duration": 0.02272725000000264,
          "durationTicks": 7,
          "midi": 54,
          "name": "F#3",
          "ticks": 44940,
          "time": 145.90894500000002,
          "velocity": 0.28346456692913385
        },
        {
          "duration": 0.025973999999990838,
          "durationTicks": 8,
          "midi": 36,
          "name": "C2",
          "ticks": 45002,
          "time": 146.1102435,
          "velocity": 0.6062992125984252
        },
        {
          "duration": 0.025973999999990838,
          "durationTicks": 8,
          "midi": 54,
          "name": "F#3",
          "ticks": 45002,
          "time": 146.1102435,
          "velocity": 0.41732283464566927
        },
        {
          "duration": 0.025973999999990838,
          "durationTicks": 8,
          "midi": 46,
          "name": "A#2",
          "ticks": 45002,
          "time": 146.1102435,
          "velocity": 0.25984251968503935
        },
        {
          "duration": 0.02272725000000264,
          "durationTicks": 7,
          "midi": 54,
          "name": "F#3",
          "ticks": 45060,
          "time": 146.298555,
          "velocity": 0.28346456692913385
        },
        {
          "duration": 0.02597400000001926,
          "durationTicks": 8,
          "midi": 36,
          "name": "C2",
          "ticks": 45127,
          "time": 146.51608725,
          "velocity": 0.6062992125984252
        },
        {
          "duration": 0.02597400000001926,
          "durationTicks": 8,
          "midi": 59,
          "name": "B3",
          "ticks": 45127,
          "time": 146.51608725,
          "velocity": 0.4409448818897638
        },
        {
          "duration": 0.02272725000000264,
          "durationTicks": 7,
          "midi": 59,
          "name": "B3",
          "ticks": 45240,
          "time": 146.88297,
          "velocity": 0.2440944881889764
        },
        {
          "duration": 0.02272725000000264,
          "durationTicks": 7,
          "midi": 59,
          "name": "B3",
          "ticks": 45360,
          "time": 147.27258,
          "velocity": 0.3937007874015748
        },
        {
          "duration": 0.02272725000000264,
          "durationTicks": 7,
          "midi": 59,
          "name": "B3",
          "ticks": 45480,
          "time": 147.66219,
          "velocity": 0.1968503937007874
        },
        {
          "duration": 0.02272725000000264,
          "durationTicks": 7,
          "midi": 59,
          "name": "B3",
          "ticks": 45600,
          "time": 148.05180000000001,
          "velocity": 0.3937007874015748
        },
        {
          "duration": 0.02272725000000264,
          "durationTicks": 7,
          "midi": 59,
          "name": "B3",
          "ticks": 45720,
          "time": 148.44141,
          "velocity": 0.1968503937007874
        },
        {
          "duration": 0.02272725000000264,
          "durationTicks": 7,
          "midi": 59,
          "name": "B3",
          "ticks": 45840,
          "time": 148.83102,
          "velocity": 0.3700787401574803
        },
        {
          "duration": 0.02272725000000264,
          "durationTicks": 7,
          "midi": 59,
          "name": "B3",
          "ticks": 45960,
          "time": 149.22063,
          "velocity": 0.2440944881889764
        },
        {
          "duration": 0.02272725000000264,
          "durationTicks": 7,
          "midi": 42,
          "name": "F#2",
          "ticks": 46085,
          "time": 149.62647375,
          "velocity": 0.3464566929133858
        },
        {
          "duration": 0.02272725000000264,
          "durationTicks": 7,
          "midi": 42,
          "name": "F#2",
          "ticks": 46200,
          "time": 149.99985,
          "velocity": 0.33858267716535434
        },
        {
          "duration": 0.02272725000000264,
          "durationTicks": 7,
          "midi": 37,
          "name": "C#2",
          "ticks": 46320,
          "time": 150.38946,
          "velocity": 0.6692913385826772
        },
        {
          "duration": 0.02597400000001926,
          "durationTicks": 8,
          "midi": 42,
          "name": "F#2",
          "ticks": 46322,
          "time": 150.3959535,
          "velocity": 0.33858267716535434
        },
        {
          "duration": 0.02272724999997422,
          "durationTicks": 7,
          "midi": 42,
          "name": "F#2",
          "ticks": 46440,
          "time": 150.77907000000002,
          "velocity": 0.25196850393700787
        },
        {
          "duration": 0.025973999999990838,
          "durationTicks": 8,
          "midi": 42,
          "name": "F#2",
          "ticks": 46562,
          "time": 151.1751735,
          "velocity": 0.31496062992125984
        },
        {
          "duration": 0.02272725000000264,
          "durationTicks": 7,
          "midi": 42,
          "name": "F#2",
          "ticks": 46680,
          "time": 151.55829,
          "velocity": 0.2755905511811024
        },
        {
          "duration": 0.025973999999990838,
          "durationTicks": 8,
          "midi": 37,
          "name": "C#2",
          "ticks": 46802,
          "time": 151.9543935,
          "velocity": 0.6850393700787402
        },
        {
          "duration": 0.025973999999990838,
          "durationTicks": 8,
          "midi": 42,
          "name": "F#2",
          "ticks": 46802,
          "time": 151.9543935,
          "velocity": 0.2755905511811024
        },
        {
          "duration": 0.02272725000000264,
          "durationTicks": 7,
          "midi": 42,
          "name": "F#2",
          "ticks": 46920,
          "time": 152.33751,
          "velocity": 0.31496062992125984
        },
        {
          "duration": 0.02597400000001926,
          "durationTicks": 8,
          "midi": 42,
          "name": "F#2",
          "ticks": 47042,
          "time": 152.7336135,
          "velocity": 0.28346456692913385
        },
        {
          "duration": 0.02272724999997422,
          "durationTicks": 7,
          "midi": 42,
          "name": "F#2",
          "ticks": 47160,
          "time": 153.11673000000002,
          "velocity": 0.25196850393700787
        },
        {
          "duration": 0.02272725000000264,
          "durationTicks": 7,
          "midi": 37,
          "name": "C#2",
          "ticks": 47280,
          "time": 153.50634,
          "velocity": 0.6850393700787402
        },
        {
          "duration": 0.02272725000000264,
          "durationTicks": 7,
          "midi": 42,
          "name": "F#2",
          "ticks": 47280,
          "time": 153.50634,
          "velocity": 0.30708661417322836
        },
        {
          "duration": 0.025973999999990838,
          "durationTicks": 8,
          "midi": 42,
          "name": "F#2",
          "ticks": 47402,
          "time": 153.9024435,
          "velocity": 0.30708661417322836
        },
        {
          "duration": 0.02272725000000264,
          "durationTicks": 7,
          "midi": 42,
          "name": "F#2",
          "ticks": 47520,
          "time": 154.28556,
          "velocity": 0.25984251968503935
        },
        {
          "duration": 0.02272725000000264,
          "durationTicks": 7,
          "midi": 42,
          "name": "F#2",
          "ticks": 47640,
          "time": 154.67517,
          "velocity": 0.3228346456692913
        },
        {
          "duration": 0.02597400000001926,
          "durationTicks": 8,
          "midi": 37,
          "name": "C#2",
          "ticks": 47762,
          "time": 155.0712735,
          "velocity": 0.7007874015748031
        },
        {
          "duration": 0.02597400000001926,
          "durationTicks": 8,
          "midi": 42,
          "name": "F#2",
          "ticks": 47762,
          "time": 155.0712735,
          "velocity": 0.29133858267716534
        },
        {
          "duration": 0.02272724999997422,
          "durationTicks": 7,
          "midi": 42,
          "name": "F#2",
          "ticks": 47880,
          "time": 155.45439000000002,
          "velocity": 0.3543307086614173
        },
        {
          "duration": 0.02272725000000264,
          "durationTicks": 7,
          "midi": 42,
          "name": "F#2",
          "ticks": 48005,
          "time": 155.86023375000002,
          "velocity": 0.33858267716535434
        },
        {
          "duration": 0.02272725000000264,
          "durationTicks": 7,
          "midi": 42,
          "name": "F#2",
          "ticks": 48120,
          "time": 156.23361,
          "velocity": 0.31496062992125984
        },
        {
          "duration": 0.025973999999990838,
          "durationTicks": 8,
          "midi": 37,
          "name": "C#2",
          "ticks": 48242,
          "time": 156.6297135,
          "velocity": 0.7007874015748031
        },
        {
          "duration": 0.025973999999990838,
          "durationTicks": 8,
          "midi": 42,
          "name": "F#2",
          "ticks": 48242,
          "time": 156.6297135,
          "velocity": 0.3228346456692913
        },
        {
          "duration": 0.025973999999990838,
          "durationTicks": 8,
          "midi": 42,
          "name": "F#2",
          "ticks": 48362,
          "time": 157.0193235,
          "velocity": 0.30708661417322836
        },
        {
          "duration": 0.02597400000001926,
          "durationTicks": 8,
          "midi": 42,
          "name": "F#2",
          "ticks": 48482,
          "time": 157.4089335,
          "velocity": 0.3228346456692913
        },
        {
          "duration": 0.02272725000000264,
          "durationTicks": 7,
          "midi": 42,
          "name": "F#2",
          "ticks": 48600,
          "time": 157.79205000000002,
          "velocity": 0.28346456692913385
        },
        {
          "duration": 0.02272725000000264,
          "durationTicks": 7,
          "midi": 37,
          "name": "C#2",
          "ticks": 48720,
          "time": 158.18166,
          "velocity": 0.7165354330708661
        },
        {
          "duration": 0.02272725000000264,
          "durationTicks": 7,
          "midi": 42,
          "name": "F#2",
          "ticks": 48720,
          "time": 158.18166,
          "velocity": 0.29133858267716534
        },
        {
          "duration": 0.02272725000000264,
          "durationTicks": 7,
          "midi": 42,
          "name": "F#2",
          "ticks": 48840,
          "time": 158.57127,
          "velocity": 0.31496062992125984
        },
        {
          "duration": 0.025973999999990838,
          "durationTicks": 8,
          "midi": 42,
          "name": "F#2",
          "ticks": 48962,
          "time": 158.9673735,
          "velocity": 0.3464566929133858
        },
        {
          "duration": 0.02272725000000264,
          "durationTicks": 7,
          "midi": 42,
          "name": "F#2",
          "ticks": 49080,
          "time": 159.35049,
          "velocity": 0.31496062992125984
        },
        {
          "duration": 0.02272725000000264,
          "durationTicks": 7,
          "midi": 37,
          "name": "C#2",
          "ticks": 49200,
          "time": 159.7401,
          "velocity": 0.7007874015748031
        },
        {
          "duration": 0.02597400000001926,
          "durationTicks": 8,
          "midi": 42,
          "name": "F#2",
          "ticks": 49202,
          "time": 159.7465935,
          "velocity": 0.30708661417322836
        },
        {
          "duration": 0.025973999999990838,
          "durationTicks": 8,
          "midi": 42,
          "name": "F#2",
          "ticks": 49322,
          "time": 160.1362035,
          "velocity": 0.30708661417322836
        },
        {
          "duration": 0.02272725000000264,
          "durationTicks": 7,
          "midi": 42,
          "name": "F#2",
          "ticks": 49440,
          "time": 160.51932,
          "velocity": 0.3228346456692913
        },
        {
          "duration": 0.02272725000000264,
          "durationTicks": 7,
          "midi": 42,
          "name": "F#2",
          "ticks": 49560,
          "time": 160.90893,
          "velocity": 0.29133858267716534
        },
        {
          "duration": 0.02272725000000264,
          "durationTicks": 7,
          "midi": 37,
          "name": "C#2",
          "ticks": 49680,
          "time": 161.29854,
          "velocity": 0.7007874015748031
        },
        {
          "duration": 0.025973999999990838,
          "durationTicks": 8,
          "midi": 42,
          "name": "F#2",
          "ticks": 49682,
          "time": 161.3050335,
          "velocity": 0.28346456692913385
        },
        {
          "duration": 0.02272725000000264,
          "durationTicks": 7,
          "midi": 42,
          "name": "F#2",
          "ticks": 49800,
          "time": 161.68815,
          "velocity": 0.33858267716535434
        },
        {
          "duration": 0.02272725000000264,
          "durationTicks": 7,
          "midi": 42,
          "name": "F#2",
          "ticks": 49925,
          "time": 162.09399375,
          "velocity": 0.3464566929133858
        },
        {
          "duration": 0.02272725000000264,
          "durationTicks": 7,
          "midi": 42,
          "name": "F#2",
          "ticks": 50040,
          "time": 162.46737000000002,
          "velocity": 0.33858267716535434
        },
        {
          "duration": 0.02272725000000264,
          "durationTicks": 7,
          "midi": 37,
          "name": "C#2",
          "ticks": 50160,
          "time": 162.85698,
          "velocity": 0.6692913385826772
        },
        {
          "duration": 0.02272725000000264,
          "durationTicks": 7,
          "midi": 42,
          "name": "F#2",
          "ticks": 50160,
          "time": 162.85698,
          "velocity": 0.33858267716535434
        },
        {
          "duration": 0.02272725000000264,
          "durationTicks": 7,
          "midi": 42,
          "name": "F#2",
          "ticks": 50280,
          "time": 163.24659,
          "velocity": 0.25196850393700787
        },
        {
          "duration": 0.02272725000000264,
          "durationTicks": 7,
          "midi": 42,
          "name": "F#2",
          "ticks": 50400,
          "time": 163.6362,
          "velocity": 0.31496062992125984
        },
        {
          "duration": 0.02272725000000264,
          "durationTicks": 7,
          "midi": 42,
          "name": "F#2",
          "ticks": 50520,
          "time": 164.02581,
          "velocity": 0.2755905511811024
        },
        {
          "duration": 0.02597400000001926,
          "durationTicks": 8,
          "midi": 37,
          "name": "C#2",
          "ticks": 50642,
          "time": 164.4219135,
          "velocity": 0.6850393700787402
        },
        {
          "duration": 0.02597400000001926,
          "durationTicks": 8,
          "midi": 42,
          "name": "F#2",
          "ticks": 50642,
          "time": 164.4219135,
          "velocity": 0.2755905511811024
        },
        {
          "duration": 0.02272725000000264,
          "durationTicks": 7,
          "midi": 42,
          "name": "F#2",
          "ticks": 50760,
          "time": 164.80503000000002,
          "velocity": 0.31496062992125984
        },
        {
          "duration": 0.025973999999990838,
          "durationTicks": 8,
          "midi": 42,
          "name": "F#2",
          "ticks": 50882,
          "time": 165.2011335,
          "velocity": 0.28346456692913385
        },
        {
          "duration": 0.02272725000000264,
          "durationTicks": 7,
          "midi": 42,
          "name": "F#2",
          "ticks": 51000,
          "time": 165.58425,
          "velocity": 0.25196850393700787
        },
        {
          "duration": 0.02272725000000264,
          "durationTicks": 7,
          "midi": 37,
          "name": "C#2",
          "ticks": 51120,
          "time": 165.97386,
          "velocity": 0.6850393700787402
        },
        {
          "duration": 0.02272725000000264,
          "durationTicks": 7,
          "midi": 42,
          "name": "F#2",
          "ticks": 51120,
          "time": 165.97386,
          "velocity": 0.30708661417322836
        },
        {
          "duration": 0.02272725000000264,
          "durationTicks": 7,
          "midi": 42,
          "name": "F#2",
          "ticks": 51240,
          "time": 166.36347,
          "velocity": 0.30708661417322836
        },
        {
          "duration": 0.02272725000000264,
          "durationTicks": 7,
          "midi": 42,
          "name": "F#2",
          "ticks": 51360,
          "time": 166.75308,
          "velocity": 0.25984251968503935
        },
        {
          "duration": 0.02272725000000264,
          "durationTicks": 7,
          "midi": 42,
          "name": "F#2",
          "ticks": 51480,
          "time": 167.14269000000002,
          "velocity": 0.3228346456692913
        },
        {
          "duration": 0.025973999999990838,
          "durationTicks": 8,
          "midi": 37,
          "name": "C#2",
          "ticks": 51602,
          "time": 167.5387935,
          "velocity": 0.7007874015748031
        },
        {
          "duration": 0.025973999999990838,
          "durationTicks": 8,
          "midi": 42,
          "name": "F#2",
          "ticks": 51602,
          "time": 167.5387935,
          "velocity": 0.29133858267716534
        },
        {
          "duration": 0.02272725000000264,
          "durationTicks": 7,
          "midi": 42,
          "name": "F#2",
          "ticks": 51720,
          "time": 167.92191,
          "velocity": 0.3543307086614173
        },
        {
          "duration": 0.02272725000000264,
          "durationTicks": 7,
          "midi": 42,
          "name": "F#2",
          "ticks": 51845,
          "time": 168.32775375,
          "velocity": 0.33858267716535434
        },
        {
          "duration": 0.02272725000000264,
          "durationTicks": 7,
          "midi": 42,
          "name": "F#2",
          "ticks": 51960,
          "time": 168.70113,
          "velocity": 0.31496062992125984
        },
        {
          "duration": 0.02272725000000264,
          "durationTicks": 7,
          "midi": 37,
          "name": "C#2",
          "ticks": 52080,
          "time": 169.09074,
          "velocity": 0.7007874015748031
        },
        {
          "duration": 0.02272725000000264,
          "durationTicks": 7,
          "midi": 42,
          "name": "F#2",
          "ticks": 52080,
          "time": 169.09074,
          "velocity": 0.3228346456692913
        },
        {
          "duration": 0.02597400000001926,
          "durationTicks": 8,
          "midi": 42,
          "name": "F#2",
          "ticks": 52202,
          "time": 169.4868435,
          "velocity": 0.30708661417322836
        },
        {
          "duration": 0.025973999999990838,
          "durationTicks": 8,
          "midi": 42,
          "name": "F#2",
          "ticks": 52322,
          "time": 169.8764535,
          "velocity": 0.3228346456692913
        },
        {
          "duration": 0.025973999999990838,
          "durationTicks": 8,
          "midi": 42,
          "name": "F#2",
          "ticks": 52442,
          "time": 170.2660635,
          "velocity": 0.28346456692913385
        },
        {
          "duration": 0.025973999999990838,
          "durationTicks": 8,
          "midi": 37,
          "name": "C#2",
          "ticks": 52562,
          "time": 170.6556735,
          "velocity": 0.7165354330708661
        },
        {
          "duration": 0.025973999999990838,
          "durationTicks": 8,
          "midi": 42,
          "name": "F#2",
          "ticks": 52562,
          "time": 170.6556735,
          "velocity": 0.29133858267716534
        },
        {
          "duration": 0.02272725000000264,
          "durationTicks": 7,
          "midi": 42,
          "name": "F#2",
          "ticks": 52680,
          "time": 171.03879,
          "velocity": 0.31496062992125984
        },
        {
          "duration": 0.02272725000000264,
          "durationTicks": 7,
          "midi": 42,
          "name": "F#2",
          "ticks": 52805,
          "time": 171.44463375,
          "velocity": 0.3464566929133858
        },
        {
          "duration": 0.02272725000000264,
          "durationTicks": 7,
          "midi": 42,
          "name": "F#2",
          "ticks": 52920,
          "time": 171.81801000000002,
          "velocity": 0.31496062992125984
        },
        {
          "duration": 0.025973999999990838,
          "durationTicks": 8,
          "midi": 37,
          "name": "C#2",
          "ticks": 53042,
          "time": 172.2141135,
          "velocity": 0.7007874015748031
        },
        {
          "duration": 0.025973999999990838,
          "durationTicks": 8,
          "midi": 42,
          "name": "F#2",
          "ticks": 53042,
          "time": 172.2141135,
          "velocity": 0.30708661417322836
        },
        {
          "duration": 0.02272725000000264,
          "durationTicks": 7,
          "midi": 42,
          "name": "F#2",
          "ticks": 53160,
          "time": 172.59723,
          "velocity": 0.30708661417322836
        },
        {
          "duration": 0.025973999999990838,
          "durationTicks": 8,
          "midi": 42,
          "name": "F#2",
          "ticks": 53282,
          "time": 172.9933335,
          "velocity": 0.3228346456692913
        },
        {
          "duration": 0.02272725000000264,
          "durationTicks": 7,
          "midi": 42,
          "name": "F#2",
          "ticks": 53400,
          "time": 173.37645,
          "velocity": 0.29133858267716534
        },
        {
          "duration": 0.02597400000001926,
          "durationTicks": 8,
          "midi": 37,
          "name": "C#2",
          "ticks": 53522,
          "time": 173.7725535,
          "velocity": 0.7007874015748031
        },
        {
          "duration": 0.02272725000000264,
          "durationTicks": 7,
          "midi": 42,
          "name": "F#2",
          "ticks": 53525,
          "time": 173.78229375,
          "velocity": 0.28346456692913385
        },
        {
          "duration": 0.02597400000001926,
          "durationTicks": 8,
          "midi": 42,
          "name": "F#2",
          "ticks": 53642,
          "time": 174.1621635,
          "velocity": 0.33858267716535434
        },
        {
          "duration": 0.02272725000000264,
          "durationTicks": 7,
          "midi": 42,
          "name": "F#2",
          "ticks": 53765,
          "time": 174.56151375000002,
          "velocity": 0.3464566929133858
        },
        {
          "duration": 0.02272725000000264,
          "durationTicks": 7,
          "midi": 42,
          "name": "F#2",
          "ticks": 53880,
          "time": 174.93489,
          "velocity": 0.33858267716535434
        },
        {
          "duration": 0.025973999999990838,
          "durationTicks": 8,
          "midi": 37,
          "name": "C#2",
          "ticks": 54002,
          "time": 175.3309935,
          "velocity": 0.6692913385826772
        },
        {
          "duration": 0.025973999999990838,
          "durationTicks": 8,
          "midi": 42,
          "name": "F#2",
          "ticks": 54002,
          "time": 175.3309935,
          "velocity": 0.33858267716535434
        },
        {
          "duration": 0.025973999999990838,
          "durationTicks": 8,
          "midi": 42,
          "name": "F#2",
          "ticks": 54122,
          "time": 175.7206035,
          "velocity": 0.25196850393700787
        },
        {
          "duration": 0.02272725000000264,
          "durationTicks": 7,
          "midi": 42,
          "name": "F#2",
          "ticks": 54240,
          "time": 176.10372,
          "velocity": 0.31496062992125984
        },
        {
          "duration": 0.02272725000000264,
          "durationTicks": 7,
          "midi": 42,
          "name": "F#2",
          "ticks": 54360,
          "time": 176.49333000000001,
          "velocity": 0.2755905511811024
        },
        {
          "duration": 0.02272724999997422,
          "durationTicks": 7,
          "midi": 37,
          "name": "C#2",
          "ticks": 54480,
          "time": 176.88294000000002,
          "velocity": 0.6850393700787402
        },
        {
          "duration": 0.02272724999997422,
          "durationTicks": 7,
          "midi": 42,
          "name": "F#2",
          "ticks": 54480,
          "time": 176.88294000000002,
          "velocity": 0.2755905511811024
        },
        {
          "duration": 0.02272725000000264,
          "durationTicks": 7,
          "midi": 42,
          "name": "F#2",
          "ticks": 54600,
          "time": 177.27255,
          "velocity": 0.31496062992125984
        },
        {
          "duration": 0.025973999999990838,
          "durationTicks": 8,
          "midi": 42,
          "name": "F#2",
          "ticks": 54722,
          "time": 177.6686535,
          "velocity": 0.28346456692913385
        },
        {
          "duration": 0.02272725000000264,
          "durationTicks": 7,
          "midi": 42,
          "name": "F#2",
          "ticks": 54840,
          "time": 178.05177,
          "velocity": 0.25196850393700787
        },
        {
          "duration": 0.02272725000000264,
          "durationTicks": 7,
          "midi": 37,
          "name": "C#2",
          "ticks": 54960,
          "time": 178.44138,
          "velocity": 0.6850393700787402
        },
        {
          "duration": 0.02272725000000264,
          "durationTicks": 7,
          "midi": 42,
          "name": "F#2",
          "ticks": 54960,
          "time": 178.44138,
          "velocity": 0.30708661417322836
        },
        {
          "duration": 0.02272725000000264,
          "durationTicks": 7,
          "midi": 42,
          "name": "F#2",
          "ticks": 55080,
          "time": 178.83099,
          "velocity": 0.30708661417322836
        },
        {
          "duration": 0.025973999999990838,
          "durationTicks": 8,
          "midi": 42,
          "name": "F#2",
          "ticks": 55202,
          "time": 179.2270935,
          "velocity": 0.25984251968503935
        },
        {
          "duration": 0.02272725000000264,
          "durationTicks": 7,
          "midi": 42,
          "name": "F#2",
          "ticks": 55320,
          "time": 179.61021,
          "velocity": 0.3228346456692913
        },
        {
          "duration": 0.02272725000000264,
          "durationTicks": 7,
          "midi": 37,
          "name": "C#2",
          "ticks": 55440,
          "time": 179.99982,
          "velocity": 0.7007874015748031
        },
        {
          "duration": 0.02272725000000264,
          "durationTicks": 7,
          "midi": 42,
          "name": "F#2",
          "ticks": 55440,
          "time": 179.99982,
          "velocity": 0.29133858267716534
        },
        {
          "duration": 0.02272725000000264,
          "durationTicks": 7,
          "midi": 42,
          "name": "F#2",
          "ticks": 55560,
          "time": 180.38943,
          "velocity": 0.3543307086614173
        },
        {
          "duration": 0.02597400000001926,
          "durationTicks": 8,
          "midi": 42,
          "name": "F#2",
          "ticks": 55682,
          "time": 180.78553349999999,
          "velocity": 0.33858267716535434
        },
        {
          "duration": 0.02272725000000264,
          "durationTicks": 7,
          "midi": 42,
          "name": "F#2",
          "ticks": 55800,
          "time": 181.16865,
          "velocity": 0.31496062992125984
        },
        {
          "duration": 0.02272725000000264,
          "durationTicks": 7,
          "midi": 37,
          "name": "C#2",
          "ticks": 55920,
          "time": 181.55826000000002,
          "velocity": 0.7007874015748031
        },
        {
          "duration": 0.02272725000000264,
          "durationTicks": 7,
          "midi": 42,
          "name": "F#2",
          "ticks": 55920,
          "time": 181.55826000000002,
          "velocity": 0.3228346456692913
        },
        {
          "duration": 0.02272725000000264,
          "durationTicks": 7,
          "midi": 42,
          "name": "F#2",
          "ticks": 56040,
          "time": 181.94787,
          "velocity": 0.30708661417322836
        },
        {
          "duration": 0.025973999999990838,
          "durationTicks": 8,
          "midi": 42,
          "name": "F#2",
          "ticks": 56162,
          "time": 182.3439735,
          "velocity": 0.3228346456692913
        },
        {
          "duration": 0.02272725000000264,
          "durationTicks": 7,
          "midi": 42,
          "name": "F#2",
          "ticks": 56280,
          "time": 182.72709,
          "velocity": 0.28346456692913385
        },
        {
          "duration": 0.02272725000000264,
          "durationTicks": 7,
          "midi": 37,
          "name": "C#2",
          "ticks": 56400,
          "time": 183.1167,
          "velocity": 0.7165354330708661
        },
        {
          "duration": 0.025973999999990838,
          "durationTicks": 8,
          "midi": 42,
          "name": "F#2",
          "ticks": 56402,
          "time": 183.1231935,
          "velocity": 0.29133858267716534
        },
        {
          "duration": 0.02272725000000264,
          "durationTicks": 7,
          "midi": 42,
          "name": "F#2",
          "ticks": 56520,
          "time": 183.50631,
          "velocity": 0.31496062992125984
        },
        {
          "duration": 0.025973999999990838,
          "durationTicks": 8,
          "midi": 42,
          "name": "F#2",
          "ticks": 56642,
          "time": 183.9024135,
          "velocity": 0.3464566929133858
        },
        {
          "duration": 0.02272725000000264,
          "durationTicks": 7,
          "midi": 42,
          "name": "F#2",
          "ticks": 56760,
          "time": 184.28553,
          "velocity": 0.31496062992125984
        },
        {
          "duration": 0.02272725000000264,
          "durationTicks": 7,
          "midi": 37,
          "name": "C#2",
          "ticks": 56880,
          "time": 184.67514,
          "velocity": 0.7007874015748031
        },
        {
          "duration": 0.025973999999990838,
          "durationTicks": 8,
          "midi": 42,
          "name": "F#2",
          "ticks": 56882,
          "time": 184.6816335,
          "velocity": 0.30708661417322836
        },
        {
          "duration": 0.02272725000000264,
          "durationTicks": 7,
          "midi": 42,
          "name": "F#2",
          "ticks": 57000,
          "time": 185.06475,
          "velocity": 0.30708661417322836
        },
        {
          "duration": 0.025973999999990838,
          "durationTicks": 8,
          "midi": 42,
          "name": "F#2",
          "ticks": 57122,
          "time": 185.4608535,
          "velocity": 0.3228346456692913
        },
        {
          "duration": 0.02272725000000264,
          "durationTicks": 7,
          "midi": 42,
          "name": "F#2",
          "ticks": 57240,
          "time": 185.84397,
          "velocity": 0.29133858267716534
        },
        {
          "duration": 0.025973999999990838,
          "durationTicks": 8,
          "midi": 37,
          "name": "C#2",
          "ticks": 57362,
          "time": 186.2400735,
          "velocity": 0.7007874015748031
        },
        {
          "duration": 0.025973999999990838,
          "durationTicks": 8,
          "midi": 42,
          "name": "F#2",
          "ticks": 57362,
          "time": 186.2400735,
          "velocity": 0.28346456692913385
        },
        {
          "duration": 0.02272725000000264,
          "durationTicks": 7,
          "midi": 42,
          "name": "F#2",
          "ticks": 57480,
          "time": 186.62319,
          "velocity": 0.33858267716535434
        },
        {
          "duration": 0.02272725000000264,
          "durationTicks": 7,
          "midi": 42,
          "name": "F#2",
          "ticks": 57605,
          "time": 187.02903375000002,
          "velocity": 0.3464566929133858
        },
        {
          "duration": 0.02272725000000264,
          "durationTicks": 7,
          "midi": 42,
          "name": "F#2",
          "ticks": 57720,
          "time": 187.40241,
          "velocity": 0.33858267716535434
        },
        {
          "duration": 0.02272725000000264,
          "durationTicks": 7,
          "midi": 37,
          "name": "C#2",
          "ticks": 57840,
          "time": 187.79202,
          "velocity": 0.6692913385826772
        },
        {
          "duration": 0.02272725000000264,
          "durationTicks": 7,
          "midi": 42,
          "name": "F#2",
          "ticks": 57840,
          "time": 187.79202,
          "velocity": 0.33858267716535434
        },
        {
          "duration": 0.02597400000001926,
          "durationTicks": 8,
          "midi": 42,
          "name": "F#2",
          "ticks": 57962,
          "time": 188.1881235,
          "velocity": 0.25196850393700787
        },
        {
          "duration": 0.025973999999990838,
          "durationTicks": 8,
          "midi": 42,
          "name": "F#2",
          "ticks": 58082,
          "time": 188.5777335,
          "velocity": 0.31496062992125984
        },
        {
          "duration": 0.02272725000000264,
          "durationTicks": 7,
          "midi": 42,
          "name": "F#2",
          "ticks": 58200,
          "time": 188.96085,
          "velocity": 0.2755905511811024
        },
        {
          "duration": 0.02272725000000264,
          "durationTicks": 7,
          "midi": 37,
          "name": "C#2",
          "ticks": 58320,
          "time": 189.35046,
          "velocity": 0.6850393700787402
        },
        {
          "duration": 0.02272725000000264,
          "durationTicks": 7,
          "midi": 42,
          "name": "F#2",
          "ticks": 58320,
          "time": 189.35046,
          "velocity": 0.2755905511811024
        },
        {
          "duration": 0.025973999999990838,
          "durationTicks": 8,
          "midi": 42,
          "name": "F#2",
          "ticks": 58442,
          "time": 189.7465635,
          "velocity": 0.31496062992125984
        },
        {
          "duration": 0.02272725000000264,
          "durationTicks": 7,
          "midi": 42,
          "name": "F#2",
          "ticks": 58565,
          "time": 190.14591375,
          "velocity": 0.28346456692913385
        },
        {
          "duration": 0.02272725000000264,
          "durationTicks": 7,
          "midi": 42,
          "name": "F#2",
          "ticks": 58680,
          "time": 190.51929,
          "velocity": 0.25196850393700787
        },
        {
          "duration": 0.02272725000000264,
          "durationTicks": 7,
          "midi": 37,
          "name": "C#2",
          "ticks": 58800,
          "time": 190.90890000000002,
          "velocity": 0.6850393700787402
        },
        {
          "duration": 0.02272725000000264,
          "durationTicks": 7,
          "midi": 42,
          "name": "F#2",
          "ticks": 58800,
          "time": 190.90890000000002,
          "velocity": 0.30708661417322836
        },
        {
          "duration": 0.025973999999990838,
          "durationTicks": 8,
          "midi": 42,
          "name": "F#2",
          "ticks": 58922,
          "time": 191.3050035,
          "velocity": 0.30708661417322836
        },
        {
          "duration": 0.025973999999990838,
          "durationTicks": 8,
          "midi": 42,
          "name": "F#2",
          "ticks": 59042,
          "time": 191.6946135,
          "velocity": 0.25984251968503935
        },
        {
          "duration": 0.02272725000000264,
          "durationTicks": 7,
          "midi": 42,
          "name": "F#2",
          "ticks": 59160,
          "time": 192.07773,
          "velocity": 0.3228346456692913
        },
        {
          "duration": 0.02272725000000264,
          "durationTicks": 7,
          "midi": 37,
          "name": "C#2",
          "ticks": 59280,
          "time": 192.46734,
          "velocity": 0.7007874015748031
        },
        {
          "duration": 0.025973999999990838,
          "durationTicks": 8,
          "midi": 42,
          "name": "F#2",
          "ticks": 59282,
          "time": 192.4738335,
          "velocity": 0.29133858267716534
        },
        {
          "duration": 0.02272725000000264,
          "durationTicks": 7,
          "midi": 42,
          "name": "F#2",
          "ticks": 59400,
          "time": 192.85695,
          "velocity": 0.3543307086614173
        },
        {
          "duration": 0.02597400000001926,
          "durationTicks": 8,
          "midi": 42,
          "name": "F#2",
          "ticks": 59522,
          "time": 193.2530535,
          "velocity": 0.33858267716535434
        },
        {
          "duration": 0.02272725000000264,
          "durationTicks": 7,
          "midi": 42,
          "name": "F#2",
          "ticks": 59640,
          "time": 193.63617,
          "velocity": 0.31496062992125984
        },
        {
          "duration": 0.02272725000000264,
          "durationTicks": 7,
          "midi": 37,
          "name": "C#2",
          "ticks": 59760,
          "time": 194.02578,
          "velocity": 0.7007874015748031
        },
        {
          "duration": 0.02272725000000264,
          "durationTicks": 7,
          "midi": 42,
          "name": "F#2",
          "ticks": 59760,
          "time": 194.02578,
          "velocity": 0.3228346456692913
        },
        {
          "duration": 0.025973999999990838,
          "durationTicks": 8,
          "midi": 42,
          "name": "F#2",
          "ticks": 59882,
          "time": 194.4218835,
          "velocity": 0.30708661417322836
        },
        {
          "duration": 0.025973999999990838,
          "durationTicks": 8,
          "midi": 42,
          "name": "F#2",
          "ticks": 60002,
          "time": 194.8114935,
          "velocity": 0.3228346456692913
        },
        {
          "duration": 0.02272725000000264,
          "durationTicks": 7,
          "midi": 42,
          "name": "F#2",
          "ticks": 60120,
          "time": 195.19461,
          "velocity": 0.28346456692913385
        },
        {
          "duration": 0.02272725000000264,
          "durationTicks": 7,
          "midi": 37,
          "name": "C#2",
          "ticks": 60240,
          "time": 195.58422000000002,
          "velocity": 0.7165354330708661
        },
        {
          "duration": 0.02272725000000264,
          "durationTicks": 7,
          "midi": 42,
          "name": "F#2",
          "ticks": 60240,
          "time": 195.58422000000002,
          "velocity": 0.29133858267716534
        },
        {
          "duration": 0.02272725000000264,
          "durationTicks": 7,
          "midi": 42,
          "name": "F#2",
          "ticks": 60360,
          "time": 195.97383,
          "velocity": 0.31496062992125984
        },
        {
          "duration": 0.02272725000000264,
          "durationTicks": 7,
          "midi": 46,
          "name": "A#2",
          "ticks": 60485,
          "time": 196.37967375000002,
          "velocity": 0.33858267716535434
        },
        {
          "duration": 0.02272725000000264,
          "durationTicks": 7,
          "midi": 46,
          "name": "A#2",
          "ticks": 60600,
          "time": 196.75305,
          "velocity": 0.3543307086614173
        },
        {
          "duration": 0.02272725000000264,
          "durationTicks": 7,
          "midi": 37,
          "name": "C#2",
          "ticks": 60720,
          "time": 197.14266,
          "velocity": 0.7007874015748031
        },
        {
          "duration": 0.02272725000000264,
          "durationTicks": 7,
          "midi": 46,
          "name": "A#2",
          "ticks": 60720,
          "time": 197.14266,
          "velocity": 0.36220472440944884
        },
        {
          "duration": 0.02597400000001926,
          "durationTicks": 8,
          "midi": 46,
          "name": "A#2",
          "ticks": 60842,
          "time": 197.5387635,
          "velocity": 0.3700787401574803
        },
        {
          "duration": 0.025973999999990838,
          "durationTicks": 8,
          "midi": 46,
          "name": "A#2",
          "ticks": 60967,
          "time": 197.94460725000002,
          "velocity": 0.3858267716535433
        },
        {
          "duration": 0.02272725000000264,
          "durationTicks": 7,
          "midi": 47,
          "name": "B2",
          "ticks": 60970,
          "time": 197.9543475,
          "velocity": 0.7480314960629921
        },
        {
          "duration": 0.02272725000000264,
          "durationTicks": 7,
          "midi": 40,
          "name": "E2",
          "ticks": 61080,
          "time": 198.31149,
          "velocity": 0.6850393700787402
        },
        {
          "duration": 0.02272725000000264,
          "durationTicks": 7,
          "midi": 40,
          "name": "E2",
          "ticks": 61110,
          "time": 198.4088925,
          "velocity": 0.5669291338582677
        },
        {
          "duration": 0.02272725000000264,
          "durationTicks": 7,
          "midi": 40,
          "name": "E2",
          "ticks": 61140,
          "time": 198.506295,
          "velocity": 0.5039370078740157
        },
        {
          "duration": 0.02272725000000264,
          "durationTicks": 7,
          "midi": 46,
          "name": "A#2",
          "ticks": 61205,
          "time": 198.71733375000002,
          "velocity": 0.4094488188976378
        },
        {
          "duration": 0.02272725000000264,
          "durationTicks": 7,
          "midi": 41,
          "name": "F2",
          "ticks": 61205,
          "time": 198.71733375000002,
          "velocity": 0.6850393700787402
        },
        {
          "duration": 0.02597400000001926,
          "durationTicks": 8,
          "midi": 41,
          "name": "F2",
          "ticks": 61232,
          "time": 198.804996,
          "velocity": 0.7007874015748031
        },
        {
          "duration": 0.025973999999990838,
          "durationTicks": 8,
          "midi": 41,
          "name": "F2",
          "ticks": 61262,
          "time": 198.9023985,
          "velocity": 0.7086614173228346
        },
        {
          "duration": 0.02597400000001926,
          "durationTicks": 8,
          "midi": 41,
          "name": "F2",
          "ticks": 61292,
          "time": 198.999801,
          "velocity": 0.7244094488188977
        },
        {
          "duration": 0.025973999999990838,
          "durationTicks": 8,
          "midi": 41,
          "name": "F2",
          "ticks": 61322,
          "time": 199.0972035,
          "velocity": 0.7401574803149606
        },
        {
          "duration": 0.02597400000001926,
          "durationTicks": 8,
          "midi": 41,
          "name": "F2",
          "ticks": 61352,
          "time": 199.194606,
          "velocity": 0.7559055118110236
        },
        {
          "duration": 0.025973999999990838,
          "durationTicks": 8,
          "midi": 41,
          "name": "F2",
          "ticks": 61382,
          "time": 199.2920085,
          "velocity": 0.7716535433070866
        },
        {
          "duration": 0.025973999999990838,
          "durationTicks": 8,
          "midi": 41,
          "name": "F2",
          "ticks": 61412,
          "time": 199.389411,
          "velocity": 0.7795275590551181
        },
        {
          "duration": 0.02272724999997422,
          "durationTicks": 7,
          "midi": 36,
          "name": "C2",
          "ticks": 61450,
          "time": 199.51278750000003,
          "velocity": 0.6062992125984252
        },
        {
          "duration": 0.02272724999997422,
          "durationTicks": 7,
          "midi": 57,
          "name": "A3",
          "ticks": 61450,
          "time": 199.51278750000003,
          "velocity": 0.5118110236220472
        },
        {
          "duration": 0.02272724999997422,
          "durationTicks": 7,
          "midi": 54,
          "name": "F#3",
          "ticks": 61450,
          "time": 199.51278750000003,
          "velocity": 0.2125984251968504
        },
        {
          "duration": 0.02272724999997422,
          "durationTicks": 7,
          "midi": 54,
          "name": "F#3",
          "ticks": 61500,
          "time": 199.675125,
          "velocity": 0.1732283464566929
        },
        {
          "duration": 0.02272724999997422,
          "durationTicks": 7,
          "midi": 54,
          "name": "F#3",
          "ticks": 61560,
          "time": 199.86993,
          "velocity": 0.5039370078740157
        },
        {
          "duration": 0.02272724999997422,
          "durationTicks": 7,
          "midi": 54,
          "name": "F#3",
          "ticks": 61620,
          "time": 200.064735,
          "velocity": 0.2047244094488189
        },
        {
          "duration": 0.02272724999997422,
          "durationTicks": 7,
          "midi": 40,
          "name": "E2",
          "ticks": 61680,
          "time": 200.25954000000002,
          "velocity": 0.8267716535433071
        },
        {
          "duration": 0.02272724999997422,
          "durationTicks": 7,
          "midi": 54,
          "name": "F#3",
          "ticks": 61680,
          "time": 200.25954000000002,
          "velocity": 0.2125984251968504
        },
        {
          "duration": 0.02272724999997422,
          "durationTicks": 7,
          "midi": 54,
          "name": "F#3",
          "ticks": 61740,
          "time": 200.45434500000002,
          "velocity": 0.1732283464566929
        },
        {
          "duration": 0.02597400000001926,
          "durationTicks": 8,
          "midi": 54,
          "name": "F#3",
          "ticks": 61802,
          "time": 200.6556435,
          "velocity": 0.41732283464566927
        },
        {
          "duration": 0.02272725000000264,
          "durationTicks": 7,
          "midi": 40,
          "name": "E2",
          "ticks": 61860,
          "time": 200.843955,
          "velocity": 0.6692913385826772
        },
        {
          "duration": 0.02272725000000264,
          "durationTicks": 7,
          "midi": 54,
          "name": "F#3",
          "ticks": 61860,
          "time": 200.843955,
          "velocity": 0.23622047244094488
        },
        {
          "duration": 0.02597400000001926,
          "durationTicks": 8,
          "midi": 36,
          "name": "C2",
          "ticks": 61922,
          "time": 201.0452535,
          "velocity": 0.6062992125984252
        },
        {
          "duration": 0.02597400000001926,
          "durationTicks": 8,
          "midi": 54,
          "name": "F#3",
          "ticks": 61922,
          "time": 201.0452535,
          "velocity": 0.23622047244094488
        },
        {
          "duration": 0.02272724999997422,
          "durationTicks": 7,
          "midi": 54,
          "name": "F#3",
          "ticks": 61980,
          "time": 201.233565,
          "velocity": 0.1732283464566929
        },
        {
          "duration": 0.02272724999997422,
          "durationTicks": 7,
          "midi": 36,
          "name": "C2",
          "ticks": 62040,
          "time": 201.42837,
          "velocity": 0.6062992125984252
        },
        {
          "duration": 0.02597400000001926,
          "durationTicks": 8,
          "midi": 54,
          "name": "F#3",
          "ticks": 62042,
          "time": 201.4348635,
          "velocity": 0.41732283464566927
        },
        {
          "duration": 0.02272724999997422,
          "durationTicks": 7,
          "midi": 54,
          "name": "F#3",
          "ticks": 62100,
          "time": 201.623175,
          "velocity": 0.23622047244094488
        },
        {
          "duration": 0.02272724999997422,
          "durationTicks": 7,
          "midi": 40,
          "name": "E2",
          "ticks": 62160,
          "time": 201.81798,
          "velocity": 0.8267716535433071
        },
        {
          "duration": 0.02272724999997422,
          "durationTicks": 7,
          "midi": 54,
          "name": "F#3",
          "ticks": 62160,
          "time": 201.81798,
          "velocity": 0.23622047244094488
        },
        {
          "duration": 0.02272724999997422,
          "durationTicks": 7,
          "midi": 54,
          "name": "F#3",
          "ticks": 62220,
          "time": 202.012785,
          "velocity": 0.28346456692913385
        },
        {
          "duration": 0.02272724999997422,
          "durationTicks": 7,
          "midi": 36,
          "name": "C2",
          "ticks": 62280,
          "time": 202.20759,
          "velocity": 0.5984251968503937
        },
        {
          "duration": 0.02597400000004768,
          "durationTicks": 8,
          "midi": 54,
          "name": "F#3",
          "ticks": 62282,
          "time": 202.2140835,
          "velocity": 0.41732283464566927
        },
        {
          "duration": 0.02272724999997422,
          "durationTicks": 7,
          "midi": 54,
          "name": "F#3",
          "ticks": 62340,
          "time": 202.402395,
          "velocity": 0.28346456692913385
        },
        {
          "duration": 0.022727250000031063,
          "durationTicks": 7,
          "midi": 36,
          "name": "C2",
          "ticks": 62405,
          "time": 202.61343374999998,
          "velocity": 0.5984251968503937
        },
        {
          "duration": 0.022727250000031063,
          "durationTicks": 7,
          "midi": 54,
          "name": "F#3",
          "ticks": 62405,
          "time": 202.61343374999998,
          "velocity": 0.23622047244094488
        },
        {
          "duration": 0.022727250000031063,
          "durationTicks": 7,
          "midi": 46,
          "name": "A#2",
          "ticks": 62405,
          "time": 202.61343374999998,
          "velocity": 0.2125984251968504
        },
        {
          "duration": 0.02272724999997422,
          "durationTicks": 7,
          "midi": 54,
          "name": "F#3",
          "ticks": 62460,
          "time": 202.79200500000002,
          "velocity": 0.14173228346456693
        },
        {
          "duration": 0.02272724999997422,
          "durationTicks": 7,
          "midi": 54,
          "name": "F#3",
          "ticks": 62520,
          "time": 202.98681000000002,
          "velocity": 0.41732283464566927
        },
        {
          "duration": 0.02272724999997422,
          "durationTicks": 7,
          "midi": 46,
          "name": "A#2",
          "ticks": 62520,
          "time": 202.98681000000002,
          "velocity": 0.25984251968503935
        },
        {
          "duration": 0.02272725000000264,
          "durationTicks": 7,
          "midi": 54,
          "name": "F#3",
          "ticks": 62580,
          "time": 203.181615,
          "velocity": 0.28346456692913385
        },
        {
          "duration": 0.02272725000000264,
          "durationTicks": 7,
          "midi": 40,
          "name": "E2",
          "ticks": 62640,
          "time": 203.37642,
          "velocity": 0.8267716535433071
        },
        {
          "duration": 0.02272725000000264,
          "durationTicks": 7,
          "midi": 54,
          "name": "F#3",
          "ticks": 62640,
          "time": 203.37642,
          "velocity": 0.28346456692913385
        },
        {
          "duration": 0.02272725000000264,
          "durationTicks": 7,
          "midi": 46,
          "name": "A#2",
          "ticks": 62640,
          "time": 203.37642,
          "velocity": 0.25984251968503935
        },
        {
          "duration": 0.02272724999997422,
          "durationTicks": 7,
          "midi": 54,
          "name": "F#3",
          "ticks": 62700,
          "time": 203.571225,
          "velocity": 0.14173228346456693
        },
        {
          "duration": 0.02597400000001926,
          "durationTicks": 8,
          "midi": 54,
          "name": "F#3",
          "ticks": 62762,
          "time": 203.7725235,
          "velocity": 0.41732283464566927
        },
        {
          "duration": 0.02597400000001926,
          "durationTicks": 8,
          "midi": 46,
          "name": "A#2",
          "ticks": 62762,
          "time": 203.7725235,
          "velocity": 0.2125984251968504
        },
        {
          "duration": 0.02272725000000264,
          "durationTicks": 7,
          "midi": 40,
          "name": "E2",
          "ticks": 62765,
          "time": 203.78226375,
          "velocity": 0.5984251968503937
        },
        {
          "duration": 0.02272724999997422,
          "durationTicks": 7,
          "midi": 40,
          "name": "E2",
          "ticks": 62820,
          "time": 203.960835,
          "velocity": 0.4409448818897638
        },
        {
          "duration": 0.02272724999997422,
          "durationTicks": 7,
          "midi": 54,
          "name": "F#3",
          "ticks": 62820,
          "time": 203.960835,
          "velocity": 0.1732283464566929
        },
        {
          "duration": 0.02597400000001926,
          "durationTicks": 8,
          "midi": 36,
          "name": "C2",
          "ticks": 62882,
          "time": 204.1621335,
          "velocity": 0.5984251968503937
        },
        {
          "duration": 0.02272725000000264,
          "durationTicks": 7,
          "midi": 54,
          "name": "F#3",
          "ticks": 62885,
          "time": 204.17187375,
          "velocity": 0.2047244094488189
        },
        {
          "duration": 0.02272725000000264,
          "durationTicks": 7,
          "midi": 46,
          "name": "A#2",
          "ticks": 62885,
          "time": 204.17187375,
          "velocity": 0.25984251968503935
        },
        {
          "duration": 0.02272724999997422,
          "durationTicks": 7,
          "midi": 54,
          "name": "F#3",
          "ticks": 62940,
          "time": 204.350445,
          "velocity": 0.2047244094488189
        },
        {
          "duration": 0.02272724999997422,
          "durationTicks": 7,
          "midi": 54,
          "name": "F#3",
          "ticks": 63000,
          "time": 204.54525,
          "velocity": 0.41732283464566927
        },
        {
          "duration": 0.02272724999997422,
          "durationTicks": 7,
          "midi": 46,
          "name": "A#2",
          "ticks": 63000,
          "time": 204.54525,
          "velocity": 0.2125984251968504
        },
        {
          "duration": 0.02272724999997422,
          "durationTicks": 7,
          "midi": 36,
          "name": "C2",
          "ticks": 63060,
          "time": 204.740055,
          "velocity": 0.5984251968503937
        },
        {
          "duration": 0.02272724999997422,
          "durationTicks": 7,
          "midi": 54,
          "name": "F#3",
          "ticks": 63060,
          "time": 204.740055,
          "velocity": 0.14173228346456693
        },
        {
          "duration": 0.02597400000001926,
          "durationTicks": 8,
          "midi": 40,
          "name": "E2",
          "ticks": 63122,
          "time": 204.9413535,
          "velocity": 0.8267716535433071
        },
        {
          "duration": 0.02597400000001926,
          "durationTicks": 8,
          "midi": 54,
          "name": "F#3",
          "ticks": 63122,
          "time": 204.9413535,
          "velocity": 0.23622047244094488
        },
        {
          "duration": 0.02597400000001926,
          "durationTicks": 8,
          "midi": 46,
          "name": "A#2",
          "ticks": 63122,
          "time": 204.9413535,
          "velocity": 0.25984251968503935
        },
        {
          "duration": 0.02272724999997422,
          "durationTicks": 7,
          "midi": 54,
          "name": "F#3",
          "ticks": 63180,
          "time": 205.12966500000002,
          "velocity": 0.2047244094488189
        },
        {
          "duration": 0.02597400000001926,
          "durationTicks": 8,
          "midi": 54,
          "name": "F#3",
          "ticks": 63242,
          "time": 205.3309635,
          "velocity": 0.41732283464566927
        },
        {
          "duration": 0.02597400000001926,
          "durationTicks": 8,
          "midi": 46,
          "name": "A#2",
          "ticks": 63242,
          "time": 205.3309635,
          "velocity": 0.25984251968503935
        },
        {
          "duration": 0.02272725000000264,
          "durationTicks": 7,
          "midi": 54,
          "name": "F#3",
          "ticks": 63300,
          "time": 205.519275,
          "velocity": 0.1732283464566929
        },
        {
          "duration": 0.02597400000001926,
          "durationTicks": 8,
          "midi": 36,
          "name": "C2",
          "ticks": 63362,
          "time": 205.7205735,
          "velocity": 0.5984251968503937
        },
        {
          "duration": 0.02597400000001926,
          "durationTicks": 8,
          "midi": 54,
          "name": "F#3",
          "ticks": 63362,
          "time": 205.7205735,
          "velocity": 0.2047244094488189
        },
        {
          "duration": 0.02597400000001926,
          "durationTicks": 8,
          "midi": 46,
          "name": "A#2",
          "ticks": 63362,
          "time": 205.7205735,
          "velocity": 0.2125984251968504
        },
        {
          "duration": 0.02272724999997422,
          "durationTicks": 7,
          "midi": 54,
          "name": "F#3",
          "ticks": 63420,
          "time": 205.908885,
          "velocity": 0.1732283464566929
        },
        {
          "duration": 0.02272724999997422,
          "durationTicks": 7,
          "midi": 54,
          "name": "F#3",
          "ticks": 63480,
          "time": 206.10369,
          "velocity": 0.5039370078740157
        },
        {
          "duration": 0.02272724999997422,
          "durationTicks": 7,
          "midi": 46,
          "name": "A#2",
          "ticks": 63480,
          "time": 206.10369,
          "velocity": 0.25984251968503935
        },
        {
          "duration": 0.02272724999997422,
          "durationTicks": 7,
          "midi": 54,
          "name": "F#3",
          "ticks": 63540,
          "time": 206.298495,
          "velocity": 0.2047244094488189
        },
        {
          "duration": 0.02272724999997422,
          "durationTicks": 7,
          "midi": 40,
          "name": "E2",
          "ticks": 63600,
          "time": 206.4933,
          "velocity": 0.8267716535433071
        },
        {
          "duration": 0.02272724999997422,
          "durationTicks": 7,
          "midi": 54,
          "name": "F#3",
          "ticks": 63600,
          "time": 206.4933,
          "velocity": 0.1732283464566929
        },
        {
          "duration": 0.02272724999997422,
          "durationTicks": 7,
          "midi": 46,
          "name": "A#2",
          "ticks": 63600,
          "time": 206.4933,
          "velocity": 0.25984251968503935
        },
        {
          "duration": 0.02272724999997422,
          "durationTicks": 7,
          "midi": 54,
          "name": "F#3",
          "ticks": 63660,
          "time": 206.688105,
          "velocity": 0.1732283464566929
        },
        {
          "duration": 0.02597400000001926,
          "durationTicks": 8,
          "midi": 54,
          "name": "F#3",
          "ticks": 63722,
          "time": 206.88940350000001,
          "velocity": 0.41732283464566927
        },
        {
          "duration": 0.02597400000001926,
          "durationTicks": 8,
          "midi": 46,
          "name": "A#2",
          "ticks": 63722,
          "time": 206.88940350000001,
          "velocity": 0.2125984251968504
        },
        {
          "duration": 0.02272724999997422,
          "durationTicks": 7,
          "midi": 40,
          "name": "E2",
          "ticks": 63780,
          "time": 207.077715,
          "velocity": 0.6692913385826772
        },
        {
          "duration": 0.02272724999997422,
          "durationTicks": 7,
          "midi": 54,
          "name": "F#3",
          "ticks": 63780,
          "time": 207.077715,
          "velocity": 0.23622047244094488
        },
        {
          "duration": 0.02597400000001926,
          "durationTicks": 8,
          "midi": 36,
          "name": "C2",
          "ticks": 63842,
          "time": 207.2790135,
          "velocity": 0.5984251968503937
        },
        {
          "duration": 0.02597400000001926,
          "durationTicks": 8,
          "midi": 54,
          "name": "F#3",
          "ticks": 63842,
          "time": 207.2790135,
          "velocity": 0.23622047244094488
        },
        {
          "duration": 0.022727250000031063,
          "durationTicks": 7,
          "midi": 46,
          "name": "A#2",
          "ticks": 63845,
          "time": 207.28875374999998,
          "velocity": 0.25984251968503935
        },
        {
          "duration": 0.02272724999997422,
          "durationTicks": 7,
          "midi": 54,
          "name": "F#3",
          "ticks": 63900,
          "time": 207.46732500000002,
          "velocity": 0.1732283464566929
        },
        {
          "duration": 0.02272724999997422,
          "durationTicks": 7,
          "midi": 36,
          "name": "C2",
          "ticks": 63960,
          "time": 207.66213000000002,
          "velocity": 0.5984251968503937
        },
        {
          "duration": 0.02272724999997422,
          "durationTicks": 7,
          "midi": 54,
          "name": "F#3",
          "ticks": 63960,
          "time": 207.66213000000002,
          "velocity": 0.41732283464566927
        },
        {
          "duration": 0.02597400000001926,
          "durationTicks": 8,
          "midi": 46,
          "name": "A#2",
          "ticks": 63962,
          "time": 207.6686235,
          "velocity": 0.2125984251968504
        },
        {
          "duration": 0.02272725000000264,
          "durationTicks": 7,
          "midi": 54,
          "name": "F#3",
          "ticks": 64020,
          "time": 207.856935,
          "velocity": 0.23622047244094488
        },
        {
          "duration": 0.02272725000000264,
          "durationTicks": 7,
          "midi": 40,
          "name": "E2",
          "ticks": 64080,
          "time": 208.05174,
          "velocity": 0.8267716535433071
        },
        {
          "duration": 0.02597400000001926,
          "durationTicks": 8,
          "midi": 54,
          "name": "F#3",
          "ticks": 64082,
          "time": 208.0582335,
          "velocity": 0.23622047244094488
        },
        {
          "duration": 0.02597400000001926,
          "durationTicks": 8,
          "midi": 46,
          "name": "A#2",
          "ticks": 64082,
          "time": 208.0582335,
          "velocity": 0.25984251968503935
        },
        {
          "duration": 0.02272724999997422,
          "durationTicks": 7,
          "midi": 54,
          "name": "F#3",
          "ticks": 64140,
          "time": 208.246545,
          "velocity": 0.28346456692913385
        },
        {
          "duration": 0.02597400000001926,
          "durationTicks": 8,
          "midi": 36,
          "name": "C2",
          "ticks": 64202,
          "time": 208.4478435,
          "velocity": 0.5984251968503937
        },
        {
          "duration": 0.02597400000001926,
          "durationTicks": 8,
          "midi": 54,
          "name": "F#3",
          "ticks": 64202,
          "time": 208.4478435,
          "velocity": 0.41732283464566927
        },
        {
          "duration": 0.02597400000001926,
          "durationTicks": 8,
          "midi": 46,
          "name": "A#2",
          "ticks": 64202,
          "time": 208.4478435,
          "velocity": 0.25984251968503935
        },
        {
          "duration": 0.02272724999997422,
          "durationTicks": 7,
          "midi": 54,
          "name": "F#3",
          "ticks": 64260,
          "time": 208.636155,
          "velocity": 0.28346456692913385
        },
        {
          "duration": 0.02597400000001926,
          "durationTicks": 8,
          "midi": 36,
          "name": "C2",
          "ticks": 64322,
          "time": 208.8374535,
          "velocity": 0.5984251968503937
        },
        {
          "duration": 0.02597400000001926,
          "durationTicks": 8,
          "midi": 54,
          "name": "F#3",
          "ticks": 64322,
          "time": 208.8374535,
          "velocity": 0.23622047244094488
        },
        {
          "duration": 0.02272725000000264,
          "durationTicks": 7,
          "midi": 46,
          "name": "A#2",
          "ticks": 64325,
          "time": 208.84719375,
          "velocity": 0.2125984251968504
        },
        {
          "duration": 0.02272724999997422,
          "durationTicks": 7,
          "midi": 54,
          "name": "F#3",
          "ticks": 64380,
          "time": 209.025765,
          "velocity": 0.14173228346456693
        },
        {
          "duration": 0.02272724999997422,
          "durationTicks": 7,
          "midi": 54,
          "name": "F#3",
          "ticks": 64440,
          "time": 209.22057,
          "velocity": 0.41732283464566927
        },
        {
          "duration": 0.02272724999997422,
          "durationTicks": 7,
          "midi": 46,
          "name": "A#2",
          "ticks": 64440,
          "time": 209.22057,
          "velocity": 0.25984251968503935
        },
        {
          "duration": 0.02272724999997422,
          "durationTicks": 7,
          "midi": 54,
          "name": "F#3",
          "ticks": 64500,
          "time": 209.415375,
          "velocity": 0.28346456692913385
        },
        {
          "duration": 0.02272724999997422,
          "durationTicks": 7,
          "midi": 40,
          "name": "E2",
          "ticks": 64560,
          "time": 209.61018,
          "velocity": 0.8267716535433071
        },
        {
          "duration": 0.02272724999997422,
          "durationTicks": 7,
          "midi": 54,
          "name": "F#3",
          "ticks": 64560,
          "time": 209.61018,
          "velocity": 0.28346456692913385
        },
        {
          "duration": 0.02272724999997422,
          "durationTicks": 7,
          "midi": 46,
          "name": "A#2",
          "ticks": 64560,
          "time": 209.61018,
          "velocity": 0.25984251968503935
        },
        {
          "duration": 0.02272724999997422,
          "durationTicks": 7,
          "midi": 54,
          "name": "F#3",
          "ticks": 64620,
          "time": 209.80498500000002,
          "velocity": 0.14173228346456693
        },
        {
          "duration": 0.02272724999997422,
          "durationTicks": 7,
          "midi": 54,
          "name": "F#3",
          "ticks": 64680,
          "time": 209.99979000000002,
          "velocity": 0.41732283464566927
        },
        {
          "duration": 0.02597400000001926,
          "durationTicks": 8,
          "midi": 46,
          "name": "A#2",
          "ticks": 64682,
          "time": 210.0062835,
          "velocity": 0.2125984251968504
        },
        {
          "duration": 0.022727250000031063,
          "durationTicks": 7,
          "midi": 40,
          "name": "E2",
          "ticks": 64685,
          "time": 210.01602375,
          "velocity": 0.5984251968503937
        },
        {
          "duration": 0.02272725000000264,
          "durationTicks": 7,
          "midi": 40,
          "name": "E2",
          "ticks": 64740,
          "time": 210.194595,
          "velocity": 0.4409448818897638
        },
        {
          "duration": 0.02272725000000264,
          "durationTicks": 7,
          "midi": 54,
          "name": "F#3",
          "ticks": 64740,
          "time": 210.194595,
          "velocity": 0.1732283464566929
        },
        {
          "duration": 0.02597400000001926,
          "durationTicks": 8,
          "midi": 36,
          "name": "C2",
          "ticks": 64802,
          "time": 210.3958935,
          "velocity": 0.5984251968503937
        },
        {
          "duration": 0.02597400000001926,
          "durationTicks": 8,
          "midi": 54,
          "name": "F#3",
          "ticks": 64802,
          "time": 210.3958935,
          "velocity": 0.2047244094488189
        },
        {
          "duration": 0.02597400000001926,
          "durationTicks": 8,
          "midi": 46,
          "name": "A#2",
          "ticks": 64802,
          "time": 210.3958935,
          "velocity": 0.25984251968503935
        },
        {
          "duration": 0.02272725000000264,
          "durationTicks": 7,
          "midi": 54,
          "name": "F#3",
          "ticks": 64860,
          "time": 210.584205,
          "velocity": 0.2047244094488189
        },
        {
          "duration": 0.02597400000001926,
          "durationTicks": 8,
          "midi": 40,
          "name": "E2",
          "ticks": 64922,
          "time": 210.7855035,
          "velocity": 0.7637795275590551
        },
        {
          "duration": 0.02597400000001926,
          "durationTicks": 8,
          "midi": 54,
          "name": "F#3",
          "ticks": 64922,
          "time": 210.7855035,
          "velocity": 0.41732283464566927
        },
        {
          "duration": 0.02597400000001926,
          "durationTicks": 8,
          "midi": 46,
          "name": "A#2",
          "ticks": 64922,
          "time": 210.7855035,
          "velocity": 0.2125984251968504
        },
        {
          "duration": 0.02272724999997422,
          "durationTicks": 7,
          "midi": 36,
          "name": "C2",
          "ticks": 64980,
          "time": 210.973815,
          "velocity": 0.5984251968503937
        },
        {
          "duration": 0.02272724999997422,
          "durationTicks": 7,
          "midi": 54,
          "name": "F#3",
          "ticks": 64980,
          "time": 210.973815,
          "velocity": 0.14173228346456693
        },
        {
          "duration": 0.02272725000000264,
          "durationTicks": 7,
          "midi": 40,
          "name": "E2",
          "ticks": 65045,
          "time": 211.18485375,
          "velocity": 0.8267716535433071
        },
        {
          "duration": 0.02272725000000264,
          "durationTicks": 7,
          "midi": 54,
          "name": "F#3",
          "ticks": 65045,
          "time": 211.18485375,
          "velocity": 0.23622047244094488
        },
        {
          "duration": 0.02597400000001926,
          "durationTicks": 8,
          "midi": 46,
          "name": "A#2",
          "ticks": 65047,
          "time": 211.19134724999998,
          "velocity": 0.25984251968503935
        },
        {
          "duration": 0.02272724999997422,
          "durationTicks": 7,
          "midi": 54,
          "name": "F#3",
          "ticks": 65100,
          "time": 211.363425,
          "velocity": 0.2047244094488189
        },
        {
          "duration": 0.02597400000001926,
          "durationTicks": 8,
          "midi": 40,
          "name": "E2",
          "ticks": 65162,
          "time": 211.5647235,
          "velocity": 0.6456692913385826
        },
        {
          "duration": 0.022727250000031063,
          "durationTicks": 7,
          "midi": 54,
          "name": "F#3",
          "ticks": 65165,
          "time": 211.57446374999998,
          "velocity": 0.41732283464566927
        },
        {
          "duration": 0.022727250000031063,
          "durationTicks": 7,
          "midi": 46,
          "name": "A#2",
          "ticks": 65165,
          "time": 211.57446374999998,
          "velocity": 0.25984251968503935
        },
        {
          "duration": 0.02597400000004768,
          "durationTicks": 8,
          "midi": 54,
          "name": "F#3",
          "ticks": 65222,
          "time": 211.7595285,
          "velocity": 0.1732283464566929
        },
        {
          "duration": 0.02597400000001926,
          "durationTicks": 8,
          "midi": 36,
          "name": "C2",
          "ticks": 65282,
          "time": 211.9543335,
          "velocity": 0.5905511811023622
        },
        {
          "duration": 0.02597400000001926,
          "durationTicks": 8,
          "midi": 54,
          "name": "F#3",
          "ticks": 65282,
          "time": 211.9543335,
          "velocity": 0.2047244094488189
        },
        {
          "duration": 0.02272724999997422,
          "durationTicks": 7,
          "midi": 54,
          "name": "F#3",
          "ticks": 65340,
          "time": 212.14264500000002,
          "velocity": 0.1732283464566929
        },
        {
          "duration": 0.02272724999997422,
          "durationTicks": 7,
          "midi": 54,
          "name": "F#3",
          "ticks": 65400,
          "time": 212.33745000000002,
          "velocity": 0.5039370078740157
        },
        {
          "duration": 0.02272724999997422,
          "durationTicks": 7,
          "midi": 46,
          "name": "A#2",
          "ticks": 65400,
          "time": 212.33745000000002,
          "velocity": 0.25984251968503935
        },
        {
          "duration": 0.02272724999997422,
          "durationTicks": 7,
          "midi": 54,
          "name": "F#3",
          "ticks": 65460,
          "time": 212.53225500000002,
          "velocity": 0.2047244094488189
        },
        {
          "duration": 0.02272725000000264,
          "durationTicks": 7,
          "midi": 40,
          "name": "E2",
          "ticks": 65520,
          "time": 212.72706,
          "velocity": 0.8267716535433071
        },
        {
          "duration": 0.02272725000000264,
          "durationTicks": 7,
          "midi": 54,
          "name": "F#3",
          "ticks": 65520,
          "time": 212.72706,
          "velocity": 0.1732283464566929
        },
        {
          "duration": 0.02597400000001926,
          "durationTicks": 8,
          "midi": 46,
          "name": "A#2",
          "ticks": 65522,
          "time": 212.7335535,
          "velocity": 0.25984251968503935
        },
        {
          "duration": 0.02272725000000264,
          "durationTicks": 7,
          "midi": 54,
          "name": "F#3",
          "ticks": 65580,
          "time": 212.921865,
          "velocity": 0.1732283464566929
        },
        {
          "duration": 0.02272724999997422,
          "durationTicks": 7,
          "midi": 54,
          "name": "F#3",
          "ticks": 65640,
          "time": 213.11667,
          "velocity": 0.41732283464566927
        },
        {
          "duration": 0.02597400000001926,
          "durationTicks": 8,
          "midi": 46,
          "name": "A#2",
          "ticks": 65642,
          "time": 213.1231635,
          "velocity": 0.2125984251968504
        },
        {
          "duration": 0.02272724999997422,
          "durationTicks": 7,
          "midi": 40,
          "name": "E2",
          "ticks": 65700,
          "time": 213.311475,
          "velocity": 0.6692913385826772
        },
        {
          "duration": 0.02272724999997422,
          "durationTicks": 7,
          "midi": 54,
          "name": "F#3",
          "ticks": 65700,
          "time": 213.311475,
          "velocity": 0.23622047244094488
        },
        {
          "duration": 0.02272724999997422,
          "durationTicks": 7,
          "midi": 36,
          "name": "C2",
          "ticks": 65760,
          "time": 213.50628,
          "velocity": 0.5905511811023622
        },
        {
          "duration": 0.02597400000001926,
          "durationTicks": 8,
          "midi": 54,
          "name": "F#3",
          "ticks": 65762,
          "time": 213.5127735,
          "velocity": 0.23622047244094488
        },
        {
          "duration": 0.02597400000001926,
          "durationTicks": 8,
          "midi": 46,
          "name": "A#2",
          "ticks": 65762,
          "time": 213.5127735,
          "velocity": 0.25984251968503935
        },
        {
          "duration": 0.02272724999997422,
          "durationTicks": 7,
          "midi": 40,
          "name": "E2",
          "ticks": 65820,
          "time": 213.701085,
          "velocity": 0.5984251968503937
        },
        {
          "duration": 0.02272724999997422,
          "durationTicks": 7,
          "midi": 54,
          "name": "F#3",
          "ticks": 65820,
          "time": 213.701085,
          "velocity": 0.1732283464566929
        },
        {
          "duration": 0.02272724999997422,
          "durationTicks": 7,
          "midi": 36,
          "name": "C2",
          "ticks": 65880,
          "time": 213.89589,
          "velocity": 0.5905511811023622
        },
        {
          "duration": 0.02597400000001926,
          "durationTicks": 8,
          "midi": 54,
          "name": "F#3",
          "ticks": 65882,
          "time": 213.9023835,
          "velocity": 0.41732283464566927
        },
        {
          "duration": 0.02597400000001926,
          "durationTicks": 8,
          "midi": 46,
          "name": "A#2",
          "ticks": 65882,
          "time": 213.9023835,
          "velocity": 0.2125984251968504
        },
        {
          "duration": 0.02272724999997422,
          "durationTicks": 7,
          "midi": 54,
          "name": "F#3",
          "ticks": 65940,
          "time": 214.090695,
          "velocity": 0.23622047244094488
        },
        {
          "duration": 0.02272724999997422,
          "durationTicks": 7,
          "midi": 40,
          "name": "E2",
          "ticks": 66000,
          "time": 214.2855,
          "velocity": 0.8267716535433071
        },
        {
          "duration": 0.02272724999997422,
          "durationTicks": 7,
          "midi": 54,
          "name": "F#3",
          "ticks": 66000,
          "time": 214.2855,
          "velocity": 0.23622047244094488
        },
        {
          "duration": 0.02597400000001926,
          "durationTicks": 8,
          "midi": 46,
          "name": "A#2",
          "ticks": 66002,
          "time": 214.2919935,
          "velocity": 0.25984251968503935
        },
        {
          "duration": 0.02272724999997422,
          "durationTicks": 7,
          "midi": 54,
          "name": "F#3",
          "ticks": 66060,
          "time": 214.48030500000002,
          "velocity": 0.28346456692913385
        },
        {
          "duration": 0.02272724999997422,
          "durationTicks": 7,
          "midi": 36,
          "name": "C2",
          "ticks": 66120,
          "time": 214.67511000000002,
          "velocity": 0.5905511811023622
        },
        {
          "duration": 0.02272724999997422,
          "durationTicks": 7,
          "midi": 54,
          "name": "F#3",
          "ticks": 66120,
          "time": 214.67511000000002,
          "velocity": 0.41732283464566927
        },
        {
          "duration": 0.02597400000001926,
          "durationTicks": 8,
          "midi": 46,
          "name": "A#2",
          "ticks": 66122,
          "time": 214.6816035,
          "velocity": 0.25984251968503935
        },
        {
          "duration": 0.02272724999997422,
          "durationTicks": 7,
          "midi": 54,
          "name": "F#3",
          "ticks": 66180,
          "time": 214.86991500000002,
          "velocity": 0.28346456692913385
        },
        {
          "duration": 0.02597400000001926,
          "durationTicks": 8,
          "midi": 36,
          "name": "C2",
          "ticks": 66242,
          "time": 215.0712135,
          "velocity": 0.5905511811023622
        },
        {
          "duration": 0.02597400000001926,
          "durationTicks": 8,
          "midi": 54,
          "name": "F#3",
          "ticks": 66242,
          "time": 215.0712135,
          "velocity": 0.23622047244094488
        },
        {
          "duration": 0.02597400000001926,
          "durationTicks": 8,
          "midi": 46,
          "name": "A#2",
          "ticks": 66242,
          "time": 215.0712135,
          "velocity": 0.2125984251968504
        },
        {
          "duration": 0.02272725000000264,
          "durationTicks": 7,
          "midi": 54,
          "name": "F#3",
          "ticks": 66300,
          "time": 215.259525,
          "velocity": 0.14173228346456693
        },
        {
          "duration": 0.02272724999997422,
          "durationTicks": 7,
          "midi": 54,
          "name": "F#3",
          "ticks": 66360,
          "time": 215.45433,
          "velocity": 0.41732283464566927
        },
        {
          "duration": 0.02272724999997422,
          "durationTicks": 7,
          "midi": 46,
          "name": "A#2",
          "ticks": 66360,
          "time": 215.45433,
          "velocity": 0.25984251968503935
        },
        {
          "duration": 0.02272724999997422,
          "durationTicks": 7,
          "midi": 54,
          "name": "F#3",
          "ticks": 66420,
          "time": 215.649135,
          "velocity": 0.28346456692913385
        },
        {
          "duration": 0.02272724999997422,
          "durationTicks": 7,
          "midi": 40,
          "name": "E2",
          "ticks": 66480,
          "time": 215.84394,
          "velocity": 0.8267716535433071
        },
        {
          "duration": 0.02272724999997422,
          "durationTicks": 7,
          "midi": 54,
          "name": "F#3",
          "ticks": 66480,
          "time": 215.84394,
          "velocity": 0.28346456692913385
        },
        {
          "duration": 0.02597400000001926,
          "durationTicks": 8,
          "midi": 46,
          "name": "A#2",
          "ticks": 66482,
          "time": 215.8504335,
          "velocity": 0.25984251968503935
        },
        {
          "duration": 0.02272724999997422,
          "durationTicks": 7,
          "midi": 54,
          "name": "F#3",
          "ticks": 66540,
          "time": 216.038745,
          "velocity": 0.14173228346456693
        },
        {
          "duration": 0.02272724999997422,
          "durationTicks": 7,
          "midi": 54,
          "name": "F#3",
          "ticks": 66600,
          "time": 216.23355,
          "velocity": 0.41732283464566927
        },
        {
          "duration": 0.02272724999997422,
          "durationTicks": 7,
          "midi": 46,
          "name": "A#2",
          "ticks": 66600,
          "time": 216.23355,
          "velocity": 0.2125984251968504
        },
        {
          "duration": 0.02272724999997422,
          "durationTicks": 7,
          "midi": 40,
          "name": "E2",
          "ticks": 66660,
          "time": 216.428355,
          "velocity": 0.6220472440944882
        },
        {
          "duration": 0.02272724999997422,
          "durationTicks": 7,
          "midi": 54,
          "name": "F#3",
          "ticks": 66660,
          "time": 216.428355,
          "velocity": 0.1732283464566929
        },
        {
          "duration": 0.02597400000001926,
          "durationTicks": 8,
          "midi": 36,
          "name": "C2",
          "ticks": 66722,
          "time": 216.6296535,
          "velocity": 0.5905511811023622
        },
        {
          "duration": 0.02597400000001926,
          "durationTicks": 8,
          "midi": 54,
          "name": "F#3",
          "ticks": 66722,
          "time": 216.6296535,
          "velocity": 0.2047244094488189
        },
        {
          "duration": 0.02597400000001926,
          "durationTicks": 8,
          "midi": 46,
          "name": "A#2",
          "ticks": 66722,
          "time": 216.6296535,
          "velocity": 0.25984251968503935
        },
        {
          "duration": 0.02272724999997422,
          "durationTicks": 7,
          "midi": 40,
          "name": "E2",
          "ticks": 66780,
          "time": 216.81796500000002,
          "velocity": 0.5984251968503937
        },
        {
          "duration": 0.02272724999997422,
          "durationTicks": 7,
          "midi": 54,
          "name": "F#3",
          "ticks": 66780,
          "time": 216.81796500000002,
          "velocity": 0.2047244094488189
        },
        {
          "duration": 0.02272724999997422,
          "durationTicks": 7,
          "midi": 54,
          "name": "F#3",
          "ticks": 66840,
          "time": 217.01277000000002,
          "velocity": 0.41732283464566927
        },
        {
          "duration": 0.02597400000001926,
          "durationTicks": 8,
          "midi": 46,
          "name": "A#2",
          "ticks": 66842,
          "time": 217.0192635,
          "velocity": 0.2125984251968504
        },
        {
          "duration": 0.02272724999997422,
          "durationTicks": 7,
          "midi": 36,
          "name": "C2",
          "ticks": 66900,
          "time": 217.20757500000002,
          "velocity": 0.5905511811023622
        },
        {
          "duration": 0.02272724999997422,
          "durationTicks": 7,
          "midi": 54,
          "name": "F#3",
          "ticks": 66900,
          "time": 217.20757500000002,
          "velocity": 0.14173228346456693
        },
        {
          "duration": 0.02597400000001926,
          "durationTicks": 8,
          "midi": 40,
          "name": "E2",
          "ticks": 66962,
          "time": 217.4088735,
          "velocity": 0.8267716535433071
        },
        {
          "duration": 0.02597400000001926,
          "durationTicks": 8,
          "midi": 54,
          "name": "F#3",
          "ticks": 66962,
          "time": 217.4088735,
          "velocity": 0.23622047244094488
        },
        {
          "duration": 0.02597400000001926,
          "durationTicks": 8,
          "midi": 46,
          "name": "A#2",
          "ticks": 66962,
          "time": 217.4088735,
          "velocity": 0.25984251968503935
        },
        {
          "duration": 0.02272725000000264,
          "durationTicks": 7,
          "midi": 54,
          "name": "F#3",
          "ticks": 67020,
          "time": 217.597185,
          "velocity": 0.2047244094488189
        },
        {
          "duration": 0.02272724999997422,
          "durationTicks": 7,
          "midi": 54,
          "name": "F#3",
          "ticks": 67080,
          "time": 217.79199,
          "velocity": 0.41732283464566927
        },
        {
          "duration": 0.02272724999997422,
          "durationTicks": 7,
          "midi": 46,
          "name": "A#2",
          "ticks": 67080,
          "time": 217.79199,
          "velocity": 0.25984251968503935
        },
        {
          "duration": 0.02272724999997422,
          "durationTicks": 7,
          "midi": 54,
          "name": "F#3",
          "ticks": 67140,
          "time": 217.986795,
          "velocity": 0.1732283464566929
        },
        {
          "duration": 0.02272725000000264,
          "durationTicks": 7,
          "midi": 36,
          "name": "C2",
          "ticks": 67205,
          "time": 218.19783375,
          "velocity": 0.5905511811023622
        },
        {
          "duration": 0.02272725000000264,
          "durationTicks": 7,
          "midi": 54,
          "name": "F#3",
          "ticks": 67205,
          "time": 218.19783375,
          "velocity": 0.2047244094488189
        },
        {
          "duration": 0.02272725000000264,
          "durationTicks": 7,
          "midi": 46,
          "name": "A#2",
          "ticks": 67205,
          "time": 218.19783375,
          "velocity": 0.2125984251968504
        },
        {
          "duration": 0.02272724999997422,
          "durationTicks": 7,
          "midi": 54,
          "name": "F#3",
          "ticks": 67260,
          "time": 218.376405,
          "velocity": 0.1732283464566929
        },
        {
          "duration": 0.02272724999997422,
          "durationTicks": 7,
          "midi": 54,
          "name": "F#3",
          "ticks": 67320,
          "time": 218.57121,
          "velocity": 0.5039370078740157
        },
        {
          "duration": 0.02272724999997422,
          "durationTicks": 7,
          "midi": 46,
          "name": "A#2",
          "ticks": 67320,
          "time": 218.57121,
          "velocity": 0.25984251968503935
        },
        {
          "duration": 0.02272724999997422,
          "durationTicks": 7,
          "midi": 54,
          "name": "F#3",
          "ticks": 67380,
          "time": 218.766015,
          "velocity": 0.2047244094488189
        },
        {
          "duration": 0.02272724999997422,
          "durationTicks": 7,
          "midi": 40,
          "name": "E2",
          "ticks": 67440,
          "time": 218.96082,
          "velocity": 0.8267716535433071
        },
        {
          "duration": 0.02272724999997422,
          "durationTicks": 7,
          "midi": 54,
          "name": "F#3",
          "ticks": 67440,
          "time": 218.96082,
          "velocity": 0.1732283464566929
        },
        {
          "duration": 0.02272724999997422,
          "durationTicks": 7,
          "midi": 46,
          "name": "A#2",
          "ticks": 67440,
          "time": 218.96082,
          "velocity": 0.25984251968503935
        },
        {
          "duration": 0.02272724999997422,
          "durationTicks": 7,
          "midi": 54,
          "name": "F#3",
          "ticks": 67500,
          "time": 219.15562500000001,
          "velocity": 0.1732283464566929
        },
        {
          "duration": 0.02597400000001926,
          "durationTicks": 8,
          "midi": 54,
          "name": "F#3",
          "ticks": 67562,
          "time": 219.3569235,
          "velocity": 0.41732283464566927
        },
        {
          "duration": 0.02597400000001926,
          "durationTicks": 8,
          "midi": 46,
          "name": "A#2",
          "ticks": 67562,
          "time": 219.3569235,
          "velocity": 0.2125984251968504
        },
        {
          "duration": 0.02272724999997422,
          "durationTicks": 7,
          "midi": 40,
          "name": "E2",
          "ticks": 67620,
          "time": 219.54523500000002,
          "velocity": 0.6692913385826772
        },
        {
          "duration": 0.02272724999997422,
          "durationTicks": 7,
          "midi": 54,
          "name": "F#3",
          "ticks": 67620,
          "time": 219.54523500000002,
          "velocity": 0.23622047244094488
        },
        {
          "duration": 0.02597400000001926,
          "durationTicks": 8,
          "midi": 36,
          "name": "C2",
          "ticks": 67682,
          "time": 219.7465335,
          "velocity": 0.5905511811023622
        },
        {
          "duration": 0.02597400000001926,
          "durationTicks": 8,
          "midi": 54,
          "name": "F#3",
          "ticks": 67682,
          "time": 219.7465335,
          "velocity": 0.23622047244094488
        },
        {
          "duration": 0.022727250000031063,
          "durationTicks": 7,
          "midi": 46,
          "name": "A#2",
          "ticks": 67685,
          "time": 219.75627375,
          "velocity": 0.25984251968503935
        },
        {
          "duration": 0.02272725000000264,
          "durationTicks": 7,
          "midi": 40,
          "name": "E2",
          "ticks": 67740,
          "time": 219.934845,
          "velocity": 0.5984251968503937
        },
        {
          "duration": 0.02272725000000264,
          "durationTicks": 7,
          "midi": 54,
          "name": "F#3",
          "ticks": 67740,
          "time": 219.934845,
          "velocity": 0.1732283464566929
        },
        {
          "duration": 0.02272724999997422,
          "durationTicks": 7,
          "midi": 36,
          "name": "C2",
          "ticks": 67800,
          "time": 220.12965,
          "velocity": 0.5905511811023622
        },
        {
          "duration": 0.02597400000001926,
          "durationTicks": 8,
          "midi": 54,
          "name": "F#3",
          "ticks": 67802,
          "time": 220.1361435,
          "velocity": 0.41732283464566927
        },
        {
          "duration": 0.02597400000001926,
          "durationTicks": 8,
          "midi": 46,
          "name": "A#2",
          "ticks": 67802,
          "time": 220.1361435,
          "velocity": 0.2125984251968504
        },
        {
          "duration": 0.02272724999997422,
          "durationTicks": 7,
          "midi": 54,
          "name": "F#3",
          "ticks": 67860,
          "time": 220.324455,
          "velocity": 0.23622047244094488
        },
        {
          "duration": 0.02597400000001926,
          "durationTicks": 8,
          "midi": 40,
          "name": "E2",
          "ticks": 67922,
          "time": 220.5257535,
          "velocity": 0.8267716535433071
        },
        {
          "duration": 0.02597400000001926,
          "durationTicks": 8,
          "midi": 54,
          "name": "F#3",
          "ticks": 67922,
          "time": 220.5257535,
          "velocity": 0.23622047244094488
        },
        {
          "duration": 0.02597400000001926,
          "durationTicks": 8,
          "midi": 46,
          "name": "A#2",
          "ticks": 67922,
          "time": 220.5257535,
          "velocity": 0.25984251968503935
        },
        {
          "duration": 0.02272724999997422,
          "durationTicks": 7,
          "midi": 54,
          "name": "F#3",
          "ticks": 67980,
          "time": 220.714065,
          "velocity": 0.28346456692913385
        },
        {
          "duration": 0.02272724999997422,
          "durationTicks": 7,
          "midi": 36,
          "name": "C2",
          "ticks": 68040,
          "time": 220.90887,
          "velocity": 0.5905511811023622
        },
        {
          "duration": 0.02272724999997422,
          "durationTicks": 7,
          "midi": 54,
          "name": "F#3",
          "ticks": 68040,
          "time": 220.90887,
          "velocity": 0.41732283464566927
        },
        {
          "duration": 0.02597400000001926,
          "durationTicks": 8,
          "midi": 46,
          "name": "A#2",
          "ticks": 68042,
          "time": 220.9153635,
          "velocity": 0.25984251968503935
        },
        {
          "duration": 0.02272724999997422,
          "durationTicks": 7,
          "midi": 54,
          "name": "F#3",
          "ticks": 68100,
          "time": 221.103675,
          "velocity": 0.28346456692913385
        },
        {
          "duration": 0.02597400000001926,
          "durationTicks": 8,
          "midi": 36,
          "name": "C2",
          "ticks": 68162,
          "time": 221.3049735,
          "velocity": 0.5905511811023622
        },
        {
          "duration": 0.022727250000031063,
          "durationTicks": 7,
          "midi": 54,
          "name": "F#3",
          "ticks": 68165,
          "time": 221.31471374999998,
          "velocity": 0.23622047244094488
        },
        {
          "duration": 0.022727250000031063,
          "durationTicks": 7,
          "midi": 46,
          "name": "A#2",
          "ticks": 68165,
          "time": 221.31471374999998,
          "velocity": 0.2125984251968504
        },
        {
          "duration": 0.02272724999997422,
          "durationTicks": 7,
          "midi": 54,
          "name": "F#3",
          "ticks": 68220,
          "time": 221.49328500000001,
          "velocity": 0.14173228346456693
        },
        {
          "duration": 0.02272724999997422,
          "durationTicks": 7,
          "midi": 54,
          "name": "F#3",
          "ticks": 68280,
          "time": 221.68809000000002,
          "velocity": 0.41732283464566927
        },
        {
          "duration": 0.02272724999997422,
          "durationTicks": 7,
          "midi": 46,
          "name": "A#2",
          "ticks": 68280,
          "time": 221.68809000000002,
          "velocity": 0.25984251968503935
        },
        {
          "duration": 0.02272724999997422,
          "durationTicks": 7,
          "midi": 54,
          "name": "F#3",
          "ticks": 68340,
          "time": 221.88289500000002,
          "velocity": 0.28346456692913385
        },
        {
          "duration": 0.02272725000000264,
          "durationTicks": 7,
          "midi": 40,
          "name": "E2",
          "ticks": 68400,
          "time": 222.0777,
          "velocity": 0.8267716535433071
        },
        {
          "duration": 0.02272725000000264,
          "durationTicks": 7,
          "midi": 54,
          "name": "F#3",
          "ticks": 68400,
          "time": 222.0777,
          "velocity": 0.28346456692913385
        },
        {
          "duration": 0.02272725000000264,
          "durationTicks": 7,
          "midi": 46,
          "name": "A#2",
          "ticks": 68400,
          "time": 222.0777,
          "velocity": 0.25984251968503935
        },
        {
          "duration": 0.02272725000000264,
          "durationTicks": 7,
          "midi": 54,
          "name": "F#3",
          "ticks": 68460,
          "time": 222.272505,
          "velocity": 0.14173228346456693
        },
        {
          "duration": 0.02597400000001926,
          "durationTicks": 8,
          "midi": 54,
          "name": "F#3",
          "ticks": 68522,
          "time": 222.4738035,
          "velocity": 0.41732283464566927
        },
        {
          "duration": 0.02597400000001926,
          "durationTicks": 8,
          "midi": 46,
          "name": "A#2",
          "ticks": 68522,
          "time": 222.4738035,
          "velocity": 0.2125984251968504
        },
        {
          "duration": 0.02272724999997422,
          "durationTicks": 7,
          "midi": 40,
          "name": "E2",
          "ticks": 68580,
          "time": 222.662115,
          "velocity": 0.6220472440944882
        },
        {
          "duration": 0.02272724999997422,
          "durationTicks": 7,
          "midi": 54,
          "name": "F#3",
          "ticks": 68580,
          "time": 222.662115,
          "velocity": 0.1732283464566929
        },
        {
          "duration": 0.02597400000001926,
          "durationTicks": 8,
          "midi": 36,
          "name": "C2",
          "ticks": 68642,
          "time": 222.8634135,
          "velocity": 0.5826771653543307
        },
        {
          "duration": 0.02272725000000264,
          "durationTicks": 7,
          "midi": 54,
          "name": "F#3",
          "ticks": 68645,
          "time": 222.87315375,
          "velocity": 0.2047244094488189
        },
        {
          "duration": 0.02272725000000264,
          "durationTicks": 7,
          "midi": 46,
          "name": "A#2",
          "ticks": 68645,
          "time": 222.87315375,
          "velocity": 0.25984251968503935
        },
        {
          "duration": 0.02272724999997422,
          "durationTicks": 7,
          "midi": 54,
          "name": "F#3",
          "ticks": 68700,
          "time": 223.051725,
          "velocity": 0.2047244094488189
        },
        {
          "duration": 0.02272724999997422,
          "durationTicks": 7,
          "midi": 40,
          "name": "E2",
          "ticks": 68760,
          "time": 223.24653,
          "velocity": 0.8188976377952756
        },
        {
          "duration": 0.02272724999997422,
          "durationTicks": 7,
          "midi": 54,
          "name": "F#3",
          "ticks": 68760,
          "time": 223.24653,
          "velocity": 0.41732283464566927
        },
        {
          "duration": 0.02597400000001926,
          "durationTicks": 8,
          "midi": 46,
          "name": "A#2",
          "ticks": 68762,
          "time": 223.2530235,
          "velocity": 0.2125984251968504
        },
        {
          "duration": 0.02272724999997422,
          "durationTicks": 7,
          "midi": 40,
          "name": "E2",
          "ticks": 68820,
          "time": 223.441335,
          "velocity": 0.7952755905511811
        },
        {
          "duration": 0.02272724999997422,
          "durationTicks": 7,
          "midi": 54,
          "name": "F#3",
          "ticks": 68820,
          "time": 223.441335,
          "velocity": 0.14173228346456693
        },
        {
          "duration": 0.02597400000004768,
          "durationTicks": 8,
          "midi": 41,
          "name": "F2",
          "ticks": 68882,
          "time": 223.6426335,
          "velocity": 0.8031496062992126
        },
        {
          "duration": 0.02597400000004768,
          "durationTicks": 8,
          "midi": 40,
          "name": "E2",
          "ticks": 68882,
          "time": 223.6426335,
          "velocity": 0.8267716535433071
        },
        {
          "duration": 0.02597400000004768,
          "durationTicks": 8,
          "midi": 54,
          "name": "F#3",
          "ticks": 68882,
          "time": 223.6426335,
          "velocity": 0.23622047244094488
        },
        {
          "duration": 0.02597400000004768,
          "durationTicks": 8,
          "midi": 46,
          "name": "A#2",
          "ticks": 68882,
          "time": 223.6426335,
          "velocity": 0.25984251968503935
        },
        {
          "duration": 0.02272724999997422,
          "durationTicks": 7,
          "midi": 41,
          "name": "F2",
          "ticks": 68940,
          "time": 223.830945,
          "velocity": 0.8110236220472441
        },
        {
          "duration": 0.02597400000001926,
          "durationTicks": 8,
          "midi": 54,
          "name": "F#3",
          "ticks": 68942,
          "time": 223.8374385,
          "velocity": 0.2047244094488189
        },
        {
          "duration": 0.02272724999997422,
          "durationTicks": 7,
          "midi": 41,
          "name": "F2",
          "ticks": 69000,
          "time": 224.02575000000002,
          "velocity": 0.8031496062992126
        },
        {
          "duration": 0.02597400000001926,
          "durationTicks": 8,
          "midi": 36,
          "name": "C2",
          "ticks": 69002,
          "time": 224.0322435,
          "velocity": 0.5826771653543307
        },
        {
          "duration": 0.02597400000001926,
          "durationTicks": 8,
          "midi": 54,
          "name": "F#3",
          "ticks": 69002,
          "time": 224.0322435,
          "velocity": 0.41732283464566927
        },
        {
          "duration": 0.02597400000001926,
          "durationTicks": 8,
          "midi": 46,
          "name": "A#2",
          "ticks": 69002,
          "time": 224.0322435,
          "velocity": 0.25984251968503935
        },
        {
          "duration": 0.02597400000001926,
          "durationTicks": 8,
          "midi": 41,
          "name": "F2",
          "ticks": 69062,
          "time": 224.2270485,
          "velocity": 0.84251968503937
        },
        {
          "duration": 0.02597400000001926,
          "durationTicks": 8,
          "midi": 54,
          "name": "F#3",
          "ticks": 69062,
          "time": 224.2270485,
          "velocity": 0.1732283464566929
        },
        {
          "duration": 0.02597400000001926,
          "durationTicks": 8,
          "midi": 41,
          "name": "F2",
          "ticks": 69122,
          "time": 224.4218535,
          "velocity": 0.7322834645669292
        },
        {
          "duration": 0.02597400000001926,
          "durationTicks": 8,
          "midi": 40,
          "name": "E2",
          "ticks": 69122,
          "time": 224.4218535,
          "velocity": 0.7322834645669292
        },
        {
          "duration": 0.022727250000031063,
          "durationTicks": 7,
          "midi": 46,
          "name": "A#2",
          "ticks": 69125,
          "time": 224.43159375,
          "velocity": 0.25984251968503935
        },
        {
          "duration": 0.02272725000000264,
          "durationTicks": 7,
          "midi": 41,
          "name": "F2",
          "ticks": 69240,
          "time": 224.80497,
          "velocity": 0.7322834645669292
        },
        {
          "duration": 0.02272725000000264,
          "durationTicks": 7,
          "midi": 40,
          "name": "E2",
          "ticks": 69240,
          "time": 224.80497,
          "velocity": 0.7322834645669292
        },
        {
          "duration": 0.02597400000001926,
          "durationTicks": 8,
          "midi": 46,
          "name": "A#2",
          "ticks": 69242,
          "time": 224.8114635,
          "velocity": 0.25984251968503935
        },
        {
          "duration": 0.02272724999997422,
          "durationTicks": 7,
          "midi": 41,
          "name": "F2",
          "ticks": 69360,
          "time": 225.19458,
          "velocity": 0.7322834645669292
        },
        {
          "duration": 0.02597400000001926,
          "durationTicks": 8,
          "midi": 40,
          "name": "E2",
          "ticks": 69362,
          "time": 225.2010735,
          "velocity": 0.7322834645669292
        },
        {
          "duration": 0.02597400000001926,
          "durationTicks": 8,
          "midi": 46,
          "name": "A#2",
          "ticks": 69362,
          "time": 225.2010735,
          "velocity": 0.25984251968503935
        },
        {
          "duration": 0.02597400000001926,
          "durationTicks": 8,
          "midi": 41,
          "name": "F2",
          "ticks": 69482,
          "time": 225.5906835,
          "velocity": 0.7322834645669292
        },
        {
          "duration": 0.02597400000001926,
          "durationTicks": 8,
          "midi": 40,
          "name": "E2",
          "ticks": 69482,
          "time": 225.5906835,
          "velocity": 0.7322834645669292
        },
        {
          "duration": 0.02597400000001926,
          "durationTicks": 8,
          "midi": 46,
          "name": "A#2",
          "ticks": 69482,
          "time": 225.5906835,
          "velocity": 0.2125984251968504
        },
        {
          "duration": 0.02597400000004768,
          "durationTicks": 8,
          "midi": 41,
          "name": "F2",
          "ticks": 69602,
          "time": 225.9802935,
          "velocity": 0.7322834645669292
        },
        {
          "duration": 0.022727250000031063,
          "durationTicks": 7,
          "midi": 40,
          "name": "E2",
          "ticks": 69605,
          "time": 225.99003374999998,
          "velocity": 0.7322834645669292
        },
        {
          "duration": 0.022727250000031063,
          "durationTicks": 7,
          "midi": 46,
          "name": "A#2",
          "ticks": 69605,
          "time": 225.99003374999998,
          "velocity": 0.25984251968503935
        },
        {
          "duration": 0.02597400000001926,
          "durationTicks": 8,
          "midi": 41,
          "name": "F2",
          "ticks": 69722,
          "time": 226.3699035,
          "velocity": 0.7322834645669292
        },
        {
          "duration": 0.02597400000001926,
          "durationTicks": 8,
          "midi": 40,
          "name": "E2",
          "ticks": 69722,
          "time": 226.3699035,
          "velocity": 0.7322834645669292
        },
        {
          "duration": 0.02597400000001926,
          "durationTicks": 8,
          "midi": 46,
          "name": "A#2",
          "ticks": 69722,
          "time": 226.3699035,
          "velocity": 0.2125984251968504
        },
        {
          "duration": 0.022727250000031063,
          "durationTicks": 7,
          "midi": 41,
          "name": "F2",
          "ticks": 69845,
          "time": 226.76925375,
          "velocity": 0.7322834645669292
        },
        {
          "duration": 0.022727250000031063,
          "durationTicks": 7,
          "midi": 40,
          "name": "E2",
          "ticks": 69845,
          "time": 226.76925375,
          "velocity": 0.7322834645669292
        },
        {
          "duration": 0.02597400000001926,
          "durationTicks": 8,
          "midi": 46,
          "name": "A#2",
          "ticks": 69847,
          "time": 226.77574725,
          "velocity": 0.25984251968503935
        },
        {
          "duration": 0.02272725000000264,
          "durationTicks": 7,
          "midi": 35,
          "name": "B1",
          "ticks": 70085,
          "time": 227.54847375,
          "velocity": 0.6299212598425197
        },
        {
          "duration": 0.02272724999997422,
          "durationTicks": 7,
          "midi": 41,
          "name": "F2",
          "ticks": 70560,
          "time": 229.09068000000002,
          "velocity": 0.5196850393700787
        },
        {
          "duration": 0.02272724999997422,
          "durationTicks": 7,
          "midi": 41,
          "name": "F2",
          "ticks": 70590,
          "time": 229.1880825,
          "velocity": 0.4566929133858268
        },
        {
          "duration": 0.02272725000000264,
          "durationTicks": 7,
          "midi": 41,
          "name": "F2",
          "ticks": 70620,
          "time": 229.285485,
          "velocity": 0.36220472440944884
        },
        {
          "duration": 0.02272724999997422,
          "durationTicks": 7,
          "midi": 41,
          "name": "F2",
          "ticks": 70650,
          "time": 229.3828875,
          "velocity": 0.33070866141732286
        },
        {
          "duration": 0.02272725000000264,
          "durationTicks": 7,
          "midi": 41,
          "name": "F2",
          "ticks": 70680,
          "time": 229.48029,
          "velocity": 0.2992125984251969
        },
        {
          "duration": 0.02272724999997422,
          "durationTicks": 7,
          "midi": 41,
          "name": "F2",
          "ticks": 70710,
          "time": 229.5776925,
          "velocity": 0.2677165354330709
        },
        {
          "duration": 0.02272724999997422,
          "durationTicks": 7,
          "midi": 41,
          "name": "F2",
          "ticks": 70740,
          "time": 229.675095,
          "velocity": 0.23622047244094488
        },
        {
          "duration": 0.02272724999997422,
          "durationTicks": 7,
          "midi": 41,
          "name": "F2",
          "ticks": 70770,
          "time": 229.77249750000001,
          "velocity": 0.1732283464566929
        },
        {
          "duration": 0.02272724999997422,
          "durationTicks": 7,
          "midi": 41,
          "name": "F2",
          "ticks": 70800,
          "time": 229.8699,
          "velocity": 0.14173228346456693
        },
        {
          "duration": 0.025973999999962416,
          "durationTicks": 8,
          "midi": 41,
          "name": "F2",
          "ticks": 70827,
          "time": 229.95756225000002,
          "velocity": 0.14173228346456693
        },
        {
          "duration": 0.02272724999997422,
          "durationTicks": 7,
          "midi": 41,
          "name": "F2",
          "ticks": 70855,
          "time": 230.04847125000003,
          "velocity": 0.14173228346456693
        },
        {
          "duration": 0.02272724999997422,
          "durationTicks": 7,
          "midi": 41,
          "name": "F2",
          "ticks": 70885,
          "time": 230.14587375000002,
          "velocity": 0.14173228346456693
        },
        {
          "duration": 0.02272725000000264,
          "durationTicks": 7,
          "midi": 41,
          "name": "F2",
          "ticks": 70915,
          "time": 230.24327625,
          "velocity": 0.33070866141732286
        },
        {
          "duration": 0.025973999999962416,
          "durationTicks": 8,
          "midi": 41,
          "name": "F2",
          "ticks": 70947,
          "time": 230.34717225000003,
          "velocity": 0.33070866141732286
        },
        {
          "duration": 0.02272725000000264,
          "durationTicks": 7,
          "midi": 41,
          "name": "F2",
          "ticks": 70975,
          "time": 230.43808125,
          "velocity": 0.36220472440944884
        },
        {
          "duration": 0.02272724999997422,
          "durationTicks": 7,
          "midi": 41,
          "name": "F2",
          "ticks": 71005,
          "time": 230.53548375000003,
          "velocity": 0.36220472440944884
        },
        {
          "duration": 0.022727250000031063,
          "durationTicks": 7,
          "midi": 41,
          "name": "F2",
          "ticks": 71045,
          "time": 230.66535374999998,
          "velocity": 0.3937007874015748
        },
        {
          "duration": 0.022727250000031063,
          "durationTicks": 7,
          "midi": 49,
          "name": "C#3",
          "ticks": 71045,
          "time": 230.66535374999998,
          "velocity": 0.3700787401574803
        },
        {
          "duration": 0.02272725000000264,
          "durationTicks": 7,
          "midi": 41,
          "name": "F2",
          "ticks": 71070,
          "time": 230.7465225,
          "velocity": 0.5590551181102362
        },
        {
          "duration": 0.02272724999997422,
          "durationTicks": 7,
          "midi": 41,
          "name": "F2",
          "ticks": 71100,
          "time": 230.843925,
          "velocity": 0.33070866141732286
        },
        {
          "duration": 0.02272724999997422,
          "durationTicks": 7,
          "midi": 41,
          "name": "F2",
          "ticks": 71130,
          "time": 230.9413275,
          "velocity": 0.33070866141732286
        },
        {
          "duration": 0.02272724999997422,
          "durationTicks": 7,
          "midi": 41,
          "name": "F2",
          "ticks": 71160,
          "time": 231.03873000000002,
          "velocity": 0.33070866141732286
        },
        {
          "duration": 0.02272724999997422,
          "durationTicks": 7,
          "midi": 41,
          "name": "F2",
          "ticks": 71190,
          "time": 231.1361325,
          "velocity": 0.33070866141732286
        },
        {
          "duration": 0.02272724999997422,
          "durationTicks": 7,
          "midi": 41,
          "name": "F2",
          "ticks": 71220,
          "time": 231.23353500000002,
          "velocity": 0.33070866141732286
        },
        {
          "duration": 0.02272724999997422,
          "durationTicks": 7,
          "midi": 41,
          "name": "F2",
          "ticks": 71250,
          "time": 231.3309375,
          "velocity": 0.33070866141732286
        },
        {
          "duration": 0.02272724999997422,
          "durationTicks": 7,
          "midi": 41,
          "name": "F2",
          "ticks": 71280,
          "time": 231.42834000000002,
          "velocity": 0.33070866141732286
        },
        {
          "duration": 0.025973999999990838,
          "durationTicks": 8,
          "midi": 41,
          "name": "F2",
          "ticks": 71307,
          "time": 231.51600225,
          "velocity": 0.33070866141732286
        },
        {
          "duration": 0.02272724999997422,
          "durationTicks": 7,
          "midi": 41,
          "name": "F2",
          "ticks": 71335,
          "time": 231.60691125000002,
          "velocity": 0.2992125984251969
        },
        {
          "duration": 0.02272725000000264,
          "durationTicks": 7,
          "midi": 41,
          "name": "F2",
          "ticks": 71365,
          "time": 231.70431375,
          "velocity": 0.2677165354330709
        },
        {
          "duration": 0.02272724999997422,
          "durationTicks": 7,
          "midi": 41,
          "name": "F2",
          "ticks": 71395,
          "time": 231.80171625000003,
          "velocity": 0.2677165354330709
        },
        {
          "duration": 0.025973999999962416,
          "durationTicks": 8,
          "midi": 41,
          "name": "F2",
          "ticks": 71427,
          "time": 231.90561225000002,
          "velocity": 0.23622047244094488
        },
        {
          "duration": 0.02272724999997422,
          "durationTicks": 7,
          "midi": 41,
          "name": "F2",
          "ticks": 71455,
          "time": 231.99652125000003,
          "velocity": 0.23622047244094488
        },
        {
          "duration": 0.02272724999997422,
          "durationTicks": 7,
          "midi": 41,
          "name": "F2",
          "ticks": 71485,
          "time": 232.09392375000002,
          "velocity": 0.23622047244094488
        },
        {
          "duration": 0.02597400000001926,
          "durationTicks": 8,
          "midi": 41,
          "name": "F2",
          "ticks": 71522,
          "time": 232.2140535,
          "velocity": 0.23622047244094488
        },
        {
          "duration": 0.02272724999997422,
          "durationTicks": 7,
          "midi": 41,
          "name": "F2",
          "ticks": 71550,
          "time": 232.30496250000002,
          "velocity": 0.2992125984251969
        },
        {
          "duration": 0.02272724999997422,
          "durationTicks": 7,
          "midi": 41,
          "name": "F2",
          "ticks": 71580,
          "time": 232.402365,
          "velocity": 0.33070866141732286
        },
        {
          "duration": 0.02272724999997422,
          "durationTicks": 7,
          "midi": 41,
          "name": "F2",
          "ticks": 71610,
          "time": 232.49976750000002,
          "velocity": 0.33070866141732286
        },
        {
          "duration": 0.02272724999997422,
          "durationTicks": 7,
          "midi": 41,
          "name": "F2",
          "ticks": 71640,
          "time": 232.59717,
          "velocity": 0.33070866141732286
        },
        {
          "duration": 0.02272724999997422,
          "durationTicks": 7,
          "midi": 41,
          "name": "F2",
          "ticks": 71670,
          "time": 232.69457250000002,
          "velocity": 0.36220472440944884
        },
        {
          "duration": 0.02272724999997422,
          "durationTicks": 7,
          "midi": 41,
          "name": "F2",
          "ticks": 71700,
          "time": 232.791975,
          "velocity": 0.4251968503937008
        },
        {
          "duration": 0.02272725000000264,
          "durationTicks": 7,
          "midi": 41,
          "name": "F2",
          "ticks": 71730,
          "time": 232.8893775,
          "velocity": 0.3937007874015748
        },
        {
          "duration": 0.02272724999997422,
          "durationTicks": 7,
          "midi": 41,
          "name": "F2",
          "ticks": 71760,
          "time": 232.98678,
          "velocity": 0.3937007874015748
        },
        {
          "duration": 0.025973999999990838,
          "durationTicks": 8,
          "midi": 41,
          "name": "F2",
          "ticks": 71787,
          "time": 233.07444225,
          "velocity": 0.3937007874015748
        },
        {
          "duration": 0.02272724999997422,
          "durationTicks": 7,
          "midi": 41,
          "name": "F2",
          "ticks": 71815,
          "time": 233.16535125000001,
          "velocity": 0.3937007874015748
        },
        {
          "duration": 0.02272724999997422,
          "durationTicks": 7,
          "midi": 41,
          "name": "F2",
          "ticks": 71845,
          "time": 233.26275375000003,
          "velocity": 0.3937007874015748
        },
        {
          "duration": 0.02272724999997422,
          "durationTicks": 7,
          "midi": 41,
          "name": "F2",
          "ticks": 71875,
          "time": 233.36015625000002,
          "velocity": 0.3937007874015748
        },
        {
          "duration": 0.025973999999990838,
          "durationTicks": 8,
          "midi": 41,
          "name": "F2",
          "ticks": 71907,
          "time": 233.46405225,
          "velocity": 0.3937007874015748
        },
        {
          "duration": 0.02272724999997422,
          "durationTicks": 7,
          "midi": 41,
          "name": "F2",
          "ticks": 71935,
          "time": 233.55496125000002,
          "velocity": 0.3937007874015748
        },
        {
          "duration": 0.02272724999997422,
          "durationTicks": 7,
          "midi": 41,
          "name": "F2",
          "ticks": 71965,
          "time": 233.65236375000003,
          "velocity": 0.3937007874015748
        },
        {
          "duration": 0.022727250000031063,
          "durationTicks": 7,
          "midi": 41,
          "name": "F2",
          "ticks": 72005,
          "time": 233.78223375,
          "velocity": 0.3937007874015748
        },
        {
          "duration": 0.02272724999997422,
          "durationTicks": 7,
          "midi": 41,
          "name": "F2",
          "ticks": 72240,
          "time": 234.54522,
          "velocity": 0.3937007874015748
        },
        {
          "duration": 0.02272724999997422,
          "durationTicks": 7,
          "midi": 41,
          "name": "F2",
          "ticks": 72270,
          "time": 234.64262250000002,
          "velocity": 0.3937007874015748
        },
        {
          "duration": 0.02272724999997422,
          "durationTicks": 7,
          "midi": 41,
          "name": "F2",
          "ticks": 72300,
          "time": 234.740025,
          "velocity": 0.3937007874015748
        },
        {
          "duration": 0.02272724999997422,
          "durationTicks": 7,
          "midi": 41,
          "name": "F2",
          "ticks": 72330,
          "time": 234.83742750000002,
          "velocity": 0.36220472440944884
        },
        {
          "duration": 0.02272724999997422,
          "durationTicks": 7,
          "midi": 41,
          "name": "F2",
          "ticks": 72360,
          "time": 234.93483,
          "velocity": 0.2992125984251969
        },
        {
          "duration": 0.02272724999997422,
          "durationTicks": 7,
          "midi": 41,
          "name": "F2",
          "ticks": 72390,
          "time": 235.03223250000002,
          "velocity": 0.36220472440944884
        },
        {
          "duration": 0.02272724999997422,
          "durationTicks": 7,
          "midi": 41,
          "name": "F2",
          "ticks": 72420,
          "time": 235.129635,
          "velocity": 0.3700787401574803
        },
        {
          "duration": 0.02272725000000264,
          "durationTicks": 7,
          "midi": 41,
          "name": "F2",
          "ticks": 72450,
          "time": 235.2270375,
          "velocity": 0.3700787401574803
        },
        {
          "duration": 0.02597400000001926,
          "durationTicks": 8,
          "midi": 41,
          "name": "F2",
          "ticks": 72482,
          "time": 235.33093350000001,
          "velocity": 0.3779527559055118
        },
        {
          "duration": 0.025973999999990838,
          "durationTicks": 8,
          "midi": 41,
          "name": "F2",
          "ticks": 72507,
          "time": 235.41210225,
          "velocity": 0.3779527559055118
        },
        {
          "duration": 0.02272724999997422,
          "durationTicks": 7,
          "midi": 41,
          "name": "F2",
          "ticks": 72535,
          "time": 235.50301125000001,
          "velocity": 0.3779527559055118
        },
        {
          "duration": 0.02272724999997422,
          "durationTicks": 7,
          "midi": 41,
          "name": "F2",
          "ticks": 72565,
          "time": 235.60041375000003,
          "velocity": 0.3858267716535433
        },
        {
          "duration": 0.02272724999997422,
          "durationTicks": 7,
          "midi": 41,
          "name": "F2",
          "ticks": 72595,
          "time": 235.69781625000002,
          "velocity": 0.3858267716535433
        },
        {
          "duration": 0.025973999999990838,
          "durationTicks": 8,
          "midi": 41,
          "name": "F2",
          "ticks": 72627,
          "time": 235.80171225,
          "velocity": 0.3937007874015748
        },
        {
          "duration": 0.02272724999997422,
          "durationTicks": 7,
          "midi": 41,
          "name": "F2",
          "ticks": 72655,
          "time": 235.89262125000002,
          "velocity": 0.3937007874015748
        },
        {
          "duration": 0.02272724999997422,
          "durationTicks": 7,
          "midi": 41,
          "name": "F2",
          "ticks": 72685,
          "time": 235.99002375000003,
          "velocity": 0.3937007874015748
        },
        {
          "duration": 0.02272724999997422,
          "durationTicks": 7,
          "midi": 41,
          "name": "F2",
          "ticks": 72720,
          "time": 236.10366000000002,
          "velocity": 0.3937007874015748
        },
        {
          "duration": 0.02272724999997422,
          "durationTicks": 7,
          "midi": 41,
          "name": "F2",
          "ticks": 72750,
          "time": 236.2010625,
          "velocity": 0.4251968503937008
        },
        {
          "duration": 0.02272725000000264,
          "durationTicks": 7,
          "midi": 41,
          "name": "F2",
          "ticks": 72780,
          "time": 236.298465,
          "velocity": 0.4251968503937008
        },
        {
          "duration": 0.02272724999997422,
          "durationTicks": 7,
          "midi": 41,
          "name": "F2",
          "ticks": 72810,
          "time": 236.3958675,
          "velocity": 0.4251968503937008
        },
        {
          "duration": 0.02272725000000264,
          "durationTicks": 7,
          "midi": 41,
          "name": "F2",
          "ticks": 72840,
          "time": 236.49327,
          "velocity": 0.4251968503937008
        },
        {
          "duration": 0.02272724999997422,
          "durationTicks": 7,
          "midi": 41,
          "name": "F2",
          "ticks": 72870,
          "time": 236.5906725,
          "velocity": 0.4251968503937008
        },
        {
          "duration": 0.02272725000000264,
          "durationTicks": 7,
          "midi": 41,
          "name": "F2",
          "ticks": 72900,
          "time": 236.688075,
          "velocity": 0.4251968503937008
        },
        {
          "duration": 0.02272724999997422,
          "durationTicks": 7,
          "midi": 41,
          "name": "F2",
          "ticks": 72930,
          "time": 236.7854775,
          "velocity": 0.4251968503937008
        },
        {
          "duration": 0.02597400000001926,
          "durationTicks": 8,
          "midi": 41,
          "name": "F2",
          "ticks": 72962,
          "time": 236.8893735,
          "velocity": 0.4251968503937008
        },
        {
          "duration": 0.025973999999962416,
          "durationTicks": 8,
          "midi": 41,
          "name": "F2",
          "ticks": 72987,
          "time": 236.97054225000002,
          "velocity": 0.4251968503937008
        },
        {
          "duration": 0.02272724999997422,
          "durationTicks": 7,
          "midi": 41,
          "name": "F2",
          "ticks": 73015,
          "time": 237.06145125000003,
          "velocity": 0.4251968503937008
        },
        {
          "duration": 0.02272724999997422,
          "durationTicks": 7,
          "midi": 41,
          "name": "F2",
          "ticks": 73045,
          "time": 237.15885375000002,
          "velocity": 0.4251968503937008
        },
        {
          "duration": 0.02272724999997422,
          "durationTicks": 7,
          "midi": 41,
          "name": "F2",
          "ticks": 73075,
          "time": 237.25625625000004,
          "velocity": 0.4251968503937008
        },
        {
          "duration": 0.025973999999962416,
          "durationTicks": 8,
          "midi": 41,
          "name": "F2",
          "ticks": 73107,
          "time": 237.36015225000003,
          "velocity": 0.4251968503937008
        },
        {
          "duration": 0.02272725000000264,
          "durationTicks": 7,
          "midi": 41,
          "name": "F2",
          "ticks": 73135,
          "time": 237.45106125,
          "velocity": 0.36220472440944884
        },
        {
          "duration": 0.02272724999997422,
          "durationTicks": 7,
          "midi": 41,
          "name": "F2",
          "ticks": 73165,
          "time": 237.54846375000002,
          "velocity": 0.36220472440944884
        },
        {
          "duration": 0.02272724999997422,
          "durationTicks": 7,
          "midi": 41,
          "name": "F2",
          "ticks": 73200,
          "time": 237.6621,
          "velocity": 0.36220472440944884
        },
        {
          "duration": 0.02272725000000264,
          "durationTicks": 7,
          "midi": 41,
          "name": "F2",
          "ticks": 73230,
          "time": 237.7595025,
          "velocity": 0.36220472440944884
        },
        {
          "duration": 0.02272724999997422,
          "durationTicks": 7,
          "midi": 41,
          "name": "F2",
          "ticks": 73260,
          "time": 237.856905,
          "velocity": 0.36220472440944884
        },
        {
          "duration": 0.02272724999997422,
          "durationTicks": 7,
          "midi": 41,
          "name": "F2",
          "ticks": 73290,
          "time": 237.9543075,
          "velocity": 0.36220472440944884
        },
        {
          "duration": 0.02272724999997422,
          "durationTicks": 7,
          "midi": 41,
          "name": "F2",
          "ticks": 73320,
          "time": 238.05171,
          "velocity": 0.36220472440944884
        },
        {
          "duration": 0.02272724999997422,
          "durationTicks": 7,
          "midi": 41,
          "name": "F2",
          "ticks": 73350,
          "time": 238.1491125,
          "velocity": 0.36220472440944884
        },
        {
          "duration": 0.02272724999997422,
          "durationTicks": 7,
          "midi": 41,
          "name": "F2",
          "ticks": 73380,
          "time": 238.24651500000002,
          "velocity": 0.36220472440944884
        },
        {
          "duration": 0.02272724999997422,
          "durationTicks": 7,
          "midi": 41,
          "name": "F2",
          "ticks": 73410,
          "time": 238.3439175,
          "velocity": 0.2992125984251969
        },
        {
          "duration": 0.02597400000001926,
          "durationTicks": 8,
          "midi": 41,
          "name": "F2",
          "ticks": 73442,
          "time": 238.4478135,
          "velocity": 0.2992125984251969
        },
        {
          "duration": 0.02272724999997422,
          "durationTicks": 7,
          "midi": 41,
          "name": "F2",
          "ticks": 73470,
          "time": 238.5387225,
          "velocity": 0.2992125984251969
        },
        {
          "duration": 0.025973999999962416,
          "durationTicks": 8,
          "midi": 41,
          "name": "F2",
          "ticks": 73497,
          "time": 238.62638475000003,
          "velocity": 0.2992125984251969
        },
        {
          "duration": 0.02272725000000264,
          "durationTicks": 7,
          "midi": 41,
          "name": "F2",
          "ticks": 73525,
          "time": 238.71729375,
          "velocity": 0.2992125984251969
        },
        {
          "duration": 0.02272724999997422,
          "durationTicks": 7,
          "midi": 41,
          "name": "F2",
          "ticks": 73555,
          "time": 238.81469625000003,
          "velocity": 0.33070866141732286
        },
        {
          "duration": 0.02272725000000264,
          "durationTicks": 7,
          "midi": 41,
          "name": "F2",
          "ticks": 73585,
          "time": 238.91209875,
          "velocity": 0.33070866141732286
        },
        {
          "duration": 0.025973999999990838,
          "durationTicks": 8,
          "midi": 41,
          "name": "F2",
          "ticks": 73617,
          "time": 239.01599475,
          "velocity": 0.33070866141732286
        },
        {
          "duration": 0.02272724999997422,
          "durationTicks": 7,
          "midi": 41,
          "name": "F2",
          "ticks": 73645,
          "time": 239.10690375000001,
          "velocity": 0.33070866141732286
        },
        {
          "duration": 0.02272724999997422,
          "durationTicks": 7,
          "midi": 41,
          "name": "F2",
          "ticks": 73675,
          "time": 239.20430625000003,
          "velocity": 0.33070866141732286
        },
        {
          "duration": 0.02272724999997422,
          "durationTicks": 7,
          "midi": 41,
          "name": "F2",
          "ticks": 73710,
          "time": 239.31794250000002,
          "velocity": 0.33070866141732286
        },
        {
          "duration": 0.02272724999997422,
          "durationTicks": 7,
          "midi": 41,
          "name": "F2",
          "ticks": 73740,
          "time": 239.415345,
          "velocity": 0.33070866141732286
        },
        {
          "duration": 0.02272724999997422,
          "durationTicks": 7,
          "midi": 41,
          "name": "F2",
          "ticks": 73770,
          "time": 239.51274750000002,
          "velocity": 0.2992125984251969
        },
        {
          "duration": 0.02272724999997422,
          "durationTicks": 7,
          "midi": 41,
          "name": "F2",
          "ticks": 73800,
          "time": 239.61015,
          "velocity": 0.2992125984251969
        },
        {
          "duration": 0.02272724999997422,
          "durationTicks": 7,
          "midi": 41,
          "name": "F2",
          "ticks": 73830,
          "time": 239.70755250000002,
          "velocity": 0.2992125984251969
        },
        {
          "duration": 0.02272724999997422,
          "durationTicks": 7,
          "midi": 41,
          "name": "F2",
          "ticks": 73860,
          "time": 239.804955,
          "velocity": 0.2992125984251969
        },
        {
          "duration": 0.02272725000000264,
          "durationTicks": 7,
          "midi": 41,
          "name": "F2",
          "ticks": 73890,
          "time": 239.9023575,
          "velocity": 0.2677165354330709
        },
        {
          "duration": 0.022727250000031063,
          "durationTicks": 7,
          "midi": 41,
          "name": "F2",
          "ticks": 73925,
          "time": 240.01599374999998,
          "velocity": 0.2677165354330709
        },
        {
          "duration": 0.02272725000000264,
          "durationTicks": 7,
          "midi": 41,
          "name": "F2",
          "ticks": 73950,
          "time": 240.0971625,
          "velocity": 0.2677165354330709
        },
        {
          "duration": 0.025973999999962416,
          "durationTicks": 8,
          "midi": 41,
          "name": "F2",
          "ticks": 73977,
          "time": 240.18482475000002,
          "velocity": 0.2677165354330709
        },
        {
          "duration": 0.02272724999997422,
          "durationTicks": 7,
          "midi": 41,
          "name": "F2",
          "ticks": 74005,
          "time": 240.27573375000003,
          "velocity": 0.2677165354330709
        },
        {
          "duration": 0.02272724999997422,
          "durationTicks": 7,
          "midi": 41,
          "name": "F2",
          "ticks": 74035,
          "time": 240.37313625000002,
          "velocity": 0.2677165354330709
        },
        {
          "duration": 0.02272724999997422,
          "durationTicks": 7,
          "midi": 41,
          "name": "F2",
          "ticks": 74065,
          "time": 240.47053875000003,
          "velocity": 0.2677165354330709
        },
        {
          "duration": 0.025973999999962416,
          "durationTicks": 8,
          "midi": 41,
          "name": "F2",
          "ticks": 74097,
          "time": 240.57443475000002,
          "velocity": 0.2992125984251969
        },
        {
          "duration": 0.02272724999997422,
          "durationTicks": 7,
          "midi": 41,
          "name": "F2",
          "ticks": 74125,
          "time": 240.66534375000003,
          "velocity": 0.36220472440944884
        },
        {
          "duration": 0.02272724999997422,
          "durationTicks": 7,
          "midi": 41,
          "name": "F2",
          "ticks": 74155,
          "time": 240.76274625000002,
          "velocity": 0.3937007874015748
        },
        {
          "duration": 0.02272724999997422,
          "durationTicks": 7,
          "midi": 41,
          "name": "F2",
          "ticks": 74190,
          "time": 240.8763825,
          "velocity": 0.3937007874015748
        },
        {
          "duration": 0.02272724999997422,
          "durationTicks": 7,
          "midi": 41,
          "name": "F2",
          "ticks": 74220,
          "time": 240.97378500000002,
          "velocity": 0.3937007874015748
        },
        {
          "duration": 0.02272724999997422,
          "durationTicks": 7,
          "midi": 41,
          "name": "F2",
          "ticks": 74250,
          "time": 241.0711875,
          "velocity": 0.3937007874015748
        },
        {
          "duration": 0.02272725000000264,
          "durationTicks": 7,
          "midi": 41,
          "name": "F2",
          "ticks": 74280,
          "time": 241.16859,
          "velocity": 0.4251968503937008
        },
        {
          "duration": 0.02272724999997422,
          "durationTicks": 7,
          "midi": 41,
          "name": "F2",
          "ticks": 74310,
          "time": 241.2659925,
          "velocity": 0.4251968503937008
        },
        {
          "duration": 0.02272725000000264,
          "durationTicks": 7,
          "midi": 41,
          "name": "F2",
          "ticks": 74340,
          "time": 241.363395,
          "velocity": 0.4566929133858268
        },
        {
          "duration": 0.02272724999997422,
          "durationTicks": 7,
          "midi": 41,
          "name": "F2",
          "ticks": 74370,
          "time": 241.4607975,
          "velocity": 0.4566929133858268
        },
        {
          "duration": 0.02597400000001926,
          "durationTicks": 8,
          "midi": 41,
          "name": "F2",
          "ticks": 74402,
          "time": 241.5646935,
          "velocity": 0.4566929133858268
        },
        {
          "duration": 0.02272724999997422,
          "durationTicks": 7,
          "midi": 41,
          "name": "F2",
          "ticks": 74430,
          "time": 241.65560250000001,
          "velocity": 0.4566929133858268
        },
        {
          "duration": 0.02272724999997422,
          "durationTicks": 7,
          "midi": 41,
          "name": "F2",
          "ticks": 74460,
          "time": 241.753005,
          "velocity": 0.4566929133858268
        },
        {
          "duration": 0.02272724999997422,
          "durationTicks": 7,
          "midi": 41,
          "name": "F2",
          "ticks": 74490,
          "time": 241.85040750000002,
          "velocity": 0.4566929133858268
        },
        {
          "duration": 0.025973999999990838,
          "durationTicks": 8,
          "midi": 41,
          "name": "F2",
          "ticks": 74517,
          "time": 241.93806975,
          "velocity": 0.4566929133858268
        },
        {
          "duration": 0.02272724999997422,
          "durationTicks": 7,
          "midi": 41,
          "name": "F2",
          "ticks": 74545,
          "time": 242.02897875000002,
          "velocity": 0.4566929133858268
        },
        {
          "duration": 0.02272725000000264,
          "durationTicks": 7,
          "midi": 41,
          "name": "F2",
          "ticks": 74575,
          "time": 242.12638125,
          "velocity": 0.4566929133858268
        },
        {
          "duration": 0.02272724999997422,
          "durationTicks": 7,
          "midi": 41,
          "name": "F2",
          "ticks": 74605,
          "time": 242.22378375000002,
          "velocity": 0.4566929133858268
        },
        {
          "duration": 0.025973999999990838,
          "durationTicks": 8,
          "midi": 41,
          "name": "F2",
          "ticks": 74637,
          "time": 242.32767975000002,
          "velocity": 0.4566929133858268
        },
        {
          "duration": 0.02272724999997422,
          "durationTicks": 7,
          "midi": 41,
          "name": "F2",
          "ticks": 74665,
          "time": 242.41858875000003,
          "velocity": 0.4566929133858268
        },
        {
          "duration": 0.02272724999997422,
          "durationTicks": 7,
          "midi": 41,
          "name": "F2",
          "ticks": 74695,
          "time": 242.51599125,
          "velocity": 0.4566929133858268
        },
        {
          "duration": 0.02272725000000264,
          "durationTicks": 7,
          "midi": 41,
          "name": "F2",
          "ticks": 74730,
          "time": 242.6296275,
          "velocity": 0.4566929133858268
        },
        {
          "duration": 0.02597400000001926,
          "durationTicks": 8,
          "midi": 41,
          "name": "F2",
          "ticks": 74762,
          "time": 242.7335235,
          "velocity": 0.4566929133858268
        },
        {
          "duration": 0.02272724999997422,
          "durationTicks": 7,
          "midi": 41,
          "name": "F2",
          "ticks": 74790,
          "time": 242.8244325,
          "velocity": 0.4566929133858268
        },
        {
          "duration": 0.02272724999997422,
          "durationTicks": 7,
          "midi": 41,
          "name": "F2",
          "ticks": 74820,
          "time": 242.92183500000002,
          "velocity": 0.4566929133858268
        },
        {
          "duration": 0.02272724999997422,
          "durationTicks": 7,
          "midi": 41,
          "name": "F2",
          "ticks": 74850,
          "time": 243.0192375,
          "velocity": 0.4566929133858268
        },
        {
          "duration": 0.02597400000001926,
          "durationTicks": 8,
          "midi": 41,
          "name": "F2",
          "ticks": 74882,
          "time": 243.1231335,
          "velocity": 0.4566929133858268
        },
        {
          "duration": 0.025973999999990838,
          "durationTicks": 8,
          "midi": 41,
          "name": "F2",
          "ticks": 74907,
          "time": 243.20430225,
          "velocity": 0.36220472440944884
        },
        {
          "duration": 0.025973999999962416,
          "durationTicks": 8,
          "midi": 41,
          "name": "F2",
          "ticks": 74937,
          "time": 243.30170475000003,
          "velocity": 0.36220472440944884
        },
        {
          "duration": 0.025973999999990838,
          "durationTicks": 8,
          "midi": 41,
          "name": "F2",
          "ticks": 74967,
          "time": 243.39910725000001,
          "velocity": 0.3464566929133858
        },
        {
          "duration": 0.02272724999997422,
          "durationTicks": 7,
          "midi": 41,
          "name": "F2",
          "ticks": 74995,
          "time": 243.49001625000002,
          "velocity": 0.30708661417322836
        },
        {
          "duration": 0.02272725000000264,
          "durationTicks": 7,
          "midi": 41,
          "name": "F2",
          "ticks": 75025,
          "time": 243.58741875,
          "velocity": 0.30708661417322836
        },
        {
          "duration": 0.02272724999997422,
          "durationTicks": 7,
          "midi": 41,
          "name": "F2",
          "ticks": 75055,
          "time": 243.68482125000003,
          "velocity": 0.30708661417322836
        },
        {
          "duration": 0.025973999999962416,
          "durationTicks": 8,
          "midi": 41,
          "name": "F2",
          "ticks": 75087,
          "time": 243.78871725000002,
          "velocity": 0.30708661417322836
        },
        {
          "duration": 0.02272724999997422,
          "durationTicks": 7,
          "midi": 41,
          "name": "F2",
          "ticks": 75115,
          "time": 243.87962625000003,
          "velocity": 0.2992125984251969
        },
        {
          "duration": 0.02272724999997422,
          "durationTicks": 7,
          "midi": 41,
          "name": "F2",
          "ticks": 75145,
          "time": 243.97702875000002,
          "velocity": 0.2992125984251969
        },
        {
          "duration": 0.02272724999997422,
          "durationTicks": 7,
          "midi": 41,
          "name": "F2",
          "ticks": 75180,
          "time": 244.090665,
          "velocity": 0.2992125984251969
        },
        {
          "duration": 0.02272724999997422,
          "durationTicks": 7,
          "midi": 41,
          "name": "F2",
          "ticks": 75210,
          "time": 244.18806750000002,
          "velocity": 0.2992125984251969
        },
        {
          "duration": 0.02272724999997422,
          "durationTicks": 7,
          "midi": 41,
          "name": "F2",
          "ticks": 75240,
          "time": 244.28547,
          "velocity": 0.2992125984251969
        },
        {
          "duration": 0.02272724999997422,
          "durationTicks": 7,
          "midi": 41,
          "name": "F2",
          "ticks": 75270,
          "time": 244.38287250000002,
          "velocity": 0.2992125984251969
        },
        {
          "duration": 0.02272724999997422,
          "durationTicks": 7,
          "midi": 41,
          "name": "F2",
          "ticks": 75300,
          "time": 244.480275,
          "velocity": 0.2992125984251969
        },
        {
          "duration": 0.02597400000001926,
          "durationTicks": 8,
          "midi": 41,
          "name": "F2",
          "ticks": 75332,
          "time": 244.584171,
          "velocity": 0.2992125984251969
        },
        {
          "duration": 0.02272724999997422,
          "durationTicks": 7,
          "midi": 41,
          "name": "F2",
          "ticks": 75360,
          "time": 244.67508,
          "velocity": 0.2992125984251969
        },
        {
          "duration": 0.02272725000000264,
          "durationTicks": 7,
          "midi": 41,
          "name": "F2",
          "ticks": 75390,
          "time": 244.7724825,
          "velocity": 0.2992125984251969
        },
        {
          "duration": 0.02272724999997422,
          "durationTicks": 7,
          "midi": 41,
          "name": "F2",
          "ticks": 75420,
          "time": 244.869885,
          "velocity": 0.2992125984251969
        },
        {
          "duration": 0.02272725000000264,
          "durationTicks": 7,
          "midi": 41,
          "name": "F2",
          "ticks": 75450,
          "time": 244.9672875,
          "velocity": 0.2992125984251969
        },
        {
          "duration": 0.02272724999997422,
          "durationTicks": 7,
          "midi": 41,
          "name": "F2",
          "ticks": 75480,
          "time": 245.06469,
          "velocity": 0.2992125984251969
        },
        {
          "duration": 0.025973999999990838,
          "durationTicks": 8,
          "midi": 41,
          "name": "F2",
          "ticks": 75507,
          "time": 245.15235225,
          "velocity": 0.2992125984251969
        },
        {
          "duration": 0.02272724999997422,
          "durationTicks": 7,
          "midi": 41,
          "name": "F2",
          "ticks": 75535,
          "time": 245.24326125000002,
          "velocity": 0.2992125984251969
        },
        {
          "duration": 0.02272724999997422,
          "durationTicks": 7,
          "midi": 41,
          "name": "F2",
          "ticks": 75565,
          "time": 245.34066375000003,
          "velocity": 0.2992125984251969
        },
        {
          "duration": 0.02272724999997422,
          "durationTicks": 7,
          "midi": 41,
          "name": "F2",
          "ticks": 75595,
          "time": 245.43806625000002,
          "velocity": 0.2992125984251969
        },
        {
          "duration": 0.025973999999990838,
          "durationTicks": 8,
          "midi": 41,
          "name": "F2",
          "ticks": 75627,
          "time": 245.54196225,
          "velocity": 0.29133858267716534
        },
        {
          "duration": 0.02272724999997422,
          "durationTicks": 7,
          "midi": 41,
          "name": "F2",
          "ticks": 75655,
          "time": 245.63287125000002,
          "velocity": 0.29133858267716534
        },
        {
          "duration": 0.02272725000000264,
          "durationTicks": 7,
          "midi": 41,
          "name": "F2",
          "ticks": 75685,
          "time": 245.73027375,
          "velocity": 0.29133858267716534
        },
        {
          "duration": 0.02272725000000264,
          "durationTicks": 7,
          "midi": 41,
          "name": "F2",
          "ticks": 75720,
          "time": 245.84391,
          "velocity": 0.29133858267716534
        },
        {
          "duration": 0.02272724999997422,
          "durationTicks": 7,
          "midi": 41,
          "name": "F2",
          "ticks": 75750,
          "time": 245.9413125,
          "velocity": 0.29133858267716534
        },
        {
          "duration": 0.02272725000000264,
          "durationTicks": 7,
          "midi": 41,
          "name": "F2",
          "ticks": 75780,
          "time": 246.038715,
          "velocity": 0.29133858267716534
        },
        {
          "duration": 0.02272724999997422,
          "durationTicks": 7,
          "midi": 41,
          "name": "F2",
          "ticks": 75810,
          "time": 246.1361175,
          "velocity": 0.29133858267716534
        },
        {
          "duration": 0.022727250000031063,
          "durationTicks": 7,
          "midi": 41,
          "name": "F2",
          "ticks": 75845,
          "time": 246.24975375,
          "velocity": 0.4645669291338583
        }
      ]
    }
  ]
}